<svg xmlns="http://www.w3.org/2000/svg" xmlns:xlink="http://www.w3.org/1999/xlink" version="1.1" width="122" height="126" viewBox="0 0 122 126">
<defs>
<path id="font_1_107" d="M.44898988 .17396546H.42399598C.4189911 .14398194 .4119873 .099990848 .4019928 .084991458 .394989 .07699585 .32899476 .07699585 .30699159 .07699585H.1269989L.23298645 .17996216C.3889923 .31803895 .44898988 .37210084 .44898988 .47216798 .44898988 .5860901 .35899354 .6660156 .23699951 .6660156 .12399292 .6660156 .049987794 .57411196 .049987794 .48516847 .049987794 .4291687 .099990848 .4291687 .102996829 .4291687 .11999512 .4291687 .15499878 .44117738 .15499878 .48217774 .15499878 .5081787 .13699341 .5341797 .101989749 .5341797 .09399414 .5341797 .09199524 .5341797 .08898926 .5331726 .11199951 .59806826 .1659851 .63500979 .22399903 .63500979 .31498719 .63500979 .35798646 .5541382 .35798646 .47216798 .35798646 .39196778 .30799867 .31297303 .25299073 .25097657L.06098938 .036987306C.049987794 .025985718 .049987794 .023986817 .049987794 0H.42099L.44898988 .17396546Z"/>
<path id="font_1_82" d="M.4189911 0V.0309906H.3869934C.29699708 .0309906 .2939911 .041992189 .2939911 .07902527V.64012148C.2939911 .6640167 .2939911 .6660156 .2709961 .6660156 .20899964 .60227969 .12098694 .60227969 .08898926 .60227969V.57128909C.10899353 .57128909 .16799927 .57128909 .21998596 .5972748V.07902527C.21998596 .042999269 .21699524 .0309906 .1269989 .0309906H.09498596V0C.12998963 .0029907227 .21699524 .0029907227 .25698854 .0029907227 .29699708 .0029907227 .38398744 .0029907227 .4189911 0Z"/>
<path id="font_2_1" d="M.1269989 .07699585 .23298645 .18003845C.3889923 .31811524 .44898988 .3721466 .44898988 .47216798 .44898988 .5860901 .35899354 .6660156 .23699951 .6660156 .12399292 .6660156 .049987794 .57411196 .049987794 .48516847 .049987794 .4291687 .099990848 .4291687 .102996829 .4291687 .11999512 .4291687 .15499878 .44117738 .15499878 .48217774 .15499878 .5081787 .13699341 .5341797 .101989749 .5341797 .09399414 .5341797 .09199524 .5341797 .08898926 .5331726 .11199951 .59806826 .1659851 .63500979 .22399903 .63500979 .31498719 .63500979 .35798646 .5541382 .35798646 .47216798 .35798646 .39215089 .30799867 .31311036 .25299073 .25108338L.06098938 .036987306C.049987794 .025985718 .049987794 .023986817 .049987794 0H.42099L.44898988 .17404175H.42399598C.4189911 .14402771 .4119873 .1000061 .4019928 .084991458 .394989 .07699585 .32899476 .07699585 .30699159 .07699585H.1269989Z"/>
<path id="font_2_2" d="M.36698915 .31781007V.28579713C.36698915 .05178833 .2630005 .0055389406 .20498657 .0055389406 .18798828 .0055389406 .13398743 .007537842 .10699463 .041778566 .15098572 .041778566 .15899658 .07078552 .15899658 .08778381 .15899658 .118774417 .1349945 .13378906 .11299133 .13378906 .09700012 .13378906 .066986087 .12478638 .066986087 .08578491 .066986087 .018615723 .12098694-.022460938 .20599365-.022460938 .33499146-.022460938 .45700074 .11378479 .45700074 .32881166 .45700074 .5979767 .34199525 .6660156 .25299073 .6660156 .19799805 .6660156 .14898682 .64801028 .10598755 .60298159 .06498718 .5579529 .041992189 .5159302 .041992189 .44088746 .041992189 .31581117 .12998963 .21777344 .24198914 .21777344 .30299378 .21777344 .34399415 .25978089 .36698915 .31781007M.24299622 .24076844C.22698975 .24076844 .18099976 .24076844 .1499939 .3038025 .13198853 .3408203 .13198853 .39085389 .13198853 .43988038 .13198853 .49391175 .13198853 .54093936 .15299988 .5779724 .17999268 .6279907 .21798706 .64100649 .25299073 .64100649 .29899598 .64100649 .33198548 .60697939 .34899903 .5619507 .36099244 .52993777 .36499024 .4669037 .36499024 .42086793 .36499024 .3378296 .33099366 .24076844 .24299622 .24076844Z"/>
<path id="font_3_1" d="M.57499697 .5688782C.57499697 .64401248 .519989 .70606997 .43899537 .70606997 .3809967 .70606997 .35299684 .6900635 .31799317 .664032 .2630005 .62397769 .20799256 .5268097 .18899536 .4506836L.02999878-.18434143C.0289917-.18833924 .033996583-.19433594 .041992189-.19433594 .049987794-.19433594 .052993776-.19233704 .053985597-.18934632L.12399292 .08711243C.14299011 .027236939 .18699646-.009719849 .2599945-.009719849 .33299256-.009719849 .4079895 .025238038 .45298768 .06915283 .5009918 .11505127 .5329895 .17892456 .5329895 .2527771 .5329895 .32461549 .49598695 .37652589 .45999146 .40159608 .5179901 .43466188 .57499697 .49676515 .57499697 .5688782M.394989 .40260316C.38198854 .3975525 .37098695 .39553834 .34700013 .39553834 .33299256 .39553834 .31298829 .39453126 .30299378 .39956666 .30499269 .4096527 .34098817 .4076538 .35198976 .4076538 .37298585 .4076538 .38198854 .4076538 .394989 .40260316M.5189972 .59191897C.5189972 .5218048 .48098756 .44969178 .42900086 .4186554 .4019928 .4286499 .38198854 .43066407 .35198976 .43066407 .33099366 .43066407 .2749939 .43165589 .2749939 .39855958 .27398683 .37052918 .32598878 .3735199 .34399415 .3735199 .3809967 .3735199 .3959961 .37452699 .42599488 .3865204 .46398927 .35057069 .46899415 .31962586 .46998597 .27372743 .47200013 .21585083 .44799806 .14100647 .41999818 .1020813 .3809967 .048202516 .31399537 .012268066 .25698854 .012268066 .18099976 .012268066 .14299011 .07014465 .14299011 .14100647 .14299011 .15098572 .14299011 .16595459 .147995 .184906L.21199036 .43766786C.23399353 .5238037 .30599977 .68307498 .42599488 .68307498 .48399354 .68307498 .5189972 .6520233 .5189972 .59191897Z"/>
</defs>
<path transform="matrix(1.00005,0,0,-1.00003,1.0961533,115.18899)" stroke-width=".3985" stroke-linecap="butt" stroke-miterlimit="10" stroke-linejoin="miter" fill="none" stroke="#000000" d="M0 0H119.05693"/>
<use data-text="2" xlink:href="#font_1_107" transform="matrix(9.963098,0,0,-9.962899,55.645879,125.34429)"/>
<use data-text="1" xlink:href="#font_1_82" transform="matrix(9.963098,0,0,-9.962899,60.62743,125.34429)"/>
<path transform="matrix(1.00005,0,0,-1.00003,1.0961533,115.18899)" stroke-width=".3985" stroke-linecap="butt" stroke-miterlimit="10" stroke-linejoin="miter" fill="none" stroke="#000000" d="M0 0 119.05693 113.38724"/>
<use data-text="2" xlink:href="#font_2_1" transform="matrix(9.963098,0,0,-9.962899,47.144456,54.97418)"/>
<use data-text="9" xlink:href="#font_2_2" transform="matrix(9.963098,0,0,-9.962899,52.126008,54.97418)"/>
<path transform="matrix(1.00005,0,0,-1.00003,1.0961533,115.18899)" stroke-width=".3985" stroke-linecap="butt" stroke-miterlimit="10" stroke-linejoin="miter" fill="none" stroke="#000000" d="M119.05693 0V113.38724"/>
<path transform="matrix(1.00005,0,0,-1.00003,1.0961533,115.18899)" stroke-width=".3985" stroke-linecap="butt" stroke-miterlimit="10" stroke-linejoin="miter" fill="none" stroke="#000000" d="M102.04866 0V17.00824H119.05693"/>
<path transform="matrix(1.00005,0,0,-1.00003,1.0961533,115.18899)" stroke-width=".3985" stroke-linecap="butt" stroke-miterlimit="10" stroke-linejoin="miter" fill="none" stroke="#000000" d="M28.34679 0C28.34679 7.2783 25.54523 14.2785 20.52606 19.54854"/>
<use data-text="&#x03b2;" xlink:href="#font_3_1" transform="matrix(9.963098,0,0,-9.962899,31.035649,107.15275)"/>
</svg>
