<svg xmlns="http://www.w3.org/2000/svg" xmlns:xlink="http://www.w3.org/1999/xlink" xmlns:inkscape="http://www.inkscape.org/namespaces/inkscape" version="1.1" width="210" height="165" viewBox="0 0 210 165">
<defs>
<path id="font_1_1" d="M.2649994 .37265016H.37799073C.34498597 .22489929 .33599855 .18196106 .33599855 .11508179 .33599855 .100097659 .33599855 .073150638 .34399415 .03919983 .35398866-.0047454836 .36499024-.0107421879 .37998963-.0107421879 .3999939-.0107421879 .42099 .007247925 .42099 .02722168 .42099 .033218385 .42099 .035202028 .4149933 .049179079 .38598634 .12106323 .38598634 .18595886 .38598634 .21391297 .38598634 .26683045 .3929901 .32073976 .4039917 .37265016H.5179901C.5309906 .37265016 .5669861 .37265016 .5669861 .406662 .5669861 .43066407 .54599 .43066407 .5269928 .43066407H.19198609C.16999817 .43066407 .13198853 .43066407 .08799744 .38365174 .052993776 .34469605 .026992798 .29878236 .026992798 .29379273 .026992798 .29278565 .026992798 .28379823 .038986207 .28379823 .04699707 .28379823 .04899597 .28779603 .054992677 .29577638 .10398865 .37265016 .1619873 .37265016 .18199158 .37265016H.23899842C.20698548 .25186158 .15299988 .13105774 .11099243 .04020691 .102996829 .025222779 .102996829 .023223877 .102996829 .016235352 .102996829-.002746582 .11898804-.0107421879 .13198853-.0107421879 .1619873-.0107421879 .16999817 .017242432 .18199158 .05418396 .19599915 .100097659 .19599915 .10209656 .20899964 .15202332L.2649994 .37265016Z"/>
<path id="font_2_2" d="M.1269989 .07699585 .23298645 .18003845C.3889923 .31811524 .44898988 .3721466 .44898988 .47216798 .44898988 .5860901 .35899354 .6660156 .23699951 .6660156 .12399292 .6660156 .049987794 .57411196 .049987794 .48516847 .049987794 .4291687 .099990848 .4291687 .102996829 .4291687 .11999512 .4291687 .15499878 .44117738 .15499878 .48217774 .15499878 .5081787 .13699341 .5341797 .101989749 .5341797 .09399414 .5341797 .09199524 .5341797 .08898926 .5331726 .11199951 .59806826 .1659851 .63500979 .22399903 .63500979 .31498719 .63500979 .35798646 .5541382 .35798646 .47216798 .35798646 .39215089 .30799867 .31311036 .25299073 .25108338L.06098938 .036987306C.049987794 .025985718 .049987794 .023986817 .049987794 0H.42099L.44898988 .17404175H.42399598C.4189911 .14402771 .4119873 .1000061 .4019928 .084991458 .394989 .07699585 .32899476 .07699585 .30699159 .07699585H.1269989Z"/>
<path id="font_2_3" d="M.2899933 .35191346C.37199403 .37893678 .42999269 .4490509 .42999269 .52809146 .42999269 .6100464 .34199525 .6660156 .24598694 .6660156 .14498902 .6660156 .068984989 .60606387 .068984989 .53009036 .068984989 .49710084 .09098816 .47808839 .11999512 .47808839 .15098572 .47808839 .17098999 .50009158 .17098999 .5290985 .17098999 .57910159 .12399292 .57910159 .10899353 .57910159 .13999939 .62802127 .20599365 .64100649 .24198914 .64100649 .2829895 .64100649 .33799745 .6190338 .33799745 .5290985 .33799745 .51708987 .33599855 .45906068 .30999757 .4149933 .27999879 .36691285 .24598694 .36390687 .22099304 .36291505 .21299744 .36190797 .18899536 .35990907 .18199158 .35990907 .17399597 .35890199 .16699219 .35791017 .16699219 .3479004 .16699219 .33691407 .17399597 .33691407 .19099427 .33691407H.23498535C.31698609 .33691407 .35398866 .2686615 .35398866 .17037964 .35398866 .034469606 .2849884 .0055389406 .24099732 .0055389406 .19799805 .0055389406 .12298584 .022491456 .08799744 .08137512 .12298584 .07637024 .1539917 .09837341 .1539917 .1363678 .1539917 .17237854 .1269989 .19238281 .09799194 .19238281 .07398987 .19238281 .041992189 .17837525 .041992189 .1343689 .041992189 .043441774 .1349945-.022460938 .24398804-.022460938 .3659973-.022460938 .45700074 .06838989 .45700074 .17037964 .45700074 .252594 .3939972 .33088685 .2899933 .35191346Z"/>
<path id="font_2_4" d="M.2939911 .16503906V.07800293C.2939911 .041992189 .2919922 .0309906 .21798706 .0309906H.19699097V0C.23799134 .0029907227 .2899933 .0029907227 .33198548 .0029907227 .37399293 .0029907227 .4269867 .0029907227 .46798707 0V.0309906H.44699098C.37298585 .0309906 .37098695 .041992189 .37098695 .07800293V.16503906H.47099305V.19602967H.37098695V.65075686C.37098695 .67074587 .37098695 .6767578 .35499574 .6767578 .34599305 .6767578 .34298707 .6767578 .33499146 .66474917L.027999878 .19602967V.16503906H.2939911M.2999878 .19602967H.055999757L.2999878 .5688019V.19602967Z"/>
<path id="font_2_5" d="M.44898988 .20022583C.44898988 .3193512 .36698915 .41944886 .25898744 .41944886 .21099854 .41944886 .16799927 .40345765 .13198853 .36842347V.5637665C.1519928 .5577698 .18499756 .55078127 .21699524 .55078127 .33999635 .55078127 .4099884 .6417694 .4099884 .6547699 .4099884 .6607666 .40699769 .6657715 .3999939 .6657715 .39898683 .6657715 .39698792 .6657715 .3919983 .66278079 .37199403 .6537781 .32299806 .6337738 .2559967 .6337738 .21598816 .6337738 .16999817 .6407776 .12298584 .6617737 .114990238 .66477969 .11299133 .66477969 .11099243 .66477969 .100997928 .66477969 .100997928 .6567688 .100997928 .6407776V.34439088C.100997928 .32637025 .100997928 .31835938 .114990238 .31835938 .12199402 .31835938 .12399292 .32136537 .12799073 .32736207 .13899231 .3433838 .17599488 .39746095 .25698854 .39746095 .30899049 .39746095 .33399964 .35139466 .34199525 .33337403 .35798646 .29632569 .3600006 .25727845 .3600006 .20722962 .3600006 .17222595 .3600006 .11222839 .33599855 .07035828 .31199647 .031463624 .2749939 .0055389406 .22898865 .0055389406 .1559906 .0055389406 .09899902 .058380128 .08198547 .11723328 .084991458 .1162262 .08799744 .115234378 .09899902 .115234378 .13198853 .115234378 .14898682 .14022827 .14898682 .16423035 .14898682 .18823242 .13198853 .21322632 .09899902 .21322632 .084991458 .21322632 .049987794 .20622254 .049987794 .16023255 .049987794 .07434082 .11898804-.022460938 .23098755-.022460938 .34700013-.022460938 .44898988 .073349 .44898988 .20022583Z"/>
<path id="font_2_6" d="M.13198853 .327713V.35173036C.13198853 .6047821 .2559967 .64100649 .30699159 .64100649 .33099366 .64100649 .37298585 .634964 .394989 .6007538 .37998963 .6007538 .33999635 .6007538 .33999635 .5557556 .33999635 .524765 .3639984 .5097656 .38598634 .5097656 .4019928 .5097656 .43199159 .51875308 .43199159 .5577545 .43199159 .6178589 .3880005 .6660156 .30499269 .6660156 .1769867 .6660156 .041992189 .5367584 .041992189 .31570436 .041992189 .048553468 .1579895-.022460938 .25099183-.022460938 .3619995-.022460938 .45700074 .07156372 .45700074 .2036438 .45700074 .33070375 .36799623 .4267578 .25698854 .4267578 .18899536 .4267578 .1519928 .37573243 .13198853 .327713M.25099183 .0055389406C.18798828 .0055389406 .1579895 .06556702 .1519928 .080566409 .13398743 .127594 .13398743 .2076416 .13398743 .22564698 .13398743 .30369569 .1659851 .40374757 .2559967 .40374757 .27198792 .40374757 .31799317 .40374757 .34899903 .34172059 .36698915 .30470277 .36698915 .2536621 .36698915 .20463562 .36698915 .15661621 .36698915 .10658264 .34999085 .0705719 .31999208 .010528564 .27398683 .0055389406 .25099183 .0055389406Z"/>
<path id="font_3_1" d="M.6589966 .23046875C.6759949 .23046875 .69400027 .23046875 .69400027 .25045777 .69400027 .27046205 .6759949 .27046205 .6589966 .27046205H.117996219C.100997928 .27046205 .08299255 .27046205 .08299255 .25045777 .08299255 .23046875 .100997928 .23046875 .117996219 .23046875H.6589966Z"/>
<path id="font_2_1" d="M.2939911 .64004519C.2939911 .66400149 .2939911 .6660156 .2709961 .6660156 .20899964 .60227969 .12098694 .60227969 .08898926 .60227969V.57128909C.10899353 .57128909 .16799927 .57128909 .21998596 .5972748V.07902527C.21998596 .042999269 .21699524 .0309906 .1269989 .0309906H.09498596V0C.12998963 .0029907227 .21699524 .0029907227 .25698854 .0029907227 .29699708 .0029907227 .38398744 .0029907227 .4189911 0V.0309906H.3869934C.29699708 .0309906 .2939911 .041992189 .2939911 .07902527V.64004519Z"/>
<path id="font_1_3" d="M.48599244 .38136292C.48999024 .39537049 .48999024 .39736939 .48999024 .40437318 .48999024 .42237855 .47599793 .43138124 .46099855 .43138124 .45098878 .43138124 .43499757 .42536927 .42599488 .41036988 .42399598 .405365 .41600038 .37435914 .4119873 .35635377 .40499879 .33035279 .397995 .30334474 .3919983 .27633668L.34700013 .09628296C.34298707 .08126831 .2999878 .011245728 .23399353 .011245728 .18299866 .011245728 .17199707 .055267335 .17199707 .0922699 .17199707 .1382904 .18899536 .20030213 .22299195 .28833009 .23899842 .3293457 .24299622 .3403473 .24299622 .36035157 .24299622 .405365 .21099854 .4423828 .16099549 .4423828 .06599426 .4423828 .0289917 .29733277 .0289917 .28833009 .0289917 .27833558 .038986207 .27833558 .040985109 .27833558 .050994874 .27833558 .051986696 .28033448 .056991579 .29634095 .083999637 .3903656 .12399292 .42037965 .1579895 .42037965 .1659851 .42037965 .18299866 .42037965 .18299866 .3883667 .18299866 .36335755 .17298889 .3373413 .1659851 .31834413 .12599182 .21231079 .10798645 .1552887 .10798645 .10827637 .10798645 .019256592 .17098999-.0107421879 .22999573-.0107421879 .2689972-.0107421879 .30299378 .0062561037 .33099366 .03425598 .31799317-.017745972 .30599977-.06674194 .2659912-.11973572 .23999024-.15385437 .20199585-.18309021 .1559906-.18309021 .14199829-.18309021 .09700012-.18005371 .07998657-.14074707 .09599304-.14074707 .10899353-.14074707 .12298584-.1287384 .1329956-.11973572 .14299011-.10673523 .14299011-.08773804 .14299011-.056747438 .115997318-.052734376 .10598755-.052734376 .08299255-.052734376 .049987794-.068740848 .049987794-.11773682 .049987794-.16796875 .09399414-.20507813 .1559906-.20507813 .25898744-.20507813 .3619995-.11373901 .3899994-.00074768069L.48599244 .38136292Z"/>
<path id="font_2_7" d="M.68699648 .32714845C.70199587 .32714845 .72099307 .32714845 .72099307 .34713746 .72099307 .36714173 .70199587 .36714173 .6879883 .36714173H.08898926C.07499695 .36714173 .055999757 .36714173 .055999757 .34713746 .055999757 .32714845 .07499695 .32714845 .08999634 .32714845H.68699648M.6879883 .13284302C.70199587 .13284302 .72099307 .13284302 .72099307 .15284729 .72099307 .17285156 .70199587 .17285156 .68699648 .17285156H.08999634C.07499695 .17285156 .055999757 .17285156 .055999757 .15284729 .055999757 .13284302 .07499695 .13284302 .08898926 .13284302H.6879883Z"/>
<path id="font_2_10" d="M.20799256 .19424439C.22999573 .19024658 .31199647 .17424011 .31199647 .102249149 .31199647 .051254274 .2769928 .011245728 .19898987 .011245728 .114990238 .011245728 .07899475 .06825256 .05999756 .15324402 .056991579 .1662445 .055999757 .17024231 .04598999 .17024231 .032989503 .17024231 .032989503 .16323853 .032989503 .14524842V.013244629C.032989503-.003753662 .032989503-.0107421879 .04399109-.0107421879 .04899597-.0107421879 .049987794-.009750366 .068984989 .009246826 .070999149 .011245728 .070999149 .013244629 .08898926 .03224182 .1329956-.009750366 .17799378-.0107421879 .19898987-.0107421879 .31399537-.0107421879 .3600006 .056243898 .3600006 .12825012 .3600006 .1812439 .32998658 .21124268 .31799317 .22323609 .2849884 .25523377 .24598694 .26324464 .20399475 .27124024 .147995 .28224183 .08099365 .2952423 .08099365 .35324098 .08099365 .38822938 .10699463 .42922975 .19299317 .42922975 .30299378 .42922975 .30799867 .3392334 .30999757 .3082428 .31098939 .2992401 .31999208 .2992401 .32199098 .2992401 .33499146 .2992401 .33499146 .304245 .33499146 .3232422V.4242401C.33499146 .4412384 .33499146 .4482422 .32398988 .4482422 .31900025 .4482422 .31698609 .4482422 .3039856 .43623353 .30099488 .43223573 .29100038 .42323304 .2869873 .42022706 .24899292 .4482422 .20799256 .4482422 .19299317 .4482422 .070999149 .4482422 .032989503 .38124085 .032989503 .3252411 .032989503 .29023744 .04899597 .26223756 .07598877 .24023438 .10798645 .21424866 .13598633 .2082367 .20799256 .19424439Z"/>
<path id="font_2_8" d="M.1769867 .4423828 .036987306 .43138124V.40037538C.101989749 .40037538 .11099243 .3943634 .11099243 .34532167V.076034549C.11099243 .0309906 .099990848 .0309906 .032989503 .0309906V0C.06498718 .0009918213 .11898804 .0029907227 .14299011 .0029907227 .17799378 .0029907227 .21299744 .0009918213 .24699402 0V.0309906C.18099976 .0309906 .1769867 .035995485 .1769867 .075042728V.4423828M.18099976 .6159363C.18099976 .64793398 .1559906 .6689453 .12799073 .6689453 .09700012 .6689453 .07499695 .64193728 .07499695 .6159363 .07499695 .5889435 .09700012 .5629425 .12799073 .5629425 .1559906 .5629425 .18099976 .5839386 .18099976 .6159363Z"/>
<path id="font_2_9" d="M.10998535 .34429933V.076034549C.10998535 .0309906 .09899902 .0309906 .03199768 .0309906V0C.066986087 .0009918213 .117996219 .0029907227 .14498902 .0029907227 .17098999 .0029907227 .22299195 .0009918213 .25698854 0V.0309906C.18998719 .0309906 .1789856 .0309906 .1789856 .076034549V.2602234C.1789856 .36431886 .25 .42037965 .31399537 .42037965 .3769989 .42037965 .3880005 .36631776 .3880005 .30926515V.076034549C.3880005 .0309906 .3769989 .0309906 .30999757 .0309906V0C.34498597 .0009918213 .3959961 .0029907227 .4229889 .0029907227 .44898988 .0029907227 .5009918 .0009918213 .5349884 0V.0309906C.48298646 .0309906 .45799256 .0309906 .45700074 .061019899V.25221253C.45700074 .3383026 .45700074 .36932374 .42599488 .405365 .4119873 .42237855 .3789978 .4423828 .32099916 .4423828 .24798584 .4423828 .20098877 .39935304 .17298889 .33729554V.4423828L.03199768 .43138124V.40037538C.101989749 .4003601 .10998535 .39335633 .10998535 .34429933Z"/>
<path id="font_1_2" d="M.33399964 .30233766C.33999635 .32835389 .36299134 .42037965 .43299867 .42037965 .43798829 .42037965 .46199037 .42037965 .48298646 .40734864 .45498658 .402359 .43499757 .37734986 .43499757 .35334779 .43499757 .33735658 .44599916 .31835938 .47299195 .31835938 .49499513 .31835938 .5269928 .3363495 .5269928 .37635804 .5269928 .42837525 .46798707 .4423828 .43399049 .4423828 .37599183 .4423828 .34098817 .38935853 .32899476 .36634828 .3039856 .43237306 .25 .4423828 .22099304 .4423828 .116989139 .4423828 .05999756 .3133545 .05999756 .28834535 .05999756 .27833558 .069992069 .27833558 .07199097 .27833558 .07998657 .27833558 .08299255 .28033448 .084991458 .28933717 .11898804 .39535523 .18499756 .42037965 .21899414 .42037965 .23799134 .42037965 .272995 .4113617 .272995 .35334779 .272995 .32235719 .2559967 .25532533 .21899414 .11528015 .20298767 .053268434 .16799927 .011245728 .12399292 .011245728 .117996219 .011245728 .09498596 .011245728 .07398987 .024276734 .09899902 .029266358 .12098694 .05027771 .12098694 .07827759 .12098694 .105270389 .09899902 .11328125 .083999637 .11328125 .053985597 .11328125 .0289917 .08728027 .0289917 .055267335 .0289917 .009246826 .07899475-.0107421879 .12298584-.0107421879 .18899536-.0107421879 .22499085 .059280397 .22799683 .0652771 .23999024 .028274537 .27598573-.0107421879 .33599855-.0107421879 .43899537-.0107421879 .49598695 .118270877 .49598695 .14328003 .49598695 .1532898 .4869995 .1532898 .48399354 .1532898 .47499085 .1532898 .47299195 .14929199 .47099305 .14228821 .43798829 .03527832 .36999513 .011245728 .33799745 .011245728 .29899598 .011245728 .2829895 .043273927 .2829895 .07727051 .2829895 .09927368 .2889862 .121276859 .2999878 .16529846L.33399964 .30233766Z"/>
<path id="font_4_1" d="M.33499146 .63612368C.33499146 .6630554 .33299256 .6640625 .30499269 .6640625 .24099732 .6014404 .1499939 .6004486 .10899353 .6004486V.5644531C.1329956 .5644531 .19898987 .5644531 .2539978 .592453V.08203125C.2539978 .04899597 .2539978 .035995485 .1539917 .035995485H.115997318V0C.13398743 .0009918213 .25698854 .0039978029 .2939911 .0039978029 .32499696 .0039978029 .45098878 .0009918213 .47299195 0V.035995485H.43499757C.33499146 .035995485 .33499146 .04899597 .33499146 .08203125V.63612368Z"/>
<path id="font_4_2" d="M.5049896 .18203736H.47099305C.46798707 .16001892 .45799256 .100997928 .44499208 .09098816 .43699647 .084991458 .3600006 .084991458 .34599305 .084991458H.1619873C.2669983 .17803955 .3019867 .20603943 .3619995 .25306703 .43598939 .312088 .5049896 .374115 .5049896 .46914674 .5049896 .5900879 .39898683 .6640625 .2709961 .6640625 .14698792 .6640625 .06298828 .57710269 .06298828 .4851532 .06298828 .43414308 .10598755 .42915345 .115997318 .42915345 .13999939 .42915345 .16899109 .44615174 .16899109 .48214723 .16899109 .5001526 .1619873 .53515627 .10998535 .53515627 .14099121 .6060791 .20899964 .62805178 .2559967 .62805178 .35598756 .62805178 .4079895 .5501404 .4079895 .46914674 .4079895 .38212586 .34599305 .3130951 .31399537 .27708436L.07299805 .038986207C.06298828 .02999878 .06298828 .027999878 .06298828 0H.47499085L.5049896 .18203736Z"/>
<path id="font_4_3" d="M.272995 .33428956C.35099793 .33428956 .40699769 .2803192 .40699769 .1733551 .40699769 .04940796 .33499146 .012466431 .2769928 .012466431 .23699951 .012466431 .14898682 .0234375 .10699463 .082351688 .1539917 .084350589 .16499329 .11735535 .16499329 .13835144 .16499329 .17034912 .14099121 .19335938 .10998535 .19335938 .08198547 .19335938 .053985597 .17634583 .053985597 .13534546 .053985597 .041412355 .1579895-.01953125 .2789917-.01953125 .41799928-.01953125 .5139923 .07336426 .5139923 .1733551 .5139923 .2513275 .44999696 .32929994 .33999635 .35229493 .44499208 .39024354 .48298646 .4650879 .48298646 .5260773 .48298646 .60505679 .3919983 .6640625 .2809906 .6640625 .16999817 .6640625 .084991458 .61006167 .084991458 .5300751 .084991458 .49606324 .10699463 .47706605 .13699341 .47706605 .16799927 .47706605 .18798828 .5000763 .18798828 .5280762 .18798828 .5570679 .16799927 .57806399 .13699341 .5800781 .17199707 .62405398 .24099732 .63505557 .27799989 .63505557 .32299806 .63505557 .38598634 .6130676 .38598634 .5260773 .38598634 .48406983 .37199403 .43814088 .34599305 .4072113 .31298829 .36927796 .2849884 .3672943 .23498535 .36428834 .20999146 .3623047 .20799256 .3623047 .20298767 .3612976 .20098877 .3612976 .19299317 .3592987 .19299317 .34829713 .19299317 .33428956 .20199585 .33428956 .21899414 .33428956H.272995Z"/>
</defs>
<path transform="matrix(1.00002,0,0,-1.00003,13.6989979,163.19742)" stroke-width=".19925" stroke-linecap="butt" stroke-miterlimit="10" stroke-linejoin="miter" fill="none" stroke="#7f807f" d="M35.64093 78.57156V82.82324M66.38828 78.57156V82.82324M97.13562 78.57156V82.82324M127.88297 78.57156V82.82324M158.63033 78.57156V82.82324M189.37767 78.57156V82.82324"/>
<path transform="matrix(1.00002,0,0,-1.00003,13.6989979,163.19742)" stroke-width=".19925" stroke-linecap="butt" stroke-miterlimit="10" stroke-linejoin="miter" fill="none" stroke="#7f807f" d="M3.47623 53.79828H6.31094M3.47623 107.59656H6.31094"/>
<path transform="matrix(1.00002,0,0,-1.00003,13.6989979,163.19742)" stroke-width=".19925" stroke-linecap="butt" stroke-miterlimit="10" stroke-linejoin="miter" fill="none" stroke="#7f807f" d="M2.76775 26.89914H7.01941M2.76775 134.4957H7.01941"/>
<path transform="matrix(1.00002,0,0,-1.00003,13.6989979,163.19742)" stroke-width=".3985" stroke-linecap="butt" stroke-miterlimit="10" stroke-linejoin="miter" fill="none" stroke="#000000" d="M0 80.69742H192.27873"/>
<path transform="matrix(1.00002,0,0,-1.00003,205.98157,82.497577)" d="M1.99252 0-1.19551 1.59401 0 0-1.19551-1.59401"/>
<path transform="matrix(1.00002,0,0,-1.00003,13.6989979,163.19742)" stroke-width=".3985" stroke-linecap="butt" stroke-miterlimit="10" stroke-linejoin="miter" fill="none" stroke="#000000" d="M4.89359 0V159.40232"/>
<path transform="matrix(0,-1.00003,-1.00002,-0,18.592686,3.7903138)" d="M1.99252 0-1.19551 1.59401 0 0-1.19551-1.59401"/>
<use data-text="&#x03c0;" xlink:href="#font_1_1" transform="matrix(9.962799,0,0,-9.962899,46.322649,92.43329)"/>
<use data-text="2" xlink:href="#font_2_2" transform="matrix(9.962799,0,0,-9.962899,74.57922,94.56436)"/>
<use data-text="&#x03c0;" xlink:href="#font_1_1" transform="matrix(9.962799,0,0,-9.962899,79.56032,94.56436)"/>
<use data-text="3" xlink:href="#font_2_3" transform="matrix(9.962799,0,0,-9.962899,105.327838,94.56436)"/>
<use data-text="&#x03c0;" xlink:href="#font_1_1" transform="matrix(9.962799,0,0,-9.962899,110.30894,94.56436)"/>
<use data-text="4" xlink:href="#font_2_4" transform="matrix(9.962799,0,0,-9.962899,136.07544,94.56436)"/>
<use data-text="&#x03c0;" xlink:href="#font_1_1" transform="matrix(9.962799,0,0,-9.962899,141.05655,94.56436)"/>
<use data-text="5" xlink:href="#font_2_5" transform="matrix(9.962799,0,0,-9.962899,166.82306,94.56436)"/>
<use data-text="&#x03c0;" xlink:href="#font_1_1" transform="matrix(9.962799,0,0,-9.962899,171.80417,94.56436)"/>
<use data-text="6" xlink:href="#font_2_6" transform="matrix(9.962799,0,0,-9.962899,197.57169,94.56436)"/>
<use data-text="&#x03c0;" xlink:href="#font_1_1" transform="matrix(9.962799,0,0,-9.962899,202.55278,94.56436)"/>
<use data-text="&#x2212;" xlink:href="#font_3_1" transform="matrix(9.962799,0,0,-9.962899,.21672821,139.0927)"/>
<use data-text="1" xlink:href="#font_2_1" transform="matrix(9.962799,0,0,-9.962899,7.9658815,139.0927)"/>
<use data-text="1" xlink:href="#font_2_1" transform="matrix(9.962799,0,0,-9.962899,7.9658815,31.908478)"/>
<path transform="matrix(1.00002,0,0,-1.00003,13.6989979,163.19742)" stroke-width=".99628" stroke-linecap="butt" stroke-miterlimit="10" stroke-linejoin="miter" fill="none" stroke="#0000ff" stroke-opacity=".5" d="M4.89359 80.69742 5.20259 82.39528 5.51161 84.091 5.82063 85.78458 6.12965 87.4733 6.43867 89.15451 6.74768 90.82762 7.0567 92.48999 7.36574 94.1416 7.67474 95.77869 7.98376 97.40285 8.29277 99.00818 8.6018 100.59525 8.91083 102.16238 9.21983 103.70963 9.52885 105.23425 9.83788 106.73308 10.1469 108.20662 10.45592 109.65166 10.76494 111.06816 11.07394 112.45561 11.38297 113.81026 11.692 115.1326 12.001 116.41946 12.31003 117.67134 12.61905 118.88612 12.92805 120.0643 13.23709 121.20105 13.54611 122.298 13.85512 123.35513 14.16414 124.36816 14.47316 125.33868 14.78218 126.26456 15.09119 127.14362 15.4002 127.97694 15.70923 128.76403 16.01825 129.50322 16.32727 130.19397 16.63629 130.83364 16.9453 131.4238 17.25432 131.96395 17.56335 132.4535 17.87236 132.89304 18.18138 133.27661 18.4904 133.60802 18.79941 133.88884 19.10844 134.1175 19.41747 134.29126 19.72647 134.41124 20.03549 134.47739 20.34453 134.4914 20.65353 134.45159 20.96255 134.3585 21.27158 134.21056 21.58058 134.0088 21.8896 133.75542 22.19864 133.44931 22.50764 133.09102 22.81665 132.68001 23.12569 132.21465 23.43471 131.70034 23.74371 131.13492 24.05273 130.52 24.36176 129.85453 24.67076 129.13954 24.9798 128.37668 25.28882 127.56647 25.59782 126.70946 25.90685 125.80727 26.21587 124.85934 26.52489 123.86676 26.83391 122.8317 27.14293 121.75464 27.45193 120.63834 27.76097 119.48058 28.06999 118.28305 28.379 117.04999 28.688 115.77982 28.99704 114.47466 29.30606 113.13777 29.61507 111.76591 29.9241 110.36392 30.23311 108.93129 30.54211 107.47281 30.85117 105.9869 31.16017 104.4741 31.46918 102.93976 31.77821 101.38177 32.08722 99.80386 32.39624 98.2082 32.70528 96.59265 33.01428 94.96149 33.32329 93.31686 33.63232 91.66043 33.94135 89.9916 34.25035 88.31525 34.55937 86.62921 34.8684 84.93886 35.17741 83.24368 35.48642 81.54634 35.79546 79.84848 36.10448 78.15167 36.41347 76.45596 36.72252 74.76561 37.03151 73.08011 37.34053 71.40321 37.64958 69.73494 37.95857 68.07848 38.2676 66.43332 38.57661 64.80217 38.88564 63.18768 39.19467 61.59041 39.50368 60.01305 39.8127 58.45613 40.12169 56.92018 40.43074 55.40898 40.73978 53.92146 41.04875 52.46246 41.35779 51.03195 41.6668 49.62997 41.97581 48.25812 42.28485 46.92015 42.59386 45.615 42.90288 44.34483 43.21188 43.11124 43.52092 41.91423 43.82996 40.75755 44.13893 39.63963 44.44798 38.56313 44.75697 37.52751 45.066 36.53548 45.37506 35.58647 45.68404 34.68536 45.99307 33.82887 46.30208 33.01868 46.6111 32.25528 46.92014 31.5403 47.22914 30.87482 47.53818 30.25989 47.84715 29.69449 48.15619 29.18018 48.46524 28.7159 48.77422 28.3038 49.08327 27.9455 49.39226 27.63939 49.70128 27.386 50.01033 27.18427 50.31932 27.03632 50.62836 26.94324 50.93735 26.90343 51.24638 26.91742 51.55542 26.98358 51.86441 27.10356 52.17346 27.27733 52.48244 27.50598 52.79147 27.7857 53.10052 28.1182 53.4095 28.50177 53.71854 28.9413 54.02754 29.43088 54.33658 29.96994 54.6456 30.56119 54.95459 31.20137 55.26364 31.89107 55.57262 32.63133 55.88167 33.41786 56.1907 34.25174 56.49968 35.13026 56.80873 36.05559 57.11772 37.02664 57.42676 38.0402 57.7358 39.0968 58.04478 40.19269 58.35382 41.3305 58.66281 42.50763 58.97186 43.724 59.28088 44.97588 59.58989 46.2622 59.89893 47.58403 60.2079 48.93921 60.51695 50.32666 60.82597 51.74316 61.13496 53.18819 61.44402 54.6612 61.75299 56.16164 62.06204 57.6852 62.37106 59.2319 62.68007 60.80066 62.9891 62.38716 63.29808 63.99304 63.60713 65.61667 63.91617 67.2532 64.22516 68.90483 64.5342 70.5672 64.84319 72.24031 65.15222 73.92151 65.46126 75.61024 65.77026 77.30273 66.07928 79.0006 66.38829 80.69742"/>
<use data-text="y" xlink:href="#font_1_3" transform="matrix(9.962799,0,0,-9.962899,14.910019,22.949204)" fill="#0000ff" fill-opacity=".5"/>
<use data-text="=" xlink:href="#font_2_7" transform="matrix(9.962799,0,0,-9.962899,22.919182,22.949204)" fill="#0000ff" fill-opacity=".5"/>
<use data-text="s" xlink:href="#font_2_10" transform="matrix(9.962799,0,0,-9.962899,33.419969,22.949204)" fill="#0000ff" fill-opacity=".5"/>
<use data-text="i" xlink:href="#font_2_8" transform="matrix(9.962799,0,0,-9.962899,37.345308,22.949204)" fill="#0000ff" fill-opacity=".5"/>
<use data-text="n" xlink:href="#font_2_9" transform="matrix(9.962799,0,0,-9.962899,40.10501,22.949204)" fill="#0000ff" fill-opacity=".5"/>
<use data-text="x" xlink:href="#font_1_2" transform="matrix(9.962799,0,0,-9.962899,47.32866,22.949204)" fill="#0000ff" fill-opacity=".5"/>
<path transform="matrix(1.00002,0,0,-1.00003,13.6989979,163.19742)" stroke-width=".99628" stroke-linecap="butt" stroke-miterlimit="10" stroke-linejoin="miter" fill="none" stroke="#ff0000" d="M4.89359 80.69742 5.04808 82.39528 5.20259 84.091 5.35709 85.78458 5.51161 87.4733 5.66614 89.15451 5.82063 90.82762 5.97514 92.48999 6.12965 94.1416 6.28415 95.77814 6.43867 97.40285 6.59319 99.00818 6.74768 100.59525 6.90219 102.16292 7.0567 103.70963 7.21121 105.23425 7.36574 106.73308 7.52025 108.20555 7.67474 109.65166 7.82925 111.06816 7.98376 112.45453 8.13826 113.81079 8.29277 115.13153 8.4473 116.41946 8.60179 117.67134 8.75632 118.88612 8.91083 120.0643 9.06532 121.20213 9.21983 122.29854 9.37436 123.3546 9.52885 124.36816 9.68336 125.33868 9.83788 126.26456 9.99237 127.14362 10.14688 127.97694 10.3014 128.76403 10.45592 129.50374 10.61043 130.19345 10.76494 130.83364 10.91943 131.4238 11.07394 131.96395 11.22847 132.4535 11.38297 132.8925 11.53748 133.27661 11.69199 133.60802 11.8465 133.88884 12.001 134.1175 12.15552 134.29126 12.31003 134.41124 12.46454 134.47739 12.61905 134.4914 12.77354 134.45159 12.92805 134.3585 13.08257 134.21056 13.23708 134.0088 13.3916 133.75597 13.54611 133.44985 13.7006 133.09102 13.85512 132.68001 14.00963 132.21465 14.16414 131.70034 14.31865 131.13437 14.47316 130.52 14.62766 129.85453 14.78217 129.13954 14.93666 128.37615 15.09119 127.56647 15.24571 126.70946 15.4002 125.80727 15.55472 124.85934 15.70923 123.86676 15.86372 122.83221 16.01823 121.75517 16.17276 120.63725 16.32726 119.48004 16.48177 118.28305 16.63629 117.04999 16.79079 115.77982 16.9453 114.47466 17.09982 113.13777 17.25432 111.76485 17.40883 110.36285 17.56334 108.93236 17.71783 107.47281 17.87234 105.9869 18.02689 104.4741 18.18138 102.93976 18.33589 101.38177 18.4904 99.80386 18.6449 98.20712 18.79941 96.59265 18.95392 94.96202 19.10843 93.31633 19.26294 91.66043 19.41745 89.99268 19.57196 88.31525 19.72647 86.62921 19.88098 84.93886 20.03549 83.24368 20.19 81.54634 20.34451 79.84848 20.49902 78.15167 20.65352 76.45648 20.80804 74.76561 20.96254 73.08011 21.11705 71.40321 21.27158 69.73494 21.42606 68.07848 21.58058 66.43332 21.73508 64.80217 21.88959 63.18768 22.04413 61.59094 22.19862 60.01305 22.35313 58.45613 22.50763 56.92018 22.66214 55.40791 22.81665 53.92146 22.97116 52.46246 23.12569 51.03088 23.28017 49.62997 23.4347 48.25705 23.58922 46.92015 23.7437 45.615 23.89824 44.34483 24.05273 43.11177 24.20724 41.91423 24.36176 40.75755 24.51625 39.63963 24.67076 38.56313 24.82526 37.52751 24.97978 36.53548 25.13431 35.58647 25.2888 34.68536 25.44331 33.82835 25.59781 33.01814 25.75233 32.25528 25.90685 31.53976 26.06134 30.87482 26.21587 30.25989 26.37035 29.69449 26.52487 29.18018 26.6794 28.71481 26.8339 28.30434 26.98842 27.9455 27.14291 27.63939 27.29742 27.386 27.45193 27.18427 27.60643 27.03632 27.76096 26.94324 27.91545 26.90343 28.06998 26.91742 28.22449 26.98358 28.37898 27.10356 28.53351 27.27733 28.68799 27.50598 28.84251 27.7857 28.99704 28.1182 29.15152 28.50232 29.30605 28.9413 29.46054 29.43088 29.61505 29.97101 29.76959 30.56119 29.92409 31.20137 30.0786 31.8916 30.2331 32.6308 30.38762 33.41786 30.54211 34.2512 30.69662 35.1292 30.85115 36.05559 31.00563 37.02557 31.16016 38.0402 31.31468 39.09627 31.46916 40.19269 31.62369 41.3305 31.7782 42.50763 31.93271 43.72346 32.08722 44.97536 32.24171 46.2622 32.39622 47.58403 32.55072 48.93921 32.70526 50.32666 32.85977 51.74316 33.01427 53.18927 33.1688 54.66173 33.32327 56.16055 33.47778 57.68466 33.63232 59.2319 33.7868 60.79958 33.94133 62.38716 34.09583 63.99304 34.25034 65.61612 34.40486 67.25429 34.55936 68.90428 34.71388 70.5672 34.86838 72.24031 35.02289 73.92151 35.1774 75.61024 35.3319 77.30273 35.4864 78.99954 35.64091 80.69742"/>
<use data-text="y" xlink:href="#font_1_3" transform="matrix(9.962799,0,0,-9.962899,20.106125,146.76293)" fill="#ff0000"/>
<use data-text="=" xlink:href="#font_2_7" transform="matrix(9.962799,0,0,-9.962899,28.115288,146.76293)" fill="#ff0000"/>
<use data-text="s" xlink:href="#font_2_10" transform="matrix(9.962799,0,0,-9.962899,38.616075,146.76293)" fill="#ff0000"/>
<use data-text="i" xlink:href="#font_2_8" transform="matrix(9.962799,0,0,-9.962899,42.541414,146.76293)" fill="#ff0000"/>
<use data-text="n" xlink:href="#font_2_9" transform="matrix(9.962799,0,0,-9.962899,45.301118,146.76293)" fill="#ff0000"/>
<use data-text="2" xlink:href="#font_2_2" transform="matrix(9.962799,0,0,-9.962899,52.494249,146.76293)" fill="#ff0000"/>
<use data-text="x" xlink:href="#font_1_2" transform="matrix(9.962799,0,0,-9.962899,57.505876,146.76293)" fill="#ff0000"/>
<path transform="matrix(1.00002,0,0,-1.00003,13.6989979,163.19742)" stroke-width=".99628" stroke-linecap="butt" stroke-miterlimit="10" stroke-linejoin="miter" fill="none" stroke="#bf0040" d="M4.89359 80.69742 5.51161 82.39528 6.12964 84.09207 6.74767 85.78458 7.3657 87.4733 7.98373 89.15451 8.60176 90.82762 9.21979 92.48999 9.83783 94.14052 10.45586 95.77814 11.07388 97.40178 11.69193 99.00818 12.30995 100.59416 12.92798 102.16292 13.54602 103.70963 14.16405 105.23318 14.78207 106.73308 15.40012 108.20555 16.01813 109.65056 16.63617 111.06653 17.25421 112.45453 17.87222 113.81079 18.49026 115.13153 19.1083 116.41785 19.72632 117.66974 20.34438 118.88719 20.9624 120.06375 21.58043 121.20105 22.19847 122.298 22.81648 123.35406 23.43452 124.36816 24.05257 125.33868 24.67058 126.26456 25.28862 127.14308 25.90666 127.97694 26.52467 128.76349 27.14272 129.50322 27.76076 130.19345 28.37877 130.8331 28.99681 131.4238 29.61484 131.96395 30.23286 132.4535 30.8509 132.8925 31.46893 133.27661 32.08696 133.6091 32.705 133.88884 33.32301 134.1175 33.94106 134.29233 34.5591 134.41176 35.17711 134.47739 35.79515 134.4914 36.41318 134.45159 37.0312 134.3585 37.64925 134.21056 38.26727 134.00989 38.8853 133.75597 39.50334 133.44931 40.12137 133.09102 40.7394 132.68001 41.35744 132.21518 41.97546 131.7014 42.59349 131.13599 43.21152 130.52 43.82956 129.85613 44.44759 129.14008 45.06561 128.37668 45.68365 127.56647 46.30168 126.70946 46.91971 125.80835 47.53775 124.85988 48.15578 123.86731 48.7738 122.83221 49.39183 121.75626 50.00986 120.63834 50.6279 119.48166 51.24594 118.28465 51.86397 117.05106 52.48201 115.78087 53.10004 114.47627 53.71806 113.1383 54.3361 111.76646 54.95413 110.36447 55.57216 108.9329 56.1902 107.47498 56.80821 105.98853 57.42625 104.47571 58.0443 102.9403 58.66231 101.38231 59.28035 99.80548 59.89839 98.20982 60.5164 96.59425 61.13445 94.96364 61.75247 93.3185 62.3705 91.66203 62.98854 89.99374 63.60655 88.31633 64.2246 86.63083 64.84264 84.94048 65.46065 83.24475 66.07869 81.5485 66.69673 79.85008 67.31477 78.15276 67.93277 76.4581 68.55084 74.76723 69.16881 73.0828 69.78688 71.40483 70.40495 69.73654 71.02292 68.0801 71.64099 66.43602 72.25897 64.80486 72.87703 63.1893 73.49512 61.59258 74.11308 60.01465 74.73116 58.4572 75.34914 56.9218 75.96718 55.4106 76.58527 53.92361 77.20325 52.46515 77.8213 51.03357 78.43929 49.63159 79.05734 48.25974 79.67542 46.9207 80.2934 45.61662 80.91147 44.34752 81.52943 43.1134 82.14752 41.91476 82.76558 40.75917 83.38354 39.6418 84.00163 38.56421 84.6196 37.52913 85.23767 36.53708 85.85573 35.58809 86.47371 34.68697 87.09178 33.82996 87.70975 33.01976 88.32784 32.25636 88.94589 31.54138 89.56386 30.87537 90.18193 30.26044 90.79991 29.69502 91.41798 29.18126 92.03604 28.7159 92.654 28.3054 93.2721 27.94658 93.89006 27.63939 94.50813 27.38493 95.1262 27.18427 95.74419 27.03685 96.36224 26.94324 96.98022 26.90343 97.5983 26.91742 98.21637 26.98358 98.83435 27.1025 99.4524 27.27678 100.07039 27.50598 100.68846 27.78465 101.30652 28.1182 101.9245 28.50177 102.54257 28.94078 103.16054 29.42926 103.77861 29.9694 104.39668 30.55956 105.01465 31.20084 105.63272 31.89107 106.25069 32.62596 106.86876 33.41302 107.48685 34.2469 108.1048 35.12596 108.72289 36.0529 109.34087 37.02074 109.95891 38.03484 110.577 39.0925 111.19498 40.18945 111.81303 41.32784 112.43102 42.50708 113.04909 43.72346 113.66714 44.9678 114.28513 46.25575 114.9032 47.57811 115.52116 48.9349 116.13925 50.31859 116.7573 51.73619 117.37527 53.18282 117.99336 54.65688 118.61133 56.15732 119.2294 57.67712 119.84746 59.23027 120.46542 60.79474 121.08351 62.38339 121.70148 63.98497 122.31955 65.60538 122.93762 67.2446 123.5556 68.89621 124.17366 70.56018 124.79164 72.23494 125.40971 73.91774 126.02777 75.60701 126.64575 77.30113 127.26382 78.99416 127.88179 80.69312"/>
<use data-text="y" xlink:href="#font_1_3" transform="matrix(9.962799,0,0,-9.962899,88.5975,148.52597)" fill="#bf0040"/>
<use data-text="=" xlink:href="#font_2_7" transform="matrix(9.962799,0,0,-9.962899,96.60667,148.52597)" fill="#bf0040"/>
<use data-text="s" xlink:href="#font_2_10" transform="matrix(9.962799,0,0,-9.962899,107.10745,148.52597)" fill="#bf0040"/>
<use data-text="i" xlink:href="#font_2_8" transform="matrix(9.962799,0,0,-9.962899,111.03279,148.52597)" fill="#bf0040"/>
<use data-text="n" xlink:href="#font_2_9" transform="matrix(9.962799,0,0,-9.962899,113.792499,148.52597)" fill="#bf0040"/>
<use data-text="1" xlink:href="#font_4_1" transform="matrix(6.97394,0,0,-6.9740097,122.21118,144.60288)" fill="#bf0040"/>
<path transform="matrix(1.00002,0,0,-1.00003,-27.90683,1.5235672)" stroke-width=".3985" stroke-linecap="butt" stroke-miterlimit="10" stroke-linejoin="miter" fill="none" stroke="#bf0040" d="M150.115-144.507H154.086"/>
<use data-text="2" xlink:href="#font_4_2" transform="matrix(6.97394,0,0,-6.9740097,122.21118,151.96109)" fill="#bf0040"/>
<use data-text="x" xlink:href="#font_1_2" transform="matrix(9.962799,0,0,-9.962899,127.378299,148.52597)" fill="#bf0040"/>
<path transform="matrix(1.00002,0,0,-1.00003,13.6989979,163.19742)" stroke-width=".99628" stroke-linecap="butt" stroke-miterlimit="10" stroke-linejoin="miter" fill="none" stroke="#ff8000" d="M4.89359 80.69742 5.82062 82.39528 6.74765 84.09207 7.6747 85.7835 8.60175 87.4733 9.52878 89.15451 10.45583 90.82762 11.38287 92.48999 12.30992 94.14052 13.23695 95.77814 14.164 97.40123 15.09105 99.00764 16.01807 100.59416 16.94511 102.16292 17.87216 103.70963 18.79921 105.23318 19.72624 106.73308 20.65329 108.20555 21.58034 109.65056 22.50737 111.06653 23.43442 112.454 24.36147 113.81079 25.2885 115.13153 26.21555 116.41785 27.1426 117.66974 28.06963 118.88612 28.99667 120.06375 29.92372 121.20105 30.85077 122.298 31.7778 123.35406 32.70485 124.36816 33.6319 125.33868 34.55893 126.26456 35.48598 127.14308 36.41302 127.97694 37.34004 128.7624 38.26709 129.50322 39.19414 130.19345 40.12119 130.8331 41.04822 131.4238 41.97527 131.96395 42.90231 132.4535 43.82935 132.8925 44.7564 133.27661 45.68344 133.6091 46.61047 133.88884 47.53752 134.1175 48.46457 134.29126 49.39162 134.41176 50.31865 134.47739 51.2457 134.4914 52.17274 134.45159 53.09978 134.35797 54.02682 134.21056 54.95387 134.00989 55.88092 133.75597 56.80795 133.44931 57.735 133.09102 58.66203 132.68001 59.58907 132.21518 60.51611 131.7014 61.44316 131.13599 62.3702 130.52108 63.29723 129.85613 64.22427 129.14008 65.15132 128.37775 66.07835 127.56647 67.0054 126.71107 67.93245 125.80887 68.85948 124.85988 69.78653 123.86838 70.71358 122.83221 71.64061 121.75679 72.56766 120.63887 73.4947 119.48166 74.42174 118.28465 75.34879 117.05106 76.27583 115.78195 77.20288 114.47789 78.12991 113.1383 79.05696 111.76646 79.984 110.36555 80.91103 108.93451 81.83807 107.47603 82.76512 105.98853 83.69215 104.47733 84.6192 102.94138 85.54625 101.38391 86.4733 99.80656 87.40033 98.21036 88.32738 96.59425 89.25443 94.96364 90.18146 93.31955 91.1085 91.6631 92.03555 89.99483 92.9626 88.31686 93.88963 86.63135 94.81668 84.94156 95.74373 83.24637 96.67076 81.54958 97.59781 79.85117 98.5249 78.15437 99.45186 76.45918 100.37897 74.76884 101.30591 73.0828 102.233 71.40643 103.16011 69.74084 104.08707 68.08331 105.01416 66.43655 105.94112 64.80486 106.86823 63.1936 107.79532 61.5958 108.72227 60.02649 109.64938 58.46257 110.57634 56.93094 111.50343 55.41705 112.43054 53.92955 113.3575 52.46945 114.28459 51.0368 115.21155 49.63321 116.13866 48.25974 117.06575 46.925 117.9927 45.615 118.9198 44.34807 119.84677 43.11769 120.77386 41.92229 121.70094 40.7651 122.6279 39.64609 123.555 38.56798 124.48196 37.53128 125.40906 36.53871 126.33615 35.59239 127.26312 34.68912 128.19022 33.83264 129.11717 33.0203 130.04428 32.25743 130.97138 31.5403 131.89833 30.87967 132.82543 30.26314 133.7524 29.69662 134.67949 29.18126 135.60659 28.71645 136.53356 28.30595 137.46065 27.94766 138.3876 27.64047 139.31472 27.386 140.2418 27.1848 141.16876 27.03685 142.09586 26.94324 143.02283 26.90343 143.9499 26.91634 144.877 26.98305 145.80397 27.1025 146.73107 27.27678 147.65802 27.50435 148.58513 27.78412 149.51222 28.11711 150.43918 28.5007 151.36627 28.94078 152.29325 29.42926 153.22034 29.9694 154.14743 30.55794 155.0744 31.19545 156.0015 31.88623 156.92845 32.62596 157.85555 33.41302 158.78266 34.2469 159.70961 35.12596 160.6367 36.0529 161.56366 37.02074 162.49077 38.03484 163.41786 39.0925 164.34482 40.18945 165.27191 41.32784 166.19887 42.49956 167.12596 43.7154 168.05307 44.9678 168.98003 46.25575 169.90712 47.57811 170.83408 48.9349 171.76119 50.31859 172.68828 51.73619 173.61524 53.18282 174.54235 54.65688 175.4693 56.15732 176.3964 57.67712 177.32349 59.22006 178.25046 60.78882 179.17754 62.37749 180.1045 63.98497 181.0316 65.60538 181.9587 67.2446 182.88565 68.89621 183.81276 70.56018 184.73972 72.23494 185.6668 73.91774 186.5939 75.60701 187.52086 77.30113 188.44795 78.9893 189.37491 80.68771"/>
<use data-text="y" xlink:href="#font_1_3" transform="matrix(9.962799,0,0,-9.962899,134.71842,148.52597)" fill="#ff8000"/>
<use data-text="=" xlink:href="#font_2_7" transform="matrix(9.962799,0,0,-9.962899,142.72759,148.52597)" fill="#ff8000"/>
<use data-text="s" xlink:href="#font_2_10" transform="matrix(9.962799,0,0,-9.962899,153.22837,148.52597)" fill="#ff8000"/>
<use data-text="i" xlink:href="#font_2_8" transform="matrix(9.962799,0,0,-9.962899,157.15372,148.52597)" fill="#ff8000"/>
<use data-text="n" xlink:href="#font_2_9" transform="matrix(9.962799,0,0,-9.962899,159.91342,148.52597)" fill="#ff8000"/>
<use data-text="1" xlink:href="#font_4_1" transform="matrix(6.97394,0,0,-6.9740097,168.33209,144.60288)" fill="#ff8000"/>
<path transform="matrix(1.00002,0,0,-1.00003,18.214089,1.5235672)" stroke-width=".3985" stroke-linecap="butt" stroke-miterlimit="10" stroke-linejoin="miter" fill="none" stroke="#ff8000" d="M150.115-144.507H154.086"/>
<use data-text="3" xlink:href="#font_4_3" transform="matrix(6.97394,0,0,-6.9740097,168.33209,151.96109)" fill="#ff8000"/>
<use data-text="x" xlink:href="#font_1_2" transform="matrix(9.962799,0,0,-9.962899,173.4992,148.52597)" fill="#ff8000"/>
<use data-text="x" xlink:href="#font_1_2" transform="matrix(9.962799,0,0,-9.962899,198.7597,78.97788)"/>
<use data-text="y" xlink:href="#font_1_3" transform="matrix(9.962799,0,0,-9.962899,22.112168,9.606812)"/>
</svg>
