<svg xmlns="http://www.w3.org/2000/svg" xmlns:xlink="http://www.w3.org/1999/xlink" xmlns:inkscape="http://www.inkscape.org/namespaces/inkscape" version="1.1" width="221" height="181" viewBox="0 0 221 181">
<defs>
<path id="font_1_1" d="M.6589966 .23046875C.6759949 .23046875 .69400027 .23046875 .69400027 .25045777 .69400027 .27046205 .6759949 .27046205 .6589966 .27046205H.117996219C.100997928 .27046205 .08299255 .27046205 .08299255 .25045777 .08299255 .23046875 .100997928 .23046875 .117996219 .23046875H.6589966Z"/>
<path id="font_2_2" d="M.272995 .33428956C.35099793 .33428956 .40699769 .2803192 .40699769 .1733551 .40699769 .04940796 .33499146 .012466431 .2769928 .012466431 .23699951 .012466431 .14898682 .0234375 .10699463 .082351688 .1539917 .084350589 .16499329 .11735535 .16499329 .13835144 .16499329 .17034912 .14099121 .19335938 .10998535 .19335938 .08198547 .19335938 .053985597 .17634583 .053985597 .13534546 .053985597 .041412355 .1579895-.01953125 .2789917-.01953125 .41799928-.01953125 .5139923 .07336426 .5139923 .1733551 .5139923 .2513275 .44999696 .32929994 .33999635 .35229493 .44499208 .39024354 .48298646 .4650879 .48298646 .5260773 .48298646 .60505679 .3919983 .6640625 .2809906 .6640625 .16999817 .6640625 .084991458 .61006167 .084991458 .5300751 .084991458 .49606324 .10699463 .47706605 .13699341 .47706605 .16799927 .47706605 .18798828 .5000763 .18798828 .5280762 .18798828 .5570679 .16799927 .57806399 .13699341 .5800781 .17199707 .62405398 .24099732 .63505557 .27799989 .63505557 .32299806 .63505557 .38598634 .6130676 .38598634 .5260773 .38598634 .48406983 .37199403 .43814088 .34599305 .4072113 .31298829 .36927796 .2849884 .3672943 .23498535 .36428834 .20999146 .3623047 .20799256 .3623047 .20298767 .3612976 .20098877 .3612976 .19299317 .3592987 .19299317 .34829713 .19299317 .33428956 .20199585 .33428956 .21899414 .33428956H.272995Z"/>
<path id="font_3_1" d="M.31098939 .36265565H.42999269C.4149933 .30274964 .3929901 .2118988 .3929901 .13302613 .3929901 .09309387 .397995 .06613159 .4039917 .044174196 .41999818-.0057678224 .43299867-.009765625 .44898988-.009765625 .47200013-.009765625 .49598695 .011230469 .49598695 .035186769 .49598695 .043182374 .49398805 .047164918 .48799134 .057159425 .46899415 .09408569 .45098878 .15100098 .45098878 .23286438 .45098878 .25183106 .45098878 .29177857 .46499635 .36265565H.58999636C.60798647 .36265565 .6159973 .36265565 .6269989 .37065126 .6409912 .380661 .6439972 .39665223 .6439972 .4016571 .6439972 .43066407 .6179962 .43066407 .6009979 .43066407H.22399903C.18299866 .43066407 .15499878 .42166139 .10998535 .37965394 .083999637 .35665895 .04499817 .30274964 .04499817 .2937622 .04499817 .28178407 .057998659 .28178407 .06199646 .28178407 .07299805 .28178407 .07398987 .28378297 .07998657 .2927704 .1309967 .36265565 .19299317 .36265565 .21499634 .36265565H.27598573C.24499512 .25283814 .19099427 .13502503 .16099549 .07511902 .15499878 .062149049 .14498902 .04118347 .14199829 .03718567 .14099121 .033187868 .13899231 .029190064 .13899231 .022201539 .13899231 .006225586 .15098572-.009765625 .17399597-.009765625 .21398926-.009765625 .22499085 .035186769 .24899292 .12504578L.31098939 .36265565Z"/>
<path id="font_2_1" d="M.5049896 .18203736H.47099305C.46798707 .16001892 .45799256 .100997928 .44499208 .09098816 .43699647 .084991458 .3600006 .084991458 .34599305 .084991458H.1619873C.2669983 .17803955 .3019867 .20603943 .3619995 .25306703 .43598939 .312088 .5049896 .374115 .5049896 .46914674 .5049896 .5900879 .39898683 .6640625 .2709961 .6640625 .14698792 .6640625 .06298828 .57710269 .06298828 .4851532 .06298828 .43414308 .10598755 .42915345 .115997318 .42915345 .13999939 .42915345 .16899109 .44615174 .16899109 .48214723 .16899109 .5001526 .1619873 .53515627 .10998535 .53515627 .14099121 .6060791 .20899964 .62805178 .2559967 .62805178 .35598756 .62805178 .4079895 .5501404 .4079895 .46914674 .4079895 .38212586 .34599305 .3130951 .31399537 .27708436L.07299805 .038986207C.06298828 .02999878 .06298828 .027999878 .06298828 0H.47499085L.5049896 .18203736Z"/>
<path id="font_2_3" d="M.15499878 .5588074C.20599365 .5458069 .23599243 .5458069 .2519989 .5458069 .38398744 .5458069 .46199037 .6358032 .46199037 .6508026 .46199037 .6618042 .45498658 .6648102 .44999696 .6648102 .44799806 .6648102 .44599916 .6648102 .44198609 .6618042 .41799928 .6528015 .36499024 .6328125 .29100038 .6328125 .2630005 .6328125 .20999146 .6348114 .14498902 .6598053 .1349945 .6648102 .1329956 .6648102 .13198853 .6648102 .11898804 .6648102 .11898804 .6538086 .11898804 .6378021V.34251405C.11898804 .32548524 .11898804 .3134613 .1349945 .3134613 .14399719 .3134613 .14498902 .3154602 .15499878 .32748414 .19799805 .38259889 .25898744 .390625 .2939911 .390625 .35398866 .390625 .3809967 .34251405 .38598634 .33450318 .4039917 .30143739 .4099884 .26335145 .4099884 .20524597 .4099884 .17524719 .4099884 .116256717 .37998963 .07234192 .35499574 .03640747 .31199647 .012466431 .2630005 .012466431 .19799805 .012466431 .1309967 .04838562 .10598755 .11425781 .14399719 .11125183 .16299439 .13624573 .16299439 .16325379 .16299439 .20625305 .12599182 .21424866 .11299133 .21424866 .11099243 .21424866 .06298828 .21424866 .06298828 .1602478 .06298828 .07034302 .14498902-.01953125 .2649994-.01953125 .3929901-.01953125 .5049896 .07533264 .5049896 .20124817 .5049896 .31445313 .4189911 .41862489 .29499818 .41862489 .25099183 .41862489 .19898987 .4076233 .15499878 .36956788V.5588074Z"/>
<path id="font_2_4" d="M.5349884 .6045227C.54499819 .6165161 .54499819 .6185303 .54499819 .64453127H.2829895C.24299622 .64453127 .23199463 .6455078 .19599915 .6484375 .14399719 .65234377 .14199829 .6592407 .13899231 .676239H.10499573L.069992069 .46250917H.10398865C.10598755 .47750855 .115997318 .54351809 .13198853 .5535126 .13999939 .55952456 .22099304 .55952456 .23599243 .55952456H.45399476C.42199708 .5175171 .37098695 .45550538 .34999085 .4275055 .21899414 .25549317 .20698548 .096466068 .20698548 .037460329 .20698548 .02645874 .20698548-.01953125 .2539978-.01953125 .3019867-.01953125 .3019867 .025466919 .3019867 .038467409V.07847595C.3019867 .27249146 .34199525 .36149598 .3849945 .41551209L.5349884 .6045227Z"/>
<path id="font_4_6" d="M.2939911 .16503906V.07800293C.2939911 .041992189 .2919922 .0309906 .21798706 .0309906H.19699097V0C.23799134 .0029907227 .2899933 .0029907227 .33198548 .0029907227 .37399293 .0029907227 .4269867 .0029907227 .46798707 0V.0309906H.44699098C.37298585 .0309906 .37098695 .041992189 .37098695 .07800293V.16503906H.47099305V.19602967H.37098695V.65075686C.37098695 .67074587 .37098695 .6767578 .35499574 .6767578 .34599305 .6767578 .34298707 .6767578 .33499146 .66474917L.027999878 .19602967V.16503906H.2939911M.2999878 .19602967H.055999757L.2999878 .5688019V.19602967Z"/>
<path id="font_4_4" d="M.1269989 .07699585 .23298645 .18003845C.3889923 .31811524 .44898988 .3721466 .44898988 .47216798 .44898988 .5860901 .35899354 .6660156 .23699951 .6660156 .12399292 .6660156 .049987794 .57411196 .049987794 .48516847 .049987794 .4291687 .099990848 .4291687 .102996829 .4291687 .11999512 .4291687 .15499878 .44117738 .15499878 .48217774 .15499878 .5081787 .13699341 .5341797 .101989749 .5341797 .09399414 .5341797 .09199524 .5341797 .08898926 .5331726 .11199951 .59806826 .1659851 .63500979 .22399903 .63500979 .31498719 .63500979 .35798646 .5541382 .35798646 .47216798 .35798646 .39215089 .30799867 .31311036 .25299073 .25108338L.06098938 .036987306C.049987794 .025985718 .049987794 .023986817 .049987794 0H.42099L.44898988 .17404175H.42399598C.4189911 .14402771 .4119873 .1000061 .4019928 .084991458 .394989 .07699585 .32899476 .07699585 .30699159 .07699585H.1269989Z"/>
<path id="font_5_3" d="M.48599244 .38136292C.48999024 .39537049 .48999024 .39736939 .48999024 .40437318 .48999024 .42237855 .47599793 .43138124 .46099855 .43138124 .45098878 .43138124 .43499757 .42536927 .42599488 .41036988 .42399598 .405365 .41600038 .37435914 .4119873 .35635377 .40499879 .33035279 .397995 .30334474 .3919983 .27633668L.34700013 .09628296C.34298707 .08126831 .2999878 .011245728 .23399353 .011245728 .18299866 .011245728 .17199707 .055267335 .17199707 .0922699 .17199707 .1382904 .18899536 .20030213 .22299195 .28833009 .23899842 .3293457 .24299622 .3403473 .24299622 .36035157 .24299622 .405365 .21099854 .4423828 .16099549 .4423828 .06599426 .4423828 .0289917 .29733277 .0289917 .28833009 .0289917 .27833558 .038986207 .27833558 .040985109 .27833558 .050994874 .27833558 .051986696 .28033448 .056991579 .29634095 .083999637 .3903656 .12399292 .42037965 .1579895 .42037965 .1659851 .42037965 .18299866 .42037965 .18299866 .3883667 .18299866 .36335755 .17298889 .3373413 .1659851 .31834413 .12599182 .21231079 .10798645 .1552887 .10798645 .10827637 .10798645 .019256592 .17098999-.0107421879 .22999573-.0107421879 .2689972-.0107421879 .30299378 .0062561037 .33099366 .03425598 .31799317-.017745972 .30599977-.06674194 .2659912-.11973572 .23999024-.15385437 .20199585-.18309021 .1559906-.18309021 .14199829-.18309021 .09700012-.18005371 .07998657-.14074707 .09599304-.14074707 .10899353-.14074707 .12298584-.1287384 .1329956-.11973572 .14299011-.10673523 .14299011-.08773804 .14299011-.056747438 .115997318-.052734376 .10598755-.052734376 .08299255-.052734376 .049987794-.068740848 .049987794-.11773682 .049987794-.16796875 .09399414-.20507813 .1559906-.20507813 .25898744-.20507813 .3619995-.11373901 .3899994-.00074768069L.48599244 .38136292Z"/>
<path id="font_4_7" d="M.68699648 .32714845C.70199587 .32714845 .72099307 .32714845 .72099307 .34713746 .72099307 .36714173 .70199587 .36714173 .6879883 .36714173H.08898926C.07499695 .36714173 .055999757 .36714173 .055999757 .34713746 .055999757 .32714845 .07499695 .32714845 .08999634 .32714845H.68699648M.6879883 .13284302C.70199587 .13284302 .72099307 .13284302 .72099307 .15284729 .72099307 .17285156 .70199587 .17285156 .68699648 .17285156H.08999634C.07499695 .17285156 .055999757 .17285156 .055999757 .15284729 .055999757 .13284302 .07499695 .13284302 .08898926 .13284302H.6879883Z"/>
<path id="font_4_11" d="M.20799256 .19424439C.22999573 .19024658 .31199647 .17424011 .31199647 .102249149 .31199647 .051254274 .2769928 .011245728 .19898987 .011245728 .114990238 .011245728 .07899475 .06825256 .05999756 .15324402 .056991579 .1662445 .055999757 .17024231 .04598999 .17024231 .032989503 .17024231 .032989503 .16323853 .032989503 .14524842V.013244629C.032989503-.003753662 .032989503-.0107421879 .04399109-.0107421879 .04899597-.0107421879 .049987794-.009750366 .068984989 .009246826 .070999149 .011245728 .070999149 .013244629 .08898926 .03224182 .1329956-.009750366 .17799378-.0107421879 .19898987-.0107421879 .31399537-.0107421879 .3600006 .056243898 .3600006 .12825012 .3600006 .1812439 .32998658 .21124268 .31799317 .22323609 .2849884 .25523377 .24598694 .26324464 .20399475 .27124024 .147995 .28224183 .08099365 .2952423 .08099365 .35324098 .08099365 .38822938 .10699463 .42922975 .19299317 .42922975 .30299378 .42922975 .30799867 .3392334 .30999757 .3082428 .31098939 .2992401 .31999208 .2992401 .32199098 .2992401 .33499146 .2992401 .33499146 .304245 .33499146 .3232422V.4242401C.33499146 .4412384 .33499146 .4482422 .32398988 .4482422 .31900025 .4482422 .31698609 .4482422 .3039856 .43623353 .30099488 .43223573 .29100038 .42323304 .2869873 .42022706 .24899292 .4482422 .20799256 .4482422 .19299317 .4482422 .070999149 .4482422 .032989503 .38124085 .032989503 .3252411 .032989503 .29023744 .04899597 .26223756 .07598877 .24023438 .10798645 .21424866 .13598633 .2082367 .20799256 .19424439Z"/>
<path id="font_4_9" d="M.1769867 .4423828 .036987306 .43138124V.40037538C.101989749 .40037538 .11099243 .3943634 .11099243 .34532167V.076034549C.11099243 .0309906 .099990848 .0309906 .032989503 .0309906V0C.06498718 .0009918213 .11898804 .0029907227 .14299011 .0029907227 .17799378 .0029907227 .21299744 .0009918213 .24699402 0V.0309906C.18099976 .0309906 .1769867 .035995485 .1769867 .075042728V.4423828M.18099976 .6159363C.18099976 .64793398 .1559906 .6689453 .12799073 .6689453 .09700012 .6689453 .07499695 .64193728 .07499695 .6159363 .07499695 .5889435 .09700012 .5629425 .12799073 .5629425 .1559906 .5629425 .18099976 .5839386 .18099976 .6159363Z"/>
<path id="font_4_10" d="M.10998535 .34429933V.076034549C.10998535 .0309906 .09899902 .0309906 .03199768 .0309906V0C.066986087 .0009918213 .117996219 .0029907227 .14498902 .0029907227 .17098999 .0029907227 .22299195 .0009918213 .25698854 0V.0309906C.18998719 .0309906 .1789856 .0309906 .1789856 .076034549V.2602234C.1789856 .36431886 .25 .42037965 .31399537 .42037965 .3769989 .42037965 .3880005 .36631776 .3880005 .30926515V.076034549C.3880005 .0309906 .3769989 .0309906 .30999757 .0309906V0C.34498597 .0009918213 .3959961 .0029907227 .4229889 .0029907227 .44898988 .0029907227 .5009918 .0009918213 .5349884 0V.0309906C.48298646 .0309906 .45799256 .0309906 .45700074 .061019899V.25221253C.45700074 .3383026 .45700074 .36932374 .42599488 .405365 .4119873 .42237855 .3789978 .4423828 .32099916 .4423828 .24798584 .4423828 .20098877 .39935304 .17298889 .33729554V.4423828L.03199768 .43138124V.40037538C.101989749 .4003601 .10998535 .39335633 .10998535 .34429933Z"/>
<path id="font_4_1" d="M.33099366-.2400055C.33099366-.23701477 .33099366-.23500061 .31399537-.21800232 .18899536-.0920105 .15699768 .09700012 .15699768 .25 .15699768 .42399598 .19499207 .59799197 .31799317 .72299197 .33099366 .73498538 .33099366 .7369995 .33099366 .73999026 .33099366 .746994 .32699586 .75 .32099916 .75 .31098939 .75 .22099304 .6819916 .1619873 .5549927 .11099243 .44499208 .09899902 .33399964 .09899902 .25 .09899902 .17199707 .10998535 .050994874 .16499329-.06201172 .22499085-.18501282 .31098939-.25 .32099916-.25 .32699586-.25 .33099366-.24700928 .33099366-.2400055Z"/>
<path id="font_5_2" d="M.33399964 .30233766C.33999635 .32835389 .36299134 .42037965 .43299867 .42037965 .43798829 .42037965 .46199037 .42037965 .48298646 .40734864 .45498658 .402359 .43499757 .37734986 .43499757 .35334779 .43499757 .33735658 .44599916 .31835938 .47299195 .31835938 .49499513 .31835938 .5269928 .3363495 .5269928 .37635804 .5269928 .42837525 .46798707 .4423828 .43399049 .4423828 .37599183 .4423828 .34098817 .38935853 .32899476 .36634828 .3039856 .43237306 .25 .4423828 .22099304 .4423828 .116989139 .4423828 .05999756 .3133545 .05999756 .28834535 .05999756 .27833558 .069992069 .27833558 .07199097 .27833558 .07998657 .27833558 .08299255 .28033448 .084991458 .28933717 .11898804 .39535523 .18499756 .42037965 .21899414 .42037965 .23799134 .42037965 .272995 .4113617 .272995 .35334779 .272995 .32235719 .2559967 .25532533 .21899414 .11528015 .20298767 .053268434 .16799927 .011245728 .12399292 .011245728 .117996219 .011245728 .09498596 .011245728 .07398987 .024276734 .09899902 .029266358 .12098694 .05027771 .12098694 .07827759 .12098694 .105270389 .09899902 .11328125 .083999637 .11328125 .053985597 .11328125 .0289917 .08728027 .0289917 .055267335 .0289917 .009246826 .07899475-.0107421879 .12298584-.0107421879 .18899536-.0107421879 .22499085 .059280397 .22799683 .0652771 .23999024 .028274537 .27598573-.0107421879 .33599855-.0107421879 .43899537-.0107421879 .49598695 .118270877 .49598695 .14328003 .49598695 .1532898 .4869995 .1532898 .48399354 .1532898 .47499085 .1532898 .47299195 .14929199 .47099305 .14228821 .43798829 .03527832 .36999513 .011245728 .33799745 .011245728 .29899598 .011245728 .2829895 .043273927 .2829895 .07727051 .2829895 .09927368 .2889862 .121276859 .2999878 .16529846L.33399964 .30233766Z"/>
<path id="font_4_2" d="M.2889862 .25C.2889862 .32798768 .27799989 .44898988 .22299195 .56199648 .16299439 .68499758 .07699585 .75 .066986087 .75 .06098938 .75 .056991579 .74598696 .056991579 .73999026 .056991579 .7369995 .056991579 .73498538 .07598877 .71699526 .17399597 .6179962 .23098755 .45899964 .23098755 .25 .23098755 .07899475 .19400025-.09700012 .069992069-.2230072 .056991579-.23500061 .056991579-.23701477 .056991579-.2400055 .056991579-.2460022 .06098938-.25 .066986087-.25 .07699585-.25 .16699219-.18200684 .22599793-.055007936 .2769928 .054992677 .2889862 .16600037 .2889862 .25Z"/>
<path id="font_4_8" d="M.116989139 .21801758C.116989139 .38093568 .19898987 .42323304 .2519989 .42323304 .26098634 .42323304 .32398988 .42222596 .35899354 .38594056 .31799317 .38293458 .31199647 .3529358 .31199647 .3399353 .31199647 .31393434 .32998658 .2939453 .35798646 .2939453 .38398744 .2939453 .4039917 .3109436 .4039917 .34094239 .4039917 .40911866 .32798768 .4482422 .25099183 .4482422 .12599182 .4482422 .033996583 .3399353 .033996583 .21601868 .033996583 .08816528 .1329956-.0107421879 .24899292-.0107421879 .3829956-.0107421879 .4149933 .10914612 .4149933 .119140628 .4149933 .12911988 .40499879 .12911988 .4019928 .12911988 .3929901 .12911988 .3909912 .12512207 .3889923 .119140628 .3600006 .026229859 .29499818 .014251709 .2579956 .014251709 .20498657 .014251709 .116989139 .0572052 .116989139 .21801758Z"/>
<path id="font_5_1" d="M.2649994 .37265016H.37799073C.34498597 .22489929 .33599855 .18196106 .33599855 .11508179 .33599855 .100097659 .33599855 .073150638 .34399415 .03919983 .35398866-.0047454836 .36499024-.0107421879 .37998963-.0107421879 .3999939-.0107421879 .42099 .007247925 .42099 .02722168 .42099 .033218385 .42099 .035202028 .4149933 .049179079 .38598634 .12106323 .38598634 .18595886 .38598634 .21391297 .38598634 .26683045 .3929901 .32073976 .4039917 .37265016H.5179901C.5309906 .37265016 .5669861 .37265016 .5669861 .406662 .5669861 .43066407 .54599 .43066407 .5269928 .43066407H.19198609C.16999817 .43066407 .13198853 .43066407 .08799744 .38365174 .052993776 .34469605 .026992798 .29878236 .026992798 .29379273 .026992798 .29278565 .026992798 .28379823 .038986207 .28379823 .04699707 .28379823 .04899597 .28779603 .054992677 .29577638 .10398865 .37265016 .1619873 .37265016 .18199158 .37265016H.23899842C.20698548 .25186158 .15299988 .13105774 .11099243 .04020691 .102996829 .025222779 .102996829 .023223877 .102996829 .016235352 .102996829-.002746582 .11898804-.0107421879 .13198853-.0107421879 .1619873-.0107421879 .16999817 .017242432 .18199158 .05418396 .19599915 .100097659 .19599915 .10209656 .20899964 .15202332L.2649994 .37265016Z"/>
<path id="font_4_3" d="M.45999146 .31976319C.45999146 .39982606 .45498658 .47988893 .41999818 .5539398 .37399293 .65000918 .2919922 .6660156 .25 .6660156 .18998719 .6660156 .116989139 .64001467 .07598877 .54693606 .04399109 .47789 .038986207 .39982606 .038986207 .31976319 .038986207 .24472046 .042999269 .15464783 .083999637 .07859802 .1269989-.0024719239 .19999695-.022460938 .24899292-.022460938 .30299378-.022460938 .3789978-.0014648438 .4229889 .09359741 .45498658 .16265869 .45999146 .2407074 .45999146 .31976319M.24899292-.00047302247C.20999146-.00047302247 .15098572 .024551392 .1329956 .12062073 .12199402 .18066406 .12199402 .2727356 .12199402 .3317871 .12199402 .39582826 .12199402 .46188355 .12998963 .5159149 .14898682 .63500979 .22399903 .64401248 .24899292 .64401248 .28199769 .64401248 .34799195 .6259918 .36698915 .52693179 .3769989 .47088624 .3769989 .39482118 .3769989 .3317871 .3769989 .25672914 .3769989 .18867493 .3659973 .12461853 .35099793 .029556275 .2939911-.00047302247 .24899292-.00047302247Z"/>
<path id="font_4_5" d="M.2899933 .35191346C.37199403 .37893678 .42999269 .4490509 .42999269 .52809146 .42999269 .6100464 .34199525 .6660156 .24598694 .6660156 .14498902 .6660156 .068984989 .60606387 .068984989 .53009036 .068984989 .49710084 .09098816 .47808839 .11999512 .47808839 .15098572 .47808839 .17098999 .50009158 .17098999 .5290985 .17098999 .57910159 .12399292 .57910159 .10899353 .57910159 .13999939 .62802127 .20599365 .64100649 .24198914 .64100649 .2829895 .64100649 .33799745 .6190338 .33799745 .5290985 .33799745 .51708987 .33599855 .45906068 .30999757 .4149933 .27999879 .36691285 .24598694 .36390687 .22099304 .36291505 .21299744 .36190797 .18899536 .35990907 .18199158 .35990907 .17399597 .35890199 .16699219 .35791017 .16699219 .3479004 .16699219 .33691407 .17399597 .33691407 .19099427 .33691407H.23498535C.31698609 .33691407 .35398866 .2686615 .35398866 .17037964 .35398866 .034469606 .2849884 .0055389406 .24099732 .0055389406 .19799805 .0055389406 .12298584 .022491456 .08799744 .08137512 .12298584 .07637024 .1539917 .09837341 .1539917 .1363678 .1539917 .17237854 .1269989 .19238281 .09799194 .19238281 .07398987 .19238281 .041992189 .17837525 .041992189 .1343689 .041992189 .043441774 .1349945-.022460938 .24398804-.022460938 .3659973-.022460938 .45700074 .06838989 .45700074 .17037964 .45700074 .252594 .3939972 .33088685 .2899933 .35191346Z"/>
</defs>
<path transform="matrix(1.00003,0,0,-1.00006,15.196022,170.96654)" stroke-width=".19925" stroke-linecap="butt" stroke-miterlimit="10" stroke-linejoin="miter" fill="none" stroke="#7f807f" d="M20.26724 78.57344V82.82533M51.01465 78.57344V82.82533M81.76208 78.57344V82.82533M112.5095 78.57344V82.82533M143.25695 78.57344V82.82533M174.00437 78.57344V82.82533"/>
<path transform="matrix(1.00003,0,0,-1.00006,15.196022,170.96654)" stroke-width=".19925" stroke-linecap="butt" stroke-miterlimit="10" stroke-linejoin="miter" fill="none" stroke="#7f807f" d="M64.26244 19.79419H68.51411M64.26244 50.24678H68.51411M64.26244 111.152H68.51411M64.26244 141.6046H68.51411"/>
<path transform="matrix(1.00003,0,0,-1.00006,15.196022,170.96654)" stroke-width=".3985" stroke-linecap="butt" stroke-miterlimit="10" stroke-linejoin="miter" fill="none" stroke="#000000" d="M0 80.69939H192.27873"/>
<path transform="matrix(1.00003,0,0,-1.00006,207.48053,90.262317)" d="M1.99252 0-1.19551 1.59401 0 0-1.19551-1.59401"/>
<path transform="matrix(1.00003,0,0,-1.00006,15.196022,170.96654)" stroke-width=".3985" stroke-linecap="butt" stroke-miterlimit="10" stroke-linejoin="miter" fill="none" stroke="#000000" d="M66.38828 0V159.40627"/>
<path transform="matrix(0,-1.00006,-1.00003,-0,81.586299,11.55072)" d="M1.99252 0-1.19551 1.59401 0 0-1.19551-1.59401"/>
<use data-text="&#x2212;" xlink:href="#font_1_1" transform="matrix(9.962899,0,0,-9.963197,25.953347,104.32554)"/>
<use data-text="3" xlink:href="#font_2_2" transform="matrix(6.9740097,0,0,-6.9742186,34.898614,100.40331)"/>
<use data-text="&#x03c0;" xlink:href="#font_3_1" transform="matrix(6.9740097,0,0,-6.9742186,38.869737,100.40331)"/>
<path transform="matrix(1.00003,0,0,-1.00006,-91.54419,-42.082239)" stroke-width=".3985" stroke-linecap="butt" stroke-miterlimit="10" stroke-linejoin="miter" fill="none" stroke="#000000" d="M126.439-143.909H135.319"/>
<use data-text="2" xlink:href="#font_2_1" transform="matrix(6.9740097,0,0,-6.9742186,37.35269,107.76176)"/>
<use data-text="&#x2212;" xlink:href="#font_1_1" transform="matrix(9.962899,0,0,-9.963197,58.68733,102.83446)"/>
<use data-text="&#x03c0;" xlink:href="#font_3_1" transform="matrix(6.9740097,0,0,-6.9742186,67.6326,98.91223)"/>
<path transform="matrix(1.00003,0,0,-1.00006,-58.810209,-43.57332)" stroke-width=".3985" stroke-linecap="butt" stroke-miterlimit="10" stroke-linejoin="miter" fill="none" stroke="#000000" d="M126.439-143.909H131.348"/>
<use data-text="2" xlink:href="#font_2_1" transform="matrix(6.9740097,0,0,-6.9742186,68.10161,106.270679)"/>
<use data-text="&#x03c0;" xlink:href="#font_3_1" transform="matrix(6.9740097,0,0,-6.9742186,94.5064,98.91223)"/>
<path transform="matrix(1.00003,0,0,-1.00006,-24.187165,-43.57332)" stroke-width=".3985" stroke-linecap="butt" stroke-miterlimit="10" stroke-linejoin="miter" fill="none" stroke="#000000" d="M118.69-143.909H123.599"/>
<use data-text="2" xlink:href="#font_2_1" transform="matrix(6.9740097,0,0,-6.9742186,94.97541,106.270679)"/>
<use data-text="3" xlink:href="#font_2_2" transform="matrix(6.9740097,0,0,-6.9742186,123.269268,100.40331)"/>
<use data-text="&#x03c0;" xlink:href="#font_3_1" transform="matrix(6.9740097,0,0,-6.9742186,127.24039,100.40331)"/>
<path transform="matrix(1.00003,0,0,-1.00006,4.575699,-42.082239)" stroke-width=".3985" stroke-linecap="butt" stroke-miterlimit="10" stroke-linejoin="miter" fill="none" stroke="#000000" d="M118.69-143.909H127.57"/>
<use data-text="2" xlink:href="#font_2_1" transform="matrix(6.9740097,0,0,-6.9742186,125.723339,107.76176)"/>
<use data-text="5" xlink:href="#font_2_3" transform="matrix(6.9740097,0,0,-6.9742186,154.01718,100.40331)"/>
<use data-text="&#x03c0;" xlink:href="#font_3_1" transform="matrix(6.9740097,0,0,-6.9742186,157.98831,100.40331)"/>
<path transform="matrix(1.00003,0,0,-1.00006,35.323625,-42.082239)" stroke-width=".3985" stroke-linecap="butt" stroke-miterlimit="10" stroke-linejoin="miter" fill="none" stroke="#000000" d="M118.69-143.909H127.57"/>
<use data-text="2" xlink:href="#font_2_1" transform="matrix(6.9740097,0,0,-6.9742186,156.47126,107.76176)"/>
<use data-text="7" xlink:href="#font_2_4" transform="matrix(6.9740097,0,0,-6.9742186,184.76612,100.40331)"/>
<use data-text="&#x03c0;" xlink:href="#font_3_1" transform="matrix(6.9740097,0,0,-6.9742186,188.73723,100.40331)"/>
<path transform="matrix(1.00003,0,0,-1.00006,66.07254,-42.082239)" stroke-width=".3985" stroke-linecap="butt" stroke-miterlimit="10" stroke-linejoin="miter" fill="none" stroke="#000000" d="M118.69-143.909H127.57"/>
<use data-text="2" xlink:href="#font_2_1" transform="matrix(6.9740097,0,0,-6.9742186,187.22019,107.76176)"/>
<use data-text="&#x2212;" xlink:href="#font_1_1" transform="matrix(9.962899,0,0,-9.963197,63.209466,153.96652)"/>
<use data-text="4" xlink:href="#font_4_6" transform="matrix(9.962899,0,0,-9.963197,70.958698,153.96652)"/>
<use data-text="&#x2212;" xlink:href="#font_1_1" transform="matrix(9.962899,0,0,-9.963197,63.209466,123.51169)"/>
<use data-text="2" xlink:href="#font_4_4" transform="matrix(9.962899,0,0,-9.963197,70.958698,123.51169)"/>
<use data-text="2" xlink:href="#font_4_4" transform="matrix(9.962899,0,0,-9.963197,70.958698,63.018068)"/>
<use data-text="4" xlink:href="#font_4_6" transform="matrix(9.962899,0,0,-9.963197,70.958698,32.56424)"/>
<path transform="matrix(1.00003,0,0,-1.00006,15.196022,170.96654)" stroke-width=".99628" stroke-linecap="butt" stroke-miterlimit="10" stroke-linejoin="miter" fill="none" stroke="#ff0000" d="M4.51155 80.0967 3.88287 79.13002 4.8296 80.59996 5.77635 82.07066 6.72307 83.52873 7.6698 84.96046 8.61653 86.35231 9.56326 87.6913 10.51 88.96513 11.45674 90.16101 12.40347 91.26918 13.3502 92.27808 14.29694 93.17932 15.24367 93.96301 16.1904 94.62323 17.13713 95.15294 18.08386 95.54762 19.03061 95.80373 19.97734 95.91823 20.92407 95.89082 21.87079 95.72104 22.81754 95.41133 23.76427 94.96307 24.711 94.38249 25.65773 93.67326 26.60448 92.84358 27.55121 91.89938 28.49794 90.85106 29.44466 89.70741 30.39139 88.47987 31.33813 87.17938 32.28488 85.81847 33.2316 84.40958 34.17833 82.96597 35.12506 81.50136 36.07181 80.02957 37.01852 78.56358 37.96526 77.11769 38.91199 75.70485 39.85875 74.33905 40.80547 73.03279 41.7522 71.79808 42.69893 70.64667 43.64568 69.58905 44.59239 68.6359 45.53912 67.79463 46.48587 67.07504 47.4326 66.48166 48.37933 66.0223 49.32607 65.69934 50.2728 65.51768 51.21953 65.47704 52.16624 65.57906 53.11299 65.82222 54.05974 66.2047 55.00647 66.72285 55.95319 67.37119 56.89993 68.14468 57.84666 69.03497 58.7934 70.03488 59.74011 71.13422 60.68686 72.32324 61.6336 73.59038 62.58034 74.92406 63.52705 76.31146 64.47379 77.7403 65.42053 79.19655 66.36726 80.6668 67.314 82.13705 68.26073 83.59451 69.20746 85.02457 70.15419 86.41443 71.10092 87.75053 72.04765 89.02086 72.99438 90.21353 73.9411 91.31714 74.88786 92.32132 75.8346 93.21693 76.78133 93.99576 77.72804 94.64972 78.67479 95.17427 79.62152 95.56207 80.56825 95.81226 81.51498 95.92006 82.46172 95.8861 83.40846 95.71008 84.3552 95.39368 85.30191 94.93994 86.24864 94.35295 87.19539 93.63869 88.14212 92.80261 89.08885 91.85417 90.03558 90.80112 90.98232 89.65382 91.92906 88.42247 92.87578 87.1191 93.82251 85.75543 94.76924 84.3447 95.716 82.90004 96.66272 81.43451 97.60945 79.96259 98.55624 78.49736 99.50288 77.05267 100.44966 75.64166 101.39632 74.27846 102.34311 72.97508 103.28992 71.74373 104.23656 70.59703 105.18335 69.54352 106.12999 68.59525 107.07678 67.75977 108.02356 67.04504 108.97021 66.45837 109.91702 66.00462 110.86366 65.68839 111.81044 65.51237 112.75723 65.47887 113.70389 65.58652 114.65068 65.83699 115.5973 66.22496 116.5441 66.74951 117.4909 67.40378 118.43756 68.1826 119.38434 69.0782 120.33098 70.08284 121.27779 71.18645 122.22456 72.37897 123.1712 73.64946 124.11801 74.98557 125.06467 76.37556 126.01146 77.80562 126.95824 79.2634 127.90488 80.73334 128.85167 82.20375 129.79833 83.65984 130.7451 85.08867 131.69191 86.47624 132.63855 87.80977 133.58533 89.07675 134.53199 90.26576 135.47878 91.36464 136.42557 92.3647 137.37221 93.25499 138.319 94.02818 139.26566 94.67636 140.21245 95.19482 141.15923 95.5767 142.10587 95.82 143.05266 95.92172 143.99932 95.88107 144.94609 95.69913 145.8929 95.37572 146.83954 94.91647 147.78635 94.32297 148.73299 93.60352 149.67977 92.76196 150.62656 91.8085 151.57321 90.75089 152.52 89.59947 153.46665 88.36476 154.41344 87.05835 155.36023 85.69254 156.30687 84.27985 157.25366 82.83382 158.2003 81.36783 159.1471 79.89604 160.09389 78.43127 161.04055 76.98813 161.98734 75.57892 162.93398 74.21817 163.88076 72.91753 164.82755 71.69014 165.7742 70.5468 166.72101 69.49846 167.66764 68.55458 168.61443 67.7246 169.56122 67.01537 170.50788 66.43494 171.45465 65.98698 172.40129 65.67757 173.3481 65.50795 174.2949 65.48055 175.24153 65.59534 176.18833 65.85161 177.13498 66.24628 178.08177 66.7763 179.02855 67.43681 179.97519 68.2205 180.922 69.12146 181.86865 70.1302 182.81543 71.23866 183.76222 72.435 184.70886 73.70898 185.65566 75.04784 186.6023 76.43982 187.5491 77.8714 188.4959 79.32948 189.44254 80.80019 190.38932 82.27013 189.76058 81.30344"/>
<path transform="matrix(-.5452864,.8382903,.8382652,.54530277,19.707707,90.86503)" d="M2.8892 0-1.73352 2.31136 0 0-1.73352-2.31136" fill="#ff0000"/>
<path transform="matrix(.5452864,-.8382903,-.8382652,-.54530277,204.96231,89.658229)" d="M2.8892 0-1.73352 2.31136 0 0-1.73352-2.31136" fill="#ff0000"/>
<use data-text="y" xlink:href="#font_5_3" transform="matrix(9.962899,0,0,-9.963197,173.47177,79.47505)" fill="#ff0000"/>
<use data-text="=" xlink:href="#font_4_7" transform="matrix(9.962899,0,0,-9.963197,181.48203,79.47505)" fill="#ff0000"/>
<use data-text="s" xlink:href="#font_4_11" transform="matrix(9.962899,0,0,-9.963197,191.98293,79.47505)" fill="#ff0000"/>
<use data-text="i" xlink:href="#font_4_9" transform="matrix(9.962899,0,0,-9.963197,195.9083,79.47505)" fill="#ff0000"/>
<use data-text="n" xlink:href="#font_4_10" transform="matrix(9.962899,0,0,-9.963197,198.66803,79.47505)" fill="#ff0000"/>
<use data-text="(" xlink:href="#font_4_1" transform="matrix(9.962899,0,0,-9.963197,204.19744,79.47505)" fill="#ff0000"/>
<use data-text="x" xlink:href="#font_5_2" transform="matrix(9.962899,0,0,-9.963197,208.10482,79.47505)" fill="#ff0000"/>
<use data-text=")" xlink:href="#font_4_2" transform="matrix(9.962899,0,0,-9.963197,213.799,79.47505)" fill="#ff0000"/>
<path transform="matrix(1.00003,0,0,-1.00006,15.196022,170.96654)" stroke-width=".99628" stroke-linecap="butt" stroke-miterlimit="10" stroke-linejoin="miter" fill="none" stroke="#0000ff" d="M6.93094 154.45915 6.98586 152.47617 7.1207 148.1991 7.25552 144.41536 7.39037 141.04427 7.52519 138.02033 7.66003 135.29329 7.79488 132.82663 7.92972 130.58075 8.06453 128.52977 8.19937 126.65083 8.33421 124.91656 8.46906 123.32085 8.6039 121.84541 8.73874 120.47353 8.87357 119.19757 9.0084 118.00536 9.14323 116.89534 9.27808 115.85388 9.41292 114.87787 9.54776 113.95972 9.68259 113.09639 9.81743 112.28026 9.95227 111.51437 10.08711 110.78656 10.22194 110.09833 10.35678 109.44815 10.49161 108.82999 10.62645 108.24529 10.76129 107.68495 10.89613 107.15355 11.03098 106.64957 11.16582 106.16843 11.30063 105.70859 11.43547 105.26854 11.57031 104.85133 11.70515 104.44937 11.84 104.06718 11.97484 103.70023 12.10966 103.35004 12.2445 103.01048 12.37933 102.68921 12.51418 102.38164 12.64902 102.0832 12.78384 101.79999 12.91869 101.52592 13.05353 101.26402 13.18837 101.01128 13.3232 100.7707 13.45802 100.53621 13.59285 100.31238 13.72769 100.09769 13.86253 99.89061 13.99738 99.69267 14.13222 99.4993 14.26706 99.31659 14.40189 99.13995 14.53671 98.97095 14.67155 98.80498 14.8064 98.64662 14.94124 98.4959 15.07608 98.35277 15.2109 98.21268 15.34575 98.07869 15.48059 97.94774 15.61542 97.8244 15.75026 97.70717 15.8851 97.59297 16.01993 97.48029 16.15477 97.37675 16.28961 97.27625 16.42445 97.18187 16.5593 97.08897 16.69412 97.00066 16.82895 96.9154 16.96379 96.83774 17.09863 96.76009 17.23347 96.68852 17.36832 96.61847 17.50316 96.55606 17.63799 96.49362 17.77283 96.43576 17.90765 96.37943 18.0425 96.32918 18.17734 96.28046 18.31216 96.2363 18.447 96.19368 18.58185 96.15408 18.71669 96.11906 18.85153 96.08708 18.98636 96.05663 19.12119 96.03227 19.25601 96.0079 19.39085 95.98659 19.5257 95.97136 19.66054 95.95615 19.79538 95.94243 19.93022 95.93636 20.06503 95.92873 20.19987 95.92569H20.33472L20.46956 95.92873 20.60439 95.93636 20.73924 95.94243 20.87407 95.95615 21.00891 95.97136 21.14374 95.98659 21.27856 96.0079 21.41342 96.03227 21.54825 96.05663 21.68309 96.08708 21.81795 96.11906 21.95277 96.15408 22.08762 96.19368 22.22243 96.2363 22.35727 96.28046 22.49213 96.32918 22.62695 96.37943 22.7618 96.43576 22.89662 96.49362 23.03148 96.55606 23.16632 96.61847 23.30113 96.68852 23.43597 96.76009 23.5708 96.83774 23.70566 96.9154 23.8405 97.00066 23.97533 97.08897 24.11018 97.18187 24.24501 97.27625 24.37984 97.37675 24.51468 97.48029 24.6495 97.59297 24.78436 97.70717 24.91917 97.8244 25.05402 97.94774 25.18886 98.07869 25.32368 98.21268 25.45853 98.35277 25.59335 98.49893 25.7282 98.64662 25.86305 98.80498 25.99786 98.97095 26.13272 99.13995 26.26755 99.31659 26.40239 99.4993 26.53723 99.69267 26.67206 99.89061 26.8069 100.09921 26.94173 100.31238 27.07658 100.53925 27.21143 100.7707 27.34625 101.01128 27.4811 101.26555 27.61592 101.52592 27.75076 101.79999 27.8856 102.08624 28.02043 102.38164 28.15527 102.68921 28.2901 103.01352 28.42496 103.35004 28.5598 103.70023 28.69463 104.06718 28.82945 104.44937 28.96428 104.85133 29.09914 105.27159 29.23398 105.70859 29.3688 106.16843 29.50366 106.64957 29.63849 107.15509 29.77333 107.68495 29.90816 108.24529 30.04298 108.82999 30.17784 109.44815 30.31267 110.10136 30.44751 110.7896 30.58237 111.51437 30.71718 112.2833 30.85202 113.09335 30.98683 113.95972 31.12167 114.87787 31.25653 115.85692 31.39136 116.89687 31.5262 118.00536 31.66103 119.19757 31.79587 120.47505 31.93073 121.84846 32.06554 123.3239 32.20038 124.9196 32.3352 126.65083 32.47006 128.52977 32.6049 130.58075 32.73973 132.82663 32.87457 135.29785 33.0094 138.02642 33.14424 141.04427 33.27908 144.41992 33.41391 148.20368 33.54877 152.47617 33.60378 154.46372"/>
<path transform="matrix(-.02766083,-.99961999,-.99959006,.027661657,22.12718,16.498139)" d="M2.8892 0-1.73352 2.31136 0 0-1.73352-2.31136" fill="#0000ff"/>
<path transform="matrix(.02763083,-.99961999,-.99959006,-.027631656,48.800794,16.493577)" d="M2.8892 0-1.73352 2.31136 0 0-1.73352-2.31136" fill="#0000ff"/>
<path transform="matrix(1.00003,0,0,-1.00006,15.196022,170.96654)" stroke-width=".99628" stroke-linecap="butt" stroke-miterlimit="10" stroke-linejoin="miter" fill="none" stroke="#0000ff" d="M37.67812 6.93506 37.7332 8.92717 37.86803 13.19968 38.00287 16.9834 38.13771 20.35449 38.27254 23.37996 38.40738 26.1009 38.54222 28.57518 38.67705 30.81802 38.81189 32.86899 38.94673 34.74792 39.08157 36.47916 39.21642 38.07487 39.35126 39.55334 39.48607 40.92372 39.62091 42.2012 39.75575 43.39342 39.8906 44.50342 40.02544 45.54489 40.16026 46.5209 40.2951 47.44058 40.42995 48.30544 40.56477 49.11852 40.69962 49.88438 40.83446 50.61221 40.96928 51.30043 41.10413 51.9506 41.23897 52.5688 41.37381 53.15349 41.50865 53.7138 41.64348 54.2437 41.7783 54.7492 41.91313 55.23035 42.04797 55.69019 42.18282 56.13023 42.31766 56.54742 42.4525 56.9494 42.58733 57.33157 42.72215 57.69853 42.857 58.04874 42.99184 58.38524 43.12668 58.70956 43.26152 59.01714 43.39635 59.31555 43.53119 59.59877 43.66603 59.87285 43.80086 60.13475 43.9357 60.3875 44.07054 60.63112 44.20537 60.86256 44.34021 61.0864 44.47505 61.30107 44.6099 61.50815 44.74474 61.7061 44.87956 61.89948 45.01439 62.08218 45.14923 62.25882 45.28407 62.42783 45.41891 62.5938 45.55376 62.75215 45.6886 62.90288 45.82343 63.046 45.95825 63.18608 46.0931 63.32008 46.22794 63.45103 46.36278 63.57436 46.4976 63.6916 46.63245 63.8058 46.76729 63.91847 46.90213 64.02202 47.03696 64.12251 47.1718 64.21692 47.30664 64.30978 47.44147 64.39812 47.5763 64.48338 47.71114 64.56104 47.84598 64.63869 47.98082 64.71024 48.11565 64.78029 48.25047 64.84422 48.38531 64.90514 48.52016 64.963 48.655 65.01933 48.78984 65.06958 48.92468 65.1183 49.05951 65.16246 49.19435 65.2051 49.32918 65.24469 49.46402 65.27971 49.59886 65.31169 49.7337 65.34213 49.86853 65.36649 50.00337 65.39087 50.13821 65.41217 50.27306 65.42741 50.40788 65.44263 50.54271 65.45633 50.67755 65.46242 50.8124 65.47003 50.94724 65.47308H51.08208L51.21692 65.47003 51.35175 65.46242 51.48657 65.45633 51.6214 65.44263 51.75626 65.42741 51.8911 65.41217 52.02592 65.39087 52.16078 65.36649 52.29561 65.34213 52.43045 65.31169 52.56528 65.27971 52.7001 65.24469 52.83496 65.2051 52.96979 65.16246 53.10463 65.1183 53.23949 65.06958 53.3743 65.01933 53.50914 64.963 53.64395 64.90514 53.7788 64.84271 53.91365 64.78029 54.04848 64.71024 54.18332 64.63869 54.31815 64.56104 54.453 64.48338 54.58784 64.39812 54.72266 64.30978 54.8575 64.21692 54.99232 64.12251 55.12718 64.02202 55.26202 63.91847 55.39685 63.8058 55.5317 63.6916 55.66652 63.57436 55.80136 63.45103 55.9362 63.32008 56.07103 63.18608 56.20589 63.046 56.34071 62.90288 56.47556 62.75215 56.6104 62.5938 56.74522 62.42783 56.88007 62.25882 57.0149 62.08218 57.14973 61.89948 57.28459 61.7061 57.41942 61.50815 57.55426 61.30107 57.68909 61.0864 57.82393 60.86256 57.95877 60.62807 58.0936 60.3875 58.22844 60.13475 58.36327 59.87285 58.49811 59.59877 58.63297 59.31555 58.76779 59.01714 58.90263 58.70956 59.03746 58.38829 59.1723 58.04874 59.30713 57.69853 59.44196 57.33157 59.5768 56.9494 59.71162 56.54742 59.84648 56.13023 59.98132 55.69019 60.11615 55.23035 60.25099 54.7492 60.3858 54.2437 60.52066 53.7138 60.6555 53.15349 60.79033 52.5688 60.92519 51.9506 61.06001 51.30043 61.19485 50.61221 61.32968 49.88438 61.46451 49.11852 61.59937 48.30238 61.73419 47.43904 61.86903 46.5209 62.00388 45.54185 62.13872 44.50189 62.27356 43.39342 62.40837 42.2012 62.54321 40.92372 62.67807 39.55031 62.8129 38.07487 62.94774 36.47916 63.08257 34.74641 63.2174 32.86444 63.35226 30.81802 63.48708 28.57214 63.62192 26.1009 63.75674 23.37845 63.8916 20.35449 64.02644 16.97884 64.16127 13.19968 64.29611 8.92259 64.3511 6.93506"/>
<path transform="matrix(-.027600829,.99961999,.99959006,.027601654,52.875276,164.03105)" d="M2.8892 0-1.73352 2.31136 0 0-1.73352-2.31136" fill="#0000ff"/>
<path transform="matrix(.02763083,.99961999,.99959006,-.027631656,79.54904,164.03105)" d="M2.8892 0-1.73352 2.31136 0 0-1.73352-2.31136" fill="#0000ff"/>
<path transform="matrix(1.00003,0,0,-1.00006,15.196022,170.96654)" stroke-width=".99628" stroke-linecap="butt" stroke-miterlimit="10" stroke-linejoin="miter" fill="none" stroke="#0000ff" d="M68.42572 154.45915 68.48056 152.47617 68.61539 148.1991 68.75021 144.41536 68.88506 141.04427 69.0199 138.02033 69.15474 135.29329 69.28958 132.82663 69.42442 130.58075 69.55925 128.52977 69.69408 126.65083 69.82892 124.91656 69.96376 123.3239 70.0986 121.84541 70.23343 120.47505 70.36826 119.19757 70.5031 118.00536 70.63794 116.8923 70.77277 115.85388 70.90761 114.87787 71.04243 113.95819 71.17728 113.09335 71.31212 112.28026 71.44696 111.51437 71.5818 110.78656 71.71664 110.09833 71.85147 109.44815 71.9863 108.82999 72.12114 108.24376 72.25598 107.68495 72.39082 107.15355 72.52565 106.64957 72.66049 106.16843 72.79533 105.70859 72.93018 105.26854 73.065 104.85133 73.19984 104.44937 73.33467 104.06718 73.46951 103.70023 73.60435 103.35004 73.7392 103.01048 73.87404 102.68921 74.00887 102.38164 74.14369 102.0832 74.27853 101.79999 74.41338 101.52592 74.54822 101.26402 74.68306 101.01128 74.81789 100.76764 74.95273 100.53621 75.08757 100.31238 75.2224 100.09769 75.35724 99.89061 75.49207 99.69267 75.6269 99.4993 75.76175 99.31659 75.89659 99.13995 76.03143 98.97095 76.16626 98.80498 76.30107 98.64662 76.43591 98.4959 76.57076 98.35277 76.7056 98.21268 76.84044 98.07869 76.97527 97.94774 77.1101 97.8244 77.24495 97.70717 77.37978 97.59297 77.51462 97.48029 77.64946 97.37675 77.78429 97.27625 77.91913 97.18187 78.05397 97.08897 78.18881 97.00066 78.32365 96.9154 78.45847 96.83774 78.5933 96.76009 78.72815 96.68852 78.86299 96.61847 78.99783 96.55606 79.13268 96.49362 79.2675 96.43576 79.40234 96.37943 79.53719 96.32918 79.67201 96.28046 79.80685 96.2363 79.9417 96.19368 80.07652 96.15408 80.21136 96.11906 80.3462 96.08708 80.48105 96.05663 80.61589 96.03227 80.7507 96.0079 80.88554 95.98659 81.02039 95.97136 81.15523 95.95615 81.29007 95.94243 81.42491 95.93636 81.55974 95.92873 81.69458 95.92569H81.8294L81.96423 95.92873 82.09906 95.93636 82.23392 95.94243 82.36874 95.95615 82.50359 95.97136 82.63843 95.98659 82.77325 96.0079 82.9081 96.03227 83.04292 96.05663 83.17776 96.08708 83.31262 96.11906 83.44743 96.15408 83.58229 96.19368 83.71712 96.2363 83.85196 96.28046 83.9868 96.32918 84.12163 96.37943 84.25647 96.43576 84.3913 96.49362 84.52614 96.55606 84.661 96.61847 84.79582 96.68852 84.93066 96.76009 85.06548 96.83774 85.20032 96.9154 85.33517 97.00066 85.47 97.08897 85.60484 97.18187 85.73967 97.27625 85.87453 97.37675 86.00937 97.48029 86.14418 97.59297 86.27902 97.70717 86.41385 97.8244 86.5487 97.94774 86.68355 98.07869 86.81837 98.21268 86.95322 98.35277 87.08804 98.4959 87.22289 98.64662 87.35773 98.80498 87.49255 98.97095 87.6274 99.13995 87.76222 99.31659 87.89706 99.4993 88.0319 99.69267 88.16673 99.89061 88.30157 100.09769 88.4364 100.31238 88.57124 100.53621 88.70609 100.76764 88.84091 101.01128 88.97577 101.26402 89.1106 101.52592 89.24544 101.79999 89.38028 102.08624 89.51509 102.38164 89.64995 102.68921 89.78477 103.01352 89.91962 103.35004 90.05447 103.70023 90.18929 104.06718 90.32414 104.44937 90.45897 104.85133 90.5938 105.26854 90.72865 105.70859 90.86348 106.16843 90.99832 106.64957 91.13315 107.15509 91.26799 107.68495 91.40285 108.24529 91.53767 108.82999 91.6725 109.44815 91.80733 110.10136 91.94217 110.78656 92.07703 111.51437 92.21185 112.28026 92.3467 113.09335 92.48152 113.95972 92.61638 114.87787 92.7512 115.85692 92.88603 116.89534 93.02087 118.00536 93.1557 119.19757 93.29056 120.47505 93.4254 121.84541 93.56021 123.3239 93.69505 124.9196 93.82986 126.65083 93.96472 128.52977 94.09956 130.58075 94.23439 132.82663 94.36925 135.29785 94.50407 138.02033 94.63892 141.04427 94.77376 144.41992 94.90857 148.1991 95.04343 152.47617 95.09843 154.46372"/>
<path transform="matrix(-.027700833,-.99961999,-.99959006,.027701661,83.623798,16.498139)" d="M2.8892 0-1.73352 2.31136 0 0-1.73352-2.31136" fill="#0000ff"/>
<path transform="matrix(.02763083,-.99961999,-.99959006,-.027631656,110.297298,16.493577)" d="M2.8892 0-1.73352 2.31136 0 0-1.73352-2.31136" fill="#0000ff"/>
<path transform="matrix(1.00003,0,0,-1.00006,15.196022,170.96654)" stroke-width=".99628" stroke-linecap="butt" stroke-miterlimit="10" stroke-linejoin="miter" fill="none" stroke="#0000ff" d="M99.17307 6.93962 99.22789 8.92259 99.36273 13.19968 99.49757 16.9834 99.63242 20.35756 99.76724 23.37845 99.90208 26.1009 100.03691 28.57214 100.17175 30.81802 100.3066 32.86899 100.44142 34.74792 100.57626 36.47916 100.7111 38.07793 100.84595 39.55334 100.98079 40.92523 101.11562 42.2012 101.25044 43.39342 101.38528 44.50342 101.52013 45.54489 101.65497 46.5209 101.78981 47.44058 101.92465 48.30544 102.05948 49.11852 102.1943 49.88438 102.32915 50.61221 102.46399 51.30043 102.59883 51.9506 102.73367 52.5688 102.8685 53.155 103.00334 53.7138 103.13818 54.2437 103.27301 54.7492 103.40785 55.23035 103.54268 55.69019 103.67752 56.13023 103.81236 56.54742 103.9472 56.9494 104.08205 57.33157 104.21689 57.69853 104.35173 58.04874 104.48654 58.38829 104.62137 58.70956 104.75621 59.01714 104.89105 59.31555 105.0259 59.59877 105.16074 59.87285 105.29556 60.13475 105.4304 60.3875 105.56523 60.62807 105.70007 60.86256 105.83492 61.0864 105.96974 61.30107 106.10458 61.50815 106.23943 61.7061 106.37427 61.89948 106.50911 62.08218 106.64394 62.25882 106.77876 62.42783 106.9136 62.5938 107.04845 62.75215 107.18329 62.90288 107.31813 63.046 107.45297 63.18608 107.5878 63.32008 107.72263 63.45103 107.85747 63.57436 107.99231 63.6916 108.12715 63.8058 108.262 63.91847 108.39682 64.02202 108.53166 64.12251 108.6665 64.21692 108.80133 64.30978 108.93617 64.39812 109.07101 64.48338 109.20586 64.56104 109.34068 64.63869 109.47552 64.71024 109.61037 64.78029 109.74521 64.84271 109.88004 64.90514 110.01486 64.963 110.1497 65.01933 110.28455 65.06958 110.41937 65.1183 110.55421 65.16246 110.68906 65.2051 110.82388 65.24469 110.95871 65.27971 111.09355 65.31169 111.2284 65.34213 111.36324 65.36649 111.49808 65.39087 111.6329 65.41217 111.76775 65.42741 111.90259 65.44263 112.03741 65.45633 112.17226 65.46242 112.3071 65.47003 112.44193 65.47308H112.57677L112.71162 65.47003 112.84645 65.46242 112.9813 65.45633 113.11612 65.44263 113.25095 65.42741 113.3858 65.41217 113.52063 65.39087 113.65547 65.36649 113.7903 65.34213 113.92514 65.31169 114.06 65.27971 114.19482 65.24469 114.32965 65.2051 114.46448 65.16246 114.59933 65.1183 114.73418 65.06958 114.869 65.01933 115.00385 64.963 115.13867 64.90514 115.27353 64.84271 115.40836 64.78029 115.54318 64.71024 115.67804 64.63869 115.81285 64.56104 115.94771 64.48338 116.08255 64.39812 116.21736 64.30978 116.35222 64.21692 116.48703 64.12251 116.62187 64.02202 116.75671 63.91847 116.89154 63.8058 117.0264 63.6916 117.16122 63.57436 117.29607 63.45103 117.43092 63.32008 117.56573 63.18608 117.70058 63.046 117.8354 62.90288 117.97025 62.75215 118.1051 62.5938 118.23993 62.42783 118.37477 62.25882 118.5096 62.08218 118.64442 61.89948 118.77928 61.7061 118.91411 61.50815 119.04895 61.29956 119.18378 61.0864 119.31863 60.85951 119.45348 60.62807 119.5883 60.3875 119.72313 60.13475 119.85796 59.87285 119.99281 59.59877 120.12766 59.31555 120.26248 59.01714 120.39734 58.70956 120.53217 58.38524 120.667 58.04874 120.80183 57.69853 120.93666 57.33157 121.07152 56.9494 121.20634 56.54742 121.34119 56.12717 121.47603 55.69019 121.61086 55.23035 121.74571 54.7492 121.88054 54.2437 122.01535 53.7138 122.1502 53.15349 122.28503 52.5688 122.41988 51.9506 122.5547 51.30043 122.68954 50.61221 122.8244 49.88438 122.95923 49.11852 123.09406 48.30238 123.22888 47.44058 123.36374 46.5209 123.49858 45.54489 123.6334 44.50189 123.76825 43.39342 123.90308 42.2012 124.03793 40.92372 124.17276 39.55031 124.30759 38.07487 124.44243 36.4761 124.57727 34.74792 124.71211 32.86444 124.84695 30.81802 124.98178 28.56757 125.11664 26.1009 125.25145 23.37845 125.38629 20.34995 125.52113 16.97884 125.65596 13.1951 125.79082 8.92259 125.84581 6.93506"/>
<path transform="matrix(-.027700833,.99961999,.99959006,.027701661,114.37207,164.02648)" d="M2.8892 0-1.73352 2.31136 0 0-1.73352-2.31136" fill="#0000ff"/>
<path transform="matrix(.02763083,.99961999,.99959006,-.027631656,141.04561,164.03105)" d="M2.8892 0-1.73352 2.31136 0 0-1.73352-2.31136" fill="#0000ff"/>
<path transform="matrix(1.00003,0,0,-1.00006,15.196022,170.96654)" stroke-width=".99628" stroke-linecap="butt" stroke-miterlimit="10" stroke-linejoin="miter" fill="none" stroke="#0000ff" d="M129.92017 154.46372 129.97525 152.47159 130.11009 148.1991 130.24492 144.41536 130.37975 141.04427 130.51459 138.02033 130.64943 135.29785 130.78427 132.82663 130.91912 130.58075 131.05394 128.52977 131.18878 126.65083 131.32363 124.9196 131.45845 123.32085 131.59329 121.84541 131.72814 120.47505 131.86296 119.19757 131.9978 118.00536 132.13265 116.89534 132.26749 115.85388 132.40233 114.87787 132.53716 113.95819 132.67198 113.09335 132.80683 112.28026 132.94167 111.51437 133.07649 110.78656 133.21134 110.09833 133.34616 109.44815 133.481 108.82999 133.61583 108.24376 133.75067 107.68495 133.88552 107.15509 134.02036 106.64957 134.1552 106.16843 134.29003 105.70859 134.42487 105.26854 134.55971 104.85133 134.69454 104.44937 134.82938 104.06718 134.9642 103.70023 135.09905 103.35004 135.23389 103.01048 135.36873 102.68921 135.50357 102.38164 135.63842 102.0832 135.77324 101.79999 135.90807 101.52592 136.04291 101.26402 136.17775 101.01128 136.31259 100.76764 136.44744 100.53621 136.58228 100.31238 136.7171 100.09769 136.85195 99.89061 136.98677 99.69267 137.12162 99.4993 137.25646 99.31659 137.39128 99.13995 137.52613 98.97095 137.66097 98.80498 137.7958 98.64662 137.93065 98.4959 138.06548 98.35277 138.2003 98.21268 138.33515 98.07869 138.46999 97.94774 138.60483 97.8244 138.73967 97.70717 138.8745 97.59297 139.00933 97.48029 139.14415 97.37675 139.27899 97.27625 139.41384 97.18187 139.54868 97.08897 139.68352 97.00066 139.81835 96.9154 139.95319 96.83774 140.08803 96.76009 140.22286 96.68852 140.3577 96.61847 140.49254 96.55606 140.62737 96.49362 140.7622 96.43576 140.89705 96.37943 141.03189 96.32918 141.16674 96.28046 141.30155 96.2363 141.43639 96.19368 141.57123 96.15408 141.70607 96.11906 141.84091 96.08708 141.97576 96.05663 142.1106 96.03227 142.24542 96.0079 142.38025 95.98659 142.51509 95.97136 142.64994 95.95615 142.78478 95.94243 142.9196 95.93636 143.05445 95.92873 143.18929 95.92569H143.32413L143.45896 95.92873 143.59378 95.93636 143.72864 95.94243 143.86347 95.95615 143.9983 95.97136 144.13315 95.98659 144.26799 96.0079 144.40283 96.03227 144.53766 96.05663 144.67247 96.08708 144.80733 96.11906 144.94216 96.15408 145.077 96.19368 145.21183 96.2363 145.34667 96.28046 145.48152 96.32918 145.61635 96.37943 145.75118 96.43576 145.886 96.49362 146.02086 96.55606 146.1557 96.61847 146.29053 96.68852 146.42537 96.76009 146.5602 96.83774 146.69506 96.9154 146.82988 97.00066 146.9647 97.08897 147.09957 97.18187 147.23438 97.27625 147.36923 97.37675 147.50408 97.48029 147.6389 97.59297 147.77376 97.70717 147.90857 97.8244 148.04341 97.94774 148.17826 98.07869 148.31308 98.21268 148.44794 98.35277 148.58277 98.49893 148.7176 98.64662 148.85245 98.80498 148.98726 98.97095 149.12212 99.13995 149.25695 99.31659 149.39179 99.4993 149.52664 99.69267 149.66147 99.89061 149.79631 100.09769 149.93114 100.31238 150.06597 100.53621 150.20082 100.7707 150.33565 101.01128 150.47048 101.26402 150.6053 101.52592 150.74016 101.79999 150.875 102.0832 151.00983 102.38164 151.14466 102.68921 151.27948 103.01048 151.41434 103.35004 151.54918 103.70023 151.684 104.06718 151.81885 104.44937 151.95369 104.85133 152.08853 105.26854 152.22336 105.70859 152.35819 106.16843 152.49304 106.64957 152.62787 107.15509 152.76271 107.68495 152.89756 108.24376 153.03238 108.82999 153.16724 109.44815 153.30205 110.09833 153.43689 110.78656 153.57175 111.51437 153.70658 112.28026 153.84142 113.09335 153.97624 113.95819 154.11109 114.87787 154.24594 115.85692 154.38077 116.89534 154.5156 118.00536 154.65042 119.19757 154.78528 120.47505 154.92012 121.84846 155.05495 123.3239 155.18979 124.9196 155.32462 126.65083 155.45948 128.52977 155.5943 130.58075 155.72913 132.82663 155.86397 135.29785 155.9988 138.02033 156.13365 141.04427 156.26848 144.41992 156.4033 148.1991 156.53816 152.48378 156.59307 154.46372"/>
<path transform="matrix(-.027600829,-.99961999,-.99959006,.027601654,145.12009,16.493577)" d="M2.8892 0-1.73352 2.31136 0 0-1.73352-2.31136" fill="#0000ff"/>
<path transform="matrix(.02766083,-.99961999,-.99959006,-.027661657,171.79376,16.493577)" d="M2.8892 0-1.73352 2.31136 0 0-1.73352-2.31136" fill="#0000ff"/>
<use data-text="y" xlink:href="#font_5_3" transform="matrix(9.962899,0,0,-9.963197,175.69284,16.096253)" fill="#0000ff"/>
<use data-text="=" xlink:href="#font_4_7" transform="matrix(9.962899,0,0,-9.963197,183.7031,16.096253)" fill="#0000ff"/>
<use data-text="c" xlink:href="#font_4_8" transform="matrix(9.962899,0,0,-9.963197,194.204,16.096253)" fill="#0000ff"/>
<use data-text="s" xlink:href="#font_4_11" transform="matrix(9.962899,0,0,-9.963197,198.62752,16.096253)" fill="#0000ff"/>
<use data-text="c" xlink:href="#font_4_8" transform="matrix(9.962899,0,0,-9.963197,202.5529,16.096253)" fill="#0000ff"/>
<use data-text="(" xlink:href="#font_4_1" transform="matrix(9.962899,0,0,-9.963197,206.97644,16.096253)" fill="#0000ff"/>
<use data-text="x" xlink:href="#font_5_2" transform="matrix(9.962899,0,0,-9.963197,210.87992,16.096253)" fill="#0000ff"/>
<use data-text=")" xlink:href="#font_4_2" transform="matrix(9.962899,0,0,-9.963197,216.57308,16.096253)" fill="#0000ff"/>
<path transform="matrix(1.00003,0,0,-1.00006,15.196022,170.96654)" stroke-width=".99628" stroke-linecap="butt" stroke-miterlimit="10" stroke-linejoin="miter" fill="none" stroke="#0000ff" d="M160.66768 6.93962 160.7226 8.92259 160.85744 13.19968 160.99227 16.9834 161.1271 20.35449 161.26195 23.37845 161.39679 26.1009 161.53162 28.57214 161.66646 30.81802 161.80127 32.86899 161.93611 34.74792 162.07096 36.47916 162.2058 38.07793 162.34064 39.55334 162.47548 40.92372 162.6103 42.2012 162.74515 43.39342 162.87998 44.50342 163.01482 45.54489 163.14966 46.5209 163.2845 47.44058 163.41933 48.30544 163.55417 49.11852 163.68901 49.88438 163.82386 50.61221 163.95868 51.30043 164.0935 51.9506 164.22835 52.5688 164.36319 53.155 164.49803 53.7138 164.63288 54.2437 164.76772 54.7492 164.90256 55.23035 165.03737 55.69019 165.17221 56.13023 165.30706 56.54742 165.4419 56.9494 165.57674 57.33157 165.71157 57.69853 165.8464 58.04874 165.98125 58.38829 166.11608 58.70956 166.25092 59.01714 166.38576 59.31555 166.52059 59.59877 166.65543 59.87285 166.79027 60.13475 166.92511 60.3875 167.05995 60.62807 167.19478 60.86256 167.3296 61.0864 167.46443 61.29956 167.59928 61.50815 167.73412 61.7061 167.86896 61.89948 168.0038 62.08218 168.13863 62.25882 168.27347 62.42783 168.4083 62.5938 168.54314 62.75215 168.67798 62.89984 168.81282 63.046 168.94765 63.18608 169.08249 63.32008 169.21733 63.45103 169.35218 63.57436 169.487 63.6916 169.62184 63.8058 169.75667 63.91847 169.89151 64.02202 170.02635 64.12251 170.1612 64.21692 170.29604 64.30978 170.43088 64.39812 170.56569 64.48338 170.70053 64.56104 170.83538 64.63869 170.97022 64.71024 171.10506 64.78029 171.2399 64.84271 171.37473 64.90514 171.50957 64.963 171.6444 65.01933 171.77924 65.06958 171.91408 65.1183 172.04892 65.16246 172.18375 65.2051 172.31859 65.24469 172.45343 65.27971 172.58827 65.31169 172.7231 65.34213 172.85794 65.36649 172.99277 65.39087 173.1276 65.41217 173.26244 65.42741 173.39728 65.44263 173.53212 65.45633 173.66695 65.46242 173.80178 65.47003 173.93662 65.47308H174.07146L174.2063 65.47003 174.34113 65.46242 174.47599 65.45633 174.61081 65.44263 174.74565 65.42741 174.88048 65.41217 175.01532 65.39087 175.15016 65.36649 175.28499 65.34213 175.41983 65.31169 175.55469 65.27971 175.68952 65.24469 175.82436 65.2051 175.95919 65.16246 176.09401 65.1183 176.22887 65.06958 176.3637 65.01933 176.49854 64.963 176.63336 64.90514 176.76822 64.84271 176.90306 64.78029 177.03789 64.71024 177.17272 64.63869 177.30754 64.56104 177.4424 64.48338 177.57724 64.39812 177.71207 64.30978 177.84693 64.21692 177.98174 64.12251 178.1166 64.02202 178.25142 63.91847 178.38625 63.8058 178.5211 63.6916 178.65593 63.57436 178.79077 63.45103 178.9256 63.32008 179.06043 63.18608 179.19528 63.046 179.3301 62.90288 179.46494 62.75215 179.59978 62.5938 179.7346 62.42783 179.86946 62.25882 180.00429 62.08218 180.13913 61.89948 180.27399 61.7061 180.4088 61.50815 180.54364 61.29956 180.67847 61.0864 180.81331 60.86256 180.94817 60.62807 181.083 60.3875 181.21784 60.13475 181.35266 59.87285 181.4875 59.59877 181.62235 59.31555 181.75717 59.01714 181.89202 58.70956 182.02684 58.38524 182.1617 58.04874 182.29654 57.69853 182.43137 57.33157 182.5662 56.9494 182.70104 56.54742 182.83588 56.13023 182.97072 55.69019 183.10555 55.23035 183.2404 54.7492 183.37523 54.2437 183.51007 53.7138 183.6449 53.155 183.77973 52.5688 183.91458 51.9506 184.04941 51.30043 184.18425 50.61221 184.3191 49.88438 184.45394 49.11548 184.58878 48.30238 184.72359 47.43904 184.85842 46.5209 184.99327 45.54489 185.1281 44.50342 185.26294 43.39038 185.39777 42.2012 185.53263 40.92372 185.66747 39.55031 185.80229 38.07793 185.93712 36.47916 186.07195 34.74792 186.2068 32.86899 186.34165 30.81802 186.47647 28.57214 186.61132 26.1009 186.74614 23.37236 186.881 20.34995 187.01583 16.97884 187.15065 13.19968 187.2855 8.92259 187.34052 6.93506"/>
<path transform="matrix(-.02766083,.99961999,.99959006,.027661657,175.86853,164.02648)" d="M2.8892 0-1.73352 2.31136 0 0-1.73352-2.31136" fill="#0000ff"/>
<path transform="matrix(.02763083,.99961999,.99959006,-.027631656,202.54215,164.03105)" d="M2.8892 0-1.73352 2.31136 0 0-1.73352-2.31136" fill="#0000ff"/>
<path transform="matrix(1.00003,0,0,-1.00006,15.196022,170.96654)" stroke-width=".3985" stroke-linecap="butt" stroke-dasharray="2.98883,2.98883" stroke-miterlimit="10" stroke-linejoin="miter" fill="none" stroke="#ff0000" d="M4.89359 1.52263V159.87616"/>
<use data-text="x" xlink:href="#font_5_2" transform="matrix(9.962899,0,0,-9.963197,1.2166061,179.38504)" fill="#ff0000"/>
<use data-text="=" xlink:href="#font_4_7" transform="matrix(9.962899,0,0,-9.963197,9.678856,179.38504)" fill="#ff0000"/>
<use data-text="&#x2212;" xlink:href="#font_1_1" transform="matrix(9.962899,0,0,-9.963197,20.195176,179.38504)" fill="#ff0000"/>
<use data-text="2" xlink:href="#font_4_4" transform="matrix(9.962899,0,0,-9.963197,27.944397,179.38504)" fill="#ff0000"/>
<use data-text="&#x03c0;" xlink:href="#font_5_1" transform="matrix(9.962899,0,0,-9.963197,32.925554,179.38504)" fill="#ff0000"/>
<path transform="matrix(1.00003,0,0,-1.00006,15.196022,170.96654)" stroke-width=".3985" stroke-linecap="butt" stroke-dasharray="2.98883,2.98883" stroke-miterlimit="10" stroke-linejoin="miter" fill="none" stroke="#ff0000" d="M35.64093 1.52263V159.87616"/>
<use data-text="x" xlink:href="#font_5_2" transform="matrix(9.962899,0,0,-9.963197,34.455606,6.7306978)" fill="#ff0000"/>
<use data-text="=" xlink:href="#font_4_7" transform="matrix(9.962899,0,0,-9.963197,42.917856,6.7306978)" fill="#ff0000"/>
<use data-text="&#x2212;" xlink:href="#font_1_1" transform="matrix(9.962899,0,0,-9.963197,53.434175,6.7306978)" fill="#ff0000"/>
<use data-text="&#x03c0;" xlink:href="#font_5_1" transform="matrix(9.962899,0,0,-9.963197,61.183397,6.7306978)" fill="#ff0000"/>
<path transform="matrix(1.00003,0,0,-1.00006,15.196022,170.96654)" stroke-width=".3985" stroke-linecap="butt" stroke-dasharray="2.98883,2.98883" stroke-miterlimit="10" stroke-linejoin="miter" fill="none" stroke="#ff0000" d="M66.38828 1.52263V159.87616"/>
<use data-text="x" xlink:href="#font_5_2" transform="matrix(9.962899,0,0,-9.963197,69.60666,179.38504)" fill="#ff0000"/>
<use data-text="=" xlink:href="#font_4_7" transform="matrix(9.962899,0,0,-9.963197,78.06891,179.38504)" fill="#ff0000"/>
<use data-text="0" xlink:href="#font_4_3" transform="matrix(9.962899,0,0,-9.963197,88.56981,179.38504)" fill="#ff0000"/>
<path transform="matrix(1.00003,0,0,-1.00006,15.196022,170.96654)" stroke-width=".3985" stroke-linecap="butt" stroke-dasharray="2.98883,2.98883" stroke-miterlimit="10" stroke-linejoin="miter" fill="none" stroke="#ff0000" d="M97.13562 1.52263V159.87616"/>
<use data-text="x" xlink:href="#font_5_2" transform="matrix(9.962899,0,0,-9.963197,99.82756,7.5607454)" fill="#ff0000"/>
<use data-text="=" xlink:href="#font_4_7" transform="matrix(9.962899,0,0,-9.963197,108.28981,7.5607454)" fill="#ff0000"/>
<use data-text="&#x03c0;" xlink:href="#font_5_1" transform="matrix(9.962899,0,0,-9.963197,118.80613,7.5607454)" fill="#ff0000"/>
<path transform="matrix(1.00003,0,0,-1.00006,15.196022,170.96654)" stroke-width=".3985" stroke-linecap="butt" stroke-dasharray="2.98883,2.98883" stroke-miterlimit="10" stroke-linejoin="miter" fill="none" stroke="#ff0000" d="M127.88297 1.52263V159.87616"/>
<use data-text="x" xlink:href="#font_5_2" transform="matrix(9.962899,0,0,-9.963197,128.08441,179.38504)" fill="#ff0000"/>
<use data-text="=" xlink:href="#font_4_7" transform="matrix(9.962899,0,0,-9.963197,136.54666,179.38504)" fill="#ff0000"/>
<use data-text="2" xlink:href="#font_4_4" transform="matrix(9.962899,0,0,-9.963197,147.04758,179.38504)" fill="#ff0000"/>
<use data-text="&#x03c0;" xlink:href="#font_5_1" transform="matrix(9.962899,0,0,-9.963197,152.04413,179.38504)" fill="#ff0000"/>
<path transform="matrix(1.00003,0,0,-1.00006,15.196022,170.96654)" stroke-width=".3985" stroke-linecap="butt" stroke-dasharray="2.98883,2.98883" stroke-miterlimit="10" stroke-linejoin="miter" fill="none" stroke="#ff0000" d="M158.63033 1.52263V159.87616"/>
<use data-text="x" xlink:href="#font_5_2" transform="matrix(9.962899,0,0,-9.963197,158.83335,7.5607454)" fill="#ff0000"/>
<use data-text="=" xlink:href="#font_4_7" transform="matrix(9.962899,0,0,-9.963197,167.2956,7.5607454)" fill="#ff0000"/>
<use data-text="3" xlink:href="#font_4_5" transform="matrix(9.962899,0,0,-9.963197,177.7965,7.5607454)" fill="#ff0000"/>
<use data-text="&#x03c0;" xlink:href="#font_5_1" transform="matrix(9.962899,0,0,-9.963197,182.79305,7.5607454)" fill="#ff0000"/>
<path transform="matrix(1.00003,0,0,-1.00006,15.196022,170.96654)" stroke-width=".3985" stroke-linecap="butt" stroke-dasharray="2.98883,2.98883" stroke-miterlimit="10" stroke-linejoin="miter" fill="none" stroke="#ff0000" d="M189.37767 1.52263V159.87616"/>
<use data-text="x" xlink:href="#font_5_2" transform="matrix(9.962899,0,0,-9.963197,189.58127,179.38504)" fill="#ff0000"/>
<use data-text="=" xlink:href="#font_4_7" transform="matrix(9.962899,0,0,-9.963197,198.04352,179.38504)" fill="#ff0000"/>
<use data-text="4" xlink:href="#font_4_6" transform="matrix(9.962899,0,0,-9.963197,208.54442,179.38504)" fill="#ff0000"/>
<use data-text="&#x03c0;" xlink:href="#font_5_1" transform="matrix(9.962899,0,0,-9.963197,213.54097,179.38504)" fill="#ff0000"/>
<use data-text="x" xlink:href="#font_5_2" transform="matrix(9.962899,0,0,-9.963197,200.25858,86.742488)"/>
<use data-text="y" xlink:href="#font_5_3" transform="matrix(9.962899,0,0,-9.963197,85.10612,17.368317)"/>
</svg>
