<svg xmlns="http://www.w3.org/2000/svg" xmlns:xlink="http://www.w3.org/1999/xlink" xmlns:inkscape="http://www.inkscape.org/namespaces/inkscape" version="1.1" width="200" height="164" viewBox="0 0 200 164">
<defs>
<path id="font_1_1" d="M.6589966 .23046875C.6759949 .23046875 .69400027 .23046875 .69400027 .25045777 .69400027 .27046205 .6759949 .27046205 .6589966 .27046205H.117996219C.100997928 .27046205 .08299255 .27046205 .08299255 .25045777 .08299255 .23046875 .100997928 .23046875 .117996219 .23046875H.6589966Z"/>
<path id="font_2_4" d="M.1269989 .07699585 .23298645 .18003845C.3889923 .31811524 .44898988 .3721466 .44898988 .47216798 .44898988 .5860901 .35899354 .6660156 .23699951 .6660156 .12399292 .6660156 .049987794 .57411196 .049987794 .48516847 .049987794 .4291687 .099990848 .4291687 .102996829 .4291687 .11999512 .4291687 .15499878 .44117738 .15499878 .48217774 .15499878 .5081787 .13699341 .5341797 .101989749 .5341797 .09399414 .5341797 .09199524 .5341797 .08898926 .5331726 .11199951 .59806826 .1659851 .63500979 .22399903 .63500979 .31498719 .63500979 .35798646 .5541382 .35798646 .47216798 .35798646 .39215089 .30799867 .31311036 .25299073 .25108338L.06098938 .036987306C.049987794 .025985718 .049987794 .023986817 .049987794 0H.42099L.44898988 .17404175H.42399598C.4189911 .14402771 .4119873 .1000061 .4019928 .084991458 .394989 .07699585 .32899476 .07699585 .30699159 .07699585H.1269989Z"/>
<path id="font_3_1" d="M.2649994 .37265016H.37799073C.34498597 .22489929 .33599855 .18196106 .33599855 .11508179 .33599855 .100097659 .33599855 .073150638 .34399415 .03919983 .35398866-.0047454836 .36499024-.0107421879 .37998963-.0107421879 .3999939-.0107421879 .42099 .007247925 .42099 .02722168 .42099 .033218385 .42099 .035202028 .4149933 .049179079 .38598634 .12106323 .38598634 .18595886 .38598634 .21391297 .38598634 .26683045 .3929901 .32073976 .4039917 .37265016H.5179901C.5309906 .37265016 .5669861 .37265016 .5669861 .406662 .5669861 .43066407 .54599 .43066407 .5269928 .43066407H.19198609C.16999817 .43066407 .13198853 .43066407 .08799744 .38365174 .052993776 .34469605 .026992798 .29878236 .026992798 .29379273 .026992798 .29278565 .026992798 .28379823 .038986207 .28379823 .04699707 .28379823 .04899597 .28779603 .054992677 .29577638 .10398865 .37265016 .1619873 .37265016 .18199158 .37265016H.23899842C.20698548 .25186158 .15299988 .13105774 .11099243 .04020691 .102996829 .025222779 .102996829 .023223877 .102996829 .016235352 .102996829-.002746582 .11898804-.0107421879 .13198853-.0107421879 .1619873-.0107421879 .16999817 .017242432 .18199158 .05418396 .19599915 .100097659 .19599915 .10209656 .20899964 .15202332L.2649994 .37265016Z"/>
<path id="font_2_5" d="M.2899933 .35191346C.37199403 .37893678 .42999269 .4490509 .42999269 .52809146 .42999269 .6100464 .34199525 .6660156 .24598694 .6660156 .14498902 .6660156 .068984989 .60606387 .068984989 .53009036 .068984989 .49710084 .09098816 .47808839 .11999512 .47808839 .15098572 .47808839 .17098999 .50009158 .17098999 .5290985 .17098999 .57910159 .12399292 .57910159 .10899353 .57910159 .13999939 .62802127 .20599365 .64100649 .24198914 .64100649 .2829895 .64100649 .33799745 .6190338 .33799745 .5290985 .33799745 .51708987 .33599855 .45906068 .30999757 .4149933 .27999879 .36691285 .24598694 .36390687 .22099304 .36291505 .21299744 .36190797 .18899536 .35990907 .18199158 .35990907 .17399597 .35890199 .16699219 .35791017 .16699219 .3479004 .16699219 .33691407 .17399597 .33691407 .19099427 .33691407H.23498535C.31698609 .33691407 .35398866 .2686615 .35398866 .17037964 .35398866 .034469606 .2849884 .0055389406 .24099732 .0055389406 .19799805 .0055389406 .12298584 .022491456 .08799744 .08137512 .12298584 .07637024 .1539917 .09837341 .1539917 .1363678 .1539917 .17237854 .1269989 .19238281 .09799194 .19238281 .07398987 .19238281 .041992189 .17837525 .041992189 .1343689 .041992189 .043441774 .1349945-.022460938 .24398804-.022460938 .3659973-.022460938 .45700074 .06838989 .45700074 .17037964 .45700074 .252594 .3939972 .33088685 .2899933 .35191346Z"/>
<path id="font_2_7" d="M.44898988 .20022583C.44898988 .3193512 .36698915 .41944886 .25898744 .41944886 .21099854 .41944886 .16799927 .40345765 .13198853 .36842347V.5637665C.1519928 .5577698 .18499756 .55078127 .21699524 .55078127 .33999635 .55078127 .4099884 .6417694 .4099884 .6547699 .4099884 .6607666 .40699769 .6657715 .3999939 .6657715 .39898683 .6657715 .39698792 .6657715 .3919983 .66278079 .37199403 .6537781 .32299806 .6337738 .2559967 .6337738 .21598816 .6337738 .16999817 .6407776 .12298584 .6617737 .114990238 .66477969 .11299133 .66477969 .11099243 .66477969 .100997928 .66477969 .100997928 .6567688 .100997928 .6407776V.34439088C.100997928 .32637025 .100997928 .31835938 .114990238 .31835938 .12199402 .31835938 .12399292 .32136537 .12799073 .32736207 .13899231 .3433838 .17599488 .39746095 .25698854 .39746095 .30899049 .39746095 .33399964 .35139466 .34199525 .33337403 .35798646 .29632569 .3600006 .25727845 .3600006 .20722962 .3600006 .17222595 .3600006 .11222839 .33599855 .07035828 .31199647 .031463624 .2749939 .0055389406 .22898865 .0055389406 .1559906 .0055389406 .09899902 .058380128 .08198547 .11723328 .084991458 .1162262 .08799744 .115234378 .09899902 .115234378 .13198853 .115234378 .14898682 .14022827 .14898682 .16423035 .14898682 .18823242 .13198853 .21322632 .09899902 .21322632 .084991458 .21322632 .049987794 .20622254 .049987794 .16023255 .049987794 .07434082 .11898804-.022460938 .23098755-.022460938 .34700013-.022460938 .44898988 .073349 .44898988 .20022583Z"/>
<path id="font_2_6" d="M.2939911 .16503906V.07800293C.2939911 .041992189 .2919922 .0309906 .21798706 .0309906H.19699097V0C.23799134 .0029907227 .2899933 .0029907227 .33198548 .0029907227 .37399293 .0029907227 .4269867 .0029907227 .46798707 0V.0309906H.44699098C.37298585 .0309906 .37098695 .041992189 .37098695 .07800293V.16503906H.47099305V.19602967H.37098695V.65075686C.37098695 .67074587 .37098695 .6767578 .35499574 .6767578 .34599305 .6767578 .34298707 .6767578 .33499146 .66474917L.027999878 .19602967V.16503906H.2939911M.2999878 .19602967H.055999757L.2999878 .5688019V.19602967Z"/>
<path id="font_2_3" d="M.2939911 .64004519C.2939911 .66400149 .2939911 .6660156 .2709961 .6660156 .20899964 .60227969 .12098694 .60227969 .08898926 .60227969V.57128909C.10899353 .57128909 .16799927 .57128909 .21998596 .5972748V.07902527C.21998596 .042999269 .21699524 .0309906 .1269989 .0309906H.09498596V0C.12998963 .0029907227 .21699524 .0029907227 .25698854 .0029907227 .29699708 .0029907227 .38398744 .0029907227 .4189911 0V.0309906H.3869934C.29699708 .0309906 .2939911 .041992189 .2939911 .07902527V.64004519Z"/>
<path id="font_3_3" d="M.48599244 .38136292C.48999024 .39537049 .48999024 .39736939 .48999024 .40437318 .48999024 .42237855 .47599793 .43138124 .46099855 .43138124 .45098878 .43138124 .43499757 .42536927 .42599488 .41036988 .42399598 .405365 .41600038 .37435914 .4119873 .35635377 .40499879 .33035279 .397995 .30334474 .3919983 .27633668L.34700013 .09628296C.34298707 .08126831 .2999878 .011245728 .23399353 .011245728 .18299866 .011245728 .17199707 .055267335 .17199707 .0922699 .17199707 .1382904 .18899536 .20030213 .22299195 .28833009 .23899842 .3293457 .24299622 .3403473 .24299622 .36035157 .24299622 .405365 .21099854 .4423828 .16099549 .4423828 .06599426 .4423828 .0289917 .29733277 .0289917 .28833009 .0289917 .27833558 .038986207 .27833558 .040985109 .27833558 .050994874 .27833558 .051986696 .28033448 .056991579 .29634095 .083999637 .3903656 .12399292 .42037965 .1579895 .42037965 .1659851 .42037965 .18299866 .42037965 .18299866 .3883667 .18299866 .36335755 .17298889 .3373413 .1659851 .31834413 .12599182 .21231079 .10798645 .1552887 .10798645 .10827637 .10798645 .019256592 .17098999-.0107421879 .22999573-.0107421879 .2689972-.0107421879 .30299378 .0062561037 .33099366 .03425598 .31799317-.017745972 .30599977-.06674194 .2659912-.11973572 .23999024-.15385437 .20199585-.18309021 .1559906-.18309021 .14199829-.18309021 .09700012-.18005371 .07998657-.14074707 .09599304-.14074707 .10899353-.14074707 .12298584-.1287384 .1329956-.11973572 .14299011-.10673523 .14299011-.08773804 .14299011-.056747438 .115997318-.052734376 .10598755-.052734376 .08299255-.052734376 .049987794-.068740848 .049987794-.11773682 .049987794-.16796875 .09399414-.20507813 .1559906-.20507813 .25898744-.20507813 .3619995-.11373901 .3899994-.00074768069L.48599244 .38136292Z"/>
<path id="font_2_8" d="M.68699648 .32714845C.70199587 .32714845 .72099307 .32714845 .72099307 .34713746 .72099307 .36714173 .70199587 .36714173 .6879883 .36714173H.08898926C.07499695 .36714173 .055999757 .36714173 .055999757 .34713746 .055999757 .32714845 .07499695 .32714845 .08999634 .32714845H.68699648M.6879883 .13284302C.70199587 .13284302 .72099307 .13284302 .72099307 .15284729 .72099307 .17285156 .70199587 .17285156 .68699648 .17285156H.08999634C.07499695 .17285156 .055999757 .17285156 .055999757 .15284729 .055999757 .13284302 .07499695 .13284302 .08898926 .13284302H.6879883Z"/>
<path id="font_2_11" d="M.20799256 .19424439C.22999573 .19024658 .31199647 .17424011 .31199647 .102249149 .31199647 .051254274 .2769928 .011245728 .19898987 .011245728 .114990238 .011245728 .07899475 .06825256 .05999756 .15324402 .056991579 .1662445 .055999757 .17024231 .04598999 .17024231 .032989503 .17024231 .032989503 .16323853 .032989503 .14524842V.013244629C.032989503-.003753662 .032989503-.0107421879 .04399109-.0107421879 .04899597-.0107421879 .049987794-.009750366 .068984989 .009246826 .070999149 .011245728 .070999149 .013244629 .08898926 .03224182 .1329956-.009750366 .17799378-.0107421879 .19898987-.0107421879 .31399537-.0107421879 .3600006 .056243898 .3600006 .12825012 .3600006 .1812439 .32998658 .21124268 .31799317 .22323609 .2849884 .25523377 .24598694 .26324464 .20399475 .27124024 .147995 .28224183 .08099365 .2952423 .08099365 .35324098 .08099365 .38822938 .10699463 .42922975 .19299317 .42922975 .30299378 .42922975 .30799867 .3392334 .30999757 .3082428 .31098939 .2992401 .31999208 .2992401 .32199098 .2992401 .33499146 .2992401 .33499146 .304245 .33499146 .3232422V.4242401C.33499146 .4412384 .33499146 .4482422 .32398988 .4482422 .31900025 .4482422 .31698609 .4482422 .3039856 .43623353 .30099488 .43223573 .29100038 .42323304 .2869873 .42022706 .24899292 .4482422 .20799256 .4482422 .19299317 .4482422 .070999149 .4482422 .032989503 .38124085 .032989503 .3252411 .032989503 .29023744 .04899597 .26223756 .07598877 .24023438 .10798645 .21424866 .13598633 .2082367 .20799256 .19424439Z"/>
<path id="font_2_9" d="M.1769867 .4423828 .036987306 .43138124V.40037538C.101989749 .40037538 .11099243 .3943634 .11099243 .34532167V.076034549C.11099243 .0309906 .099990848 .0309906 .032989503 .0309906V0C.06498718 .0009918213 .11898804 .0029907227 .14299011 .0029907227 .17799378 .0029907227 .21299744 .0009918213 .24699402 0V.0309906C.18099976 .0309906 .1769867 .035995485 .1769867 .075042728V.4423828M.18099976 .6159363C.18099976 .64793398 .1559906 .6689453 .12799073 .6689453 .09700012 .6689453 .07499695 .64193728 .07499695 .6159363 .07499695 .5889435 .09700012 .5629425 .12799073 .5629425 .1559906 .5629425 .18099976 .5839386 .18099976 .6159363Z"/>
<path id="font_2_10" d="M.10998535 .34429933V.076034549C.10998535 .0309906 .09899902 .0309906 .03199768 .0309906V0C.066986087 .0009918213 .117996219 .0029907227 .14498902 .0029907227 .17098999 .0029907227 .22299195 .0009918213 .25698854 0V.0309906C.18998719 .0309906 .1789856 .0309906 .1789856 .076034549V.2602234C.1789856 .36431886 .25 .42037965 .31399537 .42037965 .3769989 .42037965 .3880005 .36631776 .3880005 .30926515V.076034549C.3880005 .0309906 .3769989 .0309906 .30999757 .0309906V0C.34498597 .0009918213 .3959961 .0029907227 .4229889 .0029907227 .44898988 .0029907227 .5009918 .0009918213 .5349884 0V.0309906C.48298646 .0309906 .45799256 .0309906 .45700074 .061019899V.25221253C.45700074 .3383026 .45700074 .36932374 .42599488 .405365 .4119873 .42237855 .3789978 .4423828 .32099916 .4423828 .24798584 .4423828 .20098877 .39935304 .17298889 .33729554V.4423828L.03199768 .43138124V.40037538C.101989749 .4003601 .10998535 .39335633 .10998535 .34429933Z"/>
<path id="font_2_1" d="M.33099366-.2400055C.33099366-.23701477 .33099366-.23500061 .31399537-.21800232 .18899536-.0920105 .15699768 .09700012 .15699768 .25 .15699768 .42399598 .19499207 .59799197 .31799317 .72299197 .33099366 .73498538 .33099366 .7369995 .33099366 .73999026 .33099366 .746994 .32699586 .75 .32099916 .75 .31098939 .75 .22099304 .6819916 .1619873 .5549927 .11099243 .44499208 .09899902 .33399964 .09899902 .25 .09899902 .17199707 .10998535 .050994874 .16499329-.06201172 .22499085-.18501282 .31098939-.25 .32099916-.25 .32699586-.25 .33099366-.24700928 .33099366-.2400055Z"/>
<path id="font_3_2" d="M.33399964 .30233766C.33999635 .32835389 .36299134 .42037965 .43299867 .42037965 .43798829 .42037965 .46199037 .42037965 .48298646 .40734864 .45498658 .402359 .43499757 .37734986 .43499757 .35334779 .43499757 .33735658 .44599916 .31835938 .47299195 .31835938 .49499513 .31835938 .5269928 .3363495 .5269928 .37635804 .5269928 .42837525 .46798707 .4423828 .43399049 .4423828 .37599183 .4423828 .34098817 .38935853 .32899476 .36634828 .3039856 .43237306 .25 .4423828 .22099304 .4423828 .116989139 .4423828 .05999756 .3133545 .05999756 .28834535 .05999756 .27833558 .069992069 .27833558 .07199097 .27833558 .07998657 .27833558 .08299255 .28033448 .084991458 .28933717 .11898804 .39535523 .18499756 .42037965 .21899414 .42037965 .23799134 .42037965 .272995 .4113617 .272995 .35334779 .272995 .32235719 .2559967 .25532533 .21899414 .11528015 .20298767 .053268434 .16799927 .011245728 .12399292 .011245728 .117996219 .011245728 .09498596 .011245728 .07398987 .024276734 .09899902 .029266358 .12098694 .05027771 .12098694 .07827759 .12098694 .105270389 .09899902 .11328125 .083999637 .11328125 .053985597 .11328125 .0289917 .08728027 .0289917 .055267335 .0289917 .009246826 .07899475-.0107421879 .12298584-.0107421879 .18899536-.0107421879 .22499085 .059280397 .22799683 .0652771 .23999024 .028274537 .27598573-.0107421879 .33599855-.0107421879 .43899537-.0107421879 .49598695 .118270877 .49598695 .14328003 .49598695 .1532898 .4869995 .1532898 .48399354 .1532898 .47499085 .1532898 .47299195 .14929199 .47099305 .14228821 .43798829 .03527832 .36999513 .011245728 .33799745 .011245728 .29899598 .011245728 .2829895 .043273927 .2829895 .07727051 .2829895 .09927368 .2889862 .121276859 .2999878 .16529846L.33399964 .30233766Z"/>
<path id="font_2_2" d="M.2889862 .25C.2889862 .32798768 .27799989 .44898988 .22299195 .56199648 .16299439 .68499758 .07699585 .75 .066986087 .75 .06098938 .75 .056991579 .74598696 .056991579 .73999026 .056991579 .7369995 .056991579 .73498538 .07598877 .71699526 .17399597 .6179962 .23098755 .45899964 .23098755 .25 .23098755 .07899475 .19400025-.09700012 .069992069-.2230072 .056991579-.23500061 .056991579-.23701477 .056991579-.2400055 .056991579-.2460022 .06098938-.25 .066986087-.25 .07699585-.25 .16699219-.18200684 .22599793-.055007936 .2769928 .054992677 .2889862 .16600037 .2889862 .25Z"/>
</defs>
<path transform="matrix(1.00006,0,0,-1.00002,3.7863923,162.47696)" stroke-width=".19925" stroke-linecap="butt" stroke-miterlimit="10" stroke-linejoin="miter" fill="none" stroke="#7f807f" d="M24.0792 129.7112V132.54602M60.6096 129.7112V132.54602M97.14003 129.7112V132.54602M133.67044 129.7112V132.54602M170.20085 129.7112V132.54602"/>
<path transform="matrix(1.00006,0,0,-1.00002,3.7863923,162.47696)" stroke-width=".19925" stroke-linecap="butt" stroke-miterlimit="10" stroke-linejoin="miter" fill="none" stroke="#7f807f" d="M5.814 129.00269V133.25452M42.34439 129.00269V133.25452M115.40523 129.00269V133.25452M151.93566 129.00269V133.25452M188.46607 129.00269V133.25452"/>
<path transform="matrix(1.00006,0,0,-1.00002,3.7863923,162.47696)" stroke-width=".19925" stroke-linecap="butt" stroke-miterlimit="10" stroke-linejoin="miter" fill="none" stroke="#7f807f" d="M77.45734 17.65192H80.2923M77.45734 42.86896H80.2923M77.45734 68.086H80.2923M77.45734 80.69452H80.2923M77.45734 143.73714H80.2923"/>
<path transform="matrix(1.00006,0,0,-1.00002,3.7863923,162.47696)" stroke-width=".19925" stroke-linecap="butt" stroke-miterlimit="10" stroke-linejoin="miter" fill="none" stroke="#7f807f" d="M76.74883 5.0434H81.0008M76.74883 30.26044H81.0008M76.74883 55.47748H81.0008M76.74883 80.69452H81.0008M76.74883 105.91158H81.0008M76.74883 156.34566H81.0008"/>
<path transform="matrix(1.00006,0,0,-1.00002,3.7863923,162.47696)" stroke-width=".3985" stroke-linecap="butt" stroke-miterlimit="10" stroke-linejoin="miter" fill="none" stroke="#000000" d="M0 131.12862H192.28754"/>
<path transform="matrix(1.00006,0,0,-1.00002,196.08547,31.345719)" d="M1.99252 0-1.19551 1.59401 0 0-1.19551-1.59401"/>
<path transform="matrix(1.00006,0,0,-1.00002,3.7863923,162.47696)" stroke-width=".3985" stroke-linecap="butt" stroke-miterlimit="10" stroke-linejoin="miter" fill="none" stroke="#000000" d="M78.87482 0V159.39653"/>
<path transform="matrix(0,-1.00002,-1.00006,-0,82.66594,3.07724)" d="M1.99252 0-1.19551 1.59401 0 0-1.19551-1.59401"/>
<use data-text="&#x2212;" xlink:href="#font_1_1" transform="matrix(9.963197,0,0,-9.962799,.21717835,43.412576)"/>
<use data-text="2" xlink:href="#font_2_4" transform="matrix(9.963197,0,0,-9.962799,7.9666445,43.412576)"/>
<use data-text="&#x03c0;" xlink:href="#font_3_1" transform="matrix(9.963197,0,0,-9.962799,12.947945,43.412576)"/>
<use data-text="&#x2212;" xlink:href="#font_1_1" transform="matrix(9.963197,0,0,-9.962799,39.240518,42.803567)"/>
<use data-text="&#x03c0;" xlink:href="#font_3_1" transform="matrix(9.963197,0,0,-9.962799,46.989984,42.803567)"/>
<use data-text="&#x03c0;" xlink:href="#font_3_1" transform="matrix(9.963197,0,0,-9.962799,116.18013,41.281534)"/>
<use data-text="2" xlink:href="#font_2_4" transform="matrix(9.963197,0,0,-9.962799,150.22217,43.412576)"/>
<use data-text="&#x03c0;" xlink:href="#font_3_1" transform="matrix(9.963197,0,0,-9.962799,155.20447,43.412576)"/>
<use data-text="3" xlink:href="#font_2_5" transform="matrix(9.963197,0,0,-9.962799,186.75437,43.412576)"/>
<use data-text="&#x03c0;" xlink:href="#font_3_1" transform="matrix(9.963197,0,0,-9.962799,191.73667,43.412576)"/>
<use data-text="&#x2212;" xlink:href="#font_1_1" transform="matrix(9.963197,0,0,-9.962799,64.28902,160.22891)"/>
<use data-text="5" xlink:href="#font_2_7" transform="matrix(9.963197,0,0,-9.962799,72.03848,160.22891)"/>
<use data-text="&#x2212;" xlink:href="#font_1_1" transform="matrix(9.963197,0,0,-9.962799,64.28902,135.01142)"/>
<use data-text="4" xlink:href="#font_2_6" transform="matrix(9.963197,0,0,-9.962799,72.03848,135.01142)"/>
<use data-text="&#x2212;" xlink:href="#font_1_1" transform="matrix(9.963197,0,0,-9.962799,64.28902,109.7939)"/>
<use data-text="3" xlink:href="#font_2_5" transform="matrix(9.963197,0,0,-9.962799,72.03848,109.7939)"/>
<use data-text="&#x2212;" xlink:href="#font_1_1" transform="matrix(9.963197,0,0,-9.962799,64.28902,84.5764)"/>
<use data-text="2" xlink:href="#font_2_4" transform="matrix(9.963197,0,0,-9.962799,72.03848,84.5764)"/>
<use data-text="&#x2212;" xlink:href="#font_1_1" transform="matrix(9.963197,0,0,-9.962799,64.28902,59.358896)"/>
<use data-text="1" xlink:href="#font_2_3" transform="matrix(9.963197,0,0,-9.962799,72.03848,59.358896)"/>
<use data-text="1" xlink:href="#font_2_3" transform="matrix(9.963197,0,0,-9.962799,72.03848,9.338898)"/>
<path transform="matrix(1.00006,0,0,-1.00002,3.7863923,162.47696)" stroke-width=".99628" stroke-linecap="butt" stroke-miterlimit="10" stroke-linejoin="miter" fill="none" stroke="#0000ff" d="M1.3211 45.958 .97624 45.28702 1.9525 47.25623 2.92877 49.28519 3.90503 51.3565 4.8813 53.45734 5.85756 55.57178 6.83383 57.68573 7.81009 59.78455 8.78636 61.85284 9.76262 63.87677 10.73888 65.84067 11.71513 67.73245 12.6914 69.53699 13.66766 71.24266 14.64394 72.83765 15.6202 74.30981 16.59645 75.65036 17.57272 76.84816 18.54898 77.89491 19.52525 78.78407 20.5015 79.50906 21.47777 80.06511 22.45403 80.44789 23.4303 80.65416 24.40656 80.68343 25.38283 80.53514 26.35909 80.2101 27.33536 79.7113 28.31161 79.04153 29.28789 78.20534 30.26413 77.20952 31.24039 76.06062 32.21666 74.7665 33.19292 73.33719 34.16919 71.78055 35.14545 70.10992 36.12172 68.3369 37.09798 66.4721 38.07425 64.53064 39.0505 62.52513 40.02676 60.46996 41.00302 58.37946 41.9793 56.26854 42.95555 54.15308 43.93182 52.04594 44.90808 49.96327 45.88435 47.91919 46.86061 45.92828 47.83687 44.00473 48.81314 42.16211 49.78938 40.41333 50.76566 38.77068 51.74191 37.24582 52.71819 35.84854 53.69444 34.58995 54.67072 33.47964 55.64697 32.5234 56.62325 31.72884 57.5995 31.10117 58.57578 30.64525 59.55203 30.36584 60.52829 30.26245 61.50455 30.3366 62.4808 30.5875 63.45708 31.01317 64.43333 31.61206 65.4096 32.37993 66.38586 33.30943 67.36214 34.39528 68.3384 35.62914 69.31467 37.00372 70.29091 38.50816 71.26718 40.13242 72.24344 41.86382 73.21971 43.69205 74.19597 45.60274 75.17224 47.58379 76.1485 49.62006 77.12477 51.69693 78.10103 53.80054 79.07729 55.9165 80.05354 58.02895 81.0298 60.12321 82.00607 62.1857 82.98233 64.2008 83.9586 66.15413 84.93486 68.03204 85.91113 69.82143 86.88739 71.51022 87.86366 73.08578 88.83992 74.53802 89.81618 75.85538 90.79243 77.02821 91.76869 78.05026 92.74496 78.91344 93.72124 79.61145 94.6975 80.13974 95.67375 80.49329 96.65002 80.67056 97.62628 80.67107 98.60262 80.49454 99.57877 80.14125 100.5551 79.61371 101.53127 78.91646 102.5076 78.05379 103.48392 77.033 104.4601 75.86015 105.43642 74.54332 106.4126 73.09158 107.38892 71.51627 108.36523 69.82799 109.3414 68.03935 110.31772 66.16144 111.2939 64.20862 112.27022 62.19354 113.24655 60.13155 114.22272 58.03702 115.19905 55.92432 116.17522 53.80911 117.15154 51.705 118.12787 49.62762 119.10405 47.59111 120.08035 45.61005 121.05653 43.69936 122.03287 41.87086 123.00919 40.13846 123.98534 38.51398 124.96167 37.00903 125.93784 35.63419 126.91417 34.39983 127.89049 33.31322 128.86669 32.38297 129.84297 31.61485 130.81916 31.01494 131.79549 30.58876 132.7718 30.3371 133.74799 30.26195 134.7243 30.3651 135.70047 30.64398 136.6768 31.09915 137.65312 31.72604 138.6293 32.52014 139.6056 33.47562 140.58179 34.5854 141.5581 35.84349 142.53444 37.24 143.51062 38.7649 144.48694 40.40701 145.4631 42.15532 146.43944 43.99742 147.41577 45.92097 148.39192 47.9116 149.36824 49.95546 150.34442 52.03787 151.32074 54.14502 152.29706 56.26047 153.27324 58.37138 154.24958 60.46188 155.22573 62.51706 156.20207 64.52333 157.1784 66.46478 158.15456 68.32985 159.13086 70.10336 160.10704 71.775 161.08338 73.33139 162.0597 74.76146 163.03588 76.05609 164.01219 77.20523 164.98838 78.20157 165.96469 79.03877 166.94101 79.70905 167.91719 80.20883 168.89351 80.53415 169.86968 80.6829 170.84601 80.65492 171.82233 80.44891 172.7985 80.06686 173.77483 79.51184 174.751 78.78685 175.72733 77.8987 176.70365 76.85245 177.67981 75.6554 178.65615 74.31511 179.6323 72.84369 180.60863 71.24922 181.58495 69.54404 182.56113 67.73976 183.53745 65.84799 184.51363 63.88458 185.48996 61.86066 186.46628 59.79237 187.44246 57.6938 188.41878 55.57985 189.39493 53.46541 190.37125 51.36484 191.34758 49.293 192.32376 47.26428 193.30008 45.29433 192.9553 45.96515"/>
<path transform="matrix(-.45728744,.88929787,.88933339,.45726917,5.1075918,116.51803)" d="M2.8892 0-1.73352 2.31136 0 0-1.73352-2.31136" fill="#0000ff"/>
<path transform="matrix(.4572274,.8893278,.88936337,-.45720915,196.75325,116.510898)" d="M2.8892 0-1.73352 2.31136 0 0-1.73352-2.31136" fill="#0000ff"/>
<use data-text="y" xlink:href="#font_3_3" transform="matrix(9.963197,0,0,-9.962799,102.92434,142.12755)" fill="#0000ff"/>
<use data-text="=" xlink:href="#font_2_8" transform="matrix(9.963197,0,0,-9.962799,110.93482,142.12755)" fill="#0000ff"/>
<use data-text="s" xlink:href="#font_2_11" transform="matrix(9.963197,0,0,-9.962799,121.43603,142.12755)" fill="#0000ff"/>
<use data-text="i" xlink:href="#font_2_9" transform="matrix(9.963197,0,0,-9.962799,125.36153,142.12755)" fill="#0000ff"/>
<use data-text="n" xlink:href="#font_2_10" transform="matrix(9.963197,0,0,-9.962799,128.12134,142.12755)" fill="#0000ff"/>
<use data-text="(" xlink:href="#font_2_1" transform="matrix(9.963197,0,0,-9.962799,133.65091,142.12755)" fill="#0000ff"/>
<use data-text="x" xlink:href="#font_3_2" transform="matrix(9.963197,0,0,-9.962799,137.55841,142.12755)" fill="#0000ff"/>
<use data-text=")" xlink:href="#font_2_2" transform="matrix(9.963197,0,0,-9.962799,143.25275,142.12755)" fill="#0000ff"/>
<use data-text="&#x2212;" xlink:href="#font_1_1" transform="matrix(9.963197,0,0,-9.962799,149.34111,142.12755)" fill="#0000ff"/>
<use data-text="3" xlink:href="#font_2_5" transform="matrix(9.963197,0,0,-9.962799,159.3047,142.12755)" fill="#0000ff"/>
<use data-text="x" xlink:href="#font_3_2" transform="matrix(9.963197,0,0,-9.962799,188.86348,27.826264)"/>
<use data-text="y" xlink:href="#font_3_3" transform="matrix(9.963197,0,0,-9.962799,86.18633,8.893875)"/>
</svg>
