<svg xmlns="http://www.w3.org/2000/svg" xmlns:xlink="http://www.w3.org/1999/xlink" version="1.1" width="429" height="372" viewBox="0 0 429 372">
<defs>
<path id="font_1_1" d="M.43798829 .072143558V-.005859375L.61499026 .0001373291V.0471344C.5529938 .0471344 .54599 .0471344 .54599 .086135867V.4501953L.36299134 .44218446V.39518739C.4249878 .39518739 .43199159 .39518739 .43199159 .3561859V.16514588C.43199159 .08314514 .3809967 .030136109 .30799867 .030136109 .23098755 .030136109 .22799683 .055130006 .22799683 .10914612V.4501953L.04499817 .44218446V.39518739C.10699463 .39518739 .11399841 .39518739 .11399841 .3561859V.12315369C.11399841 .01612854 .19499207-.005859375 .2939911-.005859375 .31999208-.005859375 .3919983-.005859375 .43798829 .072143558Z"/>
<path id="font_1_2" d="M.5059967 .37631227C.5119934 .39031983 .5159912 .3973236 .5799866 .3973236V.44433595C.5549927 .44232179 .526001 .44132997 .5009918 .44132997 .47599793 .44132997 .43099977 .44332887 .4099884 .44433595V.3973236C.42900086 .3973236 .45799256 .3943329 .45799256 .38632203 .45799256 .3853302 .45700074 .38331605 .45298768 .37431336L.33699037 .12416077 .20999146 .3973236H.2639923V.44433595C.23098755 .44232179 .14099121 .44132997 .13999939 .44132997 .11199951 .44132997 .066986087 .44332887 .025985718 .44433595V.3973236H.08999634L.2649994 .021087647C.2769928-.00390625 .2899933-.00390625 .30299378-.00390625 .31999208-.00390625 .32998658-.00091552737 .33999635 .020080567L.5059967 .37631227Z"/>
<path id="font_2_1" d="M.40899659 .23046875H.6879883C.70199587 .23046875 .72099307 .23046875 .72099307 .25045777 .72099307 .27046205 .70199587 .27046205 .6879883 .27046205H.40899659V.5500183C.40899659 .56399539 .40899659 .5830078 .3889923 .5830078 .36898805 .5830078 .36898805 .56399539 .36898805 .5500183V.27046205H.08898926C.07499695 .27046205 .055999757 .27046205 .055999757 .25045777 .055999757 .23046875 .07499695 .23046875 .08898926 .23046875H.36898805V-.05000305C.36898805-.06401062 .36898805-.08300781 .3889923-.08300781 .40899659-.08300781 .40899659-.06401062 .40899659-.05000305V.23046875Z"/>
<path id="font_2_4" d="M.44898988 .20022583C.44898988 .3193512 .36698915 .41944886 .25898744 .41944886 .21099854 .41944886 .16799927 .40345765 .13198853 .36842347V.5637665C.1519928 .5577698 .18499756 .55078127 .21699524 .55078127 .33999635 .55078127 .4099884 .6417694 .4099884 .6547699 .4099884 .6607666 .40699769 .6657715 .3999939 .6657715 .39898683 .6657715 .39698792 .6657715 .3919983 .66278079 .37199403 .6537781 .32299806 .6337738 .2559967 .6337738 .21598816 .6337738 .16999817 .6407776 .12298584 .6617737 .114990238 .66477969 .11299133 .66477969 .11099243 .66477969 .100997928 .66477969 .100997928 .6567688 .100997928 .6407776V.34439088C.100997928 .32637025 .100997928 .31835938 .114990238 .31835938 .12199402 .31835938 .12399292 .32136537 .12799073 .32736207 .13899231 .3433838 .17599488 .39746095 .25698854 .39746095 .30899049 .39746095 .33399964 .35139466 .34199525 .33337403 .35798646 .29632569 .3600006 .25727845 .3600006 .20722962 .3600006 .17222595 .3600006 .11222839 .33599855 .07035828 .31199647 .031463624 .2749939 .0055389406 .22898865 .0055389406 .1559906 .0055389406 .09899902 .058380128 .08198547 .11723328 .084991458 .1162262 .08799744 .115234378 .09899902 .115234378 .13198853 .115234378 .14898682 .14022827 .14898682 .16423035 .14898682 .18823242 .13198853 .21322632 .09899902 .21322632 .084991458 .21322632 .049987794 .20622254 .049987794 .16023255 .049987794 .07434082 .11898804-.022460938 .23098755-.022460938 .34700013-.022460938 .44898988 .073349 .44898988 .20022583Z"/>
<path id="font_2_3" d="M.2939911 .16503906V.07800293C.2939911 .041992189 .2919922 .0309906 .21798706 .0309906H.19699097V0C.23799134 .0029907227 .2899933 .0029907227 .33198548 .0029907227 .37399293 .0029907227 .4269867 .0029907227 .46798707 0V.0309906H.44699098C.37298585 .0309906 .37098695 .041992189 .37098695 .07800293V.16503906H.47099305V.19602967H.37098695V.65075686C.37098695 .67074587 .37098695 .6767578 .35499574 .6767578 .34599305 .6767578 .34298707 .6767578 .33499146 .66474917L.027999878 .19602967V.16503906H.2939911M.2999878 .19602967H.055999757L.2999878 .5688019V.19602967Z"/>
<path id="font_2_7" d="M.36698915 .31781007V.28579713C.36698915 .05178833 .2630005 .0055389406 .20498657 .0055389406 .18798828 .0055389406 .13398743 .007537842 .10699463 .041778566 .15098572 .041778566 .15899658 .07078552 .15899658 .08778381 .15899658 .118774417 .1349945 .13378906 .11299133 .13378906 .09700012 .13378906 .066986087 .12478638 .066986087 .08578491 .066986087 .018615723 .12098694-.022460938 .20599365-.022460938 .33499146-.022460938 .45700074 .11378479 .45700074 .32881166 .45700074 .5979767 .34199525 .6660156 .25299073 .6660156 .19799805 .6660156 .14898682 .64801028 .10598755 .60298159 .06498718 .5579529 .041992189 .5159302 .041992189 .44088746 .041992189 .31581117 .12998963 .21777344 .24198914 .21777344 .30299378 .21777344 .34399415 .25978089 .36698915 .31781007M.24299622 .24076844C.22698975 .24076844 .18099976 .24076844 .1499939 .3038025 .13198853 .3408203 .13198853 .39085389 .13198853 .43988038 .13198853 .49391175 .13198853 .54093936 .15299988 .5779724 .17999268 .6279907 .21798706 .64100649 .25299073 .64100649 .29899598 .64100649 .33198548 .60697939 .34899903 .5619507 .36099244 .52993777 .36499024 .4669037 .36499024 .42086793 .36499024 .3378296 .33099366 .24076844 .24299622 .24076844Z"/>
<path id="font_2_6" d="M.47599793 .609375C.4850006 .6213684 .4850006 .62338259 .4850006 .64437869H.24198914C.11999512 .64437869 .117996219 .65737918 .11399841 .67637637H.08898926L.055999757 .4702301H.08099365C.083999637 .48625184 .09298706 .5493469 .10598755 .56137087 .11299133 .5673828 .19099427 .5673828 .20399475 .5673828H.41099549C.3999939 .5513611 .32099916 .4421997 .29899598 .40914918 .20899964 .27394105 .17599488 .1347351 .17599488 .032577516 .17599488 .022567749 .17599488-.022460938 .22200012-.022460938 .2679901-.022460938 .2679901 .022567749 .2679901 .032577516V.08366394C.2679901 .13873291 .2709961 .19381714 .2789917 .24790955 .2829895 .27093507 .29699708 .35707093 .34098817 .41915895L.47599793 .609375Z"/>
<path id="font_2_2" d="M.2939911 .64004519C.2939911 .66400149 .2939911 .6660156 .2709961 .6660156 .20899964 .60227969 .12098694 .60227969 .08898926 .60227969V.57128909C.10899353 .57128909 .16799927 .57128909 .21998596 .5972748V.07902527C.21998596 .042999269 .21699524 .0309906 .1269989 .0309906H.09498596V0C.12998963 .0029907227 .21699524 .0029907227 .25698854 .0029907227 .29699708 .0029907227 .38398744 .0029907227 .4189911 0V.0309906H.3869934C.29699708 .0309906 .2939911 .041992189 .2939911 .07902527V.64004519Z"/>
<path id="font_2_5" d="M.13198853 .327713V.35173036C.13198853 .6047821 .2559967 .64100649 .30699159 .64100649 .33099366 .64100649 .37298585 .634964 .394989 .6007538 .37998963 .6007538 .33999635 .6007538 .33999635 .5557556 .33999635 .524765 .3639984 .5097656 .38598634 .5097656 .4019928 .5097656 .43199159 .51875308 .43199159 .5577545 .43199159 .6178589 .3880005 .6660156 .30499269 .6660156 .1769867 .6660156 .041992189 .5367584 .041992189 .31570436 .041992189 .048553468 .1579895-.022460938 .25099183-.022460938 .3619995-.022460938 .45700074 .07156372 .45700074 .2036438 .45700074 .33070375 .36799623 .4267578 .25698854 .4267578 .18899536 .4267578 .1519928 .37573243 .13198853 .327713M.25099183 .0055389406C.18798828 .0055389406 .1579895 .06556702 .1519928 .080566409 .13398743 .127594 .13398743 .2076416 .13398743 .22564698 .13398743 .30369569 .1659851 .40374757 .2559967 .40374757 .27198792 .40374757 .31799317 .40374757 .34899903 .34172059 .36698915 .30470277 .36698915 .2536621 .36698915 .20463562 .36698915 .15661621 .36698915 .10658264 .34999085 .0705719 .31999208 .010528564 .27398683 .0055389406 .25099183 .0055389406Z"/>
</defs>
<path transform="matrix(1.00002,0,0,-1,58.789796,313.61)" stroke-width=".3985" stroke-linecap="butt" stroke-miterlimit="10" stroke-linejoin="miter" fill="none" stroke="#d5d6d5" d="M-56.69362-56.69362H368.5085M-56.69362-28.3468H368.5085M-56.69362 0H368.5085M-56.69362 28.3468H368.5085M-56.69362 56.69362H368.5085M-56.69362 85.04042H368.5085M-56.69362 113.38724H368.5085M-56.69362 141.73404H368.5085M-56.69362 170.08086H368.5085M-56.69362 198.42766H368.5085M-56.69362 226.77448H368.5085M-56.69362 255.12128H368.5085M-56.69362 283.4681H368.5085M-56.69362 311.80497H368.5085M-56.69362-56.69362V311.8149M-28.3468-56.69362V311.8149M0-56.69362V311.8149M28.3468-56.69362V311.8149M56.69362-56.69362V311.8149M85.04042-56.69362V311.8149M113.38724-56.69362V311.8149M141.73404-56.69362V311.8149M170.08086-56.69362V311.8149M198.42766-56.69362V311.8149M226.77448-56.69362V311.8149M255.12128-56.69362V311.8149M283.4681-56.69362V311.8149M311.8149-56.69362V311.8149M340.1617-56.69362V311.8149M368.49858-56.69362V311.8149M368.5085 311.8149"/>
<path transform="matrix(1.00002,0,0,-1,58.789796,313.61)" stroke-width="1.99255" stroke-linecap="butt" stroke-miterlimit="10" stroke-linejoin="miter" fill="none" stroke="#0000ff" d="M28.3468 28.3468 165.7825 55.83395"/>
<path transform="matrix(.9805696,-.1961,-.19610393,-.98055,224.5756,257.77604)" d="M4.38364 0-2.63017 3.50691 0 0-2.63017-3.50691" fill="#0000ff"/>
<use data-text="u" xlink:href="#font_1_1" transform="matrix(9.769023,-1.9536657,-1.953705,-9.768827,154.03813,267.48085)"/>
<path transform="matrix(1.00002,0,0,-1,58.789796,313.61)" stroke-width="1.99255" stroke-linecap="butt" stroke-miterlimit="10" stroke-linejoin="miter" fill="none" stroke="#0000ff" d="M170.08086 56.69362 281.0366 223.12722"/>
<path transform="matrix(.55468109,-.83202,-.8320367,-.55467,339.832,90.48277)" d="M4.38364 0-2.63017 3.50691 0 0-2.63017-3.50691" fill="#0000ff"/>
<use data-text="v" xlink:href="#font_1_2" transform="matrix(5.5260655,-8.289083,-8.289248,-5.525955,280.25547,172.06308)"/>
<path transform="matrix(1.00002,0,0,-1,58.789796,313.61)" stroke-width="1.99255" stroke-linecap="butt" stroke-miterlimit="10" stroke-linejoin="miter" fill="none" stroke="#0000ff" d="M28.3468 28.3468 280.00794 224.08333"/>
<path transform="matrix(.7893558,-.6139,-.6139123,-.78934,338.8033,89.52666)" d="M4.38364 0-2.63017 3.50691 0 0-2.63017-3.50691" fill="#0000ff"/>
<use data-text="u" xlink:href="#font_1_1" transform="matrix(7.864036,-6.11604,-6.1161625,-7.8638789,201.77347,189.58301)"/>
<use data-text="+" xlink:href="#font_2_1" transform="matrix(7.864036,-6.11604,-6.1161625,-7.8638789,208.54535,184.31635)"/>
<use data-text="v" xlink:href="#font_1_2" transform="matrix(7.864036,-6.11604,-6.1161625,-7.8638789,216.4089,178.20069)"/>
<path transform="matrix(1.00002,0,0,-1,58.789796,313.61)" stroke-width=".3985" stroke-linecap="butt" stroke-miterlimit="10" stroke-linejoin="miter" fill="none" stroke="#000000" d="M28.7453-.3985C30.23965-3.38736 33.72668-5.37988 38.70807-5.37988H89.64955C94.63094-5.37988 98.11797-7.3724 99.61232-10.36127 101.10667-7.3724 104.5937-5.37988 109.57509-5.37988H160.51659C165.49797-5.37988 168.985-3.38736 170.47936-.3985"/>
<use data-text="5" xlink:href="#font_2_4" transform="matrix(9.962799,0,0,-9.9626,155.91374,334.227)"/>
<path transform="matrix(1.00002,0,0,-1,58.789796,313.61)" stroke-width=".3985" stroke-linecap="butt" stroke-miterlimit="10" stroke-linejoin="miter" fill="none" stroke="#000000" d="M170.47936-.3985C171.97371-3.38736 175.46074-5.37988 180.44213-5.37988H217.2102C222.19159-5.37988 225.67862-7.3724 227.17298-10.36127 228.66733-7.3724 232.15436-5.37988 237.13574-5.37988H273.9038C278.88523-5.37988 282.37226-3.38736 283.8666-.3985"/>
<use data-text="4" xlink:href="#font_2_3" transform="matrix(9.962799,0,0,-9.9626,283.47633,334.227)"/>
<path transform="matrix(1.00002,0,0,-1,58.789796,313.61)" stroke-width=".3985" stroke-linecap="butt" stroke-miterlimit="10" stroke-linejoin="miter" fill="none" stroke="#000000" d="M28.7453 255.12126C30.23965 258.1101 33.72668 260.10267 38.70807 260.10267H146.34317C151.32456 260.10267 154.81159 262.09519 156.30594 265.084 157.8003 262.09519 161.28733 260.10267 166.2687 260.10267H273.9038C278.88523 260.10267 282.37226 258.1101 283.8666 255.12126"/>
<use data-text="9" xlink:href="#font_2_7" transform="matrix(9.962799,0,0,-9.9626,212.60788,44.69098)"/>
<path transform="matrix(1.00002,0,0,-1,58.789796,313.61)" stroke-width=".3985" stroke-linecap="butt" stroke-miterlimit="10" stroke-linejoin="miter" fill="none" stroke="#000000" d="M-.3985 28.7453C-3.38736 30.23965-5.37988 33.72668-5.37988 38.70807V117.99637C-5.37988 122.97775-7.3724 126.46478-10.36127 127.95914-7.3724 129.45349-5.37988 132.94052-5.37988 137.9219V217.2102C-5.37988 222.19159-3.38736 225.67862-.3985 227.17298"/>
<use data-text="7" xlink:href="#font_2_6" transform="matrix(9.962799,0,0,-9.9626,38.892396,188.861)"/>
<path transform="matrix(1.00002,0,0,-1,58.789796,313.61)" stroke-width=".3985" stroke-linecap="butt" stroke-miterlimit="10" stroke-linejoin="miter" fill="none" stroke="#000000" d="M311.4164 28.7453C314.40528 29.80826 316.39778 32.28865 316.39778 35.832V35.83202C316.39778 39.37537 318.3903 41.85576 321.37919 42.9187 318.3903 43.98166 316.39778 46.46205 316.39778 50.00542 316.39778 53.54877 314.40528 56.02916 311.4164 57.09212"/>
<use data-text="1" xlink:href="#font_2_2" transform="matrix(9.962799,0,0,-9.9626,384.73033,273.90199)"/>
<path transform="matrix(1.00002,0,0,-1,58.789796,313.61)" stroke-width=".3985" stroke-linecap="butt" stroke-miterlimit="10" stroke-linejoin="miter" fill="none" stroke="#000000" d="M311.4164 57.09212C314.40528 58.58647 316.39778 62.0735 316.39778 67.05489V132.16979C316.39778 137.15117 318.3903 140.6382 321.37919 142.13256 318.3903 143.6269 316.39778 147.11394 316.39778 152.09532V217.2102C316.39778 222.19159 314.40528 225.67862 311.4164 227.17298"/>
<use data-text="6" xlink:href="#font_2_5" transform="matrix(9.962799,0,0,-9.9626,384.73033,174.68799)"/>
<path transform="matrix(1.00002,0,0,-1,58.789796,313.61)" stroke-width=".3985" stroke-linecap="butt" stroke-dasharray="2.98883,2.98883" stroke-miterlimit="10" stroke-linejoin="miter" fill="none" stroke="#000000" d="M28.3468 0V28.3468"/>
<path transform="matrix(1.00002,0,0,-1,58.789796,313.61)" stroke-width=".3985" stroke-linecap="butt" stroke-dasharray="2.98883,2.98883" stroke-miterlimit="10" stroke-linejoin="miter" fill="none" stroke="#000000" d="M170.08086 0V56.69362"/>
<path transform="matrix(1.00002,0,0,-1,58.789796,313.61)" stroke-width=".3985" stroke-linecap="butt" stroke-dasharray="2.98883,2.98883" stroke-miterlimit="10" stroke-linejoin="miter" fill="none" stroke="#000000" d="M283.4681 0V226.77448"/>
<path transform="matrix(1.00002,0,0,-1,58.789796,313.61)" stroke-width=".3985" stroke-linecap="butt" stroke-dasharray="2.98883,2.98883" stroke-miterlimit="10" stroke-linejoin="miter" fill="none" stroke="#000000" d="M283.4681 226.77448H311.8149"/>
<path transform="matrix(1.00002,0,0,-1,58.789796,313.61)" stroke-width=".3985" stroke-linecap="butt" stroke-dasharray="2.98883,2.98883" stroke-miterlimit="10" stroke-linejoin="miter" fill="none" stroke="#000000" d="M28.3468 28.3468H311.8149"/>
<path transform="matrix(1.00002,0,0,-1,58.789796,313.61)" stroke-width=".3985" stroke-linecap="butt" stroke-dasharray="2.98883,2.98883" stroke-miterlimit="10" stroke-linejoin="miter" fill="none" stroke="#000000" d="M170.08086 56.69362H311.8149"/>
<path transform="matrix(1.00002,0,0,-1,58.789796,313.61)" stroke-width=".3985" stroke-linecap="butt" stroke-dasharray="2.98883,2.98883" stroke-miterlimit="10" stroke-linejoin="miter" fill="none" stroke="#000000" d="M0 28.3468H28.3468"/>
<path transform="matrix(1.00002,0,0,-1,58.789796,313.61)" stroke-width=".3985" stroke-linecap="butt" stroke-dasharray="2.98883,2.98883" stroke-miterlimit="10" stroke-linejoin="miter" fill="none" stroke="#000000" d="M0 226.77448H283.4681"/>
<path transform="matrix(1.00002,0,0,-1,58.789796,313.61)" stroke-width=".3985" stroke-linecap="butt" stroke-dasharray="2.98883,2.98883" stroke-miterlimit="10" stroke-linejoin="miter" fill="none" stroke="#000000" d="M28.3468 28.3468V255.12128"/>
<path transform="matrix(1.00002,0,0,-1,58.789796,313.61)" stroke-width=".3985" stroke-linecap="butt" stroke-dasharray="2.98883,2.98883" stroke-miterlimit="10" stroke-linejoin="miter" fill="none" stroke="#000000" d="M283.4681 226.77448V255.12128"/>
</svg>
