<svg xmlns="http://www.w3.org/2000/svg" xmlns:xlink="http://www.w3.org/1999/xlink" version="1.1" width="250" height="165" viewBox="0 0 250 165">
<defs>
<path id="font_1_1" d="M.6589966 .23046875C.6759949 .23046875 .69400027 .23046875 .69400027 .25045777 .69400027 .27046205 .6759949 .27046205 .6589966 .27046205H.117996219C.100997928 .27046205 .08299255 .27046205 .08299255 .25045777 .08299255 .23046875 .100997928 .23046875 .117996219 .23046875H.6589966Z"/>
<path id="font_2_2" d="M.1269989 .07699585 .23298645 .18003845C.3889923 .31811524 .44898988 .3721466 .44898988 .47216798 .44898988 .5860901 .35899354 .6660156 .23699951 .6660156 .12399292 .6660156 .049987794 .57411196 .049987794 .48516847 .049987794 .4291687 .099990848 .4291687 .102996829 .4291687 .11999512 .4291687 .15499878 .44117738 .15499878 .48217774 .15499878 .5081787 .13699341 .5341797 .101989749 .5341797 .09399414 .5341797 .09199524 .5341797 .08898926 .5331726 .11199951 .59806826 .1659851 .63500979 .22399903 .63500979 .31498719 .63500979 .35798646 .5541382 .35798646 .47216798 .35798646 .39215089 .30799867 .31311036 .25299073 .25108338L.06098938 .036987306C.049987794 .025985718 .049987794 .023986817 .049987794 0H.42099L.44898988 .17404175H.42399598C.4189911 .14402771 .4119873 .1000061 .4019928 .084991458 .394989 .07699585 .32899476 .07699585 .30699159 .07699585H.1269989Z"/>
<path id="font_3_1" d="M.2649994 .37265016H.37799073C.34498597 .22489929 .33599855 .18196106 .33599855 .11508179 .33599855 .100097659 .33599855 .073150638 .34399415 .03919983 .35398866-.0047454836 .36499024-.0107421879 .37998963-.0107421879 .3999939-.0107421879 .42099 .007247925 .42099 .02722168 .42099 .033218385 .42099 .035202028 .4149933 .049179079 .38598634 .12106323 .38598634 .18595886 .38598634 .21391297 .38598634 .26683045 .3929901 .32073976 .4039917 .37265016H.5179901C.5309906 .37265016 .5669861 .37265016 .5669861 .406662 .5669861 .43066407 .54599 .43066407 .5269928 .43066407H.19198609C.16999817 .43066407 .13198853 .43066407 .08799744 .38365174 .052993776 .34469605 .026992798 .29878236 .026992798 .29379273 .026992798 .29278565 .026992798 .28379823 .038986207 .28379823 .04699707 .28379823 .04899597 .28779603 .054992677 .29577638 .10398865 .37265016 .1619873 .37265016 .18199158 .37265016H.23899842C.20698548 .25186158 .15299988 .13105774 .11099243 .04020691 .102996829 .025222779 .102996829 .023223877 .102996829 .016235352 .102996829-.002746582 .11898804-.0107421879 .13198853-.0107421879 .1619873-.0107421879 .16999817 .017242432 .18199158 .05418396 .19599915 .100097659 .19599915 .10209656 .20899964 .15202332L.2649994 .37265016Z"/>
<path id="font_2_3" d="M.2899933 .35191346C.37199403 .37893678 .42999269 .4490509 .42999269 .52809146 .42999269 .6100464 .34199525 .6660156 .24598694 .6660156 .14498902 .6660156 .068984989 .60606387 .068984989 .53009036 .068984989 .49710084 .09098816 .47808839 .11999512 .47808839 .15098572 .47808839 .17098999 .50009158 .17098999 .5290985 .17098999 .57910159 .12399292 .57910159 .10899353 .57910159 .13999939 .62802127 .20599365 .64100649 .24198914 .64100649 .2829895 .64100649 .33799745 .6190338 .33799745 .5290985 .33799745 .51708987 .33599855 .45906068 .30999757 .4149933 .27999879 .36691285 .24598694 .36390687 .22099304 .36291505 .21299744 .36190797 .18899536 .35990907 .18199158 .35990907 .17399597 .35890199 .16699219 .35791017 .16699219 .3479004 .16699219 .33691407 .17399597 .33691407 .19099427 .33691407H.23498535C.31698609 .33691407 .35398866 .2686615 .35398866 .17037964 .35398866 .034469606 .2849884 .0055389406 .24099732 .0055389406 .19799805 .0055389406 .12298584 .022491456 .08799744 .08137512 .12298584 .07637024 .1539917 .09837341 .1539917 .1363678 .1539917 .17237854 .1269989 .19238281 .09799194 .19238281 .07398987 .19238281 .041992189 .17837525 .041992189 .1343689 .041992189 .043441774 .1349945-.022460938 .24398804-.022460938 .3659973-.022460938 .45700074 .06838989 .45700074 .17037964 .45700074 .252594 .3939972 .33088685 .2899933 .35191346Z"/>
<path id="font_2_1" d="M.2939911 .64004519C.2939911 .66400149 .2939911 .6660156 .2709961 .6660156 .20899964 .60227969 .12098694 .60227969 .08898926 .60227969V.57128909C.10899353 .57128909 .16799927 .57128909 .21998596 .5972748V.07902527C.21998596 .042999269 .21699524 .0309906 .1269989 .0309906H.09498596V0C.12998963 .0029907227 .21699524 .0029907227 .25698854 .0029907227 .29699708 .0029907227 .38398744 .0029907227 .4189911 0V.0309906H.3869934C.29699708 .0309906 .2939911 .041992189 .2939911 .07902527V.64004519Z"/>
<path id="font_3_3" d="M.48599244 .38136292C.48999024 .39537049 .48999024 .39736939 .48999024 .40437318 .48999024 .42237855 .47599793 .43138124 .46099855 .43138124 .45098878 .43138124 .43499757 .42536927 .42599488 .41036988 .42399598 .405365 .41600038 .37435914 .4119873 .35635377 .40499879 .33035279 .397995 .30334474 .3919983 .27633668L.34700013 .09628296C.34298707 .08126831 .2999878 .011245728 .23399353 .011245728 .18299866 .011245728 .17199707 .055267335 .17199707 .0922699 .17199707 .1382904 .18899536 .20030213 .22299195 .28833009 .23899842 .3293457 .24299622 .3403473 .24299622 .36035157 .24299622 .405365 .21099854 .4423828 .16099549 .4423828 .06599426 .4423828 .0289917 .29733277 .0289917 .28833009 .0289917 .27833558 .038986207 .27833558 .040985109 .27833558 .050994874 .27833558 .051986696 .28033448 .056991579 .29634095 .083999637 .3903656 .12399292 .42037965 .1579895 .42037965 .1659851 .42037965 .18299866 .42037965 .18299866 .3883667 .18299866 .36335755 .17298889 .3373413 .1659851 .31834413 .12599182 .21231079 .10798645 .1552887 .10798645 .10827637 .10798645 .019256592 .17098999-.0107421879 .22999573-.0107421879 .2689972-.0107421879 .30299378 .0062561037 .33099366 .03425598 .31799317-.017745972 .30599977-.06674194 .2659912-.11973572 .23999024-.15385437 .20199585-.18309021 .1559906-.18309021 .14199829-.18309021 .09700012-.18005371 .07998657-.14074707 .09599304-.14074707 .10899353-.14074707 .12298584-.1287384 .1329956-.11973572 .14299011-.10673523 .14299011-.08773804 .14299011-.056747438 .115997318-.052734376 .10598755-.052734376 .08299255-.052734376 .049987794-.068740848 .049987794-.11773682 .049987794-.16796875 .09399414-.20507813 .1559906-.20507813 .25898744-.20507813 .3619995-.11373901 .3899994-.00074768069L.48599244 .38136292Z"/>
<path id="font_2_4" d="M.68699648 .32714845C.70199587 .32714845 .72099307 .32714845 .72099307 .34713746 .72099307 .36714173 .70199587 .36714173 .6879883 .36714173H.08898926C.07499695 .36714173 .055999757 .36714173 .055999757 .34713746 .055999757 .32714845 .07499695 .32714845 .08999634 .32714845H.68699648M.6879883 .13284302C.70199587 .13284302 .72099307 .13284302 .72099307 .15284729 .72099307 .17285156 .70199587 .17285156 .68699648 .17285156H.08999634C.07499695 .17285156 .055999757 .17285156 .055999757 .15284729 .055999757 .13284302 .07499695 .13284302 .08898926 .13284302H.6879883Z"/>
<path id="font_2_5" d="M.116989139 .21801758C.116989139 .38093568 .19898987 .42323304 .2519989 .42323304 .26098634 .42323304 .32398988 .42222596 .35899354 .38594056 .31799317 .38293458 .31199647 .3529358 .31199647 .3399353 .31199647 .31393434 .32998658 .2939453 .35798646 .2939453 .38398744 .2939453 .4039917 .3109436 .4039917 .34094239 .4039917 .40911866 .32798768 .4482422 .25099183 .4482422 .12599182 .4482422 .033996583 .3399353 .033996583 .21601868 .033996583 .08816528 .1329956-.0107421879 .24899292-.0107421879 .3829956-.0107421879 .4149933 .10914612 .4149933 .119140628 .4149933 .12911988 .40499879 .12911988 .4019928 .12911988 .3929901 .12911988 .3909912 .12512207 .3889923 .119140628 .3600006 .026229859 .29499818 .014251709 .2579956 .014251709 .20498657 .014251709 .116989139 .0572052 .116989139 .21801758Z"/>
<path id="font_2_6" d="M.47099305 .21424866C.47099305 .34223939 .37098695 .4482422 .25 .4482422 .125 .4482422 .027999878 .3392334 .027999878 .21424866 .027999878 .085250858 .13198853-.0107421879 .24899292-.0107421879 .36999513-.0107421879 .47099305 .087249759 .47099305 .21424866M.25 .014251709C.20698548 .014251709 .16299439 .035247804 .13598633 .08125305 .11099243 .12524414 .11099243 .18624878 .11099243 .22224427 .11099243 .26124574 .11099243 .31523133 .1349945 .35923768 .1619873 .40522767 .20899964 .426239 .24899292 .426239 .29299928 .426239 .33599855 .40423585 .3619995 .36123658 .3880005 .3182373 .3880005 .26023866 .3880005 .22224427 .3880005 .18624878 .3880005 .13224793 .3659973 .08824158 .34399415 .04324341 .2999878 .014251709 .25 .014251709Z"/>
<path id="font_2_7" d="M.20799256 .19424439C.22999573 .19024658 .31199647 .17424011 .31199647 .102249149 .31199647 .051254274 .2769928 .011245728 .19898987 .011245728 .114990238 .011245728 .07899475 .06825256 .05999756 .15324402 .056991579 .1662445 .055999757 .17024231 .04598999 .17024231 .032989503 .17024231 .032989503 .16323853 .032989503 .14524842V.013244629C.032989503-.003753662 .032989503-.0107421879 .04399109-.0107421879 .04899597-.0107421879 .049987794-.009750366 .068984989 .009246826 .070999149 .011245728 .070999149 .013244629 .08898926 .03224182 .1329956-.009750366 .17799378-.0107421879 .19898987-.0107421879 .31399537-.0107421879 .3600006 .056243898 .3600006 .12825012 .3600006 .1812439 .32998658 .21124268 .31799317 .22323609 .2849884 .25523377 .24598694 .26324464 .20399475 .27124024 .147995 .28224183 .08099365 .2952423 .08099365 .35324098 .08099365 .38822938 .10699463 .42922975 .19299317 .42922975 .30299378 .42922975 .30799867 .3392334 .30999757 .3082428 .31098939 .2992401 .31999208 .2992401 .32199098 .2992401 .33499146 .2992401 .33499146 .304245 .33499146 .3232422V.4242401C.33499146 .4412384 .33499146 .4482422 .32398988 .4482422 .31900025 .4482422 .31698609 .4482422 .3039856 .43623353 .30099488 .43223573 .29100038 .42323304 .2869873 .42022706 .24899292 .4482422 .20799256 .4482422 .19299317 .4482422 .070999149 .4482422 .032989503 .38124085 .032989503 .3252411 .032989503 .29023744 .04899597 .26223756 .07598877 .24023438 .10798645 .21424866 .13598633 .2082367 .20799256 .19424439Z"/>
<path id="font_3_2" d="M.33399964 .30233766C.33999635 .32835389 .36299134 .42037965 .43299867 .42037965 .43798829 .42037965 .46199037 .42037965 .48298646 .40734864 .45498658 .402359 .43499757 .37734986 .43499757 .35334779 .43499757 .33735658 .44599916 .31835938 .47299195 .31835938 .49499513 .31835938 .5269928 .3363495 .5269928 .37635804 .5269928 .42837525 .46798707 .4423828 .43399049 .4423828 .37599183 .4423828 .34098817 .38935853 .32899476 .36634828 .3039856 .43237306 .25 .4423828 .22099304 .4423828 .116989139 .4423828 .05999756 .3133545 .05999756 .28834535 .05999756 .27833558 .069992069 .27833558 .07199097 .27833558 .07998657 .27833558 .08299255 .28033448 .084991458 .28933717 .11898804 .39535523 .18499756 .42037965 .21899414 .42037965 .23799134 .42037965 .272995 .4113617 .272995 .35334779 .272995 .32235719 .2559967 .25532533 .21899414 .11528015 .20298767 .053268434 .16799927 .011245728 .12399292 .011245728 .117996219 .011245728 .09498596 .011245728 .07398987 .024276734 .09899902 .029266358 .12098694 .05027771 .12098694 .07827759 .12098694 .105270389 .09899902 .11328125 .083999637 .11328125 .053985597 .11328125 .0289917 .08728027 .0289917 .055267335 .0289917 .009246826 .07899475-.0107421879 .12298584-.0107421879 .18899536-.0107421879 .22499085 .059280397 .22799683 .0652771 .23999024 .028274537 .27598573-.0107421879 .33599855-.0107421879 .43899537-.0107421879 .49598695 .118270877 .49598695 .14328003 .49598695 .1532898 .4869995 .1532898 .48399354 .1532898 .47499085 .1532898 .47299195 .14929199 .47099305 .14228821 .43798829 .03527832 .36999513 .011245728 .33799745 .011245728 .29899598 .011245728 .2829895 .043273927 .2829895 .07727051 .2829895 .09927368 .2889862 .121276859 .2999878 .16529846L.33399964 .30233766Z"/>
<path id="font_4_1" d="M.33499146 .63612368C.33499146 .6630554 .33299256 .6640625 .30499269 .6640625 .24099732 .6014404 .1499939 .6004486 .10899353 .6004486V.5644531C.1329956 .5644531 .19898987 .5644531 .2539978 .592453V.08203125C.2539978 .04899597 .2539978 .035995485 .1539917 .035995485H.115997318V0C.13398743 .0009918213 .25698854 .0039978029 .2939911 .0039978029 .32499696 .0039978029 .45098878 .0009918213 .47299195 0V.035995485H.43499757C.33499146 .035995485 .33499146 .04899597 .33499146 .08203125V.63612368Z"/>
<path id="font_4_2" d="M.5049896 .18203736H.47099305C.46798707 .16001892 .45799256 .100997928 .44499208 .09098816 .43699647 .084991458 .3600006 .084991458 .34599305 .084991458H.1619873C.2669983 .17803955 .3019867 .20603943 .3619995 .25306703 .43598939 .312088 .5049896 .374115 .5049896 .46914674 .5049896 .5900879 .39898683 .6640625 .2709961 .6640625 .14698792 .6640625 .06298828 .57710269 .06298828 .4851532 .06298828 .43414308 .10598755 .42915345 .115997318 .42915345 .13999939 .42915345 .16899109 .44615174 .16899109 .48214723 .16899109 .5001526 .1619873 .53515627 .10998535 .53515627 .14099121 .6060791 .20899964 .62805178 .2559967 .62805178 .35598756 .62805178 .4079895 .5501404 .4079895 .46914674 .4079895 .38212586 .34599305 .3130951 .31399537 .27708436L.07299805 .038986207C.06298828 .02999878 .06298828 .027999878 .06298828 0H.47499085L.5049896 .18203736Z"/>
</defs>
<path transform="matrix(1.00002,0,0,-1.00005,3.7858048,163.20035)" stroke-width=".19925" stroke-linecap="butt" stroke-miterlimit="10" stroke-linejoin="miter" fill="none" stroke="#929292" d="M5.814 79.2804V82.11534M24.0792 79.2804V82.11534M42.3444 79.2804V82.11534M60.6096 79.2804V82.11534M78.87482 79.2804V82.11534M97.14003 79.2804V82.11534M115.40523 79.2804V82.11534M133.67044 79.2804V82.11534M151.93566 79.2804V82.11534M170.20085 79.2804V82.11534M188.46607 79.2804V82.11534"/>
<path transform="matrix(1.00002,0,0,-1.00005,3.7858048,163.20035)" stroke-width=".19925" stroke-linecap="butt" stroke-miterlimit="10" stroke-linejoin="miter" fill="none" stroke="#929292" d="M5.814 78.57187V82.82385M42.34439 78.57187V82.82385M115.40523 78.57187V82.82385M151.93566 78.57187V82.82385M188.46607 78.57187V82.82385"/>
<path transform="matrix(1.00002,0,0,-1.00005,3.7858048,163.20035)" stroke-width=".19925" stroke-linecap="butt" stroke-miterlimit="10" stroke-linejoin="miter" fill="none" stroke="#929292" d="M77.45732 25.67659H80.29231M77.45732 62.35744H80.29231M77.45732 99.0383H80.29231M77.45732 135.71915H80.29231"/>
<path transform="matrix(1.00002,0,0,-1.00005,3.7858048,163.20035)" stroke-width=".19925" stroke-linecap="butt" stroke-miterlimit="10" stroke-linejoin="miter" fill="none" stroke="#929292" d="M76.7488 7.33617H81.00082M76.7488 44.01701H81.00082M76.7488 117.37872H81.00082M76.7488 154.05957H81.00082"/>
<path transform="matrix(1.00002,0,0,-1.00005,3.7858048,163.20035)" stroke-width=".3985" stroke-linecap="butt" stroke-miterlimit="10" stroke-linejoin="miter" fill="none" stroke="#000000" d="M0 80.69788H192.28754"/>
<path transform="matrix(1.00002,0,0,-1.00005,196.07718,82.498439)" d="M1.99252 0-1.19551 1.59401 0 0-1.19551-1.59401"/>
<path transform="matrix(1.00002,0,0,-1.00005,3.7858048,163.20035)" stroke-width=".3985" stroke-linecap="butt" stroke-miterlimit="10" stroke-linejoin="miter" fill="none" stroke="#000000" d="M78.87482 0V159.40323"/>
<path transform="matrix(0,-1.00005,-1.00002,-0,82.6622,3.789154)" d="M1.99252 0-1.19551 1.59401 0 0-1.19551-1.59401"/>
<use data-text="&#x2212;" xlink:href="#font_1_1" transform="matrix(9.962799,0,0,-9.963098,.21673584,94.56492)"/>
<use data-text="2" xlink:href="#font_2_2" transform="matrix(9.962799,0,0,-9.963098,7.965889,94.56492)"/>
<use data-text="&#x03c0;" xlink:href="#font_3_1" transform="matrix(9.962799,0,0,-9.963098,12.946991,94.56492)"/>
<use data-text="&#x2212;" xlink:href="#font_1_1" transform="matrix(9.962799,0,0,-9.963098,39.238515,93.956897)"/>
<use data-text="&#x03c0;" xlink:href="#font_3_1" transform="matrix(9.962799,0,0,-9.963098,46.987668,93.956897)"/>
<use data-text="&#x03c0;" xlink:href="#font_3_1" transform="matrix(9.962799,0,0,-9.963098,116.17506,92.433818)"/>
<use data-text="2" xlink:href="#font_2_2" transform="matrix(9.962799,0,0,-9.963098,150.21573,94.56492)"/>
<use data-text="&#x03c0;" xlink:href="#font_3_1" transform="matrix(9.962799,0,0,-9.963098,155.19785,94.56492)"/>
<use data-text="3" xlink:href="#font_2_3" transform="matrix(9.962799,0,0,-9.963098,186.74646,94.56492)"/>
<use data-text="&#x03c0;" xlink:href="#font_3_1" transform="matrix(9.962799,0,0,-9.963098,191.72858,94.56492)"/>
<use data-text="&#x2212;" xlink:href="#font_1_1" transform="matrix(9.962799,0,0,-9.963098,64.28602,158.65912)"/>
<use data-text="2" xlink:href="#font_2_2" transform="matrix(9.962799,0,0,-9.963098,72.03517,158.65912)"/>
<use data-text="&#x2212;" xlink:href="#font_1_1" transform="matrix(9.962799,0,0,-9.963098,64.28602,121.97629)"/>
<use data-text="1" xlink:href="#font_2_1" transform="matrix(9.962799,0,0,-9.963098,72.03517,121.97629)"/>
<use data-text="1" xlink:href="#font_2_1" transform="matrix(9.962799,0,0,-9.963098,72.03517,49.02665)"/>
<use data-text="2" xlink:href="#font_2_2" transform="matrix(9.962799,0,0,-9.963098,72.03517,12.343811)"/>
<path transform="matrix(1.00002,0,0,-1.00005,3.7858048,163.20035)" stroke-width=".99628" stroke-linecap="butt" stroke-miterlimit="10" stroke-linejoin="miter" fill="none" stroke="#0000ff" stroke-opacity=".5" d="M1.68295 115.23463 .97624 114.24838 1.9525 115.37448 2.92877 116.25444 3.90503 116.88351 4.8813 117.25876 5.85756 117.37689 6.83383 117.23639 7.81009 116.83878 8.78636 116.18549 9.76262 115.28204 10.73888 114.13576 11.71513 112.75436 12.6914 111.147 13.66766 109.32397 14.64394 107.29991 15.6202 105.08879 16.59645 102.70601 17.57272 100.1677 18.54898 97.49184 19.52525 94.69785 20.5015 91.80592 21.47777 88.83478 22.45403 85.8075 23.4303 82.74356 24.40656 79.66566 25.38283 76.59511 26.35909 73.55206 27.33536 70.56036 28.31161 67.63985 29.28789 64.81248 30.26413 62.09554 31.24039 59.50954 32.21666 57.0732 33.19292 54.80302 34.16919 52.71661 35.14545 50.82645 36.12172 49.14684 37.09798 47.68877 38.07425 46.46362 39.0505 45.48058 40.02676 44.74513 41.00302 44.26277 41.9793 44.03644 42.95555 44.06801 43.93182 44.3596 44.90808 44.90688 45.88435 45.70581 46.86061 46.75047 47.83687 48.03467 48.81314 49.54921 49.78938 51.28313 50.76566 53.22537 51.74191 55.35945 52.71819 57.6722 53.69444 60.14816 54.67072 62.76826 55.64697 65.51529 56.62325 68.3687 57.5995 71.3094 58.57578 74.3154 59.55203 77.36652 60.52829 80.44145 61.50455 83.51752 62.4808 86.57413 63.45708 89.59004 64.43333 92.54285 65.4096 95.41238 66.38586 98.17813 67.36214 100.82097 68.3384 103.32188 69.31467 105.66357 70.29091 107.82776 71.26718 109.80301 72.24344 111.57176 73.21971 113.12447 74.19597 114.44865 75.17224 115.5333 76.1485 116.37366 77.12477 116.96239 78.10103 117.2958 79.07729 117.37321 80.05354 117.18909 81.0298 116.7489 82.00607 116.05453 82.98233 115.11258 83.9586 113.92815 84.93486 112.50824 85.91113 110.86383 86.88739 109.00778 87.86366 106.95256 88.83992 104.71281 89.81618 102.30287 90.79243 99.74072 91.76869 97.04468 92.74496 94.2331 93.72124 91.3265 94.6975 88.34583 95.67375 85.31049 96.65002 82.2425 97.62628 79.1646 98.60262 76.09697 99.57877 73.06165 100.5551 70.07985 101.53127 67.17363 102.5076 64.36168 103.48392 61.66454 104.4601 59.10202 105.43642 56.69208 106.4126 54.45161 107.38892 52.39528 108.36523 50.53813 109.3414 48.89374 110.31772 47.47308 111.2939 46.28719 112.27022 45.34338 113.24655 44.64902 114.22272 44.20775 115.19905 44.02325 116.17522 44.09917 117.15154 44.43225 118.12787 45.01987 119.10405 45.85838 120.08035 46.94305 121.05653 48.26576 122.03287 49.81735 123.00919 51.58574 123.98534 53.5599 124.96167 55.7237 125.93784 58.06468 126.91417 60.5652 127.89049 63.20769 128.86669 65.9727 129.84297 68.84114 130.81916 71.79395 131.79549 74.80986 132.7718 77.8661 133.74799 80.94254 134.7243 84.01675 135.70047 87.06859 136.6768 90.07532 137.65312 93.01604 138.6293 95.8698 139.6056 98.61755 140.58179 101.23804 141.5581 103.71364 142.53444 106.02782 143.51062 108.16264 144.48694 110.10527 145.4631 111.8399 146.43944 113.3563 147.41577 114.6405 148.39192 115.68661 149.36824 116.4859 150.34442 117.03464 151.32074 117.32663 152.29706 117.35928 153.27324 117.1348 154.24958 116.6528 155.22573 115.91882 156.20207 114.93687 157.1784 113.71136 158.15456 112.2544 159.13086 110.57588 160.10704 108.6872 161.08338 106.60042 162.0597 104.33134 163.03588 101.89499 164.01219 99.31082 164.98838 96.5946 165.96469 93.76726 166.94101 90.84598 167.91719 87.85466 168.89351 84.81235 169.86968 81.74217 170.84601 78.66428 171.82233 75.59996 172.7985 72.5727 173.77483 69.60117 174.751 66.70853 175.72733 63.91454 176.70365 61.23758 177.67981 58.69962 178.65615 56.3161 179.6323 54.10425 180.60863 52.0791 181.58495 50.25531 182.56113 48.64687 183.53745 47.26436 184.51363 46.11772 185.48996 45.21317 186.46628 44.55879 187.44246 44.16006 188.41878 44.01884 189.39493 44.13622 190.37125 44.51 191.34758 45.1387 192.32376 46.01721 193.30008 47.14223 192.59265 46.15561"/>
<path transform="matrix(-.58251169,.8128006,.81277629,.58252909,5.4688088,47.959947)" d="M2.8892 0-1.73352 2.31136 0 0-1.73352-2.31136" fill="#0000ff" fill-opacity=".5"/>
<path transform="matrix(.58273169,-.8126606,-.81263628,-.58274909,196.38233,117.04244)" d="M2.8892 0-1.73352 2.31136 0 0-1.73352-2.31136" fill="#0000ff" fill-opacity=".5"/>
<use data-text="y" xlink:href="#font_3_3" transform="matrix(9.962799,0,0,-9.963098,201.88477,115.87099)" fill="#0000ff" fill-opacity=".5"/>
<use data-text="=" xlink:href="#font_2_4" transform="matrix(9.962799,0,0,-9.963098,209.89493,115.87099)" fill="#0000ff" fill-opacity=".5"/>
<use data-text="c" xlink:href="#font_2_5" transform="matrix(9.962799,0,0,-9.963098,220.39572,115.87099)" fill="#0000ff" fill-opacity=".5"/>
<use data-text="o" xlink:href="#font_2_6" transform="matrix(9.962799,0,0,-9.963098,224.81922,115.87099)" fill="#0000ff" fill-opacity=".5"/>
<use data-text="s" xlink:href="#font_2_7" transform="matrix(9.962799,0,0,-9.963098,229.8006,115.87099)" fill="#0000ff" fill-opacity=".5"/>
<use data-text="x" xlink:href="#font_3_2" transform="matrix(9.962799,0,0,-9.963098,235.41045,115.87099)" fill="#0000ff" fill-opacity=".5"/>
<path transform="matrix(1.00002,0,0,-1.00005,3.7858048,163.20035)" stroke-width=".99628" stroke-linecap="butt" stroke-miterlimit="10" stroke-linejoin="miter" fill="none" stroke="#ff0000" d="M.97473 147.79467 .97624 147.79889 1.9525 150.05109 2.92877 151.81104 3.90503 153.06919 4.8813 153.81967 5.85756 154.0559 6.83383 153.77492 7.81009 152.97969 8.78636 151.67311 9.76262 149.86621 10.73888 147.57366 11.71513 144.81087 12.6914 141.59615 13.66766 137.95008 14.64394 133.90196 15.6202 129.47972 16.59645 124.71416 17.57272 119.63753 18.54898 114.2858 19.52525 108.69783 20.5015 102.914 21.47777 96.9717 22.45403 90.91714 23.4303 84.78926 24.40656 78.63345 25.38283 72.49236 26.35909 66.40627 27.33536 60.42288 28.31161 54.58183 29.28789 48.92711 30.26413 43.4932 31.24039 38.3212 32.21666 33.44852 33.19292 28.90817 34.16919 24.73535 35.14545 20.95502 36.12172 17.5958 37.09798 14.67966 38.07425 12.22937 39.0505 10.26329 40.02676 8.79239 41.00302 7.82767 41.9793 7.37503 42.95555 7.43814 43.93182 8.02136 44.90808 9.1159 45.88435 10.71375 46.86061 12.80307 47.83687 15.37148 48.81314 18.40057 49.78938 21.86838 50.76566 25.75288 51.74191 30.02106 52.71819 34.64651 53.69444 39.59843 54.67072 44.83865 55.64697 50.3327 56.62325 56.03954 57.5995 61.92093 58.57578 67.93294 59.55203 74.03514 60.52829 80.18506 61.50455 86.33719 62.4808 92.45041 63.45708 98.48221 64.43333 104.38783 65.4096 110.1269 66.38586 115.65837 67.36214 120.94409 68.3384 125.94589 69.31467 130.6293 70.29091 134.95766 71.26718 138.90818 72.24344 142.44568 73.21971 145.55107 74.19597 148.19944 75.17224 150.36873 76.1485 152.04946 77.12477 153.22692 78.10103 153.89377 79.07729 154.04857 80.05354 153.68029 81.0298 152.79996 82.00607 151.41121 82.98233 149.52729 83.9586 147.15845 84.93486 144.3186 85.91113 141.0298 86.88739 137.3177 87.86366 133.20723 88.83992 128.72779 89.81618 123.9079 90.79243 118.78358 91.76869 113.39151 92.74496 107.76833 93.72124 101.95514 94.6975 95.99377 95.67375 89.9231 96.65002 83.78712 97.62628 77.63135 98.60262 71.4961 99.57877 65.42543 100.5551 59.46185 101.53127 53.6494 102.5076 48.02548 103.48392 42.63121 104.4601 37.50616 105.43642 32.68628 106.4126 28.20537 107.38892 24.09271 108.36523 20.3784 109.3414 17.0896 110.31772 14.24829 111.2939 11.87651 112.27022 9.9889 113.24655 8.60017 114.22272 7.71764 115.19905 7.34863 116.17522 7.50049 117.15154 8.16661 118.12787 9.34187 119.10405 11.01892 120.08035 13.18823 121.05653 15.83365 122.03287 18.93684 123.00919 22.4736 123.98534 26.42194 124.96167 30.74954 125.93784 35.43149 126.91417 40.43256 127.89049 45.71753 128.86669 51.24753 129.84297 56.98442 130.81916 62.89005 131.79549 68.92184 132.7718 75.03435 133.74799 81.1872 134.7243 87.33563 135.70047 93.43932 136.6768 99.45277 137.65312 105.3342 138.6293 111.04173 139.6056 116.53725 140.58179 121.77821 141.5581 126.7294 142.53444 131.35778 143.51062 135.62744 144.48694 139.51268 145.4631 142.98195 146.43944 146.01473 147.41577 148.58313 148.39192 150.67539 149.36824 152.27394 150.34442 153.37143 151.32074 153.9554 152.29706 154.02069 153.27324 153.57172 154.24958 152.60774 155.22573 151.13979 156.20207 149.17589 157.1784 146.72487 158.15456 143.81093 159.13086 140.4539 160.10704 136.67652 161.08338 132.50296 162.0597 127.9648 163.03588 123.09213 164.01219 117.9238 164.98838 112.49136 165.96469 106.83664 166.94101 100.99411 167.91719 95.01146 168.89351 88.92683 169.86968 82.78647 170.84601 76.63069 171.82233 70.50206 172.7985 64.44751 173.77483 58.50449 174.751 52.71918 175.72733 47.13121 176.70365 41.77728 177.67981 36.70139 178.65615 31.93433 179.6323 27.51064 180.60863 23.46033 181.58495 19.81277 182.56113 16.59587 183.53745 13.83086 184.51363 11.53758 185.48996 9.72849 186.46628 8.41971 187.44246 7.62227 188.41878 7.33983 189.39493 7.57457 190.37125 8.32213 191.34758 9.57954 192.32376 11.33658 193.30008 13.58658 193.30112 13.58951"/>
<path transform="matrix(-.33737678,.94137707,.94134888,.33738686,4.7605545,15.398285)" d="M2.8892 0-1.73352 2.31136 0 0-1.73352-2.31136" fill="#ff0000"/>
<path transform="matrix(.33751676,-.941317,-.9412888,-.33752687,197.09079,149.61017)" d="M2.8892 0-1.73352 2.31136 0 0-1.73352-2.31136" fill="#ff0000"/>
<use data-text="y" xlink:href="#font_3_3" transform="matrix(9.962799,0,0,-9.963098,201.88477,149.13265)" fill="#ff0000"/>
<use data-text="=" xlink:href="#font_2_4" transform="matrix(9.962799,0,0,-9.963098,209.89493,149.13265)" fill="#ff0000"/>
<use data-text="2" xlink:href="#font_2_2" transform="matrix(9.962799,0,0,-9.963098,220.39572,149.13265)" fill="#ff0000"/>
<use data-text="c" xlink:href="#font_2_5" transform="matrix(9.962799,0,0,-9.963098,227.04093,149.13265)" fill="#ff0000"/>
<use data-text="o" xlink:href="#font_2_6" transform="matrix(9.962799,0,0,-9.963098,231.46439,149.13265)" fill="#ff0000"/>
<use data-text="s" xlink:href="#font_2_7" transform="matrix(9.962799,0,0,-9.963098,236.44579,149.13265)" fill="#ff0000"/>
<use data-text="x" xlink:href="#font_3_2" transform="matrix(9.962799,0,0,-9.963098,242.05258,149.13265)" fill="#ff0000"/>
<path transform="matrix(1.00002,0,0,-1.00005,3.7858048,163.20035)" stroke-width=".99628" stroke-linecap="butt" stroke-miterlimit="10" stroke-linejoin="miter" fill="none" stroke="#ff8000" d="M2.3696 98.44496 .97624 97.47311 1.9525 98.03616 2.92877 98.47617 3.90503 98.79068 4.8813 98.97832 5.85756 99.03737 6.83383 98.96712 7.81009 98.76833 8.78636 98.44167 9.76262 97.98996 10.73888 97.41681 11.71513 96.7261 12.6914 95.92244 13.66766 95.01091 14.64394 93.99889 15.6202 92.89333 16.59645 91.70193 17.57272 90.43277 18.54898 89.09485 19.52525 87.69785 20.5015 86.25189 21.47777 84.76631 22.45403 83.25269 23.4303 81.7207 24.40656 80.18176 25.38283 78.64648 26.35909 77.12497 27.33536 75.62912 28.31161 74.16885 29.28789 72.75517 30.26413 71.3967 31.24039 70.1037 32.21666 68.88553 33.19292 67.75044 34.16919 66.70723 35.14545 65.76216 36.12172 64.92233 37.09798 64.19331 38.07425 63.58075 39.0505 63.08922 40.02676 62.72148 41.00302 62.48032 41.9793 62.36716 42.95555 62.38293 43.93182 62.52873 44.90808 62.80237 45.88435 63.20184 46.86061 63.72417 47.83687 64.36626 48.81314 65.12354 49.78938 65.9905 50.76566 66.96162 51.74191 68.02866 52.71819 69.18503 53.69444 70.423 54.67072 71.73306 55.64697 73.10658 56.62325 74.53328 57.5995 76.00363 58.57578 77.50662 59.55203 79.0322 60.52829 80.56966 61.50455 82.10768 62.4808 83.636 63.45708 85.14395 64.43333 86.62035 65.4096 88.05513 66.38586 89.43799 67.36214 90.75941 68.3384 92.00987 69.31467 93.18071 70.29091 94.2628 71.26718 95.25044 72.24344 96.13481 73.21971 96.91118 74.19597 97.57326 75.17224 98.11559 76.1485 98.53577 77.12477 98.83012 78.10103 98.99684 79.07729 99.03554 80.05354 98.94347 81.0298 98.72339 82.00607 98.3762 82.98233 97.90521 83.9586 97.313 84.93486 96.60304 85.91113 95.78085 86.88739 94.85281 87.86366 93.82521 88.83992 92.70534 89.81618 91.50037 90.79243 90.2193 91.76869 88.87128 92.74496 87.46547 93.72124 86.01219 94.6975 84.52184 95.67375 83.00418 96.65002 81.47017 97.62628 79.93123 98.60262 78.39742 99.57877 76.87976 100.5551 75.38887 101.53127 73.93575 102.5076 72.52977 103.48392 71.1812 104.4601 69.89993 105.43642 68.69496 106.4126 67.57474 107.38892 66.54657 108.36523 65.618 109.3414 64.79579 110.31772 64.08546 111.2939 63.49252 112.27022 63.02063 113.24655 62.67345 114.22272 62.4528 115.19905 62.36057 116.17522 62.39851 117.15154 62.56506 118.12787 62.85887 119.10405 63.27812 120.08035 63.82045 121.05653 64.48181 122.03287 65.25761 123.00919 66.1418 123.98534 67.12888 124.96167 68.21078 125.93784 69.38127 126.91417 70.63153 127.89049 71.95277 128.86669 73.33528 129.84297 74.76952 130.81916 76.24591 131.79549 77.75386 132.7718 79.28198 133.74799 80.82019 134.7243 82.3573 135.70047 83.88324 136.6768 85.38658 137.65312 86.85695 138.6293 88.28383 139.6056 89.6577 140.58179 90.96794 141.5581 92.20575 142.53444 93.36284 143.51062 94.43025 144.48694 95.40157 145.4631 96.26888 146.43944 97.02707 147.41577 97.66917 148.39192 98.19225 149.36824 98.59187 150.34442 98.86626 151.32074 99.01224 152.29706 99.02856 153.27324 98.91634 154.24958 98.67534 155.22573 98.30835 156.20207 97.81737 157.1784 97.20462 158.15456 96.47612 159.13086 95.63687 160.10704 94.69252 161.08338 93.64914 162.0597 92.5146 163.03588 91.29643 164.01219 90.00433 164.98838 88.64624 165.96469 87.23256 166.94101 85.77193 167.91719 84.27626 168.89351 82.75511 169.86968 81.22002 170.84601 79.68108 171.82233 78.14891 172.7985 76.63528 173.77483 75.1495 174.751 73.7032 175.72733 72.3062 176.70365 70.96771 177.67981 69.69873 178.65615 68.50697 179.6323 67.40105 180.60863 66.38847 181.58495 65.47661 182.56113 64.67235 183.53745 63.98111 184.51363 63.40779 185.48996 62.95552 186.46628 62.62833 187.44246 62.42897 188.41878 62.35835 189.39493 62.41705 190.37125 62.60393 191.34758 62.91829 192.32376 63.35753 193.30008 63.92004 191.90628 62.94832"/>
<path transform="matrix(-.8201764,.57209858,.57208147,.8202009,6.1554524,64.750469)" d="M2.8892 0-1.73352 2.31136 0 0-1.73352-2.31136" fill="#ff8000"/>
<path transform="matrix(.82029649,-.57192859,-.57191148,-.82032099,195.69593,100.248889)" d="M2.8892 0-1.73352 2.31136 0 0-1.73352-2.31136" fill="#ff8000"/>
<use data-text="y" xlink:href="#font_3_3" transform="matrix(9.962799,0,0,-9.963098,201.88477,101.08725)" fill="#ff8000"/>
<use data-text="=" xlink:href="#font_2_4" transform="matrix(9.962799,0,0,-9.963098,209.89493,101.08725)" fill="#ff8000"/>
<use data-text="1" xlink:href="#font_4_1" transform="matrix(6.97394,0,0,-6.9741489,221.60617,97.16405)" fill="#ff8000"/>
<path transform="matrix(1.00002,0,0,-1.00005,105.20683,-45.9211)" stroke-width=".3985" stroke-linecap="butt" stroke-miterlimit="10" stroke-linejoin="miter" fill="none" stroke="#ff8000" d="M116.397-144.51H120.368"/>
<use data-text="2" xlink:href="#font_4_2" transform="matrix(6.97394,0,0,-6.9741489,221.60617,104.52341)" fill="#ff8000"/>
<use data-text="c" xlink:href="#font_2_5" transform="matrix(9.962799,0,0,-9.963098,228.4333,101.087238)" fill="#ff8000"/>
<use data-text="o" xlink:href="#font_2_6" transform="matrix(9.962799,0,0,-9.963098,232.85678,101.087238)" fill="#ff8000"/>
<use data-text="s" xlink:href="#font_2_7" transform="matrix(9.962799,0,0,-9.963098,237.83818,101.087238)" fill="#ff8000"/>
<use data-text="x" xlink:href="#font_3_2" transform="matrix(9.962799,0,0,-9.963098,243.4336,101.087238)" fill="#ff8000"/>
<use data-text="x" xlink:href="#font_3_2" transform="matrix(9.962799,0,0,-9.963098,188.8555,78.97814)"/>
<use data-text="y" xlink:href="#font_3_3" transform="matrix(9.962799,0,0,-9.963098,86.18245,9.606674)"/>
</svg>
