<svg xmlns="http://www.w3.org/2000/svg" xmlns:xlink="http://www.w3.org/1999/xlink" version="1.1" width="197" height="165" viewBox="0 0 197 165">
<defs>
<path id="font_1_1" d="M.6589966 .23046875C.6759949 .23046875 .69400027 .23046875 .69400027 .25045777 .69400027 .27046205 .6759949 .27046205 .6589966 .27046205H.117996219C.100997928 .27046205 .08299255 .27046205 .08299255 .25045777 .08299255 .23046875 .100997928 .23046875 .117996219 .23046875H.6589966Z"/>
<path id="font_2_1" d="M.31098939 .36265565H.42999269C.4149933 .30274964 .3929901 .2118988 .3929901 .13302613 .3929901 .09309387 .397995 .06613159 .4039917 .044174196 .41999818-.0057678224 .43299867-.009765625 .44898988-.009765625 .47200013-.009765625 .49598695 .011230469 .49598695 .035186769 .49598695 .043182374 .49398805 .047164918 .48799134 .057159425 .46899415 .09408569 .45098878 .15100098 .45098878 .23286438 .45098878 .25183106 .45098878 .29177857 .46499635 .36265565H.58999636C.60798647 .36265565 .6159973 .36265565 .6269989 .37065126 .6409912 .380661 .6439972 .39665223 .6439972 .4016571 .6439972 .43066407 .6179962 .43066407 .6009979 .43066407H.22399903C.18299866 .43066407 .15499878 .42166139 .10998535 .37965394 .083999637 .35665895 .04499817 .30274964 .04499817 .2937622 .04499817 .28178407 .057998659 .28178407 .06199646 .28178407 .07299805 .28178407 .07398987 .28378297 .07998657 .2927704 .1309967 .36265565 .19299317 .36265565 .21499634 .36265565H.27598573C.24499512 .25283814 .19099427 .13502503 .16099549 .07511902 .15499878 .062149049 .14498902 .04118347 .14199829 .03718567 .14099121 .033187868 .13899231 .029190064 .13899231 .022201539 .13899231 .006225586 .15098572-.009765625 .17399597-.009765625 .21398926-.009765625 .22499085 .035186769 .24899292 .12504578L.31098939 .36265565Z"/>
<path id="font_3_1" d="M.5049896 .18203736H.47099305C.46798707 .16001892 .45799256 .100997928 .44499208 .09098816 .43699647 .084991458 .3600006 .084991458 .34599305 .084991458H.1619873C.2669983 .17803955 .3019867 .20603943 .3619995 .25306703 .43598939 .312088 .5049896 .374115 .5049896 .46914674 .5049896 .5900879 .39898683 .6640625 .2709961 .6640625 .14698792 .6640625 .06298828 .57710269 .06298828 .4851532 .06298828 .43414308 .10598755 .42915345 .115997318 .42915345 .13999939 .42915345 .16899109 .44615174 .16899109 .48214723 .16899109 .5001526 .1619873 .53515627 .10998535 .53515627 .14099121 .6060791 .20899964 .62805178 .2559967 .62805178 .35598756 .62805178 .4079895 .5501404 .4079895 .46914674 .4079895 .38212586 .34599305 .3130951 .31399537 .27708436L.07299805 .038986207C.06298828 .02999878 .06298828 .027999878 .06298828 0H.47499085L.5049896 .18203736Z"/>
<path id="font_4_3" d="M.2939911 .64004519C.2939911 .66400149 .2939911 .6660156 .2709961 .6660156 .20899964 .60227969 .12098694 .60227969 .08898926 .60227969V.57128909C.10899353 .57128909 .16799927 .57128909 .21998596 .5972748V.07902527C.21998596 .042999269 .21699524 .0309906 .1269989 .0309906H.09498596V0C.12998963 .0029907227 .21699524 .0029907227 .25698854 .0029907227 .29699708 .0029907227 .38398744 .0029907227 .4189911 0V.0309906H.3869934C.29699708 .0309906 .2939911 .041992189 .2939911 .07902527V.64004519Z"/>
<path id="font_5_1" d="M.36698915 .3996582H.45298768C.47299195 .3996582 .48298646 .3996582 .48298646 .41966249 .48298646 .43066407 .47299195 .43066407 .45599366 .43066407H.37298585L.3939972 .5449524C.397995 .5660095 .4119873 .6370239 .41799928 .6490326 .4269867 .66804507 .44400025 .68307498 .46499635 .68307498 .46899415 .68307498 .49499513 .68307498 .5139923 .66503909 .46998597 .661026 .45999146 .6260376 .45999146 .6110382 .45999146 .58802798 .47799684 .57603457 .49699403 .57603457 .522995 .57603457 .5519867 .5980377 .5519867 .6360321 .5519867 .6820679 .5059967 .7050781 .46499635 .7050781 .43099977 .7050781 .36799623 .68707278 .33799745 .58802798 .33198548 .56700137 .32899476 .5569763 .30499269 .43066407H.23599243C.21699524 .43066407 .20599365 .43066407 .20599365 .4116516 .20599365 .3996582 .21499634 .3996582 .23399353 .3996582H.2999878L.22499085 .0048828127C.20698548-.09207153 .18998719-.18309021 .13798523-.18309021 .13398743-.18309021 .10899353-.18309021 .08999634-.16506958 .13598633-.1620636 .14498902-.12606812 .14498902-.111068729 .14498902-.08807373 .1269989-.07606506 .10798645-.07606506 .08198547-.07606506 .052993776-.09806824 .052993776-.13606262 .052993776-.18109131 .09700012-.20507813 .13798523-.20507813 .19299317-.20507813 .23298645-.14607239 .25099183-.108062747 .2829895-.04508972 .30599977 .07583618 .30699159 .082839969L.36698915 .3996582Z"/>
<path id="font_4_1" d="M.33099366-.2400055C.33099366-.23701477 .33099366-.23500061 .31399537-.21800232 .18899536-.0920105 .15699768 .09700012 .15699768 .25 .15699768 .42399598 .19499207 .59799197 .31799317 .72299197 .33099366 .73498538 .33099366 .7369995 .33099366 .73999026 .33099366 .746994 .32699586 .75 .32099916 .75 .31098939 .75 .22099304 .6819916 .1619873 .5549927 .11099243 .44499208 .09899902 .33399964 .09899902 .25 .09899902 .17199707 .10998535 .050994874 .16499329-.06201172 .22499085-.18501282 .31098939-.25 .32099916-.25 .32699586-.25 .33099366-.24700928 .33099366-.2400055Z"/>
<path id="font_5_2" d="M.33399964 .30233766C.33999635 .32835389 .36299134 .42037965 .43299867 .42037965 .43798829 .42037965 .46199037 .42037965 .48298646 .40734864 .45498658 .402359 .43499757 .37734986 .43499757 .35334779 .43499757 .33735658 .44599916 .31835938 .47299195 .31835938 .49499513 .31835938 .5269928 .3363495 .5269928 .37635804 .5269928 .42837525 .46798707 .4423828 .43399049 .4423828 .37599183 .4423828 .34098817 .38935853 .32899476 .36634828 .3039856 .43237306 .25 .4423828 .22099304 .4423828 .116989139 .4423828 .05999756 .3133545 .05999756 .28834535 .05999756 .27833558 .069992069 .27833558 .07199097 .27833558 .07998657 .27833558 .08299255 .28033448 .084991458 .28933717 .11898804 .39535523 .18499756 .42037965 .21899414 .42037965 .23799134 .42037965 .272995 .4113617 .272995 .35334779 .272995 .32235719 .2559967 .25532533 .21899414 .11528015 .20298767 .053268434 .16799927 .011245728 .12399292 .011245728 .117996219 .011245728 .09498596 .011245728 .07398987 .024276734 .09899902 .029266358 .12098694 .05027771 .12098694 .07827759 .12098694 .105270389 .09899902 .11328125 .083999637 .11328125 .053985597 .11328125 .0289917 .08728027 .0289917 .055267335 .0289917 .009246826 .07899475-.0107421879 .12298584-.0107421879 .18899536-.0107421879 .22499085 .059280397 .22799683 .0652771 .23999024 .028274537 .27598573-.0107421879 .33599855-.0107421879 .43899537-.0107421879 .49598695 .118270877 .49598695 .14328003 .49598695 .1532898 .4869995 .1532898 .48399354 .1532898 .47499085 .1532898 .47299195 .14929199 .47099305 .14228821 .43798829 .03527832 .36999513 .011245728 .33799745 .011245728 .29899598 .011245728 .2829895 .043273927 .2829895 .07727051 .2829895 .09927368 .2889862 .121276859 .2999878 .16529846L.33399964 .30233766Z"/>
<path id="font_4_2" d="M.2889862 .25C.2889862 .32798768 .27799989 .44898988 .22299195 .56199648 .16299439 .68499758 .07699585 .75 .066986087 .75 .06098938 .75 .056991579 .74598696 .056991579 .73999026 .056991579 .7369995 .056991579 .73498538 .07598877 .71699526 .17399597 .6179962 .23098755 .45899964 .23098755 .25 .23098755 .07899475 .19400025-.09700012 .069992069-.2230072 .056991579-.23500061 .056991579-.23701477 .056991579-.2400055 .056991579-.2460022 .06098938-.25 .066986087-.25 .07699585-.25 .16699219-.18200684 .22599793-.055007936 .2769928 .054992677 .2889862 .16600037 .2889862 .25Z"/>
<path id="font_4_4" d="M.68699648 .32714845C.70199587 .32714845 .72099307 .32714845 .72099307 .34713746 .72099307 .36714173 .70199587 .36714173 .6879883 .36714173H.08898926C.07499695 .36714173 .055999757 .36714173 .055999757 .34713746 .055999757 .32714845 .07499695 .32714845 .08999634 .32714845H.68699648M.6879883 .13284302C.70199587 .13284302 .72099307 .13284302 .72099307 .15284729 .72099307 .17285156 .70199587 .17285156 .68699648 .17285156H.08999634C.07499695 .17285156 .055999757 .17285156 .055999757 .15284729 .055999757 .13284302 .07499695 .13284302 .08898926 .13284302H.6879883Z"/>
<path id="font_4_7" d="M.20799256 .19424439C.22999573 .19024658 .31199647 .17424011 .31199647 .102249149 .31199647 .051254274 .2769928 .011245728 .19898987 .011245728 .114990238 .011245728 .07899475 .06825256 .05999756 .15324402 .056991579 .1662445 .055999757 .17024231 .04598999 .17024231 .032989503 .17024231 .032989503 .16323853 .032989503 .14524842V.013244629C.032989503-.003753662 .032989503-.0107421879 .04399109-.0107421879 .04899597-.0107421879 .049987794-.009750366 .068984989 .009246826 .070999149 .011245728 .070999149 .013244629 .08898926 .03224182 .1329956-.009750366 .17799378-.0107421879 .19898987-.0107421879 .31399537-.0107421879 .3600006 .056243898 .3600006 .12825012 .3600006 .1812439 .32998658 .21124268 .31799317 .22323609 .2849884 .25523377 .24598694 .26324464 .20399475 .27124024 .147995 .28224183 .08099365 .2952423 .08099365 .35324098 .08099365 .38822938 .10699463 .42922975 .19299317 .42922975 .30299378 .42922975 .30799867 .3392334 .30999757 .3082428 .31098939 .2992401 .31999208 .2992401 .32199098 .2992401 .33499146 .2992401 .33499146 .304245 .33499146 .3232422V.4242401C.33499146 .4412384 .33499146 .4482422 .32398988 .4482422 .31900025 .4482422 .31698609 .4482422 .3039856 .43623353 .30099488 .43223573 .29100038 .42323304 .2869873 .42022706 .24899292 .4482422 .20799256 .4482422 .19299317 .4482422 .070999149 .4482422 .032989503 .38124085 .032989503 .3252411 .032989503 .29023744 .04899597 .26223756 .07598877 .24023438 .10798645 .21424866 .13598633 .2082367 .20799256 .19424439Z"/>
<path id="font_4_5" d="M.1769867 .4423828 .036987306 .43138124V.40037538C.101989749 .40037538 .11099243 .3943634 .11099243 .34532167V.076034549C.11099243 .0309906 .099990848 .0309906 .032989503 .0309906V0C.06498718 .0009918213 .11898804 .0029907227 .14299011 .0029907227 .17799378 .0029907227 .21299744 .0009918213 .24699402 0V.0309906C.18099976 .0309906 .1769867 .035995485 .1769867 .075042728V.4423828M.18099976 .6159363C.18099976 .64793398 .1559906 .6689453 .12799073 .6689453 .09700012 .6689453 .07499695 .64193728 .07499695 .6159363 .07499695 .5889435 .09700012 .5629425 .12799073 .5629425 .1559906 .5629425 .18099976 .5839386 .18099976 .6159363Z"/>
<path id="font_4_6" d="M.10998535 .34429933V.076034549C.10998535 .0309906 .09899902 .0309906 .03199768 .0309906V0C.066986087 .0009918213 .117996219 .0029907227 .14498902 .0029907227 .17098999 .0029907227 .22299195 .0009918213 .25698854 0V.0309906C.18998719 .0309906 .1789856 .0309906 .1789856 .076034549V.2602234C.1789856 .36431886 .25 .42037965 .31399537 .42037965 .3769989 .42037965 .3880005 .36631776 .3880005 .30926515V.076034549C.3880005 .0309906 .3769989 .0309906 .30999757 .0309906V0C.34498597 .0009918213 .3959961 .0029907227 .4229889 .0029907227 .44898988 .0029907227 .5009918 .0009918213 .5349884 0V.0309906C.48298646 .0309906 .45799256 .0309906 .45700074 .061019899V.25221253C.45700074 .3383026 .45700074 .36932374 .42599488 .405365 .4119873 .42237855 .3789978 .4423828 .32099916 .4423828 .24798584 .4423828 .20098877 .39935304 .17298889 .33729554V.4423828L.03199768 .43138124V.40037538C.101989749 .4003601 .10998535 .39335633 .10998535 .34429933Z"/>
<path id="font_5_3" d="M.48599244 .38136292C.48999024 .39537049 .48999024 .39736939 .48999024 .40437318 .48999024 .42237855 .47599793 .43138124 .46099855 .43138124 .45098878 .43138124 .43499757 .42536927 .42599488 .41036988 .42399598 .405365 .41600038 .37435914 .4119873 .35635377 .40499879 .33035279 .397995 .30334474 .3919983 .27633668L.34700013 .09628296C.34298707 .08126831 .2999878 .011245728 .23399353 .011245728 .18299866 .011245728 .17199707 .055267335 .17199707 .0922699 .17199707 .1382904 .18899536 .20030213 .22299195 .28833009 .23899842 .3293457 .24299622 .3403473 .24299622 .36035157 .24299622 .405365 .21099854 .4423828 .16099549 .4423828 .06599426 .4423828 .0289917 .29733277 .0289917 .28833009 .0289917 .27833558 .038986207 .27833558 .040985109 .27833558 .050994874 .27833558 .051986696 .28033448 .056991579 .29634095 .083999637 .3903656 .12399292 .42037965 .1579895 .42037965 .1659851 .42037965 .18299866 .42037965 .18299866 .3883667 .18299866 .36335755 .17298889 .3373413 .1659851 .31834413 .12599182 .21231079 .10798645 .1552887 .10798645 .10827637 .10798645 .019256592 .17098999-.0107421879 .22999573-.0107421879 .2689972-.0107421879 .30299378 .0062561037 .33099366 .03425598 .31799317-.017745972 .30599977-.06674194 .2659912-.11973572 .23999024-.15385437 .20199585-.18309021 .1559906-.18309021 .14199829-.18309021 .09700012-.18005371 .07998657-.14074707 .09599304-.14074707 .10899353-.14074707 .12298584-.1287384 .1329956-.11973572 .14299011-.10673523 .14299011-.08773804 .14299011-.056747438 .115997318-.052734376 .10598755-.052734376 .08299255-.052734376 .049987794-.068740848 .049987794-.11773682 .049987794-.16796875 .09399414-.20507813 .1559906-.20507813 .25898744-.20507813 .3619995-.11373901 .3899994-.00074768069L.48599244 .38136292Z"/>
</defs>
<path transform="matrix(1.00008,0,0,-1.00005,1.0966492,163.20035)" stroke-width=".19925" stroke-linecap="butt" stroke-miterlimit="10" stroke-linejoin="miter" fill="none" stroke="#929292" d="M23.45436 78.57173V82.82384M170.82193 78.57173V82.82384"/>
<path transform="matrix(1.00008,0,0,-1.00005,1.0966492,163.20035)" stroke-width=".19925" stroke-linecap="butt" stroke-miterlimit="10" stroke-linejoin="miter" fill="none" stroke="#929292" d="M95.01227 16.13956H99.26402M95.01227 145.25605H99.26402"/>
<path transform="matrix(1.00008,0,0,-1.00005,1.0966492,163.20035)" stroke-width=".3985" stroke-linecap="butt" stroke-miterlimit="10" stroke-linejoin="miter" fill="none" stroke="#000000" d="M0 80.6978H192.28379"/>
<path transform="matrix(1.00008,0,0,-1.00005,193.39582,82.49852)" d="M1.99252 0-1.19551 1.59401 0 0-1.19551-1.59401"/>
<path transform="matrix(1.00008,0,0,-1.00005,1.0966492,163.20035)" stroke-width=".3985" stroke-linecap="butt" stroke-miterlimit="10" stroke-linejoin="miter" fill="none" stroke="#000000" d="M97.13814 0V159.40308"/>
<path transform="matrix(0,-1.00005,-1.00008,-0,98.24255,3.7893067)" d="M1.99252 0-1.19551 1.59401 0 0-1.19551-1.59401"/>
<use data-text="&#x2212;" xlink:href="#font_1_1" transform="matrix(9.963397,0,0,-9.963098,17.027924,95.06995)"/>
<use data-text="&#x03c0;" xlink:href="#font_2_1" transform="matrix(6.974358,0,0,-6.9741489,25.972641,91.14674)"/>
<path transform="matrix(1.00008,0,0,-1.00005,-66.273738,-51.9384)" stroke-width=".3985" stroke-linecap="butt" stroke-miterlimit="10" stroke-linejoin="miter" fill="none" stroke="#000000" d="M92.239-144.51H97.148"/>
<use data-text="2" xlink:href="#font_3_1" transform="matrix(6.974358,0,0,-6.9741489,26.44168,98.50511)"/>
<use data-text="&#x03c0;" xlink:href="#font_2_1" transform="matrix(6.974358,0,0,-6.9741489,169.47812,91.14674)"/>
<path transform="matrix(1.00008,0,0,-1.00005,84.980358,-51.9384)" stroke-width=".3985" stroke-linecap="butt" stroke-miterlimit="10" stroke-linejoin="miter" fill="none" stroke="#000000" d="M84.491-144.51H89.4"/>
<use data-text="2" xlink:href="#font_3_1" transform="matrix(6.974358,0,0,-6.9741489,169.94715,98.50511)"/>
<use data-text="&#x2212;" xlink:href="#font_1_1" transform="matrix(9.963397,0,0,-9.963098,79.86495,149.85569)"/>
<use data-text="1" xlink:href="#font_4_3" transform="matrix(9.963397,0,0,-9.963098,87.61458,149.85569)"/>
<use data-text="1" xlink:href="#font_4_3" transform="matrix(9.963397,0,0,-9.963098,87.61457,21.147248)"/>
<path transform="matrix(1.00008,0,0,-1.00005,1.0966492,163.20035)" stroke-width=".99628" stroke-linecap="butt" stroke-miterlimit="10" stroke-linejoin="miter" fill="none" stroke="#ec008c" d="M23.45436 16.14082 24.19489 16.14922 24.93542 16.17375 25.67595 16.21507 26.41647 16.27124 27.157 16.34421 27.89754 16.43329 28.63806 16.5353 29.37859 16.656 30.11913 16.79288 30.85966 16.9446 31.60017 17.1118 32.34071 17.29579 33.08125 17.4972 33.82178 17.71281 34.5623 17.94395 35.30283 18.1912 36.04337 18.4546 36.78389 18.73221 37.52441 19.0253 38.26495 19.3313 39.0055 19.65605 39.746 19.99495 40.48654 20.35068 41.22707 20.72125 41.9676 21.10538 42.70813 21.50499 43.44865 21.9188 44.1892 22.34746 44.92972 22.79099 45.67024 23.2474 46.41078 23.71805 47.15132 24.20544 47.89183 24.70578 48.63237 25.22096 49.3729 25.74904 50.11342 26.2907 50.85396 26.84653 51.59448 27.41399 52.33502 27.99567 53.07556 28.5909 53.81607 29.19775 54.55661 29.81943 55.29715 30.45404 56.03766 31.10092 56.7782 31.75812 57.51872 32.42952 58.25925 33.11255 58.99979 33.8072 59.74031 34.51283 60.48085 35.23071 61.22139 35.95892 61.9619 36.69812 62.70244 37.45087 63.44298 38.212 64.18349 38.98477 64.92403 39.76851 65.66455 40.56256 66.40508 41.36568 67.14561 42.17845 67.88614 43.00095 68.62668 43.83244 69.36722 44.67365 70.10773 45.52258 70.84827 46.3812 71.5888 47.25015 72.32933 48.12492 73.06987 49.01001 73.81038 49.90222 74.55092 50.80151 75.29146 51.70792 76.03197 52.62206 76.7725 53.5433 77.51305 54.46971 78.25356 55.4058 78.9941 56.34642 79.73463 57.29413 80.47516 58.24701 81.2157 59.20442 81.9562 60.16763 82.69675 61.136 83.43729 62.11017 84.1778 63.08952 84.91833 64.07146 85.65887 65.05855 86.3994 66.04951 87.13992 67.04243 87.88046 68.0405 88.62099 69.04243 89.36151 70.04503 90.10204 71.05214 90.84258 72.06055 91.58311 73.07152 92.32362 74.08379 93.06416 75.09865 93.8047 76.11543 94.54523 77.13289 95.28575 78.15033 96.02629 79.16905 96.76682 80.18779 97.50734 81.2052 98.24791 82.2246 98.98837 83.24203 99.72896 84.26076 100.4694 85.27754 101.20999 86.29434 101.95056 87.3079 102.69102 88.32149 103.4316 89.3318 104.17207 90.34085 104.91264 91.34666 105.65321 92.3512 106.39368 93.35185 107.13425 94.34991 107.87473 95.34412 108.61528 96.33508 109.35587 97.32153 110.09633 98.30412 110.8369 99.28217 111.57736 100.2557 112.31795 101.22472 113.05852 102.18858 113.79898 103.14662 114.53955 104.09949 115.28001 105.04593 116.02058 105.98784 116.76115 106.92264 117.50162 107.8497 118.2422 108.77028 118.98265 109.68443 119.72324 110.59084 120.4638 111.49013 121.20427 112.3836 121.94485 113.26677 122.6853 114.14348 123.42589 115.01114 124.16646 115.87105 124.90692 116.71999 125.64749 117.56119 126.38797 118.39336 127.12854 119.21452 127.86911 120.02795 128.60958 120.83107 129.35015 121.62383 130.09062 122.40694 130.83118 123.18033 131.57176 123.94276 132.31223 124.69551 133.0528 125.43407 133.79326 126.16293 134.53385 126.88017 135.2744 127.58644 136.01488 128.28044 136.75543 128.96347 137.49591 129.63486 138.23648 130.29273 138.97705 130.94089 139.71752 131.5742 140.4581 132.19589 141.19855 132.80275 141.93914 133.39733 142.67972 133.97899 143.42017 134.5484 144.16075 135.10295 144.9012 135.6446 145.64179 136.17333 146.38236 136.68915 147.12282 137.18949 147.86339 137.6756 148.60387 138.14688 149.34444 138.60395 150.085 139.04682 150.82547 139.47548 151.56604 139.8893 152.3065 140.28827 153.04708 140.67368 153.78765 141.04361 154.52812 141.39867 155.26868 141.73954 156.00916 142.06233 156.74974 142.37027 157.4903 142.66338 158.23078 142.94098 158.97135 143.20438 159.7118 143.45034 160.45238 143.6808 161.19295 143.89772 161.93341 144.0985 162.674 144.28379 163.41445 144.45099 164.15503 144.6027 164.89562 144.73892 165.63607 144.859 166.37665 144.9623 167.11711 145.05138 167.85768 145.12305 168.59825 145.1805 169.3387 145.22182 170.07929 145.24636 170.81975 145.25475"/>
<use data-text="f" xlink:href="#font_5_1" transform="matrix(9.963397,0,0,-9.963098,128.0438,51.034746)" fill="#ec008c"/>
<use data-text="(" xlink:href="#font_4_1" transform="matrix(9.963397,0,0,-9.963098,133.99428,51.034746)" fill="#ec008c"/>
<use data-text="x" xlink:href="#font_5_2" transform="matrix(9.963397,0,0,-9.963098,137.86859,51.034746)" fill="#ec008c"/>
<use data-text=")" xlink:href="#font_4_2" transform="matrix(9.963397,0,0,-9.963098,143.56305,51.034746)" fill="#ec008c"/>
<use data-text="=" xlink:href="#font_4_4" transform="matrix(9.963397,0,0,-9.963098,150.18869,51.034746)" fill="#ec008c"/>
<use data-text="s" xlink:href="#font_4_7" transform="matrix(9.963397,0,0,-9.963098,160.70008,51.034746)" fill="#ec008c"/>
<use data-text="i" xlink:href="#font_4_5" transform="matrix(9.963397,0,0,-9.963098,164.62566,51.034746)" fill="#ec008c"/>
<use data-text="n" xlink:href="#font_4_6" transform="matrix(9.963397,0,0,-9.963098,167.38553,51.034746)" fill="#ec008c"/>
<use data-text="x" xlink:href="#font_5_2" transform="matrix(9.963397,0,0,-9.963098,174.61653,51.034746)" fill="#ec008c"/>
<path transform="matrix(1.00008,0,0,-1.00005,1.0966492,163.20035)" d="M172.81449 145.25605C172.81449 146.3565 171.92241 147.2486 170.82193 147.2486 169.72147 147.2486 168.82938 146.3565 168.82938 145.25605 168.82938 144.15557 169.72147 143.26349 170.82193 143.26349 171.92241 143.26349 172.81449 144.15557 172.81449 145.25605ZM170.82193 145.25605" fill="#ec008c"/>
<path transform="matrix(1.00008,0,0,-1.00005,1.0966492,163.20035)" stroke-width=".3985" stroke-linecap="butt" stroke-miterlimit="10" stroke-linejoin="miter" fill="none" stroke="#ec008c" d="M172.81449 145.25605C172.81449 146.3565 171.92241 147.2486 170.82193 147.2486 169.72147 147.2486 168.82938 146.3565 168.82938 145.25605 168.82938 144.15557 169.72147 143.26349 170.82193 143.26349 171.92241 143.26349 172.81449 144.15557 172.81449 145.25605ZM170.82193 145.25605"/>
<path transform="matrix(1.00008,0,0,-1.00005,1.0966492,163.20035)" d="M25.44691 16.13956C25.44691 17.24002 24.55484 18.13211 23.45436 18.13211 22.3539 18.13211 21.4618 17.24002 21.4618 16.13956 21.4618 15.03908 22.3539 14.147 23.45436 14.147 24.55484 14.147 25.44691 15.03908 25.44691 16.13956ZM23.45436 16.13956" fill="#ec008c"/>
<path transform="matrix(1.00008,0,0,-1.00005,1.0966492,163.20035)" stroke-width=".3985" stroke-linecap="butt" stroke-miterlimit="10" stroke-linejoin="miter" fill="none" stroke="#ec008c" d="M25.44691 16.13956C25.44691 17.24002 24.55484 18.13211 23.45436 18.13211 22.3539 18.13211 21.4618 17.24002 21.4618 16.13956 21.4618 15.03908 22.3539 14.147 23.45436 14.147 24.55484 14.147 25.44691 15.03908 25.44691 16.13956ZM23.45436 16.13956"/>
<use data-text="x" xlink:href="#font_5_2" transform="matrix(9.963397,0,0,-9.963098,186.17446,78.97814)"/>
<use data-text="y" xlink:href="#font_5_3" transform="matrix(9.963397,0,0,-9.963098,101.762699,9.606674)"/>
</svg>
