<svg xmlns="http://www.w3.org/2000/svg" xmlns:xlink="http://www.w3.org/1999/xlink" xmlns:inkscape="http://www.inkscape.org/namespaces/inkscape" version="1.1" width="209" height="175" viewBox="0 0 209 175">
<defs>
<path id="font_1_1" d="M.6589966 .23046875C.6759949 .23046875 .69400027 .23046875 .69400027 .25045777 .69400027 .27046205 .6759949 .27046205 .6589966 .27046205H.117996219C.100997928 .27046205 .08299255 .27046205 .08299255 .25045777 .08299255 .23046875 .100997928 .23046875 .117996219 .23046875H.6589966Z"/>
<path id="font_2_1" d="M.31098939 .36265565H.42999269C.4149933 .30274964 .3929901 .2118988 .3929901 .13302613 .3929901 .09309387 .397995 .06613159 .4039917 .044174196 .41999818-.0057678224 .43299867-.009765625 .44898988-.009765625 .47200013-.009765625 .49598695 .011230469 .49598695 .035186769 .49598695 .043182374 .49398805 .047164918 .48799134 .057159425 .46899415 .09408569 .45098878 .15100098 .45098878 .23286438 .45098878 .25183106 .45098878 .29177857 .46499635 .36265565H.58999636C.60798647 .36265565 .6159973 .36265565 .6269989 .37065126 .6409912 .380661 .6439972 .39665223 .6439972 .4016571 .6439972 .43066407 .6179962 .43066407 .6009979 .43066407H.22399903C.18299866 .43066407 .15499878 .42166139 .10998535 .37965394 .083999637 .35665895 .04499817 .30274964 .04499817 .2937622 .04499817 .28178407 .057998659 .28178407 .06199646 .28178407 .07299805 .28178407 .07398987 .28378297 .07998657 .2927704 .1309967 .36265565 .19299317 .36265565 .21499634 .36265565H.27598573C.24499512 .25283814 .19099427 .13502503 .16099549 .07511902 .15499878 .062149049 .14498902 .04118347 .14199829 .03718567 .14099121 .033187868 .13899231 .029190064 .13899231 .022201539 .13899231 .006225586 .15098572-.009765625 .17399597-.009765625 .21398926-.009765625 .22499085 .035186769 .24899292 .12504578L.31098939 .36265565Z"/>
<path id="font_3_1" d="M.272995 .33428956C.35099793 .33428956 .40699769 .2803192 .40699769 .1733551 .40699769 .04940796 .33499146 .012466431 .2769928 .012466431 .23699951 .012466431 .14898682 .0234375 .10699463 .082351688 .1539917 .084350589 .16499329 .11735535 .16499329 .13835144 .16499329 .17034912 .14099121 .19335938 .10998535 .19335938 .08198547 .19335938 .053985597 .17634583 .053985597 .13534546 .053985597 .041412355 .1579895-.01953125 .2789917-.01953125 .41799928-.01953125 .5139923 .07336426 .5139923 .1733551 .5139923 .2513275 .44999696 .32929994 .33999635 .35229493 .44499208 .39024354 .48298646 .4650879 .48298646 .5260773 .48298646 .60505679 .3919983 .6640625 .2809906 .6640625 .16999817 .6640625 .084991458 .61006167 .084991458 .5300751 .084991458 .49606324 .10699463 .47706605 .13699341 .47706605 .16799927 .47706605 .18798828 .5000763 .18798828 .5280762 .18798828 .5570679 .16799927 .57806399 .13699341 .5800781 .17199707 .62405398 .24099732 .63505557 .27799989 .63505557 .32299806 .63505557 .38598634 .6130676 .38598634 .5260773 .38598634 .48406983 .37199403 .43814088 .34599305 .4072113 .31298829 .36927796 .2849884 .3672943 .23498535 .36428834 .20999146 .3623047 .20799256 .3623047 .20298767 .3612976 .20098877 .3612976 .19299317 .3592987 .19299317 .34829713 .19299317 .33428956 .20199585 .33428956 .21899414 .33428956H.272995Z"/>
<path id="font_3_2" d="M.5289917 .1640625V.20005799H.41799928V.64582827C.41799928 .66682437 .41799928 .6738281 .3959961 .6738281 .38398744 .6738281 .37998963 .6738281 .36999513 .65982058L.038986207 .20005799V.1640625H.33299256V.08201599C.33299256 .04800415 .33299256 .035995485 .2519989 .035995485H.22499085V0C.2749939 .0019989014 .33898927 .0039978029 .375 .0039978029 .4119873 .0039978029 .47599793 .0019989014 .526001 0V.035995485H.49899293C.41799928 .035995485 .41799928 .04800415 .41799928 .08201599V.1640625H.5289917M.33999635 .5658722V.20005799H.07598877L.33999635 .5658722Z"/>
<path id="font_3_3" d="M.1499939 .3274536C.1499939 .40945436 .15699768 .48303224 .19499207 .543869 .22898865 .5978699 .2829895 .63505557 .34700013 .63505557 .3769989 .63505557 .4169922 .62701418 .43699647 .5998688 .4119873 .5978699 .3909912 .5808716 .3909912 .5518799 .3909912 .5268707 .4079895 .5048828 .43798829 .5048828 .46798707 .5048828 .48599244 .5248718 .48599244 .5538788 .48599244 .6119385 .44400025 .6640625 .34498597 .6640625 .20098877 .6640625 .053985597 .5318756 .053985597 .3174591 .053985597 .05845642 .17599488-.01953125 .28599549-.01953125 .4079895-.01953125 .5139923 .07345581 .5139923 .20445252 .5139923 .33145143 .41299439 .42546083 .29599 .42546083 .21598816 .42546083 .17199707 .37245179 .1499939 .3274536M.28599549 .012466431C.23599243 .012466431 .19699097 .04145813 .17599488 .08546448 .16099549 .11546326 .15299988 .16545105 .15299988 .22544861 .15299988 .32244874 .21099854 .39746095 .29100038 .39746095 .33699037 .39746095 .36799623 .37945558 .3929901 .342453 .4169922 .30445863 .41799928 .26245118 .41799928 .20445252 .41799928 .14746094 .41799928 .10545349 .3909912 .066467288 .36698915 .031463624 .33499146 .012466431 .28599549 .012466431Z"/>
<path id="font_4_3" d="M.2939911 .64004519C.2939911 .66400149 .2939911 .6660156 .2709961 .6660156 .20899964 .60227969 .12098694 .60227969 .08898926 .60227969V.57128909C.10899353 .57128909 .16799927 .57128909 .21998596 .5972748V.07902527C.21998596 .042999269 .21699524 .0309906 .1269989 .0309906H.09498596V0C.12998963 .0029907227 .21699524 .0029907227 .25698854 .0029907227 .29699708 .0029907227 .38398744 .0029907227 .4189911 0V.0309906H.3869934C.29699708 .0309906 .2939911 .041992189 .2939911 .07902527V.64004519Z"/>
<path id="font_4_4" d="M.1269989 .07699585 .23298645 .18003845C.3889923 .31811524 .44898988 .3721466 .44898988 .47216798 .44898988 .5860901 .35899354 .6660156 .23699951 .6660156 .12399292 .6660156 .049987794 .57411196 .049987794 .48516847 .049987794 .4291687 .099990848 .4291687 .102996829 .4291687 .11999512 .4291687 .15499878 .44117738 .15499878 .48217774 .15499878 .5081787 .13699341 .5341797 .101989749 .5341797 .09399414 .5341797 .09199524 .5341797 .08898926 .5331726 .11199951 .59806826 .1659851 .63500979 .22399903 .63500979 .31498719 .63500979 .35798646 .5541382 .35798646 .47216798 .35798646 .39215089 .30799867 .31311036 .25299073 .25108338L.06098938 .036987306C.049987794 .025985718 .049987794 .023986817 .049987794 0H.42099L.44898988 .17404175H.42399598C.4189911 .14402771 .4119873 .1000061 .4019928 .084991458 .394989 .07699585 .32899476 .07699585 .30699159 .07699585H.1269989Z"/>
<path id="font_4_5" d="M.2899933 .35191346C.37199403 .37893678 .42999269 .4490509 .42999269 .52809146 .42999269 .6100464 .34199525 .6660156 .24598694 .6660156 .14498902 .6660156 .068984989 .60606387 .068984989 .53009036 .068984989 .49710084 .09098816 .47808839 .11999512 .47808839 .15098572 .47808839 .17098999 .50009158 .17098999 .5290985 .17098999 .57910159 .12399292 .57910159 .10899353 .57910159 .13999939 .62802127 .20599365 .64100649 .24198914 .64100649 .2829895 .64100649 .33799745 .6190338 .33799745 .5290985 .33799745 .51708987 .33599855 .45906068 .30999757 .4149933 .27999879 .36691285 .24598694 .36390687 .22099304 .36291505 .21299744 .36190797 .18899536 .35990907 .18199158 .35990907 .17399597 .35890199 .16699219 .35791017 .16699219 .3479004 .16699219 .33691407 .17399597 .33691407 .19099427 .33691407H.23498535C.31698609 .33691407 .35398866 .2686615 .35398866 .17037964 .35398866 .034469606 .2849884 .0055389406 .24099732 .0055389406 .19799805 .0055389406 .12298584 .022491456 .08799744 .08137512 .12298584 .07637024 .1539917 .09837341 .1539917 .1363678 .1539917 .17237854 .1269989 .19238281 .09799194 .19238281 .07398987 .19238281 .041992189 .17837525 .041992189 .1343689 .041992189 .043441774 .1349945-.022460938 .24398804-.022460938 .3659973-.022460938 .45700074 .06838989 .45700074 .17037964 .45700074 .252594 .3939972 .33088685 .2899933 .35191346Z"/>
<path id="font_4_6" d="M.2939911 .16503906V.07800293C.2939911 .041992189 .2919922 .0309906 .21798706 .0309906H.19699097V0C.23799134 .0029907227 .2899933 .0029907227 .33198548 .0029907227 .37399293 .0029907227 .4269867 .0029907227 .46798707 0V.0309906H.44699098C.37298585 .0309906 .37098695 .041992189 .37098695 .07800293V.16503906H.47099305V.19602967H.37098695V.65075686C.37098695 .67074587 .37098695 .6767578 .35499574 .6767578 .34599305 .6767578 .34298707 .6767578 .33499146 .66474917L.027999878 .19602967V.16503906H.2939911M.2999878 .19602967H.055999757L.2999878 .5688019V.19602967Z"/>
<path id="font_4_7" d="M.44898988 .20022583C.44898988 .3193512 .36698915 .41944886 .25898744 .41944886 .21099854 .41944886 .16799927 .40345765 .13198853 .36842347V.5637665C.1519928 .5577698 .18499756 .55078127 .21699524 .55078127 .33999635 .55078127 .4099884 .6417694 .4099884 .6547699 .4099884 .6607666 .40699769 .6657715 .3999939 .6657715 .39898683 .6657715 .39698792 .6657715 .3919983 .66278079 .37199403 .6537781 .32299806 .6337738 .2559967 .6337738 .21598816 .6337738 .16999817 .6407776 .12298584 .6617737 .114990238 .66477969 .11299133 .66477969 .11099243 .66477969 .100997928 .66477969 .100997928 .6567688 .100997928 .6407776V.34439088C.100997928 .32637025 .100997928 .31835938 .114990238 .31835938 .12199402 .31835938 .12399292 .32136537 .12799073 .32736207 .13899231 .3433838 .17599488 .39746095 .25698854 .39746095 .30899049 .39746095 .33399964 .35139466 .34199525 .33337403 .35798646 .29632569 .3600006 .25727845 .3600006 .20722962 .3600006 .17222595 .3600006 .11222839 .33599855 .07035828 .31199647 .031463624 .2749939 .0055389406 .22898865 .0055389406 .1559906 .0055389406 .09899902 .058380128 .08198547 .11723328 .084991458 .1162262 .08799744 .115234378 .09899902 .115234378 .13198853 .115234378 .14898682 .14022827 .14898682 .16423035 .14898682 .18823242 .13198853 .21322632 .09899902 .21322632 .084991458 .21322632 .049987794 .20622254 .049987794 .16023255 .049987794 .07434082 .11898804-.022460938 .23098755-.022460938 .34700013-.022460938 .44898988 .073349 .44898988 .20022583Z"/>
<path id="font_4_8" d="M.13198853 .327713V.35173036C.13198853 .6047821 .2559967 .64100649 .30699159 .64100649 .33099366 .64100649 .37298585 .634964 .394989 .6007538 .37998963 .6007538 .33999635 .6007538 .33999635 .5557556 .33999635 .524765 .3639984 .5097656 .38598634 .5097656 .4019928 .5097656 .43199159 .51875308 .43199159 .5577545 .43199159 .6178589 .3880005 .6660156 .30499269 .6660156 .1769867 .6660156 .041992189 .5367584 .041992189 .31570436 .041992189 .048553468 .1579895-.022460938 .25099183-.022460938 .3619995-.022460938 .45700074 .07156372 .45700074 .2036438 .45700074 .33070375 .36799623 .4267578 .25698854 .4267578 .18899536 .4267578 .1519928 .37573243 .13198853 .327713M.25099183 .0055389406C.18798828 .0055389406 .1579895 .06556702 .1519928 .080566409 .13398743 .127594 .13398743 .2076416 .13398743 .22564698 .13398743 .30369569 .1659851 .40374757 .2559967 .40374757 .27198792 .40374757 .31799317 .40374757 .34899903 .34172059 .36698915 .30470277 .36698915 .2536621 .36698915 .20463562 .36698915 .15661621 .36698915 .10658264 .34999085 .0705719 .31999208 .010528564 .27398683 .0055389406 .25099183 .0055389406Z"/>
<path id="font_5_2" d="M.5159912 .68333438C.5159912 .6843262 .5159912 .69433596 .5029907 .69433596 .48799134 .69433596 .3929901 .68533328 .37599183 .68333438 .36799623 .6823273 .3619995 .6773224 .3619995 .6643219 .3619995 .6523285 .37098695 .6523285 .38598634 .6523285 .43399049 .6523285 .43598939 .6453247 .43598939 .6353302L.43299867 .6153412 .37298585 .37835694C.35499574 .41537477 .32598878 .4423828 .2809906 .4423828 .1639862 .4423828 .039993287 .29533387 .039993287 .14929199 .039993287 .055267335 .09498596-.0107421879 .17298889-.0107421879 .19299317-.0107421879 .24299622-.0067443849 .30299378 .06427002 .31098939 .022247315 .34599305-.0107421879 .3939972-.0107421879 .42900086-.0107421879 .45199586 .012252808 .46798707 .044265748 .4850006 .08027649 .49798585 .14129639 .49798585 .14329529 .49798585 .1532898 .4889984 .1532898 .48599244 .1532898 .47599793 .1532898 .47499085 .14929199 .47200013 .13528443 .45498658 .07026672 .43699647 .011245728 .3959961 .011245728 .36898805 .011245728 .3659973 .037261964 .3659973 .057266237 .3659973 .08126831 .36799623 .088272098 .37199403 .105285648L.5159912 .68333438M.30799867 .119277957C.30299378 .10127258 .30299378 .09927368 .28799439 .08227539 .24398804 .027252198 .20298767 .011245728 .1749878 .011245728 .125 .011245728 .11099243 .06626892 .11099243 .105285648 .11099243 .1552887 .14299011 .27833558 .1659851 .32434083 .19699097 .38336183 .24198914 .42037965 .28199769 .42037965 .34700013 .42037965 .36099244 .3383484 .36099244 .33235169 .36099244 .32633973 .35899354 .32034303 .35798646 .31533814L.30799867 .119277957Z"/>
<path id="font_4_1" d="M.33099366-.2400055C.33099366-.23701477 .33099366-.23500061 .31399537-.21800232 .18899536-.0920105 .15699768 .09700012 .15699768 .25 .15699768 .42399598 .19499207 .59799197 .31799317 .72299197 .33099366 .73498538 .33099366 .7369995 .33099366 .73999026 .33099366 .746994 .32699586 .75 .32099916 .75 .31098939 .75 .22099304 .6819916 .1619873 .5549927 .11099243 .44499208 .09899902 .33399964 .09899902 .25 .09899902 .17199707 .10998535 .050994874 .16499329-.06201172 .22499085-.18501282 .31098939-.25 .32099916-.25 .32699586-.25 .33099366-.24700928 .33099366-.2400055Z"/>
<path id="font_5_3" d="M.33399964 .30233766C.33999635 .32835389 .36299134 .42037965 .43299867 .42037965 .43798829 .42037965 .46199037 .42037965 .48298646 .40734864 .45498658 .402359 .43499757 .37734986 .43499757 .35334779 .43499757 .33735658 .44599916 .31835938 .47299195 .31835938 .49499513 .31835938 .5269928 .3363495 .5269928 .37635804 .5269928 .42837525 .46798707 .4423828 .43399049 .4423828 .37599183 .4423828 .34098817 .38935853 .32899476 .36634828 .3039856 .43237306 .25 .4423828 .22099304 .4423828 .116989139 .4423828 .05999756 .3133545 .05999756 .28834535 .05999756 .27833558 .069992069 .27833558 .07199097 .27833558 .07998657 .27833558 .08299255 .28033448 .084991458 .28933717 .11898804 .39535523 .18499756 .42037965 .21899414 .42037965 .23799134 .42037965 .272995 .4113617 .272995 .35334779 .272995 .32235719 .2559967 .25532533 .21899414 .11528015 .20298767 .053268434 .16799927 .011245728 .12399292 .011245728 .117996219 .011245728 .09498596 .011245728 .07398987 .024276734 .09899902 .029266358 .12098694 .05027771 .12098694 .07827759 .12098694 .105270389 .09899902 .11328125 .083999637 .11328125 .053985597 .11328125 .0289917 .08728027 .0289917 .055267335 .0289917 .009246826 .07899475-.0107421879 .12298584-.0107421879 .18899536-.0107421879 .22499085 .059280397 .22799683 .0652771 .23999024 .028274537 .27598573-.0107421879 .33599855-.0107421879 .43899537-.0107421879 .49598695 .118270877 .49598695 .14328003 .49598695 .1532898 .4869995 .1532898 .48399354 .1532898 .47499085 .1532898 .47299195 .14929199 .47099305 .14228821 .43798829 .03527832 .36999513 .011245728 .33799745 .011245728 .29899598 .011245728 .2829895 .043273927 .2829895 .07727051 .2829895 .09927368 .2889862 .121276859 .2999878 .16529846L.33399964 .30233766Z"/>
<path id="font_4_2" d="M.2889862 .25C.2889862 .32798768 .27799989 .44898988 .22299195 .56199648 .16299439 .68499758 .07699585 .75 .066986087 .75 .06098938 .75 .056991579 .74598696 .056991579 .73999026 .056991579 .7369995 .056991579 .73498538 .07598877 .71699526 .17399597 .6179962 .23098755 .45899964 .23098755 .25 .23098755 .07899475 .19400025-.09700012 .069992069-.2230072 .056991579-.23500061 .056991579-.23701477 .056991579-.2400055 .056991579-.2460022 .06098938-.25 .066986087-.25 .07699585-.25 .16699219-.18200684 .22599793-.055007936 .2769928 .054992677 .2889862 .16600037 .2889862 .25Z"/>
<path id="font_4_9" d="M.68699648 .32714845C.70199587 .32714845 .72099307 .32714845 .72099307 .34713746 .72099307 .36714173 .70199587 .36714173 .6879883 .36714173H.08898926C.07499695 .36714173 .055999757 .36714173 .055999757 .34713746 .055999757 .32714845 .07499695 .32714845 .08999634 .32714845H.68699648M.6879883 .13284302C.70199587 .13284302 .72099307 .13284302 .72099307 .15284729 .72099307 .17285156 .70199587 .17285156 .68699648 .17285156H.08999634C.07499695 .17285156 .055999757 .17285156 .055999757 .15284729 .055999757 .13284302 .07499695 .13284302 .08898926 .13284302H.6879883Z"/>
<path id="font_4_12" d="M.20799256 .19424439C.22999573 .19024658 .31199647 .17424011 .31199647 .102249149 .31199647 .051254274 .2769928 .011245728 .19898987 .011245728 .114990238 .011245728 .07899475 .06825256 .05999756 .15324402 .056991579 .1662445 .055999757 .17024231 .04598999 .17024231 .032989503 .17024231 .032989503 .16323853 .032989503 .14524842V.013244629C.032989503-.003753662 .032989503-.0107421879 .04399109-.0107421879 .04899597-.0107421879 .049987794-.009750366 .068984989 .009246826 .070999149 .011245728 .070999149 .013244629 .08898926 .03224182 .1329956-.009750366 .17799378-.0107421879 .19898987-.0107421879 .31399537-.0107421879 .3600006 .056243898 .3600006 .12825012 .3600006 .1812439 .32998658 .21124268 .31799317 .22323609 .2849884 .25523377 .24598694 .26324464 .20399475 .27124024 .147995 .28224183 .08099365 .2952423 .08099365 .35324098 .08099365 .38822938 .10699463 .42922975 .19299317 .42922975 .30299378 .42922975 .30799867 .3392334 .30999757 .3082428 .31098939 .2992401 .31999208 .2992401 .32199098 .2992401 .33499146 .2992401 .33499146 .304245 .33499146 .3232422V.4242401C.33499146 .4412384 .33499146 .4482422 .32398988 .4482422 .31900025 .4482422 .31698609 .4482422 .3039856 .43623353 .30099488 .43223573 .29100038 .42323304 .2869873 .42022706 .24899292 .4482422 .20799256 .4482422 .19299317 .4482422 .070999149 .4482422 .032989503 .38124085 .032989503 .3252411 .032989503 .29023744 .04899597 .26223756 .07598877 .24023438 .10798645 .21424866 .13598633 .2082367 .20799256 .19424439Z"/>
<path id="font_4_11" d="M.11199951 .2524414C.117996219 .40126039 .20199585 .426239 .23599243 .426239 .33898927 .426239 .34899903 .2913971 .34899903 .2524414H.11199951M.11099243 .23144531H.3899994C.4119873 .23144531 .4149933 .23144531 .4149933 .2524414 .4149933 .35131837 .36099244 .4482422 .23599243 .4482422 .11999512 .4482422 .027999878 .34532167 .027999878 .22042847 .027999878 .08631897 .1329956-.0107421879 .24798584-.0107421879 .36999513-.0107421879 .4149933 .10032654 .4149933 .11933899 .4149933 .12934876 .40699769 .13134766 .4019928 .13134766 .3929901 .13134766 .3909912 .12535095 .3889923 .11734009 .35398866 .014251709 .2639923 .014251709 .2539978 .014251709 .20399475 .014251709 .1639862 .044281007 .14099121 .08131409 .11099243 .12934876 .11099243 .19540406 .11099243 .23144531Z"/>
<path id="font_4_10" d="M.116989139 .21801758C.116989139 .38093568 .19898987 .42323304 .2519989 .42323304 .26098634 .42323304 .32398988 .42222596 .35899354 .38594056 .31799317 .38293458 .31199647 .3529358 .31199647 .3399353 .31199647 .31393434 .32998658 .2939453 .35798646 .2939453 .38398744 .2939453 .4039917 .3109436 .4039917 .34094239 .4039917 .40911866 .32798768 .4482422 .25099183 .4482422 .12599182 .4482422 .033996583 .3399353 .033996583 .21601868 .033996583 .08816528 .1329956-.0107421879 .24899292-.0107421879 .3829956-.0107421879 .4149933 .10914612 .4149933 .119140628 .4149933 .12911988 .40499879 .12911988 .4019928 .12911988 .3929901 .12911988 .3909912 .12512207 .3889923 .119140628 .3600006 .026229859 .29499818 .014251709 .2579956 .014251709 .20498657 .014251709 .116989139 .0572052 .116989139 .21801758Z"/>
<path id="font_5_1" d="M.45498658 .5001831C.45498658 .56614688 .43699647 .7050781 .33499146 .7050781 .19599915 .7050781 .041992189 .42323304 .041992189 .19425965 .041992189 .100250247 .070999149-.0107421879 .1619873-.0107421879 .30299378-.0107421879 .45498658 .27627564 .45498658 .5001831M.147995 .36328126C.16499329 .42723084 .18499756 .5071869 .22499085 .57814028 .2519989 .6271057 .2889862 .68307498 .33399964 .68307498 .3829956 .68307498 .3889923 .6191101 .3889923 .56214907 .3889923 .5131836 .3809967 .46220399 .35699464 .36328126H.147995M.34799195 .3312683C.33699037 .28527833 .31599427 .2002716 .27799989 .12826538 .24299622 .060256959 .20498657 .011245728 .1619873 .011245728 .1289978 .011245728 .10798645 .040252687 .10798645 .133255 .10798645 .17526245 .11399841 .23326111 .13999939 .3312683H.34799195Z"/>
</defs>
<path transform="matrix(1.00005,0,0,-1.00005,1.2742615,162.27536)" stroke-width=".19925" stroke-linecap="butt" stroke-miterlimit="10" stroke-linejoin="miter" fill="none" stroke="#7f807f" d="M8.46735 2.87859V7.13037M30.6357 2.87859V7.13037M52.80322 2.87859V7.13037M141.4716 2.87859V7.13037M163.63915 2.87859V7.13037M185.80751 2.87859V7.13037"/>
<path transform="matrix(1.00005,0,0,-1.00005,1.2742615,162.27536)" stroke-width=".19925" stroke-linecap="butt" stroke-miterlimit="10" stroke-linejoin="miter" fill="none" stroke="#7f807f" d="M95.72003 17.51572H98.55484M95.72003 42.53816H98.55484M95.72003 67.56062H98.55484M95.72003 92.58308H98.55484M95.72003 117.60555H98.55484M95.72003 142.62799H98.55484"/>
<path transform="matrix(1.00005,0,0,-1.00005,1.2742615,162.27536)" stroke-width=".19925" stroke-linecap="butt" stroke-miterlimit="10" stroke-linejoin="miter" fill="none" stroke="#7f807f" d="M95.01152 30.02695H99.26334M95.01152 55.0494H99.26334M95.01152 80.07185H99.26334M95.01152 105.09431H99.26334M95.01152 130.11676H99.26334M95.01152 155.13922H99.26334"/>
<path transform="matrix(1.00005,0,0,-1.00005,1.2742615,162.27536)" stroke-width=".3985" stroke-linecap="butt" stroke-miterlimit="10" stroke-linejoin="miter" fill="none" stroke="#000000" d="M0 5.00449H192.28234"/>
<path transform="matrix(1.00005,0,0,-1.00005,193.5662,157.27062)" d="M1.99252 0-1.19551 1.59401 0 0-1.19551-1.59401"/>
<path transform="matrix(1.00005,0,0,-1.00005,1.2742615,162.27536)" stroke-width=".3985" stroke-linecap="butt" stroke-miterlimit="10" stroke-linejoin="miter" fill="none" stroke="#000000" d="M97.13742 0V159.40232"/>
<path transform="matrix(0,-1.00005,-1.00005,-0,98.416538,2.8650819)" d="M1.99252 0-1.19551 1.59401 0 0-1.19551-1.59401"/>
<use data-text="&#x2212;" xlink:href="#font_1_1" transform="matrix(9.963098,0,0,-9.963098,2.217308,169.84275)"/>
<use data-text="&#x03c0;" xlink:href="#font_2_1" transform="matrix(6.9741489,0,0,-6.9741489,11.161751,165.92055)"/>
<path transform="matrix(1.00005,0,0,-1.00005,-85.43907,36.8831)" stroke-width=".3985" stroke-linecap="butt" stroke-miterlimit="10" stroke-linejoin="miter" fill="none" stroke="#000000" d="M96.596-130.463H101.505"/>
<use data-text="3" xlink:href="#font_3_1" transform="matrix(6.9741489,0,0,-6.9741489,11.630775,173.27892)"/>
<use data-text="&#x2212;" xlink:href="#font_1_1" transform="matrix(9.963098,0,0,-9.963098,24.386414,169.84275)"/>
<use data-text="&#x03c0;" xlink:href="#font_2_1" transform="matrix(6.9741489,0,0,-6.9741489,33.330858,165.92055)"/>
<path transform="matrix(1.00005,0,0,-1.00005,-63.269968,36.8831)" stroke-width=".3985" stroke-linecap="butt" stroke-miterlimit="10" stroke-linejoin="miter" fill="none" stroke="#000000" d="M96.596-130.463H101.505"/>
<use data-text="4" xlink:href="#font_3_2" transform="matrix(6.9741489,0,0,-6.9741489,33.79988,173.27892)"/>
<use data-text="&#x2212;" xlink:href="#font_1_1" transform="matrix(9.963098,0,0,-9.963098,46.555524,169.84275)"/>
<use data-text="&#x03c0;" xlink:href="#font_2_1" transform="matrix(6.9741489,0,0,-6.9741489,55.499967,165.92055)"/>
<path transform="matrix(1.00005,0,0,-1.00005,-41.100858,36.8831)" stroke-width=".3985" stroke-linecap="butt" stroke-miterlimit="10" stroke-linejoin="miter" fill="none" stroke="#000000" d="M96.596-130.463H101.505"/>
<use data-text="6" xlink:href="#font_3_3" transform="matrix(6.9741489,0,0,-6.9741489,55.96899,173.27892)"/>
<use data-text="&#x03c0;" xlink:href="#font_2_1" transform="matrix(6.9741489,0,0,-6.9741489,140.29921,165.92055)"/>
<path transform="matrix(1.00005,0,0,-1.00005,51.44677,36.8831)" stroke-width=".3985" stroke-linecap="butt" stroke-miterlimit="10" stroke-linejoin="miter" fill="none" stroke="#000000" d="M88.848-130.463H93.757"/>
<use data-text="6" xlink:href="#font_3_3" transform="matrix(6.9741489,0,0,-6.9741489,140.76725,173.27892)"/>
<use data-text="&#x03c0;" xlink:href="#font_2_1" transform="matrix(6.9741489,0,0,-6.9741489,162.46732,165.92055)"/>
<path transform="matrix(1.00005,0,0,-1.00005,73.614879,36.8831)" stroke-width=".3985" stroke-linecap="butt" stroke-miterlimit="10" stroke-linejoin="miter" fill="none" stroke="#000000" d="M88.848-130.463H93.757"/>
<use data-text="4" xlink:href="#font_3_2" transform="matrix(6.9741489,0,0,-6.9741489,162.93534,173.27892)"/>
<use data-text="&#x03c0;" xlink:href="#font_2_1" transform="matrix(6.9741489,0,0,-6.9741489,184.63642,165.92055)"/>
<path transform="matrix(1.00005,0,0,-1.00005,95.78397,36.8831)" stroke-width=".3985" stroke-linecap="butt" stroke-miterlimit="10" stroke-linejoin="miter" fill="none" stroke="#000000" d="M88.848-130.463H93.757"/>
<use data-text="3" xlink:href="#font_3_1" transform="matrix(6.9741489,0,0,-6.9741489,185.10443,173.27892)"/>
<use data-text="1" xlink:href="#font_4_3" transform="matrix(9.963098,0,0,-9.963098,87.78858,135.45702)"/>
<use data-text="2" xlink:href="#font_4_4" transform="matrix(9.963098,0,0,-9.963098,87.78858,110.43377)"/>
<use data-text="3" xlink:href="#font_4_5" transform="matrix(9.963098,0,0,-9.963098,87.78858,85.40952)"/>
<use data-text="4" xlink:href="#font_4_6" transform="matrix(9.963098,0,0,-9.963098,87.78858,60.38627)"/>
<use data-text="5" xlink:href="#font_4_7" transform="matrix(9.963098,0,0,-9.963098,87.78858,35.362024)"/>
<use data-text="6" xlink:href="#font_4_8" transform="matrix(9.963098,0,0,-9.963098,87.78858,10.338776)"/>
<path transform="matrix(1.00005,0,0,-1.00005,1.2742615,162.27536)" stroke-width=".99628" stroke-linecap="butt" stroke-miterlimit="10" stroke-linejoin="miter" fill="none" stroke="#0000ff" d="M9.37889 152.4053 9.35847 152.4668 10.24963 149.89197 11.1408 147.43729 12.03195 145.05765 12.9231 142.77559 13.81425 140.5987 14.70541 138.49681 15.59657 136.46996 16.48772 134.51825 17.37888 132.62657 18.27003 130.81735 19.1612 129.06827 20.05234 127.37177 20.9435 125.75784 21.83466 124.17393 22.72581 122.66504 23.61696 121.1863 24.50812 119.76743 25.39928 118.39369 26.29044 117.065 27.18158 115.78142 28.07272 114.52774 28.96388 113.32663 29.85504 112.16309 30.74619 111.02957 31.63734 109.9412 32.5285 108.87524 33.41966 107.84676 34.3108 106.84839 35.20197 105.88004 36.09312 104.9417 36.98428 104.02579 37.87543 103.14758 38.76659 102.29929 39.65775 101.4661 40.5489 100.6478 41.44005 99.86707 42.3312 99.10144 43.22237 98.36574 44.11353 97.66014 45.00467 96.962 45.89583 96.28642 46.78699 95.6333 47.67813 94.98773 48.56927 94.37973 49.46043 93.77917 50.3516 93.20865 51.24275 92.63065 52.1339 92.09012 53.02505 91.55714 53.91621 91.03918 54.80737 90.54378 55.69852 90.05582 56.58968 89.59787 57.48083 89.13992 58.372 88.68953 59.26314 88.26917 60.1543 87.85634 61.04546 87.45099 61.9366 87.06061 62.82776 86.68526 63.71892 86.33247 64.61008 85.9721 65.50122 85.64188 66.39236 85.31154 67.28352 84.98875 68.17468 84.69597 69.06583 84.39575 69.95699 84.12543 70.84814 83.84778 71.7393 83.58502 72.63045 83.32982 73.5216 83.08951 74.41277 82.85686 75.30392 82.63911 76.19507 82.4215 77.08623 82.22629 77.97739 82.04611 78.86855 81.86595 79.75969 81.67833 80.65085 81.5206 81.542 81.37054 82.43317 81.22038 83.32431 81.08522 84.21547 80.95761 85.10663 80.84502 85.99777 80.73242 86.88892 80.62738 87.78008 80.53723 88.67123 80.45465 89.5624 80.37206 90.45354 80.3046 91.3447 80.24446 92.23586 80.19945 93.12701 80.15443 94.01816 80.12442 94.90932 80.10187 95.80048 80.08685 96.69164 80.07185H97.58278L98.47398 80.08685 99.36505 80.10187 100.25627 80.12442 101.14732 80.15443 102.03856 80.19945 102.92976 80.24446 103.82083 80.3046 104.71204 80.37206 105.6031 80.45465 106.49432 80.53723 107.38554 80.62738 108.2766 80.73242 109.16782 80.84502 110.05888 80.95761 110.9501 81.08522 111.84131 81.22038 112.73238 81.37054 113.6236 81.5206 114.51466 81.67833 115.40587 81.86595 116.29707 82.03856 117.18814 82.22629 118.07936 82.4215 118.97043 82.63911 119.86165 82.85686 120.75285 83.08951 121.6439 83.32982 122.53513 83.58502 123.4262 83.84778 124.31741 84.12543 125.20862 84.39575 126.09969 84.69597 126.9909 84.98875 127.88197 85.31154 128.77318 85.64188 129.6644 85.9721 130.55547 86.33247 131.44669 86.68526 132.33774 87.06061 133.22896 87.45099 134.12017 87.85634 135.01123 88.26917 135.90245 88.68953 136.79352 89.13992 137.68474 89.59787 138.57595 90.05582 139.467 90.54378 140.35822 91.03918 141.24929 91.55714 142.14052 92.09012 143.03171 92.63065 143.92278 93.20865 144.814 93.77917 145.70507 94.37973 146.59627 94.98773 147.48749 95.6333 148.37856 96.29387 149.26978 96.962 150.16083 97.66014 151.05205 98.36574 151.94326 99.11646 152.83432 99.86707 153.72554 100.6478 154.61661 101.45108 155.50783 102.29184 156.39904 103.14758 157.29009 104.02579 158.1813 104.9417 159.07238 105.88004 159.96361 106.84839 160.8548 107.84676 161.74587 108.87524 162.63709 109.9412 163.52816 111.02957 164.41936 112.16309 165.31058 113.32663 166.20165 114.52774 167.09285 115.78142 167.98392 117.065 168.87514 118.39369 169.76636 119.76743 170.65741 121.1863 171.54863 122.65004 172.4397 124.17393 173.33092 125.75784 174.2221 127.37177 175.11318 129.06827 176.00441 130.81735 176.89548 132.62657 177.78668 134.5107 178.67789 136.46996 179.56896 138.49681 180.46018 140.59113 181.35123 142.77559 182.24245 145.05765 183.13367 147.42984 184.02474 149.89197 184.91594 152.4668 184.89325 152.39846"/>
<path transform="matrix(-.31551577,-.9489174,-.9489174,.31551577,10.65362,9.862442)" d="M2.8892 0-1.73352 2.31136 0 0-1.73352-2.31136" fill="#0000ff"/>
<path transform="matrix(.3162858,-.9486674,-.9486674,-.3162858,186.17675,9.869308)" d="M2.8892 0-1.73352 2.31136 0 0-1.73352-2.31136" fill="#0000ff"/>
<use data-text="d" xlink:href="#font_5_2" transform="matrix(9.963098,0,0,-9.963098,143.90439,74.58098)" fill="#0000ff"/>
<use data-text="(" xlink:href="#font_4_1" transform="matrix(9.963098,0,0,-9.963098,149.08965,74.58098)" fill="#0000ff"/>
<use data-text="x" xlink:href="#font_5_3" transform="matrix(9.963098,0,0,-9.963098,152.96485,74.58098)" fill="#0000ff"/>
<use data-text=")" xlink:href="#font_4_2" transform="matrix(9.963098,0,0,-9.963098,158.65912,74.58098)" fill="#0000ff"/>
<use data-text="=" xlink:href="#font_4_9" transform="matrix(9.963098,0,0,-9.963098,165.28458,74.58098)" fill="#0000ff"/>
<use data-text="3" xlink:href="#font_4_5" transform="matrix(9.963098,0,0,-9.963098,175.79566,74.58098)" fill="#0000ff"/>
<use data-text="s" xlink:href="#font_4_12" transform="matrix(9.963098,0,0,-9.963098,182.44104,74.58098)" fill="#0000ff"/>
<use data-text="e" xlink:href="#font_4_11" transform="matrix(9.963098,0,0,-9.963098,186.36649,74.58098)" fill="#0000ff"/>
<use data-text="c" xlink:href="#font_4_10" transform="matrix(9.963098,0,0,-9.963098,190.7901,74.58098)" fill="#0000ff"/>
<use data-text="(" xlink:href="#font_4_1" transform="matrix(9.963098,0,0,-9.963098,195.21375,74.58098)" fill="#0000ff"/>
<use data-text="x" xlink:href="#font_5_3" transform="matrix(9.963098,0,0,-9.963098,199.12015,74.58098)" fill="#0000ff"/>
<use data-text=")" xlink:href="#font_4_2" transform="matrix(9.963098,0,0,-9.963098,204.81443,74.58098)" fill="#0000ff"/>
<use data-text="&#x03b8;" xlink:href="#font_5_1" transform="matrix(9.963098,0,0,-9.963098,187.08454,153.75093)"/>
<use data-text="d" xlink:href="#font_5_2" transform="matrix(9.963098,0,0,-9.963098,101.93629,11.311829)"/>
</svg>
