<svg xmlns="http://www.w3.org/2000/svg" xmlns:xlink="http://www.w3.org/1999/xlink" version="1.1" width="197" height="178" viewBox="0 0 197 178">
<defs>
<path id="font_1_1" d="M.6589966 .23046875C.6759949 .23046875 .69400027 .23046875 .69400027 .25045777 .69400027 .27046205 .6759949 .27046205 .6589966 .27046205H.117996219C.100997928 .27046205 .08299255 .27046205 .08299255 .25045777 .08299255 .23046875 .100997928 .23046875 .117996219 .23046875H.6589966Z"/>
<path id="font_2_1" d="M.1269989 .07699585 .23298645 .18003845C.3889923 .31811524 .44898988 .3721466 .44898988 .47216798 .44898988 .5860901 .35899354 .6660156 .23699951 .6660156 .12399292 .6660156 .049987794 .57411196 .049987794 .48516847 .049987794 .4291687 .099990848 .4291687 .102996829 .4291687 .11999512 .4291687 .15499878 .44117738 .15499878 .48217774 .15499878 .5081787 .13699341 .5341797 .101989749 .5341797 .09399414 .5341797 .09199524 .5341797 .08898926 .5331726 .11199951 .59806826 .1659851 .63500979 .22399903 .63500979 .31498719 .63500979 .35798646 .5541382 .35798646 .47216798 .35798646 .39215089 .30799867 .31311036 .25299073 .25108338L.06098938 .036987306C.049987794 .025985718 .049987794 .023986817 .049987794 0H.42099L.44898988 .17404175H.42399598C.4189911 .14402771 .4119873 .1000061 .4019928 .084991458 .394989 .07699585 .32899476 .07699585 .30699159 .07699585H.1269989Z"/>
<path id="font_3_1" d="M.2649994 .37265016H.37799073C.34498597 .22489929 .33599855 .18196106 .33599855 .11508179 .33599855 .100097659 .33599855 .073150638 .34399415 .03919983 .35398866-.0047454836 .36499024-.0107421879 .37998963-.0107421879 .3999939-.0107421879 .42099 .007247925 .42099 .02722168 .42099 .033218385 .42099 .035202028 .4149933 .049179079 .38598634 .12106323 .38598634 .18595886 .38598634 .21391297 .38598634 .26683045 .3929901 .32073976 .4039917 .37265016H.5179901C.5309906 .37265016 .5669861 .37265016 .5669861 .406662 .5669861 .43066407 .54599 .43066407 .5269928 .43066407H.19198609C.16999817 .43066407 .13198853 .43066407 .08799744 .38365174 .052993776 .34469605 .026992798 .29878236 .026992798 .29379273 .026992798 .29278565 .026992798 .28379823 .038986207 .28379823 .04699707 .28379823 .04899597 .28779603 .054992677 .29577638 .10398865 .37265016 .1619873 .37265016 .18199158 .37265016H.23899842C.20698548 .25186158 .15299988 .13105774 .11099243 .04020691 .102996829 .025222779 .102996829 .023223877 .102996829 .016235352 .102996829-.002746582 .11898804-.0107421879 .13198853-.0107421879 .1619873-.0107421879 .16999817 .017242432 .18199158 .05418396 .19599915 .100097659 .19599915 .10209656 .20899964 .15202332L.2649994 .37265016Z"/>
<path id="font_4_85" d="M.33099366-.2400055C.33099366-.23701477 .33099366-.23500061 .31399537-.21800232 .18899536-.0920105 .15699768 .09700012 .15699768 .25 .15699768 .42399598 .19499207 .59799197 .31799317 .72299197 .33099366 .7350006 .33099366 .7369995 .33099366 .73999026 .33099366 .746994 .32699586 .75 .32099916 .75 .31098939 .75 .22099304 .6819916 .1619873 .5549927 .11099243 .44499208 .09899902 .33399964 .09899902 .25 .09899902 .17199707 .10998535 .050994874 .16499329-.06201172 .22499085-.18501282 .31098939-.25 .32099916-.25 .32699586-.25 .33099366-.24700928 .33099366-.2400055Z"/>
<path id="font_4_34" d="M.651001 .18289185C.651001 .26983644 .56900027 .34480287 .45799256 .35679627 .5549927 .3757782 .6239929 .43974305 .6239929 .51368716 .6239929 .6006317 .5319977 .6826172 .4019928 .6826172H.035995485V.6516113H.05999756C.13699341 .6516113 .13899231 .64060977 .13899231 .6046295V.07795715C.13899231 .041992189 .13699341 .0309906 .05999756 .0309906H.035995485V0H.42799378C.5609894-.0002593994 .651001 .08874512 .651001 .18273926V.18289185M.5269928 .5136719C.5269928 .44970704 .47799684 .36573792 .36698915 .36573792H.22200012V.6116333C.22200012 .64460757 .22399903 .6516113 .2709961 .6516113H.394989C.49198915 .65174868 .5269928 .56674197 .5269928 .51374819V.5136719M.5509949 .18386841C.5509949 .1129303 .49899293 .0309906 .3959961 .0309906H.2709961C.22399903 .0309906 .22200012 .037994386 .22200012 .07095337V.34375H.4099884C.5089874 .34399415 .5509949 .25099183 .5509949 .18399048V.18386841Z"/>
<path id="font_4_86" d="M.2889862 .25C.2889862 .32798768 .27799989 .44898988 .22299195 .56199648 .16299439 .68499758 .07699585 .75 .066986087 .75 .06098938 .75 .056991579 .74598696 .056991579 .73999026 .056991579 .7369995 .056991579 .7350006 .07598877 .71699526 .17399597 .6179962 .23098755 .45899964 .23098755 .25 .23098755 .07899475 .19400025-.09700012 .069992069-.2230072 .056991579-.23500061 .056991579-.23701477 .056991579-.2400055 .056991579-.2460022 .06098938-.25 .066986087-.25 .07699585-.25 .16699219-.18200684 .22599793-.055007936 .2769928 .054992677 .2889862 .16600037 .2889862 .25Z"/>
<path id="font_3_2" d="M.33399964 .30233766C.33999635 .32835389 .36299134 .42037965 .43299867 .42037965 .43798829 .42037965 .46199037 .42037965 .48298646 .40734864 .45498658 .402359 .43499757 .37734986 .43499757 .35334779 .43499757 .33735658 .44599916 .31835938 .47299195 .31835938 .49499513 .31835938 .5269928 .3363495 .5269928 .37635804 .5269928 .42837525 .46798707 .4423828 .43399049 .4423828 .37599183 .4423828 .34098817 .38935853 .32899476 .36634828 .3039856 .43237306 .25 .4423828 .22099304 .4423828 .116989139 .4423828 .05999756 .3133545 .05999756 .28834535 .05999756 .27833558 .069992069 .27833558 .07199097 .27833558 .07998657 .27833558 .08299255 .28033448 .084991458 .28933717 .11898804 .39535523 .18499756 .42037965 .21899414 .42037965 .23799134 .42037965 .272995 .4113617 .272995 .35334779 .272995 .32235719 .2559967 .25532533 .21899414 .11528015 .20298767 .053268434 .16799927 .011245728 .12399292 .011245728 .117996219 .011245728 .09498596 .011245728 .07398987 .024276734 .09899902 .029266358 .12098694 .05027771 .12098694 .07827759 .12098694 .105270389 .09899902 .11328125 .083999637 .11328125 .053985597 .11328125 .0289917 .08728027 .0289917 .055267335 .0289917 .009246826 .07899475-.0107421879 .12298584-.0107421879 .18899536-.0107421879 .22499085 .059280397 .22799683 .0652771 .23999024 .028274537 .27598573-.0107421879 .33599855-.0107421879 .43899537-.0107421879 .49598695 .118270877 .49598695 .14328003 .49598695 .1532898 .4869995 .1532898 .48399354 .1532898 .47499085 .1532898 .47299195 .14929199 .47099305 .14228821 .43798829 .03527832 .36999513 .011245728 .33799745 .011245728 .29899598 .011245728 .2829895 .043273927 .2829895 .07727051 .2829895 .09927368 .2889862 .121276859 .2999878 .16529846L.33399964 .30233766Z"/>
<path id="font_3_3" d="M.48599244 .38136292C.48999024 .39537049 .48999024 .39736939 .48999024 .40437318 .48999024 .42237855 .47599793 .43138124 .46099855 .43138124 .45098878 .43138124 .43499757 .42536927 .42599488 .41036988 .42399598 .405365 .41600038 .37435914 .4119873 .35635377 .40499879 .33035279 .397995 .30334474 .3919983 .27633668L.34700013 .09628296C.34298707 .08126831 .2999878 .011245728 .23399353 .011245728 .18299866 .011245728 .17199707 .055267335 .17199707 .0922699 .17199707 .1382904 .18899536 .20030213 .22299195 .28833009 .23899842 .3293457 .24299622 .3403473 .24299622 .36035157 .24299622 .405365 .21099854 .4423828 .16099549 .4423828 .06599426 .4423828 .0289917 .29733277 .0289917 .28833009 .0289917 .27833558 .038986207 .27833558 .040985109 .27833558 .050994874 .27833558 .051986696 .28033448 .056991579 .29634095 .083999637 .3903656 .12399292 .42037965 .1579895 .42037965 .1659851 .42037965 .18299866 .42037965 .18299866 .3883667 .18299866 .36335755 .17298889 .3373413 .1659851 .31834413 .12599182 .21231079 .10798645 .1552887 .10798645 .10827637 .10798645 .019256592 .17098999-.0107421879 .22999573-.0107421879 .2689972-.0107421879 .30299378 .0062561037 .33099366 .03425598 .31799317-.017745972 .30599977-.06674194 .2659912-.11973572 .23999024-.15385437 .20199585-.18309021 .1559906-.18309021 .14199829-.18309021 .09700012-.18005371 .07998657-.14074707 .09599304-.14074707 .10899353-.14074707 .12298584-.1287384 .1329956-.11973572 .14299011-.10673523 .14299011-.08773804 .14299011-.056747438 .115997318-.052734376 .10598755-.052734376 .08299255-.052734376 .049987794-.068740848 .049987794-.11773682 .049987794-.16796875 .09399414-.20507813 .1559906-.20507813 .25898744-.20507813 .3619995-.11373901 .3899994-.00074768069L.48599244 .38136292Z"/>
</defs>
<path transform="matrix(1.00005,0,0,-1.00003,1.6962814,176.1949)" stroke-width=".19925" stroke-linecap="butt" stroke-miterlimit="10" stroke-linejoin="miter" fill="none" stroke="#929292" d="M6.76791 79.83879V82.67366M17.39893 79.83879V82.67366M28.02995 79.83879V82.67366M38.66098 79.83879V82.67366M49.29199 79.83879V82.67366M59.92303 79.83879V82.67366M70.55405 79.83879V82.67366M81.18507 79.83879V82.67366M91.8161 79.83879V82.67366M102.44713 79.83879V82.67366M113.07814 79.83879V82.67366M123.70918 79.83879V82.67366M134.3402 79.83879V82.67366M144.9712 79.83879V82.67366M155.60225 79.83879V82.67366M166.23328 79.83879V82.67366M176.86429 79.83879V82.67366M187.49533 79.83879V82.67366"/>
<path transform="matrix(1.00005,0,0,-1.00003,1.6962814,176.1949)" stroke-width=".19925" stroke-linecap="butt" stroke-miterlimit="10" stroke-linejoin="miter" fill="none" stroke="#929292" d="M17.39893 79.1303V83.38214M59.92303 79.1303V83.38214M144.97122 79.1303V83.38214M187.49533 79.1303V83.38214"/>
<path transform="matrix(1.00005,0,0,-1.00003,1.6962814,176.1949)" stroke-width=".19925" stroke-linecap="butt" stroke-miterlimit="10" stroke-linejoin="miter" fill="none" stroke="#929292" d="M100.32112 32.3484H104.57312M100.32112 130.16402H104.57312"/>
<path transform="matrix(1.00005,0,0,-1.00003,1.6962814,176.1949)" stroke-width=".3985" stroke-linecap="butt" stroke-miterlimit="10" stroke-linejoin="miter" fill="none" stroke="#000000" d="M0 81.25621H192.2707"/>
<path transform="matrix(1.00005,0,0,-1.00003,193.9766,94.93625)" d="M1.99252 0-1.19551 1.59401 0 0-1.19551-1.59401"/>
<path transform="matrix(1.00005,0,0,-1.00003,1.6962814,176.1949)" stroke-width=".3985" stroke-linecap="butt" stroke-miterlimit="10" stroke-linejoin="miter" fill="none" stroke="#000000" d="M102.44713 .55833V159.96157"/>
<path transform="matrix(0,-1.00003,-1.00005,-0,104.14853,16.22853)" d="M1.99252 0-1.19551 1.59401 0 0-1.19551-1.59401"/>
<use data-text="&#x2212;" xlink:href="#font_1_1" transform="matrix(9.963098,0,0,-9.962899,9.712685,107.00282)"/>
<use data-text="2" xlink:href="#font_2_1" transform="matrix(9.963098,0,0,-9.962899,17.461075,107.00282)"/>
<use data-text="&#x03c0;" xlink:href="#font_3_1" transform="matrix(9.963098,0,0,-9.962899,22.443329,107.00282)"/>
<use data-text="&#x2212;" xlink:href="#font_1_1" transform="matrix(9.963098,0,0,-9.962899,54.728929,106.3938)"/>
<use data-text="&#x03c0;" xlink:href="#font_3_1" transform="matrix(9.963098,0,0,-9.962899,62.477319,106.3938)"/>
<use data-text="&#x03c0;" xlink:href="#font_3_1" transform="matrix(9.963098,0,0,-9.962899,143.65637,104.87176)"/>
<use data-text="2" xlink:href="#font_2_1" transform="matrix(9.963098,0,0,-9.962899,183.69138,107.00282)"/>
<use data-text="&#x03c0;" xlink:href="#font_3_1" transform="matrix(9.963098,0,0,-9.962899,188.67263,107.00282)"/>
<use data-text="&#x2212;" xlink:href="#font_1_1" transform="matrix(9.963098,0,0,-9.962899,85.77148,146.64102)"/>
<use data-text="2" xlink:href="#font_2_1" transform="matrix(9.963098,0,0,-9.962899,93.51987,146.64102)"/>
<use data-text="2" xlink:href="#font_2_1" transform="matrix(9.963098,0,0,-9.962899,93.52087,49.237085)"/>
<path transform="matrix(1.00005,0,0,-1.00003,1.6962814,176.1949)" stroke-width=".99628" stroke-linecap="butt" stroke-miterlimit="10" stroke-linejoin="miter" fill="none" stroke="#0000ff" d="M18.80734 2.88858 18.9526 10.53926 19.15268 18.6891 19.35277 25.17584 19.55286 30.46394 19.75294 34.85573 19.95302 38.56967 20.1531 41.74986 20.3532 44.49951 20.55327 46.91017 20.75336 49.03876 20.95345 50.93059 21.15353 52.62637 21.3536 54.1539 21.5537 55.53831 21.75378 56.79996 21.95386 57.95384 22.15395 59.01514 22.35403 59.99295 22.55412 60.89822 22.7542 61.73885 22.95428 62.52293 23.15437 63.25507 23.35445 63.94107 23.55453 64.58429 23.75462 65.19081 23.95471 65.76286 24.15479 66.30338 24.35487 66.81624 24.55496 67.3019 24.75504 67.76358 24.95512 68.20367 25.15521 68.62314 25.3553 69.02393 25.55537 69.40753 25.75546 69.77457 25.95555 70.12679 26.15562 70.46523 26.35571 70.79086 26.5558 71.10355 26.75589 71.40546 26.95596 71.69695 27.15605 71.97826 27.35614 72.25002 27.55621 72.51355 27.7563 72.76852 27.95639 73.0159 28.15648 73.25612 28.35655 73.48917 28.55664 73.71585 28.75673 73.93658 28.9568 74.15112 29.15689 74.36044 29.35698 74.56488 29.55707 74.7641 29.75714 74.95874 29.95723 75.149 30.15732 75.33517 30.35739 75.51743 30.55748 75.69579 30.75757 75.87054 30.95766 76.0418 31.15773 76.20996 31.35782 76.37509 31.5579 76.53748 31.75798 76.69691 31.95807 76.85399 32.15816 77.00845 32.35825 77.16048 32.55832 77.31021 32.7584 77.458 32.9585 77.60365 33.15857 77.74736 33.35866 77.88919 33.55875 78.02963 33.75883 78.16812 33.95891 78.30507 34.159 78.44069 34.35909 78.57487 34.55916 78.70773 34.75925 78.8393 34.95934 78.96988 35.15942 79.09949 35.3595 79.22787 35.55959 79.35535 35.75967 79.48186 35.95975 79.60771 36.15984 79.73283 36.35992 79.85707 36.56001 79.98096 36.76009 80.10396 36.96017 80.22672 37.16026 80.3489 37.36034 80.47067 37.56042 80.5921 37.76051 80.71318 37.96059 80.83423 38.16066 80.95497 38.36075 81.07545 38.56084 81.19597 38.76091 81.31645 38.96101 81.4369 39.16107 81.55745 39.36118 81.6782 39.56123 81.79909 39.76134 81.92024 39.96143 82.0416 40.1615 82.16345 40.36159 82.28572 40.56166 82.40831 40.76176 82.53148 40.96185 82.6552 41.16193 82.7796 41.36201 82.90471 41.56209 83.03056 41.76218 83.15707 41.96227 83.28448 42.16234 83.41295 42.36244 83.5423 42.5625 83.67288 42.7626 83.80446 42.96269 83.9374 43.16277 84.07164 43.36285 84.20737 43.56293 84.34431 43.76302 84.4828 43.96312 84.62299 44.16318 84.76491 44.36328 84.90869 44.56334 85.05437 44.76344 85.20213 44.96353 85.35188 45.1636 85.50381 45.3637 85.65845 45.56377 85.81526 45.76385 85.97487 45.96396 86.13708 46.16402 86.3023 46.36412 86.47038 46.56418 86.64189 46.76428 86.81648 46.96437 86.995 47.16444 87.1771 47.36453 87.3631 47.5646 87.55336 47.76471 87.74826 47.9648 87.94746 48.16487 88.15157 48.36496 88.36105 48.56503 88.57584 48.76512 88.79633 48.96521 89.0231 49.16528 89.25623 49.36539 89.49628 49.56544 89.7435 49.76555 89.99873 49.96564 90.26216 50.16571 90.53369 50.3658 90.81548 50.56587 91.10696 50.76596 91.40863 50.96606 91.72157 51.16612 92.0468 51.36623 92.38564 51.56628 92.73753 51.76639 93.10481 51.96648 93.48817 52.16655 93.88872 52.36664 94.30876 52.56671 94.74837 52.7668 95.21002 52.9669 95.69592 53.16696 96.20816 53.36707 96.7493 53.56712 97.32086 53.76723 97.92708 53.96732 98.5707 54.16739 99.25653 54.36748 99.98811 54.56755 100.77234 54.76765 101.61339 54.96774 102.51817 55.16782 103.4973 55.3679 104.55647 55.56798 105.71109 55.76807 106.97241 55.96815 108.35745 56.16823 109.88507 56.36832 111.57841 56.56839 113.47293 56.7685 115.59778 56.96858 118.01118 57.16866 120.7606 57.36874 123.93779 57.56882 127.6562 57.7689 132.04523 57.96901 137.3366 58.16907 143.81487 58.36917 151.95597 58.5145 159.61489"/>
<path transform="matrix(-.018980949,.99982008,.99983999,.01898057,20.504582,173.30622)" d="M2.8892 0-1.73352 2.31136 0 0-1.73352-2.31136" fill="#0000ff"/>
<path transform="matrix(.018950947,-.99982008,-.99983999,-.01895057,60.213705,16.575242)" d="M2.8892 0-1.73352 2.31136 0 0-1.73352-2.31136" fill="#0000ff"/>
<path transform="matrix(1.00005,0,0,-1.00003,1.6962814,176.1949)" stroke-width=".99628" stroke-linecap="butt" stroke-miterlimit="10" stroke-linejoin="miter" fill="none" stroke="#0000ff" d="M61.33145 2.88858 61.47668 10.53926 61.67677 18.6891 61.87686 25.16794 62.07693 30.45758 62.27702 34.85573 62.47711 38.56747 62.6772 41.74986 62.87727 44.49951 63.07736 46.90993 63.27745 49.03616 63.47752 50.93166 63.67761 52.62637 63.8777 54.1539 64.07779 55.53831 64.27786 56.80157 64.47795 57.95384 64.67804 59.0152 64.87811 59.99295 65.0782 60.89822 65.27829 61.73885 65.47838 62.52333 65.67845 63.25507 65.87854 63.941 66.07863 64.58429 66.2787 65.1913 66.47879 65.7631 66.67888 66.30338 66.87897 66.81624 67.07904 67.3019 67.27913 67.76358 67.47922 68.20367 67.67929 68.62305 67.87938 69.02377 68.07947 69.40753 68.27956 69.77417 68.47963 70.12654 68.67972 70.46498 68.8798 70.7902 69.07988 71.10355 69.27997 71.40546 69.48006 71.69695 69.68015 71.97801 69.88022 72.25026 70.0803 72.51355 70.2804 72.76843 70.48047 73.01581 70.68056 73.25595 70.88065 73.48917 71.08073 73.71594 71.2808 73.93634 71.4809 74.15112 71.68098 74.36061 71.88106 74.56488 72.08115 74.76418 72.28123 74.95874 72.48132 75.149 72.6814 75.33508 72.88148 75.51726 73.08157 75.6957 73.28165 75.8703 73.48174 76.0418 73.68182 76.20996 73.88191 76.37509 74.08199 76.53757 74.28207 76.69691 74.48216 76.85399 74.68224 77.00836 74.88232 77.16031 75.08241 77.31021 75.2825 77.458 75.48257 77.60365 75.68266 77.74736 75.88275 77.88919 76.08282 78.02939 76.28291 78.16812 76.483 78.30507 76.68309 78.44054 76.88316 78.57487 77.08325 78.70773 77.28334 78.83954 77.48341 78.96988 77.6835 79.09924 77.88359 79.22787 78.08368 79.35518 78.28375 79.48186 78.48384 79.60756 78.68393 79.73276 78.884 79.85722 79.08409 79.98096 79.28418 80.10413 79.48427 80.22672 79.68434 80.3489 79.88443 80.47067 80.08452 80.5922 80.28459 80.71318 80.48468 80.83423 80.68477 80.95497 80.88486 81.07545 81.08493 81.19597 81.28502 81.31628 81.4851 81.4369 81.68518 81.5573 81.88527 81.6782 82.08534 81.79909 82.28545 81.92024 82.48553 82.0416 82.68561 82.16328 82.8857 82.28572 83.08577 82.40831 83.28586 82.53148 83.48596 82.6552 83.68602 82.77943 83.88612 82.90456 84.08618 83.03056 84.28629 83.1569 84.48637 83.28448 84.68645 83.41295 84.88654 83.5423 85.08661 83.67288 85.2867 83.80469 85.4868 83.93756 85.68686 84.07172 85.88696 84.20737 86.08702 84.34431 86.28712 84.4828 86.48721 84.62299 86.68729 84.76491 86.88737 84.90869 87.08745 85.05444 87.28754 85.20213 87.48764 85.35188 87.6877 85.50381 87.8878 85.65828 88.08786 85.81543 88.28796 85.9747 88.48805 86.13708 88.68813 86.30222 88.88821 86.47038 89.08829 86.64172 89.28839 86.81648 89.48848 86.995 89.68855 87.1771 89.88864 87.3631 90.08871 87.5536 90.2888 87.74826 90.4889 87.94746 90.68896 88.15157 90.88907 88.36105 91.08913 88.57584 91.28923 88.7965 91.48932 89.02327 91.68939 89.25623 91.88948 89.49628 92.08955 89.7435 92.28964 89.99847 92.48975 90.26167 92.6898 90.53369 92.88991 90.81523 93.08997 91.1063 93.29007 91.4084 93.49016 91.72157 93.69023 92.0468 93.89032 92.38564 94.0904 92.73737 94.29048 93.1049 94.49059 93.488 94.69064 93.88872 94.89075 94.30876 95.0908 94.74796 95.29091 95.21051 95.491 95.69562 95.69107 96.20816 95.89116 96.7493 96.09123 97.32086 96.29134 97.92708 96.49142 98.57045 96.6915 99.25653 96.89159 99.98811 97.09166 100.77193 97.29175 101.61339 97.49185 102.51947 97.69191 103.4973 97.89201 104.55786 98.09207 105.71085 98.29218 106.97191 98.49226 108.35649 98.69234 109.8845 98.89243 111.57841 99.0925 113.4703 99.29259 115.60063 99.49269 118.00769 99.69275 120.7606 99.89285 123.93779 100.09291 127.65343 100.29301 132.04848 100.4931 137.33318 100.69318 143.81487 100.89326 151.95597 101.03859 159.61489"/>
<path transform="matrix(-.018980949,.99982008,.99983999,.01898057,63.030817,173.30622)" d="M2.8892 0-1.73352 2.31136 0 0-1.73352-2.31136" fill="#0000ff"/>
<path transform="matrix(.018950947,-.99982008,-.99983999,-.01895057,102.739917,16.575242)" d="M2.8892 0-1.73352 2.31136 0 0-1.73352-2.31136" fill="#0000ff"/>
<path transform="matrix(1.00005,0,0,-1.00003,1.6962814,176.1949)" stroke-width=".99628" stroke-linecap="butt" stroke-miterlimit="10" stroke-linejoin="miter" fill="none" stroke="#0000ff" d="M103.85555 2.88858 104.00078 10.53926 104.20087 18.6891 104.40096 25.16794 104.60104 30.45758 104.80112 34.85573 105.0012 38.56747 105.2013 41.74986 105.40137 44.50124 105.60146 46.90993 105.80154 49.03876 106.00163 50.93166 106.2017 52.62637 106.4018 54.1539 106.60188 55.53831 106.80196 56.79971 107.00204 57.95457 107.20213 59.01447 107.40222 59.99248 107.6023 60.89822 107.80238 61.73885 108.00247 62.52293 108.20255 63.25554 108.40263 63.941 108.60272 64.58461 108.80281 65.1913 109.00288 65.76286 109.20297 66.30338 109.40306 66.81624 109.60313 67.3019 109.80322 67.76358 110.00331 68.20367 110.2034 68.62314 110.40347 69.02426 110.60356 69.40727 110.80365 69.77417 111.00372 70.12679 111.20381 70.46498 111.4039 70.7902 111.60399 71.10355 111.80406 71.40538 112.00415 71.69695 112.20424 71.97826 112.40431 72.25026 112.6044 72.5137 112.80449 72.76852 113.00458 73.01581 113.20465 73.25612 113.40474 73.48917 113.60483 73.7157 113.8049 73.93658 114.00499 74.15129 114.20508 74.36044 114.40517 74.56497 114.60524 74.7641 114.80533 74.95874 115.00542 75.149 115.20549 75.33508 115.40558 75.51726 115.60567 75.69579 115.80576 75.8703 116.00583 76.0418 116.20592 76.21013 116.406 76.37526 116.60608 76.53748 116.80617 76.69691 117.00626 76.85399 117.20634 77.00836 117.40642 77.16048 117.6065 77.31021 117.8066 77.458 118.00667 77.60365 118.20676 77.74736 118.40685 77.88927 118.60693 78.02963 118.807 78.16788 119.0071 78.30507 119.20718 78.44054 119.40726 78.5748 119.60735 78.70773 119.80743 78.8393 120.00752 78.96988 120.2076 79.09949 120.40768 79.22787 120.60777 79.35535 120.80785 79.48186 121.00793 79.60771 121.20802 79.73283 121.40811 79.85707 121.60818 79.98071 121.80827 80.10413 122.00836 80.22672 122.20844 80.34898 122.40852 80.47067 122.60861 80.5921 122.8087 80.71318 123.00877 80.83414 123.20886 80.95497 123.40895 81.07545 123.60902 81.19597 123.80911 81.31628 124.00922 81.4369 124.20927 81.5573 124.40938 81.67804 124.60944 81.79909 124.80954 81.92015 125.00963 82.04175 125.2097 82.16345 125.40979 82.28572 125.60986 82.40831 125.80995 82.53148 126.01006 82.6552 126.21011 82.7796 126.41022 82.90471 126.61028 83.03032 126.81038 83.1569 127.01047 83.28448 127.21054 83.41295 127.41063 83.5423 127.6107 83.67305 127.81079 83.80446 128.0109 83.9374 128.21096 84.07164 128.41106 84.20737 128.61112 84.34431 128.81122 84.4828 129.0113 84.62315 129.21138 84.76508 129.41147 84.90869 129.61154 85.05437 129.81165 85.20213 130.01174 85.35188 130.2118 85.50398 130.4119 85.65828 130.61197 85.81526 130.81206 85.9747 131.01216 86.13716 131.21222 86.30222 131.41233 86.47038 131.61238 86.64172 131.81249 86.81648 132.01258 86.995 132.21265 87.17693 132.41274 87.3631 132.61281 87.55336 132.8129 87.74826 133.013 87.94746 133.21306 88.15157 133.41316 88.36082 133.61322 88.57584 133.81333 88.79633 134.01342 89.02327 134.21349 89.25623 134.41358 89.49628 134.61365 89.74374 134.81374 89.99847 135.01384 90.26167 135.2139 90.53369 135.414 90.81523 135.61406 91.1067 135.81417 91.4084 136.01425 91.72157 136.21433 92.04712 136.41442 92.38556 136.61449 92.73737 136.81459 93.1049 137.01468 93.488 137.21475 93.88898 137.41484 94.30827 137.61492 94.74796 137.815 95.20978 138.0151 95.69562 138.21517 96.2084 138.41527 96.749 138.61533 97.32086 138.81543 97.92708 139.01552 98.57045 139.21559 99.25653 139.41568 99.98787 139.61576 100.77234 139.81584 101.61339 140.01595 102.51817 140.216 103.49608 140.4161 104.55753 140.61617 105.71085 140.81627 106.97191 141.01636 108.35649 141.21643 109.88548 141.41652 111.58078 141.6166 113.47293 141.81668 115.60063 142.01679 118.00769 142.21685 120.7606 142.41695 123.94244 142.617 127.65343 142.81711 132.04848 143.0172 137.33318 143.21727 143.81487 143.41736 151.96231 143.56264 159.61489"/>
<path transform="matrix(-.018980949,.99982008,.99983999,.01898057,105.55703,173.30622)" d="M2.8892 0-1.73352 2.31136 0 0-1.73352-2.31136" fill="#0000ff"/>
<path transform="matrix(.018970948,-.99982008,-.99983999,-.01897057,145.26609,16.575242)" d="M2.8892 0-1.73352 2.31136 0 0-1.73352-2.31136" fill="#0000ff"/>
<path transform="matrix(1.00005,0,0,-1.00003,1.6962814,176.1949)" stroke-width=".99628" stroke-linecap="butt" stroke-miterlimit="10" stroke-linejoin="miter" fill="none" stroke="#0000ff" d="M146.37964 2.88858 146.5249 10.53926 146.72498 18.69888 146.92507 25.17584 147.12516 30.46394 147.32523 34.85036 147.52532 38.56967 147.7254 41.74986 147.92549 44.50124 148.12557 46.91017 148.32566 49.03616 148.52574 50.93059 148.72582 52.62637 148.9259 54.15497 149.12599 55.53831 149.32608 56.80135 149.52616 57.95384 149.72624 59.01514 149.92633 59.99248 150.1264 60.89822 150.32649 61.7391 150.52658 62.52293 150.72667 63.25554 150.92675 63.941 151.12683 64.58461 151.32692 65.19073 151.527 65.76286 151.72708 66.30354 151.92717 66.81561 152.12726 67.3019 152.32733 67.76399 152.52742 68.20367 152.72751 68.62314 152.92758 69.02393 153.12767 69.40727 153.32776 69.77457 153.52785 70.12679 153.72792 70.46498 153.92801 70.79047 154.1281 71.10355 154.32817 71.40546 154.52826 71.69695 154.72835 71.97826 154.92844 72.25026 155.12851 72.5137 155.3286 72.76843 155.52869 73.0159 155.72876 73.25612 155.92885 73.48917 156.12894 73.7157 156.32903 73.93634 156.5291 74.15112 156.72919 74.36044 156.92928 74.56488 157.12935 74.7641 157.32944 74.95874 157.52953 75.149 157.72962 75.33508 157.92969 75.51726 158.12978 75.69579 158.32987 75.8703 158.52994 76.0418 158.73003 76.21013 158.93012 76.37526 159.1302 76.53748 159.33028 76.69699 159.53037 76.85399 159.73046 77.00836 159.93053 77.16048 160.13062 77.31021 160.3307 77.458 160.53079 77.60365 160.73087 77.74736 160.93096 77.88919 161.13105 78.02939 161.33112 78.16812 161.5312 78.30507 161.7313 78.44054 161.93138 78.57487 162.13146 78.70773 162.33155 78.83954 162.53163 78.96988 162.7317 79.09924 162.9318 79.22787 163.13188 79.35535 163.33197 79.48186 163.53205 79.60771 163.73213 79.73283 163.93222 79.85707 164.1323 79.98096 164.33238 80.10413 164.53247 80.22672 164.73256 80.34898 164.93264 80.47067 165.13272 80.5921 165.33281 80.71318 165.53289 80.83423 165.73297 80.95497 165.93306 81.07545 166.13315 81.19597 166.33322 81.31628 166.53333 81.4369 166.73339 81.55745 166.93349 81.6782 167.13355 81.79909 167.33365 81.92015 167.53374 82.04175 167.73381 82.16345 167.93389 82.28572 168.13396 82.40831 168.33405 82.53148 168.53415 82.6552 168.7342 82.7796 168.93431 82.90471 169.13437 83.03056 169.33448 83.15707 169.53456 83.28448 169.73464 83.41295 169.93473 83.5423 170.1348 83.67305 170.3349 83.80469 170.53499 83.9374 170.73506 84.07172 170.93515 84.20737 171.13523 84.34431 171.33531 84.4828 171.53542 84.62299 171.73548 84.76508 171.93558 84.90869 172.13564 85.05437 172.33574 85.20213 172.53583 85.35188 172.7359 85.50398 172.93599 85.65828 173.13607 85.81526 173.33615 85.9747 173.53626 86.13708 173.73632 86.3023 173.93642 86.47038 174.13648 86.64189 174.33658 86.81665 174.53667 86.995 174.73674 87.1771 174.93683 87.3631 175.1369 87.55336 175.33699 87.74826 175.5371 87.94739 175.73715 88.15157 175.93726 88.36082 176.13732 88.57568 176.33742 88.7965 176.5375 89.02303 176.73758 89.25623 176.93767 89.49628 177.13774 89.74374 177.33785 89.99823 177.53794 90.26167 177.738 90.53401 177.9381 90.81499 178.13817 91.10655 178.33826 91.40863 178.53836 91.72157 178.73842 92.0472 178.93852 92.38515 179.13858 92.73753 179.33869 93.1049 179.53878 93.48776 179.73885 93.88872 179.93894 94.30801 180.139 94.74796 180.3391 95.21036 180.5392 95.69592 180.73926 96.20816 180.93936 96.7493 181.13942 97.32086 181.33953 97.92708 181.53961 98.57045 181.73969 99.25653 181.93978 99.9891 182.13985 100.77234 182.33994 101.61363 182.54004 102.51817 182.7401 103.4973 182.9402 104.55786 183.14026 105.71011 183.34037 106.97191 183.54045 108.35745 183.74053 109.88606 183.94062 111.58078 184.14069 113.47293 184.34079 115.59778 184.54088 118.01118 184.74095 120.7606 184.94104 123.94244 185.14112 127.6562 185.3412 132.04523 185.5413 137.33318 185.74137 143.80995 185.94147 151.95597 186.08679 159.61489"/>
<path transform="matrix(-.018980949,.99982008,.99983999,.01898057,148.08325,173.30622)" d="M2.8892 0-1.73352 2.31136 0 0-1.73352-2.31136" fill="#0000ff"/>
<path transform="matrix(.018950947,-.99982008,-.99983999,-.01895057,187.79236,16.575242)" d="M2.8892 0-1.73352 2.31136 0 0-1.73352-2.31136" fill="#0000ff"/>
<path transform="matrix(1.00005,0,0,-1.00003,1.6962814,176.1949)" stroke-width=".3985" stroke-linecap="butt" stroke-dasharray="2.98883,2.98883" stroke-miterlimit="10" stroke-linejoin="miter" fill="none" stroke="#ff0000" d="M17.39893 .55833V161.95409"/>
<path transform="matrix(1.00005,0,0,-1.00003,1.6962814,176.1949)" stroke-width=".3985" stroke-linecap="butt" stroke-dasharray="2.98883,2.98883" stroke-miterlimit="10" stroke-linejoin="miter" fill="none" stroke="#ff0000" d="M59.92303 .55833V161.95409"/>
<path transform="matrix(1.00005,0,0,-1.00003,1.6962814,176.1949)" stroke-width=".3985" stroke-linecap="butt" stroke-dasharray="2.98883,2.98883" stroke-miterlimit="10" stroke-linejoin="miter" fill="none" stroke="#ff0000" d="M102.44713 .55833V161.95409"/>
<path transform="matrix(1.00005,0,0,-1.00003,1.6962814,176.1949)" stroke-width=".3985" stroke-linecap="butt" stroke-dasharray="2.98883,2.98883" stroke-miterlimit="10" stroke-linejoin="miter" fill="none" stroke="#ff0000" d="M144.97122 .55833V161.95409"/>
<path transform="matrix(1.00005,0,0,-1.00003,1.6962814,176.1949)" stroke-width=".3985" stroke-linecap="butt" stroke-dasharray="2.98883,2.98883" stroke-miterlimit="10" stroke-linejoin="miter" fill="none" stroke="#ff0000" d="M187.49532 .55833V161.95409"/>
<use data-text="(" xlink:href="#font_4_85" transform="matrix(9.963098,0,0,-9.962899,2.2183076,9.389893)"/>
<use data-text="B" xlink:href="#font_4_34" transform="matrix(9.963098,0,0,-9.962899,6.093956,9.389893)"/>
<use data-text=")" xlink:href="#font_4_86" transform="matrix(9.963098,0,0,-9.962899,13.147827,9.389893)"/>
<use data-text="x" xlink:href="#font_3_2" transform="matrix(9.963098,0,0,-9.962899,186.75452,91.41635)"/>
<use data-text="y" xlink:href="#font_3_3" transform="matrix(9.963098,0,0,-9.962899,107.66858,22.045273)"/>
</svg>
