<svg xmlns="http://www.w3.org/2000/svg" xmlns:xlink="http://www.w3.org/1999/xlink" version="1.1" width="125" height="126" viewBox="0 0 125 126">
<defs>
<path id="font_1_1" d="M.33399964 .30233766C.33999635 .32835389 .36299134 .42037965 .43299867 .42037965 .43798829 .42037965 .46199037 .42037965 .48298646 .40734864 .45498658 .402359 .43499757 .37734986 .43499757 .35334779 .43499757 .33735658 .44599916 .31835938 .47299195 .31835938 .49499513 .31835938 .5269928 .3363495 .5269928 .37635804 .5269928 .42837525 .46798707 .4423828 .43399049 .4423828 .37599183 .4423828 .34098817 .38935853 .32899476 .36634828 .3039856 .43237306 .25 .4423828 .22099304 .4423828 .116989139 .4423828 .05999756 .3133545 .05999756 .28834535 .05999756 .27833558 .069992069 .27833558 .07199097 .27833558 .07998657 .27833558 .08299255 .28033448 .084991458 .28933717 .11898804 .39535523 .18499756 .42037965 .21899414 .42037965 .23799134 .42037965 .272995 .4113617 .272995 .35334779 .272995 .32235719 .2559967 .25532533 .21899414 .11528015 .20298767 .053268434 .16799927 .011245728 .12399292 .011245728 .117996219 .011245728 .09498596 .011245728 .07398987 .024276734 .09899902 .029266358 .12098694 .05027771 .12098694 .07827759 .12098694 .105270389 .09899902 .11328125 .083999637 .11328125 .053985597 .11328125 .0289917 .08728027 .0289917 .055267335 .0289917 .009246826 .07899475-.0107421879 .12298584-.0107421879 .18899536-.0107421879 .22499085 .059280397 .22799683 .0652771 .23999024 .028274537 .27598573-.0107421879 .33599855-.0107421879 .43899537-.0107421879 .49598695 .118270877 .49598695 .14328003 .49598695 .1532898 .4869995 .1532898 .48399354 .1532898 .47499085 .1532898 .47299195 .14929199 .47099305 .14228821 .43798829 .03527832 .36999513 .011245728 .33799745 .011245728 .29899598 .011245728 .2829895 .043273927 .2829895 .07727051 .2829895 .09927368 .2889862 .121276859 .2999878 .16529846L.33399964 .30233766Z"/>
<path id="font_1_2" d="M.48599244 .38136292C.48999024 .39537049 .48999024 .39736939 .48999024 .40437318 .48999024 .42237855 .47599793 .43138124 .46099855 .43138124 .45098878 .43138124 .43499757 .42536927 .42599488 .41036988 .42399598 .405365 .41600038 .37435914 .4119873 .35635377 .40499879 .33035279 .397995 .30334474 .3919983 .27633668L.34700013 .09628296C.34298707 .08126831 .2999878 .011245728 .23399353 .011245728 .18299866 .011245728 .17199707 .055267335 .17199707 .0922699 .17199707 .1382904 .18899536 .20030213 .22299195 .28833009 .23899842 .3293457 .24299622 .3403473 .24299622 .36035157 .24299622 .405365 .21099854 .4423828 .16099549 .4423828 .06599426 .4423828 .0289917 .29733277 .0289917 .28833009 .0289917 .27833558 .038986207 .27833558 .040985109 .27833558 .050994874 .27833558 .051986696 .28033448 .056991579 .29634095 .083999637 .3903656 .12399292 .42037965 .1579895 .42037965 .1659851 .42037965 .18299866 .42037965 .18299866 .3883667 .18299866 .36335755 .17298889 .3373413 .1659851 .31834413 .12599182 .21231079 .10798645 .1552887 .10798645 .10827637 .10798645 .019256592 .17098999-.0107421879 .22999573-.0107421879 .2689972-.0107421879 .30299378 .0062561037 .33099366 .03425598 .31799317-.017745972 .30599977-.06674194 .2659912-.11973572 .23999024-.15385437 .20199585-.18309021 .1559906-.18309021 .14199829-.18309021 .09700012-.18005371 .07998657-.14074707 .09599304-.14074707 .10899353-.14074707 .12298584-.1287384 .1329956-.11973572 .14299011-.10673523 .14299011-.08773804 .14299011-.056747438 .115997318-.052734376 .10598755-.052734376 .08299255-.052734376 .049987794-.068740848 .049987794-.11773682 .049987794-.16796875 .09399414-.20507813 .1559906-.20507813 .25898744-.20507813 .3619995-.11373901 .3899994-.00074768069L.48599244 .38136292Z"/>
<path id="font_2_27" d="M.80999758 0V.042999269H.71499636L.45799256 .67718508C.45098878 .6951904 .44898988 .7001953 .4249878 .7001953 .3999939 .7001953 .397995 .6951904 .3909912 .67718508L.14299011 .0670166C.13598633 .050994874 .13598633 .04899597 .10798645 .04598999 .08299255 .042999269 .07899475 .042999269 .056991579 .042999269H.038986207V0C.06498718 .0019989014 .125 .0019989014 .1539917 .0019989014 .18099976 .0019989014 .2539978 .0019989014 .2769928 0V.042999269C.25498963 .042999269 .21699524 .042999269 .18899536 .054000856 .19198609 .0630188 .19198609 .0650177 .19400025 .06903076L.24699402 .19917298H.5149994L.5779877 .042999269H.48399354V0C.5159912 .0019989014 .61299136 .0019989014 .651001 .0019989014 .68299868 .0019989014 .7849884 .0019989014 .80999758 0M.49699403 .2421875H.2639923L.3809967 .5301819 .49699403 .2421875Z"/>
<path id="font_3_72" d="M.25498963 0V.0309906C.18798828 .0309906 .1769867 .0309906 .1769867 .07601929V.69433596L.032989503 .6826172V.6516113C.102996829 .6516113 .11099243 .64460757 .11099243 .5956421V.07595825C.11099243 .0309906 .099990848 .0309906 .032989503 .0309906V0L.14399719 .0029907227 .25498963 0Z"/>
<path id="font_2_97" d="M.56199648 .20014954C.56199648 .2942047 .5 .38433839 .3909912 .40937806L.2539978 .4404297C.15499878 .4624176 .1519928 .5343628 .1519928 .5483551 .1519928 .59928897 .18499756 .65823367 .28199769 .65823367 .3789978 .65823367 .46598817 .61128237 .4869995 .48042298 .48999024 .45942689 .48999024 .4584198 .5089874 .4584198 .5299988 .4584198 .5299988 .46142579 .5299988 .48442079V.6722412C.5299988 .6912384 .5299988 .6982422 .5149994 .6982422 .5079956 .6982422 .5049896 .6972351 .49598695 .6872406L.45298768 .6382599C.42799378 .6592407 .37799073 .6982422 .2809906 .6982422 .13798523 .6982422 .06199646 .6082916 .06199646 .4994049 .06199646 .43241883 .09799194 .38534547 .11199951 .37132264 .1639862 .31924439 .19198609 .31323243 .29599 .2902069 .3959961 .26817323 .4079895 .26617433 .42999269 .2451477 .44299317 .23214722 .47200013 .20414734 .47200013 .15318299 .47200013 .11021423 .45098878 .031280519 .33898927 .031280519 .25099183 .031280519 .11199951 .06124878 .10398865 .20713806 .102996829 .22514344 .102996829 .22813416 .08299255 .22813416 .06199646 .22813416 .06199646 .22514344 .06199646 .20214844V.014266968C.06199646-.0047302248 .06199646-.01171875 .07699585-.01171875 .083999637-.01171875 .084991458-.010726929 .09498596-.0017242432 .10598755 .009277344 .114990238 .022277832 .13999939 .04725647 .19799805 .0012664795 .27999879-.01171875 .33999635-.01171875 .49598695-.01171875 .56199648 .09422302 .56199648 .20014954Z"/>
<path id="font_3_66" d="M.24699402 0V.0309906C.18099976 .0309906 .1769867 .035995485 .1769867 .075042728V.4423828L.036987306 .43066407V.3996582C.101989749 .3996582 .11099243 .3936615 .11099243 .3447113V.07595825C.11099243 .0309906 .099990848 .0309906 .032989503 .0309906V0L.14299011 .0029907227C.17799378 .0029907227 .21299744 .0009918213 .24699402 0M.19198609 .603775C.19198609 .6307678 .16899109 .6567688 .13899231 .6567688 .10499573 .6567688 .084991458 .6287689 .084991458 .603775 .084991458 .57676699 .10798645 .55078127 .13798523 .55078127 .17199707 .55078127 .19198609 .5787811 .19198609 .603775Z"/>
<path id="font_3_77" d="M.5349884 0V.0309906C.48298646 .0309906 .45799256 .0309906 .45700074 .061019899V.25221253C.45700074 .3383026 .45700074 .36932374 .42599488 .405365 .4119873 .42237855 .3789978 .4423828 .32099916 .4423828 .24798584 .4423828 .20098877 .39935304 .17298889 .33729554V.4423828L.03199768 .43066407V.3996582C.101989749 .3996582 .10998535 .39266969 .10998535 .34370423V.07595825C.10998535 .0309906 .09899902 .0309906 .03199768 .0309906V0L.14498902 .0029907227 .25698854 0V.0309906C.18998719 .0309906 .1789856 .0309906 .1789856 .07595825V.25978089C.1789856 .36431886 .25 .42037965 .31399537 .42037965 .3769989 .42037965 .3880005 .36631776 .3880005 .30926515V.076034549C.3880005 .0309906 .3769989 .0309906 .30999757 .0309906V0L.4229889 .0029907227 .5349884 0Z"/>
<path id="font_3_85" d="M.33099366-.2400055C.33099366-.23701477 .33099366-.23500061 .31399537-.21800232 .18899536-.0920105 .15699768 .09700012 .15699768 .25 .15699768 .42399598 .19499207 .59799197 .31799317 .72299197 .33099366 .7350006 .33099366 .7369995 .33099366 .73999026 .33099366 .746994 .32699586 .75 .32099916 .75 .31098939 .75 .22099304 .6819916 .1619873 .5549927 .11099243 .44499208 .09899902 .33399964 .09899902 .25 .09899902 .17199707 .10998535 .050994874 .16499329-.06201172 .22499085-.18501282 .31098939-.25 .32099916-.25 .32699586-.25 .33099366-.24700928 .33099366-.2400055Z"/>
<path id="font_3_42" d="M.6649933 .23271179C.6649933 .24272156 .6649933 .24972534 .6519928 .24972534 .6409912 .24972534 .6409912 .24372864 .6399994 .23371887 .6319885 .09059143 .5249939 .008529663 .41600038 .008529663 .35499574 .008529663 .15899658 .042556764 .15899658 .34080506 .15899658 .64004519 .35398866 .67407229 .4149933 .67407229 .5239868 .67407229 .61299136 .58299258 .6329956 .4368744 .6349945 .42286683 .6349945 .41986085 .6489868 .41986085 .6649933 .41986085 .6649933 .42286683 .6649933 .44387818V.68107607C.6649933 .69807437 .6649933 .7050781 .6539917 .7050781 .6499939 .7050781 .6459961 .7050781 .6380005 .69306948L.58799746 .61901858C.5509949 .6550598 .5 .7050781 .4039917 .7050781 .21699524 .7050781 .055999757 .5459595 .055999757 .34179688 .055999757 .1346283 .21798706-.022460938 .4039917-.022460938 .5669861-.022460938 .6649933 .116622928 .6649933 .23271179Z"/>
<path id="font_3_98" d="M.3600006 .12823487C.3600006 .18122864 .32998658 .21122742 .31799317 .22323609 .2849884 .25523377 .24598694 .26322938 .20399475 .27124024 .147995 .28224183 .08099365 .29522706 .08099365 .35324098 .08099365 .38822938 .10699463 .42922975 .19299317 .42922975 .30299378 .42922975 .30799867 .3392334 .30999757 .30822755 .31098939 .2992401 .32199098 .2992401 .32199098 .2992401 .33499146 .2992401 .33499146 .30422975 .33499146 .32322694V.4242401C.33499146 .4412384 .33499146 .4482422 .32398988 .4482422 .31900025 .4482422 .31698609 .4482422 .3039856 .43623353 .30099488 .43223573 .29100038 .42323304 .2869873 .42022706 .24899292 .4482422 .20799256 .4482422 .19299317 .4482422 .070999149 .4482422 .032989503 .38124085 .032989503 .3252411 .032989503 .29023744 .04899597 .26223756 .07598877 .24023438 .10798645 .2142334 .13598633 .2082367 .20799256 .19422913 .22999573 .19021607 .31199647 .17422486 .31199647 .10221863 .31199647 .051223756 .2769928 .011245728 .19898987 .011245728 .114990238 .011245728 .07899475 .068222049 .05999756 .1532135 .056991579 .16621399 .055999757 .17021179 .04598999 .17021179 .032989503 .17021179 .032989503 .16322327 .032989503 .1452179V.013214111C.032989503-.003753662 .032989503-.0107421879 .04399109-.0107421879 .04899597-.0107421879 .049987794-.009750366 .068984989 .009246826 .070999149 .011245728 .070999149 .013214111 .08898926 .032226564 .1329956-.009750366 .17799378-.0107421879 .19898987-.0107421879 .31399537-.0107421879 .3600006 .05621338 .3600006 .1282196V.12823487Z"/>
<path id="font_3_43" d="M.4149933 .119140628C.4149933 .12911988 .40499879 .12911988 .4019928 .12911988 .3929901 .12911988 .3909912 .12512207 .3889923 .119140628 .3600006 .026229859 .29499818 .014251709 .2579956 .014251709 .20498657 .014251709 .116989139 .0572052 .116989139 .21801758 .116989139 .38093568 .19898987 .42323304 .2519989 .42323304 .26098634 .42323304 .32398988 .42222596 .35899354 .38594056 .31799317 .38293458 .31199647 .3529358 .31199647 .3399353 .31199647 .31393434 .32998658 .2939453 .35798646 .2939453 .38398744 .2939453 .4039917 .3109436 .4039917 .34094239 .4039917 .40911866 .32798768 .4482422 .25099183 .4482422 .12599182 .4482422 .033996583 .3399353 .033996583 .21601868 .033996583 .08816528 .1329956-.0107421879 .24899292-.0107421879 .3829956-.0107421879 .4149933 .10914612 .4149933 .119140628Z"/>
<path id="font_3_86" d="M.2889862 .25C.2889862 .32798768 .27799989 .44898988 .22299195 .56199648 .16299439 .68499758 .07699585 .75 .066986087 .75 .06098938 .75 .056991579 .74598696 .056991579 .73999026 .056991579 .7369995 .056991579 .7350006 .07598877 .71699526 .17399597 .6179962 .23098755 .45899964 .23098755 .25 .23098755 .07899475 .19400025-.09700012 .069992069-.2230072 .056991579-.23500061 .056991579-.23701477 .056991579-.2400055 .056991579-.2460022 .06098938-.25 .066986087-.25 .07699585-.25 .16699219-.18200684 .22599793-.055007936 .2769928 .054992677 .2889862 .16600037 .2889862 .25Z"/>
<path id="font_2_104" d="M.73999026 .43984986 .7200012 .67678835H.06098938L.040985109 .43984986H.08299255C.09199524 .54881289 .099990848 .63378909 .24398804 .63378909H.32499696V.042999269H.17399597V0L.3909912 .0019989014 .60798647 0V.042999269H.45700074V.63378909H.5369873C.68099978 .63378909 .68899539 .5498047 .69799807 .43984986H.73999026Z"/>
<path id="font_3_28" d="M.48298646 .08912659V.14511109H.45799256V.08912659C.45799256 .03112793 .43299867 .025131226 .42199708 .025131226 .3889923 .025131226 .3849945 .070129398 .3849945 .07511902V.27508546C.3849945 .31707765 .3849945 .3560791 .34899903 .39312745 .30999757 .43223573 .2599945 .4482422 .21199036 .4482422 .12998963 .4482422 .06098938 .40115357 .06098938 .335083 .06098938 .30508424 .08099365 .28808595 .10699463 .28808595 .1349945 .28808595 .15299988 .30807496 .15299988 .33407594 .15299988 .3460846 .147995 .37908937 .101989749 .38008119 .1289978 .41519166 .17799378 .426239 .20999146 .426239 .25898744 .426239 .31599427 .38710023 .31599427 .29808045V.26107789C.2649994 .25808717 .19499207 .25508119 .13198853 .22509766 .056991579 .19110108 .03199768 .13911438 .03199768 .09512329 .03199768 .014251709 .1289978-.0107421879 .19198609-.0107421879 .2579956-.0107421879 .3039856 .029251099 .32299806 .07624817 .32699586 .036132814 .35398866-.005859375 .40098573-.005859375 .42199708-.005859375 .48298646 .008132935 .48298646 .08912659M.31599427 .14013672C.31599427 .04525757 .24398804 .011245728 .19898987 .011245728 .1499939 .011245728 .10899353 .04624939 .10899353 .09625244 .10899353 .15124512 .15098572 .23425293 .31599427 .24024964V.14013672Z"/>
<path id="font_3_81" d="M.47099305 .21424866C.47099305 .34223939 .37098695 .4482422 .25 .4482422 .125 .4482422 .027999878 .3392334 .027999878 .21424866 .027999878 .085250858 .13198853-.0107421879 .24899292-.0107421879 .36999513-.0107421879 .47099305 .087249759 .47099305 .21424866M.3880005 .22224427C.3880005 .18624878 .3880005 .13224793 .3659973 .08824158 .34399415 .04324341 .2999878 .014251709 .25 .014251709 .20698548 .014251709 .16299439 .035247804 .13598633 .08125305 .11099243 .12524414 .11099243 .18624878 .11099243 .22224427 .11099243 .26124574 .11099243 .31523133 .1349945 .35923768 .1619873 .40522767 .20899964 .426239 .24899292 .426239 .29299928 .426239 .33599855 .40423585 .3619995 .36123658 .3880005 .3182373 .3880005 .26023866 .3880005 .22224427Z"/>
<path id="font_3_105" d="M.33198548 .12385559V.18066406H.30699159V.12585449C.30699159 .052108766 .2769928 .014251709 .23999024 .014251709 .17298889 .014251709 .17298889 .10491943 .17298889 .12187195V.3996582H.31599427V.43066407H.17298889V.6142578H.147995C.14698792 .5324249 .116989139 .42565919 .018997193 .42166139V.3996582H.10398865V.12408447C.10398865 .0012512207 .19699097-.0107421879 .23298645-.0107421879 .3039856-.0107421879 .33198548 .060180665 .33198548 .12408447V.12385559Z"/>
<path id="font_2_42" d="M.7489929 .22810364C.7489929 .24508667 .7429962 .24609375 .7279968 .24609375 .71798709 .24609375 .70799258 .24609375 .70700076 .23509217 .69799807 .083221439 .56900027 .031280519 .47898866 .031280519 .4139862 .031280519 .32598878 .04925537 .269989 .112197879 .23498535 .15016175 .20298767 .2051239 .20298767 .3434143 .20298767 .4416809 .21798706 .51452639 .2649994 .57040408 .32899476 .6452484 .42900086 .65522769 .47698976 .65522769 .5519867 .65522769 .6729889 .613327 .7029877 .4376831 .7049866 .42871095 .71398928 .42871095 .7259979 .42871095 .7489929 .42871095 .7489929 .43069459 .7489929 .45465089V.6722412C.7489929 .6952362 .7489929 .6982422 .72698977 .6982422L.6519928 .626297C.59599307 .6742401 .5289917 .6982422 .45498658 .6982422 .21598816 .6982422 .06199646 .55345156 .06199646 .3434143 .06199646 .13717652 .21099854-.01171875 .45599366-.01171875 .6339874-.01171875 .7489929 .110198978 .7489929 .22810364Z"/>
<path id="font_3_97" d="M.49899293 .18579102C.49899293 .2858429 .43299867 .36791993 .34899903 .38793946L.22099304 .4189453C.15899658 .43388368 .11999512 .48773194 .11999512 .5458069 .11999512 .61595156 .17399597 .677063 .2519989 .677063 .4189911 .677063 .44099427 .5127411 .44699098 .46777345 .44799806 .461792 .44799806 .45581056 .45899964 .45581056 .47200013 .45581056 .47200013 .46080018 .47200013 .47973634V.68107607C.47200013 .69807437 .47200013 .7050781 .46099855 .7050781 .45399476 .7050781 .45298768 .70407107 .44599916 .69207766L.41099549 .63497927C.3809967 .66404727 .33999635 .7050781 .25099183 .7050781 .13999939 .7050781 .055999757 .61694338 .055999757 .5107422 .055999757 .42790223 .10899353 .35490418 .18699646 .32788087 .19799805 .32388307 .24899292 .3118744 .31900025 .29486085 .34599305 .28785707 .37599183 .280838 .4039917 .24382019 .4249878 .2177887 .43499757 .18478394 .43499757 .1517334 .43499757 .0806427 .3849945 .008529663 .30099488 .008529663 .27198792 .008529663 .19599915 .013534546 .14299011 .06260681 .084991458 .11668396 .08198547 .18078614 .08099365 .21679688 .07998657 .22679138 .07199097 .22679138 .068984989 .22679138 .055999757 .22679138 .055999757 .2197876 .055999757 .20178223V.0015258789C.055999757-.015472412 .055999757-.022460938 .066986087-.022460938 .07398987-.022460938 .07499695-.020462037 .08198547-.009475708 .08198547-.009475708 .084991458-.0054626467 .117996219 .047592164 .14898682 .013534546 .21299744-.022460938 .3019867-.022460938 .4189911-.022460938 .49899293 .07562256 .49899293 .18579102Z"/>
<path id="font_3_50" d="M.4149933 .11933899C.4149933 .12934876 .40699769 .13134766 .4019928 .13134766 .3929901 .13134766 .3909912 .12535095 .3889923 .11734009 .35398866 .014251709 .2639923 .014251709 .2539978 .014251709 .20399475 .014251709 .1639862 .044281007 .14099121 .08131409 .11099243 .12934876 .11099243 .19540406 .11099243 .23144531H.3899994C.4119873 .23144531 .4149933 .23144531 .4149933 .2524414 .4149933 .35131837 .36099244 .4482422 .23599243 .4482422 .11999512 .4482422 .027999878 .34532167 .027999878 .22042847 .027999878 .08631897 .1329956-.0107421879 .24798584-.0107421879 .36999513-.0107421879 .4149933 .10032654 .4149933 .11933899M.34899903 .2524414H.11199951C.117996219 .40126039 .20199585 .426239 .23599243 .426239 .33898927 .426239 .34899903 .2913971 .34899903 .2524414Z"/>
</defs>
<path transform="matrix(1.00002,0,0,-1,57.789796,68.36)" stroke-width=".3985" stroke-linecap="butt" stroke-miterlimit="10" stroke-linejoin="miter" fill="none" stroke="#000000" d="M-54.7011 0H54.7011"/>
<path transform="matrix(-1.00002,-0,0,1,3.0876008,68.36)" d="M1.99252 0-1.19551 1.59401 0 0-1.19551-1.59401"/>
<path transform="matrix(1.00002,0,0,-1,112.49199,68.36)" d="M1.99252 0-1.19551 1.59401 0 0-1.19551-1.59401"/>
<use data-text="x" xlink:href="#font_1_1" transform="matrix(9.962799,0,0,-9.9626,118.004,70.505008)"/>
<path transform="matrix(1.00002,0,0,-1,57.789796,68.36)" stroke-width=".3985" stroke-linecap="butt" stroke-miterlimit="10" stroke-linejoin="miter" fill="none" stroke="#000000" d="M0-54.7011V54.7011"/>
<path transform="matrix(0,1,1.00002,0,57.789796,123.0611)" d="M1.99252 0-1.19551 1.59401 0 0-1.19551-1.59401"/>
<path transform="matrix(0,-1,-1.00002,-0,57.789796,13.658901)" d="M1.99252 0-1.19551 1.59401 0 0-1.19551-1.59401"/>
<use data-text="y" xlink:href="#font_1_2" transform="matrix(9.962799,0,0,-9.9626,55.16874,6.2089998)"/>
<use data-text="A" xlink:href="#font_2_27" transform="matrix(14.346487,0,0,-14.3462,77.27019,39.057)"/>
<use data-text="l" xlink:href="#font_3_72" transform="matrix(9.962799,0,0,-9.9626,89.46443,39.057)"/>
<use data-text="l" xlink:href="#font_3_72" transform="matrix(9.962799,0,0,-9.9626,92.2341,39.057)"/>
<use data-text="S" xlink:href="#font_2_97" transform="matrix(14.346487,0,0,-14.3462,20.805054,37.796998)"/>
<use data-text="i" xlink:href="#font_3_66" transform="matrix(9.962799,0,0,-9.9626,29.77124,37.796998)"/>
<use data-text="n" xlink:href="#font_3_77" transform="matrix(9.962799,0,0,-9.9626,32.54091,37.796998)"/>
<use data-text="(" xlink:href="#font_3_85" transform="matrix(9.962799,0,0,-9.9626,17.79599,49.752)"/>
<use data-text="C" xlink:href="#font_3_42" transform="matrix(9.962799,0,0,-9.9626,21.67154,49.752)"/>
<use data-text="s" xlink:href="#font_3_98" transform="matrix(9.962799,0,0,-9.9626,28.86467,49.752)"/>
<use data-text="c" xlink:href="#font_3_43" transform="matrix(9.962799,0,0,-9.9626,32.79001,49.752)"/>
<use data-text=")" xlink:href="#font_3_86" transform="matrix(9.962799,0,0,-9.9626,37.2135,49.752)"/>
<use data-text="T" xlink:href="#font_2_104" transform="matrix(14.346487,0,0,-14.3462,18.573029,94.34)"/>
<use data-text="a" xlink:href="#font_3_28" transform="matrix(9.962799,0,0,-9.9626,29.79126,94.34)"/>
<use data-text="n" xlink:href="#font_3_77" transform="matrix(9.962799,0,0,-9.9626,34.772645,94.34)"/>
<use data-text="(" xlink:href="#font_3_85" transform="matrix(9.962799,0,0,-9.9626,17.542008,106.295)"/>
<use data-text="C" xlink:href="#font_3_42" transform="matrix(9.962799,0,0,-9.9626,21.417557,106.295)"/>
<use data-text="o" xlink:href="#font_3_81" transform="matrix(9.962799,0,0,-9.9626,28.610688,106.295)"/>
<use data-text="t" xlink:href="#font_3_105" transform="matrix(9.962799,0,0,-9.9626,33.592088,106.295)"/>
<use data-text=")" xlink:href="#font_3_86" transform="matrix(9.962799,0,0,-9.9626,37.46762,106.295)"/>
<use data-text="C" xlink:href="#font_2_42" transform="matrix(14.346487,0,0,-14.3462,75.85117,94.491)"/>
<use data-text="o" xlink:href="#font_3_81" transform="matrix(9.962799,0,0,-9.9626,87.5154,94.491)"/>
<use data-text="s" xlink:href="#font_3_98" transform="matrix(9.962799,0,0,-9.9626,92.49679,94.491)"/>
<use data-text="(" xlink:href="#font_3_85" transform="matrix(9.962799,0,0,-9.9626,75.06814,106.446)"/>
<use data-text="S" xlink:href="#font_3_97" transform="matrix(9.962799,0,0,-9.9626,78.94369,106.446)"/>
<use data-text="e" xlink:href="#font_3_50" transform="matrix(9.962799,0,0,-9.9626,84.482997,106.446)"/>
<use data-text="c" xlink:href="#font_3_43" transform="matrix(9.962799,0,0,-9.9626,88.90649,106.446)"/>
<use data-text=")" xlink:href="#font_3_86" transform="matrix(9.962799,0,0,-9.9626,93.32996,106.446)"/>
</svg>
