<svg xmlns="http://www.w3.org/2000/svg" xmlns:xlink="http://www.w3.org/1999/xlink" xmlns:inkscape="http://www.inkscape.org/namespaces/inkscape" version="1.1" width="207" height="171" viewBox="0 0 207 171">
<defs>
<path id="font_1_1" d="M.6589966 .23046875C.6759949 .23046875 .69400027 .23046875 .69400027 .25045777 .69400027 .27046205 .6759949 .27046205 .6589966 .27046205H.117996219C.100997928 .27046205 .08299255 .27046205 .08299255 .25045777 .08299255 .23046875 .100997928 .23046875 .117996219 .23046875H.6589966Z"/>
<path id="font_2_3" d="M.1269989 .07699585 .23298645 .18003845C.3889923 .31811524 .44898988 .3721466 .44898988 .47216798 .44898988 .5860901 .35899354 .6660156 .23699951 .6660156 .12399292 .6660156 .049987794 .57411196 .049987794 .48516847 .049987794 .4291687 .099990848 .4291687 .102996829 .4291687 .11999512 .4291687 .15499878 .44117738 .15499878 .48217774 .15499878 .5081787 .13699341 .5341797 .101989749 .5341797 .09399414 .5341797 .09199524 .5341797 .08898926 .5331726 .11199951 .59806826 .1659851 .63500979 .22399903 .63500979 .31498719 .63500979 .35798646 .5541382 .35798646 .47216798 .35798646 .39215089 .30799867 .31311036 .25299073 .25108338L.06098938 .036987306C.049987794 .025985718 .049987794 .023986817 .049987794 0H.42099L.44898988 .17404175H.42399598C.4189911 .14402771 .4119873 .1000061 .4019928 .084991458 .394989 .07699585 .32899476 .07699585 .30699159 .07699585H.1269989Z"/>
<path id="font_3_1" d="M.2649994 .37265016H.37799073C.34498597 .22489929 .33599855 .18196106 .33599855 .11508179 .33599855 .100097659 .33599855 .073150638 .34399415 .03919983 .35398866-.0047454836 .36499024-.0107421879 .37998963-.0107421879 .3999939-.0107421879 .42099 .007247925 .42099 .02722168 .42099 .033218385 .42099 .035202028 .4149933 .049179079 .38598634 .12106323 .38598634 .18595886 .38598634 .21391297 .38598634 .26683045 .3929901 .32073976 .4039917 .37265016H.5179901C.5309906 .37265016 .5669861 .37265016 .5669861 .406662 .5669861 .43066407 .54599 .43066407 .5269928 .43066407H.19198609C.16999817 .43066407 .13198853 .43066407 .08799744 .38365174 .052993776 .34469605 .026992798 .29878236 .026992798 .29379273 .026992798 .29278565 .026992798 .28379823 .038986207 .28379823 .04699707 .28379823 .04899597 .28779603 .054992677 .29577638 .10398865 .37265016 .1619873 .37265016 .18199158 .37265016H.23899842C.20698548 .25186158 .15299988 .13105774 .11099243 .04020691 .102996829 .025222779 .102996829 .023223877 .102996829 .016235352 .102996829-.002746582 .11898804-.0107421879 .13198853-.0107421879 .1619873-.0107421879 .16999817 .017242432 .18199158 .05418396 .19599915 .100097659 .19599915 .10209656 .20899964 .15202332L.2649994 .37265016Z"/>
<path id="font_4_2" d="M.272995 .33428956C.35099793 .33428956 .40699769 .2803192 .40699769 .1733551 .40699769 .04940796 .33499146 .012466431 .2769928 .012466431 .23699951 .012466431 .14898682 .0234375 .10699463 .082351688 .1539917 .084350589 .16499329 .11735535 .16499329 .13835144 .16499329 .17034912 .14099121 .19335938 .10998535 .19335938 .08198547 .19335938 .053985597 .17634583 .053985597 .13534546 .053985597 .041412355 .1579895-.01953125 .2789917-.01953125 .41799928-.01953125 .5139923 .07336426 .5139923 .1733551 .5139923 .2513275 .44999696 .32929994 .33999635 .35229493 .44499208 .39024354 .48298646 .4650879 .48298646 .5260773 .48298646 .60505679 .3919983 .6640625 .2809906 .6640625 .16999817 .6640625 .084991458 .61006167 .084991458 .5300751 .084991458 .49606324 .10699463 .47706605 .13699341 .47706605 .16799927 .47706605 .18798828 .5000763 .18798828 .5280762 .18798828 .5570679 .16799927 .57806399 .13699341 .5800781 .17199707 .62405398 .24099732 .63505557 .27799989 .63505557 .32299806 .63505557 .38598634 .6130676 .38598634 .5260773 .38598634 .48406983 .37199403 .43814088 .34599305 .4072113 .31298829 .36927796 .2849884 .3672943 .23498535 .36428834 .20999146 .3623047 .20799256 .3623047 .20298767 .3612976 .20098877 .3612976 .19299317 .3592987 .19299317 .34829713 .19299317 .33428956 .20199585 .33428956 .21899414 .33428956H.272995Z"/>
<path id="font_5_1" d="M.31098939 .36265565H.42999269C.4149933 .30274964 .3929901 .2118988 .3929901 .13302613 .3929901 .09309387 .397995 .06613159 .4039917 .044174196 .41999818-.0057678224 .43299867-.009765625 .44898988-.009765625 .47200013-.009765625 .49598695 .011230469 .49598695 .035186769 .49598695 .043182374 .49398805 .047164918 .48799134 .057159425 .46899415 .09408569 .45098878 .15100098 .45098878 .23286438 .45098878 .25183106 .45098878 .29177857 .46499635 .36265565H.58999636C.60798647 .36265565 .6159973 .36265565 .6269989 .37065126 .6409912 .380661 .6439972 .39665223 .6439972 .4016571 .6439972 .43066407 .6179962 .43066407 .6009979 .43066407H.22399903C.18299866 .43066407 .15499878 .42166139 .10998535 .37965394 .083999637 .35665895 .04499817 .30274964 .04499817 .2937622 .04499817 .28178407 .057998659 .28178407 .06199646 .28178407 .07299805 .28178407 .07398987 .28378297 .07998657 .2927704 .1309967 .36265565 .19299317 .36265565 .21499634 .36265565H.27598573C.24499512 .25283814 .19099427 .13502503 .16099549 .07511902 .15499878 .062149049 .14498902 .04118347 .14199829 .03718567 .14099121 .033187868 .13899231 .029190064 .13899231 .022201539 .13899231 .006225586 .15098572-.009765625 .17399597-.009765625 .21398926-.009765625 .22499085 .035186769 .24899292 .12504578L.31098939 .36265565Z"/>
<path id="font_4_1" d="M.5049896 .18203736H.47099305C.46798707 .16001892 .45799256 .100997928 .44499208 .09098816 .43699647 .084991458 .3600006 .084991458 .34599305 .084991458H.1619873C.2669983 .17803955 .3019867 .20603943 .3619995 .25306703 .43598939 .312088 .5049896 .374115 .5049896 .46914674 .5049896 .5900879 .39898683 .6640625 .2709961 .6640625 .14698792 .6640625 .06298828 .57710269 .06298828 .4851532 .06298828 .43414308 .10598755 .42915345 .115997318 .42915345 .13999939 .42915345 .16899109 .44615174 .16899109 .48214723 .16899109 .5001526 .1619873 .53515627 .10998535 .53515627 .14099121 .6060791 .20899964 .62805178 .2559967 .62805178 .35598756 .62805178 .4079895 .5501404 .4079895 .46914674 .4079895 .38212586 .34599305 .3130951 .31399537 .27708436L.07299805 .038986207C.06298828 .02999878 .06298828 .027999878 .06298828 0H.47499085L.5049896 .18203736Z"/>
<path id="font_2_2" d="M.2939911 .64004519C.2939911 .66400149 .2939911 .6660156 .2709961 .6660156 .20899964 .60227969 .12098694 .60227969 .08898926 .60227969V.57128909C.10899353 .57128909 .16799927 .57128909 .21998596 .5972748V.07902527C.21998596 .042999269 .21699524 .0309906 .1269989 .0309906H.09498596V0C.12998963 .0029907227 .21699524 .0029907227 .25698854 .0029907227 .29699708 .0029907227 .38398744 .0029907227 .4189911 0V.0309906H.3869934C.29699708 .0309906 .2939911 .041992189 .2939911 .07902527V.64004519Z"/>
<path id="font_2_1" d="M.45999146 .31976319C.45999146 .39982606 .45498658 .47988893 .41999818 .5539398 .37399293 .65000918 .2919922 .6660156 .25 .6660156 .18998719 .6660156 .116989139 .64001467 .07598877 .54693606 .04399109 .47789 .038986207 .39982606 .038986207 .31976319 .038986207 .24472046 .042999269 .15464783 .083999637 .07859802 .1269989-.0024719239 .19999695-.022460938 .24899292-.022460938 .30299378-.022460938 .3789978-.0014648438 .4229889 .09359741 .45498658 .16265869 .45999146 .2407074 .45999146 .31976319M.24899292-.00047302247C.20999146-.00047302247 .15098572 .024551392 .1329956 .12062073 .12199402 .18066406 .12199402 .2727356 .12199402 .3317871 .12199402 .39582826 .12199402 .46188355 .12998963 .5159149 .14898682 .63500979 .22399903 .64401248 .24899292 .64401248 .28199769 .64401248 .34799195 .6259918 .36698915 .52693179 .3769989 .47088624 .3769989 .39482118 .3769989 .3317871 .3769989 .25672914 .3769989 .18867493 .3659973 .12461853 .35099793 .029556275 .2939911-.00047302247 .24899292-.00047302247Z"/>
<path id="font_2_4" d="M.44898988 .20022583C.44898988 .3193512 .36698915 .41944886 .25898744 .41944886 .21099854 .41944886 .16799927 .40345765 .13198853 .36842347V.5637665C.1519928 .5577698 .18499756 .55078127 .21699524 .55078127 .33999635 .55078127 .4099884 .6417694 .4099884 .6547699 .4099884 .6607666 .40699769 .6657715 .3999939 .6657715 .39898683 .6657715 .39698792 .6657715 .3919983 .66278079 .37199403 .6537781 .32299806 .6337738 .2559967 .6337738 .21598816 .6337738 .16999817 .6407776 .12298584 .6617737 .114990238 .66477969 .11299133 .66477969 .11099243 .66477969 .100997928 .66477969 .100997928 .6567688 .100997928 .6407776V.34439088C.100997928 .32637025 .100997928 .31835938 .114990238 .31835938 .12199402 .31835938 .12399292 .32136537 .12799073 .32736207 .13899231 .3433838 .17599488 .39746095 .25698854 .39746095 .30899049 .39746095 .33399964 .35139466 .34199525 .33337403 .35798646 .29632569 .3600006 .25727845 .3600006 .20722962 .3600006 .17222595 .3600006 .11222839 .33599855 .07035828 .31199647 .031463624 .2749939 .0055389406 .22898865 .0055389406 .1559906 .0055389406 .09899902 .058380128 .08198547 .11723328 .084991458 .1162262 .08799744 .115234378 .09899902 .115234378 .13198853 .115234378 .14898682 .14022827 .14898682 .16423035 .14898682 .18823242 .13198853 .21322632 .09899902 .21322632 .084991458 .21322632 .049987794 .20622254 .049987794 .16023255 .049987794 .07434082 .11898804-.022460938 .23098755-.022460938 .34700013-.022460938 .44898988 .073349 .44898988 .20022583Z"/>
<path id="font_3_2" d="M.33399964 .30233766C.33999635 .32835389 .36299134 .42037965 .43299867 .42037965 .43798829 .42037965 .46199037 .42037965 .48298646 .40734864 .45498658 .402359 .43499757 .37734986 .43499757 .35334779 .43499757 .33735658 .44599916 .31835938 .47299195 .31835938 .49499513 .31835938 .5269928 .3363495 .5269928 .37635804 .5269928 .42837525 .46798707 .4423828 .43399049 .4423828 .37599183 .4423828 .34098817 .38935853 .32899476 .36634828 .3039856 .43237306 .25 .4423828 .22099304 .4423828 .116989139 .4423828 .05999756 .3133545 .05999756 .28834535 .05999756 .27833558 .069992069 .27833558 .07199097 .27833558 .07998657 .27833558 .08299255 .28033448 .084991458 .28933717 .11898804 .39535523 .18499756 .42037965 .21899414 .42037965 .23799134 .42037965 .272995 .4113617 .272995 .35334779 .272995 .32235719 .2559967 .25532533 .21899414 .11528015 .20298767 .053268434 .16799927 .011245728 .12399292 .011245728 .117996219 .011245728 .09498596 .011245728 .07398987 .024276734 .09899902 .029266358 .12098694 .05027771 .12098694 .07827759 .12098694 .105270389 .09899902 .11328125 .083999637 .11328125 .053985597 .11328125 .0289917 .08728027 .0289917 .055267335 .0289917 .009246826 .07899475-.0107421879 .12298584-.0107421879 .18899536-.0107421879 .22499085 .059280397 .22799683 .0652771 .23999024 .028274537 .27598573-.0107421879 .33599855-.0107421879 .43899537-.0107421879 .49598695 .118270877 .49598695 .14328003 .49598695 .1532898 .4869995 .1532898 .48399354 .1532898 .47499085 .1532898 .47299195 .14929199 .47099305 .14228821 .43798829 .03527832 .36999513 .011245728 .33799745 .011245728 .29899598 .011245728 .2829895 .043273927 .2829895 .07727051 .2829895 .09927368 .2889862 .121276859 .2999878 .16529846L.33399964 .30233766Z"/>
<path id="font_3_3" d="M.48599244 .38136292C.48999024 .39537049 .48999024 .39736939 .48999024 .40437318 .48999024 .42237855 .47599793 .43138124 .46099855 .43138124 .45098878 .43138124 .43499757 .42536927 .42599488 .41036988 .42399598 .405365 .41600038 .37435914 .4119873 .35635377 .40499879 .33035279 .397995 .30334474 .3919983 .27633668L.34700013 .09628296C.34298707 .08126831 .2999878 .011245728 .23399353 .011245728 .18299866 .011245728 .17199707 .055267335 .17199707 .0922699 .17199707 .1382904 .18899536 .20030213 .22299195 .28833009 .23899842 .3293457 .24299622 .3403473 .24299622 .36035157 .24299622 .405365 .21099854 .4423828 .16099549 .4423828 .06599426 .4423828 .0289917 .29733277 .0289917 .28833009 .0289917 .27833558 .038986207 .27833558 .040985109 .27833558 .050994874 .27833558 .051986696 .28033448 .056991579 .29634095 .083999637 .3903656 .12399292 .42037965 .1579895 .42037965 .1659851 .42037965 .18299866 .42037965 .18299866 .3883667 .18299866 .36335755 .17298889 .3373413 .1659851 .31834413 .12599182 .21231079 .10798645 .1552887 .10798645 .10827637 .10798645 .019256592 .17098999-.0107421879 .22999573-.0107421879 .2689972-.0107421879 .30299378 .0062561037 .33099366 .03425598 .31799317-.017745972 .30599977-.06674194 .2659912-.11973572 .23999024-.15385437 .20199585-.18309021 .1559906-.18309021 .14199829-.18309021 .09700012-.18005371 .07998657-.14074707 .09599304-.14074707 .10899353-.14074707 .12298584-.1287384 .1329956-.11973572 .14299011-.10673523 .14299011-.08773804 .14299011-.056747438 .115997318-.052734376 .10598755-.052734376 .08299255-.052734376 .049987794-.068740848 .049987794-.11773682 .049987794-.16796875 .09399414-.20507813 .1559906-.20507813 .25898744-.20507813 .3619995-.11373901 .3899994-.00074768069L.48599244 .38136292Z"/>
</defs>
<path transform="matrix(1.00005,0,0,-1.00006,8.079704,166.5352)" stroke-width=".19925" stroke-linecap="butt" stroke-miterlimit="10" stroke-linejoin="miter" fill="none" stroke="#7f807f" d="M1.52171 79.28084V82.1155M13.47325 79.28084V82.1155M25.42479 79.28084V82.1155M37.37634 79.28084V82.1155M49.32788 79.28084V82.1155M61.27942 79.28084V82.1155M73.23096 79.28084V82.1155M85.18251 79.28084V82.1155M97.13405 79.28084V82.1155M109.0856 79.28084V82.1155M121.03714 79.28084V82.1155M132.9887 79.28084V82.1155M144.94023 79.28084V82.1155M156.89179 79.28084V82.1155M168.84334 79.28084V82.1155M180.79488 79.28084V82.1155M192.74643 79.28084V82.1155"/>
<path transform="matrix(1.00005,0,0,-1.00006,8.079704,166.5352)" stroke-width=".19925" stroke-linecap="butt" stroke-miterlimit="10" stroke-linejoin="miter" fill="none" stroke="#7f807f" d="M1.52171 78.57237V82.82396M25.42479 78.57237V82.82396M49.32788 78.57237V82.82396M73.23096 78.57237V82.82396M121.03714 78.57237V82.82396M144.94023 78.57237V82.82396M168.84334 78.57237V82.82396M192.74643 78.57237V82.82396"/>
<path transform="matrix(1.00005,0,0,-1.00006,8.079704,166.5352)" stroke-width=".19925" stroke-linecap="butt" stroke-miterlimit="10" stroke-linejoin="miter" fill="none" stroke="#7f807f" d="M95.00816 0H99.25996M95.00816 40.34909H99.25996M95.00816 121.04727H99.25996M95.00816 161.39636H99.25996"/>
<path transform="matrix(1.00005,0,0,-1.00006,8.079704,166.5352)" stroke-width=".3985" stroke-linecap="butt" stroke-miterlimit="10" stroke-linejoin="miter" fill="none" stroke="#000000" d="M0 80.69818H192.2756"/>
<path transform="matrix(1.00005,0,0,-1.00006,200.3649,85.832187)" d="M1.99252 0-1.19551 1.59401 0 0-1.19551-1.59401"/>
<path transform="matrix(1.00005,0,0,-1.00006,8.079704,166.5352)" stroke-width=".3985" stroke-linecap="butt" stroke-miterlimit="10" stroke-linejoin="miter" fill="none" stroke="#000000" d="M97.13405 0V159.40384"/>
<path transform="matrix(0,-1.00006,-1.00005,-0,105.218608,7.121811)" d="M1.99252 0-1.19551 1.59401 0 0-1.19551-1.59401"/>
<use data-text="&#x2212;" xlink:href="#font_1_1" transform="matrix(9.963098,0,0,-9.963197,.21730805,97.899089)"/>
<use data-text="2" xlink:href="#font_2_3" transform="matrix(9.963098,0,0,-9.963197,7.9666979,97.899089)"/>
<use data-text="&#x03c0;" xlink:href="#font_3_1" transform="matrix(9.963098,0,0,-9.963197,12.947945,97.899089)"/>
<use data-text="&#x2212;" xlink:href="#font_1_1" transform="matrix(9.963098,0,0,-9.963197,23.995499,99.8952)"/>
<use data-text="3" xlink:href="#font_4_2" transform="matrix(6.9741489,0,0,-6.9742186,32.93995,95.97197)"/>
<use data-text="&#x03c0;" xlink:href="#font_5_1" transform="matrix(6.9741489,0,0,-6.9742186,36.911149,95.97197)"/>
<path transform="matrix(1.00005,0,0,-1.00006,-81.27076,-46.703584)" stroke-width=".3985" stroke-linecap="butt" stroke-miterlimit="10" stroke-linejoin="miter" fill="none" stroke="#000000" d="M114.205-144.099H123.085"/>
<use data-text="2" xlink:href="#font_4_1" transform="matrix(6.9741489,0,0,-6.9742186,35.395074,103.330417)"/>
<use data-text="&#x2212;" xlink:href="#font_1_1" transform="matrix(9.963098,0,0,-9.963197,50.516828,97.290058)"/>
<use data-text="&#x03c0;" xlink:href="#font_3_1" transform="matrix(9.963098,0,0,-9.963197,58.266218,97.290058)"/>
<use data-text="&#x2212;" xlink:href="#font_1_1" transform="matrix(9.963098,0,0,-9.963197,73.78899,98.40412)"/>
<use data-text="&#x03c0;" xlink:href="#font_5_1" transform="matrix(6.9741489,0,0,-6.9742186,82.73344,94.48089)"/>
<path transform="matrix(1.00005,0,0,-1.00006,-31.477272,-48.194665)" stroke-width=".3985" stroke-linecap="butt" stroke-miterlimit="10" stroke-linejoin="miter" fill="none" stroke="#000000" d="M114.205-144.099H119.114"/>
<use data-text="2" xlink:href="#font_4_1" transform="matrix(6.9741489,0,0,-6.9742186,83.20246,101.83933)"/>
<use data-text="&#x03c0;" xlink:href="#font_5_1" transform="matrix(6.9741489,0,0,-6.9742186,126.66763,94.4809)"/>
<path transform="matrix(1.00005,0,0,-1.00006,20.206315,-48.194665)" stroke-width=".3985" stroke-linecap="butt" stroke-miterlimit="10" stroke-linejoin="miter" fill="none" stroke="#000000" d="M106.456-144.099H111.365"/>
<use data-text="2" xlink:href="#font_4_1" transform="matrix(6.9741489,0,0,-6.9742186,127.13666,101.83933)"/>
<use data-text="&#x03c0;" xlink:href="#font_3_1" transform="matrix(9.963098,0,0,-9.963197,150.00879,95.76796)"/>
<use data-text="3" xlink:href="#font_4_2" transform="matrix(6.9741489,0,0,-6.9742186,172.4909,95.971988)"/>
<use data-text="&#x03c0;" xlink:href="#font_5_1" transform="matrix(6.9741489,0,0,-6.9742186,176.4631,95.971988)"/>
<path transform="matrix(1.00005,0,0,-1.00006,66.02959,-46.703584)" stroke-width=".3985" stroke-linecap="butt" stroke-miterlimit="10" stroke-linejoin="miter" fill="none" stroke="#000000" d="M106.456-144.099H115.337"/>
<use data-text="2" xlink:href="#font_4_1" transform="matrix(6.9741489,0,0,-6.9742186,174.94603,103.330417)"/>
<use data-text="2" xlink:href="#font_2_3" transform="matrix(9.963098,0,0,-9.963197,195.32605,97.899089)"/>
<use data-text="&#x03c0;" xlink:href="#font_3_1" transform="matrix(9.963098,0,0,-9.963197,200.30731,97.899089)"/>
<use data-text="&#x2212;" xlink:href="#font_1_1" transform="matrix(9.963098,0,0,-9.963197,81.86039,169.33037)"/>
<use data-text="1" xlink:href="#font_2_2" transform="matrix(9.963098,0,0,-9.963197,89.60978,169.33037)"/>
<use data-text="0" xlink:href="#font_2_1" transform="matrix(9.963098,0,0,-9.963197,94.591327,169.33037)"/>
<use data-text="&#x2212;" xlink:href="#font_1_1" transform="matrix(9.963098,0,0,-9.963197,86.841648,128.97895)"/>
<use data-text="5" xlink:href="#font_2_4" transform="matrix(9.963098,0,0,-9.963197,94.591037,128.97895)"/>
<use data-text="5" xlink:href="#font_2_4" transform="matrix(9.963098,0,0,-9.963197,94.59103,48.69114)"/>
<use data-text="1" xlink:href="#font_2_2" transform="matrix(9.963098,0,0,-9.963197,89.60978,8.339706)"/>
<use data-text="0" xlink:href="#font_2_1" transform="matrix(9.963098,0,0,-9.963197,94.59133,8.339706)"/>
<path transform="matrix(1.00005,0,0,-1.00006,8.079704,166.5352)" stroke-width=".99628" stroke-linecap="butt" stroke-miterlimit="10" stroke-linejoin="miter" fill="none" stroke="#0000ff" d="M6.37459 3.4684 6.38664 3.65965 6.57993 6.50668 6.77321 9.13017 6.96648 11.56645 7.15976 13.83086 7.35304 15.94353 7.54631 17.9174 7.7396 19.76459 7.93288 21.49797 8.12614 23.12486 8.31943 24.6557 8.51271 26.09778 8.70598 27.46318 8.89926 28.74872 9.09254 29.96887 9.28581 31.12529 9.4791 32.21954 9.67238 33.26297 9.86565 34.24991 10.05893 35.19489 10.25221 36.09387 10.44548 36.94844 10.63876 37.76591 10.83205 38.54628 11.02531 39.29272 11.2186 40.00531 11.41188 40.68881 11.60515 41.3449 11.79843 41.9711 11.99171 42.5715 12.18498 43.15012 12.37827 43.70451 12.57155 44.2355 12.76482 44.74712 12.9581 45.23938 13.15138 45.71147 13.34465 46.1658 13.53793 46.604 13.73122 47.02684 13.92448 47.43033 14.11777 47.82092 14.31105 48.19777 14.50432 48.56253 14.6976 48.91116 14.89088 49.24847 15.08415 49.5745 15.27744 49.8876 15.47072 50.19022 15.66399 50.48154 15.85727 50.76399 16.05055 51.03513 16.24382 51.2974 16.4371 51.54999 16.63039 51.7937 16.82365 52.02853 17.01694 52.25609 17.21022 52.47397 17.40349 52.6862 17.59677 52.88795 17.79005 53.08325 17.98332 53.2745 18.1766 53.45447 18.36987 53.63039 18.56316 53.79904 18.75644 53.96207 18.9497 54.117 19.14299 54.26709 19.33627 54.41234 19.52954 54.54872 19.72282 54.68188 19.9161 54.8102 20.10938 54.93204 20.30266 55.04906 20.49594 55.1596 20.68921 55.26532 20.88249 55.3678 21.07578 55.46385 21.26904 55.55502 21.46233 55.64381 21.65561 55.72612 21.84888 55.80359 22.04216 55.87782 22.23544 55.94643 22.42871 56.01099 22.622 56.0707 22.81528 56.12799 23.00854 56.17964 23.20183 56.22644 23.39511 56.27083 23.58838 56.31117 23.78166 56.34589 23.97495 56.37653 24.16821 56.40479 24.3615 56.42819 24.55478 56.44836 24.74805 56.4637 24.94133 56.4758 25.13461 56.48387 25.32788 56.48709H25.52116L25.71446 56.48387 25.9077 56.4758 26.101 56.4637 26.29427 56.44836 26.48755 56.42819 26.68085 56.40479 26.8741 56.37653 27.06738 56.34589 27.26065 56.31117 27.45395 56.27083 27.64723 56.22725 27.84048 56.17964 28.03378 56.12799 28.22704 56.0707 28.42033 56.01099 28.61363 55.94643 28.80687 55.87782 29.00017 55.80359 29.19344 55.72612 29.38672 55.64381 29.58002 55.55502 29.77327 55.46385 29.96655 55.3678 30.15982 55.26694 30.35312 55.1596 30.5464 55.04906 30.73965 54.93204 30.93295 54.8102 31.1262 54.6835 31.3195 54.55034 31.5128 54.41234 31.70604 54.26709 31.89934 54.117 32.0926 53.96207 32.28589 53.79904 32.47919 53.63039 32.67244 53.45528 32.86572 53.2745 33.05899 53.08485 33.25229 52.88957 33.44557 52.6862 33.63882 52.47559 33.83212 52.25609 34.02538 52.02933 34.21867 51.7945 34.41197 51.55078 34.60521 51.2974 34.79851 51.03593 34.99178 50.76399 35.18506 50.48315 35.37834 50.19102 35.57161 49.8884 35.7649 49.5753 35.95816 49.24928 36.15146 48.91194 36.34473 48.56335 36.538 48.1986 36.7313 47.82172 36.92455 47.43195 37.11784 47.02684 37.31113 46.6056 37.50438 46.1658 37.69768 45.71309 37.89095 45.2402 38.08423 44.74873 38.27751 44.23631 38.47078 43.70612 38.66406 43.15173 38.85733 42.57393 39.05063 41.97192 39.2439 41.3465 39.43716 40.69124 39.63046 40.00772 39.82372 39.29517 40.01701 38.54869 40.2103 37.76591 40.40355 36.95088 40.59685 36.09465 40.79012 35.1973 40.9834 34.25475 41.17668 33.26378 41.36995 32.22438 41.56323 31.12607 41.7565 29.97128 41.94978 28.75276 42.14307 27.46642 42.33633 26.101 42.52962 24.65811 42.72289 23.1297 42.91618 21.50282 43.10945 19.767 43.30272 17.92224 43.49602 15.95401 43.68927 13.83972 43.88257 11.57372 44.07585 9.13503 44.2691 6.51395 44.4624 3.66933 44.47488 3.4708"/>
<path transform="matrix(-.062733139,.9980298,.9980198,.06273376,14.454622,163.06659)" d="M2.8892 0-1.73352 2.31136 0 0-1.73352-2.31136" fill="#0000ff"/>
<path transform="matrix(.062583129,.9980298,.9980198,-.06258375,52.556795,163.0642)" d="M2.8892 0-1.73352 2.31136 0 0-1.73352-2.31136" fill="#0000ff"/>
<path transform="matrix(1.00005,0,0,-1.00006,8.079704,166.5352)" stroke-width=".99628" stroke-linecap="butt" stroke-miterlimit="10" stroke-linejoin="miter" fill="none" stroke="#0000ff" d="M54.18077 157.92794 54.19283 157.73668 54.38611 154.88965 54.57938 152.26616 54.77266 149.82907 54.96594 147.56548 55.15921 145.4528 55.3525 143.47893 55.54578 141.63175 55.73904 139.89836 55.93233 138.27147 56.12561 136.74063 56.31888 135.29856 56.51216 133.93315 56.70544 132.64763 56.89871 131.42746 57.092 130.27106 57.28528 129.1768 57.47855 128.13336 57.67183 127.14642 57.86511 126.20145 58.05838 125.30246 58.25166 124.44789 58.44495 123.63042 58.63821 122.85005 58.8315 122.1036 59.02478 121.39183 59.21805 120.7059 59.41133 120.05225 59.60461 119.42523 59.79788 118.82321 59.99117 118.24623 60.18445 117.69182 60.37772 117.16003 60.571 116.64922 60.76428 116.15695 60.95755 115.68486 61.15083 115.23053 61.34412 114.79315 61.53738 114.36949 61.73067 113.96439 61.92395 113.57542 62.11722 113.19856 62.3105 112.8338 62.50378 112.48518 62.69705 112.14786 62.89034 111.82184 63.08362 111.50873 63.27689 111.20612 63.47017 110.9148 63.66345 110.63234 63.85672 110.3612 64.05 110.09894 64.24329 109.84634 64.43655 109.60265 64.62984 109.3678 64.82312 109.14105 65.01639 108.92236 65.20967 108.71175 65.40295 108.50839 65.59622 108.31148 65.7895 108.12183 65.98279 107.94106 66.17606 107.76595 66.36934 107.59729 66.56262 107.43428 66.75589 107.27934 66.94917 107.12924 67.14246 106.984 67.33572 106.84761 67.529 106.71445 67.72229 106.58614 67.91556 106.4643 68.10884 106.34727 68.30212 106.23672 68.49539 106.13101 68.68867 106.02853 68.88194 105.93248 69.07523 105.84131 69.26851 105.75252 69.46178 105.67023 69.65506 105.59276 69.84834 105.51851 70.04161 105.44992 70.2349 105.38535 70.42818 105.32564 70.62144 105.26834 70.81473 105.21669 71.00801 105.16908 71.20128 105.1255 71.39456 105.08516 71.58784 105.05045 71.78111 105.0198 71.9744 104.99155 72.16768 104.96815 72.36095 104.94797 72.55423 104.93263 72.74751 104.92053 72.94078 104.91246 73.13406 104.90924H73.32735L73.52061 104.91246 73.71388 104.92053 73.90718 104.93263 74.10043 104.94797 74.29373 104.96815 74.48701 104.99155 74.68027 105.0198 74.87357 105.05045 75.06683 105.08516 75.26012 105.1255 75.4534 105.16908 75.64667 105.21669 75.83995 105.26834 76.03322 105.32564 76.22652 105.38535 76.41978 105.44992 76.61305 105.51851 76.80635 105.59276 76.9996 105.67023 77.1929 105.75252 77.38618 105.84131 77.57944 105.93248 77.77274 106.02853 77.966 106.1294 78.15929 106.23672 78.35257 106.34727 78.54584 106.4643 78.73912 106.58614 78.93239 106.71445 79.12569 106.846 79.31895 106.984 79.51222 107.12764 79.70552 107.27853 79.89877 107.43428 80.09207 107.59729 80.28535 107.76595 80.4786 107.94106 80.6719 108.12183 80.86517 108.31148 81.05844 108.50676 81.25174 108.71013 81.445 108.92076 81.63829 109.14024 81.83156 109.367 82.02484 109.60184 82.21812 109.84555 82.41139 110.09894 82.60469 110.3612 82.79794 110.63234 82.99123 110.9132 83.18452 111.20612 83.37778 111.50793 83.57108 111.82103 83.76434 112.14705 83.95761 112.48439 84.15091 112.83298 84.34418 113.19774 84.53746 113.57462 84.73073 113.96439 84.92401 114.36949 85.1173 114.79073 85.31056 115.22893 85.50386 115.68324 85.6971 116.15533 85.8904 116.64922 86.0837 117.15842 86.27695 117.69022 86.47025 118.2446 86.6635 118.8224 86.85678 119.42441 87.05008 120.04984 87.24335 120.7051 87.43663 121.38861 87.62988 122.10117 87.82318 122.84764 88.01646 123.62799 88.20973 124.44707 88.40303 125.30168 88.59627 126.19904 88.78957 127.14159 88.98286 128.13256 89.17612 129.17357 89.36942 130.27027 89.56267 131.42505 89.75595 132.64359 89.94925 133.92992 90.14252 135.29291 90.3358 136.73822 90.52905 138.26663 90.72235 139.89432 90.91563 141.6269 91.1089 143.47409 91.3022 145.44635 91.49544 147.55823 91.68874 149.82424 91.88203 152.25566 92.07529 154.88239 92.26859 157.727 92.28073 157.92069"/>
<path transform="matrix(-.062733139,-.9980298,-.9980198,.06273376,62.2632,8.597794)" d="M2.8892 0-1.73352 2.31136 0 0-1.73352-2.31136" fill="#0000ff"/>
<path transform="matrix(.06268313,-.9980298,-.9980198,-.06268375,100.365039,8.6050419)" d="M2.8892 0-1.73352 2.31136 0 0-1.73352-2.31136" fill="#0000ff"/>
<path transform="matrix(1.00005,0,0,-1.00006,8.079704,166.5352)" stroke-width=".99628" stroke-linecap="butt" stroke-miterlimit="10" stroke-linejoin="miter" fill="none" stroke="#0000ff" d="M101.98639 3.4636 101.99902 3.66449 102.19229 6.50668 102.38557 9.1342 102.57886 11.56645 102.77213 13.83086 102.96541 15.94838 103.15869 17.9174 103.35196 19.76459 103.54524 21.49797 103.73853 23.12486 103.93181 24.6557 104.12509 26.09778 104.31837 27.46318 104.51164 28.74872 104.70493 29.96887 104.89821 31.12366 105.09148 32.22115 105.28476 33.26297 105.47804 34.24991 105.67133 35.19489 105.86461 36.09225 106.05789 36.94844 106.25116 37.76591 106.44444 38.5479 106.63773 39.29272 106.831 40.00531 107.02428 40.68881 107.21756 41.3449 107.41083 41.9711 107.60413 42.57312 107.79741 43.15173 107.99068 43.70451 108.18396 44.23631 108.37724 44.74712 108.57051 45.23938 108.7638 45.71147 108.95708 46.1658 109.15034 46.6032 109.34363 47.02684 109.53693 47.43033 109.7302 47.82092 109.92348 48.19777 110.11676 48.56253 110.31003 48.91116 110.50331 49.24847 110.6966 49.5745 110.88986 49.8876 111.08315 50.19022 111.27643 50.48154 111.46971 50.76399 111.663 51.03513 111.85628 51.2974 112.04955 51.54999 112.24283 51.7937 112.43611 52.02853 112.62938 52.25609 112.82266 52.47397 113.01595 52.6862 113.20921 52.88795 113.40251 53.08485 113.5958 53.2745 113.78906 53.45528 113.98235 53.63039 114.17563 53.79904 114.3689 53.96207 114.56218 54.117 114.75546 54.26709 114.94873 54.41234 115.14203 54.55034 115.33531 54.68188 115.52858 54.80858 115.72186 54.93204 115.91515 55.04906 116.10841 55.1596 116.3017 55.26532 116.49496 55.3678 116.68825 55.46385 116.88153 55.55502 117.07481 55.64381 117.2681 55.72612 117.46138 55.80359 117.65465 55.87622 117.84793 55.94643 118.04121 56.01099 118.23448 56.06989 118.42776 56.12799 118.62105 56.17964 118.81432 56.22644 119.00761 56.27083 119.2009 56.31117 119.39417 56.34589 119.58745 56.37653 119.78073 56.40479 119.974 56.42819 120.16728 56.44836 120.36057 56.4637 120.55383 56.4758 120.74712 56.48387 120.94041 56.48709H121.13368L121.32697 56.48387 121.52023 56.4758 121.71352 56.4637 121.90678 56.44836 122.10008 56.42819 122.29337 56.40479 122.48663 56.37653 122.67993 56.34589 122.87318 56.31117 123.06648 56.27083 123.25977 56.22725 123.45302 56.17964 123.64632 56.12799 123.83958 56.06989 124.03287 56.01099 124.22617 55.94643 124.41943 55.87782 124.61272 55.80359 124.80598 55.72612 124.99928 55.64381 125.19255 55.55502 125.38583 55.46385 125.57912 55.3678 125.77237 55.26694 125.96567 55.1596 126.15897 55.04906 126.35222 54.93204 126.54552 54.8102 126.73878 54.68188 126.93207 54.55034 127.12535 54.41234 127.31863 54.26709 127.5119 54.1178 127.70517 53.96207 127.89847 53.79904 128.09175 53.63039 128.28502 53.45528 128.47832 53.2745 128.67157 53.08485 128.86487 52.88795 129.05815 52.6862 129.25142 52.47559 129.4447 52.25609 129.63797 52.02853 129.83126 51.7937 130.02455 51.55078 130.21782 51.2974 130.4111 51.03593 130.60437 50.76399 130.79767 50.48154 130.99095 50.19022 131.18422 49.8876 131.3775 49.5753 131.57076 49.24928 131.76406 48.91194 131.95735 48.56335 132.1506 48.1986 132.3439 47.82172 132.53717 47.43195 132.73046 47.02684 132.92375 46.6056 133.11702 46.1658 133.31029 45.71147 133.50356 45.2402 133.69686 44.74712 133.89014 44.23631 134.0834 43.70451 134.2767 43.15173 134.46996 42.57312 134.66326 41.97192 134.85655 41.3449 135.0498 40.69043 135.24309 40.00531 135.43636 39.29355 135.62964 38.5479 135.82294 37.76591 136.0162 36.94926 136.20949 36.09465 136.40276 35.19489 136.59606 34.25233 136.78934 33.26378 136.9826 32.22276 137.17589 31.12607 137.36914 29.96887 137.56244 28.74951 137.75572 27.464 137.94899 26.101 138.14229 24.65651 138.33554 23.12486 138.52884 21.49959 138.72214 19.76459 138.91539 17.91982 139.10869 15.94838 139.30194 13.8357 139.49523 11.56728 139.68852 9.1342 139.88179 6.50668 140.07508 3.66449 140.08747 3.46844"/>
<path transform="matrix(-.062533129,.99804988,.99803987,.06253375,110.07119,163.0714)" d="M2.8892 0-1.73352 2.31136 0 0-1.73352-2.31136" fill="#0000ff"/>
<path transform="matrix(.06260313,.99804988,.99803987,-.06260376,148.17417,163.06656)" d="M2.8892 0-1.73352 2.31136 0 0-1.73352-2.31136" fill="#0000ff"/>
<path transform="matrix(1.00005,0,0,-1.00006,8.079704,166.5352)" stroke-width=".99628" stroke-linecap="butt" stroke-miterlimit="10" stroke-linejoin="miter" fill="none" stroke="#0000ff" d="M149.79314 157.92794 149.80519 157.73668 149.99848 154.88965 150.19176 152.26616 150.38503 149.82907 150.57831 147.56548 150.77159 145.4528 150.96486 143.47893 151.15814 141.63175 151.35143 139.89836 151.5447 138.27147 151.73798 136.74063 151.93126 135.29856 152.12453 133.93315 152.31781 132.64763 152.5111 131.42746 152.70436 130.27268 152.89765 129.17519 153.09093 128.135 153.2842 127.144 153.47748 126.20145 153.67076 125.30408 153.86403 124.44789 154.05731 123.63042 154.2506 122.85005 154.44387 122.1036 154.63715 121.39102 154.83043 120.7059 155.0237 120.05144 155.21698 119.42523 155.41027 118.82483 155.60353 118.24623 155.79682 117.69182 155.9901 117.16003 156.18335 116.64922 156.37665 116.15695 156.56993 115.68486 156.7632 115.23053 156.95648 114.79315 157.14975 114.36949 157.34304 113.966 157.53632 113.57542 157.7296 113.19774 157.92285 112.83542 158.11614 112.48518 158.30944 112.14786 158.5027 111.82184 158.69597 111.50873 158.88925 111.20612 159.08252 110.9148 159.27582 110.63234 159.4691 110.3612 159.66236 110.10056 159.85564 109.84634 160.04892 109.60265 160.2422 109.3678 160.43547 109.14024 160.62876 108.92236 160.82202 108.71013 161.0153 108.50839 161.20859 108.31148 161.40186 108.12263 161.59514 107.94186 161.78842 107.76595 161.98169 107.59729 162.17498 107.43428 162.36826 107.27934 162.56153 107.12924 162.7548 106.984 162.94809 106.846 163.14136 106.71445 163.33464 106.58775 163.52793 106.4643 163.72119 106.34727 163.91448 106.23672 164.10776 106.13101 164.30103 106.02853 164.49431 105.93248 164.68759 105.84131 164.88086 105.75252 165.07415 105.67023 165.26743 105.59355 165.4607 105.52011 165.65398 105.44992 165.84726 105.38535 166.04053 105.32564 166.23381 105.26834 166.4271 105.21669 166.62036 105.16989 166.81365 105.1255 167.00693 105.08516 167.2002 105.05045 167.39348 105.0198 167.58676 104.99155 167.78003 104.96815 167.97332 104.94797 168.1666 104.93263 168.35987 104.92053 168.55315 104.91246 168.74643 104.90924H168.9397L169.133 104.91246 169.32625 104.92053 169.51955 104.93263 169.7128 104.94797 169.90608 104.96815 170.09938 104.99155 170.29265 105.0198 170.48593 105.05045 170.67919 105.08516 170.87248 105.1255 171.06577 105.16908 171.25904 105.21669 171.45233 105.26834 171.64557 105.32564 171.83887 105.38535 172.03217 105.44992 172.22542 105.51851 172.41872 105.59276 172.61197 105.67023 172.80525 105.75252 172.99855 105.84131 173.19182 105.93248 173.3851 106.02853 173.57836 106.1294 173.77165 106.23672 173.96494 106.34727 174.1582 106.4643 174.3515 106.58614 174.54474 106.71445 174.73804 106.846 174.93134 106.984 175.12459 107.12924 175.31789 107.27853 175.51114 107.43428 175.70442 107.59729 175.89772 107.76595 176.09099 107.94106 176.28426 108.12183 176.47753 108.31148 176.67082 108.50839 176.8641 108.71013 177.05738 108.92076 177.25066 109.14024 177.44391 109.3678 177.6372 109.60184 177.8305 109.84555 178.02376 110.09894 178.21704 110.3604 178.41031 110.63155 178.60359 110.9132 178.79689 111.2053 178.99016 111.50793 179.18343 111.82103 179.3767 112.14705 179.56999 112.48439 179.76328 112.83298 179.95655 113.19774 180.14983 113.57462 180.34308 113.96439 180.53638 114.36949 180.72968 114.79073 180.92292 115.22893 181.11621 115.68324 181.30948 116.15533 181.50276 116.6476 181.69606 117.15842 181.88932 117.69022 182.0826 118.2446 182.27587 118.8224 182.46916 119.42441 182.66245 120.04984 182.8557 120.7051 183.049 121.38861 183.24225 122.10117 183.43555 122.84764 183.62885 123.63042 183.82209 124.44707 184.01538 125.30005 184.20865 126.19904 184.40193 127.1424 184.59523 128.13095 184.78849 129.17357 184.98177 130.26782 185.17504 131.42505 185.36833 132.64359 185.56162 133.92992 185.75487 135.29534 185.94817 136.73822 186.14142 138.26825 186.33472 139.89432 186.52802 141.6269 186.72126 143.47409 186.91455 145.44635 187.10782 147.55823 187.3011 149.82424 187.4944 152.25566 187.68766 154.88239 187.88094 157.72458 187.89333 157.92064"/>
<path transform="matrix(-.062733139,-.9980298,-.9980198,.06273376,157.88034,8.597794)" d="M2.8892 0-1.73352 2.31136 0 0-1.73352-2.31136" fill="#0000ff"/>
<path transform="matrix(.06260313,-.99804988,-.99803987,-.06260376,195.98242,8.605087)" d="M2.8892 0-1.73352 2.31136 0 0-1.73352-2.31136" fill="#0000ff"/>
<path transform="matrix(1.00005,0,0,-1.00006,8.079704,166.5352)" stroke-width=".3985" stroke-linecap="butt" stroke-dasharray="2.98883,2.98883" stroke-miterlimit="10" stroke-linejoin="miter" fill="none" stroke="#ff0000" d="M1.52171 0V161.39636"/>
<path transform="matrix(1.00005,0,0,-1.00006,8.079704,166.5352)" stroke-width=".3985" stroke-linecap="butt" stroke-dasharray="2.98883,2.98883" stroke-miterlimit="10" stroke-linejoin="miter" fill="none" stroke="#ff0000" d="M49.32788 0V161.39636"/>
<path transform="matrix(1.00005,0,0,-1.00006,8.079704,166.5352)" stroke-width=".3985" stroke-linecap="butt" stroke-dasharray="2.98883,2.98883" stroke-miterlimit="10" stroke-linejoin="miter" fill="none" stroke="#ff0000" d="M97.13405 0V161.39636"/>
<path transform="matrix(1.00005,0,0,-1.00006,8.079704,166.5352)" stroke-width=".3985" stroke-linecap="butt" stroke-dasharray="2.98883,2.98883" stroke-miterlimit="10" stroke-linejoin="miter" fill="none" stroke="#ff0000" d="M144.94025 0V161.39636"/>
<path transform="matrix(1.00005,0,0,-1.00006,8.079704,166.5352)" stroke-width=".3985" stroke-linecap="butt" stroke-dasharray="2.98883,2.98883" stroke-miterlimit="10" stroke-linejoin="miter" fill="none" stroke="#ff0000" d="M192.74642 0V161.39636"/>
<use data-text="x" xlink:href="#font_3_2" transform="matrix(9.963098,0,0,-9.963197,193.14295,82.31215)"/>
<use data-text="y" xlink:href="#font_3_3" transform="matrix(9.963098,0,0,-9.963197,108.73873,12.93898)"/>
</svg>
