<svg xmlns="http://www.w3.org/2000/svg" xmlns:xlink="http://www.w3.org/1999/xlink" version="1.1" width="207" height="171" viewBox="0 0 207 171">
<defs>
<path id="font_1_1" d="M.6589966 .23046875C.6759949 .23046875 .69400027 .23046875 .69400027 .25045777 .69400027 .27046205 .6759949 .27046205 .6589966 .27046205H.117996219C.100997928 .27046205 .08299255 .27046205 .08299255 .25045777 .08299255 .23046875 .100997928 .23046875 .117996219 .23046875H.6589966Z"/>
<path id="font_2_3" d="M.1269989 .07699585 .23298645 .18003845C.3889923 .31811524 .44898988 .3721466 .44898988 .47216798 .44898988 .5860901 .35899354 .6660156 .23699951 .6660156 .12399292 .6660156 .049987794 .57411196 .049987794 .48516847 .049987794 .4291687 .099990848 .4291687 .102996829 .4291687 .11999512 .4291687 .15499878 .44117738 .15499878 .48217774 .15499878 .5081787 .13699341 .5341797 .101989749 .5341797 .09399414 .5341797 .09199524 .5341797 .08898926 .5331726 .11199951 .59806826 .1659851 .63500979 .22399903 .63500979 .31498719 .63500979 .35798646 .5541382 .35798646 .47216798 .35798646 .39215089 .30799867 .31311036 .25299073 .25108338L.06098938 .036987306C.049987794 .025985718 .049987794 .023986817 .049987794 0H.42099L.44898988 .17404175H.42399598C.4189911 .14402771 .4119873 .1000061 .4019928 .084991458 .394989 .07699585 .32899476 .07699585 .30699159 .07699585H.1269989Z"/>
<path id="font_3_1" d="M.2649994 .37265016H.37799073C.34498597 .22489929 .33599855 .18196106 .33599855 .11508179 .33599855 .100097659 .33599855 .073150638 .34399415 .03919983 .35398866-.0047454836 .36499024-.0107421879 .37998963-.0107421879 .3999939-.0107421879 .42099 .007247925 .42099 .02722168 .42099 .033218385 .42099 .035202028 .4149933 .049179079 .38598634 .12106323 .38598634 .18595886 .38598634 .21391297 .38598634 .26683045 .3929901 .32073976 .4039917 .37265016H.5179901C.5309906 .37265016 .5669861 .37265016 .5669861 .406662 .5669861 .43066407 .54599 .43066407 .5269928 .43066407H.19198609C.16999817 .43066407 .13198853 .43066407 .08799744 .38365174 .052993776 .34469605 .026992798 .29878236 .026992798 .29379273 .026992798 .29278565 .026992798 .28379823 .038986207 .28379823 .04699707 .28379823 .04899597 .28779603 .054992677 .29577638 .10398865 .37265016 .1619873 .37265016 .18199158 .37265016H.23899842C.20698548 .25186158 .15299988 .13105774 .11099243 .04020691 .102996829 .025222779 .102996829 .023223877 .102996829 .016235352 .102996829-.002746582 .11898804-.0107421879 .13198853-.0107421879 .1619873-.0107421879 .16999817 .017242432 .18199158 .05418396 .19599915 .100097659 .19599915 .10209656 .20899964 .15202332L.2649994 .37265016Z"/>
<path id="font_2_2" d="M.2939911 .64004519C.2939911 .66400149 .2939911 .6660156 .2709961 .6660156 .20899964 .60227969 .12098694 .60227969 .08898926 .60227969V.57128909C.10899353 .57128909 .16799927 .57128909 .21998596 .5972748V.07902527C.21998596 .042999269 .21699524 .0309906 .1269989 .0309906H.09498596V0C.12998963 .0029907227 .21699524 .0029907227 .25698854 .0029907227 .29699708 .0029907227 .38398744 .0029907227 .4189911 0V.0309906H.3869934C.29699708 .0309906 .2939911 .041992189 .2939911 .07902527V.64004519Z"/>
<path id="font_2_1" d="M.45999146 .31976319C.45999146 .39982606 .45498658 .47988893 .41999818 .5539398 .37399293 .65000918 .2919922 .6660156 .25 .6660156 .18998719 .6660156 .116989139 .64001467 .07598877 .54693606 .04399109 .47789 .038986207 .39982606 .038986207 .31976319 .038986207 .24472046 .042999269 .15464783 .083999637 .07859802 .1269989-.0024719239 .19999695-.022460938 .24899292-.022460938 .30299378-.022460938 .3789978-.0014648438 .4229889 .09359741 .45498658 .16265869 .45999146 .2407074 .45999146 .31976319M.24899292-.00047302247C.20999146-.00047302247 .15098572 .024551392 .1329956 .12062073 .12199402 .18066406 .12199402 .2727356 .12199402 .3317871 .12199402 .39582826 .12199402 .46188355 .12998963 .5159149 .14898682 .63500979 .22399903 .64401248 .24899292 .64401248 .28199769 .64401248 .34799195 .6259918 .36698915 .52693179 .3769989 .47088624 .3769989 .39482118 .3769989 .3317871 .3769989 .25672914 .3769989 .18867493 .3659973 .12461853 .35099793 .029556275 .2939911-.00047302247 .24899292-.00047302247Z"/>
<path id="font_2_4" d="M.44898988 .20022583C.44898988 .3193512 .36698915 .41944886 .25898744 .41944886 .21099854 .41944886 .16799927 .40345765 .13198853 .36842347V.5637665C.1519928 .5577698 .18499756 .55078127 .21699524 .55078127 .33999635 .55078127 .4099884 .6417694 .4099884 .6547699 .4099884 .6607666 .40699769 .6657715 .3999939 .6657715 .39898683 .6657715 .39698792 .6657715 .3919983 .66278079 .37199403 .6537781 .32299806 .6337738 .2559967 .6337738 .21598816 .6337738 .16999817 .6407776 .12298584 .6617737 .114990238 .66477969 .11299133 .66477969 .11099243 .66477969 .100997928 .66477969 .100997928 .6567688 .100997928 .6407776V.34439088C.100997928 .32637025 .100997928 .31835938 .114990238 .31835938 .12199402 .31835938 .12399292 .32136537 .12799073 .32736207 .13899231 .3433838 .17599488 .39746095 .25698854 .39746095 .30899049 .39746095 .33399964 .35139466 .34199525 .33337403 .35798646 .29632569 .3600006 .25727845 .3600006 .20722962 .3600006 .17222595 .3600006 .11222839 .33599855 .07035828 .31199647 .031463624 .2749939 .0055389406 .22898865 .0055389406 .1559906 .0055389406 .09899902 .058380128 .08198547 .11723328 .084991458 .1162262 .08799744 .115234378 .09899902 .115234378 .13198853 .115234378 .14898682 .14022827 .14898682 .16423035 .14898682 .18823242 .13198853 .21322632 .09899902 .21322632 .084991458 .21322632 .049987794 .20622254 .049987794 .16023255 .049987794 .07434082 .11898804-.022460938 .23098755-.022460938 .34700013-.022460938 .44898988 .073349 .44898988 .20022583Z"/>
<path id="font_3_2" d="M.33399964 .30233766C.33999635 .32835389 .36299134 .42037965 .43299867 .42037965 .43798829 .42037965 .46199037 .42037965 .48298646 .40734864 .45498658 .402359 .43499757 .37734986 .43499757 .35334779 .43499757 .33735658 .44599916 .31835938 .47299195 .31835938 .49499513 .31835938 .5269928 .3363495 .5269928 .37635804 .5269928 .42837525 .46798707 .4423828 .43399049 .4423828 .37599183 .4423828 .34098817 .38935853 .32899476 .36634828 .3039856 .43237306 .25 .4423828 .22099304 .4423828 .116989139 .4423828 .05999756 .3133545 .05999756 .28834535 .05999756 .27833558 .069992069 .27833558 .07199097 .27833558 .07998657 .27833558 .08299255 .28033448 .084991458 .28933717 .11898804 .39535523 .18499756 .42037965 .21899414 .42037965 .23799134 .42037965 .272995 .4113617 .272995 .35334779 .272995 .32235719 .2559967 .25532533 .21899414 .11528015 .20298767 .053268434 .16799927 .011245728 .12399292 .011245728 .117996219 .011245728 .09498596 .011245728 .07398987 .024276734 .09899902 .029266358 .12098694 .05027771 .12098694 .07827759 .12098694 .105270389 .09899902 .11328125 .083999637 .11328125 .053985597 .11328125 .0289917 .08728027 .0289917 .055267335 .0289917 .009246826 .07899475-.0107421879 .12298584-.0107421879 .18899536-.0107421879 .22499085 .059280397 .22799683 .0652771 .23999024 .028274537 .27598573-.0107421879 .33599855-.0107421879 .43899537-.0107421879 .49598695 .118270877 .49598695 .14328003 .49598695 .1532898 .4869995 .1532898 .48399354 .1532898 .47499085 .1532898 .47299195 .14929199 .47099305 .14228821 .43798829 .03527832 .36999513 .011245728 .33799745 .011245728 .29899598 .011245728 .2829895 .043273927 .2829895 .07727051 .2829895 .09927368 .2889862 .121276859 .2999878 .16529846L.33399964 .30233766Z"/>
<path id="font_3_3" d="M.48599244 .38136292C.48999024 .39537049 .48999024 .39736939 .48999024 .40437318 .48999024 .42237855 .47599793 .43138124 .46099855 .43138124 .45098878 .43138124 .43499757 .42536927 .42599488 .41036988 .42399598 .405365 .41600038 .37435914 .4119873 .35635377 .40499879 .33035279 .397995 .30334474 .3919983 .27633668L.34700013 .09628296C.34298707 .08126831 .2999878 .011245728 .23399353 .011245728 .18299866 .011245728 .17199707 .055267335 .17199707 .0922699 .17199707 .1382904 .18899536 .20030213 .22299195 .28833009 .23899842 .3293457 .24299622 .3403473 .24299622 .36035157 .24299622 .405365 .21099854 .4423828 .16099549 .4423828 .06599426 .4423828 .0289917 .29733277 .0289917 .28833009 .0289917 .27833558 .038986207 .27833558 .040985109 .27833558 .050994874 .27833558 .051986696 .28033448 .056991579 .29634095 .083999637 .3903656 .12399292 .42037965 .1579895 .42037965 .1659851 .42037965 .18299866 .42037965 .18299866 .3883667 .18299866 .36335755 .17298889 .3373413 .1659851 .31834413 .12599182 .21231079 .10798645 .1552887 .10798645 .10827637 .10798645 .019256592 .17098999-.0107421879 .22999573-.0107421879 .2689972-.0107421879 .30299378 .0062561037 .33099366 .03425598 .31799317-.017745972 .30599977-.06674194 .2659912-.11973572 .23999024-.15385437 .20199585-.18309021 .1559906-.18309021 .14199829-.18309021 .09700012-.18005371 .07998657-.14074707 .09599304-.14074707 .10899353-.14074707 .12298584-.1287384 .1329956-.11973572 .14299011-.10673523 .14299011-.08773804 .14299011-.056747438 .115997318-.052734376 .10598755-.052734376 .08299255-.052734376 .049987794-.068740848 .049987794-.11773682 .049987794-.16796875 .09399414-.20507813 .1559906-.20507813 .25898744-.20507813 .3619995-.11373901 .3899994-.00074768069L.48599244 .38136292Z"/>
</defs>
<path transform="matrix(1.00005,0,0,-1.00006,8.079704,166.5352)" stroke-width=".19925" stroke-linecap="butt" stroke-miterlimit="10" stroke-linejoin="miter" fill="none" stroke="#929292" d="M1.52171 79.28079V82.11555M13.47325 79.28079V82.11555M25.42479 79.28079V82.11555M37.37634 79.28079V82.11555M49.32788 79.28079V82.11555M61.27942 79.28079V82.11555M73.23096 79.28079V82.11555M85.18251 79.28079V82.11555M97.13405 79.28079V82.11555M109.0856 79.28079V82.11555M121.03714 79.28079V82.11555M132.9887 79.28079V82.11555M144.94023 79.28079V82.11555M156.89179 79.28079V82.11555M168.84334 79.28079V82.11555M180.79488 79.28079V82.11555M192.74643 79.28079V82.11555"/>
<path transform="matrix(1.00005,0,0,-1.00006,8.079704,166.5352)" stroke-width=".19925" stroke-linecap="butt" stroke-miterlimit="10" stroke-linejoin="miter" fill="none" stroke="#929292" d="M1.52171 78.5723V82.82404M49.32788 78.5723V82.82404M144.94023 78.5723V82.82404M192.74643 78.5723V82.82404"/>
<path transform="matrix(1.00005,0,0,-1.00006,8.079704,166.5352)" stroke-width=".19925" stroke-linecap="butt" stroke-miterlimit="10" stroke-linejoin="miter" fill="none" stroke="#929292" d="M95.00812 0H99.26001M95.00812 40.34909H99.26001M95.00812 121.04727H99.26001M95.00812 161.39636H99.26001"/>
<path transform="matrix(1.00005,0,0,-1.00006,8.079704,166.5352)" stroke-width=".3985" stroke-linecap="butt" stroke-miterlimit="10" stroke-linejoin="miter" fill="none" stroke="#000000" d="M0 80.69818H192.2756"/>
<path transform="matrix(1.00005,0,0,-1.00006,200.3649,85.832187)" d="M1.99252 0-1.19551 1.59401 0 0-1.19551-1.59401"/>
<path transform="matrix(1.00005,0,0,-1.00006,8.079704,166.5352)" stroke-width=".3985" stroke-linecap="butt" stroke-miterlimit="10" stroke-linejoin="miter" fill="none" stroke="#000000" d="M97.13405 0V159.40384"/>
<path transform="matrix(0,-1.00006,-1.00005,-0,105.218608,7.121811)" d="M1.99252 0-1.19551 1.59401 0 0-1.19551-1.59401"/>
<use data-text="&#x2212;" xlink:href="#font_1_1" transform="matrix(9.963098,0,0,-9.963197,.21730805,97.899089)"/>
<use data-text="2" xlink:href="#font_2_3" transform="matrix(9.963098,0,0,-9.963197,7.9666979,97.899089)"/>
<use data-text="&#x03c0;" xlink:href="#font_3_1" transform="matrix(9.963098,0,0,-9.963197,12.947945,97.899089)"/>
<use data-text="&#x2212;" xlink:href="#font_1_1" transform="matrix(9.963098,0,0,-9.963197,50.516828,97.290058)"/>
<use data-text="&#x03c0;" xlink:href="#font_3_1" transform="matrix(9.963098,0,0,-9.963197,58.266218,97.290058)"/>
<use data-text="&#x03c0;" xlink:href="#font_3_1" transform="matrix(9.963098,0,0,-9.963197,150.00879,95.76796)"/>
<use data-text="2" xlink:href="#font_2_3" transform="matrix(9.963098,0,0,-9.963197,195.32605,97.899089)"/>
<use data-text="&#x03c0;" xlink:href="#font_3_1" transform="matrix(9.963098,0,0,-9.963197,200.30731,97.899089)"/>
<use data-text="&#x2212;" xlink:href="#font_1_1" transform="matrix(9.963098,0,0,-9.963197,81.86039,169.33037)"/>
<use data-text="1" xlink:href="#font_2_2" transform="matrix(9.963098,0,0,-9.963197,89.60978,169.33037)"/>
<use data-text="0" xlink:href="#font_2_1" transform="matrix(9.963098,0,0,-9.963197,94.591327,169.33037)"/>
<use data-text="&#x2212;" xlink:href="#font_1_1" transform="matrix(9.963098,0,0,-9.963197,86.841648,128.97895)"/>
<use data-text="5" xlink:href="#font_2_4" transform="matrix(9.963098,0,0,-9.963197,94.591037,128.97895)"/>
<use data-text="5" xlink:href="#font_2_4" transform="matrix(9.963098,0,0,-9.963197,94.59103,48.69114)"/>
<use data-text="1" xlink:href="#font_2_2" transform="matrix(9.963098,0,0,-9.963197,89.60878,8.339706)"/>
<use data-text="0" xlink:href="#font_2_1" transform="matrix(9.963098,0,0,-9.963197,94.59033,8.339706)"/>
<path transform="matrix(1.00005,0,0,-1.00006,8.079704,166.5352)" stroke-width=".99628" stroke-linecap="butt" stroke-miterlimit="10" stroke-linejoin="miter" fill="none" stroke="#0000ff" d="M3.84953 70.99695 1.69408 69.41254 1.86644 69.536 2.03882 69.65381 2.2112 69.76839 2.38359 69.87976 2.55597 69.9879 2.72833 70.09282 2.90071 70.19208 3.07309 70.29053 3.24547 70.38493 3.41783 70.47694 3.59021 70.5657 3.76259 70.65042 3.93497 70.73436 4.10735 70.81425 4.27971 70.89172 4.45209 70.96838 4.62447 71.04103 4.79684 71.11203 4.96921 71.17982 5.14159 71.246 5.31396 71.31056 5.48634 71.37349 5.65872 71.434 5.83109 71.4913 6.00346 71.5478 6.17584 71.60185 6.34822 71.65514 6.5206 71.70596 6.69296 71.7552 6.86534 71.80281 7.03772 71.8488 7.2101 71.89238 7.38246 71.93596 7.55484 71.97632 7.72722 72.01585 7.8996 72.05539 8.07198 72.09091 8.24434 72.12642 8.41673 72.1611 8.58911 72.19258 8.76149 72.22487 8.93385 72.25471 9.10622 72.28458 9.27861 72.3112 9.45099 72.33783 9.62337 72.36285 9.79573 72.38625 9.96811 72.40884 10.14049 72.43063 10.31287 72.4508 10.48524 72.47018 10.65761 72.48714 10.82999 72.50488 11.00237 72.52103 11.17474 72.53555 11.3471 72.54926 11.51949 72.56137 11.69186 72.57185 11.86424 72.58316 12.03662 72.59204 12.20898 72.5993 12.38136 72.60657 12.55374 72.61302 12.72612 72.61786 12.8985 72.6227 13.07086 72.62512 13.24324 72.62836H13.41562 13.588L13.76036 72.62672 13.93274 72.62431 14.10512 72.62029 14.2775 72.61705 14.44987 72.61221 14.62224 72.60414 14.79462 72.59688 14.967 72.588 15.13937 72.57994 15.31175 72.56863 15.48413 72.55653 15.65651 72.54443 15.82889 72.5307 16.00127 72.51538 16.17363 72.49924 16.34601 72.48311 16.51839 72.46373 16.69077 72.44437 16.86314 72.42337 17.0355 72.40158 17.20789 72.37898 17.38026 72.35397 17.55264 72.32895 17.725 72.30315 17.89738 72.2741 18.06976 72.24503 18.24214 72.21518 18.41452 72.1837 18.58688 72.14981 18.75926 72.1159 18.93166 72.0796 19.10402 72.04167 19.27638 72.00374 19.44875 71.96259 19.62114 71.92143 19.79353 71.87787 19.9659 71.83348 20.13826 71.78667 20.31064 71.73906 20.48302 71.68822 20.65541 71.63817 20.82777 71.58331 21.00015 71.52924 21.17252 71.47275 21.3449 71.41223 21.51729 71.35251 21.68964 71.28876 21.86203 71.2242 22.0344 71.15721 22.20679 71.08862 22.37917 71.01761 22.55151 70.94337 22.7239 70.8659 22.89627 70.78844 23.06866 70.70694 23.24103 70.623 23.41339 70.53584 23.58578 70.44707 23.75815 70.35347 23.93054 70.25905 24.1029 70.1606 24.27527 70.0581 24.44766 69.9524 24.62003 69.84427 24.79242 69.73048 24.9648 69.61508 25.13716 69.49564 25.30954 69.37056 25.4819 69.24306 25.65428 69.10829 25.82668 68.97191 25.99904 68.82907 26.17142 68.6814 26.34378 68.52888 26.51616 68.36992 26.68855 68.20609 26.86092 68.035 27.0333 67.85909 27.20567 67.6751 27.37804 67.48546 27.55043 67.28775 27.7228 67.08195 27.89519 66.8673 28.06754 66.6462 28.23991 66.41298 28.41231 66.17168 28.58467 65.92233 28.75706 65.65926 28.92941 65.38489 29.1018 65.09921 29.27419 64.80063 29.44655 64.48833 29.61893 64.16069 29.79129 63.81772 29.96368 63.457 30.13606 63.08014 30.30843 62.6823 30.4808 62.26509 30.65317 61.82365 30.82556 61.35965 30.99794 60.86983 31.17032 60.35013 31.34268 59.80057 31.51505 59.21872 31.68744 58.59897 31.85983 57.94046 32.03218 57.24083 32.20456 56.48953 32.37692 55.68657 32.54932 54.8247 32.72171 53.89911 32.89406 52.90007 33.06644 51.82031 33.2388 50.64777 33.4112 49.37517 33.58357 47.98232 33.75594 46.45148 33.92831 44.77457 34.1007 42.91527 34.27307 40.84778 34.44545 38.53499 34.61781 35.93327 34.7902 32.98456 34.96257 29.60411 35.13495 25.70477 35.30733 21.15904 35.47969 15.78214 35.65208 9.31497 35.7614 4.30862"/>
<path transform="matrix(-.80574026,.5922755,.59226956,.80574837,11.929446,95.534)" d="M2.8892 0-1.73352 2.31136 0 0-1.73352-2.31136" fill="#0000ff"/>
<path transform="matrix(.02182109,.99977,.99976,-.021821307,43.842889,162.2263)" d="M2.8892 0-1.73352 2.31136 0 0-1.73352-2.31136" fill="#0000ff"/>
<path transform="matrix(1.00005,0,0,-1.00006,8.079704,166.5352)" stroke-width=".99628" stroke-linecap="butt" stroke-miterlimit="10" stroke-linejoin="miter" fill="none" stroke="#0000ff" d="M38.99338 157.08776 39.1531 149.98403 39.37775 142.24265 39.60237 136.07003 39.82701 131.03366 40.05164 126.84543 40.27628 123.3052 40.5009 120.28062 40.72554 117.666 40.95016 115.38225 41.1748 113.36963 41.39943 111.5846 41.62405 109.99 41.8487 108.55759 42.07332 107.26482 42.29796 106.09145 42.52258 105.02382 42.74722 104.04576 42.97185 103.1484 43.19649 102.32207 43.42111 101.55945 43.64575 100.85333 43.87038 100.19646 44.09502 99.58478 44.31964 99.01424 44.54428 98.48163 44.7689 97.98291 44.99355 97.51324 45.21817 97.07425 45.4428 96.66026 45.66743 96.2697 45.89206 95.9009 46.1167 95.55229 46.34132 95.22221 46.56596 94.91074 46.79059 94.61375 47.01523 94.33293 47.23985 94.06421 47.4645 93.8108 47.68912 93.56952 47.91376 93.33792 48.13838 93.11922 48.363 92.90942 48.58765 92.7101 48.81227 92.51804 49.03691 92.33565 49.26154 92.16052 49.48618 91.9943 49.7108 91.83452 49.93544 91.68198 50.16006 91.53592 50.3847 91.39471 50.60933 91.26076 50.83395 91.13164 51.0586 91.00818 51.28322 90.88875 51.50786 90.77576 51.73248 90.666 51.95712 90.56271 52.18175 90.46184 52.40639 90.36581 52.63101 90.27463 52.85565 90.18423 53.08028 90.10112 53.3049 90.01962 53.52953 89.94054 53.75417 89.8671 53.97879 89.79527 54.20343 89.72667 54.42805 89.6613 54.6527 89.59837 54.87732 89.53944 55.10196 89.48297 55.32658 89.42729 55.55121 89.37564 55.77585 89.32642 56.00047 89.27962 56.22511 89.23523 56.44974 89.19246 56.67438 89.15292 56.899 89.11497 57.12364 89.07867 57.34827 89.04558 57.5729 89.0133 57.79753 88.98506 58.02217 88.95682 58.2468 88.93098 58.47142 88.9076 58.69606 88.8858 58.92068 88.86563 59.14532 88.84868 59.36995 88.83253 59.59459 88.81802 59.81921 88.80511 60.04385 88.79541 60.26848 88.78575 60.49312 88.77849 60.71774 88.77364 60.94237 88.7696 61.167 88.76799H61.39163L61.61629 88.7696 61.8409 88.77364 62.06554 88.77849 62.29015 88.78575 62.5148 88.79541 62.73944 88.80511 62.96405 88.81802 63.1887 88.83253 63.41331 88.84868 63.63795 88.86563 63.8626 88.8858 64.08722 88.9076 64.31186 88.93098 64.53647 88.95682 64.76111 88.98506 64.98576 89.0133 65.21037 89.04558 65.43501 89.07867 65.65962 89.11497 65.88428 89.15292 66.10892 89.19246 66.33353 89.23361 66.55818 89.27962 66.78279 89.32642 67.00743 89.37564 67.23207 89.42729 67.4567 89.48297 67.68134 89.53944 67.90594 89.59837 68.13058 89.6613 68.35522 89.72667 68.57983 89.79527 68.80447 89.8671 69.02908 89.94054 69.25374 90.01881 69.47838 90.10112 69.70299 90.18423 69.92764 90.27301 70.15225 90.36581 70.37689 90.46184 70.60153 90.56271 70.82614 90.666 71.0508 90.77576 71.2754 90.88875 71.50005 91.00735 71.7247 91.13164 71.94931 91.25914 72.17395 91.3939 72.39856 91.53592 72.62321 91.68198 72.84785 91.83452 73.07246 91.9943 73.2971 92.16052 73.52173 92.33565 73.74637 92.51804 73.97101 92.70847 74.19563 92.90942 74.42027 93.11922 74.64488 93.33792 74.86952 93.56792 75.09418 93.8108 75.31879 94.06421 75.54343 94.33212 75.76804 94.61375 75.99269 94.90912 76.21733 95.22221 76.44194 95.55066 76.6666 95.89929 76.8912 96.26727 77.11584 96.65866 77.34048 97.07263 77.5651 97.51324 77.78975 97.98131 78.01436 98.48003 78.239 99.01343 78.46365 99.58315 78.68826 100.19485 78.9129 100.85173 79.13751 101.55865 79.36217 102.32045 79.5868 103.14679 79.81142 104.04335 80.03606 105.0198 80.26068 106.08984 80.48532 107.2624 80.70996 108.55518 80.93457 109.98596 81.15923 111.58136 81.38383 113.36722 81.60847 115.3766 81.83313 117.66438 82.05774 120.27498 82.28238 123.30035 82.50699 126.83493 82.73164 131.0272 82.95628 136.05712 83.1809 142.22891 83.40552 149.96707 83.56526 157.06516"/>
<path transform="matrix(-.022461122,-.99976,-.99974998,.022461348,47.075056,9.438049)" d="M2.8892 0-1.73352 2.31136 0 0-1.73352-2.31136" fill="#0000ff"/>
<path transform="matrix(.022461122,-.99976,-.99974998,-.022461348,91.649127,9.460648)" d="M2.8892 0-1.73352 2.31136 0 0-1.73352-2.31136" fill="#0000ff"/>
<path transform="matrix(1.00005,0,0,-1.00006,8.079704,166.5352)" stroke-width=".99628" stroke-linecap="butt" stroke-miterlimit="10" stroke-linejoin="miter" fill="none" stroke="#0000ff" d="M86.79955 4.30858 86.95929 11.41231 87.18393 19.1537 87.40855 25.32631 87.6332 30.36267 87.85782 34.55333 88.08246 38.0879 88.30708 41.11409 88.53172 43.73033 88.75635 46.01408 88.98097 48.0267 89.20561 49.81174 89.43024 51.40633 89.65488 52.83875 89.8795 54.13152 90.10414 55.30489 90.32877 56.37251 90.5534 57.35057 90.77803 58.24792 91.00267 59.07428 91.2273 59.83688 91.45192 60.543 91.67656 61.20068 91.90118 61.81155 92.12582 62.3821 92.35045 62.9147 92.57509 63.41342 92.79971 63.88309 93.02435 64.32208 93.24898 64.73607 93.4736 65.12746 93.69824 65.49544 93.92287 65.84406 94.1475 66.1725 94.37213 66.4856 94.59677 66.78258 94.8214 67.0634 95.04604 67.3305 95.27066 67.58553 95.4953 67.82681 95.71992 68.05681 95.94455 68.27711 96.16919 68.48691 96.39381 68.68623 96.61844 68.8783 96.84306 69.06068 97.0677 69.23581 97.29233 69.40204 97.51697 69.56181 97.7416 69.71436 97.96622 69.86041 98.19086 70.00162 98.41548 70.13557 98.64012 70.2647 98.86475 70.38817 99.08939 70.50758 99.31401 70.62057 99.53865 70.73033 99.76328 70.83363 99.98792 70.9345 100.21254 71.03052 100.43716 71.1217 100.6618 71.2121 100.88643 71.29521 101.11107 71.37671 101.3357 71.4542 101.56033 71.52924 101.78496 71.60107 102.0096 71.66966 102.23422 71.73503 102.45886 71.79796 102.68349 71.85689 102.90811 71.91336 103.13275 71.96904 103.35738 72.02069 103.58202 72.06992 103.80664 72.11671 104.03128 72.1611 104.2559 72.20387 104.48055 72.24341 104.70517 72.28136 104.92981 72.31766 105.15443 72.35075 105.37907 72.38303 105.6037 72.41208 105.82832 72.43951 106.05296 72.46535 106.27759 72.48874 106.50223 72.51053 106.72685 72.5307 106.95149 72.54765 107.17612 72.5638 107.40074 72.57831 107.62538 72.59122 107.85 72.60092 108.07465 72.61058 108.29927 72.61786 108.52391 72.6227 108.74854 72.62672 108.97318 72.62836H109.1978L109.42244 72.62672 109.64705 72.6227 109.8717 72.61786 110.09631 72.61058 110.32095 72.60092 110.54561 72.59122 110.77022 72.57831 110.99486 72.5638 111.21947 72.54765 111.44412 72.5307 111.66875 72.51053 111.89336 72.48874 112.118 72.46535 112.3426 72.43951 112.56726 72.41127 112.7919 72.38303 113.01651 72.35075 113.24117 72.31766 113.46577 72.28136 113.69041 72.24341 113.91505 72.20387 114.13966 72.1611 114.36432 72.11671 114.58893 72.06992 114.81357 72.02069 115.03822 71.96904 115.26283 71.91336 115.48747 71.85689 115.71208 71.79796 115.93674 71.73503 116.16138 71.66966 116.38599 71.60107 116.61063 71.52924 116.83524 71.4558 117.05989 71.37752 117.28453 71.29521 117.50914 71.2121 117.7338 71.12334 117.9584 71.03052 118.18304 70.9345 118.40768 70.83363 118.6323 70.73033 118.85695 70.62057 119.08156 70.50758 119.3062 70.38898 119.53085 70.2647 119.75546 70.13719 119.9801 70.00243 120.20471 69.86201 120.42937 69.71436 120.654 69.56181 120.87862 69.40204 121.10326 69.23581 121.32787 69.06068 121.55252 68.8783 121.77716 68.68787 122.00177 68.48691 122.22643 68.27711 122.45103 68.05841 122.67567 67.82843 122.90031 67.58553 123.12492 67.33212 123.34958 67.06421 123.57419 66.78258 123.79883 66.48721 124.02348 66.17412 124.2481 65.84567 124.47273 65.49704 124.69734 65.12907 124.922 64.73767 125.14664 64.3237 125.37125 63.88309 125.59589 63.41502 125.8205 62.91632 126.04515 62.3829 126.26979 61.81319 126.4944 61.20149 126.71906 60.5454 126.94365 59.83769 127.16829 59.07588 127.39293 58.24954 127.61754 57.35298 127.8422 56.37653 128.0668 55.30728 128.29145 54.13393 128.5161 52.84116 128.7407 51.41118 128.96535 49.81497 129.18996 48.03154 129.41461 46.01973 129.63925 43.73517 129.86386 41.12135 130.0885 38.10083 130.31311 34.5614 130.53777 30.37236 130.7624 25.33922 130.98702 19.17226 131.21167 11.44136 131.37136 4.34732"/>
<path transform="matrix(-.022461122,.99976,.99974998,.022461348,94.8836,162.22635)" d="M2.8892 0-1.73352 2.31136 0 0-1.73352-2.31136" fill="#0000ff"/>
<path transform="matrix(.022481123,.99976,.99974998,-.022481349,139.45761,162.1876)" d="M2.8892 0-1.73352 2.31136 0 0-1.73352-2.31136" fill="#0000ff"/>
<path transform="matrix(1.00005,0,0,-1.00006,8.079704,166.5352)" stroke-width=".99628" stroke-linecap="butt" stroke-miterlimit="10" stroke-linejoin="miter" fill="none" stroke="#0000ff" d="M134.60573 157.08776 134.76548 149.98403 134.99011 142.24265 135.21474 136.07003 135.43938 131.0377 135.664 126.843 135.88864 123.30843 136.11327 120.28062 136.3379 117.666 136.56253 115.38225 136.78717 113.36963 137.0118 111.5846 137.23642 109.99 137.46106 108.55759 137.68569 107.26482 137.91033 106.09145 138.13495 105.02382 138.35959 104.04576 138.58422 103.1484 138.80886 102.32207 139.03348 101.55945 139.25812 100.85333 139.48274 100.19646 139.70738 99.58478 139.93199 99.01424 140.15663 98.48163 140.38126 97.98291 140.6059 97.51324 140.83052 97.07425 141.05515 96.66026 141.27979 96.26888 141.50441 95.9009 141.72905 95.55229 141.95368 95.22385 142.17832 94.91074 142.40294 94.61375 142.62758 94.33293 142.8522 94.06421 143.07685 93.8108 143.30147 93.56952 143.52611 93.33954 143.75074 93.11922 143.97536 92.90942 144.2 92.7101 144.42462 92.51804 144.64926 92.33565 144.87389 92.16052 145.09853 91.9943 145.32315 91.83452 145.54779 91.68198 145.77242 91.53592 145.99706 91.39471 146.22168 91.26076 146.4463 91.13164 146.67095 91.00818 146.89557 90.88875 147.12021 90.77576 147.34484 90.666 147.56948 90.56271 147.7941 90.46184 148.01874 90.36581 148.24337 90.27301 148.468 90.18585 148.69263 90.10112 148.91727 90.01962 149.14189 89.94215 149.36653 89.8671 149.59116 89.79527 149.8158 89.72667 150.04042 89.6613 150.26506 89.59837 150.48969 89.53944 150.71433 89.48297 150.93895 89.42729 151.16358 89.37564 151.38822 89.32642 151.61284 89.27962 151.83748 89.23523 152.0621 89.19246 152.28675 89.15292 152.51137 89.11497 152.73601 89.07867 152.96063 89.04558 153.18527 89.0133 153.4099 88.98425 153.63454 88.95682 153.85916 88.93098 154.08379 88.9076 154.30843 88.8858 154.53305 88.86563 154.75769 88.84868 154.9823 88.83253 155.20694 88.81802 155.43157 88.80511 155.6562 88.79541 155.88083 88.78575 156.10547 88.77849 156.3301 88.77364 156.55472 88.7696 156.77936 88.76799H157.00399L157.22864 88.7696 157.45325 88.77364 157.67789 88.77849 157.9025 88.78575 158.12715 88.79541 158.35179 88.80511 158.5764 88.81802 158.80106 88.83253 159.02567 88.84868 159.2503 88.86563 159.47495 88.8858 159.69957 88.9076 159.92421 88.93098 160.14882 88.95682 160.37346 88.98506 160.59812 89.0133 160.82273 89.04558 161.04737 89.07867 161.27198 89.11497 161.49663 89.15292 161.72127 89.19246 161.94588 89.23361 162.17053 89.27962 162.39514 89.32642 162.61978 89.37564 162.84442 89.42729 163.06905 89.48297 163.29369 89.53944 163.5183 89.59837 163.74294 89.6613 163.96759 89.72667 164.1922 89.79527 164.41684 89.8671 164.64145 89.94054 164.8661 90.01881 165.09075 90.10112 165.31536 90.18423 165.54001 90.27301 165.76462 90.36581 165.98926 90.46184 166.2139 90.56271 166.4385 90.666 166.66316 90.77576 166.88777 90.88875 167.11241 91.00735 167.33707 91.13164 167.56168 91.25914 167.78632 91.3939 168.01093 91.53432 168.23558 91.68198 168.46022 91.83452 168.68483 91.9943 168.90947 92.16052 169.1341 92.33565 169.35874 92.51804 169.58338 92.70847 169.808 92.90942 170.03263 93.11922 170.25724 93.33792 170.48188 93.56952 170.70653 93.8108 170.93114 94.06421 171.15578 94.33212 171.38039 94.61375 171.60504 94.90912 171.82968 95.22221 172.05429 95.55066 172.27895 95.89929 172.50356 96.26727 172.7282 96.65866 172.95284 97.07263 173.17745 97.51324 173.4021 97.98131 173.62671 98.48003 173.85135 99.01343 174.076 99.58315 174.30062 100.19485 174.52526 100.85173 174.74987 101.55865 174.97452 102.32045 175.19916 103.14679 175.42377 104.04414 175.6484 105.0206 175.87303 106.08984 176.09767 107.2624 176.32231 108.55518 176.54692 109.98596 176.77158 111.57974 176.99619 113.36722 177.22083 115.3766 177.44548 117.66116 177.67009 120.27498 177.89473 123.30035 178.11934 126.83493 178.344 131.02397 178.56864 136.0652 178.79325 142.22891 179.01789 149.96707 179.17749 157.04901"/>
<path transform="matrix(-.022461122,-.99976,-.99974998,.022461348,142.69217,9.438049)" d="M2.8892 0-1.73352 2.31136 0 0-1.73352-2.31136" fill="#0000ff"/>
<path transform="matrix(.022501125,-.99976,-.99974998,-.02250135,187.26615,9.476791)" d="M2.8892 0-1.73352 2.31136 0 0-1.73352-2.31136" fill="#0000ff"/>
<path transform="matrix(1.00005,0,0,-1.00006,8.079704,166.5352)" stroke-width=".99628" stroke-linecap="butt" stroke-miterlimit="10" stroke-linejoin="miter" fill="none" stroke="#0000ff" d="M182.40552 4.30876 182.39928 3.99536 182.45154 6.39774 182.5038 8.66536 182.55605 10.7998 182.60832 12.81082 182.66057 14.7032 182.71283 16.49388 182.76508 18.18613 182.81734 19.79042 182.8696 21.31883 182.92186 22.76817 182.9741 24.1481 183.02637 25.46027 183.07862 26.71672 183.13089 27.91267 183.18314 29.061 183.2354 30.15125 183.28765 31.20839 183.3399 32.21066 183.39218 33.18146 183.44443 34.10626 183.49669 35.00038 183.54894 35.85742 183.6012 36.68538 183.65346 37.48026 183.70572 38.24931 183.75797 38.98932 183.81023 39.70107 183.86248 40.38943 183.91475 41.0568 183.967 41.69835 184.01926 42.32135 184.0715 42.92657 184.12377 43.50598 184.17604 44.0741 184.22829 44.62042 184.28055 45.15544 184.3328 45.6695 184.38506 46.16742 184.43732 46.65645 184.48958 47.12772 184.54183 47.58609 184.59409 48.03154 184.64633 48.4665 184.69861 48.88936 184.75087 49.30092 184.80312 49.70038 184.85538 50.08936 184.90763 50.47105 184.9599 50.83902 185.01215 51.19975 185.0644 51.5516 185.11666 51.89537 185.16892 52.22946 185.22118 52.55711 185.27344 52.87585 185.32569 53.18735 185.37795 53.4924 185.43019 53.78935 185.48247 54.07988 185.53472 54.36473 185.58698 54.64235 185.63924 54.9135 185.69149 55.17818 185.74376 55.43964 185.796 55.69304 185.84827 55.944 185.90052 56.1877 185.95278 56.42577 186.00504 56.6598 186.0573 56.88898 186.10955 57.11412 186.1618 57.33444 186.21405 57.54828 186.26633 57.76051 186.31858 57.96872 186.37084 58.17288 186.4231 58.37221 186.47534 58.5667 186.52762 58.75876 186.57987 58.94759 186.63213 59.13318 186.68437 59.31557 186.73664 59.49312 186.7889 59.66902 186.84116 59.84172 186.8934 60.01118 186.94567 60.17741 186.99793 60.34042 187.05019 60.50185 187.10245 60.6592 187.1547 60.81413 187.20696 60.96747 187.25922 61.11594 187.31148 61.26363 187.36373 61.40889 187.41599 61.55173 187.46823 61.69212 187.52051 61.83014 187.57276 61.9657 187.62502 62.09885 187.67726 62.23119 187.72953 62.36111 187.78179 62.48781 187.83405 62.61371 187.8863 62.73798 187.93856 62.85983 187.99082 62.97926 188.04308 63.09708 188.09534 63.21329 188.14759 63.32707 188.19985 63.44086 188.25209 63.55142 188.30437 63.66116 188.35662 63.76768 188.40888 63.87502 188.46112 63.98155 188.51338 64.08482 188.56565 64.1857 188.6179 64.28658 188.67017 64.38504 188.72241 64.48349 188.77468 64.57951 188.82694 64.67473 188.8792 64.76834 188.93146 64.86034 188.9837 64.95152 189.03595 65.04272 189.08823 65.13148 189.14048 65.21864 189.19274 65.305 189.24498 65.39133 189.29724 65.47527 189.3495 65.55759 189.40177 65.6399 189.45403 65.71977 189.50627 65.80128 189.55854 65.88037 189.6108 65.95784 189.66306 66.03369 189.7153 66.10875 189.76757 66.18379 189.81981 66.25966 189.87209 66.33228 189.92433 66.40489 189.9766 66.47511 190.02884 66.54613 190.0811 66.61633 190.13336 66.68413 190.18563 66.7519 190.23789 66.8197 190.29013 66.88586 190.34239 66.95122 190.39466 67.0166 190.44692 67.07954 190.49916 67.14249 190.55142 67.20543 190.60367 67.26756 190.65595 67.3281 190.70819 67.38861 190.76045 67.44753 190.8127 67.50642 190.86496 67.56616 190.91722 67.62263 190.96949 67.67914 191.02175 67.73561 191.07399 67.7913 191.12625 67.84618 191.17852 67.90105 191.23078 67.95511 191.28302 68.00758 191.33528 68.06084 191.38753 68.11249 191.4398 68.16412 191.49205 68.21416 191.54431 68.265 191.59656 68.31424 191.64882 68.36505 191.70108 68.41267 191.75334 68.4611 191.8056 68.50871 191.85785 68.55551 191.91011 68.6015 191.96237 68.64832 192.01464 68.69351 192.0669 68.7387 192.11914 68.78389 192.1714 68.82907 192.22367 68.87186 192.27591 68.91542 192.32817 68.95819 192.38042 69.00017 192.43268 69.04211 192.48494 69.08409 192.5372 69.12444 192.58946 69.16559 192.64171 69.20593 192.69397 69.24547 190.45995 67.51962"/>
<path transform="matrix(-.020251012,.99981996,.9998099,.020251215,190.49436,162.22618)" d="M2.8892 0-1.73352 2.31136 0 0-1.73352-2.31136" fill="#0000ff"/>
<path transform="matrix(.79135957,-.61134669,-.6113405,-.7913675,198.54914,99.01153)" d="M2.8892 0-1.73352 2.31136 0 0-1.73352-2.31136" fill="#0000ff"/>
<path transform="matrix(1.00005,0,0,-1.00006,8.079704,166.5352)" stroke-width=".3985" stroke-linecap="butt" stroke-dasharray="2.98883,2.98883" stroke-miterlimit="10" stroke-linejoin="miter" fill="none" stroke="#ff0000" d="M37.37634 0V161.39636"/>
<path transform="matrix(1.00005,0,0,-1.00006,8.079704,166.5352)" stroke-width=".3985" stroke-linecap="butt" stroke-dasharray="2.98883,2.98883" stroke-miterlimit="10" stroke-linejoin="miter" fill="none" stroke="#ff0000" d="M85.18251 0V161.39636"/>
<path transform="matrix(1.00005,0,0,-1.00006,8.079704,166.5352)" stroke-width=".3985" stroke-linecap="butt" stroke-dasharray="2.98883,2.98883" stroke-miterlimit="10" stroke-linejoin="miter" fill="none" stroke="#ff0000" d="M132.9887 0V161.39636"/>
<path transform="matrix(1.00005,0,0,-1.00006,8.079704,166.5352)" stroke-width=".3985" stroke-linecap="butt" stroke-dasharray="2.98883,2.98883" stroke-miterlimit="10" stroke-linejoin="miter" fill="none" stroke="#ff0000" d="M180.79488 0V161.39636"/>
<use data-text="x" xlink:href="#font_3_2" transform="matrix(9.963098,0,0,-9.963197,193.14295,82.31215)"/>
<use data-text="y" xlink:href="#font_3_3" transform="matrix(9.963098,0,0,-9.963197,108.73873,12.93898)"/>
</svg>
