<svg xmlns="http://www.w3.org/2000/svg" xmlns:xlink="http://www.w3.org/1999/xlink" xmlns:inkscape="http://www.inkscape.org/namespaces/inkscape" version="1.1" width="199" height="165" viewBox="0 0 199 165">
<defs>
<path id="font_1_1" d="M.6589966 .23046875C.6759949 .23046875 .69400027 .23046875 .69400027 .25045777 .69400027 .27046205 .6759949 .27046205 .6589966 .27046205H.117996219C.100997928 .27046205 .08299255 .27046205 .08299255 .25045777 .08299255 .23046875 .100997928 .23046875 .117996219 .23046875H.6589966Z"/>
<path id="font_2_4" d="M.13198853 .327713V.35173036C.13198853 .6047821 .2559967 .64100649 .30699159 .64100649 .33099366 .64100649 .37298585 .634964 .394989 .6007538 .37998963 .6007538 .33999635 .6007538 .33999635 .5557556 .33999635 .524765 .3639984 .5097656 .38598634 .5097656 .4019928 .5097656 .43199159 .51875308 .43199159 .5577545 .43199159 .6178589 .3880005 .6660156 .30499269 .6660156 .1769867 .6660156 .041992189 .5367584 .041992189 .31570436 .041992189 .048553468 .1579895-.022460938 .25099183-.022460938 .3619995-.022460938 .45700074 .07156372 .45700074 .2036438 .45700074 .33070375 .36799623 .4267578 .25698854 .4267578 .18899536 .4267578 .1519928 .37573243 .13198853 .327713M.25099183 .0055389406C.18798828 .0055389406 .1579895 .06556702 .1519928 .080566409 .13398743 .127594 .13398743 .2076416 .13398743 .22564698 .13398743 .30369569 .1659851 .40374757 .2559967 .40374757 .27198792 .40374757 .31799317 .40374757 .34899903 .34172059 .36698915 .30470277 .36698915 .2536621 .36698915 .20463562 .36698915 .15661621 .36698915 .10658264 .34999085 .0705719 .31999208 .010528564 .27398683 .0055389406 .25099183 .0055389406Z"/>
<path id="font_2_3" d="M.1269989 .07699585 .23298645 .18003845C.3889923 .31811524 .44898988 .3721466 .44898988 .47216798 .44898988 .5860901 .35899354 .6660156 .23699951 .6660156 .12399292 .6660156 .049987794 .57411196 .049987794 .48516847 .049987794 .4291687 .099990848 .4291687 .102996829 .4291687 .11999512 .4291687 .15499878 .44117738 .15499878 .48217774 .15499878 .5081787 .13699341 .5341797 .101989749 .5341797 .09399414 .5341797 .09199524 .5341797 .08898926 .5331726 .11199951 .59806826 .1659851 .63500979 .22399903 .63500979 .31498719 .63500979 .35798646 .5541382 .35798646 .47216798 .35798646 .39215089 .30799867 .31311036 .25299073 .25108338L.06098938 .036987306C.049987794 .025985718 .049987794 .023986817 .049987794 0H.42099L.44898988 .17404175H.42399598C.4189911 .14402771 .4119873 .1000061 .4019928 .084991458 .394989 .07699585 .32899476 .07699585 .30699159 .07699585H.1269989Z"/>
<path id="font_2_2" d="M.2939911 .64004519C.2939911 .66400149 .2939911 .6660156 .2709961 .6660156 .20899964 .60227969 .12098694 .60227969 .08898926 .60227969V.57128909C.10899353 .57128909 .16799927 .57128909 .21998596 .5972748V.07902527C.21998596 .042999269 .21699524 .0309906 .1269989 .0309906H.09498596V0C.12998963 .0029907227 .21699524 .0029907227 .25698854 .0029907227 .29699708 .0029907227 .38398744 .0029907227 .4189911 0V.0309906H.3869934C.29699708 .0309906 .2939911 .041992189 .2939911 .07902527V.64004519Z"/>
<path id="font_2_1" d="M.45999146 .31976319C.45999146 .39982606 .45498658 .47988893 .41999818 .5539398 .37399293 .65000918 .2919922 .6660156 .25 .6660156 .18998719 .6660156 .116989139 .64001467 .07598877 .54693606 .04399109 .47789 .038986207 .39982606 .038986207 .31976319 .038986207 .24472046 .042999269 .15464783 .083999637 .07859802 .1269989-.0024719239 .19999695-.022460938 .24899292-.022460938 .30299378-.022460938 .3789978-.0014648438 .4229889 .09359741 .45498658 .16265869 .45999146 .2407074 .45999146 .31976319M.24899292-.00047302247C.20999146-.00047302247 .15098572 .024551392 .1329956 .12062073 .12199402 .18066406 .12199402 .2727356 .12199402 .3317871 .12199402 .39582826 .12199402 .46188355 .12998963 .5159149 .14898682 .63500979 .22399903 .64401248 .24899292 .64401248 .28199769 .64401248 .34799195 .6259918 .36698915 .52693179 .3769989 .47088624 .3769989 .39482118 .3769989 .3317871 .3769989 .25672914 .3769989 .18867493 .3659973 .12461853 .35099793 .029556275 .2939911-.00047302247 .24899292-.00047302247Z"/>
<path id="font_3_4" d="M.15499878 .5588074C.20599365 .5458069 .23599243 .5458069 .2519989 .5458069 .38398744 .5458069 .46199037 .6358032 .46199037 .6508026 .46199037 .6618042 .45498658 .6648102 .44999696 .6648102 .44799806 .6648102 .44599916 .6648102 .44198609 .6618042 .41799928 .6528015 .36499024 .6328125 .29100038 .6328125 .2630005 .6328125 .20999146 .6348114 .14498902 .6598053 .1349945 .6648102 .1329956 .6648102 .13198853 .6648102 .11898804 .6648102 .11898804 .6538086 .11898804 .6378021V.34251405C.11898804 .32548524 .11898804 .3134613 .1349945 .3134613 .14399719 .3134613 .14498902 .3154602 .15499878 .32748414 .19799805 .38259889 .25898744 .390625 .2939911 .390625 .35398866 .390625 .3809967 .34251405 .38598634 .33450318 .4039917 .30143739 .4099884 .26335145 .4099884 .20524597 .4099884 .17524719 .4099884 .116256717 .37998963 .07234192 .35499574 .03640747 .31199647 .012466431 .2630005 .012466431 .19799805 .012466431 .1309967 .04838562 .10598755 .11425781 .14399719 .11125183 .16299439 .13624573 .16299439 .16325379 .16299439 .20625305 .12599182 .21424866 .11299133 .21424866 .11099243 .21424866 .06298828 .21424866 .06298828 .1602478 .06298828 .07034302 .14498902-.01953125 .2649994-.01953125 .3929901-.01953125 .5049896 .07533264 .5049896 .20124817 .5049896 .31445313 .4189911 .41862489 .29499818 .41862489 .25099183 .41862489 .19898987 .4076233 .15499878 .36956788V.5588074Z"/>
<path id="font_3_3" d="M.5289917 .1640625V.20005799H.41799928V.64582827C.41799928 .66682437 .41799928 .6738281 .3959961 .6738281 .38398744 .6738281 .37998963 .6738281 .36999513 .65982058L.038986207 .20005799V.1640625H.33299256V.08201599C.33299256 .04800415 .33299256 .035995485 .2519989 .035995485H.22499085V0C.2749939 .0019989014 .33898927 .0039978029 .375 .0039978029 .4119873 .0039978029 .47599793 .0019989014 .526001 0V.035995485H.49899293C.41799928 .035995485 .41799928 .04800415 .41799928 .08201599V.1640625H.5289917M.33999635 .5658722V.20005799H.07598877L.33999635 .5658722Z"/>
<path id="font_3_2" d="M.272995 .33428956C.35099793 .33428956 .40699769 .2803192 .40699769 .1733551 .40699769 .04940796 .33499146 .012466431 .2769928 .012466431 .23699951 .012466431 .14898682 .0234375 .10699463 .082351688 .1539917 .084350589 .16499329 .11735535 .16499329 .13835144 .16499329 .17034912 .14099121 .19335938 .10998535 .19335938 .08198547 .19335938 .053985597 .17634583 .053985597 .13534546 .053985597 .041412355 .1579895-.01953125 .2789917-.01953125 .41799928-.01953125 .5139923 .07336426 .5139923 .1733551 .5139923 .2513275 .44999696 .32929994 .33999635 .35229493 .44499208 .39024354 .48298646 .4650879 .48298646 .5260773 .48298646 .60505679 .3919983 .6640625 .2809906 .6640625 .16999817 .6640625 .084991458 .61006167 .084991458 .5300751 .084991458 .49606324 .10699463 .47706605 .13699341 .47706605 .16799927 .47706605 .18798828 .5000763 .18798828 .5280762 .18798828 .5570679 .16799927 .57806399 .13699341 .5800781 .17199707 .62405398 .24099732 .63505557 .27799989 .63505557 .32299806 .63505557 .38598634 .6130676 .38598634 .5260773 .38598634 .48406983 .37199403 .43814088 .34599305 .4072113 .31298829 .36927796 .2849884 .3672943 .23498535 .36428834 .20999146 .3623047 .20799256 .3623047 .20298767 .3612976 .20098877 .3612976 .19299317 .3592987 .19299317 .34829713 .19299317 .33428956 .20199585 .33428956 .21899414 .33428956H.272995Z"/>
<path id="font_3_1" d="M.33499146 .63612368C.33499146 .6630554 .33299256 .6640625 .30499269 .6640625 .24099732 .6014404 .1499939 .6004486 .10899353 .6004486V.5644531C.1329956 .5644531 .19898987 .5644531 .2539978 .592453V.08203125C.2539978 .04899597 .2539978 .035995485 .1539917 .035995485H.115997318V0C.13398743 .0009918213 .25698854 .0039978029 .2939911 .0039978029 .32499696 .0039978029 .45098878 .0009918213 .47299195 0V.035995485H.43499757C.33499146 .035995485 .33499146 .04899597 .33499146 .08203125V.63612368Z"/>
<path id="font_4_2" d="M.48599244 .38136292C.48999024 .39537049 .48999024 .39736939 .48999024 .40437318 .48999024 .42237855 .47599793 .43138124 .46099855 .43138124 .45098878 .43138124 .43499757 .42536927 .42599488 .41036988 .42399598 .405365 .41600038 .37435914 .4119873 .35635377 .40499879 .33035279 .397995 .30334474 .3919983 .27633668L.34700013 .09628296C.34298707 .08126831 .2999878 .011245728 .23399353 .011245728 .18299866 .011245728 .17199707 .055267335 .17199707 .0922699 .17199707 .1382904 .18899536 .20030213 .22299195 .28833009 .23899842 .3293457 .24299622 .3403473 .24299622 .36035157 .24299622 .405365 .21099854 .4423828 .16099549 .4423828 .06599426 .4423828 .0289917 .29733277 .0289917 .28833009 .0289917 .27833558 .038986207 .27833558 .040985109 .27833558 .050994874 .27833558 .051986696 .28033448 .056991579 .29634095 .083999637 .3903656 .12399292 .42037965 .1579895 .42037965 .1659851 .42037965 .18299866 .42037965 .18299866 .3883667 .18299866 .36335755 .17298889 .3373413 .1659851 .31834413 .12599182 .21231079 .10798645 .1552887 .10798645 .10827637 .10798645 .019256592 .17098999-.0107421879 .22999573-.0107421879 .2689972-.0107421879 .30299378 .0062561037 .33099366 .03425598 .31799317-.017745972 .30599977-.06674194 .2659912-.11973572 .23999024-.15385437 .20199585-.18309021 .1559906-.18309021 .14199829-.18309021 .09700012-.18005371 .07998657-.14074707 .09599304-.14074707 .10899353-.14074707 .12298584-.1287384 .1329956-.11973572 .14299011-.10673523 .14299011-.08773804 .14299011-.056747438 .115997318-.052734376 .10598755-.052734376 .08299255-.052734376 .049987794-.068740848 .049987794-.11773682 .049987794-.16796875 .09399414-.20507813 .1559906-.20507813 .25898744-.20507813 .3619995-.11373901 .3899994-.00074768069L.48599244 .38136292Z"/>
<path id="font_2_5" d="M.68699648 .32714845C.70199587 .32714845 .72099307 .32714845 .72099307 .34713746 .72099307 .36714173 .70199587 .36714173 .6879883 .36714173H.08898926C.07499695 .36714173 .055999757 .36714173 .055999757 .34713746 .055999757 .32714845 .07499695 .32714845 .08999634 .32714845H.68699648M.6879883 .13284302C.70199587 .13284302 .72099307 .13284302 .72099307 .15284729 .72099307 .17285156 .70199587 .17285156 .68699648 .17285156H.08999634C.07499695 .17285156 .055999757 .17285156 .055999757 .15284729 .055999757 .13284302 .07499695 .13284302 .08898926 .13284302H.6879883Z"/>
<path id="font_2_6" d="M.116989139 .21801758C.116989139 .38093568 .19898987 .42323304 .2519989 .42323304 .26098634 .42323304 .32398988 .42222596 .35899354 .38594056 .31799317 .38293458 .31199647 .3529358 .31199647 .3399353 .31199647 .31393434 .32998658 .2939453 .35798646 .2939453 .38398744 .2939453 .4039917 .3109436 .4039917 .34094239 .4039917 .40911866 .32798768 .4482422 .25099183 .4482422 .12599182 .4482422 .033996583 .3399353 .033996583 .21601868 .033996583 .08816528 .1329956-.0107421879 .24899292-.0107421879 .3829956-.0107421879 .4149933 .10914612 .4149933 .119140628 .4149933 .12911988 .40499879 .12911988 .4019928 .12911988 .3929901 .12911988 .3909912 .12512207 .3889923 .119140628 .3600006 .026229859 .29499818 .014251709 .2579956 .014251709 .20498657 .014251709 .116989139 .0572052 .116989139 .21801758Z"/>
<path id="font_2_7" d="M.47099305 .21424866C.47099305 .34223939 .37098695 .4482422 .25 .4482422 .125 .4482422 .027999878 .3392334 .027999878 .21424866 .027999878 .085250858 .13198853-.0107421879 .24899292-.0107421879 .36999513-.0107421879 .47099305 .087249759 .47099305 .21424866M.25 .014251709C.20698548 .014251709 .16299439 .035247804 .13598633 .08125305 .11099243 .12524414 .11099243 .18624878 .11099243 .22224427 .11099243 .26124574 .11099243 .31523133 .1349945 .35923768 .1619873 .40522767 .20899964 .426239 .24899292 .426239 .29299928 .426239 .33599855 .40423585 .3619995 .36123658 .3880005 .3182373 .3880005 .26023866 .3880005 .22224427 .3880005 .18624878 .3880005 .13224793 .3659973 .08824158 .34399415 .04324341 .2999878 .014251709 .25 .014251709Z"/>
<path id="font_2_8" d="M.20799256 .19424439C.22999573 .19024658 .31199647 .17424011 .31199647 .102249149 .31199647 .051254274 .2769928 .011245728 .19898987 .011245728 .114990238 .011245728 .07899475 .06825256 .05999756 .15324402 .056991579 .1662445 .055999757 .17024231 .04598999 .17024231 .032989503 .17024231 .032989503 .16323853 .032989503 .14524842V.013244629C.032989503-.003753662 .032989503-.0107421879 .04399109-.0107421879 .04899597-.0107421879 .049987794-.009750366 .068984989 .009246826 .070999149 .011245728 .070999149 .013244629 .08898926 .03224182 .1329956-.009750366 .17799378-.0107421879 .19898987-.0107421879 .31399537-.0107421879 .3600006 .056243898 .3600006 .12825012 .3600006 .1812439 .32998658 .21124268 .31799317 .22323609 .2849884 .25523377 .24598694 .26324464 .20399475 .27124024 .147995 .28224183 .08099365 .2952423 .08099365 .35324098 .08099365 .38822938 .10699463 .42922975 .19299317 .42922975 .30299378 .42922975 .30799867 .3392334 .30999757 .3082428 .31098939 .2992401 .31999208 .2992401 .32199098 .2992401 .33499146 .2992401 .33499146 .304245 .33499146 .3232422V.4242401C.33499146 .4412384 .33499146 .4482422 .32398988 .4482422 .31900025 .4482422 .31698609 .4482422 .3039856 .43623353 .30099488 .43223573 .29100038 .42323304 .2869873 .42022706 .24899292 .4482422 .20799256 .4482422 .19299317 .4482422 .070999149 .4482422 .032989503 .38124085 .032989503 .3252411 .032989503 .29023744 .04899597 .26223756 .07598877 .24023438 .10798645 .21424866 .13598633 .2082367 .20799256 .19424439Z"/>
<path id="font_5_1" d="M.41299439-1.1491852C.41299439-1.1451874 .41099549-1.1431885 .40899659-1.1401825 .36299134-1.0911713 .29499818-1.0101624 .25299073-.84713748 .22999573-.7561188 .22099304-.65309146 .22099304-.56007388 .22099304-.2970276 .28399659-.11299133 .4039917 .017044068 .41299439 .026031495 .41299439 .028030396 .41299439 .030029297 .41299439 .040039064 .40499879 .040039064 .40098573 .040039064 .38598634 .040039064 .33198548-.019973755 .31900025-.034973146 .21699524-.1559906 .1519928-.33602906 .1519928-.5590668 .1519928-.7010956 .1769867-.9021454 .30799867-1.071167 .31799317-1.0831757 .3829956-1.1591797 .40098573-1.1591797 .40499879-1.1591797 .41299439-1.1591797 .41299439-1.1491852Z"/>
<path id="font_6_1" d="M.31098939 .36265565H.42999269C.4149933 .30274964 .3929901 .2118988 .3929901 .13302613 .3929901 .09309387 .397995 .06613159 .4039917 .044174196 .41999818-.0057678224 .43299867-.009765625 .44898988-.009765625 .47200013-.009765625 .49598695 .011230469 .49598695 .035186769 .49598695 .043182374 .49398805 .047164918 .48799134 .057159425 .46899415 .09408569 .45098878 .15100098 .45098878 .23286438 .45098878 .25183106 .45098878 .29177857 .46499635 .36265565H.58999636C.60798647 .36265565 .6159973 .36265565 .6269989 .37065126 .6409912 .380661 .6439972 .39665223 .6439972 .4016571 .6439972 .43066407 .6179962 .43066407 .6009979 .43066407H.22399903C.18299866 .43066407 .15499878 .42166139 .10998535 .37965394 .083999637 .35665895 .04499817 .30274964 .04499817 .2937622 .04499817 .28178407 .057998659 .28178407 .06199646 .28178407 .07299805 .28178407 .07398987 .28378297 .07998657 .2927704 .1309967 .36265565 .19299317 .36265565 .21499634 .36265565H.27598573C.24499512 .25283814 .19099427 .13502503 .16099549 .07511902 .15499878 .062149049 .14498902 .04118347 .14199829 .03718567 .14099121 .033187868 .13899231 .029190064 .13899231 .022201539 .13899231 .006225586 .15098572-.009765625 .17399597-.009765625 .21398926-.009765625 .22499085 .035186769 .24899292 .12504578L.31098939 .36265565Z"/>
<path id="font_4_1" d="M.33399964 .30233766C.33999635 .32835389 .36299134 .42037965 .43299867 .42037965 .43798829 .42037965 .46199037 .42037965 .48298646 .40734864 .45498658 .402359 .43499757 .37734986 .43499757 .35334779 .43499757 .33735658 .44599916 .31835938 .47299195 .31835938 .49499513 .31835938 .5269928 .3363495 .5269928 .37635804 .5269928 .42837525 .46798707 .4423828 .43399049 .4423828 .37599183 .4423828 .34098817 .38935853 .32899476 .36634828 .3039856 .43237306 .25 .4423828 .22099304 .4423828 .116989139 .4423828 .05999756 .3133545 .05999756 .28834535 .05999756 .27833558 .069992069 .27833558 .07199097 .27833558 .07998657 .27833558 .08299255 .28033448 .084991458 .28933717 .11898804 .39535523 .18499756 .42037965 .21899414 .42037965 .23799134 .42037965 .272995 .4113617 .272995 .35334779 .272995 .32235719 .2559967 .25532533 .21899414 .11528015 .20298767 .053268434 .16799927 .011245728 .12399292 .011245728 .117996219 .011245728 .09498596 .011245728 .07398987 .024276734 .09899902 .029266358 .12098694 .05027771 .12098694 .07827759 .12098694 .105270389 .09899902 .11328125 .083999637 .11328125 .053985597 .11328125 .0289917 .08728027 .0289917 .055267335 .0289917 .009246826 .07899475-.0107421879 .12298584-.0107421879 .18899536-.0107421879 .22499085 .059280397 .22799683 .0652771 .23999024 .028274537 .27598573-.0107421879 .33599855-.0107421879 .43899537-.0107421879 .49598695 .118270877 .49598695 .14328003 .49598695 .1532898 .4869995 .1532898 .48399354 .1532898 .47499085 .1532898 .47299195 .14929199 .47099305 .14228821 .43798829 .03527832 .36999513 .011245728 .33799745 .011245728 .29899598 .011245728 .2829895 .043273927 .2829895 .07727051 .2829895 .09927368 .2889862 .121276859 .2999878 .16529846L.33399964 .30233766Z"/>
<path id="font_5_2" d="M.30499269-.56007388C.30499269-.41804505 .27999879-.2170105 .14898682-.047973634 .13899231-.035964967 .07398987 .040039064 .055999757 .040039064 .050994874 .040039064 .04399109 .038024904 .04399109 .030029297 .04399109 .026031495 .04598999 .023025513 .049987794 .02003479 .09799194-.031967164 .16299439-.11299133 .20399475-.27201844 .22698975-.3630371 .23599243-.4660492 .23599243-.5590668 .23599243-.6600952 .22698975-.7621155 .20098877-.86013796 .16299439-1.0001679 .10398865-1.0801697 .052993776-1.1361847 .04399109-1.1451874 .04399109-1.1471863 .04399109-1.1491852 .04399109-1.1571808 .050994874-1.1591797 .055999757-1.1591797 .070999149-1.1591797 .12599182-1.098175 .13798523-1.0841827 .23999024-.96315 .30499269-.7831116 .30499269-.56007388Z"/>
</defs>
<path transform="matrix(1.00006,0,0,-1.00002,2.4702454,163.19095)" stroke-width=".19925" stroke-linecap="butt" stroke-miterlimit="10" stroke-linejoin="miter" fill="none" stroke="#7f807f" d="M15.33727 79.27849V82.1133M35.78697 79.27849V82.1133M56.23666 79.27849V82.1133M76.68637 79.27849V82.1133M97.13608 79.27849V82.1133M117.58577 79.27849V82.1133M138.03548 79.27849V82.1133M158.48519 79.27849V82.1133M178.93488 79.27849V82.1133"/>
<path transform="matrix(1.00006,0,0,-1.00002,2.4702454,163.19095)" stroke-width=".19925" stroke-linecap="butt" stroke-miterlimit="10" stroke-linejoin="miter" fill="none" stroke="#7f807f" d="M5.11241 78.57V82.82176M46.01183 78.57V82.82176M86.91122 78.57V82.82176M127.81062 78.57V82.82176M168.71002 78.57V82.82176"/>
<path transform="matrix(1.00006,0,0,-1.00002,2.4702454,163.19095)" stroke-width=".19925" stroke-linecap="butt" stroke-miterlimit="10" stroke-linejoin="miter" fill="none" stroke="#7f807f" d="M65.04419 9.49362H67.87885M65.04419 33.22772H67.87885M65.04419 56.9618H67.87885M65.04419 80.69589H67.87885M65.04419 104.42998H67.87885M65.04419 128.16408H67.87885M65.04419 151.89817H67.87885"/>
<path transform="matrix(1.00006,0,0,-1.00002,2.4702454,163.19095)" stroke-width=".19925" stroke-linecap="butt" stroke-miterlimit="10" stroke-linejoin="miter" fill="none" stroke="#7f807f" d="M64.33574 21.36067H68.5873M64.33574 45.09476H68.5873M64.33574 68.82884H68.5873M64.33574 92.56294H68.5873M64.33574 116.29703H68.5873M64.33574 140.03112H68.5873"/>
<path transform="matrix(1.00006,0,0,-1.00002,2.4702454,163.19095)" stroke-width=".3985" stroke-linecap="butt" stroke-miterlimit="10" stroke-linejoin="miter" fill="none" stroke="#000000" d="M0 80.69589H192.27964"/>
<path transform="matrix(1.00006,0,0,-1.00002,194.76142,82.49344)" d="M1.99252 0-1.19551 1.59401 0 0-1.19551-1.59401"/>
<path transform="matrix(1.00006,0,0,-1.00002,2.4702454,163.19095)" stroke-width=".3985" stroke-linecap="butt" stroke-miterlimit="10" stroke-linejoin="miter" fill="none" stroke="#000000" d="M66.46152 0V159.39928"/>
<path transform="matrix(0,-1.00002,-1.00006,-0,68.935749,3.7884827)" d="M1.99252 0-1.19551 1.59401 0 0-1.19551-1.59401"/>
<use data-text="&#x2212;" xlink:href="#font_1_1" transform="matrix(9.963197,0,0,-9.962799,1.2171707,94.55958)"/>
<use data-text="6" xlink:href="#font_2_4" transform="matrix(9.963197,0,0,-9.962799,8.966637,94.55958)"/>
<use data-text="&#x2212;" xlink:href="#font_1_1" transform="matrix(9.963197,0,0,-9.962799,42.11962,94.55958)"/>
<use data-text="2" xlink:href="#font_2_3" transform="matrix(9.963197,0,0,-9.962799,49.869089,94.55958)"/>
<use data-text="2" xlink:href="#font_2_3" transform="matrix(9.963197,0,0,-9.962799,86.8963,94.55958)"/>
<use data-text="6" xlink:href="#font_2_4" transform="matrix(9.963197,0,0,-9.962799,127.79776,94.55958)"/>
<use data-text="1" xlink:href="#font_2_2" transform="matrix(9.963197,0,0,-9.962799,166.20906,94.55958)"/>
<use data-text="0" xlink:href="#font_2_1" transform="matrix(9.963197,0,0,-9.962799,171.19068,94.55958)"/>
<use data-text="&#x2212;" xlink:href="#font_1_1" transform="matrix(9.963197,0,0,-9.962799,49.178049,144.32057)"/>
<use data-text="5" xlink:href="#font_3_4" transform="matrix(6.9742186,0,0,-6.97394,58.12259,140.3985)"/>
<path transform="matrix(1.00006,0,0,-1.00002,-42.87047,-2.6743794)" stroke-width=".3985" stroke-linecap="butt" stroke-miterlimit="10" stroke-linejoin="miter" fill="none" stroke="#000000" d="M100.987-144.502H104.959"/>
<use data-text="4" xlink:href="#font_3_3" transform="matrix(6.9742186,0,0,-6.97394,58.12259,147.75662)"/>
<use data-text="&#x2212;" xlink:href="#font_1_1" transform="matrix(9.963197,0,0,-9.962799,49.178049,120.58609)"/>
<use data-text="3" xlink:href="#font_3_2" transform="matrix(6.9742186,0,0,-6.97394,58.12259,116.66402)"/>
<path transform="matrix(1.00006,0,0,-1.00002,-42.87047,-26.408856)" stroke-width=".3985" stroke-linecap="butt" stroke-miterlimit="10" stroke-linejoin="miter" fill="none" stroke="#000000" d="M100.987-144.502H104.959"/>
<use data-text="4" xlink:href="#font_3_3" transform="matrix(6.9742186,0,0,-6.97394,58.12259,124.02214)"/>
<use data-text="&#x2212;" xlink:href="#font_1_1" transform="matrix(9.963197,0,0,-9.962799,49.178049,96.85162)"/>
<use data-text="1" xlink:href="#font_3_1" transform="matrix(6.9742186,0,0,-6.97394,58.12259,92.92955)"/>
<path transform="matrix(1.00006,0,0,-1.00002,-42.87047,-50.143327)" stroke-width=".3985" stroke-linecap="butt" stroke-miterlimit="10" stroke-linejoin="miter" fill="none" stroke="#000000" d="M100.987-144.502H104.959"/>
<use data-text="4" xlink:href="#font_3_3" transform="matrix(6.9742186,0,0,-6.97394,58.12259,100.287677)"/>
<use data-text="1" xlink:href="#font_3_1" transform="matrix(6.9742186,0,0,-6.97394,58.123586,69.195079)"/>
<path transform="matrix(1.00006,0,0,-1.00002,-35.121007,-73.8778)" stroke-width=".3985" stroke-linecap="butt" stroke-miterlimit="10" stroke-linejoin="miter" fill="none" stroke="#000000" d="M93.239-144.502H97.21"/>
<use data-text="4" xlink:href="#font_3_3" transform="matrix(6.9742186,0,0,-6.97394,58.123586,76.5532)"/>
<use data-text="3" xlink:href="#font_3_2" transform="matrix(6.9742186,0,0,-6.97394,58.123586,45.460596)"/>
<path transform="matrix(1.00006,0,0,-1.00002,-35.121007,-97.61228)" stroke-width=".3985" stroke-linecap="butt" stroke-miterlimit="10" stroke-linejoin="miter" fill="none" stroke="#000000" d="M93.239-144.502H97.21"/>
<use data-text="4" xlink:href="#font_3_3" transform="matrix(6.9742186,0,0,-6.97394,58.123586,52.818719)"/>
<use data-text="5" xlink:href="#font_3_4" transform="matrix(6.9742186,0,0,-6.97394,58.123586,21.72612)"/>
<path transform="matrix(1.00006,0,0,-1.00002,-35.121007,-121.346759)" stroke-width=".3985" stroke-linecap="butt" stroke-miterlimit="10" stroke-linejoin="miter" fill="none" stroke="#000000" d="M93.239-144.502H97.21"/>
<use data-text="4" xlink:href="#font_3_3" transform="matrix(6.9742186,0,0,-6.97394,58.123586,29.084244)"/>
<path transform="matrix(1.00006,0,0,-1.00002,2.4702454,163.19095)" stroke-width=".99628" stroke-linecap="butt" stroke-miterlimit="10" stroke-linejoin="miter" fill="none" stroke="#0000ff" d="M.98143 134.7981 .97623 134.7835 1.95247 136.94805 2.9287 138.5507 3.90494 139.5766 4.88118 140.01094 5.85742 139.85547 6.83366 139.1114 7.80989 137.77935 8.78613 135.87824 9.76237 133.42652 10.7386 130.45026 11.71484 126.97261 12.69107 123.03514 13.66731 118.67519 14.64355 113.93547 15.6198 108.86351 16.59604 103.50969 17.57228 97.9298 18.54851 92.17607 19.52475 86.30722 20.50099 80.38556 21.47722 74.46509 22.45346 68.60634 23.42969 62.86801 24.40593 57.30772 25.38217 51.9806 26.35841 46.94305 27.33466 42.24072 28.3109 37.92172 29.28712 34.03171 30.26337 30.60745 31.23961 27.68283 32.21584 25.28629 33.19206 23.4469 34.1683 22.17712 35.14455 21.49179 36.12079 21.39687 37.09703 21.89647 38.07327 22.9829 39.0495 24.64369 40.02574 26.86519 41.00198 29.62666 41.97824 32.89722 42.95447 36.64423 43.9307 40.8321 44.90694 45.41754 45.88318 50.35483 46.85942 55.59589 47.83566 61.08795 48.8119 66.77644 49.78813 72.60255 50.76437 78.51057 51.74062 84.43758 52.71686 90.33015 53.69308 96.12541 54.66931 101.7676 55.64555 107.19855 56.6218 112.36427 57.59804 117.21672 58.57428 121.70009 59.5505 125.77583 60.52675 129.4018 61.50299 132.54065 62.47923 135.16088 63.45547 137.2388 64.4317 138.75185 65.40793 139.6834 66.38417 140.02635 67.36041 139.77657 68.33665 138.93993 69.31288 137.51589 70.28912 135.52696 71.26537 132.99158 72.24161 129.93225 73.21785 126.38045 74.19408 122.37415 75.1703 117.9513 76.14655 113.1558 77.12279 108.03577 78.09903 102.6422 79.07527 97.03146 80.0515 91.25638 81.02774 85.37506 82.00398 79.44925 82.98024 73.53412 83.95648 67.69197 84.93271 61.97798 85.90894 56.45033 86.88518 51.16652 87.86142 46.17702 88.83766 41.53287 89.81389 37.27794 90.79013 33.45912 91.76637 30.11201 92.74261 27.26927 93.71886 24.95876 94.6951 23.20778 95.67131 22.03055 96.64755 21.43661H97.6238L98.6001 22.02997 99.57625 23.20657 100.55254 24.95757 101.52869 27.26749 102.50499 30.11024 103.4813 33.45676 104.45744 37.27556 105.43373 41.52989 106.40987 46.17346 107.38617 51.16237 108.36247 56.44795 109.33862 61.97325 110.31491 67.68843 111.29106 73.52997 112.26736 79.44627 113.24367 85.3721 114.21982 91.25162 115.1961 97.02731 116.17227 102.63983 117.14854 108.03221 118.12485 113.15285 119.101 117.9489 120.0773 122.37175 121.05345 126.37808 122.02974 129.93048 123.00606 132.98979 123.9822 135.52579 124.9585 137.51529 125.93465 138.93935 126.91095 139.77597 127.88724 140.02635 128.86339 139.68459 129.83969 138.75243 130.81584 137.23999 131.79213 135.16266 132.76844 132.543 133.74459 129.40416 134.72089 125.77759 135.69704 121.70364 136.67333 117.21909 137.64962 112.36784 138.62577 107.2021 139.60207 101.77176 140.57822 96.13016 141.5545 90.33371 142.5308 84.44173 143.50696 78.51472 144.48326 72.60612 145.45941 66.77998 146.43572 61.09152 147.412 55.59946 148.38814 50.35838 149.36444 45.4205 150.34059 40.83449 151.3169 36.6472 152.29319 32.89899 153.26934 29.62962 154.24564 26.86696 155.22179 24.64546 156.19809 22.98405 157.17438 21.89647 158.15053 21.39687 159.12682 21.49179 160.10297 22.17651 161.07927 23.44511 162.05558 25.28569 163.03171 27.68105 164.00803 30.6051 164.98416 34.02873 165.96048 37.91934 166.93677 42.23895 167.9129 46.94008 168.88922 51.97765 169.86534 57.30417 170.84166 62.86565 171.81795 68.60278 172.7941 74.46213 173.7704 80.38081 174.74655 86.30307 175.72286 92.17369 176.69915 97.92505 177.67531 103.50613 178.6516 108.85994 179.62775 113.93251 180.60404 118.67221 181.58032 123.03334 182.55649 126.97025 183.53278 130.44788 184.50893 133.42473 185.48523 135.87647 186.46152 137.77875 187.43769 139.11023 188.41397 139.8543 189.39012 140.01094 190.36643 139.57778 191.34272 138.5519 192.31887 136.94924 193.29515 134.78469 193.2897 134.79982"/>
<path transform="matrix(-.33971036,.94051888,.9405564,.3396968,3.451734,28.390137)" d="M2.8892 0-1.73352 2.31136 0 0-1.73352-2.31136" fill="#0000ff"/>
<path transform="matrix(.33977039,.94050887,.9405464,-.3397568,195.77153,28.388413)" d="M2.8892 0-1.73352 2.31136 0 0-1.73352-2.31136" fill="#0000ff"/>
<use data-text="y" xlink:href="#font_4_2" transform="matrix(9.963197,0,0,-9.962799,67.772159,154.04077)" fill="#0000ff"/>
<use data-text="=" xlink:href="#font_2_5" transform="matrix(9.963197,0,0,-9.962799,75.78164,154.04077)" fill="#0000ff"/>
<use data-text="5" xlink:href="#font_3_4" transform="matrix(6.9742186,0,0,-6.97394,87.49434,150.1187)" fill="#0000ff"/>
<path transform="matrix(1.00006,0,0,-1.00002,-24.27636,7.0458166)" stroke-width=".3985" stroke-linecap="butt" stroke-miterlimit="10" stroke-linejoin="miter" fill="none" stroke="#0000ff" d="M111.764-144.502H115.735"/>
<use data-text="4" xlink:href="#font_3_3" transform="matrix(6.9742186,0,0,-6.97394,87.49434,157.47682)" fill="#0000ff"/>
<use data-text="c" xlink:href="#font_2_6" transform="matrix(9.963197,0,0,-9.962799,94.321758,154.04076)" fill="#0000ff"/>
<use data-text="o" xlink:href="#font_2_7" transform="matrix(9.963197,0,0,-9.962799,98.745418,154.04076)" fill="#0000ff"/>
<use data-text="s" xlink:href="#font_2_8" transform="matrix(9.963197,0,0,-9.962799,103.72701,154.04076)" fill="#0000ff"/>
<use data-text="(" xlink:href="#font_5_1" transform="matrix(9.963197,0,0,-9.962799,109.32165,145.9706)" fill="#0000ff"/>
<use data-text="&#x03c0;" xlink:href="#font_6_1" transform="matrix(6.9742186,0,0,-6.97394,115.08399,150.11869)" fill="#0000ff"/>
<path transform="matrix(1.00006,0,0,-1.00002,-24.27636,7.0458166)" stroke-width=".3985" stroke-linecap="butt" stroke-miterlimit="10" stroke-linejoin="miter" fill="none" stroke="#0000ff" d="M139.352-144.502H144.261"/>
<use data-text="3" xlink:href="#font_3_2" transform="matrix(6.9742186,0,0,-6.97394,115.55302,157.47682)" fill="#0000ff"/>
<use data-text="x" xlink:href="#font_4_1" transform="matrix(9.963197,0,0,-9.962799,121.18937,154.04076)" fill="#0000ff"/>
<use data-text=")" xlink:href="#font_5_2" transform="matrix(9.963197,0,0,-9.962799,126.883708,145.9706)" fill="#0000ff"/>
<use data-text="x" xlink:href="#font_4_1" transform="matrix(9.963197,0,0,-9.962799,187.53934,78.97326)"/>
<use data-text="y" xlink:href="#font_4_2" transform="matrix(9.963197,0,0,-9.962799,72.455448,9.6058659)"/>
</svg>
