<svg xmlns="http://www.w3.org/2000/svg" xmlns:xlink="http://www.w3.org/1999/xlink" version="1.1" width="394" height="390" viewBox="0 0 394 390">
<defs>
<path id="font_1_49" d="M.6380005 .2558899H.6159973C.59199526 .09996033 .56799319 .0289917 .39898683 .0289917H.2630005C.21899414 .0289917 .21699524 .035995485 .21699524 .06896973V.3388672H.30799867C.4039917 .3388672 .4149933 .3078766 .4149933 .22190857H.43699647V.48477174H.4149933C.4149933 .39883424 .4039917 .3678589 .30799867 .3678589H.21699524V.6116791C.21699524 .6446686 .21899414 .6516571 .2630005 .6516571H.3959961C.54299929 .6516571 .57398989 .6016998 .58898928 .4577942H.61099246L.58499148 .68066409H.040985109V.6516571H.06098938C.1329956 .6516571 .13598633 .6416626 .13598633 .60469058V.07597351C.13598633 .038986207 .1329956 .0289917 .06098938 .0289917H.040985109V0H.59799197L.6380005 .2558899Z"/>
<path id="font_1_76" d="M.69200137 .6536102V.6826172C.66600039 .680603 .61299136 .680603 .58499148 .680603 .5569916 .680603 .5039978 .680603 .47799684 .6826172V.6536102C.57299807 .6536102 .57299807 .6066437 .57299807 .577652V.14093018L.22599793 .6686096C.21699524 .6816101 .21598816 .6826172 .19400025 .6826172H.040985109V.6536102C.083999637 .6536102 .10899353 .6536102 .13598633 .6466217V.10494995C.13598633 .07595825 .13598633 .0289917 .040985109 .0289917V0C.066986087 .0019989014 .11999512 .0019989014 .147995 .0019989014 .17599488 .0019989014 .22898865 .0019989014 .25498963 0V.0289917C.1599884 .0289917 .1599884 .07595825 .1599884 .10494995V.6306305C.16799927 .6226349 .16799927 .620636 .1769867 .6086426L.5669861 .01499939C.57699587 .0009918213 .5779877 0 .58499148 0 .59399417 0 .59599307 .0039978029 .5970001 .005996704V.577652C.5970001 .6066437 .5970001 .6536102 .69200137 .6536102Z"/>
<path id="font_1_113" d="M.98799136 .6536102V.6826172C.94499209 .680603 .94299319 .680603 .8989868 .680603 .8730011 .680603 .81900027 .680603 .79499819 .6826172V.6536102C.85598757 .65260317 .8739929 .62042239 .8739929 .6003723 .8739929 .59536746 .87098696 .5873718 .86898806 .58036807L.71699526 .10647583 .5549927 .609375C.55400088 .612381 .5519867 .62042239 .5519867 .6234436 .5519867 .6536102 .6049957 .6536102 .6289978 .6536102V.6826172C.6049957 .680603 .5309906 .680603 .5019989 .680603 .47299195 .680603 .4119873 .680603 .38598634 .6826172V.6536102C.43899537 .6536102 .45298768 .650589 .46398927 .63249209 .47099305 .6194153 .47799684 .58836367 .4909973 .55236819L.34799195 .10647583 .18798828 .6043701C.18299866 .61842349 .18299866 .62042239 .18299866 .6234436 .18299866 .6536102 .23399353 .6536102 .2599945 .6536102V.6826172C.23699951 .680603 .16099549 .680603 .1329956 .680603 .10398865 .680603 .042999269 .680603 .016998291 .6826172V.6536102C.070999149 .6536102 .08999634 .6536102 .101989749 .6154022L.2999878-.0025024415C.30499269-.017486573 .30899049-.021484375 .31799317-.021484375 .32598878-.021484375 .33099366-.018493653 .33599855-.0034942628L.5019989 .51538088 .6689911-.0034942628C.673996-.018493653 .67900088-.021484375 .68699648-.021484375 .69599917-.021484375 .69999697-.017486573 .7049866-.0025024415L.8929901 .58436587C.9089966 .63249209 .9379883 .65260317 .98799136 .6536102Z"/>
<path id="font_1_97" d="M.4889984 .18367005C.4889984 .24472046 .46598817 .28974916 .43899537 .32278443 .4019928 .36782838 .35699464 .37882997 .31799317 .38883973L.20799256 .41687013C.15699768 .42988587 .11199951 .47991944 .11199951 .54397585 .11199951 .6140442 .16799927 .6770935 .24598694 .6770935 .4099884 .6770935 .43199159 .5149536 .43798829 .47192384 .43998719 .4598999 .43998719 .4559021 .44999696 .4559021 .46099855 .4559021 .46099855 .46090699 .46099855 .4789276V.6810913C.46099855 .6990967 .46099855 .70410159 .45098878 .70410159 .44799806 .70410159 .44400025 .70410159 .43699647 .6911011L.4039917 .63005068C.35598756 .6920929 .2899933 .70410159 .24598694 .70410159 .1349945 .70410159 .053985597 .615036 .053985597 .5129547 .053985597 .4649048 .070999149 .42086793 .10798645 .38084413 .14299011 .34179688 .17799378 .3327942 .24899292 .31477357 .28399659 .30677796 .33898927 .29275514 .35299684 .28675843 .3999939 .2637329 .43099977 .20968628 .43099977 .15364075 .43099977 .078567508 .37799073 .007507324 .29499818 .007507324 .25 .007507324 .18798828 .01852417 .13899231 .061553956 .08099365 .113601688 .07699585 .18566895 .07598877 .21868897 .07499695 .22669983 .06498718 .22669983 .06498718 .22669983 .053985597 .22669983 .053985597 .22169495 .053985597 .20367432V.0015106201C.053985597-.016494751 .053985597-.021484375 .06399536-.021484375 .069992069-.021484375 .070999149-.019485474 .07798767-.0074920656L.11099243 .05255127C.14698792 .012512207 .20999146-.021484375 .29599-.021484375 .4079895-.021484375 .4889984 .07356262 .4889984 .18367005Z"/>
<path id="font_1_62" d="M.69200137 0V.0289917H.6719971C.59999087 .0289917 .5970001 .038986207 .5970001 .07595825V.6066437C.5970001 .6436157 .59999087 .6536102 .6719971 .6536102H.69200137V.6826172C.66799929 .680603 .58599856 .680603 .5569916 .680603 .5269928 .680603 .44499208 .680603 .42099 .6826172V.6536102H.44099427C.5130005 .6536102 .5159912 .6436157 .5159912 .6066437V.369812H.21699524V.6066437C.21699524 .6436157 .21998596 .6536102 .2919922 .6536102H.31199647V.6826172C.28799439 .680603 .20599365 .680603 .1769867 .680603 .14698792 .680603 .06498718 .680603 .040985109 .6826172V.6536102H.06098938C.1329956 .6536102 .13598633 .6436157 .13598633 .6066437V.07595825C.13598633 .038986207 .1329956 .0289917 .06098938 .0289917H.040985109V0C.06498718 .0019989014 .14698792 .0019989014 .17599488 .0019989014 .20599365 .0019989014 .28799439 .0019989014 .31199647 0V.0289917H.2919922C.21998596 .0289917 .21699524 .038986207 .21699524 .07595825V.3408203H.5159912V.07595825C.5159912 .038986207 .5130005 .0289917 .44099427 .0289917H.42099V0C.44499208 .0019989014 .5269928 .0019989014 .55599978 .0019989014 .58599856 .0019989014 .66799929 .0019989014 .69200137 0Z"/>
<path id="font_1_65" d="M.31698609 0V.0289917H.29499818C.21998596 .0289917 .21699524 .038986207 .21699524 .07595825V.6066437C.21699524 .6436157 .21998596 .6536102 .29499818 .6536102H.31698609V.6826172C.29299928 .680603 .20698548 .680603 .1769867 .680603 .14698792 .680603 .05999756 .680603 .035995485 .6826172V.6536102H.057998659C.1329956 .6536102 .13598633 .6436157 .13598633 .6066437V.07595825C.13598633 .038986207 .1329956 .0289917 .057998659 .0289917H.035995485V0C.05999756 .0019989014 .1459961 .0019989014 .17599488 .0019989014 .20599365 .0019989014 .29299928 .0019989014 .31698609 0Z"/>
<path id="font_1_69" d="M.71899417 0V.0289917C.6649933 .0289917 .647995 .033996583 .6159973 .081954959L.3909912 .4187622C.4059906 .43473817 .44499208 .47172547 .46099855 .4867096 .598999 .6236267 .6269989 .6516113 .70599368 .6536102V.6826172C.6769867 .680603 .6649933 .680603 .6199951 .680603 .59399417 .680603 .5349884 .680603 .5119934 .6826172V.6536102C.5329895 .6526184 .5509949 .6436157 .5509949 .6216278 .5509949 .6066437 .5439911 .597641 .5219879 .57666018L.21699524 .2818451V.6046448C.21699524 .6536102 .22799683 .6536102 .31199647 .6536102V.6826172C.28799439 .680603 .20599365 .680603 .1769867 .680603 .14698792 .680603 .06498718 .680603 .040985109 .6826172V.6536102C.125 .6536102 .13598633 .6536102 .13598633 .6046448V.07795715C.13598633 .0289917 .125 .0289917 .040985109 .0289917V0C.06498718 .0019989014 .14698792 .0019989014 .17599488 .0019989014 .20599365 .0019989014 .28799439 .0019989014 .31199647 0V.0289917C.22799683 .0289917 .21699524 .0289917 .21699524 .07795715V.25186158L.33599855 .36679078 .5209961 .08995056C.5249939 .08395386 .5289917 .07696533 .5309906 .07196045 .5329895 .06796265 .5339966 .06297302 .5339966 .05697632 .5339966 .0289917 .49798585 .0289917 .48199464 .0289917V0C.5059967 .0019989014 .57899478 .0019989014 .60798647 .0019989014 .6339874 .0019989014 .6839905 .0019989014 .71899417 0Z"/>
<path id="font_1_27" d="M.70199587 0V.0289917C.6369934 .0289917 .61898806 .0289917 .6049957 .06993103L.3869934 .6958618C.3829956 .7078552 .3809967 .7138672 .36698915 .7138672 .35299684 .7138672 .35099793 .7108612 .34599305 .69485476L.13699341 .09689331C.12298584 .05595398 .09498596 .02998352 .0309906 .0289917V0L.1269989 .0019989014C.15499878 .0019989014 .20298767 .0019989014 .22898865 0V.0289917C.18699646 .02998352 .1619873 .050964357 .1619873 .07891846 .1619873 .08491516 .1619873 .08691406 .16699219 .09989929L.21299744 .23271179H.46499635L.519989 .075927738C.5249939 .063949588 .5249939 .061950685 .5249939 .058944704 .5249939 .0289917 .47399903 .0289917 .44898988 .0289917V0C.47200013 .0019989014 .5509949 .0019989014 .57899478 .0019989014 .6069946 .0019989014 .67900088 .0019989014 .70199587 0M.45498658 .26171876H.22299195L.33898927 .5948181 .45498658 .26171876Z"/>
<path id="font_1_501" d="M.18399048 .4513092C.18399048 .47831727 .16499329 .50032046 .1349945 .50032046 .10798645 .50032046 .09498596 .48031617 .09498596 .48031617 .09399414 .48731996 .09298706 .49230958 .09298706 .50531008 .09298706 .5193176 .09298706 .60032656 .1619873 .66934207 .17098999 .6783447 .17098999 .6803436 .17098999 .6833496 .17098999 .6883545 .1659851 .6933594 .16099549 .6933594 .1519928 .6933594 .07299805 .619339 .07299805 .50531008 .07299805 .4433136 .09599304 .4033203 .13598633 .4033203 .16499329 .4033203 .18399048 .42530824 .18399048 .4513092Z"/>
<path id="font_1_172" d="M.70199587 0V.0289917C.6369934 .0289917 .61898806 .0289917 .6049957 .06993103L.3869934 .6958618C.3829956 .7078552 .3809967 .7138672 .36698915 .7138672 .35299684 .7138672 .35099793 .7108612 .34599305 .69485476L.13699341 .09689331C.12298584 .05595398 .09498596 .02998352 .0309906 .0289917V0L.1269989 .0019989014C.15499878 .0019989014 .20298767 .0019989014 .22898865 0V.0289917C.18699646 .02998352 .1619873 .050964357 .1619873 .07891846 .1619873 .08491516 .1619873 .08691406 .16699219 .09989929L.21299744 .23271179H.46499635L.519989 .075927738C.5249939 .063949588 .5249939 .061950685 .5249939 .058944704 .5249939 .0289917 .47399903 .0289917 .44898988 .0289917V0C.47200013 .0019989014 .5509949 .0019989014 .57899478 .0019989014 .6069946 .0019989014 .67900088 .0019989014 .70199587 0M.45498658 .26171876H.22299195L.33898927 .5948181 .45498658 .26171876M.54299929 .75390627V.78289797H.18998719V.75390627H.54299929Z"/>
<path id="font_1_108" d="M.69200137 .6536102V.6826172C.66600039 .680603 .6119995 .680603 .58399966 .680603 .5549927 .680603 .5009918 .680603 .47499085 .6826172V.6536102C.56999209 .6536102 .56999209 .6065979 .56999209 .57958987V.22953797C.56999209 .089523319 .47499085 .007507324 .3809967 .007507324 .32099916 .007507324 .21699524 .04751587 .21699524 .22253418V.6065979C.21699524 .64360049 .21998596 .6536102 .2919922 .6536102H.31199647V.6826172C.28799439 .680603 .20599365 .680603 .1769867 .680603 .14698792 .680603 .06498718 .680603 .040985109 .6826172V.6536102H.06098938C.1329956 .6536102 .13598633 .64360049 .13598633 .6065979V.22854615C.13598633 .08352661 .2519989-.021484375 .3789978-.021484375 .5179901-.021484375 .5970001 .11451721 .5970001 .21453858V.59259036C.5970001 .6536102 .673996 .6536102 .69200137 .6536102Z"/>
<path id="font_1_80" d="M.70700076 .33880616C.70700076 .54597476 .5549927 .70410159 .3809967 .70410159 .20298767 .70410159 .053985597 .54397585 .053985597 .33880616 .053985597 .13562012 .20498657-.021484375 .37998963-.021484375 .5589905-.021484375 .70700076 .13761902 .70700076 .33880616M.6139984 .35380555C.6139984 .09358215 .47799684 .0015106201 .3809967 .0015106201 .2789917 .0015106201 .14698792 .097595218 .14698792 .35380555 .14698792 .59902957 .28599549 .6820984 .37998963 .6820984 .47898866 .6820984 .6139984 .59602358 .6139984 .35380555Z"/>
<path id="font_1_74" d="M.85198977 0V.0289917H.83200076C.7599945 .0289917 .7569885 .038986207 .7569885 .07595825V.6066437C.7569885 .6436157 .7599945 .6536102 .83200076 .6536102H.85198977V.6826172H.69699099C.6749878 .6826172 .673996 .6816101 .66600039 .6626129L.44799806 .093948367 .22999573 .66360476C.22299195 .6826172 .22200012 .6826172 .19898987 .6826172H.04399109V.6536102H.06399536C.13598633 .6536102 .13899231 .6436157 .13899231 .6066437V.10295105C.13899231 .07595825 .13899231 .0289917 .04399109 .0289917V0C.069992069 .0019989014 .12298584 .0019989014 .15098572 .0019989014 .1789856 .0019989014 .23199463 .0019989014 .2579956 0V.0289917C.16299439 .0289917 .16299439 .07595825 .16299439 .10295105V.6486206H.1639862L.40499879 .018997193C.40899659 .0079956059 .4119873 0 .42199708 0 .43099977 0 .43299867 .004989624 .43899537 .019989014L.6819916 .6536102H.68299868V.07595825C.68299868 .038986207 .6799927 .0289917 .60798647 .0289917H.58799746V0C.61099246 .0019989014 .69099429 .0019989014 .7200012 .0019989014 .7489929 .0019989014 .82899478 .0019989014 .85198977 0Z"/>
<path id="font_2_69" d="M.68499758 0V.025985718C.6369934 .025985718 .621994 .0320282 .59199526 .078125L.36898805 .41911317 .5419922 .5921173C.5779877 .627121 .6159973 .65512087 .6719971 .65711978V.6831207L.6069946 .6811218C.5799866 .6811218 .5329895 .6811218 .5069885 .6831207V.65711978C.5329895 .65512087 .5369873 .6371155 .5369873 .6301117 .5369873 .62312319 .5329895 .6121216 .5289917 .6061249L.19699097 .27311708V.6121216C.19699097 .65711978 .20799256 .65711978 .2769928 .65711978V.6831207C.24798584 .6811218 .19499207 .6811218 .1639862 .6811218 .1329956 .6811218 .07998657 .6811218 .050994874 .6831207V.65711978C.11999512 .65711978 .1309967 .65711978 .1309967 .6121216V.071121219C.1309967 .025985718 .11999512 .025985718 .050994874 .025985718V0C.07998657 .0019989014 .1329956 .0019989014 .1639862 .0019989014 .19499207 .0019989014 .24798584 .0019989014 .2769928 0V.025985718C.20799256 .025985718 .19699097 .025985718 .19699097 .071121219V.24812317L.32499696 .37512208 .5139923 .085113529C.519989 .07511902 .5269928 .06211853 .5269928 .052124025 .5269928 .025985718 .49899293 .025985718 .48599244 .025985718V0C.5179901 .0019989014 .56399539 .0019989014 .5970001 .0019989014 .62098696 .0019989014 .6619873 .0019989014 .68499758 0Z"/>
<path id="font_2_81" d="M.43099977 .21427918C.43099977 .34233094 .33799745 .4423828 .22898865 .4423828 .11999512 .4423828 .026992798 .34233094 .026992798 .21427918 .026992798 .08821106 .11999512-.0078125 .22898865-.0078125 .33799745-.0078125 .43099977 .08821106 .43099977 .21427918M.36698915 .22227478C.36698915 .18325806 .36499024 .12322998 .33799745 .07521057 .30999757 .029190064 .2669983 .010177612 .22898865 .010177612 .18199158 .010177612 .14199829 .03819275 .11898804 .07720947 .09399414 .12223816 .09098816 .17825318 .09098816 .22227478 .09098816 .2642975 .09298706 .3163147 .11898804 .36134339 .13899231 .3943634 .17799378 .42637635 .22898865 .42637635 .27398683 .42637635 .31199647 .4013672 .33599855 .36634828 .36698915 .31932069 .36698915 .2532959 .36698915 .22227478Z"/>
<path id="font_2_501" d="M.1659851 .45802308C.1659851 .4840088 .14698792 .49902345 .125 .49902345 .115997318 .49902345 .09899902 .49601747 .08999634 .480011 .08799744 .49101258 .08699036 .49501039 .08699036 .5120392 .08699036 .57514956 .11199951 .633255 .15098572 .6743164 .15499878 .67832949 .15699768 .68133547 .15699768 .68533328 .15699768 .6893463 .15299988 .6933594 .14898682 .6933594 .14199829 .6933594 .070999149 .62323 .070999149 .51304629 .070999149 .49101258 .07299805 .4170227 .125 .4170227 .14698792 .4170227 .1659851 .4320221 .1659851 .45802308Z"/>
<path id="font_2_72" d="M.22099304 0V.025985718C.15699768 .025985718 .15299988 .02999878 .15299988 .0690155V.69433596L.033996583 .6826172V.6566162C.09298706 .6566162 .101989749 .65060427 .101989749 .6026459V.06896973C.101989749 .0309906 .09799194 .025985718 .033996583 .025985718V0C.057998659 .0019989014 .101989749 .0019989014 .1269989 .0019989014 .15299988 .0019989014 .19699097 .0019989014 .22099304 0Z"/>
<path id="font_2_28" d="M.44898988 .08898926V.14498902H.43099977V.08799744C.43099977 .026992798 .4039917 .018997193 .3909912 .018997193 .34999085 .018997193 .34999085 .070999149 .34999085 .114990238V.25898744C.34999085 .32499696 .34999085 .3600006 .30799867 .39898683 .2709961 .43199159 .22799683 .44198609 .19400025 .44198609 .114990238 .44198609 .057998659 .37998963 .057998659 .31399537 .057998659 .2769928 .08799744 .2749939 .09399414 .2749939 .10699463 .2749939 .12998963 .2829895 .12998963 .31098939 .12998963 .33599855 .11099243 .34700013 .09399414 .34700013 .08999634 .34700013 .084991458 .34599305 .08198547 .34498597 .102996829 .4079895 .15699768 .42599488 .19198609 .42599488 .24198914 .42599488 .29699708 .38198854 .29699708 .2979889V.2539978C.23799134 .2519989 .16699219 .24398804 .11099243 .21398926 .04798889 .1789856 .02999878 .1289978 .02999878 .09098816 .02999878 .01399231 .11999512-.008010864 .17298889-.008010864 .22799683-.008010864 .2789917 .022994996 .30099488 .07998657 .30299378 .035995485 .33099366-.0040130617 .375-.0040130617 .3959961-.0040130617 .44898988 .009994507 .44898988 .08898926M.29699708 .13899231C.29699708 .051986696 .23498535 .0079956059 .17999268 .0079956059 .12998963 .0079956059 .09098816 .04499817 .09098816 .09098816 .09098816 .12098694 .10398865 .17399597 .1619873 .20599365 .20999146 .23298645 .2649994 .23699951 .29699708 .23899842V.13899231Z"/>
<path id="font_2_109" d="M.48298646 .00018310547V.026184082C.42399598 .026184082 .4149933 .032180787 .4149933 .080215457V.43847657L.2939911 .42747499V.401474C.35299684 .401474 .3619995 .39546205 .3619995 .34742738V.1652832C.3619995 .081222537 .31698609 .008178711 .24299622 .008178711 .16099549 .008178711 .1539917 .0572052 .1539917 .10923767V.43847657L.032989503 .42747499V.401474C.07299805 .401474 .099990848 .401474 .100997928 .36143495V.16929627C.100997928 .10223389 .100997928 .0592041 .1269989 .031188965 .13999939 .018173218 .16499329-.0078125 .23699951-.0078125 .32199098-.0078125 .35499574 .064208988 .36299134 .08522034H.3639984V-.0078125L.48298646 .00018310547Z"/>
<path id="font_2_62" d="M.6409912 0V.025985718C.57199099 .025985718 .5609894 .025985718 .5609894 .07096863V.6116333C.5609894 .6566162 .57199099 .6566162 .6409912 .6566162V.6826172C.6119995 .680603 .5589905 .680603 .5279999 .680603 .49699403 .680603 .44400025 .680603 .4149933 .6826172V.6566162C.48399354 .6566162 .49499513 .6566162 .49499513 .6116333V.3677826H.19699097V.6116333C.19699097 .6566162 .20799256 .6566162 .2769928 .6566162V.6826172C.24798584 .680603 .19499207 .680603 .1639862 .680603 .1329956 .680603 .07998657 .680603 .050994874 .6826172V.6566162C.11999512 .6566162 .1309967 .6566162 .1309967 .6116333V.07096863C.1309967 .025985718 .11999512 .025985718 .050994874 .025985718V0C.07998657 .0019989014 .1329956 .0019989014 .1639862 .0019989014 .19499207 .0019989014 .24798584 .0019989014 .2769928 0V.025985718C.20799256 .025985718 .19699097 .025985718 .19699097 .07096863V.34179688H.49499513V.07096863C.49499513 .025985718 .48399354 .025985718 .4149933 .025985718V0C.44400025 .0019989014 .49699403 .0019989014 .5279999 .0019989014 .5589905 .0019989014 .6119995 .0019989014 .6409912 0Z"/>
<path id="font_2_77" d="M.48298646 0V.025985718C.4189911 .025985718 .4149933 .02999878 .4149933 .06904602V.3043213C.4149933 .35539247 .40499879 .43847657 .2869873 .43847657 .20799256 .43847657 .16699219 .3774109 .1519928 .33737184H.15098572V.43847657L.032989503 .4273529V.4013672C.09199524 .4013672 .100997928 .39535523 .100997928 .3473053V.06903076C.100997928 .0309906 .09700012 .025985718 .032989503 .025985718V0C.056991579 .0019989014 .100997928 .0019989014 .1269989 .0019989014 .15299988 .0019989014 .19799805 .0019989014 .22200012 0V.025985718C.1579895 .025985718 .1539917 .02999878 .1539917 .06903076V.26123048C.1539917 .35339356 .20999146 .4224701 .27999879 .4224701 .35398866 .4224701 .3619995 .35638429 .3619995 .30833436V.06904602C.3619995 .03100586 .35798646 .025985718 .2939911 .025985718V0C.31799317 .0019989014 .3619995 .0019989014 .3880005 .0019989014 .4139862 .0019989014 .45899964 .0019989014 .48298646 0Z"/>
<path id="font_2_74" d="M.79599 0V.025985718C.72698977 .025985718 .71598818 .025985718 .71598818 .07096863V.6116333C.71598818 .6566162 .72698977 .6566162 .79599 .6566162V.6826172H.6689911C.647995 .6826172 .6469879 .6816101 .6409912 .6666107L.4249878 .080963138 .20899964 .6666107C.20298767 .6816101 .20199585 .6826172 .18099976 .6826172H.052993776V.6566162C.12199402 .6566162 .1329956 .6566162 .1329956 .6116333V.09794617C.1329956 .07296753 .1329956 .025985718 .052993776 .025985718V0C.07598877 .0019989014 .117996219 .0019989014 .14299011 .0019989014 .16799927 .0019989014 .20999146 .0019989014 .23298645 0V.025985718C.15299988 .025985718 .15299988 .07296753 .15299988 .09794617V.65260317H.1539917L.3889923 .015991211C.3929901 .005996704 .394989 0 .40299989 0 .41099549 0 .41299439 .005996704 .4169922 .015991211L.6539917 .65760806H.6549988V.07096863C.6549988 .025985718 .6439972 .025985718 .57499697 .025985718V0C.60198977 .0019989014 .6559906 .0019989014 .68499758 .0019989014 .71398928 .0019989014 .7689972 .0019989014 .79599 0Z"/>
<path id="font_2_66" d="M.21398926 0V.025985718C.15499878 .025985718 .15299988 .03199768 .15299988 .06803894V.43847657L.037994386 .4273529V.4013672C.09399414 .4013672 .101989749 .39535523 .101989749 .3473053V.06903076C.101989749 .0309906 .09799194 .025985718 .033996583 .025985718V0C.057998659 .0019989014 .100997928 .0019989014 .12599182 .0019989014 .1499939 .0019989014 .19099427 .0019989014 .21398926 0M.16499329 .60446169C.16499329 .62846377 .1459961 .64546206 .125 .64546206 .100997928 .64546206 .083999637 .62646487 .083999637 .60446169 .083999637 .58047488 .102996829 .56347659 .12399292 .56347659 .147995 .56347659 .16499329 .58247378 .16499329 .60446169Z"/>
<path id="font_3_71" d="M.58200076 .2578125H.5569916C.54599 .15588379 .5319977 .0309906 .35598756 .0309906H.27398683C.22698975 .03060913 .22499085 .037612916 .22499085 .07060242V.6036072C.22499085 .63760378 .22499085 .6516113 .31999208 .6516113H.35299684V.6826172C.31698609 .6796112 .22599793 .6796112 .18499756 .6796112 .1459961 .6796112 .067993167 .6796112 .032989503 .6826172V.6516113H.056991579C.13398743 .6518097 .13598633 .6408081 .13598633 .6048126V.07795715C.13598633 .04197693 .13398743 .0309906 .056991579 .0309906H.032989503V0H.55400088L.58200076 .2578125Z"/>
<path id="font_3_172" d="M.71699526 0V.0309906H.69898989C.6389923 .0309906 .625 .037979127 .6139984 .07095337L.397995 .6958008C.3929901 .7088165 .3909912 .7158203 .375 .7158203 .35899354 .7158203 .35598756 .70980837 .35099793 .6958008L.14399719 .09791565C.12599182 .04698181 .085998538 .03199768 .03199768 .0309906V0L.13398743 .0029907227 .24899292 0V.0309906C.19898987 .0309906 .17399597 .05596924 .17399597 .0819397 .17399597 .08493042 .1749878 .09492493 .17599488 .09692383L.22200012 .2277832H.46899415L.5219879 .07495117C.522995 .07095337 .5249939 .064956668 .5249939 .060958864 .5249939 .0309906 .46899415 .0309906 .44198609 .0309906V0C.47799684 .0029907227 .5479889 .0029907227 .58599856 .0029907227L.71699526 0M.45799256 .25878907H.23298645L.34498597 .58380129 .45799256 .25878907M.55599978 .7561035V.7871094H.19499207V.7561035H.55599978Z"/>
<path id="font_3_501" d="M.19198609 .44699098C.19198609 .47299195 .1749878 .5 .13899231 .5 .11898804 .5 .10499573 .48999024 .09899902 .48399354 .09799194 .48199464 .09599304 .48098756 .09599304 .48098756 .09599304 .48098756 .09399414 .49499513 .09399414 .49899293 .09399414 .53105166 .100997928 .60317996 .1639862 .66529849 .17599488 .6773224 .17599488 .6793213 .17599488 .6823273 .17599488 .6893463 .17098999 .6933594 .1659851 .6933594 .15499878 .6933594 .07199097 .617218 .07199097 .49899293 .07199097 .43899537 .09599304 .3939972 .13899231 .3939972 .17399597 .3939972 .19198609 .42099 .19198609 .44699098Z"/>
<path id="font_3_66" d="M.24699402 0V.0309906C.18099976 .0309906 .1769867 .035995485 .1769867 .075042728V.4423828L.036987306 .43066407V.3996582C.101989749 .3996582 .11099243 .3936615 .11099243 .3447113V.07595825C.11099243 .0309906 .099990848 .0309906 .032989503 .0309906V0L.14299011 .0029907227C.17799378 .0029907227 .21299744 .0009918213 .24699402 0M.19198609 .603775C.19198609 .6307678 .16899109 .6567688 .13899231 .6567688 .10499573 .6567688 .084991458 .6287689 .084991458 .603775 .084991458 .57676699 .10798645 .55078127 .13798523 .55078127 .17199707 .55078127 .19198609 .5787811 .19198609 .603775Z"/>
<path id="font_3_77" d="M.5349884 0V.0309906C.48298646 .0309906 .45799256 .0309906 .45700074 .061019899V.25221253C.45700074 .3383026 .45700074 .36932374 .42599488 .405365 .4119873 .42237855 .3789978 .4423828 .32099916 .4423828 .24798584 .4423828 .20098877 .39935304 .17298889 .33729554V.4423828L.03199768 .43066407V.3996582C.101989749 .3996582 .10998535 .39266969 .10998535 .34370423V.07595825C.10998535 .0309906 .09899902 .0309906 .03199768 .0309906V0L.14498902 .0029907227 .25698854 0V.0309906C.18998719 .0309906 .1789856 .0309906 .1789856 .07595825V.25978089C.1789856 .36431886 .25 .42037965 .31399537 .42037965 .3769989 .42037965 .3880005 .36631776 .3880005 .30926515V.076034549C.3880005 .0309906 .3769989 .0309906 .30999757 .0309906V0L.4229889 .0029907227 .5349884 0Z"/>
<path id="font_3_28" d="M.48298646 .08912659V.14511109H.45799256V.08912659C.45799256 .03112793 .43299867 .025131226 .42199708 .025131226 .3889923 .025131226 .3849945 .070129398 .3849945 .07511902V.27508546C.3849945 .31707765 .3849945 .3560791 .34899903 .39312745 .30999757 .43223573 .2599945 .4482422 .21199036 .4482422 .12998963 .4482422 .06098938 .40115357 .06098938 .335083 .06098938 .30508424 .08099365 .28808595 .10699463 .28808595 .1349945 .28808595 .15299988 .30807496 .15299988 .33407594 .15299988 .3460846 .147995 .37908937 .101989749 .38008119 .1289978 .41519166 .17799378 .426239 .20999146 .426239 .25898744 .426239 .31599427 .38710023 .31599427 .29808045V.26107789C.2649994 .25808717 .19499207 .25508119 .13198853 .22509766 .056991579 .19110108 .03199768 .13911438 .03199768 .09512329 .03199768 .014251709 .1289978-.0107421879 .19198609-.0107421879 .2579956-.0107421879 .3039856 .029251099 .32299806 .07624817 .32699586 .036132814 .35398866-.005859375 .40098573-.005859375 .42199708-.005859375 .48298646 .008132935 .48298646 .08912659M.31599427 .14013672C.31599427 .04525757 .24398804 .011245728 .19898987 .011245728 .1499939 .011245728 .10899353 .04624939 .10899353 .09625244 .10899353 .15124512 .15098572 .23425293 .31599427 .24024964V.14013672Z"/>
<path id="font_3_76" d="M.71598818 .6516113V.6826172L.598999 .6796112 .48199464 .6826172V.6516113C.58499148 .6516113 .58499148 .6046295 .58499148 .577652V.15092469L.23199463 .6696167C.22299195 .6816101 .22200012 .6826172 .20298767 .6826172H.032989503V.6516113H.06199646C.07699585 .6516113 .09700012 .65060427 .11199951 .6496124 .1349945 .64660647 .13598633 .6456146 .13598633 .62661746V.10494995C.13598633 .07795715 .13598633 .0309906 .032989503 .0309906V0L.1499939 .0029907227 .2669983 0V.0309906C.1639862 .0309906 .1639862 .07795715 .1639862 .10494995V.62461856C.16899109 .6196289 .16999817 .6186218 .17399597 .6126251L.58200076 .0129852299C.59098818 .0009918213 .59199526 0 .598999 0 .61299136 0 .61299136 .0069885256 .61299136 .025985718V.577652C.61299136 .6046295 .61299136 .6516113 .71598818 .6516113Z"/>
<path id="font_3_81" d="M.47099305 .21424866C.47099305 .34223939 .37098695 .4482422 .25 .4482422 .125 .4482422 .027999878 .3392334 .027999878 .21424866 .027999878 .085250858 .13198853-.0107421879 .24899292-.0107421879 .36999513-.0107421879 .47099305 .087249759 .47099305 .21424866M.3880005 .22224427C.3880005 .18624878 .3880005 .13224793 .3659973 .08824158 .34399415 .04324341 .2999878 .014251709 .25 .014251709 .20698548 .014251709 .16299439 .035247804 .13598633 .08125305 .11099243 .12524414 .11099243 .18624878 .11099243 .22224427 .11099243 .26124574 .11099243 .31523133 .1349945 .35923768 .1619873 .40522767 .20899964 .426239 .24899292 .426239 .29299928 .426239 .33599855 .40423585 .3619995 .36123658 .3880005 .3182373 .3880005 .26023866 .3880005 .22224427Z"/>
<path id="font_3_74" d="M.8789978 0V.0309906H.8549957C.7779999 .0309906 .776001 .041992189 .776001 .07795715V.6046295C.776001 .64060977 .7779999 .6516113 .8549957 .6516113H.8789978V.6826172H.70999148C.6839905 .6826172 .6839905 .6816101 .6769867 .66360476L.45799256 .10095215 .24099732 .660614C.23199463 .6826172 .22898865 .6826172 .20599365 .6826172H.036987306V.6516113H.06098938C.13798523 .6516113 .13999939 .64060977 .13999939 .6046295V.10494995C.13999939 .07795715 .13999939 .0309906 .036987306 .0309906V0L.1539917 .0029907227 .2709961 0V.0309906C.16799927 .0309906 .16799927 .07795715 .16799927 .10494995V.6436157H.16899109L.4099884 .021987915C.4149933 .008987427 .41999818 0 .42999269 0 .44099427 0 .44400025 .0079956059 .44799806 .018997193L.69400027 .6516113H.69499209V.07795715C.69499209 .041992189 .69299319 .0309906 .6159973 .0309906H.59199526V0C.6289978 .0029907227 .69699099 .0029907227 .73599246 .0029907227 .7749939 .0029907227 .84199526 .0029907227 .8789978 0Z"/>
<path id="font_3_109" d="M.5349884 0V.0309906C.46499635 .0309906 .45700074 .037994386 .45700074 .08705139V.4423828L.30999757 .43066407V.3996582C.37998963 .3996582 .3880005 .39266969 .3880005 .34373475V.16601563C.3880005 .07910156 .33999635 .011245728 .2669983 .011245728 .18299866 .011245728 .1789856 .058135988 .1789856 .11009216V.4423828L.03199768 .43066407V.3996582C.10998535 .3996582 .10998535 .39666749 .10998535 .3078003V.15802002C.10998535 .080093387 .10998535-.0107421879 .2619934-.0107421879 .31799317-.0107421879 .3619995 .017242432 .3909912 .07910156V-.0107421879L.5349884 0Z"/>
<path id="font_3_72" d="M.25498963 0V.0309906C.18798828 .0309906 .1769867 .0309906 .1769867 .07601929V.69433596L.032989503 .6826172V.6516113C.102996829 .6516113 .11099243 .64460757 .11099243 .5956421V.07595825C.11099243 .0309906 .099990848 .0309906 .032989503 .0309906V0L.14399719 .0029907227 .25498963 0Z"/>
<path id="font_3_50" d="M.4149933 .11933899C.4149933 .12934876 .40699769 .13134766 .4019928 .13134766 .3929901 .13134766 .3909912 .12535095 .3889923 .11734009 .35398866 .014251709 .2639923 .014251709 .2539978 .014251709 .20399475 .014251709 .1639862 .044281007 .14099121 .08131409 .11099243 .12934876 .11099243 .19540406 .11099243 .23144531H.3899994C.4119873 .23144531 .4149933 .23144531 .4149933 .2524414 .4149933 .35131837 .36099244 .4482422 .23599243 .4482422 .11999512 .4482422 .027999878 .34532167 .027999878 .22042847 .027999878 .08631897 .1329956-.0107421879 .24798584-.0107421879 .36999513-.0107421879 .4149933 .10032654 .4149933 .11933899M.34899903 .2524414H.11199951C.117996219 .40126039 .20199585 .426239 .23599243 .426239 .33898927 .426239 .34899903 .2913971 .34899903 .2524414Z"/>
<path id="font_3_62" d="M.71598818 0V.0309906H.69200137C.61499026 .0309906 .61299136 .041992189 .61299136 .07797241V.6046448C.61299136 .640625 .61499026 .6516113 .69200137 .6516113H.71598818V.6826172C.68099978 .6796112 .6069946 .6796112 .56900027 .6796112 .5309906 .6796112 .45599366 .6796112 .42099 .6826172V.6516113H.44499208C.5219879 .6516113 .5239868 .640625 .5239868 .6046448V.37083436H.22499085V.6046448C.22499085 .640625 .22698975 .6516113 .3039856 .6516113H.32798768V.6826172C.29299928 .6796112 .21899414 .6796112 .18099976 .6796112 .14299011 .6796112 .067993167 .6796112 .032989503 .6826172V.6516113H.056991579C.13398743 .6516113 .13598633 .640625 .13598633 .6046448V.07797241C.13598633 .041992189 .13398743 .0309906 .056991579 .0309906H.032989503V0C.067993167 .0029907227 .14199829 .0029907227 .17999268 .0029907227 .21798706 .0029907227 .29299928 .0029907227 .32798768 0V.0309906H.3039856C.22698975 .0309906 .22499085 .041992189 .22499085 .07797241V.33984376H.5239868V.07797241C.5239868 .041992189 .5219879 .0309906 .44499208 .0309906H.42099V0C.45599366 .0029907227 .5299988 .0029907227 .56799319 .0029907227 .60598757 .0029907227 .68099978 .0029907227 .71598818 0Z"/>
<path id="font_3_70" d="M.5109863 0V.0309906C.47399903 .0309906 .45199586 .0309906 .4139862 .0839386L.2869873 .26278688C.28599549 .26478578 .2809906 .2707672 .2809906 .2737732 .2809906 .277771 .35198976 .33770753 .3619995 .34570313 .4249878 .39666749 .46699525 .39865113 .48799134 .3996582V.43066407C.45899964 .42765809 .44599916 .42765809 .41799928 .42765809 .38198854 .42765809 .31999208 .42965699 .30599977 .43066407V.3996582C.32499696 .39865113 .33499146 .3876648 .33499146 .37467958 .33499146 .3547058 .32099916 .3427124 .31298829 .33570863L.17199707 .21382141V.69433596L.027999878 .6826172V.6516113C.09799194 .6516113 .10598755 .64460757 .10598755 .5956421V.07595825C.10598755 .0309906 .09498596 .0309906 .027999878 .0309906V0L.13699341 .0029907227 .24699402 0V.0309906C.17999268 .0309906 .16899109 .0309906 .16899109 .07595825V.17889405L.23298645 .23387146C.30999757 .12792969 .35198976 .07196045 .35198976 .053985597 .35198976 .034988405 .33499146 .0309906 .31599427 .0309906V0L.42399598 .0029907227C.45298768 .0029907227 .48199464 .0019989014 .5109863 0Z"/>
<path id="font_3_49" d="M.6519928 .2579193H.6269989C.60198977 .10397339 .57899478 .0309906 .40699769 .0309906H.27398683C.22698975 .0309906 .22499085 .037994386 .22499085 .07098389V.33789063H.31498719C.4119873 .33789063 .4229889 .30589295 .4229889 .220932H.44799806V.48606874H.4229889C.4229889 .39994813 .4119873 .36888124 .31498719 .36888124H.22499085V.6087799C.22499085 .6416931 .22698975 .64868167 .27398683 .64868167H.40299989C.55599978 .64868167 .58299258 .59381106 .598999 .45507813H.6239929L.59599307 .6796875H.032989503V.64868167H.056991579C.13398743 .64868167 .13598633 .6377106 .13598633 .6017914V.07797241C.13598633 .041992189 .13398743 .0309906 .056991579 .0309906H.032989503V0H.6100006L.6519928 .2579193Z"/>
<path id="font_3_35" d="M.5209961 .2163086C.5209961 .34335328 .4229889 .4423828 .30899049 .4423828 .23098755 .4423828 .18798828 .39537049 .17199707 .3773651V.69433596L.027999878 .68333438V.6523285C.09799194 .6523285 .10598755 .6453247 .10598755 .596344V.00024414063H.1309967L.16699219 .06227112C.18199158 .039260866 .22399903-.0107421879 .2979889-.0107421879 .4169922-.0107421879 .5209961 .08728027 .5209961 .2163086M.43798829 .21731568C.43798829 .18029785 .43598939 .120285037 .40699769 .07527161 .38598634 .044265748 .34799195 .011245728 .2939911 .011245728 .24899292 .011260986 .21299744 .03526306 .18899536 .072265628 .1749878 .09326172 .1749878 .09625244 .1749878 .11425781V.32034303C.1749878 .3393402 .1749878 .3403473 .18598938 .35635377 .22499085 .41236878 .27999879 .42037965 .3039856 .42037965 .34899903 .42037965 .3849945 .3943634 .40899659 .35635377 .43499757 .31533814 .43798829 .25831605 .43798829 .21730042V.21731568Z"/>
<path id="font_3_97" d="M.49899293 .18579102C.49899293 .2858429 .43299867 .36791993 .34899903 .38793946L.22099304 .4189453C.15899658 .43388368 .11999512 .48773194 .11999512 .5458069 .11999512 .61595156 .17399597 .677063 .2519989 .677063 .4189911 .677063 .44099427 .5127411 .44699098 .46777345 .44799806 .461792 .44799806 .45581056 .45899964 .45581056 .47200013 .45581056 .47200013 .46080018 .47200013 .47973634V.68107607C.47200013 .69807437 .47200013 .7050781 .46099855 .7050781 .45399476 .7050781 .45298768 .70407107 .44599916 .69207766L.41099549 .63497927C.3809967 .66404727 .33999635 .7050781 .25099183 .7050781 .13999939 .7050781 .055999757 .61694338 .055999757 .5107422 .055999757 .42790223 .10899353 .35490418 .18699646 .32788087 .19799805 .32388307 .24899292 .3118744 .31900025 .29486085 .34599305 .28785707 .37599183 .280838 .4039917 .24382019 .4249878 .2177887 .43499757 .18478394 .43499757 .1517334 .43499757 .0806427 .3849945 .008529663 .30099488 .008529663 .27198792 .008529663 .19599915 .013534546 .14299011 .06260681 .084991458 .11668396 .08198547 .18078614 .08099365 .21679688 .07998657 .22679138 .07199097 .22679138 .068984989 .22679138 .055999757 .22679138 .055999757 .2197876 .055999757 .20178223V.0015258789C.055999757-.015472412 .055999757-.022460938 .066986087-.022460938 .07398987-.022460938 .07499695-.020462037 .08198547-.009475708 .08198547-.009475708 .084991458-.0054626467 .117996219 .047592164 .14898682 .013534546 .21299744-.022460938 .3019867-.022460938 .4189911-.022460938 .49899293 .07562256 .49899293 .18579102Z"/>
<path id="font_3_113" d="M1.0089874 .6516113V.6826172C.97898867 .680603 .94799807 .6796112 .91799929 .6796112L.798996 .6826172V.6516113C.8659973 .65060427 .8860016 .6174164 .8860016 .5983734 .8860016 .59236147 .8829956 .58436587 .8809967 .57836917L.73098757 .116363529 .57099917 .606369C.56999209 .6103668 .56799319 .6164093 .56799319 .62142947 .56799319 .6516113 .6259918 .6516113 .6519928 .6516113V.6826172C.6159973 .6796112 .5479889 .6796112 .5099945 .6796112L.3880005 .6826172V.6516113C.44499208 .6516113 .46598817 .6516113 .47799684 .61595156L.5 .5459595 .36099244 .11695862 .19999695 .60894778C.19898987 .61195376 .19799805 .618927 .19799805 .62190249 .19799805 .6516113 .2559967 .6516113 .28199769 .6516113V.6826172C.24598694 .6796112 .17799378 .6796112 .13999939 .6796112L.017990113 .6826172V.6516113C.09298706 .6513672 .09700012 .6463623 .10899353 .609375L.30899049-.003479004C.31199647-.012466431 .31498719-.022460938 .32798768-.022460938 .34199525-.022460938 .34399415-.015472412 .34799195-.0024719239L.5130005 .50538638 .67900088-.003479004C.6819916-.012466431 .68499758-.022460938 .69799807-.022460938 .71199038-.022460938 .71398928-.015472412 .71798709-.0024719239L.9089966 .58496096C.9269867 .6417084 .9700012 .6516113 1.0089874 .6516113Z"/>
</defs>
<path transform="matrix(1.00002,0,0,-1.00005,199.4557,194.53012)" stroke-width=".3985" stroke-linecap="round" stroke-dasharray="2.98883,2.98883" stroke-miterlimit="10" stroke-linejoin="miter" fill="none" stroke="#000000" d="M-178.2928 0H-144.22962"/>
<path transform="matrix(-1.00002,-0,0,1.00005,21.159333,194.53012)" d="M1.99252 0-1.19551 1.59401 0 0-1.19551-1.59401"/>
<path transform="matrix(1.00002,0,0,-1.00005,199.4557,194.53012)" stroke-width=".3985" stroke-linecap="round" stroke-dasharray="2.98883,2.98883" stroke-miterlimit="10" stroke-linejoin="miter" fill="none" stroke="#000000" d="M-54.08577 0H90.14374"/>
<path transform="matrix(1.00002,0,0,-1.00005,199.4557,194.53012)" stroke-width=".3985" stroke-linecap="round" stroke-dasharray="2.98883,2.98883" stroke-miterlimit="10" stroke-linejoin="miter" fill="none" stroke="#000000" d="M144.22962 0H178.2928"/>
<path transform="matrix(1.00002,0,0,-1.00005,377.75209,194.53012)" d="M1.99252 0-1.19551 1.59401 0 0-1.19551-1.59401"/>
<path transform="matrix(1.00002,0,0,-1.00005,199.4557,194.53012)" stroke-width=".3985" stroke-linecap="round" stroke-dasharray="2.98883,2.98883" stroke-miterlimit="10" stroke-linejoin="miter" fill="none" stroke="#000000" d="M0-178.2928V-144.22962"/>
<path transform="matrix(0,1.00005,1.00002,0,199.4557,372.83186)" d="M1.99252 0-1.19551 1.59401 0 0-1.19551-1.59401"/>
<path transform="matrix(1.00002,0,0,-1.00005,199.4557,194.53012)" stroke-width=".3985" stroke-linecap="round" stroke-dasharray="2.98883,2.98883" stroke-miterlimit="10" stroke-linejoin="miter" fill="none" stroke="#000000" d="M0-97.65381V94.6507"/>
<path transform="matrix(1.00002,0,0,-1.00005,199.4557,194.53012)" stroke-width=".3985" stroke-linecap="round" stroke-dasharray="2.98883,2.98883" stroke-miterlimit="10" stroke-linejoin="miter" fill="none" stroke="#000000" d="M0 144.22962V178.2928"/>
<path transform="matrix(0,-1.00005,-1.00002,-0,199.4557,16.228409)" d="M1.99252 0-1.19551 1.59401 0 0-1.19551-1.59401"/>
<use data-text="E" xlink:href="#font_1_49" transform="matrix(14.346487,0,0,-14.346916,383.26438,199.41536)"/>
<use data-text="N" xlink:href="#font_1_76" transform="matrix(14.346487,0,0,-14.346916,194.1906,10.715942)"/>
<use data-text="W" xlink:href="#font_1_113" transform="matrix(14.346487,0,0,-14.346916,1.2137451,199.27936)"/>
<use data-text="S" xlink:href="#font_1_97" transform="matrix(14.346487,0,0,-14.346916,195.55362,388.44483)"/>
<path transform="matrix(1.00002,0,0,-1.00005,199.4557,194.53012)" stroke-width=".79701" stroke-linecap="round" stroke-miterlimit="10" stroke-linejoin="miter" fill="none" stroke="#000000" d="M150.23816 0C150.23816 82.97531 82.97531 150.23816 0 150.23816-82.97531 150.23816-150.23816 82.97531-150.23816 0-150.23816-82.97531-82.97531-150.23816 0-150.23816 82.97531-150.23816 150.23816-82.97531 150.23816 0ZM0 0"/>
<path transform="matrix(1.00002,0,0,-1.00005,199.4557,194.53012)" stroke-width=".79701" stroke-linecap="round" stroke-miterlimit="10" stroke-linejoin="miter" fill="none" stroke="#000000" d="M165.26288 0C165.26288 91.27333 91.27333 165.26288 0 165.26288-91.27333 165.26288-165.26288 91.27333-165.26288 0-165.26288-91.27333-91.27333-165.26288 0-165.26288 91.27333-165.26288 165.26288-91.27333 165.26288 0ZM0 0"/>
<path transform="matrix(1.00002,0,0,-1.00005,199.4557,194.53012)" stroke-width=".3985" stroke-linecap="round" stroke-miterlimit="10" stroke-linejoin="miter" fill="none" stroke="#000000" d="M147.23271 0"/>
<use data-text="H" xlink:href="#font_1_62" transform="matrix(11.95544,0,0,-11.955797,299.3067,198.79834)"/>
<use data-text="I" xlink:href="#font_1_65" transform="matrix(11.95544,0,0,-11.955797,308.08198,198.79834)"/>
<use data-text="K" xlink:href="#font_1_69" transform="matrix(11.95544,0,0,-11.955797,312.30226,198.79834)"/>
<use data-text="I" xlink:href="#font_1_65" transform="matrix(11.95544,0,0,-11.955797,321.40034,198.79834)"/>
<use data-text="N" xlink:href="#font_1_76" transform="matrix(11.95544,0,0,-11.955797,325.6206,198.79834)"/>
<use data-text="A" xlink:href="#font_1_27" transform="matrix(11.95544,0,0,-11.955797,334.3959,198.79834)"/>
<path transform="matrix(1.00002,0,0,-1.00005,199.4557,194.53012)" stroke-width=".3985" stroke-linecap="round" stroke-miterlimit="10" stroke-linejoin="miter" fill="none" stroke="#000000" d="M0 147.23271"/>
<use data-text="&#x2018;" xlink:href="#font_1_501" transform="matrix(0,-11.955797,-11.95544,-0,204.01079,89.164829)"/>
<use data-text="&#x0100;" xlink:href="#font_1_172" transform="matrix(0,-11.955797,-11.95544,-0,204.01079,85.91287)"/>
<use data-text="K" xlink:href="#font_1_69" transform="matrix(0,-11.955797,-11.95544,-0,204.01079,77.13733)"/>
<use data-text="A" xlink:href="#font_1_27" transform="matrix(0,-11.955797,-11.95544,-0,204.01079,68.03897)"/>
<use data-text="U" xlink:href="#font_1_108" transform="matrix(0,-11.955797,-11.95544,-0,204.01079,59.57425)"/>
<path transform="matrix(1.00002,0,0,-1.00005,199.4557,194.53012)" stroke-width=".3985" stroke-linecap="round" stroke-miterlimit="10" stroke-linejoin="miter" fill="none" stroke="#000000" d="M-147.23271 0"/>
<use data-text="K" xlink:href="#font_1_69" transform="matrix(11.95544,0,0,-11.955797,55.739824,198.67333)"/>
<use data-text="O" xlink:href="#font_1_80" transform="matrix(11.95544,0,0,-11.955797,64.837909,198.67333)"/>
<use data-text="M" xlink:href="#font_1_74" transform="matrix(11.95544,0,0,-11.955797,73.94795,198.67333)"/>
<use data-text="O" xlink:href="#font_1_80" transform="matrix(11.95544,0,0,-11.955797,84.67198,198.67333)"/>
<use data-text="H" xlink:href="#font_1_62" transform="matrix(11.95544,0,0,-11.955797,93.78203,198.67333)"/>
<use data-text="A" xlink:href="#font_1_27" transform="matrix(11.95544,0,0,-11.955797,102.5573,198.67333)"/>
<use data-text="N" xlink:href="#font_1_76" transform="matrix(11.95544,0,0,-11.955797,111.332599,198.67333)"/>
<use data-text="A" xlink:href="#font_1_27" transform="matrix(11.95544,0,0,-11.955797,120.107898,198.67333)"/>
<path transform="matrix(1.00002,0,0,-1.00005,199.4557,194.53012)" stroke-width=".3985" stroke-linecap="round" stroke-miterlimit="10" stroke-linejoin="miter" fill="none" stroke="#000000" d="M0-147.23271"/>
<use data-text="H" xlink:href="#font_1_62" transform="matrix(0,11.955797,11.95544,0,195.1876,302.0115)"/>
<use data-text="E" xlink:href="#font_1_49" transform="matrix(0,11.955797,11.95544,0,195.1876,310.78706)"/>
<use data-text="M" xlink:href="#font_1_74" transform="matrix(0,11.955797,11.95544,0,195.1876,318.7496)"/>
<use data-text="A" xlink:href="#font_1_27" transform="matrix(0,11.955797,11.95544,0,195.1876,329.47398)"/>
<path transform="matrix(1.00002,0,0,-1.00005,199.4557,194.53012)" stroke-width=".3985" stroke-linecap="round" stroke-miterlimit="10" stroke-linejoin="miter" fill="none" stroke="#000000" d="M53.11612 53.11612"/>
<use data-text="K" xlink:href="#font_2_69" transform="matrix(14.610746,14.611184,14.610746,-14.611184,225.05318,123.91362)"/>
<use data-text="o" xlink:href="#font_2_81" transform="matrix(14.610746,14.611184,14.610746,-14.611184,235.19304,134.05379)"/>
<use data-text="&#x2018;" xlink:href="#font_2_501" transform="matrix(14.610746,14.611184,14.610746,-14.611184,241.89939,140.76033)"/>
<use data-text="o" xlink:href="#font_2_81" transform="matrix(14.610746,14.611184,14.610746,-14.611184,245.55207,144.4131)"/>
<use data-text="l" xlink:href="#font_2_72" transform="matrix(14.610746,14.611184,14.610746,-14.611184,252.2584,151.11965)"/>
<use data-text="a" xlink:href="#font_2_28" transform="matrix(14.610746,14.611184,14.610746,-14.611184,255.91109,154.77245)"/>
<use data-text="u" xlink:href="#font_2_109" transform="matrix(14.610746,14.611184,14.610746,-14.611184,262.61744,161.47899)"/>
<path transform="matrix(1.00002,0,0,-1.00005,199.4557,194.53012)" stroke-width=".3985" stroke-linecap="round" stroke-miterlimit="10" stroke-linejoin="miter" fill="none" stroke="#000000" d="M-53.11612 53.11612"/>
<use data-text="H" xlink:href="#font_2_62" transform="matrix(14.610746,-14.611184,-14.610746,-14.611184,128.84232,168.93187)"/>
<use data-text="o" xlink:href="#font_2_81" transform="matrix(14.610746,-14.611184,-14.610746,-14.611184,138.96759,158.80632)"/>
<use data-text="&#x2018;" xlink:href="#font_2_501" transform="matrix(14.610746,-14.611184,-14.610746,-14.611184,145.67392,152.09978)"/>
<use data-text="o" xlink:href="#font_2_81" transform="matrix(14.610746,-14.611184,-14.610746,-14.611184,149.3266,148.44698)"/>
<use data-text="l" xlink:href="#font_2_72" transform="matrix(14.610746,-14.611184,-14.610746,-14.611184,156.03296,141.74044)"/>
<use data-text="u" xlink:href="#font_2_109" transform="matrix(14.610746,-14.611184,-14.610746,-14.611184,159.68561,138.08765)"/>
<use data-text="a" xlink:href="#font_2_28" transform="matrix(14.610746,-14.611184,-14.610746,-14.611184,167.1517,130.62134)"/>
<path transform="matrix(1.00002,0,0,-1.00005,199.4557,194.53012)" stroke-width=".3985" stroke-linecap="round" stroke-miterlimit="10" stroke-linejoin="miter" fill="none" stroke="#000000" d="M-53.11612-53.11612"/>
<use data-text="K" xlink:href="#font_2_69" transform="matrix(14.610746,14.611184,14.610746,-14.611184,125.9052,237.07729)"/>
<use data-text="o" xlink:href="#font_2_81" transform="matrix(14.610746,14.611184,14.610746,-14.611184,136.04506,247.21746)"/>
<use data-text="n" xlink:href="#font_2_77" transform="matrix(14.610746,14.611184,14.610746,-14.611184,142.7514,253.924)"/>
<use data-text="a" xlink:href="#font_2_28" transform="matrix(14.610746,14.611184,14.610746,-14.611184,150.2175,261.39033)"/>
<path transform="matrix(1.00002,0,0,-1.00005,199.4557,194.53012)" stroke-width=".3985" stroke-linecap="round" stroke-miterlimit="10" stroke-linejoin="miter" fill="none" stroke="#000000" d="M53.11612-53.11612"/>
<use data-text="M" xlink:href="#font_2_74" transform="matrix(14.610746,-14.611184,-14.610746,-14.611184,233.92942,276.31724)"/>
<use data-text="a" xlink:href="#font_2_28" transform="matrix(14.610746,-14.611184,-14.610746,-14.611184,246.34857,263.8977)"/>
<use data-text="l" xlink:href="#font_2_72" transform="matrix(14.610746,-14.611184,-14.610746,-14.611184,253.0549,257.19117)"/>
<use data-text="a" xlink:href="#font_2_28" transform="matrix(14.610746,-14.611184,-14.610746,-14.611184,256.70759,253.53838)"/>
<use data-text="n" xlink:href="#font_2_77" transform="matrix(14.610746,-14.611184,-14.610746,-14.611184,263.41395,246.83185)"/>
<use data-text="a" xlink:href="#font_2_28" transform="matrix(14.610746,-14.611184,-14.610746,-14.611184,270.88,239.36553)"/>
<use data-text="i" xlink:href="#font_2_66" transform="matrix(14.610746,-14.611184,-14.610746,-14.611184,277.58638,232.65898)"/>
<path transform="matrix(1.00002,0,0,-1.00005,199.4557,194.53012)" stroke-width=".3985" stroke-linecap="round" stroke-miterlimit="10" stroke-linejoin="miter" fill="none" stroke="#929292" d="M164.45822 16.19612 149.50684 14.72432"/>
<path transform="matrix(1.00002,0,0,-1.00005,199.4557,194.53012)" stroke-width=".3985" stroke-linecap="round" stroke-miterlimit="10" stroke-linejoin="miter" fill="none" stroke="#929292" d="M158.1402 47.9695 143.76424 43.60927"/>
<path transform="matrix(1.00002,0,0,-1.00005,199.4557,194.53012)" stroke-width=".3985" stroke-linecap="round" stroke-miterlimit="10" stroke-linejoin="miter" fill="none" stroke="#929292" d="M145.74031 77.89977 132.49227 70.81842"/>
<path transform="matrix(1.00002,0,0,-1.00005,199.4557,194.53012)" stroke-width=".3985" stroke-linecap="round" stroke-miterlimit="10" stroke-linejoin="miter" fill="none" stroke="#929292" d="M127.74231 104.83376 116.12871 95.30405"/>
<path transform="matrix(1.00002,0,0,-1.00005,199.4557,194.53012)" stroke-width=".3985" stroke-linecap="round" stroke-miterlimit="10" stroke-linejoin="miter" fill="none" stroke="#929292" d="M104.83376 127.74231 95.30405 116.12871"/>
<path transform="matrix(1.00002,0,0,-1.00005,199.4557,194.53012)" stroke-width=".3985" stroke-linecap="round" stroke-miterlimit="10" stroke-linejoin="miter" fill="none" stroke="#929292" d="M77.89977 145.74031 70.81842 132.49227"/>
<path transform="matrix(1.00002,0,0,-1.00005,199.4557,194.53012)" stroke-width=".3985" stroke-linecap="round" stroke-miterlimit="10" stroke-linejoin="miter" fill="none" stroke="#929292" d="M47.9695 158.1402 43.60927 143.76424"/>
<path transform="matrix(1.00002,0,0,-1.00005,199.4557,194.53012)" stroke-width=".3985" stroke-linecap="round" stroke-miterlimit="10" stroke-linejoin="miter" fill="none" stroke="#929292" d="M16.19612 164.45822 14.72432 149.50684"/>
<path transform="matrix(1.00002,0,0,-1.00005,199.4557,194.53012)" stroke-width=".3985" stroke-linecap="round" stroke-miterlimit="10" stroke-linejoin="miter" fill="none" stroke="#929292" d="M-16.19612 164.45822-14.72432 149.50684"/>
<path transform="matrix(1.00002,0,0,-1.00005,199.4557,194.53012)" stroke-width=".3985" stroke-linecap="round" stroke-miterlimit="10" stroke-linejoin="miter" fill="none" stroke="#929292" d="M-47.9695 158.1402-43.60927 143.76424"/>
<path transform="matrix(1.00002,0,0,-1.00005,199.4557,194.53012)" stroke-width=".3985" stroke-linecap="round" stroke-miterlimit="10" stroke-linejoin="miter" fill="none" stroke="#929292" d="M-77.89977 145.74031-70.81842 132.49227"/>
<path transform="matrix(1.00002,0,0,-1.00005,199.4557,194.53012)" stroke-width=".3985" stroke-linecap="round" stroke-miterlimit="10" stroke-linejoin="miter" fill="none" stroke="#929292" d="M-104.83376 127.74231-95.30405 116.12871"/>
<path transform="matrix(1.00002,0,0,-1.00005,199.4557,194.53012)" stroke-width=".3985" stroke-linecap="round" stroke-miterlimit="10" stroke-linejoin="miter" fill="none" stroke="#929292" d="M-127.74231 104.83376-116.12871 95.30405"/>
<path transform="matrix(1.00002,0,0,-1.00005,199.4557,194.53012)" stroke-width=".3985" stroke-linecap="round" stroke-miterlimit="10" stroke-linejoin="miter" fill="none" stroke="#929292" d="M-145.74031 77.89977-132.49227 70.81842"/>
<path transform="matrix(1.00002,0,0,-1.00005,199.4557,194.53012)" stroke-width=".3985" stroke-linecap="round" stroke-miterlimit="10" stroke-linejoin="miter" fill="none" stroke="#929292" d="M-158.1402 47.9695-143.76424 43.60927"/>
<path transform="matrix(1.00002,0,0,-1.00005,199.4557,194.53012)" stroke-width=".3985" stroke-linecap="round" stroke-miterlimit="10" stroke-linejoin="miter" fill="none" stroke="#929292" d="M-164.45822 16.19612-149.50684 14.72432"/>
<path transform="matrix(1.00002,0,0,-1.00005,199.4557,194.53012)" stroke-width=".3985" stroke-linecap="round" stroke-miterlimit="10" stroke-linejoin="miter" fill="none" stroke="#929292" d="M-164.45822-16.19612-149.50684-14.72432"/>
<path transform="matrix(1.00002,0,0,-1.00005,199.4557,194.53012)" stroke-width=".3985" stroke-linecap="round" stroke-miterlimit="10" stroke-linejoin="miter" fill="none" stroke="#929292" d="M-158.1402-47.9695-143.76424-43.60927"/>
<path transform="matrix(1.00002,0,0,-1.00005,199.4557,194.53012)" stroke-width=".3985" stroke-linecap="round" stroke-miterlimit="10" stroke-linejoin="miter" fill="none" stroke="#929292" d="M-145.74031-77.89977-132.49227-70.81842"/>
<path transform="matrix(1.00002,0,0,-1.00005,199.4557,194.53012)" stroke-width=".3985" stroke-linecap="round" stroke-miterlimit="10" stroke-linejoin="miter" fill="none" stroke="#929292" d="M-127.74231-104.83376-116.12871-95.30405"/>
<path transform="matrix(1.00002,0,0,-1.00005,199.4557,194.53012)" stroke-width=".3985" stroke-linecap="round" stroke-miterlimit="10" stroke-linejoin="miter" fill="none" stroke="#929292" d="M-104.83376-127.74231-95.30405-116.12871"/>
<path transform="matrix(1.00002,0,0,-1.00005,199.4557,194.53012)" stroke-width=".3985" stroke-linecap="round" stroke-miterlimit="10" stroke-linejoin="miter" fill="none" stroke="#929292" d="M-77.89977-145.74031-70.81842-132.49227"/>
<path transform="matrix(1.00002,0,0,-1.00005,199.4557,194.53012)" stroke-width=".3985" stroke-linecap="round" stroke-miterlimit="10" stroke-linejoin="miter" fill="none" stroke="#929292" d="M-47.9695-158.1402-43.60927-143.76424"/>
<path transform="matrix(1.00002,0,0,-1.00005,199.4557,194.53012)" stroke-width=".3985" stroke-linecap="round" stroke-miterlimit="10" stroke-linejoin="miter" fill="none" stroke="#929292" d="M-16.19612-164.45822-14.72432-149.50684"/>
<path transform="matrix(1.00002,0,0,-1.00005,199.4557,194.53012)" stroke-width=".3985" stroke-linecap="round" stroke-miterlimit="10" stroke-linejoin="miter" fill="none" stroke="#929292" d="M16.19612-164.45822 14.72432-149.50684"/>
<path transform="matrix(1.00002,0,0,-1.00005,199.4557,194.53012)" stroke-width=".3985" stroke-linecap="round" stroke-miterlimit="10" stroke-linejoin="miter" fill="none" stroke="#929292" d="M47.9695-158.1402 43.60927-143.76424"/>
<path transform="matrix(1.00002,0,0,-1.00005,199.4557,194.53012)" stroke-width=".3985" stroke-linecap="round" stroke-miterlimit="10" stroke-linejoin="miter" fill="none" stroke="#929292" d="M77.89977-145.74031 70.81842-132.49227"/>
<path transform="matrix(1.00002,0,0,-1.00005,199.4557,194.53012)" stroke-width=".3985" stroke-linecap="round" stroke-miterlimit="10" stroke-linejoin="miter" fill="none" stroke="#929292" d="M104.83376-127.74231 95.30405-116.12871"/>
<path transform="matrix(1.00002,0,0,-1.00005,199.4557,194.53012)" stroke-width=".3985" stroke-linecap="round" stroke-miterlimit="10" stroke-linejoin="miter" fill="none" stroke="#929292" d="M127.74231-104.83376 116.12871-95.30405"/>
<path transform="matrix(1.00002,0,0,-1.00005,199.4557,194.53012)" stroke-width=".3985" stroke-linecap="round" stroke-miterlimit="10" stroke-linejoin="miter" fill="none" stroke="#929292" d="M145.74031-77.89977 132.49227-70.81842"/>
<path transform="matrix(1.00002,0,0,-1.00005,199.4557,194.53012)" stroke-width=".3985" stroke-linecap="round" stroke-miterlimit="10" stroke-linejoin="miter" fill="none" stroke="#929292" d="M158.1402-47.9695 143.76424-43.60927"/>
<path transform="matrix(1.00002,0,0,-1.00005,199.4557,194.53012)" stroke-width=".3985" stroke-linecap="round" stroke-miterlimit="10" stroke-linejoin="miter" fill="none" stroke="#929292" d="M164.45822-16.19612 149.50684-14.72432"/>
<path transform="matrix(1.00002,0,0,-1.00005,199.4557,194.53012)" stroke-width=".3985" stroke-linecap="round" stroke-miterlimit="10" stroke-linejoin="miter" fill="none" stroke="#000000" d="M144.39922 28.71976"/>
<use data-text="L" xlink:href="#font_3_71" transform="matrix(9.771115,-1.9435014,-1.9434432,-9.771407,327.7345,173.01293)"/>
<use data-text="&#x0100;" xlink:href="#font_3_172" transform="matrix(9.771115,-1.9435014,-1.9434432,-9.771407,333.84144,171.79824)"/>
<path transform="matrix(1.00002,0,0,-1.00005,199.4557,194.53012)" stroke-width=".3985" stroke-linecap="round" stroke-miterlimit="10" stroke-linejoin="miter" fill="none" stroke="#000000" d="M136.01802 56.33925"/>
<use data-text="&#x2018;" xlink:href="#font_3_501" transform="matrix(9.204032,-3.8124788,-3.8123649,-9.204308,311.96385,152.11135)"/>
<use data-text="&#x0100;" xlink:href="#font_3_172" transform="matrix(9.204032,-3.8124788,-3.8123649,-9.204308,314.52253,151.05149)"/>
<use data-text="i" xlink:href="#font_3_66" transform="matrix(9.204032,-3.8124788,-3.8123649,-9.204308,321.42558,148.19211)"/>
<use data-text="n" xlink:href="#font_3_77" transform="matrix(9.204032,-3.8124788,-3.8123649,-9.204308,323.98429,147.13227)"/>
<use data-text="a" xlink:href="#font_3_28" transform="matrix(9.204032,-3.8124788,-3.8123649,-9.204308,329.1017,145.01251)"/>
<path transform="matrix(1.00002,0,0,-1.00005,199.4557,194.53012)" stroke-width=".3985" stroke-linecap="round" stroke-miterlimit="10" stroke-linejoin="miter" fill="none" stroke="#000000" d="M122.41232 81.79237"/>
<use data-text="N" xlink:href="#font_3_76" transform="matrix(8.283469,-5.5348999,-5.534734,-8.283717,304.00483,128.6974)"/>
<use data-text="o" xlink:href="#font_3_81" transform="matrix(8.283469,-5.5348999,-5.534734,-8.283717,310.2174,124.54622)"/>
<use data-text="i" xlink:href="#font_3_66" transform="matrix(8.283469,-5.5348999,-5.534734,-8.283717,314.35917,121.77878)"/>
<use data-text="o" xlink:href="#font_3_81" transform="matrix(8.283469,-5.5348999,-5.534734,-8.283717,316.66197,120.24008)"/>
<path transform="matrix(1.00002,0,0,-1.00005,199.4557,194.53012)" stroke-width=".3985" stroke-linecap="round" stroke-miterlimit="10" stroke-linejoin="miter" fill="none" stroke="#000000" d="M104.1071 104.1071"/>
<use data-text="M" xlink:href="#font_3_74" transform="matrix(7.0446956,-7.044906,-7.0446956,-7.044906,285.82447,112.89406)"/>
<use data-text="a" xlink:href="#font_3_28" transform="matrix(7.0446956,-7.044906,-7.0446956,-7.044906,292.28446,106.43388)"/>
<use data-text="n" xlink:href="#font_3_77" transform="matrix(7.0446956,-7.044906,-7.0446956,-7.044906,295.8068,102.91142)"/>
<use data-text="u" xlink:href="#font_3_109" transform="matrix(7.0446956,-7.044906,-7.0446956,-7.044906,299.53349,99.18466)"/>
<path transform="matrix(1.00002,0,0,-1.00005,199.4557,194.53012)" stroke-width=".3985" stroke-linecap="round" stroke-miterlimit="10" stroke-linejoin="miter" fill="none" stroke="#000000" d="M81.79237 122.41232"/>
<use data-text="N" xlink:href="#font_3_76" transform="matrix(5.534734,-8.283717,-8.283469,-5.5348999,265.28453,102.96507)"/>
<use data-text="&#x0100;" xlink:href="#font_3_172" transform="matrix(5.534734,-8.283717,-8.283469,-5.5348999,269.43559,96.75227)"/>
<use data-text="l" xlink:href="#font_3_72" transform="matrix(5.534734,-8.283717,-8.283469,-5.5348999,273.58665,90.53949)"/>
<use data-text="a" xlink:href="#font_3_28" transform="matrix(5.534734,-8.283717,-8.283469,-5.5348999,275.12528,88.23662)"/>
<use data-text="n" xlink:href="#font_3_77" transform="matrix(5.534734,-8.283717,-8.283469,-5.5348999,277.89268,84.09477)"/>
<use data-text="i" xlink:href="#font_3_66" transform="matrix(5.534734,-8.283717,-8.283469,-5.5348999,280.96998,79.489)"/>
<path transform="matrix(1.00002,0,0,-1.00005,199.4557,194.53012)" stroke-width=".3985" stroke-linecap="round" stroke-miterlimit="10" stroke-linejoin="miter" fill="none" stroke="#000000" d="M56.33925 136.01802"/>
<use data-text="N" xlink:href="#font_3_76" transform="matrix(3.8123649,-9.204308,-9.204032,-3.8124788,245.05075,94.55075)"/>
<use data-text="&#x0100;" xlink:href="#font_3_172" transform="matrix(3.8123649,-9.204308,-9.204032,-3.8124788,247.91,87.64749)"/>
<use data-text="L" xlink:href="#font_3_71" transform="matrix(3.8123649,-9.204308,-9.204032,-3.8124788,252.03882,77.67923)"/>
<use data-text="e" xlink:href="#font_3_50" transform="matrix(3.8123649,-9.204308,-9.204032,-3.8124788,254.42154,71.926548)"/>
<use data-text="o" xlink:href="#font_3_81" transform="matrix(3.8123649,-9.204308,-9.204032,-3.8124788,256.11424,67.83984)"/>
<path transform="matrix(1.00002,0,0,-1.00005,199.4557,194.53012)" stroke-width=".3985" stroke-linecap="round" stroke-miterlimit="10" stroke-linejoin="miter" fill="none" stroke="#000000" d="M28.71976 144.39922"/>
<use data-text="H" xlink:href="#font_3_62" transform="matrix(1.9434432,-9.771407,-9.771115,-1.9435014,226.39922,76.499179)"/>
<use data-text="a" xlink:href="#font_3_28" transform="matrix(1.9434432,-9.771407,-9.771115,-1.9435014,227.8568,69.17062)"/>
<use data-text="k" xlink:href="#font_3_70" transform="matrix(1.9434432,-9.771407,-9.771115,-1.9435014,228.82852,64.28491)"/>
<use data-text="a" xlink:href="#font_3_28" transform="matrix(1.9434432,-9.771407,-9.771115,-1.9435014,229.85465,59.12561)"/>
<path transform="matrix(1.00002,0,0,-1.00005,199.4557,194.53012)" stroke-width=".3985" stroke-linecap="round" stroke-miterlimit="10" stroke-linejoin="miter" fill="none" stroke="#000000" d="M28.71976-144.39922"/>
<use data-text="H" xlink:href="#font_3_62" transform="matrix(1.9434432,9.771407,9.771115,-1.9435014,219.72524,313.8883)"/>
<use data-text="a" xlink:href="#font_3_28" transform="matrix(1.9434432,9.771407,9.771115,-1.9435014,221.18282,321.21687)"/>
<use data-text="k" xlink:href="#font_3_70" transform="matrix(1.9434432,9.771407,9.771115,-1.9435014,222.15454,326.10258)"/>
<use data-text="a" xlink:href="#font_3_28" transform="matrix(1.9434432,9.771407,9.771115,-1.9435014,223.18067,331.26188)"/>
<path transform="matrix(1.00002,0,0,-1.00005,199.4557,194.53012)" stroke-width=".3985" stroke-linecap="round" stroke-miterlimit="10" stroke-linejoin="miter" fill="none" stroke="#000000" d="M56.33925-136.01802"/>
<use data-text="N" xlink:href="#font_3_76" transform="matrix(3.8123649,9.204308,9.204032,-3.8124788,237.90814,297.46815)"/>
<use data-text="&#x0100;" xlink:href="#font_3_172" transform="matrix(3.8123649,9.204308,9.204032,-3.8124788,240.76741,304.3714)"/>
<use data-text="L" xlink:href="#font_3_71" transform="matrix(3.8123649,9.204308,9.204032,-3.8124788,244.89621,314.33967)"/>
<use data-text="e" xlink:href="#font_3_50" transform="matrix(3.8123649,9.204308,9.204032,-3.8124788,247.27893,320.09236)"/>
<use data-text="o" xlink:href="#font_3_81" transform="matrix(3.8123649,9.204308,9.204032,-3.8124788,248.97162,324.17906)"/>
<path transform="matrix(1.00002,0,0,-1.00005,199.4557,194.53012)" stroke-width=".3985" stroke-linecap="round" stroke-miterlimit="10" stroke-linejoin="miter" fill="none" stroke="#000000" d="M81.79237-122.41232"/>
<use data-text="N" xlink:href="#font_3_76" transform="matrix(5.534734,8.283717,8.283469,-5.5348999,258.85533,290.38996)"/>
<use data-text="&#x0100;" xlink:href="#font_3_172" transform="matrix(5.534734,8.283717,8.283469,-5.5348999,263.00639,296.60273)"/>
<use data-text="l" xlink:href="#font_3_72" transform="matrix(5.534734,8.283717,8.283469,-5.5348999,267.1574,302.81553)"/>
<use data-text="a" xlink:href="#font_3_28" transform="matrix(5.534734,8.283717,8.283469,-5.5348999,268.69609,305.1184)"/>
<use data-text="n" xlink:href="#font_3_77" transform="matrix(5.534734,8.283717,8.283469,-5.5348999,271.46345,309.26026)"/>
<use data-text="i" xlink:href="#font_3_66" transform="matrix(5.534734,8.283717,8.283469,-5.5348999,274.54078,313.86604)"/>
<path transform="matrix(1.00002,0,0,-1.00005,199.4557,194.53012)" stroke-width=".3985" stroke-linecap="round" stroke-miterlimit="10" stroke-linejoin="miter" fill="none" stroke="#000000" d="M104.1071-104.1071"/>
<use data-text="M" xlink:href="#font_3_74" transform="matrix(7.0446956,7.044906,7.0446956,-7.044906,281.0893,280.90049)"/>
<use data-text="a" xlink:href="#font_3_28" transform="matrix(7.0446956,7.044906,7.0446956,-7.044906,287.54933,287.36067)"/>
<use data-text="n" xlink:href="#font_3_77" transform="matrix(7.0446956,7.044906,7.0446956,-7.044906,291.07167,290.88313)"/>
<use data-text="u" xlink:href="#font_3_109" transform="matrix(7.0446956,7.044906,7.0446956,-7.044906,294.7983,294.60987)"/>
<path transform="matrix(1.00002,0,0,-1.00005,199.4557,194.53012)" stroke-width=".3985" stroke-linecap="round" stroke-miterlimit="10" stroke-linejoin="miter" fill="none" stroke="#000000" d="M122.41232-81.79237"/>
<use data-text="N" xlink:href="#font_3_76" transform="matrix(8.283469,5.5348999,5.534734,-8.283717,300.2852,265.9292)"/>
<use data-text="o" xlink:href="#font_3_81" transform="matrix(8.283469,5.5348999,5.534734,-8.283717,306.4978,270.08039)"/>
<use data-text="i" xlink:href="#font_3_66" transform="matrix(8.283469,5.5348999,5.534734,-8.283717,310.63954,272.84785)"/>
<use data-text="o" xlink:href="#font_3_81" transform="matrix(8.283469,5.5348999,5.534734,-8.283717,312.94233,274.38655)"/>
<path transform="matrix(1.00002,0,0,-1.00005,199.4557,194.53012)" stroke-width=".3985" stroke-linecap="round" stroke-miterlimit="10" stroke-linejoin="miter" fill="none" stroke="#000000" d="M136.01802-56.33925"/>
<use data-text="&#x2018;" xlink:href="#font_3_501" transform="matrix(9.204032,3.8124788,3.8123649,-9.204308,309.00529,244.09073)"/>
<use data-text="&#x0100;" xlink:href="#font_3_172" transform="matrix(9.204032,3.8124788,3.8123649,-9.204308,311.56398,245.1506)"/>
<use data-text="i" xlink:href="#font_3_66" transform="matrix(9.204032,3.8124788,3.8123649,-9.204308,318.467,248.00995)"/>
<use data-text="n" xlink:href="#font_3_77" transform="matrix(9.204032,3.8124788,3.8123649,-9.204308,321.02574,249.06983)"/>
<use data-text="a" xlink:href="#font_3_28" transform="matrix(9.204032,3.8124788,3.8123649,-9.204308,326.14317,251.18955)"/>
<path transform="matrix(1.00002,0,0,-1.00005,199.4557,194.53012)" stroke-width=".3985" stroke-linecap="round" stroke-miterlimit="10" stroke-linejoin="miter" fill="none" stroke="#000000" d="M144.39922-28.71976"/>
<use data-text="L" xlink:href="#font_3_71" transform="matrix(9.771115,1.9435014,1.9434432,-9.771407,326.20533,223.73755)"/>
<use data-text="&#x0100;" xlink:href="#font_3_172" transform="matrix(9.771115,1.9435014,1.9434432,-9.771407,332.31227,224.95224)"/>
<path transform="matrix(1.00002,0,0,-1.00005,199.4557,194.53012)" stroke-width=".3985" stroke-linecap="round" stroke-miterlimit="10" stroke-linejoin="miter" fill="none" stroke="#000000" d="M165.02672 32.8233"/>
<use data-text="E" xlink:href="#font_3_49" transform="matrix(9.771115,-1.9435014,-1.9434432,-9.771407,368.60133,164.35549)"/>
<use data-text="b" xlink:href="#font_3_35" transform="matrix(9.771115,-1.9435014,-1.9434432,-9.771407,375.25547,163.03195)"/>
<use data-text="N" xlink:href="#font_3_76" transform="matrix(9.771115,-1.9435014,-1.9434432,-9.771407,380.6882,161.95136)"/>
<path transform="matrix(1.00002,0,0,-1.00005,199.4557,194.53012)" stroke-width=".3985" stroke-linecap="round" stroke-miterlimit="10" stroke-linejoin="miter" fill="none" stroke="#000000" d="M155.45116 64.38809"/>
<use data-text="E" xlink:href="#font_3_49" transform="matrix(9.204032,-3.8124788,-3.8123649,-9.204308,359.46379,131.93534)"/>
<use data-text="N" xlink:href="#font_3_76" transform="matrix(9.204032,-3.8124788,-3.8123649,-9.204308,365.73173,129.33902)"/>
<use data-text="E" xlink:href="#font_3_49" transform="matrix(9.204032,-3.8124788,-3.8123649,-9.204308,372.63478,126.47967)"/>
<path transform="matrix(1.00002,0,0,-1.00005,199.4557,194.53012)" stroke-width=".3985" stroke-linecap="round" stroke-miterlimit="10" stroke-linejoin="miter" fill="none" stroke="#000000" d="M139.90145 93.47704"/>
<use data-text="N" xlink:href="#font_3_76" transform="matrix(8.283469,-5.5348999,-5.534734,-8.283717,344.17665,101.92207)"/>
<use data-text="E" xlink:href="#font_3_49" transform="matrix(8.283469,-5.5348999,-5.534734,-8.283717,350.38923,97.77089)"/>
<use data-text="b" xlink:href="#font_3_35" transform="matrix(8.283469,-5.5348999,-5.534734,-8.283717,356.03028,94.00162)"/>
<use data-text="E" xlink:href="#font_3_49" transform="matrix(8.283469,-5.5348999,-5.534734,-8.283717,360.63594,90.92421)"/>
<path transform="matrix(1.00002,0,0,-1.00005,199.4557,194.53012)" stroke-width=".3985" stroke-linecap="round" stroke-miterlimit="10" stroke-linejoin="miter" fill="none" stroke="#000000" d="M118.98051 118.98051"/>
<use data-text="N" xlink:href="#font_3_76" transform="matrix(7.0446956,-7.044906,-7.0446956,-7.044906,323.3332,75.46019)"/>
<use data-text="E" xlink:href="#font_3_49" transform="matrix(7.0446956,-7.044906,-7.0446956,-7.044906,328.61677,70.17651)"/>
<path transform="matrix(1.00002,0,0,-1.00005,199.4557,194.53012)" stroke-width=".3985" stroke-linecap="round" stroke-miterlimit="10" stroke-linejoin="miter" fill="none" stroke="#000000" d="M93.47704 139.90145"/>
<use data-text="N" xlink:href="#font_3_76" transform="matrix(5.534734,-8.283717,-8.283469,-5.5348999,297.71916,53.5856)"/>
<use data-text="E" xlink:href="#font_3_49" transform="matrix(5.534734,-8.283717,-8.283469,-5.5348999,301.8702,47.372804)"/>
<use data-text="b" xlink:href="#font_3_35" transform="matrix(5.534734,-8.283717,-8.283469,-5.5348999,305.63938,41.731584)"/>
<use data-text="N" xlink:href="#font_3_76" transform="matrix(5.534734,-8.283717,-8.283469,-5.5348999,308.7167,37.125825)"/>
<path transform="matrix(1.00002,0,0,-1.00005,199.4557,194.53012)" stroke-width=".3985" stroke-linecap="round" stroke-miterlimit="10" stroke-linejoin="miter" fill="none" stroke="#000000" d="M64.38809 155.45116"/>
<use data-text="N" xlink:href="#font_3_76" transform="matrix(3.8123649,-9.204308,-9.204032,-3.8124788,268.3352,37.12091)"/>
<use data-text="N" xlink:href="#font_3_76" transform="matrix(3.8123649,-9.204308,-9.204032,-3.8124788,271.19447,30.217652)"/>
<use data-text="E" xlink:href="#font_3_49" transform="matrix(3.8123649,-9.204308,-9.204032,-3.8124788,274.05378,23.314423)"/>
<path transform="matrix(1.00002,0,0,-1.00005,199.4557,194.53012)" stroke-width=".3985" stroke-linecap="round" stroke-miterlimit="10" stroke-linejoin="miter" fill="none" stroke="#000000" d="M32.8233 165.02672"/>
<use data-text="N" xlink:href="#font_3_76" transform="matrix(1.9434432,-9.771407,-9.771115,-1.9435014,236.3034,26.706696)"/>
<use data-text="b" xlink:href="#font_3_35" transform="matrix(1.9434432,-9.771407,-9.771115,-1.9435014,237.76099,19.378144)"/>
<use data-text="E" xlink:href="#font_3_49" transform="matrix(1.9434432,-9.771407,-9.771115,-1.9435014,238.84156,13.945221)"/>
<path transform="matrix(1.00002,0,0,-1.00005,199.4557,194.53012)" stroke-width=".3985" stroke-linecap="round" stroke-miterlimit="10" stroke-linejoin="miter" fill="none" stroke="#000000" d="M32.8233-165.02672"/>
<use data-text="S" xlink:href="#font_3_97" transform="matrix(1.9434432,9.771407,9.771115,-1.9435014,229.62947,363.6808)"/>
<use data-text="b" xlink:href="#font_3_35" transform="matrix(1.9434432,9.771407,9.771115,-1.9435014,230.71002,369.1137)"/>
<use data-text="E" xlink:href="#font_3_49" transform="matrix(1.9434432,9.771407,9.771115,-1.9435014,231.79058,374.5466)"/>
<path transform="matrix(1.00002,0,0,-1.00005,199.4557,194.53012)" stroke-width=".3985" stroke-linecap="round" stroke-miterlimit="10" stroke-linejoin="miter" fill="none" stroke="#000000" d="M64.38809-155.45116"/>
<use data-text="S" xlink:href="#font_3_97" transform="matrix(3.8123649,9.204308,9.204032,-3.8124788,262.04866,354.54298)"/>
<use data-text="S" xlink:href="#font_3_97" transform="matrix(3.8123649,9.204308,9.204032,-3.8124788,264.16835,359.66059)"/>
<use data-text="E" xlink:href="#font_3_49" transform="matrix(3.8123649,9.204308,9.204032,-3.8124788,266.288,364.7782)"/>
<path transform="matrix(1.00002,0,0,-1.00005,199.4557,194.53012)" stroke-width=".3985" stroke-linecap="round" stroke-miterlimit="10" stroke-linejoin="miter" fill="none" stroke="#000000" d="M93.47704-139.90145"/>
<use data-text="S" xlink:href="#font_3_97" transform="matrix(5.534734,8.283717,8.283469,-5.5348999,292.06098,339.2554)"/>
<use data-text="E" xlink:href="#font_3_49" transform="matrix(5.534734,8.283717,8.283469,-5.5348999,295.1383,343.86116)"/>
<use data-text="b" xlink:href="#font_3_35" transform="matrix(5.534734,8.283717,8.283469,-5.5348999,298.90748,349.50236)"/>
<use data-text="S" xlink:href="#font_3_97" transform="matrix(5.534734,8.283717,8.283469,-5.5348999,301.9848,354.10813)"/>
<path transform="matrix(1.00002,0,0,-1.00005,199.4557,194.53012)" stroke-width=".3985" stroke-linecap="round" stroke-miterlimit="10" stroke-linejoin="miter" fill="none" stroke="#000000" d="M118.98051-118.98051"/>
<use data-text="S" xlink:href="#font_3_97" transform="matrix(7.0446956,7.044906,7.0446956,-7.044906,318.5221,318.41136)"/>
<use data-text="E" xlink:href="#font_3_49" transform="matrix(7.0446956,7.044906,7.0446956,-7.044906,322.43894,322.3283)"/>
<path transform="matrix(1.00002,0,0,-1.00005,199.4557,194.53012)" stroke-width=".3985" stroke-linecap="round" stroke-miterlimit="10" stroke-linejoin="miter" fill="none" stroke="#000000" d="M139.90145-93.47704"/>
<use data-text="S" xlink:href="#font_3_97" transform="matrix(8.283469,5.5348999,5.534734,-8.283717,340.396,292.79655)"/>
<use data-text="E" xlink:href="#font_3_49" transform="matrix(8.283469,5.5348999,5.534734,-8.283717,345.00166,295.874)"/>
<use data-text="b" xlink:href="#font_3_35" transform="matrix(8.283469,5.5348999,5.534734,-8.283717,350.6427,299.64326)"/>
<use data-text="E" xlink:href="#font_3_49" transform="matrix(8.283469,5.5348999,5.534734,-8.283717,355.2483,302.72068)"/>
<path transform="matrix(1.00002,0,0,-1.00005,199.4557,194.53012)" stroke-width=".3985" stroke-linecap="round" stroke-miterlimit="10" stroke-linejoin="miter" fill="none" stroke="#000000" d="M155.45116-64.38809"/>
<use data-text="E" xlink:href="#font_3_49" transform="matrix(9.204032,3.8124788,3.8123649,-9.204308,356.86024,263.4117)"/>
<use data-text="S" xlink:href="#font_3_97" transform="matrix(9.204032,3.8124788,3.8123649,-9.204308,363.12818,266.00804)"/>
<use data-text="E" xlink:href="#font_3_49" transform="matrix(9.204032,3.8124788,3.8123649,-9.204308,368.24568,268.12776)"/>
<path transform="matrix(1.00002,0,0,-1.00005,199.4557,194.53012)" stroke-width=".3985" stroke-linecap="round" stroke-miterlimit="10" stroke-linejoin="miter" fill="none" stroke="#000000" d="M165.02672-32.8233"/>
<use data-text="E" xlink:href="#font_3_49" transform="matrix(9.771115,1.9435014,1.9434432,-9.771407,367.2741,231.37892)"/>
<use data-text="b" xlink:href="#font_3_35" transform="matrix(9.771115,1.9435014,1.9434432,-9.771407,373.92829,232.70246)"/>
<use data-text="S" xlink:href="#font_3_97" transform="matrix(9.771115,1.9435014,1.9434432,-9.771407,379.36103,233.78305)"/>
<path transform="matrix(1.00002,0,0,-1.00005,199.4557,194.53012)" stroke-width=".3985" stroke-linecap="round" stroke-miterlimit="10" stroke-linejoin="miter" fill="none" stroke="#000000" d="M-28.71976 144.39922"/>
<use data-text="H" xlink:href="#font_3_62" transform="matrix(1.9434432,9.771407,9.771115,-1.9435014,168.08522,54.23935)"/>
<use data-text="a" xlink:href="#font_3_28" transform="matrix(1.9434432,9.771407,9.771115,-1.9435014,169.5428,61.5679)"/>
<use data-text="k" xlink:href="#font_3_70" transform="matrix(1.9434432,9.771407,9.771115,-1.9435014,170.51453,66.45361)"/>
<use data-text="a" xlink:href="#font_3_28" transform="matrix(1.9434432,9.771407,9.771115,-1.9435014,171.54065,71.612918)"/>
<path transform="matrix(1.00002,0,0,-1.00005,199.4557,194.53012)" stroke-width=".3985" stroke-linecap="round" stroke-miterlimit="10" stroke-linejoin="miter" fill="none" stroke="#000000" d="M-56.33925 136.01802"/>
<use data-text="N" xlink:href="#font_3_76" transform="matrix(3.8123649,9.204308,9.204032,-3.8124788,140.89118,63.23642)"/>
<use data-text="&#x0100;" xlink:href="#font_3_172" transform="matrix(3.8123649,9.204308,9.204032,-3.8124788,143.75046,70.13968)"/>
<use data-text="L" xlink:href="#font_3_71" transform="matrix(3.8123649,9.204308,9.204032,-3.8124788,147.87924,80.10794)"/>
<use data-text="e" xlink:href="#font_3_50" transform="matrix(3.8123649,9.204308,9.204032,-3.8124788,150.26198,85.86063)"/>
<use data-text="o" xlink:href="#font_3_81" transform="matrix(3.8123649,9.204308,9.204032,-3.8124788,151.95467,89.94733)"/>
<path transform="matrix(1.00002,0,0,-1.00005,199.4557,194.53012)" stroke-width=".3985" stroke-linecap="round" stroke-miterlimit="10" stroke-linejoin="miter" fill="none" stroke="#000000" d="M-81.79237 122.41232"/>
<use data-text="N" xlink:href="#font_3_76" transform="matrix(5.534734,8.283717,8.283469,-5.5348999,116.40346,77.1853)"/>
<use data-text="&#x0100;" xlink:href="#font_3_172" transform="matrix(5.534734,8.283717,8.283469,-5.5348999,120.55452,83.39807)"/>
<use data-text="l" xlink:href="#font_3_72" transform="matrix(5.534734,8.283717,8.283469,-5.5348999,124.70557,89.61087)"/>
<use data-text="a" xlink:href="#font_3_28" transform="matrix(5.534734,8.283717,8.283469,-5.5348999,126.24422,91.91376)"/>
<use data-text="n" xlink:href="#font_3_77" transform="matrix(5.534734,8.283717,8.283469,-5.5348999,129.01158,96.0556)"/>
<use data-text="i" xlink:href="#font_3_66" transform="matrix(5.534734,8.283717,8.283469,-5.5348999,132.0889,100.66138)"/>
<path transform="matrix(1.00002,0,0,-1.00005,199.4557,194.53012)" stroke-width=".3985" stroke-linecap="round" stroke-miterlimit="10" stroke-linejoin="miter" fill="none" stroke="#000000" d="M-104.1071 104.1071"/>
<use data-text="M" xlink:href="#font_3_74" transform="matrix(7.0446956,7.044906,7.0446956,-7.044906,95.46859,95.2742)"/>
<use data-text="a" xlink:href="#font_3_28" transform="matrix(7.0446956,7.044906,7.0446956,-7.044906,101.92858,101.734378)"/>
<use data-text="n" xlink:href="#font_3_77" transform="matrix(7.0446956,7.044906,7.0446956,-7.044906,105.45092,105.256839)"/>
<use data-text="u" xlink:href="#font_3_109" transform="matrix(7.0446956,7.044906,7.0446956,-7.044906,109.17759,108.98358)"/>
<path transform="matrix(1.00002,0,0,-1.00005,199.4557,194.53012)" stroke-width=".3985" stroke-linecap="round" stroke-miterlimit="10" stroke-linejoin="miter" fill="none" stroke="#000000" d="M-122.41232 81.79237"/>
<use data-text="N" xlink:href="#font_3_76" transform="matrix(8.283469,5.5348999,5.534734,-8.283717,78.10774,117.47276)"/>
<use data-text="o" xlink:href="#font_3_81" transform="matrix(8.283469,5.5348999,5.534734,-8.283717,84.32034,121.62395)"/>
<use data-text="i" xlink:href="#font_3_66" transform="matrix(8.283469,5.5348999,5.534734,-8.283717,88.46208,124.3914)"/>
<use data-text="o" xlink:href="#font_3_81" transform="matrix(8.283469,5.5348999,5.534734,-8.283717,90.76488,125.9301)"/>
<path transform="matrix(1.00002,0,0,-1.00005,199.4557,194.53012)" stroke-width=".3985" stroke-linecap="round" stroke-miterlimit="10" stroke-linejoin="miter" fill="none" stroke="#000000" d="M-136.01802 56.33925"/>
<use data-text="&#x2018;" xlink:href="#font_3_501" transform="matrix(9.204032,3.8124788,3.8123649,-9.204308,65.2074,143.10669)"/>
<use data-text="&#x0100;" xlink:href="#font_3_172" transform="matrix(9.204032,3.8124788,3.8123649,-9.204308,67.76608,144.16657)"/>
<use data-text="i" xlink:href="#font_3_66" transform="matrix(9.204032,3.8124788,3.8123649,-9.204308,74.66913,147.02591)"/>
<use data-text="n" xlink:href="#font_3_77" transform="matrix(9.204032,3.8124788,3.8123649,-9.204308,77.227848,148.08579)"/>
<use data-text="a" xlink:href="#font_3_28" transform="matrix(9.204032,3.8124788,3.8123649,-9.204308,82.345279,150.2055)"/>
<path transform="matrix(1.00002,0,0,-1.00005,199.4557,194.53012)" stroke-width=".3985" stroke-linecap="round" stroke-miterlimit="10" stroke-linejoin="miter" fill="none" stroke="#000000" d="M-144.39922 28.71976"/>
<use data-text="L" xlink:href="#font_3_71" transform="matrix(9.771115,1.9435014,1.9434432,-9.771407,57.740938,170.34088)"/>
<use data-text="&#x0100;" xlink:href="#font_3_172" transform="matrix(9.771115,1.9435014,1.9434432,-9.771407,63.84787,171.55558)"/>
<path transform="matrix(1.00002,0,0,-1.00005,199.4557,194.53012)" stroke-width=".3985" stroke-linecap="round" stroke-miterlimit="10" stroke-linejoin="miter" fill="none" stroke="#000000" d="M-144.39922-28.71976"/>
<use data-text="L" xlink:href="#font_3_71" transform="matrix(9.771115,-1.9435014,-1.9434432,-9.771407,59.270128,226.40958)"/>
<use data-text="&#x0100;" xlink:href="#font_3_172" transform="matrix(9.771115,-1.9435014,-1.9434432,-9.771407,65.37706,225.1949)"/>
<path transform="matrix(1.00002,0,0,-1.00005,199.4557,194.53012)" stroke-width=".3985" stroke-linecap="round" stroke-miterlimit="10" stroke-linejoin="miter" fill="none" stroke="#000000" d="M-136.01802-56.33925"/>
<use data-text="&#x2018;" xlink:href="#font_3_501" transform="matrix(9.204032,-3.8124788,-3.8123649,-9.204308,68.165927,253.09639)"/>
<use data-text="&#x0100;" xlink:href="#font_3_172" transform="matrix(9.204032,-3.8124788,-3.8123649,-9.204308,70.72461,252.03653)"/>
<use data-text="i" xlink:href="#font_3_66" transform="matrix(9.204032,-3.8124788,-3.8123649,-9.204308,77.627658,249.17716)"/>
<use data-text="n" xlink:href="#font_3_77" transform="matrix(9.204032,-3.8124788,-3.8123649,-9.204308,80.18637,248.11731)"/>
<use data-text="a" xlink:href="#font_3_28" transform="matrix(9.204032,-3.8124788,-3.8123649,-9.204308,85.3038,245.99756)"/>
<path transform="matrix(1.00002,0,0,-1.00005,199.4557,194.53012)" stroke-width=".3985" stroke-linecap="round" stroke-miterlimit="10" stroke-linejoin="miter" fill="none" stroke="#000000" d="M-122.41232-81.79237"/>
<use data-text="N" xlink:href="#font_3_76" transform="matrix(8.283469,-5.5348999,-5.534734,-8.283717,81.82736,277.15486)"/>
<use data-text="o" xlink:href="#font_3_81" transform="matrix(8.283469,-5.5348999,-5.534734,-8.283717,88.03995,273.00367)"/>
<use data-text="i" xlink:href="#font_3_66" transform="matrix(8.283469,-5.5348999,-5.534734,-8.283717,92.1817,270.2362)"/>
<use data-text="o" xlink:href="#font_3_81" transform="matrix(8.283469,-5.5348999,-5.534734,-8.283717,94.4845,268.6975)"/>
<path transform="matrix(1.00002,0,0,-1.00005,199.4557,194.53012)" stroke-width=".3985" stroke-linecap="round" stroke-miterlimit="10" stroke-linejoin="miter" fill="none" stroke="#000000" d="M-104.1071-104.1071"/>
<use data-text="M" xlink:href="#font_3_74" transform="matrix(7.0446956,-7.044906,-7.0446956,-7.044906,100.20274,298.52037)"/>
<use data-text="a" xlink:href="#font_3_28" transform="matrix(7.0446956,-7.044906,-7.0446956,-7.044906,106.662738,292.06019)"/>
<use data-text="n" xlink:href="#font_3_77" transform="matrix(7.0446956,-7.044906,-7.0446956,-7.044906,110.185077,288.53773)"/>
<use data-text="u" xlink:href="#font_3_109" transform="matrix(7.0446956,-7.044906,-7.0446956,-7.044906,113.91176,284.81098)"/>
<path transform="matrix(1.00002,0,0,-1.00005,199.4557,194.53012)" stroke-width=".3985" stroke-linecap="round" stroke-miterlimit="10" stroke-linejoin="miter" fill="none" stroke="#000000" d="M-81.79237-122.41232"/>
<use data-text="N" xlink:href="#font_3_76" transform="matrix(5.534734,-8.283717,-8.283469,-5.5348999,122.83165,316.16975)"/>
<use data-text="&#x0100;" xlink:href="#font_3_172" transform="matrix(5.534734,-8.283717,-8.283469,-5.5348999,126.98271,309.9569)"/>
<use data-text="l" xlink:href="#font_3_72" transform="matrix(5.534734,-8.283717,-8.283469,-5.5348999,131.13378,303.74415)"/>
<use data-text="a" xlink:href="#font_3_28" transform="matrix(5.534734,-8.283717,-8.283469,-5.5348999,132.67241,301.44129)"/>
<use data-text="n" xlink:href="#font_3_77" transform="matrix(5.534734,-8.283717,-8.283469,-5.5348999,135.4398,297.29945)"/>
<use data-text="i" xlink:href="#font_3_66" transform="matrix(5.534734,-8.283717,-8.283469,-5.5348999,138.5171,292.69367)"/>
<path transform="matrix(1.00002,0,0,-1.00005,199.4557,194.53012)" stroke-width=".3985" stroke-linecap="round" stroke-miterlimit="10" stroke-linejoin="miter" fill="none" stroke="#000000" d="M-56.33925-136.01802"/>
<use data-text="N" xlink:href="#font_3_76" transform="matrix(3.8123649,-9.204308,-9.204032,-3.8124788,148.03382,328.78245)"/>
<use data-text="&#x0100;" xlink:href="#font_3_172" transform="matrix(3.8123649,-9.204308,-9.204032,-3.8124788,150.89307,321.87919)"/>
<use data-text="L" xlink:href="#font_3_71" transform="matrix(3.8123649,-9.204308,-9.204032,-3.8124788,155.02188,311.91093)"/>
<use data-text="e" xlink:href="#font_3_50" transform="matrix(3.8123649,-9.204308,-9.204032,-3.8124788,157.4046,306.15824)"/>
<use data-text="o" xlink:href="#font_3_81" transform="matrix(3.8123649,-9.204308,-9.204032,-3.8124788,159.09729,302.07154)"/>
<path transform="matrix(1.00002,0,0,-1.00005,199.4557,194.53012)" stroke-width=".3985" stroke-linecap="round" stroke-miterlimit="10" stroke-linejoin="miter" fill="none" stroke="#000000" d="M-28.71976-144.39922"/>
<use data-text="H" xlink:href="#font_3_62" transform="matrix(1.9434432,-9.771407,-9.771115,-1.9435014,174.75919,336.1481)"/>
<use data-text="a" xlink:href="#font_3_28" transform="matrix(1.9434432,-9.771407,-9.771115,-1.9435014,176.21677,328.81956)"/>
<use data-text="k" xlink:href="#font_3_70" transform="matrix(1.9434432,-9.771407,-9.771115,-1.9435014,177.18849,323.93385)"/>
<use data-text="a" xlink:href="#font_3_28" transform="matrix(1.9434432,-9.771407,-9.771115,-1.9435014,178.21462,318.77455)"/>
<path transform="matrix(1.00002,0,0,-1.00005,199.4557,194.53012)" stroke-width=".3985" stroke-linecap="round" stroke-miterlimit="10" stroke-linejoin="miter" fill="none" stroke="#000000" d="M-32.8233 165.02672"/>
<use data-text="N" xlink:href="#font_3_76" transform="matrix(1.9434432,9.771407,9.771115,-1.9435014,158.12599,3.8888245)"/>
<use data-text="b" xlink:href="#font_3_35" transform="matrix(1.9434432,9.771407,9.771115,-1.9435014,159.58358,11.217377)"/>
<use data-text="W" xlink:href="#font_3_113" transform="matrix(1.9434432,9.771407,9.771115,-1.9435014,160.66413,16.6503)"/>
<path transform="matrix(1.00002,0,0,-1.00005,199.4557,194.53012)" stroke-width=".3985" stroke-linecap="round" stroke-miterlimit="10" stroke-linejoin="miter" fill="none" stroke="#000000" d="M-64.38809 155.45116"/>
<use data-text="N" xlink:href="#font_3_76" transform="matrix(3.8123649,9.204308,9.204032,-3.8124788,121.03977,13.809967)"/>
<use data-text="N" xlink:href="#font_3_76" transform="matrix(3.8123649,9.204308,9.204032,-3.8124788,123.89905,20.713227)"/>
<use data-text="W" xlink:href="#font_3_113" transform="matrix(3.8123649,9.204308,9.204032,-3.8124788,126.75832,27.616456)"/>
<path transform="matrix(1.00002,0,0,-1.00005,199.4557,194.53012)" stroke-width=".3985" stroke-linecap="round" stroke-miterlimit="10" stroke-linejoin="miter" fill="none" stroke="#000000" d="M-93.47704 139.90145"/>
<use data-text="N" xlink:href="#font_3_76" transform="matrix(5.534734,8.283717,8.283469,-5.5348999,84.16882,28.006836)"/>
<use data-text="W" xlink:href="#font_3_113" transform="matrix(5.534734,8.283717,8.283469,-5.5348999,88.319889,34.219606)"/>
<use data-text="b" xlink:href="#font_3_35" transform="matrix(5.534734,8.283717,8.283469,-5.5348999,94.00958,42.73529)"/>
<use data-text="N" xlink:href="#font_3_76" transform="matrix(5.534734,8.283717,8.283469,-5.5348999,97.0869,47.341035)"/>
<path transform="matrix(1.00002,0,0,-1.00005,199.4557,194.53012)" stroke-width=".3985" stroke-linecap="round" stroke-miterlimit="10" stroke-linejoin="miter" fill="none" stroke="#000000" d="M-118.98051 118.98051"/>
<use data-text="N" xlink:href="#font_3_76" transform="matrix(7.0446956,7.044906,7.0446956,-7.044906,63.129945,62.856599)"/>
<use data-text="W" xlink:href="#font_3_113" transform="matrix(7.0446956,7.044906,7.0446956,-7.044906,68.41347,68.14026)"/>
<path transform="matrix(1.00002,0,0,-1.00005,199.4557,194.53012)" stroke-width=".3985" stroke-linecap="round" stroke-miterlimit="10" stroke-linejoin="miter" fill="none" stroke="#000000" d="M-139.90145 93.47704"/>
<use data-text="N" xlink:href="#font_3_76" transform="matrix(8.283469,5.5348999,5.534734,-8.283717,26.915719,83.26706)"/>
<use data-text="W" xlink:href="#font_3_113" transform="matrix(8.283469,5.5348999,5.534734,-8.283717,33.12832,87.41824)"/>
<use data-text="b" xlink:href="#font_3_35" transform="matrix(8.283469,5.5348999,5.534734,-8.283717,41.64373,93.10812)"/>
<use data-text="W" xlink:href="#font_3_113" transform="matrix(8.283469,5.5348999,5.534734,-8.283717,46.249338,96.18555)"/>
<path transform="matrix(1.00002,0,0,-1.00005,199.4557,194.53012)" stroke-width=".3985" stroke-linecap="round" stroke-miterlimit="10" stroke-linejoin="miter" fill="none" stroke="#000000" d="M-155.45116 64.38809"/>
<use data-text="W" xlink:href="#font_3_113" transform="matrix(9.204032,3.8124788,3.8123649,-9.204308,13.662369,121.13559)"/>
<use data-text="N" xlink:href="#font_3_76" transform="matrix(9.204032,3.8124788,3.8123649,-9.204308,23.1241,125.05481)"/>
<use data-text="W" xlink:href="#font_3_113" transform="matrix(9.204032,3.8124788,3.8123649,-9.204308,30.027115,127.914188)"/>
<path transform="matrix(1.00002,0,0,-1.00005,199.4557,194.53012)" stroke-width=".3985" stroke-linecap="round" stroke-miterlimit="10" stroke-linejoin="miter" fill="none" stroke="#000000" d="M-165.02672 32.8233"/>
<use data-text="W" xlink:href="#font_3_113" transform="matrix(9.771115,1.9435014,1.9434432,-9.771407,7.5139315,159.76535)"/>
<use data-text="b" xlink:href="#font_3_35" transform="matrix(9.771115,1.9435014,1.9434432,-9.771407,17.558609,161.76328)"/>
<use data-text="N" xlink:href="#font_3_76" transform="matrix(9.771115,1.9435014,1.9434432,-9.771407,22.991379,162.84387)"/>
<path transform="matrix(1.00002,0,0,-1.00005,199.4557,194.53012)" stroke-width=".3985" stroke-linecap="round" stroke-miterlimit="10" stroke-linejoin="miter" fill="none" stroke="#000000" d="M-165.02672-32.8233"/>
<use data-text="W" xlink:href="#font_3_113" transform="matrix(9.771115,-1.9435014,-1.9434432,-9.771407,10.727142,235.53804)"/>
<use data-text="b" xlink:href="#font_3_35" transform="matrix(9.771115,-1.9435014,-1.9434432,-9.771407,20.77182,233.54013)"/>
<use data-text="S" xlink:href="#font_3_97" transform="matrix(9.771115,-1.9435014,-1.9434432,-9.771407,26.20459,232.45954)"/>
<path transform="matrix(1.00002,0,0,-1.00005,199.4557,194.53012)" stroke-width=".3985" stroke-linecap="round" stroke-miterlimit="10" stroke-linejoin="miter" fill="none" stroke="#000000" d="M-155.45116-64.38809"/>
<use data-text="W" xlink:href="#font_3_113" transform="matrix(9.204032,-3.8124788,-3.8123649,-9.204308,18.009949,273.37043)"/>
<use data-text="S" xlink:href="#font_3_97" transform="matrix(9.204032,-3.8124788,-3.8123649,-9.204308,27.47168,269.45118)"/>
<use data-text="W" xlink:href="#font_3_113" transform="matrix(9.204032,-3.8124788,-3.8123649,-9.204308,32.58914,267.33146)"/>
<path transform="matrix(1.00002,0,0,-1.00005,199.4557,194.53012)" stroke-width=".3985" stroke-linecap="round" stroke-miterlimit="10" stroke-linejoin="miter" fill="none" stroke="#000000" d="M-139.90145-93.47704"/>
<use data-text="S" xlink:href="#font_3_97" transform="matrix(8.283469,-5.5348999,-5.534734,-8.283717,32.27237,310.33149)"/>
<use data-text="W" xlink:href="#font_3_113" transform="matrix(8.283469,-5.5348999,-5.534734,-8.283717,36.87799,307.25404)"/>
<use data-text="b" xlink:href="#font_3_35" transform="matrix(8.283469,-5.5348999,-5.534734,-8.283717,45.393404,301.56419)"/>
<use data-text="W" xlink:href="#font_3_113" transform="matrix(8.283469,-5.5348999,-5.534734,-8.283717,49.998994,298.48677)"/>
<path transform="matrix(1.00002,0,0,-1.00005,199.4557,194.53012)" stroke-width=".3985" stroke-linecap="round" stroke-miterlimit="10" stroke-linejoin="miter" fill="none" stroke="#000000" d="M-118.98051-118.98051"/>
<use data-text="S" xlink:href="#font_3_97" transform="matrix(7.0446956,-7.044906,-7.0446956,-7.044906,69.23111,329.5709)"/>
<use data-text="W" xlink:href="#font_3_113" transform="matrix(7.0446956,-7.044906,-7.0446956,-7.044906,73.14795,325.65394)"/>
<path transform="matrix(1.00002,0,0,-1.00005,199.4557,194.53012)" stroke-width=".3985" stroke-linecap="round" stroke-miterlimit="10" stroke-linejoin="miter" fill="none" stroke="#000000" d="M-93.47704-139.90145"/>
<use data-text="S" xlink:href="#font_3_97" transform="matrix(5.534734,-8.283717,-8.283469,-5.5348999,91.92804,361.589)"/>
<use data-text="W" xlink:href="#font_3_113" transform="matrix(5.534734,-8.283717,-8.283469,-5.5348999,95.00537,356.98323)"/>
<use data-text="b" xlink:href="#font_3_35" transform="matrix(5.534734,-8.283717,-8.283469,-5.5348999,100.69507,348.46757)"/>
<use data-text="S" xlink:href="#font_3_97" transform="matrix(5.534734,-8.283717,-8.283469,-5.5348999,103.7724,343.86183)"/>
<path transform="matrix(1.00002,0,0,-1.00005,199.4557,194.53012)" stroke-width=".3985" stroke-linecap="round" stroke-miterlimit="10" stroke-linejoin="miter" fill="none" stroke="#000000" d="M-64.38809-155.45116"/>
<use data-text="S" xlink:href="#font_3_97" transform="matrix(3.8123649,-9.204308,-9.204032,-3.8124788,128.70442,374.24076)"/>
<use data-text="S" xlink:href="#font_3_97" transform="matrix(3.8123649,-9.204308,-9.204032,-3.8124788,130.82411,369.12315)"/>
<use data-text="W" xlink:href="#font_3_113" transform="matrix(3.8123649,-9.204308,-9.204032,-3.8124788,132.94377,364.00553)"/>
<path transform="matrix(1.00002,0,0,-1.00005,199.4557,194.53012)" stroke-width=".3985" stroke-linecap="round" stroke-miterlimit="10" stroke-linejoin="miter" fill="none" stroke="#000000" d="M-32.8233-165.02672"/>
<use data-text="S" xlink:href="#font_3_97" transform="matrix(1.9434432,-9.771407,-9.771115,-1.9435014,165.12299,384.59257)"/>
<use data-text="b" xlink:href="#font_3_35" transform="matrix(1.9434432,-9.771407,-9.771115,-1.9435014,166.20354,379.15965)"/>
<use data-text="W" xlink:href="#font_3_113" transform="matrix(1.9434432,-9.771407,-9.771115,-1.9435014,167.28409,373.72676)"/>
<path transform="matrix(1.00002,0,0,-1.00005,199.4557,194.53012)" stroke-width=".3985" stroke-linecap="round" stroke-miterlimit="10" stroke-linejoin="miter" fill="none" stroke="#000000" d="M0 0"/>
<path transform="matrix(1.00002,0,0,-1.00005,199.4557,194.53012)" d="M33.23793-12.73434 36.05981-30.36372 37.97379-37.06242 38.33366-40.8225 33.18906-34.78944 27.3273-22.46861 24.21735-13.49733 11.77669-8.23378 1.48965-5.36302-3.77344-8.23378-5.80724-10.14775-10.2866-17.35255-14.73439-22.02136-18.42523-25.51193-17.44165-23.15375-12.5518-16.91049-10.86664-14.31396-9.54091-11.27539-10.53531-11.80006-11.33855-11.33855-11.33636-10.58463-10.89432-9.6179-15.86678-11.55133-20.58577-14.14095-22.87303-16.36809-24.98553-18.76823-24.84843-17.2323-23.70999-15.13362-20.49493-12.31218-16.27077-9.41893-13.55098-7.21991-9.9185-5.0343-7.5945-3.07576-6.58278-1.18167-6.33406 2.30672-7.03651 6.3449-12.2313 22.87865-13.79361 26.48817-26.46352 34.27992-37.45863 39.2926-37.8224 39.32375-37.91583 39.10532-38.24846 39.37566-37.89032 39.83197-36.86607 40.03915-32.21498 40.37567-27.75941 39.88605-15.54411 36.64503-8.50412 34.01608-5.1485 32.46066-2.77428 30.6665-.56444 24.11354 1.94684 13.53279 3.17612 10.86102 4.08444 10.05952 6.8674 11.75204 8.2087 11.72522 8.7991 11.6984 10.54266 12.90562 12.63528 14.54234 13.60114 14.86415 14.17339 14.17339 14.08429 13.57648 13.62407 13.90219 13.07603 13.75815 11.9216 12.90216 11.13309 12.05568 10.08461 10.5937 10.26324 9.03441 10.16592 8.4721 9.21564 6.39636 9.02489 5.72548 9.12263 5.2073 9.87007 4.49406 30.86978-3.86298 31.79152-5.78993Z"/>
</svg>
