<svg xmlns="http://www.w3.org/2000/svg" xmlns:xlink="http://www.w3.org/1999/xlink" version="1.1" width="198" height="171" viewBox="0 0 198 171">
<defs>
<path id="font_1_1" d="M.6589966 .23046875C.6759949 .23046875 .69400027 .23046875 .69400027 .25045777 .69400027 .27046205 .6759949 .27046205 .6589966 .27046205H.117996219C.100997928 .27046205 .08299255 .27046205 .08299255 .25045777 .08299255 .23046875 .100997928 .23046875 .117996219 .23046875H.6589966Z"/>
<path id="font_2_3" d="M.1269989 .07699585 .23298645 .18003845C.3889923 .31811524 .44898988 .3721466 .44898988 .47216798 .44898988 .5860901 .35899354 .6660156 .23699951 .6660156 .12399292 .6660156 .049987794 .57411196 .049987794 .48516847 .049987794 .4291687 .099990848 .4291687 .102996829 .4291687 .11999512 .4291687 .15499878 .44117738 .15499878 .48217774 .15499878 .5081787 .13699341 .5341797 .101989749 .5341797 .09399414 .5341797 .09199524 .5341797 .08898926 .5331726 .11199951 .59806826 .1659851 .63500979 .22399903 .63500979 .31498719 .63500979 .35798646 .5541382 .35798646 .47216798 .35798646 .39215089 .30799867 .31311036 .25299073 .25108338L.06098938 .036987306C.049987794 .025985718 .049987794 .023986817 .049987794 0H.42099L.44898988 .17404175H.42399598C.4189911 .14402771 .4119873 .1000061 .4019928 .084991458 .394989 .07699585 .32899476 .07699585 .30699159 .07699585H.1269989Z"/>
<path id="font_3_1" d="M.2649994 .37265016H.37799073C.34498597 .22489929 .33599855 .18196106 .33599855 .11508179 .33599855 .100097659 .33599855 .073150638 .34399415 .03919983 .35398866-.0047454836 .36499024-.0107421879 .37998963-.0107421879 .3999939-.0107421879 .42099 .007247925 .42099 .02722168 .42099 .033218385 .42099 .035202028 .4149933 .049179079 .38598634 .12106323 .38598634 .18595886 .38598634 .21391297 .38598634 .26683045 .3929901 .32073976 .4039917 .37265016H.5179901C.5309906 .37265016 .5669861 .37265016 .5669861 .406662 .5669861 .43066407 .54599 .43066407 .5269928 .43066407H.19198609C.16999817 .43066407 .13198853 .43066407 .08799744 .38365174 .052993776 .34469605 .026992798 .29878236 .026992798 .29379273 .026992798 .29278565 .026992798 .28379823 .038986207 .28379823 .04699707 .28379823 .04899597 .28779603 .054992677 .29577638 .10398865 .37265016 .1619873 .37265016 .18199158 .37265016H.23899842C.20698548 .25186158 .15299988 .13105774 .11099243 .04020691 .102996829 .025222779 .102996829 .023223877 .102996829 .016235352 .102996829-.002746582 .11898804-.0107421879 .13198853-.0107421879 .1619873-.0107421879 .16999817 .017242432 .18199158 .05418396 .19599915 .100097659 .19599915 .10209656 .20899964 .15202332L.2649994 .37265016Z"/>
<path id="font_2_2" d="M.2939911 .64004519C.2939911 .66400149 .2939911 .6660156 .2709961 .6660156 .20899964 .60227969 .12098694 .60227969 .08898926 .60227969V.57128909C.10899353 .57128909 .16799927 .57128909 .21998596 .5972748V.07902527C.21998596 .042999269 .21699524 .0309906 .1269989 .0309906H.09498596V0C.12998963 .0029907227 .21699524 .0029907227 .25698854 .0029907227 .29699708 .0029907227 .38398744 .0029907227 .4189911 0V.0309906H.3869934C.29699708 .0309906 .2939911 .041992189 .2939911 .07902527V.64004519Z"/>
<path id="font_2_1" d="M.45999146 .31976319C.45999146 .39982606 .45498658 .47988893 .41999818 .5539398 .37399293 .65000918 .2919922 .6660156 .25 .6660156 .18998719 .6660156 .116989139 .64001467 .07598877 .54693606 .04399109 .47789 .038986207 .39982606 .038986207 .31976319 .038986207 .24472046 .042999269 .15464783 .083999637 .07859802 .1269989-.0024719239 .19999695-.022460938 .24899292-.022460938 .30299378-.022460938 .3789978-.0014648438 .4229889 .09359741 .45498658 .16265869 .45999146 .2407074 .45999146 .31976319M.24899292-.00047302247C.20999146-.00047302247 .15098572 .024551392 .1329956 .12062073 .12199402 .18066406 .12199402 .2727356 .12199402 .3317871 .12199402 .39582826 .12199402 .46188355 .12998963 .5159149 .14898682 .63500979 .22399903 .64401248 .24899292 .64401248 .28199769 .64401248 .34799195 .6259918 .36698915 .52693179 .3769989 .47088624 .3769989 .39482118 .3769989 .3317871 .3769989 .25672914 .3769989 .18867493 .3659973 .12461853 .35099793 .029556275 .2939911-.00047302247 .24899292-.00047302247Z"/>
<path id="font_2_4" d="M.44898988 .20022583C.44898988 .3193512 .36698915 .41944886 .25898744 .41944886 .21099854 .41944886 .16799927 .40345765 .13198853 .36842347V.5637665C.1519928 .5577698 .18499756 .55078127 .21699524 .55078127 .33999635 .55078127 .4099884 .6417694 .4099884 .6547699 .4099884 .6607666 .40699769 .6657715 .3999939 .6657715 .39898683 .6657715 .39698792 .6657715 .3919983 .66278079 .37199403 .6537781 .32299806 .6337738 .2559967 .6337738 .21598816 .6337738 .16999817 .6407776 .12298584 .6617737 .114990238 .66477969 .11299133 .66477969 .11099243 .66477969 .100997928 .66477969 .100997928 .6567688 .100997928 .6407776V.34439088C.100997928 .32637025 .100997928 .31835938 .114990238 .31835938 .12199402 .31835938 .12399292 .32136537 .12799073 .32736207 .13899231 .3433838 .17599488 .39746095 .25698854 .39746095 .30899049 .39746095 .33399964 .35139466 .34199525 .33337403 .35798646 .29632569 .3600006 .25727845 .3600006 .20722962 .3600006 .17222595 .3600006 .11222839 .33599855 .07035828 .31199647 .031463624 .2749939 .0055389406 .22898865 .0055389406 .1559906 .0055389406 .09899902 .058380128 .08198547 .11723328 .084991458 .1162262 .08799744 .115234378 .09899902 .115234378 .13198853 .115234378 .14898682 .14022827 .14898682 .16423035 .14898682 .18823242 .13198853 .21322632 .09899902 .21322632 .084991458 .21322632 .049987794 .20622254 .049987794 .16023255 .049987794 .07434082 .11898804-.022460938 .23098755-.022460938 .34700013-.022460938 .44898988 .073349 .44898988 .20022583Z"/>
<path id="font_3_2" d="M.33399964 .30233766C.33999635 .32835389 .36299134 .42037965 .43299867 .42037965 .43798829 .42037965 .46199037 .42037965 .48298646 .40734864 .45498658 .402359 .43499757 .37734986 .43499757 .35334779 .43499757 .33735658 .44599916 .31835938 .47299195 .31835938 .49499513 .31835938 .5269928 .3363495 .5269928 .37635804 .5269928 .42837525 .46798707 .4423828 .43399049 .4423828 .37599183 .4423828 .34098817 .38935853 .32899476 .36634828 .3039856 .43237306 .25 .4423828 .22099304 .4423828 .116989139 .4423828 .05999756 .3133545 .05999756 .28834535 .05999756 .27833558 .069992069 .27833558 .07199097 .27833558 .07998657 .27833558 .08299255 .28033448 .084991458 .28933717 .11898804 .39535523 .18499756 .42037965 .21899414 .42037965 .23799134 .42037965 .272995 .4113617 .272995 .35334779 .272995 .32235719 .2559967 .25532533 .21899414 .11528015 .20298767 .053268434 .16799927 .011245728 .12399292 .011245728 .117996219 .011245728 .09498596 .011245728 .07398987 .024276734 .09899902 .029266358 .12098694 .05027771 .12098694 .07827759 .12098694 .105270389 .09899902 .11328125 .083999637 .11328125 .053985597 .11328125 .0289917 .08728027 .0289917 .055267335 .0289917 .009246826 .07899475-.0107421879 .12298584-.0107421879 .18899536-.0107421879 .22499085 .059280397 .22799683 .0652771 .23999024 .028274537 .27598573-.0107421879 .33599855-.0107421879 .43899537-.0107421879 .49598695 .118270877 .49598695 .14328003 .49598695 .1532898 .4869995 .1532898 .48399354 .1532898 .47499085 .1532898 .47299195 .14929199 .47099305 .14228821 .43798829 .03527832 .36999513 .011245728 .33799745 .011245728 .29899598 .011245728 .2829895 .043273927 .2829895 .07727051 .2829895 .09927368 .2889862 .121276859 .2999878 .16529846L.33399964 .30233766Z"/>
<path id="font_3_3" d="M.48599244 .38136292C.48999024 .39537049 .48999024 .39736939 .48999024 .40437318 .48999024 .42237855 .47599793 .43138124 .46099855 .43138124 .45098878 .43138124 .43499757 .42536927 .42599488 .41036988 .42399598 .405365 .41600038 .37435914 .4119873 .35635377 .40499879 .33035279 .397995 .30334474 .3919983 .27633668L.34700013 .09628296C.34298707 .08126831 .2999878 .011245728 .23399353 .011245728 .18299866 .011245728 .17199707 .055267335 .17199707 .0922699 .17199707 .1382904 .18899536 .20030213 .22299195 .28833009 .23899842 .3293457 .24299622 .3403473 .24299622 .36035157 .24299622 .405365 .21099854 .4423828 .16099549 .4423828 .06599426 .4423828 .0289917 .29733277 .0289917 .28833009 .0289917 .27833558 .038986207 .27833558 .040985109 .27833558 .050994874 .27833558 .051986696 .28033448 .056991579 .29634095 .083999637 .3903656 .12399292 .42037965 .1579895 .42037965 .1659851 .42037965 .18299866 .42037965 .18299866 .3883667 .18299866 .36335755 .17298889 .3373413 .1659851 .31834413 .12599182 .21231079 .10798645 .1552887 .10798645 .10827637 .10798645 .019256592 .17098999-.0107421879 .22999573-.0107421879 .2689972-.0107421879 .30299378 .0062561037 .33099366 .03425598 .31799317-.017745972 .30599977-.06674194 .2659912-.11973572 .23999024-.15385437 .20199585-.18309021 .1559906-.18309021 .14199829-.18309021 .09700012-.18005371 .07998657-.14074707 .09599304-.14074707 .10899353-.14074707 .12298584-.1287384 .1329956-.11973572 .14299011-.10673523 .14299011-.08773804 .14299011-.056747438 .115997318-.052734376 .10598755-.052734376 .08299255-.052734376 .049987794-.068740848 .049987794-.11773682 .049987794-.16796875 .09399414-.20507813 .1559906-.20507813 .25898744-.20507813 .3619995-.11373901 .3899994-.00074768069L.48599244 .38136292Z"/>
</defs>
<path transform="matrix(1.00003,0,0,-1.00006,2.4406586,166.5352)" stroke-width=".19925" stroke-linecap="butt" stroke-miterlimit="10" stroke-linejoin="miter" fill="none" stroke="#929292" d="M7.16013 79.28079V82.11555M18.40723 79.28079V82.11555M29.65434 79.28079V82.11555M40.90144 79.28079V82.11555M52.14856 79.28079V82.11555M63.39566 79.28079V82.11555M74.64278 79.28079V82.11555M85.88988 79.28079V82.11555M97.137 79.28079V82.11555M108.3841 79.28079V82.11555M119.6312 79.28079V82.11555M130.87831 79.28079V82.11555M142.12541 79.28079V82.11555M153.37252 79.28079V82.11555M164.61963 79.28079V82.11555M175.86673 79.28079V82.11555M187.11385 79.28079V82.11555"/>
<path transform="matrix(1.00003,0,0,-1.00006,2.4406586,166.5352)" stroke-width=".19925" stroke-linecap="butt" stroke-miterlimit="10" stroke-linejoin="miter" fill="none" stroke="#929292" d="M7.16013 78.5723V82.82404M52.14856 78.5723V82.82404M142.12541 78.5723V82.82404M187.11385 78.5723V82.82404"/>
<path transform="matrix(1.00003,0,0,-1.00006,2.4406586,166.5352)" stroke-width=".19925" stroke-linecap="butt" stroke-miterlimit="10" stroke-linejoin="miter" fill="none" stroke="#929292" d="M95.01102 0H99.26294M95.01102 40.34909H99.26294M95.01102 121.04727H99.26294M95.01102 161.39636H99.26294"/>
<path transform="matrix(1.00003,0,0,-1.00006,2.4406586,166.5352)" stroke-width=".3985" stroke-linecap="butt" stroke-miterlimit="10" stroke-linejoin="miter" fill="none" stroke="#000000" d="M0 80.69818H192.28145"/>
<path transform="matrix(1.00003,0,0,-1.00006,194.72789,85.832187)" d="M1.99252 0-1.19551 1.59401 0 0-1.19551-1.59401"/>
<path transform="matrix(1.00003,0,0,-1.00006,2.4406586,166.5352)" stroke-width=".3985" stroke-linecap="butt" stroke-miterlimit="10" stroke-linejoin="miter" fill="none" stroke="#000000" d="M97.137 0V159.40384"/>
<path transform="matrix(0,-1.00006,-1.00003,-0,99.580577,7.121811)" d="M1.99252 0-1.19551 1.59401 0 0-1.19551-1.59401"/>
<use data-text="&#x2212;" xlink:href="#font_1_1" transform="matrix(9.962899,0,0,-9.963197,.21759033,97.899089)"/>
<use data-text="2" xlink:href="#font_2_3" transform="matrix(9.962899,0,0,-9.963197,7.9668276,97.899089)"/>
<use data-text="&#x03c0;" xlink:href="#font_3_1" transform="matrix(9.962899,0,0,-9.963197,12.947975,97.899089)"/>
<use data-text="&#x2212;" xlink:href="#font_1_1" transform="matrix(9.962899,0,0,-9.963197,47.698019,97.290058)"/>
<use data-text="&#x03c0;" xlink:href="#font_3_1" transform="matrix(9.962899,0,0,-9.963197,55.447256,97.290058)"/>
<use data-text="&#x03c0;" xlink:href="#font_3_1" transform="matrix(9.962899,0,0,-9.963197,141.55184,95.76796)"/>
<use data-text="2" xlink:href="#font_2_3" transform="matrix(9.962899,0,0,-9.963197,184.05112,97.899089)"/>
<use data-text="&#x03c0;" xlink:href="#font_3_1" transform="matrix(9.962899,0,0,-9.963197,189.03227,97.899089)"/>
<use data-text="&#x2212;" xlink:href="#font_1_1" transform="matrix(9.962899,0,0,-9.963197,76.22288,169.33037)"/>
<use data-text="1" xlink:href="#font_2_2" transform="matrix(9.962899,0,0,-9.963197,83.972118,169.33037)"/>
<use data-text="0" xlink:href="#font_2_1" transform="matrix(9.962899,0,0,-9.963197,88.95356,169.33037)"/>
<use data-text="&#x2212;" xlink:href="#font_1_1" transform="matrix(9.962899,0,0,-9.963197,81.204029,128.97895)"/>
<use data-text="5" xlink:href="#font_2_4" transform="matrix(9.962899,0,0,-9.963197,88.95326,128.97895)"/>
<use data-text="5" xlink:href="#font_2_4" transform="matrix(9.962899,0,0,-9.963197,88.95326,48.69114)"/>
<use data-text="1" xlink:href="#font_2_2" transform="matrix(9.962899,0,0,-9.963197,83.97111,8.339706)"/>
<use data-text="0" xlink:href="#font_2_1" transform="matrix(9.962899,0,0,-9.963197,88.95256,8.339706)"/>
<path transform="matrix(1.00003,0,0,-1.00006,2.4406586,166.5352)" stroke-width=".99628" stroke-linecap="butt" stroke-miterlimit="10" stroke-linejoin="miter" fill="none" stroke="#0000ff" d="M8.49702 159.17658 8.66046 149.3754 8.87201 139.81443 9.08354 132.3504 9.29507 126.3609 9.5066 121.44107 9.71814 117.32675 9.92967 113.83485 10.1412 110.83102 10.35274 108.2265 10.56427 105.93831 10.7758 103.90898 10.98735 102.10135 11.19888 100.4794 11.4104 99.01497 11.62193 97.6861 11.83347 96.47223 12.04501 95.36095 12.25655 94.33916 12.46808 93.39384 12.67961 92.51794 12.89113 91.70476 13.10266 90.94588 13.31421 90.23564 13.52574 89.57062 13.73727 88.94577 13.9488 88.35675 14.16032 87.80098 14.37187 87.27434 14.5834 86.77562 14.79494 86.30232 15.00647 85.85204 15.218 85.42328 15.42955 85.01382 15.64107 84.62283 15.8526 84.24864 16.06413 83.88986 16.27567 83.54544 16.48721 83.21432 16.69875 82.89655 16.91028 82.59013 17.1218 82.29437 17.33333 82.00934 17.54488 81.7336 17.75641 81.46706 17.96794 81.20897 18.17947 80.95898 18.391 80.71649 18.60254 80.48094 18.81407 80.25208 19.0256 80.0299 19.23714 79.81306 19.44867 79.60228 19.6602 79.39658 19.87173 79.19604 20.08327 79.0001 20.2948 78.80876 20.50633 78.6218 20.71786 78.43878 20.92941 78.25972 21.14095 78.0841 21.35248 77.91238 21.564 77.74356 21.77553 77.5783 21.98708 77.41536 22.19861 77.25558 22.41014 77.09854 22.62167 76.944 22.8332 76.79205 23.04474 76.64212 23.25627 76.49443 23.4678 76.34886 23.67934 76.20529 23.89087 76.0636 24.10242 75.92374 24.31393 75.78558 24.52547 75.64871 24.737 75.51355 24.94853 75.37984 25.16006 75.24742 25.37161 75.1162 25.58315 74.98634 25.79466 74.85747 26.0062 74.72964 26.21773 74.60278 26.42928 74.47714 26.64081 74.35207 26.85234 74.22778 27.06387 74.10416 27.27539 73.98126 27.48694 73.85909 27.69847 73.7373 27.91 73.61601 28.12154 73.49522 28.33307 73.37495 28.54462 73.25496 28.75613 73.1351 28.96767 73.01544 29.1792 72.89609 29.39073 72.77678 29.60228 72.65764 29.81383 72.53845 30.02533 72.41942 30.23688 72.30003 30.44838 72.18057 30.65994 72.06076 30.87149 71.94087 31.083 71.82071 31.29454 71.70015 31.50606 71.57927 31.71759 71.45758 31.92915 71.33565 32.14067 71.21315 32.3522 71.08992 32.56372 70.96597 32.77527 70.8413 32.98682 70.71596 33.19833 70.58958 33.40988 70.46216 33.62138 70.33385 33.83293 70.20442 34.0445 70.07393 34.256 69.94223 34.46754 69.80916 34.67905 69.67471 34.8906 69.53874 35.10216 69.4013 35.31366 69.26218 35.5252 69.12129 35.73672 68.9787 35.94826 68.83415 36.15982 68.68753 36.37134 68.53882 36.58287 68.38782 36.79439 68.2345 37.00594 68.07858 37.21747 67.92026 37.429 67.75894 37.64055 67.59505 37.85205 67.42801 38.0636 67.25755 38.27515 67.0839 38.48666 66.90643 38.69821 66.72543 38.90971 66.54047 39.12126 66.35123 39.33281 66.1578 39.54433 65.95953 39.75587 65.75642 39.96739 65.54805 40.17892 65.3342 40.39047 65.1147 40.602 64.88914 40.81354 64.65714 41.02505 64.41788 41.2366 64.17175 41.44814 63.91762 41.65967 63.6552 41.87122 63.3843 42.08272 63.10403 42.29427 62.8136 42.50581 62.51227 42.71733 62.20012 42.92888 61.87555 43.14038 61.538 43.35193 61.18646 43.56348 60.82002 43.775 60.4372 43.98654 60.03725 44.19806 59.6182 44.4096 59.17862 44.62114 58.7168 44.83266 58.23106 45.0442 57.71857 45.25572 57.17787 45.46727 56.60573 45.67882 55.99815 45.89032 55.35336 46.10188 54.66542 46.31339 53.93172 46.52493 53.14499 46.73648 52.30112 46.94798 51.39246 47.15955 50.4094 47.37106 49.34329 47.5826 48.18196 47.79414 46.91298 48.00566 45.5161 48.21721 43.97421 48.42873 42.26349 48.64027 40.34648 48.8518 38.1925 49.06332 35.7517 49.27487 32.95383 49.48639 29.71709 49.69794 25.9275 49.90948 21.43907 50.12099 16.0105 50.33253 9.33006 50.47166 3.78549"/>
<path transform="matrix(-.016650502,-.99990996,-.99988,.016650999,10.937954,7.3490908)" d="M2.8892 0-1.73352 2.31136 0 0-1.73352-2.31136" fill="#0000ff"/>
<path transform="matrix(.025050752,.99968996,.99966,-.0250515,52.913835,162.74948)" d="M2.8892 0-1.73352 2.31136 0 0-1.73352-2.31136" fill="#0000ff"/>
<path transform="matrix(1.00003,0,0,-1.00006,2.4406586,166.5352)" stroke-width=".99628" stroke-linecap="butt" stroke-miterlimit="10" stroke-linejoin="miter" fill="none" stroke="#0000ff" d="M53.4856 159.17658 53.6489 149.39 53.86043 139.8258 54.07198 132.3504 54.28351 126.3609 54.49504 121.44107 54.70657 117.32675 54.91809 113.83485 55.12964 110.83102 55.34117 108.22562 55.5527 105.93547 55.76424 103.90898 55.97577 102.10135 56.18732 100.48132 56.39883 99.01497 56.61037 97.68497 56.8219 96.47305 57.03343 95.36095 57.24498 94.33842 57.45651 93.39417 57.66805 92.5194 57.87956 91.70476 58.0911 90.94539 58.30263 90.23564 58.51418 89.57062 58.72571 88.9457 58.93724 88.35675 59.14877 87.80098 59.36029 87.27411 59.57184 86.77611 59.78337 86.30232 59.9949 85.85204 60.20644 85.42328 60.41797 85.01408 60.6295 84.62332 60.84103 84.24864 61.05257 83.88947 61.2641 83.54544 61.47563 83.21457 61.68718 82.89655 61.89871 82.59013 62.11024 82.29437 62.32176 82.00934 62.5333 81.7336 62.74484 81.46706 62.95638 81.20897 63.16791 80.95898 63.37944 80.71649 63.59096 80.48085 63.8025 80.2519 64.01404 80.0299 64.22557 79.81306 64.4371 79.60228 64.64864 79.39658 64.86017 79.19604 65.0717 79.0001 65.28323 78.80876 65.49477 78.6218 65.7063 78.43886 65.91783 78.25972 66.12938 78.08427 66.34091 77.91238 66.55243 77.74356 66.76396 77.5779 66.9755 77.41536 67.18704 77.25558 67.39857 77.0987 67.6101 76.944 67.82164 76.79181 68.03316 76.64212 68.2447 76.49443 68.45624 76.3491 68.66777 76.20529 68.8793 76.0636 69.09084 75.92358 69.30238 75.78558 69.5139 75.64871 69.72543 75.51363 69.93697 75.37984 70.1485 75.24742 70.36003 75.11644 70.57158 74.98634 70.7831 74.85747 70.99463 74.72964 71.20616 74.60278 71.4177 74.47682 71.62924 74.35207 71.84077 74.22778 72.0523 74.10416 72.26384 73.98126 72.47536 73.85909 72.6869 73.7373 72.89844 73.61601 73.10997 73.49522 73.3215 73.37495 73.53304 73.25496 73.74457 73.1351 73.9561 73.01544 74.16763 72.89609 74.37917 72.77678 74.5907 72.65764 74.80226 72.53845 75.01376 72.41942 75.22531 72.30003 75.43681 72.18057 75.64836 72.06076 75.85992 71.94087 76.07143 71.82071 76.28297 71.70015 76.49449 71.57895 76.70602 71.45767 76.91757 71.33565 77.1291 71.21315 77.34064 71.08992 77.55215 70.96597 77.7637 70.84137 77.97523 70.7158 78.18677 70.58958 78.39832 70.46216 78.60982 70.33385 78.82137 70.20459 79.03291 70.07402 79.24443 69.94199 79.45598 69.80916 79.66748 69.67455 79.87903 69.53874 80.09058 69.4013 80.3021 69.26218 80.51364 69.12144 80.72516 68.9786 80.93669 68.83408 81.14824 68.68736 81.35977 68.53882 81.5713 68.3879 81.78282 68.2345 81.99437 68.07858 82.2059 67.92026 82.41742 67.75894 82.62898 67.59505 82.84048 67.42775 83.05203 67.25755 83.26358 67.0839 83.47508 66.90643 83.68665 66.7256 83.89815 66.5404 84.1097 66.35123 84.32124 66.1578 84.53275 65.95953 84.74431 65.75642 84.95583 65.54814 85.16737 65.3342 85.3789 65.11462 85.59042 64.88939 85.80197 64.65714 86.01349 64.41788 86.22504 64.1715 86.43657 63.91762 86.64809 63.65544 86.85965 63.3843 87.07115 63.10403 87.2827 62.81367 87.49425 62.5125 87.70575 62.20012 87.91731 61.87555 88.12883 61.53792 88.34036 61.18646 88.55191 60.82002 88.76343 60.4372 88.97496 60.03758 89.1865 59.6182 89.39804 59.17911 89.60957 58.7168 89.82109 58.23123 90.03264 57.71857 90.24416 57.1773 90.4557 56.60573 90.66725 55.99823 90.87875 55.35304 91.0903 54.66606 91.30182 53.93219 91.51337 53.14594 91.72491 52.30112 91.93642 51.39246 92.14796 50.4094 92.3595 49.34329 92.57103 48.18147 92.78258 46.91298 92.9941 45.51675 93.20563 43.97421 93.41716 42.26146 93.62871 40.34648 93.84024 38.1941 94.05176 35.7517 94.2633 32.95383 94.47481 29.71709 94.68637 25.9275 94.89792 21.43245 95.10942 16.0105 95.32097 9.33006 95.4601 3.78549"/>
<path transform="matrix(-.0167005,-.99990996,-.99988,.016701002,55.927877,7.3490908)" d="M2.8892 0-1.73352 2.31136 0 0-1.73352-2.31136" fill="#0000ff"/>
<path transform="matrix(.025050752,.99968996,.99966,-.0250515,97.903629,162.74948)" d="M2.8892 0-1.73352 2.31136 0 0-1.73352-2.31136" fill="#0000ff"/>
<path transform="matrix(1.00003,0,0,-1.00006,2.4406586,166.5352)" stroke-width=".99628" stroke-linecap="butt" stroke-miterlimit="10" stroke-linejoin="miter" fill="none" stroke="#0000ff" d="M98.47403 159.17658 98.63734 149.39 98.84888 139.81443 99.0604 132.3504 99.27194 126.3609 99.48347 121.44107 99.695 117.32675 99.90654 113.83485 100.11807 110.83102 100.32962 108.2265 100.54115 105.93547 100.75269 103.90898 100.96422 102.10135 101.17575 100.4794 101.3873 99.01544 101.59883 97.68658 101.81036 96.47223 102.0219 95.36095 102.23341 94.33842 102.44496 93.39441 102.6565 92.51794 102.86803 91.70427 103.07956 90.94539 103.29109 90.23605 103.50262 89.57062 103.71417 88.9457 103.9257 88.35675 104.13724 87.80098 104.34877 87.27411 104.5603 86.77586 104.77185 86.30232 104.98338 85.85204 105.19492 85.42352 105.40645 85.01358 105.61798 84.62276 105.82951 84.24864 106.04105 83.88947 106.25258 83.54544 106.46411 83.21457 106.67564 82.89655 106.88719 82.58972 107.09872 82.29437 107.31026 82.00934 107.52179 81.7336 107.73332 81.46706 107.94487 81.20897 108.1564 80.95898 108.36794 80.7164 108.57947 80.48085 108.791 80.25208 109.00253 80.02966 109.21408 79.81306 109.42561 79.60228 109.63713 79.39658 109.84866 79.19604 110.0602 79.0001 110.27174 78.80876 110.48328 78.62164 110.69481 78.43878 110.90634 78.25972 111.11787 78.0841 111.32942 77.91206 111.54095 77.74356 111.75249 77.5779 111.96402 77.41554 112.17555 77.25566 112.3871 77.09854 112.59863 76.944 112.81015 76.79181 113.02168 76.64212 113.23322 76.49443 113.44476 76.34886 113.6563 76.20529 113.86783 76.06367 114.07936 75.92358 114.2909 75.78543 114.50243 75.64864 114.71397 75.51355 114.9255 75.37984 115.13704 75.24742 115.34857 75.1162 115.5601 74.98634 115.77165 74.85747 115.98318 74.72964 116.1947 74.60278 116.40623 74.47682 116.61777 74.3519 116.82932 74.22778 117.04085 74.10416 117.25238 73.98126 117.46391 73.859 117.67545 73.7373 117.887 73.61601 118.09853 73.49522 118.31006 73.37479 118.52159 73.25494 118.73312 73.1351 118.94467 73.01535 119.1562 72.89594 119.36774 72.77678 119.57927 72.65756 119.7908 72.53845 120.00233 72.41917 120.21388 72.29994 120.42538 72.18057 120.63693 72.06076 120.84848 71.94087 121.06 71.82071 121.27155 71.69998 121.48306 71.57895 121.69461 71.45758 121.90616 71.3354 122.11766 71.21315 122.32922 71.08975 122.54074 70.9658 122.75229 70.8413 122.96382 70.7158 123.17534 70.58943 123.3869 70.46216 123.59842 70.33385 123.80995 70.20435 124.0215 70.07393 124.23302 69.94199 124.44458 69.8089 124.65608 69.67447 124.86763 69.53867 125.07918 69.40123 125.29068 69.26193 125.50224 69.12122 125.71376 68.9786 125.92531 68.83392 126.13684 68.68736 126.34836 68.53865 126.5599 68.38782 126.77144 68.23425 126.98297 68.07858 127.19452 67.92026 127.40604 67.75887 127.61758 67.5948 127.8291 67.42775 128.04065 67.2574 128.2522 67.08357 128.4637 66.90637 128.67525 66.72537 128.88678 66.5404 129.09833 66.35123 129.30988 66.15749 129.52138 65.95921 129.73293 65.75601 129.94446 65.54788 130.156 65.33403 130.36754 65.11438 130.57906 64.88898 130.7906 64.65665 131.00212 64.41788 131.21367 64.1715 131.42522 63.91745 131.63674 63.6552 131.84827 63.38422 132.05979 63.10355 132.27135 62.81294 132.4829 62.51212 132.6944 62.19997 132.90595 61.87555 133.11746 61.5375 133.32903 61.18608 133.54056 60.81953 133.75208 60.43704 133.96363 60.03702 134.17513 59.61761 134.38669 59.17822 134.59824 58.71646 134.80976 58.2305 135.0213 57.71783 135.2328 57.1773 135.44437 56.6049 135.65592 55.99774 135.86742 55.35216 136.07897 54.66508 136.29048 53.93172 136.50205 53.14499 136.71358 52.30072 136.9251 51.39189 137.13665 50.40753 137.34816 49.34119 137.5597 48.18196 137.77126 46.90912 137.98278 45.51512 138.19432 43.97324 138.40583 42.2588 138.61737 40.3444 138.82894 38.1888 139.04044 35.74928 139.25199 32.94792 139.4635 29.71468 139.67505 25.92574 139.8866 21.42914 140.09812 16.00243 140.30966 9.32515 140.44889 3.77258"/>
<path transform="matrix(-.0167005,-.99990996,-.99988,.016701002,100.917659,7.3490908)" d="M2.8892 0-1.73352 2.31136 0 0-1.73352-2.31136" fill="#0000ff"/>
<path transform="matrix(.025020753,.99968996,.99966,-.025021499,142.89377,162.76239)" d="M2.8892 0-1.73352 2.31136 0 0-1.73352-2.31136" fill="#0000ff"/>
<path transform="matrix(1.00003,0,0,-1.00006,2.4406586,166.5352)" stroke-width=".99628" stroke-linecap="butt" stroke-miterlimit="10" stroke-linejoin="miter" fill="none" stroke="#0000ff" d="M143.46247 159.17658 143.62577 149.39 143.8373 139.81443 144.04883 132.3504 144.26036 126.3609 144.47191 121.44107 144.68344 117.32675 144.89498 113.83704 145.10649 110.83102 145.31803 108.22722 145.52957 105.93547 145.7411 103.90898 145.95264 102.10135 146.16417 100.47972 146.37569 99.01497 146.58724 97.68658 146.79877 96.47305 147.0103 95.36095 147.22183 94.33899 147.43337 93.3936 147.64492 92.5194 147.85645 91.70476 148.06797 90.94588 148.2795 90.23637 148.49103 89.57013 148.70256 88.9457 148.91411 88.35675 149.12564 87.80074 149.33716 87.27434 149.54869 86.77579 149.76023 86.30232 149.97177 85.85204 150.1833 85.42352 150.39484 85.01382 150.60637 84.62276 150.8179 84.24864 151.02944 83.88986 151.24097 83.54552 151.4525 83.21465 151.66403 82.89655 151.87557 82.59013 152.08712 82.29437 152.29863 82.00934 152.51016 81.73386 152.7217 81.4669 152.93323 81.20897 153.14478 80.95898 153.35631 80.71649 153.56784 80.48085 153.77936 80.25215 153.99089 80.0299 154.20243 79.81306 154.41397 79.60237 154.6255 79.39658 154.83704 79.19604 155.04857 79.00027 155.26009 78.80876 155.47164 78.6218 155.68317 78.43878 155.8947 78.25972 156.10623 78.0841 156.31777 77.91238 156.5293 77.74356 156.74083 77.57806 156.95236 77.41554 157.1639 77.25566 157.37543 77.09854 157.58698 76.94385 157.79851 76.79205 158.01004 76.64212 158.22156 76.4946 158.43309 76.3491 158.64464 76.20529 158.85617 76.06367 159.0677 75.92374 159.27924 75.78558 159.49076 75.64871 159.7023 75.51363 159.91384 75.37991 160.12537 75.24742 160.3369 75.11644 160.54843 74.98634 160.75997 74.85747 160.97151 74.72964 161.18303 74.60278 161.39456 74.47714 161.6061 74.35207 161.81763 74.22778 162.02918 74.10416 162.2407 73.98126 162.45223 73.859 162.66376 73.7373 162.87529 73.61609 163.08684 73.49522 163.29837 73.37495 163.5099 73.25488 163.72144 73.1351 163.93296 73.01544 164.1445 72.89609 164.35604 72.77687 164.56757 72.65764 164.77912 72.5386 164.99062 72.41942 165.20218 72.30003 165.41368 72.18057 165.62523 72.06091 165.83678 71.94087 166.04828 71.82071 166.25983 71.69998 166.47136 71.57895 166.6829 71.45758 166.89444 71.33565 167.10596 71.21315 167.31749 71.08992 167.52902 70.96597 167.74057 70.84137 167.9521 70.71596 168.16362 70.58975 168.37517 70.46216 168.58669 70.33385 168.79824 70.20459 169.00978 70.07402 169.22129 69.94223 169.43283 69.80916 169.64435 69.67471 169.8559 69.53874 170.06745 69.4013 170.27896 69.26218 170.4905 69.12144 170.70203 68.9787 170.91358 68.83408 171.1251 68.68753 171.33663 68.53865 171.54816 68.3879 171.75969 68.2345 171.97124 68.07858 172.18279 67.92026 172.39429 67.75903 172.60584 67.59505 172.81734 67.42775 173.0289 67.2574 173.24045 67.0839 173.45195 66.90643 173.6635 66.72543 173.87502 66.54047 174.08657 66.35123 174.29811 66.15797 174.50963 65.95927 174.72116 65.75642 174.93268 65.54814 175.14424 65.33427 175.35578 65.11494 175.56729 64.88939 175.77884 64.65714 175.99034 64.41788 176.2019 64.17166 176.41345 63.91777 176.62496 63.65544 176.8365 63.3843 177.048 63.10403 177.25957 62.8136 177.47112 62.51227 177.68262 62.20012 177.89417 61.87555 178.10569 61.538 178.31722 61.18697 178.52878 60.82002 178.7403 60.4372 178.95183 60.03734 179.16335 59.6182 179.3749 59.17911 179.58644 58.7168 179.79796 58.23123 180.0095 57.71857 180.22101 57.17828 180.43256 56.6058 180.64412 55.99823 180.85562 55.3536 181.06717 54.66606 181.27867 53.93172 181.49022 53.14499 181.70178 52.30176 181.91329 51.39246 182.12483 50.4094 182.33635 49.34329 182.54788 48.18147 182.75945 46.91136 182.97097 45.5161 183.1825 43.97348 183.39402 42.26381 183.60556 40.34772 183.81711 38.1925 184.02863 35.7517 184.24018 32.95383 184.45168 29.71709 184.66323 25.9275 184.87477 21.43245 185.08629 16.0105 185.29784 9.32515 185.43688 3.78549"/>
<path transform="matrix(-.0167005,-.99990996,-.99988,.016701002,145.90744,7.3490908)" d="M2.8892 0-1.73352 2.31136 0 0-1.73352-2.31136" fill="#0000ff"/>
<path transform="matrix(.025090754,.99968996,.99966,-.025091505,187.88309,162.74948)" d="M2.8892 0-1.73352 2.31136 0 0-1.73352-2.31136" fill="#0000ff"/>
<path transform="matrix(1.00003,0,0,-1.00006,2.4406586,166.5352)" stroke-width=".3985" stroke-linecap="butt" stroke-dasharray="2.98883,2.98883" stroke-miterlimit="10" stroke-linejoin="miter" fill="none" stroke="#ff0000" d="M7.16013 0V161.39636"/>
<path transform="matrix(1.00003,0,0,-1.00006,2.4406586,166.5352)" stroke-width=".3985" stroke-linecap="butt" stroke-dasharray="2.98883,2.98883" stroke-miterlimit="10" stroke-linejoin="miter" fill="none" stroke="#ff0000" d="M52.14856 0V161.39636"/>
<path transform="matrix(1.00003,0,0,-1.00006,2.4406586,166.5352)" stroke-width=".3985" stroke-linecap="butt" stroke-dasharray="2.98883,2.98883" stroke-miterlimit="10" stroke-linejoin="miter" fill="none" stroke="#ff0000" d="M97.137 0V161.39636"/>
<path transform="matrix(1.00003,0,0,-1.00006,2.4406586,166.5352)" stroke-width=".3985" stroke-linecap="butt" stroke-dasharray="2.98883,2.98883" stroke-miterlimit="10" stroke-linejoin="miter" fill="none" stroke="#ff0000" d="M142.12541 0V161.39636"/>
<path transform="matrix(1.00003,0,0,-1.00006,2.4406586,166.5352)" stroke-width=".3985" stroke-linecap="butt" stroke-dasharray="2.98883,2.98883" stroke-miterlimit="10" stroke-linejoin="miter" fill="none" stroke="#ff0000" d="M187.11385 0V161.39636"/>
<use data-text="x" xlink:href="#font_3_2" transform="matrix(9.962899,0,0,-9.963197,187.50621,82.31215)"/>
<use data-text="y" xlink:href="#font_3_3" transform="matrix(9.962899,0,0,-9.963197,103.10068,12.93898)"/>
</svg>
