<svg xmlns="http://www.w3.org/2000/svg" xmlns:xlink="http://www.w3.org/1999/xlink" xmlns:inkscape="http://www.inkscape.org/namespaces/inkscape" version="1.1" width="255" height="164" viewBox="0 0 255 164">
<defs>
<path id="font_1_1" d="M.6589966 .23046875C.6759949 .23046875 .69400027 .23046875 .69400027 .25045777 .69400027 .27046205 .6759949 .27046205 .6589966 .27046205H.117996219C.100997928 .27046205 .08299255 .27046205 .08299255 .25045777 .08299255 .23046875 .100997928 .23046875 .117996219 .23046875H.6589966Z"/>
<path id="font_2_2" d="M.1269989 .07699585 .23298645 .18003845C.3889923 .31811524 .44898988 .3721466 .44898988 .47216798 .44898988 .5860901 .35899354 .6660156 .23699951 .6660156 .12399292 .6660156 .049987794 .57411196 .049987794 .48516847 .049987794 .4291687 .099990848 .4291687 .102996829 .4291687 .11999512 .4291687 .15499878 .44117738 .15499878 .48217774 .15499878 .5081787 .13699341 .5341797 .101989749 .5341797 .09399414 .5341797 .09199524 .5341797 .08898926 .5331726 .11199951 .59806826 .1659851 .63500979 .22399903 .63500979 .31498719 .63500979 .35798646 .5541382 .35798646 .47216798 .35798646 .39215089 .30799867 .31311036 .25299073 .25108338L.06098938 .036987306C.049987794 .025985718 .049987794 .023986817 .049987794 0H.42099L.44898988 .17404175H.42399598C.4189911 .14402771 .4119873 .1000061 .4019928 .084991458 .394989 .07699585 .32899476 .07699585 .30699159 .07699585H.1269989Z"/>
<path id="font_3_1" d="M.2649994 .37265016H.37799073C.34498597 .22489929 .33599855 .18196106 .33599855 .11508179 .33599855 .100097659 .33599855 .073150638 .34399415 .03919983 .35398866-.0047454836 .36499024-.0107421879 .37998963-.0107421879 .3999939-.0107421879 .42099 .007247925 .42099 .02722168 .42099 .033218385 .42099 .035202028 .4149933 .049179079 .38598634 .12106323 .38598634 .18595886 .38598634 .21391297 .38598634 .26683045 .3929901 .32073976 .4039917 .37265016H.5179901C.5309906 .37265016 .5669861 .37265016 .5669861 .406662 .5669861 .43066407 .54599 .43066407 .5269928 .43066407H.19198609C.16999817 .43066407 .13198853 .43066407 .08799744 .38365174 .052993776 .34469605 .026992798 .29878236 .026992798 .29379273 .026992798 .29278565 .026992798 .28379823 .038986207 .28379823 .04699707 .28379823 .04899597 .28779603 .054992677 .29577638 .10398865 .37265016 .1619873 .37265016 .18199158 .37265016H.23899842C.20698548 .25186158 .15299988 .13105774 .11099243 .04020691 .102996829 .025222779 .102996829 .023223877 .102996829 .016235352 .102996829-.002746582 .11898804-.0107421879 .13198853-.0107421879 .1619873-.0107421879 .16999817 .017242432 .18199158 .05418396 .19599915 .100097659 .19599915 .10209656 .20899964 .15202332L.2649994 .37265016Z"/>
<path id="font_2_3" d="M.2899933 .35191346C.37199403 .37893678 .42999269 .4490509 .42999269 .52809146 .42999269 .6100464 .34199525 .6660156 .24598694 .6660156 .14498902 .6660156 .068984989 .60606387 .068984989 .53009036 .068984989 .49710084 .09098816 .47808839 .11999512 .47808839 .15098572 .47808839 .17098999 .50009158 .17098999 .5290985 .17098999 .57910159 .12399292 .57910159 .10899353 .57910159 .13999939 .62802127 .20599365 .64100649 .24198914 .64100649 .2829895 .64100649 .33799745 .6190338 .33799745 .5290985 .33799745 .51708987 .33599855 .45906068 .30999757 .4149933 .27999879 .36691285 .24598694 .36390687 .22099304 .36291505 .21299744 .36190797 .18899536 .35990907 .18199158 .35990907 .17399597 .35890199 .16699219 .35791017 .16699219 .3479004 .16699219 .33691407 .17399597 .33691407 .19099427 .33691407H.23498535C.31698609 .33691407 .35398866 .2686615 .35398866 .17037964 .35398866 .034469606 .2849884 .0055389406 .24099732 .0055389406 .19799805 .0055389406 .12298584 .022491456 .08799744 .08137512 .12298584 .07637024 .1539917 .09837341 .1539917 .1363678 .1539917 .17237854 .1269989 .19238281 .09799194 .19238281 .07398987 .19238281 .041992189 .17837525 .041992189 .1343689 .041992189 .043441774 .1349945-.022460938 .24398804-.022460938 .3659973-.022460938 .45700074 .06838989 .45700074 .17037964 .45700074 .252594 .3939972 .33088685 .2899933 .35191346Z"/>
<path id="font_2_4" d="M.2939911 .16503906V.07800293C.2939911 .041992189 .2919922 .0309906 .21798706 .0309906H.19699097V0C.23799134 .0029907227 .2899933 .0029907227 .33198548 .0029907227 .37399293 .0029907227 .4269867 .0029907227 .46798707 0V.0309906H.44699098C.37298585 .0309906 .37098695 .041992189 .37098695 .07800293V.16503906H.47099305V.19602967H.37098695V.65075686C.37098695 .67074587 .37098695 .6767578 .35499574 .6767578 .34599305 .6767578 .34298707 .6767578 .33499146 .66474917L.027999878 .19602967V.16503906H.2939911M.2999878 .19602967H.055999757L.2999878 .5688019V.19602967Z"/>
<path id="font_2_1" d="M.2939911 .64004519C.2939911 .66400149 .2939911 .6660156 .2709961 .6660156 .20899964 .60227969 .12098694 .60227969 .08898926 .60227969V.57128909C.10899353 .57128909 .16799927 .57128909 .21998596 .5972748V.07902527C.21998596 .042999269 .21699524 .0309906 .1269989 .0309906H.09498596V0C.12998963 .0029907227 .21699524 .0029907227 .25698854 .0029907227 .29699708 .0029907227 .38398744 .0029907227 .4189911 0V.0309906H.3869934C.29699708 .0309906 .2939911 .041992189 .2939911 .07902527V.64004519Z"/>
<path id="font_3_3" d="M.48599244 .38136292C.48999024 .39537049 .48999024 .39736939 .48999024 .40437318 .48999024 .42237855 .47599793 .43138124 .46099855 .43138124 .45098878 .43138124 .43499757 .42536927 .42599488 .41036988 .42399598 .405365 .41600038 .37435914 .4119873 .35635377 .40499879 .33035279 .397995 .30334474 .3919983 .27633668L.34700013 .09628296C.34298707 .08126831 .2999878 .011245728 .23399353 .011245728 .18299866 .011245728 .17199707 .055267335 .17199707 .0922699 .17199707 .1382904 .18899536 .20030213 .22299195 .28833009 .23899842 .3293457 .24299622 .3403473 .24299622 .36035157 .24299622 .405365 .21099854 .4423828 .16099549 .4423828 .06599426 .4423828 .0289917 .29733277 .0289917 .28833009 .0289917 .27833558 .038986207 .27833558 .040985109 .27833558 .050994874 .27833558 .051986696 .28033448 .056991579 .29634095 .083999637 .3903656 .12399292 .42037965 .1579895 .42037965 .1659851 .42037965 .18299866 .42037965 .18299866 .3883667 .18299866 .36335755 .17298889 .3373413 .1659851 .31834413 .12599182 .21231079 .10798645 .1552887 .10798645 .10827637 .10798645 .019256592 .17098999-.0107421879 .22999573-.0107421879 .2689972-.0107421879 .30299378 .0062561037 .33099366 .03425598 .31799317-.017745972 .30599977-.06674194 .2659912-.11973572 .23999024-.15385437 .20199585-.18309021 .1559906-.18309021 .14199829-.18309021 .09700012-.18005371 .07998657-.14074707 .09599304-.14074707 .10899353-.14074707 .12298584-.1287384 .1329956-.11973572 .14299011-.10673523 .14299011-.08773804 .14299011-.056747438 .115997318-.052734376 .10598755-.052734376 .08299255-.052734376 .049987794-.068740848 .049987794-.11773682 .049987794-.16796875 .09399414-.20507813 .1559906-.20507813 .25898744-.20507813 .3619995-.11373901 .3899994-.00074768069L.48599244 .38136292Z"/>
<path id="font_2_5" d="M.68699648 .32714845C.70199587 .32714845 .72099307 .32714845 .72099307 .34713746 .72099307 .36714173 .70199587 .36714173 .6879883 .36714173H.08898926C.07499695 .36714173 .055999757 .36714173 .055999757 .34713746 .055999757 .32714845 .07499695 .32714845 .08999634 .32714845H.68699648M.6879883 .13284302C.70199587 .13284302 .72099307 .13284302 .72099307 .15284729 .72099307 .17285156 .70199587 .17285156 .68699648 .17285156H.08999634C.07499695 .17285156 .055999757 .17285156 .055999757 .15284729 .055999757 .13284302 .07499695 .13284302 .08898926 .13284302H.6879883Z"/>
<path id="font_2_8" d="M.20799256 .19424439C.22999573 .19024658 .31199647 .17424011 .31199647 .102249149 .31199647 .051254274 .2769928 .011245728 .19898987 .011245728 .114990238 .011245728 .07899475 .06825256 .05999756 .15324402 .056991579 .1662445 .055999757 .17024231 .04598999 .17024231 .032989503 .17024231 .032989503 .16323853 .032989503 .14524842V.013244629C.032989503-.003753662 .032989503-.0107421879 .04399109-.0107421879 .04899597-.0107421879 .049987794-.009750366 .068984989 .009246826 .070999149 .011245728 .070999149 .013244629 .08898926 .03224182 .1329956-.009750366 .17799378-.0107421879 .19898987-.0107421879 .31399537-.0107421879 .3600006 .056243898 .3600006 .12825012 .3600006 .1812439 .32998658 .21124268 .31799317 .22323609 .2849884 .25523377 .24598694 .26324464 .20399475 .27124024 .147995 .28224183 .08099365 .2952423 .08099365 .35324098 .08099365 .38822938 .10699463 .42922975 .19299317 .42922975 .30299378 .42922975 .30799867 .3392334 .30999757 .3082428 .31098939 .2992401 .31999208 .2992401 .32199098 .2992401 .33499146 .2992401 .33499146 .304245 .33499146 .3232422V.4242401C.33499146 .4412384 .33499146 .4482422 .32398988 .4482422 .31900025 .4482422 .31698609 .4482422 .3039856 .43623353 .30099488 .43223573 .29100038 .42323304 .2869873 .42022706 .24899292 .4482422 .20799256 .4482422 .19299317 .4482422 .070999149 .4482422 .032989503 .38124085 .032989503 .3252411 .032989503 .29023744 .04899597 .26223756 .07598877 .24023438 .10798645 .21424866 .13598633 .2082367 .20799256 .19424439Z"/>
<path id="font_2_6" d="M.1769867 .4423828 .036987306 .43138124V.40037538C.101989749 .40037538 .11099243 .3943634 .11099243 .34532167V.076034549C.11099243 .0309906 .099990848 .0309906 .032989503 .0309906V0C.06498718 .0009918213 .11898804 .0029907227 .14299011 .0029907227 .17799378 .0029907227 .21299744 .0009918213 .24699402 0V.0309906C.18099976 .0309906 .1769867 .035995485 .1769867 .075042728V.4423828M.18099976 .6159363C.18099976 .64793398 .1559906 .6689453 .12799073 .6689453 .09700012 .6689453 .07499695 .64193728 .07499695 .6159363 .07499695 .5889435 .09700012 .5629425 .12799073 .5629425 .1559906 .5629425 .18099976 .5839386 .18099976 .6159363Z"/>
<path id="font_2_7" d="M.10998535 .34429933V.076034549C.10998535 .0309906 .09899902 .0309906 .03199768 .0309906V0C.066986087 .0009918213 .117996219 .0029907227 .14498902 .0029907227 .17098999 .0029907227 .22299195 .0009918213 .25698854 0V.0309906C.18998719 .0309906 .1789856 .0309906 .1789856 .076034549V.2602234C.1789856 .36431886 .25 .42037965 .31399537 .42037965 .3769989 .42037965 .3880005 .36631776 .3880005 .30926515V.076034549C.3880005 .0309906 .3769989 .0309906 .30999757 .0309906V0C.34498597 .0009918213 .3959961 .0029907227 .4229889 .0029907227 .44898988 .0029907227 .5009918 .0009918213 .5349884 0V.0309906C.48298646 .0309906 .45799256 .0309906 .45700074 .061019899V.25221253C.45700074 .3383026 .45700074 .36932374 .42599488 .405365 .4119873 .42237855 .3789978 .4423828 .32099916 .4423828 .24798584 .4423828 .20098877 .39935304 .17298889 .33729554V.4423828L.03199768 .43138124V.40037538C.101989749 .4003601 .10998535 .39335633 .10998535 .34429933Z"/>
<path id="font_3_2" d="M.33399964 .30233766C.33999635 .32835389 .36299134 .42037965 .43299867 .42037965 .43798829 .42037965 .46199037 .42037965 .48298646 .40734864 .45498658 .402359 .43499757 .37734986 .43499757 .35334779 .43499757 .33735658 .44599916 .31835938 .47299195 .31835938 .49499513 .31835938 .5269928 .3363495 .5269928 .37635804 .5269928 .42837525 .46798707 .4423828 .43399049 .4423828 .37599183 .4423828 .34098817 .38935853 .32899476 .36634828 .3039856 .43237306 .25 .4423828 .22099304 .4423828 .116989139 .4423828 .05999756 .3133545 .05999756 .28834535 .05999756 .27833558 .069992069 .27833558 .07199097 .27833558 .07998657 .27833558 .08299255 .28033448 .084991458 .28933717 .11898804 .39535523 .18499756 .42037965 .21899414 .42037965 .23799134 .42037965 .272995 .4113617 .272995 .35334779 .272995 .32235719 .2559967 .25532533 .21899414 .11528015 .20298767 .053268434 .16799927 .011245728 .12399292 .011245728 .117996219 .011245728 .09498596 .011245728 .07398987 .024276734 .09899902 .029266358 .12098694 .05027771 .12098694 .07827759 .12098694 .105270389 .09899902 .11328125 .083999637 .11328125 .053985597 .11328125 .0289917 .08728027 .0289917 .055267335 .0289917 .009246826 .07899475-.0107421879 .12298584-.0107421879 .18899536-.0107421879 .22499085 .059280397 .22799683 .0652771 .23999024 .028274537 .27598573-.0107421879 .33599855-.0107421879 .43899537-.0107421879 .49598695 .118270877 .49598695 .14328003 .49598695 .1532898 .4869995 .1532898 .48399354 .1532898 .47499085 .1532898 .47299195 .14929199 .47099305 .14228821 .43798829 .03527832 .36999513 .011245728 .33799745 .011245728 .29899598 .011245728 .2829895 .043273927 .2829895 .07727051 .2829895 .09927368 .2889862 .121276859 .2999878 .16529846L.33399964 .30233766Z"/>
</defs>
<path transform="matrix(1.00002,0,0,-1.00008,3.7858048,162.69397)" stroke-width=".19925" stroke-linecap="butt" stroke-miterlimit="10" stroke-linejoin="miter" fill="none" stroke="#7f807f" d="M5.814 79.28049V82.11525M24.0792 79.28049V82.11525M42.3444 79.28049V82.11525M60.6096 79.28049V82.11525M78.87482 79.28049V82.11525M97.14003 79.28049V82.11525M115.40523 79.28049V82.11525M133.67044 79.28049V82.11525M151.93566 79.28049V82.11525M170.20085 79.28049V82.11525M188.46607 79.28049V82.11525"/>
<path transform="matrix(1.00002,0,0,-1.00008,3.7858048,162.69397)" stroke-width=".19925" stroke-linecap="butt" stroke-miterlimit="10" stroke-linejoin="miter" fill="none" stroke="#7f807f" d="M5.814 78.57199V82.82373M42.34439 78.57199V82.82373M115.40523 78.57199V82.82373M151.93566 78.57199V82.82373M188.46607 78.57199V82.82373"/>
<path transform="matrix(1.00002,0,0,-1.00008,3.7858048,162.69397)" stroke-width=".19925" stroke-linecap="butt" stroke-miterlimit="10" stroke-linejoin="miter" fill="none" stroke="#7f807f" d="M77.45734 13.44965H80.2923M77.45734 32.66342H80.2923M77.45734 51.8772H80.2923M77.45734 71.09097H80.2923M77.45734 90.30476H80.2923M77.45734 109.51854H80.2923M77.45734 128.73232H80.2923M77.45734 147.9461H80.2923"/>
<path transform="matrix(1.00002,0,0,-1.00008,3.7858048,162.69397)" stroke-width=".19925" stroke-linecap="butt" stroke-miterlimit="10" stroke-linejoin="miter" fill="none" stroke="#7f807f" d="M76.74883 3.84274H81.0008M76.74883 61.48409H81.0008M76.74883 99.91165H81.0008M76.74883 119.12543H81.0008M76.74883 138.33922H81.0008M76.74883 157.553H81.0008"/>
<path transform="matrix(1.00002,0,0,-1.00008,3.7858048,162.69397)" stroke-width=".3985" stroke-linecap="butt" stroke-miterlimit="10" stroke-linejoin="miter" fill="none" stroke="#000000" d="M0 80.69788H192.28754"/>
<path transform="matrix(1.00002,0,0,-1.00008,196.07718,81.98963)" d="M1.99252 0-1.19551 1.59401 0 0-1.19551-1.59401"/>
<path transform="matrix(1.00002,0,0,-1.00008,3.7858048,162.69397)" stroke-width=".3985" stroke-linecap="butt" stroke-miterlimit="10" stroke-linejoin="miter" fill="none" stroke="#000000" d="M78.87482 0V159.40323"/>
<path transform="matrix(0,-1.00008,-1.00002,-0,82.6622,3.2779847)" d="M1.99252 0-1.19551 1.59401 0 0-1.19551-1.59401"/>
<use data-text="&#x2212;" xlink:href="#font_1_1" transform="matrix(9.962799,0,0,-9.963397,.21673584,94.05647)"/>
<use data-text="2" xlink:href="#font_2_2" transform="matrix(9.962799,0,0,-9.963397,7.965889,94.05647)"/>
<use data-text="&#x03c0;" xlink:href="#font_3_1" transform="matrix(9.962799,0,0,-9.963397,12.946991,94.05647)"/>
<use data-text="&#x2212;" xlink:href="#font_1_1" transform="matrix(9.962799,0,0,-9.963397,39.238515,93.44743)"/>
<use data-text="&#x03c0;" xlink:href="#font_3_1" transform="matrix(9.962799,0,0,-9.963397,46.987668,93.44743)"/>
<use data-text="&#x03c0;" xlink:href="#font_3_1" transform="matrix(9.962799,0,0,-9.963397,116.17506,91.92531)"/>
<use data-text="2" xlink:href="#font_2_2" transform="matrix(9.962799,0,0,-9.963397,150.21573,94.05647)"/>
<use data-text="&#x03c0;" xlink:href="#font_3_1" transform="matrix(9.962799,0,0,-9.963397,155.19785,94.05647)"/>
<use data-text="3" xlink:href="#font_2_3" transform="matrix(9.962799,0,0,-9.963397,186.74646,94.05647)"/>
<use data-text="&#x03c0;" xlink:href="#font_3_1" transform="matrix(9.962799,0,0,-9.963397,191.72858,94.05647)"/>
<use data-text="&#x2212;" xlink:href="#font_1_1" transform="matrix(9.962799,0,0,-9.963397,64.28602,161.64589)"/>
<use data-text="4" xlink:href="#font_2_4" transform="matrix(9.962799,0,0,-9.963397,72.03517,161.64589)"/>
<use data-text="&#x2212;" xlink:href="#font_1_1" transform="matrix(9.962799,0,0,-9.963397,64.28602,104.000278)"/>
<use data-text="1" xlink:href="#font_2_1" transform="matrix(9.962799,0,0,-9.963397,72.03517,104.000278)"/>
<use data-text="1" xlink:href="#font_2_1" transform="matrix(9.962799,0,0,-9.963397,72.03517,65.98524)"/>
<use data-text="2" xlink:href="#font_2_2" transform="matrix(9.962799,0,0,-9.963397,72.03517,46.7697)"/>
<use data-text="3" xlink:href="#font_2_3" transform="matrix(9.962799,0,0,-9.963397,72.03517,27.554169)"/>
<use data-text="4" xlink:href="#font_2_4" transform="matrix(9.962799,0,0,-9.963397,72.03517,8.338623)"/>
<path transform="matrix(1.00002,0,0,-1.00008,3.7858048,162.69397)" stroke-width=".99628" stroke-linecap="butt" stroke-miterlimit="10" stroke-linejoin="miter" fill="none" stroke="#0000ff" stroke-opacity=".5" d="M1.61604 73.8819 .97624 72.93338 1.9525 74.43379 2.92877 75.97972 3.90503 77.55795 4.8813 79.15865 5.85756 80.76971 6.83383 82.38042 7.81009 83.97958 8.78636 85.5555 9.76262 87.09758 10.73888 88.59396 11.71513 90.03539 12.6914 91.41031 13.66766 92.70995 14.64394 93.9252 15.6202 95.0469 16.59645 96.06831 17.57272 96.98097 18.54898 97.77852 19.52525 98.456 20.5015 99.0084 21.47777 99.43207 22.45403 99.72374 23.4303 99.88089 24.40656 99.90318 25.38283 99.79022 26.35909 99.54254 27.33536 99.16249 28.31161 98.65218 29.28789 98.01505 30.26413 97.25629 31.24039 96.38092 32.21666 95.39487 33.19292 94.30583 34.16919 93.11977 35.14545 91.84685 36.12172 90.49593 37.09798 89.07507 38.07425 87.5958 39.0505 86.06772 40.02676 84.5018 41.00302 82.90898 41.9793 81.3006 42.95555 79.68875 43.93182 78.08325 44.90808 76.49638 45.88435 74.93892 46.86061 73.422 47.83687 71.95638 48.81314 70.5524 49.78938 69.21994 50.76566 67.96834 51.74191 66.80649 52.71819 65.74187 53.69444 64.7829 54.67072 63.93692 55.64697 63.20833 56.62325 62.60289 57.5995 62.12466 58.57578 61.7773 59.55203 61.5644 60.52829 61.48563 61.50455 61.54211 62.4808 61.73328 63.45708 62.05762 64.43333 62.51395 65.4096 63.099 66.38586 63.80722 67.36214 64.63457 68.3384 65.57469 69.31467 66.62204 70.29091 67.76833 71.26718 69.00589 72.24344 70.32512 73.21971 71.71811 74.19597 73.17393 75.17224 74.68338 76.1485 76.2349 77.12477 77.81734 78.10103 79.42015 79.07729 81.03238 80.05354 82.64192 81.0298 84.23763 82.00607 85.80911 82.98233 87.34448 83.9586 88.83278 84.93486 90.26364 85.91113 91.62704 86.88739 92.91379 87.86366 94.11427 88.83992 95.2208 89.81618 96.22452 90.79243 97.11815 91.76869 97.89688 92.74496 98.55457 93.72124 99.08641 94.6975 99.48894 95.67375 99.75833 96.65002 99.89339 97.62628 99.89377 98.60262 99.75928 99.57877 99.4901 100.5551 99.08815 101.53127 98.55688 102.5076 97.89958 103.48392 97.1218 104.4601 96.22816 105.43642 95.22482 106.4126 94.1187 107.38892 92.91841 108.36523 91.63205 109.3414 90.26921 110.31772 88.83836 111.2939 87.35043 112.27022 85.81506 113.24655 84.24396 114.22272 82.64806 115.19905 81.03833 116.17522 79.42668 117.15154 77.82349 118.12787 76.24065 119.10405 74.68893 120.08035 73.1795 121.05653 71.7237 122.03287 70.33049 123.00919 69.0105 123.98534 67.77275 124.96167 66.62607 125.93784 65.57855 126.91417 64.63803 127.89049 63.8101 128.86669 63.1013 129.84297 62.51607 130.81916 62.05896 131.79549 61.73425 132.7718 61.5425 133.74799 61.48523 134.7243 61.56383 135.70047 61.77632 136.6768 62.12314 137.65312 62.60078 138.6293 63.20584 139.6056 63.93384 140.58179 64.77943 141.5581 65.738 142.53444 66.80208 143.51062 67.96393 144.48694 69.21513 145.4631 70.54723 146.43944 71.95079 147.41577 73.41641 148.39192 74.93315 149.36824 76.49043 150.34442 78.0771 151.32074 79.6826 152.29706 81.29446 153.27324 82.90285 154.24958 84.49567 155.22573 86.06158 156.20207 87.59024 157.1784 89.06949 158.15456 90.49054 159.13086 91.84186 160.10704 93.11552 161.08338 94.3014 162.0597 95.39102 163.03588 96.37747 164.01219 97.25304 164.98838 98.01216 165.96469 98.65007 166.94101 99.16077 167.91719 99.5416 168.89351 99.78944 169.86968 99.9028 170.84601 99.88147 171.82233 99.7245 172.7985 99.43341 173.77483 99.01053 174.751 98.45811 175.72733 97.78142 176.70365 96.98424 177.67981 96.07214 178.65615 95.05093 179.6323 93.92982 180.60863 92.71494 181.58495 91.4157 182.56113 90.04094 183.53745 88.59952 184.51363 87.10355 185.48996 85.56145 186.46628 83.98552 187.44246 82.38657 188.41878 80.77588 189.39493 79.1648 190.37125 77.56429 191.34758 75.98569 192.32376 74.43993 193.30008 72.93895 192.66037 73.88734"/>
<path transform="matrix(-.5593512,.8289863,.82893666,.55938479,5.401897,88.80616)" d="M2.8892 0-1.73352 2.31136 0 0-1.73352-2.31136" fill="#0000ff" fill-opacity=".5"/>
<path transform="matrix(.5592912,.82901629,.8289666,-.55932477,196.45005,88.8007)" d="M2.8892 0-1.73352 2.31136 0 0-1.73352-2.31136" fill="#0000ff" fill-opacity=".5"/>
<use data-text="y" xlink:href="#font_3_3" transform="matrix(9.962799,0,0,-9.963397,201.88477,93.554439)" fill="#0000ff" fill-opacity=".5"/>
<use data-text="=" xlink:href="#font_2_5" transform="matrix(9.962799,0,0,-9.963397,209.89493,93.554439)" fill="#0000ff" fill-opacity=".5"/>
<use data-text="s" xlink:href="#font_2_8" transform="matrix(9.962799,0,0,-9.963397,220.39572,93.554439)" fill="#0000ff" fill-opacity=".5"/>
<use data-text="i" xlink:href="#font_2_6" transform="matrix(9.962799,0,0,-9.963397,224.32108,93.554439)" fill="#0000ff" fill-opacity=".5"/>
<use data-text="n" xlink:href="#font_2_7" transform="matrix(9.962799,0,0,-9.963397,227.08077,93.554439)" fill="#0000ff" fill-opacity=".5"/>
<use data-text="x" xlink:href="#font_3_2" transform="matrix(9.962799,0,0,-9.963397,234.30342,93.554439)" fill="#0000ff" fill-opacity=".5"/>
<path transform="matrix(1.00002,0,0,-1.00008,3.7858048,162.69397)" stroke-width=".99628" stroke-linecap="butt" stroke-miterlimit="10" stroke-linejoin="miter" fill="none" stroke="#ff0000" d="M.4806 114.69261 .97624 111.75578 1.9525 105.75417 2.92877 99.57042 3.90503 93.25752 4.8813 86.85474 5.85756 80.41043 6.83383 73.96767 7.81009 67.57101 8.78636 61.26735 9.76262 55.09895 10.73888 49.11348 11.71513 43.34781 12.6914 37.84805 13.66766 32.64957 14.64394 27.7885 15.6202 23.3017 16.59645 19.21606 17.57272 15.56544 18.54898 12.3752 19.52525 9.66528 20.5015 7.4557 21.47777 5.76105 22.45403 4.59438 23.4303 3.96571 24.40656 3.87656 25.38283 4.32846 26.35909 5.31914 27.33536 6.83931 28.31161 8.8806 29.28789 11.42911 30.26413 14.46413 31.24039 17.96564 32.21666 21.90985 33.19292 26.26599 34.16919 31.01025 35.14545 36.10191 36.12172 41.5056 37.09798 47.18903 38.07425 53.1061 39.0505 59.2184 40.02676 65.48209 41.00302 71.85338 41.9793 78.28691 42.95555 84.7343 43.93182 91.15631 44.90808 97.50378 45.88435 103.73366 46.86061 109.80136 47.83687 115.66386 48.81314 121.27968 49.78938 126.60957 50.76566 131.61592 51.74191 136.26335 52.71819 140.52188 53.69444 144.35773 54.67072 147.74166 55.64697 150.656 56.62325 153.07772 57.5995 154.99063 58.57578 156.38018 59.55203 157.23174 60.52829 157.54683 61.50455 157.32088 62.4808 156.55619 63.45708 155.25887 64.43333 153.43355 65.4096 151.0933 66.38586 148.26044 67.36214 144.95105 68.3384 141.19054 69.31467 137.00116 70.29091 132.41597 71.26718 127.46574 72.24344 122.18886 73.21971 116.61687 74.19597 110.79356 75.17224 104.75583 76.1485 98.54976 77.12477 92.21999 78.10103 85.80873 79.07729 79.3598 80.05354 72.92166 81.0298 66.53883 82.00607 60.25287 82.98233 54.11137 83.9586 48.15817 84.93486 42.43478 85.91113 36.98112 86.88739 31.83415 87.86366 27.03224 88.83992 22.60616 89.81618 18.59123 90.79243 15.01671 91.76869 11.90176 92.74496 9.27103 93.72124 7.14366 94.6975 5.53355 95.67375 4.45604 96.65002 3.91574 97.62628 3.91422 98.60262 4.4522 99.57877 5.52893 100.5551 7.13675 101.53127 9.2618 102.5076 11.891 103.48392 15.0021 104.4601 18.57664 105.43642 22.59001 106.4126 27.01456 107.38892 31.81569 108.36523 36.96114 109.3414 42.41248 110.31772 48.13588 111.2939 54.08755 112.27022 60.22905 113.24655 66.51349 114.22272 72.89706 115.19905 79.33598 116.17522 85.7826 117.15154 92.1954 118.12787 98.5267 119.10405 104.73354 120.08035 110.77127 121.05653 116.59459 122.03287 122.16734 123.00919 127.4473 123.98534 132.39832 124.96167 136.98502 125.93784 141.17516 126.91417 144.93723 127.89049 148.2489 128.86669 151.08408 129.84297 153.4251 130.81916 155.25348 131.79549 156.55233 132.7718 157.31934 133.74799 157.54837 134.7243 157.23404 135.70047 156.38402 136.6768 154.99678 137.65312 153.08617 138.6293 150.666 139.6056 147.75397 140.58179 144.37155 141.5581 140.53726 142.53444 136.28104 143.51062 131.63359 144.48694 126.6288 145.4631 121.30043 146.43944 115.68616 147.41577 109.82364 148.39192 103.7567 149.36824 97.5276 150.34442 91.1809 151.32074 84.75888 152.29706 78.31151 153.27324 71.87798 154.24958 65.50667 155.22573 59.24298 156.20207 53.1284 157.1784 47.21132 158.15456 41.52711 159.13086 36.1219 160.10704 31.02718 161.08338 26.28366 162.0597 21.92522 163.03588 17.97946 164.01219 14.47719 164.98838 11.44064 165.96469 8.88904 166.94101 6.84625 167.91719 5.32297 168.89351 4.33154 169.86968 3.8781 170.84601 3.96341 171.82233 4.59131 172.7985 5.75566 173.77483 7.44725 174.751 9.65683 175.72733 12.36366 176.70365 15.55238 177.67981 19.2007 178.65615 23.28555 179.6323 27.77003 180.60863 32.6296 181.58495 37.82654 182.56113 43.32553 183.53745 49.09119 184.51363 55.07513 185.48996 61.24352 186.46628 67.54718 187.44246 73.94307 188.41878 80.38583 189.39493 86.83014 190.37125 93.23218 191.34758 99.54657 192.32376 105.72958 193.30008 111.7335 193.79572 114.6711"/>
<path transform="matrix(-.16635335,-.9860989,-.98603978,.16636332,4.266434,47.992189)" d="M2.8892 0-1.73352 2.31136 0 0-1.73352-2.31136" fill="#ff0000"/>
<path transform="matrix(.16632334,-.9860989,-.98603978,-.1663333,197.58539,48.013704)" d="M2.8892 0-1.73352 2.31136 0 0-1.73352-2.31136" fill="#ff0000"/>
<use data-text="y" xlink:href="#font_3_3" transform="matrix(9.962799,0,0,-9.963397,201.88477,47.52276)" fill="#ff0000"/>
<use data-text="=" xlink:href="#font_2_5" transform="matrix(9.962799,0,0,-9.963397,209.89493,47.52276)" fill="#ff0000"/>
<use data-text="&#x2212;" xlink:href="#font_1_1" transform="matrix(9.962799,0,0,-9.963397,220.41114,47.52276)" fill="#ff0000"/>
<use data-text="4" xlink:href="#font_2_4" transform="matrix(9.962799,0,0,-9.963397,228.1593,47.52276)" fill="#ff0000"/>
<use data-text="s" xlink:href="#font_2_8" transform="matrix(9.962799,0,0,-9.963397,234.79453,47.52276)" fill="#ff0000"/>
<use data-text="i" xlink:href="#font_2_6" transform="matrix(9.962799,0,0,-9.963397,238.71987,47.52276)" fill="#ff0000"/>
<use data-text="n" xlink:href="#font_2_7" transform="matrix(9.962799,0,0,-9.963397,241.47957,47.52276)" fill="#ff0000"/>
<use data-text="x" xlink:href="#font_3_2" transform="matrix(9.962799,0,0,-9.963397,248.69371,47.52276)" fill="#ff0000"/>
<use data-text="x" xlink:href="#font_3_2" transform="matrix(9.962799,0,0,-9.963397,188.8555,78.46923)"/>
<use data-text="y" xlink:href="#font_3_3" transform="matrix(9.962799,0,0,-9.963397,86.18245,9.095688)"/>
</svg>
