<svg xmlns="http://www.w3.org/2000/svg" xmlns:xlink="http://www.w3.org/1999/xlink" xmlns:inkscape="http://www.inkscape.org/namespaces/inkscape" version="1.1" width="207" height="171" viewBox="0 0 207 171">
<defs>
<path id="font_1_1" d="M.6589966 .23046875C.6759949 .23046875 .69400027 .23046875 .69400027 .25045777 .69400027 .27046205 .6759949 .27046205 .6589966 .27046205H.117996219C.100997928 .27046205 .08299255 .27046205 .08299255 .25045777 .08299255 .23046875 .100997928 .23046875 .117996219 .23046875H.6589966Z"/>
<path id="font_2_3" d="M.1269989 .07699585 .23298645 .18003845C.3889923 .31811524 .44898988 .3721466 .44898988 .47216798 .44898988 .5860901 .35899354 .6660156 .23699951 .6660156 .12399292 .6660156 .049987794 .57411196 .049987794 .48516847 .049987794 .4291687 .099990848 .4291687 .102996829 .4291687 .11999512 .4291687 .15499878 .44117738 .15499878 .48217774 .15499878 .5081787 .13699341 .5341797 .101989749 .5341797 .09399414 .5341797 .09199524 .5341797 .08898926 .5331726 .11199951 .59806826 .1659851 .63500979 .22399903 .63500979 .31498719 .63500979 .35798646 .5541382 .35798646 .47216798 .35798646 .39215089 .30799867 .31311036 .25299073 .25108338L.06098938 .036987306C.049987794 .025985718 .049987794 .023986817 .049987794 0H.42099L.44898988 .17404175H.42399598C.4189911 .14402771 .4119873 .1000061 .4019928 .084991458 .394989 .07699585 .32899476 .07699585 .30699159 .07699585H.1269989Z"/>
<path id="font_3_1" d="M.2649994 .37265016H.37799073C.34498597 .22489929 .33599855 .18196106 .33599855 .11508179 .33599855 .100097659 .33599855 .073150638 .34399415 .03919983 .35398866-.0047454836 .36499024-.0107421879 .37998963-.0107421879 .3999939-.0107421879 .42099 .007247925 .42099 .02722168 .42099 .033218385 .42099 .035202028 .4149933 .049179079 .38598634 .12106323 .38598634 .18595886 .38598634 .21391297 .38598634 .26683045 .3929901 .32073976 .4039917 .37265016H.5179901C.5309906 .37265016 .5669861 .37265016 .5669861 .406662 .5669861 .43066407 .54599 .43066407 .5269928 .43066407H.19198609C.16999817 .43066407 .13198853 .43066407 .08799744 .38365174 .052993776 .34469605 .026992798 .29878236 .026992798 .29379273 .026992798 .29278565 .026992798 .28379823 .038986207 .28379823 .04699707 .28379823 .04899597 .28779603 .054992677 .29577638 .10398865 .37265016 .1619873 .37265016 .18199158 .37265016H.23899842C.20698548 .25186158 .15299988 .13105774 .11099243 .04020691 .102996829 .025222779 .102996829 .023223877 .102996829 .016235352 .102996829-.002746582 .11898804-.0107421879 .13198853-.0107421879 .1619873-.0107421879 .16999817 .017242432 .18199158 .05418396 .19599915 .100097659 .19599915 .10209656 .20899964 .15202332L.2649994 .37265016Z"/>
<path id="font_2_2" d="M.2939911 .64004519C.2939911 .66400149 .2939911 .6660156 .2709961 .6660156 .20899964 .60227969 .12098694 .60227969 .08898926 .60227969V.57128909C.10899353 .57128909 .16799927 .57128909 .21998596 .5972748V.07902527C.21998596 .042999269 .21699524 .0309906 .1269989 .0309906H.09498596V0C.12998963 .0029907227 .21699524 .0029907227 .25698854 .0029907227 .29699708 .0029907227 .38398744 .0029907227 .4189911 0V.0309906H.3869934C.29699708 .0309906 .2939911 .041992189 .2939911 .07902527V.64004519Z"/>
<path id="font_2_1" d="M.45999146 .31976319C.45999146 .39982606 .45498658 .47988893 .41999818 .5539398 .37399293 .65000918 .2919922 .6660156 .25 .6660156 .18998719 .6660156 .116989139 .64001467 .07598877 .54693606 .04399109 .47789 .038986207 .39982606 .038986207 .31976319 .038986207 .24472046 .042999269 .15464783 .083999637 .07859802 .1269989-.0024719239 .19999695-.022460938 .24899292-.022460938 .30299378-.022460938 .3789978-.0014648438 .4229889 .09359741 .45498658 .16265869 .45999146 .2407074 .45999146 .31976319M.24899292-.00047302247C.20999146-.00047302247 .15098572 .024551392 .1329956 .12062073 .12199402 .18066406 .12199402 .2727356 .12199402 .3317871 .12199402 .39582826 .12199402 .46188355 .12998963 .5159149 .14898682 .63500979 .22399903 .64401248 .24899292 .64401248 .28199769 .64401248 .34799195 .6259918 .36698915 .52693179 .3769989 .47088624 .3769989 .39482118 .3769989 .3317871 .3769989 .25672914 .3769989 .18867493 .3659973 .12461853 .35099793 .029556275 .2939911-.00047302247 .24899292-.00047302247Z"/>
<path id="font_2_4" d="M.44898988 .20022583C.44898988 .3193512 .36698915 .41944886 .25898744 .41944886 .21099854 .41944886 .16799927 .40345765 .13198853 .36842347V.5637665C.1519928 .5577698 .18499756 .55078127 .21699524 .55078127 .33999635 .55078127 .4099884 .6417694 .4099884 .6547699 .4099884 .6607666 .40699769 .6657715 .3999939 .6657715 .39898683 .6657715 .39698792 .6657715 .3919983 .66278079 .37199403 .6537781 .32299806 .6337738 .2559967 .6337738 .21598816 .6337738 .16999817 .6407776 .12298584 .6617737 .114990238 .66477969 .11299133 .66477969 .11099243 .66477969 .100997928 .66477969 .100997928 .6567688 .100997928 .6407776V.34439088C.100997928 .32637025 .100997928 .31835938 .114990238 .31835938 .12199402 .31835938 .12399292 .32136537 .12799073 .32736207 .13899231 .3433838 .17599488 .39746095 .25698854 .39746095 .30899049 .39746095 .33399964 .35139466 .34199525 .33337403 .35798646 .29632569 .3600006 .25727845 .3600006 .20722962 .3600006 .17222595 .3600006 .11222839 .33599855 .07035828 .31199647 .031463624 .2749939 .0055389406 .22898865 .0055389406 .1559906 .0055389406 .09899902 .058380128 .08198547 .11723328 .084991458 .1162262 .08799744 .115234378 .09899902 .115234378 .13198853 .115234378 .14898682 .14022827 .14898682 .16423035 .14898682 .18823242 .13198853 .21322632 .09899902 .21322632 .084991458 .21322632 .049987794 .20622254 .049987794 .16023255 .049987794 .07434082 .11898804-.022460938 .23098755-.022460938 .34700013-.022460938 .44898988 .073349 .44898988 .20022583Z"/>
<path id="font_3_2" d="M.33399964 .30233766C.33999635 .32835389 .36299134 .42037965 .43299867 .42037965 .43798829 .42037965 .46199037 .42037965 .48298646 .40734864 .45498658 .402359 .43499757 .37734986 .43499757 .35334779 .43499757 .33735658 .44599916 .31835938 .47299195 .31835938 .49499513 .31835938 .5269928 .3363495 .5269928 .37635804 .5269928 .42837525 .46798707 .4423828 .43399049 .4423828 .37599183 .4423828 .34098817 .38935853 .32899476 .36634828 .3039856 .43237306 .25 .4423828 .22099304 .4423828 .116989139 .4423828 .05999756 .3133545 .05999756 .28834535 .05999756 .27833558 .069992069 .27833558 .07199097 .27833558 .07998657 .27833558 .08299255 .28033448 .084991458 .28933717 .11898804 .39535523 .18499756 .42037965 .21899414 .42037965 .23799134 .42037965 .272995 .4113617 .272995 .35334779 .272995 .32235719 .2559967 .25532533 .21899414 .11528015 .20298767 .053268434 .16799927 .011245728 .12399292 .011245728 .117996219 .011245728 .09498596 .011245728 .07398987 .024276734 .09899902 .029266358 .12098694 .05027771 .12098694 .07827759 .12098694 .105270389 .09899902 .11328125 .083999637 .11328125 .053985597 .11328125 .0289917 .08728027 .0289917 .055267335 .0289917 .009246826 .07899475-.0107421879 .12298584-.0107421879 .18899536-.0107421879 .22499085 .059280397 .22799683 .0652771 .23999024 .028274537 .27598573-.0107421879 .33599855-.0107421879 .43899537-.0107421879 .49598695 .118270877 .49598695 .14328003 .49598695 .1532898 .4869995 .1532898 .48399354 .1532898 .47499085 .1532898 .47299195 .14929199 .47099305 .14228821 .43798829 .03527832 .36999513 .011245728 .33799745 .011245728 .29899598 .011245728 .2829895 .043273927 .2829895 .07727051 .2829895 .09927368 .2889862 .121276859 .2999878 .16529846L.33399964 .30233766Z"/>
<path id="font_3_3" d="M.48599244 .38136292C.48999024 .39537049 .48999024 .39736939 .48999024 .40437318 .48999024 .42237855 .47599793 .43138124 .46099855 .43138124 .45098878 .43138124 .43499757 .42536927 .42599488 .41036988 .42399598 .405365 .41600038 .37435914 .4119873 .35635377 .40499879 .33035279 .397995 .30334474 .3919983 .27633668L.34700013 .09628296C.34298707 .08126831 .2999878 .011245728 .23399353 .011245728 .18299866 .011245728 .17199707 .055267335 .17199707 .0922699 .17199707 .1382904 .18899536 .20030213 .22299195 .28833009 .23899842 .3293457 .24299622 .3403473 .24299622 .36035157 .24299622 .405365 .21099854 .4423828 .16099549 .4423828 .06599426 .4423828 .0289917 .29733277 .0289917 .28833009 .0289917 .27833558 .038986207 .27833558 .040985109 .27833558 .050994874 .27833558 .051986696 .28033448 .056991579 .29634095 .083999637 .3903656 .12399292 .42037965 .1579895 .42037965 .1659851 .42037965 .18299866 .42037965 .18299866 .3883667 .18299866 .36335755 .17298889 .3373413 .1659851 .31834413 .12599182 .21231079 .10798645 .1552887 .10798645 .10827637 .10798645 .019256592 .17098999-.0107421879 .22999573-.0107421879 .2689972-.0107421879 .30299378 .0062561037 .33099366 .03425598 .31799317-.017745972 .30599977-.06674194 .2659912-.11973572 .23999024-.15385437 .20199585-.18309021 .1559906-.18309021 .14199829-.18309021 .09700012-.18005371 .07998657-.14074707 .09599304-.14074707 .10899353-.14074707 .12298584-.1287384 .1329956-.11973572 .14299011-.10673523 .14299011-.08773804 .14299011-.056747438 .115997318-.052734376 .10598755-.052734376 .08299255-.052734376 .049987794-.068740848 .049987794-.11773682 .049987794-.16796875 .09399414-.20507813 .1559906-.20507813 .25898744-.20507813 .3619995-.11373901 .3899994-.00074768069L.48599244 .38136292Z"/>
</defs>
<path transform="matrix(1.00005,0,0,-1.00006,8.079704,166.6002)" stroke-width=".19925" stroke-linecap="butt" stroke-miterlimit="10" stroke-linejoin="miter" fill="none" stroke="#7f807f" d="M1.52171 79.3462V82.18086M13.47325 79.3462V82.18086M25.42479 79.3462V82.18086M37.37634 79.3462V82.18086M49.32788 79.3462V82.18086M61.27942 79.3462V82.18086M73.23096 79.3462V82.18086M85.18251 79.3462V82.18086M97.13405 79.3462V82.18086M109.0856 79.3462V82.18086M121.03714 79.3462V82.18086M132.9887 79.3462V82.18086M144.94023 79.3462V82.18086M156.89179 79.3462V82.18086M168.84334 79.3462V82.18086M180.79488 79.3462V82.18086M192.74643 79.3462V82.18086"/>
<path transform="matrix(1.00005,0,0,-1.00006,8.079704,166.6002)" stroke-width=".19925" stroke-linecap="butt" stroke-miterlimit="10" stroke-linejoin="miter" fill="none" stroke="#7f807f" d="M1.52171 78.63774V82.88931M49.32788 78.63774V82.88931M144.94023 78.63774V82.88931M192.74643 78.63774V82.88931"/>
<path transform="matrix(1.00005,0,0,-1.00006,8.079704,166.6002)" stroke-width=".19925" stroke-linecap="butt" stroke-miterlimit="10" stroke-linejoin="miter" fill="none" stroke="#7f807f" d="M95.00816 .06534H99.25996M95.00816 40.41444H99.25996M95.00816 121.11263H99.25996M95.00816 161.46172H99.25996"/>
<path transform="matrix(1.00005,0,0,-1.00006,8.079704,166.6002)" stroke-width=".3985" stroke-linecap="butt" stroke-miterlimit="10" stroke-linejoin="miter" fill="none" stroke="#000000" d="M0 80.76353H192.2756"/>
<path transform="matrix(1.00005,0,0,-1.00006,200.3649,85.83183)" d="M1.99252 0-1.19551 1.59401 0 0-1.19551-1.59401"/>
<path transform="matrix(1.00005,0,0,-1.00006,8.079704,166.6002)" stroke-width=".3985" stroke-linecap="butt" stroke-miterlimit="10" stroke-linejoin="miter" fill="none" stroke="#000000" d="M97.13405 .06534V159.4692"/>
<path transform="matrix(0,-1.00006,-1.00005,-0,105.218608,7.1214449)" d="M1.99252 0-1.19551 1.59401 0 0-1.19551-1.59401"/>
<use data-text="&#x2212;" xlink:href="#font_1_1" transform="matrix(9.963098,0,0,-9.963197,.21730805,97.899089)"/>
<use data-text="2" xlink:href="#font_2_3" transform="matrix(9.963098,0,0,-9.963197,7.9666979,97.899089)"/>
<use data-text="&#x03c0;" xlink:href="#font_3_1" transform="matrix(9.963098,0,0,-9.963197,12.947945,97.899089)"/>
<use data-text="&#x2212;" xlink:href="#font_1_1" transform="matrix(9.963098,0,0,-9.963197,50.516828,97.29005)"/>
<use data-text="&#x03c0;" xlink:href="#font_3_1" transform="matrix(9.963098,0,0,-9.963197,58.266218,97.29005)"/>
<use data-text="&#x03c0;" xlink:href="#font_3_1" transform="matrix(9.963098,0,0,-9.963197,150.00879,95.76795)"/>
<use data-text="2" xlink:href="#font_2_3" transform="matrix(9.963098,0,0,-9.963197,195.32605,97.89809)"/>
<use data-text="&#x03c0;" xlink:href="#font_3_1" transform="matrix(9.963098,0,0,-9.963197,200.30731,97.89809)"/>
<use data-text="&#x2212;" xlink:href="#font_1_1" transform="matrix(9.963098,0,0,-9.963197,81.86039,169.33037)"/>
<use data-text="1" xlink:href="#font_2_2" transform="matrix(9.963098,0,0,-9.963197,89.60978,169.33037)"/>
<use data-text="0" xlink:href="#font_2_1" transform="matrix(9.963098,0,0,-9.963197,94.591327,169.33037)"/>
<use data-text="&#x2212;" xlink:href="#font_1_1" transform="matrix(9.963098,0,0,-9.963197,86.841648,128.97895)"/>
<use data-text="5" xlink:href="#font_2_4" transform="matrix(9.963098,0,0,-9.963197,94.591037,128.97895)"/>
<use data-text="5" xlink:href="#font_2_4" transform="matrix(9.963098,0,0,-9.963197,94.59103,48.69113)"/>
<use data-text="1" xlink:href="#font_2_2" transform="matrix(9.963098,0,0,-9.963197,89.60978,8.339706)"/>
<use data-text="0" xlink:href="#font_2_1" transform="matrix(9.963098,0,0,-9.963197,94.59133,8.339706)"/>
<path transform="matrix(1.00005,0,0,-1.00006,8.079704,166.6002)" stroke-width=".99628" stroke-linecap="butt" stroke-miterlimit="10" stroke-linejoin="miter" fill="none" stroke="#0000ff" d="M4.41092 78.74608 1.63991 78.74591 1.75812 78.74583 1.87631 78.74544 1.99452 78.74493 2.11272 78.74446 2.23093 78.74373 2.34912 78.743 2.46733 78.74203 2.58554 78.74098 2.70374 78.73994 2.82195 78.73865 2.94014 78.7372 3.05835 78.73558 3.17656 78.73398 3.29477 78.7322 3.41296 78.73035 3.53117 78.72824 3.64938 78.72615 3.76758 78.7238 3.88579 78.72147 4.00398 78.71887 4.1222 78.71614 4.2404 78.71332 4.3586 78.71048 4.4768 78.70741 4.595 78.7041 4.71321 78.70073 4.8314 78.69734 4.94962 78.69377 5.06781 78.68991 5.18602 78.68611 5.30423 78.68207 5.42242 78.67787 5.54065 78.67351 5.65884 78.6691 5.77705 78.66458 5.89525 78.65965 6.01346 78.65488 6.13167 78.64963 6.24986 78.64462 6.36807 78.63924 6.48627 78.63365 6.60448 78.62802 6.72267 78.62204 6.84088 78.61615 6.95909 78.60986 7.07729 78.60373 7.1955 78.5971 7.31369 78.59041 7.4319 78.58362 7.5501 78.5766 7.6683 78.5695 7.7865 78.562 7.90472 78.5545 8.02293 78.54675 8.14113 78.53883 8.25934 78.53067 8.37753 78.5223 8.49574 78.51384 8.61395 78.50511 8.73215 78.49623 8.85036 78.48703 8.96855 78.47774 9.08676 78.46808 9.20496 78.45847 9.32317 78.4483 9.44136 78.43813 9.55957 78.42764 9.67778 78.4169 9.79597 78.406 9.91418 78.39479 10.03238 78.3834 10.15059 78.37163 10.2688 78.35977 10.38701 78.34734 10.5052 78.3349 10.62341 78.32207 10.74162 78.3091 10.85982 78.29578 10.97803 78.28206 11.09622 78.26819 11.21443 78.25381 11.33264 78.23938 11.45084 78.22435 11.56905 78.20918 11.68724 78.19354 11.80545 78.17755 11.92365 78.1614 12.04185 78.14471 12.16005 78.12769 12.27826 78.11017 12.39647 78.09242 12.51468 78.07425 12.63289 78.05562 12.75108 78.0364 12.8693 78.01712 12.98749 77.99727 13.1057 77.9767 13.2239 77.95587 13.3421 77.93448 13.46031 77.9128 13.5785 77.89026 13.69672 77.86751 13.81491 77.84395 13.93312 77.82005 14.05133 77.79544 14.16953 77.77019 14.28773 77.74452 14.40593 77.7179 14.52414 77.69095 14.64235 77.6631 14.76054 77.63478 14.87877 77.60556 14.99696 77.57555 15.11517 77.54489 15.23338 77.51349 15.35158 77.4812 15.46979 77.44797 15.58797 77.41415 15.70619 77.37904 15.8244 77.34322 15.94258 77.30626 16.06079 77.26851 16.17899 77.22943 16.2972 77.1895 16.4154 77.14825 16.5336 77.1058 16.65181 77.06247 16.77 77.01736 16.88821 76.97134 17.00642 76.92351 17.12462 76.87468 17.24284 76.82416 17.36104 76.77194 17.47925 76.71828 17.59746 76.66277 17.71565 76.60564 17.83386 76.54623 17.95206 76.48506 18.07027 76.42189 18.18848 76.35652 18.30667 76.28888 18.42488 76.21886 18.54308 76.14645 18.66129 76.07109 18.7795 75.99338 18.89769 75.9122 19.0159 75.8285 19.13408 75.7412 19.2523 75.65033 19.37051 75.55608 19.4887 75.45763 19.60692 75.35553 19.72511 75.24876 19.84332 75.13756 19.96153 75.02121 20.07973 74.89984 20.19794 74.77274 20.31613 74.63925 20.43434 74.50014 20.55255 74.35295 20.67075 74.1993 20.78896 74.0371 20.90715 73.86699 21.02536 73.68622 21.14357 73.49657 21.26176 73.29596 21.37997 73.08267 21.49817 72.85721 21.61638 72.61649 21.73459 72.36139 21.85278 72.08847 21.97101 71.79668 22.0892 71.48436 22.20741 71.1493 22.32562 70.78802 22.44382 70.398 22.56203 69.97514 22.68022 69.515 22.79843 69.01501 22.91664 68.46649 23.03482 67.86424 23.15305 67.19736 23.27122 66.45938 23.38943 65.6322 23.50764 64.70604 23.62584 63.65495 23.74405 62.45633 23.86224 61.07736 23.98045 59.47374 24.09866 57.57895 24.21687 55.31616 24.33508 52.56677 24.45328 49.14195 24.57149 44.75761 24.6897 38.97801 24.80789 30.95015 24.9261 19.16095 25.02644 2.95438"/>
<path transform="matrix(-1.00005,-0,0,1.00006,12.490845,87.8494)" d="M2.8892 0-1.73352 2.31136 0 0-1.73352-2.31136" fill="#0000ff"/>
<path transform="matrix(.0061803089,.99999997,.9999899,-.0061803709,33.107385,163.64565)" d="M2.8892 0-1.73352 2.31136 0 0-1.73352-2.31136" fill="#0000ff"/>
<path transform="matrix(1.00005,0,0,-1.00006,8.079704,166.6002)" stroke-width=".99628" stroke-linecap="butt" stroke-miterlimit="10" stroke-linejoin="miter" fill="none" stroke="#0000ff" d="M25.82726 158.63808 26.04164 130.5648 26.27805 116.76944 26.51445 108.96028 26.75085 103.9481 26.98726 100.44969 27.22366 97.86928 27.46007 95.89258 27.69647 94.3297 27.93289 93.06137 28.16931 92.01205 28.40572 91.12904 28.64212 90.37775 28.87852 89.73038 29.11493 89.16606 29.35133 88.67018 29.58775 88.23174 29.82416 87.84035 30.06056 87.48996 30.29697 87.17363 30.53339 86.88747 30.76979 86.62721 31.0062 86.3895 31.24261 86.17152 31.47902 85.97098 31.71542 85.78601 31.95183 85.61485 32.18823 85.45587 32.42464 85.30821 32.66104 85.17046 32.89748 85.04199 33.13388 84.92142 33.37029 84.80878 33.60669 84.7029 33.8431 84.6034 34.0795 84.50969 34.3159 84.42117 34.5523 84.33765 34.78871 84.25874 35.02513 84.18384 35.26155 84.1129 35.49796 84.04585 35.73436 83.98201 35.97076 83.9215 36.20717 83.86394 36.44357 83.80916 36.68 83.75687 36.9164 83.707 37.1528 83.65953 37.3892 83.61426 37.62563 83.57101 37.86203 83.52986 38.09843 83.49065 38.33485 83.4528 38.57126 83.41689 38.80766 83.38234 39.04407 83.3495 39.28047 83.31787 39.51688 83.28767 39.75328 83.25887 39.98972 83.23128 40.22612 83.20499 40.46252 83.1797 40.69893 83.15543 40.93533 83.13226 41.17174 83.11015 41.40814 83.08893 41.64456 83.06876 41.88097 83.04932 42.11737 83.03082 42.35379 83.01323 42.5902 82.99637 42.8266 82.9803 43.063 82.96506 43.29941 82.95045 43.53581 82.93665 43.77223 82.92334 44.00864 82.9109 44.24504 82.89905 44.48145 82.88782 44.71786 82.87726 44.95427 82.8674 45.19067 82.85797 45.4271 82.84918 45.6635 82.84094 45.8999 82.83328 46.1363 82.82617 46.37271 82.81964 46.60912 82.81374 46.84552 82.80818 47.08195 82.80325 47.31836 82.79881 47.55476 82.79486 47.79117 82.79147 48.02757 82.7884 48.26398 82.78606 48.50038 82.78406 48.7368 82.7826 48.9732 82.78162 49.20961 82.78113H49.44603L49.68245 82.78162 49.91884 82.7826 50.15526 82.78406 50.39163 82.78606 50.62807 82.7884 50.86449 82.79147 51.10086 82.79486 51.33728 82.79881 51.57367 82.80325 51.8101 82.80818 52.04652 82.81374 52.28291 82.81964 52.51933 82.82617 52.75572 82.83328 52.99214 82.84094 53.22856 82.84918 53.46495 82.85797 53.70137 82.8674 53.93776 82.87743 54.1742 82.88782 54.41061 82.89905 54.64699 82.9109 54.8834 82.92334 55.1198 82.93665 55.35622 82.95045 55.59264 82.96506 55.82903 82.9803 56.06544 82.99644 56.30185 83.01323 56.53827 83.03082 56.77469 83.04932 57.01108 83.06876 57.2475 83.08893 57.48389 83.11015 57.7203 83.13226 57.95673 83.15543 58.1931 83.1797 58.42952 83.20499 58.66592 83.23128 58.90234 83.25887 59.13876 83.28767 59.37515 83.31787 59.61157 83.3495 59.84796 83.38234 60.08438 83.41689 60.3208 83.4528 60.55719 83.49065 60.79361 83.52986 61.03 83.57101 61.26643 83.61426 61.50285 83.65953 61.73923 83.707 61.97565 83.75687 62.21204 83.80916 62.44846 83.86394 62.68488 83.9215 62.92126 83.98201 63.15768 84.04585 63.39409 84.1129 63.63051 84.18384 63.86693 84.25874 64.10332 84.33755 64.33974 84.42125 64.57613 84.50954 64.81255 84.60355 65.04897 84.7029 65.28534 84.80869 65.52176 84.92142 65.75816 85.04199 65.99458 85.17053 66.231 85.30821 66.46739 85.45587 66.70381 85.61461 66.9402 85.78601 67.17662 85.97098 67.41304 86.17143 67.64943 86.3895 67.88585 86.62721 68.12224 86.8878 68.35867 87.17363 68.5951 87.48972 68.83147 87.84035 69.06789 88.2311 69.30428 88.66985 69.5407 89.16566 69.77711 89.73038 70.0135 90.37718 70.24992 91.12848 70.48633 92.01083 70.72275 93.06056 70.95917 94.3297 71.19556 95.89258 71.43198 97.8721 71.66837 100.44606 71.90479 103.9481 72.1412 108.96028 72.37758 116.76944 72.614 130.5648 72.82828 158.57273"/>
<path transform="matrix(-.007630381,-.99998,-.99996998,.007630457,33.908254,7.9526216)" d="M2.8892 0-1.73352 2.31136 0 0-1.73352-2.31136" fill="#0000ff"/>
<path transform="matrix(.007660383,-.99998,-.99996998,-.0076604594,80.911609,8.017975)" d="M2.8892 0-1.73352 2.31136 0 0-1.73352-2.31136" fill="#0000ff"/>
<path transform="matrix(1.00005,0,0,-1.00006,8.079704,166.6002)" stroke-width=".99628" stroke-linecap="butt" stroke-miterlimit="10" stroke-linejoin="miter" fill="none" stroke="#0000ff" d="M73.63344 2.88898 73.84781 30.96225 74.08421 44.75761 74.32062 52.55951 74.55704 57.57895 74.79344 61.07736 75.02985 63.65495 75.26625 65.6322 75.50266 67.19736 75.73907 68.46568 75.97548 69.51622 76.21188 70.398 76.44829 71.1493 76.68471 71.79707 76.92111 72.36139 77.15752 72.85687 77.39394 73.29596 77.63034 73.68622 77.86674 74.0371 78.10315 74.35295 78.33955 74.63925 78.57596 74.89984 78.81236 75.13756 79.0488 75.35553 79.2852 75.55608 79.5216 75.74104 79.75801 75.9122 79.99442 76.07109 80.23082 76.21886 80.46722 76.3566 80.70364 76.48506 80.94005 76.60564 81.17645 76.71828 81.41287 76.82416 81.64928 76.92351 81.88568 77.01736 82.12209 77.1058 82.35849 77.1894 82.5949 77.26833 82.83131 77.34322 83.06772 77.41415 83.30412 77.4812 83.54053 77.54504 83.77695 77.60556 84.01335 77.66318 84.24976 77.7179 84.48618 77.77019 84.72258 77.82005 84.95898 77.86736 85.19539 77.9128 85.4318 77.95604 85.6682 77.9972 85.9046 78.0364 86.14104 78.07425 86.37744 78.11017 86.61385 78.14471 86.85025 78.17755 87.08665 78.20918 87.32306 78.23938 87.55946 78.26819 87.79588 78.29562 88.03229 78.32207 88.26869 78.34734 88.50511 78.37163 88.74152 78.39479 88.97792 78.4169 89.21432 78.43813 89.45074 78.45847 89.68715 78.47774 89.92355 78.49623 90.15996 78.51384 90.39636 78.53061 90.63277 78.54675 90.86919 78.562 91.10559 78.5766 91.342 78.59041 91.57841 78.60373 91.81482 78.61615 92.05122 78.62802 92.28763 78.63924 92.52403 78.6498 92.76044 78.65965 92.99684 78.669 93.23328 78.67787 93.46968 78.68611 93.70609 78.69377 93.94249 78.70088 94.1789 78.70741 94.4153 78.71332 94.6517 78.71887 94.88812 78.7238 95.12453 78.72824 95.36093 78.7322 95.59735 78.73558 95.83376 78.73865 96.07016 78.74098 96.30656 78.743 96.54298 78.74446 96.77939 78.74544 97.0158 78.74591H97.2522L97.48862 78.74544 97.725 78.74446 97.96144 78.743 98.19781 78.74098 98.43425 78.73865 98.67067 78.73558 98.90704 78.7322 99.14346 78.72824 99.37985 78.7238 99.61627 78.71887 99.85269 78.71332 100.08908 78.70741 100.32552 78.70088 100.5619 78.69377 100.79832 78.68611 101.03474 78.67787 101.27113 78.6691 101.50755 78.65965 101.74393 78.64963 101.98036 78.63924 102.21678 78.62802 102.45317 78.61615 102.68959 78.60373 102.92598 78.59041 103.1624 78.5766 103.39882 78.562 103.63521 78.54675 103.87163 78.53061 104.10802 78.51384 104.34444 78.49623 104.58086 78.47774 104.81726 78.45847 105.05368 78.43813 105.29007 78.4169 105.52649 78.39479 105.76291 78.37163 105.99928 78.34741 106.2357 78.32224 106.47209 78.29578 106.70851 78.26819 106.94493 78.23938 107.18134 78.20918 107.41776 78.17755 107.65414 78.14471 107.89056 78.11017 108.12698 78.07425 108.36337 78.03658 108.5998 77.99727 108.83617 77.95604 109.0726 77.9128 109.30902 77.86751 109.54541 77.82005 109.78183 77.77019 110.01822 77.7179 110.25464 77.66318 110.49106 77.60556 110.72745 77.54504 110.96387 77.4812 111.20026 77.41415 111.43668 77.34322 111.6731 77.26851 111.9095 77.1894 112.14592 77.10588 112.38231 77.01752 112.61873 76.92366 112.85515 76.82416 113.09152 76.71837 113.32794 76.60564 113.56433 76.4853 113.80075 76.3566 114.03717 76.21886 114.27357 76.07118 114.51 75.91245 114.74638 75.7412 114.9828 75.5564 115.21922 75.35562 115.45561 75.13782 115.69203 74.9 115.9284 74.63957 116.16484 74.35295 116.40126 74.0371 116.63765 73.68622 116.87407 73.29532 117.11046 72.85721 117.34688 72.36139 117.5833 71.79707 117.81969 71.1493 118.0561 70.398 118.2925 69.51622 118.52892 68.46649 118.76534 67.19736 119.00174 65.63448 119.23816 63.65778 119.47455 61.081 119.71097 57.58458 119.94739 52.56677 120.18376 44.75761 120.42018 30.96225 120.63446 2.95433"/>
<path transform="matrix(-.007630381,.99998,.99996998,.007630457,81.71682,163.71105)" d="M2.8892 0-1.73352 2.31136 0 0-1.73352-2.31136" fill="#0000ff"/>
<path transform="matrix(.007660383,.99998,.99996998,-.0076604594,128.72019,163.64569)" d="M2.8892 0-1.73352 2.31136 0 0-1.73352-2.31136" fill="#0000ff"/>
<path transform="matrix(1.00005,0,0,-1.00006,8.079704,166.6002)" stroke-width=".99628" stroke-linecap="butt" stroke-miterlimit="10" stroke-linejoin="miter" fill="none" stroke="#0000ff" d="M121.4396 158.63808 121.65399 130.5648 121.8904 116.76944 122.1268 108.96754 122.3632 103.9481 122.59961 100.44969 122.83603 97.8721 123.07243 95.89485 123.30884 94.33075 123.54526 93.06137 123.78166 92.01205 124.01807 91.12904 124.25447 90.37775 124.49088 89.73038 124.72728 89.16606 124.96368 88.67018 125.20012 88.23174 125.43652 87.84084 125.67293 87.48996 125.90933 87.17412 126.14574 86.88747 126.38214 86.62721 126.61855 86.3895 126.85497 86.17152 127.09137 85.97098 127.32777 85.78601 127.5642 85.61485 127.8006 85.45596 128.037 85.30821 128.2734 85.17046 128.50983 85.04199 128.74623 84.92142 128.98264 84.80878 129.21904 84.7029 129.45545 84.60355 129.69185 84.50969 129.92827 84.42125 130.16468 84.33765 130.40108 84.25874 130.6375 84.18384 130.8739 84.1129 131.1103 84.04585 131.34671 83.98201 131.58312 83.9215 131.81952 83.86394 132.05593 83.80916 132.29236 83.75687 132.52877 83.707 132.76517 83.65953 133.00157 83.61426 133.23798 83.57101 133.47438 83.52986 133.71079 83.49065 133.9472 83.4528 134.18361 83.41689 134.42002 83.38234 134.65644 83.3495 134.89284 83.31787 135.12924 83.28767 135.36565 83.25887 135.60207 83.23143 135.83847 83.20499 136.07488 83.1797 136.31128 83.15543 136.54769 83.13226 136.78409 83.11015 137.02051 83.08893 137.25693 83.06859 137.49333 83.04932 137.72974 83.03082 137.96614 83.01323 138.20255 82.99644 138.43895 82.9803 138.67536 82.96506 138.91176 82.95045 139.14817 82.93665 139.3846 82.92334 139.621 82.9109 139.8574 82.89905 140.09381 82.88782 140.33022 82.87743 140.56662 82.8674 140.80303 82.85806 141.03945 82.84918 141.27585 82.84094 141.51226 82.83328 141.74868 82.82617 141.98508 82.81964 142.22148 82.81374 142.45789 82.80818 142.6943 82.80325 142.93071 82.79881 143.16712 82.79486 143.40352 82.79147 143.63993 82.7884 143.87633 82.78606 144.11275 82.78406 144.34917 82.7826 144.58557 82.78162 144.82198 82.78113H145.05838L145.2948 82.78162 145.53119 82.7826 145.76761 82.78406 146.00399 82.78606 146.24042 82.7884 146.47686 82.79147 146.71323 82.79486 146.94965 82.79874 147.18604 82.80325 147.42246 82.80818 147.65888 82.81374 147.89527 82.81964 148.13169 82.82617 148.36808 82.83328 148.60449 82.84094 148.84093 82.84918 149.07732 82.85797 149.31374 82.8674 149.55011 82.87743 149.78655 82.88782 150.02297 82.89905 150.25934 82.9109 150.49576 82.92334 150.73215 82.93665 150.96858 82.95045 151.205 82.96506 151.44139 82.9803 151.67781 82.99644 151.9142 83.01323 152.15062 83.03082 152.38704 83.04932 152.62343 83.06859 152.85985 83.08893 153.09624 83.11015 153.33267 83.13226 153.56909 83.15543 153.80547 83.17964 154.04189 83.20482 154.27828 83.23128 154.5147 83.25887 154.75112 83.28767 154.9875 83.31787 155.22393 83.3495 155.46031 83.38234 155.69675 83.41689 155.93317 83.4528 156.16956 83.49065 156.40598 83.52986 156.64235 83.57101 156.87879 83.61426 157.1152 83.6597 157.35158 83.707 157.588 83.75687 157.82439 83.80916 158.06082 83.86394 158.29724 83.9215 158.53363 83.98201 158.77005 84.04585 159.00644 84.1129 159.24286 84.18384 159.47928 84.25856 159.71567 84.33765 159.95209 84.42117 160.18848 84.50969 160.42491 84.6034 160.66133 84.7029 160.8977 84.80878 161.13413 84.92142 161.37052 85.04175 161.60694 85.17046 161.84336 85.30821 162.07975 85.45587 162.31616 85.61485 162.55255 85.78601 162.78899 85.97098 163.0254 86.17143 163.2618 86.38924 163.49822 86.62721 163.73459 86.88747 163.97103 87.17363 164.20745 87.48996 164.44382 87.84035 164.68024 88.2311 164.91663 88.67018 165.15306 89.16566 165.38948 89.73 165.62587 90.37718 165.86229 91.12904 166.09868 92.01083 166.3351 93.06137 166.57152 94.3297 166.8079 95.89485 167.04433 97.86928 167.28072 100.44606 167.51715 103.94247 167.75357 108.96028 167.98995 116.76944 168.22637 130.5398 168.4407 158.57273"/>
<path transform="matrix(-.007630381,-.99998,-.99996998,.007630457,129.52536,7.9526216)" d="M2.8892 0-1.73352 2.31136 0 0-1.73352-2.31136" fill="#0000ff"/>
<path transform="matrix(.007630381,-.99998,-.99996998,-.007630457,176.52881,8.017975)" d="M2.8892 0-1.73352 2.31136 0 0-1.73352-2.31136" fill="#0000ff"/>
<path transform="matrix(1.00005,0,0,-1.00006,8.079704,166.6002)" stroke-width=".99628" stroke-linecap="butt" stroke-miterlimit="10" stroke-linejoin="miter" fill="none" stroke="#0000ff" d="M169.2415 2.88902 169.34197 19.16095 169.46018 30.95015 169.57837 38.96025 169.69658 44.75761 169.81478 49.14195 169.93299 52.55951 170.05118 55.31294 170.16939 57.57895 170.2876 59.46808 170.40579 61.07736 170.524 62.45633 170.6422 63.65495 170.7604 64.70483 170.8786 65.6322 170.99681 66.45735 171.115 67.19736 171.23322 67.86336 171.35144 68.46568 171.46964 69.01501 171.58785 69.515 171.70604 69.97514 171.82425 70.398 171.94246 70.78802 172.06066 71.1493 172.17887 71.48364 172.29706 71.79668 172.41527 72.08847 172.53347 72.361 172.65167 72.61649 172.76987 72.85687 172.88808 73.08235 173.00629 73.29532 173.12448 73.49657 173.24269 73.68622 173.36089 73.86642 173.4791 74.0371 173.59729 74.19905 173.71552 74.35295 173.83373 74.49974 173.95192 74.63925 174.07013 74.77257 174.18833 74.89984 174.30654 75.02121 174.42473 75.13756 174.54294 75.24876 174.66115 75.35553 174.77935 75.45763 174.89756 75.55608 175.01575 75.65033 175.13396 75.74104 175.25215 75.8285 175.37036 75.91245 175.48856 75.99347 175.60677 76.07118 175.72498 76.14645 175.84317 76.21886 175.96138 76.28888 176.07959 76.35652 176.1978 76.4218 176.31601 76.48506 176.4342 76.54614 176.55242 76.60564 176.67061 76.66261 176.78882 76.71828 176.90702 76.77187 177.02523 76.82408 177.14342 76.87468 177.26163 76.92351 177.37984 76.97134 177.49803 77.01736 177.61624 77.06247 177.73444 77.10588 177.85265 77.14825 177.97084 77.1894 178.08905 77.22943 178.20725 77.26851 178.32546 77.30626 178.44368 77.34322 178.56188 77.37904 178.68009 77.41415 178.79828 77.44797 178.91649 77.4812 179.0347 77.51349 179.1529 77.54504 179.2711 77.57555 179.3893 77.60548 179.5075 77.63478 179.6257 77.66318 179.74391 77.69102 179.8621 77.7179 179.98032 77.74437 180.09853 77.77019 180.21672 77.79544 180.33493 77.81998 180.45313 77.84395 180.57134 77.86736 180.68953 77.89026 180.80776 77.9128 180.92597 77.93448 181.04416 77.95587 181.16237 77.9767 181.28057 77.9972 181.39878 78.01712 181.51697 78.0364 181.63518 78.05554 181.75339 78.07425 181.87158 78.09242 181.98979 78.11017 182.10799 78.12769 182.2262 78.14471 182.3444 78.1614 182.4626 78.17755 182.58081 78.19345 182.699 78.20918 182.81722 78.22435 182.93543 78.23938 183.05362 78.25381 183.17185 78.2681 183.29003 78.28197 183.40825 78.29578 183.52646 78.3091 183.64464 78.32207 183.76285 78.3349 183.88105 78.34734 183.99925 78.35968 184.11746 78.37163 184.23566 78.3834 184.35387 78.39479 184.47206 78.406 184.59027 78.4169 184.70848 78.42764 184.82668 78.43813 184.94489 78.4483 185.06308 78.45847 185.18129 78.46808 185.2995 78.47774 185.41771 78.48703 185.53592 78.49623 185.65412 78.50511 185.77233 78.51384 185.89054 78.5223 186.00873 78.53061 186.12694 78.53883 186.24514 78.54675 186.36334 78.5545 186.48155 78.562 186.59975 78.56935 186.71796 78.5766 186.83614 78.58362 186.95435 78.59041 187.07257 78.5971 187.19075 78.60373 187.30896 78.60986 187.42716 78.61615 187.54537 78.62204 187.66358 78.62802 187.78179 78.63365 187.9 78.63924 188.01819 78.64462 188.1364 78.64963 188.25461 78.65488 188.3728 78.65965 188.49102 78.66458 188.6092 78.669 188.72742 78.67345 188.84563 78.67787 188.96382 78.68207 189.08203 78.68611 189.20023 78.68991 189.31844 78.69377 189.43665 78.69734 189.55484 78.70088 189.67305 78.7041 189.79125 78.70741 189.90946 78.71048 190.02767 78.71332 190.14588 78.71614 190.26409 78.71887 190.38228 78.72147 190.50049 78.7238 190.6187 78.72615 190.73688 78.72824 190.8551 78.73035 190.97328 78.7322 191.09149 78.73398 191.2097 78.73558 191.3279 78.7372 191.4461 78.73865 191.5643 78.73994 191.68251 78.74098 191.80072 78.74203 191.91892 78.743 192.03713 78.74373 192.15532 78.74446 192.27353 78.74493 192.39174 78.74544 192.50995 78.74583 192.62816 78.74591 189.85713 78.74608"/>
<path transform="matrix(-.006150307,.99999997,.9999899,.0061503688,177.32965,163.71102)" d="M2.8892 0-1.73352 2.31136 0 0-1.73352-2.31136" fill="#0000ff"/>
<path transform="matrix(1.00005,0,0,-1.00006,197.94632,87.8494)" d="M2.8892 0-1.73352 2.31136 0 0-1.73352-2.31136" fill="#0000ff"/>
<path transform="matrix(1.00005,0,0,-1.00006,8.079704,166.6002)" stroke-width=".3985" stroke-linecap="butt" stroke-dasharray="2.98883,2.98883" stroke-miterlimit="10" stroke-linejoin="miter" fill="none" stroke="#ff0000" d="M25.42479 .06534V161.46172"/>
<path transform="matrix(1.00005,0,0,-1.00006,8.079704,166.6002)" stroke-width=".3985" stroke-linecap="butt" stroke-dasharray="2.98883,2.98883" stroke-miterlimit="10" stroke-linejoin="miter" fill="none" stroke="#ff0000" d="M73.23096 .06534V161.46172"/>
<path transform="matrix(1.00005,0,0,-1.00006,8.079704,166.6002)" stroke-width=".3985" stroke-linecap="butt" stroke-dasharray="2.98883,2.98883" stroke-miterlimit="10" stroke-linejoin="miter" fill="none" stroke="#ff0000" d="M121.03714 .06534V161.46172"/>
<path transform="matrix(1.00005,0,0,-1.00006,8.079704,166.6002)" stroke-width=".3985" stroke-linecap="butt" stroke-dasharray="2.98883,2.98883" stroke-miterlimit="10" stroke-linejoin="miter" fill="none" stroke="#ff0000" d="M168.84333 .06534V161.46172"/>
<use data-text="x" xlink:href="#font_3_2" transform="matrix(9.963098,0,0,-9.963197,193.14295,82.31216)"/>
<use data-text="y" xlink:href="#font_3_3" transform="matrix(9.963098,0,0,-9.963197,108.73873,12.938995)"/>
</svg>
