<svg xmlns="http://www.w3.org/2000/svg" xmlns:xlink="http://www.w3.org/1999/xlink" xmlns:inkscape="http://www.inkscape.org/namespaces/inkscape" version="1.1" width="198" height="171" viewBox="0 0 198 171">
<defs>
<path id="font_1_1" d="M.6589966 .23046875C.6759949 .23046875 .69400027 .23046875 .69400027 .25045777 .69400027 .27046205 .6759949 .27046205 .6589966 .27046205H.117996219C.100997928 .27046205 .08299255 .27046205 .08299255 .25045777 .08299255 .23046875 .100997928 .23046875 .117996219 .23046875H.6589966Z"/>
<path id="font_2_3" d="M.1269989 .07699585 .23298645 .18003845C.3889923 .31811524 .44898988 .3721466 .44898988 .47216798 .44898988 .5860901 .35899354 .6660156 .23699951 .6660156 .12399292 .6660156 .049987794 .57411196 .049987794 .48516847 .049987794 .4291687 .099990848 .4291687 .102996829 .4291687 .11999512 .4291687 .15499878 .44117738 .15499878 .48217774 .15499878 .5081787 .13699341 .5341797 .101989749 .5341797 .09399414 .5341797 .09199524 .5341797 .08898926 .5331726 .11199951 .59806826 .1659851 .63500979 .22399903 .63500979 .31498719 .63500979 .35798646 .5541382 .35798646 .47216798 .35798646 .39215089 .30799867 .31311036 .25299073 .25108338L.06098938 .036987306C.049987794 .025985718 .049987794 .023986817 .049987794 0H.42099L.44898988 .17404175H.42399598C.4189911 .14402771 .4119873 .1000061 .4019928 .084991458 .394989 .07699585 .32899476 .07699585 .30699159 .07699585H.1269989Z"/>
<path id="font_3_1" d="M.2649994 .37265016H.37799073C.34498597 .22489929 .33599855 .18196106 .33599855 .11508179 .33599855 .100097659 .33599855 .073150638 .34399415 .03919983 .35398866-.0047454836 .36499024-.0107421879 .37998963-.0107421879 .3999939-.0107421879 .42099 .007247925 .42099 .02722168 .42099 .033218385 .42099 .035202028 .4149933 .049179079 .38598634 .12106323 .38598634 .18595886 .38598634 .21391297 .38598634 .26683045 .3929901 .32073976 .4039917 .37265016H.5179901C.5309906 .37265016 .5669861 .37265016 .5669861 .406662 .5669861 .43066407 .54599 .43066407 .5269928 .43066407H.19198609C.16999817 .43066407 .13198853 .43066407 .08799744 .38365174 .052993776 .34469605 .026992798 .29878236 .026992798 .29379273 .026992798 .29278565 .026992798 .28379823 .038986207 .28379823 .04699707 .28379823 .04899597 .28779603 .054992677 .29577638 .10398865 .37265016 .1619873 .37265016 .18199158 .37265016H.23899842C.20698548 .25186158 .15299988 .13105774 .11099243 .04020691 .102996829 .025222779 .102996829 .023223877 .102996829 .016235352 .102996829-.002746582 .11898804-.0107421879 .13198853-.0107421879 .1619873-.0107421879 .16999817 .017242432 .18199158 .05418396 .19599915 .100097659 .19599915 .10209656 .20899964 .15202332L.2649994 .37265016Z"/>
<path id="font_2_2" d="M.2939911 .64004519C.2939911 .66400149 .2939911 .6660156 .2709961 .6660156 .20899964 .60227969 .12098694 .60227969 .08898926 .60227969V.57128909C.10899353 .57128909 .16799927 .57128909 .21998596 .5972748V.07902527C.21998596 .042999269 .21699524 .0309906 .1269989 .0309906H.09498596V0C.12998963 .0029907227 .21699524 .0029907227 .25698854 .0029907227 .29699708 .0029907227 .38398744 .0029907227 .4189911 0V.0309906H.3869934C.29699708 .0309906 .2939911 .041992189 .2939911 .07902527V.64004519Z"/>
<path id="font_2_1" d="M.45999146 .31976319C.45999146 .39982606 .45498658 .47988893 .41999818 .5539398 .37399293 .65000918 .2919922 .6660156 .25 .6660156 .18998719 .6660156 .116989139 .64001467 .07598877 .54693606 .04399109 .47789 .038986207 .39982606 .038986207 .31976319 .038986207 .24472046 .042999269 .15464783 .083999637 .07859802 .1269989-.0024719239 .19999695-.022460938 .24899292-.022460938 .30299378-.022460938 .3789978-.0014648438 .4229889 .09359741 .45498658 .16265869 .45999146 .2407074 .45999146 .31976319M.24899292-.00047302247C.20999146-.00047302247 .15098572 .024551392 .1329956 .12062073 .12199402 .18066406 .12199402 .2727356 .12199402 .3317871 .12199402 .39582826 .12199402 .46188355 .12998963 .5159149 .14898682 .63500979 .22399903 .64401248 .24899292 .64401248 .28199769 .64401248 .34799195 .6259918 .36698915 .52693179 .3769989 .47088624 .3769989 .39482118 .3769989 .3317871 .3769989 .25672914 .3769989 .18867493 .3659973 .12461853 .35099793 .029556275 .2939911-.00047302247 .24899292-.00047302247Z"/>
<path id="font_2_4" d="M.44898988 .20022583C.44898988 .3193512 .36698915 .41944886 .25898744 .41944886 .21099854 .41944886 .16799927 .40345765 .13198853 .36842347V.5637665C.1519928 .5577698 .18499756 .55078127 .21699524 .55078127 .33999635 .55078127 .4099884 .6417694 .4099884 .6547699 .4099884 .6607666 .40699769 .6657715 .3999939 .6657715 .39898683 .6657715 .39698792 .6657715 .3919983 .66278079 .37199403 .6537781 .32299806 .6337738 .2559967 .6337738 .21598816 .6337738 .16999817 .6407776 .12298584 .6617737 .114990238 .66477969 .11299133 .66477969 .11099243 .66477969 .100997928 .66477969 .100997928 .6567688 .100997928 .6407776V.34439088C.100997928 .32637025 .100997928 .31835938 .114990238 .31835938 .12199402 .31835938 .12399292 .32136537 .12799073 .32736207 .13899231 .3433838 .17599488 .39746095 .25698854 .39746095 .30899049 .39746095 .33399964 .35139466 .34199525 .33337403 .35798646 .29632569 .3600006 .25727845 .3600006 .20722962 .3600006 .17222595 .3600006 .11222839 .33599855 .07035828 .31199647 .031463624 .2749939 .0055389406 .22898865 .0055389406 .1559906 .0055389406 .09899902 .058380128 .08198547 .11723328 .084991458 .1162262 .08799744 .115234378 .09899902 .115234378 .13198853 .115234378 .14898682 .14022827 .14898682 .16423035 .14898682 .18823242 .13198853 .21322632 .09899902 .21322632 .084991458 .21322632 .049987794 .20622254 .049987794 .16023255 .049987794 .07434082 .11898804-.022460938 .23098755-.022460938 .34700013-.022460938 .44898988 .073349 .44898988 .20022583Z"/>
<path id="font_3_2" d="M.33399964 .30233766C.33999635 .32835389 .36299134 .42037965 .43299867 .42037965 .43798829 .42037965 .46199037 .42037965 .48298646 .40734864 .45498658 .402359 .43499757 .37734986 .43499757 .35334779 .43499757 .33735658 .44599916 .31835938 .47299195 .31835938 .49499513 .31835938 .5269928 .3363495 .5269928 .37635804 .5269928 .42837525 .46798707 .4423828 .43399049 .4423828 .37599183 .4423828 .34098817 .38935853 .32899476 .36634828 .3039856 .43237306 .25 .4423828 .22099304 .4423828 .116989139 .4423828 .05999756 .3133545 .05999756 .28834535 .05999756 .27833558 .069992069 .27833558 .07199097 .27833558 .07998657 .27833558 .08299255 .28033448 .084991458 .28933717 .11898804 .39535523 .18499756 .42037965 .21899414 .42037965 .23799134 .42037965 .272995 .4113617 .272995 .35334779 .272995 .32235719 .2559967 .25532533 .21899414 .11528015 .20298767 .053268434 .16799927 .011245728 .12399292 .011245728 .117996219 .011245728 .09498596 .011245728 .07398987 .024276734 .09899902 .029266358 .12098694 .05027771 .12098694 .07827759 .12098694 .105270389 .09899902 .11328125 .083999637 .11328125 .053985597 .11328125 .0289917 .08728027 .0289917 .055267335 .0289917 .009246826 .07899475-.0107421879 .12298584-.0107421879 .18899536-.0107421879 .22499085 .059280397 .22799683 .0652771 .23999024 .028274537 .27598573-.0107421879 .33599855-.0107421879 .43899537-.0107421879 .49598695 .118270877 .49598695 .14328003 .49598695 .1532898 .4869995 .1532898 .48399354 .1532898 .47499085 .1532898 .47299195 .14929199 .47099305 .14228821 .43798829 .03527832 .36999513 .011245728 .33799745 .011245728 .29899598 .011245728 .2829895 .043273927 .2829895 .07727051 .2829895 .09927368 .2889862 .121276859 .2999878 .16529846L.33399964 .30233766Z"/>
<path id="font_3_3" d="M.48599244 .38136292C.48999024 .39537049 .48999024 .39736939 .48999024 .40437318 .48999024 .42237855 .47599793 .43138124 .46099855 .43138124 .45098878 .43138124 .43499757 .42536927 .42599488 .41036988 .42399598 .405365 .41600038 .37435914 .4119873 .35635377 .40499879 .33035279 .397995 .30334474 .3919983 .27633668L.34700013 .09628296C.34298707 .08126831 .2999878 .011245728 .23399353 .011245728 .18299866 .011245728 .17199707 .055267335 .17199707 .0922699 .17199707 .1382904 .18899536 .20030213 .22299195 .28833009 .23899842 .3293457 .24299622 .3403473 .24299622 .36035157 .24299622 .405365 .21099854 .4423828 .16099549 .4423828 .06599426 .4423828 .0289917 .29733277 .0289917 .28833009 .0289917 .27833558 .038986207 .27833558 .040985109 .27833558 .050994874 .27833558 .051986696 .28033448 .056991579 .29634095 .083999637 .3903656 .12399292 .42037965 .1579895 .42037965 .1659851 .42037965 .18299866 .42037965 .18299866 .3883667 .18299866 .36335755 .17298889 .3373413 .1659851 .31834413 .12599182 .21231079 .10798645 .1552887 .10798645 .10827637 .10798645 .019256592 .17098999-.0107421879 .22999573-.0107421879 .2689972-.0107421879 .30299378 .0062561037 .33099366 .03425598 .31799317-.017745972 .30599977-.06674194 .2659912-.11973572 .23999024-.15385437 .20199585-.18309021 .1559906-.18309021 .14199829-.18309021 .09700012-.18005371 .07998657-.14074707 .09599304-.14074707 .10899353-.14074707 .12298584-.1287384 .1329956-.11973572 .14299011-.10673523 .14299011-.08773804 .14299011-.056747438 .115997318-.052734376 .10598755-.052734376 .08299255-.052734376 .049987794-.068740848 .049987794-.11773682 .049987794-.16796875 .09399414-.20507813 .1559906-.20507813 .25898744-.20507813 .3619995-.11373901 .3899994-.00074768069L.48599244 .38136292Z"/>
</defs>
<path transform="matrix(1.00003,0,0,-1.00006,2.4406586,166.5352)" stroke-width=".19925" stroke-linecap="butt" stroke-miterlimit="10" stroke-linejoin="miter" fill="none" stroke="#7f807f" d="M7.16013 79.28084V82.1155M29.65434 79.28084V82.1155M52.14856 79.28084V82.1155M74.64278 79.28084V82.1155M97.137 79.28084V82.1155M119.6312 79.28084V82.1155M142.12541 79.28084V82.1155M164.61963 79.28084V82.1155M187.11385 79.28084V82.1155"/>
<path transform="matrix(1.00003,0,0,-1.00006,2.4406586,166.5352)" stroke-width=".19925" stroke-linecap="butt" stroke-miterlimit="10" stroke-linejoin="miter" fill="none" stroke="#7f807f" d="M7.16013 78.57237V82.82396M52.14856 78.57237V82.82396M142.12541 78.57237V82.82396M187.11385 78.57237V82.82396"/>
<path transform="matrix(1.00003,0,0,-1.00006,2.4406586,166.5352)" stroke-width=".19925" stroke-linecap="butt" stroke-miterlimit="10" stroke-linejoin="miter" fill="none" stroke="#7f807f" d="M95.0111 0H99.26286M95.0111 40.34909H99.26286M95.0111 121.04727H99.26286M95.0111 161.39636H99.26286"/>
<path transform="matrix(1.00003,0,0,-1.00006,2.4406586,166.5352)" stroke-width=".3985" stroke-linecap="butt" stroke-miterlimit="10" stroke-linejoin="miter" fill="none" stroke="#000000" d="M0 80.69818H192.28145"/>
<path transform="matrix(1.00003,0,0,-1.00006,194.72789,85.832187)" d="M1.99252 0-1.19551 1.59401 0 0-1.19551-1.59401"/>
<path transform="matrix(1.00003,0,0,-1.00006,2.4406586,166.5352)" stroke-width=".3985" stroke-linecap="butt" stroke-miterlimit="10" stroke-linejoin="miter" fill="none" stroke="#000000" d="M97.137 0V159.40384"/>
<path transform="matrix(0,-1.00006,-1.00003,-0,99.580577,7.121811)" d="M1.99252 0-1.19551 1.59401 0 0-1.19551-1.59401"/>
<use data-text="&#x2212;" xlink:href="#font_1_1" transform="matrix(9.962899,0,0,-9.963197,.21759033,97.899089)"/>
<use data-text="2" xlink:href="#font_2_3" transform="matrix(9.962899,0,0,-9.963197,7.9668276,97.899089)"/>
<use data-text="&#x03c0;" xlink:href="#font_3_1" transform="matrix(9.962899,0,0,-9.963197,12.947975,97.899089)"/>
<use data-text="&#x2212;" xlink:href="#font_1_1" transform="matrix(9.962899,0,0,-9.963197,47.698019,97.290058)"/>
<use data-text="&#x03c0;" xlink:href="#font_3_1" transform="matrix(9.962899,0,0,-9.963197,55.447256,97.290058)"/>
<use data-text="&#x03c0;" xlink:href="#font_3_1" transform="matrix(9.962899,0,0,-9.963197,141.55184,95.76796)"/>
<use data-text="2" xlink:href="#font_2_3" transform="matrix(9.962899,0,0,-9.963197,184.05112,97.899089)"/>
<use data-text="&#x03c0;" xlink:href="#font_3_1" transform="matrix(9.962899,0,0,-9.963197,189.03227,97.899089)"/>
<use data-text="&#x2212;" xlink:href="#font_1_1" transform="matrix(9.962899,0,0,-9.963197,76.22288,169.33037)"/>
<use data-text="1" xlink:href="#font_2_2" transform="matrix(9.962899,0,0,-9.963197,83.972118,169.33037)"/>
<use data-text="0" xlink:href="#font_2_1" transform="matrix(9.962899,0,0,-9.963197,88.95356,169.33037)"/>
<use data-text="&#x2212;" xlink:href="#font_1_1" transform="matrix(9.962899,0,0,-9.963197,81.204029,128.97895)"/>
<use data-text="5" xlink:href="#font_2_4" transform="matrix(9.962899,0,0,-9.963197,88.95326,128.97895)"/>
<use data-text="5" xlink:href="#font_2_4" transform="matrix(9.962899,0,0,-9.963197,88.95326,48.69114)"/>
<use data-text="1" xlink:href="#font_2_2" transform="matrix(9.962899,0,0,-9.963197,83.97111,8.339706)"/>
<use data-text="0" xlink:href="#font_2_1" transform="matrix(9.962899,0,0,-9.963197,88.95256,8.339706)"/>
<path transform="matrix(1.00003,0,0,-1.00006,2.4406586,166.5352)" stroke-width=".99628" stroke-linecap="butt" stroke-miterlimit="10" stroke-linejoin="miter" fill="none" stroke="#0000ff" d="M10.1321 157.43355 10.22145 155.04654 10.41875 150.4025 10.61604 146.2777 10.81332 142.5901 11.01062 139.2718 11.2079 136.26856 11.40518 133.54064 11.60248 131.048 11.79977 128.75846 11.99706 126.65094 12.19435 124.69998 12.39165 122.8946 12.58891 121.21349 12.78621 119.6423 12.9835 118.17554 13.18079 116.79866 13.37808 115.50343 13.57538 114.28314 13.77264 113.13046 13.96994 112.04118 14.16724 111.00807 14.36452 110.02583 14.56181 109.092 14.75911 108.203 14.95639 107.35551 15.15367 106.54465 15.35097 105.76932 15.54826 105.02689 15.74554 104.3132 15.94284 103.62825 16.14014 102.9707 16.3374 102.33658 16.5347 101.72585 16.732 101.13692 16.92928 100.56686 17.12657 100.01714 17.32387 99.48502 17.52113 98.96921 17.71843 98.46953 17.91573 97.98534 18.113 97.51485 18.3103 97.05795 18.5076 96.61314 18.70486 96.18044 18.90216 95.7592 19.09946 95.34828 19.29674 94.94786 19.49403 94.5571 19.69133 94.17476 19.88863 93.80144 20.08589 93.43703 20.28319 93.07968 20.48048 92.73027 20.67776 92.38762 20.87506 92.05223 21.07234 91.72299 21.26962 91.39989 21.46692 91.0824 21.66422 90.7706 21.8615 90.46475 22.05879 90.16309 22.25609 89.8671 22.45335 89.57498 22.65065 89.28735 22.84795 89.00443 23.04523 88.72505 23.24252 88.44939 23.43982 88.1776 23.63708 87.90952 23.83438 87.64418 24.03168 87.38225 24.22897 87.12286 24.42625 86.86673 24.62355 86.61319 24.82085 86.36237 25.01811 86.11366 25.21541 85.86737 25.4127 85.62366 25.60999 85.38126 25.80728 85.1414 26.00458 84.90271 26.20186 84.66626 26.39914 84.43126 26.59644 84.19771 26.79372 83.96547 26.99101 83.73468 27.18831 83.50517 27.38557 83.27664 27.58287 83.04906 27.78017 82.82278 27.97745 82.59636 28.17474 82.37152 28.37204 82.14691 28.56934 81.9232 28.7666 81.69986 28.9639 81.47655 29.1612 81.25386 29.35847 81.03154 29.55577 80.8092 29.75307 80.58713 29.95035 80.36464 30.14763 80.14232 30.34492 79.91945 30.54219 79.6963 30.7395 79.4728 30.9368 79.24907 31.13406 79.02481 31.33138 78.79967 31.52864 78.57355 31.72594 78.34727 31.92325 78.11969 32.12051 77.89099 32.31781 77.66133 32.51508 77.43071 32.71239 77.19862 32.9097 76.96474 33.10695 76.73007 33.30426 76.4933 33.50154 76.25493 33.69882 76.01477 33.89613 75.77267 34.09341 75.52864 34.2907 75.2822 34.48798 75.03365 34.68529 74.7825 34.88257 74.5291 35.07985 74.27313 35.27716 74.01393 35.47441 73.75215 35.67172 73.48682 35.86902 73.21811 36.06628 72.9468 36.2636 72.67128 36.46086 72.39174 36.65816 72.10866 36.85547 71.82089 37.05273 71.52924 37.25005 71.23244 37.44731 70.93127 37.6446 70.62541 37.84192 70.31343 38.03917 69.99646 38.23648 69.67319 38.43376 69.3441 38.63104 69.0084 38.82835 68.66606 39.02563 68.31616 39.22292 67.9593 39.4202 67.59439 39.61751 67.22075 39.81479 66.83923 40.01207 66.44847 40.20937 66.04742 40.40663 65.63698 40.60394 65.21541 40.80124 64.7827 40.9985 64.33838 41.19582 63.88066 41.39308 63.41037 41.5904 62.92616 41.78769 62.4265 41.98495 61.91068 42.18227 61.3787 42.37953 60.82802 42.57683 60.2591 42.77414 59.67032 42.97139 59.05911 43.1687 58.42484 43.36598 57.76762 43.56326 57.08249 43.76057 56.36945 43.95786 55.62686 44.15514 54.85054 44.35242 54.03984 44.54973 53.19138 44.74701 52.30307 44.94429 51.36923 45.1416 50.3889 45.33885 49.35468 45.53616 48.26443 45.73346 47.11159 45.93074 45.89111 46.12804 44.59767 46.3253 43.22032 46.52261 41.75111 46.71991 40.18057 46.91718 38.49931 47.11449 36.69264 47.31175 34.74443 47.50905 32.6366 47.70636 30.34929 47.90361 27.8557 48.10092 25.12392 48.2982 22.12 48.49548 18.80623 48.6928 15.11299 48.89008 10.99059 49.08736 6.3498 49.17677 3.95729"/>
<path transform="matrix(-.03735112,-.9993299,-.99930009,.037352239,12.573063,9.092224)" d="M2.8892 0-1.73352 2.31136 0 0-1.73352-2.31136" fill="#0000ff"/>
<path transform="matrix(.03734112,.9993299,.99930009,-.03734224,51.618898,162.57767)" d="M2.8892 0-1.73352 2.31136 0 0-1.73352-2.31136" fill="#0000ff"/>
<path transform="matrix(1.00003,0,0,-1.00006,2.4406586,166.5352)" stroke-width=".99628" stroke-linecap="butt" stroke-miterlimit="10" stroke-linejoin="miter" fill="none" stroke="#0000ff" d="M55.12039 157.43759 55.20988 155.04283 55.40718 150.4025 55.60446 146.2777 55.80176 142.5901 55.99905 139.26956 56.19632 136.27194 56.39362 133.53885 56.59091 131.04706 56.7882 128.75846 56.98549 126.65094 57.18279 124.70271 57.38007 122.89703 57.57735 121.21349 57.77464 119.6423 57.97192 118.17554 58.16922 116.79866 58.36652 115.50343 58.56381 114.28314 58.76108 113.13046 58.95837 112.0394 59.15567 111.00728 59.35295 110.02519 59.55025 109.092 59.74754 108.20366 59.94482 107.35504 60.1421 106.54465 60.3394 105.76834 60.53668 105.02689 60.73398 104.31337 60.93127 103.62872 61.12856 102.9707 61.32584 102.33658 61.52313 101.72585 61.72041 101.13692 61.91771 100.56783 62.115 100.01764 62.31229 99.48502 62.50957 98.96985 62.70686 98.46953 62.90416 97.98566 63.10144 97.51535 63.29874 97.05745 63.49603 96.61314 63.69331 96.18044 63.8906 95.7592 64.08789 95.3489 64.28517 94.9477 64.48247 94.55678 64.67976 94.17542 64.87704 93.80194 65.07433 93.43654 65.27162 93.08 65.4689 92.73027 65.6662 92.38747 65.8635 92.05208 66.06078 91.72299 66.25806 91.4002 66.45535 91.0829 66.65263 90.77141 66.84993 90.46475 67.04723 90.16309 67.24452 89.8671 67.44179 89.57498 67.63908 89.28735 67.83638 89.00443 68.03366 88.72505 68.23096 88.44954 68.42825 88.17792 68.62552 87.90935 68.82281 87.64401 69.02011 87.38191 69.21739 87.12286 69.41469 86.86673 69.61198 86.61366 69.80927 86.36269 70.00655 86.11398 70.20384 85.86769 70.40112 85.62334 70.59842 85.38126 70.79572 85.14108 70.993 84.90271 71.19029 84.66626 71.38757 84.43126 71.58487 84.19771 71.78215 83.96594 71.97945 83.73468 72.17674 83.50484 72.37401 83.27664 72.5713 83.04906 72.7686 82.82278 72.96588 82.59668 73.16318 82.37152 73.36047 82.14723 73.55775 81.9232 73.75505 81.69986 73.95233 81.47688 74.14961 81.25386 74.34691 81.03154 74.5442 80.8092 74.74149 80.58713 74.93878 80.36464 75.13606 80.14232 75.33334 79.91945 75.53062 79.6963 75.72794 79.4728 75.92523 79.24907 76.1225 79.02481 76.31981 78.79967 76.51707 78.57355 76.71437 78.34694 76.91168 78.11969 77.10895 77.89116 77.30624 77.66133 77.50352 77.43039 77.70082 77.19844 77.89812 76.96474 78.09538 76.73007 78.2927 76.49362 78.48996 76.25493 78.68726 76.01477 78.88457 75.7725 79.08183 75.52849 79.27913 75.2822 79.47641 75.03365 79.6737 74.78267 79.871 74.5291 80.06828 74.27313 80.2656 74.0141 80.46284 73.75183 80.66016 73.48682 80.85745 73.21841 81.05472 72.9468 81.25203 72.67128 81.4493 72.3919 81.64659 72.10849 81.8439 71.82089 82.04117 71.52924 82.23846 71.23244 82.43575 70.9311 82.63304 70.62494 82.83034 70.31296 83.0276 69.99614 83.22491 69.67287 83.42218 69.3441 83.61948 69.0084 83.81679 68.66544 84.01405 68.31616 84.21135 67.95883 84.40863 67.59439 84.60594 67.22075 84.80322 66.83923 85.0005 66.44847 85.19781 66.04742 85.39507 65.63713 85.59238 65.2159 85.78967 64.78287 85.98694 64.33806 86.18425 63.88098 86.38152 63.41037 86.57881 62.92616 86.77612 62.4265 86.97339 61.91083 87.17068 61.3787 87.36797 60.8285 87.56526 60.25941 87.76256 59.67032 87.95984 59.05911 88.15714 58.42546 88.3544 57.7673 88.55171 57.08249 88.74901 56.36945 88.94629 55.628 89.14357 54.85103 89.34085 54.04082 89.53816 53.19267 89.73544 52.30371 89.93272 51.36923 90.13004 50.3889 90.32729 49.35515 90.5246 48.26588 90.7219 47.11319 90.91916 45.8929 91.11647 44.59767 91.31374 43.21965 91.51103 41.75111 91.70834 40.18057 91.90561 38.49931 92.1029 36.69264 92.30019 34.74443 92.49748 32.63466 92.69478 30.34605 92.89204 27.85216 93.08936 25.12183 93.28662 22.12 93.48392 18.80623 93.68123 15.11299 93.87851 10.99059 94.07579 6.3498 94.16519 3.95729"/>
<path transform="matrix(-.03731112,-.9993299,-.99930009,.03731224,57.562707,9.088181)" d="M2.8892 0-1.73352 2.31136 0 0-1.73352-2.31136" fill="#0000ff"/>
<path transform="matrix(.03734112,.9993299,.99930009,-.03734224,96.608669,162.57767)" d="M2.8892 0-1.73352 2.31136 0 0-1.73352-2.31136" fill="#0000ff"/>
<path transform="matrix(1.00003,0,0,-1.00006,2.4406586,166.5352)" stroke-width=".99628" stroke-linecap="butt" stroke-miterlimit="10" stroke-linejoin="miter" fill="none" stroke="#0000ff" d="M100.10896 157.43355 100.19832 155.04654 100.3956 150.4025 100.5929 146.2777 100.79019 142.5901 100.98747 139.2718 101.18477 136.26805 101.38205 133.54064 101.57935 131.04543 101.77663 128.75846 101.97392 126.6519 102.17122 124.69998 102.36848 122.89703 102.56578 121.21349 102.76308 119.64522 102.96036 118.17554 103.15765 116.79784 103.35495 115.50217 103.55223 114.28247 103.74951 113.13046 103.94681 112.03975 104.14409 111.00728 104.34138 110.02519 104.53868 109.092 104.73595 108.20349 104.93324 107.35551 105.13054 106.54465 105.32782 105.76932 105.52512 105.02576 105.72241 104.31337 105.9197 103.62825 106.11697 102.9707 106.31427 102.33658 106.51157 101.72603 106.70885 101.13676 106.90614 100.56735 107.10342 100.01714 107.3007 99.4855 107.498 98.96921 107.6953 98.47017 107.89258 97.98518 108.08986 97.51535 108.28716 97.0578 108.48444 96.61346 108.68173 96.17995 108.87903 95.7592 109.07631 95.3489 109.27359 94.94786 109.47089 94.55678 109.66817 94.17476 109.86546 93.80194 110.06276 93.43703 110.26006 93.07968 110.45732 92.73027 110.65462 92.38747 110.85191 92.05208 111.0492 91.72299 111.24649 91.39989 111.44379 91.0829 111.64105 90.77141 111.83835 90.46475 112.03564 90.16357 112.23293 89.8671 112.43022 89.57498 112.62752 89.28735 112.82478 89.00443 113.02208 88.72505 113.21938 88.44939 113.41666 88.17792 113.61395 87.90935 113.81123 87.64418 114.00851 87.38225 114.20581 87.12286 114.4031 86.86673 114.6004 86.61319 114.79768 86.36285 114.99496 86.11414 115.19226 85.86769 115.38954 85.62334 115.58684 85.38126 115.78413 85.1414 115.98141 84.90271 116.1787 84.66626 116.37599 84.43126 116.57327 84.19771 116.77057 83.96547 116.96786 83.73468 117.16513 83.50484 117.36243 83.27664 117.55972 83.04906 117.757 82.82278 117.9543 82.59668 118.1516 82.37152 118.34888 82.14691 118.54616 81.9232 118.74345 81.70003 118.94075 81.47688 119.13803 81.25386 119.33533 81.03154 119.53261 80.8092 119.72989 80.58713 119.9272 80.36464 120.12447 80.14232 120.32176 79.91945 120.51904 79.6963 120.71634 79.47314 120.91364 79.24907 121.11092 79.02481 121.30821 78.79967 121.50548 78.57355 121.70279 78.34694 121.90009 78.11969 122.09735 77.89116 122.29465 77.66133 122.49193 77.43039 122.68922 77.19844 122.88652 76.96474 123.0838 76.73007 123.28108 76.49362 123.47836 76.25493 123.67567 76.01477 123.87297 75.7725 124.07024 75.52864 124.26755 75.2822 124.46481 75.03348 124.66211 74.78267 124.8594 74.52927 125.05669 74.27313 125.25398 74.0141 125.45125 73.75215 125.64856 73.48682 125.84586 73.21841 126.04312 72.9468 126.24043 72.67128 126.4377 72.3919 126.635 72.10898 126.8323 71.82089 127.02956 71.52924 127.22687 71.23276 127.42415 70.9316 127.62143 70.62494 127.81874 70.31311 128.016 69.99614 128.21332 69.67334 128.41059 69.3441 128.60788 69.00824 128.80519 68.66606 129.00246 68.31633 129.19976 67.9593 129.39704 67.59439 129.59433 67.22092 129.79163 66.83955 129.9889 66.44847 130.18619 66.04742 130.38347 65.63698 130.58078 65.2159 130.77806 64.78287 130.97534 64.33838 131.17266 63.88098 131.3699 63.41037 131.56722 62.92616 131.76451 62.4265 131.96178 61.91132 132.15909 61.3792 132.35636 60.82802 132.55367 60.25957 132.75096 59.67 132.94823 59.05879 133.14554 58.42546 133.34279 57.7673 133.5401 57.08249 133.73741 56.36945 133.93466 55.62686 134.13198 54.8515 134.32926 54.03984 134.52654 53.19267 134.72385 52.30307 134.92111 51.3705 135.11841 50.3889 135.31569 49.35515 135.51299 48.26443 135.71028 47.11127 135.90756 45.8929 136.10486 44.59767 136.30213 43.2208 136.49944 41.75111 136.69673 40.18285 136.89402 38.49931 137.0913 36.69362 137.28858 34.74443 137.48589 32.6366 137.68317 30.34833 137.88045 27.85458 138.07775 25.12183 138.27501 22.12453 138.47232 18.80574 138.66962 15.11299 138.86688 10.99384 139.0642 6.34932 139.15363 3.95729"/>
<path transform="matrix(-.03735112,-.9993299,-.99930009,.037352239,102.55263,9.092224)" d="M2.8892 0-1.73352 2.31136 0 0-1.73352-2.31136" fill="#0000ff"/>
<path transform="matrix(.03732112,.9993299,.99930009,-.037322239,141.59847,162.57767)" d="M2.8892 0-1.73352 2.31136 0 0-1.73352-2.31136" fill="#0000ff"/>
<path transform="matrix(1.00003,0,0,-1.00006,2.4406586,166.5352)" stroke-width=".99628" stroke-linecap="butt" stroke-miterlimit="10" stroke-linejoin="miter" fill="none" stroke="#0000ff" d="M145.09738 157.43355 145.18675 155.04654 145.38404 150.4025 145.58133 146.28334 145.77863 142.5901 145.9759 139.2718 146.1732 136.27194 146.3705 133.54064 146.56777 131.04706 146.76506 128.75846 146.96236 126.6519 147.15964 124.70271 147.35694 122.89427 147.55422 121.21349 147.7515 119.6423 147.94879 118.17601 148.14609 116.79866 148.34337 115.50298 148.54067 114.28247 148.73796 113.12964 148.93523 112.03975 149.13253 111.00743 149.32982 110.02583 149.52712 109.09262 149.7244 108.20349 149.92169 107.35487 150.11898 106.54483 150.31626 105.76883 150.51355 105.0256 150.71085 104.31384 150.90813 103.62904 151.10543 102.96974 151.3027 102.33658 151.49999 101.72585 151.69728 101.13628 151.89458 100.56735 152.09186 100.01732 152.28916 99.48502 152.48645 98.96985 152.68372 98.47017 152.88101 97.98518 153.07831 97.51503 153.27559 97.0578 153.47289 96.61299 153.67018 96.1798 153.86746 95.7592 154.06475 95.3489 154.26204 94.9477 154.45934 94.5571 154.65662 94.17476 154.85391 93.80194 155.0512 93.43703 155.24848 93.07968 155.44577 92.73027 155.64307 92.38762 155.84035 92.05208 156.03765 91.72299 156.23494 91.39989 156.4322 91.0824 156.6295 90.77092 156.8268 90.46475 157.02408 90.1634 157.22138 89.8671 157.41866 89.57498 157.61594 89.28735 157.81324 89.00443 158.01053 88.72505 158.20783 88.44954 158.4051 88.17792 158.6024 87.90952 158.7997 87.64418 158.99697 87.38225 159.19426 87.1232 159.39156 86.86673 159.58884 86.61366 159.78614 86.36269 159.98343 86.11398 160.1807 85.86769 160.37799 85.62334 160.57529 85.38126 160.77257 85.14108 160.96987 84.90271 161.16716 84.66626 161.36443 84.43126 161.56172 84.19771 161.75902 83.96547 161.9563 83.73468 162.1536 83.50517 162.35089 83.27664 162.54819 83.04906 162.74546 82.82214 162.94275 82.59636 163.14005 82.37152 163.33733 82.14723 163.53462 81.9232 163.73192 81.69986 163.92919 81.47688 164.12648 81.25386 164.32378 81.03154 164.52106 80.8092 164.71836 80.58713 164.91565 80.36464 165.11292 80.14232 165.31023 79.91945 165.50749 79.6963 165.70479 79.47314 165.9021 79.24892 166.09937 79.02481 166.29666 78.79967 166.49393 78.57355 166.69124 78.34727 166.88855 78.11969 167.0858 77.89116 167.28311 77.66133 167.4804 77.43039 167.67768 77.19844 167.87499 76.96474 168.07227 76.73007 168.26955 76.4933 168.46683 76.25493 168.66414 76.01477 168.86142 75.7725 169.0587 75.52864 169.256 75.2822 169.45326 75.03348 169.65058 74.78267 169.84787 74.5291 170.04514 74.27313 170.24245 74.01393 170.43972 73.75215 170.63701 73.48682 170.8343 73.21841 171.03159 72.9468 171.2289 72.67064 171.42615 72.3919 171.62346 72.10866 171.82077 71.82089 172.01802 71.52924 172.21533 71.23276 172.41262 70.9316 172.6099 70.62541 172.8072 70.31296 173.00449 69.99646 173.20177 69.67334 173.39905 69.3441 173.59636 69.0079 173.79364 68.66606 173.99092 68.31616 174.18822 67.9593 174.38549 67.59407 174.5828 67.22075 174.78009 66.83923 174.97736 66.44847 175.17467 66.04742 175.37194 65.63698 175.56925 65.2159 175.76654 64.78287 175.9638 64.33806 176.16112 63.88098 176.35839 63.41037 176.55568 62.92552 176.75299 62.42586 176.95024 61.91068 177.14756 61.37901 177.34484 60.8285 177.54212 60.25941 177.73943 59.67032 177.9367 59.05911 178.13399 58.42484 178.33127 57.76762 178.52858 57.082 178.72586 56.36945 178.92314 55.62701 179.12044 54.85054 179.3177 54.04082 179.51502 53.19267 179.71231 52.30307 179.90959 51.3705 180.10689 50.38808 180.30416 49.35658 180.50147 48.26443 180.69876 47.11287 180.89603 45.89111 181.09334 44.59767 181.29059 43.2208 181.4879 41.75111 181.68521 40.18057 181.88246 38.49979 182.07978 36.69118 182.27706 34.74539 182.47434 32.63466 182.67165 30.34833 182.86893 27.85216 183.06621 25.12392 183.26349 22.12453 183.4608 18.80138 183.65808 15.11299 183.85536 10.99059 184.05268 6.3498 184.1421 3.95729"/>
<path transform="matrix(-.03735112,-.9993299,-.99930009,.037352239,147.5424,9.092224)" d="M2.8892 0-1.73352 2.31136 0 0-1.73352-2.31136" fill="#0000ff"/>
<path transform="matrix(.03732112,.9993299,.99930009,-.037322239,186.5883,162.57767)" d="M2.8892 0-1.73352 2.31136 0 0-1.73352-2.31136" fill="#0000ff"/>
<path transform="matrix(1.00003,0,0,-1.00006,2.4406586,166.5352)" stroke-width=".3985" stroke-linecap="butt" stroke-dasharray="2.98883,2.98883" stroke-miterlimit="10" stroke-linejoin="miter" fill="none" stroke="#ff0000" d="M7.16013 0V161.39636"/>
<path transform="matrix(1.00003,0,0,-1.00006,2.4406586,166.5352)" stroke-width=".3985" stroke-linecap="butt" stroke-dasharray="2.98883,2.98883" stroke-miterlimit="10" stroke-linejoin="miter" fill="none" stroke="#ff0000" d="M52.14856 0V161.39636"/>
<path transform="matrix(1.00003,0,0,-1.00006,2.4406586,166.5352)" stroke-width=".3985" stroke-linecap="butt" stroke-dasharray="2.98883,2.98883" stroke-miterlimit="10" stroke-linejoin="miter" fill="none" stroke="#ff0000" d="M97.137 0V161.39636"/>
<path transform="matrix(1.00003,0,0,-1.00006,2.4406586,166.5352)" stroke-width=".3985" stroke-linecap="butt" stroke-dasharray="2.98883,2.98883" stroke-miterlimit="10" stroke-linejoin="miter" fill="none" stroke="#ff0000" d="M142.12541 0V161.39636"/>
<path transform="matrix(1.00003,0,0,-1.00006,2.4406586,166.5352)" stroke-width=".3985" stroke-linecap="butt" stroke-dasharray="2.98883,2.98883" stroke-miterlimit="10" stroke-linejoin="miter" fill="none" stroke="#ff0000" d="M187.11385 0V161.39636"/>
<use data-text="x" xlink:href="#font_3_2" transform="matrix(9.962899,0,0,-9.963197,187.50621,82.31215)"/>
<use data-text="y" xlink:href="#font_3_3" transform="matrix(9.962899,0,0,-9.963197,103.10068,12.93898)"/>
</svg>
