<svg xmlns="http://www.w3.org/2000/svg" xmlns:xlink="http://www.w3.org/1999/xlink" xmlns:inkscape="http://www.inkscape.org/namespaces/inkscape" version="1.1" width="250" height="205" viewBox="0 0 250 205">
<defs>
<path id="font_1_1" d="M.45999146 .31976319C.45999146 .39982606 .45498658 .47988893 .41999818 .5539398 .37399293 .65000918 .2919922 .6660156 .25 .6660156 .18998719 .6660156 .116989139 .64001467 .07598877 .54693606 .04399109 .47789 .038986207 .39982606 .038986207 .31976319 .038986207 .24472046 .042999269 .15464783 .083999637 .07859802 .1269989-.0024719239 .19999695-.022460938 .24899292-.022460938 .30299378-.022460938 .3789978-.0014648438 .4229889 .09359741 .45498658 .16265869 .45999146 .2407074 .45999146 .31976319M.24899292-.00047302247C.20999146-.00047302247 .15098572 .024551392 .1329956 .12062073 .12199402 .18066406 .12199402 .2727356 .12199402 .3317871 .12199402 .39582826 .12199402 .46188355 .12998963 .5159149 .14898682 .63500979 .22399903 .64401248 .24899292 .64401248 .28199769 .64401248 .34799195 .6259918 .36698915 .52693179 .3769989 .47088624 .3769989 .39482118 .3769989 .3317871 .3769989 .25672914 .3769989 .18867493 .3659973 .12461853 .35099793 .029556275 .2939911-.00047302247 .24899292-.00047302247Z"/>
<path id="font_2_1" d="M.19198609 .052993776C.19198609 .08198547 .16799927 .10598755 .13899231 .10598755 .10998535 .10598755 .085998538 .08198547 .085998538 .052993776 .085998538 .023986817 .10998535 0 .13899231 0 .16799927 0 .19198609 .023986817 .19198609 .052993776Z"/>
<path id="font_1_4" d="M.44898988 .20022583C.44898988 .3193512 .36698915 .41944886 .25898744 .41944886 .21099854 .41944886 .16799927 .40345765 .13198853 .36842347V.5637665C.1519928 .5577698 .18499756 .55078127 .21699524 .55078127 .33999635 .55078127 .4099884 .6417694 .4099884 .6547699 .4099884 .6607666 .40699769 .6657715 .3999939 .6657715 .39898683 .6657715 .39698792 .6657715 .3919983 .66278079 .37199403 .6537781 .32299806 .6337738 .2559967 .6337738 .21598816 .6337738 .16999817 .6407776 .12298584 .6617737 .114990238 .66477969 .11299133 .66477969 .11099243 .66477969 .100997928 .66477969 .100997928 .6567688 .100997928 .6407776V.34439088C.100997928 .32637025 .100997928 .31835938 .114990238 .31835938 .12199402 .31835938 .12399292 .32136537 .12799073 .32736207 .13899231 .3433838 .17599488 .39746095 .25698854 .39746095 .30899049 .39746095 .33399964 .35139466 .34199525 .33337403 .35798646 .29632569 .3600006 .25727845 .3600006 .20722962 .3600006 .17222595 .3600006 .11222839 .33599855 .07035828 .31199647 .031463624 .2749939 .0055389406 .22898865 .0055389406 .1559906 .0055389406 .09899902 .058380128 .08198547 .11723328 .084991458 .1162262 .08799744 .115234378 .09899902 .115234378 .13198853 .115234378 .14898682 .14022827 .14898682 .16423035 .14898682 .18823242 .13198853 .21322632 .09899902 .21322632 .084991458 .21322632 .049987794 .20622254 .049987794 .16023255 .049987794 .07434082 .11898804-.022460938 .23098755-.022460938 .34700013-.022460938 .44898988 .073349 .44898988 .20022583Z"/>
<path id="font_1_2" d="M.2939911 .64004519C.2939911 .66400149 .2939911 .6660156 .2709961 .6660156 .20899964 .60227969 .12098694 .60227969 .08898926 .60227969V.57128909C.10899353 .57128909 .16799927 .57128909 .21998596 .5972748V.07902527C.21998596 .042999269 .21699524 .0309906 .1269989 .0309906H.09498596V0C.12998963 .0029907227 .21699524 .0029907227 .25698854 .0029907227 .29699708 .0029907227 .38398744 .0029907227 .4189911 0V.0309906H.3869934C.29699708 .0309906 .2939911 .041992189 .2939911 .07902527V.64004519Z"/>
<path id="font_1_3" d="M.1269989 .07699585 .23298645 .18003845C.3889923 .31811524 .44898988 .3721466 .44898988 .47216798 .44898988 .5860901 .35899354 .6660156 .23699951 .6660156 .12399292 .6660156 .049987794 .57411196 .049987794 .48516847 .049987794 .4291687 .099990848 .4291687 .102996829 .4291687 .11999512 .4291687 .15499878 .44117738 .15499878 .48217774 .15499878 .5081787 .13699341 .5341797 .101989749 .5341797 .09399414 .5341797 .09199524 .5341797 .08898926 .5331726 .11199951 .59806826 .1659851 .63500979 .22399903 .63500979 .31498719 .63500979 .35798646 .5541382 .35798646 .47216798 .35798646 .39215089 .30799867 .31311036 .25299073 .25108338L.06098938 .036987306C.049987794 .025985718 .049987794 .023986817 .049987794 0H.42099L.44898988 .17404175H.42399598C.4189911 .14402771 .4119873 .1000061 .4019928 .084991458 .394989 .07699585 .32899476 .07699585 .30699159 .07699585H.1269989Z"/>
<path id="font_3_1" d="M.6589966 .23046875C.6759949 .23046875 .69400027 .23046875 .69400027 .25045777 .69400027 .27046205 .6759949 .27046205 .6589966 .27046205H.117996219C.100997928 .27046205 .08299255 .27046205 .08299255 .25045777 .08299255 .23046875 .100997928 .23046875 .117996219 .23046875H.6589966Z"/>
<path id="font_4_1" d="M.31098939 .36265565H.42999269C.4149933 .30274964 .3929901 .2118988 .3929901 .13302613 .3929901 .09309387 .397995 .06613159 .4039917 .044174196 .41999818-.0057678224 .43299867-.009765625 .44898988-.009765625 .47200013-.009765625 .49598695 .011230469 .49598695 .035186769 .49598695 .043182374 .49398805 .047164918 .48799134 .057159425 .46899415 .09408569 .45098878 .15100098 .45098878 .23286438 .45098878 .25183106 .45098878 .29177857 .46499635 .36265565H.58999636C.60798647 .36265565 .6159973 .36265565 .6269989 .37065126 .6409912 .380661 .6439972 .39665223 .6439972 .4016571 .6439972 .43066407 .6179962 .43066407 .6009979 .43066407H.22399903C.18299866 .43066407 .15499878 .42166139 .10998535 .37965394 .083999637 .35665895 .04499817 .30274964 .04499817 .2937622 .04499817 .28178407 .057998659 .28178407 .06199646 .28178407 .07299805 .28178407 .07398987 .28378297 .07998657 .2927704 .1309967 .36265565 .19299317 .36265565 .21499634 .36265565H.27598573C.24499512 .25283814 .19099427 .13502503 .16099549 .07511902 .15499878 .062149049 .14498902 .04118347 .14199829 .03718567 .14099121 .033187868 .13899231 .029190064 .13899231 .022201539 .13899231 .006225586 .15098572-.009765625 .17399597-.009765625 .21398926-.009765625 .22499085 .035186769 .24899292 .12504578L.31098939 .36265565Z"/>
<path id="font_5_1" d="M.5049896 .18203736H.47099305C.46798707 .16001892 .45799256 .100997928 .44499208 .09098816 .43699647 .084991458 .3600006 .084991458 .34599305 .084991458H.1619873C.2669983 .17803955 .3019867 .20603943 .3619995 .25306703 .43598939 .312088 .5049896 .374115 .5049896 .46914674 .5049896 .5900879 .39898683 .6640625 .2709961 .6640625 .14698792 .6640625 .06298828 .57710269 .06298828 .4851532 .06298828 .43414308 .10598755 .42915345 .115997318 .42915345 .13999939 .42915345 .16899109 .44615174 .16899109 .48214723 .16899109 .5001526 .1619873 .53515627 .10998535 .53515627 .14099121 .6060791 .20899964 .62805178 .2559967 .62805178 .35598756 .62805178 .4079895 .5501404 .4079895 .46914674 .4079895 .38212586 .34599305 .3130951 .31399537 .27708436L.07299805 .038986207C.06298828 .02999878 .06298828 .027999878 .06298828 0H.47499085L.5049896 .18203736Z"/>
<path id="font_5_2" d="M.5289917 .1640625V.20005799H.41799928V.64582827C.41799928 .66682437 .41799928 .6738281 .3959961 .6738281 .38398744 .6738281 .37998963 .6738281 .36999513 .65982058L.038986207 .20005799V.1640625H.33299256V.08201599C.33299256 .04800415 .33299256 .035995485 .2519989 .035995485H.22499085V0C.2749939 .0019989014 .33898927 .0039978029 .375 .0039978029 .4119873 .0039978029 .47599793 .0019989014 .526001 0V.035995485H.49899293C.41799928 .035995485 .41799928 .04800415 .41799928 .08201599V.1640625H.5289917M.33999635 .5658722V.20005799H.07598877L.33999635 .5658722Z"/>
<path id="font_2_2" d="M.33399964 .30233766C.33999635 .32835389 .36299134 .42037965 .43299867 .42037965 .43798829 .42037965 .46199037 .42037965 .48298646 .40734864 .45498658 .402359 .43499757 .37734986 .43499757 .35334779 .43499757 .33735658 .44599916 .31835938 .47299195 .31835938 .49499513 .31835938 .5269928 .3363495 .5269928 .37635804 .5269928 .42837525 .46798707 .4423828 .43399049 .4423828 .37599183 .4423828 .34098817 .38935853 .32899476 .36634828 .3039856 .43237306 .25 .4423828 .22099304 .4423828 .116989139 .4423828 .05999756 .3133545 .05999756 .28834535 .05999756 .27833558 .069992069 .27833558 .07199097 .27833558 .07998657 .27833558 .08299255 .28033448 .084991458 .28933717 .11898804 .39535523 .18499756 .42037965 .21899414 .42037965 .23799134 .42037965 .272995 .4113617 .272995 .35334779 .272995 .32235719 .2559967 .25532533 .21899414 .11528015 .20298767 .053268434 .16799927 .011245728 .12399292 .011245728 .117996219 .011245728 .09498596 .011245728 .07398987 .024276734 .09899902 .029266358 .12098694 .05027771 .12098694 .07827759 .12098694 .105270389 .09899902 .11328125 .083999637 .11328125 .053985597 .11328125 .0289917 .08728027 .0289917 .055267335 .0289917 .009246826 .07899475-.0107421879 .12298584-.0107421879 .18899536-.0107421879 .22499085 .059280397 .22799683 .0652771 .23999024 .028274537 .27598573-.0107421879 .33599855-.0107421879 .43899537-.0107421879 .49598695 .118270877 .49598695 .14328003 .49598695 .1532898 .4869995 .1532898 .48399354 .1532898 .47499085 .1532898 .47299195 .14929199 .47099305 .14228821 .43798829 .03527832 .36999513 .011245728 .33799745 .011245728 .29899598 .011245728 .2829895 .043273927 .2829895 .07727051 .2829895 .09927368 .2889862 .121276859 .2999878 .16529846L.33399964 .30233766Z"/>
<path id="font_2_3" d="M.48599244 .38136292C.48999024 .39537049 .48999024 .39736939 .48999024 .40437318 .48999024 .42237855 .47599793 .43138124 .46099855 .43138124 .45098878 .43138124 .43499757 .42536927 .42599488 .41036988 .42399598 .405365 .41600038 .37435914 .4119873 .35635377 .40499879 .33035279 .397995 .30334474 .3919983 .27633668L.34700013 .09628296C.34298707 .08126831 .2999878 .011245728 .23399353 .011245728 .18299866 .011245728 .17199707 .055267335 .17199707 .0922699 .17199707 .1382904 .18899536 .20030213 .22299195 .28833009 .23899842 .3293457 .24299622 .3403473 .24299622 .36035157 .24299622 .405365 .21099854 .4423828 .16099549 .4423828 .06599426 .4423828 .0289917 .29733277 .0289917 .28833009 .0289917 .27833558 .038986207 .27833558 .040985109 .27833558 .050994874 .27833558 .051986696 .28033448 .056991579 .29634095 .083999637 .3903656 .12399292 .42037965 .1579895 .42037965 .1659851 .42037965 .18299866 .42037965 .18299866 .3883667 .18299866 .36335755 .17298889 .3373413 .1659851 .31834413 .12599182 .21231079 .10798645 .1552887 .10798645 .10827637 .10798645 .019256592 .17098999-.0107421879 .22999573-.0107421879 .2689972-.0107421879 .30299378 .0062561037 .33099366 .03425598 .31799317-.017745972 .30599977-.06674194 .2659912-.11973572 .23999024-.15385437 .20199585-.18309021 .1559906-.18309021 .14199829-.18309021 .09700012-.18005371 .07998657-.14074707 .09599304-.14074707 .10899353-.14074707 .12298584-.1287384 .1329956-.11973572 .14299011-.10673523 .14299011-.08773804 .14299011-.056747438 .115997318-.052734376 .10598755-.052734376 .08299255-.052734376 .049987794-.068740848 .049987794-.11773682 .049987794-.16796875 .09399414-.20507813 .1559906-.20507813 .25898744-.20507813 .3619995-.11373901 .3899994-.00074768069L.48599244 .38136292Z"/>
</defs>
<path transform="matrix(1.2500376,0,0,-1.25,5.678787,203.59349)" stroke-width=".19925" stroke-linecap="butt" stroke-miterlimit="10" stroke-linejoin="miter" fill="none" stroke="#7f807f" d="M56.66324 78.5729V82.82466M97.137 78.5729V82.82466M137.61074 78.5729V82.82466M178.08449 78.5729V82.82466"/>
<path transform="matrix(1.2500376,0,0,-1.25,5.678787,203.59349)" stroke-width=".19925" stroke-linecap="butt" stroke-miterlimit="10" stroke-linejoin="miter" fill="none" stroke="#7f807f" d="M14.06369 20.17477H18.31528M14.06369 50.43698H18.31528M14.06369 110.9606H18.31528M14.06369 141.22278H18.31528"/>
<path transform="matrix(1.2500376,0,0,-1.25,5.678787,203.59349)" stroke-width=".3985" stroke-linecap="butt" stroke-miterlimit="10" stroke-linejoin="miter" fill="none" stroke="#000000" d="M0 80.69878H192.28145"/>
<path transform="matrix(1.2500376,0,0,-1.25,246.03781,102.72002)" d="M1.99252 0-1.19551 1.59401 0 0-1.19551-1.59401"/>
<path transform="matrix(1.2500376,0,0,-1.25,5.678787,203.59349)" stroke-width=".3985" stroke-linecap="butt" stroke-miterlimit="10" stroke-linejoin="miter" fill="none" stroke="#000000" d="M16.1895 0V159.40506"/>
<path transform="matrix(0,-1.25,-1.2500376,-0,25.916272,4.3371737)" d="M1.99252 0-1.19551 1.59401 0 0-1.19551-1.59401"/>
<use data-text="0" xlink:href="#font_1_1" transform="matrix(12.453624,0,0,-12.45325,68.55318,117.80224)"/>
<use data-text="." xlink:href="#font_2_1" transform="matrix(12.453624,0,0,-12.45325,74.78087,117.80224)"/>
<use data-text="5" xlink:href="#font_1_4" transform="matrix(12.453624,0,0,-12.45325,78.239719,117.80224)"/>
<use data-text="1" xlink:href="#font_1_2" transform="matrix(12.453624,0,0,-12.45325,123.989849,117.80224)"/>
<use data-text="1" xlink:href="#font_1_2" transform="matrix(12.453624,0,0,-12.45325,169.74121,117.80224)"/>
<use data-text="." xlink:href="#font_2_1" transform="matrix(12.453624,0,0,-12.45325,175.9689,117.80224)"/>
<use data-text="5" xlink:href="#font_1_4" transform="matrix(12.453624,0,0,-12.45325,179.42775,117.80224)"/>
<use data-text="2" xlink:href="#font_1_3" transform="matrix(12.453624,0,0,-12.45325,225.17787,117.80224)"/>
<use data-text="&#x2212;" xlink:href="#font_3_1" transform="matrix(12.453624,0,0,-12.45325,.04737091,180.556)"/>
<use data-text="&#x03c0;" xlink:href="#font_4_1" transform="matrix(8.717512,0,0,-8.71725,11.2289509,175.6535)"/>
<path transform="matrix(1.2500376,0,0,-1.25,-125.5864,-53.6865)" stroke-width=".3985" stroke-linecap="butt" stroke-miterlimit="10" stroke-linejoin="miter" fill="none" stroke="#000000" d="M109.449-184.904H114.358"/>
<use data-text="2" xlink:href="#font_5_1" transform="matrix(8.717512,0,0,-8.71725,11.813972,184.85102)"/>
<use data-text="&#x2212;" xlink:href="#font_3_1" transform="matrix(12.453624,0,0,-12.45325,.04737091,142.72849)"/>
<use data-text="&#x03c0;" xlink:href="#font_4_1" transform="matrix(8.717512,0,0,-8.71725,11.2289509,137.82599)"/>
<path transform="matrix(1.2500376,0,0,-1.25,-125.5864,-91.51401)" stroke-width=".3985" stroke-linecap="butt" stroke-miterlimit="10" stroke-linejoin="miter" fill="none" stroke="#000000" d="M109.449-184.904H114.358"/>
<use data-text="4" xlink:href="#font_5_2" transform="matrix(8.717512,0,0,-8.71725,11.813972,147.0235)"/>
<use data-text="&#x03c0;" xlink:href="#font_4_1" transform="matrix(8.717512,0,0,-8.71725,11.2289509,62.17099)"/>
<path transform="matrix(1.2500376,0,0,-1.25,-115.899868,-167.169)" stroke-width=".3985" stroke-linecap="butt" stroke-miterlimit="10" stroke-linejoin="miter" fill="none" stroke="#000000" d="M101.7-184.904H106.609"/>
<use data-text="4" xlink:href="#font_5_2" transform="matrix(8.717512,0,0,-8.71725,11.815224,71.3685)"/>
<use data-text="&#x03c0;" xlink:href="#font_4_1" transform="matrix(8.717512,0,0,-8.71725,11.2289509,24.34349)"/>
<path transform="matrix(1.2500376,0,0,-1.25,-115.899868,-204.9965)" stroke-width=".3985" stroke-linecap="butt" stroke-miterlimit="10" stroke-linejoin="miter" fill="none" stroke="#000000" d="M101.7-184.904H106.609"/>
<use data-text="2" xlink:href="#font_5_1" transform="matrix(8.717512,0,0,-8.71725,11.815224,33.541)"/>
<path transform="matrix(1.2500376,0,0,-1.25,5.678787,203.59349)" stroke-width=".99628" stroke-linecap="butt" stroke-miterlimit="10" stroke-linejoin="miter" fill="none" stroke="#00aeef" d="M16.1895 141.22278 17.00302 135.75295 17.81656 133.48464 18.6301 131.73763 19.44365 130.26074 20.25717 128.95609 21.07071 127.77356 21.88426 126.68314 22.6978 125.6663 23.51132 124.70882 24.32487 123.80026 25.13841 122.93372 25.95195 122.10414 26.76549 121.30577 27.57903 120.53554 28.39256 119.78996 29.20612 119.06789 30.01964 118.36584 30.83318 117.68117 31.64671 117.01495 32.46027 116.36418 33.27379 115.7261 34.08733 115.10304 34.90088 114.4908 35.71442 113.89127 36.52794 113.30211 37.34149 112.723 38.15503 112.15274 38.96857 111.59174 39.7821 111.03844 40.59564 110.49399 41.40918 109.95688 42.22273 109.42592 43.03625 108.90266 43.8498 108.3852 44.66333 107.87311 45.47688 107.36798 46.2904 106.86707 47.10394 106.37195 47.9175 105.88261 48.73103 105.39674 49.54456 104.91586 50.35811 104.43962 51.17165 103.96646 51.98518 103.49832 52.79872 103.03323 53.61226 102.5724 54.4258 102.11429 55.23935 101.66127 56.05287 101.20984 56.86641 100.76239 57.67995 100.317 58.4935 99.87486 59.30704 99.43599 60.12056 98.99887 60.93411 98.56465 61.74765 98.13338 62.56119 97.70354 63.37473 97.27591 64.18826 96.85136 65.0018 96.42847 65.81535 96.00708 66.62888 95.58849 67.44241 95.17136 68.25597 94.75557 69.0695 94.34229 69.88303 93.93028 70.69656 93.51936 71.51012 93.11081 72.32365 92.7029 73.13718 92.29675 73.95073 91.89236 74.76427 91.48842 75.5778 91.08649 76.39134 90.68529 77.20488 90.28482 78.01842 89.88614 78.83197 89.48819 79.6455 89.09074 80.45903 88.69496 81.27258 88.29924 82.08612 87.90477 82.89964 87.51137 83.71318 87.118 84.52673 86.72563 85.34027 86.33432 86.1538 85.94284 86.96735 85.55219 87.78088 85.1625 88.59442 84.77255 89.40796 84.38365 90.2215 83.99445 91.03503 83.60602 91.84859 83.21812 92.66211 82.82986 93.47565 82.44214 94.2892 82.05496 95.10274 81.66716 95.91626 81.27985 96.7298 80.89299 97.54335 80.50536 98.35693 80.11774 99.17038 79.73079 99.98398 79.34338 100.79744 78.95543 101.61104 78.5681 102.42462 78.18016 103.23808 77.79155 104.05168 77.40346 104.86514 77.01466 105.67874 76.62503 106.49231 76.23582 107.30577 75.8454 108.11937 75.45515 108.93283 75.06403 109.74641 74.67192 110.56001 74.2799 111.37347 73.88698 112.18707 73.49281 113.00052 73.09872 113.81412 72.7034 114.62772 72.30682 115.44116 71.91023 116.25476 71.51178 117.0682 71.11275 117.88182 70.7131 118.6954 70.3115 119.50885 69.90916 120.32245 69.50601 121.13591 69.10081 121.94951 68.69466 122.76309 68.28758 123.57654 67.87819 124.39015 67.46811 125.2036 67.05568 126.0172 66.64201 126.83078 66.22707 127.64424 65.80951 128.45784 65.39049 129.27129 64.97 130.08489 64.54662 130.89849 64.12166 131.71193 63.69493 132.52553 63.26508 133.33898 62.83292 134.15259 62.39917 134.96617 61.96246 135.77962 61.5227 136.59322 61.08102 137.40668 60.63608 138.22028 60.18866 139.03386 59.73718 139.84732 59.2833 140.66092 58.82631 141.47438 58.36472 142.28797 57.89926 143.10157 57.43112 143.91501 56.95912 144.72863 56.4817 145.54207 56.00122 146.35567 55.51651 147.16925 55.02562 147.98271 54.53088 148.79631 54.03076 149.60976 53.52446 150.42336 53.01353 151.23696 52.49608 152.0504 51.97166 152.864 51.44186 153.67745 50.9036 154.49106 50.35953 155.30464 49.80623 156.11809 49.24483 156.93169 48.67572 157.74515 48.0966 158.55875 47.50632 159.37233 46.90715 160.18578 46.29567 160.99939 45.67148 161.81284 45.03532 162.62644 44.38338 163.44002 43.71642 164.25348 43.03325 165.06708 42.33006 165.88053 41.6076 166.69412 40.8632 167.50772 40.09258 168.32118 39.29344 169.13477 38.4658 169.94823 37.59846 170.76183 36.68875 171.57541 35.7324 172.38886 34.71443 173.20246 33.62555 174.01592 32.44264 174.82952 31.13684 175.6431 29.66379 176.45656 27.91527 177.27016 25.64464 178.08362 20.20908"/>
<use data-text="x" xlink:href="#font_2_2" transform="matrix(12.453624,0,0,-12.45325,237.01073,98.31973)"/>
<use data-text="y" xlink:href="#font_2_3" transform="matrix(12.453624,0,0,-12.45325,30.31578,11.60849)"/>
</svg>
