<svg xmlns="http://www.w3.org/2000/svg" xmlns:xlink="http://www.w3.org/1999/xlink" version="1.1" width="219" height="168" viewBox="0 0 219 168">
<defs>
<path id="font_1_3" d="M.1269989 .07699585 .23298645 .18003845C.3889923 .31811524 .44898988 .3721466 .44898988 .47216798 .44898988 .5860901 .35899354 .6660156 .23699951 .6660156 .12399292 .6660156 .049987794 .57411196 .049987794 .48516847 .049987794 .4291687 .099990848 .4291687 .102996829 .4291687 .11999512 .4291687 .15499878 .44117738 .15499878 .48217774 .15499878 .5081787 .13699341 .5341797 .101989749 .5341797 .09399414 .5341797 .09199524 .5341797 .08898926 .5331726 .11199951 .59806826 .1659851 .63500979 .22399903 .63500979 .31498719 .63500979 .35798646 .5541382 .35798646 .47216798 .35798646 .39215089 .30799867 .31311036 .25299073 .25108338L.06098938 .036987306C.049987794 .025985718 .049987794 .023986817 .049987794 0H.42099L.44898988 .17404175H.42399598C.4189911 .14402771 .4119873 .1000061 .4019928 .084991458 .394989 .07699585 .32899476 .07699585 .30699159 .07699585H.1269989Z"/>
<path id="font_1_4" d="M.2939911 .16503906V.07800293C.2939911 .041992189 .2919922 .0309906 .21798706 .0309906H.19699097V0C.23799134 .0029907227 .2899933 .0029907227 .33198548 .0029907227 .37399293 .0029907227 .4269867 .0029907227 .46798707 0V.0309906H.44699098C.37298585 .0309906 .37098695 .041992189 .37098695 .07800293V.16503906H.47099305V.19602967H.37098695V.65075686C.37098695 .67074587 .37098695 .6767578 .35499574 .6767578 .34599305 .6767578 .34298707 .6767578 .33499146 .66474917L.027999878 .19602967V.16503906H.2939911M.2999878 .19602967H.055999757L.2999878 .5688019V.19602967Z"/>
<path id="font_1_5" d="M.13198853 .327713V.35173036C.13198853 .6047821 .2559967 .64100649 .30699159 .64100649 .33099366 .64100649 .37298585 .634964 .394989 .6007538 .37998963 .6007538 .33999635 .6007538 .33999635 .5557556 .33999635 .524765 .3639984 .5097656 .38598634 .5097656 .4019928 .5097656 .43199159 .51875308 .43199159 .5577545 .43199159 .6178589 .3880005 .6660156 .30499269 .6660156 .1769867 .6660156 .041992189 .5367584 .041992189 .31570436 .041992189 .048553468 .1579895-.022460938 .25099183-.022460938 .3619995-.022460938 .45700074 .07156372 .45700074 .2036438 .45700074 .33070375 .36799623 .4267578 .25698854 .4267578 .18899536 .4267578 .1519928 .37573243 .13198853 .327713M.25099183 .0055389406C.18798828 .0055389406 .1579895 .06556702 .1519928 .080566409 .13398743 .127594 .13398743 .2076416 .13398743 .22564698 .13398743 .30369569 .1659851 .40374757 .2559967 .40374757 .27198792 .40374757 .31799317 .40374757 .34899903 .34172059 .36698915 .30470277 .36698915 .2536621 .36698915 .20463562 .36698915 .15661621 .36698915 .10658264 .34999085 .0705719 .31999208 .010528564 .27398683 .0055389406 .25099183 .0055389406Z"/>
<path id="font_1_6" d="M.16299439 .4569702C.116989139 .486969 .11299133 .52098086 .11299133 .5379791 .11299133 .598999 .17799378 .64100649 .24899292 .64100649 .32199098 .64100649 .38598634 .58898928 .38598634 .51698306 .38598634 .45996095 .34700013 .4119568 .2869873 .37695313L.16299439 .4569702M.30899049 .36193849C.3809967 .3989563 .42999269 .45095826 .42999269 .51698306 .42999269 .6090088 .34098817 .6660156 .25 .6660156 .1499939 .6660156 .068984989 .59199526 .068984989 .49897767 .068984989 .4809723 .070999149 .43595887 .11299133 .38894654 .12399292 .37695313 .16099549 .35194398 .18598938 .33494569 .12799073 .30592347 .041992189 .24984741 .041992189 .15072632 .041992189 .04458618 .14399719-.022460938 .24899292-.022460938 .3619995-.022460938 .45700074 .06060791 .45700074 .16773987 .45700074 .20379639 .44599916 .24885559 .4079895 .2909088 .3889923 .31193543 .37298585 .3219452 .30899049 .36193849M.20899964 .3199463 .33198548 .24183655C.3600006 .2228241 .40699769 .19277954 .40699769 .13169861 .40699769 .05760193 .33198548 .0055389406 .25 .0055389406 .1639862 .0055389406 .09199524 .067611698 .09199524 .15072632 .09199524 .20880127 .12399292 .27288819 .20899964 .3199463Z"/>
<path id="font_1_2" d="M.2939911 .64004519C.2939911 .66400149 .2939911 .6660156 .2709961 .6660156 .20899964 .60227969 .12098694 .60227969 .08898926 .60227969V.57128909C.10899353 .57128909 .16799927 .57128909 .21998596 .5972748V.07902527C.21998596 .042999269 .21699524 .0309906 .1269989 .0309906H.09498596V0C.12998963 .0029907227 .21699524 .0029907227 .25698854 .0029907227 .29699708 .0029907227 .38398744 .0029907227 .4189911 0V.0309906H.3869934C.29699708 .0309906 .2939911 .041992189 .2939911 .07902527V.64004519Z"/>
<path id="font_1_1" d="M.45999146 .31976319C.45999146 .39982606 .45498658 .47988893 .41999818 .5539398 .37399293 .65000918 .2919922 .6660156 .25 .6660156 .18998719 .6660156 .116989139 .64001467 .07598877 .54693606 .04399109 .47789 .038986207 .39982606 .038986207 .31976319 .038986207 .24472046 .042999269 .15464783 .083999637 .07859802 .1269989-.0024719239 .19999695-.022460938 .24899292-.022460938 .30299378-.022460938 .3789978-.0014648438 .4229889 .09359741 .45498658 .16265869 .45999146 .2407074 .45999146 .31976319M.24899292-.00047302247C.20999146-.00047302247 .15098572 .024551392 .1329956 .12062073 .12199402 .18066406 .12199402 .2727356 .12199402 .3317871 .12199402 .39582826 .12199402 .46188355 .12998963 .5159149 .14898682 .63500979 .22399903 .64401248 .24899292 .64401248 .28199769 .64401248 .34799195 .6259918 .36698915 .52693179 .3769989 .47088624 .3769989 .39482118 .3769989 .3317871 .3769989 .25672914 .3769989 .18867493 .3659973 .12461853 .35099793 .029556275 .2939911-.00047302247 .24899292-.00047302247Z"/>
<path id="font_2_1" d="M.6589966 .23046875C.6759949 .23046875 .69400027 .23046875 .69400027 .25045777 .69400027 .27046205 .6759949 .27046205 .6589966 .27046205H.117996219C.100997928 .27046205 .08299255 .27046205 .08299255 .25045777 .08299255 .23046875 .100997928 .23046875 .117996219 .23046875H.6589966Z"/>
<path id="font_3_1" d="M.33399964 .30233766C.33999635 .32835389 .36299134 .42037965 .43299867 .42037965 .43798829 .42037965 .46199037 .42037965 .48298646 .40734864 .45498658 .402359 .43499757 .37734986 .43499757 .35334779 .43499757 .33735658 .44599916 .31835938 .47299195 .31835938 .49499513 .31835938 .5269928 .3363495 .5269928 .37635804 .5269928 .42837525 .46798707 .4423828 .43399049 .4423828 .37599183 .4423828 .34098817 .38935853 .32899476 .36634828 .3039856 .43237306 .25 .4423828 .22099304 .4423828 .116989139 .4423828 .05999756 .3133545 .05999756 .28834535 .05999756 .27833558 .069992069 .27833558 .07199097 .27833558 .07998657 .27833558 .08299255 .28033448 .084991458 .28933717 .11898804 .39535523 .18499756 .42037965 .21899414 .42037965 .23799134 .42037965 .272995 .4113617 .272995 .35334779 .272995 .32235719 .2559967 .25532533 .21899414 .11528015 .20298767 .053268434 .16799927 .011245728 .12399292 .011245728 .117996219 .011245728 .09498596 .011245728 .07398987 .024276734 .09899902 .029266358 .12098694 .05027771 .12098694 .07827759 .12098694 .105270389 .09899902 .11328125 .083999637 .11328125 .053985597 .11328125 .0289917 .08728027 .0289917 .055267335 .0289917 .009246826 .07899475-.0107421879 .12298584-.0107421879 .18899536-.0107421879 .22499085 .059280397 .22799683 .0652771 .23999024 .028274537 .27598573-.0107421879 .33599855-.0107421879 .43899537-.0107421879 .49598695 .118270877 .49598695 .14328003 .49598695 .1532898 .4869995 .1532898 .48399354 .1532898 .47499085 .1532898 .47299195 .14929199 .47099305 .14228821 .43798829 .03527832 .36999513 .011245728 .33799745 .011245728 .29899598 .011245728 .2829895 .043273927 .2829895 .07727051 .2829895 .09927368 .2889862 .121276859 .2999878 .16529846L.33399964 .30233766Z"/>
<path id="font_3_2" d="M.48599244 .38136292C.48999024 .39537049 .48999024 .39736939 .48999024 .40437318 .48999024 .42237855 .47599793 .43138124 .46099855 .43138124 .45098878 .43138124 .43499757 .42536927 .42599488 .41036988 .42399598 .405365 .41600038 .37435914 .4119873 .35635377 .40499879 .33035279 .397995 .30334474 .3919983 .27633668L.34700013 .09628296C.34298707 .08126831 .2999878 .011245728 .23399353 .011245728 .18299866 .011245728 .17199707 .055267335 .17199707 .0922699 .17199707 .1382904 .18899536 .20030213 .22299195 .28833009 .23899842 .3293457 .24299622 .3403473 .24299622 .36035157 .24299622 .405365 .21099854 .4423828 .16099549 .4423828 .06599426 .4423828 .0289917 .29733277 .0289917 .28833009 .0289917 .27833558 .038986207 .27833558 .040985109 .27833558 .050994874 .27833558 .051986696 .28033448 .056991579 .29634095 .083999637 .3903656 .12399292 .42037965 .1579895 .42037965 .1659851 .42037965 .18299866 .42037965 .18299866 .3883667 .18299866 .36335755 .17298889 .3373413 .1659851 .31834413 .12599182 .21231079 .10798645 .1552887 .10798645 .10827637 .10798645 .019256592 .17098999-.0107421879 .22999573-.0107421879 .2689972-.0107421879 .30299378 .0062561037 .33099366 .03425598 .31799317-.017745972 .30599977-.06674194 .2659912-.11973572 .23999024-.15385437 .20199585-.18309021 .1559906-.18309021 .14199829-.18309021 .09700012-.18005371 .07998657-.14074707 .09599304-.14074707 .10899353-.14074707 .12298584-.1287384 .1329956-.11973572 .14299011-.10673523 .14299011-.08773804 .14299011-.056747438 .115997318-.052734376 .10598755-.052734376 .08299255-.052734376 .049987794-.068740848 .049987794-.11773682 .049987794-.16796875 .09399414-.20507813 .1559906-.20507813 .25898744-.20507813 .3619995-.11373901 .3899994-.00074768069L.48599244 .38136292Z"/>
</defs>
<path transform="matrix(1.00002,0,0,-1.00005,18.593102,166.53467)" stroke-width=".19925" stroke-linecap="butt" stroke-miterlimit="10" stroke-linejoin="miter" fill="none" stroke="#929292" d="M0 63.1423V65.9772M12.14212 63.1423V65.9772M24.28424 63.1423V65.9772M36.42636 63.1423V65.9772M48.5685 63.1423V65.9772M60.71062 63.1423V65.9772M72.85274 63.1423V65.9772M84.99486 63.1423V65.9772M97.137 63.1423V65.9772M109.27911 63.1423V65.9772M121.42123 63.1423V65.9772M133.56336 63.1423V65.9772M145.70549 63.1423V65.9772M157.84761 63.1423V65.9772M169.98973 63.1423V65.9772M182.13185 63.1423V65.9772M194.27399 63.1423V65.9772"/>
<path transform="matrix(1.00002,0,0,-1.00005,18.593102,166.53467)" stroke-width=".19925" stroke-linecap="butt" stroke-miterlimit="10" stroke-linejoin="miter" fill="none" stroke="#929292" d="M24.28424 62.43379V66.6857M48.5685 62.43379V66.6857M72.85274 62.43379V66.6857M97.137 62.43379V66.6857M121.42123 62.43379V66.6857M145.70549 62.43379V66.6857M169.98973 62.43379V66.6857M194.27399 62.43379V66.6857"/>
<path transform="matrix(1.00002,0,0,-1.00005,18.593102,166.53467)" stroke-width=".19925" stroke-linecap="butt" stroke-miterlimit="10" stroke-linejoin="miter" fill="none" stroke="#929292" d="M-1.4177 0H1.41771M-1.4177 16.13994H1.41771M-1.4177 32.27988H1.41771M-1.4177 48.41982H1.41771M-1.4177 64.55975H1.41771M-1.4177 80.69969H1.41771M-1.4177 96.83963H1.41771M-1.4177 112.97957H1.41771M-1.4177 129.11952H1.41771M-1.4177 145.25946H1.41771M-1.4177 161.3994H1.41771"/>
<path transform="matrix(1.00002,0,0,-1.00005,18.593102,166.53467)" stroke-width=".19925" stroke-linecap="butt" stroke-miterlimit="10" stroke-linejoin="miter" fill="none" stroke="#929292" d="M-2.12636 32.27988H2.12636M-2.12636 96.83963H2.12636M-2.12636 129.11952H2.12636M-2.12636 161.3994H2.12636"/>
<path transform="matrix(1.00002,0,0,-1.00005,18.593102,166.53467)" stroke-width=".3985" stroke-linecap="butt" stroke-miterlimit="10" stroke-linejoin="miter" fill="none" stroke="#000000" d="M0 64.55975H192.28145"/>
<path transform="matrix(1.00002,0,0,-1.00005,210.87839,101.97169)" d="M1.99252 0-1.19551 1.59401 0 0-1.19551-1.59401"/>
<path transform="matrix(1.00002,0,0,-1.00005,18.593102,166.53467)" stroke-width=".3985" stroke-linecap="butt" stroke-miterlimit="10" stroke-linejoin="miter" fill="none" stroke="#000000" d="M0 0V159.40688"/>
<path transform="matrix(0,-1.00005,-1.00002,-0,18.593102,7.1198275)" d="M1.99252 0-1.19551 1.59401 0 0-1.19551-1.59401"/>
<use data-text="2" xlink:href="#font_1_3" transform="matrix(9.962799,0,0,-9.963098,40.387537,114.03805)"/>
<use data-text="4" xlink:href="#font_1_4" transform="matrix(9.962799,0,0,-9.963098,64.67203,114.03805)"/>
<use data-text="6" xlink:href="#font_1_5" transform="matrix(9.962799,0,0,-9.963098,88.95651,114.03805)"/>
<use data-text="8" xlink:href="#font_1_6" transform="matrix(9.962799,0,0,-9.963098,113.241,114.03805)"/>
<use data-text="1" xlink:href="#font_1_2" transform="matrix(9.962799,0,0,-9.963098,135.03543,114.03805)"/>
<use data-text="0" xlink:href="#font_1_1" transform="matrix(9.962799,0,0,-9.963098,140.01683,114.03805)"/>
<use data-text="1" xlink:href="#font_1_2" transform="matrix(9.962799,0,0,-9.963098,159.31992,114.03805)"/>
<use data-text="2" xlink:href="#font_1_3" transform="matrix(9.962799,0,0,-9.963098,164.30132,114.03805)"/>
<use data-text="1" xlink:href="#font_1_2" transform="matrix(9.962799,0,0,-9.963098,183.6044,114.03805)"/>
<use data-text="4" xlink:href="#font_1_4" transform="matrix(9.962799,0,0,-9.963098,188.5858,114.03805)"/>
<use data-text="1" xlink:href="#font_1_2" transform="matrix(9.962799,0,0,-9.963098,207.8899,114.03805)"/>
<use data-text="6" xlink:href="#font_1_5" transform="matrix(9.962799,0,0,-9.963098,212.87128,114.03805)"/>
<use data-text="&#x2212;" xlink:href="#font_2_1" transform="matrix(9.962799,0,0,-9.963098,.21673584,137.04819)"/>
<use data-text="2" xlink:href="#font_1_3" transform="matrix(9.962799,0,0,-9.963098,7.965889,137.04819)"/>
<use data-text="2" xlink:href="#font_1_3" transform="matrix(9.962799,0,0,-9.963098,7.9648897,72.90099)"/>
<use data-text="4" xlink:href="#font_1_4" transform="matrix(9.962799,0,0,-9.963098,7.9648897,40.619386)"/>
<use data-text="6" xlink:href="#font_1_5" transform="matrix(9.962799,0,0,-9.963098,7.9648897,8.337769)"/>
<path transform="matrix(1.00002,0,0,-1.00005,18.593102,166.53467)" stroke-width=".99628" stroke-linecap="butt" stroke-miterlimit="10" stroke-linejoin="miter" fill="none" stroke="#0000ff" d="M0 32.28114 .97623 32.3412 1.95248 32.51163 2.92874 32.79698 3.90498 33.19597 4.88124 33.70663 5.8575 34.33157 6.83376 35.06563 7.81 35.91006 8.78624 36.86168 9.76251 37.9198 10.73874 39.08318 11.715 40.34596 12.69124 41.71205 13.66751 43.17433 14.64375 44.7328 15.62 46.3823 16.59625 48.12154 17.5725 49.94858 18.54877 51.8576 19.52501 53.84605 20.50125 55.91132 21.4775 58.04631 22.45375 60.2549 23.43001 62.52483 24.40625 64.85672 25.3825 67.24544 26.35876 69.68515 27.33502 72.17456 28.31126 74.70726 29.2875 77.27931 30.26378 79.88623 31.24 82.52222 32.21626 85.18466 33.19252 87.86647 34.16878 90.56636 35.14502 93.27463 36.12126 95.99066 37.09753 98.7067 38.07378 101.42143 39.05003 104.12714 40.02628 106.82057 41.00253 109.49529 41.97878 112.14804 42.95502 114.77432 43.93127 117.36835 44.90753 119.9262 45.88379 122.44339 46.86003 124.9141 47.83629 127.33636 48.81255 129.70442 49.78879 132.01502 50.76505 134.25977 51.74127 136.44187 52.71753 138.5517 53.69379 140.5879 54.67004 142.54859 55.64629 144.42404 56.62253 146.21881 57.5988 147.92513 58.57504 149.5417 59.5513 151.06337 60.52754 152.49015 61.5038 153.82007 62.48004 155.04477 63.45628 156.16876 64.43254 157.18688 65.4088 158.09909 66.38506 158.90287 67.3613 159.59496 68.33757 160.17792 69.31381 160.64597 70.29005 161.00234 71.26631 161.24575 72.24255 161.37357 73.21881 161.38971 74.19505 161.28835 75.17131 161.07402 76.14757 160.74605 77.12383 160.3051 78.10007 159.75312 79.07631 159.08557 80.05258 158.31085 81.02882 157.42638 82.00507 156.43474 82.98131 155.33786 83.95755 154.13513 84.93382 152.8336 85.91006 151.432 86.88632 149.93292 87.86256 148.34154 88.83884 146.65523 89.81508 144.88437 90.79132 143.02696 91.76758 141.08759 92.74382 139.07074 93.72008 136.97772 94.69632 134.81563 95.67259 132.58443 96.64883 130.28998 97.62508 127.93742 98.6014 125.52805 99.57756 123.06897 100.55386 120.5621 101.53004 118.01523 102.50633 115.42833 103.48265 112.81107 104.4588 110.16476 105.43512 107.49327 106.41129 104.80502 107.38759 102.1019 108.3639 99.3891 109.34006 96.67436 110.31638 93.95833 111.29254 91.24551 112.26886 88.54305 113.24515 85.85672 114.22133 83.18912 115.19763 80.54604 116.1738 77.93137 117.1501 75.35027 118.1264 72.80725 119.10258 70.30685 120.07889 67.85295 121.05505 65.45132 122.03136 63.10457 123.00766 60.81723 123.98383 58.59572 124.96014 56.44136 125.9363 54.35672 126.9126 52.3502 127.88893 50.41988 128.86508 48.57475 129.8414 46.81227 130.81755 45.13759 131.79389 43.55847 132.77019 42.06906 133.74634 40.68103 134.72264 39.39047 135.69879 38.20258 136.67513 37.11798 137.65143 36.13731 138.6276 35.269 139.6039 34.50525 140.58008 33.85513 141.55638 33.31284 142.5327 32.88673 143.50884 32.57362 144.48517 32.37154 145.46132 32.28632 146.43762 32.31407 147.41394 32.45805 148.39009 32.71436 149.36643 33.08363 150.34258 33.56848 151.3189 34.16243 152.2952 34.87065 153.27138 35.68605 154.24767 36.61053 155.22383 37.6435 156.20014 38.77844 157.17644 40.01863 158.15262 41.35825 159.12892 42.796 160.10509 44.33188 161.08139 45.9562 162.05773 47.67477 163.03388 49.47859 164.01018 51.36696 164.98633 53.33669 165.96266 55.38129 166.93897 57.50272 167.91512 59.69066 168.89144 61.94507 169.8676 64.26213 170.84392 66.63663 171.82022 69.06601 172.79639 71.54189 173.77269 74.06422 174.74886 76.62598 175.72516 79.22578 176.70146 81.8553 177.67763 84.51 178.65393 87.18794 179.63011 89.88266 180.60642 92.58966 181.58274 95.3057 182.55889 98.02107 183.53522 100.73645 184.51136 103.44409 185.48766 106.14204 186.46398 108.82257 187.44014 111.4805 188.41646 114.11324 189.39261 116.71693 190.36893 119.28319 191.34523 121.81198 192.32141 124.29431 193.29772 126.72885 194.27387 129.11176"/>
<use data-text="x" xlink:href="#font_3_1" transform="matrix(9.962799,0,0,-9.963098,203.6568,98.45126)"/>
<use data-text="y" xlink:href="#font_3_2" transform="matrix(9.962799,0,0,-9.963098,22.113175,12.936996)"/>
</svg>
