<svg xmlns="http://www.w3.org/2000/svg" xmlns:xlink="http://www.w3.org/1999/xlink" version="1.1" width="316" height="344" viewBox="0 0 316 344">
<defs>
<path id="font_1_1" d="M.43798829 .072143558V-.005859375L.61499026 .0001373291V.0471344C.5529938 .0471344 .54599 .0471344 .54599 .086135867V.4501953L.36299134 .44218446V.39518739C.4249878 .39518739 .43199159 .39518739 .43199159 .3561859V.16514588C.43199159 .08314514 .3809967 .030136109 .30799867 .030136109 .23098755 .030136109 .22799683 .055130006 .22799683 .10914612V.4501953L.04499817 .44218446V.39518739C.10699463 .39518739 .11399841 .39518739 .11399841 .3561859V.12315369C.11399841 .01612854 .19499207-.005859375 .2939911-.005859375 .31999208-.005859375 .3919983-.005859375 .43798829 .072143558Z"/>
<path id="font_2_64" d="M.27598573 .18710327V.24511719H.010986328V.18710327H.27598573Z"/>
<path id="font_1_2" d="M.5059967 .37631227C.5119934 .39031983 .5159912 .3973236 .5799866 .3973236V.44433595C.5549927 .44232179 .526001 .44132997 .5009918 .44132997 .47599793 .44132997 .43099977 .44332887 .4099884 .44433595V.3973236C.42900086 .3973236 .45799256 .3943329 .45799256 .38632203 .45799256 .3853302 .45700074 .38331605 .45298768 .37431336L.33699037 .12416077 .20999146 .3973236H.2639923V.44433595C.23098755 .44232179 .14099121 .44132997 .13999939 .44132997 .11199951 .44132997 .066986087 .44332887 .025985718 .44433595V.3973236H.08999634L.2649994 .021087647C.2769928-.00390625 .2899933-.00390625 .30299378-.00390625 .31999208-.00390625 .32998658-.00091552737 .33999635 .020080567L.5059967 .37631227Z"/>
<path id="font_3_1" d="M.6589966 .23046875C.6759949 .23046875 .69400027 .23046875 .69400027 .25045777 .69400027 .27046205 .6759949 .27046205 .6589966 .27046205H.117996219C.100997928 .27046205 .08299255 .27046205 .08299255 .25045777 .08299255 .23046875 .100997928 .23046875 .117996219 .23046875H.6589966Z"/>
<path id="font_4_1" d="M.2939911 .64004519C.2939911 .66400149 .2939911 .6660156 .2709961 .6660156 .20899964 .60227969 .12098694 .60227969 .08898926 .60227969V.57128909C.10899353 .57128909 .16799927 .57128909 .21998596 .5972748V.07902527C.21998596 .042999269 .21699524 .0309906 .1269989 .0309906H.09498596V0C.12998963 .0029907227 .21699524 .0029907227 .25698854 .0029907227 .29699708 .0029907227 .38398744 .0029907227 .4189911 0V.0309906H.3869934C.29699708 .0309906 .2939911 .041992189 .2939911 .07902527V.64004519Z"/>
<path id="font_4_2" d="M.2939911 .16503906V.07800293C.2939911 .041992189 .2919922 .0309906 .21798706 .0309906H.19699097V0C.23799134 .0029907227 .2899933 .0029907227 .33198548 .0029907227 .37399293 .0029907227 .4269867 .0029907227 .46798707 0V.0309906H.44699098C.37298585 .0309906 .37098695 .041992189 .37098695 .07800293V.16503906H.47099305V.19602967H.37098695V.65075686C.37098695 .67074587 .37098695 .6767578 .35499574 .6767578 .34599305 .6767578 .34298707 .6767578 .33499146 .66474917L.027999878 .19602967V.16503906H.2939911M.2999878 .19602967H.055999757L.2999878 .5688019V.19602967Z"/>
<path id="font_4_3" d="M.44898988 .20022583C.44898988 .3193512 .36698915 .41944886 .25898744 .41944886 .21099854 .41944886 .16799927 .40345765 .13198853 .36842347V.5637665C.1519928 .5577698 .18499756 .55078127 .21699524 .55078127 .33999635 .55078127 .4099884 .6417694 .4099884 .6547699 .4099884 .6607666 .40699769 .6657715 .3999939 .6657715 .39898683 .6657715 .39698792 .6657715 .3919983 .66278079 .37199403 .6537781 .32299806 .6337738 .2559967 .6337738 .21598816 .6337738 .16999817 .6407776 .12298584 .6617737 .114990238 .66477969 .11299133 .66477969 .11099243 .66477969 .100997928 .66477969 .100997928 .6567688 .100997928 .6407776V.34439088C.100997928 .32637025 .100997928 .31835938 .114990238 .31835938 .12199402 .31835938 .12399292 .32136537 .12799073 .32736207 .13899231 .3433838 .17599488 .39746095 .25698854 .39746095 .30899049 .39746095 .33399964 .35139466 .34199525 .33337403 .35798646 .29632569 .3600006 .25727845 .3600006 .20722962 .3600006 .17222595 .3600006 .11222839 .33599855 .07035828 .31199647 .031463624 .2749939 .0055389406 .22898865 .0055389406 .1559906 .0055389406 .09899902 .058380128 .08198547 .11723328 .084991458 .1162262 .08799744 .115234378 .09899902 .115234378 .13198853 .115234378 .14898682 .14022827 .14898682 .16423035 .14898682 .18823242 .13198853 .21322632 .09899902 .21322632 .084991458 .21322632 .049987794 .20622254 .049987794 .16023255 .049987794 .07434082 .11898804-.022460938 .23098755-.022460938 .34700013-.022460938 .44898988 .073349 .44898988 .20022583Z"/>
<path id="font_4_4" d="M.13198853 .327713V.35173036C.13198853 .6047821 .2559967 .64100649 .30699159 .64100649 .33099366 .64100649 .37298585 .634964 .394989 .6007538 .37998963 .6007538 .33999635 .6007538 .33999635 .5557556 .33999635 .524765 .3639984 .5097656 .38598634 .5097656 .4019928 .5097656 .43199159 .51875308 .43199159 .5577545 .43199159 .6178589 .3880005 .6660156 .30499269 .6660156 .1769867 .6660156 .041992189 .5367584 .041992189 .31570436 .041992189 .048553468 .1579895-.022460938 .25099183-.022460938 .3619995-.022460938 .45700074 .07156372 .45700074 .2036438 .45700074 .33070375 .36799623 .4267578 .25698854 .4267578 .18899536 .4267578 .1519928 .37573243 .13198853 .327713M.25099183 .0055389406C.18798828 .0055389406 .1579895 .06556702 .1519928 .080566409 .13398743 .127594 .13398743 .2076416 .13398743 .22564698 .13398743 .30369569 .1659851 .40374757 .2559967 .40374757 .27198792 .40374757 .31799317 .40374757 .34899903 .34172059 .36698915 .30470277 .36698915 .2536621 .36698915 .20463562 .36698915 .15661621 .36698915 .10658264 .34999085 .0705719 .31999208 .010528564 .27398683 .0055389406 .25099183 .0055389406Z"/>
</defs>
<path transform="matrix(1.00002,0,0,-1.00005,58.789796,143.53737)" stroke-width=".3985" stroke-linecap="butt" stroke-miterlimit="10" stroke-linejoin="miter" fill="none" stroke="#d5d6d5" d="M-56.69362-198.42766H255.12128M-56.69362-170.08086H255.12128M-56.69362-141.73404H255.12128M-56.69362-113.38724H255.12128M-56.69362-85.04042H255.12128M-56.69362-56.69362H255.12128M-56.69362-28.3468H255.12128M-56.69362 0H255.12128M-56.69362 28.3468H255.12128M-56.69362 56.69362H255.12128M-56.69362 85.04042H255.12128M-56.69362 113.38724H255.12128M-56.69362 141.72409H255.12128M-56.69362-198.42766V141.73404M-28.3468-198.42766V141.73404M0-198.42766V141.73404M28.3468-198.42766V141.73404M56.69362-198.42766V141.73404M85.04042-198.42766V141.73404M113.38724-198.42766V141.73404M141.73404-198.42766V141.73404M170.08086-198.42766V141.73404M198.42766-198.42766V141.73404M226.77448-198.42766V141.73404M255.11133-198.42766V141.73404M255.12128 141.73404"/>
<path transform="matrix(1.00002,0,0,-1.00005,58.789796,143.53737)" stroke-width="1.99255" stroke-linecap="butt" stroke-miterlimit="10" stroke-linejoin="miter" fill="none" stroke="#0000ff" d="M28.3468 28.3468 165.7825 55.83395"/>
<path transform="matrix(.9805696,-.19610979,-.19610393,-.980599,224.5756,87.70063)" d="M4.38364 0-2.63017 3.50691 0 0-2.63017-3.50691" fill="#0000ff"/>
<use data-text="u" xlink:href="#font_1_1" transform="matrix(9.769023,-1.9537634,-1.953705,-9.769315,156.59983,110.214298)"/>
<path transform="matrix(1.00002,0,0,-1.00005,58.789796,143.53737)" stroke-width="1.99255" stroke-linecap="butt" stroke-miterlimit="10" stroke-linejoin="miter" fill="none" stroke="#0000ff" d="M170.08086 56.69362 59.12509-109.73997"/>
<path transform="matrix(-.55468109,.8320615,.8320367,.5546977,117.91607,253.2828)" d="M4.38364 0-2.63017 3.50691 0 0-2.63017-3.50691" fill="#0000ff"/>
<use data-text="-" xlink:href="#font_2_64" transform="matrix(5.5260655,-8.289496,-8.289248,-5.5262315,165.94637,173.45313)"/>
<use data-text="v" xlink:href="#font_1_2" transform="matrix(5.5260655,-8.289496,-8.289248,-5.5262315,167.78624,170.69318)"/>
<path transform="matrix(1.00002,0,0,-1.00005,58.789796,143.53737)" stroke-width="1.99255" stroke-linecap="butt" stroke-miterlimit="10" stroke-linejoin="miter" fill="none" stroke="#0000ff" d="M28.3468 28.3468 55.83395-109.08888"/>
<path transform="matrix(.19610393,.980599,.9805696,-.19610979,114.62486,252.63169)" d="M4.38364 0-2.63017 3.50691 0 0-2.63017-3.50691" fill="#0000ff"/>
<use data-text="u" xlink:href="#font_1_1" transform="matrix(1.953705,9.769315,9.769023,-1.9537634,103.931118,172.9169)"/>
<use data-text="&#x2212;" xlink:href="#font_3_1" transform="matrix(1.953705,9.769315,9.769023,-1.9537634,105.613498,181.32947)"/>
<use data-text="v" xlink:href="#font_1_2" transform="matrix(1.953705,9.769315,9.769023,-1.9537634,107.56708,191.0982)"/>
<path transform="matrix(1.00002,0,0,-1.00005,58.789796,143.53737)" stroke-width=".3985" stroke-linecap="butt" stroke-miterlimit="10" stroke-linejoin="miter" fill="none" stroke="#000000" d="M28.7453-142.13256C29.80826-145.12142 32.28865-147.11394 35.832-147.11394H35.83202C39.37537-147.11394 41.85576-149.10646 42.9187-152.09532 43.98166-149.10646 46.46205-147.11394 50.00542-147.11394 53.54877-147.11394 56.02916-145.12142 57.09212-142.13256"/>
<use data-text="1" xlink:href="#font_4_1" transform="matrix(9.962799,0,0,-9.963098,99.218608,305.89649)"/>
<path transform="matrix(1.00002,0,0,-1.00005,58.789796,143.53737)" stroke-width=".3985" stroke-linecap="butt" stroke-miterlimit="10" stroke-linejoin="miter" fill="none" stroke="#000000" d="M57.09212-142.13256C58.58647-145.12142 62.0735-147.11394 67.05489-147.11394H103.82297C108.80435-147.11394 112.29138-149.10646 113.78574-152.09532 115.28009-149.10646 118.76712-147.11394 123.7485-147.11394H160.51659C165.49797-147.11394 168.985-145.12142 170.47936-142.13256"/>
<use data-text="4" xlink:href="#font_4_2" transform="matrix(9.962799,0,0,-9.963098,170.08702,305.89649)"/>
<path transform="matrix(1.00002,0,0,-1.00005,58.789796,143.53737)" stroke-width=".3985" stroke-linecap="butt" stroke-miterlimit="10" stroke-linejoin="miter" fill="none" stroke="#000000" d="M28.7453 85.0404C30.23965 88.02927 33.72668 90.02179 38.70807 90.02179H89.64955C94.63094 90.02179 98.11797 92.01431 99.61232 95.00317 101.10667 92.01431 104.5937 90.02179 109.57509 90.02179H160.51659C165.49797 90.02179 168.985 88.02927 170.47936 85.0404"/>
<use data-text="5" xlink:href="#font_4_3" transform="matrix(9.962799,0,0,-9.963098,155.91374,44.694437)"/>
<path transform="matrix(1.00002,0,0,-1.00005,58.789796,143.53737)" stroke-width=".3985" stroke-linecap="butt" stroke-miterlimit="10" stroke-linejoin="miter" fill="none" stroke="#000000" d="M-.3985-112.98872C-3.38736-111.49437-5.37988-108.00734-5.37988-103.02596V-52.08447C-5.37988-47.10309-7.3724-43.61606-10.36127-42.1217-7.3724-40.62735-5.37988-37.14032-5.37988-32.15894V18.78253C-5.37988 23.76392-3.38736 27.25095-.3985 28.7453"/>
<use data-text="5" xlink:href="#font_4_3" transform="matrix(9.962799,0,0,-9.963098,38.892396,188.87165)"/>
<path transform="matrix(1.00002,0,0,-1.00005,58.789796,143.53737)" stroke-width=".3985" stroke-linecap="butt" stroke-miterlimit="10" stroke-linejoin="miter" fill="none" stroke="#000000" d="M-.3985 28.7453C-3.38736 29.80826-5.37988 32.28865-5.37988 35.832V35.83202C-5.37988 39.37537-7.3724 41.85576-10.36127 42.9187-7.3724 43.98166-5.37988 46.46205-5.37988 50.00542-5.37988 53.54877-3.38736 56.02916-.3985 57.09212"/>
<use data-text="1" xlink:href="#font_4_1" transform="matrix(9.962799,0,0,-9.963098,38.892396,103.827388)"/>
<path transform="matrix(1.00002,0,0,-1.00005,58.789796,143.53737)" stroke-width=".3985" stroke-linecap="butt" stroke-miterlimit="10" stroke-linejoin="miter" fill="none" stroke="#000000" d="M198.02916-112.98872C201.01802-111.49437 203.01055-108.00734 203.01055-103.02596V-37.91107C203.01055-32.92969 205.00307-29.44266 207.99193-27.9483 205.00307-26.45395 203.01055-22.96692 203.01055-17.98553V47.12935C203.01055 52.11073 201.01802 55.59776 198.02916 57.09212"/>
<use data-text="6" xlink:href="#font_4_4" transform="matrix(9.962799,0,0,-9.963098,271.34107,174.69792)"/>
<path transform="matrix(1.00002,0,0,-1.00005,58.789796,143.53737)" stroke-width=".3985" stroke-linecap="butt" stroke-dasharray="2.98883,2.98883" stroke-miterlimit="10" stroke-linejoin="miter" fill="none" stroke="#000000" d="M0 28.3468H28.3468"/>
<path transform="matrix(1.00002,0,0,-1.00005,58.789796,143.53737)" stroke-width=".3985" stroke-linecap="butt" stroke-dasharray="2.98883,2.98883" stroke-miterlimit="10" stroke-linejoin="miter" fill="none" stroke="#000000" d="M0 56.69362H170.08086"/>
<path transform="matrix(1.00002,0,0,-1.00005,58.789796,143.53737)" stroke-width=".3985" stroke-linecap="butt" stroke-dasharray="2.98883,2.98883" stroke-miterlimit="10" stroke-linejoin="miter" fill="none" stroke="#000000" d="M28.3468 28.3468V85.04042"/>
<path transform="matrix(1.00002,0,0,-1.00005,58.789796,143.53737)" stroke-width=".3985" stroke-linecap="butt" stroke-dasharray="2.98883,2.98883" stroke-miterlimit="10" stroke-linejoin="miter" fill="none" stroke="#000000" d="M170.08086 56.69362V85.04042"/>
<path transform="matrix(1.00002,0,0,-1.00005,58.789796,143.53737)" stroke-width=".3985" stroke-linecap="butt" stroke-dasharray="2.98883,2.98883" stroke-miterlimit="10" stroke-linejoin="miter" fill="none" stroke="#000000" d="M170.08086 56.69362H198.42766"/>
<path transform="matrix(1.00002,0,0,-1.00005,58.789796,143.53737)" stroke-width=".3985" stroke-linecap="butt" stroke-dasharray="2.98883,2.98883" stroke-miterlimit="10" stroke-linejoin="miter" fill="none" stroke="#000000" d="M170.08086 56.69362V-141.73404"/>
<path transform="matrix(1.00002,0,0,-1.00005,58.789796,143.53737)" stroke-width=".3985" stroke-linecap="butt" stroke-dasharray="2.98883,2.98883" stroke-miterlimit="10" stroke-linejoin="miter" fill="none" stroke="#000000" d="M56.69362-113.38724H198.42766"/>
<path transform="matrix(1.00002,0,0,-1.00005,58.789796,143.53737)" stroke-width=".3985" stroke-linecap="butt" stroke-dasharray="2.98883,2.98883" stroke-miterlimit="10" stroke-linejoin="miter" fill="none" stroke="#000000" d="M56.69362-113.38724V-141.73404"/>
<path transform="matrix(1.00002,0,0,-1.00005,58.789796,143.53737)" stroke-width=".3985" stroke-linecap="butt" stroke-dasharray="2.98883,2.98883" stroke-miterlimit="10" stroke-linejoin="miter" fill="none" stroke="#000000" d="M56.69362-113.38724H0"/>
<path transform="matrix(1.00002,0,0,-1.00005,58.789796,143.53737)" stroke-width=".3985" stroke-linecap="butt" stroke-dasharray="2.98883,2.98883" stroke-miterlimit="10" stroke-linejoin="miter" fill="none" stroke="#000000" d="M28.3468 28.3468V-141.73404"/>
</svg>
