<svg xmlns="http://www.w3.org/2000/svg" xmlns:xlink="http://www.w3.org/1999/xlink" version="1.1" width="200" height="166" viewBox="0 0 200 166">
<defs>
<path id="font_1_1" d="M.6589966 .23046875C.6759949 .23046875 .69400027 .23046875 .69400027 .25045777 .69400027 .27046205 .6759949 .27046205 .6589966 .27046205H.117996219C.100997928 .27046205 .08299255 .27046205 .08299255 .25045777 .08299255 .23046875 .100997928 .23046875 .117996219 .23046875H.6589966Z"/>
<path id="font_2_4" d="M.1269989 .07699585 .23298645 .18003845C.3889923 .31811524 .44898988 .3721466 .44898988 .47216798 .44898988 .5860901 .35899354 .6660156 .23699951 .6660156 .12399292 .6660156 .049987794 .57411196 .049987794 .48516847 .049987794 .4291687 .099990848 .4291687 .102996829 .4291687 .11999512 .4291687 .15499878 .44117738 .15499878 .48217774 .15499878 .5081787 .13699341 .5341797 .101989749 .5341797 .09399414 .5341797 .09199524 .5341797 .08898926 .5331726 .11199951 .59806826 .1659851 .63500979 .22399903 .63500979 .31498719 .63500979 .35798646 .5541382 .35798646 .47216798 .35798646 .39215089 .30799867 .31311036 .25299073 .25108338L.06098938 .036987306C.049987794 .025985718 .049987794 .023986817 .049987794 0H.42099L.44898988 .17404175H.42399598C.4189911 .14402771 .4119873 .1000061 .4019928 .084991458 .394989 .07699585 .32899476 .07699585 .30699159 .07699585H.1269989Z"/>
<path id="font_3_1" d="M.2649994 .37265016H.37799073C.34498597 .22489929 .33599855 .18196106 .33599855 .11508179 .33599855 .100097659 .33599855 .073150638 .34399415 .03919983 .35398866-.0047454836 .36499024-.0107421879 .37998963-.0107421879 .3999939-.0107421879 .42099 .007247925 .42099 .02722168 .42099 .033218385 .42099 .035202028 .4149933 .049179079 .38598634 .12106323 .38598634 .18595886 .38598634 .21391297 .38598634 .26683045 .3929901 .32073976 .4039917 .37265016H.5179901C.5309906 .37265016 .5669861 .37265016 .5669861 .406662 .5669861 .43066407 .54599 .43066407 .5269928 .43066407H.19198609C.16999817 .43066407 .13198853 .43066407 .08799744 .38365174 .052993776 .34469605 .026992798 .29878236 .026992798 .29379273 .026992798 .29278565 .026992798 .28379823 .038986207 .28379823 .04699707 .28379823 .04899597 .28779603 .054992677 .29577638 .10398865 .37265016 .1619873 .37265016 .18199158 .37265016H.23899842C.20698548 .25186158 .15299988 .13105774 .11099243 .04020691 .102996829 .025222779 .102996829 .023223877 .102996829 .016235352 .102996829-.002746582 .11898804-.0107421879 .13198853-.0107421879 .1619873-.0107421879 .16999817 .017242432 .18199158 .05418396 .19599915 .100097659 .19599915 .10209656 .20899964 .15202332L.2649994 .37265016Z"/>
<path id="font_2_5" d="M.2899933 .35191346C.37199403 .37893678 .42999269 .4490509 .42999269 .52809146 .42999269 .6100464 .34199525 .6660156 .24598694 .6660156 .14498902 .6660156 .068984989 .60606387 .068984989 .53009036 .068984989 .49710084 .09098816 .47808839 .11999512 .47808839 .15098572 .47808839 .17098999 .50009158 .17098999 .5290985 .17098999 .57910159 .12399292 .57910159 .10899353 .57910159 .13999939 .62802127 .20599365 .64100649 .24198914 .64100649 .2829895 .64100649 .33799745 .6190338 .33799745 .5290985 .33799745 .51708987 .33599855 .45906068 .30999757 .4149933 .27999879 .36691285 .24598694 .36390687 .22099304 .36291505 .21299744 .36190797 .18899536 .35990907 .18199158 .35990907 .17399597 .35890199 .16699219 .35791017 .16699219 .3479004 .16699219 .33691407 .17399597 .33691407 .19099427 .33691407H.23498535C.31698609 .33691407 .35398866 .2686615 .35398866 .17037964 .35398866 .034469606 .2849884 .0055389406 .24099732 .0055389406 .19799805 .0055389406 .12298584 .022491456 .08799744 .08137512 .12298584 .07637024 .1539917 .09837341 .1539917 .1363678 .1539917 .17237854 .1269989 .19238281 .09799194 .19238281 .07398987 .19238281 .041992189 .17837525 .041992189 .1343689 .041992189 .043441774 .1349945-.022460938 .24398804-.022460938 .3659973-.022460938 .45700074 .06838989 .45700074 .17037964 .45700074 .252594 .3939972 .33088685 .2899933 .35191346Z"/>
<path id="font_2_8" d="M.13198853 .327713V.35173036C.13198853 .6047821 .2559967 .64100649 .30699159 .64100649 .33099366 .64100649 .37298585 .634964 .394989 .6007538 .37998963 .6007538 .33999635 .6007538 .33999635 .5557556 .33999635 .524765 .3639984 .5097656 .38598634 .5097656 .4019928 .5097656 .43199159 .51875308 .43199159 .5577545 .43199159 .6178589 .3880005 .6660156 .30499269 .6660156 .1769867 .6660156 .041992189 .5367584 .041992189 .31570436 .041992189 .048553468 .1579895-.022460938 .25099183-.022460938 .3619995-.022460938 .45700074 .07156372 .45700074 .2036438 .45700074 .33070375 .36799623 .4267578 .25698854 .4267578 .18899536 .4267578 .1519928 .37573243 .13198853 .327713M.25099183 .0055389406C.18798828 .0055389406 .1579895 .06556702 .1519928 .080566409 .13398743 .127594 .13398743 .2076416 .13398743 .22564698 .13398743 .30369569 .1659851 .40374757 .2559967 .40374757 .27198792 .40374757 .31799317 .40374757 .34899903 .34172059 .36698915 .30470277 .36698915 .2536621 .36698915 .20463562 .36698915 .15661621 .36698915 .10658264 .34999085 .0705719 .31999208 .010528564 .27398683 .0055389406 .25099183 .0055389406Z"/>
<path id="font_2_7" d="M.44898988 .20022583C.44898988 .3193512 .36698915 .41944886 .25898744 .41944886 .21099854 .41944886 .16799927 .40345765 .13198853 .36842347V.5637665C.1519928 .5577698 .18499756 .55078127 .21699524 .55078127 .33999635 .55078127 .4099884 .6417694 .4099884 .6547699 .4099884 .6607666 .40699769 .6657715 .3999939 .6657715 .39898683 .6657715 .39698792 .6657715 .3919983 .66278079 .37199403 .6537781 .32299806 .6337738 .2559967 .6337738 .21598816 .6337738 .16999817 .6407776 .12298584 .6617737 .114990238 .66477969 .11299133 .66477969 .11099243 .66477969 .100997928 .66477969 .100997928 .6567688 .100997928 .6407776V.34439088C.100997928 .32637025 .100997928 .31835938 .114990238 .31835938 .12199402 .31835938 .12399292 .32136537 .12799073 .32736207 .13899231 .3433838 .17599488 .39746095 .25698854 .39746095 .30899049 .39746095 .33399964 .35139466 .34199525 .33337403 .35798646 .29632569 .3600006 .25727845 .3600006 .20722962 .3600006 .17222595 .3600006 .11222839 .33599855 .07035828 .31199647 .031463624 .2749939 .0055389406 .22898865 .0055389406 .1559906 .0055389406 .09899902 .058380128 .08198547 .11723328 .084991458 .1162262 .08799744 .115234378 .09899902 .115234378 .13198853 .115234378 .14898682 .14022827 .14898682 .16423035 .14898682 .18823242 .13198853 .21322632 .09899902 .21322632 .084991458 .21322632 .049987794 .20622254 .049987794 .16023255 .049987794 .07434082 .11898804-.022460938 .23098755-.022460938 .34700013-.022460938 .44898988 .073349 .44898988 .20022583Z"/>
<path id="font_2_6" d="M.2939911 .16503906V.07800293C.2939911 .041992189 .2919922 .0309906 .21798706 .0309906H.19699097V0C.23799134 .0029907227 .2899933 .0029907227 .33198548 .0029907227 .37399293 .0029907227 .4269867 .0029907227 .46798707 0V.0309906H.44699098C.37298585 .0309906 .37098695 .041992189 .37098695 .07800293V.16503906H.47099305V.19602967H.37098695V.65075686C.37098695 .67074587 .37098695 .6767578 .35499574 .6767578 .34599305 .6767578 .34298707 .6767578 .33499146 .66474917L.027999878 .19602967V.16503906H.2939911M.2999878 .19602967H.055999757L.2999878 .5688019V.19602967Z"/>
<path id="font_2_3" d="M.2939911 .64004519C.2939911 .66400149 .2939911 .6660156 .2709961 .6660156 .20899964 .60227969 .12098694 .60227969 .08898926 .60227969V.57128909C.10899353 .57128909 .16799927 .57128909 .21998596 .5972748V.07902527C.21998596 .042999269 .21699524 .0309906 .1269989 .0309906H.09498596V0C.12998963 .0029907227 .21699524 .0029907227 .25698854 .0029907227 .29699708 .0029907227 .38398744 .0029907227 .4189911 0V.0309906H.3869934C.29699708 .0309906 .2939911 .041992189 .2939911 .07902527V.64004519Z"/>
<path id="font_3_3" d="M.48599244 .38136292C.48999024 .39537049 .48999024 .39736939 .48999024 .40437318 .48999024 .42237855 .47599793 .43138124 .46099855 .43138124 .45098878 .43138124 .43499757 .42536927 .42599488 .41036988 .42399598 .405365 .41600038 .37435914 .4119873 .35635377 .40499879 .33035279 .397995 .30334474 .3919983 .27633668L.34700013 .09628296C.34298707 .08126831 .2999878 .011245728 .23399353 .011245728 .18299866 .011245728 .17199707 .055267335 .17199707 .0922699 .17199707 .1382904 .18899536 .20030213 .22299195 .28833009 .23899842 .3293457 .24299622 .3403473 .24299622 .36035157 .24299622 .405365 .21099854 .4423828 .16099549 .4423828 .06599426 .4423828 .0289917 .29733277 .0289917 .28833009 .0289917 .27833558 .038986207 .27833558 .040985109 .27833558 .050994874 .27833558 .051986696 .28033448 .056991579 .29634095 .083999637 .3903656 .12399292 .42037965 .1579895 .42037965 .1659851 .42037965 .18299866 .42037965 .18299866 .3883667 .18299866 .36335755 .17298889 .3373413 .1659851 .31834413 .12599182 .21231079 .10798645 .1552887 .10798645 .10827637 .10798645 .019256592 .17098999-.0107421879 .22999573-.0107421879 .2689972-.0107421879 .30299378 .0062561037 .33099366 .03425598 .31799317-.017745972 .30599977-.06674194 .2659912-.11973572 .23999024-.15385437 .20199585-.18309021 .1559906-.18309021 .14199829-.18309021 .09700012-.18005371 .07998657-.14074707 .09599304-.14074707 .10899353-.14074707 .12298584-.1287384 .1329956-.11973572 .14299011-.10673523 .14299011-.08773804 .14299011-.056747438 .115997318-.052734376 .10598755-.052734376 .08299255-.052734376 .049987794-.068740848 .049987794-.11773682 .049987794-.16796875 .09399414-.20507813 .1559906-.20507813 .25898744-.20507813 .3619995-.11373901 .3899994-.00074768069L.48599244 .38136292Z"/>
<path id="font_2_9" d="M.68699648 .32714845C.70199587 .32714845 .72099307 .32714845 .72099307 .34713746 .72099307 .36714173 .70199587 .36714173 .6879883 .36714173H.08898926C.07499695 .36714173 .055999757 .36714173 .055999757 .34713746 .055999757 .32714845 .07499695 .32714845 .08999634 .32714845H.68699648M.6879883 .13284302C.70199587 .13284302 .72099307 .13284302 .72099307 .15284729 .72099307 .17285156 .70199587 .17285156 .68699648 .17285156H.08999634C.07499695 .17285156 .055999757 .17285156 .055999757 .15284729 .055999757 .13284302 .07499695 .13284302 .08898926 .13284302H.6879883Z"/>
<path id="font_2_10" d="M.116989139 .21801758C.116989139 .38093568 .19898987 .42323304 .2519989 .42323304 .26098634 .42323304 .32398988 .42222596 .35899354 .38594056 .31799317 .38293458 .31199647 .3529358 .31199647 .3399353 .31199647 .31393434 .32998658 .2939453 .35798646 .2939453 .38398744 .2939453 .4039917 .3109436 .4039917 .34094239 .4039917 .40911866 .32798768 .4482422 .25099183 .4482422 .12599182 .4482422 .033996583 .3399353 .033996583 .21601868 .033996583 .08816528 .1329956-.0107421879 .24899292-.0107421879 .3829956-.0107421879 .4149933 .10914612 .4149933 .119140628 .4149933 .12911988 .40499879 .12911988 .4019928 .12911988 .3929901 .12911988 .3909912 .12512207 .3889923 .119140628 .3600006 .026229859 .29499818 .014251709 .2579956 .014251709 .20498657 .014251709 .116989139 .0572052 .116989139 .21801758Z"/>
<path id="font_2_11" d="M.47099305 .21424866C.47099305 .34223939 .37098695 .4482422 .25 .4482422 .125 .4482422 .027999878 .3392334 .027999878 .21424866 .027999878 .085250858 .13198853-.0107421879 .24899292-.0107421879 .36999513-.0107421879 .47099305 .087249759 .47099305 .21424866M.25 .014251709C.20698548 .014251709 .16299439 .035247804 .13598633 .08125305 .11099243 .12524414 .11099243 .18624878 .11099243 .22224427 .11099243 .26124574 .11099243 .31523133 .1349945 .35923768 .1619873 .40522767 .20899964 .426239 .24899292 .426239 .29299928 .426239 .33599855 .40423585 .3619995 .36123658 .3880005 .3182373 .3880005 .26023866 .3880005 .22224427 .3880005 .18624878 .3880005 .13224793 .3659973 .08824158 .34399415 .04324341 .2999878 .014251709 .25 .014251709Z"/>
<path id="font_2_12" d="M.20799256 .19424439C.22999573 .19024658 .31199647 .17424011 .31199647 .102249149 .31199647 .051254274 .2769928 .011245728 .19898987 .011245728 .114990238 .011245728 .07899475 .06825256 .05999756 .15324402 .056991579 .1662445 .055999757 .17024231 .04598999 .17024231 .032989503 .17024231 .032989503 .16323853 .032989503 .14524842V.013244629C.032989503-.003753662 .032989503-.0107421879 .04399109-.0107421879 .04899597-.0107421879 .049987794-.009750366 .068984989 .009246826 .070999149 .011245728 .070999149 .013244629 .08898926 .03224182 .1329956-.009750366 .17799378-.0107421879 .19898987-.0107421879 .31399537-.0107421879 .3600006 .056243898 .3600006 .12825012 .3600006 .1812439 .32998658 .21124268 .31799317 .22323609 .2849884 .25523377 .24598694 .26324464 .20399475 .27124024 .147995 .28224183 .08099365 .2952423 .08099365 .35324098 .08099365 .38822938 .10699463 .42922975 .19299317 .42922975 .30299378 .42922975 .30799867 .3392334 .30999757 .3082428 .31098939 .2992401 .31999208 .2992401 .32199098 .2992401 .33499146 .2992401 .33499146 .304245 .33499146 .3232422V.4242401C.33499146 .4412384 .33499146 .4482422 .32398988 .4482422 .31900025 .4482422 .31698609 .4482422 .3039856 .43623353 .30099488 .43223573 .29100038 .42323304 .2869873 .42022706 .24899292 .4482422 .20799256 .4482422 .19299317 .4482422 .070999149 .4482422 .032989503 .38124085 .032989503 .3252411 .032989503 .29023744 .04899597 .26223756 .07598877 .24023438 .10798645 .21424866 .13598633 .2082367 .20799256 .19424439Z"/>
<path id="font_2_1" d="M.33099366-.2400055C.33099366-.23701477 .33099366-.23500061 .31399537-.21800232 .18899536-.0920105 .15699768 .09700012 .15699768 .25 .15699768 .42399598 .19499207 .59799197 .31799317 .72299197 .33099366 .73498538 .33099366 .7369995 .33099366 .73999026 .33099366 .746994 .32699586 .75 .32099916 .75 .31098939 .75 .22099304 .6819916 .1619873 .5549927 .11099243 .44499208 .09899902 .33399964 .09899902 .25 .09899902 .17199707 .10998535 .050994874 .16499329-.06201172 .22499085-.18501282 .31098939-.25 .32099916-.25 .32699586-.25 .33099366-.24700928 .33099366-.2400055Z"/>
<path id="font_3_2" d="M.33399964 .30233766C.33999635 .32835389 .36299134 .42037965 .43299867 .42037965 .43798829 .42037965 .46199037 .42037965 .48298646 .40734864 .45498658 .402359 .43499757 .37734986 .43499757 .35334779 .43499757 .33735658 .44599916 .31835938 .47299195 .31835938 .49499513 .31835938 .5269928 .3363495 .5269928 .37635804 .5269928 .42837525 .46798707 .4423828 .43399049 .4423828 .37599183 .4423828 .34098817 .38935853 .32899476 .36634828 .3039856 .43237306 .25 .4423828 .22099304 .4423828 .116989139 .4423828 .05999756 .3133545 .05999756 .28834535 .05999756 .27833558 .069992069 .27833558 .07199097 .27833558 .07998657 .27833558 .08299255 .28033448 .084991458 .28933717 .11898804 .39535523 .18499756 .42037965 .21899414 .42037965 .23799134 .42037965 .272995 .4113617 .272995 .35334779 .272995 .32235719 .2559967 .25532533 .21899414 .11528015 .20298767 .053268434 .16799927 .011245728 .12399292 .011245728 .117996219 .011245728 .09498596 .011245728 .07398987 .024276734 .09899902 .029266358 .12098694 .05027771 .12098694 .07827759 .12098694 .105270389 .09899902 .11328125 .083999637 .11328125 .053985597 .11328125 .0289917 .08728027 .0289917 .055267335 .0289917 .009246826 .07899475-.0107421879 .12298584-.0107421879 .18899536-.0107421879 .22499085 .059280397 .22799683 .0652771 .23999024 .028274537 .27598573-.0107421879 .33599855-.0107421879 .43899537-.0107421879 .49598695 .118270877 .49598695 .14328003 .49598695 .1532898 .4869995 .1532898 .48399354 .1532898 .47499085 .1532898 .47299195 .14929199 .47099305 .14228821 .43798829 .03527832 .36999513 .011245728 .33799745 .011245728 .29899598 .011245728 .2829895 .043273927 .2829895 .07727051 .2829895 .09927368 .2889862 .121276859 .2999878 .16529846L.33399964 .30233766Z"/>
<path id="font_2_2" d="M.2889862 .25C.2889862 .32798768 .27799989 .44898988 .22299195 .56199648 .16299439 .68499758 .07699585 .75 .066986087 .75 .06098938 .75 .056991579 .74598696 .056991579 .73999026 .056991579 .7369995 .056991579 .73498538 .07598877 .71699526 .17399597 .6179962 .23098755 .45899964 .23098755 .25 .23098755 .07899475 .19400025-.09700012 .069992069-.2230072 .056991579-.23500061 .056991579-.23701477 .056991579-.2400055 .056991579-.2460022 .06098938-.25 .066986087-.25 .07699585-.25 .16699219-.18200684 .22599793-.055007936 .2769928 .054992677 .2889862 .16600037 .2889862 .25Z"/>
</defs>
<path transform="matrix(1.00006,0,0,-1.00002,3.7863923,163.926)" stroke-width=".19925" stroke-linecap="butt" stroke-miterlimit="10" stroke-linejoin="miter" fill="none" stroke="#929292" d="M24.0792 79.28139V82.11618M60.6096 79.28139V82.11618M97.14003 79.28139V82.11618M133.67044 79.28139V82.11618M170.20085 79.28139V82.11618"/>
<path transform="matrix(1.00006,0,0,-1.00002,3.7863923,163.926)" stroke-width=".19925" stroke-linecap="butt" stroke-miterlimit="10" stroke-linejoin="miter" fill="none" stroke="#929292" d="M5.814 78.57289V82.82466M42.34439 78.57289V82.82466M115.40523 78.57289V82.82466M151.93566 78.57289V82.82466M188.46607 78.57289V82.82466"/>
<path transform="matrix(1.00006,0,0,-1.00002,3.7863923,163.926)" stroke-width=".19925" stroke-linecap="butt" stroke-miterlimit="10" stroke-linejoin="miter" fill="none" stroke="#929292" d="M77.45732 9.11115H80.29231M77.45732 22.12708H80.29231M77.45732 35.14302H80.29231M77.45732 48.15895H80.29231M77.45732 61.17488H80.29231M77.45732 74.19081H80.29231M77.45732 87.20676H80.29231M77.45732 100.22269H80.29231M77.45732 113.23862H80.29231M77.45732 126.25455H80.29231M77.45732 139.2705H80.29231M77.45732 152.28643H80.29231"/>
<path transform="matrix(1.00006,0,0,-1.00002,3.7863923,163.926)" stroke-width=".19925" stroke-linecap="butt" stroke-miterlimit="10" stroke-linejoin="miter" fill="none" stroke="#929292" d="M76.7488 2.60318H81.00082M76.7488 15.61911H81.00082M76.7488 28.63504H81.00082M76.7488 41.65099H81.00082M76.7488 54.66692H81.00082M76.7488 67.68285H81.00082M76.7488 93.71472H81.00082M76.7488 106.73065H81.00082M76.7488 119.74658H81.00082M76.7488 132.76251H81.00082M76.7488 145.77846H81.00082M76.7488 158.79439H81.00082"/>
<path transform="matrix(1.00006,0,0,-1.00002,3.7863923,163.926)" stroke-width=".3985" stroke-linecap="butt" stroke-miterlimit="10" stroke-linejoin="miter" fill="none" stroke="#000000" d="M0 80.69878H192.28754"/>
<path transform="matrix(1.00006,0,0,-1.00002,196.08547,83.2256)" d="M1.99252 0-1.19551 1.59401 0 0-1.19551-1.59401"/>
<path transform="matrix(1.00006,0,0,-1.00002,3.7863923,163.926)" stroke-width=".3985" stroke-linecap="butt" stroke-miterlimit="10" stroke-linejoin="miter" fill="none" stroke="#000000" d="M78.87482 0V159.40505"/>
<path transform="matrix(0,-1.00002,-1.00006,-0,82.66594,4.517761)" d="M1.99252 0-1.19551 1.59401 0 0-1.19551-1.59401"/>
<use data-text="&#x2212;" xlink:href="#font_1_1" transform="matrix(9.963197,0,0,-9.962799,.21717835,95.29162)"/>
<use data-text="2" xlink:href="#font_2_4" transform="matrix(9.963197,0,0,-9.962799,7.9666445,95.29162)"/>
<use data-text="&#x03c0;" xlink:href="#font_3_1" transform="matrix(9.963197,0,0,-9.962799,12.947945,95.29162)"/>
<use data-text="&#x2212;" xlink:href="#font_1_1" transform="matrix(9.963197,0,0,-9.962799,39.240518,94.68361)"/>
<use data-text="&#x03c0;" xlink:href="#font_3_1" transform="matrix(9.963197,0,0,-9.962799,46.989984,94.68361)"/>
<use data-text="&#x03c0;" xlink:href="#font_3_1" transform="matrix(9.963197,0,0,-9.962799,116.18013,93.160579)"/>
<use data-text="2" xlink:href="#font_2_4" transform="matrix(9.963197,0,0,-9.962799,150.22217,95.29162)"/>
<use data-text="&#x03c0;" xlink:href="#font_3_1" transform="matrix(9.963197,0,0,-9.962799,155.20447,95.29162)"/>
<use data-text="3" xlink:href="#font_2_5" transform="matrix(9.963197,0,0,-9.962799,186.75437,95.29162)"/>
<use data-text="&#x03c0;" xlink:href="#font_3_1" transform="matrix(9.963197,0,0,-9.962799,191.73667,95.29162)"/>
<use data-text="&#x2212;" xlink:href="#font_1_1" transform="matrix(9.963197,0,0,-9.962799,64.28902,164.118)"/>
<use data-text="6" xlink:href="#font_2_8" transform="matrix(9.963197,0,0,-9.962799,72.03848,164.118)"/>
<use data-text="&#x2212;" xlink:href="#font_1_1" transform="matrix(9.963197,0,0,-9.962799,64.28902,151.10175)"/>
<use data-text="5" xlink:href="#font_2_7" transform="matrix(9.963197,0,0,-9.962799,72.03848,151.10175)"/>
<use data-text="&#x2212;" xlink:href="#font_1_1" transform="matrix(9.963197,0,0,-9.962799,64.28902,138.08548)"/>
<use data-text="4" xlink:href="#font_2_6" transform="matrix(9.963197,0,0,-9.962799,72.03848,138.08548)"/>
<use data-text="&#x2212;" xlink:href="#font_1_1" transform="matrix(9.963197,0,0,-9.962799,64.28902,125.069217)"/>
<use data-text="3" xlink:href="#font_2_5" transform="matrix(9.963197,0,0,-9.962799,72.03848,125.069217)"/>
<use data-text="&#x2212;" xlink:href="#font_1_1" transform="matrix(9.963197,0,0,-9.962799,64.28902,112.052959)"/>
<use data-text="2" xlink:href="#font_2_4" transform="matrix(9.963197,0,0,-9.962799,72.03848,112.052959)"/>
<use data-text="&#x2212;" xlink:href="#font_1_1" transform="matrix(9.963197,0,0,-9.962799,64.28902,99.0367)"/>
<use data-text="1" xlink:href="#font_2_3" transform="matrix(9.963197,0,0,-9.962799,72.03848,99.0367)"/>
<use data-text="1" xlink:href="#font_2_3" transform="matrix(9.963197,0,0,-9.962799,72.03848,73.42018)"/>
<use data-text="2" xlink:href="#font_2_4" transform="matrix(9.963197,0,0,-9.962799,72.03848,60.403924)"/>
<use data-text="3" xlink:href="#font_2_5" transform="matrix(9.963197,0,0,-9.962799,72.03848,47.387659)"/>
<use data-text="4" xlink:href="#font_2_6" transform="matrix(9.963197,0,0,-9.962799,72.03848,34.3714)"/>
<use data-text="5" xlink:href="#font_2_7" transform="matrix(9.963197,0,0,-9.962799,72.03848,21.355149)"/>
<use data-text="6" xlink:href="#font_2_8" transform="matrix(9.963197,0,0,-9.962799,72.03848,8.338882)"/>
<path transform="matrix(1.00006,0,0,-1.00002,3.7863923,163.926)" stroke-width=".99628" stroke-linecap="butt" stroke-miterlimit="10" stroke-linejoin="miter" fill="none" stroke="#0000ff" d="M1.0822 140.48699 .97624 140.22455 1.9525 142.22249 2.92877 143.78376 3.90503 144.89987 4.8813 145.56565 5.85756 145.77518 6.83383 145.52593 7.81009 144.82047 8.78636 143.66139 9.76262 142.05849 10.73888 140.02475 11.71513 137.57386 12.6914 134.72205 13.66766 131.48761 14.64394 127.8965 15.6202 123.9735 16.59645 119.74591 17.57272 115.2424 18.54898 110.49484 19.52525 105.53773 20.5015 100.40686 21.47777 95.1354 22.45403 89.76436 23.4303 84.32828 24.40656 78.86743 25.38283 73.41962 26.35909 68.0206 27.33536 62.7127 28.31161 57.53105 29.28789 52.51472 30.26413 47.69427 31.24039 43.10614 32.21666 38.78355 33.19292 34.75577 34.16919 31.05405 35.14545 27.70049 36.12172 24.72049 37.09798 22.13358 38.07425 19.95992 39.0505 18.21579 40.02676 16.91093 41.00302 16.05513 41.9793 15.6536 42.95555 15.70956 43.93182 16.22694 44.90808 17.19794 45.88435 18.61537 46.86061 20.46883 47.83687 22.74728 48.81314 25.43442 49.78938 28.51074 50.76566 31.95671 51.74191 35.74304 52.71819 39.84633 53.69444 44.2392 54.67072 48.88782 55.64697 53.76166 56.62325 58.8242 57.5995 64.04163 58.57578 69.37492 59.55203 74.78824 60.52829 80.24387 61.50455 85.70145 62.4808 91.12454 63.45708 96.4754 64.43333 101.7143 65.4096 106.8055 66.38586 111.7125 67.36214 116.40147 68.3384 120.83861 69.31467 124.9933 70.29091 128.83301 71.26718 132.33754 72.24344 135.4757 73.21971 138.2305 74.19597 140.57988 75.17224 142.50429 76.1485 143.99526 77.12477 145.0398 78.10103 145.63138 79.07729 145.76868 80.05354 145.44199 81.0298 144.66103 82.00607 143.42906 82.98233 141.75783 83.9586 139.6564 84.93486 137.13716 85.91113 134.21965 86.88739 130.92662 87.86366 127.2802 88.83992 123.30643 89.81618 119.03069 90.79243 114.48488 91.76869 109.70152 92.74496 104.71317 93.72124 99.55626 94.6975 94.26788 95.67375 88.88254 96.65002 83.43927 97.62628 77.97845 98.60262 72.53584 99.57877 67.1505 100.5551 61.86015 101.53127 56.7039 102.5076 51.7149 103.48392 46.92958 104.4601 42.38312 105.43642 38.10739 106.4126 34.13232 107.38892 30.48396 108.36523 27.18898 109.3414 24.27144 110.31772 21.7509 111.2939 19.64688 112.27022 17.97238 113.24655 16.74043 114.22272 15.95752 115.19905 15.63016 116.17522 15.76488 117.15154 16.35582 118.12787 17.39838 119.10405 18.88611 120.08035 20.81052 121.05653 23.15727 122.03287 25.91016 123.00919 29.04764 123.98534 32.55025 124.96167 36.38927 125.93784 40.54266 126.91417 44.97916 127.89049 49.66748 128.86669 54.5732 129.84297 59.66241 130.81916 64.90132 131.79549 70.25218 132.7718 75.67462 133.74799 81.13286 134.7243 86.58717 135.70047 92.0018 136.6768 97.3364 137.65312 102.55383 138.6293 107.61703 139.6056 112.49214 140.58179 117.14143 141.5581 121.53366 142.53444 125.63954 143.51062 129.42717 144.48694 132.8738 145.4631 135.9514 146.43944 138.6418 147.41577 140.92024 148.39192 142.77632 149.36824 144.19441 150.34442 145.168 151.32074 145.68604 152.29706 145.74396 153.27324 145.34568 154.24958 144.49051 155.22573 143.18828 156.20207 141.44609 157.1784 139.27178 158.15456 136.68682 159.13086 133.70877 160.10704 130.3578 161.08338 126.65543 162.0597 122.6296 163.03588 118.30702 164.01219 113.72215 164.98838 108.903 165.96469 103.88666 166.94101 98.70372 167.91719 93.39647 168.89351 87.99876 169.86968 82.5516 170.84601 77.09076 171.82233 71.654 172.7985 66.28297 173.77483 61.01086 174.751 55.8787 175.72733 50.92157 176.70365 46.17206 177.67981 41.66919 178.65615 37.44032 179.6323 33.51602 180.60863 29.92297 181.58495 26.6872 182.56113 23.83345 183.53745 21.3806 184.51363 19.34622 185.48996 17.74135 186.46628 16.58034 187.44246 15.87291 188.41878 15.62236 189.39493 15.83061 190.37125 16.49377 191.34758 17.60924 192.32376 19.16791 193.30008 21.1639 193.19368 20.90036"/>
<path transform="matrix(-.37459249,.9272086,.9272456,.37457753,4.868667,23.436203)" d="M2.8892 0-1.73352 2.31136 0 0-1.73352-2.31136" fill="#0000ff"/>
<path transform="matrix(.37472249,-.92713859,-.9271756,-.37470753,196.99164,143.02524)" d="M2.8892 0-1.73352 2.31136 0 0-1.73352-2.31136" fill="#0000ff"/>
<use data-text="y" xlink:href="#font_3_3" transform="matrix(9.963197,0,0,-9.962799,94.98586,158.8429)" fill="#0000ff"/>
<use data-text="=" xlink:href="#font_2_9" transform="matrix(9.963197,0,0,-9.962799,102.996349,158.8429)" fill="#0000ff"/>
<use data-text="5" xlink:href="#font_2_7" transform="matrix(9.963197,0,0,-9.962799,113.49755,158.8429)" fill="#0000ff"/>
<use data-text="c" xlink:href="#font_2_10" transform="matrix(9.963197,0,0,-9.962799,120.14301,158.8429)" fill="#0000ff"/>
<use data-text="o" xlink:href="#font_2_11" transform="matrix(9.963197,0,0,-9.962799,124.566669,158.8429)" fill="#0000ff"/>
<use data-text="s" xlink:href="#font_2_12" transform="matrix(9.963197,0,0,-9.962799,129.54827,158.8429)" fill="#0000ff"/>
<use data-text="(" xlink:href="#font_2_1" transform="matrix(9.963197,0,0,-9.962799,133.47376,158.8429)" fill="#0000ff"/>
<use data-text="x" xlink:href="#font_3_2" transform="matrix(9.963197,0,0,-9.962799,137.3694,158.8429)" fill="#0000ff"/>
<use data-text=")" xlink:href="#font_2_2" transform="matrix(9.963197,0,0,-9.962799,143.06375,158.8429)" fill="#0000ff"/>
<use data-text="x" xlink:href="#font_3_2" transform="matrix(9.963197,0,0,-9.962799,188.86348,79.70531)"/>
<use data-text="y" xlink:href="#font_3_3" transform="matrix(9.963197,0,0,-9.962799,86.18633,10.334915)"/>
</svg>
