<svg xmlns="http://www.w3.org/2000/svg" xmlns:xlink="http://www.w3.org/1999/xlink" xmlns:inkscape="http://www.inkscape.org/namespaces/inkscape" version="1.1" width="201" height="165" viewBox="0 0 201 165">
<defs>
<path id="font_1_1" d="M.6589966 .23046875C.6759949 .23046875 .69400027 .23046875 .69400027 .25045777 .69400027 .27046205 .6759949 .27046205 .6589966 .27046205H.117996219C.100997928 .27046205 .08299255 .27046205 .08299255 .25045777 .08299255 .23046875 .100997928 .23046875 .117996219 .23046875H.6589966Z"/>
<path id="font_2_4" d="M.1269989 .07699585 .23298645 .18003845C.3889923 .31811524 .44898988 .3721466 .44898988 .47216798 .44898988 .5860901 .35899354 .6660156 .23699951 .6660156 .12399292 .6660156 .049987794 .57411196 .049987794 .48516847 .049987794 .4291687 .099990848 .4291687 .102996829 .4291687 .11999512 .4291687 .15499878 .44117738 .15499878 .48217774 .15499878 .5081787 .13699341 .5341797 .101989749 .5341797 .09399414 .5341797 .09199524 .5341797 .08898926 .5331726 .11199951 .59806826 .1659851 .63500979 .22399903 .63500979 .31498719 .63500979 .35798646 .5541382 .35798646 .47216798 .35798646 .39215089 .30799867 .31311036 .25299073 .25108338L.06098938 .036987306C.049987794 .025985718 .049987794 .023986817 .049987794 0H.42099L.44898988 .17404175H.42399598C.4189911 .14402771 .4119873 .1000061 .4019928 .084991458 .394989 .07699585 .32899476 .07699585 .30699159 .07699585H.1269989Z"/>
<path id="font_3_1" d="M.2649994 .37265016H.37799073C.34498597 .22489929 .33599855 .18196106 .33599855 .11508179 .33599855 .100097659 .33599855 .073150638 .34399415 .03919983 .35398866-.0047454836 .36499024-.0107421879 .37998963-.0107421879 .3999939-.0107421879 .42099 .007247925 .42099 .02722168 .42099 .033218385 .42099 .035202028 .4149933 .049179079 .38598634 .12106323 .38598634 .18595886 .38598634 .21391297 .38598634 .26683045 .3929901 .32073976 .4039917 .37265016H.5179901C.5309906 .37265016 .5669861 .37265016 .5669861 .406662 .5669861 .43066407 .54599 .43066407 .5269928 .43066407H.19198609C.16999817 .43066407 .13198853 .43066407 .08799744 .38365174 .052993776 .34469605 .026992798 .29878236 .026992798 .29379273 .026992798 .29278565 .026992798 .28379823 .038986207 .28379823 .04699707 .28379823 .04899597 .28779603 .054992677 .29577638 .10398865 .37265016 .1619873 .37265016 .18199158 .37265016H.23899842C.20698548 .25186158 .15299988 .13105774 .11099243 .04020691 .102996829 .025222779 .102996829 .023223877 .102996829 .016235352 .102996829-.002746582 .11898804-.0107421879 .13198853-.0107421879 .1619873-.0107421879 .16999817 .017242432 .18199158 .05418396 .19599915 .100097659 .19599915 .10209656 .20899964 .15202332L.2649994 .37265016Z"/>
<path id="font_2_5" d="M.2899933 .35191346C.37199403 .37893678 .42999269 .4490509 .42999269 .52809146 .42999269 .6100464 .34199525 .6660156 .24598694 .6660156 .14498902 .6660156 .068984989 .60606387 .068984989 .53009036 .068984989 .49710084 .09098816 .47808839 .11999512 .47808839 .15098572 .47808839 .17098999 .50009158 .17098999 .5290985 .17098999 .57910159 .12399292 .57910159 .10899353 .57910159 .13999939 .62802127 .20599365 .64100649 .24198914 .64100649 .2829895 .64100649 .33799745 .6190338 .33799745 .5290985 .33799745 .51708987 .33599855 .45906068 .30999757 .4149933 .27999879 .36691285 .24598694 .36390687 .22099304 .36291505 .21299744 .36190797 .18899536 .35990907 .18199158 .35990907 .17399597 .35890199 .16699219 .35791017 .16699219 .3479004 .16699219 .33691407 .17399597 .33691407 .19099427 .33691407H.23498535C.31698609 .33691407 .35398866 .2686615 .35398866 .17037964 .35398866 .034469606 .2849884 .0055389406 .24099732 .0055389406 .19799805 .0055389406 .12298584 .022491456 .08799744 .08137512 .12298584 .07637024 .1539917 .09837341 .1539917 .1363678 .1539917 .17237854 .1269989 .19238281 .09799194 .19238281 .07398987 .19238281 .041992189 .17837525 .041992189 .1343689 .041992189 .043441774 .1349945-.022460938 .24398804-.022460938 .3659973-.022460938 .45700074 .06838989 .45700074 .17037964 .45700074 .252594 .3939972 .33088685 .2899933 .35191346Z"/>
<path id="font_2_6" d="M.2939911 .16503906V.07800293C.2939911 .041992189 .2919922 .0309906 .21798706 .0309906H.19699097V0C.23799134 .0029907227 .2899933 .0029907227 .33198548 .0029907227 .37399293 .0029907227 .4269867 .0029907227 .46798707 0V.0309906H.44699098C.37298585 .0309906 .37098695 .041992189 .37098695 .07800293V.16503906H.47099305V.19602967H.37098695V.65075686C.37098695 .67074587 .37098695 .6767578 .35499574 .6767578 .34599305 .6767578 .34298707 .6767578 .33499146 .66474917L.027999878 .19602967V.16503906H.2939911M.2999878 .19602967H.055999757L.2999878 .5688019V.19602967Z"/>
<path id="font_2_3" d="M.2939911 .64004519C.2939911 .66400149 .2939911 .6660156 .2709961 .6660156 .20899964 .60227969 .12098694 .60227969 .08898926 .60227969V.57128909C.10899353 .57128909 .16799927 .57128909 .21998596 .5972748V.07902527C.21998596 .042999269 .21699524 .0309906 .1269989 .0309906H.09498596V0C.12998963 .0029907227 .21699524 .0029907227 .25698854 .0029907227 .29699708 .0029907227 .38398744 .0029907227 .4189911 0V.0309906H.3869934C.29699708 .0309906 .2939911 .041992189 .2939911 .07902527V.64004519Z"/>
<path id="font_3_3" d="M.48599244 .38136292C.48999024 .39537049 .48999024 .39736939 .48999024 .40437318 .48999024 .42237855 .47599793 .43138124 .46099855 .43138124 .45098878 .43138124 .43499757 .42536927 .42599488 .41036988 .42399598 .405365 .41600038 .37435914 .4119873 .35635377 .40499879 .33035279 .397995 .30334474 .3919983 .27633668L.34700013 .09628296C.34298707 .08126831 .2999878 .011245728 .23399353 .011245728 .18299866 .011245728 .17199707 .055267335 .17199707 .0922699 .17199707 .1382904 .18899536 .20030213 .22299195 .28833009 .23899842 .3293457 .24299622 .3403473 .24299622 .36035157 .24299622 .405365 .21099854 .4423828 .16099549 .4423828 .06599426 .4423828 .0289917 .29733277 .0289917 .28833009 .0289917 .27833558 .038986207 .27833558 .040985109 .27833558 .050994874 .27833558 .051986696 .28033448 .056991579 .29634095 .083999637 .3903656 .12399292 .42037965 .1579895 .42037965 .1659851 .42037965 .18299866 .42037965 .18299866 .3883667 .18299866 .36335755 .17298889 .3373413 .1659851 .31834413 .12599182 .21231079 .10798645 .1552887 .10798645 .10827637 .10798645 .019256592 .17098999-.0107421879 .22999573-.0107421879 .2689972-.0107421879 .30299378 .0062561037 .33099366 .03425598 .31799317-.017745972 .30599977-.06674194 .2659912-.11973572 .23999024-.15385437 .20199585-.18309021 .1559906-.18309021 .14199829-.18309021 .09700012-.18005371 .07998657-.14074707 .09599304-.14074707 .10899353-.14074707 .12298584-.1287384 .1329956-.11973572 .14299011-.10673523 .14299011-.08773804 .14299011-.056747438 .115997318-.052734376 .10598755-.052734376 .08299255-.052734376 .049987794-.068740848 .049987794-.11773682 .049987794-.16796875 .09399414-.20507813 .1559906-.20507813 .25898744-.20507813 .3619995-.11373901 .3899994-.00074768069L.48599244 .38136292Z"/>
<path id="font_2_7" d="M.68699648 .32714845C.70199587 .32714845 .72099307 .32714845 .72099307 .34713746 .72099307 .36714173 .70199587 .36714173 .6879883 .36714173H.08898926C.07499695 .36714173 .055999757 .36714173 .055999757 .34713746 .055999757 .32714845 .07499695 .32714845 .08999634 .32714845H.68699648M.6879883 .13284302C.70199587 .13284302 .72099307 .13284302 .72099307 .15284729 .72099307 .17285156 .70199587 .17285156 .68699648 .17285156H.08999634C.07499695 .17285156 .055999757 .17285156 .055999757 .15284729 .055999757 .13284302 .07499695 .13284302 .08898926 .13284302H.6879883Z"/>
<path id="font_2_8" d="M.116989139 .21801758C.116989139 .38093568 .19898987 .42323304 .2519989 .42323304 .26098634 .42323304 .32398988 .42222596 .35899354 .38594056 .31799317 .38293458 .31199647 .3529358 .31199647 .3399353 .31199647 .31393434 .32998658 .2939453 .35798646 .2939453 .38398744 .2939453 .4039917 .3109436 .4039917 .34094239 .4039917 .40911866 .32798768 .4482422 .25099183 .4482422 .12599182 .4482422 .033996583 .3399353 .033996583 .21601868 .033996583 .08816528 .1329956-.0107421879 .24899292-.0107421879 .3829956-.0107421879 .4149933 .10914612 .4149933 .119140628 .4149933 .12911988 .40499879 .12911988 .4019928 .12911988 .3929901 .12911988 .3909912 .12512207 .3889923 .119140628 .3600006 .026229859 .29499818 .014251709 .2579956 .014251709 .20498657 .014251709 .116989139 .0572052 .116989139 .21801758Z"/>
<path id="font_2_9" d="M.47099305 .21424866C.47099305 .34223939 .37098695 .4482422 .25 .4482422 .125 .4482422 .027999878 .3392334 .027999878 .21424866 .027999878 .085250858 .13198853-.0107421879 .24899292-.0107421879 .36999513-.0107421879 .47099305 .087249759 .47099305 .21424866M.25 .014251709C.20698548 .014251709 .16299439 .035247804 .13598633 .08125305 .11099243 .12524414 .11099243 .18624878 .11099243 .22224427 .11099243 .26124574 .11099243 .31523133 .1349945 .35923768 .1619873 .40522767 .20899964 .426239 .24899292 .426239 .29299928 .426239 .33599855 .40423585 .3619995 .36123658 .3880005 .3182373 .3880005 .26023866 .3880005 .22224427 .3880005 .18624878 .3880005 .13224793 .3659973 .08824158 .34399415 .04324341 .2999878 .014251709 .25 .014251709Z"/>
<path id="font_2_10" d="M.20799256 .19424439C.22999573 .19024658 .31199647 .17424011 .31199647 .102249149 .31199647 .051254274 .2769928 .011245728 .19898987 .011245728 .114990238 .011245728 .07899475 .06825256 .05999756 .15324402 .056991579 .1662445 .055999757 .17024231 .04598999 .17024231 .032989503 .17024231 .032989503 .16323853 .032989503 .14524842V.013244629C.032989503-.003753662 .032989503-.0107421879 .04399109-.0107421879 .04899597-.0107421879 .049987794-.009750366 .068984989 .009246826 .070999149 .011245728 .070999149 .013244629 .08898926 .03224182 .1329956-.009750366 .17799378-.0107421879 .19898987-.0107421879 .31399537-.0107421879 .3600006 .056243898 .3600006 .12825012 .3600006 .1812439 .32998658 .21124268 .31799317 .22323609 .2849884 .25523377 .24598694 .26324464 .20399475 .27124024 .147995 .28224183 .08099365 .2952423 .08099365 .35324098 .08099365 .38822938 .10699463 .42922975 .19299317 .42922975 .30299378 .42922975 .30799867 .3392334 .30999757 .3082428 .31098939 .2992401 .31999208 .2992401 .32199098 .2992401 .33499146 .2992401 .33499146 .304245 .33499146 .3232422V.4242401C.33499146 .4412384 .33499146 .4482422 .32398988 .4482422 .31900025 .4482422 .31698609 .4482422 .3039856 .43623353 .30099488 .43223573 .29100038 .42323304 .2869873 .42022706 .24899292 .4482422 .20799256 .4482422 .19299317 .4482422 .070999149 .4482422 .032989503 .38124085 .032989503 .3252411 .032989503 .29023744 .04899597 .26223756 .07598877 .24023438 .10798645 .21424866 .13598633 .2082367 .20799256 .19424439Z"/>
<path id="font_3_2" d="M.33399964 .30233766C.33999635 .32835389 .36299134 .42037965 .43299867 .42037965 .43798829 .42037965 .46199037 .42037965 .48298646 .40734864 .45498658 .402359 .43499757 .37734986 .43499757 .35334779 .43499757 .33735658 .44599916 .31835938 .47299195 .31835938 .49499513 .31835938 .5269928 .3363495 .5269928 .37635804 .5269928 .42837525 .46798707 .4423828 .43399049 .4423828 .37599183 .4423828 .34098817 .38935853 .32899476 .36634828 .3039856 .43237306 .25 .4423828 .22099304 .4423828 .116989139 .4423828 .05999756 .3133545 .05999756 .28834535 .05999756 .27833558 .069992069 .27833558 .07199097 .27833558 .07998657 .27833558 .08299255 .28033448 .084991458 .28933717 .11898804 .39535523 .18499756 .42037965 .21899414 .42037965 .23799134 .42037965 .272995 .4113617 .272995 .35334779 .272995 .32235719 .2559967 .25532533 .21899414 .11528015 .20298767 .053268434 .16799927 .011245728 .12399292 .011245728 .117996219 .011245728 .09498596 .011245728 .07398987 .024276734 .09899902 .029266358 .12098694 .05027771 .12098694 .07827759 .12098694 .105270389 .09899902 .11328125 .083999637 .11328125 .053985597 .11328125 .0289917 .08728027 .0289917 .055267335 .0289917 .009246826 .07899475-.0107421879 .12298584-.0107421879 .18899536-.0107421879 .22499085 .059280397 .22799683 .0652771 .23999024 .028274537 .27598573-.0107421879 .33599855-.0107421879 .43899537-.0107421879 .49598695 .118270877 .49598695 .14328003 .49598695 .1532898 .4869995 .1532898 .48399354 .1532898 .47499085 .1532898 .47299195 .14929199 .47099305 .14228821 .43798829 .03527832 .36999513 .011245728 .33799745 .011245728 .29899598 .011245728 .2829895 .043273927 .2829895 .07727051 .2829895 .09927368 .2889862 .121276859 .2999878 .16529846L.33399964 .30233766Z"/>
<path id="font_2_1" d="M.33099366-.2400055C.33099366-.23701477 .33099366-.23500061 .31399537-.21800232 .18899536-.0920105 .15699768 .09700012 .15699768 .25 .15699768 .42399598 .19499207 .59799197 .31799317 .72299197 .33099366 .73498538 .33099366 .7369995 .33099366 .73999026 .33099366 .746994 .32699586 .75 .32099916 .75 .31098939 .75 .22099304 .6819916 .1619873 .5549927 .11099243 .44499208 .09899902 .33399964 .09899902 .25 .09899902 .17199707 .10998535 .050994874 .16499329-.06201172 .22499085-.18501282 .31098939-.25 .32099916-.25 .32699586-.25 .33099366-.24700928 .33099366-.2400055Z"/>
<path id="font_2_2" d="M.2889862 .25C.2889862 .32798768 .27799989 .44898988 .22299195 .56199648 .16299439 .68499758 .07699585 .75 .066986087 .75 .06098938 .75 .056991579 .74598696 .056991579 .73999026 .056991579 .7369995 .056991579 .73498538 .07598877 .71699526 .17399597 .6179962 .23098755 .45899964 .23098755 .25 .23098755 .07899475 .19400025-.09700012 .069992069-.2230072 .056991579-.23500061 .056991579-.23701477 .056991579-.2400055 .056991579-.2460022 .06098938-.25 .066986087-.25 .07699585-.25 .16699219-.18200684 .22599793-.055007936 .2769928 .054992677 .2889862 .16600037 .2889862 .25Z"/>
</defs>
<path transform="matrix(1.00005,0,0,-1.00003,4.707535,163.19742)" stroke-width=".19925" stroke-linecap="butt" stroke-miterlimit="10" stroke-linejoin="miter" fill="none" stroke="#7f807f" d="M4.89359 78.57156V82.82324M35.64093 78.57156V82.82324M97.13562 78.57156V82.82324M127.88297 78.57156V82.82324M158.63033 78.57156V82.82324M189.37767 78.57156V82.82324"/>
<path transform="matrix(1.00005,0,0,-1.00003,4.707535,163.19742)" stroke-width=".19925" stroke-linecap="butt" stroke-miterlimit="10" stroke-linejoin="miter" fill="none" stroke="#7f807f" d="M64.97092 53.79828H67.80563M64.97092 107.59656H67.80563"/>
<path transform="matrix(1.00005,0,0,-1.00003,4.707535,163.19742)" stroke-width=".19925" stroke-linecap="butt" stroke-miterlimit="10" stroke-linejoin="miter" fill="none" stroke="#7f807f" d="M64.26244 26.89914H68.51411M64.26244 134.4957H68.51411"/>
<path transform="matrix(1.00005,0,0,-1.00003,4.707535,163.19742)" stroke-width=".3985" stroke-linecap="butt" stroke-miterlimit="10" stroke-linejoin="miter" fill="none" stroke="#000000" d="M0 80.69742H192.27873"/>
<path transform="matrix(1.00005,0,0,-1.00003,196.99587,82.497577)" d="M1.99252 0-1.19551 1.59401 0 0-1.19551-1.59401"/>
<path transform="matrix(1.00005,0,0,-1.00003,4.707535,163.19742)" stroke-width=".3985" stroke-linecap="butt" stroke-miterlimit="10" stroke-linejoin="miter" fill="none" stroke="#000000" d="M66.38828 0V159.40232"/>
<path transform="matrix(0,-1.00003,-1.00005,-0,71.09914,3.7903138)" d="M1.99252 0-1.19551 1.59401 0 0-1.19551-1.59401"/>
<use data-text="&#x2212;" xlink:href="#font_1_1" transform="matrix(9.963098,0,0,-9.962899,.21730805,94.56436)"/>
<use data-text="2" xlink:href="#font_2_4" transform="matrix(9.963098,0,0,-9.962899,7.9666979,94.56436)"/>
<use data-text="&#x03c0;" xlink:href="#font_3_1" transform="matrix(9.963098,0,0,-9.962899,12.947945,94.56436)"/>
<use data-text="&#x2212;" xlink:href="#font_1_1" transform="matrix(9.963098,0,0,-9.962899,33.45697,93.95534)"/>
<use data-text="&#x03c0;" xlink:href="#font_3_1" transform="matrix(9.963098,0,0,-9.962899,41.20636,93.95534)"/>
<use data-text="&#x03c0;" xlink:href="#font_3_1" transform="matrix(9.963098,0,0,-9.962899,98.82923,92.43329)"/>
<use data-text="2" xlink:href="#font_2_4" transform="matrix(9.963098,0,0,-9.962899,127.08765,94.56436)"/>
<use data-text="&#x03c0;" xlink:href="#font_3_1" transform="matrix(9.963098,0,0,-9.962899,132.06891,94.56436)"/>
<use data-text="3" xlink:href="#font_2_5" transform="matrix(9.963098,0,0,-9.962899,157.83618,94.56436)"/>
<use data-text="&#x03c0;" xlink:href="#font_3_1" transform="matrix(9.963098,0,0,-9.962899,162.81745,94.56436)"/>
<use data-text="4" xlink:href="#font_2_6" transform="matrix(9.963098,0,0,-9.962899,188.58573,94.56436)"/>
<use data-text="&#x03c0;" xlink:href="#font_3_1" transform="matrix(9.963098,0,0,-9.962899,193.56699,94.56436)"/>
<use data-text="&#x2212;" xlink:href="#font_1_1" transform="matrix(9.963098,0,0,-9.962899,52.721937,139.0927)"/>
<use data-text="1" xlink:href="#font_2_3" transform="matrix(9.963098,0,0,-9.962899,60.471326,139.0927)"/>
<use data-text="1" xlink:href="#font_2_3" transform="matrix(9.963098,0,0,-9.962899,60.47132,31.908478)"/>
<path transform="matrix(1.00005,0,0,-1.00003,4.707535,163.19742)" stroke-width=".99628" stroke-linecap="butt" stroke-miterlimit="10" stroke-linejoin="miter" fill="none" stroke="#0000ff" stroke-opacity=".5" d="M0 127.90703 .97621 130.2424 1.95245 132.0823 2.9287 133.41272 3.90495 134.21916 4.8812 134.49462 5.85744 134.23207 6.83368 133.43909 7.80992 132.12319 8.78616 130.29404 9.7624 127.9721 10.73863 125.18106 11.71489 121.94832 12.69112 118.30348 13.66736 114.28584 14.6436 109.93515 15.61984 105.29291 16.59608 100.40533 17.57233 95.32246 18.54858 90.0949 19.52483 84.77318 20.50107 79.4127 21.4773 74.06407 22.45354 68.78108 23.42978 63.61646 24.40602 58.62128 25.38226 53.84508 26.35849 49.33678 27.33475 45.13943 28.31099 41.2961 29.28723 37.84439 30.26347 34.81985 31.23972 32.2499 32.21594 30.16145 33.19218 28.57602 34.16844 27.50974 35.14468 26.96959 36.12093 26.96582 37.09717 27.49681 38.07341 28.55396 39.04964 30.12918 40.02588 32.21117 41.00214 34.77304 41.97836 37.79005 42.9546 41.23636 43.93085 45.07274 44.90709 49.26468 45.88333 53.76706 46.85957 58.53897 47.83582 63.53091 48.81206 68.6934 49.78831 73.97585 50.76456 79.32394 51.74078 84.68439 52.71701 90.0072 53.69325 95.23694 54.6695 100.32193 55.64574 105.21329 56.622 109.86037 57.59824 114.21643 58.57448 118.24054 59.55072 121.89075 60.52696 125.13155 61.5032 127.92908 62.47945 130.25962 63.45567 132.09629 64.43192 133.42188 65.40816 134.224 66.3844 134.49462 67.36064 134.2283 68.33688 133.43048 69.31313 132.10919 70.28937 130.27628 71.26563 127.95004 72.24187 125.15576 73.21811 121.91765 74.19434 118.27068 75.17058 114.24925 76.14682 109.89589 77.12305 105.25093 78.09929 100.36176 79.07553 95.27835 80.05179 90.04915 81.02803 84.7269 82.00427 79.3659 82.98051 74.01782 83.95674 68.73535 84.93298 63.57126 85.90923 58.57825 86.88548 53.80363 87.86172 49.29912 88.83797 45.10501 89.8142 41.26381 90.79044 37.8164 91.76668 34.7951 92.74292 32.22946 93.71918 30.14479 94.6954 28.56473 95.67165 27.50328 96.64789 26.96745 97.62413 26.968 98.60043 27.50435 99.57658 28.5658 100.55289 30.14584 101.52904 32.23161 102.50534 34.79779 103.48164 37.81856 104.4578 41.26704 105.43408 45.10768 106.41023 49.30235 107.38654 53.8074 108.36284 58.58255 109.339 63.57503 110.3153 68.73965 111.29146 74.02104 112.26776 79.37074 113.24406 84.73228 114.22021 90.05292 115.1965 95.28212 116.17264 100.36606 117.14896 105.25523 118.12526 109.90019 119.10141 114.25247 120.07771 118.27335 121.05386 121.92035 122.03017 125.15738 123.00647 127.9522 123.98262 130.27791 124.95894 132.11026 125.93509 133.43103 126.91138 134.2283 127.88766 134.49462 128.86382 134.22293 129.84012 133.42026 130.81627 132.09522 131.79259 130.25908 132.76889 127.92693 133.74504 125.12833 134.72135 121.88753 135.6975 118.23677 136.67378 114.2132 137.65009 109.85606 138.62624 105.21005 139.60254 100.31764 140.5787 95.23317 141.555 90.0029 142.5313 84.68063 143.50745 79.32018 144.48375 73.97101 145.4599 68.68964 146.43622 63.52661 147.4125 58.53574 148.38866 53.76384 149.36496 49.26038 150.34111 45.07056 151.31742 41.23369 152.2937 37.7879 153.26985 34.77089 154.24617 32.20955 155.22232 30.12865 156.19863 28.55342 157.17491 27.49628 158.15106 26.96582 159.12737 26.96959 160.10352 27.50974 161.07982 28.5771 162.05614 30.16199 163.03229 32.25153 164.00859 34.82254 164.98474 37.84653 165.96103 41.29932 166.93733 45.14372 167.91347 49.34001 168.88977 53.8483 169.86594 58.62398 170.84224 63.6186 171.81855 68.78432 172.7947 74.06784 173.771 79.41754 174.74715 84.778 175.72345 90.09811 176.69976 95.32732 177.67592 100.40964 178.65219 105.29721 179.62834 109.93839 180.60465 114.28906 181.58095 118.30672 182.5571 121.951 183.5334 125.18428 184.50957 127.97426 185.48587 130.29619 186.46218 132.12427 187.43833 133.44124 188.41463 134.23314 189.39076 134.49462 190.36707 134.21916 191.34336 133.41112 192.31952 132.08068 193.29582 130.24024 194.27198 127.9054"/>
<use data-text="y" xlink:href="#font_3_3" transform="matrix(9.963098,0,0,-9.962899,20.479325,144.33686)" fill="#0000ff" fill-opacity=".5"/>
<use data-text="=" xlink:href="#font_2_7" transform="matrix(9.963098,0,0,-9.962899,28.488724,144.33686)" fill="#0000ff" fill-opacity=".5"/>
<use data-text="c" xlink:href="#font_2_8" transform="matrix(9.963098,0,0,-9.962899,38.98983,144.33686)" fill="#0000ff" fill-opacity=".5"/>
<use data-text="o" xlink:href="#font_2_9" transform="matrix(9.963098,0,0,-9.962899,43.413446,144.33686)" fill="#0000ff" fill-opacity=".5"/>
<use data-text="s" xlink:href="#font_2_10" transform="matrix(9.963098,0,0,-9.962899,48.394998,144.33686)" fill="#0000ff" fill-opacity=".5"/>
<use data-text="x" xlink:href="#font_3_2" transform="matrix(9.963098,0,0,-9.962899,54.006006,144.33686)" fill="#0000ff" fill-opacity=".5"/>
<path transform="matrix(1.00005,0,0,-1.00003,4.707535,163.19742)" stroke-width=".99628" stroke-linecap="butt" stroke-miterlimit="10" stroke-linejoin="miter" fill="none" stroke="#ff0000" d="M0 33.4878 .97621 31.15242 1.95245 29.31252 2.9287 27.98209 3.90495 27.17566 4.8812 26.90019 5.85744 27.16273 6.83368 27.95573 7.80992 29.27164 8.78616 31.10078 9.7624 33.42271 10.73863 36.21321 11.71489 39.4465 12.69112 43.09134 13.66736 47.10898 14.6436 51.45966 15.61984 56.10245 16.59608 60.98947 17.57233 66.07127 18.54858 71.29886 19.52483 76.62057 20.50107 81.9821 21.4773 87.33182 22.45354 92.61372 23.42978 97.77943 24.40602 102.77461 25.38226 107.54973 26.35849 112.0575 27.33475 116.2543 28.31099 120.09872 29.28723 123.55043 30.26347 126.57497 31.23972 129.14492 32.21594 131.23337 33.19218 132.8188 34.16844 133.88507 35.14468 134.42522 36.12093 134.42899 37.09717 133.89853 38.07341 132.84085 39.04964 131.26456 40.02588 129.18366 41.00214 126.62177 41.97836 123.60475 42.9546 120.15953 43.93085 116.32208 44.90709 112.13014 45.88333 107.62775 46.85957 102.8553 47.83582 97.86389 48.81206 92.70035 49.78831 87.4195 50.76456 82.07086 51.74078 76.70934 52.71701 71.38762 53.69325 66.15788 54.6695 61.07233 55.64574 56.18153 56.622 51.53497 57.59824 47.17839 58.57448 43.15428 59.55072 39.50406 60.52696 36.2638 61.5032 33.46468 62.47945 31.1352 63.45567 29.29854 64.43192 27.97295 65.40816 27.1708 66.3844 26.90019 67.36064 27.1665 68.33688 27.96434 69.31313 29.28561 70.28937 31.11853 71.26563 33.44476 72.24187 36.23904 73.21811 39.47716 74.19434 43.1247 75.17058 47.14557 76.14682 51.49785 77.12305 56.14388 78.09929 61.03307 79.07553 66.11754 80.05179 71.34566 81.02803 76.66792 82.00427 82.02892 82.98051 87.37808 83.95674 92.65945 84.93298 97.82355 85.90923 102.81657 86.88548 107.59117 87.86172 112.0957 88.83797 116.28981 89.8142 120.13101 90.79044 123.57947 91.76668 126.59972 92.74292 129.16483 93.71918 131.25058 94.6954 132.8301 95.67165 133.89154 96.64789 134.42737 97.62413 134.42682 98.60043 133.89046 99.57658 132.82848 100.55289 131.24897 101.52904 129.16321 102.50534 126.59702 103.48164 123.57625 104.4578 120.12833 105.43408 116.28659 106.41023 112.09247 107.38654 107.5874 108.36284 102.81227 109.339 97.81978 110.3153 92.65515 111.29146 87.37378 112.26776 82.02408 113.24406 76.66254 114.22021 71.34189 115.1965 66.1127 116.17264 61.0293 117.14896 56.13957 118.12526 51.49463 119.10141 47.14235 120.07771 43.12093 121.05386 39.4734 122.03017 36.2369 123.00647 33.44261 123.98262 31.11691 124.95894 29.284 125.93509 27.96379 126.91138 27.1665 127.88766 26.90019 128.86382 27.17189 129.84012 27.97455 130.81627 29.2996 131.79259 31.13574 132.76889 33.46736 133.74504 36.26648 134.72135 39.50623 135.6975 43.15805 136.67378 47.18161 137.65009 51.53874 138.62624 56.18475 139.60254 61.0761 140.5787 66.16165 141.555 71.39192 142.5313 76.71417 143.50745 82.07463 144.48375 87.4238 145.4599 92.70465 146.43622 97.8682 147.4125 102.86015 148.38866 107.63097 149.36496 112.13443 150.34111 116.32532 151.31742 120.1622 152.2937 123.60692 153.26985 126.62393 154.24617 129.18526 155.22232 131.26618 156.19863 132.84139 157.17491 133.89853 158.15106 134.42899 159.12737 134.42522 160.10352 133.88507 161.07982 132.81719 162.05614 131.23282 163.03229 129.1433 164.00859 126.57227 164.98474 123.54828 165.96103 120.09657 166.93733 116.25108 167.91347 112.05481 168.88977 107.54651 169.86594 102.77084 170.84224 97.77513 171.81855 92.60942 172.7947 87.32805 173.771 81.97726 174.74715 76.61734 175.72345 71.29561 176.69976 66.0675 177.67592 60.98518 178.65219 56.09868 179.62834 51.45642 180.60465 47.10576 181.58095 43.0881 182.5571 39.4438 183.5334 36.21053 184.50957 33.42055 185.48587 31.0997 186.46218 29.27002 187.43833 27.95357 188.41463 27.16273 189.39076 26.90019 190.36707 27.17566 191.34336 27.9837 192.31952 29.31413 193.29582 31.15457 194.27198 33.48943"/>
<use data-text="y" xlink:href="#font_3_3" transform="matrix(9.963098,0,0,-9.962899,98.64023,146.18991)" fill="#ff0000"/>
<use data-text="=" xlink:href="#font_2_7" transform="matrix(9.963098,0,0,-9.962899,106.64963,146.18991)" fill="#ff0000"/>
<use data-text="c" xlink:href="#font_2_8" transform="matrix(9.963098,0,0,-9.962899,117.150737,146.18991)" fill="#ff0000"/>
<use data-text="o" xlink:href="#font_2_9" transform="matrix(9.963098,0,0,-9.962899,121.57435,146.18991)" fill="#ff0000"/>
<use data-text="s" xlink:href="#font_2_10" transform="matrix(9.963098,0,0,-9.962899,126.5559,146.18991)" fill="#ff0000"/>
<use data-text="(" xlink:href="#font_2_1" transform="matrix(9.963098,0,0,-9.962899,130.48136,146.18991)" fill="#ff0000"/>
<use data-text="x" xlink:href="#font_3_2" transform="matrix(9.963098,0,0,-9.962899,134.38101,146.18991)" fill="#ff0000"/>
<use data-text="&#x2212;" xlink:href="#font_1_1" transform="matrix(9.963098,0,0,-9.962899,142.2894,146.18991)" fill="#ff0000"/>
<use data-text="&#x03c0;" xlink:href="#font_3_1" transform="matrix(9.963098,0,0,-9.962899,152.25193,146.18991)" fill="#ff0000"/>
<use data-text=")" xlink:href="#font_2_2" transform="matrix(9.963098,0,0,-9.962899,158.28922,146.18991)" fill="#ff0000"/>
<path transform="matrix(1.00005,0,0,-1.00003,4.707535,163.19742)" stroke-width=".3985" stroke-linecap="butt" stroke-dasharray="2.98883,2.98883" stroke-miterlimit="10" stroke-linejoin="miter" fill="none" stroke="#000000" d="M66.38828 134.4957H95.1431"/>
<path transform="matrix(1.00005,0,0,-1.00003,99.855388,28.697678)" d="M1.99252 0-1.19551 1.59401 0 0-1.19551-1.59401"/>
<use data-text="&#x03c0;" xlink:href="#font_3_1" transform="matrix(9.963098,0,0,-9.962899,83.455478,25.177262)"/>
<use data-text="x" xlink:href="#font_3_2" transform="matrix(9.963098,0,0,-9.962899,189.77379,78.97788)"/>
<use data-text="y" xlink:href="#font_3_3" transform="matrix(9.963098,0,0,-9.962899,74.619029,9.606812)"/>
</svg>
