<svg xmlns="http://www.w3.org/2000/svg" xmlns:xlink="http://www.w3.org/1999/xlink" version="1.1" width="266" height="205" viewBox="0 0 266 205">
<defs>
<path id="font_1_1" d="M.6589966 .23046875C.6759949 .23046875 .69400027 .23046875 .69400027 .25045777 .69400027 .27046205 .6759949 .27046205 .6589966 .27046205H.117996219C.100997928 .27046205 .08299255 .27046205 .08299255 .25045777 .08299255 .23046875 .100997928 .23046875 .117996219 .23046875H.6589966Z"/>
<path id="font_2_4" d="M.2939911 .64004519C.2939911 .66400149 .2939911 .6660156 .2709961 .6660156 .20899964 .60227969 .12098694 .60227969 .08898926 .60227969V.57128909C.10899353 .57128909 .16799927 .57128909 .21998596 .5972748V.07902527C.21998596 .042999269 .21699524 .0309906 .1269989 .0309906H.09498596V0C.12998963 .0029907227 .21699524 .0029907227 .25698854 .0029907227 .29699708 .0029907227 .38398744 .0029907227 .4189911 0V.0309906H.3869934C.29699708 .0309906 .2939911 .041992189 .2939911 .07902527V.64004519Z"/>
<path id="font_3_1" d="M.31098939 .36265565H.42999269C.4149933 .30274964 .3929901 .2118988 .3929901 .13302613 .3929901 .09309387 .397995 .06613159 .4039917 .044174196 .41999818-.0057678224 .43299867-.009765625 .44898988-.009765625 .47200013-.009765625 .49598695 .011230469 .49598695 .035186769 .49598695 .043182374 .49398805 .047164918 .48799134 .057159425 .46899415 .09408569 .45098878 .15100098 .45098878 .23286438 .45098878 .25183106 .45098878 .29177857 .46499635 .36265565H.58999636C.60798647 .36265565 .6159973 .36265565 .6269989 .37065126 .6409912 .380661 .6439972 .39665223 .6439972 .4016571 .6439972 .43066407 .6179962 .43066407 .6009979 .43066407H.22399903C.18299866 .43066407 .15499878 .42166139 .10998535 .37965394 .083999637 .35665895 .04499817 .30274964 .04499817 .2937622 .04499817 .28178407 .057998659 .28178407 .06199646 .28178407 .07299805 .28178407 .07398987 .28378297 .07998657 .2927704 .1309967 .36265565 .19299317 .36265565 .21499634 .36265565H.27598573C.24499512 .25283814 .19099427 .13502503 .16099549 .07511902 .15499878 .062149049 .14498902 .04118347 .14199829 .03718567 .14099121 .033187868 .13899231 .029190064 .13899231 .022201539 .13899231 .006225586 .15098572-.009765625 .17399597-.009765625 .21398926-.009765625 .22499085 .035186769 .24899292 .12504578L.31098939 .36265565Z"/>
<path id="font_4_1" d="M.5049896 .18203736H.47099305C.46798707 .16001892 .45799256 .100997928 .44499208 .09098816 .43699647 .084991458 .3600006 .084991458 .34599305 .084991458H.1619873C.2669983 .17803955 .3019867 .20603943 .3619995 .25306703 .43598939 .312088 .5049896 .374115 .5049896 .46914674 .5049896 .5900879 .39898683 .6640625 .2709961 .6640625 .14698792 .6640625 .06298828 .57710269 .06298828 .4851532 .06298828 .43414308 .10598755 .42915345 .115997318 .42915345 .13999939 .42915345 .16899109 .44615174 .16899109 .48214723 .16899109 .5001526 .1619873 .53515627 .10998535 .53515627 .14099121 .6060791 .20899964 .62805178 .2559967 .62805178 .35598756 .62805178 .4079895 .5501404 .4079895 .46914674 .4079895 .38212586 .34599305 .3130951 .31399537 .27708436L.07299805 .038986207C.06298828 .02999878 .06298828 .027999878 .06298828 0H.47499085L.5049896 .18203736Z"/>
<path id="font_5_1" d="M.2649994 .37265016H.37799073C.34498597 .22489929 .33599855 .18196106 .33599855 .11508179 .33599855 .100097659 .33599855 .073150638 .34399415 .03919983 .35398866-.0047454836 .36499024-.0107421879 .37998963-.0107421879 .3999939-.0107421879 .42099 .007247925 .42099 .02722168 .42099 .033218385 .42099 .035202028 .4149933 .049179079 .38598634 .12106323 .38598634 .18595886 .38598634 .21391297 .38598634 .26683045 .3929901 .32073976 .4039917 .37265016H.5179901C.5309906 .37265016 .5669861 .37265016 .5669861 .406662 .5669861 .43066407 .54599 .43066407 .5269928 .43066407H.19198609C.16999817 .43066407 .13198853 .43066407 .08799744 .38365174 .052993776 .34469605 .026992798 .29878236 .026992798 .29379273 .026992798 .29278565 .026992798 .28379823 .038986207 .28379823 .04699707 .28379823 .04899597 .28779603 .054992677 .29577638 .10398865 .37265016 .1619873 .37265016 .18199158 .37265016H.23899842C.20698548 .25186158 .15299988 .13105774 .11099243 .04020691 .102996829 .025222779 .102996829 .023223877 .102996829 .016235352 .102996829-.002746582 .11898804-.0107421879 .13198853-.0107421879 .1619873-.0107421879 .16999817 .017242432 .18199158 .05418396 .19599915 .100097659 .19599915 .10209656 .20899964 .15202332L.2649994 .37265016Z"/>
<path id="font_6_1" d="M.3829956 .3976593H.47599793C.49598695 .3976593 .5079956 .3976593 .5079956 .4166565 .5079956 .43066407 .49499513 .43066407 .47799684 .43066407H.3889923C.40499879 .5209503 .4149933 .578125 .4249878 .62312319 .42900086 .64012148 .43199159 .65112307 .44699098 .66311648 .45999146 .6741028 .46798707 .6760864 .47898866 .6760864 .49398805 .6760864 .5099945 .6730957 .522995 .66511538 .5179901 .66311648 .5119934 .66012576 .5069885 .65711978 .48999024 .6481323 .47799684 .63012698 .47799684 .6101227 .47799684 .5871277 .49598695 .5731201 .5179901 .5731201 .5469971 .5731201 .57398989 .5981293 .57398989 .6331177 .57398989 .6800995 .526001 .70410159 .47799684 .70410159 .44400025 .70410159 .3809967 .6880951 .34899903 .5961304 .33999635 .5731201 .33999635 .5711212 .31298829 .43066407H.23799134C.21798706 .43066407 .20599365 .43066407 .20599365 .4116516 .20599365 .3976593 .21899414 .3976593 .23599243 .3976593H.30699159L.23498535 .00982666C.21598816-.09114075 .20098877-.17610169 .147995-.17610169 .14498902-.17610169 .12399292-.17610169 .10499573-.1641388 .15098572-.1531372 .15098572-.11114502 .15098572-.11013794 .15098572-.087142948 .1329956-.073135379 .11099243-.073135379 .083999637-.073135379 .054992677-.09614563 .054992677-.13414002 .054992677-.17610169 .09799194-.20410156 .147995-.20410156 .20899964-.20410156 .25099183-.14013672 .2639923-.11514282 .2999878-.04914856 .32299806 .075790408 .32499696 .08578491L.3829956 .3976593Z"/>
<path id="font_7_1" d="M.33299256-.25C.34098817-.25 .35299684-.25 .35299684-.23800659 .35299684-.23400879 .35198976-.23300171 .33898927-.22000122 .20199585-.09100342 .16799927 .09498596 .16799927 .25 .16799927 .5379944 .2869873 .6729889 .33799745 .71899417 .35198976 .7319946 .35299684 .73298647 .35299684 .73799136 .35299684 .7429962 .34899903 .75 .33898927 .75 .32299806 .75 .272995 .69898989 .2649994 .6899872 .1309967 .5499878 .102996829 .36999513 .102996829 .25 .102996829 .025985718 .19699097-.15400696 .33299256-.25Z"/>
<path id="font_6_2" d="M.5009918 .39942933C.45700074 .38842774 .45498658 .34942628 .45498658 .34542848 .45498658 .3234253 .47200013 .3084259 .49398805 .3084259 .5159912 .3084259 .5499878 .3254242 .5499878 .36842347 .5499878 .42539979 .4869995 .44140626 .44999696 .44140626 .40299989 .44140626 .36499024 .4084015 .34199525 .36943055 .31999208 .4223938 .2679901 .44140626 .22698975 .44140626 .117996219 .44140626 .056991579 .31643678 .056991579 .28840638 .056991579 .27938844 .06399536 .27539063 .07199097 .27539063 .083999637 .27539063 .085998538 .2803955 .08898926 .29240418 .11199951 .36543275 .17199707 .4133911 .22399903 .4133911 .2630005 .4133911 .28199769 .385437 .28199769 .34942628 .28199769 .32943727 .269989 .2834015 .2619934 .25135804 .25498963 .22232056 .23298645 .13320923 .22799683 .11419678 .21398926 .060195924 .17799378 .018234253 .1329956 .018234253 .1289978 .018234253 .102996829 .018234253 .08198547 .032196046 .12799073 .04319763 .12799073 .08518982 .12799073 .0861969 .12799073 .109191898 .10998535 .12319946 .08799744 .12319946 .06098938 .12319946 .03199768 .10018921 .03199768 .062194826 .03199768 .016220093 .08099365-.009765625 .13198853-.009765625 .18499756-.009765625 .22200012 .030197144 .23999024 .062194826 .2619934 .01322937 .30799867-.009765625 .35598756-.009765625 .46499635-.009765625 .5249939 .1151886 .5249939 .143219 .5249939 .15322876 .5169983 .15623474 .5099945 .15623474 .49798585 .15623474 .49598695 .14923096 .49299623 .13922119 .47299195 .07218933 .41600038 .018234253 .35798646 .018234253 .32499696 .018234253 .30099488 .04019165 .30099488 .0821991 .30099488 .10218811 .30699159 .12519837 .32099916 .18127442 .32798768 .21130371 .34999085 .29942323 .35499574 .31843568 .36898805 .37042237 .4039917 .4133911 .44898988 .4133911 .45399476 .4133911 .47999574 .4133911 .5009918 .39942933Z"/>
<path id="font_7_2" d="M.30899049 .25C.30899049 .34500123 .29299928 .45899964 .23098755 .57699587 .18199158 .6689911 .09098816 .75 .07299805 .75 .06298828 .75 .05999756 .7429962 .05999756 .73799136 .05999756 .73399356 .05999756 .7319946 .07199097 .7200012 .21199036 .58699038 .24398804 .4039917 .24398804 .25 .24398804-.037002565 .125-.17300415 .07398987-.2190094 .06098938-.23200989 .05999756-.23300171 .05999756-.23800659 .05999756-.24301148 .06298828-.25 .07299805-.25 .08898926-.25 .13899231-.19900513 .14698792-.19000244 .2809906-.05000305 .30899049 .12998963 .30899049 .25Z"/>
<path id="font_7_3" d="M.73098757 .3330078C.74598696 .3330078 .7659912 .3330078 .7659912 .3560028 .7659912 .3789978 .74198916 .3789978 .72698977 .3789978H.09799194C.08299255 .3789978 .05899048 .3789978 .05899048 .3560028 .05899048 .3330078 .07899475 .3330078 .09399414 .3330078H.73098757M.72698977 .12098694C.74198916 .12098694 .7659912 .12098694 .7659912 .14398194 .7659912 .16699219 .74598696 .16699219 .73098757 .16699219H.09399414C.07899475 .16699219 .05899048 .16699219 .05899048 .14398194 .05899048 .12098694 .08299255 .12098694 .09799194 .12098694H.72698977Z"/>
<path id="font_7_4" d="M.36799623 .39746095C.33999635 .3884735 .33599855 .36547853 .33599855 .35346986 .33599855 .32647706 .35499574 .30647279 .3829956 .30647279 .40899659 .30647279 .42999269 .32447816 .42999269 .35447694 .42999269 .41627503 .3619995 .44628907 .2679901 .44628907 .1289978 .44628907 .034988405 .33547975 .034988405 .21640015 .034988405 .089279178 .13899231-.009765625 .2649994-.009765625 .4059906-.009765625 .44099427 .108306888 .44099427 .12031555 .44099427 .13232422 .42799378 .13232422 .4249878 .13232422 .41799928 .13232422 .41299439 .13131714 .4099884 .12130737 .40299989 .10029602 .375 .021224976 .2749939 .021224976 .21299744 .021224976 .12399292 .0692749 .12399292 .21739197 .12399292 .3614807 .19799805 .4152832 .2709961 .4152832 .27999879 .4152832 .33299256 .4152832 .36799623 .39746095Z"/>
<path id="font_7_5" d="M.5 .21325684C.5 .3382721 .39698792 .44628907 .2649994 .44628907 .1329956 .44628907 .02999878 .3382721 .02999878 .21325684 .02999878 .08824158 .13699341-.009765625 .2649994-.009765625 .3939972-.009765625 .5 .08824158 .5 .21325684M.2649994 .021224976C.21099854 .021224976 .16899109 .047225954 .14698792 .082229617 .12199402 .12324524 .11898804 .17224121 .11898804 .22225952 .11898804 .2602539 .11898804 .32026673 .1499939 .363266 .17599488 .3982849 .21798706 .41827394 .2649994 .41827394 .31698609 .41827394 .3600006 .39328004 .3829956 .35827638 .4099884 .31626893 .41099549 .2622528 .41099549 .22225952 .41099549 .17625427 .40899659 .12124634 .3809967 .07923889 .35398866 .039230348 .30899049 .021224976 .2649994 .021224976Z"/>
<path id="font_7_6" d="M.35598756 .4202881C.35598756 .4362793 .35598756 .44628907 .34298707 .44628907 .33799745 .44628907 .33499146 .44628907 .31900025 .4302826 .31698609 .4292755 .30799867 .4202881 .30499269 .4202881 .3039856 .4202881 .3019867 .4202881 .29599 .4242859 .27999879 .43528749 .25099183 .44628907 .20599365 .44628907 .06599426 .44628907 .034988405 .37026979 .034988405 .32226563 .034988405 .27226258 .07199097 .24325562 .07499695 .24024964 .114990238 .21025086 .13798523 .20625305 .20498657 .19424439 .2519989 .18525696 .32899476 .17124939 .32899476 .10324097 .32899476 .0642395 .30299378 .018234253 .21099854 .018234253 .10998535 .018234253 .08099365 .09623718 .067993167 .14924622 .06399536 .1622467 .06298828 .16725159 .050994874 .16725159 .034988405 .16725159 .034988405 .15924073 .034988405 .14024353V.016220093C.034988405 .00022888184 .034988405-.009765625 .04798889-.009765625 .053985597-.009765625 .054992677-.008773804 .07299805 .010223389 .07798767 .0152282719 .08898926 .02822876 .09399414 .033233644 .13899231-.0077667238 .18598938-.009765625 .21199036-.009765625 .33898927-.009765625 .3829956 .06323242 .3829956 .12924195 .3829956 .1772461 .35398866 .24725342 .23498535 .2692566 .22698975 .2712555 .17098999 .28126527 .16699219 .28126527 .13598633 .28826905 .08898926 .30926515 .08898926 .34927369 .08898926 .37927247 .11099243 .4212799 .20599365 .4212799 .31799317 .4212799 .32299806 .33926393 .32499696 .31126405 .32598878 .30326844 .33299256 .30026246 .33999635 .30026246 .35598756 .30026246 .35598756 .30726625 .35598756 .32626344V.4202881Z"/>
<path id="font_2_1" d="M.33099366-.2400055C.33099366-.23701477 .33099366-.23500061 .31399537-.21800232 .18899536-.0920105 .15699768 .09700012 .15699768 .25 .15699768 .42399598 .19499207 .59799197 .31799317 .72299197 .33099366 .73498538 .33099366 .7369995 .33099366 .73999026 .33099366 .746994 .32699586 .75 .32099916 .75 .31098939 .75 .22099304 .6819916 .1619873 .5549927 .11099243 .44499208 .09899902 .33399964 .09899902 .25 .09899902 .17199707 .10998535 .050994874 .16499329-.06201172 .22499085-.18501282 .31098939-.25 .32099916-.25 .32699586-.25 .33099366-.24700928 .33099366-.2400055Z"/>
<path id="font_2_3" d="M.45999146 .31976319C.45999146 .39982606 .45498658 .47988893 .41999818 .5539398 .37399293 .65000918 .2919922 .6660156 .25 .6660156 .18998719 .6660156 .116989139 .64001467 .07598877 .54693606 .04399109 .47789 .038986207 .39982606 .038986207 .31976319 .038986207 .24472046 .042999269 .15464783 .083999637 .07859802 .1269989-.0024719239 .19999695-.022460938 .24899292-.022460938 .30299378-.022460938 .3789978-.0014648438 .4229889 .09359741 .45498658 .16265869 .45999146 .2407074 .45999146 .31976319M.24899292-.00047302247C.20999146-.00047302247 .15098572 .024551392 .1329956 .12062073 .12199402 .18066406 .12199402 .2727356 .12199402 .3317871 .12199402 .39582826 .12199402 .46188355 .12998963 .5159149 .14898682 .63500979 .22399903 .64401248 .24899292 .64401248 .28199769 .64401248 .34799195 .6259918 .36698915 .52693179 .3769989 .47088624 .3769989 .39482118 .3769989 .3317871 .3769989 .25672914 .3769989 .18867493 .3659973 .12461853 .35099793 .029556275 .2939911-.00047302247 .24899292-.00047302247Z"/>
<path id="font_5_2" d="M.20298767 .0009918213C.20298767 .066986087 .17799378 .10598755 .13899231 .10598755 .10598755 .10598755 .085998538 .08099365 .085998538 .052993776 .085998538 .025985718 .10598755 0 .13899231 0 .15098572 0 .1639862 .0039978029 .17399597 .0129852299 .1769867 .01499939 .17799378 .015991211 .1789856 .015991211 .17999268 .015991211 .18099976 .01499939 .18099976 .0009918213 .18099976-.07316589 .1459961-.13328552 .11299133-.16635132 .101989749-.17736817 .101989749-.17936707 .101989749-.18237305 .101989749-.18936157 .10699463-.19335938 .11199951-.19335938 .12298584-.19335938 .20298767-.116256717 .20298767 .0009918213Z"/>
<path id="font_2_2" d="M.2889862 .25C.2889862 .32798768 .27799989 .44898988 .22299195 .56199648 .16299439 .68499758 .07699585 .75 .066986087 .75 .06098938 .75 .056991579 .74598696 .056991579 .73999026 .056991579 .7369995 .056991579 .73498538 .07598877 .71699526 .17399597 .6179962 .23098755 .45899964 .23098755 .25 .23098755 .07899475 .19400025-.09700012 .069992069-.2230072 .056991579-.23500061 .056991579-.23701477 .056991579-.2400055 .056991579-.2460022 .06098938-.25 .066986087-.25 .07699585-.25 .16699219-.18200684 .22599793-.055007936 .2769928 .054992677 .2889862 .16600037 .2889862 .25Z"/>
<path id="font_8_1" d="M.79599 .22436524C.81199648 .22436524 .83699038 .22436524 .83699038 .2503662 .83699038 .2763672 .81199648 .2763672 .79599 .2763672H.1659851C.1499939 .2763672 .125 .2763672 .125 .2503662 .125 .22436524 .1499939 .22436524 .1659851 .22436524H.79599Z"/>
<path id="font_9_1" d="M.35899354 .6349335C.35899354 .66503909 .35499574 .66503909 .32499696 .66503909 .25898744 .60058596 .15699768 .60058596 .12098694 .60058596V.5615845C.14698792 .5615845 .21299744 .5615845 .272995 .58958438V.08496094C.272995 .051986696 .272995 .038986207 .16999817 .038986207H.1269989V0C.18199158 .0039978029 .2599945 .0039978029 .31599427 .0039978029 .37199403 .0039978029 .44999696 .0039978029 .5049896 0V.038986207H.46199037C.35899354 .038986207 .35899354 .051986696 .35899354 .08496094V.6349335Z"/>
<path id="font_5_3" d="M.33399964 .30233766C.33999635 .32835389 .36299134 .42037965 .43299867 .42037965 .43798829 .42037965 .46199037 .42037965 .48298646 .40734864 .45498658 .402359 .43499757 .37734986 .43499757 .35334779 .43499757 .33735658 .44599916 .31835938 .47299195 .31835938 .49499513 .31835938 .5269928 .3363495 .5269928 .37635804 .5269928 .42837525 .46798707 .4423828 .43399049 .4423828 .37599183 .4423828 .34098817 .38935853 .32899476 .36634828 .3039856 .43237306 .25 .4423828 .22099304 .4423828 .116989139 .4423828 .05999756 .3133545 .05999756 .28834535 .05999756 .27833558 .069992069 .27833558 .07199097 .27833558 .07998657 .27833558 .08299255 .28033448 .084991458 .28933717 .11898804 .39535523 .18499756 .42037965 .21899414 .42037965 .23799134 .42037965 .272995 .4113617 .272995 .35334779 .272995 .32235719 .2559967 .25532533 .21899414 .11528015 .20298767 .053268434 .16799927 .011245728 .12399292 .011245728 .117996219 .011245728 .09498596 .011245728 .07398987 .024276734 .09899902 .029266358 .12098694 .05027771 .12098694 .07827759 .12098694 .105270389 .09899902 .11328125 .083999637 .11328125 .053985597 .11328125 .0289917 .08728027 .0289917 .055267335 .0289917 .009246826 .07899475-.0107421879 .12298584-.0107421879 .18899536-.0107421879 .22499085 .059280397 .22799683 .0652771 .23999024 .028274537 .27598573-.0107421879 .33599855-.0107421879 .43899537-.0107421879 .49598695 .118270877 .49598695 .14328003 .49598695 .1532898 .4869995 .1532898 .48399354 .1532898 .47499085 .1532898 .47299195 .14929199 .47099305 .14228821 .43798829 .03527832 .36999513 .011245728 .33799745 .011245728 .29899598 .011245728 .2829895 .043273927 .2829895 .07727051 .2829895 .09927368 .2889862 .121276859 .2999878 .16529846L.33399964 .30233766Z"/>
<path id="font_5_4" d="M.48599244 .38136292C.48999024 .39537049 .48999024 .39736939 .48999024 .40437318 .48999024 .42237855 .47599793 .43138124 .46099855 .43138124 .45098878 .43138124 .43499757 .42536927 .42599488 .41036988 .42399598 .405365 .41600038 .37435914 .4119873 .35635377 .40499879 .33035279 .397995 .30334474 .3919983 .27633668L.34700013 .09628296C.34298707 .08126831 .2999878 .011245728 .23399353 .011245728 .18299866 .011245728 .17199707 .055267335 .17199707 .0922699 .17199707 .1382904 .18899536 .20030213 .22299195 .28833009 .23899842 .3293457 .24299622 .3403473 .24299622 .36035157 .24299622 .405365 .21099854 .4423828 .16099549 .4423828 .06599426 .4423828 .0289917 .29733277 .0289917 .28833009 .0289917 .27833558 .038986207 .27833558 .040985109 .27833558 .050994874 .27833558 .051986696 .28033448 .056991579 .29634095 .083999637 .3903656 .12399292 .42037965 .1579895 .42037965 .1659851 .42037965 .18299866 .42037965 .18299866 .3883667 .18299866 .36335755 .17298889 .3373413 .1659851 .31834413 .12599182 .21231079 .10798645 .1552887 .10798645 .10827637 .10798645 .019256592 .17098999-.0107421879 .22999573-.0107421879 .2689972-.0107421879 .30299378 .0062561037 .33099366 .03425598 .31799317-.017745972 .30599977-.06674194 .2659912-.11973572 .23999024-.15385437 .20199585-.18309021 .1559906-.18309021 .14199829-.18309021 .09700012-.18005371 .07998657-.14074707 .09599304-.14074707 .10899353-.14074707 .12298584-.1287384 .1329956-.11973572 .14299011-.10673523 .14299011-.08773804 .14299011-.056747438 .115997318-.052734376 .10598755-.052734376 .08299255-.052734376 .049987794-.068740848 .049987794-.11773682 .049987794-.16796875 .09399414-.20507813 .1559906-.20507813 .25898744-.20507813 .3619995-.11373901 .3899994-.00074768069L.48599244 .38136292Z"/>
</defs>
<path transform="matrix(1.250025,0,0,-1.25,21.432648,203.59325)" stroke-width=".19925" stroke-linecap="butt" stroke-miterlimit="10" stroke-linejoin="miter" fill="none" stroke="#929292" d="M18.89226 44.95996V49.2117M116.0283 44.95996V49.2117M175.38033 44.95996V49.2117"/>
<path transform="matrix(1.250025,0,0,-1.25,21.432648,203.59325)" stroke-width=".19925" stroke-linecap="butt" stroke-miterlimit="10" stroke-linejoin="miter" fill="none" stroke="#929292" d="M54.55075 15.69528H58.80276M54.55075 96.39383H58.80276M54.55075 145.7022H58.80276"/>
<path transform="matrix(1.250025,0,0,-1.25,21.432648,203.59325)" stroke-width=".3985" stroke-linecap="butt" stroke-miterlimit="10" stroke-linejoin="miter" fill="none" stroke="#000000" d="M0 47.08585H192.28006"/>
<path transform="matrix(1.250025,0,0,-1.25,261.78755,144.73593)" d="M1.99252 0-1.19551 1.59401 0 0-1.19551-1.59401"/>
<path transform="matrix(1.250025,0,0,-1.25,21.432648,203.59325)" stroke-width=".3985" stroke-linecap="butt" stroke-miterlimit="10" stroke-linejoin="miter" fill="none" stroke="#000000" d="M56.67677 0V159.40496"/>
<path transform="matrix(0,-1.25,-1.250025,-0,92.28003,4.3370516)" d="M1.99252 0-1.19551 1.59401 0 0-1.19551-1.59401"/>
<use data-text="&#x2212;" xlink:href="#font_1_1" transform="matrix(12.453499,0,0,-12.45325,37.091714,159.81824)"/>
<use data-text="1" xlink:href="#font_2_4" transform="matrix(12.453499,0,0,-12.45325,46.778146,159.81824)"/>
<use data-text="&#x03c0;" xlink:href="#font_3_1" transform="matrix(8.717424,0,0,-8.71725,163.40299,155.547)"/>
<path transform="matrix(1.250025,0,0,-1.25,3.0772858,-72.65675)" stroke-width=".3985" stroke-linecap="butt" stroke-miterlimit="10" stroke-linejoin="miter" fill="none" stroke="#000000" d="M128.258-183.995H133.167"/>
<use data-text="2" xlink:href="#font_4_1" transform="matrix(8.717424,0,0,-8.71725,163.98926,164.7445)"/>
<use data-text="&#x03c0;" xlink:href="#font_5_1" transform="matrix(12.453499,0,0,-12.45325,236.88947,157.1545)"/>
<use data-text="&#x2212;" xlink:href="#font_1_1" transform="matrix(12.453499,0,0,-12.45325,69.30986,187.46825)"/>
<use data-text="1" xlink:href="#font_2_4" transform="matrix(12.453499,0,0,-12.45325,78.99629,187.46825)"/>
<use data-text="&#x03c0;" xlink:href="#font_3_1" transform="matrix(8.717424,0,0,-8.71725,77.592517,80.3795)"/>
<path transform="matrix(1.250025,0,0,-1.25,-82.733188,-147.82425)" stroke-width=".3985" stroke-linecap="butt" stroke-miterlimit="10" stroke-linejoin="miter" fill="none" stroke="#000000" d="M128.258-183.995H133.167"/>
<use data-text="2" xlink:href="#font_4_1" transform="matrix(8.717424,0,0,-8.71725,78.17879,89.57701)"/>
<use data-text="&#x03c0;" xlink:href="#font_5_1" transform="matrix(12.453499,0,0,-12.45325,77.67627,24.146988)"/>
<path transform="matrix(1.250025,0,0,-1.25,21.432648,203.59325)" stroke-width=".99628" stroke-linecap="butt" stroke-miterlimit="10" stroke-linejoin="miter" fill="none" stroke="#00aeef" d="M56.67677 78.47641 57.27327 78.4717 57.86977 78.45976 58.46625 78.43967 59.06276 78.41235 59.65926 78.37689 60.25575 78.33357 60.85226 78.28398 61.44876 78.22527 62.04526 78.15872 62.64177 78.08496 63.23827 78.00365 63.83476 77.91357 64.43127 77.81625 65.02776 77.71109 65.62425 77.5984 66.22076 77.47913 66.81726 77.35135 67.41376 77.21606 68.01027 77.07323 68.60677 76.92445 69.20326 76.76654 69.79977 76.60176 70.39627 76.42879 70.99277 76.24861 71.58926 76.06152 72.18576 75.86754 72.78226 75.66632 73.37877 75.45789 73.97527 75.24223 74.57176 75.02061 75.16827 74.79114 75.76477 74.55446 76.36127 74.31119 76.95778 74.06068 77.55428 73.80391 78.15076 73.54056 78.74727 73.2709 79.34377 72.99403 79.94026 72.71089 80.53677 72.42209 81.13327 72.12703 81.72977 71.82474 82.32628 71.51616 82.92278 71.20195 83.51927 70.88177 84.11578 70.55562 84.71227 70.22319 85.30876 69.88574 85.90527 69.54265 86.50177 69.19357 87.09827 68.8395 87.69478 68.47945 88.29128 68.11375 88.88777 67.74333 89.48428 67.3679 90.08078 66.98651 90.67728 66.60103 91.27377 66.21054 91.87027 65.81534 92.46677 65.4151 93.06328 65.01079 93.65977 64.60178 94.25627 64.1893 94.85278 63.77118 95.44928 63.34929 96.04578 62.92332 96.64229 62.49326 97.23878 62.05975 97.83527 61.62248 98.43178 61.18083 99.02827 60.73695 99.62477 60.28902 100.22128 59.83763 100.81778 59.38371 101.41428 58.92574 102.01079 58.46555 102.60728 58.00221 103.20378 57.53638 103.8003 57.06804 104.39677 56.59654 104.99327 56.12317 105.58978 55.64761 106.18628 55.17017 106.78278 54.68956 107.37927 54.20834 107.97578 53.72462 108.57228 53.23933 109.16878 52.7531 109.76529 52.26465 110.36179 51.77559 110.95828 51.28494 111.55478 50.79306 112.15128 50.30086 112.74777 49.80739 113.34428 49.31361 113.94078 48.81921 114.53728 48.32387 115.13379 47.82822 115.73029 47.33351 116.32678 46.83815 116.92332 46.34282 117.51978 45.8478 118.1163 45.35245 118.71274 44.85805 119.30928 44.36363 119.90582 43.87144 120.50226 43.37862 121.0988 42.88672 121.69525 42.39607 122.2918 41.90701 122.88832 41.4189 123.48477 40.93202 124.08131 40.44673 124.67773 39.96394 125.27428 39.4821 125.87082 39.00212 126.46727 38.52406 127.06381 38.0485 127.66025 37.57512 128.25679 37.10362 128.85334 36.63496 129.44977 36.16945 130.04631 35.70613 130.64276 35.24593 131.23929 34.78796 131.83582 34.33405 132.43227 33.88232 133.02881 33.43471 133.62525 32.99084 134.22179 32.5498 134.81833 32.11253 135.41477 31.6784 136.0113 31.24834 136.60776 30.82239 137.2043 30.40048 137.80083 29.98236 138.39727 29.5696 138.9938 29.16089 139.59026 28.75658 140.1868 28.35666 140.78333 27.96112 141.37978 27.57063 141.97632 27.18454 142.57276 26.80376 143.1693 26.42833 143.76584 26.05792 144.36226 25.69221 144.9588 25.33217 145.55525 24.9784 146.1518 24.62903 146.74834 24.28593 147.34477 23.94815 147.94132 23.61667 148.53777 23.2899 149.13431 22.97003 149.73084 22.6555 150.32729 22.34692 150.92382 22.04465 151.52025 21.74957 152.11679 21.46014 152.71334 21.17763 153.30977 20.9014 153.90631 20.63112 154.50276 20.36775 155.0993 20.11098 155.69583 19.86047 156.29228 19.6172 156.88883 19.38052 157.48526 19.15137 158.08179 18.92943 158.67833 18.71378 159.27478 18.50534 159.87133 18.30414 160.46776 18.11014 161.0643 17.92305 161.66085 17.74287 162.25728 17.57054 162.85382 17.40512 163.45027 17.24753 164.0468 17.09843 164.64333 16.9556 165.23978 16.82094 165.83632 16.69254 166.43276 16.57263 167.0293 16.46057 167.62584 16.35541 168.22229 16.25748 168.81884 16.16801 169.41527 16.08672 170.01181 16.01294 170.60834 15.9464 171.20478 15.88768 171.80132 15.8381 172.39777 15.79477 172.99431 15.75931 173.59084 15.73201 174.18729 15.7119 174.78383 15.69997 175.38027 15.69589"/>
<use data-text="f" xlink:href="#font_6_1" transform="matrix(9.962825,0,0,-9.962625,202.38626,167.8645)" fill="#00aeef"/>
<use data-text="(" xlink:href="#font_7_1" transform="matrix(9.962825,0,0,-9.962625,208.57015,167.8645)" fill="#00aeef"/>
<use data-text="x" xlink:href="#font_6_2" transform="matrix(9.962825,0,0,-9.962625,212.68648,167.8645)" fill="#00aeef"/>
<use data-text=")" xlink:href="#font_7_2" transform="matrix(9.962825,0,0,-9.962625,218.64534,167.8645)" fill="#00aeef"/>
<use data-text="=" xlink:href="#font_7_3" transform="matrix(9.962825,0,0,-9.962625,225.69904,167.8645)" fill="#00aeef"/>
<use data-text="c" xlink:href="#font_7_4" transform="matrix(9.962825,0,0,-9.962625,236.86736,167.8645)" fill="#00aeef"/>
<use data-text="o" xlink:href="#font_7_5" transform="matrix(9.962825,0,0,-9.962625,241.56981,167.8645)" fill="#00aeef"/>
<use data-text="s" xlink:href="#font_7_6" transform="matrix(9.962825,0,0,-9.962625,246.86006,167.8645)" fill="#00aeef"/>
<use data-text="x" xlink:href="#font_6_2" transform="matrix(9.962825,0,0,-9.962625,252.81352,167.8645)" fill="#00aeef"/>
<path transform="matrix(1.250025,0,0,-1.25,21.432648,203.59325)" d="M58.66933 78.47641C58.66933 79.57687 57.77724 80.46896 56.67677 80.46896 55.5763 80.46896 54.68422 79.57687 54.68422 78.47641 54.68422 77.37593 55.5763 76.48386 56.67677 76.48386 57.77724 76.48386 58.66933 77.37593 58.66933 78.47641ZM56.67677 78.47641" fill="#00aeef"/>
<path transform="matrix(1.250025,0,0,-1.25,21.432648,203.59325)" stroke-width=".3985" stroke-linecap="butt" stroke-miterlimit="10" stroke-linejoin="miter" fill="none" stroke="#00aeef" d="M58.66933 78.47641C58.66933 79.57687 57.77724 80.46896 56.67677 80.46896 55.5763 80.46896 54.68422 79.57687 54.68422 78.47641 54.68422 77.37593 55.5763 76.48386 56.67677 76.48386 57.77724 76.48386 58.66933 77.37593 58.66933 78.47641ZM56.67677 78.47641"/>
<use data-text="(" xlink:href="#font_2_1" transform="matrix(12.453499,0,0,-12.45325,60.204675,108.61075)" fill="#00aeef"/>
<use data-text="0" xlink:href="#font_2_3" transform="matrix(12.453499,0,0,-12.45325,65.036647,108.61075)" fill="#00aeef"/>
<use data-text="," xlink:href="#font_5_2" transform="matrix(12.453499,0,0,-12.45325,71.274898,108.61075)" fill="#00aeef"/>
<use data-text="1" xlink:href="#font_2_4" transform="matrix(12.453499,0,0,-12.45325,76.810009,108.61075)" fill="#00aeef"/>
<use data-text=")" xlink:href="#font_2_2" transform="matrix(12.453499,0,0,-12.45325,83.03675,108.61075)" fill="#00aeef"/>
<path transform="matrix(1.250025,0,0,-1.25,21.432648,203.59325)" d="M177.37288 15.69528C177.37288 16.79575 176.48079 17.68784 175.38033 17.68784 174.27985 17.68784 173.38777 16.79575 173.38777 15.69528 173.38777 14.5948 174.27985 13.70273 175.38033 13.70273 176.48079 13.70273 177.37288 14.5948 177.37288 15.69528ZM175.38033 15.69528" fill="#00aeef"/>
<path transform="matrix(1.250025,0,0,-1.25,21.432648,203.59325)" stroke-width=".3985" stroke-linecap="butt" stroke-miterlimit="10" stroke-linejoin="miter" fill="none" stroke="#00aeef" d="M177.37288 15.69528C177.37288 16.79575 176.48079 17.68784 175.38033 17.68784 174.27985 17.68784 173.38777 16.79575 173.38777 15.69528 173.38777 14.5948 174.27985 13.70273 175.38033 13.70273 176.48079 13.70273 177.37288 14.5948 177.37288 15.69528ZM175.38033 15.69528"/>
<use data-text="(" xlink:href="#font_2_1" transform="matrix(12.453499,0,0,-12.45325,221.32289,197.7145)" fill="#00aeef"/>
<use data-text="&#x03c0;" xlink:href="#font_5_1" transform="matrix(12.453499,0,0,-12.45325,226.16675,197.7145)" fill="#00aeef"/>
<use data-text="," xlink:href="#font_5_2" transform="matrix(12.453499,0,0,-12.45325,233.70111,197.7145)" fill="#00aeef"/>
<use data-text="&#x2212;" xlink:href="#font_1_1" transform="matrix(12.453499,0,0,-12.45325,239.24701,197.7145)" fill="#00aeef"/>
<use data-text="1" xlink:href="#font_2_4" transform="matrix(12.453499,0,0,-12.45325,248.93344,197.7145)" fill="#00aeef"/>
<use data-text=")" xlink:href="#font_2_2" transform="matrix(12.453499,0,0,-12.45325,255.16019,197.7145)" fill="#00aeef"/>
<path transform="matrix(1.250025,0,0,-1.25,21.432648,203.59325)" stroke-width=".99628" stroke-linecap="butt" stroke-miterlimit="10" stroke-linejoin="miter" fill="none" stroke="#ff8000" d="M18.89226 145.7022 19.27199 141.24474 19.65172 139.39765 20.03145 137.97362 20.41118 136.7715 20.79092 135.70743 21.17065 134.74494 21.55038 133.85837 21.93013 133.02802 22.30986 132.24796 22.68959 131.50736 23.06932 130.80127 23.44907 130.12673 23.8288 129.47487 24.20853 128.84767 24.58827 128.2412 24.968 127.65245 25.34773 127.08047 25.72746 126.52426 26.10721 125.9809 26.48694 125.44934 26.86667 124.93063 27.24641 124.42177 27.62614 123.92375 28.00587 123.43462 28.3856 122.95436 28.76535 122.48396 29.14508 122.0185 29.52481 121.56091 29.90456 121.11122 30.28429 120.66745 30.66402 120.22958 31.04375 119.79765 31.4235 119.37064 31.80322 118.94856 32.18295 118.53241 32.5627 118.1192 32.94243 117.71191 33.32216 117.31055 33.70189 116.91017 34.08163 116.51471 34.46136 116.12321 34.8411 115.73466 35.22083 115.34906 35.60056 114.96841 35.98029 114.58972 36.36002 114.21399 36.73975 113.8422 37.11949 113.4714 37.49922 113.10457 37.87897 112.7387 38.2587 112.37576 38.63843 112.0168 39.01816 111.65884 39.39789 111.30185 39.77763 110.94781 40.15736 110.59773 40.5371 110.24666 40.91684 109.89954 41.29657 109.55338 41.6763 109.20822 42.05603 108.86504 42.43578 108.52383 42.8155 108.1836 43.19524 107.84534 43.57498 107.51006 43.95471 107.17278 44.33444 106.83847 44.71417 106.50613 45.09392 106.1738 45.47365 105.84244 45.85338 105.51306 46.23312 105.18468 46.61285 104.85727 46.99258 104.52887 47.37233 104.20444 47.75206 103.87898 48.13179 103.55356 48.51152 103.2301 48.89127 102.90862 49.271 102.58614 49.65073 102.26366 50.03047 101.94315 50.4102 101.62424 50.78993 101.30452 51.16966 100.98549 51.54941 100.66676 51.92914 100.34903 52.30887 100.03088 52.68861 99.71342 53.06834 99.39629 53.44807 99.07954 53.8278 98.76297 54.20755 98.44682 54.58728 98.13065 54.96701 97.81448 55.34676 97.49911 55.72649 97.18353 56.10622 96.86806 56.48595 96.5525 56.86569 96.23692 57.24544 95.92154 57.62514 95.60596 58.0049 95.29 58.3846 94.97452 58.76436 94.65875 59.14412 94.3427 59.52382 94.02643 59.90358 93.70998 60.28328 93.39351 60.66304 93.07597 61.04279 92.75862 61.42249 92.44087 61.80225 92.12254 62.18195 91.80402 62.5617 91.4849 62.94147 91.16528 63.32115 90.84535 63.70091 90.52437 64.08061 90.20299 64.46037 89.8808 64.84013 89.55814 65.21983 89.23466 65.5996 88.91031 65.9793 88.58537 66.35905 88.25916 66.73882 87.93254 67.1185 87.60483 67.49826 87.27606 67.87796 86.94617 68.25772 86.6152 68.63748 86.28368 69.01718 85.95015 69.39694 85.61584 69.77664 85.28014 70.15639 84.94307 70.53615 84.60461 70.91585 84.2649 71.29561 83.92358 71.67531 83.5802 72.05507 83.23602 72.43483 82.8898 72.81453 82.54187 73.19429 82.19208 73.57397 81.84023 73.95374 81.48686 74.3335 81.13077 74.7132 80.77238 75.09296 80.41264 75.47266 80.05032 75.85242 79.68546 76.23216 79.3179 76.61188 78.94789 76.99162 78.57552 77.37132 78.19957 77.75108 77.821 78.13084 77.43936 78.51054 77.05446 78.8903 76.66621 79.27 76.2744 79.64977 75.87895 80.02951 75.47926 80.40921 75.0763 80.78897 74.66882 81.16867 74.2568 81.54843 73.84015 81.92819 73.41847 82.30789 72.99216 82.68765 72.55972 83.06735 72.12137 83.44711 71.6779 83.82686 71.2277 84.20656 70.77052 84.58632 70.30634 84.96602 69.83444 85.34578 69.35489 85.72554 68.86555 86.10522 68.36745 86.48499 67.85938 86.86469 67.34045 87.24445 66.81 87.6242 66.26671 88.0039 65.70972 88.38367 65.13716 88.76337 64.54922 89.14313 63.94232 89.52289 63.31444 89.90257 62.66486 90.28233 61.98894 90.66203 61.28401 91.0418 60.54341 91.42155 59.76248 91.80125 58.93459 92.18102 58.04704 92.56071 57.08426 92.94046 56.02205 93.32022 54.81992 93.69992 53.39935 94.07968 51.55055 94.45938 47.15604"/>
<use data-text="f" xlink:href="#font_6_1" transform="matrix(9.962825,0,0,-9.962625,1.04599,75.332)" fill="#ff8000"/>
<use data-text="(" xlink:href="#font_7_1" transform="matrix(9.962825,0,0,-9.962625,7.2298738,75.332)" fill="#ff8000"/>
<use data-text="x" xlink:href="#font_6_2" transform="matrix(9.962825,0,0,-9.962625,11.346207,75.332)" fill="#ff8000"/>
<use data-text=")" xlink:href="#font_7_2" transform="matrix(9.962825,0,0,-9.962625,17.305069,75.332)" fill="#ff8000"/>
<use data-text="=" xlink:href="#font_7_3" transform="matrix(9.962825,0,0,-9.962625,24.358765,75.332)" fill="#ff8000"/>
<use data-text="c" xlink:href="#font_7_4" transform="matrix(9.962825,0,0,-9.962625,35.527086,75.332)" fill="#ff8000"/>
<use data-text="o" xlink:href="#font_7_5" transform="matrix(9.962825,0,0,-9.962625,40.229539,75.332)" fill="#ff8000"/>
<use data-text="s" xlink:href="#font_7_6" transform="matrix(9.962825,0,0,-9.962625,45.51979,75.332)" fill="#ff8000"/>
<use data-text="&#x2212;" xlink:href="#font_8_1" transform="matrix(7.47215,0,0,-7.472,49.709474,71.817)" fill="#ff8000"/>
<use data-text="1" xlink:href="#font_9_1" transform="matrix(7.47215,0,0,-7.472,56.904619,71.817)" fill="#ff8000"/>
<use data-text="x" xlink:href="#font_6_2" transform="matrix(9.962825,0,0,-9.962625,63.857255,75.332)" fill="#ff8000"/>
<path transform="matrix(1.250025,0,0,-1.25,21.432648,203.59325)" d="M96.45384 47.08585C96.45384 48.18631 95.56175 49.0784 94.46129 49.0784 93.36081 49.0784 92.46873 48.18631 92.46873 47.08585 92.46873 45.98537 93.36081 45.09329 94.46129 45.09329 95.56175 45.09329 96.45384 45.98537 96.45384 47.08585ZM94.46129 47.08585" fill="#ff8000"/>
<path transform="matrix(1.250025,0,0,-1.25,21.432648,203.59325)" stroke-width=".3985" stroke-linecap="butt" stroke-miterlimit="10" stroke-linejoin="miter" fill="none" stroke="#ff8000" d="M96.45384 47.08585C96.45384 48.18631 95.56175 49.0784 94.46129 49.0784 93.36081 49.0784 92.46873 48.18631 92.46873 47.08585 92.46873 45.98537 93.36081 45.09329 94.46129 45.09329 95.56175 45.09329 96.45384 45.98537 96.45384 47.08585ZM94.46129 47.08585"/>
<use data-text="(" xlink:href="#font_2_1" transform="matrix(12.453499,0,0,-12.45325,125.674739,158.47574)" fill="#ff8000"/>
<use data-text="1" xlink:href="#font_2_4" transform="matrix(12.453499,0,0,-12.45325,130.50672,158.47574)" fill="#ff8000"/>
<use data-text="," xlink:href="#font_5_2" transform="matrix(12.453499,0,0,-12.45325,136.74497,158.47574)" fill="#ff8000"/>
<use data-text="0" xlink:href="#font_2_3" transform="matrix(12.453499,0,0,-12.45325,142.28006,158.47574)" fill="#ff8000"/>
<use data-text=")" xlink:href="#font_2_2" transform="matrix(12.453499,0,0,-12.45325,148.5068,158.47574)" fill="#ff8000"/>
<path transform="matrix(1.250025,0,0,-1.25,21.432648,203.59325)" d="M20.88481 145.7022C20.88481 146.80268 19.99272 147.69475 18.89226 147.69475 17.79178 147.69475 16.8997 146.80268 16.8997 145.7022 16.8997 144.60173 17.79178 143.70964 18.89226 143.70964 19.99272 143.70964 20.88481 144.60173 20.88481 145.7022ZM18.89226 145.7022" fill="#ff8000"/>
<path transform="matrix(1.250025,0,0,-1.25,21.432648,203.59325)" stroke-width=".3985" stroke-linecap="butt" stroke-miterlimit="10" stroke-linejoin="miter" fill="none" stroke="#ff8000" d="M20.88481 145.7022C20.88481 146.80268 19.99272 147.69475 18.89226 147.69475 17.79178 147.69475 16.8997 146.80268 16.8997 145.7022 16.8997 144.60173 17.79178 143.70964 18.89226 143.70964 19.99272 143.70964 20.88481 144.60173 20.88481 145.7022ZM18.89226 145.7022"/>
<use data-text="(" xlink:href="#font_2_1" transform="matrix(12.453499,0,0,-12.45325,1.9685059,24.578232)" fill="#ff8000"/>
<use data-text="&#x2212;" xlink:href="#font_1_1" transform="matrix(12.453499,0,0,-12.45325,6.8123629,24.578232)" fill="#ff8000"/>
<use data-text="1" xlink:href="#font_2_4" transform="matrix(12.453499,0,0,-12.45325,16.497559,24.578232)" fill="#ff8000"/>
<use data-text="," xlink:href="#font_5_2" transform="matrix(12.453499,0,0,-12.45325,22.725174,24.578232)" fill="#ff8000"/>
<use data-text="&#x03c0;" xlink:href="#font_5_1" transform="matrix(12.453499,0,0,-12.45325,28.24208,24.578232)" fill="#ff8000"/>
<use data-text=")" xlink:href="#font_2_2" transform="matrix(12.453499,0,0,-12.45325,35.805437,24.578232)" fill="#ff8000"/>
<path transform="matrix(1.250025,0,0,-1.25,21.432648,203.59325)" stroke-width=".3985" stroke-linecap="butt" stroke-dasharray="2.98883,2.98883" stroke-miterlimit="10" stroke-linejoin="miter" fill="none" stroke="#000000" d="M9.44612 7.84764 175.38033 145.7022"/>
<use data-text="x" xlink:href="#font_5_3" transform="matrix(12.453499,0,0,-12.45325,252.76103,140.33576)"/>
<use data-text="y" xlink:href="#font_5_4" transform="matrix(12.453499,0,0,-12.45325,96.680408,11.608246)"/>
</svg>
