<svg xmlns="http://www.w3.org/2000/svg" xmlns:xlink="http://www.w3.org/1999/xlink" xmlns:inkscape="http://www.inkscape.org/namespaces/inkscape" version="1.1" width="252" height="192" viewBox="0 0 252 192">
<defs>
<path id="font_1_1" d="M.6589966 .23046875C.6759949 .23046875 .69400027 .23046875 .69400027 .25045777 .69400027 .27046205 .6759949 .27046205 .6589966 .27046205H.117996219C.100997928 .27046205 .08299255 .27046205 .08299255 .25045777 .08299255 .23046875 .100997928 .23046875 .117996219 .23046875H.6589966Z"/>
<path id="font_2_3" d="M.1269989 .07699585 .23298645 .18003845C.3889923 .31811524 .44898988 .3721466 .44898988 .47216798 .44898988 .5860901 .35899354 .6660156 .23699951 .6660156 .12399292 .6660156 .049987794 .57411196 .049987794 .48516847 .049987794 .4291687 .099990848 .4291687 .102996829 .4291687 .11999512 .4291687 .15499878 .44117738 .15499878 .48217774 .15499878 .5081787 .13699341 .5341797 .101989749 .5341797 .09399414 .5341797 .09199524 .5341797 .08898926 .5331726 .11199951 .59806826 .1659851 .63500979 .22399903 .63500979 .31498719 .63500979 .35798646 .5541382 .35798646 .47216798 .35798646 .39215089 .30799867 .31311036 .25299073 .25108338L.06098938 .036987306C.049987794 .025985718 .049987794 .023986817 .049987794 0H.42099L.44898988 .17404175H.42399598C.4189911 .14402771 .4119873 .1000061 .4019928 .084991458 .394989 .07699585 .32899476 .07699585 .30699159 .07699585H.1269989Z"/>
<path id="font_3_1" d="M.2649994 .37265016H.37799073C.34498597 .22489929 .33599855 .18196106 .33599855 .11508179 .33599855 .100097659 .33599855 .073150638 .34399415 .03919983 .35398866-.0047454836 .36499024-.0107421879 .37998963-.0107421879 .3999939-.0107421879 .42099 .007247925 .42099 .02722168 .42099 .033218385 .42099 .035202028 .4149933 .049179079 .38598634 .12106323 .38598634 .18595886 .38598634 .21391297 .38598634 .26683045 .3929901 .32073976 .4039917 .37265016H.5179901C.5309906 .37265016 .5669861 .37265016 .5669861 .406662 .5669861 .43066407 .54599 .43066407 .5269928 .43066407H.19198609C.16999817 .43066407 .13198853 .43066407 .08799744 .38365174 .052993776 .34469605 .026992798 .29878236 .026992798 .29379273 .026992798 .29278565 .026992798 .28379823 .038986207 .28379823 .04699707 .28379823 .04899597 .28779603 .054992677 .29577638 .10398865 .37265016 .1619873 .37265016 .18199158 .37265016H.23899842C.20698548 .25186158 .15299988 .13105774 .11099243 .04020691 .102996829 .025222779 .102996829 .023223877 .102996829 .016235352 .102996829-.002746582 .11898804-.0107421879 .13198853-.0107421879 .1619873-.0107421879 .16999817 .017242432 .18199158 .05418396 .19599915 .100097659 .19599915 .10209656 .20899964 .15202332L.2649994 .37265016Z"/>
<path id="font_2_4" d="M.2899933 .35191346C.37199403 .37893678 .42999269 .4490509 .42999269 .52809146 .42999269 .6100464 .34199525 .6660156 .24598694 .6660156 .14498902 .6660156 .068984989 .60606387 .068984989 .53009036 .068984989 .49710084 .09098816 .47808839 .11999512 .47808839 .15098572 .47808839 .17098999 .50009158 .17098999 .5290985 .17098999 .57910159 .12399292 .57910159 .10899353 .57910159 .13999939 .62802127 .20599365 .64100649 .24198914 .64100649 .2829895 .64100649 .33799745 .6190338 .33799745 .5290985 .33799745 .51708987 .33599855 .45906068 .30999757 .4149933 .27999879 .36691285 .24598694 .36390687 .22099304 .36291505 .21299744 .36190797 .18899536 .35990907 .18199158 .35990907 .17399597 .35890199 .16699219 .35791017 .16699219 .3479004 .16699219 .33691407 .17399597 .33691407 .19099427 .33691407H.23498535C.31698609 .33691407 .35398866 .2686615 .35398866 .17037964 .35398866 .034469606 .2849884 .0055389406 .24099732 .0055389406 .19799805 .0055389406 .12298584 .022491456 .08799744 .08137512 .12298584 .07637024 .1539917 .09837341 .1539917 .1363678 .1539917 .17237854 .1269989 .19238281 .09799194 .19238281 .07398987 .19238281 .041992189 .17837525 .041992189 .1343689 .041992189 .043441774 .1349945-.022460938 .24398804-.022460938 .3659973-.022460938 .45700074 .06838989 .45700074 .17037964 .45700074 .252594 .3939972 .33088685 .2899933 .35191346Z"/>
<path id="font_2_5" d="M.2939911 .16503906V.07800293C.2939911 .041992189 .2919922 .0309906 .21798706 .0309906H.19699097V0C.23799134 .0029907227 .2899933 .0029907227 .33198548 .0029907227 .37399293 .0029907227 .4269867 .0029907227 .46798707 0V.0309906H.44699098C.37298585 .0309906 .37098695 .041992189 .37098695 .07800293V.16503906H.47099305V.19602967H.37098695V.65075686C.37098695 .67074587 .37098695 .6767578 .35499574 .6767578 .34599305 .6767578 .34298707 .6767578 .33499146 .66474917L.027999878 .19602967V.16503906H.2939911M.2999878 .19602967H.055999757L.2999878 .5688019V.19602967Z"/>
<path id="font_3_3" d="M.48599244 .38136292C.48999024 .39537049 .48999024 .39736939 .48999024 .40437318 .48999024 .42237855 .47599793 .43138124 .46099855 .43138124 .45098878 .43138124 .43499757 .42536927 .42599488 .41036988 .42399598 .405365 .41600038 .37435914 .4119873 .35635377 .40499879 .33035279 .397995 .30334474 .3919983 .27633668L.34700013 .09628296C.34298707 .08126831 .2999878 .011245728 .23399353 .011245728 .18299866 .011245728 .17199707 .055267335 .17199707 .0922699 .17199707 .1382904 .18899536 .20030213 .22299195 .28833009 .23899842 .3293457 .24299622 .3403473 .24299622 .36035157 .24299622 .405365 .21099854 .4423828 .16099549 .4423828 .06599426 .4423828 .0289917 .29733277 .0289917 .28833009 .0289917 .27833558 .038986207 .27833558 .040985109 .27833558 .050994874 .27833558 .051986696 .28033448 .056991579 .29634095 .083999637 .3903656 .12399292 .42037965 .1579895 .42037965 .1659851 .42037965 .18299866 .42037965 .18299866 .3883667 .18299866 .36335755 .17298889 .3373413 .1659851 .31834413 .12599182 .21231079 .10798645 .1552887 .10798645 .10827637 .10798645 .019256592 .17098999-.0107421879 .22999573-.0107421879 .2689972-.0107421879 .30299378 .0062561037 .33099366 .03425598 .31799317-.017745972 .30599977-.06674194 .2659912-.11973572 .23999024-.15385437 .20199585-.18309021 .1559906-.18309021 .14199829-.18309021 .09700012-.18005371 .07998657-.14074707 .09599304-.14074707 .10899353-.14074707 .12298584-.1287384 .1329956-.11973572 .14299011-.10673523 .14299011-.08773804 .14299011-.056747438 .115997318-.052734376 .10598755-.052734376 .08299255-.052734376 .049987794-.068740848 .049987794-.11773682 .049987794-.16796875 .09399414-.20507813 .1559906-.20507813 .25898744-.20507813 .3619995-.11373901 .3899994-.00074768069L.48599244 .38136292Z"/>
<path id="font_2_6" d="M.68699648 .32714845C.70199587 .32714845 .72099307 .32714845 .72099307 .34713746 .72099307 .36714173 .70199587 .36714173 .6879883 .36714173H.08898926C.07499695 .36714173 .055999757 .36714173 .055999757 .34713746 .055999757 .32714845 .07499695 .32714845 .08999634 .32714845H.68699648M.6879883 .13284302C.70199587 .13284302 .72099307 .13284302 .72099307 .15284729 .72099307 .17285156 .70199587 .17285156 .68699648 .17285156H.08999634C.07499695 .17285156 .055999757 .17285156 .055999757 .15284729 .055999757 .13284302 .07499695 .13284302 .08898926 .13284302H.6879883Z"/>
<path id="font_2_7" d="M.116989139 .21801758C.116989139 .38093568 .19898987 .42323304 .2519989 .42323304 .26098634 .42323304 .32398988 .42222596 .35899354 .38594056 .31799317 .38293458 .31199647 .3529358 .31199647 .3399353 .31199647 .31393434 .32998658 .2939453 .35798646 .2939453 .38398744 .2939453 .4039917 .3109436 .4039917 .34094239 .4039917 .40911866 .32798768 .4482422 .25099183 .4482422 .12599182 .4482422 .033996583 .3399353 .033996583 .21601868 .033996583 .08816528 .1329956-.0107421879 .24899292-.0107421879 .3829956-.0107421879 .4149933 .10914612 .4149933 .119140628 .4149933 .12911988 .40499879 .12911988 .4019928 .12911988 .3929901 .12911988 .3909912 .12512207 .3889923 .119140628 .3600006 .026229859 .29499818 .014251709 .2579956 .014251709 .20498657 .014251709 .116989139 .0572052 .116989139 .21801758Z"/>
<path id="font_2_9" d="M.47099305 .21424866C.47099305 .34223939 .37098695 .4482422 .25 .4482422 .125 .4482422 .027999878 .3392334 .027999878 .21424866 .027999878 .085250858 .13198853-.0107421879 .24899292-.0107421879 .36999513-.0107421879 .47099305 .087249759 .47099305 .21424866M.25 .014251709C.20698548 .014251709 .16299439 .035247804 .13598633 .08125305 .11099243 .12524414 .11099243 .18624878 .11099243 .22224427 .11099243 .26124574 .11099243 .31523133 .1349945 .35923768 .1619873 .40522767 .20899964 .426239 .24899292 .426239 .29299928 .426239 .33599855 .40423585 .3619995 .36123658 .3880005 .3182373 .3880005 .26023866 .3880005 .22224427 .3880005 .18624878 .3880005 .13224793 .3659973 .08824158 .34399415 .04324341 .2999878 .014251709 .25 .014251709Z"/>
<path id="font_2_10" d="M.20799256 .19424439C.22999573 .19024658 .31199647 .17424011 .31199647 .102249149 .31199647 .051254274 .2769928 .011245728 .19898987 .011245728 .114990238 .011245728 .07899475 .06825256 .05999756 .15324402 .056991579 .1662445 .055999757 .17024231 .04598999 .17024231 .032989503 .17024231 .032989503 .16323853 .032989503 .14524842V.013244629C.032989503-.003753662 .032989503-.0107421879 .04399109-.0107421879 .04899597-.0107421879 .049987794-.009750366 .068984989 .009246826 .070999149 .011245728 .070999149 .013244629 .08898926 .03224182 .1329956-.009750366 .17799378-.0107421879 .19898987-.0107421879 .31399537-.0107421879 .3600006 .056243898 .3600006 .12825012 .3600006 .1812439 .32998658 .21124268 .31799317 .22323609 .2849884 .25523377 .24598694 .26324464 .20399475 .27124024 .147995 .28224183 .08099365 .2952423 .08099365 .35324098 .08099365 .38822938 .10699463 .42922975 .19299317 .42922975 .30299378 .42922975 .30799867 .3392334 .30999757 .3082428 .31098939 .2992401 .31999208 .2992401 .32199098 .2992401 .33499146 .2992401 .33499146 .304245 .33499146 .3232422V.4242401C.33499146 .4412384 .33499146 .4482422 .32398988 .4482422 .31900025 .4482422 .31698609 .4482422 .3039856 .43623353 .30099488 .43223573 .29100038 .42323304 .2869873 .42022706 .24899292 .4482422 .20799256 .4482422 .19299317 .4482422 .070999149 .4482422 .032989503 .38124085 .032989503 .3252411 .032989503 .29023744 .04899597 .26223756 .07598877 .24023438 .10798645 .21424866 .13598633 .2082367 .20799256 .19424439Z"/>
<path id="font_2_1" d="M.33099366-.2400055C.33099366-.23701477 .33099366-.23500061 .31399537-.21800232 .18899536-.0920105 .15699768 .09700012 .15699768 .25 .15699768 .42399598 .19499207 .59799197 .31799317 .72299197 .33099366 .73498538 .33099366 .7369995 .33099366 .73999026 .33099366 .746994 .32699586 .75 .32099916 .75 .31098939 .75 .22099304 .6819916 .1619873 .5549927 .11099243 .44499208 .09899902 .33399964 .09899902 .25 .09899902 .17199707 .10998535 .050994874 .16499329-.06201172 .22499085-.18501282 .31098939-.25 .32099916-.25 .32699586-.25 .33099366-.24700928 .33099366-.2400055Z"/>
<path id="font_3_2" d="M.33399964 .30233766C.33999635 .32835389 .36299134 .42037965 .43299867 .42037965 .43798829 .42037965 .46199037 .42037965 .48298646 .40734864 .45498658 .402359 .43499757 .37734986 .43499757 .35334779 .43499757 .33735658 .44599916 .31835938 .47299195 .31835938 .49499513 .31835938 .5269928 .3363495 .5269928 .37635804 .5269928 .42837525 .46798707 .4423828 .43399049 .4423828 .37599183 .4423828 .34098817 .38935853 .32899476 .36634828 .3039856 .43237306 .25 .4423828 .22099304 .4423828 .116989139 .4423828 .05999756 .3133545 .05999756 .28834535 .05999756 .27833558 .069992069 .27833558 .07199097 .27833558 .07998657 .27833558 .08299255 .28033448 .084991458 .28933717 .11898804 .39535523 .18499756 .42037965 .21899414 .42037965 .23799134 .42037965 .272995 .4113617 .272995 .35334779 .272995 .32235719 .2559967 .25532533 .21899414 .11528015 .20298767 .053268434 .16799927 .011245728 .12399292 .011245728 .117996219 .011245728 .09498596 .011245728 .07398987 .024276734 .09899902 .029266358 .12098694 .05027771 .12098694 .07827759 .12098694 .105270389 .09899902 .11328125 .083999637 .11328125 .053985597 .11328125 .0289917 .08728027 .0289917 .055267335 .0289917 .009246826 .07899475-.0107421879 .12298584-.0107421879 .18899536-.0107421879 .22499085 .059280397 .22799683 .0652771 .23999024 .028274537 .27598573-.0107421879 .33599855-.0107421879 .43899537-.0107421879 .49598695 .118270877 .49598695 .14328003 .49598695 .1532898 .4869995 .1532898 .48399354 .1532898 .47499085 .1532898 .47299195 .14929199 .47099305 .14228821 .43798829 .03527832 .36999513 .011245728 .33799745 .011245728 .29899598 .011245728 .2829895 .043273927 .2829895 .07727051 .2829895 .09927368 .2889862 .121276859 .2999878 .16529846L.33399964 .30233766Z"/>
<path id="font_2_2" d="M.2889862 .25C.2889862 .32798768 .27799989 .44898988 .22299195 .56199648 .16299439 .68499758 .07699585 .75 .066986087 .75 .06098938 .75 .056991579 .74598696 .056991579 .73999026 .056991579 .7369995 .056991579 .73498538 .07598877 .71699526 .17399597 .6179962 .23098755 .45899964 .23098755 .25 .23098755 .07899475 .19400025-.09700012 .069992069-.2230072 .056991579-.23500061 .056991579-.23701477 .056991579-.2400055 .056991579-.2460022 .06098938-.25 .066986087-.25 .07699585-.25 .16699219-.18200684 .22599793-.055007936 .2769928 .054992677 .2889862 .16600037 .2889862 .25Z"/>
<path id="font_2_8" d="M.11199951 .2524414C.117996219 .40126039 .20199585 .426239 .23599243 .426239 .33898927 .426239 .34899903 .2913971 .34899903 .2524414H.11199951M.11099243 .23144531H.3899994C.4119873 .23144531 .4149933 .23144531 .4149933 .2524414 .4149933 .35131837 .36099244 .4482422 .23599243 .4482422 .11999512 .4482422 .027999878 .34532167 .027999878 .22042847 .027999878 .08631897 .1329956-.0107421879 .24798584-.0107421879 .36999513-.0107421879 .4149933 .10032654 .4149933 .11933899 .4149933 .12934876 .40699769 .13134766 .4019928 .13134766 .3929901 .13134766 .3909912 .12535095 .3889923 .11734009 .35398866 .014251709 .2639923 .014251709 .2539978 .014251709 .20399475 .014251709 .1639862 .044281007 .14099121 .08131409 .11099243 .12934876 .11099243 .19540406 .11099243 .23144531Z"/>
<path id="font_4_3" d="M.15499878 .5588074C.20599365 .5458069 .23599243 .5458069 .2519989 .5458069 .38398744 .5458069 .46199037 .6358032 .46199037 .6508026 .46199037 .6618042 .45498658 .6648102 .44999696 .6648102 .44799806 .6648102 .44599916 .6648102 .44198609 .6618042 .41799928 .6528015 .36499024 .6328125 .29100038 .6328125 .2630005 .6328125 .20999146 .6348114 .14498902 .6598053 .1349945 .6648102 .1329956 .6648102 .13198853 .6648102 .11898804 .6648102 .11898804 .6538086 .11898804 .6378021V.34251405C.11898804 .32548524 .11898804 .3134613 .1349945 .3134613 .14399719 .3134613 .14498902 .3154602 .15499878 .32748414 .19799805 .38259889 .25898744 .390625 .2939911 .390625 .35398866 .390625 .3809967 .34251405 .38598634 .33450318 .4039917 .30143739 .4099884 .26335145 .4099884 .20524597 .4099884 .17524719 .4099884 .116256717 .37998963 .07234192 .35499574 .03640747 .31199647 .012466431 .2630005 .012466431 .19799805 .012466431 .1309967 .04838562 .10598755 .11425781 .14399719 .11125183 .16299439 .13624573 .16299439 .16325379 .16299439 .20625305 .12599182 .21424866 .11299133 .21424866 .11099243 .21424866 .06298828 .21424866 .06298828 .1602478 .06298828 .07034302 .14498902-.01953125 .2649994-.01953125 .3929901-.01953125 .5049896 .07533264 .5049896 .20124817 .5049896 .31445313 .4189911 .41862489 .29499818 .41862489 .25099183 .41862489 .19898987 .4076233 .15499878 .36956788V.5588074Z"/>
<path id="font_5_1" d="M.31098939 .36265565H.42999269C.4149933 .30274964 .3929901 .2118988 .3929901 .13302613 .3929901 .09309387 .397995 .06613159 .4039917 .044174196 .41999818-.0057678224 .43299867-.009765625 .44898988-.009765625 .47200013-.009765625 .49598695 .011230469 .49598695 .035186769 .49598695 .043182374 .49398805 .047164918 .48799134 .057159425 .46899415 .09408569 .45098878 .15100098 .45098878 .23286438 .45098878 .25183106 .45098878 .29177857 .46499635 .36265565H.58999636C.60798647 .36265565 .6159973 .36265565 .6269989 .37065126 .6409912 .380661 .6439972 .39665223 .6439972 .4016571 .6439972 .43066407 .6179962 .43066407 .6009979 .43066407H.22399903C.18299866 .43066407 .15499878 .42166139 .10998535 .37965394 .083999637 .35665895 .04499817 .30274964 .04499817 .2937622 .04499817 .28178407 .057998659 .28178407 .06199646 .28178407 .07299805 .28178407 .07398987 .28378297 .07998657 .2927704 .1309967 .36265565 .19299317 .36265565 .21499634 .36265565H.27598573C.24499512 .25283814 .19099427 .13502503 .16099549 .07511902 .15499878 .062149049 .14498902 .04118347 .14199829 .03718567 .14099121 .033187868 .13899231 .029190064 .13899231 .022201539 .13899231 .006225586 .15098572-.009765625 .17399597-.009765625 .21398926-.009765625 .22499085 .035186769 .24899292 .12504578L.31098939 .36265565Z"/>
<path id="font_4_1" d="M.5049896 .18203736H.47099305C.46798707 .16001892 .45799256 .100997928 .44499208 .09098816 .43699647 .084991458 .3600006 .084991458 .34599305 .084991458H.1619873C.2669983 .17803955 .3019867 .20603943 .3619995 .25306703 .43598939 .312088 .5049896 .374115 .5049896 .46914674 .5049896 .5900879 .39898683 .6640625 .2709961 .6640625 .14698792 .6640625 .06298828 .57710269 .06298828 .4851532 .06298828 .43414308 .10598755 .42915345 .115997318 .42915345 .13999939 .42915345 .16899109 .44615174 .16899109 .48214723 .16899109 .5001526 .1619873 .53515627 .10998535 .53515627 .14099121 .6060791 .20899964 .62805178 .2559967 .62805178 .35598756 .62805178 .4079895 .5501404 .4079895 .46914674 .4079895 .38212586 .34599305 .3130951 .31399537 .27708436L.07299805 .038986207C.06298828 .02999878 .06298828 .027999878 .06298828 0H.47499085L.5049896 .18203736Z"/>
<path id="font_4_2" d="M.272995 .33428956C.35099793 .33428956 .40699769 .2803192 .40699769 .1733551 .40699769 .04940796 .33499146 .012466431 .2769928 .012466431 .23699951 .012466431 .14898682 .0234375 .10699463 .082351688 .1539917 .084350589 .16499329 .11735535 .16499329 .13835144 .16499329 .17034912 .14099121 .19335938 .10998535 .19335938 .08198547 .19335938 .053985597 .17634583 .053985597 .13534546 .053985597 .041412355 .1579895-.01953125 .2789917-.01953125 .41799928-.01953125 .5139923 .07336426 .5139923 .1733551 .5139923 .2513275 .44999696 .32929994 .33999635 .35229493 .44499208 .39024354 .48298646 .4650879 .48298646 .5260773 .48298646 .60505679 .3919983 .6640625 .2809906 .6640625 .16999817 .6640625 .084991458 .61006167 .084991458 .5300751 .084991458 .49606324 .10699463 .47706605 .13699341 .47706605 .16799927 .47706605 .18798828 .5000763 .18798828 .5280762 .18798828 .5570679 .16799927 .57806399 .13699341 .5800781 .17199707 .62405398 .24099732 .63505557 .27799989 .63505557 .32299806 .63505557 .38598634 .6130676 .38598634 .5260773 .38598634 .48406983 .37199403 .43814088 .34599305 .4072113 .31298829 .36927796 .2849884 .3672943 .23498535 .36428834 .20999146 .3623047 .20799256 .3623047 .20298767 .3612976 .20098877 .3612976 .19299317 .3592987 .19299317 .34829713 .19299317 .33428956 .20199585 .33428956 .21899414 .33428956H.272995Z"/>
</defs>
<path transform="matrix(1.00006,0,0,-1,15.323013,177.16699)" stroke-width=".19925" stroke-linecap="butt" stroke-miterlimit="10" stroke-linejoin="miter" fill="none" stroke="#7f807f" d="M20.26677 78.57344V82.82533M51.01459 78.57344V82.82533M112.51025 78.57344V82.82533M143.25809 78.57344V82.82533M174.0059 78.57344V82.82533"/>
<path transform="matrix(1.00006,0,0,-1,15.323013,177.16699)" stroke-width=".19925" stroke-linecap="butt" stroke-miterlimit="10" stroke-linejoin="miter" fill="none" stroke="#7f807f" d="M79.63657 19.79419H83.88829M79.63657 50.24678H83.88829M79.63657 111.152H83.88829M79.63657 141.6046H83.88829"/>
<path transform="matrix(1.00006,0,0,-1,15.323013,177.16699)" stroke-width=".3985" stroke-linecap="butt" stroke-miterlimit="10" stroke-linejoin="miter" fill="none" stroke="#000000" d="M0 80.69939H192.28025"/>
<path transform="matrix(1.00006,0,0,-1,207.61479,96.467609)" d="M1.99252 0-1.19551 1.59401 0 0-1.19551-1.59401"/>
<path transform="matrix(1.00006,0,0,-1,15.323013,177.16699)" stroke-width=".3985" stroke-linecap="butt" stroke-miterlimit="10" stroke-linejoin="miter" fill="none" stroke="#000000" d="M81.76242 0V159.40627"/>
<path transform="matrix(0,-1,-1.00006,-0,97.09034,17.760727)" d="M1.99252 0-1.19551 1.59401 0 0-1.19551-1.59401"/>
<use data-text="&#x2212;" xlink:href="#font_1_1" transform="matrix(9.963197,0,0,-9.9626,26.206665,108.53399)"/>
<use data-text="2" xlink:href="#font_2_3" transform="matrix(9.963197,0,0,-9.9626,33.95613,108.53399)"/>
<use data-text="&#x03c0;" xlink:href="#font_3_1" transform="matrix(9.963197,0,0,-9.9626,38.93743,108.53399)"/>
<use data-text="&#x2212;" xlink:href="#font_1_1" transform="matrix(9.963197,0,0,-9.9626,59.447664,107.924999)"/>
<use data-text="&#x03c0;" xlink:href="#font_3_1" transform="matrix(9.963197,0,0,-9.9626,67.19713,107.924999)"/>
<use data-text="&#x03c0;" xlink:href="#font_3_1" transform="matrix(9.963197,0,0,-9.9626,124.82158,106.40299)"/>
<use data-text="2" xlink:href="#font_2_3" transform="matrix(9.963197,0,0,-9.9626,153.08026,108.53399)"/>
<use data-text="&#x03c0;" xlink:href="#font_3_1" transform="matrix(9.963197,0,0,-9.9626,158.06157,108.53399)"/>
<use data-text="3" xlink:href="#font_2_4" transform="matrix(9.963197,0,0,-9.9626,183.83011,108.53399)"/>
<use data-text="&#x03c0;" xlink:href="#font_3_1" transform="matrix(9.963197,0,0,-9.9626,188.81142,108.53399)"/>
<use data-text="&#x2212;" xlink:href="#font_1_1" transform="matrix(9.963197,0,0,-9.9626,78.712818,160.168)"/>
<use data-text="4" xlink:href="#font_2_5" transform="matrix(9.963197,0,0,-9.9626,86.46228,160.168)"/>
<use data-text="&#x2212;" xlink:href="#font_1_1" transform="matrix(9.963197,0,0,-9.9626,78.712818,129.715)"/>
<use data-text="2" xlink:href="#font_2_3" transform="matrix(9.963197,0,0,-9.9626,86.46228,129.715)"/>
<use data-text="2" xlink:href="#font_2_3" transform="matrix(9.963197,0,0,-9.9626,86.46228,69.22499)"/>
<use data-text="4" xlink:href="#font_2_5" transform="matrix(9.963197,0,0,-9.9626,86.46228,38.772996)"/>
<path transform="matrix(1.00006,0,0,-1,15.323013,177.16699)" stroke-width=".99628" stroke-linecap="butt" stroke-miterlimit="10" stroke-linejoin="miter" fill="none" stroke="#ff0000" d="M4.51062 80.09662 3.88214 79.13017 4.82889 80.59996 5.77565 82.07066 6.72238 83.52873 7.66913 84.96046 8.61588 86.35216 9.56262 87.6913 10.50938 88.96513 11.45613 90.16116 12.40288 91.26918 13.34961 92.27777 14.29637 93.17932 15.24312 93.96301 16.18985 94.62323 17.13661 95.15294 18.08336 95.54762 19.03012 95.80373 19.97685 95.91823 20.9236 95.89082 21.87035 95.72104 22.8171 95.41133 23.76384 94.96338 24.7106 94.3828 25.65735 93.67342 26.6041 92.84358 27.55084 91.89908 28.49759 90.85075 29.44432 89.70741 30.39107 88.48003 31.33783 87.17938 32.28459 85.81847 33.23132 84.40958 34.17807 82.96597 35.12482 81.50136 36.07156 80.02942 37.01831 78.56328 37.96506 77.11769 38.91182 75.70485 39.85857 74.3392 40.80531 73.03279 41.75206 71.79808 42.69879 70.64667 43.64555 69.58905 44.5923 68.6359 45.53905 67.79463 46.4858 67.07504 47.43254 66.48183 48.3793 66.0223 49.32603 65.69934 50.27278 65.51768 51.21953 65.47704 52.16628 65.57906 53.11302 65.82222 54.05978 66.2047 55.00653 66.72285 55.95326 67.37119 56.90002 68.14468 57.84677 69.03497 58.79352 70.03488 59.74025 71.13422 60.68701 72.32324 61.63377 73.59038 62.5805 74.92406 63.52725 76.31146 64.474 77.74016 65.42076 79.19655 66.3675 80.6668 67.31424 82.13705 68.261 83.59451 69.20773 85.02426 70.1545 86.41443 71.10124 87.75053 72.04799 89.02116 72.99472 90.21323 73.94147 91.31714 74.88823 92.32147 75.83498 93.21693 76.78172 93.99591 77.72847 94.64987 78.67523 95.17427 79.62196 95.56207 80.56871 95.81226 81.51546 95.92006 82.46222 95.8861 83.40897 95.71008 84.35571 95.39368 85.30246 94.93994 86.24919 94.3528 87.19595 93.63838 88.1427 92.80261 89.08943 91.85402 90.0362 90.80112 90.98294 89.65382 91.9297 88.42247 92.87643 87.1191 93.82318 85.75543 94.76993 84.3447 95.71667 82.89989 96.66342 81.43451 97.61018 79.96259 98.55698 78.49736 99.50363 77.05267 100.45044 75.64197 101.39711 74.27846 102.3439 72.97508 103.29071 71.74373 104.2374 70.59674 105.18419 69.54352 106.13084 68.59525 107.07765 67.75946 108.02446 67.04535 108.97112 66.45837 109.91792 66.00462 110.86458 65.68839 111.8114 65.51237 112.7582 65.47887 113.70486 65.58652 114.65167 65.83699 115.59831 66.22496 116.54512 66.74951 117.49193 67.40378 118.4386 68.1823 119.3854 69.0785 120.33206 70.08253 121.27888 71.18645 122.22568 72.37897 123.17233 73.64946 124.11914 74.98587 125.06581 76.37541 126.01262 77.80562 126.95943 79.2634 127.90608 80.73334 128.85288 82.2036 129.79955 83.65984 130.74636 85.08867 131.69315 86.47624 132.6398 87.80946 133.58663 89.0769 134.5333 90.26561 135.48009 91.36464 136.4269 92.3647 137.37355 93.25499 138.32035 94.02818 139.26702 94.67636 140.21382 95.19482 141.16065 95.5767 142.10729 95.82 143.0541 95.92172 144.00077 95.88107 144.94757 95.69913 145.89437 95.37572 146.84102 94.91647 147.78786 94.32297 148.7345 93.60321 149.6813 92.76196 150.62812 91.8085 151.57479 90.75089 152.52158 89.59917 153.46823 88.36476 154.41504 87.05835 155.36185 85.69254 156.30852 84.27985 157.25533 82.83366 158.20198 81.36783 159.14878 79.89604 160.09558 78.43112 161.04225 76.98813 161.98905 75.57892 162.93572 74.21817 163.88253 72.91753 164.82932 71.69014 165.77599 70.5468 166.7228 69.49846 167.66945 68.55428 168.61624 67.7246 169.56305 67.01537 170.50974 66.43494 171.45653 65.98698 172.40319 65.67757 173.35 65.50795 174.29682 65.48055 175.24346 65.59534 176.19026 65.8513 177.13695 66.24628 178.08374 66.7763 179.03055 67.43651 179.9772 68.2205 180.92401 69.12192 181.87067 70.13051 182.81748 71.23897 183.76428 72.435 184.71096 73.70868 185.65775 75.04784 186.60442 76.43953 187.55123 77.8717 188.49802 79.32948 189.44467 80.80019 190.39148 82.27013 189.76276 81.30344"/>
<path transform="matrix(-.54524269,.83827,.83832028,.54521,19.833905,97.070369)" d="M2.8892 0-1.73352 2.31136 0 0-1.73352-2.31136" fill="#ff0000"/>
<path transform="matrix(.54530277,-.83824,-.8382903,-.54527,205.09716,95.863559)" d="M2.8892 0-1.73352 2.31136 0 0-1.73352-2.31136" fill="#ff0000"/>
<use data-text="y" xlink:href="#font_3_3" transform="matrix(9.963197,0,0,-9.9626,173.6045,85.68099)" fill="#ff0000"/>
<use data-text="=" xlink:href="#font_2_6" transform="matrix(9.963197,0,0,-9.9626,181.61399,85.68099)" fill="#ff0000"/>
<use data-text="c" xlink:href="#font_2_7" transform="matrix(9.963197,0,0,-9.9626,192.1152,85.68099)" fill="#ff0000"/>
<use data-text="o" xlink:href="#font_2_9" transform="matrix(9.963197,0,0,-9.9626,196.53888,85.68099)" fill="#ff0000"/>
<use data-text="s" xlink:href="#font_2_10" transform="matrix(9.963197,0,0,-9.9626,201.52045,85.68099)" fill="#ff0000"/>
<use data-text="(" xlink:href="#font_2_1" transform="matrix(9.963197,0,0,-9.9626,205.44596,85.68099)" fill="#ff0000"/>
<use data-text="x" xlink:href="#font_3_2" transform="matrix(9.963197,0,0,-9.9626,209.34467,85.68099)" fill="#ff0000"/>
<use data-text=")" xlink:href="#font_2_2" transform="matrix(9.963197,0,0,-9.9626,215.039,85.68099)" fill="#ff0000"/>
<path transform="matrix(1.00006,0,0,-1,15.323013,177.16699)" stroke-width=".99628" stroke-linecap="butt" stroke-miterlimit="10" stroke-linejoin="miter" fill="none" stroke="#0000ff" d="M6.93114 154.4287 6.98598 152.45334 7.1208 148.17626 7.25565 144.39557 7.39046 141.026 7.5253 138.0066 7.66013 135.28112 7.79497 132.8114 7.9298 130.57009 8.06464 128.52063 8.19946 126.63866 8.3343 124.91046 8.46913 123.31476 8.60397 121.83627 8.7388 120.46744 8.87364 119.19147 9.00847 118.00078 9.14331 116.88773 9.27814 115.8493 9.41298 114.8733 9.5478 113.95363 9.68265 113.09181 9.81747 112.2757 9.95232 111.5098 10.08714 110.78503 10.22198 110.09375 10.35681 109.44359 10.49165 108.82845 10.62648 108.24072 10.76132 107.68344 10.89615 107.15355 11.03099 106.64653 11.16582 106.16537 11.30066 105.70554 11.43549 105.26854 11.57033 104.8483 11.70515 104.44937 11.84 104.06567 11.97482 103.6987 12.10966 103.34698 12.24449 103.01048 12.37933 102.68768 12.51416 102.38164 12.649 102.0832 12.78383 101.79848 12.91867 101.52287 13.0535 101.26402 13.18834 101.00975 13.32315 100.76764 13.458 100.53621 13.59283 100.31085 13.72768 100.09769 13.8625 99.89061 13.99734 99.69115 14.13217 99.4993 14.26701 99.31659 14.40184 99.13995 14.53668 98.9679 14.67151 98.80498 14.80635 98.64662 14.94118 98.4959 15.07602 98.35277 15.21085 98.20964 15.34569 98.07869 15.48051 97.94774 15.61536 97.8244 15.75018 97.70412 15.88503 97.58992 16.01985 97.48029 16.1547 97.37675 16.28952 97.27625 16.42436 97.18187 16.55919 97.08897 16.69403 97.00066 16.82886 96.9154 16.9637 96.83774 17.09853 96.76009 17.23337 96.68852 17.3682 96.61847 17.50304 96.55453 17.63786 96.49362 17.7727 96.43576 17.90753 96.37943 18.04237 96.32918 18.1772 96.28046 18.31204 96.2363 18.44687 96.19368 18.58171 96.15408 18.71654 96.11906 18.85138 96.08708 18.9862 96.05663 19.12105 96.03227 19.25587 96.0079 19.3907 95.98659 19.52553 95.97136 19.66037 95.95615 19.7952 95.94243 19.93004 95.93636 20.06487 95.92873 20.19972 95.92569H20.33455L20.46939 95.92873 20.60422 95.93636 20.73906 95.94243 20.87389 95.95615 21.00873 95.97136 21.14357 95.98659 21.27838 96.0079 21.41322 96.03227 21.54805 96.05663 21.68289 96.08708 21.81773 96.11906 21.95256 96.15408 22.0874 96.19368 22.22221 96.2363 22.35707 96.28046 22.49191 96.32918 22.62672 96.37943 22.76157 96.43576 22.8964 96.49362 23.03123 96.55453 23.16608 96.61847 23.3009 96.68852 23.43575 96.76009 23.57056 96.83774 23.70541 96.9154 23.84026 97.00066 23.97507 97.08897 24.10991 97.18187 24.24474 97.27625 24.37958 97.37675 24.51442 97.48029 24.64925 97.59297 24.78409 97.70717 24.91891 97.8244 25.05376 97.94774 25.1886 98.07869 25.3234 98.21268 25.45824 98.35277 25.59306 98.49893 25.7279 98.64662 25.86275 98.80498 25.99757 98.97095 26.13242 99.13995 26.26724 99.31659 26.40208 99.4993 26.53693 99.69267 26.67175 99.89214 26.8066 100.09769 26.94142 100.31238 27.07626 100.53925 27.2111 100.7707 27.34593 101.01128 27.48077 101.26555 27.61559 101.52592 27.75044 101.79999 27.88528 102.0832 28.0201 102.38164 28.15494 102.68921 28.28976 103.01048 28.4246 103.35004 28.55945 103.70023 28.69427 104.06718 28.82912 104.44937 28.96393 104.85133 29.09879 105.27159 29.23363 105.70859 29.36844 106.16843 29.50328 106.64957 29.6381 107.15509 29.77295 107.68495 29.90779 108.24529 30.04262 108.82999 30.17746 109.44815 30.31229 110.09833 30.44713 110.78656 30.58197 111.51437 30.71678 112.28026 30.85162 113.09335 30.98645 113.95972 31.12129 114.87787 31.25613 115.85388 31.39095 116.89534 31.52579 118.00536 31.66061 119.19757 31.79546 120.47505 31.9303 121.84541 32.06511 123.32085 32.19995 124.9196 32.33478 126.6478 32.46962 128.52977 32.60446 130.58075 32.73929 132.82663 32.87413 135.29329 33.00894 138.0188 33.1438 141.04122 33.27864 144.41233 33.41347 148.19454 33.54831 152.47159 33.60323 154.45153"/>
<path transform="matrix(-.027701661,-.99956,-.99961999,.0277,22.25457,22.738312)" d="M2.8892 0-1.73352 2.31136 0 0-1.73352-2.31136" fill="#0000ff"/>
<path transform="matrix(.027661657,-.99956,-.99961999,-.02766,48.928239,22.715485)" d="M2.8892 0-1.73352 2.31136 0 0-1.73352-2.31136" fill="#0000ff"/>
<path transform="matrix(1.00006,0,0,-1,15.323013,177.16699)" stroke-width=".99628" stroke-linecap="butt" stroke-miterlimit="10" stroke-linejoin="miter" fill="none" stroke="#0000ff" d="M37.67789 6.93506 37.73297 8.92717 37.86781 13.19968 38.00267 16.9834 38.1375 20.35449 38.27234 23.37845 38.40718 26.1009 38.54202 28.57214 38.67686 30.81802 38.81169 32.86899 38.94653 34.74792 39.08138 36.47916 39.21622 38.07793 39.35106 39.55334 39.4859 40.92372 39.62074 42.2012 39.75557 43.39342 39.89041 44.50342 40.02525 45.54489 40.1601 46.5209 40.29494 47.44058 40.42978 48.30544 40.5646 49.11852 40.69945 49.88438 40.83429 50.61221 40.96913 51.30043 41.10397 51.9506 41.2388 52.5688 41.37364 53.155 41.50848 53.7138 41.64333 54.2437 41.77817 54.7492 41.91301 55.23035 42.04782 55.69019 42.18266 56.13023 42.3175 56.54742 42.45235 56.9494 42.58719 57.33157 42.72203 57.69853 42.85686 58.04874 42.9917 58.38829 43.12654 58.70956 43.26138 59.01714 43.39622 59.31555 43.53107 59.59877 43.6659 59.87285 43.80074 60.13475 43.93558 60.3875 44.07042 60.63112 44.20526 60.86256 44.3401 61.0864 44.47493 61.30107 44.60977 61.50815 44.74461 61.7061 44.87946 61.89948 45.0143 62.08218 45.14914 62.25882 45.28397 62.42783 45.41881 62.5938 45.55365 62.75215 45.68849 62.90288 45.82333 63.046 45.95816 63.18608 46.093 63.32008 46.22784 63.45103 46.36269 63.57436 46.49753 63.6916 46.63237 63.8058 46.7672 63.91847 46.90204 64.02202 47.03688 64.12251 47.17174 64.21692 47.30658 64.30978 47.44142 64.39812 47.57626 64.48338 47.71107 64.56104 47.84592 64.63869 47.98076 64.71024 48.1156 64.78029 48.25044 64.84271 48.38527 64.90514 48.52011 64.963 48.65495 65.01933 48.7898 65.06958 48.92464 65.1183 49.05948 65.16246 49.19432 65.2051 49.32915 65.24469 49.46399 65.27971 49.59883 65.31169 49.73367 65.34213 49.86852 65.36649 50.00336 65.39087 50.13818 65.41217 50.27303 65.42741 50.40787 65.44263 50.54271 65.45633 50.67755 65.46242 50.81238 65.47003 50.94722 65.47308H51.08206L51.2169 65.47003 51.35173 65.46242 51.48659 65.45633 51.62141 65.44263 51.75626 65.42741 51.89111 65.41217 52.02594 65.39087 52.16078 65.36649 52.29561 65.34213 52.43045 65.31169 52.5653 65.27971 52.70013 65.24469 52.83498 65.2051 52.9698 65.16246 53.10466 65.1183 53.2395 65.06958 53.37431 65.01933 53.50916 64.963 53.64398 64.90514 53.77884 64.84271 53.91368 64.78029 54.04851 64.71024 54.18335 64.63869 54.31818 64.56104 54.45303 64.48338 54.58788 64.39812 54.7227 64.30978 54.85756 64.21692 54.99239 64.12251 55.12723 64.02202 55.26207 63.91847 55.3969 63.8058 55.53175 63.6916 55.66658 63.57436 55.80142 63.45103 55.93628 63.32008 56.07109 63.18608 56.20595 63.046 56.34079 62.89984 56.47563 62.75215 56.61049 62.5938 56.74532 62.42783 56.88016 62.25882 57.01498 62.08218 57.14983 61.89948 57.28468 61.7061 57.41951 61.50815 57.55435 61.30107 57.68918 61.0864 57.82404 60.86256 57.95888 60.62807 58.0937 60.3875 58.22855 60.13475 58.36337 59.87285 58.49823 59.59877 58.63307 59.31252 58.7679 59.01714 58.90274 58.70956 59.03757 58.38829 59.17241 58.04874 59.30725 57.69853 59.44208 57.33157 59.57693 56.9494 59.71176 56.54742 59.8466 56.13023 59.98145 55.69019 60.11627 55.23035 60.25113 54.7492 60.38596 54.2437 60.5208 53.7138 60.65564 53.155 60.79048 52.5688 60.92532 51.9506 61.06015 51.30043 61.19499 50.61221 61.32985 49.88438 61.46468 49.11852 61.59952 48.30238 61.73434 47.44058 61.86919 46.5209 62.00404 45.54489 62.13887 44.50342 62.27371 43.39342 62.40854 42.2012 62.5434 40.92372 62.67824 39.55031 62.81306 38.07487 62.9479 36.47916 63.08273 34.74792 63.21759 32.86899 63.35243 30.81802 63.48726 28.57214 63.62212 26.1009 63.75693 23.37845 63.89178 20.35449 64.02663 16.97884 64.16145 13.19968 64.29631 8.91498 64.35121 6.93506"/>
<path transform="matrix(-.027601654,.99956,.99961999,.0276,53.003164,170.23192)" d="M2.8892 0-1.73352 2.31136 0 0-1.73352-2.31136" fill="#0000ff"/>
<path transform="matrix(.027661657,.99956,.99961999,-.02766,79.67807,170.23192)" d="M2.8892 0-1.73352 2.31136 0 0-1.73352-2.31136" fill="#0000ff"/>
<path transform="matrix(1.00006,0,0,-1,15.323013,177.16699)" stroke-width=".99628" stroke-linecap="butt" stroke-miterlimit="10" stroke-linejoin="miter" fill="none" stroke="#0000ff" d="M68.42586 154.45915 68.48088 152.47159 68.6157 148.19454 68.75055 144.41536 68.88539 141.04122 69.02023 138.02033 69.15508 135.29785 69.2899 132.82663 69.42474 130.58075 69.55959 128.52977 69.69441 126.6478 69.82924 124.9196 69.96408 123.32085 70.0989 121.84541 70.23375 120.47353 70.36858 119.19757 70.50342 118.00536 70.63826 116.89534 70.77309 115.85692 70.90793 114.87787 71.04277 113.95819 71.1776 113.09335 71.31244 112.28026 71.44727 111.51437 71.5821 110.78656 71.71695 110.09833 71.85178 109.44815 71.98662 108.82999 72.12146 108.24376 72.25629 107.68495 72.39113 107.15509 72.52597 106.64957 72.6608 106.16843 72.79564 105.70859 72.93048 105.26854 73.0653 104.85133 73.20015 104.44937 73.33498 104.06718 73.46982 103.70023 73.60466 103.35004 73.73949 103.01352 73.87433 102.68921 74.00917 102.38164 74.144 102.0832 74.27884 101.79999 74.41367 101.52592 74.54851 101.26402 74.68335 101.01128 74.81818 100.7707 74.95302 100.53621 75.08786 100.31238 75.22269 100.09769 75.35753 99.89061 75.49236 99.69267 75.6272 99.4993 75.76202 99.31659 75.89685 99.13995 76.0317 98.97095 76.16653 98.80498 76.30136 98.64662 76.4362 98.4959 76.57106 98.35277 76.70589 98.21268 76.84073 98.07869 76.97556 97.94774 77.1104 97.8244 77.24524 97.70717 77.38007 97.59297 77.51491 97.48029 77.64973 97.37675 77.78458 97.27625 77.91942 97.18187 78.05424 97.08897 78.18909 97.00066 78.32393 96.9154 78.45876 96.83774 78.5936 96.76009 78.72844 96.68852 78.86327 96.61847 78.99811 96.55606 79.13293 96.49362 79.26778 96.43576 79.40262 96.37943 79.53745 96.32918 79.67229 96.28046 79.80713 96.2363 79.94196 96.19368 80.0768 96.15408 80.21162 96.11906 80.34647 96.08708 80.48131 96.05663 80.61613 96.03227 80.75098 96.0079 80.88582 95.98659 81.02065 95.97136 81.15549 95.95615 81.29033 95.94243 81.42516 95.93636 81.55998 95.92873 81.69481 95.92569H81.82965L81.9645 95.92873 82.09932 95.93636 82.23416 95.94243 82.36899 95.95615 82.50383 95.97136 82.63867 95.98659 82.7735 96.0079 82.90834 96.03227 83.04317 96.05663 83.17801 96.08708 83.31287 96.11906 83.44768 96.15408 83.58252 96.19368 83.71735 96.2363 83.85219 96.28046 83.98705 96.32918 84.12187 96.37943 84.25673 96.43576 84.39154 96.49362 84.5264 96.55453 84.66124 96.61847 84.79607 96.68852 84.93091 96.76009 85.06573 96.83774 85.20058 96.9154 85.33542 97.00066 85.47025 97.08897 85.60509 97.18187 85.73991 97.27625 85.87476 97.37675 86.0096 97.48029 86.14442 97.58992 86.27927 97.70717 86.4141 97.8244 86.54893 97.94774 86.68378 98.07869 86.8186 98.20964 86.95345 98.35277 87.08827 98.4959 87.22311 98.64662 87.35796 98.80498 87.49277 98.97095 87.62761 99.13995 87.76244 99.31659 87.89728 99.4993 88.03214 99.69267 88.16695 99.89061 88.3018 100.09769 88.43661 100.31238 88.57147 100.53621 88.70631 100.76764 88.84113 101.01128 88.97598 101.26402 89.1108 101.52592 89.24565 101.79848 89.3805 102.0832 89.51532 102.38164 89.65016 102.68921 89.78499 103.01048 89.91983 103.34698 90.05467 103.6987 90.1895 104.06567 90.32434 104.44937 90.45917 104.8483 90.59401 105.26854 90.72885 105.70859 90.86368 106.16537 90.99852 106.64653 91.13335 107.15355 91.26819 107.68495 91.40303 108.24376 91.53787 108.82845 91.67271 109.44664 91.80754 110.0968 91.94238 110.78503 92.07724 111.51132 92.21205 112.27873 92.3469 113.09335 92.48172 113.95819 92.61656 114.8733 92.75142 115.85234 92.88623 116.8923 93.02109 118.00383 93.1559 119.19147 93.29074 120.47049 93.42558 121.84085 93.56041 123.31781 93.69525 124.91199 93.83008 126.64322 93.96492 128.52519 94.09976 130.57465 94.23459 132.81902 94.36943 135.28568 94.50426 138.01119 94.6391 141.03208 94.77394 144.40624 94.90877 148.1854 95.04361 152.46247 95.09843 154.44087"/>
<path transform="matrix(-.027631656,-.99956,-.99961999,.02763,83.75299,22.707856)" d="M2.8892 0-1.73352 2.31136 0 0-1.73352-2.31136" fill="#0000ff"/>
<path transform="matrix(.027701661,-.99956,-.99961999,-.0277,110.42714,22.726136)" d="M2.8892 0-1.73352 2.31136 0 0-1.73352-2.31136" fill="#0000ff"/>
<path transform="matrix(1.00006,0,0,-1,15.323013,177.16699)" stroke-width=".99628" stroke-linecap="butt" stroke-miterlimit="10" stroke-linejoin="miter" fill="none" stroke="#0000ff" d="M99.17358 6.93506 99.22859 8.92259 99.36343 13.19968 99.49826 16.97884 99.6331 20.34995 99.76794 23.37845 99.90279 26.1009 100.03763 28.57214 100.17247 30.81802 100.3073 32.86899 100.44214 34.74792 100.57698 36.47916 100.71182 38.07487 100.84666 39.55031 100.98149 40.92372 101.11633 42.2012 101.25117 43.39342 101.38602 44.50342 101.52086 45.54489 101.6557 46.5209 101.79054 47.44058 101.92537 48.30238 102.06021 49.11852 102.19505 49.88438 102.3299 50.61221 102.46474 51.30043 102.59956 51.9506 102.7344 52.5688 102.86925 53.15349 103.00409 53.7138 103.13893 54.2437 103.27377 54.7492 103.4086 55.23035 103.54343 55.69019 103.67827 56.13023 103.81311 56.54742 103.94795 56.9494 104.0828 57.33157 104.21762 57.69853 104.35246 58.04874 104.4873 58.38829 104.62215 58.70956 104.75699 59.01714 104.89183 59.31555 105.02666 59.59877 105.1615 59.87285 105.29634 60.13475 105.43118 60.3875 105.56602 60.63112 105.70085 60.85951 105.8357 61.0864 105.97054 61.30107 106.10538 61.50815 106.24022 61.7061 106.37506 61.89948 106.50989 62.08218 106.64473 62.25882 106.77957 62.42783 106.91441 62.5938 107.04926 62.75215 107.1841 62.90288 107.31894 63.046 107.45377 63.18608 107.58861 63.32008 107.72346 63.45103 107.8583 63.57436 107.99315 63.6916 108.12798 63.8058 108.26282 63.91847 108.39766 64.02202 108.5325 64.12251 108.66734 64.21692 108.80219 64.30978 108.93703 64.39812 109.07185 64.48338 109.20668 64.56104 109.34152 64.63869 109.47636 64.71024 109.6112 64.78029 109.74605 64.84271 109.88087 64.90514 110.01572 64.963 110.15056 65.01933 110.2854 65.06958 110.42024 65.1183 110.55507 65.16246 110.68991 65.2051 110.82475 65.24469 110.9596 65.27971 111.09444 65.31169 111.22928 65.34213 111.3641 65.36649 111.49895 65.39087 111.63379 65.41217 111.76863 65.42741 111.90347 65.44263 112.03831 65.45633 112.17314 65.46242 112.30798 65.47003 112.44283 65.47308H112.57767L112.71251 65.47003 112.84734 65.46242 112.9822 65.45633 113.11702 65.44263 113.25186 65.42741 113.3867 65.41217 113.52153 65.39087 113.65639 65.36649 113.79121 65.34213 113.92606 65.31169 114.0609 65.27971 114.19572 65.24469 114.33058 65.2051 114.46541 65.16246 114.60025 65.1183 114.7351 65.06958 114.86992 65.01933 115.00476 64.963 115.13959 64.90514 115.27444 64.84271 115.40929 64.78029 115.54411 64.71024 115.67896 64.63869 115.81378 64.56104 115.94864 64.48338 116.08348 64.39812 116.2183 64.30978 116.35315 64.21692 116.48798 64.12251 116.62283 64.02202 116.75768 63.91847 116.89252 63.8058 117.02736 63.6916 117.1622 63.57436 117.29704 63.45103 117.43188 63.32008 117.56671 63.18608 117.70157 63.046 117.8364 62.89984 117.97124 62.75215 118.10608 62.5938 118.2409 62.42783 118.37576 62.25882 118.51059 62.08218 118.64543 61.89948 118.78029 61.7061 118.91512 61.50815 119.04996 61.30107 119.18478 61.0864 119.31963 60.86256 119.45448 60.62807 119.58931 60.3875 119.72415 60.13475 119.85898 59.87285 119.99384 59.59877 120.12868 59.31555 120.2635 59.01714 120.39835 58.70956 120.53316 58.38829 120.66801 58.04874 120.80286 57.69853 120.93768 57.33157 121.07253 56.9494 121.20735 56.54742 121.34221 56.13023 121.47705 55.69019 121.61188 55.23035 121.74673 54.7492 121.88156 54.2437 122.0164 53.7138 122.15125 53.15349 122.28607 52.5688 122.42093 51.9506 122.55576 51.30043 122.6906 50.61221 122.82545 49.88438 122.96028 49.11548 123.09512 48.30544 123.22995 47.44058 123.36479 46.5209 123.49965 45.54185 123.63448 44.50342 123.76932 43.39342 123.90414 42.2012 124.03899 40.92523 124.17384 39.55031 124.30867 38.07487 124.44351 36.47916 124.57834 34.74792 124.7132 32.86899 124.84804 30.81802 124.98286 28.57214 125.1177 26.1009 125.25253 23.37845 125.38739 20.35449 125.52223 16.97884 125.65706 13.19968 125.79192 8.92259 125.8468 6.93962"/>
<path transform="matrix(-.027631656,.99956,.99961999,.02763,114.502559,170.23192)" d="M2.8892 0-1.73352 2.31136 0 0-1.73352-2.31136" fill="#0000ff"/>
<path transform="matrix(.027661657,.99956,.99961999,-.02766,141.17734,170.22736)" d="M2.8892 0-1.73352 2.31136 0 0-1.73352-2.31136" fill="#0000ff"/>
<path transform="matrix(1.00006,0,0,-1,15.323013,177.16699)" stroke-width=".99628" stroke-linecap="butt" stroke-miterlimit="10" stroke-linejoin="miter" fill="none" stroke="#0000ff" d="M129.92148 154.45915 129.97649 152.47159 130.11133 148.1991 130.24616 144.41536 130.381 141.04427 130.51583 138.02033 130.65067 135.29329 130.78549 132.82663 130.92034 130.58075 131.05516 128.52977 131.19 126.65083 131.32482 124.92265 131.45966 123.32085 131.59449 121.84846 131.72933 120.47505 131.86415 119.19757 131.999 118.00536 132.13382 116.89534 132.26866 115.85692 132.40349 114.87787 132.53833 113.95819 132.67316 113.09639 132.808 112.28026 132.94283 111.51437 133.07767 110.78656 133.2125 110.10136 133.34734 109.44815 133.48217 108.82999 133.617 108.24529 133.75183 107.688 133.88668 107.15509 134.0215 106.64957 134.15634 106.16843 134.29117 105.70859 134.42601 105.27159 134.56084 104.85133 134.69568 104.45088 134.8305 104.06718 134.96535 103.70023 135.10018 103.35004 135.23502 103.01352 135.36985 102.68921 135.50469 102.38164 135.63951 102.08624 135.77436 101.79999 135.90918 101.52592 136.04402 101.26555 136.17885 101.01128 136.31369 100.7707 136.44853 100.53925 136.58338 100.31238 136.7182 100.09921 136.85305 99.89214 136.98787 99.69267 137.12271 99.4993 137.25754 99.31659 137.39237 99.13995 137.52719 98.97095 137.66204 98.80801 137.79686 98.64967 137.9317 98.49893 138.06653 98.35277 138.20137 98.21268 138.3362 98.07869 138.47104 97.94774 138.60587 97.8244 138.7407 97.70717 138.87554 97.59297 139.01038 97.48029 139.1452 97.37675 139.28005 97.27625 139.41487 97.18187 139.54972 97.08897 139.68454 97.00066 139.81938 96.9154 139.95421 96.83774 140.08905 96.76009 140.22388 96.68852 140.35872 96.61847 140.49355 96.55453 140.62839 96.49362 140.76322 96.43576 140.89806 96.37943 141.03289 96.32918 141.16773 96.28046 141.30255 96.2363 141.4374 96.19368 141.57222 96.15408 141.70706 96.11906 141.84189 96.08708 141.97673 96.05663 142.11156 96.03227 142.2464 96.0079 142.38123 95.98659 142.51607 95.97136 142.6509 95.95615 142.78574 95.94243 142.92057 95.93636 143.05542 95.92873 143.19025 95.92569H143.32508L143.45992 95.92873 143.59474 95.93636 143.72959 95.94243 143.8644 95.95615 143.99924 95.97136 144.13408 95.98659 144.2689 96.0079 144.40375 96.03227 144.53858 96.05663 144.67342 96.08708 144.80826 96.11906 144.94309 96.15408 145.07793 96.19368 145.21274 96.2363 145.34758 96.28046 145.48242 96.32918 145.61725 96.37943 145.75209 96.43576 145.88692 96.49362 146.02176 96.55453 146.1566 96.61847 146.29143 96.68852 146.42627 96.76009 146.56108 96.83774 146.69593 96.9154 146.83077 97.00066 146.96559 97.08897 147.10044 97.18187 147.23526 97.27625 147.3701 97.37675 147.50495 97.48029 147.63977 97.58992 147.77462 97.70717 147.90943 97.8244 148.04427 97.94774 148.17911 98.07869 148.31394 98.20964 148.44878 98.35277 148.5836 98.4959 148.71845 98.64662 148.85329 98.80498 148.98812 98.9679 149.12296 99.13995 149.25777 99.31659 149.3926 99.4993 149.52744 99.69115 149.66228 99.89061 149.79712 100.09769 149.93195 100.31085 150.06679 100.53621 150.20163 100.76764 150.33646 101.00975 150.4713 101.26402 150.60611 101.52287 150.74095 101.79848 150.8758 102.0832 151.01062 102.3786 151.14546 102.68768 151.28029 103.01048 151.41513 103.34698 151.54998 103.6987 151.6848 104.06567 151.81964 104.44632 151.95446 104.8483 152.0893 105.26701 152.22414 105.70554 152.35897 106.16537 152.4938 106.64653 152.62863 107.15355 152.76348 107.68344 152.89832 108.24072 153.03314 108.82541 153.16799 109.44359 153.3028 110.09375 153.43764 110.78503 153.57248 111.5098 153.7073 112.27873 153.84215 113.08878 153.97698 113.95363 154.11182 114.87177 154.24666 115.8493 154.38149 116.88773 154.51633 118.00078 154.65114 119.18994 154.78598 120.46591 154.92082 121.83627 155.05565 123.3117 155.19049 124.90742 155.3253 126.63866 155.46015 128.52063 155.59499 130.56705 155.72982 132.8114 155.86466 135.28112 155.99947 138.0066 156.13431 141.026 156.26917 144.39099 156.40399 148.17626 156.53884 152.44573 156.59375 154.4287"/>
<path transform="matrix(-.027631656,-.99956,-.99961999,.02763,145.2523,22.707856)" d="M2.8892 0-1.73352 2.31136 0 0-1.73352-2.31136" fill="#0000ff"/>
<path transform="matrix(.027661657,-.99956,-.99961999,-.02766,171.92613,22.738312)" d="M2.8892 0-1.73352 2.31136 0 0-1.73352-2.31136" fill="#0000ff"/>
<path transform="matrix(1.00006,0,0,-1,15.323013,177.16699)" stroke-width=".99628" stroke-linecap="butt" stroke-miterlimit="10" stroke-linejoin="miter" fill="none" stroke="#0000ff" d="M160.66841 6.9046 160.7235 8.89671 160.85834 13.17075 160.99318 16.96057 161.12802 20.33623 161.26287 23.36324 161.3977 26.0872 161.53255 28.55843 161.66738 30.8028 161.80222 32.8553 161.93706 34.73727 162.0719 36.47003 162.20674 38.06575 162.34159 39.5427 162.47643 40.9161 162.61125 42.19664 162.7461 43.38582 162.88094 44.49886 163.01578 45.5373 163.15062 46.51634 163.28545 47.43297 163.42029 48.29782 163.55513 49.1109 163.68997 49.87982 163.82482 50.60764 163.95966 51.29436 164.09449 51.94756 164.22933 52.56575 164.36417 53.15196 164.49901 53.70923 164.63385 54.24063 164.76869 54.74767 164.90352 55.22882 165.03836 55.68866 165.1732 56.12717 165.30805 56.5459 165.44289 56.94788 165.57773 57.32854 165.71256 57.69548 165.8474 58.04874 165.98223 58.38524 166.11707 58.70651 166.2519 59.01561 166.38674 59.31252 166.52158 59.59877 166.65642 59.86981 166.79126 60.13321 166.9261 60.38446 167.06095 60.62807 167.19577 60.85951 167.33061 61.08333 167.46546 61.29956 167.6003 61.50664 167.73514 61.7061 167.86998 61.89642 168.00482 62.08066 168.13965 62.2573 168.27449 62.42783 168.40933 62.59074 168.54418 62.7491 168.67902 62.89984 168.81386 63.046 168.94869 63.18608 169.08353 63.32008 169.21837 63.45103 169.35321 63.57436 169.48805 63.6916 169.6229 63.8058 169.75772 63.91544 169.89257 64.02202 170.02742 64.12251 170.16226 64.21692 170.2971 64.30978 170.43193 64.39812 170.56678 64.48338 170.70162 64.56104 170.83646 64.63869 170.9713 64.71024 171.10614 64.78029 171.24097 64.84422 171.37581 64.90514 171.51065 64.963 171.64548 65.01933 171.78032 65.06958 171.91516 65.1183 172.04999 65.16246 172.18483 65.2051 172.31967 65.24469 172.45452 65.27971 172.58936 65.31169 172.7242 65.33908 172.85903 65.36649 172.99387 65.39087 173.12871 65.41217 173.26355 65.42741 173.39839 65.44263 173.53324 65.45328 173.66806 65.46242 173.8029 65.47003 173.93775 65.47308H174.07259L174.20743 65.47003 174.34226 65.46242 174.47711 65.45633 174.61194 65.44263 174.74678 65.42741 174.88162 65.41217 175.01645 65.39087 175.1513 65.36649 175.28614 65.34213 175.42098 65.31169 175.55582 65.27971 175.69066 65.24469 175.8255 65.2051 175.96033 65.16246 176.09517 65.1183 176.23003 65.06958 176.36486 65.01933 176.4997 64.96605 176.63452 64.90514 176.76937 64.84422 176.90422 64.78029 177.03905 64.71024 177.17389 64.63869 177.3087 64.56104 177.44356 64.48338 177.5784 64.39812 177.71323 64.30978 177.84807 64.21996 177.9829 64.12251 178.11775 64.02202 178.2526 63.91847 178.38742 63.80885 178.52228 63.69466 178.65709 63.57436 178.79195 63.45103 178.92679 63.32008 179.06162 63.18915 179.19647 63.04906 179.33132 62.90288 179.46616 62.75215 179.601 62.5938 179.73583 62.43086 179.87068 62.25882 180.00551 62.08218 180.14035 61.89948 180.2752 61.7061 180.41004 61.50815 180.54488 61.30107 180.6797 61.0879 180.81455 60.86256 180.9494 60.63112 181.08423 60.38902 181.21907 60.13475 181.3539 59.87589 181.48874 59.6003 181.6236 59.31555 181.75843 59.02017 181.89327 58.71107 182.02809 58.38829 182.16295 58.05179 182.29779 57.70006 182.43262 57.3331 182.56746 56.95244 182.70229 56.55048 182.83715 56.13174 182.97197 55.69324 183.1068 55.2334 183.24166 54.75224 183.37648 54.24521 183.51132 53.71533 183.64617 53.15804 183.78099 52.57336 183.91585 51.95517 184.05068 51.30501 184.18552 50.61374 184.32036 49.88896 184.45519 49.12003 184.59004 48.30696 184.72487 47.44514 184.85971 46.52547 184.99457 45.54947 185.1294 44.50798 185.26424 43.398 185.39907 42.20729 185.5339 40.93134 185.66876 39.55943 185.80359 38.08707 185.93843 36.4883 186.07326 34.7601 186.20812 32.87813 186.34296 30.82867 186.47779 28.58128 186.61263 26.11462 186.74745 23.39215 186.88231 20.37277 187.01715 17.00015 187.15198 13.2225 187.28682 8.95305 187.34183 6.96552"/>
<path transform="matrix(-.027601654,.99956,.99961999,.0276,176.00106,170.26238)" d="M2.8892 0-1.73352 2.31136 0 0-1.73352-2.31136" fill="#0000ff"/>
<path transform="matrix(.027631656,.99956,.99961999,-.02763,202.67606,170.20146)" d="M2.8892 0-1.73352 2.31136 0 0-1.73352-2.31136" fill="#0000ff"/>
<use data-text="y" xlink:href="#font_3_3" transform="matrix(9.963197,0,0,-9.9626,206.5745,175.57999)" fill="#0000ff"/>
<use data-text="=" xlink:href="#font_2_6" transform="matrix(9.963197,0,0,-9.9626,214.58399,175.57999)" fill="#0000ff"/>
<use data-text="s" xlink:href="#font_2_10" transform="matrix(9.963197,0,0,-9.9626,225.08518,175.57999)" fill="#0000ff"/>
<use data-text="e" xlink:href="#font_2_8" transform="matrix(9.963197,0,0,-9.9626,229.01068,175.57999)" fill="#0000ff"/>
<use data-text="c" xlink:href="#font_2_7" transform="matrix(9.963197,0,0,-9.9626,233.43436,175.57999)" fill="#0000ff"/>
<use data-text="(" xlink:href="#font_2_1" transform="matrix(9.963197,0,0,-9.9626,237.85803,175.57999)" fill="#0000ff"/>
<use data-text="x" xlink:href="#font_3_2" transform="matrix(9.963197,0,0,-9.9626,241.7616,175.57999)" fill="#0000ff"/>
<use data-text=")" xlink:href="#font_2_2" transform="matrix(9.963197,0,0,-9.9626,247.45594,175.57999)" fill="#0000ff"/>
<path transform="matrix(1.00006,0,0,-1,15.323013,177.16699)" stroke-width=".3985" stroke-linecap="butt" stroke-dasharray="2.98883,2.98883" stroke-miterlimit="10" stroke-linejoin="miter" fill="none" stroke="#ff0000" d="M4.89366 1.52263V159.87616"/>
<use data-text="x" xlink:href="#font_3_2" transform="matrix(9.963197,0,0,-9.9626,1.2171707,187.581)" fill="#ff0000"/>
<use data-text="=" xlink:href="#font_2_6" transform="matrix(9.963197,0,0,-9.9626,9.67868,187.581)" fill="#ff0000"/>
<use data-text="&#x2212;" xlink:href="#font_1_1" transform="matrix(9.963197,0,0,-9.9626,20.195313,187.581)" fill="#ff0000"/>
<use data-text="5" xlink:href="#font_4_3" transform="matrix(6.9742186,0,0,-6.9738,29.139847,183.65799)" fill="#ff0000"/>
<use data-text="&#x03c0;" xlink:href="#font_5_1" transform="matrix(6.9742186,0,0,-6.9738,33.11209,183.65799)" fill="#ff0000"/>
<path transform="matrix(1.00006,0,0,-1,-116.53789,40.584)" stroke-width=".3985" stroke-linecap="butt" stroke-miterlimit="10" stroke-linejoin="miter" fill="none" stroke="#ff0000" d="M145.669-144.506H154.55"/>
<use data-text="2" xlink:href="#font_4_1" transform="matrix(6.9742186,0,0,-6.9738,31.594986,191.016)" fill="#ff0000"/>
<path transform="matrix(1.00006,0,0,-1,15.323013,177.16699)" stroke-width=".3985" stroke-linecap="butt" stroke-dasharray="2.98883,2.98883" stroke-miterlimit="10" stroke-linejoin="miter" fill="none" stroke="#ff0000" d="M35.64067 1.52263V159.87616"/>
<use data-text="x" xlink:href="#font_3_2" transform="matrix(9.963197,0,0,-9.9626,31.966012,10.334991)" fill="#ff0000"/>
<use data-text="=" xlink:href="#font_2_6" transform="matrix(9.963197,0,0,-9.9626,40.42752,10.334991)" fill="#ff0000"/>
<use data-text="&#x2212;" xlink:href="#font_1_1" transform="matrix(9.963197,0,0,-9.9626,50.944154,10.334991)" fill="#ff0000"/>
<use data-text="3" xlink:href="#font_4_2" transform="matrix(6.9742186,0,0,-6.9738,59.888689,6.4119875)" fill="#ff0000"/>
<use data-text="&#x03c0;" xlink:href="#font_5_1" transform="matrix(6.9742186,0,0,-6.9738,63.86093,6.4119875)" fill="#ff0000"/>
<path transform="matrix(1.00006,0,0,-1,-85.78905,-136.662)" stroke-width=".3985" stroke-linecap="butt" stroke-miterlimit="10" stroke-linejoin="miter" fill="none" stroke="#ff0000" d="M145.669-144.506H154.55"/>
<use data-text="2" xlink:href="#font_4_1" transform="matrix(6.9742186,0,0,-6.9738,62.343828,13.770004)" fill="#ff0000"/>
<path transform="matrix(1.00006,0,0,-1,15.323013,177.16699)" stroke-width=".3985" stroke-linecap="butt" stroke-dasharray="2.98883,2.98883" stroke-miterlimit="10" stroke-linejoin="miter" fill="none" stroke="#ff0000" d="M66.38857 1.52263V159.87616"/>
<use data-text="y" xlink:href="#font_3_3" transform="matrix(9.963197,0,0,-9.9626,64.92699,186.08899)" fill="#ff0000"/>
<use data-text="=" xlink:href="#font_2_6" transform="matrix(9.963197,0,0,-9.9626,72.93648,186.08899)" fill="#ff0000"/>
<use data-text="&#x2212;" xlink:href="#font_1_1" transform="matrix(9.963197,0,0,-9.9626,83.453128,186.08899)" fill="#ff0000"/>
<use data-text="&#x03c0;" xlink:href="#font_5_1" transform="matrix(6.9742186,0,0,-6.9738,92.39766,182.16599)" fill="#ff0000"/>
<path transform="matrix(1.00006,0,0,-1,-52.828069,39.092)" stroke-width=".3985" stroke-linecap="butt" stroke-miterlimit="10" stroke-linejoin="miter" fill="none" stroke="#ff0000" d="M145.217-144.506H150.127"/>
<use data-text="2" xlink:href="#font_4_1" transform="matrix(6.9742186,0,0,-6.9738,92.866687,189.524)" fill="#ff0000"/>
<path transform="matrix(1.00006,0,0,-1,15.323013,177.16699)" stroke-width=".3985" stroke-linecap="butt" stroke-dasharray="2.98883,2.98883" stroke-miterlimit="10" stroke-linejoin="miter" fill="none" stroke="#ff0000" d="M97.13629 1.52263V159.87616"/>
<use data-text="y" xlink:href="#font_3_3" transform="matrix(9.963197,0,0,-9.9626,99.55106,10.334991)" fill="#ff0000"/>
<use data-text="=" xlink:href="#font_2_6" transform="matrix(9.963197,0,0,-9.9626,107.56055,10.334991)" fill="#ff0000"/>
<use data-text="&#x03c0;" xlink:href="#font_5_1" transform="matrix(6.9742186,0,0,-6.9738,119.273258,6.4119875)" fill="#ff0000"/>
<path transform="matrix(1.00006,0,0,-1,-18.203995,-136.662)" stroke-width=".3985" stroke-linecap="butt" stroke-miterlimit="10" stroke-linejoin="miter" fill="none" stroke="#ff0000" d="M137.469-144.506H142.378"/>
<use data-text="2" xlink:href="#font_4_1" transform="matrix(6.9742186,0,0,-6.9738,119.74228,13.770004)" fill="#ff0000"/>
<path transform="matrix(1.00006,0,0,-1,15.323013,177.16699)" stroke-width=".3985" stroke-linecap="butt" stroke-dasharray="2.98883,2.98883" stroke-miterlimit="10" stroke-linejoin="miter" fill="none" stroke="#ff0000" d="M127.88419 1.52263V159.87616"/>
<use data-text="y" xlink:href="#font_3_3" transform="matrix(9.963197,0,0,-9.9626,128.3158,187.581)" fill="#ff0000"/>
<use data-text="=" xlink:href="#font_2_6" transform="matrix(9.963197,0,0,-9.9626,136.32527,187.581)" fill="#ff0000"/>
<use data-text="3" xlink:href="#font_4_2" transform="matrix(6.9742186,0,0,-6.9738,148.03798,183.65799)" fill="#ff0000"/>
<use data-text="&#x03c0;" xlink:href="#font_5_1" transform="matrix(6.9742186,0,0,-6.9738,152.00922,183.65799)" fill="#ff0000"/>
<path transform="matrix(1.00006,0,0,-1,10.56073,40.584)" stroke-width=".3985" stroke-linecap="butt" stroke-miterlimit="10" stroke-linejoin="miter" fill="none" stroke="#ff0000" d="M137.469-144.506H146.349"/>
<use data-text="2" xlink:href="#font_4_1" transform="matrix(6.9742186,0,0,-6.9738,150.49213,191.016)" fill="#ff0000"/>
<path transform="matrix(1.00006,0,0,-1,15.323013,177.16699)" stroke-width=".3985" stroke-linecap="butt" stroke-dasharray="2.98883,2.98883" stroke-miterlimit="10" stroke-linejoin="miter" fill="none" stroke="#ff0000" d="M158.6312 1.52263V159.87616"/>
<use data-text="y" xlink:href="#font_3_3" transform="matrix(9.963197,0,0,-9.9626,159.06464,10.334991)" fill="#ff0000"/>
<use data-text="=" xlink:href="#font_2_6" transform="matrix(9.963197,0,0,-9.9626,167.07413,10.334991)" fill="#ff0000"/>
<use data-text="5" xlink:href="#font_4_3" transform="matrix(6.9742186,0,0,-6.9738,178.78684,6.4119875)" fill="#ff0000"/>
<use data-text="&#x03c0;" xlink:href="#font_5_1" transform="matrix(6.9742186,0,0,-6.9738,182.75806,6.4119875)" fill="#ff0000"/>
<path transform="matrix(1.00006,0,0,-1,41.309579,-136.662)" stroke-width=".3985" stroke-linecap="butt" stroke-miterlimit="10" stroke-linejoin="miter" fill="none" stroke="#ff0000" d="M137.469-144.506H146.349"/>
<use data-text="2" xlink:href="#font_4_1" transform="matrix(6.9742186,0,0,-6.9738,181.24097,13.770004)" fill="#ff0000"/>
<path transform="matrix(1.00006,0,0,-1,15.323013,177.16699)" stroke-width=".3985" stroke-linecap="butt" stroke-dasharray="2.98883,2.98883" stroke-miterlimit="10" stroke-linejoin="miter" fill="none" stroke="#ff0000" d="M189.37909 1.52263V159.87616"/>
<use data-text="y" xlink:href="#font_3_3" transform="matrix(9.963197,0,0,-9.9626,189.81449,187.581)" fill="#ff0000"/>
<use data-text="=" xlink:href="#font_2_6" transform="matrix(9.963197,0,0,-9.9626,197.82398,187.581)" fill="#ff0000"/>
<use data-text="5" xlink:href="#font_4_3" transform="matrix(6.9742186,0,0,-6.9738,209.53668,183.65799)" fill="#ff0000"/>
<use data-text="&#x03c0;" xlink:href="#font_5_1" transform="matrix(6.9742186,0,0,-6.9738,213.5079,183.65799)" fill="#ff0000"/>
<path transform="matrix(1.00006,0,0,-1,72.059429,40.584)" stroke-width=".3985" stroke-linecap="butt" stroke-miterlimit="10" stroke-linejoin="miter" fill="none" stroke="#ff0000" d="M137.469-144.506H146.349"/>
<use data-text="2" xlink:href="#font_4_1" transform="matrix(6.9742186,0,0,-6.9738,211.99082,191.016)" fill="#ff0000"/>
<use data-text="x" xlink:href="#font_3_2" transform="matrix(9.963197,0,0,-9.9626,200.39311,92.94799)"/>
<use data-text="y" xlink:href="#font_3_3" transform="matrix(9.963197,0,0,-9.9626,100.61012,23.577988)"/>
</svg>
