<svg xmlns="http://www.w3.org/2000/svg" xmlns:xlink="http://www.w3.org/1999/xlink" xmlns:inkscape="http://www.inkscape.org/namespaces/inkscape" version="1.1" width="205" height="170" viewBox="0 0 205 170">
<defs>
<path id="font_1_1" d="M.6589966 .23046875C.6759949 .23046875 .69400027 .23046875 .69400027 .25045777 .69400027 .27046205 .6759949 .27046205 .6589966 .27046205H.117996219C.100997928 .27046205 .08299255 .27046205 .08299255 .25045777 .08299255 .23046875 .100997928 .23046875 .117996219 .23046875H.6589966Z"/>
<path id="font_2_2" d="M.2939911 .16503906V.07800293C.2939911 .041992189 .2919922 .0309906 .21798706 .0309906H.19699097V0C.23799134 .0029907227 .2899933 .0029907227 .33198548 .0029907227 .37399293 .0029907227 .4269867 .0029907227 .46798707 0V.0309906H.44699098C.37298585 .0309906 .37098695 .041992189 .37098695 .07800293V.16503906H.47099305V.19602967H.37098695V.65075686C.37098695 .67074587 .37098695 .6767578 .35499574 .6767578 .34599305 .6767578 .34298707 .6767578 .33499146 .66474917L.027999878 .19602967V.16503906H.2939911M.2999878 .19602967H.055999757L.2999878 .5688019V.19602967Z"/>
<path id="font_2_1" d="M.1269989 .07699585 .23298645 .18003845C.3889923 .31811524 .44898988 .3721466 .44898988 .47216798 .44898988 .5860901 .35899354 .6660156 .23699951 .6660156 .12399292 .6660156 .049987794 .57411196 .049987794 .48516847 .049987794 .4291687 .099990848 .4291687 .102996829 .4291687 .11999512 .4291687 .15499878 .44117738 .15499878 .48217774 .15499878 .5081787 .13699341 .5341797 .101989749 .5341797 .09399414 .5341797 .09199524 .5341797 .08898926 .5331726 .11199951 .59806826 .1659851 .63500979 .22399903 .63500979 .31498719 .63500979 .35798646 .5541382 .35798646 .47216798 .35798646 .39215089 .30799867 .31311036 .25299073 .25108338L.06098938 .036987306C.049987794 .025985718 .049987794 .023986817 .049987794 0H.42099L.44898988 .17404175H.42399598C.4189911 .14402771 .4119873 .1000061 .4019928 .084991458 .394989 .07699585 .32899476 .07699585 .30699159 .07699585H.1269989Z"/>
<path id="font_2_3" d="M.13198853 .327713V.35173036C.13198853 .6047821 .2559967 .64100649 .30699159 .64100649 .33099366 .64100649 .37298585 .634964 .394989 .6007538 .37998963 .6007538 .33999635 .6007538 .33999635 .5557556 .33999635 .524765 .3639984 .5097656 .38598634 .5097656 .4019928 .5097656 .43199159 .51875308 .43199159 .5577545 .43199159 .6178589 .3880005 .6660156 .30499269 .6660156 .1769867 .6660156 .041992189 .5367584 .041992189 .31570436 .041992189 .048553468 .1579895-.022460938 .25099183-.022460938 .3619995-.022460938 .45700074 .07156372 .45700074 .2036438 .45700074 .33070375 .36799623 .4267578 .25698854 .4267578 .18899536 .4267578 .1519928 .37573243 .13198853 .327713M.25099183 .0055389406C.18798828 .0055389406 .1579895 .06556702 .1519928 .080566409 .13398743 .127594 .13398743 .2076416 .13398743 .22564698 .13398743 .30369569 .1659851 .40374757 .2559967 .40374757 .27198792 .40374757 .31799317 .40374757 .34899903 .34172059 .36698915 .30470277 .36698915 .2536621 .36698915 .20463562 .36698915 .15661621 .36698915 .10658264 .34999085 .0705719 .31999208 .010528564 .27398683 .0055389406 .25099183 .0055389406Z"/>
<path id="font_2_4" d="M.16299439 .4569702C.116989139 .486969 .11299133 .52098086 .11299133 .5379791 .11299133 .598999 .17799378 .64100649 .24899292 .64100649 .32199098 .64100649 .38598634 .58898928 .38598634 .51698306 .38598634 .45996095 .34700013 .4119568 .2869873 .37695313L.16299439 .4569702M.30899049 .36193849C.3809967 .3989563 .42999269 .45095826 .42999269 .51698306 .42999269 .6090088 .34098817 .6660156 .25 .6660156 .1499939 .6660156 .068984989 .59199526 .068984989 .49897767 .068984989 .4809723 .070999149 .43595887 .11299133 .38894654 .12399292 .37695313 .16099549 .35194398 .18598938 .33494569 .12799073 .30592347 .041992189 .24984741 .041992189 .15072632 .041992189 .04458618 .14399719-.022460938 .24899292-.022460938 .3619995-.022460938 .45700074 .06060791 .45700074 .16773987 .45700074 .20379639 .44599916 .24885559 .4079895 .2909088 .3889923 .31193543 .37298585 .3219452 .30899049 .36193849M.20899964 .3199463 .33198548 .24183655C.3600006 .2228241 .40699769 .19277954 .40699769 .13169861 .40699769 .05760193 .33198548 .0055389406 .25 .0055389406 .1639862 .0055389406 .09199524 .067611698 .09199524 .15072632 .09199524 .20880127 .12399292 .27288819 .20899964 .3199463Z"/>
<path id="font_3_1" d="M.33399964 .30233766C.33999635 .32835389 .36299134 .42037965 .43299867 .42037965 .43798829 .42037965 .46199037 .42037965 .48298646 .40734864 .45498658 .402359 .43499757 .37734986 .43499757 .35334779 .43499757 .33735658 .44599916 .31835938 .47299195 .31835938 .49499513 .31835938 .5269928 .3363495 .5269928 .37635804 .5269928 .42837525 .46798707 .4423828 .43399049 .4423828 .37599183 .4423828 .34098817 .38935853 .32899476 .36634828 .3039856 .43237306 .25 .4423828 .22099304 .4423828 .116989139 .4423828 .05999756 .3133545 .05999756 .28834535 .05999756 .27833558 .069992069 .27833558 .07199097 .27833558 .07998657 .27833558 .08299255 .28033448 .084991458 .28933717 .11898804 .39535523 .18499756 .42037965 .21899414 .42037965 .23799134 .42037965 .272995 .4113617 .272995 .35334779 .272995 .32235719 .2559967 .25532533 .21899414 .11528015 .20298767 .053268434 .16799927 .011245728 .12399292 .011245728 .117996219 .011245728 .09498596 .011245728 .07398987 .024276734 .09899902 .029266358 .12098694 .05027771 .12098694 .07827759 .12098694 .105270389 .09899902 .11328125 .083999637 .11328125 .053985597 .11328125 .0289917 .08728027 .0289917 .055267335 .0289917 .009246826 .07899475-.0107421879 .12298584-.0107421879 .18899536-.0107421879 .22499085 .059280397 .22799683 .0652771 .23999024 .028274537 .27598573-.0107421879 .33599855-.0107421879 .43899537-.0107421879 .49598695 .118270877 .49598695 .14328003 .49598695 .1532898 .4869995 .1532898 .48399354 .1532898 .47499085 .1532898 .47299195 .14929199 .47099305 .14228821 .43798829 .03527832 .36999513 .011245728 .33799745 .011245728 .29899598 .011245728 .2829895 .043273927 .2829895 .07727051 .2829895 .09927368 .2889862 .121276859 .2999878 .16529846L.33399964 .30233766Z"/>
<path id="font_3_2" d="M.48599244 .38136292C.48999024 .39537049 .48999024 .39736939 .48999024 .40437318 .48999024 .42237855 .47599793 .43138124 .46099855 .43138124 .45098878 .43138124 .43499757 .42536927 .42599488 .41036988 .42399598 .405365 .41600038 .37435914 .4119873 .35635377 .40499879 .33035279 .397995 .30334474 .3919983 .27633668L.34700013 .09628296C.34298707 .08126831 .2999878 .011245728 .23399353 .011245728 .18299866 .011245728 .17199707 .055267335 .17199707 .0922699 .17199707 .1382904 .18899536 .20030213 .22299195 .28833009 .23899842 .3293457 .24299622 .3403473 .24299622 .36035157 .24299622 .405365 .21099854 .4423828 .16099549 .4423828 .06599426 .4423828 .0289917 .29733277 .0289917 .28833009 .0289917 .27833558 .038986207 .27833558 .040985109 .27833558 .050994874 .27833558 .051986696 .28033448 .056991579 .29634095 .083999637 .3903656 .12399292 .42037965 .1579895 .42037965 .1659851 .42037965 .18299866 .42037965 .18299866 .3883667 .18299866 .36335755 .17298889 .3373413 .1659851 .31834413 .12599182 .21231079 .10798645 .1552887 .10798645 .10827637 .10798645 .019256592 .17098999-.0107421879 .22999573-.0107421879 .2689972-.0107421879 .30299378 .0062561037 .33099366 .03425598 .31799317-.017745972 .30599977-.06674194 .2659912-.11973572 .23999024-.15385437 .20199585-.18309021 .1559906-.18309021 .14199829-.18309021 .09700012-.18005371 .07998657-.14074707 .09599304-.14074707 .10899353-.14074707 .12298584-.1287384 .1329956-.11973572 .14299011-.10673523 .14299011-.08773804 .14299011-.056747438 .115997318-.052734376 .10598755-.052734376 .08299255-.052734376 .049987794-.068740848 .049987794-.11773682 .049987794-.16796875 .09399414-.20507813 .1559906-.20507813 .25898744-.20507813 .3619995-.11373901 .3899994-.00074768069L.48599244 .38136292Z"/>
</defs>
<path transform="matrix(1.00002,0,0,-1.00006,6.581848,166.5352)" stroke-width=".19925" stroke-linecap="butt" stroke-miterlimit="10" stroke-linejoin="miter" fill="none" stroke="#7f807f" d="M16.1901 79.28078V82.11557M48.57031 79.28078V82.11557M80.95053 79.28078V82.11557M113.33073 79.28078V82.11557M145.71096 79.28078V82.11557M178.09117 79.28078V82.11557"/>
<path transform="matrix(1.00002,0,0,-1.00006,6.581848,166.5352)" stroke-width=".19925" stroke-linecap="butt" stroke-miterlimit="10" stroke-linejoin="miter" fill="none" stroke="#7f807f" d="M0 78.57228V82.82405M32.3802 78.57228V82.82405M97.14064 78.57228V82.82405M129.52085 78.57228V82.82405M161.90106 78.57228V82.82405M194.28128 78.57228V82.82405"/>
<path transform="matrix(1.00002,0,0,-1.00006,6.581848,166.5352)" stroke-width=".19925" stroke-linecap="butt" stroke-miterlimit="10" stroke-linejoin="miter" fill="none" stroke="#7f807f" d="M63.34296 20.17455H66.17789M63.34296 60.52364H66.17789M63.34296 100.87273H66.17789M63.34296 141.22182H66.17789"/>
<path transform="matrix(1.00002,0,0,-1.00006,6.581848,166.5352)" stroke-width=".19925" stroke-linecap="butt" stroke-miterlimit="10" stroke-linejoin="miter" fill="none" stroke="#7f807f" d="M62.63443 0H66.8864M62.63443 40.34909H66.8864M62.63443 121.04727H66.8864M62.63443 161.39636H66.8864"/>
<path transform="matrix(1.00002,0,0,-1.00006,6.581848,166.5352)" stroke-width=".3985" stroke-linecap="butt" stroke-miterlimit="10" stroke-linejoin="miter" fill="none" stroke="#000000" d="M0 80.69818H192.28876"/>
<path transform="matrix(1.00002,0,0,-1.00006,198.87445,85.832187)" d="M1.99252 0-1.19551 1.59401 0 0-1.19551-1.59401"/>
<path transform="matrix(1.00002,0,0,-1.00006,6.581848,166.5352)" stroke-width=".3985" stroke-linecap="butt" stroke-miterlimit="10" stroke-linejoin="miter" fill="none" stroke="#000000" d="M64.76042 0V159.40384"/>
<path transform="matrix(0,-1.00006,-1.00002,-0,71.34357,7.121811)" d="M1.99252 0-1.19551 1.59401 0 0-1.19551-1.59401"/>
<use data-text="&#x2212;" xlink:href="#font_1_1" transform="matrix(9.962799,0,0,-9.963197,.21672058,97.899089)"/>
<use data-text="4" xlink:href="#font_2_2" transform="matrix(9.962799,0,0,-9.963197,7.9658815,97.899089)"/>
<use data-text="&#x2212;" xlink:href="#font_1_1" transform="matrix(9.962799,0,0,-9.963197,32.597368,97.899089)"/>
<use data-text="2" xlink:href="#font_2_1" transform="matrix(9.962799,0,0,-9.963197,40.346529,97.899089)"/>
<use data-text="2" xlink:href="#font_2_1" transform="matrix(9.962799,0,0,-9.963197,101.23374,97.899089)"/>
<use data-text="4" xlink:href="#font_2_2" transform="matrix(9.962799,0,0,-9.963197,133.61438,97.899089)"/>
<use data-text="6" xlink:href="#font_2_3" transform="matrix(9.962799,0,0,-9.963197,165.99504,97.899089)"/>
<use data-text="8" xlink:href="#font_2_4" transform="matrix(9.962799,0,0,-9.963197,198.3767,97.899089)"/>
<use data-text="&#x2212;" xlink:href="#font_1_1" transform="matrix(9.962799,0,0,-9.963197,52.966779,169.33037)"/>
<use data-text="4" xlink:href="#font_2_2" transform="matrix(9.962799,0,0,-9.963197,60.71594,169.33037)"/>
<use data-text="&#x2212;" xlink:href="#font_1_1" transform="matrix(9.962799,0,0,-9.963197,52.966779,128.97895)"/>
<use data-text="2" xlink:href="#font_2_1" transform="matrix(9.962799,0,0,-9.963197,60.71594,128.97895)"/>
<use data-text="2" xlink:href="#font_2_1" transform="matrix(9.962799,0,0,-9.963197,60.71593,48.69114)"/>
<use data-text="4" xlink:href="#font_2_2" transform="matrix(9.962799,0,0,-9.963197,60.71593,8.339706)"/>
<path transform="matrix(1.00002,0,0,-1.00006,6.581848,166.5352)" stroke-width=".99628" stroke-linecap="butt" stroke-miterlimit="10" stroke-linejoin="miter" fill="none" stroke="#0000ff" d="M0 80.69574 .97626 76.8771 1.95253 73.06493 2.92882 69.2697 3.90509 65.5011 4.88138 61.76718 5.85765 58.07364 6.83394 54.43091 7.81021 50.85034 8.7865 47.3335 9.76276 43.89172 10.73904 40.53227 11.71532 37.26561 12.6916 34.09415 13.66788 31.02682 14.64415 28.07246 15.62044 25.23672 16.59671 22.52284 17.573 19.9397 18.54927 17.49535 19.52554 15.1898 20.50182 13.03113 21.4781 11.0282 22.45438 9.1786 23.43066 7.48798 24.40694 5.9644 25.38322 4.60785 26.3595 3.42078 27.33577 2.4048 28.31206 1.56956 29.28831 .91028 30.2646 .42769 31.24088 .12668 32.21716 .00644 33.19344 .06615 34.16972 .30664 35.146 .7303 36.12228 1.3299 37.09856 2.10782 38.07484 3.0633 39.0511 4.19307 40.02737 5.49391 41.00366 6.96101 41.97993 8.59837 42.95622 10.39392 43.9325 12.3452 44.90878 14.45464 45.88506 16.71097 46.86134 19.1093 47.83762 21.64566 48.81389 24.31839 49.79016 27.11458 50.76645 30.0294 51.74272 33.06042 52.719 36.19797 53.69528 39.43315 54.67155 42.76196 55.64784 46.1771 56.62411 49.66972 57.60039 53.23013 58.57666 56.85428 59.55295 60.53088 60.52922 64.25186 61.50551 68.00998 62.48178 71.79796 63.45807 75.6053 64.43434 79.42233 65.41061 83.24178 66.3869 87.058 67.36316 90.85968 68.33945 94.63716 69.31572 98.38397 70.292 102.09125 71.26828 105.75252 72.24457 109.35408 73.22084 112.89352 74.19713 116.36192 75.1734 119.74962 76.14969 123.04695 77.12595 126.25229 78.10222 129.35514 79.0785 132.34743 80.05478 135.22351 81.03107 137.97936 82.00734 140.60768 82.98363 143.09723 83.9599 145.4504 84.93619 147.6591 85.91246 149.7161 86.88873 151.61653 87.865 153.36043 88.8413 154.94132 89.81757 156.35272 90.79384 157.59789 91.77013 158.67035 92.7464 159.56693 93.72269 160.28595 94.69896 160.82743 95.67523 161.18976 96.6515 161.36891H97.62779L98.60413 161.19057 99.58032 160.82985 100.55666 160.28675 101.53284 159.56934 102.50919 158.67359 103.48552 157.60031 104.46172 156.35675 105.43803 154.94535 106.41423 153.36446 107.39056 151.62218 108.36691 149.71932 109.3431 147.66394 110.31944 145.45604 111.29562 143.10449 112.27197 140.61334 113.2483 137.98743 114.22449 135.23238 115.20082 132.35631 116.177 129.36402 117.15335 126.26036 118.12968 123.05664 119.10588 119.75932 120.08221 116.3708 121.05841 112.9032 122.03474 109.3654 123.0111 105.7614 123.98727 102.10175 124.96361 98.39366 125.93979 94.64847 126.91614 90.86937 127.89247 87.06686 128.86865 83.25226 129.845 79.43202 130.82118 75.61497 131.79753 71.80765 132.77387 68.02048 133.75006 64.26074 134.72638 60.54056 135.70258 56.86395 136.67891 53.23901 137.65526 49.6794 138.63144 46.18678 139.60779 42.77245 140.58397 39.44122 141.5603 36.20685 142.53665 33.06769 143.51284 30.03746 144.48917 27.12183 145.46535 24.32564 146.4417 21.65211 147.41803 19.11739 148.39423 16.7166 149.37056 14.45949 150.34676 12.35164 151.32309 10.39876 152.29943 8.60242 153.2756 6.96425 154.25194 5.49715 155.22814 4.19548 156.20447 3.06491 157.18082 2.11024 158.157 1.3315 159.13335 .7303 160.10953 .30664 161.08588 .06778 162.0622 .00644 163.03838 .12589 164.01474 .42607 164.99094 .90865 165.96727 1.56876 166.94359 2.40237 167.91977 3.41835 168.89614 4.60382 169.87232 5.95955 170.84865 7.48312 171.82498 9.17375 172.80115 11.02336 173.77751 13.02467 174.7537 15.18416 175.73004 17.48889 176.70638 19.93326 177.68256 22.51477 178.65892 25.22948 179.6351 28.0652 180.61144 31.01794 181.58777 34.0869 182.56394 37.25754 183.5403 40.525 184.51648 43.88367 185.49283 47.32462 186.46915 50.83984 187.44535 54.42122 188.42169 58.06314 189.39789 61.75587 190.3742 65.49059 191.35053 69.26001 192.32672 73.05524 193.30307 76.86581 194.27925 80.68607"/>
<use data-text="x" xlink:href="#font_3_1" transform="matrix(9.962799,0,0,-9.963197,191.65256,82.31215)"/>
<use data-text="y" xlink:href="#font_3_2" transform="matrix(9.962799,0,0,-9.963197,74.86321,12.93898)"/>
</svg>
