<svg xmlns="http://www.w3.org/2000/svg" xmlns:xlink="http://www.w3.org/1999/xlink" version="1.1" width="200" height="170" viewBox="0 0 200 170">
<defs>
<path id="font_1_1" d="M.6589966 .23046875C.6759949 .23046875 .69400027 .23046875 .69400027 .25045777 .69400027 .27046205 .6759949 .27046205 .6589966 .27046205H.117996219C.100997928 .27046205 .08299255 .27046205 .08299255 .25045777 .08299255 .23046875 .100997928 .23046875 .117996219 .23046875H.6589966Z"/>
<path id="font_2_5" d="M.1269989 .07699585 .23298645 .18003845C.3889923 .31811524 .44898988 .3721466 .44898988 .47216798 .44898988 .5860901 .35899354 .6660156 .23699951 .6660156 .12399292 .6660156 .049987794 .57411196 .049987794 .48516847 .049987794 .4291687 .099990848 .4291687 .102996829 .4291687 .11999512 .4291687 .15499878 .44117738 .15499878 .48217774 .15499878 .5081787 .13699341 .5341797 .101989749 .5341797 .09399414 .5341797 .09199524 .5341797 .08898926 .5331726 .11199951 .59806826 .1659851 .63500979 .22399903 .63500979 .31498719 .63500979 .35798646 .5541382 .35798646 .47216798 .35798646 .39215089 .30799867 .31311036 .25299073 .25108338L.06098938 .036987306C.049987794 .025985718 .049987794 .023986817 .049987794 0H.42099L.44898988 .17404175H.42399598C.4189911 .14402771 .4119873 .1000061 .4019928 .084991458 .394989 .07699585 .32899476 .07699585 .30699159 .07699585H.1269989Z"/>
<path id="font_3_1" d="M.2649994 .37265016H.37799073C.34498597 .22489929 .33599855 .18196106 .33599855 .11508179 .33599855 .100097659 .33599855 .073150638 .34399415 .03919983 .35398866-.0047454836 .36499024-.0107421879 .37998963-.0107421879 .3999939-.0107421879 .42099 .007247925 .42099 .02722168 .42099 .033218385 .42099 .035202028 .4149933 .049179079 .38598634 .12106323 .38598634 .18595886 .38598634 .21391297 .38598634 .26683045 .3929901 .32073976 .4039917 .37265016H.5179901C.5309906 .37265016 .5669861 .37265016 .5669861 .406662 .5669861 .43066407 .54599 .43066407 .5269928 .43066407H.19198609C.16999817 .43066407 .13198853 .43066407 .08799744 .38365174 .052993776 .34469605 .026992798 .29878236 .026992798 .29379273 .026992798 .29278565 .026992798 .28379823 .038986207 .28379823 .04699707 .28379823 .04899597 .28779603 .054992677 .29577638 .10398865 .37265016 .1619873 .37265016 .18199158 .37265016H.23899842C.20698548 .25186158 .15299988 .13105774 .11099243 .04020691 .102996829 .025222779 .102996829 .023223877 .102996829 .016235352 .102996829-.002746582 .11898804-.0107421879 .13198853-.0107421879 .1619873-.0107421879 .16999817 .017242432 .18199158 .05418396 .19599915 .100097659 .19599915 .10209656 .20899964 .15202332L.2649994 .37265016Z"/>
<path id="font_2_6" d="M.2899933 .35191346C.37199403 .37893678 .42999269 .4490509 .42999269 .52809146 .42999269 .6100464 .34199525 .6660156 .24598694 .6660156 .14498902 .6660156 .068984989 .60606387 .068984989 .53009036 .068984989 .49710084 .09098816 .47808839 .11999512 .47808839 .15098572 .47808839 .17098999 .50009158 .17098999 .5290985 .17098999 .57910159 .12399292 .57910159 .10899353 .57910159 .13999939 .62802127 .20599365 .64100649 .24198914 .64100649 .2829895 .64100649 .33799745 .6190338 .33799745 .5290985 .33799745 .51708987 .33599855 .45906068 .30999757 .4149933 .27999879 .36691285 .24598694 .36390687 .22099304 .36291505 .21299744 .36190797 .18899536 .35990907 .18199158 .35990907 .17399597 .35890199 .16699219 .35791017 .16699219 .3479004 .16699219 .33691407 .17399597 .33691407 .19099427 .33691407H.23498535C.31698609 .33691407 .35398866 .2686615 .35398866 .17037964 .35398866 .034469606 .2849884 .0055389406 .24099732 .0055389406 .19799805 .0055389406 .12298584 .022491456 .08799744 .08137512 .12298584 .07637024 .1539917 .09837341 .1539917 .1363678 .1539917 .17237854 .1269989 .19238281 .09799194 .19238281 .07398987 .19238281 .041992189 .17837525 .041992189 .1343689 .041992189 .043441774 .1349945-.022460938 .24398804-.022460938 .3659973-.022460938 .45700074 .06838989 .45700074 .17037964 .45700074 .252594 .3939972 .33088685 .2899933 .35191346Z"/>
<path id="font_2_4" d="M.2939911 .64004519C.2939911 .66400149 .2939911 .6660156 .2709961 .6660156 .20899964 .60227969 .12098694 .60227969 .08898926 .60227969V.57128909C.10899353 .57128909 .16799927 .57128909 .21998596 .5972748V.07902527C.21998596 .042999269 .21699524 .0309906 .1269989 .0309906H.09498596V0C.12998963 .0029907227 .21699524 .0029907227 .25698854 .0029907227 .29699708 .0029907227 .38398744 .0029907227 .4189911 0V.0309906H.3869934C.29699708 .0309906 .2939911 .041992189 .2939911 .07902527V.64004519Z"/>
<path id="font_2_7" d="M.2939911 .16503906V.07800293C.2939911 .041992189 .2919922 .0309906 .21798706 .0309906H.19699097V0C.23799134 .0029907227 .2899933 .0029907227 .33198548 .0029907227 .37399293 .0029907227 .4269867 .0029907227 .46798707 0V.0309906H.44699098C.37298585 .0309906 .37098695 .041992189 .37098695 .07800293V.16503906H.47099305V.19602967H.37098695V.65075686C.37098695 .67074587 .37098695 .6767578 .35499574 .6767578 .34599305 .6767578 .34298707 .6767578 .33499146 .66474917L.027999878 .19602967V.16503906H.2939911M.2999878 .19602967H.055999757L.2999878 .5688019V.19602967Z"/>
<path id="font_3_3" d="M.48599244 .38136292C.48999024 .39537049 .48999024 .39736939 .48999024 .40437318 .48999024 .42237855 .47599793 .43138124 .46099855 .43138124 .45098878 .43138124 .43499757 .42536927 .42599488 .41036988 .42399598 .405365 .41600038 .37435914 .4119873 .35635377 .40499879 .33035279 .397995 .30334474 .3919983 .27633668L.34700013 .09628296C.34298707 .08126831 .2999878 .011245728 .23399353 .011245728 .18299866 .011245728 .17199707 .055267335 .17199707 .0922699 .17199707 .1382904 .18899536 .20030213 .22299195 .28833009 .23899842 .3293457 .24299622 .3403473 .24299622 .36035157 .24299622 .405365 .21099854 .4423828 .16099549 .4423828 .06599426 .4423828 .0289917 .29733277 .0289917 .28833009 .0289917 .27833558 .038986207 .27833558 .040985109 .27833558 .050994874 .27833558 .051986696 .28033448 .056991579 .29634095 .083999637 .3903656 .12399292 .42037965 .1579895 .42037965 .1659851 .42037965 .18299866 .42037965 .18299866 .3883667 .18299866 .36335755 .17298889 .3373413 .1659851 .31834413 .12599182 .21231079 .10798645 .1552887 .10798645 .10827637 .10798645 .019256592 .17098999-.0107421879 .22999573-.0107421879 .2689972-.0107421879 .30299378 .0062561037 .33099366 .03425598 .31799317-.017745972 .30599977-.06674194 .2659912-.11973572 .23999024-.15385437 .20199585-.18309021 .1559906-.18309021 .14199829-.18309021 .09700012-.18005371 .07998657-.14074707 .09599304-.14074707 .10899353-.14074707 .12298584-.1287384 .1329956-.11973572 .14299011-.10673523 .14299011-.08773804 .14299011-.056747438 .115997318-.052734376 .10598755-.052734376 .08299255-.052734376 .049987794-.068740848 .049987794-.11773682 .049987794-.16796875 .09399414-.20507813 .1559906-.20507813 .25898744-.20507813 .3619995-.11373901 .3899994-.00074768069L.48599244 .38136292Z"/>
<path id="font_2_8" d="M.68699648 .32714845C.70199587 .32714845 .72099307 .32714845 .72099307 .34713746 .72099307 .36714173 .70199587 .36714173 .6879883 .36714173H.08898926C.07499695 .36714173 .055999757 .36714173 .055999757 .34713746 .055999757 .32714845 .07499695 .32714845 .08999634 .32714845H.68699648M.6879883 .13284302C.70199587 .13284302 .72099307 .13284302 .72099307 .15284729 .72099307 .17285156 .70199587 .17285156 .68699648 .17285156H.08999634C.07499695 .17285156 .055999757 .17285156 .055999757 .15284729 .055999757 .13284302 .07499695 .13284302 .08898926 .13284302H.6879883Z"/>
<path id="font_2_11" d="M.20799256 .19424439C.22999573 .19024658 .31199647 .17424011 .31199647 .102249149 .31199647 .051254274 .2769928 .011245728 .19898987 .011245728 .114990238 .011245728 .07899475 .06825256 .05999756 .15324402 .056991579 .1662445 .055999757 .17024231 .04598999 .17024231 .032989503 .17024231 .032989503 .16323853 .032989503 .14524842V.013244629C.032989503-.003753662 .032989503-.0107421879 .04399109-.0107421879 .04899597-.0107421879 .049987794-.009750366 .068984989 .009246826 .070999149 .011245728 .070999149 .013244629 .08898926 .03224182 .1329956-.009750366 .17799378-.0107421879 .19898987-.0107421879 .31399537-.0107421879 .3600006 .056243898 .3600006 .12825012 .3600006 .1812439 .32998658 .21124268 .31799317 .22323609 .2849884 .25523377 .24598694 .26324464 .20399475 .27124024 .147995 .28224183 .08099365 .2952423 .08099365 .35324098 .08099365 .38822938 .10699463 .42922975 .19299317 .42922975 .30299378 .42922975 .30799867 .3392334 .30999757 .3082428 .31098939 .2992401 .31999208 .2992401 .32199098 .2992401 .33499146 .2992401 .33499146 .304245 .33499146 .3232422V.4242401C.33499146 .4412384 .33499146 .4482422 .32398988 .4482422 .31900025 .4482422 .31698609 .4482422 .3039856 .43623353 .30099488 .43223573 .29100038 .42323304 .2869873 .42022706 .24899292 .4482422 .20799256 .4482422 .19299317 .4482422 .070999149 .4482422 .032989503 .38124085 .032989503 .3252411 .032989503 .29023744 .04899597 .26223756 .07598877 .24023438 .10798645 .21424866 .13598633 .2082367 .20799256 .19424439Z"/>
<path id="font_2_9" d="M.1769867 .4423828 .036987306 .43138124V.40037538C.101989749 .40037538 .11099243 .3943634 .11099243 .34532167V.076034549C.11099243 .0309906 .099990848 .0309906 .032989503 .0309906V0C.06498718 .0009918213 .11898804 .0029907227 .14299011 .0029907227 .17799378 .0029907227 .21299744 .0009918213 .24699402 0V.0309906C.18099976 .0309906 .1769867 .035995485 .1769867 .075042728V.4423828M.18099976 .6159363C.18099976 .64793398 .1559906 .6689453 .12799073 .6689453 .09700012 .6689453 .07499695 .64193728 .07499695 .6159363 .07499695 .5889435 .09700012 .5629425 .12799073 .5629425 .1559906 .5629425 .18099976 .5839386 .18099976 .6159363Z"/>
<path id="font_2_10" d="M.10998535 .34429933V.076034549C.10998535 .0309906 .09899902 .0309906 .03199768 .0309906V0C.066986087 .0009918213 .117996219 .0029907227 .14498902 .0029907227 .17098999 .0029907227 .22299195 .0009918213 .25698854 0V.0309906C.18998719 .0309906 .1789856 .0309906 .1789856 .076034549V.2602234C.1789856 .36431886 .25 .42037965 .31399537 .42037965 .3769989 .42037965 .3880005 .36631776 .3880005 .30926515V.076034549C.3880005 .0309906 .3769989 .0309906 .30999757 .0309906V0C.34498597 .0009918213 .3959961 .0029907227 .4229889 .0029907227 .44898988 .0029907227 .5009918 .0009918213 .5349884 0V.0309906C.48298646 .0309906 .45799256 .0309906 .45700074 .061019899V.25221253C.45700074 .3383026 .45700074 .36932374 .42599488 .405365 .4119873 .42237855 .3789978 .4423828 .32099916 .4423828 .24798584 .4423828 .20098877 .39935304 .17298889 .33729554V.4423828L.03199768 .43138124V.40037538C.101989749 .4003601 .10998535 .39335633 .10998535 .34429933Z"/>
<path id="font_2_1" d="M.33099366-.2400055C.33099366-.23701477 .33099366-.23500061 .31399537-.21800232 .18899536-.0920105 .15699768 .09700012 .15699768 .25 .15699768 .42399598 .19499207 .59799197 .31799317 .72299197 .33099366 .73498538 .33099366 .7369995 .33099366 .73999026 .33099366 .746994 .32699586 .75 .32099916 .75 .31098939 .75 .22099304 .6819916 .1619873 .5549927 .11099243 .44499208 .09899902 .33399964 .09899902 .25 .09899902 .17199707 .10998535 .050994874 .16499329-.06201172 .22499085-.18501282 .31098939-.25 .32099916-.25 .32699586-.25 .33099366-.24700928 .33099366-.2400055Z"/>
<path id="font_3_2" d="M.33399964 .30233766C.33999635 .32835389 .36299134 .42037965 .43299867 .42037965 .43798829 .42037965 .46199037 .42037965 .48298646 .40734864 .45498658 .402359 .43499757 .37734986 .43499757 .35334779 .43499757 .33735658 .44599916 .31835938 .47299195 .31835938 .49499513 .31835938 .5269928 .3363495 .5269928 .37635804 .5269928 .42837525 .46798707 .4423828 .43399049 .4423828 .37599183 .4423828 .34098817 .38935853 .32899476 .36634828 .3039856 .43237306 .25 .4423828 .22099304 .4423828 .116989139 .4423828 .05999756 .3133545 .05999756 .28834535 .05999756 .27833558 .069992069 .27833558 .07199097 .27833558 .07998657 .27833558 .08299255 .28033448 .084991458 .28933717 .11898804 .39535523 .18499756 .42037965 .21899414 .42037965 .23799134 .42037965 .272995 .4113617 .272995 .35334779 .272995 .32235719 .2559967 .25532533 .21899414 .11528015 .20298767 .053268434 .16799927 .011245728 .12399292 .011245728 .117996219 .011245728 .09498596 .011245728 .07398987 .024276734 .09899902 .029266358 .12098694 .05027771 .12098694 .07827759 .12098694 .105270389 .09899902 .11328125 .083999637 .11328125 .053985597 .11328125 .0289917 .08728027 .0289917 .055267335 .0289917 .009246826 .07899475-.0107421879 .12298584-.0107421879 .18899536-.0107421879 .22499085 .059280397 .22799683 .0652771 .23999024 .028274537 .27598573-.0107421879 .33599855-.0107421879 .43899537-.0107421879 .49598695 .118270877 .49598695 .14328003 .49598695 .1532898 .4869995 .1532898 .48399354 .1532898 .47499085 .1532898 .47299195 .14929199 .47099305 .14228821 .43798829 .03527832 .36999513 .011245728 .33799745 .011245728 .29899598 .011245728 .2829895 .043273927 .2829895 .07727051 .2829895 .09927368 .2889862 .121276859 .2999878 .16529846L.33399964 .30233766Z"/>
<path id="font_2_2" d="M.2889862 .25C.2889862 .32798768 .27799989 .44898988 .22299195 .56199648 .16299439 .68499758 .07699585 .75 .066986087 .75 .06098938 .75 .056991579 .74598696 .056991579 .73999026 .056991579 .7369995 .056991579 .73498538 .07598877 .71699526 .17399597 .6179962 .23098755 .45899964 .23098755 .25 .23098755 .07899475 .19400025-.09700012 .069992069-.2230072 .056991579-.23500061 .056991579-.23701477 .056991579-.2400055 .056991579-.2460022 .06098938-.25 .066986087-.25 .07699585-.25 .16699219-.18200684 .22599793-.055007936 .2769928 .054992677 .2889862 .16600037 .2889862 .25Z"/>
<path id="font_2_3" d="M.40899659 .23046875H.6879883C.70199587 .23046875 .72099307 .23046875 .72099307 .25045777 .72099307 .27046205 .70199587 .27046205 .6879883 .27046205H.40899659V.5500183C.40899659 .56399539 .40899659 .5830078 .3889923 .5830078 .36898805 .5830078 .36898805 .56399539 .36898805 .5500183V.27046205H.08898926C.07499695 .27046205 .055999757 .27046205 .055999757 .25045777 .055999757 .23046875 .07499695 .23046875 .08898926 .23046875H.36898805V-.05000305C.36898805-.06401062 .36898805-.08300781 .3889923-.08300781 .40899659-.08300781 .40899659-.06401062 .40899659-.05000305V.23046875Z"/>
</defs>
<path transform="matrix(1.00006,0,0,-1.00002,3.7863923,163.19596)" stroke-width=".19925" stroke-linecap="butt" stroke-miterlimit="10" stroke-linejoin="miter" fill="none" stroke="#929292" d="M24.0792 5.91869V8.75365M60.6096 5.91869V8.75365M97.14003 5.91869V8.75365M133.67044 5.91869V8.75365M170.20085 5.91869V8.75365"/>
<path transform="matrix(1.00006,0,0,-1.00002,3.7863923,163.19596)" stroke-width=".19925" stroke-linecap="butt" stroke-miterlimit="10" stroke-linejoin="miter" fill="none" stroke="#929292" d="M5.814 5.21016V9.46214M42.34439 5.21016V9.46214M115.40523 5.21016V9.46214M151.93566 5.21016V9.46214M188.46607 5.21016V9.46214"/>
<path transform="matrix(1.00006,0,0,-1.00002,3.7863923,163.19596)" stroke-width=".19925" stroke-linecap="butt" stroke-miterlimit="10" stroke-linejoin="miter" fill="none" stroke="#929292" d="M77.45732 25.67659H80.29231M77.45732 62.35744H80.29231M77.45732 99.0383H80.29231M77.45732 135.71915H80.29231"/>
<path transform="matrix(1.00006,0,0,-1.00002,3.7863923,163.19596)" stroke-width=".19925" stroke-linecap="butt" stroke-miterlimit="10" stroke-linejoin="miter" fill="none" stroke="#929292" d="M76.7488 44.01701H81.00082M76.7488 80.69788H81.00082M76.7488 117.37872H81.00082M76.7488 154.05957H81.00082"/>
<path transform="matrix(1.00006,0,0,-1.00002,3.7863923,163.19596)" stroke-width=".3985" stroke-linecap="butt" stroke-miterlimit="10" stroke-linejoin="miter" fill="none" stroke="#000000" d="M0 7.33617H192.28754"/>
<path transform="matrix(1.00006,0,0,-1.00002,196.08547,155.85964)" d="M1.99252 0-1.19551 1.59401 0 0-1.19551-1.59401"/>
<path transform="matrix(1.00006,0,0,-1.00002,3.7863923,163.19596)" stroke-width=".3985" stroke-linecap="butt" stroke-miterlimit="10" stroke-linejoin="miter" fill="none" stroke="#000000" d="M78.87482 0V159.40323"/>
<path transform="matrix(0,-1.00002,-1.00006,-0,82.66594,3.7895356)" d="M1.99252 0-1.19551 1.59401 0 0-1.19551-1.59401"/>
<use data-text="&#x2212;" xlink:href="#font_1_1" transform="matrix(9.963197,0,0,-9.962799,.21717835,167.92606)"/>
<use data-text="2" xlink:href="#font_2_5" transform="matrix(9.963197,0,0,-9.962799,7.9666445,167.92606)"/>
<use data-text="&#x03c0;" xlink:href="#font_3_1" transform="matrix(9.963197,0,0,-9.962799,12.947945,167.92606)"/>
<use data-text="&#x2212;" xlink:href="#font_1_1" transform="matrix(9.963197,0,0,-9.962799,39.240518,167.31703)"/>
<use data-text="&#x03c0;" xlink:href="#font_3_1" transform="matrix(9.963197,0,0,-9.962799,46.989984,167.31703)"/>
<use data-text="&#x03c0;" xlink:href="#font_3_1" transform="matrix(9.963197,0,0,-9.962799,116.18013,165.79502)"/>
<use data-text="2" xlink:href="#font_2_5" transform="matrix(9.963197,0,0,-9.962799,150.22217,167.92606)"/>
<use data-text="&#x03c0;" xlink:href="#font_3_1" transform="matrix(9.963197,0,0,-9.962799,155.20447,167.92606)"/>
<use data-text="3" xlink:href="#font_2_6" transform="matrix(9.963197,0,0,-9.962799,186.75437,167.92606)"/>
<use data-text="&#x03c0;" xlink:href="#font_3_1" transform="matrix(9.963197,0,0,-9.962799,191.73667,167.92606)"/>
<use data-text="1" xlink:href="#font_2_4" transform="matrix(9.963197,0,0,-9.962799,72.03848,122.38814)"/>
<use data-text="2" xlink:href="#font_2_5" transform="matrix(9.963197,0,0,-9.962799,72.03848,85.706409)"/>
<use data-text="3" xlink:href="#font_2_6" transform="matrix(9.963197,0,0,-9.962799,72.03848,49.025667)"/>
<use data-text="4" xlink:href="#font_2_7" transform="matrix(9.963197,0,0,-9.962799,72.03848,12.343933)"/>
<path transform="matrix(1.00006,0,0,-1.00002,3.7863923,163.19596)" stroke-width=".99628" stroke-linecap="butt" stroke-miterlimit="10" stroke-linejoin="miter" fill="none" stroke="#0000ff" d="M.96295 65.83727 .97624 65.87477 1.9525 68.73917 2.92877 71.69052 3.90503 74.70348 4.8813 77.75935 5.85756 80.83505 6.83383 83.91 7.81009 86.96294 8.78636 89.97151 9.76262 92.91551 10.73888 95.77223 11.71513 98.52402 12.6914 101.14891 13.66766 103.62999 14.64394 105.95006 15.6202 108.09149 16.59645 110.04144 17.57272 111.78378 18.54898 113.3064 19.52525 114.59978 20.5015 115.65434 21.47777 116.46315 22.45403 117.01997 23.4303 117.32002 24.40656 117.36258 25.38283 117.1469 26.35909 116.67409 27.33536 115.94852 28.31161 114.97429 29.28789 113.75795 30.26413 112.30943 31.24039 110.63824 32.21666 108.75578 33.19292 106.67671 34.16919 104.4124 35.14545 101.9823 36.12172 99.40326 37.09798 96.69072 38.07425 93.86664 39.0505 90.94943 40.02676 87.95993 41.00302 84.9191 41.9793 81.84854 42.95555 78.77138 43.93182 75.70633 44.90808 72.67686 45.88435 69.7035 46.86061 66.80757 47.83687 64.00955 48.81314 61.32927 49.78938 58.78546 50.76566 56.39606 51.74191 54.17798 52.71819 52.14548 53.69444 50.31474 54.67072 48.69968 55.64697 47.30875 56.62325 46.15294 57.5995 45.23996 58.57578 44.57675 59.55203 44.17033 60.52829 44.01994 61.50455 44.12779 62.4808 44.49277 63.45708 45.11194 64.43333 45.98311 65.4096 47.10004 66.38586 48.45209 67.36214 50.03157 68.3384 51.82637 69.31467 53.82584 70.29091 56.01422 71.26718 58.37683 72.24344 60.89534 73.21971 63.5547 74.19597 66.33401 75.17224 69.21567 76.1485 72.17763 77.12477 75.19867 78.10103 78.25859 79.07729 81.33647 80.05354 84.40924 81.0298 87.45558 82.00607 90.4557 82.98233 93.38687 83.9586 96.22816 84.93486 98.9598 85.91113 101.56267 86.88739 104.01918 87.86366 106.311 88.83992 108.42345 89.81618 110.33966 90.79243 112.04568 91.76869 113.53236 92.74496 114.78795 93.72124 115.80327 94.6975 116.57173 95.67375 117.086 96.65002 117.34387 97.62628 117.34459 98.60262 117.08783 99.57877 116.57393 100.5551 115.80656 101.53127 114.79234 102.5076 113.5375 103.48392 112.05264 104.4601 110.34662 105.43642 108.43115 106.4126 106.31944 107.38892 104.02798 108.36523 101.57219 109.3414 98.97041 110.31772 96.2388 111.2939 93.39824 112.27022 90.46707 113.24655 87.46768 114.22272 84.42097 115.19905 81.34784 116.17522 78.27106 117.15154 75.21042 118.12787 72.18864 119.10405 69.22629 120.08035 66.34465 121.05653 63.56534 122.03287 60.90561 123.00919 58.38564 123.98534 56.02266 124.96167 53.83354 125.93784 51.83371 126.91417 50.03818 127.89049 48.4576 128.86669 47.10443 129.84297 45.98714 130.81916 45.1145 131.79549 44.4946 132.7718 44.12852 133.74799 44.01923 134.7243 44.16924 135.70047 44.57494 136.6768 45.23701 137.65312 46.14891 138.6293 47.30399 139.6056 48.69382 140.58179 50.30814 141.5581 52.13815 142.53444 54.16954 143.51062 56.38763 144.48694 58.77628 145.4631 61.31938 146.43944 63.9989 147.41577 66.79692 148.39192 69.6925 149.36824 72.6655 150.34442 75.6946 151.32074 78.75964 152.29706 81.8368 153.27324 84.90736 154.24958 87.9482 155.22573 90.9377 156.20207 93.85602 157.1784 96.68007 158.15456 99.39299 159.13086 101.97276 160.10704 104.40434 161.08338 106.66827 162.0597 108.74844 163.03588 110.63164 164.01219 112.30318 164.98838 113.75244 165.96469 114.97025 166.94101 115.94522 167.91719 116.67224 168.89351 117.14542 169.86968 117.36183 170.84601 117.32112 171.82233 117.02145 172.7985 116.46573 173.77483 115.65837 174.751 114.60382 175.72733 113.3119 176.70365 111.79002 177.67981 110.04878 178.65615 108.0992 179.6323 105.95886 180.60863 103.63953 181.58495 101.15916 182.56113 98.53465 183.53745 95.78287 184.51363 92.9269 185.48996 89.9829 186.46628 86.97432 187.44246 83.92174 188.41878 80.84679 189.39493 77.77109 190.37125 74.71559 191.34758 71.70189 192.32376 68.75092 193.30008 65.88539 193.3135 65.84763"/>
<path transform="matrix(-.33332,.9427789,.9428165,.33330668,4.74942,97.35736)" d="M2.8892 0-1.73352 2.31136 0 0-1.73352-2.31136" fill="#0000ff"/>
<path transform="matrix(.33323998,.9428189,.9428565,-.33322669,197.1115,97.34699)" d="M2.8892 0-1.73352 2.31136 0 0-1.73352-2.31136" fill="#0000ff"/>
<use data-text="y" xlink:href="#font_3_3" transform="matrix(9.963197,0,0,-9.962799,109.96375,129.08727)" fill="#0000ff"/>
<use data-text="=" xlink:href="#font_2_8" transform="matrix(9.963197,0,0,-9.962799,117.974239,129.08727)" fill="#0000ff"/>
<use data-text="s" xlink:href="#font_2_11" transform="matrix(9.963197,0,0,-9.962799,128.47544,129.08727)" fill="#0000ff"/>
<use data-text="i" xlink:href="#font_2_9" transform="matrix(9.963197,0,0,-9.962799,132.40094,129.08727)" fill="#0000ff"/>
<use data-text="n" xlink:href="#font_2_10" transform="matrix(9.963197,0,0,-9.962799,135.16075,129.08727)" fill="#0000ff"/>
<use data-text="(" xlink:href="#font_2_1" transform="matrix(9.963197,0,0,-9.962799,140.69033,129.08727)" fill="#0000ff"/>
<use data-text="x" xlink:href="#font_3_2" transform="matrix(9.963197,0,0,-9.962799,144.59783,129.08727)" fill="#0000ff"/>
<use data-text=")" xlink:href="#font_2_2" transform="matrix(9.963197,0,0,-9.962799,150.29216,129.08727)" fill="#0000ff"/>
<use data-text="+" xlink:href="#font_2_3" transform="matrix(9.963197,0,0,-9.962799,156.36972,129.08727)" fill="#0000ff"/>
<use data-text="2" xlink:href="#font_2_5" transform="matrix(9.963197,0,0,-9.962799,166.32295,129.08727)" fill="#0000ff"/>
<use data-text="x" xlink:href="#font_3_2" transform="matrix(9.963197,0,0,-9.962799,188.86348,152.33974)"/>
<use data-text="y" xlink:href="#font_3_3" transform="matrix(9.963197,0,0,-9.962799,86.18633,9.606873)"/>
</svg>
