<svg xmlns="http://www.w3.org/2000/svg" xmlns:xlink="http://www.w3.org/1999/xlink" version="1.1" width="202" height="178" viewBox="0 0 202 178">
<defs>
<path id="font_1_1" d="M.31098939 .36265565H.42999269C.4149933 .30274964 .3929901 .2118988 .3929901 .13302613 .3929901 .09309387 .397995 .06613159 .4039917 .044174196 .41999818-.0057678224 .43299867-.009765625 .44898988-.009765625 .47200013-.009765625 .49598695 .011230469 .49598695 .035186769 .49598695 .043182374 .49398805 .047164918 .48799134 .057159425 .46899415 .09408569 .45098878 .15100098 .45098878 .23286438 .45098878 .25183106 .45098878 .29177857 .46499635 .36265565H.58999636C.60798647 .36265565 .6159973 .36265565 .6269989 .37065126 .6409912 .380661 .6439972 .39665223 .6439972 .4016571 .6439972 .43066407 .6179962 .43066407 .6009979 .43066407H.22399903C.18299866 .43066407 .15499878 .42166139 .10998535 .37965394 .083999637 .35665895 .04499817 .30274964 .04499817 .2937622 .04499817 .28178407 .057998659 .28178407 .06199646 .28178407 .07299805 .28178407 .07398987 .28378297 .07998657 .2927704 .1309967 .36265565 .19299317 .36265565 .21499634 .36265565H.27598573C.24499512 .25283814 .19099427 .13502503 .16099549 .07511902 .15499878 .062149049 .14498902 .04118347 .14199829 .03718567 .14099121 .033187868 .13899231 .029190064 .13899231 .022201539 .13899231 .006225586 .15098572-.009765625 .17399597-.009765625 .21398926-.009765625 .22499085 .035186769 .24899292 .12504578L.31098939 .36265565Z"/>
<path id="font_2_3" d="M.5289917 .1640625V.20005799H.41799928V.64582827C.41799928 .66682437 .41799928 .6738281 .3959961 .6738281 .38398744 .6738281 .37998963 .6738281 .36999513 .65982058L.038986207 .20005799V.1640625H.33299256V.08201599C.33299256 .04800415 .33299256 .035995485 .2519989 .035995485H.22499085V0C.2749939 .0019989014 .33898927 .0039978029 .375 .0039978029 .4119873 .0039978029 .47599793 .0019989014 .526001 0V.035995485H.49899293C.41799928 .035995485 .41799928 .04800415 .41799928 .08201599V.1640625H.5289917M.33999635 .5658722V.20005799H.07598877L.33999635 .5658722Z"/>
<path id="font_2_1" d="M.5049896 .18203736H.47099305C.46798707 .16001892 .45799256 .100997928 .44499208 .09098816 .43699647 .084991458 .3600006 .084991458 .34599305 .084991458H.1619873C.2669983 .17803955 .3019867 .20603943 .3619995 .25306703 .43598939 .312088 .5049896 .374115 .5049896 .46914674 .5049896 .5900879 .39898683 .6640625 .2709961 .6640625 .14698792 .6640625 .06298828 .57710269 .06298828 .4851532 .06298828 .43414308 .10598755 .42915345 .115997318 .42915345 .13999939 .42915345 .16899109 .44615174 .16899109 .48214723 .16899109 .5001526 .1619873 .53515627 .10998535 .53515627 .14099121 .6060791 .20899964 .62805178 .2559967 .62805178 .35598756 .62805178 .4079895 .5501404 .4079895 .46914674 .4079895 .38212586 .34599305 .3130951 .31399537 .27708436L.07299805 .038986207C.06298828 .02999878 .06298828 .027999878 .06298828 0H.47499085L.5049896 .18203736Z"/>
<path id="font_2_2" d="M.272995 .33428956C.35099793 .33428956 .40699769 .2803192 .40699769 .1733551 .40699769 .04940796 .33499146 .012466431 .2769928 .012466431 .23699951 .012466431 .14898682 .0234375 .10699463 .082351688 .1539917 .084350589 .16499329 .11735535 .16499329 .13835144 .16499329 .17034912 .14099121 .19335938 .10998535 .19335938 .08198547 .19335938 .053985597 .17634583 .053985597 .13534546 .053985597 .041412355 .1579895-.01953125 .2789917-.01953125 .41799928-.01953125 .5139923 .07336426 .5139923 .1733551 .5139923 .2513275 .44999696 .32929994 .33999635 .35229493 .44499208 .39024354 .48298646 .4650879 .48298646 .5260773 .48298646 .60505679 .3919983 .6640625 .2809906 .6640625 .16999817 .6640625 .084991458 .61006167 .084991458 .5300751 .084991458 .49606324 .10699463 .47706605 .13699341 .47706605 .16799927 .47706605 .18798828 .5000763 .18798828 .5280762 .18798828 .5570679 .16799927 .57806399 .13699341 .5800781 .17199707 .62405398 .24099732 .63505557 .27799989 .63505557 .32299806 .63505557 .38598634 .6130676 .38598634 .5260773 .38598634 .48406983 .37199403 .43814088 .34599305 .4072113 .31298829 .36927796 .2849884 .3672943 .23498535 .36428834 .20999146 .3623047 .20799256 .3623047 .20298767 .3612976 .20098877 .3612976 .19299317 .3592987 .19299317 .34829713 .19299317 .33428956 .20199585 .33428956 .21899414 .33428956H.272995Z"/>
<path id="font_3_1" d="M.2649994 .37265016H.37799073C.34498597 .22489929 .33599855 .18196106 .33599855 .11508179 .33599855 .100097659 .33599855 .073150638 .34399415 .03919983 .35398866-.0047454836 .36499024-.0107421879 .37998963-.0107421879 .3999939-.0107421879 .42099 .007247925 .42099 .02722168 .42099 .033218385 .42099 .035202028 .4149933 .049179079 .38598634 .12106323 .38598634 .18595886 .38598634 .21391297 .38598634 .26683045 .3929901 .32073976 .4039917 .37265016H.5179901C.5309906 .37265016 .5669861 .37265016 .5669861 .406662 .5669861 .43066407 .54599 .43066407 .5269928 .43066407H.19198609C.16999817 .43066407 .13198853 .43066407 .08799744 .38365174 .052993776 .34469605 .026992798 .29878236 .026992798 .29379273 .026992798 .29278565 .026992798 .28379823 .038986207 .28379823 .04699707 .28379823 .04899597 .28779603 .054992677 .29577638 .10398865 .37265016 .1619873 .37265016 .18199158 .37265016H.23899842C.20698548 .25186158 .15299988 .13105774 .11099243 .04020691 .102996829 .025222779 .102996829 .023223877 .102996829 .016235352 .102996829-.002746582 .11898804-.0107421879 .13198853-.0107421879 .1619873-.0107421879 .16999817 .017242432 .18199158 .05418396 .19599915 .100097659 .19599915 .10209656 .20899964 .15202332L.2649994 .37265016Z"/>
<path id="font_2_4" d="M.15499878 .5588074C.20599365 .5458069 .23599243 .5458069 .2519989 .5458069 .38398744 .5458069 .46199037 .6358032 .46199037 .6508026 .46199037 .6618042 .45498658 .6648102 .44999696 .6648102 .44799806 .6648102 .44599916 .6648102 .44198609 .6618042 .41799928 .6528015 .36499024 .6328125 .29100038 .6328125 .2630005 .6328125 .20999146 .6348114 .14498902 .6598053 .1349945 .6648102 .1329956 .6648102 .13198853 .6648102 .11898804 .6648102 .11898804 .6538086 .11898804 .6378021V.34251405C.11898804 .32548524 .11898804 .3134613 .1349945 .3134613 .14399719 .3134613 .14498902 .3154602 .15499878 .32748414 .19799805 .38259889 .25898744 .390625 .2939911 .390625 .35398866 .390625 .3809967 .34251405 .38598634 .33450318 .4039917 .30143739 .4099884 .26335145 .4099884 .20524597 .4099884 .17524719 .4099884 .116256717 .37998963 .07234192 .35499574 .03640747 .31199647 .012466431 .2630005 .012466431 .19799805 .012466431 .1309967 .04838562 .10598755 .11425781 .14399719 .11125183 .16299439 .13624573 .16299439 .16325379 .16299439 .20625305 .12599182 .21424866 .11299133 .21424866 .11099243 .21424866 .06298828 .21424866 .06298828 .1602478 .06298828 .07034302 .14498902-.01953125 .2649994-.01953125 .3929901-.01953125 .5049896 .07533264 .5049896 .20124817 .5049896 .31445313 .4189911 .41862489 .29499818 .41862489 .25099183 .41862489 .19898987 .4076233 .15499878 .36956788V.5588074Z"/>
<path id="font_2_5" d="M.5349884 .6045227C.54499819 .6165161 .54499819 .6185303 .54499819 .64453127H.2829895C.24299622 .64453127 .23199463 .6455078 .19599915 .6484375 .14399719 .65234377 .14199829 .6592407 .13899231 .676239H.10499573L.069992069 .46250917H.10398865C.10598755 .47750855 .115997318 .54351809 .13198853 .5535126 .13999939 .55952456 .22099304 .55952456 .23599243 .55952456H.45399476C.42199708 .5175171 .37098695 .45550538 .34999085 .4275055 .21899414 .25549317 .20698548 .096466068 .20698548 .037460329 .20698548 .02645874 .20698548-.01953125 .2539978-.01953125 .3019867-.01953125 .3019867 .025466919 .3019867 .038467409V.07847595C.3019867 .27249146 .34199525 .36149598 .3849945 .41551209L.5349884 .6045227Z"/>
<path id="font_4_5" d="M.1269989 .07699585 .23298645 .18003845C.3889923 .31811524 .44898988 .3721466 .44898988 .47216798 .44898988 .5860901 .35899354 .6660156 .23699951 .6660156 .12399292 .6660156 .049987794 .57411196 .049987794 .48516847 .049987794 .4291687 .099990848 .4291687 .102996829 .4291687 .11999512 .4291687 .15499878 .44117738 .15499878 .48217774 .15499878 .5081787 .13699341 .5341797 .101989749 .5341797 .09399414 .5341797 .09199524 .5341797 .08898926 .5331726 .11199951 .59806826 .1659851 .63500979 .22399903 .63500979 .31498719 .63500979 .35798646 .5541382 .35798646 .47216798 .35798646 .39215089 .30799867 .31311036 .25299073 .25108338L.06098938 .036987306C.049987794 .025985718 .049987794 .023986817 .049987794 0H.42099L.44898988 .17404175H.42399598C.4189911 .14402771 .4119873 .1000061 .4019928 .084991458 .394989 .07699585 .32899476 .07699585 .30699159 .07699585H.1269989Z"/>
<path id="font_5_1" d="M.6589966 .23046875C.6759949 .23046875 .69400027 .23046875 .69400027 .25045777 .69400027 .27046205 .6759949 .27046205 .6589966 .27046205H.117996219C.100997928 .27046205 .08299255 .27046205 .08299255 .25045777 .08299255 .23046875 .100997928 .23046875 .117996219 .23046875H.6589966Z"/>
<path id="font_4_7" d="M.2939911 .16503906V.07800293C.2939911 .041992189 .2919922 .0309906 .21798706 .0309906H.19699097V0C.23799134 .0029907227 .2899933 .0029907227 .33198548 .0029907227 .37399293 .0029907227 .4269867 .0029907227 .46798707 0V.0309906H.44699098C.37298585 .0309906 .37098695 .041992189 .37098695 .07800293V.16503906H.47099305V.19602967H.37098695V.65075686C.37098695 .67074587 .37098695 .6767578 .35499574 .6767578 .34599305 .6767578 .34298707 .6767578 .33499146 .66474917L.027999878 .19602967V.16503906H.2939911M.2999878 .19602967H.055999757L.2999878 .5688019V.19602967Z"/>
<path id="font_4_6" d="M.2899933 .35191346C.37199403 .37893678 .42999269 .4490509 .42999269 .52809146 .42999269 .6100464 .34199525 .6660156 .24598694 .6660156 .14498902 .6660156 .068984989 .60606387 .068984989 .53009036 .068984989 .49710084 .09098816 .47808839 .11999512 .47808839 .15098572 .47808839 .17098999 .50009158 .17098999 .5290985 .17098999 .57910159 .12399292 .57910159 .10899353 .57910159 .13999939 .62802127 .20599365 .64100649 .24198914 .64100649 .2829895 .64100649 .33799745 .6190338 .33799745 .5290985 .33799745 .51708987 .33599855 .45906068 .30999757 .4149933 .27999879 .36691285 .24598694 .36390687 .22099304 .36291505 .21299744 .36190797 .18899536 .35990907 .18199158 .35990907 .17399597 .35890199 .16699219 .35791017 .16699219 .3479004 .16699219 .33691407 .17399597 .33691407 .19099427 .33691407H.23498535C.31698609 .33691407 .35398866 .2686615 .35398866 .17037964 .35398866 .034469606 .2849884 .0055389406 .24099732 .0055389406 .19799805 .0055389406 .12298584 .022491456 .08799744 .08137512 .12298584 .07637024 .1539917 .09837341 .1539917 .1363678 .1539917 .17237854 .1269989 .19238281 .09799194 .19238281 .07398987 .19238281 .041992189 .17837525 .041992189 .1343689 .041992189 .043441774 .1349945-.022460938 .24398804-.022460938 .3659973-.022460938 .45700074 .06838989 .45700074 .17037964 .45700074 .252594 .3939972 .33088685 .2899933 .35191346Z"/>
<path id="font_4_4" d="M.2939911 .64004519C.2939911 .66400149 .2939911 .6660156 .2709961 .6660156 .20899964 .60227969 .12098694 .60227969 .08898926 .60227969V.57128909C.10899353 .57128909 .16799927 .57128909 .21998596 .5972748V.07902527C.21998596 .042999269 .21699524 .0309906 .1269989 .0309906H.09498596V0C.12998963 .0029907227 .21699524 .0029907227 .25698854 .0029907227 .29699708 .0029907227 .38398744 .0029907227 .4189911 0V.0309906H.3869934C.29699708 .0309906 .2939911 .041992189 .2939911 .07902527V.64004519Z"/>
<path id="font_3_3" d="M.48599244 .38136292C.48999024 .39537049 .48999024 .39736939 .48999024 .40437318 .48999024 .42237855 .47599793 .43138124 .46099855 .43138124 .45098878 .43138124 .43499757 .42536927 .42599488 .41036988 .42399598 .405365 .41600038 .37435914 .4119873 .35635377 .40499879 .33035279 .397995 .30334474 .3919983 .27633668L.34700013 .09628296C.34298707 .08126831 .2999878 .011245728 .23399353 .011245728 .18299866 .011245728 .17199707 .055267335 .17199707 .0922699 .17199707 .1382904 .18899536 .20030213 .22299195 .28833009 .23899842 .3293457 .24299622 .3403473 .24299622 .36035157 .24299622 .405365 .21099854 .4423828 .16099549 .4423828 .06599426 .4423828 .0289917 .29733277 .0289917 .28833009 .0289917 .27833558 .038986207 .27833558 .040985109 .27833558 .050994874 .27833558 .051986696 .28033448 .056991579 .29634095 .083999637 .3903656 .12399292 .42037965 .1579895 .42037965 .1659851 .42037965 .18299866 .42037965 .18299866 .3883667 .18299866 .36335755 .17298889 .3373413 .1659851 .31834413 .12599182 .21231079 .10798645 .1552887 .10798645 .10827637 .10798645 .019256592 .17098999-.0107421879 .22999573-.0107421879 .2689972-.0107421879 .30299378 .0062561037 .33099366 .03425598 .31799317-.017745972 .30599977-.06674194 .2659912-.11973572 .23999024-.15385437 .20199585-.18309021 .1559906-.18309021 .14199829-.18309021 .09700012-.18005371 .07998657-.14074707 .09599304-.14074707 .10899353-.14074707 .12298584-.1287384 .1329956-.11973572 .14299011-.10673523 .14299011-.08773804 .14299011-.056747438 .115997318-.052734376 .10598755-.052734376 .08299255-.052734376 .049987794-.068740848 .049987794-.11773682 .049987794-.16796875 .09399414-.20507813 .1559906-.20507813 .25898744-.20507813 .3619995-.11373901 .3899994-.00074768069L.48599244 .38136292Z"/>
<path id="font_4_8" d="M.68699648 .32714845C.70199587 .32714845 .72099307 .32714845 .72099307 .34713746 .72099307 .36714173 .70199587 .36714173 .6879883 .36714173H.08898926C.07499695 .36714173 .055999757 .36714173 .055999757 .34713746 .055999757 .32714845 .07499695 .32714845 .08999634 .32714845H.68699648M.6879883 .13284302C.70199587 .13284302 .72099307 .13284302 .72099307 .15284729 .72099307 .17285156 .70199587 .17285156 .68699648 .17285156H.08999634C.07499695 .17285156 .055999757 .17285156 .055999757 .15284729 .055999757 .13284302 .07499695 .13284302 .08898926 .13284302H.6879883Z"/>
<path id="font_4_12" d="M.20799256 .19424439C.22999573 .19024658 .31199647 .17424011 .31199647 .102249149 .31199647 .051254274 .2769928 .011245728 .19898987 .011245728 .114990238 .011245728 .07899475 .06825256 .05999756 .15324402 .056991579 .1662445 .055999757 .17024231 .04598999 .17024231 .032989503 .17024231 .032989503 .16323853 .032989503 .14524842V.013244629C.032989503-.003753662 .032989503-.0107421879 .04399109-.0107421879 .04899597-.0107421879 .049987794-.009750366 .068984989 .009246826 .070999149 .011245728 .070999149 .013244629 .08898926 .03224182 .1329956-.009750366 .17799378-.0107421879 .19898987-.0107421879 .31399537-.0107421879 .3600006 .056243898 .3600006 .12825012 .3600006 .1812439 .32998658 .21124268 .31799317 .22323609 .2849884 .25523377 .24598694 .26324464 .20399475 .27124024 .147995 .28224183 .08099365 .2952423 .08099365 .35324098 .08099365 .38822938 .10699463 .42922975 .19299317 .42922975 .30299378 .42922975 .30799867 .3392334 .30999757 .3082428 .31098939 .2992401 .31999208 .2992401 .32199098 .2992401 .33499146 .2992401 .33499146 .304245 .33499146 .3232422V.4242401C.33499146 .4412384 .33499146 .4482422 .32398988 .4482422 .31900025 .4482422 .31698609 .4482422 .3039856 .43623353 .30099488 .43223573 .29100038 .42323304 .2869873 .42022706 .24899292 .4482422 .20799256 .4482422 .19299317 .4482422 .070999149 .4482422 .032989503 .38124085 .032989503 .3252411 .032989503 .29023744 .04899597 .26223756 .07598877 .24023438 .10798645 .21424866 .13598633 .2082367 .20799256 .19424439Z"/>
<path id="font_4_10" d="M.1769867 .4423828 .036987306 .43138124V.40037538C.101989749 .40037538 .11099243 .3943634 .11099243 .34532167V.076034549C.11099243 .0309906 .099990848 .0309906 .032989503 .0309906V0C.06498718 .0009918213 .11898804 .0029907227 .14299011 .0029907227 .17799378 .0029907227 .21299744 .0009918213 .24699402 0V.0309906C.18099976 .0309906 .1769867 .035995485 .1769867 .075042728V.4423828M.18099976 .6159363C.18099976 .64793398 .1559906 .6689453 .12799073 .6689453 .09700012 .6689453 .07499695 .64193728 .07499695 .6159363 .07499695 .5889435 .09700012 .5629425 .12799073 .5629425 .1559906 .5629425 .18099976 .5839386 .18099976 .6159363Z"/>
<path id="font_4_11" d="M.10998535 .34429933V.076034549C.10998535 .0309906 .09899902 .0309906 .03199768 .0309906V0C.066986087 .0009918213 .117996219 .0029907227 .14498902 .0029907227 .17098999 .0029907227 .22299195 .0009918213 .25698854 0V.0309906C.18998719 .0309906 .1789856 .0309906 .1789856 .076034549V.2602234C.1789856 .36431886 .25 .42037965 .31399537 .42037965 .3769989 .42037965 .3880005 .36631776 .3880005 .30926515V.076034549C.3880005 .0309906 .3769989 .0309906 .30999757 .0309906V0C.34498597 .0009918213 .3959961 .0029907227 .4229889 .0029907227 .44898988 .0029907227 .5009918 .0009918213 .5349884 0V.0309906C.48298646 .0309906 .45799256 .0309906 .45700074 .061019899V.25221253C.45700074 .3383026 .45700074 .36932374 .42599488 .405365 .4119873 .42237855 .3789978 .4423828 .32099916 .4423828 .24798584 .4423828 .20098877 .39935304 .17298889 .33729554V.4423828L.03199768 .43138124V.40037538C.101989749 .4003601 .10998535 .39335633 .10998535 .34429933Z"/>
<path id="font_4_1" d="M.33099366-.2400055C.33099366-.23701477 .33099366-.23500061 .31399537-.21800232 .18899536-.0920105 .15699768 .09700012 .15699768 .25 .15699768 .42399598 .19499207 .59799197 .31799317 .72299197 .33099366 .73498538 .33099366 .7369995 .33099366 .73999026 .33099366 .746994 .32699586 .75 .32099916 .75 .31098939 .75 .22099304 .6819916 .1619873 .5549927 .11099243 .44499208 .09899902 .33399964 .09899902 .25 .09899902 .17199707 .10998535 .050994874 .16499329-.06201172 .22499085-.18501282 .31098939-.25 .32099916-.25 .32699586-.25 .33099366-.24700928 .33099366-.2400055Z"/>
<path id="font_3_2" d="M.33399964 .30233766C.33999635 .32835389 .36299134 .42037965 .43299867 .42037965 .43798829 .42037965 .46199037 .42037965 .48298646 .40734864 .45498658 .402359 .43499757 .37734986 .43499757 .35334779 .43499757 .33735658 .44599916 .31835938 .47299195 .31835938 .49499513 .31835938 .5269928 .3363495 .5269928 .37635804 .5269928 .42837525 .46798707 .4423828 .43399049 .4423828 .37599183 .4423828 .34098817 .38935853 .32899476 .36634828 .3039856 .43237306 .25 .4423828 .22099304 .4423828 .116989139 .4423828 .05999756 .3133545 .05999756 .28834535 .05999756 .27833558 .069992069 .27833558 .07199097 .27833558 .07998657 .27833558 .08299255 .28033448 .084991458 .28933717 .11898804 .39535523 .18499756 .42037965 .21899414 .42037965 .23799134 .42037965 .272995 .4113617 .272995 .35334779 .272995 .32235719 .2559967 .25532533 .21899414 .11528015 .20298767 .053268434 .16799927 .011245728 .12399292 .011245728 .117996219 .011245728 .09498596 .011245728 .07398987 .024276734 .09899902 .029266358 .12098694 .05027771 .12098694 .07827759 .12098694 .105270389 .09899902 .11328125 .083999637 .11328125 .053985597 .11328125 .0289917 .08728027 .0289917 .055267335 .0289917 .009246826 .07899475-.0107421879 .12298584-.0107421879 .18899536-.0107421879 .22499085 .059280397 .22799683 .0652771 .23999024 .028274537 .27598573-.0107421879 .33599855-.0107421879 .43899537-.0107421879 .49598695 .118270877 .49598695 .14328003 .49598695 .1532898 .4869995 .1532898 .48399354 .1532898 .47499085 .1532898 .47299195 .14929199 .47099305 .14228821 .43798829 .03527832 .36999513 .011245728 .33799745 .011245728 .29899598 .011245728 .2829895 .043273927 .2829895 .07727051 .2829895 .09927368 .2889862 .121276859 .2999878 .16529846L.33399964 .30233766Z"/>
<path id="font_4_2" d="M.2889862 .25C.2889862 .32798768 .27799989 .44898988 .22299195 .56199648 .16299439 .68499758 .07699585 .75 .066986087 .75 .06098938 .75 .056991579 .74598696 .056991579 .73999026 .056991579 .7369995 .056991579 .73498538 .07598877 .71699526 .17399597 .6179962 .23098755 .45899964 .23098755 .25 .23098755 .07899475 .19400025-.09700012 .069992069-.2230072 .056991579-.23500061 .056991579-.23701477 .056991579-.2400055 .056991579-.2460022 .06098938-.25 .066986087-.25 .07699585-.25 .16699219-.18200684 .22599793-.055007936 .2769928 .054992677 .2889862 .16600037 .2889862 .25Z"/>
<path id="font_4_9" d="M.116989139 .21801758C.116989139 .38093568 .19898987 .42323304 .2519989 .42323304 .26098634 .42323304 .32398988 .42222596 .35899354 .38594056 .31799317 .38293458 .31199647 .3529358 .31199647 .3399353 .31199647 .31393434 .32998658 .2939453 .35798646 .2939453 .38398744 .2939453 .4039917 .3109436 .4039917 .34094239 .4039917 .40911866 .32798768 .4482422 .25099183 .4482422 .12599182 .4482422 .033996583 .3399353 .033996583 .21601868 .033996583 .08816528 .1329956-.0107421879 .24899292-.0107421879 .3829956-.0107421879 .4149933 .10914612 .4149933 .119140628 .4149933 .12911988 .40499879 .12911988 .4019928 .12911988 .3929901 .12911988 .3909912 .12512207 .3889923 .119140628 .3600006 .026229859 .29499818 .014251709 .2579956 .014251709 .20498657 .014251709 .116989139 .0572052 .116989139 .21801758Z"/>
<path id="font_4_3" d="M.45999146 .31976319C.45999146 .39982606 .45498658 .47988893 .41999818 .5539398 .37399293 .65000918 .2919922 .6660156 .25 .6660156 .18998719 .6660156 .116989139 .64001467 .07598877 .54693606 .04399109 .47789 .038986207 .39982606 .038986207 .31976319 .038986207 .24472046 .042999269 .15464783 .083999637 .07859802 .1269989-.0024719239 .19999695-.022460938 .24899292-.022460938 .30299378-.022460938 .3789978-.0014648438 .4229889 .09359741 .45498658 .16265869 .45999146 .2407074 .45999146 .31976319M.24899292-.00047302247C.20999146-.00047302247 .15098572 .024551392 .1329956 .12062073 .12199402 .18066406 .12199402 .2727356 .12199402 .3317871 .12199402 .39582826 .12199402 .46188355 .12998963 .5159149 .14898682 .63500979 .22399903 .64401248 .24899292 .64401248 .28199769 .64401248 .34799195 .6259918 .36698915 .52693179 .3769989 .47088624 .3769989 .39482118 .3769989 .3317871 .3769989 .25672914 .3769989 .18867493 .3659973 .12461853 .35099793 .029556275 .2939911-.00047302247 .24899292-.00047302247Z"/>
</defs>
<path transform="matrix(1.00003,0,0,-1.00003,5.2567369,165.72159)" stroke-width=".19925" stroke-linecap="butt" stroke-miterlimit="10" stroke-linejoin="miter" fill="none" stroke="#929292" d="M34.28764 78.56856V82.82048M55.23813 78.56856V82.82048M76.1886 78.56856V82.82048M97.13908 78.56856V82.82048M118.08955 78.56856V82.82048M139.04004 78.56856V82.82048M159.99051 78.56856V82.82048M180.941 78.56856V82.82048"/>
<path transform="matrix(1.00003,0,0,-1.00003,5.2567369,165.72159)" stroke-width=".19925" stroke-linecap="butt" stroke-miterlimit="10" stroke-linejoin="miter" fill="none" stroke="#929292" d="M11.21147 18.62181H15.46341M11.21147 34.13998H15.46341M11.21147 49.65817H15.46341M11.21147 65.17635H15.46341M11.21147 96.2127H15.46341M11.21147 111.73088H15.46341M11.21147 127.24907H15.46341M11.21147 142.76725H15.46341"/>
<path transform="matrix(1.00003,0,0,-1.00003,5.2567369,165.72159)" stroke-width=".3985" stroke-linecap="butt" stroke-miterlimit="10" stroke-linejoin="miter" fill="none" stroke="#000000" d="M0 80.69452H192.28577"/>
<path transform="matrix(1.00003,0,0,-1.00003,197.54828,85.02464)" d="M1.99252 0-1.19551 1.59401 0 0-1.19551-1.59401"/>
<path transform="matrix(1.00003,0,0,-1.00003,5.2567369,165.72159)" stroke-width=".3985" stroke-linecap="butt" stroke-miterlimit="10" stroke-linejoin="miter" fill="none" stroke="#000000" d="M13.33745 0V159.39653"/>
<path transform="matrix(0,-1.00003,-1.00003,-0,18.594588,6.3202669)" d="M1.99252 0-1.19551 1.59401 0 0-1.19551-1.59401"/>
<use data-text="&#x03c0;" xlink:href="#font_1_1" transform="matrix(6.9740097,0,0,-6.9740097,37.0907,93.673419)"/>
<path transform="matrix(1.00003,0,0,-1.00003,-63.72233,-41.868654)" stroke-width=".3985" stroke-linecap="butt" stroke-miterlimit="10" stroke-linejoin="miter" fill="none" stroke="#000000" d="M100.81-136.97H105.719"/>
<use data-text="4" xlink:href="#font_2_3" transform="matrix(6.9740097,0,0,-6.9740097,37.559717,101.03163)"/>
<use data-text="&#x03c0;" xlink:href="#font_1_1" transform="matrix(6.9740097,0,0,-6.9740097,58.041326,93.673419)"/>
<path transform="matrix(1.00003,0,0,-1.00003,-42.7717,-41.868654)" stroke-width=".3985" stroke-linecap="butt" stroke-miterlimit="10" stroke-linejoin="miter" fill="none" stroke="#000000" d="M100.81-136.97H105.719"/>
<use data-text="2" xlink:href="#font_2_1" transform="matrix(6.9740097,0,0,-6.9740097,58.51034,101.03163)"/>
<use data-text="3" xlink:href="#font_2_2" transform="matrix(6.9740097,0,0,-6.9740097,77.0069,95.16446)"/>
<use data-text="&#x03c0;" xlink:href="#font_1_1" transform="matrix(6.9740097,0,0,-6.9740097,80.97802,95.16446)"/>
<path transform="matrix(1.00003,0,0,-1.00003,-23.80613,-40.37761)" stroke-width=".3985" stroke-linecap="butt" stroke-miterlimit="10" stroke-linejoin="miter" fill="none" stroke="#000000" d="M100.81-136.97H109.691"/>
<use data-text="4" xlink:href="#font_2_3" transform="matrix(6.9740097,0,0,-6.9740097,79.461978,102.522678)"/>
<use data-text="&#x03c0;" xlink:href="#font_3_1" transform="matrix(9.962899,0,0,-9.962899,99.38057,94.96046)"/>
<use data-text="5" xlink:href="#font_2_4" transform="matrix(6.9740097,0,0,-6.9740097,118.90916,95.16446)"/>
<use data-text="&#x03c0;" xlink:href="#font_1_1" transform="matrix(6.9740097,0,0,-6.9740097,122.88028,95.16446)"/>
<path transform="matrix(1.00003,0,0,-1.00003,18.09613,-40.37761)" stroke-width=".3985" stroke-linecap="butt" stroke-miterlimit="10" stroke-linejoin="miter" fill="none" stroke="#000000" d="M100.81-136.97H109.691"/>
<use data-text="4" xlink:href="#font_2_3" transform="matrix(6.9740097,0,0,-6.9740097,121.364238,102.522678)"/>
<use data-text="3" xlink:href="#font_2_2" transform="matrix(6.9740097,0,0,-6.9740097,139.8598,95.16446)"/>
<use data-text="&#x03c0;" xlink:href="#font_1_1" transform="matrix(6.9740097,0,0,-6.9740097,143.83092,95.16446)"/>
<path transform="matrix(1.00003,0,0,-1.00003,39.04677,-40.37761)" stroke-width=".3985" stroke-linecap="butt" stroke-miterlimit="10" stroke-linejoin="miter" fill="none" stroke="#000000" d="M100.81-136.97H109.691"/>
<use data-text="2" xlink:href="#font_2_1" transform="matrix(6.9740097,0,0,-6.9740097,142.31488,102.522678)"/>
<use data-text="7" xlink:href="#font_2_5" transform="matrix(6.9740097,0,0,-6.9740097,160.8114,95.16446)"/>
<use data-text="&#x03c0;" xlink:href="#font_1_1" transform="matrix(6.9740097,0,0,-6.9740097,164.78253,95.16446)"/>
<path transform="matrix(1.00003,0,0,-1.00003,59.998384,-40.37761)" stroke-width=".3985" stroke-linecap="butt" stroke-miterlimit="10" stroke-linejoin="miter" fill="none" stroke="#000000" d="M100.81-136.97H109.691"/>
<use data-text="4" xlink:href="#font_2_3" transform="matrix(6.9740097,0,0,-6.9740097,163.26648,102.522678)"/>
<use data-text="2" xlink:href="#font_4_5" transform="matrix(9.962899,0,0,-9.962899,180.694,97.09153)"/>
<use data-text="&#x03c0;" xlink:href="#font_3_1" transform="matrix(9.962899,0,0,-9.962899,185.67517,97.09153)"/>
<use data-text="&#x2212;" xlink:href="#font_5_1" transform="matrix(9.962899,0,0,-9.962899,.2175827,149.89412)"/>
<use data-text="4" xlink:href="#font_4_7" transform="matrix(9.962899,0,0,-9.962899,7.9658205,149.89412)"/>
<use data-text="&#x2212;" xlink:href="#font_5_1" transform="matrix(9.962899,0,0,-9.962899,.2175827,134.37564)"/>
<use data-text="3" xlink:href="#font_4_6" transform="matrix(9.962899,0,0,-9.962899,7.9658205,134.37564)"/>
<use data-text="&#x2212;" xlink:href="#font_5_1" transform="matrix(9.962899,0,0,-9.962899,.2175827,118.85718)"/>
<use data-text="2" xlink:href="#font_4_5" transform="matrix(9.962899,0,0,-9.962899,7.9658205,118.85718)"/>
<use data-text="&#x2212;" xlink:href="#font_5_1" transform="matrix(9.962899,0,0,-9.962899,.2175827,103.338718)"/>
<use data-text="1" xlink:href="#font_4_4" transform="matrix(9.962899,0,0,-9.962899,7.9658205,103.338718)"/>
<use data-text="1" xlink:href="#font_4_4" transform="matrix(9.962899,0,0,-9.962899,7.96682,72.7168)"/>
<use data-text="2" xlink:href="#font_4_5" transform="matrix(9.962899,0,0,-9.962899,7.96682,57.197328)"/>
<use data-text="3" xlink:href="#font_4_6" transform="matrix(9.962899,0,0,-9.962899,7.96682,41.678865)"/>
<use data-text="4" xlink:href="#font_4_7" transform="matrix(9.962899,0,0,-9.962899,7.96682,26.160386)"/>
<path transform="matrix(1.00003,0,0,-1.00003,5.2567369,165.72159)" stroke-width=".99628" stroke-linecap="butt" stroke-miterlimit="10" stroke-linejoin="miter" fill="none" stroke="#ff0000" d="M13.33745 80.69452 14.17967 81.18428 15.0219 81.67342 15.86412 82.16191 16.70636 82.64903 17.54858 83.13397 18.39081 83.6166 19.23303 84.0961 20.07527 84.57251 20.91751 85.04472 21.75972 85.51321 22.60196 85.97629 23.44418 86.43408 24.2864 86.88612 25.12863 87.33243 25.97087 87.7722 26.81311 88.20454 27.65532 88.62958 28.49756 89.0464 29.33978 89.455 30.18202 89.85521 31.02423 90.24596 31.86647 90.6274 32.7087 90.9986 33.55092 91.3597 34.39316 91.7101 35.23538 92.04994 36.07762 92.37784 36.91983 92.69426 37.76207 92.99919 38.6043 93.2914 39.44653 93.57135 40.28874 93.83841 41.13098 94.09198 41.9732 94.33235 42.81543 94.55939 43.65767 94.77261 44.4999 94.97186 45.34213 95.15639 46.18434 95.32661 47.02658 95.48242 47.8688 95.62363 48.71104 95.75041 49.55325 95.86105 50.3955 95.95665 51.23773 96.03766 52.07996 96.1036 52.92218 96.15372 53.7644 96.18834 54.60664 96.20741 55.44885 96.21146 56.29109 96.19997 57.13333 96.17313 57.97556 96.13045 58.81778 96.07225 59.66 95.99916 60.50224 95.91087 61.34447 95.80751 62.18669 95.68896 63.02892 95.55473 63.87115 95.40637 64.71338 95.24327 65.5556 95.0659 66.39784 94.87395 67.24007 94.66771 68.08229 94.44766 68.92451 94.21394 69.76675 93.96675 70.609 93.70651 71.4512 93.43309 72.29344 93.14677 73.13567 92.8482 73.97789 92.53752 74.82011 92.21553 75.66235 91.88158 76.50458 91.53613 77.3468 91.18047 78.18904 90.81407 79.03127 90.4376 79.8735 90.05199 80.71571 89.65628 81.55795 89.25186 82.40018 88.83862 83.2424 88.41792 84.08463 87.9893 84.92686 87.55293 85.7691 87.11035 86.61131 86.66095 87.45355 86.20581 88.29578 85.74553 89.13802 85.27953 89.98022 84.809 90.82246 84.33463 91.66469 83.85681 92.50691 83.37544 93.34914 82.89189 94.19138 82.40555 95.03362 81.91797 95.87582 81.429 96.71806 80.93939 97.56029 80.44963 98.40257 79.96019 99.24472 79.47107 100.087 78.98349 100.92915 78.4973 101.77142 78.0136 102.61371 77.53238 103.45586 77.05458 104.29816 76.58003 105.14029 76.10951 105.98257 75.64381 106.82486 75.18307 107.667 74.72809 108.50928 74.27899 109.35144 73.83594 110.19373 73.40004 111.036 72.97096 111.87814 72.55011 112.72043 72.13748 113.56259 71.73308 114.40486 71.33736 115.24713 70.95143 116.0893 70.57497 116.93158 70.20857 117.77371 69.85275 118.616 69.50746 119.45828 69.17383 120.30043 68.85135 121.14272 68.54083 121.98486 68.24211 122.82715 67.95595 123.66942 67.6822 124.51157 67.42229 125.35385 67.17523 126.19601 66.94154 127.03828 66.72133 127.88057 66.51509 128.72272 66.32314 129.56499 66.14577 130.40715 65.98267 131.24944 65.8343 132.0917 65.7004 132.93386 65.58153 133.77614 65.47816 134.61829 65.38988 135.46057 65.31679 136.30284 65.25859 137.145 65.21591 137.98729 65.18907 138.82944 65.17758 139.6717 65.18163 140.51399 65.2007 141.35614 65.23532 142.19843 65.28543 143.04058 65.35138 143.88286 65.43207 144.72515 65.52798 145.56728 65.63863 146.40956 65.76541 147.25173 65.90662 148.09401 66.06212 148.93628 66.23265 149.77843 66.41733 150.62071 66.61627 151.46286 66.8298 152.30515 67.05669 153.14743 67.29721 153.98958 67.55063 154.83185 67.81754 155.674 68.09764 156.51628 68.39 157.35857 68.69478 158.20072 69.01088 159.043 69.3391 159.88515 69.67862 160.72742 70.0295 161.5697 70.3906 162.41187 70.76164 163.25415 71.14293 164.09629 71.53383 164.93857 71.93404 165.78086 72.34264 166.623 72.75946 167.46527 73.18434 168.30744 73.61714 169.14972 74.05661 169.99199 74.50276 170.83414 74.95528 171.67642 75.4129 172.51859 75.87613 173.36086 76.34447 174.20313 76.81653 175.04529 77.29294 175.88758 77.77245 176.7297 78.25507 177.57199 78.74 178.41428 79.22713 179.25643 79.71532 180.09871 80.20506 180.94086 80.69452"/>
<use data-text="y" xlink:href="#font_3_3" transform="matrix(9.962899,0,0,-9.962899,106.21777,80.54103)" fill="#ff0000"/>
<use data-text="=" xlink:href="#font_4_8" transform="matrix(9.962899,0,0,-9.962899,114.22702,80.54103)" fill="#ff0000"/>
<use data-text="s" xlink:href="#font_4_12" transform="matrix(9.962899,0,0,-9.962899,124.72792,80.54103)" fill="#ff0000"/>
<use data-text="i" xlink:href="#font_4_10" transform="matrix(9.962899,0,0,-9.962899,128.6533,80.54103)" fill="#ff0000"/>
<use data-text="n" xlink:href="#font_4_11" transform="matrix(9.962899,0,0,-9.962899,131.41303,80.54103)" fill="#ff0000"/>
<use data-text="(" xlink:href="#font_4_1" transform="matrix(9.962899,0,0,-9.962899,136.94245,80.54103)" fill="#ff0000"/>
<use data-text="x" xlink:href="#font_3_2" transform="matrix(9.962899,0,0,-9.962899,140.84983,80.54103)" fill="#ff0000"/>
<use data-text=")" xlink:href="#font_4_2" transform="matrix(9.962899,0,0,-9.962899,146.544,80.54103)" fill="#ff0000"/>
<path transform="matrix(1.00003,0,0,-1.00003,5.2567369,165.72159)" d="M29.2967 88.45314C29.2967 89.55362 28.40463 90.4457 27.30415 90.4457 26.20369 90.4457 25.3116 89.55362 25.3116 88.45314 25.3116 87.35268 26.20369 86.46059 27.30415 86.46059 28.40463 86.46059 29.2967 87.35268 29.2967 88.45314ZM27.30415 88.45314" fill="#ff0000"/>
<path transform="matrix(1.00003,0,0,-1.00003,5.2567369,165.72159)" d="M36.2802 91.66727C36.2802 92.76775 35.38812 93.65982 34.28764 93.65982 33.18718 93.65982 32.29509 92.76775 32.29509 91.66727 32.29509 90.5668 33.18718 89.67471 34.28764 89.67471 35.38812 89.67471 36.2802 90.5668 36.2802 91.66727ZM34.28764 91.66727" fill="#ff0000"/>
<path transform="matrix(1.00003,0,0,-1.00003,5.2567369,165.72159)" d="M43.26396 94.1334C43.26396 95.23389 42.37187 96.12596 41.27141 96.12596 40.17093 96.12596 39.27885 95.23389 39.27885 94.1334 39.27885 93.03294 40.17093 92.14085 41.27141 92.14085 42.37187 92.14085 43.26396 93.03294 43.26396 94.1334ZM41.27141 94.1334" fill="#ff0000"/>
<path transform="matrix(1.00003,0,0,-1.00003,5.2567369,165.72159)" d="M57.23068 96.21239C57.23068 97.31285 56.33861 98.20494 55.23813 98.20494 54.13766 98.20494 53.24557 97.31285 53.24557 96.21239 53.24557 95.11191 54.13766 94.21983 55.23813 94.21983 56.33861 94.21983 57.23068 95.11191 57.23068 96.21239ZM55.23813 96.21239" fill="#ff0000"/>
<path transform="matrix(1.00003,0,0,-1.00003,5.2567369,165.72159)" d="M71.19766 94.1334C71.19766 95.23389 70.30559 96.12596 69.20511 96.12596 68.10464 96.12596 67.21255 95.23389 67.21255 94.1334 67.21255 93.03294 68.10464 92.14085 69.20511 92.14085 70.30559 92.14085 71.19766 93.03294 71.19766 94.1334ZM69.20511 94.1334" fill="#ff0000"/>
<path transform="matrix(1.00003,0,0,-1.00003,5.2567369,165.72159)" d="M78.18115 91.66727C78.18115 92.76775 77.28906 93.65982 76.1886 93.65982 75.08813 93.65982 74.19604 92.76775 74.19604 91.66727 74.19604 90.5668 75.08813 89.67471 76.1886 89.67471 77.28906 89.67471 78.18115 90.5668 78.18115 91.66727ZM76.1886 91.66727" fill="#ff0000"/>
<path transform="matrix(1.00003,0,0,-1.00003,5.2567369,165.72159)" d="M85.16492 88.4533C85.16492 89.55377 84.27283 90.44585 83.17236 90.44585 82.07188 90.44585 81.17981 89.55377 81.17981 88.4533 81.17981 87.35283 82.07188 86.46074 83.17236 86.46074 84.27283 86.46074 85.16492 87.35283 85.16492 88.4533ZM83.17236 88.4533" fill="#ff0000"/>
<path transform="matrix(1.00003,0,0,-1.00003,5.2567369,165.72159)" d="M113.09888 72.93575C113.09888 74.03621 112.2068 74.9283 111.10632 74.9283 110.00586 74.9283 109.11377 74.03621 109.11377 72.93575 109.11377 71.83527 110.00586 70.94319 111.10632 70.94319 112.2068 70.94319 113.09888 71.83527 113.09888 72.93575ZM111.10632 72.93575" fill="#ff0000"/>
<path transform="matrix(1.00003,0,0,-1.00003,5.2567369,165.72159)" d="M120.07703 69.72394C120.07703 70.82442 119.18495 71.71649 118.08447 71.71649 116.98401 71.71649 116.09192 70.82442 116.09192 69.72394 116.09192 68.62347 116.98401 67.73138 118.08447 67.73138 119.18495 67.73138 120.07703 68.62347 120.07703 69.72394ZM118.08447 69.72394" fill="#ff0000"/>
<path transform="matrix(1.00003,0,0,-1.00003,5.2567369,165.72159)" d="M127.06319 67.25624C127.06319 68.3567 126.17111 69.2488 125.07063 69.2488 123.97017 69.2488 123.07808 68.3567 123.07808 67.25624 123.07808 66.15576 123.97017 65.26369 125.07063 65.26369 126.17111 65.26369 127.06319 66.15576 127.06319 67.25624ZM125.07063 67.25624" fill="#ff0000"/>
<path transform="matrix(1.00003,0,0,-1.00003,5.2567369,165.72159)" d="M141.03258 65.17665C141.03258 66.27711 140.14049 67.1692 139.04003 67.1692 137.93955 67.1692 137.04747 66.27711 137.04747 65.17665 137.04747 64.07617 137.93955 63.1841 139.04003 63.1841 140.14049 63.1841 141.03258 64.07617 141.03258 65.17665ZM139.04003 65.17665" fill="#ff0000"/>
<path transform="matrix(1.00003,0,0,-1.00003,5.2567369,165.72159)" d="M154.99716 67.25484C154.99716 68.3553 154.10507 69.24739 153.00461 69.24739 151.90413 69.24739 151.01206 68.3553 151.01206 67.25484 151.01206 66.15437 151.90413 65.26228 153.00461 65.26228 154.10507 65.26228 154.99716 66.15437 154.99716 67.25484ZM153.00461 67.25484" fill="#ff0000"/>
<path transform="matrix(1.00003,0,0,-1.00003,5.2567369,165.72159)" d="M161.98067 69.72084C161.98067 70.82132 161.08858 71.7134 159.98812 71.7134 158.88764 71.7134 157.99556 70.82132 157.99556 69.72084 157.99556 68.62038 158.88764 67.72829 159.98812 67.72829 161.08858 67.72829 161.98067 68.62038 161.98067 69.72084ZM159.98812 69.72084" fill="#ff0000"/>
<path transform="matrix(1.00003,0,0,-1.00003,5.2567369,165.72159)" d="M168.96683 72.9359C168.96683 74.03636 168.07474 74.92845 166.97428 74.92845 165.8738 74.92845 164.98172 74.03636 164.98172 72.9359 164.98172 71.83542 165.8738 70.94334 166.97428 70.94334 168.07474 70.94334 168.96683 71.83542 168.96683 72.9359ZM166.97428 72.9359" fill="#ff0000"/>
<path transform="matrix(1.00003,0,0,-1.00003,5.2567369,165.72159)" stroke-width=".99628" stroke-linecap="butt" stroke-miterlimit="10" stroke-linejoin="miter" fill="none" stroke="#0000ff" d="M18.88562 155.9303 19.03992 153.84722 19.40741 149.48816 19.77492 145.6319 20.14241 142.19617 20.5099 139.11426 20.8774 136.33495 21.2449 133.821 21.6124 131.53208 21.97989 129.44179 22.3474 127.52684 22.71489 125.75932 23.08238 124.13611 23.44989 122.62929 23.81738 121.23265 24.18488 119.93068 24.55237 118.71562 24.91988 117.58122 25.28737 116.5229 25.65486 115.52817 26.02237 114.59088 26.38986 113.70946 26.75735 112.88078 27.12486 112.10022 27.49236 111.35843 27.85985 110.65701 28.22734 109.9944 28.59485 109.36436 28.96234 108.7669 29.32983 108.19739 29.69734 107.65579 30.06483 107.14215 30.43233 106.65178 30.79984 106.18314 31.16733 105.73465 31.53482 105.30945 31.90231 104.89977 32.26982 104.51027 32.63731 104.13628 33.0048 103.77937 33.37231 103.4333 33.7398 103.10588 34.1073 102.7924 34.47481 102.48825 34.8423 102.19962 35.2098 101.92029 35.57729 101.65337 35.9448 101.39577 36.31229 101.14748 36.67978 100.9116 37.04729 100.68349 37.41478 100.46469 37.78227 100.25363 38.14978 100.0519 38.51727 99.85481 38.88477 99.6686 39.25226 99.48859 39.61977 99.31635 39.98726 99.14719 40.35475 98.9858 40.72226 98.83217 41.08975 98.6863 41.45724 98.54353 41.82475 98.40697 42.19225 98.27351 42.55974 98.14781 42.92723 98.02832 43.29474 97.91194 43.66223 97.7971 44.02972 97.69159 44.39723 97.58916 44.76472 97.49295 45.13222 97.3983 45.49973 97.30829 45.86722 97.22139 46.23471 97.14223 46.6022 97.0631 46.96971 96.99016 47.3372 96.91878 47.7047 96.85516 48.0722 96.79152 48.4397 96.73256 48.80719 96.67514 49.1747 96.62393 49.54219 96.57426 49.90968 96.52927 50.27718 96.48582 50.64468 96.44548 51.01218 96.40979 51.37967 96.3772 51.74718 96.34615 52.11467 96.32132 52.48216 96.2965 52.84967 96.27478 53.21716 96.25925 53.58466 96.24373 53.95215 96.22977 54.31966 96.22356 54.68715 96.2158 55.05464 96.2127H55.42215L55.78966 96.2158 56.15712 96.22356 56.52464 96.22977 56.8921 96.24373 57.25963 96.25925 57.62715 96.27478 57.99461 96.2965 58.36214 96.32132 58.7296 96.34615 59.09712 96.3772 59.46463 96.40979 59.83209 96.44548 60.19962 96.48582 60.56708 96.52927 60.9346 96.57426 61.30212 96.62393 61.66959 96.67514 62.03711 96.73256 62.40457 96.79152 62.7721 96.85516 63.1396 96.91878 63.50706 96.99016 63.87459 97.0631 64.24205 97.14223 64.60957 97.22139 64.9771 97.30829 65.34456 97.3983 65.71208 97.49295 66.07954 97.58916 66.44707 97.69159 66.81458 97.7971 67.18204 97.91194 67.54956 98.02832 67.91702 98.14781 68.28455 98.27351 68.65207 98.40697 69.01953 98.54353 69.38705 98.6863 69.75452 98.83217 70.12204 98.9858 70.48955 99.14719 70.85701 99.31635 71.22453 99.48859 71.592 99.6686 71.95952 99.85481 72.32704 100.0519 72.6945 100.25363 73.06203 100.46469 73.42949 100.68349 73.79701 100.9116 74.16452 101.14748 74.53198 101.39577 74.8995 101.65337 75.26697 101.92029 75.63449 102.19962 76.00201 102.49135 76.36948 102.7924 76.737 103.10588 77.10446 103.43642 77.47198 103.77937 77.8395 104.13628 78.20695 104.51027 78.57448 104.89977 78.94194 105.30945 79.30946 105.73465 79.67699 106.18314 80.04445 106.65178 80.41197 107.14215 80.77943 107.65736 81.14696 108.19739 81.51447 108.76846 81.88194 109.36436 82.24945 109.9944 82.61691 110.66013 82.98444 111.35843 83.35196 112.10022 83.71942 112.88078 84.08694 113.70946 84.4544 114.59242 84.82193 115.52817 85.18944 116.526 85.55692 117.58434 85.92442 118.71562 86.29189 119.93068 86.65941 121.23265 87.02693 122.62929 87.3944 124.13611 87.76192 125.76242 88.12938 127.52684 88.4969 129.44179 88.86441 131.53208 89.23189 133.821 89.5994 136.3396 89.96687 139.11426 90.33438 142.19617 90.7019 145.63654 91.06937 149.48816 91.43689 153.84722 91.59138 155.93495"/>
<path transform="matrix(-.07379222,-.99724999,-.99724999,.07379222,24.142943,9.786606)" d="M2.8892 0-1.73352 2.31136 0 0-1.73352-2.31136" fill="#0000ff"/>
<path transform="matrix(.07372221,-.99724999,-.99724999,-.07372221,96.85086,9.781952)" d="M2.8892 0-1.73352 2.31136 0 0-1.73352-2.31136" fill="#0000ff"/>
<use data-text="y" xlink:href="#font_3_3" transform="matrix(9.962899,0,0,-9.962899,48.490034,9.3918919)" fill="#0000ff"/>
<use data-text="=" xlink:href="#font_4_8" transform="matrix(9.962899,0,0,-9.962899,56.49928,9.3918919)" fill="#0000ff"/>
<use data-text="c" xlink:href="#font_4_9" transform="matrix(9.962899,0,0,-9.962899,67.00018,9.3918919)" fill="#0000ff"/>
<use data-text="s" xlink:href="#font_4_12" transform="matrix(9.962899,0,0,-9.962899,71.423709,9.3918919)" fill="#0000ff"/>
<use data-text="c" xlink:href="#font_4_9" transform="matrix(9.962899,0,0,-9.962899,75.34909,9.3918919)" fill="#0000ff"/>
<use data-text="(" xlink:href="#font_4_1" transform="matrix(9.962899,0,0,-9.962899,79.77261,9.3918919)" fill="#0000ff"/>
<use data-text="x" xlink:href="#font_3_2" transform="matrix(9.962899,0,0,-9.962899,83.67609,9.3918919)" fill="#0000ff"/>
<use data-text=")" xlink:href="#font_4_2" transform="matrix(9.962899,0,0,-9.962899,89.37027,9.3918919)" fill="#0000ff"/>
<path transform="matrix(1.00003,0,0,-1.00003,5.2567369,165.72159)" stroke-width=".99628" stroke-linecap="butt" stroke-miterlimit="10" stroke-linejoin="miter" fill="none" stroke="#0000ff" d="M102.68732 5.45874 102.84161 7.54181 103.20912 11.90088 103.57661 15.75714 103.9441 19.19597 104.31161 22.27478 104.67911 25.04944 105.04662 27.56804 105.41411 29.85696 105.7816 31.94725 106.14911 33.8622 106.5166 35.62662 106.8841 37.25603 107.25159 38.75975 107.6191 40.15793 107.98659 41.45836 108.35408 42.67342 108.72159 43.8047 109.08908 44.86613 109.45657 45.86087 109.82408 46.79816 110.19157 47.6796 110.55907 48.50826 110.92657 49.28882 111.29407 50.0306 111.66156 50.73203 112.02907 51.39464 112.39656 52.02469 112.76405 52.62213 113.13156 53.19165 113.49905 53.73169 113.86655 54.24689 114.23405 54.73726 114.60155 55.20592 114.96904 55.65439 115.33655 56.07959 115.70404 56.48927 116.07153 56.87877 116.43904 57.25276 116.80653 57.60966 117.17403 57.95572 117.54153 58.28316 117.90903 58.59662 118.27652 58.90079 118.64403 59.18942 119.01152 59.46875 119.37901 59.73567 119.74652 59.99326 120.11401 60.23845 120.4815 60.47743 120.84901 60.70555 121.2165 60.92435 121.584 61.1354 121.95149 61.33714 122.319 61.53423 122.6865 61.72043 123.05399 61.90045 123.4215 62.07271 123.78899 62.24185 124.15648 62.40324 124.52399 62.55687 124.89148 62.70274 125.25897 62.8455 125.62648 62.98206 125.99397 63.11552 126.36147 63.24123 126.72897 63.36072 127.09647 63.4771 127.46396 63.59193 127.83147 63.69745 128.19896 63.79988 128.56645 63.8961 128.93396 63.99074 129.30146 64.08075 129.66895 64.16766 130.03646 64.24681 130.40395 64.32594 130.77146 64.39886 131.13895 64.47026 131.50644 64.53387 131.87395 64.59752 132.24144 64.65648 132.60894 64.7139 132.97644 64.7651 133.34394 64.81477 133.71143 64.85977 134.07894 64.90321 134.44643 64.94357 134.81392 64.97925 135.18143 65.01184 135.54892 65.0429 135.91641 65.06772 136.28392 65.09254 136.65142 65.11426 137.0189 65.12978 137.38642 65.14531 137.7539 65.15927 138.1214 65.16548 138.48889 65.17323 138.8564 65.17635H139.22389L139.59142 65.17323 139.95888 65.16548 140.3264 65.15927 140.69387 65.14531 141.06139 65.12978 141.4289 65.11426 141.79637 65.09254 142.16388 65.06772 142.53136 65.0429 142.89887 65.01184 143.26639 64.97925 143.63385 64.94357 144.00138 64.90321 144.36884 64.85977 144.73636 64.81477 145.10388 64.7651 145.47135 64.7139 145.83887 64.65648 146.20633 64.59752 146.57386 64.53387 146.94136 64.47026 147.30883 64.39886 147.67635 64.32594 148.04381 64.24681 148.41133 64.16766 148.77886 64.08075 149.14632 63.99074 149.51384 63.8961 149.8813 63.79988 150.24883 63.69745 150.61635 63.59193 150.98381 63.4771 151.35134 63.36072 151.7188 63.24123 152.0863 63.11552 152.45383 62.98206 152.82129 62.8455 153.18881 62.70274 153.55628 62.55687 153.9238 62.40324 154.29132 62.24185 154.65879 62.07271 155.0263 61.90045 155.39377 61.72043 155.76129 61.53423 156.12882 61.33714 156.49628 61.1354 156.8638 60.9228 157.23126 60.70555 157.59879 60.47433 157.9663 60.23845 158.33376 59.99326 158.70128 59.73567 159.06874 59.46875 159.43627 59.18942 159.80379 58.90079 160.17125 58.59662 160.53878 58.28316 160.90624 57.95262 161.27376 57.60966 161.64127 57.25276 162.00875 56.87877 162.37625 56.48927 162.74372 56.07959 163.11124 55.65128 163.47876 55.20592 163.84622 54.73726 164.21375 54.24689 164.5812 53.73169 164.94873 53.19165 165.31626 52.62057 165.68372 52.02469 166.05124 51.39464 166.4187 50.73203 166.78623 50.0306 167.15373 49.28882 167.52121 48.50826 167.88872 47.67648 168.2562 46.79816 168.6237 45.86087 168.99123 44.86613 169.35869 43.80316 169.72621 42.67342 170.09368 41.45836 170.4612 40.15639 170.82872 38.75665 171.19618 37.25293 171.5637 35.62352 171.93117 33.8622 172.29869 31.9426 172.6662 29.85696 173.03366 27.56337 173.40117 25.04944 173.76865 22.27478 174.13616 19.18822 174.50368 15.7525 174.87114 11.89622 175.23867 7.54181 175.39318 5.45409"/>
<path transform="matrix(-.07379222,.99724999,.99724999,.07379222,107.94715,160.26268)" d="M2.8892 0-1.73352 2.31136 0 0-1.73352-2.31136" fill="#0000ff"/>
<path transform="matrix(.07372221,.99724999,.99724999,-.07372221,180.65515,160.26734)" d="M2.8892 0-1.73352 2.31136 0 0-1.73352-2.31136" fill="#0000ff"/>
<path transform="matrix(1.00003,0,0,-1.00003,5.2567369,165.72159)" d="M29.2967 111.73244C29.2967 112.8329 28.40463 113.72499 27.30415 113.72499 26.20369 113.72499 25.3116 112.8329 25.3116 111.73244 25.3116 110.63196 26.20369 109.73988 27.30415 109.73988 28.40463 109.73988 29.2967 110.63196 29.2967 111.73244ZM27.30415 111.73244" fill="#0000ff"/>
<path transform="matrix(1.00003,0,0,-1.00003,5.2567369,165.72159)" d="M36.2802 102.64034C36.2802 103.7408 35.38812 104.63289 34.28764 104.63289 33.18718 104.63289 32.29509 103.7408 32.29509 102.64034 32.29509 101.53986 33.18718 100.64778 34.28764 100.64778 35.38812 100.64778 36.2802 101.53986 36.2802 102.64034ZM34.28764 102.64034" fill="#0000ff"/>
<path transform="matrix(1.00003,0,0,-1.00003,5.2567369,165.72159)" d="M43.26396 98.61491C43.26396 99.71538 42.37187 100.60747 41.27141 100.60747 40.17093 100.60747 39.27885 99.71538 39.27885 98.61491 39.27885 97.51443 40.17093 96.62236 41.27141 96.62236 42.37187 96.62236 43.26396 97.51443 43.26396 98.61491ZM41.27141 98.61491" fill="#0000ff"/>
<path transform="matrix(1.00003,0,0,-1.00003,5.2567369,165.72159)" d="M57.23068 96.2127C57.23068 97.31317 56.33861 98.20526 55.23813 98.20526 54.13766 98.20526 53.24557 97.31317 53.24557 96.2127 53.24557 95.11223 54.13766 94.22015 55.23813 94.22015 56.33861 94.22015 57.23068 95.11223 57.23068 96.2127ZM55.23813 96.2127" fill="#0000ff"/>
<path transform="matrix(1.00003,0,0,-1.00003,5.2567369,165.72159)" d="M71.19766 98.61491C71.19766 99.71538 70.30559 100.60747 69.20511 100.60747 68.10464 100.60747 67.21255 99.71538 67.21255 98.61491 67.21255 97.51443 68.10464 96.62236 69.20511 96.62236 70.30559 96.62236 71.19766 97.51443 71.19766 98.61491ZM69.20511 98.61491" fill="#0000ff"/>
<path transform="matrix(1.00003,0,0,-1.00003,5.2567369,165.72159)" d="M78.18115 102.64034C78.18115 103.7408 77.28906 104.63289 76.1886 104.63289 75.08813 104.63289 74.19604 103.7408 74.19604 102.64034 74.19604 101.53986 75.08813 100.64778 76.1886 100.64778 77.28906 100.64778 78.18115 101.53986 78.18115 102.64034ZM76.1886 102.64034" fill="#0000ff"/>
<path transform="matrix(1.00003,0,0,-1.00003,5.2567369,165.72159)" d="M85.16492 111.73244C85.16492 112.8329 84.27283 113.72499 83.17236 113.72499 82.07188 113.72499 81.17981 112.8329 81.17981 111.73244 81.17981 110.63196 82.07188 109.73988 83.17236 109.73988 84.27283 109.73988 85.16492 110.63196 85.16492 111.73244ZM83.17236 111.73244" fill="#0000ff"/>
<path transform="matrix(1.00003,0,0,-1.00003,5.2567369,165.72159)" d="M113.09888 49.6566C113.09888 50.75706 112.2068 51.64915 111.10632 51.64915 110.00586 51.64915 109.11377 50.75706 109.11377 49.6566 109.11377 48.55614 110.00586 47.66405 111.10632 47.66405 112.2068 47.66405 113.09888 48.55614 113.09888 49.6566ZM111.10632 49.6566" fill="#0000ff"/>
<path transform="matrix(1.00003,0,0,-1.00003,5.2567369,165.72159)" d="M120.07703 58.74405C120.07703 59.84453 119.18495 60.7366 118.08447 60.7366 116.98401 60.7366 116.09192 59.84453 116.09192 58.74405 116.09192 57.64359 116.98401 56.7515 118.08447 56.7515 119.18495 56.7515 120.07703 57.64359 120.07703 58.74405ZM118.08447 58.74405" fill="#0000ff"/>
<path transform="matrix(1.00003,0,0,-1.00003,5.2567369,165.72159)" d="M127.06319 62.77412C127.06319 63.8746 126.17111 64.76668 125.07063 64.76668 123.97017 64.76668 123.07808 63.8746 123.07808 62.77412 123.07808 61.67366 123.97017 60.78157 125.07063 60.78157 126.17111 60.78157 127.06319 61.67366 127.06319 62.77412ZM125.07063 62.77412" fill="#0000ff"/>
<path transform="matrix(1.00003,0,0,-1.00003,5.2567369,165.72159)" d="M141.03258 65.17635C141.03258 66.27682 140.14049 67.1689 139.04003 67.1689 137.93955 67.1689 137.04747 66.27682 137.04747 65.17635 137.04747 64.07588 137.93955 63.18379 139.04003 63.18379 140.14049 63.18379 141.03258 64.07588 141.03258 65.17635ZM139.04003 65.17635" fill="#0000ff"/>
<path transform="matrix(1.00003,0,0,-1.00003,5.2567369,165.72159)" d="M154.99716 62.77724C154.99716 63.8777 154.10507 64.76979 153.00461 64.76979 151.90413 64.76979 151.01206 63.8777 151.01206 62.77724 151.01206 61.67676 151.90413 60.78468 153.00461 60.78468 154.10507 60.78468 154.99716 61.67676 154.99716 62.77724ZM153.00461 62.77724" fill="#0000ff"/>
<path transform="matrix(1.00003,0,0,-1.00003,5.2567369,165.72159)" d="M161.98067 58.7487C161.98067 59.84918 161.08858 60.74126 159.98812 60.74126 158.88764 60.74126 157.99556 59.84918 157.99556 58.7487 157.99556 57.64824 158.88764 56.75615 159.98812 56.75615 161.08858 56.75615 161.98067 57.64824 161.98067 58.7487ZM159.98812 58.7487" fill="#0000ff"/>
<path transform="matrix(1.00003,0,0,-1.00003,5.2567369,165.72159)" d="M168.96683 49.6566C168.96683 50.75706 168.07474 51.64915 166.97428 51.64915 165.8738 51.64915 164.98172 50.75706 164.98172 49.6566 164.98172 48.55614 165.8738 47.66405 166.97428 47.66405 168.07474 47.66405 168.96683 48.55614 168.96683 49.6566ZM166.97428 49.6566" fill="#0000ff"/>
<path transform="matrix(1.00003,0,0,-1.00003,5.2567369,165.72159)" stroke-width=".3985" stroke-linecap="butt" stroke-dasharray="2.98883,2.98883" stroke-miterlimit="10" stroke-linejoin="miter" fill="none" stroke="#000000" d="M13.33745 0V161.38906"/>
<use data-text="x" xlink:href="#font_3_2" transform="matrix(9.962899,0,0,-9.962899,6.6147768,175.6619)"/>
<use data-text="=" xlink:href="#font_4_8" transform="matrix(9.962899,0,0,-9.962899,15.076035,175.6619)"/>
<use data-text="0" xlink:href="#font_4_3" transform="matrix(9.962899,0,0,-9.962899,25.576935,175.6619)"/>
<path transform="matrix(1.00003,0,0,-1.00003,5.2567369,165.72159)" stroke-width=".3985" stroke-linecap="butt" stroke-dasharray="2.98883,2.98883" stroke-miterlimit="10" stroke-linejoin="miter" fill="none" stroke="#000000" d="M97.13914 0V161.38906"/>
<use data-text="x" xlink:href="#font_3_2" transform="matrix(9.962899,0,0,-9.962899,89.89128,173.53083)"/>
<use data-text="=" xlink:href="#font_4_8" transform="matrix(9.962899,0,0,-9.962899,98.35254,173.53083)"/>
<use data-text="&#x03c0;" xlink:href="#font_3_1" transform="matrix(9.962899,0,0,-9.962899,108.86885,173.53083)"/>
<path transform="matrix(1.00003,0,0,-1.00003,5.2567369,165.72159)" stroke-width=".3985" stroke-linecap="butt" stroke-dasharray="2.98883,2.98883" stroke-miterlimit="10" stroke-linejoin="miter" fill="none" stroke="#000000" d="M180.94084 0V161.38906"/>
<use data-text="x" xlink:href="#font_3_2" transform="matrix(9.962899,0,0,-9.962899,171.20471,175.6619)"/>
<use data-text="=" xlink:href="#font_4_8" transform="matrix(9.962899,0,0,-9.962899,179.66599,175.6619)"/>
<use data-text="2" xlink:href="#font_4_5" transform="matrix(9.962899,0,0,-9.962899,190.16687,175.6619)"/>
<use data-text="&#x03c0;" xlink:href="#font_3_1" transform="matrix(9.962899,0,0,-9.962899,195.16345,175.6619)"/>
<use data-text="x" xlink:href="#font_3_2" transform="matrix(9.962899,0,0,-9.962899,190.3263,81.50506)"/>
<use data-text="y" xlink:href="#font_3_3" transform="matrix(9.962899,0,0,-9.962899,22.114243,12.136978)"/>
</svg>
