<svg xmlns="http://www.w3.org/2000/svg" xmlns:xlink="http://www.w3.org/1999/xlink" xmlns:inkscape="http://www.inkscape.org/namespaces/inkscape" version="1.1" width="153" height="155" viewBox="0 0 153 155">
<defs>
<path id="font_1_3" d="M.33399964 .30233766C.33999635 .32835389 .36299134 .42037965 .43299867 .42037965 .43798829 .42037965 .46199037 .42037965 .48298646 .40734864 .45498658 .402359 .43499757 .37734986 .43499757 .35334779 .43499757 .33735658 .44599916 .31835938 .47299195 .31835938 .49499513 .31835938 .5269928 .3363495 .5269928 .37635804 .5269928 .42837525 .46798707 .4423828 .43399049 .4423828 .37599183 .4423828 .34098817 .38935853 .32899476 .36634828 .3039856 .43237306 .25 .4423828 .22099304 .4423828 .116989139 .4423828 .05999756 .3133545 .05999756 .28834535 .05999756 .27833558 .069992069 .27833558 .07199097 .27833558 .07998657 .27833558 .08299255 .28033448 .084991458 .28933717 .11898804 .39535523 .18499756 .42037965 .21899414 .42037965 .23799134 .42037965 .272995 .4113617 .272995 .35334779 .272995 .32235719 .2559967 .25532533 .21899414 .11528015 .20298767 .053268434 .16799927 .011245728 .12399292 .011245728 .117996219 .011245728 .09498596 .011245728 .07398987 .024276734 .09899902 .029266358 .12098694 .05027771 .12098694 .07827759 .12098694 .105270389 .09899902 .11328125 .083999637 .11328125 .053985597 .11328125 .0289917 .08728027 .0289917 .055267335 .0289917 .009246826 .07899475-.0107421879 .12298584-.0107421879 .18899536-.0107421879 .22499085 .059280397 .22799683 .0652771 .23999024 .028274537 .27598573-.0107421879 .33599855-.0107421879 .43899537-.0107421879 .49598695 .118270877 .49598695 .14328003 .49598695 .1532898 .4869995 .1532898 .48399354 .1532898 .47499085 .1532898 .47299195 .14929199 .47099305 .14228821 .43798829 .03527832 .36999513 .011245728 .33799745 .011245728 .29899598 .011245728 .2829895 .043273927 .2829895 .07727051 .2829895 .09927368 .2889862 .121276859 .2999878 .16529846L.33399964 .30233766Z"/>
<path id="font_1_4" d="M.48599244 .38136292C.48999024 .39537049 .48999024 .39736939 .48999024 .40437318 .48999024 .42237855 .47599793 .43138124 .46099855 .43138124 .45098878 .43138124 .43499757 .42536927 .42599488 .41036988 .42399598 .405365 .41600038 .37435914 .4119873 .35635377 .40499879 .33035279 .397995 .30334474 .3919983 .27633668L.34700013 .09628296C.34298707 .08126831 .2999878 .011245728 .23399353 .011245728 .18299866 .011245728 .17199707 .055267335 .17199707 .0922699 .17199707 .1382904 .18899536 .20030213 .22299195 .28833009 .23899842 .3293457 .24299622 .3403473 .24299622 .36035157 .24299622 .405365 .21099854 .4423828 .16099549 .4423828 .06599426 .4423828 .0289917 .29733277 .0289917 .28833009 .0289917 .27833558 .038986207 .27833558 .040985109 .27833558 .050994874 .27833558 .051986696 .28033448 .056991579 .29634095 .083999637 .3903656 .12399292 .42037965 .1579895 .42037965 .1659851 .42037965 .18299866 .42037965 .18299866 .3883667 .18299866 .36335755 .17298889 .3373413 .1659851 .31834413 .12599182 .21231079 .10798645 .1552887 .10798645 .10827637 .10798645 .019256592 .17098999-.0107421879 .22999573-.0107421879 .2689972-.0107421879 .30299378 .0062561037 .33099366 .03425598 .31799317-.017745972 .30599977-.06674194 .2659912-.11973572 .23999024-.15385437 .20199585-.18309021 .1559906-.18309021 .14199829-.18309021 .09700012-.18005371 .07998657-.14074707 .09599304-.14074707 .10899353-.14074707 .12298584-.1287384 .1329956-.11973572 .14299011-.10673523 .14299011-.08773804 .14299011-.056747438 .115997318-.052734376 .10598755-.052734376 .08299255-.052734376 .049987794-.068740848 .049987794-.11773682 .049987794-.16796875 .09399414-.20507813 .1559906-.20507813 .25898744-.20507813 .3619995-.11373901 .3899994-.00074768069L.48599244 .38136292Z"/>
<path id="font_1_2" d="M.30299378 .3157959H.47299195C.61499026 .3157959 .7539978 .41973878 .7539978 .53167727 .7539978 .6086273 .6879883 .6826172 .5569916 .6826172H.23298645C.21398926 .6826172 .20298767 .6826172 .20298767 .66360476 .20298767 .6516113 .21199036 .6516113 .23199463 .6516113 .24499512 .6516113 .2630005 .65060427 .2749939 .6496124 .29100038 .6476135 .29699708 .64460757 .29699708 .6336212 .29699708 .6296234 .29599 .62661746 .29299928 .614624L.15899658 .07795715C.14898682 .038986207 .14698792 .0309906 .067993167 .0309906 .050994874 .0309906 .039993287 .0309906 .039993287 .011993408 .039993287 0 .051986696 0 .054992677 0 .08299255 0 .1539917 .0029907227 .18199158 .0029907227 .20298767 .0029907227 .22499085 .0019989014 .24598694 .0019989014 .2679901 .0019989014 .2899933 0 .31098939 0 .31799317 0 .33099366 0 .33099366 .019989014 .33099366 .0309906 .32199098 .0309906 .30299378 .0309906 .2659912 .0309906 .23799134 .0309906 .23799134 .048980714 .23799134 .054977418 .23999024 .05996704 .24099732 .065963748L.30299378 .3157959M.375 .6136322C.38398744 .64860537 .38598634 .6516113 .42900086 .6516113H.5249939C.60798647 .6516113 .6609955 .62461856 .6609955 .55566409 .6609955 .5166931 .6409912 .43074037 .60198977 .39476014 .5519867 .34977723 .49198915 .34179688 .44799806 .34179688H.30699159L.375 .6136322Z"/>
<path id="font_1_1" d="M.45498658 .5001831C.45498658 .56614688 .43699647 .7050781 .33499146 .7050781 .19599915 .7050781 .041992189 .42323304 .041992189 .19425965 .041992189 .100250247 .070999149-.0107421879 .1619873-.0107421879 .30299378-.0107421879 .45498658 .27627564 .45498658 .5001831M.147995 .36328126C.16499329 .42723084 .18499756 .5071869 .22499085 .57814028 .2519989 .6271057 .2889862 .68307498 .33399964 .68307498 .3829956 .68307498 .3889923 .6191101 .3889923 .56214907 .3889923 .5131836 .3809967 .46220399 .35699464 .36328126H.147995M.34799195 .3312683C.33699037 .28527833 .31599427 .2002716 .27799989 .12826538 .24299622 .060256959 .20498657 .011245728 .1619873 .011245728 .1289978 .011245728 .10798645 .040252687 .10798645 .133255 .10798645 .17526245 .11399841 .23326111 .13999939 .3312683H.34799195Z"/>
<path id="font_2_1" d="M.2899933 .4720459C.2979889 .4890442 .29899598 .49705506 .29899598 .5040436 .29899598 .53504946 .2709961 .5590515 .23999024 .5590515 .20199585 .5590515 .18998719 .52804568 .18499756 .51205447L.052993776 .07901001C.051986696 .07701111 .04798889 .06401062 .04798889 .06300354 .04798889 .05101013 .07899475 .041015626 .08699036 .041015626 .09399414 .041015626 .09498596 .043014528 .101989749 .058013917L.2899933 .4720459Z"/>
</defs>
<path transform="matrix(1,0,0,-1,71.962009,82.533)" stroke-width=".3985" stroke-linecap="butt" stroke-miterlimit="10" stroke-linejoin="miter" fill="none" stroke="#000000" d="M-68.87447 0H68.87447"/>
<path transform="matrix(-1,-0,0,1,3.087532,82.533)" d="M1.99252 0-1.19551 1.59401 0 0-1.19551-1.59401"/>
<path transform="matrix(1,0,0,-1,140.83649,82.533)" d="M1.99252 0-1.19551 1.59401 0 0-1.19551-1.59401"/>
<use data-text="x" xlink:href="#font_1_3" transform="matrix(9.9626,0,0,-9.9626,146.349,84.67799)"/>
<path transform="matrix(1,0,0,-1,71.962009,82.533)" stroke-width=".3985" stroke-linecap="butt" stroke-miterlimit="10" stroke-linejoin="miter" fill="none" stroke="#000000" d="M0-68.87447V68.87447"/>
<path transform="matrix(0,1,1,0,71.962009,151.40747)" d="M1.99252 0-1.19551 1.59401 0 0-1.19551-1.59401"/>
<path transform="matrix(0,-1,-1,-0,71.962009,13.658524)" d="M1.99252 0-1.19551 1.59401 0 0-1.19551-1.59401"/>
<use data-text="y" xlink:href="#font_1_4" transform="matrix(9.9626,0,0,-9.9626,69.341,6.2089998)"/>
<path transform="matrix(1,0,0,-1,71.962009,82.533)" stroke-width=".3985" stroke-linecap="butt" stroke-miterlimit="10" stroke-linejoin="miter" fill="none" stroke="#000000" d="M56.69362 0C56.69362 31.31142 31.31142 56.69362 0 56.69362-31.31142 56.69362-56.69362 31.31142-56.69362 0-56.69362-31.31142-31.31142-56.69362 0-56.69362 31.31142-56.69362 56.69362-31.31142 56.69362 0ZM0 0"/>
<path transform="matrix(1,0,0,-1,71.962009,82.533)" d="M58.68617 0C58.68617 1.10046 57.79408 1.99255 56.69362 1.99255 55.59314 1.99255 54.70107 1.10046 54.70107 0 54.70107-1.10046 55.59314-1.99255 56.69362-1.99255 57.79408-1.99255 58.68617-1.10046 58.68617 0ZM56.69362 0" fill="#0000ff"/>
<path transform="matrix(1,0,0,-1,71.962009,82.533)" stroke-width=".3985" stroke-linecap="butt" stroke-miterlimit="10" stroke-linejoin="miter" fill="none" stroke="#0000ff" d="M58.68617 0C58.68617 1.10046 57.79408 1.99255 56.69362 1.99255 55.59314 1.99255 54.70107 1.10046 54.70107 0 54.70107-1.10046 55.59314-1.99255 56.69362-1.99255 57.79408-1.99255 58.68617-1.10046 58.68617 0ZM56.69362 0"/>
<path transform="matrix(1,0,0,-1,71.962009,82.533)" d="M-26.35423 49.09822C-26.35423 50.19868-27.24632 51.09077-28.34679 51.09077-29.44727 51.09077-30.33934 50.19868-30.33934 49.09822-30.33934 47.99774-29.44727 47.10567-28.34679 47.10567-27.24632 47.10567-26.35423 47.99774-26.35423 49.09822ZM-28.34679 49.09822" fill="#0000ff"/>
<path transform="matrix(1,0,0,-1,71.962009,82.533)" stroke-width=".3985" stroke-linecap="butt" stroke-miterlimit="10" stroke-linejoin="miter" fill="none" stroke="#0000ff" d="M-26.35423 49.09822C-26.35423 50.19868-27.24632 51.09077-28.34679 51.09077-29.44727 51.09077-30.33934 50.19868-30.33934 49.09822-30.33934 47.99774-29.44727 47.10567-28.34679 47.10567-27.24632 47.10567-26.35423 47.99774-26.35423 49.09822ZM-28.34679 49.09822"/>
<use data-text="P" xlink:href="#font_1_2" transform="matrix(9.9626,0,0,-9.9626,32.315004,36.838998)" fill="#0000ff"/>
<path transform="matrix(1,0,0,-1,71.962009,82.533)" stroke-width=".3985" stroke-linecap="butt" stroke-miterlimit="10" stroke-linejoin="miter" fill="none" stroke="#0000ff" d="M0 0H56.69362"/>
<path transform="matrix(1,0,0,-1,71.962009,82.533)" stroke-width=".3985" stroke-linecap="butt" stroke-miterlimit="10" stroke-linejoin="miter" fill="none" stroke="#0000ff" d="M0 0-28.34679 49.09822"/>
<path transform="matrix(1,0,0,-1,71.962009,82.533)" stroke-width=".3985" stroke-linecap="butt" stroke-miterlimit="10" stroke-linejoin="miter" fill="none" stroke="#000000" d="M5.6697 0C5.6697 0 5.91518 1.22372 5.90498 1.71715 5.8948 2.21057 5.76346 3.05377 5.59615 3.55632 5.42883 4.05885 5.02805 4.87883 4.69908 5.33923 4.3701 5.79964 3.70326 6.50865 3.22498 6.87473 2.74669 7.24078 1.84982 7.754 1.25175 7.97772 .65367 8.20143-.41185 8.44426-1.08566 8.48723-1.75948 8.53018-2.91124 8.44919-3.60475 8.28741-4.29826 8.12563-5.43472 7.6939-6.08406 7.3211-6.7334 6.94833-7.74458 6.17072-8.28479 5.6005-8.82501 5.03027-9.60677 3.94508-9.97775 3.21114-10.34874 2.47719-10.80647 1.15598-10.95877 .31053-11.11105-.53488-11.17479-1.99194-11.07555-2.88242-10.9763-3.77287-10.6065-5.24792-10.24333-6.10742-9.88016-6.9669-9.0739-8.32791-8.45782-9.07721-7.84175-9.82652-6.637-10.94383-5.80292-11.50807-4.96886-12.07231-3.4413-12.82828-2.44641-13.14392-1.45154-13.45958 .28706-13.76164 1.36766-13.78323 2.44824-13.80482 4.26338-13.59467 5.34181-13.29965 6.42024-13.00465 8.15784-12.26431 9.14037-11.65688 10.1229-11.04942 11.6278-9.80946 12.42332-8.92152 13.21884-8.03357 14.34573-6.36703 14.8741-5.25705 15.40245-4.14706 16.03178-2.1716 16.23138-.9213 16.43098 .329 16.4787 2.4616 16.31271 3.7544 16.14674 5.0472 15.57378 7.16867 15.03499 8.39641 14.4962 9.62415 13.31616 11.54884 12.4294 12.60329 11.54265 13.65773 9.82236 15.21329 8.64381 15.9961 7.46526 16.7789 5.32175 17.81488 3.93521 18.24529 2.54866 18.67569 .13939 19.07501-1.3495 19.09827-2.83841 19.12152-5.32472 18.81952-6.796 18.41312-8.26729 18.0067-10.62444 16.9925-11.95361 16.16911-13.28278 15.34575-15.30669 13.67007-16.37587 12.47868-17.44505 11.28731-18.9524 9.05968-19.65971 7.58237-20.36702 6.10507-21.20407 3.48434-21.47375 1.83134-21.74344 .17834-21.81343-2.63231-21.60353-4.3314-21.39362-6.0305-20.65413-8.80841-19.96074-10.41463-19.26735-12.02083-17.74608-14.5321-16.60597-15.90785-15.46585-17.28362-13.25475-19.30905-11.74336-20.33011-10.232-21.35117-7.48523-22.6998-5.71292-23.26704-3.94061-23.83429-.86708-24.37022 1.03029-24.41847 2.92767-24.46672 6.09106-24.11028 7.96214-23.6148 9.83324-23.11934 12.82709-21.86707 14.51596-20.84744 16.20485-19.8278 18.77437-17.7458 20.13461-16.26599 21.49486-14.78616 23.41255-12.01712 24.31984-10.18192 25.22713-8.3467 26.31076-5.09132 26.67372-3.03899 27.03668-.98666 27.16666 2.5012 26.93587 4.60995 26.70506 6.71872 25.83719 10.16522 25.0102 12.15947 24.18321 14.15373 22.35146 17.27162 20.97546 18.98322 19.59947 20.69481 16.92387 23.21669 15.09297 24.49545 13.26207 25.77422 9.93071 27.47322 7.7796 28.19972 5.6285 28.92622 1.89479 29.63527-.4109 29.73178-2.71661 29.82828-6.56177 29.45757-8.83846 28.89525-11.11513 28.33292-14.75938 26.87508-16.81964 25.6789-18.87991 24.48271-22.01903 22.02605-23.6875 20.2739-25.35599 18.52174-27.71693 15.23311-28.84508 13.05052-29.97322 10.86795-31.3392 6.9908-31.81834 4.54335-32.29747 2.09589-32.5272-2.06853-32.29845-4.5892-32.06969-7.10986-31.1086-11.23325-30.16951-13.62407-29.23042-16.01488-27.12346-19.75885-25.5301-21.82066-23.93675-23.88248-20.8226-26.9289-18.68562-28.48433-16.54866-30.03976-12.65028-32.12354-10.12828-33.03119-7.60628-33.93883-3.22066-34.85861-.50865-35.02605 2.20334-35.19348 6.73091-34.84445 9.41808-34.23795 12.10524-33.63145 16.41573-32.00691 18.85863-30.65482 21.30153-29.30272 25.03178-26.50093 27.02495-24.49287 29.01811-22.48482 31.8547-18.7005 33.2241-16.1821 34.59349-13.66371 36.27696-9.17906 36.89462-6.34186 37.51227-3.50465 37.87894 1.33257 37.67575 4.26653 37.47256 7.20047 36.45877 12.00894 35.43002 14.80402 34.40128 17.59908 32.05309 21.98592 30.2612 24.41154 28.46931 26.83717 24.94406 30.43636 22.5153 32.28635 20.08655 34.13634 15.6404 36.635 12.7564 37.74498 9.8724 38.85497 4.84541 40.02434 1.72928 40.28658-1.38684 40.54881-6.60078 40.26256-9.70265 39.63516-12.80453 39.00778-20.62686 35.7648-18.78633 36.5278"/>
<path transform="matrix(-.92372,.38293,.38293,.92372,53.175676,46.005197)" d="M1.99252 0-1.19551 1.59401 0 0-1.19551-1.59401"/>
<use data-text="&#x03b8;" xlink:href="#font_1_1" transform="matrix(9.9626,0,0,-9.9626,92.162,46.713998)"/>
<path transform="matrix(1,0,0,-1,71.962009,82.533)" stroke-width=".3985" stroke-linecap="butt" stroke-miterlimit="10" stroke-linejoin="miter" fill="none" stroke="#000000" d="M-41.29005 0C-41.29005 14.74977-33.41838 28.38376-22.37057 34.7621"/>
<path transform="matrix(.86601,-.49998,-.49998,-.86601,49.591417,47.770898)" d="M1.99252 0-1.19551 1.59401 0 0-1.19551-1.59401"/>
<use data-text="&#x03b8;" xlink:href="#font_1_1" transform="matrix(9.9626,0,0,-9.9626,24.934998,65.632999)"/>
<use data-text="&#x2032;" xlink:href="#font_2_1" transform="matrix(6.9738,0,0,-6.9738,29.888993,62.017999)"/>
<path transform="matrix(1,0,0,-1,71.962009,82.533)" d="M-2.6226 7.99414C-2.6226 9.0946-3.5147 9.9867-4.61516 9.9867-5.71564 9.9867-6.60771 9.0946-6.60771 7.99414-6.60771 6.89366-5.71564 6.00159-4.61516 6.00159-3.5147 6.00159-2.6226 6.89366-2.6226 7.99414ZM-4.61516 7.99414" fill="#0000ff"/>
<path transform="matrix(1,0,0,-1,71.962009,82.533)" stroke-width=".3985" stroke-linecap="butt" stroke-miterlimit="10" stroke-linejoin="miter" fill="none" stroke="#0000ff" d="M-2.6226 7.99414C-2.6226 9.0946-3.5147 9.9867-4.61516 9.9867-5.71564 9.9867-6.60771 9.0946-6.60771 7.99414-6.60771 6.89366-5.71564 6.00159-4.61516 6.00159-3.5147 6.00159-2.6226 6.89366-2.6226 7.99414ZM-4.61516 7.99414"/>
<path transform="matrix(1,0,0,-1,71.962009,82.533)" d="M-7.96616 17.24959C-7.96616 18.35005-8.85825 19.24214-9.95871 19.24214-11.05919 19.24214-11.95126 18.35005-11.95126 17.24959-11.95126 16.14911-11.05919 15.25703-9.95871 15.25703-8.85825 15.25703-7.96616 16.14911-7.96616 17.24959ZM-9.95871 17.24959" fill="#0000ff"/>
<path transform="matrix(1,0,0,-1,71.962009,82.533)" stroke-width=".3985" stroke-linecap="butt" stroke-miterlimit="10" stroke-linejoin="miter" fill="none" stroke="#0000ff" d="M-7.96616 17.24959C-7.96616 18.35005-8.85825 19.24214-9.95871 19.24214-11.05919 19.24214-11.95126 18.35005-11.95126 17.24959-11.95126 16.14911-11.05919 15.25703-9.95871 15.25703-8.85825 15.25703-7.96616 16.14911-7.96616 17.24959ZM-9.95871 17.24959"/>
<path transform="matrix(1,0,0,-1,71.962009,82.533)" d="M-13.30975 26.50418C-13.30975 27.60466-14.20183 28.49673-15.3023 28.49673-16.40277 28.49673-17.29486 27.60466-17.29486 26.50418-17.29486 25.40372-16.40277 24.51163-15.3023 24.51163-14.20183 24.51163-13.30975 25.40372-13.30975 26.50418ZM-15.3023 26.50418" fill="#0000ff"/>
<path transform="matrix(1,0,0,-1,71.962009,82.533)" stroke-width=".3985" stroke-linecap="butt" stroke-miterlimit="10" stroke-linejoin="miter" fill="none" stroke="#0000ff" d="M-13.30975 26.50418C-13.30975 27.60466-14.20183 28.49673-15.3023 28.49673-16.40277 28.49673-17.29486 27.60466-17.29486 26.50418-17.29486 25.40372-16.40277 24.51163-15.3023 24.51163-14.20183 24.51163-13.30975 25.40372-13.30975 26.50418ZM-15.3023 26.50418"/>
<path transform="matrix(1,0,0,-1,71.962009,82.533)" d="M-18.65245 35.7579C-18.65245 36.85837-19.54454 37.75046-20.645 37.75046-21.74548 37.75046-22.63756 36.85837-22.63756 35.7579-22.63756 34.65742-21.74548 33.76535-20.645 33.76535-19.54454 33.76535-18.65245 34.65742-18.65245 35.7579ZM-20.645 35.7579" fill="#0000ff"/>
<path transform="matrix(1,0,0,-1,71.962009,82.533)" stroke-width=".3985" stroke-linecap="butt" stroke-miterlimit="10" stroke-linejoin="miter" fill="none" stroke="#0000ff" d="M-18.65245 35.7579C-18.65245 36.85837-19.54454 37.75046-20.645 37.75046-21.74548 37.75046-22.63756 36.85837-22.63756 35.7579-22.63756 34.65742-21.74548 33.76535-20.645 33.76535-19.54454 33.76535-18.65245 34.65742-18.65245 35.7579ZM-20.645 35.7579"/>
</svg>
