<svg xmlns="http://www.w3.org/2000/svg" xmlns:xlink="http://www.w3.org/1999/xlink" version="1.1" width="270" height="179" viewBox="0 0 270 179">
<defs>
<path id="font_1_1" d="M.31098939 .36265565H.42999269C.4149933 .30274964 .3929901 .2118988 .3929901 .13302613 .3929901 .09309387 .397995 .06613159 .4039917 .044174196 .41999818-.0057678224 .43299867-.009765625 .44898988-.009765625 .47200013-.009765625 .49598695 .011230469 .49598695 .035186769 .49598695 .043182374 .49398805 .047164918 .48799134 .057159425 .46899415 .09408569 .45098878 .15100098 .45098878 .23286438 .45098878 .25183106 .45098878 .29177857 .46499635 .36265565H.58999636C.60798647 .36265565 .6159973 .36265565 .6269989 .37065126 .6409912 .380661 .6439972 .39665223 .6439972 .4016571 .6439972 .43066407 .6179962 .43066407 .6009979 .43066407H.22399903C.18299866 .43066407 .15499878 .42166139 .10998535 .37965394 .083999637 .35665895 .04499817 .30274964 .04499817 .2937622 .04499817 .28178407 .057998659 .28178407 .06199646 .28178407 .07299805 .28178407 .07398987 .28378297 .07998657 .2927704 .1309967 .36265565 .19299317 .36265565 .21499634 .36265565H.27598573C.24499512 .25283814 .19099427 .13502503 .16099549 .07511902 .15499878 .062149049 .14498902 .04118347 .14199829 .03718567 .14099121 .033187868 .13899231 .029190064 .13899231 .022201539 .13899231 .006225586 .15098572-.009765625 .17399597-.009765625 .21398926-.009765625 .22499085 .035186769 .24899292 .12504578L.31098939 .36265565Z"/>
<path id="font_2_1" d="M.5049896 .18203736H.47099305C.46798707 .16001892 .45799256 .100997928 .44499208 .09098816 .43699647 .084991458 .3600006 .084991458 .34599305 .084991458H.1619873C.2669983 .17803955 .3019867 .20603943 .3619995 .25306703 .43598939 .312088 .5049896 .374115 .5049896 .46914674 .5049896 .5900879 .39898683 .6640625 .2709961 .6640625 .14698792 .6640625 .06298828 .57710269 .06298828 .4851532 .06298828 .43414308 .10598755 .42915345 .115997318 .42915345 .13999939 .42915345 .16899109 .44615174 .16899109 .48214723 .16899109 .5001526 .1619873 .53515627 .10998535 .53515627 .14099121 .6060791 .20899964 .62805178 .2559967 .62805178 .35598756 .62805178 .4079895 .5501404 .4079895 .46914674 .4079895 .38212586 .34599305 .3130951 .31399537 .27708436L.07299805 .038986207C.06298828 .02999878 .06298828 .027999878 .06298828 0H.47499085L.5049896 .18203736Z"/>
<path id="font_3_1" d="M.2649994 .37265016H.37799073C.34498597 .22489929 .33599855 .18196106 .33599855 .11508179 .33599855 .100097659 .33599855 .073150638 .34399415 .03919983 .35398866-.0047454836 .36499024-.0107421879 .37998963-.0107421879 .3999939-.0107421879 .42099 .007247925 .42099 .02722168 .42099 .033218385 .42099 .035202028 .4149933 .049179079 .38598634 .12106323 .38598634 .18595886 .38598634 .21391297 .38598634 .26683045 .3929901 .32073976 .4039917 .37265016H.5179901C.5309906 .37265016 .5669861 .37265016 .5669861 .406662 .5669861 .43066407 .54599 .43066407 .5269928 .43066407H.19198609C.16999817 .43066407 .13198853 .43066407 .08799744 .38365174 .052993776 .34469605 .026992798 .29878236 .026992798 .29379273 .026992798 .29278565 .026992798 .28379823 .038986207 .28379823 .04699707 .28379823 .04899597 .28779603 .054992677 .29577638 .10398865 .37265016 .1619873 .37265016 .18199158 .37265016H.23899842C.20698548 .25186158 .15299988 .13105774 .11099243 .04020691 .102996829 .025222779 .102996829 .023223877 .102996829 .016235352 .102996829-.002746582 .11898804-.0107421879 .13198853-.0107421879 .1619873-.0107421879 .16999817 .017242432 .18199158 .05418396 .19599915 .100097659 .19599915 .10209656 .20899964 .15202332L.2649994 .37265016Z"/>
<path id="font_2_2" d="M.272995 .33428956C.35099793 .33428956 .40699769 .2803192 .40699769 .1733551 .40699769 .04940796 .33499146 .012466431 .2769928 .012466431 .23699951 .012466431 .14898682 .0234375 .10699463 .082351688 .1539917 .084350589 .16499329 .11735535 .16499329 .13835144 .16499329 .17034912 .14099121 .19335938 .10998535 .19335938 .08198547 .19335938 .053985597 .17634583 .053985597 .13534546 .053985597 .041412355 .1579895-.01953125 .2789917-.01953125 .41799928-.01953125 .5139923 .07336426 .5139923 .1733551 .5139923 .2513275 .44999696 .32929994 .33999635 .35229493 .44499208 .39024354 .48298646 .4650879 .48298646 .5260773 .48298646 .60505679 .3919983 .6640625 .2809906 .6640625 .16999817 .6640625 .084991458 .61006167 .084991458 .5300751 .084991458 .49606324 .10699463 .47706605 .13699341 .47706605 .16799927 .47706605 .18798828 .5000763 .18798828 .5280762 .18798828 .5570679 .16799927 .57806399 .13699341 .5800781 .17199707 .62405398 .24099732 .63505557 .27799989 .63505557 .32299806 .63505557 .38598634 .6130676 .38598634 .5260773 .38598634 .48406983 .37199403 .43814088 .34599305 .4072113 .31298829 .36927796 .2849884 .3672943 .23498535 .36428834 .20999146 .3623047 .20799256 .3623047 .20298767 .3612976 .20098877 .3612976 .19299317 .3592987 .19299317 .34829713 .19299317 .33428956 .20199585 .33428956 .21899414 .33428956H.272995Z"/>
<path id="font_4_5" d="M.1269989 .07699585 .23298645 .18003845C.3889923 .31811524 .44898988 .3721466 .44898988 .47216798 .44898988 .5860901 .35899354 .6660156 .23699951 .6660156 .12399292 .6660156 .049987794 .57411196 .049987794 .48516847 .049987794 .4291687 .099990848 .4291687 .102996829 .4291687 .11999512 .4291687 .15499878 .44117738 .15499878 .48217774 .15499878 .5081787 .13699341 .5341797 .101989749 .5341797 .09399414 .5341797 .09199524 .5341797 .08898926 .5331726 .11199951 .59806826 .1659851 .63500979 .22399903 .63500979 .31498719 .63500979 .35798646 .5541382 .35798646 .47216798 .35798646 .39215089 .30799867 .31311036 .25299073 .25108338L.06098938 .036987306C.049987794 .025985718 .049987794 .023986817 .049987794 0H.42099L.44898988 .17404175H.42399598C.4189911 .14402771 .4119873 .1000061 .4019928 .084991458 .394989 .07699585 .32899476 .07699585 .30699159 .07699585H.1269989Z"/>
<path id="font_2_3" d="M.15499878 .5588074C.20599365 .5458069 .23599243 .5458069 .2519989 .5458069 .38398744 .5458069 .46199037 .6358032 .46199037 .6508026 .46199037 .6618042 .45498658 .6648102 .44999696 .6648102 .44799806 .6648102 .44599916 .6648102 .44198609 .6618042 .41799928 .6528015 .36499024 .6328125 .29100038 .6328125 .2630005 .6328125 .20999146 .6348114 .14498902 .6598053 .1349945 .6648102 .1329956 .6648102 .13198853 .6648102 .11898804 .6648102 .11898804 .6538086 .11898804 .6378021V.34251405C.11898804 .32548524 .11898804 .3134613 .1349945 .3134613 .14399719 .3134613 .14498902 .3154602 .15499878 .32748414 .19799805 .38259889 .25898744 .390625 .2939911 .390625 .35398866 .390625 .3809967 .34251405 .38598634 .33450318 .4039917 .30143739 .4099884 .26335145 .4099884 .20524597 .4099884 .17524719 .4099884 .116256717 .37998963 .07234192 .35499574 .03640747 .31199647 .012466431 .2630005 .012466431 .19799805 .012466431 .1309967 .04838562 .10598755 .11425781 .14399719 .11125183 .16299439 .13624573 .16299439 .16325379 .16299439 .20625305 .12599182 .21424866 .11299133 .21424866 .11099243 .21424866 .06298828 .21424866 .06298828 .1602478 .06298828 .07034302 .14498902-.01953125 .2649994-.01953125 .3929901-.01953125 .5049896 .07533264 .5049896 .20124817 .5049896 .31445313 .4189911 .41862489 .29499818 .41862489 .25099183 .41862489 .19898987 .4076233 .15499878 .36956788V.5588074Z"/>
<path id="font_4_6" d="M.2899933 .35191346C.37199403 .37893678 .42999269 .4490509 .42999269 .52809146 .42999269 .6100464 .34199525 .6660156 .24598694 .6660156 .14498902 .6660156 .068984989 .60606387 .068984989 .53009036 .068984989 .49710084 .09098816 .47808839 .11999512 .47808839 .15098572 .47808839 .17098999 .50009158 .17098999 .5290985 .17098999 .57910159 .12399292 .57910159 .10899353 .57910159 .13999939 .62802127 .20599365 .64100649 .24198914 .64100649 .2829895 .64100649 .33799745 .6190338 .33799745 .5290985 .33799745 .51708987 .33599855 .45906068 .30999757 .4149933 .27999879 .36691285 .24598694 .36390687 .22099304 .36291505 .21299744 .36190797 .18899536 .35990907 .18199158 .35990907 .17399597 .35890199 .16699219 .35791017 .16699219 .3479004 .16699219 .33691407 .17399597 .33691407 .19099427 .33691407H.23498535C.31698609 .33691407 .35398866 .2686615 .35398866 .17037964 .35398866 .034469606 .2849884 .0055389406 .24099732 .0055389406 .19799805 .0055389406 .12298584 .022491456 .08799744 .08137512 .12298584 .07637024 .1539917 .09837341 .1539917 .1363678 .1539917 .17237854 .1269989 .19238281 .09799194 .19238281 .07398987 .19238281 .041992189 .17837525 .041992189 .1343689 .041992189 .043441774 .1349945-.022460938 .24398804-.022460938 .3659973-.022460938 .45700074 .06838989 .45700074 .17037964 .45700074 .252594 .3939972 .33088685 .2899933 .35191346Z"/>
<path id="font_2_4" d="M.5349884 .6045227C.54499819 .6165161 .54499819 .6185303 .54499819 .64453127H.2829895C.24299622 .64453127 .23199463 .6455078 .19599915 .6484375 .14399719 .65234377 .14199829 .6592407 .13899231 .676239H.10499573L.069992069 .46250917H.10398865C.10598755 .47750855 .115997318 .54351809 .13198853 .5535126 .13999939 .55952456 .22099304 .55952456 .23599243 .55952456H.45399476C.42199708 .5175171 .37098695 .45550538 .34999085 .4275055 .21899414 .25549317 .20698548 .096466068 .20698548 .037460329 .20698548 .02645874 .20698548-.01953125 .2539978-.01953125 .3019867-.01953125 .3019867 .025466919 .3019867 .038467409V.07847595C.3019867 .27249146 .34199525 .36149598 .3849945 .41551209L.5349884 .6045227Z"/>
<path id="font_4_7" d="M.2939911 .16503906V.07800293C.2939911 .041992189 .2919922 .0309906 .21798706 .0309906H.19699097V0C.23799134 .0029907227 .2899933 .0029907227 .33198548 .0029907227 .37399293 .0029907227 .4269867 .0029907227 .46798707 0V.0309906H.44699098C.37298585 .0309906 .37098695 .041992189 .37098695 .07800293V.16503906H.47099305V.19602967H.37098695V.65075686C.37098695 .67074587 .37098695 .6767578 .35499574 .6767578 .34599305 .6767578 .34298707 .6767578 .33499146 .66474917L.027999878 .19602967V.16503906H.2939911M.2999878 .19602967H.055999757L.2999878 .5688019V.19602967Z"/>
<path id="font_5_1" d="M.6589966 .23046875C.6759949 .23046875 .69400027 .23046875 .69400027 .25045777 .69400027 .27046205 .6759949 .27046205 .6589966 .27046205H.117996219C.100997928 .27046205 .08299255 .27046205 .08299255 .25045777 .08299255 .23046875 .100997928 .23046875 .117996219 .23046875H.6589966Z"/>
<path id="font_4_4" d="M.2939911 .64004519C.2939911 .66400149 .2939911 .6660156 .2709961 .6660156 .20899964 .60227969 .12098694 .60227969 .08898926 .60227969V.57128909C.10899353 .57128909 .16799927 .57128909 .21998596 .5972748V.07902527C.21998596 .042999269 .21699524 .0309906 .1269989 .0309906H.09498596V0C.12998963 .0029907227 .21699524 .0029907227 .25698854 .0029907227 .29699708 .0029907227 .38398744 .0029907227 .4189911 0V.0309906H.3869934C.29699708 .0309906 .2939911 .041992189 .2939911 .07902527V.64004519Z"/>
<path id="font_4_3" d="M.45999146 .31976319C.45999146 .39982606 .45498658 .47988893 .41999818 .5539398 .37399293 .65000918 .2919922 .6660156 .25 .6660156 .18998719 .6660156 .116989139 .64001467 .07598877 .54693606 .04399109 .47789 .038986207 .39982606 .038986207 .31976319 .038986207 .24472046 .042999269 .15464783 .083999637 .07859802 .1269989-.0024719239 .19999695-.022460938 .24899292-.022460938 .30299378-.022460938 .3789978-.0014648438 .4229889 .09359741 .45498658 .16265869 .45999146 .2407074 .45999146 .31976319M.24899292-.00047302247C.20999146-.00047302247 .15098572 .024551392 .1329956 .12062073 .12199402 .18066406 .12199402 .2727356 .12199402 .3317871 .12199402 .39582826 .12199402 .46188355 .12998963 .5159149 .14898682 .63500979 .22399903 .64401248 .24899292 .64401248 .28199769 .64401248 .34799195 .6259918 .36698915 .52693179 .3769989 .47088624 .3769989 .39482118 .3769989 .3317871 .3769989 .25672914 .3769989 .18867493 .3659973 .12461853 .35099793 .029556275 .2939911-.00047302247 .24899292-.00047302247Z"/>
<path id="font_3_2" d="M.19198609 .052993776C.19198609 .08198547 .16799927 .10598755 .13899231 .10598755 .10998535 .10598755 .085998538 .08198547 .085998538 .052993776 .085998538 .023986817 .10998535 0 .13899231 0 .16799927 0 .19198609 .023986817 .19198609 .052993776Z"/>
<path id="font_4_8" d="M.44898988 .20022583C.44898988 .3193512 .36698915 .41944886 .25898744 .41944886 .21099854 .41944886 .16799927 .40345765 .13198853 .36842347V.5637665C.1519928 .5577698 .18499756 .55078127 .21699524 .55078127 .33999635 .55078127 .4099884 .6417694 .4099884 .6547699 .4099884 .6607666 .40699769 .6657715 .3999939 .6657715 .39898683 .6657715 .39698792 .6657715 .3919983 .66278079 .37199403 .6537781 .32299806 .6337738 .2559967 .6337738 .21598816 .6337738 .16999817 .6407776 .12298584 .6617737 .114990238 .66477969 .11299133 .66477969 .11099243 .66477969 .100997928 .66477969 .100997928 .6567688 .100997928 .6407776V.34439088C.100997928 .32637025 .100997928 .31835938 .114990238 .31835938 .12199402 .31835938 .12399292 .32136537 .12799073 .32736207 .13899231 .3433838 .17599488 .39746095 .25698854 .39746095 .30899049 .39746095 .33399964 .35139466 .34199525 .33337403 .35798646 .29632569 .3600006 .25727845 .3600006 .20722962 .3600006 .17222595 .3600006 .11222839 .33599855 .07035828 .31199647 .031463624 .2749939 .0055389406 .22898865 .0055389406 .1559906 .0055389406 .09899902 .058380128 .08198547 .11723328 .084991458 .1162262 .08799744 .115234378 .09899902 .115234378 .13198853 .115234378 .14898682 .14022827 .14898682 .16423035 .14898682 .18823242 .13198853 .21322632 .09899902 .21322632 .084991458 .21322632 .049987794 .20622254 .049987794 .16023255 .049987794 .07434082 .11898804-.022460938 .23098755-.022460938 .34700013-.022460938 .44898988 .073349 .44898988 .20022583Z"/>
<path id="font_3_4" d="M.48599244 .38136292C.48999024 .39537049 .48999024 .39736939 .48999024 .40437318 .48999024 .42237855 .47599793 .43138124 .46099855 .43138124 .45098878 .43138124 .43499757 .42536927 .42599488 .41036988 .42399598 .405365 .41600038 .37435914 .4119873 .35635377 .40499879 .33035279 .397995 .30334474 .3919983 .27633668L.34700013 .09628296C.34298707 .08126831 .2999878 .011245728 .23399353 .011245728 .18299866 .011245728 .17199707 .055267335 .17199707 .0922699 .17199707 .1382904 .18899536 .20030213 .22299195 .28833009 .23899842 .3293457 .24299622 .3403473 .24299622 .36035157 .24299622 .405365 .21099854 .4423828 .16099549 .4423828 .06599426 .4423828 .0289917 .29733277 .0289917 .28833009 .0289917 .27833558 .038986207 .27833558 .040985109 .27833558 .050994874 .27833558 .051986696 .28033448 .056991579 .29634095 .083999637 .3903656 .12399292 .42037965 .1579895 .42037965 .1659851 .42037965 .18299866 .42037965 .18299866 .3883667 .18299866 .36335755 .17298889 .3373413 .1659851 .31834413 .12599182 .21231079 .10798645 .1552887 .10798645 .10827637 .10798645 .019256592 .17098999-.0107421879 .22999573-.0107421879 .2689972-.0107421879 .30299378 .0062561037 .33099366 .03425598 .31799317-.017745972 .30599977-.06674194 .2659912-.11973572 .23999024-.15385437 .20199585-.18309021 .1559906-.18309021 .14199829-.18309021 .09700012-.18005371 .07998657-.14074707 .09599304-.14074707 .10899353-.14074707 .12298584-.1287384 .1329956-.11973572 .14299011-.10673523 .14299011-.08773804 .14299011-.056747438 .115997318-.052734376 .10598755-.052734376 .08299255-.052734376 .049987794-.068740848 .049987794-.11773682 .049987794-.16796875 .09399414-.20507813 .1559906-.20507813 .25898744-.20507813 .3619995-.11373901 .3899994-.00074768069L.48599244 .38136292Z"/>
<path id="font_4_9" d="M.68699648 .32714845C.70199587 .32714845 .72099307 .32714845 .72099307 .34713746 .72099307 .36714173 .70199587 .36714173 .6879883 .36714173H.08898926C.07499695 .36714173 .055999757 .36714173 .055999757 .34713746 .055999757 .32714845 .07499695 .32714845 .08999634 .32714845H.68699648M.6879883 .13284302C.70199587 .13284302 .72099307 .13284302 .72099307 .15284729 .72099307 .17285156 .70199587 .17285156 .68699648 .17285156H.08999634C.07499695 .17285156 .055999757 .17285156 .055999757 .15284729 .055999757 .13284302 .07499695 .13284302 .08898926 .13284302H.6879883Z"/>
<path id="font_4_14" d="M.20799256 .19424439C.22999573 .19024658 .31199647 .17424011 .31199647 .102249149 .31199647 .051254274 .2769928 .011245728 .19898987 .011245728 .114990238 .011245728 .07899475 .06825256 .05999756 .15324402 .056991579 .1662445 .055999757 .17024231 .04598999 .17024231 .032989503 .17024231 .032989503 .16323853 .032989503 .14524842V.013244629C.032989503-.003753662 .032989503-.0107421879 .04399109-.0107421879 .04899597-.0107421879 .049987794-.009750366 .068984989 .009246826 .070999149 .011245728 .070999149 .013244629 .08898926 .03224182 .1329956-.009750366 .17799378-.0107421879 .19898987-.0107421879 .31399537-.0107421879 .3600006 .056243898 .3600006 .12825012 .3600006 .1812439 .32998658 .21124268 .31799317 .22323609 .2849884 .25523377 .24598694 .26324464 .20399475 .27124024 .147995 .28224183 .08099365 .2952423 .08099365 .35324098 .08099365 .38822938 .10699463 .42922975 .19299317 .42922975 .30299378 .42922975 .30799867 .3392334 .30999757 .3082428 .31098939 .2992401 .31999208 .2992401 .32199098 .2992401 .33499146 .2992401 .33499146 .304245 .33499146 .3232422V.4242401C.33499146 .4412384 .33499146 .4482422 .32398988 .4482422 .31900025 .4482422 .31698609 .4482422 .3039856 .43623353 .30099488 .43223573 .29100038 .42323304 .2869873 .42022706 .24899292 .4482422 .20799256 .4482422 .19299317 .4482422 .070999149 .4482422 .032989503 .38124085 .032989503 .3252411 .032989503 .29023744 .04899597 .26223756 .07598877 .24023438 .10798645 .21424866 .13598633 .2082367 .20799256 .19424439Z"/>
<path id="font_4_11" d="M.1769867 .4423828 .036987306 .43138124V.40037538C.101989749 .40037538 .11099243 .3943634 .11099243 .34532167V.076034549C.11099243 .0309906 .099990848 .0309906 .032989503 .0309906V0C.06498718 .0009918213 .11898804 .0029907227 .14299011 .0029907227 .17799378 .0029907227 .21299744 .0009918213 .24699402 0V.0309906C.18099976 .0309906 .1769867 .035995485 .1769867 .075042728V.4423828M.18099976 .6159363C.18099976 .64793398 .1559906 .6689453 .12799073 .6689453 .09700012 .6689453 .07499695 .64193728 .07499695 .6159363 .07499695 .5889435 .09700012 .5629425 .12799073 .5629425 .1559906 .5629425 .18099976 .5839386 .18099976 .6159363Z"/>
<path id="font_4_12" d="M.10998535 .34429933V.076034549C.10998535 .0309906 .09899902 .0309906 .03199768 .0309906V0C.066986087 .0009918213 .117996219 .0029907227 .14498902 .0029907227 .17098999 .0029907227 .22299195 .0009918213 .25698854 0V.0309906C.18998719 .0309906 .1789856 .0309906 .1789856 .076034549V.2602234C.1789856 .36431886 .25 .42037965 .31399537 .42037965 .3769989 .42037965 .3880005 .36631776 .3880005 .30926515V.076034549C.3880005 .0309906 .3769989 .0309906 .30999757 .0309906V0C.34498597 .0009918213 .3959961 .0029907227 .4229889 .0029907227 .44898988 .0029907227 .5009918 .0009918213 .5349884 0V.0309906C.48298646 .0309906 .45799256 .0309906 .45700074 .061019899V.25221253C.45700074 .3383026 .45700074 .36932374 .42599488 .405365 .4119873 .42237855 .3789978 .4423828 .32099916 .4423828 .24798584 .4423828 .20098877 .39935304 .17298889 .33729554V.4423828L.03199768 .43138124V.40037538C.101989749 .4003601 .10998535 .39335633 .10998535 .34429933Z"/>
<path id="font_4_1" d="M.33099366-.2400055C.33099366-.23701477 .33099366-.23500061 .31399537-.21800232 .18899536-.0920105 .15699768 .09700012 .15699768 .25 .15699768 .42399598 .19499207 .59799197 .31799317 .72299197 .33099366 .73498538 .33099366 .7369995 .33099366 .73999026 .33099366 .746994 .32699586 .75 .32099916 .75 .31098939 .75 .22099304 .6819916 .1619873 .5549927 .11099243 .44499208 .09899902 .33399964 .09899902 .25 .09899902 .17199707 .10998535 .050994874 .16499329-.06201172 .22499085-.18501282 .31098939-.25 .32099916-.25 .32699586-.25 .33099366-.24700928 .33099366-.2400055Z"/>
<path id="font_3_3" d="M.33399964 .30233766C.33999635 .32835389 .36299134 .42037965 .43299867 .42037965 .43798829 .42037965 .46199037 .42037965 .48298646 .40734864 .45498658 .402359 .43499757 .37734986 .43499757 .35334779 .43499757 .33735658 .44599916 .31835938 .47299195 .31835938 .49499513 .31835938 .5269928 .3363495 .5269928 .37635804 .5269928 .42837525 .46798707 .4423828 .43399049 .4423828 .37599183 .4423828 .34098817 .38935853 .32899476 .36634828 .3039856 .43237306 .25 .4423828 .22099304 .4423828 .116989139 .4423828 .05999756 .3133545 .05999756 .28834535 .05999756 .27833558 .069992069 .27833558 .07199097 .27833558 .07998657 .27833558 .08299255 .28033448 .084991458 .28933717 .11898804 .39535523 .18499756 .42037965 .21899414 .42037965 .23799134 .42037965 .272995 .4113617 .272995 .35334779 .272995 .32235719 .2559967 .25532533 .21899414 .11528015 .20298767 .053268434 .16799927 .011245728 .12399292 .011245728 .117996219 .011245728 .09498596 .011245728 .07398987 .024276734 .09899902 .029266358 .12098694 .05027771 .12098694 .07827759 .12098694 .105270389 .09899902 .11328125 .083999637 .11328125 .053985597 .11328125 .0289917 .08728027 .0289917 .055267335 .0289917 .009246826 .07899475-.0107421879 .12298584-.0107421879 .18899536-.0107421879 .22499085 .059280397 .22799683 .0652771 .23999024 .028274537 .27598573-.0107421879 .33599855-.0107421879 .43899537-.0107421879 .49598695 .118270877 .49598695 .14328003 .49598695 .1532898 .4869995 .1532898 .48399354 .1532898 .47499085 .1532898 .47299195 .14929199 .47099305 .14228821 .43798829 .03527832 .36999513 .011245728 .33799745 .011245728 .29899598 .011245728 .2829895 .043273927 .2829895 .07727051 .2829895 .09927368 .2889862 .121276859 .2999878 .16529846L.33399964 .30233766Z"/>
<path id="font_4_2" d="M.2889862 .25C.2889862 .32798768 .27799989 .44898988 .22299195 .56199648 .16299439 .68499758 .07699585 .75 .066986087 .75 .06098938 .75 .056991579 .74598696 .056991579 .73999026 .056991579 .7369995 .056991579 .73498538 .07598877 .71699526 .17399597 .6179962 .23098755 .45899964 .23098755 .25 .23098755 .07899475 .19400025-.09700012 .069992069-.2230072 .056991579-.23500061 .056991579-.23701477 .056991579-.2400055 .056991579-.2460022 .06098938-.25 .066986087-.25 .07699585-.25 .16699219-.18200684 .22599793-.055007936 .2769928 .054992677 .2889862 .16600037 .2889862 .25Z"/>
<path id="font_4_10" d="M.116989139 .21801758C.116989139 .38093568 .19898987 .42323304 .2519989 .42323304 .26098634 .42323304 .32398988 .42222596 .35899354 .38594056 .31799317 .38293458 .31199647 .3529358 .31199647 .3399353 .31199647 .31393434 .32998658 .2939453 .35798646 .2939453 .38398744 .2939453 .4039917 .3109436 .4039917 .34094239 .4039917 .40911866 .32798768 .4482422 .25099183 .4482422 .12599182 .4482422 .033996583 .3399353 .033996583 .21601868 .033996583 .08816528 .1329956-.0107421879 .24899292-.0107421879 .3829956-.0107421879 .4149933 .10914612 .4149933 .119140628 .4149933 .12911988 .40499879 .12911988 .4019928 .12911988 .3929901 .12911988 .3909912 .12512207 .3889923 .119140628 .3600006 .026229859 .29499818 .014251709 .2579956 .014251709 .20498657 .014251709 .116989139 .0572052 .116989139 .21801758Z"/>
<path id="font_4_13" d="M.47099305 .21424866C.47099305 .34223939 .37098695 .4482422 .25 .4482422 .125 .4482422 .027999878 .3392334 .027999878 .21424866 .027999878 .085250858 .13198853-.0107421879 .24899292-.0107421879 .36999513-.0107421879 .47099305 .087249759 .47099305 .21424866M.25 .014251709C.20698548 .014251709 .16299439 .035247804 .13598633 .08125305 .11099243 .12524414 .11099243 .18624878 .11099243 .22224427 .11099243 .26124574 .11099243 .31523133 .1349945 .35923768 .1619873 .40522767 .20899964 .426239 .24899292 .426239 .29299928 .426239 .33599855 .40423585 .3619995 .36123658 .3880005 .3182373 .3880005 .26023866 .3880005 .22224427 .3880005 .18624878 .3880005 .13224793 .3659973 .08824158 .34399415 .04324341 .2999878 .014251709 .25 .014251709Z"/>
<path id="font_6_84" d="M.5209961 .21636963C.5209961 .34336854 .42399598 .4423828 .31199647 .4423828 .23399353 .4423828 .19198609 .39837647 .17199707 .3763733V.4423828L.027999878 .43066407V.3996582C.09899902 .3996582 .10598755 .3936615 .10598755 .34973146V-.117996219C.10598755-.16308594 .09498596-.16308594 .027999878-.16308594V-.1940918L.13999939-.19110108 .25299073-.1940918V-.16308594C.18598938-.16308594 .1749878-.16308594 .1749878-.117996219V.050186159 .059173585C.17999268 .04319763 .22200012-.0107421879 .2979889-.0107421879 .4169922-.0107421879 .5209961 .087127689 .5209961 .21594239V.21636963M.43798829 .21594239C.43798829 .09512329 .36799623 .011245728 .2939911 .011245728 .2539978 .011245728 .21598816 .031219483 .18899536 .07215881 .1749878 .09312439 .1749878 .09411621 .1749878 .114089969V.33674623C.20399475 .38838197 .25299073 .41737367 .3039856 .41737367 .3769989 .41737367 .43798829 .32937623 .43798829 .21636963V.21594239Z"/>
<path id="font_6_63" d="M.5349884 0V.0309906C.48298646 .0309906 .45799256 .0309906 .45700074 .061019899V.25221253C.45700074 .3383026 .45700074 .36932374 .42599488 .405365 .4119873 .42237855 .3789978 .4423828 .32099916 .4423828 .23699951 .4423828 .19299317 .38233949 .1769867 .34629823H.17599488V.69433596L.03199768 .6826172V.6516113C.101989749 .6516113 .10998535 .64463809 .10998535 .59580996V.076034549C.10998535 .0309906 .09899902 .0309906 .03199768 .0309906V0L.14498902 .0029907227 .25698854 0V.0309906C.18998719 .0309906 .1789856 .0309906 .1789856 .076034549V.2602234C.1789856 .36431886 .25 .42037965 .31399537 .42037965 .3769989 .42037965 .3880005 .36631776 .3880005 .30926515V.076034549C.3880005 .0309906 .3769989 .0309906 .30999757 .0309906V0L.4229889 .0029907227 .5349884 0Z"/>
<path id="font_6_28" d="M.48298646 .08912659V.14511109H.45799256V.08912659C.45799256 .03112793 .43299867 .025131226 .42199708 .025131226 .3889923 .025131226 .3849945 .070129398 .3849945 .07511902V.27508546C.3849945 .31707765 .3849945 .3560791 .34899903 .39312745 .30999757 .43223573 .2599945 .4482422 .21199036 .4482422 .12998963 .4482422 .06098938 .40115357 .06098938 .335083 .06098938 .30508424 .08099365 .28808595 .10699463 .28808595 .1349945 .28808595 .15299988 .30807496 .15299988 .33407594 .15299988 .3460846 .147995 .37908937 .101989749 .38008119 .1289978 .41519166 .17799378 .426239 .20999146 .426239 .25898744 .426239 .31599427 .38710023 .31599427 .29808045V.26107789C.2649994 .25808717 .19499207 .25508119 .13198853 .22509766 .056991579 .19110108 .03199768 .13911438 .03199768 .09512329 .03199768 .014251709 .1289978-.0107421879 .19198609-.0107421879 .2579956-.0107421879 .3039856 .029251099 .32299806 .07624817 .32699586 .036132814 .35398866-.005859375 .40098573-.005859375 .42199708-.005859375 .48298646 .008132935 .48298646 .08912659M.31599427 .14013672C.31599427 .04525757 .24398804 .011245728 .19898987 .011245728 .1499939 .011245728 .10899353 .04624939 .10899353 .09625244 .10899353 .15124512 .15098572 .23425293 .31599427 .24024964V.14013672Z"/>
<path id="font_6_98" d="M.3600006 .12823487C.3600006 .18122864 .32998658 .21122742 .31799317 .22323609 .2849884 .25523377 .24598694 .26322938 .20399475 .27124024 .147995 .28224183 .08099365 .29522706 .08099365 .35324098 .08099365 .38822938 .10699463 .42922975 .19299317 .42922975 .30299378 .42922975 .30799867 .3392334 .30999757 .30822755 .31098939 .2992401 .32199098 .2992401 .32199098 .2992401 .33499146 .2992401 .33499146 .30422975 .33499146 .32322694V.4242401C.33499146 .4412384 .33499146 .4482422 .32398988 .4482422 .31900025 .4482422 .31698609 .4482422 .3039856 .43623353 .30099488 .43223573 .29100038 .42323304 .2869873 .42022706 .24899292 .4482422 .20799256 .4482422 .19299317 .4482422 .070999149 .4482422 .032989503 .38124085 .032989503 .3252411 .032989503 .29023744 .04899597 .26223756 .07598877 .24023438 .10798645 .2142334 .13598633 .2082367 .20799256 .19422913 .22999573 .19021607 .31199647 .17422486 .31199647 .10221863 .31199647 .051223756 .2769928 .011245728 .19898987 .011245728 .114990238 .011245728 .07899475 .068222049 .05999756 .1532135 .056991579 .16621399 .055999757 .17021179 .04598999 .17021179 .032989503 .17021179 .032989503 .16322327 .032989503 .1452179V.013214111C.032989503-.003753662 .032989503-.0107421879 .04399109-.0107421879 .04899597-.0107421879 .049987794-.009750366 .068984989 .009246826 .070999149 .011245728 .070999149 .013214111 .08898926 .032226564 .1329956-.009750366 .17799378-.0107421879 .19898987-.0107421879 .31399537-.0107421879 .3600006 .05621338 .3600006 .1282196V.12823487Z"/>
<path id="font_6_50" d="M.4149933 .11933899C.4149933 .12934876 .40699769 .13134766 .4019928 .13134766 .3929901 .13134766 .3909912 .12535095 .3889923 .11734009 .35398866 .014251709 .2639923 .014251709 .2539978 .014251709 .20399475 .014251709 .1639862 .044281007 .14099121 .08131409 .11099243 .12934876 .11099243 .19540406 .11099243 .23144531H.3899994C.4119873 .23144531 .4149933 .23144531 .4149933 .2524414 .4149933 .35131837 .36099244 .4482422 .23599243 .4482422 .11999512 .4482422 .027999878 .34532167 .027999878 .22042847 .027999878 .08631897 .1329956-.0107421879 .24798584-.0107421879 .36999513-.0107421879 .4149933 .10032654 .4149933 .11933899M.34899903 .2524414H.11199951C.117996219 .40126039 .20199585 .426239 .23599243 .426239 .33898927 .426239 .34899903 .2913971 .34899903 .2524414Z"/>
<path id="font_6_66" d="M.24699402 0V.0309906C.18099976 .0309906 .1769867 .035995485 .1769867 .075042728V.4423828L.036987306 .43066407V.3996582C.101989749 .3996582 .11099243 .3936615 .11099243 .3447113V.07595825C.11099243 .0309906 .099990848 .0309906 .032989503 .0309906V0L.14299011 .0029907227C.17799378 .0029907227 .21299744 .0009918213 .24699402 0M.19198609 .603775C.19198609 .6307678 .16899109 .6567688 .13899231 .6567688 .10499573 .6567688 .084991458 .6287689 .084991458 .603775 .084991458 .57676699 .10798645 .55078127 .13798523 .55078127 .17199707 .55078127 .19198609 .5787811 .19198609 .603775Z"/>
<path id="font_6_55" d="M.35699464 .63479617C.35699464 .6717987 .31999208 .7050781 .2669983 .7050781 .19699097 .7050781 .11199951 .65179446 .11199951 .5457611V.43066407H.032989503V.3996582H.11199951V.07595825C.11199951 .0309906 .100997928 .0309906 .033996583 .0309906V0L.147995 .0029907227C.18798828 .0029907227 .23498535 .0029907227 .2749939 0V.0309906H.2539978C.17999268 .0309906 .17799378 .04197693 .17799378 .07795715V.3996582H.2919922V.43066407H.1749878V.5467529C.1749878 .63479617 .22299195 .68307498 .2669983 .68307498 .269989 .68307498 .2849884 .68307498 .2999878 .675827 .28799439 .6717987 .269989 .6587982 .269989 .6338043 .269989 .61079409 .28599549 .5907898 .31298829 .5907898 .34199525 .5907898 .35699464 .61079409 .35699464 .63479617Z"/>
<path id="font_6_105" d="M.33198548 .12385559V.18066406H.30699159V.12585449C.30699159 .052108766 .2769928 .014251709 .23999024 .014251709 .17298889 .014251709 .17298889 .10491943 .17298889 .12187195V.3996582H.31599427V.43066407H.17298889V.6142578H.147995C.14698792 .5324249 .116989139 .42565919 .018997193 .42166139V.3996582H.10398865V.12408447C.10398865 .0012512207 .19699097-.0107421879 .23298645-.0107421879 .3039856-.0107421879 .33198548 .060180665 .33198548 .12408447V.12385559Z"/>
</defs>
<path transform="matrix(1.00003,0,0,-1.00008,26.342377,174.80402)" stroke-width=".19925" stroke-linecap="butt" stroke-miterlimit="10" stroke-linejoin="miter" fill="none" stroke="#929292" d="M0 79.28079V82.11555M12.14207 79.28079V82.11555M24.28418 79.28079V82.11555M36.42627 79.28079V82.11555M48.56839 79.28079V82.11555M60.71051 79.28079V82.11555M72.85258 79.28079V82.11555M84.99467 79.28079V82.11555M97.1368 79.28079V82.11555M109.2789 79.28079V82.11555M121.42099 79.28079V82.11555M133.56308 79.28079V82.11555M145.7052 79.28079V82.11555M157.84729 79.28079V82.11555M169.9894 79.28079V82.11555M182.13149 79.28079V82.11555M194.2736 79.28079V82.11555"/>
<path transform="matrix(1.00003,0,0,-1.00008,26.342377,174.80402)" stroke-width=".19925" stroke-linecap="butt" stroke-miterlimit="10" stroke-linejoin="miter" fill="none" stroke="#929292" d="M24.28418 78.5723V82.82404M48.56839 78.5723V82.82404M72.85258 78.5723V82.82404M97.1368 78.5723V82.82404M121.42099 78.5723V82.82404M145.7052 78.5723V82.82404M169.9894 78.5723V82.82404M194.2736 78.5723V82.82404"/>
<path transform="matrix(1.00003,0,0,-1.00008,26.342377,174.80402)" stroke-width=".19925" stroke-linecap="butt" stroke-miterlimit="10" stroke-linejoin="miter" fill="none" stroke="#929292" d="M-2.12628 0H2.12628M-2.12628 40.34909H2.12628M-2.12628 121.04727H2.12628M-2.12628 161.39636H2.12628"/>
<path transform="matrix(1.00003,0,0,-1.00008,26.342377,174.80402)" stroke-width=".3985" stroke-linecap="butt" stroke-miterlimit="10" stroke-linejoin="miter" fill="none" stroke="#000000" d="M0 80.69818H192.28108"/>
<path transform="matrix(1.00003,0,0,-1.00008,218.62924,94.09938)" d="M1.99252 0-1.19551 1.59401 0 0-1.19551-1.59401"/>
<path transform="matrix(1.00003,0,0,-1.00008,26.342377,174.80402)" stroke-width=".3985" stroke-linecap="butt" stroke-miterlimit="10" stroke-linejoin="miter" fill="none" stroke="#000000" d="M0 0V159.40384"/>
<path transform="matrix(0,-1.00008,-1.00003,-0,26.342377,15.387421)" d="M1.99252 0-1.19551 1.59401 0 0-1.19551-1.59401"/>
<use data-text="&#x03c0;" xlink:href="#font_1_1" transform="matrix(6.9740097,0,0,-6.974358,48.173028,102.74925)"/>
<path transform="matrix(1.00003,0,0,-1.00008,-94.81426,-49.19989)" stroke-width=".3985" stroke-linecap="butt" stroke-miterlimit="10" stroke-linejoin="miter" fill="none" stroke="#000000" d="M142.983-153.369H147.892"/>
<use data-text="2" xlink:href="#font_2_1" transform="matrix(6.9740097,0,0,-6.974358,48.642038,110.10785)"/>
<use data-text="&#x03c0;" xlink:href="#font_3_1" transform="matrix(9.962899,0,0,-9.963397,71.893749,104.035358)"/>
<use data-text="3" xlink:href="#font_2_2" transform="matrix(6.9740097,0,0,-6.974358,94.75743,104.240367)"/>
<use data-text="&#x03c0;" xlink:href="#font_1_1" transform="matrix(6.9740097,0,0,-6.974358,98.728549,104.240367)"/>
<path transform="matrix(1.00003,0,0,-1.00008,-48.22986,-47.70878)" stroke-width=".3985" stroke-linecap="butt" stroke-miterlimit="10" stroke-linejoin="miter" fill="none" stroke="#000000" d="M142.983-153.369H151.863"/>
<use data-text="2" xlink:href="#font_2_1" transform="matrix(6.9740097,0,0,-6.974358,97.2115,111.59896)"/>
<use data-text="2" xlink:href="#font_4_5" transform="matrix(9.962899,0,0,-9.963397,117.97313,106.16652)"/>
<use data-text="&#x03c0;" xlink:href="#font_3_1" transform="matrix(9.962899,0,0,-9.963397,122.95528,106.16652)"/>
<use data-text="5" xlink:href="#font_2_3" transform="matrix(6.9740097,0,0,-6.974358,143.32689,104.240367)"/>
<use data-text="&#x03c0;" xlink:href="#font_1_1" transform="matrix(6.9740097,0,0,-6.974358,147.298,104.240367)"/>
<path transform="matrix(1.00003,0,0,-1.00008,.3395996,-47.70878)" stroke-width=".3985" stroke-linecap="butt" stroke-miterlimit="10" stroke-linejoin="miter" fill="none" stroke="#000000" d="M142.983-153.369H151.863"/>
<use data-text="2" xlink:href="#font_2_1" transform="matrix(6.9740097,0,0,-6.974358,145.78096,111.59896)"/>
<use data-text="3" xlink:href="#font_4_6" transform="matrix(9.962899,0,0,-9.963397,166.54259,106.16652)"/>
<use data-text="&#x03c0;" xlink:href="#font_3_1" transform="matrix(9.962899,0,0,-9.963397,171.52474,106.16652)"/>
<use data-text="7" xlink:href="#font_2_4" transform="matrix(6.9740097,0,0,-6.974358,191.89736,104.240367)"/>
<use data-text="&#x03c0;" xlink:href="#font_1_1" transform="matrix(6.9740097,0,0,-6.974358,195.86847,104.240367)"/>
<path transform="matrix(1.00003,0,0,-1.00008,48.910066,-47.70878)" stroke-width=".3985" stroke-linecap="butt" stroke-miterlimit="10" stroke-linejoin="miter" fill="none" stroke="#000000" d="M142.983-153.369H151.863"/>
<use data-text="2" xlink:href="#font_2_1" transform="matrix(6.9740097,0,0,-6.974358,194.35143,111.59896)"/>
<use data-text="4" xlink:href="#font_4_7" transform="matrix(9.962899,0,0,-9.963397,215.11305,106.16652)"/>
<use data-text="&#x03c0;" xlink:href="#font_3_1" transform="matrix(9.962899,0,0,-9.963397,220.0952,106.16652)"/>
<use data-text="&#x2212;" xlink:href="#font_5_1" transform="matrix(9.962899,0,0,-9.963397,7.9658205,177.59925)"/>
<use data-text="1" xlink:href="#font_4_4" transform="matrix(9.962899,0,0,-9.963397,15.715042,177.59925)"/>
<use data-text="&#x2212;" xlink:href="#font_5_1" transform="matrix(9.962899,0,0,-9.963397,.21659851,137.24701)"/>
<use data-text="0" xlink:href="#font_4_3" transform="matrix(9.962899,0,0,-9.963397,7.9658205,137.24701)"/>
<use data-text="." xlink:href="#font_3_2" transform="matrix(9.962899,0,0,-9.963397,12.946976,137.24701)"/>
<use data-text="5" xlink:href="#font_4_8" transform="matrix(9.962899,0,0,-9.963397,15.715073,137.24701)"/>
<use data-text="0" xlink:href="#font_4_3" transform="matrix(9.962899,0,0,-9.963397,7.9658205,56.957597)"/>
<use data-text="." xlink:href="#font_3_2" transform="matrix(9.962899,0,0,-9.963397,12.947968,56.957597)"/>
<use data-text="5" xlink:href="#font_4_8" transform="matrix(9.962899,0,0,-9.963397,15.715042,56.957597)"/>
<use data-text="1" xlink:href="#font_4_4" transform="matrix(9.962899,0,0,-9.963397,15.715057,16.605362)"/>
<path transform="matrix(1.00003,0,0,-1.00008,26.342377,174.80402)" stroke-width=".99628" stroke-linecap="butt" stroke-miterlimit="10" stroke-linejoin="miter" fill="none" stroke="#0000ff" d="M0 80.69818 .97621 85.7902 1.95245 90.8621 2.9287 95.89363 3.90494 100.86304 4.88118 105.75496 5.85742 110.54358 6.83366 115.21681 7.8099 119.75206 8.78615 124.12994 9.76239 128.3343 10.73862 132.34984 11.71486 136.1588 12.6911 139.74906 13.66734 143.10047 14.64359 146.2041 15.61983 149.04953 16.59607 151.61814 17.57231 153.90756 18.54854 155.90242 19.52478 157.59871 20.50102 158.99155 21.47725 160.06644 22.45349 160.82904 23.42973 161.27045 24.406 161.3899 25.38225 161.19057 26.35849 160.66765 27.33473 159.82677 28.31096 158.67279 29.2872 157.20488 30.26344 155.43276 31.23969 153.36205 32.21591 151.00403 33.19215 148.3652 34.1684 145.45523 35.14464 142.28704 36.12088 138.87509 37.09712 135.22756 38.07336 131.36614 39.0496 127.30219 40.02585 123.0518 41.00209 118.63438 41.97833 114.06284 42.95456 109.35893 43.9308 104.54367 44.90704 99.62915 45.88327 94.64201 46.85951 89.59837 47.83575 84.52003 48.812 79.42717 49.78824 74.33835 50.76448 69.27452 51.74072 64.25671 52.71695 59.30508 53.69319 54.43575 54.66943 49.67375 55.64568 45.03523 56.62192 40.5363 57.59816 36.20198 58.5744 32.0412 59.55064 28.07649 60.52689 24.3208 61.50313 20.78865 62.47937 17.49777 63.45558 14.45625 64.43182 11.68184 65.40807 9.1794 66.38431 6.9618 67.36055 5.042 68.33679 3.4232 69.31303 2.10782 70.28928 1.1104 71.26552 .42769 72.24176 .06615 73.21803 .02742 74.19424 .30664 75.17049 .91028 76.14673 1.82861 77.12297 3.06247 78.09921 4.60544 79.07545 6.451 80.0517 8.59595 81.02794 11.02658 82.00418 13.73239 82.98042 16.70934 83.95667 19.93808 84.93289 23.41052 85.90913 27.11215 86.88538 31.0244 87.86162 35.13759 88.83786 39.43073 89.8141 43.8901 90.79034 48.49556 91.76657 53.22769 92.74281 58.07202 93.71906 63.0051 94.6953 68.00758 95.67152 73.0625 96.64777 78.1481 97.62401 83.24016 98.6003 88.32414 99.57646 93.37909 100.55276 98.38316 101.52893 103.31465 102.50522 108.15976 103.48152 112.89189 104.45767 117.49734 105.43394 121.95755 106.41013 126.24986 107.38641 130.36469 108.36272 134.2769 109.33887 137.97855 110.31519 141.4518 111.29132 144.68053 112.26761 147.65828 113.24393 150.3649 114.22008 152.79634 115.19638 154.94132 116.17252 156.78607 117.1488 158.33142 118.12512 159.5653 119.10126 160.48607 120.07758 161.08969 121.05373 161.36891 122.03003 161.33019 123.00632 160.96865 123.98247 160.28675 124.95879 159.29012 125.93492 157.97718 126.91122 156.35675 127.88751 154.43694 128.86367 152.22016 129.83997 149.72093 130.81612 146.94654 131.79244 143.90341 132.76873 140.61254 133.74488 137.08197 134.72118 133.32791 135.69733 129.36402 136.67363 125.20322 137.64992 120.8673 138.62606 116.3708 139.60237 111.73065 140.57852 106.97026 141.55483 102.10175 142.53112 97.14929 143.5073 92.13148 144.48358 87.06769 145.45972 81.97885 146.43604 76.88599 147.41234 71.80684 148.38848 66.764 149.36476 61.77606 150.34095 56.86316 151.31723 52.04547 152.29354 47.34157 153.26969 42.77083 154.24597 38.35179 155.22214 34.10222 156.19843 30.03665 157.17475 26.17363 158.15088 22.5285 159.12717 19.11577 160.10334 15.94756 161.07962 13.03598 162.05594 10.39795 163.03208 8.03833 164.00839 5.9668 164.98455 4.19548 165.96083 2.72598 166.93714 1.57118 167.91329 .73111 168.88959 .20576 169.86574 .00644 170.84204 .12589 171.81833 .56648 172.79448 1.32828 173.7708 2.40237 174.74694 3.79523 175.72325 5.49069 176.69954 7.48555 177.67569 9.77333 178.652 12.34277 179.62813 15.18497 180.60445 18.29022 181.58074 21.64243 182.55687 25.23027 183.53319 29.03922 184.50934 33.05396 185.48564 37.25833 186.46193 41.63701 187.43811 46.17065 188.4144 50.84306 189.39054 55.6317 190.36684 60.52364 191.34313 65.49463 192.31929 70.52617 193.29558 75.59804 194.27173 80.69011"/>
<use data-text="y" xlink:href="#font_3_4" transform="matrix(9.962899,0,0,-9.963397,224.43833,96.59876)" fill="#0000ff"/>
<use data-text="=" xlink:href="#font_4_9" transform="matrix(9.962899,0,0,-9.963397,232.44857,96.59876)" fill="#0000ff"/>
<use data-text="s" xlink:href="#font_4_14" transform="matrix(9.962899,0,0,-9.963397,242.94947,96.59876)" fill="#0000ff"/>
<use data-text="i" xlink:href="#font_4_11" transform="matrix(9.962899,0,0,-9.963397,246.87483,96.59876)" fill="#0000ff"/>
<use data-text="n" xlink:href="#font_4_12" transform="matrix(9.962899,0,0,-9.963397,249.63457,96.59876)" fill="#0000ff"/>
<use data-text="(" xlink:href="#font_4_1" transform="matrix(9.962899,0,0,-9.963397,255.16397,96.59876)" fill="#0000ff"/>
<use data-text="x" xlink:href="#font_3_3" transform="matrix(9.962899,0,0,-9.963397,259.07136,96.59876)" fill="#0000ff"/>
<use data-text=")" xlink:href="#font_4_2" transform="matrix(9.962899,0,0,-9.963397,264.76554,96.59876)" fill="#0000ff"/>
<path transform="matrix(1.00003,0,0,-1.00008,26.342377,174.80402)" stroke-width=".99628" stroke-linecap="butt" stroke-miterlimit="10" stroke-linejoin="miter" fill="none" stroke="#ff0000" d="M0 161.39636 .97621 161.23174 1.95245 160.75077 2.9287 159.94944 3.90494 158.83177 4.88118 157.40583 5.85742 155.66919 6.83366 153.63722 7.8099 151.31392 8.78615 148.70737 9.76239 145.8329 10.73862 142.69455 11.71486 139.31166 12.6911 135.698 13.66734 131.8584 14.64359 127.81944 15.61983 123.59248 16.59607 119.19281 17.57231 114.64143 18.54854 109.95369 19.52478 105.15053 20.50102 100.24731 21.47725 95.26903 22.45349 90.23024 23.42973 85.15594 24.406 80.06306 25.38225 74.97101 26.35849 69.90398 27.33473 64.8789 28.31096 59.91676 29.2872 55.03937 30.26344 50.26125 31.23969 45.60738 32.21591 41.0907 33.19215 36.72977 34.1684 32.55121 35.14464 28.55989 36.12088 24.77594 37.09712 21.21878 38.07336 17.89319 39.0496 14.82344 40.02585 12.01192 41.00209 9.47395 41.97833 7.2257 42.95456 5.26553 43.9308 3.608 44.90704 2.25711 45.88327 1.2153 46.85951 .49628 47.83575 .0944 48.812 .0121 49.78824 .2558 50.76448 .81664 51.74072 1.69707 52.71695 2.89221 53.69319 4.3948 54.66943 6.20729 55.64568 8.31271 56.62192 10.70702 57.59816 13.38216 58.5744 16.32199 59.55064 19.52167 60.52689 22.96507 61.50313 26.63684 62.47937 30.5281 63.45558 34.61465 64.43182 38.88602 65.40807 43.32684 66.38431 47.9121 67.36055 52.63054 68.33679 57.46274 69.31303 62.38452 70.28928 67.38135 71.26552 72.42984 72.24176 77.5114 73.21803 82.60426 74.19424 87.69066 75.17049 92.75044 76.14673 97.76099 77.12297 102.70456 78.09921 107.56018 79.07545 112.30846 80.0517 116.93085 81.02794 121.40959 82.00418 125.72533 82.98042 129.8595 83.95667 133.8016 84.93289 137.52906 85.90913 141.02974 86.88538 144.29317 87.86162 147.29999 88.83786 150.04293 89.8141 152.50988 90.79034 154.6863 91.76657 156.57463 92.74281 158.1539 93.71906 159.42893 94.6953 160.39005 95.67152 161.02918 96.64777 161.35358H97.62401L98.6003 161.02918 99.57646 160.39167 100.55276 159.42974 101.52893 158.15793 102.50522 156.57787 103.48152 154.69196 104.45767 152.51309 105.43394 150.04695 106.41013 147.30483 107.38641 144.29883 108.36272 141.0362 109.33887 137.5355 110.31519 133.80887 111.29132 129.86756 112.26761 125.73259 113.24393 121.41685 114.22008 116.93973 115.19638 112.31813 116.17252 107.56906 117.1488 102.71344 118.12512 97.77068 119.10126 92.75932 120.07758 87.70114 121.05373 82.61394 122.03003 77.52269 123.00632 72.43951 123.98247 67.39104 124.95879 62.3942 125.93492 57.4708 126.91122 52.64021 127.88751 47.92097 128.86367 43.33409 129.83997 38.8949 130.81612 34.62192 131.79244 30.53537 132.76873 26.6441 133.74488 22.97232 134.72118 19.52814 135.69733 16.32765 136.67363 13.3862 137.64992 10.71187 138.62606 8.31674 139.60237 6.20972 140.57852 4.39723 141.55483 2.89464 142.53112 1.69788 143.5073 .81746 144.48358 .2558 145.45972 .0121 146.43604 .0936 147.41234 .49466 148.38848 1.21288 149.36476 2.2547 150.34095 3.60315 151.31723 5.26312 152.29354 7.22086 153.26969 9.47072 154.24597 12.00789 155.22214 14.81697 156.19843 17.88754 157.17475 21.2123 158.15088 24.76866 159.12717 28.55263 160.10334 32.54314 161.07962 36.7225 162.05594 41.08344 163.03208 45.59688 164.00839 50.25316 164.98455 55.0297 165.96083 59.90788 166.93714 64.87003 167.91329 69.8951 168.88959 74.96213 169.86574 80.05258 170.84204 85.14464 171.81833 90.22136 172.79448 95.25774 173.7708 100.23843 174.74694 105.14084 175.72325 109.944 176.69954 114.63336 177.67569 119.18393 178.652 123.58522 179.62813 127.81139 180.60445 131.85114 181.58074 135.69075 182.55687 139.30603 183.53319 142.6897 184.50934 145.82726 185.48564 148.70252 186.46193 151.3107 187.43811 153.6332 188.4144 155.66678 189.39054 157.40341 190.36684 158.82933 191.34313 159.94861 192.31929 160.74834 193.29558 161.23174 194.27173 161.39473"/>
<use data-text="y" xlink:href="#font_3_4" transform="matrix(9.962899,0,0,-9.963397,224.43833,15.887299)" fill="#ff0000"/>
<use data-text="=" xlink:href="#font_4_9" transform="matrix(9.962899,0,0,-9.963397,232.44857,15.887299)" fill="#ff0000"/>
<use data-text="c" xlink:href="#font_4_10" transform="matrix(9.962899,0,0,-9.963397,242.94947,15.887299)" fill="#ff0000"/>
<use data-text="o" xlink:href="#font_4_13" transform="matrix(9.962899,0,0,-9.963397,247.37299,15.887299)" fill="#ff0000"/>
<use data-text="s" xlink:href="#font_4_14" transform="matrix(9.962899,0,0,-9.963397,252.35443,15.887299)" fill="#ff0000"/>
<use data-text="(" xlink:href="#font_4_1" transform="matrix(9.962899,0,0,-9.963397,256.27983,15.887299)" fill="#ff0000"/>
<use data-text="x" xlink:href="#font_3_3" transform="matrix(9.962899,0,0,-9.963397,260.1784,15.887299)" fill="#ff0000"/>
<use data-text=")" xlink:href="#font_4_2" transform="matrix(9.962899,0,0,-9.963397,265.87257,15.887299)" fill="#ff0000"/>
<path transform="matrix(1.00003,0,0,-1.00008,26.342377,174.80402)" stroke-width=".3985" stroke-linecap="butt" stroke-miterlimit="10" stroke-linejoin="miter" fill="none" stroke="#000000" d="M0 161.39636H24.28409"/>
<use data-text="p" xlink:href="#font_6_84" transform="matrix(9.962899,0,0,-9.963397,15.042038,7.9416658)"/>
<use data-text="h" xlink:href="#font_6_63" transform="matrix(9.962899,0,0,-9.963397,20.581406,7.9416658)"/>
<use data-text="a" xlink:href="#font_6_28" transform="matrix(9.962899,0,0,-9.963397,26.120774,7.9416658)"/>
<use data-text="s" xlink:href="#font_6_98" transform="matrix(9.962899,0,0,-9.963397,31.102219,7.9416658)"/>
<use data-text="e" xlink:href="#font_6_50" transform="matrix(9.962899,0,0,-9.963397,35.027589,7.9416658)"/>
<use data-text="s" xlink:href="#font_6_98" transform="matrix(9.962899,0,0,-9.963397,42.768785,7.9416658)"/>
<use data-text="h" xlink:href="#font_6_63" transform="matrix(9.962899,0,0,-9.963397,46.694154,7.9416658)"/>
<use data-text="i" xlink:href="#font_6_66" transform="matrix(9.962899,0,0,-9.963397,52.23352,7.9416658)"/>
<use data-text="f" xlink:href="#font_6_55" transform="matrix(9.962899,0,0,-9.963397,55.00322,7.9416658)"/>
<use data-text="t" xlink:href="#font_6_105" transform="matrix(9.962899,0,0,-9.963397,58.051866,7.9416658)"/>
<use data-text="x" xlink:href="#font_3_3" transform="matrix(9.962899,0,0,-9.963397,211.40793,90.57928)"/>
<use data-text="y" xlink:href="#font_3_4" transform="matrix(9.962899,0,0,-9.963397,29.86248,21.204728)"/>
</svg>
