<svg xmlns="http://www.w3.org/2000/svg" xmlns:xlink="http://www.w3.org/1999/xlink" version="1.1" width="245" height="205" viewBox="0 0 245 205">
<defs>
<path id="font_1_1" d="M.6589966 .23046875C.6759949 .23046875 .69400027 .23046875 .69400027 .25045777 .69400027 .27046205 .6759949 .27046205 .6589966 .27046205H.117996219C.100997928 .27046205 .08299255 .27046205 .08299255 .25045777 .08299255 .23046875 .100997928 .23046875 .117996219 .23046875H.6589966Z"/>
<path id="font_2_2" d="M.2939911 .64004519C.2939911 .66400149 .2939911 .6660156 .2709961 .6660156 .20899964 .60227969 .12098694 .60227969 .08898926 .60227969V.57128909C.10899353 .57128909 .16799927 .57128909 .21998596 .5972748V.07902527C.21998596 .042999269 .21699524 .0309906 .1269989 .0309906H.09498596V0C.12998963 .0029907227 .21699524 .0029907227 .25698854 .0029907227 .29699708 .0029907227 .38398744 .0029907227 .4189911 0V.0309906H.3869934C.29699708 .0309906 .2939911 .041992189 .2939911 .07902527V.64004519Z"/>
<path id="font_2_1" d="M.45999146 .31976319C.45999146 .39982606 .45498658 .47988893 .41999818 .5539398 .37399293 .65000918 .2919922 .6660156 .25 .6660156 .18998719 .6660156 .116989139 .64001467 .07598877 .54693606 .04399109 .47789 .038986207 .39982606 .038986207 .31976319 .038986207 .24472046 .042999269 .15464783 .083999637 .07859802 .1269989-.0024719239 .19999695-.022460938 .24899292-.022460938 .30299378-.022460938 .3789978-.0014648438 .4229889 .09359741 .45498658 .16265869 .45999146 .2407074 .45999146 .31976319M.24899292-.00047302247C.20999146-.00047302247 .15098572 .024551392 .1329956 .12062073 .12199402 .18066406 .12199402 .2727356 .12199402 .3317871 .12199402 .39582826 .12199402 .46188355 .12998963 .5159149 .14898682 .63500979 .22399903 .64401248 .24899292 .64401248 .28199769 .64401248 .34799195 .6259918 .36698915 .52693179 .3769989 .47088624 .3769989 .39482118 .3769989 .3317871 .3769989 .25672914 .3769989 .18867493 .3659973 .12461853 .35099793 .029556275 .2939911-.00047302247 .24899292-.00047302247Z"/>
<path id="font_2_3" d="M.44898988 .20022583C.44898988 .3193512 .36698915 .41944886 .25898744 .41944886 .21099854 .41944886 .16799927 .40345765 .13198853 .36842347V.5637665C.1519928 .5577698 .18499756 .55078127 .21699524 .55078127 .33999635 .55078127 .4099884 .6417694 .4099884 .6547699 .4099884 .6607666 .40699769 .6657715 .3999939 .6657715 .39898683 .6657715 .39698792 .6657715 .3919983 .66278079 .37199403 .6537781 .32299806 .6337738 .2559967 .6337738 .21598816 .6337738 .16999817 .6407776 .12298584 .6617737 .114990238 .66477969 .11299133 .66477969 .11099243 .66477969 .100997928 .66477969 .100997928 .6567688 .100997928 .6407776V.34439088C.100997928 .32637025 .100997928 .31835938 .114990238 .31835938 .12199402 .31835938 .12399292 .32136537 .12799073 .32736207 .13899231 .3433838 .17599488 .39746095 .25698854 .39746095 .30899049 .39746095 .33399964 .35139466 .34199525 .33337403 .35798646 .29632569 .3600006 .25727845 .3600006 .20722962 .3600006 .17222595 .3600006 .11222839 .33599855 .07035828 .31199647 .031463624 .2749939 .0055389406 .22898865 .0055389406 .1559906 .0055389406 .09899902 .058380128 .08198547 .11723328 .084991458 .1162262 .08799744 .115234378 .09899902 .115234378 .13198853 .115234378 .14898682 .14022827 .14898682 .16423035 .14898682 .18823242 .13198853 .21322632 .09899902 .21322632 .084991458 .21322632 .049987794 .20622254 .049987794 .16023255 .049987794 .07434082 .11898804-.022460938 .23098755-.022460938 .34700013-.022460938 .44898988 .073349 .44898988 .20022583Z"/>
<path id="font_3_1" d="M.31098939 .36265565H.42999269C.4149933 .30274964 .3929901 .2118988 .3929901 .13302613 .3929901 .09309387 .397995 .06613159 .4039917 .044174196 .41999818-.0057678224 .43299867-.009765625 .44898988-.009765625 .47200013-.009765625 .49598695 .011230469 .49598695 .035186769 .49598695 .043182374 .49398805 .047164918 .48799134 .057159425 .46899415 .09408569 .45098878 .15100098 .45098878 .23286438 .45098878 .25183106 .45098878 .29177857 .46499635 .36265565H.58999636C.60798647 .36265565 .6159973 .36265565 .6269989 .37065126 .6409912 .380661 .6439972 .39665223 .6439972 .4016571 .6439972 .43066407 .6179962 .43066407 .6009979 .43066407H.22399903C.18299866 .43066407 .15499878 .42166139 .10998535 .37965394 .083999637 .35665895 .04499817 .30274964 .04499817 .2937622 .04499817 .28178407 .057998659 .28178407 .06199646 .28178407 .07299805 .28178407 .07398987 .28378297 .07998657 .2927704 .1309967 .36265565 .19299317 .36265565 .21499634 .36265565H.27598573C.24499512 .25283814 .19099427 .13502503 .16099549 .07511902 .15499878 .062149049 .14498902 .04118347 .14199829 .03718567 .14099121 .033187868 .13899231 .029190064 .13899231 .022201539 .13899231 .006225586 .15098572-.009765625 .17399597-.009765625 .21398926-.009765625 .22499085 .035186769 .24899292 .12504578L.31098939 .36265565Z"/>
<path id="font_4_1" d="M.5049896 .18203736H.47099305C.46798707 .16001892 .45799256 .100997928 .44499208 .09098816 .43699647 .084991458 .3600006 .084991458 .34599305 .084991458H.1619873C.2669983 .17803955 .3019867 .20603943 .3619995 .25306703 .43598939 .312088 .5049896 .374115 .5049896 .46914674 .5049896 .5900879 .39898683 .6640625 .2709961 .6640625 .14698792 .6640625 .06298828 .57710269 .06298828 .4851532 .06298828 .43414308 .10598755 .42915345 .115997318 .42915345 .13999939 .42915345 .16899109 .44615174 .16899109 .48214723 .16899109 .5001526 .1619873 .53515627 .10998535 .53515627 .14099121 .6060791 .20899964 .62805178 .2559967 .62805178 .35598756 .62805178 .4079895 .5501404 .4079895 .46914674 .4079895 .38212586 .34599305 .3130951 .31399537 .27708436L.07299805 .038986207C.06298828 .02999878 .06298828 .027999878 .06298828 0H.47499085L.5049896 .18203736Z"/>
<path id="font_5_1" d="M.2649994 .37265016H.37799073C.34498597 .22489929 .33599855 .18196106 .33599855 .11508179 .33599855 .100097659 .33599855 .073150638 .34399415 .03919983 .35398866-.0047454836 .36499024-.0107421879 .37998963-.0107421879 .3999939-.0107421879 .42099 .007247925 .42099 .02722168 .42099 .033218385 .42099 .035202028 .4149933 .049179079 .38598634 .12106323 .38598634 .18595886 .38598634 .21391297 .38598634 .26683045 .3929901 .32073976 .4039917 .37265016H.5179901C.5309906 .37265016 .5669861 .37265016 .5669861 .406662 .5669861 .43066407 .54599 .43066407 .5269928 .43066407H.19198609C.16999817 .43066407 .13198853 .43066407 .08799744 .38365174 .052993776 .34469605 .026992798 .29878236 .026992798 .29379273 .026992798 .29278565 .026992798 .28379823 .038986207 .28379823 .04699707 .28379823 .04899597 .28779603 .054992677 .29577638 .10398865 .37265016 .1619873 .37265016 .18199158 .37265016H.23899842C.20698548 .25186158 .15299988 .13105774 .11099243 .04020691 .102996829 .025222779 .102996829 .023223877 .102996829 .016235352 .102996829-.002746582 .11898804-.0107421879 .13198853-.0107421879 .1619873-.0107421879 .16999817 .017242432 .18199158 .05418396 .19599915 .100097659 .19599915 .10209656 .20899964 .15202332L.2649994 .37265016Z"/>
<path id="font_4_2" d="M.272995 .33428956C.35099793 .33428956 .40699769 .2803192 .40699769 .1733551 .40699769 .04940796 .33499146 .012466431 .2769928 .012466431 .23699951 .012466431 .14898682 .0234375 .10699463 .082351688 .1539917 .084350589 .16499329 .11735535 .16499329 .13835144 .16499329 .17034912 .14099121 .19335938 .10998535 .19335938 .08198547 .19335938 .053985597 .17634583 .053985597 .13534546 .053985597 .041412355 .1579895-.01953125 .2789917-.01953125 .41799928-.01953125 .5139923 .07336426 .5139923 .1733551 .5139923 .2513275 .44999696 .32929994 .33999635 .35229493 .44499208 .39024354 .48298646 .4650879 .48298646 .5260773 .48298646 .60505679 .3919983 .6640625 .2809906 .6640625 .16999817 .6640625 .084991458 .61006167 .084991458 .5300751 .084991458 .49606324 .10699463 .47706605 .13699341 .47706605 .16799927 .47706605 .18798828 .5000763 .18798828 .5280762 .18798828 .5570679 .16799927 .57806399 .13699341 .5800781 .17199707 .62405398 .24099732 .63505557 .27799989 .63505557 .32299806 .63505557 .38598634 .6130676 .38598634 .5260773 .38598634 .48406983 .37199403 .43814088 .34599305 .4072113 .31298829 .36927796 .2849884 .3672943 .23498535 .36428834 .20999146 .3623047 .20799256 .3623047 .20298767 .3612976 .20098877 .3612976 .19299317 .3592987 .19299317 .34829713 .19299317 .33428956 .20199585 .33428956 .21899414 .33428956H.272995Z"/>
<path id="font_5_2" d="M.33399964 .30233766C.33999635 .32835389 .36299134 .42037965 .43299867 .42037965 .43798829 .42037965 .46199037 .42037965 .48298646 .40734864 .45498658 .402359 .43499757 .37734986 .43499757 .35334779 .43499757 .33735658 .44599916 .31835938 .47299195 .31835938 .49499513 .31835938 .5269928 .3363495 .5269928 .37635804 .5269928 .42837525 .46798707 .4423828 .43399049 .4423828 .37599183 .4423828 .34098817 .38935853 .32899476 .36634828 .3039856 .43237306 .25 .4423828 .22099304 .4423828 .116989139 .4423828 .05999756 .3133545 .05999756 .28834535 .05999756 .27833558 .069992069 .27833558 .07199097 .27833558 .07998657 .27833558 .08299255 .28033448 .084991458 .28933717 .11898804 .39535523 .18499756 .42037965 .21899414 .42037965 .23799134 .42037965 .272995 .4113617 .272995 .35334779 .272995 .32235719 .2559967 .25532533 .21899414 .11528015 .20298767 .053268434 .16799927 .011245728 .12399292 .011245728 .117996219 .011245728 .09498596 .011245728 .07398987 .024276734 .09899902 .029266358 .12098694 .05027771 .12098694 .07827759 .12098694 .105270389 .09899902 .11328125 .083999637 .11328125 .053985597 .11328125 .0289917 .08728027 .0289917 .055267335 .0289917 .009246826 .07899475-.0107421879 .12298584-.0107421879 .18899536-.0107421879 .22499085 .059280397 .22799683 .0652771 .23999024 .028274537 .27598573-.0107421879 .33599855-.0107421879 .43899537-.0107421879 .49598695 .118270877 .49598695 .14328003 .49598695 .1532898 .4869995 .1532898 .48399354 .1532898 .47499085 .1532898 .47299195 .14929199 .47099305 .14228821 .43798829 .03527832 .36999513 .011245728 .33799745 .011245728 .29899598 .011245728 .2829895 .043273927 .2829895 .07727051 .2829895 .09927368 .2889862 .121276859 .2999878 .16529846L.33399964 .30233766Z"/>
<path id="font_5_3" d="M.48599244 .38136292C.48999024 .39537049 .48999024 .39736939 .48999024 .40437318 .48999024 .42237855 .47599793 .43138124 .46099855 .43138124 .45098878 .43138124 .43499757 .42536927 .42599488 .41036988 .42399598 .405365 .41600038 .37435914 .4119873 .35635377 .40499879 .33035279 .397995 .30334474 .3919983 .27633668L.34700013 .09628296C.34298707 .08126831 .2999878 .011245728 .23399353 .011245728 .18299866 .011245728 .17199707 .055267335 .17199707 .0922699 .17199707 .1382904 .18899536 .20030213 .22299195 .28833009 .23899842 .3293457 .24299622 .3403473 .24299622 .36035157 .24299622 .405365 .21099854 .4423828 .16099549 .4423828 .06599426 .4423828 .0289917 .29733277 .0289917 .28833009 .0289917 .27833558 .038986207 .27833558 .040985109 .27833558 .050994874 .27833558 .051986696 .28033448 .056991579 .29634095 .083999637 .3903656 .12399292 .42037965 .1579895 .42037965 .1659851 .42037965 .18299866 .42037965 .18299866 .3883667 .18299866 .36335755 .17298889 .3373413 .1659851 .31834413 .12599182 .21231079 .10798645 .1552887 .10798645 .10827637 .10798645 .019256592 .17098999-.0107421879 .22999573-.0107421879 .2689972-.0107421879 .30299378 .0062561037 .33099366 .03425598 .31799317-.017745972 .30599977-.06674194 .2659912-.11973572 .23999024-.15385437 .20199585-.18309021 .1559906-.18309021 .14199829-.18309021 .09700012-.18005371 .07998657-.14074707 .09599304-.14074707 .10899353-.14074707 .12298584-.1287384 .1329956-.11973572 .14299011-.10673523 .14299011-.08773804 .14299011-.056747438 .115997318-.052734376 .10598755-.052734376 .08299255-.052734376 .049987794-.068740848 .049987794-.11773682 .049987794-.16796875 .09399414-.20507813 .1559906-.20507813 .25898744-.20507813 .3619995-.11373901 .3899994-.00074768069L.48599244 .38136292Z"/>
</defs>
<path transform="matrix(1.2500376,0,0,-1.250025,1.0798721,203.59876)" stroke-width=".19925" stroke-linecap="butt" stroke-miterlimit="10" stroke-linejoin="miter" fill="none" stroke="#929292" d="M8.83052 51.67389V55.92583M52.98314 51.67389V55.92583M141.28839 51.67389V55.92583M185.44103 51.67389V55.92583"/>
<path transform="matrix(1.2500376,0,0,-1.250025,1.0798721,203.59876)" stroke-width=".19925" stroke-linecap="butt" stroke-miterlimit="10" stroke-linejoin="miter" fill="none" stroke="#929292" d="M95.00984 26.90002H99.26167M95.00984 80.69968H99.26167M95.00984 107.59972H99.26167M95.00984 134.49967H99.26167"/>
<path transform="matrix(1.2500376,0,0,-1.250025,1.0798721,203.59876)" stroke-width=".3985" stroke-linecap="butt" stroke-miterlimit="10" stroke-linejoin="miter" fill="none" stroke="#000000" d="M0 53.79985H192.27902"/>
<path transform="matrix(1.2500376,0,0,-1.250025,241.43589,136.3476)" d="M1.99252 0-1.19551 1.59401 0 0-1.19551-1.59401"/>
<path transform="matrix(1.2500376,0,0,-1.250025,1.0798721,203.59876)" stroke-width=".3985" stroke-linecap="butt" stroke-miterlimit="10" stroke-linejoin="miter" fill="none" stroke="#000000" d="M97.13577 0V159.40705"/>
<path transform="matrix(0,-1.250025,-1.2500376,-0,122.503238,4.3359529)" d="M1.99252 0-1.19551 1.59401 0 0-1.19551-1.59401"/>
<use data-text="&#x2212;" xlink:href="#font_1_1" transform="matrix(12.453624,0,0,-12.453499,1.0486221,151.4302)"/>
<use data-text="1" xlink:href="#font_2_2" transform="matrix(12.453624,0,0,-12.453499,10.73391,151.4302)"/>
<use data-text="0" xlink:href="#font_2_1" transform="matrix(12.453624,0,0,-12.453499,16.960717,151.4302)"/>
<use data-text="&#x2212;" xlink:href="#font_1_1" transform="matrix(12.453624,0,0,-12.453499,59.354124,151.4302)"/>
<use data-text="5" xlink:href="#font_2_3" transform="matrix(12.453624,0,0,-12.453499,69.03941,151.4302)"/>
<use data-text="5" xlink:href="#font_2_3" transform="matrix(12.453624,0,0,-12.453499,174.58258,151.4302)"/>
<use data-text="1" xlink:href="#font_2_2" transform="matrix(12.453624,0,0,-12.453499,226.66165,151.4302)"/>
<use data-text="0" xlink:href="#font_2_1" transform="matrix(12.453624,0,0,-12.453499,232.88846,151.4302)"/>
<use data-text="&#x2212;" xlink:href="#font_1_1" transform="matrix(12.453624,0,0,-12.453499,96.633998,172.15438)"/>
<use data-text="&#x03c0;" xlink:href="#font_3_1" transform="matrix(8.717512,0,0,-8.717424,107.81433,167.25052)"/>
<path transform="matrix(1.2500376,0,0,-1.250025,-16.400658,-62.10031)" stroke-width=".3985" stroke-linecap="butt" stroke-miterlimit="10" stroke-linejoin="miter" fill="none" stroke="#000000" d="M99.369-184.909H104.278"/>
<use data-text="2" xlink:href="#font_4_1" transform="matrix(8.717512,0,0,-8.717424,108.40059,176.44823)"/>
<use data-text="&#x03c0;" xlink:href="#font_3_1" transform="matrix(8.717512,0,0,-8.717424,107.81432,99.99919)"/>
<path transform="matrix(1.2500376,0,0,-1.250025,-6.714119,-129.35166)" stroke-width=".3985" stroke-linecap="butt" stroke-miterlimit="10" stroke-linejoin="miter" fill="none" stroke="#000000" d="M91.62-184.909H96.529"/>
<use data-text="2" xlink:href="#font_4_1" transform="matrix(8.717512,0,0,-8.717424,108.40059,109.196887)"/>
<use data-text="&#x03c0;" xlink:href="#font_5_1" transform="matrix(12.453624,0,0,-12.453499,107.90058,71.77736)"/>
<use data-text="3" xlink:href="#font_4_2" transform="matrix(8.717512,0,0,-8.717424,102.850429,33.68036)"/>
<use data-text="&#x03c0;" xlink:href="#font_3_1" transform="matrix(8.717512,0,0,-8.717424,107.81432,33.68036)"/>
<path transform="matrix(1.2500376,0,0,-1.250025,-11.678017,-195.67049)" stroke-width=".3985" stroke-linecap="butt" stroke-miterlimit="10" stroke-linejoin="miter" fill="none" stroke="#000000" d="M91.62-184.909H100.501"/>
<use data-text="2" xlink:href="#font_4_1" transform="matrix(8.717512,0,0,-8.717424,105.919269,42.87805)"/>
<path transform="matrix(1.2500376,0,0,-1.250025,1.0798721,203.59876)" stroke-width=".99628" stroke-linecap="butt" stroke-miterlimit="10" stroke-linejoin="miter" fill="none" stroke="#00aeef" d="M11.7191 55.5627 9.71796 55.52382 10.60544 55.54095 11.49292 55.55962 12.38037 55.57623 13.26784 55.59508 14.15532 55.61528 15.04277 55.63411 15.93025 55.65431 16.81772 55.67487 17.70518 55.6949 18.59265 55.71683 19.48013 55.73907 20.36758 55.761 21.25505 55.78293 22.14253 55.80656 23.03 55.83037 23.91745 55.85571 24.80492 55.87917 25.6924 55.90639 26.57988 55.9314 27.46732 55.9583 28.3548 55.98552 29.24228 56.01395 30.12973 56.04271 31.01721 56.07303 31.90468 56.10333 32.79213 56.13518 33.67961 56.16737 34.5671 56.20078 35.45454 56.23451 36.34201 56.2696 37.22949 56.30661 38.11696 56.34343 39.00441 56.38196 39.89189 56.42049 40.77936 56.46057 41.66682 56.50235 42.55428 56.54568 43.44176 56.59071 44.32924 56.63747 45.21669 56.68405 46.10416 56.73389 46.99164 56.78543 47.87909 56.83679 48.76657 56.89177 49.65404 56.9481 50.54149 57.00772 51.42897 57.0673 52.31645 57.13152 53.2039 57.19728 54.09137 57.26494 54.97885 57.33548 55.86632 57.40912 56.75378 57.48618 57.64124 57.56616 58.52872 57.65076 59.41618 57.73862 60.30365 57.82953 61.19112 57.92493 62.0786 58.02495 62.96605 58.13112 63.85353 58.24156 64.741 58.35664 65.62845 58.47908 66.51593 58.60771 67.40341 58.74487 68.29085 58.88786 69.17833 59.03943 70.06581 59.20091 70.95328 59.37045 71.84073 59.55283 72.72821 59.74463 73.61568 59.95099 74.50314 60.17053 75.3906 60.40599 76.27808 60.65875 77.16554 60.93002 78.05301 61.22269 78.94048 61.53882 79.82796 61.88063 80.71541 62.25037 81.60289 62.654 82.49036 63.09274 83.3778 63.5731 84.26529 64.09953 85.15277 64.67732 86.04022 65.31284 86.92769 66.01428 87.81517 66.78918 88.70264 67.64407 89.5901 68.59074 90.47755 69.63623 91.36504 70.7872 92.2525 72.0491 93.13997 73.42273 94.02744 74.90378 94.9149 76.48024 95.80237 78.1332 96.68985 79.83577 97.57732 81.5552 98.46483 83.25795 99.35222 84.91103 100.23975 86.48811 101.12712 87.96951 102.01465 89.34367 102.90218 90.60634 103.78955 91.758 104.67708 92.80365 105.56448 93.751 106.452 94.60622 107.33951 95.38129 108.2269 96.08344 109.11443 96.71997 110.0018 97.29742 110.88933 97.82384 111.77686 98.30386 112.66423 98.74397 113.55176 99.14674 114.43915 99.5175 115.32668 99.85916 116.21419 100.17511 117.10158 100.46812 117.9891 100.73938 118.87648 100.99197 119.764 101.22711 120.65155 101.44699 121.53891 101.65334 122.42644 101.84651 123.31383 102.02719 124.20135 102.19844 125.08887 102.35873 125.97626 102.51147 126.86378 102.65446 127.75117 102.7901 128.63869 102.91838 129.52622 103.041 130.4136 103.15778 131.30112 103.26823 132.1885 103.3727 133.07605 103.47253 133.96355 103.56981 134.85094 103.66074 135.73848 103.74858 136.62584 103.8313 137.51337 103.91316 138.4009 103.99022 139.28827 104.06386 140.1758 104.13443 141.06319 104.20206 141.95072 104.26782 142.83824 104.3305 143.72562 104.39165 144.61315 104.45123 145.50054 104.50757 146.38805 104.56255 147.27558 104.61392 148.16297 104.66547 149.05048 104.71529 149.93787 104.76187 150.82541 104.80864 151.7129 104.85367 152.60031 104.89545 153.48784 104.93724 154.3752 104.97885 155.26274 105.01738 156.15026 105.05591 157.03763 105.09273 157.92517 105.12973 158.81255 105.16483 159.70008 105.19856 160.5876 105.23196 161.47498 105.26416 162.3625 105.296 163.2499 105.32632 164.1374 105.35663 165.02494 105.38539 165.91233 105.41382 166.79984 105.44107 167.68724 105.46794 168.57477 105.49295 169.46227 105.52017 170.34967 105.54364 171.23719 105.56897 172.12456 105.59279 173.0121 105.61642 173.89962 105.63834 174.787 105.66026 175.67453 105.68253 176.5619 105.70444 177.44944 105.72447 178.33696 105.74503 179.22434 105.76523 180.11188 105.78407 180.99925 105.80428 181.88677 105.82312 182.7743 105.83972 183.66168 105.8584 184.5492 105.87552 182.548 105.83774"/>
<path transform="matrix(-1.249775,.024300488,.024300732,1.2497625,15.729212,134.14398)" d="M2.8892 0-1.73352 2.31136 0 0-1.73352-2.31136" fill="#00aeef"/>
<path transform="matrix(1.249775,-.023612975,-.02361321,-1.2497625,229.2717,71.298938)" d="M2.8892 0-1.73352 2.31136 0 0-1.73352-2.31136" fill="#00aeef"/>
<use data-text="x" xlink:href="#font_5_2" transform="matrix(12.453624,0,0,-12.453499,232.40933,131.94733)"/>
<use data-text="y" xlink:href="#font_5_3" transform="matrix(12.453624,0,0,-12.453499,126.90365,11.607422)"/>
</svg>
