<svg xmlns="http://www.w3.org/2000/svg" xmlns:xlink="http://www.w3.org/1999/xlink" xmlns:inkscape="http://www.inkscape.org/namespaces/inkscape" version="1.1" width="205" height="181" viewBox="0 0 205 181">
<defs>
<path id="font_1_3" d="M.1269989 .07699585 .23298645 .18003845C.3889923 .31811524 .44898988 .3721466 .44898988 .47216798 .44898988 .5860901 .35899354 .6660156 .23699951 .6660156 .12399292 .6660156 .049987794 .57411196 .049987794 .48516847 .049987794 .4291687 .099990848 .4291687 .102996829 .4291687 .11999512 .4291687 .15499878 .44117738 .15499878 .48217774 .15499878 .5081787 .13699341 .5341797 .101989749 .5341797 .09399414 .5341797 .09199524 .5341797 .08898926 .5331726 .11199951 .59806826 .1659851 .63500979 .22399903 .63500979 .31498719 .63500979 .35798646 .5541382 .35798646 .47216798 .35798646 .39215089 .30799867 .31311036 .25299073 .25108338L.06098938 .036987306C.049987794 .025985718 .049987794 .023986817 .049987794 0H.42099L.44898988 .17404175H.42399598C.4189911 .14402771 .4119873 .1000061 .4019928 .084991458 .394989 .07699585 .32899476 .07699585 .30699159 .07699585H.1269989Z"/>
<path id="font_1_4" d="M.2939911 .16503906V.07800293C.2939911 .041992189 .2919922 .0309906 .21798706 .0309906H.19699097V0C.23799134 .0029907227 .2899933 .0029907227 .33198548 .0029907227 .37399293 .0029907227 .4269867 .0029907227 .46798707 0V.0309906H.44699098C.37298585 .0309906 .37098695 .041992189 .37098695 .07800293V.16503906H.47099305V.19602967H.37098695V.65075686C.37098695 .67074587 .37098695 .6767578 .35499574 .6767578 .34599305 .6767578 .34298707 .6767578 .33499146 .66474917L.027999878 .19602967V.16503906H.2939911M.2999878 .19602967H.055999757L.2999878 .5688019V.19602967Z"/>
<path id="font_1_5" d="M.13198853 .327713V.35173036C.13198853 .6047821 .2559967 .64100649 .30699159 .64100649 .33099366 .64100649 .37298585 .634964 .394989 .6007538 .37998963 .6007538 .33999635 .6007538 .33999635 .5557556 .33999635 .524765 .3639984 .5097656 .38598634 .5097656 .4019928 .5097656 .43199159 .51875308 .43199159 .5577545 .43199159 .6178589 .3880005 .6660156 .30499269 .6660156 .1769867 .6660156 .041992189 .5367584 .041992189 .31570436 .041992189 .048553468 .1579895-.022460938 .25099183-.022460938 .3619995-.022460938 .45700074 .07156372 .45700074 .2036438 .45700074 .33070375 .36799623 .4267578 .25698854 .4267578 .18899536 .4267578 .1519928 .37573243 .13198853 .327713M.25099183 .0055389406C.18798828 .0055389406 .1579895 .06556702 .1519928 .080566409 .13398743 .127594 .13398743 .2076416 .13398743 .22564698 .13398743 .30369569 .1659851 .40374757 .2559967 .40374757 .27198792 .40374757 .31799317 .40374757 .34899903 .34172059 .36698915 .30470277 .36698915 .2536621 .36698915 .20463562 .36698915 .15661621 .36698915 .10658264 .34999085 .0705719 .31999208 .010528564 .27398683 .0055389406 .25099183 .0055389406Z"/>
<path id="font_1_6" d="M.16299439 .4569702C.116989139 .486969 .11299133 .52098086 .11299133 .5379791 .11299133 .598999 .17799378 .64100649 .24899292 .64100649 .32199098 .64100649 .38598634 .58898928 .38598634 .51698306 .38598634 .45996095 .34700013 .4119568 .2869873 .37695313L.16299439 .4569702M.30899049 .36193849C.3809967 .3989563 .42999269 .45095826 .42999269 .51698306 .42999269 .6090088 .34098817 .6660156 .25 .6660156 .1499939 .6660156 .068984989 .59199526 .068984989 .49897767 .068984989 .4809723 .070999149 .43595887 .11299133 .38894654 .12399292 .37695313 .16099549 .35194398 .18598938 .33494569 .12799073 .30592347 .041992189 .24984741 .041992189 .15072632 .041992189 .04458618 .14399719-.022460938 .24899292-.022460938 .3619995-.022460938 .45700074 .06060791 .45700074 .16773987 .45700074 .20379639 .44599916 .24885559 .4079895 .2909088 .3889923 .31193543 .37298585 .3219452 .30899049 .36193849M.20899964 .3199463 .33198548 .24183655C.3600006 .2228241 .40699769 .19277954 .40699769 .13169861 .40699769 .05760193 .33198548 .0055389406 .25 .0055389406 .1639862 .0055389406 .09199524 .067611698 .09199524 .15072632 .09199524 .20880127 .12399292 .27288819 .20899964 .3199463Z"/>
<path id="font_1_2" d="M.2939911 .64004519C.2939911 .66400149 .2939911 .6660156 .2709961 .6660156 .20899964 .60227969 .12098694 .60227969 .08898926 .60227969V.57128909C.10899353 .57128909 .16799927 .57128909 .21998596 .5972748V.07902527C.21998596 .042999269 .21699524 .0309906 .1269989 .0309906H.09498596V0C.12998963 .0029907227 .21699524 .0029907227 .25698854 .0029907227 .29699708 .0029907227 .38398744 .0029907227 .4189911 0V.0309906H.3869934C.29699708 .0309906 .2939911 .041992189 .2939911 .07902527V.64004519Z"/>
<path id="font_1_1" d="M.45999146 .31976319C.45999146 .39982606 .45498658 .47988893 .41999818 .5539398 .37399293 .65000918 .2919922 .6660156 .25 .6660156 .18998719 .6660156 .116989139 .64001467 .07598877 .54693606 .04399109 .47789 .038986207 .39982606 .038986207 .31976319 .038986207 .24472046 .042999269 .15464783 .083999637 .07859802 .1269989-.0024719239 .19999695-.022460938 .24899292-.022460938 .30299378-.022460938 .3789978-.0014648438 .4229889 .09359741 .45498658 .16265869 .45999146 .2407074 .45999146 .31976319M.24899292-.00047302247C.20999146-.00047302247 .15098572 .024551392 .1329956 .12062073 .12199402 .18066406 .12199402 .2727356 .12199402 .3317871 .12199402 .39582826 .12199402 .46188355 .12998963 .5159149 .14898682 .63500979 .22399903 .64401248 .24899292 .64401248 .28199769 .64401248 .34799195 .6259918 .36698915 .52693179 .3769989 .47088624 .3769989 .39482118 .3769989 .3317871 .3769989 .25672914 .3769989 .18867493 .3659973 .12461853 .35099793 .029556275 .2939911-.00047302247 .24899292-.00047302247Z"/>
<path id="font_2_2" d="M.20599365 .3996582H.2999878C.31999208 .3996582 .32998658 .3996582 .32998658 .41966249 .32998658 .43066407 .31999208 .43066407 .3019867 .43066407H.21398926C.25 .5724945 .25498963 .59246829 .25498963 .59846499 .25498963 .61546328 .24299622 .62545779 .22599793 .62545779 .22299195 .62545779 .19499207 .62446597 .18598938 .58947756L.14698792 .43066407H.052993776C.032989503 .43066407 .022994996 .43066407 .022994996 .4116516 .022994996 .3996582 .0309906 .3996582 .050994874 .3996582H.13899231C.066986087 .11608887 .06298828 .099121097 .06298828 .08114624 .06298828 .02722168 .100997928-.0107421879 .15499878-.0107421879 .25698854-.0107421879 .31399537 .13505554 .31399537 .14305115 .31399537 .1530304 .30599977 .1530304 .3019867 .1530304 .29299928 .1530304 .2919922 .15003968 .2869873 .13905335 .24398804 .035217287 .19099427 .011245728 .15699768 .011245728 .13598633 .011245728 .12599182 .024230957 .12599182 .057174684 .12599182 .08114624 .12799073 .088134769 .13198853 .10510254L.20599365 .3996582Z"/>
<path id="font_2_1" d="M.2579956 .68333438C.2579956 .6843262 .2579956 .69433596 .24499512 .69433596 .22200012 .69433596 .14898682 .6863251 .12298584 .6843262 .114990238 .68333438 .10398865 .6823273 .10398865 .6633301 .10398865 .6523285 .11399841 .6523285 .1289978 .6523285 .1769867 .6523285 .17799378 .6433258 .17799378 .6353302L.1749878 .6153259 .04899597 .11526489C.04598999 .104263309 .04399109 .09725952 .04399109 .08125305 .04399109 .024246216 .08799744-.0107421879 .1349945-.0107421879 .16799927-.0107421879 .19299317 .009246826 .20999146 .04525757 .22799683 .08325195 .23999024 .14126587 .23999024 .14326477 .23999024 .15327454 .23098755 .15327454 .22799683 .15327454 .21798706 .15327454 .21699524 .14926148 .21398926 .13526917 .19699097 .070251468 .17799378 .011245728 .13798523 .011245728 .10798645 .011245728 .10798645 .043258668 .10798645 .057250978 .10798645 .08125305 .10899353 .086257938 .11399841 .10525513L.2579956 .68333438Z"/>
</defs>
<path transform="matrix(1.00003,0,0,-1.00005,9.353836,166.52768)" stroke-width=".19925" stroke-linecap="butt" stroke-miterlimit="10" stroke-linejoin="miter" fill="none" stroke="#7f807f" d="M7.47208-1.41737V1.41739M22.41623-1.41737V1.41739M37.36038-1.41737V1.41739M52.30453-1.41737V1.41739M67.24869-1.41737V1.41739M82.19284-1.41737V1.41739M97.137-1.41737V1.41739M112.08115-1.41737V1.41739M127.0253-1.41737V1.41739M141.96945-1.41737V1.41739M156.9136-1.41737V1.41739M171.85776-1.41737V1.41739M186.80191-1.41737V1.41739"/>
<path transform="matrix(1.00003,0,0,-1.00005,9.353836,166.52768)" stroke-width=".19925" stroke-linecap="butt" stroke-miterlimit="10" stroke-linejoin="miter" fill="none" stroke="#7f807f" d="M37.36038-2.12587V2.12587M67.24869-2.12587V2.12587M97.137-2.12587V2.12587M127.0253-2.12587V2.12587M156.9136-2.12587V2.12587M186.80191-2.12587V2.12587"/>
<path transform="matrix(1.00003,0,0,-1.00005,9.353836,166.52768)" stroke-width=".19925" stroke-linecap="butt" stroke-miterlimit="10" stroke-linejoin="miter" fill="none" stroke="#7f807f" d="M5.34637 53.79675H9.59776M5.34637 107.59352H9.59776M5.34637 161.39028H9.59776"/>
<path transform="matrix(1.00003,0,0,-1.00005,9.353836,166.52768)" stroke-width=".3985" stroke-linecap="butt" stroke-miterlimit="10" stroke-linejoin="miter" fill="none" stroke="#000000" d="M0 0H192.28145"/>
<path transform="matrix(1.00003,0,0,-1.00005,201.64107,166.52768)" d="M1.99252 0-1.19551 1.59401 0 0-1.19551-1.59401"/>
<path transform="matrix(1.00003,0,0,-1.00005,9.353836,166.52768)" stroke-width=".3985" stroke-linecap="butt" stroke-miterlimit="10" stroke-linejoin="miter" fill="none" stroke="#000000" d="M7.47208 0V159.39775"/>
<path transform="matrix(0,-1.00005,-1.00003,-0,16.826142,7.1219637)" d="M1.99252 0-1.19551 1.59401 0 0-1.19551-1.59401"/>
<use data-text="2" xlink:href="#font_1_3" transform="matrix(9.962899,0,0,-9.963098,44.224885,178.59429)"/>
<use data-text="4" xlink:href="#font_1_4" transform="matrix(9.962899,0,0,-9.963098,74.113788,178.59429)"/>
<use data-text="6" xlink:href="#font_1_5" transform="matrix(9.962899,0,0,-9.963098,104.002689,178.59429)"/>
<use data-text="8" xlink:href="#font_1_6" transform="matrix(9.962899,0,0,-9.963098,133.89258,178.59429)"/>
<use data-text="1" xlink:href="#font_1_2" transform="matrix(9.962899,0,0,-9.963098,161.2904,178.59429)"/>
<use data-text="0" xlink:href="#font_1_1" transform="matrix(9.962899,0,0,-9.963098,166.27185,178.59429)"/>
<use data-text="1" xlink:href="#font_1_2" transform="matrix(9.962899,0,0,-9.963098,191.1803,178.59429)"/>
<use data-text="2" xlink:href="#font_1_3" transform="matrix(9.962899,0,0,-9.963098,196.16175,178.59429)"/>
<use data-text="2" xlink:href="#font_1_3" transform="matrix(9.962899,0,0,-9.963098,1.2175903,115.938159)"/>
<use data-text="0" xlink:href="#font_1_1" transform="matrix(9.962899,0,0,-9.963098,6.1990358,115.938159)"/>
<use data-text="4" xlink:href="#font_1_4" transform="matrix(9.962899,0,0,-9.963098,1.2175903,62.139467)"/>
<use data-text="0" xlink:href="#font_1_1" transform="matrix(9.962899,0,0,-9.963098,6.1990358,62.139467)"/>
<use data-text="6" xlink:href="#font_1_5" transform="matrix(9.962899,0,0,-9.963098,1.2175903,8.339783)"/>
<use data-text="0" xlink:href="#font_1_1" transform="matrix(9.962899,0,0,-9.963098,6.1990358,8.339783)"/>
<path transform="matrix(1.00003,0,0,-1.00005,9.353836,166.52768)" stroke-width=".99628" stroke-linecap="butt" stroke-miterlimit="10" stroke-linejoin="miter" fill="none" stroke="#0000ff" d="M20.86389 157.68225 21.3919 151.37314 22.16089 143.10765 22.92986 135.65673 23.69884 128.88999 24.46782 122.72617 25.23682 117.07976 26.00578 111.88373 26.77478 107.08618 27.54376 102.6493 28.31271 98.51901 29.08171 94.6821 29.8507 91.08348 30.61967 87.71729 31.38866 84.55928 32.15765 81.58205 32.92662 78.77696 33.69559 76.12509 34.46458 73.61334 35.23355 71.23071 36.00255 68.96295 36.77153 66.80855 37.54051 64.75133 38.3095 62.79121 39.07846 60.91512 39.84744 59.11888 40.61642 57.39603 41.38542 55.747 42.15439 54.15894 42.92339 52.63083 43.69237 51.16104 44.46135 49.74358 45.23032 48.37433 45.9993 47.05257 46.76828 45.77486 47.53726 44.53778 48.30626 43.34029 49.07523 42.17928 49.8442 41.05367 50.61319 39.95747 51.38216 38.8948 52.15115 37.86107 52.92014 36.85373 53.68912 35.87349 54.4581 34.91962 55.22707 33.9876 55.99605 33.07628 56.76503 32.1902 57.53403 31.32106 58.303 30.47261 59.07199 29.64114 59.84097 28.82886 60.60992 28.03127 61.37892 27.25099 62.1479 26.48543 62.91689 25.73453 63.68587 24.99718 64.45486 24.27266 65.22383 23.5613 65.99283 22.86049 66.7618 22.1721 67.53076 21.49464 68.29976 20.8281 69.06874 20.16946 69.83772 19.52174 70.6067 18.88158 71.3757 18.25194 72.14465 17.62907 72.91364 17.01375 73.68263 16.4067 74.4516 15.80682 75.2206 15.21295 75.98958 14.62624 76.75856 14.04631 77.52753 13.47015 78.29651 12.90077 79.06549 12.3374 79.83447 11.77782 80.60347 11.22311 81.37244 10.67294 82.14143 10.12578 82.9104 9.58388 83.67937 9.04536 84.44836 8.51064 85.21735 7.97966 85.98633 7.45094 86.75531 6.92523 87.5243 6.40181 88.29327 5.88174 89.06224 5.36282 89.83124 4.84578 90.6002 4.33138 91.3692 3.81848 92.13818 3.30595 92.90717 2.79517 93.67613 2.28638 94.44511 1.77644 95.2141 1.2683 95.98308 .76158 96.75208 .2538 97.52104 .25269 98.29008 .76048 99.05898 1.26793 99.828 1.77571 100.59692 2.28487 101.36595 2.79407 102.13498 3.30482 102.9039 3.8166 103.67293 4.32948 104.44182 4.84503 105.21085 5.3617 105.97989 5.88062 106.7488 6.40105 107.51782 6.92412 108.28674 7.44981 109.05577 7.97852 109.8248 8.50987 110.5937 9.045 111.36272 9.58276 112.13164 10.12578 112.90068 10.67067 113.6697 11.22086 114.43861 11.77592 115.20766 12.33514 115.97653 12.90077 116.74557 13.47015 117.5146 14.0452 118.28351 14.6255 119.05255 15.21107 119.82147 15.80531 120.59048 16.40558 121.3595 17.01262 122.12842 17.62756 122.89745 18.25005 123.66637 18.88043 124.4354 19.51912 125.20442 20.1672 125.97334 20.82509 126.74237 21.4935 127.51126 22.17099 128.28029 22.85974 129.04933 23.55978 129.81824 24.27153 130.58727 24.99568 131.35617 25.73264 132.12519 26.48466 132.89423 27.24911 133.66315 28.03052 134.43216 28.82773 135.20108 29.63889 135.97013 30.47037 136.73914 31.31917 137.50804 32.18755 138.27707 33.07515 139.04598 33.98495 139.81502 34.91737 140.58405 35.87274 141.35295 36.85109 142.122 37.85883 142.89089 38.8929 143.65991 39.9556 144.42894 41.05069 145.19786 42.1778 145.96689 43.33952 146.73581 44.53513 147.50484 45.7718 148.27387 47.05106 149.04276 48.3725 149.8118 49.74133 150.5807 51.15953 151.34973 52.62817 152.11878 54.15555 152.88768 55.74171 153.65671 57.39488 154.42562 59.11699 155.19463 60.91327 155.96367 62.78673 156.73259 64.75133 157.5016 66.80441 158.27053 68.9603 159.03957 71.22543 159.80857 73.60765 160.57749 76.1187 161.34651 78.77507 162.11544 81.58055 162.88446 84.55928 163.65349 87.70976 164.4224 91.08124 165.19144 94.67416 165.96033 98.51602 166.72937 102.64293 167.49839 107.08047 168.2673 111.8694 169.03633 117.05907 169.80525 122.70923 170.57427 128.87493 171.34328 135.64316 172.11219 143.09598 172.88121 151.36711 173.40903 157.66791"/>
<path transform="matrix(-.08340251,-.9965098,-.99648997,.08340417,30.218363,8.837555)" d="M2.8892 0-1.73352 2.31136 0 0-1.73352-2.31136" fill="#0000ff"/>
<path transform="matrix(.0834525,-.99652978,-.9965099,-.08345416,182.76807,8.851898)" d="M2.8892 0-1.73352 2.31136 0 0-1.73352-2.31136" fill="#0000ff"/>
<use data-text="t" xlink:href="#font_2_2" transform="matrix(9.962899,0,0,-9.963098,196.51546,163.0075)"/>
<use data-text="l" xlink:href="#font_2_1" transform="matrix(9.962899,0,0,-9.963098,20.346169,15.568146)"/>
</svg>
