<svg xmlns="http://www.w3.org/2000/svg" xmlns:xlink="http://www.w3.org/1999/xlink" version="1.1" width="198" height="165" viewBox="0 0 198 165">
<defs>
<path id="font_1_1" d="M.6589966 .23046875C.6759949 .23046875 .69400027 .23046875 .69400027 .25045777 .69400027 .27046205 .6759949 .27046205 .6589966 .27046205H.117996219C.100997928 .27046205 .08299255 .27046205 .08299255 .25045777 .08299255 .23046875 .100997928 .23046875 .117996219 .23046875H.6589966Z"/>
<path id="font_2_8" d="M.13198853 .327713V.35173036C.13198853 .6047821 .2559967 .64100649 .30699159 .64100649 .33099366 .64100649 .37298585 .634964 .394989 .6007538 .37998963 .6007538 .33999635 .6007538 .33999635 .5557556 .33999635 .524765 .3639984 .5097656 .38598634 .5097656 .4019928 .5097656 .43199159 .51875308 .43199159 .5577545 .43199159 .6178589 .3880005 .6660156 .30499269 .6660156 .1769867 .6660156 .041992189 .5367584 .041992189 .31570436 .041992189 .048553468 .1579895-.022460938 .25099183-.022460938 .3619995-.022460938 .45700074 .07156372 .45700074 .2036438 .45700074 .33070375 .36799623 .4267578 .25698854 .4267578 .18899536 .4267578 .1519928 .37573243 .13198853 .327713M.25099183 .0055389406C.18798828 .0055389406 .1579895 .06556702 .1519928 .080566409 .13398743 .127594 .13398743 .2076416 .13398743 .22564698 .13398743 .30369569 .1659851 .40374757 .2559967 .40374757 .27198792 .40374757 .31799317 .40374757 .34899903 .34172059 .36698915 .30470277 .36698915 .2536621 .36698915 .20463562 .36698915 .15661621 .36698915 .10658264 .34999085 .0705719 .31999208 .010528564 .27398683 .0055389406 .25099183 .0055389406Z"/>
<path id="font_2_7" d="M.2939911 .16503906V.07800293C.2939911 .041992189 .2919922 .0309906 .21798706 .0309906H.19699097V0C.23799134 .0029907227 .2899933 .0029907227 .33198548 .0029907227 .37399293 .0029907227 .4269867 .0029907227 .46798707 0V.0309906H.44699098C.37298585 .0309906 .37098695 .041992189 .37098695 .07800293V.16503906H.47099305V.19602967H.37098695V.65075686C.37098695 .67074587 .37098695 .6767578 .35499574 .6767578 .34599305 .6767578 .34298707 .6767578 .33499146 .66474917L.027999878 .19602967V.16503906H.2939911M.2999878 .19602967H.055999757L.2999878 .5688019V.19602967Z"/>
<path id="font_2_6" d="M.1269989 .07699585 .23298645 .18003845C.3889923 .31811524 .44898988 .3721466 .44898988 .47216798 .44898988 .5860901 .35899354 .6660156 .23699951 .6660156 .12399292 .6660156 .049987794 .57411196 .049987794 .48516847 .049987794 .4291687 .099990848 .4291687 .102996829 .4291687 .11999512 .4291687 .15499878 .44117738 .15499878 .48217774 .15499878 .5081787 .13699341 .5341797 .101989749 .5341797 .09399414 .5341797 .09199524 .5341797 .08898926 .5331726 .11199951 .59806826 .1659851 .63500979 .22399903 .63500979 .31498719 .63500979 .35798646 .5541382 .35798646 .47216798 .35798646 .39215089 .30799867 .31311036 .25299073 .25108338L.06098938 .036987306C.049987794 .025985718 .049987794 .023986817 .049987794 0H.42099L.44898988 .17404175H.42399598C.4189911 .14402771 .4119873 .1000061 .4019928 .084991458 .394989 .07699585 .32899476 .07699585 .30699159 .07699585H.1269989Z"/>
<path id="font_2_9" d="M.16299439 .4569702C.116989139 .486969 .11299133 .52098086 .11299133 .5379791 .11299133 .598999 .17799378 .64100649 .24899292 .64100649 .32199098 .64100649 .38598634 .58898928 .38598634 .51698306 .38598634 .45996095 .34700013 .4119568 .2869873 .37695313L.16299439 .4569702M.30899049 .36193849C.3809967 .3989563 .42999269 .45095826 .42999269 .51698306 .42999269 .6090088 .34098817 .6660156 .25 .6660156 .1499939 .6660156 .068984989 .59199526 .068984989 .49897767 .068984989 .4809723 .070999149 .43595887 .11299133 .38894654 .12399292 .37695313 .16099549 .35194398 .18598938 .33494569 .12799073 .30592347 .041992189 .24984741 .041992189 .15072632 .041992189 .04458618 .14399719-.022460938 .24899292-.022460938 .3619995-.022460938 .45700074 .06060791 .45700074 .16773987 .45700074 .20379639 .44599916 .24885559 .4079895 .2909088 .3889923 .31193543 .37298585 .3219452 .30899049 .36193849M.20899964 .3199463 .33198548 .24183655C.3600006 .2228241 .40699769 .19277954 .40699769 .13169861 .40699769 .05760193 .33198548 .0055389406 .25 .0055389406 .1639862 .0055389406 .09199524 .067611698 .09199524 .15072632 .09199524 .20880127 .12399292 .27288819 .20899964 .3199463Z"/>
<path id="font_2_5" d="M.2939911 .64004519C.2939911 .66400149 .2939911 .6660156 .2709961 .6660156 .20899964 .60227969 .12098694 .60227969 .08898926 .60227969V.57128909C.10899353 .57128909 .16799927 .57128909 .21998596 .5972748V.07902527C.21998596 .042999269 .21699524 .0309906 .1269989 .0309906H.09498596V0C.12998963 .0029907227 .21699524 .0029907227 .25698854 .0029907227 .29699708 .0029907227 .38398744 .0029907227 .4189911 0V.0309906H.3869934C.29699708 .0309906 .2939911 .041992189 .2939911 .07902527V.64004519Z"/>
<path id="font_2_4" d="M.45999146 .31976319C.45999146 .39982606 .45498658 .47988893 .41999818 .5539398 .37399293 .65000918 .2919922 .6660156 .25 .6660156 .18998719 .6660156 .116989139 .64001467 .07598877 .54693606 .04399109 .47789 .038986207 .39982606 .038986207 .31976319 .038986207 .24472046 .042999269 .15464783 .083999637 .07859802 .1269989-.0024719239 .19999695-.022460938 .24899292-.022460938 .30299378-.022460938 .3789978-.0014648438 .4229889 .09359741 .45498658 .16265869 .45999146 .2407074 .45999146 .31976319M.24899292-.00047302247C.20999146-.00047302247 .15098572 .024551392 .1329956 .12062073 .12199402 .18066406 .12199402 .2727356 .12199402 .3317871 .12199402 .39582826 .12199402 .46188355 .12998963 .5159149 .14898682 .63500979 .22399903 .64401248 .24899292 .64401248 .28199769 .64401248 .34799195 .6259918 .36698915 .52693179 .3769989 .47088624 .3769989 .39482118 .3769989 .3317871 .3769989 .25672914 .3769989 .18867493 .3659973 .12461853 .35099793 .029556275 .2939911-.00047302247 .24899292-.00047302247Z"/>
<path id="font_3_2" d="M.48599244 .38136292C.48999024 .39537049 .48999024 .39736939 .48999024 .40437318 .48999024 .42237855 .47599793 .43138124 .46099855 .43138124 .45098878 .43138124 .43499757 .42536927 .42599488 .41036988 .42399598 .405365 .41600038 .37435914 .4119873 .35635377 .40499879 .33035279 .397995 .30334474 .3919983 .27633668L.34700013 .09628296C.34298707 .08126831 .2999878 .011245728 .23399353 .011245728 .18299866 .011245728 .17199707 .055267335 .17199707 .0922699 .17199707 .1382904 .18899536 .20030213 .22299195 .28833009 .23899842 .3293457 .24299622 .3403473 .24299622 .36035157 .24299622 .405365 .21099854 .4423828 .16099549 .4423828 .06599426 .4423828 .0289917 .29733277 .0289917 .28833009 .0289917 .27833558 .038986207 .27833558 .040985109 .27833558 .050994874 .27833558 .051986696 .28033448 .056991579 .29634095 .083999637 .3903656 .12399292 .42037965 .1579895 .42037965 .1659851 .42037965 .18299866 .42037965 .18299866 .3883667 .18299866 .36335755 .17298889 .3373413 .1659851 .31834413 .12599182 .21231079 .10798645 .1552887 .10798645 .10827637 .10798645 .019256592 .17098999-.0107421879 .22999573-.0107421879 .2689972-.0107421879 .30299378 .0062561037 .33099366 .03425598 .31799317-.017745972 .30599977-.06674194 .2659912-.11973572 .23999024-.15385437 .20199585-.18309021 .1559906-.18309021 .14199829-.18309021 .09700012-.18005371 .07998657-.14074707 .09599304-.14074707 .10899353-.14074707 .12298584-.1287384 .1329956-.11973572 .14299011-.10673523 .14299011-.08773804 .14299011-.056747438 .115997318-.052734376 .10598755-.052734376 .08299255-.052734376 .049987794-.068740848 .049987794-.11773682 .049987794-.16796875 .09399414-.20507813 .1559906-.20507813 .25898744-.20507813 .3619995-.11373901 .3899994-.00074768069L.48599244 .38136292Z"/>
<path id="font_2_10" d="M.68699648 .32714845C.70199587 .32714845 .72099307 .32714845 .72099307 .34713746 .72099307 .36714173 .70199587 .36714173 .6879883 .36714173H.08898926C.07499695 .36714173 .055999757 .36714173 .055999757 .34713746 .055999757 .32714845 .07499695 .32714845 .08999634 .32714845H.68699648M.6879883 .13284302C.70199587 .13284302 .72099307 .13284302 .72099307 .15284729 .72099307 .17285156 .70199587 .17285156 .68699648 .17285156H.08999634C.07499695 .17285156 .055999757 .17285156 .055999757 .15284729 .055999757 .13284302 .07499695 .13284302 .08898926 .13284302H.6879883Z"/>
<path id="font_2_13" d="M.20799256 .19424439C.22999573 .19024658 .31199647 .17424011 .31199647 .102249149 .31199647 .051254274 .2769928 .011245728 .19898987 .011245728 .114990238 .011245728 .07899475 .06825256 .05999756 .15324402 .056991579 .1662445 .055999757 .17024231 .04598999 .17024231 .032989503 .17024231 .032989503 .16323853 .032989503 .14524842V.013244629C.032989503-.003753662 .032989503-.0107421879 .04399109-.0107421879 .04899597-.0107421879 .049987794-.009750366 .068984989 .009246826 .070999149 .011245728 .070999149 .013244629 .08898926 .03224182 .1329956-.009750366 .17799378-.0107421879 .19898987-.0107421879 .31399537-.0107421879 .3600006 .056243898 .3600006 .12825012 .3600006 .1812439 .32998658 .21124268 .31799317 .22323609 .2849884 .25523377 .24598694 .26324464 .20399475 .27124024 .147995 .28224183 .08099365 .2952423 .08099365 .35324098 .08099365 .38822938 .10699463 .42922975 .19299317 .42922975 .30299378 .42922975 .30799867 .3392334 .30999757 .3082428 .31098939 .2992401 .31999208 .2992401 .32199098 .2992401 .33499146 .2992401 .33499146 .304245 .33499146 .3232422V.4242401C.33499146 .4412384 .33499146 .4482422 .32398988 .4482422 .31900025 .4482422 .31698609 .4482422 .3039856 .43623353 .30099488 .43223573 .29100038 .42323304 .2869873 .42022706 .24899292 .4482422 .20799256 .4482422 .19299317 .4482422 .070999149 .4482422 .032989503 .38124085 .032989503 .3252411 .032989503 .29023744 .04899597 .26223756 .07598877 .24023438 .10798645 .21424866 .13598633 .2082367 .20799256 .19424439Z"/>
<path id="font_2_11" d="M.1769867 .4423828 .036987306 .43138124V.40037538C.101989749 .40037538 .11099243 .3943634 .11099243 .34532167V.076034549C.11099243 .0309906 .099990848 .0309906 .032989503 .0309906V0C.06498718 .0009918213 .11898804 .0029907227 .14299011 .0029907227 .17799378 .0029907227 .21299744 .0009918213 .24699402 0V.0309906C.18099976 .0309906 .1769867 .035995485 .1769867 .075042728V.4423828M.18099976 .6159363C.18099976 .64793398 .1559906 .6689453 .12799073 .6689453 .09700012 .6689453 .07499695 .64193728 .07499695 .6159363 .07499695 .5889435 .09700012 .5629425 .12799073 .5629425 .1559906 .5629425 .18099976 .5839386 .18099976 .6159363Z"/>
<path id="font_2_12" d="M.10998535 .34429933V.076034549C.10998535 .0309906 .09899902 .0309906 .03199768 .0309906V0C.066986087 .0009918213 .117996219 .0029907227 .14498902 .0029907227 .17098999 .0029907227 .22299195 .0009918213 .25698854 0V.0309906C.18998719 .0309906 .1789856 .0309906 .1789856 .076034549V.2602234C.1789856 .36431886 .25 .42037965 .31399537 .42037965 .3769989 .42037965 .3880005 .36631776 .3880005 .30926515V.076034549C.3880005 .0309906 .3769989 .0309906 .30999757 .0309906V0C.34498597 .0009918213 .3959961 .0029907227 .4229889 .0029907227 .44898988 .0029907227 .5009918 .0009918213 .5349884 0V.0309906C.48298646 .0309906 .45799256 .0309906 .45700074 .061019899V.25221253C.45700074 .3383026 .45700074 .36932374 .42599488 .405365 .4119873 .42237855 .3789978 .4423828 .32099916 .4423828 .24798584 .4423828 .20098877 .39935304 .17298889 .33729554V.4423828L.03199768 .43138124V.40037538C.101989749 .4003601 .10998535 .39335633 .10998535 .34429933Z"/>
<path id="font_4_1" d="M.41299439-1.1491852C.41299439-1.1451874 .41099549-1.1431885 .40899659-1.1401825 .36299134-1.0911713 .29499818-1.0101624 .25299073-.84713748 .22999573-.7561188 .22099304-.65309146 .22099304-.56007388 .22099304-.2970276 .28399659-.11299133 .4039917 .017044068 .41299439 .026031495 .41299439 .028030396 .41299439 .030029297 .41299439 .040039064 .40499879 .040039064 .40098573 .040039064 .38598634 .040039064 .33198548-.019973755 .31900025-.034973146 .21699524-.1559906 .1519928-.33602906 .1519928-.5590668 .1519928-.7010956 .1769867-.9021454 .30799867-1.071167 .31799317-1.0831757 .3829956-1.1591797 .40098573-1.1591797 .40499879-1.1591797 .41299439-1.1591797 .41299439-1.1491852Z"/>
<path id="font_5_1" d="M.31098939 .36265565H.42999269C.4149933 .30274964 .3929901 .2118988 .3929901 .13302613 .3929901 .09309387 .397995 .06613159 .4039917 .044174196 .41999818-.0057678224 .43299867-.009765625 .44898988-.009765625 .47200013-.009765625 .49598695 .011230469 .49598695 .035186769 .49598695 .043182374 .49398805 .047164918 .48799134 .057159425 .46899415 .09408569 .45098878 .15100098 .45098878 .23286438 .45098878 .25183106 .45098878 .29177857 .46499635 .36265565H.58999636C.60798647 .36265565 .6159973 .36265565 .6269989 .37065126 .6409912 .380661 .6439972 .39665223 .6439972 .4016571 .6439972 .43066407 .6179962 .43066407 .6009979 .43066407H.22399903C.18299866 .43066407 .15499878 .42166139 .10998535 .37965394 .083999637 .35665895 .04499817 .30274964 .04499817 .2937622 .04499817 .28178407 .057998659 .28178407 .06199646 .28178407 .07299805 .28178407 .07398987 .28378297 .07998657 .2927704 .1309967 .36265565 .19299317 .36265565 .21499634 .36265565H.27598573C.24499512 .25283814 .19099427 .13502503 .16099549 .07511902 .15499878 .062149049 .14498902 .04118347 .14199829 .03718567 .14099121 .033187868 .13899231 .029190064 .13899231 .022201539 .13899231 .006225586 .15098572-.009765625 .17399597-.009765625 .21398926-.009765625 .22499085 .035186769 .24899292 .12504578L.31098939 .36265565Z"/>
<path id="font_6_1" d="M.1499939 .3274536C.1499939 .40945436 .15699768 .48303224 .19499207 .543869 .22898865 .5978699 .2829895 .63505557 .34700013 .63505557 .3769989 .63505557 .4169922 .62701418 .43699647 .5998688 .4119873 .5978699 .3909912 .5808716 .3909912 .5518799 .3909912 .5268707 .4079895 .5048828 .43798829 .5048828 .46798707 .5048828 .48599244 .5248718 .48599244 .5538788 .48599244 .6119385 .44400025 .6640625 .34498597 .6640625 .20098877 .6640625 .053985597 .5318756 .053985597 .3174591 .053985597 .05845642 .17599488-.01953125 .28599549-.01953125 .4079895-.01953125 .5139923 .07345581 .5139923 .20445252 .5139923 .33145143 .41299439 .42546083 .29599 .42546083 .21598816 .42546083 .17199707 .37245179 .1499939 .3274536M.28599549 .012466431C.23599243 .012466431 .19699097 .04145813 .17599488 .08546448 .16099549 .11546326 .15299988 .16545105 .15299988 .22544861 .15299988 .32244874 .21099854 .39746095 .29100038 .39746095 .33699037 .39746095 .36799623 .37945558 .3929901 .342453 .4169922 .30445863 .41799928 .26245118 .41799928 .20445252 .41799928 .14746094 .41799928 .10545349 .3909912 .066467288 .36698915 .031463624 .33499146 .012466431 .28599549 .012466431Z"/>
<path id="font_3_1" d="M.33399964 .30233766C.33999635 .32835389 .36299134 .42037965 .43299867 .42037965 .43798829 .42037965 .46199037 .42037965 .48298646 .40734864 .45498658 .402359 .43499757 .37734986 .43499757 .35334779 .43499757 .33735658 .44599916 .31835938 .47299195 .31835938 .49499513 .31835938 .5269928 .3363495 .5269928 .37635804 .5269928 .42837525 .46798707 .4423828 .43399049 .4423828 .37599183 .4423828 .34098817 .38935853 .32899476 .36634828 .3039856 .43237306 .25 .4423828 .22099304 .4423828 .116989139 .4423828 .05999756 .3133545 .05999756 .28834535 .05999756 .27833558 .069992069 .27833558 .07199097 .27833558 .07998657 .27833558 .08299255 .28033448 .084991458 .28933717 .11898804 .39535523 .18499756 .42037965 .21899414 .42037965 .23799134 .42037965 .272995 .4113617 .272995 .35334779 .272995 .32235719 .2559967 .25532533 .21899414 .11528015 .20298767 .053268434 .16799927 .011245728 .12399292 .011245728 .117996219 .011245728 .09498596 .011245728 .07398987 .024276734 .09899902 .029266358 .12098694 .05027771 .12098694 .07827759 .12098694 .105270389 .09899902 .11328125 .083999637 .11328125 .053985597 .11328125 .0289917 .08728027 .0289917 .055267335 .0289917 .009246826 .07899475-.0107421879 .12298584-.0107421879 .18899536-.0107421879 .22499085 .059280397 .22799683 .0652771 .23999024 .028274537 .27598573-.0107421879 .33599855-.0107421879 .43899537-.0107421879 .49598695 .118270877 .49598695 .14328003 .49598695 .1532898 .4869995 .1532898 .48399354 .1532898 .47499085 .1532898 .47299195 .14929199 .47099305 .14228821 .43798829 .03527832 .36999513 .011245728 .33799745 .011245728 .29899598 .011245728 .2829895 .043273927 .2829895 .07727051 .2829895 .09927368 .2889862 .121276859 .2999878 .16529846L.33399964 .30233766Z"/>
<path id="font_4_2" d="M.30499269-.56007388C.30499269-.41804505 .27999879-.2170105 .14898682-.047973634 .13899231-.035964967 .07398987 .040039064 .055999757 .040039064 .050994874 .040039064 .04399109 .038024904 .04399109 .030029297 .04399109 .026031495 .04598999 .023025513 .049987794 .02003479 .09799194-.031967164 .16299439-.11299133 .20399475-.27201844 .22698975-.3630371 .23599243-.4660492 .23599243-.5590668 .23599243-.6600952 .22698975-.7621155 .20098877-.86013796 .16299439-1.0001679 .10398865-1.0801697 .052993776-1.1361847 .04399109-1.1451874 .04399109-1.1471863 .04399109-1.1491852 .04399109-1.1571808 .050994874-1.1591797 .055999757-1.1591797 .070999149-1.1591797 .12599182-1.098175 .13798523-1.0841827 .23999024-.96315 .30499269-.7831116 .30499269-.56007388Z"/>
<path id="font_2_1" d="M.33099366-.2400055C.33099366-.23701477 .33099366-.23500061 .31399537-.21800232 .18899536-.0920105 .15699768 .09700012 .15699768 .25 .15699768 .42399598 .19499207 .59799197 .31799317 .72299197 .33099366 .73498538 .33099366 .7369995 .33099366 .73999026 .33099366 .746994 .32699586 .75 .32099916 .75 .31098939 .75 .22099304 .6819916 .1619873 .5549927 .11099243 .44499208 .09899902 .33399964 .09899902 .25 .09899902 .17199707 .10998535 .050994874 .16499329-.06201172 .22499085-.18501282 .31098939-.25 .32099916-.25 .32699586-.25 .33099366-.24700928 .33099366-.2400055Z"/>
<path id="font_2_3" d="M.40899659 .23046875H.6879883C.70199587 .23046875 .72099307 .23046875 .72099307 .25045777 .72099307 .27046205 .70199587 .27046205 .6879883 .27046205H.40899659V.5500183C.40899659 .56399539 .40899659 .5830078 .3889923 .5830078 .36898805 .5830078 .36898805 .56399539 .36898805 .5500183V.27046205H.08898926C.07499695 .27046205 .055999757 .27046205 .055999757 .25045777 .055999757 .23046875 .07499695 .23046875 .08898926 .23046875H.36898805V-.05000305C.36898805-.06401062 .36898805-.08300781 .3889923-.08300781 .40899659-.08300781 .40899659-.06401062 .40899659-.05000305V.23046875Z"/>
<path id="font_2_2" d="M.2889862 .25C.2889862 .32798768 .27799989 .44898988 .22299195 .56199648 .16299439 .68499758 .07699585 .75 .066986087 .75 .06098938 .75 .056991579 .74598696 .056991579 .73999026 .056991579 .7369995 .056991579 .73498538 .07598877 .71699526 .17399597 .6179962 .23098755 .45899964 .23098755 .25 .23098755 .07899475 .19400025-.09700012 .069992069-.2230072 .056991579-.23500061 .056991579-.23701477 .056991579-.2400055 .056991579-.2460022 .06098938-.25 .066986087-.25 .07699585-.25 .16699219-.18200684 .22599793-.055007936 .2769928 .054992677 .2889862 .16600037 .2889862 .25Z"/>
</defs>
<path transform="matrix(1.00005,0,0,-1.00003,1.4703751,163.19742)" stroke-width=".19925" stroke-linecap="butt" stroke-miterlimit="10" stroke-linejoin="miter" fill="none" stroke="#929292" d="M15.33727 79.27989V82.11494M35.78697 79.27989V82.11494M56.23666 79.27989V82.11494M76.68637 79.27989V82.11494M97.13608 79.27989V82.11494M117.58577 79.27989V82.11494M138.03548 79.27989V82.11494M158.48519 79.27989V82.11494M178.93488 79.27989V82.11494"/>
<path transform="matrix(1.00005,0,0,-1.00003,1.4703751,163.19742)" stroke-width=".19925" stroke-linecap="butt" stroke-miterlimit="10" stroke-linejoin="miter" fill="none" stroke="#929292" d="M5.11241 78.57133V82.82347M25.56212 78.57133V82.82347M46.01183 78.57133V82.82347M86.91122 78.57133V82.82347M107.36093 78.57133V82.82347M127.81062 78.57133V82.82347M148.26033 78.57133V82.82347M168.71002 78.57133V82.82347M189.15973 78.57133V82.82347"/>
<path transform="matrix(1.00005,0,0,-1.00003,1.4703751,163.19742)" stroke-width=".19925" stroke-linecap="butt" stroke-miterlimit="10" stroke-linejoin="miter" fill="none" stroke="#929292" d="M65.04385 53.79828H67.87918M65.04385 107.59656H67.87918"/>
<path transform="matrix(1.00005,0,0,-1.00003,1.4703751,163.19742)" stroke-width=".19925" stroke-linecap="butt" stroke-miterlimit="10" stroke-linejoin="miter" fill="none" stroke="#929292" d="M64.33524 26.89914H68.5878M64.33524 134.4957H68.5878"/>
<path transform="matrix(1.00005,0,0,-1.00003,1.4703751,163.19742)" stroke-width=".3985" stroke-linecap="butt" stroke-miterlimit="10" stroke-linejoin="miter" fill="none" stroke="#000000" d="M0 80.69742H192.27964"/>
<path transform="matrix(1.00005,0,0,-1.00003,193.75962,82.497577)" d="M1.99252 0-1.19551 1.59401 0 0-1.19551-1.59401"/>
<path transform="matrix(1.00005,0,0,-1.00003,1.4703751,163.19742)" stroke-width=".3985" stroke-linecap="butt" stroke-miterlimit="10" stroke-linejoin="miter" fill="none" stroke="#000000" d="M66.46152 0V159.40232"/>
<path transform="matrix(0,-1.00003,-1.00005,-0,67.93521,3.7903138)" d="M1.99252 0-1.19551 1.59401 0 0-1.19551-1.59401"/>
<use data-text="&#x2212;" xlink:href="#font_1_1" transform="matrix(9.963098,0,0,-9.962899,.21731568,94.56436)"/>
<use data-text="6" xlink:href="#font_2_8" transform="matrix(9.963098,0,0,-9.962899,7.9666979,94.56436)"/>
<use data-text="&#x2212;" xlink:href="#font_1_1" transform="matrix(9.963098,0,0,-9.962899,20.668335,94.56436)"/>
<use data-text="4" xlink:href="#font_2_7" transform="matrix(9.963098,0,0,-9.962899,28.417717,94.56436)"/>
<use data-text="&#x2212;" xlink:href="#font_1_1" transform="matrix(9.963098,0,0,-9.962899,41.119356,94.56436)"/>
<use data-text="2" xlink:href="#font_2_6" transform="matrix(9.963098,0,0,-9.962899,48.868738,94.56436)"/>
<use data-text="2" xlink:href="#font_2_6" transform="matrix(9.963098,0,0,-9.962899,85.89559,94.56436)"/>
<use data-text="4" xlink:href="#font_2_7" transform="matrix(9.963098,0,0,-9.962899,106.34562,94.56436)"/>
<use data-text="6" xlink:href="#font_2_8" transform="matrix(9.963098,0,0,-9.962899,126.79663,94.56436)"/>
<use data-text="8" xlink:href="#font_2_9" transform="matrix(9.963098,0,0,-9.962899,147.24765,94.56436)"/>
<use data-text="1" xlink:href="#font_2_5" transform="matrix(9.963098,0,0,-9.962899,165.20755,94.56436)"/>
<use data-text="0" xlink:href="#font_2_4" transform="matrix(9.963098,0,0,-9.962899,170.1891,94.56436)"/>
<use data-text="1" xlink:href="#font_2_5" transform="matrix(9.963098,0,0,-9.962899,185.65756,94.56436)"/>
<use data-text="2" xlink:href="#font_2_6" transform="matrix(9.963098,0,0,-9.962899,190.63912,94.56436)"/>
<use data-text="&#x2212;" xlink:href="#font_1_1" transform="matrix(9.963098,0,0,-9.962899,49.557779,139.0927)"/>
<use data-text="1" xlink:href="#font_2_5" transform="matrix(9.963098,0,0,-9.962899,57.30716,139.0927)"/>
<use data-text="1" xlink:href="#font_2_5" transform="matrix(9.963098,0,0,-9.962899,57.307165,31.908478)"/>
<path transform="matrix(1.00005,0,0,-1.00003,1.4703751,163.19742)" stroke-width=".99628" stroke-linecap="butt" stroke-miterlimit="10" stroke-linejoin="miter" fill="none" stroke="#ff0000" stroke-opacity=".5" d="M0 94.61717 .97623 92.00258 1.95247 89.36108 2.9287 86.69646 3.90494 84.01784 4.88118 81.33116 5.85742 78.64447 6.83366 75.95938 7.80989 73.28723 8.78613 70.6339 9.76237 68.00693 10.7386 65.41063 11.71484 62.85197 12.69107 60.33852 13.66731 57.87509 14.64355 55.4687 15.6198 53.12578 16.59604 50.85281 17.57228 48.65353 18.54851 46.53496 19.52475 44.49977 20.50099 42.55603 21.47722 40.70807 22.45346 38.95963 23.42969 37.31609 24.40593 35.78122 25.38217 34.35773 26.35841 33.05096 27.33466 31.86148 28.3109 30.79413 29.28712 29.85265 30.26337 29.03815 31.23961 28.35382 32.21584 27.79863 33.19206 27.37631 34.1683 27.08635 35.14455 26.93033 36.12079 26.9072 37.09703 27.02232 38.07327 27.27034 39.0495 27.65015 40.02574 28.16393 41.00198 28.80898 41.97824 29.58205 42.95447 30.48425 43.9307 31.5118 44.90694 32.66254 45.88318 33.93433 46.85942 35.32071 47.83566 36.82115 48.8119 38.43132 49.78813 40.14587 50.76437 41.96318 51.74062 43.87785 52.71686 45.884 53.69308 47.97728 54.66931 50.15182 55.64555 52.40274 56.6218 54.7236 57.59804 57.11061 58.57428 59.55629 59.5505 62.05415 60.52675 64.59988 61.50299 67.18542 62.47923 69.80325 63.45547 72.45013 64.4317 75.1169 65.40793 77.79713 66.38417 80.48491 67.36041 83.17213 68.33665 85.8545 69.31288 88.5229 70.28912 91.17355 71.26537 93.79729 72.24161 96.38821 73.21785 98.94041 74.19408 101.44579 75.1703 103.90007 76.14655 106.29623 77.12279 108.62947 78.09903 110.8917 79.07527 113.0802 80.0515 115.18587 81.02774 117.20493 82.00398 119.13359 82.98024 120.96542 83.95648 122.6988 84.93271 124.3262 85.90894 125.84492 86.88518 127.25067 87.86142 128.5386 88.83766 129.70766 89.81389 130.7551 90.79013 131.67774 91.76637 132.47232 92.74261 133.13782 93.71886 133.6731 94.6951 134.07392 95.67131 134.3413 96.64755 134.47579H97.6238L98.6001 134.34236 99.57625 134.07552 100.55254 133.67473 101.52869 133.13997 102.50499 132.47287 103.4813 131.67935 104.45744 130.75672 105.43373 129.7098 106.40987 128.54076 107.38617 127.25282 108.36247 125.84761 109.33862 124.32997 110.31491 122.70096 111.29106 120.9692 112.26736 119.13734 113.24367 117.2087 114.21982 115.1891 115.1961 113.08344 116.17227 110.89655 117.14854 108.63324 118.12485 106.30109 119.101 103.9049 120.0773 101.45064 121.05345 98.94525 122.02974 96.39307 123.00606 93.80159 123.9822 91.17839 124.9585 88.52882 125.93465 85.85936 126.91095 83.1775 127.88724 80.48975 128.86339 77.80199 129.83969 75.12175 130.81584 72.45497 131.79213 69.8081 132.76844 67.19028 133.74459 64.60474 134.72089 62.05899 135.69704 59.56007 136.67333 57.11546 137.64962 54.72736 138.62577 52.40704 139.60207 50.15613 140.57822 47.9816 141.5545 45.8883 142.5308 43.88109 143.50696 41.96693 144.48326 40.14964 145.45941 38.43454 146.43572 36.8249 147.412 35.3234 148.38814 33.93594 149.36444 32.66522 150.34059 31.5134 151.3169 30.48586 152.29319 29.58366 153.26934 28.81004 154.24564 28.16553 155.22179 27.65176 156.19809 27.27034 157.17438 27.02286 158.15053 26.9072 159.12682 26.93033 160.10297 27.08635 161.07927 27.37524 162.05558 27.7981 163.03171 28.35222 164.00803 29.03761 164.98416 29.8505 165.96048 30.79251 166.93677 31.85933 167.9129 33.04773 168.88922 34.35556 169.86534 35.77853 170.84166 37.31285 171.81795 38.9564 172.7941 40.70483 173.7704 42.55281 174.74655 44.49655 175.72286 46.53065 176.69915 48.64978 177.67531 50.84796 178.6516 53.12096 179.62775 55.46494 180.60404 57.86972 181.58032 60.33368 182.55649 62.84714 183.53278 65.40579 184.50893 68.00209 185.48523 70.62906 186.46152 73.28293 187.43769 75.95508 188.41397 78.63855 189.39012 81.32631 190.36643 84.013 191.34272 86.69162 192.31887 89.35623 193.29515 91.99881 194.2713 94.61234"/>
<use data-text="y" xlink:href="#font_3_2" transform="matrix(9.963098,0,0,-9.962899,4.779541,146.66892)" fill="#ff0000" fill-opacity=".5"/>
<use data-text="=" xlink:href="#font_2_10" transform="matrix(9.963098,0,0,-9.962899,12.78894,146.66892)" fill="#ff0000" fill-opacity=".5"/>
<use data-text="s" xlink:href="#font_2_13" transform="matrix(9.963098,0,0,-9.962899,23.290047,146.66892)" fill="#ff0000" fill-opacity=".5"/>
<use data-text="i" xlink:href="#font_2_11" transform="matrix(9.963098,0,0,-9.962899,27.2155,146.66892)" fill="#ff0000" fill-opacity=".5"/>
<use data-text="n" xlink:href="#font_2_12" transform="matrix(9.963098,0,0,-9.962899,29.975289,146.66892)" fill="#ff0000" fill-opacity=".5"/>
<use data-text="(" xlink:href="#font_4_1" transform="matrix(9.963098,0,0,-9.962899,37.199159,138.5987)" fill="#ff0000" fill-opacity=".5"/>
<use data-text="&#x03c0;" xlink:href="#font_5_1" transform="matrix(6.9741489,0,0,-6.9740097,42.96044,142.74582)" fill="#ff0000" fill-opacity=".5"/>
<path transform="matrix(1.00005,0,0,-1.00003,-87.26806,-.33348847)" stroke-width=".3985" stroke-linecap="butt" stroke-miterlimit="10" stroke-linejoin="miter" fill="none" stroke="#ff0000" stroke-opacity=".5" d="M130.222-144.507H135.132"/>
<use data-text="6" xlink:href="#font_6_1" transform="matrix(6.9741489,0,0,-6.9740097,43.429468,150.10404)" fill="#ff0000" fill-opacity=".5"/>
<use data-text="x" xlink:href="#font_3_1" transform="matrix(9.963098,0,0,-9.962899,49.065744,146.66892)" fill="#ff0000" fill-opacity=".5"/>
<use data-text=")" xlink:href="#font_4_2" transform="matrix(9.963098,0,0,-9.962899,54.760034,138.5987)" fill="#ff0000" fill-opacity=".5"/>
<path transform="matrix(1.00005,0,0,-1.00003,1.4703751,163.19742)" stroke-width=".99628" stroke-linecap="butt" stroke-miterlimit="10" stroke-linejoin="miter" fill="none" stroke="#0000ff" d="M0 42.65556 .97623 40.80328 1.95247 39.05 2.9287 37.40001 3.90494 35.85922 4.88118 34.42981 5.85742 33.11551 6.83366 31.92065 7.80989 30.84685 8.78613 29.89893 9.76237 29.07957 10.7386 28.38664 11.71484 27.82446 12.69107 27.39406 13.66731 27.09818 14.64355 26.93463 15.6198 26.90666 16.59604 27.01425 17.57228 27.25366 18.54851 27.62808 19.52475 28.13434 20.50099 28.7713 21.47722 29.53738 22.45346 30.43367 23.42969 31.45584 24.40593 32.60013 25.38217 33.86385 26.35841 35.24539 27.33466 36.73883 28.3109 38.3431 29.28712 40.0528 30.26337 41.86581 31.23961 43.7751 32.21584 45.7764 33.19206 47.86485 34.1683 50.03508 35.14455 52.28114 36.12079 54.59985 37.09703 56.98419 38.07327 59.4261 39.0495 61.92181 40.02574 64.46484 41.00198 67.04825 41.97824 69.66554 42.95447 72.31026 43.9307 74.97597 44.90694 77.65619 45.88318 80.3434 46.85942 83.03064 47.83566 85.7141 48.8119 88.38356 49.78813 91.03583 50.76437 93.6601 51.74062 96.25264 52.71686 98.80698 53.69308 101.31506 54.66931 103.77255 55.64555 106.17252 56.6218 108.50842 57.59804 110.77495 58.57428 112.96616 59.5505 115.07666 60.52675 117.10109 61.50299 119.03513 62.47923 120.87234 63.45547 122.61003 64.4317 124.24443 65.40793 125.76797 66.38417 127.17912 67.36041 128.47351 68.33665 129.65009 69.31288 130.70291 70.28912 131.63254 71.26537 132.43468 72.24161 133.10662 73.21785 133.64783 74.19408 134.05564 75.1703 134.32999 76.14655 134.47202 77.12279 134.47956 78.09903 134.35259 79.07527 134.09326 80.0515 133.69786 81.02774 133.16902 82.00398 132.51053 82.98024 131.72347 83.95648 130.80835 84.93271 129.7679 85.90894 128.60639 86.88518 127.3233 87.86142 125.92401 88.83766 124.41174 89.81389 122.78972 90.79013 121.06334 91.76637 119.2358 92.74261 117.31252 93.71886 115.29831 94.6951 113.19586 95.67131 111.01219 96.64755 108.75374 97.6238 106.42537 98.6001 104.03241 99.57625 101.58081 100.55254 99.07813 101.52869 96.52863 102.50499 93.93932 103.4813 91.3172 104.45744 88.66817 105.43373 85.99977 106.40987 83.31845 107.38617 80.6307 108.36247 77.94293 109.33862 75.26218 110.31491 72.59431 111.29106 69.9469 112.26736 67.32637 113.24367 64.73923 114.21982 62.19188 115.1961 59.6908 116.17227 57.2419 117.14854 54.85219 118.12485 52.52647 119.101 50.2734 120.0773 48.09296 121.05345 45.99483 122.02974 43.98384 123.00606 42.06432 123.9822 40.24272 124.9585 38.52225 125.93465 36.90561 126.91095 35.39926 127.88724 34.00587 128.86339 32.72818 129.83969 31.57097 130.81584 30.5375 131.79213 29.62885 132.76844 28.84769 133.74459 28.1962 134.72089 27.6749 135.69704 27.28648 136.67333 27.03146 137.64962 26.9115 138.62577 26.92603 139.60207 27.07504 140.57822 27.35641 141.5545 27.77173 142.5308 28.3194 143.50696 28.99725 144.48326 29.80423 145.45941 30.74088 146.43572 31.80177 147.412 32.98264 148.38814 34.28401 149.36444 35.70053 150.34059 37.22948 151.3169 38.86708 152.29319 40.61124 153.26934 42.45436 154.24564 44.39217 155.22179 46.4209 156.19809 48.53624 157.17438 50.7307 158.15053 52.99936 159.12682 55.34012 160.10297 57.74277 161.07927 60.20296 162.05558 62.71318 163.03171 65.26967 164.00803 67.86491 164.98416 70.49026 165.96048 73.14252 166.93677 75.81415 167.9129 78.49707 168.88922 81.18481 169.86534 83.87149 170.84166 86.5512 171.81795 89.2169 172.7941 91.86002 173.7704 94.47514 174.74655 97.05746 175.72286 99.59782 176.69915 102.09084 177.67531 104.53058 178.6516 106.9117 179.62775 109.22664 180.60404 111.46893 181.58032 113.63594 182.55649 115.7201 183.53278 117.716 184.50893 119.62047 185.48523 121.42809 186.46152 123.13457 187.43769 124.73291 188.41397 126.22151 189.39012 127.59607 190.36643 128.85442 191.34272 129.99224 192.31887 131.00795 193.29515 131.89723 194.2713 132.65956"/>
<use data-text="y" xlink:href="#font_3_2" transform="matrix(9.963098,0,0,-9.962899,98.0172,148.34697)" fill="#0000ff"/>
<use data-text="=" xlink:href="#font_2_10" transform="matrix(9.963098,0,0,-9.962899,106.026599,148.34697)" fill="#0000ff"/>
<use data-text="s" xlink:href="#font_2_13" transform="matrix(9.963098,0,0,-9.962899,116.5277,148.34697)" fill="#0000ff"/>
<use data-text="i" xlink:href="#font_2_11" transform="matrix(9.963098,0,0,-9.962899,120.453159,148.34697)" fill="#0000ff"/>
<use data-text="n" xlink:href="#font_2_12" transform="matrix(9.963098,0,0,-9.962899,123.212947,148.34697)" fill="#0000ff"/>
<use data-text="(" xlink:href="#font_4_1" transform="matrix(9.963098,0,0,-9.962899,130.43682,140.27675)" fill="#0000ff"/>
<use data-text="&#x03c0;" xlink:href="#font_5_1" transform="matrix(6.9741489,0,0,-6.9740097,136.19809,144.42388)" fill="#0000ff"/>
<path transform="matrix(1.00005,0,0,-1.00003,5.969597,1.3445606)" stroke-width=".3985" stroke-linecap="butt" stroke-miterlimit="10" stroke-linejoin="miter" fill="none" stroke="#0000ff" d="M130.222-144.507H135.132"/>
<use data-text="6" xlink:href="#font_6_1" transform="matrix(6.9741489,0,0,-6.9740097,136.66712,151.78208)" fill="#0000ff"/>
<use data-text="(" xlink:href="#font_2_1" transform="matrix(9.963098,0,0,-9.962899,142.3034,148.34697)" fill="#0000ff"/>
<use data-text="x" xlink:href="#font_3_1" transform="matrix(9.963098,0,0,-9.962899,146.17758,148.34697)" fill="#0000ff"/>
<use data-text="+" xlink:href="#font_2_3" transform="matrix(9.963098,0,0,-9.962899,154.086,148.34697)" fill="#0000ff"/>
<use data-text="2" xlink:href="#font_2_6" transform="matrix(9.963098,0,0,-9.962899,164.03913,148.34697)" fill="#0000ff"/>
<use data-text=")" xlink:href="#font_2_2" transform="matrix(9.963098,0,0,-9.962899,169.02066,148.34697)" fill="#0000ff"/>
<use data-text=")" xlink:href="#font_4_2" transform="matrix(9.963098,0,0,-9.962899,172.90592,140.27675)" fill="#0000ff"/>
<path transform="matrix(1.00005,0,0,-1.00003,1.4703751,163.19742)" stroke-width=".3985" stroke-linecap="butt" stroke-dasharray="2.98883,2.98883" stroke-miterlimit="10" stroke-linejoin="miter" fill="none" stroke="#000000" d="M95.14355 134.4957H76.68637"/>
<path transform="matrix(1.00005,0,0,-1.00003,96.618679,28.697678)" d="M1.99252 0-1.19551 1.59401 0 0-1.19551-1.59401"/>
<use data-text="2" xlink:href="#font_2_6" transform="matrix(9.963098,0,0,-9.962899,85.89559,25.177262)"/>
<use data-text="x" xlink:href="#font_3_1" transform="matrix(9.963098,0,0,-9.962899,186.53763,78.97788)"/>
<use data-text="y" xlink:href="#font_3_2" transform="matrix(9.963098,0,0,-9.962899,71.45487,9.606812)"/>
</svg>
