<svg xmlns="http://www.w3.org/2000/svg" xmlns:xlink="http://www.w3.org/1999/xlink" xmlns:inkscape="http://www.inkscape.org/namespaces/inkscape" version="1.1" width="198" height="171" viewBox="0 0 198 171">
<defs>
<path id="font_1_1" d="M.6589966 .23046875C.6759949 .23046875 .69400027 .23046875 .69400027 .25045777 .69400027 .27046205 .6759949 .27046205 .6589966 .27046205H.117996219C.100997928 .27046205 .08299255 .27046205 .08299255 .25045777 .08299255 .23046875 .100997928 .23046875 .117996219 .23046875H.6589966Z"/>
<path id="font_2_1" d="M.2649994 .37265016H.37799073C.34498597 .22489929 .33599855 .18196106 .33599855 .11508179 .33599855 .100097659 .33599855 .073150638 .34399415 .03919983 .35398866-.0047454836 .36499024-.0107421879 .37998963-.0107421879 .3999939-.0107421879 .42099 .007247925 .42099 .02722168 .42099 .033218385 .42099 .035202028 .4149933 .049179079 .38598634 .12106323 .38598634 .18595886 .38598634 .21391297 .38598634 .26683045 .3929901 .32073976 .4039917 .37265016H.5179901C.5309906 .37265016 .5669861 .37265016 .5669861 .406662 .5669861 .43066407 .54599 .43066407 .5269928 .43066407H.19198609C.16999817 .43066407 .13198853 .43066407 .08799744 .38365174 .052993776 .34469605 .026992798 .29878236 .026992798 .29379273 .026992798 .29278565 .026992798 .28379823 .038986207 .28379823 .04699707 .28379823 .04899597 .28779603 .054992677 .29577638 .10398865 .37265016 .1619873 .37265016 .18199158 .37265016H.23899842C.20698548 .25186158 .15299988 .13105774 .11099243 .04020691 .102996829 .025222779 .102996829 .023223877 .102996829 .016235352 .102996829-.002746582 .11898804-.0107421879 .13198853-.0107421879 .1619873-.0107421879 .16999817 .017242432 .18199158 .05418396 .19599915 .100097659 .19599915 .10209656 .20899964 .15202332L.2649994 .37265016Z"/>
<path id="font_3_1" d="M.5049896 .18203736H.47099305C.46798707 .16001892 .45799256 .100997928 .44499208 .09098816 .43699647 .084991458 .3600006 .084991458 .34599305 .084991458H.1619873C.2669983 .17803955 .3019867 .20603943 .3619995 .25306703 .43598939 .312088 .5049896 .374115 .5049896 .46914674 .5049896 .5900879 .39898683 .6640625 .2709961 .6640625 .14698792 .6640625 .06298828 .57710269 .06298828 .4851532 .06298828 .43414308 .10598755 .42915345 .115997318 .42915345 .13999939 .42915345 .16899109 .44615174 .16899109 .48214723 .16899109 .5001526 .1619873 .53515627 .10998535 .53515627 .14099121 .6060791 .20899964 .62805178 .2559967 .62805178 .35598756 .62805178 .4079895 .5501404 .4079895 .46914674 .4079895 .38212586 .34599305 .3130951 .31399537 .27708436L.07299805 .038986207C.06298828 .02999878 .06298828 .027999878 .06298828 0H.47499085L.5049896 .18203736Z"/>
<path id="font_4_1" d="M.31098939 .36265565H.42999269C.4149933 .30274964 .3929901 .2118988 .3929901 .13302613 .3929901 .09309387 .397995 .06613159 .4039917 .044174196 .41999818-.0057678224 .43299867-.009765625 .44898988-.009765625 .47200013-.009765625 .49598695 .011230469 .49598695 .035186769 .49598695 .043182374 .49398805 .047164918 .48799134 .057159425 .46899415 .09408569 .45098878 .15100098 .45098878 .23286438 .45098878 .25183106 .45098878 .29177857 .46499635 .36265565H.58999636C.60798647 .36265565 .6159973 .36265565 .6269989 .37065126 .6409912 .380661 .6439972 .39665223 .6439972 .4016571 .6439972 .43066407 .6179962 .43066407 .6009979 .43066407H.22399903C.18299866 .43066407 .15499878 .42166139 .10998535 .37965394 .083999637 .35665895 .04499817 .30274964 .04499817 .2937622 .04499817 .28178407 .057998659 .28178407 .06199646 .28178407 .07299805 .28178407 .07398987 .28378297 .07998657 .2927704 .1309967 .36265565 .19299317 .36265565 .21499634 .36265565H.27598573C.24499512 .25283814 .19099427 .13502503 .16099549 .07511902 .15499878 .062149049 .14498902 .04118347 .14199829 .03718567 .14099121 .033187868 .13899231 .029190064 .13899231 .022201539 .13899231 .006225586 .15098572-.009765625 .17399597-.009765625 .21398926-.009765625 .22499085 .035186769 .24899292 .12504578L.31098939 .36265565Z"/>
<path id="font_3_2" d="M.272995 .33428956C.35099793 .33428956 .40699769 .2803192 .40699769 .1733551 .40699769 .04940796 .33499146 .012466431 .2769928 .012466431 .23699951 .012466431 .14898682 .0234375 .10699463 .082351688 .1539917 .084350589 .16499329 .11735535 .16499329 .13835144 .16499329 .17034912 .14099121 .19335938 .10998535 .19335938 .08198547 .19335938 .053985597 .17634583 .053985597 .13534546 .053985597 .041412355 .1579895-.01953125 .2789917-.01953125 .41799928-.01953125 .5139923 .07336426 .5139923 .1733551 .5139923 .2513275 .44999696 .32929994 .33999635 .35229493 .44499208 .39024354 .48298646 .4650879 .48298646 .5260773 .48298646 .60505679 .3919983 .6640625 .2809906 .6640625 .16999817 .6640625 .084991458 .61006167 .084991458 .5300751 .084991458 .49606324 .10699463 .47706605 .13699341 .47706605 .16799927 .47706605 .18798828 .5000763 .18798828 .5280762 .18798828 .5570679 .16799927 .57806399 .13699341 .5800781 .17199707 .62405398 .24099732 .63505557 .27799989 .63505557 .32299806 .63505557 .38598634 .6130676 .38598634 .5260773 .38598634 .48406983 .37199403 .43814088 .34599305 .4072113 .31298829 .36927796 .2849884 .3672943 .23498535 .36428834 .20999146 .3623047 .20799256 .3623047 .20298767 .3612976 .20098877 .3612976 .19299317 .3592987 .19299317 .34829713 .19299317 .33428956 .20199585 .33428956 .21899414 .33428956H.272995Z"/>
<path id="font_3_3" d="M.5289917 .1640625V.20005799H.41799928V.64582827C.41799928 .66682437 .41799928 .6738281 .3959961 .6738281 .38398744 .6738281 .37998963 .6738281 .36999513 .65982058L.038986207 .20005799V.1640625H.33299256V.08201599C.33299256 .04800415 .33299256 .035995485 .2519989 .035995485H.22499085V0C.2749939 .0019989014 .33898927 .0039978029 .375 .0039978029 .4119873 .0039978029 .47599793 .0019989014 .526001 0V.035995485H.49899293C.41799928 .035995485 .41799928 .04800415 .41799928 .08201599V.1640625H.5289917M.33999635 .5658722V.20005799H.07598877L.33999635 .5658722Z"/>
<path id="font_3_4" d="M.15499878 .5588074C.20599365 .5458069 .23599243 .5458069 .2519989 .5458069 .38398744 .5458069 .46199037 .6358032 .46199037 .6508026 .46199037 .6618042 .45498658 .6648102 .44999696 .6648102 .44799806 .6648102 .44599916 .6648102 .44198609 .6618042 .41799928 .6528015 .36499024 .6328125 .29100038 .6328125 .2630005 .6328125 .20999146 .6348114 .14498902 .6598053 .1349945 .6648102 .1329956 .6648102 .13198853 .6648102 .11898804 .6648102 .11898804 .6538086 .11898804 .6378021V.34251405C.11898804 .32548524 .11898804 .3134613 .1349945 .3134613 .14399719 .3134613 .14498902 .3154602 .15499878 .32748414 .19799805 .38259889 .25898744 .390625 .2939911 .390625 .35398866 .390625 .3809967 .34251405 .38598634 .33450318 .4039917 .30143739 .4099884 .26335145 .4099884 .20524597 .4099884 .17524719 .4099884 .116256717 .37998963 .07234192 .35499574 .03640747 .31199647 .012466431 .2630005 .012466431 .19799805 .012466431 .1309967 .04838562 .10598755 .11425781 .14399719 .11125183 .16299439 .13624573 .16299439 .16325379 .16299439 .20625305 .12599182 .21424866 .11299133 .21424866 .11099243 .21424866 .06298828 .21424866 .06298828 .1602478 .06298828 .07034302 .14498902-.01953125 .2649994-.01953125 .3929901-.01953125 .5049896 .07533264 .5049896 .20124817 .5049896 .31445313 .4189911 .41862489 .29499818 .41862489 .25099183 .41862489 .19898987 .4076233 .15499878 .36956788V.5588074Z"/>
<path id="font_5_4" d="M.1269989 .07699585 .23298645 .18003845C.3889923 .31811524 .44898988 .3721466 .44898988 .47216798 .44898988 .5860901 .35899354 .6660156 .23699951 .6660156 .12399292 .6660156 .049987794 .57411196 .049987794 .48516847 .049987794 .4291687 .099990848 .4291687 .102996829 .4291687 .11999512 .4291687 .15499878 .44117738 .15499878 .48217774 .15499878 .5081787 .13699341 .5341797 .101989749 .5341797 .09399414 .5341797 .09199524 .5341797 .08898926 .5331726 .11199951 .59806826 .1659851 .63500979 .22399903 .63500979 .31498719 .63500979 .35798646 .5541382 .35798646 .47216798 .35798646 .39215089 .30799867 .31311036 .25299073 .25108338L.06098938 .036987306C.049987794 .025985718 .049987794 .023986817 .049987794 0H.42099L.44898988 .17404175H.42399598C.4189911 .14402771 .4119873 .1000061 .4019928 .084991458 .394989 .07699585 .32899476 .07699585 .30699159 .07699585H.1269989Z"/>
<path id="font_5_3" d="M.2939911 .64004519C.2939911 .66400149 .2939911 .6660156 .2709961 .6660156 .20899964 .60227969 .12098694 .60227969 .08898926 .60227969V.57128909C.10899353 .57128909 .16799927 .57128909 .21998596 .5972748V.07902527C.21998596 .042999269 .21699524 .0309906 .1269989 .0309906H.09498596V0C.12998963 .0029907227 .21699524 .0029907227 .25698854 .0029907227 .29699708 .0029907227 .38398744 .0029907227 .4189911 0V.0309906H.3869934C.29699708 .0309906 .2939911 .041992189 .2939911 .07902527V.64004519Z"/>
<path id="font_2_3" d="M.48599244 .38136292C.48999024 .39537049 .48999024 .39736939 .48999024 .40437318 .48999024 .42237855 .47599793 .43138124 .46099855 .43138124 .45098878 .43138124 .43499757 .42536927 .42599488 .41036988 .42399598 .405365 .41600038 .37435914 .4119873 .35635377 .40499879 .33035279 .397995 .30334474 .3919983 .27633668L.34700013 .09628296C.34298707 .08126831 .2999878 .011245728 .23399353 .011245728 .18299866 .011245728 .17199707 .055267335 .17199707 .0922699 .17199707 .1382904 .18899536 .20030213 .22299195 .28833009 .23899842 .3293457 .24299622 .3403473 .24299622 .36035157 .24299622 .405365 .21099854 .4423828 .16099549 .4423828 .06599426 .4423828 .0289917 .29733277 .0289917 .28833009 .0289917 .27833558 .038986207 .27833558 .040985109 .27833558 .050994874 .27833558 .051986696 .28033448 .056991579 .29634095 .083999637 .3903656 .12399292 .42037965 .1579895 .42037965 .1659851 .42037965 .18299866 .42037965 .18299866 .3883667 .18299866 .36335755 .17298889 .3373413 .1659851 .31834413 .12599182 .21231079 .10798645 .1552887 .10798645 .10827637 .10798645 .019256592 .17098999-.0107421879 .22999573-.0107421879 .2689972-.0107421879 .30299378 .0062561037 .33099366 .03425598 .31799317-.017745972 .30599977-.06674194 .2659912-.11973572 .23999024-.15385437 .20199585-.18309021 .1559906-.18309021 .14199829-.18309021 .09700012-.18005371 .07998657-.14074707 .09599304-.14074707 .10899353-.14074707 .12298584-.1287384 .1329956-.11973572 .14299011-.10673523 .14299011-.08773804 .14299011-.056747438 .115997318-.052734376 .10598755-.052734376 .08299255-.052734376 .049987794-.068740848 .049987794-.11773682 .049987794-.16796875 .09399414-.20507813 .1559906-.20507813 .25898744-.20507813 .3619995-.11373901 .3899994-.00074768069L.48599244 .38136292Z"/>
<path id="font_5_6" d="M.68699648 .32714845C.70199587 .32714845 .72099307 .32714845 .72099307 .34713746 .72099307 .36714173 .70199587 .36714173 .6879883 .36714173H.08898926C.07499695 .36714173 .055999757 .36714173 .055999757 .34713746 .055999757 .32714845 .07499695 .32714845 .08999634 .32714845H.68699648M.6879883 .13284302C.70199587 .13284302 .72099307 .13284302 .72099307 .15284729 .72099307 .17285156 .70199587 .17285156 .68699648 .17285156H.08999634C.07499695 .17285156 .055999757 .17285156 .055999757 .15284729 .055999757 .13284302 .07499695 .13284302 .08898926 .13284302H.6879883Z"/>
<path id="font_5_9" d="M.20799256 .19424439C.22999573 .19024658 .31199647 .17424011 .31199647 .102249149 .31199647 .051254274 .2769928 .011245728 .19898987 .011245728 .114990238 .011245728 .07899475 .06825256 .05999756 .15324402 .056991579 .1662445 .055999757 .17024231 .04598999 .17024231 .032989503 .17024231 .032989503 .16323853 .032989503 .14524842V.013244629C.032989503-.003753662 .032989503-.0107421879 .04399109-.0107421879 .04899597-.0107421879 .049987794-.009750366 .068984989 .009246826 .070999149 .011245728 .070999149 .013244629 .08898926 .03224182 .1329956-.009750366 .17799378-.0107421879 .19898987-.0107421879 .31399537-.0107421879 .3600006 .056243898 .3600006 .12825012 .3600006 .1812439 .32998658 .21124268 .31799317 .22323609 .2849884 .25523377 .24598694 .26324464 .20399475 .27124024 .147995 .28224183 .08099365 .2952423 .08099365 .35324098 .08099365 .38822938 .10699463 .42922975 .19299317 .42922975 .30299378 .42922975 .30799867 .3392334 .30999757 .3082428 .31098939 .2992401 .31999208 .2992401 .32199098 .2992401 .33499146 .2992401 .33499146 .304245 .33499146 .3232422V.4242401C.33499146 .4412384 .33499146 .4482422 .32398988 .4482422 .31900025 .4482422 .31698609 .4482422 .3039856 .43623353 .30099488 .43223573 .29100038 .42323304 .2869873 .42022706 .24899292 .4482422 .20799256 .4482422 .19299317 .4482422 .070999149 .4482422 .032989503 .38124085 .032989503 .3252411 .032989503 .29023744 .04899597 .26223756 .07598877 .24023438 .10798645 .21424866 .13598633 .2082367 .20799256 .19424439Z"/>
<path id="font_5_7" d="M.1769867 .4423828 .036987306 .43138124V.40037538C.101989749 .40037538 .11099243 .3943634 .11099243 .34532167V.076034549C.11099243 .0309906 .099990848 .0309906 .032989503 .0309906V0C.06498718 .0009918213 .11898804 .0029907227 .14299011 .0029907227 .17799378 .0029907227 .21299744 .0009918213 .24699402 0V.0309906C.18099976 .0309906 .1769867 .035995485 .1769867 .075042728V.4423828M.18099976 .6159363C.18099976 .64793398 .1559906 .6689453 .12799073 .6689453 .09700012 .6689453 .07499695 .64193728 .07499695 .6159363 .07499695 .5889435 .09700012 .5629425 .12799073 .5629425 .1559906 .5629425 .18099976 .5839386 .18099976 .6159363Z"/>
<path id="font_5_8" d="M.10998535 .34429933V.076034549C.10998535 .0309906 .09899902 .0309906 .03199768 .0309906V0C.066986087 .0009918213 .117996219 .0029907227 .14498902 .0029907227 .17098999 .0029907227 .22299195 .0009918213 .25698854 0V.0309906C.18998719 .0309906 .1789856 .0309906 .1789856 .076034549V.2602234C.1789856 .36431886 .25 .42037965 .31399537 .42037965 .3769989 .42037965 .3880005 .36631776 .3880005 .30926515V.076034549C.3880005 .0309906 .3769989 .0309906 .30999757 .0309906V0C.34498597 .0009918213 .3959961 .0029907227 .4229889 .0029907227 .44898988 .0029907227 .5009918 .0009918213 .5349884 0V.0309906C.48298646 .0309906 .45799256 .0309906 .45700074 .061019899V.25221253C.45700074 .3383026 .45700074 .36932374 .42599488 .405365 .4119873 .42237855 .3789978 .4423828 .32099916 .4423828 .24798584 .4423828 .20098877 .39935304 .17298889 .33729554V.4423828L.03199768 .43138124V.40037538C.101989749 .4003601 .10998535 .39335633 .10998535 .34429933Z"/>
<path id="font_5_1" d="M.33099366-.2400055C.33099366-.23701477 .33099366-.23500061 .31399537-.21800232 .18899536-.0920105 .15699768 .09700012 .15699768 .25 .15699768 .42399598 .19499207 .59799197 .31799317 .72299197 .33099366 .73498538 .33099366 .7369995 .33099366 .73999026 .33099366 .746994 .32699586 .75 .32099916 .75 .31098939 .75 .22099304 .6819916 .1619873 .5549927 .11099243 .44499208 .09899902 .33399964 .09899902 .25 .09899902 .17199707 .10998535 .050994874 .16499329-.06201172 .22499085-.18501282 .31098939-.25 .32099916-.25 .32699586-.25 .33099366-.24700928 .33099366-.2400055Z"/>
<path id="font_5_5" d="M.2899933 .35191346C.37199403 .37893678 .42999269 .4490509 .42999269 .52809146 .42999269 .6100464 .34199525 .6660156 .24598694 .6660156 .14498902 .6660156 .068984989 .60606387 .068984989 .53009036 .068984989 .49710084 .09098816 .47808839 .11999512 .47808839 .15098572 .47808839 .17098999 .50009158 .17098999 .5290985 .17098999 .57910159 .12399292 .57910159 .10899353 .57910159 .13999939 .62802127 .20599365 .64100649 .24198914 .64100649 .2829895 .64100649 .33799745 .6190338 .33799745 .5290985 .33799745 .51708987 .33599855 .45906068 .30999757 .4149933 .27999879 .36691285 .24598694 .36390687 .22099304 .36291505 .21299744 .36190797 .18899536 .35990907 .18199158 .35990907 .17399597 .35890199 .16699219 .35791017 .16699219 .3479004 .16699219 .33691407 .17399597 .33691407 .19099427 .33691407H.23498535C.31698609 .33691407 .35398866 .2686615 .35398866 .17037964 .35398866 .034469606 .2849884 .0055389406 .24099732 .0055389406 .19799805 .0055389406 .12298584 .022491456 .08799744 .08137512 .12298584 .07637024 .1539917 .09837341 .1539917 .1363678 .1539917 .17237854 .1269989 .19238281 .09799194 .19238281 .07398987 .19238281 .041992189 .17837525 .041992189 .1343689 .041992189 .043441774 .1349945-.022460938 .24398804-.022460938 .3659973-.022460938 .45700074 .06838989 .45700074 .17037964 .45700074 .252594 .3939972 .33088685 .2899933 .35191346Z"/>
<path id="font_2_2" d="M.33399964 .30233766C.33999635 .32835389 .36299134 .42037965 .43299867 .42037965 .43798829 .42037965 .46199037 .42037965 .48298646 .40734864 .45498658 .402359 .43499757 .37734986 .43499757 .35334779 .43499757 .33735658 .44599916 .31835938 .47299195 .31835938 .49499513 .31835938 .5269928 .3363495 .5269928 .37635804 .5269928 .42837525 .46798707 .4423828 .43399049 .4423828 .37599183 .4423828 .34098817 .38935853 .32899476 .36634828 .3039856 .43237306 .25 .4423828 .22099304 .4423828 .116989139 .4423828 .05999756 .3133545 .05999756 .28834535 .05999756 .27833558 .069992069 .27833558 .07199097 .27833558 .07998657 .27833558 .08299255 .28033448 .084991458 .28933717 .11898804 .39535523 .18499756 .42037965 .21899414 .42037965 .23799134 .42037965 .272995 .4113617 .272995 .35334779 .272995 .32235719 .2559967 .25532533 .21899414 .11528015 .20298767 .053268434 .16799927 .011245728 .12399292 .011245728 .117996219 .011245728 .09498596 .011245728 .07398987 .024276734 .09899902 .029266358 .12098694 .05027771 .12098694 .07827759 .12098694 .105270389 .09899902 .11328125 .083999637 .11328125 .053985597 .11328125 .0289917 .08728027 .0289917 .055267335 .0289917 .009246826 .07899475-.0107421879 .12298584-.0107421879 .18899536-.0107421879 .22499085 .059280397 .22799683 .0652771 .23999024 .028274537 .27598573-.0107421879 .33599855-.0107421879 .43899537-.0107421879 .49598695 .118270877 .49598695 .14328003 .49598695 .1532898 .4869995 .1532898 .48399354 .1532898 .47499085 .1532898 .47299195 .14929199 .47099305 .14228821 .43798829 .03527832 .36999513 .011245728 .33799745 .011245728 .29899598 .011245728 .2829895 .043273927 .2829895 .07727051 .2829895 .09927368 .2889862 .121276859 .2999878 .16529846L.33399964 .30233766Z"/>
<path id="font_5_2" d="M.2889862 .25C.2889862 .32798768 .27799989 .44898988 .22299195 .56199648 .16299439 .68499758 .07699585 .75 .066986087 .75 .06098938 .75 .056991579 .74598696 .056991579 .73999026 .056991579 .7369995 .056991579 .73498538 .07598877 .71699526 .17399597 .6179962 .23098755 .45899964 .23098755 .25 .23098755 .07899475 .19400025-.09700012 .069992069-.2230072 .056991579-.23500061 .056991579-.23701477 .056991579-.2400055 .056991579-.2460022 .06098938-.25 .066986087-.25 .07699585-.25 .16699219-.18200684 .22599793-.055007936 .2769928 .054992677 .2889862 .16600037 .2889862 .25Z"/>
</defs>
<path transform="matrix(1.00005,0,0,-1.00002,1.7921829,163.19495)" stroke-width=".19925" stroke-linecap="butt" stroke-miterlimit="10" stroke-linejoin="miter" fill="none" stroke="#7f807f" d="M9.31804 78.57199V82.82373M28.83382 78.57199V82.82373M48.34937 78.57199V82.82373M87.38083 78.57199V82.82373M106.89636 78.57199V82.82373M126.41216 78.57199V82.82373M145.92613 78.57199V82.82373M165.44188 78.57199V82.82373M184.95919 78.57199V82.82373"/>
<path transform="matrix(1.00005,0,0,-1.00002,1.7921829,163.19495)" stroke-width=".19925" stroke-linecap="butt" stroke-miterlimit="10" stroke-linejoin="miter" fill="none" stroke="#7f807f" d="M66.44772 25.67659H69.28247M66.44772 62.35744H69.28247M66.44772 99.0383H69.28247M66.44772 135.71915H69.28247"/>
<path transform="matrix(1.00005,0,0,-1.00002,1.7921829,163.19495)" stroke-width=".19925" stroke-linecap="butt" stroke-miterlimit="10" stroke-linejoin="miter" fill="none" stroke="#7f807f" d="M65.73923 7.33617H69.99095M65.73923 44.01701H69.99095M65.73923 117.37872H69.99095M65.73923 154.05957H69.99095"/>
<path transform="matrix(1.00005,0,0,-1.00002,1.7921829,163.19495)" stroke-width=".3985" stroke-linecap="butt" stroke-miterlimit="10" stroke-linejoin="miter" fill="none" stroke="#000000" d="M0 80.69788H192.28472"/>
<path transform="matrix(1.00005,0,0,-1.00002,194.08649,82.495449)" d="M1.99252 0-1.19551 1.59401 0 0-1.19551-1.59401"/>
<path transform="matrix(1.00005,0,0,-1.00002,1.7921829,163.19495)" stroke-width=".3985" stroke-linecap="butt" stroke-miterlimit="10" stroke-linejoin="miter" fill="none" stroke="#000000" d="M67.8651 0V159.40323"/>
<path transform="matrix(0,-1.00002,-1.00005,-0,69.66067,3.7885285)" d="M1.99252 0-1.19551 1.59401 0 0-1.19551-1.59401"/>
<use data-text="&#x2212;" xlink:href="#font_1_1" transform="matrix(9.963098,0,0,-9.962799,4.2173006,93.95256)"/>
<use data-text="&#x03c0;" xlink:href="#font_2_1" transform="matrix(9.963098,0,0,-9.962799,11.96669,93.95256)"/>
<use data-text="&#x2212;" xlink:href="#font_1_1" transform="matrix(9.963098,0,0,-9.962799,21.11715,96.55861)"/>
<use data-text="2" xlink:href="#font_3_1" transform="matrix(6.9741489,0,0,-6.97394,30.0616,92.636539)"/>
<use data-text="&#x03c0;" xlink:href="#font_4_1" transform="matrix(6.9741489,0,0,-6.97394,34.0328,92.636539)"/>
<path transform="matrix(1.00005,0,0,-1.00002,-63.574075,-41.10315)" stroke-width=".3985" stroke-linecap="butt" stroke-miterlimit="10" stroke-linejoin="miter" fill="none" stroke="#000000" d="M93.631-135.169H102.512"/>
<use data-text="3" xlink:href="#font_3_2" transform="matrix(6.9741489,0,0,-6.97394,32.516725,99.994678)"/>
<use data-text="&#x2212;" xlink:href="#font_1_1" transform="matrix(9.963098,0,0,-9.962799,42.619226,95.06658)"/>
<use data-text="&#x03c0;" xlink:href="#font_4_1" transform="matrix(6.9741489,0,0,-6.97394,51.563676,91.14451)"/>
<path transform="matrix(1.00005,0,0,-1.00002,-42.072,-42.595178)" stroke-width=".3985" stroke-linecap="butt" stroke-miterlimit="10" stroke-linejoin="miter" fill="none" stroke="#000000" d="M93.631-135.169H98.54"/>
<use data-text="3" xlink:href="#font_3_2" transform="matrix(6.9741489,0,0,-6.97394,52.0327,98.50265)"/>
<use data-text="&#x03c0;" xlink:href="#font_4_1" transform="matrix(6.9741489,0,0,-6.97394,86.722438,91.14451)"/>
<path transform="matrix(1.00005,0,0,-1.00002,.8361435,-42.595178)" stroke-width=".3985" stroke-linecap="butt" stroke-miterlimit="10" stroke-linejoin="miter" fill="none" stroke="#000000" d="M85.882-135.169H90.792"/>
<use data-text="3" xlink:href="#font_3_2" transform="matrix(6.9741489,0,0,-6.97394,87.19145,98.50265)"/>
<use data-text="2" xlink:href="#font_3_1" transform="matrix(6.9741489,0,0,-6.97394,104.25331,92.636539)"/>
<use data-text="&#x03c0;" xlink:href="#font_4_1" transform="matrix(6.9741489,0,0,-6.97394,108.22551,92.636539)"/>
<path transform="matrix(1.00005,0,0,-1.00002,18.36702,-41.10315)" stroke-width=".3985" stroke-linecap="butt" stroke-miterlimit="10" stroke-linejoin="miter" fill="none" stroke="#000000" d="M85.882-135.169H94.763"/>
<use data-text="3" xlink:href="#font_3_2" transform="matrix(6.9741489,0,0,-6.97394,106.70843,99.994678)"/>
<use data-text="&#x03c0;" xlink:href="#font_2_1" transform="matrix(9.963098,0,0,-9.962799,125.192348,92.43053)"/>
<use data-text="4" xlink:href="#font_3_3" transform="matrix(6.9741489,0,0,-6.97394,143.28424,92.636539)"/>
<use data-text="&#x03c0;" xlink:href="#font_4_1" transform="matrix(6.9741489,0,0,-6.97394,147.25644,92.636539)"/>
<path transform="matrix(1.00005,0,0,-1.00002,57.397958,-41.10315)" stroke-width=".3985" stroke-linecap="butt" stroke-miterlimit="10" stroke-linejoin="miter" fill="none" stroke="#000000" d="M85.882-135.169H94.763"/>
<use data-text="3" xlink:href="#font_3_2" transform="matrix(6.9741489,0,0,-6.97394,145.73937,99.994678)"/>
<use data-text="5" xlink:href="#font_3_4" transform="matrix(6.9741489,0,0,-6.97394,162.80124,92.636539)"/>
<use data-text="&#x03c0;" xlink:href="#font_4_1" transform="matrix(6.9741489,0,0,-6.97394,166.77344,92.636539)"/>
<path transform="matrix(1.00005,0,0,-1.00002,76.91494,-41.10315)" stroke-width=".3985" stroke-linecap="butt" stroke-miterlimit="10" stroke-linejoin="miter" fill="none" stroke="#000000" d="M85.882-135.169H94.763"/>
<use data-text="3" xlink:href="#font_3_2" transform="matrix(6.9741489,0,0,-6.97394,165.25635,99.994678)"/>
<use data-text="2" xlink:href="#font_5_4" transform="matrix(9.963098,0,0,-9.962799,181.25113,94.56157)"/>
<use data-text="&#x03c0;" xlink:href="#font_2_1" transform="matrix(9.963098,0,0,-9.962799,186.23239,94.56157)"/>
<use data-text="&#x2212;" xlink:href="#font_1_1" transform="matrix(9.963098,0,0,-9.962799,51.283655,158.65386)"/>
<use data-text="2" xlink:href="#font_5_4" transform="matrix(9.963098,0,0,-9.962799,59.033044,158.65386)"/>
<use data-text="&#x2212;" xlink:href="#font_1_1" transform="matrix(9.963098,0,0,-9.962799,51.283655,121.97212)"/>
<use data-text="1" xlink:href="#font_5_3" transform="matrix(9.963098,0,0,-9.962799,59.033044,121.97212)"/>
<use data-text="1" xlink:href="#font_5_3" transform="matrix(9.963098,0,0,-9.962799,59.03304,49.02466)"/>
<use data-text="2" xlink:href="#font_5_4" transform="matrix(9.963098,0,0,-9.962799,59.03304,12.342926)"/>
<path transform="matrix(1.00005,0,0,-1.00002,1.7921829,163.19495)" stroke-width=".99628" stroke-linecap="butt" stroke-miterlimit="10" stroke-linejoin="miter" fill="none" stroke="#0000ff" d="M1.42894 10.03267 .97623 9.23695 1.95248 12.71065 2.92874 17.86356 3.905 24.56148 4.88124 32.64374 5.8575 41.91226 6.83376 52.13596 7.81001 63.06464 8.78625 74.42543 9.76251 85.94249 10.73875 97.3275 11.71501 108.30608 12.69125 118.6046 13.66751 127.96628 14.64377 136.16371 15.62003 142.99515 16.59627 148.2904 17.57253 151.91962 18.54878 153.7918 19.52504 153.86443 20.50128 152.13382 21.47752 148.64253 22.45378 143.47568 23.43004 136.76088 24.4063 128.66687 25.38254 119.38884 26.3588 109.15634 27.33505 98.22324 28.31131 86.85878 29.28755 75.34393 30.26381 63.95966 31.24005 52.98767 32.21631 42.69724 33.19255 33.34435 34.16881 25.1594 35.14507 18.34187 36.12132 13.06424 37.09756 9.45044 38.07382 7.59366 39.05008 7.5401 40.02634 9.28758 41.00258 12.79575 41.97882 17.97873 42.95508 24.70601 43.93134 32.81247 44.9076 42.10081 45.88383 52.3399 46.86009 63.2796 47.83635 74.64626 48.8126 86.16183 49.78885 97.54243 50.7651 108.51076 51.74135 118.7924 52.7176 128.13355 53.69386 136.30823 54.6701 143.11034 55.64636 148.37404 56.62262 151.97097 57.59888 153.81015 58.57512 153.84828 59.55138 152.08248 60.52763 148.55745 61.50388 143.3605 62.48012 136.6193 63.45638 128.49889 64.43263 119.20029 65.40889 108.95313 66.38513 98.00829 67.36139 86.6387 68.33765 75.12457 69.3139 63.74544 70.29016 52.783 71.2664 42.50943 72.24265 33.17635 73.2189 25.01634 74.19516 18.22672 75.1714 12.97768 76.14766 9.3991 77.12392 7.57678 78.10017 7.55624 79.07642 9.33893 80.05267 12.87936 81.02893 18.09392 82.00517 24.84906 82.98141 32.98047 83.95767 42.29007 84.93393 52.54457 85.91019 63.49455 86.88644 74.86708 87.86269 86.38194 88.83894 97.75885 89.8152 108.7147 90.79146 118.98094 91.7677 128.30303 92.74394 136.4513 93.7202 143.22626 94.69646 148.45914 95.6727 152.02304 96.64896 153.82701 97.62521 153.82996 98.60153 152.03112 99.5777 148.47382 100.554 143.24459 101.53017 136.47476 102.50647 128.33089 103.48277 119.01175 104.45894 108.74771 105.43526 97.79333 106.41142 86.41934 107.38774 74.90228 108.36404 63.52975 109.34021 52.57906 110.31653 42.32089 111.2927 33.00983 112.26898 24.87254 113.2453 18.11153 114.22147 12.89404 115.19778 9.34627 116.17393 7.5599 117.15025 7.57457 118.12657 9.39029 119.10274 12.96446 120.07904 18.20909 121.0552 24.99138 122.03152 33.14847 123.00783 42.4786 123.984 52.74925 124.9603 63.71097 125.93646 75.08716 126.91278 86.60274 127.8891 97.97382 128.86525 108.91937 129.84157 119.16946 130.81774 128.471 131.79405 136.59435 132.77034 143.34142 133.7465 148.54424 134.72283 152.07367 135.69899 153.84462 136.67531 153.81233 137.65161 151.97977 138.62778 148.3887 139.6041 143.1294 140.58026 136.33171 141.55657 128.16216 142.53289 118.82246 143.50904 108.5445 144.48534 97.57767 145.4615 86.2 146.43782 74.68294 147.41414 63.3148 148.3903 52.37437 149.36661 42.1316 150.34278 32.84108 151.31909 24.72948 152.29541 17.99635 153.27155 12.80894 154.24787 9.29639 155.22403 7.54156 156.20035 7.59146 157.17665 9.44164 158.15282 13.04958 159.12914 18.32428 160.1053 25.1359 161.08162 33.31795 162.05792 42.6679 163.03409 52.9532 164.01039 63.92445 164.98656 75.30652 165.96288 86.82356 166.93918 98.18877 167.91535 109.12407 168.89167 119.358 169.86783 128.63899 170.84413 136.73888 171.82045 143.45734 172.79662 148.62787 173.7729 152.1265 174.74907 153.86223 175.72539 153.79547 176.7017 151.9284 177.67787 148.30362 178.65418 143.01349 179.63034 136.18939 180.60666 127.99416 181.58298 118.63466 182.55913 108.33983 183.53543 97.36343 184.5116 85.97917 185.48792 74.46286 186.46424 63.09985 187.4404 52.17116 188.4167 41.94307 189.39289 32.67308 190.3692 24.58495 191.3455 17.8797 192.32167 12.7253 193.29798 9.24358 192.84708 10.03743"/>
<path transform="matrix(-.4946047,.8690774,.8691034,.4945899,3.2212144,153.16208)" d="M2.8892 0-1.73352 2.31136 0 0-1.73352-2.31136" fill="#0000ff"/>
<path transform="matrix(.4939547,.8694674,.8694934,-.4939399,194.64887,153.15729)" d="M2.8892 0-1.73352 2.31136 0 0-1.73352-2.31136" fill="#0000ff"/>
<use data-text="y" xlink:href="#font_2_3" transform="matrix(9.963098,0,0,-9.962799,86.57442,166.92002)" fill="#0000ff"/>
<use data-text="=" xlink:href="#font_5_6" transform="matrix(9.963098,0,0,-9.962799,94.583827,166.92002)" fill="#0000ff"/>
<use data-text="&#x2212;" xlink:href="#font_1_1" transform="matrix(9.963098,0,0,-9.962799,105.10035,166.92002)" fill="#0000ff"/>
<use data-text="2" xlink:href="#font_5_4" transform="matrix(9.963098,0,0,-9.962799,112.84973,166.92002)" fill="#0000ff"/>
<use data-text="s" xlink:href="#font_5_9" transform="matrix(9.963098,0,0,-9.962799,119.48516,166.92002)" fill="#0000ff"/>
<use data-text="i" xlink:href="#font_5_7" transform="matrix(9.963098,0,0,-9.962799,123.41062,166.92002)" fill="#0000ff"/>
<use data-text="n" xlink:href="#font_5_8" transform="matrix(9.963098,0,0,-9.962799,126.1704,166.92002)" fill="#0000ff"/>
<use data-text="(" xlink:href="#font_5_1" transform="matrix(9.963098,0,0,-9.962799,131.69992,166.92002)" fill="#0000ff"/>
<use data-text="3" xlink:href="#font_5_5" transform="matrix(9.963098,0,0,-9.962799,135.56562,166.92002)" fill="#0000ff"/>
<use data-text="x" xlink:href="#font_2_2" transform="matrix(9.963098,0,0,-9.962799,140.58013,166.92002)" fill="#0000ff"/>
<use data-text=")" xlink:href="#font_5_2" transform="matrix(9.963098,0,0,-9.962799,146.27442,166.92002)" fill="#0000ff"/>
<use data-text="x" xlink:href="#font_2_2" transform="matrix(9.963098,0,0,-9.962799,186.86444,78.97526)"/>
<use data-text="y" xlink:href="#font_2_3" transform="matrix(9.963098,0,0,-9.962799,73.18075,9.6058659)"/>
</svg>
