<svg xmlns="http://www.w3.org/2000/svg" xmlns:xlink="http://www.w3.org/1999/xlink" xmlns:inkscape="http://www.inkscape.org/namespaces/inkscape" version="1.1" width="209" height="188" viewBox="0 0 209 188">
<defs>
<path id="font_1_1" d="M.6589966 .23046875C.6759949 .23046875 .69400027 .23046875 .69400027 .25045777 .69400027 .27046205 .6759949 .27046205 .6589966 .27046205H.117996219C.100997928 .27046205 .08299255 .27046205 .08299255 .25045777 .08299255 .23046875 .100997928 .23046875 .117996219 .23046875H.6589966Z"/>
<path id="font_2_1" d="M.2649994 .37265016H.37799073C.34498597 .22489929 .33599855 .18196106 .33599855 .11508179 .33599855 .100097659 .33599855 .073150638 .34399415 .03919983 .35398866-.0047454836 .36499024-.0107421879 .37998963-.0107421879 .3999939-.0107421879 .42099 .007247925 .42099 .02722168 .42099 .033218385 .42099 .035202028 .4149933 .049179079 .38598634 .12106323 .38598634 .18595886 .38598634 .21391297 .38598634 .26683045 .3929901 .32073976 .4039917 .37265016H.5179901C.5309906 .37265016 .5669861 .37265016 .5669861 .406662 .5669861 .43066407 .54599 .43066407 .5269928 .43066407H.19198609C.16999817 .43066407 .13198853 .43066407 .08799744 .38365174 .052993776 .34469605 .026992798 .29878236 .026992798 .29379273 .026992798 .29278565 .026992798 .28379823 .038986207 .28379823 .04699707 .28379823 .04899597 .28779603 .054992677 .29577638 .10398865 .37265016 .1619873 .37265016 .18199158 .37265016H.23899842C.20698548 .25186158 .15299988 .13105774 .11099243 .04020691 .102996829 .025222779 .102996829 .023223877 .102996829 .016235352 .102996829-.002746582 .11898804-.0107421879 .13198853-.0107421879 .1619873-.0107421879 .16999817 .017242432 .18199158 .05418396 .19599915 .100097659 .19599915 .10209656 .20899964 .15202332L.2649994 .37265016Z"/>
<path id="font_3_1" d="M.31098939 .36265565H.42999269C.4149933 .30274964 .3929901 .2118988 .3929901 .13302613 .3929901 .09309387 .397995 .06613159 .4039917 .044174196 .41999818-.0057678224 .43299867-.009765625 .44898988-.009765625 .47200013-.009765625 .49598695 .011230469 .49598695 .035186769 .49598695 .043182374 .49398805 .047164918 .48799134 .057159425 .46899415 .09408569 .45098878 .15100098 .45098878 .23286438 .45098878 .25183106 .45098878 .29177857 .46499635 .36265565H.58999636C.60798647 .36265565 .6159973 .36265565 .6269989 .37065126 .6409912 .380661 .6439972 .39665223 .6439972 .4016571 .6439972 .43066407 .6179962 .43066407 .6009979 .43066407H.22399903C.18299866 .43066407 .15499878 .42166139 .10998535 .37965394 .083999637 .35665895 .04499817 .30274964 .04499817 .2937622 .04499817 .28178407 .057998659 .28178407 .06199646 .28178407 .07299805 .28178407 .07398987 .28378297 .07998657 .2927704 .1309967 .36265565 .19299317 .36265565 .21499634 .36265565H.27598573C.24499512 .25283814 .19099427 .13502503 .16099549 .07511902 .15499878 .062149049 .14498902 .04118347 .14199829 .03718567 .14099121 .033187868 .13899231 .029190064 .13899231 .022201539 .13899231 .006225586 .15098572-.009765625 .17399597-.009765625 .21398926-.009765625 .22499085 .035186769 .24899292 .12504578L.31098939 .36265565Z"/>
<path id="font_4_2" d="M.5049896 .18203736H.47099305C.46798707 .16001892 .45799256 .100997928 .44499208 .09098816 .43699647 .084991458 .3600006 .084991458 .34599305 .084991458H.1619873C.2669983 .17803955 .3019867 .20603943 .3619995 .25306703 .43598939 .312088 .5049896 .374115 .5049896 .46914674 .5049896 .5900879 .39898683 .6640625 .2709961 .6640625 .14698792 .6640625 .06298828 .57710269 .06298828 .4851532 .06298828 .43414308 .10598755 .42915345 .115997318 .42915345 .13999939 .42915345 .16899109 .44615174 .16899109 .48214723 .16899109 .5001526 .1619873 .53515627 .10998535 .53515627 .14099121 .6060791 .20899964 .62805178 .2559967 .62805178 .35598756 .62805178 .4079895 .5501404 .4079895 .46914674 .4079895 .38212586 .34599305 .3130951 .31399537 .27708436L.07299805 .038986207C.06298828 .02999878 .06298828 .027999878 .06298828 0H.47499085L.5049896 .18203736Z"/>
<path id="font_4_3" d="M.272995 .33428956C.35099793 .33428956 .40699769 .2803192 .40699769 .1733551 .40699769 .04940796 .33499146 .012466431 .2769928 .012466431 .23699951 .012466431 .14898682 .0234375 .10699463 .082351688 .1539917 .084350589 .16499329 .11735535 .16499329 .13835144 .16499329 .17034912 .14099121 .19335938 .10998535 .19335938 .08198547 .19335938 .053985597 .17634583 .053985597 .13534546 .053985597 .041412355 .1579895-.01953125 .2789917-.01953125 .41799928-.01953125 .5139923 .07336426 .5139923 .1733551 .5139923 .2513275 .44999696 .32929994 .33999635 .35229493 .44499208 .39024354 .48298646 .4650879 .48298646 .5260773 .48298646 .60505679 .3919983 .6640625 .2809906 .6640625 .16999817 .6640625 .084991458 .61006167 .084991458 .5300751 .084991458 .49606324 .10699463 .47706605 .13699341 .47706605 .16799927 .47706605 .18798828 .5000763 .18798828 .5280762 .18798828 .5570679 .16799927 .57806399 .13699341 .5800781 .17199707 .62405398 .24099732 .63505557 .27799989 .63505557 .32299806 .63505557 .38598634 .6130676 .38598634 .5260773 .38598634 .48406983 .37199403 .43814088 .34599305 .4072113 .31298829 .36927796 .2849884 .3672943 .23498535 .36428834 .20999146 .3623047 .20799256 .3623047 .20298767 .3612976 .20098877 .3612976 .19299317 .3592987 .19299317 .34829713 .19299317 .33428956 .20199585 .33428956 .21899414 .33428956H.272995Z"/>
<path id="font_5_3" d="M.1269989 .07699585 .23298645 .18003845C.3889923 .31811524 .44898988 .3721466 .44898988 .47216798 .44898988 .5860901 .35899354 .6660156 .23699951 .6660156 .12399292 .6660156 .049987794 .57411196 .049987794 .48516847 .049987794 .4291687 .099990848 .4291687 .102996829 .4291687 .11999512 .4291687 .15499878 .44117738 .15499878 .48217774 .15499878 .5081787 .13699341 .5341797 .101989749 .5341797 .09399414 .5341797 .09199524 .5341797 .08898926 .5331726 .11199951 .59806826 .1659851 .63500979 .22399903 .63500979 .31498719 .63500979 .35798646 .5541382 .35798646 .47216798 .35798646 .39215089 .30799867 .31311036 .25299073 .25108338L.06098938 .036987306C.049987794 .025985718 .049987794 .023986817 .049987794 0H.42099L.44898988 .17404175H.42399598C.4189911 .14402771 .4119873 .1000061 .4019928 .084991458 .394989 .07699585 .32899476 .07699585 .30699159 .07699585H.1269989Z"/>
<path id="font_2_3" d="M.48599244 .38136292C.48999024 .39537049 .48999024 .39736939 .48999024 .40437318 .48999024 .42237855 .47599793 .43138124 .46099855 .43138124 .45098878 .43138124 .43499757 .42536927 .42599488 .41036988 .42399598 .405365 .41600038 .37435914 .4119873 .35635377 .40499879 .33035279 .397995 .30334474 .3919983 .27633668L.34700013 .09628296C.34298707 .08126831 .2999878 .011245728 .23399353 .011245728 .18299866 .011245728 .17199707 .055267335 .17199707 .0922699 .17199707 .1382904 .18899536 .20030213 .22299195 .28833009 .23899842 .3293457 .24299622 .3403473 .24299622 .36035157 .24299622 .405365 .21099854 .4423828 .16099549 .4423828 .06599426 .4423828 .0289917 .29733277 .0289917 .28833009 .0289917 .27833558 .038986207 .27833558 .040985109 .27833558 .050994874 .27833558 .051986696 .28033448 .056991579 .29634095 .083999637 .3903656 .12399292 .42037965 .1579895 .42037965 .1659851 .42037965 .18299866 .42037965 .18299866 .3883667 .18299866 .36335755 .17298889 .3373413 .1659851 .31834413 .12599182 .21231079 .10798645 .1552887 .10798645 .10827637 .10798645 .019256592 .17098999-.0107421879 .22999573-.0107421879 .2689972-.0107421879 .30299378 .0062561037 .33099366 .03425598 .31799317-.017745972 .30599977-.06674194 .2659912-.11973572 .23999024-.15385437 .20199585-.18309021 .1559906-.18309021 .14199829-.18309021 .09700012-.18005371 .07998657-.14074707 .09599304-.14074707 .10899353-.14074707 .12298584-.1287384 .1329956-.11973572 .14299011-.10673523 .14299011-.08773804 .14299011-.056747438 .115997318-.052734376 .10598755-.052734376 .08299255-.052734376 .049987794-.068740848 .049987794-.11773682 .049987794-.16796875 .09399414-.20507813 .1559906-.20507813 .25898744-.20507813 .3619995-.11373901 .3899994-.00074768069L.48599244 .38136292Z"/>
<path id="font_5_4" d="M.68699648 .32714845C.70199587 .32714845 .72099307 .32714845 .72099307 .34713746 .72099307 .36714173 .70199587 .36714173 .6879883 .36714173H.08898926C.07499695 .36714173 .055999757 .36714173 .055999757 .34713746 .055999757 .32714845 .07499695 .32714845 .08999634 .32714845H.68699648M.6879883 .13284302C.70199587 .13284302 .72099307 .13284302 .72099307 .15284729 .72099307 .17285156 .70199587 .17285156 .68699648 .17285156H.08999634C.07499695 .17285156 .055999757 .17285156 .055999757 .15284729 .055999757 .13284302 .07499695 .13284302 .08898926 .13284302H.6879883Z"/>
<path id="font_5_5" d="M.116989139 .21801758C.116989139 .38093568 .19898987 .42323304 .2519989 .42323304 .26098634 .42323304 .32398988 .42222596 .35899354 .38594056 .31799317 .38293458 .31199647 .3529358 .31199647 .3399353 .31199647 .31393434 .32998658 .2939453 .35798646 .2939453 .38398744 .2939453 .4039917 .3109436 .4039917 .34094239 .4039917 .40911866 .32798768 .4482422 .25099183 .4482422 .12599182 .4482422 .033996583 .3399353 .033996583 .21601868 .033996583 .08816528 .1329956-.0107421879 .24899292-.0107421879 .3829956-.0107421879 .4149933 .10914612 .4149933 .119140628 .4149933 .12911988 .40499879 .12911988 .4019928 .12911988 .3929901 .12911988 .3909912 .12512207 .3889923 .119140628 .3600006 .026229859 .29499818 .014251709 .2579956 .014251709 .20498657 .014251709 .116989139 .0572052 .116989139 .21801758Z"/>
<path id="font_5_6" d="M.47099305 .21424866C.47099305 .34223939 .37098695 .4482422 .25 .4482422 .125 .4482422 .027999878 .3392334 .027999878 .21424866 .027999878 .085250858 .13198853-.0107421879 .24899292-.0107421879 .36999513-.0107421879 .47099305 .087249759 .47099305 .21424866M.25 .014251709C.20698548 .014251709 .16299439 .035247804 .13598633 .08125305 .11099243 .12524414 .11099243 .18624878 .11099243 .22224427 .11099243 .26124574 .11099243 .31523133 .1349945 .35923768 .1619873 .40522767 .20899964 .426239 .24899292 .426239 .29299928 .426239 .33599855 .40423585 .3619995 .36123658 .3880005 .3182373 .3880005 .26023866 .3880005 .22224427 .3880005 .18624878 .3880005 .13224793 .3659973 .08824158 .34399415 .04324341 .2999878 .014251709 .25 .014251709Z"/>
<path id="font_5_7" d="M.17298889 .3996582H.31599427V.43066407H.17298889V.6147156H.147995C.14698792 .5326996 .116989139 .42565919 .018997193 .42166139V.3996582H.10398865V.12416077C.10398865 .0012512207 .19699097-.0107421879 .23298645-.0107421879 .3039856-.0107421879 .33198548 .06021118 .33198548 .12416077V.18112183H.30699159V.12615967C.30699159 .052215578 .2769928 .014251709 .23999024 .014251709 .17298889 .014251709 .17298889 .10517883 .17298889 .122161868V.3996582Z"/>
<path id="font_5_1" d="M.33099366-.2400055C.33099366-.23701477 .33099366-.23500061 .31399537-.21800232 .18899536-.0920105 .15699768 .09700012 .15699768 .25 .15699768 .42399598 .19499207 .59799197 .31799317 .72299197 .33099366 .73498538 .33099366 .7369995 .33099366 .73999026 .33099366 .746994 .32699586 .75 .32099916 .75 .31098939 .75 .22099304 .6819916 .1619873 .5549927 .11099243 .44499208 .09899902 .33399964 .09899902 .25 .09899902 .17199707 .10998535 .050994874 .16499329-.06201172 .22499085-.18501282 .31098939-.25 .32099916-.25 .32699586-.25 .33099366-.24700928 .33099366-.2400055Z"/>
<path id="font_2_2" d="M.33399964 .30233766C.33999635 .32835389 .36299134 .42037965 .43299867 .42037965 .43798829 .42037965 .46199037 .42037965 .48298646 .40734864 .45498658 .402359 .43499757 .37734986 .43499757 .35334779 .43499757 .33735658 .44599916 .31835938 .47299195 .31835938 .49499513 .31835938 .5269928 .3363495 .5269928 .37635804 .5269928 .42837525 .46798707 .4423828 .43399049 .4423828 .37599183 .4423828 .34098817 .38935853 .32899476 .36634828 .3039856 .43237306 .25 .4423828 .22099304 .4423828 .116989139 .4423828 .05999756 .3133545 .05999756 .28834535 .05999756 .27833558 .069992069 .27833558 .07199097 .27833558 .07998657 .27833558 .08299255 .28033448 .084991458 .28933717 .11898804 .39535523 .18499756 .42037965 .21899414 .42037965 .23799134 .42037965 .272995 .4113617 .272995 .35334779 .272995 .32235719 .2559967 .25532533 .21899414 .11528015 .20298767 .053268434 .16799927 .011245728 .12399292 .011245728 .117996219 .011245728 .09498596 .011245728 .07398987 .024276734 .09899902 .029266358 .12098694 .05027771 .12098694 .07827759 .12098694 .105270389 .09899902 .11328125 .083999637 .11328125 .053985597 .11328125 .0289917 .08728027 .0289917 .055267335 .0289917 .009246826 .07899475-.0107421879 .12298584-.0107421879 .18899536-.0107421879 .22499085 .059280397 .22799683 .0652771 .23999024 .028274537 .27598573-.0107421879 .33599855-.0107421879 .43899537-.0107421879 .49598695 .118270877 .49598695 .14328003 .49598695 .1532898 .4869995 .1532898 .48399354 .1532898 .47499085 .1532898 .47299195 .14929199 .47099305 .14228821 .43798829 .03527832 .36999513 .011245728 .33799745 .011245728 .29899598 .011245728 .2829895 .043273927 .2829895 .07727051 .2829895 .09927368 .2889862 .121276859 .2999878 .16529846L.33399964 .30233766Z"/>
<path id="font_5_2" d="M.2889862 .25C.2889862 .32798768 .27799989 .44898988 .22299195 .56199648 .16299439 .68499758 .07699585 .75 .066986087 .75 .06098938 .75 .056991579 .74598696 .056991579 .73999026 .056991579 .7369995 .056991579 .73498538 .07598877 .71699526 .17399597 .6179962 .23098755 .45899964 .23098755 .25 .23098755 .07899475 .19400025-.09700012 .069992069-.2230072 .056991579-.23500061 .056991579-.23701477 .056991579-.2400055 .056991579-.2460022 .06098938-.25 .066986087-.25 .07699585-.25 .16699219-.18200684 .22599793-.055007936 .2769928 .054992677 .2889862 .16600037 .2889862 .25Z"/>
<path id="font_6_1" d="M.41299439-1.1491852C.41299439-1.1451874 .41099549-1.1431885 .40899659-1.1401825 .36299134-1.0911713 .29499818-1.0101624 .25299073-.84713748 .22999573-.7561188 .22099304-.65309146 .22099304-.56007388 .22099304-.2970276 .28399659-.11299133 .4039917 .017044068 .41299439 .026031495 .41299439 .028030396 .41299439 .030029297 .41299439 .040039064 .40499879 .040039064 .40098573 .040039064 .38598634 .040039064 .33198548-.019973755 .31900025-.034973146 .21699524-.1559906 .1519928-.33602906 .1519928-.5590668 .1519928-.7010956 .1769867-.9021454 .30799867-1.071167 .31799317-1.0831757 .3829956-1.1591797 .40098573-1.1591797 .40499879-1.1591797 .41299439-1.1591797 .41299439-1.1491852Z"/>
<path id="font_4_1" d="M.33499146 .63612368C.33499146 .6630554 .33299256 .6640625 .30499269 .6640625 .24099732 .6014404 .1499939 .6004486 .10899353 .6004486V.5644531C.1329956 .5644531 .19898987 .5644531 .2539978 .592453V.08203125C.2539978 .04899597 .2539978 .035995485 .1539917 .035995485H.115997318V0C.13398743 .0009918213 .25698854 .0039978029 .2939911 .0039978029 .32499696 .0039978029 .45098878 .0009918213 .47299195 0V.035995485H.43499757C.33499146 .035995485 .33499146 .04899597 .33499146 .08203125V.63612368Z"/>
<path id="font_6_2" d="M.30499269-.56007388C.30499269-.41804505 .27999879-.2170105 .14898682-.047973634 .13899231-.035964967 .07398987 .040039064 .055999757 .040039064 .050994874 .040039064 .04399109 .038024904 .04399109 .030029297 .04399109 .026031495 .04598999 .023025513 .049987794 .02003479 .09799194-.031967164 .16299439-.11299133 .20399475-.27201844 .22698975-.3630371 .23599243-.4660492 .23599243-.5590668 .23599243-.6600952 .22698975-.7621155 .20098877-.86013796 .16299439-1.0001679 .10398865-1.0801697 .052993776-1.1361847 .04399109-1.1451874 .04399109-1.1471863 .04399109-1.1491852 .04399109-1.1571808 .050994874-1.1591797 .055999757-1.1591797 .070999149-1.1591797 .12599182-1.098175 .13798523-1.0841827 .23999024-.96315 .30499269-.7831116 .30499269-.56007388Z"/>
</defs>
<path transform="matrix(1.00005,0,0,-1,8.280663,176.19499)" stroke-width=".19925" stroke-linecap="butt" stroke-miterlimit="10" stroke-linejoin="miter" fill="none" stroke="#7f807f" d="M9.31804 78.57195V82.82378M38.59167 78.57195V82.82378M97.13895 78.57195V82.82378M126.4126 78.57195V82.82378M155.68622 78.57195V82.82378M184.95987 78.57195V82.82378"/>
<path transform="matrix(1.00005,0,0,-1,8.280663,176.19499)" stroke-width=".19925" stroke-linecap="butt" stroke-miterlimit="10" stroke-linejoin="miter" fill="none" stroke="#7f807f" d="M65.73923 31.79007H69.99095M65.73923 129.60569H69.99095"/>
<path transform="matrix(1.00005,0,0,-1,8.280663,176.19499)" stroke-width=".3985" stroke-linecap="butt" stroke-miterlimit="10" stroke-linejoin="miter" fill="none" stroke="#000000" d="M0 80.69788H192.28472"/>
<path transform="matrix(1.00005,0,0,-1,200.57498,95.49711)" d="M1.99252 0-1.19551 1.59401 0 0-1.19551-1.59401"/>
<path transform="matrix(1.00005,0,0,-1,8.280663,176.19499)" stroke-width=".3985" stroke-linecap="butt" stroke-miterlimit="10" stroke-linejoin="miter" fill="none" stroke="#000000" d="M67.8651 0V159.40323"/>
<path transform="matrix(0,-1,-1.00005,-0,76.14915,16.791764)" d="M1.99252 0-1.19551 1.59401 0 0-1.19551-1.59401"/>
<use data-text="&#x2212;" xlink:href="#font_1_1" transform="matrix(9.963098,0,0,-9.9626,10.70578,106.953998)"/>
<use data-text="&#x03c0;" xlink:href="#font_2_1" transform="matrix(9.963098,0,0,-9.9626,18.455163,106.953998)"/>
<use data-text="&#x2212;" xlink:href="#font_1_1" transform="matrix(9.963098,0,0,-9.9626,39.349214,108.06799)"/>
<use data-text="&#x03c0;" xlink:href="#font_3_1" transform="matrix(6.9741489,0,0,-6.9738,48.294656,104.14499)"/>
<path transform="matrix(1.00005,0,0,-1,-64.31997,-42.645006)" stroke-width=".3985" stroke-linecap="butt" stroke-miterlimit="10" stroke-linejoin="miter" fill="none" stroke="#000000" d="M112.609-148.222H117.518"/>
<use data-text="2" xlink:href="#font_4_2" transform="matrix(6.9741489,0,0,-6.9738,48.76268,111.50299)"/>
<use data-text="&#x03c0;" xlink:href="#font_3_1" transform="matrix(6.9741489,0,0,-6.9738,102.97039,104.14499)"/>
<path transform="matrix(1.00005,0,0,-1,-1.8948517,-42.645006)" stroke-width=".3985" stroke-linecap="butt" stroke-miterlimit="10" stroke-linejoin="miter" fill="none" stroke="#000000" d="M104.86-148.222H109.769"/>
<use data-text="2" xlink:href="#font_4_2" transform="matrix(6.9741489,0,0,-6.9738,103.439418,111.50299)"/>
<use data-text="&#x03c0;" xlink:href="#font_2_1" transform="matrix(9.963098,0,0,-9.9626,131.68082,105.43199)"/>
<use data-text="3" xlink:href="#font_4_3" transform="matrix(6.9741489,0,0,-6.9738,159.53421,105.636989)"/>
<use data-text="&#x03c0;" xlink:href="#font_3_1" transform="matrix(6.9741489,0,0,-6.9738,163.50542,105.636989)"/>
<path transform="matrix(1.00005,0,0,-1,54.668977,-41.153009)" stroke-width=".3985" stroke-linecap="butt" stroke-miterlimit="10" stroke-linejoin="miter" fill="none" stroke="#000000" d="M104.86-148.222H113.74"/>
<use data-text="2" xlink:href="#font_4_2" transform="matrix(6.9741489,0,0,-6.9738,161.98834,112.99499)"/>
<use data-text="2" xlink:href="#font_5_3" transform="matrix(9.963098,0,0,-9.9626,187.74063,107.56299)"/>
<use data-text="&#x03c0;" xlink:href="#font_2_1" transform="matrix(9.963098,0,0,-9.9626,192.72287,107.56299)"/>
<use data-text="&#x2212;" xlink:href="#font_1_1" transform="matrix(9.963098,0,0,-9.9626,57.772134,147.2)"/>
<use data-text="2" xlink:href="#font_5_3" transform="matrix(9.963098,0,0,-9.9626,65.521518,147.2)"/>
<use data-text="2" xlink:href="#font_5_3" transform="matrix(9.963098,0,0,-9.9626,65.521518,49.799997)"/>
<path transform="matrix(1.00005,0,0,-1,8.280663,176.19499)" stroke-width=".99628" stroke-linecap="butt" stroke-miterlimit="10" stroke-linejoin="miter" fill="none" stroke="#000000" d="M73.6554 156.86997 73.69394 156.31325 73.93196 153.14206 74.16997 150.20124 74.40799 147.46141 74.64601 144.91284 74.88403 142.52956 75.12202 140.29152 75.36006 138.18898 75.59807 136.20798 75.83607 134.34313 76.0741 132.5773 76.31212 130.90345 76.55013 129.31638 76.78815 127.80635 77.02617 126.37236 77.26419 125.00148 77.5022 123.69443 77.74022 122.44409 77.97824 121.24805 78.21625 120.10043 78.45427 118.99953 78.69229 117.94336 78.93031 116.92632 79.16832 115.94695 79.40633 115.00253 79.64435 114.09212 79.88235 113.21225 80.12038 112.36275 80.3584 111.53986 80.5964 110.74315 80.83443 109.97163 81.07245 109.22308 81.31047 108.49706 81.54848 107.79108 81.7865 107.10564 82.02452 106.43732 82.26253 105.78806 82.50055 105.1552 82.73857 104.53798 82.97658 103.93689 83.21458 103.35 83.4526 102.77559 83.69063 102.21584 83.92863 101.66708 84.16666 101.1313 84.40468 100.60628 84.6427 100.09201 84.8807 99.5885 85.11873 99.09453 85.35675 98.61035 85.59476 98.13496 85.83278 97.66766 86.0708 97.20914 86.3088 96.75845 86.54683 96.31511 86.78484 95.8786 87.02286 95.44994 87.26086 95.02711 87.49889 94.61017 87.73691 94.19984 87.97491 93.79538 88.21294 93.39604 88.45096 93.00209 88.68898 92.6128 88.92699 92.22887 89.16501 91.84982 89.40303 91.4747 89.64104 91.10349 89.87906 90.73668 90.11708 90.37329 90.35507 90.01407 90.5931 89.65826 90.83112 89.30563 91.06914 88.95644 91.30714 88.60944 91.54517 88.26634 91.78319 87.92473 92.0212 87.58653 92.25922 87.25053 92.49724 86.91698 92.73526 86.58514 92.97327 86.25623 93.21129 85.9288 93.44931 85.60307 93.68732 85.27856 93.92534 84.95602 94.16335 84.63518 94.40137 84.31534 94.63937 83.9967 94.8774 83.67928 95.11542 83.36235 95.35342 83.0468 95.59145 82.73267 95.82947 82.41832 96.06747 82.10461 96.3055 81.79161 96.54352 81.47835 96.78154 81.16626 97.01955 80.85388 97.25757 80.54184 97.4956 80.22946 97.73358 79.91737 97.97162 79.6046 98.20961 79.29132 98.44765 78.9774 98.68567 78.66306 98.92368 78.34892 99.16171 78.03337 99.39969 77.71645 99.63773 77.39928 99.87576 77.08064 100.11374 76.76054 100.35178 76.43971 100.58978 76.11717 100.82782 75.79265 101.06584 75.46693 101.30383 75.13998 101.54187 74.81058 101.77985 74.47949 102.01788 74.14519 102.25592 73.8092 102.49393 73.47101 102.73195 73.13036 102.96994 72.78653 103.20798 72.44002 103.446 72.09033 103.68399 71.73746 103.92203 71.38165 104.16002 71.02243 104.39806 70.65953 104.6361 70.29272 104.87408 69.92177 105.1121 69.5464 105.3501 69.16687 105.58813 68.78319 105.82616 68.39413 106.06416 67.99994 106.3022 67.60107 106.54019 67.19588 106.77821 66.7858 107.01625 66.3686 107.25424 65.94629 107.49226 65.51761 107.73027 65.08086 107.9683 64.63802 108.20633 64.18683 108.44432 63.72807 108.68236 63.26076 108.92036 62.7861 109.15839 62.3012 109.39641 61.80746 109.63441 61.30396 109.87244 60.78944 110.11043 60.26491 110.34846 59.72864 110.5865 59.18062 110.82448 58.62039 111.06252 58.04669 111.30052 57.45932 111.53854 56.85774 111.77658 56.24103 112.01457 55.60768 112.25261 54.95842 112.4906 54.29108 112.72864 53.60513 112.96666 52.89915 113.20465 52.17313 113.44269 51.42384 113.68068 50.65257 113.9187 49.85709 114.15674 49.03299 114.39474 48.1842 114.63278 47.3036 114.87076 46.39343 115.1088 45.44951 115.34683 44.4699 115.58481 43.45285 115.82285 42.39694 116.06085 41.29382 116.29889 40.14792 116.5369 38.95163 116.7749 37.70349 117.01294 36.39522 117.25092 35.02336 117.48895 33.58937 117.72699 32.08105 117.96498 30.4923 118.20302 28.82259 118.44101 27.05383 118.67905 25.18776 118.91707 23.20674 119.15506 21.1042 119.3931 18.8691 119.63109 16.4829 119.86913 13.92892 120.10716 11.19499 120.34515 8.25366 120.58318 5.08249 120.62169 4.52576"/>
<path transform="matrix(-.06905345,-.99759,-.99763986,.06905,81.93975,19.325028)" d="M2.8892 0-1.73352 2.31136 0 0-1.73352-2.31136"/>
<path transform="matrix(.06905345,.99759,.99763986,-.06905,128.90836,171.66924)" d="M2.8892 0-1.73352 2.31136 0 0-1.73352-2.31136"/>
<use data-text="y" xlink:href="#font_2_3" transform="matrix(9.963098,0,0,-9.9626,132.28186,168.33899)"/>
<use data-text="=" xlink:href="#font_5_4" transform="matrix(9.963098,0,0,-9.9626,140.29227,168.33899)"/>
<use data-text="c" xlink:href="#font_5_5" transform="matrix(9.963098,0,0,-9.9626,150.79337,168.33899)"/>
<use data-text="o" xlink:href="#font_5_6" transform="matrix(9.963098,0,0,-9.9626,155.21698,168.33899)"/>
<use data-text="t" xlink:href="#font_5_7" transform="matrix(9.963098,0,0,-9.9626,160.19855,168.33899)"/>
<use data-text="(" xlink:href="#font_5_1" transform="matrix(9.963098,0,0,-9.9626,164.06421,168.33899)"/>
<use data-text="x" xlink:href="#font_2_2" transform="matrix(9.963098,0,0,-9.9626,167.96765,168.33899)"/>
<use data-text=")" xlink:href="#font_5_2" transform="matrix(9.963098,0,0,-9.9626,173.66193,168.33899)"/>
<path transform="matrix(1.00005,0,0,-1,8.280663,176.19499)" stroke-width=".99628" stroke-linecap="butt" stroke-miterlimit="10" stroke-linejoin="miter" fill="none" stroke="#ff0000" d="M70.76048 156.86479 70.77951 156.31813 70.89853 153.14206 71.01752 150.20075 71.13652 147.4668 71.25554 144.91284 71.37454 142.52663 71.49355 140.29152 71.61256 138.18898 71.73157 136.20944 71.85056 134.34044 71.96957 132.57535 72.08858 130.90465 72.20758 129.31467 72.3266 127.8083 72.4456 126.37286 72.56462 125.0005 72.68361 123.69516 72.80261 122.44556 72.92162 121.24805 73.04063 120.1019 73.15964 119.00026 73.27864 117.94287 73.39766 116.9268 73.51665 115.94743 73.63567 115.00229 73.75467 114.09334 73.87367 113.21349 73.99269 112.36322 74.1117 111.53986 74.2307 110.74388 74.34969 109.97163 74.4687 109.22308 74.5877 108.49706 74.70673 107.79108 74.82573 107.10564 74.94473 106.43805 75.06374 105.7883 75.18274 105.15544 75.30174 104.53822 75.42076 103.93689 75.53976 103.35 75.65877 102.7763 75.77779 102.21584 75.89677 101.66782 76.01578 101.13203 76.1348 100.60701 76.2538 100.09274 76.3728 99.58899 76.49182 99.09528 76.61082 98.6106 76.72981 98.13521 76.84883 97.66838 76.96783 97.20963 77.08684 96.75845 77.20586 96.3156 77.32486 95.87935 77.44386 95.44994 77.56287 95.02736 77.68187 94.61092 77.80087 94.20107 77.91989 93.79538 78.0389 93.39604 78.1579 93.00282 78.27692 92.61351 78.3959 92.22958 78.51491 91.85005 78.63393 91.4747 78.75293 91.10422 78.87193 90.73717 78.99095 90.37378 79.10995 90.01431 79.22894 89.65826 79.34796 89.30563 79.46696 88.95644 79.58597 88.60992 79.70499 88.26634 79.82399 87.92593 79.943 87.58676 80.062 87.25078 80.181 86.91722 80.30002 86.58588 80.41902 86.25647 80.53802 85.92952 80.65703 85.60332 80.77603 85.27931 80.89503 84.95651 81.01404 84.63567 81.13306 84.31583 81.25206 83.9972 81.37108 83.68001 81.49008 83.36334 81.60907 83.04753 81.72809 82.73294 81.84709 82.41881 81.9661 82.10516 82.08511 81.79208 82.20412 81.47935 82.32312 81.16675 82.44212 80.85461 82.56113 80.54257 82.68015 80.23021 82.79913 79.91786 82.91815 79.60536 83.03716 79.29181 83.15617 78.97836 83.27516 78.66374 83.39417 78.34917 83.51318 78.0336 83.63219 77.71693 83.75119 77.39928 83.87021 77.08113 83.98921 76.76176 84.10822 76.44043 84.2272 76.11789 84.34622 75.79364 84.46524 75.46767 84.58423 75.14072 84.70325 74.81131 84.82225 74.47949 84.94125 74.14592 85.06027 73.81018 85.17926 73.47173 85.29828 73.1306 85.41728 72.78702 85.53629 72.44026 85.6553 72.09082 85.77429 71.73845 85.89331 71.3824 86.0123 71.02316 86.13132 70.6605 86.25034 70.29297 86.36934 69.9225 86.48833 69.54689 86.60733 69.16785 86.72635 68.78392 86.84537 68.39438 86.96436 68.00114 87.08337 67.60182 87.20238 67.19736 87.32137 66.78653 87.44038 66.37033 87.55939 65.94702 87.6784 65.51834 87.7974 65.08136 87.91641 64.63875 88.03543 64.18805 88.15442 63.7293 88.27342 63.26273 88.39243 62.78683 88.51144 62.30217 88.63046 61.80846 88.74945 61.30519 88.86847 60.79091 88.98746 60.2659 89.10648 59.72937 89.2255 59.18234 89.34448 58.62186 89.4635 58.04768 89.58249 57.46078 89.7015 56.85922 89.82051 56.2425 89.93951 55.60963 90.05853 54.95915 90.17752 54.29326 90.29654 53.60709 90.41556 52.90063 90.53455 52.17532 90.65355 51.42654 90.77255 50.65575 90.89157 49.85857 91.01057 49.03716 91.12958 48.18616 91.2486 47.30655 91.36758 46.39613 91.48659 45.45221 91.6056 44.47185 91.72461 43.4558 91.84363 42.39938 91.96262 41.29822 92.08163 40.15207 92.20064 38.95529 92.31963 37.70546 92.43864 36.39914 92.55765 35.02849 92.67667 33.59451 92.79568 32.0852 92.91467 30.49596 93.03368 28.82404 93.15268 27.06091 93.27168 25.1946 93.3907 23.21506 93.5097 21.11325 93.62872 18.87547 93.74771 16.49146 93.86671 13.94115 93.98573 11.20476 94.10474 8.26346 94.22374 5.0881 94.24266 4.54512"/>
<path transform="matrix(-.03460173,-.99937,-.99941989,.0346,79.04468,19.3302)" d="M2.8892 0-1.73352 2.31136 0 0-1.73352-2.31136" fill="#ff0000"/>
<path transform="matrix(.034641729,.99937,.99941989,-.03464,102.52803,171.64987)" d="M2.8892 0-1.73352 2.31136 0 0-1.73352-2.31136" fill="#ff0000"/>
<use data-text="y" xlink:href="#font_2_3" transform="matrix(9.963098,0,0,-9.9626,48.273664,168.90399)" fill="#ff0000"/>
<use data-text="=" xlink:href="#font_5_4" transform="matrix(9.963098,0,0,-9.9626,56.28406,168.90399)" fill="#ff0000"/>
<use data-text="c" xlink:href="#font_5_5" transform="matrix(9.963098,0,0,-9.9626,66.78517,168.90399)" fill="#ff0000"/>
<use data-text="o" xlink:href="#font_5_6" transform="matrix(9.963098,0,0,-9.9626,71.208789,168.90399)" fill="#ff0000"/>
<use data-text="t" xlink:href="#font_5_7" transform="matrix(9.963098,0,0,-9.9626,76.19034,168.90399)" fill="#ff0000"/>
<use data-text="(" xlink:href="#font_5_1" transform="matrix(9.963098,0,0,-9.9626,80.056018,168.90399)" fill="#ff0000"/>
<use data-text="2" xlink:href="#font_5_3" transform="matrix(9.963098,0,0,-9.9626,83.92171,168.90399)" fill="#ff0000"/>
<use data-text="x" xlink:href="#font_2_2" transform="matrix(9.963098,0,0,-9.9626,88.94069,168.90399)" fill="#ff0000"/>
<use data-text=")" xlink:href="#font_5_2" transform="matrix(9.963098,0,0,-9.9626,94.63498,168.90399)" fill="#ff0000"/>
<path transform="matrix(1.00005,0,0,-1,8.280663,176.19499)" stroke-width=".99628" stroke-linecap="butt" stroke-miterlimit="10" stroke-linejoin="miter" fill="none" stroke="#0000ff" d="M79.44286 156.89037 79.52278 156.31325 79.99883 153.14427 80.47485 150.20124 80.9509 147.46141 81.42693 144.91284 81.90295 142.52663 82.379 140.29007 82.85503 138.18898 83.33107 136.20944 83.8071 134.34313 84.28314 132.57535 84.75917 130.90296 85.2352 129.31467 85.71124 127.8083 86.18727 126.37286 86.66331 125.0005 87.13934 123.69443 87.61537 122.44362 88.09142 121.24805 88.56744 120.1019 89.04349 118.99953 89.51952 117.94336 89.99556 116.92583 90.47159 115.94743 90.94762 115.00229 91.42366 114.09212 91.89969 113.21225 92.37573 112.362 92.85176 111.53986 93.32779 110.74388 93.80383 109.97188 94.27986 109.22308 94.7559 108.49706 95.23193 107.79108 95.70796 107.10464 96.184 106.43732 96.66003 105.78879 97.13608 105.1547 97.6121 104.53798 98.08815 103.93689 98.56418 103.34952 99.0402 102.77559 99.51625 102.2151 99.99228 101.66782 100.46832 101.13203 100.94435 100.60628 101.42038 100.09225 101.89642 99.58826 102.37245 99.09453 102.8485 98.60962 103.32452 98.13496 103.80057 97.66766 104.2766 97.2089 104.75262 96.75845 105.22867 96.31511 105.7047 95.8786 106.18074 95.44943 106.65677 95.02637 107.1328 94.61066 107.60884 94.19984 108.08487 93.79465 108.56091 93.39604 109.03694 93.00159 109.51297 92.6128 109.98901 92.22887 110.46504 91.84909 110.94109 91.47395 111.41711 91.103 111.89316 90.73619 112.36919 90.37329 112.84521 90.01431 113.32126 89.65826 113.79729 89.30563 114.27333 88.95595 114.74936 88.60944 115.22539 88.26634 115.70143 87.92473 116.17746 87.58653 116.6535 87.25053 117.12953 86.91624 117.60558 86.58514 118.0816 86.25574 118.55763 85.92807 119.03368 85.60307 119.5097 85.27856 119.98575 84.95602 120.46178 84.63493 120.9378 84.31534 121.41385 83.9967 121.88988 83.67928 122.36592 83.36235 122.84195 83.04727 123.31798 82.73221 123.79402 82.41858 124.27005 82.1044 124.74611 81.79112 125.22214 81.47835 125.69817 81.16626 126.1742 80.85388 126.65022 80.54184 127.1263 80.22946 127.60228 79.91737 128.07836 79.60413 128.55435 79.2911 129.0304 78.9774 129.50647 78.66306 129.98246 78.34892 130.45853 78.03337 130.93451 77.7162 131.41059 77.39854 131.88665 77.0804 132.36264 76.76054 132.8387 76.43971 133.3147 76.11717 133.79076 75.79265 134.26682 75.46693 134.7428 75.13998 135.21887 74.81058 135.69487 74.47874 136.17095 74.14519 136.64699 73.8092 137.12299 73.47052 137.59905 73.12938 138.07505 72.78629 138.5511 72.43929 139.02716 72.09009 139.50318 71.73746 139.97922 71.38165 140.45522 71.02243 140.93129 70.65977 141.40734 70.29224 141.88335 69.92177 142.35939 69.5464 142.83539 69.16687 143.31147 68.78246 143.7875 68.39413 144.26352 67.9997 144.73957 67.60107 145.21556 67.19563 145.69164 66.78506 146.1677 66.3686 146.64369 65.9458 147.11975 65.51714 147.59575 65.08014 148.07181 64.63727 148.54785 64.18658 149.02387 63.72807 149.49991 63.26076 149.97592 62.78539 150.45198 62.3012 150.92804 61.80673 151.40404 61.30371 151.8801 60.78944 152.3561 60.26442 152.83216 59.72864 153.30821 59.18062 153.78421 58.62015 154.26027 58.04572 154.73627 57.45932 155.21233 56.8575 155.6884 56.24054 156.16439 55.60768 156.64044 54.95842 157.11644 54.29008 157.5925 53.60464 158.06858 52.89842 158.54456 52.17264 159.02062 51.42409 159.49662 50.65184 159.97267 49.85587 160.44875 49.03299 160.92473 48.18347 161.4008 47.3024 161.87679 46.3915 162.35285 45.44879 162.82892 44.46893 163.3049 43.45236 163.78098 42.39546 164.25696 41.29529 164.73302 40.14767 165.20909 38.95016 165.68508 37.7013 166.16115 36.39424 166.63713 35.02336 167.11319 33.58669 167.58927 32.07935 168.06525 30.4923 168.54132 28.82037 169.0173 27.0526 169.49338 25.1836 169.96944 23.20575 170.44542 21.1042 170.9215 18.86617 171.39748 16.47923 171.87355 13.93065 172.34961 11.19449 172.82559 8.25146 173.30167 5.07759 173.3811 4.50458"/>
<path transform="matrix(-.13710685,-.99052,-.9905695,.1371,87.7275,19.304627)" d="M2.8892 0-1.73352 2.31136 0 0-1.73352-2.31136" fill="#0000ff"/>
<path transform="matrix(.13725686,.99051,.99055948,-.13725,181.67044,171.69042)" d="M2.8892 0-1.73352 2.31136 0 0-1.73352-2.31136" fill="#0000ff"/>
<use data-text="y" xlink:href="#font_2_3" transform="matrix(9.963098,0,0,-9.9626,105.48551,68.02799)" fill="#0000ff"/>
<use data-text="=" xlink:href="#font_5_4" transform="matrix(9.963098,0,0,-9.9626,113.49591,68.02799)" fill="#0000ff"/>
<use data-text="c" xlink:href="#font_5_5" transform="matrix(9.963098,0,0,-9.9626,123.997028,68.02799)" fill="#0000ff"/>
<use data-text="o" xlink:href="#font_5_6" transform="matrix(9.963098,0,0,-9.9626,128.42064,68.02799)" fill="#0000ff"/>
<use data-text="t" xlink:href="#font_5_7" transform="matrix(9.963098,0,0,-9.9626,133.40219,68.02799)" fill="#0000ff"/>
<use data-text="(" xlink:href="#font_6_1" transform="matrix(9.963098,0,0,-9.9626,138.95719,59.958)" fill="#0000ff"/>
<use data-text="1" xlink:href="#font_4_1" transform="matrix(6.9741489,0,0,-6.9738,144.71848,64.105)" fill="#0000ff"/>
<path transform="matrix(1.00005,0,0,-1,1.81633,-82.685009)" stroke-width=".3985" stroke-linecap="butt" stroke-miterlimit="10" stroke-linejoin="miter" fill="none" stroke="#0000ff" d="M142.895-148.222H146.867"/>
<use data-text="2" xlink:href="#font_4_2" transform="matrix(6.9741489,0,0,-6.9738,144.71848,71.46299)" fill="#0000ff"/>
<use data-text="x" xlink:href="#font_2_2" transform="matrix(9.963098,0,0,-9.9626,149.88574,68.02799)" fill="#0000ff"/>
<use data-text=")" xlink:href="#font_6_2" transform="matrix(9.963098,0,0,-9.9626,155.58002,59.958)" fill="#0000ff"/>
<path transform="matrix(1.00005,0,0,-1,8.280663,176.19499)" stroke-width=".99628" stroke-linecap="butt" stroke-miterlimit="10" stroke-linejoin="miter" fill="none" stroke="#ec008c" d="M15.10858 4.52571 15.14688 5.07759 15.3849 8.25146 15.62291 11.19499 15.86093 13.93065 16.09895 16.4829 16.33696 18.8686 16.57498 21.10565 16.813 23.20674 17.05103 25.1836 17.28903 27.0526 17.52705 28.81844 17.76508 30.4923 18.00308 32.08105 18.2411 33.58937 18.47913 35.02286 18.71713 36.39424 18.95515 37.7013 19.19318 38.95163 19.4312 40.14767 19.6692 41.29382 19.90723 42.39546 20.14523 43.45358 20.38324 44.46893 20.62126 45.44879 20.85928 46.39198 21.0973 47.3036 21.33531 48.18347 21.57333 49.03299 21.81136 49.85587 22.04936 50.65184 22.28738 51.42409 22.5254 52.17264 22.76341 52.89915 23.00143 53.60464 23.23946 54.29008 23.47748 54.95842 23.71548 55.60768 23.9535 56.24054 24.19153 56.8575 24.42953 57.45883 24.66756 58.04669 24.90558 58.61966 25.14359 59.1799 25.3816 59.72864 25.61961 60.26491 25.85764 60.78944 26.09564 61.30371 26.33366 61.80746 26.57169 62.3012 26.8097 62.7861 27.04771 63.26076 27.28574 63.72807 27.52376 64.18658 27.76176 64.63727 27.99979 65.08086 28.23781 65.51714 28.47581 65.9458 28.71384 66.36935 28.95186 66.78506 29.18988 67.19588 29.42789 67.60034 29.66591 67.9997 29.90393 68.39363 30.14194 68.78294 30.37996 69.16687 30.61797 69.5459 30.85599 69.92177 31.094 70.29175 31.33202 70.65953 31.57004 71.02243 31.80804 71.38165 32.04607 71.73746 32.28409 72.09033 32.5221 72.43929 32.76012 72.78629 32.99814 73.13036 33.23616 73.47101 33.47417 73.8092 33.71219 74.14519 33.95021 74.47874 34.18822 74.81058 34.42624 75.13998 34.66426 75.46693 34.90228 75.79265 35.14029 76.11717 35.37831 76.43971 35.61633 76.76054 35.85434 77.0804 36.09236 77.39854 36.33037 77.7162 36.56837 78.03238 36.8064 78.34845 37.04442 78.66351 37.28244 78.9774 37.52045 79.29132 37.75847 79.60413 37.99649 79.91737 38.2345 80.22946 38.47252 80.54184 38.71054 80.85388 38.94858 81.16626 39.18655 81.47835 39.42459 81.79112 39.6626 82.1044 39.90062 82.41832 40.13866 82.73221 40.37665 83.0468 40.61467 83.36235 40.85268 83.67928 41.09071 83.9967 41.32874 84.3151 41.56673 84.63493 41.80476 84.95602 42.04276 85.27856 42.28078 85.60307 42.51881 85.92807 42.75682 86.25623 42.99486 86.58514 43.23283 86.91624 43.47087 87.25053 43.70891 87.58653 43.9469 87.92473 44.18492 88.26634 44.42293 88.60919 44.66096 88.9557 44.89899 89.30563 45.13698 89.65826 45.37502 90.01431 45.613 90.37305 45.85104 90.73619 46.08908 91.103 46.32706 91.47395 46.5651 91.84933 46.8031 92.22887 47.04112 92.6128 47.27914 93.00159 47.51715 93.39531 47.75519 93.79465 47.99316 94.19984 48.2312 94.60992 48.46924 95.02637 48.70724 95.44994 48.94527 95.87811 49.18326 96.31511 49.4213 96.75797 49.65932 97.2089 49.89731 97.6674 50.13535 98.13496 50.37334 98.61035 50.61137 99.09453 50.84941 99.58826 51.0874 100.09201 51.32542 100.60628 51.56343 101.13081 51.80147 101.66733 52.03947 102.2151 52.27748 102.77559 52.51552 103.34952 52.75351 103.9364 52.99153 104.53798 53.22957 105.1547 53.46758 105.78806 53.7056 106.43683 53.94359 107.10464 54.18163 107.79033 54.41965 108.49657 54.65764 109.22261 54.89568 109.9704 55.13368 110.74315 55.3717 111.53864 55.60974 112.36322 55.84773 113.21225 56.08575 114.09334 56.32376 115.00229 56.5618 115.94695 56.79982 116.92632 57.03781 117.94214 57.27585 119.00026 57.51384 120.10043 57.75186 121.2466 57.9899 122.44362 58.2279 123.69418 58.46593 125.0005 58.70392 126.37236 58.94196 127.80635 59.18 129.31467 59.41798 130.90345 59.656 132.57535 59.89401 134.3392 60.13203 136.21215 60.37007 138.18997 60.60806 140.29007 60.8461 142.52956 61.08409 144.91284 61.32213 147.46141 61.56017 150.20075 61.79814 153.14206 62.03618 156.31325 62.0747 156.86997"/>
<path transform="matrix(-.06912345,.99757,.9976198,.06912,23.389996,171.66927)" d="M2.8892 0-1.73352 2.31136 0 0-1.73352-2.31136" fill="#ec008c"/>
<path transform="matrix(.06905345,-.99759,-.99763986,-.06905,70.35846,19.325028)" d="M2.8892 0-1.73352 2.31136 0 0-1.73352-2.31136" fill="#ec008c"/>
<use data-text="y" xlink:href="#font_2_3" transform="matrix(9.963098,0,0,-9.9626,5.890541,70.15899)" fill="#ec008c"/>
<use data-text="=" xlink:href="#font_5_4" transform="matrix(9.963098,0,0,-9.9626,13.90094,70.15899)" fill="#ec008c"/>
<use data-text="c" xlink:href="#font_5_5" transform="matrix(9.963098,0,0,-9.9626,24.402054,70.15899)" fill="#ec008c"/>
<use data-text="o" xlink:href="#font_5_6" transform="matrix(9.963098,0,0,-9.9626,28.825669,70.15899)" fill="#ec008c"/>
<use data-text="t" xlink:href="#font_5_7" transform="matrix(9.963098,0,0,-9.9626,33.80722,70.15899)" fill="#ec008c"/>
<use data-text="(" xlink:href="#font_5_1" transform="matrix(9.963098,0,0,-9.9626,37.672899,70.15899)" fill="#ec008c"/>
<use data-text="&#x2212;" xlink:href="#font_1_1" transform="matrix(9.963098,0,0,-9.9626,41.576326,70.15899)" fill="#ec008c"/>
<use data-text="x" xlink:href="#font_2_2" transform="matrix(9.963098,0,0,-9.9626,49.324724,70.15899)" fill="#ec008c"/>
<use data-text=")" xlink:href="#font_5_2" transform="matrix(9.963098,0,0,-9.9626,55.018999,70.15899)" fill="#ec008c"/>
<path transform="matrix(1.00005,0,0,-1,8.280663,176.19499)" stroke-width=".3985" stroke-linecap="butt" stroke-dasharray="2.98883,2.98883" stroke-miterlimit="10" stroke-linejoin="miter" fill="none" stroke="#ec008c" d="M9.31804 0V161.39575"/>
<use data-text="x" xlink:href="#font_2_2" transform="matrix(9.963098,0,0,-9.9626,1.217308,185.526)" fill="#ec008c"/>
<use data-text="=" xlink:href="#font_5_4" transform="matrix(9.963098,0,0,-9.9626,9.679726,185.526)" fill="#ec008c"/>
<use data-text="&#x2212;" xlink:href="#font_1_1" transform="matrix(9.963098,0,0,-9.9626,20.19625,185.526)" fill="#ec008c"/>
<use data-text="&#x03c0;" xlink:href="#font_2_1" transform="matrix(9.963098,0,0,-9.9626,27.944642,185.526)" fill="#ec008c"/>
<path transform="matrix(1.00005,0,0,-1,8.280663,176.19499)" stroke-width=".3985" stroke-linecap="butt" stroke-dasharray="2.98883,2.98883" stroke-miterlimit="10" stroke-linejoin="miter" fill="none" stroke="#ff0000" d="M97.13849 0V161.39575"/>
<use data-text="x" xlink:href="#font_2_2" transform="matrix(9.963098,0,0,-9.9626,92.28486,7.843994)" fill="#ff0000"/>
<use data-text="=" xlink:href="#font_5_4" transform="matrix(9.963098,0,0,-9.9626,100.74728,7.843994)" fill="#ff0000"/>
<use data-text="&#x03c0;" xlink:href="#font_3_1" transform="matrix(6.9741489,0,0,-6.9738,112.45886,3.92099)" fill="#ff0000"/>
<path transform="matrix(1.00005,0,0,-1,-11.384323,-142.869)" stroke-width=".3985" stroke-linecap="butt" stroke-miterlimit="10" stroke-linejoin="miter" fill="none" stroke="#ff0000" d="M123.837-148.222H128.746"/>
<use data-text="2" xlink:href="#font_4_2" transform="matrix(6.9741489,0,0,-6.9738,112.92789,11.278992)" fill="#ff0000"/>
<path transform="matrix(1.00005,0,0,-1,8.280663,176.19499)" stroke-width=".3985" stroke-linecap="butt" stroke-dasharray="2.98883,2.98883" stroke-miterlimit="10" stroke-linejoin="miter" fill="none" stroke="#000000" d="M126.41216 0V161.39575"/>
<use data-text="x" xlink:href="#font_2_2" transform="matrix(9.963098,0,0,-9.9626,122.19135,184.004)"/>
<use data-text="=" xlink:href="#font_5_4" transform="matrix(9.963098,0,0,-9.9626,130.65378,184.004)"/>
<use data-text="&#x03c0;" xlink:href="#font_2_1" transform="matrix(9.963098,0,0,-9.9626,141.17029,184.004)"/>
<path transform="matrix(1.00005,0,0,-1,8.280663,176.19499)" stroke-width=".3985" stroke-linecap="butt" stroke-dasharray="2.98883,2.98883" stroke-miterlimit="10" stroke-linejoin="miter" fill="none" stroke="#0000ff" d="M184.95919 0V161.39575"/>
<use data-text="x" xlink:href="#font_2_2" transform="matrix(9.963098,0,0,-9.9626,178.25016,11.278992)" fill="#0000ff"/>
<use data-text="=" xlink:href="#font_5_4" transform="matrix(9.963098,0,0,-9.9626,186.71256,11.278992)" fill="#0000ff"/>
<use data-text="2" xlink:href="#font_5_3" transform="matrix(9.963098,0,0,-9.9626,197.21369,11.278992)" fill="#0000ff"/>
<use data-text="&#x03c0;" xlink:href="#font_2_1" transform="matrix(9.963098,0,0,-9.9626,202.21035,11.278992)" fill="#0000ff"/>
<use data-text="x" xlink:href="#font_2_2" transform="matrix(9.963098,0,0,-9.9626,193.3529,91.97699)"/>
<use data-text="y" xlink:href="#font_2_3" transform="matrix(9.963098,0,0,-9.9626,79.66923,22.608994)"/>
</svg>
