<svg xmlns="http://www.w3.org/2000/svg" xmlns:xlink="http://www.w3.org/1999/xlink" version="1.1" width="234" height="218" viewBox="0 0 234 218">
<defs>
<path id="font_1_62" d="M.69200137 0V.0289917H.6719971C.59999087 .0289917 .5970001 .038986207 .5970001 .07595825V.6066437C.5970001 .6436157 .59999087 .6536102 .6719971 .6536102H.69200137V.6826172C.66799929 .680603 .58599856 .680603 .5569916 .680603 .5269928 .680603 .44499208 .680603 .42099 .6826172V.6536102H.44099427C.5130005 .6536102 .5159912 .6436157 .5159912 .6066437V.369812H.21699524V.6066437C.21699524 .6436157 .21998596 .6536102 .2919922 .6536102H.31199647V.6826172C.28799439 .680603 .20599365 .680603 .1769867 .680603 .14698792 .680603 .06498718 .680603 .040985109 .6826172V.6536102H.06098938C.1329956 .6536102 .13598633 .6436157 .13598633 .6066437V.07595825C.13598633 .038986207 .1329956 .0289917 .06098938 .0289917H.040985109V0C.06498718 .0019989014 .14698792 .0019989014 .17599488 .0019989014 .20599365 .0019989014 .28799439 .0019989014 .31199647 0V.0289917H.2919922C.21998596 .0289917 .21699524 .038986207 .21699524 .07595825V.3408203H.5159912V.07595825C.5159912 .038986207 .5130005 .0289917 .44099427 .0289917H.42099V0C.44499208 .0019989014 .5269928 .0019989014 .55599978 .0019989014 .58599856 .0019989014 .66799929 .0019989014 .69200137 0Z"/>
<path id="font_1_65" d="M.31698609 0V.0289917H.29499818C.21998596 .0289917 .21699524 .038986207 .21699524 .07595825V.6066437C.21699524 .6436157 .21998596 .6536102 .29499818 .6536102H.31698609V.6826172C.29299928 .680603 .20698548 .680603 .1769867 .680603 .14698792 .680603 .05999756 .680603 .035995485 .6826172V.6536102H.057998659C.1329956 .6536102 .13598633 .6436157 .13598633 .6066437V.07595825C.13598633 .038986207 .1329956 .0289917 .057998659 .0289917H.035995485V0C.05999756 .0019989014 .1459961 .0019989014 .17599488 .0019989014 .20599365 .0019989014 .29299928 .0019989014 .31698609 0Z"/>
<path id="font_1_69" d="M.71899417 0V.0289917C.6649933 .0289917 .647995 .033996583 .6159973 .081954959L.3909912 .4187622C.4059906 .43473817 .44499208 .47172547 .46099855 .4867096 .598999 .6236267 .6269989 .6516113 .70599368 .6536102V.6826172C.6769867 .680603 .6649933 .680603 .6199951 .680603 .59399417 .680603 .5349884 .680603 .5119934 .6826172V.6536102C.5329895 .6526184 .5509949 .6436157 .5509949 .6216278 .5509949 .6066437 .5439911 .597641 .5219879 .57666018L.21699524 .2818451V.6046448C.21699524 .6536102 .22799683 .6536102 .31199647 .6536102V.6826172C.28799439 .680603 .20599365 .680603 .1769867 .680603 .14698792 .680603 .06498718 .680603 .040985109 .6826172V.6536102C.125 .6536102 .13598633 .6536102 .13598633 .6046448V.07795715C.13598633 .0289917 .125 .0289917 .040985109 .0289917V0C.06498718 .0019989014 .14698792 .0019989014 .17599488 .0019989014 .20599365 .0019989014 .28799439 .0019989014 .31199647 0V.0289917C.22799683 .0289917 .21699524 .0289917 .21699524 .07795715V.25186158L.33599855 .36679078 .5209961 .08995056C.5249939 .08395386 .5289917 .07696533 .5309906 .07196045 .5329895 .06796265 .5339966 .06297302 .5339966 .05697632 .5339966 .0289917 .49798585 .0289917 .48199464 .0289917V0C.5059967 .0019989014 .57899478 .0019989014 .60798647 .0019989014 .6339874 .0019989014 .6839905 .0019989014 .71899417 0Z"/>
<path id="font_1_76" d="M.69200137 .6536102V.6826172C.66600039 .680603 .61299136 .680603 .58499148 .680603 .5569916 .680603 .5039978 .680603 .47799684 .6826172V.6536102C.57299807 .6536102 .57299807 .6066437 .57299807 .577652V.14093018L.22599793 .6686096C.21699524 .6816101 .21598816 .6826172 .19400025 .6826172H.040985109V.6536102C.083999637 .6536102 .10899353 .6536102 .13598633 .6466217V.10494995C.13598633 .07595825 .13598633 .0289917 .040985109 .0289917V0C.066986087 .0019989014 .11999512 .0019989014 .147995 .0019989014 .17599488 .0019989014 .22898865 .0019989014 .25498963 0V.0289917C.1599884 .0289917 .1599884 .07595825 .1599884 .10494995V.6306305C.16799927 .6226349 .16799927 .620636 .1769867 .6086426L.5669861 .01499939C.57699587 .0009918213 .5779877 0 .58499148 0 .59399417 0 .59599307 .0039978029 .5970001 .005996704V.577652C.5970001 .6066437 .5970001 .6536102 .69200137 .6536102Z"/>
<path id="font_1_27" d="M.70199587 0V.0289917C.6369934 .0289917 .61898806 .0289917 .6049957 .06993103L.3869934 .6958618C.3829956 .7078552 .3809967 .7138672 .36698915 .7138672 .35299684 .7138672 .35099793 .7108612 .34599305 .69485476L.13699341 .09689331C.12298584 .05595398 .09498596 .02998352 .0309906 .0289917V0L.1269989 .0019989014C.15499878 .0019989014 .20298767 .0019989014 .22898865 0V.0289917C.18699646 .02998352 .1619873 .050964357 .1619873 .07891846 .1619873 .08491516 .1619873 .08691406 .16699219 .09989929L.21299744 .23271179H.46499635L.519989 .075927738C.5249939 .063949588 .5249939 .061950685 .5249939 .058944704 .5249939 .0289917 .47399903 .0289917 .44898988 .0289917V0C.47200013 .0019989014 .5509949 .0019989014 .57899478 .0019989014 .6069946 .0019989014 .67900088 .0019989014 .70199587 0M.45498658 .26171876H.22299195L.33898927 .5948181 .45498658 .26171876Z"/>
<path id="font_1_501" d="M.18399048 .4513092C.18399048 .47831727 .16499329 .50032046 .1349945 .50032046 .10798645 .50032046 .09498596 .48031617 .09498596 .48031617 .09399414 .48731996 .09298706 .49230958 .09298706 .50531008 .09298706 .5193176 .09298706 .60032656 .1619873 .66934207 .17098999 .6783447 .17098999 .6803436 .17098999 .6833496 .17098999 .6883545 .1659851 .6933594 .16099549 .6933594 .1519928 .6933594 .07299805 .619339 .07299805 .50531008 .07299805 .4433136 .09599304 .4033203 .13598633 .4033203 .16499329 .4033203 .18399048 .42530824 .18399048 .4513092Z"/>
<path id="font_1_172" d="M.70199587 0V.0289917C.6369934 .0289917 .61898806 .0289917 .6049957 .06993103L.3869934 .6958618C.3829956 .7078552 .3809967 .7138672 .36698915 .7138672 .35299684 .7138672 .35099793 .7108612 .34599305 .69485476L.13699341 .09689331C.12298584 .05595398 .09498596 .02998352 .0309906 .0289917V0L.1269989 .0019989014C.15499878 .0019989014 .20298767 .0019989014 .22898865 0V.0289917C.18699646 .02998352 .1619873 .050964357 .1619873 .07891846 .1619873 .08491516 .1619873 .08691406 .16699219 .09989929L.21299744 .23271179H.46499635L.519989 .075927738C.5249939 .063949588 .5249939 .061950685 .5249939 .058944704 .5249939 .0289917 .47399903 .0289917 .44898988 .0289917V0C.47200013 .0019989014 .5509949 .0019989014 .57899478 .0019989014 .6069946 .0019989014 .67900088 .0019989014 .70199587 0M.45498658 .26171876H.22299195L.33898927 .5948181 .45498658 .26171876M.54299929 .75390627V.78289797H.18998719V.75390627H.54299929Z"/>
<path id="font_1_108" d="M.69200137 .6536102V.6826172C.66600039 .680603 .6119995 .680603 .58399966 .680603 .5549927 .680603 .5009918 .680603 .47499085 .6826172V.6536102C.56999209 .6536102 .56999209 .6065979 .56999209 .57958987V.22953797C.56999209 .089523319 .47499085 .007507324 .3809967 .007507324 .32099916 .007507324 .21699524 .04751587 .21699524 .22253418V.6065979C.21699524 .64360049 .21998596 .6536102 .2919922 .6536102H.31199647V.6826172C.28799439 .680603 .20599365 .680603 .1769867 .680603 .14698792 .680603 .06498718 .680603 .040985109 .6826172V.6536102H.06098938C.1329956 .6536102 .13598633 .64360049 .13598633 .6065979V.22854615C.13598633 .08352661 .2519989-.021484375 .3789978-.021484375 .5179901-.021484375 .5970001 .11451721 .5970001 .21453858V.59259036C.5970001 .6536102 .673996 .6536102 .69200137 .6536102Z"/>
<path id="font_2_4" d="M.44898988 .20022583C.44898988 .3193512 .36698915 .41944886 .25898744 .41944886 .21099854 .41944886 .16799927 .40345765 .13198853 .36842347V.5637665C.1519928 .5577698 .18499756 .55078127 .21699524 .55078127 .33999635 .55078127 .4099884 .6417694 .4099884 .6547699 .4099884 .6607666 .40699769 .6657715 .3999939 .6657715 .39898683 .6657715 .39698792 .6657715 .3919983 .66278079 .37199403 .6537781 .32299806 .6337738 .2559967 .6337738 .21598816 .6337738 .16999817 .6407776 .12298584 .6617737 .114990238 .66477969 .11299133 .66477969 .11099243 .66477969 .100997928 .66477969 .100997928 .6567688 .100997928 .6407776V.34439088C.100997928 .32637025 .100997928 .31835938 .114990238 .31835938 .12199402 .31835938 .12399292 .32136537 .12799073 .32736207 .13899231 .3433838 .17599488 .39746095 .25698854 .39746095 .30899049 .39746095 .33399964 .35139466 .34199525 .33337403 .35798646 .29632569 .3600006 .25727845 .3600006 .20722962 .3600006 .17222595 .3600006 .11222839 .33599855 .07035828 .31199647 .031463624 .2749939 .0055389406 .22898865 .0055389406 .1559906 .0055389406 .09899902 .058380128 .08198547 .11723328 .084991458 .1162262 .08799744 .115234378 .09899902 .115234378 .13198853 .115234378 .14898682 .14022827 .14898682 .16423035 .14898682 .18823242 .13198853 .21322632 .09899902 .21322632 .084991458 .21322632 .049987794 .20622254 .049987794 .16023255 .049987794 .07434082 .11898804-.022460938 .23098755-.022460938 .34700013-.022460938 .44898988 .073349 .44898988 .20022583Z"/>
<path id="font_3_1" d="M.19198609 .052993776C.19198609 .08198547 .16799927 .10598755 .13899231 .10598755 .10998535 .10598755 .085998538 .08198547 .085998538 .052993776 .085998538 .023986817 .10998535 0 .13899231 0 .16799927 0 .19198609 .023986817 .19198609 .052993776Z"/>
<path id="font_2_5" d="M.13198853 .327713V.35173036C.13198853 .6047821 .2559967 .64100649 .30699159 .64100649 .33099366 .64100649 .37298585 .634964 .394989 .6007538 .37998963 .6007538 .33999635 .6007538 .33999635 .5557556 .33999635 .524765 .3639984 .5097656 .38598634 .5097656 .4019928 .5097656 .43199159 .51875308 .43199159 .5577545 .43199159 .6178589 .3880005 .6660156 .30499269 .6660156 .1769867 .6660156 .041992189 .5367584 .041992189 .31570436 .041992189 .048553468 .1579895-.022460938 .25099183-.022460938 .3619995-.022460938 .45700074 .07156372 .45700074 .2036438 .45700074 .33070375 .36799623 .4267578 .25698854 .4267578 .18899536 .4267578 .1519928 .37573243 .13198853 .327713M.25099183 .0055389406C.18798828 .0055389406 .1579895 .06556702 .1519928 .080566409 .13398743 .127594 .13398743 .2076416 .13398743 .22564698 .13398743 .30369569 .1659851 .40374757 .2559967 .40374757 .27198792 .40374757 .31799317 .40374757 .34899903 .34172059 .36698915 .30470277 .36698915 .2536621 .36698915 .20463562 .36698915 .15661621 .36698915 .10658264 .34999085 .0705719 .31999208 .010528564 .27398683 .0055389406 .25099183 .0055389406Z"/>
<path id="font_2_2" d="M.1269989 .07699585 .23298645 .18003845C.3889923 .31811524 .44898988 .3721466 .44898988 .47216798 .44898988 .5860901 .35899354 .6660156 .23699951 .6660156 .12399292 .6660156 .049987794 .57411196 .049987794 .48516847 .049987794 .4291687 .099990848 .4291687 .102996829 .4291687 .11999512 .4291687 .15499878 .44117738 .15499878 .48217774 .15499878 .5081787 .13699341 .5341797 .101989749 .5341797 .09399414 .5341797 .09199524 .5341797 .08898926 .5331726 .11199951 .59806826 .1659851 .63500979 .22399903 .63500979 .31498719 .63500979 .35798646 .5541382 .35798646 .47216798 .35798646 .39215089 .30799867 .31311036 .25299073 .25108338L.06098938 .036987306C.049987794 .025985718 .049987794 .023986817 .049987794 0H.42099L.44898988 .17404175H.42399598C.4189911 .14402771 .4119873 .1000061 .4019928 .084991458 .394989 .07699585 .32899476 .07699585 .30699159 .07699585H.1269989Z"/>
<path id="font_4_1" d="M.5069885 .24998474C.5069885 .3710022 .4099884 .4650116 .2919922 .4650116 .17199707 .4650116 .07699585 .36799623 .07699585 .25097657 .07699585 .1299591 .17399597 .035949708 .2919922 .035949708 .4119873 .035949708 .5069885 .13296509 .5069885 .24998474M.2919922 .08496094C.19799805 .08496094 .12599182 .16096497 .12599182 .24998474 .12599182 .34300233 .19999695 .41601563 .2919922 .41601563 .38598634 .41601563 .45799256 .33999635 .45799256 .25097657 .45799256 .15795899 .38398744 .08496094 .2919922 .08496094Z"/>
<path id="font_2_1" d="M.2939911 .64004519C.2939911 .66400149 .2939911 .6660156 .2709961 .6660156 .20899964 .60227969 .12098694 .60227969 .08898926 .60227969V.57128909C.10899353 .57128909 .16799927 .57128909 .21998596 .5972748V.07902527C.21998596 .042999269 .21699524 .0309906 .1269989 .0309906H.09498596V0C.12998963 .0029907227 .21699524 .0029907227 .25698854 .0029907227 .29699708 .0029907227 .38398744 .0029907227 .4189911 0V.0309906H.3869934C.29699708 .0309906 .2939911 .041992189 .2939911 .07902527V.64004519Z"/>
<path id="font_2_7" d="M.16299439 .4569702C.116989139 .486969 .11299133 .52098086 .11299133 .5379791 .11299133 .598999 .17799378 .64100649 .24899292 .64100649 .32199098 .64100649 .38598634 .58898928 .38598634 .51698306 .38598634 .45996095 .34700013 .4119568 .2869873 .37695313L.16299439 .4569702M.30899049 .36193849C.3809967 .3989563 .42999269 .45095826 .42999269 .51698306 .42999269 .6090088 .34098817 .6660156 .25 .6660156 .1499939 .6660156 .068984989 .59199526 .068984989 .49897767 .068984989 .4809723 .070999149 .43595887 .11299133 .38894654 .12399292 .37695313 .16099549 .35194398 .18598938 .33494569 .12799073 .30592347 .041992189 .24984741 .041992189 .15072632 .041992189 .04458618 .14399719-.022460938 .24899292-.022460938 .3619995-.022460938 .45700074 .06060791 .45700074 .16773987 .45700074 .20379639 .44599916 .24885559 .4079895 .2909088 .3889923 .31193543 .37298585 .3219452 .30899049 .36193849M.20899964 .3199463 .33198548 .24183655C.3600006 .2228241 .40699769 .19277954 .40699769 .13169861 .40699769 .05760193 .33198548 .0055389406 .25 .0055389406 .1639862 .0055389406 .09199524 .067611698 .09199524 .15072632 .09199524 .20880127 .12399292 .27288819 .20899964 .3199463Z"/>
<path id="font_2_6" d="M.47599793 .609375C.4850006 .6213684 .4850006 .62338259 .4850006 .64437869H.24198914C.11999512 .64437869 .117996219 .65737918 .11399841 .67637637H.08898926L.055999757 .4702301H.08099365C.083999637 .48625184 .09298706 .5493469 .10598755 .56137087 .11299133 .5673828 .19099427 .5673828 .20399475 .5673828H.41099549C.3999939 .5513611 .32099916 .4421997 .29899598 .40914918 .20899964 .27394105 .17599488 .1347351 .17599488 .032577516 .17599488 .022567749 .17599488-.022460938 .22200012-.022460938 .2679901-.022460938 .2679901 .022567749 .2679901 .032577516V.08366394C.2679901 .13873291 .2709961 .19381714 .2789917 .24790955 .2829895 .27093507 .29699708 .35707093 .34098817 .41915895L.47599793 .609375Z"/>
<path id="font_2_3" d="M.2899933 .35191346C.37199403 .37893678 .42999269 .4490509 .42999269 .52809146 .42999269 .6100464 .34199525 .6660156 .24598694 .6660156 .14498902 .6660156 .068984989 .60606387 .068984989 .53009036 .068984989 .49710084 .09098816 .47808839 .11999512 .47808839 .15098572 .47808839 .17098999 .50009158 .17098999 .5290985 .17098999 .57910159 .12399292 .57910159 .10899353 .57910159 .13999939 .62802127 .20599365 .64100649 .24198914 .64100649 .2829895 .64100649 .33799745 .6190338 .33799745 .5290985 .33799745 .51708987 .33599855 .45906068 .30999757 .4149933 .27999879 .36691285 .24598694 .36390687 .22099304 .36291505 .21299744 .36190797 .18899536 .35990907 .18199158 .35990907 .17399597 .35890199 .16699219 .35791017 .16699219 .3479004 .16699219 .33691407 .17399597 .33691407 .19099427 .33691407H.23498535C.31698609 .33691407 .35398866 .2686615 .35398866 .17037964 .35398866 .034469606 .2849884 .0055389406 .24099732 .0055389406 .19799805 .0055389406 .12298584 .022491456 .08799744 .08137512 .12298584 .07637024 .1539917 .09837341 .1539917 .1363678 .1539917 .17237854 .1269989 .19238281 .09799194 .19238281 .07398987 .19238281 .041992189 .17837525 .041992189 .1343689 .041992189 .043441774 .1349945-.022460938 .24398804-.022460938 .3659973-.022460938 .45700074 .06838989 .45700074 .17037964 .45700074 .252594 .3939972 .33088685 .2899933 .35191346Z"/>
<path id="font_2_8" d="M.36698915 .31781007V.28579713C.36698915 .05178833 .2630005 .0055389406 .20498657 .0055389406 .18798828 .0055389406 .13398743 .007537842 .10699463 .041778566 .15098572 .041778566 .15899658 .07078552 .15899658 .08778381 .15899658 .118774417 .1349945 .13378906 .11299133 .13378906 .09700012 .13378906 .066986087 .12478638 .066986087 .08578491 .066986087 .018615723 .12098694-.022460938 .20599365-.022460938 .33499146-.022460938 .45700074 .11378479 .45700074 .32881166 .45700074 .5979767 .34199525 .6660156 .25299073 .6660156 .19799805 .6660156 .14898682 .64801028 .10598755 .60298159 .06498718 .5579529 .041992189 .5159302 .041992189 .44088746 .041992189 .31581117 .12998963 .21777344 .24198914 .21777344 .30299378 .21777344 .34399415 .25978089 .36698915 .31781007M.24299622 .24076844C.22698975 .24076844 .18099976 .24076844 .1499939 .3038025 .13198853 .3408203 .13198853 .39085389 .13198853 .43988038 .13198853 .49391175 .13198853 .54093936 .15299988 .5779724 .17999268 .6279907 .21798706 .64100649 .25299073 .64100649 .29899598 .64100649 .33198548 .60697939 .34899903 .5619507 .36099244 .52993777 .36499024 .4669037 .36499024 .42086793 .36499024 .3378296 .33099366 .24076844 .24299622 .24076844Z"/>
<path id="font_5_71" d="M.58200076 .2578125H.5569916C.54599 .15588379 .5319977 .0309906 .35598756 .0309906H.27398683C.22698975 .03060913 .22499085 .037612916 .22499085 .07060242V.6036072C.22499085 .63760378 .22499085 .6516113 .31999208 .6516113H.35299684V.6826172C.31698609 .6796112 .22599793 .6796112 .18499756 .6796112 .1459961 .6796112 .067993167 .6796112 .032989503 .6826172V.6516113H.056991579C.13398743 .6518097 .13598633 .6408081 .13598633 .6048126V.07795715C.13598633 .04197693 .13398743 .0309906 .056991579 .0309906H.032989503V0H.55400088L.58200076 .2578125Z"/>
<path id="font_5_173" d="M.48298646 .08912659V.14511109H.45799256V.08912659C.45799256 .03112793 .43299867 .025131226 .42199708 .025131226 .3889923 .025131226 .3849945 .070129398 .3849945 .07511902V.27508546C.3849945 .31707765 .3849945 .3560791 .34899903 .39312745 .30999757 .43223573 .2599945 .4482422 .21199036 .4482422 .12998963 .4482422 .06098938 .40115357 .06098938 .335083 .06098938 .30508424 .08099365 .28808595 .10699463 .28808595 .1349945 .28808595 .15299988 .30807496 .15299988 .33407594 .15299988 .3460846 .147995 .37908937 .101989749 .38008119 .1289978 .41519166 .17799378 .426239 .20999146 .426239 .25898744 .426239 .31599427 .38710023 .31599427 .29808045V.26107789C.2649994 .25808717 .19499207 .25508119 .13198853 .22509766 .056991579 .19110108 .03199768 .13911438 .03199768 .09512329 .03199768 .014251709 .1289978-.0107421879 .19198609-.0107421879 .2579956-.0107421879 .3039856 .029251099 .32299806 .07624817 .32699586 .036132814 .35398866-.005859375 .40098573-.005859375 .42199708-.005859375 .48298646 .008132935 .48298646 .08912659M.31599427 .14013672C.31599427 .04525757 .24398804 .011245728 .19898987 .011245728 .1499939 .011245728 .10899353 .04624939 .10899353 .09625244 .10899353 .15124512 .15098572 .23425293 .31599427 .24024964V.14013672M.43099977 .5891113V.6201172H.069992069V.5891113H.43099977Z"/>
<path id="font_5_501" d="M.19198609 .44699098C.19198609 .47299195 .1749878 .5 .13899231 .5 .11898804 .5 .10499573 .48999024 .09899902 .48399354 .09799194 .48199464 .09599304 .48098756 .09599304 .48098756 .09599304 .48098756 .09399414 .49499513 .09399414 .49899293 .09399414 .53105166 .100997928 .60317996 .1639862 .66529849 .17599488 .6773224 .17599488 .6793213 .17599488 .6823273 .17599488 .6893463 .17098999 .6933594 .1659851 .6933594 .15499878 .6933594 .07199097 .617218 .07199097 .49899293 .07199097 .43899537 .09599304 .3939972 .13899231 .3939972 .17399597 .3939972 .19198609 .42099 .19198609 .44699098Z"/>
<path id="font_5_172" d="M.71699526 0V.0309906H.69898989C.6389923 .0309906 .625 .037979127 .6139984 .07095337L.397995 .6958008C.3929901 .7088165 .3909912 .7158203 .375 .7158203 .35899354 .7158203 .35598756 .70980837 .35099793 .6958008L.14399719 .09791565C.12599182 .04698181 .085998538 .03199768 .03199768 .0309906V0L.13398743 .0029907227 .24899292 0V.0309906C.19898987 .0309906 .17399597 .05596924 .17399597 .0819397 .17399597 .08493042 .1749878 .09492493 .17599488 .09692383L.22200012 .2277832H.46899415L.5219879 .07495117C.522995 .07095337 .5249939 .064956668 .5249939 .060958864 .5249939 .0309906 .46899415 .0309906 .44198609 .0309906V0C.47799684 .0029907227 .5479889 .0029907227 .58599856 .0029907227L.71699526 0M.45799256 .25878907H.23298645L.34498597 .58380129 .45799256 .25878907M.55599978 .7561035V.7871094H.19499207V.7561035H.55599978Z"/>
<path id="font_5_66" d="M.24699402 0V.0309906C.18099976 .0309906 .1769867 .035995485 .1769867 .075042728V.4423828L.036987306 .43066407V.3996582C.101989749 .3996582 .11099243 .3936615 .11099243 .3447113V.07595825C.11099243 .0309906 .099990848 .0309906 .032989503 .0309906V0L.14299011 .0029907227C.17799378 .0029907227 .21299744 .0009918213 .24699402 0M.19198609 .603775C.19198609 .6307678 .16899109 .6567688 .13899231 .6567688 .10499573 .6567688 .084991458 .6287689 .084991458 .603775 .084991458 .57676699 .10798645 .55078127 .13798523 .55078127 .17199707 .55078127 .19198609 .5787811 .19198609 .603775Z"/>
<path id="font_5_77" d="M.5349884 0V.0309906C.48298646 .0309906 .45799256 .0309906 .45700074 .061019899V.25221253C.45700074 .3383026 .45700074 .36932374 .42599488 .405365 .4119873 .42237855 .3789978 .4423828 .32099916 .4423828 .24798584 .4423828 .20098877 .39935304 .17298889 .33729554V.4423828L.03199768 .43066407V.3996582C.101989749 .3996582 .10998535 .39266969 .10998535 .34370423V.07595825C.10998535 .0309906 .09899902 .0309906 .03199768 .0309906V0L.14498902 .0029907227 .25698854 0V.0309906C.18998719 .0309906 .1789856 .0309906 .1789856 .07595825V.25978089C.1789856 .36431886 .25 .42037965 .31399537 .42037965 .3769989 .42037965 .3880005 .36631776 .3880005 .30926515V.076034549C.3880005 .0309906 .3769989 .0309906 .30999757 .0309906V0L.4229889 .0029907227 .5349884 0Z"/>
<path id="font_5_28" d="M.48298646 .08912659V.14511109H.45799256V.08912659C.45799256 .03112793 .43299867 .025131226 .42199708 .025131226 .3889923 .025131226 .3849945 .070129398 .3849945 .07511902V.27508546C.3849945 .31707765 .3849945 .3560791 .34899903 .39312745 .30999757 .43223573 .2599945 .4482422 .21199036 .4482422 .12998963 .4482422 .06098938 .40115357 .06098938 .335083 .06098938 .30508424 .08099365 .28808595 .10699463 .28808595 .1349945 .28808595 .15299988 .30807496 .15299988 .33407594 .15299988 .3460846 .147995 .37908937 .101989749 .38008119 .1289978 .41519166 .17799378 .426239 .20999146 .426239 .25898744 .426239 .31599427 .38710023 .31599427 .29808045V.26107789C.2649994 .25808717 .19499207 .25508119 .13198853 .22509766 .056991579 .19110108 .03199768 .13911438 .03199768 .09512329 .03199768 .014251709 .1289978-.0107421879 .19198609-.0107421879 .2579956-.0107421879 .3039856 .029251099 .32299806 .07624817 .32699586 .036132814 .35398866-.005859375 .40098573-.005859375 .42199708-.005859375 .48298646 .008132935 .48298646 .08912659M.31599427 .14013672C.31599427 .04525757 .24398804 .011245728 .19898987 .011245728 .1499939 .011245728 .10899353 .04624939 .10899353 .09625244 .10899353 .15124512 .15098572 .23425293 .31599427 .24024964V.14013672Z"/>
<path id="font_5_76" d="M.71598818 .6516113V.6826172L.598999 .6796112 .48199464 .6826172V.6516113C.58499148 .6516113 .58499148 .6046295 .58499148 .577652V.15092469L.23199463 .6696167C.22299195 .6816101 .22200012 .6826172 .20298767 .6826172H.032989503V.6516113H.06199646C.07699585 .6516113 .09700012 .65060427 .11199951 .6496124 .1349945 .64660647 .13598633 .6456146 .13598633 .62661746V.10494995C.13598633 .07795715 .13598633 .0309906 .032989503 .0309906V0L.1499939 .0029907227 .2669983 0V.0309906C.1639862 .0309906 .1639862 .07795715 .1639862 .10494995V.62461856C.16899109 .6196289 .16999817 .6186218 .17399597 .6126251L.58200076 .0129852299C.59098818 .0009918213 .59199526 0 .598999 0 .61299136 0 .61299136 .0069885256 .61299136 .025985718V.577652C.61299136 .6046295 .61299136 .6516113 .71598818 .6516113Z"/>
<path id="font_5_81" d="M.47099305 .21424866C.47099305 .34223939 .37098695 .4482422 .25 .4482422 .125 .4482422 .027999878 .3392334 .027999878 .21424866 .027999878 .085250858 .13198853-.0107421879 .24899292-.0107421879 .36999513-.0107421879 .47099305 .087249759 .47099305 .21424866M.3880005 .22224427C.3880005 .18624878 .3880005 .13224793 .3659973 .08824158 .34399415 .04324341 .2999878 .014251709 .25 .014251709 .20698548 .014251709 .16299439 .035247804 .13598633 .08125305 .11099243 .12524414 .11099243 .18624878 .11099243 .22224427 .11099243 .26124574 .11099243 .31523133 .1349945 .35923768 .1619873 .40522767 .20899964 .426239 .24899292 .426239 .29299928 .426239 .33599855 .40423585 .3619995 .36123658 .3880005 .3182373 .3880005 .26023866 .3880005 .22224427Z"/>
<path id="font_5_74" d="M.8789978 0V.0309906H.8549957C.7779999 .0309906 .776001 .041992189 .776001 .07795715V.6046295C.776001 .64060977 .7779999 .6516113 .8549957 .6516113H.8789978V.6826172H.70999148C.6839905 .6826172 .6839905 .6816101 .6769867 .66360476L.45799256 .10095215 .24099732 .660614C.23199463 .6826172 .22898865 .6826172 .20599365 .6826172H.036987306V.6516113H.06098938C.13798523 .6516113 .13999939 .64060977 .13999939 .6046295V.10494995C.13999939 .07795715 .13999939 .0309906 .036987306 .0309906V0L.1539917 .0029907227 .2709961 0V.0309906C.16799927 .0309906 .16799927 .07795715 .16799927 .10494995V.6436157H.16899109L.4099884 .021987915C.4149933 .008987427 .41999818 0 .42999269 0 .44099427 0 .44400025 .0079956059 .44799806 .018997193L.69400027 .6516113H.69499209V.07795715C.69499209 .041992189 .69299319 .0309906 .6159973 .0309906H.59199526V0C.6289978 .0029907227 .69699099 .0029907227 .73599246 .0029907227 .7749939 .0029907227 .84199526 .0029907227 .8789978 0Z"/>
<path id="font_5_109" d="M.5349884 0V.0309906C.46499635 .0309906 .45700074 .037994386 .45700074 .08705139V.4423828L.30999757 .43066407V.3996582C.37998963 .3996582 .3880005 .39266969 .3880005 .34373475V.16601563C.3880005 .07910156 .33999635 .011245728 .2669983 .011245728 .18299866 .011245728 .1789856 .058135988 .1789856 .11009216V.4423828L.03199768 .43066407V.3996582C.10998535 .3996582 .10998535 .39666749 .10998535 .3078003V.15802002C.10998535 .080093387 .10998535-.0107421879 .2619934-.0107421879 .31799317-.0107421879 .3619995 .017242432 .3909912 .07910156V-.0107421879L.5349884 0Z"/>
<path id="font_5_72" d="M.25498963 0V.0309906C.18798828 .0309906 .1769867 .0309906 .1769867 .07601929V.69433596L.032989503 .6826172V.6516113C.102996829 .6516113 .11099243 .64460757 .11099243 .5956421V.07595825C.11099243 .0309906 .099990848 .0309906 .032989503 .0309906V0L.14399719 .0029907227 .25498963 0Z"/>
<path id="font_5_50" d="M.4149933 .11933899C.4149933 .12934876 .40699769 .13134766 .4019928 .13134766 .3929901 .13134766 .3909912 .12535095 .3889923 .11734009 .35398866 .014251709 .2639923 .014251709 .2539978 .014251709 .20399475 .014251709 .1639862 .044281007 .14099121 .08131409 .11099243 .12934876 .11099243 .19540406 .11099243 .23144531H.3899994C.4119873 .23144531 .4149933 .23144531 .4149933 .2524414 .4149933 .35131837 .36099244 .4482422 .23599243 .4482422 .11999512 .4482422 .027999878 .34532167 .027999878 .22042847 .027999878 .08631897 .1329956-.0107421879 .24798584-.0107421879 .36999513-.0107421879 .4149933 .10032654 .4149933 .11933899M.34899903 .2524414H.11199951C.117996219 .40126039 .20199585 .426239 .23599243 .426239 .33898927 .426239 .34899903 .2913971 .34899903 .2524414Z"/>
<path id="font_5_62" d="M.71598818 0V.0309906H.69200137C.61499026 .0309906 .61299136 .041992189 .61299136 .07797241V.6046448C.61299136 .640625 .61499026 .6516113 .69200137 .6516113H.71598818V.6826172C.68099978 .6796112 .6069946 .6796112 .56900027 .6796112 .5309906 .6796112 .45599366 .6796112 .42099 .6826172V.6516113H.44499208C.5219879 .6516113 .5239868 .640625 .5239868 .6046448V.37083436H.22499085V.6046448C.22499085 .640625 .22698975 .6516113 .3039856 .6516113H.32798768V.6826172C.29299928 .6796112 .21899414 .6796112 .18099976 .6796112 .14299011 .6796112 .067993167 .6796112 .032989503 .6826172V.6516113H.056991579C.13398743 .6516113 .13598633 .640625 .13598633 .6046448V.07797241C.13598633 .041992189 .13398743 .0309906 .056991579 .0309906H.032989503V0C.067993167 .0029907227 .14199829 .0029907227 .17999268 .0029907227 .21798706 .0029907227 .29299928 .0029907227 .32798768 0V.0309906H.3039856C.22698975 .0309906 .22499085 .041992189 .22499085 .07797241V.33984376H.5239868V.07797241C.5239868 .041992189 .5219879 .0309906 .44499208 .0309906H.42099V0C.45599366 .0029907227 .5299988 .0029907227 .56799319 .0029907227 .60598757 .0029907227 .68099978 .0029907227 .71598818 0Z"/>
<path id="font_5_70" d="M.5109863 0V.0309906C.47399903 .0309906 .45199586 .0309906 .4139862 .0839386L.2869873 .26278688C.28599549 .26478578 .2809906 .2707672 .2809906 .2737732 .2809906 .277771 .35198976 .33770753 .3619995 .34570313 .4249878 .39666749 .46699525 .39865113 .48799134 .3996582V.43066407C.45899964 .42765809 .44599916 .42765809 .41799928 .42765809 .38198854 .42765809 .31999208 .42965699 .30599977 .43066407V.3996582C.32499696 .39865113 .33499146 .3876648 .33499146 .37467958 .33499146 .3547058 .32099916 .3427124 .31298829 .33570863L.17199707 .21382141V.69433596L.027999878 .6826172V.6516113C.09799194 .6516113 .10598755 .64460757 .10598755 .5956421V.07595825C.10598755 .0309906 .09498596 .0309906 .027999878 .0309906V0L.13699341 .0029907227 .24699402 0V.0309906C.17999268 .0309906 .16899109 .0309906 .16899109 .07595825V.17889405L.23298645 .23387146C.30999757 .12792969 .35198976 .07196045 .35198976 .053985597 .35198976 .034988405 .33499146 .0309906 .31599427 .0309906V0L.42399598 .0029907227C.45298768 .0029907227 .48199464 .0019989014 .5109863 0Z"/>
</defs>
<path transform="matrix(1.00003,0,0,-1,6.023735,212.273)" stroke-width=".3985" stroke-linecap="butt" stroke-dasharray="2.98883,2.98883" stroke-miterlimit="10" stroke-linejoin="miter" fill="none" stroke="#000000" d="M0 0H139.67812"/>
<path transform="matrix(1.00003,0,0,-1,6.023735,212.273)" stroke-width=".3985" stroke-linecap="butt" stroke-dasharray="2.98883,2.98883" stroke-miterlimit="10" stroke-linejoin="miter" fill="none" stroke="#000000" d="M185.60097 0H208.48377"/>
<path transform="matrix(1.00003,0,0,-1,214.51377,212.273)" d="M1.99252 0-1.19551 1.59401 0 0-1.19551-1.59401"/>
<path transform="matrix(1.00003,0,0,-1,6.023735,212.273)" stroke-width=".3985" stroke-linecap="butt" stroke-dasharray="2.98883,2.98883" stroke-miterlimit="10" stroke-linejoin="miter" fill="none" stroke="#000000" d="M0 0V145.41809"/>
<path transform="matrix(1.00003,0,0,-1,6.023735,212.273)" stroke-width=".3985" stroke-linecap="butt" stroke-dasharray="2.98883,2.98883" stroke-miterlimit="10" stroke-linejoin="miter" fill="none" stroke="#000000" d="M0 187.51337V208.48377"/>
<path transform="matrix(0,-1,-1.00003,-0,6.023735,3.7892304)" d="M1.99252 0-1.19551 1.59401 0 0-1.19551-1.59401"/>
<path transform="matrix(1.00003,0,0,-1,6.023735,212.273)" stroke-width=".79701" stroke-linecap="butt" stroke-miterlimit="10" stroke-linejoin="miter" fill="none" stroke="#000000" d="M191.34096 0C191.34096 105.67604 105.67604 191.34096 0 191.34096"/>
<path transform="matrix(1.00003,0,0,-1,6.023735,212.273)" stroke-width=".3985" stroke-linecap="butt" stroke-miterlimit="10" stroke-linejoin="miter" fill="none" stroke="#000000" d="M187.51326 0"/>
<use data-text="H" xlink:href="#font_1_62" transform="matrix(11.95556,0,0,-11.9552,146.15695,216.541)"/>
<use data-text="I" xlink:href="#font_1_65" transform="matrix(11.95556,0,0,-11.9552,154.93233,216.541)"/>
<use data-text="K" xlink:href="#font_1_69" transform="matrix(11.95556,0,0,-11.9552,159.15265,216.541)"/>
<use data-text="I" xlink:href="#font_1_65" transform="matrix(11.95556,0,0,-11.9552,168.25083,216.541)"/>
<use data-text="N" xlink:href="#font_1_76" transform="matrix(11.95556,0,0,-11.9552,172.47113,216.541)"/>
<use data-text="A" xlink:href="#font_1_27" transform="matrix(11.95556,0,0,-11.9552,181.24652,216.541)"/>
<path transform="matrix(1.00003,0,0,-1,6.023735,212.273)" stroke-width=".3985" stroke-linecap="butt" stroke-miterlimit="10" stroke-linejoin="miter" fill="none" stroke="#000000" d="M0 187.51326"/>
<use data-text="&#x2018;" xlink:href="#font_1_501" transform="matrix(0,-11.9552,-11.95556,-0,10.578873,66.631999)"/>
<use data-text="&#x0100;" xlink:href="#font_1_172" transform="matrix(0,-11.9552,-11.95556,-0,10.578873,63.38018)"/>
<use data-text="K" xlink:href="#font_1_69" transform="matrix(0,-11.9552,-11.95556,-0,10.578873,54.605066)"/>
<use data-text="A" xlink:href="#font_1_27" transform="matrix(0,-11.9552,-11.95556,-0,10.578873,45.507158)"/>
<use data-text="U" xlink:href="#font_1_108" transform="matrix(0,-11.9552,-11.95556,-0,10.578873,37.042879)"/>
<path transform="matrix(1.00003,0,0,-1,6.023735,212.273)" stroke-width=".3985" stroke-linecap="butt" stroke-miterlimit="10" stroke-linejoin="miter" fill="none" stroke="#929292" d="M0 0 190.40953 18.75269"/>
<path transform="matrix(1.00003,0,0,-1,6.023735,212.273)" stroke-width=".3985" stroke-linecap="butt" stroke-miterlimit="10" stroke-linejoin="miter" fill="none" stroke="#929292" d="M0 0 183.09587 55.54008"/>
<path transform="matrix(1.00003,0,0,-1,6.023735,212.273)" stroke-width=".3985" stroke-linecap="butt" stroke-miterlimit="10" stroke-linejoin="miter" fill="none" stroke="#929292" d="M0 0 168.74005 90.19322"/>
<path transform="matrix(1.00003,0,0,-1,6.023735,212.273)" stroke-width=".3985" stroke-linecap="butt" stroke-miterlimit="10" stroke-linejoin="miter" fill="none" stroke="#929292" d="M0 0 147.89969 121.37773"/>
<path transform="matrix(1.00003,0,0,-1,6.023735,212.273)" stroke-width=".3985" stroke-linecap="butt" stroke-miterlimit="10" stroke-linejoin="miter" fill="none" stroke="#929292" d="M0 0 121.37773 147.89969"/>
<path transform="matrix(1.00003,0,0,-1,6.023735,212.273)" stroke-width=".3985" stroke-linecap="butt" stroke-miterlimit="10" stroke-linejoin="miter" fill="none" stroke="#929292" d="M0 0 90.19322 168.74005"/>
<path transform="matrix(1.00003,0,0,-1,6.023735,212.273)" stroke-width=".3985" stroke-linecap="butt" stroke-miterlimit="10" stroke-linejoin="miter" fill="none" stroke="#929292" d="M0 0 55.54008 183.09587"/>
<path transform="matrix(1.00003,0,0,-1,6.023735,212.273)" stroke-width=".3985" stroke-linecap="butt" stroke-miterlimit="10" stroke-linejoin="miter" fill="none" stroke="#929292" d="M0 0 18.75269 190.40953"/>
<path transform="matrix(1.00003,0,0,-1,6.023735,212.273)" d="M193.09943 18.75269C193.09943 20.23828 191.89513 21.44258 190.40953 21.44258 188.92394 21.44258 187.71964 20.23828 187.71964 18.75269 187.71964 17.26709 188.92394 16.06279 190.40953 16.06279 191.89513 16.06279 193.09943 17.26709 193.09943 18.75269ZM190.40953 18.75269"/>
<path transform="matrix(1.00003,0,0,-1,6.023735,212.273)" stroke-width=".3985" stroke-linecap="butt" stroke-miterlimit="10" stroke-linejoin="miter" fill="none" stroke="#000000" d="M193.09943 18.75269C193.09943 20.23828 191.89513 21.44258 190.40953 21.44258 188.92394 21.44258 187.71964 20.23828 187.71964 18.75269 187.71964 17.26709 188.92394 16.06279 190.40953 16.06279 191.89513 16.06279 193.09943 17.26709 193.09943 18.75269ZM190.40953 18.75269"/>
<path transform="matrix(1.00003,0,0,-1,6.023735,212.273)" stroke-width=".3985" stroke-linecap="butt" stroke-miterlimit="10" stroke-linejoin="miter" fill="none" stroke="#000000" d="M214.2108 21.09679"/>
<use data-text="5" xlink:href="#font_2_4" transform="matrix(9.91438,-.97633478,-.9763641,-9.914082,207.00626,195.92588)"/>
<use data-text="." xlink:href="#font_3_1" transform="matrix(9.91438,-.97633478,-.9763641,-9.914082,211.96314,195.43775)"/>
<use data-text="6" xlink:href="#font_2_5" transform="matrix(9.91438,-.97633478,-.9763641,-9.914082,214.71775,195.16648)"/>
<use data-text="2" xlink:href="#font_2_2" transform="matrix(9.91438,-.97633478,-.9763641,-9.914082,219.67493,194.67832)"/>
<use data-text="5" xlink:href="#font_2_4" transform="matrix(9.91438,-.97633478,-.9763641,-9.914082,224.63213,194.19016)"/>
<use data-text="&#x25e6;" xlink:href="#font_4_1" transform="matrix(6.9400465,-.6834324,-.6834529,-6.939838,229.23505,190.1036)"/>
<path transform="matrix(1.00003,0,0,-1,6.023735,212.273)" d="M185.78577 55.54008C185.78577 57.02568 184.58147 58.22998 183.09587 58.22998 181.61028 58.22998 180.40598 57.02568 180.40598 55.54008 180.40598 54.05449 181.61028 52.85019 183.09587 52.85019 184.58147 52.85019 185.78577 54.05449 185.78577 55.54008ZM183.09587 55.54008"/>
<path transform="matrix(1.00003,0,0,-1,6.023735,212.273)" stroke-width=".3985" stroke-linecap="butt" stroke-miterlimit="10" stroke-linejoin="miter" fill="none" stroke="#000000" d="M185.78577 55.54008C185.78577 57.02568 184.58147 58.22998 183.09587 58.22998 181.61028 58.22998 180.40598 57.02568 180.40598 55.54008 180.40598 54.05449 181.61028 52.85019 183.09587 52.85019 184.58147 52.85019 185.78577 54.05449 185.78577 55.54008ZM183.09587 55.54008"/>
<path transform="matrix(1.00003,0,0,-1,6.023735,212.273)" stroke-width=".3985" stroke-linecap="butt" stroke-miterlimit="10" stroke-linejoin="miter" fill="none" stroke="#000000" d="M205.98285 62.48259"/>
<use data-text="1" xlink:href="#font_2_1" transform="matrix(9.533598,-2.8918439,-2.8919309,-9.533312,197.57549,157.75435)"/>
<use data-text="6" xlink:href="#font_2_5" transform="matrix(9.533598,-2.8918439,-2.8919309,-9.533312,202.34229,156.30843)"/>
<use data-text="." xlink:href="#font_3_1" transform="matrix(9.533598,-2.8918439,-2.8919309,-9.533312,207.10947,154.8624)"/>
<use data-text="8" xlink:href="#font_2_7" transform="matrix(9.533598,-2.8918439,-2.8919309,-9.533312,209.75731,154.05922)"/>
<use data-text="7" xlink:href="#font_2_6" transform="matrix(9.533598,-2.8918439,-2.8919309,-9.533312,214.52411,152.6133)"/>
<use data-text="5" xlink:href="#font_2_4" transform="matrix(9.533598,-2.8918439,-2.8919309,-9.533312,219.29091,151.16738)"/>
<use data-text="&#x25e6;" xlink:href="#font_4_1" transform="matrix(6.6734998,-2.024285,-2.0243459,-6.6732995,223.00815,146.26123)"/>
<path transform="matrix(1.00003,0,0,-1,6.023735,212.273)" d="M171.42995 90.19322C171.42995 91.67882 170.22565 92.88312 168.74005 92.88312 167.25446 92.88312 166.05016 91.67882 166.05016 90.19322 166.05016 88.70763 167.25446 87.50333 168.74005 87.50333 170.22565 87.50333 171.42995 88.70763 171.42995 90.19322ZM168.74005 90.19322"/>
<path transform="matrix(1.00003,0,0,-1,6.023735,212.273)" stroke-width=".3985" stroke-linecap="butt" stroke-miterlimit="10" stroke-linejoin="miter" fill="none" stroke="#000000" d="M171.42995 90.19322C171.42995 91.67882 170.22565 92.88312 168.74005 92.88312 167.25446 92.88312 166.05016 91.67882 166.05016 90.19322 166.05016 88.70763 167.25446 87.50333 168.74005 87.50333 170.22565 87.50333 171.42995 88.70763 171.42995 90.19322ZM168.74005 90.19322"/>
<path transform="matrix(1.00003,0,0,-1,6.023735,212.273)" stroke-width=".3985" stroke-linecap="butt" stroke-miterlimit="10" stroke-linejoin="miter" fill="none" stroke="#000000" d="M189.83254 101.46736"/>
<use data-text="2" xlink:href="#font_2_2" transform="matrix(8.786081,-4.6960709,-4.696212,-8.785817,183.25662,121.43272)"/>
<use data-text="8" xlink:href="#font_2_7" transform="matrix(8.786081,-4.6960709,-4.696212,-8.785817,187.64966,119.08469)"/>
<use data-text="." xlink:href="#font_3_1" transform="matrix(8.786081,-4.6960709,-4.696212,-8.785817,192.04306,116.73646)"/>
<use data-text="1" xlink:href="#font_2_1" transform="matrix(8.786081,-4.6960709,-4.696212,-8.785817,194.48328,115.43218)"/>
<use data-text="2" xlink:href="#font_2_2" transform="matrix(8.786081,-4.6960709,-4.696212,-8.785817,198.87631,113.084148)"/>
<use data-text="5" xlink:href="#font_2_4" transform="matrix(8.786081,-4.6960709,-4.696212,-8.785817,203.26938,110.73611)"/>
<use data-text="&#x25e6;" xlink:href="#font_4_1" transform="matrix(6.1502397,-3.2872403,-3.287339,-6.150055,205.95798,105.199138)"/>
<path transform="matrix(1.00003,0,0,-1,6.023735,212.273)" d="M150.58959 121.37773C150.58959 122.86333 149.38529 124.06763 147.89969 124.06763 146.4141 124.06763 145.2098 122.86333 145.2098 121.37773 145.2098 119.89212 146.4141 118.68782 147.89969 118.68782 149.38529 118.68782 150.58959 119.89212 150.58959 121.37773ZM147.89969 121.37773"/>
<path transform="matrix(1.00003,0,0,-1,6.023735,212.273)" stroke-width=".3985" stroke-linecap="butt" stroke-miterlimit="10" stroke-linejoin="miter" fill="none" stroke="#000000" d="M150.58959 121.37773C150.58959 122.86333 149.38529 124.06763 147.89969 124.06763 146.4141 124.06763 145.2098 122.86333 145.2098 121.37773 145.2098 119.89212 146.4141 118.68782 147.89969 118.68782 149.38529 118.68782 150.58959 119.89212 150.58959 121.37773ZM147.89969 121.37773"/>
<path transform="matrix(1.00003,0,0,-1,6.023735,212.273)" stroke-width=".3985" stroke-linecap="butt" stroke-miterlimit="10" stroke-linejoin="miter" fill="none" stroke="#000000" d="M166.38722 136.55005"/>
<use data-text="3" xlink:href="#font_2_3" transform="matrix(7.700923,-6.319775,-6.3199656,-7.700691,162.12635,88.604747)"/>
<use data-text="9" xlink:href="#font_2_8" transform="matrix(7.700923,-6.319775,-6.3199656,-7.700691,165.9768,85.444858)"/>
<use data-text="." xlink:href="#font_3_1" transform="matrix(7.700923,-6.319775,-6.3199656,-7.700691,169.82758,82.28471)"/>
<use data-text="3" xlink:href="#font_2_3" transform="matrix(7.700923,-6.319775,-6.3199656,-7.700691,171.96643,80.52947)"/>
<use data-text="7" xlink:href="#font_2_6" transform="matrix(7.700923,-6.319775,-6.3199656,-7.700691,175.81688,77.36958)"/>
<use data-text="5" xlink:href="#font_2_4" transform="matrix(7.700923,-6.319775,-6.3199656,-7.700691,179.66735,74.209697)"/>
<use data-text="&#x25e6;" xlink:href="#font_4_1" transform="matrix(5.3906309,-4.42383,-4.423963,-5.3904688,181.224,68.254718)"/>
<path transform="matrix(1.00003,0,0,-1,6.023735,212.273)" stroke-width=".3985" stroke-linecap="butt" stroke-miterlimit="10" stroke-linejoin="miter" fill="none" stroke="#000000" d="M183.90456 36.57703"/>
<use data-text="L" xlink:href="#font_5_71" transform="matrix(9.771213,-1.9434043,-1.9434626,-9.770919,176.14154,181.85184)"/>
<use data-text="&#x0101;" xlink:href="#font_5_173" transform="matrix(9.771213,-1.9434043,-1.9434626,-9.770919,182.24854,180.6372)"/>
<path transform="matrix(1.00003,0,0,-1,6.023735,212.273)" stroke-width=".3985" stroke-linecap="butt" stroke-miterlimit="10" stroke-linejoin="miter" fill="none" stroke="#000000" d="M173.23041 71.75278"/>
<use data-text="&#x2018;" xlink:href="#font_5_501" transform="matrix(9.204124,-3.8122886,-3.812403,-9.203848,155.74575,154.443)"/>
<use data-text="&#x0100;" xlink:href="#font_5_172" transform="matrix(9.204124,-3.8122886,-3.812403,-9.203848,158.30449,153.38318)"/>
<use data-text="i" xlink:href="#font_5_66" transform="matrix(9.204124,-3.8122886,-3.812403,-9.203848,165.2076,150.52396)"/>
<use data-text="n" xlink:href="#font_5_77" transform="matrix(9.204124,-3.8122886,-3.812403,-9.203848,167.76634,149.46414)"/>
<use data-text="a" xlink:href="#font_5_28" transform="matrix(9.204124,-3.8122886,-3.812403,-9.203848,172.88384,147.34452)"/>
<path transform="matrix(1.00003,0,0,-1,6.023735,212.273)" stroke-width=".3985" stroke-linecap="butt" stroke-miterlimit="10" stroke-linejoin="miter" fill="none" stroke="#000000" d="M155.9024 104.16946"/>
<use data-text="N" xlink:href="#font_5_76" transform="matrix(8.283552,-5.534623,-5.534789,-8.283303,144.06455,124.066287)"/>
<use data-text="o" xlink:href="#font_5_81" transform="matrix(8.283552,-5.534623,-5.534789,-8.283303,150.27722,119.91532)"/>
<use data-text="i" xlink:href="#font_5_66" transform="matrix(8.283552,-5.534623,-5.534789,-8.283303,154.41898,117.14801)"/>
<use data-text="o" xlink:href="#font_5_81" transform="matrix(8.283552,-5.534623,-5.534789,-8.283303,156.7218,115.60939)"/>
<path transform="matrix(1.00003,0,0,-1,6.023735,212.273)" stroke-width=".3985" stroke-linecap="butt" stroke-miterlimit="10" stroke-linejoin="miter" fill="none" stroke="#000000" d="M132.58917 132.58917"/>
<use data-text="M" xlink:href="#font_5_74" transform="matrix(7.0447657,-7.044554,-7.0447657,-7.044554,120.87616,102.15826)"/>
<use data-text="a" xlink:href="#font_5_28" transform="matrix(7.0447657,-7.044554,-7.0447657,-7.044554,127.33621,95.6984)"/>
<use data-text="n" xlink:href="#font_5_77" transform="matrix(7.0447657,-7.044554,-7.0447657,-7.044554,130.8586,92.176128)"/>
<use data-text="u" xlink:href="#font_5_109" transform="matrix(7.0447657,-7.044554,-7.0447657,-7.044554,134.58528,88.449558)"/>
<path transform="matrix(1.00003,0,0,-1,6.023735,212.273)" stroke-width=".3985" stroke-linecap="butt" stroke-miterlimit="10" stroke-linejoin="miter" fill="none" stroke="#000000" d="M104.16946 155.9024"/>
<use data-text="N" xlink:href="#font_5_76" transform="matrix(5.534789,-8.283303,-8.283552,-5.534623,95.22955,84.89435)"/>
<use data-text="&#x0101;" xlink:href="#font_5_173" transform="matrix(5.534789,-8.283303,-8.283552,-5.534623,99.380649,78.68187)"/>
<use data-text="l" xlink:href="#font_5_72" transform="matrix(5.534789,-8.283303,-8.283552,-5.534623,102.14804,74.54022)"/>
<use data-text="a" xlink:href="#font_5_28" transform="matrix(5.534789,-8.283303,-8.283552,-5.534623,103.68672,72.23746)"/>
<use data-text="n" xlink:href="#font_5_77" transform="matrix(5.534789,-8.283303,-8.283552,-5.534623,106.45412,68.09581)"/>
<use data-text="i" xlink:href="#font_5_66" transform="matrix(5.534789,-8.283303,-8.283552,-5.534623,109.53145,63.49029)"/>
<path transform="matrix(1.00003,0,0,-1,6.023735,212.273)" stroke-width=".3985" stroke-linecap="butt" stroke-miterlimit="10" stroke-linejoin="miter" fill="none" stroke="#000000" d="M71.75278 173.23041"/>
<use data-text="N" xlink:href="#font_5_76" transform="matrix(3.812403,-9.203848,-9.204124,-3.8122886,67.50729,72.586139)"/>
<use data-text="&#x0101;" xlink:href="#font_5_173" transform="matrix(3.812403,-9.203848,-9.204124,-3.8122886,70.36659,65.68325)"/>
<use data-text="L" xlink:href="#font_5_71" transform="matrix(3.812403,-9.203848,-9.204124,-3.8122886,73.54233,58.01645)"/>
<use data-text="e" xlink:href="#font_5_50" transform="matrix(3.812403,-9.203848,-9.204124,-3.8122886,75.92508,52.264047)"/>
<use data-text="o" xlink:href="#font_5_81" transform="matrix(3.812403,-9.203848,-9.204124,-3.8122886,77.61778,48.177537)"/>
<path transform="matrix(1.00003,0,0,-1,6.023735,212.273)" stroke-width=".3985" stroke-linecap="butt" stroke-miterlimit="10" stroke-linejoin="miter" fill="none" stroke="#000000" d="M36.57703 183.90456"/>
<use data-text="H" xlink:href="#font_5_62" transform="matrix(1.9434626,-9.770919,-9.771213,-1.9434043,40.825334,54.74225)"/>
<use data-text="a" xlink:href="#font_5_28" transform="matrix(1.9434626,-9.770919,-9.771213,-1.9434043,42.28293,47.414064)"/>
<use data-text="k" xlink:href="#font_5_70" transform="matrix(1.9434626,-9.770919,-9.771213,-1.9434043,43.254655,42.528604)"/>
<use data-text="a" xlink:href="#font_5_28" transform="matrix(1.9434626,-9.770919,-9.771213,-1.9434043,44.280809,37.36956)"/>
</svg>
