<svg xmlns="http://www.w3.org/2000/svg" xmlns:xlink="http://www.w3.org/1999/xlink" version="1.1" width="222" height="165" viewBox="0 0 222 165">
<defs>
<path id="font_1_1" d="M.31098939 .36265565H.42999269C.4149933 .30274964 .3929901 .2118988 .3929901 .13302613 .3929901 .09309387 .397995 .06613159 .4039917 .044174196 .41999818-.0057678224 .43299867-.009765625 .44898988-.009765625 .47200013-.009765625 .49598695 .011230469 .49598695 .035186769 .49598695 .043182374 .49398805 .047164918 .48799134 .057159425 .46899415 .09408569 .45098878 .15100098 .45098878 .23286438 .45098878 .25183106 .45098878 .29177857 .46499635 .36265565H.58999636C.60798647 .36265565 .6159973 .36265565 .6269989 .37065126 .6409912 .380661 .6439972 .39665223 .6439972 .4016571 .6439972 .43066407 .6179962 .43066407 .6009979 .43066407H.22399903C.18299866 .43066407 .15499878 .42166139 .10998535 .37965394 .083999637 .35665895 .04499817 .30274964 .04499817 .2937622 .04499817 .28178407 .057998659 .28178407 .06199646 .28178407 .07299805 .28178407 .07398987 .28378297 .07998657 .2927704 .1309967 .36265565 .19299317 .36265565 .21499634 .36265565H.27598573C.24499512 .25283814 .19099427 .13502503 .16099549 .07511902 .15499878 .062149049 .14498902 .04118347 .14199829 .03718567 .14099121 .033187868 .13899231 .029190064 .13899231 .022201539 .13899231 .006225586 .15098572-.009765625 .17399597-.009765625 .21398926-.009765625 .22499085 .035186769 .24899292 .12504578L.31098939 .36265565Z"/>
<path id="font_2_3" d="M.5289917 .1640625V.20005799H.41799928V.64582827C.41799928 .66682437 .41799928 .6738281 .3959961 .6738281 .38398744 .6738281 .37998963 .6738281 .36999513 .65982058L.038986207 .20005799V.1640625H.33299256V.08201599C.33299256 .04800415 .33299256 .035995485 .2519989 .035995485H.22499085V0C.2749939 .0019989014 .33898927 .0039978029 .375 .0039978029 .4119873 .0039978029 .47599793 .0019989014 .526001 0V.035995485H.49899293C.41799928 .035995485 .41799928 .04800415 .41799928 .08201599V.1640625H.5289917M.33999635 .5658722V.20005799H.07598877L.33999635 .5658722Z"/>
<path id="font_2_1" d="M.5049896 .18203736H.47099305C.46798707 .16001892 .45799256 .100997928 .44499208 .09098816 .43699647 .084991458 .3600006 .084991458 .34599305 .084991458H.1619873C.2669983 .17803955 .3019867 .20603943 .3619995 .25306703 .43598939 .312088 .5049896 .374115 .5049896 .46914674 .5049896 .5900879 .39898683 .6640625 .2709961 .6640625 .14698792 .6640625 .06298828 .57710269 .06298828 .4851532 .06298828 .43414308 .10598755 .42915345 .115997318 .42915345 .13999939 .42915345 .16899109 .44615174 .16899109 .48214723 .16899109 .5001526 .1619873 .53515627 .10998535 .53515627 .14099121 .6060791 .20899964 .62805178 .2559967 .62805178 .35598756 .62805178 .4079895 .5501404 .4079895 .46914674 .4079895 .38212586 .34599305 .3130951 .31399537 .27708436L.07299805 .038986207C.06298828 .02999878 .06298828 .027999878 .06298828 0H.47499085L.5049896 .18203736Z"/>
<path id="font_2_2" d="M.272995 .33428956C.35099793 .33428956 .40699769 .2803192 .40699769 .1733551 .40699769 .04940796 .33499146 .012466431 .2769928 .012466431 .23699951 .012466431 .14898682 .0234375 .10699463 .082351688 .1539917 .084350589 .16499329 .11735535 .16499329 .13835144 .16499329 .17034912 .14099121 .19335938 .10998535 .19335938 .08198547 .19335938 .053985597 .17634583 .053985597 .13534546 .053985597 .041412355 .1579895-.01953125 .2789917-.01953125 .41799928-.01953125 .5139923 .07336426 .5139923 .1733551 .5139923 .2513275 .44999696 .32929994 .33999635 .35229493 .44499208 .39024354 .48298646 .4650879 .48298646 .5260773 .48298646 .60505679 .3919983 .6640625 .2809906 .6640625 .16999817 .6640625 .084991458 .61006167 .084991458 .5300751 .084991458 .49606324 .10699463 .47706605 .13699341 .47706605 .16799927 .47706605 .18798828 .5000763 .18798828 .5280762 .18798828 .5570679 .16799927 .57806399 .13699341 .5800781 .17199707 .62405398 .24099732 .63505557 .27799989 .63505557 .32299806 .63505557 .38598634 .6130676 .38598634 .5260773 .38598634 .48406983 .37199403 .43814088 .34599305 .4072113 .31298829 .36927796 .2849884 .3672943 .23498535 .36428834 .20999146 .3623047 .20799256 .3623047 .20298767 .3612976 .20098877 .3612976 .19299317 .3592987 .19299317 .34829713 .19299317 .33428956 .20199585 .33428956 .21899414 .33428956H.272995Z"/>
<path id="font_3_1" d="M.2649994 .37265016H.37799073C.34498597 .22489929 .33599855 .18196106 .33599855 .11508179 .33599855 .100097659 .33599855 .073150638 .34399415 .03919983 .35398866-.0047454836 .36499024-.0107421879 .37998963-.0107421879 .3999939-.0107421879 .42099 .007247925 .42099 .02722168 .42099 .033218385 .42099 .035202028 .4149933 .049179079 .38598634 .12106323 .38598634 .18595886 .38598634 .21391297 .38598634 .26683045 .3929901 .32073976 .4039917 .37265016H.5179901C.5309906 .37265016 .5669861 .37265016 .5669861 .406662 .5669861 .43066407 .54599 .43066407 .5269928 .43066407H.19198609C.16999817 .43066407 .13198853 .43066407 .08799744 .38365174 .052993776 .34469605 .026992798 .29878236 .026992798 .29379273 .026992798 .29278565 .026992798 .28379823 .038986207 .28379823 .04699707 .28379823 .04899597 .28779603 .054992677 .29577638 .10398865 .37265016 .1619873 .37265016 .18199158 .37265016H.23899842C.20698548 .25186158 .15299988 .13105774 .11099243 .04020691 .102996829 .025222779 .102996829 .023223877 .102996829 .016235352 .102996829-.002746582 .11898804-.0107421879 .13198853-.0107421879 .1619873-.0107421879 .16999817 .017242432 .18199158 .05418396 .19599915 .100097659 .19599915 .10209656 .20899964 .15202332L.2649994 .37265016Z"/>
<path id="font_2_4" d="M.15499878 .5588074C.20599365 .5458069 .23599243 .5458069 .2519989 .5458069 .38398744 .5458069 .46199037 .6358032 .46199037 .6508026 .46199037 .6618042 .45498658 .6648102 .44999696 .6648102 .44799806 .6648102 .44599916 .6648102 .44198609 .6618042 .41799928 .6528015 .36499024 .6328125 .29100038 .6328125 .2630005 .6328125 .20999146 .6348114 .14498902 .6598053 .1349945 .6648102 .1329956 .6648102 .13198853 .6648102 .11898804 .6648102 .11898804 .6538086 .11898804 .6378021V.34251405C.11898804 .32548524 .11898804 .3134613 .1349945 .3134613 .14399719 .3134613 .14498902 .3154602 .15499878 .32748414 .19799805 .38259889 .25898744 .390625 .2939911 .390625 .35398866 .390625 .3809967 .34251405 .38598634 .33450318 .4039917 .30143739 .4099884 .26335145 .4099884 .20524597 .4099884 .17524719 .4099884 .116256717 .37998963 .07234192 .35499574 .03640747 .31199647 .012466431 .2630005 .012466431 .19799805 .012466431 .1309967 .04838562 .10598755 .11425781 .14399719 .11125183 .16299439 .13624573 .16299439 .16325379 .16299439 .20625305 .12599182 .21424866 .11299133 .21424866 .11099243 .21424866 .06298828 .21424866 .06298828 .1602478 .06298828 .07034302 .14498902-.01953125 .2649994-.01953125 .3929901-.01953125 .5049896 .07533264 .5049896 .20124817 .5049896 .31445313 .4189911 .41862489 .29499818 .41862489 .25099183 .41862489 .19898987 .4076233 .15499878 .36956788V.5588074Z"/>
<path id="font_2_5" d="M.5349884 .6045227C.54499819 .6165161 .54499819 .6185303 .54499819 .64453127H.2829895C.24299622 .64453127 .23199463 .6455078 .19599915 .6484375 .14399719 .65234377 .14199829 .6592407 .13899231 .676239H.10499573L.069992069 .46250917H.10398865C.10598755 .47750855 .115997318 .54351809 .13198853 .5535126 .13999939 .55952456 .22099304 .55952456 .23599243 .55952456H.45399476C.42199708 .5175171 .37098695 .45550538 .34999085 .4275055 .21899414 .25549317 .20698548 .096466068 .20698548 .037460329 .20698548 .02645874 .20698548-.01953125 .2539978-.01953125 .3019867-.01953125 .3019867 .025466919 .3019867 .038467409V.07847595C.3019867 .27249146 .34199525 .36149598 .3849945 .41551209L.5349884 .6045227Z"/>
<path id="font_4_3" d="M.1269989 .07699585 .23298645 .18003845C.3889923 .31811524 .44898988 .3721466 .44898988 .47216798 .44898988 .5860901 .35899354 .6660156 .23699951 .6660156 .12399292 .6660156 .049987794 .57411196 .049987794 .48516847 .049987794 .4291687 .099990848 .4291687 .102996829 .4291687 .11999512 .4291687 .15499878 .44117738 .15499878 .48217774 .15499878 .5081787 .13699341 .5341797 .101989749 .5341797 .09399414 .5341797 .09199524 .5341797 .08898926 .5331726 .11199951 .59806826 .1659851 .63500979 .22399903 .63500979 .31498719 .63500979 .35798646 .5541382 .35798646 .47216798 .35798646 .39215089 .30799867 .31311036 .25299073 .25108338L.06098938 .036987306C.049987794 .025985718 .049987794 .023986817 .049987794 0H.42099L.44898988 .17404175H.42399598C.4189911 .14402771 .4119873 .1000061 .4019928 .084991458 .394989 .07699585 .32899476 .07699585 .30699159 .07699585H.1269989Z"/>
<path id="font_5_1" d="M.6589966 .23046875C.6759949 .23046875 .69400027 .23046875 .69400027 .25045777 .69400027 .27046205 .6759949 .27046205 .6589966 .27046205H.117996219C.100997928 .27046205 .08299255 .27046205 .08299255 .25045777 .08299255 .23046875 .100997928 .23046875 .117996219 .23046875H.6589966Z"/>
<path id="font_4_2" d="M.2939911 .64004519C.2939911 .66400149 .2939911 .6660156 .2709961 .6660156 .20899964 .60227969 .12098694 .60227969 .08898926 .60227969V.57128909C.10899353 .57128909 .16799927 .57128909 .21998596 .5972748V.07902527C.21998596 .042999269 .21699524 .0309906 .1269989 .0309906H.09498596V0C.12998963 .0029907227 .21699524 .0029907227 .25698854 .0029907227 .29699708 .0029907227 .38398744 .0029907227 .4189911 0V.0309906H.3869934C.29699708 .0309906 .2939911 .041992189 .2939911 .07902527V.64004519Z"/>
<path id="font_4_1" d="M.45999146 .31976319C.45999146 .39982606 .45498658 .47988893 .41999818 .5539398 .37399293 .65000918 .2919922 .6660156 .25 .6660156 .18998719 .6660156 .116989139 .64001467 .07598877 .54693606 .04399109 .47789 .038986207 .39982606 .038986207 .31976319 .038986207 .24472046 .042999269 .15464783 .083999637 .07859802 .1269989-.0024719239 .19999695-.022460938 .24899292-.022460938 .30299378-.022460938 .3789978-.0014648438 .4229889 .09359741 .45498658 .16265869 .45999146 .2407074 .45999146 .31976319M.24899292-.00047302247C.20999146-.00047302247 .15098572 .024551392 .1329956 .12062073 .12199402 .18066406 .12199402 .2727356 .12199402 .3317871 .12199402 .39582826 .12199402 .46188355 .12998963 .5159149 .14898682 .63500979 .22399903 .64401248 .24899292 .64401248 .28199769 .64401248 .34799195 .6259918 .36698915 .52693179 .3769989 .47088624 .3769989 .39482118 .3769989 .3317871 .3769989 .25672914 .3769989 .18867493 .3659973 .12461853 .35099793 .029556275 .2939911-.00047302247 .24899292-.00047302247Z"/>
<path id="font_3_2" d="M.19198609 .052993776C.19198609 .08198547 .16799927 .10598755 .13899231 .10598755 .10998535 .10598755 .085998538 .08198547 .085998538 .052993776 .085998538 .023986817 .10998535 0 .13899231 0 .16799927 0 .19198609 .023986817 .19198609 .052993776Z"/>
<path id="font_4_4" d="M.44898988 .20022583C.44898988 .3193512 .36698915 .41944886 .25898744 .41944886 .21099854 .41944886 .16799927 .40345765 .13198853 .36842347V.5637665C.1519928 .5577698 .18499756 .55078127 .21699524 .55078127 .33999635 .55078127 .4099884 .6417694 .4099884 .6547699 .4099884 .6607666 .40699769 .6657715 .3999939 .6657715 .39898683 .6657715 .39698792 .6657715 .3919983 .66278079 .37199403 .6537781 .32299806 .6337738 .2559967 .6337738 .21598816 .6337738 .16999817 .6407776 .12298584 .6617737 .114990238 .66477969 .11299133 .66477969 .11099243 .66477969 .100997928 .66477969 .100997928 .6567688 .100997928 .6407776V.34439088C.100997928 .32637025 .100997928 .31835938 .114990238 .31835938 .12199402 .31835938 .12399292 .32136537 .12799073 .32736207 .13899231 .3433838 .17599488 .39746095 .25698854 .39746095 .30899049 .39746095 .33399964 .35139466 .34199525 .33337403 .35798646 .29632569 .3600006 .25727845 .3600006 .20722962 .3600006 .17222595 .3600006 .11222839 .33599855 .07035828 .31199647 .031463624 .2749939 .0055389406 .22898865 .0055389406 .1559906 .0055389406 .09899902 .058380128 .08198547 .11723328 .084991458 .1162262 .08799744 .115234378 .09899902 .115234378 .13198853 .115234378 .14898682 .14022827 .14898682 .16423035 .14898682 .18823242 .13198853 .21322632 .09899902 .21322632 .084991458 .21322632 .049987794 .20622254 .049987794 .16023255 .049987794 .07434082 .11898804-.022460938 .23098755-.022460938 .34700013-.022460938 .44898988 .073349 .44898988 .20022583Z"/>
<clipPath id="clip_6">
<path transform="matrix(1.00003,0,0,-1.00003,26.343377,163.19641)" d="M0 0H194.27399V161.39392H0Z"/>
</clipPath>
<path id="font_3_4" d="M.48599244 .38136292C.48999024 .39537049 .48999024 .39736939 .48999024 .40437318 .48999024 .42237855 .47599793 .43138124 .46099855 .43138124 .45098878 .43138124 .43499757 .42536927 .42599488 .41036988 .42399598 .405365 .41600038 .37435914 .4119873 .35635377 .40499879 .33035279 .397995 .30334474 .3919983 .27633668L.34700013 .09628296C.34298707 .08126831 .2999878 .011245728 .23399353 .011245728 .18299866 .011245728 .17199707 .055267335 .17199707 .0922699 .17199707 .1382904 .18899536 .20030213 .22299195 .28833009 .23899842 .3293457 .24299622 .3403473 .24299622 .36035157 .24299622 .405365 .21099854 .4423828 .16099549 .4423828 .06599426 .4423828 .0289917 .29733277 .0289917 .28833009 .0289917 .27833558 .038986207 .27833558 .040985109 .27833558 .050994874 .27833558 .051986696 .28033448 .056991579 .29634095 .083999637 .3903656 .12399292 .42037965 .1579895 .42037965 .1659851 .42037965 .18299866 .42037965 .18299866 .3883667 .18299866 .36335755 .17298889 .3373413 .1659851 .31834413 .12599182 .21231079 .10798645 .1552887 .10798645 .10827637 .10798645 .019256592 .17098999-.0107421879 .22999573-.0107421879 .2689972-.0107421879 .30299378 .0062561037 .33099366 .03425598 .31799317-.017745972 .30599977-.06674194 .2659912-.11973572 .23999024-.15385437 .20199585-.18309021 .1559906-.18309021 .14199829-.18309021 .09700012-.18005371 .07998657-.14074707 .09599304-.14074707 .10899353-.14074707 .12298584-.1287384 .1329956-.11973572 .14299011-.10673523 .14299011-.08773804 .14299011-.056747438 .115997318-.052734376 .10598755-.052734376 .08299255-.052734376 .049987794-.068740848 .049987794-.11773682 .049987794-.16796875 .09399414-.20507813 .1559906-.20507813 .25898744-.20507813 .3619995-.11373901 .3899994-.00074768069L.48599244 .38136292Z"/>
<path id="font_4_5" d="M.68699648 .32714845C.70199587 .32714845 .72099307 .32714845 .72099307 .34713746 .72099307 .36714173 .70199587 .36714173 .6879883 .36714173H.08898926C.07499695 .36714173 .055999757 .36714173 .055999757 .34713746 .055999757 .32714845 .07499695 .32714845 .08999634 .32714845H.68699648M.6879883 .13284302C.70199587 .13284302 .72099307 .13284302 .72099307 .15284729 .72099307 .17285156 .70199587 .17285156 .68699648 .17285156H.08999634C.07499695 .17285156 .055999757 .17285156 .055999757 .15284729 .055999757 .13284302 .07499695 .13284302 .08898926 .13284302H.6879883Z"/>
<path id="font_4_8" d="M.20799256 .19424439C.22999573 .19024658 .31199647 .17424011 .31199647 .102249149 .31199647 .051254274 .2769928 .011245728 .19898987 .011245728 .114990238 .011245728 .07899475 .06825256 .05999756 .15324402 .056991579 .1662445 .055999757 .17024231 .04598999 .17024231 .032989503 .17024231 .032989503 .16323853 .032989503 .14524842V.013244629C.032989503-.003753662 .032989503-.0107421879 .04399109-.0107421879 .04899597-.0107421879 .049987794-.009750366 .068984989 .009246826 .070999149 .011245728 .070999149 .013244629 .08898926 .03224182 .1329956-.009750366 .17799378-.0107421879 .19898987-.0107421879 .31399537-.0107421879 .3600006 .056243898 .3600006 .12825012 .3600006 .1812439 .32998658 .21124268 .31799317 .22323609 .2849884 .25523377 .24598694 .26324464 .20399475 .27124024 .147995 .28224183 .08099365 .2952423 .08099365 .35324098 .08099365 .38822938 .10699463 .42922975 .19299317 .42922975 .30299378 .42922975 .30799867 .3392334 .30999757 .3082428 .31098939 .2992401 .31999208 .2992401 .32199098 .2992401 .33499146 .2992401 .33499146 .304245 .33499146 .3232422V.4242401C.33499146 .4412384 .33499146 .4482422 .32398988 .4482422 .31900025 .4482422 .31698609 .4482422 .3039856 .43623353 .30099488 .43223573 .29100038 .42323304 .2869873 .42022706 .24899292 .4482422 .20799256 .4482422 .19299317 .4482422 .070999149 .4482422 .032989503 .38124085 .032989503 .3252411 .032989503 .29023744 .04899597 .26223756 .07598877 .24023438 .10798645 .21424866 .13598633 .2082367 .20799256 .19424439Z"/>
<path id="font_4_6" d="M.1769867 .4423828 .036987306 .43138124V.40037538C.101989749 .40037538 .11099243 .3943634 .11099243 .34532167V.076034549C.11099243 .0309906 .099990848 .0309906 .032989503 .0309906V0C.06498718 .0009918213 .11898804 .0029907227 .14299011 .0029907227 .17799378 .0029907227 .21299744 .0009918213 .24699402 0V.0309906C.18099976 .0309906 .1769867 .035995485 .1769867 .075042728V.4423828M.18099976 .6159363C.18099976 .64793398 .1559906 .6689453 .12799073 .6689453 .09700012 .6689453 .07499695 .64193728 .07499695 .6159363 .07499695 .5889435 .09700012 .5629425 .12799073 .5629425 .1559906 .5629425 .18099976 .5839386 .18099976 .6159363Z"/>
<path id="font_4_7" d="M.10998535 .34429933V.076034549C.10998535 .0309906 .09899902 .0309906 .03199768 .0309906V0C.066986087 .0009918213 .117996219 .0029907227 .14498902 .0029907227 .17098999 .0029907227 .22299195 .0009918213 .25698854 0V.0309906C.18998719 .0309906 .1789856 .0309906 .1789856 .076034549V.2602234C.1789856 .36431886 .25 .42037965 .31399537 .42037965 .3769989 .42037965 .3880005 .36631776 .3880005 .30926515V.076034549C.3880005 .0309906 .3769989 .0309906 .30999757 .0309906V0C.34498597 .0009918213 .3959961 .0029907227 .4229889 .0029907227 .44898988 .0029907227 .5009918 .0009918213 .5349884 0V.0309906C.48298646 .0309906 .45799256 .0309906 .45700074 .061019899V.25221253C.45700074 .3383026 .45700074 .36932374 .42599488 .405365 .4119873 .42237855 .3789978 .4423828 .32099916 .4423828 .24798584 .4423828 .20098877 .39935304 .17298889 .33729554V.4423828L.03199768 .43138124V.40037538C.101989749 .4003601 .10998535 .39335633 .10998535 .34429933Z"/>
<path id="font_3_3" d="M.33399964 .30233766C.33999635 .32835389 .36299134 .42037965 .43299867 .42037965 .43798829 .42037965 .46199037 .42037965 .48298646 .40734864 .45498658 .402359 .43499757 .37734986 .43499757 .35334779 .43499757 .33735658 .44599916 .31835938 .47299195 .31835938 .49499513 .31835938 .5269928 .3363495 .5269928 .37635804 .5269928 .42837525 .46798707 .4423828 .43399049 .4423828 .37599183 .4423828 .34098817 .38935853 .32899476 .36634828 .3039856 .43237306 .25 .4423828 .22099304 .4423828 .116989139 .4423828 .05999756 .3133545 .05999756 .28834535 .05999756 .27833558 .069992069 .27833558 .07199097 .27833558 .07998657 .27833558 .08299255 .28033448 .084991458 .28933717 .11898804 .39535523 .18499756 .42037965 .21899414 .42037965 .23799134 .42037965 .272995 .4113617 .272995 .35334779 .272995 .32235719 .2559967 .25532533 .21899414 .11528015 .20298767 .053268434 .16799927 .011245728 .12399292 .011245728 .117996219 .011245728 .09498596 .011245728 .07398987 .024276734 .09899902 .029266358 .12098694 .05027771 .12098694 .07827759 .12098694 .105270389 .09899902 .11328125 .083999637 .11328125 .053985597 .11328125 .0289917 .08728027 .0289917 .055267335 .0289917 .009246826 .07899475-.0107421879 .12298584-.0107421879 .18899536-.0107421879 .22499085 .059280397 .22799683 .0652771 .23999024 .028274537 .27598573-.0107421879 .33599855-.0107421879 .43899537-.0107421879 .49598695 .118270877 .49598695 .14328003 .49598695 .1532898 .4869995 .1532898 .48399354 .1532898 .47499085 .1532898 .47299195 .14929199 .47099305 .14228821 .43798829 .03527832 .36999513 .011245728 .33799745 .011245728 .29899598 .011245728 .2829895 .043273927 .2829895 .07727051 .2829895 .09927368 .2889862 .121276859 .2999878 .16529846L.33399964 .30233766Z"/>
</defs>
<path transform="matrix(1.00003,0,0,-1.00003,26.343377,163.19641)" stroke-width=".19925" stroke-linecap="butt" stroke-miterlimit="10" stroke-linejoin="miter" fill="none" stroke="#929292" d="M22.49396 78.57089V82.82301M44.98824 78.57089V82.82301M67.48251 78.57089V82.82301M89.97685 78.57089V82.82301M112.4656 78.57089V82.82301M134.96532 78.57089V82.82301M157.457 78.57089V82.82301M179.95372 78.57089V82.82301"/>
<path transform="matrix(1.00003,0,0,-1.00003,26.343377,163.19641)" stroke-width=".19925" stroke-linecap="butt" stroke-miterlimit="10" stroke-linejoin="miter" fill="none" stroke="#929292" d="M-2.12593 13.4495H2.12593M-2.12593 47.07323H2.12593M-2.12593 114.3207H2.12593M-2.12593 147.94443H2.12593"/>
<path transform="matrix(1.00003,0,0,-1.00003,26.343377,163.19641)" stroke-width=".3985" stroke-linecap="butt" stroke-miterlimit="10" stroke-linejoin="miter" fill="none" stroke="#000000" d="M0 80.69696H192.28145"/>
<path transform="matrix(1.00003,0,0,-1.00003,218.63062,82.497028)" d="M1.99252 0-1.19551 1.59401 0 0-1.19551-1.59401"/>
<path transform="matrix(1.00003,0,0,-1.00003,26.343377,163.19641)" stroke-width=".3985" stroke-linecap="butt" stroke-miterlimit="10" stroke-linejoin="miter" fill="none" stroke="#000000" d="M0 0V159.4014"/>
<path transform="matrix(0,-1.00003,-1.00003,-0,26.343377,3.7902222)" d="M1.99252 0-1.19551 1.59401 0 0-1.19551-1.59401"/>
<use data-text="&#x03c0;" xlink:href="#font_1_1" transform="matrix(6.9740097,0,0,-6.9740097,46.382966,91.14527)"/>
<path transform="matrix(1.00003,0,0,-1.00003,-96.60332,-51.933038)" stroke-width=".3985" stroke-linecap="butt" stroke-miterlimit="10" stroke-linejoin="miter" fill="none" stroke="#000000" d="M142.982-144.506H147.891"/>
<use data-text="4" xlink:href="#font_2_3" transform="matrix(6.9740097,0,0,-6.9740097,46.85199,98.50349)"/>
<use data-text="&#x03c0;" xlink:href="#font_1_1" transform="matrix(6.9740097,0,0,-6.9740097,68.87764,91.14527)"/>
<path transform="matrix(1.00003,0,0,-1.00003,-74.10864,-51.933038)" stroke-width=".3985" stroke-linecap="butt" stroke-miterlimit="10" stroke-linejoin="miter" fill="none" stroke="#000000" d="M142.982-144.506H147.891"/>
<use data-text="2" xlink:href="#font_2_1" transform="matrix(6.9740097,0,0,-6.9740097,69.346668,98.50349)"/>
<use data-text="3" xlink:href="#font_2_2" transform="matrix(6.9740097,0,0,-6.9740097,89.38725,92.637317)"/>
<use data-text="&#x03c0;" xlink:href="#font_1_1" transform="matrix(6.9740097,0,0,-6.9740097,93.35837,92.637317)"/>
<path transform="matrix(1.00003,0,0,-1.00003,-53.599027,-50.440996)" stroke-width=".3985" stroke-linecap="butt" stroke-miterlimit="10" stroke-linejoin="miter" fill="none" stroke="#000000" d="M142.982-144.506H151.862"/>
<use data-text="4" xlink:href="#font_2_3" transform="matrix(6.9740097,0,0,-6.9740097,91.84233,99.99553)"/>
<use data-text="&#x03c0;" xlink:href="#font_3_1" transform="matrix(9.962899,0,0,-9.962899,113.304988,92.43228)"/>
<use data-text="5" xlink:href="#font_2_4" transform="matrix(6.9740097,0,0,-6.9740097,134.37162,92.637317)"/>
<use data-text="&#x03c0;" xlink:href="#font_1_1" transform="matrix(6.9740097,0,0,-6.9740097,138.34273,92.637317)"/>
<path transform="matrix(1.00003,0,0,-1.00003,-8.61467,-50.440996)" stroke-width=".3985" stroke-linecap="butt" stroke-miterlimit="10" stroke-linejoin="miter" fill="none" stroke="#000000" d="M142.982-144.506H151.862"/>
<use data-text="4" xlink:href="#font_2_3" transform="matrix(6.9740097,0,0,-6.9740097,136.82669,99.99553)"/>
<use data-text="3" xlink:href="#font_2_2" transform="matrix(6.9740097,0,0,-6.9740097,156.87229,92.637317)"/>
<use data-text="&#x03c0;" xlink:href="#font_1_1" transform="matrix(6.9740097,0,0,-6.9740097,160.84342,92.637317)"/>
<path transform="matrix(1.00003,0,0,-1.00003,13.886009,-50.440996)" stroke-width=".3985" stroke-linecap="butt" stroke-miterlimit="10" stroke-linejoin="miter" fill="none" stroke="#000000" d="M142.982-144.506H151.862"/>
<use data-text="2" xlink:href="#font_2_1" transform="matrix(6.9740097,0,0,-6.9740097,159.32736,99.99553)"/>
<use data-text="7" xlink:href="#font_2_5" transform="matrix(6.9740097,0,0,-6.9740097,179.36396,92.637317)"/>
<use data-text="&#x03c0;" xlink:href="#font_1_1" transform="matrix(6.9740097,0,0,-6.9740097,183.33509,92.637317)"/>
<path transform="matrix(1.00003,0,0,-1.00003,36.377679,-50.440996)" stroke-width=".3985" stroke-linecap="butt" stroke-miterlimit="10" stroke-linejoin="miter" fill="none" stroke="#000000" d="M142.982-144.506H151.862"/>
<use data-text="4" xlink:href="#font_2_3" transform="matrix(6.9740097,0,0,-6.9740097,181.81903,99.99553)"/>
<use data-text="2" xlink:href="#font_4_3" transform="matrix(9.962899,0,0,-9.962899,200.79361,94.563358)"/>
<use data-text="&#x03c0;" xlink:href="#font_3_1" transform="matrix(9.962899,0,0,-9.962899,205.77478,94.563358)"/>
<use data-text="&#x2212;" xlink:href="#font_5_1" transform="matrix(9.962899,0,0,-9.962899,7.9668276,152.54209)"/>
<use data-text="1" xlink:href="#font_4_2" transform="matrix(9.962899,0,0,-9.962899,15.715057,152.54209)"/>
<use data-text="&#x2212;" xlink:href="#font_5_1" transform="matrix(9.962899,0,0,-9.962899,.21759033,118.91708)"/>
<use data-text="0" xlink:href="#font_4_1" transform="matrix(9.962899,0,0,-9.962899,7.9658205,118.91708)"/>
<use data-text="." xlink:href="#font_3_2" transform="matrix(9.962899,0,0,-9.962899,12.947968,118.91708)"/>
<use data-text="5" xlink:href="#font_4_4" transform="matrix(9.962899,0,0,-9.962899,15.715057,118.91708)"/>
<use data-text="0" xlink:href="#font_4_1" transform="matrix(9.962899,0,0,-9.962899,7.9668276,52.083078)"/>
<use data-text="." xlink:href="#font_3_2" transform="matrix(9.962899,0,0,-9.962899,12.947983,52.083078)"/>
<use data-text="5" xlink:href="#font_4_4" transform="matrix(9.962899,0,0,-9.962899,15.715057,52.083078)"/>
<use data-text="1" xlink:href="#font_4_2" transform="matrix(9.962899,0,0,-9.962899,15.716057,18.458069)"/>
<g clip-path="url(#clip_6)">
<path transform="matrix(1.00003,0,0,-1.00003,26.343377,163.19641)" stroke-width=".99628" stroke-linecap="butt" stroke-miterlimit="10" stroke-linejoin="miter" fill="none" stroke="#0000ff" d="M0 80.69696 .97623 82.98741 1.95248 85.27785 2.92873 87.5609 3.90498 89.83655 4.88123 92.10146 5.85748 94.35356 6.83374 96.58955 7.80998 98.8067 8.78624 101.003 9.76248 103.17711 10.73872 105.32298 11.71498 107.4406 12.69122 109.52863 13.66748 111.5817 14.64372 113.60046 15.61998 115.57956 16.59624 117.51831 17.57248 119.41536 18.54874 121.26668 19.52498 123.07025 20.50124 124.82608 21.47748 126.52946 22.45372 128.17972 23.42998 129.77483 24.40622 131.3121 25.38248 132.79088 26.35873 134.21115 27.33498 135.5662 28.31123 136.85936 29.28748 138.08661 30.26373 139.24797 31.23997 140.34075 32.21622 141.36495 33.19247 142.31716 34.16872 143.19944 35.14497 144.0091 36.12123 144.7448 37.09747 145.40584 38.07373 145.9929 39.04997 146.50196 40.02623 146.93706 41.00249 147.2928 41.97871 147.57187 42.95497 147.77294 43.93121 147.896 44.90747 147.94242 45.88373 147.90879 46.85997 147.79648 47.83623 147.60886 48.81247 147.34323 49.78873 146.99826 50.76498 146.57796 51.74121 146.08101 52.71747 145.5067 53.69371 144.85776 54.66997 144.1362 55.64621 143.33797 56.62247 142.46913 57.59872 141.52835 58.57497 140.51625 59.55122 139.43492 60.52747 138.28568 61.50372 137.06848 62.47997 135.7881 63.4562 134.44113 64.43246 133.03162 65.4087 131.56295 66.38496 130.03238 67.36122 128.44736 68.33746 126.80518 69.31372 125.11053 70.28996 123.36412 71.26622 121.56795 72.24246 119.72334 73.2187 117.83638 74.19496 115.90302 75.1712 113.93066 76.14746 111.9186 77.12372 109.8716 78.09996 107.78961 79.07622 105.6767 80.05246 103.53487 81.02872 101.36613 82.00497 99.17184 82.9812 96.95874 83.95746 94.72612 84.9337 92.47603 85.90996 90.21313 86.88622 87.93816 87.86246 85.65645 88.83871 83.36667 89.81496 81.0769 90.79121 78.78645 91.76747 76.496 92.7437 74.21161 93.71996 71.93393 94.6962 69.66702 95.67245 67.41356 96.64871 65.17488 97.62495 62.9537 98.60126 60.75337 99.57742 58.57523 100.55374 56.42531 101.52989 54.30232 102.50621 52.20891 103.4825 50.14845 104.45866 48.12495 105.43498 46.13913 106.41113 44.19368 107.38745 42.29193 108.36375 40.43118 109.33992 38.62021 110.31624 36.85631 111.29239 35.14485 112.2687 33.4852 113.245 31.882 114.22116 30.33331 115.19748 28.84444 116.17363 27.41475 117.14995 26.0483 118.12625 24.74368 119.10242 23.50566 120.07874 22.33354 121.05489 21.22865 122.0312 20.19305 123.0075 19.22737 123.98366 18.33366 124.95998 17.5119 125.93613 16.76479 126.91245 16.0923 127.88875 15.49245 128.86492 14.97197 129.84123 14.52477 130.81739 14.15623 131.7937 13.86507 132.77 13.65054 133.74616 13.51404 134.72246 13.45485 135.69863 13.47502 136.67494 13.57388 137.65125 13.7494 138.62741 14.00157 139.60372 14.33176 140.57988 14.74063 141.5562 15.22482 142.5325 15.78564 143.50867 16.42183 144.48496 17.13129 145.46112 17.91606 146.43744 18.77412 147.41374 19.70349 148.38991 20.70547 149.36621 21.77538 150.34238 22.91322 151.3187 24.1203 152.295 25.39128 153.27117 26.72615 154.24745 28.1249 155.22362 29.58484 156.19994 31.10463 157.17624 32.68092 158.1524 34.31233 159.12871 35.99823 160.10488 37.73592 161.08119 39.52402 162.0575 41.35986 163.03366 43.24146 164.00997 45.1654 164.98612 47.13171 165.96244 49.13907 166.93874 51.18002 167.9149 53.25662 168.8912 55.36482 169.86737 57.50262 170.84369 59.66664 171.81999 61.85623 172.79616 64.06665 173.77246 66.29726 174.74861 68.5433 175.72493 70.80486 176.70124 73.07782 177.6774 75.35884 178.6537 77.6466 179.62987 79.93706 180.60619 82.22818 181.58249 84.51796 182.55866 86.80301 183.53496 89.0827 184.51113 91.35098 185.48743 93.60847 186.46373 95.84982 187.4399 98.07303 188.4162 100.27806 189.39237 102.4589 190.36869 104.61485 191.34499 106.74257 192.32115 108.83934 193.29746 110.90453 194.27362 112.93471"/>
<use data-text="y" xlink:href="#font_3_4" transform="matrix(9.962899,0,0,-9.962899,101.18763,43.53682)" fill="#0000ff"/>
<use data-text="=" xlink:href="#font_4_5" transform="matrix(9.962899,0,0,-9.962899,109.19688,43.53682)" fill="#0000ff"/>
<use data-text="s" xlink:href="#font_4_8" transform="matrix(9.962899,0,0,-9.962899,119.69778,43.53682)" fill="#0000ff"/>
<use data-text="i" xlink:href="#font_4_6" transform="matrix(9.962899,0,0,-9.962899,123.623149,43.53682)" fill="#0000ff"/>
<use data-text="n" xlink:href="#font_4_7" transform="matrix(9.962899,0,0,-9.962899,126.38288,43.53682)" fill="#0000ff"/>
<use data-text="x" xlink:href="#font_3_3" transform="matrix(9.962899,0,0,-9.962899,133.60562,43.53682)" fill="#0000ff"/>
<path transform="matrix(1.00003,0,0,-1.00003,26.343377,163.19641)" d="M1.99255 80.69696C1.99255 81.79742 1.10046 82.68951 0 82.68951-1.10046 82.68951-1.99255 81.79742-1.99255 80.69696-1.99255 79.59648-1.10046 78.7044 0 78.7044 1.10046 78.7044 1.99255 79.59648 1.99255 80.69696ZM0 80.69696" fill="#ff0000"/>
<path transform="matrix(1.00003,0,0,-1.00003,26.343377,163.19641)" d="M16.98843 114.31868C16.98843 115.41914 16.09634 116.31123 14.99588 116.31123 13.8954 116.31123 13.00333 115.41914 13.00333 114.31868 13.00333 113.2182 13.8954 112.32613 14.99588 112.32613 16.09634 112.32613 16.98843 113.2182 16.98843 114.31868ZM14.99588 114.31868" fill="#ff0000"/>
<path transform="matrix(1.00003,0,0,-1.00003,26.343377,163.19641)" d="M24.48651 128.24697C24.48651 129.34745 23.59444 130.23952 22.49396 130.23952 21.3935 130.23952 20.5014 129.34745 20.5014 128.24697 20.5014 127.1465 21.3935 126.25441 22.49396 126.25441 23.59444 126.25441 24.48651 127.1465 24.48651 128.24697ZM22.49396 128.24697" fill="#ff0000"/>
<path transform="matrix(1.00003,0,0,-1.00003,26.343377,163.19641)" d="M31.9849 138.93393C31.9849 140.0344 31.09282 140.92649 29.99234 140.92649 28.89188 140.92649 27.99979 140.0344 27.99979 138.93393 27.99979 137.83345 28.89188 136.94138 29.99234 136.94138 31.09282 136.94138 31.9849 137.83345 31.9849 138.93393ZM29.99234 138.93393" fill="#ff0000"/>
<path transform="matrix(1.00003,0,0,-1.00003,26.343377,163.19641)" d="M46.98079 147.94307C46.98079 149.04355 46.08871 149.93563 44.98824 149.93563 43.88777 149.93563 42.99568 149.04355 42.99568 147.94307 42.99568 146.8426 43.88777 145.95052 44.98824 145.95052 46.08871 145.95052 46.98079 146.8426 46.98079 147.94307ZM44.98824 147.94307" fill="#ff0000"/>
<path transform="matrix(1.00003,0,0,-1.00003,26.343377,163.19641)" d="M61.97697 138.93393C61.97697 140.0344 61.08488 140.92649 59.98442 140.92649 58.88394 140.92649 57.99187 140.0344 57.99187 138.93393 57.99187 137.83345 58.88394 136.94138 59.98442 136.94138 61.08488 136.94138 61.97697 137.83345 61.97697 138.93393ZM59.98442 138.93393" fill="#ff0000"/>
<path transform="matrix(1.00003,0,0,-1.00003,26.343377,163.19641)" d="M69.47507 128.24697C69.47507 129.34745 68.583 130.23952 67.48251 130.23952 66.38205 130.23952 65.48996 129.34745 65.48996 128.24697 65.48996 127.1465 66.38205 126.25441 67.48251 126.25441 68.583 126.25441 69.47507 127.1465 69.47507 128.24697ZM67.48251 128.24697" fill="#ff0000"/>
<path transform="matrix(1.00003,0,0,-1.00003,26.343377,163.19641)" d="M76.97345 114.31934C76.97345 115.41982 76.08136 116.31189 74.9809 116.31189 73.88042 116.31189 72.98834 115.41982 72.98834 114.31934 72.98834 113.21887 73.88042 112.32678 74.9809 112.32678 76.08136 112.32678 76.97345 113.21887 76.97345 114.31934ZM74.9809 114.31934" fill="#ff0000"/>
<path transform="matrix(1.00003,0,0,-1.00003,26.343377,163.19641)" d="M91.9694 80.69696C91.9694 81.79742 91.07733 82.68951 89.97685 82.68951 88.87639 82.68951 87.9843 81.79742 87.9843 80.69696 87.9843 79.59648 88.87639 78.7044 89.97685 78.7044 91.07733 78.7044 91.9694 79.59648 91.9694 80.69696ZM89.97685 80.69696" fill="#ff0000"/>
<path transform="matrix(1.00003,0,0,-1.00003,26.343377,163.19641)" d="M106.96579 47.07455C106.96579 48.17503 106.07372 49.06711 104.97324 49.06711 103.87277 49.06711 102.98068 48.17503 102.98068 47.07455 102.98068 45.97409 103.87277 45.082 104.97324 45.082 106.07372 45.082 106.96579 45.97409 106.96579 47.07455ZM104.97324 47.07455" fill="#ff0000"/>
<path transform="matrix(1.00003,0,0,-1.00003,26.343377,163.19641)" d="M114.45816 33.15634C114.45816 34.25682 113.56609 35.1489 112.4656 35.1489 111.36514 35.1489 110.47305 34.25682 110.47305 33.15634 110.47305 32.05588 111.36514 31.16379 112.4656 31.16379 113.56609 31.16379 114.45816 32.05588 114.45816 33.15634ZM112.4656 33.15634" fill="#ff0000"/>
<path transform="matrix(1.00003,0,0,-1.00003,26.343377,163.19641)" d="M121.9591 22.46266C121.9591 23.56314 121.06703 24.45522 119.96655 24.45522 118.86609 24.45522 117.974 23.56314 117.974 22.46266 117.974 21.3622 118.86609 20.47011 119.96655 20.47011 121.06703 20.47011 121.9591 21.3622 121.9591 22.46266ZM119.96655 22.46266" fill="#ff0000"/>
<path transform="matrix(1.00003,0,0,-1.00003,26.343377,163.19641)" d="M136.95787 13.45082C136.95787 14.5513 136.06578 15.44337 134.96532 15.44337 133.86484 15.44337 132.97277 14.5513 132.97277 13.45082 132.97277 12.35036 133.86484 11.45827 134.96532 11.45827 136.06578 11.45827 136.95787 12.35036 136.95787 13.45082ZM134.96532 13.45082" fill="#ff0000"/>
<path transform="matrix(1.00003,0,0,-1.00003,26.343377,163.19641)" d="M151.95148 22.4566C151.95148 23.55707 151.05939 24.44916 149.95893 24.44916 148.85845 24.44916 147.96637 23.55707 147.96637 22.4566 147.96637 21.35612 148.85845 20.46405 149.95893 20.46405 151.05939 20.46405 151.95148 21.35612 151.95148 22.4566ZM149.95893 22.4566" fill="#ff0000"/>
<path transform="matrix(1.00003,0,0,-1.00003,26.343377,163.19641)" d="M159.44956 33.1429C159.44956 34.24338 158.55748 35.13545 157.457 35.13545 156.35654 35.13545 155.46445 34.24338 155.46445 33.1429 155.46445 32.04243 156.35654 31.15034 157.457 31.15034 158.55748 31.15034 159.44956 32.04243 159.44956 33.1429ZM157.457 33.1429" fill="#ff0000"/>
<path transform="matrix(1.00003,0,0,-1.00003,26.343377,163.19641)" d="M166.95052 47.07523C166.95052 48.1757 166.05844 49.06778 164.95796 49.06778 163.8575 49.06778 162.96541 48.1757 162.96541 47.07523 162.96541 45.97476 163.8575 45.08267 164.95796 45.08267 166.05844 45.08267 166.95052 45.97476 166.95052 47.07523ZM164.95796 47.07523" fill="#ff0000"/>
<path transform="matrix(1.00003,0,0,-1.00003,26.343377,163.19641)" d="M181.94628 80.69696C181.94628 81.79742 181.05419 82.68951 179.95372 82.68951 178.85324 82.68951 177.96117 81.79742 177.96117 80.69696 177.96117 79.59648 178.85324 78.7044 179.95372 78.7044 181.05419 78.7044 181.94628 79.59648 181.94628 80.69696ZM179.95372 80.69696" fill="#ff0000"/>
</g>
<use data-text="x" xlink:href="#font_3_3" transform="matrix(9.962899,0,0,-9.962899,211.40894,78.976879)"/>
<use data-text="y" xlink:href="#font_3_4" transform="matrix(9.962899,0,0,-9.962899,29.86348,9.606796)"/>
</svg>
