<svg xmlns="http://www.w3.org/2000/svg" xmlns:xlink="http://www.w3.org/1999/xlink" xmlns:inkscape="http://www.inkscape.org/namespaces/inkscape" version="1.1" width="290" height="222" viewBox="0 0 290 222">
<defs>
<path id="font_1_1" d="M.6589966 .23046875C.6759949 .23046875 .69400027 .23046875 .69400027 .25045777 .69400027 .27046205 .6759949 .27046205 .6589966 .27046205H.117996219C.100997928 .27046205 .08299255 .27046205 .08299255 .25045777 .08299255 .23046875 .100997928 .23046875 .117996219 .23046875H.6589966Z"/>
<path id="font_2_1" d="M.2939911 .64004519C.2939911 .66400149 .2939911 .6660156 .2709961 .6660156 .20899964 .60227969 .12098694 .60227969 .08898926 .60227969V.57128909C.10899353 .57128909 .16799927 .57128909 .21998596 .5972748V.07902527C.21998596 .042999269 .21699524 .0309906 .1269989 .0309906H.09498596V0C.12998963 .0029907227 .21699524 .0029907227 .25698854 .0029907227 .29699708 .0029907227 .38398744 .0029907227 .4189911 0V.0309906H.3869934C.29699708 .0309906 .2939911 .041992189 .2939911 .07902527V.64004519Z"/>
<path id="font_3_1" d="M.3829956 .3976593H.47599793C.49598695 .3976593 .5079956 .3976593 .5079956 .4166565 .5079956 .43066407 .49499513 .43066407 .47799684 .43066407H.3889923C.40499879 .5209503 .4149933 .578125 .4249878 .62312319 .42900086 .64012148 .43199159 .65112307 .44699098 .66311648 .45999146 .6741028 .46798707 .6760864 .47898866 .6760864 .49398805 .6760864 .5099945 .6730957 .522995 .66511538 .5179901 .66311648 .5119934 .66012576 .5069885 .65711978 .48999024 .6481323 .47799684 .63012698 .47799684 .6101227 .47799684 .5871277 .49598695 .5731201 .5179901 .5731201 .5469971 .5731201 .57398989 .5981293 .57398989 .6331177 .57398989 .6800995 .526001 .70410159 .47799684 .70410159 .44400025 .70410159 .3809967 .6880951 .34899903 .5961304 .33999635 .5731201 .33999635 .5711212 .31298829 .43066407H.23799134C.21798706 .43066407 .20599365 .43066407 .20599365 .4116516 .20599365 .3976593 .21899414 .3976593 .23599243 .3976593H.30699159L.23498535 .00982666C.21598816-.09114075 .20098877-.17610169 .147995-.17610169 .14498902-.17610169 .12399292-.17610169 .10499573-.1641388 .15098572-.1531372 .15098572-.11114502 .15098572-.11013794 .15098572-.087142948 .1329956-.073135379 .11099243-.073135379 .083999637-.073135379 .054992677-.09614563 .054992677-.13414002 .054992677-.17610169 .09799194-.20410156 .147995-.20410156 .20899964-.20410156 .25099183-.14013672 .2639923-.11514282 .2999878-.04914856 .32299806 .075790408 .32499696 .08578491L.3829956 .3976593Z"/>
<path id="font_4_1" d="M.33299256-.25C.34098817-.25 .35299684-.25 .35299684-.23800659 .35299684-.23400879 .35198976-.23300171 .33898927-.22000122 .20199585-.09100342 .16799927 .09498596 .16799927 .25 .16799927 .5379944 .2869873 .6729889 .33799745 .71899417 .35198976 .7319946 .35299684 .73298647 .35299684 .73799136 .35299684 .7429962 .34899903 .75 .33898927 .75 .32299806 .75 .272995 .69898989 .2649994 .6899872 .1309967 .5499878 .102996829 .36999513 .102996829 .25 .102996829 .025985718 .19699097-.15400696 .33299256-.25Z"/>
<path id="font_3_2" d="M.5009918 .39942933C.45700074 .38842774 .45498658 .34942628 .45498658 .34542848 .45498658 .3234253 .47200013 .3084259 .49398805 .3084259 .5159912 .3084259 .5499878 .3254242 .5499878 .36842347 .5499878 .42539979 .4869995 .44140626 .44999696 .44140626 .40299989 .44140626 .36499024 .4084015 .34199525 .36943055 .31999208 .4223938 .2679901 .44140626 .22698975 .44140626 .117996219 .44140626 .056991579 .31643678 .056991579 .28840638 .056991579 .27938844 .06399536 .27539063 .07199097 .27539063 .083999637 .27539063 .085998538 .2803955 .08898926 .29240418 .11199951 .36543275 .17199707 .4133911 .22399903 .4133911 .2630005 .4133911 .28199769 .385437 .28199769 .34942628 .28199769 .32943727 .269989 .2834015 .2619934 .25135804 .25498963 .22232056 .23298645 .13320923 .22799683 .11419678 .21398926 .060195924 .17799378 .018234253 .1329956 .018234253 .1289978 .018234253 .102996829 .018234253 .08198547 .032196046 .12799073 .04319763 .12799073 .08518982 .12799073 .0861969 .12799073 .109191898 .10998535 .12319946 .08799744 .12319946 .06098938 .12319946 .03199768 .10018921 .03199768 .062194826 .03199768 .016220093 .08099365-.009765625 .13198853-.009765625 .18499756-.009765625 .22200012 .030197144 .23999024 .062194826 .2619934 .01322937 .30799867-.009765625 .35598756-.009765625 .46499635-.009765625 .5249939 .1151886 .5249939 .143219 .5249939 .15322876 .5169983 .15623474 .5099945 .15623474 .49798585 .15623474 .49598695 .14923096 .49299623 .13922119 .47299195 .07218933 .41600038 .018234253 .35798646 .018234253 .32499696 .018234253 .30099488 .04019165 .30099488 .0821991 .30099488 .10218811 .30699159 .12519837 .32099916 .18127442 .32798768 .21130371 .34999085 .29942323 .35499574 .31843568 .36898805 .37042237 .4039917 .4133911 .44898988 .4133911 .45399476 .4133911 .47999574 .4133911 .5009918 .39942933Z"/>
<path id="font_4_2" d="M.30899049 .25C.30899049 .34500123 .29299928 .45899964 .23098755 .57699587 .18199158 .6689911 .09098816 .75 .07299805 .75 .06298828 .75 .05999756 .7429962 .05999756 .73799136 .05999756 .73399356 .05999756 .7319946 .07199097 .7200012 .21199036 .58699038 .24398804 .4039917 .24398804 .25 .24398804-.037002565 .125-.17300415 .07398987-.2190094 .06098938-.23200989 .05999756-.23300171 .05999756-.23800659 .05999756-.24301148 .06298828-.25 .07299805-.25 .08898926-.25 .13899231-.19900513 .14698792-.19000244 .2809906-.05000305 .30899049 .12998963 .30899049 .25Z"/>
<path id="font_4_3" d="M.73098757 .3330078C.74598696 .3330078 .7659912 .3330078 .7659912 .3560028 .7659912 .3789978 .74198916 .3789978 .72698977 .3789978H.09799194C.08299255 .3789978 .05899048 .3789978 .05899048 .3560028 .05899048 .3330078 .07899475 .3330078 .09399414 .3330078H.73098757M.72698977 .12098694C.74198916 .12098694 .7659912 .12098694 .7659912 .14398194 .7659912 .16699219 .74598696 .16699219 .73098757 .16699219H.09399414C.07899475 .16699219 .05899048 .16699219 .05899048 .14398194 .05899048 .12098694 .08299255 .12098694 .09799194 .12098694H.72698977Z"/>
<path id="font_4_6" d="M.18598938 .3976593H.33499146V.43066407H.18598938V.6147156H.15499878C.1539917 .5236969 .11299133 .4286499 .019989014 .42565919V.3976593H.10998535V.1250763C.10998535 .008224487 .19999695-.009765625 .24598694-.009765625 .31298829-.009765625 .35299684 .050186159 .35299684 .1250763V.1809845H.32199098V.12705994C.32199098 .058166505 .29100038 .021224976 .25299073 .021224976 .18598938 .021224976 .18598938 .10710144 .18598938 .12307739V.3976593Z"/>
<path id="font_4_4" d="M.41999818 .29855348C.41999818 .39653016 .32499696 .44628907 .23399353 .44628907 .15098572 .44628907 .07699585 .4143219 .07699585 .34857179 .07699585 .318573 .09799194 .30056764 .12399292 .30056764 .1519928 .30056764 .17098999 .3205719 .17098999 .3475647 .17098999 .37156678 .1559906 .38856507 .13398743 .3935547 .17098999 .41827394 .22499085 .41827394 .23199463 .41827394 .28799439 .41827394 .34399415 .37957765 .34399415 .2975464V.2662201C.28599549 .26322938 .21899414 .2602234 .14898682 .23123169 .06098938 .19322205 .04399109 .13522339 .04399109 .10223389 .04399109 .016220093 .14498902-.009765625 .21398926-.009765625 .2869873-.009765625 .33198548 .031219483 .35398866 .07122803 .35899354 .033233644 .3849945-.004776001 .42900086-.004776001 .43899537-.004776001 .5239868-.00077819827 .5239868 .09022522V.14523316H.49299623V.09022522C.49299623 .049224855 .47799684 .033233644 .45700074 .033233644 .41999818 .033233644 .41999818 .07922363 .41999818 .09022522V.29855348M.34399415 .1412201C.34399415 .04421997 .2619934 .018234253 .22200012 .018234253 .16999817 .018234253 .12599182 .053222658 .12599182 .10122681 .12599182 .16722107 .18798828 .23522949 .34399415 .24023438V.1412201Z"/>
<path id="font_4_5" d="M.48599244 .3032837C.48599244 .38737489 .44799806 .44140626 .34298707 .44140626 .24398804 .44140626 .19898987 .36935426 .18699646 .34532167H.18598938V.44140626L.040985109 .43040467V.39738465C.10899353 .39738465 .116989139 .39038087 .116989139 .34132386V.07803345C.116989139 .032989503 .10499573 .032989503 .040985109 .032989503V0C.083999637 .0029907227 .12799073 .0029907227 .15499878 .0029907227 .18399048 .0029907227 .22599793 .0029907227 .2689972 0V.032989503C.20498657 .032989503 .19299317 .032989503 .19299317 .07803345V.25923158C.19299317 .36434938 .272995 .4133911 .33399964 .4133911 .394989 .4133911 .4099884 .37036134 .4099884 .3072815V.07803345C.4099884 .032989503 .397995 .032989503 .33399964 .032989503V0C.3769989 .0029907227 .42099 .0029907227 .44799806 .0029907227 .47698976 .0029907227 .5189972 .0029907227 .56199648 0V.032989503C.49798585 .032989503 .48599244 .032989503 .48599244 .07803345V.3032837Z"/>
<path id="font_5_1" d="M.79599 .22436524C.81199648 .22436524 .83699038 .22436524 .83699038 .2503662 .83699038 .2763672 .81199648 .2763672 .79599 .2763672H.1659851C.1499939 .2763672 .125 .2763672 .125 .2503662 .125 .22436524 .1499939 .22436524 .1659851 .22436524H.79599Z"/>
<path id="font_6_1" d="M.35899354 .6349335C.35899354 .66503909 .35499574 .66503909 .32499696 .66503909 .25898744 .60058596 .15699768 .60058596 .12098694 .60058596V.5615845C.14698792 .5615845 .21299744 .5615845 .272995 .58958438V.08496094C.272995 .051986696 .272995 .038986207 .16999817 .038986207H.1269989V0C.18199158 .0039978029 .2599945 .0039978029 .31599427 .0039978029 .37199403 .0039978029 .44999696 .0039978029 .5049896 0V.038986207H.46199037C.35899354 .038986207 .35899354 .051986696 .35899354 .08496094V.6349335Z"/>
<path id="font_7_2" d="M.48599244 .38136292C.48999024 .39537049 .48999024 .39736939 .48999024 .40437318 .48999024 .42237855 .47599793 .43138124 .46099855 .43138124 .45098878 .43138124 .43499757 .42536927 .42599488 .41036988 .42399598 .405365 .41600038 .37435914 .4119873 .35635377 .40499879 .33035279 .397995 .30334474 .3919983 .27633668L.34700013 .09628296C.34298707 .08126831 .2999878 .011245728 .23399353 .011245728 .18299866 .011245728 .17199707 .055267335 .17199707 .0922699 .17199707 .1382904 .18899536 .20030213 .22299195 .28833009 .23899842 .3293457 .24299622 .3403473 .24299622 .36035157 .24299622 .405365 .21099854 .4423828 .16099549 .4423828 .06599426 .4423828 .0289917 .29733277 .0289917 .28833009 .0289917 .27833558 .038986207 .27833558 .040985109 .27833558 .050994874 .27833558 .051986696 .28033448 .056991579 .29634095 .083999637 .3903656 .12399292 .42037965 .1579895 .42037965 .1659851 .42037965 .18299866 .42037965 .18299866 .3883667 .18299866 .36335755 .17298889 .3373413 .1659851 .31834413 .12599182 .21231079 .10798645 .1552887 .10798645 .10827637 .10798645 .019256592 .17098999-.0107421879 .22999573-.0107421879 .2689972-.0107421879 .30299378 .0062561037 .33099366 .03425598 .31799317-.017745972 .30599977-.06674194 .2659912-.11973572 .23999024-.15385437 .20199585-.18309021 .1559906-.18309021 .14199829-.18309021 .09700012-.18005371 .07998657-.14074707 .09599304-.14074707 .10899353-.14074707 .12298584-.1287384 .1329956-.11973572 .14299011-.10673523 .14299011-.08773804 .14299011-.056747438 .115997318-.052734376 .10598755-.052734376 .08299255-.052734376 .049987794-.068740848 .049987794-.11773682 .049987794-.16796875 .09399414-.20507813 .1559906-.20507813 .25898744-.20507813 .3619995-.11373901 .3899994-.00074768069L.48599244 .38136292Z"/>
<path id="font_2_2" d="M.68699648 .32714845C.70199587 .32714845 .72099307 .32714845 .72099307 .34713746 .72099307 .36714173 .70199587 .36714173 .6879883 .36714173H.08898926C.07499695 .36714173 .055999757 .36714173 .055999757 .34713746 .055999757 .32714845 .07499695 .32714845 .08999634 .32714845H.68699648M.6879883 .13284302C.70199587 .13284302 .72099307 .13284302 .72099307 .15284729 .72099307 .17285156 .70199587 .17285156 .68699648 .17285156H.08999634C.07499695 .17285156 .055999757 .17285156 .055999757 .15284729 .055999757 .13284302 .07499695 .13284302 .08898926 .13284302H.6879883Z"/>
<path id="font_8_1" d="M.31098939 .36265565H.42999269C.4149933 .30274964 .3929901 .2118988 .3929901 .13302613 .3929901 .09309387 .397995 .06613159 .4039917 .044174196 .41999818-.0057678224 .43299867-.009765625 .44898988-.009765625 .47200013-.009765625 .49598695 .011230469 .49598695 .035186769 .49598695 .043182374 .49398805 .047164918 .48799134 .057159425 .46899415 .09408569 .45098878 .15100098 .45098878 .23286438 .45098878 .25183106 .45098878 .29177857 .46499635 .36265565H.58999636C.60798647 .36265565 .6159973 .36265565 .6269989 .37065126 .6409912 .380661 .6439972 .39665223 .6439972 .4016571 .6439972 .43066407 .6179962 .43066407 .6009979 .43066407H.22399903C.18299866 .43066407 .15499878 .42166139 .10998535 .37965394 .083999637 .35665895 .04499817 .30274964 .04499817 .2937622 .04499817 .28178407 .057998659 .28178407 .06199646 .28178407 .07299805 .28178407 .07398987 .28378297 .07998657 .2927704 .1309967 .36265565 .19299317 .36265565 .21499634 .36265565H.27598573C.24499512 .25283814 .19099427 .13502503 .16099549 .07511902 .15499878 .062149049 .14498902 .04118347 .14199829 .03718567 .14099121 .033187868 .13899231 .029190064 .13899231 .022201539 .13899231 .006225586 .15098572-.009765625 .17399597-.009765625 .21398926-.009765625 .22499085 .035186769 .24899292 .12504578L.31098939 .36265565Z"/>
<path id="font_9_1" d="M.5049896 .18203736H.47099305C.46798707 .16001892 .45799256 .100997928 .44499208 .09098816 .43699647 .084991458 .3600006 .084991458 .34599305 .084991458H.1619873C.2669983 .17803955 .3019867 .20603943 .3619995 .25306703 .43598939 .312088 .5049896 .374115 .5049896 .46914674 .5049896 .5900879 .39898683 .6640625 .2709961 .6640625 .14698792 .6640625 .06298828 .57710269 .06298828 .4851532 .06298828 .43414308 .10598755 .42915345 .115997318 .42915345 .13999939 .42915345 .16899109 .44615174 .16899109 .48214723 .16899109 .5001526 .1619873 .53515627 .10998535 .53515627 .14099121 .6060791 .20899964 .62805178 .2559967 .62805178 .35598756 .62805178 .4079895 .5501404 .4079895 .46914674 .4079895 .38212586 .34599305 .3130951 .31399537 .27708436L.07299805 .038986207C.06298828 .02999878 .06298828 .027999878 .06298828 0H.47499085L.5049896 .18203736Z"/>
<path id="font_7_1" d="M.33399964 .30233766C.33999635 .32835389 .36299134 .42037965 .43299867 .42037965 .43798829 .42037965 .46199037 .42037965 .48298646 .40734864 .45498658 .402359 .43499757 .37734986 .43499757 .35334779 .43499757 .33735658 .44599916 .31835938 .47299195 .31835938 .49499513 .31835938 .5269928 .3363495 .5269928 .37635804 .5269928 .42837525 .46798707 .4423828 .43399049 .4423828 .37599183 .4423828 .34098817 .38935853 .32899476 .36634828 .3039856 .43237306 .25 .4423828 .22099304 .4423828 .116989139 .4423828 .05999756 .3133545 .05999756 .28834535 .05999756 .27833558 .069992069 .27833558 .07199097 .27833558 .07998657 .27833558 .08299255 .28033448 .084991458 .28933717 .11898804 .39535523 .18499756 .42037965 .21899414 .42037965 .23799134 .42037965 .272995 .4113617 .272995 .35334779 .272995 .32235719 .2559967 .25532533 .21899414 .11528015 .20298767 .053268434 .16799927 .011245728 .12399292 .011245728 .117996219 .011245728 .09498596 .011245728 .07398987 .024276734 .09899902 .029266358 .12098694 .05027771 .12098694 .07827759 .12098694 .105270389 .09899902 .11328125 .083999637 .11328125 .053985597 .11328125 .0289917 .08728027 .0289917 .055267335 .0289917 .009246826 .07899475-.0107421879 .12298584-.0107421879 .18899536-.0107421879 .22499085 .059280397 .22799683 .0652771 .23999024 .028274537 .27598573-.0107421879 .33599855-.0107421879 .43899537-.0107421879 .49598695 .118270877 .49598695 .14328003 .49598695 .1532898 .4869995 .1532898 .48399354 .1532898 .47499085 .1532898 .47299195 .14929199 .47099305 .14228821 .43798829 .03527832 .36999513 .011245728 .33799745 .011245728 .29899598 .011245728 .2829895 .043273927 .2829895 .07727051 .2829895 .09927368 .2889862 .121276859 .2999878 .16529846L.33399964 .30233766Z"/>
</defs>
<path transform="matrix(1.250075,0,0,-1.250025,1.1462402,203.66208)" stroke-width=".19925" stroke-linecap="butt" stroke-miterlimit="10" stroke-linejoin="miter" fill="none" stroke="#7f807f" d="M59.35153 78.5727V82.82439M134.92057 78.5727V82.82439"/>
<path transform="matrix(1.250075,0,0,-1.250025,1.1462402,203.66208)" stroke-width=".19925" stroke-linecap="butt" stroke-miterlimit="10" stroke-linejoin="miter" fill="none" stroke="#7f807f" d="M95.01015 49.30797H99.26193M95.01015 112.08911H99.26193"/>
<path transform="matrix(1.250075,0,0,-1.250025,1.1462402,203.66208)" stroke-width=".3985" stroke-linecap="butt" stroke-miterlimit="10" stroke-linejoin="miter" fill="none" stroke="#000000" d="M0 80.69853H192.27957"/>
<path transform="matrix(1.250075,0,0,-1.250025,241.51012,102.786899)" d="M1.99252 0-1.19551 1.59401 0 0-1.19551-1.59401"/>
<path transform="matrix(1.250075,0,0,-1.250025,1.1462402,203.66208)" stroke-width=".3985" stroke-linecap="butt" stroke-miterlimit="10" stroke-linejoin="miter" fill="none" stroke="#000000" d="M97.13605 0V159.40456"/>
<path transform="matrix(0,-1.250025,-1.250075,-0,122.573589,4.4023897)" d="M1.99252 0-1.19551 1.59401 0 0-1.19551-1.59401"/>
<use data-text="&#x2212;" xlink:href="#font_1_1" transform="matrix(12.453997,0,0,-12.453499,67.38271,117.87035)"/>
<use data-text="1" xlink:href="#font_2_1" transform="matrix(12.453997,0,0,-12.453499,77.06955,117.87035)"/>
<use data-text="1" xlink:href="#font_2_1" transform="matrix(12.453997,0,0,-12.453499,166.69367,117.87035)"/>
<use data-text="&#x2212;" xlink:href="#font_1_1" transform="matrix(12.453997,0,0,-12.453499,99.60215,145.51967)"/>
<use data-text="1" xlink:href="#font_2_1" transform="matrix(12.453997,0,0,-12.453499,109.28899,145.51967)"/>
<use data-text="1" xlink:href="#font_2_1" transform="matrix(12.453997,0,0,-12.453499,109.28898,67.56061)"/>
<path transform="matrix(1.250075,0,0,-1.250025,1.1462402,203.66208)" stroke-width=".99628" stroke-linecap="butt" stroke-miterlimit="10" stroke-linejoin="miter" fill="none" stroke="#00aeef" d="M53.704 10.67374 53.5969 10.12 54.03891 12.28468 54.48093 14.3436 54.92294 16.30707 55.36497 18.17416 55.807 19.95654 56.24901 21.65884 56.69104 23.2902 57.13306 24.85408 57.57509 26.35143 58.0171 27.79004 58.45912 29.17249 58.90115 30.50314 59.34319 31.78575 59.78519 33.0235 60.22722 34.2154 60.66925 35.36774 61.11127 36.48366 61.55328 37.56006 61.99532 38.60506 62.43733 39.61676 62.87936 40.5996 63.32137 41.55042 63.7634 42.47614 64.20543 43.37578 64.64745 44.24937 65.08946 45.10007 65.53148 45.92877 65.97351 46.7355 66.41554 47.52248 66.85754 48.2906 67.29958 49.0402 67.7416 49.77255 68.18362 50.48763 68.62564 51.187 69.06766 51.87164 69.50969 52.54057 69.9517 53.19727 70.39372 53.83952 70.83575 54.46889 71.27779 55.08635 71.71979 55.69313 72.16182 56.28766 72.60385 56.87152 73.04587 57.44597 73.48788 58.00943 73.9299 58.5638 74.37193 59.10936 74.81395 59.64552 75.25597 60.17319 75.698 60.69427 76.14001 61.20688 76.58205 61.71227 77.02406 62.21042 77.46608 62.70074 77.90811 63.18605 78.35014 63.66444 78.79214 64.13719 79.23418 64.60365 79.67621 65.06445 80.11823 65.51994 80.56024 65.9707 81.00226 66.41614 81.44429 66.85748 81.88632 67.29413 82.32832 67.72577 82.77036 68.15393 83.21237 68.57832 83.6544 68.99739 84.09642 69.41362 84.53844 69.82704 84.98047 70.23701 85.42249 70.64381 85.8645 71.04655 86.30653 71.44742 86.74855 71.84514 87.19057 72.24066 87.6326 72.63336 88.07462 73.02354 88.51665 73.41183 88.95866 73.79701 89.40068 74.18091 89.84271 74.56325 90.28474 74.94402 90.72675 75.32259 91.16878 75.6999 91.6108 76.07597 92.05283 76.44981 92.49484 76.82368 92.93686 77.19566 93.37889 77.56711 93.82092 77.93802 94.26292 78.30707 94.70496 78.67613 95.14697 79.04475 95.589 79.41318 96.03102 79.78023 96.47304 80.1482 96.91507 80.5152 97.3571 80.88187 97.79913 81.24889 98.24112 81.61621 98.68317 81.98389 99.12515 82.35231 99.5672 82.72093 100.00925 83.09 100.45123 83.45967 100.89328 83.82997 101.33525 84.20142 101.77731 84.57338 102.21936 84.94725 102.66135 85.32173 103.1034 85.69716 103.54536 86.0745 103.98743 86.45305 104.42946 86.83382 104.87144 87.21616 105.3135 87.59912 105.7555 87.98523 106.19753 88.37321 106.63957 88.76465 107.08156 89.1564 107.52362 89.55193 107.96559 89.94965 108.40764 90.35112 108.84969 90.75388 109.29167 91.16101 109.73372 91.57002 110.1757 91.98344 110.61775 92.39969 111.0598 92.81906 111.50179 93.24345 111.94383 93.67131 112.38582 94.10387 112.82787 94.54019 113.26991 94.98093 113.7119 95.42635 114.15395 95.8765 114.59593 96.33292 115.03798 96.79343 115.48003 97.25987 115.92201 97.73264 116.36406 98.21101 116.80603 98.69632 117.2481 99.18726 117.69014 99.68481 118.13213 100.1902 118.57416 100.70311 119.01616 101.22325 119.4582 101.75156 119.90025 102.28802 120.34222 102.83327 120.78429 103.38763 121.22626 103.95172 121.6683 104.5246 122.11035 105.1094 122.55234 105.70393 122.9944 106.31073 123.43637 106.92755 123.87842 107.55786 124.32047 108.19981 124.76245 108.85649 125.2045 109.52542 125.64648 110.21007 126.08853 110.90944 126.5306 111.62483 126.97255 112.35686 127.41461 113.10678 127.8566 113.87459 128.29865 114.66125 128.74068 115.46829 129.18268 116.29796 129.62473 117.14862 130.06671 118.02286 130.50875 118.9222 130.9508 119.84758 131.39279 120.79842 131.83484 121.78094 132.27681 122.79202 132.71887 123.83545 133.16092 124.91466 133.6029 126.02933 134.04494 127.18169 134.48693 128.37548 134.92899 129.60944 135.37104 130.89394 135.813 132.22458 136.25505 133.60826 136.69705 135.04564 137.1391 136.54454 137.58113 138.10591 138.02312 139.73822 138.46518 141.44054 138.90714 143.22446 139.3492 145.09252 139.79125 147.05002 140.23323 149.11238 140.67528 151.27709 140.56761 150.72154"/>
<path transform="matrix(-.23758926,1.2272121,1.2272612,.23757977,68.28028,190.31963)" d="M2.8892 0-1.73352 2.31136 0 0-1.73352-2.31136" fill="#00aeef"/>
<path transform="matrix(.23782677,-1.2271745,-1.2272236,-.23781726,176.8663,15.256393)" d="M2.8892 0-1.73352 2.31136 0 0-1.73352-2.31136" fill="#00aeef"/>
<use data-text="f" xlink:href="#font_3_1" transform="matrix(9.9632229,0,0,-9.962825,127.727588,9.220688)" fill="#00aeef"/>
<use data-text="(" xlink:href="#font_4_1" transform="matrix(9.9632229,0,0,-9.962825,133.91172,9.220688)" fill="#00aeef"/>
<use data-text="x" xlink:href="#font_3_2" transform="matrix(9.9632229,0,0,-9.962825,138.0282,9.220688)" fill="#00aeef"/>
<use data-text=")" xlink:href="#font_4_2" transform="matrix(9.9632229,0,0,-9.962825,143.9873,9.220688)" fill="#00aeef"/>
<use data-text="=" xlink:href="#font_4_3" transform="matrix(9.9632229,0,0,-9.962825,151.04126,9.220688)" fill="#00aeef"/>
<use data-text="t" xlink:href="#font_4_6" transform="matrix(9.9632229,0,0,-9.962825,162.21004,9.220688)" fill="#00aeef"/>
<use data-text="a" xlink:href="#font_4_4" transform="matrix(9.9632229,0,0,-9.962825,166.32486,9.220688)" fill="#00aeef"/>
<use data-text="n" xlink:href="#font_4_5" transform="matrix(9.9632229,0,0,-9.962825,171.61533,9.220688)" fill="#00aeef"/>
<use data-text="x" xlink:href="#font_3_2" transform="matrix(9.9632229,0,0,-9.962825,179.27443,9.220688)" fill="#00aeef"/>
<path transform="matrix(1.250075,0,0,-1.250025,1.1462402,203.66208)" stroke-width=".99628" stroke-linecap="butt" stroke-miterlimit="10" stroke-linejoin="miter" fill="none" stroke="#ff8000" d="M12.31033 44.53732 10.32741 44.27556 11.2087 44.3941 12.09001 44.51236 12.9713 44.63533 13.8526 44.7579 14.73389 44.88522 15.61519 45.01212 16.49648 45.14359 17.37778 45.27722 18.2591 45.4128 19.14038 45.55038 20.02168 45.68983 20.90297 45.8338 21.78427 45.97968 22.66556 46.12738 23.54688 46.27925 24.42816 46.4329 25.30946 46.59079 26.19075 46.75015 27.07205 46.91356 27.95335 47.08081 28.83466 47.25192 29.71596 47.42459 30.59724 47.60072 31.47855 47.78058 32.35983 47.9663 33.24113 48.15286 34.12244 48.34526 35.00374 48.54073 35.88504 48.73944 36.76633 48.94308 37.64763 49.15216 38.52892 49.36594 39.41022 49.5822 40.29152 49.80312 41.17282 50.03061 42.05411 50.26237 42.93541 50.50023 43.8167 50.74193 44.698 50.98917 45.5793 51.24184 46.4606 51.50168 47.34189 51.76646 48.22319 52.03548 49.10449 52.3128 49.98578 52.59584 50.8671 52.88606 51.74838 53.18132 52.62968 53.48485 53.51097 53.79599 54.39227 54.11255 55.27356 54.43718 56.15488 54.76964 57.03616 55.11053 57.91747 55.45935 58.79877 55.81526 59.68005 56.18173 60.56136 56.555 61.44264 56.93752 62.32396 57.32901 63.20525 57.7296 64.08655 58.13985 64.96783 58.55936 65.84914 58.98883 66.73042 59.42798 67.61174 59.87756 68.49303 60.3374 69.37433 60.80762 70.25562 61.28856 71.13692 61.77968 72.0182 62.28232 72.89952 62.79572 73.7808 63.31967 74.66211 63.85506 75.54341 64.4013 76.4247 64.95895 77.306 65.52719 78.1873 66.10686 79.0686 66.69775 79.94989 67.29854 80.83119 67.91075 81.71248 68.53311 82.59378 69.16585 83.47507 69.80873 84.35638 70.46057 85.23769 71.12239 86.11897 71.7927 87.00027 72.47186 87.88156 73.15863 88.76286 73.85309 89.64417 74.55444 90.52547 75.26147 91.40675 75.97476 92.28806 76.69272 93.16936 77.4152 94.05064 78.14055 94.93196 78.86961 95.81325 79.60031 96.69455 80.3316 97.57584 81.0639 98.45718 81.79549 99.3384 82.52621 100.21974 83.25494 101.10098 83.98033 101.98233 84.70314 102.86366 85.42076 103.74489 86.13405 104.62624 86.84174 105.50745 87.5428 106.38881 88.23726 107.27016 88.92393 108.15137 89.60301 109.03271 90.27339 109.91394 90.9351 110.79529 91.58766 111.67665 92.23015 112.55786 92.86287 113.43921 93.48503 114.32042 94.09714 115.20178 94.69841 116.08313 95.28902 116.96436 95.86868 117.8457 96.43723 118.72691 96.99467 119.60826 97.54083 120.48961 98.07631 121.37083 98.60036 122.25218 99.11386 123.1334 99.6163 124.01476 100.10762 124.8961 100.58867 125.77731 101.05867 126.65866 101.51842 127.53989 101.9679 128.42125 102.40746 129.30258 102.83693 130.1838 103.25633 131.06516 103.66658 131.94637 104.06705 132.82772 104.45866 133.70908 104.8412 134.5903 105.21475 135.47164 105.58014 136.35286 105.93773 137.2342 106.28484 138.11556 106.62576 138.99678 106.95819 139.87813 107.28294 140.75936 107.60107 141.6407 107.91223 142.52205 108.21399 143.40326 108.51102 144.2846 108.80124 145.16584 109.08426 146.04718 109.3597 146.92853 109.6306 147.80976 109.8954 148.6911 110.15524 149.57231 110.4079 150.45368 110.65514 151.33502 110.89684 152.21623 111.1347 153.09758 111.36646 153.9788 111.59167 154.86016 111.81487 155.74152 112.03113 156.62273 112.24492 157.50408 112.45161 158.38529 112.65762 159.26665 112.85634 160.14798 113.0518 161.02922 113.24422 161.91057 113.43079 162.79178 113.61649 163.67313 113.79634 164.55448 113.97247 165.43569 114.14516 166.31703 114.31625 167.19828 114.48352 168.07962 114.64456 168.96097 114.80629 169.84218 114.96416 170.72353 115.11783 171.60474 115.26968 172.4861 115.41739 173.36745 115.56326 174.24868 115.70723 175.13002 115.84668 176.01123 115.98427 176.89258 116.11986 177.77394 116.2535 178.65515 116.38237 179.5365 116.51184 180.41773 116.63916 181.29907 116.76175 182.18042 116.88472 183.06165 117.00296 183.943 117.1215 181.95999 116.85974"/>
<path transform="matrix(-1.2392619,.16359078,.16359732,1.2392123,16.5351,147.98932)" d="M2.8892 0-1.73352 2.31136 0 0-1.73352-2.31136" fill="#ff8000"/>
<path transform="matrix(1.2392619,-.16359078,-.16359732,-1.2392123,228.60985,57.584474)" d="M2.8892 0-1.73352 2.31136 0 0-1.73352-2.31136" fill="#ff8000"/>
<use data-text="f" xlink:href="#font_3_1" transform="matrix(9.9632229,0,0,-9.962825,212.32016,70.20441)" fill="#ff8000"/>
<use data-text="(" xlink:href="#font_4_1" transform="matrix(9.9632229,0,0,-9.962825,218.50428,70.20441)" fill="#ff8000"/>
<use data-text="x" xlink:href="#font_3_2" transform="matrix(9.9632229,0,0,-9.962825,222.62078,70.20441)" fill="#ff8000"/>
<use data-text=")" xlink:href="#font_4_2" transform="matrix(9.9632229,0,0,-9.962825,228.57988,70.20441)" fill="#ff8000"/>
<use data-text="=" xlink:href="#font_4_3" transform="matrix(9.9632229,0,0,-9.962825,235.63385,70.20441)" fill="#ff8000"/>
<use data-text="t" xlink:href="#font_4_6" transform="matrix(9.9632229,0,0,-9.962825,246.80261,70.20441)" fill="#ff8000"/>
<use data-text="a" xlink:href="#font_4_4" transform="matrix(9.9632229,0,0,-9.962825,250.91744,70.20441)" fill="#ff8000"/>
<use data-text="n" xlink:href="#font_4_5" transform="matrix(9.9632229,0,0,-9.962825,256.2079,70.20441)" fill="#ff8000"/>
<use data-text="&#x2212;" xlink:href="#font_5_1" transform="matrix(7.4724485,0,0,-7.47215,262.1019,66.68808)" fill="#ff8000"/>
<use data-text="1" xlink:href="#font_6_1" transform="matrix(7.4724485,0,0,-7.47215,269.29859,66.68808)" fill="#ff8000"/>
<use data-text="x" xlink:href="#font_3_2" transform="matrix(9.9632229,0,0,-9.962825,276.2515,70.20441)" fill="#ff8000"/>
<path transform="matrix(1.250075,0,0,-1.250025,1.1462402,203.66208)" stroke-width=".3985" stroke-linecap="butt" stroke-dasharray="2.98883,2.98883" stroke-miterlimit="10" stroke-linejoin="miter" fill="none" stroke="#000000" d="M0 31.39056H194.2721"/>
<use data-text="y" xlink:href="#font_7_2" transform="matrix(12.453997,0,0,-12.453499,248.40108,166.60384)"/>
<use data-text="=" xlink:href="#font_2_2" transform="matrix(12.453997,0,0,-12.453499,258.41294,166.60384)"/>
<use data-text="&#x2212;" xlink:href="#font_1_1" transform="matrix(12.453997,0,0,-12.453499,271.55873,166.60384)"/>
<use data-text="&#x03c0;" xlink:href="#font_8_1" transform="matrix(8.717773,0,0,-8.717424,282.74067,161.69998)"/>
<path transform="matrix(1.250075,0,0,-1.250025,144.21358,-51.476778)" stroke-width=".3985" stroke-linecap="butt" stroke-miterlimit="10" stroke-linejoin="miter" fill="none" stroke="#000000" d="M110.815-171.97H115.724"/>
<use data-text="2" xlink:href="#font_9_1" transform="matrix(8.717773,0,0,-8.717424,283.32569,170.89768)"/>
<path transform="matrix(1.250075,0,0,-1.250025,1.1462402,203.66208)" stroke-width=".3985" stroke-linecap="butt" stroke-dasharray="2.98883,2.98883" stroke-miterlimit="10" stroke-linejoin="miter" fill="none" stroke="#000000" d="M0 130.00652H194.2721"/>
<use data-text="y" xlink:href="#font_7_2" transform="matrix(12.453997,0,0,-12.453499,248.40108,43.331377)"/>
<use data-text="=" xlink:href="#font_2_2" transform="matrix(12.453997,0,0,-12.453499,258.41294,43.331377)"/>
<use data-text="&#x03c0;" xlink:href="#font_8_1" transform="matrix(8.717773,0,0,-8.717424,273.0538,38.42752)"/>
<path transform="matrix(1.250075,0,0,-1.250025,144.21358,-174.74924)" stroke-width=".3985" stroke-linecap="butt" stroke-miterlimit="10" stroke-linejoin="miter" fill="none" stroke="#000000" d="M103.066-171.97H107.975"/>
<use data-text="2" xlink:href="#font_9_1" transform="matrix(8.717773,0,0,-8.717424,273.64009,47.625215)"/>
<path transform="matrix(1.250075,0,0,-1.250025,1.1462402,203.66208)" stroke-width=".3985" stroke-linecap="butt" stroke-dasharray="2.98883,2.98883" stroke-miterlimit="10" stroke-linejoin="miter" fill="none" stroke="#000000" d="M37.78452 161.39708V0"/>
<use data-text="x" xlink:href="#font_7_1" transform="matrix(12.453997,0,0,-12.453499,27.11155,216.7186)"/>
<use data-text="=" xlink:href="#font_2_2" transform="matrix(12.453997,0,0,-12.453499,37.68843,216.7186)"/>
<use data-text="&#x2212;" xlink:href="#font_1_1" transform="matrix(12.453997,0,0,-12.453499,50.83422,216.7186)"/>
<use data-text="&#x03c0;" xlink:href="#font_8_1" transform="matrix(8.717773,0,0,-8.717424,62.016138,211.81473)"/>
<path transform="matrix(1.250075,0,0,-1.250025,-77.07595,-1.3620224)" stroke-width=".3985" stroke-linecap="butt" stroke-miterlimit="10" stroke-linejoin="miter" fill="none" stroke="#000000" d="M111.267-171.97H116.176"/>
<use data-text="2" xlink:href="#font_9_1" transform="matrix(8.717773,0,0,-8.717424,62.601175,221.01242)"/>
<path transform="matrix(1.250075,0,0,-1.250025,1.1462402,203.66208)" stroke-width=".3985" stroke-linecap="butt" stroke-dasharray="2.98883,2.98883" stroke-miterlimit="10" stroke-linejoin="miter" fill="none" stroke="#000000" d="M156.48758 161.39708V0"/>
<use data-text="x" xlink:href="#font_7_1" transform="matrix(12.453997,0,0,-12.453499,180.34323,216.7186)"/>
<use data-text="=" xlink:href="#font_2_2" transform="matrix(12.453997,0,0,-12.453499,190.9201,216.7186)"/>
<use data-text="&#x03c0;" xlink:href="#font_8_1" transform="matrix(8.717773,0,0,-8.717424,205.56099,211.81473)"/>
<path transform="matrix(1.250075,0,0,-1.250025,76.15573,-1.3620224)" stroke-width=".3985" stroke-linecap="butt" stroke-miterlimit="10" stroke-linejoin="miter" fill="none" stroke="#000000" d="M103.518-171.97H108.427"/>
<use data-text="2" xlink:href="#font_9_1" transform="matrix(8.717773,0,0,-8.717424,206.14728,221.01242)"/>
<path transform="matrix(1.250075,0,0,-1.250025,1.1462402,203.66208)" stroke-width=".3985" stroke-linecap="butt" stroke-dasharray="2.98883,2.98883" stroke-miterlimit="10" stroke-linejoin="miter" fill="none" stroke="#000000" d="M0 0 194.2721 161.39708"/>
<use data-text="x" xlink:href="#font_7_1" transform="matrix(12.453997,0,0,-12.453499,232.48262,98.38747)"/>
<use data-text="y" xlink:href="#font_7_2" transform="matrix(12.453997,0,0,-12.453499,126.973789,11.673233)"/>
</svg>
