<svg xmlns="http://www.w3.org/2000/svg" xmlns:xlink="http://www.w3.org/1999/xlink" version="1.1" width="335" height="336" viewBox="0 0 335 336">
<defs>
<path id="font_1_62" d="M.71598818 0V.0309906H.69200137C.61499026 .0309906 .61299136 .041992189 .61299136 .07797241V.6046448C.61299136 .640625 .61499026 .6516113 .69200137 .6516113H.71598818V.6826172C.68099978 .6796112 .6069946 .6796112 .56900027 .6796112 .5309906 .6796112 .45599366 .6796112 .42099 .6826172V.6516113H.44499208C.5219879 .6516113 .5239868 .640625 .5239868 .6046448V.37083436H.22499085V.6046448C.22499085 .640625 .22698975 .6516113 .3039856 .6516113H.32798768V.6826172C.29299928 .6796112 .21899414 .6796112 .18099976 .6796112 .14299011 .6796112 .067993167 .6796112 .032989503 .6826172V.6516113H.056991579C.13398743 .6516113 .13598633 .640625 .13598633 .6046448V.07797241C.13598633 .041992189 .13398743 .0309906 .056991579 .0309906H.032989503V0C.067993167 .0029907227 .14199829 .0029907227 .17999268 .0029907227 .21798706 .0029907227 .29299928 .0029907227 .32798768 0V.0309906H.3039856C.22698975 .0309906 .22499085 .041992189 .22499085 .07797241V.33984376H.5239868V.07797241C.5239868 .041992189 .5219879 .0309906 .44499208 .0309906H.42099V0C.45599366 .0029907227 .5299988 .0029907227 .56799319 .0029907227 .60598757 .0029907227 .68099978 .0029907227 .71598818 0Z"/>
<path id="font_1_66" d="M.24699402 0V.0309906C.18099976 .0309906 .1769867 .035995485 .1769867 .075042728V.4423828L.036987306 .43066407V.3996582C.101989749 .3996582 .11099243 .3936615 .11099243 .3447113V.07595825C.11099243 .0309906 .099990848 .0309906 .032989503 .0309906V0L.14299011 .0029907227C.17799378 .0029907227 .21299744 .0009918213 .24699402 0M.19198609 .603775C.19198609 .6307678 .16899109 .6567688 .13899231 .6567688 .10499573 .6567688 .084991458 .6287689 .084991458 .603775 .084991458 .57676699 .10798645 .55078127 .13798523 .55078127 .17199707 .55078127 .19198609 .5787811 .19198609 .603775Z"/>
<path id="font_1_70" d="M.5109863 0V.0309906C.47399903 .0309906 .45199586 .0309906 .4139862 .0839386L.2869873 .26278688C.28599549 .26478578 .2809906 .2707672 .2809906 .2737732 .2809906 .277771 .35198976 .33770753 .3619995 .34570313 .4249878 .39666749 .46699525 .39865113 .48799134 .3996582V.43066407C.45899964 .42765809 .44599916 .42765809 .41799928 .42765809 .38198854 .42765809 .31999208 .42965699 .30599977 .43066407V.3996582C.32499696 .39865113 .33499146 .3876648 .33499146 .37467958 .33499146 .3547058 .32099916 .3427124 .31298829 .33570863L.17199707 .21382141V.69433596L.027999878 .6826172V.6516113C.09799194 .6516113 .10598755 .64460757 .10598755 .5956421V.07595825C.10598755 .0309906 .09498596 .0309906 .027999878 .0309906V0L.13699341 .0029907227 .24699402 0V.0309906C.17999268 .0309906 .16899109 .0309906 .16899109 .07595825V.17889405L.23298645 .23387146C.30999757 .12792969 .35198976 .07196045 .35198976 .053985597 .35198976 .034988405 .33499146 .0309906 .31599427 .0309906V0L.42399598 .0029907227C.45298768 .0029907227 .48199464 .0019989014 .5109863 0Z"/>
<path id="font_1_77" d="M.5349884 0V.0309906C.48298646 .0309906 .45799256 .0309906 .45700074 .061019899V.25221253C.45700074 .3383026 .45700074 .36932374 .42599488 .405365 .4119873 .42237855 .3789978 .4423828 .32099916 .4423828 .24798584 .4423828 .20098877 .39935304 .17298889 .33729554V.4423828L.03199768 .43066407V.3996582C.101989749 .3996582 .10998535 .39266969 .10998535 .34370423V.07595825C.10998535 .0309906 .09899902 .0309906 .03199768 .0309906V0L.14498902 .0029907227 .25698854 0V.0309906C.18998719 .0309906 .1789856 .0309906 .1789856 .07595825V.25978089C.1789856 .36431886 .25 .42037965 .31399537 .42037965 .3769989 .42037965 .3880005 .36631776 .3880005 .30926515V.076034549C.3880005 .0309906 .3769989 .0309906 .30999757 .0309906V0L.4229889 .0029907227 .5349884 0Z"/>
<path id="font_1_28" d="M.48298646 .08912659V.14511109H.45799256V.08912659C.45799256 .03112793 .43299867 .025131226 .42199708 .025131226 .3889923 .025131226 .3849945 .070129398 .3849945 .07511902V.27508546C.3849945 .31707765 .3849945 .3560791 .34899903 .39312745 .30999757 .43223573 .2599945 .4482422 .21199036 .4482422 .12998963 .4482422 .06098938 .40115357 .06098938 .335083 .06098938 .30508424 .08099365 .28808595 .10699463 .28808595 .1349945 .28808595 .15299988 .30807496 .15299988 .33407594 .15299988 .3460846 .147995 .37908937 .101989749 .38008119 .1289978 .41519166 .17799378 .426239 .20999146 .426239 .25898744 .426239 .31599427 .38710023 .31599427 .29808045V.26107789C.2649994 .25808717 .19499207 .25508119 .13198853 .22509766 .056991579 .19110108 .03199768 .13911438 .03199768 .09512329 .03199768 .014251709 .1289978-.0107421879 .19198609-.0107421879 .2579956-.0107421879 .3039856 .029251099 .32299806 .07624817 .32699586 .036132814 .35398866-.005859375 .40098573-.005859375 .42199708-.005859375 .48298646 .008132935 .48298646 .08912659M.31599427 .14013672C.31599427 .04525757 .24398804 .011245728 .19898987 .011245728 .1499939 .011245728 .10899353 .04624939 .10899353 .09625244 .10899353 .15124512 .15098572 .23425293 .31599427 .24024964V.14013672Z"/>
<path id="font_1_69" d="M.73599246 0V.0309906C.6819916 .0309906 .6609955 .034988405 .6309967 .07896423L.3999939 .41874696 .5799866 .5916443C.58799746 .5996399 .6409912 .65060427 .7220001 .6516113V.6826172C.69599917 .6796112 .6639862 .6796112 .6369934 .6796112 .6009979 .6796112 .5439911 .6796112 .5099945 .6826172V.6516113C.5499878 .65060427 .55599978 .6276245 .55599978 .6186218 .55599978 .6026306 .54599 .5926361 .5379944 .5856476L.22499085 .28683473V.6046295C.22499085 .64060977 .22698975 .6516113 .3039856 .6516113H.32798768V.6826172C.29299928 .6796112 .21899414 .6796112 .18099976 .6796112 .14299011 .6796112 .067993167 .6796112 .032989503 .6826172V.6516113H.056991579C.13398743 .6516113 .13598633 .64060977 .13598633 .6046295V.07795715C.13598633 .041992189 .13398743 .0309906 .056991579 .0309906H.032989503V0C.067993167 .0029907227 .14199829 .0029907227 .17999268 .0029907227 .21798706 .0029907227 .29299928 .0029907227 .32798768 0V.0309906H.3039856C.22698975 .0309906 .22499085 .041992189 .22499085 .07795715V.2528534L.34098817 .3627777 .5219879 .094955448C.5279999 .08595276 .5369873 .07296753 .5369873 .06097412 .5369873 .0309906 .49798585 .0309906 .47799684 .0309906V0C.5130005 .0029907227 .58299258 .0029907227 .62098696 .0029907227L.73599246 0Z"/>
<path id="font_1_81" d="M.47099305 .21424866C.47099305 .34223939 .37098695 .4482422 .25 .4482422 .125 .4482422 .027999878 .3392334 .027999878 .21424866 .027999878 .085250858 .13198853-.0107421879 .24899292-.0107421879 .36999513-.0107421879 .47099305 .087249759 .47099305 .21424866M.3880005 .22224427C.3880005 .18624878 .3880005 .13224793 .3659973 .08824158 .34399415 .04324341 .2999878 .014251709 .25 .014251709 .20698548 .014251709 .16299439 .035247804 .13598633 .08125305 .11099243 .12524414 .11099243 .18624878 .11099243 .22224427 .11099243 .26124574 .11099243 .31523133 .1349945 .35923768 .1619873 .40522767 .20899964 .426239 .24899292 .426239 .29299928 .426239 .33599855 .40423585 .3619995 .36123658 .3880005 .3182373 .3880005 .26023866 .3880005 .22224427Z"/>
<path id="font_1_75" d="M.8129883 0V.0309906C.7609863 .0309906 .73599246 .0309906 .7350006 .061019899V.25221253C.7350006 .3383026 .7350006 .36932374 .70399478 .405365 .6899872 .42237855 .6569977 .4423828 .598999 .4423828 .5149994 .4423828 .47099305 .38233949 .45399476 .34429933 .43998719 .43138124 .3659973 .4423828 .32099916 .4423828 .24798584 .4423828 .20098877 .39935304 .17298889 .33729554V.4423828L.03199768 .43066407V.3996582C.101989749 .3996582 .10998535 .39266969 .10998535 .34370423V.07595825C.10998535 .0309906 .09899902 .0309906 .03199768 .0309906V0L.14498902 .0029907227 .25698854 0V.0309906C.18998719 .0309906 .1789856 .0309906 .1789856 .07595825V.25978089C.1789856 .36431886 .25 .42037965 .31399537 .42037965 .3769989 .42037965 .3880005 .36631776 .3880005 .30926515V.076034549C.3880005 .0309906 .3769989 .0309906 .30999757 .0309906V0L.4229889 .0029907227 .5349884 0V.0309906C.46798707 .0309906 .45700074 .0309906 .45700074 .076034549V.2602234C.45700074 .36431886 .5279999 .42037965 .59199526 .42037965 .6549988 .42037965 .66600039 .36631776 .66600039 .30926515V.076034549C.66600039 .0309906 .6549988 .0309906 .58799746 .0309906V0L.70098879 .0029907227 .8129883 0Z"/>
<path id="font_1_63" d="M.5349884 0V.0309906C.48298646 .0309906 .45799256 .0309906 .45700074 .061019899V.25221253C.45700074 .3383026 .45700074 .36932374 .42599488 .405365 .4119873 .42237855 .3789978 .4423828 .32099916 .4423828 .23699951 .4423828 .19299317 .38233949 .1769867 .34629823H.17599488V.69433596L.03199768 .6826172V.6516113C.101989749 .6516113 .10998535 .64463809 .10998535 .59580996V.076034549C.10998535 .0309906 .09899902 .0309906 .03199768 .0309906V0L.14498902 .0029907227 .25698854 0V.0309906C.18998719 .0309906 .1789856 .0309906 .1789856 .076034549V.2602234C.1789856 .36431886 .25 .42037965 .31399537 .42037965 .3769989 .42037965 .3880005 .36631776 .3880005 .30926515V.076034549C.3880005 .0309906 .3769989 .0309906 .30999757 .0309906V0L.4229889 .0029907227 .5349884 0Z"/>
<path id="font_1_50" d="M.4149933 .11933899C.4149933 .12934876 .40699769 .13134766 .4019928 .13134766 .3929901 .13134766 .3909912 .12535095 .3889923 .11734009 .35398866 .014251709 .2639923 .014251709 .2539978 .014251709 .20399475 .014251709 .1639862 .044281007 .14099121 .08131409 .11099243 .12934876 .11099243 .19540406 .11099243 .23144531H.3899994C.4119873 .23144531 .4149933 .23144531 .4149933 .2524414 .4149933 .35131837 .36099244 .4482422 .23599243 .4482422 .11999512 .4482422 .027999878 .34532167 .027999878 .22042847 .027999878 .08631897 .1329956-.0107421879 .24798584-.0107421879 .36999513-.0107421879 .4149933 .10032654 .4149933 .11933899M.34899903 .2524414H.11199951C.117996219 .40126039 .20199585 .426239 .23599243 .426239 .33898927 .426239 .34899903 .2913971 .34899903 .2524414Z"/>
<path id="font_1_109" d="M.5349884 0V.0309906C.46499635 .0309906 .45700074 .037994386 .45700074 .08705139V.4423828L.30999757 .43066407V.3996582C.37998963 .3996582 .3880005 .39266969 .3880005 .34373475V.16601563C.3880005 .07910156 .33999635 .011245728 .2669983 .011245728 .18299866 .011245728 .1789856 .058135988 .1789856 .11009216V.4423828L.03199768 .43066407V.3996582C.10998535 .3996582 .10998535 .39666749 .10998535 .3078003V.15802002C.10998535 .080093387 .10998535-.0107421879 .2619934-.0107421879 .31799317-.0107421879 .3619995 .017242432 .3909912 .07910156V-.0107421879L.5349884 0Z"/>
<path id="font_1_76" d="M.71598818 .6516113V.6826172L.598999 .6796112 .48199464 .6826172V.6516113C.58499148 .6516113 .58499148 .6046295 .58499148 .577652V.15092469L.23199463 .6696167C.22299195 .6816101 .22200012 .6826172 .20298767 .6826172H.032989503V.6516113H.06199646C.07699585 .6516113 .09700012 .65060427 .11199951 .6496124 .1349945 .64660647 .13598633 .6456146 .13598633 .62661746V.10494995C.13598633 .07795715 .13598633 .0309906 .032989503 .0309906V0L.1499939 .0029907227 .2669983 0V.0309906C.1639862 .0309906 .1639862 .07795715 .1639862 .10494995V.62461856C.16899109 .6196289 .16999817 .6186218 .17399597 .6126251L.58200076 .0129852299C.59098818 .0009918213 .59199526 0 .598999 0 .61299136 0 .61299136 .0069885256 .61299136 .025985718V.577652C.61299136 .6046295 .61299136 .6516113 .71598818 .6516113Z"/>
<path id="font_1_173" d="M.48298646 .08912659V.14511109H.45799256V.08912659C.45799256 .03112793 .43299867 .025131226 .42199708 .025131226 .3889923 .025131226 .3849945 .070129398 .3849945 .07511902V.27508546C.3849945 .31707765 .3849945 .3560791 .34899903 .39312745 .30999757 .43223573 .2599945 .4482422 .21199036 .4482422 .12998963 .4482422 .06098938 .40115357 .06098938 .335083 .06098938 .30508424 .08099365 .28808595 .10699463 .28808595 .1349945 .28808595 .15299988 .30807496 .15299988 .33407594 .15299988 .3460846 .147995 .37908937 .101989749 .38008119 .1289978 .41519166 .17799378 .426239 .20999146 .426239 .25898744 .426239 .31599427 .38710023 .31599427 .29808045V.26107789C.2649994 .25808717 .19499207 .25508119 .13198853 .22509766 .056991579 .19110108 .03199768 .13911438 .03199768 .09512329 .03199768 .014251709 .1289978-.0107421879 .19198609-.0107421879 .2579956-.0107421879 .3039856 .029251099 .32299806 .07624817 .32699586 .036132814 .35398866-.005859375 .40098573-.005859375 .42199708-.005859375 .48298646 .008132935 .48298646 .08912659M.31599427 .14013672C.31599427 .04525757 .24398804 .011245728 .19898987 .011245728 .1499939 .011245728 .10899353 .04624939 .10899353 .09625244 .10899353 .15124512 .15098572 .23425293 .31599427 .24024964V.14013672M.43099977 .5891113V.6201172H.069992069V.5891113H.43099977Z"/>
<path id="font_1_72" d="M.25498963 0V.0309906C.18798828 .0309906 .1769867 .0309906 .1769867 .07601929V.69433596L.032989503 .6826172V.6516113C.102996829 .6516113 .11099243 .64460757 .11099243 .5956421V.07595825C.11099243 .0309906 .099990848 .0309906 .032989503 .0309906V0L.14399719 .0029907227 .25498963 0Z"/>
</defs>
<path transform="matrix(1.00005,0,0,-1.00005,167.72863,167.37776)" stroke-width=".3985" stroke-linecap="butt" stroke-miterlimit="10" stroke-linejoin="miter" fill="none" stroke="#000000" d="M-153.91577 0H153.91577"/>
<path transform="matrix(-1.00005,-0,0,1.00005,13.8051609,167.37776)" d="M1.99252 0-1.19551 1.59401 0 0-1.19551-1.59401"/>
<path transform="matrix(1.00005,0,0,-1.00005,321.6521,167.37776)" d="M1.99252 0-1.19551 1.59401 0 0-1.19551-1.59401"/>
<use data-text="H" xlink:href="#font_1_62" transform="matrix(0,9.963098,9.963098,0,327.32765,152.98004)"/>
<use data-text="i" xlink:href="#font_1_66" transform="matrix(0,9.963098,9.963098,0,327.32765,160.45236)"/>
<use data-text="k" xlink:href="#font_1_70" transform="matrix(0,9.963098,9.963098,0,327.32765,163.22208)"/>
<use data-text="i" xlink:href="#font_1_66" transform="matrix(0,9.963098,9.963098,0,327.32765,168.4826)"/>
<use data-text="n" xlink:href="#font_1_77" transform="matrix(0,9.963098,9.963098,0,327.32765,171.25235)"/>
<use data-text="a" xlink:href="#font_1_28" transform="matrix(0,9.963098,9.963098,0,327.32765,176.79184)"/>
<use data-text="K" xlink:href="#font_1_69" transform="matrix(0,-9.963098,-9.963098,-0,8.129669,190.76592)"/>
<use data-text="o" xlink:href="#font_1_81" transform="matrix(0,-9.963098,-9.963098,-0,8.129669,183.2836)"/>
<use data-text="m" xlink:href="#font_1_75" transform="matrix(0,-9.963098,-9.963098,-0,8.129669,178.30207)"/>
<use data-text="o" xlink:href="#font_1_81" transform="matrix(0,-9.963098,-9.963098,-0,8.129669,170.00278)"/>
<use data-text="h" xlink:href="#font_1_63" transform="matrix(0,-9.963098,-9.963098,-0,8.129669,165.02124)"/>
<use data-text="a" xlink:href="#font_1_28" transform="matrix(0,-9.963098,-9.963098,-0,8.129669,159.48175)"/>
<use data-text="n" xlink:href="#font_1_77" transform="matrix(0,-9.963098,-9.963098,-0,8.129669,154.50022)"/>
<use data-text="a" xlink:href="#font_1_28" transform="matrix(0,-9.963098,-9.963098,-0,8.129669,148.96073)"/>
<use data-text="H" xlink:href="#font_1_62" transform="matrix(9.963098,0,0,-9.963098,155.13999,333.61909)"/>
<use data-text="e" xlink:href="#font_1_50" transform="matrix(9.963098,0,0,-9.963098,162.61234,333.61909)"/>
<use data-text="m" xlink:href="#font_1_75" transform="matrix(9.963098,0,0,-9.963098,167.03595,333.61909)"/>
<use data-text="a" xlink:href="#font_1_28" transform="matrix(9.963098,0,0,-9.963098,175.33524,333.61909)"/>
<path transform="matrix(1.00005,0,0,-1.00005,167.72863,167.37776)" stroke-width=".3985" stroke-linecap="butt" stroke-miterlimit="10" stroke-linejoin="miter" fill="none" stroke="#000000" d="M0-153.91577V153.91577"/>
<path transform="matrix(0,1.00005,1.00005,0,167.72863,321.3012)" d="M1.99252 0-1.19551 1.59401 0 0-1.19551-1.59401"/>
<path transform="matrix(0,-1.00005,-1.00005,-0,167.72863,13.4543)" d="M1.99252 0-1.19551 1.59401 0 0-1.19551-1.59401"/>
<use data-text="k" xlink:href="#font_1_70" transform="matrix(9.963098,0,0,-9.963098,159.83722,7.8318026)"/>
<use data-text="a" xlink:href="#font_1_28" transform="matrix(9.963098,0,0,-9.963098,165.09775,7.8318026)"/>
<use data-text="u" xlink:href="#font_1_109" transform="matrix(9.963098,0,0,-9.963098,170.07929,7.8318026)"/>
<path transform="matrix(1.00005,0,0,-1.00005,167.72863,167.37776)" stroke-width=".3985" stroke-linecap="butt" stroke-miterlimit="10" stroke-linejoin="miter" fill="none" stroke="#000000" d="M141.73404 0C141.73404 78.27855 78.27855 141.73404 0 141.73404-78.27855 141.73404-141.73404 78.27855-141.73404 0-141.73404-78.27855-78.27855-141.73404 0-141.73404 78.27855-141.73404 141.73404-78.27855 141.73404 0ZM0 0"/>
<path transform="matrix(1.00005,0,0,-1.00005,167.72863,167.37776)" d="M75.84836 122.74556C75.84836 125.49673 73.61816 127.72694 70.86697 127.72694 68.1158 127.72694 65.88559 125.49673 65.88559 122.74556 65.88559 119.99437 68.1158 117.76418 70.86697 117.76418 73.61816 117.76418 75.84836 119.99437 75.84836 122.74556ZM70.86697 122.74556"/>
<path transform="matrix(1.00005,0,0,-1.00005,167.72863,167.37776)" stroke-width=".3985" stroke-linecap="butt" stroke-miterlimit="10" stroke-linejoin="miter" fill="none" stroke="#000000" d="M75.84836 122.74556C75.84836 125.49673 73.61816 127.72694 70.86697 127.72694 68.1158 127.72694 65.88559 125.49673 65.88559 122.74556 65.88559 119.99437 68.1158 117.76418 70.86697 117.76418 73.61816 117.76418 75.84836 119.99437 75.84836 122.74556ZM70.86697 122.74556"/>
<path transform="matrix(1.00005,0,0,-1.00005,167.72863,167.37776)" d="M-65.88559 122.74556C-65.88559 125.49673-68.1158 127.72694-70.86697 127.72694-73.61816 127.72694-75.84836 125.49673-75.84836 122.74556-75.84836 119.99437-73.61816 117.76418-70.86697 117.76418-68.1158 117.76418-65.88559 119.99437-65.88559 122.74556ZM-70.86697 122.74556"/>
<path transform="matrix(1.00005,0,0,-1.00005,167.72863,167.37776)" stroke-width=".3985" stroke-linecap="butt" stroke-miterlimit="10" stroke-linejoin="miter" fill="none" stroke="#000000" d="M-65.88559 122.74556C-65.88559 125.49673-68.1158 127.72694-70.86697 127.72694-73.61816 127.72694-75.84836 125.49673-75.84836 122.74556-75.84836 119.99437-73.61816 117.76418-70.86697 117.76418-68.1158 117.76418-65.88559 119.99437-65.88559 122.74556ZM-70.86697 122.74556"/>
<path transform="matrix(1.00005,0,0,-1.00005,167.72863,167.37776)" d="M-65.88559-122.74556C-65.88559-119.99437-68.1158-117.76418-70.86697-117.76418-73.61816-117.76418-75.84836-119.99437-75.84836-122.74556-75.84836-125.49673-73.61816-127.72694-70.86697-127.72694-68.1158-127.72694-65.88559-125.49673-65.88559-122.74556ZM-70.86697-122.74556"/>
<path transform="matrix(1.00005,0,0,-1.00005,167.72863,167.37776)" stroke-width=".3985" stroke-linecap="butt" stroke-miterlimit="10" stroke-linejoin="miter" fill="none" stroke="#000000" d="M-65.88559-122.74556C-65.88559-119.99437-68.1158-117.76418-70.86697-117.76418-73.61816-117.76418-75.84836-119.99437-75.84836-122.74556-75.84836-125.49673-73.61816-127.72694-70.86697-127.72694-68.1158-127.72694-65.88559-125.49673-65.88559-122.74556ZM-70.86697-122.74556"/>
<path transform="matrix(1.00005,0,0,-1.00005,167.72863,167.37776)" d="M75.84836-122.74556C75.84836-119.99437 73.61816-117.76418 70.86697-117.76418 68.1158-117.76418 65.88559-119.99437 65.88559-122.74556 65.88559-125.49673 68.1158-127.72694 70.86697-127.72694 73.61816-127.72694 75.84836-125.49673 75.84836-122.74556ZM70.86697-122.74556"/>
<path transform="matrix(1.00005,0,0,-1.00005,167.72863,167.37776)" stroke-width=".3985" stroke-linecap="butt" stroke-miterlimit="10" stroke-linejoin="miter" fill="none" stroke="#000000" d="M75.84836-122.74556C75.84836-119.99437 73.61816-117.76418 70.86697-117.76418 68.1158-117.76418 65.88559-119.99437 65.88559-122.74556 65.88559-125.49673 68.1158-127.72694 70.86697-127.72694 73.61816-127.72694 75.84836-125.49673 75.84836-122.74556ZM70.86697-122.74556"/>
<path transform="matrix(1.00005,0,0,-1.00005,167.72863,167.37776)" stroke-width=".3985" stroke-linecap="butt" stroke-miterlimit="10" stroke-linejoin="miter" fill="none" stroke="#000000" d="M85.0391 147.29431"/>
<use data-text="N" xlink:href="#font_1_76" transform="matrix(9.963098,0,0,-9.963098,238.51416,23.478577)"/>
<use data-text="&#x0101;" xlink:href="#font_1_173" transform="matrix(9.963098,0,0,-9.963098,245.98648,23.478577)"/>
<use data-text="l" xlink:href="#font_1_72" transform="matrix(9.963098,0,0,-9.963098,250.96802,23.478577)"/>
<use data-text="a" xlink:href="#font_1_28" transform="matrix(9.963098,0,0,-9.963098,253.73777,23.478577)"/>
<use data-text="n" xlink:href="#font_1_77" transform="matrix(9.963098,0,0,-9.963098,258.7193,23.478577)"/>
<use data-text="i" xlink:href="#font_1_66" transform="matrix(9.963098,0,0,-9.963098,264.2588,23.478577)"/>
<path transform="matrix(1.00005,0,0,-1.00005,167.72863,167.37776)" stroke-width=".3985" stroke-linecap="butt" stroke-miterlimit="10" stroke-linejoin="miter" fill="none" stroke="#000000" d="M-85.0391 147.29431"/>
<use data-text="N" xlink:href="#font_1_76" transform="matrix(9.963098,0,0,-9.963098,68.42766,23.478577)"/>
<use data-text="&#x0101;" xlink:href="#font_1_173" transform="matrix(9.963098,0,0,-9.963098,75.899997,23.478577)"/>
<use data-text="l" xlink:href="#font_1_72" transform="matrix(9.963098,0,0,-9.963098,80.88153,23.478577)"/>
<use data-text="a" xlink:href="#font_1_28" transform="matrix(9.963098,0,0,-9.963098,83.651279,23.478577)"/>
<use data-text="n" xlink:href="#font_1_77" transform="matrix(9.963098,0,0,-9.963098,88.63281,23.478577)"/>
<use data-text="i" xlink:href="#font_1_66" transform="matrix(9.963098,0,0,-9.963098,94.1723,23.478577)"/>
<path transform="matrix(1.00005,0,0,-1.00005,167.72863,167.37776)" stroke-width=".3985" stroke-linecap="butt" stroke-miterlimit="10" stroke-linejoin="miter" fill="none" stroke="#000000" d="M-85.0391-147.29431"/>
<use data-text="N" xlink:href="#font_1_76" transform="matrix(9.963098,0,0,-9.963098,68.42766,318.08229)"/>
<use data-text="&#x0101;" xlink:href="#font_1_173" transform="matrix(9.963098,0,0,-9.963098,75.899997,318.08229)"/>
<use data-text="l" xlink:href="#font_1_72" transform="matrix(9.963098,0,0,-9.963098,80.88153,318.08229)"/>
<use data-text="a" xlink:href="#font_1_28" transform="matrix(9.963098,0,0,-9.963098,83.651279,318.08229)"/>
<use data-text="n" xlink:href="#font_1_77" transform="matrix(9.963098,0,0,-9.963098,88.63281,318.08229)"/>
<use data-text="i" xlink:href="#font_1_66" transform="matrix(9.963098,0,0,-9.963098,94.1723,318.08229)"/>
<path transform="matrix(1.00005,0,0,-1.00005,167.72863,167.37776)" stroke-width=".3985" stroke-linecap="butt" stroke-miterlimit="10" stroke-linejoin="miter" fill="none" stroke="#000000" d="M85.0391-147.29431"/>
<use data-text="N" xlink:href="#font_1_76" transform="matrix(9.963098,0,0,-9.963098,238.51416,318.08229)"/>
<use data-text="&#x0101;" xlink:href="#font_1_173" transform="matrix(9.963098,0,0,-9.963098,245.98648,318.08229)"/>
<use data-text="l" xlink:href="#font_1_72" transform="matrix(9.963098,0,0,-9.963098,250.96802,318.08229)"/>
<use data-text="a" xlink:href="#font_1_28" transform="matrix(9.963098,0,0,-9.963098,253.73777,318.08229)"/>
<use data-text="n" xlink:href="#font_1_77" transform="matrix(9.963098,0,0,-9.963098,258.7193,318.08229)"/>
<use data-text="i" xlink:href="#font_1_66" transform="matrix(9.963098,0,0,-9.963098,264.2588,318.08229)"/>
<path transform="matrix(1.00005,0,0,-1.00005,167.72863,167.37776)" stroke-width=".3985" stroke-linecap="butt" stroke-dasharray="2.98883,2.98883" stroke-miterlimit="10" stroke-linejoin="miter" fill="none" stroke="#929292" d="M70.86697 122.74556-70.86697-122.74556"/>
<path transform="matrix(1.00005,0,0,-1.00005,167.72863,167.37776)" stroke-width=".3985" stroke-linecap="butt" stroke-dasharray="2.98883,2.98883" stroke-miterlimit="10" stroke-linejoin="miter" fill="none" stroke="#929292" d="M-70.86697 122.74556 70.86697-122.74556"/>
<path transform="matrix(1.00005,0,0,-1.00005,167.72863,167.37776)" stroke-width=".3985" stroke-linecap="butt" stroke-dasharray="2.98883,2.98883" stroke-miterlimit="10" stroke-linejoin="miter" fill="none" stroke="#929292" d="M70.86697 122.74556H-70.86697"/>
<path transform="matrix(1.00005,0,0,-1.00005,167.72863,167.37776)" stroke-width=".3985" stroke-linecap="butt" stroke-dasharray="2.98883,2.98883" stroke-miterlimit="10" stroke-linejoin="miter" fill="none" stroke="#929292" d="M-70.86697 122.74556V-122.74556"/>
<path transform="matrix(1.00005,0,0,-1.00005,167.72863,167.37776)" stroke-width=".3985" stroke-linecap="butt" stroke-dasharray="2.98883,2.98883" stroke-miterlimit="10" stroke-linejoin="miter" fill="none" stroke="#929292" d="M-70.86697-122.74556H70.86697"/>
<path transform="matrix(1.00005,0,0,-1.00005,167.72863,167.37776)" stroke-width=".3985" stroke-linecap="butt" stroke-dasharray="2.98883,2.98883" stroke-miterlimit="10" stroke-linejoin="miter" fill="none" stroke="#929292" d="M70.86697-122.74556V122.74556"/>
<path transform="matrix(1.00005,0,0,-1.00005,167.72863,167.37776)" stroke-width=".3985" stroke-linecap="butt" stroke-miterlimit="10" stroke-linejoin="miter" fill="none" stroke="#000000" d="M0 0"/>
<path transform="matrix(1.00005,0,0,-1.00005,167.72863,167.37776)" d="M-49.0787-17.04291-36.04979-5.593 22.86865 28.42348 39.29903 33.98184 26.27036 22.53154-32.6481-11.48494Z" fill="#993300" fill-opacity=".1"/>
<path transform="matrix(1.00005,0,0,-1.00005,167.72863,167.37776)" d="M-39.29903-33.98184-22.86865-28.42348 36.04979 5.593 49.0787 17.04291 32.6481 11.48494-26.27036-22.53154Z" fill="#993300" fill-opacity=".1"/>
<path transform="matrix(1.00005,0,0,-1.00005,167.72863,167.37776)" d="M-32.6481-11.48494-26.27036-22.53154 25.2833 7.23288 18.90555 18.2795Z" fill="#993300" fill-opacity=".04"/>
<path transform="matrix(1.00005,0,0,-1.00005,167.72863,167.37776)" d="M21.03148 14.59727 23.15738 10.91508 34.2044 17.29308 32.0785 20.97527Z" fill="#993300" fill-opacity=".1"/>
<path transform="matrix(1.00005,0,0,-1.00005,167.72863,167.37776)" stroke-width=".3985" stroke-linecap="butt" stroke-miterlimit="10" stroke-linejoin="miter" fill="none" stroke="#993300" d="M39.29903 33.98184 22.86865 28.42348"/>
<path transform="matrix(1.00005,0,0,-1.00005,167.72863,167.37776)" stroke-width=".3985" stroke-linecap="butt" stroke-miterlimit="10" stroke-linejoin="miter" fill="none" stroke="#993300" d="M22.86865 28.42348-36.04979-5.593"/>
<path transform="matrix(1.00005,0,0,-1.00005,167.72863,167.37776)" stroke-width=".3985" stroke-linecap="butt" stroke-miterlimit="10" stroke-linejoin="miter" fill="none" stroke="#993300" d="M-36.04979-5.593-49.0787-17.04291"/>
<path transform="matrix(1.00005,0,0,-1.00005,167.72863,167.37776)" stroke-width=".3985" stroke-linecap="butt" stroke-miterlimit="10" stroke-linejoin="miter" fill="none" stroke="#993300" d="M-49.0787-17.04291-32.6481-11.48494"/>
<path transform="matrix(1.00005,0,0,-1.00005,167.72863,167.37776)" stroke-width=".3985" stroke-linecap="butt" stroke-miterlimit="10" stroke-linejoin="miter" fill="none" stroke="#993300" d="M-32.6481-11.48494 26.27036 22.53154"/>
<path transform="matrix(1.00005,0,0,-1.00005,167.72863,167.37776)" stroke-width=".3985" stroke-linecap="butt" stroke-miterlimit="10" stroke-linejoin="miter" fill="none" stroke="#993300" d="M26.27036 22.53154 39.29903 33.98184"/>
<path transform="matrix(1.00005,0,0,-1.00005,167.72863,167.37776)" stroke-width=".3985" stroke-linecap="butt" stroke-miterlimit="10" stroke-linejoin="miter" fill="none" stroke="#993300" d="M49.0787 17.04291 36.04979 5.593"/>
<path transform="matrix(1.00005,0,0,-1.00005,167.72863,167.37776)" stroke-width=".3985" stroke-linecap="butt" stroke-miterlimit="10" stroke-linejoin="miter" fill="none" stroke="#993300" d="M36.04979 5.593-22.86865-28.42348"/>
<path transform="matrix(1.00005,0,0,-1.00005,167.72863,167.37776)" stroke-width=".3985" stroke-linecap="butt" stroke-miterlimit="10" stroke-linejoin="miter" fill="none" stroke="#993300" d="M-22.86865-28.42348-39.29903-33.98184"/>
<path transform="matrix(1.00005,0,0,-1.00005,167.72863,167.37776)" stroke-width=".3985" stroke-linecap="butt" stroke-miterlimit="10" stroke-linejoin="miter" fill="none" stroke="#993300" d="M-39.29903-33.98184-26.27036-22.53154"/>
<path transform="matrix(1.00005,0,0,-1.00005,167.72863,167.37776)" stroke-width=".3985" stroke-linecap="butt" stroke-miterlimit="10" stroke-linejoin="miter" fill="none" stroke="#993300" d="M-26.27036-22.53154 32.6481 11.48494"/>
<path transform="matrix(1.00005,0,0,-1.00005,167.72863,167.37776)" stroke-width=".3985" stroke-linecap="butt" stroke-miterlimit="10" stroke-linejoin="miter" fill="none" stroke="#993300" d="M32.6481 11.48494 49.0787 17.04291"/>
<path transform="matrix(1.00005,0,0,-1.00005,167.72863,167.37776)" stroke-width=".3985" stroke-linecap="butt" stroke-miterlimit="10" stroke-linejoin="miter" fill="none" stroke="#993300" d="M-32.6481-11.48494-26.27036-22.53154"/>
<path transform="matrix(1.00005,0,0,-1.00005,167.72863,167.37776)" stroke-width=".3985" stroke-linecap="butt" stroke-miterlimit="10" stroke-linejoin="miter" fill="none" stroke="#993300" d="M-26.27036-22.53154 25.2833 7.23288"/>
<path transform="matrix(1.00005,0,0,-1.00005,167.72863,167.37776)" stroke-width=".3985" stroke-linecap="butt" stroke-miterlimit="10" stroke-linejoin="miter" fill="none" stroke="#993300" d="M25.2833 7.23288 18.90555 18.2795"/>
<path transform="matrix(1.00005,0,0,-1.00005,167.72863,167.37776)" stroke-width=".3985" stroke-linecap="butt" stroke-miterlimit="10" stroke-linejoin="miter" fill="none" stroke="#993300" d="M18.90555 18.2795-32.6481-11.48494"/>
<path transform="matrix(1.00005,0,0,-1.00005,167.72863,167.37776)" stroke-width=".3985" stroke-linecap="butt" stroke-miterlimit="10" stroke-linejoin="miter" fill="none" stroke="#993300" d="M21.03148 14.59727 23.15738 10.91508"/>
<path transform="matrix(1.00005,0,0,-1.00005,167.72863,167.37776)" stroke-width=".3985" stroke-linecap="butt" stroke-miterlimit="10" stroke-linejoin="miter" fill="none" stroke="#993300" d="M23.15738 10.91508 34.2044 17.29308"/>
<path transform="matrix(1.00005,0,0,-1.00005,167.72863,167.37776)" stroke-width=".3985" stroke-linecap="butt" stroke-miterlimit="10" stroke-linejoin="miter" fill="none" stroke="#993300" d="M34.2044 17.29308 32.0785 20.97527"/>
<path transform="matrix(1.00005,0,0,-1.00005,167.72863,167.37776)" stroke-width=".3985" stroke-linecap="butt" stroke-miterlimit="10" stroke-linejoin="miter" fill="none" stroke="#993300" d="M32.0785 20.97527 21.03148 14.59727"/>
<path transform="matrix(1.00005,0,0,-1.00005,167.72863,167.37776)" stroke-width=".3985" stroke-linecap="butt" stroke-miterlimit="10" stroke-linejoin="miter" fill="none" stroke="#993300" d="M26.27036 22.53154 32.6481 11.48494"/>
<path transform="matrix(1.00005,0,0,-1.00005,167.72863,167.37776)" stroke-width=".3985" stroke-linecap="butt" stroke-miterlimit="10" stroke-linejoin="miter" fill="none" stroke="#993300" d="M8.10117 2.97658C8.80559 3.38329 9.04695 4.28401 8.64024 4.98843 8.23355 5.69284 7.33282 5.9342 6.6284 5.52751 5.924 5.1208 5.68263 4.22008 6.08932 3.51566 6.49603 2.81125 7.39676 2.56989 8.10117 2.97658ZM7.36479 4.25204"/>
</svg>
