<svg xmlns="http://www.w3.org/2000/svg" xmlns:xlink="http://www.w3.org/1999/xlink" version="1.1" width="372" height="230" viewBox="0 0 372 230">
<defs>
<path id="font_1_1" d="M.43798829 .072143558V-.005859375L.61499026 .0001373291V.0471344C.5529938 .0471344 .54599 .0471344 .54599 .086135867V.4501953L.36299134 .44218446V.39518739C.4249878 .39518739 .43199159 .39518739 .43199159 .3561859V.16514588C.43199159 .08314514 .3809967 .030136109 .30799867 .030136109 .23098755 .030136109 .22799683 .055130006 .22799683 .10914612V.4501953L.04499817 .44218446V.39518739C.10699463 .39518739 .11399841 .39518739 .11399841 .3561859V.12315369C.11399841 .01612854 .19499207-.005859375 .2939911-.005859375 .31999208-.005859375 .3919983-.005859375 .43798829 .072143558Z"/>
<path id="font_1_2" d="M.5059967 .37631227C.5119934 .39031983 .5159912 .3973236 .5799866 .3973236V.44433595C.5549927 .44232179 .526001 .44132997 .5009918 .44132997 .47599793 .44132997 .43099977 .44332887 .4099884 .44433595V.3973236C.42900086 .3973236 .45799256 .3943329 .45799256 .38632203 .45799256 .3853302 .45700074 .38331605 .45298768 .37431336L.33699037 .12416077 .20999146 .3973236H.2639923V.44433595C.23098755 .44232179 .14099121 .44132997 .13999939 .44132997 .11199951 .44132997 .066986087 .44332887 .025985718 .44433595V.3973236H.08999634L.2649994 .021087647C.2769928-.00390625 .2899933-.00390625 .30299378-.00390625 .31999208-.00390625 .32998658-.00091552737 .33999635 .020080567L.5059967 .37631227Z"/>
<path id="font_2_1" d="M.40899659 .23046875H.6879883C.70199587 .23046875 .72099307 .23046875 .72099307 .25045777 .72099307 .27046205 .70199587 .27046205 .6879883 .27046205H.40899659V.5500183C.40899659 .56399539 .40899659 .5830078 .3889923 .5830078 .36898805 .5830078 .36898805 .56399539 .36898805 .5500183V.27046205H.08898926C.07499695 .27046205 .055999757 .27046205 .055999757 .25045777 .055999757 .23046875 .07499695 .23046875 .08898926 .23046875H.36898805V-.05000305C.36898805-.06401062 .36898805-.08300781 .3889923-.08300781 .40899659-.08300781 .40899659-.06401062 .40899659-.05000305V.23046875Z"/>
</defs>
<path transform="matrix(1.00002,0,0,-1.00002,-26.251904,256.9218)" stroke-width=".3985" stroke-linecap="butt" stroke-miterlimit="10" stroke-linejoin="miter" fill="none" stroke="#d5d6d5" d="M28.3468 28.3468H396.85533M28.3468 56.69362H396.85533M28.3468 85.04042H396.85533M28.3468 113.38724H396.85533M28.3468 141.73404H396.85533M28.3468 170.08086H396.85533M28.3468 198.42766H396.85533M28.3468 226.77448H396.85533M28.3468 255.11133H396.85533M28.3468 28.3468V255.12128M56.69362 28.3468V255.12128M85.04042 28.3468V255.12128M113.38724 28.3468V255.12128M141.73404 28.3468V255.12128M170.08086 28.3468V255.12128M198.42766 28.3468V255.12128M226.77448 28.3468V255.12128M255.12128 28.3468V255.12128M283.4681 28.3468V255.12128M311.8149 28.3468V255.12128M340.1617 28.3468V255.12128M368.5085 28.3468V255.12128M396.84538 28.3468V255.12128M396.85533 255.12128"/>
<path transform="matrix(1.00002,0,0,-1.00002,-26.251904,256.9218)" stroke-width="1.99255" stroke-linecap="butt" stroke-miterlimit="10" stroke-linejoin="miter" fill="none" stroke="#0000ff" d="M56.69362 56.69362 139.47876 194.66884"/>
<path transform="matrix(.5144903,-.85748717,-.85748717,-.5144903,113.229648,62.24907)" d="M4.38364 0-2.63017 3.50691 0 0-2.63017-3.50691" fill="#0000ff"/>
<use data-text="u" xlink:href="#font_1_1" transform="matrix(5.125661,-8.542801,-8.542801,-5.125661,67.62578,129.86669)"/>
<path transform="matrix(1.00002,0,0,-1.00002,-26.251904,256.9218)" stroke-width="1.99255" stroke-linecap="butt" stroke-miterlimit="10" stroke-linejoin="miter" fill="none" stroke="#0000ff" d="M56.69362 56.69362 279.11836 84.49675"/>
<path transform="matrix(.9922798,-.124022487,-.124022487,-.9922798,252.87203,172.42337)" d="M4.38364 0-2.63017 3.50691 0 0-2.63017-3.50691" fill="#0000ff"/>
<use data-text="v" xlink:href="#font_1_2" transform="matrix(9.885687,-1.2355864,-1.2355864,-9.885687,141.83773,195.11588)"/>
<path transform="matrix(1.00002,0,0,-1.00002,-26.251904,256.9218)" stroke-width="1.99255" stroke-linecap="butt" stroke-dasharray="2.98883,2.98883" stroke-miterlimit="10" stroke-linejoin="miter" fill="none" stroke="#0000ff" d="M141.73404 198.42766 364.1588 226.2308"/>
<path transform="matrix(.9922798,-.124022487,-.124022487,-.9922798,337.9142,30.686478)" d="M4.38364 0-2.63017 3.50691 0 0-2.63017-3.50691" fill="#0000ff"/>
<use data-text="v" xlink:href="#font_1_2" transform="matrix(9.885687,-1.2355864,-1.2355864,-9.885687,225.26039,40.41777)"/>
<path transform="matrix(1.00002,0,0,-1.00002,-26.251904,256.9218)" stroke-width="1.99255" stroke-linecap="butt" stroke-dasharray="2.98883,2.98883" stroke-miterlimit="10" stroke-linejoin="miter" fill="none" stroke="#0000ff" d="M283.4681 85.04042 366.25325 223.01564"/>
<path transform="matrix(.5144903,-.85748717,-.85748717,-.5144903,340.00868,33.901704)" d="M4.38364 0-2.63017 3.50691 0 0-2.63017-3.50691" fill="#0000ff"/>
<use data-text="u" xlink:href="#font_1_1" transform="matrix(5.125661,-8.542801,-8.542801,-5.125661,305.60456,108.23925)"/>
<path transform="matrix(1.00002,0,0,-1.00002,-26.251904,256.9218)" stroke-width="1.99255" stroke-linecap="butt" stroke-miterlimit="10" stroke-linejoin="miter" fill="none" stroke="#0000ff" d="M56.69362 56.69362 364.6604 224.6755"/>
<path transform="matrix(.87785759,-.4788296,-.4788296,-.87785759,338.4158,32.24182)" d="M4.38364 0-2.63017 3.50691 0 0-2.63017-3.50691" fill="#0000ff"/>
<use data-text="v" xlink:href="#font_1_2" transform="matrix(8.745744,-4.7703878,-4.7703878,-8.745744,180.3409,130.00144)"/>
<use data-text="+" xlink:href="#font_2_1" transform="matrix(8.745744,-4.7703878,-4.7703878,-8.745744,187.73246,125.96969)"/>
<use data-text="u" xlink:href="#font_1_1" transform="matrix(8.745744,-4.7703878,-4.7703878,-8.745744,196.47855,121.19912)"/>
<path transform="matrix(1.00002,0,0,-1.00002,-26.251904,256.9218)" stroke-width="1.99255" stroke-linecap="butt" stroke-miterlimit="10" stroke-linejoin="miter" fill="none" stroke="#0000ff" d="M56.69362 56.69362 364.6604 224.6755"/>
<path transform="matrix(.87785759,-.4788296,-.4788296,-.87785759,338.4158,32.24182)" d="M4.38364 0-2.63017 3.50691 0 0-2.63017-3.50691" fill="#0000ff"/>
<use data-text="u" xlink:href="#font_1_1" transform="matrix(8.745744,-4.7703878,-4.7703878,-8.745744,173.02677,116.59218)"/>
<use data-text="+" xlink:href="#font_2_1" transform="matrix(8.745744,-4.7703878,-4.7703878,-8.745744,180.55789,112.4843)"/>
<use data-text="v" xlink:href="#font_1_2" transform="matrix(8.745744,-4.7703878,-4.7703878,-8.745744,189.30399,107.713718)"/>
</svg>
