<svg xmlns="http://www.w3.org/2000/svg" xmlns:xlink="http://www.w3.org/1999/xlink" version="1.1" width="95" height="343" viewBox="0 0 95 343">
<path transform="matrix(1.00005,0,0,-1.00005,49.024507,171.88478)" d="M-43.93764 113.38724-32.59865 170.08086-21.2601 113.38724V85.04042H-43.93764Z" fill="#993300" fill-opacity=".1"/>
<path transform="matrix(1.00005,0,0,-1.00005,49.024507,171.88478)" d="M43.93764 113.38724 32.59865 170.08086 21.2601 113.38724V85.04042H43.93764Z" fill="#993300" fill-opacity=".1"/>
<path transform="matrix(1.00005,0,0,-1.00005,49.024507,171.88478)" d="M-43.93764-113.38724-32.59865-170.08086-21.2601-113.38724Z" fill="#993300" fill-opacity=".1"/>
<path transform="matrix(1.00005,0,0,-1.00005,49.024507,171.88478)" d="M43.93764-113.38724 32.59865-170.08086 21.2601-113.38724Z" fill="#993300" fill-opacity=".1"/>
<path transform="matrix(1.00005,0,0,-1.00005,49.024507,171.88478)" d="M-43.93764-113.38724H43.93764V85.04042H-43.93764Z" fill="#993300" fill-opacity=".04"/>
<path transform="matrix(1.00005,0,0,-1.00005,49.024507,171.88478)" stroke-width=".3985" stroke-linecap="round" stroke-miterlimit="10" stroke-linejoin="miter" fill="none" stroke="#993300" d="M-32.59865 170.08086-43.93764 113.38724"/>
<path transform="matrix(1.00005,0,0,-1.00005,49.024507,171.88478)" stroke-width=".3985" stroke-linecap="round" stroke-miterlimit="10" stroke-linejoin="miter" fill="none" stroke="#993300" d="M-43.93764 113.38724V-113.38724"/>
<path transform="matrix(1.00005,0,0,-1.00005,49.024507,171.88478)" stroke-width=".3985" stroke-linecap="round" stroke-miterlimit="10" stroke-linejoin="miter" fill="none" stroke="#993300" d="M-43.93764-113.38724-32.59865-170.08086"/>
<path transform="matrix(1.00005,0,0,-1.00005,49.024507,171.88478)" stroke-width=".3985" stroke-linecap="round" stroke-miterlimit="10" stroke-linejoin="miter" fill="none" stroke="#993300" d="M-32.59865-170.08086-21.2601-113.38724"/>
<path transform="matrix(1.00005,0,0,-1.00005,49.024507,171.88478)" stroke-width=".3985" stroke-linecap="round" stroke-miterlimit="10" stroke-linejoin="miter" fill="none" stroke="#993300" d="M-21.2601 85.04042V113.38724"/>
<path transform="matrix(1.00005,0,0,-1.00005,49.024507,171.88478)" stroke-width=".3985" stroke-linecap="round" stroke-miterlimit="10" stroke-linejoin="miter" fill="none" stroke="#993300" d="M-21.2601 113.38724-32.59865 170.08086"/>
<path transform="matrix(1.00005,0,0,-1.00005,49.024507,171.88478)" stroke-width=".3985" stroke-linecap="round" stroke-miterlimit="10" stroke-linejoin="miter" fill="none" stroke="#993300" d="M32.59865 170.08086 43.93764 113.38724"/>
<path transform="matrix(1.00005,0,0,-1.00005,49.024507,171.88478)" stroke-width=".3985" stroke-linecap="round" stroke-miterlimit="10" stroke-linejoin="miter" fill="none" stroke="#993300" d="M43.93764 113.38724V-113.38724"/>
<path transform="matrix(1.00005,0,0,-1.00005,49.024507,171.88478)" stroke-width=".3985" stroke-linecap="round" stroke-miterlimit="10" stroke-linejoin="miter" fill="none" stroke="#993300" d="M43.93764-113.38724 32.59865-170.08086"/>
<path transform="matrix(1.00005,0,0,-1.00005,49.024507,171.88478)" stroke-width=".3985" stroke-linecap="round" stroke-miterlimit="10" stroke-linejoin="miter" fill="none" stroke="#993300" d="M32.59865-170.08086 21.2601-113.38724"/>
<path transform="matrix(1.00005,0,0,-1.00005,49.024507,171.88478)" stroke-width=".3985" stroke-linecap="round" stroke-miterlimit="10" stroke-linejoin="miter" fill="none" stroke="#993300" d="M21.2601 85.04042V113.38724"/>
<path transform="matrix(1.00005,0,0,-1.00005,49.024507,171.88478)" stroke-width=".3985" stroke-linecap="round" stroke-miterlimit="10" stroke-linejoin="miter" fill="none" stroke="#993300" d="M21.2601 113.38724 32.59865 170.08086"/>
<path transform="matrix(1.00005,0,0,-1.00005,49.024507,171.88478)" stroke-width=".3985" stroke-linecap="round" stroke-miterlimit="10" stroke-linejoin="miter" fill="none" stroke="#993300" d="M-43.93764-113.38724H43.93764"/>
<path transform="matrix(1.00005,0,0,-1.00005,49.024507,171.88478)" stroke-width=".3985" stroke-linecap="round" stroke-miterlimit="10" stroke-linejoin="miter" fill="none" stroke="#993300" d="M43.93764 85.04042H-43.93764"/>
<path transform="matrix(1.00005,0,0,-1.00005,49.024507,171.88478)" stroke-width=".3985" stroke-linecap="round" stroke-miterlimit="10" stroke-linejoin="miter" fill="none" stroke="#993300" d="M-7.08669 85.04042H7.08669"/>
<path transform="matrix(1.00005,0,0,-1.00005,49.024507,171.88478)" stroke-width=".3985" stroke-linecap="round" stroke-miterlimit="10" stroke-linejoin="miter" fill="none" stroke="#993300" d="M-21.2601 113.38724H21.2601"/>
<path transform="matrix(1.00005,0,0,-1.00005,49.024507,171.88478)" stroke-width=".3985" stroke-linecap="round" stroke-miterlimit="10" stroke-linejoin="miter" fill="none" stroke="#000000" d="M43.93764-113.38724-43.93764-104.73474"/>
<path transform="matrix(1.00005,0,0,-1.00005,49.024507,171.88478)" stroke-width=".3985" stroke-linecap="round" stroke-miterlimit="10" stroke-linejoin="miter" fill="none" stroke="#000000" d="M43.93764-113.38724-43.93764-86.73207"/>
<path transform="matrix(1.00005,0,0,-1.00005,49.024507,171.88478)" stroke-width=".3985" stroke-linecap="round" stroke-miterlimit="10" stroke-linejoin="miter" fill="none" stroke="#000000" d="M43.93764-113.38724-43.93764-66.41792"/>
<path transform="matrix(1.00005,0,0,-1.00005,49.024507,171.88478)" stroke-width=".3985" stroke-linecap="round" stroke-miterlimit="10" stroke-linejoin="miter" fill="none" stroke="#000000" d="M43.93764-113.38724-43.93764-41.26886"/>
<path transform="matrix(1.00005,0,0,-1.00005,49.024507,171.88478)" stroke-width=".3985" stroke-linecap="round" stroke-miterlimit="10" stroke-linejoin="miter" fill="none" stroke="#000000" d="M43.93764-113.38724-43.93764-6.30293"/>
<path transform="matrix(1.00005,0,0,-1.00005,49.024507,171.88478)" stroke-width=".3985" stroke-linecap="round" stroke-miterlimit="10" stroke-linejoin="miter" fill="none" stroke="#000000" d="M43.93764-113.38724-43.93764 51.01265"/>
<path transform="matrix(1.00005,0,0,-1.00005,49.024507,171.88478)" stroke-width=".3985" stroke-linecap="round" stroke-miterlimit="10" stroke-linejoin="miter" fill="none" stroke="#000000" d="M43.93764-113.38724-16.25304 85.04042"/>
<path transform="matrix(1.00005,0,0,-1.00005,49.024507,171.88478)" stroke-width=".3985" stroke-linecap="round" stroke-miterlimit="10" stroke-linejoin="miter" fill="none" stroke="#000000" d="M43.93764-113.38724 24.39685 85.04042"/>
<path transform="matrix(1.00005,0,0,-1.00005,49.024507,171.88478)" stroke-width=".3985" stroke-linecap="round" stroke-miterlimit="10" stroke-linejoin="miter" fill="none" stroke="#000000" d="M-43.93764-113.38724"/>
<path transform="matrix(1.00005,0,0,-1.00005,49.024507,171.88478)" stroke-width=".3985" stroke-linecap="round" stroke-miterlimit="10" stroke-linejoin="miter" fill="none" stroke="#000000" d="M-43.93764-95.91052"/>
<path transform="matrix(1.00005,0,0,-1.00005,49.024507,171.88478)" stroke-width=".3985" stroke-linecap="round" stroke-miterlimit="10" stroke-linejoin="miter" fill="none" stroke="#000000" d="M-43.93764-76.99089"/>
<path transform="matrix(1.00005,0,0,-1.00005,49.024507,171.88478)" stroke-width=".3985" stroke-linecap="round" stroke-miterlimit="10" stroke-linejoin="miter" fill="none" stroke="#000000" d="M-43.93764-54.67192"/>
<path transform="matrix(1.00005,0,0,-1.00005,49.024507,171.88478)" stroke-width=".3985" stroke-linecap="round" stroke-miterlimit="10" stroke-linejoin="miter" fill="none" stroke="#000000" d="M-43.93764-25.50804"/>
<path transform="matrix(1.00005,0,0,-1.00005,49.024507,171.88478)" stroke-width=".3985" stroke-linecap="round" stroke-miterlimit="10" stroke-linejoin="miter" fill="none" stroke="#000000" d="M-43.93764 18.13846"/>
<path transform="matrix(1.00005,0,0,-1.00005,49.024507,171.88478)" stroke-width=".3985" stroke-linecap="round" stroke-miterlimit="10" stroke-linejoin="miter" fill="none" stroke="#000000" d="M-43.93764 70.867"/>
<path transform="matrix(1.00005,0,0,-1.00005,49.024507,171.88478)" stroke-width=".3985" stroke-linecap="round" stroke-miterlimit="10" stroke-linejoin="miter" fill="none" stroke="#000000" d="M4.47028 82.20555"/>
<path transform="matrix(1.00005,0,0,-1.00005,49.024507,171.88478)" stroke-width=".3985" stroke-linecap="round" stroke-miterlimit="10" stroke-linejoin="miter" fill="none" stroke="#000000" d="M36.85092 82.20555"/>
<path transform="matrix(1.00005,0,0,-1.00005,49.024507,171.88478)" d="M-40.9488-104.73474C-40.9488-103.08403-42.28693-101.74591-43.93764-101.74591-45.58833-101.74591-46.92647-103.08403-46.92647-104.73474-46.92647-106.38544-45.58833-107.72357-43.93764-107.72357-42.28693-107.72357-40.9488-106.38544-40.9488-104.73474ZM-43.93764-104.73474"/>
<path transform="matrix(1.00005,0,0,-1.00005,49.024507,171.88478)" stroke-width=".3985" stroke-linecap="round" stroke-miterlimit="10" stroke-linejoin="miter" fill="none" stroke="#000000" d="M-40.9488-104.73474C-40.9488-103.08403-42.28693-101.74591-43.93764-101.74591-45.58833-101.74591-46.92647-103.08403-46.92647-104.73474-46.92647-106.38544-45.58833-107.72357-43.93764-107.72357-42.28693-107.72357-40.9488-106.38544-40.9488-104.73474ZM-43.93764-104.73474"/>
<path transform="matrix(1.00005,0,0,-1.00005,49.024507,171.88478)" d="M-40.9488-86.73207C-40.9488-85.08136-42.28693-83.74324-43.93764-83.74324-45.58833-83.74324-46.92647-85.08136-46.92647-86.73207-46.92647-88.38278-45.58833-89.7209-43.93764-89.7209-42.28693-89.7209-40.9488-88.38278-40.9488-86.73207ZM-43.93764-86.73207"/>
<path transform="matrix(1.00005,0,0,-1.00005,49.024507,171.88478)" stroke-width=".3985" stroke-linecap="round" stroke-miterlimit="10" stroke-linejoin="miter" fill="none" stroke="#000000" d="M-40.9488-86.73207C-40.9488-85.08136-42.28693-83.74324-43.93764-83.74324-45.58833-83.74324-46.92647-85.08136-46.92647-86.73207-46.92647-88.38278-45.58833-89.7209-43.93764-89.7209-42.28693-89.7209-40.9488-88.38278-40.9488-86.73207ZM-43.93764-86.73207"/>
<path transform="matrix(1.00005,0,0,-1.00005,49.024507,171.88478)" d="M-40.9488-66.41792C-40.9488-64.76721-42.28693-63.4291-43.93764-63.4291-45.58833-63.4291-46.92647-64.76721-46.92647-66.41792-46.92647-68.06863-45.58833-69.40675-43.93764-69.40675-42.28693-69.40675-40.9488-68.06863-40.9488-66.41792ZM-43.93764-66.41792"/>
<path transform="matrix(1.00005,0,0,-1.00005,49.024507,171.88478)" stroke-width=".3985" stroke-linecap="round" stroke-miterlimit="10" stroke-linejoin="miter" fill="none" stroke="#000000" d="M-40.9488-66.41792C-40.9488-64.76721-42.28693-63.4291-43.93764-63.4291-45.58833-63.4291-46.92647-64.76721-46.92647-66.41792-46.92647-68.06863-45.58833-69.40675-43.93764-69.40675-42.28693-69.40675-40.9488-68.06863-40.9488-66.41792ZM-43.93764-66.41792"/>
<path transform="matrix(1.00005,0,0,-1.00005,49.024507,171.88478)" d="M-40.9488-41.26886C-40.9488-39.61816-42.28693-38.28003-43.93764-38.28003-45.58833-38.28003-46.92647-39.61816-46.92647-41.26886-46.92647-42.91957-45.58833-44.25769-43.93764-44.25769-42.28693-44.25769-40.9488-42.91957-40.9488-41.26886ZM-43.93764-41.26886"/>
<path transform="matrix(1.00005,0,0,-1.00005,49.024507,171.88478)" stroke-width=".3985" stroke-linecap="round" stroke-miterlimit="10" stroke-linejoin="miter" fill="none" stroke="#000000" d="M-40.9488-41.26886C-40.9488-39.61816-42.28693-38.28003-43.93764-38.28003-45.58833-38.28003-46.92647-39.61816-46.92647-41.26886-46.92647-42.91957-45.58833-44.25769-43.93764-44.25769-42.28693-44.25769-40.9488-42.91957-40.9488-41.26886ZM-43.93764-41.26886"/>
<path transform="matrix(1.00005,0,0,-1.00005,49.024507,171.88478)" d="M-40.9488-6.30293C-40.9488-4.65222-42.28693-3.3141-43.93764-3.3141-45.58833-3.3141-46.92647-4.65222-46.92647-6.30293-46.92647-7.95364-45.58833-9.29176-43.93764-9.29176-42.28693-9.29176-40.9488-7.95364-40.9488-6.30293ZM-43.93764-6.30293"/>
<path transform="matrix(1.00005,0,0,-1.00005,49.024507,171.88478)" stroke-width=".3985" stroke-linecap="round" stroke-miterlimit="10" stroke-linejoin="miter" fill="none" stroke="#000000" d="M-40.9488-6.30293C-40.9488-4.65222-42.28693-3.3141-43.93764-3.3141-45.58833-3.3141-46.92647-4.65222-46.92647-6.30293-46.92647-7.95364-45.58833-9.29176-43.93764-9.29176-42.28693-9.29176-40.9488-7.95364-40.9488-6.30293ZM-43.93764-6.30293"/>
<path transform="matrix(1.00005,0,0,-1.00005,49.024507,171.88478)" d="M-40.9488 51.01265C-40.9488 52.66336-42.28693 54.00148-43.93764 54.00148-45.58833 54.00148-46.92647 52.66336-46.92647 51.01265-46.92647 49.36194-45.58833 48.02382-43.93764 48.02382-42.28693 48.02382-40.9488 49.36194-40.9488 51.01265ZM-43.93764 51.01265"/>
<path transform="matrix(1.00005,0,0,-1.00005,49.024507,171.88478)" stroke-width=".3985" stroke-linecap="round" stroke-miterlimit="10" stroke-linejoin="miter" fill="none" stroke="#000000" d="M-40.9488 51.01265C-40.9488 52.66336-42.28693 54.00148-43.93764 54.00148-45.58833 54.00148-46.92647 52.66336-46.92647 51.01265-46.92647 49.36194-45.58833 48.02382-43.93764 48.02382-42.28693 48.02382-40.9488 49.36194-40.9488 51.01265ZM-43.93764 51.01265"/>
<path transform="matrix(1.00005,0,0,-1.00005,49.024507,171.88478)" d="M-13.2642 85.04042C-13.2642 86.69113-14.60233 88.02925-16.25304 88.02925-17.90375 88.02925-19.24187 86.69113-19.24187 85.04042-19.24187 83.38971-17.90375 82.05159-16.25304 82.05159-14.60233 82.05159-13.2642 83.38971-13.2642 85.04042ZM-16.25304 85.04042"/>
<path transform="matrix(1.00005,0,0,-1.00005,49.024507,171.88478)" stroke-width=".3985" stroke-linecap="round" stroke-miterlimit="10" stroke-linejoin="miter" fill="none" stroke="#000000" d="M-13.2642 85.04042C-13.2642 86.69113-14.60233 88.02925-16.25304 88.02925-17.90375 88.02925-19.24187 86.69113-19.24187 85.04042-19.24187 83.38971-17.90375 82.05159-16.25304 82.05159-14.60233 82.05159-13.2642 83.38971-13.2642 85.04042ZM-16.25304 85.04042"/>
<path transform="matrix(1.00005,0,0,-1.00005,49.024507,171.88478)" d="M27.38568 85.04042C27.38568 86.69113 26.04756 88.02925 24.39685 88.02925 22.74615 88.02925 21.40802 86.69113 21.40802 85.04042 21.40802 83.38971 22.74615 82.05159 24.39685 82.05159 26.04756 82.05159 27.38568 83.38971 27.38568 85.04042ZM24.39685 85.04042"/>
<path transform="matrix(1.00005,0,0,-1.00005,49.024507,171.88478)" stroke-width=".3985" stroke-linecap="round" stroke-miterlimit="10" stroke-linejoin="miter" fill="none" stroke="#000000" d="M27.38568 85.04042C27.38568 86.69113 26.04756 88.02925 24.39685 88.02925 22.74615 88.02925 21.40802 86.69113 21.40802 85.04042 21.40802 83.38971 22.74615 82.05159 24.39685 82.05159 26.04756 82.05159 27.38568 83.38971 27.38568 85.04042ZM24.39685 85.04042"/>
</svg>
