<svg xmlns="http://www.w3.org/2000/svg" xmlns:xlink="http://www.w3.org/1999/xlink" version="1.1" width="224" height="171" viewBox="0 0 224 171">
<defs>
<path id="font_1_8" d="M.16299439 .4569702C.116989139 .486969 .11299133 .52098086 .11299133 .5379791 .11299133 .598999 .17799378 .64100649 .24899292 .64100649 .32199098 .64100649 .38598634 .58898928 .38598634 .51698306 .38598634 .45996095 .34700013 .4119568 .2869873 .37695313L.16299439 .4569702M.30899049 .36193849C.3809967 .3989563 .42999269 .45095826 .42999269 .51698306 .42999269 .6090088 .34098817 .6660156 .25 .6660156 .1499939 .6660156 .068984989 .59199526 .068984989 .49897767 .068984989 .4809723 .070999149 .43595887 .11299133 .38894654 .12399292 .37695313 .16099549 .35194398 .18598938 .33494569 .12799073 .30592347 .041992189 .24984741 .041992189 .15072632 .041992189 .04458618 .14399719-.022460938 .24899292-.022460938 .3619995-.022460938 .45700074 .06060791 .45700074 .16773987 .45700074 .20379639 .44599916 .24885559 .4079895 .2909088 .3889923 .31193543 .37298585 .3219452 .30899049 .36193849M.20899964 .3199463 .33198548 .24183655C.3600006 .2228241 .40699769 .19277954 .40699769 .13169861 .40699769 .05760193 .33198548 .0055389406 .25 .0055389406 .1639862 .0055389406 .09199524 .067611698 .09199524 .15072632 .09199524 .20880127 .12399292 .27288819 .20899964 .3199463Z"/>
<path id="font_1_2" d="M.2939911 .64004519C.2939911 .66400149 .2939911 .6660156 .2709961 .6660156 .20899964 .60227969 .12098694 .60227969 .08898926 .60227969V.57128909C.10899353 .57128909 .16799927 .57128909 .21998596 .5972748V.07902527C.21998596 .042999269 .21699524 .0309906 .1269989 .0309906H.09498596V0C.12998963 .0029907227 .21699524 .0029907227 .25698854 .0029907227 .29699708 .0029907227 .38398744 .0029907227 .4189911 0V.0309906H.3869934C.29699708 .0309906 .2939911 .041992189 .2939911 .07902527V.64004519Z"/>
<path id="font_1_7" d="M.13198853 .327713V.35173036C.13198853 .6047821 .2559967 .64100649 .30699159 .64100649 .33099366 .64100649 .37298585 .634964 .394989 .6007538 .37998963 .6007538 .33999635 .6007538 .33999635 .5557556 .33999635 .524765 .3639984 .5097656 .38598634 .5097656 .4019928 .5097656 .43199159 .51875308 .43199159 .5577545 .43199159 .6178589 .3880005 .6660156 .30499269 .6660156 .1769867 .6660156 .041992189 .5367584 .041992189 .31570436 .041992189 .048553468 .1579895-.022460938 .25099183-.022460938 .3619995-.022460938 .45700074 .07156372 .45700074 .2036438 .45700074 .33070375 .36799623 .4267578 .25698854 .4267578 .18899536 .4267578 .1519928 .37573243 .13198853 .327713M.25099183 .0055389406C.18798828 .0055389406 .1579895 .06556702 .1519928 .080566409 .13398743 .127594 .13398743 .2076416 .13398743 .22564698 .13398743 .30369569 .1659851 .40374757 .2559967 .40374757 .27198792 .40374757 .31799317 .40374757 .34899903 .34172059 .36698915 .30470277 .36698915 .2536621 .36698915 .20463562 .36698915 .15661621 .36698915 .10658264 .34999085 .0705719 .31999208 .010528564 .27398683 .0055389406 .25099183 .0055389406Z"/>
<path id="font_1_3" d="M.1269989 .07699585 .23298645 .18003845C.3889923 .31811524 .44898988 .3721466 .44898988 .47216798 .44898988 .5860901 .35899354 .6660156 .23699951 .6660156 .12399292 .6660156 .049987794 .57411196 .049987794 .48516847 .049987794 .4291687 .099990848 .4291687 .102996829 .4291687 .11999512 .4291687 .15499878 .44117738 .15499878 .48217774 .15499878 .5081787 .13699341 .5341797 .101989749 .5341797 .09399414 .5341797 .09199524 .5341797 .08898926 .5331726 .11199951 .59806826 .1659851 .63500979 .22399903 .63500979 .31498719 .63500979 .35798646 .5541382 .35798646 .47216798 .35798646 .39215089 .30799867 .31311036 .25299073 .25108338L.06098938 .036987306C.049987794 .025985718 .049987794 .023986817 .049987794 0H.42099L.44898988 .17404175H.42399598C.4189911 .14402771 .4119873 .1000061 .4019928 .084991458 .394989 .07699585 .32899476 .07699585 .30699159 .07699585H.1269989Z"/>
<path id="font_1_5" d="M.2939911 .16503906V.07800293C.2939911 .041992189 .2919922 .0309906 .21798706 .0309906H.19699097V0C.23799134 .0029907227 .2899933 .0029907227 .33198548 .0029907227 .37399293 .0029907227 .4269867 .0029907227 .46798707 0V.0309906H.44699098C.37298585 .0309906 .37098695 .041992189 .37098695 .07800293V.16503906H.47099305V.19602967H.37098695V.65075686C.37098695 .67074587 .37098695 .6767578 .35499574 .6767578 .34599305 .6767578 .34298707 .6767578 .33499146 .66474917L.027999878 .19602967V.16503906H.2939911M.2999878 .19602967H.055999757L.2999878 .5688019V.19602967Z"/>
<path id="font_1_4" d="M.2899933 .35191346C.37199403 .37893678 .42999269 .4490509 .42999269 .52809146 .42999269 .6100464 .34199525 .6660156 .24598694 .6660156 .14498902 .6660156 .068984989 .60606387 .068984989 .53009036 .068984989 .49710084 .09098816 .47808839 .11999512 .47808839 .15098572 .47808839 .17098999 .50009158 .17098999 .5290985 .17098999 .57910159 .12399292 .57910159 .10899353 .57910159 .13999939 .62802127 .20599365 .64100649 .24198914 .64100649 .2829895 .64100649 .33799745 .6190338 .33799745 .5290985 .33799745 .51708987 .33599855 .45906068 .30999757 .4149933 .27999879 .36691285 .24598694 .36390687 .22099304 .36291505 .21299744 .36190797 .18899536 .35990907 .18199158 .35990907 .17399597 .35890199 .16699219 .35791017 .16699219 .3479004 .16699219 .33691407 .17399597 .33691407 .19099427 .33691407H.23498535C.31698609 .33691407 .35398866 .2686615 .35398866 .17037964 .35398866 .034469606 .2849884 .0055389406 .24099732 .0055389406 .19799805 .0055389406 .12298584 .022491456 .08799744 .08137512 .12298584 .07637024 .1539917 .09837341 .1539917 .1363678 .1539917 .17237854 .1269989 .19238281 .09799194 .19238281 .07398987 .19238281 .041992189 .17837525 .041992189 .1343689 .041992189 .043441774 .1349945-.022460938 .24398804-.022460938 .3659973-.022460938 .45700074 .06838989 .45700074 .17037964 .45700074 .252594 .3939972 .33088685 .2899933 .35191346Z"/>
<path id="font_1_1" d="M.45999146 .31976319C.45999146 .39982606 .45498658 .47988893 .41999818 .5539398 .37399293 .65000918 .2919922 .6660156 .25 .6660156 .18998719 .6660156 .116989139 .64001467 .07598877 .54693606 .04399109 .47789 .038986207 .39982606 .038986207 .31976319 .038986207 .24472046 .042999269 .15464783 .083999637 .07859802 .1269989-.0024719239 .19999695-.022460938 .24899292-.022460938 .30299378-.022460938 .3789978-.0014648438 .4229889 .09359741 .45498658 .16265869 .45999146 .2407074 .45999146 .31976319M.24899292-.00047302247C.20999146-.00047302247 .15098572 .024551392 .1329956 .12062073 .12199402 .18066406 .12199402 .2727356 .12199402 .3317871 .12199402 .39582826 .12199402 .46188355 .12998963 .5159149 .14898682 .63500979 .22399903 .64401248 .24899292 .64401248 .28199769 .64401248 .34799195 .6259918 .36698915 .52693179 .3769989 .47088624 .3769989 .39482118 .3769989 .3317871 .3769989 .25672914 .3769989 .18867493 .3659973 .12461853 .35099793 .029556275 .2939911-.00047302247 .24899292-.00047302247Z"/>
<path id="font_2_1" d="M.6589966 .23046875C.6759949 .23046875 .69400027 .23046875 .69400027 .25045777 .69400027 .27046205 .6759949 .27046205 .6589966 .27046205H.117996219C.100997928 .27046205 .08299255 .27046205 .08299255 .25045777 .08299255 .23046875 .100997928 .23046875 .117996219 .23046875H.6589966Z"/>
<path id="font_1_6" d="M.44898988 .20022583C.44898988 .3193512 .36698915 .41944886 .25898744 .41944886 .21099854 .41944886 .16799927 .40345765 .13198853 .36842347V.5637665C.1519928 .5577698 .18499756 .55078127 .21699524 .55078127 .33999635 .55078127 .4099884 .6417694 .4099884 .6547699 .4099884 .6607666 .40699769 .6657715 .3999939 .6657715 .39898683 .6657715 .39698792 .6657715 .3919983 .66278079 .37199403 .6537781 .32299806 .6337738 .2559967 .6337738 .21598816 .6337738 .16999817 .6407776 .12298584 .6617737 .114990238 .66477969 .11299133 .66477969 .11099243 .66477969 .100997928 .66477969 .100997928 .6567688 .100997928 .6407776V.34439088C.100997928 .32637025 .100997928 .31835938 .114990238 .31835938 .12199402 .31835938 .12399292 .32136537 .12799073 .32736207 .13899231 .3433838 .17599488 .39746095 .25698854 .39746095 .30899049 .39746095 .33399964 .35139466 .34199525 .33337403 .35798646 .29632569 .3600006 .25727845 .3600006 .20722962 .3600006 .17222595 .3600006 .11222839 .33599855 .07035828 .31199647 .031463624 .2749939 .0055389406 .22898865 .0055389406 .1559906 .0055389406 .09899902 .058380128 .08198547 .11723328 .084991458 .1162262 .08799744 .115234378 .09899902 .115234378 .13198853 .115234378 .14898682 .14022827 .14898682 .16423035 .14898682 .18823242 .13198853 .21322632 .09899902 .21322632 .084991458 .21322632 .049987794 .20622254 .049987794 .16023255 .049987794 .07434082 .11898804-.022460938 .23098755-.022460938 .34700013-.022460938 .44898988 .073349 .44898988 .20022583Z"/>
<path id="font_3_1" d="M.20599365 .3996582H.2999878C.31999208 .3996582 .32998658 .3996582 .32998658 .41966249 .32998658 .43066407 .31999208 .43066407 .3019867 .43066407H.21398926C.25 .5724945 .25498963 .59246829 .25498963 .59846499 .25498963 .61546328 .24299622 .62545779 .22599793 .62545779 .22299195 .62545779 .19499207 .62446597 .18598938 .58947756L.14698792 .43066407H.052993776C.032989503 .43066407 .022994996 .43066407 .022994996 .4116516 .022994996 .3996582 .0309906 .3996582 .050994874 .3996582H.13899231C.066986087 .11608887 .06298828 .099121097 .06298828 .08114624 .06298828 .02722168 .100997928-.0107421879 .15499878-.0107421879 .25698854-.0107421879 .31399537 .13505554 .31399537 .14305115 .31399537 .1530304 .30599977 .1530304 .3019867 .1530304 .29299928 .1530304 .2919922 .15003968 .2869873 .13905335 .24398804 .035217287 .19099427 .011245728 .15699768 .011245728 .13598633 .011245728 .12599182 .024230957 .12599182 .057174684 .12599182 .08114624 .12799073 .088134769 .13198853 .10510254L.20599365 .3996582Z"/>
<path id="font_3_2" d="M.46199037 .33935548C.46699525 .36135865 .47698976 .3983612 .47698976 .40437318 .47698976 .42237855 .46299745 .43138124 .44799806 .43138124 .43598939 .43138124 .41799928 .42337037 .41099549 .4033661 .4079895 .3963623 .36099244 .205307 .35398866 .17930603 .34700013 .14929199 .34498597 .13128662 .34498597 .11328125 .34498597 .10227966 .34498597 .10028076 .34599305 .09527588 .32299806 .042266847 .29299928 .011245728 .2539978 .011245728 .17399597 .011245728 .17399597 .08526611 .17399597 .10227966 .17399597 .1342926 .1789856 .17329407 .22599793 .29634095 .23699951 .32633973 .24299622 .3403473 .24299622 .36035157 .24299622 .405365 .20999146 .4423828 .16099549 .4423828 .06599426 .4423828 .0289917 .29733277 .0289917 .28833009 .0289917 .27833558 .038986207 .27833558 .040985109 .27833558 .050994874 .27833558 .051986696 .28033448 .056991579 .29634095 .083999637 .38935853 .12298584 .42037965 .1579895 .42037965 .16699219 .42037965 .18299866 .41937257 .18299866 .38735963 .18299866 .36235047 .17199707 .3343506 .16499329 .31733705 .12098694 .1993103 .10899353 .1532898 .10899353 .11528015 .10899353 .024261475 .17599488-.0107421879 .25099183-.0107421879 .2679901-.0107421879 .31498719-.0107421879 .35499574 .059265138 .3809967-.0047454836 .44999696-.0107421879 .47999574-.0107421879 .5549927-.0107421879 .598999 .052261354 .625 .11227417 .6589966 .19030762 .69099429 .32434083 .69099429 .37236024 .69099429 .42736817 .6639862 .4423828 .6469879 .4423828 .621994 .4423828 .5970001 .41636659 .5970001 .3943634 .5970001 .38136292 .6029968 .3753662 .6119995 .36735536 .6230011 .35635377 .647995 .33035279 .647995 .28233338 .647995 .24832154 .61898806 .15029907 .59298709 .09927368 .5669861 .04626465 .5319977 .011245728 .48298646 .011245728 .43598939 .011245728 .40899659 .041259767 .40899659 .09828186 .40899659 .12628174 .41600038 .1572876 .41999818 .17129517L.46199037 .33935548Z"/>
</defs>
<path transform="matrix(1,0,0,-1.00006,23.573998,166.5352)" stroke-width=".19925" stroke-linecap="butt" stroke-miterlimit="10" stroke-linejoin="miter" fill="none" stroke="#929292" d="M0 79.28079V82.11555M19.42691 79.28079V82.11555M38.85382 79.28079V82.11555M58.28073 79.28079V82.11555M77.70764 79.28079V82.11555M97.13455 79.28079V82.11555M116.56146 79.28079V82.11555M135.98838 79.28079V82.11555M155.41529 79.28079V82.11555M174.84221 79.28079V82.11555M194.26912 79.28079V82.11555"/>
<path transform="matrix(1,0,0,-1.00006,23.573998,166.5352)" stroke-width=".19925" stroke-linecap="butt" stroke-miterlimit="10" stroke-linejoin="miter" fill="none" stroke="#929292" d="M38.85382 78.5723V82.82404M77.70764 78.5723V82.82404M116.56146 78.5723V82.82404M155.41529 78.5723V82.82404M194.26912 78.5723V82.82404"/>
<path transform="matrix(1,0,0,-1.00006,23.573998,166.5352)" stroke-width=".19925" stroke-linecap="butt" stroke-miterlimit="10" stroke-linejoin="miter" fill="none" stroke="#929292" d="M-2.12587 0H2.12587M-2.12587 40.34909H2.12587M-2.12587 121.04727H2.12587M-2.12587 161.39636H2.12587"/>
<path transform="matrix(1,0,0,-1.00006,23.573998,166.5352)" stroke-width=".3985" stroke-linecap="butt" stroke-miterlimit="10" stroke-linejoin="miter" fill="none" stroke="#000000" d="M0 80.69818H192.2766"/>
<path transform="matrix(1,0,0,-1.00006,215.85059,85.832187)" d="M1.99252 0-1.19551 1.59401 0 0-1.19551-1.59401"/>
<path transform="matrix(1,0,0,-1.00006,23.573998,166.5352)" stroke-width=".3985" stroke-linecap="butt" stroke-miterlimit="10" stroke-linejoin="miter" fill="none" stroke="#000000" d="M0 0V159.40384"/>
<path transform="matrix(0,-1.00006,-1,-0,23.573998,7.121811)" d="M1.99252 0-1.19551 1.59401 0 0-1.19551-1.59401"/>
<use data-text="8" xlink:href="#font_1_8" transform="matrix(9.9626,0,0,-9.963197,59.936998,97.899089)"/>
<use data-text="1" xlink:href="#font_1_2" transform="matrix(9.9626,0,0,-9.963197,96.299999,97.899089)"/>
<use data-text="6" xlink:href="#font_1_7" transform="matrix(9.9626,0,0,-9.963197,101.28129,97.899089)"/>
<use data-text="2" xlink:href="#font_1_3" transform="matrix(9.9626,0,0,-9.963197,135.15399,97.899089)"/>
<use data-text="4" xlink:href="#font_1_5" transform="matrix(9.9626,0,0,-9.963197,140.13529,97.899089)"/>
<use data-text="3" xlink:href="#font_1_4" transform="matrix(9.9626,0,0,-9.963197,174.008,97.899089)"/>
<use data-text="2" xlink:href="#font_1_3" transform="matrix(9.9626,0,0,-9.963197,178.98929,97.899089)"/>
<use data-text="4" xlink:href="#font_1_5" transform="matrix(9.9626,0,0,-9.963197,212.862,97.899089)"/>
<use data-text="0" xlink:href="#font_1_1" transform="matrix(9.9626,0,0,-9.963197,217.84329,97.899089)"/>
<use data-text="&#x2212;" xlink:href="#font_2_1" transform="matrix(9.9626,0,0,-9.963197,.21699524,169.33037)"/>
<use data-text="1" xlink:href="#font_1_2" transform="matrix(9.9626,0,0,-9.963197,7.965988,169.33037)"/>
<use data-text="0" xlink:href="#font_1_1" transform="matrix(9.9626,0,0,-9.963197,12.947281,169.33037)"/>
<use data-text="&#x2212;" xlink:href="#font_2_1" transform="matrix(9.9626,0,0,-9.963197,5.197998,128.97895)"/>
<use data-text="5" xlink:href="#font_1_6" transform="matrix(9.9626,0,0,-9.963197,12.946991,128.97895)"/>
<use data-text="5" xlink:href="#font_1_6" transform="matrix(9.9626,0,0,-9.963197,12.946999,48.69114)"/>
<use data-text="1" xlink:href="#font_1_2" transform="matrix(9.9626,0,0,-9.963197,7.9660036,8.339706)"/>
<use data-text="0" xlink:href="#font_1_1" transform="matrix(9.9626,0,0,-9.963197,12.947296,8.339706)"/>
<path transform="matrix(1,0,0,-1.00006,23.573998,166.5352)" stroke-width=".99628" stroke-linecap="butt" stroke-miterlimit="10" stroke-linejoin="miter" fill="none" stroke="#0000ff" d="M2.81192 152.66349 .97621 153.0963 1.95244 152.4223 2.92868 151.29657 3.9049 149.73506 4.88115 147.73923 5.85738 145.33087 6.8336 142.51725 7.80984 139.31945 8.78607 135.75556 9.76231 131.85033 10.73854 127.62552 11.71477 123.10878 12.691 118.32982 13.66722 113.31412 14.64346 108.09578 15.61969 102.70602 16.59592 97.18045 17.57216 91.55174 18.54839 85.85768 19.52463 80.13094 20.50085 74.40709 21.4771 68.72176 22.45331 63.10976 23.42953 57.60815 24.40578 52.2511 25.382 47.07123 26.35823 42.0991 27.33447 37.37027 28.3107 32.9087 29.28694 28.74564 30.26317 24.90579 31.23941 21.41382 32.21564 18.29079 33.19185 15.55562 34.16808 13.22714 35.14432 11.31918 36.12054 9.84193 37.09679 8.80553 38.07301 8.2194 39.04926 8.07999 40.02548 8.39882 41.00172 9.16142 41.97795 10.37503 42.95418 12.0215 43.93039 14.10158 44.90663 16.59055 45.88286 19.48335 46.8591 22.7538 47.83533 26.38887 48.81157 30.35799 49.7878 34.6438 50.76404 39.2143 51.74026 44.04408 52.71649 49.10193 53.69273 54.35585 54.66895 59.77466 55.64517 65.32274 56.62141 70.96887 57.59764 76.67456 58.57388 82.40276 59.55011 88.12079 60.52635 93.7938 61.50258 99.38689 62.4788 104.86163 63.45505 110.18674 64.43127 115.32735 65.40749 120.25594 66.38373 124.93246 67.35995 129.3381 68.3362 133.4387 69.31242 137.21175 70.28867 140.6318 71.2649 143.68074 72.24112 146.3346 73.21736 148.58245 74.19359 150.40541 75.16982 151.7948 76.14604 152.7426 77.12227 153.24156 78.09851 153.28803 79.07474 152.88205 80.05098 152.02866 81.0272 150.7286 82.00343 148.99571 82.97966 146.83354 83.9559 144.26323 84.93213 141.29347 85.90837 137.94966 86.88458 134.24634 87.86082 130.21329 88.83705 125.86792 89.8133 121.2444 90.78952 116.36742 91.76575 111.26817 92.74197 105.97792 93.71822 100.53079 94.69444 94.9602 95.67068 89.30026 96.64691 83.58586 97.62314 77.8584 98.59943 72.14473 99.57556 66.4848 100.55185 60.91273 101.528 55.46635 102.50429 50.17317 103.48058 45.07324 104.45673 40.19333 105.43303 35.56691 106.40916 31.21938 107.38547 27.18413 108.36174 23.47647 109.33788 20.13046 110.31416 17.15561 111.29031 14.58385 112.2666 12.41733 113.24289 10.6815 114.21904 9.37639 115.19534 8.5201 116.17148 8.10974 117.14778 8.15405 118.12407 8.6472 119.10019 9.59064 120.07648 10.97784 121.05263 12.79645 122.02892 15.04068 123.0052 17.69162 123.98135 20.73692 124.95766 24.15335 125.93379 27.9235 126.9101 32.02046 127.88638 36.42392 128.86252 41.09901 129.83879 46.02394 130.81494 51.16312 131.79123 56.48824 132.76753 61.96005 133.74367 67.55388 134.71997 73.22688 135.6961 78.9442 136.67241 84.6724 137.6487 90.37952 138.62483 96.02347 139.60112 101.57373 140.57726 106.99397 141.55355 112.2501 142.52985 117.3094 143.50598 122.13991 144.48229 126.71405 145.45842 131.0013 146.43473 134.97408 147.41101 138.61275 148.38715 141.88611 149.36344 144.78108 150.33959 147.27442 151.31586 149.35884 152.29216 151.00824 153.2683 152.22621 154.2446 152.99245 155.22074 153.31565 156.19704 153.18054 157.17333 152.59806 158.14946 151.56458 159.12575 150.09238 160.1019 148.18735 161.07819 145.86252 162.05448 143.13097 163.03061 140.01158 164.00691 136.52178 164.98305 132.68555 165.95935 128.52539 166.93564 124.06747 167.91178 119.33936 168.88806 114.36867 169.86421 109.19171 170.8405 103.83322 171.8168 98.33307 172.79293 92.72324 173.76923 87.03935 174.74536 81.31624 175.72167 75.5895 176.69795 69.89178 177.67409 64.26309 178.65038 58.7368 179.62653 53.34633 180.60282 48.12727 181.57912 43.10936 182.55525 38.32751 183.53154 33.80856 184.50768 29.5816 185.48398 25.67273 186.46027 22.10669 187.4364 18.90594 188.41269 16.0887 189.38884 13.67671 190.36513 11.67725 191.34143 10.11064 192.31757 8.98276 193.29387 8.3044 191.45998 8.74228"/>
<path transform="matrix(-.97325,-.22950375,-.22949,.9733083,26.385937,13.862564)" d="M2.8892 0-1.73352 2.31136 0 0-1.73352-2.31136" fill="#0000ff"/>
<path transform="matrix(.9726,.23226394,.23225,-.9726583,215.03397,157.7924)" d="M2.8892 0-1.73352 2.31136 0 0-1.73352-2.31136" fill="#0000ff"/>
<use data-text="t" xlink:href="#font_3_1" transform="matrix(9.9626,0,0,-9.963197,210.72599,82.31215)"/>
<use data-text="w" xlink:href="#font_3_2" transform="matrix(9.9626,0,0,-9.963197,27.093995,12.93898)"/>
</svg>
