<svg xmlns="http://www.w3.org/2000/svg" xmlns:xlink="http://www.w3.org/1999/xlink" xmlns:inkscape="http://www.inkscape.org/namespaces/inkscape" version="1.1" width="457" height="230" viewBox="0 0 457 230">
<path transform="matrix(1.00005,0,0,-1.00002,228.87848,171.88013)" stroke-width=".3985" stroke-linecap="butt" stroke-miterlimit="10" stroke-linejoin="miter" fill="none" stroke="#cccccc" d="M-226.77448-56.69362H226.77448M-226.77448-28.3468H226.77448M-226.77448 0H226.77448M-226.77448 28.3468H226.77448M-226.77448 56.69362H226.77448M-226.77448 85.04042H226.77448M-226.77448 113.38724H226.77448M-226.77448 141.73404H226.77448M-226.77448 170.07089H226.77448M-226.77448-56.69362V170.08086M-198.42766-56.69362V170.08086M-170.08086-56.69362V170.08086M-141.73404-56.69362V170.08086M-113.38724-56.69362V170.08086M-85.04042-56.69362V170.08086M-56.69362-56.69362V170.08086M-28.3468-56.69362V170.08086M0-56.69362V170.08086M28.3468-56.69362V170.08086M56.69362-56.69362V170.08086M85.04042-56.69362V170.08086M113.38724-56.69362V170.08086M141.73404-56.69362V170.08086M170.08086-56.69362V170.08086M198.42766-56.69362V170.08086M226.76451-56.69362V170.08086M226.77448 170.08086"/>
<path transform="matrix(1.00005,0,0,-1.00002,228.87848,171.88013)" stroke-width="1.99255" stroke-linecap="butt" stroke-miterlimit="10" stroke-linejoin="miter" fill="none" stroke="#000000" d="M0 0V137.3504"/>
<path transform="matrix(0,-1.00002,-1.00005,-0,228.87848,34.526979)" d="M4.38364 0-2.63017 3.50691 0 0-2.63017-3.50691"/>
<path transform="matrix(1.00005,0,0,-1.00002,228.87848,171.88013)" stroke-width=".99628" stroke-linecap="butt" stroke-miterlimit="10" stroke-linejoin="miter" fill="none" stroke="#0000ff" d="M56.69362 0 31.62248-4.42062"/>
<path transform="matrix(-.98484918,.17363347,.17363867,.9848197,260.50257,176.30084)" d="M2.8892 0-1.73352 2.31136 0 0-1.73352-2.31136" fill="#0000ff"/>
<path transform="matrix(1.00005,0,0,-1.00002,228.87848,171.88013)" stroke-width=".99628" stroke-linecap="butt" stroke-miterlimit="10" stroke-linejoin="miter" fill="none" stroke="#0000ff" d="M98.19649 56.69362 73.12535 52.27298"/>
<path transform="matrix(-.98484918,.17363347,.17363867,.9848197,302.0075,119.6061)" d="M2.8892 0-1.73352 2.31136 0 0-1.73352-2.31136" fill="#0000ff"/>
<path transform="matrix(1.00005,0,0,-1.00002,228.87848,171.88013)" stroke-width=".99628" stroke-linecap="butt" stroke-miterlimit="10" stroke-linejoin="miter" fill="none" stroke="#0000ff" d="M54.66327 65.1441 29.59213 60.72348"/>
<path transform="matrix(-.98484918,.17363347,.17363867,.9848197,258.4721,111.155429)" d="M2.8892 0-1.73352 2.31136 0 0-1.73352-2.31136" fill="#0000ff"/>
<path transform="matrix(1.00005,0,0,-1.00002,228.87848,171.88013)" stroke-width=".99628" stroke-linecap="butt" stroke-miterlimit="10" stroke-linejoin="miter" fill="none" stroke="#0000ff" d="M171.84387 99.21382 146.77274 94.7932"/>
<path transform="matrix(-.98484918,.17363347,.17363867,.9848197,375.65858,77.08503)" d="M2.8892 0-1.73352 2.31136 0 0-1.73352-2.31136" fill="#0000ff"/>
<path transform="matrix(1.00005,0,0,-1.00002,228.87848,171.88013)" stroke-width=".99628" stroke-linecap="butt" stroke-miterlimit="10" stroke-linejoin="miter" fill="none" stroke="#0000ff" d="M213.09935 77.56268 188.02822 73.14206"/>
<path transform="matrix(-.98484918,.17363347,.17363867,.9848197,416.91609,98.7366)" d="M2.8892 0-1.73352 2.31136 0 0-1.73352-2.31136" fill="#0000ff"/>
<path transform="matrix(1.00005,0,0,-1.00002,228.87848,171.88013)" stroke-width=".99628" stroke-linecap="butt" stroke-miterlimit="10" stroke-linejoin="miter" fill="none" stroke="#0000ff" d="M111.66573 19.6891 86.59459 15.26848"/>
<path transform="matrix(-.98484918,.17363347,.17363867,.9848197,315.47743,156.61135)" d="M2.8892 0-1.73352 2.31136 0 0-1.73352-2.31136" fill="#0000ff"/>
<path transform="matrix(1.00005,0,0,-1.00002,228.87848,171.88013)" stroke-width=".99628" stroke-linecap="butt" stroke-miterlimit="10" stroke-linejoin="miter" fill="none" stroke="#0000ff" d="M197.67072 17.29459 172.59958 12.87396"/>
<path transform="matrix(-.98484918,.17363347,.17363867,.9848197,401.4867,159.0059)" d="M2.8892 0-1.73352 2.31136 0 0-1.73352-2.31136" fill="#0000ff"/>
<path transform="matrix(1.00005,0,0,-1.00002,228.87848,171.88013)" stroke-width=".99628" stroke-linecap="butt" stroke-miterlimit="10" stroke-linejoin="miter" fill="none" stroke="#0000ff" d="M164.2857 44.02023 139.21457 39.59961"/>
<path transform="matrix(-.98484918,.17363347,.17363867,.9848197,368.10005,132.27973)" d="M2.8892 0-1.73352 2.31136 0 0-1.73352-2.31136" fill="#0000ff"/>
<path transform="matrix(1.00005,0,0,-1.00002,228.87848,171.88013)" stroke-width=".99628" stroke-linecap="butt" stroke-miterlimit="10" stroke-linejoin="miter" fill="none" stroke="#0000ff" d="M111.66573 19.6891 86.59459 15.26848"/>
<path transform="matrix(-.98484918,.17363347,.17363867,.9848197,315.47743,156.61135)" d="M2.8892 0-1.73352 2.31136 0 0-1.73352-2.31136" fill="#0000ff"/>
<path transform="matrix(1.00005,0,0,-1.00002,228.87848,171.88013)" stroke-width=".99628" stroke-linecap="butt" stroke-miterlimit="10" stroke-linejoin="miter" fill="none" stroke="#0000ff" d="M167.4986-29.53368 142.42746-33.95432"/>
<path transform="matrix(-.98484918,.17363347,.17363867,.9848197,371.31306,205.83513)" d="M2.8892 0-1.73352 2.31136 0 0-1.73352-2.31136" fill="#0000ff"/>
<path transform="matrix(1.00005,0,0,-1.00002,228.87848,171.88013)" stroke-width=".99628" stroke-linecap="butt" stroke-miterlimit="10" stroke-linejoin="miter" fill="none" stroke="#0000ff" d="M48.47668 133.18708 23.40555 128.76645"/>
<path transform="matrix(-.98484918,.17363347,.17363867,.9848197,252.2852,43.1111)" d="M2.8892 0-1.73352 2.31136 0 0-1.73352-2.31136" fill="#0000ff"/>
<path transform="matrix(1.00005,0,0,-1.00002,228.87848,171.88013)" stroke-width=".99628" stroke-linecap="butt" stroke-miterlimit="10" stroke-linejoin="miter" fill="none" stroke="#0000ff" d="M130.28821 109.32655 105.21709 104.90593"/>
<path transform="matrix(-.98484918,.17363347,.17363867,.9848197,334.10084,66.9721)" d="M2.8892 0-1.73352 2.31136 0 0-1.73352-2.31136" fill="#0000ff"/>
<path transform="matrix(1.00005,0,0,-1.00002,228.87848,171.88013)" stroke-width=".99628" stroke-linecap="butt" stroke-miterlimit="10" stroke-linejoin="miter" fill="none" stroke="#0000ff" d="M63.7803 110.47105 38.70917 106.05042"/>
<path transform="matrix(-.98484918,.17363347,.17363867,.9848197,267.5896,65.82758)" d="M2.8892 0-1.73352 2.31136 0 0-1.73352-2.31136" fill="#0000ff"/>
<path transform="matrix(1.00005,0,0,-1.00002,228.87848,171.88013)" stroke-width=".99628" stroke-linecap="butt" stroke-miterlimit="10" stroke-linejoin="miter" fill="none" stroke="#0000ff" d="M185.76294 130.07282 160.6918 125.65219"/>
<path transform="matrix(-.98484918,.17363347,.17363867,.9848197,389.5783,46.225419)" d="M2.8892 0-1.73352 2.31136 0 0-1.73352-2.31136" fill="#0000ff"/>
<path transform="matrix(1.00005,0,0,-1.00002,228.87848,171.88013)" stroke-width=".99628" stroke-linecap="butt" stroke-miterlimit="10" stroke-linejoin="miter" fill="none" stroke="#0000ff" d="M2.47064-28.23866-22.60046-32.65929"/>
<path transform="matrix(-.98484918,.17363347,.17363867,.9848197,206.2769,204.54007)" d="M2.8892 0-1.73352 2.31136 0 0-1.73352-2.31136" fill="#0000ff"/>
<path transform="matrix(1.00005,0,0,-1.00002,228.87848,171.88013)" stroke-width=".99628" stroke-linecap="butt" stroke-miterlimit="10" stroke-linejoin="miter" fill="none" stroke="#0000ff" d="M95.8331-25.67848 70.76196-30.0991"/>
<path transform="matrix(-.98484918,.17363347,.17363867,.9848197,299.64399,201.97983)" d="M2.8892 0-1.73352 2.31136 0 0-1.73352-2.31136" fill="#0000ff"/>
<path transform="matrix(1.00005,0,0,-1.00002,228.87848,171.88013)" stroke-width=".99628" stroke-linecap="butt" stroke-miterlimit="10" stroke-linejoin="miter" fill="none" stroke="#0000ff" d="M-70.867 122.74562-95.93814 118.32498"/>
<path transform="matrix(-.98484918,.17363347,.17363867,.9848197,132.93555,53.552774)" d="M2.8892 0-1.73352 2.31136 0 0-1.73352-2.31136" fill="#0000ff"/>
<path transform="matrix(1.00005,0,0,-1.00002,228.87848,171.88013)" stroke-width=".99628" stroke-linecap="butt" stroke-miterlimit="10" stroke-linejoin="miter" fill="none" stroke="#0000ff" d="M-19.6891 111.66573-44.76024 107.2451"/>
<path transform="matrix(-.98484918,.17363347,.17363867,.9848197,184.11603,64.63287)" d="M2.8892 0-1.73352 2.31136 0 0-1.73352-2.31136" fill="#0000ff"/>
<path transform="matrix(1.00005,0,0,-1.00002,228.87848,171.88013)" stroke-width=".99628" stroke-linecap="butt" stroke-miterlimit="10" stroke-linejoin="miter" fill="none" stroke="#0000ff" d="M-43.4294 36.44217-68.50053 32.02155"/>
<path transform="matrix(-.98484918,.17363347,.17363867,.9848197,160.37454,139.85794)" d="M2.8892 0-1.73352 2.31136 0 0-1.73352-2.31136" fill="#0000ff"/>
<path transform="matrix(1.00005,0,0,-1.00002,228.87848,171.88013)" stroke-width=".99628" stroke-linecap="butt" stroke-miterlimit="10" stroke-linejoin="miter" fill="none" stroke="#0000ff" d="M-120.26544 120.26544-145.33658 115.84482"/>
<path transform="matrix(-.98484918,.17363347,.17363867,.9848197,83.53465,56.03299)" d="M2.8892 0-1.73352 2.31136 0 0-1.73352-2.31136" fill="#0000ff"/>
<path transform="matrix(1.00005,0,0,-1.00002,228.87848,171.88013)" stroke-width=".99628" stroke-linecap="butt" stroke-miterlimit="10" stroke-linejoin="miter" fill="none" stroke="#0000ff" d="M-162.86005 136.6582-187.93119 132.23758"/>
<path transform="matrix(-.98484918,.17363347,.17363867,.9848197,40.937929,39.639894)" d="M2.8892 0-1.73352 2.31136 0 0-1.73352-2.31136" fill="#0000ff"/>
<path transform="matrix(1.00005,0,0,-1.00002,228.87848,171.88013)" stroke-width=".99628" stroke-linecap="butt" stroke-miterlimit="10" stroke-linejoin="miter" fill="none" stroke="#0000ff" d="M-98.19649 56.69362-123.26762 52.27298"/>
<path transform="matrix(-.98484918,.17363347,.17363867,.9848197,105.60471,119.6061)" d="M2.8892 0-1.73352 2.31136 0 0-1.73352-2.31136" fill="#0000ff"/>
<path transform="matrix(1.00005,0,0,-1.00002,228.87848,171.88013)" stroke-width=".99628" stroke-linecap="butt" stroke-miterlimit="10" stroke-linejoin="miter" fill="none" stroke="#0000ff" d="M-166.99166 77.8698-192.06279 73.44917"/>
<path transform="matrix(-.98484918,.17363347,.17363867,.9848197,36.806108,98.42948)" d="M2.8892 0-1.73352 2.31136 0 0-1.73352-2.31136" fill="#0000ff"/>
<path transform="matrix(1.00005,0,0,-1.00002,228.87848,171.88013)" stroke-width=".99628" stroke-linecap="butt" stroke-miterlimit="10" stroke-linejoin="miter" fill="none" stroke="#0000ff" d="M-35.93999 77.07306-61.01112 72.65244"/>
<path transform="matrix(-.98484918,.17363347,.17363867,.9848197,167.86432,99.22623)" d="M2.8892 0-1.73352 2.31136 0 0-1.73352-2.31136" fill="#0000ff"/>
<path transform="matrix(1.00005,0,0,-1.00002,228.87848,171.88013)" stroke-width=".99628" stroke-linecap="butt" stroke-miterlimit="10" stroke-linejoin="miter" fill="none" stroke="#0000ff" d="M-108.57352 91.10547-133.64464 86.68483"/>
<path transform="matrix(-.98484918,.17363347,.17363867,.9848197,95.22719,85.19356)" d="M2.8892 0-1.73352 2.31136 0 0-1.73352-2.31136" fill="#0000ff"/>
<path transform="matrix(1.00005,0,0,-1.00002,228.87848,171.88013)" stroke-width=".99628" stroke-linecap="butt" stroke-miterlimit="10" stroke-linejoin="miter" fill="none" stroke="#0000ff" d="M-150.595 40.35188-175.66614 35.93126"/>
<path transform="matrix(-.98484918,.17363347,.17363867,.9848197,53.203584,135.94815)" d="M2.8892 0-1.73352 2.31136 0 0-1.73352-2.31136" fill="#0000ff"/>
<path transform="matrix(1.00005,0,0,-1.00002,228.87848,171.88013)" stroke-width=".99628" stroke-linecap="butt" stroke-miterlimit="10" stroke-linejoin="miter" fill="none" stroke="#0000ff" d="M-69.79086 12.3057-94.862 7.88506"/>
<path transform="matrix(-.98484918,.17363347,.17363867,.9848197,134.01177,163.9949)" d="M2.8892 0-1.73352 2.31136 0 0-1.73352-2.31136" fill="#0000ff"/>
<path transform="matrix(1.00005,0,0,-1.00002,228.87848,171.88013)" stroke-width=".99628" stroke-linecap="butt" stroke-miterlimit="10" stroke-linejoin="miter" fill="none" stroke="#0000ff" d="M-177.16754 0-202.23868-4.42062"/>
<path transform="matrix(-.98484918,.17363347,.17363867,.9848197,26.629715,176.30084)" d="M2.8892 0-1.73352 2.31136 0 0-1.73352-2.31136" fill="#0000ff"/>
<path transform="matrix(1.00005,0,0,-1.00002,228.87848,171.88013)" stroke-width=".99628" stroke-linecap="butt" stroke-miterlimit="10" stroke-linejoin="miter" fill="none" stroke="#0000ff" d="M-127.07404 11.11795-152.14516 6.69731"/>
<path transform="matrix(-.98484918,.17363347,.17363867,.9848197,76.72574,165.18268)" d="M2.8892 0-1.73352 2.31136 0 0-1.73352-2.31136" fill="#0000ff"/>
<path transform="matrix(1.00005,0,0,-1.00002,228.87848,171.88013)" stroke-width=".99628" stroke-linecap="butt" stroke-miterlimit="10" stroke-linejoin="miter" fill="none" stroke="#0000ff" d="M-139.58216-24.6114-164.65329-29.03203"/>
<path transform="matrix(-.98484918,.17363347,.17363867,.9848197,64.21698,200.91274)" d="M2.8892 0-1.73352 2.31136 0 0-1.73352-2.31136" fill="#0000ff"/>
<path transform="matrix(1.00005,0,0,-1.00002,228.87848,171.88013)" stroke-width=".99628" stroke-linecap="butt" stroke-miterlimit="10" stroke-linejoin="miter" fill="none" stroke="#0000ff" d="M-27.91641-4.92227-52.98755-9.3429"/>
<path transform="matrix(-.98484918,.17363347,.17363867,.9848197,175.8883,181.22322)" d="M2.8892 0-1.73352 2.31136 0 0-1.73352-2.31136" fill="#0000ff"/>
<path transform="matrix(1.00005,0,0,-1.00002,228.87848,171.88013)" stroke-width=".99628" stroke-linecap="butt" stroke-miterlimit="10" stroke-linejoin="miter" fill="none" stroke="#0000ff" d="M-79.91225-29.086-104.98338-33.50662"/>
<path transform="matrix(-.98484918,.17363347,.17363867,.9848197,123.88987,205.38742)" d="M2.8892 0-1.73352 2.31136 0 0-1.73352-2.31136" fill="#0000ff"/>
<path transform="matrix(1.00005,0,0,-1.00002,228.87848,171.88013)" stroke-width=".3985" stroke-linecap="butt" stroke-miterlimit="10" stroke-linejoin="miter" fill="none" stroke="#000000" d=""/>
<path transform="matrix(1.00005,0,0,-1.00002,228.87848,171.88013)" d="M-3.26003-17.00911-4.39369-11.3394V11.3394L-3.26003 17.00911-2.12592 11.3394V-11.3394Z" fill="#993300" fill-opacity=".1"/>
<path transform="matrix(1.00005,0,0,-1.00002,228.87848,171.88013)" d="M3.26003-17.00911 4.39369-11.3394V11.3394L3.26003 17.00911 2.12592 11.3394V-11.3394Z" fill="#993300" fill-opacity=".1"/>
<path transform="matrix(1.00005,0,0,-1.00002,228.87848,171.88013)" d="M-2.12592-11.3394H2.12592V8.50455H-2.12592Z" fill="#993300" fill-opacity=".04"/>
<path transform="matrix(1.00005,0,0,-1.00002,228.87848,171.88013)" d="M-.70848 8.50455H.70848V12.75682H-.70848Z" fill="#993300" fill-opacity=".1"/>
<path transform="matrix(1.00005,0,0,-1.00002,228.87848,171.88013)" stroke-width=".3985" stroke-linecap="butt" stroke-miterlimit="10" stroke-linejoin="miter" fill="none" stroke="#993300" d="M-3.26003 17.00911-4.39369 11.3394"/>
<path transform="matrix(1.00005,0,0,-1.00002,228.87848,171.88013)" stroke-width=".3985" stroke-linecap="butt" stroke-miterlimit="10" stroke-linejoin="miter" fill="none" stroke="#993300" d="M-4.39369 11.3394V-11.3394"/>
<path transform="matrix(1.00005,0,0,-1.00002,228.87848,171.88013)" stroke-width=".3985" stroke-linecap="butt" stroke-miterlimit="10" stroke-linejoin="miter" fill="none" stroke="#993300" d="M-4.39369-11.3394-3.26003-17.00911"/>
<path transform="matrix(1.00005,0,0,-1.00002,228.87848,171.88013)" stroke-width=".3985" stroke-linecap="butt" stroke-miterlimit="10" stroke-linejoin="miter" fill="none" stroke="#993300" d="M-3.26003-17.00911-2.12592-11.3394"/>
<path transform="matrix(1.00005,0,0,-1.00002,228.87848,171.88013)" stroke-width=".3985" stroke-linecap="butt" stroke-miterlimit="10" stroke-linejoin="miter" fill="none" stroke="#993300" d="M-2.12592-11.3394V11.3394"/>
<path transform="matrix(1.00005,0,0,-1.00002,228.87848,171.88013)" stroke-width=".3985" stroke-linecap="butt" stroke-miterlimit="10" stroke-linejoin="miter" fill="none" stroke="#993300" d="M-2.12592 11.3394-3.26003 17.00911"/>
<path transform="matrix(1.00005,0,0,-1.00002,228.87848,171.88013)" stroke-width=".3985" stroke-linecap="butt" stroke-miterlimit="10" stroke-linejoin="miter" fill="none" stroke="#993300" d="M3.26003 17.00911 4.39369 11.3394"/>
<path transform="matrix(1.00005,0,0,-1.00002,228.87848,171.88013)" stroke-width=".3985" stroke-linecap="butt" stroke-miterlimit="10" stroke-linejoin="miter" fill="none" stroke="#993300" d="M4.39369 11.3394V-11.3394"/>
<path transform="matrix(1.00005,0,0,-1.00002,228.87848,171.88013)" stroke-width=".3985" stroke-linecap="butt" stroke-miterlimit="10" stroke-linejoin="miter" fill="none" stroke="#993300" d="M4.39369-11.3394 3.26003-17.00911"/>
<path transform="matrix(1.00005,0,0,-1.00002,228.87848,171.88013)" stroke-width=".3985" stroke-linecap="butt" stroke-miterlimit="10" stroke-linejoin="miter" fill="none" stroke="#993300" d="M3.26003-17.00911 2.12592-11.3394"/>
<path transform="matrix(1.00005,0,0,-1.00002,228.87848,171.88013)" stroke-width=".3985" stroke-linecap="butt" stroke-miterlimit="10" stroke-linejoin="miter" fill="none" stroke="#993300" d="M2.12592-11.3394V11.3394"/>
<path transform="matrix(1.00005,0,0,-1.00002,228.87848,171.88013)" stroke-width=".3985" stroke-linecap="butt" stroke-miterlimit="10" stroke-linejoin="miter" fill="none" stroke="#993300" d="M2.12592 11.3394 3.26003 17.00911"/>
<path transform="matrix(1.00005,0,0,-1.00002,228.87848,171.88013)" stroke-width=".3985" stroke-linecap="butt" stroke-miterlimit="10" stroke-linejoin="miter" fill="none" stroke="#993300" d="M-2.12592-11.3394H2.12592"/>
<path transform="matrix(1.00005,0,0,-1.00002,228.87848,171.88013)" stroke-width=".3985" stroke-linecap="butt" stroke-miterlimit="10" stroke-linejoin="miter" fill="none" stroke="#993300" d="M2.12592-11.3394V8.50455"/>
<path transform="matrix(1.00005,0,0,-1.00002,228.87848,171.88013)" stroke-width=".3985" stroke-linecap="butt" stroke-miterlimit="10" stroke-linejoin="miter" fill="none" stroke="#993300" d="M2.12592 8.50455H-2.12592"/>
<path transform="matrix(1.00005,0,0,-1.00002,228.87848,171.88013)" stroke-width=".3985" stroke-linecap="butt" stroke-miterlimit="10" stroke-linejoin="miter" fill="none" stroke="#993300" d="M-2.12592 8.50455V-11.3394"/>
<path transform="matrix(1.00005,0,0,-1.00002,228.87848,171.88013)" stroke-width=".3985" stroke-linecap="butt" stroke-miterlimit="10" stroke-linejoin="miter" fill="none" stroke="#993300" d="M-.70848 8.50455H.70848"/>
<path transform="matrix(1.00005,0,0,-1.00002,228.87848,171.88013)" stroke-width=".3985" stroke-linecap="butt" stroke-miterlimit="10" stroke-linejoin="miter" fill="none" stroke="#993300" d="M.70848 8.50455V12.75682"/>
<path transform="matrix(1.00005,0,0,-1.00002,228.87848,171.88013)" stroke-width=".3985" stroke-linecap="butt" stroke-miterlimit="10" stroke-linejoin="miter" fill="none" stroke="#993300" d="M.70848 12.75682H-.70848"/>
<path transform="matrix(1.00005,0,0,-1.00002,228.87848,171.88013)" stroke-width=".3985" stroke-linecap="butt" stroke-miterlimit="10" stroke-linejoin="miter" fill="none" stroke="#993300" d="M-.70848 12.75682V8.50455"/>
<path transform="matrix(1.00005,0,0,-1.00002,228.87848,171.88013)" stroke-width=".3985" stroke-linecap="butt" stroke-miterlimit="10" stroke-linejoin="miter" fill="none" stroke="#993300" d="M-2.12592 11.3394H2.12592"/>
<path transform="matrix(1.00005,0,0,-1.00002,228.87848,171.88013)" stroke-width=".3985" stroke-linecap="butt" stroke-miterlimit="10" stroke-linejoin="miter" fill="none" stroke="#993300" d="M.4909-2.83484C.4909-2.56372 .27112-2.34392 0-2.34392-.27112-2.34392-.4909-2.56372-.4909-2.83484-.4909-3.10597-.27112-3.32576 0-3.32576 .27112-3.32576 .4909-3.10597 .4909-2.83484ZM0-2.83484"/>
<path transform="matrix(1.00005,0,0,-1.00002,228.87848,171.88013)" stroke-width=".3985" stroke-linecap="butt" stroke-miterlimit="10" stroke-linejoin="miter" fill="none" stroke="#993300" d="M.4909 7.08713C.4909 7.35825 .27112 7.57805 0 7.57805-.27112 7.57805-.4909 7.35825-.4909 7.08713-.4909 6.816-.27112 6.5962 0 6.5962 .27112 6.5962 .4909 6.816 .4909 7.08713ZM0 7.08713"/>
</svg>
