<svg xmlns="http://www.w3.org/2000/svg" xmlns:xlink="http://www.w3.org/1999/xlink" xmlns:inkscape="http://www.inkscape.org/namespaces/inkscape" version="1.1" width="217" height="165" viewBox="0 0 217 165">
<defs>
<path id="font_1_2" d="M.2939911 .64004519C.2939911 .66400149 .2939911 .6660156 .2709961 .6660156 .20899964 .60227969 .12098694 .60227969 .08898926 .60227969V.57128909C.10899353 .57128909 .16799927 .57128909 .21998596 .5972748V.07902527C.21998596 .042999269 .21699524 .0309906 .1269989 .0309906H.09498596V0C.12998963 .0029907227 .21699524 .0029907227 .25698854 .0029907227 .29699708 .0029907227 .38398744 .0029907227 .4189911 0V.0309906H.3869934C.29699708 .0309906 .2939911 .041992189 .2939911 .07902527V.64004519Z"/>
<path id="font_1_1" d="M.45999146 .31976319C.45999146 .39982606 .45498658 .47988893 .41999818 .5539398 .37399293 .65000918 .2919922 .6660156 .25 .6660156 .18998719 .6660156 .116989139 .64001467 .07598877 .54693606 .04399109 .47789 .038986207 .39982606 .038986207 .31976319 .038986207 .24472046 .042999269 .15464783 .083999637 .07859802 .1269989-.0024719239 .19999695-.022460938 .24899292-.022460938 .30299378-.022460938 .3789978-.0014648438 .4229889 .09359741 .45498658 .16265869 .45999146 .2407074 .45999146 .31976319M.24899292-.00047302247C.20999146-.00047302247 .15098572 .024551392 .1329956 .12062073 .12199402 .18066406 .12199402 .2727356 .12199402 .3317871 .12199402 .39582826 .12199402 .46188355 .12998963 .5159149 .14898682 .63500979 .22399903 .64401248 .24899292 .64401248 .28199769 .64401248 .34799195 .6259918 .36698915 .52693179 .3769989 .47088624 .3769989 .39482118 .3769989 .3317871 .3769989 .25672914 .3769989 .18867493 .3659973 .12461853 .35099793 .029556275 .2939911-.00047302247 .24899292-.00047302247Z"/>
<path id="font_1_3" d="M.1269989 .07699585 .23298645 .18003845C.3889923 .31811524 .44898988 .3721466 .44898988 .47216798 .44898988 .5860901 .35899354 .6660156 .23699951 .6660156 .12399292 .6660156 .049987794 .57411196 .049987794 .48516847 .049987794 .4291687 .099990848 .4291687 .102996829 .4291687 .11999512 .4291687 .15499878 .44117738 .15499878 .48217774 .15499878 .5081787 .13699341 .5341797 .101989749 .5341797 .09399414 .5341797 .09199524 .5341797 .08898926 .5331726 .11199951 .59806826 .1659851 .63500979 .22399903 .63500979 .31498719 .63500979 .35798646 .5541382 .35798646 .47216798 .35798646 .39215089 .30799867 .31311036 .25299073 .25108338L.06098938 .036987306C.049987794 .025985718 .049987794 .023986817 .049987794 0H.42099L.44898988 .17404175H.42399598C.4189911 .14402771 .4119873 .1000061 .4019928 .084991458 .394989 .07699585 .32899476 .07699585 .30699159 .07699585H.1269989Z"/>
<path id="font_1_4" d="M.2899933 .35191346C.37199403 .37893678 .42999269 .4490509 .42999269 .52809146 .42999269 .6100464 .34199525 .6660156 .24598694 .6660156 .14498902 .6660156 .068984989 .60606387 .068984989 .53009036 .068984989 .49710084 .09098816 .47808839 .11999512 .47808839 .15098572 .47808839 .17098999 .50009158 .17098999 .5290985 .17098999 .57910159 .12399292 .57910159 .10899353 .57910159 .13999939 .62802127 .20599365 .64100649 .24198914 .64100649 .2829895 .64100649 .33799745 .6190338 .33799745 .5290985 .33799745 .51708987 .33599855 .45906068 .30999757 .4149933 .27999879 .36691285 .24598694 .36390687 .22099304 .36291505 .21299744 .36190797 .18899536 .35990907 .18199158 .35990907 .17399597 .35890199 .16699219 .35791017 .16699219 .3479004 .16699219 .33691407 .17399597 .33691407 .19099427 .33691407H.23498535C.31698609 .33691407 .35398866 .2686615 .35398866 .17037964 .35398866 .034469606 .2849884 .0055389406 .24099732 .0055389406 .19799805 .0055389406 .12298584 .022491456 .08799744 .08137512 .12298584 .07637024 .1539917 .09837341 .1539917 .1363678 .1539917 .17237854 .1269989 .19238281 .09799194 .19238281 .07398987 .19238281 .041992189 .17837525 .041992189 .1343689 .041992189 .043441774 .1349945-.022460938 .24398804-.022460938 .3659973-.022460938 .45700074 .06838989 .45700074 .17037964 .45700074 .252594 .3939972 .33088685 .2899933 .35191346Z"/>
<path id="font_2_1" d="M.6589966 .23046875C.6759949 .23046875 .69400027 .23046875 .69400027 .25045777 .69400027 .27046205 .6759949 .27046205 .6589966 .27046205H.117996219C.100997928 .27046205 .08299255 .27046205 .08299255 .25045777 .08299255 .23046875 .100997928 .23046875 .117996219 .23046875H.6589966Z"/>
<path id="font_3_2" d="M.7559967 .577652C.7659912 .61763 .7839966 .64860537 .8639984 .6516113 .86898806 .6516113 .8809967 .65260317 .8809967 .6716156 .8809967 .6726074 .8809967 .6826172 .8679962 .6826172 .83499148 .6826172 .7999878 .6796112 .7669983 .6796112 .73298647 .6796112 .69799807 .6826172 .6649933 .6826172 .6589966 .6826172 .6469879 .6826172 .6469879 .6626129 .6469879 .6516113 .6569977 .6516113 .6649933 .6516113 .7220001 .65060427 .73298647 .6296234 .73298647 .6076355 .73298647 .6046295 .73098757 .5896454 .7299957 .5866394L.6179962 .141922 .39698792 .66360476C.3889923 .6816101 .3880005 .6826172 .36499024 .6826172H.23098755C.21099854 .6826172 .20199585 .6826172 .20199585 .6626129 .20199585 .6516113 .21099854 .6516113 .22999573 .6516113 .23498535 .6516113 .2979889 .6516113 .2979889 .64260867L.1639862 .10594177C.1539917 .065963748 .13699341 .033996583 .055999757 .0309906 .049987794 .0309906 .038986207 .02999878 .038986207 .010986328 .038986207 .0039978029 .04399109 0 .051986696 0 .083999637 0 .11898804 .0029907227 .1519928 .0029907227 .18598938 .0029907227 .22200012 0 .25498963 0 .2599945 0 .272995 0 .272995 .019989014 .272995 .02999878 .2639923 .0309906 .25299073 .0309906 .19499207 .032989503 .18699646 .054977418 .18699646 .07496643 .18699646 .081954959 .18798828 .08695984 .19099427 .09794617L.32299806 .6256256C.32699586 .6196289 .32699586 .61763 .33198548 .6076355L.58099368 .018997193C.58799746 .0019989014 .59098818 0 .59999087 0 .61099246 0 .61099246 .0029907227 .6159973 .020996094L.7559967 .577652Z"/>
<path id="font_3_1" d="M.2639923 .4370575C.13899231 .40707398 .041992189 .27713014 .041992189 .15620423 .041992189 .0602417 .10598755-.01171875 .19999695-.01171875 .31698609-.01171875 .3999939 .14520264 .3999939 .28312684 .3999939 .37408448 .3600006 .424057 .32598878 .46903993 .2899933 .51400759 .23098755 .588974 .23098755 .6329498 .23098755 .65493777 .25099183 .67892459 .28599549 .67892459 .31599427 .67892459 .33599855 .66593936 .35699464 .651947 .3769989 .6399536 .39698792 .6269531 .4119873 .6269531 .43699647 .6269531 .45199586 .65093997 .45199586 .66693118 .45199586 .6889343 .43598939 .69192507 .3999939 .6999359 .34799195 .7109375 .33399964 .7109375 .31799317 .7109375 .23999024 .7109375 .20399475 .66793826 .20399475 .60795596 .20399475 .5539856 .23298645 .49801637 .2639923 .4370575M.27598573 .41506959C.30099488 .3690796 .33099366 .31510926 .33099366 .2431488 .33099366 .17718506 .29299928 .010269165 .19999695 .010269165 .14498902 .010269165 .10398865 .052246095 .10398865 .1282196 .10398865 .19117737 .14099121 .37908937 .27598573 .41506959Z"/>
</defs>
<path transform="matrix(1.00003,0,0,-1.00002,20.984215,163.19095)" stroke-width=".19925" stroke-linecap="butt" stroke-miterlimit="10" stroke-linejoin="miter" fill="none" stroke="#7f807f" d="M54.39716 78.56998V82.8218M106.20398 78.56998V82.8218M158.0108 78.56998V82.8218"/>
<path transform="matrix(1.00003,0,0,-1.00002,20.984215,163.19095)" stroke-width=".19925" stroke-linecap="butt" stroke-miterlimit="10" stroke-linejoin="miter" fill="none" stroke="#7f807f" d="M.46448 16.13918H4.71617M.46448 48.41753H4.71617M.46448 112.97426H4.71617M.46448 145.25261H4.71617"/>
<path transform="matrix(1.00003,0,0,-1.00002,20.984215,163.19095)" stroke-width=".3985" stroke-linecap="butt" stroke-miterlimit="10" stroke-linejoin="miter" fill="none" stroke="#000000" d="M0 80.69589H192.28305"/>
<path transform="matrix(1.00003,0,0,-1.00002,213.27304,82.49344)" d="M1.99252 0-1.19551 1.59401 0 0-1.19551-1.59401"/>
<path transform="matrix(1.00003,0,0,-1.00002,20.984215,163.19095)" stroke-width=".3985" stroke-linecap="butt" stroke-miterlimit="10" stroke-linejoin="miter" fill="none" stroke="#000000" d="M2.59033 0V159.39928"/>
<path transform="matrix(0,-1.00002,-1.00003,-0,23.574624,3.7884827)" d="M1.99252 0-1.19551 1.59401 0 0-1.19551-1.59401"/>
<use data-text="1" xlink:href="#font_1_2" transform="matrix(9.962899,0,0,-9.962799,67.91063,94.55958)"/>
<use data-text="0" xlink:href="#font_1_1" transform="matrix(9.962899,0,0,-9.962799,72.892078,94.55958)"/>
<use data-text="0" xlink:href="#font_1_1" transform="matrix(9.962899,0,0,-9.962799,77.87352,94.55958)"/>
<use data-text="2" xlink:href="#font_1_3" transform="matrix(9.962899,0,0,-9.962799,119.719188,94.55958)"/>
<use data-text="0" xlink:href="#font_1_1" transform="matrix(9.962899,0,0,-9.962799,124.70063,94.55958)"/>
<use data-text="0" xlink:href="#font_1_1" transform="matrix(9.962899,0,0,-9.962799,129.68207,94.55958)"/>
<use data-text="3" xlink:href="#font_1_4" transform="matrix(9.962899,0,0,-9.962799,171.52774,94.55958)"/>
<use data-text="0" xlink:href="#font_1_1" transform="matrix(9.962899,0,0,-9.962799,176.50919,94.55958)"/>
<use data-text="0" xlink:href="#font_1_1" transform="matrix(9.962899,0,0,-9.962799,181.49063,94.55958)"/>
<use data-text="&#x2212;" xlink:href="#font_2_1" transform="matrix(9.962899,0,0,-9.962799,.21659851,149.84668)"/>
<use data-text="2" xlink:href="#font_1_3" transform="matrix(9.962899,0,0,-9.962799,7.9658205,149.84668)"/>
<use data-text="0" xlink:href="#font_1_1" transform="matrix(9.962899,0,0,-9.962799,12.947266,149.84668)"/>
<use data-text="&#x2212;" xlink:href="#font_2_1" transform="matrix(9.962899,0,0,-9.962799,.21659851,117.56803)"/>
<use data-text="1" xlink:href="#font_1_2" transform="matrix(9.962899,0,0,-9.962799,7.9658205,117.56803)"/>
<use data-text="0" xlink:href="#font_1_1" transform="matrix(9.962899,0,0,-9.962799,12.947266,117.56803)"/>
<use data-text="1" xlink:href="#font_1_2" transform="matrix(9.962899,0,0,-9.962799,7.9658205,53.42475)"/>
<use data-text="0" xlink:href="#font_1_1" transform="matrix(9.962899,0,0,-9.962799,12.947266,53.42475)"/>
<use data-text="2" xlink:href="#font_1_3" transform="matrix(9.962899,0,0,-9.962799,7.9658205,21.146103)"/>
<use data-text="0" xlink:href="#font_1_1" transform="matrix(9.962899,0,0,-9.962799,12.947266,21.146103)"/>
<path transform="matrix(1.00003,0,0,-1.00002,20.984215,163.19095)" stroke-width=".99628" stroke-linecap="butt" stroke-miterlimit="10" stroke-linejoin="miter" fill="none" stroke="#0000ff" d="M5.20187 7.35898 3.54054 6.57301 4.49078 7.09227 5.44101 7.68645 6.39122 8.35178 7.34145 9.08829 8.29169 9.90121 9.2419 10.78152 10.19212 11.73222 11.14236 12.75105 12.09258 13.83496 13.0428 14.99004 13.99303 16.2102 14.94327 17.4932 15.89348 18.83904 16.8437 20.24312 17.79395 21.71458 18.74416 23.2413 19.69438 24.82707 20.6446 26.46507 21.59483 28.15831 22.54506 29.90454 23.49529 31.70148 24.44553 33.54839 25.39574 35.43996 26.34596 37.37845 27.29619 39.35779 28.24641 41.38107 29.19664 43.44295 30.14687 45.54192 31.09708 47.67493 32.04732 49.84203 32.99754 52.03862 33.94777 54.26399 34.898 56.5166 35.84822 58.79268 36.79845 61.09146 37.74866 63.40918 38.6989 65.74355 39.64912 68.09381 40.59933 70.45618 41.54958 72.82913 42.4998 75.2074 43.45003 77.59476 44.40024 79.98363 45.35048 82.37173 46.30069 84.75906 47.25092 87.14264 48.20114 89.52016 49.15138 91.89009 50.1016 94.24638 51.05182 96.59135 52.00206 98.91815 52.95229 101.22905 53.9025 103.51952 54.85272 105.78575 55.80295 108.02702 56.75317 110.24255 57.7034 112.42628 58.65364 114.57974 59.60385 116.69989 60.55408 118.78372 61.5043 120.83046 62.45454 122.8363 63.40475 124.79903 64.35498 126.7186 65.30519 128.59275 66.25543 130.42148 67.20566 132.19722 68.15588 133.92076 69.10611 135.59355 70.05634 137.21036 71.00656 138.77266 71.95679 140.27667 72.90701 141.72014 73.85724 143.10153 74.80745 144.42388 75.75769 145.68189 76.70792 146.8748 77.65814 148.00035 78.60835 149.0593 79.5586 150.05164 80.5088 150.97434 81.45905 151.8274 82.40926 152.60854 83.3595 153.31627 84.30971 153.9536 85.25993 154.51902 86.21017 155.01102 87.1604 155.42659 88.11061 155.7672 89.06084 156.0344 90.01106 156.22589 90.9613 156.34474 91.91151 156.38712 92.86176 156.35155 93.81197 156.24103 94.76219 156.05559 95.71242 155.79824 96.66266 155.46518 97.61287 155.0534 98.56314 154.56975 99.51329 154.01264 100.46358 153.38211 101.41371 152.68347 102.364 151.90612 103.31429 151.05986 104.26442 150.14475 105.2147 149.16074 106.16483 148.11013 107.11513 146.98834 108.0654 145.80072 109.01553 144.55028 109.96584 143.2355 110.91597 141.86017 111.86626 140.42125 112.81653 138.92177 113.76668 137.36629 114.71696 135.7548 115.66708 134.08954 116.61739 132.36983 117.56766 130.59557 118.51779 128.77593 119.46808 126.90555 120.41823 124.99052 121.36852 123.03084 122.31879 121.02876 123.26892 118.98657 124.21922 116.90578 125.16934 114.79094 126.11963 112.64125 127.06992 110.45828 128.02005 108.24654 128.97034 106.00603 129.92047 103.74207 130.87078 101.45538 131.82105 99.14674 132.77118 96.82071 133.72148 94.47803 134.6716 92.12094 135.62189 89.75328 136.57216 87.37653 137.52231 84.99373 138.4726 82.60486 139.42273 80.2175 140.37302 77.8294 141.3233 75.44206 142.27344 73.06227 143.22373 70.6893 144.17386 68.32468 145.12415 65.97441 146.07442 63.63777 147.02455 61.3178 147.97486 59.01747 148.92499 56.73914 149.87528 54.48499 150.82556 52.2566 151.7757 50.05547 152.72597 47.88612 153.6761 45.75082 154.6264 43.64656 155.57668 41.58241 156.52681 39.55461 157.4771 37.57146 158.42725 35.62994 159.37754 33.73233 160.3278 31.88087 161.27796 30.07864 162.22823 28.32787 163.17836 26.62857 164.12865 24.98526 165.07894 23.39421 166.02907 21.85992 166.97936 20.38768 167.9295 18.97527 168.87979 17.62263 169.83007 16.33208 170.7802 15.10585 171.73049 13.94624 172.68062 12.85475 173.6309 11.82912 174.58118 10.87161 175.53133 9.98372 176.48162 9.16473 177.43175 8.42218 178.38205 7.74852 179.33232 7.14676 180.28246 6.61766 181.23273 6.16275 182.18288 5.78656 183.13317 5.48227 184.08344 5.25293 185.03359 5.09698 185.98387 5.01448 186.934 5.01375 187.8843 5.08716 188.83458 5.23325 189.78472 5.45502 190.73499 5.75174 188.99457 5.07108"/>
<path transform="matrix(-.9039272,.42766855,.42767284,.90391817,26.18626,155.83182)" d="M2.8892 0-1.73352 2.31136 0 0-1.73352-2.31136" fill="#0000ff"/>
<path transform="matrix(.931268,-.3642373,-.36424095,-.9312587,209.98444,158.11978)" d="M2.8892 0-1.73352 2.31136 0 0-1.73352-2.31136" fill="#0000ff"/>
<use data-text="N" xlink:href="#font_3_2" transform="matrix(9.962899,0,0,-9.962799,202.65467,78.97326)"/>
<use data-text="&#x03b4;" xlink:href="#font_3_1" transform="matrix(9.962899,0,0,-9.962799,27.094399,12.234924)"/>
</svg>
