<svg xmlns="http://www.w3.org/2000/svg" xmlns:xlink="http://www.w3.org/1999/xlink" xmlns:inkscape="http://www.inkscape.org/namespaces/inkscape" version="1.1" width="207" height="171" viewBox="0 0 207 171">
<defs>
<path id="font_1_1" d="M.6589966 .23046875C.6759949 .23046875 .69400027 .23046875 .69400027 .25045777 .69400027 .27046205 .6759949 .27046205 .6589966 .27046205H.117996219C.100997928 .27046205 .08299255 .27046205 .08299255 .25045777 .08299255 .23046875 .100997928 .23046875 .117996219 .23046875H.6589966Z"/>
<path id="font_2_3" d="M.1269989 .07699585 .23298645 .18003845C.3889923 .31811524 .44898988 .3721466 .44898988 .47216798 .44898988 .5860901 .35899354 .6660156 .23699951 .6660156 .12399292 .6660156 .049987794 .57411196 .049987794 .48516847 .049987794 .4291687 .099990848 .4291687 .102996829 .4291687 .11999512 .4291687 .15499878 .44117738 .15499878 .48217774 .15499878 .5081787 .13699341 .5341797 .101989749 .5341797 .09399414 .5341797 .09199524 .5341797 .08898926 .5331726 .11199951 .59806826 .1659851 .63500979 .22399903 .63500979 .31498719 .63500979 .35798646 .5541382 .35798646 .47216798 .35798646 .39215089 .30799867 .31311036 .25299073 .25108338L.06098938 .036987306C.049987794 .025985718 .049987794 .023986817 .049987794 0H.42099L.44898988 .17404175H.42399598C.4189911 .14402771 .4119873 .1000061 .4019928 .084991458 .394989 .07699585 .32899476 .07699585 .30699159 .07699585H.1269989Z"/>
<path id="font_3_1" d="M.2649994 .37265016H.37799073C.34498597 .22489929 .33599855 .18196106 .33599855 .11508179 .33599855 .100097659 .33599855 .073150638 .34399415 .03919983 .35398866-.0047454836 .36499024-.0107421879 .37998963-.0107421879 .3999939-.0107421879 .42099 .007247925 .42099 .02722168 .42099 .033218385 .42099 .035202028 .4149933 .049179079 .38598634 .12106323 .38598634 .18595886 .38598634 .21391297 .38598634 .26683045 .3929901 .32073976 .4039917 .37265016H.5179901C.5309906 .37265016 .5669861 .37265016 .5669861 .406662 .5669861 .43066407 .54599 .43066407 .5269928 .43066407H.19198609C.16999817 .43066407 .13198853 .43066407 .08799744 .38365174 .052993776 .34469605 .026992798 .29878236 .026992798 .29379273 .026992798 .29278565 .026992798 .28379823 .038986207 .28379823 .04699707 .28379823 .04899597 .28779603 .054992677 .29577638 .10398865 .37265016 .1619873 .37265016 .18199158 .37265016H.23899842C.20698548 .25186158 .15299988 .13105774 .11099243 .04020691 .102996829 .025222779 .102996829 .023223877 .102996829 .016235352 .102996829-.002746582 .11898804-.0107421879 .13198853-.0107421879 .1619873-.0107421879 .16999817 .017242432 .18199158 .05418396 .19599915 .100097659 .19599915 .10209656 .20899964 .15202332L.2649994 .37265016Z"/>
<path id="font_2_2" d="M.2939911 .64004519C.2939911 .66400149 .2939911 .6660156 .2709961 .6660156 .20899964 .60227969 .12098694 .60227969 .08898926 .60227969V.57128909C.10899353 .57128909 .16799927 .57128909 .21998596 .5972748V.07902527C.21998596 .042999269 .21699524 .0309906 .1269989 .0309906H.09498596V0C.12998963 .0029907227 .21699524 .0029907227 .25698854 .0029907227 .29699708 .0029907227 .38398744 .0029907227 .4189911 0V.0309906H.3869934C.29699708 .0309906 .2939911 .041992189 .2939911 .07902527V.64004519Z"/>
<path id="font_2_1" d="M.45999146 .31976319C.45999146 .39982606 .45498658 .47988893 .41999818 .5539398 .37399293 .65000918 .2919922 .6660156 .25 .6660156 .18998719 .6660156 .116989139 .64001467 .07598877 .54693606 .04399109 .47789 .038986207 .39982606 .038986207 .31976319 .038986207 .24472046 .042999269 .15464783 .083999637 .07859802 .1269989-.0024719239 .19999695-.022460938 .24899292-.022460938 .30299378-.022460938 .3789978-.0014648438 .4229889 .09359741 .45498658 .16265869 .45999146 .2407074 .45999146 .31976319M.24899292-.00047302247C.20999146-.00047302247 .15098572 .024551392 .1329956 .12062073 .12199402 .18066406 .12199402 .2727356 .12199402 .3317871 .12199402 .39582826 .12199402 .46188355 .12998963 .5159149 .14898682 .63500979 .22399903 .64401248 .24899292 .64401248 .28199769 .64401248 .34799195 .6259918 .36698915 .52693179 .3769989 .47088624 .3769989 .39482118 .3769989 .3317871 .3769989 .25672914 .3769989 .18867493 .3659973 .12461853 .35099793 .029556275 .2939911-.00047302247 .24899292-.00047302247Z"/>
<path id="font_2_4" d="M.44898988 .20022583C.44898988 .3193512 .36698915 .41944886 .25898744 .41944886 .21099854 .41944886 .16799927 .40345765 .13198853 .36842347V.5637665C.1519928 .5577698 .18499756 .55078127 .21699524 .55078127 .33999635 .55078127 .4099884 .6417694 .4099884 .6547699 .4099884 .6607666 .40699769 .6657715 .3999939 .6657715 .39898683 .6657715 .39698792 .6657715 .3919983 .66278079 .37199403 .6537781 .32299806 .6337738 .2559967 .6337738 .21598816 .6337738 .16999817 .6407776 .12298584 .6617737 .114990238 .66477969 .11299133 .66477969 .11099243 .66477969 .100997928 .66477969 .100997928 .6567688 .100997928 .6407776V.34439088C.100997928 .32637025 .100997928 .31835938 .114990238 .31835938 .12199402 .31835938 .12399292 .32136537 .12799073 .32736207 .13899231 .3433838 .17599488 .39746095 .25698854 .39746095 .30899049 .39746095 .33399964 .35139466 .34199525 .33337403 .35798646 .29632569 .3600006 .25727845 .3600006 .20722962 .3600006 .17222595 .3600006 .11222839 .33599855 .07035828 .31199647 .031463624 .2749939 .0055389406 .22898865 .0055389406 .1559906 .0055389406 .09899902 .058380128 .08198547 .11723328 .084991458 .1162262 .08799744 .115234378 .09899902 .115234378 .13198853 .115234378 .14898682 .14022827 .14898682 .16423035 .14898682 .18823242 .13198853 .21322632 .09899902 .21322632 .084991458 .21322632 .049987794 .20622254 .049987794 .16023255 .049987794 .07434082 .11898804-.022460938 .23098755-.022460938 .34700013-.022460938 .44898988 .073349 .44898988 .20022583Z"/>
<path id="font_3_2" d="M.33399964 .30233766C.33999635 .32835389 .36299134 .42037965 .43299867 .42037965 .43798829 .42037965 .46199037 .42037965 .48298646 .40734864 .45498658 .402359 .43499757 .37734986 .43499757 .35334779 .43499757 .33735658 .44599916 .31835938 .47299195 .31835938 .49499513 .31835938 .5269928 .3363495 .5269928 .37635804 .5269928 .42837525 .46798707 .4423828 .43399049 .4423828 .37599183 .4423828 .34098817 .38935853 .32899476 .36634828 .3039856 .43237306 .25 .4423828 .22099304 .4423828 .116989139 .4423828 .05999756 .3133545 .05999756 .28834535 .05999756 .27833558 .069992069 .27833558 .07199097 .27833558 .07998657 .27833558 .08299255 .28033448 .084991458 .28933717 .11898804 .39535523 .18499756 .42037965 .21899414 .42037965 .23799134 .42037965 .272995 .4113617 .272995 .35334779 .272995 .32235719 .2559967 .25532533 .21899414 .11528015 .20298767 .053268434 .16799927 .011245728 .12399292 .011245728 .117996219 .011245728 .09498596 .011245728 .07398987 .024276734 .09899902 .029266358 .12098694 .05027771 .12098694 .07827759 .12098694 .105270389 .09899902 .11328125 .083999637 .11328125 .053985597 .11328125 .0289917 .08728027 .0289917 .055267335 .0289917 .009246826 .07899475-.0107421879 .12298584-.0107421879 .18899536-.0107421879 .22499085 .059280397 .22799683 .0652771 .23999024 .028274537 .27598573-.0107421879 .33599855-.0107421879 .43899537-.0107421879 .49598695 .118270877 .49598695 .14328003 .49598695 .1532898 .4869995 .1532898 .48399354 .1532898 .47499085 .1532898 .47299195 .14929199 .47099305 .14228821 .43798829 .03527832 .36999513 .011245728 .33799745 .011245728 .29899598 .011245728 .2829895 .043273927 .2829895 .07727051 .2829895 .09927368 .2889862 .121276859 .2999878 .16529846L.33399964 .30233766Z"/>
<path id="font_3_3" d="M.48599244 .38136292C.48999024 .39537049 .48999024 .39736939 .48999024 .40437318 .48999024 .42237855 .47599793 .43138124 .46099855 .43138124 .45098878 .43138124 .43499757 .42536927 .42599488 .41036988 .42399598 .405365 .41600038 .37435914 .4119873 .35635377 .40499879 .33035279 .397995 .30334474 .3919983 .27633668L.34700013 .09628296C.34298707 .08126831 .2999878 .011245728 .23399353 .011245728 .18299866 .011245728 .17199707 .055267335 .17199707 .0922699 .17199707 .1382904 .18899536 .20030213 .22299195 .28833009 .23899842 .3293457 .24299622 .3403473 .24299622 .36035157 .24299622 .405365 .21099854 .4423828 .16099549 .4423828 .06599426 .4423828 .0289917 .29733277 .0289917 .28833009 .0289917 .27833558 .038986207 .27833558 .040985109 .27833558 .050994874 .27833558 .051986696 .28033448 .056991579 .29634095 .083999637 .3903656 .12399292 .42037965 .1579895 .42037965 .1659851 .42037965 .18299866 .42037965 .18299866 .3883667 .18299866 .36335755 .17298889 .3373413 .1659851 .31834413 .12599182 .21231079 .10798645 .1552887 .10798645 .10827637 .10798645 .019256592 .17098999-.0107421879 .22999573-.0107421879 .2689972-.0107421879 .30299378 .0062561037 .33099366 .03425598 .31799317-.017745972 .30599977-.06674194 .2659912-.11973572 .23999024-.15385437 .20199585-.18309021 .1559906-.18309021 .14199829-.18309021 .09700012-.18005371 .07998657-.14074707 .09599304-.14074707 .10899353-.14074707 .12298584-.1287384 .1329956-.11973572 .14299011-.10673523 .14299011-.08773804 .14299011-.056747438 .115997318-.052734376 .10598755-.052734376 .08299255-.052734376 .049987794-.068740848 .049987794-.11773682 .049987794-.16796875 .09399414-.20507813 .1559906-.20507813 .25898744-.20507813 .3619995-.11373901 .3899994-.00074768069L.48599244 .38136292Z"/>
</defs>
<path transform="matrix(1.00005,0,0,-1.00006,8.079704,166.5352)" stroke-width=".19925" stroke-linecap="butt" stroke-miterlimit="10" stroke-linejoin="miter" fill="none" stroke="#7f807f" d="M1.52171 79.28084V82.1155M13.47325 79.28084V82.1155M25.42479 79.28084V82.1155M37.37634 79.28084V82.1155M49.32788 79.28084V82.1155M61.27942 79.28084V82.1155M73.23096 79.28084V82.1155M85.18251 79.28084V82.1155M97.13405 79.28084V82.1155M109.0856 79.28084V82.1155M121.03714 79.28084V82.1155M132.9887 79.28084V82.1155M144.94023 79.28084V82.1155M156.89179 79.28084V82.1155M168.84334 79.28084V82.1155M180.79488 79.28084V82.1155M192.74643 79.28084V82.1155"/>
<path transform="matrix(1.00005,0,0,-1.00006,8.079704,166.5352)" stroke-width=".19925" stroke-linecap="butt" stroke-miterlimit="10" stroke-linejoin="miter" fill="none" stroke="#7f807f" d="M1.52171 78.57237V82.82396M49.32788 78.57237V82.82396M144.94023 78.57237V82.82396M192.74643 78.57237V82.82396"/>
<path transform="matrix(1.00005,0,0,-1.00006,8.079704,166.5352)" stroke-width=".19925" stroke-linecap="butt" stroke-miterlimit="10" stroke-linejoin="miter" fill="none" stroke="#7f807f" d="M95.00816 0H99.25996M95.00816 40.34909H99.25996M95.00816 121.04727H99.25996M95.00816 161.39636H99.25996"/>
<path transform="matrix(1.00005,0,0,-1.00006,8.079704,166.5352)" stroke-width=".3985" stroke-linecap="butt" stroke-miterlimit="10" stroke-linejoin="miter" fill="none" stroke="#000000" d="M0 80.69818H192.2756"/>
<path transform="matrix(1.00005,0,0,-1.00006,200.3649,85.832187)" d="M1.99252 0-1.19551 1.59401 0 0-1.19551-1.59401"/>
<path transform="matrix(1.00005,0,0,-1.00006,8.079704,166.5352)" stroke-width=".3985" stroke-linecap="butt" stroke-miterlimit="10" stroke-linejoin="miter" fill="none" stroke="#000000" d="M97.13405 0V159.40384"/>
<path transform="matrix(0,-1.00006,-1.00005,-0,105.218608,7.121811)" d="M1.99252 0-1.19551 1.59401 0 0-1.19551-1.59401"/>
<use data-text="&#x2212;" xlink:href="#font_1_1" transform="matrix(9.963098,0,0,-9.963197,.21730805,97.899089)"/>
<use data-text="2" xlink:href="#font_2_3" transform="matrix(9.963098,0,0,-9.963197,7.9666979,97.899089)"/>
<use data-text="&#x03c0;" xlink:href="#font_3_1" transform="matrix(9.963098,0,0,-9.963197,12.947945,97.899089)"/>
<use data-text="&#x2212;" xlink:href="#font_1_1" transform="matrix(9.963098,0,0,-9.963197,50.516828,97.290058)"/>
<use data-text="&#x03c0;" xlink:href="#font_3_1" transform="matrix(9.963098,0,0,-9.963197,58.266218,97.290058)"/>
<use data-text="&#x03c0;" xlink:href="#font_3_1" transform="matrix(9.963098,0,0,-9.963197,150.00879,95.76796)"/>
<use data-text="2" xlink:href="#font_2_3" transform="matrix(9.963098,0,0,-9.963197,195.32605,97.899089)"/>
<use data-text="&#x03c0;" xlink:href="#font_3_1" transform="matrix(9.963098,0,0,-9.963197,200.30731,97.899089)"/>
<use data-text="&#x2212;" xlink:href="#font_1_1" transform="matrix(9.963098,0,0,-9.963197,81.86039,169.33037)"/>
<use data-text="1" xlink:href="#font_2_2" transform="matrix(9.963098,0,0,-9.963197,89.60978,169.33037)"/>
<use data-text="0" xlink:href="#font_2_1" transform="matrix(9.963098,0,0,-9.963197,94.591327,169.33037)"/>
<use data-text="&#x2212;" xlink:href="#font_1_1" transform="matrix(9.963098,0,0,-9.963197,86.841648,128.97895)"/>
<use data-text="5" xlink:href="#font_2_4" transform="matrix(9.963098,0,0,-9.963197,94.591037,128.97895)"/>
<use data-text="5" xlink:href="#font_2_4" transform="matrix(9.963098,0,0,-9.963197,94.59103,48.69114)"/>
<use data-text="1" xlink:href="#font_2_2" transform="matrix(9.963098,0,0,-9.963197,89.60978,8.339706)"/>
<use data-text="0" xlink:href="#font_2_1" transform="matrix(9.963098,0,0,-9.963197,94.59133,8.339706)"/>
<path transform="matrix(1.00005,0,0,-1.00006,8.079704,166.5352)" stroke-width=".99628" stroke-linecap="butt" stroke-miterlimit="10" stroke-linejoin="miter" fill="none" stroke="#0000ff" d="M4.41092 56.48872H1.63632 1.75093L1.86554 56.49194 1.98015 56.49275 2.09474 56.49435 2.20935 56.4976 2.32396 56.50002 2.43857 56.50404 2.55319 56.50726 2.6678 56.51292 2.78241 56.51776 2.89702 56.5226 3.01163 56.52907 3.12624 56.5339 3.24084 56.54117 3.35547 56.54843 3.47008 56.55568 3.58469 56.56456 3.69928 56.57182 3.81389 56.58151 3.9285 56.5912 4.0431 56.60168 4.15773 56.61137 4.27234 56.62186 4.38695 56.63396 4.50156 56.64688 4.61617 56.65898 4.73077 56.6727 4.84538 56.68642 4.95999 56.70013 5.0746 56.71466 5.18922 56.7292 5.30383 56.74533 5.41843 56.76147 5.53304 56.77841 5.64764 56.79538 5.76225 56.81311 5.87686 56.83168 5.99149 56.85104 6.1061 56.8696 6.2207 56.88979 6.33531 56.90997 6.44992 56.93094 6.56453 56.95354 6.67914 56.97533 6.79376 56.99873 6.90837 57.02213 7.02296 57.04715 7.13757 57.07135 7.25218 57.09718 7.36679 57.12299 7.4814 57.15045 7.59601 57.17787 7.71062 57.20613 7.82524 57.23436 7.93985 57.26341 8.05446 57.29488 8.16907 57.32556 8.28368 57.35703 8.39828 57.3893 8.5129 57.4224 8.62752 57.45709 8.74211 57.49179 8.85672 57.5273 8.97133 57.5628 9.08594 57.59993 9.20055 57.63785 9.31516 57.67741 9.42978 57.71695 9.54439 57.7573 9.659 57.79845 9.7736 57.8396 9.88821 57.8848 10.00282 57.92757 10.11743 57.97356 10.23204 58.01956 10.34663 58.06636 10.46126 58.11478 10.57587 58.164 10.69048 58.21404 10.80508 58.2649 10.9197 58.31815 11.0343 58.37059 11.14891 58.42627 11.26353 58.48196 11.37814 58.53845 11.49275 58.59735 11.60736 58.65627 11.72197 58.71759 11.83658 58.77974 11.95119 58.84349 12.0658 58.90723 12.1804 58.97421 12.29501 59.04199 12.40962 59.1106 12.52423 59.18242 12.63884 59.25504 12.75345 59.32928 12.86806 59.40353 12.98268 59.481 13.09729 59.56009 13.2119 59.63997 13.3265 59.72389 13.44112 59.80783 13.55573 59.89418 13.67033 59.98294 13.78493 60.07251 13.89955 60.16614 14.01414 60.25974 14.12877 60.35657 14.2434 60.45502 14.35799 60.55751 14.4726 60.66081 14.5872 60.76814 14.70183 60.87788 14.81644 60.98845 14.93105 61.10304 15.04565 61.22005 15.16026 61.3411 15.27487 61.46375 15.38948 61.59045 15.50407 61.72037 15.6187 61.85272 15.73329 61.9899 15.84792 62.1287 15.96252 62.27316 16.07713 62.42084 16.19174 62.57173 16.30635 62.7283 16.42096 62.88728 16.53558 63.0527 16.65019 63.22136 16.7648 63.39647 16.87941 63.57321 16.994 63.758 17.10863 63.94765 17.22322 64.14212 17.33784 64.34387 17.45244 64.55046 17.56706 64.76431 17.68167 64.98462 17.79628 65.21217 17.91089 65.44621 18.0255 65.68831 18.1401 65.93846 18.25473 66.19589 18.36934 66.46463 18.48395 66.74142 18.59854 67.0271 18.71315 67.32405 18.82777 67.63072 18.94237 67.94946 19.05699 68.27872 19.17159 68.62169 19.28621 68.97755 19.40082 69.34796 19.51543 69.73209 19.63004 70.13235 19.74464 70.55118 19.85925 70.98373 19.97388 71.43886 20.08847 71.91014 20.2031 72.40562 20.31769 72.9229 20.4323 73.46358 20.54692 74.0325 20.66151 74.62804 20.77614 75.25266 20.89073 75.90874 21.00536 76.60193 21.11996 77.33144 21.23457 78.1005 21.34918 78.91716 21.46379 79.77577 21.5784 80.69171 21.69302 81.66171 21.80762 82.69385 21.92223 83.79456 22.03682 84.96791 22.15144 86.226 22.26607 87.57849 22.38066 89.0367 22.49529 90.59984 22.60988 92.29852 22.7245 94.13927 22.83911 96.14622 22.95372 98.34041 23.06833 100.74521 23.18294 103.40501 23.29755 106.34566 23.41217 109.61394 23.52676 113.29378 23.64137 117.44409 23.75597 122.16978 23.87059 127.58058 23.98521 133.86214 24.09981 141.23795 24.21443 150.00983 24.29778 157.69242"/>
<path transform="matrix(-1.00005,-0,0,1.00006,12.490845,110.04309)" d="M2.8892 0-1.73352 2.31136 0 0-1.73352-2.31136" fill="#0000ff"/>
<path transform="matrix(.010820541,-.99995997,-.99994996,-.01082065,32.378698,8.8333439)" d="M2.8892 0-1.73352 2.31136 0 0-1.73352-2.31136" fill="#0000ff"/>
<path transform="matrix(1.00005,0,0,-1.00006,8.079704,166.5352)" stroke-width=".99628" stroke-linecap="butt" stroke-miterlimit="10" stroke-linejoin="miter" fill="none" stroke="#0000ff" d="M28.18257 3.59735 28.22595 4.32863 28.44017 7.4218 28.65442 10.10663 28.86864 12.4517 29.08289 14.52 29.2971 16.35913 29.51135 18.00214 29.72557 19.48213 29.93982 20.8169 30.15404 22.02817 30.36829 23.13292 30.5825 24.1465 30.79675 25.07614 31.01099 25.93315 31.22522 26.72643 31.43945 27.45836 31.65369 28.14104 31.86792 28.77615 32.08214 29.3709 32.29639 29.92528 32.51062 30.44499 32.72485 30.9324 32.93907 31.39157 33.15332 31.82411 33.36754 32.23245 33.58179 32.6182 33.796 32.98132 34.01025 33.32751 34.22449 33.65517 34.43872 33.96504 34.65295 34.25797 34.86719 34.53882 35.08142 34.80591 35.29565 35.06093 35.50989 35.30222 35.72412 35.53383 35.93835 35.75412 36.15259 35.96474 36.36682 36.1673 36.58105 36.36017 36.79529 36.54335 37.00952 36.72089 37.22375 36.88954 37.43797 37.05255 37.65222 37.20749 37.86646 37.35678 38.08069 37.49962 38.29492 37.63762 38.50916 37.76915 38.72339 37.89584 38.93762 38.0169 39.15186 38.1331 39.36609 38.24529 39.58032 38.3534 39.79456 38.45752 40.00879 38.55676 40.22302 38.652 40.43726 38.744 40.65149 38.83276 40.86572 38.91748 41.07997 38.999 41.29419 39.07646 41.50844 39.15152 41.72266 39.22415 41.9369 39.29355 42.15112 39.35973 42.36536 39.42346 42.57959 39.48398 42.79382 39.54291 43.00806 39.59859 43.22229 39.65265 43.43652 39.70349 43.65076 39.75273 43.86499 39.79951 44.07922 39.8439 44.29347 39.88667 44.50769 39.92621 44.72194 39.96414 44.93616 40.00046 45.1504 40.03436 45.36462 40.06744 45.57887 40.09729 45.79309 40.12555 46.00734 40.15298 46.22156 40.1772 46.4358 40.20059 46.65002 40.22157 46.86427 40.24176 47.07849 40.2603 47.29274 40.27644 47.50696 40.29097 47.72119 40.3039 47.93544 40.31438 48.14966 40.32407 48.3639 40.33293 48.57813 40.33858 48.79237 40.34343 49.00659 40.34746 49.22084 40.34909H49.43506L49.64932 40.34746 49.86353 40.34343 50.07777 40.33858 50.29198 40.33293 50.50624 40.32407 50.72047 40.31438 50.9347 40.3039 51.14894 40.29097 51.36316 40.27644 51.57741 40.2603 51.79164 40.24176 52.00587 40.22157 52.22011 40.20059 52.43433 40.1772 52.64856 40.15298 52.86282 40.12555 53.07703 40.09729 53.29128 40.06664 53.5055 40.03436 53.71974 40.00046 53.93398 39.96414 54.1482 39.92621 54.36244 39.88667 54.57666 39.8439 54.79091 39.79951 55.00514 39.75273 55.21938 39.70349 55.43361 39.65265 55.64783 39.59859 55.86208 39.54291 56.07632 39.48398 56.29053 39.42346 56.50478 39.35973 56.719 39.29355 56.93324 39.22415 57.14748 39.15152 57.3617 39.07646 57.57594 38.999 57.79016 38.91748 58.00441 38.83276 58.21866 38.744 58.43288 38.652 58.64711 38.55676 58.86133 38.45752 59.07558 38.3534 59.28983 38.24529 59.50403 38.1331 59.71829 38.0169 59.9325 37.89584 60.14674 37.76915 60.36098 37.63762 60.57521 37.49962 60.78944 37.35678 61.00366 37.20749 61.21793 37.05255 61.43216 36.88954 61.64638 36.72089 61.86061 36.54335 62.07484 36.35936 62.28908 36.1673 62.50333 35.96474 62.71753 35.75412 62.9318 35.533 63.146 35.30222 63.36024 35.06012 63.5745 34.80591 63.78871 34.53882 64.00294 34.25797 64.21716 33.96423 64.43141 33.65355 64.64566 33.32591 64.85988 32.98132 65.07413 32.6182 65.28835 32.23245 65.50258 31.82411 65.71683 31.39157 65.93105 30.9324 66.1453 30.44499 66.3595 29.92528 66.57376 29.37009 66.788 28.77615 67.00221 28.14104 67.21645 27.45753 67.43068 26.72481 67.64491 25.93315 67.85916 25.07614 68.07338 24.1465 68.28763 23.13292 68.50185 22.02737 68.71608 20.8169 68.93034 19.4781 69.14455 18.00214 69.3588 16.3575 69.573 14.5184 69.78726 12.4517 70.0015 10.10503 70.21571 7.4218 70.42996 4.32298 70.47292 3.5973"/>
<path transform="matrix(-.059142956,.99825987,.9982498,.059143548,36.26368,162.93762)" d="M2.8892 0-1.73352 2.31136 0 0-1.73352-2.31136" fill="#0000ff"/>
<path transform="matrix(.059282964,.9982398,.9982298,-.059283556,78.55612,162.93767)" d="M2.8892 0-1.73352 2.31136 0 0-1.73352-2.31136" fill="#0000ff"/>
<path transform="matrix(1.00005,0,0,-1.00006,8.079704,166.5352)" stroke-width=".99628" stroke-linecap="butt" stroke-miterlimit="10" stroke-linejoin="miter" fill="none" stroke="#0000ff" d="M74.36076 157.71662 74.55583 141.23795 74.78505 127.60399 75.01427 117.44409 75.24347 109.62361 75.4727 103.4018 75.70192 98.34445 75.93114 94.13927 76.16035 90.59984 76.38959 87.57849 76.6188 84.97034 76.84802 82.69624 77.07724 80.69171 77.30646 78.91716 77.53568 77.33144 77.7649 75.91115 77.99413 74.62564 78.22334 73.46358 78.45256 72.40562 78.68176 71.43886 78.911 70.55118 79.14021 69.7337 79.36943 68.97755 79.59865 68.27872 79.82788 67.63072 80.0571 67.0279 80.2863 66.46463 80.51553 65.93846 80.74475 65.44621 80.97397 64.98462 81.20319 64.55046 81.43242 64.14212 81.66164 63.75961 81.89084 63.39647 82.12006 63.0527 82.34929 62.7283 82.5785 62.42084 82.80772 62.12952 83.03694 61.85272 83.26617 61.59045 83.49538 61.3411 83.7246 61.10464 83.95383 60.87788 84.18304 60.66081 84.41226 60.45665 84.64148 60.25974 84.87071 60.07333 85.09993 59.89418 85.32913 59.72389 85.55835 59.56009 85.78758 59.40353 86.0168 59.25504 86.24602 59.1106 86.47523 58.97421 86.70447 58.84349 86.93367 58.71759 87.16289 58.59735 87.39212 58.48196 87.62134 58.37059 87.85056 58.2649 88.07977 58.164 88.309 58.06636 88.53821 57.97356 88.76743 57.8848 88.99664 57.79845 89.22588 57.71695 89.4551 57.63785 89.68431 57.5628 89.91354 57.49179 90.14275 57.4224 90.37196 57.35703 90.60118 57.29488 90.8304 57.23436 91.05963 57.17787 91.28885 57.12299 91.51807 57.07135 91.74728 57.02213 91.9765 56.97533 92.20572 56.93094 92.43494 56.88979 92.66417 56.85104 92.89339 56.81311 93.1226 56.77841 93.35184 56.74533 93.58104 56.71466 93.81026 56.68481 94.03947 56.65898 94.26869 56.63396 94.49792 56.61137 94.72714 56.5912 94.95636 56.57182 95.18558 56.55568 95.4148 56.54117 95.64401 56.52907 95.87323 56.51776 96.10246 56.50726 96.33168 56.50002 96.5609 56.49435 96.79012 56.49194 97.01933 56.48872H97.24855L97.47778 56.49194 97.70699 56.49435 97.93622 56.50002 98.16542 56.50726 98.39464 56.51776 98.62387 56.52907 98.85307 56.54117 99.0823 56.55568 99.31151 56.57263 99.54076 56.5912 99.76999 56.61137 99.99919 56.63396 100.22841 56.65898 100.45761 56.68642 100.68684 56.71466 100.91608 56.74533 101.14528 56.77841 101.37451 56.81311 101.60371 56.85023 101.83293 56.88979 102.06216 56.93094 102.29137 56.97533 102.5206 57.02213 102.7498 57.07135 102.97905 57.12299 103.20828 57.17787 103.43747 57.23436 103.6667 57.29488 103.8959 57.35703 104.12514 57.4224 104.35437 57.49179 104.58357 57.5628 104.8128 57.63785 105.04199 57.71695 105.27122 57.79845 105.50046 57.8848 105.72966 57.97356 105.9589 58.06636 106.1881 58.164 106.41734 58.2649 106.64656 58.37059 106.87576 58.48196 107.105 58.59735 107.3342 58.71759 107.56343 58.84349 107.79266 58.97421 108.02187 59.1106 108.2511 59.25343 108.48029 59.40353 108.70952 59.56009 108.93875 59.72389 109.16795 59.89418 109.39719 60.07251 109.62639 60.25974 109.85564 60.45502 110.08485 60.66081 110.31406 60.87788 110.54329 61.10304 110.77249 61.3411 111.00172 61.59045 111.23096 61.85272 111.46016 62.1287 111.68938 62.42084 111.91858 62.7283 112.14781 63.0527 112.37704 63.39485 112.60625 63.758 112.83548 64.14212 113.06468 64.54965 113.29391 64.98462 113.52315 65.44621 113.75235 65.93846 113.98158 66.46463 114.21078 67.0271 114.44002 67.62909 114.66925 68.27872 114.89845 68.97755 115.12767 69.73209 115.35687 70.55037 115.5861 71.43643 115.81534 72.40562 116.04454 73.46358 116.27377 74.62564 116.50298 75.90874 116.73221 77.33144 116.96144 78.91312 117.19064 80.69011 117.41988 82.69385 117.64908 84.96791 117.87831 87.57445 118.10754 90.5966 118.33673 94.13683 118.56596 98.34041 118.79517 103.4018 119.0244 109.61394 119.25363 117.43279 119.48283 127.58058 119.71207 141.21375 119.9071 157.69242"/>
<path transform="matrix(-.011830591,-.99995997,-.99994996,.01183071,82.4442,8.809143)" d="M2.8892 0-1.73352 2.31136 0 0-1.73352-2.31136" fill="#0000ff"/>
<path transform="matrix(.011830591,-.99995997,-.99994996,-.01183071,127.99278,8.8333439)" d="M2.8892 0-1.73352 2.31136 0 0-1.73352-2.31136" fill="#0000ff"/>
<path transform="matrix(1.00005,0,0,-1.00006,8.079704,166.5352)" stroke-width=".99628" stroke-linecap="butt" stroke-miterlimit="10" stroke-linejoin="miter" fill="none" stroke="#0000ff" d="M123.79512 3.5973 123.8383 4.3238 124.05254 7.42421 124.26677 10.10663 124.481 12.4517 124.69524 14.52 124.90947 16.35913 125.1237 18.00214 125.33794 19.47974 125.55217 20.8169 125.7664 22.02817 125.98064 23.13292 126.19487 24.1465 126.4091 25.07614 126.62334 25.93315 126.83757 26.72643 127.0518 27.45836 127.26605 28.14104 127.48027 28.77615 127.6945 29.3709 127.90874 29.92528 128.12299 30.44499 128.3372 30.9324 128.55144 31.39157 128.76567 31.82411 128.9799 32.23245 129.19414 32.6182 129.40837 32.98053 129.6226 33.32591 129.83684 33.65355 130.05107 33.96423 130.2653 34.25958 130.47956 34.53882 130.69377 34.80591 130.90802 35.06093 131.12224 35.30222 131.33649 35.53383 131.5507 35.75412 131.76496 35.96474 131.97917 36.1673 132.19342 36.36017 132.40764 36.54335 132.62189 36.72089 132.8361 36.88954 133.05034 37.05255 133.26457 37.20749 133.4788 37.35678 133.69304 37.49962 133.90727 37.63762 134.12152 37.76915 134.33574 37.89584 134.54999 38.0169 134.7642 38.1331 134.97846 38.24529 135.19268 38.3534 135.40692 38.45752 135.62114 38.55676 135.83539 38.652 136.0496 38.744 136.26386 38.83276 136.47808 38.91748 136.69232 38.999 136.90654 39.07646 137.12079 39.15152 137.33502 39.22415 137.54926 39.29355 137.76349 39.35973 137.9777 39.42346 138.19196 39.48398 138.40618 39.54291 138.62042 39.59859 138.83464 39.65265 139.04889 39.70349 139.2631 39.75273 139.47736 39.79951 139.69158 39.8439 139.90583 39.88667 140.12004 39.92621 140.33429 39.96414 140.54853 40.00046 140.76276 40.03436 140.97699 40.06744 141.19123 40.09729 141.40546 40.12555 141.61969 40.15298 141.83393 40.1772 142.04816 40.20059 142.26239 40.22157 142.47663 40.24176 142.69086 40.2603 142.90509 40.27644 143.11933 40.29097 143.33354 40.3039 143.54779 40.31438 143.76201 40.32407 143.97626 40.33293 144.19049 40.33858 144.40473 40.34343 144.61896 40.34746 144.83319 40.34909H145.04743L145.26168 40.34746 145.47589 40.34343 145.69013 40.33858 145.90435 40.33293 146.11859 40.32407 146.33284 40.31438 146.54705 40.3039 146.76129 40.29097 146.97551 40.27644 147.18976 40.2603 147.404 40.24176 147.61823 40.22157 147.83248 40.20059 148.04668 40.1772 148.26093 40.15298 148.47518 40.12555 148.68939 40.09729 148.90363 40.06744 149.11786 40.03436 149.33209 40.00046 149.54634 39.96414 149.76055 39.92621 149.97481 39.88667 150.18901 39.8439 150.40326 39.79951 150.6175 39.75273 150.83173 39.70349 151.04598 39.65265 151.26018 39.59859 151.47444 39.54291 151.68868 39.48398 151.9029 39.42346 152.11713 39.35973 152.33136 39.29355 152.5456 39.22415 152.75984 39.15152 152.97405 39.07646 153.18831 38.999 153.40251 38.91748 153.61676 38.83276 153.83101 38.744 154.04523 38.652 154.25948 38.55676 154.47368 38.45752 154.68795 38.3534 154.90218 38.24529 155.1164 38.1331 155.33065 38.0169 155.54486 37.89584 155.7591 37.76915 155.97335 37.63762 156.18756 37.49962 156.40181 37.35678 156.61602 37.20749 156.83028 37.05255 157.04451 36.88954 157.25873 36.72089 157.47298 36.54335 157.6872 36.35936 157.90145 36.1673 158.11568 35.96474 158.3299 35.75412 158.54415 35.53383 158.75836 35.30222 158.9726 35.06012 159.18686 34.80591 159.40106 34.53882 159.61531 34.25797 159.82952 33.96423 160.04378 33.65355 160.25801 33.32591 160.47223 32.98132 160.68648 32.61658 160.9007 32.23245 161.11495 31.82492 161.32918 31.39157 161.54341 30.9324 161.75765 30.44499 161.97187 29.92528 162.18611 29.3709 162.40036 28.77615 162.61457 28.14104 162.82881 27.45836 163.04303 26.72481 163.25728 25.93315 163.47151 25.07614 163.68573 24.1465 163.89998 23.13292 164.1142 22.02817 164.32845 20.8169 164.5427 19.47974 164.75691 18.00052 164.97115 16.3575 165.18537 14.52 165.39962 12.45009 165.61386 10.10503 165.82807 7.4218 166.04233 4.3238 166.08571 3.59253"/>
<path transform="matrix(-.059202959,.9982398,.9982298,.05920355,131.88101,162.93767)" d="M2.8892 0-1.73352 2.31136 0 0-1.73352-2.31136" fill="#0000ff"/>
<path transform="matrix(.059132957,.99825987,.9982498,-.05913355,174.1737,162.94245)" d="M2.8892 0-1.73352 2.31136 0 0-1.73352-2.31136" fill="#0000ff"/>
<path transform="matrix(1.00005,0,0,-1.00006,8.079704,166.5352)" stroke-width=".99628" stroke-linecap="butt" stroke-miterlimit="10" stroke-linejoin="miter" fill="none" stroke="#0000ff" d="M169.97013 157.71662 170.05358 150.00983 170.16819 141.23795 170.28279 133.86214 170.3974 127.58867 170.51201 122.16978 170.62662 117.44974 170.74123 113.29378 170.85584 109.62361 170.97046 106.34566 171.08507 103.40501 171.19968 100.75166 171.31429 98.34041 171.4289 96.14622 171.54349 94.13927 171.6581 92.30096 171.7727 90.60307 171.88733 89.0367 172.00194 87.57849 172.11655 86.23003 172.23116 84.97034 172.34577 83.79698 172.46038 82.69624 172.57498 81.66171 172.6896 80.69171 172.80422 79.77577 172.91883 78.91716 173.03343 78.1029 173.14803 77.33224 173.26264 76.60353 173.37725 75.90874 173.49185 75.25346 173.60648 74.62804 173.72109 74.0325 173.8357 73.46437 173.9503 72.9229 174.06491 72.40562 174.17952 71.91174 174.29413 71.43886 174.40876 70.98453 174.52336 70.55118 174.63797 70.13397 174.75258 69.7337 174.86717 69.34796 174.98178 68.97755 175.09639 68.62169 175.211 68.27872 175.32563 67.94946 175.44023 67.63072 175.55484 67.32405 175.66945 67.0279 175.78406 66.74142 175.89867 66.46542 176.01328 66.1967 176.12789 65.93846 176.24251 65.68831 176.35712 65.44621 176.47171 65.21217 176.58632 64.98462 176.70093 64.76431 176.81554 64.55046 176.93015 64.34387 177.04477 64.14212 177.15938 63.94765 177.27399 63.758 177.3886 63.57321 177.5032 63.39647 177.61782 63.22136 177.73242 63.0527 177.84703 62.88728 177.96166 62.7283 178.07627 62.57173 178.19086 62.42084 178.30547 62.27397 178.42008 62.1287 178.53469 61.9899 178.64929 61.85272 178.7639 61.72037 178.87853 61.59045 178.99314 61.46375 179.10774 61.3411 179.22235 61.22005 179.33696 61.10304 179.45157 60.98845 179.56618 60.87788 179.6808 60.76814 179.7954 60.66243 179.91 60.55751 180.02462 60.45502 180.13922 60.35657 180.25383 60.25974 180.36844 60.16614 180.48305 60.07333 180.59767 59.98294 180.71228 59.89418 180.82689 59.80783 180.9415 59.72389 181.0561 59.63997 181.17072 59.56009 181.28533 59.481 181.39995 59.40353 181.51454 59.32928 181.62914 59.25343 181.74376 59.18242 181.85837 59.1106 181.97298 59.04199 182.0876 58.97421 182.2022 58.90884 182.31682 58.84349 182.43141 58.77974 182.54604 58.71759 182.66065 58.65627 182.77526 58.59735 182.88986 58.53845 183.00447 58.48196 183.11907 58.42627 183.23369 58.37059 183.3483 58.31815 183.4629 58.2649 183.5775 58.21404 183.69213 58.164 183.80675 58.11478 183.92134 58.06636 184.03597 58.01956 184.15056 57.97356 184.26519 57.92757 184.37979 57.8848 184.4944 57.84122 184.60901 57.79845 184.7236 57.7573 184.83821 57.71695 184.95284 57.67741 185.06743 57.63785 185.18206 57.59993 185.29666 57.5628 185.41127 57.5273 185.5259 57.49179 185.64049 57.45709 185.75511 57.4224 185.8697 57.3893 185.98433 57.35703 186.09894 57.32556 186.21355 57.29488 186.32816 57.26341 186.44275 57.23436 186.55736 57.20613 186.67198 57.17787 186.78659 57.15045 186.9012 57.12299 187.0158 57.09718 187.13042 57.07135 187.24504 57.04715 187.35964 57.02213 187.47426 56.99873 187.58885 56.97533 187.70348 56.95354 187.81809 56.93094 187.9327 56.90997 188.04729 56.88979 188.1619 56.8696 188.2765 56.85104 188.39113 56.83168 188.50572 56.81311 188.62035 56.79538 188.73496 56.77762 188.84957 56.76147 188.96419 56.74533 189.07878 56.7292 189.1934 56.71466 189.308 56.70013 189.42263 56.68481 189.53723 56.67108 189.65184 56.65898 189.76644 56.64688 189.88105 56.63396 189.99565 56.62186 190.11028 56.61137 190.22487 56.60168 190.3395 56.5912 190.45409 56.58151 190.56871 56.57263 190.68334 56.56456 190.79793 56.55568 190.91255 56.54843 191.02715 56.54117 191.14177 56.5339 191.25638 56.52907 191.37097 56.5226 191.48558 56.51776 191.60019 56.51292 191.7148 56.50726 191.82942 56.50404 191.94402 56.50002 192.05864 56.4976 192.17324 56.49435 192.28786 56.49275 192.40248 56.49194 192.51708 56.48872H192.6317 189.85707"/>
<path transform="matrix(-.010790539,-.99995997,-.99994996,.010790647,178.05832,8.809143)" d="M2.8892 0-1.73352 2.31136 0 0-1.73352-2.31136" fill="#0000ff"/>
<path transform="matrix(1.00005,0,0,-1.00006,197.94626,110.04309)" d="M2.8892 0-1.73352 2.31136 0 0-1.73352-2.31136" fill="#0000ff"/>
<path transform="matrix(1.00005,0,0,-1.00006,8.079704,166.5352)" stroke-width=".3985" stroke-linecap="butt" stroke-dasharray="2.98883,2.98883" stroke-miterlimit="10" stroke-linejoin="miter" fill="none" stroke="#ff0000" d="M25.42479 0V161.39636"/>
<path transform="matrix(1.00005,0,0,-1.00006,8.079704,166.5352)" stroke-width=".3985" stroke-linecap="butt" stroke-dasharray="2.98883,2.98883" stroke-miterlimit="10" stroke-linejoin="miter" fill="none" stroke="#ff0000" d="M73.23096 0V161.39636"/>
<path transform="matrix(1.00005,0,0,-1.00006,8.079704,166.5352)" stroke-width=".3985" stroke-linecap="butt" stroke-dasharray="2.98883,2.98883" stroke-miterlimit="10" stroke-linejoin="miter" fill="none" stroke="#ff0000" d="M121.03714 0V161.39636"/>
<path transform="matrix(1.00005,0,0,-1.00006,8.079704,166.5352)" stroke-width=".3985" stroke-linecap="butt" stroke-dasharray="2.98883,2.98883" stroke-miterlimit="10" stroke-linejoin="miter" fill="none" stroke="#ff0000" d="M168.84333 0V161.39636"/>
<use data-text="x" xlink:href="#font_3_2" transform="matrix(9.963098,0,0,-9.963197,193.14295,82.31215)"/>
<use data-text="y" xlink:href="#font_3_3" transform="matrix(9.963098,0,0,-9.963197,108.73873,12.93898)"/>
</svg>
