<svg xmlns="http://www.w3.org/2000/svg" xmlns:xlink="http://www.w3.org/1999/xlink" xmlns:inkscape="http://www.inkscape.org/namespaces/inkscape" version="1.1" width="224" height="171" viewBox="0 0 224 171">
<defs>
<path id="font_1_2" d="M.2939911 .64004519C.2939911 .66400149 .2939911 .6660156 .2709961 .6660156 .20899964 .60227969 .12098694 .60227969 .08898926 .60227969V.57128909C.10899353 .57128909 .16799927 .57128909 .21998596 .5972748V.07902527C.21998596 .042999269 .21699524 .0309906 .1269989 .0309906H.09498596V0C.12998963 .0029907227 .21699524 .0029907227 .25698854 .0029907227 .29699708 .0029907227 .38398744 .0029907227 .4189911 0V.0309906H.3869934C.29699708 .0309906 .2939911 .041992189 .2939911 .07902527V.64004519Z"/>
<path id="font_1_1" d="M.45999146 .31976319C.45999146 .39982606 .45498658 .47988893 .41999818 .5539398 .37399293 .65000918 .2919922 .6660156 .25 .6660156 .18998719 .6660156 .116989139 .64001467 .07598877 .54693606 .04399109 .47789 .038986207 .39982606 .038986207 .31976319 .038986207 .24472046 .042999269 .15464783 .083999637 .07859802 .1269989-.0024719239 .19999695-.022460938 .24899292-.022460938 .30299378-.022460938 .3789978-.0014648438 .4229889 .09359741 .45498658 .16265869 .45999146 .2407074 .45999146 .31976319M.24899292-.00047302247C.20999146-.00047302247 .15098572 .024551392 .1329956 .12062073 .12199402 .18066406 .12199402 .2727356 .12199402 .3317871 .12199402 .39582826 .12199402 .46188355 .12998963 .5159149 .14898682 .63500979 .22399903 .64401248 .24899292 .64401248 .28199769 .64401248 .34799195 .6259918 .36698915 .52693179 .3769989 .47088624 .3769989 .39482118 .3769989 .3317871 .3769989 .25672914 .3769989 .18867493 .3659973 .12461853 .35099793 .029556275 .2939911-.00047302247 .24899292-.00047302247Z"/>
<path id="font_1_3" d="M.1269989 .07699585 .23298645 .18003845C.3889923 .31811524 .44898988 .3721466 .44898988 .47216798 .44898988 .5860901 .35899354 .6660156 .23699951 .6660156 .12399292 .6660156 .049987794 .57411196 .049987794 .48516847 .049987794 .4291687 .099990848 .4291687 .102996829 .4291687 .11999512 .4291687 .15499878 .44117738 .15499878 .48217774 .15499878 .5081787 .13699341 .5341797 .101989749 .5341797 .09399414 .5341797 .09199524 .5341797 .08898926 .5331726 .11199951 .59806826 .1659851 .63500979 .22399903 .63500979 .31498719 .63500979 .35798646 .5541382 .35798646 .47216798 .35798646 .39215089 .30799867 .31311036 .25299073 .25108338L.06098938 .036987306C.049987794 .025985718 .049987794 .023986817 .049987794 0H.42099L.44898988 .17404175H.42399598C.4189911 .14402771 .4119873 .1000061 .4019928 .084991458 .394989 .07699585 .32899476 .07699585 .30699159 .07699585H.1269989Z"/>
<path id="font_1_4" d="M.2899933 .35191346C.37199403 .37893678 .42999269 .4490509 .42999269 .52809146 .42999269 .6100464 .34199525 .6660156 .24598694 .6660156 .14498902 .6660156 .068984989 .60606387 .068984989 .53009036 .068984989 .49710084 .09098816 .47808839 .11999512 .47808839 .15098572 .47808839 .17098999 .50009158 .17098999 .5290985 .17098999 .57910159 .12399292 .57910159 .10899353 .57910159 .13999939 .62802127 .20599365 .64100649 .24198914 .64100649 .2829895 .64100649 .33799745 .6190338 .33799745 .5290985 .33799745 .51708987 .33599855 .45906068 .30999757 .4149933 .27999879 .36691285 .24598694 .36390687 .22099304 .36291505 .21299744 .36190797 .18899536 .35990907 .18199158 .35990907 .17399597 .35890199 .16699219 .35791017 .16699219 .3479004 .16699219 .33691407 .17399597 .33691407 .19099427 .33691407H.23498535C.31698609 .33691407 .35398866 .2686615 .35398866 .17037964 .35398866 .034469606 .2849884 .0055389406 .24099732 .0055389406 .19799805 .0055389406 .12298584 .022491456 .08799744 .08137512 .12298584 .07637024 .1539917 .09837341 .1539917 .1363678 .1539917 .17237854 .1269989 .19238281 .09799194 .19238281 .07398987 .19238281 .041992189 .17837525 .041992189 .1343689 .041992189 .043441774 .1349945-.022460938 .24398804-.022460938 .3659973-.022460938 .45700074 .06838989 .45700074 .17037964 .45700074 .252594 .3939972 .33088685 .2899933 .35191346Z"/>
<path id="font_1_5" d="M.2939911 .16503906V.07800293C.2939911 .041992189 .2919922 .0309906 .21798706 .0309906H.19699097V0C.23799134 .0029907227 .2899933 .0029907227 .33198548 .0029907227 .37399293 .0029907227 .4269867 .0029907227 .46798707 0V.0309906H.44699098C.37298585 .0309906 .37098695 .041992189 .37098695 .07800293V.16503906H.47099305V.19602967H.37098695V.65075686C.37098695 .67074587 .37098695 .6767578 .35499574 .6767578 .34599305 .6767578 .34298707 .6767578 .33499146 .66474917L.027999878 .19602967V.16503906H.2939911M.2999878 .19602967H.055999757L.2999878 .5688019V.19602967Z"/>
<path id="font_2_1" d="M.6589966 .23046875C.6759949 .23046875 .69400027 .23046875 .69400027 .25045777 .69400027 .27046205 .6759949 .27046205 .6589966 .27046205H.117996219C.100997928 .27046205 .08299255 .27046205 .08299255 .25045777 .08299255 .23046875 .100997928 .23046875 .117996219 .23046875H.6589966Z"/>
<path id="font_1_6" d="M.44898988 .20022583C.44898988 .3193512 .36698915 .41944886 .25898744 .41944886 .21099854 .41944886 .16799927 .40345765 .13198853 .36842347V.5637665C.1519928 .5577698 .18499756 .55078127 .21699524 .55078127 .33999635 .55078127 .4099884 .6417694 .4099884 .6547699 .4099884 .6607666 .40699769 .6657715 .3999939 .6657715 .39898683 .6657715 .39698792 .6657715 .3919983 .66278079 .37199403 .6537781 .32299806 .6337738 .2559967 .6337738 .21598816 .6337738 .16999817 .6407776 .12298584 .6617737 .114990238 .66477969 .11299133 .66477969 .11099243 .66477969 .100997928 .66477969 .100997928 .6567688 .100997928 .6407776V.34439088C.100997928 .32637025 .100997928 .31835938 .114990238 .31835938 .12199402 .31835938 .12399292 .32136537 .12799073 .32736207 .13899231 .3433838 .17599488 .39746095 .25698854 .39746095 .30899049 .39746095 .33399964 .35139466 .34199525 .33337403 .35798646 .29632569 .3600006 .25727845 .3600006 .20722962 .3600006 .17222595 .3600006 .11222839 .33599855 .07035828 .31199647 .031463624 .2749939 .0055389406 .22898865 .0055389406 .1559906 .0055389406 .09899902 .058380128 .08198547 .11723328 .084991458 .1162262 .08799744 .115234378 .09899902 .115234378 .13198853 .115234378 .14898682 .14022827 .14898682 .16423035 .14898682 .18823242 .13198853 .21322632 .09899902 .21322632 .084991458 .21322632 .049987794 .20622254 .049987794 .16023255 .049987794 .07434082 .11898804-.022460938 .23098755-.022460938 .34700013-.022460938 .44898988 .073349 .44898988 .20022583Z"/>
<path id="font_3_1" d="M.20599365 .3996582H.2999878C.31999208 .3996582 .32998658 .3996582 .32998658 .41966249 .32998658 .43066407 .31999208 .43066407 .3019867 .43066407H.21398926C.25 .5724945 .25498963 .59246829 .25498963 .59846499 .25498963 .61546328 .24299622 .62545779 .22599793 .62545779 .22299195 .62545779 .19499207 .62446597 .18598938 .58947756L.14698792 .43066407H.052993776C.032989503 .43066407 .022994996 .43066407 .022994996 .4116516 .022994996 .3996582 .0309906 .3996582 .050994874 .3996582H.13899231C.066986087 .11608887 .06298828 .099121097 .06298828 .08114624 .06298828 .02722168 .100997928-.0107421879 .15499878-.0107421879 .25698854-.0107421879 .31399537 .13505554 .31399537 .14305115 .31399537 .1530304 .30599977 .1530304 .3019867 .1530304 .29299928 .1530304 .2919922 .15003968 .2869873 .13905335 .24398804 .035217287 .19099427 .011245728 .15699768 .011245728 .13598633 .011245728 .12599182 .024230957 .12599182 .057174684 .12599182 .08114624 .12799073 .088134769 .13198853 .10510254L.20599365 .3996582Z"/>
<path id="font_3_2" d="M.46199037 .33935548C.46699525 .36135865 .47698976 .3983612 .47698976 .40437318 .47698976 .42237855 .46299745 .43138124 .44799806 .43138124 .43598939 .43138124 .41799928 .42337037 .41099549 .4033661 .4079895 .3963623 .36099244 .205307 .35398866 .17930603 .34700013 .14929199 .34498597 .13128662 .34498597 .11328125 .34498597 .10227966 .34498597 .10028076 .34599305 .09527588 .32299806 .042266847 .29299928 .011245728 .2539978 .011245728 .17399597 .011245728 .17399597 .08526611 .17399597 .10227966 .17399597 .1342926 .1789856 .17329407 .22599793 .29634095 .23699951 .32633973 .24299622 .3403473 .24299622 .36035157 .24299622 .405365 .20999146 .4423828 .16099549 .4423828 .06599426 .4423828 .0289917 .29733277 .0289917 .28833009 .0289917 .27833558 .038986207 .27833558 .040985109 .27833558 .050994874 .27833558 .051986696 .28033448 .056991579 .29634095 .083999637 .38935853 .12298584 .42037965 .1579895 .42037965 .16699219 .42037965 .18299866 .41937257 .18299866 .38735963 .18299866 .36235047 .17199707 .3343506 .16499329 .31733705 .12098694 .1993103 .10899353 .1532898 .10899353 .11528015 .10899353 .024261475 .17599488-.0107421879 .25099183-.0107421879 .2679901-.0107421879 .31498719-.0107421879 .35499574 .059265138 .3809967-.0047454836 .44999696-.0107421879 .47999574-.0107421879 .5549927-.0107421879 .598999 .052261354 .625 .11227417 .6589966 .19030762 .69099429 .32434083 .69099429 .37236024 .69099429 .42736817 .6639862 .4423828 .6469879 .4423828 .621994 .4423828 .5970001 .41636659 .5970001 .3943634 .5970001 .38136292 .6029968 .3753662 .6119995 .36735536 .6230011 .35635377 .647995 .33035279 .647995 .28233338 .647995 .24832154 .61898806 .15029907 .59298709 .09927368 .5669861 .04626465 .5319977 .011245728 .48298646 .011245728 .43598939 .011245728 .40899659 .041259767 .40899659 .09828186 .40899659 .12628174 .41600038 .1572876 .41999818 .17129517L.46199037 .33935548Z"/>
</defs>
<path transform="matrix(1,0,0,-1.00006,23.573998,166.5352)" stroke-width=".19925" stroke-linecap="butt" stroke-miterlimit="10" stroke-linejoin="miter" fill="none" stroke="#7f807f" d="M48.56728 78.57237V82.82396M97.13455 78.57237V82.82396M145.70183 78.57237V82.82396M194.26912 78.57237V82.82396"/>
<path transform="matrix(1,0,0,-1.00006,23.573998,166.5352)" stroke-width=".19925" stroke-linecap="butt" stroke-miterlimit="10" stroke-linejoin="miter" fill="none" stroke="#7f807f" d="M-2.12587 0H2.12587M-2.12587 40.34909H2.12587M-2.12587 121.04727H2.12587M-2.12587 161.39636H2.12587"/>
<path transform="matrix(1,0,0,-1.00006,23.573998,166.5352)" stroke-width=".3985" stroke-linecap="butt" stroke-miterlimit="10" stroke-linejoin="miter" fill="none" stroke="#000000" d="M0 80.69818H192.2766"/>
<path transform="matrix(1,0,0,-1.00006,215.85059,85.832187)" d="M1.99252 0-1.19551 1.59401 0 0-1.19551-1.59401"/>
<path transform="matrix(1,0,0,-1.00006,23.573998,166.5352)" stroke-width=".3985" stroke-linecap="butt" stroke-miterlimit="10" stroke-linejoin="miter" fill="none" stroke="#000000" d="M0 0V159.40384"/>
<path transform="matrix(0,-1.00006,-1,-0,23.573998,7.121811)" d="M1.99252 0-1.19551 1.59401 0 0-1.19551-1.59401"/>
<use data-text="1" xlink:href="#font_1_2" transform="matrix(9.9626,0,0,-9.963197,67.159999,97.899089)"/>
<use data-text="0" xlink:href="#font_1_1" transform="matrix(9.9626,0,0,-9.963197,72.14129,97.899089)"/>
<use data-text="2" xlink:href="#font_1_3" transform="matrix(9.9626,0,0,-9.963197,115.727,97.899089)"/>
<use data-text="0" xlink:href="#font_1_1" transform="matrix(9.9626,0,0,-9.963197,120.70829,97.899089)"/>
<use data-text="3" xlink:href="#font_1_4" transform="matrix(9.9626,0,0,-9.963197,164.294,97.899089)"/>
<use data-text="0" xlink:href="#font_1_1" transform="matrix(9.9626,0,0,-9.963197,169.2753,97.899089)"/>
<use data-text="4" xlink:href="#font_1_5" transform="matrix(9.9626,0,0,-9.963197,212.862,97.899089)"/>
<use data-text="0" xlink:href="#font_1_1" transform="matrix(9.9626,0,0,-9.963197,217.84329,97.899089)"/>
<use data-text="&#x2212;" xlink:href="#font_2_1" transform="matrix(9.9626,0,0,-9.963197,.21699524,169.33037)"/>
<use data-text="1" xlink:href="#font_1_2" transform="matrix(9.9626,0,0,-9.963197,7.965988,169.33037)"/>
<use data-text="0" xlink:href="#font_1_1" transform="matrix(9.9626,0,0,-9.963197,12.947281,169.33037)"/>
<use data-text="&#x2212;" xlink:href="#font_2_1" transform="matrix(9.9626,0,0,-9.963197,5.197998,128.97895)"/>
<use data-text="5" xlink:href="#font_1_6" transform="matrix(9.9626,0,0,-9.963197,12.946991,128.97895)"/>
<use data-text="5" xlink:href="#font_1_6" transform="matrix(9.9626,0,0,-9.963197,12.946999,48.69114)"/>
<use data-text="1" xlink:href="#font_1_2" transform="matrix(9.9626,0,0,-9.963197,7.9660036,8.339706)"/>
<use data-text="0" xlink:href="#font_1_1" transform="matrix(9.9626,0,0,-9.963197,12.947296,8.339706)"/>
<path transform="matrix(1,0,0,-1.00006,23.573998,166.5352)" stroke-width=".99628" stroke-linecap="butt" stroke-miterlimit="10" stroke-linejoin="miter" fill="none" stroke="#0000ff" d="M2.67154 111.87778 .97621 112.57556 1.95244 111.38124 2.92868 109.42381 3.9049 106.75174 4.88115 103.43182 5.85738 99.54668 6.8336 95.19287 7.80984 90.47813 8.78607 85.52068 9.76231 80.44412 10.73854 75.37274 11.71477 70.43399 12.691 65.75092 13.66722 61.43874 14.64346 57.60622 15.61969 54.34763 16.59592 51.74495 17.57216 49.86177 18.54839 48.74556 19.52463 48.42374 20.50085 48.9047 21.4771 50.17683 22.45331 52.20816 23.42953 54.94803 24.40578 58.32863 25.382 62.26541 26.35823 66.66025 27.33447 71.404 28.3107 76.37953 29.28694 81.46126 30.26317 86.52458 31.23941 91.44394 32.21564 96.09506 33.19185 100.36398 34.16808 104.14325 35.14432 107.33922 36.12054 109.87282 37.09679 111.68109 38.07301 112.7192 39.04926 112.96033 40.02548 112.39868 41.00172 111.04973 41.97795 108.94543 42.95418 106.1381 43.93039 102.69843 44.90663 98.71129 45.88286 94.27644 46.8591 89.5033 47.83533 84.51196 48.81157 79.42636 49.7878 74.37143 50.76404 69.47371 51.74026 64.85614 52.71649 60.63144 53.69273 56.90672 54.66895 53.77338 55.64517 51.3095 56.62141 49.57643 57.59764 48.61742 58.57388 48.45634 59.55011 49.09773 60.52635 50.52446 61.50258 52.70105 62.4788 55.57457 63.45505 59.07298 64.43127 63.10918 65.40749 67.5831 66.38373 72.38368 67.35995 77.3902 68.3362 82.47836 69.31242 87.52296 70.28867 92.3981 71.2649 96.98178 72.24112 101.16098 73.21736 104.8308 74.19359 107.90022 75.16982 110.29341 76.14604 111.95094 77.12227 112.83057 78.09851 112.91159 79.07474 112.19081 80.05098 110.68755 81.0272 108.43768 82.00343 105.49834 82.97966 101.94244 83.9559 97.85783 84.93213 93.34616 85.90837 88.51976 86.88458 83.49937 87.86082 78.40956 88.83705 73.37659 89.8133 68.52565 90.78952 63.97687 91.76575 59.84447 92.74197 56.23047 93.71822 53.22527 94.69444 50.90343 95.67068 49.32175 96.64691 48.52122H97.62314L98.59943 49.32013 99.57556 50.90083 100.55185 53.22205 101.528 56.22661 102.50429 59.83995 103.48058 63.97202 104.45673 68.51952 105.43303 73.37175 106.40916 78.40375 107.38547 83.49388 108.36174 88.51427 109.33788 93.34131 110.31416 97.85298 111.29031 101.93794 112.2666 105.4951 113.24289 108.43509 114.21904 110.68529 115.19534 112.18983 116.17148 112.91159 117.14778 112.83122 118.12407 111.95258 119.10019 110.296 120.07648 107.90315 121.05263 104.83467 122.02892 101.16516 123.0052 96.98692 123.98135 92.40393 124.95766 87.5288 125.93379 82.48418 126.9101 77.396 127.88638 72.38852 128.86252 67.58858 129.83879 63.11339 130.81494 59.07686 131.79123 55.57843 132.76753 52.70396 133.74367 50.52641 134.71997 49.09805 135.6961 48.45667 136.67241 48.61678 137.6487 49.57481 138.62483 51.30724 139.60112 53.77046 140.57726 56.90285 141.55355 60.62756 142.52985 64.85098 143.50598 69.46854 144.48229 74.36594 145.45842 79.42055 146.43473 84.50648 147.41101 89.49782 148.38715 94.27065 149.36344 98.70645 150.33959 102.69423 151.31586 106.13489 152.29216 108.94254 153.2683 111.04779 154.2446 112.3977 155.22074 112.96033 156.19704 112.71985 157.17333 111.68207 158.14946 109.87541 159.12575 107.34212 160.1019 104.14713 161.07819 100.36852 162.05448 96.0996 163.03061 91.44942 164.00691 86.53038 164.98305 81.46706 165.95935 76.38437 166.93564 71.40916 167.91178 66.66573 168.88806 62.26993 169.86421 58.33282 170.8405 54.95091 171.8168 52.21106 172.79293 50.17876 173.76923 48.90567 174.74536 48.42374 175.72167 48.74458 176.69795 49.86015 177.67409 51.74203 178.65038 54.34409 179.62653 57.6017 180.60282 61.43423 181.57912 65.7461 182.55525 70.42853 183.53154 75.36789 184.50768 80.43799 185.48398 85.51585 186.46027 90.47331 187.4364 95.18736 188.41269 99.54247 189.38884 103.42761 190.36513 106.74818 191.34143 109.42123 192.31757 111.37929 193.29387 112.5746 191.59876 111.8763"/>
<path transform="matrix(-.92467,-.38064284,-.38062,.9247254,26.245549,54.650735)" d="M2.8892 0-1.73352 2.31136 0 0-1.73352-2.31136" fill="#0000ff"/>
<path transform="matrix(.92456,-.38092283,-.3809,-.92461547,215.17276,54.652215)" d="M2.8892 0-1.73352 2.31136 0 0-1.73352-2.31136" fill="#0000ff"/>
<use data-text="t" xlink:href="#font_3_1" transform="matrix(9.9626,0,0,-9.963197,210.72599,82.31215)"/>
<use data-text="w" xlink:href="#font_3_2" transform="matrix(9.9626,0,0,-9.963197,27.093995,12.93898)"/>
</svg>
