<svg xmlns="http://www.w3.org/2000/svg" xmlns:xlink="http://www.w3.org/1999/xlink" xmlns:inkscape="http://www.inkscape.org/namespaces/inkscape" version="1.1" width="198" height="171" viewBox="0 0 198 171">
<defs>
<path id="font_1_1" d="M.6589966 .23046875C.6759949 .23046875 .69400027 .23046875 .69400027 .25045777 .69400027 .27046205 .6759949 .27046205 .6589966 .27046205H.117996219C.100997928 .27046205 .08299255 .27046205 .08299255 .25045777 .08299255 .23046875 .100997928 .23046875 .117996219 .23046875H.6589966Z"/>
<path id="font_2_3" d="M.1269989 .07699585 .23298645 .18003845C.3889923 .31811524 .44898988 .3721466 .44898988 .47216798 .44898988 .5860901 .35899354 .6660156 .23699951 .6660156 .12399292 .6660156 .049987794 .57411196 .049987794 .48516847 .049987794 .4291687 .099990848 .4291687 .102996829 .4291687 .11999512 .4291687 .15499878 .44117738 .15499878 .48217774 .15499878 .5081787 .13699341 .5341797 .101989749 .5341797 .09399414 .5341797 .09199524 .5341797 .08898926 .5331726 .11199951 .59806826 .1659851 .63500979 .22399903 .63500979 .31498719 .63500979 .35798646 .5541382 .35798646 .47216798 .35798646 .39215089 .30799867 .31311036 .25299073 .25108338L.06098938 .036987306C.049987794 .025985718 .049987794 .023986817 .049987794 0H.42099L.44898988 .17404175H.42399598C.4189911 .14402771 .4119873 .1000061 .4019928 .084991458 .394989 .07699585 .32899476 .07699585 .30699159 .07699585H.1269989Z"/>
<path id="font_3_1" d="M.2649994 .37265016H.37799073C.34498597 .22489929 .33599855 .18196106 .33599855 .11508179 .33599855 .100097659 .33599855 .073150638 .34399415 .03919983 .35398866-.0047454836 .36499024-.0107421879 .37998963-.0107421879 .3999939-.0107421879 .42099 .007247925 .42099 .02722168 .42099 .033218385 .42099 .035202028 .4149933 .049179079 .38598634 .12106323 .38598634 .18595886 .38598634 .21391297 .38598634 .26683045 .3929901 .32073976 .4039917 .37265016H.5179901C.5309906 .37265016 .5669861 .37265016 .5669861 .406662 .5669861 .43066407 .54599 .43066407 .5269928 .43066407H.19198609C.16999817 .43066407 .13198853 .43066407 .08799744 .38365174 .052993776 .34469605 .026992798 .29878236 .026992798 .29379273 .026992798 .29278565 .026992798 .28379823 .038986207 .28379823 .04699707 .28379823 .04899597 .28779603 .054992677 .29577638 .10398865 .37265016 .1619873 .37265016 .18199158 .37265016H.23899842C.20698548 .25186158 .15299988 .13105774 .11099243 .04020691 .102996829 .025222779 .102996829 .023223877 .102996829 .016235352 .102996829-.002746582 .11898804-.0107421879 .13198853-.0107421879 .1619873-.0107421879 .16999817 .017242432 .18199158 .05418396 .19599915 .100097659 .19599915 .10209656 .20899964 .15202332L.2649994 .37265016Z"/>
<path id="font_2_2" d="M.2939911 .64004519C.2939911 .66400149 .2939911 .6660156 .2709961 .6660156 .20899964 .60227969 .12098694 .60227969 .08898926 .60227969V.57128909C.10899353 .57128909 .16799927 .57128909 .21998596 .5972748V.07902527C.21998596 .042999269 .21699524 .0309906 .1269989 .0309906H.09498596V0C.12998963 .0029907227 .21699524 .0029907227 .25698854 .0029907227 .29699708 .0029907227 .38398744 .0029907227 .4189911 0V.0309906H.3869934C.29699708 .0309906 .2939911 .041992189 .2939911 .07902527V.64004519Z"/>
<path id="font_2_1" d="M.45999146 .31976319C.45999146 .39982606 .45498658 .47988893 .41999818 .5539398 .37399293 .65000918 .2919922 .6660156 .25 .6660156 .18998719 .6660156 .116989139 .64001467 .07598877 .54693606 .04399109 .47789 .038986207 .39982606 .038986207 .31976319 .038986207 .24472046 .042999269 .15464783 .083999637 .07859802 .1269989-.0024719239 .19999695-.022460938 .24899292-.022460938 .30299378-.022460938 .3789978-.0014648438 .4229889 .09359741 .45498658 .16265869 .45999146 .2407074 .45999146 .31976319M.24899292-.00047302247C.20999146-.00047302247 .15098572 .024551392 .1329956 .12062073 .12199402 .18066406 .12199402 .2727356 .12199402 .3317871 .12199402 .39582826 .12199402 .46188355 .12998963 .5159149 .14898682 .63500979 .22399903 .64401248 .24899292 .64401248 .28199769 .64401248 .34799195 .6259918 .36698915 .52693179 .3769989 .47088624 .3769989 .39482118 .3769989 .3317871 .3769989 .25672914 .3769989 .18867493 .3659973 .12461853 .35099793 .029556275 .2939911-.00047302247 .24899292-.00047302247Z"/>
<path id="font_2_4" d="M.44898988 .20022583C.44898988 .3193512 .36698915 .41944886 .25898744 .41944886 .21099854 .41944886 .16799927 .40345765 .13198853 .36842347V.5637665C.1519928 .5577698 .18499756 .55078127 .21699524 .55078127 .33999635 .55078127 .4099884 .6417694 .4099884 .6547699 .4099884 .6607666 .40699769 .6657715 .3999939 .6657715 .39898683 .6657715 .39698792 .6657715 .3919983 .66278079 .37199403 .6537781 .32299806 .6337738 .2559967 .6337738 .21598816 .6337738 .16999817 .6407776 .12298584 .6617737 .114990238 .66477969 .11299133 .66477969 .11099243 .66477969 .100997928 .66477969 .100997928 .6567688 .100997928 .6407776V.34439088C.100997928 .32637025 .100997928 .31835938 .114990238 .31835938 .12199402 .31835938 .12399292 .32136537 .12799073 .32736207 .13899231 .3433838 .17599488 .39746095 .25698854 .39746095 .30899049 .39746095 .33399964 .35139466 .34199525 .33337403 .35798646 .29632569 .3600006 .25727845 .3600006 .20722962 .3600006 .17222595 .3600006 .11222839 .33599855 .07035828 .31199647 .031463624 .2749939 .0055389406 .22898865 .0055389406 .1559906 .0055389406 .09899902 .058380128 .08198547 .11723328 .084991458 .1162262 .08799744 .115234378 .09899902 .115234378 .13198853 .115234378 .14898682 .14022827 .14898682 .16423035 .14898682 .18823242 .13198853 .21322632 .09899902 .21322632 .084991458 .21322632 .049987794 .20622254 .049987794 .16023255 .049987794 .07434082 .11898804-.022460938 .23098755-.022460938 .34700013-.022460938 .44898988 .073349 .44898988 .20022583Z"/>
<path id="font_3_2" d="M.33399964 .30233766C.33999635 .32835389 .36299134 .42037965 .43299867 .42037965 .43798829 .42037965 .46199037 .42037965 .48298646 .40734864 .45498658 .402359 .43499757 .37734986 .43499757 .35334779 .43499757 .33735658 .44599916 .31835938 .47299195 .31835938 .49499513 .31835938 .5269928 .3363495 .5269928 .37635804 .5269928 .42837525 .46798707 .4423828 .43399049 .4423828 .37599183 .4423828 .34098817 .38935853 .32899476 .36634828 .3039856 .43237306 .25 .4423828 .22099304 .4423828 .116989139 .4423828 .05999756 .3133545 .05999756 .28834535 .05999756 .27833558 .069992069 .27833558 .07199097 .27833558 .07998657 .27833558 .08299255 .28033448 .084991458 .28933717 .11898804 .39535523 .18499756 .42037965 .21899414 .42037965 .23799134 .42037965 .272995 .4113617 .272995 .35334779 .272995 .32235719 .2559967 .25532533 .21899414 .11528015 .20298767 .053268434 .16799927 .011245728 .12399292 .011245728 .117996219 .011245728 .09498596 .011245728 .07398987 .024276734 .09899902 .029266358 .12098694 .05027771 .12098694 .07827759 .12098694 .105270389 .09899902 .11328125 .083999637 .11328125 .053985597 .11328125 .0289917 .08728027 .0289917 .055267335 .0289917 .009246826 .07899475-.0107421879 .12298584-.0107421879 .18899536-.0107421879 .22499085 .059280397 .22799683 .0652771 .23999024 .028274537 .27598573-.0107421879 .33599855-.0107421879 .43899537-.0107421879 .49598695 .118270877 .49598695 .14328003 .49598695 .1532898 .4869995 .1532898 .48399354 .1532898 .47499085 .1532898 .47299195 .14929199 .47099305 .14228821 .43798829 .03527832 .36999513 .011245728 .33799745 .011245728 .29899598 .011245728 .2829895 .043273927 .2829895 .07727051 .2829895 .09927368 .2889862 .121276859 .2999878 .16529846L.33399964 .30233766Z"/>
<path id="font_3_3" d="M.48599244 .38136292C.48999024 .39537049 .48999024 .39736939 .48999024 .40437318 .48999024 .42237855 .47599793 .43138124 .46099855 .43138124 .45098878 .43138124 .43499757 .42536927 .42599488 .41036988 .42399598 .405365 .41600038 .37435914 .4119873 .35635377 .40499879 .33035279 .397995 .30334474 .3919983 .27633668L.34700013 .09628296C.34298707 .08126831 .2999878 .011245728 .23399353 .011245728 .18299866 .011245728 .17199707 .055267335 .17199707 .0922699 .17199707 .1382904 .18899536 .20030213 .22299195 .28833009 .23899842 .3293457 .24299622 .3403473 .24299622 .36035157 .24299622 .405365 .21099854 .4423828 .16099549 .4423828 .06599426 .4423828 .0289917 .29733277 .0289917 .28833009 .0289917 .27833558 .038986207 .27833558 .040985109 .27833558 .050994874 .27833558 .051986696 .28033448 .056991579 .29634095 .083999637 .3903656 .12399292 .42037965 .1579895 .42037965 .1659851 .42037965 .18299866 .42037965 .18299866 .3883667 .18299866 .36335755 .17298889 .3373413 .1659851 .31834413 .12599182 .21231079 .10798645 .1552887 .10798645 .10827637 .10798645 .019256592 .17098999-.0107421879 .22999573-.0107421879 .2689972-.0107421879 .30299378 .0062561037 .33099366 .03425598 .31799317-.017745972 .30599977-.06674194 .2659912-.11973572 .23999024-.15385437 .20199585-.18309021 .1559906-.18309021 .14199829-.18309021 .09700012-.18005371 .07998657-.14074707 .09599304-.14074707 .10899353-.14074707 .12298584-.1287384 .1329956-.11973572 .14299011-.10673523 .14299011-.08773804 .14299011-.056747438 .115997318-.052734376 .10598755-.052734376 .08299255-.052734376 .049987794-.068740848 .049987794-.11773682 .049987794-.16796875 .09399414-.20507813 .1559906-.20507813 .25898744-.20507813 .3619995-.11373901 .3899994-.00074768069L.48599244 .38136292Z"/>
</defs>
<path transform="matrix(1.00003,0,0,-1.00006,2.4406586,166.72022)" stroke-width=".19925" stroke-linecap="butt" stroke-miterlimit="10" stroke-linejoin="miter" fill="none" stroke="#7f807f" d="M7.16013 79.46553V82.3002M29.65434 79.46553V82.3002M52.14856 79.46553V82.3002M74.64278 79.46553V82.3002M97.137 79.46553V82.3002M119.6312 79.46553V82.3002M142.12541 79.46553V82.3002M164.61963 79.46553V82.3002M187.11385 79.46553V82.3002"/>
<path transform="matrix(1.00003,0,0,-1.00006,2.4406586,166.72022)" stroke-width=".19925" stroke-linecap="butt" stroke-miterlimit="10" stroke-linejoin="miter" fill="none" stroke="#7f807f" d="M7.16013 78.75708V83.00867M52.14856 78.75708V83.00867M142.12541 78.75708V83.00867M187.11385 78.75708V83.00867"/>
<path transform="matrix(1.00003,0,0,-1.00006,2.4406586,166.72022)" stroke-width=".19925" stroke-linecap="butt" stroke-miterlimit="10" stroke-linejoin="miter" fill="none" stroke="#7f807f" d="M95.0111 .18468H99.26286M95.0111 40.53377H99.26286M95.0111 121.23195H99.26286M95.0111 161.58104H99.26286"/>
<path transform="matrix(1.00003,0,0,-1.00006,2.4406586,166.72022)" stroke-width=".3985" stroke-linecap="butt" stroke-miterlimit="10" stroke-linejoin="miter" fill="none" stroke="#000000" d="M0 80.88286H192.28145"/>
<path transform="matrix(1.00003,0,0,-1.00006,194.72789,85.832508)" d="M1.99252 0-1.19551 1.59401 0 0-1.19551-1.59401"/>
<path transform="matrix(1.00003,0,0,-1.00006,2.4406586,166.72022)" stroke-width=".3985" stroke-linecap="butt" stroke-miterlimit="10" stroke-linejoin="miter" fill="none" stroke="#000000" d="M97.137 .18468V159.58852"/>
<path transform="matrix(0,-1.00006,-1.00003,-0,99.580577,7.1221315)" d="M1.99252 0-1.19551 1.59401 0 0-1.19551-1.59401"/>
<use data-text="&#x2212;" xlink:href="#font_1_1" transform="matrix(9.962899,0,0,-9.963197,.21759033,97.899089)"/>
<use data-text="2" xlink:href="#font_2_3" transform="matrix(9.962899,0,0,-9.963197,7.9668276,97.899089)"/>
<use data-text="&#x03c0;" xlink:href="#font_3_1" transform="matrix(9.962899,0,0,-9.963197,12.947975,97.899089)"/>
<use data-text="&#x2212;" xlink:href="#font_1_1" transform="matrix(9.962899,0,0,-9.963197,47.698019,97.29005)"/>
<use data-text="&#x03c0;" xlink:href="#font_3_1" transform="matrix(9.962899,0,0,-9.963197,55.447256,97.29005)"/>
<use data-text="&#x03c0;" xlink:href="#font_3_1" transform="matrix(9.962899,0,0,-9.963197,141.55184,95.76796)"/>
<use data-text="2" xlink:href="#font_2_3" transform="matrix(9.962899,0,0,-9.963197,184.05112,97.899089)"/>
<use data-text="&#x03c0;" xlink:href="#font_3_1" transform="matrix(9.962899,0,0,-9.963197,189.03227,97.899089)"/>
<use data-text="&#x2212;" xlink:href="#font_1_1" transform="matrix(9.962899,0,0,-9.963197,76.22288,169.33037)"/>
<use data-text="1" xlink:href="#font_2_2" transform="matrix(9.962899,0,0,-9.963197,83.972118,169.33037)"/>
<use data-text="0" xlink:href="#font_2_1" transform="matrix(9.962899,0,0,-9.963197,88.95356,169.33037)"/>
<use data-text="&#x2212;" xlink:href="#font_1_1" transform="matrix(9.962899,0,0,-9.963197,81.204029,128.97896)"/>
<use data-text="5" xlink:href="#font_2_4" transform="matrix(9.962899,0,0,-9.963197,88.95326,128.97896)"/>
<use data-text="5" xlink:href="#font_2_4" transform="matrix(9.962899,0,0,-9.963197,88.95326,48.69113)"/>
<use data-text="1" xlink:href="#font_2_2" transform="matrix(9.962899,0,0,-9.963197,83.97111,8.339722)"/>
<use data-text="0" xlink:href="#font_2_1" transform="matrix(9.962899,0,0,-9.963197,88.95256,8.339722)"/>
<path transform="matrix(1.00003,0,0,-1.00006,2.4406586,166.72022)" stroke-width=".99628" stroke-linecap="butt" stroke-miterlimit="10" stroke-linejoin="miter" fill="none" stroke="#0000ff" d="M15.07072 158.2714 15.1889 156.90752 15.55635 153.01316 15.9238 149.44734 16.29124 146.15804 16.65869 143.11634 17.02614 140.28963 17.39359 137.66315 17.76103 135.20854 18.12848 132.91158 18.49593 130.75379 18.86337 128.72698 19.23082 126.81418 19.59827 125.00958 19.96571 123.30405 20.33316 121.68297 20.7006 120.14786 21.06805 118.68852 21.4355 117.29309 21.80295 115.9657 22.1704 114.6983 22.53784 113.48398 22.90529 112.3212 23.27274 111.20781 23.64018 110.13654 24.00761 109.10883 24.37506 108.11987 24.74251 107.16579 25.10995 106.24557 25.4774 105.35977 25.84485 104.50153 26.2123 103.6726 26.57974 102.87054 26.94719 102.09366 27.31464 101.33977 27.68208 100.60938 28.04953 99.89859 28.41698 99.21007 28.78442 98.53922 29.15187 97.88725 29.51932 97.25153 29.88676 96.63249 30.25421 96.0287 30.62166 95.44043 30.9891 94.86472 31.35655 94.30331 31.724 93.75423 32.09145 93.21678 32.4589 92.69142 32.82634 92.17625 33.19379 91.67271 33.56123 91.1781 33.92867 90.69344 34.29611 90.21796 34.66356 89.75119 35.031 89.29266 35.39845 88.84213 35.7659 88.39934 36.13335 87.96333 36.5008 87.53482 36.86824 87.11237 37.23569 86.69717 37.60313 86.28708 37.97058 85.88228 38.33803 85.48427 38.70547 85.09113 39.07292 84.70354 39.44037 84.32077 39.80782 83.9419 40.17526 83.56763 40.54271 83.19817 40.91016 82.83214 41.2776 82.46973 41.64505 82.1119 42.0125 81.75723 42.37994 81.40619 42.74739 81.05782 43.11484 80.71283 43.48228 80.37004 43.84972 80.03085 44.21716 79.69363 44.58461 79.35928 44.95206 79.02713 45.3195 78.69691 45.68695 78.36913 46.0544 78.04301 46.42184 77.7191 46.78929 77.39662 47.15674 77.07536 47.52419 76.75606 47.89163 76.43793 48.25908 76.12079 48.62653 75.80486 48.99397 75.49013 49.36142 75.17606 49.72887 74.86325 50.09631 74.55049 50.46376 74.23863 50.8312 73.92717 51.19865 73.61581 51.5661 73.30511 51.93356 72.99438 52.30098 72.68448 52.66844 72.37381 53.03586 72.06311 53.40332 71.75212 53.7708 71.44052 54.13821 71.12857 54.50568 70.8162 54.8731 70.5033 55.24055 70.18947 55.60803 69.87474 55.97543 69.55907 56.34291 69.24216 56.71033 68.92429 57.07779 68.6047 57.44525 68.28418 57.81267 67.96196 58.18015 67.63805 58.54756 67.31218 58.91504 66.98486 59.2825 66.65538 59.64992 66.3237 60.01738 65.98938 60.3848 65.65286 60.75227 65.31367 61.11974 64.97209 61.48715 64.62735 61.85461 64.27922 62.22203 63.92891 62.58951 63.57497 62.95697 63.2169 63.32439 62.8557 63.69185 62.49063 64.05927 62.12167 64.42673 61.74861 64.7942 61.3707 65.1616 60.98843 65.52908 60.60107 65.8965 60.2089 66.26396 59.81137 66.63144 59.4083 66.99884 58.99937 67.36632 58.58516 67.73372 58.16344 68.1012 57.73564 68.46866 57.30133 68.83607 56.86024 69.20354 56.41066 69.57095 55.9536 69.93843 55.48828 70.3059 55.01402 70.67331 54.53079 71.04077 54.03838 71.40819 53.53629 71.77565 53.02351 72.14313 52.49866 72.51054 51.96411 72.878 51.41673 73.24542 50.8575 73.61288 50.28519 73.98036 49.69884 74.34778 49.09723 74.71524 48.48085 75.08266 47.84827 75.45012 47.19849 75.81758 46.532 76.185 45.84515 76.55247 45.13922 76.91988 44.4115 77.28735 43.6634 77.65482 42.88968 78.02223 42.09174 78.38971 41.26692 78.75711 40.41452 79.12459 39.53351 79.49205 38.62035 79.85947 37.67207 80.22693 36.68867 80.59435 35.66704 80.96182 34.60426 81.32928 33.49689 81.6967 32.34601 82.06416 31.1384 82.43158 29.88023 82.79904 28.56375 83.16652 27.18161 83.53394 25.73242 83.9014 24.20917 84.26881 22.60555 84.63628 20.91403 85.00375 19.1264 85.37115 17.23349 85.73863 15.22697 86.10605 13.09146 86.47351 10.81992 86.84097 8.39265 87.20839 5.79498 87.57587 3.00655 87.59283 2.86786"/>
<path transform="matrix(-.08627259,-.99628975,-.9962599,.08627517,17.511832,8.439331)" d="M2.8892 0-1.73352 2.31136 0 0-1.73352-2.31136" fill="#0000ff"/>
<path transform="matrix(.12129364,.9926695,.9926398,-.12129727,90.03612,163.85218)" d="M2.8892 0-1.73352 2.31136 0 0-1.73352-2.31136" fill="#0000ff"/>
<path transform="matrix(1.00003,0,0,-1.00006,2.4406586,166.72022)" stroke-width=".99628" stroke-linecap="butt" stroke-miterlimit="10" stroke-linejoin="miter" fill="none" stroke="#0000ff" d="M105.04688 158.27783 105.16577 156.9012 105.5332 153.01682 105.90065 149.44734 106.2681 146.16069 106.63554 143.11634 107.00299 140.28963 107.37044 137.66123 107.73788 135.20854 108.10533 132.9094 108.47278 130.75379 108.84023 128.72527 109.20767 126.81418 109.57512 125.00958 109.94257 123.30185 110.31001 121.68297 110.67746 120.14786 111.0449 118.68756 111.41235 117.29382 111.7798 115.9657 112.14725 114.6983 112.5147 113.48398 112.88214 112.3212 113.24959 111.20851 113.61703 110.13727 113.98448 109.10883 114.35193 108.11868 114.71938 107.16602 115.08682 106.24655 115.45425 105.35977 115.8217 104.50275 116.18915 103.6726 116.5566 102.87054 116.92404 102.09296 117.29149 101.33977 117.65894 100.60863 118.02638 99.89957 118.39383 99.21007 118.76128 98.5397 119.12872 97.888 119.49617 97.25201 119.86362 96.63274 120.23106 96.0287 120.59851 95.43993 120.96597 94.86545 121.33342 94.30377 121.70087 93.75423 122.06831 93.21727 122.43576 92.69118 122.8032 92.17699 123.17065 91.67221 123.5381 91.17834 123.90555 90.69415 124.273 90.21796 124.64043 89.75119 125.00787 89.29266 125.37534 88.84213 125.74277 88.39934 126.11021 87.96333 126.47766 87.53482 126.84511 87.11237 127.21255 86.69693 127.58 86.28708 127.94745 85.88303 128.3149 85.48427 128.68235 85.09113 129.04979 84.70354 129.41724 84.32007 129.78469 83.9419 130.15213 83.56763 130.51958 83.19817 130.88703 82.83214 131.25447 82.4702 131.62192 82.1119 131.98937 81.75723 132.35681 81.40572 132.72426 81.05782 133.0917 80.71283 133.45915 80.37029 133.8266 80.03061 134.19405 79.69363 134.56148 79.35928 134.92893 79.0269 135.29637 78.69691 135.66382 78.36913 136.03127 78.04352 136.39871 77.7191 136.76616 77.39638 137.1336 77.07562 137.50106 76.75606 137.8685 76.43793 138.23595 76.12103 138.6034 75.80486 138.97084 75.49013 139.33829 75.17606 139.70574 74.86304 140.07318 74.55049 140.44063 74.23863 140.80808 73.92696 141.17552 73.6163 141.54297 73.30484 141.91043 72.99438 142.27785 72.68448 142.64531 72.37381 143.01273 72.06311 143.38019 71.75212 143.74767 71.44052 144.11508 71.12857 144.48255 70.8162 144.84996 70.50357 145.21743 70.18947 145.5849 69.87523 145.95232 69.55907 146.31978 69.2424 146.6872 68.92429 147.05466 68.6047 147.42212 68.28493 147.78954 67.96149 148.15702 67.63805 148.52442 67.31267 148.89189 66.98486 149.25936 66.65538 149.62677 66.3237 149.99425 65.98938 150.36165 65.65286 150.72913 65.31345 151.09659 64.97209 151.464 64.62735 151.83147 64.27971 152.19889 63.92891 152.56636 63.57472 152.93383 63.21764 153.30124 62.85594 153.6687 62.49063 154.03612 62.12167 154.40358 61.74861 154.77106 61.3702 155.13848 60.98843 155.50594 60.60107 155.87335 60.2089 156.24082 59.81184 156.60829 59.4083 156.9757 58.99937 157.34317 58.58466 157.71059 58.16391 158.07805 57.73611 158.44551 57.30133 158.81293 56.86024 159.1804 56.41066 159.5478 55.9536 159.91529 55.48828 160.28275 55.01402 160.65016 54.53079 161.01763 54.03789 161.38504 53.53555 161.75252 53.02325 162.11998 52.49963 162.4874 51.96411 162.85486 51.41747 163.22228 50.8575 163.58974 50.28519 163.95722 49.6981 164.32463 49.09747 164.6921 48.48062 165.05951 47.84827 165.42697 47.1987 165.79445 46.53125 166.16185 45.84515 166.52933 45.13922 166.89676 44.41197 167.26422 43.66245 167.63169 42.88968 167.9991 42.09174 168.36658 41.26718 168.73398 40.41498 169.10146 39.53351 169.46892 38.61815 169.83634 37.67207 170.2038 36.68723 170.57122 35.66725 170.93869 34.60374 171.30615 33.49667 171.67357 32.34404 172.04103 31.1384 172.40845 29.88194 172.77591 28.56375 173.14339 27.18018 173.5108 25.73317 173.87827 24.21014 174.24568 22.6058 174.61315 20.91283 174.98062 19.1264 175.34803 17.23349 175.7155 15.22697 176.08292 13.09244 176.45038 10.81992 176.81784 8.3963 177.18526 5.79498 177.55274 3.00508 177.56949 2.86847"/>
<path transform="matrix(-.086032588,-.9963197,-.9962899,.086035158,107.4907,8.432907)" d="M2.8892 0-1.73352 2.31136 0 0-1.73352-2.31136" fill="#0000ff"/>
<path transform="matrix(.121373649,.99263957,.9926098,-.12137728,180.01549,163.85158)" d="M2.8892 0-1.73352 2.31136 0 0-1.73352-2.31136" fill="#0000ff"/>
<path transform="matrix(1.00003,0,0,-1.00006,2.4406586,166.72022)" stroke-width=".3985" stroke-linecap="butt" stroke-dasharray="2.98883,2.98883" stroke-miterlimit="10" stroke-linejoin="miter" fill="none" stroke="#ff0000" d="M7.16013 .18468V161.58104"/>
<path transform="matrix(1.00003,0,0,-1.00006,2.4406586,166.72022)" stroke-width=".3985" stroke-linecap="butt" stroke-dasharray="2.98883,2.98883" stroke-miterlimit="10" stroke-linejoin="miter" fill="none" stroke="#ff0000" d="M97.137 .18468V161.58104"/>
<path transform="matrix(1.00003,0,0,-1.00006,2.4406586,166.72022)" stroke-width=".3985" stroke-linecap="butt" stroke-dasharray="2.98883,2.98883" stroke-miterlimit="10" stroke-linejoin="miter" fill="none" stroke="#ff0000" d="M187.11385 .18468V161.58104"/>
<use data-text="x" xlink:href="#font_3_2" transform="matrix(9.962899,0,0,-9.963197,187.50621,82.31216)"/>
<use data-text="y" xlink:href="#font_3_3" transform="matrix(9.962899,0,0,-9.963197,103.10068,12.938995)"/>
</svg>
