<svg xmlns="http://www.w3.org/2000/svg" xmlns:xlink="http://www.w3.org/1999/xlink" xmlns:inkscape="http://www.inkscape.org/namespaces/inkscape" version="1.1" width="295" height="152" viewBox="0 0 295 152">
<defs>
<path id="font_1_1" d="M.5059967 .37631227C.5119934 .39031983 .5159912 .3973236 .5799866 .3973236V.44433595C.5549927 .44232179 .526001 .44132997 .5009918 .44132997 .47599793 .44132997 .43099977 .44332887 .4099884 .44433595V.3973236C.42900086 .3973236 .45799256 .3943329 .45799256 .38632203 .45799256 .3853302 .45700074 .38331605 .45298768 .37431336L.33699037 .12416077 .20999146 .3973236H.2639923V.44433595C.23098755 .44232179 .14099121 .44132997 .13999939 .44132997 .11199951 .44132997 .066986087 .44332887 .025985718 .44433595V.3973236H.08999634L.2649994 .021087647C.2769928-.00390625 .2899933-.00390625 .30299378-.00390625 .31999208-.00390625 .32998658-.00091552737 .33999635 .020080567L.5059967 .37631227Z"/>
<path id="font_2_1" d="M.6589966 .23046875C.6759949 .23046875 .69400027 .23046875 .69400027 .25045777 .69400027 .27046205 .6759949 .27046205 .6589966 .27046205H.117996219C.100997928 .27046205 .08299255 .27046205 .08299255 .25045777 .08299255 .23046875 .100997928 .23046875 .117996219 .23046875H.6589966Z"/>
<path id="font_1_2" d="M.7369995 .37631227C.74198916 .389328 .74598696 .3973236 .8049927 .3973236V.44433595C.7819977 .44232179 .7519989 .44132997 .7279968 .44132997 .70098879 .44132997 .6539917 .44332887 .6319885 .44433595V.3973236C.6409912 .3973236 .6899872 .3963318 .6899872 .3853302 .6899872 .38232423 .68699648 .37631227 .6859894 .37332154L.58099368 .11715698 .46699525 .3973236H.522995V.44433595C.4909973 .44332887 .43899537 .44132997 .40899659 .44132997 .36698915 .44132997 .32499696 .44332887 .30899049 .44433595V.3973236H.36799623C.3889923 .3473053 .3889923 .34529115 .3889923 .34429933 .3889923 .34028626 .38598634 .33428956 .3849945 .33128358L.30599977 .13916016 .20098877 .3973236H.25698854V.44433595C.21598816 .44232179 .1749878 .44132997 .13398743 .44132997 .102996829 .44132997 .05899048 .44332887 .024993897 .44433595V.3973236H.083999637L.23699951 .023086548C.24398804 .006088257 .24798584-.00390625 .272995-.00390625 .2979889-.00390625 .3019867 .006088257 .30899049 .023086548L.4149933 .28225709 .5209961 .023086548C.5279999 .006088257 .5319977-.00390625 .5569916-.00390625 .58200076-.00390625 .58599856 .006088257 .59298709 .023086548L.7369995 .37631227Z"/>
<path id="font_3_1" d="M.33099366-.2400055C.33099366-.23701477 .33099366-.23500061 .31399537-.21800232 .18899536-.0920105 .15699768 .09700012 .15699768 .25 .15699768 .42399598 .19499207 .59799197 .31799317 .72299197 .33099366 .73498538 .33099366 .7369995 .33099366 .73999026 .33099366 .746994 .32699586 .75 .32099916 .75 .31098939 .75 .22099304 .6819916 .1619873 .5549927 .11099243 .44499208 .09899902 .33399964 .09899902 .25 .09899902 .17199707 .10998535 .050994874 .16499329-.06201172 .22499085-.18501282 .31098939-.25 .32099916-.25 .32699586-.25 .33099366-.24700928 .33099366-.2400055Z"/>
<path id="font_3_2" d="M.2889862 .25C.2889862 .32798768 .27799989 .44898988 .22299195 .56199648 .16299439 .68499758 .07699585 .75 .066986087 .75 .06098938 .75 .056991579 .74598696 .056991579 .73999026 .056991579 .7369995 .056991579 .73498538 .07598877 .71699526 .17399597 .6179962 .23098755 .45899964 .23098755 .25 .23098755 .07899475 .19400025-.09700012 .069992069-.2230072 .056991579-.23500061 .056991579-.23701477 .056991579-.2400055 .056991579-.2460022 .06098938-.25 .066986087-.25 .07699585-.25 .16699219-.18200684 .22599793-.055007936 .2769928 .054992677 .2889862 .16600037 .2889862 .25Z"/>
<path id="font_3_3" d="M.40899659 .23046875H.6879883C.70199587 .23046875 .72099307 .23046875 .72099307 .25045777 .72099307 .27046205 .70199587 .27046205 .6879883 .27046205H.40899659V.5500183C.40899659 .56399539 .40899659 .5830078 .3889923 .5830078 .36898805 .5830078 .36898805 .56399539 .36898805 .5500183V.27046205H.08898926C.07499695 .27046205 .055999757 .27046205 .055999757 .25045777 .055999757 .23046875 .07499695 .23046875 .08898926 .23046875H.36898805V-.05000305C.36898805-.06401062 .36898805-.08300781 .3889923-.08300781 .40899659-.08300781 .40899659-.06401062 .40899659-.05000305V.23046875Z"/>
<path id="font_4_111" d="M.7299957 .6516113V.6826172C.69898989 .680603 .6589966 .6796112 .6329956 .6796112L.5189972 .6826172V.6516113C.57099917 .6506195 .59199526 .6246033 .59199526 .6016083 .59199526 .5936127 .58898928 .5876007 .58699038 .581604L.4039917 .09954834 .21299744 .60461428C.20698548 .61860659 .20698548 .62260439 .20698548 .62260439 .20698548 .6516113 .2639923 .6516113 .2889862 .6516113V.6826172C.25299073 .6796112 .18399048 .6796112 .1459961 .6796112L.018997193 .6826172V.6516113C.083999637 .6516113 .102996829 .6516113 .116989139 .6136017L.34899903-.00047302247C.35598756-.019470215 .36099244-.022460938 .37399293-.022460938 .3909912-.022460938 .3929901-.017471314 .397995-.0034637452L.62098696 .58461C.6349945 .62161257 .6619873 .6506195 .7299957 .6516113Z"/>
<path id="font_4_50" d="M.4149933 .11933899C.4149933 .12934876 .40699769 .13134766 .4019928 .13134766 .3929901 .13134766 .3909912 .12535095 .3889923 .11734009 .35398866 .014251709 .2639923 .014251709 .2539978 .014251709 .20399475 .014251709 .1639862 .044281007 .14099121 .08131409 .11099243 .12934876 .11099243 .19540406 .11099243 .23144531H.3899994C.4119873 .23144531 .4149933 .23144531 .4149933 .2524414 .4149933 .35131837 .36099244 .4482422 .23599243 .4482422 .11999512 .4482422 .027999878 .34532167 .027999878 .22042847 .027999878 .08631897 .1329956-.0107421879 .24798584-.0107421879 .36999513-.0107421879 .4149933 .10032654 .4149933 .11933899M.34899903 .2524414H.11199951C.117996219 .40126039 .20199585 .426239 .23599243 .426239 .33898927 .426239 .34899903 .2913971 .34899903 .2524414Z"/>
<path id="font_4_72" d="M.25498963 0V.0309906C.18798828 .0309906 .1769867 .0309906 .1769867 .07601929V.69433596L.032989503 .6826172V.6516113C.102996829 .6516113 .11099243 .64460757 .11099243 .5956421V.07595825C.11099243 .0309906 .099990848 .0309906 .032989503 .0309906V0L.14399719 .0029907227 .25498963 0Z"/>
<path id="font_4_81" d="M.47099305 .21424866C.47099305 .34223939 .37098695 .4482422 .25 .4482422 .125 .4482422 .027999878 .3392334 .027999878 .21424866 .027999878 .085250858 .13198853-.0107421879 .24899292-.0107421879 .36999513-.0107421879 .47099305 .087249759 .47099305 .21424866M.3880005 .22224427C.3880005 .18624878 .3880005 .13224793 .3659973 .08824158 .34399415 .04324341 .2999878 .014251709 .25 .014251709 .20698548 .014251709 .16299439 .035247804 .13598633 .08125305 .11099243 .12524414 .11099243 .18624878 .11099243 .22224427 .11099243 .26124574 .11099243 .31523133 .1349945 .35923768 .1619873 .40522767 .20899964 .426239 .24899292 .426239 .29299928 .426239 .33599855 .40423585 .3619995 .36123658 .3880005 .3182373 .3880005 .26023866 .3880005 .22224427Z"/>
<path id="font_4_43" d="M.4149933 .119140628C.4149933 .12911988 .40499879 .12911988 .4019928 .12911988 .3929901 .12911988 .3909912 .12512207 .3889923 .119140628 .3600006 .026229859 .29499818 .014251709 .2579956 .014251709 .20498657 .014251709 .116989139 .0572052 .116989139 .21801758 .116989139 .38093568 .19898987 .42323304 .2519989 .42323304 .26098634 .42323304 .32398988 .42222596 .35899354 .38594056 .31799317 .38293458 .31199647 .3529358 .31199647 .3399353 .31199647 .31393434 .32998658 .2939453 .35798646 .2939453 .38398744 .2939453 .4039917 .3109436 .4039917 .34094239 .4039917 .40911866 .32798768 .4482422 .25099183 .4482422 .12599182 .4482422 .033996583 .3399353 .033996583 .21601868 .033996583 .08816528 .1329956-.0107421879 .24899292-.0107421879 .3829956-.0107421879 .4149933 .10914612 .4149933 .119140628Z"/>
<path id="font_4_66" d="M.24699402 0V.0309906C.18099976 .0309906 .1769867 .035995485 .1769867 .075042728V.4423828L.036987306 .43066407V.3996582C.101989749 .3996582 .11099243 .3936615 .11099243 .3447113V.07595825C.11099243 .0309906 .099990848 .0309906 .032989503 .0309906V0L.14299011 .0029907227C.17799378 .0029907227 .21299744 .0009918213 .24699402 0M.19198609 .603775C.19198609 .6307678 .16899109 .6567688 .13899231 .6567688 .10499573 .6567688 .084991458 .6287689 .084991458 .603775 .084991458 .57676699 .10798645 .55078127 .13798523 .55078127 .17199707 .55078127 .19198609 .5787811 .19198609 .603775Z"/>
<path id="font_4_105" d="M.33198548 .12385559V.18066406H.30699159V.12585449C.30699159 .052108766 .2769928 .014251709 .23999024 .014251709 .17298889 .014251709 .17298889 .10491943 .17298889 .12187195V.3996582H.31599427V.43066407H.17298889V.6142578H.147995C.14698792 .5324249 .116989139 .42565919 .018997193 .42166139V.3996582H.10398865V.12408447C.10398865 .0012512207 .19699097-.0107421879 .23298645-.0107421879 .3039856-.0107421879 .33198548 .060180665 .33198548 .12408447V.12385559Z"/>
<path id="font_4_118" d="M.5079956 .3996582V.43066407C.4850006 .4286499 .45599366 .42765809 .43299867 .42765809L.34599305 .43066407V.3996582C.3769989 .39866639 .3929901 .3816681 .3929901 .35668946 .3929901 .34669496 .3919983 .34469605 .3869934 .33270265L.28599549 .08685303 .1749878 .35568238C.17098999 .36567689 .16899109 .36967469 .16899109 .3736725 .16899109 .3996582 .20599365 .3996582 .22499085 .3996582V.43066407L.115997318 .42765809C.08898926 .42765809 .04899597 .4286499 .018997193 .43066407V.3996582C.066986087 .3996582 .085998538 .3996582 .099990848 .36468507L.25-.000091552738 .22499085-.059066774C.20298767-.11407471 .1749878-.18309021 .11099243-.18309021 .10598755-.18309021 .08299255-.18309021 .06399536-.16503906 .09498596-.16104126 .102996829-.13905335 .102996829-.123046878 .102996829-.0970459 .083999637-.08103943 .06098938-.08103943 .040985109-.08103943 .018997193-.09403992 .018997193-.124053958 .018997193-.16905213 .06098938-.20507813 .11099243-.20507813 .17399597-.20507813 .21499634-.14804077 .23899842-.091049198L.4149933 .33569337C.44099427 .39865113 .49198915 .3996582 .5079956 .3996582Z"/>
<path id="font_4_55" d="M.35699464 .63479617C.35699464 .6717987 .31999208 .7050781 .2669983 .7050781 .19699097 .7050781 .11199951 .65179446 .11199951 .5457611V.43066407H.032989503V.3996582H.11199951V.07595825C.11199951 .0309906 .100997928 .0309906 .033996583 .0309906V0L.147995 .0029907227C.18798828 .0029907227 .23498535 .0029907227 .2749939 0V.0309906H.2539978C.17999268 .0309906 .17799378 .04197693 .17799378 .07795715V.3996582H.2919922V.43066407H.1749878V.5467529C.1749878 .63479617 .22299195 .68307498 .2669983 .68307498 .269989 .68307498 .2849884 .68307498 .2999878 .675827 .28799439 .6717987 .269989 .6587982 .269989 .6338043 .269989 .61079409 .28599549 .5907898 .31298829 .5907898 .34199525 .5907898 .35699464 .61079409 .35699464 .63479617Z"/>
<path id="font_4_42" d="M.6649933 .23271179C.6649933 .24272156 .6649933 .24972534 .6519928 .24972534 .6409912 .24972534 .6409912 .24372864 .6399994 .23371887 .6319885 .09059143 .5249939 .008529663 .41600038 .008529663 .35499574 .008529663 .15899658 .042556764 .15899658 .34080506 .15899658 .64004519 .35398866 .67407229 .4149933 .67407229 .5239868 .67407229 .61299136 .58299258 .6329956 .4368744 .6349945 .42286683 .6349945 .41986085 .6489868 .41986085 .6649933 .41986085 .6649933 .42286683 .6649933 .44387818V.68107607C.6649933 .69807437 .6649933 .7050781 .6539917 .7050781 .6499939 .7050781 .6459961 .7050781 .6380005 .69306948L.58799746 .61901858C.5509949 .6550598 .5 .7050781 .4039917 .7050781 .21699524 .7050781 .055999757 .5459595 .055999757 .34179688 .055999757 .1346283 .21798706-.022460938 .4039917-.022460938 .5669861-.022460938 .6649933 .116622928 .6649933 .23271179Z"/>
<path id="font_4_28" d="M.48298646 .08912659V.14511109H.45799256V.08912659C.45799256 .03112793 .43299867 .025131226 .42199708 .025131226 .3889923 .025131226 .3849945 .070129398 .3849945 .07511902V.27508546C.3849945 .31707765 .3849945 .3560791 .34899903 .39312745 .30999757 .43223573 .2599945 .4482422 .21199036 .4482422 .12998963 .4482422 .06098938 .40115357 .06098938 .335083 .06098938 .30508424 .08099365 .28808595 .10699463 .28808595 .1349945 .28808595 .15299988 .30807496 .15299988 .33407594 .15299988 .3460846 .147995 .37908937 .101989749 .38008119 .1289978 .41519166 .17799378 .426239 .20999146 .426239 .25898744 .426239 .31599427 .38710023 .31599427 .29808045V.26107789C.2649994 .25808717 .19499207 .25508119 .13198853 .22509766 .056991579 .19110108 .03199768 .13911438 .03199768 .09512329 .03199768 .014251709 .1289978-.0107421879 .19198609-.0107421879 .2579956-.0107421879 .3039856 .029251099 .32299806 .07624817 .32699586 .036132814 .35398866-.005859375 .40098573-.005859375 .42199708-.005859375 .48298646 .008132935 .48298646 .08912659M.31599427 .14013672C.31599427 .04525757 .24398804 .011245728 .19898987 .011245728 .1499939 .011245728 .10899353 .04624939 .10899353 .09625244 .10899353 .15124512 .15098572 .23425293 .31599427 .24024964V.14013672Z"/>
<path id="font_4_77" d="M.5349884 0V.0309906C.48298646 .0309906 .45799256 .0309906 .45700074 .061019899V.25221253C.45700074 .3383026 .45700074 .36932374 .42599488 .405365 .4119873 .42237855 .3789978 .4423828 .32099916 .4423828 .24798584 .4423828 .20098877 .39935304 .17298889 .33729554V.4423828L.03199768 .43066407V.3996582C.101989749 .3996582 .10998535 .39266969 .10998535 .34370423V.07595825C.10998535 .0309906 .09899902 .0309906 .03199768 .0309906V0L.14498902 .0029907227 .25698854 0V.0309906C.18998719 .0309906 .1789856 .0309906 .1789856 .07595825V.25978089C.1789856 .36431886 .25 .42037965 .31399537 .42037965 .3769989 .42037965 .3880005 .36631776 .3880005 .30926515V.076034549C.3880005 .0309906 .3769989 .0309906 .30999757 .0309906V0L.4229889 .0029907227 .5349884 0Z"/>
<path id="font_4_56" d="M.44898988 .20091248C.44898988 .31991578 .36698915 .41992188 .25898744 .41992188 .21099854 .41992188 .16799927 .4039154 .13198853 .36891175V.5641022C.1519928 .55778506 .18499756 .55078127 .21699524 .55078127 .33999635 .55078127 .4099884 .6418457 .4099884 .65493777 .4099884 .6609802 .40699769 .6660156 .3999939 .6660156 .3999939 .66607668 .39698792 .66607668 .3919983 .66308596 .37199403 .65408328 .32299806 .63378909 .2559967 .63378909 .21598816 .63409426 .16999817 .641098 .12298584 .6621094 .114990238 .6651001 .11099243 .6651001 .11099243 .6651001 .100997928 .66508486 .100997928 .657074 .100997928 .64108279V.3447113C.100997928 .3266449 .100997928 .31861878 .114990238 .31861878 .12199402 .31861878 .12399292 .32164 .12799073 .32765199 .13899231 .34371949 .17599488 .3979187 .25698854 .3979187 .30899049 .3979187 .33399964 .3517456 .34199525 .3336792 .35798646 .2965393 .3600006 .2574005 .3600006 .20721436 .3600006 .17218018 .3600006 .112197879 .33599855 .07032776 .31199647 .031448366 .2749939 .0055389406 .22898865 .0055389406 .1559906 .0055389406 .09899902 .05836487 .08198547 .1171875 .084991458 .11685181 .08799744 .115859989 .09899902 .115859989 .13198853 .115859989 .14898682 .14085388 .14898682 .16485596 .14898682 .18885803 .13198853 .21386719 .09899902 .21386719 .084991458 .21386719 .049987794 .2068634 .049987794 .16085816 .049987794 .07432556 .11898804-.022460938 .23098755-.022460938 .34700013-.022460938 .44898988 .07331848 .44898988 .20019531V.20091248Z"/>
<path id="font_4_70" d="M.5109863 0V.0309906C.47399903 .0309906 .45199586 .0309906 .4139862 .0839386L.2869873 .26278688C.28599549 .26478578 .2809906 .2707672 .2809906 .2737732 .2809906 .277771 .35198976 .33770753 .3619995 .34570313 .4249878 .39666749 .46699525 .39865113 .48799134 .3996582V.43066407C.45899964 .42765809 .44599916 .42765809 .41799928 .42765809 .38198854 .42765809 .31999208 .42965699 .30599977 .43066407V.3996582C.32499696 .39865113 .33499146 .3876648 .33499146 .37467958 .33499146 .3547058 .32099916 .3427124 .31298829 .33570863L.17199707 .21382141V.69433596L.027999878 .6826172V.6516113C.09799194 .6516113 .10598755 .64460757 .10598755 .5956421V.07595825C.10598755 .0309906 .09498596 .0309906 .027999878 .0309906V0L.13699341 .0029907227 .24699402 0V.0309906C.17999268 .0309906 .16899109 .0309906 .16899109 .07595825V.17889405L.23298645 .23387146C.30999757 .12792969 .35198976 .07196045 .35198976 .053985597 .35198976 .034988405 .33499146 .0309906 .31599427 .0309906V0L.42399598 .0029907227C.45298768 .0029907227 .48199464 .0019989014 .5109863 0Z"/>
<path id="font_4_98" d="M.3600006 .12823487C.3600006 .18122864 .32998658 .21122742 .31799317 .22323609 .2849884 .25523377 .24598694 .26322938 .20399475 .27124024 .147995 .28224183 .08099365 .29522706 .08099365 .35324098 .08099365 .38822938 .10699463 .42922975 .19299317 .42922975 .30299378 .42922975 .30799867 .3392334 .30999757 .30822755 .31098939 .2992401 .32199098 .2992401 .32199098 .2992401 .33499146 .2992401 .33499146 .30422975 .33499146 .32322694V.4242401C.33499146 .4412384 .33499146 .4482422 .32398988 .4482422 .31900025 .4482422 .31698609 .4482422 .3039856 .43623353 .30099488 .43223573 .29100038 .42323304 .2869873 .42022706 .24899292 .4482422 .20799256 .4482422 .19299317 .4482422 .070999149 .4482422 .032989503 .38124085 .032989503 .3252411 .032989503 .29023744 .04899597 .26223756 .07598877 .24023438 .10798645 .2142334 .13598633 .2082367 .20799256 .19422913 .22999573 .19021607 .31199647 .17422486 .31199647 .10221863 .31199647 .051223756 .2769928 .011245728 .19898987 .011245728 .114990238 .011245728 .07899475 .068222049 .05999756 .1532135 .056991579 .16621399 .055999757 .17021179 .04598999 .17021179 .032989503 .17021179 .032989503 .16322327 .032989503 .1452179V.013214111C.032989503-.003753662 .032989503-.0107421879 .04399109-.0107421879 .04899597-.0107421879 .049987794-.009750366 .068984989 .009246826 .070999149 .011245728 .070999149 .013214111 .08898926 .032226564 .1329956-.009750366 .17799378-.0107421879 .19898987-.0107421879 .31399537-.0107421879 .3600006 .05621338 .3600006 .1282196V.12823487Z"/>
<path id="font_4_63" d="M.5349884 0V.0309906C.48298646 .0309906 .45799256 .0309906 .45700074 .061019899V.25221253C.45700074 .3383026 .45700074 .36932374 .42599488 .405365 .4119873 .42237855 .3789978 .4423828 .32099916 .4423828 .23699951 .4423828 .19299317 .38233949 .1769867 .34629823H.17599488V.69433596L.03199768 .6826172V.6516113C.101989749 .6516113 .10998535 .64463809 .10998535 .59580996V.076034549C.10998535 .0309906 .09899902 .0309906 .03199768 .0309906V0L.14498902 .0029907227 .25698854 0V.0309906C.18998719 .0309906 .1789856 .0309906 .1789856 .076034549V.2602234C.1789856 .36431886 .25 .42037965 .31399537 .42037965 .3769989 .42037965 .3880005 .36631776 .3880005 .30926515V.076034549C.3880005 .0309906 .3769989 .0309906 .30999757 .0309906V0L.4229889 .0029907227 .5349884 0Z"/>
<path id="font_4_47" d="M.5269928 0V.0309906C.45700074 .0309906 .44898988 .038009645 .44898988 .0871582V.69433596L.30499269 .6826172V.6516113C.375 .6516113 .3829956 .64463809 .3829956 .59580996V.38035584C.35398866 .41636659 .31098939 .4423828 .25698854 .4423828 .13899231 .4423828 .033996583 .3443451 .033996583 .21531677 .033996583 .088272098 .13198853-.0107421879 .24598694-.0107421879 .30999757-.0107421879 .35499574 .023254395 .37998963 .055267335V-.0107421879L.5269928 0M.37998963 .117996219C.37998963 .099990848 .37998963 .09799194 .36898805 .08099365 .33898927 .033218385 .2939911 .011245728 .25099183 .011245728 .20599365 .011245728 .16999817 .037216188 .1459961 .075164798 .11999512 .1161499 .116989139 .17320252 .116989139 .21421814 .116989139 .25125123 .11898804 .31129457 .147995 .35632325 .16899109 .38734437 .20698548 .42037965 .26098634 .42037965 .29599 .42037965 .33799745 .405365 .36898805 .3603363 .37998963 .34332276 .37998963 .34132386 .37998963 .32330323V.117996219Z"/>
<path id="font_4_114" d="M.7029877 .3996582V.43066407C.68099978 .4286499 .6519928 .42765809 .6299896 .42765809L.5369873 .43066407V.3996582C.57299807 .39866639 .59498599 .38075257 .59498599 .35176087 .59498599 .34576417 .59498599 .34376527 .58999636 .33078004L.49899293 .07513428 .3999939 .35375978C.3959961 .36575318 .394989 .36775209 .394989 .37275697 .394989 .3996582 .43399049 .3996582 .45399476 .3996582V.43066407L.34999085 .42765809C.31999208 .42765809 .29100038 .4286499 .26098634 .43066407V.3996582C.2979889 .3996582 .31399537 .39767457 .32398988 .38476563 .32899476 .37875367 .33999635 .34877015 .34700013 .3297882L.26098634 .08811951 .1659851 .3547516C.16099549 .36676026 .16099549 .36875917 .16099549 .37275697 .16099549 .3996582 .19999695 .3996582 .21998596 .3996582V.43066407L.11099243 .42765809 .017990113 .43066407V.3996582C.067993167 .3996582 .07998657 .39668275 .09199524 .36476136L.21798706 .01121521C.22299195-.0027618409 .22599793-.0107421879 .23899842-.0107421879 .2519989-.0107421879 .2539978-.004760742 .25898744 .009216309L.3600006 .2918396 .46199037 .008224487C.46598817-.0027618409 .46899415-.0107421879 .48199464-.0107421879 .49499513-.0107421879 .49798585-.0017547608 .5019989 .008224487L.61898806 .3357849C.6369934 .38575746 .66799929 .39866639 .7029877 .3996582Z"/>
<path id="font_4_64" d="M.27598573 .18710327V.24511719H.010986328V.18710327H.27598573Z"/>
<path id="font_4_104" d="M.68499758 .45214845 .66600039 .6767578H.054992677L.035995485 .45214845H.06098938C.07499695 .6128235 .08999634 .64575198 .24099732 .64575198 .25898744 .64575198 .2849884 .64575198 .29499818 .64375308 .31599427 .6397705 .31599427 .6287842 .31599427 .60583499V.07901001C.31599427 .04499817 .31599427 .0309906 .21099854 .0309906H.17098999V0C.21199036 .0029907227 .31399537 .0029907227 .3600006 .0029907227 .4059906 .0029907227 .5089874 .0029907227 .5499878 0V.0309906H.5099945C.40499879 .0309906 .40499879 .04499817 .40499879 .07901001V.60583499C.40499879 .62579348 .40499879 .6397705 .4229889 .64375308 .43399049 .64575198 .46099855 .64575198 .47999574 .64575198 .6309967 .64575198 .6459961 .6128235 .6599884 .45214845H.68499758Z"/>
<path id="font_4_96" d="M.3639984 .38137818C.3639984 .41337586 .33299256 .4423828 .2899933 .4423828 .21699524 .4423828 .18099976 .37538148 .16699219 .3323822V.4423828L.027999878 .43066407V.3996582C.09799194 .3996582 .10598755 .39266969 .10598755 .34370423V.07595825C.10598755 .0309906 .09498596 .0309906 .027999878 .0309906V0L.14199829 .0029907227C.18199158 .0029907227 .22898865 .0029907227 .2689972 0V.0309906H.24798584C.17399597 .0309906 .17199707 .04197693 .17199707 .07795715V.23181153C.17199707 .33137513 .21398926 .42037965 .2899933 .42037965 .29699708 .42037965 .29899598 .42037965 .30099488 .41937257 .2979889 .41838075 .27799989 .40637208 .27799989 .3803711 .27799989 .35237123 .29899598 .33737184 .32099916 .33737184 .33898927 .33737184 .3639984 .3493805 .3639984 .38137818Z"/>
<path id="font_4_109" d="M.5349884 0V.0309906C.46499635 .0309906 .45700074 .037994386 .45700074 .08705139V.4423828L.30999757 .43066407V.3996582C.37998963 .3996582 .3880005 .39266969 .3880005 .34373475V.16601563C.3880005 .07910156 .33999635 .011245728 .2669983 .011245728 .18299866 .011245728 .1789856 .058135988 .1789856 .11009216V.4423828L.03199768 .43066407V.3996582C.10998535 .3996582 .10998535 .39666749 .10998535 .3078003V.15802002C.10998535 .080093387 .10998535-.0107421879 .2619934-.0107421879 .31799317-.0107421879 .3619995 .017242432 .3909912 .07910156V-.0107421879L.5349884 0Z"/>
<path id="font_4_113" d="M1.0089874 .6516113V.6826172C.97898867 .680603 .94799807 .6796112 .91799929 .6796112L.798996 .6826172V.6516113C.8659973 .65060427 .8860016 .6174164 .8860016 .5983734 .8860016 .59236147 .8829956 .58436587 .8809967 .57836917L.73098757 .116363529 .57099917 .606369C.56999209 .6103668 .56799319 .6164093 .56799319 .62142947 .56799319 .6516113 .6259918 .6516113 .6519928 .6516113V.6826172C.6159973 .6796112 .5479889 .6796112 .5099945 .6796112L.3880005 .6826172V.6516113C.44499208 .6516113 .46598817 .6516113 .47799684 .61595156L.5 .5459595 .36099244 .11695862 .19999695 .60894778C.19898987 .61195376 .19799805 .618927 .19799805 .62190249 .19799805 .6516113 .2559967 .6516113 .28199769 .6516113V.6826172C.24598694 .6796112 .17799378 .6796112 .13999939 .6796112L.017990113 .6826172V.6516113C.09298706 .6513672 .09700012 .6463623 .10899353 .609375L.30899049-.003479004C.31199647-.012466431 .31498719-.022460938 .32798768-.022460938 .34199525-.022460938 .34399415-.015472412 .34799195-.0024719239L.5130005 .50538638 .67900088-.003479004C.6819916-.012466431 .68499758-.022460938 .69799807-.022460938 .71199038-.022460938 .71398928-.015472412 .71798709-.0024719239L.9089966 .58496096C.9269867 .6417084 .9700012 .6516113 1.0089874 .6516113Z"/>
<path id="font_4_27" d="M.71699526 0V.0309906H.69898989C.6389923 .0309906 .625 .037979127 .6139984 .07095337L.397995 .6958008C.3929901 .7088165 .3909912 .7158203 .375 .7158203 .35899354 .7158203 .35598756 .70980837 .35099793 .6958008L.14399719 .09791565C.12599182 .04698181 .085998538 .03199768 .03199768 .0309906V0L.13398743 .0029907227 .24899292 0V.0309906C.19898987 .0309906 .17399597 .05596924 .17399597 .0819397 .17399597 .08493042 .1749878 .09492493 .17599488 .09692383L.22200012 .2277832H.46899415L.5219879 .07495117C.522995 .07095337 .5249939 .064956668 .5249939 .060958864 .5249939 .0309906 .46899415 .0309906 .44198609 .0309906V0C.47799684 .0029907227 .5479889 .0029907227 .58599856 .0029907227L.71699526 0M.45799256 .25878907H.23298645L.34498597 .58380129 .45799256 .25878907Z"/>
<path id="font_4_84" d="M.5209961 .21636963C.5209961 .34336854 .42399598 .4423828 .31199647 .4423828 .23399353 .4423828 .19198609 .39837647 .17199707 .3763733V.4423828L.027999878 .43066407V.3996582C.09899902 .3996582 .10598755 .3936615 .10598755 .34973146V-.117996219C.10598755-.16308594 .09498596-.16308594 .027999878-.16308594V-.1940918L.13999939-.19110108 .25299073-.1940918V-.16308594C.18598938-.16308594 .1749878-.16308594 .1749878-.117996219V.050186159 .059173585C.17999268 .04319763 .22200012-.0107421879 .2979889-.0107421879 .4169922-.0107421879 .5209961 .087127689 .5209961 .21594239V.21636963M.43798829 .21594239C.43798829 .09512329 .36799623 .011245728 .2939911 .011245728 .2539978 .011245728 .21598816 .031219483 .18899536 .07215881 .1749878 .09312439 .1749878 .09411621 .1749878 .114089969V.33674623C.20399475 .38838197 .25299073 .41737367 .3039856 .41737367 .3769989 .41737367 .43798829 .32937623 .43798829 .21636963V.21594239Z"/>
<path id="font_4_89" d="M.72099307 .25045777C.72099307 .27046205 .70199587 .27046205 .6879883 .27046205H.40899659V.5500488C.40899659 .5640259 .40899659 .5830078 .3889923 .5830078 .36898805 .5830078 .36898805 .5640259 .36898805 .5500488V.27046205H.08898926C.07499695 .27046205 .055999757 .27046205 .055999757 .25045777 .055999757 .23046875 .07499695 .23046875 .08898926 .23046875H.36898805V-.049972536C.36898805-.0639801 .36898805-.08300781 .3889923-.08300781 .40899659-.08300781 .40899659-.0639801 .40899659-.049972536V.23046875H.6879883C.70199587 .23046875 .72099307 .23046875 .72099307 .25045777Z"/>
<path id="font_4_52" d="M.72099307 .34713746C.72099307 .36714173 .70199587 .36714173 .6879883 .36714173H.08898926C.07499695 .36714173 .055999757 .36714173 .055999757 .34713746 .055999757 .32714845 .07499695 .32714845 .08999634 .32714845H.68699648C.70199587 .32714845 .72099307 .32714845 .72099307 .34713746M.72099307 .15284729C.72099307 .17285156 .70199587 .17285156 .68699648 .17285156H.08999634C.07499695 .17285156 .055999757 .17285156 .055999757 .15284729 .055999757 .13284302 .07499695 .13284302 .08898926 .13284302H.6879883C.70199587 .13284302 .72099307 .13284302 .72099307 .15284729Z"/>
<path id="font_4_121" d="M.45999146 .31976319C.45999146 .39982606 .45498658 .47988893 .41999818 .5539398 .37399293 .65000918 .2919922 .6660156 .25 .6660156 .18998719 .6660156 .116989139 .64001467 .07598877 .54693606 .04399109 .47789 .038986207 .39982606 .038986207 .31976319 .038986207 .24472046 .042999269 .15464783 .083999637 .07859802 .1269989-.0024719239 .19999695-.022460938 .24899292-.022460938 .30299378-.022460938 .3789978-.0014648438 .4229889 .09359741 .45498658 .16265869 .45999146 .2407074 .45999146 .31976319M.3769989 .3317871C.3769989 .25672914 .3769989 .18867493 .3659973 .12461853 .35099793 .029556275 .2939911-.00047302247 .24899292-.00047302247 .20999146-.00047302247 .15098572 .024551392 .1329956 .12062073 .12199402 .18066406 .12199402 .2727356 .12199402 .3317871 .12199402 .39582826 .12199402 .46188355 .12998963 .5159149 .14898682 .63500979 .22399903 .64401248 .24899292 .64401248 .28199769 .64401248 .34799195 .6259918 .36698915 .52693179 .3769989 .47088624 .3769989 .39482118 .3769989 .3317871Z"/>
</defs>
<path transform="matrix(1.00008,0,0,-1.00003,1.8937149,147.19007)" stroke-width="1.99255" stroke-linecap="butt" stroke-miterlimit="10" stroke-linejoin="miter" fill="none" stroke="#ff0000" d="M0 127.56062H66.48337"/>
<path transform="matrix(1.00008,0,0,-1.00003,68.3824,19.62561)" d="M4.38364 0-2.63017 3.50691 0 0-2.63017-3.50691" fill="#ff0000"/>
<use data-text="v" xlink:href="#font_1_1" transform="matrix(9.963397,0,0,-9.962899,34.227304,15.309097)"/>
<path transform="matrix(1.00008,0,0,-1.00003,1.8937149,147.19007)" stroke-width="1.99255" stroke-linecap="butt" stroke-miterlimit="10" stroke-linejoin="miter" fill="none" stroke="#0000ff" d="M70.867 85.04042H4.38364"/>
<path transform="matrix(-1.00008,-0,0,1.00003,6.277705,62.147089)" d="M4.38364 0-2.63017 3.50691 0 0-2.63017-3.50691" fill="#0000ff"/>
<use data-text="&#x2212;" xlink:href="#font_2_1" transform="matrix(9.963397,0,0,-9.962899,30.35199,56.99935)"/>
<use data-text="v" xlink:href="#font_1_1" transform="matrix(9.963397,0,0,-9.962899,38.10161,57.00036)"/>
<path transform="matrix(1.00008,0,0,-1.00003,1.8937149,147.19007)" stroke-width="1.99255" stroke-linecap="butt" stroke-miterlimit="10" stroke-linejoin="miter" fill="none" stroke="#0000ff" d="M70.867 42.5202H137.3504"/>
<path transform="matrix(1.00008,0,0,-1.00003,139.2551,104.66859)" d="M4.38364 0-2.63017 3.50691 0 0-2.63017-3.50691" fill="#0000ff"/>
<use data-text="w" xlink:href="#font_1_2" transform="matrix(9.963397,0,0,-9.962899,103.98588,100.351657)"/>
<path transform="matrix(1.00008,0,0,-1.00003,1.8937149,147.19007)" d="M72.85956 0C72.85956 1.10046 71.96748 1.99255 70.867 1.99255 69.76654 1.99255 68.87445 1.10046 68.87445 0 68.87445-1.10046 69.76654-1.99255 70.867-1.99255 71.96748-1.99255 72.85956-1.10046 72.85956 0ZM70.867 0"/>
<path transform="matrix(1.00008,0,0,-1.00003,1.8937149,147.19007)" stroke-width=".3985" stroke-linecap="butt" stroke-miterlimit="10" stroke-linejoin="miter" fill="none" stroke="#000000" d="M72.85956 0C72.85956 1.10046 71.96748 1.99255 70.867 1.99255 69.76654 1.99255 68.87445 1.10046 68.87445 0 68.87445-1.10046 69.76654-1.99255 70.867-1.99255 71.96748-1.99255 72.85956-1.10046 72.85956 0ZM70.867 0"/>
<use data-text="(" xlink:href="#font_3_1" transform="matrix(9.963397,0,0,-9.962899,51.60769,141.17888)"/>
<use data-text="&#x2212;" xlink:href="#font_2_1" transform="matrix(9.963397,0,0,-9.962899,55.481996,141.17989)"/>
<use data-text="v" xlink:href="#font_1_1" transform="matrix(9.963397,0,0,-9.962899,63.231615,141.17888)"/>
<use data-text=")" xlink:href="#font_3_2" transform="matrix(9.963397,0,0,-9.962899,69.43811,141.17989)"/>
<use data-text="+" xlink:href="#font_3_3" transform="matrix(9.963397,0,0,-9.962899,75.515789,141.17989)"/>
<use data-text="w" xlink:href="#font_1_2" transform="matrix(9.963397,0,0,-9.962899,85.4904,141.17888)"/>
<use data-text="V" xlink:href="#font_4_111" transform="matrix(9.963397,0,0,-9.962899,175.5086,7.9428865)"/>
<use data-text="e" xlink:href="#font_4_50" transform="matrix(9.963397,0,0,-9.962899,182.15418,7.9428865)"/>
<use data-text="l" xlink:href="#font_4_72" transform="matrix(9.963397,0,0,-9.962899,186.57793,7.9428865)"/>
<use data-text="o" xlink:href="#font_4_81" transform="matrix(9.963397,0,0,-9.962899,189.34775,7.9428865)"/>
<use data-text="c" xlink:href="#font_4_43" transform="matrix(9.963397,0,0,-9.962899,194.59845,7.9428865)"/>
<use data-text="i" xlink:href="#font_4_66" transform="matrix(9.963397,0,0,-9.962899,199.0222,7.9428865)"/>
<use data-text="t" xlink:href="#font_4_105" transform="matrix(9.963397,0,0,-9.962899,201.79203,7.9428865)"/>
<use data-text="y" xlink:href="#font_4_118" transform="matrix(9.963397,0,0,-9.962899,205.39878,7.9428865)"/>
<use data-text="o" xlink:href="#font_4_81" transform="matrix(9.963397,0,0,-9.962899,213.9673,7.9428865)"/>
<use data-text="f" xlink:href="#font_4_55" transform="matrix(9.963397,0,0,-9.962899,218.949,7.9428865)"/>
<use data-text="C" xlink:href="#font_4_42" transform="matrix(9.963397,0,0,-9.962899,225.31562,7.9428865)"/>
<use data-text="a" xlink:href="#font_4_28" transform="matrix(9.963397,0,0,-9.962899,232.50919,7.9428865)"/>
<use data-text="n" xlink:href="#font_4_77" transform="matrix(9.963397,0,0,-9.962899,237.49088,7.9428865)"/>
<use data-text="o" xlink:href="#font_4_81" transform="matrix(9.963397,0,0,-9.962899,243.03052,7.9428865)"/>
<use data-text="e" xlink:href="#font_4_50" transform="matrix(9.963397,0,0,-9.962899,248.29117,7.9428865)"/>
<use data-text="5" xlink:href="#font_4_56" transform="matrix(9.963397,0,0,-9.962899,175.5086,22.973336)"/>
<use data-text="k" xlink:href="#font_4_70" transform="matrix(9.963397,0,0,-9.962899,183.79814,22.973336)"/>
<use data-text="n" xlink:href="#font_4_77" transform="matrix(9.963397,0,0,-9.962899,189.05883,22.973336)"/>
<use data-text="o" xlink:href="#font_4_81" transform="matrix(9.963397,0,0,-9.962899,194.59848,22.973336)"/>
<use data-text="t" xlink:href="#font_4_105" transform="matrix(9.963397,0,0,-9.962899,199.58017,22.973336)"/>
<use data-text="s" xlink:href="#font_4_98" transform="matrix(9.963397,0,0,-9.962899,203.45594,22.973336)"/>
<use data-text="V" xlink:href="#font_4_111" transform="matrix(9.963397,0,0,-9.962899,175.5086,50.464159)"/>
<use data-text="e" xlink:href="#font_4_50" transform="matrix(9.963397,0,0,-9.962899,182.15418,50.464159)"/>
<use data-text="l" xlink:href="#font_4_72" transform="matrix(9.963397,0,0,-9.962899,186.57793,50.464159)"/>
<use data-text="o" xlink:href="#font_4_81" transform="matrix(9.963397,0,0,-9.962899,189.34775,50.464159)"/>
<use data-text="c" xlink:href="#font_4_43" transform="matrix(9.963397,0,0,-9.962899,194.59845,50.464159)"/>
<use data-text="i" xlink:href="#font_4_66" transform="matrix(9.963397,0,0,-9.962899,199.0222,50.464159)"/>
<use data-text="t" xlink:href="#font_4_105" transform="matrix(9.963397,0,0,-9.962899,201.79203,50.464159)"/>
<use data-text="y" xlink:href="#font_4_118" transform="matrix(9.963397,0,0,-9.962899,205.39878,50.464159)"/>
<use data-text="o" xlink:href="#font_4_81" transform="matrix(9.963397,0,0,-9.962899,213.9673,50.464159)"/>
<use data-text="f" xlink:href="#font_4_55" transform="matrix(9.963397,0,0,-9.962899,218.949,50.464159)"/>
<use data-text="h" xlink:href="#font_4_63" transform="matrix(9.963397,0,0,-9.962899,225.31562,50.464159)"/>
<use data-text="e" xlink:href="#font_4_50" transform="matrix(9.963397,0,0,-9.962899,230.85526,50.464159)"/>
<use data-text="a" xlink:href="#font_4_28" transform="matrix(9.963397,0,0,-9.962899,235.279,50.464159)"/>
<use data-text="d" xlink:href="#font_4_47" transform="matrix(9.963397,0,0,-9.962899,240.2607,50.464159)"/>
<use data-text="w" xlink:href="#font_4_114" transform="matrix(9.963397,0,0,-9.962899,245.80034,50.464159)"/>
<use data-text="i" xlink:href="#font_4_66" transform="matrix(9.963397,0,0,-9.962899,252.99391,50.464159)"/>
<use data-text="n" xlink:href="#font_4_77" transform="matrix(9.963397,0,0,-9.962899,255.76374,50.464159)"/>
<use data-text="d" xlink:href="#font_4_47" transform="matrix(9.963397,0,0,-9.962899,261.30339,50.464159)"/>
<use data-text="-" xlink:href="#font_4_64" transform="matrix(9.963397,0,0,-9.962899,175.5086,65.494609)"/>
<use data-text="5" xlink:href="#font_4_56" transform="matrix(9.963397,0,0,-9.962899,178.8264,65.494609)"/>
<use data-text="k" xlink:href="#font_4_70" transform="matrix(9.963397,0,0,-9.962899,187.11595,65.494609)"/>
<use data-text="n" xlink:href="#font_4_77" transform="matrix(9.963397,0,0,-9.962899,192.37662,65.494609)"/>
<use data-text="o" xlink:href="#font_4_81" transform="matrix(9.963397,0,0,-9.962899,197.91628,65.494609)"/>
<use data-text="t" xlink:href="#font_4_105" transform="matrix(9.963397,0,0,-9.962899,202.89798,65.494609)"/>
<use data-text="s" xlink:href="#font_4_98" transform="matrix(9.963397,0,0,-9.962899,206.77375,65.494609)"/>
<use data-text="V" xlink:href="#font_4_111" transform="matrix(9.963397,0,0,-9.962899,175.5086,92.985439)"/>
<use data-text="e" xlink:href="#font_4_50" transform="matrix(9.963397,0,0,-9.962899,182.15418,92.985439)"/>
<use data-text="l" xlink:href="#font_4_72" transform="matrix(9.963397,0,0,-9.962899,186.57793,92.985439)"/>
<use data-text="o" xlink:href="#font_4_81" transform="matrix(9.963397,0,0,-9.962899,189.34775,92.985439)"/>
<use data-text="c" xlink:href="#font_4_43" transform="matrix(9.963397,0,0,-9.962899,194.59845,92.985439)"/>
<use data-text="i" xlink:href="#font_4_66" transform="matrix(9.963397,0,0,-9.962899,199.0222,92.985439)"/>
<use data-text="t" xlink:href="#font_4_105" transform="matrix(9.963397,0,0,-9.962899,201.79203,92.985439)"/>
<use data-text="y" xlink:href="#font_4_118" transform="matrix(9.963397,0,0,-9.962899,205.39878,92.985439)"/>
<use data-text="o" xlink:href="#font_4_81" transform="matrix(9.963397,0,0,-9.962899,213.9673,92.985439)"/>
<use data-text="f" xlink:href="#font_4_55" transform="matrix(9.963397,0,0,-9.962899,218.949,92.985439)"/>
<use data-text="T" xlink:href="#font_4_104" transform="matrix(9.963397,0,0,-9.962899,225.31562,92.985439)"/>
<use data-text="r" xlink:href="#font_4_96" transform="matrix(9.963397,0,0,-9.962899,231.69217,92.985439)"/>
<use data-text="u" xlink:href="#font_4_109" transform="matrix(9.963397,0,0,-9.962899,235.59783,92.985439)"/>
<use data-text="e" xlink:href="#font_4_50" transform="matrix(9.963397,0,0,-9.962899,241.13747,92.985439)"/>
<use data-text="W" xlink:href="#font_4_113" transform="matrix(9.963397,0,0,-9.962899,248.86907,92.985439)"/>
<use data-text="i" xlink:href="#font_4_66" transform="matrix(9.963397,0,0,-9.962899,259.11146,92.985439)"/>
<use data-text="n" xlink:href="#font_4_77" transform="matrix(9.963397,0,0,-9.962899,261.8813,92.985439)"/>
<use data-text="d" xlink:href="#font_4_47" transform="matrix(9.963397,0,0,-9.962899,267.4209,92.985439)"/>
<use data-text="5" xlink:href="#font_4_56" transform="matrix(9.963397,0,0,-9.962899,175.5086,108.015888)"/>
<use data-text="k" xlink:href="#font_4_70" transform="matrix(9.963397,0,0,-9.962899,183.79814,108.015888)"/>
<use data-text="n" xlink:href="#font_4_77" transform="matrix(9.963397,0,0,-9.962899,189.05883,108.015888)"/>
<use data-text="o" xlink:href="#font_4_81" transform="matrix(9.963397,0,0,-9.962899,194.59848,108.015888)"/>
<use data-text="t" xlink:href="#font_4_105" transform="matrix(9.963397,0,0,-9.962899,199.58017,108.015888)"/>
<use data-text="s" xlink:href="#font_4_98" transform="matrix(9.963397,0,0,-9.962899,203.45594,108.015888)"/>
<use data-text="V" xlink:href="#font_4_111" transform="matrix(9.963397,0,0,-9.962899,175.5086,135.5617)"/>
<use data-text="e" xlink:href="#font_4_50" transform="matrix(9.963397,0,0,-9.962899,182.15418,135.5617)"/>
<use data-text="l" xlink:href="#font_4_72" transform="matrix(9.963397,0,0,-9.962899,186.57793,135.5617)"/>
<use data-text="o" xlink:href="#font_4_81" transform="matrix(9.963397,0,0,-9.962899,189.34775,135.5617)"/>
<use data-text="c" xlink:href="#font_4_43" transform="matrix(9.963397,0,0,-9.962899,194.59845,135.5617)"/>
<use data-text="i" xlink:href="#font_4_66" transform="matrix(9.963397,0,0,-9.962899,199.0222,135.5617)"/>
<use data-text="t" xlink:href="#font_4_105" transform="matrix(9.963397,0,0,-9.962899,201.79203,135.5617)"/>
<use data-text="y" xlink:href="#font_4_118" transform="matrix(9.963397,0,0,-9.962899,205.39878,135.5617)"/>
<use data-text="o" xlink:href="#font_4_81" transform="matrix(9.963397,0,0,-9.962899,213.9673,135.5617)"/>
<use data-text="f" xlink:href="#font_4_55" transform="matrix(9.963397,0,0,-9.962899,218.949,135.5617)"/>
<use data-text="A" xlink:href="#font_4_27" transform="matrix(9.963397,0,0,-9.962899,225.31562,135.5617)"/>
<use data-text="p" xlink:href="#font_4_84" transform="matrix(9.963397,0,0,-9.962899,232.78816,135.5617)"/>
<use data-text="p" xlink:href="#font_4_84" transform="matrix(9.963397,0,0,-9.962899,238.3278,135.5617)"/>
<use data-text="a" xlink:href="#font_4_28" transform="matrix(9.963397,0,0,-9.962899,243.86745,135.5617)"/>
<use data-text="r" xlink:href="#font_4_96" transform="matrix(9.963397,0,0,-9.962899,248.84914,135.5617)"/>
<use data-text="e" xlink:href="#font_4_50" transform="matrix(9.963397,0,0,-9.962899,252.75479,135.5617)"/>
<use data-text="n" xlink:href="#font_4_77" transform="matrix(9.963397,0,0,-9.962899,257.17854,135.5617)"/>
<use data-text="t" xlink:href="#font_4_105" transform="matrix(9.963397,0,0,-9.962899,262.44917,135.5617)"/>
<use data-text="W" xlink:href="#font_4_113" transform="matrix(9.963397,0,0,-9.962899,269.63279,135.5617)"/>
<use data-text="i" xlink:href="#font_4_66" transform="matrix(9.963397,0,0,-9.962899,279.87516,135.5617)"/>
<use data-text="n" xlink:href="#font_4_77" transform="matrix(9.963397,0,0,-9.962899,282.64497,135.5617)"/>
<use data-text="d" xlink:href="#font_4_47" transform="matrix(9.963397,0,0,-9.962899,288.18464,135.5617)"/>
<use data-text="-" xlink:href="#font_4_64" transform="matrix(9.963397,0,0,-9.962899,175.5086,150.23416)"/>
<use data-text="5" xlink:href="#font_4_56" transform="matrix(9.963397,0,0,-9.962899,178.8264,150.23416)"/>
<use data-text="+" xlink:href="#font_4_89" transform="matrix(9.963397,0,0,-9.962899,183.8081,150.23416)"/>
<use data-text="5" xlink:href="#font_4_56" transform="matrix(9.963397,0,0,-9.962899,191.55963,150.23416)"/>
<use data-text="=" xlink:href="#font_4_52" transform="matrix(9.963397,0,0,-9.962899,196.54132,150.23416)"/>
<use data-text="0" xlink:href="#font_4_121" transform="matrix(9.963397,0,0,-9.962899,204.29285,150.23416)"/>
<use data-text="k" xlink:href="#font_4_70" transform="matrix(9.963397,0,0,-9.962899,212.5824,150.23416)"/>
<use data-text="n" xlink:href="#font_4_77" transform="matrix(9.963397,0,0,-9.962899,217.84307,150.23416)"/>
<use data-text="o" xlink:href="#font_4_81" transform="matrix(9.963397,0,0,-9.962899,223.38272,150.23416)"/>
<use data-text="t" xlink:href="#font_4_105" transform="matrix(9.963397,0,0,-9.962899,228.36441,150.23416)"/>
<use data-text="s" xlink:href="#font_4_98" transform="matrix(9.963397,0,0,-9.962899,232.24018,150.23416)"/>
</svg>
