<svg xmlns="http://www.w3.org/2000/svg" xmlns:xlink="http://www.w3.org/1999/xlink" version="1.1" width="198" height="165" viewBox="0 0 198 165">
<defs>
<path id="font_1_1" d="M.6589966 .23046875C.6759949 .23046875 .69400027 .23046875 .69400027 .25045777 .69400027 .27046205 .6759949 .27046205 .6589966 .27046205H.117996219C.100997928 .27046205 .08299255 .27046205 .08299255 .25045777 .08299255 .23046875 .100997928 .23046875 .117996219 .23046875H.6589966Z"/>
<path id="font_2_5" d="M.13198853 .327713V.35173036C.13198853 .6047821 .2559967 .64100649 .30699159 .64100649 .33099366 .64100649 .37298585 .634964 .394989 .6007538 .37998963 .6007538 .33999635 .6007538 .33999635 .5557556 .33999635 .524765 .3639984 .5097656 .38598634 .5097656 .4019928 .5097656 .43199159 .51875308 .43199159 .5577545 .43199159 .6178589 .3880005 .6660156 .30499269 .6660156 .1769867 .6660156 .041992189 .5367584 .041992189 .31570436 .041992189 .048553468 .1579895-.022460938 .25099183-.022460938 .3619995-.022460938 .45700074 .07156372 .45700074 .2036438 .45700074 .33070375 .36799623 .4267578 .25698854 .4267578 .18899536 .4267578 .1519928 .37573243 .13198853 .327713M.25099183 .0055389406C.18798828 .0055389406 .1579895 .06556702 .1519928 .080566409 .13398743 .127594 .13398743 .2076416 .13398743 .22564698 .13398743 .30369569 .1659851 .40374757 .2559967 .40374757 .27198792 .40374757 .31799317 .40374757 .34899903 .34172059 .36698915 .30470277 .36698915 .2536621 .36698915 .20463562 .36698915 .15661621 .36698915 .10658264 .34999085 .0705719 .31999208 .010528564 .27398683 .0055389406 .25099183 .0055389406Z"/>
<path id="font_2_4" d="M.2939911 .16503906V.07800293C.2939911 .041992189 .2919922 .0309906 .21798706 .0309906H.19699097V0C.23799134 .0029907227 .2899933 .0029907227 .33198548 .0029907227 .37399293 .0029907227 .4269867 .0029907227 .46798707 0V.0309906H.44699098C.37298585 .0309906 .37098695 .041992189 .37098695 .07800293V.16503906H.47099305V.19602967H.37098695V.65075686C.37098695 .67074587 .37098695 .6767578 .35499574 .6767578 .34599305 .6767578 .34298707 .6767578 .33499146 .66474917L.027999878 .19602967V.16503906H.2939911M.2999878 .19602967H.055999757L.2999878 .5688019V.19602967Z"/>
<path id="font_2_3" d="M.1269989 .07699585 .23298645 .18003845C.3889923 .31811524 .44898988 .3721466 .44898988 .47216798 .44898988 .5860901 .35899354 .6660156 .23699951 .6660156 .12399292 .6660156 .049987794 .57411196 .049987794 .48516847 .049987794 .4291687 .099990848 .4291687 .102996829 .4291687 .11999512 .4291687 .15499878 .44117738 .15499878 .48217774 .15499878 .5081787 .13699341 .5341797 .101989749 .5341797 .09399414 .5341797 .09199524 .5341797 .08898926 .5331726 .11199951 .59806826 .1659851 .63500979 .22399903 .63500979 .31498719 .63500979 .35798646 .5541382 .35798646 .47216798 .35798646 .39215089 .30799867 .31311036 .25299073 .25108338L.06098938 .036987306C.049987794 .025985718 .049987794 .023986817 .049987794 0H.42099L.44898988 .17404175H.42399598C.4189911 .14402771 .4119873 .1000061 .4019928 .084991458 .394989 .07699585 .32899476 .07699585 .30699159 .07699585H.1269989Z"/>
<path id="font_2_6" d="M.16299439 .4569702C.116989139 .486969 .11299133 .52098086 .11299133 .5379791 .11299133 .598999 .17799378 .64100649 .24899292 .64100649 .32199098 .64100649 .38598634 .58898928 .38598634 .51698306 .38598634 .45996095 .34700013 .4119568 .2869873 .37695313L.16299439 .4569702M.30899049 .36193849C.3809967 .3989563 .42999269 .45095826 .42999269 .51698306 .42999269 .6090088 .34098817 .6660156 .25 .6660156 .1499939 .6660156 .068984989 .59199526 .068984989 .49897767 .068984989 .4809723 .070999149 .43595887 .11299133 .38894654 .12399292 .37695313 .16099549 .35194398 .18598938 .33494569 .12799073 .30592347 .041992189 .24984741 .041992189 .15072632 .041992189 .04458618 .14399719-.022460938 .24899292-.022460938 .3619995-.022460938 .45700074 .06060791 .45700074 .16773987 .45700074 .20379639 .44599916 .24885559 .4079895 .2909088 .3889923 .31193543 .37298585 .3219452 .30899049 .36193849M.20899964 .3199463 .33198548 .24183655C.3600006 .2228241 .40699769 .19277954 .40699769 .13169861 .40699769 .05760193 .33198548 .0055389406 .25 .0055389406 .1639862 .0055389406 .09199524 .067611698 .09199524 .15072632 .09199524 .20880127 .12399292 .27288819 .20899964 .3199463Z"/>
<path id="font_2_2" d="M.2939911 .64004519C.2939911 .66400149 .2939911 .6660156 .2709961 .6660156 .20899964 .60227969 .12098694 .60227969 .08898926 .60227969V.57128909C.10899353 .57128909 .16799927 .57128909 .21998596 .5972748V.07902527C.21998596 .042999269 .21699524 .0309906 .1269989 .0309906H.09498596V0C.12998963 .0029907227 .21699524 .0029907227 .25698854 .0029907227 .29699708 .0029907227 .38398744 .0029907227 .4189911 0V.0309906H.3869934C.29699708 .0309906 .2939911 .041992189 .2939911 .07902527V.64004519Z"/>
<path id="font_2_1" d="M.45999146 .31976319C.45999146 .39982606 .45498658 .47988893 .41999818 .5539398 .37399293 .65000918 .2919922 .6660156 .25 .6660156 .18998719 .6660156 .116989139 .64001467 .07598877 .54693606 .04399109 .47789 .038986207 .39982606 .038986207 .31976319 .038986207 .24472046 .042999269 .15464783 .083999637 .07859802 .1269989-.0024719239 .19999695-.022460938 .24899292-.022460938 .30299378-.022460938 .3789978-.0014648438 .4229889 .09359741 .45498658 .16265869 .45999146 .2407074 .45999146 .31976319M.24899292-.00047302247C.20999146-.00047302247 .15098572 .024551392 .1329956 .12062073 .12199402 .18066406 .12199402 .2727356 .12199402 .3317871 .12199402 .39582826 .12199402 .46188355 .12998963 .5159149 .14898682 .63500979 .22399903 .64401248 .24899292 .64401248 .28199769 .64401248 .34799195 .6259918 .36698915 .52693179 .3769989 .47088624 .3769989 .39482118 .3769989 .3317871 .3769989 .25672914 .3769989 .18867493 .3659973 .12461853 .35099793 .029556275 .2939911-.00047302247 .24899292-.00047302247Z"/>
<path id="font_3_4" d="M.48599244 .38136292C.48999024 .39537049 .48999024 .39736939 .48999024 .40437318 .48999024 .42237855 .47599793 .43138124 .46099855 .43138124 .45098878 .43138124 .43499757 .42536927 .42599488 .41036988 .42399598 .405365 .41600038 .37435914 .4119873 .35635377 .40499879 .33035279 .397995 .30334474 .3919983 .27633668L.34700013 .09628296C.34298707 .08126831 .2999878 .011245728 .23399353 .011245728 .18299866 .011245728 .17199707 .055267335 .17199707 .0922699 .17199707 .1382904 .18899536 .20030213 .22299195 .28833009 .23899842 .3293457 .24299622 .3403473 .24299622 .36035157 .24299622 .405365 .21099854 .4423828 .16099549 .4423828 .06599426 .4423828 .0289917 .29733277 .0289917 .28833009 .0289917 .27833558 .038986207 .27833558 .040985109 .27833558 .050994874 .27833558 .051986696 .28033448 .056991579 .29634095 .083999637 .3903656 .12399292 .42037965 .1579895 .42037965 .1659851 .42037965 .18299866 .42037965 .18299866 .3883667 .18299866 .36335755 .17298889 .3373413 .1659851 .31834413 .12599182 .21231079 .10798645 .1552887 .10798645 .10827637 .10798645 .019256592 .17098999-.0107421879 .22999573-.0107421879 .2689972-.0107421879 .30299378 .0062561037 .33099366 .03425598 .31799317-.017745972 .30599977-.06674194 .2659912-.11973572 .23999024-.15385437 .20199585-.18309021 .1559906-.18309021 .14199829-.18309021 .09700012-.18005371 .07998657-.14074707 .09599304-.14074707 .10899353-.14074707 .12298584-.1287384 .1329956-.11973572 .14299011-.10673523 .14299011-.08773804 .14299011-.056747438 .115997318-.052734376 .10598755-.052734376 .08299255-.052734376 .049987794-.068740848 .049987794-.11773682 .049987794-.16796875 .09399414-.20507813 .1559906-.20507813 .25898744-.20507813 .3619995-.11373901 .3899994-.00074768069L.48599244 .38136292Z"/>
<path id="font_2_7" d="M.68699648 .32714845C.70199587 .32714845 .72099307 .32714845 .72099307 .34713746 .72099307 .36714173 .70199587 .36714173 .6879883 .36714173H.08898926C.07499695 .36714173 .055999757 .36714173 .055999757 .34713746 .055999757 .32714845 .07499695 .32714845 .08999634 .32714845H.68699648M.6879883 .13284302C.70199587 .13284302 .72099307 .13284302 .72099307 .15284729 .72099307 .17285156 .70199587 .17285156 .68699648 .17285156H.08999634C.07499695 .17285156 .055999757 .17285156 .055999757 .15284729 .055999757 .13284302 .07499695 .13284302 .08898926 .13284302H.6879883Z"/>
<path id="font_2_10" d="M.20799256 .19424439C.22999573 .19024658 .31199647 .17424011 .31199647 .102249149 .31199647 .051254274 .2769928 .011245728 .19898987 .011245728 .114990238 .011245728 .07899475 .06825256 .05999756 .15324402 .056991579 .1662445 .055999757 .17024231 .04598999 .17024231 .032989503 .17024231 .032989503 .16323853 .032989503 .14524842V.013244629C.032989503-.003753662 .032989503-.0107421879 .04399109-.0107421879 .04899597-.0107421879 .049987794-.009750366 .068984989 .009246826 .070999149 .011245728 .070999149 .013244629 .08898926 .03224182 .1329956-.009750366 .17799378-.0107421879 .19898987-.0107421879 .31399537-.0107421879 .3600006 .056243898 .3600006 .12825012 .3600006 .1812439 .32998658 .21124268 .31799317 .22323609 .2849884 .25523377 .24598694 .26324464 .20399475 .27124024 .147995 .28224183 .08099365 .2952423 .08099365 .35324098 .08099365 .38822938 .10699463 .42922975 .19299317 .42922975 .30299378 .42922975 .30799867 .3392334 .30999757 .3082428 .31098939 .2992401 .31999208 .2992401 .32199098 .2992401 .33499146 .2992401 .33499146 .304245 .33499146 .3232422V.4242401C.33499146 .4412384 .33499146 .4482422 .32398988 .4482422 .31900025 .4482422 .31698609 .4482422 .3039856 .43623353 .30099488 .43223573 .29100038 .42323304 .2869873 .42022706 .24899292 .4482422 .20799256 .4482422 .19299317 .4482422 .070999149 .4482422 .032989503 .38124085 .032989503 .3252411 .032989503 .29023744 .04899597 .26223756 .07598877 .24023438 .10798645 .21424866 .13598633 .2082367 .20799256 .19424439Z"/>
<path id="font_2_8" d="M.1769867 .4423828 .036987306 .43138124V.40037538C.101989749 .40037538 .11099243 .3943634 .11099243 .34532167V.076034549C.11099243 .0309906 .099990848 .0309906 .032989503 .0309906V0C.06498718 .0009918213 .11898804 .0029907227 .14299011 .0029907227 .17799378 .0029907227 .21299744 .0009918213 .24699402 0V.0309906C.18099976 .0309906 .1769867 .035995485 .1769867 .075042728V.4423828M.18099976 .6159363C.18099976 .64793398 .1559906 .6689453 .12799073 .6689453 .09700012 .6689453 .07499695 .64193728 .07499695 .6159363 .07499695 .5889435 .09700012 .5629425 .12799073 .5629425 .1559906 .5629425 .18099976 .5839386 .18099976 .6159363Z"/>
<path id="font_2_9" d="M.10998535 .34429933V.076034549C.10998535 .0309906 .09899902 .0309906 .03199768 .0309906V0C.066986087 .0009918213 .117996219 .0029907227 .14498902 .0029907227 .17098999 .0029907227 .22299195 .0009918213 .25698854 0V.0309906C.18998719 .0309906 .1789856 .0309906 .1789856 .076034549V.2602234C.1789856 .36431886 .25 .42037965 .31399537 .42037965 .3769989 .42037965 .3880005 .36631776 .3880005 .30926515V.076034549C.3880005 .0309906 .3769989 .0309906 .30999757 .0309906V0C.34498597 .0009918213 .3959961 .0029907227 .4229889 .0029907227 .44898988 .0029907227 .5009918 .0009918213 .5349884 0V.0309906C.48298646 .0309906 .45799256 .0309906 .45700074 .061019899V.25221253C.45700074 .3383026 .45700074 .36932374 .42599488 .405365 .4119873 .42237855 .3789978 .4423828 .32099916 .4423828 .24798584 .4423828 .20098877 .39935304 .17298889 .33729554V.4423828L.03199768 .43138124V.40037538C.101989749 .4003601 .10998535 .39335633 .10998535 .34429933Z"/>
<path id="font_3_3" d="M.33399964 .30233766C.33999635 .32835389 .36299134 .42037965 .43299867 .42037965 .43798829 .42037965 .46199037 .42037965 .48298646 .40734864 .45498658 .402359 .43499757 .37734986 .43499757 .35334779 .43499757 .33735658 .44599916 .31835938 .47299195 .31835938 .49499513 .31835938 .5269928 .3363495 .5269928 .37635804 .5269928 .42837525 .46798707 .4423828 .43399049 .4423828 .37599183 .4423828 .34098817 .38935853 .32899476 .36634828 .3039856 .43237306 .25 .4423828 .22099304 .4423828 .116989139 .4423828 .05999756 .3133545 .05999756 .28834535 .05999756 .27833558 .069992069 .27833558 .07199097 .27833558 .07998657 .27833558 .08299255 .28033448 .084991458 .28933717 .11898804 .39535523 .18499756 .42037965 .21899414 .42037965 .23799134 .42037965 .272995 .4113617 .272995 .35334779 .272995 .32235719 .2559967 .25532533 .21899414 .11528015 .20298767 .053268434 .16799927 .011245728 .12399292 .011245728 .117996219 .011245728 .09498596 .011245728 .07398987 .024276734 .09899902 .029266358 .12098694 .05027771 .12098694 .07827759 .12098694 .105270389 .09899902 .11328125 .083999637 .11328125 .053985597 .11328125 .0289917 .08728027 .0289917 .055267335 .0289917 .009246826 .07899475-.0107421879 .12298584-.0107421879 .18899536-.0107421879 .22499085 .059280397 .22799683 .0652771 .23999024 .028274537 .27598573-.0107421879 .33599855-.0107421879 .43899537-.0107421879 .49598695 .118270877 .49598695 .14328003 .49598695 .1532898 .4869995 .1532898 .48399354 .1532898 .47499085 .1532898 .47299195 .14929199 .47099305 .14228821 .43798829 .03527832 .36999513 .011245728 .33799745 .011245728 .29899598 .011245728 .2829895 .043273927 .2829895 .07727051 .2829895 .09927368 .2889862 .121276859 .2999878 .16529846L.33399964 .30233766Z"/>
<path id="font_4_1" d="M.41299439-1.1491852C.41299439-1.1451874 .41099549-1.1431885 .40899659-1.1401825 .36299134-1.0911713 .29499818-1.0101624 .25299073-.84713748 .22999573-.7561188 .22099304-.65309146 .22099304-.56007388 .22099304-.2970276 .28399659-.11299133 .4039917 .017044068 .41299439 .026031495 .41299439 .028030396 .41299439 .030029297 .41299439 .040039064 .40499879 .040039064 .40098573 .040039064 .38598634 .040039064 .33198548-.019973755 .31900025-.034973146 .21699524-.1559906 .1519928-.33602906 .1519928-.5590668 .1519928-.7010956 .1769867-.9021454 .30799867-1.071167 .31799317-1.0831757 .3829956-1.1591797 .40098573-1.1591797 .40499879-1.1591797 .41299439-1.1591797 .41299439-1.1491852Z"/>
<path id="font_5_1" d="M.31098939 .36265565H.42999269C.4149933 .30274964 .3929901 .2118988 .3929901 .13302613 .3929901 .09309387 .397995 .06613159 .4039917 .044174196 .41999818-.0057678224 .43299867-.009765625 .44898988-.009765625 .47200013-.009765625 .49598695 .011230469 .49598695 .035186769 .49598695 .043182374 .49398805 .047164918 .48799134 .057159425 .46899415 .09408569 .45098878 .15100098 .45098878 .23286438 .45098878 .25183106 .45098878 .29177857 .46499635 .36265565H.58999636C.60798647 .36265565 .6159973 .36265565 .6269989 .37065126 .6409912 .380661 .6439972 .39665223 .6439972 .4016571 .6439972 .43066407 .6179962 .43066407 .6009979 .43066407H.22399903C.18299866 .43066407 .15499878 .42166139 .10998535 .37965394 .083999637 .35665895 .04499817 .30274964 .04499817 .2937622 .04499817 .28178407 .057998659 .28178407 .06199646 .28178407 .07299805 .28178407 .07398987 .28378297 .07998657 .2927704 .1309967 .36265565 .19299317 .36265565 .21499634 .36265565H.27598573C.24499512 .25283814 .19099427 .13502503 .16099549 .07511902 .15499878 .062149049 .14498902 .04118347 .14199829 .03718567 .14099121 .033187868 .13899231 .029190064 .13899231 .022201539 .13899231 .006225586 .15098572-.009765625 .17399597-.009765625 .21398926-.009765625 .22499085 .035186769 .24899292 .12504578L.31098939 .36265565Z"/>
<path id="font_6_1" d="M.1499939 .3274536C.1499939 .40945436 .15699768 .48303224 .19499207 .543869 .22898865 .5978699 .2829895 .63505557 .34700013 .63505557 .3769989 .63505557 .4169922 .62701418 .43699647 .5998688 .4119873 .5978699 .3909912 .5808716 .3909912 .5518799 .3909912 .5268707 .4079895 .5048828 .43798829 .5048828 .46798707 .5048828 .48599244 .5248718 .48599244 .5538788 .48599244 .6119385 .44400025 .6640625 .34498597 .6640625 .20098877 .6640625 .053985597 .5318756 .053985597 .3174591 .053985597 .05845642 .17599488-.01953125 .28599549-.01953125 .4079895-.01953125 .5139923 .07345581 .5139923 .20445252 .5139923 .33145143 .41299439 .42546083 .29599 .42546083 .21598816 .42546083 .17199707 .37245179 .1499939 .3274536M.28599549 .012466431C.23599243 .012466431 .19699097 .04145813 .17599488 .08546448 .16099549 .11546326 .15299988 .16545105 .15299988 .22544861 .15299988 .32244874 .21099854 .39746095 .29100038 .39746095 .33699037 .39746095 .36799623 .37945558 .3929901 .342453 .4169922 .30445863 .41799928 .26245118 .41799928 .20445252 .41799928 .14746094 .41799928 .10545349 .3909912 .066467288 .36698915 .031463624 .33499146 .012466431 .28599549 .012466431Z"/>
<path id="font_4_2" d="M.30499269-.56007388C.30499269-.41804505 .27999879-.2170105 .14898682-.047973634 .13899231-.035964967 .07398987 .040039064 .055999757 .040039064 .050994874 .040039064 .04399109 .038024904 .04399109 .030029297 .04399109 .026031495 .04598999 .023025513 .049987794 .02003479 .09799194-.031967164 .16299439-.11299133 .20399475-.27201844 .22698975-.3630371 .23599243-.4660492 .23599243-.5590668 .23599243-.6600952 .22698975-.7621155 .20098877-.86013796 .16299439-1.0001679 .10398865-1.0801697 .052993776-1.1361847 .04399109-1.1451874 .04399109-1.1471863 .04399109-1.1491852 .04399109-1.1571808 .050994874-1.1591797 .055999757-1.1591797 .070999149-1.1591797 .12599182-1.098175 .13798523-1.0841827 .23999024-.96315 .30499269-.7831116 .30499269-.56007388Z"/>
<path id="font_7_84" d="M.5209961 .21636963C.5209961 .34336854 .42399598 .4423828 .31199647 .4423828 .23399353 .4423828 .19198609 .39837647 .17199707 .3763733V.4423828L.027999878 .43066407V.3996582C.09899902 .3996582 .10598755 .3936615 .10598755 .34973146V-.117996219C.10598755-.16308594 .09498596-.16308594 .027999878-.16308594V-.1940918L.13999939-.19110108 .25299073-.1940918V-.16308594C.18598938-.16308594 .1749878-.16308594 .1749878-.117996219V.050186159 .059173585C.17999268 .04319763 .22200012-.0107421879 .2979889-.0107421879 .4169922-.0107421879 .5209961 .087127689 .5209961 .21594239V.21636963M.43798829 .21594239C.43798829 .09512329 .36799623 .011245728 .2939911 .011245728 .2539978 .011245728 .21598816 .031219483 .18899536 .07215881 .1749878 .09312439 .1749878 .09411621 .1749878 .114089969V.33674623C.20399475 .38838197 .25299073 .41737367 .3039856 .41737367 .3769989 .41737367 .43798829 .32937623 .43798829 .21636963V.21594239Z"/>
<path id="font_7_50" d="M.4149933 .11933899C.4149933 .12934876 .40699769 .13134766 .4019928 .13134766 .3929901 .13134766 .3909912 .12535095 .3889923 .11734009 .35398866 .014251709 .2639923 .014251709 .2539978 .014251709 .20399475 .014251709 .1639862 .044281007 .14099121 .08131409 .11099243 .12934876 .11099243 .19540406 .11099243 .23144531H.3899994C.4119873 .23144531 .4149933 .23144531 .4149933 .2524414 .4149933 .35131837 .36099244 .4482422 .23599243 .4482422 .11999512 .4482422 .027999878 .34532167 .027999878 .22042847 .027999878 .08631897 .1329956-.0107421879 .24798584-.0107421879 .36999513-.0107421879 .4149933 .10032654 .4149933 .11933899M.34899903 .2524414H.11199951C.117996219 .40126039 .20199585 .426239 .23599243 .426239 .33898927 .426239 .34899903 .2913971 .34899903 .2524414Z"/>
<path id="font_7_96" d="M.3639984 .38137818C.3639984 .41337586 .33299256 .4423828 .2899933 .4423828 .21699524 .4423828 .18099976 .37538148 .16699219 .3323822V.4423828L.027999878 .43066407V.3996582C.09799194 .3996582 .10598755 .39266969 .10598755 .34370423V.07595825C.10598755 .0309906 .09498596 .0309906 .027999878 .0309906V0L.14199829 .0029907227C.18199158 .0029907227 .22898865 .0029907227 .2689972 0V.0309906H.24798584C.17399597 .0309906 .17199707 .04197693 .17199707 .07795715V.23181153C.17199707 .33137513 .21398926 .42037965 .2899933 .42037965 .29699708 .42037965 .29899598 .42037965 .30099488 .41937257 .2979889 .41838075 .27799989 .40637208 .27799989 .3803711 .27799989 .35237123 .29899598 .33737184 .32099916 .33737184 .33898927 .33737184 .3639984 .3493805 .3639984 .38137818Z"/>
<path id="font_7_66" d="M.24699402 0V.0309906C.18099976 .0309906 .1769867 .035995485 .1769867 .075042728V.4423828L.036987306 .43066407V.3996582C.101989749 .3996582 .11099243 .3936615 .11099243 .3447113V.07595825C.11099243 .0309906 .099990848 .0309906 .032989503 .0309906V0L.14299011 .0029907227C.17799378 .0029907227 .21299744 .0009918213 .24699402 0M.19198609 .603775C.19198609 .6307678 .16899109 .6567688 .13899231 .6567688 .10499573 .6567688 .084991458 .6287689 .084991458 .603775 .084991458 .57676699 .10798645 .55078127 .13798523 .55078127 .17199707 .55078127 .19198609 .5787811 .19198609 .603775Z"/>
<path id="font_7_81" d="M.47099305 .21424866C.47099305 .34223939 .37098695 .4482422 .25 .4482422 .125 .4482422 .027999878 .3392334 .027999878 .21424866 .027999878 .085250858 .13198853-.0107421879 .24899292-.0107421879 .36999513-.0107421879 .47099305 .087249759 .47099305 .21424866M.3880005 .22224427C.3880005 .18624878 .3880005 .13224793 .3659973 .08824158 .34399415 .04324341 .2999878 .014251709 .25 .014251709 .20698548 .014251709 .16299439 .035247804 .13598633 .08125305 .11099243 .12524414 .11099243 .18624878 .11099243 .22224427 .11099243 .26124574 .11099243 .31523133 .1349945 .35923768 .1619873 .40522767 .20899964 .426239 .24899292 .426239 .29299928 .426239 .33599855 .40423585 .3619995 .36123658 .3880005 .3182373 .3880005 .26023866 .3880005 .22224427Z"/>
<path id="font_7_47" d="M.5269928 0V.0309906C.45700074 .0309906 .44898988 .038009645 .44898988 .0871582V.69433596L.30499269 .6826172V.6516113C.375 .6516113 .3829956 .64463809 .3829956 .59580996V.38035584C.35398866 .41636659 .31098939 .4423828 .25698854 .4423828 .13899231 .4423828 .033996583 .3443451 .033996583 .21531677 .033996583 .088272098 .13198853-.0107421879 .24598694-.0107421879 .30999757-.0107421879 .35499574 .023254395 .37998963 .055267335V-.0107421879L.5269928 0M.37998963 .117996219C.37998963 .099990848 .37998963 .09799194 .36898805 .08099365 .33898927 .033218385 .2939911 .011245728 .25099183 .011245728 .20599365 .011245728 .16999817 .037216188 .1459961 .075164798 .11999512 .1161499 .116989139 .17320252 .116989139 .21421814 .116989139 .25125123 .11898804 .31129457 .147995 .35632325 .16899109 .38734437 .20698548 .42037965 .26098634 .42037965 .29599 .42037965 .33799745 .405365 .36898805 .3603363 .37998963 .34332276 .37998963 .34132386 .37998963 .32330323V.117996219Z"/>
<path id="font_7_52" d="M.72099307 .34713746C.72099307 .36714173 .70199587 .36714173 .6879883 .36714173H.08898926C.07499695 .36714173 .055999757 .36714173 .055999757 .34713746 .055999757 .32714845 .07499695 .32714845 .08999634 .32714845H.68699648C.70199587 .32714845 .72099307 .32714845 .72099307 .34713746M.72099307 .15284729C.72099307 .17285156 .70199587 .17285156 .68699648 .17285156H.08999634C.07499695 .17285156 .055999757 .17285156 .055999757 .15284729 .055999757 .13284302 .07499695 .13284302 .08898926 .13284302H.6879883C.70199587 .13284302 .72099307 .13284302 .72099307 .15284729Z"/>
<path id="font_3_1" d="M.2649994 .37265016H.37799073C.34498597 .22489929 .33599855 .18196106 .33599855 .11508179 .33599855 .100097659 .33599855 .073150638 .34399415 .03919983 .35398866-.0047454836 .36499024-.0107421879 .37998963-.0107421879 .3999939-.0107421879 .42099 .007247925 .42099 .02722168 .42099 .033218385 .42099 .035202028 .4149933 .049179079 .38598634 .12106323 .38598634 .18595886 .38598634 .21391297 .38598634 .26683045 .3929901 .32073976 .4039917 .37265016H.5179901C.5309906 .37265016 .5669861 .37265016 .5669861 .406662 .5669861 .43066407 .54599 .43066407 .5269928 .43066407H.19198609C.16999817 .43066407 .13198853 .43066407 .08799744 .38365174 .052993776 .34469605 .026992798 .29878236 .026992798 .29379273 .026992798 .29278565 .026992798 .28379823 .038986207 .28379823 .04699707 .28379823 .04899597 .28779603 .054992677 .29577638 .10398865 .37265016 .1619873 .37265016 .18199158 .37265016H.23899842C.20698548 .25186158 .15299988 .13105774 .11099243 .04020691 .102996829 .025222779 .102996829 .023223877 .102996829 .016235352 .102996829-.002746582 .11898804-.0107421879 .13198853-.0107421879 .1619873-.0107421879 .16999817 .017242432 .18199158 .05418396 .19599915 .100097659 .19599915 .10209656 .20899964 .15202332L.2649994 .37265016Z"/>
<path id="font_1_2" d="M.7220001 .4517517C.7220001 .4727478 .71499636 .4817505 .70799258 .4817505 .70399478 .4817505 .69499209 .4777527 .69400027 .4547577 .6899872 .38589479 .6199951 .34506227 .5549927 .34506227 .49699403 .34506227 .44699098 .37594605 .394989 .41081239 .34098817 .44674684 .2869873 .48275758 .22200012 .48275758 .1289978 .48275758 .054992677 .4118042 .054992677 .3200531 .054992677 .29804994 .06298828 .29005433 .068984989 .29005433 .07899475 .29005433 .08299255 .3090515 .08299255 .31304933 .08799744 .39686585 .16999817 .4267578 .22200012 .4267578 .27999879 .4267578 .32998658 .39585877 .38198854 .36099244 .43598939 .32505799 .48999024 .2890625 .5549927 .2890625 .647995 .2890625 .7220001 .3600006 .7220001 .4517517M.7220001 .21798706C.7220001 .24699402 .70999148 .24899292 .70799258 .24899292 .70399478 .24899292 .69499209 .24398804 .69400027 .22198487 .6899872 .1531372 .6199951 .11230469 .5549927 .11230469 .49699403 .11230469 .44699098 .14318848 .394989 .17805481 .34098817 .21398926 .2869873 .25 .22200012 .25 .1289978 .25 .054992677 .17904663 .054992677 .08729553 .054992677 .06529236 .06298828 .057296754 .068984989 .057296754 .07899475 .057296754 .08299255 .076293949 .08299255 .08029175 .08799744 .16410828 .16999817 .19398499 .22200012 .19398499 .27999879 .19398499 .32998658 .1631012 .38198854 .12823487 .43598939 .092300418 .48999024 .056289674 .5549927 .056289674 .6499939 .056289674 .7220001 .13023377 .7220001 .21798706Z"/>
<path id="font_3_2" d="M.19198609 .052993776C.19198609 .08198547 .16799927 .10598755 .13899231 .10598755 .10998535 .10598755 .085998538 .08198547 .085998538 .052993776 .085998538 .023986817 .10998535 0 .13899231 0 .16799927 0 .19198609 .023986817 .19198609 .052993776Z"/>
</defs>
<path transform="matrix(1.00005,0,0,-1.00008,1.4703751,163.20578)" stroke-width=".19925" stroke-linecap="butt" stroke-miterlimit="10" stroke-linejoin="miter" fill="none" stroke="#929292" d="M15.33727 64.01341V66.84825M35.78697 64.01341V66.84825M56.23666 64.01341V66.84825M76.68637 64.01341V66.84825M97.13608 64.01341V66.84825M117.58577 64.01341V66.84825M138.03548 64.01341V66.84825M158.48519 64.01341V66.84825M178.93488 64.01341V66.84825"/>
<path transform="matrix(1.00005,0,0,-1.00008,1.4703751,163.20578)" stroke-width=".19925" stroke-linecap="butt" stroke-miterlimit="10" stroke-linejoin="miter" fill="none" stroke="#929292" d="M5.11241 63.30489V67.55675M25.56212 63.30489V67.55675M46.01183 63.30489V67.55675M86.91122 63.30489V67.55675M107.36093 63.30489V67.55675M127.81062 63.30489V67.55675M148.26033 63.30489V67.55675M168.71002 63.30489V67.55675M189.15973 63.30489V67.55675"/>
<path transform="matrix(1.00005,0,0,-1.00008,1.4703751,163.20578)" stroke-width=".19925" stroke-linecap="butt" stroke-miterlimit="10" stroke-linejoin="miter" fill="none" stroke="#929292" d="M65.04385 43.62054H67.87918M65.04385 87.2411H67.87918"/>
<path transform="matrix(1.00005,0,0,-1.00008,1.4703751,163.20578)" stroke-width=".19925" stroke-linecap="butt" stroke-miterlimit="10" stroke-linejoin="miter" fill="none" stroke="#929292" d="M64.33524 21.81027H68.5878M64.33524 109.05139H68.5878"/>
<path transform="matrix(1.00005,0,0,-1.00008,1.4703751,163.20578)" stroke-width=".3985" stroke-linecap="butt" stroke-miterlimit="10" stroke-linejoin="miter" fill="none" stroke="#000000" d="M0 65.43083H192.27964"/>
<path transform="matrix(1.00005,0,0,-1.00008,193.75962,97.769718)" d="M1.99252 0-1.19551 1.59401 0 0-1.19551-1.59401"/>
<path transform="matrix(1.00005,0,0,-1.00008,1.4703751,163.20578)" stroke-width=".3985" stroke-linecap="butt" stroke-miterlimit="10" stroke-linejoin="miter" fill="none" stroke="#000000" d="M66.46152 0V159.40354"/>
<path transform="matrix(0,-1.00008,-1.00005,-0,67.93521,3.7894898)" d="M1.99252 0-1.19551 1.59401 0 0-1.19551-1.59401"/>
<use data-text="&#x2212;" xlink:href="#font_1_1" transform="matrix(9.963098,0,0,-9.963397,.21731568,109.83651)"/>
<use data-text="6" xlink:href="#font_2_5" transform="matrix(9.963098,0,0,-9.963397,7.9666979,109.83651)"/>
<use data-text="&#x2212;" xlink:href="#font_1_1" transform="matrix(9.963098,0,0,-9.963397,20.668335,109.83651)"/>
<use data-text="4" xlink:href="#font_2_4" transform="matrix(9.963098,0,0,-9.963397,28.417717,109.83651)"/>
<use data-text="&#x2212;" xlink:href="#font_1_1" transform="matrix(9.963098,0,0,-9.963397,41.119356,109.83651)"/>
<use data-text="2" xlink:href="#font_2_3" transform="matrix(9.963098,0,0,-9.963397,48.868738,109.83651)"/>
<use data-text="2" xlink:href="#font_2_3" transform="matrix(9.963098,0,0,-9.963397,85.89559,109.83651)"/>
<use data-text="4" xlink:href="#font_2_4" transform="matrix(9.963098,0,0,-9.963397,106.34562,109.83651)"/>
<use data-text="6" xlink:href="#font_2_5" transform="matrix(9.963098,0,0,-9.963397,126.79663,109.83651)"/>
<use data-text="8" xlink:href="#font_2_6" transform="matrix(9.963098,0,0,-9.963397,147.24765,109.83651)"/>
<use data-text="1" xlink:href="#font_2_2" transform="matrix(9.963098,0,0,-9.963397,165.20755,109.83651)"/>
<use data-text="0" xlink:href="#font_2_1" transform="matrix(9.963098,0,0,-9.963397,170.1891,109.83651)"/>
<use data-text="1" xlink:href="#font_2_2" transform="matrix(9.963098,0,0,-9.963397,185.65756,109.83651)"/>
<use data-text="2" xlink:href="#font_2_3" transform="matrix(9.963098,0,0,-9.963397,190.63912,109.83651)"/>
<use data-text="&#x2212;" xlink:href="#font_1_1" transform="matrix(9.963098,0,0,-9.963397,49.557779,144.18926)"/>
<use data-text="1" xlink:href="#font_2_2" transform="matrix(9.963098,0,0,-9.963397,57.30716,144.18926)"/>
<use data-text="1" xlink:href="#font_2_2" transform="matrix(9.963098,0,0,-9.963397,57.307165,57.356309)"/>
<path transform="matrix(1.00005,0,0,-1.00008,1.4703751,163.20578)" stroke-width=".99628" stroke-linecap="butt" stroke-miterlimit="10" stroke-linejoin="miter" fill="none" stroke="#0000ff" stroke-opacity=".5" d="M0 56.04805 .97623 60.15143 1.95247 64.30411 2.9287 68.46463 3.90494 72.59856 4.88118 76.66792 5.85742 80.63521 6.83366 84.46378 7.80989 88.11786 8.78613 91.56696 9.76237 94.77612 10.7386 97.71832 11.71484 100.36783 12.69107 102.69762 13.66731 104.68976 14.64355 106.32248 15.6198 107.58354 16.59604 108.46031 17.57228 108.94624 18.54851 109.03394 19.52475 108.72641 20.50099 108.02238 21.47722 106.93272 22.45346 105.46228 23.42969 103.62933 24.40593 101.44743 25.38217 98.93752 26.35841 96.12268 27.33466 93.02869 28.3109 89.68254 29.28712 86.11569 30.26337 82.36082 31.23961 78.452 32.21584 74.42363 33.19206 70.3137 34.1683 66.15971 35.14455 61.99919 36.12079 57.86964 37.09703 53.80899 38.07327 49.85304 39.0495 46.04062 40.02574 42.40352 41.00198 38.97714 41.97824 35.79109 42.95447 32.87593 43.9307 30.25607 44.90694 27.95685 45.88318 26.00002 46.85942 24.40132 47.83566 23.17734 48.8119 22.3372 49.78813 21.89096 50.76437 21.83905 51.74062 22.18715 52.71686 22.92564 53.69308 24.05453 54.66931 25.55814 55.64555 27.4264 56.6218 29.64015 57.59804 32.18105 58.57428 35.02293 59.5505 38.14355 60.52675 41.51105 61.50299 45.09796 62.47923 48.86942 63.45547 52.79132 64.4317 56.82884 65.40793 60.94531 66.38417 65.10147 67.36041 69.25983 68.33665 73.3846 69.31288 77.43738 70.28912 81.3798 71.26537 85.17827 72.24161 88.79573 73.21785 92.20119 74.19408 95.3615 75.1703 98.25006 76.14655 100.83981 77.12279 103.10634 78.09903 105.03043 79.07527 106.59378 80.0515 107.78201 81.02774 108.58333 82.00398 108.99425 82.98024 109.00558 83.95648 108.62216 84.93271 107.84308 85.90894 106.6806 86.88518 105.13861 87.86142 103.23807 88.83766 100.9916 89.81389 98.42192 90.79013 95.55081 91.76637 92.4062 92.74261 89.01558 93.71886 85.40991 94.6951 81.62277 95.67131 77.68776 96.64755 73.64153 97.6238 69.51936 98.6001 65.36147 99.57625 61.204 100.55254 57.08403 101.52869 53.04128 102.50499 49.11107 103.4813 45.32916 104.45744 41.72958 105.43373 38.34682 106.40987 35.2105 107.38617 32.34987 108.36247 29.79022 109.33862 27.55553 110.31491 25.66545 111.29106 24.13698 112.26736 22.98627 113.24367 22.22072 114.21982 21.85039 115.1961 21.87569 116.17227 22.29793 117.14854 23.11147 118.12485 24.31364 119.101 25.88791 120.0773 27.82555 121.05345 30.10252 122.02974 32.70274 123.00606 35.60004 123.9822 38.77037 124.9585 42.1828 125.93465 45.80725 126.91095 49.61008 127.88724 53.55775 128.86339 57.6127 129.83969 61.73921 130.81584 65.89886 131.79213 70.05415 132.76844 74.1689 133.74459 78.20293 134.72089 82.12004 135.69704 85.8858 136.67333 89.46574 137.64962 92.8267 138.62577 95.93729 139.60207 98.77045 140.57822 101.29913 141.5545 103.50284 142.5308 105.35846 143.50696 106.85071 144.48326 107.96523 145.45941 108.69325 146.43572 109.02696 147.412 108.96239 148.38814 108.50307 149.36444 107.64941 150.34059 106.41365 151.3169 104.80229 152.29319 102.83414 153.26934 100.52312 154.24564 97.8941 155.22179 94.96849 156.19809 91.77458 157.17438 88.3399 158.15053 84.69801 159.12682 80.8786 160.10297 76.9196 161.07927 72.85547 162.05558 68.72417 163.03171 64.56409 164.00803 60.41096 164.98416 56.30365 165.96048 52.27791 166.93677 48.373 167.9129 44.62424 168.88922 41.0635 169.86534 37.72653 170.84166 34.63951 171.81795 31.836 172.7941 29.33612 173.7704 27.16556 174.74655 25.34439 175.72286 23.88747 176.69915 22.80917 177.67531 22.1191 178.6516 21.82422 179.62775 21.92628 180.60404 22.42401 181.58032 23.31256 182.55649 24.58759 183.53278 26.23164 184.50893 28.23601 185.48523 30.57538 186.46152 33.23666 187.43769 36.18716 188.41397 39.40678 189.39012 42.8611 190.36643 46.52263 191.34272 50.35687 192.31887 54.32808 193.29515 58.39919 194.2713 62.53485"/>
<use data-text="y" xlink:href="#font_3_4" transform="matrix(9.963098,0,0,-9.963397,1.6893845,48.63562)" fill="#0000ff" fill-opacity=".5"/>
<use data-text="=" xlink:href="#font_2_7" transform="matrix(9.963098,0,0,-9.963397,9.698784,48.63562)" fill="#0000ff" fill-opacity=".5"/>
<use data-text="s" xlink:href="#font_2_10" transform="matrix(9.963098,0,0,-9.963397,20.19989,48.63562)" fill="#0000ff" fill-opacity=".5"/>
<use data-text="i" xlink:href="#font_2_8" transform="matrix(9.963098,0,0,-9.963397,24.125344,48.63562)" fill="#0000ff" fill-opacity=".5"/>
<use data-text="n" xlink:href="#font_2_9" transform="matrix(9.963098,0,0,-9.963397,26.885132,48.63562)" fill="#0000ff" fill-opacity=".5"/>
<use data-text="x" xlink:href="#font_3_3" transform="matrix(9.963098,0,0,-9.963397,34.109,48.63562)" fill="#0000ff" fill-opacity=".5"/>
<path transform="matrix(1.00005,0,0,-1.00008,1.4703751,163.20578)" stroke-width=".99628" stroke-linecap="butt" stroke-miterlimit="10" stroke-linejoin="miter" fill="none" stroke="#ff0000" d="M0 76.71721 .97623 74.59724 1.95247 72.45547 2.9287 70.29494 3.90494 68.12308 4.88118 65.94467 5.85742 63.76625 6.83366 61.58916 7.80989 59.42252 8.78613 57.27116 9.76237 55.14117 10.7386 53.03604 11.71484 50.96144 12.69107 48.9235 13.66731 46.92612 14.64355 44.97496 15.6198 43.07529 16.59604 41.23232 17.57228 39.44911 18.54851 37.73134 19.52475 36.08118 20.50099 34.50516 21.47722 33.00679 22.45346 31.58913 23.42969 30.25652 24.40593 29.01201 25.38217 27.85782 26.35841 26.79826 27.33466 25.83382 28.3109 24.96838 29.28712 24.20503 30.26337 23.54462 31.23961 22.98976 32.21584 22.5396 33.19206 22.19717 34.1683 21.96207 35.14455 21.83557 36.12079 21.8168 37.09703 21.91016 38.07327 22.11124 39.0495 22.4192 40.02574 22.83578 41.00198 23.3588 41.97824 23.98561 42.95447 24.71713 43.9307 25.5503 44.90694 26.48332 45.88318 27.51453 46.85942 28.63864 47.83566 29.85521 48.8119 31.16077 49.78813 32.55095 50.76437 34.02446 51.74062 35.5769 52.71686 37.20352 53.69308 38.90079 54.66931 40.66394 55.64555 42.48901 56.6218 44.37082 57.59804 46.30626 58.57428 48.28925 59.5505 50.31454 60.52675 52.37868 61.50299 54.47508 62.47923 56.59766 63.45547 58.74377 64.4317 60.90607 65.40793 63.07924 66.38417 65.25851 67.36041 67.43736 68.33665 69.61229 69.31288 71.77588 70.28912 73.92505 71.26537 76.05243 72.24161 78.1532 73.21785 80.22255 74.19408 82.25397 75.1703 84.24393 76.14655 86.18678 77.12279 88.07861 78.09903 89.91286 79.07527 91.68733 80.0515 93.39465 81.02774 95.03172 82.00398 96.59554 82.98024 98.08081 83.95648 99.48627 84.93271 100.80579 85.90894 102.03719 86.88518 103.177 87.86142 104.22127 88.83766 105.16914 89.81389 106.01843 90.79013 106.76653 91.76637 107.4108 92.74261 107.9504 93.71886 108.38441 94.6951 108.7094 95.67131 108.92618 96.64755 109.03523H97.6238L98.6001 108.92706 99.57625 108.7107 100.55254 108.38573 101.52869 107.95213 102.50499 107.41124 103.4813 106.76784 104.45744 106.01974 105.43373 105.1709 106.40987 104.22302 107.38617 103.17874 108.36247 102.03938 109.33862 100.80884 110.31491 99.488 111.29106 98.08386 112.26736 96.59857 113.24367 95.03477 114.21982 93.39726 115.1961 91.68997 116.17227 89.9168 117.14854 88.08167 118.12485 86.1907 119.101 84.24785 120.0773 82.25789 121.05345 80.22647 122.02974 78.15712 123.00606 76.05592 123.9822 73.92897 124.9585 71.78067 125.93465 69.61621 126.91095 67.44173 127.88724 65.26245 128.86339 63.08316 129.83969 60.90999 130.81584 58.74771 131.79213 56.60158 132.76844 54.479 133.74459 52.3826 134.72089 50.31848 135.69704 48.2923 136.67333 46.3102 137.64962 44.37387 138.62577 42.49252 139.60207 40.66743 140.57822 38.90428 141.5545 37.20702 142.5308 35.57953 143.50696 34.02751 144.48326 32.55402 145.45941 31.16338 146.43572 29.85826 147.412 28.64081 148.38814 27.51584 149.36444 26.48552 150.34059 25.5516 151.3169 24.71846 152.29319 23.98694 153.26934 23.35966 154.24564 22.83708 155.22179 22.4205 156.19809 22.11124 157.17438 21.91058 158.15053 21.8168 159.12682 21.83557 160.10297 21.96207 161.07927 22.1963 162.05558 22.53915 163.03171 22.98845 164.00803 23.54417 164.98416 24.2033 165.96048 24.96709 166.93677 25.83208 167.9129 26.79565 168.88922 27.85606 169.86534 29.00984 170.84166 30.25389 171.81795 31.58652 172.7941 33.00417 173.7704 34.50253 174.74655 36.07854 175.72286 37.72784 176.69915 39.44606 177.67531 41.2284 178.6516 43.07137 179.62775 44.97191 180.60404 46.92174 181.58032 48.91957 182.55649 50.95752 183.53278 53.0321 184.50893 55.13724 185.48523 57.26723 186.46152 59.41904 187.43769 61.58566 188.41397 63.76147 189.39012 65.94075 190.36643 68.11914 191.34272 70.29102 192.31887 72.45154 193.29515 74.59418 194.2713 76.71329"/>
<use data-text="y" xlink:href="#font_3_4" transform="matrix(9.963098,0,0,-9.963397,4.779541,152.12889)" fill="#ff0000"/>
<use data-text="=" xlink:href="#font_2_7" transform="matrix(9.963098,0,0,-9.963397,12.78894,152.12889)" fill="#ff0000"/>
<use data-text="s" xlink:href="#font_2_10" transform="matrix(9.963098,0,0,-9.963397,23.290047,152.12889)" fill="#ff0000"/>
<use data-text="i" xlink:href="#font_2_8" transform="matrix(9.963098,0,0,-9.963397,27.2155,152.12889)" fill="#ff0000"/>
<use data-text="n" xlink:href="#font_2_9" transform="matrix(9.963098,0,0,-9.963397,29.975289,152.12889)" fill="#ff0000"/>
<use data-text="(" xlink:href="#font_4_1" transform="matrix(9.963098,0,0,-9.963397,37.199159,144.05826)" fill="#ff0000"/>
<use data-text="&#x03c0;" xlink:href="#font_5_1" transform="matrix(6.9741489,0,0,-6.974358,42.96044,148.20558)" fill="#ff0000"/>
<path transform="matrix(1.00005,0,0,-1.00008,-87.26806,7.512332)" stroke-width=".3985" stroke-linecap="butt" stroke-miterlimit="10" stroke-linejoin="miter" fill="none" stroke="#ff0000" d="M130.222-142.114H135.132"/>
<use data-text="6" xlink:href="#font_6_1" transform="matrix(6.9741489,0,0,-6.974358,43.429468,155.56417)" fill="#ff0000"/>
<use data-text="x" xlink:href="#font_3_3" transform="matrix(9.963098,0,0,-9.963397,49.065744,152.12889)" fill="#ff0000"/>
<use data-text=")" xlink:href="#font_4_2" transform="matrix(9.963098,0,0,-9.963397,54.760034,144.05826)" fill="#ff0000"/>
<path transform="matrix(1.00005,0,0,-1.00008,1.4703751,163.20578)" stroke-width=".3985" stroke-linecap="butt" stroke-dasharray="2.98883,2.98883" stroke-miterlimit="10" stroke-linejoin="miter" fill="none" stroke="#0000ff" stroke-opacity=".5" d="M66.46152 117.7755H130.70615"/>
<use data-text="p" xlink:href="#font_7_84" transform="matrix(9.963098,0,0,-9.963397,61.317369,39.967927)" fill="#0000ff" fill-opacity=".5"/>
<use data-text="e" xlink:href="#font_7_50" transform="matrix(9.963098,0,0,-9.963397,67.13582,39.967927)" fill="#0000ff" fill-opacity=".5"/>
<use data-text="r" xlink:href="#font_7_96" transform="matrix(9.963098,0,0,-9.963397,71.55943,39.967927)" fill="#0000ff" fill-opacity=".5"/>
<use data-text="i" xlink:href="#font_7_66" transform="matrix(9.963098,0,0,-9.963397,75.464969,39.967927)" fill="#0000ff" fill-opacity=".5"/>
<use data-text="o" xlink:href="#font_7_81" transform="matrix(9.963098,0,0,-9.963397,78.2347,39.967927)" fill="#0000ff" fill-opacity=".5"/>
<use data-text="d" xlink:href="#font_7_47" transform="matrix(9.963098,0,0,-9.963397,83.495227,39.967927)" fill="#0000ff" fill-opacity=".5"/>
<use data-text="=" xlink:href="#font_7_52" transform="matrix(9.963098,0,0,-9.963397,89.034709,39.967927)" fill="#0000ff" fill-opacity=".5"/>
<use data-text="2" xlink:href="#font_2_3" transform="matrix(9.963098,0,0,-9.963397,96.78613,39.967927)" fill="#0000ff" fill-opacity=".5"/>
<use data-text="&#x03c0;" xlink:href="#font_3_1" transform="matrix(9.963098,0,0,-9.963397,101.76739,39.967927)" fill="#0000ff" fill-opacity=".5"/>
<use data-text="&#x2248;" xlink:href="#font_1_2" transform="matrix(9.963098,0,0,-9.963397,110.57183,39.967927)" fill="#0000ff" fill-opacity=".5"/>
<use data-text="6" xlink:href="#font_2_5" transform="matrix(9.963098,0,0,-9.963397,121.088359,39.967927)" fill="#0000ff" fill-opacity=".5"/>
<use data-text="." xlink:href="#font_3_2" transform="matrix(9.963098,0,0,-9.963397,126.070598,39.967927)" fill="#0000ff" fill-opacity=".5"/>
<use data-text="2" xlink:href="#font_2_3" transform="matrix(9.963098,0,0,-9.963397,128.83774,39.967927)" fill="#0000ff" fill-opacity=".5"/>
<use data-text="8" xlink:href="#font_2_6" transform="matrix(9.963098,0,0,-9.963397,133.81928,39.967927)" fill="#0000ff" fill-opacity=".5"/>
<path transform="matrix(1.00005,0,0,-1.00008,1.4703751,163.20578)" stroke-width=".3985" stroke-linecap="butt" stroke-dasharray="2.98883,2.98883" stroke-miterlimit="10" stroke-linejoin="miter" fill="none" stroke="#0000ff" stroke-opacity=".5" d="M66.46152 65.43083V117.7755"/>
<path transform="matrix(1.00005,0,0,-1.00008,1.4703751,163.20578)" stroke-width=".3985" stroke-linecap="butt" stroke-dasharray="2.98883,2.98883" stroke-miterlimit="10" stroke-linejoin="miter" fill="none" stroke="#0000ff" stroke-opacity=".5" d="M130.70615 117.7755V65.43083"/>
<path transform="matrix(1.00005,0,0,-1.00008,1.4703751,163.20578)" stroke-width=".3985" stroke-linecap="butt" stroke-dasharray="2.98883,2.98883" stroke-miterlimit="10" stroke-linejoin="miter" fill="none" stroke="#ff0000" d="M66.46152 13.08617H189.15973"/>
<use data-text="p" xlink:href="#font_7_84" transform="matrix(9.963098,0,0,-9.963397,106.570629,160.55358)" fill="#ff0000"/>
<use data-text="e" xlink:href="#font_7_50" transform="matrix(9.963098,0,0,-9.963397,112.38908,160.55358)" fill="#ff0000"/>
<use data-text="r" xlink:href="#font_7_96" transform="matrix(9.963098,0,0,-9.963397,116.81269,160.55358)" fill="#ff0000"/>
<use data-text="i" xlink:href="#font_7_66" transform="matrix(9.963098,0,0,-9.963397,120.71822,160.55358)" fill="#ff0000"/>
<use data-text="o" xlink:href="#font_7_81" transform="matrix(9.963098,0,0,-9.963397,123.48796,160.55358)" fill="#ff0000"/>
<use data-text="d" xlink:href="#font_7_47" transform="matrix(9.963098,0,0,-9.963397,128.74848,160.55358)" fill="#ff0000"/>
<use data-text="=" xlink:href="#font_7_52" transform="matrix(9.963098,0,0,-9.963397,134.28797,160.55358)" fill="#ff0000"/>
<use data-text="1" xlink:href="#font_2_2" transform="matrix(9.963098,0,0,-9.963397,142.0394,160.55358)" fill="#ff0000"/>
<use data-text="2" xlink:href="#font_2_3" transform="matrix(9.963098,0,0,-9.963397,147.02094,160.55358)" fill="#ff0000"/>
<path transform="matrix(1.00005,0,0,-1.00008,1.4703751,163.20578)" stroke-width=".3985" stroke-linecap="butt" stroke-dasharray="2.98883,2.98883" stroke-miterlimit="10" stroke-linejoin="miter" fill="none" stroke="#ff0000" d="M66.46152 65.43083V13.08617"/>
<path transform="matrix(1.00005,0,0,-1.00008,1.4703751,163.20578)" stroke-width=".3985" stroke-linecap="butt" stroke-dasharray="2.98883,2.98883" stroke-miterlimit="10" stroke-linejoin="miter" fill="none" stroke="#ff0000" d="M189.15973 13.08617V65.43083"/>
<use data-text="x" xlink:href="#font_3_3" transform="matrix(9.963098,0,0,-9.963397,186.53763,94.24927)"/>
<use data-text="y" xlink:href="#font_3_4" transform="matrix(9.963098,0,0,-9.963397,71.45487,9.606491)"/>
</svg>
