<svg xmlns="http://www.w3.org/2000/svg" xmlns:xlink="http://www.w3.org/1999/xlink" xmlns:inkscape="http://www.inkscape.org/namespaces/inkscape" version="1.1" width="198" height="165" viewBox="0 0 198 165">
<defs>
<path id="font_1_1" d="M.6589966 .23046875C.6759949 .23046875 .69400027 .23046875 .69400027 .25045777 .69400027 .27046205 .6759949 .27046205 .6589966 .27046205H.117996219C.100997928 .27046205 .08299255 .27046205 .08299255 .25045777 .08299255 .23046875 .100997928 .23046875 .117996219 .23046875H.6589966Z"/>
<path id="font_2_1" d="M.31098939 .36265565H.42999269C.4149933 .30274964 .3929901 .2118988 .3929901 .13302613 .3929901 .09309387 .397995 .06613159 .4039917 .044174196 .41999818-.0057678224 .43299867-.009765625 .44898988-.009765625 .47200013-.009765625 .49598695 .011230469 .49598695 .035186769 .49598695 .043182374 .49398805 .047164918 .48799134 .057159425 .46899415 .09408569 .45098878 .15100098 .45098878 .23286438 .45098878 .25183106 .45098878 .29177857 .46499635 .36265565H.58999636C.60798647 .36265565 .6159973 .36265565 .6269989 .37065126 .6409912 .380661 .6439972 .39665223 .6439972 .4016571 .6439972 .43066407 .6179962 .43066407 .6009979 .43066407H.22399903C.18299866 .43066407 .15499878 .42166139 .10998535 .37965394 .083999637 .35665895 .04499817 .30274964 .04499817 .2937622 .04499817 .28178407 .057998659 .28178407 .06199646 .28178407 .07299805 .28178407 .07398987 .28378297 .07998657 .2927704 .1309967 .36265565 .19299317 .36265565 .21499634 .36265565H.27598573C.24499512 .25283814 .19099427 .13502503 .16099549 .07511902 .15499878 .062149049 .14498902 .04118347 .14199829 .03718567 .14099121 .033187868 .13899231 .029190064 .13899231 .022201539 .13899231 .006225586 .15098572-.009765625 .17399597-.009765625 .21398926-.009765625 .22499085 .035186769 .24899292 .12504578L.31098939 .36265565Z"/>
<path id="font_3_1" d="M.5049896 .18203736H.47099305C.46798707 .16001892 .45799256 .100997928 .44499208 .09098816 .43699647 .084991458 .3600006 .084991458 .34599305 .084991458H.1619873C.2669983 .17803955 .3019867 .20603943 .3619995 .25306703 .43598939 .312088 .5049896 .374115 .5049896 .46914674 .5049896 .5900879 .39898683 .6640625 .2709961 .6640625 .14698792 .6640625 .06298828 .57710269 .06298828 .4851532 .06298828 .43414308 .10598755 .42915345 .115997318 .42915345 .13999939 .42915345 .16899109 .44615174 .16899109 .48214723 .16899109 .5001526 .1619873 .53515627 .10998535 .53515627 .14099121 .6060791 .20899964 .62805178 .2559967 .62805178 .35598756 .62805178 .4079895 .5501404 .4079895 .46914674 .4079895 .38212586 .34599305 .3130951 .31399537 .27708436L.07299805 .038986207C.06298828 .02999878 .06298828 .027999878 .06298828 0H.47499085L.5049896 .18203736Z"/>
<path id="font_3_2" d="M.272995 .33428956C.35099793 .33428956 .40699769 .2803192 .40699769 .1733551 .40699769 .04940796 .33499146 .012466431 .2769928 .012466431 .23699951 .012466431 .14898682 .0234375 .10699463 .082351688 .1539917 .084350589 .16499329 .11735535 .16499329 .13835144 .16499329 .17034912 .14099121 .19335938 .10998535 .19335938 .08198547 .19335938 .053985597 .17634583 .053985597 .13534546 .053985597 .041412355 .1579895-.01953125 .2789917-.01953125 .41799928-.01953125 .5139923 .07336426 .5139923 .1733551 .5139923 .2513275 .44999696 .32929994 .33999635 .35229493 .44499208 .39024354 .48298646 .4650879 .48298646 .5260773 .48298646 .60505679 .3919983 .6640625 .2809906 .6640625 .16999817 .6640625 .084991458 .61006167 .084991458 .5300751 .084991458 .49606324 .10699463 .47706605 .13699341 .47706605 .16799927 .47706605 .18798828 .5000763 .18798828 .5280762 .18798828 .5570679 .16799927 .57806399 .13699341 .5800781 .17199707 .62405398 .24099732 .63505557 .27799989 .63505557 .32299806 .63505557 .38598634 .6130676 .38598634 .5260773 .38598634 .48406983 .37199403 .43814088 .34599305 .4072113 .31298829 .36927796 .2849884 .3672943 .23498535 .36428834 .20999146 .3623047 .20799256 .3623047 .20298767 .3612976 .20098877 .3612976 .19299317 .3592987 .19299317 .34829713 .19299317 .33428956 .20199585 .33428956 .21899414 .33428956H.272995Z"/>
<path id="font_3_3" d="M.5289917 .1640625V.20005799H.41799928V.64582827C.41799928 .66682437 .41799928 .6738281 .3959961 .6738281 .38398744 .6738281 .37998963 .6738281 .36999513 .65982058L.038986207 .20005799V.1640625H.33299256V.08201599C.33299256 .04800415 .33299256 .035995485 .2519989 .035995485H.22499085V0C.2749939 .0019989014 .33898927 .0039978029 .375 .0039978029 .4119873 .0039978029 .47599793 .0019989014 .526001 0V.035995485H.49899293C.41799928 .035995485 .41799928 .04800415 .41799928 .08201599V.1640625H.5289917M.33999635 .5658722V.20005799H.07598877L.33999635 .5658722Z"/>
<path id="font_3_4" d="M.1499939 .3274536C.1499939 .40945436 .15699768 .48303224 .19499207 .543869 .22898865 .5978699 .2829895 .63505557 .34700013 .63505557 .3769989 .63505557 .4169922 .62701418 .43699647 .5998688 .4119873 .5978699 .3909912 .5808716 .3909912 .5518799 .3909912 .5268707 .4079895 .5048828 .43798829 .5048828 .46798707 .5048828 .48599244 .5248718 .48599244 .5538788 .48599244 .6119385 .44400025 .6640625 .34498597 .6640625 .20098877 .6640625 .053985597 .5318756 .053985597 .3174591 .053985597 .05845642 .17599488-.01953125 .28599549-.01953125 .4079895-.01953125 .5139923 .07345581 .5139923 .20445252 .5139923 .33145143 .41299439 .42546083 .29599 .42546083 .21598816 .42546083 .17199707 .37245179 .1499939 .3274536M.28599549 .012466431C.23599243 .012466431 .19699097 .04145813 .17599488 .08546448 .16099549 .11546326 .15299988 .16545105 .15299988 .22544861 .15299988 .32244874 .21099854 .39746095 .29100038 .39746095 .33699037 .39746095 .36799623 .37945558 .3929901 .342453 .4169922 .30445863 .41799928 .26245118 .41799928 .20445252 .41799928 .14746094 .41799928 .10545349 .3909912 .066467288 .36698915 .031463624 .33499146 .012466431 .28599549 .012466431Z"/>
<path id="font_1_2" d="M.3889923-.8549652 .21299744-.4659729C.20599365-.44996644 .20098877-.44996644 .19799805-.44996644 .19699097-.44996644 .19198609-.44996644 .18099976-.45796205L.085998538-.52996829C.07299805-.53996279 .07299805-.54296877 .07299805-.54597476 .07299805-.55096438 .07598877-.55696108 .08299255-.55696108 .08898926-.55696108 .10598755-.54296877 .116989139-.53497317 .12298584-.52996829 .13798523-.5189667 .14898682-.51097109L.34599305-.9439697C.35299684-.95996096 .35798646-.95996096 .36698915-.95996096 .38198854-.95996096 .3849945-.95396426 .3919983-.9399719L.84599307 .000030517579C.8529968 .014038086 .8529968 .018035889 .8529968 .02003479 .8529968 .030029297 .8450012 .040039064 .83299258 .040039064 .82499697 .040039064 .81799319 .03503418 .80999758 .01902771L.3889923-.8549652Z"/>
<path id="font_4_4" d="M.2899933 .35191346C.37199403 .37893678 .42999269 .4490509 .42999269 .52809146 .42999269 .6100464 .34199525 .6660156 .24598694 .6660156 .14498902 .6660156 .068984989 .60606387 .068984989 .53009036 .068984989 .49710084 .09098816 .47808839 .11999512 .47808839 .15098572 .47808839 .17098999 .50009158 .17098999 .5290985 .17098999 .57910159 .12399292 .57910159 .10899353 .57910159 .13999939 .62802127 .20599365 .64100649 .24198914 .64100649 .2829895 .64100649 .33799745 .6190338 .33799745 .5290985 .33799745 .51708987 .33599855 .45906068 .30999757 .4149933 .27999879 .36691285 .24598694 .36390687 .22099304 .36291505 .21299744 .36190797 .18899536 .35990907 .18199158 .35990907 .17399597 .35890199 .16699219 .35791017 .16699219 .3479004 .16699219 .33691407 .17399597 .33691407 .19099427 .33691407H.23498535C.31698609 .33691407 .35398866 .2686615 .35398866 .17037964 .35398866 .034469606 .2849884 .0055389406 .24099732 .0055389406 .19799805 .0055389406 .12298584 .022491456 .08799744 .08137512 .12298584 .07637024 .1539917 .09837341 .1539917 .1363678 .1539917 .17237854 .1269989 .19238281 .09799194 .19238281 .07398987 .19238281 .041992189 .17837525 .041992189 .1343689 .041992189 .043441774 .1349945-.022460938 .24398804-.022460938 .3659973-.022460938 .45700074 .06838989 .45700074 .17037964 .45700074 .252594 .3939972 .33088685 .2899933 .35191346Z"/>
<path id="font_4_3" d="M.2939911 .64004519C.2939911 .66400149 .2939911 .6660156 .2709961 .6660156 .20899964 .60227969 .12098694 .60227969 .08898926 .60227969V.57128909C.10899353 .57128909 .16799927 .57128909 .21998596 .5972748V.07902527C.21998596 .042999269 .21699524 .0309906 .1269989 .0309906H.09498596V0C.12998963 .0029907227 .21699524 .0029907227 .25698854 .0029907227 .29699708 .0029907227 .38398744 .0029907227 .4189911 0V.0309906H.3869934C.29699708 .0309906 .2939911 .041992189 .2939911 .07902527V.64004519Z"/>
<path id="font_5_1" d="M.44299317-.84217837 .24699402-.45318605C.24198914-.44317628 .23899842-.43717958 .23098755-.43717958 .22698975-.43717958 .22499085-.43717958 .21499634-.44517518L.10798645-.5161743C.09399414-.525177 .09399414-.5301819 .09399414-.5331726 .09399414-.5391846 .09899902-.5471802 .10798645-.5471802 .11199951-.5471802 .11399841-.5471802 .1269989-.5381775 .13798523-.5301819 .16699219-.5101776 .1789856-.502182L.397995-.9341736C.40499879-.949173 .40699769-.9511719 .42099-.9511719 .42999269-.9511719 .44099427-.9511719 .45098878-.9321747L.95399478 .003829956C.96199038 .016815186 .96199038 .018829346 .96199038 .02381897 .96199038 .03982544 .94898989 .048828126 .9379883 .048828126 .9229889 .048828126 .91799929 .03982544 .9119873 .027816773L.44299317-.84217837Z"/>
<path id="font_6_2" d="M.48599244 .38136292C.48999024 .39537049 .48999024 .39736939 .48999024 .40437318 .48999024 .42237855 .47599793 .43138124 .46099855 .43138124 .45098878 .43138124 .43499757 .42536927 .42599488 .41036988 .42399598 .405365 .41600038 .37435914 .4119873 .35635377 .40499879 .33035279 .397995 .30334474 .3919983 .27633668L.34700013 .09628296C.34298707 .08126831 .2999878 .011245728 .23399353 .011245728 .18299866 .011245728 .17199707 .055267335 .17199707 .0922699 .17199707 .1382904 .18899536 .20030213 .22299195 .28833009 .23899842 .3293457 .24299622 .3403473 .24299622 .36035157 .24299622 .405365 .21099854 .4423828 .16099549 .4423828 .06599426 .4423828 .0289917 .29733277 .0289917 .28833009 .0289917 .27833558 .038986207 .27833558 .040985109 .27833558 .050994874 .27833558 .051986696 .28033448 .056991579 .29634095 .083999637 .3903656 .12399292 .42037965 .1579895 .42037965 .1659851 .42037965 .18299866 .42037965 .18299866 .3883667 .18299866 .36335755 .17298889 .3373413 .1659851 .31834413 .12599182 .21231079 .10798645 .1552887 .10798645 .10827637 .10798645 .019256592 .17098999-.0107421879 .22999573-.0107421879 .2689972-.0107421879 .30299378 .0062561037 .33099366 .03425598 .31799317-.017745972 .30599977-.06674194 .2659912-.11973572 .23999024-.15385437 .20199585-.18309021 .1559906-.18309021 .14199829-.18309021 .09700012-.18005371 .07998657-.14074707 .09599304-.14074707 .10899353-.14074707 .12298584-.1287384 .1329956-.11973572 .14299011-.10673523 .14299011-.08773804 .14299011-.056747438 .115997318-.052734376 .10598755-.052734376 .08299255-.052734376 .049987794-.068740848 .049987794-.11773682 .049987794-.16796875 .09399414-.20507813 .1559906-.20507813 .25898744-.20507813 .3619995-.11373901 .3899994-.00074768069L.48599244 .38136292Z"/>
<path id="font_4_5" d="M.68699648 .32714845C.70199587 .32714845 .72099307 .32714845 .72099307 .34713746 .72099307 .36714173 .70199587 .36714173 .6879883 .36714173H.08898926C.07499695 .36714173 .055999757 .36714173 .055999757 .34713746 .055999757 .32714845 .07499695 .32714845 .08999634 .32714845H.68699648M.6879883 .13284302C.70199587 .13284302 .72099307 .13284302 .72099307 .15284729 .72099307 .17285156 .70199587 .17285156 .68699648 .17285156H.08999634C.07499695 .17285156 .055999757 .17285156 .055999757 .15284729 .055999757 .13284302 .07499695 .13284302 .08898926 .13284302H.6879883Z"/>
<path id="font_4_8" d="M.17298889 .3996582H.31599427V.43066407H.17298889V.6147156H.147995C.14698792 .5326996 .116989139 .42565919 .018997193 .42166139V.3996582H.10398865V.12416077C.10398865 .0012512207 .19699097-.0107421879 .23298645-.0107421879 .3039856-.0107421879 .33198548 .06021118 .33198548 .12416077V.18112183H.30699159V.12615967C.30699159 .052215578 .2769928 .014251709 .23999024 .014251709 .17298889 .014251709 .17298889 .10517883 .17298889 .122161868V.3996582Z"/>
<path id="font_4_6" d="M.33299256 .076156619C.33699037 .036132814 .3639984-.005859375 .41099549-.005859375 .43199159-.005859375 .49299623 .008132935 .49299623 .089157108V.14518738H.46798707V.089157108C.46798707 .031143189 .44299317 .025131226 .43199159 .025131226 .39898683 .025131226 .394989 .07015991 .394989 .075149539V.27514649C.394989 .31707765 .394989 .3560791 .35899354 .39312745 .31999208 .43223573 .269989 .4482422 .22200012 .4482422 .13999939 .4482422 .070999149 .40115357 .070999149 .335083 .070999149 .30508424 .09098816 .28808595 .116989139 .28808595 .14498902 .28808595 .16299439 .30807496 .16299439 .33407594 .16299439 .3460846 .1579895 .3790741 .11199951 .38008119 .13899231 .41519166 .18798828 .426239 .21998596 .426239 .2689972 .426239 .32598878 .38710023 .32598878 .29808045V.26123048C.2749939 .2582245 .20498657 .25523377 .14199829 .22523499 .066986087 .1912384 .041992189 .13923645 .041992189 .09524536 .041992189 .014251709 .13899231-.0107421879 .20199585-.0107421879 .2679901-.010864258 .31399537 .029129029 .33299256 .076156619M.32598878 .24023438V.1401825C.32598878 .045135499 .2539978 .011138916 .20899964 .011138916 .1599884 .011138916 .11898804 .046142579 .11898804 .09616089 .11898804 .15118408 .16099549 .23422241 .32598878 .24023438Z"/>
<path id="font_4_7" d="M.10998535 .34429933V.076034549C.10998535 .0309906 .09899902 .0309906 .03199768 .0309906V0C.066986087 .0009918213 .117996219 .0029907227 .14498902 .0029907227 .17098999 .0029907227 .22299195 .0009918213 .25698854 0V.0309906C.18998719 .0309906 .1789856 .0309906 .1789856 .076034549V.2602234C.1789856 .36431886 .25 .42037965 .31399537 .42037965 .3769989 .42037965 .3880005 .36631776 .3880005 .30926515V.076034549C.3880005 .0309906 .3769989 .0309906 .30999757 .0309906V0C.34498597 .0009918213 .3959961 .0029907227 .4229889 .0029907227 .44898988 .0029907227 .5009918 .0009918213 .5349884 0V.0309906C.48298646 .0309906 .45799256 .0309906 .45700074 .061019899V.25221253C.45700074 .3383026 .45700074 .36932374 .42599488 .405365 .4119873 .42237855 .3789978 .4423828 .32099916 .4423828 .24798584 .4423828 .20098877 .39935304 .17298889 .33729554V.4423828L.03199768 .43138124V.40037538C.101989749 .4003601 .10998535 .39335633 .10998535 .34429933Z"/>
<path id="font_4_1" d="M.33099366-.2400055C.33099366-.23701477 .33099366-.23500061 .31399537-.21800232 .18899536-.0920105 .15699768 .09700012 .15699768 .25 .15699768 .42399598 .19499207 .59799197 .31799317 .72299197 .33099366 .73498538 .33099366 .7369995 .33099366 .73999026 .33099366 .746994 .32699586 .75 .32099916 .75 .31098939 .75 .22099304 .6819916 .1619873 .5549927 .11099243 .44499208 .09899902 .33399964 .09899902 .25 .09899902 .17199707 .10998535 .050994874 .16499329-.06201172 .22499085-.18501282 .31098939-.25 .32099916-.25 .32699586-.25 .33099366-.24700928 .33099366-.2400055Z"/>
<path id="font_6_1" d="M.33399964 .30233766C.33999635 .32835389 .36299134 .42037965 .43299867 .42037965 .43798829 .42037965 .46199037 .42037965 .48298646 .40734864 .45498658 .402359 .43499757 .37734986 .43499757 .35334779 .43499757 .33735658 .44599916 .31835938 .47299195 .31835938 .49499513 .31835938 .5269928 .3363495 .5269928 .37635804 .5269928 .42837525 .46798707 .4423828 .43399049 .4423828 .37599183 .4423828 .34098817 .38935853 .32899476 .36634828 .3039856 .43237306 .25 .4423828 .22099304 .4423828 .116989139 .4423828 .05999756 .3133545 .05999756 .28834535 .05999756 .27833558 .069992069 .27833558 .07199097 .27833558 .07998657 .27833558 .08299255 .28033448 .084991458 .28933717 .11898804 .39535523 .18499756 .42037965 .21899414 .42037965 .23799134 .42037965 .272995 .4113617 .272995 .35334779 .272995 .32235719 .2559967 .25532533 .21899414 .11528015 .20298767 .053268434 .16799927 .011245728 .12399292 .011245728 .117996219 .011245728 .09498596 .011245728 .07398987 .024276734 .09899902 .029266358 .12098694 .05027771 .12098694 .07827759 .12098694 .105270389 .09899902 .11328125 .083999637 .11328125 .053985597 .11328125 .0289917 .08728027 .0289917 .055267335 .0289917 .009246826 .07899475-.0107421879 .12298584-.0107421879 .18899536-.0107421879 .22499085 .059280397 .22799683 .0652771 .23999024 .028274537 .27598573-.0107421879 .33599855-.0107421879 .43899537-.0107421879 .49598695 .118270877 .49598695 .14328003 .49598695 .1532898 .4869995 .1532898 .48399354 .1532898 .47499085 .1532898 .47299195 .14929199 .47099305 .14228821 .43798829 .03527832 .36999513 .011245728 .33799745 .011245728 .29899598 .011245728 .2829895 .043273927 .2829895 .07727051 .2829895 .09927368 .2889862 .121276859 .2999878 .16529846L.33399964 .30233766Z"/>
<path id="font_4_2" d="M.2889862 .25C.2889862 .32798768 .27799989 .44898988 .22299195 .56199648 .16299439 .68499758 .07699585 .75 .066986087 .75 .06098938 .75 .056991579 .74598696 .056991579 .73999026 .056991579 .7369995 .056991579 .73498538 .07598877 .71699526 .17399597 .6179962 .23098755 .45899964 .23098755 .25 .23098755 .07899475 .19400025-.09700012 .069992069-.2230072 .056991579-.23500061 .056991579-.23701477 .056991579-.2400055 .056991579-.2460022 .06098938-.25 .066986087-.25 .07699585-.25 .16699219-.18200684 .22599793-.055007936 .2769928 .054992677 .2889862 .16600037 .2889862 .25Z"/>
</defs>
<path transform="matrix(1.00002,0,0,-1.00005,1.095665,163.20035)" stroke-width=".19925" stroke-linecap="butt" stroke-miterlimit="10" stroke-linejoin="miter" fill="none" stroke="#7f807f" d="M23.45436 79.28049V82.11525M170.82193 79.28049V82.11525"/>
<path transform="matrix(1.00002,0,0,-1.00005,1.095665,163.20035)" stroke-width=".19925" stroke-linecap="butt" stroke-miterlimit="10" stroke-linejoin="miter" fill="none" stroke="#7f807f" d="M23.45436 78.57199V82.82373M48.0153 78.57199V82.82373M60.29648 78.57199V82.82373M72.5772 78.57199V82.82373M121.6991 78.57199V82.82373M133.9798 78.57199V82.82373M146.26097 78.57199V82.82373M170.82193 78.57199V82.82373"/>
<path transform="matrix(1.00002,0,0,-1.00005,1.095665,163.20035)" stroke-width=".19925" stroke-linecap="butt" stroke-miterlimit="10" stroke-linejoin="miter" fill="none" stroke="#7f807f" d="M95.01228 17.1657H99.264M95.01228 44.01701H99.264M95.01228 59.5209H99.264M95.01228 101.87482H99.264M95.01228 117.37872H99.264M95.01228 144.23003H99.264"/>
<path transform="matrix(1.00002,0,0,-1.00005,1.095665,163.20035)" stroke-width=".3985" stroke-linecap="butt" stroke-miterlimit="10" stroke-linejoin="miter" fill="none" stroke="#000000" d="M0 80.69788H192.28379"/>
<path transform="matrix(1.00002,0,0,-1.00005,193.3833,82.498439)" d="M1.99252 0-1.19551 1.59401 0 0-1.19551-1.59401"/>
<path transform="matrix(1.00002,0,0,-1.00005,1.095665,163.20035)" stroke-width=".3985" stroke-linecap="butt" stroke-miterlimit="10" stroke-linejoin="miter" fill="none" stroke="#000000" d="M97.13814 0V159.40323"/>
<path transform="matrix(0,-1.00005,-1.00002,-0,98.23575,3.789154)" d="M1.99252 0-1.19551 1.59401 0 0-1.19551-1.59401"/>
<use data-text="&#x2212;" xlink:href="#font_1_1" transform="matrix(9.962799,0,0,-9.963098,17.025986,95.06995)"/>
<use data-text="&#x03c0;" xlink:href="#font_2_1" transform="matrix(6.97394,0,0,-6.9741489,25.970162,91.14674)"/>
<path transform="matrix(1.00002,0,0,-1.00005,-66.27068,-51.9384)" stroke-width=".3985" stroke-linecap="butt" stroke-miterlimit="10" stroke-linejoin="miter" fill="none" stroke="#000000" d="M92.239-144.51H97.148"/>
<use data-text="2" xlink:href="#font_3_1" transform="matrix(6.97394,0,0,-6.9741489,26.43917,98.5061)"/>
<use data-text="&#x2212;" xlink:href="#font_1_1" transform="matrix(9.962799,0,0,-9.963098,41.58748,95.06995)"/>
<use data-text="&#x03c0;" xlink:href="#font_2_1" transform="matrix(6.97394,0,0,-6.9741489,50.531656,91.14674)"/>
<path transform="matrix(1.00002,0,0,-1.00005,-41.70919,-51.9384)" stroke-width=".3985" stroke-linecap="butt" stroke-miterlimit="10" stroke-linejoin="miter" fill="none" stroke="#000000" d="M92.239-144.51H97.148"/>
<use data-text="3" xlink:href="#font_3_2" transform="matrix(6.97394,0,0,-6.9741489,51.000665,98.5061)"/>
<use data-text="&#x2212;" xlink:href="#font_1_1" transform="matrix(9.962799,0,0,-9.963098,53.86872,95.06995)"/>
<use data-text="&#x03c0;" xlink:href="#font_2_1" transform="matrix(6.97394,0,0,-6.9741489,62.812898,91.14674)"/>
<path transform="matrix(1.00002,0,0,-1.00005,-29.427948,-51.9384)" stroke-width=".3985" stroke-linecap="butt" stroke-miterlimit="10" stroke-linejoin="miter" fill="none" stroke="#000000" d="M92.239-144.51H97.148"/>
<use data-text="4" xlink:href="#font_3_3" transform="matrix(6.97394,0,0,-6.9741489,63.281908,98.5061)"/>
<use data-text="&#x2212;" xlink:href="#font_1_1" transform="matrix(9.962799,0,0,-9.963098,66.14997,95.06995)"/>
<use data-text="&#x03c0;" xlink:href="#font_2_1" transform="matrix(6.97394,0,0,-6.9741489,75.09415,91.14674)"/>
<path transform="matrix(1.00002,0,0,-1.00005,-17.146698,-51.9384)" stroke-width=".3985" stroke-linecap="butt" stroke-miterlimit="10" stroke-linejoin="miter" fill="none" stroke="#000000" d="M92.239-144.51H97.148"/>
<use data-text="6" xlink:href="#font_3_4" transform="matrix(6.97394,0,0,-6.9741489,75.563159,98.5061)"/>
<use data-text="&#x03c0;" xlink:href="#font_2_1" transform="matrix(6.97394,0,0,-6.9741489,120.343059,91.14674)"/>
<path transform="matrix(1.00002,0,0,-1.00005,35.850366,-51.9384)" stroke-width=".3985" stroke-linecap="butt" stroke-miterlimit="10" stroke-linejoin="miter" fill="none" stroke="#000000" d="M84.491-144.51H89.4"/>
<use data-text="6" xlink:href="#font_3_4" transform="matrix(6.97394,0,0,-6.9741489,120.812068,98.5061)"/>
<use data-text="&#x03c0;" xlink:href="#font_2_1" transform="matrix(6.97394,0,0,-6.9741489,132.6243,91.14674)"/>
<path transform="matrix(1.00002,0,0,-1.00005,48.131608,-51.9384)" stroke-width=".3985" stroke-linecap="butt" stroke-miterlimit="10" stroke-linejoin="miter" fill="none" stroke="#000000" d="M84.491-144.51H89.4"/>
<use data-text="4" xlink:href="#font_3_3" transform="matrix(6.97394,0,0,-6.9741489,133.0933,98.5061)"/>
<use data-text="&#x03c0;" xlink:href="#font_2_1" transform="matrix(6.97394,0,0,-6.9741489,144.90554,91.14674)"/>
<path transform="matrix(1.00002,0,0,-1.00005,60.41284,-51.9384)" stroke-width=".3985" stroke-linecap="butt" stroke-miterlimit="10" stroke-linejoin="miter" fill="none" stroke="#000000" d="M84.491-144.51H89.4"/>
<use data-text="3" xlink:href="#font_3_2" transform="matrix(6.97394,0,0,-6.9741489,145.37454,98.5061)"/>
<use data-text="&#x03c0;" xlink:href="#font_2_1" transform="matrix(6.97394,0,0,-6.9741489,169.46703,91.14674)"/>
<path transform="matrix(1.00002,0,0,-1.00005,84.974338,-51.9384)" stroke-width=".3985" stroke-linecap="butt" stroke-miterlimit="10" stroke-linejoin="miter" fill="none" stroke="#000000" d="M84.491-144.51H89.4"/>
<use data-text="2" xlink:href="#font_3_1" transform="matrix(6.97394,0,0,-6.9741489,169.93604,98.5061)"/>
<use data-text="&#x2212;" xlink:href="#font_1_1" transform="matrix(9.962799,0,0,-9.963098,71.557079,149.89168)"/>
<use data-text="&#x221a;" xlink:href="#font_1_2" transform="matrix(9.962799,0,0,-9.963098,79.30623,141.65027)"/>
<path transform="matrix(1.00002,0,0,-1.00005,-11.7395939,2.883337)" stroke-width=".3985" stroke-linecap="butt" stroke-miterlimit="10" stroke-linejoin="miter" fill="none" stroke="#000000" d="M99.346-138.561H104.327"/>
<use data-text="3" xlink:href="#font_4_4" transform="matrix(9.962799,0,0,-9.963098,87.6084,149.89168)"/>
<use data-text="&#x2212;" xlink:href="#font_1_1" transform="matrix(9.962799,0,0,-9.963098,79.859249,121.97629)"/>
<use data-text="1" xlink:href="#font_4_3" transform="matrix(9.962799,0,0,-9.963098,87.6084,121.97629)"/>
<use data-text="&#x2212;" xlink:href="#font_1_1" transform="matrix(9.962799,0,0,-9.963098,71.93308,107.159549)"/>
<use data-text="&#x221a;" xlink:href="#font_5_1" transform="matrix(6.97394,0,0,-6.9741489,80.87726,97.436069)"/>
<path transform="matrix(1.00002,0,0,-1.00005,-11.363586,-39.848798)" stroke-width=".3387" stroke-linecap="butt" stroke-miterlimit="10" stroke-linejoin="miter" fill="none" stroke="#000000" d="M98.784-137.108H102.756"/>
<use data-text="3" xlink:href="#font_3_2" transform="matrix(6.97394,0,0,-6.9741489,87.422389,103.21234)"/>
<path transform="matrix(1.00002,0,0,-1.00005,-11.363586,-39.848798)" stroke-width=".3985" stroke-linecap="butt" stroke-miterlimit="10" stroke-linejoin="miter" fill="none" stroke="#000000" d="M92.239-144.51H102.756"/>
<use data-text="3" xlink:href="#font_3_2" transform="matrix(6.97394,0,0,-6.9741489,84.15033,110.5957)"/>
<use data-text="&#x221a;" xlink:href="#font_5_1" transform="matrix(6.97394,0,0,-6.9741489,80.87826,55.07994)"/>
<path transform="matrix(1.00002,0,0,-1.00005,-3.6144334,-82.20491)" stroke-width=".3387" stroke-linecap="butt" stroke-miterlimit="10" stroke-linejoin="miter" fill="none" stroke="#000000" d="M91.036-137.108H95.007"/>
<use data-text="3" xlink:href="#font_3_2" transform="matrix(6.97394,0,0,-6.9741489,87.42339,60.85623)"/>
<path transform="matrix(1.00002,0,0,-1.00005,-3.6144334,-82.20491)" stroke-width=".3985" stroke-linecap="butt" stroke-miterlimit="10" stroke-linejoin="miter" fill="none" stroke="#000000" d="M84.491-144.51H95.007"/>
<use data-text="3" xlink:href="#font_3_2" transform="matrix(6.97394,0,0,-6.9741489,84.15032,68.23959)"/>
<use data-text="1" xlink:href="#font_4_3" transform="matrix(9.962799,0,0,-9.963098,87.6084,49.02665)"/>
<use data-text="&#x221a;" xlink:href="#font_1_2" transform="matrix(9.962799,0,0,-9.963098,79.30623,14.579926)"/>
<path transform="matrix(1.00002,0,0,-1.00005,-3.9904404,-124.187)" stroke-width=".3985" stroke-linecap="butt" stroke-miterlimit="10" stroke-linejoin="miter" fill="none" stroke="#000000" d="M91.597-138.561H96.579"/>
<use data-text="3" xlink:href="#font_4_4" transform="matrix(9.962799,0,0,-9.963098,87.60839,22.82135)"/>
<path transform="matrix(1.00002,0,0,-1.00005,1.095665,163.20035)" stroke-width=".99628" stroke-linecap="butt" stroke-miterlimit="10" stroke-linejoin="miter" fill="none" stroke="#0000ff" d="M48.0153 17.16333 48.509 18.68192 49.00269 20.14548 49.49638 21.55585 49.99008 22.92441 50.48378 24.2475 50.97748 25.5262 51.47118 26.76526 51.96487 27.9673 52.45857 29.13374 52.95226 30.26498 53.44595 31.36725 53.93965 32.43578 54.43335 33.47566 54.92703 34.48805 55.42073 35.47295 55.91443 36.43398 56.40813 37.37007 56.90182 38.2849 57.39552 39.17624 57.88922 40.04631 58.38292 40.8973 58.8766 41.72775 59.3703 42.5406 59.864 43.33475 60.3577 44.11311 60.85138 44.87534 61.34508 45.62216 61.83878 46.35321 62.33249 47.07068 62.82617 47.77423 63.31987 48.46494 63.81357 49.1439 64.30727 49.80891 64.80095 50.46184 65.29465 51.10558 65.78835 51.73833 66.28204 52.35933 66.77573 52.97191 67.26942 53.57347 67.76314 54.16551 68.25684 54.74983 68.75052 55.32425 69.24422 55.89133 69.73792 56.44962 70.23161 56.99983 70.7253 57.54381 71.219 58.08008 71.71269 58.60976 72.20639 59.13245 72.70007 59.64856 73.19377 60.15768 73.68748 60.66315 74.18118 61.16237 74.67487 61.6539 75.16856 62.14212 75.66226 62.62373 76.15596 63.10132 76.64964 63.57413 77.14334 64.04146 77.63704 64.50546 78.13074 64.9647 78.62442 65.41956 79.11813 65.87073 79.61183 66.31786 80.10553 66.7617 80.59921 67.20114 81.09291 67.63838 81.58661 68.07195 82.0803 68.50148 82.57399 68.9288 83.06769 69.35321 83.56139 69.77504 84.05508 70.1943 84.54878 70.61063 85.04248 71.02513 85.53618 71.43706 86.02988 71.84677 86.52356 72.25357 87.01726 72.65887 87.51096 73.06238 88.00465 73.4644 88.49834 73.86494 88.99203 74.26404 89.48573 74.66093 89.97943 75.05597 90.47313 75.45067 90.96683 75.84462 91.46053 76.23637 91.95422 76.62775 92.4479 77.01819 92.9416 77.40825 93.4353 77.79713 93.929 78.18437 94.42268 78.5722 94.91638 78.95973 95.41008 79.34705 95.9038 79.73279 96.39748 80.11896 96.89117 80.50491 97.38487 80.89044 97.8786 81.27676 98.37224 81.66257 98.86597 82.04868 99.35962 82.43562 99.85335 82.82278 100.34706 83.2106 100.84071 83.59898 101.33444 83.98747 101.8281 84.37714 102.32182 84.76761 102.81555 85.15935 103.30919 85.55074 103.80293 85.9447 104.29657 86.33939 104.7903 86.73442 105.28403 87.13168 105.77766 87.53078 106.2714 87.93022 106.76505 88.333 107.25879 88.73647 107.75252 89.1418 108.24615 89.54895 108.73988 89.95868 109.23354 90.37132 109.72726 90.7851 110.22098 91.20142 110.71463 91.6207 111.20836 92.04251 111.702 92.46617 112.19572 92.89388 112.68947 93.32487 113.1831 93.75734 113.67685 94.19421 114.17049 94.63438 114.66422 95.07713 115.15794 95.525 115.65158 95.97617 116.14531 96.43102 116.63896 96.89026 117.13269 97.35353 117.62642 97.8216 118.12006 98.2944 118.6138 98.77199 119.10745 99.25435 119.60118 99.74184 120.0949 100.23335 120.58855 100.73257 121.08228 101.23694 121.57591 101.74681 122.06964 102.26328 122.56337 102.78596 123.057 103.31564 123.55075 103.85191 124.0444 104.39517 124.53813 104.9461 125.03186 105.50586 125.5255 106.0711 126.01923 106.6459 126.51288 107.23022 127.0066 107.82227 127.50034 108.42566 127.99397 109.03676 128.4877 109.6563 128.98136 110.28831 129.4751 110.93242 129.96881 111.58682 130.46247 112.25183 130.95619 112.93007 131.44983 113.6204 131.94356 114.32393 132.43729 115.04251 132.93093 115.7721 133.42467 116.51964 133.9183 117.28262 134.41204 118.06097 134.90576 118.85622 135.39942 119.66907 135.89315 120.49843 136.3868 121.34943 136.88053 122.22021 137.37425 123.11194 137.86789 124.0242 138.36162 124.96065 138.85527 125.92279 139.349 126.90767 139.84272 127.91896 140.33637 128.95996 140.83011 130.02848 141.32375 131.12889 141.81748 132.26123 142.3112 133.42733 142.80484 134.62972 143.29859 135.86844 143.79222 137.14823 144.28595 138.46949 144.77968 139.83731 145.27332 141.25026 145.76705 142.71419 146.26071 144.22948"/>
<use data-text="y" xlink:href="#font_6_2" transform="matrix(9.962799,0,0,-9.963098,151.17768,21.45427)" fill="#0000ff"/>
<use data-text="=" xlink:href="#font_4_5" transform="matrix(9.962799,0,0,-9.963098,159.18683,21.45427)" fill="#0000ff"/>
<use data-text="t" xlink:href="#font_4_8" transform="matrix(9.962799,0,0,-9.963098,169.68762,21.45427)" fill="#0000ff"/>
<use data-text="a" xlink:href="#font_4_6" transform="matrix(9.962799,0,0,-9.963098,173.55318,21.45427)" fill="#0000ff"/>
<use data-text="n" xlink:href="#font_4_7" transform="matrix(9.962799,0,0,-9.963098,178.53458,21.45427)" fill="#0000ff"/>
<use data-text="(" xlink:href="#font_4_1" transform="matrix(9.962799,0,0,-9.963098,184.06394,21.45427)" fill="#0000ff"/>
<use data-text="x" xlink:href="#font_6_1" transform="matrix(9.962799,0,0,-9.963098,187.9684,21.45427)" fill="#0000ff"/>
<use data-text=")" xlink:href="#font_4_2" transform="matrix(9.962799,0,0,-9.963098,193.6625,21.45427)" fill="#0000ff"/>
<path transform="matrix(1.00002,0,0,-1.00005,1.095665,163.20035)" d="M50.00786 17.16333C50.00786 18.2638 49.11577 19.15588 48.0153 19.15588 46.91483 19.15588 46.02275 18.2638 46.02275 17.16333 46.02275 16.06287 46.91483 15.17078 48.0153 15.17078 49.11577 15.17078 50.00786 16.06287 50.00786 17.16333ZM48.0153 17.16333" fill="#ff0000"/>
<path transform="matrix(1.00002,0,0,-1.00005,1.095665,163.20035)" d="M62.28903 44.01775C62.28903 45.11823 61.39696 46.0103 60.29648 46.0103 59.19601 46.0103 58.30392 45.11823 58.30392 44.01775 58.30392 42.91728 59.19601 42.02519 60.29648 42.02519 61.39696 42.02519 62.28903 42.91728 62.28903 44.01775ZM60.29648 44.01775" fill="#ff0000"/>
<path transform="matrix(1.00002,0,0,-1.00005,1.095665,163.20035)" d="M74.56975 59.5209C74.56975 60.62138 73.67767 61.51346 72.5772 61.51346 71.47673 61.51346 70.58464 60.62138 70.58464 59.5209 70.58464 58.42044 71.47673 57.52835 72.5772 57.52835 73.67767 57.52835 74.56975 58.42044 74.56975 59.5209ZM72.5772 59.5209" fill="#ff0000"/>
<path transform="matrix(1.00002,0,0,-1.00005,1.095665,163.20035)" d="M99.13069 80.69788C99.13069 81.79834 98.23862 82.69043 97.13814 82.69043 96.03767 82.69043 95.14558 81.79834 95.14558 80.69788 95.14558 79.5974 96.03767 78.70532 97.13814 78.70532 98.23862 78.70532 99.13069 79.5974 99.13069 80.69788ZM97.13814 80.69788" fill="#ff0000"/>
<path transform="matrix(1.00002,0,0,-1.00005,1.095665,163.20035)" d="M123.69165 101.87482C123.69165 102.9753 122.79956 103.86737 121.6991 103.86737 120.59862 103.86737 119.70654 102.9753 119.70654 101.87482 119.70654 100.77435 120.59862 99.88226 121.6991 99.88226 122.79956 99.88226 123.69165 100.77435 123.69165 101.87482ZM121.6991 101.87482" fill="#ff0000"/>
<path transform="matrix(1.00002,0,0,-1.00005,1.095665,163.20035)" d="M135.97235 117.37798C135.97235 118.47845 135.08028 119.37053 133.9798 119.37053 132.87934 119.37053 131.98725 118.47845 131.98725 117.37798 131.98725 116.27751 132.87934 115.38542 133.9798 115.38542 135.08028 115.38542 135.97235 116.27751 135.97235 117.37798ZM133.9798 117.37798" fill="#ff0000"/>
<path transform="matrix(1.00002,0,0,-1.00005,1.095665,163.20035)" d="M148.25353 144.23239C148.25353 145.33287 147.36145 146.22495 146.26097 146.22495 145.1605 146.22495 144.26842 145.33287 144.26842 144.23239 144.26842 143.13193 145.1605 142.23984 146.26097 142.23984 147.36145 142.23984 148.25353 143.13193 148.25353 144.23239ZM146.26097 144.23239" fill="#ff0000"/>
<use data-text="x" xlink:href="#font_6_1" transform="matrix(9.962799,0,0,-9.963098,186.16239,78.97814)"/>
<use data-text="y" xlink:href="#font_6_2" transform="matrix(9.962799,0,0,-9.963098,101.75568,9.606674)"/>
</svg>
