<svg xmlns="http://www.w3.org/2000/svg" xmlns:xlink="http://www.w3.org/1999/xlink" version="1.1" width="381" height="368" viewBox="0 0 381 368">
<defs>
<path id="font_1_3" d="M.33399964 .30233766C.33999635 .32835389 .36299134 .42037965 .43299867 .42037965 .43798829 .42037965 .46199037 .42037965 .48298646 .40734864 .45498658 .402359 .43499757 .37734986 .43499757 .35334779 .43499757 .33735658 .44599916 .31835938 .47299195 .31835938 .49499513 .31835938 .5269928 .3363495 .5269928 .37635804 .5269928 .42837525 .46798707 .4423828 .43399049 .4423828 .37599183 .4423828 .34098817 .38935853 .32899476 .36634828 .3039856 .43237306 .25 .4423828 .22099304 .4423828 .116989139 .4423828 .05999756 .3133545 .05999756 .28834535 .05999756 .27833558 .069992069 .27833558 .07199097 .27833558 .07998657 .27833558 .08299255 .28033448 .084991458 .28933717 .11898804 .39535523 .18499756 .42037965 .21899414 .42037965 .23799134 .42037965 .272995 .4113617 .272995 .35334779 .272995 .32235719 .2559967 .25532533 .21899414 .11528015 .20298767 .053268434 .16799927 .011245728 .12399292 .011245728 .117996219 .011245728 .09498596 .011245728 .07398987 .024276734 .09899902 .029266358 .12098694 .05027771 .12098694 .07827759 .12098694 .105270389 .09899902 .11328125 .083999637 .11328125 .053985597 .11328125 .0289917 .08728027 .0289917 .055267335 .0289917 .009246826 .07899475-.0107421879 .12298584-.0107421879 .18899536-.0107421879 .22499085 .059280397 .22799683 .0652771 .23999024 .028274537 .27598573-.0107421879 .33599855-.0107421879 .43899537-.0107421879 .49598695 .118270877 .49598695 .14328003 .49598695 .1532898 .4869995 .1532898 .48399354 .1532898 .47499085 .1532898 .47299195 .14929199 .47099305 .14228821 .43798829 .03527832 .36999513 .011245728 .33799745 .011245728 .29899598 .011245728 .2829895 .043273927 .2829895 .07727051 .2829895 .09927368 .2889862 .121276859 .2999878 .16529846L.33399964 .30233766Z"/>
<path id="font_1_4" d="M.48599244 .38136292C.48999024 .39537049 .48999024 .39736939 .48999024 .40437318 .48999024 .42237855 .47599793 .43138124 .46099855 .43138124 .45098878 .43138124 .43499757 .42536927 .42599488 .41036988 .42399598 .405365 .41600038 .37435914 .4119873 .35635377 .40499879 .33035279 .397995 .30334474 .3919983 .27633668L.34700013 .09628296C.34298707 .08126831 .2999878 .011245728 .23399353 .011245728 .18299866 .011245728 .17199707 .055267335 .17199707 .0922699 .17199707 .1382904 .18899536 .20030213 .22299195 .28833009 .23899842 .3293457 .24299622 .3403473 .24299622 .36035157 .24299622 .405365 .21099854 .4423828 .16099549 .4423828 .06599426 .4423828 .0289917 .29733277 .0289917 .28833009 .0289917 .27833558 .038986207 .27833558 .040985109 .27833558 .050994874 .27833558 .051986696 .28033448 .056991579 .29634095 .083999637 .3903656 .12399292 .42037965 .1579895 .42037965 .1659851 .42037965 .18299866 .42037965 .18299866 .3883667 .18299866 .36335755 .17298889 .3373413 .1659851 .31834413 .12599182 .21231079 .10798645 .1552887 .10798645 .10827637 .10798645 .019256592 .17098999-.0107421879 .22999573-.0107421879 .2689972-.0107421879 .30299378 .0062561037 .33099366 .03425598 .31799317-.017745972 .30599977-.06674194 .2659912-.11973572 .23999024-.15385437 .20199585-.18309021 .1559906-.18309021 .14199829-.18309021 .09700012-.18005371 .07998657-.14074707 .09599304-.14074707 .10899353-.14074707 .12298584-.1287384 .1329956-.11973572 .14299011-.10673523 .14299011-.08773804 .14299011-.056747438 .115997318-.052734376 .10598755-.052734376 .08299255-.052734376 .049987794-.068740848 .049987794-.11773682 .049987794-.16796875 .09399414-.20507813 .1559906-.20507813 .25898744-.20507813 .3619995-.11373901 .3899994-.00074768069L.48599244 .38136292Z"/>
<path id="font_2_1" d="M.31098939 .36265565H.42999269C.4149933 .30274964 .3929901 .2118988 .3929901 .13302613 .3929901 .09309387 .397995 .06613159 .4039917 .044174196 .41999818-.0057678224 .43299867-.009765625 .44898988-.009765625 .47200013-.009765625 .49598695 .011230469 .49598695 .035186769 .49598695 .043182374 .49398805 .047164918 .48799134 .057159425 .46899415 .09408569 .45098878 .15100098 .45098878 .23286438 .45098878 .25183106 .45098878 .29177857 .46499635 .36265565H.58999636C.60798647 .36265565 .6159973 .36265565 .6269989 .37065126 .6409912 .380661 .6439972 .39665223 .6439972 .4016571 .6439972 .43066407 .6179962 .43066407 .6009979 .43066407H.22399903C.18299866 .43066407 .15499878 .42166139 .10998535 .37965394 .083999637 .35665895 .04499817 .30274964 .04499817 .2937622 .04499817 .28178407 .057998659 .28178407 .06199646 .28178407 .07299805 .28178407 .07398987 .28378297 .07998657 .2927704 .1309967 .36265565 .19299317 .36265565 .21499634 .36265565H.27598573C.24499512 .25283814 .19099427 .13502503 .16099549 .07511902 .15499878 .062149049 .14498902 .04118347 .14199829 .03718567 .14099121 .033187868 .13899231 .029190064 .13899231 .022201539 .13899231 .006225586 .15098572-.009765625 .17399597-.009765625 .21398926-.009765625 .22499085 .035186769 .24899292 .12504578L.31098939 .36265565Z"/>
<path id="font_3_6" d="M.1499939 .3274536C.1499939 .40945436 .15699768 .48303224 .19499207 .543869 .22898865 .5978699 .2829895 .63505557 .34700013 .63505557 .3769989 .63505557 .4169922 .62701418 .43699647 .5998688 .4119873 .5978699 .3909912 .5808716 .3909912 .5518799 .3909912 .5268707 .4079895 .5048828 .43798829 .5048828 .46798707 .5048828 .48599244 .5248718 .48599244 .5538788 .48599244 .6119385 .44400025 .6640625 .34498597 .6640625 .20098877 .6640625 .053985597 .5318756 .053985597 .3174591 .053985597 .05845642 .17599488-.01953125 .28599549-.01953125 .4079895-.01953125 .5139923 .07345581 .5139923 .20445252 .5139923 .33145143 .41299439 .42546083 .29599 .42546083 .21598816 .42546083 .17199707 .37245179 .1499939 .3274536M.28599549 .012466431C.23599243 .012466431 .19699097 .04145813 .17599488 .08546448 .16099549 .11546326 .15299988 .16545105 .15299988 .22544861 .15299988 .32244874 .21099854 .39746095 .29100038 .39746095 .33699037 .39746095 .36799623 .37945558 .3929901 .342453 .4169922 .30445863 .41799928 .26245118 .41799928 .20445252 .41799928 .14746094 .41799928 .10545349 .3909912 .066467288 .36698915 .031463624 .33499146 .012466431 .28599549 .012466431Z"/>
<path id="font_3_3" d="M.272995 .33428956C.35099793 .33428956 .40699769 .2803192 .40699769 .1733551 .40699769 .04940796 .33499146 .012466431 .2769928 .012466431 .23699951 .012466431 .14898682 .0234375 .10699463 .082351688 .1539917 .084350589 .16499329 .11735535 .16499329 .13835144 .16499329 .17034912 .14099121 .19335938 .10998535 .19335938 .08198547 .19335938 .053985597 .17634583 .053985597 .13534546 .053985597 .041412355 .1579895-.01953125 .2789917-.01953125 .41799928-.01953125 .5139923 .07336426 .5139923 .1733551 .5139923 .2513275 .44999696 .32929994 .33999635 .35229493 .44499208 .39024354 .48298646 .4650879 .48298646 .5260773 .48298646 .60505679 .3919983 .6640625 .2809906 .6640625 .16999817 .6640625 .084991458 .61006167 .084991458 .5300751 .084991458 .49606324 .10699463 .47706605 .13699341 .47706605 .16799927 .47706605 .18798828 .5000763 .18798828 .5280762 .18798828 .5570679 .16799927 .57806399 .13699341 .5800781 .17199707 .62405398 .24099732 .63505557 .27799989 .63505557 .32299806 .63505557 .38598634 .6130676 .38598634 .5260773 .38598634 .48406983 .37199403 .43814088 .34599305 .4072113 .31298829 .36927796 .2849884 .3672943 .23498535 .36428834 .20999146 .3623047 .20799256 .3623047 .20298767 .3612976 .20098877 .3612976 .19299317 .3592987 .19299317 .34829713 .19299317 .33428956 .20199585 .33428956 .21899414 .33428956H.272995Z"/>
<path id="font_3_2" d="M.5049896 .18203736H.47099305C.46798707 .16001892 .45799256 .100997928 .44499208 .09098816 .43699647 .084991458 .3600006 .084991458 .34599305 .084991458H.1619873C.2669983 .17803955 .3019867 .20603943 .3619995 .25306703 .43598939 .312088 .5049896 .374115 .5049896 .46914674 .5049896 .5900879 .39898683 .6640625 .2709961 .6640625 .14698792 .6640625 .06298828 .57710269 .06298828 .4851532 .06298828 .43414308 .10598755 .42915345 .115997318 .42915345 .13999939 .42915345 .16899109 .44615174 .16899109 .48214723 .16899109 .5001526 .1619873 .53515627 .10998535 .53515627 .14099121 .6060791 .20899964 .62805178 .2559967 .62805178 .35598756 .62805178 .4079895 .5501404 .4079895 .46914674 .4079895 .38212586 .34599305 .3130951 .31399537 .27708436L.07299805 .038986207C.06298828 .02999878 .06298828 .027999878 .06298828 0H.47499085L.5049896 .18203736Z"/>
<path id="font_3_5" d="M.15499878 .5588074C.20599365 .5458069 .23599243 .5458069 .2519989 .5458069 .38398744 .5458069 .46199037 .6358032 .46199037 .6508026 .46199037 .6618042 .45498658 .6648102 .44999696 .6648102 .44799806 .6648102 .44599916 .6648102 .44198609 .6618042 .41799928 .6528015 .36499024 .6328125 .29100038 .6328125 .2630005 .6328125 .20999146 .6348114 .14498902 .6598053 .1349945 .6648102 .1329956 .6648102 .13198853 .6648102 .11898804 .6648102 .11898804 .6538086 .11898804 .6378021V.34251405C.11898804 .32548524 .11898804 .3134613 .1349945 .3134613 .14399719 .3134613 .14498902 .3154602 .15499878 .32748414 .19799805 .38259889 .25898744 .390625 .2939911 .390625 .35398866 .390625 .3809967 .34251405 .38598634 .33450318 .4039917 .30143739 .4099884 .26335145 .4099884 .20524597 .4099884 .17524719 .4099884 .116256717 .37998963 .07234192 .35499574 .03640747 .31199647 .012466431 .2630005 .012466431 .19799805 .012466431 .1309967 .04838562 .10598755 .11425781 .14399719 .11125183 .16299439 .13624573 .16299439 .16325379 .16299439 .20625305 .12599182 .21424866 .11299133 .21424866 .11099243 .21424866 .06298828 .21424866 .06298828 .1602478 .06298828 .07034302 .14498902-.01953125 .2649994-.01953125 .3929901-.01953125 .5049896 .07533264 .5049896 .20124817 .5049896 .31445313 .4189911 .41862489 .29499818 .41862489 .25099183 .41862489 .19898987 .4076233 .15499878 .36956788V.5588074Z"/>
<path id="font_1_1" d="M.2649994 .37265016H.37799073C.34498597 .22489929 .33599855 .18196106 .33599855 .11508179 .33599855 .100097659 .33599855 .073150638 .34399415 .03919983 .35398866-.0047454836 .36499024-.0107421879 .37998963-.0107421879 .3999939-.0107421879 .42099 .007247925 .42099 .02722168 .42099 .033218385 .42099 .035202028 .4149933 .049179079 .38598634 .12106323 .38598634 .18595886 .38598634 .21391297 .38598634 .26683045 .3929901 .32073976 .4039917 .37265016H.5179901C.5309906 .37265016 .5669861 .37265016 .5669861 .406662 .5669861 .43066407 .54599 .43066407 .5269928 .43066407H.19198609C.16999817 .43066407 .13198853 .43066407 .08799744 .38365174 .052993776 .34469605 .026992798 .29878236 .026992798 .29379273 .026992798 .29278565 .026992798 .28379823 .038986207 .28379823 .04699707 .28379823 .04899597 .28779603 .054992677 .29577638 .10398865 .37265016 .1619873 .37265016 .18199158 .37265016H.23899842C.20698548 .25186158 .15299988 .13105774 .11099243 .04020691 .102996829 .025222779 .102996829 .023223877 .102996829 .016235352 .102996829-.002746582 .11898804-.0107421879 .13198853-.0107421879 .1619873-.0107421879 .16999817 .017242432 .18199158 .05418396 .19599915 .100097659 .19599915 .10209656 .20899964 .15202332L.2649994 .37265016Z"/>
<path id="font_3_7" d="M.5349884 .6045227C.54499819 .6165161 .54499819 .6185303 .54499819 .64453127H.2829895C.24299622 .64453127 .23199463 .6455078 .19599915 .6484375 .14399719 .65234377 .14199829 .6592407 .13899231 .676239H.10499573L.069992069 .46250917H.10398865C.10598755 .47750855 .115997318 .54351809 .13198853 .5535126 .13999939 .55952456 .22099304 .55952456 .23599243 .55952456H.45399476C.42199708 .5175171 .37098695 .45550538 .34999085 .4275055 .21899414 .25549317 .20698548 .096466068 .20698548 .037460329 .20698548 .02645874 .20698548-.01953125 .2539978-.01953125 .3019867-.01953125 .3019867 .025466919 .3019867 .038467409V.07847595C.3019867 .27249146 .34199525 .36149598 .3849945 .41551209L.5349884 .6045227Z"/>
<path id="font_3_4" d="M.5289917 .1640625V.20005799H.41799928V.64582827C.41799928 .66682437 .41799928 .6738281 .3959961 .6738281 .38398744 .6738281 .37998963 .6738281 .36999513 .65982058L.038986207 .20005799V.1640625H.33299256V.08201599C.33299256 .04800415 .33299256 .035995485 .2519989 .035995485H.22499085V0C.2749939 .0019989014 .33898927 .0039978029 .375 .0039978029 .4119873 .0039978029 .47599793 .0019989014 .526001 0V.035995485H.49899293C.41799928 .035995485 .41799928 .04800415 .41799928 .08201599V.1640625H.5289917M.33999635 .5658722V.20005799H.07598877L.33999635 .5658722Z"/>
<path id="font_3_1" d="M.33499146 .63612368C.33499146 .6630554 .33299256 .6640625 .30499269 .6640625 .24099732 .6014404 .1499939 .6004486 .10899353 .6004486V.5644531C.1329956 .5644531 .19898987 .5644531 .2539978 .592453V.08203125C.2539978 .04899597 .2539978 .035995485 .1539917 .035995485H.115997318V0C.13398743 .0009918213 .25698854 .0039978029 .2939911 .0039978029 .32499696 .0039978029 .45098878 .0009918213 .47299195 0V.035995485H.43499757C.33499146 .035995485 .33499146 .04899597 .33499146 .08203125V.63612368Z"/>
<path id="font_4_5" d="M.1269989 .07699585 .23298645 .18003845C.3889923 .31811524 .44898988 .3721466 .44898988 .47216798 .44898988 .5860901 .35899354 .6660156 .23699951 .6660156 .12399292 .6660156 .049987794 .57411196 .049987794 .48516847 .049987794 .4291687 .099990848 .4291687 .102996829 .4291687 .11999512 .4291687 .15499878 .44117738 .15499878 .48217774 .15499878 .5081787 .13699341 .5341797 .101989749 .5341797 .09399414 .5341797 .09199524 .5341797 .08898926 .5331726 .11199951 .59806826 .1659851 .63500979 .22399903 .63500979 .31498719 .63500979 .35798646 .5541382 .35798646 .47216798 .35798646 .39215089 .30799867 .31311036 .25299073 .25108338L.06098938 .036987306C.049987794 .025985718 .049987794 .023986817 .049987794 0H.42099L.44898988 .17404175H.42399598C.4189911 .14402771 .4119873 .1000061 .4019928 .084991458 .394989 .07699585 .32899476 .07699585 .30699159 .07699585H.1269989Z"/>
<path id="font_5_1" d="M.5149994-1.7478027C.5169983-1.7487946 .526001-1.7587891 .5269928-1.7587891H.548996C.5519867-1.7587891 .55999758-1.7577973 .55999758-1.7487946 .55999758-1.7447968 .55799868-1.7427979 .55599978-1.7397919 .519989-1.7037964 .46598817-1.6488037 .4039917-1.5388184 .29599-1.3468323 .2559967-1.0998688 .2559967-.8598938 .2559967-.41593934 .38198854-.154953 .5569916 .022033692 .55999758 .025024414 .55999758 .028030396 .55999758 .030029297 .55999758 .040039064 .5529938 .040039064 .54100039 .040039064 .5279999 .040039064 .526001 .040039064 .5169983 .0320282 .42199708-.049972536 .31498719-.18894959 .24598694-.39993287 .20298767-.5319214 .17999268-.6929016 .17999268-.8588867 .17999268-1.0958557 .22299195-1.3638306 .37998963-1.5958099 .40699769-1.6348114 .44400025-1.6757965 .44400025-1.6768036 .45399476-1.688797 .46798707-1.7048035 .47599793-1.711792L.5149994-1.7478027Z"/>
<path id="font_6_1" d="M.44299317-.84217837 .24699402-.45318605C.24198914-.44317628 .23899842-.43717958 .23098755-.43717958 .22698975-.43717958 .22499085-.43717958 .21499634-.44517518L.10798645-.5161743C.09399414-.525177 .09399414-.5301819 .09399414-.5331726 .09399414-.5391846 .09899902-.5471802 .10798645-.5471802 .11199951-.5471802 .11399841-.5471802 .1269989-.5381775 .13798523-.5301819 .16699219-.5101776 .1789856-.502182L.397995-.9341736C.40499879-.949173 .40699769-.9511719 .42099-.9511719 .42999269-.9511719 .44099427-.9511719 .45098878-.9321747L.95399478 .003829956C.96199038 .016815186 .96199038 .018829346 .96199038 .02381897 .96199038 .03982544 .94898989 .048828126 .9379883 .048828126 .9229889 .048828126 .91799929 .03982544 .9119873 .027816773L.44299317-.84217837Z"/>
<path id="font_1_2" d="M.20298767 .0009918213C.20298767 .066986087 .17799378 .10598755 .13899231 .10598755 .10598755 .10598755 .085998538 .08099365 .085998538 .052993776 .085998538 .025985718 .10598755 0 .13899231 0 .15098572 0 .1639862 .0039978029 .17399597 .0129852299 .1769867 .01499939 .17799378 .015991211 .1789856 .015991211 .17999268 .015991211 .18099976 .01499939 .18099976 .0009918213 .18099976-.07316589 .1459961-.13328552 .11299133-.16635132 .101989749-.17736817 .101989749-.17936707 .101989749-.18237305 .101989749-.18936157 .10699463-.19335938 .11199951-.19335938 .12298584-.19335938 .20298767-.116256717 .20298767 .0009918213Z"/>
<path id="font_5_2" d="M.41600038-.8588867C.41600038-.5719147 .34899903-.2669525 .1519928-.04197693 .13798523-.025970459 .100997928 .013031006 .07699585 .0340271 .069992069 .040039064 .067993167 .040039064 .054992677 .040039064 .04499817 .040039064 .035995485 .040039064 .035995485 .030029297 .035995485 .026031495 .039993287 .022033692 .041992189 .02003479 .07598877-.014968872 .12998963-.06996155 .19198609-.17996216 .2999878-.37193299 .33999635-.61891177 .33999635-.8588867 .33999635-1.2928467 .21998596-1.5578156 .039993287-1.740799 .037994386-1.7427979 .035995485-1.7458038 .035995485-1.7487946 .035995485-1.7587891 .04499817-1.7587891 .054992677-1.7587891 .067993167-1.7587891 .069992069-1.7587891 .07899475-1.7507935 .17399597-1.668808 .2809906-1.5298157 .34999085-1.3188324 .3939972-1.1818543 .41600038-1.019867 .41600038-.8588867Z"/>
<path id="font_7_1" d="M.6589966 .23046875C.6759949 .23046875 .69400027 .23046875 .69400027 .25045777 .69400027 .27046205 .6759949 .27046205 .6589966 .27046205H.117996219C.100997928 .27046205 .08299255 .27046205 .08299255 .25045777 .08299255 .23046875 .100997928 .23046875 .117996219 .23046875H.6589966Z"/>
<path id="font_4_1" d="M.33099366-.2400055C.33099366-.23701477 .33099366-.23500061 .31399537-.21800232 .18899536-.0920105 .15699768 .09700012 .15699768 .25 .15699768 .42399598 .19499207 .59799197 .31799317 .72299197 .33099366 .73498538 .33099366 .7369995 .33099366 .73999026 .33099366 .746994 .32699586 .75 .32099916 .75 .31098939 .75 .22099304 .6819916 .1619873 .5549927 .11099243 .44499208 .09899902 .33399964 .09899902 .25 .09899902 .17199707 .10998535 .050994874 .16499329-.06201172 .22499085-.18501282 .31098939-.25 .32099916-.25 .32699586-.25 .33099366-.24700928 .33099366-.2400055Z"/>
<path id="font_4_4" d="M.2939911 .64004519C.2939911 .66400149 .2939911 .6660156 .2709961 .6660156 .20899964 .60227969 .12098694 .60227969 .08898926 .60227969V.57128909C.10899353 .57128909 .16799927 .57128909 .21998596 .5972748V.07902527C.21998596 .042999269 .21699524 .0309906 .1269989 .0309906H.09498596V0C.12998963 .0029907227 .21699524 .0029907227 .25698854 .0029907227 .29699708 .0029907227 .38398744 .0029907227 .4189911 0V.0309906H.3869934C.29699708 .0309906 .2939911 .041992189 .2939911 .07902527V.64004519Z"/>
<path id="font_4_3" d="M.45999146 .31976319C.45999146 .39982606 .45498658 .47988893 .41999818 .5539398 .37399293 .65000918 .2919922 .6660156 .25 .6660156 .18998719 .6660156 .116989139 .64001467 .07598877 .54693606 .04399109 .47789 .038986207 .39982606 .038986207 .31976319 .038986207 .24472046 .042999269 .15464783 .083999637 .07859802 .1269989-.0024719239 .19999695-.022460938 .24899292-.022460938 .30299378-.022460938 .3789978-.0014648438 .4229889 .09359741 .45498658 .16265869 .45999146 .2407074 .45999146 .31976319M.24899292-.00047302247C.20999146-.00047302247 .15098572 .024551392 .1329956 .12062073 .12199402 .18066406 .12199402 .2727356 .12199402 .3317871 .12199402 .39582826 .12199402 .46188355 .12998963 .5159149 .14898682 .63500979 .22399903 .64401248 .24899292 .64401248 .28199769 .64401248 .34799195 .6259918 .36698915 .52693179 .3769989 .47088624 .3769989 .39482118 .3769989 .3317871 .3769989 .25672914 .3769989 .18867493 .3659973 .12461853 .35099793 .029556275 .2939911-.00047302247 .24899292-.00047302247Z"/>
<path id="font_4_2" d="M.2889862 .25C.2889862 .32798768 .27799989 .44898988 .22299195 .56199648 .16299439 .68499758 .07699585 .75 .066986087 .75 .06098938 .75 .056991579 .74598696 .056991579 .73999026 .056991579 .7369995 .056991579 .73498538 .07598877 .71699526 .17399597 .6179962 .23098755 .45899964 .23098755 .25 .23098755 .07899475 .19400025-.09700012 .069992069-.2230072 .056991579-.23500061 .056991579-.23701477 .056991579-.2400055 .056991579-.2460022 .06098938-.25 .066986087-.25 .07699585-.25 .16699219-.18200684 .22599793-.055007936 .2769928 .054992677 .2889862 .16600037 .2889862 .25Z"/>
</defs>
<path transform="matrix(1,0,0,-1.00003,192.32599,184.07215)" stroke-width=".3985" stroke-linecap="butt" stroke-miterlimit="10" stroke-linejoin="miter" fill="none" stroke="#000000" d="M-161.00074 0H-99.21335"/>
<path transform="matrix(-1,-0,0,1.00003,31.325257,184.07215)" d="M1.99252 0-1.19551 1.59401 0 0-1.19551-1.59401"/>
<path transform="matrix(1,0,0,-1.00003,192.32599,184.07215)" stroke-width=".3985" stroke-linecap="butt" stroke-miterlimit="10" stroke-linejoin="miter" fill="none" stroke="#000000" d="M99.21335 0H161.00074"/>
<path transform="matrix(1,0,0,-1.00003,353.32673,184.07215)" d="M1.99252 0-1.19551 1.59401 0 0-1.19551-1.59401"/>
<use data-text="x" xlink:href="#font_1_3" transform="matrix(9.9626,0,0,-9.962899,352.472,191.88138)"/>
<path transform="matrix(1,0,0,-1.00003,192.32599,184.07215)" stroke-width=".3985" stroke-linecap="butt" stroke-miterlimit="10" stroke-linejoin="miter" fill="none" stroke="#000000" d="M0-161.00074V-99.21335"/>
<path transform="matrix(0,1.00003,1,0,192.32599,345.0777)" d="M1.99252 0-1.19551 1.59401 0 0-1.19551-1.59401"/>
<path transform="matrix(1,0,0,-1.00003,192.32599,184.07215)" stroke-width=".3985" stroke-linecap="butt" stroke-miterlimit="10" stroke-linejoin="miter" fill="none" stroke="#000000" d="M0 99.21335V161.00074"/>
<path transform="matrix(0,-1.00003,-1,-0,192.32599,23.066575)" d="M1.99252 0-1.19551 1.59401 0 0-1.19551-1.59401"/>
<use data-text="y" xlink:href="#font_1_4" transform="matrix(9.9626,0,0,-9.962899,183.564,22.250275)"/>
<path transform="matrix(1,0,0,-1.00003,192.32599,184.07215)" stroke-width=".3985" stroke-linecap="butt" stroke-miterlimit="10" stroke-linejoin="miter" fill="none" stroke="#000000" d="M0-70.86697V70.86697"/>
<path transform="matrix(1,0,0,-1.00003,192.32599,184.07215)" stroke-width=".3985" stroke-linecap="butt" stroke-miterlimit="10" stroke-linejoin="miter" fill="none" stroke="#000000" d="M-70.86697 0H70.86697"/>
<path transform="matrix(1,0,0,-1.00003,192.32599,184.07215)" stroke-width=".79701" stroke-linecap="butt" stroke-miterlimit="10" stroke-linejoin="miter" fill="none" stroke="#000000" d="M141.73404 0C141.73404 78.27855 78.27855 141.73404 0 141.73404-78.27855 141.73404-141.73404 78.27855-141.73404 0-141.73404-78.27855-78.27855-141.73404 0-141.73404 78.27855-141.73404 141.73404-78.27855 141.73404 0ZM0 0"/>
<path transform="matrix(1,0,0,-1.00003,192.32599,184.07215)" stroke-width=".3985" stroke-linecap="butt" stroke-miterlimit="10" stroke-linejoin="miter" fill="none" stroke="#929292" d="M0 0H70.86697"/>
<path transform="matrix(1,0,0,-1.00003,192.32599,184.07215)" stroke-width=".3985" stroke-linecap="butt" stroke-miterlimit="10" stroke-linejoin="miter" fill="none" stroke="#929292" d="M99.21335 0H141.73404"/>
<path transform="matrix(1,0,0,-1.00003,192.32599,184.07215)" d="M143.72657 0C143.72657 1.10043 142.83449 1.99252 141.73404 1.99252 140.6336 1.99252 139.74152 1.10043 139.74152 0 139.74152-1.10043 140.6336-1.99252 141.73404-1.99252 142.83449-1.99252 143.72657-1.10043 143.72657 0ZM141.73404 0"/>
<path transform="matrix(1,0,0,-1.00003,192.32599,184.07215)" stroke-width=".3985" stroke-linecap="butt" stroke-miterlimit="10" stroke-linejoin="miter" fill="none" stroke="#000000" d="M143.72657 0C143.72657 1.10043 142.83449 1.99252 141.73404 1.99252 140.6336 1.99252 139.74152 1.10043 139.74152 0 139.74152-1.10043 140.6336-1.99252 141.73404-1.99252 142.83449-1.99252 143.72657-1.10043 143.72657 0ZM141.73404 0"/>
<path transform="matrix(1,0,0,-1.00003,192.32599,184.07215)" stroke-width=".3985" stroke-linecap="butt" stroke-miterlimit="10" stroke-linejoin="miter" fill="none" stroke="#929292" d="M0 0 61.37274 35.43344"/>
<path transform="matrix(1,0,0,-1.00003,192.32599,184.07215)" stroke-width=".3985" stroke-linecap="butt" stroke-miterlimit="10" stroke-linejoin="miter" fill="none" stroke="#929292" d="M85.9215 49.60558 122.74556 70.86697"/>
<path transform="matrix(1,0,0,-1.00003,192.32599,184.07215)" d="M124.73808 70.86697C124.73808 71.96742 123.846 72.8595 122.74556 72.8595 121.64511 72.8595 120.75304 71.96742 120.75304 70.86697 120.75304 69.76654 121.64511 68.87445 122.74556 68.87445 123.846 68.87445 124.73808 69.76654 124.73808 70.86697ZM122.74556 70.86697"/>
<path transform="matrix(1,0,0,-1.00003,192.32599,184.07215)" stroke-width=".3985" stroke-linecap="butt" stroke-miterlimit="10" stroke-linejoin="miter" fill="none" stroke="#000000" d="M124.73808 70.86697C124.73808 71.96742 123.846 72.8595 122.74556 72.8595 121.64511 72.8595 120.75304 71.96742 120.75304 70.86697 120.75304 69.76654 121.64511 68.87445 122.74556 68.87445 123.846 68.87445 124.73808 69.76654 124.73808 70.86697ZM122.74556 70.86697"/>
<path transform="matrix(1,0,0,-1.00003,192.32599,184.07215)" stroke-width=".3985" stroke-linecap="butt" stroke-miterlimit="10" stroke-linejoin="miter" fill="none" stroke="#929292" d="M0 0 35.43344 61.37274"/>
<path transform="matrix(1,0,0,-1.00003,192.32599,184.07215)" stroke-width=".3985" stroke-linecap="butt" stroke-miterlimit="10" stroke-linejoin="miter" fill="none" stroke="#929292" d="M49.60558 85.9215 70.86697 122.74556"/>
<path transform="matrix(1,0,0,-1.00003,192.32599,184.07215)" d="M72.8595 122.74556C72.8595 123.846 71.96742 124.73808 70.86697 124.73808 69.76654 124.73808 68.87445 123.846 68.87445 122.74556 68.87445 121.64511 69.76654 120.75304 70.86697 120.75304 71.96742 120.75304 72.8595 121.64511 72.8595 122.74556ZM70.86697 122.74556"/>
<path transform="matrix(1,0,0,-1.00003,192.32599,184.07215)" stroke-width=".3985" stroke-linecap="butt" stroke-miterlimit="10" stroke-linejoin="miter" fill="none" stroke="#000000" d="M72.8595 122.74556C72.8595 123.846 71.96742 124.73808 70.86697 124.73808 69.76654 124.73808 68.87445 123.846 68.87445 122.74556 68.87445 121.64511 69.76654 120.75304 70.86697 120.75304 71.96742 120.75304 72.8595 121.64511 72.8595 122.74556ZM70.86697 122.74556"/>
<path transform="matrix(1,0,0,-1.00003,192.32599,184.07215)" stroke-width=".3985" stroke-linecap="butt" stroke-miterlimit="10" stroke-linejoin="miter" fill="none" stroke="#929292" d="M0 0V70.86697"/>
<path transform="matrix(1,0,0,-1.00003,192.32599,184.07215)" stroke-width=".3985" stroke-linecap="butt" stroke-miterlimit="10" stroke-linejoin="miter" fill="none" stroke="#929292" d="M0 99.21335V141.73404"/>
<path transform="matrix(1,0,0,-1.00003,192.32599,184.07215)" d="M1.99252 141.73404C1.99252 142.83449 1.10043 143.72657 0 143.72657-1.10043 143.72657-1.99252 142.83449-1.99252 141.73404-1.99252 140.6336-1.10043 139.74152 0 139.74152 1.10043 139.74152 1.99252 140.6336 1.99252 141.73404ZM0 141.73404"/>
<path transform="matrix(1,0,0,-1.00003,192.32599,184.07215)" stroke-width=".3985" stroke-linecap="butt" stroke-miterlimit="10" stroke-linejoin="miter" fill="none" stroke="#000000" d="M1.99252 141.73404C1.99252 142.83449 1.10043 143.72657 0 143.72657-1.10043 143.72657-1.99252 142.83449-1.99252 141.73404-1.99252 140.6336-1.10043 139.74152 0 139.74152 1.10043 139.74152 1.99252 140.6336 1.99252 141.73404ZM0 141.73404"/>
<path transform="matrix(1,0,0,-1.00003,192.32599,184.07215)" stroke-width=".3985" stroke-linecap="butt" stroke-miterlimit="10" stroke-linejoin="miter" fill="none" stroke="#929292" d="M0 0-35.43344 61.37274"/>
<path transform="matrix(1,0,0,-1.00003,192.32599,184.07215)" stroke-width=".3985" stroke-linecap="butt" stroke-miterlimit="10" stroke-linejoin="miter" fill="none" stroke="#929292" d="M-49.60558 85.9215-70.86697 122.74556"/>
<path transform="matrix(1,0,0,-1.00003,192.32599,184.07215)" d="M-68.87445 122.74556C-68.87445 123.846-69.76654 124.73808-70.86697 124.73808-71.96742 124.73808-72.8595 123.846-72.8595 122.74556-72.8595 121.64511-71.96742 120.75304-70.86697 120.75304-69.76654 120.75304-68.87445 121.64511-68.87445 122.74556ZM-70.86697 122.74556"/>
<path transform="matrix(1,0,0,-1.00003,192.32599,184.07215)" stroke-width=".3985" stroke-linecap="butt" stroke-miterlimit="10" stroke-linejoin="miter" fill="none" stroke="#000000" d="M-68.87445 122.74556C-68.87445 123.846-69.76654 124.73808-70.86697 124.73808-71.96742 124.73808-72.8595 123.846-72.8595 122.74556-72.8595 121.64511-71.96742 120.75304-70.86697 120.75304-69.76654 120.75304-68.87445 121.64511-68.87445 122.74556ZM-70.86697 122.74556"/>
<path transform="matrix(1,0,0,-1.00003,192.32599,184.07215)" stroke-width=".3985" stroke-linecap="butt" stroke-miterlimit="10" stroke-linejoin="miter" fill="none" stroke="#929292" d="M0 0-61.37274 35.43344"/>
<path transform="matrix(1,0,0,-1.00003,192.32599,184.07215)" stroke-width=".3985" stroke-linecap="butt" stroke-miterlimit="10" stroke-linejoin="miter" fill="none" stroke="#929292" d="M-85.9215 49.60558-122.74556 70.86697"/>
<path transform="matrix(1,0,0,-1.00003,192.32599,184.07215)" d="M-120.75304 70.86697C-120.75304 71.96742-121.64511 72.8595-122.74556 72.8595-123.846 72.8595-124.73808 71.96742-124.73808 70.86697-124.73808 69.76654-123.846 68.87445-122.74556 68.87445-121.64511 68.87445-120.75304 69.76654-120.75304 70.86697ZM-122.74556 70.86697"/>
<path transform="matrix(1,0,0,-1.00003,192.32599,184.07215)" stroke-width=".3985" stroke-linecap="butt" stroke-miterlimit="10" stroke-linejoin="miter" fill="none" stroke="#000000" d="M-120.75304 70.86697C-120.75304 71.96742-121.64511 72.8595-122.74556 72.8595-123.846 72.8595-124.73808 71.96742-124.73808 70.86697-124.73808 69.76654-123.846 68.87445-122.74556 68.87445-121.64511 68.87445-120.75304 69.76654-120.75304 70.86697ZM-122.74556 70.86697"/>
<path transform="matrix(1,0,0,-1.00003,192.32599,184.07215)" stroke-width=".3985" stroke-linecap="butt" stroke-miterlimit="10" stroke-linejoin="miter" fill="none" stroke="#929292" d="M0 0H-70.86697"/>
<path transform="matrix(1,0,0,-1.00003,192.32599,184.07215)" stroke-width=".3985" stroke-linecap="butt" stroke-miterlimit="10" stroke-linejoin="miter" fill="none" stroke="#929292" d="M-99.21335 0H-141.73404"/>
<path transform="matrix(1,0,0,-1.00003,192.32599,184.07215)" d="M-139.74152 0C-139.74152 1.10043-140.6336 1.99252-141.73404 1.99252-142.83449 1.99252-143.72657 1.10043-143.72657 0-143.72657-1.10043-142.83449-1.99252-141.73404-1.99252-140.6336-1.99252-139.74152-1.10043-139.74152 0ZM-141.73404 0"/>
<path transform="matrix(1,0,0,-1.00003,192.32599,184.07215)" stroke-width=".3985" stroke-linecap="butt" stroke-miterlimit="10" stroke-linejoin="miter" fill="none" stroke="#000000" d="M-139.74152 0C-139.74152 1.10043-140.6336 1.99252-141.73404 1.99252-142.83449 1.99252-143.72657 1.10043-143.72657 0-143.72657-1.10043-142.83449-1.99252-141.73404-1.99252-140.6336-1.99252-139.74152-1.10043-139.74152 0ZM-141.73404 0"/>
<path transform="matrix(1,0,0,-1.00003,192.32599,184.07215)" stroke-width=".3985" stroke-linecap="butt" stroke-miterlimit="10" stroke-linejoin="miter" fill="none" stroke="#929292" d="M0 0-61.37274-35.43344"/>
<path transform="matrix(1,0,0,-1.00003,192.32599,184.07215)" stroke-width=".3985" stroke-linecap="butt" stroke-miterlimit="10" stroke-linejoin="miter" fill="none" stroke="#929292" d="M-85.9215-49.60558-122.74556-70.86697"/>
<path transform="matrix(1,0,0,-1.00003,192.32599,184.07215)" d="M-120.75304-70.86697C-120.75304-69.76654-121.64511-68.87445-122.74556-68.87445-123.846-68.87445-124.73808-69.76654-124.73808-70.86697-124.73808-71.96742-123.846-72.8595-122.74556-72.8595-121.64511-72.8595-120.75304-71.96742-120.75304-70.86697ZM-122.74556-70.86697"/>
<path transform="matrix(1,0,0,-1.00003,192.32599,184.07215)" stroke-width=".3985" stroke-linecap="butt" stroke-miterlimit="10" stroke-linejoin="miter" fill="none" stroke="#000000" d="M-120.75304-70.86697C-120.75304-69.76654-121.64511-68.87445-122.74556-68.87445-123.846-68.87445-124.73808-69.76654-124.73808-70.86697-124.73808-71.96742-123.846-72.8595-122.74556-72.8595-121.64511-72.8595-120.75304-71.96742-120.75304-70.86697ZM-122.74556-70.86697"/>
<path transform="matrix(1,0,0,-1.00003,192.32599,184.07215)" stroke-width=".3985" stroke-linecap="butt" stroke-miterlimit="10" stroke-linejoin="miter" fill="none" stroke="#929292" d="M0 0-35.43344-61.37274"/>
<path transform="matrix(1,0,0,-1.00003,192.32599,184.07215)" stroke-width=".3985" stroke-linecap="butt" stroke-miterlimit="10" stroke-linejoin="miter" fill="none" stroke="#929292" d="M-49.60558-85.9215-70.86697-122.74556"/>
<path transform="matrix(1,0,0,-1.00003,192.32599,184.07215)" d="M-68.87445-122.74556C-68.87445-121.64511-69.76654-120.75304-70.86697-120.75304-71.96742-120.75304-72.8595-121.64511-72.8595-122.74556-72.8595-123.846-71.96742-124.73808-70.86697-124.73808-69.76654-124.73808-68.87445-123.846-68.87445-122.74556ZM-70.86697-122.74556"/>
<path transform="matrix(1,0,0,-1.00003,192.32599,184.07215)" stroke-width=".3985" stroke-linecap="butt" stroke-miterlimit="10" stroke-linejoin="miter" fill="none" stroke="#000000" d="M-68.87445-122.74556C-68.87445-121.64511-69.76654-120.75304-70.86697-120.75304-71.96742-120.75304-72.8595-121.64511-72.8595-122.74556-72.8595-123.846-71.96742-124.73808-70.86697-124.73808-69.76654-124.73808-68.87445-123.846-68.87445-122.74556ZM-70.86697-122.74556"/>
<path transform="matrix(1,0,0,-1.00003,192.32599,184.07215)" stroke-width=".3985" stroke-linecap="butt" stroke-miterlimit="10" stroke-linejoin="miter" fill="none" stroke="#929292" d="M0 0V-70.86697"/>
<path transform="matrix(1,0,0,-1.00003,192.32599,184.07215)" stroke-width=".3985" stroke-linecap="butt" stroke-miterlimit="10" stroke-linejoin="miter" fill="none" stroke="#929292" d="M0-99.21335V-141.73404"/>
<path transform="matrix(1,0,0,-1.00003,192.32599,184.07215)" d="M1.99252-141.73404C1.99252-140.6336 1.10043-139.74152 0-139.74152-1.10043-139.74152-1.99252-140.6336-1.99252-141.73404-1.99252-142.83449-1.10043-143.72657 0-143.72657 1.10043-143.72657 1.99252-142.83449 1.99252-141.73404ZM0-141.73404"/>
<path transform="matrix(1,0,0,-1.00003,192.32599,184.07215)" stroke-width=".3985" stroke-linecap="butt" stroke-miterlimit="10" stroke-linejoin="miter" fill="none" stroke="#000000" d="M1.99252-141.73404C1.99252-140.6336 1.10043-139.74152 0-139.74152-1.10043-139.74152-1.99252-140.6336-1.99252-141.73404-1.99252-142.83449-1.10043-143.72657 0-143.72657 1.10043-143.72657 1.99252-142.83449 1.99252-141.73404ZM0-141.73404"/>
<path transform="matrix(1,0,0,-1.00003,192.32599,184.07215)" stroke-width=".3985" stroke-linecap="butt" stroke-miterlimit="10" stroke-linejoin="miter" fill="none" stroke="#929292" d="M0 0 35.43344-61.37274"/>
<path transform="matrix(1,0,0,-1.00003,192.32599,184.07215)" stroke-width=".3985" stroke-linecap="butt" stroke-miterlimit="10" stroke-linejoin="miter" fill="none" stroke="#929292" d="M49.60558-85.9215 70.86697-122.74556"/>
<path transform="matrix(1,0,0,-1.00003,192.32599,184.07215)" d="M72.8595-122.74556C72.8595-121.64511 71.96742-120.75304 70.86697-120.75304 69.76654-120.75304 68.87445-121.64511 68.87445-122.74556 68.87445-123.846 69.76654-124.73808 70.86697-124.73808 71.96742-124.73808 72.8595-123.846 72.8595-122.74556ZM70.86697-122.74556"/>
<path transform="matrix(1,0,0,-1.00003,192.32599,184.07215)" stroke-width=".3985" stroke-linecap="butt" stroke-miterlimit="10" stroke-linejoin="miter" fill="none" stroke="#000000" d="M72.8595-122.74556C72.8595-121.64511 71.96742-120.75304 70.86697-120.75304 69.76654-120.75304 68.87445-121.64511 68.87445-122.74556 68.87445-123.846 69.76654-124.73808 70.86697-124.73808 71.96742-124.73808 72.8595-123.846 72.8595-122.74556ZM70.86697-122.74556"/>
<path transform="matrix(1,0,0,-1.00003,192.32599,184.07215)" stroke-width=".3985" stroke-linecap="butt" stroke-miterlimit="10" stroke-linejoin="miter" fill="none" stroke="#929292" d="M0 0 61.37274-35.43344"/>
<path transform="matrix(1,0,0,-1.00003,192.32599,184.07215)" stroke-width=".3985" stroke-linecap="butt" stroke-miterlimit="10" stroke-linejoin="miter" fill="none" stroke="#929292" d="M85.9215-49.60558 122.74556-70.86697"/>
<path transform="matrix(1,0,0,-1.00003,192.32599,184.07215)" d="M124.73808-70.86697C124.73808-69.76654 123.846-68.87445 122.74556-68.87445 121.64511-68.87445 120.75304-69.76654 120.75304-70.86697 120.75304-71.96742 121.64511-72.8595 122.74556-72.8595 123.846-72.8595 124.73808-71.96742 124.73808-70.86697ZM122.74556-70.86697"/>
<path transform="matrix(1,0,0,-1.00003,192.32599,184.07215)" stroke-width=".3985" stroke-linecap="butt" stroke-miterlimit="10" stroke-linejoin="miter" fill="none" stroke="#000000" d="M124.73808-70.86697C124.73808-69.76654 123.846-68.87445 122.74556-68.87445 121.64511-68.87445 120.75304-69.76654 120.75304-70.86697 120.75304-71.96742 121.64511-72.8595 122.74556-72.8595 123.846-72.8595 124.73808-71.96742 124.73808-70.86697ZM122.74556-70.86697"/>
<path transform="matrix(1,0,0,-1.00003,192.32599,184.07215)" stroke-width=".3985" stroke-linecap="butt" stroke-miterlimit="10" stroke-linejoin="miter" fill="none" stroke="#929292" d="M0 0H70.86697"/>
<path transform="matrix(1,0,0,-1.00003,192.32599,184.07215)" stroke-width=".3985" stroke-linecap="butt" stroke-miterlimit="10" stroke-linejoin="miter" fill="none" stroke="#929292" d="M99.21335 0H141.73404"/>
<path transform="matrix(1,0,0,-1.00003,192.32599,184.07215)" d="M143.72657 0C143.72657 1.10043 142.83449 1.99252 141.73404 1.99252 140.6336 1.99252 139.74152 1.10043 139.74152 0 139.74152-1.10043 140.6336-1.99252 141.73404-1.99252 142.83449-1.99252 143.72657-1.10043 143.72657 0ZM141.73404 0"/>
<path transform="matrix(1,0,0,-1.00003,192.32599,184.07215)" stroke-width=".3985" stroke-linecap="butt" stroke-miterlimit="10" stroke-linejoin="miter" fill="none" stroke="#000000" d="M143.72657 0C143.72657 1.10043 142.83449 1.99252 141.73404 1.99252 140.6336 1.99252 139.74152 1.10043 139.74152 0 139.74152-1.10043 140.6336-1.99252 141.73404-1.99252 142.83449-1.99252 143.72657-1.10043 143.72657 0ZM141.73404 0"/>
<path transform="matrix(1,0,0,-1.00003,192.32599,184.07215)" stroke-width=".3985" stroke-linecap="butt" stroke-miterlimit="10" stroke-linejoin="miter" fill="none" stroke="#000000" d="M73.64606 42.52061"/>
<use data-text="&#x03c0;" xlink:href="#font_2_1" transform="matrix(6.9738,0,0,-6.9740097,263.518,139.3728)"/>
<path transform="matrix(1,0,0,-1.00003,-16.003998,-27.788228)" stroke-width=".3985" stroke-linecap="butt" stroke-miterlimit="10" stroke-linejoin="miter" fill="none" stroke="#000000" d="M279.522-168.588H284.431"/>
<use data-text="6" xlink:href="#font_3_6" transform="matrix(6.9738,0,0,-6.9740097,263.987,146.73104)"/>
<path transform="matrix(1,0,0,-1.00003,192.32599,184.07215)" stroke-width=".3985" stroke-linecap="butt" stroke-miterlimit="10" stroke-linejoin="miter" fill="none" stroke="#000000" d="M42.52061 73.64606"/>
<use data-text="&#x03c0;" xlink:href="#font_2_1" transform="matrix(6.9738,0,0,-6.9740097,232.393,108.246868)"/>
<path transform="matrix(1,0,0,-1.00003,-47.129,-58.91416)" stroke-width=".3985" stroke-linecap="butt" stroke-miterlimit="10" stroke-linejoin="miter" fill="none" stroke="#000000" d="M279.522-168.588H284.431"/>
<use data-text="3" xlink:href="#font_3_3" transform="matrix(6.9738,0,0,-6.9740097,232.862,115.605098)"/>
<path transform="matrix(1,0,0,-1.00003,192.32599,184.07215)" stroke-width=".3985" stroke-linecap="butt" stroke-miterlimit="10" stroke-linejoin="miter" fill="none" stroke="#000000" d="M0 85.04123"/>
<use data-text="&#x03c0;" xlink:href="#font_2_1" transform="matrix(6.9738,0,0,-6.9740097,189.87201,96.851528)"/>
<path transform="matrix(1,0,0,-1.00003,-89.65,-70.3095)" stroke-width=".3985" stroke-linecap="butt" stroke-miterlimit="10" stroke-linejoin="miter" fill="none" stroke="#000000" d="M279.522-168.588H284.431"/>
<use data-text="2" xlink:href="#font_3_2" transform="matrix(6.9738,0,0,-6.9740097,190.341,104.209758)"/>
<path transform="matrix(1,0,0,-1.00003,192.32599,184.07215)" stroke-width=".3985" stroke-linecap="butt" stroke-miterlimit="10" stroke-linejoin="miter" fill="none" stroke="#000000" d="M-42.52061 73.64606"/>
<use data-text="2" xlink:href="#font_3_2" transform="matrix(6.9738,0,0,-6.9740097,145.366,108.99289)"/>
<use data-text="&#x03c0;" xlink:href="#font_2_1" transform="matrix(6.9738,0,0,-6.9740097,149.337,108.99289)"/>
<path transform="matrix(1,0,0,-1.00003,-134.156,-58.168138)" stroke-width=".3985" stroke-linecap="butt" stroke-miterlimit="10" stroke-linejoin="miter" fill="none" stroke="#000000" d="M279.522-168.588H288.402"/>
<use data-text="3" xlink:href="#font_3_3" transform="matrix(6.9738,0,0,-6.9740097,147.82,116.35112)"/>
<path transform="matrix(1,0,0,-1.00003,192.32599,184.07215)" stroke-width=".3985" stroke-linecap="butt" stroke-miterlimit="10" stroke-linejoin="miter" fill="none" stroke="#000000" d="M-73.64606 42.52061"/>
<use data-text="5" xlink:href="#font_3_5" transform="matrix(6.9738,0,0,-6.9740097,114.240009,140.11882)"/>
<use data-text="&#x03c0;" xlink:href="#font_2_1" transform="matrix(6.9738,0,0,-6.9740097,118.21101,140.11882)"/>
<path transform="matrix(1,0,0,-1.00003,-165.282,-27.042202)" stroke-width=".3985" stroke-linecap="butt" stroke-miterlimit="10" stroke-linejoin="miter" fill="none" stroke="#000000" d="M279.522-168.588H288.402"/>
<use data-text="6" xlink:href="#font_3_6" transform="matrix(6.9738,0,0,-6.9740097,116.694019,147.47705)"/>
<path transform="matrix(1,0,0,-1.00003,192.32599,184.07215)" stroke-width=".3985" stroke-linecap="butt" stroke-miterlimit="10" stroke-linejoin="miter" fill="none" stroke="#000000" d="M-85.04123 0"/>
<use data-text="&#x03c0;" xlink:href="#font_1_1" transform="matrix(9.9626,0,0,-9.962899,104.267,186.21721)"/>
<path transform="matrix(1,0,0,-1.00003,192.32599,184.07215)" stroke-width=".3985" stroke-linecap="butt" stroke-miterlimit="10" stroke-linejoin="miter" fill="none" stroke="#000000" d="M-73.64606-42.52061"/>
<use data-text="7" xlink:href="#font_3_7" transform="matrix(6.9738,0,0,-6.9740097,114.240009,225.16239)"/>
<use data-text="&#x03c0;" xlink:href="#font_2_1" transform="matrix(6.9738,0,0,-6.9740097,118.21101,225.16239)"/>
<path transform="matrix(1,0,0,-1.00003,-165.282,58.00135)" stroke-width=".3985" stroke-linecap="butt" stroke-miterlimit="10" stroke-linejoin="miter" fill="none" stroke="#000000" d="M279.522-168.588H288.402"/>
<use data-text="6" xlink:href="#font_3_6" transform="matrix(6.9738,0,0,-6.9740097,116.694019,232.5206)"/>
<path transform="matrix(1,0,0,-1.00003,192.32599,184.07215)" stroke-width=".3985" stroke-linecap="butt" stroke-miterlimit="10" stroke-linejoin="miter" fill="none" stroke="#000000" d="M-42.52061-73.64606"/>
<use data-text="4" xlink:href="#font_3_4" transform="matrix(6.9738,0,0,-6.9740097,145.366,256.2893)"/>
<use data-text="&#x03c0;" xlink:href="#font_2_1" transform="matrix(6.9738,0,0,-6.9740097,149.337,256.2893)"/>
<path transform="matrix(1,0,0,-1.00003,-134.156,89.12829)" stroke-width=".3985" stroke-linecap="butt" stroke-miterlimit="10" stroke-linejoin="miter" fill="none" stroke="#000000" d="M279.522-168.588H288.402"/>
<use data-text="3" xlink:href="#font_3_3" transform="matrix(6.9738,0,0,-6.9740097,147.82,263.64756)"/>
<path transform="matrix(1,0,0,-1.00003,192.32599,184.07215)" stroke-width=".3985" stroke-linecap="butt" stroke-miterlimit="10" stroke-linejoin="miter" fill="none" stroke="#000000" d="M0-85.04123"/>
<use data-text="3" xlink:href="#font_3_3" transform="matrix(6.9738,0,0,-6.9740097,187.886,267.68467)"/>
<use data-text="&#x03c0;" xlink:href="#font_2_1" transform="matrix(6.9738,0,0,-6.9740097,191.85701,267.68467)"/>
<path transform="matrix(1,0,0,-1.00003,-91.636,100.52363)" stroke-width=".3985" stroke-linecap="butt" stroke-miterlimit="10" stroke-linejoin="miter" fill="none" stroke="#000000" d="M279.522-168.588H288.402"/>
<use data-text="2" xlink:href="#font_3_2" transform="matrix(6.9738,0,0,-6.9740097,190.34001,275.04289)"/>
<path transform="matrix(1,0,0,-1.00003,192.32599,184.07215)" stroke-width=".3985" stroke-linecap="butt" stroke-miterlimit="10" stroke-linejoin="miter" fill="none" stroke="#000000" d="M42.52061-73.64606"/>
<use data-text="5" xlink:href="#font_3_5" transform="matrix(6.9738,0,0,-6.9740097,230.407,256.2893)"/>
<use data-text="&#x03c0;" xlink:href="#font_2_1" transform="matrix(6.9738,0,0,-6.9740097,234.378,256.2893)"/>
<path transform="matrix(1,0,0,-1.00003,-49.115,89.12829)" stroke-width=".3985" stroke-linecap="butt" stroke-miterlimit="10" stroke-linejoin="miter" fill="none" stroke="#000000" d="M279.522-168.588H288.402"/>
<use data-text="3" xlink:href="#font_3_3" transform="matrix(6.9738,0,0,-6.9740097,232.86101,263.64756)"/>
<path transform="matrix(1,0,0,-1.00003,192.32599,184.07215)" stroke-width=".3985" stroke-linecap="butt" stroke-miterlimit="10" stroke-linejoin="miter" fill="none" stroke="#000000" d="M73.64606-42.52061"/>
<use data-text="1" xlink:href="#font_3_1" transform="matrix(6.9738,0,0,-6.9740097,259.547,225.16239)"/>
<use data-text="1" xlink:href="#font_3_1" transform="matrix(6.9738,0,0,-6.9740097,263.51509,225.16239)"/>
<use data-text="&#x03c0;" xlink:href="#font_2_1" transform="matrix(6.9738,0,0,-6.9740097,267.48899,225.16239)"/>
<path transform="matrix(1,0,0,-1.00003,-19.974999,58.00135)" stroke-width=".3985" stroke-linecap="butt" stroke-miterlimit="10" stroke-linejoin="miter" fill="none" stroke="#000000" d="M279.522-168.588H292.373"/>
<use data-text="6" xlink:href="#font_3_6" transform="matrix(6.9738,0,0,-6.9740097,263.987,232.5206)"/>
<path transform="matrix(1,0,0,-1.00003,192.32599,184.07215)" stroke-width=".3985" stroke-linecap="butt" stroke-miterlimit="10" stroke-linejoin="miter" fill="none" stroke="#000000" d="M85.04123 0"/>
<use data-text="2" xlink:href="#font_4_5" transform="matrix(9.9626,0,0,-9.962899,271.85798,187.28224)"/>
<use data-text="&#x03c0;" xlink:href="#font_1_1" transform="matrix(9.9626,0,0,-9.962899,276.83998,187.28224)"/>
<path transform="matrix(1,0,0,-1.00003,192.32599,184.07215)" stroke-width=".3985" stroke-linecap="butt" stroke-miterlimit="10" stroke-linejoin="miter" fill="none" stroke="#000000" d="M153.43196 88.58374"/>
<use data-text="(" xlink:href="#font_5_1" transform="matrix(9.9626,0,0,-9.962899,327.95899,86.91822)"/>
<use data-text="&#x221a;" xlink:href="#font_6_1" transform="matrix(6.9738,0,0,-6.9740097,335.10499,88.25327)"/>
<path transform="matrix(1,0,0,-1.00003,49.632997,-73.10659)" stroke-width=".3387" stroke-linecap="butt" stroke-miterlimit="10" stroke-linejoin="miter" fill="none" stroke="#000000" d="M292.017-161.186H295.988"/>
<use data-text="3" xlink:href="#font_3_3" transform="matrix(6.9738,0,0,-6.9740097,341.65,94.02943)"/>
<path transform="matrix(1,0,0,-1.00003,49.632997,-73.10659)" stroke-width=".3985" stroke-linecap="butt" stroke-miterlimit="10" stroke-linejoin="miter" fill="none" stroke="#000000" d="M285.472-168.588H295.988"/>
<use data-text="2" xlink:href="#font_3_2" transform="matrix(6.9738,0,0,-6.9740097,338.37699,101.41267)"/>
<use data-text="," xlink:href="#font_1_2" transform="matrix(9.9626,0,0,-9.962899,346.81599,97.976558)"/>
<use data-text="1" xlink:href="#font_3_1" transform="matrix(6.9738,0,0,-6.9740097,352.43998,94.054439)"/>
<path transform="matrix(1,0,0,-1.00003,49.632997,-73.10659)" stroke-width=".3985" stroke-linecap="butt" stroke-miterlimit="10" stroke-linejoin="miter" fill="none" stroke="#000000" d="M302.807-168.588H306.778"/>
<use data-text="2" xlink:href="#font_3_2" transform="matrix(6.9738,0,0,-6.9740097,352.44,101.41267)"/>
<use data-text=")" xlink:href="#font_5_2" transform="matrix(9.9626,0,0,-9.962899,357.607,86.91822)"/>
<path transform="matrix(1,0,0,-1.00003,192.32599,184.07215)" stroke-width=".3985" stroke-linecap="butt" stroke-miterlimit="10" stroke-linejoin="miter" fill="none" stroke="#000000" d="M88.58374 153.43196"/>
<use data-text="(" xlink:href="#font_5_1" transform="matrix(9.9626,0,0,-9.962899,263.111,22.068284)"/>
<use data-text="1" xlink:href="#font_3_1" transform="matrix(6.9738,0,0,-6.9740097,270.257,29.204499)"/>
<path transform="matrix(1,0,0,-1.00003,-15.214996,-137.95653)" stroke-width=".3985" stroke-linecap="butt" stroke-miterlimit="10" stroke-linejoin="miter" fill="none" stroke="#000000" d="M285.472-168.588H289.443"/>
<use data-text="2" xlink:href="#font_3_2" transform="matrix(6.9738,0,0,-6.9740097,270.257,36.56273)"/>
<use data-text="," xlink:href="#font_1_2" transform="matrix(9.9626,0,0,-9.962899,275.42399,33.126619)"/>
<use data-text="&#x221a;" xlink:href="#font_6_1" transform="matrix(6.9738,0,0,-6.9740097,281.04698,23.403336)"/>
<path transform="matrix(1,0,0,-1.00003,-15.214996,-137.95653)" stroke-width=".3387" stroke-linecap="butt" stroke-miterlimit="10" stroke-linejoin="miter" fill="none" stroke="#000000" d="M302.807-161.186H306.778"/>
<use data-text="3" xlink:href="#font_3_3" transform="matrix(6.9738,0,0,-6.9740097,287.592,29.17949)"/>
<path transform="matrix(1,0,0,-1.00003,-15.214996,-137.95653)" stroke-width=".3985" stroke-linecap="butt" stroke-miterlimit="10" stroke-linejoin="miter" fill="none" stroke="#000000" d="M296.262-168.588H306.778"/>
<use data-text="2" xlink:href="#font_3_2" transform="matrix(6.9738,0,0,-6.9740097,284.319,36.56273)"/>
<use data-text=")" xlink:href="#font_5_2" transform="matrix(9.9626,0,0,-9.962899,292.759,22.068284)"/>
<path transform="matrix(1,0,0,-1.00003,192.32599,184.07215)" stroke-width=".3985" stroke-linecap="butt" stroke-miterlimit="10" stroke-linejoin="miter" fill="none" stroke="#000000" d="M-153.43196 88.58374"/>
<use data-text="(" xlink:href="#font_5_1" transform="matrix(9.9626,0,0,-9.962899,17.221009,86.91822)"/>
<use data-text="&#x2212;" xlink:href="#font_7_1" transform="matrix(9.9626,0,0,-9.962899,23.17102,97.976558)"/>
<use data-text="&#x221a;" xlink:href="#font_6_1" transform="matrix(6.9738,0,0,-6.9740097,32.116029,88.25327)"/>
<path transform="matrix(1,0,0,-1.00003,-261.10499,-73.10659)" stroke-width=".3387" stroke-linecap="butt" stroke-miterlimit="10" stroke-linejoin="miter" fill="none" stroke="#000000" d="M299.765-161.186H303.737"/>
<use data-text="3" xlink:href="#font_3_3" transform="matrix(6.9738,0,0,-6.9740097,38.660036,94.02943)"/>
<path transform="matrix(1,0,0,-1.00003,-261.10499,-73.10659)" stroke-width=".3985" stroke-linecap="butt" stroke-miterlimit="10" stroke-linejoin="miter" fill="none" stroke="#000000" d="M293.221-168.588H303.737"/>
<use data-text="2" xlink:href="#font_3_2" transform="matrix(6.9738,0,0,-6.9740097,35.38803,101.41267)"/>
<use data-text="," xlink:href="#font_1_2" transform="matrix(9.9626,0,0,-9.962899,43.827028,97.976558)"/>
<use data-text="1" xlink:href="#font_3_1" transform="matrix(6.9738,0,0,-6.9740097,49.45102,94.054439)"/>
<path transform="matrix(1,0,0,-1.00003,-261.10499,-73.10659)" stroke-width=".3985" stroke-linecap="butt" stroke-miterlimit="10" stroke-linejoin="miter" fill="none" stroke="#000000" d="M310.556-168.588H314.527"/>
<use data-text="2" xlink:href="#font_3_2" transform="matrix(6.9738,0,0,-6.9740097,49.45102,101.41267)"/>
<use data-text=")" xlink:href="#font_5_2" transform="matrix(9.9626,0,0,-9.962899,54.617006,86.91822)"/>
<path transform="matrix(1,0,0,-1.00003,192.32599,184.07215)" stroke-width=".3985" stroke-linecap="butt" stroke-miterlimit="10" stroke-linejoin="miter" fill="none" stroke="#000000" d="M-88.58374 153.43196"/>
<use data-text="(" xlink:href="#font_5_1" transform="matrix(9.9626,0,0,-9.962899,82.068988,22.068284)"/>
<use data-text="&#x2212;" xlink:href="#font_7_1" transform="matrix(9.9626,0,0,-9.962899,88.019,33.126619)"/>
<use data-text="1" xlink:href="#font_3_1" transform="matrix(6.9738,0,0,-6.9740097,96.964008,29.204499)"/>
<path transform="matrix(1,0,0,-1.00003,-196.257,-137.95653)" stroke-width=".3985" stroke-linecap="butt" stroke-miterlimit="10" stroke-linejoin="miter" fill="none" stroke="#000000" d="M293.221-168.588H297.192"/>
<use data-text="2" xlink:href="#font_3_2" transform="matrix(6.9738,0,0,-6.9740097,96.964008,36.56273)"/>
<use data-text="," xlink:href="#font_1_2" transform="matrix(9.9626,0,0,-9.962899,102.12999,33.126619)"/>
<use data-text="&#x221a;" xlink:href="#font_6_1" transform="matrix(6.9738,0,0,-6.9740097,107.75398,23.403336)"/>
<path transform="matrix(1,0,0,-1.00003,-196.257,-137.95653)" stroke-width=".3387" stroke-linecap="butt" stroke-miterlimit="10" stroke-linejoin="miter" fill="none" stroke="#000000" d="M310.556-161.186H314.527"/>
<use data-text="3" xlink:href="#font_3_3" transform="matrix(6.9738,0,0,-6.9740097,114.298999,29.17949)"/>
<path transform="matrix(1,0,0,-1.00003,-196.257,-137.95653)" stroke-width=".3985" stroke-linecap="butt" stroke-miterlimit="10" stroke-linejoin="miter" fill="none" stroke="#000000" d="M304.011-168.588H314.527"/>
<use data-text="2" xlink:href="#font_3_2" transform="matrix(6.9738,0,0,-6.9740097,111.025989,36.56273)"/>
<use data-text=")" xlink:href="#font_5_2" transform="matrix(9.9626,0,0,-9.962899,119.46498,22.068284)"/>
<path transform="matrix(1,0,0,-1.00003,192.32599,184.07215)" stroke-width=".3985" stroke-linecap="butt" stroke-miterlimit="10" stroke-linejoin="miter" fill="none" stroke="#000000" d="M-153.43196-88.58374"/>
<use data-text="(" xlink:href="#font_5_1" transform="matrix(9.9626,0,0,-9.962899,13.346008,264.09056)"/>
<use data-text="&#x2212;" xlink:href="#font_7_1" transform="matrix(9.9626,0,0,-9.962899,19.29602,275.14888)"/>
<use data-text="&#x221a;" xlink:href="#font_6_1" transform="matrix(6.9738,0,0,-6.9740097,28.241028,265.4256)"/>
<path transform="matrix(1,0,0,-1.00003,-264.97999,104.065738)" stroke-width=".3387" stroke-linecap="butt" stroke-miterlimit="10" stroke-linejoin="miter" fill="none" stroke="#000000" d="M299.765-161.186H303.737"/>
<use data-text="3" xlink:href="#font_3_3" transform="matrix(6.9738,0,0,-6.9740097,34.785036,271.20176)"/>
<path transform="matrix(1,0,0,-1.00003,-264.97999,104.065738)" stroke-width=".3985" stroke-linecap="butt" stroke-miterlimit="10" stroke-linejoin="miter" fill="none" stroke="#000000" d="M293.221-168.588H303.737"/>
<use data-text="2" xlink:href="#font_3_2" transform="matrix(6.9738,0,0,-6.9740097,31.513031,278.585)"/>
<use data-text="," xlink:href="#font_1_2" transform="matrix(9.9626,0,0,-9.962899,39.952028,275.14888)"/>
<use data-text="&#x2212;" xlink:href="#font_7_1" transform="matrix(9.9626,0,0,-9.962899,44.380037,275.14888)"/>
<use data-text="1" xlink:href="#font_3_1" transform="matrix(6.9738,0,0,-6.9740097,53.324037,271.22676)"/>
<path transform="matrix(1,0,0,-1.00003,-264.97999,104.065738)" stroke-width=".3985" stroke-linecap="butt" stroke-miterlimit="10" stroke-linejoin="miter" fill="none" stroke="#000000" d="M318.304-168.588H322.276"/>
<use data-text="2" xlink:href="#font_3_2" transform="matrix(6.9738,0,0,-6.9740097,53.324007,278.585)"/>
<use data-text=")" xlink:href="#font_5_2" transform="matrix(9.9626,0,0,-9.962899,58.490999,264.09056)"/>
<path transform="matrix(1,0,0,-1.00003,192.32599,184.07215)" stroke-width=".3985" stroke-linecap="butt" stroke-miterlimit="10" stroke-linejoin="miter" fill="none" stroke="#000000" d="M-88.58374-153.43196"/>
<use data-text="(" xlink:href="#font_5_1" transform="matrix(9.9626,0,0,-9.962899,78.19499,328.9415)"/>
<use data-text="&#x2212;" xlink:href="#font_7_1" transform="matrix(9.9626,0,0,-9.962899,84.145008,339.99983)"/>
<use data-text="1" xlink:href="#font_3_1" transform="matrix(6.9738,0,0,-6.9740097,93.09001,336.0777)"/>
<path transform="matrix(1,0,0,-1.00003,-200.131,168.91669)" stroke-width=".3985" stroke-linecap="butt" stroke-miterlimit="10" stroke-linejoin="miter" fill="none" stroke="#000000" d="M293.221-168.588H297.192"/>
<use data-text="2" xlink:href="#font_3_2" transform="matrix(6.9738,0,0,-6.9740097,93.09001,343.43595)"/>
<use data-text="," xlink:href="#font_1_2" transform="matrix(9.9626,0,0,-9.962899,98.256,339.99983)"/>
<use data-text="&#x2212;" xlink:href="#font_7_1" transform="matrix(9.9626,0,0,-9.962899,102.684009,339.99983)"/>
<use data-text="&#x221a;" xlink:href="#font_6_1" transform="matrix(6.9738,0,0,-6.9740097,111.628009,330.27656)"/>
<path transform="matrix(1,0,0,-1.00003,-200.131,168.91669)" stroke-width=".3387" stroke-linecap="butt" stroke-miterlimit="10" stroke-linejoin="miter" fill="none" stroke="#000000" d="M318.304-161.186H322.276"/>
<use data-text="3" xlink:href="#font_3_3" transform="matrix(6.9738,0,0,-6.9740097,118.17299,336.0527)"/>
<path transform="matrix(1,0,0,-1.00003,-200.131,168.91669)" stroke-width=".3985" stroke-linecap="butt" stroke-miterlimit="10" stroke-linejoin="miter" fill="none" stroke="#000000" d="M311.759-168.588H322.276"/>
<use data-text="2" xlink:href="#font_3_2" transform="matrix(6.9738,0,0,-6.9740097,114.90102,343.43595)"/>
<use data-text=")" xlink:href="#font_5_2" transform="matrix(9.9626,0,0,-9.962899,123.34001,328.9415)"/>
<path transform="matrix(1,0,0,-1.00003,192.32599,184.07215)" stroke-width=".3985" stroke-linecap="butt" stroke-miterlimit="10" stroke-linejoin="miter" fill="none" stroke="#000000" d="M153.43196-88.58374"/>
<use data-text="(" xlink:href="#font_5_1" transform="matrix(9.9626,0,0,-9.962899,324.085,264.09056)"/>
<use data-text="&#x221a;" xlink:href="#font_6_1" transform="matrix(6.9738,0,0,-6.9740097,331.231,265.4256)"/>
<path transform="matrix(1,0,0,-1.00003,45.759004,104.065738)" stroke-width=".3387" stroke-linecap="butt" stroke-miterlimit="10" stroke-linejoin="miter" fill="none" stroke="#000000" d="M292.017-161.186H295.988"/>
<use data-text="3" xlink:href="#font_3_3" transform="matrix(6.9738,0,0,-6.9740097,337.776,271.20176)"/>
<path transform="matrix(1,0,0,-1.00003,45.759004,104.065738)" stroke-width=".3985" stroke-linecap="butt" stroke-miterlimit="10" stroke-linejoin="miter" fill="none" stroke="#000000" d="M285.472-168.588H295.988"/>
<use data-text="2" xlink:href="#font_3_2" transform="matrix(6.9738,0,0,-6.9740097,334.503,278.585)"/>
<use data-text="," xlink:href="#font_1_2" transform="matrix(9.9626,0,0,-9.962899,342.942,275.14888)"/>
<use data-text="&#x2212;" xlink:href="#font_7_1" transform="matrix(9.9626,0,0,-9.962899,347.37,275.14888)"/>
<use data-text="1" xlink:href="#font_3_1" transform="matrix(6.9738,0,0,-6.9740097,356.315,271.22676)"/>
<path transform="matrix(1,0,0,-1.00003,45.759004,104.065738)" stroke-width=".3985" stroke-linecap="butt" stroke-miterlimit="10" stroke-linejoin="miter" fill="none" stroke="#000000" d="M310.556-168.588H314.527"/>
<use data-text="2" xlink:href="#font_3_2" transform="matrix(6.9738,0,0,-6.9740097,356.315,278.585)"/>
<use data-text=")" xlink:href="#font_5_2" transform="matrix(9.9626,0,0,-9.962899,361.481,264.09056)"/>
<path transform="matrix(1,0,0,-1.00003,192.32599,184.07215)" stroke-width=".3985" stroke-linecap="butt" stroke-miterlimit="10" stroke-linejoin="miter" fill="none" stroke="#000000" d="M88.58374-153.43196"/>
<use data-text="(" xlink:href="#font_5_1" transform="matrix(9.9626,0,0,-9.962899,259.237,328.9415)"/>
<use data-text="1" xlink:href="#font_3_1" transform="matrix(6.9738,0,0,-6.9740097,266.383,336.0777)"/>
<path transform="matrix(1,0,0,-1.00003,-19.088997,168.91669)" stroke-width=".3985" stroke-linecap="butt" stroke-miterlimit="10" stroke-linejoin="miter" fill="none" stroke="#000000" d="M285.472-168.588H289.443"/>
<use data-text="2" xlink:href="#font_3_2" transform="matrix(6.9738,0,0,-6.9740097,266.383,343.43595)"/>
<use data-text="," xlink:href="#font_1_2" transform="matrix(9.9626,0,0,-9.962899,271.55,339.99983)"/>
<use data-text="&#x2212;" xlink:href="#font_7_1" transform="matrix(9.9626,0,0,-9.962899,275.977,339.99983)"/>
<use data-text="&#x221a;" xlink:href="#font_6_1" transform="matrix(6.9738,0,0,-6.9740097,284.922,330.27656)"/>
<path transform="matrix(1,0,0,-1.00003,-19.088997,168.91669)" stroke-width=".3387" stroke-linecap="butt" stroke-miterlimit="10" stroke-linejoin="miter" fill="none" stroke="#000000" d="M310.556-161.186H314.527"/>
<use data-text="3" xlink:href="#font_3_3" transform="matrix(6.9738,0,0,-6.9740097,291.467,336.0527)"/>
<path transform="matrix(1,0,0,-1.00003,-19.088997,168.91669)" stroke-width=".3985" stroke-linecap="butt" stroke-miterlimit="10" stroke-linejoin="miter" fill="none" stroke="#000000" d="M304.011-168.588H314.527"/>
<use data-text="2" xlink:href="#font_3_2" transform="matrix(6.9738,0,0,-6.9740097,288.194,343.43595)"/>
<use data-text=")" xlink:href="#font_5_2" transform="matrix(9.9626,0,0,-9.962899,296.633,328.9415)"/>
<path transform="matrix(1,0,0,-1.00003,192.32599,184.07215)" stroke-width=".3985" stroke-linecap="butt" stroke-miterlimit="10" stroke-linejoin="miter" fill="none" stroke="#000000" d="M0 177.1675"/>
<use data-text="(" xlink:href="#font_4_1" transform="matrix(9.9626,0,0,-9.962899,.21398926,177.06493)"/>
<use data-text="&#x2212;" xlink:href="#font_7_1" transform="matrix(9.9626,0,0,-9.962899,4.0889894,177.06493)"/>
<use data-text="1" xlink:href="#font_4_4" transform="matrix(9.9626,0,0,-9.962899,11.836975,177.06493)"/>
<use data-text="," xlink:href="#font_1_2" transform="matrix(9.9626,0,0,-9.962899,16.81897,177.06493)"/>
<use data-text="0" xlink:href="#font_4_3" transform="matrix(9.9626,0,0,-9.962899,21.246979,177.06493)"/>
<use data-text=")" xlink:href="#font_4_2" transform="matrix(9.9626,0,0,-9.962899,26.228272,177.06493)"/>
<use data-text="(" xlink:href="#font_4_1" transform="matrix(9.9626,0,0,-9.962899,358.424,177.06493)"/>
<use data-text="1" xlink:href="#font_4_4" transform="matrix(9.9626,0,0,-9.962899,362.2895,177.06493)"/>
<use data-text="," xlink:href="#font_1_2" transform="matrix(9.9626,0,0,-9.962899,367.27998,177.06493)"/>
<use data-text="0" xlink:href="#font_4_3" transform="matrix(9.9626,0,0,-9.962899,371.708,177.06493)"/>
<use data-text=")" xlink:href="#font_4_2" transform="matrix(9.9626,0,0,-9.962899,376.68928,177.06493)"/>
<use data-text="(" xlink:href="#font_4_1" transform="matrix(9.9626,0,0,-9.962899,177.38199,363.73554)"/>
<use data-text="0" xlink:href="#font_4_3" transform="matrix(9.9626,0,0,-9.962899,181.24747,363.73554)"/>
<use data-text="," xlink:href="#font_1_2" transform="matrix(9.9626,0,0,-9.962899,186.23798,363.73554)"/>
<use data-text="&#x2212;" xlink:href="#font_7_1" transform="matrix(9.9626,0,0,-9.962899,190.66599,363.73554)"/>
<use data-text="1" xlink:href="#font_4_4" transform="matrix(9.9626,0,0,-9.962899,198.41498,363.73554)"/>
<use data-text=")" xlink:href="#font_4_2" transform="matrix(9.9626,0,0,-9.962899,203.39627,363.73554)"/>
<use data-text="(" xlink:href="#font_4_1" transform="matrix(9.9626,0,0,-9.962899,181.25598,9.389893)"/>
<use data-text="0" xlink:href="#font_4_3" transform="matrix(9.9626,0,0,-9.962899,185.12146,9.389893)"/>
<use data-text="," xlink:href="#font_1_2" transform="matrix(9.9626,0,0,-9.962899,190.11197,9.389893)"/>
<use data-text="1" xlink:href="#font_4_4" transform="matrix(9.9626,0,0,-9.962899,194.53998,9.389893)"/>
<use data-text=")" xlink:href="#font_4_2" transform="matrix(9.9626,0,0,-9.962899,199.52127,9.389893)"/>
</svg>
