<svg xmlns="http://www.w3.org/2000/svg" xmlns:xlink="http://www.w3.org/1999/xlink" xmlns:inkscape="http://www.inkscape.org/namespaces/inkscape" version="1.1" width="215" height="173" viewBox="0 0 215 173">
<defs>
<path id="font_1_1" d="M.6589966 .23046875C.6759949 .23046875 .69400027 .23046875 .69400027 .25045777 .69400027 .27046205 .6759949 .27046205 .6589966 .27046205H.117996219C.100997928 .27046205 .08299255 .27046205 .08299255 .25045777 .08299255 .23046875 .100997928 .23046875 .117996219 .23046875H.6589966Z"/>
<path id="font_2_3" d="M.1269989 .07699585 .23298645 .18003845C.3889923 .31811524 .44898988 .3721466 .44898988 .47216798 .44898988 .5860901 .35899354 .6660156 .23699951 .6660156 .12399292 .6660156 .049987794 .57411196 .049987794 .48516847 .049987794 .4291687 .099990848 .4291687 .102996829 .4291687 .11999512 .4291687 .15499878 .44117738 .15499878 .48217774 .15499878 .5081787 .13699341 .5341797 .101989749 .5341797 .09399414 .5341797 .09199524 .5341797 .08898926 .5331726 .11199951 .59806826 .1659851 .63500979 .22399903 .63500979 .31498719 .63500979 .35798646 .5541382 .35798646 .47216798 .35798646 .39215089 .30799867 .31311036 .25299073 .25108338L.06098938 .036987306C.049987794 .025985718 .049987794 .023986817 .049987794 0H.42099L.44898988 .17404175H.42399598C.4189911 .14402771 .4119873 .1000061 .4019928 .084991458 .394989 .07699585 .32899476 .07699585 .30699159 .07699585H.1269989Z"/>
<path id="font_3_1" d="M.2649994 .37265016H.37799073C.34498597 .22489929 .33599855 .18196106 .33599855 .11508179 .33599855 .100097659 .33599855 .073150638 .34399415 .03919983 .35398866-.0047454836 .36499024-.0107421879 .37998963-.0107421879 .3999939-.0107421879 .42099 .007247925 .42099 .02722168 .42099 .033218385 .42099 .035202028 .4149933 .049179079 .38598634 .12106323 .38598634 .18595886 .38598634 .21391297 .38598634 .26683045 .3929901 .32073976 .4039917 .37265016H.5179901C.5309906 .37265016 .5669861 .37265016 .5669861 .406662 .5669861 .43066407 .54599 .43066407 .5269928 .43066407H.19198609C.16999817 .43066407 .13198853 .43066407 .08799744 .38365174 .052993776 .34469605 .026992798 .29878236 .026992798 .29379273 .026992798 .29278565 .026992798 .28379823 .038986207 .28379823 .04699707 .28379823 .04899597 .28779603 .054992677 .29577638 .10398865 .37265016 .1619873 .37265016 .18199158 .37265016H.23899842C.20698548 .25186158 .15299988 .13105774 .11099243 .04020691 .102996829 .025222779 .102996829 .023223877 .102996829 .016235352 .102996829-.002746582 .11898804-.0107421879 .13198853-.0107421879 .1619873-.0107421879 .16999817 .017242432 .18199158 .05418396 .19599915 .100097659 .19599915 .10209656 .20899964 .15202332L.2649994 .37265016Z"/>
<path id="font_2_2" d="M.2939911 .64004519C.2939911 .66400149 .2939911 .6660156 .2709961 .6660156 .20899964 .60227969 .12098694 .60227969 .08898926 .60227969V.57128909C.10899353 .57128909 .16799927 .57128909 .21998596 .5972748V.07902527C.21998596 .042999269 .21699524 .0309906 .1269989 .0309906H.09498596V0C.12998963 .0029907227 .21699524 .0029907227 .25698854 .0029907227 .29699708 .0029907227 .38398744 .0029907227 .4189911 0V.0309906H.3869934C.29699708 .0309906 .2939911 .041992189 .2939911 .07902527V.64004519Z"/>
<path id="font_2_1" d="M.45999146 .31976319C.45999146 .39982606 .45498658 .47988893 .41999818 .5539398 .37399293 .65000918 .2919922 .6660156 .25 .6660156 .18998719 .6660156 .116989139 .64001467 .07598877 .54693606 .04399109 .47789 .038986207 .39982606 .038986207 .31976319 .038986207 .24472046 .042999269 .15464783 .083999637 .07859802 .1269989-.0024719239 .19999695-.022460938 .24899292-.022460938 .30299378-.022460938 .3789978-.0014648438 .4229889 .09359741 .45498658 .16265869 .45999146 .2407074 .45999146 .31976319M.24899292-.00047302247C.20999146-.00047302247 .15098572 .024551392 .1329956 .12062073 .12199402 .18066406 .12199402 .2727356 .12199402 .3317871 .12199402 .39582826 .12199402 .46188355 .12998963 .5159149 .14898682 .63500979 .22399903 .64401248 .24899292 .64401248 .28199769 .64401248 .34799195 .6259918 .36698915 .52693179 .3769989 .47088624 .3769989 .39482118 .3769989 .3317871 .3769989 .25672914 .3769989 .18867493 .3659973 .12461853 .35099793 .029556275 .2939911-.00047302247 .24899292-.00047302247Z"/>
<path id="font_2_4" d="M.44898988 .20022583C.44898988 .3193512 .36698915 .41944886 .25898744 .41944886 .21099854 .41944886 .16799927 .40345765 .13198853 .36842347V.5637665C.1519928 .5577698 .18499756 .55078127 .21699524 .55078127 .33999635 .55078127 .4099884 .6417694 .4099884 .6547699 .4099884 .6607666 .40699769 .6657715 .3999939 .6657715 .39898683 .6657715 .39698792 .6657715 .3919983 .66278079 .37199403 .6537781 .32299806 .6337738 .2559967 .6337738 .21598816 .6337738 .16999817 .6407776 .12298584 .6617737 .114990238 .66477969 .11299133 .66477969 .11099243 .66477969 .100997928 .66477969 .100997928 .6567688 .100997928 .6407776V.34439088C.100997928 .32637025 .100997928 .31835938 .114990238 .31835938 .12199402 .31835938 .12399292 .32136537 .12799073 .32736207 .13899231 .3433838 .17599488 .39746095 .25698854 .39746095 .30899049 .39746095 .33399964 .35139466 .34199525 .33337403 .35798646 .29632569 .3600006 .25727845 .3600006 .20722962 .3600006 .17222595 .3600006 .11222839 .33599855 .07035828 .31199647 .031463624 .2749939 .0055389406 .22898865 .0055389406 .1559906 .0055389406 .09899902 .058380128 .08198547 .11723328 .084991458 .1162262 .08799744 .115234378 .09899902 .115234378 .13198853 .115234378 .14898682 .14022827 .14898682 .16423035 .14898682 .18823242 .13198853 .21322632 .09899902 .21322632 .084991458 .21322632 .049987794 .20622254 .049987794 .16023255 .049987794 .07434082 .11898804-.022460938 .23098755-.022460938 .34700013-.022460938 .44898988 .073349 .44898988 .20022583Z"/>
<path id="font_4_85" d="M.33099366-.2400055C.33099366-.23701477 .33099366-.23500061 .31399537-.21800232 .18899536-.0920105 .15699768 .09700012 .15699768 .25 .15699768 .42399598 .19499207 .59799197 .31799317 .72299197 .33099366 .7350006 .33099366 .7369995 .33099366 .73999026 .33099366 .746994 .32699586 .75 .32099916 .75 .31098939 .75 .22099304 .6819916 .1619873 .5549927 .11099243 .44499208 .09899902 .33399964 .09899902 .25 .09899902 .17199707 .10998535 .050994874 .16499329-.06201172 .22499085-.18501282 .31098939-.25 .32099916-.25 .32699586-.25 .33099366-.24700928 .33099366-.2400055Z"/>
<path id="font_4_42" d="M.6649933 .23271179C.6649933 .24272156 .6649933 .24972534 .6519928 .24972534 .6409912 .24972534 .6409912 .24372864 .6399994 .23371887 .6319885 .09059143 .5249939 .008529663 .41600038 .008529663 .35499574 .008529663 .15899658 .042556764 .15899658 .34080506 .15899658 .64004519 .35398866 .67407229 .4149933 .67407229 .5239868 .67407229 .61299136 .58299258 .6329956 .4368744 .6349945 .42286683 .6349945 .41986085 .6489868 .41986085 .6649933 .41986085 .6649933 .42286683 .6649933 .44387818V.68107607C.6649933 .69807437 .6649933 .7050781 .6539917 .7050781 .6499939 .7050781 .6459961 .7050781 .6380005 .69306948L.58799746 .61901858C.5509949 .6550598 .5 .7050781 .4039917 .7050781 .21699524 .7050781 .055999757 .5459595 .055999757 .34179688 .055999757 .1346283 .21798706-.022460938 .4039917-.022460938 .5669861-.022460938 .6649933 .116622928 .6649933 .23271179Z"/>
<path id="font_4_86" d="M.2889862 .25C.2889862 .32798768 .27799989 .44898988 .22299195 .56199648 .16299439 .68499758 .07699585 .75 .066986087 .75 .06098938 .75 .056991579 .74598696 .056991579 .73999026 .056991579 .7369995 .056991579 .7350006 .07598877 .71699526 .17399597 .6179962 .23098755 .45899964 .23098755 .25 .23098755 .07899475 .19400025-.09700012 .069992069-.2230072 .056991579-.23500061 .056991579-.23701477 .056991579-.2400055 .056991579-.2460022 .06098938-.25 .066986087-.25 .07699585-.25 .16699219-.18200684 .22599793-.055007936 .2769928 .054992677 .2889862 .16600037 .2889862 .25Z"/>
<path id="font_3_2" d="M.33399964 .30233766C.33999635 .32835389 .36299134 .42037965 .43299867 .42037965 .43798829 .42037965 .46199037 .42037965 .48298646 .40734864 .45498658 .402359 .43499757 .37734986 .43499757 .35334779 .43499757 .33735658 .44599916 .31835938 .47299195 .31835938 .49499513 .31835938 .5269928 .3363495 .5269928 .37635804 .5269928 .42837525 .46798707 .4423828 .43399049 .4423828 .37599183 .4423828 .34098817 .38935853 .32899476 .36634828 .3039856 .43237306 .25 .4423828 .22099304 .4423828 .116989139 .4423828 .05999756 .3133545 .05999756 .28834535 .05999756 .27833558 .069992069 .27833558 .07199097 .27833558 .07998657 .27833558 .08299255 .28033448 .084991458 .28933717 .11898804 .39535523 .18499756 .42037965 .21899414 .42037965 .23799134 .42037965 .272995 .4113617 .272995 .35334779 .272995 .32235719 .2559967 .25532533 .21899414 .11528015 .20298767 .053268434 .16799927 .011245728 .12399292 .011245728 .117996219 .011245728 .09498596 .011245728 .07398987 .024276734 .09899902 .029266358 .12098694 .05027771 .12098694 .07827759 .12098694 .105270389 .09899902 .11328125 .083999637 .11328125 .053985597 .11328125 .0289917 .08728027 .0289917 .055267335 .0289917 .009246826 .07899475-.0107421879 .12298584-.0107421879 .18899536-.0107421879 .22499085 .059280397 .22799683 .0652771 .23999024 .028274537 .27598573-.0107421879 .33599855-.0107421879 .43899537-.0107421879 .49598695 .118270877 .49598695 .14328003 .49598695 .1532898 .4869995 .1532898 .48399354 .1532898 .47499085 .1532898 .47299195 .14929199 .47099305 .14228821 .43798829 .03527832 .36999513 .011245728 .33799745 .011245728 .29899598 .011245728 .2829895 .043273927 .2829895 .07727051 .2829895 .09927368 .2889862 .121276859 .2999878 .16529846L.33399964 .30233766Z"/>
<path id="font_3_3" d="M.48599244 .38136292C.48999024 .39537049 .48999024 .39736939 .48999024 .40437318 .48999024 .42237855 .47599793 .43138124 .46099855 .43138124 .45098878 .43138124 .43499757 .42536927 .42599488 .41036988 .42399598 .405365 .41600038 .37435914 .4119873 .35635377 .40499879 .33035279 .397995 .30334474 .3919983 .27633668L.34700013 .09628296C.34298707 .08126831 .2999878 .011245728 .23399353 .011245728 .18299866 .011245728 .17199707 .055267335 .17199707 .0922699 .17199707 .1382904 .18899536 .20030213 .22299195 .28833009 .23899842 .3293457 .24299622 .3403473 .24299622 .36035157 .24299622 .405365 .21099854 .4423828 .16099549 .4423828 .06599426 .4423828 .0289917 .29733277 .0289917 .28833009 .0289917 .27833558 .038986207 .27833558 .040985109 .27833558 .050994874 .27833558 .051986696 .28033448 .056991579 .29634095 .083999637 .3903656 .12399292 .42037965 .1579895 .42037965 .1659851 .42037965 .18299866 .42037965 .18299866 .3883667 .18299866 .36335755 .17298889 .3373413 .1659851 .31834413 .12599182 .21231079 .10798645 .1552887 .10798645 .10827637 .10798645 .019256592 .17098999-.0107421879 .22999573-.0107421879 .2689972-.0107421879 .30299378 .0062561037 .33099366 .03425598 .31799317-.017745972 .30599977-.06674194 .2659912-.11973572 .23999024-.15385437 .20199585-.18309021 .1559906-.18309021 .14199829-.18309021 .09700012-.18005371 .07998657-.14074707 .09599304-.14074707 .10899353-.14074707 .12298584-.1287384 .1329956-.11973572 .14299011-.10673523 .14299011-.08773804 .14299011-.056747438 .115997318-.052734376 .10598755-.052734376 .08299255-.052734376 .049987794-.068740848 .049987794-.11773682 .049987794-.16796875 .09399414-.20507813 .1559906-.20507813 .25898744-.20507813 .3619995-.11373901 .3899994-.00074768069L.48599244 .38136292Z"/>
</defs>
<path transform="matrix(1.00002,0,0,-1.00003,15.298027,168.30167)" stroke-width=".19925" stroke-linecap="butt" stroke-miterlimit="10" stroke-linejoin="miter" fill="none" stroke="#7f807f" d="M1.52171 79.28084V82.1155M13.47325 79.28084V82.1155M25.42479 79.28084V82.1155M37.37634 79.28084V82.1155M49.32788 79.28084V82.1155M61.27942 79.28084V82.1155M73.23096 79.28084V82.1155M85.18251 79.28084V82.1155M97.13405 79.28084V82.1155M109.0856 79.28084V82.1155M121.03714 79.28084V82.1155M132.9887 79.28084V82.1155M144.94023 79.28084V82.1155M156.89179 79.28084V82.1155M168.84334 79.28084V82.1155M180.79488 79.28084V82.1155M192.74643 79.28084V82.1155"/>
<path transform="matrix(1.00002,0,0,-1.00003,15.298027,168.30167)" stroke-width=".19925" stroke-linecap="butt" stroke-miterlimit="10" stroke-linejoin="miter" fill="none" stroke="#7f807f" d="M1.52171 78.57237V82.82396M49.32788 78.57237V82.82396M144.94023 78.57237V82.82396M192.74643 78.57237V82.82396"/>
<path transform="matrix(1.00002,0,0,-1.00003,15.298027,168.30167)" stroke-width=".19925" stroke-linecap="butt" stroke-miterlimit="10" stroke-linejoin="miter" fill="none" stroke="#7f807f" d="M95.00816 0H99.25996M95.00816 40.34909H99.25996M95.00816 121.04727H99.25996M95.00816 161.39636H99.25996"/>
<path transform="matrix(1.00002,0,0,-1.00003,15.298027,168.30167)" stroke-width=".3985" stroke-linecap="butt" stroke-miterlimit="10" stroke-linejoin="miter" fill="none" stroke="#000000" d="M0 80.69818H192.2756"/>
<path transform="matrix(1.00002,0,0,-1.00003,207.57749,87.60106)" d="M1.99252 0-1.19551 1.59401 0 0-1.19551-1.59401"/>
<path transform="matrix(1.00002,0,0,-1.00003,15.298027,168.30167)" stroke-width=".3985" stroke-linecap="butt" stroke-miterlimit="10" stroke-linejoin="miter" fill="none" stroke="#000000" d="M97.13405 0V159.40384"/>
<path transform="matrix(0,-1.00003,-1.00002,-0,112.43402,8.893036)" d="M1.99252 0-1.19551 1.59401 0 0-1.19551-1.59401"/>
<use data-text="&#x2212;" xlink:href="#font_1_1" transform="matrix(9.962799,0,0,-9.962899,7.4358675,99.6676)"/>
<use data-text="2" xlink:href="#font_2_3" transform="matrix(9.962799,0,0,-9.962899,15.184029,99.6676)"/>
<use data-text="&#x03c0;" xlink:href="#font_3_1" transform="matrix(9.962799,0,0,-9.962899,20.16613,99.6676)"/>
<use data-text="&#x2212;" xlink:href="#font_1_1" transform="matrix(9.962799,0,0,-9.962899,57.73388,99.058589)"/>
<use data-text="&#x03c0;" xlink:href="#font_3_1" transform="matrix(9.962799,0,0,-9.962899,65.48204,99.058589)"/>
<use data-text="&#x03c0;" xlink:href="#font_3_1" transform="matrix(9.962799,0,0,-9.962899,157.22287,97.53654)"/>
<use data-text="2" xlink:href="#font_2_3" transform="matrix(9.962799,0,0,-9.962899,202.53879,99.6676)"/>
<use data-text="&#x03c0;" xlink:href="#font_3_1" transform="matrix(9.962799,0,0,-9.962899,207.51988,99.6676)"/>
<use data-text="&#x2212;" xlink:href="#font_1_1" transform="matrix(9.962799,0,0,-9.962899,89.07651,171.09676)"/>
<use data-text="1" xlink:href="#font_2_2" transform="matrix(9.962799,0,0,-9.962899,96.82467,171.09676)"/>
<use data-text="0" xlink:href="#font_2_1" transform="matrix(9.962799,0,0,-9.962899,101.80607,171.09676)"/>
<use data-text="&#x2212;" xlink:href="#font_1_1" transform="matrix(9.962799,0,0,-9.962899,94.05761,130.74654)"/>
<use data-text="5" xlink:href="#font_2_4" transform="matrix(9.962799,0,0,-9.962899,101.80577,130.74654)"/>
<use data-text="5" xlink:href="#font_2_4" transform="matrix(9.962799,0,0,-9.962899,101.80676,50.46113)"/>
<use data-text="1" xlink:href="#font_2_2" transform="matrix(9.962799,0,0,-9.962899,96.82566,10.110916)"/>
<use data-text="0" xlink:href="#font_2_1" transform="matrix(9.962799,0,0,-9.962899,101.80706,10.110916)"/>
<path transform="matrix(1.00002,0,0,-1.00003,15.298027,168.30167)" stroke-width=".99628" stroke-linecap="butt" stroke-miterlimit="10" stroke-linejoin="miter" fill="none" stroke="#0000ff" d="M2.98665 155.17195 2.99759 154.84206 3.10394 152.06603 3.21028 149.64266 3.31664 147.5082 3.42299 145.6134 3.52933 143.92118 3.63568 142.4008 3.74203 141.03055 3.84839 139.78377 3.95473 138.64995 4.06108 137.61298 4.16743 136.65912 4.27377 135.78356 4.38013 134.97415 4.48648 134.22367 4.59282 133.524 4.69917 132.8752 4.80553 132.26996 4.91187 131.70426 5.0182 131.17328 5.12456 130.67293 5.23091 130.2057 5.33725 129.76589 5.4436 129.34947 5.54996 128.9565 5.6563 128.58608 5.76265 128.23424 5.869 127.90015 5.97534 127.58382 6.0817 127.28442 6.18805 126.99875 6.29439 126.72679 6.40074 126.46857 6.5071 126.22162 6.61343 125.9868 6.71979 125.76164 6.82614 125.54619 6.9325 125.3412 7.03883 125.14592 7.14519 124.95871 7.25154 124.77711 7.35786 124.60524 7.46422 124.4414 7.57057 124.28244 7.67691 124.13072 7.78326 123.98466 7.88962 123.84505 7.99596 123.7111 8.10231 123.582 8.20866 123.4577 8.31502 123.33908 8.42136 123.22449 8.52771 123.11394 8.63406 123.00903 8.7404 122.90735 8.84676 122.80971 8.95311 122.7161 9.05945 122.62653 9.1658 122.53856 9.27216 122.45625 9.3785 122.37636 9.48485 122.29889 9.5912 122.22545 9.69754 122.15442 9.80388 122.08664 9.91023 122.02046 10.01659 121.95915 10.12292 121.89862 10.22928 121.84052 10.33563 121.78645 10.44197 121.7332 10.54832 121.68315 10.65468 121.63474 10.76102 121.58955 10.86737 121.54518 10.97372 121.5032 11.08006 121.46367 11.18642 121.42574 11.29277 121.39102 11.39912 121.35715 11.50546 121.32486 11.61182 121.29501 11.71817 121.26677 11.82451 121.24094 11.93085 121.21672 12.0372 121.1925 12.14354 121.17233 12.2499 121.15218 12.35625 121.13521 12.46259 121.11908 12.56894 121.10455 12.6753 121.09245 12.78163 121.08115 12.88799 121.07147 12.99434 121.0634 13.10068 121.05775 13.20703 121.0529 13.31339 121.04887 13.41972 121.04727H13.52608L13.63243 121.04887 13.73877 121.0529 13.84512 121.05775 13.95148 121.0634 14.05783 121.07147 14.16418 121.08115 14.27051 121.09245 14.37686 121.10455 14.4832 121.11908 14.58955 121.13521 14.6959 121.15218 14.80225 121.17233 14.9086 121.19414 15.01494 121.21672 15.1213 121.24094 15.22766 121.26677 15.334 121.29501 15.44035 121.32486 15.54669 121.35715 15.65305 121.39023 15.7594 121.42574 15.86574 121.46367 15.97209 121.5032 16.07843 121.54518 16.18478 121.58794 16.29115 121.63474 16.39749 121.68153 16.50385 121.7332 16.61017 121.78564 16.71652 121.84052 16.82288 121.89862 16.92921 121.95755 17.03557 122.02046 17.1419 122.08585 17.24826 122.15442 17.35461 122.22545 17.46095 122.29889 17.56732 122.37636 17.67366 122.45544 17.78001 122.53856 17.88637 122.62491 17.9927 122.71529 18.09906 122.80971 18.2054 122.90735 18.31175 123.00903 18.4181 123.11394 18.52444 123.2237 18.63081 123.33827 18.73715 123.4577 18.8435 123.58118 18.94984 123.7103 19.05618 123.84427 19.16254 123.98466 19.26888 124.12994 19.37523 124.28163 19.48158 124.43901 19.58792 124.60364 19.69427 124.77632 19.80061 124.95627 19.90698 125.1443 20.01334 125.34041 20.11967 125.54457 20.22603 125.76003 20.33237 125.98598 20.43872 126.22083 20.54507 126.46695 20.65141 126.72517 20.75777 126.99632 20.8641 127.282 20.97046 127.5822 21.07683 127.89854 21.18315 128.23181 21.2895 128.58205 21.39584 128.95407 21.5022 129.34626 21.60855 129.76348 21.71489 130.20326 21.82124 130.67052 21.92758 131.16924 22.03394 131.70024 22.14029 132.2651 22.24663 132.87116 22.353 133.51996 22.45934 134.218 22.56569 134.96932 22.67204 135.77872 22.77838 136.65509 22.88474 137.60572 22.99107 138.64269 23.09743 139.7765 23.20378 141.02169 23.31012 142.39192 23.41647 143.91066 23.5228 145.6037 23.62917 147.49608 23.73552 149.62732 23.84186 152.0499 23.94821 154.8267 23.95886 155.14612"/>
<path transform="matrix(-.033020665,-.99945,-.99944,.03302099,18.284737,13.125076)" d="M2.8892 0-1.73352 2.31136 0 0-1.73352-2.31136" fill="#0000ff"/>
<path transform="matrix(.033130666,-.99945,-.99944,-.033130997,39.25736,13.150909)" d="M2.8892 0-1.73352 2.31136 0 0-1.73352-2.31136" fill="#0000ff"/>
<path transform="matrix(1.00002,0,0,-1.00003,15.298027,168.30167)" stroke-width=".99628" stroke-linecap="butt" stroke-miterlimit="10" stroke-linejoin="miter" fill="none" stroke="#0000ff" d="M25.98969 3.67986 26.08719 20.15839 26.2018 33.80768 26.3164 43.95224 26.43103 51.77272 26.54564 57.99132 26.66025 63.05188 26.77486 67.25063 26.88947 70.79326 27.00407 73.8146 27.11868 76.42358 27.23329 78.70248 27.34792 80.70462 27.46252 82.47917 27.57713 84.06409 27.69173 85.48518 27.80634 86.7683 27.92094 87.93196 28.03555 88.9891 28.15016 89.9583 28.26479 90.84515 28.3794 91.66263 28.494 92.41878 28.60861 93.11682 28.72322 93.76561 28.83783 94.36845 28.95244 94.93172 29.06706 95.45624 29.18167 95.94931 29.29626 96.41171 29.41087 96.84587 29.52548 97.25421 29.64009 97.63672 29.7547 97.99986 29.86931 98.34363 29.98393 98.66805 30.09854 98.9755 30.21315 99.26764 30.32776 99.54361 30.44237 99.80588 30.55698 100.05524 30.67159 100.29169 30.7862 100.51845 30.90082 100.73552 31.01541 100.93968 31.13002 101.1366 31.24463 101.32382 31.35924 101.50215 31.47385 101.67244 31.58846 101.83626 31.70308 101.9928 31.81769 102.1413 31.9323 102.28575 32.0469 102.42212 32.16151 102.55284 32.27612 102.67874 32.39073 102.79898 32.50534 102.91438 32.61995 103.02574 32.73456 103.13144 32.84917 103.23233 32.96378 103.32997 33.07838 103.42278 33.193 103.51154 33.3076 103.59789 33.42221 103.67938 33.53683 103.75848 33.65144 103.83353 33.76605 103.90454 33.88066 103.97394 33.99527 104.0393 34.10988 104.10146 34.22449 104.16197 34.3391 104.21846 34.4537 104.27335 34.56831 104.32498 34.68292 104.3742 34.79753 104.42102 34.91214 104.4654 35.02675 104.50656 35.14136 104.54529 35.25598 104.58322 35.37059 104.61871 35.4852 104.651 35.59981 104.68167 35.71442 104.70992 35.82903 104.73735 35.94362 104.76237 36.05823 104.78496 36.17285 104.80513 36.28746 104.8237 36.40207 104.84065 36.51668 104.85516 36.63129 104.86726 36.7459 104.87857 36.8605 104.88907 36.97513 104.89632 37.08974 104.90198 37.20435 104.90439 37.31895 104.90762H37.43356L37.54819 104.90439 37.66277 104.90198 37.77739 104.89632 37.89198 104.88907 38.0066 104.87857 38.12122 104.86726 38.23582 104.85516 38.35043 104.84065 38.46504 104.8237 38.57965 104.80513 38.69427 104.78416 38.80887 104.76237 38.9235 104.73735 39.03809 104.71152 39.15271 104.68167 39.26732 104.65262 39.38191 104.61871 39.49654 104.58322 39.61113 104.54529 39.72575 104.50656 39.84036 104.4654 39.95497 104.42102 40.06958 104.3742 40.18419 104.32498 40.2988 104.27335 40.41342 104.21846 40.52802 104.16197 40.64264 104.10146 40.75723 104.0393 40.87184 103.97394 40.98647 103.90454 41.10106 103.83353 41.21568 103.75848 41.33028 103.67938 41.4449 103.59789 41.55951 103.51154 41.67412 103.42278 41.78873 103.32997 41.90334 103.23233 42.01794 103.13144 42.13257 103.02574 42.24716 102.91438 42.36179 102.79898 42.47638 102.67874 42.59099 102.55284 42.70561 102.42212 42.8202 102.28575 42.93483 102.1429 43.04942 101.9928 43.16405 101.83626 43.27866 101.67325 43.39326 101.50215 43.50787 101.32382 43.62248 101.1366 43.73709 100.94131 43.85172 100.73552 43.96631 100.51845 44.08093 100.29329 44.19551 100.05524 44.31013 99.8067 44.42476 99.54361 44.53935 99.26764 44.65398 98.9755 44.76857 98.66805 44.8832 98.34363 44.9978 98.00148 45.11241 97.63834 45.22702 97.25421 45.34163 96.8467 45.45624 96.41333 45.57086 95.95012 45.68546 95.45787 45.80008 94.93172 45.91466 94.36923 46.02928 93.76724 46.1439 93.11922 46.2585 92.41878 46.37312 91.66425 46.48772 90.84596 46.60234 89.9583 46.71695 88.99072 46.83156 87.93436 46.94617 86.77069 47.06078 85.48761 47.17538 84.0649 47.29001 82.4816 47.4046 80.70624 47.51921 78.70248 47.6338 76.426 47.74843 73.82188 47.86304 70.79651 47.97765 67.2595 48.09227 63.05592 48.20686 57.99454 48.32147 51.7824 48.4361 43.95224 48.5507 33.81577 48.66531 20.1826 48.76282 3.70406"/>
<path transform="matrix(-.0059201188,.99997,.99996,.005920178,41.28824,164.62169)" d="M2.8892 0-1.73352 2.31136 0 0-1.73352-2.31136" fill="#0000ff"/>
<path transform="matrix(.0059201188,.99997,.99996,-.005920178,64.06183,164.59749)" d="M2.8892 0-1.73352 2.31136 0 0-1.73352-2.31136" fill="#0000ff"/>
<path transform="matrix(1.00002,0,0,-1.00003,15.298027,168.30167)" stroke-width=".99628" stroke-linecap="butt" stroke-miterlimit="10" stroke-linejoin="miter" fill="none" stroke="#0000ff" d="M50.79295 155.17195 50.80377 154.8469 50.91013 152.06603 51.01646 149.64508 51.12282 147.50981 51.22917 145.6134 51.33551 143.92118 51.44186 142.40323 51.54822 141.03136 51.65456 139.78537 51.76091 138.64995 51.86726 137.61298 51.9736 136.66155 52.07996 135.78356 52.1863 134.97415 52.29263 134.22367 52.39899 133.524 52.50534 132.8752 52.61168 132.26996 52.71803 131.70426 52.82439 131.17328 52.93073 130.67293 53.03708 130.2057 53.14343 129.76589 53.24979 129.34947 53.35612 128.9565 53.46248 128.58448 53.56883 128.23424 53.67517 127.90015 53.78152 127.58382 53.88788 127.28442 53.99422 126.99875 54.10057 126.72679 54.20692 126.46857 54.31326 126.22162 54.4196 125.9868 54.52596 125.76164 54.63231 125.547 54.73865 125.3412 54.845 125.14592 54.95135 124.95871 55.0577 124.77711 55.16405 124.60524 55.2704 124.4398 55.37674 124.28244 55.4831 124.13072 55.58945 123.98466 55.69579 123.84505 55.80214 123.7111 55.9085 123.582 56.01485 123.4577 56.12119 123.33908 56.22754 123.22449 56.3339 123.11555 56.44023 123.00903 56.54659 122.90816 56.65294 122.80971 56.75926 122.7161 56.86562 122.62653 56.97197 122.54018 57.07831 122.45625 57.18466 122.37636 57.29102 122.29889 57.39735 122.22545 57.50371 122.15442 57.61006 122.08664 57.71642 122.02046 57.82275 121.95915 57.92911 121.89862 58.03546 121.84052 58.1418 121.78645 58.24815 121.7332 58.3545 121.68315 58.46085 121.63474 58.5672 121.58955 58.67355 121.54518 58.77989 121.5032 58.88625 121.46367 58.9926 121.42654 59.09894 121.39102 59.20528 121.35715 59.31163 121.32486 59.41798 121.29501 59.52432 121.26677 59.63068 121.24094 59.73703 121.21672 59.84337 121.1925 59.94972 121.17233 60.05608 121.15218 60.16241 121.13521 60.26877 121.11908 60.37512 121.10455 60.48146 121.09245 60.58781 121.08115 60.69417 121.07147 60.80052 121.0634 60.90686 121.05775 61.01321 121.0529 61.11957 121.04887 61.2259 121.04727H61.33226L61.4386 121.04887 61.54494 121.0529 61.65129 121.05775 61.75763 121.0634 61.86398 121.07147 61.97034 121.08115 62.07669 121.09245 62.18304 121.10455 62.28938 121.11908 62.39574 121.13521 62.50209 121.15218 62.60843 121.17233 62.71478 121.19414 62.82112 121.21672 62.92747 121.24094 63.03383 121.26677 63.14017 121.29501 63.24652 121.32486 63.35287 121.35715 63.45923 121.39023 63.56558 121.42574 63.6719 121.46367 63.77826 121.5032 63.8846 121.54518 63.99095 121.58794 64.0973 121.63474 64.20364 121.68153 64.31 121.7332 64.41634 121.78564 64.5227 121.84052 64.62906 121.89862 64.7354 121.95755 64.84175 122.02046 64.94809 122.08585 65.05444 122.15364 65.1608 122.22545 65.26714 122.29889 65.37349 122.37555 65.47983 122.45544 65.58618 122.53856 65.69255 122.62491 65.79889 122.71529 65.90524 122.80971 66.01157 122.90735 66.11792 123.00821 66.22427 123.11394 66.33061 123.2237 66.43697 123.33827 66.5433 123.4577 66.64966 123.58118 66.75603 123.7103 66.86237 123.84427 66.96872 123.98466 67.07506 124.12994 67.18141 124.28163 67.28777 124.43901 67.3941 124.60364 67.50046 124.77632 67.6068 124.95627 67.71315 125.1443 67.8195 125.34041 67.92584 125.54457 68.03221 125.76003 68.13855 125.98598 68.2449 126.22083 68.35124 126.46695 68.45758 126.72517 68.56393 126.99794 68.67027 127.282 68.77663 127.5822 68.88298 127.89854 68.98932 128.23181 69.09567 128.58205 69.20203 128.95407 69.30838 129.34708 69.41473 129.76348 69.52107 130.20326 69.62743 130.67052 69.73376 131.16924 69.84012 131.70024 69.94647 132.26673 70.05281 132.87116 70.15916 133.51996 70.2655 134.218 70.37186 134.96932 70.47823 135.77872 70.58456 136.65428 70.6909 137.60572 70.79724 138.64269 70.9036 139.7765 71.00995 141.02007 71.11629 142.39192 71.22264 143.91066 71.32898 145.60129 71.43533 147.49608 71.54169 149.62732 71.64803 152.0499 71.7544 154.82347 71.7651 155.14612"/>
<path transform="matrix(-.033070666,-.99945,-.99944,.033070998,66.091999,13.125076)" d="M2.8892 0-1.73352 2.31136 0 0-1.73352-2.31136" fill="#0000ff"/>
<path transform="matrix(.033100666,-.99945,-.99944,-.033100998,87.06456,13.150909)" d="M2.8892 0-1.73352 2.31136 0 0-1.73352-2.31136" fill="#0000ff"/>
<path transform="matrix(1.00002,0,0,-1.00003,15.298027,168.30167)" stroke-width=".99628" stroke-linecap="butt" stroke-miterlimit="10" stroke-linejoin="miter" fill="none" stroke="#0000ff" d="M73.7959 3.67986 73.89348 20.15839 74.00809 33.81577 74.1227 43.95224 74.2373 51.7824 74.35191 57.99454 74.46652 63.05592 74.58112 67.25706 74.69572 70.79651 74.81033 73.82188 74.92493 76.426 75.03954 78.70248 75.15414 80.70624 75.26874 82.4816 75.38335 84.0649 75.49796 85.48761 75.61256 86.7683 75.72717 87.93196 75.84178 88.99072 75.95638 89.95747 76.07098 90.84515 76.1856 91.66263 76.3002 92.41878 76.41481 93.11682 76.52942 93.76561 76.644 94.36845 76.7586 94.93091 76.87321 95.45787 76.98782 95.95012 77.10243 96.41171 77.21703 96.84587 77.33163 97.25421 77.44624 97.63834 77.56085 97.99986 77.67546 98.34363 77.79007 98.66805 77.90468 98.9755 78.01927 99.26682 78.13388 99.54361 78.24849 99.80588 78.36308 100.05524 78.47769 100.29329 78.5923 100.51845 78.7069 100.73392 78.8215 100.93968 78.93611 101.1366 79.05072 101.323 79.16533 101.50215 79.27994 101.67244 79.39453 101.83626 79.50914 101.9928 79.62375 102.1413 79.73836 102.28575 79.85297 102.42212 79.96756 102.55284 80.08215 102.67874 80.19676 102.79898 80.31137 102.91438 80.42598 103.02574 80.54059 103.13144 80.65518 103.23233 80.76979 103.32997 80.8844 103.42278 80.99901 103.51154 81.11362 103.59789 81.22823 103.67938 81.34282 103.75848 81.45743 103.83353 81.57204 103.90454 81.68663 103.97394 81.80124 104.0393 81.91585 104.10146 82.03044 104.16116 82.14505 104.21846 82.25966 104.27335 82.37427 104.32498 82.48888 104.3742 82.60349 104.42102 82.7181 104.4654 82.83269 104.50656 82.9473 104.5461 83.0619 104.58322 83.17651 104.61871 83.29112 104.651 83.4057 104.68167 83.52031 104.70992 83.63492 104.73735 83.74953 104.76237 83.86414 104.78496 83.97874 104.80513 84.09334 104.8237 84.20795 104.84065 84.32256 104.85516 84.43716 104.86726 84.55177 104.87857 84.66638 104.88907 84.78098 104.89632 84.89558 104.90198 85.01018 104.90439 85.12479 104.90762H85.2394L85.354 104.90439 85.4686 104.90198 85.5832 104.89632 85.69781 104.88907 85.81242 104.87857 85.92703 104.86726 86.04163 104.85516 86.15625 104.84065 86.27084 104.82451 86.38545 104.80513 86.50006 104.78496 86.61467 104.76237 86.72926 104.73735 86.84386 104.71152 86.95847 104.68167 87.07309 104.65262 87.18768 104.61792 87.30229 104.58322 87.41689 104.5461 87.5315 104.50656 87.64612 104.4654 87.76071 104.42102 87.87532 104.3742 87.98991 104.32498 88.10454 104.27335 88.21915 104.21846 88.33374 104.16197 88.44833 104.10146 88.56293 104.0393 88.67755 103.97394 88.79216 103.90616 88.90675 103.83353 89.02138 103.75848 89.13597 103.68102 89.25058 103.59789 89.36519 103.51317 89.47978 103.42278 89.5944 103.32997 89.709 103.23393 89.82361 103.13144 89.93822 103.02574 90.05281 102.91599 90.16742 102.8006 90.28201 102.67953 90.39662 102.55365 90.51125 102.42212 90.62584 102.28575 90.74045 102.1429 90.85504 101.99362 90.96965 101.83705 91.08427 101.67325 91.19887 101.50377 91.31348 101.32382 91.42807 101.13821 91.5427 100.94131 91.6573 100.73552 91.77188 100.52007 91.88649 100.29411 92.00108 100.05684 92.1157 99.8067 92.23032 99.54604 92.34491 99.26842 92.45953 98.97792 92.57413 98.67046 92.68874 98.34685 92.80334 98.00308 92.91794 97.64075 93.03256 97.25662 93.14716 96.8491 93.26176 96.41576 93.37637 95.95255 93.49097 95.4611 93.60558 94.93414 93.72017 94.37248 93.83478 93.76965 93.9494 93.12166 94.064 92.42361 94.1786 91.6691 94.2932 90.85242 94.4078 89.96555 94.52243 88.99799 94.63702 87.94002 94.75163 86.77797 94.86623 85.49487 94.98085 84.07378 95.09544 82.49127 95.21004 80.71672 95.32465 78.71703 95.43924 76.44456 95.55386 73.8372 95.66847 70.81909 95.78307 67.2829 95.89767 63.08981 96.01228 58.0357 96.12689 51.8292 96.2415 44.0168 96.3561 33.90129 96.47072 20.29558 96.56816 3.85739"/>
<path transform="matrix(-.005890118,.99997,.99996,.005890177,89.09542,164.62169)" d="M2.8892 0-1.73352 2.31136 0 0-1.73352-2.31136" fill="#0000ff"/>
<path transform="matrix(.005940119,.99997,.99996,-.0059401786,111.86812,164.44416)" d="M2.8892 0-1.73352 2.31136 0 0-1.73352-2.31136" fill="#0000ff"/>
<path transform="matrix(1.00002,0,0,-1.00003,15.298027,168.30167)" stroke-width=".99628" stroke-linecap="butt" stroke-miterlimit="10" stroke-linejoin="miter" fill="none" stroke="#0000ff" d="M98.59912 155.17195 98.60995 154.84366 98.71631 152.06603 98.82266 149.64266 98.92902 147.5082 99.03535 145.6134 99.14171 143.92118 99.24805 142.4008 99.3544 141.03055 99.46075 139.78377 99.5671 138.64995 99.67345 137.61298 99.7798 136.65912 99.88615 135.78356 99.99251 134.97335 100.09885 134.22205 100.2052 133.524 100.31155 132.87357 100.41791 132.26996 100.52425 131.70426 100.6306 131.17328 100.73695 130.67293 100.8433 130.2057 100.94966 129.76428 101.056 129.34947 101.16235 128.9565 101.2687 128.58448 101.37506 128.23424 101.4814 127.90015 101.58774 127.58382 101.69409 127.28442 101.80045 126.99875 101.9068 126.72679 102.01314 126.46857 102.11949 126.22162 102.22585 125.9868 102.3322 125.76164 102.43855 125.54619 102.54489 125.3412 102.65125 125.14592 102.7576 124.95871 102.86395 124.77711 102.9703 124.60524 103.07664 124.4398 103.183 124.28244 103.28935 124.12994 103.3957 123.98466 103.50206 123.84427 103.6084 123.7103 103.71475 123.582 103.82109 123.4577 103.92744 123.33908 104.0338 123.22449 104.14014 123.11394 104.24649 123.00903 104.35284 122.90735 104.4592 122.80971 104.56555 122.7161 104.67189 122.62653 104.77824 122.53856 104.8846 122.45625 104.99095 122.37636 105.09729 122.29889 105.20364 122.22626 105.31 122.15442 105.41635 122.08664 105.5227 122.02046 105.62904 121.95915 105.7354 121.89862 105.84175 121.84052 105.9481 121.78645 106.05446 121.7332 106.16078 121.68315 106.26714 121.63474 106.37349 121.58794 106.47984 121.54518 106.58618 121.5032 106.69254 121.46367 106.79889 121.42654 106.90524 121.39102 107.0116 121.35715 107.11794 121.32486 107.22429 121.29501 107.33064 121.26677 107.437 121.24094 107.54335 121.21672 107.64969 121.1925 107.75604 121.17233 107.8624 121.15218 107.96875 121.13521 108.07509 121.11908 108.18144 121.10455 108.2878 121.09245 108.39413 121.08115 108.50049 121.07147 108.60683 121.0634 108.71318 121.05775 108.81953 121.0529 108.92589 121.04887 109.03224 121.04727H109.13858L109.24495 121.04887 109.35129 121.0529 109.45764 121.05775 109.56398 121.0634 109.67033 121.07147 109.7767 121.08115 109.88304 121.09245 109.9894 121.10455 110.09573 121.11908 110.20209 121.13521 110.30846 121.15218 110.4148 121.17233 110.52115 121.19414 110.62749 121.21672 110.73383 121.24094 110.84018 121.26677 110.94653 121.29501 111.05289 121.32486 111.15923 121.35715 111.26558 121.39023 111.37193 121.42574 111.47827 121.46367 111.58464 121.5032 111.69098 121.54518 111.79733 121.58794 111.90369 121.63474 112.01003 121.68153 112.1164 121.7332 112.22273 121.78564 112.32909 121.84052 112.43544 121.89862 112.54178 121.95755 112.64815 122.02046 112.75449 122.08585 112.86084 122.15442 112.96718 122.22545 113.07352 122.29889 113.17989 122.37636 113.28622 122.45544 113.39258 122.53856 113.49893 122.62491 113.60527 122.71529 113.71164 122.80971 113.81798 122.90816 113.92433 123.00903 114.03069 123.11394 114.13702 123.2237 114.24338 123.33827 114.34973 123.4577 114.45609 123.582 114.56244 123.7111 114.66878 123.84427 114.77513 123.98466 114.88147 124.12994 114.98784 124.28163 115.0942 124.4398 115.20053 124.60524 115.30687 124.77632 115.41321 124.95709 115.51958 125.1443 115.62593 125.3412 115.73227 125.54619 115.83862 125.76003 115.94496 125.98598 116.05133 126.22083 116.15768 126.46695 116.26402 126.72517 116.37038 126.99794 116.47672 127.2836 116.58308 127.58382 116.68944 127.89854 116.79578 128.23264 116.90213 128.58367 117.00847 128.95569 117.11484 129.34868 117.22119 129.76348 117.32753 130.20409 117.43388 130.67212 117.54022 131.17084 117.64656 131.70185 117.75293 132.26673 117.85927 132.87277 117.96562 133.5232 118.07196 134.22043 118.17831 134.97093 118.28468 135.77951 118.39102 136.6575 118.49738 137.60976 118.60371 138.6459 118.71007 139.78133 118.81644 141.0241 118.92278 142.39435 119.02913 143.9139 119.13547 145.60855 119.24182 147.50093 119.34818 149.63459 119.45453 152.05553 119.56088 154.83155 119.57169 155.15744"/>
<path transform="matrix(-.033070666,-.99945,-.99944,.033070998,113.899127,13.125076)" d="M2.8892 0-1.73352 2.31136 0 0-1.73352-2.31136" fill="#0000ff"/>
<path transform="matrix(.033070666,-.99945,-.99944,-.033070998,134.87212,13.139587)" d="M2.8892 0-1.73352 2.31136 0 0-1.73352-2.31136" fill="#0000ff"/>
<path transform="matrix(1.00002,0,0,-1.00003,15.298027,168.30167)" stroke-width=".99628" stroke-linecap="butt" stroke-miterlimit="10" stroke-linejoin="miter" fill="none" stroke="#0000ff" d="M121.60188 3.6395 121.69948 20.14224 121.81409 33.79234 121.9287 43.9337 122.04332 51.7598 122.15793 57.98405 122.27254 63.05188 122.38713 67.2482 122.50174 70.79326 122.61635 73.8146 122.73096 76.42358 122.84557 78.70009 122.96019 80.70221 123.0748 82.47836 123.1894 84.06409 123.30402 85.48518 123.41862 86.7683 123.53323 87.93034 123.64784 88.9891 123.76247 89.95747 123.87708 90.84515 123.99167 91.66263 124.10628 92.41716 124.22089 93.11682 124.3355 93.76561 124.4501 94.36845 124.56471 94.93091 124.67934 95.45624 124.79395 95.94931 124.90855 96.4109 125.02316 96.84587 125.13777 97.25421 125.25238 97.63672 125.36699 97.99986 125.48161 98.34363 125.5962 98.66805 125.71082 98.9755 125.82542 99.26682 125.94003 99.54361 126.05464 99.80588 126.16925 100.05524 126.28386 100.29329 126.39848 100.51845 126.51309 100.73392 126.6277 100.93968 126.74231 101.1366 126.85692 101.323 126.97153 101.50215 127.08614 101.67244 127.20076 101.83626 127.31535 101.9928 127.42996 102.1413 127.54457 102.28575 127.65918 102.42212 127.77379 102.55284 127.8884 102.67874 128.003 102.79898 128.11763 102.91438 128.23224 103.02574 128.34685 103.13144 128.46146 103.23233 128.57607 103.32997 128.69068 103.42278 128.80529 103.51154 128.91988 103.59789 129.0345 103.67938 129.14911 103.75848 129.26372 103.83353 129.37833 103.90454 129.49294 103.97394 129.60755 104.0393 129.72216 104.10146 129.83678 104.16197 129.95139 104.21846 130.066 104.27335 130.1806 104.32498 130.29521 104.3742 130.40982 104.42102 130.52443 104.4654 130.63903 104.50656 130.75365 104.54529 130.86826 104.58322 130.98287 104.61871 131.09748 104.651 131.21208 104.68167 131.32669 104.70992 131.4413 104.73735 131.55591 104.76237 131.67053 104.78496 131.78514 104.80513 131.89975 104.8237 132.01436 104.84065 132.12897 104.85516 132.24356 104.86726 132.35817 104.87857 132.4728 104.88907 132.5874 104.89632 132.70201 104.90198 132.81662 104.90439 132.93123 104.90762H133.04584L133.16046 104.90439 133.27506 104.90198 133.38968 104.89632 133.50428 104.88907 133.6189 104.87857 133.7335 104.86726 133.84812 104.85516 133.9627 104.84065 134.07732 104.82451 134.19193 104.80513 134.30655 104.78496 134.42116 104.76237 134.53577 104.73735 134.65038 104.71152 134.76499 104.68167 134.87961 104.651 134.9942 104.61792 135.10883 104.58322 135.22342 104.5461 135.33805 104.50656 135.45265 104.4654 135.56725 104.42102 135.68186 104.3742 135.79647 104.32498 135.91107 104.27335 136.0257 104.21846 136.14029 104.16197 136.25492 104.10146 136.3695 104.0393 136.48413 103.97394 136.59876 103.90454 136.71335 103.83353 136.82798 103.75848 136.94257 103.67938 137.05719 103.59789 137.1718 103.51154 137.28639 103.42278 137.401 103.32997 137.51561 103.23233 137.63024 103.13144 137.74485 103.02574 137.85944 102.91438 137.97406 102.79898 138.08867 102.67874 138.20328 102.55284 138.3179 102.42212 138.4325 102.28575 138.54712 102.1429 138.66172 101.9928 138.77634 101.83626 138.89093 101.67325 139.00554 101.50215 139.12015 101.32382 139.23476 101.1366 139.34937 100.94131 139.46399 100.73552 139.5786 100.52007 139.6932 100.29329 139.8078 100.05524 139.92243 99.8067 140.03705 99.54361 140.15164 99.26764 140.26627 98.9755 140.38086 98.66965 140.49547 98.34363 140.61008 98.00148 140.72469 97.63834 140.8393 97.25421 140.9539 96.8467 141.06851 96.41333 141.18314 95.95012 141.29773 95.45868 141.41236 94.93172 141.52696 94.37006 141.64157 93.76724 141.7562 93.11922 141.87079 92.41957 141.98542 91.66425 142.1 90.84839 142.21462 89.9599 142.32923 88.99313 142.44384 87.93436 142.55844 86.77151 142.67305 85.48761 142.78766 84.06651 142.90229 82.48322 143.01688 80.70866 143.1315 78.70493 143.2461 76.43164 143.36072 73.8243 143.47534 70.80458 143.58994 67.26434 143.70456 63.06561 143.81914 58.00261 143.93376 51.78723 144.04837 43.96355 144.16298 33.8319 144.27759 20.1826 144.37509 3.72827"/>
<path transform="matrix(-.005890118,.99997,.99996,.005890177,136.90236,164.66207)" d="M2.8892 0-1.73352 2.31136 0 0-1.73352-2.31136" fill="#0000ff"/>
<path transform="matrix(.0059201188,.99997,.99996,-.005920178,159.676,164.57329)" d="M2.8892 0-1.73352 2.31136 0 0-1.73352-2.31136" fill="#0000ff"/>
<path transform="matrix(1.00002,0,0,-1.00003,15.298027,168.30167)" stroke-width=".99628" stroke-linecap="butt" stroke-miterlimit="10" stroke-linejoin="miter" fill="none" stroke="#0000ff" d="M146.40528 155.17195 146.41613 154.84366 146.52248 152.06603 146.62883 149.64508 146.73517 147.5082 146.84152 145.6134 146.94788 143.92035 147.05422 142.4008 147.16057 141.03055 147.26692 139.78537 147.37328 138.64995 147.47962 137.61298 147.58597 136.66155 147.69232 135.78356 147.79866 134.97415 147.90502 134.22367 148.01137 133.524 148.1177 132.8752 148.22406 132.26996 148.33042 131.70426 148.43675 131.17328 148.5431 130.67293 148.64945 130.2057 148.7558 129.76428 148.86214 129.34947 148.96849 128.9565 149.07485 128.58448 149.18119 128.23424 149.28754 127.90015 149.39389 127.58542 149.50023 127.28442 149.60659 126.99875 149.71294 126.72679 149.81928 126.46857 149.92563 126.22162 150.03199 125.9868 150.13834 125.76164 150.24468 125.547 150.35103 125.3412 150.45738 125.14592 150.56372 124.95871 150.67008 124.77711 150.77643 124.60524 150.88277 124.4414 150.9891 124.28244 151.09546 124.12994 151.2018 123.98466 151.30815 123.84427 151.4145 123.7111 151.52085 123.582 151.6272 123.4577 151.73355 123.33908 151.8399 123.22449 151.94625 123.11555 152.0526 123.00903 152.15895 122.90816 152.26529 122.80971 152.37165 122.7161 152.478 122.62653 152.58434 122.54018 152.69069 122.45625 152.79705 122.37636 152.90338 122.29889 153.00974 122.22626 153.11609 122.15442 153.22245 122.08664 153.32877 122.0221 153.43512 121.95915 153.54148 121.89862 153.64781 121.84052 153.75417 121.78645 153.86052 121.7332 153.96686 121.68315 154.07321 121.63474 154.17957 121.58955 154.2859 121.54518 154.39226 121.5032 154.49861 121.46367 154.60495 121.42654 154.7113 121.39102 154.81766 121.35715 154.924 121.32486 155.03035 121.29501 155.1367 121.26677 155.24304 121.24094 155.3494 121.21672 155.45575 121.1925 155.56209 121.17233 155.66843 121.15218 155.77478 121.13521 155.88114 121.11908 155.98748 121.10455 156.09383 121.09245 156.20018 121.08115 156.30652 121.07147 156.41287 121.0634 156.51923 121.05775 156.62557 121.0529 156.73192 121.04887 156.83827 121.04727H156.94463L157.05098 121.04887 157.15732 121.0529 157.26367 121.05775 157.37001 121.0634 157.47637 121.07147 157.58272 121.08115 157.68906 121.09245 157.79541 121.10455 157.90174 121.11908 158.00809 121.13521 158.11446 121.15218 158.2208 121.17233 158.32715 121.19414 158.43349 121.21672 158.53984 121.24094 158.6462 121.26677 158.75254 121.29501 158.85889 121.32486 158.96523 121.35715 159.07158 121.39023 159.17794 121.42574 159.28427 121.46367 159.39064 121.5032 159.49698 121.54518 159.60334 121.58794 159.70969 121.63474 159.81603 121.68153 159.92238 121.73239 160.02872 121.78564 160.13507 121.84052 160.24141 121.89862 160.34775 121.95755 160.45412 122.02046 160.56044 122.08585 160.66681 122.15442 160.77317 122.22545 160.8795 122.29889 160.98586 122.37555 161.0922 122.45544 161.19855 122.53856 161.3049 122.62491 161.41124 122.71529 161.5176 122.80971 161.62393 122.90735 161.7303 123.00821 161.83666 123.11394 161.943 123.2237 162.04935 123.33827 162.15569 123.4577 162.26204 123.58118 162.3684 123.7103 162.47473 123.84427 162.58107 123.98466 162.68741 124.12994 162.79376 124.28163 162.90013 124.43901 163.00647 124.60364 163.11283 124.77632 163.21916 124.95627 163.32552 125.1443 163.43187 125.34041 163.53821 125.54457 163.64456 125.76003 163.7509 125.98598 163.85726 126.22002 163.96361 126.46695 164.06995 126.72517 164.17632 126.99632 164.28266 127.282 164.389 127.5822 164.49536 127.89772 164.6017 128.23181 164.70806 128.58205 164.81439 128.95407 164.92073 129.34708 165.02709 129.76348 165.13343 130.20326 165.23978 130.67052 165.34612 131.16924 165.45249 131.69942 165.55884 132.26673 165.66518 132.87116 165.77153 133.51996 165.87787 134.218 165.98423 134.9677 166.09058 135.77872 166.19692 136.65428 166.30327 137.60572 166.4096 138.64269 166.51598 139.7765 166.62233 141.02169 166.72867 142.39192 166.83502 143.91066 166.94136 145.60129 167.04772 147.49608 167.15406 149.62732 167.26039 152.0499 167.36675 154.82347 167.37747 155.14612"/>
<path transform="matrix(-.033050665,-.99945,-.99944,.033050997,161.70624,13.125076)" d="M2.8892 0-1.73352 2.31136 0 0-1.73352-2.31136" fill="#0000ff"/>
<path transform="matrix(.033100666,-.99945,-.99944,-.033100998,182.67887,13.150909)" d="M2.8892 0-1.73352 2.31136 0 0-1.73352-2.31136" fill="#0000ff"/>
<path transform="matrix(1.00002,0,0,-1.00003,15.298027,168.30167)" stroke-width=".99628" stroke-linecap="butt" stroke-miterlimit="10" stroke-linejoin="miter" fill="none" stroke="#0000ff" d="M169.40827 3.67986 169.50579 20.15839 169.62038 33.80768 169.73499 43.95224 169.8496 51.77272 169.9642 57.99454 170.07881 63.05188 170.19344 67.25706 170.30805 70.79651 170.42266 73.81784 170.53726 76.426 170.65187 78.70248 170.76648 80.70462 170.88109 82.47917 170.99571 84.0649 171.11032 85.48761 171.22492 86.77069 171.33953 87.93275 171.45413 88.99072 171.56874 89.95747 171.68335 90.84596 171.79796 91.66263 171.91259 92.41878 172.02719 93.11682 172.1418 93.76561 172.25641 94.36845 172.37102 94.93172 172.48563 95.45787 172.60024 95.95012 172.71485 96.41171 172.82947 96.84587 172.94406 97.25421 173.05867 97.63672 173.17328 97.99986 173.28789 98.34363 173.4025 98.66805 173.5171 98.9755 173.63173 99.26764 173.74634 99.54361 173.86095 99.80588 173.97556 100.05524 174.09017 100.29329 174.20478 100.51845 174.31938 100.73552 174.434 100.93968 174.5486 101.1366 174.66321 101.32382 174.77782 101.50215 174.89243 101.67244 175.00704 101.83626 175.12165 101.9928 175.23625 102.1413 175.35086 102.28575 175.46549 102.42212 175.5801 102.55284 175.6947 102.67874 175.80931 102.79898 175.92392 102.91438 176.03853 103.02574 176.15314 103.13144 176.26775 103.23233 176.38236 103.32997 176.49697 103.42278 176.61157 103.51154 176.72618 103.59789 176.84079 103.67938 176.9554 103.75848 177.07003 103.83353 177.18463 103.90454 177.29924 103.97394 177.41385 104.0393 177.52846 104.10146 177.64307 104.16197 177.75768 104.21846 177.87227 104.27335 177.98688 104.32498 178.1015 104.3742 178.21611 104.42102 178.33072 104.4654 178.44533 104.50656 178.55994 104.54529 178.67455 104.58322 178.78916 104.61871 178.90378 104.651 179.01839 104.68167 179.133 104.70992 179.2476 104.73735 179.36222 104.76237 179.47682 104.78496 179.59142 104.80513 179.70604 104.8237 179.82065 104.84065 179.93526 104.85516 180.04987 104.86726 180.16448 104.87857 180.27909 104.88907 180.39369 104.89632 180.5083 104.90198 180.62291 104.90439 180.73754 104.90762H180.85214L180.96675 104.90439 181.08136 104.90198 181.19596 104.89632 181.31056 104.88907 181.42517 104.87857 181.5398 104.86726 181.6544 104.85516 181.76902 104.84065 181.8836 104.8237 181.99823 104.80513 182.11286 104.78496 182.22745 104.76237 182.34207 104.73735 182.45667 104.71152 182.57129 104.68167 182.6859 104.65262 182.80049 104.61871 182.9151 104.58322 183.02971 104.5461 183.14432 104.50656 183.25894 104.4654 183.37354 104.42102 183.48816 104.3742 183.60277 104.32498 183.71738 104.27335 183.832 104.21846 183.9466 104.16197 184.06122 104.10146 184.17581 104.0393 184.29044 103.97394 184.40505 103.90454 184.51964 103.83353 184.63425 103.75848 184.74886 103.67938 184.86347 103.59789 184.97809 103.51154 185.0927 103.42278 185.2073 103.32997 185.3219 103.23233 185.43653 103.13144 185.55115 103.02574 185.66574 102.91438 185.78037 102.79898 185.89496 102.67874 186.00959 102.55284 186.12418 102.42212 186.23879 102.28575 186.3534 102.1429 186.468 101.9928 186.58261 101.83626 186.69724 101.67325 186.81183 101.50215 186.92646 101.32382 187.04106 101.1366 187.15567 100.94131 187.2703 100.73552 187.38489 100.52007 187.49951 100.29329 187.6141 100.05524 187.72873 99.8067 187.84333 99.54361 187.95793 99.26764 188.07254 98.9755 188.18715 98.66805 188.30176 98.34363 188.41638 98.00148 188.53098 97.63834 188.6456 97.25421 188.7602 96.8467 188.87482 96.41171 188.98944 95.95012 189.10404 95.45787 189.21866 94.93172 189.33325 94.36923 189.44786 93.76724 189.56247 93.11761 189.67708 92.41878 189.79169 91.66425 189.9063 90.84758 190.0209 89.9583 190.13553 88.99072 190.25012 87.93275 190.36475 86.77069 190.47934 85.48761 190.59397 84.0649 190.70859 82.4816 190.82318 80.70624 190.9378 78.70493 191.0524 76.426 191.167 73.81784 191.28162 70.79651 191.39623 67.25706 191.51084 63.05592 191.62545 57.99454 191.74005 51.7824 191.85468 43.95224 191.96927 33.80768 192.0839 20.1826 192.18148 3.70406"/>
<path transform="matrix(-.0059201188,.99997,.99996,.005920178,184.70969,164.62169)" d="M2.8892 0-1.73352 2.31136 0 0-1.73352-2.31136" fill="#0000ff"/>
<path transform="matrix(.005890118,.99997,.99996,-.005890177,207.48334,164.59749)" d="M2.8892 0-1.73352 2.31136 0 0-1.73352-2.31136" fill="#0000ff"/>
<path transform="matrix(1.00002,0,0,-1.00003,15.298027,168.30167)" stroke-width=".3985" stroke-linecap="butt" stroke-dasharray="2.98883,2.98883" stroke-miterlimit="10" stroke-linejoin="miter" fill="none" stroke="#ff0000" d="M1.52171 0V161.39636"/>
<path transform="matrix(1.00002,0,0,-1.00003,15.298027,168.30167)" stroke-width=".3985" stroke-linecap="butt" stroke-dasharray="2.98883,2.98883" stroke-miterlimit="10" stroke-linejoin="miter" fill="none" stroke="#ff0000" d="M25.42477 0V161.39636"/>
<path transform="matrix(1.00002,0,0,-1.00003,15.298027,168.30167)" stroke-width=".3985" stroke-linecap="butt" stroke-dasharray="2.98883,2.98883" stroke-miterlimit="10" stroke-linejoin="miter" fill="none" stroke="#ff0000" d="M49.32788 0V161.39636"/>
<path transform="matrix(1.00002,0,0,-1.00003,15.298027,168.30167)" stroke-width=".3985" stroke-linecap="butt" stroke-dasharray="2.98883,2.98883" stroke-miterlimit="10" stroke-linejoin="miter" fill="none" stroke="#ff0000" d="M73.23106 0V161.39636"/>
<path transform="matrix(1.00002,0,0,-1.00003,15.298027,168.30167)" stroke-width=".3985" stroke-linecap="butt" stroke-dasharray="2.98883,2.98883" stroke-miterlimit="10" stroke-linejoin="miter" fill="none" stroke="#ff0000" d="M121.03705 0V161.39636"/>
<path transform="matrix(1.00002,0,0,-1.00003,15.298027,168.30167)" stroke-width=".3985" stroke-linecap="butt" stroke-dasharray="2.98883,2.98883" stroke-miterlimit="10" stroke-linejoin="miter" fill="none" stroke="#ff0000" d="M144.94025 0V161.39636"/>
<path transform="matrix(1.00002,0,0,-1.00003,15.298027,168.30167)" stroke-width=".3985" stroke-linecap="butt" stroke-dasharray="2.98883,2.98883" stroke-miterlimit="10" stroke-linejoin="miter" fill="none" stroke="#ff0000" d="M168.84336 0V161.39636"/>
<path transform="matrix(1.00002,0,0,-1.00003,15.298027,168.30167)" stroke-width=".3985" stroke-linecap="butt" stroke-dasharray="2.98883,2.98883" stroke-miterlimit="10" stroke-linejoin="miter" fill="none" stroke="#ff0000" d="M192.74642 0V161.39636"/>
<use data-text="(" xlink:href="#font_4_85" transform="matrix(9.962799,0,0,-9.962899,.21672821,9.390884)"/>
<use data-text="C" xlink:href="#font_4_42" transform="matrix(9.962799,0,0,-9.962899,4.0922548,9.390884)"/>
<use data-text=")" xlink:href="#font_4_86" transform="matrix(9.962799,0,0,-9.962899,11.2854,9.390884)"/>
<use data-text="x" xlink:href="#font_3_2" transform="matrix(9.962799,0,0,-9.962899,200.35575,84.08113)"/>
<use data-text="y" xlink:href="#font_3_3" transform="matrix(9.962799,0,0,-9.962899,115.95404,14.7100529)"/>
</svg>
