<svg xmlns="http://www.w3.org/2000/svg" xmlns:xlink="http://www.w3.org/1999/xlink" xmlns:inkscape="http://www.inkscape.org/namespaces/inkscape" version="1.1" width="344" height="174" viewBox="0 0 344 174">
<defs>
<path id="font_1_1" d="M.5059967 .37631227C.5119934 .39031983 .5159912 .3973236 .5799866 .3973236V.44433595C.5549927 .44232179 .526001 .44132997 .5009918 .44132997 .47599793 .44132997 .43099977 .44332887 .4099884 .44433595V.3973236C.42900086 .3973236 .45799256 .3943329 .45799256 .38632203 .45799256 .3853302 .45700074 .38331605 .45298768 .37431336L.33699037 .12416077 .20999146 .3973236H.2639923V.44433595C.23098755 .44232179 .14099121 .44132997 .13999939 .44132997 .11199951 .44132997 .066986087 .44332887 .025985718 .44433595V.3973236H.08999634L.2649994 .021087647C.2769928-.00390625 .2899933-.00390625 .30299378-.00390625 .31999208-.00390625 .32998658-.00091552737 .33999635 .020080567L.5059967 .37631227Z"/>
<path id="font_2_1" d="M.2939911 .64004519C.2939911 .66400149 .2939911 .6660156 .2709961 .6660156 .20899964 .60227969 .12098694 .60227969 .08898926 .60227969V.57128909C.10899353 .57128909 .16799927 .57128909 .21998596 .5972748V.07902527C.21998596 .042999269 .21699524 .0309906 .1269989 .0309906H.09498596V0C.12998963 .0029907227 .21699524 .0029907227 .25698854 .0029907227 .29699708 .0029907227 .38398744 .0029907227 .4189911 0V.0309906H.3869934C.29699708 .0309906 .2939911 .041992189 .2939911 .07902527V.64004519Z"/>
<path id="font_3_1" d="M.6589966 .23046875C.6759949 .23046875 .69400027 .23046875 .69400027 .25045777 .69400027 .27046205 .6759949 .27046205 .6589966 .27046205H.117996219C.100997928 .27046205 .08299255 .27046205 .08299255 .25045777 .08299255 .23046875 .100997928 .23046875 .117996219 .23046875H.6589966Z"/>
<path id="font_2_2" d="M.1269989 .07699585 .23298645 .18003845C.3889923 .31811524 .44898988 .3721466 .44898988 .47216798 .44898988 .5860901 .35899354 .6660156 .23699951 .6660156 .12399292 .6660156 .049987794 .57411196 .049987794 .48516847 .049987794 .4291687 .099990848 .4291687 .102996829 .4291687 .11999512 .4291687 .15499878 .44117738 .15499878 .48217774 .15499878 .5081787 .13699341 .5341797 .101989749 .5341797 .09399414 .5341797 .09199524 .5341797 .08898926 .5331726 .11199951 .59806826 .1659851 .63500979 .22399903 .63500979 .31498719 .63500979 .35798646 .5541382 .35798646 .47216798 .35798646 .39215089 .30799867 .31311036 .25299073 .25108338L.06098938 .036987306C.049987794 .025985718 .049987794 .023986817 .049987794 0H.42099L.44898988 .17404175H.42399598C.4189911 .14402771 .4119873 .1000061 .4019928 .084991458 .394989 .07699585 .32899476 .07699585 .30699159 .07699585H.1269989Z"/>
<path id="font_4_1" d="M.33499146 .63612368C.33499146 .6630554 .33299256 .6640625 .30499269 .6640625 .24099732 .6014404 .1499939 .6004486 .10899353 .6004486V.5644531C.1329956 .5644531 .19898987 .5644531 .2539978 .592453V.08203125C.2539978 .04899597 .2539978 .035995485 .1539917 .035995485H.115997318V0C.13398743 .0009918213 .25698854 .0039978029 .2939911 .0039978029 .32499696 .0039978029 .45098878 .0009918213 .47299195 0V.035995485H.43499757C.33499146 .035995485 .33499146 .04899597 .33499146 .08203125V.63612368Z"/>
<path id="font_4_2" d="M.5049896 .18203736H.47099305C.46798707 .16001892 .45799256 .100997928 .44499208 .09098816 .43699647 .084991458 .3600006 .084991458 .34599305 .084991458H.1619873C.2669983 .17803955 .3019867 .20603943 .3619995 .25306703 .43598939 .312088 .5049896 .374115 .5049896 .46914674 .5049896 .5900879 .39898683 .6640625 .2709961 .6640625 .14698792 .6640625 .06298828 .57710269 .06298828 .4851532 .06298828 .43414308 .10598755 .42915345 .115997318 .42915345 .13999939 .42915345 .16899109 .44615174 .16899109 .48214723 .16899109 .5001526 .1619873 .53515627 .10998535 .53515627 .14099121 .6060791 .20899964 .62805178 .2559967 .62805178 .35598756 .62805178 .4079895 .5501404 .4079895 .46914674 .4079895 .38212586 .34599305 .3130951 .31399537 .27708436L.07299805 .038986207C.06298828 .02999878 .06298828 .027999878 .06298828 0H.47499085L.5049896 .18203736Z"/>
</defs>
<path transform="matrix(1.00006,0,0,-1.00003,172.18518,86.84113)" stroke-width=".3985" stroke-linecap="butt" stroke-miterlimit="10" stroke-linejoin="miter" fill="none" stroke="#cccccc" d="M-170.08086-85.04042H170.08086M-170.08086-63.7803H170.08086M-170.08086-42.5202H170.08086M-170.08086-21.2601H170.08086M-170.08086 0H170.08086M-170.08086 21.2601H170.08086M-170.08086 42.5202H170.08086M-170.08086 63.7803H170.08086M-170.08086 85.03294H170.08086M-170.08086-85.04042V85.04042M-148.82074-85.04042V85.04042M-127.56062-85.04042V85.04042M-106.30052-85.04042V85.04042M-85.04042-85.04042V85.04042M-63.7803-85.04042V85.04042M-42.5202-85.04042V85.04042M-21.2601-85.04042V85.04042M0-85.04042V85.04042M21.2601-85.04042V85.04042M42.5202-85.04042V85.04042M63.7803-85.04042V85.04042M85.04042-85.04042V85.04042M106.30052-85.04042V85.04042M127.56062-85.04042V85.04042M148.82074-85.04042V85.04042M170.07338-85.04042V85.04042M170.08086 85.04042"/>
<path transform="matrix(1.00006,0,0,-1.00003,172.18518,86.84113)" stroke-width="1.99255" stroke-linecap="butt" stroke-miterlimit="10" stroke-linejoin="miter" fill="none" stroke="#0000ff" d="M-106.30052-63.7803-46.16747-23.69157"/>
<path transform="matrix(.8320699,-.55468669,-.55470326,-.83204498,126.01494,110.53342)" d="M4.38364 0-2.63017 3.50691 0 0-2.63017-3.50691" fill="#0000ff"/>
<use data-text="v" xlink:href="#font_1_1" transform="matrix(8.289579,-5.526121,-5.526286,-8.2893309,92.79411,127.49139)"/>
<path transform="matrix(1.00006,0,0,-1.00003,172.18518,86.84113)" stroke-width="1.99255" stroke-linecap="butt" stroke-miterlimit="10" stroke-linejoin="miter" fill="none" stroke="#0000ff" d="M-148.82074 21.2601-88.68768 61.34882"/>
<path transform="matrix(.8320699,-.55468669,-.55470326,-.83204498,83.49218,25.49047)" d="M4.38364 0-2.63017 3.50691 0 0-2.63017-3.50691" fill="#0000ff"/>
<use data-text="1" xlink:href="#font_2_1" transform="matrix(8.289579,-5.526121,-5.526286,-8.2893309,48.19844,43.82988)"/>
<use data-text="v" xlink:href="#font_1_1" transform="matrix(8.289579,-5.526121,-5.526286,-8.2893309,52.342988,41.066987)"/>
<path transform="matrix(1.00006,0,0,-1.00003,172.18518,86.84113)" stroke-width="1.99255" stroke-linecap="butt" stroke-miterlimit="10" stroke-linejoin="miter" fill="none" stroke="#0000ff" d="M63.7803 63.7803 3.64725 23.69157"/>
<path transform="matrix(-.8320699,.55468669,.55470326,.83204498,175.83264,63.14885)" d="M4.38364 0-2.63017 3.50691 0 0-2.63017-3.50691" fill="#0000ff"/>
<use data-text="&#x2212;" xlink:href="#font_3_1" transform="matrix(8.289579,-5.526121,-5.526286,-8.2893309,195.41626,43.90689)"/>
<use data-text="v" xlink:href="#font_1_1" transform="matrix(8.289579,-5.526121,-5.526286,-8.2893309,201.86315,39.609178)"/>
<path transform="matrix(1.00006,0,0,-1.00003,172.18518,86.84113)" stroke-width="1.99255" stroke-linecap="butt" stroke-miterlimit="10" stroke-linejoin="miter" fill="none" stroke="#0000ff" d="M21.2601-63.7803 145.17348 18.82861"/>
<path transform="matrix(.8320699,-.55468669,-.55470326,-.83204498,317.36738,68.011959)" d="M4.38364 0-2.63017 3.50691 0 0-2.63017-3.50691" fill="#0000ff"/>
<use data-text="2" xlink:href="#font_2_2" transform="matrix(8.289579,-5.526121,-5.526286,-8.2893309,250.18155,107.612819)"/>
<use data-text="v" xlink:href="#font_1_1" transform="matrix(8.289579,-5.526121,-5.526286,-8.2893309,254.32608,104.84992)"/>
<path transform="matrix(1.00006,0,0,-1.00003,172.18518,86.84113)" stroke-width="1.99255" stroke-linecap="butt" stroke-miterlimit="10" stroke-linejoin="miter" fill="none" stroke="#0000ff" d="M-63.7803 42.5202-35.5374 61.34882"/>
<path transform="matrix(.8320699,-.55468669,-.55470326,-.83204498,136.64565,25.49047)" d="M4.38364 0-2.63017 3.50691 0 0-2.63017-3.50691" fill="#0000ff"/>
<use data-text="1" xlink:href="#font_4_1" transform="matrix(5.802689,-3.868274,-3.8683897,-5.8025157,113.63666,26.797524)"/>
<path transform="matrix(.8320699,-.55468669,-.55470326,-.83204498,-135.13825,112.21189)" stroke-width=".3985" stroke-linecap="butt" stroke-miterlimit="10" stroke-linejoin="miter" fill="none" stroke="#000000" d="M254.37-68.353H258.341"/>
<use data-text="2" xlink:href="#font_4_2" transform="matrix(5.802689,-3.868274,-3.8683897,-5.8025157,117.71817,32.919717)"/>
<use data-text="v" xlink:href="#font_1_1" transform="matrix(8.289579,-5.526121,-5.526286,-8.2893309,120.11206,27.195588)"/>
</svg>
