<svg xmlns="http://www.w3.org/2000/svg" xmlns:xlink="http://www.w3.org/1999/xlink" xmlns:inkscape="http://www.inkscape.org/namespaces/inkscape" version="1.1" width="401" height="400" viewBox="0 0 401 400">
<defs>
<path id="font_1_27" d="M.71699526 0V.0309906H.69898989C.6389923 .0309906 .625 .037979127 .6139984 .07095337L.397995 .6958008C.3929901 .7088165 .3909912 .7158203 .375 .7158203 .35899354 .7158203 .35598756 .70980837 .35099793 .6958008L.14399719 .09791565C.12599182 .04698181 .085998538 .03199768 .03199768 .0309906V0L.13398743 .0029907227 .24899292 0V.0309906C.19898987 .0309906 .17399597 .05596924 .17399597 .0819397 .17399597 .08493042 .1749878 .09492493 .17599488 .09692383L.22200012 .2277832H.46899415L.5219879 .07495117C.522995 .07095337 .5249939 .064956668 .5249939 .060958864 .5249939 .0309906 .46899415 .0309906 .44198609 .0309906V0C.47799684 .0029907227 .5479889 .0029907227 .58599856 .0029907227L.71699526 0M.45799256 .25878907H.23298645L.34498597 .58380129 .45799256 .25878907Z"/>
<path id="font_1_84" d="M.5209961 .21636963C.5209961 .34336854 .42399598 .4423828 .31199647 .4423828 .23399353 .4423828 .19198609 .39837647 .17199707 .3763733V.4423828L.027999878 .43066407V.3996582C.09899902 .3996582 .10598755 .3936615 .10598755 .34973146V-.117996219C.10598755-.16308594 .09498596-.16308594 .027999878-.16308594V-.1940918L.13999939-.19110108 .25299073-.1940918V-.16308594C.18598938-.16308594 .1749878-.16308594 .1749878-.117996219V.050186159 .059173585C.17999268 .04319763 .22200012-.0107421879 .2979889-.0107421879 .4169922-.0107421879 .5209961 .087127689 .5209961 .21594239V.21636963M.43798829 .21594239C.43798829 .09512329 .36799623 .011245728 .2939911 .011245728 .2539978 .011245728 .21598816 .031219483 .18899536 .07215881 .1749878 .09312439 .1749878 .09411621 .1749878 .114089969V.33674623C.20399475 .38838197 .25299073 .41737367 .3039856 .41737367 .3769989 .41737367 .43798829 .32937623 .43798829 .21636963V.21594239Z"/>
<path id="font_1_28" d="M.48298646 .08912659V.14511109H.45799256V.08912659C.45799256 .03112793 .43299867 .025131226 .42199708 .025131226 .3889923 .025131226 .3849945 .070129398 .3849945 .07511902V.27508546C.3849945 .31707765 .3849945 .3560791 .34899903 .39312745 .30999757 .43223573 .2599945 .4482422 .21199036 .4482422 .12998963 .4482422 .06098938 .40115357 .06098938 .335083 .06098938 .30508424 .08099365 .28808595 .10699463 .28808595 .1349945 .28808595 .15299988 .30807496 .15299988 .33407594 .15299988 .3460846 .147995 .37908937 .101989749 .38008119 .1289978 .41519166 .17799378 .426239 .20999146 .426239 .25898744 .426239 .31599427 .38710023 .31599427 .29808045V.26107789C.2649994 .25808717 .19499207 .25508119 .13198853 .22509766 .056991579 .19110108 .03199768 .13911438 .03199768 .09512329 .03199768 .014251709 .1289978-.0107421879 .19198609-.0107421879 .2579956-.0107421879 .3039856 .029251099 .32299806 .07624817 .32699586 .036132814 .35398866-.005859375 .40098573-.005859375 .42199708-.005859375 .48298646 .008132935 .48298646 .08912659M.31599427 .14013672C.31599427 .04525757 .24398804 .011245728 .19898987 .011245728 .1499939 .011245728 .10899353 .04624939 .10899353 .09625244 .10899353 .15124512 .15098572 .23425293 .31599427 .24024964V.14013672Z"/>
<path id="font_1_96" d="M.3639984 .38137818C.3639984 .41337586 .33299256 .4423828 .2899933 .4423828 .21699524 .4423828 .18099976 .37538148 .16699219 .3323822V.4423828L.027999878 .43066407V.3996582C.09799194 .3996582 .10598755 .39266969 .10598755 .34370423V.07595825C.10598755 .0309906 .09498596 .0309906 .027999878 .0309906V0L.14199829 .0029907227C.18199158 .0029907227 .22898865 .0029907227 .2689972 0V.0309906H.24798584C.17399597 .0309906 .17199707 .04197693 .17199707 .07795715V.23181153C.17199707 .33137513 .21398926 .42037965 .2899933 .42037965 .29699708 .42037965 .29899598 .42037965 .30099488 .41937257 .2979889 .41838075 .27799989 .40637208 .27799989 .3803711 .27799989 .35237123 .29899598 .33737184 .32099916 .33737184 .33898927 .33737184 .3639984 .3493805 .3639984 .38137818Z"/>
<path id="font_1_50" d="M.4149933 .11933899C.4149933 .12934876 .40699769 .13134766 .4019928 .13134766 .3929901 .13134766 .3909912 .12535095 .3889923 .11734009 .35398866 .014251709 .2639923 .014251709 .2539978 .014251709 .20399475 .014251709 .1639862 .044281007 .14099121 .08131409 .11099243 .12934876 .11099243 .19540406 .11099243 .23144531H.3899994C.4119873 .23144531 .4149933 .23144531 .4149933 .2524414 .4149933 .35131837 .36099244 .4482422 .23599243 .4482422 .11999512 .4482422 .027999878 .34532167 .027999878 .22042847 .027999878 .08631897 .1329956-.0107421879 .24798584-.0107421879 .36999513-.0107421879 .4149933 .10032654 .4149933 .11933899M.34899903 .2524414H.11199951C.117996219 .40126039 .20199585 .426239 .23599243 .426239 .33898927 .426239 .34899903 .2913971 .34899903 .2524414Z"/>
<path id="font_1_77" d="M.5349884 0V.0309906C.48298646 .0309906 .45799256 .0309906 .45700074 .061019899V.25221253C.45700074 .3383026 .45700074 .36932374 .42599488 .405365 .4119873 .42237855 .3789978 .4423828 .32099916 .4423828 .24798584 .4423828 .20098877 .39935304 .17298889 .33729554V.4423828L.03199768 .43066407V.3996582C.101989749 .3996582 .10998535 .39266969 .10998535 .34370423V.07595825C.10998535 .0309906 .09899902 .0309906 .03199768 .0309906V0L.14498902 .0029907227 .25698854 0V.0309906C.18998719 .0309906 .1789856 .0309906 .1789856 .07595825V.25978089C.1789856 .36431886 .25 .42037965 .31399537 .42037965 .3769989 .42037965 .3880005 .36631776 .3880005 .30926515V.076034549C.3880005 .0309906 .3769989 .0309906 .30999757 .0309906V0L.4229889 .0029907227 .5349884 0Z"/>
<path id="font_1_105" d="M.33198548 .12385559V.18066406H.30699159V.12585449C.30699159 .052108766 .2769928 .014251709 .23999024 .014251709 .17298889 .014251709 .17298889 .10491943 .17298889 .12187195V.3996582H.31599427V.43066407H.17298889V.6142578H.147995C.14698792 .5324249 .116989139 .42565919 .018997193 .42166139V.3996582H.10398865V.12408447C.10398865 .0012512207 .19699097-.0107421879 .23298645-.0107421879 .3039856-.0107421879 .33198548 .060180665 .33198548 .12408447V.12385559Z"/>
<path id="font_1_62" d="M.71598818 0V.0309906H.69200137C.61499026 .0309906 .61299136 .041992189 .61299136 .07797241V.6046448C.61299136 .640625 .61499026 .6516113 .69200137 .6516113H.71598818V.6826172C.68099978 .6796112 .6069946 .6796112 .56900027 .6796112 .5309906 .6796112 .45599366 .6796112 .42099 .6826172V.6516113H.44499208C.5219879 .6516113 .5239868 .640625 .5239868 .6046448V.37083436H.22499085V.6046448C.22499085 .640625 .22698975 .6516113 .3039856 .6516113H.32798768V.6826172C.29299928 .6796112 .21899414 .6796112 .18099976 .6796112 .14299011 .6796112 .067993167 .6796112 .032989503 .6826172V.6516113H.056991579C.13398743 .6516113 .13598633 .640625 .13598633 .6046448V.07797241C.13598633 .041992189 .13398743 .0309906 .056991579 .0309906H.032989503V0C.067993167 .0029907227 .14199829 .0029907227 .17999268 .0029907227 .21798706 .0029907227 .29299928 .0029907227 .32798768 0V.0309906H.3039856C.22698975 .0309906 .22499085 .041992189 .22499085 .07797241V.33984376H.5239868V.07797241C.5239868 .041992189 .5219879 .0309906 .44499208 .0309906H.42099V0C.45599366 .0029907227 .5299988 .0029907227 .56799319 .0029907227 .60598757 .0029907227 .68099978 .0029907227 .71598818 0Z"/>
<path id="font_1_47" d="M.5269928 0V.0309906C.45700074 .0309906 .44898988 .038009645 .44898988 .0871582V.69433596L.30499269 .6826172V.6516113C.375 .6516113 .3829956 .64463809 .3829956 .59580996V.38035584C.35398866 .41636659 .31098939 .4423828 .25698854 .4423828 .13899231 .4423828 .033996583 .3443451 .033996583 .21531677 .033996583 .088272098 .13198853-.0107421879 .24598694-.0107421879 .30999757-.0107421879 .35499574 .023254395 .37998963 .055267335V-.0107421879L.5269928 0M.37998963 .117996219C.37998963 .099990848 .37998963 .09799194 .36898805 .08099365 .33898927 .033218385 .2939911 .011245728 .25099183 .011245728 .20599365 .011245728 .16999817 .037216188 .1459961 .075164798 .11999512 .1161499 .116989139 .17320252 .116989139 .21421814 .116989139 .25125123 .11898804 .31129457 .147995 .35632325 .16899109 .38734437 .20698548 .42037965 .26098634 .42037965 .29599 .42037965 .33799745 .405365 .36898805 .3603363 .37998963 .34332276 .37998963 .34132386 .37998963 .32330323V.117996219Z"/>
<path id="font_1_66" d="M.24699402 0V.0309906C.18099976 .0309906 .1769867 .035995485 .1769867 .075042728V.4423828L.036987306 .43066407V.3996582C.101989749 .3996582 .11099243 .3936615 .11099243 .3447113V.07595825C.11099243 .0309906 .099990848 .0309906 .032989503 .0309906V0L.14299011 .0029907227C.17799378 .0029907227 .21299744 .0009918213 .24699402 0M.19198609 .603775C.19198609 .6307678 .16899109 .6567688 .13899231 .6567688 .10499573 .6567688 .084991458 .6287689 .084991458 .603775 .084991458 .57676699 .10798645 .55078127 .13798523 .55078127 .17199707 .55078127 .19198609 .5787811 .19198609 .603775Z"/>
<path id="font_1_59" d="M.4850006 .40411378C.4850006 .42111207 .47299195 .453125 .43399049 .453125 .4139862 .453125 .36999513 .44711305 .32798768 .40611268 .28599549 .43937684 .24398804 .4423828 .22200012 .4423828 .1289978 .4423828 .05999756 .37338258 .05999756 .29638673 .05999756 .25239564 .08198547 .21440125 .10699463 .19340515 .09399414 .17840576 .07598877 .14538574 .07598877 .11035156 .07598877 .07899475 .08898926 .04083252 .11999512 .020828248 .05999756 .003829956 .027999878-.039138795 .027999878-.07911682 .027999878-.15107727 .1269989-.20605469 .24899292-.20605469 .36698915-.20605469 .47099305-.15507508 .47099305-.07711792 .47099305-.042144777 .45700074 .008834839 .4059906 .036834718 .35299684 .064834598 .29499818 .064834598 .23399353 .064834598 .20899964 .064834598 .1659851 .064834598 .15899658 .065841678 .1269989 .069885257 .10598755 .101242069 .10598755 .13334656 .10598755 .13735962 .10598755 .16040039 .12298584 .18040467 .1619873 .15240479 .20298767 .14941406 .22200012 .14941406 .31498719 .14941406 .38398744 .21839905 .38398744 .2953949 .38398744 .3323822 .36799623 .36938478 .34298707 .39237977 .3789978 .42637635 .4149933 .43138124 .43299867 .43138124 .43299867 .43112184 .43998719 .43112184 .44299317 .43011476 .43199159 .42611695 .4269867 .41513063 .4269867 .40315248 .4269867 .38616944 .43998719 .37417604 .45599366 .37417604 .46598817 .37417604 .4850006 .3811798 .4850006 .4041443V.40411378M.30899049 .29626466C.30899049 .26930238 .30799867 .2373352 .29299928 .21235657 .2849884 .20037842 .2619934 .17240906 .22200012 .17240906 .1349945 .17240906 .1349945 .2722931 .1349945 .29527284 .1349945 .3222351 .13598633 .35420228 .15098572 .3791809 .15899658 .3913269 .18199158 .41937257 .22200012 .41937257 .30899049 .41937257 .30899049 .31922914 .30899049 .29618836V.29626466M.4189911-.07911682C.4189911-.13308716 .34799195-.18305969 .25-.18305969 .14898682-.18305969 .07998657-.13209534 .07998657-.07911682 .07998657-.03314209 .117996219 .003829956 .1619873 .0068359377H.22099304C.30699159 .0068359377 .4189911 .0068359377 .4189911-.07911682Z"/>
<path id="font_1_81" d="M.47099305 .21424866C.47099305 .34223939 .37098695 .4482422 .25 .4482422 .125 .4482422 .027999878 .3392334 .027999878 .21424866 .027999878 .085250858 .13198853-.0107421879 .24899292-.0107421879 .36999513-.0107421879 .47099305 .087249759 .47099305 .21424866M.3880005 .22224427C.3880005 .18624878 .3880005 .13224793 .3659973 .08824158 .34399415 .04324341 .2999878 .014251709 .25 .014251709 .20698548 .014251709 .16299439 .035247804 .13598633 .08125305 .11099243 .12524414 .11099243 .18624878 .11099243 .22224427 .11099243 .26124574 .11099243 .31523133 .1349945 .35923768 .1619873 .40522767 .20899964 .426239 .24899292 .426239 .29299928 .426239 .33599855 .40423585 .3619995 .36123658 .3880005 .3182373 .3880005 .26023866 .3880005 .22224427Z"/>
<path id="font_1_55" d="M.35699464 .63479617C.35699464 .6717987 .31999208 .7050781 .2669983 .7050781 .19699097 .7050781 .11199951 .65179446 .11199951 .5457611V.43066407H.032989503V.3996582H.11199951V.07595825C.11199951 .0309906 .100997928 .0309906 .033996583 .0309906V0L.147995 .0029907227C.18798828 .0029907227 .23498535 .0029907227 .2749939 0V.0309906H.2539978C.17999268 .0309906 .17799378 .04197693 .17799378 .07795715V.3996582H.2919922V.43066407H.1749878V.5467529C.1749878 .63479617 .22299195 .68307498 .2669983 .68307498 .269989 .68307498 .2849884 .68307498 .2999878 .675827 .28799439 .6717987 .269989 .6587982 .269989 .6338043 .269989 .61079409 .28599549 .5907898 .31298829 .5907898 .34199525 .5907898 .35699464 .61079409 .35699464 .63479617Z"/>
<path id="font_1_113" d="M1.0089874 .6516113V.6826172C.97898867 .680603 .94799807 .6796112 .91799929 .6796112L.798996 .6826172V.6516113C.8659973 .65060427 .8860016 .6174164 .8860016 .5983734 .8860016 .59236147 .8829956 .58436587 .8809967 .57836917L.73098757 .116363529 .57099917 .606369C.56999209 .6103668 .56799319 .6164093 .56799319 .62142947 .56799319 .6516113 .6259918 .6516113 .6519928 .6516113V.6826172C.6159973 .6796112 .5479889 .6796112 .5099945 .6796112L.3880005 .6826172V.6516113C.44499208 .6516113 .46598817 .6516113 .47799684 .61595156L.5 .5459595 .36099244 .11695862 .19999695 .60894778C.19898987 .61195376 .19799805 .618927 .19799805 .62190249 .19799805 .6516113 .2559967 .6516113 .28199769 .6516113V.6826172C.24598694 .6796112 .17799378 .6796112 .13999939 .6796112L.017990113 .6826172V.6516113C.09298706 .6513672 .09700012 .6463623 .10899353 .609375L.30899049-.003479004C.31199647-.012466431 .31498719-.022460938 .32798768-.022460938 .34199525-.022460938 .34399415-.015472412 .34799195-.0024719239L.5130005 .50538638 .67900088-.003479004C.6819916-.012466431 .68499758-.022460938 .69799807-.022460938 .71199038-.022460938 .71398928-.015472412 .71798709-.0024719239L.9089966 .58496096C.9269867 .6417084 .9700012 .6516113 1.0089874 .6516113Z"/>
<path id="font_1_501" d="M.19198609 .44699098C.19198609 .47299195 .1749878 .5 .13899231 .5 .11898804 .5 .10499573 .48999024 .09899902 .48399354 .09799194 .48199464 .09599304 .48098756 .09599304 .48098756 .09599304 .48098756 .09399414 .49499513 .09399414 .49899293 .09399414 .53105166 .100997928 .60317996 .1639862 .66529849 .17599488 .6773224 .17599488 .6793213 .17599488 .6823273 .17599488 .6893463 .17098999 .6933594 .1659851 .6933594 .15499878 .6933594 .07199097 .617218 .07199097 .49899293 .07199097 .43899537 .09599304 .3939972 .13899231 .3939972 .17399597 .3939972 .19198609 .42099 .19198609 .44699098Z"/>
<path id="font_1_70" d="M.5109863 0V.0309906C.47399903 .0309906 .45199586 .0309906 .4139862 .0839386L.2869873 .26278688C.28599549 .26478578 .2809906 .2707672 .2809906 .2737732 .2809906 .277771 .35198976 .33770753 .3619995 .34570313 .4249878 .39666749 .46699525 .39865113 .48799134 .3996582V.43066407C.45899964 .42765809 .44599916 .42765809 .41799928 .42765809 .38198854 .42765809 .31999208 .42965699 .30599977 .43066407V.3996582C.32499696 .39865113 .33499146 .3876648 .33499146 .37467958 .33499146 .3547058 .32099916 .3427124 .31298829 .33570863L.17199707 .21382141V.69433596L.027999878 .6826172V.6516113C.09799194 .6516113 .10598755 .64460757 .10598755 .5956421V.07595825C.10598755 .0309906 .09498596 .0309906 .027999878 .0309906V0L.13699341 .0029907227 .24699402 0V.0309906C.17999268 .0309906 .16899109 .0309906 .16899109 .07595825V.17889405L.23298645 .23387146C.30999757 .12792969 .35198976 .07196045 .35198976 .053985597 .35198976 .034988405 .33499146 .0309906 .31599427 .0309906V0L.42399598 .0029907227C.45298768 .0029907227 .48199464 .0019989014 .5109863 0Z"/>
<path id="font_1_43" d="M.4149933 .119140628C.4149933 .12911988 .40499879 .12911988 .4019928 .12911988 .3929901 .12911988 .3909912 .12512207 .3889923 .119140628 .3600006 .026229859 .29499818 .014251709 .2579956 .014251709 .20498657 .014251709 .116989139 .0572052 .116989139 .21801758 .116989139 .38093568 .19898987 .42323304 .2519989 .42323304 .26098634 .42323304 .32398988 .42222596 .35899354 .38594056 .31799317 .38293458 .31199647 .3529358 .31199647 .3399353 .31199647 .31393434 .32998658 .2939453 .35798646 .2939453 .38398744 .2939453 .4039917 .3109436 .4039917 .34094239 .4039917 .40911866 .32798768 .4482422 .25099183 .4482422 .12599182 .4482422 .033996583 .3399353 .033996583 .21601868 .033996583 .08816528 .1329956-.0107421879 .24899292-.0107421879 .3829956-.0107421879 .4149933 .10914612 .4149933 .119140628Z"/>
<path id="font_1_109" d="M.5349884 0V.0309906C.46499635 .0309906 .45700074 .037994386 .45700074 .08705139V.4423828L.30999757 .43066407V.3996582C.37998963 .3996582 .3880005 .39266969 .3880005 .34373475V.16601563C.3880005 .07910156 .33999635 .011245728 .2669983 .011245728 .18299866 .011245728 .1789856 .058135988 .1789856 .11009216V.4423828L.03199768 .43066407V.3996582C.10998535 .3996582 .10998535 .39666749 .10998535 .3078003V.15802002C.10998535 .080093387 .10998535-.0107421879 .2619934-.0107421879 .31799317-.0107421879 .3619995 .017242432 .3909912 .07910156V-.0107421879L.5349884 0Z"/>
<path id="font_1_72" d="M.25498963 0V.0309906C.18798828 .0309906 .1769867 .0309906 .1769867 .07601929V.69433596L.032989503 .6826172V.6516113C.102996829 .6516113 .11099243 .64460757 .11099243 .5956421V.07595825C.11099243 .0309906 .099990848 .0309906 .032989503 .0309906V0L.14399719 .0029907227 .25498963 0Z"/>
<path id="font_1_71" d="M.58200076 .2578125H.5569916C.54599 .15588379 .5319977 .0309906 .35598756 .0309906H.27398683C.22698975 .03060913 .22499085 .037612916 .22499085 .07060242V.6036072C.22499085 .63760378 .22499085 .6516113 .31999208 .6516113H.35299684V.6826172C.31698609 .6796112 .22599793 .6796112 .18499756 .6796112 .1459961 .6796112 .067993167 .6796112 .032989503 .6826172V.6516113H.056991579C.13398743 .6518097 .13598633 .6408081 .13598633 .6048126V.07795715C.13598633 .04197693 .13398743 .0309906 .056991579 .0309906H.032989503V0H.55400088L.58200076 .2578125Z"/>
<path id="font_1_114" d="M.7029877 .3996582V.43066407C.68099978 .4286499 .6519928 .42765809 .6299896 .42765809L.5369873 .43066407V.3996582C.57299807 .39866639 .59498599 .38075257 .59498599 .35176087 .59498599 .34576417 .59498599 .34376527 .58999636 .33078004L.49899293 .07513428 .3999939 .35375978C.3959961 .36575318 .394989 .36775209 .394989 .37275697 .394989 .3996582 .43399049 .3996582 .45399476 .3996582V.43066407L.34999085 .42765809C.31999208 .42765809 .29100038 .4286499 .26098634 .43066407V.3996582C.2979889 .3996582 .31399537 .39767457 .32398988 .38476563 .32899476 .37875367 .33999635 .34877015 .34700013 .3297882L.26098634 .08811951 .1659851 .3547516C.16099549 .36676026 .16099549 .36875917 .16099549 .37275697 .16099549 .3996582 .19999695 .3996582 .21998596 .3996582V.43066407L.11099243 .42765809 .017990113 .43066407V.3996582C.067993167 .3996582 .07998657 .39668275 .09199524 .36476136L.21798706 .01121521C.22299195-.0027618409 .22599793-.0107421879 .23899842-.0107421879 .2519989-.0107421879 .2539978-.004760742 .25898744 .009216309L.3600006 .2918396 .46199037 .008224487C.46598817-.0027618409 .46899415-.0107421879 .48199464-.0107421879 .49499513-.0107421879 .49798585-.0017547608 .5019989 .008224487L.61898806 .3357849C.6369934 .38575746 .66799929 .39866639 .7029877 .3996582Z"/>
<path id="font_1_118" d="M.5079956 .3996582V.43066407C.4850006 .4286499 .45599366 .42765809 .43299867 .42765809L.34599305 .43066407V.3996582C.3769989 .39866639 .3929901 .3816681 .3929901 .35668946 .3929901 .34669496 .3919983 .34469605 .3869934 .33270265L.28599549 .08685303 .1749878 .35568238C.17098999 .36567689 .16899109 .36967469 .16899109 .3736725 .16899109 .3996582 .20599365 .3996582 .22499085 .3996582V.43066407L.115997318 .42765809C.08898926 .42765809 .04899597 .4286499 .018997193 .43066407V.3996582C.066986087 .3996582 .085998538 .3996582 .099990848 .36468507L.25-.000091552738 .22499085-.059066774C.20298767-.11407471 .1749878-.18309021 .11099243-.18309021 .10598755-.18309021 .08299255-.18309021 .06399536-.16503906 .09498596-.16104126 .102996829-.13905335 .102996829-.123046878 .102996829-.0970459 .083999637-.08103943 .06098938-.08103943 .040985109-.08103943 .018997193-.09403992 .018997193-.124053958 .018997193-.16905213 .06098938-.20507813 .11099243-.20507813 .17399597-.20507813 .21499634-.14804077 .23899842-.091049198L.4149933 .33569337C.44099427 .39865113 .49198915 .3996582 .5079956 .3996582Z"/>
</defs>
<path transform="matrix(1.00005,0,0,-1.00005,200.53107,200.2332)" stroke-width=".3985" stroke-linecap="butt" stroke-miterlimit="10" stroke-linejoin="miter" fill="none" stroke="#cccccc" d="M-198.42766-198.42766H198.42766M-198.42766-170.08086H198.42766M-198.42766-141.73404H198.42766M-198.42766-113.38724H198.42766M-198.42766-85.04042H198.42766M-198.42766-56.69362H198.42766M-198.42766-28.3468H198.42766M-198.42766 0H198.42766M-198.42766 28.3468H198.42766M-198.42766 56.69362H198.42766M-198.42766 85.04042H198.42766M-198.42766 113.38724H198.42766M-198.42766 141.73404H198.42766M-198.42766 170.08086H198.42766M-198.42766 198.41771H198.42766M-198.42766-198.42766V198.42766M-170.08086-198.42766V198.42766M-141.73404-198.42766V198.42766M-113.38724-198.42766V198.42766M-85.04042-198.42766V198.42766M-56.69362-198.42766V198.42766M-28.3468-198.42766V198.42766M0-198.42766V198.42766M28.3468-198.42766V198.42766M56.69362-198.42766V198.42766M85.04042-198.42766V198.42766M113.38724-198.42766V198.42766M141.73404-198.42766V198.42766M170.08086-198.42766V198.42766M198.41771-198.42766V198.42766M198.42766 198.42766"/>
<path transform="matrix(1.00005,0,0,-1.00005,200.53107,200.2332)" stroke-width=".99628" stroke-linecap="butt" stroke-dasharray="2.98883,2.98883" stroke-miterlimit="10" stroke-linejoin="miter" fill="none" stroke="#000000" d="M-170.08086 141.73404 167.86139-139.8845"/>
<path transform="matrix(.7682284,.64018198,.64018198,-.7682284,368.40083,340.1247)" d="M2.8892 0-1.73352 2.31136 0 0-1.73352-2.31136"/>
<use data-text="A" xlink:href="#font_1_27" transform="matrix(7.653552,6.3778769,6.3778769,-7.653552,244.45673,229.19596)"/>
<use data-text="p" xlink:href="#font_1_84" transform="matrix(7.653552,6.3778769,6.3778769,-7.653552,250.1969,233.97934)"/>
<use data-text="p" xlink:href="#font_1_84" transform="matrix(7.653552,6.3778769,6.3778769,-7.653552,254.45227,237.52548)"/>
<use data-text="a" xlink:href="#font_1_28" transform="matrix(7.653552,6.3778769,6.3778769,-7.653552,258.70768,241.07157)"/>
<use data-text="r" xlink:href="#font_1_96" transform="matrix(7.653552,6.3778769,6.3778769,-7.653552,262.53443,244.2605)"/>
<use data-text="e" xlink:href="#font_1_50" transform="matrix(7.653552,6.3778769,6.3778769,-7.653552,265.53465,246.76062)"/>
<use data-text="n" xlink:href="#font_1_77" transform="matrix(7.653552,6.3778769,6.3778769,-7.653552,268.9328,249.5924)"/>
<use data-text="t" xlink:href="#font_1_105" transform="matrix(7.653552,6.3778769,6.3778769,-7.653552,272.98155,252.96631)"/>
<use data-text="H" xlink:href="#font_1_62" transform="matrix(7.653552,6.3778769,6.3778769,-7.653552,278.49977,257.5648)"/>
<use data-text="e" xlink:href="#font_1_50" transform="matrix(7.653552,6.3778769,6.3778769,-7.653552,284.23994,262.34819)"/>
<use data-text="a" xlink:href="#font_1_28" transform="matrix(7.653552,6.3778769,6.3778769,-7.653552,287.63813,265.17997)"/>
<use data-text="d" xlink:href="#font_1_47" transform="matrix(7.653552,6.3778769,6.3778769,-7.653552,291.4649,268.3689)"/>
<use data-text="i" xlink:href="#font_1_66" transform="matrix(7.653552,6.3778769,6.3778769,-7.653552,295.72029,271.915)"/>
<use data-text="n" xlink:href="#font_1_77" transform="matrix(7.653552,6.3778769,6.3778769,-7.653552,297.84797,273.68806)"/>
<use data-text="g" xlink:href="#font_1_59" transform="matrix(7.653552,6.3778769,6.3778769,-7.653552,302.10334,277.23417)"/>
<use data-text="o" xlink:href="#font_1_81" transform="matrix(7.653552,6.3778769,6.3778769,-7.653552,308.47877,282.5469)"/>
<use data-text="f" xlink:href="#font_1_55" transform="matrix(7.653552,6.3778769,6.3778769,-7.653552,312.30549,285.73585)"/>
<use data-text="W" xlink:href="#font_1_113" transform="matrix(7.653552,6.3778769,6.3778769,-7.653552,317.1961,289.8113)"/>
<use data-text="a" xlink:href="#font_1_28" transform="matrix(7.653552,6.3778769,6.3778769,-7.653552,324.4364,295.84477)"/>
<use data-text="&#x2018;" xlink:href="#font_1_501" transform="matrix(7.653552,6.3778769,6.3778769,-7.653552,328.26313,299.03373)"/>
<use data-text="a" xlink:href="#font_1_28" transform="matrix(7.653552,6.3778769,6.3778769,-7.653552,330.3908,300.80674)"/>
<path transform="matrix(1.00005,0,0,-1.00005,200.53107,200.2332)" stroke-width=".99628" stroke-linecap="butt" stroke-miterlimit="10" stroke-linejoin="miter" fill="none" stroke="#0000ff" d="M0 0C-.55687 1.11378-3.06288 .5569-3.61978 1.67068-4.02295 2.47707-3.28339 3.71558-2.50598 5.01204-1.72856 6.30846-.98898 7.547-1.39218 8.3534-1.79535 9.15976-3.2299 9.31123-4.73352 9.4672-6.2371 9.62314-7.67169 9.77461-8.07487 10.581-8.47804 11.38737-7.73848 12.62587-6.96107 13.92235-6.18365 15.21877-5.44408 16.4573-5.84726 17.26369-6.25044 18.07007-7.685 18.22154-9.18861 18.3775-10.6922 18.53343-12.12679 18.6849-12.52997 19.4913-12.93314 20.29767-12.19357 21.53618-11.41617 22.83266-10.63875 24.12907-9.89917 25.36761-10.30235 26.174-10.70554 26.98038-12.14009 27.13185-13.6437 27.2878-15.1473 27.44374-16.58186 27.59521-16.98506 28.40161-17.38823 29.20798-16.64867 30.44649-15.87125 31.74295-15.09384 33.03938-14.35426 34.27791-14.75745 35.0843-15.16061 35.89067-16.59518 36.04214-18.0988 36.1981-19.60239 36.35405-21.03696 36.50552-21.44016 37.3119-21.84332 38.11829-21.10376 39.3568-20.32634 40.65326-19.54893 41.94969-18.80936 43.18822-19.21254 43.99461-19.6157 44.80098-21.05028 44.95245-22.5539 45.10841-24.05748 45.26436-25.49205 45.41583-25.89523 46.22221-26.29842 47.0286-25.55885 48.26709-24.78143 49.56357-24.00403 50.85999-23.26445 52.09853-23.66763 52.9049-24.0708 53.71129-25.50537 53.86276-27.00899 54.01872-28.51256 54.17465-29.94714 54.32613-30.35033 55.13252-30.75351 55.93889-30.01395 57.1774-29.23653 58.47388-28.45912 59.7703-27.71954 61.00883-28.12273 61.81522-28.5259 62.6216-29.96046 62.77307-31.46408 62.92902-32.96765 63.08496-34.40224 63.23643-34.80542 64.04283-35.20859 64.8492-34.46904 66.0877-33.69162 67.38417-32.9142 68.6806-32.17464 69.91913-32.57782 70.72552-32.98099 71.53189-34.41556 71.68336-35.91916 71.83932-37.42274 71.99527-38.85733 72.14674-39.26051 72.95313-39.66368 73.7595-38.92413 74.99802-38.14671 76.29448-37.3693 77.59091-36.62971 78.82944-37.03291 79.63583-37.43608 80.4422-38.87065 80.59367-40.37425 80.74963-41.87784 80.90558-43.31242 81.05705-43.7156 81.86343-44.11877 82.66982-43.37921 83.90831-42.6018 85.20479-41.82439 86.5012-41.08481 87.73975-41.488 88.54614-41.89117 89.35251-43.32574 89.50398-44.82935 89.65994-46.33293 89.81589-47.76752 89.96735-48.1707 90.77374-48.57387 91.58011-47.8343 92.81862-47.0569 94.1151-46.27948 95.41151-45.5399 96.65005-45.94308 97.45644-46.34627 98.26282-47.78082 98.41429-49.28444 98.57024-50.78802 98.72618-52.22261 98.87766-52.6258 99.68405-53.02896 100.49042-52.2894 101.72893-51.512 103.02539-50.73457 104.32182-49.995 105.56036-50.39818 106.36674-50.80136 107.17313-52.23592 107.32458-53.73953 107.48055-55.24312 107.63649-56.67769 107.78796-57.08089 108.59435-57.48405 109.40073-56.74449 110.63924-55.96707 111.9357-55.18967 113.23213-54.45009 114.47066-54.85327 115.27705-55.25645 116.08342-56.69101 116.2349-58.19463 116.39085-59.69821 116.5468-61.13278 116.69827-61.53598 117.50465-61.93915 118.31104-61.19958 119.54953-60.42216 120.84601-59.64476 122.14243-58.90518 123.38097-59.30836 124.18736-59.71153 124.99373-61.1461 125.1452-62.64972 125.30116-64.1533 125.4571-65.58788 125.60857-65.99107 126.41496-66.39424 127.22133-65.65468 128.45984-64.87726 129.75632-64.09985 131.05274-63.36028 132.29128-63.76346 133.09766-64.16663 133.90404-65.6012 134.05551-67.10481 134.21147-68.60838 134.3674-70.04297 134.51888-70.44615 135.32527-70.84933 136.13164-70.10977 137.37015-69.33235 138.66661-68.55495 139.96305-67.81537 141.20159-68.21855 142.00797-68.62172 142.81435-70.05629 142.9658-71.5599 143.12177-73.06348 143.27771-74.49806 143.42919-74.90125 144.23557-75.30443 145.04195-74.56487 146.28046-73.78745 147.57692-73.01003 148.87335-72.27046 150.11188-72.67365 150.91828-73.07681 151.72464-74.51138 151.87612-76.015 152.03208-77.51857 152.18802-78.95316 152.3395-79.35634 153.14588-79.7595 153.95226-79.01996 155.19075-78.24254 156.48723-77.46512 157.78365-76.72556 159.02219-77.12874 159.82859-77.5319 160.63495-78.96648 160.78643-80.47008 160.94239-81.97366 161.09833-83.40825 161.2498-83.81143 162.05619-84.36832 163.17052-82.41917 164.84119-82.97607 165.95497L-83.74762 167.49698"/>
<path transform="matrix(-.44744236,-.89430466,-.89430466,.44744236,116.77927,32.727876)" d="M2.8892 0-1.73352 2.31136 0 0-1.73352-2.31136" fill="#0000ff"/>
<use data-text="W" xlink:href="#font_1_113" transform="matrix(4.4606778,8.908006,8.908006,-4.4606778,120.806,31.75)"/>
<use data-text="a" xlink:href="#font_1_28" transform="matrix(4.4606778,8.908006,8.908006,-4.4606778,125.02133,40.16809)"/>
<use data-text="k" xlink:href="#font_1_70" transform="matrix(4.4606778,8.908006,8.908006,-4.4606778,127.25166,44.62207)"/>
<use data-text="e" xlink:href="#font_1_50" transform="matrix(4.4606778,8.908006,8.908006,-4.4606778,129.482,49.07605)"/>
<use data-text="o" xlink:href="#font_1_81" transform="matrix(4.4606778,8.908006,8.908006,-4.4606778,132.94795,55.99756)"/>
<use data-text="f" xlink:href="#font_1_55" transform="matrix(4.4606778,8.908006,8.908006,-4.4606778,135.17829,60.4516)"/>
<use data-text="W" xlink:href="#font_1_113" transform="matrix(4.4606778,8.908006,8.908006,-4.4606778,138.02866,66.1438)"/>
<use data-text="a" xlink:href="#font_1_28" transform="matrix(4.4606778,8.908006,8.908006,-4.4606778,142.24846,74.57074)"/>
<use data-text="&#x2018;" xlink:href="#font_1_501" transform="matrix(4.4606778,8.908006,8.908006,-4.4606778,144.47879,79.02478)"/>
<use data-text="a" xlink:href="#font_1_28" transform="matrix(4.4606778,8.908006,8.908006,-4.4606778,145.71886,81.50116)"/>
<path transform="matrix(1.00005,0,0,-1.00005,200.53107,200.2332)" stroke-width=".99628" stroke-linecap="butt" stroke-dasharray="2.98883,2.98883" stroke-miterlimit="10" stroke-linejoin="miter" fill="none" stroke="#0000ff" d="M0 0 83.74846-167.49686"/>
<path transform="matrix(.4471923,.89440467,.89440467,-.4471923,284.2837,367.7384)" d="M2.8892 0-1.73352 2.31136 0 0-1.73352-2.31136" fill="#0000ff"/>
<use data-text="A" xlink:href="#font_1_27" transform="matrix(4.455198,8.910596,8.910596,-4.455198,233.75891,291.17878)"/>
<use data-text="c" xlink:href="#font_1_43" transform="matrix(4.455198,8.910596,8.910596,-4.455198,236.98003,297.62117)"/>
<use data-text="t" xlink:href="#font_1_105" transform="matrix(4.455198,8.910596,8.910596,-4.455198,238.95813,301.5775)"/>
<use data-text="u" xlink:href="#font_1_109" transform="matrix(4.455198,8.910596,8.910596,-4.455198,240.69121,305.0437)"/>
<use data-text="a" xlink:href="#font_1_28" transform="matrix(4.455198,8.910596,8.910596,-4.455198,243.1683,309.998)"/>
<use data-text="l" xlink:href="#font_1_72" transform="matrix(4.455198,8.910596,8.910596,-4.455198,245.3959,314.4533)"/>
<use data-text="H" xlink:href="#font_1_62" transform="matrix(4.455198,8.910596,8.910596,-4.455198,248.11357,319.88874)"/>
<use data-text="e" xlink:href="#font_1_50" transform="matrix(4.455198,8.910596,8.910596,-4.455198,251.45497,326.57173)"/>
<use data-text="a" xlink:href="#font_1_28" transform="matrix(4.455198,8.910596,8.910596,-4.455198,253.43308,330.528)"/>
<use data-text="d" xlink:href="#font_1_47" transform="matrix(4.455198,8.910596,8.910596,-4.455198,255.66068,334.98335)"/>
<use data-text="i" xlink:href="#font_1_66" transform="matrix(4.455198,8.910596,8.910596,-4.455198,258.13777,339.93763)"/>
<use data-text="n" xlink:href="#font_1_77" transform="matrix(4.455198,8.910596,8.910596,-4.455198,259.3763,342.41474)"/>
<use data-text="g" xlink:href="#font_1_59" transform="matrix(4.455198,8.910596,8.910596,-4.455198,261.8534,347.36909)"/>
<use data-text="o" xlink:href="#font_1_81" transform="matrix(4.455198,8.910596,8.910596,-4.455198,265.56459,354.79158)"/>
<use data-text="f" xlink:href="#font_1_55" transform="matrix(4.455198,8.910596,8.910596,-4.455198,267.79219,359.24684)"/>
<use data-text="W" xlink:href="#font_1_113" transform="matrix(4.455198,8.910596,8.910596,-4.455198,270.63905,364.94075)"/>
<use data-text="a" xlink:href="#font_1_28" transform="matrix(4.455198,8.910596,8.910596,-4.455198,274.85365,373.37013)"/>
<use data-text="&#x2018;" xlink:href="#font_1_501" transform="matrix(4.455198,8.910596,8.910596,-4.455198,277.08125,377.82545)"/>
<use data-text="a" xlink:href="#font_1_28" transform="matrix(4.455198,8.910596,8.910596,-4.455198,278.3198,380.30256)"/>
<path transform="matrix(1.00005,0,0,-1.00005,200.53107,200.2332)" stroke-width="1.99255" stroke-linecap="butt" stroke-miterlimit="10" stroke-linejoin="miter" fill="none" stroke="#000000" d="M85.04042 28.3468 4.15848 1.38612"/>
<path transform="matrix(-.9486874,.3162258,.3162258,.9486874,204.68978,198.84702)" d="M4.38364 0-2.63017 3.50691 0 0-2.63017-3.50691"/>
<use data-text="W" xlink:href="#font_1_113" transform="matrix(9.451392,-3.1504312,-3.1504312,-9.451392,230.1921,185.565)"/>
<use data-text="i" xlink:href="#font_1_66" transform="matrix(9.451392,-3.1504312,-3.1504312,-9.451392,239.90813,182.32636)"/>
<use data-text="n" xlink:href="#font_1_77" transform="matrix(9.451392,-3.1504312,-3.1504312,-9.451392,242.5356,181.45053)"/>
<use data-text="d" xlink:href="#font_1_47" transform="matrix(9.451392,-3.1504312,-3.1504312,-9.451392,247.79058,179.69889)"/>
<path transform="matrix(1.00005,0,0,-1.00005,200.53107,200.2332)" stroke-width="1.99255" stroke-linecap="butt" stroke-miterlimit="10" stroke-linejoin="miter" fill="none" stroke="#000000" d="M170.08086-141.73404 89.19891-168.69472"/>
<path transform="matrix(-.9486874,.3162258,.3162258,.9486874,289.73445,368.93635)" d="M4.38364 0-2.63017 3.50691 0 0-2.63017-3.50691"/>
<use data-text="L" xlink:href="#font_1_71" transform="matrix(9.451392,-3.1504312,-3.1504312,-9.451392,310.93214,355.16746)"/>
<use data-text="e" xlink:href="#font_1_50" transform="matrix(9.451392,-3.1504312,-3.1504312,-9.451392,316.83927,353.19844)"/>
<use data-text="e" xlink:href="#font_1_50" transform="matrix(9.451392,-3.1504312,-3.1504312,-9.451392,321.03569,351.79963)"/>
<use data-text="w" xlink:href="#font_1_114" transform="matrix(9.451392,-3.1504312,-3.1504312,-9.451392,325.23213,350.40086)"/>
<use data-text="a" xlink:href="#font_1_28" transform="matrix(9.451392,-3.1504312,-3.1504312,-9.451392,331.8008,348.2113)"/>
<use data-text="y" xlink:href="#font_1_118" transform="matrix(9.451392,-3.1504312,-3.1504312,-9.451392,336.26188,346.7243)"/>
<path transform="matrix(1.00005,0,0,-1.00005,200.53107,200.2332)" stroke-width="1.99255" stroke-linecap="butt" stroke-miterlimit="10" stroke-linejoin="miter" fill="none" stroke="#000000" d="M-85.04042 170.08086-165.92237 143.12018"/>
<path transform="matrix(-.9486874,.3162258,.3162258,.9486874,34.600435,57.10588)" d="M4.38364 0-2.63017 3.50691 0 0-2.63017-3.50691"/>
<use data-text="W" xlink:href="#font_1_113" transform="matrix(9.451392,-3.1504312,-3.1504312,-9.451392,60.1026,43.823915)"/>
<use data-text="i" xlink:href="#font_1_66" transform="matrix(9.451392,-3.1504312,-3.1504312,-9.451392,69.818637,40.585275)"/>
<use data-text="n" xlink:href="#font_1_77" transform="matrix(9.451392,-3.1504312,-3.1504312,-9.451392,72.446109,39.709459)"/>
<use data-text="d" xlink:href="#font_1_47" transform="matrix(9.451392,-3.1504312,-3.1504312,-9.451392,77.70108,37.95781)"/>
<path transform="matrix(1.00005,0,0,-1.00005,200.53107,200.2332)" stroke-width=".3985" stroke-linecap="butt" stroke-miterlimit="10" stroke-linejoin="miter" fill="none" stroke="#000000" d=""/>
<path transform="matrix(1.00005,0,0,-1.00005,200.53107,200.2332)" d="M-16.46735 20.08691-8.84618 15.94977 17.28355-5.82483 22.72725-12.57498 15.10608-8.43782-11.02365 13.33678Z" fill="#993300" fill-opacity=".1"/>
<path transform="matrix(1.00005,0,0,-1.00005,200.53107,200.2332)" d="M-22.72725 12.57498-17.28355 5.82483 8.84618-15.94977 16.46735-20.08691 11.02365-13.33678-15.10608 8.43782Z" fill="#993300" fill-opacity=".1"/>
<path transform="matrix(1.00005,0,0,-1.00005,200.53107,200.2332)" d="M-11.02365 13.33678-15.10608 8.43782 7.75743-10.61494 11.83986-5.71599Z" fill="#993300" fill-opacity=".04"/>
<path transform="matrix(1.00005,0,0,-1.00005,200.53107,200.2332)" d="M10.47894-7.34909 9.11833-8.98184 14.01767-13.06459 15.37828-11.43184Z" fill="#993300" fill-opacity=".1"/>
<path transform="matrix(1.00005,0,0,-1.00005,200.53107,200.2332)" stroke-width=".3985" stroke-linecap="butt" stroke-miterlimit="10" stroke-linejoin="miter" fill="none" stroke="#993300" d="M22.72725-12.57498 17.28355-5.82483"/>
<path transform="matrix(1.00005,0,0,-1.00005,200.53107,200.2332)" stroke-width=".3985" stroke-linecap="butt" stroke-miterlimit="10" stroke-linejoin="miter" fill="none" stroke="#993300" d="M17.28355-5.82483-8.84618 15.94977"/>
<path transform="matrix(1.00005,0,0,-1.00005,200.53107,200.2332)" stroke-width=".3985" stroke-linecap="butt" stroke-miterlimit="10" stroke-linejoin="miter" fill="none" stroke="#993300" d="M-8.84618 15.94977-16.46735 20.08691"/>
<path transform="matrix(1.00005,0,0,-1.00005,200.53107,200.2332)" stroke-width=".3985" stroke-linecap="butt" stroke-miterlimit="10" stroke-linejoin="miter" fill="none" stroke="#993300" d="M-16.46735 20.08691-11.02365 13.33678"/>
<path transform="matrix(1.00005,0,0,-1.00005,200.53107,200.2332)" stroke-width=".3985" stroke-linecap="butt" stroke-miterlimit="10" stroke-linejoin="miter" fill="none" stroke="#993300" d="M-11.02365 13.33678 15.10608-8.43782"/>
<path transform="matrix(1.00005,0,0,-1.00005,200.53107,200.2332)" stroke-width=".3985" stroke-linecap="butt" stroke-miterlimit="10" stroke-linejoin="miter" fill="none" stroke="#993300" d="M15.10608-8.43782 22.72725-12.57498"/>
<path transform="matrix(1.00005,0,0,-1.00005,200.53107,200.2332)" stroke-width=".3985" stroke-linecap="butt" stroke-miterlimit="10" stroke-linejoin="miter" fill="none" stroke="#993300" d="M16.46735-20.08691 8.84618-15.94977"/>
<path transform="matrix(1.00005,0,0,-1.00005,200.53107,200.2332)" stroke-width=".3985" stroke-linecap="butt" stroke-miterlimit="10" stroke-linejoin="miter" fill="none" stroke="#993300" d="M8.84618-15.94977-17.28355 5.82483"/>
<path transform="matrix(1.00005,0,0,-1.00005,200.53107,200.2332)" stroke-width=".3985" stroke-linecap="butt" stroke-miterlimit="10" stroke-linejoin="miter" fill="none" stroke="#993300" d="M-17.28355 5.82483-22.72725 12.57498"/>
<path transform="matrix(1.00005,0,0,-1.00005,200.53107,200.2332)" stroke-width=".3985" stroke-linecap="butt" stroke-miterlimit="10" stroke-linejoin="miter" fill="none" stroke="#993300" d="M-22.72725 12.57498-15.10608 8.43782"/>
<path transform="matrix(1.00005,0,0,-1.00005,200.53107,200.2332)" stroke-width=".3985" stroke-linecap="butt" stroke-miterlimit="10" stroke-linejoin="miter" fill="none" stroke="#993300" d="M-15.10608 8.43782 11.02365-13.33678"/>
<path transform="matrix(1.00005,0,0,-1.00005,200.53107,200.2332)" stroke-width=".3985" stroke-linecap="butt" stroke-miterlimit="10" stroke-linejoin="miter" fill="none" stroke="#993300" d="M11.02365-13.33678 16.46735-20.08691"/>
<path transform="matrix(1.00005,0,0,-1.00005,200.53107,200.2332)" stroke-width=".3985" stroke-linecap="butt" stroke-miterlimit="10" stroke-linejoin="miter" fill="none" stroke="#993300" d="M-11.02365 13.33678-15.10608 8.43782"/>
<path transform="matrix(1.00005,0,0,-1.00005,200.53107,200.2332)" stroke-width=".3985" stroke-linecap="butt" stroke-miterlimit="10" stroke-linejoin="miter" fill="none" stroke="#993300" d="M-15.10608 8.43782 7.75743-10.61494"/>
<path transform="matrix(1.00005,0,0,-1.00005,200.53107,200.2332)" stroke-width=".3985" stroke-linecap="butt" stroke-miterlimit="10" stroke-linejoin="miter" fill="none" stroke="#993300" d="M7.75743-10.61494 11.83986-5.71599"/>
<path transform="matrix(1.00005,0,0,-1.00005,200.53107,200.2332)" stroke-width=".3985" stroke-linecap="butt" stroke-miterlimit="10" stroke-linejoin="miter" fill="none" stroke="#993300" d="M11.83986-5.71599-11.02365 13.33678"/>
<path transform="matrix(1.00005,0,0,-1.00005,200.53107,200.2332)" stroke-width=".3985" stroke-linecap="butt" stroke-miterlimit="10" stroke-linejoin="miter" fill="none" stroke="#993300" d="M10.47894-7.34909 9.11833-8.98184"/>
<path transform="matrix(1.00005,0,0,-1.00005,200.53107,200.2332)" stroke-width=".3985" stroke-linecap="butt" stroke-miterlimit="10" stroke-linejoin="miter" fill="none" stroke="#993300" d="M9.11833-8.98184 14.01767-13.06459"/>
<path transform="matrix(1.00005,0,0,-1.00005,200.53107,200.2332)" stroke-width=".3985" stroke-linecap="butt" stroke-miterlimit="10" stroke-linejoin="miter" fill="none" stroke="#993300" d="M14.01767-13.06459 15.37828-11.43184"/>
<path transform="matrix(1.00005,0,0,-1.00005,200.53107,200.2332)" stroke-width=".3985" stroke-linecap="butt" stroke-miterlimit="10" stroke-linejoin="miter" fill="none" stroke="#993300" d="M15.37828-11.43184 10.47894-7.34909"/>
<path transform="matrix(1.00005,0,0,-1.00005,200.53107,200.2332)" stroke-width=".3985" stroke-linecap="butt" stroke-miterlimit="10" stroke-linejoin="miter" fill="none" stroke="#993300" d="M15.10608-8.43782 11.02365-13.33678"/>
<path transform="matrix(1.00005,0,0,-1.00005,200.53107,200.2332)" stroke-width=".3985" stroke-linecap="butt" stroke-miterlimit="10" stroke-linejoin="miter" fill="none" stroke="#993300" d="M-3.73744 2.1563C-3.42513 1.89604-2.96094 1.93825-2.70068 2.25056-2.44043 2.5629-2.48262 3.02707-2.79495 3.28732-3.10727 3.54759-3.57146 3.50539-3.83171 3.19305-4.09196 2.88074-4.04977 2.41656-3.73744 2.1563ZM-3.2662 2.72182"/>
<path transform="matrix(1.00005,0,0,-1.00005,200.53107,200.2332)" stroke-width=".3985" stroke-linecap="butt" stroke-miterlimit="10" stroke-linejoin="miter" fill="none" stroke="#993300" d="M7.69429-7.37006C8.00662-7.63033 8.4708-7.58812 8.73105-7.2758 8.9913-6.96347 8.94911-6.4993 8.63678-6.23903 8.32446-5.97878 7.86028-6.02098 7.60002-6.3333 7.33977-6.64563 7.38197-7.1098 7.69429-7.37006ZM8.16554-6.80455"/>
<path transform="matrix(1.00005,0,0,-1.00005,200.53107,200.2332)" stroke-width="1.99255" stroke-linecap="butt" stroke-miterlimit="10" stroke-linejoin="miter" fill="none" stroke="#000000" d="M-25.35191 50.70468C-32.34431 47.20891-38.5469 42.29785-43.55136 36.29251"/>
<use data-text="A" xlink:href="#font_1_27" transform="matrix(5.891379,8.034042,8.034042,-5.891379,118.270099,95.90846)"/>
<use data-text="n" xlink:href="#font_1_77" transform="matrix(5.891379,8.034042,8.034042,-5.891379,122.68863,101.933979)"/>
<use data-text="g" xlink:href="#font_1_59" transform="matrix(5.891379,8.034042,8.034042,-5.891379,125.96425,106.400928)"/>
<use data-text="l" xlink:href="#font_1_72" transform="matrix(5.891379,8.034042,8.034042,-5.891379,128.90993,110.41792)"/>
<use data-text="e" xlink:href="#font_1_50" transform="matrix(5.891379,8.034042,8.034042,-5.891379,130.54773,112.65138)"/>
<use data-text="o" xlink:href="#font_1_81" transform="matrix(5.891379,8.034042,8.034042,-5.891379,135.12534,118.893848)"/>
<use data-text="f" xlink:href="#font_1_55" transform="matrix(5.891379,8.034042,8.034042,-5.891379,138.07102,122.91084)"/>
<use data-text="L" xlink:href="#font_1_71" transform="matrix(5.891379,8.034042,8.034042,-5.891379,141.8356,128.04457)"/>
<use data-text="e" xlink:href="#font_1_50" transform="matrix(5.891379,8.034042,8.034042,-5.891379,145.51772,133.06587)"/>
<use data-text="e" xlink:href="#font_1_50" transform="matrix(5.891379,8.034042,8.034042,-5.891379,148.13349,136.63301)"/>
<use data-text="w" xlink:href="#font_1_114" transform="matrix(5.891379,8.034042,8.034042,-5.891379,150.74927,140.20009)"/>
<use data-text="a" xlink:href="#font_1_28" transform="matrix(5.891379,8.034042,8.034042,-5.891379,154.84377,145.78377)"/>
<use data-text="y" xlink:href="#font_1_118" transform="matrix(5.891379,8.034042,8.034042,-5.891379,157.6245,149.57582)"/>
</svg>
