<svg xmlns="http://www.w3.org/2000/svg" xmlns:xlink="http://www.w3.org/1999/xlink" version="1.1" width="257" height="165" viewBox="0 0 257 165">
<defs>
<path id="font_1_1" d="M.6589966 .23046875C.6759949 .23046875 .69400027 .23046875 .69400027 .25045777 .69400027 .27046205 .6759949 .27046205 .6589966 .27046205H.117996219C.100997928 .27046205 .08299255 .27046205 .08299255 .25045777 .08299255 .23046875 .100997928 .23046875 .117996219 .23046875H.6589966Z"/>
<path id="font_2_4" d="M.1269989 .07699585 .23298645 .18003845C.3889923 .31811524 .44898988 .3721466 .44898988 .47216798 .44898988 .5860901 .35899354 .6660156 .23699951 .6660156 .12399292 .6660156 .049987794 .57411196 .049987794 .48516847 .049987794 .4291687 .099990848 .4291687 .102996829 .4291687 .11999512 .4291687 .15499878 .44117738 .15499878 .48217774 .15499878 .5081787 .13699341 .5341797 .101989749 .5341797 .09399414 .5341797 .09199524 .5341797 .08898926 .5331726 .11199951 .59806826 .1659851 .63500979 .22399903 .63500979 .31498719 .63500979 .35798646 .5541382 .35798646 .47216798 .35798646 .39215089 .30799867 .31311036 .25299073 .25108338L.06098938 .036987306C.049987794 .025985718 .049987794 .023986817 .049987794 0H.42099L.44898988 .17404175H.42399598C.4189911 .14402771 .4119873 .1000061 .4019928 .084991458 .394989 .07699585 .32899476 .07699585 .30699159 .07699585H.1269989Z"/>
<path id="font_3_1" d="M.2649994 .37265016H.37799073C.34498597 .22489929 .33599855 .18196106 .33599855 .11508179 .33599855 .100097659 .33599855 .073150638 .34399415 .03919983 .35398866-.0047454836 .36499024-.0107421879 .37998963-.0107421879 .3999939-.0107421879 .42099 .007247925 .42099 .02722168 .42099 .033218385 .42099 .035202028 .4149933 .049179079 .38598634 .12106323 .38598634 .18595886 .38598634 .21391297 .38598634 .26683045 .3929901 .32073976 .4039917 .37265016H.5179901C.5309906 .37265016 .5669861 .37265016 .5669861 .406662 .5669861 .43066407 .54599 .43066407 .5269928 .43066407H.19198609C.16999817 .43066407 .13198853 .43066407 .08799744 .38365174 .052993776 .34469605 .026992798 .29878236 .026992798 .29379273 .026992798 .29278565 .026992798 .28379823 .038986207 .28379823 .04699707 .28379823 .04899597 .28779603 .054992677 .29577638 .10398865 .37265016 .1619873 .37265016 .18199158 .37265016H.23899842C.20698548 .25186158 .15299988 .13105774 .11099243 .04020691 .102996829 .025222779 .102996829 .023223877 .102996829 .016235352 .102996829-.002746582 .11898804-.0107421879 .13198853-.0107421879 .1619873-.0107421879 .16999817 .017242432 .18199158 .05418396 .19599915 .100097659 .19599915 .10209656 .20899964 .15202332L.2649994 .37265016Z"/>
<path id="font_2_5" d="M.2899933 .35191346C.37199403 .37893678 .42999269 .4490509 .42999269 .52809146 .42999269 .6100464 .34199525 .6660156 .24598694 .6660156 .14498902 .6660156 .068984989 .60606387 .068984989 .53009036 .068984989 .49710084 .09098816 .47808839 .11999512 .47808839 .15098572 .47808839 .17098999 .50009158 .17098999 .5290985 .17098999 .57910159 .12399292 .57910159 .10899353 .57910159 .13999939 .62802127 .20599365 .64100649 .24198914 .64100649 .2829895 .64100649 .33799745 .6190338 .33799745 .5290985 .33799745 .51708987 .33599855 .45906068 .30999757 .4149933 .27999879 .36691285 .24598694 .36390687 .22099304 .36291505 .21299744 .36190797 .18899536 .35990907 .18199158 .35990907 .17399597 .35890199 .16699219 .35791017 .16699219 .3479004 .16699219 .33691407 .17399597 .33691407 .19099427 .33691407H.23498535C.31698609 .33691407 .35398866 .2686615 .35398866 .17037964 .35398866 .034469606 .2849884 .0055389406 .24099732 .0055389406 .19799805 .0055389406 .12298584 .022491456 .08799744 .08137512 .12298584 .07637024 .1539917 .09837341 .1539917 .1363678 .1539917 .17237854 .1269989 .19238281 .09799194 .19238281 .07398987 .19238281 .041992189 .17837525 .041992189 .1343689 .041992189 .043441774 .1349945-.022460938 .24398804-.022460938 .3659973-.022460938 .45700074 .06838989 .45700074 .17037964 .45700074 .252594 .3939972 .33088685 .2899933 .35191346Z"/>
<path id="font_2_3" d="M.2939911 .64004519C.2939911 .66400149 .2939911 .6660156 .2709961 .6660156 .20899964 .60227969 .12098694 .60227969 .08898926 .60227969V.57128909C.10899353 .57128909 .16799927 .57128909 .21998596 .5972748V.07902527C.21998596 .042999269 .21699524 .0309906 .1269989 .0309906H.09498596V0C.12998963 .0029907227 .21699524 .0029907227 .25698854 .0029907227 .29699708 .0029907227 .38398744 .0029907227 .4189911 0V.0309906H.3869934C.29699708 .0309906 .2939911 .041992189 .2939911 .07902527V.64004519Z"/>
<path id="font_3_3" d="M.48599244 .38136292C.48999024 .39537049 .48999024 .39736939 .48999024 .40437318 .48999024 .42237855 .47599793 .43138124 .46099855 .43138124 .45098878 .43138124 .43499757 .42536927 .42599488 .41036988 .42399598 .405365 .41600038 .37435914 .4119873 .35635377 .40499879 .33035279 .397995 .30334474 .3919983 .27633668L.34700013 .09628296C.34298707 .08126831 .2999878 .011245728 .23399353 .011245728 .18299866 .011245728 .17199707 .055267335 .17199707 .0922699 .17199707 .1382904 .18899536 .20030213 .22299195 .28833009 .23899842 .3293457 .24299622 .3403473 .24299622 .36035157 .24299622 .405365 .21099854 .4423828 .16099549 .4423828 .06599426 .4423828 .0289917 .29733277 .0289917 .28833009 .0289917 .27833558 .038986207 .27833558 .040985109 .27833558 .050994874 .27833558 .051986696 .28033448 .056991579 .29634095 .083999637 .3903656 .12399292 .42037965 .1579895 .42037965 .1659851 .42037965 .18299866 .42037965 .18299866 .3883667 .18299866 .36335755 .17298889 .3373413 .1659851 .31834413 .12599182 .21231079 .10798645 .1552887 .10798645 .10827637 .10798645 .019256592 .17098999-.0107421879 .22999573-.0107421879 .2689972-.0107421879 .30299378 .0062561037 .33099366 .03425598 .31799317-.017745972 .30599977-.06674194 .2659912-.11973572 .23999024-.15385437 .20199585-.18309021 .1559906-.18309021 .14199829-.18309021 .09700012-.18005371 .07998657-.14074707 .09599304-.14074707 .10899353-.14074707 .12298584-.1287384 .1329956-.11973572 .14299011-.10673523 .14299011-.08773804 .14299011-.056747438 .115997318-.052734376 .10598755-.052734376 .08299255-.052734376 .049987794-.068740848 .049987794-.11773682 .049987794-.16796875 .09399414-.20507813 .1559906-.20507813 .25898744-.20507813 .3619995-.11373901 .3899994-.00074768069L.48599244 .38136292Z"/>
<path id="font_2_6" d="M.68699648 .32714845C.70199587 .32714845 .72099307 .32714845 .72099307 .34713746 .72099307 .36714173 .70199587 .36714173 .6879883 .36714173H.08898926C.07499695 .36714173 .055999757 .36714173 .055999757 .34713746 .055999757 .32714845 .07499695 .32714845 .08999634 .32714845H.68699648M.6879883 .13284302C.70199587 .13284302 .72099307 .13284302 .72099307 .15284729 .72099307 .17285156 .70199587 .17285156 .68699648 .17285156H.08999634C.07499695 .17285156 .055999757 .17285156 .055999757 .15284729 .055999757 .13284302 .07499695 .13284302 .08898926 .13284302H.6879883Z"/>
<path id="font_2_7" d="M.116989139 .21801758C.116989139 .38093568 .19898987 .42323304 .2519989 .42323304 .26098634 .42323304 .32398988 .42222596 .35899354 .38594056 .31799317 .38293458 .31199647 .3529358 .31199647 .3399353 .31199647 .31393434 .32998658 .2939453 .35798646 .2939453 .38398744 .2939453 .4039917 .3109436 .4039917 .34094239 .4039917 .40911866 .32798768 .4482422 .25099183 .4482422 .12599182 .4482422 .033996583 .3399353 .033996583 .21601868 .033996583 .08816528 .1329956-.0107421879 .24899292-.0107421879 .3829956-.0107421879 .4149933 .10914612 .4149933 .119140628 .4149933 .12911988 .40499879 .12911988 .4019928 .12911988 .3929901 .12911988 .3909912 .12512207 .3889923 .119140628 .3600006 .026229859 .29499818 .014251709 .2579956 .014251709 .20498657 .014251709 .116989139 .0572052 .116989139 .21801758Z"/>
<path id="font_2_8" d="M.47099305 .21424866C.47099305 .34223939 .37098695 .4482422 .25 .4482422 .125 .4482422 .027999878 .3392334 .027999878 .21424866 .027999878 .085250858 .13198853-.0107421879 .24899292-.0107421879 .36999513-.0107421879 .47099305 .087249759 .47099305 .21424866M.25 .014251709C.20698548 .014251709 .16299439 .035247804 .13598633 .08125305 .11099243 .12524414 .11099243 .18624878 .11099243 .22224427 .11099243 .26124574 .11099243 .31523133 .1349945 .35923768 .1619873 .40522767 .20899964 .426239 .24899292 .426239 .29299928 .426239 .33599855 .40423585 .3619995 .36123658 .3880005 .3182373 .3880005 .26023866 .3880005 .22224427 .3880005 .18624878 .3880005 .13224793 .3659973 .08824158 .34399415 .04324341 .2999878 .014251709 .25 .014251709Z"/>
<path id="font_2_9" d="M.20799256 .19424439C.22999573 .19024658 .31199647 .17424011 .31199647 .102249149 .31199647 .051254274 .2769928 .011245728 .19898987 .011245728 .114990238 .011245728 .07899475 .06825256 .05999756 .15324402 .056991579 .1662445 .055999757 .17024231 .04598999 .17024231 .032989503 .17024231 .032989503 .16323853 .032989503 .14524842V.013244629C.032989503-.003753662 .032989503-.0107421879 .04399109-.0107421879 .04899597-.0107421879 .049987794-.009750366 .068984989 .009246826 .070999149 .011245728 .070999149 .013244629 .08898926 .03224182 .1329956-.009750366 .17799378-.0107421879 .19898987-.0107421879 .31399537-.0107421879 .3600006 .056243898 .3600006 .12825012 .3600006 .1812439 .32998658 .21124268 .31799317 .22323609 .2849884 .25523377 .24598694 .26324464 .20399475 .27124024 .147995 .28224183 .08099365 .2952423 .08099365 .35324098 .08099365 .38822938 .10699463 .42922975 .19299317 .42922975 .30299378 .42922975 .30799867 .3392334 .30999757 .3082428 .31098939 .2992401 .31999208 .2992401 .32199098 .2992401 .33499146 .2992401 .33499146 .304245 .33499146 .3232422V.4242401C.33499146 .4412384 .33499146 .4482422 .32398988 .4482422 .31900025 .4482422 .31698609 .4482422 .3039856 .43623353 .30099488 .43223573 .29100038 .42323304 .2869873 .42022706 .24899292 .4482422 .20799256 .4482422 .19299317 .4482422 .070999149 .4482422 .032989503 .38124085 .032989503 .3252411 .032989503 .29023744 .04899597 .26223756 .07598877 .24023438 .10798645 .21424866 .13598633 .2082367 .20799256 .19424439Z"/>
<path id="font_3_2" d="M.33399964 .30233766C.33999635 .32835389 .36299134 .42037965 .43299867 .42037965 .43798829 .42037965 .46199037 .42037965 .48298646 .40734864 .45498658 .402359 .43499757 .37734986 .43499757 .35334779 .43499757 .33735658 .44599916 .31835938 .47299195 .31835938 .49499513 .31835938 .5269928 .3363495 .5269928 .37635804 .5269928 .42837525 .46798707 .4423828 .43399049 .4423828 .37599183 .4423828 .34098817 .38935853 .32899476 .36634828 .3039856 .43237306 .25 .4423828 .22099304 .4423828 .116989139 .4423828 .05999756 .3133545 .05999756 .28834535 .05999756 .27833558 .069992069 .27833558 .07199097 .27833558 .07998657 .27833558 .08299255 .28033448 .084991458 .28933717 .11898804 .39535523 .18499756 .42037965 .21899414 .42037965 .23799134 .42037965 .272995 .4113617 .272995 .35334779 .272995 .32235719 .2559967 .25532533 .21899414 .11528015 .20298767 .053268434 .16799927 .011245728 .12399292 .011245728 .117996219 .011245728 .09498596 .011245728 .07398987 .024276734 .09899902 .029266358 .12098694 .05027771 .12098694 .07827759 .12098694 .105270389 .09899902 .11328125 .083999637 .11328125 .053985597 .11328125 .0289917 .08728027 .0289917 .055267335 .0289917 .009246826 .07899475-.0107421879 .12298584-.0107421879 .18899536-.0107421879 .22499085 .059280397 .22799683 .0652771 .23999024 .028274537 .27598573-.0107421879 .33599855-.0107421879 .43899537-.0107421879 .49598695 .118270877 .49598695 .14328003 .49598695 .1532898 .4869995 .1532898 .48399354 .1532898 .47499085 .1532898 .47299195 .14929199 .47099305 .14228821 .43798829 .03527832 .36999513 .011245728 .33799745 .011245728 .29899598 .011245728 .2829895 .043273927 .2829895 .07727051 .2829895 .09927368 .2889862 .121276859 .2999878 .16529846L.33399964 .30233766Z"/>
<path id="font_2_1" d="M.33099366-.2400055C.33099366-.23701477 .33099366-.23500061 .31399537-.21800232 .18899536-.0920105 .15699768 .09700012 .15699768 .25 .15699768 .42399598 .19499207 .59799197 .31799317 .72299197 .33099366 .73498538 .33099366 .7369995 .33099366 .73999026 .33099366 .746994 .32699586 .75 .32099916 .75 .31098939 .75 .22099304 .6819916 .1619873 .5549927 .11099243 .44499208 .09899902 .33399964 .09899902 .25 .09899902 .17199707 .10998535 .050994874 .16499329-.06201172 .22499085-.18501282 .31098939-.25 .32099916-.25 .32699586-.25 .33099366-.24700928 .33099366-.2400055Z"/>
<path id="font_2_2" d="M.2889862 .25C.2889862 .32798768 .27799989 .44898988 .22299195 .56199648 .16299439 .68499758 .07699585 .75 .066986087 .75 .06098938 .75 .056991579 .74598696 .056991579 .73999026 .056991579 .7369995 .056991579 .73498538 .07598877 .71699526 .17399597 .6179962 .23098755 .45899964 .23098755 .25 .23098755 .07899475 .19400025-.09700012 .069992069-.2230072 .056991579-.23500061 .056991579-.23701477 .056991579-.2400055 .056991579-.2460022 .06098938-.25 .066986087-.25 .07699585-.25 .16699219-.18200684 .22599793-.055007936 .2769928 .054992677 .2889862 .16600037 .2889862 .25Z"/>
</defs>
<path transform="matrix(1.00003,0,0,-1.00003,3.786705,163.19641)" stroke-width=".19925" stroke-linecap="butt" stroke-miterlimit="10" stroke-linejoin="miter" fill="none" stroke="#929292" d="M5.814 78.57089V82.82301M42.34439 78.57089V82.82301M115.40523 78.57089V82.82301M151.93566 78.57089V82.82301M188.46607 78.57089V82.82301"/>
<path transform="matrix(1.00003,0,0,-1.00003,3.786705,163.19641)" stroke-width=".19925" stroke-linecap="butt" stroke-miterlimit="10" stroke-linejoin="miter" fill="none" stroke="#929292" d="M77.45732 47.07323H80.29231M77.45732 114.3207H80.29231"/>
<path transform="matrix(1.00003,0,0,-1.00003,3.786705,163.19641)" stroke-width=".19925" stroke-linecap="butt" stroke-miterlimit="10" stroke-linejoin="miter" fill="none" stroke="#929292" d="M76.7488 13.4495H81.00082M76.7488 147.94443H81.00082"/>
<path transform="matrix(1.00003,0,0,-1.00003,3.786705,163.19641)" stroke-width=".3985" stroke-linecap="butt" stroke-miterlimit="10" stroke-linejoin="miter" fill="none" stroke="#000000" d="M0 80.69696H192.28754"/>
<path transform="matrix(1.00003,0,0,-1.00003,196.08002,82.497028)" d="M1.99252 0-1.19551 1.59401 0 0-1.19551-1.59401"/>
<path transform="matrix(1.00003,0,0,-1.00003,3.786705,163.19641)" stroke-width=".3985" stroke-linecap="butt" stroke-miterlimit="10" stroke-linejoin="miter" fill="none" stroke="#000000" d="M78.87482 0V159.4014"/>
<path transform="matrix(0,-1.00003,-1.00003,-0,82.663898,3.7902222)" d="M1.99252 0-1.19551 1.59401 0 0-1.19551-1.59401"/>
<use data-text="&#x2212;" xlink:href="#font_1_1" transform="matrix(9.962899,0,0,-9.962899,.21759796,94.563358)"/>
<use data-text="2" xlink:href="#font_2_4" transform="matrix(9.962899,0,0,-9.962899,7.9668276,94.563358)"/>
<use data-text="&#x03c0;" xlink:href="#font_3_1" transform="matrix(9.962899,0,0,-9.962899,12.947983,94.563358)"/>
<use data-text="&#x2212;" xlink:href="#font_1_1" transform="matrix(9.962899,0,0,-9.962899,39.23977,93.95533)"/>
<use data-text="&#x03c0;" xlink:href="#font_3_1" transform="matrix(9.962899,0,0,-9.962899,46.989,93.95533)"/>
<use data-text="&#x03c0;" xlink:href="#font_3_1" transform="matrix(9.962899,0,0,-9.962899,116.177089,92.43228)"/>
<use data-text="2" xlink:href="#font_2_4" transform="matrix(9.962899,0,0,-9.962899,150.21811,94.563358)"/>
<use data-text="&#x03c0;" xlink:href="#font_3_1" transform="matrix(9.962899,0,0,-9.962899,155.20026,94.563358)"/>
<use data-text="3" xlink:href="#font_2_5" transform="matrix(9.962899,0,0,-9.962899,186.7492,94.563358)"/>
<use data-text="&#x03c0;" xlink:href="#font_3_1" transform="matrix(9.962899,0,0,-9.962899,191.73136,94.563358)"/>
<use data-text="&#x2212;" xlink:href="#font_1_1" transform="matrix(9.962899,0,0,-9.962899,64.28752,152.54209)"/>
<use data-text="1" xlink:href="#font_2_3" transform="matrix(9.962899,0,0,-9.962899,72.03675,152.54209)"/>
<use data-text="1" xlink:href="#font_2_3" transform="matrix(9.962899,0,0,-9.962899,72.03676,18.458069)"/>
<path transform="matrix(1.00003,0,0,-1.00003,3.786705,163.19641)" stroke-width=".99628" stroke-linecap="butt" stroke-miterlimit="10" stroke-linejoin="miter" fill="none" stroke="#0000ff" stroke-opacity=".5" d="M1.05197 142.39936 .97624 142.20554 1.9525 144.27002 2.92877 145.88329 3.90503 147.03658 4.8813 147.72454 5.85756 147.94106 6.83383 147.6835 7.81009 146.95455 8.78636 145.75687 9.76262 144.10056 10.73888 141.99907 11.71513 139.46652 12.6914 136.51975 13.66766 133.17755 14.64394 129.46685 15.6202 125.41315 16.59645 121.04475 17.57272 116.39124 18.54898 111.48552 19.52525 106.3633 20.5015 101.0615 21.47777 95.61446 22.45403 90.06453 23.4303 84.44733 24.40656 78.80461 25.38283 73.17532 26.35909 67.59647 27.33536 62.11177 28.31161 56.75752 29.28789 51.57408 30.26413 46.59306 31.24039 41.85211 32.21666 37.38553 33.19292 33.2236 34.16919 29.39856 35.14545 25.93329 36.12172 22.85403 37.09798 20.18095 38.07425 17.93489 39.0505 16.13264 40.02676 14.78435 41.00302 13.90004 41.9793 13.48512 42.95555 13.54297 43.93182 14.07758 44.90808 15.0809 45.88435 16.54555 46.86061 18.46075 47.83687 20.81511 48.81314 23.59175 49.78938 26.77054 50.76566 30.33128 51.74191 34.24374 52.71819 38.48369 53.69444 43.0229 54.67072 47.82639 55.64697 52.86255 56.62325 58.09373 57.5995 63.48495 58.57578 68.9959 59.55203 74.58954 60.52829 80.22688 61.50455 85.86626 62.4808 91.46999 63.45708 96.99908 64.43333 102.4125 65.4096 107.67328 66.38586 112.74373 67.36214 117.58891 68.3384 122.17384 69.31467 126.46692 70.29091 130.43454 71.26718 134.0558 72.24344 137.29848 73.21971 140.14505 74.19597 142.5727 75.17224 144.5612 76.1485 146.10184 77.12477 147.18117 78.10103 147.79244 79.07729 147.93434 80.05354 147.59676 81.0298 146.78978 82.00607 145.5168 82.98233 143.78989 83.9586 141.61846 84.93486 139.0153 85.91113 136.0006 86.88739 132.59789 87.86366 128.83002 88.83992 124.72386 89.81618 120.30571 90.79243 115.60847 91.76869 110.66579 92.74496 105.51128 93.72124 100.18259 94.6975 94.71805 95.67375 89.15332 96.65002 83.52873 97.62628 77.886 98.60262 72.2621 99.57877 66.69739 100.5551 61.23082 101.53127 55.9028 102.5076 50.74762 103.48392 45.8029 104.4601 41.105 105.43642 36.68683 106.4126 32.57936 107.38892 28.80948 108.36523 25.40474 109.3414 22.39003 110.31772 19.78554 111.2939 17.61142 112.27022 15.88115 113.24655 14.60815 114.22272 13.79916 115.19905 13.4609 116.17522 13.60011 117.15154 14.21072 118.12787 15.28801 119.10405 16.8253 120.08035 18.81381 121.05653 21.23875 122.03287 24.08333 123.00919 27.32532 123.98534 30.9446 124.96167 34.9115 125.93784 39.20323 126.91417 43.78749 127.89049 48.632 128.86669 53.70113 129.84297 58.95988 130.81916 64.3733 131.79549 69.90239 132.7718 75.50545 133.74799 81.1455 134.7243 86.78151 135.70047 92.37648 136.6768 97.88876 137.65312 103.28 138.6293 108.51186 139.6056 113.54936 140.58179 118.35352 141.5581 122.89206 142.53444 127.13469 143.51062 131.0485 144.48694 134.60993 145.4631 137.79006 146.43944 140.57006 147.41577 142.92441 148.39192 144.8423 149.36824 146.30762 150.34442 147.31365 151.32074 147.84894 152.29706 147.90879 153.27324 147.49724 154.24958 146.61359 155.22573 145.26798 156.20207 143.46778 157.1784 141.22103 158.15456 138.54996 159.13086 135.4727 160.10704 132.01013 161.08338 128.18444 162.0597 124.02449 163.03588 119.5579 164.01219 114.82034 164.98838 109.84065 165.96469 104.65723 166.94101 99.30164 167.91719 93.8176 168.89351 88.2401 169.86968 82.61148 170.84601 76.96875 171.82233 71.3509 172.7985 65.80096 173.77483 60.35324 174.751 55.05011 175.72733 49.92787 176.70365 45.02016 177.67981 40.3673 178.65615 35.99756 179.6323 31.94254 180.60863 28.22981 181.58495 24.88626 182.56113 21.93745 183.53745 19.4029 184.51363 17.30074 185.48996 15.64241 186.46628 14.44272 187.44246 13.71175 188.41878 13.45285 189.39493 13.66803 190.37125 14.35327 191.34758 15.5059 192.32376 17.11649 193.30008 19.17896 193.22393 18.98396"/>
<path transform="matrix(-.36411096,.93132796,.93132796,.36411096,4.8387067,20.792786)" d="M2.8892 0-1.73352 2.31136 0 0-1.73352-2.31136" fill="#0000ff" fill-opacity=".5"/>
<path transform="matrix(.36424095,-.931268,-.931268,-.36424095,197.01642,144.21189)" d="M2.8892 0-1.73352 2.31136 0 0-1.73352-2.31136" fill="#0000ff" fill-opacity=".5"/>
<use data-text="y" xlink:href="#font_3_3" transform="matrix(9.962899,0,0,-9.962899,201.88767,142.6978)" fill="#0000ff" fill-opacity=".5"/>
<use data-text="=" xlink:href="#font_2_6" transform="matrix(9.962899,0,0,-9.962899,209.89789,142.6978)" fill="#0000ff" fill-opacity=".5"/>
<use data-text="c" xlink:href="#font_2_7" transform="matrix(9.962899,0,0,-9.962899,220.3988,142.6978)" fill="#0000ff" fill-opacity=".5"/>
<use data-text="o" xlink:href="#font_2_8" transform="matrix(9.962899,0,0,-9.962899,224.82233,142.6978)" fill="#0000ff" fill-opacity=".5"/>
<use data-text="s" xlink:href="#font_2_9" transform="matrix(9.962899,0,0,-9.962899,229.80377,142.6978)" fill="#0000ff" fill-opacity=".5"/>
<use data-text="x" xlink:href="#font_3_2" transform="matrix(9.962899,0,0,-9.962899,235.41367,142.6978)" fill="#0000ff" fill-opacity=".5"/>
<path transform="matrix(1.00003,0,0,-1.00003,3.786705,163.19641)" stroke-width=".99628" stroke-linecap="butt" stroke-miterlimit="10" stroke-linejoin="miter" fill="none" stroke="#ff0000" d="M1.05197 18.99455 .97624 19.18837 1.9525 17.12389 2.92877 15.51062 3.90503 14.35732 4.8813 13.66937 5.85756 13.45285 6.83383 13.7104 7.81009 14.43936 8.78636 15.63704 9.76262 17.29335 10.73888 19.39482 11.71513 21.92737 12.6914 24.87416 13.66766 28.21635 14.64394 31.92706 15.6202 35.98074 16.59645 40.34915 17.57272 45.00267 18.54898 49.90837 19.52525 55.03061 20.5015 60.3324 21.47777 65.77943 22.45403 71.32938 23.4303 76.94656 24.40656 82.58928 25.38283 88.21858 26.35909 93.79742 27.33536 99.28214 28.31161 104.63638 29.28789 109.81981 30.26413 114.80083 31.24039 119.54178 32.21666 124.00836 33.19292 128.1703 34.16919 131.99533 35.14545 135.46062 36.12172 138.53986 37.09798 141.21295 38.07425 143.45902 39.0505 145.26125 40.02676 146.60956 41.00302 147.49387 41.9793 147.90879 42.95555 147.85094 43.93182 147.31633 44.90808 146.313 45.88435 144.84835 46.86061 142.93314 47.83687 140.5788 48.81314 137.80216 49.78938 134.62337 50.76566 131.06262 51.74191 127.15016 52.71819 122.9102 53.69444 118.371 54.67072 113.5675 55.64697 108.53136 56.62325 103.30017 57.5995 97.90894 58.57578 92.39801 59.55203 86.80437 60.52829 81.16702 61.50455 75.52765 62.4808 69.9239 63.45708 64.3948 64.43333 58.98138 65.4096 53.72063 66.38586 48.65016 67.36214 43.805 68.3384 39.22006 69.31467 34.92697 70.29091 30.95937 71.26718 27.3381 72.24344 24.09541 73.21971 21.24884 74.19597 18.82121 75.17224 16.8327 76.1485 15.29205 77.12477 14.21274 78.10103 13.60146 79.07729 13.45956 80.05354 13.79713 81.0298 14.60413 82.00607 15.8771 82.98233 17.60402 83.9586 19.77544 84.93486 22.3786 85.91113 25.3933 86.88739 28.79602 87.86366 32.56389 88.83992 36.67004 89.81618 41.0882 90.79243 45.78543 91.76869 50.72812 92.74496 55.88263 93.72124 61.21132 94.6975 66.67586 95.67375 72.24059 96.65002 77.86516 97.62628 83.50789 98.60262 89.1318 99.57877 94.69652 100.5551 100.16307 101.53127 105.49109 102.5076 110.64629 103.48392 115.591 104.4601 120.2889 105.43642 124.70706 106.4126 128.81453 107.38892 132.58443 108.36523 135.98917 109.3414 139.00388 110.31772 141.60837 111.2939 143.78247 112.27022 145.51276 113.24655 146.78575 114.22272 147.59474 115.19905 147.933 116.17522 147.7938 117.15154 147.18318 118.12787 146.10588 119.10405 144.5686 120.08035 142.5801 121.05653 140.15515 122.03287 137.31058 123.00919 134.06859 123.98534 130.44931 124.96167 126.48239 125.93784 122.19067 126.91417 117.6064 127.89049 112.7619 128.86669 107.69276 129.84297 102.43402 130.81916 97.0206 131.79549 91.49152 132.7718 85.88844 133.74799 80.24841 134.7243 74.6124 135.70047 69.01741 136.6768 63.50513 137.65312 58.1139 138.6293 52.88205 139.6056 47.84454 140.58179 43.04037 141.5581 38.50185 142.53444 34.25922 143.51062 30.34541 144.48694 26.78398 145.4631 23.60385 146.43944 20.82384 147.41577 18.4695 148.39192 16.5516 149.36824 15.08629 150.34442 14.08026 151.32074 13.54497 152.29706 13.48512 153.27324 13.89667 154.24958 14.78032 155.22573 16.12593 156.20207 17.92613 157.1784 20.17288 158.15456 22.84395 159.13086 25.9212 160.10704 29.38377 161.08338 33.20947 162.0597 37.3694 163.03588 41.83598 164.01219 46.57356 164.98838 51.55324 165.96469 56.73668 166.94101 62.09225 167.91719 67.5763 168.89351 73.1538 169.86968 78.78242 170.84601 84.42516 171.82233 90.043 172.7985 95.59294 173.77483 101.04065 174.751 106.3438 175.72733 111.46603 176.70365 116.37375 177.67981 121.02661 178.65615 125.39633 179.6323 129.45137 180.60863 133.1641 181.58495 136.50765 182.56113 139.45645 183.53745 141.991 184.51363 144.09316 185.48996 145.75148 186.46628 146.95117 187.44246 147.68215 188.41878 147.94106 189.39493 147.72588 190.37125 147.04064 191.34758 145.888 192.32376 144.2774 193.30008 142.21494 193.22393 142.40995"/>
<path transform="matrix(-.36411096,-.93132796,-.93132796,.36411096,4.8387067,144.2013)" d="M2.8892 0-1.73352 2.31136 0 0-1.73352-2.31136" fill="#ff0000"/>
<path transform="matrix(.36424095,.931268,.931268,-.36424095,197.01642,20.78218)" d="M2.8892 0-1.73352 2.31136 0 0-1.73352-2.31136" fill="#ff0000"/>
<use data-text="y" xlink:href="#font_3_3" transform="matrix(9.962899,0,0,-9.962899,201.88767,25.963288)" fill="#ff0000"/>
<use data-text="=" xlink:href="#font_2_6" transform="matrix(9.962899,0,0,-9.962899,209.89789,25.963288)" fill="#ff0000"/>
<use data-text="&#x2212;" xlink:href="#font_1_1" transform="matrix(9.962899,0,0,-9.962899,220.41422,25.963288)" fill="#ff0000"/>
<use data-text="c" xlink:href="#font_2_7" transform="matrix(9.962899,0,0,-9.962899,229.8235,25.963288)" fill="#ff0000"/>
<use data-text="o" xlink:href="#font_2_8" transform="matrix(9.962899,0,0,-9.962899,234.24704,25.963288)" fill="#ff0000"/>
<use data-text="s" xlink:href="#font_2_9" transform="matrix(9.962899,0,0,-9.962899,239.22849,25.963288)" fill="#ff0000"/>
<use data-text="(" xlink:href="#font_2_1" transform="matrix(9.962899,0,0,-9.962899,243.15387,25.963288)" fill="#ff0000"/>
<use data-text="x" xlink:href="#font_3_2" transform="matrix(9.962899,0,0,-9.962899,247.03702,25.963288)" fill="#ff0000"/>
<use data-text=")" xlink:href="#font_2_2" transform="matrix(9.962899,0,0,-9.962899,252.73117,25.963288)" fill="#ff0000"/>
<use data-text="x" xlink:href="#font_3_2" transform="matrix(9.962899,0,0,-9.962899,188.85825,78.976879)"/>
<use data-text="y" xlink:href="#font_3_3" transform="matrix(9.962899,0,0,-9.962899,86.18417,9.606796)"/>
</svg>
