<svg xmlns="http://www.w3.org/2000/svg" xmlns:xlink="http://www.w3.org/1999/xlink" version="1.1" width="79" height="74" viewBox="0 0 79 74">
<defs>
<path id="font_1_2" d="M.3909912 .37405396C.36299134 .37304688 .34298707 .3510437 .34298707 .32904054 .34298707 .31503297 .35198976 .30003358 .37399293 .30003358 .3959961 .30003358 .41999818 .31703187 .41999818 .35603334 .41999818 .40124513 .3769989 .4423828 .30099488 .4423828 .16899109 .4423828 .13198853 .3400421 .13198853 .29605104 .13198853 .21820069 .20599365 .20323181 .23498535 .19725037 .2869873 .18727112 .33898927 .17628479 .33898927 .12133789 .33898927 .095336917 .31599427 .011245728 .19599915 .011245728 .18199158 .011245728 .10499573 .011245728 .08198547 .064331058 .11999512 .059326173 .14498902 .08934021 .14498902 .11734009 .14498902 .14033509 .1289978 .15234375 .10798645 .15234375 .08198547 .15234375 .051986696 .1313324 .051986696 .08633423 .051986696 .029281617 .10899353-.0107421879 .19499207-.0107421879 .35699464-.0107421879 .3959961 .1103363 .3959961 .15533448 .3959961 .19125366 .3769989 .21620178 .36499024 .22817993 .33799745 .25613404 .30899049 .26112367 .2649994 .27009584 .22898865 .27807618 .18899536 .2850647 .18899536 .33003236 .18899536 .3590393 .21299744 .42037965 .30099488 .42037965 .32598878 .42037965 .37599183 .41333009 .3909912 .37405396Z"/>
<path id="font_2_96" d="M.3639984 .38137818C.3639984 .41337586 .33299256 .4423828 .2899933 .4423828 .21699524 .4423828 .18099976 .37538148 .16699219 .3323822V.4423828L.027999878 .43066407V.3996582C.09799194 .3996582 .10598755 .39266969 .10598755 .34370423V.07595825C.10598755 .0309906 .09498596 .0309906 .027999878 .0309906V0L.14199829 .0029907227C.18199158 .0029907227 .22898865 .0029907227 .2689972 0V.0309906H.24798584C.17399597 .0309906 .17199707 .04197693 .17199707 .07795715V.23181153C.17199707 .33137513 .21398926 .42037965 .2899933 .42037965 .29699708 .42037965 .29899598 .42037965 .30099488 .41937257 .2979889 .41838075 .27799989 .40637208 .27799989 .3803711 .27799989 .35237123 .29899598 .33737184 .32099916 .33737184 .33898927 .33737184 .3639984 .3493805 .3639984 .38137818Z"/>
<path id="font_1_1" d="M.45498658 .5001831C.45498658 .56614688 .43699647 .7050781 .33499146 .7050781 .19599915 .7050781 .041992189 .42323304 .041992189 .19425965 .041992189 .100250247 .070999149-.0107421879 .1619873-.0107421879 .30299378-.0107421879 .45498658 .27627564 .45498658 .5001831M.147995 .36328126C.16499329 .42723084 .18499756 .5071869 .22499085 .57814028 .2519989 .6271057 .2889862 .68307498 .33399964 .68307498 .3829956 .68307498 .3889923 .6191101 .3889923 .56214907 .3889923 .5131836 .3809967 .46220399 .35699464 .36328126H.147995M.34799195 .3312683C.33699037 .28527833 .31599427 .2002716 .27799989 .12826538 .24299622 .060256959 .20498657 .011245728 .1619873 .011245728 .1289978 .011245728 .10798645 .040252687 .10798645 .133255 .10798645 .17526245 .11399841 .23326111 .13999939 .3312683H.34799195Z"/>
</defs>
<path transform="matrix(1.00002,0,0,-1,37.529375,37.232004)" stroke-width=".3985" stroke-linecap="butt" stroke-miterlimit="10" stroke-linejoin="miter" fill="none" stroke="#000000" d="M35.43349 0C35.43349 19.56963 19.56963 35.43349 0 35.43349-19.56963 35.43349-35.43349 19.56963-35.43349 0-35.43349-19.56963-19.56963-35.43349 0-35.43349 19.56963-35.43349 35.43349-19.56963 35.43349 0ZM0 0"/>
<path transform="matrix(1.00002,0,0,-1,37.529375,37.232004)" stroke-width=".3985" stroke-linecap="butt" stroke-miterlimit="10" stroke-linejoin="miter" fill="none" stroke="#0000ff" d="M23.80244 23.80244 26.30812 26.30812"/>
<path transform="matrix(1.00002,0,0,-1,37.529375,37.232004)" stroke-width=".3985" stroke-linecap="butt" stroke-miterlimit="10" stroke-linejoin="miter" fill="none" stroke="#0000ff" d="M35.43349 0C35.43349 9.39577 31.69911 18.41145 25.05528 25.05528"/>
<use data-text="s" xlink:href="#font_1_2" transform="matrix(9.962799,0,0,-9.9626,73.59909,15.901003)" fill="#0000ff"/>
<path transform="matrix(1.00002,0,0,-1,37.529375,37.232004)" d="M36.67883 0C36.67883 .68777 36.12128 1.24535 35.43349 1.24535 34.74571 1.24535 34.18814 .68777 34.18814 0 34.18814-.68777 34.74571-1.24535 35.43349-1.24535 36.12128-1.24535 36.67883-.68777 36.67883 0ZM35.43349 0" fill="#0000ff"/>
<path transform="matrix(1.00002,0,0,-1,37.529375,37.232004)" stroke-width=".3985" stroke-linecap="butt" stroke-miterlimit="10" stroke-linejoin="miter" fill="none" stroke="#0000ff" d="M36.67883 0C36.67883 .68777 36.12128 1.24535 35.43349 1.24535 34.74571 1.24535 34.18814 .68777 34.18814 0 34.18814-.68777 34.74571-1.24535 35.43349-1.24535 36.12128-1.24535 36.67883-.68777 36.67883 0ZM35.43349 0"/>
<path transform="matrix(1.00002,0,0,-1,37.529375,37.232004)" d="M26.30063 25.05528C26.30063 25.74307 25.74307 26.30063 25.05528 26.30063 24.36751 26.30063 23.80994 25.74307 23.80994 25.05528 23.80994 24.36751 24.36751 23.80994 25.05528 23.80994 25.74307 23.80994 26.30063 24.36751 26.30063 25.05528ZM25.05528 25.05528" fill="#0000ff"/>
<path transform="matrix(1.00002,0,0,-1,37.529375,37.232004)" stroke-width=".3985" stroke-linecap="butt" stroke-miterlimit="10" stroke-linejoin="miter" fill="none" stroke="#0000ff" d="M26.30063 25.05528C26.30063 25.74307 25.74307 26.30063 25.05528 26.30063 24.36751 26.30063 23.80994 25.74307 23.80994 25.05528 23.80994 24.36751 24.36751 23.80994 25.05528 23.80994 25.74307 23.80994 26.30063 24.36751 26.30063 25.05528ZM25.05528 25.05528"/>
<path transform="matrix(1.00002,0,0,-1,37.529375,37.232004)" d="M1.24535 0C1.24535 .68777 .68777 1.24535 0 1.24535-.68777 1.24535-1.24535 .68777-1.24535 0-1.24535-.68777-.68777-1.24535 0-1.24535 .68777-1.24535 1.24535-.68777 1.24535 0ZM0 0" fill="#0000ff"/>
<path transform="matrix(1.00002,0,0,-1,37.529375,37.232004)" stroke-width=".3985" stroke-linecap="butt" stroke-miterlimit="10" stroke-linejoin="miter" fill="none" stroke="#0000ff" d="M1.24535 0C1.24535 .68777 .68777 1.24535 0 1.24535-.68777 1.24535-1.24535 .68777-1.24535 0-1.24535-.68777-.68777-1.24535 0-1.24535 .68777-1.24535 1.24535-.68777 1.24535 0ZM0 0"/>
<path transform="matrix(1.00002,0,0,-1,37.529375,37.232004)" stroke-width=".3985" stroke-linecap="butt" stroke-miterlimit="10" stroke-linejoin="miter" fill="none" stroke="#0000ff" d="M0 0H35.43349"/>
<use data-text="r" xlink:href="#font_2_96" transform="matrix(9.962799,0,0,-9.9626,53.293687,47.990007)" fill="#0000ff"/>
<path transform="matrix(1.00002,0,0,-1,37.529375,37.232004)" stroke-width=".3985" stroke-linecap="butt" stroke-miterlimit="10" stroke-linejoin="miter" fill="none" stroke="#0000ff" d="M0 0 25.05528 25.05528"/>
<path transform="matrix(1.00002,0,0,-1,37.529375,37.232004)" stroke-width=".3985" stroke-linecap="butt" stroke-miterlimit="10" stroke-linejoin="miter" fill="none" stroke="#000000" d="M10.63014 0C10.63014 2.81874 9.50978 5.5235 7.51665 7.51665"/>
<use data-text="&#x03b8;" xlink:href="#font_1_1" transform="matrix(9.962799,0,0,-9.9626,50.542634,32.479005)"/>
<path transform="matrix(1.00002,0,0,-1,37.529375,37.232004)" stroke-width=".3985" stroke-linecap="butt" stroke-miterlimit="10" stroke-linejoin="miter" fill="none" stroke="#000000" d="M28.34691 0C28.34691 7.51665 25.35936 14.72922 21.4532 18.63536"/>
<path transform="matrix(-.70711418,-.7071,-.70711418,.7071,58.983,18.596642)" d="M1.99252 0-1.19551 1.59401 0 0-1.19551-1.59401"/>
</svg>
