<svg xmlns="http://www.w3.org/2000/svg" xmlns:xlink="http://www.w3.org/1999/xlink" xmlns:inkscape="http://www.inkscape.org/namespaces/inkscape" version="1.1" width="207" height="171" viewBox="0 0 207 171">
<defs>
<path id="font_1_1" d="M.6589966 .23046875C.6759949 .23046875 .69400027 .23046875 .69400027 .25045777 .69400027 .27046205 .6759949 .27046205 .6589966 .27046205H.117996219C.100997928 .27046205 .08299255 .27046205 .08299255 .25045777 .08299255 .23046875 .100997928 .23046875 .117996219 .23046875H.6589966Z"/>
<path id="font_2_3" d="M.1269989 .07699585 .23298645 .18003845C.3889923 .31811524 .44898988 .3721466 .44898988 .47216798 .44898988 .5860901 .35899354 .6660156 .23699951 .6660156 .12399292 .6660156 .049987794 .57411196 .049987794 .48516847 .049987794 .4291687 .099990848 .4291687 .102996829 .4291687 .11999512 .4291687 .15499878 .44117738 .15499878 .48217774 .15499878 .5081787 .13699341 .5341797 .101989749 .5341797 .09399414 .5341797 .09199524 .5341797 .08898926 .5331726 .11199951 .59806826 .1659851 .63500979 .22399903 .63500979 .31498719 .63500979 .35798646 .5541382 .35798646 .47216798 .35798646 .39215089 .30799867 .31311036 .25299073 .25108338L.06098938 .036987306C.049987794 .025985718 .049987794 .023986817 .049987794 0H.42099L.44898988 .17404175H.42399598C.4189911 .14402771 .4119873 .1000061 .4019928 .084991458 .394989 .07699585 .32899476 .07699585 .30699159 .07699585H.1269989Z"/>
<path id="font_3_1" d="M.2649994 .37265016H.37799073C.34498597 .22489929 .33599855 .18196106 .33599855 .11508179 .33599855 .100097659 .33599855 .073150638 .34399415 .03919983 .35398866-.0047454836 .36499024-.0107421879 .37998963-.0107421879 .3999939-.0107421879 .42099 .007247925 .42099 .02722168 .42099 .033218385 .42099 .035202028 .4149933 .049179079 .38598634 .12106323 .38598634 .18595886 .38598634 .21391297 .38598634 .26683045 .3929901 .32073976 .4039917 .37265016H.5179901C.5309906 .37265016 .5669861 .37265016 .5669861 .406662 .5669861 .43066407 .54599 .43066407 .5269928 .43066407H.19198609C.16999817 .43066407 .13198853 .43066407 .08799744 .38365174 .052993776 .34469605 .026992798 .29878236 .026992798 .29379273 .026992798 .29278565 .026992798 .28379823 .038986207 .28379823 .04699707 .28379823 .04899597 .28779603 .054992677 .29577638 .10398865 .37265016 .1619873 .37265016 .18199158 .37265016H.23899842C.20698548 .25186158 .15299988 .13105774 .11099243 .04020691 .102996829 .025222779 .102996829 .023223877 .102996829 .016235352 .102996829-.002746582 .11898804-.0107421879 .13198853-.0107421879 .1619873-.0107421879 .16999817 .017242432 .18199158 .05418396 .19599915 .100097659 .19599915 .10209656 .20899964 .15202332L.2649994 .37265016Z"/>
<path id="font_2_2" d="M.2939911 .64004519C.2939911 .66400149 .2939911 .6660156 .2709961 .6660156 .20899964 .60227969 .12098694 .60227969 .08898926 .60227969V.57128909C.10899353 .57128909 .16799927 .57128909 .21998596 .5972748V.07902527C.21998596 .042999269 .21699524 .0309906 .1269989 .0309906H.09498596V0C.12998963 .0029907227 .21699524 .0029907227 .25698854 .0029907227 .29699708 .0029907227 .38398744 .0029907227 .4189911 0V.0309906H.3869934C.29699708 .0309906 .2939911 .041992189 .2939911 .07902527V.64004519Z"/>
<path id="font_2_1" d="M.45999146 .31976319C.45999146 .39982606 .45498658 .47988893 .41999818 .5539398 .37399293 .65000918 .2919922 .6660156 .25 .6660156 .18998719 .6660156 .116989139 .64001467 .07598877 .54693606 .04399109 .47789 .038986207 .39982606 .038986207 .31976319 .038986207 .24472046 .042999269 .15464783 .083999637 .07859802 .1269989-.0024719239 .19999695-.022460938 .24899292-.022460938 .30299378-.022460938 .3789978-.0014648438 .4229889 .09359741 .45498658 .16265869 .45999146 .2407074 .45999146 .31976319M.24899292-.00047302247C.20999146-.00047302247 .15098572 .024551392 .1329956 .12062073 .12199402 .18066406 .12199402 .2727356 .12199402 .3317871 .12199402 .39582826 .12199402 .46188355 .12998963 .5159149 .14898682 .63500979 .22399903 .64401248 .24899292 .64401248 .28199769 .64401248 .34799195 .6259918 .36698915 .52693179 .3769989 .47088624 .3769989 .39482118 .3769989 .3317871 .3769989 .25672914 .3769989 .18867493 .3659973 .12461853 .35099793 .029556275 .2939911-.00047302247 .24899292-.00047302247Z"/>
<path id="font_2_4" d="M.44898988 .20022583C.44898988 .3193512 .36698915 .41944886 .25898744 .41944886 .21099854 .41944886 .16799927 .40345765 .13198853 .36842347V.5637665C.1519928 .5577698 .18499756 .55078127 .21699524 .55078127 .33999635 .55078127 .4099884 .6417694 .4099884 .6547699 .4099884 .6607666 .40699769 .6657715 .3999939 .6657715 .39898683 .6657715 .39698792 .6657715 .3919983 .66278079 .37199403 .6537781 .32299806 .6337738 .2559967 .6337738 .21598816 .6337738 .16999817 .6407776 .12298584 .6617737 .114990238 .66477969 .11299133 .66477969 .11099243 .66477969 .100997928 .66477969 .100997928 .6567688 .100997928 .6407776V.34439088C.100997928 .32637025 .100997928 .31835938 .114990238 .31835938 .12199402 .31835938 .12399292 .32136537 .12799073 .32736207 .13899231 .3433838 .17599488 .39746095 .25698854 .39746095 .30899049 .39746095 .33399964 .35139466 .34199525 .33337403 .35798646 .29632569 .3600006 .25727845 .3600006 .20722962 .3600006 .17222595 .3600006 .11222839 .33599855 .07035828 .31199647 .031463624 .2749939 .0055389406 .22898865 .0055389406 .1559906 .0055389406 .09899902 .058380128 .08198547 .11723328 .084991458 .1162262 .08799744 .115234378 .09899902 .115234378 .13198853 .115234378 .14898682 .14022827 .14898682 .16423035 .14898682 .18823242 .13198853 .21322632 .09899902 .21322632 .084991458 .21322632 .049987794 .20622254 .049987794 .16023255 .049987794 .07434082 .11898804-.022460938 .23098755-.022460938 .34700013-.022460938 .44898988 .073349 .44898988 .20022583Z"/>
<path id="font_3_2" d="M.33399964 .30233766C.33999635 .32835389 .36299134 .42037965 .43299867 .42037965 .43798829 .42037965 .46199037 .42037965 .48298646 .40734864 .45498658 .402359 .43499757 .37734986 .43499757 .35334779 .43499757 .33735658 .44599916 .31835938 .47299195 .31835938 .49499513 .31835938 .5269928 .3363495 .5269928 .37635804 .5269928 .42837525 .46798707 .4423828 .43399049 .4423828 .37599183 .4423828 .34098817 .38935853 .32899476 .36634828 .3039856 .43237306 .25 .4423828 .22099304 .4423828 .116989139 .4423828 .05999756 .3133545 .05999756 .28834535 .05999756 .27833558 .069992069 .27833558 .07199097 .27833558 .07998657 .27833558 .08299255 .28033448 .084991458 .28933717 .11898804 .39535523 .18499756 .42037965 .21899414 .42037965 .23799134 .42037965 .272995 .4113617 .272995 .35334779 .272995 .32235719 .2559967 .25532533 .21899414 .11528015 .20298767 .053268434 .16799927 .011245728 .12399292 .011245728 .117996219 .011245728 .09498596 .011245728 .07398987 .024276734 .09899902 .029266358 .12098694 .05027771 .12098694 .07827759 .12098694 .105270389 .09899902 .11328125 .083999637 .11328125 .053985597 .11328125 .0289917 .08728027 .0289917 .055267335 .0289917 .009246826 .07899475-.0107421879 .12298584-.0107421879 .18899536-.0107421879 .22499085 .059280397 .22799683 .0652771 .23999024 .028274537 .27598573-.0107421879 .33599855-.0107421879 .43899537-.0107421879 .49598695 .118270877 .49598695 .14328003 .49598695 .1532898 .4869995 .1532898 .48399354 .1532898 .47499085 .1532898 .47299195 .14929199 .47099305 .14228821 .43798829 .03527832 .36999513 .011245728 .33799745 .011245728 .29899598 .011245728 .2829895 .043273927 .2829895 .07727051 .2829895 .09927368 .2889862 .121276859 .2999878 .16529846L.33399964 .30233766Z"/>
<path id="font_3_3" d="M.48599244 .38136292C.48999024 .39537049 .48999024 .39736939 .48999024 .40437318 .48999024 .42237855 .47599793 .43138124 .46099855 .43138124 .45098878 .43138124 .43499757 .42536927 .42599488 .41036988 .42399598 .405365 .41600038 .37435914 .4119873 .35635377 .40499879 .33035279 .397995 .30334474 .3919983 .27633668L.34700013 .09628296C.34298707 .08126831 .2999878 .011245728 .23399353 .011245728 .18299866 .011245728 .17199707 .055267335 .17199707 .0922699 .17199707 .1382904 .18899536 .20030213 .22299195 .28833009 .23899842 .3293457 .24299622 .3403473 .24299622 .36035157 .24299622 .405365 .21099854 .4423828 .16099549 .4423828 .06599426 .4423828 .0289917 .29733277 .0289917 .28833009 .0289917 .27833558 .038986207 .27833558 .040985109 .27833558 .050994874 .27833558 .051986696 .28033448 .056991579 .29634095 .083999637 .3903656 .12399292 .42037965 .1579895 .42037965 .1659851 .42037965 .18299866 .42037965 .18299866 .3883667 .18299866 .36335755 .17298889 .3373413 .1659851 .31834413 .12599182 .21231079 .10798645 .1552887 .10798645 .10827637 .10798645 .019256592 .17098999-.0107421879 .22999573-.0107421879 .2689972-.0107421879 .30299378 .0062561037 .33099366 .03425598 .31799317-.017745972 .30599977-.06674194 .2659912-.11973572 .23999024-.15385437 .20199585-.18309021 .1559906-.18309021 .14199829-.18309021 .09700012-.18005371 .07998657-.14074707 .09599304-.14074707 .10899353-.14074707 .12298584-.1287384 .1329956-.11973572 .14299011-.10673523 .14299011-.08773804 .14299011-.056747438 .115997318-.052734376 .10598755-.052734376 .08299255-.052734376 .049987794-.068740848 .049987794-.11773682 .049987794-.16796875 .09399414-.20507813 .1559906-.20507813 .25898744-.20507813 .3619995-.11373901 .3899994-.00074768069L.48599244 .38136292Z"/>
</defs>
<path transform="matrix(1.00005,0,0,-1.00006,8.079704,166.5352)" stroke-width=".19925" stroke-linecap="butt" stroke-miterlimit="10" stroke-linejoin="miter" fill="none" stroke="#7f807f" d="M1.52171 79.28084V82.1155M13.47325 79.28084V82.1155M25.42479 79.28084V82.1155M37.37634 79.28084V82.1155M49.32788 79.28084V82.1155M61.27942 79.28084V82.1155M73.23096 79.28084V82.1155M85.18251 79.28084V82.1155M97.13405 79.28084V82.1155M109.0856 79.28084V82.1155M121.03714 79.28084V82.1155M132.9887 79.28084V82.1155M144.94023 79.28084V82.1155M156.89179 79.28084V82.1155M168.84334 79.28084V82.1155M180.79488 79.28084V82.1155M192.74643 79.28084V82.1155"/>
<path transform="matrix(1.00005,0,0,-1.00006,8.079704,166.5352)" stroke-width=".19925" stroke-linecap="butt" stroke-miterlimit="10" stroke-linejoin="miter" fill="none" stroke="#7f807f" d="M1.52171 78.57237V82.82396M49.32788 78.57237V82.82396M144.94023 78.57237V82.82396M192.74643 78.57237V82.82396"/>
<path transform="matrix(1.00005,0,0,-1.00006,8.079704,166.5352)" stroke-width=".19925" stroke-linecap="butt" stroke-miterlimit="10" stroke-linejoin="miter" fill="none" stroke="#7f807f" d="M95.00816 0H99.25996M95.00816 40.34909H99.25996M95.00816 121.04727H99.25996M95.00816 161.39636H99.25996"/>
<path transform="matrix(1.00005,0,0,-1.00006,8.079704,166.5352)" stroke-width=".3985" stroke-linecap="butt" stroke-miterlimit="10" stroke-linejoin="miter" fill="none" stroke="#000000" d="M0 80.69818H192.2756"/>
<path transform="matrix(1.00005,0,0,-1.00006,200.3649,85.832187)" d="M1.99252 0-1.19551 1.59401 0 0-1.19551-1.59401"/>
<path transform="matrix(1.00005,0,0,-1.00006,8.079704,166.5352)" stroke-width=".3985" stroke-linecap="butt" stroke-miterlimit="10" stroke-linejoin="miter" fill="none" stroke="#000000" d="M97.13405 0V159.40384"/>
<path transform="matrix(0,-1.00006,-1.00005,-0,105.218608,7.121811)" d="M1.99252 0-1.19551 1.59401 0 0-1.19551-1.59401"/>
<use data-text="&#x2212;" xlink:href="#font_1_1" transform="matrix(9.963098,0,0,-9.963197,.21730805,97.899089)"/>
<use data-text="2" xlink:href="#font_2_3" transform="matrix(9.963098,0,0,-9.963197,7.9666979,97.899089)"/>
<use data-text="&#x03c0;" xlink:href="#font_3_1" transform="matrix(9.963098,0,0,-9.963197,12.947945,97.899089)"/>
<use data-text="&#x2212;" xlink:href="#font_1_1" transform="matrix(9.963098,0,0,-9.963197,50.516828,97.290058)"/>
<use data-text="&#x03c0;" xlink:href="#font_3_1" transform="matrix(9.963098,0,0,-9.963197,58.266218,97.290058)"/>
<use data-text="&#x03c0;" xlink:href="#font_3_1" transform="matrix(9.963098,0,0,-9.963197,150.00879,95.76796)"/>
<use data-text="2" xlink:href="#font_2_3" transform="matrix(9.963098,0,0,-9.963197,195.32605,97.899089)"/>
<use data-text="&#x03c0;" xlink:href="#font_3_1" transform="matrix(9.963098,0,0,-9.963197,200.30731,97.899089)"/>
<use data-text="&#x2212;" xlink:href="#font_1_1" transform="matrix(9.963098,0,0,-9.963197,81.86039,169.33037)"/>
<use data-text="1" xlink:href="#font_2_2" transform="matrix(9.963098,0,0,-9.963197,89.60978,169.33037)"/>
<use data-text="0" xlink:href="#font_2_1" transform="matrix(9.963098,0,0,-9.963197,94.591327,169.33037)"/>
<use data-text="&#x2212;" xlink:href="#font_1_1" transform="matrix(9.963098,0,0,-9.963197,86.841648,128.97895)"/>
<use data-text="5" xlink:href="#font_2_4" transform="matrix(9.963098,0,0,-9.963197,94.591037,128.97895)"/>
<use data-text="5" xlink:href="#font_2_4" transform="matrix(9.963098,0,0,-9.963197,94.59103,48.69114)"/>
<use data-text="1" xlink:href="#font_2_2" transform="matrix(9.963098,0,0,-9.963197,89.60978,8.339706)"/>
<use data-text="0" xlink:href="#font_2_1" transform="matrix(9.963098,0,0,-9.963197,94.59133,8.339706)"/>
<path transform="matrix(1.00005,0,0,-1.00006,8.079704,166.5352)" stroke-width=".99628" stroke-linecap="butt" stroke-miterlimit="10" stroke-linejoin="miter" fill="none" stroke="#0000ff" d="M4.41046 104.95572 1.61848 104.90924 1.71527 104.91005 1.81207 104.91246 1.90886 104.9165 2.00565 104.92053 2.10245 104.92618 2.19922 104.93263 2.296 104.9399 2.39279 104.94797 2.4896 104.95847 2.58638 104.96735 2.68317 104.98026 2.77997 104.99155 2.87674 105.00526 2.97353 105.0198 3.07033 105.03432 3.16711 105.05045 3.2639 105.0682 3.36069 105.08678 3.45749 105.10614 3.55426 105.12714 3.65105 105.1481 3.74785 105.16989 3.84464 105.19328 3.94142 105.21669 4.03821 105.24414 4.13501 105.26996 4.23178 105.29659 4.32857 105.32645 4.42537 105.3563 4.52216 105.38696 4.61894 105.41925 4.71574 105.45071 4.81253 105.48622 4.9093 105.52092 5.00609 105.55643 5.10289 105.59517 5.19968 105.6331 5.29646 105.67264 5.39326 105.71461 5.49005 105.75496 5.58684 105.79933 5.68362 105.84372 5.78041 105.88809 5.8772 105.93573 5.97398 105.98251 6.07079 106.03175 6.16757 106.08258 6.26436 106.13342 6.36115 106.18588 6.45793 106.24156 6.55472 106.29562 6.6515 106.35213 6.7483 106.41022 6.8451 106.46913 6.94188 106.52965 7.03867 106.5926 7.13545 106.65393 7.23224 106.7193 7.32904 106.78546 7.42583 106.85245 7.52261 106.92104 7.6194 106.99124 7.71619 107.06227 7.81297 107.1365 7.90976 107.21074 8.00656 107.2866 8.10335 107.36409 8.20013 107.44315 8.29692 107.52466 8.39372 107.60616 8.4905 107.6909 8.58728 107.77563 8.68408 107.86198 8.78087 107.95157 8.87766 108.04195 8.97446 108.13312 9.07124 108.22754 9.16801 108.32358 9.2648 108.42122 9.3616 108.5205 9.45839 108.62054 9.55518 108.72385 9.65198 108.82874 9.74876 108.93527 9.84554 109.04501 9.94234 109.15639 10.03912 109.26775 10.13591 109.38232 10.2327 109.49936 10.3295 109.61879 10.42628 109.74146 10.52306 109.86409 10.61986 109.99 10.71664 110.11748 10.81343 110.24744 10.91022 110.3814 11.00702 110.51614 11.1038 110.65332 11.20059 110.79376 11.2974 110.93658 11.39417 111.08183 11.49095 111.22952 11.58775 111.37961 11.68454 111.53375 11.78133 111.69029 11.8781 111.84767 11.9749 112.01068 12.07169 112.1753 12.16847 112.34315 12.26527 112.51422 12.36206 112.68774 12.45885 112.86607 12.55562 113.04684 12.65242 113.23083 12.74922 113.41806 12.846 113.6101 12.9428 113.80219 13.03957 114.0015 13.13637 114.20325 13.23317 114.40903 13.32994 114.61966 13.42673 114.83269 13.52351 115.05057 13.62032 115.27249 13.7171 115.49846 13.81387 115.73006 13.91069 115.9657 14.00746 116.20294 14.10425 116.45068 14.20103 116.69923 14.29784 116.95262 14.39462 117.2141 14.4914 117.47879 14.5882 117.74832 14.685 118.0243 14.78177 118.30513 14.87857 118.59323 14.97536 118.88777 15.07214 119.18555 15.16893 119.4922 15.26572 119.8037 15.36252 120.12245 15.45929 120.44847 15.55609 120.78015 15.65288 121.12149 15.74966 121.4693 15.84647 121.82277 15.94324 122.18752 16.04002 122.55954 16.13683 122.93721 16.23361 123.32617 16.3304 123.72401 16.42717 124.13072 16.52399 124.54794 16.62077 124.97322 16.71754 125.4098 16.81435 125.85849 16.91113 126.31363 17.00792 126.7833 17.1047 127.26424 17.2015 127.75409 17.2983 128.26169 17.39507 128.78057 17.49187 129.30994 17.58867 129.8587 17.68544 130.4155 17.78223 130.99007 17.87901 131.5824 17.97581 132.18845 18.0726 132.81143 18.16939 133.45217 18.26619 134.10987 18.36296 134.79016 18.45975 135.48499 18.55655 136.204 18.65334 136.94399 18.75012 137.70497 18.84691 138.48937 18.9437 139.29878 19.0405 140.13237 19.13728 140.99585 19.23407 141.88355 19.33084 142.80025 19.42764 143.75006 19.52444 144.73218 19.62122 145.74332 19.718 146.79644 19.8148 147.88103 19.91159 149.00514 20.00838 150.17365 20.10516 151.38332 20.20197 152.63898 20.29874 153.94872 20.39552 155.30121 20.49232 156.71585 20.58911 158.18215 20.6859 159.71056 20.60828 158.42623"/>
<path transform="matrix(-.9998999,.016650999,.016650832,.99990996,12.490404,61.57318)" d="M2.8892 0-1.73352 2.31136 0 0-1.73352-2.31136" fill="#0000ff"/>
<path transform="matrix(.060363015,-.99817988,-.99816986,-.06036362,28.689015,8.099487)" d="M2.8892 0-1.73352 2.31136 0 0-1.73352-2.31136" fill="#0000ff"/>
<path transform="matrix(1.00005,0,0,-1.00006,8.079704,166.5352)" stroke-width=".99628" stroke-linecap="butt" stroke-miterlimit="10" stroke-linejoin="miter" fill="none" stroke="#0000ff" d="M30.24416 2.95375 30.25963 3.2029 30.4532 6.08139 30.64679 8.7396 30.84038 11.20895 31.03397 13.50401 31.22755 15.64171 31.42114 17.63657 31.61473 19.50313 31.8083 21.25427 32.0019 22.89809 32.19548 24.44347 32.38907 25.9041 32.58267 27.28163 32.77625 28.57843 32.96983 29.80827 33.16342 30.9776 33.35701 32.08075 33.5506 33.12982 33.74419 34.12724 33.93777 35.07948 34.13135 35.9825 34.32495 36.84596 34.51854 37.66827 34.71211 38.45508 34.90572 39.20639 35.09929 39.92459 35.29288 40.61377 35.48647 41.27147 35.68005 41.9017 35.87364 42.50613 36.06723 43.0904 36.26082 43.6456 36.45439 44.18143 36.648 44.69467 36.84158 45.19098 37.03516 45.66467 37.22876 46.12141 37.42233 46.56284 37.61592 46.98569 37.80951 47.39403 38.0031 47.7854 38.19669 48.1655 38.39026 48.53026 38.58386 48.8813 38.77744 49.21942 38.97102 49.54706 39.16463 49.8626 39.3582 50.16519 39.55179 50.45975 39.74538 50.7414 39.93896 51.01416 40.13255 51.27722 40.32614 51.53224 40.51973 51.77594 40.7133 52.01239 40.9069 52.23994 41.1005 52.46106 41.29407 52.67169 41.48767 52.87585 41.68124 53.07275 41.87483 53.2624 42.06842 53.44476 42.26201 53.6207 42.4556 53.78935 42.64919 53.95319 42.84277 54.10812 43.03635 54.25984 43.22995 54.40509 43.42354 54.54388 43.61711 54.67624 43.81071 54.80373 44.00429 54.9272 44.19788 55.0426 44.39148 55.15477 44.58505 55.26291 44.77864 55.36458 44.97223 55.46062 45.16582 55.55261 45.35939 55.64137 45.55298 55.7237 45.74658 55.80116 45.94016 55.87541 46.13374 55.94562 46.32733 56.00937 46.52092 56.06989 46.71451 56.12799 46.9081 56.17802 47.10168 56.22644 47.29526 56.26921 47.48886 56.30957 47.68245 56.34589 47.87602 56.37653 48.06963 56.40479 48.2632 56.42899 48.45679 56.44836 48.65038 56.4637 48.84396 56.4758 49.03755 56.48387 49.23114 56.48709H49.42473L49.61832 56.48387 49.81189 56.4758 50.0055 56.4637 50.19907 56.44836 50.39267 56.42899 50.58626 56.40479 50.77983 56.37653 50.97343 56.34589 51.16699 56.30957 51.3606 56.26921 51.55418 56.22644 51.74777 56.17802 51.94136 56.12637 52.13493 56.06989 52.32854 56.00937 52.52213 55.94562 52.7157 55.87541 52.90929 55.80116 53.10286 55.7237 53.29646 55.64137 53.49007 55.55261 53.68364 55.46062 53.87723 55.36458 54.0708 55.26291 54.2644 55.15477 54.458 55.0426 54.65157 54.9272 54.84515 54.80373 55.03874 54.67703 55.23233 54.54388 55.42593 54.40509 55.6195 54.25984 55.8131 54.10973 56.00667 53.95319 56.20026 53.79018 56.39386 53.6207 56.58745 53.44476 56.78104 53.2624 56.97461 53.07275 57.1682 52.87585 57.3618 52.67169 57.55537 52.46106 57.74896 52.23994 57.94255 52.01239 58.13614 51.77594 58.32974 51.53224 58.5233 51.27722 58.7169 51.01494 58.91048 50.7414 59.10406 50.45975 59.29767 50.16519 59.49124 49.8626 59.68484 49.54706 59.87842 49.21942 60.072 48.8813 60.26561 48.53026 60.45917 48.16469 60.65277 47.78622 60.84634 47.39403 61.03993 46.98569 61.23355 46.56284 61.42711 46.12141 61.62071 45.66467 61.81427 45.19098 62.00787 44.69467 62.20148 44.18143 62.39503 43.64641 62.58864 43.0904 62.78221 42.50775 62.97581 41.9017 63.16942 41.27147 63.36298 40.61377 63.55658 39.92459 63.75014 39.20639 63.94374 38.45508 64.13734 37.66827 64.33092 36.84596 64.52452 35.9825 64.71808 35.07948 64.91168 34.12724 65.10527 33.12982 65.29884 32.08075 65.49245 30.9776 65.68602 29.80827 65.87962 28.57843 66.07321 27.28163 66.26678 25.9041 66.46039 24.44508 66.65395 22.90053 66.84755 21.25427 67.04114 19.50313 67.23473 17.63818 67.42833 15.64171 67.62189 13.50401 67.81549 11.21057 68.00908 8.74525 68.20265 6.08139 68.39624 3.2029 68.41154 2.95854"/>
<path transform="matrix(-.06166308,.9981098,.9980998,.061663696,38.325387,163.58126)" d="M2.8892 0-1.73352 2.31136 0 0-1.73352-2.31136" fill="#0000ff"/>
<path transform="matrix(.061703084,.99808987,.99807986,-.0617037,76.49465,163.57646)" d="M2.8892 0-1.73352 2.31136 0 0-1.73352-2.31136" fill="#0000ff"/>
<path transform="matrix(1.00005,0,0,-1.00006,8.079704,166.5352)" stroke-width=".99628" stroke-linecap="butt" stroke-miterlimit="10" stroke-linejoin="miter" fill="none" stroke="#0000ff" d="M78.05052 158.44263 78.0658 158.19829 78.25938 155.31494 78.45296 152.65674 78.64656 150.18738 78.84015 147.89232 79.03372 145.75463 79.22733 143.75977 79.4209 141.8932 79.61449 140.14206 79.80809 138.49825 80.00166 136.95287 80.19525 135.49224 80.38884 134.11714 80.58243 132.8179 80.776 131.58887 80.9696 130.41873 81.1632 129.3156 81.35677 128.26653 81.55037 127.26909 81.74394 126.31685 81.93753 125.41383 82.13113 124.55037 82.3247 123.72806 82.5183 122.94125 82.71188 122.18994 82.90547 121.47174 83.09906 120.78337 83.29265 120.12486 83.48624 119.49463 83.67981 118.88858 83.87341 118.30594 84.06699 117.74992 84.26057 117.2149 84.45418 116.70166 84.64775 116.20537 84.84134 115.73166 85.03493 115.27492 85.22852 114.8335 85.4221 114.41064 85.61568 114.0023 85.80928 113.61093 86.00285 113.23164 86.19644 112.86607 86.39005 112.51503 86.58362 112.17691 86.7772 111.84927 86.9708 111.53375 87.16438 111.23114 87.35796 110.93658 87.55156 110.65494 87.74515 110.3814 87.93872 110.11911 88.13232 109.86409 88.3259 109.62039 88.51949 109.38394 88.71309 109.15639 88.90666 108.93527 89.10025 108.72466 89.29384 108.5205 89.48743 108.32358 89.68102 108.13393 89.8746 107.95157 90.06819 107.77563 90.26176 107.60698 90.45537 107.44315 90.64894 107.2866 90.84253 107.1365 91.03613 106.99124 91.2297 106.85245 91.4233 106.7201 91.61688 106.5926 91.81047 106.46913 92.00406 106.35373 92.19765 106.24156 92.39124 106.13342 92.58481 106.03175 92.77841 105.93573 92.972 105.84372 93.16557 105.75496 93.35916 105.67264 93.55275 105.59517 93.74634 105.52092 93.93991 105.45071 94.13351 105.38696 94.3271 105.32645 94.52068 105.26996 94.71428 105.2183 94.90785 105.16989 95.10144 105.12714 95.29504 105.08678 95.48862 105.05045 95.6822 105.0198 95.8758 104.99155 96.06938 104.96735 96.26297 104.94797 96.45656 104.93263 96.65015 104.92053 96.84372 104.91246 97.03732 104.90924H97.2309L97.4245 104.91246 97.61807 104.92053 97.81166 104.93263 98.00525 104.94797 98.19884 104.96735 98.39244 104.99155 98.58601 105.0198 98.7796 105.05045 98.97318 105.08678 99.16676 105.12714 99.36037 105.16989 99.55396 105.2183 99.74754 105.26996 99.94112 105.32645 100.1347 105.38696 100.32831 105.45071 100.52188 105.52092 100.71547 105.59517 100.90904 105.67264 101.10263 105.75496 101.29625 105.84372 101.4898 105.93573 101.68341 106.03175 101.87698 106.13342 102.07057 106.24156 102.26418 106.35373 102.45773 106.46913 102.65134 106.5926 102.84492 106.7201 103.03851 106.85245 103.23212 106.99124 103.42567 107.1365 103.61928 107.2866 103.81285 107.44315 104.00644 107.60616 104.20004 107.77563 104.39362 107.95157 104.58722 108.13393 104.78078 108.32358 104.97438 108.5205 105.16798 108.72385 105.36154 108.93527 105.55515 109.15639 105.74872 109.38394 105.94232 109.62039 106.13593 109.86409 106.32948 110.11911 106.52309 110.3814 106.71664 110.65332 106.91025 110.9382 107.10384 111.23114 107.29742 111.53375 107.49103 111.84927 107.68459 112.17691 107.87819 112.51503 108.07178 112.86769 108.26535 113.23164 108.45895 113.6101 108.65251 114.0023 108.84612 114.40903 109.03972 114.8335 109.23329 115.27492 109.4269 115.73166 109.62045 116.20537 109.81406 116.70166 110.00764 117.2149 110.20122 117.74992 110.39482 118.30594 110.5884 118.88858 110.782 119.49463 110.97559 120.12486 111.16916 120.78256 111.36275 121.47174 111.55632 122.18994 111.74992 122.93964 111.94351 123.72806 112.1371 124.55037 112.33069 125.41383 112.52426 126.31604 112.71786 127.26909 112.91145 128.26653 113.10503 129.3156 113.29861 130.41873 113.4922 131.58806 113.68579 132.8179 113.8794 134.11714 114.07297 135.49143 114.26656 136.95127 114.46013 138.4958 114.65372 140.13803 114.84732 141.8932 115.04091 143.75977 115.2345 145.75463 115.42807 147.89232 115.62166 150.18576 115.81526 152.65108 116.00883 155.31494 116.20242 158.19829 116.21771 158.44263"/>
<path transform="matrix(-.061723085,-.99808987,-.99807986,.061723699,86.134128,8.083084)" d="M2.8892 0-1.73352 2.31136 0 0-1.73352-2.31136" fill="#0000ff"/>
<path transform="matrix(.061703084,-.99808987,-.99807986,-.0617037,124.30321,8.083084)" d="M2.8892 0-1.73352 2.31136 0 0-1.73352-2.31136" fill="#0000ff"/>
<path transform="matrix(1.00005,0,0,-1.00006,8.079704,166.5352)" stroke-width=".99628" stroke-linecap="butt" stroke-miterlimit="10" stroke-linejoin="miter" fill="none" stroke="#0000ff" d="M125.8567 2.9537 125.87198 3.19804 126.06557 6.07574 126.25914 8.7396 126.45274 11.20895 126.64632 13.50401 126.8399 15.64171 127.0335 17.63657 127.22708 19.50313 127.42067 21.25427 127.61426 22.89809 127.80785 24.44508 128.00142 25.9041 128.19503 27.27919 128.38861 28.57843 128.58219 29.80746 128.77579 30.97437 128.96936 32.08075 129.16295 33.12982 129.35655 34.12724 129.55013 35.07948 129.74372 35.9833 129.9373 36.84596 130.13089 37.66747 130.32447 38.45508 130.51807 39.20639 130.71166 39.92459 130.90523 40.61377 131.09883 41.27147 131.2924 41.9017 131.486 42.50775 131.6796 43.08879 131.87317 43.6456 132.06676 44.18143 132.26035 44.69467 132.45394 45.19098 132.64752 45.66386 132.84111 46.12141 133.0347 46.56284 133.22827 46.98569 133.42186 47.39403 133.61545 47.78622 133.80904 48.16469 134.00263 48.52864 134.19622 48.8813 134.3898 49.21942 134.58338 49.54706 134.77698 49.86098 134.97057 50.16519 135.16414 50.45813 135.35774 50.74301 135.55132 51.01494 135.7449 51.27722 135.9385 51.53224 136.13208 51.77594 136.32567 52.01157 136.51926 52.23994 136.71285 52.46106 136.90642 52.67169 137.10002 52.87585 137.29361 53.07275 137.48719 53.2624 137.68079 53.44476 137.87436 53.6207 138.06795 53.78935 138.26155 53.95319 138.45513 54.10973 138.64871 54.25984 138.8423 54.40509 139.03589 54.54388 139.22948 54.67624 139.42307 54.80373 139.61666 54.9272 139.81023 55.0426 140.00383 55.15477 140.1974 55.26291 140.39099 55.36458 140.5846 55.46062 140.77817 55.55261 140.97176 55.64137 141.16533 55.7237 141.35894 55.80116 141.55252 55.87541 141.7461 55.94562 141.9397 56.00937 142.13327 56.06989 142.32686 56.12637 142.52046 56.17802 142.71404 56.22644 142.90763 56.26921 143.10121 56.30957 143.2948 56.34589 143.48838 56.37653 143.68198 56.40479 143.87557 56.42899 144.06914 56.44836 144.26274 56.4637 144.45632 56.4758 144.6499 56.48387 144.8435 56.48709H145.03708L145.23069 56.48387 145.42424 56.4758 145.61785 56.4637 145.81143 56.44836 146.00502 56.42899 146.19863 56.40479 146.39218 56.37653 146.58579 56.34589 146.77935 56.30957 146.97295 56.26921 147.16655 56.22644 147.36013 56.17802 147.55373 56.12637 147.74729 56.06989 147.94089 56.00937 148.13449 55.94562 148.32805 55.87541 148.52165 55.80116 148.71521 55.7237 148.90882 55.64137 149.10243 55.55261 149.29599 55.46062 149.4896 55.36458 149.68315 55.26291 149.87676 55.15477 150.07035 55.04422 150.26392 54.9272 150.45752 54.80373 150.6511 54.67624 150.8447 54.54308 151.03829 54.40509 151.23186 54.25984 151.42546 54.10973 151.61902 53.95319 151.81262 53.78935 152.00621 53.6207 152.1998 53.44476 152.3934 53.2624 152.58696 53.07275 152.78057 52.87585 152.97415 52.67249 153.16773 52.46106 153.36132 52.23994 153.5549 52.01239 153.7485 51.77594 153.9421 51.53224 154.13567 51.27722 154.32926 51.01494 154.52283 50.7414 154.71643 50.45975 154.91002 50.16519 155.1036 49.8626 155.2972 49.54706 155.49077 49.21942 155.68437 48.8813 155.87796 48.53026 156.07154 48.16469 156.26512 47.78622 156.4587 47.39403 156.65229 46.9873 156.8459 46.56284 157.03948 46.12141 157.23307 45.66467 157.42664 45.19098 157.62023 44.69548 157.81383 44.18143 158.0074 43.64641 158.20099 43.0904 158.39458 42.50856 158.58817 41.9017 158.78177 41.27147 158.97534 40.61377 159.16893 39.92542 159.3625 39.20639 159.55609 38.4567 159.7497 37.66827 159.94327 36.84596 160.13687 35.9833 160.33045 35.07948 160.52404 34.12724 160.71764 33.12982 160.9112 32.08154 161.1048 30.9776 161.29839 29.80827 161.49198 28.57843 161.68558 27.27919 161.87914 25.9049 162.07274 24.44508 162.26631 22.89809 162.4599 21.2583 162.6535 19.50554 162.84708 17.63657 163.04068 15.64171 163.23424 13.50401 163.42784 11.20895 163.62145 8.74525 163.815 6.08463 164.0086 3.19804 164.02355 2.95854"/>
<path transform="matrix(-.061723085,.99808987,.99807986,.061723699,133.94269,163.5813)" d="M2.8892 0-1.73352 2.31136 0 0-1.73352-2.31136" fill="#0000ff"/>
<path transform="matrix(.061833089,.99808987,.99807986,-.061833707,172.11142,163.57646)" d="M2.8892 0-1.73352 2.31136 0 0-1.73352-2.31136" fill="#0000ff"/>
<path transform="matrix(1.00005,0,0,-1.00006,8.079704,166.5352)" stroke-width=".99628" stroke-linecap="butt" stroke-miterlimit="10" stroke-linejoin="miter" fill="none" stroke="#0000ff" d="M173.65958 158.4424 173.58135 159.73154 173.67815 158.19829 173.77494 156.7328 173.87172 155.31494 173.96852 153.96242 174.0653 152.65674 174.16208 151.39542 174.25887 150.18738 174.35567 149.02127 174.45246 147.89232 174.54924 146.80612 174.64604 145.75463 174.74283 144.74509 174.8396 143.75977 174.9364 142.81156 175.03319 141.8932 175.12998 141.00473 175.22676 140.14287 175.32357 139.30684 175.42035 138.49904 175.51712 137.71224 175.61392 136.95287 175.71071 136.21126 175.8075 135.49626 175.90428 134.79824 176.00109 134.11714 176.09787 133.45944 176.19464 132.82032 176.29145 132.1949 176.38823 131.58887 176.48502 130.99735 176.58182 130.42198 176.6786 129.86273 176.77539 129.3172 176.87216 128.78621 176.96897 128.26813 177.06575 127.76135 177.16254 127.26909 177.25934 126.78893 177.35613 126.31847 177.45291 125.86171 177.5497 125.41383 177.64649 124.97646 177.74327 124.55197 177.84006 124.13557 177.93686 123.72887 178.03365 123.33101 178.13043 122.94206 178.22724 122.56277 178.324 122.19156 178.42079 121.82681 178.51758 121.47334 178.61438 121.12473 178.71117 120.78337 178.80796 120.45251 178.90476 120.12486 179.00153 119.80692 179.09832 119.49544 179.1951 119.18878 179.2919 118.8902 179.38869 118.59727 179.48548 118.30836 179.58228 118.02834 179.67905 117.75073 179.77584 117.4812 179.87264 117.21652 179.96942 116.95667 180.06621 116.70166 180.163 116.45313 180.2598 116.20699 180.35659 115.96649 180.45336 115.73247 180.55016 115.50087 180.64694 115.27573 180.74373 115.05301 180.84053 114.83511 180.93732 114.62206 181.0341 114.41064 181.13088 114.20406 181.22768 114.00394 181.32447 113.80458 181.42125 113.61093 181.51805 113.42046 181.61484 113.23164 181.71163 113.05006 181.8084 112.86769 181.9052 112.69014 182.00199 112.51666 182.09877 112.34395 182.19557 112.17772 182.29236 112.01309 182.38915 111.84927 182.48593 111.69112 182.58272 111.53535 182.6795 111.38124 182.77629 111.23193 182.8731 111.08345 182.96988 110.9382 183.06667 110.79536 183.16347 110.65494 183.26026 110.51775 183.35703 110.38219 183.45381 110.24983 183.55062 110.11911 183.6474 109.99078 183.74419 109.86491 183.84098 109.74225 183.93776 109.62039 184.03455 109.50175 184.13135 109.38477 184.22814 109.26935 184.32492 109.1572 184.4217 109.04663 184.5185 108.93527 184.61528 108.82956 184.71208 108.72466 184.80887 108.62135 184.90566 108.5221 185.00243 108.42122 185.09925 108.32518 185.19603 108.22916 185.2928 108.13393 185.38959 108.04276 185.48639 107.95157 185.58318 107.8628 185.67996 107.77725 185.77675 107.6909 185.87355 107.60698 185.97032 107.52466 186.06711 107.44476 186.16391 107.36409 186.2607 107.28821 186.35749 107.21074 186.45427 107.1365 186.55106 107.06387 186.64786 106.99287 186.74465 106.92265 186.84143 106.85326 186.93822 106.78546 187.035 106.7201 187.1318 106.65553 187.22858 106.5926 187.32538 106.53047 187.42217 106.46913 187.51895 106.41103 187.61574 106.35373 187.71253 106.29562 187.80933 106.24156 187.9061 106.1875 188.00289 106.13423 188.0997 106.08258 188.19647 106.03175 188.29326 105.98415 188.39005 105.93573 188.48685 105.88809 188.58364 105.84372 188.6804 105.79933 188.77722 105.75496 188.874 105.71461 188.97078 105.67264 189.06758 105.6331 189.16437 105.59517 189.26116 105.55804 189.35793 105.52092 189.45473 105.48622 189.55153 105.45233 189.6483 105.41925 189.7451 105.38779 189.84188 105.3563 189.93868 105.32645 190.03548 105.2982 190.13225 105.26996 190.22905 105.24414 190.32582 105.2183 190.42263 105.19328 190.51941 105.17151 190.6162 105.1481 190.713 105.12714 190.80977 105.10614 190.90656 105.08678 191.00337 105.0682 191.10015 105.05045 191.19693 105.03432 191.2937 105.0198 191.39052 105.00526 191.4873 104.99155 191.58408 104.98026 191.68088 104.96815 191.77767 104.95847 191.87445 104.94797 191.97124 104.9399 192.06803 104.93263 192.16483 104.92618 192.2616 104.92134 192.3584 104.9165 192.45519 104.91246 192.55197 104.91005 192.64878 104.90924 189.85678 104.95572"/>
<path transform="matrix(-.060583027,-.99816986,-.9981598,.060583634,181.74796,8.083298)" d="M2.8892 0-1.73352 2.31136 0 0-1.73352-2.31136" fill="#0000ff"/>
<path transform="matrix(.9998999,.016650999,.016650832,-.99990996,197.94596,61.57318)" d="M2.8892 0-1.73352 2.31136 0 0-1.73352-2.31136" fill="#0000ff"/>
<path transform="matrix(1.00005,0,0,-1.00006,8.079704,166.5352)" stroke-width=".3985" stroke-linecap="butt" stroke-dasharray="2.98883,2.98883" stroke-miterlimit="10" stroke-linejoin="miter" fill="none" stroke="#ff0000" d="M25.42479 0V161.39636"/>
<path transform="matrix(1.00005,0,0,-1.00006,8.079704,166.5352)" stroke-width=".3985" stroke-linecap="butt" stroke-dasharray="2.98883,2.98883" stroke-miterlimit="10" stroke-linejoin="miter" fill="none" stroke="#ff0000" d="M73.23096 0V161.39636"/>
<path transform="matrix(1.00005,0,0,-1.00006,8.079704,166.5352)" stroke-width=".3985" stroke-linecap="butt" stroke-dasharray="2.98883,2.98883" stroke-miterlimit="10" stroke-linejoin="miter" fill="none" stroke="#ff0000" d="M121.03714 0V161.39636"/>
<path transform="matrix(1.00005,0,0,-1.00006,8.079704,166.5352)" stroke-width=".3985" stroke-linecap="butt" stroke-dasharray="2.98883,2.98883" stroke-miterlimit="10" stroke-linejoin="miter" fill="none" stroke="#ff0000" d="M168.84333 0V161.39636"/>
<use data-text="x" xlink:href="#font_3_2" transform="matrix(9.963098,0,0,-9.963197,193.14295,82.31215)"/>
<use data-text="y" xlink:href="#font_3_3" transform="matrix(9.963098,0,0,-9.963197,108.73873,12.93898)"/>
</svg>
