<svg xmlns="http://www.w3.org/2000/svg" xmlns:xlink="http://www.w3.org/1999/xlink" version="1.1" width="222" height="170" viewBox="0 0 222 170">
<defs>
<path id="font_1_3" d="M.1269989 .07699585 .23298645 .18003845C.3889923 .31811524 .44898988 .3721466 .44898988 .47216798 .44898988 .5860901 .35899354 .6660156 .23699951 .6660156 .12399292 .6660156 .049987794 .57411196 .049987794 .48516847 .049987794 .4291687 .099990848 .4291687 .102996829 .4291687 .11999512 .4291687 .15499878 .44117738 .15499878 .48217774 .15499878 .5081787 .13699341 .5341797 .101989749 .5341797 .09399414 .5341797 .09199524 .5341797 .08898926 .5331726 .11199951 .59806826 .1659851 .63500979 .22399903 .63500979 .31498719 .63500979 .35798646 .5541382 .35798646 .47216798 .35798646 .39215089 .30799867 .31311036 .25299073 .25108338L.06098938 .036987306C.049987794 .025985718 .049987794 .023986817 .049987794 0H.42099L.44898988 .17404175H.42399598C.4189911 .14402771 .4119873 .1000061 .4019928 .084991458 .394989 .07699585 .32899476 .07699585 .30699159 .07699585H.1269989Z"/>
<path id="font_2_1" d="M.2649994 .37265016H.37799073C.34498597 .22489929 .33599855 .18196106 .33599855 .11508179 .33599855 .100097659 .33599855 .073150638 .34399415 .03919983 .35398866-.0047454836 .36499024-.0107421879 .37998963-.0107421879 .3999939-.0107421879 .42099 .007247925 .42099 .02722168 .42099 .033218385 .42099 .035202028 .4149933 .049179079 .38598634 .12106323 .38598634 .18595886 .38598634 .21391297 .38598634 .26683045 .3929901 .32073976 .4039917 .37265016H.5179901C.5309906 .37265016 .5669861 .37265016 .5669861 .406662 .5669861 .43066407 .54599 .43066407 .5269928 .43066407H.19198609C.16999817 .43066407 .13198853 .43066407 .08799744 .38365174 .052993776 .34469605 .026992798 .29878236 .026992798 .29379273 .026992798 .29278565 .026992798 .28379823 .038986207 .28379823 .04699707 .28379823 .04899597 .28779603 .054992677 .29577638 .10398865 .37265016 .1619873 .37265016 .18199158 .37265016H.23899842C.20698548 .25186158 .15299988 .13105774 .11099243 .04020691 .102996829 .025222779 .102996829 .023223877 .102996829 .016235352 .102996829-.002746582 .11898804-.0107421879 .13198853-.0107421879 .1619873-.0107421879 .16999817 .017242432 .18199158 .05418396 .19599915 .100097659 .19599915 .10209656 .20899964 .15202332L.2649994 .37265016Z"/>
<path id="font_1_4" d="M.2939911 .16503906V.07800293C.2939911 .041992189 .2919922 .0309906 .21798706 .0309906H.19699097V0C.23799134 .0029907227 .2899933 .0029907227 .33198548 .0029907227 .37399293 .0029907227 .4269867 .0029907227 .46798707 0V.0309906H.44699098C.37298585 .0309906 .37098695 .041992189 .37098695 .07800293V.16503906H.47099305V.19602967H.37098695V.65075686C.37098695 .67074587 .37098695 .6767578 .35499574 .6767578 .34599305 .6767578 .34298707 .6767578 .33499146 .66474917L.027999878 .19602967V.16503906H.2939911M.2999878 .19602967H.055999757L.2999878 .5688019V.19602967Z"/>
<path id="font_1_5" d="M.13198853 .327713V.35173036C.13198853 .6047821 .2559967 .64100649 .30699159 .64100649 .33099366 .64100649 .37298585 .634964 .394989 .6007538 .37998963 .6007538 .33999635 .6007538 .33999635 .5557556 .33999635 .524765 .3639984 .5097656 .38598634 .5097656 .4019928 .5097656 .43199159 .51875308 .43199159 .5577545 .43199159 .6178589 .3880005 .6660156 .30499269 .6660156 .1769867 .6660156 .041992189 .5367584 .041992189 .31570436 .041992189 .048553468 .1579895-.022460938 .25099183-.022460938 .3619995-.022460938 .45700074 .07156372 .45700074 .2036438 .45700074 .33070375 .36799623 .4267578 .25698854 .4267578 .18899536 .4267578 .1519928 .37573243 .13198853 .327713M.25099183 .0055389406C.18798828 .0055389406 .1579895 .06556702 .1519928 .080566409 .13398743 .127594 .13398743 .2076416 .13398743 .22564698 .13398743 .30369569 .1659851 .40374757 .2559967 .40374757 .27198792 .40374757 .31799317 .40374757 .34899903 .34172059 .36698915 .30470277 .36698915 .2536621 .36698915 .20463562 .36698915 .15661621 .36698915 .10658264 .34999085 .0705719 .31999208 .010528564 .27398683 .0055389406 .25099183 .0055389406Z"/>
<path id="font_1_6" d="M.16299439 .4569702C.116989139 .486969 .11299133 .52098086 .11299133 .5379791 .11299133 .598999 .17799378 .64100649 .24899292 .64100649 .32199098 .64100649 .38598634 .58898928 .38598634 .51698306 .38598634 .45996095 .34700013 .4119568 .2869873 .37695313L.16299439 .4569702M.30899049 .36193849C.3809967 .3989563 .42999269 .45095826 .42999269 .51698306 .42999269 .6090088 .34098817 .6660156 .25 .6660156 .1499939 .6660156 .068984989 .59199526 .068984989 .49897767 .068984989 .4809723 .070999149 .43595887 .11299133 .38894654 .12399292 .37695313 .16099549 .35194398 .18598938 .33494569 .12799073 .30592347 .041992189 .24984741 .041992189 .15072632 .041992189 .04458618 .14399719-.022460938 .24899292-.022460938 .3619995-.022460938 .45700074 .06060791 .45700074 .16773987 .45700074 .20379639 .44599916 .24885559 .4079895 .2909088 .3889923 .31193543 .37298585 .3219452 .30899049 .36193849M.20899964 .3199463 .33198548 .24183655C.3600006 .2228241 .40699769 .19277954 .40699769 .13169861 .40699769 .05760193 .33198548 .0055389406 .25 .0055389406 .1639862 .0055389406 .09199524 .067611698 .09199524 .15072632 .09199524 .20880127 .12399292 .27288819 .20899964 .3199463Z"/>
<path id="font_1_2" d="M.2939911 .64004519C.2939911 .66400149 .2939911 .6660156 .2709961 .6660156 .20899964 .60227969 .12098694 .60227969 .08898926 .60227969V.57128909C.10899353 .57128909 .16799927 .57128909 .21998596 .5972748V.07902527C.21998596 .042999269 .21699524 .0309906 .1269989 .0309906H.09498596V0C.12998963 .0029907227 .21699524 .0029907227 .25698854 .0029907227 .29699708 .0029907227 .38398744 .0029907227 .4189911 0V.0309906H.3869934C.29699708 .0309906 .2939911 .041992189 .2939911 .07902527V.64004519Z"/>
<path id="font_1_1" d="M.45999146 .31976319C.45999146 .39982606 .45498658 .47988893 .41999818 .5539398 .37399293 .65000918 .2919922 .6660156 .25 .6660156 .18998719 .6660156 .116989139 .64001467 .07598877 .54693606 .04399109 .47789 .038986207 .39982606 .038986207 .31976319 .038986207 .24472046 .042999269 .15464783 .083999637 .07859802 .1269989-.0024719239 .19999695-.022460938 .24899292-.022460938 .30299378-.022460938 .3789978-.0014648438 .4229889 .09359741 .45498658 .16265869 .45999146 .2407074 .45999146 .31976319M.24899292-.00047302247C.20999146-.00047302247 .15098572 .024551392 .1329956 .12062073 .12199402 .18066406 .12199402 .2727356 .12199402 .3317871 .12199402 .39582826 .12199402 .46188355 .12998963 .5159149 .14898682 .63500979 .22399903 .64401248 .24899292 .64401248 .28199769 .64401248 .34799195 .6259918 .36698915 .52693179 .3769989 .47088624 .3769989 .39482118 .3769989 .3317871 .3769989 .25672914 .3769989 .18867493 .3659973 .12461853 .35099793 .029556275 .2939911-.00047302247 .24899292-.00047302247Z"/>
<path id="font_3_1" d="M.6589966 .23046875C.6759949 .23046875 .69400027 .23046875 .69400027 .25045777 .69400027 .27046205 .6759949 .27046205 .6589966 .27046205H.117996219C.100997928 .27046205 .08299255 .27046205 .08299255 .25045777 .08299255 .23046875 .100997928 .23046875 .117996219 .23046875H.6589966Z"/>
<path id="font_2_2" d="M.33399964 .30233766C.33999635 .32835389 .36299134 .42037965 .43299867 .42037965 .43798829 .42037965 .46199037 .42037965 .48298646 .40734864 .45498658 .402359 .43499757 .37734986 .43499757 .35334779 .43499757 .33735658 .44599916 .31835938 .47299195 .31835938 .49499513 .31835938 .5269928 .3363495 .5269928 .37635804 .5269928 .42837525 .46798707 .4423828 .43399049 .4423828 .37599183 .4423828 .34098817 .38935853 .32899476 .36634828 .3039856 .43237306 .25 .4423828 .22099304 .4423828 .116989139 .4423828 .05999756 .3133545 .05999756 .28834535 .05999756 .27833558 .069992069 .27833558 .07199097 .27833558 .07998657 .27833558 .08299255 .28033448 .084991458 .28933717 .11898804 .39535523 .18499756 .42037965 .21899414 .42037965 .23799134 .42037965 .272995 .4113617 .272995 .35334779 .272995 .32235719 .2559967 .25532533 .21899414 .11528015 .20298767 .053268434 .16799927 .011245728 .12399292 .011245728 .117996219 .011245728 .09498596 .011245728 .07398987 .024276734 .09899902 .029266358 .12098694 .05027771 .12098694 .07827759 .12098694 .105270389 .09899902 .11328125 .083999637 .11328125 .053985597 .11328125 .0289917 .08728027 .0289917 .055267335 .0289917 .009246826 .07899475-.0107421879 .12298584-.0107421879 .18899536-.0107421879 .22499085 .059280397 .22799683 .0652771 .23999024 .028274537 .27598573-.0107421879 .33599855-.0107421879 .43899537-.0107421879 .49598695 .118270877 .49598695 .14328003 .49598695 .1532898 .4869995 .1532898 .48399354 .1532898 .47499085 .1532898 .47299195 .14929199 .47099305 .14228821 .43798829 .03527832 .36999513 .011245728 .33799745 .011245728 .29899598 .011245728 .2829895 .043273927 .2829895 .07727051 .2829895 .09927368 .2889862 .121276859 .2999878 .16529846L.33399964 .30233766Z"/>
<path id="font_2_3" d="M.48599244 .38136292C.48999024 .39537049 .48999024 .39736939 .48999024 .40437318 .48999024 .42237855 .47599793 .43138124 .46099855 .43138124 .45098878 .43138124 .43499757 .42536927 .42599488 .41036988 .42399598 .405365 .41600038 .37435914 .4119873 .35635377 .40499879 .33035279 .397995 .30334474 .3919983 .27633668L.34700013 .09628296C.34298707 .08126831 .2999878 .011245728 .23399353 .011245728 .18299866 .011245728 .17199707 .055267335 .17199707 .0922699 .17199707 .1382904 .18899536 .20030213 .22299195 .28833009 .23899842 .3293457 .24299622 .3403473 .24299622 .36035157 .24299622 .405365 .21099854 .4423828 .16099549 .4423828 .06599426 .4423828 .0289917 .29733277 .0289917 .28833009 .0289917 .27833558 .038986207 .27833558 .040985109 .27833558 .050994874 .27833558 .051986696 .28033448 .056991579 .29634095 .083999637 .3903656 .12399292 .42037965 .1579895 .42037965 .1659851 .42037965 .18299866 .42037965 .18299866 .3883667 .18299866 .36335755 .17298889 .3373413 .1659851 .31834413 .12599182 .21231079 .10798645 .1552887 .10798645 .10827637 .10798645 .019256592 .17098999-.0107421879 .22999573-.0107421879 .2689972-.0107421879 .30299378 .0062561037 .33099366 .03425598 .31799317-.017745972 .30599977-.06674194 .2659912-.11973572 .23999024-.15385437 .20199585-.18309021 .1559906-.18309021 .14199829-.18309021 .09700012-.18005371 .07998657-.14074707 .09599304-.14074707 .10899353-.14074707 .12298584-.1287384 .1329956-.11973572 .14299011-.10673523 .14299011-.08773804 .14299011-.056747438 .115997318-.052734376 .10598755-.052734376 .08299255-.052734376 .049987794-.068740848 .049987794-.11773682 .049987794-.16796875 .09399414-.20507813 .1559906-.20507813 .25898744-.20507813 .3619995-.11373901 .3899994-.00074768069L.48599244 .38136292Z"/>
</defs>
<path transform="matrix(1.00002,0,0,-1.00006,18.592103,166.5352)" stroke-width=".19925" stroke-linecap="butt" stroke-miterlimit="10" stroke-linejoin="miter" fill="none" stroke="#929292" d="M38.85527 38.2231V42.47505M77.71057 38.2231V42.47505M116.56587 38.2231V42.47505M155.42118 38.2231V42.47505M194.27646 38.2231V42.47505"/>
<path transform="matrix(1.00002,0,0,-1.00006,18.592103,166.5352)" stroke-width=".19925" stroke-linecap="butt" stroke-miterlimit="10" stroke-linejoin="miter" fill="none" stroke="#929292" d="M-1.41748 20.17455H1.4175"/>
<path transform="matrix(1.00002,0,0,-1.00006,18.592103,166.5352)" stroke-width=".19925" stroke-linecap="butt" stroke-miterlimit="10" stroke-linejoin="miter" fill="none" stroke="#929292" d="M-2.12602 0H2.12602M-2.12602 80.69818H2.12602M-2.12602 121.04727H2.12602M-2.12602 161.39636H2.12602"/>
<path transform="matrix(1.00002,0,0,-1.00006,18.592103,166.5352)" stroke-width=".3985" stroke-linecap="butt" stroke-miterlimit="10" stroke-linejoin="miter" fill="none" stroke="#000000" d="M0 40.34909H192.28394"/>
<path transform="matrix(1.00002,0,0,-1.00006,210.87989,126.18369)" d="M1.99252 0-1.19551 1.59401 0 0-1.19551-1.59401"/>
<path transform="matrix(1.00002,0,0,-1.00006,18.592103,166.5352)" stroke-width=".3985" stroke-linecap="butt" stroke-miterlimit="10" stroke-linejoin="miter" fill="none" stroke="#000000" d="M0 0V159.40384"/>
<path transform="matrix(0,-1.00006,-1.00002,-0,18.592103,7.121811)" d="M1.99252 0-1.19551 1.59401 0 0-1.19551-1.59401"/>
<use data-text="2" xlink:href="#font_1_3" transform="matrix(9.962799,0,0,-9.963197,51.938768,138.2505)"/>
<use data-text="&#x03c0;" xlink:href="#font_2_1" transform="matrix(9.962799,0,0,-9.963197,56.920854,138.2505)"/>
<use data-text="4" xlink:href="#font_1_4" transform="matrix(9.962799,0,0,-9.963197,90.795558,138.2505)"/>
<use data-text="&#x03c0;" xlink:href="#font_2_1" transform="matrix(9.962799,0,0,-9.963197,95.77764,138.2505)"/>
<use data-text="6" xlink:href="#font_1_5" transform="matrix(9.962799,0,0,-9.963197,129.65134,138.2505)"/>
<use data-text="&#x03c0;" xlink:href="#font_2_1" transform="matrix(9.962799,0,0,-9.963197,134.63343,138.2505)"/>
<use data-text="8" xlink:href="#font_1_6" transform="matrix(9.962799,0,0,-9.963197,168.50711,138.2505)"/>
<use data-text="&#x03c0;" xlink:href="#font_2_1" transform="matrix(9.962799,0,0,-9.963197,173.4892,138.2505)"/>
<use data-text="1" xlink:href="#font_1_2" transform="matrix(9.962799,0,0,-9.963197,204.87282,138.2505)"/>
<use data-text="0" xlink:href="#font_1_1" transform="matrix(9.962799,0,0,-9.963197,209.8542,138.2505)"/>
<use data-text="&#x03c0;" xlink:href="#font_2_1" transform="matrix(9.962799,0,0,-9.963197,214.83602,138.2505)"/>
<use data-text="&#x2212;" xlink:href="#font_3_1" transform="matrix(9.962799,0,0,-9.963197,.21573639,169.33037)"/>
<use data-text="2" xlink:href="#font_1_3" transform="matrix(9.962799,0,0,-9.963197,7.964882,169.33037)"/>
<use data-text="2" xlink:href="#font_1_3" transform="matrix(9.962799,0,0,-9.963197,7.9648897,89.04256)"/>
<use data-text="4" xlink:href="#font_1_4" transform="matrix(9.962799,0,0,-9.963197,7.9648897,48.69114)"/>
<use data-text="6" xlink:href="#font_1_5" transform="matrix(9.962799,0,0,-9.963197,7.9648897,8.339706)"/>
<path transform="matrix(1.00002,0,0,-1.00006,18.592103,166.5352)" stroke-width=".99628" stroke-linecap="butt" stroke-miterlimit="10" stroke-linejoin="miter" fill="none" stroke="#0000ff" d="M0 80.69818 .97624 83.8809 1.95251 87.06041 2.92877 90.2286 3.90504 93.38393 4.8813 96.51743 5.85757 99.62755 6.83383 102.70859 7.8101 105.75496 8.78636 108.76176 9.76263 111.725 10.73888 114.64064 11.71515 117.50378 12.6914 120.30725 13.66768 123.051 14.64394 125.72775 15.62021 128.33592 16.59647 130.86743 17.57274 133.32225 18.549 135.6964 19.52527 137.98177 20.50151 140.17919 21.47778 142.2854 22.45404 144.2964 23.43031 146.20491 24.40657 148.01255 25.38284 149.71689 26.3591 151.31392 27.33537 152.79875 28.31163 154.17226 29.2879 155.43276 30.26414 156.57706 31.24042 157.59871 32.21667 158.50412 33.19295 159.28934 34.1692 159.94944 35.14548 160.48607 36.12173 160.90167 37.098 161.19057 38.07428 161.35358 39.05054 161.3899 40.0268 161.30193 41.00305 161.08969 41.97932 160.75077 42.95558 160.28675 43.93185 159.69927 44.90811 158.99234 45.88438 158.15631 46.86064 157.20328 47.83691 156.13242 48.81317 154.94292 49.78943 153.63642 50.76569 152.21694 51.74196 150.6885 52.71822 149.04953 53.69449 147.30242 54.67075 145.4528 55.64702 143.50315 56.62328 141.45421 57.59955 139.31166 58.5758 137.07794 59.55206 134.75627 60.52832 132.35146 61.5046 129.86353 62.48085 127.30138 63.45712 124.66737 64.43338 121.96077 65.40965 119.19281 66.38591 116.36433 67.36218 113.4802 68.33844 110.5452 69.31471 107.56421 70.29095 104.54126 71.26723 101.48119 72.24348 98.3872 73.21976 95.26741 74.19603 92.12422 75.17229 88.96327 76.14856 85.7902 77.12482 82.60667 78.10109 79.42474 79.07735 76.24364 80.0536 73.06654 81.02986 69.90317 82.00613 66.75674 82.98239 63.6313 83.95866 60.5333 84.93492 57.46516 85.9112 54.43173 86.88745 51.44508 87.86372 48.5004 88.83998 45.60414 89.81624 42.76518 90.7925 39.9835 91.76877 37.2664 92.74503 34.61708 93.7213 32.03877 94.69756 29.53793 95.67383 27.11458 96.65009 24.77432 97.62636 22.52284 98.60268 20.36255 99.57883 18.29588 100.55516 16.32281 101.53134 14.45464 102.50766 12.68896 103.484 11.0282 104.46016 9.47395 105.4365 8.03429 106.41266 6.70682 107.38899 5.49391 108.36531 4.3948 109.34146 3.42078 110.3178 2.56456 111.29398 1.82861 112.27031 1.2145 113.24663 .7303 114.2228 .36717 115.19913 .12668 116.1753 .0121 117.15163 .02742 118.12794 .1646 119.10411 .42769 120.08043 .81664 121.05661 1.3299 122.03294 1.9674 123.00926 2.72354 123.98543 3.6072 124.96176 4.60785 125.93793 5.72552 126.91426 6.96101 127.89058 8.31432 128.86676 9.7782 129.84308 11.35179 130.81925 13.03113 131.79558 14.8202 132.7719 16.71178 133.74806 18.70178 134.7244 20.78783 135.70056 22.96588 136.6769 25.23755 137.65323 27.59232 138.6294 30.0302 139.60572 32.5488 140.58188 35.14162 141.55821 37.80385 142.53453 40.53468 143.5107 43.32925 144.48703 46.17871 145.46321 49.08304 146.43953 52.03821 147.41587 55.03613 148.39203 58.07603 149.36835 61.15063 150.34452 64.25348 151.32085 67.38458 152.29717 70.53423 153.27335 73.70163 154.24967 76.87953 155.22585 80.06145 156.20218 83.24338 157.1785 86.42532 158.15467 89.59595 159.13098 92.75449 160.10715 95.89363 161.08348 99.00859 162.0598 102.09448 163.03598 105.1481 164.01232 108.1646 164.98848 111.13509 165.96482 114.06041 166.94113 116.93489 167.9173 119.75287 168.89362 122.50789 169.86978 125.19675 170.84612 127.81865 171.82245 130.36872 172.79862 132.83889 173.77495 135.22594 174.75112 137.53147 175.72745 139.74906 176.70377 141.87223 177.67993 143.90018 178.65625 145.83208 179.63243 147.66152 180.60875 149.38442 181.58509 151.00241 182.56125 152.51149 183.53759 153.90756 184.51375 155.18904 185.49008 156.35514 186.4664 157.40583 187.44258 158.33304 188.41889 159.13922 189.39507 159.82677 190.3714 160.39005 191.34772 160.82904 192.32389 161.14054 193.30022 161.33019 194.27639 161.39473"/>
<use data-text="x" xlink:href="#font_2_2" transform="matrix(9.962799,0,0,-9.963197,203.65882,122.663578)"/>
<use data-text="y" xlink:href="#font_2_3" transform="matrix(9.962799,0,0,-9.963197,22.112175,12.93898)"/>
</svg>
