<svg xmlns="http://www.w3.org/2000/svg" xmlns:xlink="http://www.w3.org/1999/xlink" xmlns:inkscape="http://www.inkscape.org/namespaces/inkscape" version="1.1" width="200" height="164" viewBox="0 0 200 164">
<defs>
<path id="font_1_1" d="M.6589966 .23046875C.6759949 .23046875 .69400027 .23046875 .69400027 .25045777 .69400027 .27046205 .6759949 .27046205 .6589966 .27046205H.117996219C.100997928 .27046205 .08299255 .27046205 .08299255 .25045777 .08299255 .23046875 .100997928 .23046875 .117996219 .23046875H.6589966Z"/>
<path id="font_2_1" d="M.2649994 .37265016H.37799073C.34498597 .22489929 .33599855 .18196106 .33599855 .11508179 .33599855 .100097659 .33599855 .073150638 .34399415 .03919983 .35398866-.0047454836 .36499024-.0107421879 .37998963-.0107421879 .3999939-.0107421879 .42099 .007247925 .42099 .02722168 .42099 .033218385 .42099 .035202028 .4149933 .049179079 .38598634 .12106323 .38598634 .18595886 .38598634 .21391297 .38598634 .26683045 .3929901 .32073976 .4039917 .37265016H.5179901C.5309906 .37265016 .5669861 .37265016 .5669861 .406662 .5669861 .43066407 .54599 .43066407 .5269928 .43066407H.19198609C.16999817 .43066407 .13198853 .43066407 .08799744 .38365174 .052993776 .34469605 .026992798 .29878236 .026992798 .29379273 .026992798 .29278565 .026992798 .28379823 .038986207 .28379823 .04699707 .28379823 .04899597 .28779603 .054992677 .29577638 .10398865 .37265016 .1619873 .37265016 .18199158 .37265016H.23899842C.20698548 .25186158 .15299988 .13105774 .11099243 .04020691 .102996829 .025222779 .102996829 .023223877 .102996829 .016235352 .102996829-.002746582 .11898804-.0107421879 .13198853-.0107421879 .1619873-.0107421879 .16999817 .017242432 .18199158 .05418396 .19599915 .100097659 .19599915 .10209656 .20899964 .15202332L.2649994 .37265016Z"/>
<path id="font_3_3" d="M.1269989 .07699585 .23298645 .18003845C.3889923 .31811524 .44898988 .3721466 .44898988 .47216798 .44898988 .5860901 .35899354 .6660156 .23699951 .6660156 .12399292 .6660156 .049987794 .57411196 .049987794 .48516847 .049987794 .4291687 .099990848 .4291687 .102996829 .4291687 .11999512 .4291687 .15499878 .44117738 .15499878 .48217774 .15499878 .5081787 .13699341 .5341797 .101989749 .5341797 .09399414 .5341797 .09199524 .5341797 .08898926 .5331726 .11199951 .59806826 .1659851 .63500979 .22399903 .63500979 .31498719 .63500979 .35798646 .5541382 .35798646 .47216798 .35798646 .39215089 .30799867 .31311036 .25299073 .25108338L.06098938 .036987306C.049987794 .025985718 .049987794 .023986817 .049987794 0H.42099L.44898988 .17404175H.42399598C.4189911 .14402771 .4119873 .1000061 .4019928 .084991458 .394989 .07699585 .32899476 .07699585 .30699159 .07699585H.1269989Z"/>
<path id="font_3_4" d="M.2899933 .35191346C.37199403 .37893678 .42999269 .4490509 .42999269 .52809146 .42999269 .6100464 .34199525 .6660156 .24598694 .6660156 .14498902 .6660156 .068984989 .60606387 .068984989 .53009036 .068984989 .49710084 .09098816 .47808839 .11999512 .47808839 .15098572 .47808839 .17098999 .50009158 .17098999 .5290985 .17098999 .57910159 .12399292 .57910159 .10899353 .57910159 .13999939 .62802127 .20599365 .64100649 .24198914 .64100649 .2829895 .64100649 .33799745 .6190338 .33799745 .5290985 .33799745 .51708987 .33599855 .45906068 .30999757 .4149933 .27999879 .36691285 .24598694 .36390687 .22099304 .36291505 .21299744 .36190797 .18899536 .35990907 .18199158 .35990907 .17399597 .35890199 .16699219 .35791017 .16699219 .3479004 .16699219 .33691407 .17399597 .33691407 .19099427 .33691407H.23498535C.31698609 .33691407 .35398866 .2686615 .35398866 .17037964 .35398866 .034469606 .2849884 .0055389406 .24099732 .0055389406 .19799805 .0055389406 .12298584 .022491456 .08799744 .08137512 .12298584 .07637024 .1539917 .09837341 .1539917 .1363678 .1539917 .17237854 .1269989 .19238281 .09799194 .19238281 .07398987 .19238281 .041992189 .17837525 .041992189 .1343689 .041992189 .043441774 .1349945-.022460938 .24398804-.022460938 .3659973-.022460938 .45700074 .06838989 .45700074 .17037964 .45700074 .252594 .3939972 .33088685 .2899933 .35191346Z"/>
<path id="font_3_5" d="M.2939911 .16503906V.07800293C.2939911 .041992189 .2919922 .0309906 .21798706 .0309906H.19699097V0C.23799134 .0029907227 .2899933 .0029907227 .33198548 .0029907227 .37399293 .0029907227 .4269867 .0029907227 .46798707 0V.0309906H.44699098C.37298585 .0309906 .37098695 .041992189 .37098695 .07800293V.16503906H.47099305V.19602967H.37098695V.65075686C.37098695 .67074587 .37098695 .6767578 .35499574 .6767578 .34599305 .6767578 .34298707 .6767578 .33499146 .66474917L.027999878 .19602967V.16503906H.2939911M.2999878 .19602967H.055999757L.2999878 .5688019V.19602967Z"/>
<path id="font_3_6" d="M.44898988 .20022583C.44898988 .3193512 .36698915 .41944886 .25898744 .41944886 .21099854 .41944886 .16799927 .40345765 .13198853 .36842347V.5637665C.1519928 .5577698 .18499756 .55078127 .21699524 .55078127 .33999635 .55078127 .4099884 .6417694 .4099884 .6547699 .4099884 .6607666 .40699769 .6657715 .3999939 .6657715 .39898683 .6657715 .39698792 .6657715 .3919983 .66278079 .37199403 .6537781 .32299806 .6337738 .2559967 .6337738 .21598816 .6337738 .16999817 .6407776 .12298584 .6617737 .114990238 .66477969 .11299133 .66477969 .11099243 .66477969 .100997928 .66477969 .100997928 .6567688 .100997928 .6407776V.34439088C.100997928 .32637025 .100997928 .31835938 .114990238 .31835938 .12199402 .31835938 .12399292 .32136537 .12799073 .32736207 .13899231 .3433838 .17599488 .39746095 .25698854 .39746095 .30899049 .39746095 .33399964 .35139466 .34199525 .33337403 .35798646 .29632569 .3600006 .25727845 .3600006 .20722962 .3600006 .17222595 .3600006 .11222839 .33599855 .07035828 .31199647 .031463624 .2749939 .0055389406 .22898865 .0055389406 .1559906 .0055389406 .09899902 .058380128 .08198547 .11723328 .084991458 .1162262 .08799744 .115234378 .09899902 .115234378 .13198853 .115234378 .14898682 .14022827 .14898682 .16423035 .14898682 .18823242 .13198853 .21322632 .09899902 .21322632 .084991458 .21322632 .049987794 .20622254 .049987794 .16023255 .049987794 .07434082 .11898804-.022460938 .23098755-.022460938 .34700013-.022460938 .44898988 .073349 .44898988 .20022583Z"/>
<path id="font_3_7" d="M.13198853 .327713V.35173036C.13198853 .6047821 .2559967 .64100649 .30699159 .64100649 .33099366 .64100649 .37298585 .634964 .394989 .6007538 .37998963 .6007538 .33999635 .6007538 .33999635 .5557556 .33999635 .524765 .3639984 .5097656 .38598634 .5097656 .4019928 .5097656 .43199159 .51875308 .43199159 .5577545 .43199159 .6178589 .3880005 .6660156 .30499269 .6660156 .1769867 .6660156 .041992189 .5367584 .041992189 .31570436 .041992189 .048553468 .1579895-.022460938 .25099183-.022460938 .3619995-.022460938 .45700074 .07156372 .45700074 .2036438 .45700074 .33070375 .36799623 .4267578 .25698854 .4267578 .18899536 .4267578 .1519928 .37573243 .13198853 .327713M.25099183 .0055389406C.18798828 .0055389406 .1579895 .06556702 .1519928 .080566409 .13398743 .127594 .13398743 .2076416 .13398743 .22564698 .13398743 .30369569 .1659851 .40374757 .2559967 .40374757 .27198792 .40374757 .31799317 .40374757 .34899903 .34172059 .36698915 .30470277 .36698915 .2536621 .36698915 .20463562 .36698915 .15661621 .36698915 .10658264 .34999085 .0705719 .31999208 .010528564 .27398683 .0055389406 .25099183 .0055389406Z"/>
<path id="font_3_2" d="M.2939911 .64004519C.2939911 .66400149 .2939911 .6660156 .2709961 .6660156 .20899964 .60227969 .12098694 .60227969 .08898926 .60227969V.57128909C.10899353 .57128909 .16799927 .57128909 .21998596 .5972748V.07902527C.21998596 .042999269 .21699524 .0309906 .1269989 .0309906H.09498596V0C.12998963 .0029907227 .21699524 .0029907227 .25698854 .0029907227 .29699708 .0029907227 .38398744 .0029907227 .4189911 0V.0309906H.3869934C.29699708 .0309906 .2939911 .041992189 .2939911 .07902527V.64004519Z"/>
<path id="font_3_8" d="M.47599793 .609375C.4850006 .6213684 .4850006 .62338259 .4850006 .64437869H.24198914C.11999512 .64437869 .117996219 .65737918 .11399841 .67637637H.08898926L.055999757 .4702301H.08099365C.083999637 .48625184 .09298706 .5493469 .10598755 .56137087 .11299133 .5673828 .19099427 .5673828 .20399475 .5673828H.41099549C.3999939 .5513611 .32099916 .4421997 .29899598 .40914918 .20899964 .27394105 .17599488 .1347351 .17599488 .032577516 .17599488 .022567749 .17599488-.022460938 .22200012-.022460938 .2679901-.022460938 .2679901 .022567749 .2679901 .032577516V.08366394C.2679901 .13873291 .2709961 .19381714 .2789917 .24790955 .2829895 .27093507 .29699708 .35707093 .34098817 .41915895L.47599793 .609375Z"/>
<path id="font_2_3" d="M.48599244 .38136292C.48999024 .39537049 .48999024 .39736939 .48999024 .40437318 .48999024 .42237855 .47599793 .43138124 .46099855 .43138124 .45098878 .43138124 .43499757 .42536927 .42599488 .41036988 .42399598 .405365 .41600038 .37435914 .4119873 .35635377 .40499879 .33035279 .397995 .30334474 .3919983 .27633668L.34700013 .09628296C.34298707 .08126831 .2999878 .011245728 .23399353 .011245728 .18299866 .011245728 .17199707 .055267335 .17199707 .0922699 .17199707 .1382904 .18899536 .20030213 .22299195 .28833009 .23899842 .3293457 .24299622 .3403473 .24299622 .36035157 .24299622 .405365 .21099854 .4423828 .16099549 .4423828 .06599426 .4423828 .0289917 .29733277 .0289917 .28833009 .0289917 .27833558 .038986207 .27833558 .040985109 .27833558 .050994874 .27833558 .051986696 .28033448 .056991579 .29634095 .083999637 .3903656 .12399292 .42037965 .1579895 .42037965 .1659851 .42037965 .18299866 .42037965 .18299866 .3883667 .18299866 .36335755 .17298889 .3373413 .1659851 .31834413 .12599182 .21231079 .10798645 .1552887 .10798645 .10827637 .10798645 .019256592 .17098999-.0107421879 .22999573-.0107421879 .2689972-.0107421879 .30299378 .0062561037 .33099366 .03425598 .31799317-.017745972 .30599977-.06674194 .2659912-.11973572 .23999024-.15385437 .20199585-.18309021 .1559906-.18309021 .14199829-.18309021 .09700012-.18005371 .07998657-.14074707 .09599304-.14074707 .10899353-.14074707 .12298584-.1287384 .1329956-.11973572 .14299011-.10673523 .14299011-.08773804 .14299011-.056747438 .115997318-.052734376 .10598755-.052734376 .08299255-.052734376 .049987794-.068740848 .049987794-.11773682 .049987794-.16796875 .09399414-.20507813 .1559906-.20507813 .25898744-.20507813 .3619995-.11373901 .3899994-.00074768069L.48599244 .38136292Z"/>
<path id="font_3_9" d="M.68699648 .32714845C.70199587 .32714845 .72099307 .32714845 .72099307 .34713746 .72099307 .36714173 .70199587 .36714173 .6879883 .36714173H.08898926C.07499695 .36714173 .055999757 .36714173 .055999757 .34713746 .055999757 .32714845 .07499695 .32714845 .08999634 .32714845H.68699648M.6879883 .13284302C.70199587 .13284302 .72099307 .13284302 .72099307 .15284729 .72099307 .17285156 .70199587 .17285156 .68699648 .17285156H.08999634C.07499695 .17285156 .055999757 .17285156 .055999757 .15284729 .055999757 .13284302 .07499695 .13284302 .08898926 .13284302H.6879883Z"/>
<path id="font_3_10" d="M.116989139 .21801758C.116989139 .38093568 .19898987 .42323304 .2519989 .42323304 .26098634 .42323304 .32398988 .42222596 .35899354 .38594056 .31799317 .38293458 .31199647 .3529358 .31199647 .3399353 .31199647 .31393434 .32998658 .2939453 .35798646 .2939453 .38398744 .2939453 .4039917 .3109436 .4039917 .34094239 .4039917 .40911866 .32798768 .4482422 .25099183 .4482422 .12599182 .4482422 .033996583 .3399353 .033996583 .21601868 .033996583 .08816528 .1329956-.0107421879 .24899292-.0107421879 .3829956-.0107421879 .4149933 .10914612 .4149933 .119140628 .4149933 .12911988 .40499879 .12911988 .4019928 .12911988 .3929901 .12911988 .3909912 .12512207 .3889923 .119140628 .3600006 .026229859 .29499818 .014251709 .2579956 .014251709 .20498657 .014251709 .116989139 .0572052 .116989139 .21801758Z"/>
<path id="font_3_11" d="M.47099305 .21424866C.47099305 .34223939 .37098695 .4482422 .25 .4482422 .125 .4482422 .027999878 .3392334 .027999878 .21424866 .027999878 .085250858 .13198853-.0107421879 .24899292-.0107421879 .36999513-.0107421879 .47099305 .087249759 .47099305 .21424866M.25 .014251709C.20698548 .014251709 .16299439 .035247804 .13598633 .08125305 .11099243 .12524414 .11099243 .18624878 .11099243 .22224427 .11099243 .26124574 .11099243 .31523133 .1349945 .35923768 .1619873 .40522767 .20899964 .426239 .24899292 .426239 .29299928 .426239 .33599855 .40423585 .3619995 .36123658 .3880005 .3182373 .3880005 .26023866 .3880005 .22224427 .3880005 .18624878 .3880005 .13224793 .3659973 .08824158 .34399415 .04324341 .2999878 .014251709 .25 .014251709Z"/>
<path id="font_3_12" d="M.20799256 .19424439C.22999573 .19024658 .31199647 .17424011 .31199647 .102249149 .31199647 .051254274 .2769928 .011245728 .19898987 .011245728 .114990238 .011245728 .07899475 .06825256 .05999756 .15324402 .056991579 .1662445 .055999757 .17024231 .04598999 .17024231 .032989503 .17024231 .032989503 .16323853 .032989503 .14524842V.013244629C.032989503-.003753662 .032989503-.0107421879 .04399109-.0107421879 .04899597-.0107421879 .049987794-.009750366 .068984989 .009246826 .070999149 .011245728 .070999149 .013244629 .08898926 .03224182 .1329956-.009750366 .17799378-.0107421879 .19898987-.0107421879 .31399537-.0107421879 .3600006 .056243898 .3600006 .12825012 .3600006 .1812439 .32998658 .21124268 .31799317 .22323609 .2849884 .25523377 .24598694 .26324464 .20399475 .27124024 .147995 .28224183 .08099365 .2952423 .08099365 .35324098 .08099365 .38822938 .10699463 .42922975 .19299317 .42922975 .30299378 .42922975 .30799867 .3392334 .30999757 .3082428 .31098939 .2992401 .31999208 .2992401 .32199098 .2992401 .33499146 .2992401 .33499146 .304245 .33499146 .3232422V.4242401C.33499146 .4412384 .33499146 .4482422 .32398988 .4482422 .31900025 .4482422 .31698609 .4482422 .3039856 .43623353 .30099488 .43223573 .29100038 .42323304 .2869873 .42022706 .24899292 .4482422 .20799256 .4482422 .19299317 .4482422 .070999149 .4482422 .032989503 .38124085 .032989503 .3252411 .032989503 .29023744 .04899597 .26223756 .07598877 .24023438 .10798645 .21424866 .13598633 .2082367 .20799256 .19424439Z"/>
<path id="font_4_1" d="M.41299439-1.1491852C.41299439-1.1451874 .41099549-1.1431885 .40899659-1.1401825 .36299134-1.0911713 .29499818-1.0101624 .25299073-.84713748 .22999573-.7561188 .22099304-.65309146 .22099304-.56007388 .22099304-.2970276 .28399659-.11299133 .4039917 .017044068 .41299439 .026031495 .41299439 .028030396 .41299439 .030029297 .41299439 .040039064 .40499879 .040039064 .40098573 .040039064 .38598634 .040039064 .33198548-.019973755 .31900025-.034973146 .21699524-.1559906 .1519928-.33602906 .1519928-.5590668 .1519928-.7010956 .1769867-.9021454 .30799867-1.071167 .31799317-1.0831757 .3829956-1.1591797 .40098573-1.1591797 .40499879-1.1591797 .41299439-1.1591797 .41299439-1.1491852Z"/>
<path id="font_5_1" d="M.33499146 .63612368C.33499146 .6630554 .33299256 .6640625 .30499269 .6640625 .24099732 .6014404 .1499939 .6004486 .10899353 .6004486V.5644531C.1329956 .5644531 .19898987 .5644531 .2539978 .592453V.08203125C.2539978 .04899597 .2539978 .035995485 .1539917 .035995485H.115997318V0C.13398743 .0009918213 .25698854 .0039978029 .2939911 .0039978029 .32499696 .0039978029 .45098878 .0009918213 .47299195 0V.035995485H.43499757C.33499146 .035995485 .33499146 .04899597 .33499146 .08203125V.63612368Z"/>
<path id="font_5_2" d="M.5049896 .18203736H.47099305C.46798707 .16001892 .45799256 .100997928 .44499208 .09098816 .43699647 .084991458 .3600006 .084991458 .34599305 .084991458H.1619873C.2669983 .17803955 .3019867 .20603943 .3619995 .25306703 .43598939 .312088 .5049896 .374115 .5049896 .46914674 .5049896 .5900879 .39898683 .6640625 .2709961 .6640625 .14698792 .6640625 .06298828 .57710269 .06298828 .4851532 .06298828 .43414308 .10598755 .42915345 .115997318 .42915345 .13999939 .42915345 .16899109 .44615174 .16899109 .48214723 .16899109 .5001526 .1619873 .53515627 .10998535 .53515627 .14099121 .6060791 .20899964 .62805178 .2559967 .62805178 .35598756 .62805178 .4079895 .5501404 .4079895 .46914674 .4079895 .38212586 .34599305 .3130951 .31399537 .27708436L.07299805 .038986207C.06298828 .02999878 .06298828 .027999878 .06298828 0H.47499085L.5049896 .18203736Z"/>
<path id="font_2_2" d="M.33399964 .30233766C.33999635 .32835389 .36299134 .42037965 .43299867 .42037965 .43798829 .42037965 .46199037 .42037965 .48298646 .40734864 .45498658 .402359 .43499757 .37734986 .43499757 .35334779 .43499757 .33735658 .44599916 .31835938 .47299195 .31835938 .49499513 .31835938 .5269928 .3363495 .5269928 .37635804 .5269928 .42837525 .46798707 .4423828 .43399049 .4423828 .37599183 .4423828 .34098817 .38935853 .32899476 .36634828 .3039856 .43237306 .25 .4423828 .22099304 .4423828 .116989139 .4423828 .05999756 .3133545 .05999756 .28834535 .05999756 .27833558 .069992069 .27833558 .07199097 .27833558 .07998657 .27833558 .08299255 .28033448 .084991458 .28933717 .11898804 .39535523 .18499756 .42037965 .21899414 .42037965 .23799134 .42037965 .272995 .4113617 .272995 .35334779 .272995 .32235719 .2559967 .25532533 .21899414 .11528015 .20298767 .053268434 .16799927 .011245728 .12399292 .011245728 .117996219 .011245728 .09498596 .011245728 .07398987 .024276734 .09899902 .029266358 .12098694 .05027771 .12098694 .07827759 .12098694 .105270389 .09899902 .11328125 .083999637 .11328125 .053985597 .11328125 .0289917 .08728027 .0289917 .055267335 .0289917 .009246826 .07899475-.0107421879 .12298584-.0107421879 .18899536-.0107421879 .22499085 .059280397 .22799683 .0652771 .23999024 .028274537 .27598573-.0107421879 .33599855-.0107421879 .43899537-.0107421879 .49598695 .118270877 .49598695 .14328003 .49598695 .1532898 .4869995 .1532898 .48399354 .1532898 .47499085 .1532898 .47299195 .14929199 .47099305 .14228821 .43798829 .03527832 .36999513 .011245728 .33799745 .011245728 .29899598 .011245728 .2829895 .043273927 .2829895 .07727051 .2829895 .09927368 .2889862 .121276859 .2999878 .16529846L.33399964 .30233766Z"/>
<path id="font_3_1" d="M.40899659 .23046875H.6879883C.70199587 .23046875 .72099307 .23046875 .72099307 .25045777 .72099307 .27046205 .70199587 .27046205 .6879883 .27046205H.40899659V.5500183C.40899659 .56399539 .40899659 .5830078 .3889923 .5830078 .36898805 .5830078 .36898805 .56399539 .36898805 .5500183V.27046205H.08898926C.07499695 .27046205 .055999757 .27046205 .055999757 .25045777 .055999757 .23046875 .07499695 .23046875 .08898926 .23046875H.36898805V-.05000305C.36898805-.06401062 .36898805-.08300781 .3889923-.08300781 .40899659-.08300781 .40899659-.06401062 .40899659-.05000305V.23046875Z"/>
<path id="font_6_1" d="M.31098939 .36265565H.42999269C.4149933 .30274964 .3929901 .2118988 .3929901 .13302613 .3929901 .09309387 .397995 .06613159 .4039917 .044174196 .41999818-.0057678224 .43299867-.009765625 .44898988-.009765625 .47200013-.009765625 .49598695 .011230469 .49598695 .035186769 .49598695 .043182374 .49398805 .047164918 .48799134 .057159425 .46899415 .09408569 .45098878 .15100098 .45098878 .23286438 .45098878 .25183106 .45098878 .29177857 .46499635 .36265565H.58999636C.60798647 .36265565 .6159973 .36265565 .6269989 .37065126 .6409912 .380661 .6439972 .39665223 .6439972 .4016571 .6439972 .43066407 .6179962 .43066407 .6009979 .43066407H.22399903C.18299866 .43066407 .15499878 .42166139 .10998535 .37965394 .083999637 .35665895 .04499817 .30274964 .04499817 .2937622 .04499817 .28178407 .057998659 .28178407 .06199646 .28178407 .07299805 .28178407 .07398987 .28378297 .07998657 .2927704 .1309967 .36265565 .19299317 .36265565 .21499634 .36265565H.27598573C.24499512 .25283814 .19099427 .13502503 .16099549 .07511902 .15499878 .062149049 .14498902 .04118347 .14199829 .03718567 .14099121 .033187868 .13899231 .029190064 .13899231 .022201539 .13899231 .006225586 .15098572-.009765625 .17399597-.009765625 .21398926-.009765625 .22499085 .035186769 .24899292 .12504578L.31098939 .36265565Z"/>
<path id="font_5_3" d="M.272995 .33428956C.35099793 .33428956 .40699769 .2803192 .40699769 .1733551 .40699769 .04940796 .33499146 .012466431 .2769928 .012466431 .23699951 .012466431 .14898682 .0234375 .10699463 .082351688 .1539917 .084350589 .16499329 .11735535 .16499329 .13835144 .16499329 .17034912 .14099121 .19335938 .10998535 .19335938 .08198547 .19335938 .053985597 .17634583 .053985597 .13534546 .053985597 .041412355 .1579895-.01953125 .2789917-.01953125 .41799928-.01953125 .5139923 .07336426 .5139923 .1733551 .5139923 .2513275 .44999696 .32929994 .33999635 .35229493 .44499208 .39024354 .48298646 .4650879 .48298646 .5260773 .48298646 .60505679 .3919983 .6640625 .2809906 .6640625 .16999817 .6640625 .084991458 .61006167 .084991458 .5300751 .084991458 .49606324 .10699463 .47706605 .13699341 .47706605 .16799927 .47706605 .18798828 .5000763 .18798828 .5280762 .18798828 .5570679 .16799927 .57806399 .13699341 .5800781 .17199707 .62405398 .24099732 .63505557 .27799989 .63505557 .32299806 .63505557 .38598634 .6130676 .38598634 .5260773 .38598634 .48406983 .37199403 .43814088 .34599305 .4072113 .31298829 .36927796 .2849884 .3672943 .23498535 .36428834 .20999146 .3623047 .20799256 .3623047 .20298767 .3612976 .20098877 .3612976 .19299317 .3592987 .19299317 .34829713 .19299317 .33428956 .20199585 .33428956 .21899414 .33428956H.272995Z"/>
<path id="font_4_2" d="M.30499269-.56007388C.30499269-.41804505 .27999879-.2170105 .14898682-.047973634 .13899231-.035964967 .07398987 .040039064 .055999757 .040039064 .050994874 .040039064 .04399109 .038024904 .04399109 .030029297 .04399109 .026031495 .04598999 .023025513 .049987794 .02003479 .09799194-.031967164 .16299439-.11299133 .20399475-.27201844 .22698975-.3630371 .23599243-.4660492 .23599243-.5590668 .23599243-.6600952 .22698975-.7621155 .20098877-.86013796 .16299439-1.0001679 .10398865-1.0801697 .052993776-1.1361847 .04399109-1.1451874 .04399109-1.1471863 .04399109-1.1491852 .04399109-1.1571808 .050994874-1.1591797 .055999757-1.1591797 .070999149-1.1591797 .12599182-1.098175 .13798523-1.0841827 .23999024-.96315 .30499269-.7831116 .30499269-.56007388Z"/>
</defs>
<path transform="matrix(1,0,0,-1.00002,3.237999,162.83998)" stroke-width=".19925" stroke-linecap="butt" stroke-miterlimit="10" stroke-linejoin="miter" fill="none" stroke="#7f807f" d="M3.87201 30.86244V33.69731M12.71739 30.86244V33.69731M21.56277 30.86244V33.69731M30.40816 30.86244V33.69731M39.25354 30.86244V33.69731M48.09894 30.86244V33.69731M56.9443 30.86244V33.69731M65.7897 30.86244V33.69731M74.63507 30.86244V33.69731M83.48045 30.86244V33.69731M92.32585 30.86244V33.69731M101.17122 30.86244V33.69731M110.01662 30.86244V33.69731M118.862 30.86244V33.69731M127.70738 30.86244V33.69731M136.55277 30.86244V33.69731M145.39817 30.86244V33.69731M154.24353 30.86244V33.69731M163.08892 30.86244V33.69731M171.93431 30.86244V33.69731M180.77968 30.86244V33.69731M189.62508 30.86244V33.69731"/>
<path transform="matrix(1,0,0,-1.00002,3.237999,162.83998)" stroke-width=".19925" stroke-linecap="butt" stroke-miterlimit="10" stroke-linejoin="miter" fill="none" stroke="#7f807f" d="M3.87201 30.15392V34.4058M56.94402 30.15392V34.4058M83.48003 30.15392V34.4058M110.01604 30.15392V34.4058M136.55205 30.15392V34.4058M163.08806 30.15392V34.4058M189.62407 30.15392V34.4058"/>
<path transform="matrix(1,0,0,-1.00002,3.237999,162.83998)" stroke-width=".19925" stroke-linecap="butt" stroke-miterlimit="10" stroke-linejoin="miter" fill="none" stroke="#7f807f" d="M28.28227 16.13994H32.53377M28.28227 48.41982H32.53377M28.28227 64.55975H32.53377M28.28227 80.69969H32.53377M28.28227 96.83963H32.53377M28.28227 112.97957H32.53377M28.28227 129.11952H32.53377M28.28227 145.25946H32.53377"/>
<path transform="matrix(1,0,0,-1.00002,3.237999,162.83998)" stroke-width=".3985" stroke-linecap="butt" stroke-miterlimit="10" stroke-linejoin="miter" fill="none" stroke="#000000" d="M0 32.27988H192.281"/>
<path transform="matrix(1,0,0,-1.00002,195.51902,130.55945)" d="M1.99252 0-1.19551 1.59401 0 0-1.19551-1.59401"/>
<path transform="matrix(1,0,0,-1.00002,3.237999,162.83998)" stroke-width=".3985" stroke-linecap="butt" stroke-miterlimit="10" stroke-linejoin="miter" fill="none" stroke="#000000" d="M30.40802 0V159.40688"/>
<path transform="matrix(0,-1.00002,-1,-0,33.64602,3.4299165)" d="M1.99252 0-1.19551 1.59401 0 0-1.19551-1.59401"/>
<use data-text="&#x2212;" xlink:href="#font_1_1" transform="matrix(9.9626,0,0,-9.962799,.21700287,142.01657)"/>
<use data-text="&#x03c0;" xlink:href="#font_2_1" transform="matrix(9.9626,0,0,-9.962799,7.9660036,142.01657)"/>
<use data-text="&#x03c0;" xlink:href="#font_2_1" transform="matrix(9.9626,0,0,-9.962799,57.163999,140.49454)"/>
<use data-text="2" xlink:href="#font_3_3" transform="matrix(9.9626,0,0,-9.962799,81.209,142.62558)"/>
<use data-text="&#x03c0;" xlink:href="#font_2_1" transform="matrix(9.9626,0,0,-9.962799,86.19,142.62558)"/>
<use data-text="3" xlink:href="#font_3_4" transform="matrix(9.9626,0,0,-9.962799,107.745,142.62558)"/>
<use data-text="&#x03c0;" xlink:href="#font_2_1" transform="matrix(9.9626,0,0,-9.962799,112.726009,142.62558)"/>
<use data-text="4" xlink:href="#font_3_5" transform="matrix(9.9626,0,0,-9.962799,134.281,142.62558)"/>
<use data-text="&#x03c0;" xlink:href="#font_2_1" transform="matrix(9.9626,0,0,-9.962799,139.262,142.62558)"/>
<use data-text="5" xlink:href="#font_3_6" transform="matrix(9.9626,0,0,-9.962799,160.81699,142.62558)"/>
<use data-text="&#x03c0;" xlink:href="#font_2_1" transform="matrix(9.9626,0,0,-9.962799,165.798,142.62558)"/>
<use data-text="6" xlink:href="#font_3_7" transform="matrix(9.9626,0,0,-9.962799,187.353,142.62558)"/>
<use data-text="&#x03c0;" xlink:href="#font_2_1" transform="matrix(9.9626,0,0,-9.962799,192.33402,142.62558)"/>
<use data-text="&#x2212;" xlink:href="#font_1_1" transform="matrix(9.9626,0,0,-9.962799,15.269997,149.49472)"/>
<use data-text="1" xlink:href="#font_3_2" transform="matrix(9.9626,0,0,-9.962799,23.018998,149.49472)"/>
<use data-text="1" xlink:href="#font_3_2" transform="matrix(9.9626,0,0,-9.962799,23.018998,117.629077)"/>
<use data-text="2" xlink:href="#font_3_3" transform="matrix(9.9626,0,0,-9.962799,23.018998,101.488758)"/>
<use data-text="3" xlink:href="#font_3_4" transform="matrix(9.9626,0,0,-9.962799,23.018998,85.349437)"/>
<use data-text="4" xlink:href="#font_3_5" transform="matrix(9.9626,0,0,-9.962799,23.018998,69.20911)"/>
<use data-text="5" xlink:href="#font_3_6" transform="matrix(9.9626,0,0,-9.962799,23.018998,53.068788)"/>
<use data-text="6" xlink:href="#font_3_7" transform="matrix(9.9626,0,0,-9.962799,23.018998,36.92846)"/>
<use data-text="7" xlink:href="#font_3_8" transform="matrix(9.9626,0,0,-9.962799,23.018998,20.788147)"/>
<path transform="matrix(1,0,0,-1.00002,3.237999,162.83998)" stroke-width=".99628" stroke-linecap="butt" stroke-miterlimit="10" stroke-linejoin="miter" fill="none" stroke="#0000ff" d="M1.06178 130.49834 .97623 130.28159 1.95247 132.587 2.92874 134.71878 3.90498 136.67107 4.88124 138.43354 5.85748 140.00557 6.83372 141.38199 7.81 142.55117 8.78624 143.51634 9.7625 144.27362 10.73872 144.81528 11.71497 145.14196 12.69124 145.25817 13.66748 145.15486 14.64374 144.83658 15.61998 144.30655 16.59622 143.5628 17.5725 142.60733 18.54874 141.44915 19.525 140.08693 20.50124 138.52457 21.47746 136.76985 22.45374 134.82917 23.42998 132.70645 24.40623 130.40877 25.38248 127.94904 26.35873 125.32791 27.33499 122.55959 28.31123 119.65182 29.28749 116.61235 30.26373 113.45409 31.23997 110.18608 32.21623 106.82057 33.19247 103.36662 34.16873 99.83844 35.14497 96.24373 36.12123 92.59999 37.09749 88.91556 38.07373 85.20337 39.04999 81.47699 40.02623 77.74802 41.00249 74.02873 41.97873 70.3314 42.95497 66.66762 43.93123 63.05162 44.90747 59.4944 45.88373 56.0088 46.85999 52.60457 47.83623 49.2933 48.81248 46.0892 49.78873 43 50.76498 40.03479 51.74123 37.20836 52.71747 34.52461 53.69373 31.99516 54.66997 29.6297 55.64622 27.4353 56.62248 25.41588 57.59872 23.58238 58.57498 21.94191 59.55122 20.49384 60.52748 19.24782 61.50374 18.20972 62.47997 17.37755 63.45622 16.75648 64.43246 16.35168 65.40872 16.15929 66.38498 16.18124 67.36122 16.4227 68.33748 16.87656 69.31372 17.54088 70.28998 18.42017 71.26624 19.50607 72.24246 20.7947 73.21872 22.28473 74.19496 23.97104 75.17122 25.8439 76.14748 27.90077 77.12373 30.13713 78.09998 32.53874 79.07622 35.10112 80.05247 37.8178 81.02873 40.67715 82.00499 43.66821 82.98122 46.7845 83.95746 50.0138 84.93372 53.34572 85.90997 56.76932 86.88623 60.27298 87.86247 63.8425 88.83871 67.47075 89.81497 71.14226 90.79123 74.84541 91.76749 78.56921 92.74371 82.29755 93.71996 86.022 94.69621 89.72902 95.67247 93.40634 96.64873 97.03975 97.62497 100.62024 98.60127 104.13359 99.57744 107.56944 100.55374 110.91495 101.5299 114.15971 102.50623 117.29214 103.48251 120.30258 104.45868 123.1826 105.43498 125.918 106.41115 128.5036 107.38747 130.9304 108.36377 133.18677 109.33994 135.27141 110.31624 137.17398 111.2924 138.88417 112.26872 140.40262 113.24501 141.72417 114.22118 142.83588 115.19748 143.74358 116.17366 144.44213 117.14996 144.92632 118.12627 145.19489 119.10243 145.25041 120.07874 145.089 121.05492 144.71263 122.03122 144.1232 123.00752 143.3246 123.98367 142.311 124.95998 141.0947 125.93616 139.6789 126.91246 138.06232 127.88876 136.2553 128.86493 134.26686 129.84123 132.09442 130.81742 129.7522 131.79372 127.24728 132.77002 124.58612 133.74617 121.77649 134.72248 118.83191 135.69866 115.7608 136.67496 112.5709 137.65126 109.27383 138.62743 105.8838 139.60373 102.40855 140.57991 98.86035 141.55622 95.25145 142.53252 91.5948 143.5087 87.90198 144.48497 84.18527 145.46115 80.45758 146.43746 76.72862 147.41376 73.01385 148.38994 69.32426 149.36623 65.67404 150.3424 62.07225 151.31871 58.5318 152.29502 55.06818 153.2712 51.68846 154.24747 48.40497 155.22365 45.23184 156.19995 42.17493 157.17626 39.24652 158.15244 36.45753 159.12873 33.81767 160.1049 31.33212 161.0812 29.0112 162.05751 26.8646 163.03369 24.89551 164.00998 23.11368 164.98615 21.52678 165.96245 20.13231 166.93875 18.94376 167.91493 17.96117 168.89122 17.18707 169.8674 16.62283 170.84372 16.27809 171.82 16.1438 172.79619 16.2258 173.77249 16.52406 174.74864 17.03731 175.72496 17.76166 176.70125 18.6965 177.67743 19.8392 178.65373 21.18332 179.6299 22.7276 180.60622 24.46619 181.5825 26.39073 182.55869 28.49408 183.53499 30.77885 184.51116 33.22566 185.48746 35.82936 186.46375 38.5867 187.43993 41.48286 188.41623 44.50877 189.3924 47.65736 190.36872 50.91698 191.345 54.27344 192.32118 57.719 193.29749 61.24266 193.51525 62.04312"/>
<path transform="matrix(-.36751,.9299686,.92995,.36751736,4.299779,32.339036)" d="M2.8892 0-1.73352 2.31136 0 0-1.73352-2.31136" fill="#0000ff"/>
<path transform="matrix(.2625,-.9649093,-.96489,-.26250524,196.75324,100.795619)" d="M2.8892 0-1.73352 2.31136 0 0-1.73352-2.31136" fill="#0000ff"/>
<use data-text="y" xlink:href="#font_2_3" transform="matrix(9.9626,0,0,-9.962799,68.855998,11.385941)" fill="#0000ff"/>
<use data-text="=" xlink:href="#font_3_9" transform="matrix(9.9626,0,0,-9.962799,76.865,11.385941)" fill="#0000ff"/>
<use data-text="4" xlink:href="#font_3_5" transform="matrix(9.9626,0,0,-9.962799,87.365589,11.385941)" fill="#0000ff"/>
<use data-text="c" xlink:href="#font_3_10" transform="matrix(9.9626,0,0,-9.962799,94.01064,11.385941)" fill="#0000ff"/>
<use data-text="o" xlink:href="#font_3_11" transform="matrix(9.9626,0,0,-9.962799,98.43404,11.385941)" fill="#0000ff"/>
<use data-text="s" xlink:href="#font_3_12" transform="matrix(9.9626,0,0,-9.962799,103.41533,11.385941)" fill="#0000ff"/>
<use data-text="(" xlink:href="#font_4_1" transform="matrix(9.9626,0,0,-9.962799,109.022,3.3157807)" fill="#0000ff"/>
<use data-text="1" xlink:href="#font_5_1" transform="matrix(6.9738,0,0,-6.97394,114.784,7.4628756)" fill="#0000ff"/>
<path transform="matrix(1,0,0,-1.00002,-26.723008,-137.25804)" stroke-width=".3985" stroke-linecap="butt" stroke-miterlimit="10" stroke-linejoin="miter" fill="none" stroke="#0000ff" d="M141.507-146.15H145.478"/>
<use data-text="2" xlink:href="#font_5_2" transform="matrix(6.9738,0,0,-6.97394,114.784,14.821014)" fill="#0000ff"/>
<use data-text="(" xlink:href="#font_4_1" transform="matrix(9.9626,0,0,-9.962799,121.61099,3.3157655)" fill="#0000ff"/>
<use data-text="x" xlink:href="#font_2_2" transform="matrix(9.9626,0,0,-9.962799,126.17699,11.385925)" fill="#0000ff"/>
<use data-text="+" xlink:href="#font_3_1" transform="matrix(9.9626,0,0,-9.962799,134.08499,11.385925)" fill="#0000ff"/>
<use data-text="2" xlink:href="#font_5_2" transform="matrix(6.9738,0,0,-6.97394,145.243,7.462845)" fill="#0000ff"/>
<use data-text="&#x03c0;" xlink:href="#font_6_1" transform="matrix(6.9738,0,0,-6.97394,149.215,7.462845)" fill="#0000ff"/>
<path transform="matrix(1,0,0,-1.00002,-26.723008,-137.25804)" stroke-width=".3985" stroke-linecap="butt" stroke-miterlimit="10" stroke-linejoin="miter" fill="none" stroke="#0000ff" d="M171.966-146.15H180.847"/>
<use data-text="3" xlink:href="#font_5_3" transform="matrix(6.9738,0,0,-6.97394,147.698,14.821014)" fill="#0000ff"/>
<use data-text=")" xlink:href="#font_4_2" transform="matrix(9.9626,0,0,-9.962799,155.319,3.3157655)" fill="#0000ff"/>
<use data-text=")" xlink:href="#font_4_2" transform="matrix(9.9626,0,0,-9.962799,159.88187,3.3157655)" fill="#0000ff"/>
<use data-text="+" xlink:href="#font_3_1" transform="matrix(9.9626,0,0,-9.962799,166.665,11.385925)" fill="#0000ff"/>
<use data-text="3" xlink:href="#font_3_4" transform="matrix(9.9626,0,0,-9.962799,176.61763,11.385925)" fill="#0000ff"/>
<use data-text="x" xlink:href="#font_2_2" transform="matrix(9.9626,0,0,-9.962799,188.298,127.03926)"/>
<use data-text="y" xlink:href="#font_2_3" transform="matrix(9.9626,0,0,-9.962799,37.166,9.246902)"/>
</svg>
