<svg xmlns="http://www.w3.org/2000/svg" xmlns:xlink="http://www.w3.org/1999/xlink" xmlns:inkscape="http://www.inkscape.org/namespaces/inkscape" version="1.1" width="197" height="171" viewBox="0 0 197 171">
<defs>
<path id="font_1_1" d="M.6589966 .23046875C.6759949 .23046875 .69400027 .23046875 .69400027 .25045777 .69400027 .27046205 .6759949 .27046205 .6589966 .27046205H.117996219C.100997928 .27046205 .08299255 .27046205 .08299255 .25045777 .08299255 .23046875 .100997928 .23046875 .117996219 .23046875H.6589966Z"/>
<path id="font_2_4" d="M.15499878 .5588074C.20599365 .5458069 .23599243 .5458069 .2519989 .5458069 .38398744 .5458069 .46199037 .6358032 .46199037 .6508026 .46199037 .6618042 .45498658 .6648102 .44999696 .6648102 .44799806 .6648102 .44599916 .6648102 .44198609 .6618042 .41799928 .6528015 .36499024 .6328125 .29100038 .6328125 .2630005 .6328125 .20999146 .6348114 .14498902 .6598053 .1349945 .6648102 .1329956 .6648102 .13198853 .6648102 .11898804 .6648102 .11898804 .6538086 .11898804 .6378021V.34251405C.11898804 .32548524 .11898804 .3134613 .1349945 .3134613 .14399719 .3134613 .14498902 .3154602 .15499878 .32748414 .19799805 .38259889 .25898744 .390625 .2939911 .390625 .35398866 .390625 .3809967 .34251405 .38598634 .33450318 .4039917 .30143739 .4099884 .26335145 .4099884 .20524597 .4099884 .17524719 .4099884 .116256717 .37998963 .07234192 .35499574 .03640747 .31199647 .012466431 .2630005 .012466431 .19799805 .012466431 .1309967 .04838562 .10598755 .11425781 .14399719 .11125183 .16299439 .13624573 .16299439 .16325379 .16299439 .20625305 .12599182 .21424866 .11299133 .21424866 .11099243 .21424866 .06298828 .21424866 .06298828 .1602478 .06298828 .07034302 .14498902-.01953125 .2649994-.01953125 .3929901-.01953125 .5049896 .07533264 .5049896 .20124817 .5049896 .31445313 .4189911 .41862489 .29499818 .41862489 .25099183 .41862489 .19898987 .4076233 .15499878 .36956788V.5588074Z"/>
<path id="font_3_1" d="M.31098939 .36265565H.42999269C.4149933 .30274964 .3929901 .2118988 .3929901 .13302613 .3929901 .09309387 .397995 .06613159 .4039917 .044174196 .41999818-.0057678224 .43299867-.009765625 .44898988-.009765625 .47200013-.009765625 .49598695 .011230469 .49598695 .035186769 .49598695 .043182374 .49398805 .047164918 .48799134 .057159425 .46899415 .09408569 .45098878 .15100098 .45098878 .23286438 .45098878 .25183106 .45098878 .29177857 .46499635 .36265565H.58999636C.60798647 .36265565 .6159973 .36265565 .6269989 .37065126 .6409912 .380661 .6439972 .39665223 .6439972 .4016571 .6439972 .43066407 .6179962 .43066407 .6009979 .43066407H.22399903C.18299866 .43066407 .15499878 .42166139 .10998535 .37965394 .083999637 .35665895 .04499817 .30274964 .04499817 .2937622 .04499817 .28178407 .057998659 .28178407 .06199646 .28178407 .07299805 .28178407 .07398987 .28378297 .07998657 .2927704 .1309967 .36265565 .19299317 .36265565 .21499634 .36265565H.27598573C.24499512 .25283814 .19099427 .13502503 .16099549 .07511902 .15499878 .062149049 .14498902 .04118347 .14199829 .03718567 .14099121 .033187868 .13899231 .029190064 .13899231 .022201539 .13899231 .006225586 .15098572-.009765625 .17399597-.009765625 .21398926-.009765625 .22499085 .035186769 .24899292 .12504578L.31098939 .36265565Z"/>
<path id="font_2_2" d="M.272995 .33428956C.35099793 .33428956 .40699769 .2803192 .40699769 .1733551 .40699769 .04940796 .33499146 .012466431 .2769928 .012466431 .23699951 .012466431 .14898682 .0234375 .10699463 .082351688 .1539917 .084350589 .16499329 .11735535 .16499329 .13835144 .16499329 .17034912 .14099121 .19335938 .10998535 .19335938 .08198547 .19335938 .053985597 .17634583 .053985597 .13534546 .053985597 .041412355 .1579895-.01953125 .2789917-.01953125 .41799928-.01953125 .5139923 .07336426 .5139923 .1733551 .5139923 .2513275 .44999696 .32929994 .33999635 .35229493 .44499208 .39024354 .48298646 .4650879 .48298646 .5260773 .48298646 .60505679 .3919983 .6640625 .2809906 .6640625 .16999817 .6640625 .084991458 .61006167 .084991458 .5300751 .084991458 .49606324 .10699463 .47706605 .13699341 .47706605 .16799927 .47706605 .18798828 .5000763 .18798828 .5280762 .18798828 .5570679 .16799927 .57806399 .13699341 .5800781 .17199707 .62405398 .24099732 .63505557 .27799989 .63505557 .32299806 .63505557 .38598634 .6130676 .38598634 .5260773 .38598634 .48406983 .37199403 .43814088 .34599305 .4072113 .31298829 .36927796 .2849884 .3672943 .23498535 .36428834 .20999146 .3623047 .20799256 .3623047 .20298767 .3612976 .20098877 .3612976 .19299317 .3592987 .19299317 .34829713 .19299317 .33428956 .20199585 .33428956 .21899414 .33428956H.272995Z"/>
<path id="font_2_1" d="M.5049896 .18203736H.47099305C.46798707 .16001892 .45799256 .100997928 .44499208 .09098816 .43699647 .084991458 .3600006 .084991458 .34599305 .084991458H.1619873C.2669983 .17803955 .3019867 .20603943 .3619995 .25306703 .43598939 .312088 .5049896 .374115 .5049896 .46914674 .5049896 .5900879 .39898683 .6640625 .2709961 .6640625 .14698792 .6640625 .06298828 .57710269 .06298828 .4851532 .06298828 .43414308 .10598755 .42915345 .115997318 .42915345 .13999939 .42915345 .16899109 .44615174 .16899109 .48214723 .16899109 .5001526 .1619873 .53515627 .10998535 .53515627 .14099121 .6060791 .20899964 .62805178 .2559967 .62805178 .35598756 .62805178 .4079895 .5501404 .4079895 .46914674 .4079895 .38212586 .34599305 .3130951 .31399537 .27708436L.07299805 .038986207C.06298828 .02999878 .06298828 .027999878 .06298828 0H.47499085L.5049896 .18203736Z"/>
<path id="font_2_3" d="M.5289917 .1640625V.20005799H.41799928V.64582827C.41799928 .66682437 .41799928 .6738281 .3959961 .6738281 .38398744 .6738281 .37998963 .6738281 .36999513 .65982058L.038986207 .20005799V.1640625H.33299256V.08201599C.33299256 .04800415 .33299256 .035995485 .2519989 .035995485H.22499085V0C.2749939 .0019989014 .33898927 .0039978029 .375 .0039978029 .4119873 .0039978029 .47599793 .0019989014 .526001 0V.035995485H.49899293C.41799928 .035995485 .41799928 .04800415 .41799928 .08201599V.1640625H.5289917M.33999635 .5658722V.20005799H.07598877L.33999635 .5658722Z"/>
<path id="font_4_2" d="M.2939911 .64004519C.2939911 .66400149 .2939911 .6660156 .2709961 .6660156 .20899964 .60227969 .12098694 .60227969 .08898926 .60227969V.57128909C.10899353 .57128909 .16799927 .57128909 .21998596 .5972748V.07902527C.21998596 .042999269 .21699524 .0309906 .1269989 .0309906H.09498596V0C.12998963 .0029907227 .21699524 .0029907227 .25698854 .0029907227 .29699708 .0029907227 .38398744 .0029907227 .4189911 0V.0309906H.3869934C.29699708 .0309906 .2939911 .041992189 .2939911 .07902527V.64004519Z"/>
<path id="font_4_1" d="M.45999146 .31976319C.45999146 .39982606 .45498658 .47988893 .41999818 .5539398 .37399293 .65000918 .2919922 .6660156 .25 .6660156 .18998719 .6660156 .116989139 .64001467 .07598877 .54693606 .04399109 .47789 .038986207 .39982606 .038986207 .31976319 .038986207 .24472046 .042999269 .15464783 .083999637 .07859802 .1269989-.0024719239 .19999695-.022460938 .24899292-.022460938 .30299378-.022460938 .3789978-.0014648438 .4229889 .09359741 .45498658 .16265869 .45999146 .2407074 .45999146 .31976319M.24899292-.00047302247C.20999146-.00047302247 .15098572 .024551392 .1329956 .12062073 .12199402 .18066406 .12199402 .2727356 .12199402 .3317871 .12199402 .39582826 .12199402 .46188355 .12998963 .5159149 .14898682 .63500979 .22399903 .64401248 .24899292 .64401248 .28199769 .64401248 .34799195 .6259918 .36698915 .52693179 .3769989 .47088624 .3769989 .39482118 .3769989 .3317871 .3769989 .25672914 .3769989 .18867493 .3659973 .12461853 .35099793 .029556275 .2939911-.00047302247 .24899292-.00047302247Z"/>
<path id="font_4_3" d="M.44898988 .20022583C.44898988 .3193512 .36698915 .41944886 .25898744 .41944886 .21099854 .41944886 .16799927 .40345765 .13198853 .36842347V.5637665C.1519928 .5577698 .18499756 .55078127 .21699524 .55078127 .33999635 .55078127 .4099884 .6417694 .4099884 .6547699 .4099884 .6607666 .40699769 .6657715 .3999939 .6657715 .39898683 .6657715 .39698792 .6657715 .3919983 .66278079 .37199403 .6537781 .32299806 .6337738 .2559967 .6337738 .21598816 .6337738 .16999817 .6407776 .12298584 .6617737 .114990238 .66477969 .11299133 .66477969 .11099243 .66477969 .100997928 .66477969 .100997928 .6567688 .100997928 .6407776V.34439088C.100997928 .32637025 .100997928 .31835938 .114990238 .31835938 .12199402 .31835938 .12399292 .32136537 .12799073 .32736207 .13899231 .3433838 .17599488 .39746095 .25698854 .39746095 .30899049 .39746095 .33399964 .35139466 .34199525 .33337403 .35798646 .29632569 .3600006 .25727845 .3600006 .20722962 .3600006 .17222595 .3600006 .11222839 .33599855 .07035828 .31199647 .031463624 .2749939 .0055389406 .22898865 .0055389406 .1559906 .0055389406 .09899902 .058380128 .08198547 .11723328 .084991458 .1162262 .08799744 .115234378 .09899902 .115234378 .13198853 .115234378 .14898682 .14022827 .14898682 .16423035 .14898682 .18823242 .13198853 .21322632 .09899902 .21322632 .084991458 .21322632 .049987794 .20622254 .049987794 .16023255 .049987794 .07434082 .11898804-.022460938 .23098755-.022460938 .34700013-.022460938 .44898988 .073349 .44898988 .20022583Z"/>
<path id="font_5_1" d="M.33399964 .30233766C.33999635 .32835389 .36299134 .42037965 .43299867 .42037965 .43798829 .42037965 .46199037 .42037965 .48298646 .40734864 .45498658 .402359 .43499757 .37734986 .43499757 .35334779 .43499757 .33735658 .44599916 .31835938 .47299195 .31835938 .49499513 .31835938 .5269928 .3363495 .5269928 .37635804 .5269928 .42837525 .46798707 .4423828 .43399049 .4423828 .37599183 .4423828 .34098817 .38935853 .32899476 .36634828 .3039856 .43237306 .25 .4423828 .22099304 .4423828 .116989139 .4423828 .05999756 .3133545 .05999756 .28834535 .05999756 .27833558 .069992069 .27833558 .07199097 .27833558 .07998657 .27833558 .08299255 .28033448 .084991458 .28933717 .11898804 .39535523 .18499756 .42037965 .21899414 .42037965 .23799134 .42037965 .272995 .4113617 .272995 .35334779 .272995 .32235719 .2559967 .25532533 .21899414 .11528015 .20298767 .053268434 .16799927 .011245728 .12399292 .011245728 .117996219 .011245728 .09498596 .011245728 .07398987 .024276734 .09899902 .029266358 .12098694 .05027771 .12098694 .07827759 .12098694 .105270389 .09899902 .11328125 .083999637 .11328125 .053985597 .11328125 .0289917 .08728027 .0289917 .055267335 .0289917 .009246826 .07899475-.0107421879 .12298584-.0107421879 .18899536-.0107421879 .22499085 .059280397 .22799683 .0652771 .23999024 .028274537 .27598573-.0107421879 .33599855-.0107421879 .43899537-.0107421879 .49598695 .118270877 .49598695 .14328003 .49598695 .1532898 .4869995 .1532898 .48399354 .1532898 .47499085 .1532898 .47299195 .14929199 .47099305 .14228821 .43798829 .03527832 .36999513 .011245728 .33799745 .011245728 .29899598 .011245728 .2829895 .043273927 .2829895 .07727051 .2829895 .09927368 .2889862 .121276859 .2999878 .16529846L.33399964 .30233766Z"/>
<path id="font_5_2" d="M.48599244 .38136292C.48999024 .39537049 .48999024 .39736939 .48999024 .40437318 .48999024 .42237855 .47599793 .43138124 .46099855 .43138124 .45098878 .43138124 .43499757 .42536927 .42599488 .41036988 .42399598 .405365 .41600038 .37435914 .4119873 .35635377 .40499879 .33035279 .397995 .30334474 .3919983 .27633668L.34700013 .09628296C.34298707 .08126831 .2999878 .011245728 .23399353 .011245728 .18299866 .011245728 .17199707 .055267335 .17199707 .0922699 .17199707 .1382904 .18899536 .20030213 .22299195 .28833009 .23899842 .3293457 .24299622 .3403473 .24299622 .36035157 .24299622 .405365 .21099854 .4423828 .16099549 .4423828 .06599426 .4423828 .0289917 .29733277 .0289917 .28833009 .0289917 .27833558 .038986207 .27833558 .040985109 .27833558 .050994874 .27833558 .051986696 .28033448 .056991579 .29634095 .083999637 .3903656 .12399292 .42037965 .1579895 .42037965 .1659851 .42037965 .18299866 .42037965 .18299866 .3883667 .18299866 .36335755 .17298889 .3373413 .1659851 .31834413 .12599182 .21231079 .10798645 .1552887 .10798645 .10827637 .10798645 .019256592 .17098999-.0107421879 .22999573-.0107421879 .2689972-.0107421879 .30299378 .0062561037 .33099366 .03425598 .31799317-.017745972 .30599977-.06674194 .2659912-.11973572 .23999024-.15385437 .20199585-.18309021 .1559906-.18309021 .14199829-.18309021 .09700012-.18005371 .07998657-.14074707 .09599304-.14074707 .10899353-.14074707 .12298584-.1287384 .1329956-.11973572 .14299011-.10673523 .14299011-.08773804 .14299011-.056747438 .115997318-.052734376 .10598755-.052734376 .08299255-.052734376 .049987794-.068740848 .049987794-.11773682 .049987794-.16796875 .09399414-.20507813 .1559906-.20507813 .25898744-.20507813 .3619995-.11373901 .3899994-.00074768069L.48599244 .38136292Z"/>
</defs>
<path transform="matrix(1.00006,0,0,-1.00006,1.0959854,166.5352)" stroke-width=".19925" stroke-linecap="butt" stroke-miterlimit="10" stroke-linejoin="miter" fill="none" stroke="#7f807f" d="M7.16013 79.28084V82.1155M22.15659 79.28084V82.1155M37.15305 79.28084V82.1155M52.1495 79.28084V82.1155M67.14598 79.28084V82.1155M82.14244 79.28084V82.1155M97.1389 79.28084V82.1155M112.13536 79.28084V82.1155M127.13182 79.28084V82.1155M142.1283 79.28084V82.1155M157.12477 79.28084V82.1155M172.12123 79.28084V82.1155M187.11768 79.28084V82.1155"/>
<path transform="matrix(1.00006,0,0,-1.00006,1.0959854,166.5352)" stroke-width=".19925" stroke-linecap="butt" stroke-miterlimit="10" stroke-linejoin="miter" fill="none" stroke="#7f807f" d="M22.15659 78.57237V82.82396M67.14499 78.57237V82.82396M112.13316 78.57237V82.82396M157.12027 78.57237V82.82396"/>
<path transform="matrix(1.00006,0,0,-1.00006,1.0959854,166.5352)" stroke-width=".19925" stroke-linecap="butt" stroke-miterlimit="10" stroke-linejoin="miter" fill="none" stroke="#7f807f" d="M95.0111 0H99.26286M95.0111 40.34909H99.26286M95.0111 121.04727H99.26286M95.0111 161.39636H99.26286"/>
<path transform="matrix(1.00006,0,0,-1.00006,1.0959854,166.5352)" stroke-width=".3985" stroke-linecap="butt" stroke-miterlimit="10" stroke-linejoin="miter" fill="none" stroke="#000000" d="M0 80.69818H192.28145"/>
<path transform="matrix(1.00006,0,0,-1.00006,193.38898,85.832187)" d="M1.99252 0-1.19551 1.59401 0 0-1.19551-1.59401"/>
<path transform="matrix(1.00006,0,0,-1.00006,1.0959854,166.5352)" stroke-width=".3985" stroke-linecap="butt" stroke-miterlimit="10" stroke-linejoin="miter" fill="none" stroke="#000000" d="M97.137 0V159.40384"/>
<path transform="matrix(0,-1.00006,-1.00006,-0,98.23881,7.121811)" d="M1.99252 0-1.19551 1.59401 0 0-1.19551-1.59401"/>
<use data-text="&#x2212;" xlink:href="#font_1_1" transform="matrix(9.963197,0,0,-9.963197,13.742744,99.8952)"/>
<use data-text="5" xlink:href="#font_2_4" transform="matrix(6.9742186,0,0,-6.9742186,22.687279,95.97197)"/>
<use data-text="&#x03c0;" xlink:href="#font_3_1" transform="matrix(6.9742186,0,0,-6.9742186,26.659516,95.97197)"/>
<path transform="matrix(1.00006,0,0,-1.00006,-69.55725,-46.703584)" stroke-width=".3985" stroke-linecap="butt" stroke-miterlimit="10" stroke-linejoin="miter" fill="none" stroke="#000000" d="M92.239-144.099H101.12"/>
<use data-text="3" xlink:href="#font_2_2" transform="matrix(6.9742186,0,0,-6.9742186,25.142426,103.330417)"/>
<use data-text="&#x2212;" xlink:href="#font_1_1" transform="matrix(9.963197,0,0,-9.963197,58.73444,99.8952)"/>
<use data-text="2" xlink:href="#font_2_1" transform="matrix(6.9742186,0,0,-6.9742186,67.67897,95.97197)"/>
<use data-text="&#x03c0;" xlink:href="#font_3_1" transform="matrix(6.9742186,0,0,-6.9742186,71.651218,95.97197)"/>
<path transform="matrix(1.00006,0,0,-1.00006,-24.565556,-46.703584)" stroke-width=".3985" stroke-linecap="butt" stroke-miterlimit="10" stroke-linejoin="miter" fill="none" stroke="#000000" d="M92.239-144.099H101.12"/>
<use data-text="3" xlink:href="#font_2_2" transform="matrix(6.9742186,0,0,-6.9742186,70.134128,103.330417)"/>
<use data-text="&#x03c0;" xlink:href="#font_3_1" transform="matrix(6.9742186,0,0,-6.9742186,110.78156,94.4809)"/>
<path transform="matrix(1.00006,0,0,-1.00006,26.2855,-48.194665)" stroke-width=".3985" stroke-linecap="butt" stroke-miterlimit="10" stroke-linejoin="miter" fill="none" stroke="#000000" d="M84.491-144.099H89.4"/>
<use data-text="3" xlink:href="#font_2_2" transform="matrix(6.9742186,0,0,-6.9742186,111.250598,101.83933)"/>
<use data-text="4" xlink:href="#font_2_3" transform="matrix(6.9742186,0,0,-6.9742186,153.78614,95.971988)"/>
<use data-text="&#x03c0;" xlink:href="#font_3_1" transform="matrix(6.9742186,0,0,-6.9742186,157.75737,95.971988)"/>
<path transform="matrix(1.00006,0,0,-1.00006,69.29007,-46.703584)" stroke-width=".3985" stroke-linecap="butt" stroke-miterlimit="10" stroke-linejoin="miter" fill="none" stroke="#000000" d="M84.491-144.099H93.371"/>
<use data-text="3" xlink:href="#font_2_2" transform="matrix(6.9742186,0,0,-6.9742186,156.24028,103.330417)"/>
<use data-text="&#x2212;" xlink:href="#font_1_1" transform="matrix(9.963197,0,0,-9.963197,74.88041,169.33037)"/>
<use data-text="1" xlink:href="#font_4_2" transform="matrix(9.963197,0,0,-9.963197,82.629878,169.33037)"/>
<use data-text="0" xlink:href="#font_4_1" transform="matrix(9.963197,0,0,-9.963197,87.61147,169.33037)"/>
<use data-text="&#x2212;" xlink:href="#font_1_1" transform="matrix(9.963197,0,0,-9.963197,79.86171,128.97895)"/>
<use data-text="5" xlink:href="#font_4_3" transform="matrix(9.963197,0,0,-9.963197,87.611179,128.97895)"/>
<use data-text="5" xlink:href="#font_4_3" transform="matrix(9.963197,0,0,-9.963197,87.611179,48.69114)"/>
<use data-text="1" xlink:href="#font_4_2" transform="matrix(9.963197,0,0,-9.963197,82.628879,8.339706)"/>
<use data-text="0" xlink:href="#font_4_1" transform="matrix(9.963197,0,0,-9.963197,87.61047,8.339706)"/>
<path transform="matrix(1.00006,0,0,-1.00006,1.0959854,166.5352)" stroke-width=".99628" stroke-linecap="butt" stroke-miterlimit="10" stroke-linejoin="miter" fill="none" stroke="#0000ff" d="M9.46365 90.4351 7.22943 92.1264 7.29874 92.07379 7.36806 92.02109 7.43736 91.96806 7.50668 91.91458 7.57599 91.86092 7.64531 91.80675 7.71461 91.75244 7.78394 91.69766 7.85324 91.64261 7.92256 91.58717 7.99187 91.53123 8.06119 91.4754 8.1305 91.41876 8.1998 91.36195 8.26912 91.30457 8.33842 91.2472 8.40775 91.18893 8.47705 91.13074 8.54637 91.07184 8.61568 91.01276 8.685 90.95305 8.7543 90.8931 8.82362 90.8325 8.89294 90.77162 8.96227 90.71022 9.03157 90.64842 9.10089 90.58612 9.1702 90.5234 9.2395 90.46024 9.30882 90.39647 9.37813 90.33232 9.44745 90.26752 9.51675 90.20224 9.58607 90.13678 9.65538 90.07013 9.7247 90.00365 9.794 89.93617 9.86333 89.86823 9.93263 89.79987 10.00195 89.73071 10.07126 89.66107 10.14058 89.59087 10.20988 89.51985 10.27919 89.44858 10.34851 89.37628 10.41782 89.3035 10.48714 89.22998 10.55644 89.15614 10.62576 89.08133 10.69507 89.00589 10.76439 88.92955 10.8337 88.8527 10.90302 88.775 10.97232 88.69641 11.04164 88.61708 11.11095 88.53711 11.18027 88.45631 11.24957 88.37482 11.31888 88.2926 11.3882 88.2093 11.4575 88.12498 11.52682 88.03984 11.59613 87.95413 11.66545 87.8674 11.73477 87.7796 11.8041 87.69066 11.8734 87.60109 11.94272 87.5103 12.01202 87.4183 12.08134 87.32542 12.15065 87.23213 12.21997 87.13684 12.28928 87.04063 12.35858 86.94339 12.4279 86.84511 12.49721 86.74545 12.56653 86.6449 12.63583 86.54306 12.70515 86.43959 12.77446 86.3351 12.84378 86.2293 12.91309 86.12189 12.9824 86.01295 13.05171 85.9032 13.12103 85.79167 13.19034 85.67879 13.25966 85.5641 13.32896 85.44789 13.39827 85.3304 13.46759 85.21104 13.53691 85.09009 13.60622 84.96727 13.67552 84.84259 13.74484 84.7162 13.81415 84.58904 13.88347 84.45862 13.95277 84.32677 14.0221 84.19247 14.0914 84.05643 14.16072 83.91852 14.23003 83.77841 14.29935 83.63567 14.36865 83.49136 14.43797 83.3441 14.50728 83.19423 14.5766 83.0427 14.64592 82.88815 14.71523 82.73152 14.78455 82.57158 14.85387 82.40865 14.92317 82.24377 14.99248 82.07527 15.0618 81.90387 15.1311 81.72949 15.20042 81.55139 15.26973 81.37047 15.33905 81.18591 15.40836 80.99861 15.47768 80.80768 15.54698 80.61263 15.61629 80.41298 15.68561 80.21059 15.75491 80.00385 15.82423 79.79216 15.89355 79.57726 15.96286 79.35689 16.03217 79.13214 16.10149 78.90295 16.17079 78.6678 16.24011 78.42877 16.30942 78.18384 16.37874 77.93207 16.44804 77.67642 16.51736 77.41295 16.58667 77.14519 16.65598 76.87123 16.7253 76.5891 16.7946 76.30013 16.86392 76.00476 16.93324 75.70255 17.00255 75.39017 17.07185 75.07294 17.14117 74.7441 17.21048 74.4088 17.2798 74.0634 17.3491 73.70778 17.41844 73.3422 17.48775 72.96648 17.55707 72.57921 17.62637 72.18346 17.69568 71.77351 17.765 71.35155 17.8343 70.916 17.90363 70.4679 17.97295 70.00203 18.04225 69.52437 18.11156 69.03017 18.18088 68.51735 18.25018 67.98982 18.3195 67.44188 18.38881 66.87595 18.45813 66.28651 18.52744 65.67442 18.59676 65.04143 18.66606 64.38197 18.73537 63.6991 18.80469 62.98508 18.874 62.24765 18.94331 61.47304 19.01263 60.66742 19.08194 59.82791 19.15126 58.94653 19.22057 58.02425 19.28987 57.05708 19.35919 56.04552 19.4285 54.9845 19.49782 53.8665 19.56712 52.68895 19.63644 51.45049 19.70575 50.1343 19.77505 48.74654 19.84438 47.28265 19.91368 45.7222 19.983 44.07193 20.05232 42.30568 20.12163 40.42024 20.19095 38.40417 20.26027 36.24089 20.32957 33.91348 20.3989 31.40497 20.4682 28.68369 20.53752 25.74359 20.60683 22.53003 20.67615 19.02417 20.74545 15.17125 20.81476 10.93137 20.88408 6.22101 20.91502 3.88626"/>
<path transform="matrix(-.79733785,-.6035862,-.6035862,.79733785,10.560203,76.09469)" d="M2.8892 0-1.73352 2.31136 0 0-1.73352-2.31136" fill="#0000ff"/>
<path transform="matrix(.013280796,.99994,.99994,-.013280796,22.01226,162.64871)" d="M2.8892 0-1.73352 2.31136 0 0-1.73352-2.31136" fill="#0000ff"/>
<path transform="matrix(1.00006,0,0,-1.00006,1.0959854,166.5352)" stroke-width=".99628" stroke-linecap="butt" stroke-miterlimit="10" stroke-linejoin="miter" fill="none" stroke="#0000ff" d="M24.03545 158.16698 24.15764 154.20243 24.36867 148.66347 24.57971 144.0715 24.79074 140.21268 25.00175 136.91785 25.2128 134.07251 25.42383 131.59185 25.63486 129.40534 25.84589 127.46373 26.05692 125.72986 26.26794 124.1685 26.47897 122.75555 26.69002 121.46922 26.90103 120.29564 27.11206 119.21768 27.3231 118.22533 27.53413 117.30762 27.74516 116.45473 27.95619 115.66106 28.16722 114.92041 28.37825 114.22762 28.5893 113.57735 28.80031 112.9655 29.01134 112.38834 29.22238 111.84274 29.43341 111.32668 29.64444 110.8375 29.85547 110.3721 30.0665 109.93011 30.27753 109.50824 30.48856 109.10521 30.6996 108.72063 30.91061 108.35133 31.12164 107.9982 31.33269 107.65846 31.54372 107.33228 31.75473 107.01845 31.96577 106.7155 32.1768 106.4233 32.38783 106.14182 32.59888 105.86946 32.80989 105.60565 33.02092 105.35065 33.23196 105.10313 33.443 104.86307 33.654 104.62968 33.86505 104.40367 34.07608 104.18312 34.28711 103.96829 34.49814 103.75937 34.70917 103.55562 34.9202 103.3566 35.13123 103.16245 35.34227 102.97255 35.55328 102.78687 35.76431 102.6053 35.97536 102.42752 36.18639 102.25345 36.3974 102.08261 36.60844 101.91484 36.81947 101.7504 37.0305 101.5889 37.24155 101.43018 37.45256 101.27402 37.66359 101.12038 37.87463 100.96915 38.08566 100.82025 38.29669 100.67346 38.50772 100.52853 38.71875 100.3857 38.92978 100.24472 39.14081 100.10527 39.35184 99.96776 39.56287 99.83171 39.7739 99.69725 39.98494 99.56403 40.19597 99.43224 40.40698 99.30151 40.61803 99.17207 40.82906 99.04391 41.04008 98.91635 41.25111 98.79022 41.46214 98.66481 41.67317 98.54013 41.88422 98.41624 42.09525 98.2931 42.30626 98.17061 42.5173 98.04868 42.72833 97.92747 42.93936 97.80667 43.15038 97.6861 43.36142 97.56616 43.57245 97.44641 43.78348 97.32695 43.99452 97.20766 44.20554 97.0885 44.41656 96.9696 44.62761 96.85065 44.83864 96.73177 45.04967 96.61296 45.26071 96.49377 45.47173 96.37453 45.68275 96.25523 45.89378 96.13548 46.10481 96.01566 46.31586 95.89525 46.52687 95.77428 46.73792 95.65324 46.94893 95.53146 47.15996 95.40921 47.37102 95.28606 47.58202 95.16243 47.79306 95.03792 48.00409 94.9129 48.21512 94.78662 48.42616 94.65952 48.63718 94.53137 48.84822 94.40216 49.05922 94.27176 49.27028 94.14014 49.48132 94.0074 49.69232 93.87318 49.90338 93.73738 50.11438 93.6002 50.32542 93.46132 50.53648 93.32065 50.74748 93.17813 50.95853 93.03392 51.16953 92.88747 51.38058 92.739 51.59161 92.58841 51.80263 92.43507 52.01369 92.27957 52.22469 92.12125 52.43573 91.96024 52.64677 91.7965 52.85779 91.62955 53.06882 91.4596 53.27985 91.28625 53.49089 91.1092 53.70192 90.92868 53.91295 90.74356 54.12398 90.55481 54.33499 90.36186 54.54605 90.16374 54.75708 89.96095 54.9681 89.75323 55.17912 89.53954 55.39015 89.32053 55.60118 89.09538 55.81223 88.86371 56.02325 88.62498 56.23428 88.37933 56.4453 88.12587 56.65634 87.86418 56.86739 87.59375 57.07838 87.31412 57.28944 87.02449 57.50046 86.72406 57.71149 86.41281 57.92255 86.0893 58.13354 85.75238 58.34459 85.402 58.5556 85.03683 58.76665 84.65561 58.97769 84.2564 59.18869 83.8391 59.39975 83.40115 59.61075 82.94084 59.8218 82.45706 60.03285 81.94688 60.24385 81.40791 60.4549 80.83867 60.66591 80.23431 60.87695 79.5926 61.088 78.9091 61.29901 78.17911 61.51006 77.39705 61.72105 76.55843 61.93211 75.65567 62.14314 74.67953 62.35416 73.62134 62.56522 72.46889 62.77621 71.20912 62.98726 69.82666 63.19829 68.29865 63.40932 66.60568 63.62035 64.70926 63.83136 62.58385 64.04242 60.17259 64.25345 57.4131 64.46446 54.22255 64.6755 50.49623 64.88652 46.07928 65.09755 40.7637 65.30861 34.23369 65.51962 26.01096 65.73065 15.37299 65.89928 3.89752"/>
<path transform="matrix(-.030751845,-.9995399,-.9995399,.030751845,25.132878,8.358749)" d="M2.8892 0-1.73352 2.31136 0 0-1.73352-2.31136" fill="#0000ff"/>
<path transform="matrix(.01468088,.99991998,.99991998,-.01468088,66.9992,162.63742)" d="M2.8892 0-1.73352 2.31136 0 0-1.73352-2.31136" fill="#0000ff"/>
<path transform="matrix(1.00006,0,0,-1.00006,1.0959854,166.5352)" stroke-width=".99628" stroke-linecap="butt" stroke-miterlimit="10" stroke-linejoin="miter" fill="none" stroke="#0000ff" d="M69.0239 158.16698 69.14606 154.20299 69.35707 148.66347 69.5681 144.0715 69.77913 140.21268 69.99016 136.91872 70.20117 134.07251 70.41222 131.59258 70.62323 129.40654 70.83426 127.46461 71.04529 125.7292 71.25632 124.16875 71.46733 122.75555 71.67838 121.47084 71.88939 120.29636 72.10042 119.21825 72.31145 118.22533 72.52248 117.30762 72.73349 116.45569 72.94453 115.66196 73.15555 114.92041 73.36658 114.22739 73.57759 113.57776 73.78864 112.9655 73.99965 112.38802 74.21068 111.84396 74.4217 111.32707 74.63274 110.83821 74.84375 110.37299 75.0548 109.93059 75.26582 109.50824 75.47684 109.10553 75.68787 108.72084 75.8989 108.35175 76.10991 107.9982 76.32095 107.65846 76.53198 107.33252 76.743 107.01845 76.95403 106.71559 77.16505 106.42352 77.37608 106.14214 77.5871 105.8697 77.79814 105.60605 78.00916 105.35081 78.22018 105.1034 78.43121 104.86324 78.64224 104.63002 78.85326 104.40375 79.0643 104.18335 79.27531 103.96861 79.48634 103.75954 79.69737 103.55568 79.9084 103.35701 80.11942 103.16252 80.33046 102.9728 80.54147 102.78712 80.7525 102.6057 80.96353 102.42776 81.17456 102.25354 81.38557 102.08278 81.59662 101.91533 81.80763 101.7508 82.01866 101.58922 82.22968 101.4305 82.44072 101.27426 82.65173 101.12045 82.86276 100.96939 83.07379 100.8204 83.28482 100.6737 83.49583 100.52895 83.70688 100.38611 83.9179 100.24496 84.12892 100.10567 84.33995 99.96808 84.55098 99.83194 84.762 99.69725 84.97304 99.56427 85.18405 99.4324 85.39508 99.30183 85.60611 99.17241 85.81714 99.04391 86.02815 98.9166 86.23918 98.79022 86.45021 98.66489 86.66124 98.54054 86.87225 98.4165 87.0833 98.29335 87.29431 98.17085 87.50534 98.049 87.71637 97.92772 87.9274 97.8069 88.13841 97.68634 88.34946 97.56642 88.56047 97.44666 88.7715 97.32712 88.98253 97.20781 89.19356 97.08873 89.40457 96.96983 89.61562 96.85089 89.82663 96.73209 90.03766 96.61311 90.2487 96.49402 90.4597 96.37477 90.67075 96.25539 90.88174 96.13573 91.09279 96.0159 91.30383 95.89542 91.51483 95.77477 91.72588 95.65347 91.93689 95.53171 92.14792 95.40929 92.35896 95.2863 92.56998 95.16266 92.781 95.03839 92.99202 94.91315 93.20306 94.78711 93.4141 94.65976 93.6251 94.53186 93.83614 94.4024 94.04715 94.27216 94.2582 94.14078 94.46922 94.00764 94.68024 93.8736 94.89128 93.73787 95.10228 93.6006 95.31332 93.46155 95.52435 93.32106 95.73537 93.17854 95.9464 93.03441 96.15741 92.88794 96.36845 92.73923 96.57948 92.58871 96.7905 92.43547 97.00154 92.27997 97.21254 92.12181 97.42358 91.9608 97.63463 91.79698 97.84563 91.63019 98.05667 91.46008 98.26768 91.28673 98.47871 91.10953 98.68976 90.92892 98.90077 90.7442 99.1118 90.55528 99.3228 90.36226 99.53384 90.1643 99.74489 89.96143 99.95589 89.75356 100.16693 89.54027 100.37794 89.32126 100.58897 89.09612 100.80002 88.86443 101.01103 88.62587 101.22206 88.38007 101.43306 88.12668 101.64412 87.86513 101.85515 87.59448 102.06615 87.31485 102.2772 87.02539 102.4882 86.72519 102.69923 86.41379 102.9103 86.09026 103.12129 85.75374 103.33232 85.40318 103.54333 85.03796 103.75438 84.65674 103.96541 84.25769 104.1764 83.84023 104.38747 83.4026 104.59846 82.94206 104.8095 82.459 105.02055 81.94833 105.23155 81.41016 105.44258 80.84117 105.6536 80.23625 105.86464 79.59486 106.07567 78.9111 106.28668 78.18248 106.49773 77.40068 106.70872 76.56255 106.91977 75.65906 107.13081 74.68277 107.34181 73.6244 107.55286 72.47308 107.76385 71.21451 107.9749 69.83185 108.18593 68.30551 108.39696 66.61037 108.60799 64.71848 108.81898 62.5924 109.03004 60.18018 109.24107 57.42577 109.45207 54.23706 109.66312 50.5152 109.87413 46.0998 110.08516 40.78809 110.2962 34.26483 110.50722 26.06163 110.71825 15.41414 110.88681 3.94592"/>
<path transform="matrix(-.030761844,-.9995399,-.9995399,.030761844,70.12403,8.358749)" d="M2.8892 0-1.73352 2.31136 0 0-1.73352-2.31136" fill="#0000ff"/>
<path transform="matrix(.014700881,.99991998,.99991998,-.014700881,111.98944,162.58902)" d="M2.8892 0-1.73352 2.31136 0 0-1.73352-2.31136" fill="#0000ff"/>
<path transform="matrix(1.00006,0,0,-1.00006,1.0959854,166.5352)" stroke-width=".99628" stroke-linecap="butt" stroke-miterlimit="10" stroke-linejoin="miter" fill="none" stroke="#0000ff" d="M114.01189 158.18296 114.13403 154.22357 114.34506 148.66783 114.55609 144.08103 114.76714 140.21736 114.97815 136.9247 115.18918 134.08036 115.40022 131.59719 115.61125 129.41196 115.82227 127.46857 116.03331 125.73308 116.24434 124.17068 116.45537 122.75822 116.66641 121.47366 116.87743 120.29893 117.08846 119.22017 117.29948 118.22766 117.51053 117.30931 117.72154 116.45634 117.93257 115.66292 118.14362 114.92212 118.35464 114.22963 118.56567 113.5788 118.7767 112.96623 118.98773 112.38956 119.19876 111.84442 119.4098 111.32758 119.62082 110.83846 119.83185 110.37387 120.0429 109.93085 120.25392 109.50919 120.46495 109.10635 120.67598 108.7214 120.88701 108.35272 121.09804 107.99884 121.30907 107.65912 121.5201 107.3326 121.73112 107.01868 121.94215 106.71606 122.1532 106.42426 122.36423 106.14246 122.57524 105.86995 122.78629 105.60655 122.99731 105.35106 123.20834 105.10371 123.41937 104.86363 123.6304 104.63034 123.84143 104.40399 124.05247 104.1836 124.2635 103.96895 124.47452 103.75984 124.68556 103.55585 124.89659 103.35701 125.10762 103.16293 125.31865 102.97305 125.52968 102.7872 125.7407 102.6057 125.95174 102.42793 126.16278 102.25377 126.3738 102.08302 126.58482 101.91557 126.79587 101.75095 127.0069 101.58931 127.21793 101.4305 127.42896 101.27434 127.63998 101.12062 127.85101 100.96954 128.06206 100.8204 128.27309 100.6737 128.4841 100.52878 128.69515 100.38611 128.90618 100.24512 129.1172 100.10567 129.32822 99.96817 129.53926 99.83209 129.75029 99.69766 129.96132 99.56444 130.17237 99.4325 130.38338 99.30176 130.5944 99.17241 130.80545 99.04408 131.01648 98.91682 131.2275 98.79045 131.43854 98.66504 131.64957 98.54054 131.8606 98.41666 132.07164 98.29327 132.28266 98.17085 132.49369 98.049 132.70473 97.9278 132.91576 97.80699 133.12677 97.68643 133.3378 97.56642 133.54885 97.44666 133.75988 97.3272 133.9709 97.20798 134.18193 97.08873 134.39296 96.96983 134.60399 96.85097 134.81504 96.73216 135.02605 96.6132 135.23709 96.49419 135.44812 96.37486 135.65915 96.25539 135.87017 96.13573 136.0812 96.0159 136.29225 95.89557 136.50325 95.77477 136.71431 95.65347 136.92533 95.53171 137.13636 95.40929 137.3474 95.28638 137.55841 95.16266 137.76946 95.0383 137.98046 94.91315 138.19152 94.78694 138.40256 94.65976 138.61356 94.53171 138.82462 94.4024 139.03562 94.272 139.24666 94.14053 139.4577 94.00772 139.66872 93.87344 139.87976 93.7377 140.09078 93.6006 140.30182 93.46155 140.51285 93.32106 140.72388 93.17854 140.93492 93.03418 141.14592 92.88786 141.35698 92.7394 141.56801 92.58864 141.77902 92.43547 141.99007 92.27972 142.20108 92.12181 142.41213 91.9608 142.62316 91.7969 142.83419 91.63019 143.04521 91.46 143.25623 91.28673 143.46729 91.10953 143.67832 90.92892 143.88933 90.7442 144.10037 90.55528 144.31139 90.36201 144.52242 90.16422 144.73348 89.96143 144.94449 89.75348 145.15552 89.54002 145.36655 89.32126 145.57758 89.09602 145.78862 88.86427 145.99962 88.62563 146.21068 88.37982 146.42169 88.12643 146.63272 87.86488 146.84378 87.59415 147.05478 87.31485 147.26583 87.02522 147.47686 86.72496 147.68788 86.41321 147.89893 86.08961 148.10994 85.75333 148.32099 85.40294 148.53199 85.03723 148.74304 84.656 148.95409 84.25745 149.16509 83.83975 149.37615 83.40211 149.58715 82.94182 149.79819 82.45851 150.00922 81.94778 150.22025 81.40968 150.43129 80.8402 150.64229 80.23593 150.85335 79.59422 151.06438 78.9111 151.27539 78.18039 151.48645 77.39946 151.69745 76.56053 151.9085 75.65784 152.11954 74.6826 152.33055 73.62376 152.54158 72.47147 152.75261 71.21332 152.96366 69.82997 153.17469 68.30446 153.38571 66.60674 153.59674 64.71516 153.80776 62.58723 154.0188 60.17847 154.22985 57.419 154.44086 54.22932 154.65189 50.50656 154.86292 46.09639 155.07395 40.78404 155.28499 34.25499 155.496 26.04291 155.70705 15.38832 155.87558 3.9322"/>
<path transform="matrix(-.030761844,-.9995399,-.9995399,.030761844,115.11472,8.342773)" d="M2.8892 0-1.73352 2.31136 0 0-1.73352-2.31136" fill="#0000ff"/>
<path transform="matrix(.014710882,.99991998,.99991998,-.014710882,156.98093,162.60276)" d="M2.8892 0-1.73352 2.31136 0 0-1.73352-2.31136" fill="#0000ff"/>
<path transform="matrix(1.00006,0,0,-1.00006,1.0959854,166.5352)" stroke-width=".99628" stroke-linecap="butt" stroke-miterlimit="10" stroke-linejoin="miter" fill="none" stroke="#0000ff" d="M158.99712 158.19301 159.05315 156.30689 159.19487 152.18926 159.33658 148.59899 159.4783 145.43555 159.62003 142.62435 159.76175 140.11688 159.90346 137.85829 160.04518 135.81519 160.1869 133.96236 160.32862 132.26964 160.47034 130.7182 160.61206 129.28937 160.75377 127.97238 160.8955 126.74792 161.03722 125.61205 161.17894 124.55458 161.32065 123.56537 161.46236 122.64023 161.6041 121.77129 161.7458 120.95494 161.88753 120.1837 162.02925 119.45662 162.17098 118.76802 162.31269 118.11542 162.45439 117.49661 162.59613 116.90913 162.73784 116.34836 162.87957 115.81389 163.02129 115.30478 163.163 114.81816 163.30472 114.35188 163.44644 113.90604 163.58817 113.47688 163.72988 113.06621 163.87158 112.67078 164.01332 112.2915 164.15503 111.92546 164.29676 111.5728 164.43848 111.23282 164.58019 110.90456 164.72191 110.58772 164.86362 110.28114 165.00536 109.9841 165.14707 109.69737 165.28878 109.4192 165.43051 109.1488 165.57222 108.8871 165.71395 108.63321 165.85565 108.38618 165.99739 108.14644 166.1391 107.91281 166.2808 107.68582 166.42255 107.46454 166.56426 107.24892 166.70598 107.03868 166.8477 106.8339 166.98941 106.63351 167.13114 106.43823 167.27285 106.24785 167.41458 106.06152 167.55629 105.87955 167.698 105.70113 167.83974 105.52673 167.98145 105.3563 168.12317 105.18933 168.26488 105.02545 168.4066 104.86517 168.54833 104.70764 168.69004 104.55336 168.83177 104.40189 168.97348 104.2534 169.11519 104.10733 169.25691 103.96393 169.39864 103.82304 169.54036 103.68465 169.68207 103.54834 169.8238 103.41414 169.96552 103.28244 170.10723 103.15268 170.24897 103.02478 170.39067 102.89888 170.5324 102.77493 170.6741 102.653 170.81583 102.53235 170.95755 102.41339 171.09926 102.29614 171.241 102.18066 171.3827 102.06665 171.52442 101.954 171.66614 101.84238 171.80786 101.73271 171.94959 101.6241 172.0913 101.5166 172.23302 101.41057 172.37474 101.30566 172.51645 101.20187 172.65818 101.09915 172.7999 100.99779 172.94162 100.89725 173.08333 100.79759 173.22507 100.6988 173.36678 100.60132 173.5085 100.50456 173.6502 100.40845 173.79193 100.31331 173.93366 100.21907 174.07537 100.12553 174.2171 100.0328 174.3588 99.94081 174.50052 99.84946 174.64226 99.75883 174.78397 99.66878 174.92569 99.57944 175.06739 99.49075 175.20912 99.40248 175.35085 99.31483 175.49256 99.22775 175.6343 99.14093 175.77599 99.05482 175.91771 98.96928 176.05944 98.88399 176.20116 98.79932 176.34288 98.71501 176.48458 98.63092 176.62631 98.5473 176.76804 98.46402 176.90975 98.38107 177.05147 98.29843 177.19318 98.21605 177.3349 98.13405 177.47663 98.05215 177.61835 97.97063 177.76007 97.88937 177.90177 97.8082 178.0435 97.72734 178.18523 97.6466 178.32694 97.56592 178.46866 97.4855 178.61037 97.40524 178.75209 97.325 178.89382 97.24489 179.03554 97.16492 179.17726 97.08485 179.31896 97.00507 179.46068 96.9252 179.60242 96.8453 179.74413 96.76549 179.88585 96.68573 180.02756 96.60587 180.1693 96.5259 180.311 96.44586 180.45272 96.36569 180.59445 96.28557 180.73616 96.20526 180.87789 96.12486 181.01963 96.04431 181.16132 95.96352 181.30304 95.88274 181.44477 95.80165 181.58649 95.72037 181.72821 95.63885 181.8699 95.55711 182.01165 95.47505 182.15335 95.39282 182.29508 95.31018 182.43682 95.22731 182.5785 95.14412 182.72023 95.0606 182.86194 94.97675 183.00368 94.89249 183.1454 94.80768 183.2871 94.72255 183.42884 94.63701 183.57054 94.55081 183.71227 94.46439 183.85399 94.37732 183.9957 94.2896 184.13742 94.20155 184.27913 94.11295 184.42087 94.02377 184.56259 93.93379 184.70429 93.8431 184.84603 93.752 184.98773 93.66016 185.12946 93.56767 185.27118 93.4743 185.41289 93.38005 185.55461 93.28523 185.69632 93.18944 185.83806 93.09277 185.97978 92.9952 186.12148 92.89674 186.2632 92.79732 186.40493 92.69702 186.54665 92.5959 186.68837 92.49333 186.83008 92.38956 186.9718 92.28497 184.80025 93.90974"/>
<path transform="matrix(-.029661779,-.99956998,-.99956998,.029661779,160.10266,8.332703)" d="M2.8892 0-1.73352 2.31136 0 0-1.73352-2.31136" fill="#0000ff"/>
<path transform="matrix(.800708,.59909597,.59909597,-.800708,185.90732,72.619838)" d="M2.8892 0-1.73352 2.31136 0 0-1.73352-2.31136" fill="#0000ff"/>
<path transform="matrix(1.00006,0,0,-1.00006,1.0959854,166.5352)" stroke-width=".3985" stroke-linecap="butt" stroke-dasharray="2.98883,2.98883" stroke-miterlimit="10" stroke-linejoin="miter" fill="none" stroke="#ff0000" d="M22.15659 0V161.39636"/>
<path transform="matrix(1.00006,0,0,-1.00006,1.0959854,166.5352)" stroke-width=".3985" stroke-linecap="butt" stroke-dasharray="2.98883,2.98883" stroke-miterlimit="10" stroke-linejoin="miter" fill="none" stroke="#ff0000" d="M67.14499 0V161.39636"/>
<path transform="matrix(1.00006,0,0,-1.00006,1.0959854,166.5352)" stroke-width=".3985" stroke-linecap="butt" stroke-dasharray="2.98883,2.98883" stroke-miterlimit="10" stroke-linejoin="miter" fill="none" stroke="#ff0000" d="M112.13298 0V161.39636"/>
<path transform="matrix(1.00006,0,0,-1.00006,1.0959854,166.5352)" stroke-width=".3985" stroke-linecap="butt" stroke-dasharray="2.98883,2.98883" stroke-miterlimit="10" stroke-linejoin="miter" fill="none" stroke="#ff0000" d="M157.1214 0V161.39636"/>
<use data-text="x" xlink:href="#font_5_1" transform="matrix(9.963197,0,0,-9.963197,186.16709,82.31215)"/>
<use data-text="y" xlink:href="#font_5_2" transform="matrix(9.963197,0,0,-9.963197,101.75902,12.93898)"/>
</svg>
