<svg xmlns="http://www.w3.org/2000/svg" xmlns:xlink="http://www.w3.org/1999/xlink" xmlns:inkscape="http://www.inkscape.org/namespaces/inkscape" version="1.1" width="200" height="170" viewBox="0 0 200 170">
<defs>
<path id="font_1_1" d="M.6589966 .23046875C.6759949 .23046875 .69400027 .23046875 .69400027 .25045777 .69400027 .27046205 .6759949 .27046205 .6589966 .27046205H.117996219C.100997928 .27046205 .08299255 .27046205 .08299255 .25045777 .08299255 .23046875 .100997928 .23046875 .117996219 .23046875H.6589966Z"/>
<path id="font_2_3" d="M.1269989 .07699585 .23298645 .18003845C.3889923 .31811524 .44898988 .3721466 .44898988 .47216798 .44898988 .5860901 .35899354 .6660156 .23699951 .6660156 .12399292 .6660156 .049987794 .57411196 .049987794 .48516847 .049987794 .4291687 .099990848 .4291687 .102996829 .4291687 .11999512 .4291687 .15499878 .44117738 .15499878 .48217774 .15499878 .5081787 .13699341 .5341797 .101989749 .5341797 .09399414 .5341797 .09199524 .5341797 .08898926 .5331726 .11199951 .59806826 .1659851 .63500979 .22399903 .63500979 .31498719 .63500979 .35798646 .5541382 .35798646 .47216798 .35798646 .39215089 .30799867 .31311036 .25299073 .25108338L.06098938 .036987306C.049987794 .025985718 .049987794 .023986817 .049987794 0H.42099L.44898988 .17404175H.42399598C.4189911 .14402771 .4119873 .1000061 .4019928 .084991458 .394989 .07699585 .32899476 .07699585 .30699159 .07699585H.1269989Z"/>
<path id="font_3_1" d="M.2649994 .37265016H.37799073C.34498597 .22489929 .33599855 .18196106 .33599855 .11508179 .33599855 .100097659 .33599855 .073150638 .34399415 .03919983 .35398866-.0047454836 .36499024-.0107421879 .37998963-.0107421879 .3999939-.0107421879 .42099 .007247925 .42099 .02722168 .42099 .033218385 .42099 .035202028 .4149933 .049179079 .38598634 .12106323 .38598634 .18595886 .38598634 .21391297 .38598634 .26683045 .3929901 .32073976 .4039917 .37265016H.5179901C.5309906 .37265016 .5669861 .37265016 .5669861 .406662 .5669861 .43066407 .54599 .43066407 .5269928 .43066407H.19198609C.16999817 .43066407 .13198853 .43066407 .08799744 .38365174 .052993776 .34469605 .026992798 .29878236 .026992798 .29379273 .026992798 .29278565 .026992798 .28379823 .038986207 .28379823 .04699707 .28379823 .04899597 .28779603 .054992677 .29577638 .10398865 .37265016 .1619873 .37265016 .18199158 .37265016H.23899842C.20698548 .25186158 .15299988 .13105774 .11099243 .04020691 .102996829 .025222779 .102996829 .023223877 .102996829 .016235352 .102996829-.002746582 .11898804-.0107421879 .13198853-.0107421879 .1619873-.0107421879 .16999817 .017242432 .18199158 .05418396 .19599915 .100097659 .19599915 .10209656 .20899964 .15202332L.2649994 .37265016Z"/>
<path id="font_2_4" d="M.2899933 .35191346C.37199403 .37893678 .42999269 .4490509 .42999269 .52809146 .42999269 .6100464 .34199525 .6660156 .24598694 .6660156 .14498902 .6660156 .068984989 .60606387 .068984989 .53009036 .068984989 .49710084 .09098816 .47808839 .11999512 .47808839 .15098572 .47808839 .17098999 .50009158 .17098999 .5290985 .17098999 .57910159 .12399292 .57910159 .10899353 .57910159 .13999939 .62802127 .20599365 .64100649 .24198914 .64100649 .2829895 .64100649 .33799745 .6190338 .33799745 .5290985 .33799745 .51708987 .33599855 .45906068 .30999757 .4149933 .27999879 .36691285 .24598694 .36390687 .22099304 .36291505 .21299744 .36190797 .18899536 .35990907 .18199158 .35990907 .17399597 .35890199 .16699219 .35791017 .16699219 .3479004 .16699219 .33691407 .17399597 .33691407 .19099427 .33691407H.23498535C.31698609 .33691407 .35398866 .2686615 .35398866 .17037964 .35398866 .034469606 .2849884 .0055389406 .24099732 .0055389406 .19799805 .0055389406 .12298584 .022491456 .08799744 .08137512 .12298584 .07637024 .1539917 .09837341 .1539917 .1363678 .1539917 .17237854 .1269989 .19238281 .09799194 .19238281 .07398987 .19238281 .041992189 .17837525 .041992189 .1343689 .041992189 .043441774 .1349945-.022460938 .24398804-.022460938 .3659973-.022460938 .45700074 .06838989 .45700074 .17037964 .45700074 .252594 .3939972 .33088685 .2899933 .35191346Z"/>
<path id="font_2_2" d="M.2939911 .64004519C.2939911 .66400149 .2939911 .6660156 .2709961 .6660156 .20899964 .60227969 .12098694 .60227969 .08898926 .60227969V.57128909C.10899353 .57128909 .16799927 .57128909 .21998596 .5972748V.07902527C.21998596 .042999269 .21699524 .0309906 .1269989 .0309906H.09498596V0C.12998963 .0029907227 .21699524 .0029907227 .25698854 .0029907227 .29699708 .0029907227 .38398744 .0029907227 .4189911 0V.0309906H.3869934C.29699708 .0309906 .2939911 .041992189 .2939911 .07902527V.64004519Z"/>
<path id="font_2_1" d="M.45999146 .31976319C.45999146 .39982606 .45498658 .47988893 .41999818 .5539398 .37399293 .65000918 .2919922 .6660156 .25 .6660156 .18998719 .6660156 .116989139 .64001467 .07598877 .54693606 .04399109 .47789 .038986207 .39982606 .038986207 .31976319 .038986207 .24472046 .042999269 .15464783 .083999637 .07859802 .1269989-.0024719239 .19999695-.022460938 .24899292-.022460938 .30299378-.022460938 .3789978-.0014648438 .4229889 .09359741 .45498658 .16265869 .45999146 .2407074 .45999146 .31976319M.24899292-.00047302247C.20999146-.00047302247 .15098572 .024551392 .1329956 .12062073 .12199402 .18066406 .12199402 .2727356 .12199402 .3317871 .12199402 .39582826 .12199402 .46188355 .12998963 .5159149 .14898682 .63500979 .22399903 .64401248 .24899292 .64401248 .28199769 .64401248 .34799195 .6259918 .36698915 .52693179 .3769989 .47088624 .3769989 .39482118 .3769989 .3317871 .3769989 .25672914 .3769989 .18867493 .3659973 .12461853 .35099793 .029556275 .2939911-.00047302247 .24899292-.00047302247Z"/>
<path id="font_3_2" d="M.19198609 .052993776C.19198609 .08198547 .16799927 .10598755 .13899231 .10598755 .10998535 .10598755 .085998538 .08198547 .085998538 .052993776 .085998538 .023986817 .10998535 0 .13899231 0 .16799927 0 .19198609 .023986817 .19198609 .052993776Z"/>
<path id="font_2_5" d="M.44898988 .20022583C.44898988 .3193512 .36698915 .41944886 .25898744 .41944886 .21099854 .41944886 .16799927 .40345765 .13198853 .36842347V.5637665C.1519928 .5577698 .18499756 .55078127 .21699524 .55078127 .33999635 .55078127 .4099884 .6417694 .4099884 .6547699 .4099884 .6607666 .40699769 .6657715 .3999939 .6657715 .39898683 .6657715 .39698792 .6657715 .3919983 .66278079 .37199403 .6537781 .32299806 .6337738 .2559967 .6337738 .21598816 .6337738 .16999817 .6407776 .12298584 .6617737 .114990238 .66477969 .11299133 .66477969 .11099243 .66477969 .100997928 .66477969 .100997928 .6567688 .100997928 .6407776V.34439088C.100997928 .32637025 .100997928 .31835938 .114990238 .31835938 .12199402 .31835938 .12399292 .32136537 .12799073 .32736207 .13899231 .3433838 .17599488 .39746095 .25698854 .39746095 .30899049 .39746095 .33399964 .35139466 .34199525 .33337403 .35798646 .29632569 .3600006 .25727845 .3600006 .20722962 .3600006 .17222595 .3600006 .11222839 .33599855 .07035828 .31199647 .031463624 .2749939 .0055389406 .22898865 .0055389406 .1559906 .0055389406 .09899902 .058380128 .08198547 .11723328 .084991458 .1162262 .08799744 .115234378 .09899902 .115234378 .13198853 .115234378 .14898682 .14022827 .14898682 .16423035 .14898682 .18823242 .13198853 .21322632 .09899902 .21322632 .084991458 .21322632 .049987794 .20622254 .049987794 .16023255 .049987794 .07434082 .11898804-.022460938 .23098755-.022460938 .34700013-.022460938 .44898988 .073349 .44898988 .20022583Z"/>
<path id="font_3_3" d="M.33399964 .30233766C.33999635 .32835389 .36299134 .42037965 .43299867 .42037965 .43798829 .42037965 .46199037 .42037965 .48298646 .40734864 .45498658 .402359 .43499757 .37734986 .43499757 .35334779 .43499757 .33735658 .44599916 .31835938 .47299195 .31835938 .49499513 .31835938 .5269928 .3363495 .5269928 .37635804 .5269928 .42837525 .46798707 .4423828 .43399049 .4423828 .37599183 .4423828 .34098817 .38935853 .32899476 .36634828 .3039856 .43237306 .25 .4423828 .22099304 .4423828 .116989139 .4423828 .05999756 .3133545 .05999756 .28834535 .05999756 .27833558 .069992069 .27833558 .07199097 .27833558 .07998657 .27833558 .08299255 .28033448 .084991458 .28933717 .11898804 .39535523 .18499756 .42037965 .21899414 .42037965 .23799134 .42037965 .272995 .4113617 .272995 .35334779 .272995 .32235719 .2559967 .25532533 .21899414 .11528015 .20298767 .053268434 .16799927 .011245728 .12399292 .011245728 .117996219 .011245728 .09498596 .011245728 .07398987 .024276734 .09899902 .029266358 .12098694 .05027771 .12098694 .07827759 .12098694 .105270389 .09899902 .11328125 .083999637 .11328125 .053985597 .11328125 .0289917 .08728027 .0289917 .055267335 .0289917 .009246826 .07899475-.0107421879 .12298584-.0107421879 .18899536-.0107421879 .22499085 .059280397 .22799683 .0652771 .23999024 .028274537 .27598573-.0107421879 .33599855-.0107421879 .43899537-.0107421879 .49598695 .118270877 .49598695 .14328003 .49598695 .1532898 .4869995 .1532898 .48399354 .1532898 .47499085 .1532898 .47299195 .14929199 .47099305 .14228821 .43798829 .03527832 .36999513 .011245728 .33799745 .011245728 .29899598 .011245728 .2829895 .043273927 .2829895 .07727051 .2829895 .09927368 .2889862 .121276859 .2999878 .16529846L.33399964 .30233766Z"/>
<path id="font_3_4" d="M.48599244 .38136292C.48999024 .39537049 .48999024 .39736939 .48999024 .40437318 .48999024 .42237855 .47599793 .43138124 .46099855 .43138124 .45098878 .43138124 .43499757 .42536927 .42599488 .41036988 .42399598 .405365 .41600038 .37435914 .4119873 .35635377 .40499879 .33035279 .397995 .30334474 .3919983 .27633668L.34700013 .09628296C.34298707 .08126831 .2999878 .011245728 .23399353 .011245728 .18299866 .011245728 .17199707 .055267335 .17199707 .0922699 .17199707 .1382904 .18899536 .20030213 .22299195 .28833009 .23899842 .3293457 .24299622 .3403473 .24299622 .36035157 .24299622 .405365 .21099854 .4423828 .16099549 .4423828 .06599426 .4423828 .0289917 .29733277 .0289917 .28833009 .0289917 .27833558 .038986207 .27833558 .040985109 .27833558 .050994874 .27833558 .051986696 .28033448 .056991579 .29634095 .083999637 .3903656 .12399292 .42037965 .1579895 .42037965 .1659851 .42037965 .18299866 .42037965 .18299866 .3883667 .18299866 .36335755 .17298889 .3373413 .1659851 .31834413 .12599182 .21231079 .10798645 .1552887 .10798645 .10827637 .10798645 .019256592 .17098999-.0107421879 .22999573-.0107421879 .2689972-.0107421879 .30299378 .0062561037 .33099366 .03425598 .31799317-.017745972 .30599977-.06674194 .2659912-.11973572 .23999024-.15385437 .20199585-.18309021 .1559906-.18309021 .14199829-.18309021 .09700012-.18005371 .07998657-.14074707 .09599304-.14074707 .10899353-.14074707 .12298584-.1287384 .1329956-.11973572 .14299011-.10673523 .14299011-.08773804 .14299011-.056747438 .115997318-.052734376 .10598755-.052734376 .08299255-.052734376 .049987794-.068740848 .049987794-.11773682 .049987794-.16796875 .09399414-.20507813 .1559906-.20507813 .25898744-.20507813 .3619995-.11373901 .3899994-.00074768069L.48599244 .38136292Z"/>
</defs>
<path transform="matrix(1.00003,0,0,-1.00006,4.7077257,166.5352)" stroke-width=".19925" stroke-linecap="butt" stroke-miterlimit="10" stroke-linejoin="miter" fill="none" stroke="#7f807f" d="M4.89359 79.28084V82.1155M12.58041 79.28084V82.1155M20.26726 79.28084V82.1155M27.95409 79.28084V82.1155M35.64093 79.28084V82.1155M43.32777 79.28084V82.1155M51.01459 79.28084V82.1155M58.70145 79.28084V82.1155M66.38828 79.28084V82.1155M74.0751 79.28084V82.1155M81.76195 79.28084V82.1155M89.44878 79.28084V82.1155M97.13562 79.28084V82.1155M104.82246 79.28084V82.1155M112.50931 79.28084V82.1155M120.19614 79.28084V82.1155M127.88297 79.28084V82.1155M135.56983 79.28084V82.1155M143.25666 79.28084V82.1155M150.9435 79.28084V82.1155M158.63033 79.28084V82.1155M166.31716 79.28084V82.1155M174.004 79.28084V82.1155M181.69083 79.28084V82.1155M189.37767 79.28084V82.1155"/>
<path transform="matrix(1.00003,0,0,-1.00006,4.7077257,166.5352)" stroke-width=".19925" stroke-linecap="butt" stroke-miterlimit="10" stroke-linejoin="miter" fill="none" stroke="#7f807f" d="M4.89359 78.57237V82.82396M35.64093 78.57237V82.82396M97.13562 78.57237V82.82396M127.88297 78.57237V82.82396M158.63033 78.57237V82.82396M189.37767 78.57237V82.82396"/>
<path transform="matrix(1.00003,0,0,-1.00006,4.7077257,166.5352)" stroke-width=".19925" stroke-linecap="butt" stroke-miterlimit="10" stroke-linejoin="miter" fill="none" stroke="#7f807f" d="M64.26244 0H68.51411M64.26244 40.34909H68.51411M64.26244 121.04727H68.51411M64.26244 161.39636H68.51411"/>
<path transform="matrix(1.00003,0,0,-1.00006,4.7077257,166.5352)" stroke-width=".3985" stroke-linecap="butt" stroke-miterlimit="10" stroke-linejoin="miter" fill="none" stroke="#000000" d="M0 80.69818H192.27873"/>
<path transform="matrix(1.00003,0,0,-1.00006,196.99225,85.832187)" d="M1.99252 0-1.19551 1.59401 0 0-1.19551-1.59401"/>
<path transform="matrix(1.00003,0,0,-1.00006,4.7077257,166.5352)" stroke-width=".3985" stroke-linecap="butt" stroke-miterlimit="10" stroke-linejoin="miter" fill="none" stroke="#000000" d="M66.38828 0V159.40384"/>
<path transform="matrix(0,-1.00006,-1.00003,-0,71.098,7.121811)" d="M1.99252 0-1.19551 1.59401 0 0-1.19551-1.59401"/>
<use data-text="&#x2212;" xlink:href="#font_1_1" transform="matrix(9.962899,0,0,-9.963197,.21759033,97.899089)"/>
<use data-text="2" xlink:href="#font_2_3" transform="matrix(9.962899,0,0,-9.963197,7.96682,97.899089)"/>
<use data-text="&#x03c0;" xlink:href="#font_3_1" transform="matrix(9.962899,0,0,-9.963197,12.947975,97.899089)"/>
<use data-text="&#x2212;" xlink:href="#font_1_1" transform="matrix(9.962899,0,0,-9.963197,33.45659,97.290058)"/>
<use data-text="&#x03c0;" xlink:href="#font_3_1" transform="matrix(9.962899,0,0,-9.963197,41.20582,97.290058)"/>
<use data-text="&#x03c0;" xlink:href="#font_3_1" transform="matrix(9.962899,0,0,-9.963197,98.82755,95.76796)"/>
<use data-text="2" xlink:href="#font_2_3" transform="matrix(9.962899,0,0,-9.963197,127.0854,97.899089)"/>
<use data-text="&#x03c0;" xlink:href="#font_3_1" transform="matrix(9.962899,0,0,-9.963197,132.06656,97.899089)"/>
<use data-text="3" xlink:href="#font_2_4" transform="matrix(9.962899,0,0,-9.963197,157.83332,97.899089)"/>
<use data-text="&#x03c0;" xlink:href="#font_3_1" transform="matrix(9.962899,0,0,-9.963197,162.81449,97.899089)"/>
<use data-text="&#x2212;" xlink:href="#font_1_1" transform="matrix(9.962899,0,0,-9.963197,52.72117,169.33037)"/>
<use data-text="1" xlink:href="#font_2_2" transform="matrix(9.962899,0,0,-9.963197,60.470399,169.33037)"/>
<use data-text="&#x2212;" xlink:href="#font_1_1" transform="matrix(9.962899,0,0,-9.963197,44.972936,128.97895)"/>
<use data-text="0" xlink:href="#font_2_1" transform="matrix(9.962899,0,0,-9.963197,52.722166,128.97895)"/>
<use data-text="." xlink:href="#font_3_2" transform="matrix(9.962899,0,0,-9.963197,57.70332,128.97895)"/>
<use data-text="5" xlink:href="#font_2_5" transform="matrix(9.962899,0,0,-9.963197,60.4714,128.97895)"/>
<use data-text="0" xlink:href="#font_2_1" transform="matrix(9.962899,0,0,-9.963197,52.72117,48.69114)"/>
<use data-text="." xlink:href="#font_3_2" transform="matrix(9.962899,0,0,-9.963197,57.702325,48.69114)"/>
<use data-text="5" xlink:href="#font_2_5" transform="matrix(9.962899,0,0,-9.963197,60.470399,48.69114)"/>
<use data-text="1" xlink:href="#font_2_2" transform="matrix(9.962899,0,0,-9.963197,60.4704,8.339706)"/>
<path transform="matrix(1.00003,0,0,-1.00006,4.7077257,166.5352)" stroke-width=".99628" stroke-linecap="butt" stroke-miterlimit="10" stroke-linejoin="miter" fill="none" stroke="#0000ff" d="M5.24194 83.56621 5.82062 88.32898 6.74765 95.89363 7.6747 103.3203 8.60173 110.5452 9.52878 117.50218 10.45581 124.12994 11.38286 130.3679 12.30989 136.1588 13.23694 141.45421 14.16399 146.2041 15.09102 150.36733 16.01805 153.90756 16.94508 156.78768 17.87213 158.99155 18.79918 160.48607 19.72621 161.27045 20.65326 161.33019 21.58029 160.66765 22.50734 159.28934 23.43437 157.20328 24.36142 154.43694 25.28847 151.00403 26.2155 146.9425 27.14255 142.28704 28.06958 137.07958 28.99663 131.36693 29.92366 125.20079 30.85071 118.6352 31.77774 111.72823 32.70479 104.54367 33.63184 97.14525 34.55887 89.60078 35.48592 81.97643 36.41295 74.34076 37.33998 66.76079 38.26701 59.3067 39.19406 52.04306 40.12111 45.03523 41.04814 38.35017 41.97519 32.04199 42.90222 26.17363 43.82927 20.79108 44.75632 15.94594 45.68335 11.68346 46.6104 8.03752 47.53743 5.04362 48.46448 2.72598 49.39151 1.11201 50.31856 .20657 51.24559 .02742 52.17264 .5673 53.09969 1.827 54.02672 3.79523 54.95377 6.4502 55.8808 9.77415 56.80785 13.73079 57.7349 18.29022 58.66191 23.4089 59.58896 29.04002 60.51599 35.13597 61.44304 41.63701 62.37007 48.49152 63.29712 55.63332 64.22417 63.00267 65.1512 70.52698 66.07825 78.14407 67.00528 85.78134 67.93233 93.37505 68.85936 100.85577 69.7864 108.15654 70.71344 115.20795 71.64049 121.9535 72.56752 128.32704 73.49455 134.2745 74.4216 139.74179 75.34863 144.67812 76.27568 149.0447 77.20273 152.79392 78.12976 155.89838 79.05681 158.32982 79.98384 160.06484 80.91087 161.08969 81.8379 161.3899 82.76495 160.97026 83.69199 159.82918 84.61903 157.97959 85.54608 155.43679 86.47311 152.22258 87.40016 148.37168 88.3272 143.90744 89.25424 138.88156 90.18127 133.33275 91.10832 127.30943 92.03537 120.87215 92.9624 114.07172 93.88945 106.97511 94.81648 99.64046 95.74353 92.13632 96.67056 84.53052 97.59761 76.89244 98.5247 69.28502 99.45166 61.7825 100.37877 54.44543 101.30571 47.34802 102.2328 40.54597 103.1599 34.10626 104.08685 28.08296 105.01395 22.53253 105.9409 17.50583 106.86801 13.04001 107.7951 9.18506 108.72206 5.96924 109.64915 3.42563 110.57611 1.5736 111.50322 .4285 112.43031 .00644 113.35727 .30504 114.28436 1.32747 115.21132 3.05844 116.13841 5.48747 117.06552 8.59111 117.99248 12.33875 118.91957 16.70209 119.84653 21.63599 120.77362 27.10329 121.70073 33.04993 122.62767 39.42105 123.55476 46.165 124.48172 53.21559 125.40881 60.51636 126.3359 67.99626 127.26286 75.58917 128.18997 83.22887 129.11693 90.84355 130.04402 98.37106 130.97112 105.73882 131.89807 112.88062 132.82517 119.73672 133.75212 126.23857 134.67923 132.33695 135.60633 137.97129 136.53328 143.08835 137.46038 147.65184 138.38733 151.60927 139.31444 154.93566 140.24152 157.59305 141.16849 159.56288 142.09557 160.82663 143.02254 161.36891 143.94962 161.19219 144.87671 160.28919 145.80367 158.67761 146.73076 156.36078 147.65772 153.3701 148.58481 149.72739 149.51192 145.4649 150.43886 140.62221 151.36597 135.24126 152.29293 129.37532 153.22002 123.06795 154.14713 116.3829 155.07407 109.3783 156.00118 102.11385 156.92813 94.66057 157.85523 87.08139 158.78232 79.44572 159.70928 71.82138 160.63639 64.27448 161.56333 56.87607 162.49044 49.6923 163.41753 42.78214 164.34449 36.21652 165.27159 30.04715 166.19853 24.33533 167.12563 19.12544 168.05272 14.46754 168.97968 10.40602 169.90677 6.97069 170.83373 4.20033 171.76084 2.11266 172.68793 .73273 173.61489 .06778 174.54198 .12427 175.46894 .90623 176.39603 2.39833 177.32314 4.59978 178.25009 7.47829 179.17719 11.01689 180.10414 15.17609 181.03124 19.92438 181.95835 25.2206 182.8853 31.00826 183.8124 37.24622 184.73935 43.87074 185.66645 50.82773 186.59354 58.05264 187.5205 65.47849 188.44759 73.04152 189.02628 77.80588"/>
<path transform="matrix(-.12057362,.99273958,.9927098,.12057722,9.949842,82.96397)" d="M2.8892 0-1.73352 2.31136 0 0-1.73352-2.31136" fill="#0000ff"/>
<path transform="matrix(.12054362,-.9927496,-.9927198,-.12054723,193.73969,88.72467)" d="M2.8892 0-1.73352 2.31136 0 0-1.73352-2.31136" fill="#0000ff"/>
<path transform="matrix(1.00003,0,0,-1.00006,4.7077257,166.5352)" stroke-width=".3985" stroke-linecap="butt" stroke-dasharray="2.98883,2.98883" stroke-miterlimit="10" stroke-linejoin="miter" fill="none" stroke="#ff0000" d="M4.89359 121.04727H189.37767"/>
<use data-text="x" xlink:href="#font_3_3" transform="matrix(9.962899,0,0,-9.963197,189.7703,82.31215)"/>
<use data-text="y" xlink:href="#font_3_4" transform="matrix(9.962899,0,0,-9.963197,74.61782,12.93898)"/>
</svg>
