<svg xmlns="http://www.w3.org/2000/svg" xmlns:xlink="http://www.w3.org/1999/xlink" xmlns:inkscape="http://www.inkscape.org/namespaces/inkscape" version="1.1" width="219" height="184" viewBox="0 0 219 184">
<defs>
<path id="font_1_1" d="M.6589966 .23046875C.6759949 .23046875 .69400027 .23046875 .69400027 .25045777 .69400027 .27046205 .6759949 .27046205 .6589966 .27046205H.117996219C.100997928 .27046205 .08299255 .27046205 .08299255 .25045777 .08299255 .23046875 .100997928 .23046875 .117996219 .23046875H.6589966Z"/>
<path id="font_2_2" d="M.272995 .33428956C.35099793 .33428956 .40699769 .2803192 .40699769 .1733551 .40699769 .04940796 .33499146 .012466431 .2769928 .012466431 .23699951 .012466431 .14898682 .0234375 .10699463 .082351688 .1539917 .084350589 .16499329 .11735535 .16499329 .13835144 .16499329 .17034912 .14099121 .19335938 .10998535 .19335938 .08198547 .19335938 .053985597 .17634583 .053985597 .13534546 .053985597 .041412355 .1579895-.01953125 .2789917-.01953125 .41799928-.01953125 .5139923 .07336426 .5139923 .1733551 .5139923 .2513275 .44999696 .32929994 .33999635 .35229493 .44499208 .39024354 .48298646 .4650879 .48298646 .5260773 .48298646 .60505679 .3919983 .6640625 .2809906 .6640625 .16999817 .6640625 .084991458 .61006167 .084991458 .5300751 .084991458 .49606324 .10699463 .47706605 .13699341 .47706605 .16799927 .47706605 .18798828 .5000763 .18798828 .5280762 .18798828 .5570679 .16799927 .57806399 .13699341 .5800781 .17199707 .62405398 .24099732 .63505557 .27799989 .63505557 .32299806 .63505557 .38598634 .6130676 .38598634 .5260773 .38598634 .48406983 .37199403 .43814088 .34599305 .4072113 .31298829 .36927796 .2849884 .3672943 .23498535 .36428834 .20999146 .3623047 .20799256 .3623047 .20298767 .3612976 .20098877 .3612976 .19299317 .3592987 .19299317 .34829713 .19299317 .33428956 .20199585 .33428956 .21899414 .33428956H.272995Z"/>
<path id="font_3_1" d="M.31098939 .36265565H.42999269C.4149933 .30274964 .3929901 .2118988 .3929901 .13302613 .3929901 .09309387 .397995 .06613159 .4039917 .044174196 .41999818-.0057678224 .43299867-.009765625 .44898988-.009765625 .47200013-.009765625 .49598695 .011230469 .49598695 .035186769 .49598695 .043182374 .49398805 .047164918 .48799134 .057159425 .46899415 .09408569 .45098878 .15100098 .45098878 .23286438 .45098878 .25183106 .45098878 .29177857 .46499635 .36265565H.58999636C.60798647 .36265565 .6159973 .36265565 .6269989 .37065126 .6409912 .380661 .6439972 .39665223 .6439972 .4016571 .6439972 .43066407 .6179962 .43066407 .6009979 .43066407H.22399903C.18299866 .43066407 .15499878 .42166139 .10998535 .37965394 .083999637 .35665895 .04499817 .30274964 .04499817 .2937622 .04499817 .28178407 .057998659 .28178407 .06199646 .28178407 .07299805 .28178407 .07398987 .28378297 .07998657 .2927704 .1309967 .36265565 .19299317 .36265565 .21499634 .36265565H.27598573C.24499512 .25283814 .19099427 .13502503 .16099549 .07511902 .15499878 .062149049 .14498902 .04118347 .14199829 .03718567 .14099121 .033187868 .13899231 .029190064 .13899231 .022201539 .13899231 .006225586 .15098572-.009765625 .17399597-.009765625 .21398926-.009765625 .22499085 .035186769 .24899292 .12504578L.31098939 .36265565Z"/>
<path id="font_2_1" d="M.5049896 .18203736H.47099305C.46798707 .16001892 .45799256 .100997928 .44499208 .09098816 .43699647 .084991458 .3600006 .084991458 .34599305 .084991458H.1619873C.2669983 .17803955 .3019867 .20603943 .3619995 .25306703 .43598939 .312088 .5049896 .374115 .5049896 .46914674 .5049896 .5900879 .39898683 .6640625 .2709961 .6640625 .14698792 .6640625 .06298828 .57710269 .06298828 .4851532 .06298828 .43414308 .10598755 .42915345 .115997318 .42915345 .13999939 .42915345 .16899109 .44615174 .16899109 .48214723 .16899109 .5001526 .1619873 .53515627 .10998535 .53515627 .14099121 .6060791 .20899964 .62805178 .2559967 .62805178 .35598756 .62805178 .4079895 .5501404 .4079895 .46914674 .4079895 .38212586 .34599305 .3130951 .31399537 .27708436L.07299805 .038986207C.06298828 .02999878 .06298828 .027999878 .06298828 0H.47499085L.5049896 .18203736Z"/>
<path id="font_2_3" d="M.15499878 .5588074C.20599365 .5458069 .23599243 .5458069 .2519989 .5458069 .38398744 .5458069 .46199037 .6358032 .46199037 .6508026 .46199037 .6618042 .45498658 .6648102 .44999696 .6648102 .44799806 .6648102 .44599916 .6648102 .44198609 .6618042 .41799928 .6528015 .36499024 .6328125 .29100038 .6328125 .2630005 .6328125 .20999146 .6348114 .14498902 .6598053 .1349945 .6648102 .1329956 .6648102 .13198853 .6648102 .11898804 .6648102 .11898804 .6538086 .11898804 .6378021V.34251405C.11898804 .32548524 .11898804 .3134613 .1349945 .3134613 .14399719 .3134613 .14498902 .3154602 .15499878 .32748414 .19799805 .38259889 .25898744 .390625 .2939911 .390625 .35398866 .390625 .3809967 .34251405 .38598634 .33450318 .4039917 .30143739 .4099884 .26335145 .4099884 .20524597 .4099884 .17524719 .4099884 .116256717 .37998963 .07234192 .35499574 .03640747 .31199647 .012466431 .2630005 .012466431 .19799805 .012466431 .1309967 .04838562 .10598755 .11425781 .14399719 .11125183 .16299439 .13624573 .16299439 .16325379 .16299439 .20625305 .12599182 .21424866 .11299133 .21424866 .11099243 .21424866 .06298828 .21424866 .06298828 .1602478 .06298828 .07034302 .14498902-.01953125 .2649994-.01953125 .3929901-.01953125 .5049896 .07533264 .5049896 .20124817 .5049896 .31445313 .4189911 .41862489 .29499818 .41862489 .25099183 .41862489 .19898987 .4076233 .15499878 .36956788V.5588074Z"/>
<path id="font_4_2" d="M.1269989 .07699585 .23298645 .18003845C.3889923 .31811524 .44898988 .3721466 .44898988 .47216798 .44898988 .5860901 .35899354 .6660156 .23699951 .6660156 .12399292 .6660156 .049987794 .57411196 .049987794 .48516847 .049987794 .4291687 .099990848 .4291687 .102996829 .4291687 .11999512 .4291687 .15499878 .44117738 .15499878 .48217774 .15499878 .5081787 .13699341 .5341797 .101989749 .5341797 .09399414 .5341797 .09199524 .5341797 .08898926 .5331726 .11199951 .59806826 .1659851 .63500979 .22399903 .63500979 .31498719 .63500979 .35798646 .5541382 .35798646 .47216798 .35798646 .39215089 .30799867 .31311036 .25299073 .25108338L.06098938 .036987306C.049987794 .025985718 .049987794 .023986817 .049987794 0H.42099L.44898988 .17404175H.42399598C.4189911 .14402771 .4119873 .1000061 .4019928 .084991458 .394989 .07699585 .32899476 .07699585 .30699159 .07699585H.1269989Z"/>
<path id="font_5_2" d="M.33399964 .30233766C.33999635 .32835389 .36299134 .42037965 .43299867 .42037965 .43798829 .42037965 .46199037 .42037965 .48298646 .40734864 .45498658 .402359 .43499757 .37734986 .43499757 .35334779 .43499757 .33735658 .44599916 .31835938 .47299195 .31835938 .49499513 .31835938 .5269928 .3363495 .5269928 .37635804 .5269928 .42837525 .46798707 .4423828 .43399049 .4423828 .37599183 .4423828 .34098817 .38935853 .32899476 .36634828 .3039856 .43237306 .25 .4423828 .22099304 .4423828 .116989139 .4423828 .05999756 .3133545 .05999756 .28834535 .05999756 .27833558 .069992069 .27833558 .07199097 .27833558 .07998657 .27833558 .08299255 .28033448 .084991458 .28933717 .11898804 .39535523 .18499756 .42037965 .21899414 .42037965 .23799134 .42037965 .272995 .4113617 .272995 .35334779 .272995 .32235719 .2559967 .25532533 .21899414 .11528015 .20298767 .053268434 .16799927 .011245728 .12399292 .011245728 .117996219 .011245728 .09498596 .011245728 .07398987 .024276734 .09899902 .029266358 .12098694 .05027771 .12098694 .07827759 .12098694 .105270389 .09899902 .11328125 .083999637 .11328125 .053985597 .11328125 .0289917 .08728027 .0289917 .055267335 .0289917 .009246826 .07899475-.0107421879 .12298584-.0107421879 .18899536-.0107421879 .22499085 .059280397 .22799683 .0652771 .23999024 .028274537 .27598573-.0107421879 .33599855-.0107421879 .43899537-.0107421879 .49598695 .118270877 .49598695 .14328003 .49598695 .1532898 .4869995 .1532898 .48399354 .1532898 .47499085 .1532898 .47299195 .14929199 .47099305 .14228821 .43798829 .03527832 .36999513 .011245728 .33799745 .011245728 .29899598 .011245728 .2829895 .043273927 .2829895 .07727051 .2829895 .09927368 .2889862 .121276859 .2999878 .16529846L.33399964 .30233766Z"/>
<path id="font_4_4" d="M.68699648 .32714845C.70199587 .32714845 .72099307 .32714845 .72099307 .34713746 .72099307 .36714173 .70199587 .36714173 .6879883 .36714173H.08898926C.07499695 .36714173 .055999757 .36714173 .055999757 .34713746 .055999757 .32714845 .07499695 .32714845 .08999634 .32714845H.68699648M.6879883 .13284302C.70199587 .13284302 .72099307 .13284302 .72099307 .15284729 .72099307 .17285156 .70199587 .17285156 .68699648 .17285156H.08999634C.07499695 .17285156 .055999757 .17285156 .055999757 .15284729 .055999757 .13284302 .07499695 .13284302 .08898926 .13284302H.6879883Z"/>
<path id="font_5_1" d="M.2649994 .37265016H.37799073C.34498597 .22489929 .33599855 .18196106 .33599855 .11508179 .33599855 .100097659 .33599855 .073150638 .34399415 .03919983 .35398866-.0047454836 .36499024-.0107421879 .37998963-.0107421879 .3999939-.0107421879 .42099 .007247925 .42099 .02722168 .42099 .033218385 .42099 .035202028 .4149933 .049179079 .38598634 .12106323 .38598634 .18595886 .38598634 .21391297 .38598634 .26683045 .3929901 .32073976 .4039917 .37265016H.5179901C.5309906 .37265016 .5669861 .37265016 .5669861 .406662 .5669861 .43066407 .54599 .43066407 .5269928 .43066407H.19198609C.16999817 .43066407 .13198853 .43066407 .08799744 .38365174 .052993776 .34469605 .026992798 .29878236 .026992798 .29379273 .026992798 .29278565 .026992798 .28379823 .038986207 .28379823 .04699707 .28379823 .04899597 .28779603 .054992677 .29577638 .10398865 .37265016 .1619873 .37265016 .18199158 .37265016H.23899842C.20698548 .25186158 .15299988 .13105774 .11099243 .04020691 .102996829 .025222779 .102996829 .023223877 .102996829 .016235352 .102996829-.002746582 .11898804-.0107421879 .13198853-.0107421879 .1619873-.0107421879 .16999817 .017242432 .18199158 .05418396 .19599915 .100097659 .19599915 .10209656 .20899964 .15202332L.2649994 .37265016Z"/>
<path id="font_4_1" d="M.45999146 .31976319C.45999146 .39982606 .45498658 .47988893 .41999818 .5539398 .37399293 .65000918 .2919922 .6660156 .25 .6660156 .18998719 .6660156 .116989139 .64001467 .07598877 .54693606 .04399109 .47789 .038986207 .39982606 .038986207 .31976319 .038986207 .24472046 .042999269 .15464783 .083999637 .07859802 .1269989-.0024719239 .19999695-.022460938 .24899292-.022460938 .30299378-.022460938 .3789978-.0014648438 .4229889 .09359741 .45498658 .16265869 .45999146 .2407074 .45999146 .31976319M.24899292-.00047302247C.20999146-.00047302247 .15098572 .024551392 .1329956 .12062073 .12199402 .18066406 .12199402 .2727356 .12199402 .3317871 .12199402 .39582826 .12199402 .46188355 .12998963 .5159149 .14898682 .63500979 .22399903 .64401248 .24899292 .64401248 .28199769 .64401248 .34799195 .6259918 .36698915 .52693179 .3769989 .47088624 .3769989 .39482118 .3769989 .3317871 .3769989 .25672914 .3769989 .18867493 .3659973 .12461853 .35099793 .029556275 .2939911-.00047302247 .24899292-.00047302247Z"/>
<path id="font_4_3" d="M.2899933 .35191346C.37199403 .37893678 .42999269 .4490509 .42999269 .52809146 .42999269 .6100464 .34199525 .6660156 .24598694 .6660156 .14498902 .6660156 .068984989 .60606387 .068984989 .53009036 .068984989 .49710084 .09098816 .47808839 .11999512 .47808839 .15098572 .47808839 .17098999 .50009158 .17098999 .5290985 .17098999 .57910159 .12399292 .57910159 .10899353 .57910159 .13999939 .62802127 .20599365 .64100649 .24198914 .64100649 .2829895 .64100649 .33799745 .6190338 .33799745 .5290985 .33799745 .51708987 .33599855 .45906068 .30999757 .4149933 .27999879 .36691285 .24598694 .36390687 .22099304 .36291505 .21299744 .36190797 .18899536 .35990907 .18199158 .35990907 .17399597 .35890199 .16699219 .35791017 .16699219 .3479004 .16699219 .33691407 .17399597 .33691407 .19099427 .33691407H.23498535C.31698609 .33691407 .35398866 .2686615 .35398866 .17037964 .35398866 .034469606 .2849884 .0055389406 .24099732 .0055389406 .19799805 .0055389406 .12298584 .022491456 .08799744 .08137512 .12298584 .07637024 .1539917 .09837341 .1539917 .1363678 .1539917 .17237854 .1269989 .19238281 .09799194 .19238281 .07398987 .19238281 .041992189 .17837525 .041992189 .1343689 .041992189 .043441774 .1349945-.022460938 .24398804-.022460938 .3659973-.022460938 .45700074 .06838989 .45700074 .17037964 .45700074 .252594 .3939972 .33088685 .2899933 .35191346Z"/>
<path id="font_5_3" d="M.48599244 .38136292C.48999024 .39537049 .48999024 .39736939 .48999024 .40437318 .48999024 .42237855 .47599793 .43138124 .46099855 .43138124 .45098878 .43138124 .43499757 .42536927 .42599488 .41036988 .42399598 .405365 .41600038 .37435914 .4119873 .35635377 .40499879 .33035279 .397995 .30334474 .3919983 .27633668L.34700013 .09628296C.34298707 .08126831 .2999878 .011245728 .23399353 .011245728 .18299866 .011245728 .17199707 .055267335 .17199707 .0922699 .17199707 .1382904 .18899536 .20030213 .22299195 .28833009 .23899842 .3293457 .24299622 .3403473 .24299622 .36035157 .24299622 .405365 .21099854 .4423828 .16099549 .4423828 .06599426 .4423828 .0289917 .29733277 .0289917 .28833009 .0289917 .27833558 .038986207 .27833558 .040985109 .27833558 .050994874 .27833558 .051986696 .28033448 .056991579 .29634095 .083999637 .3903656 .12399292 .42037965 .1579895 .42037965 .1659851 .42037965 .18299866 .42037965 .18299866 .3883667 .18299866 .36335755 .17298889 .3373413 .1659851 .31834413 .12599182 .21231079 .10798645 .1552887 .10798645 .10827637 .10798645 .019256592 .17098999-.0107421879 .22999573-.0107421879 .2689972-.0107421879 .30299378 .0062561037 .33099366 .03425598 .31799317-.017745972 .30599977-.06674194 .2659912-.11973572 .23999024-.15385437 .20199585-.18309021 .1559906-.18309021 .14199829-.18309021 .09700012-.18005371 .07998657-.14074707 .09599304-.14074707 .10899353-.14074707 .12298584-.1287384 .1329956-.11973572 .14299011-.10673523 .14299011-.08773804 .14299011-.056747438 .115997318-.052734376 .10598755-.052734376 .08299255-.052734376 .049987794-.068740848 .049987794-.11773682 .049987794-.16796875 .09399414-.20507813 .1559906-.20507813 .25898744-.20507813 .3619995-.11373901 .3899994-.00074768069L.48599244 .38136292Z"/>
</defs>
<path transform="matrix(1,0,0,-1.00002,14.275002,172.4792)" stroke-width=".19925" stroke-linecap="butt" stroke-miterlimit="10" stroke-linejoin="miter" fill="none" stroke="#7f807f" d="M24.07916 78.57195V82.82378M60.60863 78.57195V82.82378M97.13808 78.57195V82.82378M133.66756 78.57195V82.82378M170.197 78.57195V82.82378"/>
<path transform="matrix(1,0,0,-1.00002,14.275002,172.4792)" stroke-width=".19925" stroke-linecap="butt" stroke-miterlimit="10" stroke-linejoin="miter" fill="none" stroke="#7f807f" d="M76.74883 31.79007H81.0008M76.74883 129.60569H81.0008"/>
<path transform="matrix(1,0,0,-1.00002,14.275002,172.4792)" stroke-width=".3985" stroke-linecap="butt" stroke-miterlimit="10" stroke-linejoin="miter" fill="none" stroke="#000000" d="M0 80.69788H192.28754"/>
<path transform="matrix(1,0,0,-1.00002,206.56253,91.7797)" d="M1.99252 0-1.19551 1.59401 0 0-1.19551-1.59401"/>
<path transform="matrix(1,0,0,-1.00002,14.275002,172.4792)" stroke-width=".3985" stroke-linecap="butt" stroke-miterlimit="10" stroke-linejoin="miter" fill="none" stroke="#000000" d="M78.87482 0V159.40323"/>
<path transform="matrix(0,-1.00002,-1,-0,93.14982,13.072784)" d="M1.99252 0-1.19551 1.59401 0 0-1.19551-1.59401"/>
<use data-text="&#x2212;" xlink:href="#font_1_1" transform="matrix(9.9626,0,0,-9.962799,28.844002,105.842868)"/>
<use data-text="3" xlink:href="#font_2_2" transform="matrix(6.9738,0,0,-6.97394,37.788003,101.919788)"/>
<use data-text="&#x03c0;" xlink:href="#font_3_1" transform="matrix(6.9738,0,0,-6.97394,41.759004,101.919788)"/>
<path transform="matrix(1,0,0,-1.00002,-86.81,-40.548067)" stroke-width=".3985" stroke-linecap="butt" stroke-miterlimit="10" stroke-linejoin="miter" fill="none" stroke="#000000" d="M124.598-143.897H133.478"/>
<use data-text="2" xlink:href="#font_2_1" transform="matrix(6.9738,0,0,-6.97394,40.242006,109.27794)"/>
<use data-text="&#x2212;" xlink:href="#font_1_1" transform="matrix(9.9626,0,0,-9.962799,67.359,104.35084)"/>
<use data-text="&#x03c0;" xlink:href="#font_3_1" transform="matrix(6.9738,0,0,-6.97394,76.303,100.42776)"/>
<path transform="matrix(1,0,0,-1.00002,-48.295,-42.040094)" stroke-width=".3985" stroke-linecap="butt" stroke-miterlimit="10" stroke-linejoin="miter" fill="none" stroke="#000000" d="M124.598-143.897H129.507"/>
<use data-text="2" xlink:href="#font_2_1" transform="matrix(6.9738,0,0,-6.97394,76.772,107.78591)"/>
<use data-text="&#x03c0;" xlink:href="#font_3_1" transform="matrix(6.9738,0,0,-6.97394,108.958,100.42776)"/>
<path transform="matrix(1,0,0,-1.00002,-7.890999,-42.040094)" stroke-width=".3985" stroke-linecap="butt" stroke-miterlimit="10" stroke-linejoin="miter" fill="none" stroke="#000000" d="M116.849-143.897H121.758"/>
<use data-text="2" xlink:href="#font_2_1" transform="matrix(6.9738,0,0,-6.97394,109.427,107.78591)"/>
<use data-text="3" xlink:href="#font_2_2" transform="matrix(6.9738,0,0,-6.97394,143.502,101.919788)"/>
<use data-text="&#x03c0;" xlink:href="#font_3_1" transform="matrix(6.9738,0,0,-6.97394,147.47299,101.919788)"/>
<path transform="matrix(1,0,0,-1.00002,26.653,-40.548067)" stroke-width=".3985" stroke-linecap="butt" stroke-miterlimit="10" stroke-linejoin="miter" fill="none" stroke="#000000" d="M116.849-143.897H125.729"/>
<use data-text="2" xlink:href="#font_2_1" transform="matrix(6.9738,0,0,-6.97394,145.957,109.27794)"/>
<use data-text="5" xlink:href="#font_2_3" transform="matrix(6.9738,0,0,-6.97394,180.031,101.919788)"/>
<use data-text="&#x03c0;" xlink:href="#font_3_1" transform="matrix(6.9738,0,0,-6.97394,184.00202,101.919788)"/>
<path transform="matrix(1,0,0,-1.00002,63.182008,-40.548067)" stroke-width=".3985" stroke-linecap="butt" stroke-miterlimit="10" stroke-linejoin="miter" fill="none" stroke="#000000" d="M116.849-143.897H125.729"/>
<use data-text="2" xlink:href="#font_2_1" transform="matrix(6.9738,0,0,-6.97394,182.48601,109.27794)"/>
<use data-text="&#x2212;" xlink:href="#font_1_1" transform="matrix(9.9626,0,0,-9.962799,74.774,143.48363)"/>
<use data-text="2" xlink:href="#font_4_2" transform="matrix(9.9626,0,0,-9.962799,82.522,143.48363)"/>
<use data-text="2" xlink:href="#font_4_2" transform="matrix(9.9626,0,0,-9.962799,82.523,46.081674)"/>
<path transform="matrix(1,0,0,-1.00002,14.275002,172.4792)" stroke-width=".99628" stroke-linecap="butt" stroke-miterlimit="10" stroke-linejoin="miter" fill="none" stroke="#0000ff" d="M9.42715 156.86582 9.4509 156.31813 9.5994 153.14206 9.74791 150.20124 9.89642 147.4668 10.04492 144.91284 10.19344 142.52956 10.34196 140.29007 10.49046 138.18898 10.63898 136.20944 10.78749 134.34313 10.93599 132.57535 11.0845 130.90345 11.233 129.31467 11.38153 127.80905 11.53004 126.37286 11.67854 125.0005 11.82706 123.69443 11.97557 122.44409 12.12407 121.24805 12.2726 120.10043 12.4211 118.99953 12.56961 117.94214 12.71812 116.92583 12.86662 115.94621 13.01514 115.00229 13.16365 114.09212 13.31216 113.21225 13.46068 112.36322 13.60918 111.53986 13.75769 110.74388 13.9062 109.97188 14.0547 109.22333 14.20322 108.49657 14.35175 107.79108 14.50024 107.10464 14.64876 106.43732 14.79726 105.78879 14.94577 105.1547 15.09428 104.53798 15.2428 103.9364 15.39131 103.34952 15.53983 102.77559 15.68832 102.21584 15.83684 101.66733 15.98534 101.13203 16.13385 100.60628 16.28238 100.09201 16.43088 99.5885 16.57939 99.09453 16.7279 98.61035 16.8764 98.13448 17.02492 97.66766 17.17345 97.2089 17.32195 96.75797 17.47046 96.31511 17.61896 95.87811 17.76747 95.44994 17.91599 95.02637 18.06448 94.61017 18.21301 94.19984 18.36153 93.79465 18.51003 93.39604 18.65854 93.00159 18.80704 92.61327 18.95555 92.22887 19.10408 91.84933 19.25258 91.47395 19.4011 91.103 19.5496 90.73668 19.6981 90.37329 19.84662 90.01407 19.99512 89.65826 20.14365 89.3054 20.29216 88.95595 20.44066 88.60944 20.58917 88.26537 20.73769 87.92473 20.88618 87.58653 21.03471 87.25053 21.18321 86.91698 21.33173 86.58514 21.48024 86.25623 21.62874 85.9288 21.77725 85.60307 21.92578 85.27856 22.07428 84.95602 22.2228 84.63518 22.3713 84.31534 22.5198 83.9972 22.66832 83.67928 22.81682 83.36235 22.96535 83.04727 23.11386 82.73221 23.26236 82.41832 23.41087 82.1044 23.55939 81.79112 23.70789 81.47835 23.8564 81.16626 24.00491 80.85388 24.15343 80.54184 24.30196 80.22946 24.45044 79.91737 24.59897 79.6046 24.74747 79.29132 24.89598 78.9774 25.0445 78.66351 25.193 78.34845 25.3415 78.03238 25.49002 77.71645 25.63852 77.39903 25.78705 77.0804 25.93555 76.76054 26.08406 76.43971 26.23256 76.11717 26.38107 75.79265 26.5296 75.46693 26.6781 75.13998 26.82661 74.81058 26.97511 74.47949 27.12364 74.14519 27.27216 73.8092 27.42065 73.47125 27.56917 73.13036 27.71767 72.78629 27.8662 72.44002 28.0147 72.09082 28.16321 71.73795 28.31172 71.38165 28.46022 71.02243 28.60873 70.65977 28.75726 70.29272 28.90575 69.92177 29.05428 69.5464 29.20276 69.16711 29.35129 68.78246 29.49982 68.39363 29.6483 67.9997 29.79683 67.60107 29.94533 67.19588 30.09384 66.78555 30.24237 66.36935 30.39085 65.94629 30.53938 65.51714 30.68788 65.08061 30.8364 64.63802 30.98491 64.18683 31.13342 63.72807 31.28192 63.26076 31.43044 62.78539 31.57895 62.3012 31.72746 61.80746 31.87598 61.30371 32.02448 60.78944 32.17299 60.26491 32.3215 59.72864 32.47002 59.1799 32.61852 58.62015 32.76703 58.04669 32.91553 57.45932 33.06406 56.85774 33.21257 56.24103 33.36107 55.60695 33.5096 54.9589 33.65808 54.29108 33.80661 53.6054 33.95511 52.89915 34.10362 52.17313 34.25214 51.42409 34.40063 50.65184 34.54916 49.85587 34.69768 49.03299 34.84618 48.18347 34.99469 47.3036 35.1432 46.3915 35.2917 45.44879 35.44023 44.4699 35.58871 43.45236 35.73724 42.3962 35.88574 41.29529 36.03426 40.14914 36.18279 38.95163 36.33128 37.70154 36.4798 36.39424 36.6283 35.02554 36.77681 33.58937 36.92534 32.07935 37.07384 30.49277 37.22235 28.8194 37.37085 27.0526 37.51938 25.1836 37.66788 23.20575 37.81639 21.1042 37.96489 18.8691 38.1134 16.4829 38.26192 13.93065 38.41043 11.19499 38.55893 8.25366 38.70746 5.07759 38.73119 4.5299"/>
<path transform="matrix(-.04318,-.99904,-.99902,.043180866,23.702153,15.61026)" d="M2.8892 0-1.73352 2.31136 0 0-1.73352-2.31136" fill="#0000ff"/>
<path transform="matrix(.04318,.99904,.99902,-.043180866,53.00619,167.94919)" d="M2.8892 0-1.73352 2.31136 0 0-1.73352-2.31136" fill="#0000ff"/>
<path transform="matrix(1,0,0,-1.00002,14.275002,172.4792)" stroke-width=".99628" stroke-linecap="butt" stroke-miterlimit="10" stroke-linejoin="miter" fill="none" stroke="#0000ff" d="M45.95755 156.86582 45.9813 156.31813 46.12982 153.14427 46.27832 150.20075 46.42683 147.46509 46.57535 144.91284 46.72385 142.52712 46.87236 140.29007 47.02087 138.18898 47.16939 136.21215 47.3179 134.34313 47.4664 132.5773 47.61491 130.90345 47.76343 129.31467 47.91193 127.80635 48.06046 126.37286 48.20897 125.00148 48.35747 123.69443 48.50598 122.44409 48.65448 121.24805 48.803 120.1019 48.9515 119.00026 49.10002 117.94214 49.24854 116.9268 49.39705 115.94695 49.54555 115.00375 49.69406 114.09212 49.84256 113.21225 49.99109 112.36275 50.1396 111.53986 50.2881 110.74388 50.43661 109.97163 50.58513 109.22308 50.73363 108.49657 50.88214 107.79108 51.03065 107.10564 51.17917 106.43732 51.32768 105.78806 51.47618 105.1552 51.6247 104.53822 51.77321 103.93689 51.92172 103.34903 52.07024 102.77606 52.21875 102.21584 52.36725 101.66708 52.51576 101.13081 52.66426 100.60628 52.81279 100.09201 52.9613 99.58826 53.1098 99.09453 53.25832 98.60962 53.40683 98.13496 53.55533 97.66766 53.70384 97.20914 53.85236 96.75845 54.00087 96.31487 54.14938 95.8786 54.29788 95.44994 54.4464 95.02637 54.59491 94.61066 54.74342 94.19984 54.89194 93.79538 55.04044 93.39604 55.18895 93.00209 55.33746 92.6128 55.48596 92.22887 55.63448 91.84982 55.783 91.47395 55.9315 91.10397 56.08002 90.73619 56.22852 90.37329 56.37703 90.01407 56.52554 89.65826 56.67404 89.3054 56.82257 88.95644 56.97108 88.60944 57.11958 88.26537 57.2681 87.92473 57.4166 87.58653 57.56511 87.25053 57.71364 86.91698 57.86214 86.58514 58.01065 86.25574 58.15916 85.9288 58.30766 85.60307 58.45618 85.27856 58.6047 84.95602 58.7532 84.63518 58.90172 84.31534 59.05022 83.9972 59.19873 83.67952 59.34724 83.36334 59.49574 83.04727 59.64427 82.73221 59.79279 82.41832 59.94128 82.1044 60.0898 81.79161 60.2383 81.47835 60.38681 81.16626 60.53534 80.85388 60.68384 80.54184 60.83235 80.22946 60.98087 79.91737 61.12936 79.6046 61.27788 79.29132 61.42638 78.9774 61.5749 78.66351 61.7234 78.34892 61.87192 78.03337 62.02042 77.71645 62.16895 77.39903 62.31746 77.08064 62.46596 76.76079 62.61447 76.43971 62.76297 76.11717 62.9115 75.79265 63.06001 75.46767 63.20851 75.1395 63.35704 74.81058 63.50552 74.47949 63.65405 74.14519 63.80255 73.8092 63.95107 73.47101 64.09958 73.12938 64.24808 72.78653 64.39659 72.44002 64.54512 72.09009 64.6936 71.73746 64.84213 71.38141 64.99063 71.02267 65.13914 70.65953 65.28767 70.29272 65.43616 69.92177 65.58469 69.5464 65.73318 69.16687 65.8817 68.78294 66.03023 68.39413 66.17873 68.00041 66.32724 67.60107 66.47574 67.19588 66.62425 66.7858 66.77277 66.36935 66.92128 65.9458 67.06978 65.51761 67.21829 65.08061 67.3668 64.63776 67.51532 64.18683 67.66383 63.72833 67.81233 63.26076 67.96085 62.78539 68.10936 62.3012 68.25787 61.80746 68.40637 61.30371 68.5549 60.78944 68.70338 60.26491 68.85191 59.7284 69.00043 59.18062 69.14893 58.62015 69.29745 58.0462 69.44594 57.45932 69.59447 56.85774 69.743 56.24103 69.89148 55.60768 70.04001 54.9589 70.1885 54.29108 70.33702 53.6054 70.48553 52.89915 70.63403 52.17313 70.78255 51.42532 70.93106 50.65257 71.07956 49.85709 71.22809 49.0325 71.37659 48.18347 71.5251 47.3024 71.6736 46.39343 71.82211 45.44879 71.97064 44.4694 72.11914 43.45358 72.26765 42.39546 72.41615 41.29529 72.56468 40.14914 72.7132 38.95212 72.8617 37.70154 73.01021 36.39522 73.1587 35.02336 73.30724 33.58937 73.45573 32.08105 73.60425 30.4923 73.75276 28.82037 73.90126 27.05652 74.04977 25.1836 74.19829 23.20575 74.34679 21.10565 74.49532 18.86617 74.6438 16.4829 74.79233 13.93431 74.94086 11.19499 75.08934 8.25366 75.23787 5.08249 75.26178 4.52986"/>
<path transform="matrix(-.04318,-.99904,-.99902,.043180866,60.23255,15.61026)" d="M2.8892 0-1.73352 2.31136 0 0-1.73352-2.31136" fill="#0000ff"/>
<path transform="matrix(.04312,.99903008,.99901,-.043120866,89.53678,167.94924)" d="M2.8892 0-1.73352 2.31136 0 0-1.73352-2.31136" fill="#0000ff"/>
<path transform="matrix(1,0,0,-1.00002,14.275002,172.4792)" stroke-width=".99628" stroke-linecap="butt" stroke-miterlimit="10" stroke-linejoin="miter" fill="none" stroke="#0000ff" d="M82.48788 156.86586 82.51172 156.31325 82.66023 153.14206 82.80875 150.20124 82.95724 147.46141 83.10576 144.91284 83.25427 142.52956 83.40279 140.29152 83.5513 138.18898 83.6998 136.20798 83.84831 134.34313 83.99683 132.5773 84.14532 130.90345 84.29384 129.31638 84.44237 127.80635 84.59087 126.37236 84.73938 125.00148 84.88788 123.69443 85.03639 122.44409 85.1849 121.24805 85.3334 120.10043 85.48193 118.99953 85.63045 117.94336 85.77895 116.92632 85.92746 115.94695 86.07596 115.00253 86.22447 114.09212 86.37299 113.21225 86.5215 112.36275 86.67001 111.53986 86.81853 110.74315 86.96703 109.97163 87.11554 109.22308 87.26404 108.49706 87.41255 107.79108 87.56108 107.10564 87.70958 106.43732 87.8581 105.78806 88.0066 105.1552 88.1551 104.53798 88.30362 103.93689 88.45213 103.35 88.60063 102.77559 88.74916 102.21584 88.89766 101.66708 89.04617 101.1313 89.19469 100.60628 89.34319 100.09201 89.4917 99.5885 89.64023 99.09453 89.78873 98.61035 89.93724 98.13496 90.08574 97.66766 90.23425 97.20914 90.38277 96.75845 90.53127 96.31511 90.67978 95.8786 90.82831 95.44994 90.9768 95.02711 91.12532 94.61017 91.27382 94.19984 91.42233 93.79538 91.57085 93.39604 91.71936 93.00209 91.86787 92.6128 92.01639 92.22887 92.16489 91.84982 92.3134 91.4747 92.4619 91.10349 92.61041 90.73668 92.75893 90.37329 92.90744 90.01407 93.05595 89.65826 93.20447 89.30563 93.35297 88.95644 93.50148 88.60944 93.65 88.26634 93.7985 87.92473 93.94702 87.58653 94.09552 87.25053 94.24403 86.91698 94.39255 86.58514 94.54105 86.25623 94.68956 85.9288 94.83809 85.60307 94.98659 85.27856 95.1351 84.95602 95.2836 84.63518 95.43211 84.31534 95.58063 83.9967 95.72913 83.67928 95.87764 83.36235 96.02617 83.0468 96.17467 82.73267 96.32318 82.41832 96.47168 82.10461 96.6202 81.79161 96.7687 81.47835 96.91722 81.16626 97.06573 80.85388 97.21425 80.54184 97.36275 80.22946 97.51126 79.91737 97.65976 79.6046 97.80827 79.29132 97.95679 78.9774 98.1053 78.66306 98.2538 78.34892 98.40233 78.03337 98.55081 77.71645 98.69934 77.39928 98.84785 77.08064 98.99635 76.76054 99.14488 76.43971 99.29337 76.11717 99.4419 75.79265 99.59042 75.46693 99.7389 75.13998 99.88744 74.81058 100.03593 74.47949 100.18445 74.14519 100.33296 73.8092 100.48145 73.47101 100.62997 73.13036 100.77847 72.78653 100.92699 72.44002 101.07552 72.09033 101.22401 71.73746 101.37253 71.38165 101.52103 71.02243 101.66954 70.65953 101.81807 70.29272 101.96657 69.92177 102.11508 69.5464 102.26358 69.16687 102.41211 68.78319 102.56061 68.39413 102.70912 67.99994 102.85762 67.60107 103.00613 67.19588 103.15465 66.7858 103.30316 66.3686 103.45166 65.94629 103.60019 65.51761 103.74867 65.08086 103.8972 64.63802 104.04572 64.18683 104.19421 63.72807 104.34274 63.26076 104.49123 62.7861 104.63976 62.3012 104.78828 61.80746 104.93677 61.30396 105.0853 60.78944 105.23378 60.26491 105.38231 59.72864 105.53082 59.18062 105.6793 58.62039 105.82784 58.04669 105.97633 57.45932 106.12485 56.85774 106.27338 56.24103 106.42188 55.60768 106.57039 54.95842 106.71889 54.29108 106.8674 53.60513 107.01593 52.89915 107.16443 52.17313 107.31294 51.42384 107.46144 50.65257 107.60997 49.85709 107.75847 49.03299 107.90698 48.1842 108.05548 47.3036 108.204 46.39343 108.35251 45.44951 108.50102 44.4699 108.64952 43.45285 108.79805 42.39694 108.94653 41.29382 109.09506 40.14792 109.24358 38.95163 109.39207 37.70349 109.5406 36.39522 109.68909 35.02336 109.83762 33.58937 109.98615 32.08105 110.13463 30.4923 110.28316 28.82259 110.43164 27.05383 110.58017 25.18776 110.72868 23.20674 110.87717 21.1042 111.0257 18.8691 111.1742 16.4829 111.32271 13.92892 111.47124 11.19499 111.61974 8.25366 111.76825 5.08249 111.79216 4.52986"/>
<path transform="matrix(-.04315,-.99903008,-.99901,.043150866,96.76288,15.610214)" d="M2.8892 0-1.73352 2.31136 0 0-1.73352-2.31136" fill="#0000ff"/>
<path transform="matrix(.04312,.99903008,.99901,-.043120866,126.06716,167.94924)" d="M2.8892 0-1.73352 2.31136 0 0-1.73352-2.31136" fill="#0000ff"/>
<path transform="matrix(1,0,0,-1.00002,14.275002,172.4792)" stroke-width=".99628" stroke-linecap="butt" stroke-miterlimit="10" stroke-linejoin="miter" fill="none" stroke="#0000ff" d="M119.01842 156.86582 119.04214 156.3201 119.19064 153.14206 119.33916 150.20124 119.48767 147.46509 119.63618 144.91284 119.7847 142.52956 119.9332 140.29152 120.08171 138.18997 120.23022 136.20798 120.37872 134.34313 120.52724 132.57535 120.67577 130.90345 120.82426 129.31467 120.97278 127.80635 121.12128 126.37018 121.26979 125.00197 121.4183 123.69443 121.56682 122.44362 121.71533 121.2478 121.86385 120.10043 122.01234 119.00026 122.16086 117.94287 122.30936 116.92583 122.45787 115.94621 122.6064 115.00229 122.7549 114.09212 122.90341 113.21298 123.05193 112.36322 123.20042 111.54034 123.34894 110.74388 123.49747 109.97163 123.64597 109.22308 123.79448 108.4973 123.94298 107.79059 124.09149 107.10564 124.24 106.43805 124.3885 105.78879 124.53703 105.1552 124.68555 104.53798 124.83405 103.93689 124.98256 103.34903 125.13106 102.77559 125.27957 102.21584 125.4281 101.66733 125.5766 101.1313 125.72511 100.60628 125.87363 100.09201 126.02213 99.5885 126.17064 99.09453 126.31915 98.61035 126.46767 98.13496 126.61618 97.66766 126.76468 97.20914 126.9132 96.7577 127.0617 96.3156 127.2102 95.8786 127.35873 95.44994 127.50723 95.02736 127.65575 94.61066 127.80426 94.19984 127.95276 93.79465 128.10128 93.39604 128.24979 93.00209 128.3983 92.6128 128.54682 92.22887 128.69532 91.84982 128.84383 91.47395 128.99234 91.103 129.14084 90.73619 129.28937 90.37305 129.43788 90.01407 129.58638 89.65778 129.7349 89.3054 129.8834 88.9557 130.0319 88.60944 130.18042 88.26585 130.32894 87.92473 130.47745 87.58653 130.62596 87.25053 130.77446 86.91698 130.92298 86.58514 131.07149 86.25623 131.22 85.9288 131.36852 85.60307 131.51702 85.27856 131.66553 84.95602 131.81404 84.63518 131.96254 84.31534 132.11107 83.9967 132.25959 83.67928 132.40808 83.36235 132.5566 83.04727 132.7051 82.73221 132.8536 82.41858 133.00212 82.1044 133.15064 81.79161 133.29915 81.47884 133.44766 81.16626 133.59616 80.85388 133.74468 80.54184 133.89319 80.22946 134.04169 79.91737 134.19022 79.6046 134.3387 79.29132 134.48723 78.9774 134.63576 78.66351 134.78424 78.34892 134.93277 78.03337 135.08126 77.7162 135.22978 77.39903 135.3783 77.0804 135.5268 76.76054 135.67531 76.43971 135.82382 76.11717 135.97232 75.79265 136.12085 75.46693 136.26935 75.13998 136.41786 74.81058 136.56636 74.47949 136.71488 74.14519 136.8634 73.8092 137.0119 73.47101 137.16042 73.13036 137.30892 72.78629 137.45745 72.44002 137.60596 72.09009 137.75446 71.73795 137.90297 71.38141 138.05147 71.02267 138.2 70.65953 138.3485 70.29272 138.49701 69.92177 138.64553 69.5464 138.79402 69.16687 138.94254 68.78294 139.09105 68.39363 139.23955 68.00041 139.38808 67.60107 139.53658 67.19563 139.68509 66.7858 139.83362 66.3686 139.9821 65.94629 140.13063 65.51714 140.27912 65.08086 140.42765 64.63727 140.57617 64.18658 140.72466 63.72807 140.87319 63.26076 141.02169 62.78539 141.1702 62.3012 141.31873 61.80746 141.46723 61.30371 141.61574 60.78944 141.76424 60.26491 141.91275 59.72864 142.06127 59.18062 142.20978 58.61942 142.35828 58.0462 142.50679 57.46005 142.6553 56.8575 142.80382 56.24103 142.95232 55.60768 143.10083 54.95842 143.24933 54.29108 143.39786 53.60464 143.54637 52.89915 143.69487 52.1719 143.8434 51.42409 143.99188 50.6533 144.14041 49.85587 144.28893 49.0325 144.43743 48.1842 144.58596 47.3024 144.73444 46.39343 144.88297 45.44879 145.03148 44.4699 145.17998 43.45358 145.32849 42.39546 145.47699 41.29529 145.6255 40.14767 145.77404 38.95212 145.92252 37.70154 146.07105 36.39473 146.21955 35.02336 146.36806 33.58937 146.51659 32.08105 146.66507 30.49449 146.8136 28.82037 146.9621 27.0526 147.11061 25.1836 147.25914 23.20674 147.40764 21.10565 147.55615 18.8691 147.70465 16.4829 147.85318 13.92892 148.00168 11.19499 148.15019 8.25146 148.29869 5.08249 148.32263 4.52913"/>
<path transform="matrix(-.0432,-.99904,-.99902,.043200867,133.29343,15.61026)" d="M2.8892 0-1.73352 2.31136 0 0-1.73352-2.31136" fill="#0000ff"/>
<path transform="matrix(.04312,.99903008,.99901,-.043120866,162.59763,167.94997)" d="M2.8892 0-1.73352 2.31136 0 0-1.73352-2.31136" fill="#0000ff"/>
<path transform="matrix(1,0,0,-1.00002,14.275002,172.4792)" stroke-width=".99628" stroke-linecap="butt" stroke-miterlimit="10" stroke-linejoin="miter" fill="none" stroke="#0000ff" d="M155.54885 156.86582 155.57256 156.3201 155.72107 153.14206 155.86957 150.20075 156.01808 147.4668 156.16658 144.9165 156.3151 142.52956 156.46363 140.293 156.61212 138.18997 156.76064 136.21215 156.90915 134.34313 157.05765 132.5773 157.20616 130.90345 157.35468 129.31467 157.50319 127.80635 157.6517 126.37042 157.8002 125.00148 157.94872 123.69443 158.09723 122.44556 158.24573 121.24805 158.39426 120.10043 158.54276 118.99953 158.69127 117.94336 158.83979 116.92632 158.98828 115.94621 159.1368 115.00375 159.28533 114.09334 159.43383 113.21225 159.58234 112.36275 159.73085 111.53986 159.87935 110.74315 160.02787 109.97188 160.17636 109.22382 160.32489 108.49706 160.4734 107.79059 160.6219 107.10464 160.77042 106.43732 160.91893 105.78806 161.06743 105.1547 161.21596 104.53798 161.36446 103.9364 161.51297 103.35 161.66149 102.77559 161.80998 102.2151 161.9585 101.66733 162.10701 101.1313 162.25553 100.60628 162.40404 100.09201 162.55254 99.58826 162.70105 99.09453 162.84957 98.61035 162.99806 98.13496 163.14659 97.66766 163.2951 97.20914 163.4436 96.75845 163.59212 96.31511 163.74062 95.8786 163.88913 95.44943 164.03765 95.02736 164.18616 94.61066 164.33467 94.20009 164.48319 93.79465 164.63169 93.3958 164.7802 93.00209 164.92871 92.6128 165.07723 92.22887 165.22574 91.84982 165.37424 91.47395 165.52275 91.103 165.67127 90.73619 165.81977 90.37329 165.96828 90.01407 166.1168 89.65826 166.2653 89.30563 166.41382 88.95644 166.56232 88.60944 166.71083 88.26585 166.85935 87.92473 167.00786 87.58653 167.15637 87.25053 167.30489 86.91649 167.45339 86.58514 167.6019 86.25574 167.7504 85.9288 167.89891 85.60307 168.04744 85.27856 168.19594 84.95602 168.34445 84.63518 168.49297 84.31534 168.64147 83.9972 168.78998 83.67952 168.93849 83.36235 169.087 83.04727 169.23552 82.73267 169.38402 82.41858 169.53253 82.10461 169.68105 81.79161 169.82956 81.47884 169.97808 81.16626 170.12657 80.85388 170.27509 80.54184 170.42362 80.22946 170.5721 79.91737 170.72063 79.6046 170.86913 79.29132 171.01764 78.9774 171.16616 78.66351 171.31467 78.34892 171.46317 78.03337 171.61168 77.71645 171.7602 77.39903 171.9087 77.0804 172.05722 76.76054 172.20572 76.43971 172.35424 76.11717 172.50275 75.79265 172.65126 75.46767 172.79976 75.13998 172.94828 74.81058 173.09677 74.47949 173.2453 74.14519 173.39382 73.8097 173.54232 73.47125 173.69084 73.13036 173.83933 72.78629 173.98786 72.44002 174.13636 72.09033 174.28487 71.73795 174.43338 71.38165 174.58188 71.02267 174.73041 70.65953 174.87892 70.29272 175.02742 69.92177 175.17594 69.5464 175.32444 69.16687 175.47295 68.78294 175.62148 68.39438 175.76996 67.9997 175.91849 67.60107 176.06699 67.19588 176.2155 66.78555 176.36403 66.3686 176.51251 65.94629 176.66104 65.51761 176.80954 65.08086 176.95806 64.63802 177.10659 64.18658 177.25508 63.72807 177.4036 63.2615 177.5521 62.7861 177.70063 62.30144 177.84912 61.80746 177.99764 61.30371 178.14614 60.78944 178.29465 60.26369 178.44316 59.72864 178.59168 59.18062 178.74018 58.62015 178.8887 58.04669 179.03719 57.45932 179.18572 56.85774 179.33423 56.24103 179.48273 55.60768 179.63126 54.95842 179.77974 54.29181 179.92827 53.60513 180.0768 52.89915 180.22528 52.17264 180.37381 51.42409 180.5223 50.6533 180.67082 49.8566 180.81934 49.03374 180.96784 48.18347 181.11635 47.3036 181.26486 46.39343 181.41336 45.44951 181.56189 44.4699 181.71038 43.45285 181.8589 42.3962 182.0074 41.29529 182.15592 40.14914 182.30445 38.95163 182.45294 37.70302 182.60146 36.39424 182.74996 35.02336 182.89847 33.58937 183.047 32.08105 183.1955 30.4923 183.34401 28.82037 183.49251 27.05528 183.64104 25.18628 183.78954 23.20674 183.93805 21.10565 184.08657 18.8686 184.23506 16.4829 184.38359 13.93065 184.53209 11.19499 184.6806 8.25366 184.82912 5.07562 184.85251 4.53525"/>
<path transform="matrix(-.0432,-.99904,-.99902,.043200867,169.82386,15.61026)" d="M2.8892 0-1.73352 2.31136 0 0-1.73352-2.31136" fill="#0000ff"/>
<path transform="matrix(.0433,.99903008,.99901,-.043300868,199.1275,167.94385)" d="M2.8892 0-1.73352 2.31136 0 0-1.73352-2.31136" fill="#0000ff"/>
<path transform="matrix(1,0,0,-1.00002,14.275002,172.4792)" stroke-width=".3985" stroke-linecap="butt" stroke-dasharray="2.98883,2.98883" stroke-miterlimit="10" stroke-linejoin="miter" fill="none" stroke="#ff0000" d="M5.814 0V161.39575"/>
<use data-text="x" xlink:href="#font_5_2" transform="matrix(9.9626,0,0,-9.962799,1.2170029,182.4194)" fill="#ff0000"/>
<use data-text="=" xlink:href="#font_4_4" transform="matrix(9.9626,0,0,-9.962799,9.678001,182.4194)" fill="#ff0000"/>
<use data-text="&#x2212;" xlink:href="#font_1_1" transform="matrix(9.9626,0,0,-9.962799,20.194,182.4194)" fill="#ff0000"/>
<use data-text="2" xlink:href="#font_4_2" transform="matrix(9.9626,0,0,-9.962799,27.942994,182.4194)" fill="#ff0000"/>
<use data-text="&#x03c0;" xlink:href="#font_5_1" transform="matrix(9.9626,0,0,-9.962799,32.923997,182.4194)" fill="#ff0000"/>
<path transform="matrix(1,0,0,-1.00002,14.275002,172.4792)" stroke-width=".3985" stroke-linecap="butt" stroke-dasharray="2.98883,2.98883" stroke-miterlimit="10" stroke-linejoin="miter" fill="none" stroke="#ff0000" d="M42.34439 0V161.39575"/>
<use data-text="x" xlink:href="#font_5_2" transform="matrix(9.9626,0,0,-9.962799,40.238,6.7298738)" fill="#ff0000"/>
<use data-text="=" xlink:href="#font_4_4" transform="matrix(9.9626,0,0,-9.962799,48.698999,6.7298738)" fill="#ff0000"/>
<use data-text="&#x2212;" xlink:href="#font_1_1" transform="matrix(9.9626,0,0,-9.962799,59.214998,6.7298738)" fill="#ff0000"/>
<use data-text="&#x03c0;" xlink:href="#font_5_1" transform="matrix(9.9626,0,0,-9.962799,66.96399,6.7298738)" fill="#ff0000"/>
<path transform="matrix(1,0,0,-1.00002,14.275002,172.4792)" stroke-width=".3985" stroke-linecap="butt" stroke-dasharray="2.98883,2.98883" stroke-miterlimit="10" stroke-linejoin="miter" fill="none" stroke="#ff0000" d="M78.87482 0V161.39575"/>
<use data-text="x" xlink:href="#font_5_2" transform="matrix(9.9626,0,0,-9.962799,81.17,182.4194)" fill="#ff0000"/>
<use data-text="=" xlink:href="#font_4_4" transform="matrix(9.9626,0,0,-9.962799,89.631,182.4194)" fill="#ff0000"/>
<use data-text="0" xlink:href="#font_4_1" transform="matrix(9.9626,0,0,-9.962799,100.131587,182.4194)" fill="#ff0000"/>
<path transform="matrix(1,0,0,-1.00002,14.275002,172.4792)" stroke-width=".3985" stroke-linecap="butt" stroke-dasharray="2.98883,2.98883" stroke-miterlimit="10" stroke-linejoin="miter" fill="none" stroke="#ff0000" d="M115.40523 0V161.39575"/>
<use data-text="x" xlink:href="#font_5_2" transform="matrix(9.9626,0,0,-9.962799,117.173007,7.559906)" fill="#ff0000"/>
<use data-text="=" xlink:href="#font_4_4" transform="matrix(9.9626,0,0,-9.962799,125.634,7.559906)" fill="#ff0000"/>
<use data-text="&#x03c0;" xlink:href="#font_5_1" transform="matrix(9.9626,0,0,-9.962799,136.15,7.559906)" fill="#ff0000"/>
<path transform="matrix(1,0,0,-1.00002,14.275002,172.4792)" stroke-width=".3985" stroke-linecap="butt" stroke-dasharray="2.98883,2.98883" stroke-miterlimit="10" stroke-linejoin="miter" fill="none" stroke="#ff0000" d="M151.93566 0V161.39575"/>
<use data-text="x" xlink:href="#font_5_2" transform="matrix(9.9626,0,0,-9.962799,151.21302,182.4194)" fill="#ff0000"/>
<use data-text="=" xlink:href="#font_4_4" transform="matrix(9.9626,0,0,-9.962799,159.67401,182.4194)" fill="#ff0000"/>
<use data-text="2" xlink:href="#font_4_2" transform="matrix(9.9626,0,0,-9.962799,170.17459,182.4194)" fill="#ff0000"/>
<use data-text="&#x03c0;" xlink:href="#font_5_1" transform="matrix(9.9626,0,0,-9.962799,175.171,182.4194)" fill="#ff0000"/>
<path transform="matrix(1,0,0,-1.00002,14.275002,172.4792)" stroke-width=".3985" stroke-linecap="butt" stroke-dasharray="2.98883,2.98883" stroke-miterlimit="10" stroke-linejoin="miter" fill="none" stroke="#ff0000" d="M188.46607 0V161.39575"/>
<use data-text="x" xlink:href="#font_5_2" transform="matrix(9.9626,0,0,-9.962799,187.74301,7.559906)" fill="#ff0000"/>
<use data-text="=" xlink:href="#font_4_4" transform="matrix(9.9626,0,0,-9.962799,196.20401,7.559906)" fill="#ff0000"/>
<use data-text="3" xlink:href="#font_4_3" transform="matrix(9.9626,0,0,-9.962799,206.70459,7.559906)" fill="#ff0000"/>
<use data-text="&#x03c0;" xlink:href="#font_5_1" transform="matrix(9.9626,0,0,-9.962799,211.701,7.559906)" fill="#ff0000"/>
<use data-text="x" xlink:href="#font_5_2" transform="matrix(9.9626,0,0,-9.962799,199.341,88.259517)"/>
<use data-text="y" xlink:href="#font_5_3" transform="matrix(9.9626,0,0,-9.962799,96.67,18.890122)"/>
</svg>
