<svg xmlns="http://www.w3.org/2000/svg" xmlns:xlink="http://www.w3.org/1999/xlink" version="1.1" width="273" height="145" viewBox="0 0 273 145">
<defs>
<path id="font_1_2" d="M.43798829 .072143558V-.005859375L.61499026 .0001373291V.0471344C.5529938 .0471344 .54599 .0471344 .54599 .086135867V.4501953L.36299134 .44218446V.39518739C.4249878 .39518739 .43199159 .39518739 .43199159 .3561859V.16514588C.43199159 .08314514 .3809967 .030136109 .30799867 .030136109 .23098755 .030136109 .22799683 .055130006 .22799683 .10914612V.4501953L.04499817 .44218446V.39518739C.10699463 .39518739 .11399841 .39518739 .11399841 .3561859V.12315369C.11399841 .01612854 .19499207-.005859375 .2939911-.005859375 .31999208-.005859375 .3919983-.005859375 .43798829 .072143558Z"/>
<path id="font_1_1" d="M.35198976 .35212709C.42099 .3731537 .49398805 .4303589 .49398805 .5164032 .49398805 .5933533 .41799928 .65527346 .2769928 .65527346 .1579895 .65527346 .07998657 .59135439 .07998657 .5113983 .07998657 .46839906 .11099243 .44140626 .14898682 .44140626 .19400025 .44140626 .21899414 .47340394 .21899414 .51039126 .21899414 .56840518 .16499329 .5793915 .16099549 .58039858 .19599915 .6082916 .23999024 .616272 .2709961 .616272 .35398866 .616272 .35699464 .5523987 .35699464 .5193939 .35699464 .50639346 .35598756 .3751526 .2519989 .36914063 .21099854 .36712647 .20899964 .36613465 .20399475 .36512757 .19400025 .36413575 .19198609 .35412599 .19198609 .34812928 .19198609 .33013917 .20199585 .33013917 .21998596 .33013917H.2639923C.37298585 .33013917 .37298585 .23240662 .37298585 .18144226 .37298585 .13444519 .37298585 .03225708 .2689972 .03225708 .24299622 .03225708 .19099427 .03627014 .14299011 .06645203 .17599488 .07543945 .20098877 .10044861 .20098877 .14144898 .20098877 .18644715 .16899109 .217453 .125 .217453 .08299255 .217453 .04798889 .19044495 .04798889 .13945008 .04798889 .049346925 .14498902-.0107421879 .27398683-.0107421879 .45298768-.0107421879 .526001 .08944702 .526001 .18045044 .526001 .23539734 .49699403 .32115174 .35198976 .35212709Z"/>
<path id="font_2_3" d="M.44898988 .20022583C.44898988 .3193512 .36698915 .41944886 .25898744 .41944886 .21099854 .41944886 .16799927 .40345765 .13198853 .36842347V.5637665C.1519928 .5577698 .18499756 .55078127 .21699524 .55078127 .33999635 .55078127 .4099884 .6417694 .4099884 .6547699 .4099884 .6607666 .40699769 .6657715 .3999939 .6657715 .39898683 .6657715 .39698792 .6657715 .3919983 .66278079 .37199403 .6537781 .32299806 .6337738 .2559967 .6337738 .21598816 .6337738 .16999817 .6407776 .12298584 .6617737 .114990238 .66477969 .11299133 .66477969 .11099243 .66477969 .100997928 .66477969 .100997928 .6567688 .100997928 .6407776V.34439088C.100997928 .32637025 .100997928 .31835938 .114990238 .31835938 .12199402 .31835938 .12399292 .32136537 .12799073 .32736207 .13899231 .3433838 .17599488 .39746095 .25698854 .39746095 .30899049 .39746095 .33399964 .35139466 .34199525 .33337403 .35798646 .29632569 .3600006 .25727845 .3600006 .20722962 .3600006 .17222595 .3600006 .11222839 .33599855 .07035828 .31199647 .031463624 .2749939 .0055389406 .22898865 .0055389406 .1559906 .0055389406 .09899902 .058380128 .08198547 .11723328 .084991458 .1162262 .08799744 .115234378 .09899902 .115234378 .13198853 .115234378 .14898682 .14022827 .14898682 .16423035 .14898682 .18823242 .13198853 .21322632 .09899902 .21322632 .084991458 .21322632 .049987794 .20622254 .049987794 .16023255 .049987794 .07434082 .11898804-.022460938 .23098755-.022460938 .34700013-.022460938 .44898988 .073349 .44898988 .20022583Z"/>
<path id="font_2_1" d="M.2939911 .64004519C.2939911 .66400149 .2939911 .6660156 .2709961 .6660156 .20899964 .60227969 .12098694 .60227969 .08898926 .60227969V.57128909C.10899353 .57128909 .16799927 .57128909 .21998596 .5972748V.07902527C.21998596 .042999269 .21699524 .0309906 .1269989 .0309906H.09498596V0C.12998963 .0029907227 .21699524 .0029907227 .25698854 .0029907227 .29699708 .0029907227 .38398744 .0029907227 .4189911 0V.0309906H.3869934C.29699708 .0309906 .2939911 .041992189 .2939911 .07902527V.64004519Z"/>
<path id="font_2_2" d="M.2899933 .35191346C.37199403 .37893678 .42999269 .4490509 .42999269 .52809146 .42999269 .6100464 .34199525 .6660156 .24598694 .6660156 .14498902 .6660156 .068984989 .60606387 .068984989 .53009036 .068984989 .49710084 .09098816 .47808839 .11999512 .47808839 .15098572 .47808839 .17098999 .50009158 .17098999 .5290985 .17098999 .57910159 .12399292 .57910159 .10899353 .57910159 .13999939 .62802127 .20599365 .64100649 .24198914 .64100649 .2829895 .64100649 .33799745 .6190338 .33799745 .5290985 .33799745 .51708987 .33599855 .45906068 .30999757 .4149933 .27999879 .36691285 .24598694 .36390687 .22099304 .36291505 .21299744 .36190797 .18899536 .35990907 .18199158 .35990907 .17399597 .35890199 .16699219 .35791017 .16699219 .3479004 .16699219 .33691407 .17399597 .33691407 .19099427 .33691407H.23498535C.31698609 .33691407 .35398866 .2686615 .35398866 .17037964 .35398866 .034469606 .2849884 .0055389406 .24099732 .0055389406 .19799805 .0055389406 .12298584 .022491456 .08799744 .08137512 .12298584 .07637024 .1539917 .09837341 .1539917 .1363678 .1539917 .17237854 .1269989 .19238281 .09799194 .19238281 .07398987 .19238281 .041992189 .17837525 .041992189 .1343689 .041992189 .043441774 .1349945-.022460938 .24398804-.022460938 .3659973-.022460938 .45700074 .06838989 .45700074 .17037964 .45700074 .252594 .3939972 .33088685 .2899933 .35191346Z"/>
</defs>
<path transform="matrix(1.00006,0,0,-1.00005,72.96624,44.320417)" stroke-width=".3985" stroke-linecap="butt" stroke-miterlimit="10" stroke-linejoin="miter" fill="none" stroke="#d5d6d5" d="M-70.867-99.21382H198.42766M-70.867-85.04042H198.42766M-70.867-70.867H198.42766M-70.867-56.69362H198.42766M-70.867-42.5202H198.42766M-70.867-28.3468H198.42766M-70.867-14.17339H198.42766M-70.867 0H198.42766M-70.867 14.17339H198.42766M-70.867 28.3468H198.42766M-70.867 42.51523H198.42766M-70.867-99.21382V42.5202M-56.69362-99.21382V42.5202M-42.5202-99.21382V42.5202M-28.3468-99.21382V42.5202M-14.17339-99.21382V42.5202M0-99.21382V42.5202M14.17339-99.21382V42.5202M28.3468-99.21382V42.5202M42.5202-99.21382V42.5202M56.69362-99.21382V42.5202M70.867-99.21382V42.5202M85.04042-99.21382V42.5202M99.21382-99.21382V42.5202M113.38724-99.21382V42.5202M127.56062-99.21382V42.5202M141.73404-99.21382V42.5202M155.90744-99.21382V42.5202M170.08086-99.21382V42.5202M184.25424-99.21382V42.5202M198.42267-99.21382V42.5202M198.42766 42.5202"/>
<path transform="matrix(1.00006,0,0,-1.00005,72.96624,44.320417)" stroke-width="1.99255" stroke-linecap="butt" stroke-miterlimit="10" stroke-linejoin="miter" fill="none" stroke="#0000ff" d="M14.17339 14.17339 80.74208 27.48715"/>
<path transform="matrix(.98060879,-.19610979,-.19611176,-.980599,153.71317,16.831892)" d="M4.38364 0-2.63017 3.50691 0 0-2.63017-3.50691" fill="#0000ff"/>
<use data-text="u" xlink:href="#font_1_2" transform="matrix(9.769413,-1.9537634,-1.9537829,-9.769315,118.60895,19.450304)"/>
<path transform="matrix(1.00006,0,0,-1.00005,72.96624,44.320417)" stroke-width="1.99255" stroke-linecap="butt" stroke-miterlimit="10" stroke-linejoin="miter" fill="none" stroke="#0000ff" d="M-56.69362-56.69362 151.6091-15.03305"/>
<path transform="matrix(.98060879,-.19610979,-.19611176,-.980599,224.58441,59.354219)" d="M4.38364 0-2.63017 3.50691 0 0-2.63017-3.50691" fill="#0000ff"/>
<use data-text="3" xlink:href="#font_1_1" transform="matrix(9.769413,-1.9537634,-1.9537829,-9.769315,118.75195,91.470897)"/>
<use data-text="u" xlink:href="#font_1_2" transform="matrix(9.769413,-1.9537634,-1.9537829,-9.769315,124.36937,90.34748)"/>
<path transform="matrix(1.00006,0,0,-1.00005,72.96624,44.320417)" stroke-width=".3985" stroke-linecap="butt" stroke-miterlimit="10" stroke-linejoin="miter" fill="none" stroke="#000000" d="M14.37263-.19925C15.86699-3.18811 19.35402-5.18063 24.3354-5.18063H39.84338C44.82477-5.18063 48.3118-7.17316 49.80615-10.16202 51.3005-7.17316 54.78754-5.18063 59.76892-5.18063H75.2769C80.25829-5.18063 83.74532-3.18811 85.23967-.19925"/>
<use data-text="5" xlink:href="#font_2_3" transform="matrix(9.963197,0,0,-9.963098,120.28407,64.73943)"/>
<path transform="matrix(1.00006,0,0,-1.00005,72.96624,44.320417)" stroke-width=".3985" stroke-linecap="butt" stroke-miterlimit="10" stroke-linejoin="miter" fill="none" stroke="#000000" d="M-56.49435-71.06627C-55-74.05513-51.51297-76.04765-46.53159-76.04765H39.84338C44.82477-76.04765 48.3118-78.04018 49.80615-81.02904 51.3005-78.04018 54.78754-76.04765 59.76892-76.04765H146.14392C151.1253-76.04765 154.61234-74.05513 156.10669-71.06627"/>
<use data-text="1" xlink:href="#font_2_1" transform="matrix(9.963197,0,0,-9.963098,117.79393,135.60999)"/>
<use data-text="5" xlink:href="#font_2_3" transform="matrix(9.963197,0,0,-9.963098,122.77553,135.60999)"/>
<path transform="matrix(1.00006,0,0,-1.00005,72.96624,44.320417)" stroke-width=".3985" stroke-linecap="butt" stroke-miterlimit="10" stroke-linejoin="miter" fill="none" stroke="#000000" d="M169.88159-56.49435C172.87046-55 174.86298-51.51297 174.86298-46.53159V-45.19702C174.86298-40.21564 176.8555-36.7286 179.84436-35.23425 176.8555-33.7399 174.86298-30.25287 174.86298-25.27148V-23.9369C174.86298-18.95552 172.87046-15.46849 169.88159-13.97414"/>
<use data-text="3" xlink:href="#font_2_2" transform="matrix(9.963197,0,0,-9.963098,257.3763,82.766338)"/>
<path transform="matrix(1.00006,0,0,-1.00005,72.96624,44.320417)" stroke-width=".3985" stroke-linecap="butt" stroke-miterlimit="10" stroke-linejoin="miter" fill="none" stroke="#000000" d="M99.01457 14.37263C102.00343 14.90411 103.99596 16.14432 103.99596 17.916 103.99596 19.68768 105.98848 20.92787 108.97734 21.45935 105.98848 21.99083 103.99596 23.23102 103.99596 25.0027 103.99596 26.77438 102.00343 28.01457 99.01457 28.54605"/>
<use data-text="1" xlink:href="#font_2_1" transform="matrix(9.963197,0,0,-9.963098,186.50504,26.070504)"/>
<path transform="matrix(1.00006,0,0,-1.00005,72.96624,44.320417)" stroke-width=".3985" stroke-linecap="butt" stroke-dasharray="2.98883,2.98883" stroke-miterlimit="10" stroke-linejoin="miter" fill="none" stroke="#000000" d="M14.17339 0V14.17339"/>
<path transform="matrix(1.00006,0,0,-1.00005,72.96624,44.320417)" stroke-width=".3985" stroke-linecap="butt" stroke-dasharray="2.98883,2.98883" stroke-miterlimit="10" stroke-linejoin="miter" fill="none" stroke="#000000" d="M85.04042 0V28.3468"/>
<path transform="matrix(1.00006,0,0,-1.00005,72.96624,44.320417)" stroke-width=".3985" stroke-linecap="butt" stroke-dasharray="2.98883,2.98883" stroke-miterlimit="10" stroke-linejoin="miter" fill="none" stroke="#000000" d="M14.17339 14.17339H99.21382"/>
<path transform="matrix(1.00006,0,0,-1.00005,72.96624,44.320417)" stroke-width=".3985" stroke-linecap="butt" stroke-dasharray="2.98883,2.98883" stroke-miterlimit="10" stroke-linejoin="miter" fill="none" stroke="#000000" d="M85.04042 28.3468H99.21382"/>
<path transform="matrix(1.00006,0,0,-1.00005,72.96624,44.320417)" stroke-width=".3985" stroke-linecap="butt" stroke-dasharray="2.98883,2.98883" stroke-miterlimit="10" stroke-linejoin="miter" fill="none" stroke="#000000" d="M-56.69362-56.69362V-70.867"/>
<path transform="matrix(1.00006,0,0,-1.00005,72.96624,44.320417)" stroke-width=".3985" stroke-linecap="butt" stroke-dasharray="2.98883,2.98883" stroke-miterlimit="10" stroke-linejoin="miter" fill="none" stroke="#000000" d="M-56.69362-56.69362H170.08086"/>
<path transform="matrix(1.00006,0,0,-1.00005,72.96624,44.320417)" stroke-width=".3985" stroke-linecap="butt" stroke-dasharray="2.98883,2.98883" stroke-miterlimit="10" stroke-linejoin="miter" fill="none" stroke="#000000" d="M155.90744-14.17339H170.08086"/>
<path transform="matrix(1.00006,0,0,-1.00005,72.96624,44.320417)" stroke-width=".3985" stroke-linecap="butt" stroke-dasharray="2.98883,2.98883" stroke-miterlimit="10" stroke-linejoin="miter" fill="none" stroke="#000000" d="M155.90744-70.867V-14.17339"/>
</svg>
