<svg xmlns="http://www.w3.org/2000/svg" xmlns:xlink="http://www.w3.org/1999/xlink" xmlns:inkscape="http://www.inkscape.org/namespaces/inkscape" version="1.1" width="198" height="171" viewBox="0 0 198 171">
<defs>
<path id="font_1_1" d="M.6589966 .23046875C.6759949 .23046875 .69400027 .23046875 .69400027 .25045777 .69400027 .27046205 .6759949 .27046205 .6589966 .27046205H.117996219C.100997928 .27046205 .08299255 .27046205 .08299255 .25045777 .08299255 .23046875 .100997928 .23046875 .117996219 .23046875H.6589966Z"/>
<path id="font_2_3" d="M.1269989 .07699585 .23298645 .18003845C.3889923 .31811524 .44898988 .3721466 .44898988 .47216798 .44898988 .5860901 .35899354 .6660156 .23699951 .6660156 .12399292 .6660156 .049987794 .57411196 .049987794 .48516847 .049987794 .4291687 .099990848 .4291687 .102996829 .4291687 .11999512 .4291687 .15499878 .44117738 .15499878 .48217774 .15499878 .5081787 .13699341 .5341797 .101989749 .5341797 .09399414 .5341797 .09199524 .5341797 .08898926 .5331726 .11199951 .59806826 .1659851 .63500979 .22399903 .63500979 .31498719 .63500979 .35798646 .5541382 .35798646 .47216798 .35798646 .39215089 .30799867 .31311036 .25299073 .25108338L.06098938 .036987306C.049987794 .025985718 .049987794 .023986817 .049987794 0H.42099L.44898988 .17404175H.42399598C.4189911 .14402771 .4119873 .1000061 .4019928 .084991458 .394989 .07699585 .32899476 .07699585 .30699159 .07699585H.1269989Z"/>
<path id="font_3_1" d="M.2649994 .37265016H.37799073C.34498597 .22489929 .33599855 .18196106 .33599855 .11508179 .33599855 .100097659 .33599855 .073150638 .34399415 .03919983 .35398866-.0047454836 .36499024-.0107421879 .37998963-.0107421879 .3999939-.0107421879 .42099 .007247925 .42099 .02722168 .42099 .033218385 .42099 .035202028 .4149933 .049179079 .38598634 .12106323 .38598634 .18595886 .38598634 .21391297 .38598634 .26683045 .3929901 .32073976 .4039917 .37265016H.5179901C.5309906 .37265016 .5669861 .37265016 .5669861 .406662 .5669861 .43066407 .54599 .43066407 .5269928 .43066407H.19198609C.16999817 .43066407 .13198853 .43066407 .08799744 .38365174 .052993776 .34469605 .026992798 .29878236 .026992798 .29379273 .026992798 .29278565 .026992798 .28379823 .038986207 .28379823 .04699707 .28379823 .04899597 .28779603 .054992677 .29577638 .10398865 .37265016 .1619873 .37265016 .18199158 .37265016H.23899842C.20698548 .25186158 .15299988 .13105774 .11099243 .04020691 .102996829 .025222779 .102996829 .023223877 .102996829 .016235352 .102996829-.002746582 .11898804-.0107421879 .13198853-.0107421879 .1619873-.0107421879 .16999817 .017242432 .18199158 .05418396 .19599915 .100097659 .19599915 .10209656 .20899964 .15202332L.2649994 .37265016Z"/>
<path id="font_2_2" d="M.2939911 .64004519C.2939911 .66400149 .2939911 .6660156 .2709961 .6660156 .20899964 .60227969 .12098694 .60227969 .08898926 .60227969V.57128909C.10899353 .57128909 .16799927 .57128909 .21998596 .5972748V.07902527C.21998596 .042999269 .21699524 .0309906 .1269989 .0309906H.09498596V0C.12998963 .0029907227 .21699524 .0029907227 .25698854 .0029907227 .29699708 .0029907227 .38398744 .0029907227 .4189911 0V.0309906H.3869934C.29699708 .0309906 .2939911 .041992189 .2939911 .07902527V.64004519Z"/>
<path id="font_2_1" d="M.45999146 .31976319C.45999146 .39982606 .45498658 .47988893 .41999818 .5539398 .37399293 .65000918 .2919922 .6660156 .25 .6660156 .18998719 .6660156 .116989139 .64001467 .07598877 .54693606 .04399109 .47789 .038986207 .39982606 .038986207 .31976319 .038986207 .24472046 .042999269 .15464783 .083999637 .07859802 .1269989-.0024719239 .19999695-.022460938 .24899292-.022460938 .30299378-.022460938 .3789978-.0014648438 .4229889 .09359741 .45498658 .16265869 .45999146 .2407074 .45999146 .31976319M.24899292-.00047302247C.20999146-.00047302247 .15098572 .024551392 .1329956 .12062073 .12199402 .18066406 .12199402 .2727356 .12199402 .3317871 .12199402 .39582826 .12199402 .46188355 .12998963 .5159149 .14898682 .63500979 .22399903 .64401248 .24899292 .64401248 .28199769 .64401248 .34799195 .6259918 .36698915 .52693179 .3769989 .47088624 .3769989 .39482118 .3769989 .3317871 .3769989 .25672914 .3769989 .18867493 .3659973 .12461853 .35099793 .029556275 .2939911-.00047302247 .24899292-.00047302247Z"/>
<path id="font_2_4" d="M.44898988 .20022583C.44898988 .3193512 .36698915 .41944886 .25898744 .41944886 .21099854 .41944886 .16799927 .40345765 .13198853 .36842347V.5637665C.1519928 .5577698 .18499756 .55078127 .21699524 .55078127 .33999635 .55078127 .4099884 .6417694 .4099884 .6547699 .4099884 .6607666 .40699769 .6657715 .3999939 .6657715 .39898683 .6657715 .39698792 .6657715 .3919983 .66278079 .37199403 .6537781 .32299806 .6337738 .2559967 .6337738 .21598816 .6337738 .16999817 .6407776 .12298584 .6617737 .114990238 .66477969 .11299133 .66477969 .11099243 .66477969 .100997928 .66477969 .100997928 .6567688 .100997928 .6407776V.34439088C.100997928 .32637025 .100997928 .31835938 .114990238 .31835938 .12199402 .31835938 .12399292 .32136537 .12799073 .32736207 .13899231 .3433838 .17599488 .39746095 .25698854 .39746095 .30899049 .39746095 .33399964 .35139466 .34199525 .33337403 .35798646 .29632569 .3600006 .25727845 .3600006 .20722962 .3600006 .17222595 .3600006 .11222839 .33599855 .07035828 .31199647 .031463624 .2749939 .0055389406 .22898865 .0055389406 .1559906 .0055389406 .09899902 .058380128 .08198547 .11723328 .084991458 .1162262 .08799744 .115234378 .09899902 .115234378 .13198853 .115234378 .14898682 .14022827 .14898682 .16423035 .14898682 .18823242 .13198853 .21322632 .09899902 .21322632 .084991458 .21322632 .049987794 .20622254 .049987794 .16023255 .049987794 .07434082 .11898804-.022460938 .23098755-.022460938 .34700013-.022460938 .44898988 .073349 .44898988 .20022583Z"/>
<path id="font_3_2" d="M.33399964 .30233766C.33999635 .32835389 .36299134 .42037965 .43299867 .42037965 .43798829 .42037965 .46199037 .42037965 .48298646 .40734864 .45498658 .402359 .43499757 .37734986 .43499757 .35334779 .43499757 .33735658 .44599916 .31835938 .47299195 .31835938 .49499513 .31835938 .5269928 .3363495 .5269928 .37635804 .5269928 .42837525 .46798707 .4423828 .43399049 .4423828 .37599183 .4423828 .34098817 .38935853 .32899476 .36634828 .3039856 .43237306 .25 .4423828 .22099304 .4423828 .116989139 .4423828 .05999756 .3133545 .05999756 .28834535 .05999756 .27833558 .069992069 .27833558 .07199097 .27833558 .07998657 .27833558 .08299255 .28033448 .084991458 .28933717 .11898804 .39535523 .18499756 .42037965 .21899414 .42037965 .23799134 .42037965 .272995 .4113617 .272995 .35334779 .272995 .32235719 .2559967 .25532533 .21899414 .11528015 .20298767 .053268434 .16799927 .011245728 .12399292 .011245728 .117996219 .011245728 .09498596 .011245728 .07398987 .024276734 .09899902 .029266358 .12098694 .05027771 .12098694 .07827759 .12098694 .105270389 .09899902 .11328125 .083999637 .11328125 .053985597 .11328125 .0289917 .08728027 .0289917 .055267335 .0289917 .009246826 .07899475-.0107421879 .12298584-.0107421879 .18899536-.0107421879 .22499085 .059280397 .22799683 .0652771 .23999024 .028274537 .27598573-.0107421879 .33599855-.0107421879 .43899537-.0107421879 .49598695 .118270877 .49598695 .14328003 .49598695 .1532898 .4869995 .1532898 .48399354 .1532898 .47499085 .1532898 .47299195 .14929199 .47099305 .14228821 .43798829 .03527832 .36999513 .011245728 .33799745 .011245728 .29899598 .011245728 .2829895 .043273927 .2829895 .07727051 .2829895 .09927368 .2889862 .121276859 .2999878 .16529846L.33399964 .30233766Z"/>
<path id="font_3_3" d="M.48599244 .38136292C.48999024 .39537049 .48999024 .39736939 .48999024 .40437318 .48999024 .42237855 .47599793 .43138124 .46099855 .43138124 .45098878 .43138124 .43499757 .42536927 .42599488 .41036988 .42399598 .405365 .41600038 .37435914 .4119873 .35635377 .40499879 .33035279 .397995 .30334474 .3919983 .27633668L.34700013 .09628296C.34298707 .08126831 .2999878 .011245728 .23399353 .011245728 .18299866 .011245728 .17199707 .055267335 .17199707 .0922699 .17199707 .1382904 .18899536 .20030213 .22299195 .28833009 .23899842 .3293457 .24299622 .3403473 .24299622 .36035157 .24299622 .405365 .21099854 .4423828 .16099549 .4423828 .06599426 .4423828 .0289917 .29733277 .0289917 .28833009 .0289917 .27833558 .038986207 .27833558 .040985109 .27833558 .050994874 .27833558 .051986696 .28033448 .056991579 .29634095 .083999637 .3903656 .12399292 .42037965 .1579895 .42037965 .1659851 .42037965 .18299866 .42037965 .18299866 .3883667 .18299866 .36335755 .17298889 .3373413 .1659851 .31834413 .12599182 .21231079 .10798645 .1552887 .10798645 .10827637 .10798645 .019256592 .17098999-.0107421879 .22999573-.0107421879 .2689972-.0107421879 .30299378 .0062561037 .33099366 .03425598 .31799317-.017745972 .30599977-.06674194 .2659912-.11973572 .23999024-.15385437 .20199585-.18309021 .1559906-.18309021 .14199829-.18309021 .09700012-.18005371 .07998657-.14074707 .09599304-.14074707 .10899353-.14074707 .12298584-.1287384 .1329956-.11973572 .14299011-.10673523 .14299011-.08773804 .14299011-.056747438 .115997318-.052734376 .10598755-.052734376 .08299255-.052734376 .049987794-.068740848 .049987794-.11773682 .049987794-.16796875 .09399414-.20507813 .1559906-.20507813 .25898744-.20507813 .3619995-.11373901 .3899994-.00074768069L.48599244 .38136292Z"/>
</defs>
<path transform="matrix(1.00003,0,0,-1.00006,2.4406586,166.5352)" stroke-width=".19925" stroke-linecap="butt" stroke-miterlimit="10" stroke-linejoin="miter" fill="none" stroke="#7f807f" d="M7.16013 79.28084V82.1155M29.65434 79.28084V82.1155M52.14856 79.28084V82.1155M74.64278 79.28084V82.1155M97.137 79.28084V82.1155M119.6312 79.28084V82.1155M142.12541 79.28084V82.1155M164.61963 79.28084V82.1155M187.11385 79.28084V82.1155"/>
<path transform="matrix(1.00003,0,0,-1.00006,2.4406586,166.5352)" stroke-width=".19925" stroke-linecap="butt" stroke-miterlimit="10" stroke-linejoin="miter" fill="none" stroke="#7f807f" d="M7.16013 78.57237V82.82396M52.14856 78.57237V82.82396M142.12541 78.57237V82.82396M187.11385 78.57237V82.82396"/>
<path transform="matrix(1.00003,0,0,-1.00006,2.4406586,166.5352)" stroke-width=".19925" stroke-linecap="butt" stroke-miterlimit="10" stroke-linejoin="miter" fill="none" stroke="#7f807f" d="M95.0111 0H99.26286M95.0111 40.34909H99.26286M95.0111 121.04727H99.26286M95.0111 161.39636H99.26286"/>
<path transform="matrix(1.00003,0,0,-1.00006,2.4406586,166.5352)" stroke-width=".3985" stroke-linecap="butt" stroke-miterlimit="10" stroke-linejoin="miter" fill="none" stroke="#000000" d="M0 80.69818H192.28145"/>
<path transform="matrix(1.00003,0,0,-1.00006,194.72789,85.832187)" d="M1.99252 0-1.19551 1.59401 0 0-1.19551-1.59401"/>
<path transform="matrix(1.00003,0,0,-1.00006,2.4406586,166.5352)" stroke-width=".3985" stroke-linecap="butt" stroke-miterlimit="10" stroke-linejoin="miter" fill="none" stroke="#000000" d="M97.137 0V159.40384"/>
<path transform="matrix(0,-1.00006,-1.00003,-0,99.580577,7.121811)" d="M1.99252 0-1.19551 1.59401 0 0-1.19551-1.59401"/>
<use data-text="&#x2212;" xlink:href="#font_1_1" transform="matrix(9.962899,0,0,-9.963197,.21759033,97.899089)"/>
<use data-text="2" xlink:href="#font_2_3" transform="matrix(9.962899,0,0,-9.963197,7.9668276,97.899089)"/>
<use data-text="&#x03c0;" xlink:href="#font_3_1" transform="matrix(9.962899,0,0,-9.963197,12.947975,97.899089)"/>
<use data-text="&#x2212;" xlink:href="#font_1_1" transform="matrix(9.962899,0,0,-9.963197,47.698019,97.290058)"/>
<use data-text="&#x03c0;" xlink:href="#font_3_1" transform="matrix(9.962899,0,0,-9.963197,55.447256,97.290058)"/>
<use data-text="&#x03c0;" xlink:href="#font_3_1" transform="matrix(9.962899,0,0,-9.963197,141.55184,95.76796)"/>
<use data-text="2" xlink:href="#font_2_3" transform="matrix(9.962899,0,0,-9.963197,184.05112,97.899089)"/>
<use data-text="&#x03c0;" xlink:href="#font_3_1" transform="matrix(9.962899,0,0,-9.963197,189.03227,97.899089)"/>
<use data-text="&#x2212;" xlink:href="#font_1_1" transform="matrix(9.962899,0,0,-9.963197,76.22288,169.33037)"/>
<use data-text="1" xlink:href="#font_2_2" transform="matrix(9.962899,0,0,-9.963197,83.972118,169.33037)"/>
<use data-text="0" xlink:href="#font_2_1" transform="matrix(9.962899,0,0,-9.963197,88.95356,169.33037)"/>
<use data-text="&#x2212;" xlink:href="#font_1_1" transform="matrix(9.962899,0,0,-9.963197,81.204029,128.97895)"/>
<use data-text="5" xlink:href="#font_2_4" transform="matrix(9.962899,0,0,-9.963197,88.95326,128.97895)"/>
<use data-text="5" xlink:href="#font_2_4" transform="matrix(9.962899,0,0,-9.963197,88.95326,48.69114)"/>
<use data-text="1" xlink:href="#font_2_2" transform="matrix(9.962899,0,0,-9.963197,83.97111,8.339706)"/>
<use data-text="0" xlink:href="#font_2_1" transform="matrix(9.962899,0,0,-9.963197,88.95256,8.339706)"/>
<path transform="matrix(1.00003,0,0,-1.00006,2.4406586,166.5352)" stroke-width=".99628" stroke-linecap="butt" stroke-miterlimit="10" stroke-linejoin="miter" fill="none" stroke="#0000ff" d="M10.14122 158.25632 10.44754 150.70893 10.8709 142.64048 11.29425 136.22634 11.71762 130.98952 12.14098 126.63528 12.56433 122.96062 12.9877 119.81 13.41106 117.0861 13.83441 114.69962 14.25778 112.59389 14.68115 110.72096 15.1045 109.04211 15.52788 107.52983 15.95123 106.15756 16.37459 104.90858 16.79794 103.76785 17.22131 102.7178 17.64467 101.7491 18.06802 100.85262 18.4914 100.01941 18.91475 99.24397 19.33812 98.51907 19.76149 97.84047 20.18484 97.20328 20.6082 96.60321 21.03157 96.03679 21.45493 95.50104 21.87828 94.99393 22.30165 94.51312 22.725 94.05557 23.14836 93.62038 23.57175 93.20477 23.9951 92.80798 24.41846 92.42879 24.84181 92.06532 25.26518 91.71646 25.68854 91.381 26.1119 91.059 26.53526 90.74945 26.95862 90.45055 27.38197 90.16197 27.80536 89.88371 28.22871 89.61418 28.65207 89.35338 29.07544 89.10095 29.4988 88.85603 29.92215 88.61838 30.34552 88.38765 30.76888 88.16322 31.19223 87.9447 31.61559 87.73206 32.03897 87.52467 32.46233 87.32259 32.88568 87.12537 33.30905 86.93275 33.7324 86.74408 34.15576 86.56009 34.57913 86.3798 35.00249 86.20306 35.42584 86.0303 35.84921 85.8605 36.27258 85.69386 36.69594 85.53053 37.11931 85.36969 37.54266 85.21193 37.96602 85.05627 38.38937 84.9036 38.81274 84.753 39.2361 84.60469 39.65945 84.45839 40.08282 84.31442 40.5062 84.17198 40.92955 84.03133 41.35292 83.89252 41.77628 83.75542 42.19963 83.61984 42.623 83.48557 43.04636 83.35274 43.46971 83.22119 43.89308 83.09071 44.31644 82.96167 44.73979 82.83337 45.16318 82.70627 45.58653 82.5799 46.00989 82.45471 46.43324 82.33022 46.85661 82.20633 47.27997 82.08336 47.70332 81.96068 48.1267 81.83867 48.55005 81.71739 48.9734 81.59634 49.39679 81.47586 49.82014 81.35558 50.2435 81.23561 50.66687 81.11594 51.09023 80.99625 51.51358 80.87689 51.93695 80.75781 52.3603 80.63852 52.78369 80.51921 53.207 80.39993 53.6304 80.2803 54.05373 80.16055 54.47711 80.04077 54.9005 79.92047 55.32382 79.8 55.74721 79.67894 56.17053 79.55757 56.59392 79.43565 57.0173 79.31297 57.44063 79.19 57.86401 79.06596 58.28734 78.94162 58.71074 78.81612 59.13411 78.69006 59.55743 78.56296 59.98082 78.43459 60.40414 78.30548 60.82753 78.17514 61.25092 78.04353 61.67424 77.9106 62.09763 77.77649 62.52095 77.64067 62.94435 77.50381 63.36772 77.365 63.79105 77.22435 64.21445 77.08191 64.63776 76.93764 65.06114 76.79164 65.48454 76.64333 65.90785 76.49283 66.33124 76.3399 66.75458 76.18465 67.17795 76.02655 67.60133 75.86595 68.02466 75.70247 68.44806 75.53583 68.87137 75.36603 69.29475 75.19327 69.71815 75.01645 70.14146 74.83624 70.56485 74.65193 70.98819 74.46358 71.41156 74.27097 71.83495 74.07333 72.25829 73.87143 72.68167 73.66403 73.10498 73.45163 73.52838 73.23294 73.95177 73.00868 74.37508 72.77779 74.79846 72.54015 75.2218 72.29524 75.64517 72.0428 76.06856 71.78189 76.4919 71.51286 76.91528 71.23436 77.3386 70.94571 77.762 70.64688 78.18538 70.33669 78.60869 70.0147 79.03209 69.67987 79.45541 69.33102 79.87878 68.96779 80.30219 68.58788 80.72551 68.19182 81.1489 67.77548 81.5722 67.34027 81.9956 66.8828 82.41899 66.40176 82.8423 65.89433 83.2657 65.35928 83.68903 64.79312 84.1124 64.19347 84.5358 63.55545 84.95912 62.87589 85.3825 62.15146 85.80583 61.37572 86.22922 60.54242 86.6526 59.64676 87.07593 58.67853 87.49931 57.6285 87.92264 56.48775 88.34602 55.23708 88.76941 53.8665 89.19273 52.35422 89.6161 50.67537 90.03944 48.79988 90.46283 46.6951 90.88622 44.30853 91.30954 41.58635 91.73293 38.43823 92.15625 34.75629 92.57964 30.40683 93.00302 25.17725 93.42635 18.75464 93.84973 10.6996 94.15611 3.14006"/>
<path transform="matrix(-.040511218,-.9991699,-.99914,.040512429,12.582203,8.269394)" d="M2.8892 0-1.73352 2.31136 0 0-1.73352-2.31136" fill="#0000ff"/>
<path transform="matrix(.040481215,.9991899,.99916008,-.040482429,96.5996,163.39493)" d="M2.8892 0-1.73352 2.31136 0 0-1.73352-2.31136" fill="#0000ff"/>
<path transform="matrix(1.00003,0,0,-1.00006,2.4406586,166.5352)" stroke-width=".99628" stroke-linecap="butt" stroke-miterlimit="10" stroke-linejoin="miter" fill="none" stroke="#0000ff" d="M100.11807 158.25632 100.4244 150.70893 100.84776 142.64048 101.27112 136.21852 101.69447 130.98322 102.11784 126.63528 102.5412 122.95844 102.96455 119.81 103.38792 117.0861 103.8113 114.69962 104.23465 112.59389 104.65802 110.71991 105.08138 109.04211 105.50473 107.52876 105.92809 106.15926 106.35146 104.90858 106.77481 103.7668 107.19817 102.7178 107.62154 101.7491 108.04489 100.85286 108.46826 100.01941 108.89163 99.24437 109.31499 98.51907 109.73834 97.84047 110.16171 97.20328 110.58507 96.60265 111.00842 96.03654 111.4318 95.50104 111.85515 94.99393 112.2785 94.51312 112.70186 94.05516 113.12524 93.61989 113.5486 93.20508 113.97195 92.8083 114.39532 92.42903 114.81868 92.06516 115.24203 91.71646 115.6654 91.38164 116.08876 91.0594 116.51212 90.7492 116.93549 90.45055 117.35886 90.16197 117.78221 89.88332 118.20558 89.61418 118.62894 89.35313 119.05229 89.10095 119.47565 88.85603 119.89902 88.61838 120.32237 88.3875 120.74573 88.16322 121.1691 87.94495 121.59245 87.73206 122.01582 87.52492 122.4392 87.32268 122.86255 87.12544 123.2859 86.93266 123.70927 86.7444 124.13263 86.56009 124.55598 86.3798 124.97935 86.20306 125.40271 86.03006 125.82607 85.86026 126.24945 85.69386 126.6728 85.53038 127.09616 85.36969 127.51952 85.21169 127.94289 85.05643 128.36624 84.90352 128.7896 84.753 129.21297 84.60469 129.63632 84.45847 130.05968 84.31416 130.48307 84.17198 130.90642 84.03148 131.32978 83.89252 131.75315 83.75542 132.1765 83.61984 132.59986 83.48573 133.02323 83.35274 133.44658 83.22119 133.86994 83.09071 134.29329 82.96143 134.71668 82.83337 135.14003 82.70627 135.56339 82.58005 135.98676 82.45471 136.41011 82.33022 136.83347 82.20616 137.25684 82.08318 137.68019 81.96068 138.10355 81.83876 138.52692 81.71739 138.95029 81.59634 139.37364 81.47586 139.79701 81.35558 140.22037 81.23561 140.64373 81.11594 141.06708 80.99641 141.49045 80.87704 141.9138 80.75781 142.33716 80.63852 142.76056 80.51929 143.18389 80.39993 143.60726 80.2803 144.0306 80.16055 144.45398 80.0407 144.87735 79.92047 145.30069 79.8 145.72408 79.67894 146.14739 79.55757 146.57079 79.43565 146.99417 79.31297 147.41748 79.19 147.84088 79.06612 148.2642 78.94162 148.68759 78.81628 149.11096 78.69006 149.5343 78.56296 149.95769 78.43459 150.381 78.30548 150.8044 78.17514 151.22779 78.0436 151.6511 77.9106 152.0745 77.77649 152.49782 77.64067 152.9212 77.50381 153.34459 77.365 153.76792 77.22435 154.1913 77.08208 154.61463 76.93764 155.03801 76.79164 155.4614 76.64317 155.8847 76.49275 156.3081 76.3399 156.73143 76.18465 157.15482 76.02664 157.5782 75.8658 158.00153 75.7023 158.42491 75.53583 158.84824 75.36627 159.27162 75.19293 159.695 75.01653 160.11833 74.83617 160.54172 74.65193 160.96504 74.46367 161.38845 74.27097 161.81182 74.07365 162.23514 73.87143 162.65853 73.66403 163.08185 73.45139 163.50524 73.23318 163.92862 73.00868 164.35195 72.77795 164.77533 72.54007 165.19866 72.29515 165.62206 72.0428 166.04543 71.78215 166.46875 71.51262 166.89215 71.23404 167.31546 70.94579 167.73885 70.64688 168.16225 70.33669 168.58556 70.0147 169.00894 69.67963 169.43228 69.33118 169.85565 68.96756 170.27904 68.58803 170.70236 68.19157 171.12577 67.77548 171.54907 67.34027 171.97246 66.88321 172.39586 66.4024 172.81917 65.89433 173.24256 65.35954 173.6659 64.79393 174.08927 64.19273 174.51265 63.55545 174.93599 62.87677 175.35938 62.15236 175.78269 61.37572 176.20609 60.54347 176.62947 59.64676 177.05278 58.67853 177.47617 57.62921 177.8995 56.48589 178.32288 55.23619 178.74626 53.86757 179.1696 52.35213 179.59299 50.67537 180.0163 48.80244 180.4397 46.69485 180.86309 44.30853 181.28639 41.58255 181.7098 38.43613 182.13312 34.75629 182.55649 30.40683 182.97989 25.17725 183.40322 18.75586 183.8266 10.68741 184.13288 3.14001"/>
<path transform="matrix(-.040511218,-.9991699,-.99914,.040512429,102.56175,8.269394)" d="M2.8892 0-1.73352 2.31136 0 0-1.73352-2.31136" fill="#0000ff"/>
<path transform="matrix(.040511218,.9991699,.99914,-.040512429,186.57906,163.395)" d="M2.8892 0-1.73352 2.31136 0 0-1.73352-2.31136" fill="#0000ff"/>
<path transform="matrix(1.00003,0,0,-1.00006,2.4406586,166.5352)" stroke-width=".3985" stroke-linecap="butt" stroke-dasharray="2.98883,2.98883" stroke-miterlimit="10" stroke-linejoin="miter" fill="none" stroke="#ff0000" d="M7.16013 0V161.39636"/>
<path transform="matrix(1.00003,0,0,-1.00006,2.4406586,166.5352)" stroke-width=".3985" stroke-linecap="butt" stroke-dasharray="2.98883,2.98883" stroke-miterlimit="10" stroke-linejoin="miter" fill="none" stroke="#ff0000" d="M97.137 0V161.39636"/>
<path transform="matrix(1.00003,0,0,-1.00006,2.4406586,166.5352)" stroke-width=".3985" stroke-linecap="butt" stroke-dasharray="2.98883,2.98883" stroke-miterlimit="10" stroke-linejoin="miter" fill="none" stroke="#ff0000" d="M187.11385 0V161.39636"/>
<use data-text="x" xlink:href="#font_3_2" transform="matrix(9.962899,0,0,-9.963197,187.50621,82.31215)"/>
<use data-text="y" xlink:href="#font_3_3" transform="matrix(9.962899,0,0,-9.963197,103.10068,12.93898)"/>
</svg>
