<svg xmlns="http://www.w3.org/2000/svg" xmlns:xlink="http://www.w3.org/1999/xlink" xmlns:inkscape="http://www.inkscape.org/namespaces/inkscape" version="1.1" width="264" height="165" viewBox="0 0 264 165">
<defs>
<path id="font_1_1" d="M.6589966 .23046875C.6759949 .23046875 .69400027 .23046875 .69400027 .25045777 .69400027 .27046205 .6759949 .27046205 .6589966 .27046205H.117996219C.100997928 .27046205 .08299255 .27046205 .08299255 .25045777 .08299255 .23046875 .100997928 .23046875 .117996219 .23046875H.6589966Z"/>
<path id="font_2_5" d="M.1269989 .07699585 .23298645 .18003845C.3889923 .31811524 .44898988 .3721466 .44898988 .47216798 .44898988 .5860901 .35899354 .6660156 .23699951 .6660156 .12399292 .6660156 .049987794 .57411196 .049987794 .48516847 .049987794 .4291687 .099990848 .4291687 .102996829 .4291687 .11999512 .4291687 .15499878 .44117738 .15499878 .48217774 .15499878 .5081787 .13699341 .5341797 .101989749 .5341797 .09399414 .5341797 .09199524 .5341797 .08898926 .5331726 .11199951 .59806826 .1659851 .63500979 .22399903 .63500979 .31498719 .63500979 .35798646 .5541382 .35798646 .47216798 .35798646 .39215089 .30799867 .31311036 .25299073 .25108338L.06098938 .036987306C.049987794 .025985718 .049987794 .023986817 .049987794 0H.42099L.44898988 .17404175H.42399598C.4189911 .14402771 .4119873 .1000061 .4019928 .084991458 .394989 .07699585 .32899476 .07699585 .30699159 .07699585H.1269989Z"/>
<path id="font_3_1" d="M.2649994 .37265016H.37799073C.34498597 .22489929 .33599855 .18196106 .33599855 .11508179 .33599855 .100097659 .33599855 .073150638 .34399415 .03919983 .35398866-.0047454836 .36499024-.0107421879 .37998963-.0107421879 .3999939-.0107421879 .42099 .007247925 .42099 .02722168 .42099 .033218385 .42099 .035202028 .4149933 .049179079 .38598634 .12106323 .38598634 .18595886 .38598634 .21391297 .38598634 .26683045 .3929901 .32073976 .4039917 .37265016H.5179901C.5309906 .37265016 .5669861 .37265016 .5669861 .406662 .5669861 .43066407 .54599 .43066407 .5269928 .43066407H.19198609C.16999817 .43066407 .13198853 .43066407 .08799744 .38365174 .052993776 .34469605 .026992798 .29878236 .026992798 .29379273 .026992798 .29278565 .026992798 .28379823 .038986207 .28379823 .04699707 .28379823 .04899597 .28779603 .054992677 .29577638 .10398865 .37265016 .1619873 .37265016 .18199158 .37265016H.23899842C.20698548 .25186158 .15299988 .13105774 .11099243 .04020691 .102996829 .025222779 .102996829 .023223877 .102996829 .016235352 .102996829-.002746582 .11898804-.0107421879 .13198853-.0107421879 .1619873-.0107421879 .16999817 .017242432 .18199158 .05418396 .19599915 .100097659 .19599915 .10209656 .20899964 .15202332L.2649994 .37265016Z"/>
<path id="font_2_6" d="M.2899933 .35191346C.37199403 .37893678 .42999269 .4490509 .42999269 .52809146 .42999269 .6100464 .34199525 .6660156 .24598694 .6660156 .14498902 .6660156 .068984989 .60606387 .068984989 .53009036 .068984989 .49710084 .09098816 .47808839 .11999512 .47808839 .15098572 .47808839 .17098999 .50009158 .17098999 .5290985 .17098999 .57910159 .12399292 .57910159 .10899353 .57910159 .13999939 .62802127 .20599365 .64100649 .24198914 .64100649 .2829895 .64100649 .33799745 .6190338 .33799745 .5290985 .33799745 .51708987 .33599855 .45906068 .30999757 .4149933 .27999879 .36691285 .24598694 .36390687 .22099304 .36291505 .21299744 .36190797 .18899536 .35990907 .18199158 .35990907 .17399597 .35890199 .16699219 .35791017 .16699219 .3479004 .16699219 .33691407 .17399597 .33691407 .19099427 .33691407H.23498535C.31698609 .33691407 .35398866 .2686615 .35398866 .17037964 .35398866 .034469606 .2849884 .0055389406 .24099732 .0055389406 .19799805 .0055389406 .12298584 .022491456 .08799744 .08137512 .12298584 .07637024 .1539917 .09837341 .1539917 .1363678 .1539917 .17237854 .1269989 .19238281 .09799194 .19238281 .07398987 .19238281 .041992189 .17837525 .041992189 .1343689 .041992189 .043441774 .1349945-.022460938 .24398804-.022460938 .3659973-.022460938 .45700074 .06838989 .45700074 .17037964 .45700074 .252594 .3939972 .33088685 .2899933 .35191346Z"/>
<path id="font_2_4" d="M.2939911 .64004519C.2939911 .66400149 .2939911 .6660156 .2709961 .6660156 .20899964 .60227969 .12098694 .60227969 .08898926 .60227969V.57128909C.10899353 .57128909 .16799927 .57128909 .21998596 .5972748V.07902527C.21998596 .042999269 .21699524 .0309906 .1269989 .0309906H.09498596V0C.12998963 .0029907227 .21699524 .0029907227 .25698854 .0029907227 .29699708 .0029907227 .38398744 .0029907227 .4189911 0V.0309906H.3869934C.29699708 .0309906 .2939911 .041992189 .2939911 .07902527V.64004519Z"/>
<path id="font_3_3" d="M.48599244 .38136292C.48999024 .39537049 .48999024 .39736939 .48999024 .40437318 .48999024 .42237855 .47599793 .43138124 .46099855 .43138124 .45098878 .43138124 .43499757 .42536927 .42599488 .41036988 .42399598 .405365 .41600038 .37435914 .4119873 .35635377 .40499879 .33035279 .397995 .30334474 .3919983 .27633668L.34700013 .09628296C.34298707 .08126831 .2999878 .011245728 .23399353 .011245728 .18299866 .011245728 .17199707 .055267335 .17199707 .0922699 .17199707 .1382904 .18899536 .20030213 .22299195 .28833009 .23899842 .3293457 .24299622 .3403473 .24299622 .36035157 .24299622 .405365 .21099854 .4423828 .16099549 .4423828 .06599426 .4423828 .0289917 .29733277 .0289917 .28833009 .0289917 .27833558 .038986207 .27833558 .040985109 .27833558 .050994874 .27833558 .051986696 .28033448 .056991579 .29634095 .083999637 .3903656 .12399292 .42037965 .1579895 .42037965 .1659851 .42037965 .18299866 .42037965 .18299866 .3883667 .18299866 .36335755 .17298889 .3373413 .1659851 .31834413 .12599182 .21231079 .10798645 .1552887 .10798645 .10827637 .10798645 .019256592 .17098999-.0107421879 .22999573-.0107421879 .2689972-.0107421879 .30299378 .0062561037 .33099366 .03425598 .31799317-.017745972 .30599977-.06674194 .2659912-.11973572 .23999024-.15385437 .20199585-.18309021 .1559906-.18309021 .14199829-.18309021 .09700012-.18005371 .07998657-.14074707 .09599304-.14074707 .10899353-.14074707 .12298584-.1287384 .1329956-.11973572 .14299011-.10673523 .14299011-.08773804 .14299011-.056747438 .115997318-.052734376 .10598755-.052734376 .08299255-.052734376 .049987794-.068740848 .049987794-.11773682 .049987794-.16796875 .09399414-.20507813 .1559906-.20507813 .25898744-.20507813 .3619995-.11373901 .3899994-.00074768069L.48599244 .38136292Z"/>
<path id="font_2_7" d="M.68699648 .32714845C.70199587 .32714845 .72099307 .32714845 .72099307 .34713746 .72099307 .36714173 .70199587 .36714173 .6879883 .36714173H.08898926C.07499695 .36714173 .055999757 .36714173 .055999757 .34713746 .055999757 .32714845 .07499695 .32714845 .08999634 .32714845H.68699648M.6879883 .13284302C.70199587 .13284302 .72099307 .13284302 .72099307 .15284729 .72099307 .17285156 .70199587 .17285156 .68699648 .17285156H.08999634C.07499695 .17285156 .055999757 .17285156 .055999757 .15284729 .055999757 .13284302 .07499695 .13284302 .08898926 .13284302H.6879883Z"/>
<path id="font_2_10" d="M.20799256 .19424439C.22999573 .19024658 .31199647 .17424011 .31199647 .102249149 .31199647 .051254274 .2769928 .011245728 .19898987 .011245728 .114990238 .011245728 .07899475 .06825256 .05999756 .15324402 .056991579 .1662445 .055999757 .17024231 .04598999 .17024231 .032989503 .17024231 .032989503 .16323853 .032989503 .14524842V.013244629C.032989503-.003753662 .032989503-.0107421879 .04399109-.0107421879 .04899597-.0107421879 .049987794-.009750366 .068984989 .009246826 .070999149 .011245728 .070999149 .013244629 .08898926 .03224182 .1329956-.009750366 .17799378-.0107421879 .19898987-.0107421879 .31399537-.0107421879 .3600006 .056243898 .3600006 .12825012 .3600006 .1812439 .32998658 .21124268 .31799317 .22323609 .2849884 .25523377 .24598694 .26324464 .20399475 .27124024 .147995 .28224183 .08099365 .2952423 .08099365 .35324098 .08099365 .38822938 .10699463 .42922975 .19299317 .42922975 .30299378 .42922975 .30799867 .3392334 .30999757 .3082428 .31098939 .2992401 .31999208 .2992401 .32199098 .2992401 .33499146 .2992401 .33499146 .304245 .33499146 .3232422V.4242401C.33499146 .4412384 .33499146 .4482422 .32398988 .4482422 .31900025 .4482422 .31698609 .4482422 .3039856 .43623353 .30099488 .43223573 .29100038 .42323304 .2869873 .42022706 .24899292 .4482422 .20799256 .4482422 .19299317 .4482422 .070999149 .4482422 .032989503 .38124085 .032989503 .3252411 .032989503 .29023744 .04899597 .26223756 .07598877 .24023438 .10798645 .21424866 .13598633 .2082367 .20799256 .19424439Z"/>
<path id="font_2_8" d="M.1769867 .4423828 .036987306 .43138124V.40037538C.101989749 .40037538 .11099243 .3943634 .11099243 .34532167V.076034549C.11099243 .0309906 .099990848 .0309906 .032989503 .0309906V0C.06498718 .0009918213 .11898804 .0029907227 .14299011 .0029907227 .17799378 .0029907227 .21299744 .0009918213 .24699402 0V.0309906C.18099976 .0309906 .1769867 .035995485 .1769867 .075042728V.4423828M.18099976 .6159363C.18099976 .64793398 .1559906 .6689453 .12799073 .6689453 .09700012 .6689453 .07499695 .64193728 .07499695 .6159363 .07499695 .5889435 .09700012 .5629425 .12799073 .5629425 .1559906 .5629425 .18099976 .5839386 .18099976 .6159363Z"/>
<path id="font_2_9" d="M.10998535 .34429933V.076034549C.10998535 .0309906 .09899902 .0309906 .03199768 .0309906V0C.066986087 .0009918213 .117996219 .0029907227 .14498902 .0029907227 .17098999 .0029907227 .22299195 .0009918213 .25698854 0V.0309906C.18998719 .0309906 .1789856 .0309906 .1789856 .076034549V.2602234C.1789856 .36431886 .25 .42037965 .31399537 .42037965 .3769989 .42037965 .3880005 .36631776 .3880005 .30926515V.076034549C.3880005 .0309906 .3769989 .0309906 .30999757 .0309906V0C.34498597 .0009918213 .3959961 .0029907227 .4229889 .0029907227 .44898988 .0029907227 .5009918 .0009918213 .5349884 0V.0309906C.48298646 .0309906 .45799256 .0309906 .45700074 .061019899V.25221253C.45700074 .3383026 .45700074 .36932374 .42599488 .405365 .4119873 .42237855 .3789978 .4423828 .32099916 .4423828 .24798584 .4423828 .20098877 .39935304 .17298889 .33729554V.4423828L.03199768 .43138124V.40037538C.101989749 .4003601 .10998535 .39335633 .10998535 .34429933Z"/>
<path id="font_3_2" d="M.33399964 .30233766C.33999635 .32835389 .36299134 .42037965 .43299867 .42037965 .43798829 .42037965 .46199037 .42037965 .48298646 .40734864 .45498658 .402359 .43499757 .37734986 .43499757 .35334779 .43499757 .33735658 .44599916 .31835938 .47299195 .31835938 .49499513 .31835938 .5269928 .3363495 .5269928 .37635804 .5269928 .42837525 .46798707 .4423828 .43399049 .4423828 .37599183 .4423828 .34098817 .38935853 .32899476 .36634828 .3039856 .43237306 .25 .4423828 .22099304 .4423828 .116989139 .4423828 .05999756 .3133545 .05999756 .28834535 .05999756 .27833558 .069992069 .27833558 .07199097 .27833558 .07998657 .27833558 .08299255 .28033448 .084991458 .28933717 .11898804 .39535523 .18499756 .42037965 .21899414 .42037965 .23799134 .42037965 .272995 .4113617 .272995 .35334779 .272995 .32235719 .2559967 .25532533 .21899414 .11528015 .20298767 .053268434 .16799927 .011245728 .12399292 .011245728 .117996219 .011245728 .09498596 .011245728 .07398987 .024276734 .09899902 .029266358 .12098694 .05027771 .12098694 .07827759 .12098694 .105270389 .09899902 .11328125 .083999637 .11328125 .053985597 .11328125 .0289917 .08728027 .0289917 .055267335 .0289917 .009246826 .07899475-.0107421879 .12298584-.0107421879 .18899536-.0107421879 .22499085 .059280397 .22799683 .0652771 .23999024 .028274537 .27598573-.0107421879 .33599855-.0107421879 .43899537-.0107421879 .49598695 .118270877 .49598695 .14328003 .49598695 .1532898 .4869995 .1532898 .48399354 .1532898 .47499085 .1532898 .47299195 .14929199 .47099305 .14228821 .43798829 .03527832 .36999513 .011245728 .33799745 .011245728 .29899598 .011245728 .2829895 .043273927 .2829895 .07727051 .2829895 .09927368 .2889862 .121276859 .2999878 .16529846L.33399964 .30233766Z"/>
<path id="font_2_1" d="M.33099366-.2400055C.33099366-.23701477 .33099366-.23500061 .31399537-.21800232 .18899536-.0920105 .15699768 .09700012 .15699768 .25 .15699768 .42399598 .19499207 .59799197 .31799317 .72299197 .33099366 .73498538 .33099366 .7369995 .33099366 .73999026 .33099366 .746994 .32699586 .75 .32099916 .75 .31098939 .75 .22099304 .6819916 .1619873 .5549927 .11099243 .44499208 .09899902 .33399964 .09899902 .25 .09899902 .17199707 .10998535 .050994874 .16499329-.06201172 .22499085-.18501282 .31098939-.25 .32099916-.25 .32699586-.25 .33099366-.24700928 .33099366-.2400055Z"/>
<path id="font_2_2" d="M.2889862 .25C.2889862 .32798768 .27799989 .44898988 .22299195 .56199648 .16299439 .68499758 .07699585 .75 .066986087 .75 .06098938 .75 .056991579 .74598696 .056991579 .73999026 .056991579 .7369995 .056991579 .73498538 .07598877 .71699526 .17399597 .6179962 .23098755 .45899964 .23098755 .25 .23098755 .07899475 .19400025-.09700012 .069992069-.2230072 .056991579-.23500061 .056991579-.23701477 .056991579-.2400055 .056991579-.2460022 .06098938-.25 .066986087-.25 .07699585-.25 .16699219-.18200684 .22599793-.055007936 .2769928 .054992677 .2889862 .16600037 .2889862 .25Z"/>
<path id="font_2_3" d="M.40899659 .23046875H.6879883C.70199587 .23046875 .72099307 .23046875 .72099307 .25045777 .72099307 .27046205 .70199587 .27046205 .6879883 .27046205H.40899659V.5500183C.40899659 .56399539 .40899659 .5830078 .3889923 .5830078 .36898805 .5830078 .36898805 .56399539 .36898805 .5500183V.27046205H.08898926C.07499695 .27046205 .055999757 .27046205 .055999757 .25045777 .055999757 .23046875 .07499695 .23046875 .08898926 .23046875H.36898805V-.05000305C.36898805-.06401062 .36898805-.08300781 .3889923-.08300781 .40899659-.08300781 .40899659-.06401062 .40899659-.05000305V.23046875Z"/>
</defs>
<path transform="matrix(1.00006,0,0,-1.00005,3.7863923,163.20035)" stroke-width=".19925" stroke-linecap="butt" stroke-miterlimit="10" stroke-linejoin="miter" fill="none" stroke="#7f807f" d="M5.814 41.89114V46.14288M42.34439 41.89114V46.14288M115.40523 41.89114V46.14288M151.93566 41.89114V46.14288M188.46607 41.89114V46.14288"/>
<path transform="matrix(1.00006,0,0,-1.00005,3.7863923,163.20035)" stroke-width=".19925" stroke-linecap="butt" stroke-miterlimit="10" stroke-linejoin="miter" fill="none" stroke="#7f807f" d="M77.45734 25.67659H80.2923M77.45734 62.35744H80.2923M77.45734 99.0383H80.2923M77.45734 135.71915H80.2923"/>
<path transform="matrix(1.00006,0,0,-1.00005,3.7863923,163.20035)" stroke-width=".19925" stroke-linecap="butt" stroke-miterlimit="10" stroke-linejoin="miter" fill="none" stroke="#7f807f" d="M76.74883 7.33617H81.0008M76.74883 80.69788H81.0008M76.74883 117.37872H81.0008M76.74883 154.05957H81.0008"/>
<path transform="matrix(1.00006,0,0,-1.00005,3.7863923,163.20035)" stroke-width=".3985" stroke-linecap="butt" stroke-miterlimit="10" stroke-linejoin="miter" fill="none" stroke="#000000" d="M0 44.01701H192.28754"/>
<path transform="matrix(1.00006,0,0,-1.00005,196.08547,119.18114)" d="M1.99252 0-1.19551 1.59401 0 0-1.19551-1.59401"/>
<path transform="matrix(1.00006,0,0,-1.00005,3.7863923,163.20035)" stroke-width=".3985" stroke-linecap="butt" stroke-miterlimit="10" stroke-linejoin="miter" fill="none" stroke="#000000" d="M78.87482 0V159.40323"/>
<path transform="matrix(0,-1.00005,-1.00006,-0,82.66594,3.789154)" d="M1.99252 0-1.19551 1.59401 0 0-1.19551-1.59401"/>
<use data-text="&#x2212;" xlink:href="#font_1_1" transform="matrix(9.963197,0,0,-9.963098,.21717835,131.24776)"/>
<use data-text="2" xlink:href="#font_2_5" transform="matrix(9.963197,0,0,-9.963098,7.9666445,131.24776)"/>
<use data-text="&#x03c0;" xlink:href="#font_3_1" transform="matrix(9.963197,0,0,-9.963098,12.947945,131.24776)"/>
<use data-text="&#x2212;" xlink:href="#font_1_1" transform="matrix(9.963197,0,0,-9.963098,39.240518,130.63872)"/>
<use data-text="&#x03c0;" xlink:href="#font_3_1" transform="matrix(9.963197,0,0,-9.963098,46.989984,130.63872)"/>
<use data-text="&#x03c0;" xlink:href="#font_3_1" transform="matrix(9.963197,0,0,-9.963098,116.18013,129.11664)"/>
<use data-text="2" xlink:href="#font_2_5" transform="matrix(9.963197,0,0,-9.963098,150.22217,131.24776)"/>
<use data-text="&#x03c0;" xlink:href="#font_3_1" transform="matrix(9.963197,0,0,-9.963098,155.20447,131.24776)"/>
<use data-text="3" xlink:href="#font_2_6" transform="matrix(9.963197,0,0,-9.963098,186.75437,131.24776)"/>
<use data-text="&#x03c0;" xlink:href="#font_3_1" transform="matrix(9.963197,0,0,-9.963098,191.73667,131.24776)"/>
<use data-text="&#x2212;" xlink:href="#font_1_1" transform="matrix(9.963197,0,0,-9.963098,64.28902,158.65912)"/>
<use data-text="1" xlink:href="#font_2_4" transform="matrix(9.963197,0,0,-9.963098,72.03848,158.65912)"/>
<use data-text="1" xlink:href="#font_2_4" transform="matrix(9.963197,0,0,-9.963098,72.03848,85.70848)"/>
<use data-text="2" xlink:href="#font_2_5" transform="matrix(9.963197,0,0,-9.963098,72.03848,49.02665)"/>
<use data-text="3" xlink:href="#font_2_6" transform="matrix(9.963197,0,0,-9.963098,72.03848,12.343811)"/>
<path transform="matrix(1.00006,0,0,-1.00005,3.7863923,163.20035)" stroke-width=".99628" stroke-linecap="butt" stroke-miterlimit="10" stroke-linejoin="miter" fill="none" stroke="#0000ff" stroke-opacity=".5" d="M.96295 29.15642 .97624 29.19392 1.9525 32.05832 2.92877 35.00966 3.90503 38.02261 4.8813 41.0785 5.85756 44.1542 6.83383 47.22916 7.81009 50.2821 8.78636 53.29066 9.76262 56.23466 10.73888 59.09137 11.71513 61.84317 12.6914 64.46806 13.66766 66.94914 14.64394 69.26921 15.6202 71.41063 16.59645 73.3606 17.57272 75.10294 18.54898 76.62555 19.52525 77.91891 20.5015 78.9735 21.47777 79.7823 22.45403 80.33911 23.4303 80.63918 24.40656 80.68173 25.38283 80.46603 26.35909 79.99323 27.33536 79.26767 28.31161 78.29344 29.28789 77.07709 30.26413 75.62857 31.24039 73.95738 32.21666 72.07492 33.19292 69.99586 34.16919 67.73155 35.14545 65.30144 36.12172 62.72241 37.09798 60.00986 38.07425 57.1858 39.0505 54.26857 40.02676 51.2791 41.00302 48.23824 41.9793 45.16768 42.95555 42.09053 43.93182 39.02548 44.90808 35.99602 45.88435 33.02266 46.86061 30.12671 47.83687 27.32867 48.81314 24.64842 49.78938 22.1046 50.76566 19.71521 51.74191 17.49712 52.71819 15.46463 53.69444 13.63388 54.67072 12.01883 55.64697 10.6279 56.62325 9.47209 57.5995 8.5591 58.57578 7.8959 59.55203 7.48947 60.52829 7.33908 61.50455 7.44695 62.4808 7.8119 63.45708 8.43109 64.43333 9.30225 65.4096 10.41919 66.38586 11.77124 67.36214 13.35072 68.3384 15.14551 69.31467 17.14497 70.29091 19.33337 71.26718 21.69597 72.24344 24.21448 73.21971 26.87386 74.19597 29.65315 75.17224 32.5348 76.1485 35.49678 77.12477 38.5178 78.10103 41.57774 79.07729 44.65562 80.05354 47.72838 81.0298 50.77472 82.00607 53.77484 82.98233 56.70602 83.9586 59.54732 84.93486 62.27895 85.91113 64.8818 86.88739 67.33833 87.86366 69.63014 88.83992 71.7426 89.81618 73.65881 90.79243 75.36484 91.76869 76.85152 92.74496 78.10709 93.72124 79.1224 94.6975 79.89088 95.67375 80.40514 96.65002 80.66301 97.62628 80.66374 98.60262 80.40698 99.57877 79.89308 100.5551 79.12573 101.53127 78.1115 102.5076 76.85664 103.48392 75.3718 104.4601 73.66577 105.43642 71.7503 106.4126 69.63858 107.38892 67.34712 108.36523 64.89136 109.3414 62.28958 110.31772 59.55795 111.2939 56.71739 112.27022 53.78622 113.24655 50.78682 114.22272 47.74011 115.19905 44.66699 116.17522 41.59021 117.15154 38.52954 118.12787 35.50778 119.10405 32.54544 120.08035 29.66379 121.05653 26.88448 122.03287 24.22476 123.00919 21.70479 123.98534 19.3418 124.96167 17.1527 125.93784 15.15283 126.91417 13.35732 127.89049 11.77673 128.86669 10.42358 129.84297 9.30627 130.81916 8.43365 131.79549 7.81375 132.7718 7.44766 133.74799 7.33835 134.7243 7.48839 135.70047 7.89407 136.6768 8.55617 137.65312 9.46805 138.6293 10.62312 139.6056 12.01295 140.58179 13.62729 141.5581 15.4573 142.53444 17.48868 143.51062 19.70677 144.48694 22.09543 145.4631 24.6385 146.43944 27.31805 147.41577 30.11607 148.39192 33.01166 149.36824 35.98463 150.34442 39.01375 151.32074 42.0788 152.29706 45.15594 153.27324 48.2265 154.24958 51.26735 155.22573 54.25684 156.20207 57.17517 157.1784 59.99922 158.15456 62.71214 159.13086 65.29192 160.10704 67.72348 161.08338 69.98743 162.0597 72.06758 163.03588 73.95079 164.01219 75.62233 164.98838 77.0716 165.96469 78.2894 166.94101 79.26437 167.91719 79.9914 168.89351 80.46457 169.86968 80.68098 170.84601 80.64027 171.82233 80.34059 172.7985 79.78487 173.77483 78.97752 174.751 77.92296 175.72733 76.63106 176.70365 75.10916 177.67981 73.36794 178.65615 71.41833 179.6323 69.278 180.60863 66.9587 181.58495 64.47832 182.56113 61.8538 183.53745 59.10202 184.51363 56.24603 185.48996 53.30203 186.46628 50.29347 187.44246 47.24089 188.41878 44.16594 189.39493 41.09024 190.37125 38.03473 191.34758 35.02103 192.32376 32.07005 193.30008 29.20454 193.3135 29.16676"/>
<path transform="matrix(-.33332,.9428071,.9428165,.33331666,4.74942,134.04247)" d="M2.8892 0-1.73352 2.31136 0 0-1.73352-2.31136" fill="#0000ff" fill-opacity=".5"/>
<path transform="matrix(.33323998,.9428471,.9428565,-.33323664,197.1115,134.0321)" d="M2.8892 0-1.73352 2.31136 0 0-1.73352-2.31136" fill="#0000ff" fill-opacity=".5"/>
<use data-text="y" xlink:href="#font_3_3" transform="matrix(9.963197,0,0,-9.963098,201.89327,139.11415)" fill="#0000ff" fill-opacity=".5"/>
<use data-text="=" xlink:href="#font_2_7" transform="matrix(9.963197,0,0,-9.963098,209.90375,139.11415)" fill="#0000ff" fill-opacity=".5"/>
<use data-text="s" xlink:href="#font_2_10" transform="matrix(9.963197,0,0,-9.963098,220.40496,139.11415)" fill="#0000ff" fill-opacity=".5"/>
<use data-text="i" xlink:href="#font_2_8" transform="matrix(9.963197,0,0,-9.963098,224.33045,139.11415)" fill="#0000ff" fill-opacity=".5"/>
<use data-text="n" xlink:href="#font_2_9" transform="matrix(9.963197,0,0,-9.963098,227.09027,139.11415)" fill="#0000ff" fill-opacity=".5"/>
<use data-text="x" xlink:href="#font_3_2" transform="matrix(9.963197,0,0,-9.963098,234.3132,139.11415)" fill="#0000ff" fill-opacity=".5"/>
<path transform="matrix(1.00006,0,0,-1.00005,3.7863923,163.20035)" stroke-width=".99628" stroke-linecap="butt" stroke-miterlimit="10" stroke-linejoin="miter" fill="none" stroke="#ff0000" d="M.96295 102.51813 .97624 102.55562 1.9525 105.42003 2.92877 108.37137 3.90503 111.38432 4.8813 114.44022 5.85756 117.5159 6.83383 120.59085 7.81009 123.6438 8.78636 126.65237 9.76262 129.59638 10.73888 132.45308 11.71513 135.20487 12.6914 137.82976 13.66766 140.31085 14.64394 142.6309 15.6202 144.77234 16.59645 146.72229 17.57272 148.46465 18.54898 149.98726 19.52525 151.28063 20.5015 152.3352 21.47777 153.14402 22.45403 153.70082 23.4303 154.00089 24.40656 154.04343 25.38283 153.82775 26.35909 153.35494 27.33536 152.62938 28.31161 151.65514 29.28789 150.4388 30.26413 148.99028 31.24039 147.31909 32.21666 145.43663 33.19292 143.35758 34.16919 141.09325 35.14545 138.66315 36.12172 136.08412 37.09798 133.37157 38.07425 130.5475 39.0505 127.63028 40.02676 124.64078 41.00302 121.59995 41.9793 118.52939 42.95555 115.45224 43.93182 112.38719 44.90808 109.35771 45.88435 106.38437 46.86061 103.48842 47.83687 100.6904 48.81314 98.01013 49.78938 95.46632 50.76566 93.07692 51.74191 90.85883 52.71819 88.82634 53.69444 86.99559 54.67072 85.38054 55.64697 83.9896 56.62325 82.8338 57.5995 81.9208 58.57578 81.25761 59.55203 80.85118 60.52829 80.7008 61.50455 80.80865 62.4808 81.17361 63.45708 81.79279 64.43333 82.66396 65.4096 83.7809 66.38586 85.13293 67.36214 86.71243 68.3384 88.50722 69.31467 90.50668 70.29091 92.69507 71.26718 95.0577 72.24344 97.57619 73.21971 100.23557 74.19597 103.01486 75.17224 105.89651 76.1485 108.85849 77.12477 111.87953 78.10103 114.93944 79.07729 118.01733 80.05354 121.09009 81.0298 124.13643 82.00607 127.13655 82.98233 130.06772 83.9586 132.90903 84.93486 135.64064 85.91113 138.24352 86.88739 140.70003 87.86366 142.99185 88.83992 145.10431 89.81618 147.02051 90.79243 148.72655 91.76869 150.21323 92.74496 151.4688 93.72124 152.48412 94.6975 153.25258 95.67375 153.76685 96.65002 154.02472 97.62628 154.02545 98.60262 153.76869 99.57877 153.25479 100.5551 152.48743 101.53127 151.4732 102.5076 150.21836 103.48392 148.7335 104.4601 147.02748 105.43642 145.11202 106.4126 143.00029 107.38892 140.70883 108.36523 138.25305 109.3414 135.65128 110.31772 132.91967 111.2939 130.0791 112.27022 127.14792 113.24655 124.14853 114.22272 121.10182 115.19905 118.0287 116.17522 114.9519 117.15154 111.89127 118.12787 108.86949 119.10405 105.90715 120.08035 103.0255 121.05653 100.24619 122.03287 97.58646 123.00919 95.0665 123.98534 92.7035 124.96167 90.51439 125.93784 88.51456 126.91417 86.71902 127.89049 85.13844 128.86669 83.78528 129.84297 82.66798 130.81916 81.79536 131.79549 81.17546 132.7718 80.80937 133.74799 80.70007 134.7243 80.85008 135.70047 81.25578 136.6768 81.91788 137.65312 82.82977 138.6293 83.98485 139.6056 85.37466 140.58179 86.989 141.5581 88.81902 142.53444 90.85039 143.51062 93.06848 144.48694 95.45714 145.4631 98.00023 146.43944 100.67976 147.41577 103.47778 148.39192 106.37335 149.36824 109.34634 150.34442 112.37544 151.32074 115.4405 152.29706 118.51765 153.27324 121.58821 154.24958 124.62904 155.22573 127.61855 156.20207 130.53687 157.1784 133.36093 158.15456 136.07384 159.13086 138.65363 160.10704 141.08519 161.08338 143.34914 162.0597 145.42929 163.03588 147.31249 164.01219 148.98404 164.98838 150.4333 165.96469 151.6511 166.94101 152.62609 167.91719 153.3531 168.89351 153.82628 169.86968 154.0427 170.84601 154.00199 171.82233 153.7023 172.7985 153.14658 173.77483 152.33924 174.751 151.28467 175.72733 149.99275 176.70365 148.47087 177.67981 146.72965 178.65615 144.78005 179.6323 142.63971 180.60863 140.32038 181.58495 137.84003 182.56113 135.21552 183.53745 132.46373 184.51363 129.60774 185.48996 126.66374 186.46628 123.65518 187.44246 120.60258 188.41878 117.52765 189.39493 114.45195 190.37125 111.39644 191.34758 108.38274 192.32376 105.43176 193.30008 102.56625 193.3135 102.52847"/>
<path transform="matrix(-.33332,.9428071,.9428165,.33331666,4.74942,60.6771)" d="M2.8892 0-1.73352 2.31136 0 0-1.73352-2.31136" fill="#ff0000"/>
<path transform="matrix(.33323998,.9428471,.9428565,-.33323664,197.1115,60.66674)" d="M2.8892 0-1.73352 2.31136 0 0-1.73352-2.31136" fill="#ff0000"/>
<use data-text="y" xlink:href="#font_3_3" transform="matrix(9.963197,0,0,-9.963098,201.89327,65.881488)" fill="#ff0000"/>
<use data-text="=" xlink:href="#font_2_7" transform="matrix(9.963197,0,0,-9.963098,209.90375,65.881488)" fill="#ff0000"/>
<use data-text="s" xlink:href="#font_2_10" transform="matrix(9.963197,0,0,-9.963098,220.40496,65.881488)" fill="#ff0000"/>
<use data-text="i" xlink:href="#font_2_8" transform="matrix(9.963197,0,0,-9.963098,224.33045,65.881488)" fill="#ff0000"/>
<use data-text="n" xlink:href="#font_2_9" transform="matrix(9.963197,0,0,-9.963098,227.09027,65.881488)" fill="#ff0000"/>
<use data-text="(" xlink:href="#font_2_1" transform="matrix(9.963197,0,0,-9.963098,232.61985,65.881488)" fill="#ff0000"/>
<use data-text="x" xlink:href="#font_3_2" transform="matrix(9.963197,0,0,-9.963098,236.52735,65.881488)" fill="#ff0000"/>
<use data-text=")" xlink:href="#font_2_2" transform="matrix(9.963197,0,0,-9.963098,242.22168,65.881488)" fill="#ff0000"/>
<use data-text="+" xlink:href="#font_2_3" transform="matrix(9.963197,0,0,-9.963098,248.29923,65.881488)" fill="#ff0000"/>
<use data-text="2" xlink:href="#font_2_5" transform="matrix(9.963197,0,0,-9.963098,258.25248,65.881488)" fill="#ff0000"/>
<g>
<path transform="matrix(1.00006,0,0,-1.00005,3.7863923,163.20035)" d="M5.814 117.37872H188.46607" fill="#e60000" fill-opacity=".5"/>
<path transform="matrix(1.00006,0,0,-1.00005,3.7863923,163.20035)" stroke-width=".3985" stroke-linecap="butt" stroke-dasharray="2.98883,2.98883" stroke-miterlimit="10" stroke-linejoin="miter" fill="none" stroke="#ff0000" stroke-opacity=".5" d="M5.814 117.37872H188.46607"/>
</g>
<use data-text="x" xlink:href="#font_3_2" transform="matrix(9.963197,0,0,-9.963098,188.86348,115.66098)"/>
<use data-text="y" xlink:href="#font_3_3" transform="matrix(9.963197,0,0,-9.963098,86.18633,9.606674)"/>
</svg>
