<svg xmlns="http://www.w3.org/2000/svg" xmlns:xlink="http://www.w3.org/1999/xlink" version="1.1" width="219" height="182" viewBox="0 0 219 182">
<defs>
<path id="font_1_67" d="M.46499635 .6516113V.6826172L.33599855 .6796112C.2939911 .6796112 .20599365 .6796112 .16799927 .6826172V.6516113H.20399475C.3019867 .6516113 .3019867 .63861086 .3019867 .6035919V.14746094C.3019867 .055999757 .2519989 0 .19898987 0 .19299317-.00039672853 .125-.00039672853 .08898926 .057617189 .14099121 .057617189 .15299988 .08761597 .15299988 .11361694 .15299988 .14961243 .125 .1696167 .09700012 .1696167 .07499695 .16999817 .040985109 .1559906 .040985109 .11199951 .040985109 .03753662 .11199951-.022460938 .20098877-.022460938 .30299378-.022460938 .37599183 .047531129 .3869934 .122543338 .3880005 .1305542 .3880005 .1325531 .3880005 .16654969V.61061099C.3880005 .6516113 .4019928 .6516113 .46499635 .6516113Z"/>
<path id="font_1_28" d="M.48298646 .08912659V.14511109H.45799256V.08912659C.45799256 .03112793 .43299867 .025131226 .42199708 .025131226 .3889923 .025131226 .3849945 .070129398 .3849945 .07511902V.27508546C.3849945 .31707765 .3849945 .3560791 .34899903 .39312745 .30999757 .43223573 .2599945 .4482422 .21199036 .4482422 .12998963 .4482422 .06098938 .40115357 .06098938 .335083 .06098938 .30508424 .08099365 .28808595 .10699463 .28808595 .1349945 .28808595 .15299988 .30807496 .15299988 .33407594 .15299988 .3460846 .147995 .37908937 .101989749 .38008119 .1289978 .41519166 .17799378 .426239 .20999146 .426239 .25898744 .426239 .31599427 .38710023 .31599427 .29808045V.26107789C.2649994 .25808717 .19499207 .25508119 .13198853 .22509766 .056991579 .19110108 .03199768 .13911438 .03199768 .09512329 .03199768 .014251709 .1289978-.0107421879 .19198609-.0107421879 .2579956-.0107421879 .3039856 .029251099 .32299806 .07624817 .32699586 .036132814 .35398866-.005859375 .40098573-.005859375 .42199708-.005859375 .48298646 .008132935 .48298646 .08912659M.31599427 .14013672C.31599427 .04525757 .24398804 .011245728 .19898987 .011245728 .1499939 .011245728 .10899353 .04624939 .10899353 .09625244 .10899353 .15124512 .15098572 .23425293 .31599427 .24024964V.14013672Z"/>
<path id="font_1_77" d="M.5349884 0V.0309906C.48298646 .0309906 .45799256 .0309906 .45700074 .061019899V.25221253C.45700074 .3383026 .45700074 .36932374 .42599488 .405365 .4119873 .42237855 .3789978 .4423828 .32099916 .4423828 .24798584 .4423828 .20098877 .39935304 .17298889 .33729554V.4423828L.03199768 .43066407V.3996582C.101989749 .3996582 .10998535 .39266969 .10998535 .34370423V.07595825C.10998535 .0309906 .09899902 .0309906 .03199768 .0309906V0L.14498902 .0029907227 .25698854 0V.0309906C.18998719 .0309906 .1789856 .0309906 .1789856 .07595825V.25978089C.1789856 .36431886 .25 .42037965 .31399537 .42037965 .3769989 .42037965 .3880005 .36631776 .3880005 .30926515V.076034549C.3880005 .0309906 .3769989 .0309906 .30999757 .0309906V0L.4229889 .0029907227 .5349884 0Z"/>
<path id="font_1_74" d="M.8789978 0V.0309906H.8549957C.7779999 .0309906 .776001 .041992189 .776001 .07795715V.6046295C.776001 .64060977 .7779999 .6516113 .8549957 .6516113H.8789978V.6826172H.70999148C.6839905 .6826172 .6839905 .6816101 .6769867 .66360476L.45799256 .10095215 .24099732 .660614C.23199463 .6826172 .22898865 .6826172 .20599365 .6826172H.036987306V.6516113H.06098938C.13798523 .6516113 .13999939 .64060977 .13999939 .6046295V.10494995C.13999939 .07795715 .13999939 .0309906 .036987306 .0309906V0L.1539917 .0029907227 .2709961 0V.0309906C.16799927 .0309906 .16799927 .07795715 .16799927 .10494995V.6436157H.16899109L.4099884 .021987915C.4149933 .008987427 .41999818 0 .42999269 0 .44099427 0 .44400025 .0079956059 .44799806 .018997193L.69400027 .6516113H.69499209V.07795715C.69499209 .041992189 .69299319 .0309906 .6159973 .0309906H.59199526V0C.6289978 .0029907227 .69699099 .0029907227 .73599246 .0029907227 .7749939 .0029907227 .84199526 .0029907227 .8789978 0Z"/>
<path id="font_1_96" d="M.3639984 .38137818C.3639984 .41337586 .33299256 .4423828 .2899933 .4423828 .21699524 .4423828 .18099976 .37538148 .16699219 .3323822V.4423828L.027999878 .43066407V.3996582C.09799194 .3996582 .10598755 .39266969 .10598755 .34370423V.07595825C.10598755 .0309906 .09498596 .0309906 .027999878 .0309906V0L.14199829 .0029907227C.18199158 .0029907227 .22898865 .0029907227 .2689972 0V.0309906H.24798584C.17399597 .0309906 .17199707 .04197693 .17199707 .07795715V.23181153C.17199707 .33137513 .21398926 .42037965 .2899933 .42037965 .29699708 .42037965 .29899598 .42037965 .30099488 .41937257 .2979889 .41838075 .27799989 .40637208 .27799989 .3803711 .27799989 .35237123 .29899598 .33737184 .32099916 .33737184 .33898927 .33737184 .3639984 .3493805 .3639984 .38137818Z"/>
<path id="font_1_118" d="M.5079956 .3996582V.43066407C.4850006 .4286499 .45599366 .42765809 .43299867 .42765809L.34599305 .43066407V.3996582C.3769989 .39866639 .3929901 .3816681 .3929901 .35668946 .3929901 .34669496 .3919983 .34469605 .3869934 .33270265L.28599549 .08685303 .1749878 .35568238C.17098999 .36567689 .16899109 .36967469 .16899109 .3736725 .16899109 .3996582 .20599365 .3996582 .22499085 .3996582V.43066407L.115997318 .42765809C.08898926 .42765809 .04899597 .4286499 .018997193 .43066407V.3996582C.066986087 .3996582 .085998538 .3996582 .099990848 .36468507L.25-.000091552738 .22499085-.059066774C.20298767-.11407471 .1749878-.18309021 .11099243-.18309021 .10598755-.18309021 .08299255-.18309021 .06399536-.16503906 .09498596-.16104126 .102996829-.13905335 .102996829-.123046878 .102996829-.0970459 .083999637-.08103943 .06098938-.08103943 .040985109-.08103943 .018997193-.09403992 .018997193-.124053958 .018997193-.16905213 .06098938-.20507813 .11099243-.20507813 .17399597-.20507813 .21499634-.14804077 .23899842-.091049198L.4149933 .33569337C.44099427 .39865113 .49198915 .3996582 .5079956 .3996582Z"/>
<path id="font_1_109" d="M.5349884 0V.0309906C.46499635 .0309906 .45700074 .037994386 .45700074 .08705139V.4423828L.30999757 .43066407V.3996582C.37998963 .3996582 .3880005 .39266969 .3880005 .34373475V.16601563C.3880005 .07910156 .33999635 .011245728 .2669983 .011245728 .18299866 .011245728 .1789856 .058135988 .1789856 .11009216V.4423828L.03199768 .43066407V.3996582C.10998535 .3996582 .10998535 .39666749 .10998535 .3078003V.15802002C.10998535 .080093387 .10998535-.0107421879 .2619934-.0107421879 .31799317-.0107421879 .3619995 .017242432 .3909912 .07910156V-.0107421879L.5349884 0Z"/>
<path id="font_1_72" d="M.25498963 0V.0309906C.18798828 .0309906 .1769867 .0309906 .1769867 .07601929V.69433596L.032989503 .6826172V.6516113C.102996829 .6516113 .11099243 .64460757 .11099243 .5956421V.07595825C.11099243 .0309906 .099990848 .0309906 .032989503 .0309906V0L.14399719 .0029907227 .25498963 0Z"/>
<path id="font_1_97" d="M.49899293 .18579102C.49899293 .2858429 .43299867 .36791993 .34899903 .38793946L.22099304 .4189453C.15899658 .43388368 .11999512 .48773194 .11999512 .5458069 .11999512 .61595156 .17399597 .677063 .2519989 .677063 .4189911 .677063 .44099427 .5127411 .44699098 .46777345 .44799806 .461792 .44799806 .45581056 .45899964 .45581056 .47200013 .45581056 .47200013 .46080018 .47200013 .47973634V.68107607C.47200013 .69807437 .47200013 .7050781 .46099855 .7050781 .45399476 .7050781 .45298768 .70407107 .44599916 .69207766L.41099549 .63497927C.3809967 .66404727 .33999635 .7050781 .25099183 .7050781 .13999939 .7050781 .055999757 .61694338 .055999757 .5107422 .055999757 .42790223 .10899353 .35490418 .18699646 .32788087 .19799805 .32388307 .24899292 .3118744 .31900025 .29486085 .34599305 .28785707 .37599183 .280838 .4039917 .24382019 .4249878 .2177887 .43499757 .18478394 .43499757 .1517334 .43499757 .0806427 .3849945 .008529663 .30099488 .008529663 .27198792 .008529663 .19599915 .013534546 .14299011 .06260681 .084991458 .11668396 .08198547 .18078614 .08099365 .21679688 .07998657 .22679138 .07199097 .22679138 .068984989 .22679138 .055999757 .22679138 .055999757 .2197876 .055999757 .20178223V.0015258789C.055999757-.015472412 .055999757-.022460938 .066986087-.022460938 .07398987-.022460938 .07499695-.020462037 .08198547-.009475708 .08198547-.009475708 .084991458-.0054626467 .117996219 .047592164 .14898682 .013534546 .21299744-.022460938 .3019867-.022460938 .4189911-.022460938 .49899293 .07562256 .49899293 .18579102Z"/>
<path id="font_1_50" d="M.4149933 .11933899C.4149933 .12934876 .40699769 .13134766 .4019928 .13134766 .3929901 .13134766 .3909912 .12535095 .3889923 .11734009 .35398866 .014251709 .2639923 .014251709 .2539978 .014251709 .20399475 .014251709 .1639862 .044281007 .14099121 .08131409 .11099243 .12934876 .11099243 .19540406 .11099243 .23144531H.3899994C.4119873 .23144531 .4149933 .23144531 .4149933 .2524414 .4149933 .35131837 .36099244 .4482422 .23599243 .4482422 .11999512 .4482422 .027999878 .34532167 .027999878 .22042847 .027999878 .08631897 .1329956-.0107421879 .24798584-.0107421879 .36999513-.0107421879 .4149933 .10032654 .4149933 .11933899M.34899903 .2524414H.11199951C.117996219 .40126039 .20199585 .426239 .23599243 .426239 .33898927 .426239 .34899903 .2913971 .34899903 .2524414Z"/>
<path id="font_1_84" d="M.5209961 .21636963C.5209961 .34336854 .42399598 .4423828 .31199647 .4423828 .23399353 .4423828 .19198609 .39837647 .17199707 .3763733V.4423828L.027999878 .43066407V.3996582C.09899902 .3996582 .10598755 .3936615 .10598755 .34973146V-.117996219C.10598755-.16308594 .09498596-.16308594 .027999878-.16308594V-.1940918L.13999939-.19110108 .25299073-.1940918V-.16308594C.18598938-.16308594 .1749878-.16308594 .1749878-.117996219V.050186159 .059173585C.17999268 .04319763 .22200012-.0107421879 .2979889-.0107421879 .4169922-.0107421879 .5209961 .087127689 .5209961 .21594239V.21636963M.43798829 .21594239C.43798829 .09512329 .36799623 .011245728 .2939911 .011245728 .2539978 .011245728 .21598816 .031219483 .18899536 .07215881 .1749878 .09312439 .1749878 .09411621 .1749878 .114089969V.33674623C.20399475 .38838197 .25299073 .41737367 .3039856 .41737367 .3769989 .41737367 .43798829 .32937623 .43798829 .21636963V.21594239Z"/>
<path id="font_1_76" d="M.71598818 .6516113V.6826172L.598999 .6796112 .48199464 .6826172V.6516113C.58499148 .6516113 .58499148 .6046295 .58499148 .577652V.15092469L.23199463 .6696167C.22299195 .6816101 .22200012 .6826172 .20298767 .6826172H.032989503V.6516113H.06199646C.07699585 .6516113 .09700012 .65060427 .11199951 .6496124 .1349945 .64660647 .13598633 .6456146 .13598633 .62661746V.10494995C.13598633 .07795715 .13598633 .0309906 .032989503 .0309906V0L.1499939 .0029907227 .2669983 0V.0309906C.1639862 .0309906 .1639862 .07795715 .1639862 .10494995V.62461856C.16899109 .6196289 .16999817 .6186218 .17399597 .6126251L.58200076 .0129852299C.59098818 .0009918213 .59199526 0 .598999 0 .61299136 0 .61299136 .0069885256 .61299136 .025985718V.577652C.61299136 .6046295 .61299136 .6516113 .71598818 .6516113Z"/>
<path id="font_1_81" d="M.47099305 .21424866C.47099305 .34223939 .37098695 .4482422 .25 .4482422 .125 .4482422 .027999878 .3392334 .027999878 .21424866 .027999878 .085250858 .13198853-.0107421879 .24899292-.0107421879 .36999513-.0107421879 .47099305 .087249759 .47099305 .21424866M.3880005 .22224427C.3880005 .18624878 .3880005 .13224793 .3659973 .08824158 .34399415 .04324341 .2999878 .014251709 .25 .014251709 .20698548 .014251709 .16299439 .035247804 .13598633 .08125305 .11099243 .12524414 .11099243 .18624878 .11099243 .22224427 .11099243 .26124574 .11099243 .31523133 .1349945 .35923768 .1619873 .40522767 .20899964 .426239 .24899292 .426239 .29299928 .426239 .33599855 .40423585 .3619995 .36123658 .3880005 .3182373 .3880005 .26023866 .3880005 .22224427Z"/>
<path id="font_1_112" d="M.5079956 .3996582V.43066407C.4850006 .4286499 .45599366 .42765809 .43299867 .42765809L.34599305 .43066407V.3996582C.3829956 .39865113 .3939972 .37568666 .3939972 .35671998 .3939972 .34773255 .3919983 .34373475 .3880005 .3327484L.28599549 .078125 .17399597 .35671998C.16799927 .3697052 .16799927 .37368775 .16799927 .37368775 .16799927 .3996582 .20698548 .3996582 .22499085 .3996582V.43066407L.115997318 .42765809C.08898926 .42765809 .04899597 .4286499 .018997193 .43066407V.3996582C.08198547 .3996582 .085998538 .3936615 .09899902 .36271668L.24299622 .008224487C.24899292-.0057525637 .25099183-.0107421879 .2639923-.0107421879 .2769928-.0107421879 .2809906-.0017700195 .2849884 .008224487L.41600038 .3327484C.4249878 .3557129 .44198609 .39865113 .5079956 .3996582Z"/>
<path id="font_2_1" d="M.2939911 .64004519C.2939911 .66400149 .2939911 .6660156 .2709961 .6660156 .20899964 .60227969 .12098694 .60227969 .08898926 .60227969V.57128909C.10899353 .57128909 .16799927 .57128909 .21998596 .5972748V.07902527C.21998596 .042999269 .21699524 .0309906 .1269989 .0309906H.09498596V0C.12998963 .0029907227 .21699524 .0029907227 .25698854 .0029907227 .29699708 .0029907227 .38398744 .0029907227 .4189911 0V.0309906H.3869934C.29699708 .0309906 .2939911 .041992189 .2939911 .07902527V.64004519Z"/>
<path id="font_3_1" d="M.19198609 .052993776C.19198609 .08198547 .16799927 .10598755 .13899231 .10598755 .10998535 .10598755 .085998538 .08198547 .085998538 .052993776 .085998538 .023986817 .10998535 0 .13899231 0 .16799927 0 .19198609 .023986817 .19198609 .052993776Z"/>
<path id="font_2_4" d="M.44898988 .20022583C.44898988 .3193512 .36698915 .41944886 .25898744 .41944886 .21099854 .41944886 .16799927 .40345765 .13198853 .36842347V.5637665C.1519928 .5577698 .18499756 .55078127 .21699524 .55078127 .33999635 .55078127 .4099884 .6417694 .4099884 .6547699 .4099884 .6607666 .40699769 .6657715 .3999939 .6657715 .39898683 .6657715 .39698792 .6657715 .3919983 .66278079 .37199403 .6537781 .32299806 .6337738 .2559967 .6337738 .21598816 .6337738 .16999817 .6407776 .12298584 .6617737 .114990238 .66477969 .11299133 .66477969 .11099243 .66477969 .100997928 .66477969 .100997928 .6567688 .100997928 .6407776V.34439088C.100997928 .32637025 .100997928 .31835938 .114990238 .31835938 .12199402 .31835938 .12399292 .32136537 .12799073 .32736207 .13899231 .3433838 .17599488 .39746095 .25698854 .39746095 .30899049 .39746095 .33399964 .35139466 .34199525 .33337403 .35798646 .29632569 .3600006 .25727845 .3600006 .20722962 .3600006 .17222595 .3600006 .11222839 .33599855 .07035828 .31199647 .031463624 .2749939 .0055389406 .22898865 .0055389406 .1559906 .0055389406 .09899902 .058380128 .08198547 .11723328 .084991458 .1162262 .08799744 .115234378 .09899902 .115234378 .13198853 .115234378 .14898682 .14022827 .14898682 .16423035 .14898682 .18823242 .13198853 .21322632 .09899902 .21322632 .084991458 .21322632 .049987794 .20622254 .049987794 .16023255 .049987794 .07434082 .11898804-.022460938 .23098755-.022460938 .34700013-.022460938 .44898988 .073349 .44898988 .20022583Z"/>
<path id="font_2_2" d="M.1269989 .07699585 .23298645 .18003845C.3889923 .31811524 .44898988 .3721466 .44898988 .47216798 .44898988 .5860901 .35899354 .6660156 .23699951 .6660156 .12399292 .6660156 .049987794 .57411196 .049987794 .48516847 .049987794 .4291687 .099990848 .4291687 .102996829 .4291687 .11999512 .4291687 .15499878 .44117738 .15499878 .48217774 .15499878 .5081787 .13699341 .5341797 .101989749 .5341797 .09399414 .5341797 .09199524 .5341797 .08898926 .5331726 .11199951 .59806826 .1659851 .63500979 .22399903 .63500979 .31498719 .63500979 .35798646 .5541382 .35798646 .47216798 .35798646 .39215089 .30799867 .31311036 .25299073 .25108338L.06098938 .036987306C.049987794 .025985718 .049987794 .023986817 .049987794 0H.42099L.44898988 .17404175H.42399598C.4189911 .14402771 .4119873 .1000061 .4019928 .084991458 .394989 .07699585 .32899476 .07699585 .30699159 .07699585H.1269989Z"/>
<path id="font_2_3" d="M.2899933 .35191346C.37199403 .37893678 .42999269 .4490509 .42999269 .52809146 .42999269 .6100464 .34199525 .6660156 .24598694 .6660156 .14498902 .6660156 .068984989 .60606387 .068984989 .53009036 .068984989 .49710084 .09098816 .47808839 .11999512 .47808839 .15098572 .47808839 .17098999 .50009158 .17098999 .5290985 .17098999 .57910159 .12399292 .57910159 .10899353 .57910159 .13999939 .62802127 .20599365 .64100649 .24198914 .64100649 .2829895 .64100649 .33799745 .6190338 .33799745 .5290985 .33799745 .51708987 .33599855 .45906068 .30999757 .4149933 .27999879 .36691285 .24598694 .36390687 .22099304 .36291505 .21299744 .36190797 .18899536 .35990907 .18199158 .35990907 .17399597 .35890199 .16699219 .35791017 .16699219 .3479004 .16699219 .33691407 .17399597 .33691407 .19099427 .33691407H.23498535C.31698609 .33691407 .35398866 .2686615 .35398866 .17037964 .35398866 .034469606 .2849884 .0055389406 .24099732 .0055389406 .19799805 .0055389406 .12298584 .022491456 .08799744 .08137512 .12298584 .07637024 .1539917 .09837341 .1539917 .1363678 .1539917 .17237854 .1269989 .19238281 .09799194 .19238281 .07398987 .19238281 .041992189 .17837525 .041992189 .1343689 .041992189 .043441774 .1349945-.022460938 .24398804-.022460938 .3659973-.022460938 .45700074 .06838989 .45700074 .17037964 .45700074 .252594 .3939972 .33088685 .2899933 .35191346Z"/>
<path id="font_1_66" d="M.24699402 0V.0309906C.18099976 .0309906 .1769867 .035995485 .1769867 .075042728V.4423828L.036987306 .43066407V.3996582C.101989749 .3996582 .11099243 .3936615 .11099243 .3447113V.07595825C.11099243 .0309906 .099990848 .0309906 .032989503 .0309906V0L.14299011 .0029907227C.17799378 .0029907227 .21299744 .0009918213 .24699402 0M.19198609 .603775C.19198609 .6307678 .16899109 .6567688 .13899231 .6567688 .10499573 .6567688 .084991458 .6287689 .084991458 .603775 .084991458 .57676699 .10798645 .55078127 .13798523 .55078127 .17199707 .55078127 .19198609 .5787811 .19198609 .603775Z"/>
<path id="font_1_49" d="M.6519928 .2579193H.6269989C.60198977 .10397339 .57899478 .0309906 .40699769 .0309906H.27398683C.22698975 .0309906 .22499085 .037994386 .22499085 .07098389V.33789063H.31498719C.4119873 .33789063 .4229889 .30589295 .4229889 .220932H.44799806V.48606874H.4229889C.4229889 .39994813 .4119873 .36888124 .31498719 .36888124H.22499085V.6087799C.22499085 .6416931 .22698975 .64868167 .27398683 .64868167H.40299989C.55599978 .64868167 .58299258 .59381106 .598999 .45507813H.6239929L.59599307 .6796875H.032989503V.64868167H.056991579C.13398743 .64868167 .13598633 .6377106 .13598633 .6017914V.07797241C.13598633 .041992189 .13398743 .0309906 .056991579 .0309906H.032989503V0H.6100006L.6519928 .2579193Z"/>
<path id="font_1_98" d="M.3600006 .12823487C.3600006 .18122864 .32998658 .21122742 .31799317 .22323609 .2849884 .25523377 .24598694 .26322938 .20399475 .27124024 .147995 .28224183 .08099365 .29522706 .08099365 .35324098 .08099365 .38822938 .10699463 .42922975 .19299317 .42922975 .30299378 .42922975 .30799867 .3392334 .30999757 .30822755 .31098939 .2992401 .32199098 .2992401 .32199098 .2992401 .33499146 .2992401 .33499146 .30422975 .33499146 .32322694V.4242401C.33499146 .4412384 .33499146 .4482422 .32398988 .4482422 .31900025 .4482422 .31698609 .4482422 .3039856 .43623353 .30099488 .43223573 .29100038 .42323304 .2869873 .42022706 .24899292 .4482422 .20799256 .4482422 .19299317 .4482422 .070999149 .4482422 .032989503 .38124085 .032989503 .3252411 .032989503 .29023744 .04899597 .26223756 .07598877 .24023438 .10798645 .2142334 .13598633 .2082367 .20799256 .19422913 .22999573 .19021607 .31199647 .17422486 .31199647 .10221863 .31199647 .051223756 .2769928 .011245728 .19898987 .011245728 .114990238 .011245728 .07899475 .068222049 .05999756 .1532135 .056991579 .16621399 .055999757 .17021179 .04598999 .17021179 .032989503 .17021179 .032989503 .16322327 .032989503 .1452179V.013214111C.032989503-.003753662 .032989503-.0107421879 .04399109-.0107421879 .04899597-.0107421879 .049987794-.009750366 .068984989 .009246826 .070999149 .011245728 .070999149 .013214111 .08898926 .032226564 .1329956-.009750366 .17799378-.0107421879 .19898987-.0107421879 .31399537-.0107421879 .3600006 .05621338 .3600006 .1282196V.12823487Z"/>
<path id="font_1_105" d="M.33198548 .12385559V.18066406H.30699159V.12585449C.30699159 .052108766 .2769928 .014251709 .23999024 .014251709 .17298889 .014251709 .17298889 .10491943 .17298889 .12187195V.3996582H.31599427V.43066407H.17298889V.6142578H.147995C.14698792 .5324249 .116989139 .42565919 .018997193 .42166139V.3996582H.10398865V.12408447C.10398865 .0012512207 .19699097-.0107421879 .23298645-.0107421879 .3039856-.0107421879 .33198548 .060180665 .33198548 .12408447V.12385559Z"/>
<path id="font_1_75" d="M.8129883 0V.0309906C.7609863 .0309906 .73599246 .0309906 .7350006 .061019899V.25221253C.7350006 .3383026 .7350006 .36932374 .70399478 .405365 .6899872 .42237855 .6569977 .4423828 .598999 .4423828 .5149994 .4423828 .47099305 .38233949 .45399476 .34429933 .43998719 .43138124 .3659973 .4423828 .32099916 .4423828 .24798584 .4423828 .20098877 .39935304 .17298889 .33729554V.4423828L.03199768 .43066407V.3996582C.101989749 .3996582 .10998535 .39266969 .10998535 .34370423V.07595825C.10998535 .0309906 .09899902 .0309906 .03199768 .0309906V0L.14498902 .0029907227 .25698854 0V.0309906C.18998719 .0309906 .1789856 .0309906 .1789856 .07595825V.25978089C.1789856 .36431886 .25 .42037965 .31399537 .42037965 .3769989 .42037965 .3880005 .36631776 .3880005 .30926515V.076034549C.3880005 .0309906 .3769989 .0309906 .30999757 .0309906V0L.4229889 .0029907227 .5349884 0V.0309906C.46798707 .0309906 .45700074 .0309906 .45700074 .076034549V.2602234C.45700074 .36431886 .5279999 .42037965 .59199526 .42037965 .6549988 .42037965 .66600039 .36631776 .66600039 .30926515V.076034549C.66600039 .0309906 .6549988 .0309906 .58799746 .0309906V0L.70098879 .0029907227 .8129883 0Z"/>
<path id="font_1_63" d="M.5349884 0V.0309906C.48298646 .0309906 .45799256 .0309906 .45700074 .061019899V.25221253C.45700074 .3383026 .45700074 .36932374 .42599488 .405365 .4119873 .42237855 .3789978 .4423828 .32099916 .4423828 .23699951 .4423828 .19299317 .38233949 .1769867 .34629823H.17599488V.69433596L.03199768 .6826172V.6516113C.101989749 .6516113 .10998535 .64463809 .10998535 .59580996V.076034549C.10998535 .0309906 .09899902 .0309906 .03199768 .0309906V0L.14498902 .0029907227 .25698854 0V.0309906C.18998719 .0309906 .1789856 .0309906 .1789856 .076034549V.2602234C.1789856 .36431886 .25 .42037965 .31399537 .42037965 .3769989 .42037965 .3880005 .36631776 .3880005 .30926515V.076034549C.3880005 .0309906 .3769989 .0309906 .30999757 .0309906V0L.4229889 .0029907227 .5349884 0Z"/>
</defs>
<path transform="matrix(1.00005,0,0,-1.00006,23.57547,166.53421)" stroke-width=".19925" stroke-linecap="butt" stroke-miterlimit="10" stroke-linejoin="miter" fill="none" stroke="#929292" d="M.53224-2.12605V2.12605M17.03204-2.12605V2.12605M31.93509-2.12605V2.12605M48.43489-2.12605V2.12605M64.40245-2.12605V2.12605M80.90225-2.12605V2.12605M96.8698-2.12605V2.12605M113.3696-2.12605V2.12605M129.8694-2.12605V2.12605M145.83695-2.12605V2.12605M162.33675-2.12605V2.12605M178.3043-2.12605V2.12605"/>
<path transform="matrix(1.00005,0,0,-1.00006,23.57547,166.53421)" stroke-width=".19925" stroke-linecap="butt" stroke-miterlimit="10" stroke-linejoin="miter" fill="none" stroke="#929292" d="M-2.12613 26.89914H2.12613M-2.12613 53.79828H2.12613M-2.12613 80.69742H2.12613M-2.12613 107.59656H2.12613M-2.12613 134.4957H2.12613M-2.12613 161.39484H2.12613"/>
<path transform="matrix(1.00005,0,0,-1.00006,23.57547,166.53421)" stroke-width=".3985" stroke-linecap="butt" stroke-miterlimit="10" stroke-linejoin="miter" fill="none" stroke="#000000" d="M0 0H192.27933"/>
<path transform="matrix(1.00005,0,0,-1.00006,215.8644,166.53421)" d="M1.99252 0-1.19551 1.59401 0 0-1.19551-1.59401"/>
<path transform="matrix(1.00005,0,0,-1.00006,23.57547,166.53421)" stroke-width=".3985" stroke-linecap="butt" stroke-miterlimit="10" stroke-linejoin="miter" fill="none" stroke="#000000" d="M0 0V159.40232"/>
<path transform="matrix(0,-1.00006,-1.00005,-0,23.57547,7.122345)" d="M1.99252 0-1.19551 1.59401 0 0-1.19551-1.59401"/>
<use data-text="J" xlink:href="#font_1_67" transform="matrix(9.963098,0,0,-9.963197,16.286103,178.98496)"/>
<use data-text="a" xlink:href="#font_1_28" transform="matrix(9.963098,0,0,-9.963197,21.407135,178.98496)"/>
<use data-text="n" xlink:href="#font_1_77" transform="matrix(9.963098,0,0,-9.963197,26.388672,178.98496)"/>
<use data-text="M" xlink:href="#font_1_74" transform="matrix(9.963098,0,0,-9.963197,46.50061,178.98496)"/>
<use data-text="a" xlink:href="#font_1_28" transform="matrix(9.963098,0,0,-9.963197,55.63678,178.98496)"/>
<use data-text="r" xlink:href="#font_1_96" transform="matrix(9.963098,0,0,-9.963197,60.618318,178.98496)"/>
<use data-text="M" xlink:href="#font_1_74" transform="matrix(9.963098,0,0,-9.963197,78.43121,178.98496)"/>
<use data-text="a" xlink:href="#font_1_28" transform="matrix(9.963098,0,0,-9.963197,87.56738,178.98496)"/>
<use data-text="y" xlink:href="#font_1_118" transform="matrix(9.963098,0,0,-9.963197,92.27991,178.98496)"/>
<use data-text="J" xlink:href="#font_1_67" transform="matrix(9.963098,0,0,-9.963197,113.73497,179.09497)"/>
<use data-text="u" xlink:href="#font_1_109" transform="matrix(9.963098,0,0,-9.963197,118.856,179.09497)"/>
<use data-text="l" xlink:href="#font_1_72" transform="matrix(9.963098,0,0,-9.963197,124.39548,179.09497)"/>
<use data-text="S" xlink:href="#font_1_97" transform="matrix(9.963098,0,0,-9.963197,145.69956,179.20497)"/>
<use data-text="e" xlink:href="#font_1_50" transform="matrix(9.963098,0,0,-9.963197,151.23905,179.20497)"/>
<use data-text="p" xlink:href="#font_1_84" transform="matrix(9.963098,0,0,-9.963197,155.66266,179.20497)"/>
<use data-text="N" xlink:href="#font_1_76" transform="matrix(9.963098,0,0,-9.963197,177.20215,178.98496)"/>
<use data-text="o" xlink:href="#font_1_81" transform="matrix(9.963098,0,0,-9.963197,184.67447,178.98496)"/>
<use data-text="v" xlink:href="#font_1_112" transform="matrix(9.963098,0,0,-9.963197,189.38701,178.98496)"/>
<use data-text="1" xlink:href="#font_2_1" transform="matrix(9.963098,0,0,-9.963197,7.965683,142.8438)"/>
<use data-text="1" xlink:href="#font_2_1" transform="matrix(9.963098,0,0,-9.963197,12.94722,142.8438)"/>
<use data-text="1" xlink:href="#font_2_1" transform="matrix(9.963098,0,0,-9.963197,.2163086,115.94318)"/>
<use data-text="1" xlink:href="#font_2_1" transform="matrix(9.963098,0,0,-9.963197,5.1978456,115.94318)"/>
<use data-text="." xlink:href="#font_3_1" transform="matrix(9.963098,0,0,-9.963197,10.17981,115.94318)"/>
<use data-text="5" xlink:href="#font_2_4" transform="matrix(9.963098,0,0,-9.963197,12.946945,115.94318)"/>
<use data-text="1" xlink:href="#font_2_1" transform="matrix(9.963098,0,0,-9.963197,7.965683,89.042568)"/>
<use data-text="2" xlink:href="#font_2_2" transform="matrix(9.963098,0,0,-9.963197,12.94722,89.042568)"/>
<use data-text="1" xlink:href="#font_2_1" transform="matrix(9.963098,0,0,-9.963197,.2163086,62.141954)"/>
<use data-text="2" xlink:href="#font_2_2" transform="matrix(9.963098,0,0,-9.963197,5.1978456,62.141954)"/>
<use data-text="." xlink:href="#font_3_1" transform="matrix(9.963098,0,0,-9.963197,10.17981,62.141954)"/>
<use data-text="5" xlink:href="#font_2_4" transform="matrix(9.963098,0,0,-9.963197,12.946945,62.141954)"/>
<use data-text="1" xlink:href="#font_2_1" transform="matrix(9.963098,0,0,-9.963197,7.965683,35.241334)"/>
<use data-text="3" xlink:href="#font_2_3" transform="matrix(9.963098,0,0,-9.963197,12.94722,35.241334)"/>
<use data-text="1" xlink:href="#font_2_1" transform="matrix(9.963098,0,0,-9.963197,.2163086,8.339722)"/>
<use data-text="3" xlink:href="#font_2_3" transform="matrix(9.963098,0,0,-9.963197,5.1978456,8.339722)"/>
<use data-text="." xlink:href="#font_3_1" transform="matrix(9.963098,0,0,-9.963197,10.17981,8.339722)"/>
<use data-text="5" xlink:href="#font_2_4" transform="matrix(9.963098,0,0,-9.963197,12.946945,8.339722)"/>
<path transform="matrix(1.00005,0,0,-1.00006,23.57547,166.53421)" stroke-width=".99628" stroke-linecap="butt" stroke-miterlimit="10" stroke-linejoin="miter" fill="none" stroke="#0000ff" d="M0 40.37865 .97621 40.74019 1.95245 41.1476 2.92871 41.5986 3.90495 42.09358 4.88118 42.6299 5.85742 43.20915 6.83366 43.83203 7.80992 44.49364 8.78615 45.1965 9.76239 45.93861 10.73862 46.7218 11.71486 47.54298 12.6911 48.40036 13.66734 49.29573 14.64359 50.22638 15.61983 51.1926 16.59607 52.19266 17.57231 53.22635 18.54855 54.29112 19.5248 55.38892 20.50104 56.5169 21.47726 57.67267 22.4535 58.85617 23.42975 60.06786 24.40599 61.30403 25.38223 62.56561 26.35847 63.85016 27.33472 65.15616 28.31096 66.48433 29.2872 67.83209 30.26344 69.19695 31.23969 70.57822 32.21591 71.97717 33.19215 73.38956 34.1684 74.81477 35.14464 76.25157 36.12086 77.69794 37.09712 79.15388 38.07336 80.61794 39.0496 82.08728 40.02585 83.56087 41.00208 85.03839 41.97833 86.51724 42.95456 87.99556 43.9308 89.47404 44.90703 90.95056 45.88327 92.42328 46.85953 93.89021 47.83577 95.35094 48.812 96.80348 49.78824 98.24597 50.76448 99.6789 51.74074 101.09987 52.71695 102.507 53.69319 103.89775 54.66943 105.27376 55.64568 106.63248 56.62192 107.97212 57.59816 109.29066 58.5744 110.58897 59.55064 111.86447 60.52689 113.11641 61.50313 114.34302 62.47937 115.54277 63.4556 116.7167 64.43184 117.86244 65.40808 118.97795 66.38432 120.06187 67.36057 121.11514 68.3368 122.13489 69.31305 123.12354 70.28929 124.0748 71.26553 124.99216 72.24178 125.87259 73.21802 126.71623 74.19424 127.52193 75.17049 128.28748 76.14673 129.01526 77.12297 129.70275 78.09921 130.34999 79.07545 130.95377 80.0517 131.51581 81.02794 132.03667 82.00418 132.51543 82.98042 132.9478 83.95667 133.3371 84.93288 133.6827 85.90913 133.98384 86.88538 134.24095 87.86162 134.4511 88.83784 134.61579 89.81409 134.73558 90.79034 134.81116 91.76659 134.83893 92.74281 134.8217 93.71906 134.75807 94.6953 134.65073 95.67154 134.49709 96.64777 134.29648 97.62401 134.05234 98.60031 133.7631 99.57646 133.42995 100.55276 133.04927 101.52892 132.62657 102.50522 132.16123 103.48152 131.65175 104.45767 131.09882 105.43396 130.50417 106.41011 129.8679 107.38641 129.19188 108.36272 128.47476 109.33887 127.71732 110.31517 126.92061 111.29132 126.08809 112.26762 125.21715 113.24393 124.30753 114.22008 123.3639 115.19638 122.38576 116.17252 121.37466 117.14882 120.329 118.12512 119.25179 119.10127 118.14441 120.07758 117.00684 121.05373 115.8406 122.03003 114.64557 123.00632 113.42564 123.98247 112.18091 124.95879 110.91165 125.93494 109.61807 126.91122 108.30383 127.88751 106.97002 128.86367 105.61607 129.83997 104.24492 130.81612 102.85692 131.79244 101.45273 132.76873 100.03659 133.74488 98.60649 134.72118 97.16592 135.69733 95.71622 136.67365 94.25688 137.64992 92.79143 138.62607 91.32014 139.60237 89.84456 140.57852 88.36661 141.55483 86.8883 142.53113 85.40944 143.50728 83.93102 144.48358 82.45683 145.45973 80.98512 146.43604 79.52057 147.41233 78.06274 148.38848 76.61304 149.36478 75.17395 150.34093 73.74521 151.31723 72.33 152.29354 70.92818 153.26969 69.54266 154.24599 68.17192 155.22214 66.8204 156.19844 65.4875 157.17475 64.17574 158.15088 62.88593 159.12718 61.61812 160.10334 60.37581 161.07964 59.15819 162.05594 57.96613 163.03209 56.80275 164.00839 55.66852 164.98455 54.565 165.96085 53.49107 166.93714 52.44835 167.91329 51.44055 168.88959 50.46573 169.86574 49.5255 170.84204 48.6206 171.81833 47.75262 172.79448 46.92337 173.7708 46.13249 174.74695 45.37938 175.72325 44.66551 176.69954 43.99336 177.67569 43.3619 178.652 42.77155 179.62813 42.22334 180.60445 41.7178 181.58074 41.25723 182.55689 40.8388 183.53319 40.46484 184.50934 40.13403 185.48564 39.84967 186.46195 39.6108 187.4381 39.41492 188.4144 39.26552 189.39055 39.16168 190.36684 39.1047 191.34314 39.09224 192.31929 39.12434 193.2956 39.20332 194.27175 39.32976"/>
<use data-text="S" xlink:href="#font_1_97" transform="matrix(9.963098,0,0,-9.963197,106.04059,26.599823)" fill="#0000ff"/>
<use data-text="a" xlink:href="#font_1_28" transform="matrix(9.963098,0,0,-9.963197,111.58006,26.599823)" fill="#0000ff"/>
<use data-text="i" xlink:href="#font_1_66" transform="matrix(9.963098,0,0,-9.963197,116.5616,26.599823)" fill="#0000ff"/>
<use data-text="p" xlink:href="#font_1_84" transform="matrix(9.963098,0,0,-9.963197,119.33136,26.599823)" fill="#0000ff"/>
<use data-text="a" xlink:href="#font_1_28" transform="matrix(9.963098,0,0,-9.963197,124.870838,26.599823)" fill="#0000ff"/>
<use data-text="n" xlink:href="#font_1_77" transform="matrix(9.963098,0,0,-9.963197,129.85237,26.599823)" fill="#0000ff"/>
<path transform="matrix(1.00005,0,0,-1.00006,23.57547,166.53421)" stroke-width=".99628" stroke-linecap="butt" stroke-miterlimit="10" stroke-linejoin="miter" fill="none" stroke="#ff0000" d="M0 135.2451 .97621 134.81708 1.95245 134.34587 2.92871 133.83316 3.90495 133.27689 4.88118 132.67806 5.85742 132.03917 6.83366 131.3606 7.80992 130.63996 8.78615 129.88018 9.76239 129.08274 10.73862 128.2481 11.71486 127.37483 12.6911 126.46484 13.66734 125.52106 14.64359 124.54263 15.61983 123.52945 16.59607 122.48393 17.57231 121.40813 18.54855 120.30101 19.5248 119.16199 20.50104 117.99467 21.47726 116.80191 22.4535 115.58128 23.42975 114.3352 24.40599 113.06567 25.38223 111.77264 26.35847 110.45802 27.33472 109.12195 28.31096 107.76671 29.2872 106.39345 30.26344 105.00407 31.23969 103.59848 32.21591 102.17923 33.19215 100.74626 34.1684 99.30154 35.14464 97.84653 36.12086 96.38326 37.09712 94.91214 38.07336 93.43414 39.0496 91.9527 40.02585 90.46642 41.00208 88.9787 41.97833 87.491 42.95456 86.00374 43.9308 84.51697 44.90703 83.03407 45.88327 81.55656 46.85953 80.08546 47.83577 78.62117 48.812 77.16615 49.78824 75.72 50.76448 74.28653 51.74074 72.8653 52.71695 71.45831 53.69319 70.06886 54.66943 68.69456 55.64568 67.33746 56.62192 65.99992 57.59816 64.68338 58.5744 63.38986 59.55064 62.11682 60.52689 60.86978 61.50313 59.64764 62.47937 58.45149 63.4556 57.2832 64.43184 56.14279 65.40808 55.0332 66.38432 53.95499 67.36057 52.90602 68.3368 51.89134 69.31305 50.91043 70.28929 49.96379 71.26553 49.05084 72.24178 48.17615 73.21802 47.33855 74.19424 46.53717 75.17049 45.77501 76.14673 45.05234 77.12297 44.37183 78.09921 43.729 79.07545 43.12715 80.0517 42.56798 81.02794 42.0514 82.00418 41.57686 82.98042 41.14432 83.95667 40.75783 84.93288 40.41534 85.90913 40.11499 86.88538 39.85913 87.86162 39.65018 88.83784 39.48485 89.81409 39.36499 90.79034 39.28865 91.76659 39.25977 92.74281 39.27596 93.71906 39.3366 94.6953 39.44225 95.67154 39.59396 96.64777 39.79065 97.62401 40.03084 98.60031 40.3161 99.57646 40.64728 100.55276 41.0216 101.52892 41.43785 102.50522 41.89873 103.48152 42.40314 104.45767 42.94963 105.43396 43.53722 106.41011 44.16638 107.38641 44.83762 108.36272 45.54744 109.33887 46.29701 110.31517 47.08516 111.29132 47.91241 112.26762 48.77594 113.24393 49.67662 114.22008 50.61255 115.19638 51.58366 116.17252 52.58801 117.14882 53.62573 118.12512 54.69519 119.10127 55.79639 120.07758 56.92654 121.05373 58.08604 122.03003 59.27342 123.00632 60.48915 123.98247 61.72787 124.95879 62.9911 125.93494 64.27974 126.91122 65.58994 127.88751 66.92015 128.86367 68.27043 129.83997 69.64026 130.81612 71.02586 131.79244 72.42796 132.76873 73.84383 133.74488 75.27432 134.72118 76.71655 135.69733 78.16765 136.67365 79.6295 137.64992 81.09966 138.62607 82.57518 139.60237 84.05711 140.57852 85.54195 141.55483 87.02962 142.53113 88.51738 143.50728 90.00558 144.48358 91.49138 145.45973 92.97472 146.43604 94.45418 147.41233 95.92825 148.38848 97.39403 149.36478 98.85094 150.34093 100.29811 151.31723 101.73598 152.29354 103.15958 153.26969 104.56958 154.24599 105.96442 155.22214 107.34402 156.19844 108.7041 157.17475 110.04463 158.15088 111.36652 159.12718 112.66791 160.10334 113.9443 161.07964 115.19722 162.05594 116.4257 163.03209 117.62827 164.00839 118.80342 164.98455 119.94917 165.96085 121.06711 166.93714 122.15463 167.91329 123.2094 168.88959 124.23146 169.86574 125.22221 170.84204 126.17761 171.81833 127.09644 172.79448 127.97997 173.7708 128.82782 174.74695 129.6385 175.72325 130.40804 176.69954 131.14046 177.67569 131.8332 178.652 132.48578 179.62813 133.09488 180.60445 133.66436 181.58074 134.1928 182.55689 134.67662 183.53319 135.11696 184.50934 135.51566 185.48564 135.86937 186.46195 136.18 187.4381 136.44426 188.4144 136.66533 189.39055 136.84198 190.36684 136.97257 191.34314 137.05771 192.31929 137.0993 193.2956 137.0944 194.27175 137.04352"/>
<use data-text="E" xlink:href="#font_1_49" transform="matrix(9.963098,0,0,-9.963197,89.18275,137.46446)" fill="#ff0000"/>
<use data-text="s" xlink:href="#font_1_98" transform="matrix(9.963098,0,0,-9.963197,95.96761,137.46446)" fill="#ff0000"/>
<use data-text="p" xlink:href="#font_1_84" transform="matrix(9.963098,0,0,-9.963197,99.893077,137.46446)" fill="#ff0000"/>
<use data-text="i" xlink:href="#font_1_66" transform="matrix(9.963098,0,0,-9.963197,105.43255,137.46446)" fill="#ff0000"/>
<use data-text="r" xlink:href="#font_1_96" transform="matrix(9.963098,0,0,-9.963197,108.20229,137.46446)" fill="#ff0000"/>
<use data-text="i" xlink:href="#font_1_66" transform="matrix(9.963098,0,0,-9.963197,112.10783,137.46446)" fill="#ff0000"/>
<use data-text="t" xlink:href="#font_1_105" transform="matrix(9.963098,0,0,-9.963197,114.87757,137.46446)" fill="#ff0000"/>
<use data-text="u" xlink:href="#font_1_109" transform="matrix(9.963098,0,0,-9.963197,118.75323,137.46446)" fill="#ff0000"/>
<use data-text="S" xlink:href="#font_1_97" transform="matrix(9.963098,0,0,-9.963197,127.61042,137.46446)" fill="#ff0000"/>
<use data-text="a" xlink:href="#font_1_28" transform="matrix(9.963098,0,0,-9.963197,133.1499,137.46446)" fill="#ff0000"/>
<use data-text="n" xlink:href="#font_1_77" transform="matrix(9.963098,0,0,-9.963197,138.13144,137.46446)" fill="#ff0000"/>
<use data-text="t" xlink:href="#font_1_105" transform="matrix(9.963098,0,0,-9.963197,143.40189,137.46446)" fill="#ff0000"/>
<use data-text="o" xlink:href="#font_1_81" transform="matrix(9.963098,0,0,-9.963197,147.27756,137.46446)" fill="#ff0000"/>
<use data-text="m" xlink:href="#font_1_75" transform="matrix(9.963098,0,0,-9.963197,186.3806,162.905)"/>
<use data-text="o" xlink:href="#font_1_81" transform="matrix(9.963098,0,0,-9.963197,194.67986,162.905)"/>
<use data-text="n" xlink:href="#font_1_77" transform="matrix(9.963098,0,0,-9.963197,199.66139,162.905)"/>
<use data-text="t" xlink:href="#font_1_105" transform="matrix(9.963098,0,0,-9.963197,204.93187,162.905)"/>
<use data-text="h" xlink:href="#font_1_63" transform="matrix(9.963098,0,0,-9.963197,208.80751,162.905)"/>
<use data-text="h" xlink:href="#font_1_63" transform="matrix(9.963098,0,0,-9.963197,27.095643,15.564163)"/>
<use data-text="o" xlink:href="#font_1_81" transform="matrix(9.963098,0,0,-9.963197,32.635118,15.564163)"/>
<use data-text="u" xlink:href="#font_1_109" transform="matrix(9.963098,0,0,-9.963197,37.616655,15.564163)"/>
<use data-text="r" xlink:href="#font_1_96" transform="matrix(9.963098,0,0,-9.963197,43.156145,15.564163)"/>
<use data-text="s" xlink:href="#font_1_98" transform="matrix(9.963098,0,0,-9.963197,47.06166,15.564163)"/>
</svg>
