<svg xmlns="http://www.w3.org/2000/svg" xmlns:xlink="http://www.w3.org/1999/xlink" xmlns:inkscape="http://www.inkscape.org/namespaces/inkscape" version="1.1" width="221" height="218" viewBox="0 0 221 218">
<defs>
<path id="font_1_1" d="M.6589966 .23046875C.6759949 .23046875 .69400027 .23046875 .69400027 .25045777 .69400027 .27046205 .6759949 .27046205 .6589966 .27046205H.117996219C.100997928 .27046205 .08299255 .27046205 .08299255 .25045777 .08299255 .23046875 .100997928 .23046875 .117996219 .23046875H.6589966Z"/>
<path id="font_2_2" d="M.272995 .33428956C.35099793 .33428956 .40699769 .2803192 .40699769 .1733551 .40699769 .04940796 .33499146 .012466431 .2769928 .012466431 .23699951 .012466431 .14898682 .0234375 .10699463 .082351688 .1539917 .084350589 .16499329 .11735535 .16499329 .13835144 .16499329 .17034912 .14099121 .19335938 .10998535 .19335938 .08198547 .19335938 .053985597 .17634583 .053985597 .13534546 .053985597 .041412355 .1579895-.01953125 .2789917-.01953125 .41799928-.01953125 .5139923 .07336426 .5139923 .1733551 .5139923 .2513275 .44999696 .32929994 .33999635 .35229493 .44499208 .39024354 .48298646 .4650879 .48298646 .5260773 .48298646 .60505679 .3919983 .6640625 .2809906 .6640625 .16999817 .6640625 .084991458 .61006167 .084991458 .5300751 .084991458 .49606324 .10699463 .47706605 .13699341 .47706605 .16799927 .47706605 .18798828 .5000763 .18798828 .5280762 .18798828 .5570679 .16799927 .57806399 .13699341 .5800781 .17199707 .62405398 .24099732 .63505557 .27799989 .63505557 .32299806 .63505557 .38598634 .6130676 .38598634 .5260773 .38598634 .48406983 .37199403 .43814088 .34599305 .4072113 .31298829 .36927796 .2849884 .3672943 .23498535 .36428834 .20999146 .3623047 .20799256 .3623047 .20298767 .3612976 .20098877 .3612976 .19299317 .3592987 .19299317 .34829713 .19299317 .33428956 .20199585 .33428956 .21899414 .33428956H.272995Z"/>
<path id="font_3_1" d="M.31098939 .36265565H.42999269C.4149933 .30274964 .3929901 .2118988 .3929901 .13302613 .3929901 .09309387 .397995 .06613159 .4039917 .044174196 .41999818-.0057678224 .43299867-.009765625 .44898988-.009765625 .47200013-.009765625 .49598695 .011230469 .49598695 .035186769 .49598695 .043182374 .49398805 .047164918 .48799134 .057159425 .46899415 .09408569 .45098878 .15100098 .45098878 .23286438 .45098878 .25183106 .45098878 .29177857 .46499635 .36265565H.58999636C.60798647 .36265565 .6159973 .36265565 .6269989 .37065126 .6409912 .380661 .6439972 .39665223 .6439972 .4016571 .6439972 .43066407 .6179962 .43066407 .6009979 .43066407H.22399903C.18299866 .43066407 .15499878 .42166139 .10998535 .37965394 .083999637 .35665895 .04499817 .30274964 .04499817 .2937622 .04499817 .28178407 .057998659 .28178407 .06199646 .28178407 .07299805 .28178407 .07398987 .28378297 .07998657 .2927704 .1309967 .36265565 .19299317 .36265565 .21499634 .36265565H.27598573C.24499512 .25283814 .19099427 .13502503 .16099549 .07511902 .15499878 .062149049 .14498902 .04118347 .14199829 .03718567 .14099121 .033187868 .13899231 .029190064 .13899231 .022201539 .13899231 .006225586 .15098572-.009765625 .17399597-.009765625 .21398926-.009765625 .22499085 .035186769 .24899292 .12504578L.31098939 .36265565Z"/>
<path id="font_2_1" d="M.5049896 .18203736H.47099305C.46798707 .16001892 .45799256 .100997928 .44499208 .09098816 .43699647 .084991458 .3600006 .084991458 .34599305 .084991458H.1619873C.2669983 .17803955 .3019867 .20603943 .3619995 .25306703 .43598939 .312088 .5049896 .374115 .5049896 .46914674 .5049896 .5900879 .39898683 .6640625 .2709961 .6640625 .14698792 .6640625 .06298828 .57710269 .06298828 .4851532 .06298828 .43414308 .10598755 .42915345 .115997318 .42915345 .13999939 .42915345 .16899109 .44615174 .16899109 .48214723 .16899109 .5001526 .1619873 .53515627 .10998535 .53515627 .14099121 .6060791 .20899964 .62805178 .2559967 .62805178 .35598756 .62805178 .4079895 .5501404 .4079895 .46914674 .4079895 .38212586 .34599305 .3130951 .31399537 .27708436L.07299805 .038986207C.06298828 .02999878 .06298828 .027999878 .06298828 0H.47499085L.5049896 .18203736Z"/>
<path id="font_2_3" d="M.15499878 .5588074C.20599365 .5458069 .23599243 .5458069 .2519989 .5458069 .38398744 .5458069 .46199037 .6358032 .46199037 .6508026 .46199037 .6618042 .45498658 .6648102 .44999696 .6648102 .44799806 .6648102 .44599916 .6648102 .44198609 .6618042 .41799928 .6528015 .36499024 .6328125 .29100038 .6328125 .2630005 .6328125 .20999146 .6348114 .14498902 .6598053 .1349945 .6648102 .1329956 .6648102 .13198853 .6648102 .11898804 .6648102 .11898804 .6538086 .11898804 .6378021V.34251405C.11898804 .32548524 .11898804 .3134613 .1349945 .3134613 .14399719 .3134613 .14498902 .3154602 .15499878 .32748414 .19799805 .38259889 .25898744 .390625 .2939911 .390625 .35398866 .390625 .3809967 .34251405 .38598634 .33450318 .4039917 .30143739 .4099884 .26335145 .4099884 .20524597 .4099884 .17524719 .4099884 .116256717 .37998963 .07234192 .35499574 .03640747 .31199647 .012466431 .2630005 .012466431 .19799805 .012466431 .1309967 .04838562 .10598755 .11425781 .14399719 .11125183 .16299439 .13624573 .16299439 .16325379 .16299439 .20625305 .12599182 .21424866 .11299133 .21424866 .11099243 .21424866 .06298828 .21424866 .06298828 .1602478 .06298828 .07034302 .14498902-.01953125 .2649994-.01953125 .3929901-.01953125 .5049896 .07533264 .5049896 .20124817 .5049896 .31445313 .4189911 .41862489 .29499818 .41862489 .25099183 .41862489 .19898987 .4076233 .15499878 .36956788V.5588074Z"/>
<path id="font_2_4" d="M.5349884 .6045227C.54499819 .6165161 .54499819 .6185303 .54499819 .64453127H.2829895C.24299622 .64453127 .23199463 .6455078 .19599915 .6484375 .14399719 .65234377 .14199829 .6592407 .13899231 .676239H.10499573L.069992069 .46250917H.10398865C.10598755 .47750855 .115997318 .54351809 .13198853 .5535126 .13999939 .55952456 .22099304 .55952456 .23599243 .55952456H.45399476C.42199708 .5175171 .37098695 .45550538 .34999085 .4275055 .21899414 .25549317 .20698548 .096466068 .20698548 .037460329 .20698548 .02645874 .20698548-.01953125 .2539978-.01953125 .3019867-.01953125 .3019867 .025466919 .3019867 .038467409V.07847595C.3019867 .27249146 .34199525 .36149598 .3849945 .41551209L.5349884 .6045227Z"/>
<path id="font_4_6" d="M.2939911 .16503906V.07800293C.2939911 .041992189 .2919922 .0309906 .21798706 .0309906H.19699097V0C.23799134 .0029907227 .2899933 .0029907227 .33198548 .0029907227 .37399293 .0029907227 .4269867 .0029907227 .46798707 0V.0309906H.44699098C.37298585 .0309906 .37098695 .041992189 .37098695 .07800293V.16503906H.47099305V.19602967H.37098695V.65075686C.37098695 .67074587 .37098695 .6767578 .35499574 .6767578 .34599305 .6767578 .34298707 .6767578 .33499146 .66474917L.027999878 .19602967V.16503906H.2939911M.2999878 .19602967H.055999757L.2999878 .5688019V.19602967Z"/>
<path id="font_4_4" d="M.1269989 .07699585 .23298645 .18003845C.3889923 .31811524 .44898988 .3721466 .44898988 .47216798 .44898988 .5860901 .35899354 .6660156 .23699951 .6660156 .12399292 .6660156 .049987794 .57411196 .049987794 .48516847 .049987794 .4291687 .099990848 .4291687 .102996829 .4291687 .11999512 .4291687 .15499878 .44117738 .15499878 .48217774 .15499878 .5081787 .13699341 .5341797 .101989749 .5341797 .09399414 .5341797 .09199524 .5341797 .08898926 .5331726 .11199951 .59806826 .1659851 .63500979 .22399903 .63500979 .31498719 .63500979 .35798646 .5541382 .35798646 .47216798 .35798646 .39215089 .30799867 .31311036 .25299073 .25108338L.06098938 .036987306C.049987794 .025985718 .049987794 .023986817 .049987794 0H.42099L.44898988 .17404175H.42399598C.4189911 .14402771 .4119873 .1000061 .4019928 .084991458 .394989 .07699585 .32899476 .07699585 .30699159 .07699585H.1269989Z"/>
<path id="font_5_3" d="M.48599244 .38136292C.48999024 .39537049 .48999024 .39736939 .48999024 .40437318 .48999024 .42237855 .47599793 .43138124 .46099855 .43138124 .45098878 .43138124 .43499757 .42536927 .42599488 .41036988 .42399598 .405365 .41600038 .37435914 .4119873 .35635377 .40499879 .33035279 .397995 .30334474 .3919983 .27633668L.34700013 .09628296C.34298707 .08126831 .2999878 .011245728 .23399353 .011245728 .18299866 .011245728 .17199707 .055267335 .17199707 .0922699 .17199707 .1382904 .18899536 .20030213 .22299195 .28833009 .23899842 .3293457 .24299622 .3403473 .24299622 .36035157 .24299622 .405365 .21099854 .4423828 .16099549 .4423828 .06599426 .4423828 .0289917 .29733277 .0289917 .28833009 .0289917 .27833558 .038986207 .27833558 .040985109 .27833558 .050994874 .27833558 .051986696 .28033448 .056991579 .29634095 .083999637 .3903656 .12399292 .42037965 .1579895 .42037965 .1659851 .42037965 .18299866 .42037965 .18299866 .3883667 .18299866 .36335755 .17298889 .3373413 .1659851 .31834413 .12599182 .21231079 .10798645 .1552887 .10798645 .10827637 .10798645 .019256592 .17098999-.0107421879 .22999573-.0107421879 .2689972-.0107421879 .30299378 .0062561037 .33099366 .03425598 .31799317-.017745972 .30599977-.06674194 .2659912-.11973572 .23999024-.15385437 .20199585-.18309021 .1559906-.18309021 .14199829-.18309021 .09700012-.18005371 .07998657-.14074707 .09599304-.14074707 .10899353-.14074707 .12298584-.1287384 .1329956-.11973572 .14299011-.10673523 .14299011-.08773804 .14299011-.056747438 .115997318-.052734376 .10598755-.052734376 .08299255-.052734376 .049987794-.068740848 .049987794-.11773682 .049987794-.16796875 .09399414-.20507813 .1559906-.20507813 .25898744-.20507813 .3619995-.11373901 .3899994-.00074768069L.48599244 .38136292Z"/>
<path id="font_4_7" d="M.68699648 .32714845C.70199587 .32714845 .72099307 .32714845 .72099307 .34713746 .72099307 .36714173 .70199587 .36714173 .6879883 .36714173H.08898926C.07499695 .36714173 .055999757 .36714173 .055999757 .34713746 .055999757 .32714845 .07499695 .32714845 .08999634 .32714845H.68699648M.6879883 .13284302C.70199587 .13284302 .72099307 .13284302 .72099307 .15284729 .72099307 .17285156 .70199587 .17285156 .68699648 .17285156H.08999634C.07499695 .17285156 .055999757 .17285156 .055999757 .15284729 .055999757 .13284302 .07499695 .13284302 .08898926 .13284302H.6879883Z"/>
<path id="font_4_11" d="M.20799256 .19424439C.22999573 .19024658 .31199647 .17424011 .31199647 .102249149 .31199647 .051254274 .2769928 .011245728 .19898987 .011245728 .114990238 .011245728 .07899475 .06825256 .05999756 .15324402 .056991579 .1662445 .055999757 .17024231 .04598999 .17024231 .032989503 .17024231 .032989503 .16323853 .032989503 .14524842V.013244629C.032989503-.003753662 .032989503-.0107421879 .04399109-.0107421879 .04899597-.0107421879 .049987794-.009750366 .068984989 .009246826 .070999149 .011245728 .070999149 .013244629 .08898926 .03224182 .1329956-.009750366 .17799378-.0107421879 .19898987-.0107421879 .31399537-.0107421879 .3600006 .056243898 .3600006 .12825012 .3600006 .1812439 .32998658 .21124268 .31799317 .22323609 .2849884 .25523377 .24598694 .26324464 .20399475 .27124024 .147995 .28224183 .08099365 .2952423 .08099365 .35324098 .08099365 .38822938 .10699463 .42922975 .19299317 .42922975 .30299378 .42922975 .30799867 .3392334 .30999757 .3082428 .31098939 .2992401 .31999208 .2992401 .32199098 .2992401 .33499146 .2992401 .33499146 .304245 .33499146 .3232422V.4242401C.33499146 .4412384 .33499146 .4482422 .32398988 .4482422 .31900025 .4482422 .31698609 .4482422 .3039856 .43623353 .30099488 .43223573 .29100038 .42323304 .2869873 .42022706 .24899292 .4482422 .20799256 .4482422 .19299317 .4482422 .070999149 .4482422 .032989503 .38124085 .032989503 .3252411 .032989503 .29023744 .04899597 .26223756 .07598877 .24023438 .10798645 .21424866 .13598633 .2082367 .20799256 .19424439Z"/>
<path id="font_4_9" d="M.1769867 .4423828 .036987306 .43138124V.40037538C.101989749 .40037538 .11099243 .3943634 .11099243 .34532167V.076034549C.11099243 .0309906 .099990848 .0309906 .032989503 .0309906V0C.06498718 .0009918213 .11898804 .0029907227 .14299011 .0029907227 .17799378 .0029907227 .21299744 .0009918213 .24699402 0V.0309906C.18099976 .0309906 .1769867 .035995485 .1769867 .075042728V.4423828M.18099976 .6159363C.18099976 .64793398 .1559906 .6689453 .12799073 .6689453 .09700012 .6689453 .07499695 .64193728 .07499695 .6159363 .07499695 .5889435 .09700012 .5629425 .12799073 .5629425 .1559906 .5629425 .18099976 .5839386 .18099976 .6159363Z"/>
<path id="font_4_10" d="M.10998535 .34429933V.076034549C.10998535 .0309906 .09899902 .0309906 .03199768 .0309906V0C.066986087 .0009918213 .117996219 .0029907227 .14498902 .0029907227 .17098999 .0029907227 .22299195 .0009918213 .25698854 0V.0309906C.18998719 .0309906 .1789856 .0309906 .1789856 .076034549V.2602234C.1789856 .36431886 .25 .42037965 .31399537 .42037965 .3769989 .42037965 .3880005 .36631776 .3880005 .30926515V.076034549C.3880005 .0309906 .3769989 .0309906 .30999757 .0309906V0C.34498597 .0009918213 .3959961 .0029907227 .4229889 .0029907227 .44898988 .0029907227 .5009918 .0009918213 .5349884 0V.0309906C.48298646 .0309906 .45799256 .0309906 .45700074 .061019899V.25221253C.45700074 .3383026 .45700074 .36932374 .42599488 .405365 .4119873 .42237855 .3789978 .4423828 .32099916 .4423828 .24798584 .4423828 .20098877 .39935304 .17298889 .33729554V.4423828L.03199768 .43138124V.40037538C.101989749 .4003601 .10998535 .39335633 .10998535 .34429933Z"/>
<path id="font_4_1" d="M.33099366-.2400055C.33099366-.23701477 .33099366-.23500061 .31399537-.21800232 .18899536-.0920105 .15699768 .09700012 .15699768 .25 .15699768 .42399598 .19499207 .59799197 .31799317 .72299197 .33099366 .73498538 .33099366 .7369995 .33099366 .73999026 .33099366 .746994 .32699586 .75 .32099916 .75 .31098939 .75 .22099304 .6819916 .1619873 .5549927 .11099243 .44499208 .09899902 .33399964 .09899902 .25 .09899902 .17199707 .10998535 .050994874 .16499329-.06201172 .22499085-.18501282 .31098939-.25 .32099916-.25 .32699586-.25 .33099366-.24700928 .33099366-.2400055Z"/>
<path id="font_5_2" d="M.33399964 .30233766C.33999635 .32835389 .36299134 .42037965 .43299867 .42037965 .43798829 .42037965 .46199037 .42037965 .48298646 .40734864 .45498658 .402359 .43499757 .37734986 .43499757 .35334779 .43499757 .33735658 .44599916 .31835938 .47299195 .31835938 .49499513 .31835938 .5269928 .3363495 .5269928 .37635804 .5269928 .42837525 .46798707 .4423828 .43399049 .4423828 .37599183 .4423828 .34098817 .38935853 .32899476 .36634828 .3039856 .43237306 .25 .4423828 .22099304 .4423828 .116989139 .4423828 .05999756 .3133545 .05999756 .28834535 .05999756 .27833558 .069992069 .27833558 .07199097 .27833558 .07998657 .27833558 .08299255 .28033448 .084991458 .28933717 .11898804 .39535523 .18499756 .42037965 .21899414 .42037965 .23799134 .42037965 .272995 .4113617 .272995 .35334779 .272995 .32235719 .2559967 .25532533 .21899414 .11528015 .20298767 .053268434 .16799927 .011245728 .12399292 .011245728 .117996219 .011245728 .09498596 .011245728 .07398987 .024276734 .09899902 .029266358 .12098694 .05027771 .12098694 .07827759 .12098694 .105270389 .09899902 .11328125 .083999637 .11328125 .053985597 .11328125 .0289917 .08728027 .0289917 .055267335 .0289917 .009246826 .07899475-.0107421879 .12298584-.0107421879 .18899536-.0107421879 .22499085 .059280397 .22799683 .0652771 .23999024 .028274537 .27598573-.0107421879 .33599855-.0107421879 .43899537-.0107421879 .49598695 .118270877 .49598695 .14328003 .49598695 .1532898 .4869995 .1532898 .48399354 .1532898 .47499085 .1532898 .47299195 .14929199 .47099305 .14228821 .43798829 .03527832 .36999513 .011245728 .33799745 .011245728 .29899598 .011245728 .2829895 .043273927 .2829895 .07727051 .2829895 .09927368 .2889862 .121276859 .2999878 .16529846L.33399964 .30233766Z"/>
<path id="font_4_2" d="M.2889862 .25C.2889862 .32798768 .27799989 .44898988 .22299195 .56199648 .16299439 .68499758 .07699585 .75 .066986087 .75 .06098938 .75 .056991579 .74598696 .056991579 .73999026 .056991579 .7369995 .056991579 .73498538 .07598877 .71699526 .17399597 .6179962 .23098755 .45899964 .23098755 .25 .23098755 .07899475 .19400025-.09700012 .069992069-.2230072 .056991579-.23500061 .056991579-.23701477 .056991579-.2400055 .056991579-.2460022 .06098938-.25 .066986087-.25 .07699585-.25 .16699219-.18200684 .22599793-.055007936 .2769928 .054992677 .2889862 .16600037 .2889862 .25Z"/>
<path id="font_4_8" d="M.116989139 .21801758C.116989139 .38093568 .19898987 .42323304 .2519989 .42323304 .26098634 .42323304 .32398988 .42222596 .35899354 .38594056 .31799317 .38293458 .31199647 .3529358 .31199647 .3399353 .31199647 .31393434 .32998658 .2939453 .35798646 .2939453 .38398744 .2939453 .4039917 .3109436 .4039917 .34094239 .4039917 .40911866 .32798768 .4482422 .25099183 .4482422 .12599182 .4482422 .033996583 .3399353 .033996583 .21601868 .033996583 .08816528 .1329956-.0107421879 .24899292-.0107421879 .3829956-.0107421879 .4149933 .10914612 .4149933 .119140628 .4149933 .12911988 .40499879 .12911988 .4019928 .12911988 .3929901 .12911988 .3909912 .12512207 .3889923 .119140628 .3600006 .026229859 .29499818 .014251709 .2579956 .014251709 .20498657 .014251709 .116989139 .0572052 .116989139 .21801758Z"/>
<path id="font_5_1" d="M.2649994 .37265016H.37799073C.34498597 .22489929 .33599855 .18196106 .33599855 .11508179 .33599855 .100097659 .33599855 .073150638 .34399415 .03919983 .35398866-.0047454836 .36499024-.0107421879 .37998963-.0107421879 .3999939-.0107421879 .42099 .007247925 .42099 .02722168 .42099 .033218385 .42099 .035202028 .4149933 .049179079 .38598634 .12106323 .38598634 .18595886 .38598634 .21391297 .38598634 .26683045 .3929901 .32073976 .4039917 .37265016H.5179901C.5309906 .37265016 .5669861 .37265016 .5669861 .406662 .5669861 .43066407 .54599 .43066407 .5269928 .43066407H.19198609C.16999817 .43066407 .13198853 .43066407 .08799744 .38365174 .052993776 .34469605 .026992798 .29878236 .026992798 .29379273 .026992798 .29278565 .026992798 .28379823 .038986207 .28379823 .04699707 .28379823 .04899597 .28779603 .054992677 .29577638 .10398865 .37265016 .1619873 .37265016 .18199158 .37265016H.23899842C.20698548 .25186158 .15299988 .13105774 .11099243 .04020691 .102996829 .025222779 .102996829 .023223877 .102996829 .016235352 .102996829-.002746582 .11898804-.0107421879 .13198853-.0107421879 .1619873-.0107421879 .16999817 .017242432 .18199158 .05418396 .19599915 .100097659 .19599915 .10209656 .20899964 .15202332L.2649994 .37265016Z"/>
<path id="font_4_3" d="M.45999146 .31976319C.45999146 .39982606 .45498658 .47988893 .41999818 .5539398 .37399293 .65000918 .2919922 .6660156 .25 .6660156 .18998719 .6660156 .116989139 .64001467 .07598877 .54693606 .04399109 .47789 .038986207 .39982606 .038986207 .31976319 .038986207 .24472046 .042999269 .15464783 .083999637 .07859802 .1269989-.0024719239 .19999695-.022460938 .24899292-.022460938 .30299378-.022460938 .3789978-.0014648438 .4229889 .09359741 .45498658 .16265869 .45999146 .2407074 .45999146 .31976319M.24899292-.00047302247C.20999146-.00047302247 .15098572 .024551392 .1329956 .12062073 .12199402 .18066406 .12199402 .2727356 .12199402 .3317871 .12199402 .39582826 .12199402 .46188355 .12998963 .5159149 .14898682 .63500979 .22399903 .64401248 .24899292 .64401248 .28199769 .64401248 .34799195 .6259918 .36698915 .52693179 .3769989 .47088624 .3769989 .39482118 .3769989 .3317871 .3769989 .25672914 .3769989 .18867493 .3659973 .12461853 .35099793 .029556275 .2939911-.00047302247 .24899292-.00047302247Z"/>
<path id="font_4_5" d="M.2899933 .35191346C.37199403 .37893678 .42999269 .4490509 .42999269 .52809146 .42999269 .6100464 .34199525 .6660156 .24598694 .6660156 .14498902 .6660156 .068984989 .60606387 .068984989 .53009036 .068984989 .49710084 .09098816 .47808839 .11999512 .47808839 .15098572 .47808839 .17098999 .50009158 .17098999 .5290985 .17098999 .57910159 .12399292 .57910159 .10899353 .57910159 .13999939 .62802127 .20599365 .64100649 .24198914 .64100649 .2829895 .64100649 .33799745 .6190338 .33799745 .5290985 .33799745 .51708987 .33599855 .45906068 .30999757 .4149933 .27999879 .36691285 .24598694 .36390687 .22099304 .36291505 .21299744 .36190797 .18899536 .35990907 .18199158 .35990907 .17399597 .35890199 .16699219 .35791017 .16699219 .3479004 .16699219 .33691407 .17399597 .33691407 .19099427 .33691407H.23498535C.31698609 .33691407 .35398866 .2686615 .35398866 .17037964 .35398866 .034469606 .2849884 .0055389406 .24099732 .0055389406 .19799805 .0055389406 .12298584 .022491456 .08799744 .08137512 .12298584 .07637024 .1539917 .09837341 .1539917 .1363678 .1539917 .17237854 .1269989 .19238281 .09799194 .19238281 .07398987 .19238281 .041992189 .17837525 .041992189 .1343689 .041992189 .043441774 .1349945-.022460938 .24398804-.022460938 .3659973-.022460938 .45700074 .06838989 .45700074 .17037964 .45700074 .252594 .3939972 .33088685 .2899933 .35191346Z"/>
</defs>
<path transform="matrix(1.00003,0,0,-1,15.196022,203.143)" stroke-width=".19925" stroke-linecap="butt" stroke-miterlimit="10" stroke-linejoin="miter" fill="none" stroke="#7f807f" d="M20.26724 92.35011V96.60194M51.01465 92.35011V96.60194M81.76208 92.35011V96.60194M112.5095 92.35011V96.60194M143.25695 92.35011V96.60194M174.00437 92.35011V96.60194"/>
<path transform="matrix(1.00003,0,0,-1,15.196022,203.143)" stroke-width=".19925" stroke-linecap="butt" stroke-miterlimit="10" stroke-linejoin="miter" fill="none" stroke="#7f807f" d="M64.26244 19.40865H68.51411M64.26244 56.94234H68.51411M64.26244 132.0097H68.51411M64.26244 169.54338H68.51411"/>
<path transform="matrix(1.00003,0,0,-1,15.196022,203.143)" stroke-width=".3985" stroke-linecap="butt" stroke-miterlimit="10" stroke-linejoin="miter" fill="none" stroke="#000000" d="M0 94.47601H192.27873"/>
<path transform="matrix(1.00003,0,0,-1,207.48053,108.66699)" d="M1.99252 0-1.19551 1.59401 0 0-1.19551-1.59401"/>
<path transform="matrix(1.00003,0,0,-1,15.196022,203.143)" stroke-width=".3985" stroke-linecap="butt" stroke-miterlimit="10" stroke-linejoin="miter" fill="none" stroke="#000000" d="M66.38828 13.7786V173.18091"/>
<path transform="matrix(0,-1,-1.00003,-0,81.586299,29.962098)" d="M1.99252 0-1.19551 1.59401 0 0-1.19551-1.59401"/>
<use data-text="&#x2212;" xlink:href="#font_1_1" transform="matrix(9.962899,0,0,-9.9626,25.953347,122.73)"/>
<use data-text="3" xlink:href="#font_2_2" transform="matrix(6.9740097,0,0,-6.9738,34.898614,118.80801)"/>
<use data-text="&#x03c0;" xlink:href="#font_3_1" transform="matrix(6.9740097,0,0,-6.9738,38.869737,118.80801)"/>
<path transform="matrix(1.00003,0,0,-1,-91.54419,-37.432)" stroke-width=".3985" stroke-linecap="butt" stroke-miterlimit="10" stroke-linejoin="miter" fill="none" stroke="#000000" d="M126.439-157.672H135.319"/>
<use data-text="2" xlink:href="#font_2_1" transform="matrix(6.9740097,0,0,-6.9738,37.35269,126.16601)"/>
<use data-text="&#x2212;" xlink:href="#font_1_1" transform="matrix(9.962899,0,0,-9.9626,58.68733,121.23801)"/>
<use data-text="&#x03c0;" xlink:href="#font_3_1" transform="matrix(6.9740097,0,0,-6.9738,67.6326,117.31601)"/>
<path transform="matrix(1.00003,0,0,-1,-58.810209,-38.923997)" stroke-width=".3985" stroke-linecap="butt" stroke-miterlimit="10" stroke-linejoin="miter" fill="none" stroke="#000000" d="M126.439-157.672H131.348"/>
<use data-text="2" xlink:href="#font_2_1" transform="matrix(6.9740097,0,0,-6.9738,68.10161,124.67401)"/>
<use data-text="&#x03c0;" xlink:href="#font_3_1" transform="matrix(6.9740097,0,0,-6.9738,94.5064,117.31601)"/>
<path transform="matrix(1.00003,0,0,-1,-24.187165,-38.923997)" stroke-width=".3985" stroke-linecap="butt" stroke-miterlimit="10" stroke-linejoin="miter" fill="none" stroke="#000000" d="M118.69-157.672H123.599"/>
<use data-text="2" xlink:href="#font_2_1" transform="matrix(6.9740097,0,0,-6.9738,94.97541,124.67401)"/>
<use data-text="3" xlink:href="#font_2_2" transform="matrix(6.9740097,0,0,-6.9738,123.269268,118.80801)"/>
<use data-text="&#x03c0;" xlink:href="#font_3_1" transform="matrix(6.9740097,0,0,-6.9738,127.24039,118.80801)"/>
<path transform="matrix(1.00003,0,0,-1,4.575699,-37.432)" stroke-width=".3985" stroke-linecap="butt" stroke-miterlimit="10" stroke-linejoin="miter" fill="none" stroke="#000000" d="M118.69-157.672H127.57"/>
<use data-text="2" xlink:href="#font_2_1" transform="matrix(6.9740097,0,0,-6.9738,125.723339,126.16601)"/>
<use data-text="5" xlink:href="#font_2_3" transform="matrix(6.9740097,0,0,-6.9738,154.01718,118.80801)"/>
<use data-text="&#x03c0;" xlink:href="#font_3_1" transform="matrix(6.9740097,0,0,-6.9738,157.98831,118.80801)"/>
<path transform="matrix(1.00003,0,0,-1,35.323625,-37.432)" stroke-width=".3985" stroke-linecap="butt" stroke-miterlimit="10" stroke-linejoin="miter" fill="none" stroke="#000000" d="M118.69-157.672H127.57"/>
<use data-text="2" xlink:href="#font_2_1" transform="matrix(6.9740097,0,0,-6.9738,156.47126,126.16601)"/>
<use data-text="7" xlink:href="#font_2_4" transform="matrix(6.9740097,0,0,-6.9738,184.76612,118.80801)"/>
<use data-text="&#x03c0;" xlink:href="#font_3_1" transform="matrix(6.9740097,0,0,-6.9738,188.73723,118.80801)"/>
<path transform="matrix(1.00003,0,0,-1,66.07254,-37.432)" stroke-width=".3985" stroke-linecap="butt" stroke-miterlimit="10" stroke-linejoin="miter" fill="none" stroke="#000000" d="M118.69-157.672H127.57"/>
<use data-text="2" xlink:href="#font_2_1" transform="matrix(6.9740097,0,0,-6.9738,187.22019,126.16601)"/>
<use data-text="&#x2212;" xlink:href="#font_1_1" transform="matrix(9.962899,0,0,-9.9626,63.209466,186.529)"/>
<use data-text="4" xlink:href="#font_4_6" transform="matrix(9.962899,0,0,-9.9626,70.958698,186.529)"/>
<use data-text="&#x2212;" xlink:href="#font_1_1" transform="matrix(9.962899,0,0,-9.9626,63.209466,148.996)"/>
<use data-text="2" xlink:href="#font_4_4" transform="matrix(9.962899,0,0,-9.9626,70.958698,148.996)"/>
<use data-text="2" xlink:href="#font_4_4" transform="matrix(9.962899,0,0,-9.9626,70.958698,74.34401)"/>
<use data-text="4" xlink:href="#font_4_6" transform="matrix(9.962899,0,0,-9.9626,70.958698,36.810014)"/>
<path transform="matrix(1.00003,0,0,-1,15.196022,203.143)" stroke-width=".99628" stroke-linecap="butt" stroke-miterlimit="10" stroke-linejoin="miter" fill="none" stroke="#ff0000" d="M4.28468 93.30319 3.88287 92.54172 4.8296 94.35347 5.77635 96.16615 6.72307 97.96327 7.6698 99.72792 8.61653 101.4434 9.56326 103.09377 10.51 104.66379 11.45674 106.13774 12.40347 107.5036 13.3502 108.74709 14.29694 109.8579 15.24367 110.8238 16.1904 111.63754 17.13713 112.29045 18.08386 112.77689 19.03061 113.09254 19.97734 113.23367 20.92407 113.19989 21.87079 112.99065 22.81754 112.60892 23.76427 112.05643 24.711 111.34085 25.65773 110.46669 26.60448 109.44408 27.55121 108.28035 28.49794 106.98825 29.44466 105.57867 30.39139 104.0657 31.33813 102.46281 32.28488 100.78543 33.2316 99.04893 34.17833 97.26965 35.12506 95.46446 36.07181 93.65047 37.01852 91.8436 37.96526 90.0615 38.91199 88.32013 39.85875 86.63673 40.80547 85.02672 41.7522 83.50493 42.69893 82.08578 43.64568 80.78223 44.59239 79.60744 45.53912 78.57057 46.48587 77.68364 47.4326 76.9523 48.37933 76.38611 49.32607 75.98805 50.2728 75.76416 51.21953 75.71405 52.16624 75.83978 53.11299 76.1395 54.05974 76.61093 55.00647 77.24956 55.95319 78.04865 56.89993 79.00201 57.84666 80.0993 58.7934 81.33173 59.74011 82.68669 60.68686 84.1522 61.6336 85.71397 62.58034 87.35777 63.52705 89.0678 64.47379 90.82887 65.42053 92.62373 66.36726 94.43585 67.314 96.24799 68.26073 98.04434 69.20746 99.80695 70.15419 101.51997 71.10092 103.16676 72.04765 104.73247 72.99438 106.20248 73.9411 107.5627 74.88786 108.80038 75.8346 109.90425 76.78133 110.86417 77.72804 111.6702 78.67479 112.31673 79.62152 112.79472 80.56825 113.10304 81.51498 113.23593 82.46172 113.19408 83.40846 112.97713 84.3552 112.58716 85.30191 112.02791 86.24864 111.30444 87.19539 110.42407 88.14212 109.3936 89.08885 108.22461 90.03558 106.9267 90.98232 105.51262 91.92906 103.99493 92.87578 102.38849 93.82251 100.70773 94.76924 98.969 95.716 97.1884 96.66272 95.38208 97.60945 93.5679 98.55624 91.76196 99.50288 89.98137 100.44966 88.24225 101.39632 86.56204 102.34311 84.95561 103.28992 83.43793 104.23656 82.0246 105.18335 80.72612 106.12999 79.55733 107.07678 78.52759 108.02356 77.64667 108.97021 76.92358 109.91702 76.36433 110.86366 75.97453 111.81044 75.7576 112.75723 75.71631 113.70389 75.84898 114.65068 76.15771 115.5973 76.63588 116.5441 77.2824 117.4909 78.08882 118.43756 79.04875 119.38434 80.1526 120.33098 81.39084 121.27779 82.75107 122.22456 84.22089 123.1712 85.78679 124.11801 87.43358 125.06467 89.14679 126.01146 90.9094 126.95824 92.70613 127.90488 94.51787 128.85167 96.33018 129.79833 98.12486 130.7451 99.88594 131.69191 101.59616 132.63855 103.23976 133.58533 104.80135 134.53199 106.26685 135.47878 107.62126 136.42557 108.85387 137.37221 109.95116 138.319 110.90414 139.26566 111.70305 140.21245 112.34206 141.15923 112.81273 142.10587 113.11263 143.05266 113.23798 143.99932 113.18787 144.94609 112.96361 145.8929 112.565 146.83954 111.99901 147.78635 111.26747 148.73299 110.38074 149.67977 109.34349 150.62656 108.16832 151.57321 106.86476 152.52 105.44562 153.46665 103.92381 154.41344 102.31363 155.36023 100.63023 156.30687 98.88904 157.25366 97.10677 158.2003 95.29988 159.1471 93.48589 160.09389 91.68051 161.04055 89.90178 161.98734 88.16492 162.93398 86.48773 163.88076 84.88466 164.82755 83.37187 165.7742 81.96268 166.72101 80.67056 167.66764 79.50722 168.61443 78.48424 169.56122 77.61008 170.50788 76.89468 171.45465 76.34256 172.40129 75.96123 173.3481 75.75215 174.2949 75.71837 175.24153 75.85988 176.18833 76.17572 177.13498 76.66216 178.08177 77.31543 179.02855 78.12955 179.97519 79.09547 180.922 80.2059 181.86865 81.44922 182.81543 82.81543 183.76222 84.28995 184.70886 85.86015 185.65566 87.51033 186.6023 89.226 187.5491 90.99046 188.4959 92.78757 189.44254 94.60027 190.38932 96.412 189.98743 95.65054"/>
<path transform="matrix(-.466764,.88434,.8843666,.46675,19.480832,109.839809)" d="M2.8892 0-1.73352 2.31136 0 0-1.73352-2.31136" fill="#ff0000"/>
<path transform="matrix(.466764,-.88434,-.8843666,-.46675,205.18915,107.49248)" d="M2.8892 0-1.73352 2.31136 0 0-1.73352-2.31136" fill="#ff0000"/>
<use data-text="y" xlink:href="#font_5_3" transform="matrix(9.962899,0,0,-9.9626,173.47177,96.41501)" fill="#ff0000"/>
<use data-text="=" xlink:href="#font_4_7" transform="matrix(9.962899,0,0,-9.9626,181.48203,96.41501)" fill="#ff0000"/>
<use data-text="s" xlink:href="#font_4_11" transform="matrix(9.962899,0,0,-9.9626,191.98293,96.41501)" fill="#ff0000"/>
<use data-text="i" xlink:href="#font_4_9" transform="matrix(9.962899,0,0,-9.9626,195.9083,96.41501)" fill="#ff0000"/>
<use data-text="n" xlink:href="#font_4_10" transform="matrix(9.962899,0,0,-9.9626,198.66803,96.41501)" fill="#ff0000"/>
<use data-text="(" xlink:href="#font_4_1" transform="matrix(9.962899,0,0,-9.9626,204.19744,96.41501)" fill="#ff0000"/>
<use data-text="x" xlink:href="#font_5_2" transform="matrix(9.962899,0,0,-9.9626,208.10482,96.41501)" fill="#ff0000"/>
<use data-text=")" xlink:href="#font_4_2" transform="matrix(9.962899,0,0,-9.9626,213.799,96.41501)" fill="#ff0000"/>
<path transform="matrix(1.00003,0,0,-1,15.196022,203.143)" stroke-width=".99628" stroke-linecap="butt" stroke-miterlimit="10" stroke-linejoin="miter" fill="none" stroke="#0000ff" d="M6.91583 186.05812 6.98586 182.94292 7.1207 177.67131 7.25552 173.00775 7.39037 168.85277 7.52519 165.12567 7.66003 161.76453 7.79488 158.7243 7.92972 155.95619 8.06453 153.4283 8.19937 151.11248 8.33421 148.97493 8.46906 147.00817 8.6039 145.18967 8.73874 143.49877 8.87357 141.9261 9.0084 140.45667 9.14323 139.08856 9.27808 137.8049 9.41292 136.60196 9.54776 135.4703 9.68259 134.40624 9.81743 133.40033 9.95227 132.45636 10.08711 131.5593 10.22194 130.71105 10.35678 129.9097 10.49161 129.14777 10.62645 128.42711 10.76129 127.7365 10.89613 127.08154 11.03098 126.46036 11.16582 125.86732 11.30063 125.30057 11.43547 124.75821 11.57031 124.24399 11.70515 123.74854 11.84 123.2775 11.97484 122.82521 12.10966 122.39359 12.2445 121.97507 12.37933 121.57909 12.51418 121.2 12.64902 120.83217 12.78384 120.48312 12.91869 120.1453 13.05353 119.82253 13.18837 119.51099 13.3232 119.21446 13.45802 118.92546 13.59285 118.6496 13.72769 118.38498 13.86253 118.12975 13.99738 117.88579 14.13222 117.64745 14.26706 117.42224 14.40189 117.20454 14.53671 116.99623 14.67155 116.79167 14.8064 116.5965 14.94124 116.4107 15.07608 116.2343 15.2109 116.06165 15.34575 115.8965 15.48059 115.7351 15.61542 115.5831 15.75026 115.43858 15.8851 115.29784 16.01993 115.15897 16.15477 115.03134 16.28961 114.90747 16.42445 114.79114 16.5593 114.67665 16.69412 114.5678 16.82895 114.4627 16.96379 114.367 17.09863 114.27129 17.23347 114.18309 17.36832 114.09676 17.50316 114.01982 17.63799 113.94287 17.77283 113.87155 17.90765 113.80211 18.0425 113.74019 18.17734 113.68013 18.31216 113.6257 18.447 113.57317 18.58185 113.52437 18.71669 113.48122 18.85153 113.44179 18.98636 113.40425 19.12119 113.37424 19.25601 113.34421 19.39085 113.31793 19.5257 113.29916 19.66054 113.2804 19.79538 113.2635 19.93022 113.25601 20.06503 113.24661 20.19987 113.24286H20.33472L20.46956 113.24661 20.60439 113.25601 20.73924 113.2635 20.87407 113.2804 21.00891 113.29916 21.14374 113.31793 21.27856 113.34421 21.41342 113.37424 21.54825 113.40425 21.68309 113.44179 21.81795 113.48122 21.95277 113.52437 22.08762 113.57317 22.22243 113.6257 22.35727 113.68013 22.49213 113.74019 22.62695 113.80211 22.7618 113.87155 22.89662 113.94287 23.03148 114.01982 23.16632 114.09676 23.30113 114.18309 23.43597 114.27129 23.5708 114.367 23.70566 114.4627 23.8405 114.5678 23.97533 114.67665 24.11018 114.79114 24.24501 114.90747 24.37984 115.03134 24.51468 115.15897 24.6495 115.29784 24.78436 115.43858 24.91917 115.5831 25.05402 115.7351 25.18886 115.8965 25.32368 116.06165 25.45853 116.2343 25.59335 116.41446 25.7282 116.5965 25.86305 116.79167 25.99786 116.99623 26.13272 117.20454 26.26755 117.42224 26.40239 117.64745 26.53723 117.88579 26.67206 118.12975 26.8069 118.38686 26.94173 118.6496 27.07658 118.92921 27.21143 119.21446 27.34625 119.51099 27.4811 119.8244 27.61592 120.1453 27.75076 120.48312 27.8856 120.83592 28.02043 121.2 28.15527 121.57909 28.2901 121.97882 28.42496 122.39359 28.5598 122.82521 28.69463 123.2775 28.82945 123.74854 28.96428 124.24399 29.09914 124.76196 29.23398 125.30057 29.3688 125.86732 29.50366 126.46036 29.63849 127.0834 29.77333 127.7365 29.90816 128.42711 30.04298 129.14777 30.17784 129.9097 30.31267 130.7148 30.44751 131.56305 30.58237 132.45636 30.71718 133.40409 30.85202 134.40248 30.98683 135.4703 31.12167 136.60196 31.25653 137.80867 31.39136 139.09044 31.5262 140.45667 31.66103 141.9261 31.79587 143.50064 31.93073 145.19342 32.06554 147.01194 32.20038 148.97869 32.3352 151.11248 32.47006 153.4283 32.6049 155.95619 32.73973 158.7243 32.87457 161.77017 33.0094 165.13318 33.14424 168.85277 33.27908 173.01337 33.41391 177.67694 33.54877 182.94292 33.61884 186.06374"/>
<path transform="matrix(-.022430676,-.9997,-.99973008,.02243,22.11206,17.0849)" d="M2.8892 0-1.73352 2.31136 0 0-1.73352-2.31136" fill="#0000ff"/>
<path transform="matrix(.022420675,-.9997,-.99973008,-.02242,48.815874,17.079285)" d="M2.8892 0-1.73352 2.31136 0 0-1.73352-2.31136" fill="#0000ff"/>
<path transform="matrix(1.00003,0,0,-1,15.196022,203.143)" stroke-width=".99628" stroke-linecap="butt" stroke-miterlimit="10" stroke-linejoin="miter" fill="none" stroke="#0000ff" d="M37.66307 2.8883 37.7332 6.01476 37.86803 11.28073 38.00287 15.9443 38.13771 20.09927 38.27254 23.82825 38.40738 27.18187 38.54222 30.23149 38.67705 32.99583 38.81189 35.52373 38.94673 37.83957 39.08157 39.97337 39.21642 41.94012 39.35126 43.76239 39.48607 45.4514 39.62091 47.02594 39.75575 48.49538 39.8906 49.86348 40.02544 51.14714 40.16026 52.35008 40.2951 53.48361 40.42995 54.54958 40.56477 55.55171 40.69962 56.49568 40.83446 57.39273 40.96928 58.24101 41.10413 59.04234 41.23897 59.80429 41.37381 60.52492 41.50865 61.21555 41.64348 61.86864 41.7783 62.4917 41.91313 63.08472 42.04797 63.65147 42.18282 64.19385 42.31766 64.70807 42.4525 65.20349 42.58733 65.67455 42.72215 66.12683 42.857 66.55847 42.99184 66.97322 43.12668 67.37296 43.26152 67.75203 43.39635 68.11987 43.53119 68.46893 43.66603 68.80673 43.80086 69.12953 43.9357 69.44106 44.07054 69.74132 44.20537 70.02658 44.34021 70.30246 44.47505 70.56706 44.6099 70.8223 44.74474 71.06627 44.87956 71.3046 45.01439 71.5298 45.14923 71.7475 45.28407 71.95581 45.41891 72.16037 45.55376 72.35555 45.6886 72.54134 45.82343 72.71774 45.95825 72.8904 46.0931 73.05554 46.22794 73.21695 46.36278 73.36896 46.4976 73.51346 46.63245 73.65422 46.76729 73.79309 46.90213 73.9207 47.03696 74.04456 47.1718 74.16092 47.30664 74.2754 47.44147 74.38425 47.5763 74.48933 47.71114 74.58505 47.84598 74.68076 47.98082 74.76897 48.11565 74.8553 48.25047 74.9341 48.38531 75.00919 48.52016 75.08049 48.655 75.14992 48.78984 75.21185 48.92468 75.27193 49.05951 75.32634 49.19435 75.37888 49.32918 75.42767 49.46402 75.47084 49.59886 75.51025 49.7337 75.54779 49.86853 75.57782 50.00337 75.60783 50.13821 75.63411 50.27306 75.65288 50.40788 75.67165 50.54271 75.68852 50.67755 75.69604 50.8124 75.70541 50.94724 75.70917H51.08208L51.21692 75.70541 51.35175 75.69604 51.48657 75.68852 51.6214 75.67165 51.75626 75.65288 51.8911 75.63411 52.02592 75.60783 52.16078 75.57782 52.29561 75.54779 52.43045 75.51025 52.56528 75.47084 52.7001 75.42767 52.83496 75.37888 52.96979 75.32634 53.10463 75.27193 53.23949 75.21185 53.3743 75.14992 53.50914 75.08049 53.64395 75.00919 53.7788 74.93224 53.91365 74.8553 54.04848 74.76897 54.18332 74.68076 54.31815 74.58505 54.453 74.48933 54.58784 74.38425 54.72266 74.2754 54.8575 74.16092 54.99232 74.04456 55.12718 73.9207 55.26202 73.79309 55.39685 73.65422 55.5317 73.51346 55.66652 73.36896 55.80136 73.21695 55.9362 73.05554 56.07103 72.8904 56.20589 72.71774 56.34071 72.54134 56.47556 72.35555 56.6104 72.16037 56.74522 71.95581 56.88007 71.7475 57.0149 71.5298 57.14973 71.3046 57.28459 71.06627 57.41942 70.8223 57.55426 70.56706 57.68909 70.30246 57.82393 70.02658 57.95877 69.73756 58.0936 69.44106 58.22844 69.12953 58.36327 68.80673 58.49811 68.46893 58.63297 68.11987 58.76779 67.75203 58.90263 67.37296 59.03746 66.97697 59.1723 66.55847 59.30713 66.12683 59.44196 65.67455 59.5768 65.20349 59.71162 64.70807 59.84648 64.19385 59.98132 63.65147 60.11615 63.08472 60.25099 62.4917 60.3858 61.86864 60.52066 61.21555 60.6555 60.52492 60.79033 59.80429 60.92519 59.04234 61.06001 58.24101 61.19485 57.39273 61.32968 56.49568 61.46451 55.55171 61.59937 54.54582 61.73419 53.48174 61.86903 52.35008 62.00388 51.14339 62.13872 49.86162 62.27356 48.49538 62.40837 47.02594 62.54321 45.4514 62.67807 43.75862 62.8129 41.94012 62.94774 39.97337 63.08257 37.83769 63.2174 35.51811 63.35226 32.99583 63.48708 30.22774 63.62192 27.18187 63.75674 23.82637 63.8916 20.09927 64.02644 15.93866 64.16127 11.28073 64.29611 6.00912 64.36617 2.8883"/>
<path transform="matrix(-.022400672,.9997,.99973008,.0224,52.860227,200.25469)" d="M2.8892 0-1.73352 2.31136 0 0-1.73352-2.31136" fill="#0000ff"/>
<path transform="matrix(.022420675,.9997,.99973008,-.02242,79.564128,200.25469)" d="M2.8892 0-1.73352 2.31136 0 0-1.73352-2.31136" fill="#0000ff"/>
<path transform="matrix(1.00003,0,0,-1,15.196022,203.143)" stroke-width=".99628" stroke-linecap="butt" stroke-miterlimit="10" stroke-linejoin="miter" fill="none" stroke="#0000ff" d="M68.41052 186.05812 68.48056 182.94292 68.61539 177.67131 68.75021 173.00775 68.88506 168.85277 69.0199 165.12567 69.15474 161.76453 69.28958 158.7243 69.42442 155.95619 69.55925 153.4283 69.69408 151.11248 69.82892 148.97493 69.96376 147.01194 70.0986 145.18967 70.23343 143.50064 70.36826 141.9261 70.5031 140.45667 70.63794 139.08481 70.77277 137.8049 70.90761 136.60196 71.04243 135.46845 71.17728 134.40248 71.31212 133.40033 71.44696 132.45636 71.5818 131.5593 71.71664 130.71105 71.85147 129.9097 71.9863 129.14777 72.12114 128.42525 72.25598 127.7365 72.39082 127.08154 72.52565 126.46036 72.66049 125.86732 72.79533 125.30057 72.93018 124.75821 73.065 124.24399 73.19984 123.74854 73.33467 123.2775 73.46951 122.82521 73.60435 122.39359 73.7392 121.97507 73.87404 121.57909 74.00887 121.2 74.14369 120.83217 74.27853 120.48312 74.41338 120.1453 74.54822 119.82253 74.68306 119.51099 74.81789 119.21071 74.95273 118.92546 75.08757 118.6496 75.2224 118.38498 75.35724 118.12975 75.49207 117.88579 75.6269 117.64745 75.76175 117.42224 75.89659 117.20454 76.03143 116.99623 76.16626 116.79167 76.30107 116.5965 76.43591 116.4107 76.57076 116.2343 76.7056 116.06165 76.84044 115.8965 76.97527 115.7351 77.1101 115.5831 77.24495 115.43858 77.37978 115.29784 77.51462 115.15897 77.64946 115.03134 77.78429 114.90747 77.91913 114.79114 78.05397 114.67665 78.18881 114.5678 78.32365 114.4627 78.45847 114.367 78.5933 114.27129 78.72815 114.18309 78.86299 114.09676 78.99783 114.01982 79.13268 113.94287 79.2675 113.87155 79.40234 113.80211 79.53719 113.74019 79.67201 113.68013 79.80685 113.6257 79.9417 113.57317 80.07652 113.52437 80.21136 113.48122 80.3462 113.44179 80.48105 113.40425 80.61589 113.37424 80.7507 113.34421 80.88554 113.31793 81.02039 113.29916 81.15523 113.2804 81.29007 113.2635 81.42491 113.25601 81.55974 113.24661 81.69458 113.24286H81.8294L81.96423 113.24661 82.09906 113.25601 82.23392 113.2635 82.36874 113.2804 82.50359 113.29916 82.63843 113.31793 82.77325 113.34421 82.9081 113.37424 83.04292 113.40425 83.17776 113.44179 83.31262 113.48122 83.44743 113.52437 83.58229 113.57317 83.71712 113.6257 83.85196 113.68013 83.9868 113.74019 84.12163 113.80211 84.25647 113.87155 84.3913 113.94287 84.52614 114.01982 84.661 114.09676 84.79582 114.18309 84.93066 114.27129 85.06548 114.367 85.20032 114.4627 85.33517 114.5678 85.47 114.67665 85.60484 114.79114 85.73967 114.90747 85.87453 115.03134 86.00937 115.15897 86.14418 115.29784 86.27902 115.43858 86.41385 115.5831 86.5487 115.7351 86.68355 115.8965 86.81837 116.06165 86.95322 116.2343 87.08804 116.4107 87.22289 116.5965 87.35773 116.79167 87.49255 116.99623 87.6274 117.20454 87.76222 117.42224 87.89706 117.64745 88.0319 117.88579 88.16673 118.12975 88.30157 118.38498 88.4364 118.6496 88.57124 118.92546 88.70609 119.21071 88.84091 119.51099 88.97577 119.82253 89.1106 120.1453 89.24544 120.48312 89.38028 120.83592 89.51509 121.2 89.64995 121.57909 89.78477 121.97882 89.91962 122.39359 90.05447 122.82521 90.18929 123.2775 90.32414 123.74854 90.45897 124.24399 90.5938 124.75821 90.72865 125.30057 90.86348 125.86732 90.99832 126.46036 91.13315 127.0834 91.26799 127.7365 91.40285 128.42711 91.53767 129.14777 91.6725 129.9097 91.80733 130.7148 91.94217 131.5593 92.07703 132.45636 92.21185 133.40033 92.3467 134.40248 92.48152 135.4703 92.61638 136.60196 92.7512 137.80867 92.88603 139.08856 93.02087 140.45667 93.1557 141.9261 93.29056 143.50064 93.4254 145.18967 93.56021 147.01194 93.69505 148.97869 93.82986 151.11248 93.96472 153.4283 94.09956 155.95619 94.23439 158.7243 94.36925 161.77017 94.50407 165.12567 94.63892 168.85277 94.77376 173.01337 94.90857 177.67131 95.04343 182.94292 95.1135 186.06374"/>
<path transform="matrix(-.022430676,-.9997,-.99973008,.02243,83.6086,17.0849)" d="M2.8892 0-1.73352 2.31136 0 0-1.73352-2.31136" fill="#0000ff"/>
<path transform="matrix(.022420675,-.9997,-.99973008,-.02242,110.312389,17.079285)" d="M2.8892 0-1.73352 2.31136 0 0-1.73352-2.31136" fill="#0000ff"/>
<path transform="matrix(1.00003,0,0,-1,15.196022,203.143)" stroke-width=".99628" stroke-linecap="butt" stroke-miterlimit="10" stroke-linejoin="miter" fill="none" stroke="#0000ff" d="M99.15787 2.89394 99.22789 6.00912 99.36273 11.28073 99.49757 15.9443 99.63242 20.10303 99.76724 23.82637 99.90208 27.18187 100.03691 30.22774 100.17175 32.99583 100.3066 35.52373 100.44142 37.83957 100.57626 39.97337 100.7111 41.94388 100.84595 43.76239 100.98079 45.45326 101.11562 47.02594 101.25044 48.49538 101.38528 49.86348 101.52013 51.14714 101.65497 52.35008 101.78981 53.48361 101.92465 54.54958 102.05948 55.55171 102.1943 56.49568 102.32915 57.39273 102.46399 58.24101 102.59883 59.04234 102.73367 59.80429 102.8685 60.52681 103.00334 61.21555 103.13818 61.86864 103.27301 62.4917 103.40785 63.08472 103.54268 63.65147 103.67752 64.19385 103.81236 64.70807 103.9472 65.20349 104.08205 65.67455 104.21689 66.12683 104.35173 66.55847 104.48654 66.97697 104.62137 67.37296 104.75621 67.75203 104.89105 68.11987 105.0259 68.46893 105.16074 68.80673 105.29556 69.12953 105.4304 69.44106 105.56523 69.73756 105.70007 70.02658 105.83492 70.30246 105.96974 70.56706 106.10458 70.8223 106.23943 71.06627 106.37427 71.3046 106.50911 71.5298 106.64394 71.7475 106.77876 71.95581 106.9136 72.16037 107.04845 72.35555 107.18329 72.54134 107.31813 72.71774 107.45297 72.8904 107.5878 73.05554 107.72263 73.21695 107.85747 73.36896 107.99231 73.51346 108.12715 73.65422 108.262 73.79309 108.39682 73.9207 108.53166 74.04456 108.6665 74.16092 108.80133 74.2754 108.93617 74.38425 109.07101 74.48933 109.20586 74.58505 109.34068 74.68076 109.47552 74.76897 109.61037 74.8553 109.74521 74.93224 109.88004 75.00919 110.01486 75.08049 110.1497 75.14992 110.28455 75.21185 110.41937 75.27193 110.55421 75.32634 110.68906 75.37888 110.82388 75.42767 110.95871 75.47084 111.09355 75.51025 111.2284 75.54779 111.36324 75.57782 111.49808 75.60783 111.6329 75.63411 111.76775 75.65288 111.90259 75.67165 112.03741 75.68852 112.17226 75.69604 112.3071 75.70541 112.44193 75.70917H112.57677L112.71162 75.70541 112.84645 75.69604 112.9813 75.68852 113.11612 75.67165 113.25095 75.65288 113.3858 75.63411 113.52063 75.60783 113.65547 75.57782 113.7903 75.54779 113.92514 75.51025 114.06 75.47084 114.19482 75.42767 114.32965 75.37888 114.46448 75.32634 114.59933 75.27193 114.73418 75.21185 114.869 75.14992 115.00385 75.08049 115.13867 75.00919 115.27353 74.93224 115.40836 74.8553 115.54318 74.76897 115.67804 74.68076 115.81285 74.58505 115.94771 74.48933 116.08255 74.38425 116.21736 74.2754 116.35222 74.16092 116.48703 74.04456 116.62187 73.9207 116.75671 73.79309 116.89154 73.65422 117.0264 73.51346 117.16122 73.36896 117.29607 73.21695 117.43092 73.05554 117.56573 72.8904 117.70058 72.71774 117.8354 72.54134 117.97025 72.35555 118.1051 72.16037 118.23993 71.95581 118.37477 71.7475 118.5096 71.5298 118.64442 71.3046 118.77928 71.06627 118.91411 70.8223 119.04895 70.56519 119.18378 70.30246 119.31863 70.02283 119.45348 69.73756 119.5883 69.44106 119.72313 69.12953 119.85796 68.80673 119.99281 68.46893 120.12766 68.11987 120.26248 67.75203 120.39734 67.37296 120.53217 66.97322 120.667 66.55847 120.80183 66.12683 120.93666 65.67455 121.07152 65.20349 121.20634 64.70807 121.34119 64.1901 121.47603 63.65147 121.61086 63.08472 121.74571 62.4917 121.88054 61.86864 122.01535 61.21555 122.1502 60.52492 122.28503 59.80429 122.41988 59.04234 122.5547 58.24101 122.68954 57.39273 122.8244 56.49568 122.95923 55.55171 123.09406 54.54582 123.22888 53.48361 123.36374 52.35008 123.49858 51.14714 123.6334 49.86162 123.76825 48.49538 123.90308 47.02594 124.03793 45.4514 124.17276 43.75862 124.30759 41.94012 124.44243 39.9696 124.57727 37.83957 124.71211 35.51811 124.84695 32.99583 124.98178 30.2221 125.11664 27.18187 125.25145 23.82637 125.38629 20.09364 125.52113 15.93866 125.65596 11.2751 125.79082 6.00912 125.86089 2.8883"/>
<path transform="matrix(-.022430676,.9997,.99973008,.02243,114.356868,200.24906)" d="M2.8892 0-1.73352 2.31136 0 0-1.73352-2.31136" fill="#0000ff"/>
<path transform="matrix(.022420675,.9997,.99973008,-.02242,141.0607,200.25469)" d="M2.8892 0-1.73352 2.31136 0 0-1.73352-2.31136" fill="#0000ff"/>
<path transform="matrix(1.00003,0,0,-1,15.196022,203.143)" stroke-width=".99628" stroke-linecap="butt" stroke-miterlimit="10" stroke-linejoin="miter" fill="none" stroke="#0000ff" d="M129.90512 186.06374 129.97525 182.93729 130.11009 177.67131 130.24492 173.00775 130.37975 168.85277 130.51459 165.12567 130.64943 161.77017 130.78427 158.7243 130.91912 155.95619 131.05394 153.4283 131.18878 151.11248 131.32363 148.97869 131.45845 147.00817 131.59329 145.18967 131.72814 143.50064 131.86296 141.9261 131.9978 140.45667 132.13265 139.08856 132.26749 137.8049 132.40233 136.60196 132.53716 135.46845 132.67198 134.40248 132.80683 133.40033 132.94167 132.45636 133.07649 131.5593 133.21134 130.71105 133.34616 129.9097 133.481 129.14777 133.61583 128.42525 133.75067 127.7365 133.88552 127.0834 134.02036 126.46036 134.1552 125.86732 134.29003 125.30057 134.42487 124.75821 134.55971 124.24399 134.69454 123.74854 134.82938 123.2775 134.9642 122.82521 135.09905 122.39359 135.23389 121.97507 135.36873 121.57909 135.50357 121.2 135.63842 120.83217 135.77324 120.48312 135.90807 120.1453 136.04291 119.82253 136.17775 119.51099 136.31259 119.21071 136.44744 118.92546 136.58228 118.6496 136.7171 118.38498 136.85195 118.12975 136.98677 117.88579 137.12162 117.64745 137.25646 117.42224 137.39128 117.20454 137.52613 116.99623 137.66097 116.79167 137.7958 116.5965 137.93065 116.4107 138.06548 116.2343 138.2003 116.06165 138.33515 115.8965 138.46999 115.7351 138.60483 115.5831 138.73967 115.43858 138.8745 115.29784 139.00933 115.15897 139.14415 115.03134 139.27899 114.90747 139.41384 114.79114 139.54868 114.67665 139.68352 114.5678 139.81835 114.4627 139.95319 114.367 140.08803 114.27129 140.22286 114.18309 140.3577 114.09676 140.49254 114.01982 140.62737 113.94287 140.7622 113.87155 140.89705 113.80211 141.03189 113.74019 141.16674 113.68013 141.30155 113.6257 141.43639 113.57317 141.57123 113.52437 141.70607 113.48122 141.84091 113.44179 141.97576 113.40425 142.1106 113.37424 142.24542 113.34421 142.38025 113.31793 142.51509 113.29916 142.64994 113.2804 142.78478 113.2635 142.9196 113.25601 143.05445 113.24661 143.18929 113.24286H143.32413L143.45896 113.24661 143.59378 113.25601 143.72864 113.2635 143.86347 113.2804 143.9983 113.29916 144.13315 113.31793 144.26799 113.34421 144.40283 113.37424 144.53766 113.40425 144.67247 113.44179 144.80733 113.48122 144.94216 113.52437 145.077 113.57317 145.21183 113.6257 145.34667 113.68013 145.48152 113.74019 145.61635 113.80211 145.75118 113.87155 145.886 113.94287 146.02086 114.01982 146.1557 114.09676 146.29053 114.18309 146.42537 114.27129 146.5602 114.367 146.69506 114.4627 146.82988 114.5678 146.9647 114.67665 147.09957 114.79114 147.23438 114.90747 147.36923 115.03134 147.50408 115.15897 147.6389 115.29784 147.77376 115.43858 147.90857 115.5831 148.04341 115.7351 148.17826 115.8965 148.31308 116.06165 148.44794 116.2343 148.58277 116.41446 148.7176 116.5965 148.85245 116.79167 148.98726 116.99623 149.12212 117.20454 149.25695 117.42224 149.39179 117.64745 149.52664 117.88579 149.66147 118.12975 149.79631 118.38498 149.93114 118.6496 150.06597 118.92546 150.20082 119.21446 150.33565 119.51099 150.47048 119.82253 150.6053 120.1453 150.74016 120.48312 150.875 120.83217 151.00983 121.2 151.14466 121.57909 151.27948 121.97507 151.41434 122.39359 151.54918 122.82521 151.684 123.2775 151.81885 123.74854 151.95369 124.24399 152.08853 124.75821 152.22336 125.30057 152.35819 125.86732 152.49304 126.46036 152.62787 127.0834 152.76271 127.7365 152.89756 128.42525 153.03238 129.14777 153.16724 129.9097 153.30205 130.71105 153.43689 131.5593 153.57175 132.45636 153.70658 133.40033 153.84142 134.40248 153.97624 135.46845 154.11109 136.60196 154.24594 137.80867 154.38077 139.08856 154.5156 140.45667 154.65042 141.9261 154.78528 143.50064 154.92012 145.19342 155.05495 147.01194 155.18979 148.97869 155.32462 151.11248 155.45948 153.4283 155.5943 155.95619 155.72913 158.7243 155.86397 161.77017 155.9988 165.12567 156.13365 168.85277 156.26848 173.01337 156.4033 177.67131 156.53816 182.9523 156.60814 186.06374"/>
<path transform="matrix(-.022400672,-.9997,-.99973008,.0224,145.10504,17.079285)" d="M2.8892 0-1.73352 2.31136 0 0-1.73352-2.31136" fill="#0000ff"/>
<path transform="matrix(.022450675,-.9997,-.99973008,-.02245,171.80884,17.079285)" d="M2.8892 0-1.73352 2.31136 0 0-1.73352-2.31136" fill="#0000ff"/>
<use data-text="y" xlink:href="#font_5_3" transform="matrix(9.962899,0,0,-9.9626,175.69284,16.682007)" fill="#0000ff"/>
<use data-text="=" xlink:href="#font_4_7" transform="matrix(9.962899,0,0,-9.9626,183.7031,16.682007)" fill="#0000ff"/>
<use data-text="c" xlink:href="#font_4_8" transform="matrix(9.962899,0,0,-9.9626,194.204,16.682007)" fill="#0000ff"/>
<use data-text="s" xlink:href="#font_4_11" transform="matrix(9.962899,0,0,-9.9626,198.62752,16.682007)" fill="#0000ff"/>
<use data-text="c" xlink:href="#font_4_8" transform="matrix(9.962899,0,0,-9.9626,202.5529,16.682007)" fill="#0000ff"/>
<use data-text="(" xlink:href="#font_4_1" transform="matrix(9.962899,0,0,-9.9626,206.97644,16.682007)" fill="#0000ff"/>
<use data-text="x" xlink:href="#font_5_2" transform="matrix(9.962899,0,0,-9.9626,210.87992,16.682007)" fill="#0000ff"/>
<use data-text=")" xlink:href="#font_4_2" transform="matrix(9.962899,0,0,-9.9626,216.57308,16.682007)" fill="#0000ff"/>
<path transform="matrix(1.00003,0,0,-1,15.196022,203.143)" stroke-width=".99628" stroke-linecap="butt" stroke-miterlimit="10" stroke-linejoin="miter" fill="none" stroke="#0000ff" d="M160.65258 2.89394 160.7226 6.00912 160.85744 11.28073 160.99227 15.9443 161.1271 20.09927 161.26195 23.82637 161.39679 27.18187 161.53162 30.22774 161.66646 32.99583 161.80127 35.52373 161.93611 37.83957 162.07096 39.97337 162.2058 41.94388 162.34064 43.76239 162.47548 45.4514 162.6103 47.02594 162.74515 48.49538 162.87998 49.86348 163.01482 51.14714 163.14966 52.35008 163.2845 53.48361 163.41933 54.54958 163.55417 55.55171 163.68901 56.49568 163.82386 57.39273 163.95868 58.24101 164.0935 59.04234 164.22835 59.80429 164.36319 60.52681 164.49803 61.21555 164.63288 61.86864 164.76772 62.4917 164.90256 63.08472 165.03737 63.65147 165.17221 64.19385 165.30706 64.70807 165.4419 65.20349 165.57674 65.67455 165.71157 66.12683 165.8464 66.55847 165.98125 66.97697 166.11608 67.37296 166.25092 67.75203 166.38576 68.11987 166.52059 68.46893 166.65543 68.80673 166.79027 69.12953 166.92511 69.44106 167.05995 69.73756 167.19478 70.02658 167.3296 70.30246 167.46443 70.56519 167.59928 70.8223 167.73412 71.06627 167.86896 71.3046 168.0038 71.5298 168.13863 71.7475 168.27347 71.95581 168.4083 72.16037 168.54314 72.35555 168.67798 72.53758 168.81282 72.71774 168.94765 72.8904 169.08249 73.05554 169.21733 73.21695 169.35218 73.36896 169.487 73.51346 169.62184 73.65422 169.75667 73.79309 169.89151 73.9207 170.02635 74.04456 170.1612 74.16092 170.29604 74.2754 170.43088 74.38425 170.56569 74.48933 170.70053 74.58505 170.83538 74.68076 170.97022 74.76897 171.10506 74.8553 171.2399 74.93224 171.37473 75.00919 171.50957 75.08049 171.6444 75.14992 171.77924 75.21185 171.91408 75.27193 172.04892 75.32634 172.18375 75.37888 172.31859 75.42767 172.45343 75.47084 172.58827 75.51025 172.7231 75.54779 172.85794 75.57782 172.99277 75.60783 173.1276 75.63411 173.26244 75.65288 173.39728 75.67165 173.53212 75.68852 173.66695 75.69604 173.80178 75.70541 173.93662 75.70917H174.07146L174.2063 75.70541 174.34113 75.69604 174.47599 75.68852 174.61081 75.67165 174.74565 75.65288 174.88048 75.63411 175.01532 75.60783 175.15016 75.57782 175.28499 75.54779 175.41983 75.51025 175.55469 75.47084 175.68952 75.42767 175.82436 75.37888 175.95919 75.32634 176.09401 75.27193 176.22887 75.21185 176.3637 75.14992 176.49854 75.08049 176.63336 75.00919 176.76822 74.93224 176.90306 74.8553 177.03789 74.76897 177.17272 74.68076 177.30754 74.58505 177.4424 74.48933 177.57724 74.38425 177.71207 74.2754 177.84693 74.16092 177.98174 74.04456 178.1166 73.9207 178.25142 73.79309 178.38625 73.65422 178.5211 73.51346 178.65593 73.36896 178.79077 73.21695 178.9256 73.05554 179.06043 72.8904 179.19528 72.71774 179.3301 72.54134 179.46494 72.35555 179.59978 72.16037 179.7346 71.95581 179.86946 71.7475 180.00429 71.5298 180.13913 71.3046 180.27399 71.06627 180.4088 70.8223 180.54364 70.56519 180.67847 70.30246 180.81331 70.02658 180.94817 69.73756 181.083 69.44106 181.21784 69.12953 181.35266 68.80673 181.4875 68.46893 181.62235 68.11987 181.75717 67.75203 181.89202 67.37296 182.02684 66.97322 182.1617 66.55847 182.29654 66.12683 182.43137 65.67455 182.5662 65.20349 182.70104 64.70807 182.83588 64.19385 182.97072 63.65147 183.10555 63.08472 183.2404 62.4917 183.37523 61.86864 183.51007 61.21555 183.6449 60.52681 183.77973 59.80429 183.91458 59.04234 184.04941 58.24101 184.18425 57.39273 184.3191 56.49568 184.45394 55.54796 184.58878 54.54582 184.72359 53.48174 184.85842 52.35008 184.99327 51.14714 185.1281 49.86348 185.26294 48.49162 185.39777 47.02594 185.53263 45.4514 185.66747 43.75862 185.80229 41.94388 185.93712 39.97337 186.07195 37.83957 186.2068 35.52373 186.34165 32.99583 186.47647 30.22774 186.61132 27.18187 186.74614 23.81886 186.881 20.09364 187.01583 15.93866 187.15065 11.28073 187.2855 6.00912 187.35558 2.8883"/>
<path transform="matrix(-.022430676,.9997,.99973008,.02243,175.85343,200.24906)" d="M2.8892 0-1.73352 2.31136 0 0-1.73352-2.31136" fill="#0000ff"/>
<path transform="matrix(.022420675,.9997,.99973008,-.02242,202.55722,200.25469)" d="M2.8892 0-1.73352 2.31136 0 0-1.73352-2.31136" fill="#0000ff"/>
<path transform="matrix(1.00003,0,0,-1,15.196022,203.143)" stroke-width=".3985" stroke-linecap="butt" stroke-dasharray="2.98883,2.98883" stroke-miterlimit="10" stroke-linejoin="miter" fill="none" stroke="#ff0000" d="M4.89359-3.11153V192.0636"/>
<use data-text="x" xlink:href="#font_5_2" transform="matrix(9.962899,0,0,-9.9626,1.2166061,216.195)" fill="#ff0000"/>
<use data-text="=" xlink:href="#font_4_7" transform="matrix(9.962899,0,0,-9.9626,9.678856,216.195)" fill="#ff0000"/>
<use data-text="&#x2212;" xlink:href="#font_1_1" transform="matrix(9.962899,0,0,-9.9626,20.195176,216.195)" fill="#ff0000"/>
<use data-text="2" xlink:href="#font_4_4" transform="matrix(9.962899,0,0,-9.9626,27.944397,216.195)" fill="#ff0000"/>
<use data-text="&#x03c0;" xlink:href="#font_5_1" transform="matrix(9.962899,0,0,-9.9626,32.925554,216.195)" fill="#ff0000"/>
<path transform="matrix(1.00003,0,0,-1,15.196022,203.143)" stroke-width=".3985" stroke-linecap="butt" stroke-dasharray="2.98883,2.98883" stroke-miterlimit="10" stroke-linejoin="miter" fill="none" stroke="#ff0000" d="M35.64093-3.11153V192.0636"/>
<use data-text="x" xlink:href="#font_5_2" transform="matrix(9.962899,0,0,-9.9626,34.455606,6.729004)" fill="#ff0000"/>
<use data-text="=" xlink:href="#font_4_7" transform="matrix(9.962899,0,0,-9.9626,42.917856,6.729004)" fill="#ff0000"/>
<use data-text="&#x2212;" xlink:href="#font_1_1" transform="matrix(9.962899,0,0,-9.9626,53.434175,6.729004)" fill="#ff0000"/>
<use data-text="&#x03c0;" xlink:href="#font_5_1" transform="matrix(9.962899,0,0,-9.9626,61.183397,6.729004)" fill="#ff0000"/>
<path transform="matrix(1.00003,0,0,-1,15.196022,203.143)" stroke-width=".3985" stroke-linecap="butt" stroke-dasharray="2.98883,2.98883" stroke-miterlimit="10" stroke-linejoin="miter" fill="none" stroke="#ff0000" d="M66.38828-3.11153V192.0636"/>
<use data-text="x" xlink:href="#font_5_2" transform="matrix(9.962899,0,0,-9.9626,69.60666,216.195)" fill="#ff0000"/>
<use data-text="=" xlink:href="#font_4_7" transform="matrix(9.962899,0,0,-9.9626,78.06891,216.195)" fill="#ff0000"/>
<use data-text="0" xlink:href="#font_4_3" transform="matrix(9.962899,0,0,-9.9626,88.56981,216.195)" fill="#ff0000"/>
<path transform="matrix(1.00003,0,0,-1,15.196022,203.143)" stroke-width=".3985" stroke-linecap="butt" stroke-dasharray="2.98883,2.98883" stroke-miterlimit="10" stroke-linejoin="miter" fill="none" stroke="#ff0000" d="M97.13562-3.11153V192.0636"/>
<use data-text="x" xlink:href="#font_5_2" transform="matrix(9.962899,0,0,-9.9626,99.82756,7.560013)" fill="#ff0000"/>
<use data-text="=" xlink:href="#font_4_7" transform="matrix(9.962899,0,0,-9.9626,108.28981,7.560013)" fill="#ff0000"/>
<use data-text="&#x03c0;" xlink:href="#font_5_1" transform="matrix(9.962899,0,0,-9.9626,118.80613,7.560013)" fill="#ff0000"/>
<path transform="matrix(1.00003,0,0,-1,15.196022,203.143)" stroke-width=".3985" stroke-linecap="butt" stroke-dasharray="2.98883,2.98883" stroke-miterlimit="10" stroke-linejoin="miter" fill="none" stroke="#ff0000" d="M127.88297-3.11153V192.0636"/>
<use data-text="x" xlink:href="#font_5_2" transform="matrix(9.962899,0,0,-9.9626,128.08441,216.195)" fill="#ff0000"/>
<use data-text="=" xlink:href="#font_4_7" transform="matrix(9.962899,0,0,-9.9626,136.54666,216.195)" fill="#ff0000"/>
<use data-text="2" xlink:href="#font_4_4" transform="matrix(9.962899,0,0,-9.9626,147.04758,216.195)" fill="#ff0000"/>
<use data-text="&#x03c0;" xlink:href="#font_5_1" transform="matrix(9.962899,0,0,-9.9626,152.04413,216.195)" fill="#ff0000"/>
<path transform="matrix(1.00003,0,0,-1,15.196022,203.143)" stroke-width=".3985" stroke-linecap="butt" stroke-dasharray="2.98883,2.98883" stroke-miterlimit="10" stroke-linejoin="miter" fill="none" stroke="#ff0000" d="M158.63033-3.11153V192.0636"/>
<use data-text="x" xlink:href="#font_5_2" transform="matrix(9.962899,0,0,-9.9626,158.83335,7.560013)" fill="#ff0000"/>
<use data-text="=" xlink:href="#font_4_7" transform="matrix(9.962899,0,0,-9.9626,167.2956,7.560013)" fill="#ff0000"/>
<use data-text="3" xlink:href="#font_4_5" transform="matrix(9.962899,0,0,-9.9626,177.7965,7.560013)" fill="#ff0000"/>
<use data-text="&#x03c0;" xlink:href="#font_5_1" transform="matrix(9.962899,0,0,-9.9626,182.79305,7.560013)" fill="#ff0000"/>
<path transform="matrix(1.00003,0,0,-1,15.196022,203.143)" stroke-width=".3985" stroke-linecap="butt" stroke-dasharray="2.98883,2.98883" stroke-miterlimit="10" stroke-linejoin="miter" fill="none" stroke="#ff0000" d="M189.37767-3.11153V192.0636"/>
<use data-text="x" xlink:href="#font_5_2" transform="matrix(9.962899,0,0,-9.9626,189.58127,216.195)" fill="#ff0000"/>
<use data-text="=" xlink:href="#font_4_7" transform="matrix(9.962899,0,0,-9.9626,198.04352,216.195)" fill="#ff0000"/>
<use data-text="4" xlink:href="#font_4_6" transform="matrix(9.962899,0,0,-9.9626,208.54442,216.195)" fill="#ff0000"/>
<use data-text="&#x03c0;" xlink:href="#font_5_1" transform="matrix(9.962899,0,0,-9.9626,213.54097,216.195)" fill="#ff0000"/>
<use data-text="x" xlink:href="#font_5_2" transform="matrix(9.962899,0,0,-9.9626,200.25858,105.147)"/>
<use data-text="y" xlink:href="#font_5_3" transform="matrix(9.962899,0,0,-9.9626,85.10612,35.779008)"/>
</svg>
