<svg xmlns="http://www.w3.org/2000/svg" xmlns:xlink="http://www.w3.org/1999/xlink" version="1.1" width="174" height="174" viewBox="0 0 174 174">
<path transform="matrix(1.00005,0,0,-1.00003,30.443573,143.53583)" stroke-width=".3985" stroke-linecap="butt" stroke-miterlimit="10" stroke-linejoin="miter" fill="none" stroke="#d5d6d5" d="M-28.3468-28.3468H141.73404M-28.3468 0H141.73404M-28.3468 28.3468H141.73404M-28.3468 56.69362H141.73404M-28.3468 85.04042H141.73404M-28.3468 113.38724H141.73404M-28.3468 141.72409H141.73404M-28.3468-28.3468V141.73404M0-28.3468V141.73404M28.3468-28.3468V141.73404M56.69362-28.3468V141.73404M85.04042-28.3468V141.73404M113.38724-28.3468V141.73404M141.72409-28.3468V141.73404M141.73404 141.73404"/>
<path transform="matrix(1.00005,0,0,-1.00003,30.443573,143.53583)" stroke-width="1.99255" stroke-linecap="butt" stroke-miterlimit="10" stroke-linejoin="miter" fill="none" stroke="#0000ff" d="M0 113.38724 110.28754 3.09969"/>
<path transform="matrix(.7071353,.7071212,.7071353,-.7071212,140.7366,140.43604)" d="M4.38364 0-2.63017 3.50691 0 0-2.63017-3.50691" fill="#0000ff"/>
</svg>
