<svg xmlns="http://www.w3.org/2000/svg" xmlns:xlink="http://www.w3.org/1999/xlink" version="1.1" width="190" height="172" viewBox="0 0 190 172">
<defs>
<path id="font_1_1" d="M.33399964 .30233766C.33999635 .32835389 .36299134 .42037965 .43299867 .42037965 .43798829 .42037965 .46199037 .42037965 .48298646 .40734864 .45498658 .402359 .43499757 .37734986 .43499757 .35334779 .43499757 .33735658 .44599916 .31835938 .47299195 .31835938 .49499513 .31835938 .5269928 .3363495 .5269928 .37635804 .5269928 .42837525 .46798707 .4423828 .43399049 .4423828 .37599183 .4423828 .34098817 .38935853 .32899476 .36634828 .3039856 .43237306 .25 .4423828 .22099304 .4423828 .116989139 .4423828 .05999756 .3133545 .05999756 .28834535 .05999756 .27833558 .069992069 .27833558 .07199097 .27833558 .07998657 .27833558 .08299255 .28033448 .084991458 .28933717 .11898804 .39535523 .18499756 .42037965 .21899414 .42037965 .23799134 .42037965 .272995 .4113617 .272995 .35334779 .272995 .32235719 .2559967 .25532533 .21899414 .11528015 .20298767 .053268434 .16799927 .011245728 .12399292 .011245728 .117996219 .011245728 .09498596 .011245728 .07398987 .024276734 .09899902 .029266358 .12098694 .05027771 .12098694 .07827759 .12098694 .105270389 .09899902 .11328125 .083999637 .11328125 .053985597 .11328125 .0289917 .08728027 .0289917 .055267335 .0289917 .009246826 .07899475-.0107421879 .12298584-.0107421879 .18899536-.0107421879 .22499085 .059280397 .22799683 .0652771 .23999024 .028274537 .27598573-.0107421879 .33599855-.0107421879 .43899537-.0107421879 .49598695 .118270877 .49598695 .14328003 .49598695 .1532898 .4869995 .1532898 .48399354 .1532898 .47499085 .1532898 .47299195 .14929199 .47099305 .14228821 .43798829 .03527832 .36999513 .011245728 .33799745 .011245728 .29899598 .011245728 .2829895 .043273927 .2829895 .07727051 .2829895 .09927368 .2889862 .121276859 .2999878 .16529846L.33399964 .30233766Z"/>
<path id="font_1_2" d="M.48599244 .38136292C.48999024 .39537049 .48999024 .39736939 .48999024 .40437318 .48999024 .42237855 .47599793 .43138124 .46099855 .43138124 .45098878 .43138124 .43499757 .42536927 .42599488 .41036988 .42399598 .405365 .41600038 .37435914 .4119873 .35635377 .40499879 .33035279 .397995 .30334474 .3919983 .27633668L.34700013 .09628296C.34298707 .08126831 .2999878 .011245728 .23399353 .011245728 .18299866 .011245728 .17199707 .055267335 .17199707 .0922699 .17199707 .1382904 .18899536 .20030213 .22299195 .28833009 .23899842 .3293457 .24299622 .3403473 .24299622 .36035157 .24299622 .405365 .21099854 .4423828 .16099549 .4423828 .06599426 .4423828 .0289917 .29733277 .0289917 .28833009 .0289917 .27833558 .038986207 .27833558 .040985109 .27833558 .050994874 .27833558 .051986696 .28033448 .056991579 .29634095 .083999637 .3903656 .12399292 .42037965 .1579895 .42037965 .1659851 .42037965 .18299866 .42037965 .18299866 .3883667 .18299866 .36335755 .17298889 .3373413 .1659851 .31834413 .12599182 .21231079 .10798645 .1552887 .10798645 .10827637 .10798645 .019256592 .17098999-.0107421879 .22999573-.0107421879 .2689972-.0107421879 .30299378 .0062561037 .33099366 .03425598 .31799317-.017745972 .30599977-.06674194 .2659912-.11973572 .23999024-.15385437 .20199585-.18309021 .1559906-.18309021 .14199829-.18309021 .09700012-.18005371 .07998657-.14074707 .09599304-.14074707 .10899353-.14074707 .12298584-.1287384 .1329956-.11973572 .14299011-.10673523 .14299011-.08773804 .14299011-.056747438 .115997318-.052734376 .10598755-.052734376 .08299255-.052734376 .049987794-.068740848 .049987794-.11773682 .049987794-.16796875 .09399414-.20507813 .1559906-.20507813 .25898744-.20507813 .3619995-.11373901 .3899994-.00074768069L.48599244 .38136292Z"/>
<path id="font_2_83" d="M.6239929 .4967041C.6239929 .59465029 .5249939 .6826172 .3880005 .6826172H.034988405V.6516113H.05899048C.13598633 .6516113 .13798523 .64060977 .13798523 .6046295V.07795715C.13798523 .041992189 .13598633 .0309906 .05899048 .0309906H.034988405V0C.069992069 .0029907227 .14399719 .0029907227 .18199158 .0029907227 .21998596 .0029907227 .29499818 .0029907227 .32998658 0V.0309906H.30599977C.22898865 .0309906 .22698975 .041992189 .22698975 .07795715V.3157959H.3959961C.5159912 .3157959 .6239929 .39675904 .6239929 .4967041M.5209961 .4967041C.5209961 .4497223 .5209961 .34179688 .3619995 .34179688H.22399903V.6116333C.22399903 .64460757 .22599793 .6516113 .272995 .6516113H.3619995C.5209961 .6516113 .5209961 .54566958 .5209961 .4967041Z"/>
<path id="font_2_85" d="M.33099366-.2400055C.33099366-.23701477 .33099366-.23500061 .31399537-.21800232 .18899536-.0920105 .15699768 .09700012 .15699768 .25 .15699768 .42399598 .19499207 .59799197 .31799317 .72299197 .33099366 .7350006 .33099366 .7369995 .33099366 .73999026 .33099366 .746994 .32699586 .75 .32099916 .75 .31098939 .75 .22099304 .6819916 .1619873 .5549927 .11099243 .44499208 .09899902 .33399964 .09899902 .25 .09899902 .17199707 .10998535 .050994874 .16499329-.06201172 .22499085-.18501282 .31098939-.25 .32099916-.25 .32699586-.25 .33099366-.24700928 .33099366-.2400055Z"/>
<path id="font_2_64" d="M.27598573 .18710327V.24511719H.010986328V.18710327H.27598573Z"/>
<path id="font_2_82" d="M.4189911 0V.0309906H.3869934C.29699708 .0309906 .2939911 .041992189 .2939911 .07902527V.64012148C.2939911 .6640167 .2939911 .6660156 .2709961 .6660156 .20899964 .60227969 .12098694 .60227969 .08898926 .60227969V.57128909C.10899353 .57128909 .16799927 .57128909 .21998596 .5972748V.07902527C.21998596 .042999269 .21699524 .0309906 .1269989 .0309906H.09498596V0C.12998963 .0029907227 .21699524 .0029907227 .25698854 .0029907227 .29699708 .0029907227 .38398744 .0029907227 .4189911 0Z"/>
<path id="font_2_45" d="M.20298767 .0009918213C.20298767 .06498718 .1789856 .10598755 .13899231 .10598755 .10398865 .10598755 .085998538 .07899475 .085998538 .052993776 .085998538 .026992798 .102996829 0 .13899231 0 .1539917 0 .16799927 .005996704 .1789856 .015991211 .18099976-.06312561 .15299988-.12423706 .10899353-.17132569 .102996829-.17733765 .101989749-.17834473 .101989749-.18234253 .101989749-.18936157 .10699463-.19335938 .11199951-.19335938 .12399292-.19335938 .20298767-.114227298 .20298767 .0009918213Z"/>
<path id="font_2_121" d="M.45999146 .31976319C.45999146 .39982606 .45498658 .47988893 .41999818 .5539398 .37399293 .65000918 .2919922 .6660156 .25 .6660156 .18998719 .6660156 .116989139 .64001467 .07598877 .54693606 .04399109 .47789 .038986207 .39982606 .038986207 .31976319 .038986207 .24472046 .042999269 .15464783 .083999637 .07859802 .1269989-.0024719239 .19999695-.022460938 .24899292-.022460938 .30299378-.022460938 .3789978-.0014648438 .4229889 .09359741 .45498658 .16265869 .45999146 .2407074 .45999146 .31976319M.3769989 .3317871C.3769989 .25672914 .3769989 .18867493 .3659973 .12461853 .35099793 .029556275 .2939911-.00047302247 .24899292-.00047302247 .20999146-.00047302247 .15098572 .024551392 .1329956 .12062073 .12199402 .18066406 .12199402 .2727356 .12199402 .3317871 .12199402 .39582826 .12199402 .46188355 .12998963 .5159149 .14898682 .63500979 .22399903 .64401248 .24899292 .64401248 .28199769 .64401248 .34799195 .6259918 .36698915 .52693179 .3769989 .47088624 .3769989 .39482118 .3769989 .3317871Z"/>
<path id="font_2_86" d="M.2889862 .25C.2889862 .32798768 .27799989 .44898988 .22299195 .56199648 .16299439 .68499758 .07699585 .75 .066986087 .75 .06098938 .75 .056991579 .74598696 .056991579 .73999026 .056991579 .7369995 .056991579 .7350006 .07598877 .71699526 .17399597 .6179962 .23098755 .45899964 .23098755 .25 .23098755 .07899475 .19400025-.09700012 .069992069-.2230072 .056991579-.23500061 .056991579-.23701477 .056991579-.2400055 .056991579-.2460022 .06098938-.25 .066986087-.25 .07699585-.25 .16699219-.18200684 .22599793-.055007936 .2769928 .054992677 .2889862 .16600037 .2889862 .25Z"/>
</defs>
<path transform="matrix(1.00006,0,0,-1.00002,100.0041,91.39257)" stroke-width=".3985" stroke-linecap="butt" stroke-miterlimit="10" stroke-linejoin="miter" fill="none" stroke="#000000" d="M-77.73285 0H77.73285"/>
<path transform="matrix(-1.00006,-0,0,1.00002,22.266587,91.39257)" d="M1.99252 0-1.19551 1.59401 0 0-1.19551-1.59401"/>
<path transform="matrix(1.00006,0,0,-1.00002,177.74161,91.39257)" d="M1.99252 0-1.19551 1.59401 0 0-1.19551-1.59401"/>
<use data-text="x" xlink:href="#font_1_1" transform="matrix(9.963197,0,0,-9.962799,183.25409,93.53761)"/>
<path transform="matrix(1.00006,0,0,-1.00002,100.0041,91.39257)" stroke-width=".3985" stroke-linecap="butt" stroke-miterlimit="10" stroke-linejoin="miter" fill="none" stroke="#000000" d="M0-77.73285V77.73285"/>
<path transform="matrix(0,1.00002,1.00006,0,100.0041,169.12699)" d="M1.99252 0-1.19551 1.59401 0 0-1.19551-1.59401"/>
<path transform="matrix(0,-1.00002,-1.00006,-0,100.0041,13.658165)" d="M1.99252 0-1.19551 1.59401 0 0-1.19551-1.59401"/>
<use data-text="y" xlink:href="#font_1_2" transform="matrix(9.963197,0,0,-9.962799,97.38294,6.2088625)"/>
<path transform="matrix(1.00006,0,0,-1.00002,100.0041,91.39257)" stroke-width=".3985" stroke-linecap="butt" stroke-miterlimit="10" stroke-linejoin="miter" fill="none" stroke="#000000" d="M63.7803 0C63.7803 35.22533 35.22533 63.7803 0 63.7803-35.22533 63.7803-63.7803 35.22533-63.7803 0-63.7803-35.22533-35.22533-63.7803 0-63.7803 35.22533-63.7803 63.7803-35.22533 63.7803 0ZM0 0"/>
<path transform="matrix(1.00006,0,0,-1.00002,100.0041,91.39257)" stroke-width="1.99255" stroke-linecap="butt" stroke-miterlimit="10" stroke-linejoin="miter" fill="none" stroke="#0000ff" d="M0 0H-63.7803"/>
<use data-text="P" xlink:href="#font_2_83" transform="matrix(9.963197,0,0,-9.962799,1.2161865,84.584438)"/>
<use data-text="(" xlink:href="#font_2_85" transform="matrix(9.963197,0,0,-9.962799,8.001129,84.584438)"/>
<use data-text="-" xlink:href="#font_2_64" transform="matrix(9.963197,0,0,-9.962799,11.876816,84.584438)"/>
<use data-text="1" xlink:href="#font_2_82" transform="matrix(9.963197,0,0,-9.962799,15.194565,84.584438)"/>
<use data-text="," xlink:href="#font_2_45" transform="matrix(9.963197,0,0,-9.962799,20.176148,84.584438)"/>
<use data-text="0" xlink:href="#font_2_121" transform="matrix(9.963197,0,0,-9.962799,22.945923,84.584438)"/>
<use data-text=")" xlink:href="#font_2_86" transform="matrix(9.963197,0,0,-9.962799,27.92752,84.584438)"/>
<path transform="matrix(1.00006,0,0,-1.00002,100.0041,91.39257)" d="M-61.53868 0C-61.53868 1.238-62.54228 2.24162-63.7803 2.24162-65.01833 2.24162-66.02193 1.238-66.02193 0-66.02193-1.238-65.01833-2.24162-63.7803-2.24162-62.54228-2.24162-61.53868-1.238-61.53868 0ZM-63.7803 0" fill="#0000ff"/>
<path transform="matrix(1.00006,0,0,-1.00002,100.0041,91.39257)" stroke-width="1.99255" stroke-linecap="butt" stroke-miterlimit="10" stroke-linejoin="miter" fill="none" stroke="#0000ff" d="M-61.53868 0C-61.53868 1.238-62.54228 2.24162-63.7803 2.24162-65.01833 2.24162-66.02193 1.238-66.02193 0-66.02193-1.238-65.01833-2.24162-63.7803-2.24162-62.54228-2.24162-61.53868-1.238-61.53868 0ZM-63.7803 0"/>
<path transform="matrix(1.00006,0,0,-1.00002,100.0041,91.39257)" stroke-width=".3985" stroke-linecap="butt" stroke-miterlimit="10" stroke-linejoin="miter" fill="none" stroke="#000000" d="M6.37839 0C6.37839 0 6.60753 1.01787 6.63141 1.42865 6.65529 1.8394 6.62354 2.53217 6.55064 2.96048 6.47777 3.3888 6.2813 4.09303 6.1059 4.51567 5.9305 4.9383 5.56474 5.61478 5.28645 6.00662 5.00816 6.39847 4.47546 7.0041 4.1001 7.33992 3.72475 7.67575 3.04135 8.17075 2.58092 8.42702 2.12048 8.68327 1.30899 9.03154 .78145 9.18706 .25392 9.34259-.64938 9.51047-1.22136 9.54813-1.79332 9.58578-2.75122 9.55002-3.341 9.45862-3.9308 9.36722-4.89482 9.1153-5.47232 8.88927-6.04984 8.66325-6.96953 8.18863-7.50342 7.82945-8.03731 7.47028-8.86075 6.78383-9.32039 6.30054-9.78003 5.81728-10.45975 4.9376-10.81621 4.34631-11.1727 3.75502-11.66202 2.71507-11.8897 2.03885-12.11736 1.36263-12.37796 .2053-12.45708-.52745-12.5362-1.26025-12.54286-2.48642-12.45999-3.2427-12.3771-3.999-12.11064-5.23549-11.85953-5.97841-11.60838-6.72133-11.06677-7.90555-10.64981-8.5973-10.23286-9.28905-9.42609-10.36072-8.85425-10.96416-8.28242-11.56758-7.23555-12.46655-6.52829-12.94658-5.821-13.4266-4.57199-14.09787-3.75655-14.42393-2.94112-14.75-1.54045-15.14865-.65103-15.2969 .23836-15.44514 1.72978-15.53897 2.65392-15.49251 3.57805-15.44608 5.09378-15.21135 6.00954-14.96211 6.9253-14.71286 8.39166-14.14572 9.25424-13.69595 10.1168-13.2462 11.46158-12.35878 12.2264-11.72035 12.99121-11.08191 14.14116-9.90019 14.7665-9.0946 15.39182-8.28902 16.28369-6.85571 16.73335-5.91417 17.183-4.97264 17.76305-3.34692 18.0073-2.30841 18.25154-1.26988 18.47594 .48026 18.49388 1.57072 18.51186 2.6612 18.35588 4.45851 18.13673 5.55116 17.91757 6.64381 17.37047 8.4034 16.91437 9.44595 16.45825 10.48851 15.53041 12.12457 14.8492 13.06534 14.16798 14.00609 12.88774 15.43597 12.00452 16.2263 11.12129 17.01663 9.53477 18.16495 8.48344 18.7615 7.4321 19.35806 5.60373 20.15933 4.4271 20.52594 3.25046 20.89255 1.25406 21.29349 .0029 21.4038-1.24825 21.5141-3.3212 21.4817-4.59059 21.32106-5.85999 21.1604-7.91728 20.68004-9.14618 20.24567-10.37509 19.8113-12.31882 18.88797-13.44781 18.19025-14.57678 17.49255-16.3109 16.15462-17.28323 15.2171-18.25554 14.27959-19.69122 12.57547-20.4559 11.43323-21.22057 10.29102-22.28087 8.28516-22.79453 6.98471-23.30817 5.68425-23.92778 3.46294-24.15797 2.06026-24.38818 .65756-24.52727-1.68163-24.45384-3.12494-24.3804-4.56827-24.01257-6.92424-23.62857-8.34232-23.24455-9.76039-22.37236-12.02002-21.68602-13.34561-20.99966-14.67119-19.64839-16.72781-18.6817-17.89633-17.71503-19.06487-15.92975-20.81595-14.71881-21.76776-13.50787-22.71957-11.36017-24.07243-9.95396-24.75648-8.54774-25.44054-6.12569-26.32147-4.5838-26.69807-3.0419-27.07466-.45125-27.42854 1.15907-27.47078 2.76941-27.51302 5.4162-27.30673 7.02264-27.00266 8.62909-26.69858 11.20975-25.92538 12.73735-25.27913 14.26495-24.63287 16.65704-23.3133 18.03258-22.34486 19.4081-21.37643 21.49599-19.55432 22.65144-18.29924 23.8069-17.04413 25.48456-14.79044 26.36037-13.29887 27.23618-11.80733 28.41574-9.2146 28.9637-7.54915 29.51166-5.88371 30.12386-3.06232 30.30965-1.2953 30.49545 .47166 30.49725 3.39626 30.30284 5.1862 30.10843 6.97615 29.48439 9.8744 28.90823 11.60548 28.33205 13.33658 27.09155 16.07225 26.15015 17.66277 25.20874 19.25327 23.39536 21.6961 22.12297 23.06894 20.85062 24.44176 18.53285 26.47108 16.97958 27.55737 15.42633 28.64368 12.69785 30.15579 10.92813 30.89844 9.15843 31.64108 6.13452 32.5537 4.22469 32.91003 2.31485 33.26637-.87111 33.5226-2.83687 33.46672-4.80263 33.41083-8.01057 32.98311-9.94325 32.50714-11.87595 32.03119-14.95673 30.92036-16.76642 30.03618-18.57611 29.152-21.3856 27.3956-22.98624 26.13455-24.58687 24.8735-26.98969 22.53638-28.30287 20.94734-29.61604 19.35829-31.49199 16.53363-32.45071 14.68184-33.40942 12.83003-34.66042 9.63603-35.21268 7.60072-35.76494 5.56541-36.43115 .0126-36.19386 1.99088"/>
<path transform="matrix(-.11910714,.9928599,.99289956,.11910238,63.808076,89.40165)" d="M1.99252 0-1.19551 1.59401 0 0-1.19551-1.59401"/>
</svg>
