<svg xmlns="http://www.w3.org/2000/svg" xmlns:xlink="http://www.w3.org/1999/xlink" xmlns:inkscape="http://www.inkscape.org/namespaces/inkscape" version="1.1" width="204" height="173" viewBox="0 0 204 173">
<defs>
<path id="font_1_1" d="M.6589966 .23046875C.6759949 .23046875 .69400027 .23046875 .69400027 .25045777 .69400027 .27046205 .6759949 .27046205 .6589966 .27046205H.117996219C.100997928 .27046205 .08299255 .27046205 .08299255 .25045777 .08299255 .23046875 .100997928 .23046875 .117996219 .23046875H.6589966Z"/>
<path id="font_2_3" d="M.1269989 .07699585 .23298645 .18003845C.3889923 .31811524 .44898988 .3721466 .44898988 .47216798 .44898988 .5860901 .35899354 .6660156 .23699951 .6660156 .12399292 .6660156 .049987794 .57411196 .049987794 .48516847 .049987794 .4291687 .099990848 .4291687 .102996829 .4291687 .11999512 .4291687 .15499878 .44117738 .15499878 .48217774 .15499878 .5081787 .13699341 .5341797 .101989749 .5341797 .09399414 .5341797 .09199524 .5341797 .08898926 .5331726 .11199951 .59806826 .1659851 .63500979 .22399903 .63500979 .31498719 .63500979 .35798646 .5541382 .35798646 .47216798 .35798646 .39215089 .30799867 .31311036 .25299073 .25108338L.06098938 .036987306C.049987794 .025985718 .049987794 .023986817 .049987794 0H.42099L.44898988 .17404175H.42399598C.4189911 .14402771 .4119873 .1000061 .4019928 .084991458 .394989 .07699585 .32899476 .07699585 .30699159 .07699585H.1269989Z"/>
<path id="font_3_1" d="M.2649994 .37265016H.37799073C.34498597 .22489929 .33599855 .18196106 .33599855 .11508179 .33599855 .100097659 .33599855 .073150638 .34399415 .03919983 .35398866-.0047454836 .36499024-.0107421879 .37998963-.0107421879 .3999939-.0107421879 .42099 .007247925 .42099 .02722168 .42099 .033218385 .42099 .035202028 .4149933 .049179079 .38598634 .12106323 .38598634 .18595886 .38598634 .21391297 .38598634 .26683045 .3929901 .32073976 .4039917 .37265016H.5179901C.5309906 .37265016 .5669861 .37265016 .5669861 .406662 .5669861 .43066407 .54599 .43066407 .5269928 .43066407H.19198609C.16999817 .43066407 .13198853 .43066407 .08799744 .38365174 .052993776 .34469605 .026992798 .29878236 .026992798 .29379273 .026992798 .29278565 .026992798 .28379823 .038986207 .28379823 .04699707 .28379823 .04899597 .28779603 .054992677 .29577638 .10398865 .37265016 .1619873 .37265016 .18199158 .37265016H.23899842C.20698548 .25186158 .15299988 .13105774 .11099243 .04020691 .102996829 .025222779 .102996829 .023223877 .102996829 .016235352 .102996829-.002746582 .11898804-.0107421879 .13198853-.0107421879 .1619873-.0107421879 .16999817 .017242432 .18199158 .05418396 .19599915 .100097659 .19599915 .10209656 .20899964 .15202332L.2649994 .37265016Z"/>
<path id="font_2_2" d="M.2939911 .64004519C.2939911 .66400149 .2939911 .6660156 .2709961 .6660156 .20899964 .60227969 .12098694 .60227969 .08898926 .60227969V.57128909C.10899353 .57128909 .16799927 .57128909 .21998596 .5972748V.07902527C.21998596 .042999269 .21699524 .0309906 .1269989 .0309906H.09498596V0C.12998963 .0029907227 .21699524 .0029907227 .25698854 .0029907227 .29699708 .0029907227 .38398744 .0029907227 .4189911 0V.0309906H.3869934C.29699708 .0309906 .2939911 .041992189 .2939911 .07902527V.64004519Z"/>
<path id="font_2_1" d="M.45999146 .31976319C.45999146 .39982606 .45498658 .47988893 .41999818 .5539398 .37399293 .65000918 .2919922 .6660156 .25 .6660156 .18998719 .6660156 .116989139 .64001467 .07598877 .54693606 .04399109 .47789 .038986207 .39982606 .038986207 .31976319 .038986207 .24472046 .042999269 .15464783 .083999637 .07859802 .1269989-.0024719239 .19999695-.022460938 .24899292-.022460938 .30299378-.022460938 .3789978-.0014648438 .4229889 .09359741 .45498658 .16265869 .45999146 .2407074 .45999146 .31976319M.24899292-.00047302247C.20999146-.00047302247 .15098572 .024551392 .1329956 .12062073 .12199402 .18066406 .12199402 .2727356 .12199402 .3317871 .12199402 .39582826 .12199402 .46188355 .12998963 .5159149 .14898682 .63500979 .22399903 .64401248 .24899292 .64401248 .28199769 .64401248 .34799195 .6259918 .36698915 .52693179 .3769989 .47088624 .3769989 .39482118 .3769989 .3317871 .3769989 .25672914 .3769989 .18867493 .3659973 .12461853 .35099793 .029556275 .2939911-.00047302247 .24899292-.00047302247Z"/>
<path id="font_2_4" d="M.44898988 .20022583C.44898988 .3193512 .36698915 .41944886 .25898744 .41944886 .21099854 .41944886 .16799927 .40345765 .13198853 .36842347V.5637665C.1519928 .5577698 .18499756 .55078127 .21699524 .55078127 .33999635 .55078127 .4099884 .6417694 .4099884 .6547699 .4099884 .6607666 .40699769 .6657715 .3999939 .6657715 .39898683 .6657715 .39698792 .6657715 .3919983 .66278079 .37199403 .6537781 .32299806 .6337738 .2559967 .6337738 .21598816 .6337738 .16999817 .6407776 .12298584 .6617737 .114990238 .66477969 .11299133 .66477969 .11099243 .66477969 .100997928 .66477969 .100997928 .6567688 .100997928 .6407776V.34439088C.100997928 .32637025 .100997928 .31835938 .114990238 .31835938 .12199402 .31835938 .12399292 .32136537 .12799073 .32736207 .13899231 .3433838 .17599488 .39746095 .25698854 .39746095 .30899049 .39746095 .33399964 .35139466 .34199525 .33337403 .35798646 .29632569 .3600006 .25727845 .3600006 .20722962 .3600006 .17222595 .3600006 .11222839 .33599855 .07035828 .31199647 .031463624 .2749939 .0055389406 .22898865 .0055389406 .1559906 .0055389406 .09899902 .058380128 .08198547 .11723328 .084991458 .1162262 .08799744 .115234378 .09899902 .115234378 .13198853 .115234378 .14898682 .14022827 .14898682 .16423035 .14898682 .18823242 .13198853 .21322632 .09899902 .21322632 .084991458 .21322632 .049987794 .20622254 .049987794 .16023255 .049987794 .07434082 .11898804-.022460938 .23098755-.022460938 .34700013-.022460938 .44898988 .073349 .44898988 .20022583Z"/>
<path id="font_4_85" d="M.33099366-.2400055C.33099366-.23701477 .33099366-.23500061 .31399537-.21800232 .18899536-.0920105 .15699768 .09700012 .15699768 .25 .15699768 .42399598 .19499207 .59799197 .31799317 .72299197 .33099366 .7350006 .33099366 .7369995 .33099366 .73999026 .33099366 .746994 .32699586 .75 .32099916 .75 .31098939 .75 .22099304 .6819916 .1619873 .5549927 .11099243 .44499208 .09899902 .33399964 .09899902 .25 .09899902 .17199707 .10998535 .050994874 .16499329-.06201172 .22499085-.18501282 .31098939-.25 .32099916-.25 .32699586-.25 .33099366-.24700928 .33099366-.2400055Z"/>
<path id="font_4_46" d="M.70700076 .33580018C.70700076 .52568057 .57199099 .6826172 .40098573 .6826172H.034988405V.6516113H.05899048C.13598633 .6516113 .13798523 .64060977 .13798523 .6046295V.07795715C.13798523 .041992189 .13598633 .0309906 .05899048 .0309906H.034988405V0H.40098573C.56900027 0 .70700076 .1479187 .70700076 .33580018M.6069946 .33580018C.6069946 .22486878 .58799746 .16490174 .5519867 .11593628 .5319977 .08895874 .47499085 .0309906 .37399293 .0309906H.272995C.22599793 .0309906 .22399903 .037994386 .22399903 .07096863V.6116333C.22399903 .64460757 .22599793 .6516113 .272995 .6516113H.37298585C.43499757 .6516113 .5039978 .6296234 .5549927 .55867007 .59799197 .49969483 .6069946 .41375733 .6069946 .33580018Z"/>
<path id="font_4_86" d="M.2889862 .25C.2889862 .32798768 .27799989 .44898988 .22299195 .56199648 .16299439 .68499758 .07699585 .75 .066986087 .75 .06098938 .75 .056991579 .74598696 .056991579 .73999026 .056991579 .7369995 .056991579 .7350006 .07598877 .71699526 .17399597 .6179962 .23098755 .45899964 .23098755 .25 .23098755 .07899475 .19400025-.09700012 .069992069-.2230072 .056991579-.23500061 .056991579-.23701477 .056991579-.2400055 .056991579-.2460022 .06098938-.25 .066986087-.25 .07699585-.25 .16699219-.18200684 .22599793-.055007936 .2769928 .054992677 .2889862 .16600037 .2889862 .25Z"/>
<path id="font_3_2" d="M.33399964 .30233766C.33999635 .32835389 .36299134 .42037965 .43299867 .42037965 .43798829 .42037965 .46199037 .42037965 .48298646 .40734864 .45498658 .402359 .43499757 .37734986 .43499757 .35334779 .43499757 .33735658 .44599916 .31835938 .47299195 .31835938 .49499513 .31835938 .5269928 .3363495 .5269928 .37635804 .5269928 .42837525 .46798707 .4423828 .43399049 .4423828 .37599183 .4423828 .34098817 .38935853 .32899476 .36634828 .3039856 .43237306 .25 .4423828 .22099304 .4423828 .116989139 .4423828 .05999756 .3133545 .05999756 .28834535 .05999756 .27833558 .069992069 .27833558 .07199097 .27833558 .07998657 .27833558 .08299255 .28033448 .084991458 .28933717 .11898804 .39535523 .18499756 .42037965 .21899414 .42037965 .23799134 .42037965 .272995 .4113617 .272995 .35334779 .272995 .32235719 .2559967 .25532533 .21899414 .11528015 .20298767 .053268434 .16799927 .011245728 .12399292 .011245728 .117996219 .011245728 .09498596 .011245728 .07398987 .024276734 .09899902 .029266358 .12098694 .05027771 .12098694 .07827759 .12098694 .105270389 .09899902 .11328125 .083999637 .11328125 .053985597 .11328125 .0289917 .08728027 .0289917 .055267335 .0289917 .009246826 .07899475-.0107421879 .12298584-.0107421879 .18899536-.0107421879 .22499085 .059280397 .22799683 .0652771 .23999024 .028274537 .27598573-.0107421879 .33599855-.0107421879 .43899537-.0107421879 .49598695 .118270877 .49598695 .14328003 .49598695 .1532898 .4869995 .1532898 .48399354 .1532898 .47499085 .1532898 .47299195 .14929199 .47099305 .14228821 .43798829 .03527832 .36999513 .011245728 .33799745 .011245728 .29899598 .011245728 .2829895 .043273927 .2829895 .07727051 .2829895 .09927368 .2889862 .121276859 .2999878 .16529846L.33399964 .30233766Z"/>
<path id="font_3_3" d="M.48599244 .38136292C.48999024 .39537049 .48999024 .39736939 .48999024 .40437318 .48999024 .42237855 .47599793 .43138124 .46099855 .43138124 .45098878 .43138124 .43499757 .42536927 .42599488 .41036988 .42399598 .405365 .41600038 .37435914 .4119873 .35635377 .40499879 .33035279 .397995 .30334474 .3919983 .27633668L.34700013 .09628296C.34298707 .08126831 .2999878 .011245728 .23399353 .011245728 .18299866 .011245728 .17199707 .055267335 .17199707 .0922699 .17199707 .1382904 .18899536 .20030213 .22299195 .28833009 .23899842 .3293457 .24299622 .3403473 .24299622 .36035157 .24299622 .405365 .21099854 .4423828 .16099549 .4423828 .06599426 .4423828 .0289917 .29733277 .0289917 .28833009 .0289917 .27833558 .038986207 .27833558 .040985109 .27833558 .050994874 .27833558 .051986696 .28033448 .056991579 .29634095 .083999637 .3903656 .12399292 .42037965 .1579895 .42037965 .1659851 .42037965 .18299866 .42037965 .18299866 .3883667 .18299866 .36335755 .17298889 .3373413 .1659851 .31834413 .12599182 .21231079 .10798645 .1552887 .10798645 .10827637 .10798645 .019256592 .17098999-.0107421879 .22999573-.0107421879 .2689972-.0107421879 .30299378 .0062561037 .33099366 .03425598 .31799317-.017745972 .30599977-.06674194 .2659912-.11973572 .23999024-.15385437 .20199585-.18309021 .1559906-.18309021 .14199829-.18309021 .09700012-.18005371 .07998657-.14074707 .09599304-.14074707 .10899353-.14074707 .12298584-.1287384 .1329956-.11973572 .14299011-.10673523 .14299011-.08773804 .14299011-.056747438 .115997318-.052734376 .10598755-.052734376 .08299255-.052734376 .049987794-.068740848 .049987794-.11773682 .049987794-.16796875 .09399414-.20507813 .1559906-.20507813 .25898744-.20507813 .3619995-.11373901 .3899994-.00074768069L.48599244 .38136292Z"/>
</defs>
<path transform="matrix(1.00005,0,0,-1.00003,8.245712,168.30167)" stroke-width=".19925" stroke-linecap="butt" stroke-miterlimit="10" stroke-linejoin="miter" fill="none" stroke="#7f807f" d="M1.3551 79.28084V82.1155M11.99805 79.28084V82.1155M22.641 79.28084V82.1155M33.28398 79.28084V82.1155M43.92694 79.28084V82.1155M54.56992 79.28084V82.1155M65.21288 79.28084V82.1155M75.85585 79.28084V82.1155M86.4988 79.28084V82.1155M97.14175 79.28084V82.1155M107.78473 79.28084V82.1155M118.42769 79.28084V82.1155M129.07067 79.28084V82.1155M139.71363 79.28084V82.1155M150.35659 79.28084V82.1155M160.99956 79.28084V82.1155M171.64252 79.28084V82.1155M182.28549 79.28084V82.1155M192.92847 79.28084V82.1155"/>
<path transform="matrix(1.00005,0,0,-1.00003,8.245712,168.30167)" stroke-width=".19925" stroke-linecap="butt" stroke-miterlimit="10" stroke-linejoin="miter" fill="none" stroke="#7f807f" d="M1.3551 78.57237V82.82396M43.92694 78.57237V82.82396M129.07067 78.57237V82.82396M171.64252 78.57237V82.82396"/>
<path transform="matrix(1.00005,0,0,-1.00003,8.245712,168.30167)" stroke-width=".19925" stroke-linecap="butt" stroke-miterlimit="10" stroke-linejoin="miter" fill="none" stroke="#7f807f" d="M84.37296 0H88.62465M84.37296 40.34909H88.62465M84.37296 121.04727H88.62465M84.37296 161.39636H88.62465"/>
<path transform="matrix(1.00005,0,0,-1.00003,8.245712,168.30167)" stroke-width=".3985" stroke-linecap="butt" stroke-miterlimit="10" stroke-linejoin="miter" fill="none" stroke="#000000" d="M0 80.69818H192.29102"/>
<path transform="matrix(1.00005,0,0,-1.00003,200.54633,87.60106)" d="M1.99252 0-1.19551 1.59401 0 0-1.19551-1.59401"/>
<path transform="matrix(1.00005,0,0,-1.00003,8.245712,168.30167)" stroke-width=".3985" stroke-linecap="butt" stroke-miterlimit="10" stroke-linejoin="miter" fill="none" stroke="#000000" d="M86.4988 0V159.40384"/>
<path transform="matrix(0,-1.00003,-1.00005,-0,94.74883,8.893036)" d="M1.99252 0-1.19551 1.59401 0 0-1.19551-1.59401"/>
<use data-text="&#x2212;" xlink:href="#font_1_1" transform="matrix(9.963098,0,0,-9.962899,.21731568,99.6676)"/>
<use data-text="2" xlink:href="#font_2_3" transform="matrix(9.963098,0,0,-9.962899,7.9667055,99.6676)"/>
<use data-text="&#x03c0;" xlink:href="#font_3_1" transform="matrix(9.963098,0,0,-9.962899,12.94796,99.6676)"/>
<use data-text="&#x2212;" xlink:href="#font_1_1" transform="matrix(9.963098,0,0,-9.962899,45.281564,99.058589)"/>
<use data-text="&#x03c0;" xlink:href="#font_3_1" transform="matrix(9.963098,0,0,-9.962899,53.030954,99.058589)"/>
<use data-text="&#x03c0;" xlink:href="#font_3_1" transform="matrix(9.963098,0,0,-9.962899,134.30402,97.53654)"/>
<use data-text="2" xlink:href="#font_2_3" transform="matrix(9.963098,0,0,-9.962899,174.38802,99.6676)"/>
<use data-text="&#x03c0;" xlink:href="#font_3_1" transform="matrix(9.963098,0,0,-9.962899,179.36927,99.6676)"/>
<use data-text="&#x2212;" xlink:href="#font_1_1" transform="matrix(9.963098,0,0,-9.962899,71.38986,171.09676)"/>
<use data-text="1" xlink:href="#font_2_2" transform="matrix(9.963098,0,0,-9.962899,79.13925,171.09676)"/>
<use data-text="0" xlink:href="#font_2_1" transform="matrix(9.963098,0,0,-9.962899,84.120807,171.09676)"/>
<use data-text="&#x2212;" xlink:href="#font_1_1" transform="matrix(9.963098,0,0,-9.962899,76.372119,130.74654)"/>
<use data-text="5" xlink:href="#font_2_4" transform="matrix(9.963098,0,0,-9.962899,84.121509,130.74654)"/>
<use data-text="5" xlink:href="#font_2_4" transform="matrix(9.963098,0,0,-9.962899,84.121509,50.46113)"/>
<use data-text="1" xlink:href="#font_2_2" transform="matrix(9.963098,0,0,-9.962899,79.13925,10.110916)"/>
<use data-text="0" xlink:href="#font_2_1" transform="matrix(9.963098,0,0,-9.962899,84.120807,10.110916)"/>
<path transform="matrix(1.00005,0,0,-1.00003,8.245712,168.30167)" stroke-width=".99628" stroke-linecap="butt" stroke-miterlimit="10" stroke-linejoin="miter" fill="none" stroke="#0000ff" d="M10.30328 5.18352 10.40822 8.4983 10.60445 13.57422 10.80066 17.79395 10.99689 21.35918 11.19312 24.41037 11.38934 27.05243 11.58556 29.35878 11.78178 31.39804 11.97801 33.20486 12.17424 34.81721 12.37045 36.26816 12.56668 37.57709 12.76291 38.76659 12.95912 39.85037 13.15535 40.84134 13.35158 41.74998 13.54779 42.59006 13.744 43.36476 13.94023 44.0838 14.13646 44.74956 14.33269 45.37012 14.5289 45.94954 14.72513 46.491 14.92136 46.99861 15.11758 47.47472 15.3138 47.9226 15.51003 48.34546 15.70625 48.74088 15.90247 49.11693 16.0987 49.4704 16.29492 49.80771 16.49115 50.12566 16.68738 50.42746 16.88359 50.71477 17.0798 50.98671 17.27603 51.24657 17.47224 51.49269 17.66847 51.72752 17.8647 51.95187 18.06093 52.1665 18.25714 52.37068 18.45337 52.56677 18.6496 52.7532 18.84583 52.93073 19.04204 53.1018 19.23827 53.26563 19.4345 53.42218 19.63072 53.57228 19.82693 53.71674 20.02316 53.85472 20.21939 53.98627 20.4156 54.11296 20.61182 54.23482 20.80804 54.35182 21.00427 54.464 21.2005 54.57213 21.39671 54.67462 21.59294 54.77388 21.78917 54.8691 21.9854 54.9603 22.18161 55.04906 22.37784 55.133 22.57407 55.21288 22.77028 55.29034 22.9665 55.36378 23.16273 55.43561 23.35896 55.5042 23.55518 55.56955 23.75139 55.63089 23.94762 55.6914 24.14384 55.7479 24.34006 55.80359 24.53629 55.85522 24.73251 55.90607 24.92874 55.95288 25.12495 55.99644 25.32118 56.04004 25.51741 56.08038 25.71364 56.11992 25.90985 56.15543 26.10608 56.19014 26.3023 56.22241 26.49854 56.25145 26.69475 56.28133 26.89098 56.30713 27.0872 56.33215 27.28342 56.35394 27.47963 56.37492 27.67586 56.39429 27.87209 56.41205 28.0683 56.42657 28.26453 56.4403 28.46075 56.45241 28.65698 56.46207 28.85321 56.47095 29.04942 56.47821 29.24565 56.48306 29.44188 56.48709 29.63809 56.48872H29.83432L30.03056 56.48709 30.22676 56.48306 30.423 56.47821 30.61919 56.47095 30.81543 56.46207 31.01166 56.45241 31.20787 56.4403 31.4041 56.42657 31.60031 56.41205 31.79655 56.39429 31.99278 56.37492 32.189 56.35394 32.38522 56.33215 32.58144 56.30713 32.77766 56.28133 32.9739 56.25307 33.1701 56.22241 33.36635 56.19014 33.56255 56.15543 33.75879 56.11992 33.95502 56.08038 34.15121 56.04004 34.34746 55.99644 34.54366 55.95288 34.7399 55.90607 34.93613 55.85522 35.13234 55.80359 35.32857 55.7479 35.52478 55.6914 35.72101 55.63089 35.91725 55.56955 36.11345 55.5042 36.3097 55.43561 36.50589 55.3654 36.70213 55.29034 36.89838 55.21368 37.09457 55.133 37.29082 55.04906 37.487 54.9603 37.68324 54.8691 37.87947 54.77388 38.07568 54.67462 38.27191 54.57213 38.46812 54.464 38.66435 54.35182 38.8606 54.23482 39.0568 54.11296 39.25304 53.98627 39.44925 53.85472 39.64548 53.71674 39.84172 53.57228 40.03792 53.42218 40.23416 53.26563 40.43036 53.1018 40.6266 52.93234 40.82283 52.7532 41.01903 52.56677 41.21526 52.37068 41.41147 52.1665 41.60771 51.95187 41.80394 51.72913 42.00015 51.49269 42.19638 51.24657 42.3926 50.98671 42.58882 50.71477 42.78506 50.42746 42.98126 50.12729 43.1775 49.80771 43.3737 49.472 43.56995 49.11693 43.76617 48.74088 43.96239 48.34546 44.15863 47.9226 44.35481 47.47472 44.55106 46.99861 44.74728 46.49182 44.9435 45.94954 45.13972 45.37172 45.33594 44.75116 45.53217 44.0838 45.72841 43.36476 45.9246 42.59006 46.12085 41.75241 46.31705 40.84296 46.51329 39.85037 46.70953 38.76659 46.90573 37.5779 47.10197 36.26816 47.29817 34.81883 47.49442 33.20567 47.69063 31.39964 47.88684 29.36526 48.08307 27.05647 48.27928 24.4136 48.47551 21.3608 48.67175 17.79395 48.86795 13.57422 49.0642 8.50557 49.16914 5.18996"/>
<path transform="matrix(-.031601579,.99950006,.99951997,.03160095,18.549527,163.118)" d="M2.8892 0-1.73352 2.31136 0 0-1.73352-2.31136" fill="#0000ff"/>
<path transform="matrix(.03159158,.99950006,.99951997,-.03159095,57.41731,163.11156)" d="M2.8892 0-1.73352 2.31136 0 0-1.73352-2.31136" fill="#0000ff"/>
<path transform="matrix(1.00005,0,0,-1.00003,8.245712,168.30167)" stroke-width=".99628" stroke-linecap="butt" stroke-miterlimit="10" stroke-linejoin="miter" fill="none" stroke="#0000ff" d="M52.28767 151.47072 52.44348 141.66321 52.64516 132.09969 52.84683 124.6819 53.0485 118.73363 53.25017 113.87158 53.45186 109.81407 53.65352 106.38116 53.8552 103.44376 54.05685 100.90097 54.25853 98.67612 54.4602 96.71434 54.66188 94.97206 54.86356 93.41298 55.06522 92.01285 55.26689 90.74913 55.46857 89.60078 55.67024 88.55414 55.87192 87.59705 56.07358 86.71825 56.27525 85.90884 56.47693 85.15916 56.67859 84.46436 56.88026 83.82199 57.08194 83.22241 57.28362 82.66156 57.48529 82.13864 57.68695 81.64717 57.88863 81.18639 58.0903 80.75546 58.29198 80.34793 58.49365 79.9638 58.69531 79.60228 58.89699 79.25931 59.09866 78.9349 59.30034 78.62827 59.50201 78.33614 59.70367 78.06015 59.90535 77.79788 60.10703 77.5477 60.30869 77.30885 60.51038 77.0837 60.71204 76.86743 60.91371 76.66164 61.11539 76.46474 61.31705 76.27591 61.51872 76.09595 61.7204 75.92488 61.92207 75.76106 62.12375 75.60368 62.32541 75.4536 62.52708 75.30914 62.72874 75.17195 62.93044 75.03961 63.13211 74.9129 63.33377 74.79268 63.53545 74.67567 63.73712 74.56511 63.9388 74.45778 64.14047 74.35529 64.34213 74.25684 64.54381 74.1616 64.74548 74.07204 64.94714 73.9857 65.14883 73.90176 65.3505 73.82268 65.55217 73.74683 65.75385 73.67421 65.9555 73.60399 66.1572 73.53781 66.35886 73.47325 66.56053 73.41356 66.7622 73.35544 66.96387 73.29976 67.16554 73.2473 67.36722 73.19646 67.5689 73.14885 67.77057 73.10286 67.97223 73.06009 68.1739 73.01892 68.37558 72.981 68.57724 72.9439 68.77893 72.90999 68.98059 72.87772 69.18227 72.84785 69.38394 72.82121 69.5856 72.7954 69.7873 72.77037 69.98895 72.7486 70.19063 72.72841 70.3923 72.70985 70.59396 72.69371 70.79564 72.6792 70.99731 72.66708 71.19899 72.65578 71.40067 72.6469 71.60233 72.63965 71.804 72.634 72.00566 72.63158 72.20735 72.62836H72.40903L72.6107 72.63158 72.81236 72.634 73.01404 72.63965 73.2157 72.6469 73.41739 72.65578 73.61906 72.66708 73.82072 72.6792 74.02242 72.69371 74.22404 72.70985 74.42575 72.72841 74.62741 72.7486 74.82907 72.77037 75.03076 72.7954 75.2324 72.82121 75.4341 72.84785 75.63577 72.87772 75.83743 72.9108 76.03912 72.9439 76.24077 72.981 76.44246 73.01892 76.64413 73.06009 76.8458 73.10286 77.04749 73.14885 77.24913 73.19646 77.45082 73.2473 77.6525 73.29976 77.85416 73.35544 78.05585 73.41356 78.25749 73.47487 78.45918 73.53781 78.66087 73.60399 78.86252 73.67421 79.06421 73.74683 79.26585 73.82268 79.46754 73.90176 79.66924 73.9857 79.87088 74.07204 80.07257 74.1616 80.27422 74.25684 80.4759 74.35529 80.6776 74.45778 80.87924 74.56511 81.08092 74.67567 81.28258 74.79268 81.48425 74.9129 81.68594 75.03961 81.88759 75.17195 82.08928 75.30914 82.29092 75.4536 82.49261 75.60368 82.6943 75.76106 82.89595 75.92488 83.09764 76.09595 83.2993 76.27591 83.50098 76.46474 83.70267 76.66164 83.90431 76.86743 84.106 77.0837 84.30766 77.30885 84.50934 77.5477 84.71103 77.79788 84.91267 78.06015 85.11436 78.33775 85.31602 78.62827 85.5177 78.9349 85.71939 79.25931 85.92104 79.60228 86.12273 79.96542 86.32439 80.34793 86.52606 80.75467 86.72775 81.18639 86.9294 81.64717 87.13109 82.13864 87.33275 82.66156 87.53442 83.22241 87.73611 83.82199 87.93776 84.46597 88.13945 85.15916 88.3411 85.90804 88.54279 86.71906 88.74446 87.59705 88.94612 88.55493 89.1478 89.60161 89.34946 90.74913 89.55113 92.01285 89.75282 93.41377 89.95448 94.97206 90.15616 96.71434 90.35782 98.67612 90.5595 100.90097 90.76118 103.44456 90.96284 106.38116 91.16452 109.81407 91.36618 113.86916 91.56786 118.74089 91.76955 124.6819 91.9712 132.11583 92.17288 141.66321 92.32869 151.47072"/>
<path transform="matrix(-.015870793,-.99988,-.9998999,.015870477,60.535997,16.826416)" d="M2.8892 0-1.73352 2.31136 0 0-1.73352-2.31136" fill="#0000ff"/>
<path transform="matrix(.015870793,-.99988,-.9998999,-.015870477,100.57901,16.826416)" d="M2.8892 0-1.73352 2.31136 0 0-1.73352-2.31136" fill="#0000ff"/>
<path transform="matrix(1.00005,0,0,-1.00003,8.245712,168.30167)" stroke-width=".99628" stroke-linecap="butt" stroke-miterlimit="10" stroke-linejoin="miter" fill="none" stroke="#0000ff" d="M95.44696 5.18996 95.55194 8.50557 95.74817 13.56778 95.94438 17.79071 96.14061 21.35918 96.33682 24.41037 96.53304 27.05243 96.72926 29.35878 96.92549 31.39804 97.12172 33.20486 97.31793 34.81721 97.51416 36.26816 97.71039 37.57709 97.90662 38.76659 98.10283 39.85037 98.29906 40.84134 98.49529 41.74998 98.6915 42.58844 98.88773 43.36476 99.08395 44.0838 99.28018 44.75116 99.4764 45.37172 99.6726 45.94954 99.86884 46.49182 100.06506 46.99861 100.26128 47.47472 100.4575 47.9226 100.65373 48.34386 100.84995 48.74168 101.04617 49.11693 101.2424 49.4704 101.43863 49.80771 101.63484 50.12566 101.83107 50.42746 102.0273 50.71477 102.22353 50.98671 102.41974 51.24657 102.61597 51.49269 102.8122 51.72752 103.0084 51.95187 103.20462 52.1665 103.40085 52.37068 103.59708 52.56677 103.79329 52.7532 103.98952 52.93073 104.18575 53.1018 104.38197 53.26563 104.57819 53.42218 104.77441 53.57228 104.97064 53.71674 105.16685 53.85472 105.36308 53.98627 105.55931 54.11296 105.75554 54.23482 105.95175 54.35182 106.14798 54.464 106.34421 54.57213 106.54042 54.67462 106.73663 54.77388 106.93286 54.8691 107.12909 54.9603 107.3253 55.04906 107.52153 55.133 107.71776 55.21368 107.91399 55.29034 108.1102 55.3654 108.30643 55.43561 108.50266 55.5042 108.69887 55.56955 108.8951 55.63089 109.09132 55.6914 109.28755 55.7479 109.48376 55.80359 109.68 55.85522 109.87622 55.90607 110.07243 55.95288 110.26865 55.99644 110.46487 56.04004 110.6611 56.08038 110.85732 56.11992 111.05354 56.15463 111.24977 56.19014 111.446 56.22241 111.64221 56.25145 111.83844 56.28052 112.03467 56.30713 112.2309 56.33215 112.42711 56.35394 112.62334 56.37492 112.81956 56.39429 113.01578 56.41205 113.212 56.42657 113.40822 56.4403 113.60445 56.45241 113.80066 56.46207 113.99689 56.47095 114.19312 56.47821 114.38934 56.48306 114.58556 56.48709 114.78178 56.48872H114.97801L115.17424 56.48709 115.37045 56.48306 115.56668 56.47821 115.7629 56.47095 115.95912 56.46207 116.15536 56.45241 116.35156 56.4403 116.5478 56.42657 116.744 56.41205 116.94023 56.39429 117.13646 56.37492 117.33267 56.35394 117.5289 56.33215 117.72511 56.30713 117.92136 56.28133 118.11758 56.25307 118.3138 56.22241 118.51003 56.19014 118.70624 56.15543 118.90247 56.11992 119.09871 56.08038 119.2949 56.04004 119.49115 55.99644 119.68735 55.95288 119.88359 55.90607 120.07982 55.85683 120.27602 55.80359 120.47224 55.7479 120.66846 55.6914 120.8647 55.63089 121.06093 55.56955 121.25714 55.5042 121.45337 55.4364 121.64958 55.3654 121.84581 55.29034 122.04205 55.21368 122.23825 55.133 122.4345 55.04906 122.63069 54.96109 122.82693 54.8691 123.02316 54.77388 123.21938 54.67462 123.4156 54.57213 123.61182 54.464 123.80803 54.35182 124.00427 54.23482 124.20047 54.11296 124.39671 53.98706 124.59293 53.85472 124.78915 53.71674 124.98538 53.57228 125.1816 53.42218 125.37784 53.26563 125.57404 53.1018 125.77028 52.93234 125.9665 52.7532 126.16272 52.56677 126.35895 52.37068 126.55516 52.1665 126.75139 51.95187 126.94763 51.72913 127.14381 51.49269 127.34006 51.24657 127.53625 50.98671 127.7325 50.71477 127.92873 50.42746 128.12494 50.12729 128.32117 49.80771 128.51738 49.472 128.71363 49.11693 128.90985 48.74168 129.10607 48.34546 129.30229 47.92421 129.4985 47.47552 129.69474 46.99861 129.89098 46.49182 130.08718 45.94954 130.28342 45.37172 130.4796 44.75116 130.67584 44.0838 130.87207 43.36476 131.06829 42.59006 131.26451 41.75241 131.46073 40.84296 131.65697 39.85037 131.8532 38.7674 132.04941 37.5779 132.24564 36.26898 132.44185 34.81883 132.63808 33.20808 132.83432 31.39964 133.03052 29.36526 133.22676 27.05647 133.42296 24.4136 133.6192 21.3608 133.81543 17.79877 134.01163 13.58067 134.20786 8.50557 134.31266 5.19884"/>
<path transform="matrix(-.03159158,.99950006,.99951997,.03159095,103.69744,163.11156)" d="M2.8892 0-1.73352 2.31136 0 0-1.73352-2.31136" fill="#0000ff"/>
<path transform="matrix(.03165158,.99950006,.99951997,-.03165095,142.56507,163.10268)" d="M2.8892 0-1.73352 2.31136 0 0-1.73352-2.31136" fill="#0000ff"/>
<path transform="matrix(1.00005,0,0,-1.00003,8.245712,168.30167)" stroke-width=".99628" stroke-linecap="butt" stroke-miterlimit="10" stroke-linejoin="miter" fill="none" stroke="#0000ff" d="M137.43129 151.47072 137.5872 141.6487 137.78887 132.11098 137.99054 124.67706 138.19222 118.74089 138.39388 113.86916 138.59555 109.81407 138.79723 106.38116 138.9989 103.44376 139.20058 100.90097 139.40224 98.67612 139.60391 96.71434 139.80559 94.97206 140.00727 93.41377 140.20894 92.01529 140.4106 90.74913 140.61228 89.60078 140.81394 88.55414 141.01563 87.59705 141.2173 86.71906 141.41896 85.90884 141.62064 85.15916 141.82231 84.46436 142.02397 83.82199 142.22566 83.22241 142.42733 82.66156 142.629 82.13702 142.83068 81.64717 143.03234 81.18639 143.23401 80.75546 143.43569 80.34793 143.63736 79.96542 143.83904 79.60228 144.0407 79.25931 144.24237 78.9349 144.44405 78.62827 144.64572 78.33775 144.8474 78.06015 145.04906 77.79788 145.25074 77.5477 145.4524 77.30885 145.65409 77.0837 145.85576 76.86743 146.05742 76.66164 146.2591 76.46474 146.46077 76.27591 146.66243 76.09755 146.86412 75.92488 147.06578 75.76106 147.26746 75.60368 147.46913 75.4536 147.67079 75.30914 147.87247 75.17195 148.07415 75.03961 148.27582 74.9129 148.4775 74.79268 148.67916 74.67567 148.88083 74.56511 149.08249 74.45778 149.28418 74.35529 149.48586 74.25684 149.68752 74.1616 149.88919 74.07204 150.09085 73.9857 150.29254 73.90176 150.49422 73.82268 150.69588 73.74683 150.89756 73.67421 151.09923 73.60399 151.30089 73.53781 151.50258 73.47487 151.70424 73.41356 151.90592 73.35544 152.10759 73.29976 152.30925 73.2473 152.51094 73.19646 152.7126 73.14885 152.91428 73.10286 153.11595 73.06009 153.31761 73.01892 153.51929 72.981 153.72095 72.9439 153.92264 72.9108 154.12432 72.87772 154.32598 72.84785 154.52765 72.82121 154.72931 72.7954 154.93099 72.77037 155.13268 72.7486 155.33434 72.72841 155.53601 72.70985 155.73767 72.69371 155.93935 72.6792 156.14104 72.66708 156.3427 72.65578 156.54438 72.6469 156.74605 72.63965 156.94771 72.634 157.14939 72.63158 157.35106 72.62836H157.55274L157.75443 72.63158 157.95607 72.634 158.15776 72.63965 158.3594 72.6469 158.5611 72.65578 158.76277 72.66708 158.96443 72.6792 159.1661 72.69371 159.36775 72.70985 159.56945 72.72841 159.77114 72.7486 159.97278 72.77037 160.17447 72.7954 160.37612 72.82121 160.5778 72.84785 160.7795 72.87772 160.98114 72.9108 161.18283 72.9439 161.38449 72.981 161.58617 73.01892 161.78786 73.06009 161.9895 73.10286 162.1912 73.14885 162.39286 73.19646 162.59453 73.2473 162.79622 73.29976 162.99787 73.35544 163.19956 73.41356 163.40122 73.47325 163.60289 73.53781 163.80458 73.60399 164.00623 73.67421 164.20792 73.74683 164.40958 73.82268 164.61125 73.90176 164.81295 73.9857 165.01459 74.07204 165.21628 74.1616 165.41794 74.25684 165.61962 74.35529 165.8213 74.45778 166.02295 74.56511 166.22463 74.67567 166.42629 74.79268 166.62796 74.9129 166.82965 75.03961 167.03131 75.17195 167.23299 75.30914 167.43465 75.4536 167.63632 75.60368 167.83802 75.76106 168.03968 75.92488 168.24135 76.09595 168.44301 76.27591 168.64469 76.46474 168.84638 76.66164 169.04804 76.86743 169.24971 77.0837 169.45137 77.30885 169.65305 77.5477 169.85474 77.79788 170.0564 78.06015 170.25807 78.33614 170.45973 78.62827 170.6614 78.93571 170.8631 79.25931 171.06476 79.60228 171.26644 79.9638 171.4681 80.34793 171.66979 80.75546 171.87146 81.18639 172.07312 81.64879 172.2748 82.13864 172.47646 82.66156 172.67815 83.22241 172.87982 83.82199 173.08148 84.46436 173.28314 85.15755 173.4848 85.90884 173.6865 86.71906 173.88817 87.59705 174.08983 88.55493 174.2915 89.60161 174.49317 90.74913 174.69486 92.01285 174.89653 93.41377 175.09819 94.97206 175.29987 96.71434 175.50153 98.67612 175.70322 100.90097 175.90489 103.44376 176.10655 106.38681 176.30825 109.81407 176.50989 113.86916 176.71158 118.74089 176.91326 124.67706 177.11492 132.11098 177.3166 141.6487 177.47249 151.47072"/>
<path transform="matrix(-.015840792,-.99988,-.9998999,.015840475,145.68387,16.826416)" d="M2.8892 0-1.73352 2.31136 0 0-1.73352-2.31136" fill="#0000ff"/>
<path transform="matrix(.015840792,-.99988,-.9998999,-.015840475,185.72707,16.826416)" d="M2.8892 0-1.73352 2.31136 0 0-1.73352-2.31136" fill="#0000ff"/>
<path transform="matrix(1.00005,0,0,-1.00003,8.245712,168.30167)" stroke-width=".3985" stroke-linecap="butt" stroke-dasharray="2.98883,2.98883" stroke-miterlimit="10" stroke-linejoin="miter" fill="none" stroke="#ff0000" d="M8.45036 0V161.39636"/>
<path transform="matrix(1.00005,0,0,-1.00003,8.245712,168.30167)" stroke-width=".3985" stroke-linecap="butt" stroke-dasharray="2.98883,2.98883" stroke-miterlimit="10" stroke-linejoin="miter" fill="none" stroke="#ff0000" d="M51.02223 0V161.39636"/>
<path transform="matrix(1.00005,0,0,-1.00003,8.245712,168.30167)" stroke-width=".3985" stroke-linecap="butt" stroke-dasharray="2.98883,2.98883" stroke-miterlimit="10" stroke-linejoin="miter" fill="none" stroke="#ff0000" d="M93.59407 0V161.39636"/>
<path transform="matrix(1.00005,0,0,-1.00003,8.245712,168.30167)" stroke-width=".3985" stroke-linecap="butt" stroke-dasharray="2.98883,2.98883" stroke-miterlimit="10" stroke-linejoin="miter" fill="none" stroke="#ff0000" d="M136.16594 0V161.39636"/>
<path transform="matrix(1.00005,0,0,-1.00003,8.245712,168.30167)" stroke-width=".3985" stroke-linecap="butt" stroke-dasharray="2.98883,2.98883" stroke-miterlimit="10" stroke-linejoin="miter" fill="none" stroke="#ff0000" d="M178.73778 0V161.39636"/>
<use data-text="(" xlink:href="#font_4_85" transform="matrix(9.963098,0,0,-9.962899,19.536278,9.390884)"/>
<use data-text="D" xlink:href="#font_4_46" transform="matrix(9.963098,0,0,-9.962899,23.411927,9.390884)"/>
<use data-text=")" xlink:href="#font_4_86" transform="matrix(9.963098,0,0,-9.962899,31.023736,9.390884)"/>
<use data-text="x" xlink:href="#font_3_2" transform="matrix(9.963098,0,0,-9.962899,193.32497,84.08113)"/>
<use data-text="y" xlink:href="#font_3_3" transform="matrix(9.963098,0,0,-9.962899,98.2692,14.7100529)"/>
</svg>
