<svg xmlns="http://www.w3.org/2000/svg" xmlns:xlink="http://www.w3.org/1999/xlink" xmlns:inkscape="http://www.inkscape.org/namespaces/inkscape" version="1.1" width="207" height="171" viewBox="0 0 207 171">
<defs>
<path id="font_1_1" d="M.6589966 .23046875C.6759949 .23046875 .69400027 .23046875 .69400027 .25045777 .69400027 .27046205 .6759949 .27046205 .6589966 .27046205H.117996219C.100997928 .27046205 .08299255 .27046205 .08299255 .25045777 .08299255 .23046875 .100997928 .23046875 .117996219 .23046875H.6589966Z"/>
<path id="font_2_3" d="M.1269989 .07699585 .23298645 .18003845C.3889923 .31811524 .44898988 .3721466 .44898988 .47216798 .44898988 .5860901 .35899354 .6660156 .23699951 .6660156 .12399292 .6660156 .049987794 .57411196 .049987794 .48516847 .049987794 .4291687 .099990848 .4291687 .102996829 .4291687 .11999512 .4291687 .15499878 .44117738 .15499878 .48217774 .15499878 .5081787 .13699341 .5341797 .101989749 .5341797 .09399414 .5341797 .09199524 .5341797 .08898926 .5331726 .11199951 .59806826 .1659851 .63500979 .22399903 .63500979 .31498719 .63500979 .35798646 .5541382 .35798646 .47216798 .35798646 .39215089 .30799867 .31311036 .25299073 .25108338L.06098938 .036987306C.049987794 .025985718 .049987794 .023986817 .049987794 0H.42099L.44898988 .17404175H.42399598C.4189911 .14402771 .4119873 .1000061 .4019928 .084991458 .394989 .07699585 .32899476 .07699585 .30699159 .07699585H.1269989Z"/>
<path id="font_3_1" d="M.2649994 .37265016H.37799073C.34498597 .22489929 .33599855 .18196106 .33599855 .11508179 .33599855 .100097659 .33599855 .073150638 .34399415 .03919983 .35398866-.0047454836 .36499024-.0107421879 .37998963-.0107421879 .3999939-.0107421879 .42099 .007247925 .42099 .02722168 .42099 .033218385 .42099 .035202028 .4149933 .049179079 .38598634 .12106323 .38598634 .18595886 .38598634 .21391297 .38598634 .26683045 .3929901 .32073976 .4039917 .37265016H.5179901C.5309906 .37265016 .5669861 .37265016 .5669861 .406662 .5669861 .43066407 .54599 .43066407 .5269928 .43066407H.19198609C.16999817 .43066407 .13198853 .43066407 .08799744 .38365174 .052993776 .34469605 .026992798 .29878236 .026992798 .29379273 .026992798 .29278565 .026992798 .28379823 .038986207 .28379823 .04699707 .28379823 .04899597 .28779603 .054992677 .29577638 .10398865 .37265016 .1619873 .37265016 .18199158 .37265016H.23899842C.20698548 .25186158 .15299988 .13105774 .11099243 .04020691 .102996829 .025222779 .102996829 .023223877 .102996829 .016235352 .102996829-.002746582 .11898804-.0107421879 .13198853-.0107421879 .1619873-.0107421879 .16999817 .017242432 .18199158 .05418396 .19599915 .100097659 .19599915 .10209656 .20899964 .15202332L.2649994 .37265016Z"/>
<path id="font_4_2" d="M.272995 .33428956C.35099793 .33428956 .40699769 .2803192 .40699769 .1733551 .40699769 .04940796 .33499146 .012466431 .2769928 .012466431 .23699951 .012466431 .14898682 .0234375 .10699463 .082351688 .1539917 .084350589 .16499329 .11735535 .16499329 .13835144 .16499329 .17034912 .14099121 .19335938 .10998535 .19335938 .08198547 .19335938 .053985597 .17634583 .053985597 .13534546 .053985597 .041412355 .1579895-.01953125 .2789917-.01953125 .41799928-.01953125 .5139923 .07336426 .5139923 .1733551 .5139923 .2513275 .44999696 .32929994 .33999635 .35229493 .44499208 .39024354 .48298646 .4650879 .48298646 .5260773 .48298646 .60505679 .3919983 .6640625 .2809906 .6640625 .16999817 .6640625 .084991458 .61006167 .084991458 .5300751 .084991458 .49606324 .10699463 .47706605 .13699341 .47706605 .16799927 .47706605 .18798828 .5000763 .18798828 .5280762 .18798828 .5570679 .16799927 .57806399 .13699341 .5800781 .17199707 .62405398 .24099732 .63505557 .27799989 .63505557 .32299806 .63505557 .38598634 .6130676 .38598634 .5260773 .38598634 .48406983 .37199403 .43814088 .34599305 .4072113 .31298829 .36927796 .2849884 .3672943 .23498535 .36428834 .20999146 .3623047 .20799256 .3623047 .20298767 .3612976 .20098877 .3612976 .19299317 .3592987 .19299317 .34829713 .19299317 .33428956 .20199585 .33428956 .21899414 .33428956H.272995Z"/>
<path id="font_5_1" d="M.31098939 .36265565H.42999269C.4149933 .30274964 .3929901 .2118988 .3929901 .13302613 .3929901 .09309387 .397995 .06613159 .4039917 .044174196 .41999818-.0057678224 .43299867-.009765625 .44898988-.009765625 .47200013-.009765625 .49598695 .011230469 .49598695 .035186769 .49598695 .043182374 .49398805 .047164918 .48799134 .057159425 .46899415 .09408569 .45098878 .15100098 .45098878 .23286438 .45098878 .25183106 .45098878 .29177857 .46499635 .36265565H.58999636C.60798647 .36265565 .6159973 .36265565 .6269989 .37065126 .6409912 .380661 .6439972 .39665223 .6439972 .4016571 .6439972 .43066407 .6179962 .43066407 .6009979 .43066407H.22399903C.18299866 .43066407 .15499878 .42166139 .10998535 .37965394 .083999637 .35665895 .04499817 .30274964 .04499817 .2937622 .04499817 .28178407 .057998659 .28178407 .06199646 .28178407 .07299805 .28178407 .07398987 .28378297 .07998657 .2927704 .1309967 .36265565 .19299317 .36265565 .21499634 .36265565H.27598573C.24499512 .25283814 .19099427 .13502503 .16099549 .07511902 .15499878 .062149049 .14498902 .04118347 .14199829 .03718567 .14099121 .033187868 .13899231 .029190064 .13899231 .022201539 .13899231 .006225586 .15098572-.009765625 .17399597-.009765625 .21398926-.009765625 .22499085 .035186769 .24899292 .12504578L.31098939 .36265565Z"/>
<path id="font_4_1" d="M.5049896 .18203736H.47099305C.46798707 .16001892 .45799256 .100997928 .44499208 .09098816 .43699647 .084991458 .3600006 .084991458 .34599305 .084991458H.1619873C.2669983 .17803955 .3019867 .20603943 .3619995 .25306703 .43598939 .312088 .5049896 .374115 .5049896 .46914674 .5049896 .5900879 .39898683 .6640625 .2709961 .6640625 .14698792 .6640625 .06298828 .57710269 .06298828 .4851532 .06298828 .43414308 .10598755 .42915345 .115997318 .42915345 .13999939 .42915345 .16899109 .44615174 .16899109 .48214723 .16899109 .5001526 .1619873 .53515627 .10998535 .53515627 .14099121 .6060791 .20899964 .62805178 .2559967 .62805178 .35598756 .62805178 .4079895 .5501404 .4079895 .46914674 .4079895 .38212586 .34599305 .3130951 .31399537 .27708436L.07299805 .038986207C.06298828 .02999878 .06298828 .027999878 .06298828 0H.47499085L.5049896 .18203736Z"/>
<path id="font_2_2" d="M.2939911 .64004519C.2939911 .66400149 .2939911 .6660156 .2709961 .6660156 .20899964 .60227969 .12098694 .60227969 .08898926 .60227969V.57128909C.10899353 .57128909 .16799927 .57128909 .21998596 .5972748V.07902527C.21998596 .042999269 .21699524 .0309906 .1269989 .0309906H.09498596V0C.12998963 .0029907227 .21699524 .0029907227 .25698854 .0029907227 .29699708 .0029907227 .38398744 .0029907227 .4189911 0V.0309906H.3869934C.29699708 .0309906 .2939911 .041992189 .2939911 .07902527V.64004519Z"/>
<path id="font_2_1" d="M.45999146 .31976319C.45999146 .39982606 .45498658 .47988893 .41999818 .5539398 .37399293 .65000918 .2919922 .6660156 .25 .6660156 .18998719 .6660156 .116989139 .64001467 .07598877 .54693606 .04399109 .47789 .038986207 .39982606 .038986207 .31976319 .038986207 .24472046 .042999269 .15464783 .083999637 .07859802 .1269989-.0024719239 .19999695-.022460938 .24899292-.022460938 .30299378-.022460938 .3789978-.0014648438 .4229889 .09359741 .45498658 .16265869 .45999146 .2407074 .45999146 .31976319M.24899292-.00047302247C.20999146-.00047302247 .15098572 .024551392 .1329956 .12062073 .12199402 .18066406 .12199402 .2727356 .12199402 .3317871 .12199402 .39582826 .12199402 .46188355 .12998963 .5159149 .14898682 .63500979 .22399903 .64401248 .24899292 .64401248 .28199769 .64401248 .34799195 .6259918 .36698915 .52693179 .3769989 .47088624 .3769989 .39482118 .3769989 .3317871 .3769989 .25672914 .3769989 .18867493 .3659973 .12461853 .35099793 .029556275 .2939911-.00047302247 .24899292-.00047302247Z"/>
<path id="font_2_4" d="M.44898988 .20022583C.44898988 .3193512 .36698915 .41944886 .25898744 .41944886 .21099854 .41944886 .16799927 .40345765 .13198853 .36842347V.5637665C.1519928 .5577698 .18499756 .55078127 .21699524 .55078127 .33999635 .55078127 .4099884 .6417694 .4099884 .6547699 .4099884 .6607666 .40699769 .6657715 .3999939 .6657715 .39898683 .6657715 .39698792 .6657715 .3919983 .66278079 .37199403 .6537781 .32299806 .6337738 .2559967 .6337738 .21598816 .6337738 .16999817 .6407776 .12298584 .6617737 .114990238 .66477969 .11299133 .66477969 .11099243 .66477969 .100997928 .66477969 .100997928 .6567688 .100997928 .6407776V.34439088C.100997928 .32637025 .100997928 .31835938 .114990238 .31835938 .12199402 .31835938 .12399292 .32136537 .12799073 .32736207 .13899231 .3433838 .17599488 .39746095 .25698854 .39746095 .30899049 .39746095 .33399964 .35139466 .34199525 .33337403 .35798646 .29632569 .3600006 .25727845 .3600006 .20722962 .3600006 .17222595 .3600006 .11222839 .33599855 .07035828 .31199647 .031463624 .2749939 .0055389406 .22898865 .0055389406 .1559906 .0055389406 .09899902 .058380128 .08198547 .11723328 .084991458 .1162262 .08799744 .115234378 .09899902 .115234378 .13198853 .115234378 .14898682 .14022827 .14898682 .16423035 .14898682 .18823242 .13198853 .21322632 .09899902 .21322632 .084991458 .21322632 .049987794 .20622254 .049987794 .16023255 .049987794 .07434082 .11898804-.022460938 .23098755-.022460938 .34700013-.022460938 .44898988 .073349 .44898988 .20022583Z"/>
<path id="font_3_2" d="M.33399964 .30233766C.33999635 .32835389 .36299134 .42037965 .43299867 .42037965 .43798829 .42037965 .46199037 .42037965 .48298646 .40734864 .45498658 .402359 .43499757 .37734986 .43499757 .35334779 .43499757 .33735658 .44599916 .31835938 .47299195 .31835938 .49499513 .31835938 .5269928 .3363495 .5269928 .37635804 .5269928 .42837525 .46798707 .4423828 .43399049 .4423828 .37599183 .4423828 .34098817 .38935853 .32899476 .36634828 .3039856 .43237306 .25 .4423828 .22099304 .4423828 .116989139 .4423828 .05999756 .3133545 .05999756 .28834535 .05999756 .27833558 .069992069 .27833558 .07199097 .27833558 .07998657 .27833558 .08299255 .28033448 .084991458 .28933717 .11898804 .39535523 .18499756 .42037965 .21899414 .42037965 .23799134 .42037965 .272995 .4113617 .272995 .35334779 .272995 .32235719 .2559967 .25532533 .21899414 .11528015 .20298767 .053268434 .16799927 .011245728 .12399292 .011245728 .117996219 .011245728 .09498596 .011245728 .07398987 .024276734 .09899902 .029266358 .12098694 .05027771 .12098694 .07827759 .12098694 .105270389 .09899902 .11328125 .083999637 .11328125 .053985597 .11328125 .0289917 .08728027 .0289917 .055267335 .0289917 .009246826 .07899475-.0107421879 .12298584-.0107421879 .18899536-.0107421879 .22499085 .059280397 .22799683 .0652771 .23999024 .028274537 .27598573-.0107421879 .33599855-.0107421879 .43899537-.0107421879 .49598695 .118270877 .49598695 .14328003 .49598695 .1532898 .4869995 .1532898 .48399354 .1532898 .47499085 .1532898 .47299195 .14929199 .47099305 .14228821 .43798829 .03527832 .36999513 .011245728 .33799745 .011245728 .29899598 .011245728 .2829895 .043273927 .2829895 .07727051 .2829895 .09927368 .2889862 .121276859 .2999878 .16529846L.33399964 .30233766Z"/>
<path id="font_3_3" d="M.48599244 .38136292C.48999024 .39537049 .48999024 .39736939 .48999024 .40437318 .48999024 .42237855 .47599793 .43138124 .46099855 .43138124 .45098878 .43138124 .43499757 .42536927 .42599488 .41036988 .42399598 .405365 .41600038 .37435914 .4119873 .35635377 .40499879 .33035279 .397995 .30334474 .3919983 .27633668L.34700013 .09628296C.34298707 .08126831 .2999878 .011245728 .23399353 .011245728 .18299866 .011245728 .17199707 .055267335 .17199707 .0922699 .17199707 .1382904 .18899536 .20030213 .22299195 .28833009 .23899842 .3293457 .24299622 .3403473 .24299622 .36035157 .24299622 .405365 .21099854 .4423828 .16099549 .4423828 .06599426 .4423828 .0289917 .29733277 .0289917 .28833009 .0289917 .27833558 .038986207 .27833558 .040985109 .27833558 .050994874 .27833558 .051986696 .28033448 .056991579 .29634095 .083999637 .3903656 .12399292 .42037965 .1579895 .42037965 .1659851 .42037965 .18299866 .42037965 .18299866 .3883667 .18299866 .36335755 .17298889 .3373413 .1659851 .31834413 .12599182 .21231079 .10798645 .1552887 .10798645 .10827637 .10798645 .019256592 .17098999-.0107421879 .22999573-.0107421879 .2689972-.0107421879 .30299378 .0062561037 .33099366 .03425598 .31799317-.017745972 .30599977-.06674194 .2659912-.11973572 .23999024-.15385437 .20199585-.18309021 .1559906-.18309021 .14199829-.18309021 .09700012-.18005371 .07998657-.14074707 .09599304-.14074707 .10899353-.14074707 .12298584-.1287384 .1329956-.11973572 .14299011-.10673523 .14299011-.08773804 .14299011-.056747438 .115997318-.052734376 .10598755-.052734376 .08299255-.052734376 .049987794-.068740848 .049987794-.11773682 .049987794-.16796875 .09399414-.20507813 .1559906-.20507813 .25898744-.20507813 .3619995-.11373901 .3899994-.00074768069L.48599244 .38136292Z"/>
</defs>
<path transform="matrix(1.00005,0,0,-1.00006,8.079704,166.5352)" stroke-width=".19925" stroke-linecap="butt" stroke-miterlimit="10" stroke-linejoin="miter" fill="none" stroke="#7f807f" d="M1.52171 79.28084V82.1155M13.47325 79.28084V82.1155M25.42479 79.28084V82.1155M37.37634 79.28084V82.1155M49.32788 79.28084V82.1155M61.27942 79.28084V82.1155M73.23096 79.28084V82.1155M85.18251 79.28084V82.1155M97.13405 79.28084V82.1155M109.0856 79.28084V82.1155M121.03714 79.28084V82.1155M132.9887 79.28084V82.1155M144.94023 79.28084V82.1155M156.89179 79.28084V82.1155M168.84334 79.28084V82.1155M180.79488 79.28084V82.1155M192.74643 79.28084V82.1155"/>
<path transform="matrix(1.00005,0,0,-1.00006,8.079704,166.5352)" stroke-width=".19925" stroke-linecap="butt" stroke-miterlimit="10" stroke-linejoin="miter" fill="none" stroke="#7f807f" d="M1.52171 78.57237V82.82396M25.42479 78.57237V82.82396M49.32788 78.57237V82.82396M73.23096 78.57237V82.82396M121.03714 78.57237V82.82396M144.94023 78.57237V82.82396M168.84334 78.57237V82.82396M192.74643 78.57237V82.82396"/>
<path transform="matrix(1.00005,0,0,-1.00006,8.079704,166.5352)" stroke-width=".19925" stroke-linecap="butt" stroke-miterlimit="10" stroke-linejoin="miter" fill="none" stroke="#7f807f" d="M95.00816 0H99.25996M95.00816 40.34909H99.25996M95.00816 121.04727H99.25996M95.00816 161.39636H99.25996"/>
<path transform="matrix(1.00005,0,0,-1.00006,8.079704,166.5352)" stroke-width=".3985" stroke-linecap="butt" stroke-miterlimit="10" stroke-linejoin="miter" fill="none" stroke="#000000" d="M0 80.69818H192.2756"/>
<path transform="matrix(1.00005,0,0,-1.00006,200.3649,85.832187)" d="M1.99252 0-1.19551 1.59401 0 0-1.19551-1.59401"/>
<path transform="matrix(1.00005,0,0,-1.00006,8.079704,166.5352)" stroke-width=".3985" stroke-linecap="butt" stroke-miterlimit="10" stroke-linejoin="miter" fill="none" stroke="#000000" d="M97.13405 0V159.40384"/>
<path transform="matrix(0,-1.00006,-1.00005,-0,105.218608,7.121811)" d="M1.99252 0-1.19551 1.59401 0 0-1.19551-1.59401"/>
<use data-text="&#x2212;" xlink:href="#font_1_1" transform="matrix(9.963098,0,0,-9.963197,.21730805,97.899089)"/>
<use data-text="2" xlink:href="#font_2_3" transform="matrix(9.963098,0,0,-9.963197,7.9666979,97.899089)"/>
<use data-text="&#x03c0;" xlink:href="#font_3_1" transform="matrix(9.963098,0,0,-9.963197,12.947945,97.899089)"/>
<use data-text="&#x2212;" xlink:href="#font_1_1" transform="matrix(9.963098,0,0,-9.963197,23.995499,99.8952)"/>
<use data-text="3" xlink:href="#font_4_2" transform="matrix(6.9741489,0,0,-6.9742186,32.93995,95.97197)"/>
<use data-text="&#x03c0;" xlink:href="#font_5_1" transform="matrix(6.9741489,0,0,-6.9742186,36.911149,95.97197)"/>
<path transform="matrix(1.00005,0,0,-1.00006,-81.27076,-46.703584)" stroke-width=".3985" stroke-linecap="butt" stroke-miterlimit="10" stroke-linejoin="miter" fill="none" stroke="#000000" d="M114.205-144.099H123.085"/>
<use data-text="2" xlink:href="#font_4_1" transform="matrix(6.9741489,0,0,-6.9742186,35.395074,103.330417)"/>
<use data-text="&#x2212;" xlink:href="#font_1_1" transform="matrix(9.963098,0,0,-9.963197,50.516828,97.290058)"/>
<use data-text="&#x03c0;" xlink:href="#font_3_1" transform="matrix(9.963098,0,0,-9.963197,58.266218,97.290058)"/>
<use data-text="&#x2212;" xlink:href="#font_1_1" transform="matrix(9.963098,0,0,-9.963197,73.78899,98.40412)"/>
<use data-text="&#x03c0;" xlink:href="#font_5_1" transform="matrix(6.9741489,0,0,-6.9742186,82.73344,94.48089)"/>
<path transform="matrix(1.00005,0,0,-1.00006,-31.477272,-48.194665)" stroke-width=".3985" stroke-linecap="butt" stroke-miterlimit="10" stroke-linejoin="miter" fill="none" stroke="#000000" d="M114.205-144.099H119.114"/>
<use data-text="2" xlink:href="#font_4_1" transform="matrix(6.9741489,0,0,-6.9742186,83.20246,101.83933)"/>
<use data-text="&#x03c0;" xlink:href="#font_5_1" transform="matrix(6.9741489,0,0,-6.9742186,126.66763,94.4809)"/>
<path transform="matrix(1.00005,0,0,-1.00006,20.206315,-48.194665)" stroke-width=".3985" stroke-linecap="butt" stroke-miterlimit="10" stroke-linejoin="miter" fill="none" stroke="#000000" d="M106.456-144.099H111.365"/>
<use data-text="2" xlink:href="#font_4_1" transform="matrix(6.9741489,0,0,-6.9742186,127.13666,101.83933)"/>
<use data-text="&#x03c0;" xlink:href="#font_3_1" transform="matrix(9.963098,0,0,-9.963197,150.00879,95.76796)"/>
<use data-text="3" xlink:href="#font_4_2" transform="matrix(6.9741489,0,0,-6.9742186,172.4909,95.971988)"/>
<use data-text="&#x03c0;" xlink:href="#font_5_1" transform="matrix(6.9741489,0,0,-6.9742186,176.4631,95.971988)"/>
<path transform="matrix(1.00005,0,0,-1.00006,66.02959,-46.703584)" stroke-width=".3985" stroke-linecap="butt" stroke-miterlimit="10" stroke-linejoin="miter" fill="none" stroke="#000000" d="M106.456-144.099H115.337"/>
<use data-text="2" xlink:href="#font_4_1" transform="matrix(6.9741489,0,0,-6.9742186,174.94603,103.330417)"/>
<use data-text="2" xlink:href="#font_2_3" transform="matrix(9.963098,0,0,-9.963197,195.32605,97.899089)"/>
<use data-text="&#x03c0;" xlink:href="#font_3_1" transform="matrix(9.963098,0,0,-9.963197,200.30731,97.899089)"/>
<use data-text="&#x2212;" xlink:href="#font_1_1" transform="matrix(9.963098,0,0,-9.963197,81.86039,169.33037)"/>
<use data-text="1" xlink:href="#font_2_2" transform="matrix(9.963098,0,0,-9.963197,89.60978,169.33037)"/>
<use data-text="0" xlink:href="#font_2_1" transform="matrix(9.963098,0,0,-9.963197,94.591327,169.33037)"/>
<use data-text="&#x2212;" xlink:href="#font_1_1" transform="matrix(9.963098,0,0,-9.963197,86.841648,128.97895)"/>
<use data-text="5" xlink:href="#font_2_4" transform="matrix(9.963098,0,0,-9.963197,94.591037,128.97895)"/>
<use data-text="5" xlink:href="#font_2_4" transform="matrix(9.963098,0,0,-9.963197,94.59103,48.69114)"/>
<use data-text="1" xlink:href="#font_2_2" transform="matrix(9.963098,0,0,-9.963197,89.60978,8.339706)"/>
<use data-text="0" xlink:href="#font_2_1" transform="matrix(9.963098,0,0,-9.963197,94.59133,8.339706)"/>
<path transform="matrix(1.00005,0,0,-1.00006,8.079704,166.5352)" stroke-width=".99628" stroke-linecap="butt" stroke-miterlimit="10" stroke-linejoin="miter" fill="none" stroke="#0000ff" d="M4.41092 78.00816 1.58037 78.00801 1.63905 78.00793 1.69775 78.00737 1.75642 78.00688 1.81511 78.00615 1.8738 78.00526 1.93246 78.00421 1.99115 78.00302 2.04982 78.00163 2.1085 78.00002 2.16719 77.99841 2.22586 77.99655 2.28455 77.99461 2.34323 77.99236 2.4019 77.99002 2.46059 77.9876 2.51927 77.98485 2.57794 77.98203 2.63663 77.97897 2.6953 77.97574 2.754 77.97258 2.81268 77.96895 2.87135 77.96532 2.93004 77.96136 2.98872 77.95741 3.0474 77.95314 3.10608 77.94878 3.16475 77.9441 3.22343 77.93942 3.28212 77.9345 3.34079 77.92934 3.39948 77.92416 3.45816 77.9186 3.51683 77.91295 3.57552 77.90706 3.63419 77.90102 3.69287 77.89471 3.75157 77.88834 3.81024 77.88171 3.86893 77.87494 3.92761 77.86792 3.98628 77.8605 4.04497 77.85323 4.10364 77.84532 4.16232 77.83757 4.22101 77.82951 4.27968 77.82127 4.33836 77.81271 4.39705 77.80385 4.45572 77.79498 4.5144 77.7856 4.57307 77.7764 4.63176 77.76657 4.69044 77.75671 4.74913 77.74646 4.80782 77.73615 4.8665 77.72559 4.92517 77.71458 4.98386 77.70346 5.04254 77.69193 5.10121 77.68039 5.1599 77.66829 5.21857 77.6561 5.27725 77.64359 5.33594 77.63058 5.3946 77.61768 5.4533 77.60419 5.51198 77.59056 5.57065 77.57645 5.62933 77.56216 5.688 77.54747 5.74669 77.53246 5.80539 77.51704 5.86406 77.50154 5.92274 77.48557 5.98143 77.46902 6.0401 77.45247 6.09879 77.4353 6.15746 77.41794 6.21614 77.40002 6.27483 77.38179 6.3335 77.36314 6.39218 77.34412 6.45087 77.32475 6.50954 77.30457 6.56822 77.2844 6.62689 77.26358 6.68558 77.24236 6.74426 77.22047 6.80295 77.19838 6.86163 77.17561 6.92032 77.15236 6.97899 77.12872 7.03767 77.10435 7.09636 77.07959 7.15503 77.054 7.21371 77.02809 7.27238 77.00162 7.33107 76.97444 7.38976 76.94675 7.44843 76.91818 7.50711 76.88904 7.5658 76.85919 7.62447 76.82877 7.68315 76.79747 7.74184 76.76575 7.8005 76.73282 7.8592 76.69933 7.91786 76.66495 7.97656 76.62976 8.03525 76.59393 8.09392 76.55673 8.1526 76.51906 8.21127 76.48016 8.26996 76.44037 8.32864 76.39954 8.38731 76.35774 8.446 76.31488 8.50468 76.27058 8.56335 76.22563 8.62204 76.17906 8.68071 76.13145 8.7394 76.08232 8.79808 76.0322 8.85675 75.98047 8.91545 75.92729 8.97412 75.87257 9.0328 75.81633 9.09148 75.75879 9.15018 75.69891 9.20885 75.63774 9.26753 75.57463 9.3262 75.5096 9.38489 75.4427 9.44357 75.37338 9.50224 75.30237 9.56093 75.2286 9.61961 75.15315 9.67828 75.07455 9.73697 74.99362 9.79565 74.90993 9.85432 74.82324 9.91302 74.73409 9.97168 74.64113 10.03038 74.54556 10.08907 74.44568 10.14772 74.34328 10.20642 74.23608 10.26508 74.12521 10.32378 74.01007 10.38246 73.89015 10.44113 73.76578 10.49982 73.63594 10.5585 73.50125 10.61717 73.36076 10.67586 73.21414 10.73453 73.06065 10.79321 72.9007 10.8519 72.73366 10.91057 72.55829 10.96927 72.37495 11.02794 72.182 11.08662 71.97969 11.1453 71.76755 11.204 71.54329 11.26266 71.30771 11.32135 71.0586 11.38002 70.7957 11.4387 70.51646 11.49739 70.22177 11.55606 69.90744 11.61475 69.57457 11.67343 69.21893 11.7321 68.83788 11.79079 68.43228 11.84946 67.99675 11.90814 67.52782 11.96683 67.02103 12.0255 66.47487 12.0842 65.8794 12.14288 65.23447 12.20154 64.52705 12.26024 63.75276 12.3189 62.89719 12.3776 61.95053 12.43628 60.89903 12.49495 59.71599 12.55363 58.38634 12.61232 56.87251 12.67099 55.13112 12.72968 53.1236 12.78835 50.76721 12.84703 47.97343 12.90572 44.59703 12.96439 40.44107 13.02309 35.1836 13.08176 28.36539 13.14044 19.17226 13.1863 8.86879"/>
<path transform="matrix(-1.00005,-0,0,1.00006,12.490845,88.52236)" d="M2.8892 0-1.73352 2.31136 0 0-1.73352-2.31136" fill="#0000ff"/>
<path transform="matrix(.0044402217,1.0000099,.99999997,-.004440266,21.266644,157.66587)" d="M2.8892 0-1.73352 2.31136 0 0-1.73352-2.31136" fill="#0000ff"/>
<path transform="matrix(1.00005,0,0,-1.00006,8.079704,166.5352)" stroke-width=".99628" stroke-linecap="butt" stroke-miterlimit="10" stroke-linejoin="miter" fill="none" stroke="#0000ff" d="M13.76222 152.5711 13.86452 133.05193 13.98187 120.97221 14.09924 113.43338 14.21661 108.28162 14.33397 104.53012 14.45134 101.68196 14.5687 99.44838 14.68607 97.64793 14.80344 96.16446 14.92079 94.92381 15.03815 93.87053 15.15553 92.96582 15.27289 92.17984 15.39024 91.48929 15.50761 90.88025 15.62498 90.33868 15.74234 89.85338 15.8597 89.41664 15.97708 89.02162 16.09444 88.66307 16.21179 88.33624 16.32916 88.03645 16.44653 87.76071 16.56389 87.50618 16.68126 87.27127 16.79861 87.05331 16.91599 86.851 17.03336 86.66249 17.15071 86.48665 17.26807 86.32178 17.38545 86.1679 17.5028 86.02295 17.62016 85.88683 17.73752 85.75874 17.8549 85.63762 17.97226 85.52385 18.08961 85.4161 18.20699 85.31401 18.32436 85.21727 18.44171 85.12575 18.55908 85.0386 18.67644 84.95605 18.79381 84.87727 18.91118 84.80247 19.02853 84.73138 19.14589 84.66367 19.26328 84.59886 19.38063 84.53714 19.49799 84.47815 19.61536 84.4219 19.73273 84.36824 19.85008 84.31674 19.96744 84.26761 20.08481 84.22081 20.20218 84.17586 20.31953 84.13275 20.4369 84.09177 20.55428 84.05222 20.67163 84.01454 20.789 83.9784 20.90636 83.94386 21.02373 83.91077 21.14108 83.87914 21.25845 83.84886 21.37581 83.81989 21.49318 83.79214 21.61055 83.76575 21.7279 83.74025 21.84526 83.71594 21.96265 83.69287 22.08 83.67076 22.19736 83.64987 22.31473 83.62978 22.4321 83.61073 22.54945 83.59233 22.66682 83.57506 22.78418 83.55876 22.90155 83.5431 23.01892 83.52841 23.13628 83.51462 23.25363 83.50162 23.371 83.48927 23.48837 83.47774 23.60573 83.46692 23.72308 83.45691 23.84047 83.44756 23.95782 83.43892 24.07518 83.43102 24.19255 83.42375 24.30992 83.41737 24.42728 83.41148 24.54465 83.40631 24.662 83.40172 24.77937 83.39792 24.89674 83.3947 25.0141 83.39212 25.13147 83.39018 25.24884 83.38898 25.3662 83.38832H25.48355L25.60094 83.38898 25.71829 83.39018 25.83565 83.39212 25.953 83.3946 26.07039 83.39792 26.18774 83.40172 26.3051 83.40631 26.42247 83.41148 26.53983 83.41737 26.6572 83.4239 26.77457 83.43102 26.89192 83.43892 27.0093 83.44756 27.12665 83.45691 27.24402 83.467 27.36139 83.47774 27.47874 83.48927 27.59612 83.50162 27.71347 83.51462 27.83083 83.52841 27.94821 83.5431 28.06557 83.55876 28.18294 83.57523 28.30028 83.59248 28.41766 83.61073 28.53503 83.62978 28.65237 83.64987 28.76974 83.67076 28.88712 83.69296 29.00449 83.71594 29.12184 83.74033 29.2392 83.76575 29.35658 83.79214 29.47392 83.82007 29.5913 83.84895 29.70866 83.87929 29.82602 83.91093 29.94339 83.94386 30.06075 83.97855 30.17813 84.01454 30.29549 84.05222 30.41284 84.09177 30.53021 84.13292 30.64758 84.17586 30.76494 84.22081 30.88231 84.26776 30.99966 84.31691 31.11703 84.36824 31.23439 84.42207 31.35176 84.47832 31.46913 84.53714 31.58649 84.59895 31.70386 84.66367 31.82121 84.73146 31.93858 84.80263 32.05595 84.87753 32.17331 84.95605 32.29068 85.03883 32.40802 85.12575 32.5254 85.21751 32.64278 85.3141 32.76012 85.4161 32.87749 85.52393 32.99486 85.63771 33.11223 85.75891 33.22958 85.88698 33.34694 86.02327 33.46432 86.16798 33.58167 86.3221 33.69904 86.4869 33.8164 86.6629 33.93378 86.85124 34.05113 87.05379 34.16849 87.27177 34.28586 87.50667 34.40324 87.76088 34.52058 88.0367 34.63795 88.3365 34.75533 88.6638 34.87268 89.0225 34.99005 89.41753 35.1074 89.85378 35.22478 90.33981 35.34213 90.88187 35.4595 91.49066 35.57687 92.17984 35.69423 92.96582 35.8116 93.8711 35.92896 94.92598 36.04631 96.16711 36.1637 97.65004 36.28105 99.45233 36.39842 101.68687 36.51576 104.53432 36.63315 108.28645 36.75052 113.44548 36.86786 120.99075 36.98523 133.07129 37.08752 152.63245"/>
<path transform="matrix(-.005220261,-1.0000099,-.99999997,.005220313,21.842614,13.954956)" d="M2.8892 0-1.73352 2.31136 0 0-1.73352-2.31136" fill="#0000ff"/>
<path transform="matrix(.005220261,-1.0000099,-.99999997,-.005220313,45.16908,13.893616)" d="M2.8892 0-1.73352 2.31136 0 0-1.73352-2.31136" fill="#0000ff"/>
<path transform="matrix(1.00005,0,0,-1.00006,8.079704,166.5352)" stroke-width=".99628" stroke-linecap="butt" stroke-miterlimit="10" stroke-linejoin="miter" fill="none" stroke="#0000ff" d="M37.66531 8.82523 37.76761 28.35571 37.88496 40.42978 38.00233 47.96295 38.1197 53.11472 38.23706 56.86201 38.35443 59.711 38.47179 61.94795 38.58916 63.7484 38.70653 65.23187 38.82388 66.47253 38.94124 67.5266 39.05862 68.43117 39.17598 69.21747 39.29333 69.90704 39.4107 70.51646 39.52808 71.05765 39.64543 71.54295 39.76279 71.97946 39.88016 72.37471 39.99753 72.73326 40.11488 73.06041 40.23225 73.35988 40.34961 73.63594 40.46698 73.89015 40.58435 74.12506 40.7017 74.34302 40.81906 74.5451 40.93645 74.73384 41.0538 74.90952 41.17116 75.07431 41.28853 75.22844 41.4059 75.3733 41.52325 75.5095 41.64061 75.63774 41.75798 75.75871 41.87535 75.87248 41.9927 75.98032 42.11008 76.08232 42.22743 76.17906 42.3448 76.27058 42.46217 76.35767 42.57953 76.44037 42.6969 76.51906 42.81427 76.59393 42.93163 76.66495 43.04898 76.73267 43.16637 76.79747 43.28372 76.85919 43.40108 76.91818 43.51845 76.97444 43.63582 77.02824 43.75317 77.07959 43.87053 77.12872 43.9879 77.17552 44.10527 77.22047 44.22263 77.26358 44.34 77.30457 44.45735 77.34412 44.57472 77.38179 44.6921 77.41779 44.80945 77.45256 44.9268 77.4854 45.04417 77.51704 45.16154 77.54747 45.2789 77.57645 45.39626 77.60419 45.51364 77.63075 45.631 77.6561 45.74835 77.68039 45.86572 77.70346 45.9831 77.72559 46.10045 77.74646 46.21782 77.76657 46.33517 77.7856 46.45255 77.804 46.56992 77.82127 46.68727 77.83757 46.80463 77.85323 46.92201 77.86792 47.03937 77.88171 47.15672 77.89471 47.2741 77.90706 47.39146 77.9186 47.50882 77.92941 47.62617 77.93942 47.74356 77.94878 47.86092 77.95741 47.97827 77.96532 48.09564 77.97258 48.21301 77.97897 48.33037 77.98485 48.44774 77.99002 48.5651 77.99461 48.68246 77.99841 48.79984 78.00163 48.91719 78.00421 49.03455 78.00615 49.15193 78.00737 49.26929 78.00801H49.38664L49.50401 78.00737 49.62138 78.00615 49.73874 78.00421 49.8561 78.00172 49.97346 77.99841 50.09084 77.99461 50.20819 77.99002 50.32556 77.98485 50.4429 77.97897 50.56029 77.97243 50.67766 77.96532 50.79501 77.95741 50.91237 77.94878 51.02974 77.93942 51.14711 77.92934 51.26448 77.9186 51.38182 77.90706 51.4992 77.89471 51.61656 77.88171 51.73392 77.86792 51.8513 77.85323 51.96866 77.83757 52.08603 77.8211 52.20337 77.80385 52.32076 77.7856 52.43813 77.76657 52.55547 77.74646 52.67284 77.72559 52.7902 77.70337 52.90758 77.68039 53.02493 77.656 53.14229 77.63058 53.25967 77.60419 53.37701 77.57626 53.49438 77.54738 53.61176 77.51704 53.72911 77.4854 53.84648 77.45247 53.96384 77.41779 54.0812 77.38179 54.19858 77.34395 54.31593 77.30457 54.4333 77.26358 54.55066 77.22047 54.66803 77.17552 54.7854 77.12857 54.90276 77.07942 55.02011 77.02809 55.13748 76.97427 55.25485 76.91801 55.37222 76.85919 55.48956 76.79747 55.60695 76.73267 55.7243 76.66487 55.84167 76.59386 55.95903 76.5188 56.0764 76.44028 56.19377 76.3575 56.31111 76.27058 56.42848 76.17882 56.54587 76.08223 56.66321 75.98006 56.78058 75.8724 56.89795 75.7583 57.01532 75.63742 57.13268 75.50935 57.25003 75.3733 57.36742 75.22835 57.48476 75.07423 57.60213 74.90944 57.7195 74.73343 57.83687 74.54485 57.95422 74.34254 58.07158 74.12457 58.18895 73.8895 58.30634 73.63545 58.42368 73.35988 58.54105 73.06009 58.6584 72.73253 58.77577 72.37383 58.89314 71.97856 59.0105 71.54256 59.12785 71.05692 59.24522 70.51517 59.3626 69.90608 59.47997 69.21603 59.5973 68.42953 59.71469 67.52524 59.83205 66.47116 59.9494 65.22993 60.06677 63.74744 60.18414 61.94658 60.30151 59.70946 60.41885 56.85992 60.53622 53.10988 60.65361 47.95085 60.77095 40.41202 60.88832 28.32504 60.99062 8.76389"/>
<path transform="matrix(-.005220261,1.0000099,.99999997,.005220313,45.746896,157.70943)" d="M2.8892 0-1.73352 2.31136 0 0-1.73352-2.31136" fill="#0000ff"/>
<path transform="matrix(.005220261,1.0000099,.99999997,-.005220313,69.07337,157.77079)" d="M2.8892 0-1.73352 2.31136 0 0-1.73352-2.31136" fill="#0000ff"/>
<path transform="matrix(1.00005,0,0,-1.00006,8.079704,166.5352)" stroke-width=".99628" stroke-linecap="butt" stroke-miterlimit="10" stroke-linejoin="miter" fill="none" stroke="#0000ff" d="M61.5684 152.5711 61.6707 133.04062 61.78806 120.96655 61.90543 113.43338 62.02278 108.27838 62.14015 104.53012 62.25752 101.68196 62.37488 99.44838 62.49223 97.64568 62.60962 96.16446 62.72697 94.92381 62.84433 93.87053 62.9617 92.96582 63.07907 92.17886 63.19643 91.48929 63.3138 90.88025 63.43115 90.33806 63.54852 89.85338 63.66588 89.41664 63.78325 89.02162 63.9006 88.66357 64.01797 88.33592 64.13535 88.03604 64.2527 87.76071 64.37007 87.50635 64.48744 87.27127 64.6048 87.05331 64.72215 86.851 64.83954 86.66258 64.9569 86.48665 65.07425 86.32202 65.19162 86.1679 65.30899 86.02303 65.42635 85.88673 65.5437 85.75859 65.66107 85.63762 65.77844 85.52385 65.8958 85.41602 66.01317 85.31401 66.13052 85.21727 66.2479 85.12575 66.36526 85.03868 66.48262 84.95605 66.59998 84.87727 66.71736 84.80247 66.83472 84.73146 66.95207 84.66367 67.06944 84.59886 67.18681 84.53714 67.30417 84.47815 67.42154 84.4219 67.5389 84.36824 67.65627 84.31674 67.77362 84.26761 67.89099 84.22072 68.00835 84.17586 68.12572 84.13275 68.24309 84.09177 68.36044 84.05222 68.4778 84.01454 68.59518 83.9784 68.71254 83.94377 68.8299 83.91093 68.94725 83.87929 69.06464 83.84886 69.18199 83.81989 69.29935 83.79214 69.41673 83.76558 69.53409 83.74025 69.65144 83.71594 69.76881 83.69296 69.88618 83.67076 70.00354 83.64987 70.12091 83.62978 70.23827 83.61073 70.35564 83.59233 70.473 83.57506 70.59036 83.55876 70.70772 83.5431 70.8251 83.52841 70.94246 83.51462 71.05981 83.50162 71.17717 83.48927 71.29456 83.47774 71.41191 83.46692 71.52927 83.45691 71.64664 83.44756 71.764 83.43892 71.88136 83.43102 71.99873 83.42375 72.11609 83.41737 72.23346 83.41148 72.35083 83.40631 72.46819 83.40172 72.58554 83.39792 72.70293 83.3947 72.82028 83.39212 72.93764 83.39018 73.05501 83.38898 73.17238 83.38832H73.28973L73.4071 83.38898 73.52446 83.39018 73.64183 83.39212 73.75919 83.3947 73.87656 83.39792 73.99393 83.40172 74.11128 83.40631 74.22865 83.41148 74.346 83.41737 74.46338 83.4239 74.58075 83.43102 74.6981 83.43892 74.81546 83.44756 74.93283 83.45691 75.0502 83.467 75.16757 83.47774 75.28491 83.48927 75.4023 83.50162 75.51965 83.51462 75.63701 83.52841 75.75438 83.5431 75.87175 83.55876 75.98912 83.57523 76.10646 83.59248 76.22383 83.61073 76.34122 83.62978 76.45856 83.64987 76.57593 83.67076 76.69328 83.69296 76.81067 83.71594 76.92802 83.74033 77.04538 83.76575 77.16275 83.79214 77.2801 83.82007 77.39748 83.84895 77.51485 83.87929 77.63219 83.91093 77.74957 83.94386 77.86693 83.97855 77.9843 84.01454 78.10165 84.05222 78.21902 84.09177 78.3364 84.13292 78.45375 84.17586 78.57112 84.22081 78.68849 84.26776 78.80585 84.31691 78.9232 84.36824 79.04057 84.42207 79.15794 84.47832 79.27531 84.53714 79.39265 84.59895 79.51004 84.66367 79.6274 84.73146 79.74477 84.80263 79.86212 84.87727 79.97949 84.95605 80.09686 85.03891 80.2142 85.12575 80.33157 85.21735 80.44896 85.3141 80.5663 85.41628 80.68367 85.52393 80.80103 85.63771 80.91841 85.75874 81.03577 85.88698 81.15312 86.02303 81.2705 86.16798 81.38785 86.32242 81.50522 86.4869 81.62259 86.6629 81.73994 86.8515 81.85732 87.05379 81.97467 87.27151 82.09204 87.50667 82.20941 87.76088 82.32677 88.0367 82.44414 88.3365 82.5615 88.6638 82.67885 89.0225 82.79623 89.41753 82.91359 89.85378 83.03094 90.33981 83.1483 90.88116 83.26569 91.49025 83.38306 92.1803 83.5004 92.96582 83.61778 93.8711 83.73514 94.92517 83.8525 96.16711 83.96986 97.65004 84.08723 99.44975 84.2046 101.68687 84.32195 104.5364 84.43932 108.28645 84.5567 113.44548 84.67404 120.98431 84.79141 133.07129 84.8937 152.63245"/>
<path transform="matrix(-.005220261,-1.0000099,-.99999997,.005220313,69.651187,13.954956)" d="M2.8892 0-1.73352 2.31136 0 0-1.73352-2.31136" fill="#0000ff"/>
<path transform="matrix(.005220261,-1.0000099,-.99999997,-.005220313,92.977649,13.893616)" d="M2.8892 0-1.73352 2.31136 0 0-1.73352-2.31136" fill="#0000ff"/>
<path transform="matrix(1.00005,0,0,-1.00006,8.079704,166.5352)" stroke-width=".99628" stroke-linecap="butt" stroke-miterlimit="10" stroke-linejoin="miter" fill="none" stroke="#0000ff" d="M85.4715 8.78487 85.57378 28.35571 85.69116 40.42412 85.80852 47.96295 85.92587 53.11795 86.04324 56.86201 86.16061 59.71437 86.27797 61.94795 86.39532 63.7484 86.51271 65.23187 86.63007 66.4734 86.74742 67.5266 86.86479 68.43117 86.98216 69.21747 87.09952 69.90704 87.21689 70.51608 87.33424 71.05765 87.45161 71.54295 87.56897 71.97946 87.68634 72.37471 87.8037 72.73276 87.92107 73.06041 88.03844 73.36029 88.15579 73.63562 88.27315 73.88998 88.39052 74.12506 88.50789 74.34277 88.62524 74.54533 88.7426 74.73375 88.85999 74.90968 88.97734 75.07431 89.0947 75.2286 89.21207 75.37338 89.32944 75.5095 89.4468 75.63774 89.56416 75.75871 89.68152 75.87248 89.79889 75.98032 89.91624 76.08232 90.03362 76.17899 90.15097 76.27058 90.26834 76.35767 90.38571 76.44037 90.50307 76.51906 90.62042 76.59386 90.73781 76.66495 90.85516 76.73267 90.97252 76.79747 91.0899 76.85919 91.20726 76.91818 91.32462 76.97427 91.44197 77.02809 91.55936 77.07959 91.67671 77.12872 91.79407 77.17552 91.91144 77.22047 92.02881 77.26358 92.14616 77.30457 92.26353 77.34412 92.38089 77.38188 92.49826 77.41779 92.61562 77.45247 92.73299 77.48557 92.85034 77.51721 92.96771 77.54738 93.08508 77.57645 93.20244 77.60419 93.3198 77.63058 93.43718 77.6561 93.55453 77.68039 93.67189 77.70346 93.78925 77.72559 93.90663 77.74646 94.02399 77.76657 94.14134 77.7856 94.25871 77.804 94.37608 77.8211 94.49344 77.83757 94.61081 77.85323 94.72816 77.86792 94.84554 77.88171 94.96289 77.89471 95.08026 77.90706 95.19762 77.9186 95.31499 77.92941 95.43236 77.93942 95.54971 77.94878 95.66707 77.95741 95.78445 77.96532 95.90181 77.97258 96.01917 77.97897 96.13655 77.98485 96.2539 77.99002 96.37126 77.99461 96.48862 77.99841 96.606 78.00163 96.72336 78.00421 96.84071 78.00615 96.95808 78.00737 97.07545 78.00801H97.19281L97.31018 78.00737 97.42754 78.00615 97.5449 78.00421 97.66226 78.00163 97.77963 77.99841 97.897 77.99461 98.01436 77.99002 98.13173 77.98485 98.24908 77.97897 98.36644 77.97258 98.48383 77.96532 98.60118 77.95741 98.71854 77.94878 98.83589 77.93942 98.95328 77.92934 99.07063 77.9185 99.18799 77.90706 99.30536 77.89471 99.42273 77.88171 99.54008 77.86792 99.65746 77.85323 99.77481 77.83757 99.8922 77.82127 100.00954 77.80385 100.1269 77.7856 100.24428 77.76657 100.36163 77.74646 100.479 77.72559 100.59636 77.70337 100.71373 77.68039 100.8311 77.656 100.94846 77.63058 101.06581 77.60419 101.18318 77.57645 101.30055 77.54738 101.41792 77.51704 101.53526 77.4854 101.65265 77.45247 101.77 77.41779 101.88736 77.38179 102.00473 77.34412 102.1221 77.30457 102.23946 77.26341 102.35681 77.22047 102.47418 77.17552 102.59157 77.12872 102.70891 77.07942 102.82628 77.02809 102.94363 76.97427 103.061 76.91801 103.17838 76.85904 103.29573 76.79738 103.4131 76.73267 103.53046 76.66487 103.64783 76.5937 103.7652 76.51906 103.88254 76.44012 103.99992 76.3575 104.11728 76.27058 104.23463 76.17899 104.352 76.08232 104.46938 75.98022 104.58675 75.8724 104.70409 75.75862 104.82146 75.63742 104.93884 75.50935 105.05618 75.37306 105.17355 75.22835 105.29092 75.07423 105.40828 74.90944 105.52565 74.73375 105.643 74.5451 105.76039 74.34277 105.87773 74.12482 105.9951 73.88966 106.11247 73.63545 106.22983 73.35963 106.3472 73.06009 106.46455 72.73253 106.58191 72.37383 106.6993 71.9788 106.81665 71.54256 106.93402 71.05692 107.05136 70.51517 107.16875 69.90567 107.28612 69.2165 107.40346 68.43051 107.52083 67.52524 107.6382 66.47253 107.75557 65.22993 107.87292 63.74744 107.99028 61.94658 108.10767 59.70946 108.225 56.86201 108.34238 53.10988 108.45975 47.95407 108.5771 40.41202 108.69447 28.32504 108.79677 8.78487"/>
<path transform="matrix(-.005220261,1.0000099,.99999997,.005220313,93.55547,157.7498)" d="M2.8892 0-1.73352 2.31136 0 0-1.73352-2.31136" fill="#0000ff"/>
<path transform="matrix(.005220261,1.0000099,.99999997,-.005220313,116.881908,157.7498)" d="M2.8892 0-1.73352 2.31136 0 0-1.73352-2.31136" fill="#0000ff"/>
<path transform="matrix(1.00005,0,0,-1.00006,8.079704,166.5352)" stroke-width=".99628" stroke-linecap="butt" stroke-miterlimit="10" stroke-linejoin="miter" fill="none" stroke="#0000ff" d="M109.37457 152.61147 109.47687 133.04062 109.59425 120.97221 109.71161 113.43338 109.82896 108.28162 109.94633 104.53432 110.0637 101.68535 110.18106 99.44838 110.29842 97.64793 110.41579 96.1664 110.53316 94.92381 110.65051 93.87053 110.76788 92.96516 110.88524 92.17886 111.00261 91.48929 111.11998 90.88025 111.23734 90.33868 111.35469 89.85338 111.47206 89.41687 111.58943 89.02162 111.70679 88.66357 111.82414 88.33592 111.94153 88.03645 112.05888 87.76071 112.17624 87.50635 112.2936 87.27112 112.41098 87.05331 112.52834 86.85124 112.64569 86.66249 112.76306 86.48665 112.88043 86.32202 112.99779 86.16772 113.11516 86.02295 113.23253 85.88683 113.34988 85.75859 113.46725 85.63762 113.58461 85.52385 113.70198 85.4161 113.81935 85.31401 113.9367 85.21735 114.05406 85.12575 114.17143 85.03868 114.2888 84.95596 114.40616 84.87727 114.52351 84.80247 114.6409 84.73146 114.75826 84.66351 114.87561 84.59886 114.99298 84.53714 115.11035 84.47832 115.2277 84.4219 115.34508 84.36809 115.46243 84.31674 115.5798 84.26761 115.69716 84.22081 115.81453 84.17586 115.93188 84.13275 116.04926 84.09177 116.16663 84.05222 116.28398 84.01454 116.40134 83.97855 116.5187 83.94386 116.63608 83.91077 116.75343 83.87914 116.87079 83.84895 116.98817 83.81989 117.10553 83.79214 117.22289 83.76575 117.34026 83.74025 117.45763 83.71594 117.57498 83.69296 117.69234 83.67076 117.80972 83.64987 117.92708 83.62978 118.04443 83.61073 118.1618 83.59248 118.27917 83.57523 118.39653 83.55876 118.5139 83.5431 118.63126 83.52841 118.74863 83.51462 118.86598 83.50162 118.98335 83.48927 119.10071 83.47774 119.21808 83.46692 119.33545 83.45691 119.4528 83.44756 119.57016 83.43892 119.68755 83.43102 119.8049 83.42375 119.92226 83.41737 120.03963 83.41148 120.157 83.40631 120.27435 83.40172 120.39171 83.39792 120.50908 83.3947 120.62645 83.39212 120.7438 83.39018 120.86118 83.38898 120.97853 83.38832H121.0959L121.21327 83.38898 121.33063 83.39018 121.44798 83.39212 121.56535 83.3947 121.68272 83.39792 121.8001 83.40172 121.91743 83.40631 122.03482 83.41148 122.15218 83.41737 122.26953 83.4239 122.3869 83.43102 122.50427 83.43892 122.62163 83.44756 122.73898 83.45691 122.85637 83.467 122.97372 83.47783 123.09108 83.48927 123.20845 83.50162 123.32582 83.51462 123.44318 83.52841 123.56055 83.5431 123.6779 83.55876 123.79529 83.57523 123.91263 83.59233 124.03 83.61073 124.14737 83.62978 124.26472 83.64987 124.3821 83.67076 124.49945 83.69296 124.6168 83.71594 124.73419 83.74033 124.85155 83.76575 124.9689 83.79214 125.08626 83.82007 125.20364 83.84895 125.321 83.87929 125.43835 83.91093 125.55573 83.94386 125.67308 83.97855 125.79045 84.01454 125.90782 84.05238 126.02518 84.09177 126.14255 84.13292 126.2599 84.17586 126.37727 84.22081 126.49464 84.26776 126.612 84.31674 126.72937 84.36824 126.84671 84.42207 126.96408 84.47832 127.08147 84.53714 127.19882 84.59886 127.31618 84.66367 127.43355 84.73146 127.55092 84.80263 127.66829 84.87727 127.78563 84.95605 127.90302 85.03883 128.02036 85.12575 128.13773 85.21735 128.2551 85.31401 128.37247 85.41628 128.48983 85.52393 128.60718 85.63803 128.72455 85.75874 128.84194 85.88698 128.95928 86.02327 129.07665 86.16798 129.194 86.3221 129.31137 86.4869 129.42874 86.6629 129.5461 86.8515 129.66345 87.05356 129.78083 87.27151 129.8982 87.50667 130.01557 87.76088 130.1329 88.03645 130.25029 88.33624 130.36765 88.6638 130.485 89.0225 130.60237 89.41753 130.71974 89.85378 130.83712 90.33942 130.95446 90.88116 131.07183 91.49025 131.18921 92.17984 131.30655 92.9668 131.42392 93.8711 131.54128 94.92517 131.65865 96.1664 131.77602 97.6489 131.89337 99.44975 132.01076 101.68687 132.1281 104.53432 132.24547 108.28645 132.36284 113.44226 132.4802 120.98431 132.59757 133.05193 132.69986 152.61147"/>
<path transform="matrix(-.005220261,-1.0000099,-.99999997,.005220313,117.45974,13.914597)" d="M2.8892 0-1.73352 2.31136 0 0-1.73352-2.31136" fill="#0000ff"/>
<path transform="matrix(.005220261,-1.0000099,-.99999997,-.005220313,140.7862,13.914597)" d="M2.8892 0-1.73352 2.31136 0 0-1.73352-2.31136" fill="#0000ff"/>
<path transform="matrix(1.00005,0,0,-1.00006,8.079704,166.5352)" stroke-width=".99628" stroke-linecap="butt" stroke-miterlimit="10" stroke-linejoin="miter" fill="none" stroke="#0000ff" d="M133.27767 8.78487 133.37996 28.34442 133.49732 40.42412 133.6147 47.95407 133.73206 53.11472 133.84941 56.86201 133.96678 59.711 134.08415 61.94795 134.2015 63.7484 134.31888 65.23187 134.43624 66.47253 134.5536 67.5258 134.67098 68.43051 134.78833 69.21747 134.90569 69.90608 135.02307 70.51608 135.14043 71.05765 135.25778 71.54295 135.37516 71.97946 135.49253 72.37415 135.60988 72.73326 135.72724 73.06041 135.84462 73.36029 135.96198 73.63562 136.07933 73.88998 136.1967 74.12506 136.31407 74.34302 136.43143 74.5451 136.5488 74.73384 136.66616 74.90952 136.78353 75.07431 136.9009 75.22844 137.01825 75.3733 137.1356 75.5095 137.25298 75.63774 137.37035 75.75862 137.4877 75.87248 137.60506 75.98032 137.72245 76.08232 137.8398 76.17899 137.95716 76.27058 138.07453 76.35767 138.1919 76.44037 138.30925 76.51906 138.42662 76.59386 138.54398 76.66495 138.66135 76.73267 138.77872 76.79747 138.89608 76.85919 139.01343 76.91818 139.13082 76.97427 139.24817 77.02809 139.36553 77.07959 139.48288 77.12872 139.60027 77.17561 139.71762 77.22047 139.83498 77.26358 139.95236 77.30457 140.06972 77.34412 140.18708 77.38188 140.30445 77.41794 140.42182 77.45256 140.53917 77.4854 140.65653 77.51704 140.7739 77.54747 140.89127 77.57645 141.00862 77.60419 141.12599 77.63058 141.24335 77.6561 141.36072 77.68039 141.47809 77.70346 141.59545 77.72559 141.7128 77.74646 141.83019 77.76657 141.94754 77.7856 142.0649 77.80385 142.18227 77.8211 142.29964 77.83757 142.41699 77.85323 142.53437 77.86792 142.65172 77.88171 142.76909 77.89471 142.88645 77.90706 143.00382 77.9186 143.12117 77.92934 143.23854 77.93942 143.35591 77.94878 143.47327 77.95741 143.59062 77.96532 143.70801 77.97258 143.82537 77.97897 143.94272 77.98485 144.06009 77.99002 144.17746 77.99461 144.29482 77.99841 144.41219 78.00163 144.52956 78.00421 144.64691 78.00615 144.76428 78.00737 144.88164 78.00801H144.99901L145.11638 78.00737 145.23374 78.00615 145.35109 78.00421 145.46846 78.00163 145.58583 77.99841 145.70319 77.99461 145.82054 77.99002 145.93793 77.98485 146.05527 77.97897 146.17264 77.97243 146.29001 77.96532 146.40738 77.95741 146.52474 77.94878 146.64209 77.93942 146.75946 77.92934 146.87685 77.9186 146.99419 77.90706 147.11156 77.89471 147.22891 77.88171 147.34629 77.86792 147.46366 77.85323 147.58101 77.83757 147.69838 77.8211 147.81574 77.80385 147.9331 77.7856 148.05048 77.76657 148.16782 77.74646 148.2852 77.72559 148.40256 77.70337 148.51993 77.68039 148.63729 77.656 148.75466 77.63058 148.87203 77.60419 148.98937 77.57626 149.10674 77.54738 149.22412 77.51704 149.34146 77.4854 149.45883 77.45247 149.5762 77.41779 149.69358 77.38179 149.81093 77.34412 149.92829 77.30457 150.04567 77.26341 150.16303 77.22047 150.28038 77.17552 150.39775 77.12857 150.51512 77.07942 150.63248 77.02809 150.74983 76.97427 150.8672 76.91801 150.98459 76.85919 151.10193 76.79747 151.2193 76.73267 151.33666 76.66487 151.45404 76.59386 151.5714 76.5188 151.68875 76.44028 151.80612 76.3575 151.92348 76.27058 152.04085 76.17899 152.15822 76.08223 152.27556 75.98022 152.39295 75.8724 152.5103 75.75862 152.62767 75.63759 152.74503 75.50935 152.8624 75.37306 152.97977 75.22835 153.0971 75.07423 153.21448 74.90952 153.33187 74.73343 153.44922 74.54485 153.56658 74.34254 153.68393 74.12482 153.80132 73.88966 153.91869 73.63545 154.03603 73.35963 154.15341 73.05983 154.27077 72.73253 154.38813 72.37383 154.5055 71.9788 154.62287 71.54256 154.74022 71.05692 154.85758 70.51517 154.97495 69.90567 155.09233 69.2165 155.20967 68.43051 155.32704 67.52403 155.4444 66.47116 155.56177 65.22993 155.67914 63.74744 155.7965 61.94658 155.91387 59.70946 156.03122 56.86201 156.14859 53.10988 156.26596 47.95407 156.3833 40.41202 156.50069 28.34442 156.60298 8.76389"/>
<path transform="matrix(-.005220261,1.0000099,.99999997,.005220313,141.36402,157.7498)" d="M2.8892 0-1.73352 2.31136 0 0-1.73352-2.31136" fill="#0000ff"/>
<path transform="matrix(.005220261,1.0000099,.99999997,-.005220313,164.69052,157.77079)" d="M2.8892 0-1.73352 2.31136 0 0-1.73352-2.31136" fill="#0000ff"/>
<path transform="matrix(1.00005,0,0,-1.00006,8.079704,166.5352)" stroke-width=".99628" stroke-linecap="butt" stroke-miterlimit="10" stroke-linejoin="miter" fill="none" stroke="#0000ff" d="M157.18076 152.61147 157.28305 133.05193 157.4004 120.97221 157.51779 113.43338 157.63515 108.28162 157.7525 104.53432 157.86988 101.68535 157.98725 99.44838 158.1046 97.64793 158.22197 96.16446 158.33933 94.92381 158.4567 93.87053 158.57407 92.96516 158.69142 92.17886 158.80878 91.48929 158.92615 90.88025 159.04352 90.33868 159.16088 89.85338 159.27823 89.41664 159.39562 89.02219 159.51297 88.66357 159.63033 88.33592 159.7477 88.03645 159.86507 87.76039 159.98242 87.50635 160.0998 87.27127 160.21715 87.05331 160.33452 86.851 160.45189 86.66258 160.56925 86.48682 160.6866 86.32202 160.80399 86.1679 160.92134 86.02303 161.0387 85.88683 161.15605 85.75874 161.27344 85.63771 161.3908 85.52385 161.50815 85.41602 161.62552 85.31401 161.74289 85.21735 161.86025 85.12575 161.97762 85.03868 162.09499 84.95596 162.21234 84.87727 162.32971 84.80247 162.44707 84.73146 162.56444 84.66351 162.68181 84.59886 162.79917 84.53714 162.91652 84.47815 163.0339 84.4219 163.15126 84.36809 163.26862 84.31674 163.38597 84.26761 163.50336 84.22081 163.62071 84.17586 163.73807 84.13275 163.85544 84.09177 163.97281 84.05222 164.09017 84.01454 164.20754 83.9784 164.32489 83.94386 164.44226 83.91093 164.55962 83.87929 164.67699 83.84886 164.79434 83.81989 164.91172 83.79214 165.02909 83.76575 165.14644 83.74025 165.2638 83.71594 165.38118 83.69287 165.49854 83.67076 165.61589 83.64987 165.73326 83.62978 165.85063 83.61073 165.96799 83.59233 166.08536 83.57506 166.20272 83.55876 166.32009 83.5431 166.43746 83.52841 166.55481 83.51462 166.67218 83.50162 166.78954 83.48927 166.9069 83.47774 167.02426 83.467 167.14163 83.45691 167.259 83.44756 167.37636 83.43892 167.49372 83.43102 167.6111 83.42375 167.72846 83.41737 167.84581 83.41148 167.96318 83.40631 168.08055 83.40172 168.1979 83.39792 168.31528 83.3947 168.43264 83.39212 168.55 83.39018 168.66738 83.38898 168.78473 83.38832H168.90209L169.01947 83.38898 169.13683 83.39018 169.25418 83.39212 169.37154 83.3947 169.48892 83.39792 169.60628 83.40172 169.72364 83.40631 169.841 83.41148 169.95836 83.41737 170.07573 83.4239 170.1931 83.43102 170.31046 83.43892 170.42783 83.44756 170.54518 83.45691 170.66255 83.467 170.77993 83.47774 170.89728 83.48927 171.01465 83.50162 171.132 83.51462 171.24938 83.52841 171.36675 83.5431 171.4841 83.55876 171.60147 83.57523 171.71883 83.59248 171.8362 83.61073 171.95357 83.62978 172.0709 83.64987 172.1883 83.67076 172.30565 83.69296 172.42302 83.71594 172.54038 83.74033 172.65775 83.76575 172.77512 83.79214 172.89246 83.82007 173.00983 83.84895 173.12722 83.87929 173.24456 83.91093 173.36193 83.94386 173.47928 83.97855 173.59667 84.01454 173.71402 84.05238 173.83138 84.09177 173.94875 84.13275 174.06612 84.17586 174.18347 84.22081 174.30084 84.26776 174.4182 84.31674 174.53557 84.36824 174.65293 84.42207 174.7703 84.47832 174.88767 84.53714 175.00502 84.59886 175.12239 84.66367 175.23975 84.73146 175.35712 84.80247 175.47449 84.87753 175.59185 84.95605 175.70922 85.03883 175.82656 85.12575 175.94394 85.21751 176.06131 85.3141 176.17865 85.41628 176.29604 85.52393 176.41339 85.63771 176.53076 85.75874 176.64812 85.88698 176.76549 86.02327 176.88286 86.16798 177.0002 86.3221 177.11757 86.4869 177.23496 86.6629 177.35231 86.8515 177.46967 87.05379 177.58702 87.27151 177.7044 87.50667 177.82178 87.76071 177.93912 88.0367 178.05649 88.33624 178.17386 88.6638 178.29122 89.0225 178.40859 89.41753 178.52594 89.85442 178.64331 90.33942 178.76067 90.88116 178.87804 91.49025 178.9954 92.17984 179.11277 92.96582 179.23014 93.8711 179.34749 94.92517 179.46485 96.16711 179.58223 97.65004 179.69959 99.45233 179.81696 101.68687 179.9343 104.53432 180.05168 108.28645 180.16905 113.44226 180.28639 120.98431 180.40377 133.07129 180.50606 152.61147"/>
<path transform="matrix(-.005220261,-1.0000099,-.99999997,.005220313,165.26831,13.914597)" d="M2.8892 0-1.73352 2.31136 0 0-1.73352-2.31136" fill="#0000ff"/>
<path transform="matrix(.005220261,-1.0000099,-.99999997,-.005220313,188.59479,13.914597)" d="M2.8892 0-1.73352 2.31136 0 0-1.73352-2.31136" fill="#0000ff"/>
<path transform="matrix(1.00005,0,0,-1.00006,8.079704,166.5352)" stroke-width=".99628" stroke-linecap="butt" stroke-miterlimit="10" stroke-linejoin="miter" fill="none" stroke="#0000ff" d="M181.08156 8.78487 181.12746 19.13028 181.18614 28.34442 181.24481 35.16019 181.3035 40.42412 181.36219 44.5825 181.42086 47.96295 181.47954 50.75752 181.53823 53.11472 181.5969 55.12871 181.65558 56.86621 181.71427 58.38083 181.77294 59.711 181.83162 60.89459 181.8903 61.94658 181.94899 62.89365 182.00768 63.7484 182.06635 64.5232 182.12503 65.22993 182.18372 65.87778 182.24239 66.47253 182.30107 67.01895 182.35974 67.5258 182.41843 67.995 182.47711 68.43051 182.53578 68.83739 182.59447 69.2165 182.65316 69.5732 182.71183 69.90608 182.77051 70.22057 182.82918 70.51517 182.88788 70.79424 182.94657 71.05692 183.00524 71.30603 183.06392 71.54295 183.1226 71.76625 183.18128 71.97946 183.23996 72.1811 183.29863 72.37415 183.35732 72.55757 183.416 72.73253 183.47467 72.89996 183.53336 73.06009 183.59204 73.2135 183.65071 73.35988 183.7094 73.50078 183.76808 73.63545 183.82675 73.76523 183.88544 73.88966 183.94412 74.00958 184.0028 74.12482 184.0615 74.23576 184.12017 74.34277 184.17885 74.44542 184.23754 74.5451 184.2962 74.64088 184.35489 74.73375 184.41356 74.82301 184.47225 74.90952 184.53093 74.99321 184.5896 75.07431 184.64829 75.15292 184.70697 75.22835 184.76564 75.30211 184.82433 75.3733 184.883 75.44246 184.9417 75.5095 185.00038 75.57448 185.05905 75.63759 185.11774 75.69891 185.17642 75.75862 185.23509 75.81609 185.29378 75.87248 185.35245 75.92688 185.41114 75.98022 185.46982 76.03195 185.52849 76.08232 185.58718 76.13121 185.64586 76.17899 185.70453 76.22556 185.76322 76.27042 185.8219 76.31464 185.88057 76.3575 185.93926 76.39937 185.99794 76.44028 186.05663 76.48016 186.11531 76.51906 186.17398 76.55666 186.23267 76.5937 186.29135 76.62961 186.35002 76.66487 186.4087 76.69925 186.46738 76.73267 186.52606 76.76543 186.58475 76.79747 186.64342 76.82877 186.7021 76.85904 186.76079 76.88904 186.81946 76.91801 186.87815 76.9466 186.93682 76.97427 186.99552 77.00156 187.05419 77.02809 187.11287 77.054 187.17154 77.07959 187.23024 77.1042 187.28891 77.12857 187.3476 77.1523 187.40627 77.17552 187.46495 77.19812 187.52364 77.22047 187.5823 77.24226 187.64099 77.26341 187.69968 77.2844 187.75835 77.30457 187.81703 77.32458 187.87574 77.34395 187.93439 77.36307 187.99308 77.38179 188.05175 77.39986 188.11043 77.41779 188.16913 77.4353 188.2278 77.45247 188.28649 77.46902 188.34517 77.4854 188.40384 77.50146 188.46253 77.51704 188.5212 77.53246 188.57988 77.54738 188.63857 77.56216 188.69724 77.57626 188.75592 77.59048 188.8146 77.60419 188.87328 77.6176 188.93196 77.63058 188.99063 77.64342 189.04933 77.6561 189.108 77.6682 189.16669 77.68039 189.22536 77.69193 189.28406 77.70337 189.34273 77.71443 189.40142 77.7254 189.46009 77.73615 189.51877 77.74646 189.57746 77.75671 189.63613 77.76657 189.69481 77.77625 189.7535 77.7856 189.81217 77.79498 189.87085 77.80385 189.92955 77.81264 189.9882 77.8211 190.0469 77.82951 190.10556 77.83757 190.16425 77.84532 190.22295 77.85323 190.2816 77.8605 190.3403 77.86792 190.39897 77.87477 190.45766 77.88171 190.51634 77.88834 190.57501 77.89471 190.6337 77.90102 190.69239 77.90706 190.75106 77.91295 190.80974 77.9185 190.86843 77.92416 190.9271 77.92934 190.98578 77.9345 191.04445 77.93942 191.10315 77.9441 191.16182 77.94878 191.2205 77.95314 191.27918 77.95741 191.33788 77.96136 191.39655 77.96532 191.45523 77.96895 191.5139 77.97243 191.57259 77.97574 191.63127 77.97897 191.68994 77.98203 191.74863 77.98485 191.80731 77.9876 191.86598 77.99002 191.92467 77.99236 191.98336 77.99461 192.04203 77.99655 192.10071 77.99841 192.15938 78.00002 192.21807 78.00172 192.27677 78.00302 192.33542 78.00421 192.39412 78.00526 192.45279 78.00615 192.51148 78.00688 192.57016 78.00737 192.62883 78.00793 192.68752 78.00801 189.85698 78.00816"/>
<path transform="matrix(-.0044302216,1.0000099,.99999997,.0044302658,189.17032,157.7498)" d="M2.8892 0-1.73352 2.31136 0 0-1.73352-2.31136" fill="#0000ff"/>
<path transform="matrix(1.00005,0,0,-1.00006,197.94617,88.52236)" d="M2.8892 0-1.73352 2.31136 0 0-1.73352-2.31136" fill="#0000ff"/>
<path transform="matrix(1.00005,0,0,-1.00006,8.079704,166.5352)" stroke-width=".3985" stroke-linecap="butt" stroke-dasharray="2.98883,2.98883" stroke-miterlimit="10" stroke-linejoin="miter" fill="none" stroke="#ff0000" d="M13.47325 0V161.39636"/>
<path transform="matrix(1.00005,0,0,-1.00006,8.079704,166.5352)" stroke-width=".3985" stroke-linecap="butt" stroke-dasharray="2.98883,2.98883" stroke-miterlimit="10" stroke-linejoin="miter" fill="none" stroke="#ff0000" d="M37.37634 0V161.39636"/>
<path transform="matrix(1.00005,0,0,-1.00006,8.079704,166.5352)" stroke-width=".3985" stroke-linecap="butt" stroke-dasharray="2.98883,2.98883" stroke-miterlimit="10" stroke-linejoin="miter" fill="none" stroke="#ff0000" d="M61.27942 0V161.39636"/>
<path transform="matrix(1.00005,0,0,-1.00006,8.079704,166.5352)" stroke-width=".3985" stroke-linecap="butt" stroke-dasharray="2.98883,2.98883" stroke-miterlimit="10" stroke-linejoin="miter" fill="none" stroke="#ff0000" d="M85.18251 0V161.39636"/>
<path transform="matrix(1.00005,0,0,-1.00006,8.079704,166.5352)" stroke-width=".3985" stroke-linecap="butt" stroke-dasharray="2.98883,2.98883" stroke-miterlimit="10" stroke-linejoin="miter" fill="none" stroke="#ff0000" d="M109.0856 0V161.39636"/>
<path transform="matrix(1.00005,0,0,-1.00006,8.079704,166.5352)" stroke-width=".3985" stroke-linecap="butt" stroke-dasharray="2.98883,2.98883" stroke-miterlimit="10" stroke-linejoin="miter" fill="none" stroke="#ff0000" d="M132.9887 0V161.39636"/>
<path transform="matrix(1.00005,0,0,-1.00006,8.079704,166.5352)" stroke-width=".3985" stroke-linecap="butt" stroke-dasharray="2.98883,2.98883" stroke-miterlimit="10" stroke-linejoin="miter" fill="none" stroke="#ff0000" d="M156.89179 0V161.39636"/>
<path transform="matrix(1.00005,0,0,-1.00006,8.079704,166.5352)" stroke-width=".3985" stroke-linecap="butt" stroke-dasharray="2.98883,2.98883" stroke-miterlimit="10" stroke-linejoin="miter" fill="none" stroke="#ff0000" d="M180.79488 0V161.39636"/>
<use data-text="x" xlink:href="#font_3_2" transform="matrix(9.963098,0,0,-9.963197,193.14295,82.31215)"/>
<use data-text="y" xlink:href="#font_3_3" transform="matrix(9.963098,0,0,-9.963197,108.73873,12.93898)"/>
</svg>
