<svg xmlns="http://www.w3.org/2000/svg" xmlns:xlink="http://www.w3.org/1999/xlink" version="1.1" width="209" height="171" viewBox="0 0 209 171">
<defs>
<path id="font_1_1" d="M.6589966 .23046875C.6759949 .23046875 .69400027 .23046875 .69400027 .25045777 .69400027 .27046205 .6759949 .27046205 .6589966 .27046205H.117996219C.100997928 .27046205 .08299255 .27046205 .08299255 .25045777 .08299255 .23046875 .100997928 .23046875 .117996219 .23046875H.6589966Z"/>
<path id="font_2_1" d="M.31098939 .36265565H.42999269C.4149933 .30274964 .3929901 .2118988 .3929901 .13302613 .3929901 .09309387 .397995 .06613159 .4039917 .044174196 .41999818-.0057678224 .43299867-.009765625 .44898988-.009765625 .47200013-.009765625 .49598695 .011230469 .49598695 .035186769 .49598695 .043182374 .49398805 .047164918 .48799134 .057159425 .46899415 .09408569 .45098878 .15100098 .45098878 .23286438 .45098878 .25183106 .45098878 .29177857 .46499635 .36265565H.58999636C.60798647 .36265565 .6159973 .36265565 .6269989 .37065126 .6409912 .380661 .6439972 .39665223 .6439972 .4016571 .6439972 .43066407 .6179962 .43066407 .6009979 .43066407H.22399903C.18299866 .43066407 .15499878 .42166139 .10998535 .37965394 .083999637 .35665895 .04499817 .30274964 .04499817 .2937622 .04499817 .28178407 .057998659 .28178407 .06199646 .28178407 .07299805 .28178407 .07398987 .28378297 .07998657 .2927704 .1309967 .36265565 .19299317 .36265565 .21499634 .36265565H.27598573C.24499512 .25283814 .19099427 .13502503 .16099549 .07511902 .15499878 .062149049 .14498902 .04118347 .14199829 .03718567 .14099121 .033187868 .13899231 .029190064 .13899231 .022201539 .13899231 .006225586 .15098572-.009765625 .17399597-.009765625 .21398926-.009765625 .22499085 .035186769 .24899292 .12504578L.31098939 .36265565Z"/>
<path id="font_3_1" d="M.5049896 .18203736H.47099305C.46798707 .16001892 .45799256 .100997928 .44499208 .09098816 .43699647 .084991458 .3600006 .084991458 .34599305 .084991458H.1619873C.2669983 .17803955 .3019867 .20603943 .3619995 .25306703 .43598939 .312088 .5049896 .374115 .5049896 .46914674 .5049896 .5900879 .39898683 .6640625 .2709961 .6640625 .14698792 .6640625 .06298828 .57710269 .06298828 .4851532 .06298828 .43414308 .10598755 .42915345 .115997318 .42915345 .13999939 .42915345 .16899109 .44615174 .16899109 .48214723 .16899109 .5001526 .1619873 .53515627 .10998535 .53515627 .14099121 .6060791 .20899964 .62805178 .2559967 .62805178 .35598756 .62805178 .4079895 .5501404 .4079895 .46914674 .4079895 .38212586 .34599305 .3130951 .31399537 .27708436L.07299805 .038986207C.06298828 .02999878 .06298828 .027999878 .06298828 0H.47499085L.5049896 .18203736Z"/>
<path id="font_4_1" d="M.2649994 .37265016H.37799073C.34498597 .22489929 .33599855 .18196106 .33599855 .11508179 .33599855 .100097659 .33599855 .073150638 .34399415 .03919983 .35398866-.0047454836 .36499024-.0107421879 .37998963-.0107421879 .3999939-.0107421879 .42099 .007247925 .42099 .02722168 .42099 .033218385 .42099 .035202028 .4149933 .049179079 .38598634 .12106323 .38598634 .18595886 .38598634 .21391297 .38598634 .26683045 .3929901 .32073976 .4039917 .37265016H.5179901C.5309906 .37265016 .5669861 .37265016 .5669861 .406662 .5669861 .43066407 .54599 .43066407 .5269928 .43066407H.19198609C.16999817 .43066407 .13198853 .43066407 .08799744 .38365174 .052993776 .34469605 .026992798 .29878236 .026992798 .29379273 .026992798 .29278565 .026992798 .28379823 .038986207 .28379823 .04699707 .28379823 .04899597 .28779603 .054992677 .29577638 .10398865 .37265016 .1619873 .37265016 .18199158 .37265016H.23899842C.20698548 .25186158 .15299988 .13105774 .11099243 .04020691 .102996829 .025222779 .102996829 .023223877 .102996829 .016235352 .102996829-.002746582 .11898804-.0107421879 .13198853-.0107421879 .1619873-.0107421879 .16999817 .017242432 .18199158 .05418396 .19599915 .100097659 .19599915 .10209656 .20899964 .15202332L.2649994 .37265016Z"/>
<path id="font_3_2" d="M.272995 .33428956C.35099793 .33428956 .40699769 .2803192 .40699769 .1733551 .40699769 .04940796 .33499146 .012466431 .2769928 .012466431 .23699951 .012466431 .14898682 .0234375 .10699463 .082351688 .1539917 .084350589 .16499329 .11735535 .16499329 .13835144 .16499329 .17034912 .14099121 .19335938 .10998535 .19335938 .08198547 .19335938 .053985597 .17634583 .053985597 .13534546 .053985597 .041412355 .1579895-.01953125 .2789917-.01953125 .41799928-.01953125 .5139923 .07336426 .5139923 .1733551 .5139923 .2513275 .44999696 .32929994 .33999635 .35229493 .44499208 .39024354 .48298646 .4650879 .48298646 .5260773 .48298646 .60505679 .3919983 .6640625 .2809906 .6640625 .16999817 .6640625 .084991458 .61006167 .084991458 .5300751 .084991458 .49606324 .10699463 .47706605 .13699341 .47706605 .16799927 .47706605 .18798828 .5000763 .18798828 .5280762 .18798828 .5570679 .16799927 .57806399 .13699341 .5800781 .17199707 .62405398 .24099732 .63505557 .27799989 .63505557 .32299806 .63505557 .38598634 .6130676 .38598634 .5260773 .38598634 .48406983 .37199403 .43814088 .34599305 .4072113 .31298829 .36927796 .2849884 .3672943 .23498535 .36428834 .20999146 .3623047 .20799256 .3623047 .20298767 .3612976 .20098877 .3612976 .19299317 .3592987 .19299317 .34829713 .19299317 .33428956 .20199585 .33428956 .21899414 .33428956H.272995Z"/>
<path id="font_5_2" d="M.1269989 .07699585 .23298645 .18003845C.3889923 .31811524 .44898988 .3721466 .44898988 .47216798 .44898988 .5860901 .35899354 .6660156 .23699951 .6660156 .12399292 .6660156 .049987794 .57411196 .049987794 .48516847 .049987794 .4291687 .099990848 .4291687 .102996829 .4291687 .11999512 .4291687 .15499878 .44117738 .15499878 .48217774 .15499878 .5081787 .13699341 .5341797 .101989749 .5341797 .09399414 .5341797 .09199524 .5341797 .08898926 .5331726 .11199951 .59806826 .1659851 .63500979 .22399903 .63500979 .31498719 .63500979 .35798646 .5541382 .35798646 .47216798 .35798646 .39215089 .30799867 .31311036 .25299073 .25108338L.06098938 .036987306C.049987794 .025985718 .049987794 .023986817 .049987794 0H.42099L.44898988 .17404175H.42399598C.4189911 .14402771 .4119873 .1000061 .4019928 .084991458 .394989 .07699585 .32899476 .07699585 .30699159 .07699585H.1269989Z"/>
<path id="font_5_3" d="M.2899933 .35191346C.37199403 .37893678 .42999269 .4490509 .42999269 .52809146 .42999269 .6100464 .34199525 .6660156 .24598694 .6660156 .14498902 .6660156 .068984989 .60606387 .068984989 .53009036 .068984989 .49710084 .09098816 .47808839 .11999512 .47808839 .15098572 .47808839 .17098999 .50009158 .17098999 .5290985 .17098999 .57910159 .12399292 .57910159 .10899353 .57910159 .13999939 .62802127 .20599365 .64100649 .24198914 .64100649 .2829895 .64100649 .33799745 .6190338 .33799745 .5290985 .33799745 .51708987 .33599855 .45906068 .30999757 .4149933 .27999879 .36691285 .24598694 .36390687 .22099304 .36291505 .21299744 .36190797 .18899536 .35990907 .18199158 .35990907 .17399597 .35890199 .16699219 .35791017 .16699219 .3479004 .16699219 .33691407 .17399597 .33691407 .19099427 .33691407H.23498535C.31698609 .33691407 .35398866 .2686615 .35398866 .17037964 .35398866 .034469606 .2849884 .0055389406 .24099732 .0055389406 .19799805 .0055389406 .12298584 .022491456 .08799744 .08137512 .12298584 .07637024 .1539917 .09837341 .1539917 .1363678 .1539917 .17237854 .1269989 .19238281 .09799194 .19238281 .07398987 .19238281 .041992189 .17837525 .041992189 .1343689 .041992189 .043441774 .1349945-.022460938 .24398804-.022460938 .3659973-.022460938 .45700074 .06838989 .45700074 .17037964 .45700074 .252594 .3939972 .33088685 .2899933 .35191346Z"/>
<path id="font_5_1" d="M.2939911 .64004519C.2939911 .66400149 .2939911 .6660156 .2709961 .6660156 .20899964 .60227969 .12098694 .60227969 .08898926 .60227969V.57128909C.10899353 .57128909 .16799927 .57128909 .21998596 .5972748V.07902527C.21998596 .042999269 .21699524 .0309906 .1269989 .0309906H.09498596V0C.12998963 .0029907227 .21699524 .0029907227 .25698854 .0029907227 .29699708 .0029907227 .38398744 .0029907227 .4189911 0V.0309906H.3869934C.29699708 .0309906 .2939911 .041992189 .2939911 .07902527V.64004519Z"/>
<path id="font_4_2" d="M.33399964 .30233766C.33999635 .32835389 .36299134 .42037965 .43299867 .42037965 .43798829 .42037965 .46199037 .42037965 .48298646 .40734864 .45498658 .402359 .43499757 .37734986 .43499757 .35334779 .43499757 .33735658 .44599916 .31835938 .47299195 .31835938 .49499513 .31835938 .5269928 .3363495 .5269928 .37635804 .5269928 .42837525 .46798707 .4423828 .43399049 .4423828 .37599183 .4423828 .34098817 .38935853 .32899476 .36634828 .3039856 .43237306 .25 .4423828 .22099304 .4423828 .116989139 .4423828 .05999756 .3133545 .05999756 .28834535 .05999756 .27833558 .069992069 .27833558 .07199097 .27833558 .07998657 .27833558 .08299255 .28033448 .084991458 .28933717 .11898804 .39535523 .18499756 .42037965 .21899414 .42037965 .23799134 .42037965 .272995 .4113617 .272995 .35334779 .272995 .32235719 .2559967 .25532533 .21899414 .11528015 .20298767 .053268434 .16799927 .011245728 .12399292 .011245728 .117996219 .011245728 .09498596 .011245728 .07398987 .024276734 .09899902 .029266358 .12098694 .05027771 .12098694 .07827759 .12098694 .105270389 .09899902 .11328125 .083999637 .11328125 .053985597 .11328125 .0289917 .08728027 .0289917 .055267335 .0289917 .009246826 .07899475-.0107421879 .12298584-.0107421879 .18899536-.0107421879 .22499085 .059280397 .22799683 .0652771 .23999024 .028274537 .27598573-.0107421879 .33599855-.0107421879 .43899537-.0107421879 .49598695 .118270877 .49598695 .14328003 .49598695 .1532898 .4869995 .1532898 .48399354 .1532898 .47499085 .1532898 .47299195 .14929199 .47099305 .14228821 .43798829 .03527832 .36999513 .011245728 .33799745 .011245728 .29899598 .011245728 .2829895 .043273927 .2829895 .07727051 .2829895 .09927368 .2889862 .121276859 .2999878 .16529846L.33399964 .30233766Z"/>
<path id="font_4_3" d="M.48599244 .38136292C.48999024 .39537049 .48999024 .39736939 .48999024 .40437318 .48999024 .42237855 .47599793 .43138124 .46099855 .43138124 .45098878 .43138124 .43499757 .42536927 .42599488 .41036988 .42399598 .405365 .41600038 .37435914 .4119873 .35635377 .40499879 .33035279 .397995 .30334474 .3919983 .27633668L.34700013 .09628296C.34298707 .08126831 .2999878 .011245728 .23399353 .011245728 .18299866 .011245728 .17199707 .055267335 .17199707 .0922699 .17199707 .1382904 .18899536 .20030213 .22299195 .28833009 .23899842 .3293457 .24299622 .3403473 .24299622 .36035157 .24299622 .405365 .21099854 .4423828 .16099549 .4423828 .06599426 .4423828 .0289917 .29733277 .0289917 .28833009 .0289917 .27833558 .038986207 .27833558 .040985109 .27833558 .050994874 .27833558 .051986696 .28033448 .056991579 .29634095 .083999637 .3903656 .12399292 .42037965 .1579895 .42037965 .1659851 .42037965 .18299866 .42037965 .18299866 .3883667 .18299866 .36335755 .17298889 .3373413 .1659851 .31834413 .12599182 .21231079 .10798645 .1552887 .10798645 .10827637 .10798645 .019256592 .17098999-.0107421879 .22999573-.0107421879 .2689972-.0107421879 .30299378 .0062561037 .33099366 .03425598 .31799317-.017745972 .30599977-.06674194 .2659912-.11973572 .23999024-.15385437 .20199585-.18309021 .1559906-.18309021 .14199829-.18309021 .09700012-.18005371 .07998657-.14074707 .09599304-.14074707 .10899353-.14074707 .12298584-.1287384 .1329956-.11973572 .14299011-.10673523 .14299011-.08773804 .14299011-.056747438 .115997318-.052734376 .10598755-.052734376 .08299255-.052734376 .049987794-.068740848 .049987794-.11773682 .049987794-.16796875 .09399414-.20507813 .1559906-.20507813 .25898744-.20507813 .3619995-.11373901 .3899994-.00074768069L.48599244 .38136292Z"/>
</defs>
<path transform="matrix(1.00005,0,0,-1.00006,7.7426836,166.5352)" stroke-width=".19925" stroke-linecap="butt" stroke-miterlimit="10" stroke-linejoin="miter" fill="none" stroke="#929292" d="M0 119.6298V122.46472M19.42697 119.6298V122.46472M38.85394 119.6298V122.46472M58.28093 119.6298V122.46472M77.7079 119.6298V122.46472M97.13489 119.6298V122.46472M116.56186 119.6298V122.46472M135.98885 119.6298V122.46472M155.41582 119.6298V122.46472M174.8428 119.6298V122.46472M194.26979 119.6298V122.46472"/>
<path transform="matrix(1.00005,0,0,-1.00006,7.7426836,166.5352)" stroke-width=".19925" stroke-linecap="butt" stroke-miterlimit="10" stroke-linejoin="miter" fill="none" stroke="#929292" d="M0 118.92128V123.17323M77.70741 118.92128V123.17323M116.56111 118.92128V123.17323M155.41484 118.92128V123.17323M194.26854 118.92128V123.17323"/>
<path transform="matrix(1.00005,0,0,-1.00006,7.7426836,166.5352)" stroke-width=".19925" stroke-linecap="butt" stroke-miterlimit="10" stroke-linejoin="miter" fill="none" stroke="#929292" d="M37.43631 0H40.2711M37.43631 20.17455H40.2711M37.43631 40.34909H40.2711M37.43631 60.52364H40.2711M37.43631 80.69818H40.2711M37.43631 100.87273H40.2711M37.43631 121.04727H40.2711M37.43631 141.22182H40.2711M37.43631 161.39636H40.2711"/>
<path transform="matrix(1.00005,0,0,-1.00006,7.7426836,166.5352)" stroke-width=".19925" stroke-linecap="butt" stroke-miterlimit="10" stroke-linejoin="miter" fill="none" stroke="#929292" d="M36.72781 0H40.97957M36.72781 40.34909H40.97957M36.72781 80.69818H40.97957M36.72781 161.39636H40.97957"/>
<path transform="matrix(1.00005,0,0,-1.00006,7.7426836,166.5352)" stroke-width=".3985" stroke-linecap="butt" stroke-miterlimit="10" stroke-linejoin="miter" fill="none" stroke="#000000" d="M0 121.04727H192.27663"/>
<path transform="matrix(1.00005,0,0,-1.00006,200.0289,45.480676)" d="M1.99252 0-1.19551 1.59401 0 0-1.19551-1.59401"/>
<path transform="matrix(1.00005,0,0,-1.00006,7.7426836,166.5352)" stroke-width=".3985" stroke-linecap="butt" stroke-miterlimit="10" stroke-linejoin="miter" fill="none" stroke="#000000" d="M38.8537 0V159.40384"/>
<path transform="matrix(0,-1.00006,-1.00005,-0,46.598325,7.121811)" d="M1.99252 0-1.19551 1.59401 0 0-1.19551-1.59401"/>
<use data-text="&#x2212;" xlink:href="#font_1_1" transform="matrix(9.963098,0,0,-9.963197,.2183075,58.052698)"/>
<use data-text="&#x03c0;" xlink:href="#font_2_1" transform="matrix(6.9741489,0,0,-6.9742186,9.16275,54.129465)"/>
<path transform="matrix(1.00005,0,0,-1.00006,-104.37392,-88.54609)" stroke-width=".3985" stroke-linecap="butt" stroke-miterlimit="10" stroke-linejoin="miter" fill="none" stroke="#000000" d="M113.531-144.099H118.44"/>
<use data-text="2" xlink:href="#font_3_1" transform="matrix(6.9741489,0,0,-6.9742186,9.631775,61.487909)"/>
<use data-text="&#x03c0;" xlink:href="#font_2_1" transform="matrix(6.9741489,0,0,-6.9742186,82.99844,54.12948)"/>
<path transform="matrix(1.00005,0,0,-1.00006,-22.788842,-88.54609)" stroke-width=".3985" stroke-linecap="butt" stroke-miterlimit="10" stroke-linejoin="miter" fill="none" stroke="#000000" d="M105.782-144.099H110.691"/>
<use data-text="2" xlink:href="#font_3_1" transform="matrix(6.9741489,0,0,-6.9742186,83.46747,61.487909)"/>
<use data-text="&#x03c0;" xlink:href="#font_4_1" transform="matrix(9.963098,0,0,-9.963197,121.29135,55.416543)"/>
<use data-text="3" xlink:href="#font_3_2" transform="matrix(6.9741489,0,0,-6.9742186,158.72423,55.621568)"/>
<use data-text="&#x03c0;" xlink:href="#font_2_1" transform="matrix(6.9741489,0,0,-6.9742186,162.69544,55.621568)"/>
<path transform="matrix(1.00005,0,0,-1.00006,52.936944,-87.054)" stroke-width=".3985" stroke-linecap="butt" stroke-miterlimit="10" stroke-linejoin="miter" fill="none" stroke="#000000" d="M105.782-144.099H114.662"/>
<use data-text="2" xlink:href="#font_3_1" transform="matrix(6.9741489,0,0,-6.9742186,161.17935,62.979997)"/>
<use data-text="2" xlink:href="#font_5_2" transform="matrix(9.963098,0,0,-9.963197,196.51212,57.54766)"/>
<use data-text="&#x03c0;" xlink:href="#font_4_1" transform="matrix(9.963098,0,0,-9.963197,201.49335,57.54766)"/>
<use data-text="&#x2212;" xlink:href="#font_1_1" transform="matrix(9.963098,0,0,-9.963197,28.22171,169.33037)"/>
<use data-text="3" xlink:href="#font_5_3" transform="matrix(9.963098,0,0,-9.963197,35.970094,169.33037)"/>
<use data-text="&#x2212;" xlink:href="#font_1_1" transform="matrix(9.963098,0,0,-9.963197,28.22171,128.97895)"/>
<use data-text="2" xlink:href="#font_5_2" transform="matrix(9.963098,0,0,-9.963197,35.970094,128.97895)"/>
<use data-text="&#x2212;" xlink:href="#font_1_1" transform="matrix(9.963098,0,0,-9.963197,28.22171,88.62753)"/>
<use data-text="1" xlink:href="#font_5_1" transform="matrix(9.963098,0,0,-9.963197,35.970094,88.62753)"/>
<use data-text="1" xlink:href="#font_5_1" transform="matrix(9.963098,0,0,-9.963197,35.971094,8.339706)"/>
<path transform="matrix(1.00005,0,0,-1.00006,7.7426836,166.5352)" stroke-width=".99628" stroke-linecap="butt" stroke-miterlimit="10" stroke-linejoin="miter" fill="none" stroke="#0000ff" d="M12.95107 133.11225 13.8622 135.19608 14.77335 136.98516 15.6845 138.46858 16.59564 139.64154 17.50679 140.4925 18.41794 141.01663 19.32909 141.21697 20.24022 141.08805 21.15137 140.63352 22.06252 139.84973 22.97366 138.74578 23.88481 137.32892 24.79596 135.60521 25.7071 133.58252 26.61824 131.27172 27.52939 128.68796 28.44054 125.84335 29.35168 122.75543 30.26283 119.43814 31.17398 115.909 32.08511 112.19104 32.99626 108.30118 33.90741 104.26244 34.81856 100.09479 35.7297 95.82182 36.64085 91.46713 37.552 87.05496 38.46313 82.60707 39.37428 78.15193 40.28543 73.70769 41.19658 69.30096 42.10773 64.9578 43.01889 60.69873 43.93004 56.54924 44.84117 52.52986 45.75232 48.6612 46.66347 44.96986 47.57462 41.471 48.48576 38.18576 49.39691 35.12993 50.30804 32.32164 51.2192 29.77661 52.13034 27.50697 53.04149 25.52724 53.95264 23.84348 54.86378 22.4714 55.77493 21.41527 56.68607 20.6799 57.59721 20.26955 58.50836 20.18665 59.41951 20.43417 60.33066 21.00734 61.2418 21.90308 62.15295 23.119 63.06409 24.64784 63.97523 26.4811 64.88638 28.60728 65.79753 31.01552 66.70868 33.69371 67.61983 36.6291 68.53096 39.80113 69.44211 43.1959 70.35326 46.79404 71.2644 50.57556 72.17557 54.52168 73.08672 58.60945 73.99786 62.81706 74.909 67.1215 75.82014 71.49858 76.7313 75.92648 77.64244 80.38042 78.55359 84.83435 79.46474 89.26772 80.37587 93.65445 81.28702 97.97101 82.19817 102.19374 83.10931 106.30087 84.02046 110.2676 84.93161 114.07332 85.84276 117.69807 86.75389 121.12433 87.66504 124.33086 88.57619 127.29712 89.48734 130.01284 90.39848 132.4622 91.30963 134.63138 92.22078 136.5052 93.13191 138.077 94.04306 139.33893 94.95421 140.28249 95.86536 140.90103 96.7765 141.19336 97.68765 141.15825 98.59879 140.79633 99.50993 140.10817 100.42108 139.09499 101.33223 137.7659 102.24338 136.12752 103.15453 134.19017 104.06567 131.96169 104.97687 129.4536 105.88792 126.681 106.79913 123.66087 107.7102 120.40833 108.6214 116.93669 109.53261 113.27077 110.44368 109.42813 111.35486 105.42993 112.26593 101.2974 113.17714 97.05165 114.08833 92.71817 114.9994 88.3199 115.9106 83.87988 116.82166 79.42474 117.73286 74.97444 118.64406 70.55501 119.55513 66.19066 120.46634 61.90436 121.3774 57.72218 122.2886 53.66286 123.19978 49.7494 124.11086 46.00542 125.02206 42.44965 125.93312 39.10208 126.84433 35.97968 127.75554 33.09813 128.6666 30.47566 129.57779 28.12613 130.48885 26.06287 131.40006 24.29439 132.31127 22.8303 133.22232 21.68338 134.13353 20.85724 135.04457 20.3537 135.95578 20.17635 136.86699 20.32887 137.77805 20.81003 138.68926 21.6162 139.60033 22.74074 140.51152 24.18 141.42272 25.9261 142.33377 27.96997 143.24498 30.30074 144.15605 32.90265 145.06725 35.76541 145.97846 38.8709 146.88953 42.20512 147.8007 45.74759 148.71178 49.47766 149.62299 53.37961 150.53418 57.42924 151.44525 61.60417 152.35645 65.8838 153.2675 70.2421 154.17871 74.65791 155.0899 79.1076 156.00098 83.56396 156.91219 88.00519 157.82324 92.40767 158.73445 96.746 159.64563 100.99901 160.5567 105.13882 161.46791 109.14912 162.37897 113.00388 163.29018 116.68309 164.20139 120.16743 165.11244 123.43753 166.02364 126.47581 166.93471 129.26476 167.8459 131.791 168.75711 134.04067 169.66817 136.00102 170.57938 137.65999 171.49044 139.01027 172.40163 140.04462 173.31284 140.7594 174.2239 141.14434 175.1351 141.20124 176.04618 140.9319 176.95738 140.33695 177.86856 139.4182 178.77964 138.17868 179.69083 136.62625 180.6019 134.77301 181.5131 132.62685 182.4243 130.19802 183.33536 127.49927 184.24657 124.54875 185.15763 121.35976 186.06884 117.95047 186.98003 114.3372 187.8911 110.54236 188.8023 106.58594 189.71335 102.4903 190.62456 98.27423 191.53577 93.96375 192.44683 89.58122 193.35803 85.15149 194.26909 80.69818"/>
<use data-text="x" xlink:href="#font_4_2" transform="matrix(9.963098,0,0,-9.963197,192.80692,41.96073)"/>
<use data-text="y" xlink:href="#font_4_3" transform="matrix(9.963098,0,0,-9.963197,50.1188,12.93898)"/>
</svg>
