<svg xmlns="http://www.w3.org/2000/svg" xmlns:xlink="http://www.w3.org/1999/xlink" xmlns:inkscape="http://www.inkscape.org/namespaces/inkscape" version="1.1" width="379" height="375" viewBox="0 0 379 375">
<defs>
<path id="font_1_49" d="M.6380005 .2558899H.6159973C.59199526 .09996033 .56799319 .0289917 .39898683 .0289917H.2630005C.21899414 .0289917 .21699524 .035995485 .21699524 .06896973V.3388672H.30799867C.4039917 .3388672 .4149933 .3078766 .4149933 .22190857H.43699647V.48477174H.4149933C.4149933 .39883424 .4039917 .3678589 .30799867 .3678589H.21699524V.6116791C.21699524 .6446686 .21899414 .6516571 .2630005 .6516571H.3959961C.54299929 .6516571 .57398989 .6016998 .58898928 .4577942H.61099246L.58499148 .68066409H.040985109V.6516571H.06098938C.1329956 .6516571 .13598633 .6416626 .13598633 .60469058V.07597351C.13598633 .038986207 .1329956 .0289917 .06098938 .0289917H.040985109V0H.59799197L.6380005 .2558899Z"/>
<path id="font_1_76" d="M.69200137 .6536102V.6826172C.66600039 .680603 .61299136 .680603 .58499148 .680603 .5569916 .680603 .5039978 .680603 .47799684 .6826172V.6536102C.57299807 .6536102 .57299807 .6066437 .57299807 .577652V.14093018L.22599793 .6686096C.21699524 .6816101 .21598816 .6826172 .19400025 .6826172H.040985109V.6536102C.083999637 .6536102 .10899353 .6536102 .13598633 .6466217V.10494995C.13598633 .07595825 .13598633 .0289917 .040985109 .0289917V0C.066986087 .0019989014 .11999512 .0019989014 .147995 .0019989014 .17599488 .0019989014 .22898865 .0019989014 .25498963 0V.0289917C.1599884 .0289917 .1599884 .07595825 .1599884 .10494995V.6306305C.16799927 .6226349 .16799927 .620636 .1769867 .6086426L.5669861 .01499939C.57699587 .0009918213 .5779877 0 .58499148 0 .59399417 0 .59599307 .0039978029 .5970001 .005996704V.577652C.5970001 .6066437 .5970001 .6536102 .69200137 .6536102Z"/>
<path id="font_1_113" d="M.98799136 .6536102V.6826172C.94499209 .680603 .94299319 .680603 .8989868 .680603 .8730011 .680603 .81900027 .680603 .79499819 .6826172V.6536102C.85598757 .65260317 .8739929 .62042239 .8739929 .6003723 .8739929 .59536746 .87098696 .5873718 .86898806 .58036807L.71699526 .10647583 .5549927 .609375C.55400088 .612381 .5519867 .62042239 .5519867 .6234436 .5519867 .6536102 .6049957 .6536102 .6289978 .6536102V.6826172C.6049957 .680603 .5309906 .680603 .5019989 .680603 .47299195 .680603 .4119873 .680603 .38598634 .6826172V.6536102C.43899537 .6536102 .45298768 .650589 .46398927 .63249209 .47099305 .6194153 .47799684 .58836367 .4909973 .55236819L.34799195 .10647583 .18798828 .6043701C.18299866 .61842349 .18299866 .62042239 .18299866 .6234436 .18299866 .6536102 .23399353 .6536102 .2599945 .6536102V.6826172C.23699951 .680603 .16099549 .680603 .1329956 .680603 .10398865 .680603 .042999269 .680603 .016998291 .6826172V.6536102C.070999149 .6536102 .08999634 .6536102 .101989749 .6154022L.2999878-.0025024415C.30499269-.017486573 .30899049-.021484375 .31799317-.021484375 .32598878-.021484375 .33099366-.018493653 .33599855-.0034942628L.5019989 .51538088 .6689911-.0034942628C.673996-.018493653 .67900088-.021484375 .68699648-.021484375 .69599917-.021484375 .69999697-.017486573 .7049866-.0025024415L.8929901 .58436587C.9089966 .63249209 .9379883 .65260317 .98799136 .6536102Z"/>
<path id="font_1_97" d="M.4889984 .18367005C.4889984 .24472046 .46598817 .28974916 .43899537 .32278443 .4019928 .36782838 .35699464 .37882997 .31799317 .38883973L.20799256 .41687013C.15699768 .42988587 .11199951 .47991944 .11199951 .54397585 .11199951 .6140442 .16799927 .6770935 .24598694 .6770935 .4099884 .6770935 .43199159 .5149536 .43798829 .47192384 .43998719 .4598999 .43998719 .4559021 .44999696 .4559021 .46099855 .4559021 .46099855 .46090699 .46099855 .4789276V.6810913C.46099855 .6990967 .46099855 .70410159 .45098878 .70410159 .44799806 .70410159 .44400025 .70410159 .43699647 .6911011L.4039917 .63005068C.35598756 .6920929 .2899933 .70410159 .24598694 .70410159 .1349945 .70410159 .053985597 .615036 .053985597 .5129547 .053985597 .4649048 .070999149 .42086793 .10798645 .38084413 .14299011 .34179688 .17799378 .3327942 .24899292 .31477357 .28399659 .30677796 .33898927 .29275514 .35299684 .28675843 .3999939 .2637329 .43099977 .20968628 .43099977 .15364075 .43099977 .078567508 .37799073 .007507324 .29499818 .007507324 .25 .007507324 .18798828 .01852417 .13899231 .061553956 .08099365 .113601688 .07699585 .18566895 .07598877 .21868897 .07499695 .22669983 .06498718 .22669983 .06498718 .22669983 .053985597 .22669983 .053985597 .22169495 .053985597 .20367432V.0015106201C.053985597-.016494751 .053985597-.021484375 .06399536-.021484375 .069992069-.021484375 .070999149-.019485474 .07798767-.0074920656L.11099243 .05255127C.14698792 .012512207 .20999146-.021484375 .29599-.021484375 .4079895-.021484375 .4889984 .07356262 .4889984 .18367005Z"/>
<path id="font_1_27" d="M.70199587 0V.0289917C.6369934 .0289917 .61898806 .0289917 .6049957 .06993103L.3869934 .6958618C.3829956 .7078552 .3809967 .7138672 .36698915 .7138672 .35299684 .7138672 .35099793 .7108612 .34599305 .69485476L.13699341 .09689331C.12298584 .05595398 .09498596 .02998352 .0309906 .0289917V0L.1269989 .0019989014C.15499878 .0019989014 .20298767 .0019989014 .22898865 0V.0289917C.18699646 .02998352 .1619873 .050964357 .1619873 .07891846 .1619873 .08491516 .1619873 .08691406 .16699219 .09989929L.21299744 .23271179H.46499635L.519989 .075927738C.5249939 .063949588 .5249939 .061950685 .5249939 .058944704 .5249939 .0289917 .47399903 .0289917 .44898988 .0289917V0C.47200013 .0019989014 .5509949 .0019989014 .57899478 .0019989014 .6069946 .0019989014 .67900088 .0019989014 .70199587 0M.45498658 .26171876H.22299195L.33898927 .5948181 .45498658 .26171876Z"/>
<path id="font_1_501" d="M.18399048 .4513092C.18399048 .47831727 .16499329 .50032046 .1349945 .50032046 .10798645 .50032046 .09498596 .48031617 .09498596 .48031617 .09399414 .48731996 .09298706 .49230958 .09298706 .50531008 .09298706 .5193176 .09298706 .60032656 .1619873 .66934207 .17098999 .6783447 .17098999 .6803436 .17098999 .6833496 .17098999 .6883545 .1659851 .6933594 .16099549 .6933594 .1519928 .6933594 .07299805 .619339 .07299805 .50531008 .07299805 .4433136 .09599304 .4033203 .13598633 .4033203 .16499329 .4033203 .18399048 .42530824 .18399048 .4513092Z"/>
<path id="font_1_74" d="M.85198977 0V.0289917H.83200076C.7599945 .0289917 .7569885 .038986207 .7569885 .07595825V.6066437C.7569885 .6436157 .7599945 .6536102 .83200076 .6536102H.85198977V.6826172H.69699099C.6749878 .6826172 .673996 .6816101 .66600039 .6626129L.44799806 .093948367 .22999573 .66360476C.22299195 .6826172 .22200012 .6826172 .19898987 .6826172H.04399109V.6536102H.06399536C.13598633 .6536102 .13899231 .6436157 .13899231 .6066437V.10295105C.13899231 .07595825 .13899231 .0289917 .04399109 .0289917V0C.069992069 .0019989014 .12298584 .0019989014 .15098572 .0019989014 .1789856 .0019989014 .23199463 .0019989014 .2579956 0V.0289917C.16299439 .0289917 .16299439 .07595825 .16299439 .10295105V.6486206H.1639862L.40499879 .018997193C.40899659 .0079956059 .4119873 0 .42199708 0 .43099977 0 .43299867 .004989624 .43899537 .019989014L.6819916 .6536102H.68299868V.07595825C.68299868 .038986207 .6799927 .0289917 .60798647 .0289917H.58799746V0C.61099246 .0019989014 .69099429 .0019989014 .7200012 .0019989014 .7489929 .0019989014 .82899478 .0019989014 .85198977 0Z"/>
<path id="font_1_104" d="M.67099 .45480348 .6529999 .6777344H.052993776L.034988405 .45480348H.056991579C.070999149 .6127472 .07998657 .6487274 .23799134 .6487274 .2559967 .6487274 .28399659 .6487274 .2919922 .6467285 .31199647 .64372256 .31298829 .6317291 .31298829 .6087494V.07696533C.31298829 .04298401 .31298829 .0289917 .21499634 .0289917H.1789856V0C.21099854 .0019989014 .31399537 .0019989014 .35299684 .0019989014 .3919983 .0019989014 .49598695 .0019989014 .5279999 0V.0289917H.49198915C.3939972 .0289917 .3939972 .04298401 .3939972 .07696533V.6087494C.3939972 .633728 .3959961 .6427307 .4119873 .6467285 .41999818 .6487274 .44898988 .6487274 .46798707 .6487274 .6259918 .6487274 .6349945 .6127472 .6489868 .45480348H.67099Z"/>
<path id="font_1_108" d="M.69200137 .6536102V.6826172C.66600039 .680603 .6119995 .680603 .58399966 .680603 .5549927 .680603 .5009918 .680603 .47499085 .6826172V.6536102C.56999209 .6536102 .56999209 .6065979 .56999209 .57958987V.22953797C.56999209 .089523319 .47499085 .007507324 .3809967 .007507324 .32099916 .007507324 .21699524 .04751587 .21699524 .22253418V.6065979C.21699524 .64360049 .21998596 .6536102 .2919922 .6536102H.31199647V.6826172C.28799439 .680603 .20599365 .680603 .1769867 .680603 .14698792 .680603 .06498718 .680603 .040985109 .6826172V.6536102H.06098938C.1329956 .6536102 .13598633 .64360049 .13598633 .6065979V.22854615C.13598633 .08352661 .2519989-.021484375 .3789978-.021484375 .5179901-.021484375 .5970001 .11451721 .5970001 .21453858V.59259036C.5970001 .6536102 .673996 .6536102 .69200137 .6536102Z"/>
<path id="font_1_65" d="M.31698609 0V.0289917H.29499818C.21998596 .0289917 .21699524 .038986207 .21699524 .07595825V.6066437C.21699524 .6436157 .21998596 .6536102 .29499818 .6536102H.31698609V.6826172C.29299928 .680603 .20698548 .680603 .1769867 .680603 .14698792 .680603 .05999756 .680603 .035995485 .6826172V.6536102H.057998659C.1329956 .6536102 .13598633 .6436157 .13598633 .6066437V.07595825C.13598633 .038986207 .1329956 .0289917 .057998659 .0289917H.035995485V0C.05999756 .0019989014 .1459961 .0019989014 .17599488 .0019989014 .20599365 .0019989014 .29299928 .0019989014 .31698609 0Z"/>
<path id="font_1_54" d="M.5970001 .45799256 .57099917 .68066409H.040985109V.6516571H.06098938C.1329956 .6516571 .13598633 .64167788 .13598633 .6047363V.07601929C.13598633 .039001466 .1329956 .0289917 .06098938 .0289917H.040985109V0C.06498718 .0019989014 .1539917 .0019989014 .18399048 .0019989014 .21899414 .0019989014 .30699159 .0019989014 .33599855 0V.0289917H.30599977C.21899414 .0289917 .21699524 .041000368 .21699524 .07702637V.32617188H.30499269C.39898683 .32617188 .40899659 .29315187 .40899659 .20909119H.43099977V.4719696H.40899659C.40899659 .3881073 .39898683 .35516358 .30499269 .35516358H.21699524V.61172488C.21699524 .6446686 .21899414 .6516571 .2630005 .6516571H.3880005C.5319977 .6516571 .5609894 .5987396 .57499697 .45799256H.5970001Z"/>
<path id="font_1_80" d="M.70700076 .33880616C.70700076 .54597476 .5549927 .70410159 .3809967 .70410159 .20298767 .70410159 .053985597 .54397585 .053985597 .33880616 .053985597 .13562012 .20498657-.021484375 .37998963-.021484375 .5589905-.021484375 .70700076 .13761902 .70700076 .33880616M.6139984 .35380555C.6139984 .09358215 .47799684 .0015106201 .3809967 .0015106201 .2789917 .0015106201 .14698792 .097595218 .14698792 .35380555 .14698792 .59902957 .28599549 .6820984 .37998963 .6820984 .47898866 .6820984 .6139984 .59602358 .6139984 .35380555Z"/>
<path id="font_1_58" d="M.71899417 .24150086V.2705078C.69299319 .26849366 .6239929 .26849366 .59399417 .26849366 .56199648 .26849366 .47499085 .26849366 .44799806 .2705078V.24150086H.47898866C.5669861 .24150086 .56999209 .22950745 .56999209 .1934967V.12950135C.56999209 .01550293 .43899537 .007507324 .41299439 .007507324 .33399964 .007507324 .14698792 .055511476 .14698792 .3415985 .14698792 .6310272 .33599855 .6750946 .4059906 .6750946 .49299623 .6750946 .5970001 .6119995 .6230011 .43473817 .625 .4237213 .625 .42071534 .6369934 .42071534 .651001 .42071534 .651001 .4237213 .651001 .4437561V.6810913C.651001 .6990967 .651001 .70410159 .6409912 .70410159 .6349945 .70410159 .6339874 .7020874 .6279907 .6920929L.57899478 .6130066C.5499878 .64904788 .4889984 .70410159 .3939972 .70410159 .21299744 .70410159 .053985597 .5469055 .053985597 .3415985 .053985597 .13450623 .21299744-.021484375 .394989-.021484375 .46598817-.021484375 .5469971 .0015106201 .58399966 .06550598 .60198977 .0335083 .6349945 .00050354006 .6429901 .00050354006 .651001 .00050354006 .651001 .006515503 .651001 .022506714V.19750977C.651001 .23649597 .6549988 .24150086 .71899417 .24150086Z"/>
<path id="font_2_104" d="M.6389923 .45928956 .621994 .6802826H.04499817L.027999878 .45928956H.04598999C.05899048 .6252899 .07299805 .6542969 .22698975 .6542969 .24499512 .6536865 .27398683 .6536865 .28199769 .65267947 .30099488 .64967349 .30099488 .63768008 .30099488 .6147003V.07296753C.30099488 .036987306 .2979889 .025985718 .21499634 .025985718H.18699646V0L.33399964 .0019989014 .48098756 0V.025985718H.45298768C.36999513 .025985718 .36698915 .036987306 .36698915 .07296753V.6147003C.36698915 .63668826 .36698915 .64868167 .3849945 .65267947 .3929901 .6542969 .42199708 .6542969 .43998719 .6542969 .59298709 .6542969 .60798647 .6252899 .62098696 .45928956H.6389923Z"/>
<path id="font_2_81" d="M.43099977 .21427918C.43099977 .34233094 .33799745 .4423828 .22898865 .4423828 .11999512 .4423828 .026992798 .34233094 .026992798 .21427918 .026992798 .08821106 .11999512-.0078125 .22898865-.0078125 .33799745-.0078125 .43099977 .08821106 .43099977 .21427918M.36698915 .22227478C.36698915 .18325806 .36499024 .12322998 .33799745 .07521057 .30999757 .029190064 .2669983 .010177612 .22898865 .010177612 .18199158 .010177612 .14199829 .03819275 .11898804 .07720947 .09399414 .12223816 .09098816 .17825318 .09098816 .22227478 .09098816 .2642975 .09298706 .3163147 .11898804 .36134339 .13899231 .3943634 .17799378 .42637635 .22898865 .42637635 .27398683 .42637635 .31199647 .4013672 .33599855 .36634828 .36698915 .31932069 .36698915 .2532959 .36698915 .22227478Z"/>
<path id="font_2_50" d="M.3849945 .25134278C.3849945 .35336305 .33099366 .4423828 .21699524 .4423828 .11099243 .4423828 .026992798 .34135438 .026992798 .21833802 .026992798 .08824158 .12199402-.0078125 .22799683-.0078125 .33999635-.0078125 .38398744 .09825134 .38398744 .119262699 .38398744 .12626648 .37599183 .12626648 .37599183 .12626648 .36898805 .12626648 .36799623 .12426758 .3639984 .11225891 .34199525 .044204713 .2869873 .010177612 .23498535 .010177612 .19198609 .010177612 .14898682 .034194948 .12199402 .07823181 .09098816 .12927246 .09098816 .18830872 .09098816 .23535156H.3809967C.3849945 .23934937 .3849945 .24134827 .3849945 .25134278M.33099366 .25035096H.09199524C.09899902 .3943634 .17599488 .42637635 .21598816 .42637635 .28399659 .42637635 .32998658 .36236573 .33099366 .25035096Z"/>
<path id="font_2_72" d="M.22099304 0V.025985718C.15699768 .025985718 .15299988 .02999878 .15299988 .0690155V.69433596L.033996583 .6826172V.6566162C.09298706 .6566162 .101989749 .65060427 .101989749 .6026459V.06896973C.101989749 .0309906 .09799194 .025985718 .033996583 .025985718V0C.057998659 .0019989014 .101989749 .0019989014 .1269989 .0019989014 .15299988 .0019989014 .19699097 .0019989014 .22099304 0Z"/>
<path id="font_2_28" d="M.44898988 .08898926V.14498902H.43099977V.08799744C.43099977 .026992798 .4039917 .018997193 .3909912 .018997193 .34999085 .018997193 .34999085 .070999149 .34999085 .114990238V.25898744C.34999085 .32499696 .34999085 .3600006 .30799867 .39898683 .2709961 .43199159 .22799683 .44198609 .19400025 .44198609 .114990238 .44198609 .057998659 .37998963 .057998659 .31399537 .057998659 .2769928 .08799744 .2749939 .09399414 .2749939 .10699463 .2749939 .12998963 .2829895 .12998963 .31098939 .12998963 .33599855 .11099243 .34700013 .09399414 .34700013 .08999634 .34700013 .084991458 .34599305 .08198547 .34498597 .102996829 .4079895 .15699768 .42599488 .19198609 .42599488 .24198914 .42599488 .29699708 .38198854 .29699708 .2979889V.2539978C.23799134 .2519989 .16699219 .24398804 .11099243 .21398926 .04798889 .1789856 .02999878 .1289978 .02999878 .09098816 .02999878 .01399231 .11999512-.008010864 .17298889-.008010864 .22799683-.008010864 .2789917 .022994996 .30099488 .07998657 .30299378 .035995485 .33099366-.0040130617 .375-.0040130617 .3959961-.0040130617 .44898988 .009994507 .44898988 .08898926M.29699708 .13899231C.29699708 .051986696 .23498535 .0079956059 .17999268 .0079956059 .12998963 .0079956059 .09098816 .04499817 .09098816 .09098816 .09098816 .12098694 .10398865 .17399597 .1619873 .20599365 .20999146 .23298645 .2649994 .23699951 .29699708 .23899842V.13899231Z"/>
<path id="font_2_109" d="M.48298646 .00018310547V.026184082C.42399598 .026184082 .4149933 .032180787 .4149933 .080215457V.43847657L.2939911 .42747499V.401474C.35299684 .401474 .3619995 .39546205 .3619995 .34742738V.1652832C.3619995 .081222537 .31698609 .008178711 .24299622 .008178711 .16099549 .008178711 .1539917 .0572052 .1539917 .10923767V.43847657L.032989503 .42747499V.401474C.07299805 .401474 .099990848 .401474 .100997928 .36143495V.16929627C.100997928 .10223389 .100997928 .0592041 .1269989 .031188965 .13999939 .018173218 .16499329-.0078125 .23699951-.0078125 .32199098-.0078125 .35499574 .064208988 .36299134 .08522034H.3639984V-.0078125L.48298646 .00018310547Z"/>
<path id="font_2_71" d="M.5419922 .2528534H.5239868C.5159912 .1539154 .5029907 .025985718 .33198548 .025985718H.23899842C.19898987 .025985718 .19699097 .0309906 .19699097 .064971927V.6106415C.19699097 .6466217 .19898987 .6566162 .2749939 .6566162H.29699708V.6826172C.2559967 .680603 .20799256 .680603 .16699219 .680603 .13598633 .680603 .07998657 .680603 .050994874 .6826172V.6566162C.11999512 .6566162 .1309967 .6566162 .1309967 .6116333V.07096863C.1309967 .025985718 .11999512 .025985718 .050994874 .025985718V0H.5179901L.5419922 .2528534Z"/>
<path id="font_2_66" d="M.21398926 0V.025985718C.15499878 .025985718 .15299988 .03199768 .15299988 .06803894V.43847657L.037994386 .4273529V.4013672C.09399414 .4013672 .101989749 .39535523 .101989749 .3473053V.06903076C.101989749 .0309906 .09799194 .025985718 .033996583 .025985718V0C.057998659 .0019989014 .100997928 .0019989014 .12599182 .0019989014 .1499939 .0019989014 .19099427 .0019989014 .21398926 0M.16499329 .60446169C.16499329 .62846377 .1459961 .64546206 .125 .64546206 .100997928 .64546206 .083999637 .62646487 .083999637 .60446169 .083999637 .58047488 .102996829 .56347659 .12399292 .56347659 .147995 .56347659 .16499329 .58247378 .16499329 .60446169Z"/>
<path id="font_2_74" d="M.79599 0V.025985718C.72698977 .025985718 .71598818 .025985718 .71598818 .07096863V.6116333C.71598818 .6566162 .72698977 .6566162 .79599 .6566162V.6826172H.6689911C.647995 .6826172 .6469879 .6816101 .6409912 .6666107L.4249878 .080963138 .20899964 .6666107C.20298767 .6816101 .20199585 .6826172 .18099976 .6826172H.052993776V.6566162C.12199402 .6566162 .1329956 .6566162 .1329956 .6116333V.09794617C.1329956 .07296753 .1329956 .025985718 .052993776 .025985718V0C.07598877 .0019989014 .117996219 .0019989014 .14299011 .0019989014 .16799927 .0019989014 .20999146 .0019989014 .23298645 0V.025985718C.15299988 .025985718 .15299988 .07296753 .15299988 .09794617V.65260317H.1539917L.3889923 .015991211C.3929901 .005996704 .394989 0 .40299989 0 .41099549 0 .41299439 .005996704 .4169922 .015991211L.6539917 .65760806H.6549988V.07096863C.6549988 .025985718 .6439972 .025985718 .57499697 .025985718V0C.60198977 .0019989014 .6559906 .0019989014 .68499758 .0019989014 .71398928 .0019989014 .7689972 .0019989014 .79599 0Z"/>
<path id="font_2_105" d="M.30699159 .1240387V.18096924H.2889862V.12503052C.2889862 .056121828 .2619934 .010177612 .21998596 .010177612 .19099427 .010177612 .15098572 .030151368 .15098572 .121032718V.40368653H.29100038V.4296875H.15098572V.6142578H.1329956C.1309967 .51148989 .09599304 .42167665 .010986328 .41967774V.40368653H.09799194V.123031619C.09799194 .10406494 .09799194-.0078125 .21398926-.0078125 .272995-.0078125 .30699159 .050125123 .30699159 .1240387Z"/>
<path id="font_2_108" d="M.6409912 .6566162V.6826172C.6179962 .680603 .57598879 .680603 .5509949 .680603 .526001 .680603 .48298646 .680603 .45999146 .6826172V.6566162C.5399933 .6566162 .5399933 .6096649 .5399933 .5846863V.22911072C.5399933 .09526062 .45298768 .010360718 .35798646 .010360718 .30699159 .010360718 .26098634 .037338258 .23298645 .07928467 .20098877 .12722779 .19699097 .18916321 .19699097 .2241211V.6116638C.19699097 .6566162 .20799256 .6566162 .2769928 .6566162V.6826172C.24798584 .680603 .19499207 .680603 .1639862 .680603 .1329956 .680603 .07998657 .680603 .050994874 .6826172V.6566162C.11999512 .6566162 .1309967 .6566162 .1309967 .6116638V.22911072C.1309967 .08528137 .23999024-.015625 .35598756-.015625 .48599244-.015625 .5609894 .117248538 .5609894 .21513367V.5946808C.5609894 .6506195 .6119995 .6566162 .6409912 .6566162Z"/>
<path id="font_2_84" d="M.47698976 .2162323C.47698976 .34222413 .3899994 .43847657 .2869873 .43847657 .22698975 .43847657 .17799378 .4053955 .1499939 .36523438V.43847657L.0309906 .4273529V.4013672C.08999634 .4013672 .09899902 .39533998 .09899902 .347229V-.12591553C.09899902-.16395569 .09498596-.16894531 .0309906-.16894531V-.19494629C.054992677-.19294739 .09899902-.19294739 .125-.19294739 .15098572-.19294739 .19599915-.19294739 .21998596-.19494629V-.16894531C.1559906-.16894531 .1519928-.16494751 .1519928-.12591553V.061187746C.18099976 .019180298 .22299195-.0078125 .27598573-.0078125 .37599183-.0078125 .47698976 .08018494 .47698976 .21620178V.2162323M.41299439 .21520996C.41299439 .10119629 .34899903 .008178711 .269989 .008178711 .23399353 .008178711 .19499207 .025177002 .16499329 .07218933 .1519928 .094192508 .1519928 .10018921 .1519928 .11619568V.31422425C.1519928 .32821656 .1519928 .3492279 .19099427 .38630677 .19599915 .3904724 .22999573 .4204712 .27999879 .4204712 .35299684 .4204712 .41299439 .32946778 .41299439 .21546936V.21520996Z"/>
<path id="font_3_71" d="M.58200076 .2578125H.5569916C.54599 .15588379 .5319977 .0309906 .35598756 .0309906H.27398683C.22698975 .03060913 .22499085 .037612916 .22499085 .07060242V.6036072C.22499085 .63760378 .22499085 .6516113 .31999208 .6516113H.35299684V.6826172C.31698609 .6796112 .22599793 .6796112 .18499756 .6796112 .1459961 .6796112 .067993167 .6796112 .032989503 .6826172V.6516113H.056991579C.13398743 .6518097 .13598633 .6408081 .13598633 .6048126V.07795715C.13598633 .04197693 .13398743 .0309906 .056991579 .0309906H.032989503V0H.55400088L.58200076 .2578125Z"/>
<path id="font_3_173" d="M.48298646 .08912659V.14511109H.45799256V.08912659C.45799256 .03112793 .43299867 .025131226 .42199708 .025131226 .3889923 .025131226 .3849945 .070129398 .3849945 .07511902V.27508546C.3849945 .31707765 .3849945 .3560791 .34899903 .39312745 .30999757 .43223573 .2599945 .4482422 .21199036 .4482422 .12998963 .4482422 .06098938 .40115357 .06098938 .335083 .06098938 .30508424 .08099365 .28808595 .10699463 .28808595 .1349945 .28808595 .15299988 .30807496 .15299988 .33407594 .15299988 .3460846 .147995 .37908937 .101989749 .38008119 .1289978 .41519166 .17799378 .426239 .20999146 .426239 .25898744 .426239 .31599427 .38710023 .31599427 .29808045V.26107789C.2649994 .25808717 .19499207 .25508119 .13198853 .22509766 .056991579 .19110108 .03199768 .13911438 .03199768 .09512329 .03199768 .014251709 .1289978-.0107421879 .19198609-.0107421879 .2579956-.0107421879 .3039856 .029251099 .32299806 .07624817 .32699586 .036132814 .35398866-.005859375 .40098573-.005859375 .42199708-.005859375 .48298646 .008132935 .48298646 .08912659M.31599427 .14013672C.31599427 .04525757 .24398804 .011245728 .19898987 .011245728 .1499939 .011245728 .10899353 .04624939 .10899353 .09625244 .10899353 .15124512 .15098572 .23425293 .31599427 .24024964V.14013672M.43099977 .5891113V.6201172H.069992069V.5891113H.43099977Z"/>
<path id="font_3_172" d="M.71699526 0V.0309906H.69898989C.6389923 .0309906 .625 .037979127 .6139984 .07095337L.397995 .6958008C.3929901 .7088165 .3909912 .7158203 .375 .7158203 .35899354 .7158203 .35598756 .70980837 .35099793 .6958008L.14399719 .09791565C.12599182 .04698181 .085998538 .03199768 .03199768 .0309906V0L.13398743 .0029907227 .24899292 0V.0309906C.19898987 .0309906 .17399597 .05596924 .17399597 .0819397 .17399597 .08493042 .1749878 .09492493 .17599488 .09692383L.22200012 .2277832H.46899415L.5219879 .07495117C.522995 .07095337 .5249939 .064956668 .5249939 .060958864 .5249939 .0309906 .46899415 .0309906 .44198609 .0309906V0C.47799684 .0029907227 .5479889 .0029907227 .58599856 .0029907227L.71699526 0M.45799256 .25878907H.23298645L.34498597 .58380129 .45799256 .25878907M.55599978 .7561035V.7871094H.19499207V.7561035H.55599978Z"/>
<path id="font_3_66" d="M.24699402 0V.0309906C.18099976 .0309906 .1769867 .035995485 .1769867 .075042728V.4423828L.036987306 .43066407V.3996582C.101989749 .3996582 .11099243 .3936615 .11099243 .3447113V.07595825C.11099243 .0309906 .099990848 .0309906 .032989503 .0309906V0L.14299011 .0029907227C.17799378 .0029907227 .21299744 .0009918213 .24699402 0M.19198609 .603775C.19198609 .6307678 .16899109 .6567688 .13899231 .6567688 .10499573 .6567688 .084991458 .6287689 .084991458 .603775 .084991458 .57676699 .10798645 .55078127 .13798523 .55078127 .17199707 .55078127 .19198609 .5787811 .19198609 .603775Z"/>
<path id="font_3_59" d="M.4850006 .40411378C.4850006 .42111207 .47299195 .453125 .43399049 .453125 .4139862 .453125 .36999513 .44711305 .32798768 .40611268 .28599549 .43937684 .24398804 .4423828 .22200012 .4423828 .1289978 .4423828 .05999756 .37338258 .05999756 .29638673 .05999756 .25239564 .08198547 .21440125 .10699463 .19340515 .09399414 .17840576 .07598877 .14538574 .07598877 .11035156 .07598877 .07899475 .08898926 .04083252 .11999512 .020828248 .05999756 .003829956 .027999878-.039138795 .027999878-.07911682 .027999878-.15107727 .1269989-.20605469 .24899292-.20605469 .36698915-.20605469 .47099305-.15507508 .47099305-.07711792 .47099305-.042144777 .45700074 .008834839 .4059906 .036834718 .35299684 .064834598 .29499818 .064834598 .23399353 .064834598 .20899964 .064834598 .1659851 .064834598 .15899658 .065841678 .1269989 .069885257 .10598755 .101242069 .10598755 .13334656 .10598755 .13735962 .10598755 .16040039 .12298584 .18040467 .1619873 .15240479 .20298767 .14941406 .22200012 .14941406 .31498719 .14941406 .38398744 .21839905 .38398744 .2953949 .38398744 .3323822 .36799623 .36938478 .34298707 .39237977 .3789978 .42637635 .4149933 .43138124 .43299867 .43138124 .43299867 .43112184 .43998719 .43112184 .44299317 .43011476 .43199159 .42611695 .4269867 .41513063 .4269867 .40315248 .4269867 .38616944 .43998719 .37417604 .45599366 .37417604 .46598817 .37417604 .4850006 .3811798 .4850006 .4041443V.40411378M.30899049 .29626466C.30899049 .26930238 .30799867 .2373352 .29299928 .21235657 .2849884 .20037842 .2619934 .17240906 .22200012 .17240906 .1349945 .17240906 .1349945 .2722931 .1349945 .29527284 .1349945 .3222351 .13598633 .35420228 .15098572 .3791809 .15899658 .3913269 .18199158 .41937257 .22200012 .41937257 .30899049 .41937257 .30899049 .31922914 .30899049 .29618836V.29626466M.4189911-.07911682C.4189911-.13308716 .34799195-.18305969 .25-.18305969 .14898682-.18305969 .07998657-.13209534 .07998657-.07911682 .07998657-.03314209 .117996219 .003829956 .1619873 .0068359377H.22099304C.30699159 .0068359377 .4189911 .0068359377 .4189911-.07911682Z"/>
<path id="font_3_28" d="M.48298646 .08912659V.14511109H.45799256V.08912659C.45799256 .03112793 .43299867 .025131226 .42199708 .025131226 .3889923 .025131226 .3849945 .070129398 .3849945 .07511902V.27508546C.3849945 .31707765 .3849945 .3560791 .34899903 .39312745 .30999757 .43223573 .2599945 .4482422 .21199036 .4482422 .12998963 .4482422 .06098938 .40115357 .06098938 .335083 .06098938 .30508424 .08099365 .28808595 .10699463 .28808595 .1349945 .28808595 .15299988 .30807496 .15299988 .33407594 .15299988 .3460846 .147995 .37908937 .101989749 .38008119 .1289978 .41519166 .17799378 .426239 .20999146 .426239 .25898744 .426239 .31599427 .38710023 .31599427 .29808045V.26107789C.2649994 .25808717 .19499207 .25508119 .13198853 .22509766 .056991579 .19110108 .03199768 .13911438 .03199768 .09512329 .03199768 .014251709 .1289978-.0107421879 .19198609-.0107421879 .2579956-.0107421879 .3039856 .029251099 .32299806 .07624817 .32699586 .036132814 .35398866-.005859375 .40098573-.005859375 .42199708-.005859375 .48298646 .008132935 .48298646 .08912659M.31599427 .14013672C.31599427 .04525757 .24398804 .011245728 .19898987 .011245728 .1499939 .011245728 .10899353 .04624939 .10899353 .09625244 .10899353 .15124512 .15098572 .23425293 .31599427 .24024964V.14013672Z"/>
<path id="font_3_58" d="M.7350006 .24145508V.27246095L.61299136 .26945497C.57299807 .26945497 .48799134 .26945497 .45199586 .27246095V.24145508H.48399354C.57398989 .24145508 .57699587 .23045349 .57699587 .19346619V.12948609C.57699587 .017532349 .44999696 .008529663 .42199708 .008529663 .35699464 .008529663 .15899658 .043518068 .15899658 .34155274 .15899658 .6410217 .35598756 .67407229 .41600038 .67407229 .522995 .67407229 .6139984 .5839386 .6339874 .43670655 .6359863 .42268373 .6359863 .41967774 .6499939 .41967774 .66600039 .41967774 .66600039 .42268373 .66600039 .44371034V.68107607C.66600039 .69807437 .66600039 .7050781 .6549988 .7050781 .651001 .7050781 .6469879 .7050781 .6389923 .69306948L.58898928 .61898806C.5569916 .6510315 .5029907 .7050781 .4039917 .7050781 .21798706 .7050781 .055999757 .546875 .055999757 .34155274 .055999757 .13648987 .21598816-.022460938 .4059906-.022460938 .47898866-.022460938 .5589905 .0035247803 .59298709 .06251526 .60598757 .040527345 .6459961 .0005340576 .6569977 .0005340576 .66600039 .0005340576 .66600039 .008529663 .66600039 .023529053V.19746399C.66600039 .2364502 .66999819 .24145508 .7350006 .24145508Z"/>
<path id="font_3_81" d="M.47099305 .21424866C.47099305 .34223939 .37098695 .4482422 .25 .4482422 .125 .4482422 .027999878 .3392334 .027999878 .21424866 .027999878 .085250858 .13198853-.0107421879 .24899292-.0107421879 .36999513-.0107421879 .47099305 .087249759 .47099305 .21424866M.3880005 .22224427C.3880005 .18624878 .3880005 .13224793 .3659973 .08824158 .34399415 .04324341 .2999878 .014251709 .25 .014251709 .20698548 .014251709 .16299439 .035247804 .13598633 .08125305 .11099243 .12524414 .11099243 .18624878 .11099243 .22224427 .11099243 .26124574 .11099243 .31523133 .1349945 .35923768 .1619873 .40522767 .20899964 .426239 .24899292 .426239 .29299928 .426239 .33599855 .40423585 .3619995 .36123658 .3880005 .3182373 .3880005 .26023866 .3880005 .22224427Z"/>
<path id="font_3_74" d="M.8789978 0V.0309906H.8549957C.7779999 .0309906 .776001 .041992189 .776001 .07795715V.6046295C.776001 .64060977 .7779999 .6516113 .8549957 .6516113H.8789978V.6826172H.70999148C.6839905 .6826172 .6839905 .6816101 .6769867 .66360476L.45799256 .10095215 .24099732 .660614C.23199463 .6826172 .22898865 .6826172 .20599365 .6826172H.036987306V.6516113H.06098938C.13798523 .6516113 .13999939 .64060977 .13999939 .6046295V.10494995C.13999939 .07795715 .13999939 .0309906 .036987306 .0309906V0L.1539917 .0029907227 .2709961 0V.0309906C.16799927 .0309906 .16799927 .07795715 .16799927 .10494995V.6436157H.16899109L.4099884 .021987915C.4149933 .008987427 .41999818 0 .42999269 0 .44099427 0 .44400025 .0079956059 .44799806 .018997193L.69400027 .6516113H.69499209V.07795715C.69499209 .041992189 .69299319 .0309906 .6159973 .0309906H.59199526V0C.6289978 .0029907227 .69699099 .0029907227 .73599246 .0029907227 .7749939 .0029907227 .84199526 .0029907227 .8789978 0Z"/>
<path id="font_3_77" d="M.5349884 0V.0309906C.48298646 .0309906 .45799256 .0309906 .45700074 .061019899V.25221253C.45700074 .3383026 .45700074 .36932374 .42599488 .405365 .4119873 .42237855 .3789978 .4423828 .32099916 .4423828 .24798584 .4423828 .20098877 .39935304 .17298889 .33729554V.4423828L.03199768 .43066407V.3996582C.101989749 .3996582 .10998535 .39266969 .10998535 .34370423V.07595825C.10998535 .0309906 .09899902 .0309906 .03199768 .0309906V0L.14498902 .0029907227 .25698854 0V.0309906C.18998719 .0309906 .1789856 .0309906 .1789856 .07595825V.25978089C.1789856 .36431886 .25 .42037965 .31399537 .42037965 .3769989 .42037965 .3880005 .36631776 .3880005 .30926515V.076034549C.3880005 .0309906 .3769989 .0309906 .30999757 .0309906V0L.4229889 .0029907227 .5349884 0Z"/>
<path id="font_3_109" d="M.5349884 0V.0309906C.46499635 .0309906 .45700074 .037994386 .45700074 .08705139V.4423828L.30999757 .43066407V.3996582C.37998963 .3996582 .3880005 .39266969 .3880005 .34373475V.16601563C.3880005 .07910156 .33999635 .011245728 .2669983 .011245728 .18299866 .011245728 .1789856 .058135988 .1789856 .11009216V.4423828L.03199768 .43066407V.3996582C.10998535 .3996582 .10998535 .39666749 .10998535 .3078003V.15802002C.10998535 .080093387 .10998535-.0107421879 .2619934-.0107421879 .31799317-.0107421879 .3619995 .017242432 .3909912 .07910156V-.0107421879L.5349884 0Z"/>
<path id="font_3_104" d="M.68499758 .45214845 .66600039 .6767578H.054992677L.035995485 .45214845H.06098938C.07499695 .6128235 .08999634 .64575198 .24099732 .64575198 .25898744 .64575198 .2849884 .64575198 .29499818 .64375308 .31599427 .6397705 .31599427 .6287842 .31599427 .60583499V.07901001C.31599427 .04499817 .31599427 .0309906 .21099854 .0309906H.17098999V0C.21199036 .0029907227 .31399537 .0029907227 .3600006 .0029907227 .4059906 .0029907227 .5089874 .0029907227 .5499878 0V.0309906H.5099945C.40499879 .0309906 .40499879 .04499817 .40499879 .07901001V.60583499C.40499879 .62579348 .40499879 .6397705 .4229889 .64375308 .43399049 .64575198 .46099855 .64575198 .47999574 .64575198 .6309967 .64575198 .6459961 .6128235 .6599884 .45214845H.68499758Z"/>
<path id="font_3_72" d="M.25498963 0V.0309906C.18798828 .0309906 .1769867 .0309906 .1769867 .07601929V.69433596L.032989503 .6826172V.6516113C.102996829 .6516113 .11099243 .64460757 .11099243 .5956421V.07595825C.11099243 .0309906 .099990848 .0309906 .032989503 .0309906V0L.14399719 .0029907227 .25498963 0Z"/>
<path id="font_3_501" d="M.19198609 .44699098C.19198609 .47299195 .1749878 .5 .13899231 .5 .11898804 .5 .10499573 .48999024 .09899902 .48399354 .09799194 .48199464 .09599304 .48098756 .09599304 .48098756 .09599304 .48098756 .09399414 .49499513 .09399414 .49899293 .09399414 .53105166 .100997928 .60317996 .1639862 .66529849 .17599488 .6773224 .17599488 .6793213 .17599488 .6823273 .17599488 .6893463 .17098999 .6933594 .1659851 .6933594 .15499878 .6933594 .07199097 .617218 .07199097 .49899293 .07199097 .43899537 .09599304 .3939972 .13899231 .3939972 .17399597 .3939972 .19198609 .42099 .19198609 .44699098Z"/>
<path id="font_3_50" d="M.4149933 .11933899C.4149933 .12934876 .40699769 .13134766 .4019928 .13134766 .3929901 .13134766 .3909912 .12535095 .3889923 .11734009 .35398866 .014251709 .2639923 .014251709 .2539978 .014251709 .20399475 .014251709 .1639862 .044281007 .14099121 .08131409 .11099243 .12934876 .11099243 .19540406 .11099243 .23144531H.3899994C.4119873 .23144531 .4149933 .23144531 .4149933 .2524414 .4149933 .35131837 .36099244 .4482422 .23599243 .4482422 .11999512 .4482422 .027999878 .34532167 .027999878 .22042847 .027999878 .08631897 .1329956-.0107421879 .24798584-.0107421879 .36999513-.0107421879 .4149933 .10032654 .4149933 .11933899M.34899903 .2524414H.11199951C.117996219 .40126039 .20199585 .426239 .23599243 .426239 .33898927 .426239 .34899903 .2913971 .34899903 .2524414Z"/>
<path id="font_3_27" d="M.71699526 0V.0309906H.69898989C.6389923 .0309906 .625 .037979127 .6139984 .07095337L.397995 .6958008C.3929901 .7088165 .3909912 .7158203 .375 .7158203 .35899354 .7158203 .35598756 .70980837 .35099793 .6958008L.14399719 .09791565C.12599182 .04698181 .085998538 .03199768 .03199768 .0309906V0L.13398743 .0029907227 .24899292 0V.0309906C.19898987 .0309906 .17399597 .05596924 .17399597 .0819397 .17399597 .08493042 .1749878 .09492493 .17599488 .09692383L.22200012 .2277832H.46899415L.5219879 .07495117C.522995 .07095337 .5249939 .064956668 .5249939 .060958864 .5249939 .0309906 .46899415 .0309906 .44198609 .0309906V0C.47799684 .0029907227 .5479889 .0029907227 .58599856 .0029907227L.71699526 0M.45799256 .25878907H.23298645L.34498597 .58380129 .45799256 .25878907Z"/>
<path id="font_3_105" d="M.33198548 .12385559V.18066406H.30699159V.12585449C.30699159 .052108766 .2769928 .014251709 .23999024 .014251709 .17298889 .014251709 .17298889 .10491943 .17298889 .12187195V.3996582H.31599427V.43066407H.17298889V.6142578H.147995C.14698792 .5324249 .116989139 .42565919 .018997193 .42166139V.3996582H.10398865V.12408447C.10398865 .0012512207 .19699097-.0107421879 .23298645-.0107421879 .3039856-.0107421879 .33198548 .060180665 .33198548 .12408447V.12385559Z"/>
</defs>
<use data-text="E" xlink:href="#font_1_49" transform="matrix(14.34706,0,0,-14.3462,368.2552,191.89499)"/>
<use data-text="N" xlink:href="#font_1_76" transform="matrix(14.34706,0,0,-14.3462,186.68628,10.716995)"/>
<use data-text="W" xlink:href="#font_1_113" transform="matrix(14.34706,0,0,-14.3462,1.2151489,191.759)"/>
<use data-text="S" xlink:href="#font_1_97" transform="matrix(14.34706,0,0,-14.3462,188.04936,373.403)"/>
<path transform="matrix(1.00006,0,0,-1,191.9516,187.01)" stroke-width=".79701" stroke-linecap="round" stroke-miterlimit="10" stroke-linejoin="miter" fill="none" stroke="#000000" d="M150.23822 0C150.23822 82.97534 82.97534 150.23822 0 150.23822-82.97534 150.23822-150.23822 82.97534-150.23822 0-150.23822-82.97534-82.97534-150.23822 0-150.23822 82.97534-150.23822 150.23822-82.97534 150.23822 0ZM0 0"/>
<path transform="matrix(1.00006,0,0,-1,191.9516,187.01)" stroke-width=".79701" stroke-linecap="round" stroke-miterlimit="10" stroke-linejoin="miter" fill="none" stroke="#000000" d="M165.26297 0C165.26297 91.27339 91.27339 165.26297 0 165.26297-91.27339 165.26297-165.26297 91.27339-165.26297 0-165.26297-91.27339-91.27339-165.26297 0-165.26297 91.27339-165.26297 165.26297-91.27339 165.26297 0ZM0 0"/>
<path transform="matrix(1.00006,0,0,-1,191.9516,187.01)" stroke-width=".3985" stroke-linecap="round" stroke-miterlimit="10" stroke-linejoin="miter" fill="none" stroke="#000000" d="M147.2328 0"/>
<use data-text="S" xlink:href="#font_1_97" transform="matrix(11.955917,0,0,-11.9552,293.8987,191.153)"/>
<use data-text="A" xlink:href="#font_1_27" transform="matrix(11.955917,0,0,-11.9552,300.40275,191.153)"/>
<use data-text="S" xlink:href="#font_1_97" transform="matrix(11.955917,0,0,-11.9552,309.17839,191.153)"/>
<use data-text="A" xlink:href="#font_1_27" transform="matrix(11.955917,0,0,-11.9552,315.6824,191.153)"/>
<use data-text="&#x2018;" xlink:href="#font_1_501" transform="matrix(11.955917,0,0,-11.9552,324.45805,191.153)"/>
<use data-text="E" xlink:href="#font_1_49" transform="matrix(11.955917,0,0,-11.9552,327.71006,191.153)"/>
<path transform="matrix(1.00006,0,0,-1,191.9516,187.01)" stroke-width=".3985" stroke-linecap="round" stroke-miterlimit="10" stroke-linejoin="miter" fill="none" stroke="#000000" d="M0 147.2328"/>
<use data-text="M" xlink:href="#font_1_74" transform="matrix(0,-11.9552,-11.955917,-0,196.09485,79.043)"/>
<use data-text="A" xlink:href="#font_1_27" transform="matrix(0,-11.9552,-11.955917,-0,196.09485,68.31918)"/>
<use data-text="T" xlink:href="#font_1_104" transform="matrix(0,-11.9552,-11.955917,-0,196.09485,60.51245)"/>
<use data-text="U" xlink:href="#font_1_108" transform="matrix(0,-11.9552,-11.955917,-0,196.09485,52.06012)"/>
<path transform="matrix(1.00006,0,0,-1,191.9516,187.01)" stroke-width=".3985" stroke-linecap="round" stroke-miterlimit="10" stroke-linejoin="miter" fill="none" stroke="#000000" d="M-147.2328 0"/>
<use data-text="S" xlink:href="#font_1_97" transform="matrix(11.955917,0,0,-11.9552,48.22998,191.09299)"/>
<use data-text="I" xlink:href="#font_1_65" transform="matrix(11.955917,0,0,-11.9552,54.73401,191.09299)"/>
<use data-text="S" xlink:href="#font_1_97" transform="matrix(11.955917,0,0,-11.9552,58.954439,191.09299)"/>
<use data-text="I" xlink:href="#font_1_65" transform="matrix(11.955917,0,0,-11.9552,65.458469,191.09299)"/>
<use data-text="F" xlink:href="#font_1_54" transform="matrix(11.955917,0,0,-11.9552,69.678897,191.09299)"/>
<use data-text="O" xlink:href="#font_1_80" transform="matrix(11.955917,0,0,-11.9552,77.007907,191.09299)"/>
<path transform="matrix(1.00006,0,0,-1,191.9516,187.01)" stroke-width=".3985" stroke-linecap="round" stroke-miterlimit="10" stroke-linejoin="miter" fill="none" stroke="#000000" d="M0-147.2328"/>
<use data-text="T" xlink:href="#font_1_104" transform="matrix(0,11.9552,11.955917,0,187.80837,286.428)"/>
<use data-text="O" xlink:href="#font_1_80" transform="matrix(0,11.9552,11.955917,0,187.80837,294.88035)"/>
<use data-text="N" xlink:href="#font_1_76" transform="matrix(0,11.9552,11.955917,0,187.80837,303.9902)"/>
<use data-text="G" xlink:href="#font_1_58" transform="matrix(0,11.9552,11.955917,0,187.80837,312.76533)"/>
<use data-text="A" xlink:href="#font_1_27" transform="matrix(0,11.9552,11.955917,0,187.80837,321.9469)"/>
<path transform="matrix(1.00006,0,0,-1,191.9516,187.01)" stroke-width=".3985" stroke-linecap="round" stroke-miterlimit="10" stroke-linejoin="miter" fill="none" stroke="#000000" d="M132.79265 132.79265"/>
<use data-text="T" xlink:href="#font_2_104" transform="matrix(14.611329,14.610454,14.611329,-14.610454,300.00679,39.496828)"/>
<use data-text="o" xlink:href="#font_2_81" transform="matrix(14.611329,14.610454,14.611329,-14.610454,308.6421,48.131624)"/>
<use data-text="e" xlink:href="#font_2_50" transform="matrix(14.611329,14.610454,14.611329,-14.610454,315.714,55.203096)"/>
<use data-text="l" xlink:href="#font_2_72" transform="matrix(14.611329,14.610454,14.611329,-14.610454,321.64619,61.13495)"/>
<use data-text="a" xlink:href="#font_2_28" transform="matrix(14.611329,14.610454,14.611329,-14.610454,325.299,64.78757)"/>
<use data-text="u" xlink:href="#font_2_109" transform="matrix(14.611329,14.610454,14.611329,-14.610454,332.0056,71.493747)"/>
<path transform="matrix(1.00006,0,0,-1,191.9516,187.01)" stroke-width=".3985" stroke-linecap="round" stroke-miterlimit="10" stroke-linejoin="miter" fill="none" stroke="#000000" d="M-132.79265 132.79265"/>
<use data-text="L" xlink:href="#font_2_71" transform="matrix(14.611329,-14.610454,-14.611329,-14.610454,54.69519,68.53629)"/>
<use data-text="a" xlink:href="#font_2_28" transform="matrix(14.611329,-14.610454,-14.611329,-14.610454,63.11133,60.12066)"/>
<use data-text="i" xlink:href="#font_2_66" transform="matrix(14.611329,-14.610454,-14.611329,-14.610454,69.81793,53.41445)"/>
<path transform="matrix(1.00006,0,0,-1,191.9516,187.01)" stroke-width=".3985" stroke-linecap="round" stroke-miterlimit="10" stroke-linejoin="miter" fill="none" stroke="#000000" d="M-132.79265-132.79265"/>
<use data-text="T" xlink:href="#font_2_104" transform="matrix(14.611329,14.610454,14.611329,-14.610454,30.854638,301.53184)"/>
<use data-text="u" xlink:href="#font_2_109" transform="matrix(14.611329,14.610454,14.611329,-14.610454,39.489953,310.16664)"/>
<use data-text="a" xlink:href="#font_2_28" transform="matrix(14.611329,14.610454,14.611329,-14.610454,46.956338,317.63258)"/>
<use data-text="o" xlink:href="#font_2_81" transform="matrix(14.611329,14.610454,14.611329,-14.610454,53.66294,324.33879)"/>
<use data-text="l" xlink:href="#font_2_72" transform="matrix(14.611329,14.610454,14.611329,-14.610454,60.369546,331.04499)"/>
<use data-text="o" xlink:href="#font_2_81" transform="matrix(14.611329,14.610454,14.611329,-14.610454,64.02238,334.6976)"/>
<use data-text="a" xlink:href="#font_2_28" transform="matrix(14.611329,14.610454,14.611329,-14.610454,70.72898,341.4038)"/>
<path transform="matrix(1.00006,0,0,-1,191.9516,187.01)" stroke-width=".3985" stroke-linecap="round" stroke-miterlimit="10" stroke-linejoin="miter" fill="none" stroke="#000000" d="M132.79265-132.79265"/>
<use data-text="M" xlink:href="#font_2_74" transform="matrix(14.611329,-14.610454,-14.611329,-14.610454,289.05625,362.7873)"/>
<use data-text="a" xlink:href="#font_2_28" transform="matrix(14.611329,-14.610454,-14.611329,-14.610454,301.47587,350.3684)"/>
<use data-text="t" xlink:href="#font_2_105" transform="matrix(14.611329,-14.610454,-14.611329,-14.610454,308.18247,343.6622)"/>
<use data-text="a" xlink:href="#font_2_28" transform="matrix(14.611329,-14.610454,-14.611329,-14.610454,313.3549,338.4901)"/>
<use data-text="u" xlink:href="#font_2_109" transform="matrix(14.611329,-14.610454,-14.611329,-14.610454,320.0615,331.7839)"/>
<use data-text="U" xlink:href="#font_2_108" transform="matrix(14.611329,-14.610454,-14.611329,-14.610454,331.9405,319.9056)"/>
<use data-text="p" xlink:href="#font_2_84" transform="matrix(14.611329,-14.610454,-14.611329,-14.610454,342.06617,309.78056)"/>
<use data-text="o" xlink:href="#font_2_81" transform="matrix(14.611329,-14.610454,-14.611329,-14.610454,349.91246,301.93476)"/>
<use data-text="l" xlink:href="#font_2_72" transform="matrix(14.611329,-14.610454,-14.611329,-14.610454,356.61906,295.22856)"/>
<use data-text="u" xlink:href="#font_2_109" transform="matrix(14.611329,-14.610454,-14.611329,-14.610454,360.27189,291.57594)"/>
<path transform="matrix(1.00006,0,0,-1,191.9516,187.01)" stroke-width=".3985" stroke-linecap="round" stroke-miterlimit="10" stroke-linejoin="miter" fill="none" stroke="#7f807f" d="M164.45832 16.19617 149.50691 14.72441"/>
<path transform="matrix(1.00006,0,0,-1,191.9516,187.01)" stroke-width=".3985" stroke-linecap="round" stroke-miterlimit="10" stroke-linejoin="miter" fill="none" stroke="#7f807f" d="M158.1403 47.96957 143.76433 43.60933"/>
<path transform="matrix(1.00006,0,0,-1,191.9516,187.01)" stroke-width=".3985" stroke-linecap="round" stroke-miterlimit="10" stroke-linejoin="miter" fill="none" stroke="#7f807f" d="M145.74044 77.89986 132.49234 70.81845"/>
<path transform="matrix(1.00006,0,0,-1,191.9516,187.01)" stroke-width=".3985" stroke-linecap="round" stroke-miterlimit="10" stroke-linejoin="miter" fill="none" stroke="#7f807f" d="M127.74237 104.83388 116.1288 95.30415"/>
<path transform="matrix(1.00006,0,0,-1,191.9516,187.01)" stroke-width=".3985" stroke-linecap="round" stroke-miterlimit="10" stroke-linejoin="miter" fill="none" stroke="#7f807f" d="M104.83388 127.74237 95.30415 116.1288"/>
<path transform="matrix(1.00006,0,0,-1,191.9516,187.01)" stroke-width=".3985" stroke-linecap="round" stroke-miterlimit="10" stroke-linejoin="miter" fill="none" stroke="#7f807f" d="M77.89986 145.74044 70.81845 132.49234"/>
<path transform="matrix(1.00006,0,0,-1,191.9516,187.01)" stroke-width=".3985" stroke-linecap="round" stroke-miterlimit="10" stroke-linejoin="miter" fill="none" stroke="#7f807f" d="M47.96957 158.1403 43.60933 143.76433"/>
<path transform="matrix(1.00006,0,0,-1,191.9516,187.01)" stroke-width=".3985" stroke-linecap="round" stroke-miterlimit="10" stroke-linejoin="miter" fill="none" stroke="#7f807f" d="M16.19617 164.45832 14.72441 149.50691"/>
<path transform="matrix(1.00006,0,0,-1,191.9516,187.01)" stroke-width=".3985" stroke-linecap="round" stroke-miterlimit="10" stroke-linejoin="miter" fill="none" stroke="#7f807f" d="M-16.19617 164.45832-14.72441 149.50691"/>
<path transform="matrix(1.00006,0,0,-1,191.9516,187.01)" stroke-width=".3985" stroke-linecap="round" stroke-miterlimit="10" stroke-linejoin="miter" fill="none" stroke="#7f807f" d="M-47.96957 158.1403-43.60933 143.76433"/>
<path transform="matrix(1.00006,0,0,-1,191.9516,187.01)" stroke-width=".3985" stroke-linecap="round" stroke-miterlimit="10" stroke-linejoin="miter" fill="none" stroke="#7f807f" d="M-77.89986 145.74044-70.81845 132.49234"/>
<path transform="matrix(1.00006,0,0,-1,191.9516,187.01)" stroke-width=".3985" stroke-linecap="round" stroke-miterlimit="10" stroke-linejoin="miter" fill="none" stroke="#7f807f" d="M-104.83388 127.74237-95.30415 116.1288"/>
<path transform="matrix(1.00006,0,0,-1,191.9516,187.01)" stroke-width=".3985" stroke-linecap="round" stroke-miterlimit="10" stroke-linejoin="miter" fill="none" stroke="#7f807f" d="M-127.74237 104.83388-116.1288 95.30415"/>
<path transform="matrix(1.00006,0,0,-1,191.9516,187.01)" stroke-width=".3985" stroke-linecap="round" stroke-miterlimit="10" stroke-linejoin="miter" fill="none" stroke="#7f807f" d="M-145.74044 77.89986-132.49234 70.81845"/>
<path transform="matrix(1.00006,0,0,-1,191.9516,187.01)" stroke-width=".3985" stroke-linecap="round" stroke-miterlimit="10" stroke-linejoin="miter" fill="none" stroke="#7f807f" d="M-158.1403 47.96957-143.76433 43.60933"/>
<path transform="matrix(1.00006,0,0,-1,191.9516,187.01)" stroke-width=".3985" stroke-linecap="round" stroke-miterlimit="10" stroke-linejoin="miter" fill="none" stroke="#7f807f" d="M-164.45832 16.19617-149.50691 14.72441"/>
<path transform="matrix(1.00006,0,0,-1,191.9516,187.01)" stroke-width=".3985" stroke-linecap="round" stroke-miterlimit="10" stroke-linejoin="miter" fill="none" stroke="#7f807f" d="M-164.45832-16.19617-149.50691-14.72441"/>
<path transform="matrix(1.00006,0,0,-1,191.9516,187.01)" stroke-width=".3985" stroke-linecap="round" stroke-miterlimit="10" stroke-linejoin="miter" fill="none" stroke="#7f807f" d="M-158.1403-47.96957-143.76433-43.60933"/>
<path transform="matrix(1.00006,0,0,-1,191.9516,187.01)" stroke-width=".3985" stroke-linecap="round" stroke-miterlimit="10" stroke-linejoin="miter" fill="none" stroke="#7f807f" d="M-145.74044-77.89986-132.49234-70.81845"/>
<path transform="matrix(1.00006,0,0,-1,191.9516,187.01)" stroke-width=".3985" stroke-linecap="round" stroke-miterlimit="10" stroke-linejoin="miter" fill="none" stroke="#7f807f" d="M-127.74237-104.83388-116.1288-95.30415"/>
<path transform="matrix(1.00006,0,0,-1,191.9516,187.01)" stroke-width=".3985" stroke-linecap="round" stroke-miterlimit="10" stroke-linejoin="miter" fill="none" stroke="#7f807f" d="M-104.83388-127.74237-95.30415-116.1288"/>
<path transform="matrix(1.00006,0,0,-1,191.9516,187.01)" stroke-width=".3985" stroke-linecap="round" stroke-miterlimit="10" stroke-linejoin="miter" fill="none" stroke="#7f807f" d="M-77.89986-145.74044-70.81845-132.49234"/>
<path transform="matrix(1.00006,0,0,-1,191.9516,187.01)" stroke-width=".3985" stroke-linecap="round" stroke-miterlimit="10" stroke-linejoin="miter" fill="none" stroke="#7f807f" d="M-47.96957-158.1403-43.60933-143.76433"/>
<path transform="matrix(1.00006,0,0,-1,191.9516,187.01)" stroke-width=".3985" stroke-linecap="round" stroke-miterlimit="10" stroke-linejoin="miter" fill="none" stroke="#7f807f" d="M-16.19617-164.45832-14.72441-149.50691"/>
<path transform="matrix(1.00006,0,0,-1,191.9516,187.01)" stroke-width=".3985" stroke-linecap="round" stroke-miterlimit="10" stroke-linejoin="miter" fill="none" stroke="#7f807f" d="M16.19617-164.45832 14.72441-149.50691"/>
<path transform="matrix(1.00006,0,0,-1,191.9516,187.01)" stroke-width=".3985" stroke-linecap="round" stroke-miterlimit="10" stroke-linejoin="miter" fill="none" stroke="#7f807f" d="M47.96957-158.1403 43.60933-143.76433"/>
<path transform="matrix(1.00006,0,0,-1,191.9516,187.01)" stroke-width=".3985" stroke-linecap="round" stroke-miterlimit="10" stroke-linejoin="miter" fill="none" stroke="#7f807f" d="M77.89986-145.74044 70.81845-132.49234"/>
<path transform="matrix(1.00006,0,0,-1,191.9516,187.01)" stroke-width=".3985" stroke-linecap="round" stroke-miterlimit="10" stroke-linejoin="miter" fill="none" stroke="#7f807f" d="M104.83388-127.74237 95.30415-116.1288"/>
<path transform="matrix(1.00006,0,0,-1,191.9516,187.01)" stroke-width=".3985" stroke-linecap="round" stroke-miterlimit="10" stroke-linejoin="miter" fill="none" stroke="#7f807f" d="M127.74237-104.83388 116.1288-95.30415"/>
<path transform="matrix(1.00006,0,0,-1,191.9516,187.01)" stroke-width=".3985" stroke-linecap="round" stroke-miterlimit="10" stroke-linejoin="miter" fill="none" stroke="#7f807f" d="M145.74044-77.89986 132.49234-70.81845"/>
<path transform="matrix(1.00006,0,0,-1,191.9516,187.01)" stroke-width=".3985" stroke-linecap="round" stroke-miterlimit="10" stroke-linejoin="miter" fill="none" stroke="#7f807f" d="M158.1403-47.96957 143.76433-43.60933"/>
<path transform="matrix(1.00006,0,0,-1,191.9516,187.01)" stroke-width=".3985" stroke-linecap="round" stroke-miterlimit="10" stroke-linejoin="miter" fill="none" stroke="#7f807f" d="M164.45832-16.19617 149.50691-14.72441"/>
<path transform="matrix(1.00006,0,0,-1,191.9516,187.01)" stroke-width=".3985" stroke-linecap="round" stroke-miterlimit="10" stroke-linejoin="miter" fill="none" stroke="#000000" d="M144.39934 28.71985"/>
<use data-text="L" xlink:href="#font_3_71" transform="matrix(9.771505,-1.9434043,-1.9435209,-9.770919,322.5673,164.4461)"/>
<use data-text="&#x0101;" xlink:href="#font_3_173" transform="matrix(9.771505,-1.9434043,-1.9435209,-9.770919,328.67448,163.23148)"/>
<path transform="matrix(1.00006,0,0,-1,191.9516,187.01)" stroke-width=".3985" stroke-linecap="round" stroke-miterlimit="10" stroke-linejoin="miter" fill="none" stroke="#000000" d="M136.01813 56.33932"/>
<use data-text="&#x0100;" xlink:href="#font_3_172" transform="matrix(9.2044,-3.8122886,-3.8125172,-9.203848,307.16706,142.42237)"/>
<use data-text="i" xlink:href="#font_3_66" transform="matrix(9.2044,-3.8122886,-3.8125172,-9.203848,314.07038,139.56314)"/>
<use data-text="g" xlink:href="#font_3_59" transform="matrix(9.2044,-3.8122886,-3.8125172,-9.203848,316.6292,138.50333)"/>
<use data-text="a" xlink:href="#font_3_28" transform="matrix(9.2044,-3.8122886,-3.8125172,-9.203848,321.23139,136.5972)"/>
<path transform="matrix(1.00006,0,0,-1,191.9516,187.01)" stroke-width=".3985" stroke-linecap="round" stroke-miterlimit="10" stroke-linejoin="miter" fill="none" stroke="#000000" d="M122.41241 81.79243"/>
<use data-text="G" xlink:href="#font_3_58" transform="matrix(8.2838,-5.534623,-5.534955,-8.283303,293.89674,121.88603)"/>
<use data-text="o" xlink:href="#font_3_81" transform="matrix(8.2838,-5.534623,-5.534955,-8.283303,300.39955,117.54135)"/>
<use data-text="g" xlink:href="#font_3_59" transform="matrix(8.2838,-5.534623,-5.534955,-8.283303,304.5414,114.77405)"/>
<use data-text="o" xlink:href="#font_3_81" transform="matrix(8.2838,-5.534623,-5.534955,-8.283303,308.68333,112.00673)"/>
<path transform="matrix(1.00006,0,0,-1,191.9516,187.01)" stroke-width=".3985" stroke-linecap="round" stroke-miterlimit="10" stroke-linejoin="miter" fill="none" stroke="#000000" d="M104.10716 104.10716"/>
<use data-text="M" xlink:href="#font_3_74" transform="matrix(7.044976,-7.044554,-7.044976,-7.044554,278.3236,105.3773)"/>
<use data-text="a" xlink:href="#font_3_28" transform="matrix(7.044976,-7.044554,-7.044976,-7.044554,284.78385,98.91743)"/>
<use data-text="n" xlink:href="#font_3_77" transform="matrix(7.044976,-7.044554,-7.044976,-7.044554,288.30635,95.395168)"/>
<use data-text="u" xlink:href="#font_3_109" transform="matrix(7.044976,-7.044554,-7.044976,-7.044554,292.03315,91.66857)"/>
<path transform="matrix(1.00006,0,0,-1,191.9516,187.01)" stroke-width=".3985" stroke-linecap="round" stroke-miterlimit="10" stroke-linejoin="miter" fill="none" stroke="#000000" d="M81.79243 122.41241"/>
<use data-text="T" xlink:href="#font_3_104" transform="matrix(5.534955,-8.283303,-8.2838,-5.534623,252.74282,100.40906)"/>
<use data-text="a" xlink:href="#font_3_28" transform="matrix(5.534955,-8.283303,-8.2838,-5.534623,256.28517,95.10776)"/>
<use data-text="l" xlink:href="#font_3_72" transform="matrix(5.534955,-8.283303,-8.2838,-5.534623,259.05268,90.966098)"/>
<use data-text="i" xlink:href="#font_3_66" transform="matrix(5.534955,-8.283303,-8.2838,-5.534623,260.59138,88.66336)"/>
<use data-text="&#x2018;" xlink:href="#font_3_501" transform="matrix(5.534955,-8.283303,-8.2838,-5.534623,262.13008,86.360599)"/>
<use data-text="i" xlink:href="#font_3_66" transform="matrix(5.534955,-8.283303,-8.2838,-5.534623,263.66877,84.05786)"/>
<use data-text="l" xlink:href="#font_3_72" transform="matrix(5.534955,-8.283303,-8.2838,-5.534623,265.20753,81.7551)"/>
<use data-text="a" xlink:href="#font_3_28" transform="matrix(5.534955,-8.283303,-8.2838,-5.534623,266.74623,79.45236)"/>
<use data-text="g" xlink:href="#font_3_59" transform="matrix(5.534955,-8.283303,-8.2838,-5.534623,269.51368,75.3107)"/>
<use data-text="i" xlink:href="#font_3_66" transform="matrix(5.534955,-8.283303,-8.2838,-5.534623,272.28114,71.16907)"/>
<path transform="matrix(1.00006,0,0,-1,191.9516,187.01)" stroke-width=".3985" stroke-linecap="round" stroke-miterlimit="10" stroke-linejoin="miter" fill="none" stroke="#000000" d="M56.33932 136.01813"/>
<use data-text="L" xlink:href="#font_3_71" transform="matrix(3.8125172,-9.203848,-9.2044,-3.8122886,244.05883,69.96506)"/>
<use data-text="e" xlink:href="#font_3_50" transform="matrix(3.8125172,-9.203848,-9.2044,-3.8122886,246.44164,64.21268)"/>
<use data-text="o" xlink:href="#font_3_81" transform="matrix(3.8125172,-9.203848,-9.2044,-3.8122886,248.13439,60.12616)"/>
<path transform="matrix(1.00006,0,0,-1,191.9516,187.01)" stroke-width=".3985" stroke-linecap="round" stroke-miterlimit="10" stroke-linejoin="miter" fill="none" stroke="#000000" d="M28.71985 144.39934"/>
<use data-text="A" xlink:href="#font_3_27" transform="matrix(1.9435209,-9.770919,-9.771505,-1.9434043,220.30078,62.488527)"/>
<use data-text="t" xlink:href="#font_3_105" transform="matrix(1.9435209,-9.770919,-9.771505,-1.9434043,221.70597,55.424135)"/>
<use data-text="a" xlink:href="#font_3_28" transform="matrix(1.9435209,-9.770919,-9.771505,-1.9434043,222.46198,51.62323)"/>
<path transform="matrix(1.00006,0,0,-1,191.9516,187.01)" stroke-width=".3985" stroke-linecap="round" stroke-miterlimit="10" stroke-linejoin="miter" fill="none" stroke="#000000" d="M28.71985-144.39934"/>
<use data-text="A" xlink:href="#font_3_27" transform="matrix(1.9435209,9.770919,9.771505,-1.9434043,213.41077,312.90086)"/>
<use data-text="t" xlink:href="#font_3_105" transform="matrix(1.9435209,9.770919,9.771505,-1.9434043,214.81594,319.96525)"/>
<use data-text="a" xlink:href="#font_3_28" transform="matrix(1.9435209,9.770919,9.771505,-1.9434043,215.57196,323.76615)"/>
<path transform="matrix(1.00006,0,0,-1,191.9516,187.01)" stroke-width=".3985" stroke-linecap="round" stroke-miterlimit="10" stroke-linejoin="miter" fill="none" stroke="#000000" d="M56.33932-136.01813"/>
<use data-text="L" xlink:href="#font_3_71" transform="matrix(3.8125172,9.203848,9.2044,-3.8122886,237.87201,306.61558)"/>
<use data-text="e" xlink:href="#font_3_50" transform="matrix(3.8125172,9.203848,9.2044,-3.8122886,240.25482,312.36799)"/>
<use data-text="o" xlink:href="#font_3_81" transform="matrix(3.8125172,9.203848,9.2044,-3.8122886,241.94759,316.4545)"/>
<path transform="matrix(1.00006,0,0,-1,191.9516,187.01)" stroke-width=".3985" stroke-linecap="round" stroke-miterlimit="10" stroke-linejoin="miter" fill="none" stroke="#000000" d="M81.79243-122.41241"/>
<use data-text="T" xlink:href="#font_3_104" transform="matrix(5.534955,8.283303,8.2838,-5.534623,248.69995,276.31105)"/>
<use data-text="a" xlink:href="#font_3_28" transform="matrix(5.534955,8.283303,8.2838,-5.534623,252.24233,281.61238)"/>
<use data-text="l" xlink:href="#font_3_72" transform="matrix(5.534955,8.283303,8.2838,-5.534623,255.0098,285.754)"/>
<use data-text="i" xlink:href="#font_3_66" transform="matrix(5.534955,8.283303,8.2838,-5.534623,256.54853,288.05677)"/>
<use data-text="&#x2018;" xlink:href="#font_3_501" transform="matrix(5.534955,8.283303,8.2838,-5.534623,258.08723,290.3595)"/>
<use data-text="i" xlink:href="#font_3_66" transform="matrix(5.534955,8.283303,8.2838,-5.534623,259.62593,292.66227)"/>
<use data-text="l" xlink:href="#font_3_72" transform="matrix(5.534955,8.283303,8.2838,-5.534623,261.16465,294.965)"/>
<use data-text="a" xlink:href="#font_3_28" transform="matrix(5.534955,8.283303,8.2838,-5.534623,262.70338,297.26777)"/>
<use data-text="g" xlink:href="#font_3_59" transform="matrix(5.534955,8.283303,8.2838,-5.534623,265.47084,301.4094)"/>
<use data-text="i" xlink:href="#font_3_66" transform="matrix(5.534955,8.283303,8.2838,-5.534623,268.23829,305.55107)"/>
<path transform="matrix(1.00006,0,0,-1,191.9516,187.01)" stroke-width=".3985" stroke-linecap="round" stroke-miterlimit="10" stroke-linejoin="miter" fill="none" stroke="#000000" d="M104.10716-104.10716"/>
<use data-text="M" xlink:href="#font_3_74" transform="matrix(7.044976,7.044554,7.044976,-7.044554,273.5882,273.37583)"/>
<use data-text="a" xlink:href="#font_3_28" transform="matrix(7.044976,7.044554,7.044976,-7.044554,280.04847,279.8357)"/>
<use data-text="n" xlink:href="#font_3_77" transform="matrix(7.044976,7.044554,7.044976,-7.044554,283.57096,283.35798)"/>
<use data-text="u" xlink:href="#font_3_109" transform="matrix(7.044976,7.044554,7.044976,-7.044554,287.29777,287.08457)"/>
<path transform="matrix(1.00006,0,0,-1,191.9516,187.01)" stroke-width=".3985" stroke-linecap="round" stroke-miterlimit="10" stroke-linejoin="miter" fill="none" stroke="#000000" d="M122.41241-81.79243"/>
<use data-text="G" xlink:href="#font_3_58" transform="matrix(8.2838,5.534623,5.534955,-8.283303,291.13447,256.26658)"/>
<use data-text="o" xlink:href="#font_3_81" transform="matrix(8.2838,5.534623,5.534955,-8.283303,297.63725,260.61125)"/>
<use data-text="g" xlink:href="#font_3_59" transform="matrix(8.2838,5.534623,5.534955,-8.283303,301.77915,263.37855)"/>
<use data-text="o" xlink:href="#font_3_81" transform="matrix(8.2838,5.534623,5.534955,-8.283303,305.92106,266.14585)"/>
<path transform="matrix(1.00006,0,0,-1,191.9516,187.01)" stroke-width=".3985" stroke-linecap="round" stroke-miterlimit="10" stroke-linejoin="miter" fill="none" stroke="#000000" d="M136.01813-56.33932"/>
<use data-text="&#x0100;" xlink:href="#font_3_172" transform="matrix(9.2044,3.8122886,3.8125172,-9.203848,304.9513,236.9451)"/>
<use data-text="i" xlink:href="#font_3_66" transform="matrix(9.2044,3.8122886,3.8125172,-9.203848,311.85459,239.80432)"/>
<use data-text="g" xlink:href="#font_3_59" transform="matrix(9.2044,3.8122886,3.8125172,-9.203848,314.41343,240.86414)"/>
<use data-text="a" xlink:href="#font_3_28" transform="matrix(9.2044,3.8122886,3.8125172,-9.203848,319.0156,242.77027)"/>
<path transform="matrix(1.00006,0,0,-1,191.9516,187.01)" stroke-width=".3985" stroke-linecap="round" stroke-miterlimit="10" stroke-linejoin="miter" fill="none" stroke="#000000" d="M144.39934-28.71985"/>
<use data-text="L" xlink:href="#font_3_71" transform="matrix(9.771505,1.9434043,1.9435209,-9.770919,321.2608,216.13948)"/>
<use data-text="&#x0101;" xlink:href="#font_3_173" transform="matrix(9.771505,1.9434043,1.9435209,-9.770919,327.36799,217.3541)"/>
<path transform="matrix(1.00006,0,0,-1,191.9516,187.01)" stroke-width=".3985" stroke-linecap="round" stroke-miterlimit="10" stroke-linejoin="miter" fill="none" stroke="#000000" d="M-28.71985 144.39934"/>
<use data-text="A" xlink:href="#font_3_27" transform="matrix(1.9435209,9.770919,9.771505,-1.9434043,160.47159,46.747865)"/>
<use data-text="t" xlink:href="#font_3_105" transform="matrix(1.9435209,9.770919,9.771505,-1.9434043,161.87676,53.812257)"/>
<use data-text="a" xlink:href="#font_3_28" transform="matrix(1.9435209,9.770919,9.771505,-1.9434043,162.63278,57.61316)"/>
<path transform="matrix(1.00006,0,0,-1,191.9516,187.01)" stroke-width=".3985" stroke-linecap="round" stroke-miterlimit="10" stroke-linejoin="miter" fill="none" stroke="#000000" d="M-56.33932 136.01813"/>
<use data-text="L" xlink:href="#font_3_71" transform="matrix(3.8125172,9.203848,9.2044,-3.8122886,133.86277,55.524568)"/>
<use data-text="e" xlink:href="#font_3_50" transform="matrix(3.8125172,9.203848,9.2044,-3.8122886,136.24558,61.276979)"/>
<use data-text="o" xlink:href="#font_3_81" transform="matrix(3.8125172,9.203848,9.2044,-3.8122886,137.93834,65.363498)"/>
<path transform="matrix(1.00006,0,0,-1,191.9516,187.01)" stroke-width=".3985" stroke-linecap="round" stroke-miterlimit="10" stroke-linejoin="miter" fill="none" stroke="#000000" d="M-81.79243 122.41241"/>
<use data-text="T" xlink:href="#font_3_104" transform="matrix(5.534955,8.283303,8.2838,-5.534623,110.08865,68.874057)"/>
<use data-text="a" xlink:href="#font_3_28" transform="matrix(5.534955,8.283303,8.2838,-5.534623,113.63103,74.175388)"/>
<use data-text="l" xlink:href="#font_3_72" transform="matrix(5.534955,8.283303,8.2838,-5.534623,116.3985,78.31702)"/>
<use data-text="i" xlink:href="#font_3_66" transform="matrix(5.534955,8.283303,8.2838,-5.534623,117.93721,80.61978)"/>
<use data-text="&#x2018;" xlink:href="#font_3_501" transform="matrix(5.534955,8.283303,8.2838,-5.534623,119.47592,82.922519)"/>
<use data-text="i" xlink:href="#font_3_66" transform="matrix(5.534955,8.283303,8.2838,-5.534623,121.01463,85.22528)"/>
<use data-text="l" xlink:href="#font_3_72" transform="matrix(5.534955,8.283303,8.2838,-5.534623,122.553348,87.528018)"/>
<use data-text="a" xlink:href="#font_3_28" transform="matrix(5.534955,8.283303,8.2838,-5.534623,124.09206,89.83078)"/>
<use data-text="g" xlink:href="#font_3_59" transform="matrix(5.534955,8.283303,8.2838,-5.534623,126.85953,93.97241)"/>
<use data-text="i" xlink:href="#font_3_66" transform="matrix(5.534955,8.283303,8.2838,-5.534623,129.627,98.114078)"/>
<path transform="matrix(1.00006,0,0,-1,191.9516,187.01)" stroke-width=".3985" stroke-linecap="round" stroke-miterlimit="10" stroke-linejoin="miter" fill="none" stroke="#000000" d="M-104.10716 104.10716"/>
<use data-text="M" xlink:href="#font_3_74" transform="matrix(7.044976,7.044554,7.044976,-7.044554,87.96006,87.75882)"/>
<use data-text="a" xlink:href="#font_3_28" transform="matrix(7.044976,7.044554,7.044976,-7.044554,94.42031,94.21869)"/>
<use data-text="n" xlink:href="#font_3_77" transform="matrix(7.044976,7.044554,7.044976,-7.044554,97.9428,97.74097)"/>
<use data-text="u" xlink:href="#font_3_109" transform="matrix(7.044976,7.044554,7.044976,-7.044554,101.66961,101.46756)"/>
<path transform="matrix(1.00006,0,0,-1,191.9516,187.01)" stroke-width=".3985" stroke-linecap="round" stroke-miterlimit="10" stroke-linejoin="miter" fill="none" stroke="#000000" d="M-122.41241 81.79243"/>
<use data-text="G" xlink:href="#font_3_58" transform="matrix(8.2838,5.534623,5.534955,-8.283303,71.07728,109.23958)"/>
<use data-text="o" xlink:href="#font_3_81" transform="matrix(8.2838,5.534623,5.534955,-8.283303,77.580059,113.58424)"/>
<use data-text="g" xlink:href="#font_3_59" transform="matrix(8.2838,5.534623,5.534955,-8.283303,81.72196,116.35155)"/>
<use data-text="o" xlink:href="#font_3_81" transform="matrix(8.2838,5.534623,5.534955,-8.283303,85.86387,119.11885)"/>
<path transform="matrix(1.00006,0,0,-1,191.9516,187.01)" stroke-width=".3985" stroke-linecap="round" stroke-miterlimit="10" stroke-linejoin="miter" fill="none" stroke="#000000" d="M-136.01813 56.33932"/>
<use data-text="&#x0100;" xlink:href="#font_3_172" transform="matrix(9.2044,3.8122886,3.8125172,-9.203848,58.06949,134.69109)"/>
<use data-text="i" xlink:href="#font_3_66" transform="matrix(9.2044,3.8122886,3.8125172,-9.203848,64.97278,137.55031)"/>
<use data-text="g" xlink:href="#font_3_59" transform="matrix(9.2044,3.8122886,3.8125172,-9.203848,67.53162,138.61013)"/>
<use data-text="a" xlink:href="#font_3_28" transform="matrix(9.2044,3.8122886,3.8125172,-9.203848,72.13379,140.51625)"/>
<path transform="matrix(1.00006,0,0,-1,191.9516,187.01)" stroke-width=".3985" stroke-linecap="round" stroke-miterlimit="10" stroke-linejoin="miter" fill="none" stroke="#000000" d="M-144.39934 28.71985"/>
<use data-text="L" xlink:href="#font_3_71" transform="matrix(9.771505,1.9434043,1.9435209,-9.770919,50.342576,162.25949)"/>
<use data-text="&#x0101;" xlink:href="#font_3_173" transform="matrix(9.771505,1.9434043,1.9435209,-9.770919,56.449754,163.47409)"/>
<path transform="matrix(1.00006,0,0,-1,191.9516,187.01)" stroke-width=".3985" stroke-linecap="round" stroke-miterlimit="10" stroke-linejoin="miter" fill="none" stroke="#000000" d="M-144.39934-28.71985"/>
<use data-text="L" xlink:href="#font_3_71" transform="matrix(9.771505,-1.9434043,-1.9435209,-9.770919,51.649049,218.32611)"/>
<use data-text="&#x0101;" xlink:href="#font_3_173" transform="matrix(9.771505,-1.9434043,-1.9435209,-9.770919,57.756227,217.11148)"/>
<path transform="matrix(1.00006,0,0,-1,191.9516,187.01)" stroke-width=".3985" stroke-linecap="round" stroke-miterlimit="10" stroke-linejoin="miter" fill="none" stroke="#000000" d="M-136.01813-56.33932"/>
<use data-text="&#x0100;" xlink:href="#font_3_172" transform="matrix(9.2044,-3.8122886,-3.8125172,-9.203848,60.28528,244.67636)"/>
<use data-text="i" xlink:href="#font_3_66" transform="matrix(9.2044,-3.8122886,-3.8125172,-9.203848,67.1886,241.81714)"/>
<use data-text="g" xlink:href="#font_3_59" transform="matrix(9.2044,-3.8122886,-3.8125172,-9.203848,69.74744,240.75733)"/>
<use data-text="a" xlink:href="#font_3_28" transform="matrix(9.2044,-3.8122886,-3.8125172,-9.203848,74.34961,238.8512)"/>
<path transform="matrix(1.00006,0,0,-1,191.9516,187.01)" stroke-width=".3985" stroke-linecap="round" stroke-miterlimit="10" stroke-linejoin="miter" fill="none" stroke="#000000" d="M-122.41241-81.79243"/>
<use data-text="G" xlink:href="#font_3_58" transform="matrix(8.2838,-5.534623,-5.534955,-8.283303,73.83954,268.91407)"/>
<use data-text="o" xlink:href="#font_3_81" transform="matrix(8.2838,-5.534623,-5.534955,-8.283303,80.34235,264.56938)"/>
<use data-text="g" xlink:href="#font_3_59" transform="matrix(8.2838,-5.534623,-5.534955,-8.283303,84.48422,261.80207)"/>
<use data-text="o" xlink:href="#font_3_81" transform="matrix(8.2838,-5.534623,-5.534955,-8.283303,88.62613,259.03474)"/>
<path transform="matrix(1.00006,0,0,-1,191.9516,187.01)" stroke-width=".3985" stroke-linecap="round" stroke-miterlimit="10" stroke-linejoin="miter" fill="none" stroke="#000000" d="M-104.10716-104.10716"/>
<use data-text="M" xlink:href="#font_3_74" transform="matrix(7.044976,-7.044554,-7.044976,-7.044554,92.69447,290.9953)"/>
<use data-text="a" xlink:href="#font_3_28" transform="matrix(7.044976,-7.044554,-7.044976,-7.044554,99.15471,284.53544)"/>
<use data-text="n" xlink:href="#font_3_77" transform="matrix(7.044976,-7.044554,-7.044976,-7.044554,102.6772,281.01319)"/>
<use data-text="u" xlink:href="#font_3_109" transform="matrix(7.044976,-7.044554,-7.044976,-7.044554,106.40401,277.2866)"/>
<path transform="matrix(1.00006,0,0,-1,191.9516,187.01)" stroke-width=".3985" stroke-linecap="round" stroke-miterlimit="10" stroke-linejoin="miter" fill="none" stroke="#000000" d="M-81.79243-122.41241"/>
<use data-text="T" xlink:href="#font_3_104" transform="matrix(5.534955,-8.283303,-8.2838,-5.534623,114.1315,307.84608)"/>
<use data-text="a" xlink:href="#font_3_28" transform="matrix(5.534955,-8.283303,-8.2838,-5.534623,117.67386,302.54478)"/>
<use data-text="l" xlink:href="#font_3_72" transform="matrix(5.534955,-8.283303,-8.2838,-5.534623,120.441349,298.4031)"/>
<use data-text="i" xlink:href="#font_3_66" transform="matrix(5.534955,-8.283303,-8.2838,-5.534623,121.98007,296.10038)"/>
<use data-text="&#x2018;" xlink:href="#font_3_501" transform="matrix(5.534955,-8.283303,-8.2838,-5.534623,123.51877,293.7976)"/>
<use data-text="i" xlink:href="#font_3_66" transform="matrix(5.534955,-8.283303,-8.2838,-5.534623,125.057468,291.49488)"/>
<use data-text="l" xlink:href="#font_3_72" transform="matrix(5.534955,-8.283303,-8.2838,-5.534623,126.59619,289.1921)"/>
<use data-text="a" xlink:href="#font_3_28" transform="matrix(5.534955,-8.283303,-8.2838,-5.534623,128.13492,286.88938)"/>
<use data-text="g" xlink:href="#font_3_59" transform="matrix(5.534955,-8.283303,-8.2838,-5.534623,130.90238,282.7477)"/>
<use data-text="i" xlink:href="#font_3_66" transform="matrix(5.534955,-8.283303,-8.2838,-5.534623,133.66983,278.60609)"/>
<path transform="matrix(1.00006,0,0,-1,191.9516,187.01)" stroke-width=".3985" stroke-linecap="round" stroke-miterlimit="10" stroke-linejoin="miter" fill="none" stroke="#000000" d="M-56.33932-136.01813"/>
<use data-text="L" xlink:href="#font_3_71" transform="matrix(3.8125172,-9.203848,-9.2044,-3.8122886,140.04859,321.05708)"/>
<use data-text="e" xlink:href="#font_3_50" transform="matrix(3.8125172,-9.203848,-9.2044,-3.8122886,142.4314,315.3047)"/>
<use data-text="o" xlink:href="#font_3_81" transform="matrix(3.8125172,-9.203848,-9.2044,-3.8122886,144.12415,311.21818)"/>
<path transform="matrix(1.00006,0,0,-1,191.9516,187.01)" stroke-width=".3985" stroke-linecap="round" stroke-miterlimit="10" stroke-linejoin="miter" fill="none" stroke="#000000" d="M-28.71985-144.39934"/>
<use data-text="A" xlink:href="#font_3_27" transform="matrix(1.9435209,-9.770919,-9.771505,-1.9434043,167.3616,328.64155)"/>
<use data-text="t" xlink:href="#font_3_105" transform="matrix(1.9435209,-9.770919,-9.771505,-1.9434043,168.76679,321.57716)"/>
<use data-text="a" xlink:href="#font_3_28" transform="matrix(1.9435209,-9.770919,-9.771505,-1.9434043,169.5228,317.77626)"/>
<path transform="matrix(1.00006,0,0,-1,191.9516,187.01)" stroke-width=".3985" stroke-linecap="round" stroke-miterlimit="10" stroke-linejoin="miter" fill="none" stroke="#000000" d="M0 0"/>
<path transform="matrix(1.00006,0,0,-1,191.9516,187.01)" d="M35.23271-13.49796 38.22435-32.18604 40.25317-39.28804 40.63602-43.27463 35.18227-36.87868 28.96742-23.81628 25.67087-14.30717 12.48239-8.72736 1.5772-5.68527-4.00032-8.72736-6.15523-10.75618-10.9029-18.39462-15.61847-23.34404-19.5317-27.04405-18.48862-24.543-13.30539-17.92468-11.51956-15.17374-10.112-11.95055-11.16653-12.50761-12.01932-12.01932-12.01701-11.21925-11.54707-10.19453-16.81972-12.24399-21.82185-14.98805-24.24498-17.34926-26.4847-19.89389-26.34027-18.26625-25.13214-16.04257-21.72557-13.05092-17.24612-9.98361-14.36449-7.65219-10.51318-5.33452-8.04878-3.25986-6.97821-1.25166-6.71458 2.44374-7.45734 6.72375-12.96611 24.25185-14.62126 28.07796-28.05273 36.33766-39.70758 41.65158-40.0927 41.68367-40.19128 41.45442-40.54433 41.73868-40.16606 42.2224-39.07944 42.44247-34.14838 42.8001-29.42592 42.282-16.47585 38.84561-9.01392 36.05798-5.45602 34.40971-2.93892 32.50697-.59831 25.56084 2.06319 14.34387 3.3653 11.5127 4.32813 10.66219 7.27852 12.45718 8.69984 12.42738 9.3257 12.39987 11.17569 13.67905 13.3925 15.41444 14.41724 15.75603 15.02473 15.02473 14.92844 14.38971 14.44244 14.73589 13.86015 14.58228 12.63599 13.67676 11.80153 12.77812 10.68968 11.22842 10.87767 9.57556 10.77452 8.97952 9.76813 6.77876 9.5664 6.0681 9.66956 5.52022 10.46274 4.7637 32.72246-4.09431 33.69905-6.13689Z"/>
</svg>
