<svg xmlns="http://www.w3.org/2000/svg" xmlns:xlink="http://www.w3.org/1999/xlink" version="1.1" width="379" height="375" viewBox="0 0 379 375">
<defs>
<path id="font_1_49" d="M.6380005 .2558899H.6159973C.59199526 .09996033 .56799319 .0289917 .39898683 .0289917H.2630005C.21899414 .0289917 .21699524 .035995485 .21699524 .06896973V.3388672H.30799867C.4039917 .3388672 .4149933 .3078766 .4149933 .22190857H.43699647V.48477174H.4149933C.4149933 .39883424 .4039917 .3678589 .30799867 .3678589H.21699524V.6116791C.21699524 .6446686 .21899414 .6516571 .2630005 .6516571H.3959961C.54299929 .6516571 .57398989 .6016998 .58898928 .4577942H.61099246L.58499148 .68066409H.040985109V.6516571H.06098938C.1329956 .6516571 .13598633 .6416626 .13598633 .60469058V.07597351C.13598633 .038986207 .1329956 .0289917 .06098938 .0289917H.040985109V0H.59799197L.6380005 .2558899Z"/>
<path id="font_1_76" d="M.69200137 .6536102V.6826172C.66600039 .680603 .61299136 .680603 .58499148 .680603 .5569916 .680603 .5039978 .680603 .47799684 .6826172V.6536102C.57299807 .6536102 .57299807 .6066437 .57299807 .577652V.14093018L.22599793 .6686096C.21699524 .6816101 .21598816 .6826172 .19400025 .6826172H.040985109V.6536102C.083999637 .6536102 .10899353 .6536102 .13598633 .6466217V.10494995C.13598633 .07595825 .13598633 .0289917 .040985109 .0289917V0C.066986087 .0019989014 .11999512 .0019989014 .147995 .0019989014 .17599488 .0019989014 .22898865 .0019989014 .25498963 0V.0289917C.1599884 .0289917 .1599884 .07595825 .1599884 .10494995V.6306305C.16799927 .6226349 .16799927 .620636 .1769867 .6086426L.5669861 .01499939C.57699587 .0009918213 .5779877 0 .58499148 0 .59399417 0 .59599307 .0039978029 .5970001 .005996704V.577652C.5970001 .6066437 .5970001 .6536102 .69200137 .6536102Z"/>
<path id="font_1_113" d="M.98799136 .6536102V.6826172C.94499209 .680603 .94299319 .680603 .8989868 .680603 .8730011 .680603 .81900027 .680603 .79499819 .6826172V.6536102C.85598757 .65260317 .8739929 .62042239 .8739929 .6003723 .8739929 .59536746 .87098696 .5873718 .86898806 .58036807L.71699526 .10647583 .5549927 .609375C.55400088 .612381 .5519867 .62042239 .5519867 .6234436 .5519867 .6536102 .6049957 .6536102 .6289978 .6536102V.6826172C.6049957 .680603 .5309906 .680603 .5019989 .680603 .47299195 .680603 .4119873 .680603 .38598634 .6826172V.6536102C.43899537 .6536102 .45298768 .650589 .46398927 .63249209 .47099305 .6194153 .47799684 .58836367 .4909973 .55236819L.34799195 .10647583 .18798828 .6043701C.18299866 .61842349 .18299866 .62042239 .18299866 .6234436 .18299866 .6536102 .23399353 .6536102 .2599945 .6536102V.6826172C.23699951 .680603 .16099549 .680603 .1329956 .680603 .10398865 .680603 .042999269 .680603 .016998291 .6826172V.6536102C.070999149 .6536102 .08999634 .6536102 .101989749 .6154022L.2999878-.0025024415C.30499269-.017486573 .30899049-.021484375 .31799317-.021484375 .32598878-.021484375 .33099366-.018493653 .33599855-.0034942628L.5019989 .51538088 .6689911-.0034942628C.673996-.018493653 .67900088-.021484375 .68699648-.021484375 .69599917-.021484375 .69999697-.017486573 .7049866-.0025024415L.8929901 .58436587C.9089966 .63249209 .9379883 .65260317 .98799136 .6536102Z"/>
<path id="font_1_97" d="M.4889984 .18367005C.4889984 .24472046 .46598817 .28974916 .43899537 .32278443 .4019928 .36782838 .35699464 .37882997 .31799317 .38883973L.20799256 .41687013C.15699768 .42988587 .11199951 .47991944 .11199951 .54397585 .11199951 .6140442 .16799927 .6770935 .24598694 .6770935 .4099884 .6770935 .43199159 .5149536 .43798829 .47192384 .43998719 .4598999 .43998719 .4559021 .44999696 .4559021 .46099855 .4559021 .46099855 .46090699 .46099855 .4789276V.6810913C.46099855 .6990967 .46099855 .70410159 .45098878 .70410159 .44799806 .70410159 .44400025 .70410159 .43699647 .6911011L.4039917 .63005068C.35598756 .6920929 .2899933 .70410159 .24598694 .70410159 .1349945 .70410159 .053985597 .615036 .053985597 .5129547 .053985597 .4649048 .070999149 .42086793 .10798645 .38084413 .14299011 .34179688 .17799378 .3327942 .24899292 .31477357 .28399659 .30677796 .33898927 .29275514 .35299684 .28675843 .3999939 .2637329 .43099977 .20968628 .43099977 .15364075 .43099977 .078567508 .37799073 .007507324 .29499818 .007507324 .25 .007507324 .18798828 .01852417 .13899231 .061553956 .08099365 .113601688 .07699585 .18566895 .07598877 .21868897 .07499695 .22669983 .06498718 .22669983 .06498718 .22669983 .053985597 .22669983 .053985597 .22169495 .053985597 .20367432V.0015106201C.053985597-.016494751 .053985597-.021484375 .06399536-.021484375 .069992069-.021484375 .070999149-.019485474 .07798767-.0074920656L.11099243 .05255127C.14698792 .012512207 .20999146-.021484375 .29599-.021484375 .4079895-.021484375 .4889984 .07356262 .4889984 .18367005Z"/>
<path id="font_1_65" d="M.31698609 0V.0289917H.29499818C.21998596 .0289917 .21699524 .038986207 .21699524 .07595825V.6066437C.21699524 .6436157 .21998596 .6536102 .29499818 .6536102H.31698609V.6826172C.29299928 .680603 .20698548 .680603 .1769867 .680603 .14698792 .680603 .05999756 .680603 .035995485 .6826172V.6536102H.057998659C.1329956 .6536102 .13598633 .6436157 .13598633 .6066437V.07595825C.13598633 .038986207 .1329956 .0289917 .057998659 .0289917H.035995485V0C.05999756 .0019989014 .1459961 .0019989014 .17599488 .0019989014 .20599365 .0019989014 .29299928 .0019989014 .31698609 0Z"/>
<path id="font_1_104" d="M.67099 .45480348 .6529999 .6777344H.052993776L.034988405 .45480348H.056991579C.070999149 .6127472 .07998657 .6487274 .23799134 .6487274 .2559967 .6487274 .28399659 .6487274 .2919922 .6467285 .31199647 .64372256 .31298829 .6317291 .31298829 .6087494V.07696533C.31298829 .04298401 .31298829 .0289917 .21499634 .0289917H.1789856V0C.21099854 .0019989014 .31399537 .0019989014 .35299684 .0019989014 .3919983 .0019989014 .49598695 .0019989014 .5279999 0V.0289917H.49198915C.3939972 .0289917 .3939972 .04298401 .3939972 .07696533V.6087494C.3939972 .633728 .3959961 .6427307 .4119873 .6467285 .41999818 .6487274 .44898988 .6487274 .46798707 .6487274 .6259918 .6487274 .6349945 .6127472 .6489868 .45480348H.67099Z"/>
<path id="font_1_58" d="M.71899417 .24150086V.2705078C.69299319 .26849366 .6239929 .26849366 .59399417 .26849366 .56199648 .26849366 .47499085 .26849366 .44799806 .2705078V.24150086H.47898866C.5669861 .24150086 .56999209 .22950745 .56999209 .1934967V.12950135C.56999209 .01550293 .43899537 .007507324 .41299439 .007507324 .33399964 .007507324 .14698792 .055511476 .14698792 .3415985 .14698792 .6310272 .33599855 .6750946 .4059906 .6750946 .49299623 .6750946 .5970001 .6119995 .6230011 .43473817 .625 .4237213 .625 .42071534 .6369934 .42071534 .651001 .42071534 .651001 .4237213 .651001 .4437561V.6810913C.651001 .6990967 .651001 .70410159 .6409912 .70410159 .6349945 .70410159 .6339874 .7020874 .6279907 .6920929L.57899478 .6130066C.5499878 .64904788 .4889984 .70410159 .3939972 .70410159 .21299744 .70410159 .053985597 .5469055 .053985597 .3415985 .053985597 .13450623 .21299744-.021484375 .394989-.021484375 .46598817-.021484375 .5469971 .0015106201 .58399966 .06550598 .60198977 .0335083 .6349945 .00050354006 .6429901 .00050354006 .651001 .00050354006 .651001 .006515503 .651001 .022506714V.19750977C.651001 .23649597 .6549988 .24150086 .71899417 .24150086Z"/>
<path id="font_1_27" d="M.70199587 0V.0289917C.6369934 .0289917 .61898806 .0289917 .6049957 .06993103L.3869934 .6958618C.3829956 .7078552 .3809967 .7138672 .36698915 .7138672 .35299684 .7138672 .35099793 .7108612 .34599305 .69485476L.13699341 .09689331C.12298584 .05595398 .09498596 .02998352 .0309906 .0289917V0L.1269989 .0019989014C.15499878 .0019989014 .20298767 .0019989014 .22898865 0V.0289917C.18699646 .02998352 .1619873 .050964357 .1619873 .07891846 .1619873 .08491516 .1619873 .08691406 .16699219 .09989929L.21299744 .23271179H.46499635L.519989 .075927738C.5249939 .063949588 .5249939 .061950685 .5249939 .058944704 .5249939 .0289917 .47399903 .0289917 .44898988 .0289917V0C.47200013 .0019989014 .5509949 .0019989014 .57899478 .0019989014 .6069946 .0019989014 .67900088 .0019989014 .70199587 0M.45498658 .26171876H.22299195L.33898927 .5948181 .45498658 .26171876Z"/>
<path id="font_1_69" d="M.71899417 0V.0289917C.6649933 .0289917 .647995 .033996583 .6159973 .081954959L.3909912 .4187622C.4059906 .43473817 .44499208 .47172547 .46099855 .4867096 .598999 .6236267 .6269989 .6516113 .70599368 .6536102V.6826172C.6769867 .680603 .6649933 .680603 .6199951 .680603 .59399417 .680603 .5349884 .680603 .5119934 .6826172V.6536102C.5329895 .6526184 .5509949 .6436157 .5509949 .6216278 .5509949 .6066437 .5439911 .597641 .5219879 .57666018L.21699524 .2818451V.6046448C.21699524 .6536102 .22799683 .6536102 .31199647 .6536102V.6826172C.28799439 .680603 .20599365 .680603 .1769867 .680603 .14698792 .680603 .06498718 .680603 .040985109 .6826172V.6536102C.125 .6536102 .13598633 .6536102 .13598633 .6046448V.07795715C.13598633 .0289917 .125 .0289917 .040985109 .0289917V0C.06498718 .0019989014 .14698792 .0019989014 .17599488 .0019989014 .20599365 .0019989014 .28799439 .0019989014 .31199647 0V.0289917C.22799683 .0289917 .21699524 .0289917 .21699524 .07795715V.25186158L.33599855 .36679078 .5209961 .08995056C.5249939 .08395386 .5289917 .07696533 .5309906 .07196045 .5329895 .06796265 .5339966 .06297302 .5339966 .05697632 .5339966 .0289917 .49798585 .0289917 .48199464 .0289917V0C.5059967 .0019989014 .57899478 .0019989014 .60798647 .0019989014 .6339874 .0019989014 .6839905 .0019989014 .71899417 0Z"/>
<path id="font_1_95" d="M.71699526 .086502078C.71699526 .09251404 .71699526 .101501468 .70599368 .101501468 .69599917 .101501468 .69599917 .09550476 .69499209 .085510257 .6899872 .025512696 .6609955-.0014953613 .6289978-.0014953613 .58299258-.0014953613 .57299807 .04550171 .5649872 .09851074L.5549927 .17350769C.5479889 .22351074 .5439911 .25550843 .5139923 .28651429 .5029907 .29751588 .47698976 .32450868 .42199708 .33950807 .5209961 .3630066 .59799197 .42591859 .59799197 .5028229 .59799197 .59968569 .4850006 .6826172 .34098817 .6826172H.041992189V.6536102H.06199646C.13398743 .6536102 .13699341 .643631 .13699341 .6066742V.07600403C.13699341 .038986207 .13398743 .0289917 .06199646 .0289917H.041992189V0C.06498718 .0019989014 .14698792 .0019989014 .17599488 .0019989014 .20498657 .0019989014 .28799439 .0019989014 .31098939 0V.0289917H.29100038C.21899414 .0289917 .21598816 .038986207 .21598816 .07600403V.33203126H.33198548C.37098695 .33203126 .4079895 .3210144 .43499757 .29296876 .46899415 .25489808 .46899415 .23387146 .46899415 .1647644 .46899415 .08564758 .46899415 .05960083 .5130005 .016540528 .5279999 .0015106201 .56999209-.021484375 .6259918-.021484375 .70399478-.021484375 .71699526 .06561279 .71699526 .086639408V.086502078M.5049896 .5028229C.5049896 .41593934 .45799256 .35202027 .32798768 .35202027H.21598816V.6136627C.21598816 .6366272 .21598816 .6486206 .23699951 .6526184 .24598694 .6536102 .27598573 .6536102 .29599 .6536102 .3769989 .6539917 .5049896 .6539917 .5049896 .5029907V.5028229Z"/>
<path id="font_1_108" d="M.69200137 .6536102V.6826172C.66600039 .680603 .6119995 .680603 .58399966 .680603 .5549927 .680603 .5009918 .680603 .47499085 .6826172V.6536102C.56999209 .6536102 .56999209 .6065979 .56999209 .57958987V.22953797C.56999209 .089523319 .47499085 .007507324 .3809967 .007507324 .32099916 .007507324 .21699524 .04751587 .21699524 .22253418V.6065979C.21699524 .64360049 .21998596 .6536102 .2919922 .6536102H.31199647V.6826172C.28799439 .680603 .20599365 .680603 .1769867 .680603 .14698792 .680603 .06498718 .680603 .040985109 .6826172V.6536102H.06098938C.1329956 .6536102 .13598633 .64360049 .13598633 .6065979V.22854615C.13598633 .08352661 .2519989-.021484375 .3789978-.021484375 .5179901-.021484375 .5970001 .11451721 .5970001 .21453858V.59259036C.5970001 .6536102 .673996 .6536102 .69200137 .6536102Z"/>
<path id="font_1_80" d="M.70700076 .33880616C.70700076 .54597476 .5549927 .70410159 .3809967 .70410159 .20298767 .70410159 .053985597 .54397585 .053985597 .33880616 .053985597 .13562012 .20498657-.021484375 .37998963-.021484375 .5589905-.021484375 .70700076 .13761902 .70700076 .33880616M.6139984 .35380555C.6139984 .09358215 .47799684 .0015106201 .3809967 .0015106201 .2789917 .0015106201 .14698792 .097595218 .14698792 .35380555 .14698792 .59902957 .28599549 .6820984 .37998963 .6820984 .47898866 .6820984 .6139984 .59602358 .6139984 .35380555Z"/>
<path id="font_1_83" d="M.61099246 .49769593C.61099246 .59465029 .5139923 .6826172 .3789978 .6826172H.041992189V.6536102H.06199646C.13398743 .6536102 .13699341 .6436157 .13699341 .6066284V.07595825C.13699341 .038986207 .13398743 .0289917 .06199646 .0289917H.041992189V0C.06599426 .0019989014 .147995 .0019989014 .1769867 .0019989014 .20698548 .0019989014 .2889862 .0019989014 .31298829 0V.0289917H.29299928C.22099304 .0289917 .21798706 .038986207 .21798706 .07595825V.3177948H.3869934C.5039978 .3177948 .61099246 .39675904 .61099246 .49769593M.5179901 .49769593C.5179901 .455719 .5179901 .34179688 .35499574 .34179688H.21598816V.6136322C.21598816 .64660647 .21798706 .6536102 .2619934 .6536102H.35598756C.5179901 .6536102 .5179901 .54067996 .5179901 .49769593Z"/>
<path id="font_2_74" d="M.79599 0V.025985718C.72698977 .025985718 .71598818 .025985718 .71598818 .07096863V.6116333C.71598818 .6566162 .72698977 .6566162 .79599 .6566162V.6826172H.6689911C.647995 .6826172 .6469879 .6816101 .6409912 .6666107L.4249878 .080963138 .20899964 .6666107C.20298767 .6816101 .20199585 .6826172 .18099976 .6826172H.052993776V.6566162C.12199402 .6566162 .1329956 .6566162 .1329956 .6116333V.09794617C.1329956 .07296753 .1329956 .025985718 .052993776 .025985718V0C.07598877 .0019989014 .117996219 .0019989014 .14299011 .0019989014 .16799927 .0019989014 .20999146 .0019989014 .23298645 0V.025985718C.15299988 .025985718 .15299988 .07296753 .15299988 .09794617V.65260317H.1539917L.3889923 .015991211C.3929901 .005996704 .394989 0 .40299989 0 .41099549 0 .41299439 .005996704 .4169922 .015991211L.6539917 .65760806H.6549988V.07096863C.6549988 .025985718 .6439972 .025985718 .57499697 .025985718V0C.60198977 .0019989014 .6559906 .0019989014 .68499758 .0019989014 .71398928 .0019989014 .7689972 .0019989014 .79599 0Z"/>
<path id="font_2_28" d="M.44898988 .08898926V.14498902H.43099977V.08799744C.43099977 .026992798 .4039917 .018997193 .3909912 .018997193 .34999085 .018997193 .34999085 .070999149 .34999085 .114990238V.25898744C.34999085 .32499696 .34999085 .3600006 .30799867 .39898683 .2709961 .43199159 .22799683 .44198609 .19400025 .44198609 .114990238 .44198609 .057998659 .37998963 .057998659 .31399537 .057998659 .2769928 .08799744 .2749939 .09399414 .2749939 .10699463 .2749939 .12998963 .2829895 .12998963 .31098939 .12998963 .33599855 .11099243 .34700013 .09399414 .34700013 .08999634 .34700013 .084991458 .34599305 .08198547 .34498597 .102996829 .4079895 .15699768 .42599488 .19198609 .42599488 .24198914 .42599488 .29699708 .38198854 .29699708 .2979889V.2539978C.23799134 .2519989 .16699219 .24398804 .11099243 .21398926 .04798889 .1789856 .02999878 .1289978 .02999878 .09098816 .02999878 .01399231 .11999512-.008010864 .17298889-.008010864 .22799683-.008010864 .2789917 .022994996 .30099488 .07998657 .30299378 .035995485 .33099366-.0040130617 .375-.0040130617 .3959961-.0040130617 .44898988 .009994507 .44898988 .08898926M.29699708 .13899231C.29699708 .051986696 .23498535 .0079956059 .17999268 .0079956059 .12998963 .0079956059 .09098816 .04499817 .09098816 .09098816 .09098816 .12098694 .10398865 .17399597 .1619873 .20599365 .20999146 .23298645 .2649994 .23699951 .29699708 .23899842V.13899231Z"/>
<path id="font_2_81" d="M.43099977 .21427918C.43099977 .34233094 .33799745 .4423828 .22898865 .4423828 .11999512 .4423828 .026992798 .34233094 .026992798 .21427918 .026992798 .08821106 .11999512-.0078125 .22898865-.0078125 .33799745-.0078125 .43099977 .08821106 .43099977 .21427918M.36698915 .22227478C.36698915 .18325806 .36499024 .12322998 .33799745 .07521057 .30999757 .029190064 .2669983 .010177612 .22898865 .010177612 .18199158 .010177612 .14199829 .03819275 .11898804 .07720947 .09399414 .12223816 .09098816 .17825318 .09098816 .22227478 .09098816 .2642975 .09298706 .3163147 .11898804 .36134339 .13899231 .3943634 .17799378 .42637635 .22898865 .42637635 .27398683 .42637635 .31199647 .4013672 .33599855 .36634828 .36698915 .31932069 .36698915 .2532959 .36698915 .22227478Z"/>
<path id="font_2_70" d="M.47499085 0V.025985718C.42799378 .025985718 .4169922 .034988405 .3869934 .078948978L.26098634 .26379396C.2599945 .26579286 .25498963 .27178956 .25498963 .27478028L.33499146 .3497162C.3919983 .39768983 .42799378 .40267945 .45399476 .40368653V.4296875C.44799806 .4296875 .44499208 .42868043 .44499208 .42868043L.3959961 .42767335C.36799623 .42767335 .32499696 .42767335 .2979889 .4296875V.40368653C.31199647 .40267945 .32199098 .39468385 .32199098 .38069154 .32199098 .36071778 .30099488 .34173585 .30099488 .34173585L.1499939 .20384217V.69433596L.0309906 .6826172V.6566162C.08999634 .6566162 .09899902 .65060427 .09899902 .6026459V.06896973C.09899902 .0309906 .09498596 .025985718 .0309906 .025985718V0C.054992677 .0019989014 .09899902 .0019989014 .12399292 .0019989014 .14898682 .0019989014 .19299317 .0019989014 .21699524 0V.025985718C.15299988 .025985718 .14898682 .02998352 .14898682 .06896973V.17889405L.21798706 .24186707 .31900025 .09194946C.33099366 .07395935 .34098817 .05996704 .34098817 .04698181 .34098817 .0289917 .32299806 .025985718 .31098939 .025985718V0C.33499146 .0019989014 .37799073 .0019989014 .40299989 .0019989014L.47499085 0Z"/>
<path id="font_2_50" d="M.3849945 .25134278C.3849945 .35336305 .33099366 .4423828 .21699524 .4423828 .11099243 .4423828 .026992798 .34135438 .026992798 .21833802 .026992798 .08824158 .12199402-.0078125 .22799683-.0078125 .33999635-.0078125 .38398744 .09825134 .38398744 .119262699 .38398744 .12626648 .37599183 .12626648 .37599183 .12626648 .36898805 .12626648 .36799623 .12426758 .3639984 .11225891 .34199525 .044204713 .2869873 .010177612 .23498535 .010177612 .19198609 .010177612 .14898682 .034194948 .12199402 .07823181 .09098816 .12927246 .09098816 .18830872 .09098816 .23535156H.3809967C.3849945 .23934937 .3849945 .24134827 .3849945 .25134278M.33099366 .25035096H.09199524C.09899902 .3943634 .17599488 .42637635 .21598816 .42637635 .28399659 .42637635 .32998658 .36236573 .33099366 .25035096Z"/>
<path id="font_2_104" d="M.6389923 .45928956 .621994 .6802826H.04499817L.027999878 .45928956H.04598999C.05899048 .6252899 .07299805 .6542969 .22698975 .6542969 .24499512 .6536865 .27398683 .6536865 .28199769 .65267947 .30099488 .64967349 .30099488 .63768008 .30099488 .6147003V.07296753C.30099488 .036987306 .2979889 .025985718 .21499634 .025985718H.18699646V0L.33399964 .0019989014 .48098756 0V.025985718H.45298768C.36999513 .025985718 .36698915 .036987306 .36698915 .07296753V.6147003C.36698915 .63668826 .36698915 .64868167 .3849945 .65267947 .3929901 .6542969 .42199708 .6542969 .43998719 .6542969 .59298709 .6542969 .60798647 .6252899 .62098696 .45928956H.6389923Z"/>
<path id="font_2_96" d="M.33299256 .3864746C.33299256 .4184723 .30099488 .43847657 .2669983 .43847657 .19099427 .43847657 .1579895 .36447145 .147995 .32946778H.14698792V.43847657L.0309906 .4273529V.4013672C.08999634 .4013672 .09899902 .39535523 .09899902 .3473053V.06903076C.09899902 .0309906 .09498596 .025985718 .0309906 .025985718V0C.054992677 .0019989014 .100997928 .0019989014 .1269989 .0019989014 .1559906 .0019989014 .20698548 .0019989014 .23399353 0V.025985718C.1619873 .026351929 .1499939 .026351929 .1499939 .07136536V.23635865C.1499939 .33236695 .19099427 .4224701 .2659912 .4224701 .272995 .4224701 .27999879 .421463 .2869873 .41844178 .2869873 .41844178 .2649994 .41140748 .2649994 .38536073 .2649994 .36135865 .28399659 .35136415 .29899598 .35136415 .31098939 .35136415 .33299256 .35835267 .33299256 .38635255V.3864746Z"/>
<path id="font_2_109" d="M.48298646 .00018310547V.026184082C.42399598 .026184082 .4149933 .032180787 .4149933 .080215457V.43847657L.2939911 .42747499V.401474C.35299684 .401474 .3619995 .39546205 .3619995 .34742738V.1652832C.3619995 .081222537 .31698609 .008178711 .24299622 .008178711 .16099549 .008178711 .1539917 .0572052 .1539917 .10923767V.43847657L.032989503 .42747499V.401474C.07299805 .401474 .099990848 .401474 .100997928 .36143495V.16929627C.100997928 .10223389 .100997928 .0592041 .1269989 .031188965 .13999939 .018173218 .16499329-.0078125 .23699951-.0078125 .32199098-.0078125 .35499574 .064208988 .36299134 .08522034H.3639984V-.0078125L.48298646 .00018310547Z"/>
<path id="font_2_65" d="M.2809906 0V.025985718C.20899964 .025985718 .19699097 .025985718 .19699097 .07096863V.6116333C.19699097 .6566162 .20899964 .6566162 .2809906 .6566162V.6826172C.24899292 .680603 .19799805 .680603 .1639862 .680603 .12998963 .680603 .07899475 .680603 .04699707 .6826172V.6566162C.11898804 .6566162 .1309967 .6566162 .1309967 .6116333V.07096863C.1309967 .025985718 .11898804 .025985718 .04699707 .025985718V0C.07899475 .0019989014 .12998963 .0019989014 .1639862 .0019989014 .19799805 .0019989014 .24899292 .0019989014 .2809906 0Z"/>
<path id="font_2_66" d="M.21398926 0V.025985718C.15499878 .025985718 .15299988 .03199768 .15299988 .06803894V.43847657L.037994386 .4273529V.4013672C.09399414 .4013672 .101989749 .39535523 .101989749 .3473053V.06903076C.101989749 .0309906 .09799194 .025985718 .033996583 .025985718V0C.057998659 .0019989014 .100997928 .0019989014 .12599182 .0019989014 .1499939 .0019989014 .19099427 .0019989014 .21398926 0M.16499329 .60446169C.16499329 .62846377 .1459961 .64546206 .125 .64546206 .100997928 .64546206 .083999637 .62646487 .083999637 .60446169 .083999637 .58047488 .102996829 .56347659 .12399292 .56347659 .147995 .56347659 .16499329 .58247378 .16499329 .60446169Z"/>
<path id="font_3_95" d="M.7319946 .08753967C.7319946 .09353638 .7319946 .104537967 .71899417 .104537967 .70799258 .104537967 .70799258 .09555054 .70700076 .08854675 .70098879 .017532349 .66600039-.00047302247 .6409912-.00047302247 .59199526-.00047302247 .58399966 .05053711 .56999209 .14355469L.5569916 .22355652C.5389862 .28756715 .48999024 .3205719 .43499757 .3395691 .5319977 .36357118 .6100006 .4245758 .6100006 .502594 .6100006 .5986023 .49598695 .6826172 .34899903 .6826172H.034988405V.6516113H.05899048C.13598633 .6516113 .13798523 .64060977 .13798523 .604599V.077545169C.13798523 .04197693 .13598633 .0309906 .05899048 .0309906H.034988405V0C.070999149 .0029907227 .14199829 .0029907227 .18099976 .0029907227 .21998596 .0029907227 .29100038 .0029907227 .32699586 0V.0309906H.30299378C.22599793 .0309906 .22399903 .04197693 .22399903 .077926639V.3305359H.33898927C.35499574 .3305359 .39698792 .3305359 .43199159 .29658509 .46998597 .26063539 .46998597 .22969055 .46998597 .16279602 .46998597 .09788513 .46998597 .05795288 .5109863 .019989014 .5519867-.016464234 .6069946-.022460938 .6369934-.022460938 .71499636-.022460938 .7319946 .059524537 .7319946 .087524417V.08753967M.5069885 .5025635C.5069885 .43354798 .48298646 .35253907 .33499146 .35253907H.22399903V.6116028C.22399903 .6345978 .22399903 .64660647 .24598694 .6496124 .2559967 .6516113 .2849884 .6516113 .30499269 .6516113 .394989 .6516113 .5069885 .6476135 .5069885 .5025635Z"/>
<path id="font_3_173" d="M.48298646 .08912659V.14511109H.45799256V.08912659C.45799256 .03112793 .43299867 .025131226 .42199708 .025131226 .3889923 .025131226 .3849945 .070129398 .3849945 .07511902V.27508546C.3849945 .31707765 .3849945 .3560791 .34899903 .39312745 .30999757 .43223573 .2599945 .4482422 .21199036 .4482422 .12998963 .4482422 .06098938 .40115357 .06098938 .335083 .06098938 .30508424 .08099365 .28808595 .10699463 .28808595 .1349945 .28808595 .15299988 .30807496 .15299988 .33407594 .15299988 .3460846 .147995 .37908937 .101989749 .38008119 .1289978 .41519166 .17799378 .426239 .20999146 .426239 .25898744 .426239 .31599427 .38710023 .31599427 .29808045V.26107789C.2649994 .25808717 .19499207 .25508119 .13198853 .22509766 .056991579 .19110108 .03199768 .13911438 .03199768 .09512329 .03199768 .014251709 .1289978-.0107421879 .19198609-.0107421879 .2579956-.0107421879 .3039856 .029251099 .32299806 .07624817 .32699586 .036132814 .35398866-.005859375 .40098573-.005859375 .42199708-.005859375 .48298646 .008132935 .48298646 .08912659M.31599427 .14013672C.31599427 .04525757 .24398804 .011245728 .19898987 .011245728 .1499939 .011245728 .10899353 .04624939 .10899353 .09625244 .10899353 .15124512 .15098572 .23425293 .31599427 .24024964V.14013672M.43099977 .5891113V.6201172H.069992069V.5891113H.43099977Z"/>
<path id="font_3_69" d="M.73599246 0V.0309906C.6819916 .0309906 .6609955 .034988405 .6309967 .07896423L.3999939 .41874696 .5799866 .5916443C.58799746 .5996399 .6409912 .65060427 .7220001 .6516113V.6826172C.69599917 .6796112 .6639862 .6796112 .6369934 .6796112 .6009979 .6796112 .5439911 .6796112 .5099945 .6826172V.6516113C.5499878 .65060427 .55599978 .6276245 .55599978 .6186218 .55599978 .6026306 .54599 .5926361 .5379944 .5856476L.22499085 .28683473V.6046295C.22499085 .64060977 .22698975 .6516113 .3039856 .6516113H.32798768V.6826172C.29299928 .6796112 .21899414 .6796112 .18099976 .6796112 .14299011 .6796112 .067993167 .6796112 .032989503 .6826172V.6516113H.056991579C.13398743 .6516113 .13598633 .64060977 .13598633 .6046295V.07795715C.13598633 .041992189 .13398743 .0309906 .056991579 .0309906H.032989503V0C.067993167 .0029907227 .14199829 .0029907227 .17999268 .0029907227 .21798706 .0029907227 .29299928 .0029907227 .32798768 0V.0309906H.3039856C.22698975 .0309906 .22499085 .041992189 .22499085 .07795715V.2528534L.34098817 .3627777 .5219879 .094955448C.5279999 .08595276 .5369873 .07296753 .5369873 .06097412 .5369873 .0309906 .49798585 .0309906 .47799684 .0309906V0C.5130005 .0029907227 .58299258 .0029907227 .62098696 .0029907227L.73599246 0Z"/>
<path id="font_3_66" d="M.24699402 0V.0309906C.18099976 .0309906 .1769867 .035995485 .1769867 .075042728V.4423828L.036987306 .43066407V.3996582C.101989749 .3996582 .11099243 .3936615 .11099243 .3447113V.07595825C.11099243 .0309906 .099990848 .0309906 .032989503 .0309906V0L.14299011 .0029907227C.17799378 .0029907227 .21299744 .0009918213 .24699402 0M.19198609 .603775C.19198609 .6307678 .16899109 .6567688 .13899231 .6567688 .10499573 .6567688 .084991458 .6287689 .084991458 .603775 .084991458 .57676699 .10798645 .55078127 .13798523 .55078127 .17199707 .55078127 .19198609 .5787811 .19198609 .603775Z"/>
<path id="font_3_77" d="M.5349884 0V.0309906C.48298646 .0309906 .45799256 .0309906 .45700074 .061019899V.25221253C.45700074 .3383026 .45700074 .36932374 .42599488 .405365 .4119873 .42237855 .3789978 .4423828 .32099916 .4423828 .24798584 .4423828 .20098877 .39935304 .17298889 .33729554V.4423828L.03199768 .43066407V.3996582C.101989749 .3996582 .10998535 .39266969 .10998535 .34370423V.07595825C.10998535 .0309906 .09899902 .0309906 .03199768 .0309906V0L.14498902 .0029907227 .25698854 0V.0309906C.18998719 .0309906 .1789856 .0309906 .1789856 .07595825V.25978089C.1789856 .36431886 .25 .42037965 .31399537 .42037965 .3769989 .42037965 .3880005 .36631776 .3880005 .30926515V.076034549C.3880005 .0309906 .3769989 .0309906 .30999757 .0309906V0L.4229889 .0029907227 .5349884 0Z"/>
<path id="font_3_28" d="M.48298646 .08912659V.14511109H.45799256V.08912659C.45799256 .03112793 .43299867 .025131226 .42199708 .025131226 .3889923 .025131226 .3849945 .070129398 .3849945 .07511902V.27508546C.3849945 .31707765 .3849945 .3560791 .34899903 .39312745 .30999757 .43223573 .2599945 .4482422 .21199036 .4482422 .12998963 .4482422 .06098938 .40115357 .06098938 .335083 .06098938 .30508424 .08099365 .28808595 .10699463 .28808595 .1349945 .28808595 .15299988 .30807496 .15299988 .33407594 .15299988 .3460846 .147995 .37908937 .101989749 .38008119 .1289978 .41519166 .17799378 .426239 .20999146 .426239 .25898744 .426239 .31599427 .38710023 .31599427 .29808045V.26107789C.2649994 .25808717 .19499207 .25508119 .13198853 .22509766 .056991579 .19110108 .03199768 .13911438 .03199768 .09512329 .03199768 .014251709 .1289978-.0107421879 .19198609-.0107421879 .2579956-.0107421879 .3039856 .029251099 .32299806 .07624817 .32699586 .036132814 .35398866-.005859375 .40098573-.005859375 .42199708-.005859375 .48298646 .008132935 .48298646 .08912659M.31599427 .14013672C.31599427 .04525757 .24398804 .011245728 .19898987 .011245728 .1499939 .011245728 .10899353 .04624939 .10899353 .09625244 .10899353 .15124512 .15098572 .23425293 .31599427 .24024964V.14013672Z"/>
<path id="font_3_76" d="M.71598818 .6516113V.6826172L.598999 .6796112 .48199464 .6826172V.6516113C.58499148 .6516113 .58499148 .6046295 .58499148 .577652V.15092469L.23199463 .6696167C.22299195 .6816101 .22200012 .6826172 .20298767 .6826172H.032989503V.6516113H.06199646C.07699585 .6516113 .09700012 .65060427 .11199951 .6496124 .1349945 .64660647 .13598633 .6456146 .13598633 .62661746V.10494995C.13598633 .07795715 .13598633 .0309906 .032989503 .0309906V0L.1499939 .0029907227 .2669983 0V.0309906C.1639862 .0309906 .1639862 .07795715 .1639862 .10494995V.62461856C.16899109 .6196289 .16999817 .6186218 .17399597 .6126251L.58200076 .0129852299C.59098818 .0009918213 .59199526 0 .598999 0 .61299136 0 .61299136 .0069885256 .61299136 .025985718V.577652C.61299136 .6046295 .61299136 .6516113 .71598818 .6516113Z"/>
<path id="font_3_59" d="M.4850006 .40411378C.4850006 .42111207 .47299195 .453125 .43399049 .453125 .4139862 .453125 .36999513 .44711305 .32798768 .40611268 .28599549 .43937684 .24398804 .4423828 .22200012 .4423828 .1289978 .4423828 .05999756 .37338258 .05999756 .29638673 .05999756 .25239564 .08198547 .21440125 .10699463 .19340515 .09399414 .17840576 .07598877 .14538574 .07598877 .11035156 .07598877 .07899475 .08898926 .04083252 .11999512 .020828248 .05999756 .003829956 .027999878-.039138795 .027999878-.07911682 .027999878-.15107727 .1269989-.20605469 .24899292-.20605469 .36698915-.20605469 .47099305-.15507508 .47099305-.07711792 .47099305-.042144777 .45700074 .008834839 .4059906 .036834718 .35299684 .064834598 .29499818 .064834598 .23399353 .064834598 .20899964 .064834598 .1659851 .064834598 .15899658 .065841678 .1269989 .069885257 .10598755 .101242069 .10598755 .13334656 .10598755 .13735962 .10598755 .16040039 .12298584 .18040467 .1619873 .15240479 .20298767 .14941406 .22200012 .14941406 .31498719 .14941406 .38398744 .21839905 .38398744 .2953949 .38398744 .3323822 .36799623 .36938478 .34298707 .39237977 .3789978 .42637635 .4149933 .43138124 .43299867 .43138124 .43299867 .43112184 .43998719 .43112184 .44299317 .43011476 .43199159 .42611695 .4269867 .41513063 .4269867 .40315248 .4269867 .38616944 .43998719 .37417604 .45599366 .37417604 .46598817 .37417604 .4850006 .3811798 .4850006 .4041443V.40411378M.30899049 .29626466C.30899049 .26930238 .30799867 .2373352 .29299928 .21235657 .2849884 .20037842 .2619934 .17240906 .22200012 .17240906 .1349945 .17240906 .1349945 .2722931 .1349945 .29527284 .1349945 .3222351 .13598633 .35420228 .15098572 .3791809 .15899658 .3913269 .18199158 .41937257 .22200012 .41937257 .30899049 .41937257 .30899049 .31922914 .30899049 .29618836V.29626466M.4189911-.07911682C.4189911-.13308716 .34799195-.18305969 .25-.18305969 .14898682-.18305969 .07998657-.13209534 .07998657-.07911682 .07998657-.03314209 .117996219 .003829956 .1619873 .0068359377H.22099304C.30699159 .0068359377 .4189911 .0068359377 .4189911-.07911682Z"/>
<path id="font_3_81" d="M.47099305 .21424866C.47099305 .34223939 .37098695 .4482422 .25 .4482422 .125 .4482422 .027999878 .3392334 .027999878 .21424866 .027999878 .085250858 .13198853-.0107421879 .24899292-.0107421879 .36999513-.0107421879 .47099305 .087249759 .47099305 .21424866M.3880005 .22224427C.3880005 .18624878 .3880005 .13224793 .3659973 .08824158 .34399415 .04324341 .2999878 .014251709 .25 .014251709 .20698548 .014251709 .16299439 .035247804 .13598633 .08125305 .11099243 .12524414 .11099243 .18624878 .11099243 .22224427 .11099243 .26124574 .11099243 .31523133 .1349945 .35923768 .1619873 .40522767 .20899964 .426239 .24899292 .426239 .29299928 .426239 .33599855 .40423585 .3619995 .36123658 .3880005 .3182373 .3880005 .26023866 .3880005 .22224427Z"/>
<path id="font_3_74" d="M.8789978 0V.0309906H.8549957C.7779999 .0309906 .776001 .041992189 .776001 .07795715V.6046295C.776001 .64060977 .7779999 .6516113 .8549957 .6516113H.8789978V.6826172H.70999148C.6839905 .6826172 .6839905 .6816101 .6769867 .66360476L.45799256 .10095215 .24099732 .660614C.23199463 .6826172 .22898865 .6826172 .20599365 .6826172H.036987306V.6516113H.06098938C.13798523 .6516113 .13999939 .64060977 .13999939 .6046295V.10494995C.13999939 .07795715 .13999939 .0309906 .036987306 .0309906V0L.1539917 .0029907227 .2709961 0V.0309906C.16799927 .0309906 .16799927 .07795715 .16799927 .10494995V.6436157H.16899109L.4099884 .021987915C.4149933 .008987427 .41999818 0 .42999269 0 .44099427 0 .44400025 .0079956059 .44799806 .018997193L.69400027 .6516113H.69499209V.07795715C.69499209 .041992189 .69299319 .0309906 .6159973 .0309906H.59199526V0C.6289978 .0029907227 .69699099 .0029907227 .73599246 .0029907227 .7749939 .0029907227 .84199526 .0029907227 .8789978 0Z"/>
<path id="font_3_109" d="M.5349884 0V.0309906C.46499635 .0309906 .45700074 .037994386 .45700074 .08705139V.4423828L.30999757 .43066407V.3996582C.37998963 .3996582 .3880005 .39266969 .3880005 .34373475V.16601563C.3880005 .07910156 .33999635 .011245728 .2669983 .011245728 .18299866 .011245728 .1789856 .058135988 .1789856 .11009216V.4423828L.03199768 .43066407V.3996582C.10998535 .3996582 .10998535 .39666749 .10998535 .3078003V.15802002C.10998535 .080093387 .10998535-.0107421879 .2619934-.0107421879 .31799317-.0107421879 .3619995 .017242432 .3909912 .07910156V-.0107421879L.5349884 0Z"/>
<path id="font_3_50" d="M.4149933 .11933899C.4149933 .12934876 .40699769 .13134766 .4019928 .13134766 .3929901 .13134766 .3909912 .12535095 .3889923 .11734009 .35398866 .014251709 .2639923 .014251709 .2539978 .014251709 .20399475 .014251709 .1639862 .044281007 .14099121 .08131409 .11099243 .12934876 .11099243 .19540406 .11099243 .23144531H.3899994C.4119873 .23144531 .4149933 .23144531 .4149933 .2524414 .4149933 .35131837 .36099244 .4482422 .23599243 .4482422 .11999512 .4482422 .027999878 .34532167 .027999878 .22042847 .027999878 .08631897 .1329956-.0107421879 .24798584-.0107421879 .36999513-.0107421879 .4149933 .10032654 .4149933 .11933899M.34899903 .2524414H.11199951C.117996219 .40126039 .20199585 .426239 .23599243 .426239 .33898927 .426239 .34899903 .2913971 .34899903 .2524414Z"/>
<path id="font_3_62" d="M.71598818 0V.0309906H.69200137C.61499026 .0309906 .61299136 .041992189 .61299136 .07797241V.6046448C.61299136 .640625 .61499026 .6516113 .69200137 .6516113H.71598818V.6826172C.68099978 .6796112 .6069946 .6796112 .56900027 .6796112 .5309906 .6796112 .45599366 .6796112 .42099 .6826172V.6516113H.44499208C.5219879 .6516113 .5239868 .640625 .5239868 .6046448V.37083436H.22499085V.6046448C.22499085 .640625 .22698975 .6516113 .3039856 .6516113H.32798768V.6826172C.29299928 .6796112 .21899414 .6796112 .18099976 .6796112 .14299011 .6796112 .067993167 .6796112 .032989503 .6826172V.6516113H.056991579C.13398743 .6516113 .13598633 .640625 .13598633 .6046448V.07797241C.13598633 .041992189 .13398743 .0309906 .056991579 .0309906H.032989503V0C.067993167 .0029907227 .14199829 .0029907227 .17999268 .0029907227 .21798706 .0029907227 .29299928 .0029907227 .32798768 0V.0309906H.3039856C.22698975 .0309906 .22499085 .041992189 .22499085 .07797241V.33984376H.5239868V.07797241C.5239868 .041992189 .5219879 .0309906 .44499208 .0309906H.42099V0C.45599366 .0029907227 .5299988 .0029907227 .56799319 .0029907227 .60598757 .0029907227 .68099978 .0029907227 .71598818 0Z"/>
<path id="font_3_70" d="M.5109863 0V.0309906C.47399903 .0309906 .45199586 .0309906 .4139862 .0839386L.2869873 .26278688C.28599549 .26478578 .2809906 .2707672 .2809906 .2737732 .2809906 .277771 .35198976 .33770753 .3619995 .34570313 .4249878 .39666749 .46699525 .39865113 .48799134 .3996582V.43066407C.45899964 .42765809 .44599916 .42765809 .41799928 .42765809 .38198854 .42765809 .31999208 .42965699 .30599977 .43066407V.3996582C.32499696 .39865113 .33499146 .3876648 .33499146 .37467958 .33499146 .3547058 .32099916 .3427124 .31298829 .33570863L.17199707 .21382141V.69433596L.027999878 .6826172V.6516113C.09799194 .6516113 .10598755 .64460757 .10598755 .5956421V.07595825C.10598755 .0309906 .09498596 .0309906 .027999878 .0309906V0L.13699341 .0029907227 .24699402 0V.0309906C.17999268 .0309906 .16899109 .0309906 .16899109 .07595825V.17889405L.23298645 .23387146C.30999757 .12792969 .35198976 .07196045 .35198976 .053985597 .35198976 .034988405 .33499146 .0309906 .31599427 .0309906V0L.42399598 .0029907227C.45298768 .0029907227 .48199464 .0019989014 .5109863 0Z"/>
</defs>
<use data-text="E" xlink:href="#font_1_49" transform="matrix(14.34706,0,0,-14.3462,368.2552,191.89499)"/>
<use data-text="N" xlink:href="#font_1_76" transform="matrix(14.34706,0,0,-14.3462,186.68628,10.716995)"/>
<use data-text="W" xlink:href="#font_1_113" transform="matrix(14.34706,0,0,-14.3462,1.2151489,191.759)"/>
<use data-text="S" xlink:href="#font_1_97" transform="matrix(14.34706,0,0,-14.3462,188.04936,373.403)"/>
<path transform="matrix(1.00006,0,0,-1,191.9516,187.01)" stroke-width=".79701" stroke-linecap="round" stroke-miterlimit="10" stroke-linejoin="miter" fill="none" stroke="#000000" d="M150.23822 0C150.23822 82.97534 82.97534 150.23822 0 150.23822-82.97534 150.23822-150.23822 82.97534-150.23822 0-150.23822-82.97534-82.97534-150.23822 0-150.23822 82.97534-150.23822 150.23822-82.97534 150.23822 0ZM0 0"/>
<path transform="matrix(1.00006,0,0,-1,191.9516,187.01)" stroke-width=".79701" stroke-linecap="round" stroke-miterlimit="10" stroke-linejoin="miter" fill="none" stroke="#000000" d="M165.26297 0C165.26297 91.27339 91.27339 165.26297 0 165.26297-91.27339 165.26297-165.26297 91.27339-165.26297 0-165.26297-91.27339-91.27339-165.26297 0-165.26297 91.27339-165.26297 165.26297-91.27339 165.26297 0ZM0 0"/>
<path transform="matrix(1.00006,0,0,-1,191.9516,187.01)" stroke-width=".3985" stroke-linecap="round" stroke-miterlimit="10" stroke-linejoin="miter" fill="none" stroke="#000000" d="M147.2328 0"/>
<use data-text="I" xlink:href="#font_1_65" transform="matrix(11.955917,0,0,-11.9552,292.0456,191.153)"/>
<use data-text="T" xlink:href="#font_1_104" transform="matrix(11.955917,0,0,-11.9552,296.26603,191.153)"/>
<use data-text="I" xlink:href="#font_1_65" transform="matrix(11.955917,0,0,-11.9552,304.71888,191.153)"/>
<use data-text="N" xlink:href="#font_1_76" transform="matrix(11.955917,0,0,-11.9552,308.9393,191.153)"/>
<use data-text="G" xlink:href="#font_1_58" transform="matrix(11.955917,0,0,-11.9552,317.71498,191.153)"/>
<use data-text="A" xlink:href="#font_1_27" transform="matrix(11.955917,0,0,-11.9552,326.8971,191.153)"/>
<path transform="matrix(1.00006,0,0,-1,191.9516,187.01)" stroke-width=".3985" stroke-linecap="round" stroke-miterlimit="10" stroke-linejoin="miter" fill="none" stroke="#000000" d="M0 147.2328"/>
<use data-text="A" xlink:href="#font_1_27" transform="matrix(0,-11.9552,-11.955917,-0,196.09485,95.79199)"/>
<use data-text="K" xlink:href="#font_1_69" transform="matrix(0,-11.9552,-11.955917,-0,196.09485,87.01688)"/>
<use data-text="A" xlink:href="#font_1_27" transform="matrix(0,-11.9552,-11.955917,-0,196.09485,77.918979)"/>
<use data-text="R" xlink:href="#font_1_95" transform="matrix(0,-11.9552,-11.955917,-0,196.09485,69.14386)"/>
<use data-text="U" xlink:href="#font_1_108" transform="matrix(0,-11.9552,-11.955917,-0,196.09485,60.83499)"/>
<use data-text="A" xlink:href="#font_1_27" transform="matrix(0,-11.9552,-11.955917,-0,196.09485,52.059877)"/>
<path transform="matrix(1.00006,0,0,-1,191.9516,187.01)" stroke-width=".3985" stroke-linecap="round" stroke-miterlimit="10" stroke-linejoin="miter" fill="none" stroke="#000000" d="M-147.2328 0"/>
<use data-text="O" xlink:href="#font_1_80" transform="matrix(11.955917,0,0,-11.9552,48.22998,191.153)"/>
<use data-text="P" xlink:href="#font_1_83" transform="matrix(11.955917,0,0,-11.9552,57.340394,191.153)"/>
<use data-text="U" xlink:href="#font_1_108" transform="matrix(11.955917,0,0,-11.9552,65.30304,191.153)"/>
<use data-text="N" xlink:href="#font_1_76" transform="matrix(11.955917,0,0,-11.9552,74.078678,191.153)"/>
<use data-text="G" xlink:href="#font_1_58" transform="matrix(11.955917,0,0,-11.9552,82.85431,191.153)"/>
<use data-text="A" xlink:href="#font_1_27" transform="matrix(11.955917,0,0,-11.9552,92.03644,191.153)"/>
<path transform="matrix(1.00006,0,0,-1,191.9516,187.01)" stroke-width=".3985" stroke-linecap="round" stroke-miterlimit="10" stroke-linejoin="miter" fill="none" stroke="#000000" d="M0-147.2328"/>
<use data-text="T" xlink:href="#font_1_104" transform="matrix(0,11.9552,11.955917,0,187.80837,286.428)"/>
<use data-text="O" xlink:href="#font_1_80" transform="matrix(0,11.9552,11.955917,0,187.80837,294.88035)"/>
<use data-text="N" xlink:href="#font_1_76" transform="matrix(0,11.9552,11.955917,0,187.80837,303.9902)"/>
<use data-text="G" xlink:href="#font_1_58" transform="matrix(0,11.9552,11.955917,0,187.80837,312.76533)"/>
<use data-text="A" xlink:href="#font_1_27" transform="matrix(0,11.9552,11.955917,0,187.80837,321.9469)"/>
<path transform="matrix(1.00006,0,0,-1,191.9516,187.01)" stroke-width=".3985" stroke-linecap="round" stroke-miterlimit="10" stroke-linejoin="miter" fill="none" stroke="#000000" d="M132.79265 132.79265"/>
<use data-text="M" xlink:href="#font_2_74" transform="matrix(14.611329,14.610454,14.611329,-14.610454,297.1506,36.64081)"/>
<use data-text="a" xlink:href="#font_2_28" transform="matrix(14.611329,14.610454,14.611329,-14.610454,309.57026,49.059694)"/>
<use data-text="o" xlink:href="#font_2_81" transform="matrix(14.611329,14.610454,14.611329,-14.610454,316.27687,55.7659)"/>
<use data-text="a" xlink:href="#font_2_28" transform="matrix(14.611329,14.610454,14.611329,-14.610454,322.98347,62.472108)"/>
<use data-text="k" xlink:href="#font_2_70" transform="matrix(14.611329,14.610454,14.611329,-14.610454,329.69007,69.178318)"/>
<use data-text="e" xlink:href="#font_2_50" transform="matrix(14.611329,14.610454,14.611329,-14.610454,336.41127,75.89911)"/>
<path transform="matrix(1.00006,0,0,-1,191.9516,187.01)" stroke-width=".3985" stroke-linecap="round" stroke-miterlimit="10" stroke-linejoin="miter" fill="none" stroke="#000000" d="M-132.79265 132.79265"/>
<use data-text="T" xlink:href="#font_2_104" transform="matrix(14.611329,-14.610454,-14.611329,-14.610454,40.506319,82.88329)"/>
<use data-text="o" xlink:href="#font_2_81" transform="matrix(14.611329,-14.610454,-14.611329,-14.610454,49.141633,74.2485)"/>
<use data-text="k" xlink:href="#font_2_70" transform="matrix(14.611329,-14.610454,-14.611329,-14.610454,55.848237,67.54229)"/>
<use data-text="e" xlink:href="#font_2_50" transform="matrix(14.611329,-14.610454,-14.611329,-14.610454,62.55481,60.836114)"/>
<use data-text="r" xlink:href="#font_2_96" transform="matrix(14.611329,-14.610454,-14.611329,-14.610454,68.48703,54.90426)"/>
<use data-text="a" xlink:href="#font_2_28" transform="matrix(14.611329,-14.610454,-14.611329,-14.610454,73.659427,49.73217)"/>
<use data-text="u" xlink:href="#font_2_109" transform="matrix(14.611329,-14.610454,-14.611329,-14.610454,80.36603,43.025964)"/>
<path transform="matrix(1.00006,0,0,-1,191.9516,187.01)" stroke-width=".3985" stroke-linecap="round" stroke-miterlimit="10" stroke-linejoin="miter" fill="none" stroke="#000000" d="M-132.79265-132.79265"/>
<use data-text="I" xlink:href="#font_2_65" transform="matrix(14.611329,14.610454,14.611329,-14.610454,44.465456,315.1418)"/>
<use data-text="k" xlink:href="#font_2_70" transform="matrix(14.611329,14.610454,14.611329,-14.610454,49.25798,319.93406)"/>
<use data-text="u" xlink:href="#font_2_109" transform="matrix(14.611329,14.610454,14.611329,-14.610454,56.344469,327.02015)"/>
<path transform="matrix(1.00006,0,0,-1,191.9516,187.01)" stroke-width=".3985" stroke-linecap="round" stroke-miterlimit="10" stroke-linejoin="miter" fill="none" stroke="#000000" d="M132.79265-132.79265"/>
<use data-text="M" xlink:href="#font_2_74" transform="matrix(14.611329,-14.610454,-14.611329,-14.610454,315.32783,339.0883)"/>
<use data-text="u" xlink:href="#font_2_109" transform="matrix(14.611329,-14.610454,-14.611329,-14.610454,327.74745,326.6694)"/>
<use data-text="r" xlink:href="#font_2_96" transform="matrix(14.611329,-14.610454,-14.611329,-14.610454,335.21385,319.2035)"/>
<use data-text="i" xlink:href="#font_2_66" transform="matrix(14.611329,-14.610454,-14.611329,-14.610454,340.38624,314.03138)"/>
<path transform="matrix(1.00006,0,0,-1,191.9516,187.01)" stroke-width=".3985" stroke-linecap="round" stroke-miterlimit="10" stroke-linejoin="miter" fill="none" stroke="#929292" d="M164.45832 16.19617 149.50691 14.72441"/>
<path transform="matrix(1.00006,0,0,-1,191.9516,187.01)" stroke-width=".3985" stroke-linecap="round" stroke-miterlimit="10" stroke-linejoin="miter" fill="none" stroke="#929292" d="M158.1403 47.96957 143.76433 43.60933"/>
<path transform="matrix(1.00006,0,0,-1,191.9516,187.01)" stroke-width=".3985" stroke-linecap="round" stroke-miterlimit="10" stroke-linejoin="miter" fill="none" stroke="#929292" d="M145.74044 77.89986 132.49234 70.81845"/>
<path transform="matrix(1.00006,0,0,-1,191.9516,187.01)" stroke-width=".3985" stroke-linecap="round" stroke-miterlimit="10" stroke-linejoin="miter" fill="none" stroke="#929292" d="M127.74237 104.83388 116.1288 95.30415"/>
<path transform="matrix(1.00006,0,0,-1,191.9516,187.01)" stroke-width=".3985" stroke-linecap="round" stroke-miterlimit="10" stroke-linejoin="miter" fill="none" stroke="#929292" d="M104.83388 127.74237 95.30415 116.1288"/>
<path transform="matrix(1.00006,0,0,-1,191.9516,187.01)" stroke-width=".3985" stroke-linecap="round" stroke-miterlimit="10" stroke-linejoin="miter" fill="none" stroke="#929292" d="M77.89986 145.74044 70.81845 132.49234"/>
<path transform="matrix(1.00006,0,0,-1,191.9516,187.01)" stroke-width=".3985" stroke-linecap="round" stroke-miterlimit="10" stroke-linejoin="miter" fill="none" stroke="#929292" d="M47.96957 158.1403 43.60933 143.76433"/>
<path transform="matrix(1.00006,0,0,-1,191.9516,187.01)" stroke-width=".3985" stroke-linecap="round" stroke-miterlimit="10" stroke-linejoin="miter" fill="none" stroke="#929292" d="M16.19617 164.45832 14.72441 149.50691"/>
<path transform="matrix(1.00006,0,0,-1,191.9516,187.01)" stroke-width=".3985" stroke-linecap="round" stroke-miterlimit="10" stroke-linejoin="miter" fill="none" stroke="#929292" d="M-16.19617 164.45832-14.72441 149.50691"/>
<path transform="matrix(1.00006,0,0,-1,191.9516,187.01)" stroke-width=".3985" stroke-linecap="round" stroke-miterlimit="10" stroke-linejoin="miter" fill="none" stroke="#929292" d="M-47.96957 158.1403-43.60933 143.76433"/>
<path transform="matrix(1.00006,0,0,-1,191.9516,187.01)" stroke-width=".3985" stroke-linecap="round" stroke-miterlimit="10" stroke-linejoin="miter" fill="none" stroke="#929292" d="M-77.89986 145.74044-70.81845 132.49234"/>
<path transform="matrix(1.00006,0,0,-1,191.9516,187.01)" stroke-width=".3985" stroke-linecap="round" stroke-miterlimit="10" stroke-linejoin="miter" fill="none" stroke="#929292" d="M-104.83388 127.74237-95.30415 116.1288"/>
<path transform="matrix(1.00006,0,0,-1,191.9516,187.01)" stroke-width=".3985" stroke-linecap="round" stroke-miterlimit="10" stroke-linejoin="miter" fill="none" stroke="#929292" d="M-127.74237 104.83388-116.1288 95.30415"/>
<path transform="matrix(1.00006,0,0,-1,191.9516,187.01)" stroke-width=".3985" stroke-linecap="round" stroke-miterlimit="10" stroke-linejoin="miter" fill="none" stroke="#929292" d="M-145.74044 77.89986-132.49234 70.81845"/>
<path transform="matrix(1.00006,0,0,-1,191.9516,187.01)" stroke-width=".3985" stroke-linecap="round" stroke-miterlimit="10" stroke-linejoin="miter" fill="none" stroke="#929292" d="M-158.1403 47.96957-143.76433 43.60933"/>
<path transform="matrix(1.00006,0,0,-1,191.9516,187.01)" stroke-width=".3985" stroke-linecap="round" stroke-miterlimit="10" stroke-linejoin="miter" fill="none" stroke="#929292" d="M-164.45832 16.19617-149.50691 14.72441"/>
<path transform="matrix(1.00006,0,0,-1,191.9516,187.01)" stroke-width=".3985" stroke-linecap="round" stroke-miterlimit="10" stroke-linejoin="miter" fill="none" stroke="#929292" d="M-164.45832-16.19617-149.50691-14.72441"/>
<path transform="matrix(1.00006,0,0,-1,191.9516,187.01)" stroke-width=".3985" stroke-linecap="round" stroke-miterlimit="10" stroke-linejoin="miter" fill="none" stroke="#929292" d="M-158.1403-47.96957-143.76433-43.60933"/>
<path transform="matrix(1.00006,0,0,-1,191.9516,187.01)" stroke-width=".3985" stroke-linecap="round" stroke-miterlimit="10" stroke-linejoin="miter" fill="none" stroke="#929292" d="M-145.74044-77.89986-132.49234-70.81845"/>
<path transform="matrix(1.00006,0,0,-1,191.9516,187.01)" stroke-width=".3985" stroke-linecap="round" stroke-miterlimit="10" stroke-linejoin="miter" fill="none" stroke="#929292" d="M-127.74237-104.83388-116.1288-95.30415"/>
<path transform="matrix(1.00006,0,0,-1,191.9516,187.01)" stroke-width=".3985" stroke-linecap="round" stroke-miterlimit="10" stroke-linejoin="miter" fill="none" stroke="#929292" d="M-104.83388-127.74237-95.30415-116.1288"/>
<path transform="matrix(1.00006,0,0,-1,191.9516,187.01)" stroke-width=".3985" stroke-linecap="round" stroke-miterlimit="10" stroke-linejoin="miter" fill="none" stroke="#929292" d="M-77.89986-145.74044-70.81845-132.49234"/>
<path transform="matrix(1.00006,0,0,-1,191.9516,187.01)" stroke-width=".3985" stroke-linecap="round" stroke-miterlimit="10" stroke-linejoin="miter" fill="none" stroke="#929292" d="M-47.96957-158.1403-43.60933-143.76433"/>
<path transform="matrix(1.00006,0,0,-1,191.9516,187.01)" stroke-width=".3985" stroke-linecap="round" stroke-miterlimit="10" stroke-linejoin="miter" fill="none" stroke="#929292" d="M-16.19617-164.45832-14.72441-149.50691"/>
<path transform="matrix(1.00006,0,0,-1,191.9516,187.01)" stroke-width=".3985" stroke-linecap="round" stroke-miterlimit="10" stroke-linejoin="miter" fill="none" stroke="#929292" d="M16.19617-164.45832 14.72441-149.50691"/>
<path transform="matrix(1.00006,0,0,-1,191.9516,187.01)" stroke-width=".3985" stroke-linecap="round" stroke-miterlimit="10" stroke-linejoin="miter" fill="none" stroke="#929292" d="M47.96957-158.1403 43.60933-143.76433"/>
<path transform="matrix(1.00006,0,0,-1,191.9516,187.01)" stroke-width=".3985" stroke-linecap="round" stroke-miterlimit="10" stroke-linejoin="miter" fill="none" stroke="#929292" d="M77.89986-145.74044 70.81845-132.49234"/>
<path transform="matrix(1.00006,0,0,-1,191.9516,187.01)" stroke-width=".3985" stroke-linecap="round" stroke-miterlimit="10" stroke-linejoin="miter" fill="none" stroke="#929292" d="M104.83388-127.74237 95.30415-116.1288"/>
<path transform="matrix(1.00006,0,0,-1,191.9516,187.01)" stroke-width=".3985" stroke-linecap="round" stroke-miterlimit="10" stroke-linejoin="miter" fill="none" stroke="#929292" d="M127.74237-104.83388 116.1288-95.30415"/>
<path transform="matrix(1.00006,0,0,-1,191.9516,187.01)" stroke-width=".3985" stroke-linecap="round" stroke-miterlimit="10" stroke-linejoin="miter" fill="none" stroke="#929292" d="M145.74044-77.89986 132.49234-70.81845"/>
<path transform="matrix(1.00006,0,0,-1,191.9516,187.01)" stroke-width=".3985" stroke-linecap="round" stroke-miterlimit="10" stroke-linejoin="miter" fill="none" stroke="#929292" d="M158.1403-47.96957 143.76433-43.60933"/>
<path transform="matrix(1.00006,0,0,-1,191.9516,187.01)" stroke-width=".3985" stroke-linecap="round" stroke-miterlimit="10" stroke-linejoin="miter" fill="none" stroke="#929292" d="M164.45832-16.19617 149.50691-14.72441"/>
<path transform="matrix(1.00006,0,0,-1,191.9516,187.01)" stroke-width=".3985" stroke-linecap="round" stroke-miterlimit="10" stroke-linejoin="miter" fill="none" stroke="#000000" d="M144.39934 28.71985"/>
<use data-text="R" xlink:href="#font_3_95" transform="matrix(9.771505,-1.9434043,-1.9435209,-9.770919,321.47224,164.6081)"/>
<use data-text="&#x0101;" xlink:href="#font_3_173" transform="matrix(9.771505,-1.9434043,-1.9435209,-9.770919,328.66407,163.17777)"/>
<path transform="matrix(1.00006,0,0,-1,191.9516,187.01)" stroke-width=".3985" stroke-linecap="round" stroke-miterlimit="10" stroke-linejoin="miter" fill="none" stroke="#000000" d="M136.01813 56.33932"/>
<use data-text="K" xlink:href="#font_3_69" transform="matrix(9.2044,-3.8122886,-3.8125172,-9.203848,301.96476,145.06836)"/>
<use data-text="&#x0101;" xlink:href="#font_3_173" transform="matrix(9.2044,-3.8122886,-3.8125172,-9.203848,309.12583,142.1024)"/>
<use data-text="i" xlink:href="#font_3_66" transform="matrix(9.2044,-3.8122886,-3.8125172,-9.203848,313.728,140.19626)"/>
<use data-text="n" xlink:href="#font_3_77" transform="matrix(9.2044,-3.8122886,-3.8125172,-9.203848,316.28684,139.13645)"/>
<use data-text="a" xlink:href="#font_3_28" transform="matrix(9.2044,-3.8122886,-3.8125172,-9.203848,321.40446,137.01682)"/>
<path transform="matrix(1.00006,0,0,-1,191.9516,187.01)" stroke-width=".3985" stroke-linecap="round" stroke-miterlimit="10" stroke-linejoin="miter" fill="none" stroke="#000000" d="M122.41241 81.79243"/>
<use data-text="N" xlink:href="#font_3_76" transform="matrix(8.2838,-5.534623,-5.534955,-8.283303,291.8236,123.140048)"/>
<use data-text="g" xlink:href="#font_3_59" transform="matrix(8.2838,-5.534623,-5.534955,-8.283303,298.03648,118.989078)"/>
<use data-text="o" xlink:href="#font_3_81" transform="matrix(8.2838,-5.534623,-5.534955,-8.283303,302.17839,116.22177)"/>
<use data-text="i" xlink:href="#font_3_66" transform="matrix(8.2838,-5.534623,-5.534955,-8.283303,306.32026,113.45447)"/>
<use data-text="o" xlink:href="#font_3_81" transform="matrix(8.2838,-5.534623,-5.534955,-8.283303,308.62315,111.91585)"/>
<path transform="matrix(1.00006,0,0,-1,191.9516,187.01)" stroke-width=".3985" stroke-linecap="round" stroke-miterlimit="10" stroke-linejoin="miter" fill="none" stroke="#000000" d="M104.10716 104.10716"/>
<use data-text="M" xlink:href="#font_3_74" transform="matrix(7.044976,-7.044554,-7.044976,-7.044554,278.3236,105.3773)"/>
<use data-text="a" xlink:href="#font_3_28" transform="matrix(7.044976,-7.044554,-7.044976,-7.044554,284.78385,98.91743)"/>
<use data-text="n" xlink:href="#font_3_77" transform="matrix(7.044976,-7.044554,-7.044976,-7.044554,288.30635,95.395168)"/>
<use data-text="u" xlink:href="#font_3_109" transform="matrix(7.044976,-7.044554,-7.044976,-7.044554,292.03315,91.66857)"/>
<path transform="matrix(1.00006,0,0,-1,191.9516,187.01)" stroke-width=".3985" stroke-linecap="round" stroke-miterlimit="10" stroke-linejoin="miter" fill="none" stroke="#000000" d="M81.79243 122.41241"/>
<use data-text="N" xlink:href="#font_3_76" transform="matrix(5.534955,-8.283303,-8.2838,-5.534623,248.01453,107.38707)"/>
<use data-text="g" xlink:href="#font_3_59" transform="matrix(5.534955,-8.283303,-8.2838,-5.534623,252.16574,101.17461)"/>
<use data-text="&#x0101;" xlink:href="#font_3_173" transform="matrix(5.534955,-8.283303,-8.2838,-5.534623,254.93323,97.03294)"/>
<use data-text="R" xlink:href="#font_3_95" transform="matrix(5.534955,-8.283303,-8.2838,-5.534623,259.54383,90.13298)"/>
<use data-text="a" xlink:href="#font_3_28" transform="matrix(5.534955,-8.283303,-8.2838,-5.534623,263.61756,84.03645)"/>
<use data-text="n" xlink:href="#font_3_77" transform="matrix(5.534955,-8.283303,-8.2838,-5.534623,266.385,79.89482)"/>
<use data-text="g" xlink:href="#font_3_59" transform="matrix(5.534955,-8.283303,-8.2838,-5.534623,269.46247,75.28929)"/>
<use data-text="i" xlink:href="#font_3_66" transform="matrix(5.534955,-8.283303,-8.2838,-5.534623,272.22996,71.14763)"/>
<path transform="matrix(1.00006,0,0,-1,191.9516,187.01)" stroke-width=".3985" stroke-linecap="round" stroke-miterlimit="10" stroke-linejoin="miter" fill="none" stroke="#000000" d="M56.33932 136.01813"/>
<use data-text="N" xlink:href="#font_3_76" transform="matrix(3.8125172,-9.203848,-9.2044,-3.8122886,234.79627,89.78705)"/>
<use data-text="g" xlink:href="#font_3_59" transform="matrix(3.8125172,-9.203848,-9.2044,-3.8122886,237.65564,82.884189)"/>
<use data-text="&#x0101;" xlink:href="#font_3_173" transform="matrix(3.8125172,-9.203848,-9.2044,-3.8122886,239.56189,78.28226)"/>
<use data-text="R" xlink:href="#font_3_95" transform="matrix(3.8125172,-9.203848,-9.2044,-3.8122886,242.73773,70.61548)"/>
<use data-text="e" xlink:href="#font_3_50" transform="matrix(3.8125172,-9.203848,-9.2044,-3.8122886,245.54373,63.84143)"/>
<use data-text="o" xlink:href="#font_3_81" transform="matrix(3.8125172,-9.203848,-9.2044,-3.8122886,247.23651,59.754915)"/>
<path transform="matrix(1.00006,0,0,-1,191.9516,187.01)" stroke-width=".3985" stroke-linecap="round" stroke-miterlimit="10" stroke-linejoin="miter" fill="none" stroke="#000000" d="M28.71985 144.39934"/>
<use data-text="H" xlink:href="#font_3_62" transform="matrix(1.9435209,-9.770919,-9.771505,-1.9434043,218.8967,68.98453)"/>
<use data-text="a" xlink:href="#font_3_28" transform="matrix(1.9435209,-9.770919,-9.771505,-1.9434043,220.35434,61.65634)"/>
<use data-text="k" xlink:href="#font_3_70" transform="matrix(1.9435209,-9.770919,-9.771505,-1.9434043,221.32611,56.770875)"/>
<use data-text="a" xlink:href="#font_3_28" transform="matrix(1.9435209,-9.770919,-9.771505,-1.9434043,222.3523,51.611818)"/>
<path transform="matrix(1.00006,0,0,-1,191.9516,187.01)" stroke-width=".3985" stroke-linecap="round" stroke-miterlimit="10" stroke-linejoin="miter" fill="none" stroke="#000000" d="M28.71985-144.39934"/>
<use data-text="H" xlink:href="#font_3_62" transform="matrix(1.9435209,9.770919,9.771505,-1.9434043,212.22171,306.36186)"/>
<use data-text="a" xlink:href="#font_3_28" transform="matrix(1.9435209,9.770919,9.771505,-1.9434043,213.67935,313.69004)"/>
<use data-text="k" xlink:href="#font_3_70" transform="matrix(1.9435209,9.770919,9.771505,-1.9434043,214.65111,318.5755)"/>
<use data-text="a" xlink:href="#font_3_28" transform="matrix(1.9435209,9.770919,9.771505,-1.9434043,215.67729,323.73457)"/>
<path transform="matrix(1.00006,0,0,-1,191.9516,187.01)" stroke-width=".3985" stroke-linecap="round" stroke-miterlimit="10" stroke-linejoin="miter" fill="none" stroke="#000000" d="M56.33932-136.01813"/>
<use data-text="N" xlink:href="#font_3_76" transform="matrix(3.8125172,9.203848,9.2044,-3.8122886,230.40454,286.05058)"/>
<use data-text="g" xlink:href="#font_3_59" transform="matrix(3.8125172,9.203848,9.2044,-3.8122886,233.26392,292.95347)"/>
<use data-text="&#x0101;" xlink:href="#font_3_173" transform="matrix(3.8125172,9.203848,9.2044,-3.8122886,235.17018,297.5554)"/>
<use data-text="R" xlink:href="#font_3_95" transform="matrix(3.8125172,9.203848,9.2044,-3.8122886,238.34601,305.22218)"/>
<use data-text="e" xlink:href="#font_3_50" transform="matrix(3.8125172,9.203848,9.2044,-3.8122886,241.15201,311.99623)"/>
<use data-text="o" xlink:href="#font_3_81" transform="matrix(3.8125172,9.203848,9.2044,-3.8122886,242.84479,316.08274)"/>
<path transform="matrix(1.00006,0,0,-1,191.9516,187.01)" stroke-width=".3985" stroke-linecap="round" stroke-miterlimit="10" stroke-linejoin="miter" fill="none" stroke="#000000" d="M81.79243-122.41241"/>
<use data-text="N" xlink:href="#font_3_76" transform="matrix(5.534955,8.283303,8.2838,-5.534623,244.06269,269.27305)"/>
<use data-text="g" xlink:href="#font_3_59" transform="matrix(5.534955,8.283303,8.2838,-5.534623,248.2139,275.48554)"/>
<use data-text="&#x0101;" xlink:href="#font_3_173" transform="matrix(5.534955,8.283303,8.2838,-5.534623,250.98137,279.62718)"/>
<use data-text="R" xlink:href="#font_3_95" transform="matrix(5.534955,8.283303,8.2838,-5.534623,255.59198,286.52717)"/>
<use data-text="a" xlink:href="#font_3_28" transform="matrix(5.534955,8.283303,8.2838,-5.534623,259.6657,292.6237)"/>
<use data-text="n" xlink:href="#font_3_77" transform="matrix(5.534955,8.283303,8.2838,-5.534623,262.43318,296.76533)"/>
<use data-text="g" xlink:href="#font_3_59" transform="matrix(5.534955,8.283303,8.2838,-5.534623,265.51063,301.37086)"/>
<use data-text="i" xlink:href="#font_3_66" transform="matrix(5.534955,8.283303,8.2838,-5.534623,268.2781,305.5125)"/>
<path transform="matrix(1.00006,0,0,-1,191.9516,187.01)" stroke-width=".3985" stroke-linecap="round" stroke-miterlimit="10" stroke-linejoin="miter" fill="none" stroke="#000000" d="M104.10716-104.10716"/>
<use data-text="M" xlink:href="#font_3_74" transform="matrix(7.044976,7.044554,7.044976,-7.044554,273.5882,273.37583)"/>
<use data-text="a" xlink:href="#font_3_28" transform="matrix(7.044976,7.044554,7.044976,-7.044554,280.04847,279.8357)"/>
<use data-text="n" xlink:href="#font_3_77" transform="matrix(7.044976,7.044554,7.044976,-7.044554,283.57096,283.35798)"/>
<use data-text="u" xlink:href="#font_3_109" transform="matrix(7.044976,7.044554,7.044976,-7.044554,287.29777,287.08457)"/>
<path transform="matrix(1.00006,0,0,-1,191.9516,187.01)" stroke-width=".3985" stroke-linecap="round" stroke-miterlimit="10" stroke-linejoin="miter" fill="none" stroke="#000000" d="M122.41241-81.79243"/>
<use data-text="N" xlink:href="#font_3_76" transform="matrix(8.2838,5.534623,5.534955,-8.283303,289.18238,254.83057)"/>
<use data-text="g" xlink:href="#font_3_59" transform="matrix(8.2838,5.534623,5.534955,-8.283303,295.3952,258.9815)"/>
<use data-text="o" xlink:href="#font_3_81" transform="matrix(8.2838,5.534623,5.534955,-8.283303,299.5371,261.74885)"/>
<use data-text="i" xlink:href="#font_3_66" transform="matrix(8.2838,5.534623,5.534955,-8.283303,303.67903,264.5161)"/>
<use data-text="o" xlink:href="#font_3_81" transform="matrix(8.2838,5.534623,5.534955,-8.283303,305.98188,266.05476)"/>
<path transform="matrix(1.00006,0,0,-1,191.9516,187.01)" stroke-width=".3985" stroke-linecap="round" stroke-miterlimit="10" stroke-linejoin="miter" fill="none" stroke="#000000" d="M136.01813-56.33932"/>
<use data-text="K" xlink:href="#font_3_69" transform="matrix(9.2044,3.8122886,3.8125172,-9.203848,299.40199,235.13709)"/>
<use data-text="&#x0101;" xlink:href="#font_3_173" transform="matrix(9.2044,3.8122886,3.8125172,-9.203848,306.563,238.10306)"/>
<use data-text="i" xlink:href="#font_3_66" transform="matrix(9.2044,3.8122886,3.8125172,-9.203848,311.16517,240.00919)"/>
<use data-text="n" xlink:href="#font_3_77" transform="matrix(9.2044,3.8122886,3.8125172,-9.203848,313.724,241.069)"/>
<use data-text="a" xlink:href="#font_3_28" transform="matrix(9.2044,3.8122886,3.8125172,-9.203848,318.84169,243.18863)"/>
<path transform="matrix(1.00006,0,0,-1,191.9516,187.01)" stroke-width=".3985" stroke-linecap="round" stroke-miterlimit="10" stroke-linejoin="miter" fill="none" stroke="#000000" d="M144.39934-28.71985"/>
<use data-text="R" xlink:href="#font_3_95" transform="matrix(9.771505,1.9434043,1.9435209,-9.770919,320.18678,215.87049)"/>
<use data-text="&#x0101;" xlink:href="#font_3_173" transform="matrix(9.771505,1.9434043,1.9435209,-9.770919,327.3786,217.30083)"/>
<path transform="matrix(1.00006,0,0,-1,191.9516,187.01)" stroke-width=".3985" stroke-linecap="round" stroke-miterlimit="10" stroke-linejoin="miter" fill="none" stroke="#000000" d="M-28.71985 144.39934"/>
<use data-text="H" xlink:href="#font_3_62" transform="matrix(1.9435209,9.770919,9.771505,-1.9434043,160.57962,46.72586)"/>
<use data-text="a" xlink:href="#font_3_28" transform="matrix(1.9435209,9.770919,9.771505,-1.9434043,162.03726,54.054048)"/>
<use data-text="k" xlink:href="#font_3_70" transform="matrix(1.9435209,9.770919,9.771505,-1.9434043,163.00902,58.939516)"/>
<use data-text="a" xlink:href="#font_3_28" transform="matrix(1.9435209,9.770919,9.771505,-1.9434043,164.0352,64.09857)"/>
<path transform="matrix(1.00006,0,0,-1,191.9516,187.01)" stroke-width=".3985" stroke-linecap="round" stroke-miterlimit="10" stroke-linejoin="miter" fill="none" stroke="#000000" d="M-56.33932 136.01813"/>
<use data-text="N" xlink:href="#font_3_76" transform="matrix(3.8125172,9.203848,9.2044,-3.8122886,134.75983,55.152559)"/>
<use data-text="g" xlink:href="#font_3_59" transform="matrix(3.8125172,9.203848,9.2044,-3.8122886,137.6192,62.05545)"/>
<use data-text="&#x0101;" xlink:href="#font_3_173" transform="matrix(3.8125172,9.203848,9.2044,-3.8122886,139.52547,66.65738)"/>
<use data-text="R" xlink:href="#font_3_95" transform="matrix(3.8125172,9.203848,9.2044,-3.8122886,142.7013,74.32416)"/>
<use data-text="e" xlink:href="#font_3_50" transform="matrix(3.8125172,9.203848,9.2044,-3.8122886,145.5073,81.098209)"/>
<use data-text="o" xlink:href="#font_3_81" transform="matrix(3.8125172,9.203848,9.2044,-3.8122886,147.20008,85.18472)"/>
<path transform="matrix(1.00006,0,0,-1,191.9516,187.01)" stroke-width=".3985" stroke-linecap="round" stroke-miterlimit="10" stroke-linejoin="miter" fill="none" stroke="#000000" d="M-81.79243 122.41241"/>
<use data-text="N" xlink:href="#font_3_76" transform="matrix(5.534955,8.283303,8.2838,-5.534623,110.13365,68.844028)"/>
<use data-text="g" xlink:href="#font_3_59" transform="matrix(5.534955,8.283303,8.2838,-5.534623,114.28487,75.05652)"/>
<use data-text="&#x0101;" xlink:href="#font_3_173" transform="matrix(5.534955,8.283303,8.2838,-5.534623,117.05234,79.19815)"/>
<use data-text="R" xlink:href="#font_3_95" transform="matrix(5.534955,8.283303,8.2838,-5.534623,121.66295,86.098148)"/>
<use data-text="a" xlink:href="#font_3_28" transform="matrix(5.534955,8.283303,8.2838,-5.534623,125.73668,92.19467)"/>
<use data-text="n" xlink:href="#font_3_77" transform="matrix(5.534955,8.283303,8.2838,-5.534623,128.50415,96.3363)"/>
<use data-text="g" xlink:href="#font_3_59" transform="matrix(5.534955,8.283303,8.2838,-5.534623,131.58159,100.94183)"/>
<use data-text="i" xlink:href="#font_3_66" transform="matrix(5.534955,8.283303,8.2838,-5.534623,134.34908,105.083499)"/>
<path transform="matrix(1.00006,0,0,-1,191.9516,187.01)" stroke-width=".3985" stroke-linecap="round" stroke-miterlimit="10" stroke-linejoin="miter" fill="none" stroke="#000000" d="M-104.10716 104.10716"/>
<use data-text="M" xlink:href="#font_3_74" transform="matrix(7.044976,7.044554,7.044976,-7.044554,87.96006,87.75882)"/>
<use data-text="a" xlink:href="#font_3_28" transform="matrix(7.044976,7.044554,7.044976,-7.044554,94.42031,94.21869)"/>
<use data-text="n" xlink:href="#font_3_77" transform="matrix(7.044976,7.044554,7.044976,-7.044554,97.9428,97.74097)"/>
<use data-text="u" xlink:href="#font_3_109" transform="matrix(7.044976,7.044554,7.044976,-7.044554,101.66961,101.46756)"/>
<path transform="matrix(1.00006,0,0,-1,191.9516,187.01)" stroke-width=".3985" stroke-linecap="round" stroke-miterlimit="10" stroke-linejoin="miter" fill="none" stroke="#000000" d="M-122.41241 81.79243"/>
<use data-text="N" xlink:href="#font_3_76" transform="matrix(8.2838,5.534623,5.534955,-8.283303,71.13828,109.148578)"/>
<use data-text="g" xlink:href="#font_3_59" transform="matrix(8.2838,5.534623,5.534955,-8.283303,77.35114,113.299518)"/>
<use data-text="o" xlink:href="#font_3_81" transform="matrix(8.2838,5.534623,5.534955,-8.283303,81.49302,116.06685)"/>
<use data-text="i" xlink:href="#font_3_66" transform="matrix(8.2838,5.534623,5.534955,-8.283303,85.634929,118.83412)"/>
<use data-text="o" xlink:href="#font_3_81" transform="matrix(8.2838,5.534623,5.534955,-8.283303,87.93781,120.37276)"/>
<path transform="matrix(1.00006,0,0,-1,191.9516,187.01)" stroke-width=".3985" stroke-linecap="round" stroke-miterlimit="10" stroke-linejoin="miter" fill="none" stroke="#000000" d="M-136.01813 56.33932"/>
<use data-text="K" xlink:href="#font_3_69" transform="matrix(9.2044,3.8122886,3.8125172,-9.203848,57.896486,135.11009)"/>
<use data-text="&#x0101;" xlink:href="#font_3_173" transform="matrix(9.2044,3.8122886,3.8125172,-9.203848,65.057529,138.07607)"/>
<use data-text="i" xlink:href="#font_3_66" transform="matrix(9.2044,3.8122886,3.8125172,-9.203848,69.6597,139.9822)"/>
<use data-text="n" xlink:href="#font_3_77" transform="matrix(9.2044,3.8122886,3.8125172,-9.203848,72.21854,141.042)"/>
<use data-text="a" xlink:href="#font_3_28" transform="matrix(9.2044,3.8122886,3.8125172,-9.203848,77.33618,143.16164)"/>
<path transform="matrix(1.00006,0,0,-1,191.9516,187.01)" stroke-width=".3985" stroke-linecap="round" stroke-miterlimit="10" stroke-linejoin="miter" fill="none" stroke="#000000" d="M-144.39934 28.71985"/>
<use data-text="R" xlink:href="#font_3_95" transform="matrix(9.771505,1.9434043,1.9435209,-9.770919,50.353578,162.20648)"/>
<use data-text="&#x0101;" xlink:href="#font_3_173" transform="matrix(9.771505,1.9434043,1.9435209,-9.770919,57.54541,163.63683)"/>
<path transform="matrix(1.00006,0,0,-1,191.9516,187.01)" stroke-width=".3985" stroke-linecap="round" stroke-miterlimit="10" stroke-linejoin="miter" fill="none" stroke="#000000" d="M-144.39934-28.71985"/>
<use data-text="R" xlink:href="#font_3_95" transform="matrix(9.771505,-1.9434043,-1.9435209,-9.770919,51.638048,218.2721)"/>
<use data-text="&#x0101;" xlink:href="#font_3_173" transform="matrix(9.771505,-1.9434043,-1.9435209,-9.770919,58.82988,216.84177)"/>
<path transform="matrix(1.00006,0,0,-1,191.9516,187.01)" stroke-width=".3985" stroke-linecap="round" stroke-miterlimit="10" stroke-linejoin="miter" fill="none" stroke="#000000" d="M-136.01813-56.33932"/>
<use data-text="K" xlink:href="#font_3_69" transform="matrix(9.2044,-3.8122886,-3.8125172,-9.203848,60.458253,245.09537)"/>
<use data-text="&#x0101;" xlink:href="#font_3_173" transform="matrix(9.2044,-3.8122886,-3.8125172,-9.203848,67.61932,242.1294)"/>
<use data-text="i" xlink:href="#font_3_66" transform="matrix(9.2044,-3.8122886,-3.8125172,-9.203848,72.2215,240.22327)"/>
<use data-text="n" xlink:href="#font_3_77" transform="matrix(9.2044,-3.8122886,-3.8125172,-9.203848,74.780338,239.16345)"/>
<use data-text="a" xlink:href="#font_3_28" transform="matrix(9.2044,-3.8122886,-3.8125172,-9.203848,79.89795,237.04383)"/>
<path transform="matrix(1.00006,0,0,-1,191.9516,187.01)" stroke-width=".3985" stroke-linecap="round" stroke-miterlimit="10" stroke-linejoin="miter" fill="none" stroke="#000000" d="M-122.41241-81.79243"/>
<use data-text="N" xlink:href="#font_3_76" transform="matrix(8.2838,-5.534623,-5.534955,-8.283303,73.778537,268.82203)"/>
<use data-text="g" xlink:href="#font_3_59" transform="matrix(8.2838,-5.534623,-5.534955,-8.283303,79.991397,264.67109)"/>
<use data-text="o" xlink:href="#font_3_81" transform="matrix(8.2838,-5.534623,-5.534955,-8.283303,84.1333,261.90376)"/>
<use data-text="i" xlink:href="#font_3_66" transform="matrix(8.2838,-5.534623,-5.534955,-8.283303,88.27518,259.13648)"/>
<use data-text="o" xlink:href="#font_3_81" transform="matrix(8.2838,-5.534623,-5.534955,-8.283303,90.578067,257.59785)"/>
<path transform="matrix(1.00006,0,0,-1,191.9516,187.01)" stroke-width=".3985" stroke-linecap="round" stroke-miterlimit="10" stroke-linejoin="miter" fill="none" stroke="#000000" d="M-104.10716-104.10716"/>
<use data-text="M" xlink:href="#font_3_74" transform="matrix(7.044976,-7.044554,-7.044976,-7.044554,92.69447,290.9953)"/>
<use data-text="a" xlink:href="#font_3_28" transform="matrix(7.044976,-7.044554,-7.044976,-7.044554,99.15471,284.53544)"/>
<use data-text="n" xlink:href="#font_3_77" transform="matrix(7.044976,-7.044554,-7.044976,-7.044554,102.6772,281.01319)"/>
<use data-text="u" xlink:href="#font_3_109" transform="matrix(7.044976,-7.044554,-7.044976,-7.044554,106.40401,277.2866)"/>
<path transform="matrix(1.00006,0,0,-1,191.9516,187.01)" stroke-width=".3985" stroke-linecap="round" stroke-miterlimit="10" stroke-linejoin="miter" fill="none" stroke="#000000" d="M-81.79243-122.41241"/>
<use data-text="N" xlink:href="#font_3_76" transform="matrix(5.534955,-8.283303,-8.2838,-5.534623,114.08551,307.81608)"/>
<use data-text="g" xlink:href="#font_3_59" transform="matrix(5.534955,-8.283303,-8.2838,-5.534623,118.236728,301.6036)"/>
<use data-text="&#x0101;" xlink:href="#font_3_173" transform="matrix(5.534955,-8.283303,-8.2838,-5.534623,121.00421,297.46195)"/>
<use data-text="R" xlink:href="#font_3_95" transform="matrix(5.534955,-8.283303,-8.2838,-5.534623,125.61481,290.56199)"/>
<use data-text="a" xlink:href="#font_3_28" transform="matrix(5.534955,-8.283303,-8.2838,-5.534623,129.68854,284.46546)"/>
<use data-text="n" xlink:href="#font_3_77" transform="matrix(5.534955,-8.283303,-8.2838,-5.534623,132.456,280.32383)"/>
<use data-text="g" xlink:href="#font_3_59" transform="matrix(5.534955,-8.283303,-8.2838,-5.534623,135.53345,275.7183)"/>
<use data-text="i" xlink:href="#font_3_66" transform="matrix(5.534955,-8.283303,-8.2838,-5.534623,138.30094,271.57664)"/>
<path transform="matrix(1.00006,0,0,-1,191.9516,187.01)" stroke-width=".3985" stroke-linecap="round" stroke-miterlimit="10" stroke-linejoin="miter" fill="none" stroke="#000000" d="M-56.33932-136.01813"/>
<use data-text="N" xlink:href="#font_3_76" transform="matrix(3.8125172,-9.203848,-9.2044,-3.8122886,139.15152,320.68507)"/>
<use data-text="g" xlink:href="#font_3_59" transform="matrix(3.8125172,-9.203848,-9.2044,-3.8122886,142.0109,313.7822)"/>
<use data-text="&#x0101;" xlink:href="#font_3_173" transform="matrix(3.8125172,-9.203848,-9.2044,-3.8122886,143.91715,309.18028)"/>
<use data-text="R" xlink:href="#font_3_95" transform="matrix(3.8125172,-9.203848,-9.2044,-3.8122886,147.09299,301.5135)"/>
<use data-text="e" xlink:href="#font_3_50" transform="matrix(3.8125172,-9.203848,-9.2044,-3.8122886,149.89899,294.73945)"/>
<use data-text="o" xlink:href="#font_3_81" transform="matrix(3.8125172,-9.203848,-9.2044,-3.8122886,151.59177,290.65293)"/>
<path transform="matrix(1.00006,0,0,-1,191.9516,187.01)" stroke-width=".3985" stroke-linecap="round" stroke-miterlimit="10" stroke-linejoin="miter" fill="none" stroke="#000000" d="M-28.71985-144.39934"/>
<use data-text="H" xlink:href="#font_3_62" transform="matrix(1.9435209,-9.770919,-9.771505,-1.9434043,167.25461,328.62055)"/>
<use data-text="a" xlink:href="#font_3_28" transform="matrix(1.9435209,-9.770919,-9.771505,-1.9434043,168.71225,321.29237)"/>
<use data-text="k" xlink:href="#font_3_70" transform="matrix(1.9435209,-9.770919,-9.771505,-1.9434043,169.684,316.4069)"/>
<use data-text="a" xlink:href="#font_3_28" transform="matrix(1.9435209,-9.770919,-9.771505,-1.9434043,170.71019,311.24784)"/>
<path transform="matrix(1.00006,0,0,-1,191.9516,187.01)" stroke-width=".3985" stroke-linecap="round" stroke-miterlimit="10" stroke-linejoin="miter" fill="none" stroke="#000000" d="M0 0"/>
<path transform="matrix(1.00006,0,0,-1,191.9516,187.01)" d="M35.23271-13.49796 38.22435-32.18604 40.25317-39.28804 40.63602-43.27463 35.18227-36.87868 28.96742-23.81628 25.67087-14.30717 12.48239-8.72736 1.5772-5.68527-4.00032-8.72736-6.15523-10.75618-10.9029-18.39462-15.61847-23.34404-19.5317-27.04405-18.48862-24.543-13.30539-17.92468-11.51956-15.17374-10.112-11.95055-11.16653-12.50761-12.01932-12.01932-12.01701-11.21925-11.54707-10.19453-16.81972-12.24399-21.82185-14.98805-24.24498-17.34926-26.4847-19.89389-26.34027-18.26625-25.13214-16.04257-21.72557-13.05092-17.24612-9.98361-14.36449-7.65219-10.51318-5.33452-8.04878-3.25986-6.97821-1.25166-6.71458 2.44374-7.45734 6.72375-12.96611 24.25185-14.62126 28.07796-28.05273 36.33766-39.70758 41.65158-40.0927 41.68367-40.19128 41.45442-40.54433 41.73868-40.16606 42.2224-39.07944 42.44247-34.14838 42.8001-29.42592 42.282-16.47585 38.84561-9.01392 36.05798-5.45602 34.40971-2.93892 32.50697-.59831 25.56084 2.06319 14.34387 3.3653 11.5127 4.32813 10.66219 7.27852 12.45718 8.69984 12.42738 9.3257 12.39987 11.17569 13.67905 13.3925 15.41444 14.41724 15.75603 15.02473 15.02473 14.92844 14.38971 14.44244 14.73589 13.86015 14.58228 12.63599 13.67676 11.80153 12.77812 10.68968 11.22842 10.87767 9.57556 10.77452 8.97952 9.76813 6.77876 9.5664 6.0681 9.66956 5.52022 10.46274 4.7637 32.72246-4.09431 33.69905-6.13689Z"/>
</svg>
