<svg xmlns="http://www.w3.org/2000/svg" xmlns:xlink="http://www.w3.org/1999/xlink" version="1.1" width="197" height="171" viewBox="0 0 197 171">
<defs>
<path id="font_1_1" d="M.6589966 .23046875C.6759949 .23046875 .69400027 .23046875 .69400027 .25045777 .69400027 .27046205 .6759949 .27046205 .6589966 .27046205H.117996219C.100997928 .27046205 .08299255 .27046205 .08299255 .25045777 .08299255 .23046875 .100997928 .23046875 .117996219 .23046875H.6589966Z"/>
<path id="font_2_4" d="M.2939911 .16503906V.07800293C.2939911 .041992189 .2919922 .0309906 .21798706 .0309906H.19699097V0C.23799134 .0029907227 .2899933 .0029907227 .33198548 .0029907227 .37399293 .0029907227 .4269867 .0029907227 .46798707 0V.0309906H.44699098C.37298585 .0309906 .37098695 .041992189 .37098695 .07800293V.16503906H.47099305V.19602967H.37098695V.65075686C.37098695 .67074587 .37098695 .6767578 .35499574 .6767578 .34599305 .6767578 .34298707 .6767578 .33499146 .66474917L.027999878 .19602967V.16503906H.2939911M.2999878 .19602967H.055999757L.2999878 .5688019V.19602967Z"/>
<path id="font_2_3" d="M.1269989 .07699585 .23298645 .18003845C.3889923 .31811524 .44898988 .3721466 .44898988 .47216798 .44898988 .5860901 .35899354 .6660156 .23699951 .6660156 .12399292 .6660156 .049987794 .57411196 .049987794 .48516847 .049987794 .4291687 .099990848 .4291687 .102996829 .4291687 .11999512 .4291687 .15499878 .44117738 .15499878 .48217774 .15499878 .5081787 .13699341 .5341797 .101989749 .5341797 .09399414 .5341797 .09199524 .5341797 .08898926 .5331726 .11199951 .59806826 .1659851 .63500979 .22399903 .63500979 .31498719 .63500979 .35798646 .5541382 .35798646 .47216798 .35798646 .39215089 .30799867 .31311036 .25299073 .25108338L.06098938 .036987306C.049987794 .025985718 .049987794 .023986817 .049987794 0H.42099L.44898988 .17404175H.42399598C.4189911 .14402771 .4119873 .1000061 .4019928 .084991458 .394989 .07699585 .32899476 .07699585 .30699159 .07699585H.1269989Z"/>
<path id="font_2_2" d="M.2939911 .64004519C.2939911 .66400149 .2939911 .6660156 .2709961 .6660156 .20899964 .60227969 .12098694 .60227969 .08898926 .60227969V.57128909C.10899353 .57128909 .16799927 .57128909 .21998596 .5972748V.07902527C.21998596 .042999269 .21699524 .0309906 .1269989 .0309906H.09498596V0C.12998963 .0029907227 .21699524 .0029907227 .25698854 .0029907227 .29699708 .0029907227 .38398744 .0029907227 .4189911 0V.0309906H.3869934C.29699708 .0309906 .2939911 .041992189 .2939911 .07902527V.64004519Z"/>
<path id="font_2_1" d="M.45999146 .31976319C.45999146 .39982606 .45498658 .47988893 .41999818 .5539398 .37399293 .65000918 .2919922 .6660156 .25 .6660156 .18998719 .6660156 .116989139 .64001467 .07598877 .54693606 .04399109 .47789 .038986207 .39982606 .038986207 .31976319 .038986207 .24472046 .042999269 .15464783 .083999637 .07859802 .1269989-.0024719239 .19999695-.022460938 .24899292-.022460938 .30299378-.022460938 .3789978-.0014648438 .4229889 .09359741 .45498658 .16265869 .45999146 .2407074 .45999146 .31976319M.24899292-.00047302247C.20999146-.00047302247 .15098572 .024551392 .1329956 .12062073 .12199402 .18066406 .12199402 .2727356 .12199402 .3317871 .12199402 .39582826 .12199402 .46188355 .12998963 .5159149 .14898682 .63500979 .22399903 .64401248 .24899292 .64401248 .28199769 .64401248 .34799195 .6259918 .36698915 .52693179 .3769989 .47088624 .3769989 .39482118 .3769989 .3317871 .3769989 .25672914 .3769989 .18867493 .3659973 .12461853 .35099793 .029556275 .2939911-.00047302247 .24899292-.00047302247Z"/>
<path id="font_2_5" d="M.44898988 .20022583C.44898988 .3193512 .36698915 .41944886 .25898744 .41944886 .21099854 .41944886 .16799927 .40345765 .13198853 .36842347V.5637665C.1519928 .5577698 .18499756 .55078127 .21699524 .55078127 .33999635 .55078127 .4099884 .6417694 .4099884 .6547699 .4099884 .6607666 .40699769 .6657715 .3999939 .6657715 .39898683 .6657715 .39698792 .6657715 .3919983 .66278079 .37199403 .6537781 .32299806 .6337738 .2559967 .6337738 .21598816 .6337738 .16999817 .6407776 .12298584 .6617737 .114990238 .66477969 .11299133 .66477969 .11099243 .66477969 .100997928 .66477969 .100997928 .6567688 .100997928 .6407776V.34439088C.100997928 .32637025 .100997928 .31835938 .114990238 .31835938 .12199402 .31835938 .12399292 .32136537 .12799073 .32736207 .13899231 .3433838 .17599488 .39746095 .25698854 .39746095 .30899049 .39746095 .33399964 .35139466 .34199525 .33337403 .35798646 .29632569 .3600006 .25727845 .3600006 .20722962 .3600006 .17222595 .3600006 .11222839 .33599855 .07035828 .31199647 .031463624 .2749939 .0055389406 .22898865 .0055389406 .1559906 .0055389406 .09899902 .058380128 .08198547 .11723328 .084991458 .1162262 .08799744 .115234378 .09899902 .115234378 .13198853 .115234378 .14898682 .14022827 .14898682 .16423035 .14898682 .18823242 .13198853 .21322632 .09899902 .21322632 .084991458 .21322632 .049987794 .20622254 .049987794 .16023255 .049987794 .07434082 .11898804-.022460938 .23098755-.022460938 .34700013-.022460938 .44898988 .073349 .44898988 .20022583Z"/>
<path id="font_3_1" d="M.33399964 .30233766C.33999635 .32835389 .36299134 .42037965 .43299867 .42037965 .43798829 .42037965 .46199037 .42037965 .48298646 .40734864 .45498658 .402359 .43499757 .37734986 .43499757 .35334779 .43499757 .33735658 .44599916 .31835938 .47299195 .31835938 .49499513 .31835938 .5269928 .3363495 .5269928 .37635804 .5269928 .42837525 .46798707 .4423828 .43399049 .4423828 .37599183 .4423828 .34098817 .38935853 .32899476 .36634828 .3039856 .43237306 .25 .4423828 .22099304 .4423828 .116989139 .4423828 .05999756 .3133545 .05999756 .28834535 .05999756 .27833558 .069992069 .27833558 .07199097 .27833558 .07998657 .27833558 .08299255 .28033448 .084991458 .28933717 .11898804 .39535523 .18499756 .42037965 .21899414 .42037965 .23799134 .42037965 .272995 .4113617 .272995 .35334779 .272995 .32235719 .2559967 .25532533 .21899414 .11528015 .20298767 .053268434 .16799927 .011245728 .12399292 .011245728 .117996219 .011245728 .09498596 .011245728 .07398987 .024276734 .09899902 .029266358 .12098694 .05027771 .12098694 .07827759 .12098694 .105270389 .09899902 .11328125 .083999637 .11328125 .053985597 .11328125 .0289917 .08728027 .0289917 .055267335 .0289917 .009246826 .07899475-.0107421879 .12298584-.0107421879 .18899536-.0107421879 .22499085 .059280397 .22799683 .0652771 .23999024 .028274537 .27598573-.0107421879 .33599855-.0107421879 .43899537-.0107421879 .49598695 .118270877 .49598695 .14328003 .49598695 .1532898 .4869995 .1532898 .48399354 .1532898 .47499085 .1532898 .47299195 .14929199 .47099305 .14228821 .43798829 .03527832 .36999513 .011245728 .33799745 .011245728 .29899598 .011245728 .2829895 .043273927 .2829895 .07727051 .2829895 .09927368 .2889862 .121276859 .2999878 .16529846L.33399964 .30233766Z"/>
<path id="font_3_2" d="M.48599244 .38136292C.48999024 .39537049 .48999024 .39736939 .48999024 .40437318 .48999024 .42237855 .47599793 .43138124 .46099855 .43138124 .45098878 .43138124 .43499757 .42536927 .42599488 .41036988 .42399598 .405365 .41600038 .37435914 .4119873 .35635377 .40499879 .33035279 .397995 .30334474 .3919983 .27633668L.34700013 .09628296C.34298707 .08126831 .2999878 .011245728 .23399353 .011245728 .18299866 .011245728 .17199707 .055267335 .17199707 .0922699 .17199707 .1382904 .18899536 .20030213 .22299195 .28833009 .23899842 .3293457 .24299622 .3403473 .24299622 .36035157 .24299622 .405365 .21099854 .4423828 .16099549 .4423828 .06599426 .4423828 .0289917 .29733277 .0289917 .28833009 .0289917 .27833558 .038986207 .27833558 .040985109 .27833558 .050994874 .27833558 .051986696 .28033448 .056991579 .29634095 .083999637 .3903656 .12399292 .42037965 .1579895 .42037965 .1659851 .42037965 .18299866 .42037965 .18299866 .3883667 .18299866 .36335755 .17298889 .3373413 .1659851 .31834413 .12599182 .21231079 .10798645 .1552887 .10798645 .10827637 .10798645 .019256592 .17098999-.0107421879 .22999573-.0107421879 .2689972-.0107421879 .30299378 .0062561037 .33099366 .03425598 .31799317-.017745972 .30599977-.06674194 .2659912-.11973572 .23999024-.15385437 .20199585-.18309021 .1559906-.18309021 .14199829-.18309021 .09700012-.18005371 .07998657-.14074707 .09599304-.14074707 .10899353-.14074707 .12298584-.1287384 .1329956-.11973572 .14299011-.10673523 .14299011-.08773804 .14299011-.056747438 .115997318-.052734376 .10598755-.052734376 .08299255-.052734376 .049987794-.068740848 .049987794-.11773682 .049987794-.16796875 .09399414-.20507813 .1559906-.20507813 .25898744-.20507813 .3619995-.11373901 .3899994-.00074768069L.48599244 .38136292Z"/>
</defs>
<path transform="matrix(1.00002,0,0,-1.00006,1.095665,166.5352)" stroke-width=".19925" stroke-linecap="butt" stroke-miterlimit="10" stroke-linejoin="miter" fill="none" stroke="#929292" d="M9.71405 79.28079V82.11555M19.42812 79.28079V82.11555M29.14218 79.28079V82.11555M38.85625 79.28079V82.11555M48.57031 79.28079V82.11555M58.28438 79.28079V82.11555M67.99844 79.28079V82.11555M77.71251 79.28079V82.11555M87.42657 79.28079V82.11555M97.14064 79.28079V82.11555M106.8547 79.28079V82.11555M116.56876 79.28079V82.11555M126.28282 79.28079V82.11555M135.99689 79.28079V82.11555M145.71096 79.28079V82.11555M155.42502 79.28079V82.11555M165.13909 79.28079V82.11555M174.85315 79.28079V82.11555M184.56722 79.28079V82.11555"/>
<path transform="matrix(1.00002,0,0,-1.00006,1.095665,166.5352)" stroke-width=".19925" stroke-linecap="butt" stroke-miterlimit="10" stroke-linejoin="miter" fill="none" stroke="#929292" d="M19.42812 78.5723V82.82404M58.28438 78.5723V82.82404M135.99689 78.5723V82.82404M174.85315 78.5723V82.82404"/>
<path transform="matrix(1.00002,0,0,-1.00006,1.095665,166.5352)" stroke-width=".19925" stroke-linecap="butt" stroke-miterlimit="10" stroke-linejoin="miter" fill="none" stroke="#929292" d="M95.01462 0H99.26663M95.01462 40.34909H99.26663M95.01462 121.04727H99.26663M95.01462 161.39636H99.26663"/>
<path transform="matrix(1.00002,0,0,-1.00006,1.095665,166.5352)" stroke-width=".3985" stroke-linecap="butt" stroke-miterlimit="10" stroke-linejoin="miter" fill="none" stroke="#000000" d="M0 80.69818H192.28876"/>
<path transform="matrix(1.00002,0,0,-1.00006,193.38828,85.832187)" d="M1.99252 0-1.19551 1.59401 0 0-1.19551-1.59401"/>
<path transform="matrix(1.00002,0,0,-1.00006,1.095665,166.5352)" stroke-width=".3985" stroke-linecap="butt" stroke-miterlimit="10" stroke-linejoin="miter" fill="none" stroke="#000000" d="M97.14064 0V159.40384"/>
<path transform="matrix(0,-1.00006,-1.00002,-0,98.23825,7.121811)" d="M1.99252 0-1.19551 1.59401 0 0-1.19551-1.59401"/>
<use data-text="&#x2212;" xlink:href="#font_1_1" transform="matrix(9.962799,0,0,-9.963197,14.158928,97.899089)"/>
<use data-text="4" xlink:href="#font_2_4" transform="matrix(9.962799,0,0,-9.963197,21.908082,97.899089)"/>
<use data-text="&#x2212;" xlink:href="#font_1_1" transform="matrix(9.962799,0,0,-9.963197,53.015707,97.899089)"/>
<use data-text="2" xlink:href="#font_2_3" transform="matrix(9.962799,0,0,-9.963197,60.76486,97.899089)"/>
<use data-text="2" xlink:href="#font_2_3" transform="matrix(9.962799,0,0,-9.963197,134.60434,97.899089)"/>
<use data-text="4" xlink:href="#font_2_4" transform="matrix(9.962799,0,0,-9.963197,173.46112,97.899089)"/>
<use data-text="&#x2212;" xlink:href="#font_1_1" transform="matrix(9.962799,0,0,-9.963197,74.88014,169.33037)"/>
<use data-text="1" xlink:href="#font_2_2" transform="matrix(9.962799,0,0,-9.963197,82.629299,169.33037)"/>
<use data-text="0" xlink:href="#font_2_1" transform="matrix(9.962799,0,0,-9.963197,87.610698,169.33037)"/>
<use data-text="&#x2212;" xlink:href="#font_1_1" transform="matrix(9.962799,0,0,-9.963197,79.86224,128.97895)"/>
<use data-text="5" xlink:href="#font_2_5" transform="matrix(9.962799,0,0,-9.963197,87.6114,128.97895)"/>
<use data-text="5" xlink:href="#font_2_5" transform="matrix(9.962799,0,0,-9.963197,87.6104,48.69114)"/>
<use data-text="1" xlink:href="#font_2_2" transform="matrix(9.962799,0,0,-9.963197,82.629299,8.339706)"/>
<use data-text="0" xlink:href="#font_2_1" transform="matrix(9.962799,0,0,-9.963197,87.610698,8.339706)"/>
<path transform="matrix(1.00002,0,0,-1.00006,1.095665,166.5352)" stroke-width=".99628" stroke-linecap="butt" stroke-miterlimit="10" stroke-linejoin="miter" fill="none" stroke="#0000ff" d="M11.65572 3.56381 11.85329 11.00674 12.12743 18.99844 12.40157 25.37102 12.67572 30.5733 12.94986 34.89218 13.224 38.54733 13.49815 41.67737 13.7723 44.39148 14.04642 46.76813 14.32057 48.86629 14.59471 50.73212 14.86885 52.40344 15.143 53.91138 15.41714 55.27695 15.6913 56.5218 15.96542 57.66045 16.23956 58.70824 16.5137 59.67436 16.78786 60.56737 17.062 61.39911 17.33615 62.17302 17.61029 62.89584 17.88441 63.57297 18.15855 64.21008 18.43271 64.80862 18.70685 65.37407 18.981 65.90822 19.25514 66.41483 19.52928 66.89507 19.80342 67.35173 20.07756 67.78613 20.3517 68.20125 20.62585 68.59747 20.9 68.9761 21.17413 69.3394 21.44829 69.68745 21.72241 70.02196 21.99655 70.34395 22.2707 70.6535 22.54485 70.95224 22.81898 71.24034 23.09314 71.51851 23.36728 71.78748 23.6414 72.04805 23.91556 72.30006 24.1897 72.54474 24.46384 72.78224 24.73799 73.01263 25.01213 73.23714 25.28627 73.45517 25.56041 73.66782 25.83455 73.87473 26.10869 74.07687 26.38284 74.27394 26.65698 74.46666 26.93112 74.65501 27.20528 74.83916 27.4794 75.01903 27.75354 75.1956 28.0277 75.36862 28.30183 75.53807 28.57597 75.70465 28.85013 75.8679 29.12427 76.02847 29.3984 76.18626 29.67255 76.34183 29.94669 76.49428 30.22083 76.64502 30.49498 76.79326 30.76912 76.93924 31.04327 77.08354 31.3174 77.22565 31.59154 77.36623 31.86569 77.50504 32.13983 77.64204 32.41397 77.77762 32.68813 77.91165 32.96227 78.04456 33.2364 78.17593 33.51054 78.30635 33.78468 78.43555 34.05882 78.56369 34.33298 78.6908 34.60712 78.817 34.88126 78.94226 35.15541 79.06677 35.42953 79.19049 35.70367 79.31363 35.97783 79.43613 36.25197 79.5579 36.52611 79.6792 36.80026 79.80038 37.0744 79.92072 37.34854 80.04086 37.62268 80.16078 37.89682 80.28055 38.17096 80.39993 38.44511 80.51944 38.71925 80.63852 38.99341 80.75781 39.26755 80.87704 39.54167 80.99625 39.81583 81.11578 40.08995 81.23538 40.3641 81.35548 40.63826 81.47545 40.91238 81.5961 41.18654 81.71713 41.46065 81.83842 41.73482 81.9602 42.00897 82.08255 42.2831 82.20584 42.55725 82.32973 42.83138 82.454 43.10553 82.57924 43.37968 82.70554 43.65381 82.83264 43.92796 82.96062 44.20209 83.08998 44.47624 83.22023 44.75041 83.35178 45.0245 83.48459 45.29868 83.61871 45.5728 83.75429 45.84695 83.89131 46.12111 84.03012 46.39523 84.17044 46.6694 84.31296 46.9435 84.45709 47.21767 84.60307 47.49182 84.75131 47.76595 84.90173 48.0401 85.0546 48.31422 85.20985 48.58838 85.3676 48.86253 85.52844 49.13664 85.6917 49.41081 85.858 49.68494 86.02771 49.95909 86.2005 50.23325 86.3773 50.50737 86.55734 50.78152 86.74141 51.05563 86.92958 51.3298 87.12213 51.60396 87.31929 51.87808 87.52151 52.15224 87.72852 52.42636 87.94084 52.70053 88.15944 52.97467 88.38354 53.2488 88.61409 53.52295 88.8516 53.79707 89.09612 54.07123 89.34828 54.3454 89.60886 54.6195 89.87782 54.89366 90.15599 55.16779 90.44409 55.44194 90.74284 55.7161 91.05206 55.99022 91.37415 56.26437 91.70847 56.5385 92.0571 56.81265 92.41998 57.0868 92.79886 57.36093 93.19508 57.63509 93.60954 57.90921 94.04443 58.18336 94.50159 58.45753 94.98126 58.73163 95.48764 59.0058 96.02228 59.27992 96.58707 59.55408 97.18625 59.82823 97.82336 60.10236 98.49962 60.37653 99.22285 60.65062 99.99722 60.92479 100.82777 61.19894 101.72198 61.47307 102.68785 61.74722 103.73428 62.02135 104.87453 62.29552 106.1194 62.56966 107.48495 62.84378 108.99078 63.11794 110.66423 63.39206 112.53271 63.66621 114.6282 63.94038 117.00485 64.2145 119.71558 64.48865 122.849 64.76276 126.50182 65.03693 130.824 65.31108 136.02661 65.5852 142.3979 65.85936 150.38959 66.0569 157.83252"/>
<path transform="matrix(-.02650053,.99965998,.99962,.026501589,12.751618,162.97116)" d="M2.8892 0-1.73352 2.31136 0 0-1.73352-2.31136" fill="#0000ff"/>
<path transform="matrix(.02650053,-.99965998,-.99962,-.026501589,67.153888,8.693237)" d="M2.8892 0-1.73352 2.31136 0 0-1.73352-2.31136" fill="#0000ff"/>
<path transform="matrix(1.00002,0,0,-1.00006,1.095665,166.5352)" stroke-width=".99628" stroke-linecap="butt" stroke-miterlimit="10" stroke-linejoin="miter" fill="none" stroke="#0000ff" d="M69.94019 3.57172 70.13768 11.00674 70.41182 19.00795 70.68596 25.37358 70.96011 30.57233 71.23424 34.89452 71.50838 38.54733 71.78253 41.68076 72.05667 44.3948 72.33081 46.76813 72.60497 48.86629 72.8791 50.73212 73.15323 52.40344 73.42738 53.91235 73.70152 55.27751 73.97568 56.52132 74.24982 57.66205 74.52396 58.70824 74.7981 59.67436 75.07224 60.5684 75.34637 61.39911 75.62053 62.17348 75.89467 62.89671 76.16881 63.574 76.44295 64.21033 76.7171 64.80927 76.99123 65.37407 77.26538 65.90869 77.53952 66.41483 77.81366 66.89474 78.08781 67.35173 78.36195 67.7863 78.6361 68.20125 78.91023 68.59747 79.18437 68.97635 79.45851 69.33923 79.73267 69.68745 80.0068 70.0226 80.28094 70.34427 80.5551 70.65367 80.82922 70.95224 81.10336 71.24034 81.37752 71.51851 81.65166 71.78772 81.9258 72.04813 82.19995 72.30006 82.47409 72.54474 82.74821 72.7824 83.02237 73.01279 83.29651 73.23714 83.57065 73.45549 83.8448 73.66782 84.11894 73.87514 84.39308 74.07704 84.66722 74.2742 84.94136 74.46666 85.2155 74.65501 85.48965 74.83916 85.7638 75.01927 86.03793 75.19583 86.31209 75.36862 86.58623 75.53833 86.86035 75.70465 87.1345 75.86813 87.40865 76.02873 87.6828 76.1865 87.95694 76.34175 88.23108 76.4946 88.50522 76.64517 88.77936 76.79326 89.0535 76.93948 89.32765 77.08354 89.60179 77.22589 89.87593 77.3664 90.15009 77.50504 90.42422 77.64204 90.69835 77.7777 90.9725 77.91174 91.24664 78.04472 91.52078 78.17593 91.79494 78.30635 92.06908 78.43571 92.34322 78.56369 92.61736 78.6908 92.8915 78.817 93.16563 78.94235 93.43979 79.06677 93.71393 79.19064 93.98807 79.3138 94.26222 79.43613 94.53635 79.5579 94.81049 79.6792 95.08464 79.80038 95.35878 79.92088 95.63293 80.04103 95.90707 80.16078 96.18121 80.28055 96.45534 80.4001 96.72949 80.51944 97.00363 80.63869 97.27779 80.75781 97.55194 80.87704 97.82607 80.99625 98.10022 81.11578 98.37433 81.23555 98.64848 81.35548 98.92264 81.47562 99.19676 81.5961 99.47093 81.71713 99.74504 81.83842 100.01921 81.9602 100.29335 82.0827 100.56747 82.20584 100.84163 82.32973 101.11575 82.45415 101.38992 82.57933 101.66408 82.70554 101.9382 82.83264 102.21234 82.96062 102.48647 83.08998 102.76062 83.2204 103.03479 83.35161 103.3089 83.48468 103.58307 83.61871 103.8572 83.75429 104.13133 83.89131 104.40549 84.03012 104.67961 84.17068 104.95378 84.31279 105.22789 84.457 105.50206 84.60315 105.77621 84.7514 106.05034 84.90205 106.32448 85.0546 106.5986 85.21008 106.87276 85.36769 107.14693 85.52844 107.42104 85.6917 107.6952 85.85817 107.96933 86.02771 108.24347 86.20082 108.51762 86.3773 108.79175 86.55719 109.06592 86.74141 109.34003 86.92967 109.6142 87.12213 109.88835 87.31946 110.16246 87.52151 110.43661 87.72876 110.71074 87.94116 110.98491 88.15944 111.25906 88.38329 111.53319 88.61409 111.80734 88.85176 112.08145 89.09627 112.3556 89.34845 112.62978 89.60902 112.90388 89.87782 113.17805 90.15623 113.45218 90.44449 113.72633 90.74298 114.00047 91.05238 114.2746 91.37437 114.54875 91.70888 114.82288 92.05693 115.09705 92.41998 115.3712 92.79959 115.64532 93.19508 115.91946 93.6102 116.19359 94.04443 116.46774 94.50159 116.74191 94.9815 117.01602 95.48811 117.29019 96.02242 117.56432 96.5877 117.83846 97.18625 118.11261 97.82304 118.38673 98.5005 118.6609 99.22333 118.93501 99.99786 119.20918 100.82794 119.48334 101.72198 119.75745 102.6881 120.0316 103.73428 120.30573 104.87453 120.5799 106.1194 120.85405 107.48495 121.12817 108.99289 121.40233 110.66641 121.67644 112.53271 121.95059 114.6312 122.22476 117.00485 122.49887 119.71518 122.77304 122.84843 123.04715 126.50415 123.32132 130.82926 123.59547 136.02532 123.86958 142.38838 124.14374 150.38959 124.3413 157.83252"/>
<path transform="matrix(-.02654053,.99965998,.99962,.02654159,71.03726,162.96326)" d="M2.8892 0-1.73352 2.31136 0 0-1.73352-2.31136" fill="#0000ff"/>
<path transform="matrix(.02650053,-.99965998,-.99962,-.026501589,125.43945,8.693237)" d="M2.8892 0-1.73352 2.31136 0 0-1.73352-2.31136" fill="#0000ff"/>
<path transform="matrix(1.00002,0,0,-1.00006,1.095665,166.5352)" stroke-width=".99628" stroke-linecap="butt" stroke-miterlimit="10" stroke-linejoin="miter" fill="none" stroke="#0000ff" d="M128.22449 3.57019 128.42206 11.02028 128.6962 19.00795 128.97034 25.38246 129.24449 30.5733 129.51863 34.8976 129.79277 38.55226 130.06693 41.68495 130.34105 44.39552 130.61519 46.76813 130.88935 48.86629 131.16349 50.73212 131.43762 52.40555 131.71178 53.91138 131.98592 55.27864 132.26006 56.52332 132.5342 57.66287 132.80834 58.70912 133.08248 59.67499 133.35663 60.56857 133.63077 61.40001 133.90493 62.17348 134.17905 62.89671 134.45319 63.574 134.72733 64.21033 135.00148 64.81007 135.27562 65.3744 135.54978 65.90942 135.82392 66.41507 136.09804 66.89539 136.3722 67.35246 136.64633 67.78679 136.92047 68.20189 137.19463 68.59747 137.46877 68.97667 137.7429 69.3394 138.01705 69.68803 138.29119 70.0226 138.56533 70.34427 138.83948 70.6535 139.11362 70.95256 139.38776 71.24034 139.66191 71.51892 139.93605 71.7878 140.21018 72.04813 140.48433 72.30031 140.75847 72.54482 141.03261 72.78247 141.30677 73.01312 141.5809 73.23721 141.85504 73.45549 142.12918 73.66798 142.40332 73.87514 142.67746 74.07712 142.95162 74.2742 143.22576 74.46675 143.4999 74.65501 143.77405 74.83916 144.04817 75.01942 144.32231 75.19583 144.59647 75.36862 144.8706 75.53833 145.14475 75.7048 145.4189 75.8679 145.69304 76.02873 145.96718 76.1865 146.24132 76.342 146.51546 76.49469 146.7896 76.64502 147.06375 76.79326 147.33789 76.93948 147.61205 77.08354 147.88617 77.22589 148.16031 77.3664 148.43447 77.50511 148.7086 77.64212 148.98274 77.7777 149.2569 77.91197 149.53104 78.04472 149.80516 78.1761 150.07932 78.3065 150.35346 78.43571 150.6276 78.56369 150.90175 78.6908 151.17589 78.8171 151.45003 78.94235 151.72417 79.06677 151.9983 79.19064 152.27245 79.3138 152.5466 79.43613 152.82074 79.5579 153.09488 79.67943 153.36904 79.80038 153.64316 79.92096 153.91732 80.04103 154.19145 80.16095 154.46559 80.28064 154.73973 80.40019 155.01389 80.51944 155.28803 80.63869 155.56217 80.75789 155.83632 80.87704 156.11045 80.99625 156.3846 81.11594 156.65872 81.23561 156.93288 81.35548 157.20703 81.4757 157.48116 81.59634 157.75531 81.71698 158.02942 81.83852 158.30359 81.96043 158.57775 82.08286 158.85187 82.20592 159.12602 82.3299 159.40015 82.45409 159.6743 82.57933 159.94846 82.70561 160.22258 82.83264 160.49674 82.96078 160.77086 83.08998 161.04502 83.2204 161.31919 83.35185 161.59328 83.48468 161.86745 83.61896 162.14157 83.75436 162.41573 83.8914 162.68988 84.03035 162.964 84.17068 163.23818 84.3132 163.51227 84.45709 163.78644 84.60332 164.0606 84.75156 164.33472 84.90173 164.60887 85.0546 164.883 85.21008 165.15715 85.36786 165.4313 85.52853 165.70542 85.6917 165.97959 85.85841 166.25371 86.02771 166.52787 86.20082 166.80202 86.3773 167.07614 86.55742 167.3503 86.74158 167.6244 86.92984 167.89858 87.12239 168.17273 87.31953 168.44686 87.5216 168.72101 87.72852 168.99514 87.94116 169.26929 88.15944 169.54344 88.38354 169.81757 88.61409 170.09172 88.85176 170.36585 89.09644 170.64 89.34828 170.91417 89.6091 171.18827 89.87807 171.46244 90.15648 171.73656 90.44449 172.01071 90.74298 172.28487 91.05264 172.55899 91.37437 172.83315 91.70888 173.10726 92.0571 173.38143 92.42023 173.65558 92.79959 173.9297 93.1955 174.20386 93.61044 174.47798 94.04509 174.75214 94.50183 175.02629 94.9819 175.3004 95.48811 175.57457 96.02298 175.8487 96.58812 176.12285 97.18779 176.397 97.82336 176.67113 98.5006 176.9453 99.2238 177.21939 99.9982 177.49356 100.82896 177.76772 101.72263 178.04184 102.68947 178.316 103.73589 178.59012 104.87502 178.86429 106.12027 179.13843 107.48495 179.41255 108.99289 179.6867 110.66641 179.96083 112.53271 180.23499 114.63152 180.50916 117.00653 180.78327 119.71945 181.05742 122.849 181.33153 126.50133 181.6057 130.83039 181.87985 136.02532 182.15398 142.3979 182.42813 150.40178 182.62558 157.83252"/>
<path transform="matrix(-.02650053,.99965998,.99962,.026501589,129.32273,162.96479)" d="M2.8892 0-1.73352 2.31136 0 0-1.73352-2.31136" fill="#0000ff"/>
<path transform="matrix(.02654053,-.99965998,-.99962,-.02654159,183.72492,8.693237)" d="M2.8892 0-1.73352 2.31136 0 0-1.73352-2.31136" fill="#0000ff"/>
<path transform="matrix(1.00002,0,0,-1.00006,1.095665,166.5352)" stroke-width=".3985" stroke-linecap="butt" stroke-dasharray="2.98883,2.98883" stroke-miterlimit="10" stroke-linejoin="miter" fill="none" stroke="#ff0000" d="M9.71405 0V161.39636"/>
<path transform="matrix(1.00002,0,0,-1.00006,1.095665,166.5352)" stroke-width=".3985" stroke-linecap="butt" stroke-dasharray="2.98883,2.98883" stroke-miterlimit="10" stroke-linejoin="miter" fill="none" stroke="#ff0000" d="M67.99844 0V161.39636"/>
<path transform="matrix(1.00002,0,0,-1.00006,1.095665,166.5352)" stroke-width=".3985" stroke-linecap="butt" stroke-dasharray="2.98883,2.98883" stroke-miterlimit="10" stroke-linejoin="miter" fill="none" stroke="#ff0000" d="M126.28282 0V161.39636"/>
<path transform="matrix(1.00002,0,0,-1.00006,1.095665,166.5352)" stroke-width=".3985" stroke-linecap="butt" stroke-dasharray="2.98883,2.98883" stroke-miterlimit="10" stroke-linejoin="miter" fill="none" stroke="#ff0000" d="M184.56722 0V161.39636"/>
<use data-text="x" xlink:href="#font_3_1" transform="matrix(9.962799,0,0,-9.963197,186.16638,82.31215)"/>
<use data-text="y" xlink:href="#font_3_2" transform="matrix(9.962799,0,0,-9.963197,101.75768,12.93898)"/>
</svg>
