<svg xmlns="http://www.w3.org/2000/svg" xmlns:xlink="http://www.w3.org/1999/xlink" version="1.1" width="145" height="117" viewBox="0 0 145 117">
<defs>
<path id="font_1_2" d="M.5059967 .37631227C.5119934 .39031983 .5159912 .3973236 .5799866 .3973236V.44433595C.5549927 .44232179 .526001 .44132997 .5009918 .44132997 .47599793 .44132997 .43099977 .44332887 .4099884 .44433595V.3973236C.42900086 .3973236 .45799256 .3943329 .45799256 .38632203 .45799256 .3853302 .45700074 .38331605 .45298768 .37431336L.33699037 .12416077 .20999146 .3973236H.2639923V.44433595C.23098755 .44232179 .14099121 .44132997 .13999939 .44132997 .11199951 .44132997 .066986087 .44332887 .025985718 .44433595V.3973236H.08999634L.2649994 .021087647C.2769928-.00390625 .2899933-.00390625 .30299378-.00390625 .31999208-.00390625 .32998658-.00091552737 .33999635 .020080567L.5059967 .37631227Z"/>
<path id="font_2_1" d="M.6589966 .23046875C.6759949 .23046875 .69400027 .23046875 .69400027 .25045777 .69400027 .27046205 .6759949 .27046205 .6589966 .27046205H.117996219C.100997928 .27046205 .08299255 .27046205 .08299255 .25045777 .08299255 .23046875 .100997928 .23046875 .117996219 .23046875H.6589966Z"/>
<path id="font_1_1" d="M.43798829 .072143558V-.005859375L.61499026 .0001373291V.0471344C.5529938 .0471344 .54599 .0471344 .54599 .086135867V.4501953L.36299134 .44218446V.39518739C.4249878 .39518739 .43199159 .39518739 .43199159 .3561859V.16514588C.43199159 .08314514 .3809967 .030136109 .30799867 .030136109 .23098755 .030136109 .22799683 .055130006 .22799683 .10914612V.4501953L.04499817 .44218446V.39518739C.10699463 .39518739 .11399841 .39518739 .11399841 .3561859V.12315369C.11399841 .01612854 .19499207-.005859375 .2939911-.005859375 .31999208-.005859375 .3919983-.005859375 .43798829 .072143558Z"/>
</defs>
<path transform="matrix(1.00006,0,0,-1,72.96624,101.012)" stroke-width=".3985" stroke-linecap="butt" stroke-miterlimit="10" stroke-linejoin="miter" fill="none" stroke="#d5d6d5" d="M-70.867-14.17339H70.867M-70.867 0H70.867M-70.867 14.17339H70.867M-70.867 28.3468H70.867M-70.867 42.5202H70.867M-70.867 56.69362H70.867M-70.867 70.867H70.867M-70.867 85.04042H70.867M-70.867 99.20885H70.867M-70.867-14.17339V99.21382M-56.69362-14.17339V99.21382M-42.5202-14.17339V99.21382M-28.3468-14.17339V99.21382M-14.17339-14.17339V99.21382M0-14.17339V99.21382M14.17339-14.17339V99.21382M28.3468-14.17339V99.21382M42.5202-14.17339V99.21382M56.69362-14.17339V99.21382M70.86205-14.17339V99.21382M70.867 99.21382"/>
<path transform="matrix(1.00006,0,0,-1,72.96624,101.012)" stroke-width="1.99255" stroke-linecap="butt" stroke-miterlimit="10" stroke-linejoin="miter" fill="none" stroke="#0000ff" d="M56.69362 14.17339 30.77829 53.04636"/>
<path transform="matrix(-.55470326,-.83202,-.8320699,.55467,103.746379,47.96564)" d="M4.38364 0-2.63017 3.50691 0 0-2.63017-3.50691" fill="#0000ff"/>
<use data-text="v" xlink:href="#font_1_2" transform="matrix(9.963197,0,0,-9.9626,119.806049,61.262)" fill="#0000ff"/>
<path transform="matrix(1.00006,0,0,-1,72.96624,101.012)" stroke-width="1.99255" stroke-linecap="butt" stroke-miterlimit="10" stroke-linejoin="miter" fill="none" stroke="#0000ff" d="M28.3468 56.69362 3.09969 31.4465"/>
<path transform="matrix(-.70714238,.7071,.70714238,.7071,76.066127,69.56548)" d="M4.38364 0-2.63017 3.50691 0 0-2.63017-3.50691" fill="#0000ff"/>
<use data-text="&#x2212;" xlink:href="#font_2_1" transform="matrix(9.963197,0,0,-9.9626,68.708988,53.345)" fill="#0000ff"/>
<use data-text="u" xlink:href="#font_1_1" transform="matrix(9.963197,0,0,-9.9626,76.458438,53.345)" fill="#0000ff"/>
<path transform="matrix(1.00006,0,0,-1,72.96624,101.012)" stroke-width="1.99255" stroke-linecap="butt" stroke-miterlimit="10" stroke-linejoin="miter" fill="none" stroke="#0000ff" d="M56.69362 14.17339 4.25273 27.28374"/>
<path transform="matrix(-.97019818,-.24251,-.24252455,.97014,77.21922,73.72828)" d="M4.38364 0-2.63017 3.50691 0 0-2.63017-3.50691" fill="#0000ff"/>
<use data-text="v" xlink:href="#font_1_2" transform="matrix(9.963197,0,0,-9.9626,72.2482,89.880008)" fill="#0000ff"/>
<use data-text="&#x2212;" xlink:href="#font_2_1" transform="matrix(9.963197,0,0,-9.9626,80.6687,89.880008)" fill="#0000ff"/>
<use data-text="u" xlink:href="#font_1_1" transform="matrix(9.963197,0,0,-9.9626,90.6313,89.880008)" fill="#0000ff"/>
</svg>
