<svg xmlns="http://www.w3.org/2000/svg" xmlns:xlink="http://www.w3.org/1999/xlink" version="1.1" width="246" height="205" viewBox="0 0 246 205">
<defs>
<path id="font_1_1" d="M.6589966 .23046875C.6759949 .23046875 .69400027 .23046875 .69400027 .25045777 .69400027 .27046205 .6759949 .27046205 .6589966 .27046205H.117996219C.100997928 .27046205 .08299255 .27046205 .08299255 .25045777 .08299255 .23046875 .100997928 .23046875 .117996219 .23046875H.6589966Z"/>
<path id="font_2_2" d="M.1269989 .07699585 .23298645 .18003845C.3889923 .31811524 .44898988 .3721466 .44898988 .47216798 .44898988 .5860901 .35899354 .6660156 .23699951 .6660156 .12399292 .6660156 .049987794 .57411196 .049987794 .48516847 .049987794 .4291687 .099990848 .4291687 .102996829 .4291687 .11999512 .4291687 .15499878 .44117738 .15499878 .48217774 .15499878 .5081787 .13699341 .5341797 .101989749 .5341797 .09399414 .5341797 .09199524 .5341797 .08898926 .5331726 .11199951 .59806826 .1659851 .63500979 .22399903 .63500979 .31498719 .63500979 .35798646 .5541382 .35798646 .47216798 .35798646 .39215089 .30799867 .31311036 .25299073 .25108338L.06098938 .036987306C.049987794 .025985718 .049987794 .023986817 .049987794 0H.42099L.44898988 .17404175H.42399598C.4189911 .14402771 .4119873 .1000061 .4019928 .084991458 .394989 .07699585 .32899476 .07699585 .30699159 .07699585H.1269989Z"/>
<path id="font_2_1" d="M.2939911 .64004519C.2939911 .66400149 .2939911 .6660156 .2709961 .6660156 .20899964 .60227969 .12098694 .60227969 .08898926 .60227969V.57128909C.10899353 .57128909 .16799927 .57128909 .21998596 .5972748V.07902527C.21998596 .042999269 .21699524 .0309906 .1269989 .0309906H.09498596V0C.12998963 .0029907227 .21699524 .0029907227 .25698854 .0029907227 .29699708 .0029907227 .38398744 .0029907227 .4189911 0V.0309906H.3869934C.29699708 .0309906 .2939911 .041992189 .2939911 .07902527V.64004519Z"/>
<path id="font_3_1" d="M.31098939 .36265565H.42999269C.4149933 .30274964 .3929901 .2118988 .3929901 .13302613 .3929901 .09309387 .397995 .06613159 .4039917 .044174196 .41999818-.0057678224 .43299867-.009765625 .44898988-.009765625 .47200013-.009765625 .49598695 .011230469 .49598695 .035186769 .49598695 .043182374 .49398805 .047164918 .48799134 .057159425 .46899415 .09408569 .45098878 .15100098 .45098878 .23286438 .45098878 .25183106 .45098878 .29177857 .46499635 .36265565H.58999636C.60798647 .36265565 .6159973 .36265565 .6269989 .37065126 .6409912 .380661 .6439972 .39665223 .6439972 .4016571 .6439972 .43066407 .6179962 .43066407 .6009979 .43066407H.22399903C.18299866 .43066407 .15499878 .42166139 .10998535 .37965394 .083999637 .35665895 .04499817 .30274964 .04499817 .2937622 .04499817 .28178407 .057998659 .28178407 .06199646 .28178407 .07299805 .28178407 .07398987 .28378297 .07998657 .2927704 .1309967 .36265565 .19299317 .36265565 .21499634 .36265565H.27598573C.24499512 .25283814 .19099427 .13502503 .16099549 .07511902 .15499878 .062149049 .14498902 .04118347 .14199829 .03718567 .14099121 .033187868 .13899231 .029190064 .13899231 .022201539 .13899231 .006225586 .15098572-.009765625 .17399597-.009765625 .21398926-.009765625 .22499085 .035186769 .24899292 .12504578L.31098939 .36265565Z"/>
<path id="font_4_1" d="M.5049896 .18203736H.47099305C.46798707 .16001892 .45799256 .100997928 .44499208 .09098816 .43699647 .084991458 .3600006 .084991458 .34599305 .084991458H.1619873C.2669983 .17803955 .3019867 .20603943 .3619995 .25306703 .43598939 .312088 .5049896 .374115 .5049896 .46914674 .5049896 .5900879 .39898683 .6640625 .2709961 .6640625 .14698792 .6640625 .06298828 .57710269 .06298828 .4851532 .06298828 .43414308 .10598755 .42915345 .115997318 .42915345 .13999939 .42915345 .16899109 .44615174 .16899109 .48214723 .16899109 .5001526 .1619873 .53515627 .10998535 .53515627 .14099121 .6060791 .20899964 .62805178 .2559967 .62805178 .35598756 .62805178 .4079895 .5501404 .4079895 .46914674 .4079895 .38212586 .34599305 .3130951 .31399537 .27708436L.07299805 .038986207C.06298828 .02999878 .06298828 .027999878 .06298828 0H.47499085L.5049896 .18203736Z"/>
<path id="font_4_2" d="M.5289917 .1640625V.20005799H.41799928V.64582827C.41799928 .66682437 .41799928 .6738281 .3959961 .6738281 .38398744 .6738281 .37998963 .6738281 .36999513 .65982058L.038986207 .20005799V.1640625H.33299256V.08201599C.33299256 .04800415 .33299256 .035995485 .2519989 .035995485H.22499085V0C.2749939 .0019989014 .33898927 .0039978029 .375 .0039978029 .4119873 .0039978029 .47599793 .0019989014 .526001 0V.035995485H.49899293C.41799928 .035995485 .41799928 .04800415 .41799928 .08201599V.1640625H.5289917M.33999635 .5658722V.20005799H.07598877L.33999635 .5658722Z"/>
<path id="font_5_1" d="M.33399964 .30233766C.33999635 .32835389 .36299134 .42037965 .43299867 .42037965 .43798829 .42037965 .46199037 .42037965 .48298646 .40734864 .45498658 .402359 .43499757 .37734986 .43499757 .35334779 .43499757 .33735658 .44599916 .31835938 .47299195 .31835938 .49499513 .31835938 .5269928 .3363495 .5269928 .37635804 .5269928 .42837525 .46798707 .4423828 .43399049 .4423828 .37599183 .4423828 .34098817 .38935853 .32899476 .36634828 .3039856 .43237306 .25 .4423828 .22099304 .4423828 .116989139 .4423828 .05999756 .3133545 .05999756 .28834535 .05999756 .27833558 .069992069 .27833558 .07199097 .27833558 .07998657 .27833558 .08299255 .28033448 .084991458 .28933717 .11898804 .39535523 .18499756 .42037965 .21899414 .42037965 .23799134 .42037965 .272995 .4113617 .272995 .35334779 .272995 .32235719 .2559967 .25532533 .21899414 .11528015 .20298767 .053268434 .16799927 .011245728 .12399292 .011245728 .117996219 .011245728 .09498596 .011245728 .07398987 .024276734 .09899902 .029266358 .12098694 .05027771 .12098694 .07827759 .12098694 .105270389 .09899902 .11328125 .083999637 .11328125 .053985597 .11328125 .0289917 .08728027 .0289917 .055267335 .0289917 .009246826 .07899475-.0107421879 .12298584-.0107421879 .18899536-.0107421879 .22499085 .059280397 .22799683 .0652771 .23999024 .028274537 .27598573-.0107421879 .33599855-.0107421879 .43899537-.0107421879 .49598695 .118270877 .49598695 .14328003 .49598695 .1532898 .4869995 .1532898 .48399354 .1532898 .47499085 .1532898 .47299195 .14929199 .47099305 .14228821 .43798829 .03527832 .36999513 .011245728 .33799745 .011245728 .29899598 .011245728 .2829895 .043273927 .2829895 .07727051 .2829895 .09927368 .2889862 .121276859 .2999878 .16529846L.33399964 .30233766Z"/>
<path id="font_5_2" d="M.48599244 .38136292C.48999024 .39537049 .48999024 .39736939 .48999024 .40437318 .48999024 .42237855 .47599793 .43138124 .46099855 .43138124 .45098878 .43138124 .43499757 .42536927 .42599488 .41036988 .42399598 .405365 .41600038 .37435914 .4119873 .35635377 .40499879 .33035279 .397995 .30334474 .3919983 .27633668L.34700013 .09628296C.34298707 .08126831 .2999878 .011245728 .23399353 .011245728 .18299866 .011245728 .17199707 .055267335 .17199707 .0922699 .17199707 .1382904 .18899536 .20030213 .22299195 .28833009 .23899842 .3293457 .24299622 .3403473 .24299622 .36035157 .24299622 .405365 .21099854 .4423828 .16099549 .4423828 .06599426 .4423828 .0289917 .29733277 .0289917 .28833009 .0289917 .27833558 .038986207 .27833558 .040985109 .27833558 .050994874 .27833558 .051986696 .28033448 .056991579 .29634095 .083999637 .3903656 .12399292 .42037965 .1579895 .42037965 .1659851 .42037965 .18299866 .42037965 .18299866 .3883667 .18299866 .36335755 .17298889 .3373413 .1659851 .31834413 .12599182 .21231079 .10798645 .1552887 .10798645 .10827637 .10798645 .019256592 .17098999-.0107421879 .22999573-.0107421879 .2689972-.0107421879 .30299378 .0062561037 .33099366 .03425598 .31799317-.017745972 .30599977-.06674194 .2659912-.11973572 .23999024-.15385437 .20199585-.18309021 .1559906-.18309021 .14199829-.18309021 .09700012-.18005371 .07998657-.14074707 .09599304-.14074707 .10899353-.14074707 .12298584-.1287384 .1329956-.11973572 .14299011-.10673523 .14299011-.08773804 .14299011-.056747438 .115997318-.052734376 .10598755-.052734376 .08299255-.052734376 .049987794-.068740848 .049987794-.11773682 .049987794-.16796875 .09399414-.20507813 .1559906-.20507813 .25898744-.20507813 .3619995-.11373901 .3899994-.00074768069L.48599244 .38136292Z"/>
</defs>
<path transform="matrix(1.2500376,0,0,-1.25,1.966774,203.59349)" stroke-width=".19925" stroke-linecap="butt" stroke-miterlimit="10" stroke-linejoin="miter" fill="none" stroke="#929292" d="M8.83052 78.5728V82.82478M52.98314 78.5728V82.82478M141.28839 78.5728V82.82478M185.44103 78.5728V82.82478"/>
<path transform="matrix(1.2500376,0,0,-1.25,1.966774,203.59349)" stroke-width=".19925" stroke-linecap="butt" stroke-miterlimit="10" stroke-linejoin="miter" fill="none" stroke="#929292" d="M95.00983 20.17477H99.26169M95.00983 50.43698H99.26169M95.00983 110.9606H99.26169M95.00983 141.22278H99.26169"/>
<path transform="matrix(1.2500376,0,0,-1.25,1.966774,203.59349)" stroke-width=".3985" stroke-linecap="butt" stroke-miterlimit="10" stroke-linejoin="miter" fill="none" stroke="#000000" d="M0 80.69878H192.27902"/>
<path transform="matrix(1.2500376,0,0,-1.25,242.32279,102.72002)" d="M1.99252 0-1.19551 1.59401 0 0-1.19551-1.59401"/>
<path transform="matrix(1.2500376,0,0,-1.25,1.966774,203.59349)" stroke-width=".3985" stroke-linecap="butt" stroke-miterlimit="10" stroke-linejoin="miter" fill="none" stroke="#000000" d="M97.13577 0V159.40506"/>
<path transform="matrix(0,-1.25,-1.2500376,-0,123.39014,4.3371737)" d="M1.99252 0-1.19551 1.59401 0 0-1.19551-1.59401"/>
<use data-text="&#x2212;" xlink:href="#font_1_1" transform="matrix(12.453624,0,0,-12.45325,5.0481188,117.80224)"/>
<use data-text="2" xlink:href="#font_2_2" transform="matrix(12.453624,0,0,-12.45325,14.733414,117.80224)"/>
<use data-text="&#x2212;" xlink:href="#font_1_1" transform="matrix(12.453624,0,0,-12.45325,60.241025,117.80224)"/>
<use data-text="1" xlink:href="#font_2_1" transform="matrix(12.453624,0,0,-12.45325,69.926319,117.80224)"/>
<use data-text="1" xlink:href="#font_2_1" transform="matrix(12.453624,0,0,-12.45325,175.46949,117.80224)"/>
<use data-text="2" xlink:href="#font_2_2" transform="matrix(12.453624,0,0,-12.45325,230.66114,117.80224)"/>
<use data-text="&#x2212;" xlink:href="#font_1_1" transform="matrix(12.453624,0,0,-12.45325,97.5209,180.556)"/>
<use data-text="&#x03c0;" xlink:href="#font_3_1" transform="matrix(8.717512,0,0,-8.71725,108.70123,175.6535)"/>
<path transform="matrix(1.2500376,0,0,-1.25,-8.508537,-53.6865)" stroke-width=".3985" stroke-linecap="butt" stroke-miterlimit="10" stroke-linejoin="miter" fill="none" stroke="#000000" d="M93.765-184.904H98.674"/>
<use data-text="2" xlink:href="#font_4_1" transform="matrix(8.717512,0,0,-8.71725,109.287509,184.85102)"/>
<use data-text="&#x2212;" xlink:href="#font_1_1" transform="matrix(12.453624,0,0,-12.45325,97.5209,142.72849)"/>
<use data-text="&#x03c0;" xlink:href="#font_3_1" transform="matrix(8.717512,0,0,-8.71725,108.70123,137.82599)"/>
<path transform="matrix(1.2500376,0,0,-1.25,-8.508537,-91.51401)" stroke-width=".3985" stroke-linecap="butt" stroke-miterlimit="10" stroke-linejoin="miter" fill="none" stroke="#000000" d="M93.765-184.904H98.674"/>
<use data-text="4" xlink:href="#font_4_2" transform="matrix(8.717512,0,0,-8.71725,109.287509,147.0235)"/>
<use data-text="&#x03c0;" xlink:href="#font_3_1" transform="matrix(8.717512,0,0,-8.71725,108.70123,62.17099)"/>
<path transform="matrix(1.2500376,0,0,-1.25,1.1780014,-167.169)" stroke-width=".3985" stroke-linecap="butt" stroke-miterlimit="10" stroke-linejoin="miter" fill="none" stroke="#000000" d="M86.016-184.904H90.925"/>
<use data-text="4" xlink:href="#font_4_2" transform="matrix(8.717512,0,0,-8.71725,109.2875,71.3685)"/>
<use data-text="&#x03c0;" xlink:href="#font_3_1" transform="matrix(8.717512,0,0,-8.71725,108.70123,24.34349)"/>
<path transform="matrix(1.2500376,0,0,-1.25,1.1780014,-204.9965)" stroke-width=".3985" stroke-linecap="butt" stroke-miterlimit="10" stroke-linejoin="miter" fill="none" stroke="#000000" d="M86.016-184.904H90.925"/>
<use data-text="2" xlink:href="#font_4_1" transform="matrix(8.717512,0,0,-8.71725,109.2875,33.541)"/>
<path transform="matrix(1.2500376,0,0,-1.25,1.966774,203.59349)" stroke-width=".99628" stroke-linecap="butt" stroke-miterlimit="10" stroke-linejoin="miter" fill="none" stroke="#00aeef" d="M8.83052 20.17477 9.718 25.64464 10.6055 27.91527 11.493 29.65993 12.38048 31.13684 13.26797 32.44264 14.15547 33.62401 15.04297 34.71443 15.93047 35.7324 16.81796 36.68875 17.70544 37.59846 18.59294 38.4658 19.48044 39.29344 20.36794 40.09258 21.25543 40.8632 22.14291 41.6076 23.03041 42.33006 23.91792 43.03325 24.8054 43.71642 25.6929 44.38338 26.5804 45.03532 27.46788 45.67148 28.35538 46.29567 29.24287 46.90715 30.13037 47.50632 31.01787 48.0966 31.90535 48.67572 32.79285 49.24483 33.68036 49.80623 34.56784 50.35953 35.45534 50.9036 36.34283 51.44186 37.23032 51.97166 38.11781 52.49608 39.00533 53.01353 39.8928 53.52446 40.7803 54.03076 41.6678 54.53088 42.55528 55.02562 43.44278 55.51651 44.33028 56.00122 45.21777 56.4817 46.10527 56.95912 46.99275 57.43112 47.88026 57.89926 48.76776 58.36472 49.65524 58.82631 50.54274 59.2833 51.43024 59.73718 52.31772 60.18866 53.20523 60.63608 54.09273 61.08102 54.98021 61.5227 55.8677 61.96246 56.75519 62.39917 57.6427 62.83292 58.5302 63.26508 59.41768 63.69405 60.30518 64.12166 61.19269 64.54662 62.08017 64.96912 62.96767 65.39049 63.85516 65.80951 64.74265 66.22623 65.63014 66.64201 66.51765 67.05568 67.40514 67.4673 68.29263 67.87819 69.18011 68.28758 70.06761 68.69466 70.95512 69.10081 71.8426 69.50601 72.7301 69.90916 73.6176 70.3115 74.50508 70.7131 75.3926 71.11275 76.28009 71.51178 77.16757 71.91023 78.05507 72.30682 78.94257 72.7034 79.83005 73.09872 80.71754 73.49281 81.60504 73.88698 82.49254 74.27959 83.38004 74.67192 84.26752 75.06403 85.15503 75.45473 86.04253 75.8454 86.93001 76.23582 87.8175 76.62587 88.705 77.01466 89.59248 77.40346 90.48 77.79155 91.3675 78.18016 92.25497 78.5681 93.14247 78.95543 94.02995 79.34338 94.91747 79.73079 95.80496 80.11774 96.69244 80.50536 97.57994 80.89299 98.4675 81.27985 99.35489 81.66716 100.24245 82.05496 101.12987 82.44214 102.01741 82.82986 102.90495 83.21812 103.79239 83.60602 104.67992 83.99445 105.56734 84.38365 106.45488 84.77255 107.34244 85.1625 108.22984 85.55219 109.11739 85.94284 110.0048 86.33432 110.89236 86.72563 111.77989 87.118 112.66731 87.51137 113.55487 87.90477 114.44228 88.29924 115.32983 88.69496 116.21736 89.09074 117.10478 89.48819 117.99234 89.88614 118.87975 90.28482 119.7673 90.68529 120.65485 91.08649 121.54225 91.48842 122.42981 91.89236 123.31723 92.29756 124.20477 92.7029 125.09232 93.11081 125.97974 93.51976 126.86728 93.93028 127.7547 94.34229 128.64223 94.75638 129.52979 95.17136 130.4172 95.58849 131.30475 96.00789 132.19217 96.42847 133.07973 96.85136 133.96726 97.27672 134.85468 97.70354 135.74222 98.13338 136.62964 98.56465 137.51718 98.99887 138.40474 99.43599 139.29215 99.87486 140.1797 100.317 141.0671 100.76239 141.95465 101.20984 142.84221 101.66127 143.72962 102.11429 144.61716 102.5724 145.5046 103.03323 146.39212 103.49832 147.27968 103.96646 148.1671 104.43962 149.05464 104.91586 149.94205 105.39674 150.8296 105.88261 151.71715 106.37195 152.60457 106.86707 153.4921 107.36798 154.37952 107.87311 155.26708 108.3852 156.15462 108.90266 157.04204 109.42592 157.92958 109.95688 158.81699 110.49399 159.70455 111.03844 160.5921 111.59174 161.47949 112.15274 162.36705 112.723 163.25447 113.30211 164.14202 113.89127 165.02956 114.4908 165.91698 115.10304 166.80452 115.7261 167.69194 116.36418 168.57949 117.01495 169.46704 117.68117 170.35445 118.36584 171.24199 119.06789 172.12941 119.78996 173.01697 120.53554 173.9045 121.30577 174.79192 122.10414 175.67948 122.93372 176.56688 123.80026 177.45444 124.70882 178.34197 125.6663 179.22939 126.6847 180.11695 127.77356 181.00435 128.95609 181.8919 130.2619 182.77945 131.73763 183.66686 133.48464 184.55442 135.75835 185.44184 141.22278"/>
<use data-text="x" xlink:href="#font_5_1" transform="matrix(12.453624,0,0,-12.45325,233.29624,98.31973)"/>
<use data-text="y" xlink:href="#font_5_2" transform="matrix(12.453624,0,0,-12.45325,127.79055,11.60849)"/>
</svg>
