<svg xmlns="http://www.w3.org/2000/svg" xmlns:xlink="http://www.w3.org/1999/xlink" version="1.1" width="218" height="195" viewBox="0 0 218 195">
<defs>
<path id="font_1_1" d="M.6589966 .23046875C.6759949 .23046875 .69400027 .23046875 .69400027 .25045777 .69400027 .27046205 .6759949 .27046205 .6589966 .27046205H.117996219C.100997928 .27046205 .08299255 .27046205 .08299255 .25045777 .08299255 .23046875 .100997928 .23046875 .117996219 .23046875H.6589966Z"/>
<path id="font_2_1" d="M.1269989 .07699585 .23298645 .18003845C.3889923 .31811524 .44898988 .3721466 .44898988 .47216798 .44898988 .5860901 .35899354 .6660156 .23699951 .6660156 .12399292 .6660156 .049987794 .57411196 .049987794 .48516847 .049987794 .4291687 .099990848 .4291687 .102996829 .4291687 .11999512 .4291687 .15499878 .44117738 .15499878 .48217774 .15499878 .5081787 .13699341 .5341797 .101989749 .5341797 .09399414 .5341797 .09199524 .5341797 .08898926 .5331726 .11199951 .59806826 .1659851 .63500979 .22399903 .63500979 .31498719 .63500979 .35798646 .5541382 .35798646 .47216798 .35798646 .39215089 .30799867 .31311036 .25299073 .25108338L.06098938 .036987306C.049987794 .025985718 .049987794 .023986817 .049987794 0H.42099L.44898988 .17404175H.42399598C.4189911 .14402771 .4119873 .1000061 .4019928 .084991458 .394989 .07699585 .32899476 .07699585 .30699159 .07699585H.1269989Z"/>
<path id="font_3_1" d="M.2649994 .37265016H.37799073C.34498597 .22489929 .33599855 .18196106 .33599855 .11508179 .33599855 .100097659 .33599855 .073150638 .34399415 .03919983 .35398866-.0047454836 .36499024-.0107421879 .37998963-.0107421879 .3999939-.0107421879 .42099 .007247925 .42099 .02722168 .42099 .033218385 .42099 .035202028 .4149933 .049179079 .38598634 .12106323 .38598634 .18595886 .38598634 .21391297 .38598634 .26683045 .3929901 .32073976 .4039917 .37265016H.5179901C.5309906 .37265016 .5669861 .37265016 .5669861 .406662 .5669861 .43066407 .54599 .43066407 .5269928 .43066407H.19198609C.16999817 .43066407 .13198853 .43066407 .08799744 .38365174 .052993776 .34469605 .026992798 .29878236 .026992798 .29379273 .026992798 .29278565 .026992798 .28379823 .038986207 .28379823 .04699707 .28379823 .04899597 .28779603 .054992677 .29577638 .10398865 .37265016 .1619873 .37265016 .18199158 .37265016H.23899842C.20698548 .25186158 .15299988 .13105774 .11099243 .04020691 .102996829 .025222779 .102996829 .023223877 .102996829 .016235352 .102996829-.002746582 .11898804-.0107421879 .13198853-.0107421879 .1619873-.0107421879 .16999817 .017242432 .18199158 .05418396 .19599915 .100097659 .19599915 .10209656 .20899964 .15202332L.2649994 .37265016Z"/>
<path id="font_3_2" d="M.33399964 .30233766C.33999635 .32835389 .36299134 .42037965 .43299867 .42037965 .43798829 .42037965 .46199037 .42037965 .48298646 .40734864 .45498658 .402359 .43499757 .37734986 .43499757 .35334779 .43499757 .33735658 .44599916 .31835938 .47299195 .31835938 .49499513 .31835938 .5269928 .3363495 .5269928 .37635804 .5269928 .42837525 .46798707 .4423828 .43399049 .4423828 .37599183 .4423828 .34098817 .38935853 .32899476 .36634828 .3039856 .43237306 .25 .4423828 .22099304 .4423828 .116989139 .4423828 .05999756 .3133545 .05999756 .28834535 .05999756 .27833558 .069992069 .27833558 .07199097 .27833558 .07998657 .27833558 .08299255 .28033448 .084991458 .28933717 .11898804 .39535523 .18499756 .42037965 .21899414 .42037965 .23799134 .42037965 .272995 .4113617 .272995 .35334779 .272995 .32235719 .2559967 .25532533 .21899414 .11528015 .20298767 .053268434 .16799927 .011245728 .12399292 .011245728 .117996219 .011245728 .09498596 .011245728 .07398987 .024276734 .09899902 .029266358 .12098694 .05027771 .12098694 .07827759 .12098694 .105270389 .09899902 .11328125 .083999637 .11328125 .053985597 .11328125 .0289917 .08728027 .0289917 .055267335 .0289917 .009246826 .07899475-.0107421879 .12298584-.0107421879 .18899536-.0107421879 .22499085 .059280397 .22799683 .0652771 .23999024 .028274537 .27598573-.0107421879 .33599855-.0107421879 .43899537-.0107421879 .49598695 .118270877 .49598695 .14328003 .49598695 .1532898 .4869995 .1532898 .48399354 .1532898 .47499085 .1532898 .47299195 .14929199 .47099305 .14228821 .43798829 .03527832 .36999513 .011245728 .33799745 .011245728 .29899598 .011245728 .2829895 .043273927 .2829895 .07727051 .2829895 .09927368 .2889862 .121276859 .2999878 .16529846L.33399964 .30233766Z"/>
<path id="font_2_2" d="M.68699648 .32714845C.70199587 .32714845 .72099307 .32714845 .72099307 .34713746 .72099307 .36714173 .70199587 .36714173 .6879883 .36714173H.08898926C.07499695 .36714173 .055999757 .36714173 .055999757 .34713746 .055999757 .32714845 .07499695 .32714845 .08999634 .32714845H.68699648M.6879883 .13284302C.70199587 .13284302 .72099307 .13284302 .72099307 .15284729 .72099307 .17285156 .70199587 .17285156 .68699648 .17285156H.08999634C.07499695 .17285156 .055999757 .17285156 .055999757 .15284729 .055999757 .13284302 .07499695 .13284302 .08898926 .13284302H.6879883Z"/>
<path id="font_4_3" d="M.15499878 .5588074C.20599365 .5458069 .23599243 .5458069 .2519989 .5458069 .38398744 .5458069 .46199037 .6358032 .46199037 .6508026 .46199037 .6618042 .45498658 .6648102 .44999696 .6648102 .44799806 .6648102 .44599916 .6648102 .44198609 .6618042 .41799928 .6528015 .36499024 .6328125 .29100038 .6328125 .2630005 .6328125 .20999146 .6348114 .14498902 .6598053 .1349945 .6648102 .1329956 .6648102 .13198853 .6648102 .11898804 .6648102 .11898804 .6538086 .11898804 .6378021V.34251405C.11898804 .32548524 .11898804 .3134613 .1349945 .3134613 .14399719 .3134613 .14498902 .3154602 .15499878 .32748414 .19799805 .38259889 .25898744 .390625 .2939911 .390625 .35398866 .390625 .3809967 .34251405 .38598634 .33450318 .4039917 .30143739 .4099884 .26335145 .4099884 .20524597 .4099884 .17524719 .4099884 .116256717 .37998963 .07234192 .35499574 .03640747 .31199647 .012466431 .2630005 .012466431 .19799805 .012466431 .1309967 .04838562 .10598755 .11425781 .14399719 .11125183 .16299439 .13624573 .16299439 .16325379 .16299439 .20625305 .12599182 .21424866 .11299133 .21424866 .11099243 .21424866 .06298828 .21424866 .06298828 .1602478 .06298828 .07034302 .14498902-.01953125 .2649994-.01953125 .3929901-.01953125 .5049896 .07533264 .5049896 .20124817 .5049896 .31445313 .4189911 .41862489 .29499818 .41862489 .25099183 .41862489 .19898987 .4076233 .15499878 .36956788V.5588074Z"/>
<path id="font_5_1" d="M.31098939 .36265565H.42999269C.4149933 .30274964 .3929901 .2118988 .3929901 .13302613 .3929901 .09309387 .397995 .06613159 .4039917 .044174196 .41999818-.0057678224 .43299867-.009765625 .44898988-.009765625 .47200013-.009765625 .49598695 .011230469 .49598695 .035186769 .49598695 .043182374 .49398805 .047164918 .48799134 .057159425 .46899415 .09408569 .45098878 .15100098 .45098878 .23286438 .45098878 .25183106 .45098878 .29177857 .46499635 .36265565H.58999636C.60798647 .36265565 .6159973 .36265565 .6269989 .37065126 .6409912 .380661 .6439972 .39665223 .6439972 .4016571 .6439972 .43066407 .6179962 .43066407 .6009979 .43066407H.22399903C.18299866 .43066407 .15499878 .42166139 .10998535 .37965394 .083999637 .35665895 .04499817 .30274964 .04499817 .2937622 .04499817 .28178407 .057998659 .28178407 .06199646 .28178407 .07299805 .28178407 .07398987 .28378297 .07998657 .2927704 .1309967 .36265565 .19299317 .36265565 .21499634 .36265565H.27598573C.24499512 .25283814 .19099427 .13502503 .16099549 .07511902 .15499878 .062149049 .14498902 .04118347 .14199829 .03718567 .14099121 .033187868 .13899231 .029190064 .13899231 .022201539 .13899231 .006225586 .15098572-.009765625 .17399597-.009765625 .21398926-.009765625 .22499085 .035186769 .24899292 .12504578L.31098939 .36265565Z"/>
<path id="font_4_1" d="M.5049896 .18203736H.47099305C.46798707 .16001892 .45799256 .100997928 .44499208 .09098816 .43699647 .084991458 .3600006 .084991458 .34599305 .084991458H.1619873C.2669983 .17803955 .3019867 .20603943 .3619995 .25306703 .43598939 .312088 .5049896 .374115 .5049896 .46914674 .5049896 .5900879 .39898683 .6640625 .2709961 .6640625 .14698792 .6640625 .06298828 .57710269 .06298828 .4851532 .06298828 .43414308 .10598755 .42915345 .115997318 .42915345 .13999939 .42915345 .16899109 .44615174 .16899109 .48214723 .16899109 .5001526 .1619873 .53515627 .10998535 .53515627 .14099121 .6060791 .20899964 .62805178 .2559967 .62805178 .35598756 .62805178 .4079895 .5501404 .4079895 .46914674 .4079895 .38212586 .34599305 .3130951 .31399537 .27708436L.07299805 .038986207C.06298828 .02999878 .06298828 .027999878 .06298828 0H.47499085L.5049896 .18203736Z"/>
<path id="font_4_2" d="M.272995 .33428956C.35099793 .33428956 .40699769 .2803192 .40699769 .1733551 .40699769 .04940796 .33499146 .012466431 .2769928 .012466431 .23699951 .012466431 .14898682 .0234375 .10699463 .082351688 .1539917 .084350589 .16499329 .11735535 .16499329 .13835144 .16499329 .17034912 .14099121 .19335938 .10998535 .19335938 .08198547 .19335938 .053985597 .17634583 .053985597 .13534546 .053985597 .041412355 .1579895-.01953125 .2789917-.01953125 .41799928-.01953125 .5139923 .07336426 .5139923 .1733551 .5139923 .2513275 .44999696 .32929994 .33999635 .35229493 .44499208 .39024354 .48298646 .4650879 .48298646 .5260773 .48298646 .60505679 .3919983 .6640625 .2809906 .6640625 .16999817 .6640625 .084991458 .61006167 .084991458 .5300751 .084991458 .49606324 .10699463 .47706605 .13699341 .47706605 .16799927 .47706605 .18798828 .5000763 .18798828 .5280762 .18798828 .5570679 .16799927 .57806399 .13699341 .5800781 .17199707 .62405398 .24099732 .63505557 .27799989 .63505557 .32299806 .63505557 .38598634 .6130676 .38598634 .5260773 .38598634 .48406983 .37199403 .43814088 .34599305 .4072113 .31298829 .36927796 .2849884 .3672943 .23498535 .36428834 .20999146 .3623047 .20799256 .3623047 .20298767 .3612976 .20098877 .3612976 .19299317 .3592987 .19299317 .34829713 .19299317 .33428956 .20199585 .33428956 .21899414 .33428956H.272995Z"/>
<path id="font_3_3" d="M.48599244 .38136292C.48999024 .39537049 .48999024 .39736939 .48999024 .40437318 .48999024 .42237855 .47599793 .43138124 .46099855 .43138124 .45098878 .43138124 .43499757 .42536927 .42599488 .41036988 .42399598 .405365 .41600038 .37435914 .4119873 .35635377 .40499879 .33035279 .397995 .30334474 .3919983 .27633668L.34700013 .09628296C.34298707 .08126831 .2999878 .011245728 .23399353 .011245728 .18299866 .011245728 .17199707 .055267335 .17199707 .0922699 .17199707 .1382904 .18899536 .20030213 .22299195 .28833009 .23899842 .3293457 .24299622 .3403473 .24299622 .36035157 .24299622 .405365 .21099854 .4423828 .16099549 .4423828 .06599426 .4423828 .0289917 .29733277 .0289917 .28833009 .0289917 .27833558 .038986207 .27833558 .040985109 .27833558 .050994874 .27833558 .051986696 .28033448 .056991579 .29634095 .083999637 .3903656 .12399292 .42037965 .1579895 .42037965 .1659851 .42037965 .18299866 .42037965 .18299866 .3883667 .18299866 .36335755 .17298889 .3373413 .1659851 .31834413 .12599182 .21231079 .10798645 .1552887 .10798645 .10827637 .10798645 .019256592 .17098999-.0107421879 .22999573-.0107421879 .2689972-.0107421879 .30299378 .0062561037 .33099366 .03425598 .31799317-.017745972 .30599977-.06674194 .2659912-.11973572 .23999024-.15385437 .20199585-.18309021 .1559906-.18309021 .14199829-.18309021 .09700012-.18005371 .07998657-.14074707 .09599304-.14074707 .10899353-.14074707 .12298584-.1287384 .1329956-.11973572 .14299011-.10673523 .14299011-.08773804 .14299011-.056747438 .115997318-.052734376 .10598755-.052734376 .08299255-.052734376 .049987794-.068740848 .049987794-.11773682 .049987794-.16796875 .09399414-.20507813 .1559906-.20507813 .25898744-.20507813 .3619995-.11373901 .3899994-.00074768069L.48599244 .38136292Z"/>
</defs>
<path transform="matrix(1.00005,0,0,-1.00003,14.40197,178.69197)" stroke-width=".19925" stroke-linecap="butt" stroke-miterlimit="10" stroke-linejoin="miter" fill="none" stroke="#929292" d="M24.07825 78.57193V82.82379M60.60867 78.57193V82.82379M133.6695 78.57193V82.82379M170.19992 78.57193V82.82379"/>
<path transform="matrix(1.00005,0,0,-1.00003,14.40197,178.69197)" stroke-width=".19925" stroke-linecap="butt" stroke-miterlimit="10" stroke-linejoin="miter" fill="none" stroke="#929292" d="M95.01306 31.79007H99.26509M95.01306 129.60569H99.26509"/>
<path transform="matrix(1.00005,0,0,-1.00003,14.40197,178.69197)" stroke-width=".3985" stroke-linecap="butt" stroke-miterlimit="10" stroke-linejoin="miter" fill="none" stroke="#000000" d="M0 80.69788H192.28565"/>
<path transform="matrix(1.00005,0,0,-1.00003,206.6972,97.99166)" d="M1.99252 0-1.19551 1.59401 0 0-1.19551-1.59401"/>
<path transform="matrix(1.00005,0,0,-1.00003,14.40197,178.69197)" stroke-width=".3985" stroke-linecap="butt" stroke-miterlimit="10" stroke-linejoin="miter" fill="none" stroke="#000000" d="M97.13908 0V159.40323"/>
<path transform="matrix(0,-1.00003,-1.00005,-0,111.5459,19.28395)" d="M1.99252 0-1.19551 1.59401 0 0-1.19551-1.59401"/>
<use data-text="&#x2212;" xlink:href="#font_1_1" transform="matrix(9.963098,0,0,-9.962899,29.097702,110.05791)"/>
<use data-text="2" xlink:href="#font_2_1" transform="matrix(9.963098,0,0,-9.962899,36.84709,110.05791)"/>
<use data-text="&#x03c0;" xlink:href="#font_3_1" transform="matrix(9.963098,0,0,-9.962899,41.82833,110.05791)"/>
<use data-text="&#x2212;" xlink:href="#font_1_1" transform="matrix(9.963098,0,0,-9.962899,68.12065,109.44889)"/>
<use data-text="&#x03c0;" xlink:href="#font_3_1" transform="matrix(9.963098,0,0,-9.962899,75.87004,109.44889)"/>
<use data-text="&#x03c0;" xlink:href="#font_3_1" transform="matrix(9.963098,0,0,-9.962899,145.05951,107.92684)"/>
<use data-text="2" xlink:href="#font_2_1" transform="matrix(9.963098,0,0,-9.962899,179.1012,110.05791)"/>
<use data-text="&#x03c0;" xlink:href="#font_3_1" transform="matrix(9.963098,0,0,-9.962899,184.08344,110.05791)"/>
<use data-text="&#x2212;" xlink:href="#font_1_1" transform="matrix(9.963098,0,0,-9.962899,93.16891,149.6961)"/>
<use data-text="2" xlink:href="#font_2_1" transform="matrix(9.963098,0,0,-9.962899,100.9183,149.6961)"/>
<use data-text="2" xlink:href="#font_2_1" transform="matrix(9.963098,0,0,-9.962899,100.91829,52.293176)"/>
<path transform="matrix(1.00005,0,0,-1.00003,14.40197,178.69197)" stroke-width=".99628" stroke-linecap="butt" stroke-miterlimit="10" stroke-linejoin="miter" fill="none" stroke="#0000ff" d="M9.42732 4.55383 9.45088 5.09691 9.59938 8.2742 9.7479 11.21162 9.89641 13.94653 10.0449 16.49806 10.19342 18.88058 10.34193 21.11787 10.49043 23.22067 10.63895 25.19632 10.78746 27.06606 10.93596 28.83113 11.08446 30.50084 11.23296 32.08937 11.38147 33.59598 11.52998 35.03265 11.67848 36.40205 11.827 37.70985 11.97551 38.95872 12.12401 40.15475 12.27252 41.30164 12.42102 42.40085 12.56953 43.458 12.71805 44.47601 12.86655 45.45392 13.01505 46.39882 13.16356 47.30923 13.31206 48.18884 13.46057 49.03789 13.60907 49.86002 13.75758 50.65698 13.9061 51.42874 14.0546 52.1763 14.20311 52.90356 14.35162 53.6093 14.50012 54.29425 14.64864 54.96234 14.79715 55.61061 14.94563 56.24397 15.09415 56.86119 15.24265 57.46274 15.39116 58.04964 15.53967 58.62332 15.68817 59.18356 15.83669 59.73134 15.9852 60.2671 16.1337 60.79214 16.28221 61.30666 16.43071 61.80968 16.57922 62.3034 16.72774 62.78783 16.87622 63.26418 17.02473 63.73027 17.17325 64.18953 17.32175 64.63995 17.47026 65.08282 17.61876 65.51907 17.76727 65.94849 17.91579 66.37082 18.06429 66.78726 18.2128 67.19785 18.36131 67.6028 18.5098 68.00189 18.65831 68.3956 18.80681 68.78514 18.95532 69.16833 19.10384 69.5481 19.25233 69.92346 19.40085 70.29396 19.54936 70.66125 19.69786 71.0239 19.84637 71.38362 19.99489 71.73918 20.14339 72.09229 20.2919 72.44174 20.44038 72.78801 20.5889 73.13184 20.73741 73.47197 20.88591 73.81041 21.03442 74.14716 21.18294 74.4807 21.33144 74.81206 21.47995 75.1412 21.62845 75.46838 21.77696 75.79437 21.92548 76.11862 22.07397 76.44067 22.22249 76.76201 22.37099 77.08186 22.51949 77.40001 22.668 77.7179 22.8165 78.0341 22.96501 78.34969 23.11353 78.6645 23.26202 78.97864 23.41054 79.29208 23.55905 79.60558 23.70755 79.91835 23.85606 80.23096 24.00456 80.54306 24.15308 80.85486 24.30159 81.16751 24.45007 81.47958 24.5986 81.79257 24.7471 82.10541 24.8956 82.41978 25.04413 82.73343 25.19263 83.04832 25.34113 83.36383 25.48962 83.68025 25.63814 83.99815 25.78665 84.31654 25.93515 84.63641 26.08366 84.95723 26.23216 85.28003 26.38068 85.6038 26.52919 85.92952 26.67769 86.25697 26.82619 86.58635 26.97469 86.91795 27.12321 87.252 27.27171 87.58775 27.42021 87.92644 27.56874 88.26683 27.71722 88.61017 27.86574 88.95717 28.01425 89.30685 28.16275 89.65924 28.31126 90.01505 28.45976 90.37402 28.60828 90.73792 28.7568 91.10472 28.90529 91.47519 29.0538 91.85056 29.2023 92.22958 29.35081 92.614 29.49933 93.00307 29.64781 93.39726 29.79634 93.79611 29.94484 94.2013 30.09334 94.61092 30.24187 95.02809 30.39037 95.4509 30.53886 95.88007 30.68736 96.31631 30.83588 96.75943 30.98439 97.21037 31.13289 97.66936 31.2814 98.13643 31.4299 98.61107 31.57843 99.09576 31.72693 99.58948 31.87543 100.09348 32.02394 100.60773 32.17244 101.13228 32.32095 101.66928 32.46947 102.21632 32.61797 102.77779 32.76648 103.35098 32.91496 103.93788 33.06349 104.53944 33.21199 105.15617 33.36049 105.79001 33.50902 106.4383 33.6575 107.10588 33.80602 107.79279 33.95454 108.49854 34.10303 109.22456 34.25154 109.9731 34.40004 110.74512 34.54855 111.54134 34.69707 112.3642 34.84555 113.21495 34.99408 114.0943 35.14258 115.0045 35.29108 115.9489 35.4396 116.92827 35.5881 117.94409 35.7366 119.00221 35.88512 120.10289 36.03362 121.2505 36.18214 122.44556 36.33064 123.6976 36.47914 125.00345 36.62764 126.37457 36.77617 127.8083 36.92467 129.3176 37.07317 130.90564 37.22168 132.5795 37.37018 134.34484 37.51869 136.2136 37.6672 138.19144 37.8157 140.293 37.96422 142.53151 38.1127 144.91699 38.26123 147.4685 38.40973 150.20563 38.55823 153.15013 38.70676 156.32498 38.73058 156.87392"/>
<path transform="matrix(-.04324216,.99904009,.9990599,.0432413,23.829762,174.13799)" d="M2.8892 0-1.73352 2.31136 0 0-1.73352-2.31136" fill="#0000ff"/>
<path transform="matrix(.043152159,-.99904009,-.9990599,-.043151298,53.134485,21.813355)" d="M2.8892 0-1.73352 2.31136 0 0-1.73352-2.31136" fill="#0000ff"/>
<path transform="matrix(1.00005,0,0,-1.00003,14.40197,178.69197)" stroke-width=".99628" stroke-linecap="butt" stroke-miterlimit="10" stroke-linejoin="miter" fill="none" stroke="#0000ff" d="M45.95663 4.5299 45.98035 5.07562 46.12886 8.25366 46.27737 11.19499 46.42587 13.93431 46.57439 16.47923 46.7229 18.86617 46.87141 21.10272 47.01993 23.20575 47.16843 25.1836 47.31694 27.0526 47.46545 28.81844 47.61395 30.4923 47.76247 32.08105 47.911 33.58937 48.0595 35.0253 48.20801 36.39424 48.3565 37.7013 48.50502 38.95016 48.65353 40.14767 48.80205 41.29529 48.95056 42.39546 49.09908 43.45236 49.24757 44.4694 49.39609 45.44951 49.54459 46.39198 49.6931 47.3036 49.84163 48.18347 49.99013 49.03299 50.13864 49.85587 50.28716 50.65257 50.43565 51.42384 50.58417 52.1719 50.73267 52.89867 50.8812 53.60513 51.02971 54.29108 51.1782 54.95842 51.32672 55.60768 51.47523 56.24103 51.62373 56.85774 51.77226 57.45932 51.92076 58.04572 52.06927 58.62015 52.21779 59.18062 52.36629 59.7284 52.5148 60.26442 52.66331 60.78944 52.81183 61.30371 52.96034 61.80746 53.10886 62.3012 53.25735 62.78539 53.40587 63.26076 53.55437 63.72807 53.7029 64.18658 53.85141 64.63727 53.99991 65.08061 54.14842 65.51714 54.29694 65.9458 54.44543 66.3686 54.59395 66.78506 54.74246 67.19563 54.89098 67.60107 55.03949 67.9997 55.18799 68.39363 55.3365 68.78246 55.48502 69.16687 55.63353 69.5459 55.78204 69.92177 55.93054 70.29224 56.07906 70.65953 56.22757 71.02243 56.37607 71.38165 56.52458 71.73746 56.67311 72.09009 56.82161 72.43929 56.97012 72.78629 57.11862 73.12987 57.26714 73.47101 57.41565 73.8092 57.56416 74.14519 57.71268 74.47925 57.86119 74.81058 58.00969 75.13998 58.1582 75.46693 58.3067 75.79265 58.45523 76.11717 58.60374 76.43971 58.75224 76.76054 58.90076 77.0804 59.04927 77.39854 59.19777 77.7162 59.34628 78.03337 59.49481 78.34845 59.64331 78.66306 59.79182 78.97714 59.94032 79.2911 60.08884 79.60413 60.23735 79.91689 60.38586 80.22946 60.53438 80.54184 60.68289 80.85388 60.8314 81.16626 60.9799 81.47835 61.12842 81.79112 61.27692 82.1044 61.42545 82.41832 61.57394 82.73221 61.72246 83.0468 61.87097 83.36235 62.01947 83.67928 62.16798 83.9967 62.3165 84.31534 62.465 84.63518 62.61353 84.95602 62.76201 85.27856 62.91054 85.60233 63.05907 85.9288 63.20755 86.25623 63.35608 86.58514 63.50456 86.91624 63.65309 87.25053 63.80162 87.58653 63.9501 87.92448 64.09863 88.26537 64.24713 88.60944 64.39565 88.9557 64.54416 89.3054 64.69266 89.65778 64.84117 90.01407 64.98969 90.37305 65.13818 90.73619 65.28671 91.103 65.43521 91.47395 65.58372 91.84933 65.73222 92.22887 65.88075 92.6128 66.02927 93.00209 66.17776 93.39604 66.32628 93.79465 66.47478 94.19984 66.6233 94.61017 66.77182 95.02711 66.92032 95.44943 67.06885 95.87811 67.21733 96.31487 67.36586 96.7577 67.51436 97.2089 67.66287 97.66766 67.81139 98.13496 67.95988 98.61035 68.10841 99.09428 68.25693 99.58826 68.40543 100.09177 68.55394 100.60628 68.70244 101.13203 68.85095 101.66708 68.99948 102.2151 69.14796 102.77559 69.2965 103.34903 69.44499 103.9364 69.5935 104.53798 69.74203 105.1547 69.89052 105.78806 70.03905 106.43732 70.18755 107.10391 70.33606 107.79059 70.48457 108.49657 70.63309 109.22261 70.78159 109.97113 70.9301 110.74315 71.07863 111.53961 71.22713 112.362 71.37564 113.21225 71.52414 114.09212 71.67265 115.00229 71.82117 115.94621 71.96968 116.92583 72.11818 117.94287 72.26671 118.99953 72.41519 120.10043 72.56372 121.2466 72.71223 122.44409 72.86073 123.69418 73.00926 125.0005 73.15775 126.37236 73.30627 127.80635 73.4548 129.31467 73.60329 130.90345 73.75182 132.57535 73.9003 134.34044 74.04883 136.20944 74.19734 138.18898 74.34584 140.29007 74.49435 142.52712 74.64287 144.91284 74.79137 147.46509 74.9399 150.20075 75.08838 153.14206 75.23691 156.3201 75.26033 156.86049"/>
<path transform="matrix(-.043202159,.99905,.99906989,.043201299,60.360918,174.16191)" d="M2.8892 0-1.73352 2.31136 0 0-1.73352-2.31136" fill="#0000ff"/>
<path transform="matrix(.04329216,-.99904009,-.9990599,-.0432913,89.66606,21.826783)" d="M2.8892 0-1.73352 2.31136 0 0-1.73352-2.31136" fill="#0000ff"/>
<path transform="matrix(1.00005,0,0,-1.00003,14.40197,178.69197)" stroke-width=".99628" stroke-linecap="butt" stroke-miterlimit="10" stroke-linejoin="miter" fill="none" stroke="#0000ff" d="M82.487 4.52986 82.51085 5.08249 82.65936 8.25366 82.80788 11.19499 82.95638 13.92892 83.10489 16.4829 83.2534 18.8691 83.4019 21.1042 83.55043 23.20967 83.69894 25.18776 83.84744 27.05528 83.99596 28.8221 84.14447 30.49449 84.29297 32.08105 84.4415 33.58937 84.59 35.02554 84.73851 36.39522 84.88702 37.70349 85.03552 38.95212 85.18404 40.14987 85.33255 41.29529 85.48106 42.3962 85.62958 43.45384 85.77808 44.46965 85.92659 45.44951 86.0751 46.39343 86.2236 47.3036 86.37213 48.18347 86.52065 49.03374 86.66914 49.85611 86.81766 50.65184 86.96616 51.42384 87.11467 52.17264 87.26318 52.89915 87.4117 53.60513 87.56021 54.29108 87.70872 54.95842 87.85722 55.60768 88.00574 56.24103 88.15424 56.85774 88.30276 57.45932 88.45128 58.04669 88.59978 58.62039 88.74829 59.18135 88.8968 59.7284 89.0453 60.26491 89.19382 60.78944 89.34235 61.30371 89.49084 61.80746 89.63936 62.30144 89.78786 62.78539 89.93637 63.26076 90.08488 63.72833 90.23338 64.18732 90.38191 64.63802 90.53043 65.08061 90.67892 65.51761 90.82744 65.9458 90.97594 66.36935 91.12445 66.78555 91.27298 67.19588 91.42148 67.60107 91.56999 67.99994 91.7185 68.39413 91.867 68.78294 92.01552 69.16687 92.16402 69.5464 92.31255 69.92177 92.46106 70.29272 92.60956 70.66002 92.75807 71.02316 92.90659 71.38165 93.05508 71.73795 93.2036 72.09009 93.35211 72.44002 93.50063 72.78629 93.64914 73.13036 93.79764 73.47101 93.94615 73.8092 94.09468 74.14519 94.24318 74.47874 94.3917 74.81058 94.54019 75.13998 94.6887 75.46693 94.83722 75.79265 94.98572 76.11717 95.13425 76.43971 95.28276 76.76054 95.43126 77.08064 95.57977 77.39903 95.72829 77.71645 95.87679 78.03337 96.02531 78.34892 96.17381 78.6635 96.32233 78.9774 96.47084 79.2911 96.61934 79.6046 96.76785 79.91737 96.91637 80.22993 97.06488 80.54184 97.2134 80.85388 97.3619 81.16626 97.5104 81.47835 97.65892 81.79112 97.80742 82.10461 97.95593 82.41832 98.10446 82.73221 98.25294 83.04727 98.40147 83.36235 98.54996 83.67928 98.69849 83.9972 98.84702 84.31534 98.9955 84.63567 99.14403 84.95602 99.29253 85.27931 99.44104 85.60307 99.58957 85.9288 99.73805 86.25623 99.88658 86.58563 100.03508 86.91698 100.1836 87.25053 100.3321 87.58653 100.48062 87.92473 100.62912 88.26634 100.77763 88.60944 100.92615 88.9557 101.07466 89.30563 101.22318 89.65826 101.37167 90.01407 101.52019 90.37329 101.6687 90.73668 101.81721 91.10349 101.96571 91.47395 102.11424 91.84982 102.26273 92.22934 102.41125 92.61327 102.55977 93.00233 102.70827 93.39604 102.8568 93.79465 103.00528 94.20009 103.15381 94.61066 103.30234 95.02736 103.45082 95.44994 103.59935 95.87935 103.74783 96.31511 103.89636 96.75797 104.04488 97.20914 104.19337 97.66766 104.34189 98.13496 104.4904 98.61035 104.6389 99.09453 104.78743 99.58899 104.93591 100.09201 105.08444 100.60701 105.23294 101.13203 105.38145 101.66733 105.52998 102.2151 105.67848 102.7763 105.827 103.34952 105.9755 103.9364 106.12401 104.53822 106.27254 105.1547 106.42104 105.78879 106.56955 106.43805 106.71805 107.10564 106.86658 107.79108 107.01508 108.49657 107.16359 109.22308 107.31209 109.97188 107.4606 110.74388 107.60912 111.53986 107.75763 112.36275 107.90613 113.21422 108.05466 114.09334 108.20314 115.00253 108.35167 115.94695 108.5002 116.92632 108.64868 117.94336 108.79721 119.00026 108.9457 120.10043 109.09422 121.24805 109.24275 122.44409 109.39124 123.69443 109.53976 125.00099 109.68826 126.37286 109.83678 127.80635 109.98529 129.3176 110.13379 130.90296 110.2823 132.5773 110.43082 134.34313 110.57933 136.21215 110.72784 138.19046 110.87636 140.29007 111.02486 142.53078 111.17337 144.91356 111.32187 147.4668 111.4704 150.20563 111.6189 153.14206 111.76741 156.31813 111.79115 156.86582"/>
<path transform="matrix(-.043152159,.99904009,.9990599,.043151298,96.89309,174.16196)" d="M2.8892 0-1.73352 2.31136 0 0-1.73352-2.31136" fill="#0000ff"/>
<path transform="matrix(.043182158,-.99905,-.99906989,-.043181298,126.19871,21.821457)" d="M2.8892 0-1.73352 2.31136 0 0-1.73352-2.31136" fill="#0000ff"/>
<path transform="matrix(1.00005,0,0,-1.00003,14.40197,178.69197)" stroke-width=".99628" stroke-linecap="butt" stroke-miterlimit="10" stroke-linejoin="miter" fill="none" stroke="#0000ff" d="M119.01738 4.52724 119.04112 5.07562 119.18964 8.25366 119.33813 11.19499 119.48665 13.92892 119.63516 16.47923 119.78368 18.86617 119.93219 21.1042 120.08069 23.20575 120.2292 25.1836 120.37772 27.05162 120.52621 28.81844 120.67474 30.49107 120.82324 32.08105 120.97176 33.58669 121.12027 35.02286 121.26877 36.39424 121.41728 37.7013 121.56581 38.95016 121.71431 40.14693 121.86282 41.29382 122.01132 42.39546 122.15984 43.45236 122.30835 44.4694 122.45685 45.44879 122.60538 46.39198 122.75389 47.30167 122.90239 48.18224 123.0509 49.0325 123.19942 49.85587 123.34792 50.65184 123.49644 51.42384 123.64494 52.17264 123.79346 52.89867 123.94197 53.60391 124.09047 54.28984 124.23898 54.95769 124.38751 55.60695 124.53601 56.2398 124.68452 56.8575 124.83302 57.45883 124.98154 58.04572 125.13005 58.61942 125.27855 59.1799 125.42708 59.7279 125.57559 60.26369 125.72409 60.78944 125.8726 61.303 126.0211 61.80746 126.16962 62.3012 126.31815 62.78514 126.46664 63.26076 126.61516 63.72758 126.76367 64.18658 126.91217 64.63727 127.06068 65.08014 127.20918 65.51639 127.35771 65.94556 127.50623 66.36836 127.65472 66.78506 127.80324 67.19563 127.95175 67.60107 128.10025 67.9997 128.24877 68.39339 128.39728 68.78294 128.54579 69.16638 128.6943 69.5459 128.8428 69.92177 128.99132 70.29175 129.13983 70.65904 129.28835 71.02194 129.43686 71.38141 129.58538 71.73746 129.73387 72.09009 129.88239 72.44002 130.03089 72.78629 130.1794 73.12987 130.32793 73.47101 130.47643 73.8092 130.62494 74.14496 130.77346 74.4785 130.92195 74.81058 131.07047 75.1395 131.21898 75.46693 131.3675 75.7924 131.516 76.11642 131.6645 76.43971 131.81302 76.76006 131.96154 77.0804 132.11005 77.39903 132.25856 77.7162 132.40706 78.03238 132.55558 78.34845 132.70409 78.66306 132.85259 78.97714 133.0011 79.2911 133.14963 79.60413 133.29813 79.91737 133.44664 80.22946 133.59514 80.54135 133.74365 80.85388 133.89218 81.16579 134.04067 81.47815 134.1892 81.79112 134.33769 82.1044 134.4862 82.41782 134.63474 82.73222 134.78322 83.04683 134.93175 83.36212 135.08025 83.6788 135.22876 83.9967 135.37728 84.31534 135.52579 84.63493 135.67429 84.95529 135.8228 85.27856 135.97132 85.60233 136.11983 85.92807 136.26833 86.25574 136.41684 86.5849 136.56534 86.91624 136.71387 87.25053 136.86238 87.58653 137.01088 87.92448 137.15941 88.26537 137.30789 88.60919 137.45642 88.9557 137.60494 89.3054 137.75344 89.65778 137.90196 90.01358 138.05045 90.37305 138.19898 90.7357 138.34749 91.103 138.49599 91.47395 138.6445 91.84909 138.793 92.22887 138.94153 92.6128 139.09004 93.00134 139.23854 93.39531 139.38706 93.79465 139.53557 94.19984 139.68407 94.60992 139.8326 95.02637 139.98108 95.44943 140.12961 95.87811 140.2781 96.31487 140.42662 96.7577 140.57515 97.2089 140.72365 97.6674 140.87216 98.13448 141.02066 98.61035 141.16918 99.0938 141.3177 99.58826 141.4662 100.09177 141.61472 100.60628 141.76322 101.13081 141.91175 101.66708 142.06024 102.2151 142.20876 102.77559 142.35727 103.34903 142.50577 103.93567 142.65428 104.53798 142.8028 105.1547 142.9513 105.78732 143.09983 106.43732 143.2483 107.10464 143.39684 107.79059 143.54537 108.49657 143.69385 109.22308 143.84238 109.97163 143.99086 110.74315 144.13939 111.53986 144.28792 112.36275 144.4364 113.21153 144.58493 114.09088 144.73343 115.00156 144.88195 115.94621 145.03046 116.92583 145.17896 117.94188 145.32747 118.99953 145.47599 120.10043 145.62448 121.2466 145.77301 122.44362 145.92151 123.69272 146.07003 125.0005 146.21852 126.37018 146.36704 127.80635 146.51557 129.31467 146.66407 130.90345 146.81258 132.57315 146.96108 134.34044 147.1096 136.20798 147.25812 138.18605 147.40662 140.29152 147.55513 142.52663 147.70363 144.9099 147.85216 147.46239 148.00066 150.1966 148.14917 153.14206 148.29769 156.31325 148.32143 156.86045"/>
<path transform="matrix(-.043182158,.99905,.99906989,.043181298,133.4253,174.16458)" d="M2.8892 0-1.73352 2.31136 0 0-1.73352-2.31136" fill="#0000ff"/>
<path transform="matrix(.043182158,-.99905,-.99906989,-.043181298,162.7308,21.826828)" d="M2.8892 0-1.73352 2.31136 0 0-1.73352-2.31136" fill="#0000ff"/>
<path transform="matrix(1.00005,0,0,-1.00003,14.40197,178.69197)" stroke-width=".99628" stroke-linecap="butt" stroke-miterlimit="10" stroke-linejoin="miter" fill="none" stroke="#0000ff" d="M155.54788 4.5299 155.57163 5.07759 155.72013 8.25366 155.86862 11.19449 156.01714 13.93431 156.16565 16.4829 156.31415 18.86617 156.46266 21.10272 156.61118 23.20674 156.75968 25.18628 156.90819 27.0526 157.05669 28.82037 157.2052 30.4923 157.35372 32.07935 157.50222 33.58669 157.65071 35.02286 157.79923 36.39522 157.94773 37.7013 158.09624 38.95016 158.24474 40.14767 158.39325 41.29382 158.54177 42.39546 158.69026 43.45164 158.83878 44.4694 158.98729 45.4483 159.13579 46.39198 159.2843 47.3024 159.43282 48.18274 159.5813 49.03299 159.72982 49.85587 159.87831 50.65184 160.02683 51.42336 160.17534 52.1719 160.32384 52.89842 160.47235 53.60464 160.62087 54.29108 160.76937 54.95769 160.91788 55.60695 161.06638 56.24054 161.21489 56.85703 161.3634 57.45932 161.51189 58.045 161.6604 58.61893 161.80892 59.1799 161.95742 59.7279 162.10593 60.26369 162.25443 60.78873 162.40294 61.303 162.55146 61.80673 162.69995 62.30045 162.84847 62.78514 162.99698 63.26051 163.14546 63.72758 163.29398 64.18611 163.44248 64.63654 163.59099 65.08014 163.7395 65.51614 163.888 65.94556 164.03652 66.36836 164.18503 66.7848 164.33353 67.19516 164.48204 67.60034 164.63056 67.9992 164.77906 68.3929 164.92757 68.78221 165.07605 69.16614 165.22457 69.54567 165.37308 69.92102 165.52158 70.29224 165.67009 70.65855 165.8186 71.0217 165.9671 71.38141 166.11562 71.73697 166.26412 72.0896 166.41263 72.43929 166.56114 72.7858 166.70964 73.12938 166.85816 73.47028 167.00666 73.80896 167.15515 74.14447 167.30367 74.4785 167.45217 74.80937 167.60068 75.13875 167.74919 75.4662 167.89769 75.79192 168.0462 76.11642 168.19472 76.43898 168.34322 76.7598 168.49173 77.07967 168.64025 77.3983 168.78874 77.71571 168.93724 78.03238 169.08574 78.34769 169.23426 78.66278 169.38277 78.97691 169.53127 79.29031 169.67978 79.60365 169.8283 79.91637 169.97679 80.22878 170.1253 80.5411 170.2738 80.85316 170.42232 81.16551 170.57082 81.47787 170.71933 81.79036 170.86783 82.10364 171.01634 82.41737 171.16486 82.73146 171.31336 83.04655 171.46186 83.36162 171.61035 83.67856 171.75888 83.99596 171.90738 84.31459 172.05588 84.63397 172.2044 84.95505 172.35289 85.27783 172.5014 85.60161 172.64992 85.92734 172.79842 86.25502 172.94693 86.58441 173.09543 86.91551 173.24394 87.2498 173.39247 87.58531 173.54096 87.92375 173.68947 88.26512 173.83797 88.6087 173.98648 88.95496 174.135 89.30417 174.28348 89.65727 174.432 90.01283 174.5805 90.37183 174.729 90.73521 174.87754 91.10178 175.02603 91.47299 175.17453 91.84836 175.32303 92.22787 175.47154 92.61131 175.62006 93.00085 175.76856 93.39433 175.91707 93.79341 176.06557 94.19836 176.2141 94.6092 176.3626 95.02516 176.5111 95.4487 176.6596 95.87714 176.8081 96.31339 176.95662 96.75674 177.10514 97.20692 177.25363 97.66594 177.40215 98.13228 177.55063 98.60889 177.69916 99.09233 177.84766 99.58727 177.99616 100.09053 178.14469 100.60431 178.29317 101.12935 178.44168 101.66513 178.59021 102.21338 178.7387 102.77338 178.8872 103.34732 179.0357 103.9347 179.18422 104.53601 179.33274 105.15225 179.48122 105.7856 179.62975 106.43486 179.77825 107.10172 179.92675 107.78839 180.07527 108.49388 180.22377 109.21967 180.37227 109.9682 180.52079 110.7407 180.66928 111.5362 180.81781 112.35858 180.96631 113.20883 181.1148 114.08919 181.2633 114.99887 181.41184 115.9428 181.56034 116.92192 181.70883 117.93846 181.85735 118.99487 182.00585 120.09627 182.15436 121.24219 182.30287 122.43872 182.45137 123.68709 182.59989 124.99513 182.74837 126.36455 182.8969 127.80049 183.04541 129.30977 183.1939 130.89586 183.34243 132.56703 183.4909 134.33213 183.63944 136.20113 183.78795 138.17922 183.93643 140.2793 184.08496 142.51856 184.23346 144.89939 184.38196 147.45287 184.53049 150.1868 184.67897 153.13228 184.82749 156.30297 184.85118 156.84894"/>
<path transform="matrix(-.043182158,.99905,.99906989,.043181298,169.95761,174.16191)" d="M2.8892 0-1.73352 2.31136 0 0-1.73352-2.31136" fill="#0000ff"/>
<path transform="matrix(.043202159,-.99905,-.99906989,-.043201299,199.26236,21.838334)" d="M2.8892 0-1.73352 2.31136 0 0-1.73352-2.31136" fill="#0000ff"/>
<path transform="matrix(1.00005,0,0,-1.00003,14.40197,178.69197)" stroke-width=".3985" stroke-linecap="butt" stroke-dasharray="2.98883,2.98883" stroke-miterlimit="10" stroke-linejoin="miter" fill="none" stroke="#ff0000" d="M5.814 0V161.39575"/>
<use data-text="x" xlink:href="#font_3_2" transform="matrix(9.963098,0,0,-9.962899,1.2163086,190.62934)" fill="#ff0000"/>
<use data-text="=" xlink:href="#font_2_2" transform="matrix(9.963098,0,0,-9.962899,9.678726,190.62934)" fill="#ff0000"/>
<use data-text="&#x2212;" xlink:href="#font_1_1" transform="matrix(9.963098,0,0,-9.962899,20.19526,190.62934)" fill="#ff0000"/>
<use data-text="5" xlink:href="#font_4_3" transform="matrix(6.9741489,0,0,-6.9740097,29.139702,186.70623)" fill="#ff0000"/>
<use data-text="&#x03c0;" xlink:href="#font_5_1" transform="matrix(6.9741489,0,0,-6.9740097,33.110895,186.70623)" fill="#ff0000"/>
<path transform="matrix(1.00005,0,0,-1.00003,-114.69648,43.62492)" stroke-width=".3985" stroke-linecap="butt" stroke-miterlimit="10" stroke-linejoin="miter" fill="none" stroke="#ff0000" d="M143.829-144.509H152.709"/>
<use data-text="2" xlink:href="#font_4_1" transform="matrix(6.9741489,0,0,-6.9740097,31.593834,194.06444)" fill="#ff0000"/>
<path transform="matrix(1.00005,0,0,-1.00003,14.40197,178.69197)" stroke-width=".3985" stroke-linecap="butt" stroke-dasharray="2.98883,2.98883" stroke-miterlimit="10" stroke-linejoin="miter" fill="none" stroke="#ff0000" d="M42.34344 0V161.39575"/>
<use data-text="x" xlink:href="#font_3_2" transform="matrix(9.963098,0,0,-9.962899,37.74813,10.335922)" fill="#ff0000"/>
<use data-text="=" xlink:href="#font_2_2" transform="matrix(9.963098,0,0,-9.962899,46.21055,10.335922)" fill="#ff0000"/>
<use data-text="&#x2212;" xlink:href="#font_1_1" transform="matrix(9.963098,0,0,-9.962899,56.72708,10.335922)" fill="#ff0000"/>
<use data-text="3" xlink:href="#font_4_2" transform="matrix(6.9741489,0,0,-6.9740097,65.671527,6.4128115)" fill="#ff0000"/>
<use data-text="&#x03c0;" xlink:href="#font_5_1" transform="matrix(6.9741489,0,0,-6.9740097,69.642719,6.4128115)" fill="#ff0000"/>
<path transform="matrix(1.00005,0,0,-1.00003,-78.16466,-136.66849)" stroke-width=".3985" stroke-linecap="butt" stroke-miterlimit="10" stroke-linejoin="miter" fill="none" stroke="#ff0000" d="M143.829-144.509H152.709"/>
<use data-text="2" xlink:href="#font_4_1" transform="matrix(6.9741489,0,0,-6.9740097,68.125659,13.771027)" fill="#ff0000"/>
<path transform="matrix(1.00005,0,0,-1.00003,14.40197,178.69197)" stroke-width=".3985" stroke-linecap="butt" stroke-dasharray="2.98883,2.98883" stroke-miterlimit="10" stroke-linejoin="miter" fill="none" stroke="#ff0000" d="M78.87393 0V161.39575"/>
<use data-text="y" xlink:href="#font_3_3" transform="matrix(9.963098,0,0,-9.962899,76.49207,189.13729)" fill="#ff0000"/>
<use data-text="=" xlink:href="#font_2_2" transform="matrix(9.963098,0,0,-9.962899,84.50247,189.13729)" fill="#ff0000"/>
<use data-text="&#x2212;" xlink:href="#font_1_1" transform="matrix(9.963098,0,0,-9.962899,95.019,189.13729)" fill="#ff0000"/>
<use data-text="&#x03c0;" xlink:href="#font_5_1" transform="matrix(6.9741489,0,0,-6.9740097,103.96344,185.21417)" fill="#ff0000"/>
<path transform="matrix(1.00005,0,0,-1.00003,-39.420717,42.132875)" stroke-width=".3985" stroke-linecap="butt" stroke-miterlimit="10" stroke-linejoin="miter" fill="none" stroke="#ff0000" d="M143.377-144.509H148.286"/>
<use data-text="2" xlink:href="#font_4_1" transform="matrix(6.9741489,0,0,-6.9740097,104.432468,192.57239)" fill="#ff0000"/>
<path transform="matrix(1.00005,0,0,-1.00003,14.40197,178.69197)" stroke-width=".3985" stroke-linecap="butt" stroke-dasharray="2.98883,2.98883" stroke-miterlimit="10" stroke-linejoin="miter" fill="none" stroke="#ff0000" d="M115.40422 0V161.39575"/>
<use data-text="y" xlink:href="#font_3_3" transform="matrix(9.963098,0,0,-9.962899,116.89809,10.335922)" fill="#ff0000"/>
<use data-text="=" xlink:href="#font_2_2" transform="matrix(9.963098,0,0,-9.962899,124.908489,10.335922)" fill="#ff0000"/>
<use data-text="&#x03c0;" xlink:href="#font_5_1" transform="matrix(6.9741489,0,0,-6.9740097,136.62009,6.4128115)" fill="#ff0000"/>
<path transform="matrix(1.00005,0,0,-1.00003,.98529818,-136.66849)" stroke-width=".3985" stroke-linecap="butt" stroke-miterlimit="10" stroke-linejoin="miter" fill="none" stroke="#ff0000" d="M135.628-144.509H140.537"/>
<use data-text="2" xlink:href="#font_4_1" transform="matrix(6.9741489,0,0,-6.9740097,137.08911,13.771027)" fill="#ff0000"/>
<path transform="matrix(1.00005,0,0,-1.00003,14.40197,178.69197)" stroke-width=".3985" stroke-linecap="butt" stroke-dasharray="2.98883,2.98883" stroke-miterlimit="10" stroke-linejoin="miter" fill="none" stroke="#ff0000" d="M151.93473 0V161.39575"/>
<use data-text="y" xlink:href="#font_3_3" transform="matrix(9.963098,0,0,-9.962899,151.44483,190.62934)" fill="#ff0000"/>
<use data-text="=" xlink:href="#font_2_2" transform="matrix(9.963098,0,0,-9.962899,159.45522,190.62934)" fill="#ff0000"/>
<use data-text="3" xlink:href="#font_4_2" transform="matrix(6.9741489,0,0,-6.9740097,171.16681,186.70623)" fill="#ff0000"/>
<use data-text="&#x03c0;" xlink:href="#font_5_1" transform="matrix(6.9741489,0,0,-6.9740097,175.138,186.70623)" fill="#ff0000"/>
<path transform="matrix(1.00005,0,0,-1.00003,35.53203,43.62492)" stroke-width=".3985" stroke-linecap="butt" stroke-miterlimit="10" stroke-linejoin="miter" fill="none" stroke="#ff0000" d="M135.628-144.509H144.508"/>
<use data-text="2" xlink:href="#font_4_1" transform="matrix(6.9741489,0,0,-6.9740097,173.62192,194.06444)" fill="#ff0000"/>
<path transform="matrix(1.00005,0,0,-1.00003,14.40197,178.69197)" stroke-width=".3985" stroke-linecap="butt" stroke-dasharray="2.98883,2.98883" stroke-miterlimit="10" stroke-linejoin="miter" fill="none" stroke="#ff0000" d="M188.46417 0V161.39575"/>
<use data-text="y" xlink:href="#font_3_3" transform="matrix(9.963098,0,0,-9.962899,187.97663,10.335922)" fill="#ff0000"/>
<use data-text="=" xlink:href="#font_2_2" transform="matrix(9.963098,0,0,-9.962899,195.98703,10.335922)" fill="#ff0000"/>
<use data-text="5" xlink:href="#font_4_3" transform="matrix(6.9741489,0,0,-6.9740097,207.69863,6.4128115)" fill="#ff0000"/>
<use data-text="&#x03c0;" xlink:href="#font_5_1" transform="matrix(6.9741489,0,0,-6.9740097,211.66982,6.4128115)" fill="#ff0000"/>
<path transform="matrix(1.00005,0,0,-1.00003,72.06384,-136.66849)" stroke-width=".3985" stroke-linecap="butt" stroke-miterlimit="10" stroke-linejoin="miter" fill="none" stroke="#ff0000" d="M135.628-144.509H144.508"/>
<use data-text="2" xlink:href="#font_4_1" transform="matrix(6.9741489,0,0,-6.9740097,210.15373,13.771027)" fill="#ff0000"/>
<use data-text="x" xlink:href="#font_3_2" transform="matrix(9.963098,0,0,-9.962899,199.47522,94.471439)"/>
<use data-text="y" xlink:href="#font_3_3" transform="matrix(9.963098,0,0,-9.962899,115.065998,25.101365)"/>
</svg>
