<svg xmlns="http://www.w3.org/2000/svg" xmlns:xlink="http://www.w3.org/1999/xlink" version="1.1" width="219" height="182" viewBox="0 0 219 182">
<defs>
<path id="font_1_67" d="M.46499635 .6516113V.6826172L.33599855 .6796112C.2939911 .6796112 .20599365 .6796112 .16799927 .6826172V.6516113H.20399475C.3019867 .6516113 .3019867 .63861086 .3019867 .6035919V.14746094C.3019867 .055999757 .2519989 0 .19898987 0 .19299317-.00039672853 .125-.00039672853 .08898926 .057617189 .14099121 .057617189 .15299988 .08761597 .15299988 .11361694 .15299988 .14961243 .125 .1696167 .09700012 .1696167 .07499695 .16999817 .040985109 .1559906 .040985109 .11199951 .040985109 .03753662 .11199951-.022460938 .20098877-.022460938 .30299378-.022460938 .37599183 .047531129 .3869934 .122543338 .3880005 .1305542 .3880005 .1325531 .3880005 .16654969V.61061099C.3880005 .6516113 .4019928 .6516113 .46499635 .6516113Z"/>
<path id="font_1_28" d="M.48298646 .08912659V.14511109H.45799256V.08912659C.45799256 .03112793 .43299867 .025131226 .42199708 .025131226 .3889923 .025131226 .3849945 .070129398 .3849945 .07511902V.27508546C.3849945 .31707765 .3849945 .3560791 .34899903 .39312745 .30999757 .43223573 .2599945 .4482422 .21199036 .4482422 .12998963 .4482422 .06098938 .40115357 .06098938 .335083 .06098938 .30508424 .08099365 .28808595 .10699463 .28808595 .1349945 .28808595 .15299988 .30807496 .15299988 .33407594 .15299988 .3460846 .147995 .37908937 .101989749 .38008119 .1289978 .41519166 .17799378 .426239 .20999146 .426239 .25898744 .426239 .31599427 .38710023 .31599427 .29808045V.26107789C.2649994 .25808717 .19499207 .25508119 .13198853 .22509766 .056991579 .19110108 .03199768 .13911438 .03199768 .09512329 .03199768 .014251709 .1289978-.0107421879 .19198609-.0107421879 .2579956-.0107421879 .3039856 .029251099 .32299806 .07624817 .32699586 .036132814 .35398866-.005859375 .40098573-.005859375 .42199708-.005859375 .48298646 .008132935 .48298646 .08912659M.31599427 .14013672C.31599427 .04525757 .24398804 .011245728 .19898987 .011245728 .1499939 .011245728 .10899353 .04624939 .10899353 .09625244 .10899353 .15124512 .15098572 .23425293 .31599427 .24024964V.14013672Z"/>
<path id="font_1_77" d="M.5349884 0V.0309906C.48298646 .0309906 .45799256 .0309906 .45700074 .061019899V.25221253C.45700074 .3383026 .45700074 .36932374 .42599488 .405365 .4119873 .42237855 .3789978 .4423828 .32099916 .4423828 .24798584 .4423828 .20098877 .39935304 .17298889 .33729554V.4423828L.03199768 .43066407V.3996582C.101989749 .3996582 .10998535 .39266969 .10998535 .34370423V.07595825C.10998535 .0309906 .09899902 .0309906 .03199768 .0309906V0L.14498902 .0029907227 .25698854 0V.0309906C.18998719 .0309906 .1789856 .0309906 .1789856 .07595825V.25978089C.1789856 .36431886 .25 .42037965 .31399537 .42037965 .3769989 .42037965 .3880005 .36631776 .3880005 .30926515V.076034549C.3880005 .0309906 .3769989 .0309906 .30999757 .0309906V0L.4229889 .0029907227 .5349884 0Z"/>
<path id="font_1_74" d="M.8789978 0V.0309906H.8549957C.7779999 .0309906 .776001 .041992189 .776001 .07795715V.6046295C.776001 .64060977 .7779999 .6516113 .8549957 .6516113H.8789978V.6826172H.70999148C.6839905 .6826172 .6839905 .6816101 .6769867 .66360476L.45799256 .10095215 .24099732 .660614C.23199463 .6826172 .22898865 .6826172 .20599365 .6826172H.036987306V.6516113H.06098938C.13798523 .6516113 .13999939 .64060977 .13999939 .6046295V.10494995C.13999939 .07795715 .13999939 .0309906 .036987306 .0309906V0L.1539917 .0029907227 .2709961 0V.0309906C.16799927 .0309906 .16799927 .07795715 .16799927 .10494995V.6436157H.16899109L.4099884 .021987915C.4149933 .008987427 .41999818 0 .42999269 0 .44099427 0 .44400025 .0079956059 .44799806 .018997193L.69400027 .6516113H.69499209V.07795715C.69499209 .041992189 .69299319 .0309906 .6159973 .0309906H.59199526V0C.6289978 .0029907227 .69699099 .0029907227 .73599246 .0029907227 .7749939 .0029907227 .84199526 .0029907227 .8789978 0Z"/>
<path id="font_1_96" d="M.3639984 .38137818C.3639984 .41337586 .33299256 .4423828 .2899933 .4423828 .21699524 .4423828 .18099976 .37538148 .16699219 .3323822V.4423828L.027999878 .43066407V.3996582C.09799194 .3996582 .10598755 .39266969 .10598755 .34370423V.07595825C.10598755 .0309906 .09498596 .0309906 .027999878 .0309906V0L.14199829 .0029907227C.18199158 .0029907227 .22898865 .0029907227 .2689972 0V.0309906H.24798584C.17399597 .0309906 .17199707 .04197693 .17199707 .07795715V.23181153C.17199707 .33137513 .21398926 .42037965 .2899933 .42037965 .29699708 .42037965 .29899598 .42037965 .30099488 .41937257 .2979889 .41838075 .27799989 .40637208 .27799989 .3803711 .27799989 .35237123 .29899598 .33737184 .32099916 .33737184 .33898927 .33737184 .3639984 .3493805 .3639984 .38137818Z"/>
<path id="font_1_118" d="M.5079956 .3996582V.43066407C.4850006 .4286499 .45599366 .42765809 .43299867 .42765809L.34599305 .43066407V.3996582C.3769989 .39866639 .3929901 .3816681 .3929901 .35668946 .3929901 .34669496 .3919983 .34469605 .3869934 .33270265L.28599549 .08685303 .1749878 .35568238C.17098999 .36567689 .16899109 .36967469 .16899109 .3736725 .16899109 .3996582 .20599365 .3996582 .22499085 .3996582V.43066407L.115997318 .42765809C.08898926 .42765809 .04899597 .4286499 .018997193 .43066407V.3996582C.066986087 .3996582 .085998538 .3996582 .099990848 .36468507L.25-.000091552738 .22499085-.059066774C.20298767-.11407471 .1749878-.18309021 .11099243-.18309021 .10598755-.18309021 .08299255-.18309021 .06399536-.16503906 .09498596-.16104126 .102996829-.13905335 .102996829-.123046878 .102996829-.0970459 .083999637-.08103943 .06098938-.08103943 .040985109-.08103943 .018997193-.09403992 .018997193-.124053958 .018997193-.16905213 .06098938-.20507813 .11099243-.20507813 .17399597-.20507813 .21499634-.14804077 .23899842-.091049198L.4149933 .33569337C.44099427 .39865113 .49198915 .3996582 .5079956 .3996582Z"/>
<path id="font_1_109" d="M.5349884 0V.0309906C.46499635 .0309906 .45700074 .037994386 .45700074 .08705139V.4423828L.30999757 .43066407V.3996582C.37998963 .3996582 .3880005 .39266969 .3880005 .34373475V.16601563C.3880005 .07910156 .33999635 .011245728 .2669983 .011245728 .18299866 .011245728 .1789856 .058135988 .1789856 .11009216V.4423828L.03199768 .43066407V.3996582C.10998535 .3996582 .10998535 .39666749 .10998535 .3078003V.15802002C.10998535 .080093387 .10998535-.0107421879 .2619934-.0107421879 .31799317-.0107421879 .3619995 .017242432 .3909912 .07910156V-.0107421879L.5349884 0Z"/>
<path id="font_1_72" d="M.25498963 0V.0309906C.18798828 .0309906 .1769867 .0309906 .1769867 .07601929V.69433596L.032989503 .6826172V.6516113C.102996829 .6516113 .11099243 .64460757 .11099243 .5956421V.07595825C.11099243 .0309906 .099990848 .0309906 .032989503 .0309906V0L.14399719 .0029907227 .25498963 0Z"/>
<path id="font_1_97" d="M.49899293 .18579102C.49899293 .2858429 .43299867 .36791993 .34899903 .38793946L.22099304 .4189453C.15899658 .43388368 .11999512 .48773194 .11999512 .5458069 .11999512 .61595156 .17399597 .677063 .2519989 .677063 .4189911 .677063 .44099427 .5127411 .44699098 .46777345 .44799806 .461792 .44799806 .45581056 .45899964 .45581056 .47200013 .45581056 .47200013 .46080018 .47200013 .47973634V.68107607C.47200013 .69807437 .47200013 .7050781 .46099855 .7050781 .45399476 .7050781 .45298768 .70407107 .44599916 .69207766L.41099549 .63497927C.3809967 .66404727 .33999635 .7050781 .25099183 .7050781 .13999939 .7050781 .055999757 .61694338 .055999757 .5107422 .055999757 .42790223 .10899353 .35490418 .18699646 .32788087 .19799805 .32388307 .24899292 .3118744 .31900025 .29486085 .34599305 .28785707 .37599183 .280838 .4039917 .24382019 .4249878 .2177887 .43499757 .18478394 .43499757 .1517334 .43499757 .0806427 .3849945 .008529663 .30099488 .008529663 .27198792 .008529663 .19599915 .013534546 .14299011 .06260681 .084991458 .11668396 .08198547 .18078614 .08099365 .21679688 .07998657 .22679138 .07199097 .22679138 .068984989 .22679138 .055999757 .22679138 .055999757 .2197876 .055999757 .20178223V.0015258789C.055999757-.015472412 .055999757-.022460938 .066986087-.022460938 .07398987-.022460938 .07499695-.020462037 .08198547-.009475708 .08198547-.009475708 .084991458-.0054626467 .117996219 .047592164 .14898682 .013534546 .21299744-.022460938 .3019867-.022460938 .4189911-.022460938 .49899293 .07562256 .49899293 .18579102Z"/>
<path id="font_1_50" d="M.4149933 .11933899C.4149933 .12934876 .40699769 .13134766 .4019928 .13134766 .3929901 .13134766 .3909912 .12535095 .3889923 .11734009 .35398866 .014251709 .2639923 .014251709 .2539978 .014251709 .20399475 .014251709 .1639862 .044281007 .14099121 .08131409 .11099243 .12934876 .11099243 .19540406 .11099243 .23144531H.3899994C.4119873 .23144531 .4149933 .23144531 .4149933 .2524414 .4149933 .35131837 .36099244 .4482422 .23599243 .4482422 .11999512 .4482422 .027999878 .34532167 .027999878 .22042847 .027999878 .08631897 .1329956-.0107421879 .24798584-.0107421879 .36999513-.0107421879 .4149933 .10032654 .4149933 .11933899M.34899903 .2524414H.11199951C.117996219 .40126039 .20199585 .426239 .23599243 .426239 .33898927 .426239 .34899903 .2913971 .34899903 .2524414Z"/>
<path id="font_1_84" d="M.5209961 .21636963C.5209961 .34336854 .42399598 .4423828 .31199647 .4423828 .23399353 .4423828 .19198609 .39837647 .17199707 .3763733V.4423828L.027999878 .43066407V.3996582C.09899902 .3996582 .10598755 .3936615 .10598755 .34973146V-.117996219C.10598755-.16308594 .09498596-.16308594 .027999878-.16308594V-.1940918L.13999939-.19110108 .25299073-.1940918V-.16308594C.18598938-.16308594 .1749878-.16308594 .1749878-.117996219V.050186159 .059173585C.17999268 .04319763 .22200012-.0107421879 .2979889-.0107421879 .4169922-.0107421879 .5209961 .087127689 .5209961 .21594239V.21636963M.43798829 .21594239C.43798829 .09512329 .36799623 .011245728 .2939911 .011245728 .2539978 .011245728 .21598816 .031219483 .18899536 .07215881 .1749878 .09312439 .1749878 .09411621 .1749878 .114089969V.33674623C.20399475 .38838197 .25299073 .41737367 .3039856 .41737367 .3769989 .41737367 .43798829 .32937623 .43798829 .21636963V.21594239Z"/>
<path id="font_1_76" d="M.71598818 .6516113V.6826172L.598999 .6796112 .48199464 .6826172V.6516113C.58499148 .6516113 .58499148 .6046295 .58499148 .577652V.15092469L.23199463 .6696167C.22299195 .6816101 .22200012 .6826172 .20298767 .6826172H.032989503V.6516113H.06199646C.07699585 .6516113 .09700012 .65060427 .11199951 .6496124 .1349945 .64660647 .13598633 .6456146 .13598633 .62661746V.10494995C.13598633 .07795715 .13598633 .0309906 .032989503 .0309906V0L.1499939 .0029907227 .2669983 0V.0309906C.1639862 .0309906 .1639862 .07795715 .1639862 .10494995V.62461856C.16899109 .6196289 .16999817 .6186218 .17399597 .6126251L.58200076 .0129852299C.59098818 .0009918213 .59199526 0 .598999 0 .61299136 0 .61299136 .0069885256 .61299136 .025985718V.577652C.61299136 .6046295 .61299136 .6516113 .71598818 .6516113Z"/>
<path id="font_1_81" d="M.47099305 .21424866C.47099305 .34223939 .37098695 .4482422 .25 .4482422 .125 .4482422 .027999878 .3392334 .027999878 .21424866 .027999878 .085250858 .13198853-.0107421879 .24899292-.0107421879 .36999513-.0107421879 .47099305 .087249759 .47099305 .21424866M.3880005 .22224427C.3880005 .18624878 .3880005 .13224793 .3659973 .08824158 .34399415 .04324341 .2999878 .014251709 .25 .014251709 .20698548 .014251709 .16299439 .035247804 .13598633 .08125305 .11099243 .12524414 .11099243 .18624878 .11099243 .22224427 .11099243 .26124574 .11099243 .31523133 .1349945 .35923768 .1619873 .40522767 .20899964 .426239 .24899292 .426239 .29299928 .426239 .33599855 .40423585 .3619995 .36123658 .3880005 .3182373 .3880005 .26023866 .3880005 .22224427Z"/>
<path id="font_1_112" d="M.5079956 .3996582V.43066407C.4850006 .4286499 .45599366 .42765809 .43299867 .42765809L.34599305 .43066407V.3996582C.3829956 .39865113 .3939972 .37568666 .3939972 .35671998 .3939972 .34773255 .3919983 .34373475 .3880005 .3327484L.28599549 .078125 .17399597 .35671998C.16799927 .3697052 .16799927 .37368775 .16799927 .37368775 .16799927 .3996582 .20698548 .3996582 .22499085 .3996582V.43066407L.115997318 .42765809C.08898926 .42765809 .04899597 .4286499 .018997193 .43066407V.3996582C.08198547 .3996582 .085998538 .3936615 .09899902 .36271668L.24299622 .008224487C.24899292-.0057525637 .25099183-.0107421879 .2639923-.0107421879 .2769928-.0107421879 .2809906-.0017700195 .2849884 .008224487L.41600038 .3327484C.4249878 .3557129 .44198609 .39865113 .5079956 .3996582Z"/>
<path id="font_2_1" d="M.2939911 .64004519C.2939911 .66400149 .2939911 .6660156 .2709961 .6660156 .20899964 .60227969 .12098694 .60227969 .08898926 .60227969V.57128909C.10899353 .57128909 .16799927 .57128909 .21998596 .5972748V.07902527C.21998596 .042999269 .21699524 .0309906 .1269989 .0309906H.09498596V0C.12998963 .0029907227 .21699524 .0029907227 .25698854 .0029907227 .29699708 .0029907227 .38398744 .0029907227 .4189911 0V.0309906H.3869934C.29699708 .0309906 .2939911 .041992189 .2939911 .07902527V.64004519Z"/>
<path id="font_3_1" d="M.19198609 .052993776C.19198609 .08198547 .16799927 .10598755 .13899231 .10598755 .10998535 .10598755 .085998538 .08198547 .085998538 .052993776 .085998538 .023986817 .10998535 0 .13899231 0 .16799927 0 .19198609 .023986817 .19198609 .052993776Z"/>
<path id="font_2_4" d="M.13198853 .327713V.35173036C.13198853 .6047821 .2559967 .64100649 .30699159 .64100649 .33099366 .64100649 .37298585 .634964 .394989 .6007538 .37998963 .6007538 .33999635 .6007538 .33999635 .5557556 .33999635 .524765 .3639984 .5097656 .38598634 .5097656 .4019928 .5097656 .43199159 .51875308 .43199159 .5577545 .43199159 .6178589 .3880005 .6660156 .30499269 .6660156 .1769867 .6660156 .041992189 .5367584 .041992189 .31570436 .041992189 .048553468 .1579895-.022460938 .25099183-.022460938 .3619995-.022460938 .45700074 .07156372 .45700074 .2036438 .45700074 .33070375 .36799623 .4267578 .25698854 .4267578 .18899536 .4267578 .1519928 .37573243 .13198853 .327713M.25099183 .0055389406C.18798828 .0055389406 .1579895 .06556702 .1519928 .080566409 .13398743 .127594 .13398743 .2076416 .13398743 .22564698 .13398743 .30369569 .1659851 .40374757 .2559967 .40374757 .27198792 .40374757 .31799317 .40374757 .34899903 .34172059 .36698915 .30470277 .36698915 .2536621 .36698915 .20463562 .36698915 .15661621 .36698915 .10658264 .34999085 .0705719 .31999208 .010528564 .27398683 .0055389406 .25099183 .0055389406Z"/>
<path id="font_2_5" d="M.16299439 .4569702C.116989139 .486969 .11299133 .52098086 .11299133 .5379791 .11299133 .598999 .17799378 .64100649 .24899292 .64100649 .32199098 .64100649 .38598634 .58898928 .38598634 .51698306 .38598634 .45996095 .34700013 .4119568 .2869873 .37695313L.16299439 .4569702M.30899049 .36193849C.3809967 .3989563 .42999269 .45095826 .42999269 .51698306 .42999269 .6090088 .34098817 .6660156 .25 .6660156 .1499939 .6660156 .068984989 .59199526 .068984989 .49897767 .068984989 .4809723 .070999149 .43595887 .11299133 .38894654 .12399292 .37695313 .16099549 .35194398 .18598938 .33494569 .12799073 .30592347 .041992189 .24984741 .041992189 .15072632 .041992189 .04458618 .14399719-.022460938 .24899292-.022460938 .3619995-.022460938 .45700074 .06060791 .45700074 .16773987 .45700074 .20379639 .44599916 .24885559 .4079895 .2909088 .3889923 .31193543 .37298585 .3219452 .30899049 .36193849M.20899964 .3199463 .33198548 .24183655C.3600006 .2228241 .40699769 .19277954 .40699769 .13169861 .40699769 .05760193 .33198548 .0055389406 .25 .0055389406 .1639862 .0055389406 .09199524 .067611698 .09199524 .15072632 .09199524 .20880127 .12399292 .27288819 .20899964 .3199463Z"/>
<path id="font_2_2" d="M.1269989 .07699585 .23298645 .18003845C.3889923 .31811524 .44898988 .3721466 .44898988 .47216798 .44898988 .5860901 .35899354 .6660156 .23699951 .6660156 .12399292 .6660156 .049987794 .57411196 .049987794 .48516847 .049987794 .4291687 .099990848 .4291687 .102996829 .4291687 .11999512 .4291687 .15499878 .44117738 .15499878 .48217774 .15499878 .5081787 .13699341 .5341797 .101989749 .5341797 .09399414 .5341797 .09199524 .5341797 .08898926 .5331726 .11199951 .59806826 .1659851 .63500979 .22399903 .63500979 .31498719 .63500979 .35798646 .5541382 .35798646 .47216798 .35798646 .39215089 .30799867 .31311036 .25299073 .25108338L.06098938 .036987306C.049987794 .025985718 .049987794 .023986817 .049987794 0H.42099L.44898988 .17404175H.42399598C.4189911 .14402771 .4119873 .1000061 .4019928 .084991458 .394989 .07699585 .32899476 .07699585 .30699159 .07699585H.1269989Z"/>
<path id="font_2_3" d="M.2939911 .16503906V.07800293C.2939911 .041992189 .2919922 .0309906 .21798706 .0309906H.19699097V0C.23799134 .0029907227 .2899933 .0029907227 .33198548 .0029907227 .37399293 .0029907227 .4269867 .0029907227 .46798707 0V.0309906H.44699098C.37298585 .0309906 .37098695 .041992189 .37098695 .07800293V.16503906H.47099305V.19602967H.37098695V.65075686C.37098695 .67074587 .37098695 .6767578 .35499574 .6767578 .34599305 .6767578 .34298707 .6767578 .33499146 .66474917L.027999878 .19602967V.16503906H.2939911M.2999878 .19602967H.055999757L.2999878 .5688019V.19602967Z"/>
<path id="font_1_75" d="M.8129883 0V.0309906C.7609863 .0309906 .73599246 .0309906 .7350006 .061019899V.25221253C.7350006 .3383026 .7350006 .36932374 .70399478 .405365 .6899872 .42237855 .6569977 .4423828 .598999 .4423828 .5149994 .4423828 .47099305 .38233949 .45399476 .34429933 .43998719 .43138124 .3659973 .4423828 .32099916 .4423828 .24798584 .4423828 .20098877 .39935304 .17298889 .33729554V.4423828L.03199768 .43066407V.3996582C.101989749 .3996582 .10998535 .39266969 .10998535 .34370423V.07595825C.10998535 .0309906 .09899902 .0309906 .03199768 .0309906V0L.14498902 .0029907227 .25698854 0V.0309906C.18998719 .0309906 .1789856 .0309906 .1789856 .07595825V.25978089C.1789856 .36431886 .25 .42037965 .31399537 .42037965 .3769989 .42037965 .3880005 .36631776 .3880005 .30926515V.076034549C.3880005 .0309906 .3769989 .0309906 .30999757 .0309906V0L.4229889 .0029907227 .5349884 0V.0309906C.46798707 .0309906 .45700074 .0309906 .45700074 .076034549V.2602234C.45700074 .36431886 .5279999 .42037965 .59199526 .42037965 .6549988 .42037965 .66600039 .36631776 .66600039 .30926515V.076034549C.66600039 .0309906 .6549988 .0309906 .58799746 .0309906V0L.70098879 .0029907227 .8129883 0Z"/>
<path id="font_1_105" d="M.33198548 .12385559V.18066406H.30699159V.12585449C.30699159 .052108766 .2769928 .014251709 .23999024 .014251709 .17298889 .014251709 .17298889 .10491943 .17298889 .12187195V.3996582H.31599427V.43066407H.17298889V.6142578H.147995C.14698792 .5324249 .116989139 .42565919 .018997193 .42166139V.3996582H.10398865V.12408447C.10398865 .0012512207 .19699097-.0107421879 .23298645-.0107421879 .3039856-.0107421879 .33198548 .060180665 .33198548 .12408447V.12385559Z"/>
<path id="font_1_63" d="M.5349884 0V.0309906C.48298646 .0309906 .45799256 .0309906 .45700074 .061019899V.25221253C.45700074 .3383026 .45700074 .36932374 .42599488 .405365 .4119873 .42237855 .3789978 .4423828 .32099916 .4423828 .23699951 .4423828 .19299317 .38233949 .1769867 .34629823H.17599488V.69433596L.03199768 .6826172V.6516113C.101989749 .6516113 .10998535 .64463809 .10998535 .59580996V.076034549C.10998535 .0309906 .09899902 .0309906 .03199768 .0309906V0L.14498902 .0029907227 .25698854 0V.0309906C.18998719 .0309906 .1789856 .0309906 .1789856 .076034549V.2602234C.1789856 .36431886 .25 .42037965 .31399537 .42037965 .3769989 .42037965 .3880005 .36631776 .3880005 .30926515V.076034549C.3880005 .0309906 .3769989 .0309906 .30999757 .0309906V0L.4229889 .0029907227 .5349884 0Z"/>
<path id="font_1_98" d="M.3600006 .12823487C.3600006 .18122864 .32998658 .21122742 .31799317 .22323609 .2849884 .25523377 .24598694 .26322938 .20399475 .27124024 .147995 .28224183 .08099365 .29522706 .08099365 .35324098 .08099365 .38822938 .10699463 .42922975 .19299317 .42922975 .30299378 .42922975 .30799867 .3392334 .30999757 .30822755 .31098939 .2992401 .32199098 .2992401 .32199098 .2992401 .33499146 .2992401 .33499146 .30422975 .33499146 .32322694V.4242401C.33499146 .4412384 .33499146 .4482422 .32398988 .4482422 .31900025 .4482422 .31698609 .4482422 .3039856 .43623353 .30099488 .43223573 .29100038 .42323304 .2869873 .42022706 .24899292 .4482422 .20799256 .4482422 .19299317 .4482422 .070999149 .4482422 .032989503 .38124085 .032989503 .3252411 .032989503 .29023744 .04899597 .26223756 .07598877 .24023438 .10798645 .2142334 .13598633 .2082367 .20799256 .19422913 .22999573 .19021607 .31199647 .17422486 .31199647 .10221863 .31199647 .051223756 .2769928 .011245728 .19898987 .011245728 .114990238 .011245728 .07899475 .068222049 .05999756 .1532135 .056991579 .16621399 .055999757 .17021179 .04598999 .17021179 .032989503 .17021179 .032989503 .16322327 .032989503 .1452179V.013214111C.032989503-.003753662 .032989503-.0107421879 .04399109-.0107421879 .04899597-.0107421879 .049987794-.009750366 .068984989 .009246826 .070999149 .011245728 .070999149 .013214111 .08898926 .032226564 .1329956-.009750366 .17799378-.0107421879 .19898987-.0107421879 .31399537-.0107421879 .3600006 .05621338 .3600006 .1282196V.12823487Z"/>
</defs>
<path transform="matrix(1.00005,0,0,-1.00006,23.57547,166.53421)" stroke-width=".19925" stroke-linecap="butt" stroke-miterlimit="10" stroke-linejoin="miter" fill="none" stroke="#929292" d="M.53224-2.12617V2.12617M17.03204-2.12617V2.12617M31.93509-2.12617V2.12617M48.43489-2.12617V2.12617M64.40245-2.12617V2.12617M80.90225-2.12617V2.12617M96.8698-2.12617V2.12617M113.3696-2.12617V2.12617M129.8694-2.12617V2.12617M145.83695-2.12617V2.12617M162.33675-2.12617V2.12617M178.3043-2.12617V2.12617"/>
<path transform="matrix(1.00005,0,0,-1.00006,23.57547,166.53421)" stroke-width=".19925" stroke-linecap="butt" stroke-miterlimit="10" stroke-linejoin="miter" fill="none" stroke="#929292" d="M-2.12613 12.415H2.12613M-2.12613 37.245H2.12613M-2.12613 62.075H2.12613M-2.12613 86.90498H2.12613M-2.12613 111.73499H2.12613M-2.12613 136.56499H2.12613M-2.12613 161.39499H2.12613"/>
<path transform="matrix(1.00005,0,0,-1.00006,23.57547,166.53421)" stroke-width=".3985" stroke-linecap="butt" stroke-miterlimit="10" stroke-linejoin="miter" fill="none" stroke="#000000" d="M0 0H192.27933"/>
<path transform="matrix(1.00005,0,0,-1.00006,215.8644,166.53421)" d="M1.99252 0-1.19551 1.59401 0 0-1.19551-1.59401"/>
<path transform="matrix(1.00005,0,0,-1.00006,23.57547,166.53421)" stroke-width=".3985" stroke-linecap="butt" stroke-miterlimit="10" stroke-linejoin="miter" fill="none" stroke="#000000" d="M0 0V159.40247"/>
<path transform="matrix(0,-1.00006,-1.00005,-0,23.57547,7.1221926)" d="M1.99252 0-1.19551 1.59401 0 0-1.19551-1.59401"/>
<use data-text="J" xlink:href="#font_1_67" transform="matrix(9.963098,0,0,-9.963197,16.286103,178.98596)"/>
<use data-text="a" xlink:href="#font_1_28" transform="matrix(9.963098,0,0,-9.963197,21.407135,178.98596)"/>
<use data-text="n" xlink:href="#font_1_77" transform="matrix(9.963098,0,0,-9.963197,26.388672,178.98596)"/>
<use data-text="M" xlink:href="#font_1_74" transform="matrix(9.963098,0,0,-9.963197,46.50061,178.98596)"/>
<use data-text="a" xlink:href="#font_1_28" transform="matrix(9.963098,0,0,-9.963197,55.63678,178.98596)"/>
<use data-text="r" xlink:href="#font_1_96" transform="matrix(9.963098,0,0,-9.963197,60.618318,178.98596)"/>
<use data-text="M" xlink:href="#font_1_74" transform="matrix(9.963098,0,0,-9.963197,78.43121,178.98596)"/>
<use data-text="a" xlink:href="#font_1_28" transform="matrix(9.963098,0,0,-9.963197,87.56738,178.98596)"/>
<use data-text="y" xlink:href="#font_1_118" transform="matrix(9.963098,0,0,-9.963197,92.27991,178.98596)"/>
<use data-text="J" xlink:href="#font_1_67" transform="matrix(9.963098,0,0,-9.963197,113.73497,179.09497)"/>
<use data-text="u" xlink:href="#font_1_109" transform="matrix(9.963098,0,0,-9.963197,118.856,179.09497)"/>
<use data-text="l" xlink:href="#font_1_72" transform="matrix(9.963098,0,0,-9.963197,124.39548,179.09497)"/>
<use data-text="S" xlink:href="#font_1_97" transform="matrix(9.963098,0,0,-9.963197,145.69956,179.20497)"/>
<use data-text="e" xlink:href="#font_1_50" transform="matrix(9.963098,0,0,-9.963197,151.23905,179.20497)"/>
<use data-text="p" xlink:href="#font_1_84" transform="matrix(9.963098,0,0,-9.963197,155.66266,179.20497)"/>
<use data-text="N" xlink:href="#font_1_76" transform="matrix(9.963098,0,0,-9.963197,177.20215,178.98596)"/>
<use data-text="o" xlink:href="#font_1_81" transform="matrix(9.963098,0,0,-9.963197,184.67447,178.98596)"/>
<use data-text="v" xlink:href="#font_1_112" transform="matrix(9.963098,0,0,-9.963197,189.38701,178.98596)"/>
<use data-text="1" xlink:href="#font_2_1" transform="matrix(9.963098,0,0,-9.963197,.2163086,157.32866)"/>
<use data-text="1" xlink:href="#font_2_1" transform="matrix(9.963098,0,0,-9.963197,5.1978456,157.32866)"/>
<use data-text="." xlink:href="#font_3_1" transform="matrix(9.963098,0,0,-9.963197,10.17981,157.32866)"/>
<use data-text="6" xlink:href="#font_2_4" transform="matrix(9.963098,0,0,-9.963197,12.946945,157.32866)"/>
<use data-text="1" xlink:href="#font_2_1" transform="matrix(9.963098,0,0,-9.963197,.2163086,132.49716)"/>
<use data-text="1" xlink:href="#font_2_1" transform="matrix(9.963098,0,0,-9.963197,5.1978456,132.49716)"/>
<use data-text="." xlink:href="#font_3_1" transform="matrix(9.963098,0,0,-9.963197,10.17981,132.49716)"/>
<use data-text="8" xlink:href="#font_2_5" transform="matrix(9.963098,0,0,-9.963197,12.946945,132.49716)"/>
<use data-text="1" xlink:href="#font_2_1" transform="matrix(9.963098,0,0,-9.963197,7.965683,107.66568)"/>
<use data-text="2" xlink:href="#font_2_2" transform="matrix(9.963098,0,0,-9.963197,12.94722,107.66568)"/>
<use data-text="1" xlink:href="#font_2_1" transform="matrix(9.963098,0,0,-9.963197,.2163086,82.83419)"/>
<use data-text="2" xlink:href="#font_2_2" transform="matrix(9.963098,0,0,-9.963197,5.1978456,82.83419)"/>
<use data-text="." xlink:href="#font_3_1" transform="matrix(9.963098,0,0,-9.963197,10.17981,82.83419)"/>
<use data-text="2" xlink:href="#font_2_2" transform="matrix(9.963098,0,0,-9.963197,12.946945,82.83419)"/>
<use data-text="1" xlink:href="#font_2_1" transform="matrix(9.963098,0,0,-9.963197,.2163086,58.0027)"/>
<use data-text="2" xlink:href="#font_2_2" transform="matrix(9.963098,0,0,-9.963197,5.1978456,58.0027)"/>
<use data-text="." xlink:href="#font_3_1" transform="matrix(9.963098,0,0,-9.963197,10.17981,58.0027)"/>
<use data-text="4" xlink:href="#font_2_3" transform="matrix(9.963098,0,0,-9.963197,12.946945,58.0027)"/>
<use data-text="1" xlink:href="#font_2_1" transform="matrix(9.963098,0,0,-9.963197,.2163086,33.17122)"/>
<use data-text="2" xlink:href="#font_2_2" transform="matrix(9.963098,0,0,-9.963197,5.1978456,33.17122)"/>
<use data-text="." xlink:href="#font_3_1" transform="matrix(9.963098,0,0,-9.963197,10.17981,33.17122)"/>
<use data-text="6" xlink:href="#font_2_4" transform="matrix(9.963098,0,0,-9.963197,12.946945,33.17122)"/>
<use data-text="1" xlink:href="#font_2_1" transform="matrix(9.963098,0,0,-9.963197,.2163086,8.339722)"/>
<use data-text="2" xlink:href="#font_2_2" transform="matrix(9.963098,0,0,-9.963197,5.1978456,8.339722)"/>
<use data-text="." xlink:href="#font_3_1" transform="matrix(9.963098,0,0,-9.963197,10.17981,8.339722)"/>
<use data-text="8" xlink:href="#font_2_5" transform="matrix(9.963098,0,0,-9.963197,12.946945,8.339722)"/>
<path transform="matrix(1.00005,0,0,-1.00006,23.57547,166.53421)" stroke-width=".99628" stroke-linecap="butt" stroke-miterlimit="10" stroke-linejoin="miter" fill="none" stroke="#0000ff" d="M0 135.8438 .97621 135.29233 1.95245 134.68994 2.92871 134.03617 3.90495 133.32764 4.88118 132.57083 5.85742 131.7656 6.83366 130.91007 7.80992 130.00527 8.78615 129.05379 9.76239 128.05748 10.73862 127.01375 11.71486 125.92458 12.6911 124.79295 13.66734 123.61975 14.64359 122.40257 15.61983 121.14629 16.59607 119.8503 17.57231 118.51767 18.54855 117.14519 19.5248 115.73831 20.50104 114.29794 21.47726 112.82426 22.4535 111.3182 23.42975 109.78137 24.40599 108.21808 25.38223 106.62473 26.35847 105.00606 27.33472 103.36255 28.31096 101.69759 29.2872 100.00914 30.26344 98.30194 31.23969 96.57678 32.21591 94.83359 33.19215 93.0746 34.1684 91.30362 35.14464 89.51994 36.12086 87.72623 37.09712 85.92334 38.07336 84.11247 39.0496 82.29951 40.02585 80.47899 41.00208 78.6582 41.97833 76.83803 42.95456 75.01837 43.9308 73.20107 44.90703 71.38847 45.88327 69.58208 46.85953 67.78401 47.83577 65.9944 48.812 64.21683 49.78824 62.45114 50.76448 60.70076 51.74074 58.9659 52.71695 57.24902 53.69319 55.55151 54.66943 53.87463 55.64568 52.2197 56.62192 50.589 57.59816 48.98236 58.5744 47.40344 59.55064 45.85403 60.52689 44.33173 61.50313 42.84166 62.47937 41.38438 63.4556 39.96077 64.43184 38.57089 65.40808 37.21767 66.38432 35.90353 67.36057 34.62752 68.3368 33.39049 69.31305 32.19556 70.28929 31.04283 71.26553 29.93094 72.24178 28.86485 73.21802 27.8451 74.19424 26.87003 75.17049 25.94237 76.14673 25.06053 77.12297 24.23158 78.09921 23.4503 79.07545 22.71696 80.0517 22.03685 81.02794 21.40717 82.00418 20.83174 82.98042 20.30557 83.95667 19.83295 84.93288 19.4158 85.90913 19.05057 86.88538 18.73994 87.86162 18.48344 88.83784 18.28416 89.81409 18.13731 90.79034 18.04407 91.76659 18.00906 92.74281 18.02905 93.71906 18.10193 94.6953 18.22993 95.67154 18.41489 96.64777 18.6539 97.62401 18.94589 98.60031 19.29427 99.57646 19.6964 100.55276 20.1514 101.52892 20.6578 102.50522 21.21935 103.48152 21.83275 104.45767 22.49672 105.43396 23.2112 106.41011 23.97806 107.38641 24.79498 108.36272 25.65819 109.33887 26.57019 110.31517 27.53099 111.29132 28.5381 112.26762 29.58853 113.24393 30.68451 114.22008 31.82584 115.19638 33.00824 116.17252 34.23088 117.14882 35.49495 118.12512 36.7993 119.10127 38.13986 120.07758 39.51593 121.05373 40.92937 122.03003 42.3771 123.00632 43.85783 123.98247 45.3669 124.95879 46.90994 125.93494 48.48093 126.91122 50.07787 127.88751 51.70076 128.86367 53.34886 129.83997 55.0188 130.81612 56.7086 131.79244 58.42111 132.76873 60.15054 133.74488 61.89694 134.72118 63.6564 135.69733 65.43027 136.67365 67.21628 137.64992 69.0115 138.62607 70.81552 139.60237 72.6266 140.57852 74.44283 141.55483 76.26198 142.53113 78.08363 143.50728 79.90292 144.48358 81.72273 145.45973 83.5394 146.43604 85.35136 147.41233 87.1554 148.38848 88.95296 149.36478 90.74121 150.34093 92.5153 151.31723 94.2779 152.29354 96.02605 153.26969 97.75905 154.24599 99.47095 155.22214 101.16484 156.19844 102.8384 157.17475 104.48897 158.15088 106.11473 159.12718 107.71661 160.10334 109.2901 161.07964 110.83588 162.05594 112.35052 163.03209 113.83487 164.00839 115.2869 164.98455 116.70334 165.96085 118.08588 166.93714 119.43266 167.91329 120.74121 168.88959 122.00902 169.86574 123.23747 170.84204 124.42633 171.81833 125.57185 172.79448 126.67407 173.7708 127.7311 174.74695 128.74428 175.72325 129.7098 176.69954 130.62837 177.67569 131.4988 178.652 132.32289 179.62813 133.0946 180.60445 133.81507 181.58074 134.4876 182.55689 135.1087 183.53319 135.67458 184.50934 136.18993 185.48564 136.6529 186.46195 137.06157 187.4381 137.41503 188.4144 137.71462 189.39055 137.96154 190.36684 138.15163 191.34314 138.28656 192.31929 138.36838 193.2956 138.3967 194.27175 138.36603"/>
<use data-text="m" xlink:href="#font_1_75" transform="matrix(9.963098,0,0,-9.963197,186.3806,162.905)"/>
<use data-text="o" xlink:href="#font_1_81" transform="matrix(9.963098,0,0,-9.963197,194.67986,162.905)"/>
<use data-text="n" xlink:href="#font_1_77" transform="matrix(9.963098,0,0,-9.963197,199.66139,162.905)"/>
<use data-text="t" xlink:href="#font_1_105" transform="matrix(9.963098,0,0,-9.963197,204.93187,162.905)"/>
<use data-text="h" xlink:href="#font_1_63" transform="matrix(9.963098,0,0,-9.963197,208.80751,162.905)"/>
<use data-text="h" xlink:href="#font_1_63" transform="matrix(9.963098,0,0,-9.963197,27.095643,15.564163)"/>
<use data-text="o" xlink:href="#font_1_81" transform="matrix(9.963098,0,0,-9.963197,32.635118,15.564163)"/>
<use data-text="u" xlink:href="#font_1_109" transform="matrix(9.963098,0,0,-9.963197,37.616655,15.564163)"/>
<use data-text="r" xlink:href="#font_1_96" transform="matrix(9.963098,0,0,-9.963197,43.156145,15.564163)"/>
<use data-text="s" xlink:href="#font_1_98" transform="matrix(9.963098,0,0,-9.963197,47.06166,15.564163)"/>
</svg>
