<svg xmlns="http://www.w3.org/2000/svg" xmlns:xlink="http://www.w3.org/1999/xlink" xmlns:inkscape="http://www.inkscape.org/namespaces/inkscape" version="1.1" width="197" height="172" viewBox="0 0 197 172">
<defs>
<path id="font_1_1" d="M.6589966 .23046875C.6759949 .23046875 .69400027 .23046875 .69400027 .25045777 .69400027 .27046205 .6759949 .27046205 .6589966 .27046205H.117996219C.100997928 .27046205 .08299255 .27046205 .08299255 .25045777 .08299255 .23046875 .100997928 .23046875 .117996219 .23046875H.6589966Z"/>
<path id="font_2_2" d="M.272995 .33428956C.35099793 .33428956 .40699769 .2803192 .40699769 .1733551 .40699769 .04940796 .33499146 .012466431 .2769928 .012466431 .23699951 .012466431 .14898682 .0234375 .10699463 .082351688 .1539917 .084350589 .16499329 .11735535 .16499329 .13835144 .16499329 .17034912 .14099121 .19335938 .10998535 .19335938 .08198547 .19335938 .053985597 .17634583 .053985597 .13534546 .053985597 .041412355 .1579895-.01953125 .2789917-.01953125 .41799928-.01953125 .5139923 .07336426 .5139923 .1733551 .5139923 .2513275 .44999696 .32929994 .33999635 .35229493 .44499208 .39024354 .48298646 .4650879 .48298646 .5260773 .48298646 .60505679 .3919983 .6640625 .2809906 .6640625 .16999817 .6640625 .084991458 .61006167 .084991458 .5300751 .084991458 .49606324 .10699463 .47706605 .13699341 .47706605 .16799927 .47706605 .18798828 .5000763 .18798828 .5280762 .18798828 .5570679 .16799927 .57806399 .13699341 .5800781 .17199707 .62405398 .24099732 .63505557 .27799989 .63505557 .32299806 .63505557 .38598634 .6130676 .38598634 .5260773 .38598634 .48406983 .37199403 .43814088 .34599305 .4072113 .31298829 .36927796 .2849884 .3672943 .23498535 .36428834 .20999146 .3623047 .20799256 .3623047 .20298767 .3612976 .20098877 .3612976 .19299317 .3592987 .19299317 .34829713 .19299317 .33428956 .20199585 .33428956 .21899414 .33428956H.272995Z"/>
<path id="font_3_1" d="M.31098939 .36265565H.42999269C.4149933 .30274964 .3929901 .2118988 .3929901 .13302613 .3929901 .09309387 .397995 .06613159 .4039917 .044174196 .41999818-.0057678224 .43299867-.009765625 .44898988-.009765625 .47200013-.009765625 .49598695 .011230469 .49598695 .035186769 .49598695 .043182374 .49398805 .047164918 .48799134 .057159425 .46899415 .09408569 .45098878 .15100098 .45098878 .23286438 .45098878 .25183106 .45098878 .29177857 .46499635 .36265565H.58999636C.60798647 .36265565 .6159973 .36265565 .6269989 .37065126 .6409912 .380661 .6439972 .39665223 .6439972 .4016571 .6439972 .43066407 .6179962 .43066407 .6009979 .43066407H.22399903C.18299866 .43066407 .15499878 .42166139 .10998535 .37965394 .083999637 .35665895 .04499817 .30274964 .04499817 .2937622 .04499817 .28178407 .057998659 .28178407 .06199646 .28178407 .07299805 .28178407 .07398987 .28378297 .07998657 .2927704 .1309967 .36265565 .19299317 .36265565 .21499634 .36265565H.27598573C.24499512 .25283814 .19099427 .13502503 .16099549 .07511902 .15499878 .062149049 .14498902 .04118347 .14199829 .03718567 .14099121 .033187868 .13899231 .029190064 .13899231 .022201539 .13899231 .006225586 .15098572-.009765625 .17399597-.009765625 .21398926-.009765625 .22499085 .035186769 .24899292 .12504578L.31098939 .36265565Z"/>
<path id="font_2_1" d="M.5049896 .18203736H.47099305C.46798707 .16001892 .45799256 .100997928 .44499208 .09098816 .43699647 .084991458 .3600006 .084991458 .34599305 .084991458H.1619873C.2669983 .17803955 .3019867 .20603943 .3619995 .25306703 .43598939 .312088 .5049896 .374115 .5049896 .46914674 .5049896 .5900879 .39898683 .6640625 .2709961 .6640625 .14698792 .6640625 .06298828 .57710269 .06298828 .4851532 .06298828 .43414308 .10598755 .42915345 .115997318 .42915345 .13999939 .42915345 .16899109 .44615174 .16899109 .48214723 .16899109 .5001526 .1619873 .53515627 .10998535 .53515627 .14099121 .6060791 .20899964 .62805178 .2559967 .62805178 .35598756 .62805178 .4079895 .5501404 .4079895 .46914674 .4079895 .38212586 .34599305 .3130951 .31399537 .27708436L.07299805 .038986207C.06298828 .02999878 .06298828 .027999878 .06298828 0H.47499085L.5049896 .18203736Z"/>
<path id="font_4_1" d="M.2649994 .37265016H.37799073C.34498597 .22489929 .33599855 .18196106 .33599855 .11508179 .33599855 .100097659 .33599855 .073150638 .34399415 .03919983 .35398866-.0047454836 .36499024-.0107421879 .37998963-.0107421879 .3999939-.0107421879 .42099 .007247925 .42099 .02722168 .42099 .033218385 .42099 .035202028 .4149933 .049179079 .38598634 .12106323 .38598634 .18595886 .38598634 .21391297 .38598634 .26683045 .3929901 .32073976 .4039917 .37265016H.5179901C.5309906 .37265016 .5669861 .37265016 .5669861 .406662 .5669861 .43066407 .54599 .43066407 .5269928 .43066407H.19198609C.16999817 .43066407 .13198853 .43066407 .08799744 .38365174 .052993776 .34469605 .026992798 .29878236 .026992798 .29379273 .026992798 .29278565 .026992798 .28379823 .038986207 .28379823 .04699707 .28379823 .04899597 .28779603 .054992677 .29577638 .10398865 .37265016 .1619873 .37265016 .18199158 .37265016H.23899842C.20698548 .25186158 .15299988 .13105774 .11099243 .04020691 .102996829 .025222779 .102996829 .023223877 .102996829 .016235352 .102996829-.002746582 .11898804-.0107421879 .13198853-.0107421879 .1619873-.0107421879 .16999817 .017242432 .18199158 .05418396 .19599915 .100097659 .19599915 .10209656 .20899964 .15202332L.2649994 .37265016Z"/>
<path id="font_5_2" d="M.2939911 .64004519C.2939911 .66400149 .2939911 .6660156 .2709961 .6660156 .20899964 .60227969 .12098694 .60227969 .08898926 .60227969V.57128909C.10899353 .57128909 .16799927 .57128909 .21998596 .5972748V.07902527C.21998596 .042999269 .21699524 .0309906 .1269989 .0309906H.09498596V0C.12998963 .0029907227 .21699524 .0029907227 .25698854 .0029907227 .29699708 .0029907227 .38398744 .0029907227 .4189911 0V.0309906H.3869934C.29699708 .0309906 .2939911 .041992189 .2939911 .07902527V.64004519Z"/>
<path id="font_5_1" d="M.45999146 .31976319C.45999146 .39982606 .45498658 .47988893 .41999818 .5539398 .37399293 .65000918 .2919922 .6660156 .25 .6660156 .18998719 .6660156 .116989139 .64001467 .07598877 .54693606 .04399109 .47789 .038986207 .39982606 .038986207 .31976319 .038986207 .24472046 .042999269 .15464783 .083999637 .07859802 .1269989-.0024719239 .19999695-.022460938 .24899292-.022460938 .30299378-.022460938 .3789978-.0014648438 .4229889 .09359741 .45498658 .16265869 .45999146 .2407074 .45999146 .31976319M.24899292-.00047302247C.20999146-.00047302247 .15098572 .024551392 .1329956 .12062073 .12199402 .18066406 .12199402 .2727356 .12199402 .3317871 .12199402 .39582826 .12199402 .46188355 .12998963 .5159149 .14898682 .63500979 .22399903 .64401248 .24899292 .64401248 .28199769 .64401248 .34799195 .6259918 .36698915 .52693179 .3769989 .47088624 .3769989 .39482118 .3769989 .3317871 .3769989 .25672914 .3769989 .18867493 .3659973 .12461853 .35099793 .029556275 .2939911-.00047302247 .24899292-.00047302247Z"/>
<path id="font_5_3" d="M.44898988 .20022583C.44898988 .3193512 .36698915 .41944886 .25898744 .41944886 .21099854 .41944886 .16799927 .40345765 .13198853 .36842347V.5637665C.1519928 .5577698 .18499756 .55078127 .21699524 .55078127 .33999635 .55078127 .4099884 .6417694 .4099884 .6547699 .4099884 .6607666 .40699769 .6657715 .3999939 .6657715 .39898683 .6657715 .39698792 .6657715 .3919983 .66278079 .37199403 .6537781 .32299806 .6337738 .2559967 .6337738 .21598816 .6337738 .16999817 .6407776 .12298584 .6617737 .114990238 .66477969 .11299133 .66477969 .11099243 .66477969 .100997928 .66477969 .100997928 .6567688 .100997928 .6407776V.34439088C.100997928 .32637025 .100997928 .31835938 .114990238 .31835938 .12199402 .31835938 .12399292 .32136537 .12799073 .32736207 .13899231 .3433838 .17599488 .39746095 .25698854 .39746095 .30899049 .39746095 .33399964 .35139466 .34199525 .33337403 .35798646 .29632569 .3600006 .25727845 .3600006 .20722962 .3600006 .17222595 .3600006 .11222839 .33599855 .07035828 .31199647 .031463624 .2749939 .0055389406 .22898865 .0055389406 .1559906 .0055389406 .09899902 .058380128 .08198547 .11723328 .084991458 .1162262 .08799744 .115234378 .09899902 .115234378 .13198853 .115234378 .14898682 .14022827 .14898682 .16423035 .14898682 .18823242 .13198853 .21322632 .09899902 .21322632 .084991458 .21322632 .049987794 .20622254 .049987794 .16023255 .049987794 .07434082 .11898804-.022460938 .23098755-.022460938 .34700013-.022460938 .44898988 .073349 .44898988 .20022583Z"/>
<path id="font_4_2" d="M.33399964 .30233766C.33999635 .32835389 .36299134 .42037965 .43299867 .42037965 .43798829 .42037965 .46199037 .42037965 .48298646 .40734864 .45498658 .402359 .43499757 .37734986 .43499757 .35334779 .43499757 .33735658 .44599916 .31835938 .47299195 .31835938 .49499513 .31835938 .5269928 .3363495 .5269928 .37635804 .5269928 .42837525 .46798707 .4423828 .43399049 .4423828 .37599183 .4423828 .34098817 .38935853 .32899476 .36634828 .3039856 .43237306 .25 .4423828 .22099304 .4423828 .116989139 .4423828 .05999756 .3133545 .05999756 .28834535 .05999756 .27833558 .069992069 .27833558 .07199097 .27833558 .07998657 .27833558 .08299255 .28033448 .084991458 .28933717 .11898804 .39535523 .18499756 .42037965 .21899414 .42037965 .23799134 .42037965 .272995 .4113617 .272995 .35334779 .272995 .32235719 .2559967 .25532533 .21899414 .11528015 .20298767 .053268434 .16799927 .011245728 .12399292 .011245728 .117996219 .011245728 .09498596 .011245728 .07398987 .024276734 .09899902 .029266358 .12098694 .05027771 .12098694 .07827759 .12098694 .105270389 .09899902 .11328125 .083999637 .11328125 .053985597 .11328125 .0289917 .08728027 .0289917 .055267335 .0289917 .009246826 .07899475-.0107421879 .12298584-.0107421879 .18899536-.0107421879 .22499085 .059280397 .22799683 .0652771 .23999024 .028274537 .27598573-.0107421879 .33599855-.0107421879 .43899537-.0107421879 .49598695 .118270877 .49598695 .14328003 .49598695 .1532898 .4869995 .1532898 .48399354 .1532898 .47499085 .1532898 .47299195 .14929199 .47099305 .14228821 .43798829 .03527832 .36999513 .011245728 .33799745 .011245728 .29899598 .011245728 .2829895 .043273927 .2829895 .07727051 .2829895 .09927368 .2889862 .121276859 .2999878 .16529846L.33399964 .30233766Z"/>
<path id="font_4_3" d="M.48599244 .38136292C.48999024 .39537049 .48999024 .39736939 .48999024 .40437318 .48999024 .42237855 .47599793 .43138124 .46099855 .43138124 .45098878 .43138124 .43499757 .42536927 .42599488 .41036988 .42399598 .405365 .41600038 .37435914 .4119873 .35635377 .40499879 .33035279 .397995 .30334474 .3919983 .27633668L.34700013 .09628296C.34298707 .08126831 .2999878 .011245728 .23399353 .011245728 .18299866 .011245728 .17199707 .055267335 .17199707 .0922699 .17199707 .1382904 .18899536 .20030213 .22299195 .28833009 .23899842 .3293457 .24299622 .3403473 .24299622 .36035157 .24299622 .405365 .21099854 .4423828 .16099549 .4423828 .06599426 .4423828 .0289917 .29733277 .0289917 .28833009 .0289917 .27833558 .038986207 .27833558 .040985109 .27833558 .050994874 .27833558 .051986696 .28033448 .056991579 .29634095 .083999637 .3903656 .12399292 .42037965 .1579895 .42037965 .1659851 .42037965 .18299866 .42037965 .18299866 .3883667 .18299866 .36335755 .17298889 .3373413 .1659851 .31834413 .12599182 .21231079 .10798645 .1552887 .10798645 .10827637 .10798645 .019256592 .17098999-.0107421879 .22999573-.0107421879 .2689972-.0107421879 .30299378 .0062561037 .33099366 .03425598 .31799317-.017745972 .30599977-.06674194 .2659912-.11973572 .23999024-.15385437 .20199585-.18309021 .1559906-.18309021 .14199829-.18309021 .09700012-.18005371 .07998657-.14074707 .09599304-.14074707 .10899353-.14074707 .12298584-.1287384 .1329956-.11973572 .14299011-.10673523 .14299011-.08773804 .14299011-.056747438 .115997318-.052734376 .10598755-.052734376 .08299255-.052734376 .049987794-.068740848 .049987794-.11773682 .049987794-.16796875 .09399414-.20507813 .1559906-.20507813 .25898744-.20507813 .3619995-.11373901 .3899994-.00074768069L.48599244 .38136292Z"/>
</defs>
<path transform="matrix(1.00006,0,0,-1.00006,1.4091797,170.36844)" stroke-width=".19925" stroke-linecap="butt" stroke-miterlimit="10" stroke-linejoin="miter" fill="none" stroke="#7f807f" d="M9.31804 83.114V85.94867M23.9548 83.114V85.94867M38.59157 83.114V85.94867M53.22832 83.114V85.94867M67.8651 83.114V85.94867M82.50185 83.114V85.94867M97.13861 83.114V85.94867M111.77536 83.114V85.94867M126.41214 83.114V85.94867M141.04889 83.114V85.94867M155.68566 83.114V85.94867M170.32242 83.114V85.94867M184.95919 83.114V85.94867"/>
<path transform="matrix(1.00006,0,0,-1.00006,1.4091797,170.36844)" stroke-width=".19925" stroke-linecap="butt" stroke-miterlimit="10" stroke-linejoin="miter" fill="none" stroke="#7f807f" d="M9.31804 82.40553V86.65712M38.59157 82.40553V86.65712M67.8651 82.40553V86.65712M126.41214 82.40553V86.65712M155.68566 82.40553V86.65712M184.95919 82.40553V86.65712"/>
<path transform="matrix(1.00006,0,0,-1.00006,1.4091797,170.36844)" stroke-width=".19925" stroke-linecap="butt" stroke-miterlimit="10" stroke-linejoin="miter" fill="none" stroke="#7f807f" d="M95.01276 3.83316H99.26447M95.01276 44.18225H99.26447M95.01276 124.88043H99.26447M95.01276 165.22953H99.26447"/>
<path transform="matrix(1.00006,0,0,-1.00006,1.4091797,170.36844)" stroke-width=".3985" stroke-linecap="butt" stroke-miterlimit="10" stroke-linejoin="miter" fill="none" stroke="#000000" d="M0 84.53134H192.28472"/>
<path transform="matrix(1.00006,0,0,-1.00006,193.70543,85.83203)" d="M1.99252 0-1.19551 1.59401 0 0-1.19551-1.59401"/>
<path transform="matrix(1.00006,0,0,-1.00006,1.4091797,170.36844)" stroke-width=".3985" stroke-linecap="butt" stroke-miterlimit="10" stroke-linejoin="miter" fill="none" stroke="#000000" d="M97.13861 3.83316V163.237"/>
<path transform="matrix(0,-1.00006,-1.00006,-0,98.55361,7.1216585)" d="M1.99252 0-1.19551 1.59401 0 0-1.19551-1.59401"/>
<use data-text="&#x2212;" xlink:href="#font_1_1" transform="matrix(9.963197,0,0,-9.963197,1.2171707,99.89521)"/>
<use data-text="3" xlink:href="#font_2_2" transform="matrix(6.9742186,0,0,-6.9742186,10.161705,95.97198)"/>
<use data-text="&#x03c0;" xlink:href="#font_3_1" transform="matrix(6.9742186,0,0,-6.9742186,14.132942,95.97198)"/>
<path transform="matrix(1.00006,0,0,-1.00006,-88.71022,-50.53681)" stroke-width=".3985" stroke-linecap="butt" stroke-miterlimit="10" stroke-linejoin="miter" fill="none" stroke="#000000" d="M98.866-147.932H107.746"/>
<use data-text="2" xlink:href="#font_2_1" transform="matrix(6.9742186,0,0,-6.9742186,12.616852,103.33042)"/>
<use data-text="&#x2212;" xlink:href="#font_1_1" transform="matrix(9.963197,0,0,-9.963197,33.11008,97.29006)"/>
<use data-text="&#x03c0;" xlink:href="#font_4_1" transform="matrix(9.963197,0,0,-9.963197,40.859548,97.29006)"/>
<use data-text="&#x2212;" xlink:href="#font_1_1" transform="matrix(9.963197,0,0,-9.963197,61.753797,98.40412)"/>
<use data-text="&#x03c0;" xlink:href="#font_3_1" transform="matrix(6.9742186,0,0,-6.9742186,70.69833,94.48089)"/>
<path transform="matrix(1.00006,0,0,-1.00006,-28.173596,-52.0279)" stroke-width=".3985" stroke-linecap="butt" stroke-miterlimit="10" stroke-linejoin="miter" fill="none" stroke="#000000" d="M98.866-147.932H103.775"/>
<use data-text="2" xlink:href="#font_2_1" transform="matrix(6.9742186,0,0,-6.9742186,71.16736,101.83933)"/>
<use data-text="&#x03c0;" xlink:href="#font_3_1" transform="matrix(6.9742186,0,0,-6.9742186,125.37361,94.48089)"/>
<path transform="matrix(1.00006,0,0,-1.00006,34.251153,-52.0279)" stroke-width=".3985" stroke-linecap="butt" stroke-miterlimit="10" stroke-linejoin="miter" fill="none" stroke="#000000" d="M91.117-147.932H96.026"/>
<use data-text="2" xlink:href="#font_2_1" transform="matrix(6.9742186,0,0,-6.9742186,125.84264,101.83933)"/>
<use data-text="&#x03c0;" xlink:href="#font_4_1" transform="matrix(9.963197,0,0,-9.963197,154.08535,95.76797)"/>
<use data-text="3" xlink:href="#font_2_2" transform="matrix(6.9742186,0,0,-6.9742186,181.938,95.97198)"/>
<use data-text="&#x03c0;" xlink:href="#font_3_1" transform="matrix(6.9742186,0,0,-6.9742186,185.91025,95.97198)"/>
<path transform="matrix(1.00006,0,0,-1.00006,90.815547,-50.53681)" stroke-width=".3985" stroke-linecap="butt" stroke-miterlimit="10" stroke-linejoin="miter" fill="none" stroke="#000000" d="M91.117-147.932H99.998"/>
<use data-text="2" xlink:href="#font_2_1" transform="matrix(6.9742186,0,0,-6.9742186,184.39316,103.33042)"/>
<use data-text="&#x2212;" xlink:href="#font_1_1" transform="matrix(9.963197,0,0,-9.963197,75.1946,169.33039)"/>
<use data-text="1" xlink:href="#font_5_2" transform="matrix(9.963197,0,0,-9.963197,82.94407,169.33039)"/>
<use data-text="0" xlink:href="#font_5_1" transform="matrix(9.963197,0,0,-9.963197,87.92567,169.33039)"/>
<use data-text="&#x2212;" xlink:href="#font_1_1" transform="matrix(9.963197,0,0,-9.963197,80.1769,128.97896)"/>
<use data-text="5" xlink:href="#font_5_3" transform="matrix(9.963197,0,0,-9.963197,87.92637,128.97896)"/>
<use data-text="5" xlink:href="#font_5_3" transform="matrix(9.963197,0,0,-9.963197,87.92637,48.691148)"/>
<use data-text="1" xlink:href="#font_5_2" transform="matrix(9.963197,0,0,-9.963197,82.94407,8.339722)"/>
<use data-text="0" xlink:href="#font_5_1" transform="matrix(9.963197,0,0,-9.963197,87.92567,8.339722)"/>
<path transform="matrix(1.00006,0,0,-1.00006,1.4091797,170.36844)" stroke-width=".99628" stroke-linecap="butt" stroke-miterlimit="10" stroke-linejoin="miter" fill="none" stroke="#0000ff" d="M10.8594 2.90163 11.08347 15.71837 11.358 27.23062 11.63255 36.02122 11.90707 42.95135 12.18163 48.56116 12.45616 53.19647 12.73071 57.09396 13.00523 60.41678 13.27979 63.28221 13.55432 65.78168 13.82887 67.98264 14.1034 69.93666 14.37794 71.68152 14.65248 73.25214 14.92702 74.67259 15.20155 75.96376 15.47609 77.14455 15.75064 78.22768 16.02518 79.22502 16.29973 80.14708 16.57425 81.00215 16.8488 81.7997 17.12334 82.54343 17.39789 83.23926 17.67241 83.89188 17.94696 84.50583 18.2215 85.08443 18.49605 85.63107 18.77057 86.14981 19.0451 86.64014 19.31966 87.10632 19.5942 87.55008 19.86873 87.97336 20.14326 88.37758 20.41782 88.76273 20.69235 89.13339 20.96689 89.48741 21.24142 89.82779 21.51598 90.1548 21.79051 90.46982 22.06506 90.77309 22.33958 91.06546 22.61414 91.34766 22.88867 91.62082 23.16321 91.8847 23.43774 92.14052 23.71228 92.3881 23.98683 92.629 24.26137 92.86244 24.5359 93.0893 24.81044 93.31001 25.08499 93.5249 25.35953 93.73448 25.63406 93.93864 25.9086 94.13773 26.18315 94.33228 26.45769 94.52234 26.73222 94.70816 27.00676 94.89015 27.2813 95.06818 27.55585 95.2424 27.83038 95.41357 28.10492 95.58118 28.37946 95.74579 28.654 95.90744 28.92854 96.0664 29.20308 96.2228 29.47762 96.37662 29.75217 96.52792 30.0267 96.67705 30.30124 96.82384 30.57578 96.96878 30.85033 97.11186 31.12486 97.25282 31.39938 97.39236 31.67393 97.52988 31.94847 97.66609 32.22302 97.8007 32.49754 97.93376 32.7721 98.06595 33.04663 98.19652 33.32118 98.32611 33.59572 98.45442 33.87025 98.58185 34.14479 98.70831 34.41934 98.83363 34.69388 98.9583 34.9684 99.08218 35.24295 99.20525 35.51749 99.32784 35.79204 99.4496 36.06656 99.57104 36.34111 99.69179 36.61565 99.81233 36.8902 99.93237 37.16472 100.05194 37.43927 100.17143 37.7138 100.29068 37.98836 100.40976 38.26288 100.52876 38.53743 100.64757 38.81195 100.76645 39.08652 100.8853 39.36104 101.00421 39.63557 101.12344 39.91014 101.24278 40.18466 101.36237 40.45921 101.4823 40.73372 101.60246 41.00829 101.72327 41.28284 101.84448 41.55736 101.96602 41.83191 102.08827 42.10641 102.21124 42.38098 102.33488 42.65553 102.459 42.93004 102.58415 43.2046 102.7102 43.47913 102.83714 43.75368 102.96513 44.02823 103.0942 44.30275 103.22458 44.5773 103.35579 44.85182 103.48854 45.12639 103.62267 45.40092 103.75824 45.67545 103.89519 45.95001 104.03381 46.22452 104.17432 46.49907 104.31651 46.77362 104.46056 47.04814 104.60678 47.32271 104.75502 47.59721 104.90535 47.87177 105.05829 48.14633 105.21355 48.42085 105.37157 48.69539 105.53197 48.96991 105.69539 49.24448 105.86212 49.51903 106.03166 49.79353 106.20453 50.06808 106.38116 50.3426 106.56137 50.61717 106.74593 50.89172 106.93411 51.16623 107.12683 51.4408 107.32436 51.71532 107.52652 51.98987 107.73375 52.26442 107.94647 52.53894 108.16476 52.81349 108.38934 53.08801 108.62013 53.36256 108.85764 53.63712 109.1028 53.91164 109.35522 54.18619 109.61603 54.4607 109.88548 54.73526 110.1639 55.00981 110.45247 55.28433 110.75137 55.55888 111.06166 55.8334 111.38348 56.10796 111.7188 56.38252 112.06715 56.65704 112.43095 56.93158 112.8103 57.2061 113.20718 57.48067 113.62247 57.75522 114.0579 58.02972 114.51498 58.30428 114.99635 58.5788 115.50266 58.85336 116.03816 59.1279 116.60336 59.40242 117.20392 59.67699 117.8404 59.9515 118.51938 60.22604 119.24365 60.50061 120.01852 60.77513 120.85036 61.04968 121.74466 61.32419 122.7119 61.59875 123.75912 61.8733 124.89874 62.14783 126.14658 62.42238 127.51247 62.69688 129.02146 62.97145 130.69376 63.246 132.56337 63.52052 134.65999 63.79507 137.03429 64.0696 139.74633 64.34415 142.87459 64.61871 146.52893 64.89322 150.84772 65.16777 156.03388 65.31789 159.51293"/>
<path transform="matrix(-.017471048,.99988999,.99988999,.017471048,12.269231,167.46663)" d="M2.8892 0-1.73352 2.31136 0 0-1.73352-2.31136" fill="#0000ff"/>
<path transform="matrix(.043062584,-.9990699,-.9990699,-.043062584,66.730968,10.845963)" d="M2.8892 0-1.73352 2.31136 0 0-1.73352-2.31136" fill="#0000ff"/>
<path transform="matrix(1.00006,0,0,-1.00006,1.4091797,170.36844)" stroke-width=".99628" stroke-linecap="butt" stroke-miterlimit="10" stroke-linejoin="miter" fill="none" stroke="#0000ff" d="M69.40645 2.90163 69.63051 15.71837 69.90506 27.23062 70.1796 36.02122 70.45412 42.95555 70.72867 48.56116 71.0032 53.19647 71.27776 57.09396 71.55228 60.41678 71.82683 63.28221 72.10136 65.78168 72.37592 67.97989 72.65045 69.93544 72.92499 71.68257 73.19952 73.25311 73.47408 74.67259 73.74861 75.96376 74.02315 77.14478 74.29768 78.22679 74.57222 79.22502 74.84677 80.14708 75.12129 81.00354 75.39584 81.79945 75.67038 82.54219 75.94493 83.23837 76.21945 83.89188 76.494 84.50583 76.76854 85.08508 77.04309 85.63164 77.31761 86.14981 77.59216 86.6398 77.8667 87.10632 78.14125 87.54985 78.41579 87.97336 78.6903 88.37749 78.96486 88.76273 79.2394 89.1329 79.51395 89.48741 79.78847 89.82788 80.06302 90.1548 80.33755 90.46967 80.6121 90.77309 80.88663 91.0653 81.16118 91.34766 81.43571 91.62068 81.71027 91.8847 81.98479 92.14052 82.25934 92.3881 82.53387 92.62883 82.80841 92.86244 83.08295 93.0893 83.35748 93.31001 83.63203 93.52505 83.90657 93.73448 84.18112 93.9384 84.45564 94.13773 84.7302 94.3322 85.00473 94.52234 85.27928 94.70825 85.5538 94.89015 85.82835 95.06793 86.10289 95.2424 86.37744 95.41333 86.65196 95.58118 86.9265 95.74564 87.20105 95.90744 87.47559 96.0664 87.75012 96.2228 88.02466 96.37662 88.29921 96.52792 88.57375 96.67705 88.84828 96.82384 89.12282 96.96878 89.39737 97.11186 89.6719 97.25299 89.94646 97.39236 90.22098 97.53003 90.49553 97.66609 90.77007 97.8007 91.0446 97.93376 91.31914 98.06595 91.59367 98.19652 91.86823 98.32611 92.14276 98.45442 92.4173 98.58185 92.69183 98.70831 92.96638 98.83363 93.24092 98.9583 93.51546 99.08202 93.79 99.20525 94.06454 99.32784 94.33908 99.4496 94.61362 99.57104 94.88815 99.69179 95.16269 99.81233 95.43724 99.93237 95.71178 100.05211 95.98631 100.17143 96.26085 100.29068 96.5354 100.40976 96.80994 100.52876 97.08449 100.64757 97.35901 100.76645 97.63356 100.8853 97.90808 101.00421 98.18263 101.12344 98.45718 101.24278 98.7317 101.36237 99.00626 101.4823 99.28076 101.6027 99.55533 101.72318 99.82988 101.84448 100.1044 101.96602 100.37897 102.08827 100.65347 102.21124 100.92802 102.3348 101.20259 102.459 101.47711 102.58423 101.75165 102.71014 102.02617 102.83714 102.30074 102.96513 102.57529 103.0942 102.8498 103.22443 103.12434 103.35579 103.39886 103.48854 103.67343 103.6225 103.94797 103.75824 104.22249 103.89519 104.49706 104.03389 104.77158 104.17432 105.04611 104.31651 105.32068 104.46056 105.5952 104.60678 105.86975 104.75502 106.14427 104.90535 106.41882 105.05829 106.69337 105.21355 106.9679 105.37157 107.24245 105.53197 107.51695 105.69539 107.79152 105.86229 108.06607 106.03166 108.34059 106.20485 108.61514 106.38124 108.88966 106.56152 109.16422 106.74593 109.43878 106.93411 109.71329 107.12683 109.98784 107.32422 110.26236 107.52652 110.53693 107.73375 110.81146 107.94655 111.08598 108.16484 111.36053 108.38934 111.63506 108.62013 111.90962 108.85764 112.18416 109.1028 112.45868 109.35522 112.73325 109.61603 113.00777 109.88548 113.2823 110.1639 113.55687 110.4524 113.83139 110.75145 114.10594 111.0615 114.38045 111.38405 114.655 111.7188 114.92957 112.06715 115.20409 112.43112 115.47862 112.8108 115.75314 113.20662 116.02771 113.62238 116.30226 114.0579 116.57677 114.51514 116.85133 114.99571 117.12585 115.50266 117.4004 116.03767 117.67497 116.60336 117.94948 117.20352 118.22403 117.84079 118.49855 118.51938 118.7731 119.24373 119.04765 120.01755 119.32217 120.85036 119.59673 121.74515 119.87125 122.7119 120.1458 123.75977 120.42035 124.90036 120.69487 126.14577 120.96944 127.51329 121.24394 129.02104 121.5185 130.69609 121.79306 132.562 122.06758 134.65999 122.34212 137.036 122.61664 139.74633 122.89119 142.87685 123.16576 146.52893 123.44028 150.85095 123.71481 156.04146 123.86476 159.51293"/>
<path transform="matrix(-.017471048,.99988999,.99988999,.017471048,70.819789,167.46663)" d="M2.8892 0-1.73352 2.31136 0 0-1.73352-2.31136" fill="#0000ff"/>
<path transform="matrix(.043122587,-.9990699,-.9990699,-.043122587,125.281368,10.845963)" d="M2.8892 0-1.73352 2.31136 0 0-1.73352-2.31136" fill="#0000ff"/>
<path transform="matrix(1.00006,0,0,-1.00006,1.4091797,170.36844)" stroke-width=".99628" stroke-linecap="butt" stroke-miterlimit="10" stroke-linejoin="miter" fill="none" stroke="#0000ff" d="M127.9534 2.88872 128.17755 15.72725 128.4521 27.23062 128.72664 36.0263 129.00119 42.95555 129.27571 48.56116 129.55027 53.19647 129.8248 57.09167 130.09934 60.41678 130.37387 63.28253 130.6484 65.78168 130.92296 67.97989 131.1975 69.93666 131.47203 71.68152 131.74657 73.2515 132.02112 74.67259 132.29566 75.96376 132.57019 77.14478 132.84473 78.22815 133.11928 79.22502 133.39382 80.14708 133.66837 81.0024 133.94289 81.79994 134.21743 82.54309 134.49198 83.23837 134.76651 83.89188 135.04105 84.50551 135.31558 85.08467 135.59014 85.63188 135.86467 86.14996 136.1392 86.64014 136.41374 87.10632 136.6883 87.54985 136.96283 87.97336 137.23737 88.37708 137.5119 88.76273 137.78646 89.1329 138.06099 89.48741 138.33551 89.82756 138.61006 90.1548 138.8846 90.46957 139.15915 90.77293 139.43369 91.0653 139.70822 91.34741 139.98276 91.62114 140.25731 91.8847 140.53185 92.14052 140.80638 92.38828 141.08092 92.62883 141.35547 92.86244 141.63 93.0893 141.90454 93.31001 142.17908 93.52505 142.45362 93.73463 142.72817 93.93864 143.00269 94.13773 143.27724 94.3322 143.55178 94.52234 143.82633 94.70825 144.10085 94.89 144.3754 95.06793 144.64994 95.2424 144.92449 95.41316 145.19902 95.58118 145.47356 95.74596 145.7481 95.90744 146.02265 96.0664 146.29718 96.2228 146.5717 96.37662 146.84626 96.52792 147.12079 96.67705 147.39534 96.82384 147.66986 96.96886 147.94441 97.11186 148.21895 97.25299 148.4935 97.39236 148.76802 97.53003 149.04257 97.66609 149.31711 97.8007 149.59166 97.934 149.86618 98.06595 150.14072 98.19652 150.41527 98.32596 150.6898 98.45442 150.96436 98.58185 151.23888 98.70831 151.51343 98.83363 151.78797 98.9583 152.06252 99.08202 152.33704 99.20525 152.61159 99.32784 152.88613 99.44968 153.16068 99.57088 153.4352 99.69179 153.70975 99.81233 153.98429 99.93222 154.25882 100.05194 154.53336 100.17143 154.80789 100.29068 155.08245 100.40976 155.35698 100.52876 155.63153 100.64757 155.90605 100.76645 156.1806 100.8853 156.45513 101.00421 156.72969 101.12337 157.00423 101.24278 157.27875 101.36237 157.5533 101.4823 157.82782 101.6027 158.10237 101.72318 158.37693 101.84448 158.65145 101.9661 158.92601 102.08835 159.20052 102.21124 159.47507 102.3348 159.74964 102.459 160.02416 102.58415 160.29869 102.71014 160.57321 102.83714 160.84778 102.96513 161.12233 103.0942 161.39685 103.22443 161.67139 103.35579 161.9459 103.48854 162.22048 103.62267 162.49503 103.758 162.76953 103.89519 163.0441 104.03381 163.31862 104.17432 163.59317 104.31651 163.86772 104.46071 164.14225 104.60678 164.4168 104.75502 164.69132 104.9052 164.96587 105.05829 165.24042 105.21355 165.51494 105.3714 165.78949 105.53197 166.064 105.69539 166.33856 105.86197 166.61312 106.03166 166.88764 106.20453 167.16219 106.38124 167.4367 106.56152 167.71126 106.74576 167.98583 106.93411 168.26035 107.12683 168.53488 107.32436 168.8094 107.52652 169.08397 107.7335 169.35852 107.94647 169.63303 108.16484 169.90758 108.38927 170.1821 108.62013 170.45667 108.8578 170.7312 109.10272 171.00572 109.35522 171.28029 109.6158 171.55481 109.88548 171.82935 110.16414 172.10391 110.45264 172.37844 110.75145 172.65299 111.0615 172.9275 111.38364 173.20206 111.71855 173.47661 112.06715 173.75113 112.43095 174.02568 112.81056 174.30019 113.20662 174.57476 113.62247 174.8493 114.0579 175.12383 114.51514 175.39838 114.99571 175.6729 115.50288 175.94745 116.03831 176.22202 116.60434 176.49652 117.20352 176.77108 117.84079 177.0456 118.5189 177.32016 119.24286 177.5947 120.01852 177.86922 120.85085 178.14377 121.74515 178.41829 122.7119 178.69286 123.75977 178.96739 124.89874 179.24192 126.14577 179.51648 127.51271 179.791 129.02104 180.06554 130.69417 180.3401 132.562 180.61463 134.65999 180.88918 137.03356 181.16368 139.74633 181.43825 142.87685 181.7128 146.5315 181.98732 150.85095 182.26186 156.04146 182.4118 159.51293"/>
<path transform="matrix(-.017441046,.99988999,.99988999,.017441046,129.37027,167.47954)" d="M2.8892 0-1.73352 2.31136 0 0-1.73352-2.31136" fill="#0000ff"/>
<path transform="matrix(.043122587,-.9990699,-.9990699,-.043122587,183.83193,10.845963)" d="M2.8892 0-1.73352 2.31136 0 0-1.73352-2.31136" fill="#0000ff"/>
<path transform="matrix(1.00006,0,0,-1.00006,1.4091797,170.36844)" stroke-width=".3985" stroke-linecap="butt" stroke-dasharray="2.98883,2.98883" stroke-miterlimit="10" stroke-linejoin="miter" fill="none" stroke="#ff0000" d="M9.31804 3.83316V165.22953"/>
<path transform="matrix(1.00006,0,0,-1.00006,1.4091797,170.36844)" stroke-width=".3985" stroke-linecap="butt" stroke-dasharray="2.98883,2.98883" stroke-miterlimit="10" stroke-linejoin="miter" fill="none" stroke="#ff0000" d="M67.8651 3.83316V165.22953"/>
<path transform="matrix(1.00006,0,0,-1.00006,1.4091797,170.36844)" stroke-width=".3985" stroke-linecap="butt" stroke-dasharray="2.98883,2.98883" stroke-miterlimit="10" stroke-linejoin="miter" fill="none" stroke="#ff0000" d="M126.41214 3.83316V165.22953"/>
<path transform="matrix(1.00006,0,0,-1.00006,1.4091797,170.36844)" stroke-width=".3985" stroke-linecap="butt" stroke-dasharray="2.98883,2.98883" stroke-miterlimit="10" stroke-linejoin="miter" fill="none" stroke="#ff0000" d="M184.95919 3.83316V165.22953"/>
<use data-text="x" xlink:href="#font_4_2" transform="matrix(9.963197,0,0,-9.963197,186.48328,82.31216)"/>
<use data-text="y" xlink:href="#font_4_3" transform="matrix(9.963197,0,0,-9.963197,102.07321,12.938995)"/>
</svg>
