<svg xmlns="http://www.w3.org/2000/svg" xmlns:xlink="http://www.w3.org/1999/xlink" version="1.1" width="207" height="171" viewBox="0 0 207 171">
<defs>
<path id="font_1_1" d="M.6589966 .23046875C.6759949 .23046875 .69400027 .23046875 .69400027 .25045777 .69400027 .27046205 .6759949 .27046205 .6589966 .27046205H.117996219C.100997928 .27046205 .08299255 .27046205 .08299255 .25045777 .08299255 .23046875 .100997928 .23046875 .117996219 .23046875H.6589966Z"/>
<path id="font_2_3" d="M.1269989 .07699585 .23298645 .18003845C.3889923 .31811524 .44898988 .3721466 .44898988 .47216798 .44898988 .5860901 .35899354 .6660156 .23699951 .6660156 .12399292 .6660156 .049987794 .57411196 .049987794 .48516847 .049987794 .4291687 .099990848 .4291687 .102996829 .4291687 .11999512 .4291687 .15499878 .44117738 .15499878 .48217774 .15499878 .5081787 .13699341 .5341797 .101989749 .5341797 .09399414 .5341797 .09199524 .5341797 .08898926 .5331726 .11199951 .59806826 .1659851 .63500979 .22399903 .63500979 .31498719 .63500979 .35798646 .5541382 .35798646 .47216798 .35798646 .39215089 .30799867 .31311036 .25299073 .25108338L.06098938 .036987306C.049987794 .025985718 .049987794 .023986817 .049987794 0H.42099L.44898988 .17404175H.42399598C.4189911 .14402771 .4119873 .1000061 .4019928 .084991458 .394989 .07699585 .32899476 .07699585 .30699159 .07699585H.1269989Z"/>
<path id="font_3_1" d="M.2649994 .37265016H.37799073C.34498597 .22489929 .33599855 .18196106 .33599855 .11508179 .33599855 .100097659 .33599855 .073150638 .34399415 .03919983 .35398866-.0047454836 .36499024-.0107421879 .37998963-.0107421879 .3999939-.0107421879 .42099 .007247925 .42099 .02722168 .42099 .033218385 .42099 .035202028 .4149933 .049179079 .38598634 .12106323 .38598634 .18595886 .38598634 .21391297 .38598634 .26683045 .3929901 .32073976 .4039917 .37265016H.5179901C.5309906 .37265016 .5669861 .37265016 .5669861 .406662 .5669861 .43066407 .54599 .43066407 .5269928 .43066407H.19198609C.16999817 .43066407 .13198853 .43066407 .08799744 .38365174 .052993776 .34469605 .026992798 .29878236 .026992798 .29379273 .026992798 .29278565 .026992798 .28379823 .038986207 .28379823 .04699707 .28379823 .04899597 .28779603 .054992677 .29577638 .10398865 .37265016 .1619873 .37265016 .18199158 .37265016H.23899842C.20698548 .25186158 .15299988 .13105774 .11099243 .04020691 .102996829 .025222779 .102996829 .023223877 .102996829 .016235352 .102996829-.002746582 .11898804-.0107421879 .13198853-.0107421879 .1619873-.0107421879 .16999817 .017242432 .18199158 .05418396 .19599915 .100097659 .19599915 .10209656 .20899964 .15202332L.2649994 .37265016Z"/>
<path id="font_2_2" d="M.2939911 .64004519C.2939911 .66400149 .2939911 .6660156 .2709961 .6660156 .20899964 .60227969 .12098694 .60227969 .08898926 .60227969V.57128909C.10899353 .57128909 .16799927 .57128909 .21998596 .5972748V.07902527C.21998596 .042999269 .21699524 .0309906 .1269989 .0309906H.09498596V0C.12998963 .0029907227 .21699524 .0029907227 .25698854 .0029907227 .29699708 .0029907227 .38398744 .0029907227 .4189911 0V.0309906H.3869934C.29699708 .0309906 .2939911 .041992189 .2939911 .07902527V.64004519Z"/>
<path id="font_2_1" d="M.45999146 .31976319C.45999146 .39982606 .45498658 .47988893 .41999818 .5539398 .37399293 .65000918 .2919922 .6660156 .25 .6660156 .18998719 .6660156 .116989139 .64001467 .07598877 .54693606 .04399109 .47789 .038986207 .39982606 .038986207 .31976319 .038986207 .24472046 .042999269 .15464783 .083999637 .07859802 .1269989-.0024719239 .19999695-.022460938 .24899292-.022460938 .30299378-.022460938 .3789978-.0014648438 .4229889 .09359741 .45498658 .16265869 .45999146 .2407074 .45999146 .31976319M.24899292-.00047302247C.20999146-.00047302247 .15098572 .024551392 .1329956 .12062073 .12199402 .18066406 .12199402 .2727356 .12199402 .3317871 .12199402 .39582826 .12199402 .46188355 .12998963 .5159149 .14898682 .63500979 .22399903 .64401248 .24899292 .64401248 .28199769 .64401248 .34799195 .6259918 .36698915 .52693179 .3769989 .47088624 .3769989 .39482118 .3769989 .3317871 .3769989 .25672914 .3769989 .18867493 .3659973 .12461853 .35099793 .029556275 .2939911-.00047302247 .24899292-.00047302247Z"/>
<path id="font_2_4" d="M.44898988 .20022583C.44898988 .3193512 .36698915 .41944886 .25898744 .41944886 .21099854 .41944886 .16799927 .40345765 .13198853 .36842347V.5637665C.1519928 .5577698 .18499756 .55078127 .21699524 .55078127 .33999635 .55078127 .4099884 .6417694 .4099884 .6547699 .4099884 .6607666 .40699769 .6657715 .3999939 .6657715 .39898683 .6657715 .39698792 .6657715 .3919983 .66278079 .37199403 .6537781 .32299806 .6337738 .2559967 .6337738 .21598816 .6337738 .16999817 .6407776 .12298584 .6617737 .114990238 .66477969 .11299133 .66477969 .11099243 .66477969 .100997928 .66477969 .100997928 .6567688 .100997928 .6407776V.34439088C.100997928 .32637025 .100997928 .31835938 .114990238 .31835938 .12199402 .31835938 .12399292 .32136537 .12799073 .32736207 .13899231 .3433838 .17599488 .39746095 .25698854 .39746095 .30899049 .39746095 .33399964 .35139466 .34199525 .33337403 .35798646 .29632569 .3600006 .25727845 .3600006 .20722962 .3600006 .17222595 .3600006 .11222839 .33599855 .07035828 .31199647 .031463624 .2749939 .0055389406 .22898865 .0055389406 .1559906 .0055389406 .09899902 .058380128 .08198547 .11723328 .084991458 .1162262 .08799744 .115234378 .09899902 .115234378 .13198853 .115234378 .14898682 .14022827 .14898682 .16423035 .14898682 .18823242 .13198853 .21322632 .09899902 .21322632 .084991458 .21322632 .049987794 .20622254 .049987794 .16023255 .049987794 .07434082 .11898804-.022460938 .23098755-.022460938 .34700013-.022460938 .44898988 .073349 .44898988 .20022583Z"/>
<path id="font_3_2" d="M.33399964 .30233766C.33999635 .32835389 .36299134 .42037965 .43299867 .42037965 .43798829 .42037965 .46199037 .42037965 .48298646 .40734864 .45498658 .402359 .43499757 .37734986 .43499757 .35334779 .43499757 .33735658 .44599916 .31835938 .47299195 .31835938 .49499513 .31835938 .5269928 .3363495 .5269928 .37635804 .5269928 .42837525 .46798707 .4423828 .43399049 .4423828 .37599183 .4423828 .34098817 .38935853 .32899476 .36634828 .3039856 .43237306 .25 .4423828 .22099304 .4423828 .116989139 .4423828 .05999756 .3133545 .05999756 .28834535 .05999756 .27833558 .069992069 .27833558 .07199097 .27833558 .07998657 .27833558 .08299255 .28033448 .084991458 .28933717 .11898804 .39535523 .18499756 .42037965 .21899414 .42037965 .23799134 .42037965 .272995 .4113617 .272995 .35334779 .272995 .32235719 .2559967 .25532533 .21899414 .11528015 .20298767 .053268434 .16799927 .011245728 .12399292 .011245728 .117996219 .011245728 .09498596 .011245728 .07398987 .024276734 .09899902 .029266358 .12098694 .05027771 .12098694 .07827759 .12098694 .105270389 .09899902 .11328125 .083999637 .11328125 .053985597 .11328125 .0289917 .08728027 .0289917 .055267335 .0289917 .009246826 .07899475-.0107421879 .12298584-.0107421879 .18899536-.0107421879 .22499085 .059280397 .22799683 .0652771 .23999024 .028274537 .27598573-.0107421879 .33599855-.0107421879 .43899537-.0107421879 .49598695 .118270877 .49598695 .14328003 .49598695 .1532898 .4869995 .1532898 .48399354 .1532898 .47499085 .1532898 .47299195 .14929199 .47099305 .14228821 .43798829 .03527832 .36999513 .011245728 .33799745 .011245728 .29899598 .011245728 .2829895 .043273927 .2829895 .07727051 .2829895 .09927368 .2889862 .121276859 .2999878 .16529846L.33399964 .30233766Z"/>
<path id="font_3_3" d="M.48599244 .38136292C.48999024 .39537049 .48999024 .39736939 .48999024 .40437318 .48999024 .42237855 .47599793 .43138124 .46099855 .43138124 .45098878 .43138124 .43499757 .42536927 .42599488 .41036988 .42399598 .405365 .41600038 .37435914 .4119873 .35635377 .40499879 .33035279 .397995 .30334474 .3919983 .27633668L.34700013 .09628296C.34298707 .08126831 .2999878 .011245728 .23399353 .011245728 .18299866 .011245728 .17199707 .055267335 .17199707 .0922699 .17199707 .1382904 .18899536 .20030213 .22299195 .28833009 .23899842 .3293457 .24299622 .3403473 .24299622 .36035157 .24299622 .405365 .21099854 .4423828 .16099549 .4423828 .06599426 .4423828 .0289917 .29733277 .0289917 .28833009 .0289917 .27833558 .038986207 .27833558 .040985109 .27833558 .050994874 .27833558 .051986696 .28033448 .056991579 .29634095 .083999637 .3903656 .12399292 .42037965 .1579895 .42037965 .1659851 .42037965 .18299866 .42037965 .18299866 .3883667 .18299866 .36335755 .17298889 .3373413 .1659851 .31834413 .12599182 .21231079 .10798645 .1552887 .10798645 .10827637 .10798645 .019256592 .17098999-.0107421879 .22999573-.0107421879 .2689972-.0107421879 .30299378 .0062561037 .33099366 .03425598 .31799317-.017745972 .30599977-.06674194 .2659912-.11973572 .23999024-.15385437 .20199585-.18309021 .1559906-.18309021 .14199829-.18309021 .09700012-.18005371 .07998657-.14074707 .09599304-.14074707 .10899353-.14074707 .12298584-.1287384 .1329956-.11973572 .14299011-.10673523 .14299011-.08773804 .14299011-.056747438 .115997318-.052734376 .10598755-.052734376 .08299255-.052734376 .049987794-.068740848 .049987794-.11773682 .049987794-.16796875 .09399414-.20507813 .1559906-.20507813 .25898744-.20507813 .3619995-.11373901 .3899994-.00074768069L.48599244 .38136292Z"/>
</defs>
<path transform="matrix(1.00005,0,0,-1.00006,8.079704,166.82523)" stroke-width=".19925" stroke-linecap="butt" stroke-miterlimit="10" stroke-linejoin="miter" fill="none" stroke="#929292" d="M1.52171 79.5705V82.40526M13.47325 79.5705V82.40526M25.42479 79.5705V82.40526M37.37634 79.5705V82.40526M49.32788 79.5705V82.40526M61.27942 79.5705V82.40526M73.23096 79.5705V82.40526M85.18251 79.5705V82.40526M97.13405 79.5705V82.40526M109.0856 79.5705V82.40526M121.03714 79.5705V82.40526M132.9887 79.5705V82.40526M144.94023 79.5705V82.40526M156.89179 79.5705V82.40526M168.84334 79.5705V82.40526M180.79488 79.5705V82.40526M192.74643 79.5705V82.40526"/>
<path transform="matrix(1.00005,0,0,-1.00006,8.079704,166.82523)" stroke-width=".19925" stroke-linecap="butt" stroke-miterlimit="10" stroke-linejoin="miter" fill="none" stroke="#929292" d="M1.52171 78.862V83.11374M49.32788 78.862V83.11374M144.94023 78.862V83.11374M192.74643 78.862V83.11374"/>
<path transform="matrix(1.00005,0,0,-1.00006,8.079704,166.82523)" stroke-width=".19925" stroke-linecap="butt" stroke-miterlimit="10" stroke-linejoin="miter" fill="none" stroke="#929292" d="M95.00812 .28969H99.26001M95.00812 40.63878H99.26001M95.00812 121.33696H99.26001M95.00812 161.68605H99.26001"/>
<path transform="matrix(1.00005,0,0,-1.00006,8.079704,166.82523)" stroke-width=".3985" stroke-linecap="butt" stroke-miterlimit="10" stroke-linejoin="miter" fill="none" stroke="#000000" d="M0 80.98787H192.2756"/>
<path transform="matrix(1.00005,0,0,-1.00006,200.3649,85.8325)" d="M1.99252 0-1.19551 1.59401 0 0-1.19551-1.59401"/>
<path transform="matrix(1.00005,0,0,-1.00006,8.079704,166.82523)" stroke-width=".3985" stroke-linecap="butt" stroke-miterlimit="10" stroke-linejoin="miter" fill="none" stroke="#000000" d="M97.13405 .28969V159.69353"/>
<path transform="matrix(0,-1.00006,-1.00005,-0,105.218608,7.122116)" d="M1.99252 0-1.19551 1.59401 0 0-1.19551-1.59401"/>
<use data-text="&#x2212;" xlink:href="#font_1_1" transform="matrix(9.963098,0,0,-9.963197,.21730805,97.89909)"/>
<use data-text="2" xlink:href="#font_2_3" transform="matrix(9.963098,0,0,-9.963197,7.9666979,97.89909)"/>
<use data-text="&#x03c0;" xlink:href="#font_3_1" transform="matrix(9.963098,0,0,-9.963197,12.947945,97.89909)"/>
<use data-text="&#x2212;" xlink:href="#font_1_1" transform="matrix(9.963098,0,0,-9.963197,50.516828,97.29006)"/>
<use data-text="&#x03c0;" xlink:href="#font_3_1" transform="matrix(9.963098,0,0,-9.963197,58.266218,97.29006)"/>
<use data-text="&#x03c0;" xlink:href="#font_3_1" transform="matrix(9.963098,0,0,-9.963197,150.00879,95.76797)"/>
<use data-text="2" xlink:href="#font_2_3" transform="matrix(9.963098,0,0,-9.963197,195.32605,97.89909)"/>
<use data-text="&#x03c0;" xlink:href="#font_3_1" transform="matrix(9.963098,0,0,-9.963197,200.30731,97.89909)"/>
<use data-text="&#x2212;" xlink:href="#font_1_1" transform="matrix(9.963098,0,0,-9.963197,81.86039,169.33039)"/>
<use data-text="1" xlink:href="#font_2_2" transform="matrix(9.963098,0,0,-9.963197,89.60978,169.33039)"/>
<use data-text="0" xlink:href="#font_2_1" transform="matrix(9.963098,0,0,-9.963197,94.591327,169.33039)"/>
<use data-text="&#x2212;" xlink:href="#font_1_1" transform="matrix(9.963098,0,0,-9.963197,86.841648,128.97896)"/>
<use data-text="5" xlink:href="#font_2_4" transform="matrix(9.963098,0,0,-9.963197,94.591037,128.97896)"/>
<use data-text="5" xlink:href="#font_2_4" transform="matrix(9.963098,0,0,-9.963197,94.59103,48.691148)"/>
<use data-text="1" xlink:href="#font_2_2" transform="matrix(9.963098,0,0,-9.963197,89.60878,8.339722)"/>
<use data-text="0" xlink:href="#font_2_1" transform="matrix(9.963098,0,0,-9.963197,94.59033,8.339722)"/>
<path transform="matrix(1.00005,0,0,-1.00006,8.079704,166.82523)" stroke-width=".99628" stroke-linecap="butt" stroke-miterlimit="10" stroke-linejoin="miter" fill="none" stroke="#0000ff" d="M4.41092 113.26796 1.61046 113.26875 1.69922 113.27037 1.788 113.2728 1.87675 113.27762 1.96552 113.28247 2.05426 113.28731 2.14304 113.29619 2.2318 113.30345 2.32056 113.31233 2.40932 113.32364 2.4981 113.33574 2.58684 113.34703 2.6756 113.36156 2.76436 113.37769 2.85313 113.39221 2.9419 113.41078 3.03065 113.42854 3.11942 113.44629 3.20818 113.46727 3.29694 113.48987 3.3857 113.51164 3.47447 113.53667 3.56323 113.56088 3.65198 113.5867 3.74074 113.61496 3.82951 113.64482 3.91827 113.67145 4.00703 113.70534 4.0958 113.73518 4.18456 113.76746 4.27332 113.80379 4.36208 113.8393 4.45084 113.87642 4.53961 113.91435 4.62837 113.95389 4.71712 113.9918 4.80588 114.03539 4.89465 114.07816 4.98341 114.12093 5.07217 114.16772 5.16095 114.21373 5.2497 114.26054 5.33846 114.31218 5.42722 114.3614 5.51599 114.41304 5.60475 114.46712 5.69351 114.5212 5.78226 114.57527 5.87103 114.63335 5.9598 114.69228 6.04855 114.75038 6.13731 114.81331 6.22609 114.87465 6.31483 114.9376 6.4036 115.00377 6.49236 115.07074 6.58113 115.13853 6.66989 115.20876 6.75865 115.27975 6.8474 115.35158 6.93617 115.42502 7.02493 115.50168 7.1137 115.57672 7.20247 115.65662 7.29123 115.7365 7.37997 115.8172 7.46873 115.90031 7.55751 115.98666 7.64627 116.07141 7.73503 116.16017 7.82379 116.24895 7.91255 116.33852 8.00131 116.43454 8.09007 116.52815 8.17883 116.62419 8.26761 116.72345 8.35637 116.82271 8.44511 116.92358 8.53387 117.02849 8.62265 117.13257 8.71141 117.2391 8.80017 117.34967 8.88893 117.45941 8.97769 117.5724 9.06645 117.6886 9.15521 117.80399 9.24399 117.92262 9.33275 118.04446 9.42151 118.16714 9.51025 118.29222 9.59903 118.41971 9.68779 118.54803 9.77655 118.67957 9.86531 118.81354 9.95409 118.9491 10.04283 119.08548 10.13159 119.22751 10.22035 119.37196 10.30913 119.5148 10.39789 119.66328 10.48665 119.81339 10.5754 119.9651 10.66417 120.12164 10.75293 120.27982 10.84169 120.43959 10.93045 120.6026 11.01921 120.76804 11.10799 120.9359 11.19673 121.10939 11.2855 121.28128 11.37427 121.45882 11.46303 121.63959 11.55179 121.82356 11.64055 122.00836 11.72931 122.19801 11.81807 122.39008 11.90683 122.58536 11.9956 122.78468 12.08435 122.98723 12.17311 123.1914 12.26189 123.40204 12.35065 123.61345 12.4394 123.82892 12.52815 124.05084 12.61693 124.27356 12.7057 124.50194 12.79445 124.73436 12.88321 124.96837 12.97198 125.20563 13.06075 125.45096 13.1495 125.69708 13.23825 125.95047 13.32703 126.20709 13.41579 126.46774 13.50455 126.73405 13.5933 127.00519 13.68207 127.27957 13.77084 127.55879 13.85959 127.84445 13.94835 128.13417 14.03712 128.42954 14.12589 128.73134 14.21465 129.03638 14.30339 129.34947 14.39217 129.66742 14.48093 129.98943 14.56969 130.31705 14.65845 130.65599 14.74721 130.99571 14.83597 131.34516 14.92474 131.70023 15.0135 132.06174 15.10226 132.43054 15.19101 132.8082 15.27979 133.18991 15.36856 133.58049 15.4573 133.98075 15.54607 134.38585 15.63483 134.80065 15.7236 135.2227 15.81236 135.65361 15.90111 136.09343 15.98987 136.54534 16.07864 137.00209 16.1674 137.47014 16.25616 137.9503 16.34491 138.4377 16.4337 138.93563 16.52245 139.44402 16.6112 139.96453 16.69997 140.49713 16.78874 141.04265 16.8775 141.59543 16.96625 142.16274 17.05502 142.74619 17.1438 143.33852 17.23254 143.94617 17.3213 144.56917 17.41006 145.20587 17.49883 145.85791 17.5876 146.52689 17.67635 147.20801 17.76512 147.90845 17.85387 148.62747 17.94264 149.36264 18.0314 150.11878 18.12016 150.89348 18.20892 151.6835 18.29768 152.49614 18.38644 153.33379 18.47522 154.1892 18.56396 155.07283 18.65273 155.97344 18.74149 156.90468 18.83026 157.8642 18.91902 158.84386 19.00777 159.85501 19.09656 160.8952 18.94777 159.09006"/>
<path transform="matrix(-1.00005,-0,0,1.00006,12.490845,53.550477)" d="M2.8892 0-1.73352 2.31136 0 0-1.73352-2.31136" fill="#0000ff"/>
<path transform="matrix(.0822141,-.9966098,-.9965998,-.08221493,27.02842,7.725647)" d="M2.8892 0-1.73352 2.31136 0 0-1.73352-2.31136" fill="#0000ff"/>
<path transform="matrix(1.00005,0,0,-1.00006,8.079704,166.82523)" stroke-width=".99628" stroke-linecap="butt" stroke-miterlimit="10" stroke-linejoin="miter" fill="none" stroke="#0000ff" d="M31.90506 2.87897 31.84135 2.11588 32.01889 4.11075 32.19641 5.99667 32.37395 7.7809 32.55147 9.47476 32.729 11.08147 32.90652 12.60828 33.08406 14.06488 33.26158 15.44803 33.43912 16.76503 33.61664 18.02876 33.79417 19.22551 33.9717 20.3795 34.14923 21.4778 34.32675 22.52687 34.50429 23.5356 34.68182 24.50317 34.85934 25.4304 35.03688 26.31969 35.2144 27.1751 35.39194 27.99338 35.56946 28.78342 35.747 29.54277 35.92451 30.27309 36.10205 30.9776 36.27957 31.65706 36.4571 32.3083 36.63463 32.93776 36.81216 33.54622 36.98969 34.13127 37.16722 34.69534 37.34474 35.24167 37.52226 35.76622 37.6998 36.27623 37.87732 36.76848 38.05484 37.24138 38.23238 37.70137 38.4099 38.14682 38.58743 38.5729 38.76497 38.98769 38.94249 39.39038 39.12003 39.77693 39.29755 40.15218 39.47508 40.51692 39.6526 40.86635 39.83014 41.2061 40.00766 41.53615 40.1852 41.8541 40.36272 42.16235 40.54025 42.46014 40.71777 42.74661 40.89531 43.02664 41.07283 43.29617 41.25037 43.55602 41.42789 43.8086 41.60542 44.05312 41.78294 44.28714 41.96048 44.51633 42.138 44.73663 42.31554 44.94725 42.49306 45.15303 42.6706 45.35155 42.84811 45.54118 43.02565 45.72517 43.20319 45.90433 43.3807 46.07379 43.55824 46.23923 43.73576 46.39902 43.91328 46.55074 44.09082 46.6968 44.26834 46.83722 44.44586 46.97198 44.6234 47.10109 44.80092 47.22536 44.97845 47.34076 45.15598 47.45535 45.33351 47.56268 45.51103 47.66518 45.68857 47.76201 45.86609 47.85481 46.04362 47.94035 46.22115 48.02185 46.39868 48.09932 46.5762 48.17197 46.75374 48.24054 46.93126 48.30429 47.1088 48.36078 47.28633 48.41486 47.46385 48.46408 47.64139 48.50845 47.81891 48.54721 47.99644 48.58351 48.17397 48.61417 48.3515 48.64 48.52902 48.6634 48.70656 48.67955 48.88408 48.69327 49.06161 48.70296 49.23914 48.70699H49.41667L49.5942 48.70296 49.77171 48.69327 49.94925 48.67955 50.12677 48.6634 50.30429 48.64 50.48184 48.61417 50.65935 48.58351 50.8369 48.54721 51.0144 48.50845 51.19194 48.46489 51.36949 48.41486 51.547 48.36078 51.72455 48.30429 51.90204 48.24054 52.07959 48.17197 52.25713 48.10094 52.43465 48.02185 52.61217 47.94035 52.78969 47.85481 52.96722 47.76201 53.14478 47.66356 53.32228 47.56268 53.49982 47.45454 53.67732 47.34238 53.85487 47.22375 54.03241 47.10109 54.20992 46.97198 54.38745 46.83722 54.56497 46.69598 54.74251 46.55074 54.92004 46.39902 55.09755 46.23923 55.2751 46.07379 55.4526 45.90433 55.63016 45.72679 55.8077 45.542 55.9852 45.35155 56.16275 45.15303 56.34026 44.94725 56.5178 44.73582 56.69533 44.5147 56.87285 44.28714 57.05038 44.05312 57.2279 43.8086 57.40543 43.55602 57.58298 43.29617 57.76048 43.02664 57.93803 42.74823 58.11554 42.46014 58.29308 42.16235 58.47061 41.8541 58.64813 41.53532 58.82567 41.2061 59.00317 40.86635 59.18071 40.51692 59.35826 40.15218 59.53577 39.77693 59.7133 39.39038 59.89082 38.98769 60.06836 38.5729 60.24591 38.1452 60.42342 37.70137 60.60095 37.24138 60.77846 36.7677 60.95601 36.27623 61.13353 35.76622 61.31105 35.24007 61.48859 34.69534 61.6661 34.12967 61.84364 33.54622 62.02118 32.93694 62.19868 32.3075 62.37624 31.65706 62.55374 30.9776 62.73128 30.27309 62.90881 29.54277 63.08633 28.78342 63.26387 27.99338 63.44139 27.1751 63.61891 26.31969 63.79646 25.42798 63.97398 24.50317 64.15152 23.53804 64.32904 22.52687 64.50656 21.4762 64.68411 20.37708 64.86162 19.22794 65.03915 18.02635 65.21666 16.76825 65.39421 15.44803 65.57175 14.06488 65.74927 12.61069 65.92679 11.08147 66.10431 9.47476 66.28185 7.7809 66.4594 5.99344 66.63689 4.11075 66.81444 2.11588 66.75072 2.87897"/>
<path transform="matrix(-.08350417,.99651977,.9965098,.083505008,39.98638,163.94609)" d="M2.8892 0-1.73352 2.31136 0 0-1.73352-2.31136" fill="#0000ff"/>
<path transform="matrix(.08350417,.99651977,.9965098,-.083505008,74.83374,163.94609)" d="M2.8892 0-1.73352 2.31136 0 0-1.73352-2.31136" fill="#0000ff"/>
<path transform="matrix(1.00005,0,0,-1.00006,8.079704,166.82523)" stroke-width=".99628" stroke-linecap="butt" stroke-miterlimit="10" stroke-linejoin="miter" fill="none" stroke="#0000ff" d="M79.71123 159.09677 79.64754 159.85904 79.82506 157.86499 80.0026 155.98232 80.18011 154.19483 80.35765 152.50098 80.53517 150.89429 80.7127 149.36748 80.89024 147.9133 81.06776 146.52771 81.2453 145.21071 81.42282 143.94698 81.60036 142.75022 81.77788 141.59865 81.95541 140.49794 82.13293 139.44643 82.31047 138.44014 82.48799 137.47257 82.66553 136.54534 82.84305 135.65525 83.02058 134.80065 83.1981 133.98075 83.37564 133.19232 83.55316 132.43296 83.7307 131.70264 83.90822 130.99816 84.08575 130.31948 84.26328 129.66825 84.44081 129.038 84.61833 128.42954 84.79587 127.84607 84.9734 127.28038 85.15092 126.73405 85.32845 126.2079 85.50598 125.69951 85.6835 125.20724 85.86102 124.73436 86.03856 124.27437 86.21608 123.82892 86.39362 123.40283 86.57114 122.98804 86.74867 122.58536 86.9262 122.19882 87.10373 121.82356 87.28125 121.45882 87.45879 121.10939 87.6363 120.76804 87.81384 120.43959 87.99136 120.12164 88.1689 119.81339 88.34642 119.51561 88.52396 119.22751 88.70148 118.9491 88.87901 118.67957 89.05653 118.41971 89.23407 118.16714 89.4116 117.92262 89.58913 117.6886 89.76666 117.45941 89.94418 117.23991 90.12172 117.02849 90.29924 116.82271 90.47678 116.62419 90.6543 116.43454 90.83183 116.24895 91.00935 116.07141 91.18689 115.90195 91.36441 115.7365 91.54195 115.57672 91.71945 115.42502 91.897 115.27895 92.07451 115.13853 92.25204 115.00377 92.42957 114.87465 92.6071 114.75038 92.78462 114.63498 92.96216 114.52037 93.13968 114.41304 93.31721 114.31056 93.49475 114.21373 93.67227 114.12093 93.84981 114.03539 94.02733 113.95389 94.20486 113.87642 94.38239 113.80379 94.55992 113.73518 94.73744 113.67145 94.91498 113.61496 95.0925 113.56088 95.27003 113.51085 95.44756 113.46727 95.62509 113.42854 95.80261 113.39221 95.98015 113.36156 96.15767 113.33574 96.3352 113.31233 96.51273 113.29619 96.69026 113.28247 96.86778 113.2728 97.04532 113.26875H97.22284L97.40038 113.2728 97.5779 113.28247 97.75543 113.29619 97.93295 113.31233 98.11047 113.33574 98.28802 113.36156 98.46553 113.39221 98.64308 113.42854 98.82059 113.46727 98.99812 113.51085 99.17566 113.56088 99.35318 113.61496 99.53072 113.67145 99.70822 113.73518 99.88576 113.80379 100.06331 113.8748 100.24081 113.95389 100.41835 114.03539 100.59586 114.12093 100.7734 114.21373 100.95094 114.31218 101.12846 114.41304 101.30598 114.5212 101.4835 114.63335 101.66106 114.75198 101.8386 114.87465 102.0161 115.00377 102.19363 115.13853 102.37115 115.27975 102.54869 115.42502 102.72623 115.57672 102.90373 115.7365 103.08128 115.90195 103.25879 116.07141 103.43634 116.25055 103.61386 116.43454 103.79138 116.62419 103.96892 116.82271 104.14644 117.02849 104.32397 117.23991 104.50151 117.46103 104.67902 117.6886 104.85657 117.92262 105.03407 118.16714 105.21161 118.41971 105.38914 118.67957 105.56667 118.9491 105.7442 119.22913 105.92172 119.51561 106.09926 119.81339 106.2768 120.12164 106.45432 120.4404 106.63185 120.76804 106.80936 121.10939 106.9869 121.45882 107.16444 121.82356 107.34195 122.19882 107.51949 122.58536 107.69699 122.98804 107.87454 123.40283 108.05208 123.83054 108.2296 124.27437 108.40712 124.73436 108.58464 125.20805 108.76218 125.69951 108.93971 126.2095 109.11722 126.73405 109.29477 127.28038 109.47227 127.84607 109.64983 128.42954 109.82735 129.03879 110.00487 129.66825 110.18242 130.31948 110.35992 130.99816 110.53746 131.70264 110.715 132.43296 110.89252 133.19232 111.07005 133.98236 111.24757 134.80065 111.4251 135.65605 111.60265 136.54534 111.78015 137.47417 111.9577 138.44014 112.13521 139.44887 112.31274 140.49794 112.49028 141.59624 112.6678 142.7478 112.84532 143.94698 113.02284 145.20748 113.20038 146.52933 113.37793 147.91086 113.55544 149.36748 113.73297 150.89429 113.91048 152.50098 114.08803 154.19483 114.26558 155.98232 114.44307 157.86499 114.62062 159.85985 114.5569 159.09677"/>
<path transform="matrix(-.08350417,-.99651977,-.9965098,.083505008,87.79493,7.718918)" d="M2.8892 0-1.73352 2.31136 0 0-1.73352-2.31136" fill="#0000ff"/>
<path transform="matrix(.08350417,-.99651977,-.9965098,-.083505008,122.6423,7.718918)" d="M2.8892 0-1.73352 2.31136 0 0-1.73352-2.31136" fill="#0000ff"/>
<path transform="matrix(1.00005,0,0,-1.00006,8.079704,166.82523)" stroke-width=".99628" stroke-linecap="butt" stroke-miterlimit="10" stroke-linejoin="miter" fill="none" stroke="#0000ff" d="M127.51741 2.87897 127.45372 2.11588 127.63124 4.11075 127.80878 5.99667 127.9863 7.7809 128.16384 9.47476 128.34136 11.07903 128.51889 12.60828 128.69641 14.06244 128.87395 15.44803 129.05147 16.76825 129.229 18.02876 129.40653 19.22794 129.58406 20.37708 129.76158 21.4762 129.93912 22.52931 130.11664 23.5356 130.29418 24.50317 130.4717 25.4304 130.64923 26.3205 130.82675 27.1751 131.00429 27.99498 131.18183 28.78342 131.35935 29.54439 131.53688 30.27309 131.7144 30.9776 131.89194 31.65627 132.06946 32.3075 132.247 32.93776 132.42452 33.54622 132.60205 34.12967 132.77957 34.69534 132.9571 35.24167 133.13462 35.76622 133.31217 36.27623 133.48967 36.76848 133.6672 37.24138 133.84473 37.70137 134.02227 38.14682 134.19979 38.5737 134.37732 38.98851 134.55484 39.39038 134.73238 39.77693 134.9099 40.15218 135.08744 40.51692 135.26497 40.86635 135.44249 41.2077 135.62003 41.53532 135.79755 41.8541 135.97509 42.16235 136.1526 42.46014 136.33014 42.74823 136.50766 43.02664 136.6852 43.29617 136.86272 43.55602 137.04026 43.8086 137.21778 44.0523 137.39531 44.28714 137.57283 44.5147 137.75037 44.73582 137.92789 44.94725 138.10543 45.15141 138.28295 45.35155 138.46048 45.542 138.638 45.72679 138.81554 45.90433 138.99306 46.07379 139.1706 46.23923 139.34812 46.3982 139.52564 46.55074 139.70319 46.6968 139.88069 46.83722 140.05823 46.97198 140.23575 47.10109 140.41329 47.22375 140.5908 47.34076 140.76834 47.45535 140.94586 47.56268 141.1234 47.66518 141.30092 47.76201 141.47846 47.85481 141.65598 47.94035 141.83351 48.02185 142.01103 48.09932 142.18857 48.17197 142.36609 48.24054 142.54363 48.30429 142.72115 48.36078 142.89868 48.41486 143.0762 48.46489 143.25374 48.50845 143.43126 48.54721 143.6088 48.58351 143.78633 48.61417 143.96385 48.64 144.14139 48.6634 144.31891 48.67955 144.49645 48.69327 144.67397 48.70296 144.8515 48.70699H145.02902L145.20656 48.70296 145.38407 48.69327 145.56162 48.67955 145.73912 48.6634 145.91666 48.64 146.0942 48.61417 146.27172 48.58351 146.44925 48.54721 146.62677 48.50845 146.80429 48.46489 146.98184 48.41486 147.15935 48.36078 147.3369 48.30429 147.51439 48.24054 147.69194 48.17197 147.86949 48.10094 148.047 48.02185 148.22454 47.94035 148.40204 47.85481 148.57959 47.76201 148.75713 47.66356 148.93465 47.56268 149.11217 47.45535 149.28969 47.34076 149.46723 47.22375 149.64478 47.10109 149.82227 46.97198 149.99982 46.83722 150.17733 46.69598 150.35488 46.55074 150.5324 46.39902 150.70992 46.23923 150.88745 46.07541 151.06497 45.90433 151.24251 45.72517 151.42005 45.54118 151.59755 45.35155 151.7751 45.15303 151.95262 44.94725 152.13016 44.73582 152.3077 44.5147 152.4852 44.28714 152.66275 44.0523 152.84026 43.8086 153.01779 43.55602 153.19533 43.29617 153.37285 43.02664 153.55039 42.74661 153.7279 42.45853 153.90543 42.16235 154.08298 41.8541 154.26049 41.53615 154.43804 41.2061 154.61553 40.86635 154.79308 40.51692 154.97061 40.15218 155.14813 39.77693 155.32566 39.39038 155.50318 38.98769 155.68071 38.5729 155.85826 38.1452 156.03577 37.70137 156.2133 37.24138 156.39083 36.7677 156.56836 36.27623 156.7459 35.76622 156.9234 35.24167 157.10095 34.69617 157.27846 34.12967 157.45601 33.54622 157.63353 32.93694 157.81105 32.3075 157.98859 31.65706 158.1661 30.9776 158.34363 30.27309 158.52118 29.54277 158.69869 28.78342 158.87624 27.99338 159.05374 27.1751 159.23128 26.31969 159.40882 25.4304 159.58634 24.50157 159.76387 23.53804 159.94139 22.52931 160.11891 21.4778 160.29647 20.3795 160.47399 19.22551 160.6515 18.02876 160.82903 16.76503 161.00656 15.44803 161.18412 14.06488 161.36162 12.60828 161.53916 11.07903 161.71666 9.47476 161.89421 7.7809 162.07175 5.99344 162.24925 4.11075 162.42679 2.11588 162.36309 2.87897"/>
<path transform="matrix(-.08350417,.99651977,.9965098,.083505008,135.60352,163.94609)" d="M2.8892 0-1.73352 2.31136 0 0-1.73352-2.31136" fill="#0000ff"/>
<path transform="matrix(.08350417,.99651977,.9965098,-.083505008,170.45087,163.94609)" d="M2.8892 0-1.73352 2.31136 0 0-1.73352-2.31136" fill="#0000ff"/>
<path transform="matrix(1.00005,0,0,-1.00006,8.079704,166.82523)" stroke-width=".99628" stroke-linecap="butt" stroke-miterlimit="10" stroke-linejoin="miter" fill="none" stroke="#0000ff" d="M175.31958 159.09647 175.17113 160.90006 175.25989 159.85985 175.34867 158.85031 175.43743 157.86499 175.52619 156.90872 175.61493 155.97907 175.7037 155.07686 175.79247 154.19727 175.88123 153.33864 175.96999 152.50098 176.05876 151.68755 176.1475 150.89429 176.23627 150.122 176.32503 149.36748 176.4138 148.6315 176.50257 147.9133 176.59133 147.21123 176.68007 146.52771 176.76885 145.86196 176.8576 145.21071 176.94637 144.5748 177.03513 143.9494 177.1239 143.34095 177.21265 142.75022 177.3014 142.16677 177.39019 141.59865 177.47895 141.04508 177.5677 140.49954 177.65647 139.96614 177.74523 139.44887 177.83399 138.93805 177.92275 138.44014 178.0115 137.95272 178.10028 137.47257 178.18904 137.00371 178.27779 136.54534 178.36655 136.09586 178.45532 135.65605 178.54409 135.22512 178.63285 134.80065 178.7216 134.38668 178.81037 133.98236 178.89913 133.5829 178.98789 133.19232 179.07666 132.8082 179.16542 132.43296 179.25418 132.06337 179.34293 131.70264 179.4317 131.34677 179.52046 130.99816 179.60923 130.65761 179.69799 130.31948 179.78676 129.99185 179.8755 129.66825 179.96427 129.34947 180.05303 129.03879 180.1418 128.73213 180.23056 128.42954 180.31932 128.13498 180.40807 127.84688 180.49684 127.5604 180.5856 127.28038 180.67436 127.006 180.76313 126.73566 180.8519 126.46938 180.94065 126.2095 181.0294 125.95047 181.11818 125.69951 181.20694 125.45258 181.2957 125.20805 181.38446 124.9692 181.47322 124.73436 181.56198 124.50275 181.65074 124.27599 181.7395 124.05246 181.82828 123.83054 181.91704 123.61507 182.00579 123.40283 182.09455 123.19382 182.18332 122.98804 182.27208 122.7863 182.36084 122.58696 182.4496 122.39088 182.53836 122.19882 182.62712 122.00917 182.71588 121.82356 182.80464 121.63959 182.89342 121.45882 182.98218 121.2829 183.07093 121.10939 183.1597 120.9367 183.24846 120.76965 183.33722 120.60422 183.42598 120.4404 183.51476 120.28061 183.6035 120.12164 183.69226 119.9667 183.78102 119.81499 183.8698 119.66489 183.95856 119.51561 184.04732 119.37196 184.13607 119.22913 184.22484 119.0871 184.3136 118.9491 184.40236 118.81354 184.49112 118.68118 184.57988 118.54883 184.66866 118.41971 184.7574 118.29222 184.84616 118.16714 184.93494 118.04529 185.0237 117.92343 185.11246 117.8056 185.20122 117.6886 185.28998 117.5724 185.37874 117.46103 185.4675 117.34967 185.55628 117.23991 185.64502 117.13257 185.73378 117.02849 185.82256 116.92358 185.91132 116.82433 186.00008 116.72424 186.08882 116.62419 186.1776 116.52815 186.26638 116.43454 186.35512 116.34012 186.44388 116.25055 186.53264 116.16179 186.62142 116.07141 186.71018 115.98666 186.79892 115.90195 186.88768 115.81801 186.97646 115.7365 187.06522 115.65662 187.15398 115.57753 187.24274 115.50168 187.33152 115.42662 187.42026 115.35158 187.50902 115.27975 187.5978 115.20953 187.68656 115.13853 187.77532 115.07074 187.86406 115.00377 187.95284 114.9376 188.0416 114.87465 188.13036 114.81331 188.21912 114.75198 188.30788 114.69228 188.39664 114.63498 188.48542 114.57527 188.57416 114.5212 188.66294 114.46712 188.75168 114.41304 188.84046 114.3614 188.92922 114.31218 189.01798 114.26135 189.10674 114.21454 189.1955 114.16772 189.28427 114.12093 189.37303 114.07816 189.46178 114.03539 189.55054 113.99342 189.63932 113.95389 189.72808 113.91435 189.81684 113.87642 189.90558 113.8401 189.99437 113.80379 190.08312 113.76746 190.17188 113.73518 190.26064 113.70372 190.34941 113.67307 190.43817 113.64482 190.52692 113.61496 190.61568 113.5867 190.70447 113.5625 190.79322 113.53749 190.88198 113.51164 190.97074 113.48987 191.0595 113.46727 191.14827 113.44629 191.23702 113.42854 191.32579 113.41078 191.41454 113.39221 191.50331 113.37769 191.59207 113.36156 191.68083 113.34784 191.76959 113.33574 191.85836 113.32443 191.94712 113.31233 192.03589 113.30345 192.12464 113.29619 192.2134 113.28731 192.30216 113.28247 192.39093 113.27762 192.47969 113.2728 192.56844 113.27037 192.65721 113.26875 189.85675 113.26796"/>
<path transform="matrix(-.082104098,-.9966298,-.99661979,.08210492,183.40805,7.719223)" d="M2.8892 0-1.73352 2.31136 0 0-1.73352-2.31136" fill="#0000ff"/>
<path transform="matrix(1.00005,0,0,-1.00006,197.94593,53.550477)" d="M2.8892 0-1.73352 2.31136 0 0-1.73352-2.31136" fill="#0000ff"/>
<path transform="matrix(1.00005,0,0,-1.00006,8.079704,166.82523)" stroke-width=".3985" stroke-linecap="butt" stroke-dasharray="2.98883,2.98883" stroke-miterlimit="10" stroke-linejoin="miter" fill="none" stroke="#ff0000" d="M25.42479 .28969V161.68605"/>
<path transform="matrix(1.00005,0,0,-1.00006,8.079704,166.82523)" stroke-width=".3985" stroke-linecap="butt" stroke-dasharray="2.98883,2.98883" stroke-miterlimit="10" stroke-linejoin="miter" fill="none" stroke="#ff0000" d="M73.23096 .28969V161.68605"/>
<path transform="matrix(1.00005,0,0,-1.00006,8.079704,166.82523)" stroke-width=".3985" stroke-linecap="butt" stroke-dasharray="2.98883,2.98883" stroke-miterlimit="10" stroke-linejoin="miter" fill="none" stroke="#ff0000" d="M121.03714 .28969V161.68605"/>
<path transform="matrix(1.00005,0,0,-1.00006,8.079704,166.82523)" stroke-width=".3985" stroke-linecap="butt" stroke-dasharray="2.98883,2.98883" stroke-miterlimit="10" stroke-linejoin="miter" fill="none" stroke="#ff0000" d="M168.84333 .28969V161.68605"/>
<use data-text="x" xlink:href="#font_3_2" transform="matrix(9.963098,0,0,-9.963197,193.14295,82.31216)"/>
<use data-text="y" xlink:href="#font_3_3" transform="matrix(9.963098,0,0,-9.963197,108.73873,12.938995)"/>
</svg>
