<svg xmlns="http://www.w3.org/2000/svg" xmlns:xlink="http://www.w3.org/1999/xlink" version="1.1" width="265" height="165" viewBox="0 0 265 165">
<defs>
<path id="font_1_1" d="M.6589966 .23046875C.6759949 .23046875 .69400027 .23046875 .69400027 .25045777 .69400027 .27046205 .6759949 .27046205 .6589966 .27046205H.117996219C.100997928 .27046205 .08299255 .27046205 .08299255 .25045777 .08299255 .23046875 .100997928 .23046875 .117996219 .23046875H.6589966Z"/>
<path id="font_2_4" d="M.1269989 .07699585 .23298645 .18003845C.3889923 .31811524 .44898988 .3721466 .44898988 .47216798 .44898988 .5860901 .35899354 .6660156 .23699951 .6660156 .12399292 .6660156 .049987794 .57411196 .049987794 .48516847 .049987794 .4291687 .099990848 .4291687 .102996829 .4291687 .11999512 .4291687 .15499878 .44117738 .15499878 .48217774 .15499878 .5081787 .13699341 .5341797 .101989749 .5341797 .09399414 .5341797 .09199524 .5341797 .08898926 .5331726 .11199951 .59806826 .1659851 .63500979 .22399903 .63500979 .31498719 .63500979 .35798646 .5541382 .35798646 .47216798 .35798646 .39215089 .30799867 .31311036 .25299073 .25108338L.06098938 .036987306C.049987794 .025985718 .049987794 .023986817 .049987794 0H.42099L.44898988 .17404175H.42399598C.4189911 .14402771 .4119873 .1000061 .4019928 .084991458 .394989 .07699585 .32899476 .07699585 .30699159 .07699585H.1269989Z"/>
<path id="font_3_1" d="M.2649994 .37265016H.37799073C.34498597 .22489929 .33599855 .18196106 .33599855 .11508179 .33599855 .100097659 .33599855 .073150638 .34399415 .03919983 .35398866-.0047454836 .36499024-.0107421879 .37998963-.0107421879 .3999939-.0107421879 .42099 .007247925 .42099 .02722168 .42099 .033218385 .42099 .035202028 .4149933 .049179079 .38598634 .12106323 .38598634 .18595886 .38598634 .21391297 .38598634 .26683045 .3929901 .32073976 .4039917 .37265016H.5179901C.5309906 .37265016 .5669861 .37265016 .5669861 .406662 .5669861 .43066407 .54599 .43066407 .5269928 .43066407H.19198609C.16999817 .43066407 .13198853 .43066407 .08799744 .38365174 .052993776 .34469605 .026992798 .29878236 .026992798 .29379273 .026992798 .29278565 .026992798 .28379823 .038986207 .28379823 .04699707 .28379823 .04899597 .28779603 .054992677 .29577638 .10398865 .37265016 .1619873 .37265016 .18199158 .37265016H.23899842C.20698548 .25186158 .15299988 .13105774 .11099243 .04020691 .102996829 .025222779 .102996829 .023223877 .102996829 .016235352 .102996829-.002746582 .11898804-.0107421879 .13198853-.0107421879 .1619873-.0107421879 .16999817 .017242432 .18199158 .05418396 .19599915 .100097659 .19599915 .10209656 .20899964 .15202332L.2649994 .37265016Z"/>
<path id="font_2_5" d="M.2899933 .35191346C.37199403 .37893678 .42999269 .4490509 .42999269 .52809146 .42999269 .6100464 .34199525 .6660156 .24598694 .6660156 .14498902 .6660156 .068984989 .60606387 .068984989 .53009036 .068984989 .49710084 .09098816 .47808839 .11999512 .47808839 .15098572 .47808839 .17098999 .50009158 .17098999 .5290985 .17098999 .57910159 .12399292 .57910159 .10899353 .57910159 .13999939 .62802127 .20599365 .64100649 .24198914 .64100649 .2829895 .64100649 .33799745 .6190338 .33799745 .5290985 .33799745 .51708987 .33599855 .45906068 .30999757 .4149933 .27999879 .36691285 .24598694 .36390687 .22099304 .36291505 .21299744 .36190797 .18899536 .35990907 .18199158 .35990907 .17399597 .35890199 .16699219 .35791017 .16699219 .3479004 .16699219 .33691407 .17399597 .33691407 .19099427 .33691407H.23498535C.31698609 .33691407 .35398866 .2686615 .35398866 .17037964 .35398866 .034469606 .2849884 .0055389406 .24099732 .0055389406 .19799805 .0055389406 .12298584 .022491456 .08799744 .08137512 .12298584 .07637024 .1539917 .09837341 .1539917 .1363678 .1539917 .17237854 .1269989 .19238281 .09799194 .19238281 .07398987 .19238281 .041992189 .17837525 .041992189 .1343689 .041992189 .043441774 .1349945-.022460938 .24398804-.022460938 .3659973-.022460938 .45700074 .06838989 .45700074 .17037964 .45700074 .252594 .3939972 .33088685 .2899933 .35191346Z"/>
<path id="font_2_3" d="M.2939911 .64004519C.2939911 .66400149 .2939911 .6660156 .2709961 .6660156 .20899964 .60227969 .12098694 .60227969 .08898926 .60227969V.57128909C.10899353 .57128909 .16799927 .57128909 .21998596 .5972748V.07902527C.21998596 .042999269 .21699524 .0309906 .1269989 .0309906H.09498596V0C.12998963 .0029907227 .21699524 .0029907227 .25698854 .0029907227 .29699708 .0029907227 .38398744 .0029907227 .4189911 0V.0309906H.3869934C.29699708 .0309906 .2939911 .041992189 .2939911 .07902527V.64004519Z"/>
<path id="font_3_3" d="M.48599244 .38136292C.48999024 .39537049 .48999024 .39736939 .48999024 .40437318 .48999024 .42237855 .47599793 .43138124 .46099855 .43138124 .45098878 .43138124 .43499757 .42536927 .42599488 .41036988 .42399598 .405365 .41600038 .37435914 .4119873 .35635377 .40499879 .33035279 .397995 .30334474 .3919983 .27633668L.34700013 .09628296C.34298707 .08126831 .2999878 .011245728 .23399353 .011245728 .18299866 .011245728 .17199707 .055267335 .17199707 .0922699 .17199707 .1382904 .18899536 .20030213 .22299195 .28833009 .23899842 .3293457 .24299622 .3403473 .24299622 .36035157 .24299622 .405365 .21099854 .4423828 .16099549 .4423828 .06599426 .4423828 .0289917 .29733277 .0289917 .28833009 .0289917 .27833558 .038986207 .27833558 .040985109 .27833558 .050994874 .27833558 .051986696 .28033448 .056991579 .29634095 .083999637 .3903656 .12399292 .42037965 .1579895 .42037965 .1659851 .42037965 .18299866 .42037965 .18299866 .3883667 .18299866 .36335755 .17298889 .3373413 .1659851 .31834413 .12599182 .21231079 .10798645 .1552887 .10798645 .10827637 .10798645 .019256592 .17098999-.0107421879 .22999573-.0107421879 .2689972-.0107421879 .30299378 .0062561037 .33099366 .03425598 .31799317-.017745972 .30599977-.06674194 .2659912-.11973572 .23999024-.15385437 .20199585-.18309021 .1559906-.18309021 .14199829-.18309021 .09700012-.18005371 .07998657-.14074707 .09599304-.14074707 .10899353-.14074707 .12298584-.1287384 .1329956-.11973572 .14299011-.10673523 .14299011-.08773804 .14299011-.056747438 .115997318-.052734376 .10598755-.052734376 .08299255-.052734376 .049987794-.068740848 .049987794-.11773682 .049987794-.16796875 .09399414-.20507813 .1559906-.20507813 .25898744-.20507813 .3619995-.11373901 .3899994-.00074768069L.48599244 .38136292Z"/>
<path id="font_2_6" d="M.68699648 .32714845C.70199587 .32714845 .72099307 .32714845 .72099307 .34713746 .72099307 .36714173 .70199587 .36714173 .6879883 .36714173H.08898926C.07499695 .36714173 .055999757 .36714173 .055999757 .34713746 .055999757 .32714845 .07499695 .32714845 .08999634 .32714845H.68699648M.6879883 .13284302C.70199587 .13284302 .72099307 .13284302 .72099307 .15284729 .72099307 .17285156 .70199587 .17285156 .68699648 .17285156H.08999634C.07499695 .17285156 .055999757 .17285156 .055999757 .15284729 .055999757 .13284302 .07499695 .13284302 .08898926 .13284302H.6879883Z"/>
<path id="font_2_7" d="M.116989139 .21801758C.116989139 .38093568 .19898987 .42323304 .2519989 .42323304 .26098634 .42323304 .32398988 .42222596 .35899354 .38594056 .31799317 .38293458 .31199647 .3529358 .31199647 .3399353 .31199647 .31393434 .32998658 .2939453 .35798646 .2939453 .38398744 .2939453 .4039917 .3109436 .4039917 .34094239 .4039917 .40911866 .32798768 .4482422 .25099183 .4482422 .12599182 .4482422 .033996583 .3399353 .033996583 .21601868 .033996583 .08816528 .1329956-.0107421879 .24899292-.0107421879 .3829956-.0107421879 .4149933 .10914612 .4149933 .119140628 .4149933 .12911988 .40499879 .12911988 .4019928 .12911988 .3929901 .12911988 .3909912 .12512207 .3889923 .119140628 .3600006 .026229859 .29499818 .014251709 .2579956 .014251709 .20498657 .014251709 .116989139 .0572052 .116989139 .21801758Z"/>
<path id="font_2_8" d="M.47099305 .21424866C.47099305 .34223939 .37098695 .4482422 .25 .4482422 .125 .4482422 .027999878 .3392334 .027999878 .21424866 .027999878 .085250858 .13198853-.0107421879 .24899292-.0107421879 .36999513-.0107421879 .47099305 .087249759 .47099305 .21424866M.25 .014251709C.20698548 .014251709 .16299439 .035247804 .13598633 .08125305 .11099243 .12524414 .11099243 .18624878 .11099243 .22224427 .11099243 .26124574 .11099243 .31523133 .1349945 .35923768 .1619873 .40522767 .20899964 .426239 .24899292 .426239 .29299928 .426239 .33599855 .40423585 .3619995 .36123658 .3880005 .3182373 .3880005 .26023866 .3880005 .22224427 .3880005 .18624878 .3880005 .13224793 .3659973 .08824158 .34399415 .04324341 .2999878 .014251709 .25 .014251709Z"/>
<path id="font_2_9" d="M.20799256 .19424439C.22999573 .19024658 .31199647 .17424011 .31199647 .102249149 .31199647 .051254274 .2769928 .011245728 .19898987 .011245728 .114990238 .011245728 .07899475 .06825256 .05999756 .15324402 .056991579 .1662445 .055999757 .17024231 .04598999 .17024231 .032989503 .17024231 .032989503 .16323853 .032989503 .14524842V.013244629C.032989503-.003753662 .032989503-.0107421879 .04399109-.0107421879 .04899597-.0107421879 .049987794-.009750366 .068984989 .009246826 .070999149 .011245728 .070999149 .013244629 .08898926 .03224182 .1329956-.009750366 .17799378-.0107421879 .19898987-.0107421879 .31399537-.0107421879 .3600006 .056243898 .3600006 .12825012 .3600006 .1812439 .32998658 .21124268 .31799317 .22323609 .2849884 .25523377 .24598694 .26324464 .20399475 .27124024 .147995 .28224183 .08099365 .2952423 .08099365 .35324098 .08099365 .38822938 .10699463 .42922975 .19299317 .42922975 .30299378 .42922975 .30799867 .3392334 .30999757 .3082428 .31098939 .2992401 .31999208 .2992401 .32199098 .2992401 .33499146 .2992401 .33499146 .304245 .33499146 .3232422V.4242401C.33499146 .4412384 .33499146 .4482422 .32398988 .4482422 .31900025 .4482422 .31698609 .4482422 .3039856 .43623353 .30099488 .43223573 .29100038 .42323304 .2869873 .42022706 .24899292 .4482422 .20799256 .4482422 .19299317 .4482422 .070999149 .4482422 .032989503 .38124085 .032989503 .3252411 .032989503 .29023744 .04899597 .26223756 .07598877 .24023438 .10798645 .21424866 .13598633 .2082367 .20799256 .19424439Z"/>
<path id="font_3_2" d="M.33399964 .30233766C.33999635 .32835389 .36299134 .42037965 .43299867 .42037965 .43798829 .42037965 .46199037 .42037965 .48298646 .40734864 .45498658 .402359 .43499757 .37734986 .43499757 .35334779 .43499757 .33735658 .44599916 .31835938 .47299195 .31835938 .49499513 .31835938 .5269928 .3363495 .5269928 .37635804 .5269928 .42837525 .46798707 .4423828 .43399049 .4423828 .37599183 .4423828 .34098817 .38935853 .32899476 .36634828 .3039856 .43237306 .25 .4423828 .22099304 .4423828 .116989139 .4423828 .05999756 .3133545 .05999756 .28834535 .05999756 .27833558 .069992069 .27833558 .07199097 .27833558 .07998657 .27833558 .08299255 .28033448 .084991458 .28933717 .11898804 .39535523 .18499756 .42037965 .21899414 .42037965 .23799134 .42037965 .272995 .4113617 .272995 .35334779 .272995 .32235719 .2559967 .25532533 .21899414 .11528015 .20298767 .053268434 .16799927 .011245728 .12399292 .011245728 .117996219 .011245728 .09498596 .011245728 .07398987 .024276734 .09899902 .029266358 .12098694 .05027771 .12098694 .07827759 .12098694 .105270389 .09899902 .11328125 .083999637 .11328125 .053985597 .11328125 .0289917 .08728027 .0289917 .055267335 .0289917 .009246826 .07899475-.0107421879 .12298584-.0107421879 .18899536-.0107421879 .22499085 .059280397 .22799683 .0652771 .23999024 .028274537 .27598573-.0107421879 .33599855-.0107421879 .43899537-.0107421879 .49598695 .118270877 .49598695 .14328003 .49598695 .1532898 .4869995 .1532898 .48399354 .1532898 .47499085 .1532898 .47299195 .14929199 .47099305 .14228821 .43798829 .03527832 .36999513 .011245728 .33799745 .011245728 .29899598 .011245728 .2829895 .043273927 .2829895 .07727051 .2829895 .09927368 .2889862 .121276859 .2999878 .16529846L.33399964 .30233766Z"/>
<path id="font_2_1" d="M.33099366-.2400055C.33099366-.23701477 .33099366-.23500061 .31399537-.21800232 .18899536-.0920105 .15699768 .09700012 .15699768 .25 .15699768 .42399598 .19499207 .59799197 .31799317 .72299197 .33099366 .73498538 .33099366 .7369995 .33099366 .73999026 .33099366 .746994 .32699586 .75 .32099916 .75 .31098939 .75 .22099304 .6819916 .1619873 .5549927 .11099243 .44499208 .09899902 .33399964 .09899902 .25 .09899902 .17199707 .10998535 .050994874 .16499329-.06201172 .22499085-.18501282 .31098939-.25 .32099916-.25 .32699586-.25 .33099366-.24700928 .33099366-.2400055Z"/>
<path id="font_2_2" d="M.2889862 .25C.2889862 .32798768 .27799989 .44898988 .22299195 .56199648 .16299439 .68499758 .07699585 .75 .066986087 .75 .06098938 .75 .056991579 .74598696 .056991579 .73999026 .056991579 .7369995 .056991579 .73498538 .07598877 .71699526 .17399597 .6179962 .23098755 .45899964 .23098755 .25 .23098755 .07899475 .19400025-.09700012 .069992069-.2230072 .056991579-.23500061 .056991579-.23701477 .056991579-.2400055 .056991579-.2460022 .06098938-.25 .066986087-.25 .07699585-.25 .16699219-.18200684 .22599793-.055007936 .2769928 .054992677 .2889862 .16600037 .2889862 .25Z"/>
</defs>
<path transform="matrix(1.00002,0,0,-1.00002,3.7858048,163.19095)" stroke-width=".19925" stroke-linecap="butt" stroke-miterlimit="10" stroke-linejoin="miter" fill="none" stroke="#929292" d="M5.814 102.30408V106.55588M42.34439 102.30408V106.55588M115.40523 102.30408V106.55588M151.93566 102.30408V106.55588M188.46607 102.30408V106.55588"/>
<path transform="matrix(1.00002,0,0,-1.00002,3.7858048,163.19095)" stroke-width=".19925" stroke-linecap="butt" stroke-miterlimit="10" stroke-linejoin="miter" fill="none" stroke="#929292" d="M77.45732 33.22772H80.29231M77.45732 80.69589H80.29231M77.45732 128.16408H80.29231"/>
<path transform="matrix(1.00002,0,0,-1.00002,3.7858048,163.19095)" stroke-width=".19925" stroke-linecap="butt" stroke-miterlimit="10" stroke-linejoin="miter" fill="none" stroke="#929292" d="M76.7488 9.49362H81.00082M76.7488 56.9618H81.00082M76.7488 151.89817H81.00082"/>
<path transform="matrix(1.00002,0,0,-1.00002,3.7858048,163.19095)" stroke-width=".3985" stroke-linecap="butt" stroke-miterlimit="10" stroke-linejoin="miter" fill="none" stroke="#000000" d="M0 104.42998H192.28754"/>
<path transform="matrix(1.00002,0,0,-1.00002,196.07718,58.75888)" d="M1.99252 0-1.19551 1.59401 0 0-1.19551-1.59401"/>
<path transform="matrix(1.00002,0,0,-1.00002,3.7858048,163.19095)" stroke-width=".3985" stroke-linecap="butt" stroke-miterlimit="10" stroke-linejoin="miter" fill="none" stroke="#000000" d="M78.87482 0V159.39928"/>
<path transform="matrix(0,-1.00002,-1.00002,-0,82.6622,3.7884827)" d="M1.99252 0-1.19551 1.59401 0 0-1.19551-1.59401"/>
<use data-text="&#x2212;" xlink:href="#font_1_1" transform="matrix(9.962799,0,0,-9.962799,.21673584,70.8251)"/>
<use data-text="2" xlink:href="#font_2_4" transform="matrix(9.962799,0,0,-9.962799,7.965889,70.8251)"/>
<use data-text="&#x03c0;" xlink:href="#font_3_1" transform="matrix(9.962799,0,0,-9.962799,12.946991,70.8251)"/>
<use data-text="&#x2212;" xlink:href="#font_1_1" transform="matrix(9.962799,0,0,-9.962799,39.238515,70.21609)"/>
<use data-text="&#x03c0;" xlink:href="#font_3_1" transform="matrix(9.962799,0,0,-9.962799,46.987668,70.21609)"/>
<use data-text="&#x03c0;" xlink:href="#font_3_1" transform="matrix(9.962799,0,0,-9.962799,116.17506,68.69405)"/>
<use data-text="2" xlink:href="#font_2_4" transform="matrix(9.962799,0,0,-9.962799,150.21573,70.8251)"/>
<use data-text="&#x03c0;" xlink:href="#font_3_1" transform="matrix(9.962799,0,0,-9.962799,155.19785,70.8251)"/>
<use data-text="3" xlink:href="#font_2_5" transform="matrix(9.962799,0,0,-9.962799,186.74646,70.8251)"/>
<use data-text="&#x03c0;" xlink:href="#font_3_1" transform="matrix(9.962799,0,0,-9.962799,191.72858,70.8251)"/>
<use data-text="&#x2212;" xlink:href="#font_1_1" transform="matrix(9.962799,0,0,-9.962799,64.28602,156.49182)"/>
<use data-text="2" xlink:href="#font_2_4" transform="matrix(9.962799,0,0,-9.962799,72.03517,156.49182)"/>
<use data-text="&#x2212;" xlink:href="#font_1_1" transform="matrix(9.962799,0,0,-9.962799,64.28602,109.022869)"/>
<use data-text="1" xlink:href="#font_2_3" transform="matrix(9.962799,0,0,-9.962799,72.03517,109.022869)"/>
<use data-text="1" xlink:href="#font_2_3" transform="matrix(9.962799,0,0,-9.962799,72.03517,14.4999699)"/>
<path transform="matrix(1.00002,0,0,-1.00002,3.7858048,163.19095)" stroke-width=".99628" stroke-linecap="butt" stroke-miterlimit="10" stroke-linejoin="miter" fill="none" stroke="#0000ff" stroke-opacity=".5" d="M1.39967 148.61217 .97624 147.84722 1.9525 149.30449 2.92877 150.44326 3.90503 151.25734 4.8813 151.74294 5.85756 151.89577 6.83383 151.71398 7.81009 151.19942 8.78636 150.354 9.76262 149.18486 10.73888 147.70149 11.71513 145.91384 12.6914 143.83379 13.66766 141.47463 14.64394 138.85532 15.6202 135.99394 16.59645 132.9104 17.57272 129.62561 18.54898 126.16281 19.52525 122.54715 20.5015 118.80476 21.47777 114.95984 22.45403 111.0423 23.4303 107.07727 24.40656 103.09422 25.38283 99.12067 26.35909 95.1827 27.33536 91.31119 28.31161 87.53178 29.28789 83.87292 30.26413 80.35696 31.24039 77.01045 32.21666 73.85762 33.19292 70.91982 34.16919 68.21983 35.14545 65.77379 36.12172 63.60022 37.09798 61.71336 38.07425 60.12791 39.0505 58.85577 40.02676 57.90404 41.00302 57.27983 41.9793 56.98695 42.95555 57.02779 43.93182 57.40515 44.90808 58.11337 45.88435 59.14725 46.86061 60.49913 47.83687 62.161 48.81314 64.12096 49.78938 66.36478 50.76566 68.8782 51.74191 71.63991 52.71819 74.63278 53.69444 77.83687 54.67072 81.22752 55.64697 84.78241 56.62325 88.47498 57.5995 92.2805 58.57578 96.17052 59.55203 100.11891 60.52829 104.09818 61.50455 108.07886 62.4808 112.03438 63.45708 115.93721 64.43333 119.75839 65.4096 123.47185 66.38586 127.05093 67.36214 130.47103 68.3384 133.7074 69.31467 136.73777 70.29091 139.53839 71.26718 142.09456 72.24344 144.38347 73.21971 146.39279 74.19597 148.10639 75.17224 149.51003 76.1485 150.59752 77.12477 151.35939 78.10103 151.79088 79.07729 151.89104 80.05354 151.65274 81.0298 151.08312 82.00607 150.18456 82.98233 148.96558 83.9586 147.43282 84.93486 145.59532 85.91113 143.46733 86.88739 141.06545 87.86366 138.40579 88.83992 135.50739 89.81618 132.38874 90.79243 129.07308 91.76869 125.58417 92.74496 121.94574 93.72124 118.18436 94.6975 114.32709 95.67375 110.3991 96.65002 106.42886 97.62628 102.4458 98.60262 98.47604 99.57877 94.54807 100.5551 90.68936 101.53127 86.92847 102.5076 83.28955 103.48392 79.79921 104.4601 76.4831 105.43642 73.36443 106.4126 70.46507 107.38892 67.804 108.36523 65.4007 109.3414 63.27269 110.31772 61.43425 111.2939 59.8996 112.27022 58.67825 113.24655 57.77968 114.22272 57.20863 115.19905 56.96986 116.17522 57.06813 117.15154 57.49913 118.12787 58.25957 119.10405 59.3447 120.08035 60.74834 121.05653 62.46002 122.03287 64.46796 123.00919 66.75638 123.98534 69.31111 124.96167 72.11127 125.93784 75.14069 126.91417 78.37659 127.89049 81.7962 128.86669 85.37434 129.84297 89.08635 130.81916 92.90755 131.79549 96.81038 132.7718 100.76543 133.74799 104.7466 134.7243 108.72488 135.70047 112.67424 136.6768 116.56522 137.65312 120.37073 138.6293 124.06377 139.6056 127.6196 140.58179 131.01073 141.5581 134.21436 142.53444 137.20912 143.51062 139.97177 144.48694 142.48569 145.4631 144.73046 146.43944 146.6928 147.41577 148.35466 148.39192 149.70844 149.36824 150.74279 150.34442 151.4529 151.32074 151.83075 152.29706 151.873 153.27324 151.58249 154.24958 150.95876 155.22573 150.00893 156.20207 148.7382 157.1784 147.15229 158.15456 145.26685 159.13086 143.0947 160.10704 140.65058 161.08338 137.9501 162.0597 135.01372 163.03588 131.86089 164.01219 128.51676 164.98838 125.00172 165.96469 121.34288 166.94101 117.56252 167.91719 113.6915 168.89351 109.75447 169.86968 105.78139 170.84601 101.79834 171.82233 97.83286 172.7985 93.9153 173.77483 90.0699 174.751 86.32655 175.72733 82.7109 176.70365 79.24669 177.67981 75.96236 178.65615 72.87788 179.6323 70.01555 180.60863 67.39484 181.58495 65.03471 182.56113 62.95323 183.53745 61.16415 184.51363 59.6803 185.48996 58.50974 186.46628 57.6629 187.44246 57.14693 188.41878 56.96417 189.39493 57.11607 190.37125 57.59978 191.34758 58.41338 192.32376 59.55025 193.30008 61.00609 192.87596 60.24051"/>
<path transform="matrix(-.48445974,.87480756,.87480756,.48445974,5.185503,14.57579)" d="M2.8892 0-1.73352 2.31136 0 0-1.73352-2.31136" fill="#0000ff" fill-opacity=".5"/>
<path transform="matrix(.48466973,-.8746975,-.8746975,-.48466973,196.66562,102.949237)" d="M2.8892 0-1.73352 2.31136 0 0-1.73352-2.31136" fill="#0000ff" fill-opacity=".5"/>
<use data-text="y" xlink:href="#font_3_3" transform="matrix(9.962799,0,0,-9.962799,201.88477,101.59872)" fill="#0000ff" fill-opacity=".5"/>
<use data-text="=" xlink:href="#font_2_6" transform="matrix(9.962799,0,0,-9.962799,209.89493,101.59872)" fill="#0000ff" fill-opacity=".5"/>
<use data-text="c" xlink:href="#font_2_7" transform="matrix(9.962799,0,0,-9.962799,220.39572,101.59872)" fill="#0000ff" fill-opacity=".5"/>
<use data-text="o" xlink:href="#font_2_8" transform="matrix(9.962799,0,0,-9.962799,224.81922,101.59872)" fill="#0000ff" fill-opacity=".5"/>
<use data-text="s" xlink:href="#font_2_9" transform="matrix(9.962799,0,0,-9.962799,229.8006,101.59872)" fill="#0000ff" fill-opacity=".5"/>
<use data-text="x" xlink:href="#font_3_2" transform="matrix(9.962799,0,0,-9.962799,235.41045,101.59872)" fill="#0000ff" fill-opacity=".5"/>
<path transform="matrix(1.00002,0,0,-1.00002,3.7858048,163.19095)" stroke-width=".99628" stroke-linecap="butt" stroke-miterlimit="10" stroke-linejoin="miter" fill="none" stroke="#ff0000" d="M1.39967 101.14398 .97624 100.37903 1.9525 101.83632 2.92877 102.97508 3.90503 103.78915 4.8813 104.27475 5.85756 104.4276 6.83383 104.24579 7.81009 103.73123 8.78636 102.88583 9.76262 101.71669 10.73888 100.2333 11.71513 98.44566 12.6914 96.3656 13.66766 94.00644 14.64394 91.38715 15.6202 88.52576 16.59645 85.44223 17.57272 82.15742 18.54898 78.69463 19.52525 75.07898 20.5015 71.33658 21.47777 67.49167 22.45403 63.57411 23.4303 59.6091 24.40656 55.62604 25.38283 51.65248 26.35909 47.71454 27.33536 43.84302 28.31161 40.0636 29.28789 36.40477 30.26413 32.8888 31.24039 29.54228 32.21666 26.38943 33.19292 23.45164 34.16919 20.75165 35.14545 18.30562 36.12172 16.13205 37.09798 14.2452 38.07425 12.65976 39.0505 11.3876 40.02676 10.43587 41.00302 9.81168 41.9793 9.51878 42.95555 9.5596 43.93182 9.93698 44.90808 10.6452 45.88435 11.67906 46.86061 13.03096 47.83687 14.69281 48.81314 16.65277 49.78938 18.89659 50.76566 21.41003 51.74191 24.17174 52.71819 27.16461 53.69444 30.3687 54.67072 33.75935 55.64697 37.31425 56.62325 41.00679 57.5995 44.81232 58.57578 48.70235 59.55203 52.65076 60.52829 56.63 61.50455 60.61067 62.4808 64.5662 63.45708 68.46904 64.43333 72.29022 65.4096 76.00365 66.38586 79.58276 67.36214 83.00284 68.3384 86.23921 69.31467 89.26958 70.29091 92.0702 71.26718 94.62637 72.24344 96.91528 73.21971 98.92462 74.19597 100.63821 75.17224 102.04184 76.1485 103.12935 77.12477 103.8912 78.10103 104.3227 79.07729 104.42285 80.05354 104.18456 81.0298 103.61494 82.00607 102.71637 82.98233 101.49739 83.9586 99.96465 84.93486 98.12715 85.91113 95.99915 86.88739 93.59724 87.86366 90.93762 88.83992 88.03922 89.81618 84.92055 90.79243 81.60489 91.76869 78.11598 92.74496 74.47755 93.72124 70.71617 94.6975 66.8589 95.67375 62.93092 96.65002 58.96068 97.62628 54.97763 98.60262 51.00786 99.57877 47.07988 100.5551 43.22119 101.53127 39.46028 102.5076 35.82137 103.48392 32.33104 104.4601 29.01491 105.43642 25.89626 106.4126 22.99689 107.38892 20.33583 108.36523 17.93253 109.3414 15.80452 110.31772 13.96608 111.2939 12.43143 112.27022 11.21007 113.24655 10.3115 114.22272 9.74046 115.19905 9.5017 116.17522 9.59995 117.15154 10.03096 118.12787 10.79141 119.10405 11.87653 120.08035 13.28015 121.05653 14.99187 122.03287 16.99977 123.00919 19.28821 123.98534 21.84294 124.96167 24.6431 125.93784 27.67252 126.91417 30.90843 127.89049 34.32802 128.86669 37.90617 129.84297 41.6182 130.81916 45.43938 131.79549 49.34221 132.7718 53.29726 133.74799 57.2784 134.7243 61.25671 135.70047 65.20607 136.6768 69.09703 137.65312 72.90256 138.6293 76.59558 139.6056 80.15141 140.58179 83.54256 141.5581 86.74617 142.53444 89.74095 143.51062 92.50359 144.48694 95.01752 145.4631 97.26228 146.43944 99.22461 147.41577 100.88647 148.39192 102.24026 149.36824 103.2746 150.34442 103.98471 151.32074 104.36256 152.29706 104.40482 153.27324 104.11432 154.24958 103.49057 155.22573 102.54074 156.20207 101.27 157.1784 99.68411 158.15456 97.79866 159.13086 95.62651 160.10704 93.18239 161.08338 90.48192 162.0597 87.54555 163.03588 84.39272 164.01219 81.04858 164.98838 77.53355 165.96469 73.87471 166.94101 70.09435 167.91719 66.22331 168.89351 62.2863 169.86968 58.31322 170.84601 54.33015 171.82233 50.36469 172.7985 46.44713 173.77483 42.60173 174.751 38.85838 175.72733 35.24274 176.70365 31.77852 177.67981 28.49419 178.65615 25.4097 179.6323 22.54736 180.60863 19.92665 181.58495 17.56653 182.56113 15.48506 183.53745 13.69598 184.51363 12.21213 185.48996 11.04155 186.46628 10.19473 187.44246 9.67874 188.41878 9.496 189.39493 9.6479 190.37125 10.13159 191.34758 10.9452 192.32376 12.08206 193.30008 13.53792 192.87596 12.77232"/>
<path transform="matrix(-.48445974,.87480756,.87480756,.48445974,5.185503,62.04492)" d="M2.8892 0-1.73352 2.31136 0 0-1.73352-2.31136" fill="#ff0000"/>
<path transform="matrix(.48466973,-.8746975,-.8746975,-.48466973,196.66562,150.41837)" d="M2.8892 0-1.73352 2.31136 0 0-1.73352-2.31136" fill="#ff0000"/>
<use data-text="y" xlink:href="#font_3_3" transform="matrix(9.962799,0,0,-9.962799,201.88477,150.3817)" fill="#ff0000"/>
<use data-text="=" xlink:href="#font_2_6" transform="matrix(9.962799,0,0,-9.962799,209.89493,150.3817)" fill="#ff0000"/>
<use data-text="c" xlink:href="#font_2_7" transform="matrix(9.962799,0,0,-9.962799,220.39572,150.3817)" fill="#ff0000"/>
<use data-text="o" xlink:href="#font_2_8" transform="matrix(9.962799,0,0,-9.962799,224.81922,150.3817)" fill="#ff0000"/>
<use data-text="s" xlink:href="#font_2_9" transform="matrix(9.962799,0,0,-9.962799,229.8006,150.3817)" fill="#ff0000"/>
<use data-text="(" xlink:href="#font_2_1" transform="matrix(9.962799,0,0,-9.962799,233.72595,150.3817)" fill="#ff0000"/>
<use data-text="x" xlink:href="#font_3_2" transform="matrix(9.962799,0,0,-9.962799,237.6245,150.3817)" fill="#ff0000"/>
<use data-text=")" xlink:href="#font_2_2" transform="matrix(9.962799,0,0,-9.962799,243.3186,150.3817)" fill="#ff0000"/>
<use data-text="&#x2212;" xlink:href="#font_1_1" transform="matrix(9.962799,0,0,-9.962799,249.40673,150.3817)" fill="#ff0000"/>
<use data-text="1" xlink:href="#font_2_3" transform="matrix(9.962799,0,0,-9.962799,259.36994,150.3817)" fill="#ff0000"/>
<g>
<path transform="matrix(1.00002,0,0,-1.00002,3.7858048,163.19095)" d="M5.814 56.9618H188.46607" fill="#e60000" fill-opacity=".5"/>
<path transform="matrix(1.00002,0,0,-1.00002,3.7858048,163.19095)" stroke-width=".3985" stroke-linecap="butt" stroke-dasharray="2.98883,2.98883" stroke-miterlimit="10" stroke-linejoin="miter" fill="none" stroke="#ff0000" stroke-opacity=".5" d="M5.814 56.9618H188.46607"/>
</g>
<use data-text="x" xlink:href="#font_3_2" transform="matrix(9.962799,0,0,-9.962799,188.8555,55.238794)"/>
<use data-text="y" xlink:href="#font_3_3" transform="matrix(9.962799,0,0,-9.962799,86.18245,9.6058659)"/>
</svg>
