<svg xmlns="http://www.w3.org/2000/svg" xmlns:xlink="http://www.w3.org/1999/xlink" version="1.1" width="210" height="171" viewBox="0 0 210 171">
<defs>
<path id="font_1_1" d="M.6589966 .23046875C.6759949 .23046875 .69400027 .23046875 .69400027 .25045777 .69400027 .27046205 .6759949 .27046205 .6589966 .27046205H.117996219C.100997928 .27046205 .08299255 .27046205 .08299255 .25045777 .08299255 .23046875 .100997928 .23046875 .117996219 .23046875H.6589966Z"/>
<path id="font_2_7" d="M.16299439 .4569702C.116989139 .486969 .11299133 .52098086 .11299133 .5379791 .11299133 .598999 .17799378 .64100649 .24899292 .64100649 .32199098 .64100649 .38598634 .58898928 .38598634 .51698306 .38598634 .45996095 .34700013 .4119568 .2869873 .37695313L.16299439 .4569702M.30899049 .36193849C.3809967 .3989563 .42999269 .45095826 .42999269 .51698306 .42999269 .6090088 .34098817 .6660156 .25 .6660156 .1499939 .6660156 .068984989 .59199526 .068984989 .49897767 .068984989 .4809723 .070999149 .43595887 .11299133 .38894654 .12399292 .37695313 .16099549 .35194398 .18598938 .33494569 .12799073 .30592347 .041992189 .24984741 .041992189 .15072632 .041992189 .04458618 .14399719-.022460938 .24899292-.022460938 .3619995-.022460938 .45700074 .06060791 .45700074 .16773987 .45700074 .20379639 .44599916 .24885559 .4079895 .2909088 .3889923 .31193543 .37298585 .3219452 .30899049 .36193849M.20899964 .3199463 .33198548 .24183655C.3600006 .2228241 .40699769 .19277954 .40699769 .13169861 .40699769 .05760193 .33198548 .0055389406 .25 .0055389406 .1639862 .0055389406 .09199524 .067611698 .09199524 .15072632 .09199524 .20880127 .12399292 .27288819 .20899964 .3199463Z"/>
<path id="font_3_1" d="M.2649994 .37265016H.37799073C.34498597 .22489929 .33599855 .18196106 .33599855 .11508179 .33599855 .100097659 .33599855 .073150638 .34399415 .03919983 .35398866-.0047454836 .36499024-.0107421879 .37998963-.0107421879 .3999939-.0107421879 .42099 .007247925 .42099 .02722168 .42099 .033218385 .42099 .035202028 .4149933 .049179079 .38598634 .12106323 .38598634 .18595886 .38598634 .21391297 .38598634 .26683045 .3929901 .32073976 .4039917 .37265016H.5179901C.5309906 .37265016 .5669861 .37265016 .5669861 .406662 .5669861 .43066407 .54599 .43066407 .5269928 .43066407H.19198609C.16999817 .43066407 .13198853 .43066407 .08799744 .38365174 .052993776 .34469605 .026992798 .29878236 .026992798 .29379273 .026992798 .29278565 .026992798 .28379823 .038986207 .28379823 .04699707 .28379823 .04899597 .28779603 .054992677 .29577638 .10398865 .37265016 .1619873 .37265016 .18199158 .37265016H.23899842C.20698548 .25186158 .15299988 .13105774 .11099243 .04020691 .102996829 .025222779 .102996829 .023223877 .102996829 .016235352 .102996829-.002746582 .11898804-.0107421879 .13198853-.0107421879 .1619873-.0107421879 .16999817 .017242432 .18199158 .05418396 .19599915 .100097659 .19599915 .10209656 .20899964 .15202332L.2649994 .37265016Z"/>
<path id="font_2_6" d="M.13198853 .327713V.35173036C.13198853 .6047821 .2559967 .64100649 .30699159 .64100649 .33099366 .64100649 .37298585 .634964 .394989 .6007538 .37998963 .6007538 .33999635 .6007538 .33999635 .5557556 .33999635 .524765 .3639984 .5097656 .38598634 .5097656 .4019928 .5097656 .43199159 .51875308 .43199159 .5577545 .43199159 .6178589 .3880005 .6660156 .30499269 .6660156 .1769867 .6660156 .041992189 .5367584 .041992189 .31570436 .041992189 .048553468 .1579895-.022460938 .25099183-.022460938 .3619995-.022460938 .45700074 .07156372 .45700074 .2036438 .45700074 .33070375 .36799623 .4267578 .25698854 .4267578 .18899536 .4267578 .1519928 .37573243 .13198853 .327713M.25099183 .0055389406C.18798828 .0055389406 .1579895 .06556702 .1519928 .080566409 .13398743 .127594 .13398743 .2076416 .13398743 .22564698 .13398743 .30369569 .1659851 .40374757 .2559967 .40374757 .27198792 .40374757 .31799317 .40374757 .34899903 .34172059 .36698915 .30470277 .36698915 .2536621 .36698915 .20463562 .36698915 .15661621 .36698915 .10658264 .34999085 .0705719 .31999208 .010528564 .27398683 .0055389406 .25099183 .0055389406Z"/>
<path id="font_2_4" d="M.2939911 .16503906V.07800293C.2939911 .041992189 .2919922 .0309906 .21798706 .0309906H.19699097V0C.23799134 .0029907227 .2899933 .0029907227 .33198548 .0029907227 .37399293 .0029907227 .4269867 .0029907227 .46798707 0V.0309906H.44699098C.37298585 .0309906 .37098695 .041992189 .37098695 .07800293V.16503906H.47099305V.19602967H.37098695V.65075686C.37098695 .67074587 .37098695 .6767578 .35499574 .6767578 .34599305 .6767578 .34298707 .6767578 .33499146 .66474917L.027999878 .19602967V.16503906H.2939911M.2999878 .19602967H.055999757L.2999878 .5688019V.19602967Z"/>
<path id="font_2_3" d="M.1269989 .07699585 .23298645 .18003845C.3889923 .31811524 .44898988 .3721466 .44898988 .47216798 .44898988 .5860901 .35899354 .6660156 .23699951 .6660156 .12399292 .6660156 .049987794 .57411196 .049987794 .48516847 .049987794 .4291687 .099990848 .4291687 .102996829 .4291687 .11999512 .4291687 .15499878 .44117738 .15499878 .48217774 .15499878 .5081787 .13699341 .5341797 .101989749 .5341797 .09399414 .5341797 .09199524 .5341797 .08898926 .5331726 .11199951 .59806826 .1659851 .63500979 .22399903 .63500979 .31498719 .63500979 .35798646 .5541382 .35798646 .47216798 .35798646 .39215089 .30799867 .31311036 .25299073 .25108338L.06098938 .036987306C.049987794 .025985718 .049987794 .023986817 .049987794 0H.42099L.44898988 .17404175H.42399598C.4189911 .14402771 .4119873 .1000061 .4019928 .084991458 .394989 .07699585 .32899476 .07699585 .30699159 .07699585H.1269989Z"/>
<path id="font_2_2" d="M.2939911 .64004519C.2939911 .66400149 .2939911 .6660156 .2709961 .6660156 .20899964 .60227969 .12098694 .60227969 .08898926 .60227969V.57128909C.10899353 .57128909 .16799927 .57128909 .21998596 .5972748V.07902527C.21998596 .042999269 .21699524 .0309906 .1269989 .0309906H.09498596V0C.12998963 .0029907227 .21699524 .0029907227 .25698854 .0029907227 .29699708 .0029907227 .38398744 .0029907227 .4189911 0V.0309906H.3869934C.29699708 .0309906 .2939911 .041992189 .2939911 .07902527V.64004519Z"/>
<path id="font_2_1" d="M.45999146 .31976319C.45999146 .39982606 .45498658 .47988893 .41999818 .5539398 .37399293 .65000918 .2919922 .6660156 .25 .6660156 .18998719 .6660156 .116989139 .64001467 .07598877 .54693606 .04399109 .47789 .038986207 .39982606 .038986207 .31976319 .038986207 .24472046 .042999269 .15464783 .083999637 .07859802 .1269989-.0024719239 .19999695-.022460938 .24899292-.022460938 .30299378-.022460938 .3789978-.0014648438 .4229889 .09359741 .45498658 .16265869 .45999146 .2407074 .45999146 .31976319M.24899292-.00047302247C.20999146-.00047302247 .15098572 .024551392 .1329956 .12062073 .12199402 .18066406 .12199402 .2727356 .12199402 .3317871 .12199402 .39582826 .12199402 .46188355 .12998963 .5159149 .14898682 .63500979 .22399903 .64401248 .24899292 .64401248 .28199769 .64401248 .34799195 .6259918 .36698915 .52693179 .3769989 .47088624 .3769989 .39482118 .3769989 .3317871 .3769989 .25672914 .3769989 .18867493 .3659973 .12461853 .35099793 .029556275 .2939911-.00047302247 .24899292-.00047302247Z"/>
<path id="font_2_5" d="M.44898988 .20022583C.44898988 .3193512 .36698915 .41944886 .25898744 .41944886 .21099854 .41944886 .16799927 .40345765 .13198853 .36842347V.5637665C.1519928 .5577698 .18499756 .55078127 .21699524 .55078127 .33999635 .55078127 .4099884 .6417694 .4099884 .6547699 .4099884 .6607666 .40699769 .6657715 .3999939 .6657715 .39898683 .6657715 .39698792 .6657715 .3919983 .66278079 .37199403 .6537781 .32299806 .6337738 .2559967 .6337738 .21598816 .6337738 .16999817 .6407776 .12298584 .6617737 .114990238 .66477969 .11299133 .66477969 .11099243 .66477969 .100997928 .66477969 .100997928 .6567688 .100997928 .6407776V.34439088C.100997928 .32637025 .100997928 .31835938 .114990238 .31835938 .12199402 .31835938 .12399292 .32136537 .12799073 .32736207 .13899231 .3433838 .17599488 .39746095 .25698854 .39746095 .30899049 .39746095 .33399964 .35139466 .34199525 .33337403 .35798646 .29632569 .3600006 .25727845 .3600006 .20722962 .3600006 .17222595 .3600006 .11222839 .33599855 .07035828 .31199647 .031463624 .2749939 .0055389406 .22898865 .0055389406 .1559906 .0055389406 .09899902 .058380128 .08198547 .11723328 .084991458 .1162262 .08799744 .115234378 .09899902 .115234378 .13198853 .115234378 .14898682 .14022827 .14898682 .16423035 .14898682 .18823242 .13198853 .21322632 .09899902 .21322632 .084991458 .21322632 .049987794 .20622254 .049987794 .16023255 .049987794 .07434082 .11898804-.022460938 .23098755-.022460938 .34700013-.022460938 .44898988 .073349 .44898988 .20022583Z"/>
<path id="font_3_2" d="M.33399964 .30233766C.33999635 .32835389 .36299134 .42037965 .43299867 .42037965 .43798829 .42037965 .46199037 .42037965 .48298646 .40734864 .45498658 .402359 .43499757 .37734986 .43499757 .35334779 .43499757 .33735658 .44599916 .31835938 .47299195 .31835938 .49499513 .31835938 .5269928 .3363495 .5269928 .37635804 .5269928 .42837525 .46798707 .4423828 .43399049 .4423828 .37599183 .4423828 .34098817 .38935853 .32899476 .36634828 .3039856 .43237306 .25 .4423828 .22099304 .4423828 .116989139 .4423828 .05999756 .3133545 .05999756 .28834535 .05999756 .27833558 .069992069 .27833558 .07199097 .27833558 .07998657 .27833558 .08299255 .28033448 .084991458 .28933717 .11898804 .39535523 .18499756 .42037965 .21899414 .42037965 .23799134 .42037965 .272995 .4113617 .272995 .35334779 .272995 .32235719 .2559967 .25532533 .21899414 .11528015 .20298767 .053268434 .16799927 .011245728 .12399292 .011245728 .117996219 .011245728 .09498596 .011245728 .07398987 .024276734 .09899902 .029266358 .12098694 .05027771 .12098694 .07827759 .12098694 .105270389 .09899902 .11328125 .083999637 .11328125 .053985597 .11328125 .0289917 .08728027 .0289917 .055267335 .0289917 .009246826 .07899475-.0107421879 .12298584-.0107421879 .18899536-.0107421879 .22499085 .059280397 .22799683 .0652771 .23999024 .028274537 .27598573-.0107421879 .33599855-.0107421879 .43899537-.0107421879 .49598695 .118270877 .49598695 .14328003 .49598695 .1532898 .4869995 .1532898 .48399354 .1532898 .47499085 .1532898 .47299195 .14929199 .47099305 .14228821 .43798829 .03527832 .36999513 .011245728 .33799745 .011245728 .29899598 .011245728 .2829895 .043273927 .2829895 .07727051 .2829895 .09927368 .2889862 .121276859 .2999878 .16529846L.33399964 .30233766Z"/>
<path id="font_3_3" d="M.48599244 .38136292C.48999024 .39537049 .48999024 .39736939 .48999024 .40437318 .48999024 .42237855 .47599793 .43138124 .46099855 .43138124 .45098878 .43138124 .43499757 .42536927 .42599488 .41036988 .42399598 .405365 .41600038 .37435914 .4119873 .35635377 .40499879 .33035279 .397995 .30334474 .3919983 .27633668L.34700013 .09628296C.34298707 .08126831 .2999878 .011245728 .23399353 .011245728 .18299866 .011245728 .17199707 .055267335 .17199707 .0922699 .17199707 .1382904 .18899536 .20030213 .22299195 .28833009 .23899842 .3293457 .24299622 .3403473 .24299622 .36035157 .24299622 .405365 .21099854 .4423828 .16099549 .4423828 .06599426 .4423828 .0289917 .29733277 .0289917 .28833009 .0289917 .27833558 .038986207 .27833558 .040985109 .27833558 .050994874 .27833558 .051986696 .28033448 .056991579 .29634095 .083999637 .3903656 .12399292 .42037965 .1579895 .42037965 .1659851 .42037965 .18299866 .42037965 .18299866 .3883667 .18299866 .36335755 .17298889 .3373413 .1659851 .31834413 .12599182 .21231079 .10798645 .1552887 .10798645 .10827637 .10798645 .019256592 .17098999-.0107421879 .22999573-.0107421879 .2689972-.0107421879 .30299378 .0062561037 .33099366 .03425598 .31799317-.017745972 .30599977-.06674194 .2659912-.11973572 .23999024-.15385437 .20199585-.18309021 .1559906-.18309021 .14199829-.18309021 .09700012-.18005371 .07998657-.14074707 .09599304-.14074707 .10899353-.14074707 .12298584-.1287384 .1329956-.11973572 .14299011-.10673523 .14299011-.08773804 .14299011-.056747438 .115997318-.052734376 .10598755-.052734376 .08299255-.052734376 .049987794-.068740848 .049987794-.11773682 .049987794-.16796875 .09399414-.20507813 .1559906-.20507813 .25898744-.20507813 .3619995-.11373901 .3899994-.00074768069L.48599244 .38136292Z"/>
</defs>
<path transform="matrix(1.00006,0,0,-1.00006,9.215706,166.68822)" stroke-width=".19925" stroke-linecap="butt" stroke-miterlimit="10" stroke-linejoin="miter" fill="none" stroke="#929292" d="M.38495 78.72563V82.97736M24.57266 78.72563V82.97736M48.76039 78.72563V82.97736M72.94814 78.72563V82.97736M121.3236 78.72563V82.97736M145.51132 78.72563V82.97736M169.69905 78.72563V82.97736M193.88678 78.72563V82.97736"/>
<path transform="matrix(1.00006,0,0,-1.00006,9.215706,166.68822)" stroke-width=".19925" stroke-linecap="butt" stroke-miterlimit="10" stroke-linejoin="miter" fill="none" stroke="#929292" d="M95.00992 .15332H99.2618M95.00992 40.50241H99.2618M95.00992 121.20059H99.2618M95.00992 161.54969H99.2618"/>
<path transform="matrix(1.00006,0,0,-1.00006,9.215706,166.68822)" stroke-width=".3985" stroke-linecap="butt" stroke-miterlimit="10" stroke-linejoin="miter" fill="none" stroke="#000000" d="M0 80.8515H192.27922"/>
<path transform="matrix(1.00006,0,0,-1.00006,201.50647,85.83187)" d="M1.99252 0-1.19551 1.59401 0 0-1.19551-1.59401"/>
<path transform="matrix(1.00006,0,0,-1.00006,9.215706,166.68822)" stroke-width=".3985" stroke-linecap="butt" stroke-miterlimit="10" stroke-linejoin="miter" fill="none" stroke="#000000" d="M97.13586 .15332V159.55716"/>
<path transform="matrix(0,-1.00006,-1.00006,-0,106.35738,7.1214907)" d="M1.99252 0-1.19551 1.59401 0 0-1.19551-1.59401"/>
<use data-text="&#x2212;" xlink:href="#font_1_1" transform="matrix(9.963197,0,0,-9.963197,.21716309,97.899089)"/>
<use data-text="8" xlink:href="#font_2_7" transform="matrix(9.963197,0,0,-9.963197,7.966629,97.899089)"/>
<use data-text="&#x03c0;" xlink:href="#font_3_1" transform="matrix(9.963197,0,0,-9.963197,12.947929,97.899089)"/>
<use data-text="&#x2212;" xlink:href="#font_1_1" transform="matrix(9.963197,0,0,-9.963197,24.405617,97.899089)"/>
<use data-text="6" xlink:href="#font_2_6" transform="matrix(9.963197,0,0,-9.963197,32.155084,97.899089)"/>
<use data-text="&#x03c0;" xlink:href="#font_3_1" transform="matrix(9.963197,0,0,-9.963197,37.136384,97.899089)"/>
<use data-text="&#x2212;" xlink:href="#font_1_1" transform="matrix(9.963197,0,0,-9.963197,48.595067,97.899089)"/>
<use data-text="4" xlink:href="#font_2_4" transform="matrix(9.963197,0,0,-9.963197,56.344533,97.899089)"/>
<use data-text="&#x03c0;" xlink:href="#font_3_1" transform="matrix(9.963197,0,0,-9.963197,61.325834,97.899089)"/>
<use data-text="&#x2212;" xlink:href="#font_1_1" transform="matrix(9.963197,0,0,-9.963197,72.784519,97.899089)"/>
<use data-text="2" xlink:href="#font_2_3" transform="matrix(9.963197,0,0,-9.963197,80.53398,97.899089)"/>
<use data-text="&#x03c0;" xlink:href="#font_3_1" transform="matrix(9.963197,0,0,-9.963197,85.51528,97.899089)"/>
<use data-text="2" xlink:href="#font_2_3" transform="matrix(9.963197,0,0,-9.963197,125.03765,97.899089)"/>
<use data-text="&#x03c0;" xlink:href="#font_3_1" transform="matrix(9.963197,0,0,-9.963197,130.01996,97.899089)"/>
<use data-text="4" xlink:href="#font_2_4" transform="matrix(9.963197,0,0,-9.963197,149.2261,97.899089)"/>
<use data-text="&#x03c0;" xlink:href="#font_3_1" transform="matrix(9.963197,0,0,-9.963197,154.2084,97.899089)"/>
<use data-text="6" xlink:href="#font_2_6" transform="matrix(9.963197,0,0,-9.963197,173.41556,97.899089)"/>
<use data-text="&#x03c0;" xlink:href="#font_3_1" transform="matrix(9.963197,0,0,-9.963197,178.39786,97.899089)"/>
<use data-text="8" xlink:href="#font_2_7" transform="matrix(9.963197,0,0,-9.963197,197.60501,97.899089)"/>
<use data-text="&#x03c0;" xlink:href="#font_3_1" transform="matrix(9.963197,0,0,-9.963197,202.58731,97.899089)"/>
<use data-text="&#x2212;" xlink:href="#font_1_1" transform="matrix(9.963197,0,0,-9.963197,82.99813,169.33039)"/>
<use data-text="1" xlink:href="#font_2_2" transform="matrix(9.963197,0,0,-9.963197,90.7476,169.33039)"/>
<use data-text="0" xlink:href="#font_2_1" transform="matrix(9.963197,0,0,-9.963197,95.729198,169.33039)"/>
<use data-text="&#x2212;" xlink:href="#font_1_1" transform="matrix(9.963197,0,0,-9.963197,87.98043,128.97896)"/>
<use data-text="5" xlink:href="#font_2_5" transform="matrix(9.963197,0,0,-9.963197,95.7299,128.97896)"/>
<use data-text="5" xlink:href="#font_2_5" transform="matrix(9.963197,0,0,-9.963197,95.7299,48.691148)"/>
<use data-text="1" xlink:href="#font_2_2" transform="matrix(9.963197,0,0,-9.963197,90.7476,8.339722)"/>
<use data-text="0" xlink:href="#font_2_1" transform="matrix(9.963197,0,0,-9.963197,95.729198,8.339722)"/>
<path transform="matrix(1.00006,0,0,-1.00006,9.215706,166.68822)" stroke-width=".99628" stroke-linecap="butt" stroke-miterlimit="10" stroke-linejoin="miter" fill="none" stroke="#0000ff" d="M1.98814 158.81465 2.15239 151.33087 2.38 143.31108 2.6076 136.95851 2.8352 131.78012 3.0628 127.49747 3.29042 123.87895 3.51804 120.79306 3.74564 118.12437 3.97324 115.80107 4.20087 113.75616 4.42847 111.94046 4.65607 110.32489 4.88367 108.87233 5.1113 107.5634 5.3389 106.3739 5.5665 105.29256 5.7941 104.304 6.02171 103.39775 6.24933 102.56415 6.47693 101.79266 6.70453 101.0793 6.93214 100.41676 7.15974 99.79942 7.38736 99.22485 7.61497 98.68741 7.84258 98.18385 8.07018 97.71259 8.29779 97.26955 8.5254 96.85152 8.753 96.45853 8.9806 96.08733 9.20822 95.73628 9.43584 95.4062 9.66344 95.0907 9.89104 94.79292 10.11864 94.50966 10.34625 94.24094 10.57387 93.9851 10.80147 93.74222 11.02907 93.51143 11.25668 93.2895 11.4843 93.07887 11.7119 92.87794 11.9395 92.68588 12.16711 92.5027 12.39473 92.32758 12.62233 92.16054 12.84993 91.99915 13.07755 91.84502 13.30516 91.69814 13.53276 91.55692 13.76036 91.42296 13.98798 91.29385 14.21558 91.16876 14.44318 91.04932 14.67079 90.93474 14.8984 90.8266 15.126 90.7217 15.35362 90.62082 15.58122 90.52478 15.80884 90.43118 16.03644 90.34242 16.26405 90.25768 16.49165 90.17616 16.71927 90.09952 16.94687 90.02365 17.17447 89.95264 17.40208 89.88324 17.6297 89.81787 17.8573 89.75412 18.0849 89.6952 18.31252 89.63873 18.54013 89.58305 18.76773 89.53139 18.99533 89.48216 19.22295 89.43375 19.45056 89.38936 19.67816 89.34657 19.90576 89.30705 20.13338 89.26912 20.361 89.23361 20.5886 89.19891 20.8162 89.16824 21.04381 89.13838 21.27141 89.11014 21.49901 89.08592 21.72662 89.06253 21.95424 89.03995 22.18184 89.02057 22.40944 89.00201 22.63705 88.98587 22.86467 88.97134 23.09227 88.96005 23.31989 88.94875 23.54749 88.93907 23.7751 88.93262 24.0027 88.92696 24.2303 88.92293 24.4579 88.92133H24.68553L24.91315 88.92293 25.14073 88.92696 25.36835 88.93181 25.59595 88.93907 25.82356 88.94875 26.05118 88.96005 26.27878 88.97134 26.5064 88.98587 26.73398 89.00201 26.9616 89.01897 27.18922 89.03995 27.41681 89.06091 27.64442 89.08592 27.87201 89.11014 28.09964 89.13838 28.32726 89.16664 28.55484 89.19891 28.78246 89.23361 29.01006 89.26912 29.23767 89.30705 29.46529 89.34657 29.69287 89.38936 29.9205 89.43375 30.14809 89.48055 30.3757 89.53139 30.60332 89.58305 30.83092 89.6371 31.05853 89.69359 31.28612 89.75412 31.51373 89.81706 31.74138 89.88242 31.96895 89.95102 32.19658 90.02286 32.42416 90.09789 32.65178 90.17535 32.87941 90.25768 33.10698 90.34242 33.33461 90.43118 33.5622 90.52397 33.78983 90.62001 34.01744 90.72089 34.24503 90.82579 34.47266 90.93474 34.70024 91.04932 34.92786 91.16794 35.15549 91.29224 35.38307 91.42134 35.61069 91.55531 35.83827 91.69734 36.0659 91.84421 36.29352 91.99753 36.5211 92.1573 36.74872 92.32678 36.97632 92.50108 37.20393 92.68507 37.43155 92.87714 37.65913 93.07727 37.88676 93.28789 38.11435 93.509 38.34196 93.7398 38.56958 93.98271 38.79718 94.23932 39.0248 94.50725 39.25238 94.79048 39.48 95.08826 39.70763 95.40219 39.93521 95.73386 40.16284 96.08488 40.39041 96.45529 40.61804 96.8483 40.84567 97.2655 41.07324 97.70934 41.30087 98.18144 41.52846 98.68256 41.75609 99.22 41.9837 99.79459 42.21129 100.41031 42.43892 101.07446 42.6665 101.78702 42.89412 102.5577 43.12173 103.39131 43.34933 104.29674 43.57695 105.28368 43.80453 106.36664 44.03217 107.55211 44.25978 108.86021 44.48737 110.31036 44.71498 111.92595 44.94258 113.73843 45.1702 115.7825 45.39781 118.1058 45.6254 120.76483 45.85303 123.85153 46.08061 127.45953 46.30823 131.74785 46.53584 136.91172 46.76344 143.26186 46.99106 151.24452 47.15514 158.70168"/>
<path transform="matrix(-.021931315,-.99977,-.99977,.021931315,11.203965,7.8640596)" d="M2.8892 0-1.73352 2.31136 0 0-1.73352-2.31136" fill="#0000ff"/>
<path transform="matrix(.021991319,-.99977,-.99977,-.021991319,56.373655,7.9770357)" d="M2.8892 0-1.73352 2.31136 0 0-1.73352-2.31136" fill="#0000ff"/>
<path transform="matrix(1.00006,0,0,-1.00006,9.215706,166.68822)" stroke-width=".99628" stroke-linecap="butt" stroke-miterlimit="10" stroke-linejoin="miter" fill="none" stroke="#0000ff" d="M50.36363 2.90448 50.52785 10.38583 50.75546 18.3919 50.98306 24.74448 51.21066 29.91481 51.43828 34.21037 51.66588 37.82404 51.8935 40.91396 52.1211 43.5762 52.34871 45.90192 52.57631 47.94682 52.80391 49.76253 53.03152 51.3781 53.25914 52.83066 53.48674 54.13959 53.71434 55.32909 53.94196 56.41043 54.16957 57.399 54.39717 58.30524 54.62479 59.14044 54.85239 59.91032 55.08 60.62288 55.3076 61.28622 55.5352 61.90356 55.76282 62.47813 55.99043 63.01558 56.21803 63.51915 56.44563 63.98961 56.67325 64.43346 56.90086 64.85147 57.12846 65.24446 57.35606 65.61566 57.58368 65.9667 57.8113 66.29678 58.0389 66.61229 58.2665 66.91006 58.49411 67.19333 58.72171 67.46205 58.94933 67.71788 59.17693 67.96077 59.40454 68.19157 59.63214 68.41267 59.85974 68.62411 60.08736 68.82504 60.31497 69.01791 60.54257 69.2003 60.77017 69.37541 60.99779 69.54407 61.2254 69.70384 61.453 69.85797 61.6806 70.00485 61.90822 70.14607 62.13583 70.28003 62.36343 70.40915 62.59103 70.53423 62.81863 70.65367 63.04626 70.76665 63.27386 70.8764 63.50146 70.9821 63.72906 71.08218 63.95668 71.1782 64.1843 71.2718 64.4119 71.36058 64.63951 71.44531 64.86713 71.52682 65.09473 71.60512 65.32233 71.67934 65.54994 71.75035 65.77754 71.81975 66.00516 71.88513 66.23276 71.94887 66.46037 72.00778 66.68797 72.06427 66.91557 72.11993 67.14319 72.1716 67.3708 72.22083 67.5984 72.26926 67.826 72.31363 68.05362 72.35641 68.28123 72.39595 68.50883 72.43387 68.73643 72.46938 68.96405 72.50407 69.19167 72.53474 69.41927 72.5646 69.64687 72.59285 69.87447 72.61707 70.10208 72.64046 70.3297 72.66304 70.5573 72.68242 70.7849 72.70097 71.01251 72.71712 71.24013 72.73166 71.46773 72.74294 71.69533 72.75424 71.92294 72.76393 72.15056 72.77037 72.37816 72.77603 72.60576 72.78006 72.83337 72.78168H73.06099L73.2886 72.78006 73.5162 72.77603 73.74382 72.77118 73.9714 72.76393 74.199 72.75424 74.42665 72.74294 74.65422 72.73166 74.88185 72.71712 75.10944 72.70097 75.33707 72.68402 75.56468 72.66304 75.79227 72.64207 76.01988 72.61707 76.24748 72.59285 76.4751 72.5646 76.70271 72.53635 76.9303 72.50407 77.15793 72.46938 77.38551 72.43387 77.61313 72.39595 77.84074 72.35641 78.06834 72.31363 78.29596 72.26926 78.52354 72.22244 78.75116 72.1716 78.97879 72.11993 79.20638 72.06589 79.43399 72.0094 79.66158 71.94887 79.8892 71.88593 80.11682 71.81975 80.3444 71.75197 80.57202 71.68015 80.79962 71.60512 81.02724 71.52763 81.25487 71.44531 81.48244 71.36058 81.71008 71.2718 81.93765 71.17902 82.16527 71.08298 82.3929 70.9821 82.62048 70.8772 82.84811 70.76826 83.07568 70.65367 83.30333 70.53505 83.53094 70.41077 83.75853 70.28165 83.98615 70.14769 84.21375 70.00566 84.44136 69.8588 84.66898 69.70547 84.89656 69.54568 85.12419 69.3762 85.35178 69.2019 85.57939 69.01791 85.807 68.82585 86.0346 68.62572 86.26222 68.4151 86.4898 68.19398 86.71742 67.9632 86.94505 67.71948 87.17264 67.46367 87.40025 67.19574 87.62784 66.9125 87.85547 66.61473 88.08308 66.30081 88.31067 65.96913 88.53828 65.6181 88.76588 65.2477 88.9935 64.8547 89.22113 64.43748 89.4487 63.99283 89.67633 63.52237 89.90392 63.02043 90.13153 62.48299 90.35916 61.9084 90.58675 61.29268 90.81438 60.62854 91.04195 59.91597 91.26958 59.1453 91.49721 58.31168 91.7248 57.40625 91.95241 56.41931 92.18001 55.33635 92.40762 54.15088 92.63524 52.84116 92.86282 51.39262 93.09045 49.77705 93.31804 47.96455 93.54565 45.92049 93.77327 43.59718 94.00087 40.93494 94.22849 37.85146 94.45607 34.24345 94.68369 29.95514 94.91132 24.79129 95.1389 18.44113 95.36652 10.44637 95.53067 2.98517"/>
<path transform="matrix(-.021941316,.99977,.99977,.021941316,59.582357,163.78354)" d="M2.8892 0-1.73352 2.31136 0 0-1.73352-2.31136" fill="#0000ff"/>
<path transform="matrix(.021961317,.99977,.99977,-.021961317,104.752109,163.70287)" d="M2.8892 0-1.73352 2.31136 0 0-1.73352-2.31136" fill="#0000ff"/>
<path transform="matrix(1.00006,0,0,-1.00006,9.215706,166.68822)" stroke-width=".99628" stroke-linecap="butt" stroke-miterlimit="10" stroke-linejoin="miter" fill="none" stroke="#0000ff" d="M98.739 158.81465 98.90332 151.31716 99.13092 143.32077 99.35852 136.95851 99.58615 131.78818 99.81375 127.49261 100.04137 123.87895 100.26898 120.79306 100.4966 118.12437 100.7242 115.79947 100.95181 113.75294 101.17941 111.94046 101.40704 110.32489 101.63464 108.87233 101.86226 107.5634 102.08986 106.3723 102.31749 105.29256 102.54509 104.304 102.7727 103.39775 103.00032 102.56255 103.22792 101.79266 103.45554 101.0793 103.68315 100.41676 103.91077 99.79942 104.13837 99.22485 104.36598 98.68741 104.59358 98.18385 104.82121 97.71259 105.04881 97.26955 105.27643 96.85152 105.50403 96.45772 105.73166 96.08733 105.95926 95.73628 106.18687 95.4046 106.41447 95.0907 106.6421 94.79292 106.8697 94.50966 107.09732 94.24094 107.32492 93.9851 107.55255 93.74222 107.78015 93.51143 108.00775 93.2895 108.23537 93.07887 108.463 92.87794 108.6906 92.68588 108.9182 92.5027 109.14581 92.32678 109.37343 92.15892 109.60104 91.99915 109.82864 91.84502 110.05626 91.69814 110.28387 91.55692 110.51149 91.42296 110.73909 91.29385 110.9667 91.16876 111.19432 91.04932 111.42194 90.93474 111.64954 90.82579 111.87715 90.72089 112.10477 90.62082 112.33238 90.52397 112.55998 90.43118 112.78758 90.34242 113.01521 90.25768 113.24283 90.17616 113.47043 90.09789 113.69804 90.02365 113.92566 89.95264 114.15326 89.88324 114.38087 89.81787 114.60849 89.75412 114.8361 89.6952 115.0637 89.6371 115.29132 89.58305 115.51894 89.53139 115.74655 89.48055 115.97415 89.43375 116.20175 89.38936 116.42938 89.34657 116.657 89.30705 116.8846 89.26912 117.11221 89.23361 117.33983 89.19891 117.56743 89.16824 117.79504 89.13838 118.02264 89.11014 118.25027 89.08592 118.47787 89.06091 118.70549 89.03995 118.93309 89.02057 119.16072 89.00201 119.38832 88.98587 119.61594 88.97134 119.84354 88.95845 120.07117 88.94875 120.29877 88.93907 120.52638 88.93181 120.75398 88.92696 120.9816 88.92293 121.20921 88.92133H121.43683L121.66444 88.92293 121.89204 88.92696 122.11967 88.93181 122.34726 88.93907 122.57487 88.94875 122.8025 88.96005 123.03009 88.97134 123.25772 88.98587 123.4853 89.00201 123.71294 89.01897 123.94057 89.03995 124.16815 89.06091 124.39577 89.08592 124.62337 89.11014 124.851 89.13838 125.07861 89.16664 125.30621 89.19891 125.53384 89.23361 125.76143 89.26912 125.98904 89.30705 126.21667 89.34657 126.44427 89.38936 126.67189 89.43375 126.89948 89.48055 127.1271 89.53139 127.35474 89.58305 127.58232 89.6371 127.80994 89.6952 128.03754 89.75412 128.26517 89.81706 128.49279 89.88324 128.72037 89.95102 128.94802 90.02286 129.1756 90.09789 129.40322 90.17535 129.63085 90.25768 129.85845 90.34242 130.08606 90.43118 130.31365 90.52397 130.54126 90.62001 130.7689 90.72089 130.99649 90.82579 131.2241 90.93474 131.45169 91.04932 131.67934 91.16794 131.90695 91.29224 132.13454 91.42134 132.36217 91.55531 132.58977 91.69734 132.81739 91.84502 133.04502 91.99753 133.2726 92.15892 133.50023 92.32678 133.72782 92.50108 133.95545 92.68507 134.18306 92.87714 134.41066 93.07727 134.63828 93.2895 134.86586 93.50981 135.0935 93.74142 135.32114 93.9835 135.54872 94.23932 135.77634 94.50885 136.00394 94.7913 136.23157 95.08989 136.45919 95.40381 136.68677 95.73465 136.9144 96.08571 137.142 96.4561 137.36962 96.8491 137.59723 97.26631 137.82483 97.71016 138.05246 98.18144 138.28005 98.68579 138.50766 99.22244 138.7353 99.79701 138.96289 100.41273 139.1905 101.07527 139.41809 101.78944 139.64574 102.5601 139.87335 103.39372 140.10094 104.29997 140.32855 105.2869 140.55617 106.36906 140.78379 107.55614 141.0114 108.86507 141.23899 110.31683 141.46663 111.9324 141.69422 113.74489 141.92183 115.78976 142.14946 118.11388 142.37706 120.77449 142.60468 123.85797 142.83226 127.47083 143.05989 131.76157 143.28752 136.9351 143.5151 143.28284 143.74274 151.28165 143.90689 158.75009"/>
<path transform="matrix(-.021911314,-.99977,-.99977,.021911314,107.96064,7.8640596)" d="M2.8892 0-1.73352 2.31136 0 0-1.73352-2.31136" fill="#0000ff"/>
<path transform="matrix(.021961317,-.99977,-.99977,-.021961317,153.13123,7.9286196)" d="M2.8892 0-1.73352 2.31136 0 0-1.73352-2.31136" fill="#0000ff"/>
<path transform="matrix(1.00006,0,0,-1.00006,9.215706,166.68822)" stroke-width=".99628" stroke-linecap="butt" stroke-miterlimit="10" stroke-linejoin="miter" fill="none" stroke="#0000ff" d="M147.1145 2.88835 147.27877 10.37212 147.50637 18.3919 147.73398 24.73721 147.96158 29.91481 148.1892 34.20552 148.4168 37.82404 148.64441 40.91396 148.87203 43.5762 149.09963 45.90192 149.32723 47.94682 149.55484 49.76253 149.78244 51.38052 150.01006 52.83228 150.23767 54.13959 150.46527 55.32664 150.69287 56.41043 150.92047 57.399 151.1481 58.30524 151.3757 59.14044 151.6033 59.91032 151.8309 60.62369 152.05854 61.28622 152.28614 61.90356 152.51374 62.47813 152.74134 63.01558 152.96897 63.51752 153.19657 63.98961 153.42417 64.43346 153.65177 64.85147 153.87938 65.24446 154.107 65.61566 154.3346 65.9667 154.5622 66.29839 154.78981 66.61229 155.01741 66.91006 155.24503 67.19333 155.47263 67.46205 155.70024 67.71788 155.92784 67.96077 156.15546 68.19157 156.38306 68.41348 156.61067 68.62411 156.83827 68.82504 157.06589 69.01791 157.29349 69.2003 157.5211 69.37541 157.7487 69.54245 157.9763 69.70384 158.2039 69.85797 158.43154 70.00485 158.65914 70.14607 158.88674 70.28003 159.11437 70.40915 159.34197 70.53423 159.56957 70.65367 159.79717 70.76665 160.0248 70.8764 160.2524 70.9813 160.48 71.08218 160.7076 71.1782 160.93521 71.2718 161.16281 71.36058 161.39043 71.44531 161.61803 71.52682 161.84564 71.60349 162.07324 71.67934 162.30086 71.75035 162.52846 71.81975 162.75608 71.88513 162.98368 71.94887 163.21129 72.00778 163.43889 72.06589 163.6665 72.11993 163.8941 72.1716 164.12172 72.22083 164.34932 72.26926 164.57694 72.31363 164.80454 72.35641 165.03214 72.39595 165.25974 72.43387 165.48737 72.46938 165.71497 72.50407 165.94257 72.53474 166.17017 72.5646 166.3978 72.59285 166.6254 72.61707 166.853 72.64046 167.08061 72.66304 167.30823 72.68242 167.53583 72.70097 167.76343 72.71712 167.99105 72.73166 168.21865 72.74294 168.44626 72.75424 168.67386 72.76393 168.90148 72.77037 169.12908 72.77603 169.35669 72.78006 169.58429 72.78168H169.8119L170.03952 72.78006 170.2671 72.77603 170.49472 72.77118 170.72232 72.76393 170.94994 72.75424 171.17755 72.74454 171.40514 72.73166 171.63277 72.71712 171.86035 72.70097 172.08797 72.68402 172.3156 72.66304 172.54319 72.64207 172.7708 72.61707 172.99839 72.59285 173.226 72.5646 173.45363 72.53635 173.68122 72.50407 173.90885 72.46938 174.13642 72.43387 174.36406 72.39595 174.59168 72.35641 174.81926 72.31444 175.04686 72.26926 175.27446 72.22244 175.50209 72.1716 175.7297 72.11993 175.95729 72.06589 176.18492 72.0094 176.4125 71.94887 176.64012 71.88593 176.86774 71.82057 177.09534 71.75197 177.32295 71.68015 177.55054 71.60512 177.77817 71.52763 178.00579 71.44612 178.23337 71.36058 178.46099 71.2718 178.68859 71.17902 178.9162 71.08298 179.14382 70.9821 179.3714 70.8772 179.59903 70.76826 179.82662 70.65446 180.05423 70.53505 180.28185 70.41077 180.50945 70.28165 180.73706 70.14769 180.96465 70.00566 181.19226 69.8588 181.41989 69.70547 181.64748 69.54568 181.87509 69.37782 182.10268 69.2019 182.3303 69.01791 182.55794 68.82585 182.7855 68.62572 183.01313 68.4151 183.24073 68.19398 183.46834 67.9632 183.69597 67.71948 183.92354 67.46367 184.15119 67.19574 184.37876 66.9125 184.60639 66.61473 184.834 66.30081 185.0616 65.96913 185.28922 65.6181 185.51679 65.2477 185.74442 64.8547 185.97205 64.43748 186.19963 63.99283 186.42725 63.52237 186.65485 63.02124 186.88246 62.48299 187.11008 61.9084 187.33766 61.29268 187.56529 60.62854 187.79288 59.91597 188.0205 59.1461 188.24811 58.31412 188.47571 57.40625 188.70333 56.41931 188.93091 55.33797 189.15853 54.15169 189.38616 52.84279 189.61374 51.39262 189.84136 49.77705 190.06894 47.96455 190.29657 45.92049 190.5242 43.59718 190.75177 40.93494 190.97939 37.85146 191.20699 34.24345 191.4346 29.95514 191.66223 24.78804 191.8898 18.44113 192.11745 10.44637 192.2815 3.00131"/>
<path transform="matrix(-.021931315,.99977,.99977,.021931315,156.33902,163.79967)" d="M2.8892 0-1.73352 2.31136 0 0-1.73352-2.31136" fill="#0000ff"/>
<path transform="matrix(.021991319,.99977,.99977,-.021991319,201.50873,163.6867)" d="M2.8892 0-1.73352 2.31136 0 0-1.73352-2.31136" fill="#0000ff"/>
<path transform="matrix(1.00006,0,0,-1.00006,9.215706,166.68822)" stroke-width=".3985" stroke-linecap="butt" stroke-dasharray="2.98883,2.98883" stroke-miterlimit="10" stroke-linejoin="miter" fill="none" stroke="#ff0000" d="M.38495 .15332V161.54969"/>
<path transform="matrix(1.00006,0,0,-1.00006,9.215706,166.68822)" stroke-width=".3985" stroke-linecap="butt" stroke-dasharray="2.98883,2.98883" stroke-miterlimit="10" stroke-linejoin="miter" fill="none" stroke="#ff0000" d="M48.76039 .15332V161.54969"/>
<path transform="matrix(1.00006,0,0,-1.00006,9.215706,166.68822)" stroke-width=".3985" stroke-linecap="butt" stroke-dasharray="2.98883,2.98883" stroke-miterlimit="10" stroke-linejoin="miter" fill="none" stroke="#ff0000" d="M145.51132 .15332V161.54969"/>
<path transform="matrix(1.00006,0,0,-1.00006,9.215706,166.68822)" stroke-width=".3985" stroke-linecap="butt" stroke-dasharray="2.98883,2.98883" stroke-miterlimit="10" stroke-linejoin="miter" fill="none" stroke="#ff0000" d="M193.88678 .15332V161.54969"/>
<use data-text="x" xlink:href="#font_3_2" transform="matrix(9.963197,0,0,-9.963197,194.28479,82.31216)"/>
<use data-text="y" xlink:href="#font_3_3" transform="matrix(9.963197,0,0,-9.963197,109.87774,12.938995)"/>
</svg>
