<svg xmlns="http://www.w3.org/2000/svg" xmlns:xlink="http://www.w3.org/1999/xlink" version="1.1" width="95" height="343" viewBox="0 0 95 343">
<path transform="matrix(1.00005,0,0,-1.00005,46.035348,171.88478)" d="M-43.93764 113.38724-32.59865 170.08086-21.2601 113.38724V85.04042H-43.93764Z" fill="#993300" fill-opacity=".1"/>
<path transform="matrix(1.00005,0,0,-1.00005,46.035348,171.88478)" d="M43.93764 113.38724 32.59865 170.08086 21.2601 113.38724V85.04042H43.93764Z" fill="#993300" fill-opacity=".1"/>
<path transform="matrix(1.00005,0,0,-1.00005,46.035348,171.88478)" d="M-43.93764-113.38724-32.59865-170.08086-21.2601-113.38724Z" fill="#993300" fill-opacity=".1"/>
<path transform="matrix(1.00005,0,0,-1.00005,46.035348,171.88478)" d="M43.93764-113.38724 32.59865-170.08086 21.2601-113.38724Z" fill="#993300" fill-opacity=".1"/>
<path transform="matrix(1.00005,0,0,-1.00005,46.035348,171.88478)" d="M-43.93764-113.38724H43.93764V85.04042H-43.93764Z" fill="#993300" fill-opacity=".04"/>
<path transform="matrix(1.00005,0,0,-1.00005,46.035348,171.88478)" stroke-width=".3985" stroke-linecap="round" stroke-miterlimit="10" stroke-linejoin="miter" fill="none" stroke="#993300" d="M-32.59865 170.08086-43.93764 113.38724"/>
<path transform="matrix(1.00005,0,0,-1.00005,46.035348,171.88478)" stroke-width=".3985" stroke-linecap="round" stroke-miterlimit="10" stroke-linejoin="miter" fill="none" stroke="#993300" d="M-43.93764 113.38724V-113.38724"/>
<path transform="matrix(1.00005,0,0,-1.00005,46.035348,171.88478)" stroke-width=".3985" stroke-linecap="round" stroke-miterlimit="10" stroke-linejoin="miter" fill="none" stroke="#993300" d="M-43.93764-113.38724-32.59865-170.08086"/>
<path transform="matrix(1.00005,0,0,-1.00005,46.035348,171.88478)" stroke-width=".3985" stroke-linecap="round" stroke-miterlimit="10" stroke-linejoin="miter" fill="none" stroke="#993300" d="M-32.59865-170.08086-21.2601-113.38724"/>
<path transform="matrix(1.00005,0,0,-1.00005,46.035348,171.88478)" stroke-width=".3985" stroke-linecap="round" stroke-miterlimit="10" stroke-linejoin="miter" fill="none" stroke="#993300" d="M-21.2601 85.04042V113.38724"/>
<path transform="matrix(1.00005,0,0,-1.00005,46.035348,171.88478)" stroke-width=".3985" stroke-linecap="round" stroke-miterlimit="10" stroke-linejoin="miter" fill="none" stroke="#993300" d="M-21.2601 113.38724-32.59865 170.08086"/>
<path transform="matrix(1.00005,0,0,-1.00005,46.035348,171.88478)" stroke-width=".3985" stroke-linecap="round" stroke-miterlimit="10" stroke-linejoin="miter" fill="none" stroke="#993300" d="M32.59865 170.08086 43.93764 113.38724"/>
<path transform="matrix(1.00005,0,0,-1.00005,46.035348,171.88478)" stroke-width=".3985" stroke-linecap="round" stroke-miterlimit="10" stroke-linejoin="miter" fill="none" stroke="#993300" d="M43.93764 113.38724V-113.38724"/>
<path transform="matrix(1.00005,0,0,-1.00005,46.035348,171.88478)" stroke-width=".3985" stroke-linecap="round" stroke-miterlimit="10" stroke-linejoin="miter" fill="none" stroke="#993300" d="M43.93764-113.38724 32.59865-170.08086"/>
<path transform="matrix(1.00005,0,0,-1.00005,46.035348,171.88478)" stroke-width=".3985" stroke-linecap="round" stroke-miterlimit="10" stroke-linejoin="miter" fill="none" stroke="#993300" d="M32.59865-170.08086 21.2601-113.38724"/>
<path transform="matrix(1.00005,0,0,-1.00005,46.035348,171.88478)" stroke-width=".3985" stroke-linecap="round" stroke-miterlimit="10" stroke-linejoin="miter" fill="none" stroke="#993300" d="M21.2601 85.04042V113.38724"/>
<path transform="matrix(1.00005,0,0,-1.00005,46.035348,171.88478)" stroke-width=".3985" stroke-linecap="round" stroke-miterlimit="10" stroke-linejoin="miter" fill="none" stroke="#993300" d="M21.2601 113.38724 32.59865 170.08086"/>
<path transform="matrix(1.00005,0,0,-1.00005,46.035348,171.88478)" stroke-width=".3985" stroke-linecap="round" stroke-miterlimit="10" stroke-linejoin="miter" fill="none" stroke="#993300" d="M-43.93764-113.38724H43.93764"/>
<path transform="matrix(1.00005,0,0,-1.00005,46.035348,171.88478)" stroke-width=".3985" stroke-linecap="round" stroke-miterlimit="10" stroke-linejoin="miter" fill="none" stroke="#993300" d="M43.93764 85.04042H-43.93764"/>
<path transform="matrix(1.00005,0,0,-1.00005,46.035348,171.88478)" stroke-width=".3985" stroke-linecap="round" stroke-miterlimit="10" stroke-linejoin="miter" fill="none" stroke="#993300" d="M-7.08669 85.04042H7.08669"/>
<path transform="matrix(1.00005,0,0,-1.00005,46.035348,171.88478)" stroke-width=".3985" stroke-linecap="round" stroke-miterlimit="10" stroke-linejoin="miter" fill="none" stroke="#993300" d="M-21.2601 113.38724H21.2601"/>
<path transform="matrix(1.00005,0,0,-1.00005,46.035348,171.88478)" stroke-width=".3985" stroke-linecap="round" stroke-miterlimit="10" stroke-linejoin="miter" fill="none" stroke="#000000" d="M-43.93764-113.38724 43.93764-104.73474"/>
<path transform="matrix(1.00005,0,0,-1.00005,46.035348,171.88478)" stroke-width=".3985" stroke-linecap="round" stroke-miterlimit="10" stroke-linejoin="miter" fill="none" stroke="#000000" d="M-43.93764-113.38724 43.93764-86.73207"/>
<path transform="matrix(1.00005,0,0,-1.00005,46.035348,171.88478)" stroke-width=".3985" stroke-linecap="round" stroke-miterlimit="10" stroke-linejoin="miter" fill="none" stroke="#000000" d="M-43.93764-113.38724 43.93764-66.41792"/>
<path transform="matrix(1.00005,0,0,-1.00005,46.035348,171.88478)" stroke-width=".3985" stroke-linecap="round" stroke-miterlimit="10" stroke-linejoin="miter" fill="none" stroke="#000000" d="M-43.93764-113.38724 43.93764-41.26886"/>
<path transform="matrix(1.00005,0,0,-1.00005,46.035348,171.88478)" stroke-width=".3985" stroke-linecap="round" stroke-miterlimit="10" stroke-linejoin="miter" fill="none" stroke="#000000" d="M-43.93764-113.38724 43.93764-6.30293"/>
<path transform="matrix(1.00005,0,0,-1.00005,46.035348,171.88478)" stroke-width=".3985" stroke-linecap="round" stroke-miterlimit="10" stroke-linejoin="miter" fill="none" stroke="#000000" d="M-43.93764-113.38724 43.93764 51.01265"/>
<path transform="matrix(1.00005,0,0,-1.00005,46.035348,171.88478)" stroke-width=".3985" stroke-linecap="round" stroke-miterlimit="10" stroke-linejoin="miter" fill="none" stroke="#000000" d="M-43.93764-113.38724 16.25304 85.04042"/>
<path transform="matrix(1.00005,0,0,-1.00005,46.035348,171.88478)" stroke-width=".3985" stroke-linecap="round" stroke-miterlimit="10" stroke-linejoin="miter" fill="none" stroke="#000000" d="M-43.93764-113.38724-24.39685 85.04042"/>
<path transform="matrix(1.00005,0,0,-1.00005,46.035348,171.88478)" stroke-width=".3985" stroke-linecap="round" stroke-miterlimit="10" stroke-linejoin="miter" fill="none" stroke="#000000" d="M43.93764-113.38724"/>
<path transform="matrix(1.00005,0,0,-1.00005,46.035348,171.88478)" stroke-width=".3985" stroke-linecap="round" stroke-miterlimit="10" stroke-linejoin="miter" fill="none" stroke="#000000" d="M43.93764-95.91052"/>
<path transform="matrix(1.00005,0,0,-1.00005,46.035348,171.88478)" stroke-width=".3985" stroke-linecap="round" stroke-miterlimit="10" stroke-linejoin="miter" fill="none" stroke="#000000" d="M43.93764-76.99089"/>
<path transform="matrix(1.00005,0,0,-1.00005,46.035348,171.88478)" stroke-width=".3985" stroke-linecap="round" stroke-miterlimit="10" stroke-linejoin="miter" fill="none" stroke="#000000" d="M43.93764-54.67192"/>
<path transform="matrix(1.00005,0,0,-1.00005,46.035348,171.88478)" stroke-width=".3985" stroke-linecap="round" stroke-miterlimit="10" stroke-linejoin="miter" fill="none" stroke="#000000" d="M43.93764-25.50804"/>
<path transform="matrix(1.00005,0,0,-1.00005,46.035348,171.88478)" stroke-width=".3985" stroke-linecap="round" stroke-miterlimit="10" stroke-linejoin="miter" fill="none" stroke="#000000" d="M43.93764 18.13846"/>
<path transform="matrix(1.00005,0,0,-1.00005,46.035348,171.88478)" stroke-width=".3985" stroke-linecap="round" stroke-miterlimit="10" stroke-linejoin="miter" fill="none" stroke="#000000" d="M43.93764 70.867"/>
<path transform="matrix(1.00005,0,0,-1.00005,46.035348,171.88478)" stroke-width=".3985" stroke-linecap="round" stroke-miterlimit="10" stroke-linejoin="miter" fill="none" stroke="#000000" d="M-4.47028 82.20555"/>
<path transform="matrix(1.00005,0,0,-1.00005,46.035348,171.88478)" stroke-width=".3985" stroke-linecap="round" stroke-miterlimit="10" stroke-linejoin="miter" fill="none" stroke="#000000" d="M-36.85092 82.20555"/>
<path transform="matrix(1.00005,0,0,-1.00005,46.035348,171.88478)" d="M46.92647-104.73474C46.92647-103.08403 45.58833-101.74591 43.93764-101.74591 42.28693-101.74591 40.9488-103.08403 40.9488-104.73474 40.9488-106.38544 42.28693-107.72357 43.93764-107.72357 45.58833-107.72357 46.92647-106.38544 46.92647-104.73474ZM43.93764-104.73474"/>
<path transform="matrix(1.00005,0,0,-1.00005,46.035348,171.88478)" stroke-width=".3985" stroke-linecap="round" stroke-miterlimit="10" stroke-linejoin="miter" fill="none" stroke="#000000" d="M46.92647-104.73474C46.92647-103.08403 45.58833-101.74591 43.93764-101.74591 42.28693-101.74591 40.9488-103.08403 40.9488-104.73474 40.9488-106.38544 42.28693-107.72357 43.93764-107.72357 45.58833-107.72357 46.92647-106.38544 46.92647-104.73474ZM43.93764-104.73474"/>
<path transform="matrix(1.00005,0,0,-1.00005,46.035348,171.88478)" d="M46.92647-86.73207C46.92647-85.08136 45.58833-83.74324 43.93764-83.74324 42.28693-83.74324 40.9488-85.08136 40.9488-86.73207 40.9488-88.38278 42.28693-89.7209 43.93764-89.7209 45.58833-89.7209 46.92647-88.38278 46.92647-86.73207ZM43.93764-86.73207"/>
<path transform="matrix(1.00005,0,0,-1.00005,46.035348,171.88478)" stroke-width=".3985" stroke-linecap="round" stroke-miterlimit="10" stroke-linejoin="miter" fill="none" stroke="#000000" d="M46.92647-86.73207C46.92647-85.08136 45.58833-83.74324 43.93764-83.74324 42.28693-83.74324 40.9488-85.08136 40.9488-86.73207 40.9488-88.38278 42.28693-89.7209 43.93764-89.7209 45.58833-89.7209 46.92647-88.38278 46.92647-86.73207ZM43.93764-86.73207"/>
<path transform="matrix(1.00005,0,0,-1.00005,46.035348,171.88478)" d="M46.92647-66.41792C46.92647-64.76721 45.58833-63.4291 43.93764-63.4291 42.28693-63.4291 40.9488-64.76721 40.9488-66.41792 40.9488-68.06863 42.28693-69.40675 43.93764-69.40675 45.58833-69.40675 46.92647-68.06863 46.92647-66.41792ZM43.93764-66.41792"/>
<path transform="matrix(1.00005,0,0,-1.00005,46.035348,171.88478)" stroke-width=".3985" stroke-linecap="round" stroke-miterlimit="10" stroke-linejoin="miter" fill="none" stroke="#000000" d="M46.92647-66.41792C46.92647-64.76721 45.58833-63.4291 43.93764-63.4291 42.28693-63.4291 40.9488-64.76721 40.9488-66.41792 40.9488-68.06863 42.28693-69.40675 43.93764-69.40675 45.58833-69.40675 46.92647-68.06863 46.92647-66.41792ZM43.93764-66.41792"/>
<path transform="matrix(1.00005,0,0,-1.00005,46.035348,171.88478)" d="M46.92647-41.26886C46.92647-39.61816 45.58833-38.28003 43.93764-38.28003 42.28693-38.28003 40.9488-39.61816 40.9488-41.26886 40.9488-42.91957 42.28693-44.25769 43.93764-44.25769 45.58833-44.25769 46.92647-42.91957 46.92647-41.26886ZM43.93764-41.26886"/>
<path transform="matrix(1.00005,0,0,-1.00005,46.035348,171.88478)" stroke-width=".3985" stroke-linecap="round" stroke-miterlimit="10" stroke-linejoin="miter" fill="none" stroke="#000000" d="M46.92647-41.26886C46.92647-39.61816 45.58833-38.28003 43.93764-38.28003 42.28693-38.28003 40.9488-39.61816 40.9488-41.26886 40.9488-42.91957 42.28693-44.25769 43.93764-44.25769 45.58833-44.25769 46.92647-42.91957 46.92647-41.26886ZM43.93764-41.26886"/>
<path transform="matrix(1.00005,0,0,-1.00005,46.035348,171.88478)" d="M46.92647-6.30293C46.92647-4.65222 45.58833-3.3141 43.93764-3.3141 42.28693-3.3141 40.9488-4.65222 40.9488-6.30293 40.9488-7.95364 42.28693-9.29176 43.93764-9.29176 45.58833-9.29176 46.92647-7.95364 46.92647-6.30293ZM43.93764-6.30293"/>
<path transform="matrix(1.00005,0,0,-1.00005,46.035348,171.88478)" stroke-width=".3985" stroke-linecap="round" stroke-miterlimit="10" stroke-linejoin="miter" fill="none" stroke="#000000" d="M46.92647-6.30293C46.92647-4.65222 45.58833-3.3141 43.93764-3.3141 42.28693-3.3141 40.9488-4.65222 40.9488-6.30293 40.9488-7.95364 42.28693-9.29176 43.93764-9.29176 45.58833-9.29176 46.92647-7.95364 46.92647-6.30293ZM43.93764-6.30293"/>
<path transform="matrix(1.00005,0,0,-1.00005,46.035348,171.88478)" d="M46.92647 51.01265C46.92647 52.66336 45.58833 54.00148 43.93764 54.00148 42.28693 54.00148 40.9488 52.66336 40.9488 51.01265 40.9488 49.36194 42.28693 48.02382 43.93764 48.02382 45.58833 48.02382 46.92647 49.36194 46.92647 51.01265ZM43.93764 51.01265"/>
<path transform="matrix(1.00005,0,0,-1.00005,46.035348,171.88478)" stroke-width=".3985" stroke-linecap="round" stroke-miterlimit="10" stroke-linejoin="miter" fill="none" stroke="#000000" d="M46.92647 51.01265C46.92647 52.66336 45.58833 54.00148 43.93764 54.00148 42.28693 54.00148 40.9488 52.66336 40.9488 51.01265 40.9488 49.36194 42.28693 48.02382 43.93764 48.02382 45.58833 48.02382 46.92647 49.36194 46.92647 51.01265ZM43.93764 51.01265"/>
<path transform="matrix(1.00005,0,0,-1.00005,46.035348,171.88478)" d="M19.24187 85.04042C19.24187 86.69113 17.90375 88.02925 16.25304 88.02925 14.60233 88.02925 13.2642 86.69113 13.2642 85.04042 13.2642 83.38971 14.60233 82.05159 16.25304 82.05159 17.90375 82.05159 19.24187 83.38971 19.24187 85.04042ZM16.25304 85.04042"/>
<path transform="matrix(1.00005,0,0,-1.00005,46.035348,171.88478)" stroke-width=".3985" stroke-linecap="round" stroke-miterlimit="10" stroke-linejoin="miter" fill="none" stroke="#000000" d="M19.24187 85.04042C19.24187 86.69113 17.90375 88.02925 16.25304 88.02925 14.60233 88.02925 13.2642 86.69113 13.2642 85.04042 13.2642 83.38971 14.60233 82.05159 16.25304 82.05159 17.90375 82.05159 19.24187 83.38971 19.24187 85.04042ZM16.25304 85.04042"/>
<path transform="matrix(1.00005,0,0,-1.00005,46.035348,171.88478)" d="M-21.40802 85.04042C-21.40802 86.69113-22.74615 88.02925-24.39685 88.02925-26.04756 88.02925-27.38568 86.69113-27.38568 85.04042-27.38568 83.38971-26.04756 82.05159-24.39685 82.05159-22.74615 82.05159-21.40802 83.38971-21.40802 85.04042ZM-24.39685 85.04042"/>
<path transform="matrix(1.00005,0,0,-1.00005,46.035348,171.88478)" stroke-width=".3985" stroke-linecap="round" stroke-miterlimit="10" stroke-linejoin="miter" fill="none" stroke="#000000" d="M-21.40802 85.04042C-21.40802 86.69113-22.74615 88.02925-24.39685 88.02925-26.04756 88.02925-27.38568 86.69113-27.38568 85.04042-27.38568 83.38971-26.04756 82.05159-24.39685 82.05159-22.74615 82.05159-21.40802 83.38971-21.40802 85.04042ZM-24.39685 85.04042"/>
</svg>
