<svg xmlns="http://www.w3.org/2000/svg" xmlns:xlink="http://www.w3.org/1999/xlink" version="1.1" width="217" height="170" viewBox="0 0 217 170">
<defs>
<path id="font_1_1" d="M.31098939 .36265565H.42999269C.4149933 .30274964 .3929901 .2118988 .3929901 .13302613 .3929901 .09309387 .397995 .06613159 .4039917 .044174196 .41999818-.0057678224 .43299867-.009765625 .44898988-.009765625 .47200013-.009765625 .49598695 .011230469 .49598695 .035186769 .49598695 .043182374 .49398805 .047164918 .48799134 .057159425 .46899415 .09408569 .45098878 .15100098 .45098878 .23286438 .45098878 .25183106 .45098878 .29177857 .46499635 .36265565H.58999636C.60798647 .36265565 .6159973 .36265565 .6269989 .37065126 .6409912 .380661 .6439972 .39665223 .6439972 .4016571 .6439972 .43066407 .6179962 .43066407 .6009979 .43066407H.22399903C.18299866 .43066407 .15499878 .42166139 .10998535 .37965394 .083999637 .35665895 .04499817 .30274964 .04499817 .2937622 .04499817 .28178407 .057998659 .28178407 .06199646 .28178407 .07299805 .28178407 .07398987 .28378297 .07998657 .2927704 .1309967 .36265565 .19299317 .36265565 .21499634 .36265565H.27598573C.24499512 .25283814 .19099427 .13502503 .16099549 .07511902 .15499878 .062149049 .14498902 .04118347 .14199829 .03718567 .14099121 .033187868 .13899231 .029190064 .13899231 .022201539 .13899231 .006225586 .15098572-.009765625 .17399597-.009765625 .21398926-.009765625 .22499085 .035186769 .24899292 .12504578L.31098939 .36265565Z"/>
<path id="font_2_2" d="M.272995 .33428956C.35099793 .33428956 .40699769 .2803192 .40699769 .1733551 .40699769 .04940796 .33499146 .012466431 .2769928 .012466431 .23699951 .012466431 .14898682 .0234375 .10699463 .082351688 .1539917 .084350589 .16499329 .11735535 .16499329 .13835144 .16499329 .17034912 .14099121 .19335938 .10998535 .19335938 .08198547 .19335938 .053985597 .17634583 .053985597 .13534546 .053985597 .041412355 .1579895-.01953125 .2789917-.01953125 .41799928-.01953125 .5139923 .07336426 .5139923 .1733551 .5139923 .2513275 .44999696 .32929994 .33999635 .35229493 .44499208 .39024354 .48298646 .4650879 .48298646 .5260773 .48298646 .60505679 .3919983 .6640625 .2809906 .6640625 .16999817 .6640625 .084991458 .61006167 .084991458 .5300751 .084991458 .49606324 .10699463 .47706605 .13699341 .47706605 .16799927 .47706605 .18798828 .5000763 .18798828 .5280762 .18798828 .5570679 .16799927 .57806399 .13699341 .5800781 .17199707 .62405398 .24099732 .63505557 .27799989 .63505557 .32299806 .63505557 .38598634 .6130676 .38598634 .5260773 .38598634 .48406983 .37199403 .43814088 .34599305 .4072113 .31298829 .36927796 .2849884 .3672943 .23498535 .36428834 .20999146 .3623047 .20799256 .3623047 .20298767 .3612976 .20098877 .3612976 .19299317 .3592987 .19299317 .34829713 .19299317 .33428956 .20199585 .33428956 .21899414 .33428956H.272995Z"/>
<path id="font_2_1" d="M.5049896 .18203736H.47099305C.46798707 .16001892 .45799256 .100997928 .44499208 .09098816 .43699647 .084991458 .3600006 .084991458 .34599305 .084991458H.1619873C.2669983 .17803955 .3019867 .20603943 .3619995 .25306703 .43598939 .312088 .5049896 .374115 .5049896 .46914674 .5049896 .5900879 .39898683 .6640625 .2709961 .6640625 .14698792 .6640625 .06298828 .57710269 .06298828 .4851532 .06298828 .43414308 .10598755 .42915345 .115997318 .42915345 .13999939 .42915345 .16899109 .44615174 .16899109 .48214723 .16899109 .5001526 .1619873 .53515627 .10998535 .53515627 .14099121 .6060791 .20899964 .62805178 .2559967 .62805178 .35598756 .62805178 .4079895 .5501404 .4079895 .46914674 .4079895 .38212586 .34599305 .3130951 .31399537 .27708436L.07299805 .038986207C.06298828 .02999878 .06298828 .027999878 .06298828 0H.47499085L.5049896 .18203736Z"/>
<path id="font_3_1" d="M.2649994 .37265016H.37799073C.34498597 .22489929 .33599855 .18196106 .33599855 .11508179 .33599855 .100097659 .33599855 .073150638 .34399415 .03919983 .35398866-.0047454836 .36499024-.0107421879 .37998963-.0107421879 .3999939-.0107421879 .42099 .007247925 .42099 .02722168 .42099 .033218385 .42099 .035202028 .4149933 .049179079 .38598634 .12106323 .38598634 .18595886 .38598634 .21391297 .38598634 .26683045 .3929901 .32073976 .4039917 .37265016H.5179901C.5309906 .37265016 .5669861 .37265016 .5669861 .406662 .5669861 .43066407 .54599 .43066407 .5269928 .43066407H.19198609C.16999817 .43066407 .13198853 .43066407 .08799744 .38365174 .052993776 .34469605 .026992798 .29878236 .026992798 .29379273 .026992798 .29278565 .026992798 .28379823 .038986207 .28379823 .04699707 .28379823 .04899597 .28779603 .054992677 .29577638 .10398865 .37265016 .1619873 .37265016 .18199158 .37265016H.23899842C.20698548 .25186158 .15299988 .13105774 .11099243 .04020691 .102996829 .025222779 .102996829 .023223877 .102996829 .016235352 .102996829-.002746582 .11898804-.0107421879 .13198853-.0107421879 .1619873-.0107421879 .16999817 .017242432 .18199158 .05418396 .19599915 .100097659 .19599915 .10209656 .20899964 .15202332L.2649994 .37265016Z"/>
<path id="font_4_1" d="M.6589966 .23046875C.6759949 .23046875 .69400027 .23046875 .69400027 .25045777 .69400027 .27046205 .6759949 .27046205 .6589966 .27046205H.117996219C.100997928 .27046205 .08299255 .27046205 .08299255 .25045777 .08299255 .23046875 .100997928 .23046875 .117996219 .23046875H.6589966Z"/>
<path id="font_5_1" d="M.2939911 .64004519C.2939911 .66400149 .2939911 .6660156 .2709961 .6660156 .20899964 .60227969 .12098694 .60227969 .08898926 .60227969V.57128909C.10899353 .57128909 .16799927 .57128909 .21998596 .5972748V.07902527C.21998596 .042999269 .21699524 .0309906 .1269989 .0309906H.09498596V0C.12998963 .0029907227 .21699524 .0029907227 .25698854 .0029907227 .29699708 .0029907227 .38398744 .0029907227 .4189911 0V.0309906H.3869934C.29699708 .0309906 .2939911 .041992189 .2939911 .07902527V.64004519Z"/>
<path id="font_5_2" d="M.1269989 .07699585 .23298645 .18003845C.3889923 .31811524 .44898988 .3721466 .44898988 .47216798 .44898988 .5860901 .35899354 .6660156 .23699951 .6660156 .12399292 .6660156 .049987794 .57411196 .049987794 .48516847 .049987794 .4291687 .099990848 .4291687 .102996829 .4291687 .11999512 .4291687 .15499878 .44117738 .15499878 .48217774 .15499878 .5081787 .13699341 .5341797 .101989749 .5341797 .09399414 .5341797 .09199524 .5341797 .08898926 .5331726 .11199951 .59806826 .1659851 .63500979 .22399903 .63500979 .31498719 .63500979 .35798646 .5541382 .35798646 .47216798 .35798646 .39215089 .30799867 .31311036 .25299073 .25108338L.06098938 .036987306C.049987794 .025985718 .049987794 .023986817 .049987794 0H.42099L.44898988 .17404175H.42399598C.4189911 .14402771 .4119873 .1000061 .4019928 .084991458 .394989 .07699585 .32899476 .07699585 .30699159 .07699585H.1269989Z"/>
<path id="font_5_3" d="M.2899933 .35191346C.37199403 .37893678 .42999269 .4490509 .42999269 .52809146 .42999269 .6100464 .34199525 .6660156 .24598694 .6660156 .14498902 .6660156 .068984989 .60606387 .068984989 .53009036 .068984989 .49710084 .09098816 .47808839 .11999512 .47808839 .15098572 .47808839 .17098999 .50009158 .17098999 .5290985 .17098999 .57910159 .12399292 .57910159 .10899353 .57910159 .13999939 .62802127 .20599365 .64100649 .24198914 .64100649 .2829895 .64100649 .33799745 .6190338 .33799745 .5290985 .33799745 .51708987 .33599855 .45906068 .30999757 .4149933 .27999879 .36691285 .24598694 .36390687 .22099304 .36291505 .21299744 .36190797 .18899536 .35990907 .18199158 .35990907 .17399597 .35890199 .16699219 .35791017 .16699219 .3479004 .16699219 .33691407 .17399597 .33691407 .19099427 .33691407H.23498535C.31698609 .33691407 .35398866 .2686615 .35398866 .17037964 .35398866 .034469606 .2849884 .0055389406 .24099732 .0055389406 .19799805 .0055389406 .12298584 .022491456 .08799744 .08137512 .12298584 .07637024 .1539917 .09837341 .1539917 .1363678 .1539917 .17237854 .1269989 .19238281 .09799194 .19238281 .07398987 .19238281 .041992189 .17837525 .041992189 .1343689 .041992189 .043441774 .1349945-.022460938 .24398804-.022460938 .3659973-.022460938 .45700074 .06838989 .45700074 .17037964 .45700074 .252594 .3939972 .33088685 .2899933 .35191346Z"/>
<path id="font_3_2" d="M.33399964 .30233766C.33999635 .32835389 .36299134 .42037965 .43299867 .42037965 .43798829 .42037965 .46199037 .42037965 .48298646 .40734864 .45498658 .402359 .43499757 .37734986 .43499757 .35334779 .43499757 .33735658 .44599916 .31835938 .47299195 .31835938 .49499513 .31835938 .5269928 .3363495 .5269928 .37635804 .5269928 .42837525 .46798707 .4423828 .43399049 .4423828 .37599183 .4423828 .34098817 .38935853 .32899476 .36634828 .3039856 .43237306 .25 .4423828 .22099304 .4423828 .116989139 .4423828 .05999756 .3133545 .05999756 .28834535 .05999756 .27833558 .069992069 .27833558 .07199097 .27833558 .07998657 .27833558 .08299255 .28033448 .084991458 .28933717 .11898804 .39535523 .18499756 .42037965 .21899414 .42037965 .23799134 .42037965 .272995 .4113617 .272995 .35334779 .272995 .32235719 .2559967 .25532533 .21899414 .11528015 .20298767 .053268434 .16799927 .011245728 .12399292 .011245728 .117996219 .011245728 .09498596 .011245728 .07398987 .024276734 .09899902 .029266358 .12098694 .05027771 .12098694 .07827759 .12098694 .105270389 .09899902 .11328125 .083999637 .11328125 .053985597 .11328125 .0289917 .08728027 .0289917 .055267335 .0289917 .009246826 .07899475-.0107421879 .12298584-.0107421879 .18899536-.0107421879 .22499085 .059280397 .22799683 .0652771 .23999024 .028274537 .27598573-.0107421879 .33599855-.0107421879 .43899537-.0107421879 .49598695 .118270877 .49598695 .14328003 .49598695 .1532898 .4869995 .1532898 .48399354 .1532898 .47499085 .1532898 .47299195 .14929199 .47099305 .14228821 .43798829 .03527832 .36999513 .011245728 .33799745 .011245728 .29899598 .011245728 .2829895 .043273927 .2829895 .07727051 .2829895 .09927368 .2889862 .121276859 .2999878 .16529846L.33399964 .30233766Z"/>
<path id="font_3_3" d="M.48599244 .38136292C.48999024 .39537049 .48999024 .39736939 .48999024 .40437318 .48999024 .42237855 .47599793 .43138124 .46099855 .43138124 .45098878 .43138124 .43499757 .42536927 .42599488 .41036988 .42399598 .405365 .41600038 .37435914 .4119873 .35635377 .40499879 .33035279 .397995 .30334474 .3919983 .27633668L.34700013 .09628296C.34298707 .08126831 .2999878 .011245728 .23399353 .011245728 .18299866 .011245728 .17199707 .055267335 .17199707 .0922699 .17199707 .1382904 .18899536 .20030213 .22299195 .28833009 .23899842 .3293457 .24299622 .3403473 .24299622 .36035157 .24299622 .405365 .21099854 .4423828 .16099549 .4423828 .06599426 .4423828 .0289917 .29733277 .0289917 .28833009 .0289917 .27833558 .038986207 .27833558 .040985109 .27833558 .050994874 .27833558 .051986696 .28033448 .056991579 .29634095 .083999637 .3903656 .12399292 .42037965 .1579895 .42037965 .1659851 .42037965 .18299866 .42037965 .18299866 .3883667 .18299866 .36335755 .17298889 .3373413 .1659851 .31834413 .12599182 .21231079 .10798645 .1552887 .10798645 .10827637 .10798645 .019256592 .17098999-.0107421879 .22999573-.0107421879 .2689972-.0107421879 .30299378 .0062561037 .33099366 .03425598 .31799317-.017745972 .30599977-.06674194 .2659912-.11973572 .23999024-.15385437 .20199585-.18309021 .1559906-.18309021 .14199829-.18309021 .09700012-.18005371 .07998657-.14074707 .09599304-.14074707 .10899353-.14074707 .12298584-.1287384 .1329956-.11973572 .14299011-.10673523 .14299011-.08773804 .14299011-.056747438 .115997318-.052734376 .10598755-.052734376 .08299255-.052734376 .049987794-.068740848 .049987794-.11773682 .049987794-.16796875 .09399414-.20507813 .1559906-.20507813 .25898744-.20507813 .3619995-.11373901 .3899994-.00074768069L.48599244 .38136292Z"/>
</defs>
<path transform="matrix(1.00002,0,0,-1.00006,18.592103,166.5352)" stroke-width=".19925" stroke-linecap="butt" stroke-miterlimit="10" stroke-linejoin="miter" fill="none" stroke="#929292" d="M0 38.93163V41.76654M32.37886 38.93163V41.76654M64.75772 38.93163V41.76654M97.1366 38.93163V41.76654M129.51546 38.93163V41.76654M161.89434 38.93163V41.76654M194.2732 38.93163V41.76654"/>
<path transform="matrix(1.00002,0,0,-1.00006,18.592103,166.5352)" stroke-width=".19925" stroke-linecap="butt" stroke-miterlimit="10" stroke-linejoin="miter" fill="none" stroke="#929292" d="M64.75896 38.2231V42.47505M129.51795 38.2231V42.47505M194.27693 38.2231V42.47505"/>
<path transform="matrix(1.00002,0,0,-1.00006,18.592103,166.5352)" stroke-width=".19925" stroke-linecap="butt" stroke-miterlimit="10" stroke-linejoin="miter" fill="none" stroke="#929292" d="M-2.12602 0H2.12602M-2.12602 80.69818H2.12602M-2.12602 121.04727H2.12602M-2.12602 161.39636H2.12602"/>
<path transform="matrix(1.00002,0,0,-1.00006,18.592103,166.5352)" stroke-width=".3985" stroke-linecap="butt" stroke-miterlimit="10" stroke-linejoin="miter" fill="none" stroke="#000000" d="M0 40.34909H192.28395"/>
<path transform="matrix(1.00002,0,0,-1.00006,210.8799,126.18369)" d="M1.99252 0-1.19551 1.59401 0 0-1.19551-1.59401"/>
<path transform="matrix(1.00002,0,0,-1.00006,18.592103,166.5352)" stroke-width=".3985" stroke-linecap="butt" stroke-miterlimit="10" stroke-linejoin="miter" fill="none" stroke="#000000" d="M0 0V159.40384"/>
<path transform="matrix(0,-1.00006,-1.00002,-0,18.592103,7.121811)" d="M1.99252 0-1.19551 1.59401 0 0-1.19551-1.59401"/>
<use data-text="&#x03c0;" xlink:href="#font_1_1" transform="matrix(6.97394,0,0,-6.9742186,80.898349,134.83232)"/>
<path transform="matrix(1.00002,0,0,-1.00006,-46.589208,-7.8432486)" stroke-width=".3985" stroke-linecap="butt" stroke-miterlimit="10" stroke-linejoin="miter" fill="none" stroke="#000000" d="M127.485-144.099H132.394"/>
<use data-text="3" xlink:href="#font_2_2" transform="matrix(6.97394,0,0,-6.9742186,81.367359,142.19075)"/>
<use data-text="2" xlink:href="#font_2_1" transform="matrix(6.97394,0,0,-6.9742186,143.6726,136.3244)"/>
<use data-text="&#x03c0;" xlink:href="#font_1_1" transform="matrix(6.97394,0,0,-6.9742186,147.64368,136.3244)"/>
<path transform="matrix(1.00002,0,0,-1.00006,16.185051,-6.351158)" stroke-width=".3985" stroke-linecap="butt" stroke-miterlimit="10" stroke-linejoin="miter" fill="none" stroke="#000000" d="M127.485-144.099H136.365"/>
<use data-text="3" xlink:href="#font_2_2" transform="matrix(6.97394,0,0,-6.9742186,146.12665,143.68283)"/>
<use data-text="&#x03c0;" xlink:href="#font_3_1" transform="matrix(9.962799,0,0,-9.963197,209.85494,136.11939)"/>
<use data-text="&#x2212;" xlink:href="#font_4_1" transform="matrix(9.962799,0,0,-9.963197,.21573639,169.33037)"/>
<use data-text="1" xlink:href="#font_5_1" transform="matrix(9.962799,0,0,-9.963197,7.964882,169.33037)"/>
<use data-text="1" xlink:href="#font_5_1" transform="matrix(9.962799,0,0,-9.963197,7.9648897,89.04256)"/>
<use data-text="2" xlink:href="#font_5_2" transform="matrix(9.962799,0,0,-9.963197,7.9648897,48.69114)"/>
<use data-text="3" xlink:href="#font_5_3" transform="matrix(9.962799,0,0,-9.963197,7.9648897,8.339706)"/>
<path transform="matrix(1.00002,0,0,-1.00006,18.592103,166.5352)" stroke-width=".99628" stroke-linecap="butt" stroke-miterlimit="10" stroke-linejoin="miter" fill="none" stroke="#0000ff" d="M0 161.39636 .97624 161.30193 1.95251 161.02918 2.92877 160.5797 3.90504 159.94944 4.8813 159.13922 5.85757 158.15631 6.83383 157.00072 7.8101 155.66919 8.78636 154.17226 9.76263 152.51229 10.73888 150.6885 11.71515 148.70737 12.6914 146.57451 13.66768 144.2964 14.64394 141.87223 15.62021 139.31166 16.59647 136.62201 17.57274 133.80402 18.549 130.86743 19.52527 127.81865 20.50151 124.66737 21.47778 121.41283 22.45404 118.0687 23.43031 114.64064 24.40657 111.13591 25.38284 107.56421 26.3591 103.93118 27.33537 100.2457 28.31163 96.51743 29.2879 92.75449 30.26414 88.96327 31.24042 85.15431 32.21667 81.33487 33.19295 77.51543 34.1692 73.70001 35.14548 69.90317 36.12173 66.12973 37.098 62.38937 38.07428 58.68774 39.05054 55.03613 40.0268 51.44508 41.00305 47.91614 41.97932 44.46144 42.95558 41.08908 43.93185 37.80385 44.90811 34.61708 45.88438 31.5328 46.86064 28.55745 47.83691 25.69994 48.81317 22.96669 49.78943 20.36255 50.76569 17.89319 51.74196 15.56425 52.71822 13.38379 53.69449 11.35179 54.67075 9.47395 55.64702 7.75992 56.62328 6.20808 57.59955 4.81927 58.5758 3.6072 59.55206 2.56377 60.52832 1.69707 61.5046 1.00629 62.48085 .49466 63.45712 .1646 64.43338 .0121 65.40965 .04276 66.38591 .2558 67.36218 .64557 68.33844 1.2145 69.31471 1.9674 70.29095 2.89221 71.26723 3.99051 72.24348 5.26553 73.21976 6.70682 74.19603 8.31432 75.17229 10.08241 76.14856 12.01192 77.12482 14.09392 78.10109 16.32442 79.07735 18.70097 80.0536 21.21715 81.02986 23.86406 82.00613 26.63927 82.98239 29.53793 83.95866 32.5488 84.93492 35.66858 85.9112 38.88844 86.88745 42.20514 87.86372 45.60414 88.83998 49.08304 89.81624 52.63457 90.7925 56.24661 91.76877 59.91516 92.74503 63.63051 93.7213 67.38458 94.69756 71.16772 95.67383 74.97101 96.65009 78.78804 97.62636 82.60667 98.60268 86.42532 99.57883 90.2286 100.55516 94.01175 101.53134 97.76503 102.50766 101.47957 103.484 105.1481 104.46016 108.76096 105.4365 112.3133 106.41266 115.79057 107.38899 119.19281 108.36531 122.50789 109.34146 125.72775 110.3178 128.84754 111.29398 131.8584 112.27031 134.75707 113.24663 137.53147 114.2228 140.17919 115.19913 142.69455 116.1753 145.07352 117.15163 147.30242 118.12794 149.38442 119.10411 151.31392 120.08043 153.08202 121.05661 154.68952 122.03294 156.13242 123.00926 157.40583 123.98543 158.50412 124.96176 159.42893 125.93793 160.18103 126.91426 160.75077 127.89058 161.14054 128.86676 161.35358 129.84308 161.38425 130.81925 161.23174 131.79558 160.90167 132.7719 160.39005 133.74806 159.69927 134.7244 158.83258 135.70056 157.78914 136.6769 156.57544 137.65323 155.18904 138.6294 153.63642 139.60572 151.92238 140.58188 150.04454 141.55821 148.01255 142.53453 145.83208 143.5107 143.50475 144.48703 141.03217 145.46321 138.42964 146.43953 135.6964 147.41587 132.83889 148.39203 129.86353 149.36835 126.77925 150.34452 123.59248 151.32085 120.30725 152.29717 116.93489 153.27335 113.4818 154.24967 109.95288 155.22585 106.3602 156.20218 102.70859 157.1785 99.00697 158.15467 95.26662 159.13098 91.49316 160.10715 87.6947 161.08348 83.8809 162.0598 80.06146 163.03598 76.24364 164.01232 72.43306 164.98848 68.64348 165.96482 64.8789 166.94113 61.15063 167.9173 57.46516 168.89362 53.83212 169.86978 50.26125 170.84612 46.75569 171.82245 43.32925 172.79862 39.9835 173.77495 36.72977 174.75112 33.57768 175.72745 30.52892 176.70377 27.59232 177.67993 24.77432 178.65625 22.08467 179.63243 19.52411 180.60875 17.09995 181.58509 14.82182 182.56125 12.68896 183.53759 10.70782 184.51375 8.88484 185.49008 7.22408 186.4664 5.72714 187.44258 4.3948 188.41889 3.24002 189.39507 2.2555 190.3714 1.4469 191.34772 .81664 192.32389 .36717 193.30022 .0944 194.27639 .0016"/>
<use data-text="x" xlink:href="#font_3_2" transform="matrix(9.962799,0,0,-9.963197,203.65882,122.663578)"/>
<use data-text="y" xlink:href="#font_3_3" transform="matrix(9.962799,0,0,-9.963197,22.112175,12.93898)"/>
</svg>
