<svg xmlns="http://www.w3.org/2000/svg" xmlns:xlink="http://www.w3.org/1999/xlink" version="1.1" width="207" height="183" viewBox="0 0 207 183">
<defs>
<path id="font_1_1" d="M.6589966 .23046875C.6759949 .23046875 .69400027 .23046875 .69400027 .25045777 .69400027 .27046205 .6759949 .27046205 .6589966 .27046205H.117996219C.100997928 .27046205 .08299255 .27046205 .08299255 .25045777 .08299255 .23046875 .100997928 .23046875 .117996219 .23046875H.6589966Z"/>
<path id="font_2_3" d="M.1269989 .07699585 .23298645 .18003845C.3889923 .31811524 .44898988 .3721466 .44898988 .47216798 .44898988 .5860901 .35899354 .6660156 .23699951 .6660156 .12399292 .6660156 .049987794 .57411196 .049987794 .48516847 .049987794 .4291687 .099990848 .4291687 .102996829 .4291687 .11999512 .4291687 .15499878 .44117738 .15499878 .48217774 .15499878 .5081787 .13699341 .5341797 .101989749 .5341797 .09399414 .5341797 .09199524 .5341797 .08898926 .5331726 .11199951 .59806826 .1659851 .63500979 .22399903 .63500979 .31498719 .63500979 .35798646 .5541382 .35798646 .47216798 .35798646 .39215089 .30799867 .31311036 .25299073 .25108338L.06098938 .036987306C.049987794 .025985718 .049987794 .023986817 .049987794 0H.42099L.44898988 .17404175H.42399598C.4189911 .14402771 .4119873 .1000061 .4019928 .084991458 .394989 .07699585 .32899476 .07699585 .30699159 .07699585H.1269989Z"/>
<path id="font_3_1" d="M.2649994 .37265016H.37799073C.34498597 .22489929 .33599855 .18196106 .33599855 .11508179 .33599855 .100097659 .33599855 .073150638 .34399415 .03919983 .35398866-.0047454836 .36499024-.0107421879 .37998963-.0107421879 .3999939-.0107421879 .42099 .007247925 .42099 .02722168 .42099 .033218385 .42099 .035202028 .4149933 .049179079 .38598634 .12106323 .38598634 .18595886 .38598634 .21391297 .38598634 .26683045 .3929901 .32073976 .4039917 .37265016H.5179901C.5309906 .37265016 .5669861 .37265016 .5669861 .406662 .5669861 .43066407 .54599 .43066407 .5269928 .43066407H.19198609C.16999817 .43066407 .13198853 .43066407 .08799744 .38365174 .052993776 .34469605 .026992798 .29878236 .026992798 .29379273 .026992798 .29278565 .026992798 .28379823 .038986207 .28379823 .04699707 .28379823 .04899597 .28779603 .054992677 .29577638 .10398865 .37265016 .1619873 .37265016 .18199158 .37265016H.23899842C.20698548 .25186158 .15299988 .13105774 .11099243 .04020691 .102996829 .025222779 .102996829 .023223877 .102996829 .016235352 .102996829-.002746582 .11898804-.0107421879 .13198853-.0107421879 .1619873-.0107421879 .16999817 .017242432 .18199158 .05418396 .19599915 .100097659 .19599915 .10209656 .20899964 .15202332L.2649994 .37265016Z"/>
<path id="font_2_2" d="M.2939911 .64004519C.2939911 .66400149 .2939911 .6660156 .2709961 .6660156 .20899964 .60227969 .12098694 .60227969 .08898926 .60227969V.57128909C.10899353 .57128909 .16799927 .57128909 .21998596 .5972748V.07902527C.21998596 .042999269 .21699524 .0309906 .1269989 .0309906H.09498596V0C.12998963 .0029907227 .21699524 .0029907227 .25698854 .0029907227 .29699708 .0029907227 .38398744 .0029907227 .4189911 0V.0309906H.3869934C.29699708 .0309906 .2939911 .041992189 .2939911 .07902527V.64004519Z"/>
<path id="font_2_1" d="M.45999146 .31976319C.45999146 .39982606 .45498658 .47988893 .41999818 .5539398 .37399293 .65000918 .2919922 .6660156 .25 .6660156 .18998719 .6660156 .116989139 .64001467 .07598877 .54693606 .04399109 .47789 .038986207 .39982606 .038986207 .31976319 .038986207 .24472046 .042999269 .15464783 .083999637 .07859802 .1269989-.0024719239 .19999695-.022460938 .24899292-.022460938 .30299378-.022460938 .3789978-.0014648438 .4229889 .09359741 .45498658 .16265869 .45999146 .2407074 .45999146 .31976319M.24899292-.00047302247C.20999146-.00047302247 .15098572 .024551392 .1329956 .12062073 .12199402 .18066406 .12199402 .2727356 .12199402 .3317871 .12199402 .39582826 .12199402 .46188355 .12998963 .5159149 .14898682 .63500979 .22399903 .64401248 .24899292 .64401248 .28199769 .64401248 .34799195 .6259918 .36698915 .52693179 .3769989 .47088624 .3769989 .39482118 .3769989 .3317871 .3769989 .25672914 .3769989 .18867493 .3659973 .12461853 .35099793 .029556275 .2939911-.00047302247 .24899292-.00047302247Z"/>
<path id="font_2_4" d="M.44898988 .20022583C.44898988 .3193512 .36698915 .41944886 .25898744 .41944886 .21099854 .41944886 .16799927 .40345765 .13198853 .36842347V.5637665C.1519928 .5577698 .18499756 .55078127 .21699524 .55078127 .33999635 .55078127 .4099884 .6417694 .4099884 .6547699 .4099884 .6607666 .40699769 .6657715 .3999939 .6657715 .39898683 .6657715 .39698792 .6657715 .3919983 .66278079 .37199403 .6537781 .32299806 .6337738 .2559967 .6337738 .21598816 .6337738 .16999817 .6407776 .12298584 .6617737 .114990238 .66477969 .11299133 .66477969 .11099243 .66477969 .100997928 .66477969 .100997928 .6567688 .100997928 .6407776V.34439088C.100997928 .32637025 .100997928 .31835938 .114990238 .31835938 .12199402 .31835938 .12399292 .32136537 .12799073 .32736207 .13899231 .3433838 .17599488 .39746095 .25698854 .39746095 .30899049 .39746095 .33399964 .35139466 .34199525 .33337403 .35798646 .29632569 .3600006 .25727845 .3600006 .20722962 .3600006 .17222595 .3600006 .11222839 .33599855 .07035828 .31199647 .031463624 .2749939 .0055389406 .22898865 .0055389406 .1559906 .0055389406 .09899902 .058380128 .08198547 .11723328 .084991458 .1162262 .08799744 .115234378 .09899902 .115234378 .13198853 .115234378 .14898682 .14022827 .14898682 .16423035 .14898682 .18823242 .13198853 .21322632 .09899902 .21322632 .084991458 .21322632 .049987794 .20622254 .049987794 .16023255 .049987794 .07434082 .11898804-.022460938 .23098755-.022460938 .34700013-.022460938 .44898988 .073349 .44898988 .20022583Z"/>
<path id="font_4_85" d="M.33099366-.2400055C.33099366-.23701477 .33099366-.23500061 .31399537-.21800232 .18899536-.0920105 .15699768 .09700012 .15699768 .25 .15699768 .42399598 .19499207 .59799197 .31799317 .72299197 .33099366 .7350006 .33099366 .7369995 .33099366 .73999026 .33099366 .746994 .32699586 .75 .32099916 .75 .31098939 .75 .22099304 .6819916 .1619873 .5549927 .11099243 .44499208 .09899902 .33399964 .09899902 .25 .09899902 .17199707 .10998535 .050994874 .16499329-.06201172 .22499085-.18501282 .31098939-.25 .32099916-.25 .32699586-.25 .33099366-.24700928 .33099366-.2400055Z"/>
<path id="font_4_54" d="M.6100006 .45477296 .58200076 .6796875H.032989503V.64868167H.056991579C.13398743 .64868167 .13598633 .63768008 .13598633 .6016998V.07797241C.13598633 .041992189 .13398743 .0309906 .056991579 .0309906H.032989503V0C.067993167 .0029907227 .1459961 .0029907227 .18499756 .0029907227 .22599793 .0029907227 .31698609 .0029907227 .35299684 0V.0309906H.31999208C.22499085 .031188965 .22499085 .044189454 .22499085 .079193118V.3251953H.31098939C.40699769 .3251953 .4169922 .29318238 .4169922 .20819092H.44198609V.4731903H.4169922C.4169922 .38919068 .40699769 .3561859 .31098939 .3561859H.22499085V.6091919C.22499085 .64167788 .22698975 .64868167 .27398683 .64868167H.3939972C.5439911 .64868167 .56900027 .5926819 .58499148 .4546814L.6100006 .45477296Z"/>
<path id="font_4_86" d="M.2889862 .25C.2889862 .32798768 .27799989 .44898988 .22299195 .56199648 .16299439 .68499758 .07699585 .75 .066986087 .75 .06098938 .75 .056991579 .74598696 .056991579 .73999026 .056991579 .7369995 .056991579 .7350006 .07598877 .71699526 .17399597 .6179962 .23098755 .45899964 .23098755 .25 .23098755 .07899475 .19400025-.09700012 .069992069-.2230072 .056991579-.23500061 .056991579-.23701477 .056991579-.2400055 .056991579-.2460022 .06098938-.25 .066986087-.25 .07699585-.25 .16699219-.18200684 .22599793-.055007936 .2769928 .054992677 .2889862 .16600037 .2889862 .25Z"/>
<path id="font_3_2" d="M.33399964 .30233766C.33999635 .32835389 .36299134 .42037965 .43299867 .42037965 .43798829 .42037965 .46199037 .42037965 .48298646 .40734864 .45498658 .402359 .43499757 .37734986 .43499757 .35334779 .43499757 .33735658 .44599916 .31835938 .47299195 .31835938 .49499513 .31835938 .5269928 .3363495 .5269928 .37635804 .5269928 .42837525 .46798707 .4423828 .43399049 .4423828 .37599183 .4423828 .34098817 .38935853 .32899476 .36634828 .3039856 .43237306 .25 .4423828 .22099304 .4423828 .116989139 .4423828 .05999756 .3133545 .05999756 .28834535 .05999756 .27833558 .069992069 .27833558 .07199097 .27833558 .07998657 .27833558 .08299255 .28033448 .084991458 .28933717 .11898804 .39535523 .18499756 .42037965 .21899414 .42037965 .23799134 .42037965 .272995 .4113617 .272995 .35334779 .272995 .32235719 .2559967 .25532533 .21899414 .11528015 .20298767 .053268434 .16799927 .011245728 .12399292 .011245728 .117996219 .011245728 .09498596 .011245728 .07398987 .024276734 .09899902 .029266358 .12098694 .05027771 .12098694 .07827759 .12098694 .105270389 .09899902 .11328125 .083999637 .11328125 .053985597 .11328125 .0289917 .08728027 .0289917 .055267335 .0289917 .009246826 .07899475-.0107421879 .12298584-.0107421879 .18899536-.0107421879 .22499085 .059280397 .22799683 .0652771 .23999024 .028274537 .27598573-.0107421879 .33599855-.0107421879 .43899537-.0107421879 .49598695 .118270877 .49598695 .14328003 .49598695 .1532898 .4869995 .1532898 .48399354 .1532898 .47499085 .1532898 .47299195 .14929199 .47099305 .14228821 .43798829 .03527832 .36999513 .011245728 .33799745 .011245728 .29899598 .011245728 .2829895 .043273927 .2829895 .07727051 .2829895 .09927368 .2889862 .121276859 .2999878 .16529846L.33399964 .30233766Z"/>
<path id="font_3_3" d="M.48599244 .38136292C.48999024 .39537049 .48999024 .39736939 .48999024 .40437318 .48999024 .42237855 .47599793 .43138124 .46099855 .43138124 .45098878 .43138124 .43499757 .42536927 .42599488 .41036988 .42399598 .405365 .41600038 .37435914 .4119873 .35635377 .40499879 .33035279 .397995 .30334474 .3919983 .27633668L.34700013 .09628296C.34298707 .08126831 .2999878 .011245728 .23399353 .011245728 .18299866 .011245728 .17199707 .055267335 .17199707 .0922699 .17199707 .1382904 .18899536 .20030213 .22299195 .28833009 .23899842 .3293457 .24299622 .3403473 .24299622 .36035157 .24299622 .405365 .21099854 .4423828 .16099549 .4423828 .06599426 .4423828 .0289917 .29733277 .0289917 .28833009 .0289917 .27833558 .038986207 .27833558 .040985109 .27833558 .050994874 .27833558 .051986696 .28033448 .056991579 .29634095 .083999637 .3903656 .12399292 .42037965 .1579895 .42037965 .1659851 .42037965 .18299866 .42037965 .18299866 .3883667 .18299866 .36335755 .17298889 .3373413 .1659851 .31834413 .12599182 .21231079 .10798645 .1552887 .10798645 .10827637 .10798645 .019256592 .17098999-.0107421879 .22999573-.0107421879 .2689972-.0107421879 .30299378 .0062561037 .33099366 .03425598 .31799317-.017745972 .30599977-.06674194 .2659912-.11973572 .23999024-.15385437 .20199585-.18309021 .1559906-.18309021 .14199829-.18309021 .09700012-.18005371 .07998657-.14074707 .09599304-.14074707 .10899353-.14074707 .12298584-.1287384 .1329956-.11973572 .14299011-.10673523 .14299011-.08773804 .14299011-.056747438 .115997318-.052734376 .10598755-.052734376 .08299255-.052734376 .049987794-.068740848 .049987794-.11773682 .049987794-.16796875 .09399414-.20507813 .1559906-.20507813 .25898744-.20507813 .3619995-.11373901 .3899994-.00074768069L.48599244 .38136292Z"/>
</defs>
<path transform="matrix(1.00005,0,0,-1.00002,8.079704,181.43033)" stroke-width=".19925" stroke-linecap="butt" stroke-miterlimit="10" stroke-linejoin="miter" fill="none" stroke="#929292" d="M1.52171 88.74829V91.58307M13.47325 88.74829V91.58307M25.42479 88.74829V91.58307M37.37634 88.74829V91.58307M49.32788 88.74829V91.58307M61.27942 88.74829V91.58307M73.23096 88.74829V91.58307M85.18251 88.74829V91.58307M97.13405 88.74829V91.58307M109.0856 88.74829V91.58307M121.03714 88.74829V91.58307M132.9887 88.74829V91.58307M144.94023 88.74829V91.58307M156.89179 88.74829V91.58307M168.84334 88.74829V91.58307M180.79488 88.74829V91.58307M192.74643 88.74829V91.58307"/>
<path transform="matrix(1.00005,0,0,-1.00002,8.079704,181.43033)" stroke-width=".19925" stroke-linecap="butt" stroke-miterlimit="10" stroke-linejoin="miter" fill="none" stroke="#929292" d="M1.52171 88.03981V92.29153M49.32788 88.03981V92.29153M144.94023 88.03981V92.29153M192.74643 88.03981V92.29153"/>
<path transform="matrix(1.00005,0,0,-1.00002,8.079704,181.43033)" stroke-width=".19925" stroke-linecap="butt" stroke-miterlimit="10" stroke-linejoin="miter" fill="none" stroke="#929292" d="M95.00812 9.4675H99.26001M95.00812 49.81659H99.26001M95.00812 130.51477H99.26001M95.00812 170.86386H99.26001"/>
<path transform="matrix(1.00005,0,0,-1.00002,8.079704,181.43033)" stroke-width=".3985" stroke-linecap="butt" stroke-miterlimit="10" stroke-linejoin="miter" fill="none" stroke="#000000" d="M0 90.16568H192.2756"/>
<path transform="matrix(1.00005,0,0,-1.00002,200.3649,91.26284)" d="M1.99252 0-1.19551 1.59401 0 0-1.19551-1.59401"/>
<path transform="matrix(1.00005,0,0,-1.00002,8.079704,181.43033)" stroke-width=".3985" stroke-linecap="butt" stroke-miterlimit="10" stroke-linejoin="miter" fill="none" stroke="#000000" d="M97.13405 9.4675V168.87134"/>
<path transform="matrix(0,-1.00002,-1.00005,-0,105.218608,12.555603)" d="M1.99252 0-1.19551 1.59401 0 0-1.19551-1.59401"/>
<use data-text="&#x2212;" xlink:href="#font_1_1" transform="matrix(9.963098,0,0,-9.962799,.21730805,103.328769)"/>
<use data-text="2" xlink:href="#font_2_3" transform="matrix(9.963098,0,0,-9.962799,7.9666979,103.328769)"/>
<use data-text="&#x03c0;" xlink:href="#font_3_1" transform="matrix(9.963098,0,0,-9.962799,12.947945,103.328769)"/>
<use data-text="&#x2212;" xlink:href="#font_1_1" transform="matrix(9.963098,0,0,-9.962799,50.516828,102.72075)"/>
<use data-text="&#x03c0;" xlink:href="#font_3_1" transform="matrix(9.963098,0,0,-9.962799,58.266218,102.72075)"/>
<use data-text="&#x03c0;" xlink:href="#font_3_1" transform="matrix(9.963098,0,0,-9.962799,150.00879,101.198719)"/>
<use data-text="2" xlink:href="#font_2_3" transform="matrix(9.963098,0,0,-9.962799,195.32605,103.328769)"/>
<use data-text="&#x03c0;" xlink:href="#font_3_1" transform="matrix(9.963098,0,0,-9.962799,200.30731,103.328769)"/>
<use data-text="&#x2212;" xlink:href="#font_1_1" transform="matrix(9.963098,0,0,-9.962799,81.86039,174.7582)"/>
<use data-text="1" xlink:href="#font_2_2" transform="matrix(9.963098,0,0,-9.962799,89.60978,174.7582)"/>
<use data-text="0" xlink:href="#font_2_1" transform="matrix(9.963098,0,0,-9.962799,94.591327,174.7582)"/>
<use data-text="&#x2212;" xlink:href="#font_1_1" transform="matrix(9.963098,0,0,-9.962799,86.841648,134.40839)"/>
<use data-text="5" xlink:href="#font_2_4" transform="matrix(9.963098,0,0,-9.962799,94.591037,134.40839)"/>
<use data-text="5" xlink:href="#font_2_4" transform="matrix(9.963098,0,0,-9.962799,94.59103,54.12278)"/>
<use data-text="1" xlink:href="#font_2_2" transform="matrix(9.963098,0,0,-9.962799,89.60878,13.7729649)"/>
<use data-text="0" xlink:href="#font_2_1" transform="matrix(9.963098,0,0,-9.962799,94.59033,13.7729649)"/>
<path transform="matrix(1.00005,0,0,-1.00002,8.079704,181.43033)" stroke-width=".99628" stroke-linecap="butt" stroke-miterlimit="10" stroke-linejoin="miter" fill="none" stroke="#0000ff" d="M2.939 2.88875 2.99759 6.43565 3.10394 11.9893 3.21028 16.83685 3.31664 21.10498 3.42299 24.89536 3.52933 28.27824 3.63568 31.31813 3.74203 34.06108 3.84839 36.55222 3.95473 38.81903 4.06108 40.89702 4.16743 42.8015 4.27377 44.55345 4.38013 46.17305 4.48648 47.67406 4.59282 49.07173 4.69917 50.36935 4.80553 51.58145 4.91187 52.71364 5.0182 53.77563 5.12456 54.77307 5.23091 55.70836 5.33725 56.5904 5.4436 57.42157 5.54996 58.20596 5.6563 58.94919 5.76265 59.65288 5.869 60.31865 5.97534 60.95213 6.0817 61.55252 6.18805 62.12387 6.29439 62.66696 6.40074 63.18423 6.5071 63.6765 6.61343 64.14857 6.71979 64.59807 6.82614 65.02739 6.9325 65.43652 7.03883 65.82953 7.14519 66.20477 7.25154 66.56549 7.35786 66.91006 7.46422 67.23932 7.57057 67.55565 7.67691 67.8599 7.78326 68.1512 7.88962 68.42961 7.99596 68.69995 8.10231 68.95657 8.20866 69.20432 8.31502 69.44238 8.42136 69.67236 8.52771 69.89107 8.63406 70.10168 8.7404 70.30505 8.84676 70.50114 8.95311 70.68835 9.05945 70.86751 9.1658 71.04182 9.27216 71.20805 9.3785 71.36784 9.48485 71.52197 9.5912 71.66966 9.69754 71.81087 9.80388 71.94807 9.91023 72.07799 10.01659 72.20387 10.12292 72.3233 10.22928 72.4379 10.33563 72.54926 10.44197 72.65417 10.54832 72.75584 10.65468 72.85027 10.76102 72.94307 10.86737 73.03023 10.97372 73.11415 11.08006 73.19403 11.18642 73.26747 11.29277 73.3393 11.39912 73.40707 11.50546 73.46922 11.61182 73.52974 11.71817 73.58704 11.82451 73.6387 11.93085 73.68712 12.0372 73.7331 12.14354 73.77588 12.2499 73.8146 12.35625 73.85011 12.46259 73.88078 12.56894 73.91063 12.6753 73.93648 12.78163 73.95825 12.88799 73.97763 12.99434 73.99295 13.10068 74.00667 13.20703 74.01636 13.31339 74.0212 13.41972 74.02522H13.52608L13.63243 74.0212 13.73877 74.01636 13.84512 74.00667 13.95148 73.99295 14.05783 73.97763 14.16418 73.95825 14.27051 73.93648 14.37686 73.91063 14.4832 73.8824 14.58955 73.85011 14.6959 73.8146 14.80225 73.77588 14.9086 73.73473 15.01494 73.68712 15.1213 73.6387 15.22766 73.58704 15.334 73.53136 15.44035 73.47084 15.54669 73.40707 15.65305 73.3393 15.7594 73.26747 15.86574 73.19403 15.97209 73.11415 16.07843 73.03023 16.18478 72.94307 16.29115 72.85187 16.39749 72.75584 16.50385 72.65417 16.61017 72.54926 16.71652 72.4387 16.82288 72.32492 16.92921 72.20387 17.03557 72.07959 17.1419 71.94807 17.24826 71.81248 17.35461 71.67046 17.46095 71.52278 17.56732 71.36864 17.67366 71.20888 17.78001 71.04262 17.88637 70.86913 17.9927 70.68918 18.09906 70.50195 18.2054 70.30585 18.31175 70.1033 18.4181 69.89268 18.52444 69.67319 18.63081 69.44319 18.73715 69.20512 18.8435 68.959 18.94984 68.70076 19.05618 68.43204 19.16254 68.15282 19.26888 67.8623 19.37523 67.55807 19.48158 67.24174 19.58792 66.91168 19.69427 66.5679 19.80061 66.2072 19.90698 65.83192 20.01334 65.43976 20.11967 65.02982 20.22603 64.6005 20.33237 64.151 20.43872 63.68051 20.54507 63.18665 20.65141 62.671 20.75777 62.12628 20.8641 61.55495 20.97046 60.95454 21.07683 60.3235 21.18315 59.65852 21.2895 58.95485 21.39584 58.21162 21.5022 57.42723 21.60855 56.58716 21.71489 55.71481 21.82124 54.77951 21.92758 53.78128 22.03394 52.72011 22.14029 51.58954 22.24663 50.37906 22.353 49.08142 22.45934 47.68535 22.56569 46.18274 22.67204 44.56474 22.77838 42.81036 22.88474 40.90991 22.99107 38.83356 23.09743 36.56757 23.20378 34.0764 23.31012 31.33751 23.41647 28.30002 23.5228 24.91232 23.62917 21.12837 23.73552 16.86269 23.84186 12.01997 23.94821 6.46634 24.00664 2.94038"/>
<path transform="matrix(-.016530825,.99987,.9998999,.016530332,11.018861,178.5415)" d="M2.8892 0-1.73352 2.31136 0 0-1.73352-2.31136" fill="#0000ff"/>
<path transform="matrix(.016590829,.99987,.9998999,-.01659033,32.087545,178.48987)" d="M2.8892 0-1.73352 2.31136 0 0-1.73352-2.31136" fill="#0000ff"/>
<path transform="matrix(1.00005,0,0,-1.00002,8.079704,181.43033)" stroke-width=".99628" stroke-linecap="butt" stroke-miterlimit="10" stroke-linejoin="miter" fill="none" stroke="#0000ff" d="M26.8421 177.44261 26.90067 173.89893 27.007 168.34204 27.11336 163.49449 27.21971 159.22637 27.32605 155.43598 27.4324 152.0515 27.53876 149.0132 27.64511 146.27028 27.75145 143.77912 27.8578 141.51232 27.96416 139.43433 28.0705 137.52986 28.17685 135.77791 28.2832 134.1583 28.38954 132.6573 28.4959 131.2596 28.60223 129.96198 28.70857 128.7499 28.81493 127.61769 28.92128 126.55571 29.02762 125.55829 29.13397 124.623 29.24033 123.74097 29.34668 122.90976 29.45302 122.12457 29.55937 121.38216 29.66573 120.67847 29.77206 120.0127 29.87842 119.38084 29.98477 118.77963 30.09111 118.2083 30.19746 117.66519 30.30382 117.14871 30.41016 116.65485 30.51651 116.18277 30.62286 115.73328 30.72922 115.30396 30.83556 114.89482 30.9419 114.50102 31.04825 114.12659 31.15459 113.76585 31.26094 113.4229 31.3673 113.09203 31.47363 112.77489 31.57999 112.47147 31.68634 112.18013 31.79268 111.90012 31.89903 111.6314 32.00539 111.37476 32.11174 111.12703 32.21808 110.88895 32.32443 110.66058 32.43079 110.44028 32.53712 110.22968 32.64348 110.0263 32.74983 109.8302 32.85617 109.64299 32.96252 109.46385 33.06888 109.28952 33.1752 109.12329 33.28156 108.96269 33.38791 108.80937 33.49425 108.6617 33.6006 108.52048 33.70695 108.38329 33.8133 108.25337 33.91965 108.12747 34.026 108.00804 34.13234 107.89345 34.2387 107.78209 34.34505 107.678 34.4514 107.5755 34.55774 107.48108 34.6641 107.38828 34.77045 107.30112 34.87679 107.21721 34.98314 107.13893 35.0895 107.06387 35.19583 106.99205 35.30219 106.92426 35.40854 106.86214 35.51486 106.80162 35.62122 106.74593 35.72757 106.69266 35.83391 106.64424 35.94026 106.59825 36.04662 106.55548 36.15297 106.51672 36.25931 106.48285 36.36566 106.44894 36.47202 106.42072 36.57835 106.39488 36.68471 106.3731 36.79106 106.35373 36.8974 106.3384 37.00375 106.32468 37.1101 106.31499 37.21645 106.31015 37.3228 106.30612H37.42915L37.5355 106.31015 37.64185 106.31499 37.7482 106.32468 37.85452 106.3384 37.96088 106.35373 38.06723 106.3731 38.17357 106.39488 38.27994 106.42072 38.38628 106.44894 38.49263 106.48123 38.59898 106.51672 38.70532 106.55548 38.81168 106.59663 38.91801 106.64424 39.02437 106.69266 39.13072 106.74432 39.23706 106.8 39.34341 106.86052 39.44975 106.92426 39.55612 106.99205 39.66248 107.06387 39.76881 107.13731 39.87517 107.21721 39.9815 107.30112 40.08786 107.38828 40.1942 107.47948 40.30054 107.5755 40.40689 107.67717 40.51323 107.78209 40.6196 107.89264 40.72595 108.00642 40.83229 108.12747 40.93864 108.25337 41.04498 108.38248 41.15134 108.51886 41.25769 108.66089 41.36403 108.80858 41.47038 108.96269 41.57672 109.12248 41.68307 109.28873 41.78943 109.4606 41.89578 109.64218 42.00214 109.8294 42.10847 110.0255 42.21483 110.22804 42.32118 110.43867 42.4275 110.65817 42.53386 110.88817 42.6402 111.1262 42.74655 111.37236 42.8529 111.63058 42.95926 111.8993 43.06561 112.17853 43.17195 112.46904 43.2783 112.77327 43.38466 113.08961 43.491 113.41966 43.59735 113.76343 43.70369 114.12415 43.81004 114.4994 43.9164 114.89159 44.02274 115.30154 44.12909 115.73085 44.23544 116.18036 44.3418 116.65082 44.44815 117.14468 44.55449 117.66035 44.66084 118.20506 44.76717 118.77478 44.87352 119.3768 44.97987 120.00786 45.08621 120.6728 45.19257 121.3765 45.2989 122.11974 45.40526 122.90494 45.51163 123.74419 45.61797 124.61652 45.72432 125.55182 45.83066 126.54845 45.93701 127.61124 46.04337 128.74182 46.1497 129.9523 46.25606 131.24993 46.3624 132.64601 46.46875 134.1486 46.57512 135.7666 46.68146 137.51857 46.78781 139.42465 46.89415 141.501 47.0005 143.7638 47.10684 146.25092 47.21318 148.99384 47.31953 152.03131 47.42587 155.41257 47.53223 159.20298 47.63858 163.46868 47.74492 168.31137 47.85129 173.85938 47.9098 177.39096"/>
<path transform="matrix(-.016540828,-.99987,-.9998999,.016540332,34.923147,3.9841767)" d="M2.8892 0-1.73352 2.31136 0 0-1.73352-2.31136" fill="#0000ff"/>
<path transform="matrix(.016560827,-.99987,-.9998999,-.016560331,55.991888,4.0358278)" d="M2.8892 0-1.73352 2.31136 0 0-1.73352-2.31136" fill="#0000ff"/>
<path transform="matrix(1.00005,0,0,-1.00002,8.079704,181.43033)" stroke-width=".99628" stroke-linecap="butt" stroke-miterlimit="10" stroke-linejoin="miter" fill="none" stroke="#0000ff" d="M50.74524 2.88875 50.80377 6.42355 50.91013 11.9893 51.01646 16.83119 51.12282 21.10175 51.22917 24.89536 51.33551 28.27824 51.44186 31.31572 51.54822 34.05865 51.65456 36.55142 51.76091 38.81903 51.86726 40.89702 51.9736 42.79907 52.07996 44.55345 52.1863 46.17305 52.29263 47.67406 52.39899 49.07173 52.50534 50.36935 52.61168 51.58145 52.71803 52.71364 52.82439 53.77563 52.93073 54.77307 53.03708 55.70836 53.14343 56.5904 53.24979 57.42157 53.35612 58.20677 53.46248 58.94919 53.56883 59.65288 53.67517 60.31865 53.78152 60.95213 53.88788 61.55173 53.99422 62.12387 54.10057 62.66696 54.20692 63.18262 54.31326 63.6765 54.4196 64.14857 54.52596 64.59807 54.63231 65.02739 54.73865 65.43652 54.845 65.82953 54.95135 66.20477 55.0577 66.56549 55.16405 66.90845 55.2704 67.23932 55.37674 67.55565 55.4831 67.8599 55.58945 68.1512 55.69579 68.42961 55.80214 68.69995 55.9085 68.95657 56.01485 69.20432 56.12119 69.44319 56.22754 69.67236 56.3339 69.89107 56.44023 70.10168 56.54659 70.30505 56.65294 70.50114 56.75926 70.68835 56.86562 70.86751 56.97197 71.04182 57.07831 71.20805 57.18466 71.36784 57.29102 71.52197 57.39735 71.66966 57.50371 71.81087 57.61006 71.94807 57.71642 72.07799 57.82275 72.20387 57.92911 72.3233 58.03546 72.4379 58.1418 72.54926 58.24815 72.65417 58.3545 72.75584 58.46085 72.85027 58.5672 72.94307 58.67355 73.03023 58.77989 73.11415 58.88625 73.19243 58.9926 73.26747 59.09894 73.3393 59.20528 73.40707 59.31163 73.46922 59.41798 73.52974 59.52432 73.58543 59.63068 73.6387 59.73703 73.68712 59.84337 73.7331 59.94972 73.77588 60.05608 73.8146 60.16241 73.8485 60.26877 73.8824 60.37512 73.91063 60.48146 73.93648 60.58781 73.95825 60.69417 73.97763 60.80052 73.99295 60.90686 74.00667 61.01321 74.01636 61.11957 74.0212 61.2259 74.02522H61.33226L61.4386 74.0212 61.54494 74.01636 61.65129 74.00667 61.75763 73.99295 61.86398 73.97763 61.97034 73.95825 62.07669 73.93648 62.18304 73.91063 62.28938 73.8824 62.39574 73.85011 62.50209 73.8146 62.60843 73.77588 62.71478 73.73473 62.82112 73.68712 62.92747 73.6387 63.03383 73.58704 63.14017 73.53136 63.24652 73.47084 63.35287 73.40707 63.45923 73.3393 63.56558 73.26747 63.6719 73.19403 63.77826 73.11415 63.8846 73.03023 63.99095 72.94307 64.0973 72.85187 64.20364 72.75584 64.31 72.65417 64.41634 72.54926 64.5227 72.4387 64.62906 72.32492 64.7354 72.20387 64.84175 72.07959 64.94809 71.94807 65.05444 71.81248 65.1608 71.67046 65.26714 71.52278 65.37349 71.36864 65.47983 71.20888 65.58618 71.04262 65.69255 70.87073 65.79889 70.68918 65.90524 70.50195 66.01157 70.30585 66.11792 70.1033 66.22427 69.89268 66.33061 69.67319 66.43697 69.44319 66.5433 69.20512 66.64966 68.95819 66.75603 68.70076 66.86237 68.43204 66.96872 68.15282 67.07506 67.8607 67.18141 67.55807 67.28777 67.24174 67.3941 66.91168 67.50046 66.5679 67.6068 66.2072 67.71315 65.83192 67.8195 65.43976 67.92584 65.02982 68.03221 64.6005 68.13855 64.151 68.2449 63.68051 68.35124 63.18665 68.45758 62.671 68.56393 62.12628 68.67027 61.55656 68.77663 60.95535 68.88298 60.3235 68.98932 59.65773 69.09567 58.95485 69.20203 58.21162 69.30838 57.4264 69.41473 56.58716 69.52107 55.71481 69.62743 54.77951 69.73376 53.78288 69.84012 52.72011 69.94647 51.58871 70.05281 50.37906 70.15916 49.079 70.2655 47.68535 70.37186 46.18274 70.47823 44.56474 70.58456 42.81279 70.6909 40.90991 70.79724 38.83356 70.9036 36.56757 71.00995 34.08044 71.11629 31.33751 71.22264 28.30002 71.32898 24.91878 71.43533 21.12837 71.54169 16.86269 71.64803 12.01997 71.7544 6.47197 71.81291 2.94038"/>
<path transform="matrix(-.016560827,.99987,.9998999,.016560331,58.827489,178.5415)" d="M2.8892 0-1.73352 2.31136 0 0-1.73352-2.31136" fill="#0000ff"/>
<path transform="matrix(.016560827,.99987,.9998999,-.016560331,79.89619,178.48987)" d="M2.8892 0-1.73352 2.31136 0 0-1.73352-2.31136" fill="#0000ff"/>
<path transform="matrix(1.00005,0,0,-1.00002,8.079704,181.43033)" stroke-width=".99628" stroke-linecap="butt" stroke-miterlimit="10" stroke-linejoin="miter" fill="none" stroke="#0000ff" d="M74.64844 177.43212 74.70695 173.89568 74.81331 168.34204 74.91966 163.49048 75.026 159.22153 75.13235 155.43437 75.23871 152.0515 75.34505 149.00998 75.4514 146.27028 75.55775 143.77912 75.6641 141.50827 75.77043 139.43354 75.87679 137.52986 75.98314 135.77791 76.08948 134.1583 76.19583 132.65245 76.30219 131.2588 76.40852 129.95957 76.51488 128.74909 76.62123 127.61769 76.72757 126.55492 76.83392 125.55829 76.94028 124.623 77.04663 123.74014 77.15297 122.90897 77.25932 122.12457 77.36568 121.37971 77.47202 120.67847 77.57837 120.01108 77.68472 119.37923 77.79106 118.77882 77.89742 118.20747 78.00375 117.66438 78.11009 117.1463 78.21645 116.65324 78.3228 116.18277 78.42915 115.73328 78.53549 115.30396 78.64185 114.89482 78.7482 114.50102 78.85454 114.12659 78.96089 113.76585 79.06725 113.42126 79.17358 113.09122 79.27994 112.77489 79.38629 112.47147 79.49263 112.18013 79.59898 111.90012 79.70534 111.6314 79.81168 111.37476 79.91803 111.12703 80.02438 110.88817 80.13072 110.65898 80.23706 110.44028 80.34341 110.22968 80.44975 110.0263 80.5561 109.8302 80.66246 109.64218 80.76881 109.46385 80.87515 109.28952 80.9815 109.12329 81.08786 108.96269 81.1942 108.80937 81.30055 108.6617 81.4069 108.52048 81.51324 108.38329 81.6196 108.25337 81.72595 108.12747 81.83229 108.00804 81.93864 107.89345 82.045 107.78209 82.15134 107.67717 82.25769 107.5755 82.36404 107.48108 82.4704 107.38828 82.57672 107.30112 82.68307 107.21721 82.78943 107.13731 82.89577 107.06387 83.00212 106.99205 83.10847 106.92587 83.21481 106.86214 83.32117 106.80162 83.42752 106.74432 83.53386 106.69266 83.64021 106.64424 83.74657 106.59825 83.85292 106.55548 83.95926 106.51672 84.06561 106.48123 84.17197 106.45055 84.2783 106.42072 84.38466 106.39488 84.49101 106.3731 84.59735 106.35373 84.7037 106.3384 84.81006 106.32468 84.91638 106.31499 85.02274 106.31015 85.12909 106.30612H85.23544L85.3418 106.31015 85.44814 106.31499 85.55449 106.32468 85.66083 106.3384 85.76718 106.35373 85.87354 106.3731 85.97987 106.39488 86.08623 106.42072 86.19257 106.44894 86.29892 106.48123 86.40529 106.51672 86.51163 106.55548 86.61798 106.59663 86.72432 106.64424 86.83067 106.69266 86.93703 106.74432 87.04337 106.8 87.14972 106.86214 87.25604 106.92426 87.3624 106.99205 87.46875 107.06387 87.57509 107.13731 87.68146 107.21721 87.7878 107.30112 87.89415 107.38828 88.0005 107.47948 88.10684 107.5755 88.2132 107.67717 88.31953 107.78209 88.42589 107.89264 88.53224 108.00642 88.63858 108.12747 88.74493 108.25337 88.85127 108.38329 88.95764 108.51886 89.064 108.66089 89.17033 108.80858 89.27669 108.96269 89.38303 109.12248 89.48936 109.28873 89.59572 109.46222 89.70206 109.64218 89.80841 109.8294 89.91475 110.0255 90.0211 110.22804 90.12747 110.43867 90.23381 110.65817 90.34016 110.88817 90.4465 111.1262 90.55286 111.37315 90.65921 111.63058 90.76555 111.8993 90.8719 112.17853 90.97824 112.47064 91.0846 112.77327 91.19096 113.08961 91.29729 113.41966 91.40366 113.76424 91.51 114.12415 91.61635 114.4994 91.7227 114.89241 91.82903 115.30154 91.93538 115.73085 92.04172 116.18036 92.14807 116.65082 92.25443 117.14468 92.36076 117.66197 92.46713 118.20506 92.57347 118.77641 92.67982 119.3768 92.78618 120.00867 92.89252 120.67361 92.99887 121.3765 93.10521 122.11974 93.21156 122.90494 93.31792 123.73611 93.42426 124.61815 93.53061 125.55345 93.63695 126.55006 93.74332 127.61124 93.84967 128.74263 93.95601 129.9531 94.06236 131.25235 94.16869 132.64842 94.27504 134.14942 94.3814 135.76982 94.48773 137.52098 94.59409 139.42465 94.70042 141.501 94.8068 143.7638 94.91315 146.25495 95.01949 148.99626 95.12584 152.03131 95.23218 155.41904 95.33853 159.20298 95.44489 163.47673 95.55122 168.32025 95.65758 173.86502 95.716 177.39096"/>
<path transform="matrix(-.016560827,-.99987,-.9998999,.016560331,82.73189,3.9946748)" d="M2.8892 0-1.73352 2.31136 0 0-1.73352-2.31136" fill="#0000ff"/>
<path transform="matrix(.016590829,-.99987,-.9998999,-.01659033,103.80049,4.0358278)" d="M2.8892 0-1.73352 2.31136 0 0-1.73352-2.31136" fill="#0000ff"/>
<path transform="matrix(1.00005,0,0,-1.00002,8.079704,181.43033)" stroke-width=".99628" stroke-linecap="butt" stroke-miterlimit="10" stroke-linejoin="miter" fill="none" stroke="#0000ff" d="M98.55138 2.88875 98.60995 6.43243 98.71631 11.9893 98.82266 16.83685 98.92902 21.10498 99.03535 24.89536 99.14171 28.27824 99.24805 31.31813 99.3544 34.06108 99.46075 36.55222 99.5671 38.81903 99.67345 40.89702 99.7798 42.8015 99.88615 44.55345 99.99251 46.17305 100.09885 47.67647 100.2052 49.07173 100.31155 50.3718 100.41791 51.58145 100.52425 52.71364 100.6306 53.77563 100.73695 54.77307 100.8433 55.70836 100.94966 56.5912 101.056 57.4224 101.16235 58.20677 101.2687 58.94919 101.37506 59.65288 101.4814 60.32025 101.58774 60.95213 101.69409 61.55252 101.80045 62.12387 101.9068 62.66696 102.01314 63.18423 102.11949 63.6765 102.22585 64.14857 102.3322 64.59807 102.43855 65.02739 102.54489 65.43652 102.65125 65.83032 102.7576 66.20477 102.86395 66.56549 102.9703 66.91006 103.07664 67.23932 103.183 67.55646 103.28935 67.8599 103.3957 68.1512 103.50206 68.43123 103.6084 68.69995 103.71475 68.95657 103.82109 69.20432 103.92744 69.44319 104.0338 69.67236 104.14014 69.89107 104.24649 70.10168 104.35284 70.30505 104.4592 70.50114 104.56555 70.68918 104.67189 70.86913 104.77824 71.04182 104.8846 71.20805 104.99095 71.36864 105.09729 71.52278 105.20364 71.66966 105.31 71.81087 105.41635 71.94807 105.5227 72.07799 105.62904 72.20387 105.7354 72.3233 105.84175 72.4379 105.9481 72.54926 106.05446 72.65417 106.16078 72.75584 106.26714 72.85027 106.37349 72.94307 106.47984 73.03023 106.58618 73.11415 106.69254 73.19403 106.79889 73.26747 106.90524 73.3393 107.0116 73.40707 107.11794 73.46922 107.22429 73.53136 107.33064 73.58704 107.437 73.6387 107.54335 73.68712 107.64969 73.7331 107.75604 73.77588 107.8624 73.8146 107.96875 73.8485 108.07509 73.8824 108.18144 73.91063 108.2878 73.93648 108.39413 73.95825 108.50049 73.97763 108.60683 73.99295 108.71318 74.00667 108.81953 74.01636 108.92589 74.0212 109.03224 74.02522H109.13858L109.24495 74.0212 109.35129 74.01636 109.45764 74.00667 109.56398 73.99295 109.67033 73.97763 109.7767 73.95825 109.88304 73.93648 109.9894 73.91063 110.09573 73.8824 110.20209 73.85011 110.30846 73.8146 110.4148 73.77588 110.52115 73.73473 110.62749 73.68712 110.73383 73.6387 110.84018 73.58704 110.94653 73.53136 111.05289 73.46922 111.15923 73.40707 111.26558 73.3393 111.37193 73.26747 111.47827 73.19403 111.58464 73.11415 111.69098 73.03023 111.79733 72.94307 111.90369 72.85187 112.01003 72.75584 112.1164 72.65417 112.22273 72.54926 112.32909 72.4387 112.43544 72.32492 112.54178 72.20387 112.64815 72.07799 112.75449 71.94807 112.86084 71.81248 112.96718 71.67046 113.07352 71.52278 113.17989 71.36864 113.28622 71.20888 113.39258 71.04262 113.49893 70.86913 113.60527 70.68918 113.71164 70.50114 113.81798 70.30505 113.92433 70.1033 114.03069 69.89107 114.13702 69.67236 114.24338 69.44319 114.34973 69.20512 114.45609 68.95819 114.56244 68.69995 114.66878 68.43204 114.77513 68.15282 114.88147 67.8607 114.98784 67.55646 115.0942 67.24014 115.20053 66.91006 115.30687 66.5671 115.41321 66.20639 115.51958 65.83192 115.62593 65.43895 115.73227 65.02818 115.83862 64.59886 115.94496 64.1494 116.05133 63.67891 116.15768 63.18665 116.26402 62.66939 116.37038 62.12547 116.47672 61.55412 116.58308 60.95454 116.68944 60.32106 116.79578 59.65611 116.90213 58.95323 117.00847 58.2108 117.11484 57.42479 117.22119 56.5928 117.32753 55.71239 117.43388 54.77548 117.54022 53.78047 117.64656 52.71608 117.75293 51.58629 117.85927 50.37419 117.96562 49.07657 118.07196 47.6805 118.17831 46.18031 118.28468 44.55989 118.39102 42.80553 118.49738 40.90266 118.60371 38.82791 118.71007 36.55869 118.81644 34.07156 118.92278 31.33023 119.02913 28.29276 119.13547 24.90506 119.24182 21.1187 119.34818 16.85057 119.45453 12.00787 119.56088 6.45908 119.61943 2.9194"/>
<path transform="matrix(-.016540828,.99987,.9998999,.016540332,106.636,178.5415)" d="M2.8892 0-1.73352 2.31136 0 0-1.73352-2.31136" fill="#0000ff"/>
<path transform="matrix(.016540828,.99987,.9998999,-.016540332,127.70511,178.51087)" d="M2.8892 0-1.73352 2.31136 0 0-1.73352-2.31136" fill="#0000ff"/>
<path transform="matrix(1.00005,0,0,-1.00002,8.079704,181.43033)" stroke-width=".99628" stroke-linecap="butt" stroke-miterlimit="10" stroke-linejoin="miter" fill="none" stroke="#0000ff" d="M122.45442 177.44261 122.51295 173.90779 122.61931 168.34609 122.72565 163.49449 122.83199 159.22959 122.93834 155.44326 123.04468 152.05312 123.15103 149.01563 123.25739 146.2727 123.36372 143.77994 123.47008 141.5131 123.57643 139.43433 123.68277 137.53227 123.78912 135.7787 123.89548 134.1583 124.00183 132.65892 124.10817 131.26123 124.21452 129.96198 124.32088 128.7499 124.42722 127.62012 124.53357 126.55571 124.63992 125.55989 124.74626 124.6238 124.85262 123.74257 124.95897 122.91138 125.0653 122.1254 125.17165 121.38216 125.278 120.67847 125.38434 120.0127 125.49069 119.38084 125.59705 118.77963 125.7034 118.2083 125.80974 117.66519 125.91609 117.14871 126.02245 116.65485 126.12878 116.18439 126.23514 115.73328 126.34149 115.30476 126.44783 114.89482 126.55418 114.50183 126.66054 114.12659 126.76688 113.76746 126.87323 113.4229 126.97958 113.09203 127.08592 112.7757 127.19228 112.47147 127.29863 112.18013 127.40497 111.90172 127.5113 111.6314 127.61766 111.37476 127.72401 111.12703 127.83035 110.88895 127.9367 110.66058 128.04306 110.44109 128.1494 110.22968 128.25576 110.0263 128.3621 109.8302 128.46845 109.64299 128.5748 109.46385 128.68115 109.28952 128.78749 109.12329 128.89385 108.96352 129.0002 108.80937 129.10654 108.6617 129.21289 108.52048 129.31925 108.38329 129.4256 108.25337 129.53194 108.12747 129.63829 108.00804 129.74465 107.89345 129.85097 107.7837 129.95732 107.678 130.06368 107.5755 130.17002 107.48108 130.27637 107.38828 130.38272 107.30112 130.48906 107.21721 130.59542 107.13893 130.70177 107.06387 130.80812 106.99205 130.91446 106.92426 131.02082 106.86214 131.12717 106.80162 131.2335 106.74593 131.33986 106.69266 131.44622 106.64424 131.55255 106.59825 131.6589 106.55548 131.76526 106.51672 131.8716 106.48123 131.97795 106.45055 132.08429 106.42072 132.19063 106.39488 132.29698 106.3731 132.40334 106.35373 132.50969 106.3384 132.61603 106.32468 132.72238 106.31499 132.82874 106.31015 132.93508 106.30612H133.04143L133.14778 106.31015 133.25412 106.31499 133.36048 106.32468 133.46681 106.3384 133.57317 106.35373 133.67952 106.3731 133.78588 106.39488 133.89223 106.42072 133.99857 106.44894 134.10492 106.48123 134.21128 106.51672 134.31761 106.55548 134.42395 106.59663 134.53029 106.64424 134.63665 106.69266 134.743 106.74432 134.84934 106.8 134.95569 106.86214 135.06204 106.92426 135.1684 106.99205 135.27475 107.06227 135.38109 107.13731 135.48744 107.21721 135.59378 107.30112 135.70014 107.38748 135.80649 107.47948 135.91283 107.5755 136.01918 107.67717 136.12554 107.78209 136.23189 107.89264 136.33824 108.00642 136.44458 108.12747 136.55094 108.25174 136.65727 108.38329 136.76361 108.51886 136.86997 108.66089 136.9763 108.80695 137.08266 108.96269 137.189 109.12248 137.29535 109.28873 137.40172 109.4606 137.50806 109.64218 137.61441 109.8294 137.72075 110.0255 137.8271 110.22804 137.93346 110.43867 138.0398 110.65817 138.14615 110.88817 138.25249 111.1246 138.35884 111.37236 138.46521 111.63058 138.57155 111.8993 138.6779 112.17853 138.78424 112.46904 138.8906 112.77327 138.99695 113.08961 139.10327 113.41966 139.20963 113.76343 139.31597 114.12415 139.42232 114.4994 139.52867 114.89159 139.63501 115.30154 139.74138 115.73085 139.84772 116.18036 139.95407 116.65082 140.06043 117.14307 140.16677 117.66035 140.27312 118.20506 140.37946 118.77478 140.48581 119.376 140.59217 120.00786 140.6985 120.6728 140.80487 121.3757 140.91121 122.11812 141.01757 122.90413 141.12392 123.7353 141.23026 124.61652 141.3366 125.55182 141.44293 126.54845 141.54929 127.60962 141.65564 128.74182 141.76198 129.95069 141.86833 131.24912 141.97467 132.64601 142.08104 134.14376 142.1874 135.76499 142.29373 137.51775 142.40009 139.42144 142.50643 141.49375 142.61278 143.76299 142.71913 146.25092 142.82547 148.9898 142.93183 152.02809 143.03816 155.41257 143.14452 159.19814 143.25087 163.46868 143.35723 168.30168 143.46358 173.85129 143.52208 177.38613"/>
<path transform="matrix(-.016560827,-.99987,-.9998999,.016560331,130.54026,3.9841767)" d="M2.8892 0-1.73352 2.31136 0 0-1.73352-2.31136" fill="#0000ff"/>
<path transform="matrix(.016560827,-.99987,-.9998999,-.016560331,151.60895,4.0406649)" d="M2.8892 0-1.73352 2.31136 0 0-1.73352-2.31136" fill="#0000ff"/>
<path transform="matrix(1.00005,0,0,-1.00002,8.079704,181.43033)" stroke-width=".99628" stroke-linecap="butt" stroke-miterlimit="10" stroke-linejoin="miter" fill="none" stroke="#0000ff" d="M146.35758 2.88875 146.41613 6.43243 146.52248 11.9893 146.62883 16.83119 146.73517 21.10498 146.84152 24.89536 146.94788 28.27985 147.05422 31.31813 147.16057 34.06108 147.26692 36.55142 147.37328 38.81903 147.47962 40.89702 147.58597 42.79907 147.69232 44.55264 147.79866 46.17305 147.90502 47.67406 148.01137 49.07173 148.1177 50.36935 148.22406 51.58145 148.33042 52.71364 148.43675 53.77563 148.5431 54.77307 148.64945 55.70836 148.7558 56.5912 148.86214 57.42157 148.96849 58.20677 149.07485 58.94919 149.18119 59.65288 149.28754 60.31865 149.39389 60.9505 149.50023 61.55173 149.60659 62.12387 149.71294 62.66696 149.81928 63.18423 149.92563 63.6765 150.03199 64.14857 150.13834 64.59807 150.24468 65.02739 150.35103 65.43652 150.45738 65.83032 150.56372 66.20477 150.67008 66.56549 150.77643 66.90845 150.88277 67.23932 150.9891 67.55565 151.09546 67.8599 151.2018 68.1512 151.30815 68.43123 151.4145 68.69995 151.52085 68.95657 151.6272 69.20432 151.73355 69.44238 151.8399 69.67075 151.94625 69.89107 152.0526 70.10168 152.15895 70.30505 152.26529 70.50114 152.37165 70.68835 152.478 70.86751 152.58434 71.04182 152.69069 71.20805 152.79705 71.36864 152.90338 71.52197 153.00974 71.66966 153.11609 71.81087 153.22245 71.94807 153.32877 72.07799 153.43512 72.20387 153.54148 72.3233 153.64781 72.4379 153.75417 72.54926 153.86052 72.65417 153.96686 72.75584 154.07321 72.85027 154.17957 72.94307 154.2859 73.03023 154.39226 73.11415 154.49861 73.19243 154.60495 73.26747 154.7113 73.3393 154.81766 73.40707 154.924 73.46922 155.03035 73.52974 155.1367 73.58543 155.24304 73.6387 155.3494 73.68712 155.45575 73.7331 155.56209 73.77588 155.66843 73.8146 155.77478 73.8485 155.88114 73.88078 155.98748 73.91063 156.09383 73.93648 156.20018 73.95825 156.30652 73.97763 156.41287 73.99295 156.51923 74.00667 156.62557 74.01636 156.73192 74.0212 156.83827 74.02522H156.94463L157.05098 74.0212 157.15732 74.01636 157.26367 74.00667 157.37001 73.99295 157.47637 73.97763 157.58272 73.95825 157.68906 73.93648 157.79541 73.91063 157.90174 73.8824 158.00809 73.85011 158.11446 73.8146 158.2208 73.77588 158.32715 73.73473 158.43349 73.68712 158.53984 73.6387 158.6462 73.58704 158.75254 73.53136 158.85889 73.47084 158.96523 73.40707 159.07158 73.3393 159.17794 73.26747 159.28427 73.19403 159.39064 73.11415 159.49698 73.03023 159.60334 72.94307 159.70969 72.85187 159.81603 72.75584 159.92238 72.65417 160.02872 72.54926 160.13507 72.4387 160.24141 72.32492 160.34775 72.20387 160.45412 72.07959 160.56044 71.94807 160.66681 71.81248 160.77317 71.67046 160.8795 71.52278 160.98586 71.36864 161.0922 71.20888 161.19855 71.04262 161.3049 70.86913 161.41124 70.68918 161.5176 70.50195 161.62393 70.30585 161.7303 70.1033 161.83666 69.89268 161.943 69.67319 162.04935 69.44319 162.15569 69.20512 162.26204 68.959 162.3684 68.70076 162.47473 68.43204 162.58107 68.15282 162.68741 67.8607 162.79376 67.55807 162.90013 67.24174 163.00647 66.91168 163.11283 66.5679 163.21916 66.2072 163.32552 65.83192 163.43187 65.43976 163.53821 65.02982 163.64456 64.6005 163.7509 64.151 163.85726 63.68051 163.96361 63.18828 164.06995 62.671 164.17632 62.12628 164.28266 61.55495 164.389 60.95535 164.49536 60.3251 164.6017 59.65773 164.70806 58.95485 164.81439 58.21162 164.92073 57.4264 165.02709 56.58716 165.13343 55.71481 165.23978 54.77951 165.34612 53.78128 165.45249 52.72171 165.55884 51.58871 165.66518 50.37823 165.77153 49.079 165.87787 47.68535 165.98423 46.18517 166.09058 44.56474 166.19692 42.81279 166.30327 40.90991 166.4096 38.83356 166.51598 36.56757 166.62233 34.0764 166.72867 31.33751 166.83502 28.30002 166.94136 24.91878 167.04772 21.12837 167.15406 16.86269 167.26039 12.01997 167.36675 6.47197 167.42527 2.94038"/>
<path transform="matrix(-.016540828,.99987,.9998999,.016540332,154.44458,178.5415)" d="M2.8892 0-1.73352 2.31136 0 0-1.73352-2.31136" fill="#0000ff"/>
<path transform="matrix(.016560827,.99987,.9998999,-.016560331,175.5133,178.48987)" d="M2.8892 0-1.73352 2.31136 0 0-1.73352-2.31136" fill="#0000ff"/>
<path transform="matrix(1.00005,0,0,-1.00002,8.079704,181.43033)" stroke-width=".99628" stroke-linecap="butt" stroke-miterlimit="10" stroke-linejoin="miter" fill="none" stroke="#0000ff" d="M170.26068 177.44261 170.31925 173.89893 170.42559 168.34609 170.53194 163.49449 170.63829 159.22637 170.74463 155.43598 170.85099 152.05312 170.95734 149.0132 171.06368 146.27028 171.17003 143.77994 171.27639 141.51232 171.38272 139.43433 171.48908 137.52986 171.59543 135.77791 171.70177 134.1583 171.80812 132.65488 171.91448 131.2596 172.02083 129.96198 172.12717 128.7499 172.2335 127.61769 172.33986 126.55571 172.4462 125.55829 172.55255 124.623 172.6589 123.74097 172.76525 122.90976 172.8716 122.12457 172.97795 121.38216 173.08429 120.67847 173.19065 120.0127 173.297 119.37923 173.40334 118.77882 173.50969 118.20747 173.61605 117.66438 173.72238 117.14711 173.82874 116.65485 173.93509 116.18277 174.04145 115.73328 174.14778 115.30396 174.25414 114.89482 174.36049 114.50102 174.46683 114.12659 174.57317 113.76585 174.67952 113.42126 174.78586 113.09203 174.89221 112.7757 174.99857 112.47147 175.1049 112.18013 175.21126 111.90172 175.31761 111.6314 175.42395 111.37476 175.5303 111.12703 175.63666 110.88895 175.74301 110.66058 175.84935 110.44028 175.9557 110.22968 176.06206 110.0263 176.1684 109.8302 176.27475 109.64299 176.3811 109.46385 176.48744 109.28952 176.5938 109.12329 176.70015 108.96352 176.80648 108.80937 176.91283 108.6617 177.01918 108.52048 177.12554 108.38329 177.23188 108.25337 177.33823 108.12747 177.44458 108.00804 177.55092 107.89345 177.65727 107.78209 177.76363 107.67717 177.86997 107.5755 177.97632 107.48108 178.08267 107.38828 178.18901 107.30112 178.29537 107.21721 178.40172 107.13731 178.50806 107.06387 178.61441 106.99205 178.72077 106.92426 178.82712 106.86214 178.93346 106.80162 179.03981 106.74432 179.14615 106.69266 179.25249 106.64424 179.35884 106.59825 179.4652 106.55548 179.57154 106.51672 179.67789 106.48123 179.78424 106.45055 179.89058 106.42072 179.99694 106.39488 180.10329 106.3731 180.20964 106.35373 180.31598 106.3384 180.42234 106.32468 180.52869 106.31499 180.63503 106.31015 180.74138 106.30612H180.84774L180.95409 106.31015 181.06043 106.31499 181.16678 106.32468 181.27312 106.3384 181.37947 106.35373 181.48581 106.3731 181.59215 106.39488 181.6985 106.42072 181.80484 106.44894 181.9112 106.48123 182.01757 106.51672 182.1239 106.55548 182.23026 106.59663 182.3366 106.64424 182.44295 106.69266 182.5493 106.74432 182.65564 106.8 182.762 106.86052 182.86833 106.92426 182.97469 106.99205 183.08104 107.06387 183.18738 107.13731 183.29375 107.21721 183.40009 107.30112 183.50644 107.38828 183.6128 107.47948 183.71913 107.5755 183.82547 107.67717 183.93181 107.78209 184.03816 107.89264 184.14452 108.00642 184.25086 108.12747 184.35723 108.25174 184.46355 108.38329 184.56992 108.51886 184.67627 108.66089 184.78261 108.80858 184.88896 108.96269 184.9953 109.12248 185.10166 109.28873 185.20801 109.46222 185.31435 109.64218 185.4207 109.8294 185.52704 110.0255 185.6334 110.22804 185.73976 110.43867 185.8461 110.65817 185.95246 110.88817 186.05878 111.1262 186.16513 111.37315 186.27149 111.63058 186.37783 111.8993 186.48418 112.17853 186.59052 112.46904 186.69689 112.77327 186.80324 113.08961 186.90958 113.41966 187.01593 113.76343 187.12227 114.12415 187.22863 114.4986 187.33498 114.89159 187.44132 115.30154 187.54767 115.73085 187.654 116.18036 187.76036 116.65082 187.86673 117.14307 187.97307 117.66035 188.07942 118.20506 188.18576 118.77641 188.29212 119.3768 188.39846 120.00786 188.50479 120.67361 188.61115 121.3765 188.71749 122.11974 188.82384 122.90494 188.93019 123.74419 189.03653 124.61652 189.1429 125.55182 189.24924 126.55006 189.35559 127.61124 189.46195 128.74182 189.56829 129.9523 189.67464 131.24993 189.78098 132.64601 189.88733 134.1486 189.99369 135.7666 190.10002 137.51857 190.20638 139.42144 190.31273 141.49779 190.41909 143.7638 190.52544 146.25092 190.63178 148.99384 190.73812 152.03131 190.84445 155.41904 190.9508 159.20298 191.05716 163.46868 191.1635 168.30735 191.26985 173.85938 191.32828 177.38613"/>
<path transform="matrix(-.016540828,-.99987,-.9998999,.016540332,178.34888,3.9841767)" d="M2.8892 0-1.73352 2.31136 0 0-1.73352-2.31136" fill="#0000ff"/>
<path transform="matrix(.016590829,-.99987,-.9998999,-.01659033,199.41754,4.0406649)" d="M2.8892 0-1.73352 2.31136 0 0-1.73352-2.31136" fill="#0000ff"/>
<path transform="matrix(1.00005,0,0,-1.00002,8.079704,181.43033)" stroke-width=".3985" stroke-linecap="butt" stroke-dasharray="2.98883,2.98883" stroke-miterlimit="10" stroke-linejoin="miter" fill="none" stroke="#ff0000" d="M1.52171 9.4675V170.86386"/>
<path transform="matrix(1.00005,0,0,-1.00002,8.079704,181.43033)" stroke-width=".3985" stroke-linecap="butt" stroke-dasharray="2.98883,2.98883" stroke-miterlimit="10" stroke-linejoin="miter" fill="none" stroke="#ff0000" d="M25.42477 9.4675V170.86386"/>
<path transform="matrix(1.00005,0,0,-1.00002,8.079704,181.43033)" stroke-width=".3985" stroke-linecap="butt" stroke-dasharray="2.98883,2.98883" stroke-miterlimit="10" stroke-linejoin="miter" fill="none" stroke="#ff0000" d="M49.32788 9.4675V170.86386"/>
<path transform="matrix(1.00005,0,0,-1.00002,8.079704,181.43033)" stroke-width=".3985" stroke-linecap="butt" stroke-dasharray="2.98883,2.98883" stroke-miterlimit="10" stroke-linejoin="miter" fill="none" stroke="#ff0000" d="M73.23106 9.4675V170.86386"/>
<path transform="matrix(1.00005,0,0,-1.00002,8.079704,181.43033)" stroke-width=".3985" stroke-linecap="butt" stroke-dasharray="2.98883,2.98883" stroke-miterlimit="10" stroke-linejoin="miter" fill="none" stroke="#ff0000" d="M121.03705 9.4675V170.86386"/>
<path transform="matrix(1.00005,0,0,-1.00002,8.079704,181.43033)" stroke-width=".3985" stroke-linecap="butt" stroke-dasharray="2.98883,2.98883" stroke-miterlimit="10" stroke-linejoin="miter" fill="none" stroke="#ff0000" d="M144.94025 9.4675V170.86386"/>
<path transform="matrix(1.00005,0,0,-1.00002,8.079704,181.43033)" stroke-width=".3985" stroke-linecap="butt" stroke-dasharray="2.98883,2.98883" stroke-miterlimit="10" stroke-linejoin="miter" fill="none" stroke="#ff0000" d="M168.84336 9.4675V170.86386"/>
<path transform="matrix(1.00005,0,0,-1.00002,8.079704,181.43033)" stroke-width=".3985" stroke-linecap="butt" stroke-dasharray="2.98883,2.98883" stroke-miterlimit="10" stroke-linejoin="miter" fill="none" stroke="#ff0000" d="M192.74642 9.4675V170.86386"/>
<use data-text="(" xlink:href="#font_4_85" transform="matrix(9.963098,0,0,-9.962799,10.081802,13.053955)"/>
<use data-text="F" xlink:href="#font_4_54" transform="matrix(9.963098,0,0,-9.962799,13.957451,13.053955)"/>
<use data-text=")" xlink:href="#font_4_86" transform="matrix(9.963098,0,0,-9.962799,20.463349,13.053955)"/>
<use data-text="x" xlink:href="#font_3_2" transform="matrix(9.963098,0,0,-9.962799,193.14295,87.742458)"/>
<use data-text="y" xlink:href="#font_3_3" transform="matrix(9.963098,0,0,-9.962799,108.73873,18.37207)"/>
</svg>
