<svg xmlns="http://www.w3.org/2000/svg" xmlns:xlink="http://www.w3.org/1999/xlink" version="1.1" width="249" height="194" viewBox="0 0 249 194">
<defs>
<path id="font_1_49" d="M.6519928 .2579193H.6269989C.60198977 .10397339 .57899478 .0309906 .40699769 .0309906H.27398683C.22698975 .0309906 .22499085 .037994386 .22499085 .07098389V.33789063H.31498719C.4119873 .33789063 .4229889 .30589295 .4229889 .220932H.44799806V.48606874H.4229889C.4229889 .39994813 .4119873 .36888124 .31498719 .36888124H.22499085V.6087799C.22499085 .6416931 .22698975 .64868167 .27398683 .64868167H.40299989C.55599978 .64868167 .58299258 .59381106 .598999 .45507813H.6239929L.59599307 .6796875H.032989503V.64868167H.056991579C.13398743 .64868167 .13598633 .6377106 .13598633 .6017914V.07797241C.13598633 .041992189 .13398743 .0309906 .056991579 .0309906H.032989503V0H.6100006L.6519928 .2579193Z"/>
<path id="font_1_28" d="M.48298646 .08912659V.14511109H.45799256V.08912659C.45799256 .03112793 .43299867 .025131226 .42199708 .025131226 .3889923 .025131226 .3849945 .070129398 .3849945 .07511902V.27508546C.3849945 .31707765 .3849945 .3560791 .34899903 .39312745 .30999757 .43223573 .2599945 .4482422 .21199036 .4482422 .12998963 .4482422 .06098938 .40115357 .06098938 .335083 .06098938 .30508424 .08099365 .28808595 .10699463 .28808595 .1349945 .28808595 .15299988 .30807496 .15299988 .33407594 .15299988 .3460846 .147995 .37908937 .101989749 .38008119 .1289978 .41519166 .17799378 .426239 .20999146 .426239 .25898744 .426239 .31599427 .38710023 .31599427 .29808045V.26107789C.2649994 .25808717 .19499207 .25508119 .13198853 .22509766 .056991579 .19110108 .03199768 .13911438 .03199768 .09512329 .03199768 .014251709 .1289978-.0107421879 .19198609-.0107421879 .2579956-.0107421879 .3039856 .029251099 .32299806 .07624817 .32699586 .036132814 .35398866-.005859375 .40098573-.005859375 .42199708-.005859375 .48298646 .008132935 .48298646 .08912659M.31599427 .14013672C.31599427 .04525757 .24398804 .011245728 .19898987 .011245728 .1499939 .011245728 .10899353 .04624939 .10899353 .09625244 .10899353 .15124512 .15098572 .23425293 .31599427 .24024964V.14013672Z"/>
<path id="font_1_96" d="M.3639984 .38137818C.3639984 .41337586 .33299256 .4423828 .2899933 .4423828 .21699524 .4423828 .18099976 .37538148 .16699219 .3323822V.4423828L.027999878 .43066407V.3996582C.09799194 .3996582 .10598755 .39266969 .10598755 .34370423V.07595825C.10598755 .0309906 .09498596 .0309906 .027999878 .0309906V0L.14199829 .0029907227C.18199158 .0029907227 .22898865 .0029907227 .2689972 0V.0309906H.24798584C.17399597 .0309906 .17199707 .04197693 .17199707 .07795715V.23181153C.17199707 .33137513 .21398926 .42037965 .2899933 .42037965 .29699708 .42037965 .29899598 .42037965 .30099488 .41937257 .2979889 .41838075 .27799989 .40637208 .27799989 .3803711 .27799989 .35237123 .29899598 .33737184 .32099916 .33737184 .33898927 .33737184 .3639984 .3493805 .3639984 .38137818Z"/>
<path id="font_1_105" d="M.33198548 .12385559V.18066406H.30699159V.12585449C.30699159 .052108766 .2769928 .014251709 .23999024 .014251709 .17298889 .014251709 .17298889 .10491943 .17298889 .12187195V.3996582H.31599427V.43066407H.17298889V.6142578H.147995C.14698792 .5324249 .116989139 .42565919 .018997193 .42166139V.3996582H.10398865V.12408447C.10398865 .0012512207 .19699097-.0107421879 .23298645-.0107421879 .3039856-.0107421879 .33198548 .060180665 .33198548 .12408447V.12385559Z"/>
<path id="font_1_63" d="M.5349884 0V.0309906C.48298646 .0309906 .45799256 .0309906 .45700074 .061019899V.25221253C.45700074 .3383026 .45700074 .36932374 .42599488 .405365 .4119873 .42237855 .3789978 .4423828 .32099916 .4423828 .23699951 .4423828 .19299317 .38233949 .1769867 .34629823H.17599488V.69433596L.03199768 .6826172V.6516113C.101989749 .6516113 .10998535 .64463809 .10998535 .59580996V.076034549C.10998535 .0309906 .09899902 .0309906 .03199768 .0309906V0L.14498902 .0029907227 .25698854 0V.0309906C.18998719 .0309906 .1789856 .0309906 .1789856 .076034549V.2602234C.1789856 .36431886 .25 .42037965 .31399537 .42037965 .3769989 .42037965 .3880005 .36631776 .3880005 .30926515V.076034549C.3880005 .0309906 .3769989 .0309906 .30999757 .0309906V0L.4229889 .0029907227 .5349884 0Z"/>
<path id="font_1_502" d="M.20599365 .58932498C.20599365 .6493225 .18199158 .69433596 .13899231 .69433596 .10398865 .69433596 .085998538 .6673279 .085998538 .6413269 .085998538 .6153259 .102996829 .58833315 .13899231 .58833315 .15899658 .58833315 .17298889 .59832766 .1789856 .60432437 .17999268 .60632327 .18199158 .6073303 .18199158 .6073303 .18199158 .6073303 .18399048 .59332278 .18399048 .58932498 .18399048 .5573578 .1769867 .4854126 .11399841 .42347718 .101989749 .41148377 .101989749 .40948487 .101989749 .40649415 .101989749 .39949037 .10699463 .3955078 .11199951 .3955078 .12298584 .3955078 .20599365 .47143556 .20599365 .58932498Z"/>
<path id="font_1_98" d="M.3600006 .12823487C.3600006 .18122864 .32998658 .21122742 .31799317 .22323609 .2849884 .25523377 .24598694 .26322938 .20399475 .27124024 .147995 .28224183 .08099365 .29522706 .08099365 .35324098 .08099365 .38822938 .10699463 .42922975 .19299317 .42922975 .30299378 .42922975 .30799867 .3392334 .30999757 .30822755 .31098939 .2992401 .32199098 .2992401 .32199098 .2992401 .33499146 .2992401 .33499146 .30422975 .33499146 .32322694V.4242401C.33499146 .4412384 .33499146 .4482422 .32398988 .4482422 .31900025 .4482422 .31698609 .4482422 .3039856 .43623353 .30099488 .43223573 .29100038 .42323304 .2869873 .42022706 .24899292 .4482422 .20799256 .4482422 .19299317 .4482422 .070999149 .4482422 .032989503 .38124085 .032989503 .3252411 .032989503 .29023744 .04899597 .26223756 .07598877 .24023438 .10798645 .2142334 .13598633 .2082367 .20799256 .19422913 .22999573 .19021607 .31199647 .17422486 .31199647 .10221863 .31199647 .051223756 .2769928 .011245728 .19898987 .011245728 .114990238 .011245728 .07899475 .068222049 .05999756 .1532135 .056991579 .16621399 .055999757 .17021179 .04598999 .17021179 .032989503 .17021179 .032989503 .16322327 .032989503 .1452179V.013214111C.032989503-.003753662 .032989503-.0107421879 .04399109-.0107421879 .04899597-.0107421879 .049987794-.009750366 .068984989 .009246826 .070999149 .011245728 .070999149 .013214111 .08898926 .032226564 .1329956-.009750366 .17799378-.0107421879 .19898987-.0107421879 .31399537-.0107421879 .3600006 .05621338 .3600006 .1282196V.12823487Z"/>
<path id="font_1_27" d="M.71699526 0V.0309906H.69898989C.6389923 .0309906 .625 .037979127 .6139984 .07095337L.397995 .6958008C.3929901 .7088165 .3909912 .7158203 .375 .7158203 .35899354 .7158203 .35598756 .70980837 .35099793 .6958008L.14399719 .09791565C.12599182 .04698181 .085998538 .03199768 .03199768 .0309906V0L.13398743 .0029907227 .24899292 0V.0309906C.19898987 .0309906 .17399597 .05596924 .17399597 .0819397 .17399597 .08493042 .1749878 .09492493 .17599488 .09692383L.22200012 .2277832H.46899415L.5219879 .07495117C.522995 .07095337 .5249939 .064956668 .5249939 .060958864 .5249939 .0309906 .46899415 .0309906 .44198609 .0309906V0C.47799684 .0029907227 .5479889 .0029907227 .58599856 .0029907227L.71699526 0M.45799256 .25878907H.23298645L.34498597 .58380129 .45799256 .25878907Z"/>
<path id="font_1_116" d="M.5159912 0V.0309906C.46199037 .03125 .44400025 .0332489 .42099 .0622406L.2869873 .23493958C.31698609 .27287293 .35499574 .3217926 .3789978 .3477478 .4099884 .38368226 .45098878 .39866639 .49798585 .3996582V.43066407C.47200013 .4286499 .44198609 .42765809 .41600038 .42765809 .38598634 .42765809 .33299256 .42965699 .31999208 .43066407V.3996582C.34098817 .3973999 .34899903 .3843994 .34899903 .3684082 .34899903 .35240174 .33898927 .33940126 .33399964 .33340455L.27198792 .2554016 .19400025 .35639955C.18499756 .3664093 .18499756 .3684082 .18499756 .3744049 .18499756 .3894043 .19999695 .39840699 .21998596 .39941407V.43066407L.11199951 .42765809C.09098816 .42765809 .04399109 .4286499 .016998291 .43066407V.3996582C.08699036 .3996582 .08799744 .39865113 .1349945 .3387146L.23399353 .20982361C.18699646 .14988709 .18699646 .14788819 .13999939 .09094238 .09199524 .032989503 .032989503 .0309906 .011993408 .0309906V0C.037994386 .0019989014 .068984989 .0029907227 .09498596 .0029907227L.18998719 0V.0309906C.16799927 .034240724 .16099549 .04724121 .16099549 .0622406 .16099549 .084243778 .18998719 .117248538 .25099183 .1892395L.32699586 .08924866C.33499146 .07824707 .34799195 .0622406 .34799195 .056243898 .34799195 .04724121 .33898927 .03224182 .31199647 .03125V0L.41999818 .0029907227C.44699098 .0029907227 .48599244 .0019989014 .5159912 0Z"/>
<path id="font_1_66" d="M.24699402 0V.0309906C.18099976 .0309906 .1769867 .035995485 .1769867 .075042728V.4423828L.036987306 .43066407V.3996582C.101989749 .3996582 .11099243 .3936615 .11099243 .3447113V.07595825C.11099243 .0309906 .099990848 .0309906 .032989503 .0309906V0L.14299011 .0029907227C.17799378 .0029907227 .21299744 .0009918213 .24699402 0M.19198609 .603775C.19198609 .6307678 .16899109 .6567688 .13899231 .6567688 .10499573 .6567688 .084991458 .6287689 .084991458 .603775 .084991458 .57676699 .10798645 .55078127 .13798523 .55078127 .17199707 .55078127 .19198609 .5787811 .19198609 .603775Z"/>
<path id="font_1_91" d="M.5269928-.1940918V-.16308594C.45999146-.16308594 .44898988-.16308594 .44898988-.117996219V.4423828H.4269867L.3889923 .35136415C.37599183 .379364 .33499146 .4423828 .25498963 .4423828 .13899231 .4423828 .033996583 .34535218 .033996583 .21531677 .033996583 .090270999 .1309967-.0107421879 .24699402-.0107421879 .31698609-.0107421879 .35798646 .03225708 .37998963 .061264039V-.117996219C.37998963-.16308594 .36898805-.16308594 .3019867-.16308594V-.1940918L.4139862-.19110108 .5269928-.1940918M.3829956 .1362915C.3829956 .104278568 .36499024 .07626343 .34298707 .052261354 .32998658 .038253786 .2979889 .011245728 .25099183 .011245728 .17799378 .011245728 .116989139 .10028076 .116989139 .21531677 .116989139 .3343506 .18699646 .41737367 .26098634 .41737367 .34098817 .41737367 .3829956 .33035279 .3829956 .2773285V.1362915Z"/>
<path id="font_1_109" d="M.5349884 0V.0309906C.46499635 .0309906 .45700074 .037994386 .45700074 .08705139V.4423828L.30999757 .43066407V.3996582C.37998963 .3996582 .3880005 .39266969 .3880005 .34373475V.16601563C.3880005 .07910156 .33999635 .011245728 .2669983 .011245728 .18299866 .011245728 .1789856 .058135988 .1789856 .11009216V.4423828L.03199768 .43066407V.3996582C.10998535 .3996582 .10998535 .39666749 .10998535 .3078003V.15802002C.10998535 .080093387 .10998535-.0107421879 .2619934-.0107421879 .31799317-.0107421879 .3619995 .017242432 .3909912 .07910156V-.0107421879L.5349884 0Z"/>
<path id="font_1_81" d="M.47099305 .21424866C.47099305 .34223939 .37098695 .4482422 .25 .4482422 .125 .4482422 .027999878 .3392334 .027999878 .21424866 .027999878 .085250858 .13198853-.0107421879 .24899292-.0107421879 .36999513-.0107421879 .47099305 .087249759 .47099305 .21424866M.3880005 .22224427C.3880005 .18624878 .3880005 .13224793 .3659973 .08824158 .34399415 .04324341 .2999878 .014251709 .25 .014251709 .20698548 .014251709 .16299439 .035247804 .13598633 .08125305 .11099243 .12524414 .11099243 .18624878 .11099243 .22224427 .11099243 .26124574 .11099243 .31523133 .1349945 .35923768 .1619873 .40522767 .20899964 .426239 .24899292 .426239 .29299928 .426239 .33599855 .40423585 .3619995 .36123658 .3880005 .3182373 .3880005 .26023866 .3880005 .22224427Z"/>
<path id="font_2_2" d="M.375 .6136017C.3809967 .63760378 .38398744 .6476135 .40299989 .65060427 .4119873 .6516113 .44400025 .6516113 .46398927 .6516113 .5349884 .6516113 .6459961 .6516113 .6459961 .5525818 .6459961 .51856997 .6299896 .44955445 .59098818 .41055299 .5649872 .38453675 .5119934 .35253907 .42199708 .35253907H.30999757L.375 .6136017M.5189972 .33953858C.6199951 .3615265 .7389984 .43154908 .7389984 .5325775 .7389984 .61860659 .6489868 .6826172 .5179901 .6826172H.23298645C.21299744 .6826172 .20399475 .6826172 .20399475 .6626129 .20399475 .6516113 .21299744 .6516113 .23199463 .6516113 .23399353 .6516113 .25299073 .6516113 .269989 .6496124 .28799439 .6476135 .29699708 .64660647 .29699708 .63360598 .29699708 .62960818 .29599 .6266022 .29299928 .6145935L.15899658 .07752991C.14898682 .038528444 .14698792 .030532837 .067993167 .030532837 .049987794 .030532837 .040985109 .030532837 .040985109 .010528564 .040985109-.00047302247 .052993776-.00047302247 .054992677-.00047302247 .08299255-.00047302247 .15299988 .002532959 .18099976 .002532959 .20899964 .002532959 .27999879-.00047302247 .30799867-.00047302247 .31599427-.00047302247 .32798768-.00047302247 .32798768 .01953125 .32798768 .030532837 .31900025 .030532837 .2999878 .030532837 .2630005 .030532837 .23498535 .030532837 .23498535 .048538209 .23498535 .054534913 .23699951 .059524537 .23799134 .0655365L.3039856 .3305359H.4229889C.5139923 .3305359 .5319977 .27453614 .5319977 .23953247 .5319977 .22453308 .5239868 .19352722 .5179901 .17053223 .5109863 .14253235 .5019989 .105529788 .5019989 .08552551 .5019989-.022460938 .621994-.022460938 .6349945-.022460938 .7200012-.022460938 .7549896 .07853699 .7549896 .0925293 .7549896 .104537967 .74398806 .104537967 .7429962 .104537967 .73399356 .104537967 .7319946 .09753418 .7299957 .090530399 .7049866 .016525269 .6619873-.00047302247 .6389923-.00047302247 .60598757-.00047302247 .598999 .021530152 .598999 .060531618 .598999 .091537479 .6049957 .14253235 .60899356 .17453003 .61099246 .1885376 .61299136 .20753479 .61299136 .2215271 .61299136 .2985382 .54599 .3295288 .5189972 .33953858Z"/>
<path id="font_2_3" d="M.08799744 .059265138C.084991458 .044265748 .07899475 .021255494 .07899475 .01625061 .07899475-.0017547608 .09298706-.0107421879 .10798645-.0107421879 .11999512-.0107421879 .13798523-.002746582 .14498902 .01725769 .14698792 .021255494 .18099976 .15730286 .18499756 .17530823 .19299317 .20831299 .21099854 .27833558 .21699524 .30534364 .22099304 .31835938 .24899292 .36535646 .272995 .38734437 .2809906 .39434815 .30999757 .42037965 .35299684 .42037965 .3789978 .42037965 .3939972 .4083557 .394989 .4083557 .36499024 .40335084 .34298707 .37934876 .34298707 .35334779 .34298707 .33735658 .35398866 .31835938 .3809967 .31835938 .4079895 .31835938 .43598939 .34135438 .43598939 .37734986 .43598939 .41235353 .4039917 .4423828 .35299684 .4423828 .28799439 .4423828 .24398804 .39335633 .22499085 .36535646 .21699524 .4103546 .18099976 .4423828 .13398743 .4423828 .08799744 .4423828 .068984989 .40335084 .05999756 .38534547 .041992189 .35134889 .0289917 .29133607 .0289917 .28834535 .0289917 .27833558 .038986207 .27833558 .040985109 .27833558 .050994874 .27833558 .051986696 .27934266 .057998659 .30134584 .07499695 .37234498 .09498596 .42037965 .1309967 .42037965 .147995 .42037965 .1619873 .41235353 .1619873 .37435914 .1619873 .35334779 .15899658 .3423462 .1459961 .29034425L.08799744 .059265138Z"/>
<path id="font_2_1" d="M.43699647 .67033389C.43699647 .67233279 .43998719 .68333438 .43998719 .6843262 .43998719 .68533328 .43998719 .69433596 .42799378 .69433596 .41799928 .69433596 .4169922 .69132998 .41299439 .67433169L.35499574 .44337464C.19599915 .43836976 .04899597 .30532838 .04899597 .169281 .04899597 .07424927 .11898804-.004776001 .24099732-.011779785 .23298645-.04283142 .22599793-.07489014 .21798706-.10594177 .20599365-.1530304 .19599915-.19108582 .19599915-.1940918 .19599915-.2040863 .20298767-.20507813 .20799256-.20507813 .21299744-.20507813 .21499634-.2040863 .21798706-.20108032 .21998596-.19908142 .22599793-.17506409 .22898865-.16104126L.2669983-.011779785C.42799378-.0067749025 .57299807 .12826538 .57299807 .26231385 .57299807 .3413391 .519989 .43338014 .3809967 .44337464L.43699647 .67033389M.24598694 .010223389C.18598938 .01322937 .11399841 .048233034 .11399841 .14826966 .11399841 .2683258 .19999695 .40837098 .34899903 .42137147L.24598694 .010223389M.375 .42137147C.45098878 .41737367 .5079956 .37135316 .5079956 .2833252 .5079956 .1652832 .42199708 .022232056 .27198792 .010223389L.375 .42137147Z"/>
<path id="font_1_83" d="M.6239929 .4967041C.6239929 .59465029 .5249939 .6826172 .3880005 .6826172H.034988405V.6516113H.05899048C.13598633 .6516113 .13798523 .64060977 .13798523 .6046295V.07795715C.13798523 .041992189 .13598633 .0309906 .05899048 .0309906H.034988405V0C.069992069 .0029907227 .14399719 .0029907227 .18199158 .0029907227 .21998596 .0029907227 .29499818 .0029907227 .32998658 0V.0309906H.30599977C.22898865 .0309906 .22698975 .041992189 .22698975 .07795715V.3157959H.3959961C.5159912 .3157959 .6239929 .39675904 .6239929 .4967041M.5209961 .4967041C.5209961 .4497223 .5209961 .34179688 .3619995 .34179688H.22399903V.6116333C.22399903 .64460757 .22599793 .6516113 .272995 .6516113H.3619995C.5209961 .6516113 .5209961 .54566958 .5209961 .4967041Z"/>
<path id="font_1_42" d="M.6649933 .23271179C.6649933 .24272156 .6649933 .24972534 .6519928 .24972534 .6409912 .24972534 .6409912 .24372864 .6399994 .23371887 .6319885 .09059143 .5249939 .008529663 .41600038 .008529663 .35499574 .008529663 .15899658 .042556764 .15899658 .34080506 .15899658 .64004519 .35398866 .67407229 .4149933 .67407229 .5239868 .67407229 .61299136 .58299258 .6329956 .4368744 .6349945 .42286683 .6349945 .41986085 .6489868 .41986085 .6649933 .41986085 .6649933 .42286683 .6649933 .44387818V.68107607C.6649933 .69807437 .6649933 .7050781 .6539917 .7050781 .6499939 .7050781 .6459961 .7050781 .6380005 .69306948L.58799746 .61901858C.5509949 .6550598 .5 .7050781 .4039917 .7050781 .21699524 .7050781 .055999757 .5459595 .055999757 .34179688 .055999757 .1346283 .21798706-.022460938 .4039917-.022460938 .5669861-.022460938 .6649933 .116622928 .6649933 .23271179Z"/>
<path id="font_1_118" d="M.5079956 .3996582V.43066407C.4850006 .4286499 .45599366 .42765809 .43299867 .42765809L.34599305 .43066407V.3996582C.3769989 .39866639 .3929901 .3816681 .3929901 .35668946 .3929901 .34669496 .3919983 .34469605 .3869934 .33270265L.28599549 .08685303 .1749878 .35568238C.17098999 .36567689 .16899109 .36967469 .16899109 .3736725 .16899109 .3996582 .20599365 .3996582 .22499085 .3996582V.43066407L.115997318 .42765809C.08898926 .42765809 .04899597 .4286499 .018997193 .43066407V.3996582C.066986087 .3996582 .085998538 .3996582 .099990848 .36468507L.25-.000091552738 .22499085-.059066774C.20298767-.11407471 .1749878-.18309021 .11099243-.18309021 .10598755-.18309021 .08299255-.18309021 .06399536-.16503906 .09498596-.16104126 .102996829-.13905335 .102996829-.123046878 .102996829-.0970459 .083999637-.08103943 .06098938-.08103943 .040985109-.08103943 .018997193-.09403992 .018997193-.124053958 .018997193-.16905213 .06098938-.20507813 .11099243-.20507813 .17399597-.20507813 .21499634-.14804077 .23899842-.091049198L.4149933 .33569337C.44099427 .39865113 .49198915 .3996582 .5079956 .3996582Z"/>
</defs>
<path transform="matrix(1.00002,0,0,-1.00002,125.10622,99.08672)" stroke-width=".3985" stroke-linecap="butt" stroke-miterlimit="10" stroke-linejoin="miter" fill="none" stroke="#000000" d="M85.04045 0C85.04045 46.96715 46.96715 85.04045 0 85.04045-46.96715 85.04045-85.04045 46.96715-85.04045 0-85.04045-46.96715-46.96715-85.04045 0-85.04045 46.96715-85.04045 85.04045-46.96715 85.04045 0ZM0 0"/>
<path transform="matrix(1.00002,0,0,-1.00002,125.10622,99.08672)" stroke-width=".3985" stroke-linecap="butt" stroke-dasharray="2.98883,2.98883" stroke-miterlimit="10" stroke-linejoin="miter" fill="none" stroke="#000000" d="M0-93.54501V93.54501"/>
<use data-text="E" xlink:href="#font_1_49" transform="matrix(9.962799,0,0,-9.962799,128.62628,9.051926)"/>
<use data-text="a" xlink:href="#font_1_28" transform="matrix(9.962799,0,0,-9.962799,135.41095,9.051926)"/>
<use data-text="r" xlink:href="#font_1_96" transform="matrix(9.962799,0,0,-9.962799,140.39234,9.051926)"/>
<use data-text="t" xlink:href="#font_1_105" transform="matrix(9.962799,0,0,-9.962799,144.29776,9.051926)"/>
<use data-text="h" xlink:href="#font_1_63" transform="matrix(9.962799,0,0,-9.962799,148.17328,9.051926)"/>
<use data-text="&#x2019;" xlink:href="#font_1_502" transform="matrix(9.962799,0,0,-9.962799,153.71262,9.051926)"/>
<use data-text="s" xlink:href="#font_1_98" transform="matrix(9.962799,0,0,-9.962799,156.48227,9.051926)"/>
<use data-text="A" xlink:href="#font_1_27" transform="matrix(9.962799,0,0,-9.962799,163.71527,9.051926)"/>
<use data-text="x" xlink:href="#font_1_116" transform="matrix(9.962799,0,0,-9.962799,171.18738,9.051926)"/>
<use data-text="i" xlink:href="#font_1_66" transform="matrix(9.962799,0,0,-9.962799,176.4477,9.051926)"/>
<use data-text="s" xlink:href="#font_1_98" transform="matrix(9.962799,0,0,-9.962799,179.21735,9.051926)"/>
<path transform="matrix(1.00002,0,0,-1.00002,125.10622,99.08672)" stroke-width=".3985" stroke-linecap="butt" stroke-miterlimit="10" stroke-linejoin="miter" fill="none" stroke="#000000" d="M0 0H-85.04045"/>
<use data-text="E" xlink:href="#font_1_49" transform="matrix(9.962799,0,0,-9.962799,1.2157288,101.507778)"/>
<use data-text="q" xlink:href="#font_1_91" transform="matrix(9.962799,0,0,-9.962799,8.000397,101.507778)"/>
<use data-text="u" xlink:href="#font_1_109" transform="matrix(9.962799,0,0,-9.962799,13.260757,101.507778)"/>
<use data-text="a" xlink:href="#font_1_28" transform="matrix(9.962799,0,0,-9.962799,18.800065,101.507778)"/>
<use data-text="t" xlink:href="#font_1_105" transform="matrix(9.962799,0,0,-9.962799,23.781449,101.507778)"/>
<use data-text="o" xlink:href="#font_1_81" transform="matrix(9.962799,0,0,-9.962799,27.656983,101.507778)"/>
<use data-text="r" xlink:href="#font_1_96" transform="matrix(9.962799,0,0,-9.962799,32.638383,101.507778)"/>
<path transform="matrix(1.00002,0,0,-1.00002,125.10622,99.08672)" stroke-width="1.99255" stroke-linecap="butt" stroke-miterlimit="10" stroke-linejoin="miter" fill="none" stroke="#000000" d="M0 0H85.04045"/>
<use data-text="R" xlink:href="#font_2_2" transform="matrix(9.962799,0,0,-9.962799,163.806,110.211948)"/>
<path transform="matrix(1.00002,0,0,-1.00002,125.10622,99.08672)" stroke-width="1.99255" stroke-linecap="butt" stroke-miterlimit="10" stroke-linejoin="miter" fill="none" stroke="#000000" d="M0 0 73.64738 42.52022"/>
<use data-text="R" xlink:href="#font_2_2" transform="matrix(9.962799,0,0,-9.962799,165.19702,83.2814)"/>
<path transform="matrix(1.00002,0,0,-1.00002,125.10622,99.08672)" stroke-width="1.99255" stroke-linecap="butt" stroke-miterlimit="10" stroke-linejoin="miter" fill="none" stroke="#000000" d="M0 42.52022H73.64738"/>
<use data-text="r" xlink:href="#font_2_3" transform="matrix(9.962799,0,0,-9.962799,159.5449,52.248785)"/>
<path transform="matrix(1.00002,0,0,-1.00002,125.10622,99.08672)" stroke-width=".3985" stroke-linecap="butt" stroke-miterlimit="10" stroke-linejoin="miter" fill="none" stroke="#000000" d="M25.51237 0C25.51237 4.47719 24.33282 8.87889 22.09442 12.75618"/>
<use data-text="&#x03d5;" xlink:href="#font_2_1" transform="matrix(9.962799,0,0,-9.962799,154.68682,94.97464)"/>
<path transform="matrix(1.00002,0,0,-1.00002,125.10622,99.08672)" stroke-width=".3985" stroke-linecap="butt" stroke-miterlimit="10" stroke-linejoin="miter" fill="none" stroke="#000000" d="M48.13501 42.52022C48.13501 38.04301 49.31456 33.64131 51.55296 29.76402"/>
<use data-text="&#x03d5;" xlink:href="#font_2_1" transform="matrix(9.962799,0,0,-9.962799,164.60501,65.66006)"/>
<path transform="matrix(1.00002,0,0,-1.00002,125.10622,99.08672)" d="M74.64366 42.52022C74.64366 43.07045 74.19763 43.5165 73.64738 43.5165 73.09715 43.5165 72.65111 43.07045 72.65111 42.52022 72.65111 41.96999 73.09715 41.52394 73.64738 41.52394 74.19763 41.52394 74.64366 41.96999 74.64366 42.52022ZM73.64738 42.52022"/>
<path transform="matrix(1.00002,0,0,-1.00002,125.10622,99.08672)" stroke-width=".3985" stroke-linecap="butt" stroke-miterlimit="10" stroke-linejoin="miter" fill="none" stroke="#000000" d="M74.64366 42.52022C74.64366 43.07045 74.19763 43.5165 73.64738 43.5165 73.09715 43.5165 72.65111 43.07045 72.65111 42.52022 72.65111 41.96999 73.09715 41.52394 73.64738 41.52394 74.19763 41.52394 74.64366 41.96999 74.64366 42.52022ZM73.64738 42.52022"/>
<use data-text="P" xlink:href="#font_1_83" transform="matrix(9.962799,0,0,-9.962799,206.25984,59.055925)"/>
<use data-text="o" xlink:href="#font_1_81" transform="matrix(9.962799,0,0,-9.962799,212.76555,59.055925)"/>
<use data-text="r" xlink:href="#font_1_96" transform="matrix(9.962799,0,0,-9.962799,217.74695,59.055925)"/>
<use data-text="t" xlink:href="#font_1_105" transform="matrix(9.962799,0,0,-9.962799,221.65236,59.055925)"/>
<use data-text="C" xlink:href="#font_1_42" transform="matrix(9.962799,0,0,-9.962799,228.83554,59.055925)"/>
<use data-text="i" xlink:href="#font_1_66" transform="matrix(9.962799,0,0,-9.962799,236.02869,59.055925)"/>
<use data-text="t" xlink:href="#font_1_105" transform="matrix(9.962799,0,0,-9.962799,238.79834,59.055925)"/>
<use data-text="y" xlink:href="#font_1_118" transform="matrix(9.962799,0,0,-9.962799,242.40488,59.055925)"/>
</svg>
