<svg xmlns="http://www.w3.org/2000/svg" xmlns:xlink="http://www.w3.org/1999/xlink" xmlns:inkscape="http://www.inkscape.org/namespaces/inkscape" version="1.1" width="227" height="171" viewBox="0 0 227 171">
<defs>
<path id="font_1_3" d="M.1269989 .07699585 .23298645 .18003845C.3889923 .31811524 .44898988 .3721466 .44898988 .47216798 .44898988 .5860901 .35899354 .6660156 .23699951 .6660156 .12399292 .6660156 .049987794 .57411196 .049987794 .48516847 .049987794 .4291687 .099990848 .4291687 .102996829 .4291687 .11999512 .4291687 .15499878 .44117738 .15499878 .48217774 .15499878 .5081787 .13699341 .5341797 .101989749 .5341797 .09399414 .5341797 .09199524 .5341797 .08898926 .5331726 .11199951 .59806826 .1659851 .63500979 .22399903 .63500979 .31498719 .63500979 .35798646 .5541382 .35798646 .47216798 .35798646 .39215089 .30799867 .31311036 .25299073 .25108338L.06098938 .036987306C.049987794 .025985718 .049987794 .023986817 .049987794 0H.42099L.44898988 .17404175H.42399598C.4189911 .14402771 .4119873 .1000061 .4019928 .084991458 .394989 .07699585 .32899476 .07699585 .30699159 .07699585H.1269989Z"/>
<path id="font_1_4" d="M.2939911 .16503906V.07800293C.2939911 .041992189 .2919922 .0309906 .21798706 .0309906H.19699097V0C.23799134 .0029907227 .2899933 .0029907227 .33198548 .0029907227 .37399293 .0029907227 .4269867 .0029907227 .46798707 0V.0309906H.44699098C.37298585 .0309906 .37098695 .041992189 .37098695 .07800293V.16503906H.47099305V.19602967H.37098695V.65075686C.37098695 .67074587 .37098695 .6767578 .35499574 .6767578 .34599305 .6767578 .34298707 .6767578 .33499146 .66474917L.027999878 .19602967V.16503906H.2939911M.2999878 .19602967H.055999757L.2999878 .5688019V.19602967Z"/>
<path id="font_1_6" d="M.13198853 .327713V.35173036C.13198853 .6047821 .2559967 .64100649 .30699159 .64100649 .33099366 .64100649 .37298585 .634964 .394989 .6007538 .37998963 .6007538 .33999635 .6007538 .33999635 .5557556 .33999635 .524765 .3639984 .5097656 .38598634 .5097656 .4019928 .5097656 .43199159 .51875308 .43199159 .5577545 .43199159 .6178589 .3880005 .6660156 .30499269 .6660156 .1769867 .6660156 .041992189 .5367584 .041992189 .31570436 .041992189 .048553468 .1579895-.022460938 .25099183-.022460938 .3619995-.022460938 .45700074 .07156372 .45700074 .2036438 .45700074 .33070375 .36799623 .4267578 .25698854 .4267578 .18899536 .4267578 .1519928 .37573243 .13198853 .327713M.25099183 .0055389406C.18798828 .0055389406 .1579895 .06556702 .1519928 .080566409 .13398743 .127594 .13398743 .2076416 .13398743 .22564698 .13398743 .30369569 .1659851 .40374757 .2559967 .40374757 .27198792 .40374757 .31799317 .40374757 .34899903 .34172059 .36698915 .30470277 .36698915 .2536621 .36698915 .20463562 .36698915 .15661621 .36698915 .10658264 .34999085 .0705719 .31999208 .010528564 .27398683 .0055389406 .25099183 .0055389406Z"/>
<path id="font_1_7" d="M.16299439 .4569702C.116989139 .486969 .11299133 .52098086 .11299133 .5379791 .11299133 .598999 .17799378 .64100649 .24899292 .64100649 .32199098 .64100649 .38598634 .58898928 .38598634 .51698306 .38598634 .45996095 .34700013 .4119568 .2869873 .37695313L.16299439 .4569702M.30899049 .36193849C.3809967 .3989563 .42999269 .45095826 .42999269 .51698306 .42999269 .6090088 .34098817 .6660156 .25 .6660156 .1499939 .6660156 .068984989 .59199526 .068984989 .49897767 .068984989 .4809723 .070999149 .43595887 .11299133 .38894654 .12399292 .37695313 .16099549 .35194398 .18598938 .33494569 .12799073 .30592347 .041992189 .24984741 .041992189 .15072632 .041992189 .04458618 .14399719-.022460938 .24899292-.022460938 .3619995-.022460938 .45700074 .06060791 .45700074 .16773987 .45700074 .20379639 .44599916 .24885559 .4079895 .2909088 .3889923 .31193543 .37298585 .3219452 .30899049 .36193849M.20899964 .3199463 .33198548 .24183655C.3600006 .2228241 .40699769 .19277954 .40699769 .13169861 .40699769 .05760193 .33198548 .0055389406 .25 .0055389406 .1639862 .0055389406 .09199524 .067611698 .09199524 .15072632 .09199524 .20880127 .12399292 .27288819 .20899964 .3199463Z"/>
<path id="font_1_2" d="M.2939911 .64004519C.2939911 .66400149 .2939911 .6660156 .2709961 .6660156 .20899964 .60227969 .12098694 .60227969 .08898926 .60227969V.57128909C.10899353 .57128909 .16799927 .57128909 .21998596 .5972748V.07902527C.21998596 .042999269 .21699524 .0309906 .1269989 .0309906H.09498596V0C.12998963 .0029907227 .21699524 .0029907227 .25698854 .0029907227 .29699708 .0029907227 .38398744 .0029907227 .4189911 0V.0309906H.3869934C.29699708 .0309906 .2939911 .041992189 .2939911 .07902527V.64004519Z"/>
<path id="font_1_1" d="M.45999146 .31976319C.45999146 .39982606 .45498658 .47988893 .41999818 .5539398 .37399293 .65000918 .2919922 .6660156 .25 .6660156 .18998719 .6660156 .116989139 .64001467 .07598877 .54693606 .04399109 .47789 .038986207 .39982606 .038986207 .31976319 .038986207 .24472046 .042999269 .15464783 .083999637 .07859802 .1269989-.0024719239 .19999695-.022460938 .24899292-.022460938 .30299378-.022460938 .3789978-.0014648438 .4229889 .09359741 .45498658 .16265869 .45999146 .2407074 .45999146 .31976319M.24899292-.00047302247C.20999146-.00047302247 .15098572 .024551392 .1329956 .12062073 .12199402 .18066406 .12199402 .2727356 .12199402 .3317871 .12199402 .39582826 .12199402 .46188355 .12998963 .5159149 .14898682 .63500979 .22399903 .64401248 .24899292 .64401248 .28199769 .64401248 .34799195 .6259918 .36698915 .52693179 .3769989 .47088624 .3769989 .39482118 .3769989 .3317871 .3769989 .25672914 .3769989 .18867493 .3659973 .12461853 .35099793 .029556275 .2939911-.00047302247 .24899292-.00047302247Z"/>
<path id="font_2_1" d="M.6589966 .23046875C.6759949 .23046875 .69400027 .23046875 .69400027 .25045777 .69400027 .27046205 .6759949 .27046205 .6589966 .27046205H.117996219C.100997928 .27046205 .08299255 .27046205 .08299255 .25045777 .08299255 .23046875 .100997928 .23046875 .117996219 .23046875H.6589966Z"/>
<path id="font_1_5" d="M.44898988 .20022583C.44898988 .3193512 .36698915 .41944886 .25898744 .41944886 .21099854 .41944886 .16799927 .40345765 .13198853 .36842347V.5637665C.1519928 .5577698 .18499756 .55078127 .21699524 .55078127 .33999635 .55078127 .4099884 .6417694 .4099884 .6547699 .4099884 .6607666 .40699769 .6657715 .3999939 .6657715 .39898683 .6657715 .39698792 .6657715 .3919983 .66278079 .37199403 .6537781 .32299806 .6337738 .2559967 .6337738 .21598816 .6337738 .16999817 .6407776 .12298584 .6617737 .114990238 .66477969 .11299133 .66477969 .11099243 .66477969 .100997928 .66477969 .100997928 .6567688 .100997928 .6407776V.34439088C.100997928 .32637025 .100997928 .31835938 .114990238 .31835938 .12199402 .31835938 .12399292 .32136537 .12799073 .32736207 .13899231 .3433838 .17599488 .39746095 .25698854 .39746095 .30899049 .39746095 .33399964 .35139466 .34199525 .33337403 .35798646 .29632569 .3600006 .25727845 .3600006 .20722962 .3600006 .17222595 .3600006 .11222839 .33599855 .07035828 .31199647 .031463624 .2749939 .0055389406 .22898865 .0055389406 .1559906 .0055389406 .09899902 .058380128 .08198547 .11723328 .084991458 .1162262 .08799744 .115234378 .09899902 .115234378 .13198853 .115234378 .14898682 .14022827 .14898682 .16423035 .14898682 .18823242 .13198853 .21322632 .09899902 .21322632 .084991458 .21322632 .049987794 .20622254 .049987794 .16023255 .049987794 .07434082 .11898804-.022460938 .23098755-.022460938 .34700013-.022460938 .44898988 .073349 .44898988 .20022583Z"/>
<path id="font_3_1" d="M.19198609 .052993776C.19198609 .08198547 .16799927 .10598755 .13899231 .10598755 .10998535 .10598755 .085998538 .08198547 .085998538 .052993776 .085998538 .023986817 .10998535 0 .13899231 0 .16799927 0 .19198609 .023986817 .19198609 .052993776Z"/>
<path id="font_3_2" d="M.33399964 .30233766C.33999635 .32835389 .36299134 .42037965 .43299867 .42037965 .43798829 .42037965 .46199037 .42037965 .48298646 .40734864 .45498658 .402359 .43499757 .37734986 .43499757 .35334779 .43499757 .33735658 .44599916 .31835938 .47299195 .31835938 .49499513 .31835938 .5269928 .3363495 .5269928 .37635804 .5269928 .42837525 .46798707 .4423828 .43399049 .4423828 .37599183 .4423828 .34098817 .38935853 .32899476 .36634828 .3039856 .43237306 .25 .4423828 .22099304 .4423828 .116989139 .4423828 .05999756 .3133545 .05999756 .28834535 .05999756 .27833558 .069992069 .27833558 .07199097 .27833558 .07998657 .27833558 .08299255 .28033448 .084991458 .28933717 .11898804 .39535523 .18499756 .42037965 .21899414 .42037965 .23799134 .42037965 .272995 .4113617 .272995 .35334779 .272995 .32235719 .2559967 .25532533 .21899414 .11528015 .20298767 .053268434 .16799927 .011245728 .12399292 .011245728 .117996219 .011245728 .09498596 .011245728 .07398987 .024276734 .09899902 .029266358 .12098694 .05027771 .12098694 .07827759 .12098694 .105270389 .09899902 .11328125 .083999637 .11328125 .053985597 .11328125 .0289917 .08728027 .0289917 .055267335 .0289917 .009246826 .07899475-.0107421879 .12298584-.0107421879 .18899536-.0107421879 .22499085 .059280397 .22799683 .0652771 .23999024 .028274537 .27598573-.0107421879 .33599855-.0107421879 .43899537-.0107421879 .49598695 .118270877 .49598695 .14328003 .49598695 .1532898 .4869995 .1532898 .48399354 .1532898 .47499085 .1532898 .47299195 .14929199 .47099305 .14228821 .43798829 .03527832 .36999513 .011245728 .33799745 .011245728 .29899598 .011245728 .2829895 .043273927 .2829895 .07727051 .2829895 .09927368 .2889862 .121276859 .2999878 .16529846L.33399964 .30233766Z"/>
<path id="font_3_3" d="M.48599244 .38136292C.48999024 .39537049 .48999024 .39736939 .48999024 .40437318 .48999024 .42237855 .47599793 .43138124 .46099855 .43138124 .45098878 .43138124 .43499757 .42536927 .42599488 .41036988 .42399598 .405365 .41600038 .37435914 .4119873 .35635377 .40499879 .33035279 .397995 .30334474 .3919983 .27633668L.34700013 .09628296C.34298707 .08126831 .2999878 .011245728 .23399353 .011245728 .18299866 .011245728 .17199707 .055267335 .17199707 .0922699 .17199707 .1382904 .18899536 .20030213 .22299195 .28833009 .23899842 .3293457 .24299622 .3403473 .24299622 .36035157 .24299622 .405365 .21099854 .4423828 .16099549 .4423828 .06599426 .4423828 .0289917 .29733277 .0289917 .28833009 .0289917 .27833558 .038986207 .27833558 .040985109 .27833558 .050994874 .27833558 .051986696 .28033448 .056991579 .29634095 .083999637 .3903656 .12399292 .42037965 .1579895 .42037965 .1659851 .42037965 .18299866 .42037965 .18299866 .3883667 .18299866 .36335755 .17298889 .3373413 .1659851 .31834413 .12599182 .21231079 .10798645 .1552887 .10798645 .10827637 .10798645 .019256592 .17098999-.0107421879 .22999573-.0107421879 .2689972-.0107421879 .30299378 .0062561037 .33099366 .03425598 .31799317-.017745972 .30599977-.06674194 .2659912-.11973572 .23999024-.15385437 .20199585-.18309021 .1559906-.18309021 .14199829-.18309021 .09700012-.18005371 .07998657-.14074707 .09599304-.14074707 .10899353-.14074707 .12298584-.1287384 .1329956-.11973572 .14299011-.10673523 .14299011-.08773804 .14299011-.056747438 .115997318-.052734376 .10598755-.052734376 .08299255-.052734376 .049987794-.068740848 .049987794-.11773682 .049987794-.16796875 .09399414-.20507813 .1559906-.20507813 .25898744-.20507813 .3619995-.11373901 .3899994-.00074768069L.48599244 .38136292Z"/>
</defs>
<path transform="matrix(1.00006,0,0,-1.00008,26.342728,166.54126)" stroke-width=".19925" stroke-linecap="butt" stroke-miterlimit="10" stroke-linejoin="miter" fill="none" stroke="#7f807f" d="M19.42722 78.57375V82.82564M38.85443 78.57375V82.82564M58.28165 78.57375V82.82564M77.70886 78.57375V82.82564M97.13608 78.57375V82.82564M116.5633 78.57375V82.82564M135.99051 78.57375V82.82564M155.41773 78.57375V82.82564M174.84494 78.57375V82.82564M194.27216 78.57375V82.82564"/>
<path transform="matrix(1.00006,0,0,-1.00008,26.342728,166.54126)" stroke-width=".19925" stroke-linecap="butt" stroke-miterlimit="10" stroke-linejoin="miter" fill="none" stroke="#7f807f" d="M-2.12581 0H2.12581M-2.12581 40.34984H2.12581M-2.12581 121.04955H2.12581M-2.12581 161.3994H2.12581"/>
<path transform="matrix(1.00006,0,0,-1.00008,26.342728,166.54126)" stroke-width=".3985" stroke-linecap="butt" stroke-miterlimit="10" stroke-linejoin="miter" fill="none" stroke="#000000" d="M0 80.69969H192.27964"/>
<path transform="matrix(1.00006,0,0,-1.00008,218.6339,85.83511)" d="M1.99252 0-1.19551 1.59401 0 0-1.19551-1.59401"/>
<path transform="matrix(1.00006,0,0,-1.00008,26.342728,166.54126)" stroke-width=".3985" stroke-linecap="butt" stroke-miterlimit="10" stroke-linejoin="miter" fill="none" stroke="#000000" d="M0 0V159.40688"/>
<path transform="matrix(0,-1.00008,-1.00006,-0,26.342728,7.121628)" d="M1.99252 0-1.19551 1.59401 0 0-1.19551-1.59401"/>
<use data-text="2" xlink:href="#font_1_3" transform="matrix(9.963197,0,0,-9.963397,43.280748,97.90276)"/>
<use data-text="4" xlink:href="#font_1_4" transform="matrix(9.963197,0,0,-9.963397,62.708909,97.90276)"/>
<use data-text="6" xlink:href="#font_1_6" transform="matrix(9.963197,0,0,-9.963397,82.13707,97.90276)"/>
<use data-text="8" xlink:href="#font_1_7" transform="matrix(9.963197,0,0,-9.963397,101.56524,97.90276)"/>
<use data-text="1" xlink:href="#font_1_2" transform="matrix(9.963197,0,0,-9.963397,118.50325,97.90276)"/>
<use data-text="0" xlink:href="#font_1_1" transform="matrix(9.963197,0,0,-9.963397,123.48485,97.90276)"/>
<use data-text="1" xlink:href="#font_1_2" transform="matrix(9.963197,0,0,-9.963397,137.93143,97.90276)"/>
<use data-text="2" xlink:href="#font_1_3" transform="matrix(9.963197,0,0,-9.963397,142.91303,97.90276)"/>
<use data-text="1" xlink:href="#font_1_2" transform="matrix(9.963197,0,0,-9.963397,157.35959,97.90276)"/>
<use data-text="4" xlink:href="#font_1_4" transform="matrix(9.963197,0,0,-9.963397,162.34119,97.90276)"/>
<use data-text="1" xlink:href="#font_1_2" transform="matrix(9.963197,0,0,-9.963397,176.78775,97.90276)"/>
<use data-text="6" xlink:href="#font_1_6" transform="matrix(9.963197,0,0,-9.963397,181.76935,97.90276)"/>
<use data-text="1" xlink:href="#font_1_2" transform="matrix(9.963197,0,0,-9.963397,196.21692,97.90276)"/>
<use data-text="8" xlink:href="#font_1_7" transform="matrix(9.963197,0,0,-9.963397,201.19852,97.90276)"/>
<use data-text="2" xlink:href="#font_1_3" transform="matrix(9.963197,0,0,-9.963397,215.64508,97.90276)"/>
<use data-text="0" xlink:href="#font_1_1" transform="matrix(9.963197,0,0,-9.963397,220.62668,97.90276)"/>
<use data-text="&#x2212;" xlink:href="#font_2_1" transform="matrix(9.963197,0,0,-9.963397,7.965622,169.33649)"/>
<use data-text="5" xlink:href="#font_1_5" transform="matrix(9.963197,0,0,-9.963397,15.715088,169.33649)"/>
<use data-text="&#x2212;" xlink:href="#font_2_1" transform="matrix(9.963197,0,0,-9.963397,.216156,128.98326)"/>
<use data-text="2" xlink:href="#font_1_3" transform="matrix(9.963197,0,0,-9.963397,7.965622,128.98326)"/>
<use data-text="." xlink:href="#font_3_1" transform="matrix(9.963197,0,0,-9.963397,12.9479069,128.98326)"/>
<use data-text="5" xlink:href="#font_1_5" transform="matrix(9.963197,0,0,-9.963397,15.715073,128.98326)"/>
<use data-text="2" xlink:href="#font_1_3" transform="matrix(9.963197,0,0,-9.963397,7.965622,48.69284)"/>
<use data-text="." xlink:href="#font_3_1" transform="matrix(9.963197,0,0,-9.963397,12.947922,48.69284)"/>
<use data-text="5" xlink:href="#font_1_5" transform="matrix(9.963197,0,0,-9.963397,15.715088,48.69284)"/>
<use data-text="5" xlink:href="#font_1_5" transform="matrix(9.963197,0,0,-9.963397,15.715088,8.339615)"/>
<path transform="matrix(1.00006,0,0,-1.00008,26.342728,166.54126)" stroke-width=".99628" stroke-linecap="butt" stroke-miterlimit="10" stroke-linejoin="miter" fill="none" stroke="#0000ff" d="M0 121.04955 .97621 124.66971 1.95245 128.16806 2.9287 131.53324 3.90494 134.7596 4.88116 137.8367 5.8574 140.75399 6.83365 143.50746 7.80989 146.085 8.78612 148.48259 9.76236 150.69135 10.73859 152.70723 11.71483 154.52378 12.69107 156.13373 13.6673 157.53871 14.64354 158.72823 15.61978 159.70229 16.59602 160.45763 17.57225 160.99266 18.5485 161.30496 19.52473 161.39455 20.50098 161.26059 21.47719 160.90308 22.45343 160.32447 23.42967 159.52555 24.40591 158.50711 25.38216 157.27402 26.35838 155.82869 27.33463 154.17516 28.31087 152.31906 29.28711 150.26364 30.26334 148.01696 31.23958 145.58385 32.2158 142.96758 33.19205 140.18264 34.16829 137.23386 35.14452 134.12532 36.12076 130.8707 37.097 127.47726 38.07324 123.95474 39.04947 120.31195 40.02571 116.5586 41.00195 112.7052 41.9782 108.76704 42.9544 104.7482 43.93065 100.6632 44.90689 96.52328 45.88313 92.33902 46.85938 88.12244 47.8356 83.8849 48.81184 79.64252 49.78809 75.40013 50.76433 71.17229 51.74055 66.97105 52.7168 62.80775 53.69302 58.69287 54.66927 54.63852 55.64551 50.65921 56.62173 46.75902 57.59798 42.95805 58.57422 39.25636 59.55046 35.6733 60.52669 32.21127 61.50293 28.88725 62.47917 25.70285 63.45541 22.67175 64.43163 19.80289 65.40787 17.10268 66.38411 14.57838 67.36035 12.23648 68.3366 10.08502 69.31282 8.12807 70.28906 6.37202 71.2653 4.82181 72.24155 3.4838 73.21777 2.35562 74.19402 1.44693 75.17024 .75694 76.14648 .2905 77.12271 .04276 78.09895 .02097 79.0752 .22272 80.05144 .64398 81.02768 1.29036 82.0039 2.15627 82.98015 3.23846 83.95639 4.53531 84.93262 6.04198 85.90884 7.75766 86.88509 9.67345 87.86133 11.78699 88.83757 14.09016 89.81381 16.57893 90.79004 19.24364 91.76628 22.07942 92.74252 25.07823 93.71877 28.22955 94.69499 31.52855 95.67122 34.96152 96.64746 38.52037 97.6237 42.19786 98.59999 45.98268 99.57613 49.8611 100.55244 53.82588 101.52858 57.8649 102.5049 61.96927 103.48119 66.1229 104.45732 70.31767 105.43364 74.5407 106.40976 78.78146 107.38606 83.02547 108.36237 87.26541 109.3385 91.48682 110.31482 95.67755 111.29095 99.82632 112.26726 103.92506 113.24356 107.95761 114.2197 111.91432 115.19601 115.78549 116.17213 119.55983 117.14844 123.2252 118.12474 126.77437 119.10088 130.19522 120.07718 133.4789 121.05331 136.6165 122.02963 139.59917 123.00594 142.41881 123.98207 145.0698 124.95837 147.5392 125.93451 149.82463 126.91083 151.9204 127.88712 153.81766 128.86324 155.51236 129.83956 157.00125 130.81569 158.27632 131.792 159.33832 132.7683 160.18245 133.74443 160.80625 134.72075 161.20732 135.69689 161.38729 136.6732 161.3429 137.64949 161.07418 138.62561 160.58513 139.60193 159.87416 140.57807 158.94532 141.55437 157.79615 142.53067 156.43636 143.5068 154.86675 144.48313 153.08974 145.45926 151.11502 146.43556 148.945 147.41187 146.58454 148.388 144.0433 149.3643 141.32534 150.34044 138.44194 151.31674 135.39633 152.29305 132.19982 153.26918 128.86046 154.24549 125.38797 155.22162 121.79198 156.19794 118.08221 157.17424 114.26834 158.15038 110.36247 159.12667 106.3743 160.1028 102.3143 161.07912 98.19618 162.05542 94.02724 163.03154 89.8244 164.00786 85.59332 164.984 81.35094 165.96031 77.10612 166.9366 72.87181 167.91274 68.65767 168.88906 64.47662 169.86519 60.34401 170.84149 56.26382 171.81778 52.25223 172.79392 48.32054 173.77024 44.47601 174.74637 40.73396 175.72267 37.10007 176.69898 33.59042 177.67511 30.21074 178.65143 26.9674 179.62757 23.875 180.60385 20.94156 181.58016 18.17113 182.55629 15.57503 183.53261 13.15887 184.50875 10.92834 185.48505 8.89308 186.46135 7.05556 187.43749 5.4214 188.41379 3.99544 189.38993 2.78413 190.36624 1.78668 191.34253 1.00713 192.31867 .44948 193.29497 .11456 194.2711 .0016"/>
<use data-text="x" xlink:href="#font_3_2" transform="matrix(9.963197,0,0,-9.963397,211.41182,82.31452)"/>
<use data-text="y" xlink:href="#font_3_3" transform="matrix(9.963197,0,0,-9.963397,29.862938,12.93898)"/>
</svg>
