<svg xmlns="http://www.w3.org/2000/svg" xmlns:xlink="http://www.w3.org/1999/xlink" xmlns:inkscape="http://www.inkscape.org/namespaces/inkscape" version="1.1" width="207" height="171" viewBox="0 0 207 171">
<defs>
<path id="font_1_1" d="M.6589966 .23046875C.6759949 .23046875 .69400027 .23046875 .69400027 .25045777 .69400027 .27046205 .6759949 .27046205 .6589966 .27046205H.117996219C.100997928 .27046205 .08299255 .27046205 .08299255 .25045777 .08299255 .23046875 .100997928 .23046875 .117996219 .23046875H.6589966Z"/>
<path id="font_2_3" d="M.1269989 .07699585 .23298645 .18003845C.3889923 .31811524 .44898988 .3721466 .44898988 .47216798 .44898988 .5860901 .35899354 .6660156 .23699951 .6660156 .12399292 .6660156 .049987794 .57411196 .049987794 .48516847 .049987794 .4291687 .099990848 .4291687 .102996829 .4291687 .11999512 .4291687 .15499878 .44117738 .15499878 .48217774 .15499878 .5081787 .13699341 .5341797 .101989749 .5341797 .09399414 .5341797 .09199524 .5341797 .08898926 .5331726 .11199951 .59806826 .1659851 .63500979 .22399903 .63500979 .31498719 .63500979 .35798646 .5541382 .35798646 .47216798 .35798646 .39215089 .30799867 .31311036 .25299073 .25108338L.06098938 .036987306C.049987794 .025985718 .049987794 .023986817 .049987794 0H.42099L.44898988 .17404175H.42399598C.4189911 .14402771 .4119873 .1000061 .4019928 .084991458 .394989 .07699585 .32899476 .07699585 .30699159 .07699585H.1269989Z"/>
<path id="font_3_1" d="M.2649994 .37265016H.37799073C.34498597 .22489929 .33599855 .18196106 .33599855 .11508179 .33599855 .100097659 .33599855 .073150638 .34399415 .03919983 .35398866-.0047454836 .36499024-.0107421879 .37998963-.0107421879 .3999939-.0107421879 .42099 .007247925 .42099 .02722168 .42099 .033218385 .42099 .035202028 .4149933 .049179079 .38598634 .12106323 .38598634 .18595886 .38598634 .21391297 .38598634 .26683045 .3929901 .32073976 .4039917 .37265016H.5179901C.5309906 .37265016 .5669861 .37265016 .5669861 .406662 .5669861 .43066407 .54599 .43066407 .5269928 .43066407H.19198609C.16999817 .43066407 .13198853 .43066407 .08799744 .38365174 .052993776 .34469605 .026992798 .29878236 .026992798 .29379273 .026992798 .29278565 .026992798 .28379823 .038986207 .28379823 .04699707 .28379823 .04899597 .28779603 .054992677 .29577638 .10398865 .37265016 .1619873 .37265016 .18199158 .37265016H.23899842C.20698548 .25186158 .15299988 .13105774 .11099243 .04020691 .102996829 .025222779 .102996829 .023223877 .102996829 .016235352 .102996829-.002746582 .11898804-.0107421879 .13198853-.0107421879 .1619873-.0107421879 .16999817 .017242432 .18199158 .05418396 .19599915 .100097659 .19599915 .10209656 .20899964 .15202332L.2649994 .37265016Z"/>
<path id="font_2_2" d="M.2939911 .64004519C.2939911 .66400149 .2939911 .6660156 .2709961 .6660156 .20899964 .60227969 .12098694 .60227969 .08898926 .60227969V.57128909C.10899353 .57128909 .16799927 .57128909 .21998596 .5972748V.07902527C.21998596 .042999269 .21699524 .0309906 .1269989 .0309906H.09498596V0C.12998963 .0029907227 .21699524 .0029907227 .25698854 .0029907227 .29699708 .0029907227 .38398744 .0029907227 .4189911 0V.0309906H.3869934C.29699708 .0309906 .2939911 .041992189 .2939911 .07902527V.64004519Z"/>
<path id="font_2_1" d="M.45999146 .31976319C.45999146 .39982606 .45498658 .47988893 .41999818 .5539398 .37399293 .65000918 .2919922 .6660156 .25 .6660156 .18998719 .6660156 .116989139 .64001467 .07598877 .54693606 .04399109 .47789 .038986207 .39982606 .038986207 .31976319 .038986207 .24472046 .042999269 .15464783 .083999637 .07859802 .1269989-.0024719239 .19999695-.022460938 .24899292-.022460938 .30299378-.022460938 .3789978-.0014648438 .4229889 .09359741 .45498658 .16265869 .45999146 .2407074 .45999146 .31976319M.24899292-.00047302247C.20999146-.00047302247 .15098572 .024551392 .1329956 .12062073 .12199402 .18066406 .12199402 .2727356 .12199402 .3317871 .12199402 .39582826 .12199402 .46188355 .12998963 .5159149 .14898682 .63500979 .22399903 .64401248 .24899292 .64401248 .28199769 .64401248 .34799195 .6259918 .36698915 .52693179 .3769989 .47088624 .3769989 .39482118 .3769989 .3317871 .3769989 .25672914 .3769989 .18867493 .3659973 .12461853 .35099793 .029556275 .2939911-.00047302247 .24899292-.00047302247Z"/>
<path id="font_2_4" d="M.44898988 .20022583C.44898988 .3193512 .36698915 .41944886 .25898744 .41944886 .21099854 .41944886 .16799927 .40345765 .13198853 .36842347V.5637665C.1519928 .5577698 .18499756 .55078127 .21699524 .55078127 .33999635 .55078127 .4099884 .6417694 .4099884 .6547699 .4099884 .6607666 .40699769 .6657715 .3999939 .6657715 .39898683 .6657715 .39698792 .6657715 .3919983 .66278079 .37199403 .6537781 .32299806 .6337738 .2559967 .6337738 .21598816 .6337738 .16999817 .6407776 .12298584 .6617737 .114990238 .66477969 .11299133 .66477969 .11099243 .66477969 .100997928 .66477969 .100997928 .6567688 .100997928 .6407776V.34439088C.100997928 .32637025 .100997928 .31835938 .114990238 .31835938 .12199402 .31835938 .12399292 .32136537 .12799073 .32736207 .13899231 .3433838 .17599488 .39746095 .25698854 .39746095 .30899049 .39746095 .33399964 .35139466 .34199525 .33337403 .35798646 .29632569 .3600006 .25727845 .3600006 .20722962 .3600006 .17222595 .3600006 .11222839 .33599855 .07035828 .31199647 .031463624 .2749939 .0055389406 .22898865 .0055389406 .1559906 .0055389406 .09899902 .058380128 .08198547 .11723328 .084991458 .1162262 .08799744 .115234378 .09899902 .115234378 .13198853 .115234378 .14898682 .14022827 .14898682 .16423035 .14898682 .18823242 .13198853 .21322632 .09899902 .21322632 .084991458 .21322632 .049987794 .20622254 .049987794 .16023255 .049987794 .07434082 .11898804-.022460938 .23098755-.022460938 .34700013-.022460938 .44898988 .073349 .44898988 .20022583Z"/>
<path id="font_3_2" d="M.33399964 .30233766C.33999635 .32835389 .36299134 .42037965 .43299867 .42037965 .43798829 .42037965 .46199037 .42037965 .48298646 .40734864 .45498658 .402359 .43499757 .37734986 .43499757 .35334779 .43499757 .33735658 .44599916 .31835938 .47299195 .31835938 .49499513 .31835938 .5269928 .3363495 .5269928 .37635804 .5269928 .42837525 .46798707 .4423828 .43399049 .4423828 .37599183 .4423828 .34098817 .38935853 .32899476 .36634828 .3039856 .43237306 .25 .4423828 .22099304 .4423828 .116989139 .4423828 .05999756 .3133545 .05999756 .28834535 .05999756 .27833558 .069992069 .27833558 .07199097 .27833558 .07998657 .27833558 .08299255 .28033448 .084991458 .28933717 .11898804 .39535523 .18499756 .42037965 .21899414 .42037965 .23799134 .42037965 .272995 .4113617 .272995 .35334779 .272995 .32235719 .2559967 .25532533 .21899414 .11528015 .20298767 .053268434 .16799927 .011245728 .12399292 .011245728 .117996219 .011245728 .09498596 .011245728 .07398987 .024276734 .09899902 .029266358 .12098694 .05027771 .12098694 .07827759 .12098694 .105270389 .09899902 .11328125 .083999637 .11328125 .053985597 .11328125 .0289917 .08728027 .0289917 .055267335 .0289917 .009246826 .07899475-.0107421879 .12298584-.0107421879 .18899536-.0107421879 .22499085 .059280397 .22799683 .0652771 .23999024 .028274537 .27598573-.0107421879 .33599855-.0107421879 .43899537-.0107421879 .49598695 .118270877 .49598695 .14328003 .49598695 .1532898 .4869995 .1532898 .48399354 .1532898 .47499085 .1532898 .47299195 .14929199 .47099305 .14228821 .43798829 .03527832 .36999513 .011245728 .33799745 .011245728 .29899598 .011245728 .2829895 .043273927 .2829895 .07727051 .2829895 .09927368 .2889862 .121276859 .2999878 .16529846L.33399964 .30233766Z"/>
<path id="font_3_3" d="M.48599244 .38136292C.48999024 .39537049 .48999024 .39736939 .48999024 .40437318 .48999024 .42237855 .47599793 .43138124 .46099855 .43138124 .45098878 .43138124 .43499757 .42536927 .42599488 .41036988 .42399598 .405365 .41600038 .37435914 .4119873 .35635377 .40499879 .33035279 .397995 .30334474 .3919983 .27633668L.34700013 .09628296C.34298707 .08126831 .2999878 .011245728 .23399353 .011245728 .18299866 .011245728 .17199707 .055267335 .17199707 .0922699 .17199707 .1382904 .18899536 .20030213 .22299195 .28833009 .23899842 .3293457 .24299622 .3403473 .24299622 .36035157 .24299622 .405365 .21099854 .4423828 .16099549 .4423828 .06599426 .4423828 .0289917 .29733277 .0289917 .28833009 .0289917 .27833558 .038986207 .27833558 .040985109 .27833558 .050994874 .27833558 .051986696 .28033448 .056991579 .29634095 .083999637 .3903656 .12399292 .42037965 .1579895 .42037965 .1659851 .42037965 .18299866 .42037965 .18299866 .3883667 .18299866 .36335755 .17298889 .3373413 .1659851 .31834413 .12599182 .21231079 .10798645 .1552887 .10798645 .10827637 .10798645 .019256592 .17098999-.0107421879 .22999573-.0107421879 .2689972-.0107421879 .30299378 .0062561037 .33099366 .03425598 .31799317-.017745972 .30599977-.06674194 .2659912-.11973572 .23999024-.15385437 .20199585-.18309021 .1559906-.18309021 .14199829-.18309021 .09700012-.18005371 .07998657-.14074707 .09599304-.14074707 .10899353-.14074707 .12298584-.1287384 .1329956-.11973572 .14299011-.10673523 .14299011-.08773804 .14299011-.056747438 .115997318-.052734376 .10598755-.052734376 .08299255-.052734376 .049987794-.068740848 .049987794-.11773682 .049987794-.16796875 .09399414-.20507813 .1559906-.20507813 .25898744-.20507813 .3619995-.11373901 .3899994-.00074768069L.48599244 .38136292Z"/>
</defs>
<path transform="matrix(1.00005,0,0,-1.00006,8.079704,166.5352)" stroke-width=".19925" stroke-linecap="butt" stroke-miterlimit="10" stroke-linejoin="miter" fill="none" stroke="#7f807f" d="M1.52171 79.28084V82.1155M13.47325 79.28084V82.1155M25.42479 79.28084V82.1155M37.37634 79.28084V82.1155M49.32788 79.28084V82.1155M61.27942 79.28084V82.1155M73.23096 79.28084V82.1155M85.18251 79.28084V82.1155M97.13405 79.28084V82.1155M109.0856 79.28084V82.1155M121.03714 79.28084V82.1155M132.9887 79.28084V82.1155M144.94023 79.28084V82.1155M156.89179 79.28084V82.1155M168.84334 79.28084V82.1155M180.79488 79.28084V82.1155M192.74643 79.28084V82.1155"/>
<path transform="matrix(1.00005,0,0,-1.00006,8.079704,166.5352)" stroke-width=".19925" stroke-linecap="butt" stroke-miterlimit="10" stroke-linejoin="miter" fill="none" stroke="#7f807f" d="M1.52171 78.57237V82.82396M49.32788 78.57237V82.82396M144.94023 78.57237V82.82396M192.74643 78.57237V82.82396"/>
<path transform="matrix(1.00005,0,0,-1.00006,8.079704,166.5352)" stroke-width=".19925" stroke-linecap="butt" stroke-miterlimit="10" stroke-linejoin="miter" fill="none" stroke="#7f807f" d="M95.00816 0H99.25996M95.00816 40.34909H99.25996M95.00816 121.04727H99.25996M95.00816 161.39636H99.25996"/>
<path transform="matrix(1.00005,0,0,-1.00006,8.079704,166.5352)" stroke-width=".3985" stroke-linecap="butt" stroke-miterlimit="10" stroke-linejoin="miter" fill="none" stroke="#000000" d="M0 80.69818H192.2756"/>
<path transform="matrix(1.00005,0,0,-1.00006,200.3649,85.832187)" d="M1.99252 0-1.19551 1.59401 0 0-1.19551-1.59401"/>
<path transform="matrix(1.00005,0,0,-1.00006,8.079704,166.5352)" stroke-width=".3985" stroke-linecap="butt" stroke-miterlimit="10" stroke-linejoin="miter" fill="none" stroke="#000000" d="M97.13405 0V159.40384"/>
<path transform="matrix(0,-1.00006,-1.00005,-0,105.218608,7.121811)" d="M1.99252 0-1.19551 1.59401 0 0-1.19551-1.59401"/>
<use data-text="&#x2212;" xlink:href="#font_1_1" transform="matrix(9.963098,0,0,-9.963197,.21730805,97.899089)"/>
<use data-text="2" xlink:href="#font_2_3" transform="matrix(9.963098,0,0,-9.963197,7.9666979,97.899089)"/>
<use data-text="&#x03c0;" xlink:href="#font_3_1" transform="matrix(9.963098,0,0,-9.963197,12.947945,97.899089)"/>
<use data-text="&#x2212;" xlink:href="#font_1_1" transform="matrix(9.963098,0,0,-9.963197,50.516828,97.290058)"/>
<use data-text="&#x03c0;" xlink:href="#font_3_1" transform="matrix(9.963098,0,0,-9.963197,58.266218,97.290058)"/>
<use data-text="&#x03c0;" xlink:href="#font_3_1" transform="matrix(9.963098,0,0,-9.963197,150.00879,95.76796)"/>
<use data-text="2" xlink:href="#font_2_3" transform="matrix(9.963098,0,0,-9.963197,195.32605,97.899089)"/>
<use data-text="&#x03c0;" xlink:href="#font_3_1" transform="matrix(9.963098,0,0,-9.963197,200.30731,97.899089)"/>
<use data-text="&#x2212;" xlink:href="#font_1_1" transform="matrix(9.963098,0,0,-9.963197,81.86039,169.33037)"/>
<use data-text="1" xlink:href="#font_2_2" transform="matrix(9.963098,0,0,-9.963197,89.60978,169.33037)"/>
<use data-text="0" xlink:href="#font_2_1" transform="matrix(9.963098,0,0,-9.963197,94.591327,169.33037)"/>
<use data-text="&#x2212;" xlink:href="#font_1_1" transform="matrix(9.963098,0,0,-9.963197,86.841648,128.97895)"/>
<use data-text="5" xlink:href="#font_2_4" transform="matrix(9.963098,0,0,-9.963197,94.591037,128.97895)"/>
<use data-text="5" xlink:href="#font_2_4" transform="matrix(9.963098,0,0,-9.963197,94.59103,48.69114)"/>
<use data-text="1" xlink:href="#font_2_2" transform="matrix(9.963098,0,0,-9.963197,89.60978,8.339706)"/>
<use data-text="0" xlink:href="#font_2_1" transform="matrix(9.963098,0,0,-9.963197,94.59133,8.339706)"/>
<path transform="matrix(1.00005,0,0,-1.00006,8.079704,166.5352)" stroke-width=".99628" stroke-linecap="butt" stroke-miterlimit="10" stroke-linejoin="miter" fill="none" stroke="#0000ff" d="M4.40836 24.09174 1.56157 24.20782 1.60144 24.20702 1.64133 24.2054 1.68118 24.20299 1.72105 24.19894 1.76093 24.19652 1.80078 24.19168 1.84067 24.18684 1.88054 24.18118 1.92041 24.17555 1.96027 24.16908 2.00015 24.1602 2.04002 24.15294 2.0799 24.14247 2.11975 24.13277 2.15964 24.1231 2.19951 24.11179 2.23936 24.09969 2.27924 24.0884 2.31912 24.07466 2.35898 24.06175 2.39885 24.04643 2.43872 24.0319 2.47859 24.01576 2.51846 23.99963 2.55833 23.98105 2.5982 23.96411 2.63808 23.94556 2.67795 23.9262 2.71782 23.90602 2.75769 23.88504 2.79755 23.86406 2.83743 23.84225 2.8773 23.81886 2.91718 23.79546 2.95703 23.77043 2.99692 23.74623 3.03679 23.7204 3.07666 23.69298 3.11652 23.66714 3.15639 23.6389 3.19627 23.60985 3.23613 23.57999 3.276 23.55014 3.31587 23.51866 3.35576 23.488 3.39561 23.45572 3.43549 23.421 3.47536 23.38794 3.51523 23.35405 3.5551 23.31773 3.59497 23.28061 3.63484 23.24348 3.67471 23.20555 3.71458 23.16602 3.75446 23.12648 3.79433 23.08774 3.83418 23.04576 3.87407 23.00381 3.91394 22.96022 3.9538 22.91666 3.99367 22.87065 4.03355 22.82788 4.07341 22.78108 4.11328 22.73267 4.15315 22.68425 4.19304 22.63583 4.2329 22.58498 4.27277 22.53415 4.31264 22.48412 4.35252 22.43004 4.39238 22.37596 4.43225 22.32271 4.47212 22.26622 4.51198 22.20975 4.55186 22.15245 4.59174 22.09355 4.6316 22.03462 4.67146 21.9741 4.71135 21.91357 4.75122 21.85144 4.79109 21.78688 4.83095 21.72313 4.87083 21.65695 4.9107 21.58998 4.95056 21.5238 4.99043 21.4544 5.03032 21.38501 5.07019 21.31319 5.11005 21.24136 5.14992 21.16792 5.18979 21.09369 5.22966 21.01865 5.26953 20.94116 5.3094 20.8637 5.34927 20.7846 5.38914 20.70473 5.42902 20.6224 5.46889 20.5401 5.50876 20.45697 5.54863 20.37143 5.5885 20.28348 5.62837 20.19713 5.66823 20.10593 5.70811 20.01636 5.74799 19.92438 5.78784 19.83157 5.82771 19.73552 5.86758 19.63951 5.90747 19.54347 5.94734 19.44421 5.9872 19.34334 6.02707 19.24165 6.06694 19.13754 6.10681 19.03104 6.14668 18.92531 6.18655 18.81718 6.22644 18.70581 6.2663 18.59526 6.30617 18.48228 6.34604 18.3677 6.38591 18.24907 6.42578 18.13287 6.46565 18.01183 6.50552 17.88997 6.54538 17.7665 6.58527 17.63979 6.62514 17.51309 6.665 17.38237 6.70486 17.25165 6.74475 17.11769 6.7846 16.98212 6.82448 16.84573 6.86435 16.70694 6.90424 16.5649 6.9441 16.42126 6.98396 16.2752 7.02383 16.12509 7.0637 15.97662 7.10358 15.82329 7.14345 15.66753 7.18332 15.51018 7.22319 15.3512 7.26306 15.18819 7.30293 15.02194 7.3428 14.85571 7.38266 14.68625 7.42255 14.51193 7.46242 14.33763 7.50227 14.15848 7.54214 13.97691 7.58203 13.79291 7.6219 13.6057 7.66176 13.41606 7.70163 13.22319 7.74152 13.0271 7.78137 12.82777 7.82124 12.6244 7.86111 12.41943 7.90099 12.21124 7.94087 11.99657 7.98073 11.78111 8.0206 11.56161 8.06046 11.33809 8.10034 11.10971 8.14021 10.87971 8.18008 10.64326 8.21996 10.4044 8.25983 10.15988 8.2997 9.91455 8.33957 9.66037 8.37943 9.40456 8.41931 9.14632 8.45918 8.88002 8.49904 8.61049 8.53891 8.33449 8.57878 8.05608 8.61867 7.77122 8.65852 7.4807 8.6984 7.18697 8.73827 6.88515 8.77814 6.57849 8.81801 6.26862 8.85788 5.94905 8.89775 5.62546 8.93764 5.29541 8.9775 4.96051 9.01736 4.61592 9.05722 4.26892 9.0971 3.91304 9.13698 3.54828 9.17685 3.17868 9.21672 2.80101 9.25658 2.41528 9.29646 2.01906 9.33633 1.61879 9.37619 1.21046 9.41606 .79002 9.18729 3.23962"/>
<path transform="matrix(-.9991599,-.040742443,-.040742034,.9991699,12.488285,142.44202)" d="M2.8892 0-1.73352 2.31136 0 0-1.73352-2.31136" fill="#0000ff"/>
<path transform="matrix(.092994648,.9956597,.9956497,-.09299558,17.267434,163.29537)" d="M2.8892 0-1.73352 2.31136 0 0-1.73352-2.31136" fill="#0000ff"/>
<path transform="matrix(1.00005,0,0,-1.00006,8.079704,166.5352)" stroke-width=".99628" stroke-linecap="butt" stroke-miterlimit="10" stroke-linejoin="miter" fill="none" stroke="#0000ff" d="M15.17812 157.48111 15.23537 153.90676 15.3388 148.16185 15.44226 143.02783 15.5457 138.41593 15.64915 134.24948 15.7526 130.45667 15.85603 127.00519 15.95949 123.84427 16.06293 120.94557 16.16638 118.27045 16.26984 115.79623 16.37326 113.5044 16.47672 111.37477 16.58017 109.39203 16.68361 107.53516 16.78706 105.80338 16.8905 104.18134 16.99394 102.65776 17.0974 101.22295 17.20085 99.86882 17.30429 98.5946 17.40773 97.39139 17.51118 96.25194 17.61462 95.1738 17.71808 94.15056 17.82153 93.17975 17.92496 92.25658 18.02841 91.37938 18.13187 90.54254 18.2353 89.74684 18.33876 88.98749 18.4422 88.26282 18.54564 87.57123 18.6491 86.9095 18.75255 86.27682 18.85599 85.67079 18.95943 85.09138 19.06288 84.53618 19.16632 84.00276 19.26978 83.49435 19.37323 83.00533 19.47665 82.53325 19.58011 82.08134 19.68356 81.64961 19.787 81.2332 19.89046 80.83295 19.9939 80.4488 20.09734 80.0768 20.20079 79.72253 20.30424 79.38116 20.40767 79.05193 20.51112 78.73398 20.61458 78.43056 20.71802 78.13681 20.82147 77.85435 20.92491 77.58243 21.02835 77.32095 21.1318 77.06998 21.23526 76.82869 21.3387 76.59628 21.44215 76.37195 21.5456 76.15646 21.64903 75.9507 21.75249 75.75136 21.85594 75.5601 21.95938 75.37694 22.06282 75.20262 22.16628 75.03316 22.26971 74.87096 22.37317 74.71602 22.47662 74.56834 22.58005 74.4263 22.6835 74.29073 22.78696 74.16 22.8904 74.03734 22.99385 73.92033 23.09729 73.80817 23.20073 73.70244 23.30418 73.60156 23.40764 73.50554 23.51108 73.41678 23.61452 73.33041 23.71797 73.25134 23.82141 73.1771 23.92487 73.1077 24.0283 73.04395 24.13174 72.98343 24.2352 72.92775 24.33865 72.87851 24.4421 72.83333 24.54553 72.79218 24.64899 72.75505 24.75243 72.72517 24.85588 72.69775 24.95934 72.67514 25.06276 72.6566 25.16621 72.64207 25.26967 72.6332 25.37311 72.62997H25.47656L25.58002 72.6332 25.68344 72.64207 25.7869 72.6566 25.89034 72.67514 25.99379 72.69775 26.09724 72.72517 26.20068 72.75505 26.30412 72.79218 26.40756 72.83333 26.51103 72.87851 26.61447 72.92775 26.71791 72.98343 26.82137 73.04395 26.92479 73.1077 27.02826 73.1771 27.13171 73.25134 27.23514 73.33203 27.3386 73.41678 27.44203 73.50635 27.54549 73.60156 27.64894 73.70244 27.75238 73.80817 27.85582 73.92033 27.95926 74.03734 28.06273 74.16 28.16617 74.29073 28.2696 74.4263 28.37306 74.56834 28.47649 74.71602 28.57996 74.87096 28.68341 75.03316 28.78683 75.20262 28.89029 75.37694 28.99373 75.5601 29.09717 75.75218 29.20064 75.9507 29.30408 76.15729 29.40752 76.37195 29.51096 76.59628 29.61441 76.82869 29.71786 77.06998 29.8213 77.32095 29.92476 77.58243 30.02818 77.85435 30.13164 78.13681 30.2351 78.43056 30.33853 78.73398 30.44199 79.05193 30.54543 79.38116 30.64888 79.72333 30.75233 80.0784 30.85577 80.4488 30.95921 80.83295 31.06265 81.2348 31.16612 81.64961 31.26956 82.08295 31.373 82.53325 31.47646 83.00533 31.57988 83.49435 31.68335 84.00356 31.7868 84.53697 31.89023 85.09218 31.99368 85.67079 32.09712 86.27682 32.20058 86.9095 32.30403 87.57204 32.40747 88.26523 32.51091 88.9899 32.61435 89.74846 32.71782 90.54495 32.82126 91.37938 32.9247 92.25899 33.02815 93.17975 33.13158 94.15056 33.23505 95.1746 33.3385 96.25435 33.44193 97.39381 33.54538 98.5954 33.64882 99.87125 33.75227 101.22295 33.85573 102.65776 33.95915 104.18295 34.0626 105.80338 34.16605 107.53838 34.26949 109.39203 34.37296 111.37558 34.4764 113.50682 34.57983 115.79865 34.68327 118.27045 34.78673 120.94557 34.89018 123.84909 34.99362 127.01006 35.09708 130.4607 35.2005 134.24948 35.30396 138.41593 35.40742 143.0351 35.51085 148.1683 35.6143 153.9116 35.67154 157.48111"/>
<path transform="matrix(-.0159908,-.99990996,-.9998999,.01599096,23.258584,9.044662)" d="M2.8892 0-1.73352 2.31136 0 0-1.73352-2.31136" fill="#0000ff"/>
<path transform="matrix(.0159908,-.99990996,-.9998999,-.01599096,43.753026,9.044662)" d="M2.8892 0-1.73352 2.31136 0 0-1.73352-2.31136" fill="#0000ff"/>
<path transform="matrix(1.00005,0,0,-1.00006,8.079704,166.5352)" stroke-width=".99628" stroke-linecap="butt" stroke-miterlimit="10" stroke-linejoin="miter" fill="none" stroke="#0000ff" d="M41.66426 3.23946 41.4734 1.21046 41.55316 2.01987 41.63289 2.80022 41.71265 3.54828 41.79237 4.26892 41.87213 4.96051 41.95186 5.62465 42.03159 6.26862 42.11134 6.88515 42.19107 7.4807 42.27083 8.05608 42.35056 8.61049 42.43031 9.14713 42.51004 9.66199 42.58978 10.16069 42.66953 10.64326 42.74927 11.1089 42.82901 11.56161 42.90875 11.99818 42.9885 12.41943 43.06824 12.82777 43.14796 13.22319 43.22772 13.60732 43.30745 13.9777 43.38719 14.33763 43.46693 14.68625 43.54668 15.02194 43.62642 15.3512 43.70616 15.66833 43.7859 15.975 43.86565 16.2752 43.94539 16.5649 44.02512 16.84573 44.10487 17.11769 44.1846 17.38399 44.26436 17.64061 44.34409 17.88835 44.42384 18.13287 44.50357 18.3677 44.58331 18.59526 44.66306 18.81718 44.74278 19.03104 44.82254 19.24165 44.90227 19.44421 44.98203 19.63951 45.06175 19.83157 45.14151 20.01636 45.22124 20.19713 45.30098 20.37143 45.38072 20.5401 45.46046 20.70473 45.5402 20.8637 45.61995 21.01865 45.69969 21.16792 45.77943 21.31319 45.85916 21.4544 45.93892 21.58998 46.01865 21.72313 46.09839 21.85144 46.17813 21.9741 46.25787 22.09515 46.33762 22.20975 46.41736 22.32271 46.4971 22.43004 46.57683 22.53415 46.65659 22.63583 46.73631 22.73267 46.81607 22.82788 46.8958 22.91666 46.97556 23.00381 47.05528 23.08774 47.13504 23.16602 47.21477 23.24348 47.29451 23.31773 47.37425 23.38794 47.45398 23.45572 47.53374 23.51866 47.61346 23.57999 47.69322 23.6389 47.77295 23.69298 47.85269 23.74623 47.93243 23.79546 48.01218 23.84225 48.09192 23.88504 48.17166 23.9262 48.2514 23.96411 48.33115 23.99881 48.41089 24.0319 48.49063 24.06175 48.57036 24.0884 48.65012 24.11179 48.72984 24.13277 48.80959 24.15294 48.88933 24.16908 48.96907 24.18118 49.04881 24.19168 49.12854 24.19894 49.2083 24.2054 49.28802 24.20782H49.36778L49.44753 24.2054 49.52727 24.19894 49.607 24.19168 49.68674 24.18118 49.76648 24.16908 49.84624 24.15294 49.92596 24.13277 50.00572 24.11179 50.08543 24.08759 50.16518 24.06175 50.24493 24.0319 50.32466 23.99881 50.40442 23.96411 50.48415 23.9262 50.56389 23.88504 50.64363 23.84225 50.72337 23.79546 50.80312 23.74623 50.88286 23.69298 50.9626 23.6389 51.04234 23.5808 51.12207 23.51866 51.20183 23.45572 51.28156 23.38794 51.36131 23.31773 51.44106 23.24348 51.52078 23.16602 51.60052 23.08612 51.68025 23.00381 51.76001 22.91666 51.83975 22.82626 51.9195 22.73267 51.99922 22.63583 52.07896 22.53415 52.1587 22.43004 52.23846 22.32271 52.31819 22.20975 52.39795 22.09515 52.47768 21.9741 52.55742 21.85144 52.63716 21.72313 52.7169 21.58998 52.79665 21.4544 52.87637 21.31319 52.95613 21.16792 53.03586 21.01865 53.1156 20.8637 53.19534 20.70473 53.27509 20.5401 53.35483 20.37143 53.43459 20.1963 53.5143 20.01636 53.59406 19.83157 53.67378 19.63951 53.75354 19.44421 53.83328 19.24084 53.91302 19.03104 53.99275 18.81718 54.0725 18.59526 54.15224 18.3677 54.23198 18.13287 54.31172 17.88835 54.39146 17.64061 54.4712 17.38237 54.55093 17.11769 54.63069 16.84573 54.71042 16.5649 54.79018 16.2752 54.8699 15.97662 54.94966 15.66753 55.02939 15.3512 55.10913 15.02194 55.18887 14.68625 55.26862 14.33601 55.34836 13.97691 55.4281 13.6057 55.50784 13.22319 55.58757 12.82777 55.66731 12.41943 55.74706 11.99657 55.82681 11.56161 55.90654 11.1089 55.98628 10.64326 56.06601 10.16069 56.14577 9.66037 56.22551 9.14632 56.30525 8.61049 56.385 8.05608 56.46474 7.4807 56.54446 6.88515 56.62422 6.26862 56.70395 5.62465 56.78369 4.96051 56.86343 4.26729 56.94318 3.54828 57.02292 2.80022 57.10265 2.01906 57.1824 1.20883 56.99106 3.23941"/>
<path transform="matrix(-.093664679,.99559977,.99558976,.093665618,49.746049,163.29553)" d="M2.8892 0-1.73352 2.31136 0 0-1.73352-2.31136" fill="#0000ff"/>
<path transform="matrix(.09383468,.99558976,.9955797,-.09383562,65.07361,163.2956)" d="M2.8892 0-1.73352 2.31136 0 0-1.73352-2.31136" fill="#0000ff"/>
<path transform="matrix(1.00005,0,0,-1.00006,8.079704,166.5352)" stroke-width=".99628" stroke-linecap="butt" stroke-miterlimit="10" stroke-linejoin="miter" fill="none" stroke="#0000ff" d="M62.9843 157.48111 63.04155 153.90676 63.14499 148.16185 63.24843 143.02783 63.35188 138.41593 63.45534 134.24706 63.55878 130.45667 63.66222 127.00279 63.76567 123.84427 63.86911 120.94073 63.97256 118.2672 64.07602 115.79623 64.17944 113.5044 64.2829 111.37477 64.38635 109.3904 64.48979 107.53516 64.59325 105.80338 64.69669 104.18134 64.80013 102.65533 64.90358 101.22295 65.00703 99.86882 65.11047 98.5954 65.21391 97.39139 65.31737 96.25194 65.4208 95.1746 65.52426 94.15056 65.6277 93.17975 65.73114 92.25899 65.8346 91.37938 65.93803 90.54254 66.04149 89.74684 66.14494 88.98749 66.24837 88.26442 66.35182 87.57123 66.45528 86.9095 66.55872 86.27682 66.66217 85.67079 66.76561 85.09218 66.86905 84.53618 66.9725 84.00276 67.07596 83.49435 67.1794 83.00533 67.28284 82.53325 67.38629 82.08134 67.48973 81.64961 67.59319 81.2332 67.69664 80.83295 67.80006 80.44801 67.90352 80.0768 68.00697 79.72333 68.11041 79.38116 68.21385 79.05193 68.3173 78.73398 68.42075 78.42973 68.5242 78.13681 68.62766 77.85435 68.73108 77.58243 68.83453 77.32095 68.93799 77.06998 69.04143 76.82869 69.14488 76.59628 69.24834 76.37195 69.35176 76.15646 69.45522 75.9507 69.55867 75.75136 69.66211 75.5601 69.76556 75.37694 69.869 75.20262 69.97244 75.03316 70.0759 74.87096 70.17935 74.71602 70.28279 74.56834 70.38623 74.4263 70.48969 74.29073 70.59312 74.16 70.69658 74.03734 70.80003 73.92033 70.90346 73.80817 71.00691 73.70244 71.11037 73.60156 71.2138 73.50554 71.31726 73.41678 71.4207 73.33041 71.52414 73.25134 71.6276 73.1771 71.73105 73.1077 71.83447 73.04395 71.93793 72.98343 72.04138 72.92775 72.14482 72.87851 72.24828 72.83333 72.35172 72.79218 72.45515 72.75505 72.55861 72.72517 72.66206 72.69775 72.7655 72.67514 72.86894 72.6566 72.9724 72.64207 73.07584 72.6332 73.17929 72.62997H73.28275L73.38618 72.6332 73.48962 72.64207 73.59308 72.6566 73.6965 72.67514 73.79997 72.69775 73.90343 72.72517 74.00685 72.75505 74.1103 72.79218 74.21375 72.83333 74.3172 72.87851 74.42065 72.92775 74.5241 72.98343 74.62753 73.04395 74.73097 73.1077 74.83444 73.1771 74.93788 73.25134 75.04132 73.33203 75.14478 73.41678 75.2482 73.50635 75.35167 73.60156 75.45512 73.70244 75.55855 73.80817 75.662 73.92033 75.76544 74.03734 75.8689 74.1616 75.97235 74.29073 76.07579 74.4263 76.17923 74.56834 76.28267 74.71602 76.38614 74.87096 76.48958 75.03316 76.59302 75.20262 76.69647 75.37854 76.7999 75.5601 76.90335 75.75218 77.00682 75.9507 77.11024 76.15646 77.2137 76.37195 77.31714 76.59628 77.42058 76.82869 77.52405 77.06998 77.62749 77.32095 77.73093 77.58243 77.83437 77.85435 77.93782 78.13681 78.04128 78.43056 78.14471 78.73398 78.24817 79.05193 78.3516 79.38116 78.45506 79.72333 78.55852 80.0784 78.66194 80.4488 78.7654 80.83295 78.86884 81.2332 78.97229 81.64961 79.07574 82.08295 79.17918 82.53487 79.28262 83.00533 79.38606 83.49518 79.48953 84.00519 79.59297 84.53697 79.69641 85.09218 79.79987 85.67079 79.90329 86.27682 80.00676 86.9095 80.11021 87.57204 80.21364 88.26442 80.3171 88.9899 80.42053 89.74684 80.52399 90.54495 80.62744 91.37938 80.73088 92.25658 80.83432 93.17975 80.93776 94.15137 81.04123 95.1746 81.14467 96.25435 81.24811 97.3922 81.35156 98.5954 81.45499 99.86882 81.55846 101.22295 81.66191 102.66017 81.76534 104.18295 81.86879 105.8066 81.97223 107.53838 82.07567 109.39203 82.17914 111.37558 82.28258 113.50682 82.38602 115.79865 82.48946 118.27367 82.59291 120.94557 82.69637 123.84909 82.7998 127.00519 82.90326 130.4607 83.00668 134.24948 83.11014 138.42401 83.21361 143.0351 83.31703 148.1683 83.42049 153.9116 83.47772 157.48111"/>
<path transform="matrix(-.0159908,-.99990996,-.9998999,.01599096,71.067157,9.044662)" d="M2.8892 0-1.73352 2.31136 0 0-1.73352-2.31136" fill="#0000ff"/>
<path transform="matrix(.0159908,-.99990996,-.9998999,-.01599096,91.5616,9.044662)" d="M2.8892 0-1.73352 2.31136 0 0-1.73352-2.31136" fill="#0000ff"/>
<path transform="matrix(1.00005,0,0,-1.00006,8.079704,166.5352)" stroke-width=".99628" stroke-linecap="butt" stroke-miterlimit="10" stroke-linejoin="miter" fill="none" stroke="#0000ff" d="M89.47044 3.23946 89.2796 1.21046 89.35933 2.01987 89.43907 2.80022 89.51881 3.54828 89.59856 4.26892 89.6783 4.96051 89.75804 5.62546 89.83777 6.26862 89.91753 6.88515 89.99725 7.4807 90.07701 8.05608 90.15674 8.61049 90.2365 9.14713 90.31622 9.66037 90.39595 10.16069 90.47571 10.64409 90.55544 11.1089 90.6352 11.56161 90.71492 11.99818 90.79468 12.41943 90.8744 12.82777 90.95415 13.22319 91.03389 13.6057 91.11363 13.9777 91.19337 14.33763 91.27312 14.68625 91.35286 15.02357 91.4326 15.3512 91.51234 15.66753 91.59209 15.975 91.67181 16.2752 91.75156 16.5649 91.8313 16.84573 91.91104 17.11769 91.99078 17.38399 92.07051 17.64061 92.15027 17.88835 92.23 18.13287 92.30975 18.3677 92.38948 18.59526 92.46924 18.81718 92.54897 19.03265 92.62871 19.24165 92.70845 19.44421 92.7882 19.63951 92.86794 19.83157 92.94768 20.01636 93.02742 20.1963 93.10715 20.37143 93.1869 20.5401 93.26663 20.70473 93.34637 20.8637 93.42612 21.02025 93.50586 21.16792 93.5856 21.31319 93.66534 21.4544 93.74509 21.58998 93.82483 21.72313 93.90456 21.85144 93.98431 21.9741 94.06404 22.09515 94.1438 22.20975 94.22353 22.32271 94.30327 22.43004 94.38301 22.53415 94.46274 22.63583 94.5425 22.73267 94.62222 22.82788 94.70198 22.91666 94.78171 23.00381 94.86147 23.08612 94.9412 23.16602 95.02094 23.24348 95.10068 23.31773 95.18042 23.38794 95.26016 23.45572 95.3399 23.51947 95.41965 23.57999 95.49939 23.6389 95.57912 23.69458 95.65887 23.74704 95.7386 23.79546 95.81834 23.84225 95.89809 23.88504 95.97783 23.9262 96.05757 23.96411 96.1373 23.99881 96.21706 24.0319 96.29678 24.06175 96.37654 24.0884 96.45627 24.11179 96.53603 24.13277 96.61575 24.15294 96.6955 24.16908 96.77524 24.18118 96.85498 24.19168 96.93472 24.19894 97.01447 24.2054 97.09421 24.20782H97.17393L97.2537 24.2054 97.33342 24.19894 97.41318 24.19168 97.49289 24.18118 97.57265 24.16908 97.65239 24.15294 97.73213 24.13277 97.81187 24.11179 97.89162 24.0884 97.97134 24.06175 98.0511 24.0319 98.13083 23.99881 98.21059 23.96411 98.29031 23.9262 98.37006 23.88504 98.4498 23.84225 98.52953 23.79546 98.60928 23.74623 98.68901 23.69458 98.76877 23.6389 98.8485 23.57999 98.92824 23.51866 99.00798 23.45572 99.08772 23.38794 99.16747 23.31773 99.24721 23.24348 99.32693 23.16602 99.4067 23.08612 99.48642 23.00381 99.56618 22.91666 99.64592 22.82788 99.72566 22.73267 99.80539 22.63664 99.88512 22.53415 99.96487 22.43004 100.04462 22.32271 100.12436 22.20975 100.2041 22.09515 100.28383 21.9741 100.36357 21.85144 100.44333 21.72313 100.52306 21.58998 100.60281 21.4544 100.68254 21.31319 100.76228 21.16792 100.84203 21.01865 100.92177 20.8637 101.00151 20.70473 101.08125 20.5409 101.161 20.37143 101.24072 20.1963 101.32047 20.01636 101.4002 19.83157 101.47995 19.63951 101.5597 19.44421 101.63945 19.24165 101.71916 19.03104 101.79892 18.81718 101.87865 18.59526 101.9584 18.3677 102.03815 18.13287 102.11789 17.88997 102.19762 17.64061 102.27736 17.38399 102.3571 17.11769 102.43686 16.84573 102.51659 16.5649 102.59631 16.2752 102.67606 15.975 102.7558 15.66753 102.83556 15.3512 102.91528 15.02194 102.99504 14.68625 103.07475 14.33763 103.15451 13.9777 103.23425 13.60732 103.314 13.22319 103.39374 12.82777 103.47348 12.41943 103.5532 11.99657 103.63297 11.56161 103.71269 11.1089 103.79243 10.64326 103.87218 10.16069 103.95192 9.66199 104.03166 9.14632 104.11139 8.61049 104.19115 8.0577 104.27087 7.4807 104.35063 6.88515 104.43037 6.26862 104.51012 5.62546 104.58984 4.9597 104.66959 4.26892 104.74933 3.54828 104.82909 2.80022 104.90881 2.01987 104.98856 1.21046 104.79826 3.23792"/>
<path transform="matrix(-.093664679,.99559977,.99558976,.093665618,97.55462,163.29553)" d="M2.8892 0-1.73352 2.31136 0 0-1.73352-2.31136" fill="#0000ff"/>
<path transform="matrix(.09346467,.9956297,.9956197,-.093465607,112.88319,163.29708)" d="M2.8892 0-1.73352 2.31136 0 0-1.73352-2.31136" fill="#0000ff"/>
<path transform="matrix(1.00005,0,0,-1.00006,8.079704,166.5352)" stroke-width=".99628" stroke-linecap="butt" stroke-miterlimit="10" stroke-linejoin="miter" fill="none" stroke="#0000ff" d="M110.79048 157.48111 110.84773 153.90676 110.95117 148.1683 111.05461 143.02783 111.15807 138.41593 111.2615 134.24706 111.36496 130.4607 111.4684 127.00519 111.57184 123.84427 111.6753 120.94557 111.77875 118.2672 111.88219 115.79623 111.98563 113.5044 112.08908 111.37477 112.19252 109.3904 112.29597 107.53838 112.39943 105.80255 112.50285 104.18134 112.60631 102.65776 112.70976 101.22295 112.8132 99.86882 112.91666 98.5946 113.0201 97.39139 113.12354 96.25194 113.22699 95.1746 113.33044 94.15056 113.43388 93.17896 113.53732 92.25658 113.64078 91.37938 113.74422 90.54495 113.84767 89.74684 113.95111 88.98828 114.05455 88.26442 114.158 87.57123 114.26146 86.9087 114.3649 86.27682 114.46834 85.67079 114.5718 85.09218 114.67523 84.53618 114.77869 84.00356 114.88214 83.49435 114.98557 83.00533 115.08902 82.53325 115.19246 82.08295 115.29591 81.64961 115.39935 81.2332 115.50279 80.83295 115.60625 80.4488 115.7097 80.0784 115.81314 79.72333 115.91658 79.38116 116.02003 79.05193 116.12347 78.73398 116.22693 78.43056 116.33038 78.13681 116.4338 77.85435 116.53726 77.58243 116.64072 77.32095 116.74416 77.06998 116.84761 76.82869 116.95105 76.59628 117.05449 76.37195 117.15794 76.15729 117.2614 75.9507 117.36482 75.75218 117.46828 75.5601 117.57173 75.37694 117.67517 75.20262 117.77863 75.03316 117.88206 74.87096 117.9855 74.71602 118.08896 74.56834 118.19241 74.4263 118.29585 74.29073 118.39929 74.16 118.50275 74.03734 118.60619 73.92033 118.70964 73.80817 118.8131 73.70244 118.91652 73.59995 119.01997 73.50554 119.12343 73.41678 119.22687 73.33041 119.3303 73.25134 119.43376 73.1771 119.5372 73.1077 119.64066 73.04395 119.74411 72.98343 119.84753 72.92775 119.95099 72.87851 120.05444 72.83333 120.15788 72.79218 120.26134 72.75505 120.36478 72.72517 120.46822 72.69775 120.57167 72.67514 120.67513 72.6566 120.77856 72.64207 120.882 72.6332 120.98546 72.62997H121.0889L121.19235 72.6332 121.29579 72.64207 121.39923 72.6566 121.50269 72.67514 121.60614 72.69775 121.70958 72.72517 121.81302 72.75505 121.91647 72.79218 122.0199 72.83333 122.12337 72.87851 122.22682 72.92775 122.33025 72.98343 122.4337 73.04395 122.53714 73.1077 122.6406 73.1771 122.74405 73.25134 122.84749 73.33041 122.95093 73.41678 123.05437 73.50554 123.15784 73.60156 123.26128 73.70244 123.36472 73.80817 123.46817 73.92033 123.5716 74.03734 123.67506 74.16 123.77852 74.29073 123.88194 74.4263 123.9854 74.56834 124.08884 74.71602 124.19229 74.87096 124.29575 75.03316 124.39919 75.20262 124.50262 75.37694 124.60606 75.5601 124.70952 75.75218 124.81297 75.9507 124.91641 76.15729 125.01987 76.37195 125.12329 76.59628 125.22675 76.82869 125.33022 77.06998 125.43364 77.32095 125.5371 77.58243 125.64053 77.85435 125.74397 78.13762 125.84743 78.43056 125.95088 78.73398 126.05432 79.05193 126.15776 79.38116 126.26122 79.72333 126.36465 80.0768 126.46811 80.4488 126.57156 80.83295 126.67499 81.2332 126.77844 81.64961 126.8819 82.08134 126.98532 82.53325 127.08879 83.00533 127.19223 83.49435 127.29567 84.00356 127.39912 84.53697 127.50256 85.09218 127.60602 85.6724 127.70946 86.27682 127.81291 86.9087 127.91635 87.57204 128.01979 88.26442 128.12326 88.98828 128.22669 89.74684 128.33014 90.54495 128.4336 91.37938 128.53702 92.25899 128.64049 93.18137 128.74393 94.15056 128.84737 95.1746 128.95082 96.25194 129.05426 97.3922 129.15772 98.5954 129.26116 99.87125 129.36461 101.22295 129.46805 102.65776 129.57149 104.18295 129.67494 105.80338 129.77838 107.53838 129.88184 109.39203 129.98529 111.37558 130.08872 113.5044 130.19217 115.79623 130.29563 118.27045 130.39907 120.94557 130.50252 123.84909 130.60596 127.00519 130.7094 130.46555 130.81284 134.24706 130.9163 138.41593 131.01975 143.0351 131.12319 148.1683 131.22664 153.9116 131.28388 157.48111"/>
<path transform="matrix(-.0159908,-.99990996,-.9998999,.01599096,118.87572,9.044662)" d="M2.8892 0-1.73352 2.31136 0 0-1.73352-2.31136" fill="#0000ff"/>
<path transform="matrix(.0159908,-.99990996,-.9998999,-.01599096,139.37015,9.044662)" d="M2.8892 0-1.73352 2.31136 0 0-1.73352-2.31136" fill="#0000ff"/>
<path transform="matrix(1.00005,0,0,-1.00006,8.079704,166.5352)" stroke-width=".99628" stroke-linecap="butt" stroke-miterlimit="10" stroke-linejoin="miter" fill="none" stroke="#0000ff" d="M137.27663 3.23946 137.08577 1.21046 137.16551 2.01987 137.24526 2.80101 137.325 3.54828 137.40473 4.26892 137.48448 4.96051 137.56421 5.62546 137.64395 6.26862 137.7237 6.88515 137.80344 7.4807 137.88318 8.0577 137.96292 8.61049 138.04267 9.14632 138.1224 9.66199 138.20214 10.16069 138.28189 10.64326 138.36162 11.1089 138.44138 11.56161 138.5211 11.99818 138.60086 12.41943 138.68059 12.82777 138.76032 13.22319 138.84008 13.60732 138.9198 13.9777 138.99956 14.33763 139.07929 14.68625 139.15904 15.02194 139.23877 15.3512 139.31853 15.66753 139.39826 15.975 139.47801 16.2752 139.55774 16.5649 139.63748 16.84573 139.71723 17.11769 139.79697 17.38237 139.87671 17.64061 139.95645 17.88997 140.0362 18.13287 140.11592 18.3677 140.19567 18.59526 140.2754 18.81718 140.35515 19.03104 140.43489 19.24165 140.51464 19.44421 140.59438 19.63951 140.67412 19.83157 140.75386 20.01636 140.8336 20.1963 140.91333 20.37143 140.99309 20.5409 141.07282 20.70473 141.15258 20.8637 141.2323 21.02025 141.31206 21.16873 141.39179 21.31398 141.47151 21.4544 141.55127 21.58998 141.631 21.72313 141.71076 21.85144 141.79048 21.97571 141.87024 22.09515 141.94997 22.20975 142.02973 22.32271 142.10945 22.43004 142.1892 22.53415 142.26894 22.63664 142.34868 22.73267 142.42842 22.82788 142.50817 22.91666 142.5879 23.00381 142.66765 23.08612 142.74739 23.16602 142.82712 23.24348 142.90686 23.31773 142.9866 23.38794 143.06635 23.45572 143.14609 23.51947 143.22583 23.57999 143.30558 23.6389 143.38532 23.69298 143.46504 23.74623 143.5448 23.79546 143.62453 23.84225 143.70429 23.88504 143.78401 23.9262 143.86377 23.96411 143.9435 23.99881 144.02324 24.0319 144.10298 24.06175 144.18271 24.0884 144.26247 24.11179 144.3422 24.13277 144.42195 24.15294 144.50168 24.16908 144.58144 24.18118 144.66117 24.19168 144.7409 24.19894 144.82065 24.2054 144.90039 24.20782H144.98014L145.05989 24.2054 145.13962 24.19894 145.21936 24.19168 145.29909 24.18118 145.37883 24.16908 145.45859 24.15294 145.53832 24.13277 145.61806 24.11179 145.69779 24.0884 145.77754 24.06175 145.85729 24.0319 145.93703 23.99963 146.01677 23.96411 146.09651 23.9262 146.17624 23.88504 146.256 23.84225 146.33573 23.79546 146.41548 23.74623 146.49521 23.69298 146.57497 23.6389 146.6547 23.57999 146.73442 23.51866 146.81418 23.45572 146.8939 23.38794 146.97367 23.31773 147.0534 23.24348 147.13315 23.16602 147.21288 23.08612 147.29262 23.00381 147.37236 22.91666 147.45212 22.82788 147.53185 22.73267 147.61159 22.63664 147.69132 22.53415 147.77108 22.43004 147.85082 22.32271 147.93056 22.20975 148.0103 22.09515 148.09003 21.9741 148.16977 21.85144 148.24951 21.72313 148.32926 21.58998 148.409 21.4544 148.48874 21.31319 148.56848 21.16792 148.64823 21.01865 148.72795 20.8637 148.80771 20.70473 148.88744 20.5401 148.9672 20.37143 149.04694 20.1963 149.12667 20.01636 149.2064 19.83157 149.28615 19.63951 149.36589 19.44421 149.44564 19.24165 149.52538 19.03104 149.6051 18.81718 149.68485 18.59526 149.76459 18.3677 149.84435 18.13287 149.92407 17.88835 150.00383 17.64061 150.08356 17.38399 150.1633 17.11769 150.24304 16.84573 150.32279 16.5641 150.40253 16.2752 150.48227 15.975 150.56201 15.66753 150.64176 15.3512 150.72148 15.02194 150.80123 14.68625 150.88097 14.33763 150.96071 13.97691 151.04047 13.6057 151.1202 13.22319 151.19994 12.82777 151.27967 12.41943 151.35942 11.99657 151.43917 11.56161 151.5189 11.1089 151.59864 10.64326 151.67838 10.16069 151.75812 9.66199 151.83788 9.14632 151.9176 8.61049 151.99736 8.0577 152.07709 7.4807 152.15682 6.88515 152.23657 6.26862 152.3163 5.62465 152.39606 4.9597 152.47579 4.26729 152.55554 3.54828 152.63527 2.80022 152.71501 2.01987 152.79476 1.21046 152.6039 3.23946"/>
<path transform="matrix(-.093664679,.99559977,.99558976,.093665618,145.36319,163.29553)" d="M2.8892 0-1.73352 2.31136 0 0-1.73352-2.31136" fill="#0000ff"/>
<path transform="matrix(.093664679,.99559977,.99558976,-.093665618,160.69123,163.29553)" d="M2.8892 0-1.73352 2.31136 0 0-1.73352-2.31136" fill="#0000ff"/>
<path transform="matrix(1.00005,0,0,-1.00006,8.079704,166.5352)" stroke-width=".99628" stroke-linecap="butt" stroke-miterlimit="10" stroke-linejoin="miter" fill="none" stroke="#0000ff" d="M158.59665 157.48111 158.6539 153.9116 158.75734 148.1683 158.8608 143.0351 158.96424 138.41593 159.06769 134.24706 159.17115 130.4607 159.27457 127.00279 159.37802 123.84427 159.48148 120.94557 159.58492 118.27045 159.68837 115.79623 159.79181 113.5044 159.89525 111.37558 159.9987 109.39203 160.10216 107.53838 160.2056 105.80255 160.30904 104.18134 160.41249 102.65533 160.51593 101.22052 160.61939 99.87125 160.72284 98.5954 160.82627 97.3922 160.92972 96.25194 161.03318 95.1738 161.13661 94.15056 161.24007 93.17975 161.3435 92.25658 161.44695 91.37938 161.5504 90.54254 161.65386 89.74684 161.7573 88.98828 161.86074 88.26442 161.96419 87.57123 162.06763 86.9087 162.17108 86.27682 162.27454 85.67079 162.37796 85.09218 162.48142 84.53618 162.58487 84.00356 162.68831 83.49435 162.79177 83.00533 162.8952 82.53325 162.99864 82.08134 163.1021 81.64961 163.20555 81.2332 163.30899 80.83295 163.41243 80.4488 163.51589 80.0784 163.61933 79.72333 163.72278 79.38116 163.82622 79.05193 163.92966 78.73398 164.03311 78.42973 164.13657 78.13681 164.24 77.85435 164.34345 77.58243 164.4469 77.32095 164.55034 77.06998 164.6538 76.82869 164.75724 76.59628 164.86069 76.37195 164.96413 76.15646 165.06757 75.9507 165.17102 75.75136 165.27448 75.5601 165.37792 75.37694 165.48136 75.20262 165.58481 75.03316 165.68825 74.87096 165.7917 74.71602 165.89516 74.56834 165.99858 74.4263 166.10204 74.29073 166.20549 74.16 166.30893 74.03734 166.41239 73.92033 166.51583 73.80817 166.61927 73.70244 166.72272 73.60156 166.82617 73.50554 166.92961 73.41678 167.03305 73.33203 167.1365 73.25134 167.23995 73.1771 167.3434 73.1077 167.44684 73.04395 167.55028 72.98343 167.65373 72.92775 167.75719 72.87851 167.86063 72.83333 167.96407 72.79218 168.06752 72.75505 168.17096 72.72517 168.27442 72.69775 168.37787 72.67514 168.4813 72.6566 168.58475 72.64207 168.6882 72.6332 168.79164 72.62997H168.8951L168.99855 72.6332 169.10198 72.64207 169.20543 72.6566 169.30887 72.67514 169.41233 72.69775 169.51578 72.72517 169.61922 72.75505 169.72266 72.79218 169.8261 72.83333 169.92957 72.87851 170.033 72.92775 170.13645 72.98343 170.2399 73.04395 170.34333 73.1077 170.4468 73.1771 170.55025 73.25134 170.65367 73.33041 170.75713 73.41678 170.86057 73.50554 170.96402 73.59995 171.06748 73.70244 171.17092 73.80817 171.27436 73.92033 171.37779 74.03734 171.48126 74.16 171.5847 74.29073 171.68814 74.4263 171.7916 74.56834 171.89502 74.71602 171.99849 74.87177 172.10195 75.03316 172.20537 75.20262 172.30883 75.37694 172.41226 75.5601 172.5157 75.75218 172.61917 75.9507 172.72261 76.15729 172.82605 76.37195 172.92949 76.59628 173.03295 76.82869 173.1364 77.06998 173.23984 77.32095 173.34329 77.58243 173.44672 77.85435 173.55017 78.13681 173.65364 78.43056 173.75707 78.73398 173.86052 79.05193 173.96396 79.38116 174.06742 79.72253 174.17087 80.0784 174.2743 80.4488 174.37775 80.83455 174.48119 81.2348 174.58466 81.64961 174.6881 82.08295 174.79154 82.53487 174.89499 83.00533 174.99842 83.49518 175.10189 84.00356 175.20534 84.53697 175.30876 85.09218 175.41222 85.6724 175.51566 86.27682 175.61911 86.9095 175.72257 87.57204 175.826 88.26442 175.92945 88.9899 176.03289 89.74684 176.13636 90.54495 176.23979 91.37938 176.34323 92.25899 176.44669 93.18137 176.55011 94.15056 176.65358 95.1746 176.75704 96.25435 176.86046 97.3922 176.96392 98.5954 177.06735 99.86882 177.1708 101.22295 177.27426 102.65776 177.3777 104.18134 177.48114 105.80338 177.58458 107.53516 177.68804 109.39203 177.79149 111.37961 177.89493 113.5044 177.99839 115.79865 178.1018 118.27045 178.20526 120.94557 178.30873 123.84909 178.41216 127.01006 178.51561 130.4607 178.61905 134.25514 178.72249 138.42401 178.82596 143.0351 178.9294 148.1683 179.03284 153.9116 179.09012 157.4908"/>
<path transform="matrix(-.0159908,-.99990996,-.9998999,.01599096,166.68427,9.044662)" d="M2.8892 0-1.73352 2.31136 0 0-1.73352-2.31136" fill="#0000ff"/>
<path transform="matrix(.015980799,-.99990996,-.9998999,-.015980958,187.17874,9.034973)" d="M2.8892 0-1.73352 2.31136 0 0-1.73352-2.31136" fill="#0000ff"/>
<path transform="matrix(1.00005,0,0,-1.00006,8.079704,166.5352)" stroke-width=".99628" stroke-linecap="butt" stroke-miterlimit="10" stroke-linejoin="miter" fill="none" stroke="#0000ff" d="M185.08086 3.23962 184.85208 .79002 184.89194 1.21046 184.93183 1.61879 184.9717 2.01987 185.01155 2.41528 185.05142 2.80101 185.0913 3.17868 185.13118 3.54828 185.17104 3.91304 185.2109 4.26892 185.25078 4.61673 185.29067 4.96051 185.33052 5.29541 185.37039 5.62546 185.41027 5.94905 185.45014 6.26862 185.49 6.57849 185.52988 6.88515 185.56975 7.18697 185.60962 7.4807 185.64949 7.77122 185.68936 8.05608 185.72922 8.33691 185.76909 8.61049 185.80898 8.88002 185.84885 9.14632 185.8887 9.40456 185.92858 9.66199 185.96846 9.91455 186.00832 10.1615 186.04819 10.4044 186.08806 10.64326 186.12795 10.87971 186.1678 11.10971 186.20767 11.33809 186.24755 11.56161 186.28743 11.78111 186.32729 11.99657 186.36716 12.21124 186.40703 12.41943 186.44689 12.6244 186.48677 12.82777 186.52664 13.0271 186.56652 13.22319 186.60637 13.41606 186.64626 13.6057 186.68613 13.79291 186.72599 13.97691 186.76586 14.15848 186.80574 14.33763 186.84561 14.51193 186.88547 14.68625 186.92534 14.85571 186.96523 15.02194 187.00508 15.18819 187.04496 15.3512 187.08483 15.51018 187.1247 15.66753 187.16457 15.82329 187.20444 15.97662 187.24431 16.12509 187.28418 16.2752 187.32405 16.42126 187.36392 16.5649 187.4038 16.70694 187.44365 16.84573 187.48354 16.98212 187.5234 17.11769 187.56328 17.25165 187.60314 17.38237 187.64302 17.51309 187.68289 17.63979 187.72275 17.7665 187.76262 17.88997 187.80249 18.01183 187.84238 18.13287 187.88224 18.24907 187.9221 18.3677 187.96198 18.48228 188.00186 18.59526 188.04172 18.70581 188.08159 18.81718 188.12146 18.92531 188.16133 19.03104 188.2012 19.13754 188.24108 19.24165 188.28093 19.34334 188.32082 19.44421 188.36069 19.54347 188.40056 19.63951 188.44042 19.73552 188.48029 19.83157 188.52017 19.92438 188.56005 20.01636 188.5999 20.10593 188.63977 20.19713 188.67966 20.28348 188.71952 20.37143 188.75939 20.45697 188.79926 20.5401 188.83914 20.62321 188.879 20.70473 188.91887 20.7846 188.95874 20.8637 188.99861 20.94116 189.03849 21.01865 189.07836 21.09369 189.11823 21.16792 189.15808 21.24136 189.19797 21.31319 189.23784 21.38501 189.2777 21.4544 189.31757 21.5238 189.35746 21.58998 189.39733 21.65695 189.4372 21.72313 189.47705 21.78688 189.51694 21.85144 189.5568 21.91357 189.59667 21.9741 189.63654 22.03462 189.6764 22.09355 189.7163 22.15245 189.75615 22.20975 189.79602 22.26703 189.83589 22.32271 189.87577 22.37596 189.91564 22.43004 189.9555 22.48412 189.99536 22.53415 190.03525 22.58498 190.07512 22.63664 190.11499 22.68425 190.15485 22.73267 190.19474 22.78108 190.2346 22.82788 190.27446 22.87227 190.31433 22.91666 190.3542 22.96022 190.39409 23.00381 190.43396 23.04576 190.47382 23.08774 190.51369 23.12648 190.55356 23.16602 190.59343 23.20555 190.6333 23.24348 190.67317 23.28061 190.71306 23.31773 190.75292 23.35405 190.79279 23.38794 190.83266 23.421 190.87253 23.45572 190.9124 23.488 190.95227 23.51866 190.99213 23.55014 191.032 23.5808 191.07189 23.60985 191.11176 23.6389 191.15161 23.66714 191.19149 23.69298 191.23137 23.7204 191.27124 23.74623 191.3111 23.77043 191.35097 23.79546 191.39086 23.81886 191.43073 23.84225 191.47058 23.86406 191.51045 23.88504 191.55034 23.90602 191.5902 23.9262 191.63007 23.94556 191.66994 23.96411 191.70981 23.98105 191.74968 23.99963 191.78955 24.01576 191.82942 24.0319 191.86928 24.04643 191.90917 24.06175 191.94904 24.07466 191.9889 24.0884 192.02877 24.09969 192.06865 24.11179 192.10852 24.1231 192.14838 24.13277 192.18825 24.14247 192.22814 24.15294 192.268 24.1602 192.30786 24.16908 192.34774 24.17555 192.3876 24.18118 192.42749 24.18684 192.46735 24.19168 192.50722 24.19652 192.54708 24.19894 192.58696 24.20299 192.62683 24.2054 192.6667 24.20702 192.70658 24.20782 189.8598 24.09174"/>
<path transform="matrix(-.092994648,.9956597,.9956497,.09299558,193.16983,163.29537)" d="M2.8892 0-1.73352 2.31136 0 0-1.73352-2.31136" fill="#0000ff"/>
<path transform="matrix(.9991599,-.040742443,-.040742034,-.9991699,197.94898,142.44202)" d="M2.8892 0-1.73352 2.31136 0 0-1.73352-2.31136" fill="#0000ff"/>
<path transform="matrix(1.00005,0,0,-1.00006,8.079704,166.5352)" stroke-width=".3985" stroke-linecap="butt" stroke-dasharray="2.98883,2.98883" stroke-miterlimit="10" stroke-linejoin="miter" fill="none" stroke="#ff0000" d="M13.47325 0V161.39636"/>
<path transform="matrix(1.00005,0,0,-1.00006,8.079704,166.5352)" stroke-width=".3985" stroke-linecap="butt" stroke-dasharray="2.98883,2.98883" stroke-miterlimit="10" stroke-linejoin="miter" fill="none" stroke="#ff0000" d="M37.37634 0V161.39636"/>
<path transform="matrix(1.00005,0,0,-1.00006,8.079704,166.5352)" stroke-width=".3985" stroke-linecap="butt" stroke-dasharray="2.98883,2.98883" stroke-miterlimit="10" stroke-linejoin="miter" fill="none" stroke="#ff0000" d="M61.27942 0V161.39636"/>
<path transform="matrix(1.00005,0,0,-1.00006,8.079704,166.5352)" stroke-width=".3985" stroke-linecap="butt" stroke-dasharray="2.98883,2.98883" stroke-miterlimit="10" stroke-linejoin="miter" fill="none" stroke="#ff0000" d="M85.18251 0V161.39636"/>
<path transform="matrix(1.00005,0,0,-1.00006,8.079704,166.5352)" stroke-width=".3985" stroke-linecap="butt" stroke-dasharray="2.98883,2.98883" stroke-miterlimit="10" stroke-linejoin="miter" fill="none" stroke="#ff0000" d="M109.0856 0V161.39636"/>
<path transform="matrix(1.00005,0,0,-1.00006,8.079704,166.5352)" stroke-width=".3985" stroke-linecap="butt" stroke-dasharray="2.98883,2.98883" stroke-miterlimit="10" stroke-linejoin="miter" fill="none" stroke="#ff0000" d="M132.9887 0V161.39636"/>
<path transform="matrix(1.00005,0,0,-1.00006,8.079704,166.5352)" stroke-width=".3985" stroke-linecap="butt" stroke-dasharray="2.98883,2.98883" stroke-miterlimit="10" stroke-linejoin="miter" fill="none" stroke="#ff0000" d="M156.89179 0V161.39636"/>
<path transform="matrix(1.00005,0,0,-1.00006,8.079704,166.5352)" stroke-width=".3985" stroke-linecap="butt" stroke-dasharray="2.98883,2.98883" stroke-miterlimit="10" stroke-linejoin="miter" fill="none" stroke="#ff0000" d="M180.79488 0V161.39636"/>
<use data-text="x" xlink:href="#font_3_2" transform="matrix(9.963098,0,0,-9.963197,193.14295,82.31215)"/>
<use data-text="y" xlink:href="#font_3_3" transform="matrix(9.963098,0,0,-9.963197,108.73873,12.93898)"/>
</svg>
