<svg xmlns="http://www.w3.org/2000/svg" xmlns:xlink="http://www.w3.org/1999/xlink" xmlns:inkscape="http://www.inkscape.org/namespaces/inkscape" version="1.1" width="316" height="214" viewBox="0 0 316 214">
<defs>
<path id="font_1_62" d="M.69200137 0V.0289917H.6719971C.59999087 .0289917 .5970001 .038986207 .5970001 .07595825V.6066437C.5970001 .6436157 .59999087 .6536102 .6719971 .6536102H.69200137V.6826172C.66799929 .680603 .58599856 .680603 .5569916 .680603 .5269928 .680603 .44499208 .680603 .42099 .6826172V.6536102H.44099427C.5130005 .6536102 .5159912 .6436157 .5159912 .6066437V.369812H.21699524V.6066437C.21699524 .6436157 .21998596 .6536102 .2919922 .6536102H.31199647V.6826172C.28799439 .680603 .20599365 .680603 .1769867 .680603 .14698792 .680603 .06498718 .680603 .040985109 .6826172V.6536102H.06098938C.1329956 .6536102 .13598633 .6436157 .13598633 .6066437V.07595825C.13598633 .038986207 .1329956 .0289917 .06098938 .0289917H.040985109V0C.06498718 .0019989014 .14698792 .0019989014 .17599488 .0019989014 .20599365 .0019989014 .28799439 .0019989014 .31199647 0V.0289917H.2919922C.21998596 .0289917 .21699524 .038986207 .21699524 .07595825V.3408203H.5159912V.07595825C.5159912 .038986207 .5130005 .0289917 .44099427 .0289917H.42099V0C.44499208 .0019989014 .5269928 .0019989014 .55599978 .0019989014 .58599856 .0019989014 .66799929 .0019989014 .69200137 0Z"/>
<path id="font_1_65" d="M.31698609 0V.0289917H.29499818C.21998596 .0289917 .21699524 .038986207 .21699524 .07595825V.6066437C.21699524 .6436157 .21998596 .6536102 .29499818 .6536102H.31698609V.6826172C.29299928 .680603 .20698548 .680603 .1769867 .680603 .14698792 .680603 .05999756 .680603 .035995485 .6826172V.6536102H.057998659C.1329956 .6536102 .13598633 .6436157 .13598633 .6066437V.07595825C.13598633 .038986207 .1329956 .0289917 .057998659 .0289917H.035995485V0C.05999756 .0019989014 .1459961 .0019989014 .17599488 .0019989014 .20599365 .0019989014 .29299928 .0019989014 .31698609 0Z"/>
<path id="font_1_69" d="M.71899417 0V.0289917C.6649933 .0289917 .647995 .033996583 .6159973 .081954959L.3909912 .4187622C.4059906 .43473817 .44499208 .47172547 .46099855 .4867096 .598999 .6236267 .6269989 .6516113 .70599368 .6536102V.6826172C.6769867 .680603 .6649933 .680603 .6199951 .680603 .59399417 .680603 .5349884 .680603 .5119934 .6826172V.6536102C.5329895 .6526184 .5509949 .6436157 .5509949 .6216278 .5509949 .6066437 .5439911 .597641 .5219879 .57666018L.21699524 .2818451V.6046448C.21699524 .6536102 .22799683 .6536102 .31199647 .6536102V.6826172C.28799439 .680603 .20599365 .680603 .1769867 .680603 .14698792 .680603 .06498718 .680603 .040985109 .6826172V.6536102C.125 .6536102 .13598633 .6536102 .13598633 .6046448V.07795715C.13598633 .0289917 .125 .0289917 .040985109 .0289917V0C.06498718 .0019989014 .14698792 .0019989014 .17599488 .0019989014 .20599365 .0019989014 .28799439 .0019989014 .31199647 0V.0289917C.22799683 .0289917 .21699524 .0289917 .21699524 .07795715V.25186158L.33599855 .36679078 .5209961 .08995056C.5249939 .08395386 .5289917 .07696533 .5309906 .07196045 .5329895 .06796265 .5339966 .06297302 .5339966 .05697632 .5339966 .0289917 .49798585 .0289917 .48199464 .0289917V0C.5059967 .0019989014 .57899478 .0019989014 .60798647 .0019989014 .6339874 .0019989014 .6839905 .0019989014 .71899417 0Z"/>
<path id="font_1_76" d="M.69200137 .6536102V.6826172C.66600039 .680603 .61299136 .680603 .58499148 .680603 .5569916 .680603 .5039978 .680603 .47799684 .6826172V.6536102C.57299807 .6536102 .57299807 .6066437 .57299807 .577652V.14093018L.22599793 .6686096C.21699524 .6816101 .21598816 .6826172 .19400025 .6826172H.040985109V.6536102C.083999637 .6536102 .10899353 .6536102 .13598633 .6466217V.10494995C.13598633 .07595825 .13598633 .0289917 .040985109 .0289917V0C.066986087 .0019989014 .11999512 .0019989014 .147995 .0019989014 .17599488 .0019989014 .22898865 .0019989014 .25498963 0V.0289917C.1599884 .0289917 .1599884 .07595825 .1599884 .10494995V.6306305C.16799927 .6226349 .16799927 .620636 .1769867 .6086426L.5669861 .01499939C.57699587 .0009918213 .5779877 0 .58499148 0 .59399417 0 .59599307 .0039978029 .5970001 .005996704V.577652C.5970001 .6066437 .5970001 .6536102 .69200137 .6536102Z"/>
<path id="font_1_27" d="M.70199587 0V.0289917C.6369934 .0289917 .61898806 .0289917 .6049957 .06993103L.3869934 .6958618C.3829956 .7078552 .3809967 .7138672 .36698915 .7138672 .35299684 .7138672 .35099793 .7108612 .34599305 .69485476L.13699341 .09689331C.12298584 .05595398 .09498596 .02998352 .0309906 .0289917V0L.1269989 .0019989014C.15499878 .0019989014 .20298767 .0019989014 .22898865 0V.0289917C.18699646 .02998352 .1619873 .050964357 .1619873 .07891846 .1619873 .08491516 .1619873 .08691406 .16699219 .09989929L.21299744 .23271179H.46499635L.519989 .075927738C.5249939 .063949588 .5249939 .061950685 .5249939 .058944704 .5249939 .0289917 .47399903 .0289917 .44898988 .0289917V0C.47200013 .0019989014 .5509949 .0019989014 .57899478 .0019989014 .6069946 .0019989014 .67900088 .0019989014 .70199587 0M.45498658 .26171876H.22299195L.33898927 .5948181 .45498658 .26171876Z"/>
<path id="font_1_501" d="M.18399048 .4513092C.18399048 .47831727 .16499329 .50032046 .1349945 .50032046 .10798645 .50032046 .09498596 .48031617 .09498596 .48031617 .09399414 .48731996 .09298706 .49230958 .09298706 .50531008 .09298706 .5193176 .09298706 .60032656 .1619873 .66934207 .17098999 .6783447 .17098999 .6803436 .17098999 .6833496 .17098999 .6883545 .1659851 .6933594 .16099549 .6933594 .1519928 .6933594 .07299805 .619339 .07299805 .50531008 .07299805 .4433136 .09599304 .4033203 .13598633 .4033203 .16499329 .4033203 .18399048 .42530824 .18399048 .4513092Z"/>
<path id="font_1_172" d="M.70199587 0V.0289917C.6369934 .0289917 .61898806 .0289917 .6049957 .06993103L.3869934 .6958618C.3829956 .7078552 .3809967 .7138672 .36698915 .7138672 .35299684 .7138672 .35099793 .7108612 .34599305 .69485476L.13699341 .09689331C.12298584 .05595398 .09498596 .02998352 .0309906 .0289917V0L.1269989 .0019989014C.15499878 .0019989014 .20298767 .0019989014 .22898865 0V.0289917C.18699646 .02998352 .1619873 .050964357 .1619873 .07891846 .1619873 .08491516 .1619873 .08691406 .16699219 .09989929L.21299744 .23271179H.46499635L.519989 .075927738C.5249939 .063949588 .5249939 .061950685 .5249939 .058944704 .5249939 .0289917 .47399903 .0289917 .44898988 .0289917V0C.47200013 .0019989014 .5509949 .0019989014 .57899478 .0019989014 .6069946 .0019989014 .67900088 .0019989014 .70199587 0M.45498658 .26171876H.22299195L.33898927 .5948181 .45498658 .26171876M.54299929 .75390627V.78289797H.18998719V.75390627H.54299929Z"/>
<path id="font_1_108" d="M.69200137 .6536102V.6826172C.66600039 .680603 .6119995 .680603 .58399966 .680603 .5549927 .680603 .5009918 .680603 .47499085 .6826172V.6536102C.56999209 .6536102 .56999209 .6065979 .56999209 .57958987V.22953797C.56999209 .089523319 .47499085 .007507324 .3809967 .007507324 .32099916 .007507324 .21699524 .04751587 .21699524 .22253418V.6065979C.21699524 .64360049 .21998596 .6536102 .2919922 .6536102H.31199647V.6826172C.28799439 .680603 .20599365 .680603 .1769867 .680603 .14698792 .680603 .06498718 .680603 .040985109 .6826172V.6536102H.06098938C.1329956 .6536102 .13598633 .64360049 .13598633 .6065979V.22854615C.13598633 .08352661 .2519989-.021484375 .3789978-.021484375 .5179901-.021484375 .5970001 .11451721 .5970001 .21453858V.59259036C.5970001 .6536102 .673996 .6536102 .69200137 .6536102Z"/>
<path id="font_2_1" d="M.33099366-.2400055C.33099366-.23701477 .33099366-.23500061 .31399537-.21800232 .18899536-.0920105 .15699768 .09700012 .15699768 .25 .15699768 .42399598 .19499207 .59799197 .31799317 .72299197 .33099366 .73498538 .33099366 .7369995 .33099366 .73999026 .33099366 .746994 .32699586 .75 .32099916 .75 .31098939 .75 .22099304 .6819916 .1619873 .5549927 .11099243 .44499208 .09899902 .33399964 .09899902 .25 .09899902 .17199707 .10998535 .050994874 .16499329-.06201172 .22499085-.18501282 .31098939-.25 .32099916-.25 .32699586-.25 .33099366-.24700928 .33099366-.2400055Z"/>
<path id="font_2_11" d="M.116989139 .21801758C.116989139 .38093568 .19898987 .42323304 .2519989 .42323304 .26098634 .42323304 .32398988 .42222596 .35899354 .38594056 .31799317 .38293458 .31199647 .3529358 .31199647 .3399353 .31199647 .31393434 .32998658 .2939453 .35798646 .2939453 .38398744 .2939453 .4039917 .3109436 .4039917 .34094239 .4039917 .40911866 .32798768 .4482422 .25099183 .4482422 .12599182 .4482422 .033996583 .3399353 .033996583 .21601868 .033996583 .08816528 .1329956-.0107421879 .24899292-.0107421879 .3829956-.0107421879 .4149933 .10914612 .4149933 .119140628 .4149933 .12911988 .40499879 .12911988 .4019928 .12911988 .3929901 .12911988 .3909912 .12512207 .3889923 .119140628 .3600006 .026229859 .29499818 .014251709 .2579956 .014251709 .20498657 .014251709 .116989139 .0572052 .116989139 .21801758Z"/>
<path id="font_2_14" d="M.47099305 .21424866C.47099305 .34223939 .37098695 .4482422 .25 .4482422 .125 .4482422 .027999878 .3392334 .027999878 .21424866 .027999878 .085250858 .13198853-.0107421879 .24899292-.0107421879 .36999513-.0107421879 .47099305 .087249759 .47099305 .21424866M.25 .014251709C.20698548 .014251709 .16299439 .035247804 .13598633 .08125305 .11099243 .12524414 .11099243 .18624878 .11099243 .22224427 .11099243 .26124574 .11099243 .31523133 .1349945 .35923768 .1619873 .40522767 .20899964 .426239 .24899292 .426239 .29299928 .426239 .33599855 .40423585 .3619995 .36123658 .3880005 .3182373 .3880005 .26023866 .3880005 .22224427 .3880005 .18624878 .3880005 .13224793 .3659973 .08824158 .34399415 .04324341 .2999878 .014251709 .25 .014251709Z"/>
<path id="font_2_15" d="M.20799256 .19424439C.22999573 .19024658 .31199647 .17424011 .31199647 .102249149 .31199647 .051254274 .2769928 .011245728 .19898987 .011245728 .114990238 .011245728 .07899475 .06825256 .05999756 .15324402 .056991579 .1662445 .055999757 .17024231 .04598999 .17024231 .032989503 .17024231 .032989503 .16323853 .032989503 .14524842V.013244629C.032989503-.003753662 .032989503-.0107421879 .04399109-.0107421879 .04899597-.0107421879 .049987794-.009750366 .068984989 .009246826 .070999149 .011245728 .070999149 .013244629 .08898926 .03224182 .1329956-.009750366 .17799378-.0107421879 .19898987-.0107421879 .31399537-.0107421879 .3600006 .056243898 .3600006 .12825012 .3600006 .1812439 .32998658 .21124268 .31799317 .22323609 .2849884 .25523377 .24598694 .26324464 .20399475 .27124024 .147995 .28224183 .08099365 .2952423 .08099365 .35324098 .08099365 .38822938 .10699463 .42922975 .19299317 .42922975 .30299378 .42922975 .30799867 .3392334 .30999757 .3082428 .31098939 .2992401 .31999208 .2992401 .32199098 .2992401 .33499146 .2992401 .33499146 .304245 .33499146 .3232422V.4242401C.33499146 .4412384 .33499146 .4482422 .32398988 .4482422 .31900025 .4482422 .31698609 .4482422 .3039856 .43623353 .30099488 .43223573 .29100038 .42323304 .2869873 .42022706 .24899292 .4482422 .20799256 .4482422 .19299317 .4482422 .070999149 .4482422 .032989503 .38124085 .032989503 .3252411 .032989503 .29023744 .04899597 .26223756 .07598877 .24023438 .10798645 .21424866 .13598633 .2082367 .20799256 .19424439Z"/>
<path id="font_2_3" d="M.45999146 .31976319C.45999146 .39982606 .45498658 .47988893 .41999818 .5539398 .37399293 .65000918 .2919922 .6660156 .25 .6660156 .18998719 .6660156 .116989139 .64001467 .07598877 .54693606 .04399109 .47789 .038986207 .39982606 .038986207 .31976319 .038986207 .24472046 .042999269 .15464783 .083999637 .07859802 .1269989-.0024719239 .19999695-.022460938 .24899292-.022460938 .30299378-.022460938 .3789978-.0014648438 .4229889 .09359741 .45498658 .16265869 .45999146 .2407074 .45999146 .31976319M.24899292-.00047302247C.20999146-.00047302247 .15098572 .024551392 .1329956 .12062073 .12199402 .18066406 .12199402 .2727356 .12199402 .3317871 .12199402 .39582826 .12199402 .46188355 .12998963 .5159149 .14898682 .63500979 .22399903 .64401248 .24899292 .64401248 .28199769 .64401248 .34799195 .6259918 .36698915 .52693179 .3769989 .47088624 .3769989 .39482118 .3769989 .3317871 .3769989 .25672914 .3769989 .18867493 .3659973 .12461853 .35099793 .029556275 .2939911-.00047302247 .24899292-.00047302247Z"/>
<path id="font_3_1" d="M.5069885 .24998474C.5069885 .3710022 .4099884 .4650116 .2919922 .4650116 .17199707 .4650116 .07699585 .36799623 .07699585 .25097657 .07699585 .1299591 .17399597 .035949708 .2919922 .035949708 .4119873 .035949708 .5069885 .13296509 .5069885 .24998474M.2919922 .08496094C.19799805 .08496094 .12599182 .16096497 .12599182 .24998474 .12599182 .34300233 .19999695 .41601563 .2919922 .41601563 .38598634 .41601563 .45799256 .33999635 .45799256 .25097657 .45799256 .15795899 .38398744 .08496094 .2919922 .08496094Z"/>
<path id="font_4_2" d="M.20298767 .0009918213C.20298767 .066986087 .17799378 .10598755 .13899231 .10598755 .10598755 .10598755 .085998538 .08099365 .085998538 .052993776 .085998538 .025985718 .10598755 0 .13899231 0 .15098572 0 .1639862 .0039978029 .17399597 .0129852299 .1769867 .01499939 .17799378 .015991211 .1789856 .015991211 .17999268 .015991211 .18099976 .01499939 .18099976 .0009918213 .18099976-.07316589 .1459961-.13328552 .11299133-.16635132 .101989749-.17736817 .101989749-.17936707 .101989749-.18237305 .101989749-.18936157 .10699463-.19335938 .11199951-.19335938 .12298584-.19335938 .20298767-.116256717 .20298767 .0009918213Z"/>
<path id="font_2_12" d="M.1769867 .4423828 .036987306 .43138124V.40037538C.101989749 .40037538 .11099243 .3943634 .11099243 .34532167V.076034549C.11099243 .0309906 .099990848 .0309906 .032989503 .0309906V0C.06498718 .0009918213 .11898804 .0029907227 .14299011 .0029907227 .17799378 .0029907227 .21299744 .0009918213 .24699402 0V.0309906C.18099976 .0309906 .1769867 .035995485 .1769867 .075042728V.4423828M.18099976 .6159363C.18099976 .64793398 .1559906 .6689453 .12799073 .6689453 .09700012 .6689453 .07499695 .64193728 .07499695 .6159363 .07499695 .5889435 .09700012 .5629425 .12799073 .5629425 .1559906 .5629425 .18099976 .5839386 .18099976 .6159363Z"/>
<path id="font_2_13" d="M.10998535 .34429933V.076034549C.10998535 .0309906 .09899902 .0309906 .03199768 .0309906V0C.066986087 .0009918213 .117996219 .0029907227 .14498902 .0029907227 .17098999 .0029907227 .22299195 .0009918213 .25698854 0V.0309906C.18998719 .0309906 .1789856 .0309906 .1789856 .076034549V.2602234C.1789856 .36431886 .25 .42037965 .31399537 .42037965 .3769989 .42037965 .3880005 .36631776 .3880005 .30926515V.076034549C.3880005 .0309906 .3769989 .0309906 .30999757 .0309906V0C.34498597 .0009918213 .3959961 .0029907227 .4229889 .0029907227 .44898988 .0029907227 .5009918 .0009918213 .5349884 0V.0309906C.48298646 .0309906 .45799256 .0309906 .45700074 .061019899V.25221253C.45700074 .3383026 .45700074 .36932374 .42599488 .405365 .4119873 .42237855 .3789978 .4423828 .32099916 .4423828 .24798584 .4423828 .20098877 .39935304 .17298889 .33729554V.4423828L.03199768 .43138124V.40037538C.101989749 .4003601 .10998535 .39335633 .10998535 .34429933Z"/>
<path id="font_2_2" d="M.2889862 .25C.2889862 .32798768 .27799989 .44898988 .22299195 .56199648 .16299439 .68499758 .07699585 .75 .066986087 .75 .06098938 .75 .056991579 .74598696 .056991579 .73999026 .056991579 .7369995 .056991579 .73498538 .07598877 .71699526 .17399597 .6179962 .23098755 .45899964 .23098755 .25 .23098755 .07899475 .19400025-.09700012 .069992069-.2230072 .056991579-.23500061 .056991579-.23701477 .056991579-.2400055 .056991579-.2460022 .06098938-.25 .066986087-.25 .07699585-.25 .16699219-.18200684 .22599793-.055007936 .2769928 .054992677 .2889862 .16600037 .2889862 .25Z"/>
<path id="font_2_9" d="M.68699648 .32714845C.70199587 .32714845 .72099307 .32714845 .72099307 .34713746 .72099307 .36714173 .70199587 .36714173 .6879883 .36714173H.08898926C.07499695 .36714173 .055999757 .36714173 .055999757 .34713746 .055999757 .32714845 .07499695 .32714845 .08999634 .32714845H.68699648M.6879883 .13284302C.70199587 .13284302 .72099307 .13284302 .72099307 .15284729 .72099307 .17285156 .70199587 .17285156 .68699648 .17285156H.08999634C.07499695 .17285156 .055999757 .17285156 .055999757 .15284729 .055999757 .13284302 .07499695 .13284302 .08898926 .13284302H.6879883Z"/>
<path id="font_2_4" d="M.2939911 .64004519C.2939911 .66400149 .2939911 .6660156 .2709961 .6660156 .20899964 .60227969 .12098694 .60227969 .08898926 .60227969V.57128909C.10899353 .57128909 .16799927 .57128909 .21998596 .5972748V.07902527C.21998596 .042999269 .21699524 .0309906 .1269989 .0309906H.09498596V0C.12998963 .0029907227 .21699524 .0029907227 .25698854 .0029907227 .29699708 .0029907227 .38398744 .0029907227 .4189911 0V.0309906H.3869934C.29699708 .0309906 .2939911 .041992189 .2939911 .07902527V.64004519Z"/>
<path id="font_2_5" d="M.1269989 .07699585 .23298645 .18003845C.3889923 .31811524 .44898988 .3721466 .44898988 .47216798 .44898988 .5860901 .35899354 .6660156 .23699951 .6660156 .12399292 .6660156 .049987794 .57411196 .049987794 .48516847 .049987794 .4291687 .099990848 .4291687 .102996829 .4291687 .11999512 .4291687 .15499878 .44117738 .15499878 .48217774 .15499878 .5081787 .13699341 .5341797 .101989749 .5341797 .09399414 .5341797 .09199524 .5341797 .08898926 .5331726 .11199951 .59806826 .1659851 .63500979 .22399903 .63500979 .31498719 .63500979 .35798646 .5541382 .35798646 .47216798 .35798646 .39215089 .30799867 .31311036 .25299073 .25108338L.06098938 .036987306C.049987794 .025985718 .049987794 .023986817 .049987794 0H.42099L.44898988 .17404175H.42399598C.4189911 .14402771 .4119873 .1000061 .4019928 .084991458 .394989 .07699585 .32899476 .07699585 .30699159 .07699585H.1269989Z"/>
<path id="font_4_1" d="M.19198609 .052993776C.19198609 .08198547 .16799927 .10598755 .13899231 .10598755 .10998535 .10598755 .085998538 .08198547 .085998538 .052993776 .085998538 .023986817 .10998535 0 .13899231 0 .16799927 0 .19198609 .023986817 .19198609 .052993776Z"/>
<path id="font_2_7" d="M.44898988 .20022583C.44898988 .3193512 .36698915 .41944886 .25898744 .41944886 .21099854 .41944886 .16799927 .40345765 .13198853 .36842347V.5637665C.1519928 .5577698 .18499756 .55078127 .21699524 .55078127 .33999635 .55078127 .4099884 .6417694 .4099884 .6547699 .4099884 .6607666 .40699769 .6657715 .3999939 .6657715 .39898683 .6657715 .39698792 .6657715 .3919983 .66278079 .37199403 .6537781 .32299806 .6337738 .2559967 .6337738 .21598816 .6337738 .16999817 .6407776 .12298584 .6617737 .114990238 .66477969 .11299133 .66477969 .11099243 .66477969 .100997928 .66477969 .100997928 .6567688 .100997928 .6407776V.34439088C.100997928 .32637025 .100997928 .31835938 .114990238 .31835938 .12199402 .31835938 .12399292 .32136537 .12799073 .32736207 .13899231 .3433838 .17599488 .39746095 .25698854 .39746095 .30899049 .39746095 .33399964 .35139466 .34199525 .33337403 .35798646 .29632569 .3600006 .25727845 .3600006 .20722962 .3600006 .17222595 .3600006 .11222839 .33599855 .07035828 .31199647 .031463624 .2749939 .0055389406 .22898865 .0055389406 .1559906 .0055389406 .09899902 .058380128 .08198547 .11723328 .084991458 .1162262 .08799744 .115234378 .09899902 .115234378 .13198853 .115234378 .14898682 .14022827 .14898682 .16423035 .14898682 .18823242 .13198853 .21322632 .09899902 .21322632 .084991458 .21322632 .049987794 .20622254 .049987794 .16023255 .049987794 .07434082 .11898804-.022460938 .23098755-.022460938 .34700013-.022460938 .44898988 .073349 .44898988 .20022583Z"/>
<path id="font_2_10" d="M.23498535 .24902344C.23498535 .37512208 .33198548 .446167 .36698915 .47218324 .3939972 .49220277 .4149933 .52822878 .4149933 .57022097 .4149933 .62820437 .375 .7050781 .22599793 .7050781 .117996219 .7050781 .055999757 .6371765 .055999757 .57221987 .055999757 .53822329 .07899475 .52423098 .101989749 .52423098 .12998963 .52423098 .147995 .54422 .147995 .57022097 .147995 .6152344 .10598755 .6152344 .09199524 .6152344 .12298584 .6681061 .18099976 .68307498 .22299195 .68307498 .33198548 .68307498 .33198548 .6152344 .33198548 .5762329 .33198548 .5172272 .31599427 .49920655 .2979889 .48120118 .23199463 .40914918 .20999146 .31707765 .20999146 .25602723V.21099854C.20999146 .19299317 .20999146 .18699646 .22200012 .18699646 .23498535 .18699646 .23498535 .19599915 .23498535 .21400452V.24902344M.2749939 .052993776C.2749939 .08198547 .25099183 .10598755 .22200012 .10598755 .19299317 .10598755 .16899109 .08198547 .16899109 .052993776 .16899109 .023986817 .19299317 0 .22200012 0 .25099183 0 .2749939 .023986817 .2749939 .052993776Z"/>
<path id="font_2_6" d="M.2939911 .16503906V.07800293C.2939911 .041992189 .2919922 .0309906 .21798706 .0309906H.19699097V0C.23799134 .0029907227 .2899933 .0029907227 .33198548 .0029907227 .37399293 .0029907227 .4269867 .0029907227 .46798707 0V.0309906H.44699098C.37298585 .0309906 .37098695 .041992189 .37098695 .07800293V.16503906H.47099305V.19602967H.37098695V.65075686C.37098695 .67074587 .37098695 .6767578 .35499574 .6767578 .34599305 .6767578 .34298707 .6767578 .33499146 .66474917L.027999878 .19602967V.16503906H.2939911M.2999878 .19602967H.055999757L.2999878 .5688019V.19602967Z"/>
<path id="font_5_1" d="M.5149994-1.7478027C.5169983-1.7487946 .526001-1.7587891 .5269928-1.7587891H.548996C.5519867-1.7587891 .55999758-1.7577973 .55999758-1.7487946 .55999758-1.7447968 .55799868-1.7427979 .55599978-1.7397919 .519989-1.7037964 .46598817-1.6488037 .4039917-1.5388184 .29599-1.3468323 .2559967-1.0998688 .2559967-.8598938 .2559967-.41593934 .38198854-.154953 .5569916 .022033692 .55999758 .025024414 .55999758 .028030396 .55999758 .030029297 .55999758 .040039064 .5529938 .040039064 .54100039 .040039064 .5279999 .040039064 .526001 .040039064 .5169983 .0320282 .42199708-.049972536 .31498719-.18894959 .24598694-.39993287 .20298767-.5319214 .17999268-.6929016 .17999268-.8588867 .17999268-1.0958557 .22299195-1.3638306 .37998963-1.5958099 .40699769-1.6348114 .44400025-1.6757965 .44400025-1.6768036 .45399476-1.688797 .46798707-1.7048035 .47599793-1.711792L.5149994-1.7478027Z"/>
<path id="font_3_2" d="M.44299317-.84217837 .24699402-.45318605C.24198914-.44317628 .23899842-.43717958 .23098755-.43717958 .22698975-.43717958 .22499085-.43717958 .21499634-.44517518L.10798645-.5161743C.09399414-.525177 .09399414-.5301819 .09399414-.5331726 .09399414-.5391846 .09899902-.5471802 .10798645-.5471802 .11199951-.5471802 .11399841-.5471802 .1269989-.5381775 .13798523-.5301819 .16699219-.5101776 .1789856-.502182L.397995-.9341736C.40499879-.949173 .40699769-.9511719 .42099-.9511719 .42999269-.9511719 .44099427-.9511719 .45098878-.9321747L.95399478 .003829956C.96199038 .016815186 .96199038 .018829346 .96199038 .02381897 .96199038 .03982544 .94898989 .048828126 .9379883 .048828126 .9229889 .048828126 .91799929 .03982544 .9119873 .027816773L.44299317-.84217837Z"/>
<path id="font_6_1" d="M.5049896 .18203736H.47099305C.46798707 .16001892 .45799256 .100997928 .44499208 .09098816 .43699647 .084991458 .3600006 .084991458 .34599305 .084991458H.1619873C.2669983 .17803955 .3019867 .20603943 .3619995 .25306703 .43598939 .312088 .5049896 .374115 .5049896 .46914674 .5049896 .5900879 .39898683 .6640625 .2709961 .6640625 .14698792 .6640625 .06298828 .57710269 .06298828 .4851532 .06298828 .43414308 .10598755 .42915345 .115997318 .42915345 .13999939 .42915345 .16899109 .44615174 .16899109 .48214723 .16899109 .5001526 .1619873 .53515627 .10998535 .53515627 .14099121 .6060791 .20899964 .62805178 .2559967 .62805178 .35598756 .62805178 .4079895 .5501404 .4079895 .46914674 .4079895 .38212586 .34599305 .3130951 .31399537 .27708436L.07299805 .038986207C.06298828 .02999878 .06298828 .027999878 .06298828 0H.47499085L.5049896 .18203736Z"/>
<path id="font_5_2" d="M.41600038-.8588867C.41600038-.5719147 .34899903-.2669525 .1519928-.04197693 .13798523-.025970459 .100997928 .013031006 .07699585 .0340271 .069992069 .040039064 .067993167 .040039064 .054992677 .040039064 .04499817 .040039064 .035995485 .040039064 .035995485 .030029297 .035995485 .026031495 .039993287 .022033692 .041992189 .02003479 .07598877-.014968872 .12998963-.06996155 .19198609-.17996216 .2999878-.37193299 .33999635-.61891177 .33999635-.8588867 .33999635-1.2928467 .21998596-1.5578156 .039993287-1.740799 .037994386-1.7427979 .035995485-1.7458038 .035995485-1.7487946 .035995485-1.7587891 .04499817-1.7587891 .054992677-1.7587891 .067993167-1.7587891 .069992069-1.7587891 .07899475-1.7507935 .17399597-1.668808 .2809906-1.5298157 .34999085-1.3188324 .3939972-1.1818543 .41600038-1.019867 .41600038-.8588867Z"/>
<path id="font_2_8" d="M.36698915 .31781007V.28579713C.36698915 .05178833 .2630005 .0055389406 .20498657 .0055389406 .18798828 .0055389406 .13398743 .007537842 .10699463 .041778566 .15098572 .041778566 .15899658 .07078552 .15899658 .08778381 .15899658 .118774417 .1349945 .13378906 .11299133 .13378906 .09700012 .13378906 .066986087 .12478638 .066986087 .08578491 .066986087 .018615723 .12098694-.022460938 .20599365-.022460938 .33499146-.022460938 .45700074 .11378479 .45700074 .32881166 .45700074 .5979767 .34199525 .6660156 .25299073 .6660156 .19799805 .6660156 .14898682 .64801028 .10598755 .60298159 .06498718 .5579529 .041992189 .5159302 .041992189 .44088746 .041992189 .31581117 .12998963 .21777344 .24198914 .21777344 .30299378 .21777344 .34399415 .25978089 .36698915 .31781007M.24299622 .24076844C.22698975 .24076844 .18099976 .24076844 .1499939 .3038025 .13198853 .3408203 .13198853 .39085389 .13198853 .43988038 .13198853 .49391175 .13198853 .54093936 .15299988 .5779724 .17999268 .6279907 .21798706 .64100649 .25299073 .64100649 .29899598 .64100649 .33198548 .60697939 .34899903 .5619507 .36099244 .52993777 .36499024 .4669037 .36499024 .42086793 .36499024 .3378296 .33099366 .24076844 .24299622 .24076844Z"/>
<path id="font_7_501" d="M.19198609 .44699098C.19198609 .47299195 .1749878 .5 .13899231 .5 .11898804 .5 .10499573 .48999024 .09899902 .48399354 .09799194 .48199464 .09599304 .48098756 .09599304 .48098756 .09599304 .48098756 .09399414 .49499513 .09399414 .49899293 .09399414 .53105166 .100997928 .60317996 .1639862 .66529849 .17599488 .6773224 .17599488 .6793213 .17599488 .6823273 .17599488 .6893463 .17098999 .6933594 .1659851 .6933594 .15499878 .6933594 .07199097 .617218 .07199097 .49899293 .07199097 .43899537 .09599304 .3939972 .13899231 .3939972 .17399597 .3939972 .19198609 .42099 .19198609 .44699098Z"/>
<path id="font_7_172" d="M.71699526 0V.0309906H.69898989C.6389923 .0309906 .625 .037979127 .6139984 .07095337L.397995 .6958008C.3929901 .7088165 .3909912 .7158203 .375 .7158203 .35899354 .7158203 .35598756 .70980837 .35099793 .6958008L.14399719 .09791565C.12599182 .04698181 .085998538 .03199768 .03199768 .0309906V0L.13398743 .0029907227 .24899292 0V.0309906C.19898987 .0309906 .17399597 .05596924 .17399597 .0819397 .17399597 .08493042 .1749878 .09492493 .17599488 .09692383L.22200012 .2277832H.46899415L.5219879 .07495117C.522995 .07095337 .5249939 .064956668 .5249939 .060958864 .5249939 .0309906 .46899415 .0309906 .44198609 .0309906V0C.47799684 .0029907227 .5479889 .0029907227 .58599856 .0029907227L.71699526 0M.45799256 .25878907H.23298645L.34498597 .58380129 .45799256 .25878907M.55599978 .7561035V.7871094H.19499207V.7561035H.55599978Z"/>
<path id="font_7_66" d="M.24699402 0V.0309906C.18099976 .0309906 .1769867 .035995485 .1769867 .075042728V.4423828L.036987306 .43066407V.3996582C.101989749 .3996582 .11099243 .3936615 .11099243 .3447113V.07595825C.11099243 .0309906 .099990848 .0309906 .032989503 .0309906V0L.14299011 .0029907227C.17799378 .0029907227 .21299744 .0009918213 .24699402 0M.19198609 .603775C.19198609 .6307678 .16899109 .6567688 .13899231 .6567688 .10499573 .6567688 .084991458 .6287689 .084991458 .603775 .084991458 .57676699 .10798645 .55078127 .13798523 .55078127 .17199707 .55078127 .19198609 .5787811 .19198609 .603775Z"/>
<path id="font_7_77" d="M.5349884 0V.0309906C.48298646 .0309906 .45799256 .0309906 .45700074 .061019899V.25221253C.45700074 .3383026 .45700074 .36932374 .42599488 .405365 .4119873 .42237855 .3789978 .4423828 .32099916 .4423828 .24798584 .4423828 .20098877 .39935304 .17298889 .33729554V.4423828L.03199768 .43066407V.3996582C.101989749 .3996582 .10998535 .39266969 .10998535 .34370423V.07595825C.10998535 .0309906 .09899902 .0309906 .03199768 .0309906V0L.14498902 .0029907227 .25698854 0V.0309906C.18998719 .0309906 .1789856 .0309906 .1789856 .07595825V.25978089C.1789856 .36431886 .25 .42037965 .31399537 .42037965 .3769989 .42037965 .3880005 .36631776 .3880005 .30926515V.076034549C.3880005 .0309906 .3769989 .0309906 .30999757 .0309906V0L.4229889 .0029907227 .5349884 0Z"/>
<path id="font_7_28" d="M.48298646 .08912659V.14511109H.45799256V.08912659C.45799256 .03112793 .43299867 .025131226 .42199708 .025131226 .3889923 .025131226 .3849945 .070129398 .3849945 .07511902V.27508546C.3849945 .31707765 .3849945 .3560791 .34899903 .39312745 .30999757 .43223573 .2599945 .4482422 .21199036 .4482422 .12998963 .4482422 .06098938 .40115357 .06098938 .335083 .06098938 .30508424 .08099365 .28808595 .10699463 .28808595 .1349945 .28808595 .15299988 .30807496 .15299988 .33407594 .15299988 .3460846 .147995 .37908937 .101989749 .38008119 .1289978 .41519166 .17799378 .426239 .20999146 .426239 .25898744 .426239 .31599427 .38710023 .31599427 .29808045V.26107789C.2649994 .25808717 .19499207 .25508119 .13198853 .22509766 .056991579 .19110108 .03199768 .13911438 .03199768 .09512329 .03199768 .014251709 .1289978-.0107421879 .19198609-.0107421879 .2579956-.0107421879 .3039856 .029251099 .32299806 .07624817 .32699586 .036132814 .35398866-.005859375 .40098573-.005859375 .42199708-.005859375 .48298646 .008132935 .48298646 .08912659M.31599427 .14013672C.31599427 .04525757 .24398804 .011245728 .19898987 .011245728 .1499939 .011245728 .10899353 .04624939 .10899353 .09625244 .10899353 .15124512 .15098572 .23425293 .31599427 .24024964V.14013672Z"/>
<path id="font_7_45" d="M.20298767 .0009918213C.20298767 .06498718 .1789856 .10598755 .13899231 .10598755 .10398865 .10598755 .085998538 .07899475 .085998538 .052993776 .085998538 .026992798 .102996829 0 .13899231 0 .1539917 0 .16799927 .005996704 .1789856 .015991211 .18099976-.06312561 .15299988-.12423706 .10899353-.17132569 .102996829-.17733765 .101989749-.17834473 .101989749-.18234253 .101989749-.18936157 .10699463-.19335938 .11199951-.19335938 .12399292-.19335938 .20298767-.114227298 .20298767 .0009918213Z"/>
<path id="font_7_74" d="M.8789978 0V.0309906H.8549957C.7779999 .0309906 .776001 .041992189 .776001 .07795715V.6046295C.776001 .64060977 .7779999 .6516113 .8549957 .6516113H.8789978V.6826172H.70999148C.6839905 .6826172 .6839905 .6816101 .6769867 .66360476L.45799256 .10095215 .24099732 .660614C.23199463 .6826172 .22898865 .6826172 .20599365 .6826172H.036987306V.6516113H.06098938C.13798523 .6516113 .13999939 .64060977 .13999939 .6046295V.10494995C.13999939 .07795715 .13999939 .0309906 .036987306 .0309906V0L.1539917 .0029907227 .2709961 0V.0309906C.16799927 .0309906 .16799927 .07795715 .16799927 .10494995V.6436157H.16899109L.4099884 .021987915C.4149933 .008987427 .41999818 0 .42999269 0 .44099427 0 .44400025 .0079956059 .44799806 .018997193L.69400027 .6516113H.69499209V.07795715C.69499209 .041992189 .69299319 .0309906 .6159973 .0309906H.59199526V0C.6289978 .0029907227 .69699099 .0029907227 .73599246 .0029907227 .7749939 .0029907227 .84199526 .0029907227 .8789978 0Z"/>
<path id="font_7_109" d="M.5349884 0V.0309906C.46499635 .0309906 .45700074 .037994386 .45700074 .08705139V.4423828L.30999757 .43066407V.3996582C.37998963 .3996582 .3880005 .39266969 .3880005 .34373475V.16601563C.3880005 .07910156 .33999635 .011245728 .2669983 .011245728 .18299866 .011245728 .1789856 .058135988 .1789856 .11009216V.4423828L.03199768 .43066407V.3996582C.10998535 .3996582 .10998535 .39666749 .10998535 .3078003V.15802002C.10998535 .080093387 .10998535-.0107421879 .2619934-.0107421879 .31799317-.0107421879 .3619995 .017242432 .3909912 .07910156V-.0107421879L.5349884 0Z"/>
</defs>
<path transform="matrix(1.00005,0,0,-1.00005,6.023552,207.81774)" stroke-width=".3985" stroke-linecap="butt" stroke-dasharray="2.98883,2.98883" stroke-miterlimit="10" stroke-linejoin="miter" fill="none" stroke="#000000" d="M0 0H139.67812"/>
<path transform="matrix(1.00005,0,0,-1.00005,6.023552,207.81774)" stroke-width=".3985" stroke-linecap="butt" stroke-dasharray="2.98883,2.98883" stroke-miterlimit="10" stroke-linejoin="miter" fill="none" stroke="#000000" d="M185.60097 0H198.9161"/>
<path transform="matrix(1.00005,0,0,-1.00005,204.94959,207.81774)" d="M1.99252 0-1.19551 1.59401 0 0-1.19551-1.59401"/>
<path transform="matrix(1.00005,0,0,-1.00005,6.023552,207.81774)" stroke-width=".3985" stroke-linecap="butt" stroke-dasharray="2.98883,2.98883" stroke-miterlimit="10" stroke-linejoin="miter" fill="none" stroke="#000000" d="M0 0V145.41809"/>
<path transform="matrix(1.00005,0,0,-1.00005,6.023552,207.81774)" stroke-width=".3985" stroke-linecap="butt" stroke-dasharray="2.98883,2.98883" stroke-miterlimit="10" stroke-linejoin="miter" fill="none" stroke="#000000" d="M0 187.51337V198.9161"/>
<path transform="matrix(0,-1.00005,-1.00005,-0,6.023552,8.891693)" d="M1.99252 0-1.19551 1.59401 0 0-1.19551-1.59401"/>
<path transform="matrix(1.00005,0,0,-1.00005,6.023552,207.81774)" stroke-width=".79701" stroke-linecap="butt" stroke-miterlimit="10" stroke-linejoin="miter" fill="none" stroke="#000000" d="M191.34096 0C191.34096 105.67604 105.67604 191.34096 0 191.34096"/>
<path transform="matrix(1.00005,0,0,-1.00005,6.023552,207.81774)" stroke-width=".3985" stroke-linecap="butt" stroke-miterlimit="10" stroke-linejoin="miter" fill="none" stroke="#000000" d="M187.51326 0"/>
<use data-text="H" xlink:href="#font_1_62" transform="matrix(11.955797,0,0,-11.955797,146.15955,212.08596)"/>
<use data-text="I" xlink:href="#font_1_65" transform="matrix(11.955797,0,0,-11.955797,154.9351,212.08596)"/>
<use data-text="K" xlink:href="#font_1_69" transform="matrix(11.955797,0,0,-11.955797,159.1555,212.08596)"/>
<use data-text="I" xlink:href="#font_1_65" transform="matrix(11.955797,0,0,-11.955797,168.25388,212.08596)"/>
<use data-text="N" xlink:href="#font_1_76" transform="matrix(11.955797,0,0,-11.955797,172.47426,212.08596)"/>
<use data-text="A" xlink:href="#font_1_27" transform="matrix(11.955797,0,0,-11.955797,181.24982,212.08596)"/>
<path transform="matrix(1.00005,0,0,-1.00005,6.023552,207.81774)" stroke-width=".3985" stroke-linecap="butt" stroke-miterlimit="10" stroke-linejoin="miter" fill="none" stroke="#000000" d="M0 187.51326"/>
<use data-text="&#x2018;" xlink:href="#font_1_501" transform="matrix(0,-11.955797,-11.955797,-0,10.578766,62.169458)"/>
<use data-text="&#x0100;" xlink:href="#font_1_172" transform="matrix(0,-11.955797,-11.955797,-0,10.578766,58.91748)"/>
<use data-text="K" xlink:href="#font_1_69" transform="matrix(0,-11.955797,-11.955797,-0,10.578766,50.141923)"/>
<use data-text="A" xlink:href="#font_1_27" transform="matrix(0,-11.955797,-11.955797,-0,10.578766,41.043565)"/>
<use data-text="U" xlink:href="#font_1_108" transform="matrix(0,-11.955797,-11.955797,-0,10.578766,32.578859)"/>
<path transform="matrix(1.00005,0,0,-1.00005,6.023552,207.81774)" stroke-width=".3985" stroke-linecap="butt" stroke-miterlimit="10" stroke-linejoin="miter" fill="none" stroke="#000000" d="M200.90853 0"/>
<use data-text="(" xlink:href="#font_2_1" transform="matrix(9.963098,0,0,-9.963098,210.46176,210.30886)"/>
<use data-text="c" xlink:href="#font_2_11" transform="matrix(9.963098,0,0,-9.963098,214.32743,210.30886)"/>
<use data-text="o" xlink:href="#font_2_14" transform="matrix(9.963098,0,0,-9.963098,218.75104,210.30886)"/>
<use data-text="s" xlink:href="#font_2_15" transform="matrix(9.963098,0,0,-9.963098,223.7326,210.30886)"/>
<use data-text="0" xlink:href="#font_2_3" transform="matrix(9.963098,0,0,-9.963098,229.31192,210.30886)"/>
<use data-text="&#x25e6;" xlink:href="#font_3_1" transform="matrix(6.9741489,0,0,-6.9741489,234.31795,206.69268)"/>
<use data-text="," xlink:href="#font_4_2" transform="matrix(9.963098,0,0,-9.963098,238.89818,210.30886)"/>
<use data-text="s" xlink:href="#font_2_15" transform="matrix(9.963098,0,0,-9.963098,243.3264,210.30886)"/>
<use data-text="i" xlink:href="#font_2_12" transform="matrix(9.963098,0,0,-9.963098,247.25186,210.30886)"/>
<use data-text="n" xlink:href="#font_2_13" transform="matrix(9.963098,0,0,-9.963098,250.01163,210.30886)"/>
<use data-text="0" xlink:href="#font_2_3" transform="matrix(9.963098,0,0,-9.963098,257.195,210.30886)"/>
<use data-text="&#x25e6;" xlink:href="#font_3_1" transform="matrix(6.9741489,0,0,-6.9741489,262.20137,206.69268)"/>
<use data-text=")" xlink:href="#font_2_2" transform="matrix(9.963098,0,0,-9.963098,266.78157,210.30886)"/>
<use data-text="=" xlink:href="#font_2_9" transform="matrix(9.963098,0,0,-9.963098,273.40705,210.30886)"/>
<use data-text="(" xlink:href="#font_2_1" transform="matrix(9.963098,0,0,-9.963098,283.9181,210.30886)"/>
<use data-text="1" xlink:href="#font_2_4" transform="matrix(9.963098,0,0,-9.963098,287.7838,210.30886)"/>
<use data-text="," xlink:href="#font_4_2" transform="matrix(9.963098,0,0,-9.963098,292.79588,210.30886)"/>
<use data-text="0" xlink:href="#font_2_3" transform="matrix(9.963098,0,0,-9.963098,297.2241,210.30886)"/>
<use data-text=")" xlink:href="#font_2_2" transform="matrix(9.963098,0,0,-9.963098,302.20564,210.30886)"/>
<path transform="matrix(1.00005,0,0,-1.00005,6.023552,207.81774)" stroke-width=".3985" stroke-linecap="butt" stroke-miterlimit="10" stroke-linejoin="miter" fill="none" stroke="#000000" d="M185.6067 76.87677"/>
<use data-text="(" xlink:href="#font_2_1" transform="matrix(9.963098,0,0,-9.963098,195.16,133.42801)"/>
<use data-text="c" xlink:href="#font_2_11" transform="matrix(9.963098,0,0,-9.963098,199.02567,133.42801)"/>
<use data-text="o" xlink:href="#font_2_14" transform="matrix(9.963098,0,0,-9.963098,203.44928,133.42801)"/>
<use data-text="s" xlink:href="#font_2_15" transform="matrix(9.963098,0,0,-9.963098,208.43085,133.42801)"/>
<use data-text="2" xlink:href="#font_2_5" transform="matrix(9.963098,0,0,-9.963098,214.01016,133.42801)"/>
<use data-text="2" xlink:href="#font_2_5" transform="matrix(9.963098,0,0,-9.963098,218.99173,133.42801)"/>
<use data-text="." xlink:href="#font_4_1" transform="matrix(9.963098,0,0,-9.963098,223.99744,133.42801)"/>
<use data-text="5" xlink:href="#font_2_7" transform="matrix(9.963098,0,0,-9.963098,226.76557,133.42801)"/>
<use data-text="&#x25e6;" xlink:href="#font_3_1" transform="matrix(6.9741489,0,0,-6.9741489,231.74683,129.81183)"/>
<use data-text="," xlink:href="#font_4_2" transform="matrix(9.963098,0,0,-9.963098,236.32706,133.42801)"/>
<use data-text="s" xlink:href="#font_2_15" transform="matrix(9.963098,0,0,-9.963098,240.75527,133.42801)"/>
<use data-text="i" xlink:href="#font_2_12" transform="matrix(9.963098,0,0,-9.963098,244.68073,133.42801)"/>
<use data-text="n" xlink:href="#font_2_13" transform="matrix(9.963098,0,0,-9.963098,247.4405,133.42801)"/>
<use data-text="2" xlink:href="#font_2_5" transform="matrix(9.963098,0,0,-9.963098,254.6239,133.42801)"/>
<use data-text="2" xlink:href="#font_2_5" transform="matrix(9.963098,0,0,-9.963098,259.60545,133.42801)"/>
<use data-text="." xlink:href="#font_4_1" transform="matrix(9.963098,0,0,-9.963098,264.61146,133.42801)"/>
<use data-text="5" xlink:href="#font_2_7" transform="matrix(9.963098,0,0,-9.963098,267.3786,133.42801)"/>
<use data-text="&#x25e6;" xlink:href="#font_3_1" transform="matrix(6.9741489,0,0,-6.9741489,272.36085,129.81183)"/>
<use data-text=")" xlink:href="#font_2_2" transform="matrix(9.963098,0,0,-9.963098,276.94108,133.42801)"/>
<use data-text="=" xlink:href="#font_2_9" transform="matrix(9.963098,0,0,-9.963098,283.56654,133.42801)"/>
<use data-text="(" xlink:href="#font_2_1" transform="matrix(9.963098,0,0,-9.963098,294.0776,133.42801)"/>
<use data-text="?" xlink:href="#font_2_10" transform="matrix(9.963098,0,0,-9.963098,297.9433,133.42801)"/>
<use data-text="," xlink:href="#font_4_2" transform="matrix(9.963098,0,0,-9.963098,302.67936,133.42801)"/>
<use data-text="?" xlink:href="#font_2_10" transform="matrix(9.963098,0,0,-9.963098,307.10658,133.42801)"/>
<use data-text=")" xlink:href="#font_2_2" transform="matrix(9.963098,0,0,-9.963098,311.80915,133.42801)"/>
<path transform="matrix(1.00005,0,0,-1.00005,6.023552,207.81774)" stroke-width=".3985" stroke-linecap="butt" stroke-miterlimit="10" stroke-linejoin="miter" fill="none" stroke="#000000" d="M142.06336 142.06336"/>
<use data-text="(" xlink:href="#font_2_1" transform="matrix(9.963098,0,0,-9.963098,151.61383,68.23776)"/>
<use data-text="c" xlink:href="#font_2_11" transform="matrix(9.963098,0,0,-9.963098,155.47949,68.23776)"/>
<use data-text="o" xlink:href="#font_2_14" transform="matrix(9.963098,0,0,-9.963098,159.9031,68.23776)"/>
<use data-text="s" xlink:href="#font_2_15" transform="matrix(9.963098,0,0,-9.963098,164.88468,68.23776)"/>
<use data-text="4" xlink:href="#font_2_6" transform="matrix(9.963098,0,0,-9.963098,170.46399,68.23776)"/>
<use data-text="5" xlink:href="#font_2_7" transform="matrix(9.963098,0,0,-9.963098,175.44556,68.23776)"/>
<use data-text="&#x25e6;" xlink:href="#font_3_1" transform="matrix(6.9741489,0,0,-6.9741489,180.45127,64.62158)"/>
<use data-text="," xlink:href="#font_4_2" transform="matrix(9.963098,0,0,-9.963098,185.0325,68.23776)"/>
<use data-text="s" xlink:href="#font_2_15" transform="matrix(9.963098,0,0,-9.963098,189.45972,68.23776)"/>
<use data-text="i" xlink:href="#font_2_12" transform="matrix(9.963098,0,0,-9.963098,193.38518,68.23776)"/>
<use data-text="n" xlink:href="#font_2_13" transform="matrix(9.963098,0,0,-9.963098,196.14496,68.23776)"/>
<use data-text="4" xlink:href="#font_2_6" transform="matrix(9.963098,0,0,-9.963098,203.32834,68.23776)"/>
<use data-text="5" xlink:href="#font_2_7" transform="matrix(9.963098,0,0,-9.963098,208.30989,68.23776)"/>
<use data-text="&#x25e6;" xlink:href="#font_3_1" transform="matrix(6.9741489,0,0,-6.9741489,213.3159,64.62158)"/>
<use data-text=")" xlink:href="#font_2_2" transform="matrix(9.963098,0,0,-9.963098,217.89614,68.23776)"/>
<use data-text="=" xlink:href="#font_2_9" transform="matrix(9.963098,0,0,-9.963098,224.5216,68.23776)"/>
<use data-text="(" xlink:href="#font_5_1" transform="matrix(9.963098,0,0,-9.963098,235.055,57.178209)"/>
<use data-text="&#x221a;" xlink:href="#font_3_2" transform="matrix(6.9741489,0,0,-6.9741489,242.20134,58.513277)"/>
<path transform="matrix(1.00005,0,0,-1.00005,60.586275,-126.589969)" stroke-width=".3387" stroke-linecap="butt" stroke-miterlimit="10" stroke-linejoin="miter" fill="none" stroke="#000000" d="M188.151-184.925H192.122"/>
<use data-text="2" xlink:href="#font_6_1" transform="matrix(6.9741489,0,0,-6.9741489,248.74668,64.29057)"/>
<path transform="matrix(1.00005,0,0,-1.00005,60.586275,-126.589969)" stroke-width=".3985" stroke-linecap="butt" stroke-miterlimit="10" stroke-linejoin="miter" fill="none" stroke="#000000" d="M181.606-192.327H192.122"/>
<use data-text="2" xlink:href="#font_6_1" transform="matrix(6.9741489,0,0,-6.9741489,245.47351,71.67294)"/>
<use data-text="," xlink:href="#font_4_2" transform="matrix(9.963098,0,0,-9.963098,253.91294,68.23778)"/>
<use data-text="&#x221a;" xlink:href="#font_3_2" transform="matrix(6.9741489,0,0,-6.9741489,259.5372,58.51329)"/>
<path transform="matrix(1.00005,0,0,-1.00005,60.586275,-126.589969)" stroke-width=".3387" stroke-linecap="butt" stroke-miterlimit="10" stroke-linejoin="miter" fill="none" stroke="#000000" d="M205.486-184.925H209.457"/>
<use data-text="2" xlink:href="#font_6_1" transform="matrix(6.9741489,0,0,-6.9741489,266.08253,64.29057)"/>
<path transform="matrix(1.00005,0,0,-1.00005,60.586275,-126.589969)" stroke-width=".3985" stroke-linecap="butt" stroke-miterlimit="10" stroke-linejoin="miter" fill="none" stroke="#000000" d="M198.941-192.327H209.457"/>
<use data-text="2" xlink:href="#font_6_1" transform="matrix(6.9741489,0,0,-6.9741489,262.8094,71.67294)"/>
<use data-text=")" xlink:href="#font_5_2" transform="matrix(9.963098,0,0,-9.963098,271.24879,57.178224)"/>
<path transform="matrix(1.00005,0,0,-1.00005,6.023552,207.81774)" stroke-width=".3985" stroke-linecap="butt" stroke-miterlimit="10" stroke-linejoin="miter" fill="none" stroke="#000000" d="M0 200.90853"/>
<use data-text="(" xlink:href="#font_2_1" transform="matrix(9.963098,0,0,-9.963098,9.543724,9.389816)"/>
<use data-text="c" xlink:href="#font_2_11" transform="matrix(9.963098,0,0,-9.963098,13.409401,9.389816)"/>
<use data-text="o" xlink:href="#font_2_14" transform="matrix(9.963098,0,0,-9.963098,17.833016,9.389816)"/>
<use data-text="s" xlink:href="#font_2_15" transform="matrix(9.963098,0,0,-9.963098,22.814568,9.389816)"/>
<use data-text="9" xlink:href="#font_2_8" transform="matrix(9.963098,0,0,-9.963098,28.393898,9.389816)"/>
<use data-text="0" xlink:href="#font_2_3" transform="matrix(9.963098,0,0,-9.963098,33.37545,9.389816)"/>
<use data-text="&#x25e6;" xlink:href="#font_3_1" transform="matrix(6.9741489,0,0,-6.9741489,38.381166,5.773636)"/>
<use data-text="," xlink:href="#font_4_2" transform="matrix(9.963098,0,0,-9.963098,42.962396,9.389816)"/>
<use data-text="s" xlink:href="#font_2_15" transform="matrix(9.963098,0,0,-9.963098,47.389619,9.389816)"/>
<use data-text="i" xlink:href="#font_2_12" transform="matrix(9.963098,0,0,-9.963098,51.31508,9.389816)"/>
<use data-text="n" xlink:href="#font_2_13" transform="matrix(9.963098,0,0,-9.963098,54.07486,9.389816)"/>
<use data-text="9" xlink:href="#font_2_8" transform="matrix(9.963098,0,0,-9.963098,61.25824,9.389816)"/>
<use data-text="0" xlink:href="#font_2_3" transform="matrix(9.963098,0,0,-9.963098,66.23979,9.389816)"/>
<use data-text="&#x25e6;" xlink:href="#font_3_1" transform="matrix(6.9741489,0,0,-6.9741489,71.245807,5.773636)"/>
<use data-text=")" xlink:href="#font_2_2" transform="matrix(9.963098,0,0,-9.963098,75.826038,9.389816)"/>
<use data-text="=" xlink:href="#font_2_9" transform="matrix(9.963098,0,0,-9.963098,82.45151,9.389816)"/>
<use data-text="(" xlink:href="#font_2_1" transform="matrix(9.963098,0,0,-9.963098,92.96257,9.389816)"/>
<use data-text="0" xlink:href="#font_2_3" transform="matrix(9.963098,0,0,-9.963098,96.82826,9.389816)"/>
<use data-text="," xlink:href="#font_4_2" transform="matrix(9.963098,0,0,-9.963098,101.84134,9.389816)"/>
<use data-text="1" xlink:href="#font_2_4" transform="matrix(9.963098,0,0,-9.963098,106.26956,9.389816)"/>
<use data-text=")" xlink:href="#font_2_2" transform="matrix(9.963098,0,0,-9.963098,111.2511,9.389816)"/>
<path transform="matrix(1.00005,0,0,-1.00005,6.023552,207.81774)" stroke-width=".3985" stroke-linecap="butt" stroke-miterlimit="10" stroke-linejoin="miter" fill="none" stroke="#000000" d="M173.23041 71.75278"/>
<use data-text="&#x2018;" xlink:href="#font_7_501" transform="matrix(9.204308,-3.8124788,-3.8124788,-9.204308,129.18344,160.00714)"/>
<use data-text="&#x0100;" xlink:href="#font_7_172" transform="matrix(9.204308,-3.8124788,-3.8124788,-9.204308,131.74222,158.94727)"/>
<use data-text="i" xlink:href="#font_7_66" transform="matrix(9.204308,-3.8124788,-3.8124788,-9.204308,138.64545,156.0879)"/>
<use data-text="n" xlink:href="#font_7_77" transform="matrix(9.204308,-3.8124788,-3.8124788,-9.204308,141.20426,155.02805)"/>
<use data-text="a" xlink:href="#font_7_28" transform="matrix(9.204308,-3.8124788,-3.8124788,-9.204308,146.32184,152.9083)"/>
<use data-text="," xlink:href="#font_7_45" transform="matrix(9.204308,-3.8124788,-3.8124788,-9.204308,150.92401,151.00206)"/>
<use data-text="2" xlink:href="#font_2_5" transform="matrix(9.204308,-3.8124788,-3.8124788,-9.204308,156.548,148.67256)"/>
<use data-text="2" xlink:href="#font_2_5" transform="matrix(9.204308,-3.8124788,-3.8124788,-9.204308,161.15018,146.76633)"/>
<use data-text="." xlink:href="#font_4_1" transform="matrix(9.204308,-3.8124788,-3.8124788,-9.204308,165.75269,144.85994)"/>
<use data-text="5" xlink:href="#font_2_7" transform="matrix(9.204308,-3.8124788,-3.8124788,-9.204308,168.30908,143.80106)"/>
<use data-text="&#x25e6;" xlink:href="#font_3_1" transform="matrix(6.442997,-2.6687277,-2.6687277,-6.442997,171.52719,138.55417)"/>
<path transform="matrix(1.00005,0,0,-1.00005,6.023552,207.81774)" stroke-width=".3985" stroke-linecap="butt" stroke-miterlimit="10" stroke-linejoin="miter" fill="none" stroke="#000000" d="M132.58917 132.58917"/>
<use data-text="M" xlink:href="#font_7_74" transform="matrix(7.044906,-7.044906,-7.044906,-7.044906,105.667697,111.665378)"/>
<use data-text="a" xlink:href="#font_7_28" transform="matrix(7.044906,-7.044906,-7.044906,-7.044906,112.12787,105.205188)"/>
<use data-text="n" xlink:href="#font_7_77" transform="matrix(7.044906,-7.044906,-7.044906,-7.044906,115.65033,101.68274)"/>
<use data-text="u" xlink:href="#font_7_109" transform="matrix(7.044906,-7.044906,-7.044906,-7.044906,119.377079,97.95598)"/>
<use data-text="," xlink:href="#font_7_45" transform="matrix(7.044906,-7.044906,-7.044906,-7.044906,123.29404,94.03902)"/>
<use data-text="4" xlink:href="#font_2_6" transform="matrix(7.044906,-7.044906,-7.044906,-7.044906,127.591709,89.74135)"/>
<use data-text="5" xlink:href="#font_2_7" transform="matrix(7.044906,-7.044906,-7.044906,-7.044906,131.11417,86.21889)"/>
<use data-text="&#x25e6;" xlink:href="#font_3_1" transform="matrix(4.9314205,-4.9314205,-4.9314205,-4.9314205,132.07991,80.13916)"/>
</svg>
