<svg xmlns="http://www.w3.org/2000/svg" xmlns:xlink="http://www.w3.org/1999/xlink" xmlns:inkscape="http://www.inkscape.org/namespaces/inkscape" version="1.1" width="457" height="259" viewBox="0 0 457 259">
<defs>
<path id="font_1_74" d="M.8789978 0V.0309906H.8549957C.7779999 .0309906 .776001 .041992189 .776001 .07795715V.6046295C.776001 .64060977 .7779999 .6516113 .8549957 .6516113H.8789978V.6826172H.70999148C.6839905 .6826172 .6839905 .6816101 .6769867 .66360476L.45799256 .10095215 .24099732 .660614C.23199463 .6826172 .22898865 .6826172 .20599365 .6826172H.036987306V.6516113H.06098938C.13798523 .6516113 .13999939 .64060977 .13999939 .6046295V.10494995C.13999939 .07795715 .13999939 .0309906 .036987306 .0309906V0L.1539917 .0029907227 .2709961 0V.0309906C.16799927 .0309906 .16799927 .07795715 .16799927 .10494995V.6436157H.16899109L.4099884 .021987915C.4149933 .008987427 .41999818 0 .42999269 0 .44099427 0 .44400025 .0079956059 .44799806 .018997193L.69400027 .6516113H.69499209V.07795715C.69499209 .041992189 .69299319 .0309906 .6159973 .0309906H.59199526V0C.6289978 .0029907227 .69699099 .0029907227 .73599246 .0029907227 .7749939 .0029907227 .84199526 .0029907227 .8789978 0Z"/>
<path id="font_1_28" d="M.48298646 .08912659V.14511109H.45799256V.08912659C.45799256 .03112793 .43299867 .025131226 .42199708 .025131226 .3889923 .025131226 .3849945 .070129398 .3849945 .07511902V.27508546C.3849945 .31707765 .3849945 .3560791 .34899903 .39312745 .30999757 .43223573 .2599945 .4482422 .21199036 .4482422 .12998963 .4482422 .06098938 .40115357 .06098938 .335083 .06098938 .30508424 .08099365 .28808595 .10699463 .28808595 .1349945 .28808595 .15299988 .30807496 .15299988 .33407594 .15299988 .3460846 .147995 .37908937 .101989749 .38008119 .1289978 .41519166 .17799378 .426239 .20999146 .426239 .25898744 .426239 .31599427 .38710023 .31599427 .29808045V.26107789C.2649994 .25808717 .19499207 .25508119 .13198853 .22509766 .056991579 .19110108 .03199768 .13911438 .03199768 .09512329 .03199768 .014251709 .1289978-.0107421879 .19198609-.0107421879 .2579956-.0107421879 .3039856 .029251099 .32299806 .07624817 .32699586 .036132814 .35398866-.005859375 .40098573-.005859375 .42199708-.005859375 .48298646 .008132935 .48298646 .08912659M.31599427 .14013672C.31599427 .04525757 .24398804 .011245728 .19898987 .011245728 .1499939 .011245728 .10899353 .04624939 .10899353 .09625244 .10899353 .15124512 .15098572 .23425293 .31599427 .24024964V.14013672Z"/>
<path id="font_1_96" d="M.3639984 .38137818C.3639984 .41337586 .33299256 .4423828 .2899933 .4423828 .21699524 .4423828 .18099976 .37538148 .16699219 .3323822V.4423828L.027999878 .43066407V.3996582C.09799194 .3996582 .10598755 .39266969 .10598755 .34370423V.07595825C.10598755 .0309906 .09498596 .0309906 .027999878 .0309906V0L.14199829 .0029907227C.18199158 .0029907227 .22898865 .0029907227 .2689972 0V.0309906H.24798584C.17399597 .0309906 .17199707 .04197693 .17199707 .07795715V.23181153C.17199707 .33137513 .21398926 .42037965 .2899933 .42037965 .29699708 .42037965 .29899598 .42037965 .30099488 .41937257 .2979889 .41838075 .27799989 .40637208 .27799989 .3803711 .27799989 .35237123 .29899598 .33737184 .32099916 .33737184 .33898927 .33737184 .3639984 .3493805 .3639984 .38137818Z"/>
<path id="font_1_109" d="M.5349884 0V.0309906C.46499635 .0309906 .45700074 .037994386 .45700074 .08705139V.4423828L.30999757 .43066407V.3996582C.37998963 .3996582 .3880005 .39266969 .3880005 .34373475V.16601563C.3880005 .07910156 .33999635 .011245728 .2669983 .011245728 .18299866 .011245728 .1789856 .058135988 .1789856 .11009216V.4423828L.03199768 .43066407V.3996582C.10998535 .3996582 .10998535 .39666749 .10998535 .3078003V.15802002C.10998535 .080093387 .10998535-.0107421879 .2619934-.0107421879 .31799317-.0107421879 .3619995 .017242432 .3909912 .07910156V-.0107421879L.5349884 0Z"/>
<path id="font_1_75" d="M.8129883 0V.0309906C.7609863 .0309906 .73599246 .0309906 .7350006 .061019899V.25221253C.7350006 .3383026 .7350006 .36932374 .70399478 .405365 .6899872 .42237855 .6569977 .4423828 .598999 .4423828 .5149994 .4423828 .47099305 .38233949 .45399476 .34429933 .43998719 .43138124 .3659973 .4423828 .32099916 .4423828 .24798584 .4423828 .20098877 .39935304 .17298889 .33729554V.4423828L.03199768 .43066407V.3996582C.101989749 .3996582 .10998535 .39266969 .10998535 .34370423V.07595825C.10998535 .0309906 .09899902 .0309906 .03199768 .0309906V0L.14498902 .0029907227 .25698854 0V.0309906C.18998719 .0309906 .1789856 .0309906 .1789856 .07595825V.25978089C.1789856 .36431886 .25 .42037965 .31399537 .42037965 .3769989 .42037965 .3880005 .36631776 .3880005 .30926515V.076034549C.3880005 .0309906 .3769989 .0309906 .30999757 .0309906V0L.4229889 .0029907227 .5349884 0V.0309906C.46798707 .0309906 .45700074 .0309906 .45700074 .076034549V.2602234C.45700074 .36431886 .5279999 .42037965 .59199526 .42037965 .6549988 .42037965 .66600039 .36631776 .66600039 .30926515V.076034549C.66600039 .0309906 .6549988 .0309906 .58799746 .0309906V0L.70098879 .0029907227 .8129883 0Z"/>
<path id="font_1_27" d="M.71699526 0V.0309906H.69898989C.6389923 .0309906 .625 .037979127 .6139984 .07095337L.397995 .6958008C.3929901 .7088165 .3909912 .7158203 .375 .7158203 .35899354 .7158203 .35598756 .70980837 .35099793 .6958008L.14399719 .09791565C.12599182 .04698181 .085998538 .03199768 .03199768 .0309906V0L.13398743 .0029907227 .24899292 0V.0309906C.19898987 .0309906 .17399597 .05596924 .17399597 .0819397 .17399597 .08493042 .1749878 .09492493 .17599488 .09692383L.22200012 .2277832H.46899415L.5219879 .07495117C.522995 .07095337 .5249939 .064956668 .5249939 .060958864 .5249939 .0309906 .46899415 .0309906 .44198609 .0309906V0C.47799684 .0029907227 .5479889 .0029907227 .58599856 .0029907227L.71699526 0M.45799256 .25878907H.23298645L.34498597 .58380129 .45799256 .25878907Z"/>
<path id="font_1_105" d="M.33198548 .12385559V.18066406H.30699159V.12585449C.30699159 .052108766 .2769928 .014251709 .23999024 .014251709 .17298889 .014251709 .17298889 .10491943 .17298889 .12187195V.3996582H.31599427V.43066407H.17298889V.6142578H.147995C.14698792 .5324249 .116989139 .42565919 .018997193 .42166139V.3996582H.10398865V.12408447C.10398865 .0012512207 .19699097-.0107421879 .23298645-.0107421879 .3039856-.0107421879 .33198548 .060180665 .33198548 .12408447V.12385559Z"/>
<path id="font_1_58" d="M.7350006 .24145508V.27246095L.61299136 .26945497C.57299807 .26945497 .48799134 .26945497 .45199586 .27246095V.24145508H.48399354C.57398989 .24145508 .57699587 .23045349 .57699587 .19346619V.12948609C.57699587 .017532349 .44999696 .008529663 .42199708 .008529663 .35699464 .008529663 .15899658 .043518068 .15899658 .34155274 .15899658 .6410217 .35598756 .67407229 .41600038 .67407229 .522995 .67407229 .6139984 .5839386 .6339874 .43670655 .6359863 .42268373 .6359863 .41967774 .6499939 .41967774 .66600039 .41967774 .66600039 .42268373 .66600039 .44371034V.68107607C.66600039 .69807437 .66600039 .7050781 .6549988 .7050781 .651001 .7050781 .6469879 .7050781 .6389923 .69306948L.58898928 .61898806C.5569916 .6510315 .5029907 .7050781 .4039917 .7050781 .21798706 .7050781 .055999757 .546875 .055999757 .34155274 .055999757 .13648987 .21598816-.022460938 .4059906-.022460938 .47898866-.022460938 .5589905 .0035247803 .59298709 .06251526 .60598757 .040527345 .6459961 .0005340576 .6569977 .0005340576 .66600039 .0005340576 .66600039 .008529663 .66600039 .023529053V.19746399C.66600039 .2364502 .66999819 .24145508 .7350006 .24145508Z"/>
<path id="font_1_72" d="M.25498963 0V.0309906C.18798828 .0309906 .1769867 .0309906 .1769867 .07601929V.69433596L.032989503 .6826172V.6516113C.102996829 .6516113 .11099243 .64460757 .11099243 .5956421V.07595825C.11099243 .0309906 .099990848 .0309906 .032989503 .0309906V0L.14399719 .0029907227 .25498963 0Z"/>
<path id="font_1_81" d="M.47099305 .21424866C.47099305 .34223939 .37098695 .4482422 .25 .4482422 .125 .4482422 .027999878 .3392334 .027999878 .21424866 .027999878 .085250858 .13198853-.0107421879 .24899292-.0107421879 .36999513-.0107421879 .47099305 .087249759 .47099305 .21424866M.3880005 .22224427C.3880005 .18624878 .3880005 .13224793 .3659973 .08824158 .34399415 .04324341 .2999878 .014251709 .25 .014251709 .20698548 .014251709 .16299439 .035247804 .13598633 .08125305 .11099243 .12524414 .11099243 .18624878 .11099243 .22224427 .11099243 .26124574 .11099243 .31523133 .1349945 .35923768 .1619873 .40522767 .20899964 .426239 .24899292 .426239 .29299928 .426239 .33599855 .40423585 .3619995 .36123658 .3880005 .3182373 .3880005 .26023866 .3880005 .22224427Z"/>
<path id="font_1_55" d="M.35699464 .63479617C.35699464 .6717987 .31999208 .7050781 .2669983 .7050781 .19699097 .7050781 .11199951 .65179446 .11199951 .5457611V.43066407H.032989503V.3996582H.11199951V.07595825C.11199951 .0309906 .100997928 .0309906 .033996583 .0309906V0L.147995 .0029907227C.18798828 .0029907227 .23498535 .0029907227 .2749939 0V.0309906H.2539978C.17999268 .0309906 .17799378 .04197693 .17799378 .07795715V.3996582H.2919922V.43066407H.1749878V.5467529C.1749878 .63479617 .22299195 .68307498 .2669983 .68307498 .269989 .68307498 .2849884 .68307498 .2999878 .675827 .28799439 .6717987 .269989 .6587982 .269989 .6338043 .269989 .61079409 .28599549 .5907898 .31298829 .5907898 .34199525 .5907898 .35699464 .61079409 .35699464 .63479617Z"/>
<path id="font_1_104" d="M.68499758 .45214845 .66600039 .6767578H.054992677L.035995485 .45214845H.06098938C.07499695 .6128235 .08999634 .64575198 .24099732 .64575198 .25898744 .64575198 .2849884 .64575198 .29499818 .64375308 .31599427 .6397705 .31599427 .6287842 .31599427 .60583499V.07901001C.31599427 .04499817 .31599427 .0309906 .21099854 .0309906H.17098999V0C.21199036 .0029907227 .31399537 .0029907227 .3600006 .0029907227 .4059906 .0029907227 .5089874 .0029907227 .5499878 0V.0309906H.5099945C.40499879 .0309906 .40499879 .04499817 .40499879 .07901001V.60583499C.40499879 .62579348 .40499879 .6397705 .4229889 .64375308 .43399049 .64575198 .46099855 .64575198 .47999574 .64575198 .6309967 .64575198 .6459961 .6128235 .6599884 .45214845H.68499758Z"/>
<path id="font_1_50" d="M.4149933 .11933899C.4149933 .12934876 .40699769 .13134766 .4019928 .13134766 .3929901 .13134766 .3909912 .12535095 .3889923 .11734009 .35398866 .014251709 .2639923 .014251709 .2539978 .014251709 .20399475 .014251709 .1639862 .044281007 .14099121 .08131409 .11099243 .12934876 .11099243 .19540406 .11099243 .23144531H.3899994C.4119873 .23144531 .4149933 .23144531 .4149933 .2524414 .4149933 .35131837 .36099244 .4482422 .23599243 .4482422 .11999512 .4482422 .027999878 .34532167 .027999878 .22042847 .027999878 .08631897 .1329956-.0107421879 .24798584-.0107421879 .36999513-.0107421879 .4149933 .10032654 .4149933 .11933899M.34899903 .2524414H.11199951C.117996219 .40126039 .20199585 .426239 .23599243 .426239 .33898927 .426239 .34899903 .2913971 .34899903 .2524414Z"/>
<path id="font_1_173" d="M.48298646 .08912659V.14511109H.45799256V.08912659C.45799256 .03112793 .43299867 .025131226 .42199708 .025131226 .3889923 .025131226 .3849945 .070129398 .3849945 .07511902V.27508546C.3849945 .31707765 .3849945 .3560791 .34899903 .39312745 .30999757 .43223573 .2599945 .4482422 .21199036 .4482422 .12998963 .4482422 .06098938 .40115357 .06098938 .335083 .06098938 .30508424 .08099365 .28808595 .10699463 .28808595 .1349945 .28808595 .15299988 .30807496 .15299988 .33407594 .15299988 .3460846 .147995 .37908937 .101989749 .38008119 .1289978 .41519166 .17799378 .426239 .20999146 .426239 .25898744 .426239 .31599427 .38710023 .31599427 .29808045V.26107789C.2649994 .25808717 .19499207 .25508119 .13198853 .22509766 .056991579 .19110108 .03199768 .13911438 .03199768 .09512329 .03199768 .014251709 .1289978-.0107421879 .19198609-.0107421879 .2579956-.0107421879 .3039856 .029251099 .32299806 .07624817 .32699586 .036132814 .35398866-.005859375 .40098573-.005859375 .42199708-.005859375 .48298646 .008132935 .48298646 .08912659M.31599427 .14013672C.31599427 .04525757 .24398804 .011245728 .19898987 .011245728 .1499939 .011245728 .10899353 .04624939 .10899353 .09625244 .10899353 .15124512 .15098572 .23425293 .31599427 .24024964V.14013672M.43099977 .5891113V.6201172H.069992069V.5891113H.43099977Z"/>
<path id="font_1_66" d="M.24699402 0V.0309906C.18099976 .0309906 .1769867 .035995485 .1769867 .075042728V.4423828L.036987306 .43066407V.3996582C.101989749 .3996582 .11099243 .3936615 .11099243 .3447113V.07595825C.11099243 .0309906 .099990848 .0309906 .032989503 .0309906V0L.14299011 .0029907227C.17799378 .0029907227 .21299744 .0009918213 .24699402 0M.19198609 .603775C.19198609 .6307678 .16899109 .6567688 .13899231 .6567688 .10499573 .6567688 .084991458 .6287689 .084991458 .603775 .084991458 .57676699 .10798645 .55078127 .13798523 .55078127 .17199707 .55078127 .19198609 .5787811 .19198609 .603775Z"/>
<path id="font_1_54" d="M.6100006 .45477296 .58200076 .6796875H.032989503V.64868167H.056991579C.13398743 .64868167 .13598633 .63768008 .13598633 .6016998V.07797241C.13598633 .041992189 .13398743 .0309906 .056991579 .0309906H.032989503V0C.067993167 .0029907227 .1459961 .0029907227 .18499756 .0029907227 .22599793 .0029907227 .31698609 .0029907227 .35299684 0V.0309906H.31999208C.22499085 .031188965 .22499085 .044189454 .22499085 .079193118V.3251953H.31098939C.40699769 .3251953 .4169922 .29318238 .4169922 .20819092H.44198609V.4731903H.4169922C.4169922 .38919068 .40699769 .3561859 .31098939 .3561859H.22499085V.6091919C.22499085 .64167788 .22698975 .64868167 .27398683 .64868167H.3939972C.5439911 .64868167 .56900027 .5926819 .58499148 .4546814L.6100006 .45477296Z"/>
<path id="font_1_501" d="M.19198609 .44699098C.19198609 .47299195 .1749878 .5 .13899231 .5 .11898804 .5 .10499573 .48999024 .09899902 .48399354 .09799194 .48199464 .09599304 .48098756 .09599304 .48098756 .09599304 .48098756 .09399414 .49499513 .09399414 .49899293 .09399414 .53105166 .100997928 .60317996 .1639862 .66529849 .17599488 .6773224 .17599488 .6793213 .17599488 .6823273 .17599488 .6893463 .17098999 .6933594 .1659851 .6933594 .15499878 .6933594 .07199097 .617218 .07199097 .49899293 .07199097 .43899537 .09599304 .3939972 .13899231 .3939972 .17399597 .3939972 .19198609 .42099 .19198609 .44699098Z"/>
<path id="font_1_62" d="M.71598818 0V.0309906H.69200137C.61499026 .0309906 .61299136 .041992189 .61299136 .07797241V.6046448C.61299136 .640625 .61499026 .6516113 .69200137 .6516113H.71598818V.6826172C.68099978 .6796112 .6069946 .6796112 .56900027 .6796112 .5309906 .6796112 .45599366 .6796112 .42099 .6826172V.6516113H.44499208C.5219879 .6516113 .5239868 .640625 .5239868 .6046448V.37083436H.22499085V.6046448C.22499085 .640625 .22698975 .6516113 .3039856 .6516113H.32798768V.6826172C.29299928 .6796112 .21899414 .6796112 .18099976 .6796112 .14299011 .6796112 .067993167 .6796112 .032989503 .6826172V.6516113H.056991579C.13398743 .6516113 .13598633 .640625 .13598633 .6046448V.07797241C.13598633 .041992189 .13398743 .0309906 .056991579 .0309906H.032989503V0C.067993167 .0029907227 .14199829 .0029907227 .17999268 .0029907227 .21798706 .0029907227 .29299928 .0029907227 .32798768 0V.0309906H.3039856C.22698975 .0309906 .22499085 .041992189 .22499085 .07797241V.33984376H.5239868V.07797241C.5239868 .041992189 .5219879 .0309906 .44499208 .0309906H.42099V0C.45599366 .0029907227 .5299988 .0029907227 .56799319 .0029907227 .60598757 .0029907227 .68099978 .0029907227 .71598818 0Z"/>
<path id="font_1_77" d="M.5349884 0V.0309906C.48298646 .0309906 .45799256 .0309906 .45700074 .061019899V.25221253C.45700074 .3383026 .45700074 .36932374 .42599488 .405365 .4119873 .42237855 .3789978 .4423828 .32099916 .4423828 .24798584 .4423828 .20098877 .39935304 .17298889 .33729554V.4423828L.03199768 .43066407V.3996582C.101989749 .3996582 .10998535 .39266969 .10998535 .34370423V.07595825C.10998535 .0309906 .09899902 .0309906 .03199768 .0309906V0L.14498902 .0029907227 .25698854 0V.0309906C.18998719 .0309906 .1789856 .0309906 .1789856 .07595825V.25978089C.1789856 .36431886 .25 .42037965 .31399537 .42037965 .3769989 .42037965 .3880005 .36631776 .3880005 .30926515V.076034549C.3880005 .0309906 .3769989 .0309906 .30999757 .0309906V0L.4229889 .0029907227 .5349884 0Z"/>
<path id="font_1_108" d="M.71598818 .6516113V.6826172L.59799197 .6796112 .47898866 .6826172V.6516113C.58200076 .6516113 .58200076 .6044922 .58200076 .57748416V.23051453C.58200076 .088531497 .4850006 .008529663 .3899994 .008529663 .34298707 .008529663 .22499085 .03352356 .22499085 .22351074V.6044922C.22499085 .6405792 .22698975 .6516113 .3039856 .6516113H.32798768V.6826172C.29299928 .6796112 .21899414 .6796112 .18099976 .6796112 .14299011 .6796112 .067993167 .6796112 .032989503 .6826172V.6516113H.056991579C.13398743 .6516113 .13598633 .6405792 .13598633 .6044922V.22750855C.13598633 .086517337 .2519989-.022460938 .3880005-.022460938 .5029907-.022460938 .59298709 .07052612 .6100006 .18450928 .61299136 .20451355 .61299136 .21351624 .61299136 .25350953V.5734863C.61299136 .6064911 .61299136 .6516113 .71598818 .6516113Z"/>
<path id="font_1_76" d="M.71598818 .6516113V.6826172L.598999 .6796112 .48199464 .6826172V.6516113C.58499148 .6516113 .58499148 .6046295 .58499148 .577652V.15092469L.23199463 .6696167C.22299195 .6816101 .22200012 .6826172 .20298767 .6826172H.032989503V.6516113H.06199646C.07699585 .6516113 .09700012 .65060427 .11199951 .6496124 .1349945 .64660647 .13598633 .6456146 .13598633 .62661746V.10494995C.13598633 .07795715 .13598633 .0309906 .032989503 .0309906V0L.1499939 .0029907227 .2669983 0V.0309906C.1639862 .0309906 .1639862 .07795715 .1639862 .10494995V.62461856C.16899109 .6196289 .16999817 .6186218 .17399597 .6126251L.58200076 .0129852299C.59098818 .0009918213 .59199526 0 .598999 0 .61299136 0 .61299136 .0069885256 .61299136 .025985718V.577652C.61299136 .6046295 .61299136 .6516113 .71598818 .6516113Z"/>
<path id="font_1_117" d="M.73799136 .6516113V.6826172C.70700076 .680603 .6669922 .6796112 .6399994 .6796112L.5249939 .6826172V.6516113C.56599429 .6516113 .58200076 .63261416 .58200076 .6126251 .58200076 .6016388 .57598879 .5886383 .57199099 .5826416L.40699769 .31481935 .22599793 .6096344C.21899414 .6196289 .21899414 .6216278 .21899414 .62661746 .21899414 .6476135 .24398804 .6516113 .2889862 .6516113V.6826172C.25299073 .6796112 .17999268 .6796112 .14099121 .6796112L.010986328 .6826172V.6516113H.0289917C.09700012 .6516113 .10499573 .64060977 .12098694 .614624L.33099366 .2728424V.07795715C.33099366 .041992189 .32899476 .0309906 .2519989 .0309906H.22799683V0C.2639923 .0029907227 .33499146 .0029907227 .37399293 .0029907227 .41299439 .0029907227 .48399354 .0029907227 .519989 0V.0309906H.49699403C.41999818 .0309906 .4169922 .040985109 .4169922 .079956058V.2728424L.6100006 .5866394C.6469879 .6476135 .70599368 .6516113 .73799136 .6516113Z"/>
</defs>
<path transform="matrix(1.00005,0,0,-1.00002,228.87848,143.53256)" stroke-width=".3985" stroke-linecap="butt" stroke-miterlimit="10" stroke-linejoin="miter" fill="none" stroke="#cccccc" d="M-226.77448-113.38724H226.77448M-226.77448-85.04042H226.77448M-226.77448-56.69362H226.77448M-226.77448-28.3468H226.77448M-226.77448 0H226.77448M-226.77448 28.3468H226.77448M-226.77448 56.69362H226.77448M-226.77448 85.04042H226.77448M-226.77448 113.38724H226.77448M-226.77448 141.72409H226.77448M-226.77448-113.38724V141.73404M-198.42766-113.38724V141.73404M-170.08086-113.38724V141.73404M-141.73404-113.38724V141.73404M-113.38724-113.38724V141.73404M-85.04042-113.38724V141.73404M-56.69362-113.38724V141.73404M-28.3468-113.38724V141.73404M0-113.38724V141.73404M28.3468-113.38724V141.73404M56.69362-113.38724V141.73404M85.04042-113.38724V141.73404M113.38724-113.38724V141.73404M141.73404-113.38724V141.73404M170.08086-113.38724V141.73404M198.42766-113.38724V141.73404M226.76451-113.38724V141.73404M226.77448 141.73404"/>
<path transform="matrix(1.00005,0,0,-1.00002,228.87848,143.53256)" stroke-width="1.99255" stroke-linecap="butt" stroke-miterlimit="10" stroke-linejoin="miter" fill="none" stroke="#0000ff" d="M-141.73404-85.04042-59.7933-3.09969"/>
<path transform="matrix(.7071353,-.70711418,-.7071353,-.70711418,169.08217,146.63233)" d="M4.38364 0-2.63017 3.50691 0 0-2.63017-3.50691" fill="#0000ff"/>
<use data-text="M" xlink:href="#font_1_74" transform="matrix(7.044906,-7.0446956,-7.044906,-7.0446956,101.357089,208.09589)"/>
<use data-text="a" xlink:href="#font_1_28" transform="matrix(7.044906,-7.0446956,-7.044906,-7.0446956,107.81726,201.6359)"/>
<use data-text="r" xlink:href="#font_1_96" transform="matrix(7.044906,-7.0446956,-7.044906,-7.0446956,111.33969,198.11356)"/>
<use data-text="u" xlink:href="#font_1_109" transform="matrix(7.044906,-7.0446956,-7.044906,-7.0446956,114.10129,195.35204)"/>
<use data-text="m" xlink:href="#font_1_75" transform="matrix(7.044906,-7.0446956,-7.044906,-7.0446956,118.01828,191.43518)"/>
<use data-text="a" xlink:href="#font_1_28" transform="matrix(7.044906,-7.0446956,-7.044906,-7.0446956,123.88669,185.56694)"/>
<use data-text="r" xlink:href="#font_1_96" transform="matrix(7.044906,-7.0446956,-7.044906,-7.0446956,127.40915,182.04459)"/>
<use data-text="u" xlink:href="#font_1_109" transform="matrix(7.044906,-7.0446956,-7.044906,-7.0446956,130.17075,179.28308)"/>
<use data-text="A" xlink:href="#font_1_27" transform="matrix(7.044906,-7.0446956,-7.044906,-7.0446956,136.43366,173.02034)"/>
<use data-text="t" xlink:href="#font_1_105" transform="matrix(7.044906,-7.0446956,-7.044906,-7.0446956,141.52713,167.92702)"/>
<use data-text="u" xlink:href="#font_1_109" transform="matrix(7.044906,-7.0446956,-7.044906,-7.0446956,144.26761,165.18663)"/>
<use data-text="a" xlink:href="#font_1_28" transform="matrix(7.044906,-7.0446956,-7.044906,-7.0446956,148.18457,161.26976)"/>
<path transform="matrix(1.00005,0,0,-1.00002,228.87848,143.53256)" stroke-width="1.99255" stroke-linecap="butt" stroke-miterlimit="10" stroke-linejoin="miter" fill="none" stroke="#0000ff" d="M-198.42766-28.3468-116.48692 53.59392"/>
<path transform="matrix(.7071353,-.70711418,-.7071353,-.70711418,112.38572,89.93759)" d="M4.38364 0-2.63017 3.50691 0 0-2.63017-3.50691" fill="#0000ff"/>
<use data-text="G" xlink:href="#font_1_58" transform="matrix(7.044906,-7.0446956,-7.044906,-7.0446956,55.929826,139.97754)"/>
<use data-text="a" xlink:href="#font_1_28" transform="matrix(7.044906,-7.0446956,-7.044906,-7.0446956,61.460069,134.44745)"/>
<use data-text="u" xlink:href="#font_1_109" transform="matrix(7.044906,-7.0446956,-7.044906,-7.0446956,64.9825,130.9251)"/>
<use data-text="a" xlink:href="#font_1_28" transform="matrix(7.044906,-7.0446956,-7.044906,-7.0446956,68.89949,127.00824)"/>
<use data-text="l" xlink:href="#font_1_72" transform="matrix(7.044906,-7.0446956,-7.044906,-7.0446956,72.42195,123.4859)"/>
<use data-text="o" xlink:href="#font_1_81" transform="matrix(7.044906,-7.0446956,-7.044906,-7.0446956,74.38042,121.52748)"/>
<use data-text="f" xlink:href="#font_1_55" transform="matrix(7.044906,-7.0446956,-7.044906,-7.0446956,77.90285,118.00514)"/>
<use data-text="a" xlink:href="#font_1_28" transform="matrix(7.044906,-7.0446956,-7.044906,-7.0446956,80.05861,115.84947)"/>
<path transform="matrix(1.00005,0,0,-1.00002,228.87848,143.53256)" stroke-width="1.99255" stroke-linecap="butt" stroke-miterlimit="10" stroke-linejoin="miter" fill="none" stroke="#0000ff" d="M-28.3468-56.69362 53.59392 25.2471"/>
<path transform="matrix(.7071353,-.70711418,-.7071353,-.70711418,282.47508,118.284969)" d="M4.38364 0-2.63017 3.50691 0 0-2.63017-3.50691" fill="#0000ff"/>
<use data-text="T" xlink:href="#font_1_104" transform="matrix(7.044906,-7.0446956,-7.044906,-7.0446956,212.81665,181.68134)"/>
<use data-text="e" xlink:href="#font_1_50" transform="matrix(7.044906,-7.0446956,-7.044906,-7.0446956,217.32538,177.17273)"/>
<use data-text="M" xlink:href="#font_1_74" transform="matrix(7.044906,-7.0446956,-7.044906,-7.0446956,222.79224,171.70604)"/>
<use data-text="a" xlink:href="#font_1_28" transform="matrix(7.044906,-7.0446956,-7.044906,-7.0446956,229.25241,165.24605)"/>
<use data-text="t" xlink:href="#font_1_105" transform="matrix(7.044906,-7.0446956,-7.044906,-7.0446956,232.77484,161.7237)"/>
<use data-text="a" xlink:href="#font_1_28" transform="matrix(7.044906,-7.0446956,-7.044906,-7.0446956,235.51532,158.9833)"/>
<use data-text="u" xlink:href="#font_1_109" transform="matrix(7.044906,-7.0446956,-7.044906,-7.0446956,239.03778,155.46097)"/>
<use data-text="a" xlink:href="#font_1_28" transform="matrix(7.044906,-7.0446956,-7.044906,-7.0446956,245.30072,149.19823)"/>
<use data-text="M" xlink:href="#font_1_74" transform="matrix(7.044906,-7.0446956,-7.044906,-7.0446956,251.1691,143.33)"/>
<use data-text="&#x0101;" xlink:href="#font_1_173" transform="matrix(7.044906,-7.0446956,-7.044906,-7.0446956,257.62928,136.87001)"/>
<use data-text="u" xlink:href="#font_1_109" transform="matrix(7.044906,-7.0446956,-7.044906,-7.0446956,261.15174,133.34767)"/>
<use data-text="i" xlink:href="#font_1_66" transform="matrix(7.044906,-7.0446956,-7.044906,-7.0446956,265.0687,129.43083)"/>
<path transform="matrix(1.00005,0,0,-1.00002,228.87848,143.53256)" stroke-width="1.99255" stroke-linecap="butt" stroke-miterlimit="10" stroke-linejoin="miter" fill="none" stroke="#0000ff" d="M56.69362-85.04042 138.63434-3.09969"/>
<path transform="matrix(.7071353,-.70711418,-.7071353,-.70711418,367.5197,146.63233)" d="M4.38364 0-2.63017 3.50691 0 0-2.63017-3.50691" fill="#0000ff"/>
<use data-text="F" xlink:href="#font_1_54" transform="matrix(7.044906,-7.0446956,-7.044906,-7.0446956,311.7046,196.18567)"/>
<use data-text="a" xlink:href="#font_1_28" transform="matrix(7.044906,-7.0446956,-7.044906,-7.0446956,315.72724,192.16313)"/>
<use data-text="&#x2018;" xlink:href="#font_1_501" transform="matrix(7.044906,-7.0446956,-7.044906,-7.0446956,319.2497,188.6408)"/>
<use data-text="a" xlink:href="#font_1_28" transform="matrix(7.044906,-7.0446956,-7.044906,-7.0446956,321.20814,186.68238)"/>
<use data-text="f" xlink:href="#font_1_55" transform="matrix(7.044906,-7.0446956,-7.044906,-7.0446956,324.7306,183.16004)"/>
<use data-text="a" xlink:href="#font_1_28" transform="matrix(7.044906,-7.0446956,-7.044906,-7.0446956,326.88636,181.00435)"/>
<use data-text="i" xlink:href="#font_1_66" transform="matrix(7.044906,-7.0446956,-7.044906,-7.0446956,330.40879,177.48201)"/>
<use data-text="t" xlink:href="#font_1_105" transform="matrix(7.044906,-7.0446956,-7.044906,-7.0446956,332.36726,175.52359)"/>
<use data-text="e" xlink:href="#font_1_50" transform="matrix(7.044906,-7.0446956,-7.044906,-7.0446956,335.10774,172.7832)"/>
<path transform="matrix(1.00005,0,0,-1.00002,228.87848,143.53256)" stroke-width="1.99255" stroke-linecap="butt" stroke-miterlimit="10" stroke-linejoin="miter" fill="none" stroke="#0000ff" d="M-85.04042 28.3468-3.09969 110.28754"/>
<path transform="matrix(.7071353,-.70711418,-.7071353,-.70711418,225.77863,33.24283)" d="M4.38364 0-2.63017 3.50691 0 0-2.63017-3.50691" fill="#0000ff"/>
<use data-text="H" xlink:href="#font_1_62" transform="matrix(7.044906,-7.0446956,-7.044906,-7.0446956,172.06662,80.69333)"/>
<use data-text="a" xlink:href="#font_1_28" transform="matrix(7.044906,-7.0446956,-7.044906,-7.0446956,177.35028,75.409809)"/>
<use data-text="u" xlink:href="#font_1_109" transform="matrix(7.044906,-7.0446956,-7.044906,-7.0446956,180.87271,71.88745)"/>
<use data-text="n" xlink:href="#font_1_77" transform="matrix(7.044906,-7.0446956,-7.044906,-7.0446956,184.7897,67.9706)"/>
<use data-text="u" xlink:href="#font_1_109" transform="matrix(7.044906,-7.0446956,-7.044906,-7.0446956,188.51648,64.24394)"/>
<use data-text="i" xlink:href="#font_1_66" transform="matrix(7.044906,-7.0446956,-7.044906,-7.0446956,192.43344,60.327089)"/>
<path transform="matrix(1.00005,0,0,-1.00002,228.87848,143.53256)" stroke-width="1.99255" stroke-linecap="butt" stroke-miterlimit="10" stroke-linejoin="miter" fill="none" stroke="#0000ff" d="M0 28.3468 81.94072 110.28754"/>
<path transform="matrix(.7071353,-.70711418,-.7071353,-.70711418,310.82328,33.24283)" d="M4.38364 0-2.63017 3.50691 0 0-2.63017-3.50691" fill="#0000ff"/>
<use data-text="H" xlink:href="#font_1_62" transform="matrix(7.044906,-7.0446956,-7.044906,-7.0446956,250.95056,86.85446)"/>
<use data-text="i" xlink:href="#font_1_66" transform="matrix(7.044906,-7.0446956,-7.044906,-7.0446956,256.23423,81.57094)"/>
<use data-text="n" xlink:href="#font_1_77" transform="matrix(7.044906,-7.0446956,-7.044906,-7.0446956,258.1927,79.61252)"/>
<use data-text="e" xlink:href="#font_1_50" transform="matrix(7.044906,-7.0446956,-7.044906,-7.0446956,262.10969,75.69566)"/>
<use data-text="m" xlink:href="#font_1_75" transform="matrix(7.044906,-7.0446956,-7.044906,-7.0446956,265.2376,72.56781)"/>
<use data-text="o" xlink:href="#font_1_81" transform="matrix(7.044906,-7.0446956,-7.044906,-7.0446956,271.10603,66.69957)"/>
<use data-text="a" xlink:href="#font_1_28" transform="matrix(7.044906,-7.0446956,-7.044906,-7.0446956,274.62849,63.17723)"/>
<use data-text="n" xlink:href="#font_1_77" transform="matrix(7.044906,-7.0446956,-7.044906,-7.0446956,278.15095,59.654878)"/>
<use data-text="a" xlink:href="#font_1_28" transform="matrix(7.044906,-7.0446956,-7.044906,-7.0446956,282.0679,55.73802)"/>
<path transform="matrix(1.00005,0,0,-1.00002,228.87848,143.53256)" stroke-width="1.99255" stroke-linecap="butt" stroke-miterlimit="10" stroke-linejoin="miter" fill="none" stroke="#0000ff" d="M113.38724 0 195.32796 81.94072"/>
<path transform="matrix(.7071353,-.70711418,-.7071353,-.70711418,424.2162,61.590227)" d="M4.38364 0-2.63017 3.50691 0 0-2.63017-3.50691" fill="#0000ff"/>
<use data-text="U" xlink:href="#font_1_108" transform="matrix(7.044906,-7.0446956,-7.044906,-7.0446956,362.99415,116.39606)"/>
<use data-text="t" xlink:href="#font_1_105" transform="matrix(7.044906,-7.0446956,-7.044906,-7.0446956,368.27784,111.11253)"/>
<use data-text="o" xlink:href="#font_1_81" transform="matrix(7.044906,-7.0446956,-7.044906,-7.0446956,371.0183,108.37213)"/>
<use data-text="N" xlink:href="#font_1_76" transform="matrix(7.044906,-7.0446956,-7.044906,-7.0446956,376.88667,102.50392)"/>
<use data-text="i" xlink:href="#font_1_66" transform="matrix(7.044906,-7.0446956,-7.044906,-7.0446956,382.17036,97.2204)"/>
<use data-text="Y" xlink:href="#font_1_117" transform="matrix(7.044906,-7.0446956,-7.044906,-7.0446956,386.4748,92.91611)"/>
<use data-text="a" xlink:href="#font_1_28" transform="matrix(7.044906,-7.0446956,-7.044906,-7.0446956,391.1808,88.210239)"/>
<use data-text="l" xlink:href="#font_1_72" transform="matrix(7.044906,-7.0446956,-7.044906,-7.0446956,394.70326,84.6879)"/>
<use data-text="o" xlink:href="#font_1_81" transform="matrix(7.044906,-7.0446956,-7.044906,-7.0446956,396.66175,82.72948)"/>
<path transform="matrix(1.00005,0,0,-1.00002,228.87848,143.53256)" stroke-width=".3985" stroke-linecap="butt" stroke-miterlimit="10" stroke-linejoin="miter" fill="none" stroke="#000000" d=""/>
<path transform="matrix(1.00005,0,0,-1.00002,228.87848,143.53256)" d="M-134.16515-72.56387-132.60103-74.66078-132.96012-76.2665-150.32079-93.62717-151.58058-93.83914-154.76357-92.05635-152.58744-92.5509-151.5188-92.41998-134.32819-75.22937-134.08014-74.31946Z" fill="#993300" fill-opacity=".1"/>
<path transform="matrix(1.00005,0,0,-1.00002,228.87848,143.53256)" d="M-144.94118-85.84236-154.9691-75.81444-156.40142-83.84639Z" fill="#993300" fill-opacity=".1"/>
<path transform="matrix(1.00005,0,0,-1.00002,228.87848,143.53256)" d="M-137.12366-78.02484-149.35128-65.79724-151.1105-75.66396Z" fill="#993300" fill-opacity=".1"/>
<path transform="matrix(1.00005,0,0,-1.00002,228.87848,143.53256)" stroke-width=".3985" stroke-linecap="butt" stroke-miterlimit="10" stroke-linejoin="miter" fill="none" stroke="#993300" d="M-134.16515-72.56387-132.60103-74.66078"/>
<path transform="matrix(1.00005,0,0,-1.00002,228.87848,143.53256)" stroke-width=".3985" stroke-linecap="butt" stroke-miterlimit="10" stroke-linejoin="miter" fill="none" stroke="#993300" d="M-132.60103-74.66078-132.96012-76.2665"/>
<path transform="matrix(1.00005,0,0,-1.00002,228.87848,143.53256)" stroke-width=".3985" stroke-linecap="butt" stroke-miterlimit="10" stroke-linejoin="miter" fill="none" stroke="#993300" d="M-132.96012-76.2665-150.32079-93.62717"/>
<path transform="matrix(1.00005,0,0,-1.00002,228.87848,143.53256)" stroke-width=".3985" stroke-linecap="butt" stroke-miterlimit="10" stroke-linejoin="miter" fill="none" stroke="#993300" d="M-150.32079-93.62717-151.58058-93.83914"/>
<path transform="matrix(1.00005,0,0,-1.00002,228.87848,143.53256)" stroke-width=".3985" stroke-linecap="butt" stroke-miterlimit="10" stroke-linejoin="miter" fill="none" stroke="#993300" d="M-151.58058-93.83914-154.76357-92.05635"/>
<path transform="matrix(1.00005,0,0,-1.00002,228.87848,143.53256)" stroke-width=".3985" stroke-linecap="butt" stroke-miterlimit="10" stroke-linejoin="miter" fill="none" stroke="#993300" d="M-154.76357-92.05635-152.58744-92.5509"/>
<path transform="matrix(1.00005,0,0,-1.00002,228.87848,143.53256)" stroke-width=".3985" stroke-linecap="butt" stroke-miterlimit="10" stroke-linejoin="miter" fill="none" stroke="#993300" d="M-152.58744-92.5509-151.5188-92.41998"/>
<path transform="matrix(1.00005,0,0,-1.00002,228.87848,143.53256)" stroke-width=".3985" stroke-linecap="butt" stroke-miterlimit="10" stroke-linejoin="miter" fill="none" stroke="#993300" d="M-151.5188-92.41998-134.32819-75.22937"/>
<path transform="matrix(1.00005,0,0,-1.00002,228.87848,143.53256)" stroke-width=".3985" stroke-linecap="butt" stroke-miterlimit="10" stroke-linejoin="miter" fill="none" stroke="#993300" d="M-134.32819-75.22937-134.08014-74.31946"/>
<path transform="matrix(1.00005,0,0,-1.00002,228.87848,143.53256)" stroke-width=".3985" stroke-linecap="butt" stroke-miterlimit="10" stroke-linejoin="miter" fill="none" stroke="#993300" d="M-134.08014-74.31946-134.16515-72.56387"/>
<path transform="matrix(1.00005,0,0,-1.00002,228.87848,143.53256)" stroke-width=".3985" stroke-linecap="butt" stroke-miterlimit="10" stroke-linejoin="miter" fill="none" stroke="#993300" d="M-144.94118-85.84236-154.9691-75.81444"/>
<path transform="matrix(1.00005,0,0,-1.00002,228.87848,143.53256)" stroke-width=".3985" stroke-linecap="butt" stroke-miterlimit="10" stroke-linejoin="miter" fill="none" stroke="#993300" d="M-154.9691-75.81444-156.40142-83.84639"/>
<path transform="matrix(1.00005,0,0,-1.00002,228.87848,143.53256)" stroke-width=".3985" stroke-linecap="butt" stroke-miterlimit="10" stroke-linejoin="miter" fill="none" stroke="#993300" d="M-156.40142-83.84639-144.94118-85.84236"/>
<path transform="matrix(1.00005,0,0,-1.00002,228.87848,143.53256)" stroke-width=".3985" stroke-linecap="butt" stroke-miterlimit="10" stroke-linejoin="miter" fill="none" stroke="#993300" d="M-137.12366-78.02484-149.35128-65.79724"/>
<path transform="matrix(1.00005,0,0,-1.00002,228.87848,143.53256)" stroke-width=".3985" stroke-linecap="butt" stroke-miterlimit="10" stroke-linejoin="miter" fill="none" stroke="#993300" d="M-149.35128-65.79724-151.1105-75.66396"/>
<path transform="matrix(1.00005,0,0,-1.00002,228.87848,143.53256)" stroke-width=".3985" stroke-linecap="butt" stroke-miterlimit="10" stroke-linejoin="miter" fill="none" stroke="#993300" d="M-151.1105-75.66396-137.12366-78.02484"/>
<path transform="matrix(1.00005,0,0,-1.00002,228.87848,143.53256)" stroke-width=".3985" stroke-linecap="butt" stroke-miterlimit="10" stroke-linejoin="miter" fill="none" stroke="#000000" d=""/>
<path transform="matrix(1.00005,0,0,-1.00002,228.87848,143.53256)" d="M-190.85877-15.87025-189.29465-17.96716-189.65373-19.57288-207.0144-36.93355-208.2742-37.14552-211.45719-35.36273-209.28105-35.85728-208.21242-35.72636-191.0218-18.53575-190.77376-17.62584Z" fill="#993300" fill-opacity=".1"/>
<path transform="matrix(1.00005,0,0,-1.00002,228.87848,143.53256)" d="M-201.6348-29.14874-211.66272-19.12082-213.09503-27.15276Z" fill="#993300" fill-opacity=".1"/>
<path transform="matrix(1.00005,0,0,-1.00002,228.87848,143.53256)" d="M-193.81728-21.33122-206.04489-9.10362-207.80413-18.97034Z" fill="#993300" fill-opacity=".1"/>
<path transform="matrix(1.00005,0,0,-1.00002,228.87848,143.53256)" stroke-width=".3985" stroke-linecap="butt" stroke-miterlimit="10" stroke-linejoin="miter" fill="none" stroke="#993300" d="M-190.85877-15.87025-189.29465-17.96716"/>
<path transform="matrix(1.00005,0,0,-1.00002,228.87848,143.53256)" stroke-width=".3985" stroke-linecap="butt" stroke-miterlimit="10" stroke-linejoin="miter" fill="none" stroke="#993300" d="M-189.29465-17.96716-189.65373-19.57288"/>
<path transform="matrix(1.00005,0,0,-1.00002,228.87848,143.53256)" stroke-width=".3985" stroke-linecap="butt" stroke-miterlimit="10" stroke-linejoin="miter" fill="none" stroke="#993300" d="M-189.65373-19.57288-207.0144-36.93355"/>
<path transform="matrix(1.00005,0,0,-1.00002,228.87848,143.53256)" stroke-width=".3985" stroke-linecap="butt" stroke-miterlimit="10" stroke-linejoin="miter" fill="none" stroke="#993300" d="M-207.0144-36.93355-208.2742-37.14552"/>
<path transform="matrix(1.00005,0,0,-1.00002,228.87848,143.53256)" stroke-width=".3985" stroke-linecap="butt" stroke-miterlimit="10" stroke-linejoin="miter" fill="none" stroke="#993300" d="M-208.2742-37.14552-211.45719-35.36273"/>
<path transform="matrix(1.00005,0,0,-1.00002,228.87848,143.53256)" stroke-width=".3985" stroke-linecap="butt" stroke-miterlimit="10" stroke-linejoin="miter" fill="none" stroke="#993300" d="M-211.45719-35.36273-209.28105-35.85728"/>
<path transform="matrix(1.00005,0,0,-1.00002,228.87848,143.53256)" stroke-width=".3985" stroke-linecap="butt" stroke-miterlimit="10" stroke-linejoin="miter" fill="none" stroke="#993300" d="M-209.28105-35.85728-208.21242-35.72636"/>
<path transform="matrix(1.00005,0,0,-1.00002,228.87848,143.53256)" stroke-width=".3985" stroke-linecap="butt" stroke-miterlimit="10" stroke-linejoin="miter" fill="none" stroke="#993300" d="M-208.21242-35.72636-191.0218-18.53575"/>
<path transform="matrix(1.00005,0,0,-1.00002,228.87848,143.53256)" stroke-width=".3985" stroke-linecap="butt" stroke-miterlimit="10" stroke-linejoin="miter" fill="none" stroke="#993300" d="M-191.0218-18.53575-190.77376-17.62584"/>
<path transform="matrix(1.00005,0,0,-1.00002,228.87848,143.53256)" stroke-width=".3985" stroke-linecap="butt" stroke-miterlimit="10" stroke-linejoin="miter" fill="none" stroke="#993300" d="M-190.77376-17.62584-190.85877-15.87025"/>
<path transform="matrix(1.00005,0,0,-1.00002,228.87848,143.53256)" stroke-width=".3985" stroke-linecap="butt" stroke-miterlimit="10" stroke-linejoin="miter" fill="none" stroke="#993300" d="M-201.6348-29.14874-211.66272-19.12082"/>
<path transform="matrix(1.00005,0,0,-1.00002,228.87848,143.53256)" stroke-width=".3985" stroke-linecap="butt" stroke-miterlimit="10" stroke-linejoin="miter" fill="none" stroke="#993300" d="M-211.66272-19.12082-213.09503-27.15276"/>
<path transform="matrix(1.00005,0,0,-1.00002,228.87848,143.53256)" stroke-width=".3985" stroke-linecap="butt" stroke-miterlimit="10" stroke-linejoin="miter" fill="none" stroke="#993300" d="M-213.09503-27.15276-201.6348-29.14874"/>
<path transform="matrix(1.00005,0,0,-1.00002,228.87848,143.53256)" stroke-width=".3985" stroke-linecap="butt" stroke-miterlimit="10" stroke-linejoin="miter" fill="none" stroke="#993300" d="M-193.81728-21.33122-206.04489-9.10362"/>
<path transform="matrix(1.00005,0,0,-1.00002,228.87848,143.53256)" stroke-width=".3985" stroke-linecap="butt" stroke-miterlimit="10" stroke-linejoin="miter" fill="none" stroke="#993300" d="M-206.04489-9.10362-207.80413-18.97034"/>
<path transform="matrix(1.00005,0,0,-1.00002,228.87848,143.53256)" stroke-width=".3985" stroke-linecap="butt" stroke-miterlimit="10" stroke-linejoin="miter" fill="none" stroke="#993300" d="M-207.80413-18.97034-193.81728-21.33122"/>
<path transform="matrix(1.00005,0,0,-1.00002,228.87848,143.53256)" stroke-width=".3985" stroke-linecap="butt" stroke-miterlimit="10" stroke-linejoin="miter" fill="none" stroke="#000000" d=""/>
<path transform="matrix(1.00005,0,0,-1.00002,228.87848,143.53256)" d="M-20.77791-44.21706-19.21379-46.31398-19.57288-47.91968-36.93355-65.28036-38.19333-65.49234-41.37633-63.70953-39.2002-64.20409-38.13156-64.07317-20.94095-46.88255-20.6929-45.97264Z" fill="#993300" fill-opacity=".1"/>
<path transform="matrix(1.00005,0,0,-1.00002,228.87848,143.53256)" d="M-31.55394-57.49554-41.58186-47.46762-43.01418-55.49957Z" fill="#993300" fill-opacity=".1"/>
<path transform="matrix(1.00005,0,0,-1.00002,228.87848,143.53256)" d="M-23.73642-49.67804-35.96402-37.45042-37.72327-47.31715Z" fill="#993300" fill-opacity=".1"/>
<path transform="matrix(1.00005,0,0,-1.00002,228.87848,143.53256)" stroke-width=".3985" stroke-linecap="butt" stroke-miterlimit="10" stroke-linejoin="miter" fill="none" stroke="#993300" d="M-20.77791-44.21706-19.21379-46.31398"/>
<path transform="matrix(1.00005,0,0,-1.00002,228.87848,143.53256)" stroke-width=".3985" stroke-linecap="butt" stroke-miterlimit="10" stroke-linejoin="miter" fill="none" stroke="#993300" d="M-19.21379-46.31398-19.57288-47.91968"/>
<path transform="matrix(1.00005,0,0,-1.00002,228.87848,143.53256)" stroke-width=".3985" stroke-linecap="butt" stroke-miterlimit="10" stroke-linejoin="miter" fill="none" stroke="#993300" d="M-19.57288-47.91968-36.93355-65.28036"/>
<path transform="matrix(1.00005,0,0,-1.00002,228.87848,143.53256)" stroke-width=".3985" stroke-linecap="butt" stroke-miterlimit="10" stroke-linejoin="miter" fill="none" stroke="#993300" d="M-36.93355-65.28036-38.19333-65.49234"/>
<path transform="matrix(1.00005,0,0,-1.00002,228.87848,143.53256)" stroke-width=".3985" stroke-linecap="butt" stroke-miterlimit="10" stroke-linejoin="miter" fill="none" stroke="#993300" d="M-38.19333-65.49234-41.37633-63.70953"/>
<path transform="matrix(1.00005,0,0,-1.00002,228.87848,143.53256)" stroke-width=".3985" stroke-linecap="butt" stroke-miterlimit="10" stroke-linejoin="miter" fill="none" stroke="#993300" d="M-41.37633-63.70953-39.2002-64.20409"/>
<path transform="matrix(1.00005,0,0,-1.00002,228.87848,143.53256)" stroke-width=".3985" stroke-linecap="butt" stroke-miterlimit="10" stroke-linejoin="miter" fill="none" stroke="#993300" d="M-39.2002-64.20409-38.13156-64.07317"/>
<path transform="matrix(1.00005,0,0,-1.00002,228.87848,143.53256)" stroke-width=".3985" stroke-linecap="butt" stroke-miterlimit="10" stroke-linejoin="miter" fill="none" stroke="#993300" d="M-38.13156-64.07317-20.94095-46.88255"/>
<path transform="matrix(1.00005,0,0,-1.00002,228.87848,143.53256)" stroke-width=".3985" stroke-linecap="butt" stroke-miterlimit="10" stroke-linejoin="miter" fill="none" stroke="#993300" d="M-20.94095-46.88255-20.6929-45.97264"/>
<path transform="matrix(1.00005,0,0,-1.00002,228.87848,143.53256)" stroke-width=".3985" stroke-linecap="butt" stroke-miterlimit="10" stroke-linejoin="miter" fill="none" stroke="#993300" d="M-20.6929-45.97264-20.77791-44.21706"/>
<path transform="matrix(1.00005,0,0,-1.00002,228.87848,143.53256)" stroke-width=".3985" stroke-linecap="butt" stroke-miterlimit="10" stroke-linejoin="miter" fill="none" stroke="#993300" d="M-31.55394-57.49554-41.58186-47.46762"/>
<path transform="matrix(1.00005,0,0,-1.00002,228.87848,143.53256)" stroke-width=".3985" stroke-linecap="butt" stroke-miterlimit="10" stroke-linejoin="miter" fill="none" stroke="#993300" d="M-41.58186-47.46762-43.01418-55.49957"/>
<path transform="matrix(1.00005,0,0,-1.00002,228.87848,143.53256)" stroke-width=".3985" stroke-linecap="butt" stroke-miterlimit="10" stroke-linejoin="miter" fill="none" stroke="#993300" d="M-43.01418-55.49957-31.55394-57.49554"/>
<path transform="matrix(1.00005,0,0,-1.00002,228.87848,143.53256)" stroke-width=".3985" stroke-linecap="butt" stroke-miterlimit="10" stroke-linejoin="miter" fill="none" stroke="#993300" d="M-23.73642-49.67804-35.96402-37.45042"/>
<path transform="matrix(1.00005,0,0,-1.00002,228.87848,143.53256)" stroke-width=".3985" stroke-linecap="butt" stroke-miterlimit="10" stroke-linejoin="miter" fill="none" stroke="#993300" d="M-35.96402-37.45042-37.72327-47.31715"/>
<path transform="matrix(1.00005,0,0,-1.00002,228.87848,143.53256)" stroke-width=".3985" stroke-linecap="butt" stroke-miterlimit="10" stroke-linejoin="miter" fill="none" stroke="#993300" d="M-37.72327-47.31715-23.73642-49.67804"/>
<path transform="matrix(1.00005,0,0,-1.00002,228.87848,143.53256)" stroke-width=".3985" stroke-linecap="butt" stroke-miterlimit="10" stroke-linejoin="miter" fill="none" stroke="#000000" d=""/>
<path transform="matrix(1.00005,0,0,-1.00002,228.87848,143.53256)" d="M64.26251-72.56387 65.82663-74.66078 65.46754-76.2665 48.10687-93.62717 46.84708-93.83914 43.6641-92.05635 45.84023-92.5509 46.90886-92.41998 64.09947-75.22937 64.34752-74.31946Z" fill="#993300" fill-opacity=".1"/>
<path transform="matrix(1.00005,0,0,-1.00002,228.87848,143.53256)" d="M53.48648-85.84236 43.45856-75.81444 42.02625-83.84639Z" fill="#993300" fill-opacity=".1"/>
<path transform="matrix(1.00005,0,0,-1.00002,228.87848,143.53256)" d="M61.30399-78.02484 49.07639-65.79724 47.31715-75.66396Z" fill="#993300" fill-opacity=".1"/>
<path transform="matrix(1.00005,0,0,-1.00002,228.87848,143.53256)" stroke-width=".3985" stroke-linecap="butt" stroke-miterlimit="10" stroke-linejoin="miter" fill="none" stroke="#993300" d="M64.26251-72.56387 65.82663-74.66078"/>
<path transform="matrix(1.00005,0,0,-1.00002,228.87848,143.53256)" stroke-width=".3985" stroke-linecap="butt" stroke-miterlimit="10" stroke-linejoin="miter" fill="none" stroke="#993300" d="M65.82663-74.66078 65.46754-76.2665"/>
<path transform="matrix(1.00005,0,0,-1.00002,228.87848,143.53256)" stroke-width=".3985" stroke-linecap="butt" stroke-miterlimit="10" stroke-linejoin="miter" fill="none" stroke="#993300" d="M65.46754-76.2665 48.10687-93.62717"/>
<path transform="matrix(1.00005,0,0,-1.00002,228.87848,143.53256)" stroke-width=".3985" stroke-linecap="butt" stroke-miterlimit="10" stroke-linejoin="miter" fill="none" stroke="#993300" d="M48.10687-93.62717 46.84708-93.83914"/>
<path transform="matrix(1.00005,0,0,-1.00002,228.87848,143.53256)" stroke-width=".3985" stroke-linecap="butt" stroke-miterlimit="10" stroke-linejoin="miter" fill="none" stroke="#993300" d="M46.84708-93.83914 43.6641-92.05635"/>
<path transform="matrix(1.00005,0,0,-1.00002,228.87848,143.53256)" stroke-width=".3985" stroke-linecap="butt" stroke-miterlimit="10" stroke-linejoin="miter" fill="none" stroke="#993300" d="M43.6641-92.05635 45.84023-92.5509"/>
<path transform="matrix(1.00005,0,0,-1.00002,228.87848,143.53256)" stroke-width=".3985" stroke-linecap="butt" stroke-miterlimit="10" stroke-linejoin="miter" fill="none" stroke="#993300" d="M45.84023-92.5509 46.90886-92.41998"/>
<path transform="matrix(1.00005,0,0,-1.00002,228.87848,143.53256)" stroke-width=".3985" stroke-linecap="butt" stroke-miterlimit="10" stroke-linejoin="miter" fill="none" stroke="#993300" d="M46.90886-92.41998 64.09947-75.22937"/>
<path transform="matrix(1.00005,0,0,-1.00002,228.87848,143.53256)" stroke-width=".3985" stroke-linecap="butt" stroke-miterlimit="10" stroke-linejoin="miter" fill="none" stroke="#993300" d="M64.09947-75.22937 64.34752-74.31946"/>
<path transform="matrix(1.00005,0,0,-1.00002,228.87848,143.53256)" stroke-width=".3985" stroke-linecap="butt" stroke-miterlimit="10" stroke-linejoin="miter" fill="none" stroke="#993300" d="M64.34752-74.31946 64.26251-72.56387"/>
<path transform="matrix(1.00005,0,0,-1.00002,228.87848,143.53256)" stroke-width=".3985" stroke-linecap="butt" stroke-miterlimit="10" stroke-linejoin="miter" fill="none" stroke="#993300" d="M53.48648-85.84236 43.45856-75.81444"/>
<path transform="matrix(1.00005,0,0,-1.00002,228.87848,143.53256)" stroke-width=".3985" stroke-linecap="butt" stroke-miterlimit="10" stroke-linejoin="miter" fill="none" stroke="#993300" d="M43.45856-75.81444 42.02625-83.84639"/>
<path transform="matrix(1.00005,0,0,-1.00002,228.87848,143.53256)" stroke-width=".3985" stroke-linecap="butt" stroke-miterlimit="10" stroke-linejoin="miter" fill="none" stroke="#993300" d="M42.02625-83.84639 53.48648-85.84236"/>
<path transform="matrix(1.00005,0,0,-1.00002,228.87848,143.53256)" stroke-width=".3985" stroke-linecap="butt" stroke-miterlimit="10" stroke-linejoin="miter" fill="none" stroke="#993300" d="M61.30399-78.02484 49.07639-65.79724"/>
<path transform="matrix(1.00005,0,0,-1.00002,228.87848,143.53256)" stroke-width=".3985" stroke-linecap="butt" stroke-miterlimit="10" stroke-linejoin="miter" fill="none" stroke="#993300" d="M49.07639-65.79724 47.31715-75.66396"/>
<path transform="matrix(1.00005,0,0,-1.00002,228.87848,143.53256)" stroke-width=".3985" stroke-linecap="butt" stroke-miterlimit="10" stroke-linejoin="miter" fill="none" stroke="#993300" d="M47.31715-75.66396 61.30399-78.02484"/>
<path transform="matrix(1.00005,0,0,-1.00002,228.87848,143.53256)" stroke-width=".3985" stroke-linecap="butt" stroke-miterlimit="10" stroke-linejoin="miter" fill="none" stroke="#000000" d=""/>
<path transform="matrix(1.00005,0,0,-1.00002,228.87848,143.53256)" d="M-77.47153 40.82335-75.90741 38.72644-76.2665 37.12073-93.62717 19.76006-94.88696 19.54808-98.06995 21.33087-95.89381 20.83632-94.82518 20.96724-77.63457 38.15785-77.38652 39.06776Z" fill="#993300" fill-opacity=".1"/>
<path transform="matrix(1.00005,0,0,-1.00002,228.87848,143.53256)" d="M-88.24756 27.54486-98.27548 37.57278-99.7078 29.54085Z" fill="#993300" fill-opacity=".1"/>
<path transform="matrix(1.00005,0,0,-1.00002,228.87848,143.53256)" d="M-80.43004 35.36238-92.65765 47.58998-94.41689 37.72327Z" fill="#993300" fill-opacity=".1"/>
<path transform="matrix(1.00005,0,0,-1.00002,228.87848,143.53256)" stroke-width=".3985" stroke-linecap="butt" stroke-miterlimit="10" stroke-linejoin="miter" fill="none" stroke="#993300" d="M-77.47153 40.82335-75.90741 38.72644"/>
<path transform="matrix(1.00005,0,0,-1.00002,228.87848,143.53256)" stroke-width=".3985" stroke-linecap="butt" stroke-miterlimit="10" stroke-linejoin="miter" fill="none" stroke="#993300" d="M-75.90741 38.72644-76.2665 37.12073"/>
<path transform="matrix(1.00005,0,0,-1.00002,228.87848,143.53256)" stroke-width=".3985" stroke-linecap="butt" stroke-miterlimit="10" stroke-linejoin="miter" fill="none" stroke="#993300" d="M-76.2665 37.12073-93.62717 19.76006"/>
<path transform="matrix(1.00005,0,0,-1.00002,228.87848,143.53256)" stroke-width=".3985" stroke-linecap="butt" stroke-miterlimit="10" stroke-linejoin="miter" fill="none" stroke="#993300" d="M-93.62717 19.76006-94.88696 19.54808"/>
<path transform="matrix(1.00005,0,0,-1.00002,228.87848,143.53256)" stroke-width=".3985" stroke-linecap="butt" stroke-miterlimit="10" stroke-linejoin="miter" fill="none" stroke="#993300" d="M-94.88696 19.54808-98.06995 21.33087"/>
<path transform="matrix(1.00005,0,0,-1.00002,228.87848,143.53256)" stroke-width=".3985" stroke-linecap="butt" stroke-miterlimit="10" stroke-linejoin="miter" fill="none" stroke="#993300" d="M-98.06995 21.33087-95.89381 20.83632"/>
<path transform="matrix(1.00005,0,0,-1.00002,228.87848,143.53256)" stroke-width=".3985" stroke-linecap="butt" stroke-miterlimit="10" stroke-linejoin="miter" fill="none" stroke="#993300" d="M-95.89381 20.83632-94.82518 20.96724"/>
<path transform="matrix(1.00005,0,0,-1.00002,228.87848,143.53256)" stroke-width=".3985" stroke-linecap="butt" stroke-miterlimit="10" stroke-linejoin="miter" fill="none" stroke="#993300" d="M-94.82518 20.96724-77.63457 38.15785"/>
<path transform="matrix(1.00005,0,0,-1.00002,228.87848,143.53256)" stroke-width=".3985" stroke-linecap="butt" stroke-miterlimit="10" stroke-linejoin="miter" fill="none" stroke="#993300" d="M-77.63457 38.15785-77.38652 39.06776"/>
<path transform="matrix(1.00005,0,0,-1.00002,228.87848,143.53256)" stroke-width=".3985" stroke-linecap="butt" stroke-miterlimit="10" stroke-linejoin="miter" fill="none" stroke="#993300" d="M-77.38652 39.06776-77.47153 40.82335"/>
<path transform="matrix(1.00005,0,0,-1.00002,228.87848,143.53256)" stroke-width=".3985" stroke-linecap="butt" stroke-miterlimit="10" stroke-linejoin="miter" fill="none" stroke="#993300" d="M-88.24756 27.54486-98.27548 37.57278"/>
<path transform="matrix(1.00005,0,0,-1.00002,228.87848,143.53256)" stroke-width=".3985" stroke-linecap="butt" stroke-miterlimit="10" stroke-linejoin="miter" fill="none" stroke="#993300" d="M-98.27548 37.57278-99.7078 29.54085"/>
<path transform="matrix(1.00005,0,0,-1.00002,228.87848,143.53256)" stroke-width=".3985" stroke-linecap="butt" stroke-miterlimit="10" stroke-linejoin="miter" fill="none" stroke="#993300" d="M-99.7078 29.54085-88.24756 27.54486"/>
<path transform="matrix(1.00005,0,0,-1.00002,228.87848,143.53256)" stroke-width=".3985" stroke-linecap="butt" stroke-miterlimit="10" stroke-linejoin="miter" fill="none" stroke="#993300" d="M-80.43004 35.36238-92.65765 47.58998"/>
<path transform="matrix(1.00005,0,0,-1.00002,228.87848,143.53256)" stroke-width=".3985" stroke-linecap="butt" stroke-miterlimit="10" stroke-linejoin="miter" fill="none" stroke="#993300" d="M-92.65765 47.58998-94.41689 37.72327"/>
<path transform="matrix(1.00005,0,0,-1.00002,228.87848,143.53256)" stroke-width=".3985" stroke-linecap="butt" stroke-miterlimit="10" stroke-linejoin="miter" fill="none" stroke="#993300" d="M-94.41689 37.72327-80.43004 35.36238"/>
<path transform="matrix(1.00005,0,0,-1.00002,228.87848,143.53256)" stroke-width=".3985" stroke-linecap="butt" stroke-miterlimit="10" stroke-linejoin="miter" fill="none" stroke="#000000" d=""/>
<path transform="matrix(1.00005,0,0,-1.00002,228.87848,143.53256)" d="M7.5689 40.82335 9.13301 38.72644 8.77393 37.12073-8.58675 19.76006-9.84653 19.54808-13.02951 21.33087-10.85338 20.83632-9.78474 20.96724 7.40585 38.15785 7.6539 39.06776Z" fill="#993300" fill-opacity=".1"/>
<path transform="matrix(1.00005,0,0,-1.00002,228.87848,143.53256)" d="M-3.20712 27.54486-13.23505 37.57278-14.66736 29.54085Z" fill="#993300" fill-opacity=".1"/>
<path transform="matrix(1.00005,0,0,-1.00002,228.87848,143.53256)" d="M4.61037 35.36238-7.61722 47.58998-9.37645 37.72327Z" fill="#993300" fill-opacity=".1"/>
<path transform="matrix(1.00005,0,0,-1.00002,228.87848,143.53256)" stroke-width=".3985" stroke-linecap="butt" stroke-miterlimit="10" stroke-linejoin="miter" fill="none" stroke="#993300" d="M7.5689 40.82335 9.13301 38.72644"/>
<path transform="matrix(1.00005,0,0,-1.00002,228.87848,143.53256)" stroke-width=".3985" stroke-linecap="butt" stroke-miterlimit="10" stroke-linejoin="miter" fill="none" stroke="#993300" d="M9.13301 38.72644 8.77393 37.12073"/>
<path transform="matrix(1.00005,0,0,-1.00002,228.87848,143.53256)" stroke-width=".3985" stroke-linecap="butt" stroke-miterlimit="10" stroke-linejoin="miter" fill="none" stroke="#993300" d="M8.77393 37.12073-8.58675 19.76006"/>
<path transform="matrix(1.00005,0,0,-1.00002,228.87848,143.53256)" stroke-width=".3985" stroke-linecap="butt" stroke-miterlimit="10" stroke-linejoin="miter" fill="none" stroke="#993300" d="M-8.58675 19.76006-9.84653 19.54808"/>
<path transform="matrix(1.00005,0,0,-1.00002,228.87848,143.53256)" stroke-width=".3985" stroke-linecap="butt" stroke-miterlimit="10" stroke-linejoin="miter" fill="none" stroke="#993300" d="M-9.84653 19.54808-13.02951 21.33087"/>
<path transform="matrix(1.00005,0,0,-1.00002,228.87848,143.53256)" stroke-width=".3985" stroke-linecap="butt" stroke-miterlimit="10" stroke-linejoin="miter" fill="none" stroke="#993300" d="M-13.02951 21.33087-10.85338 20.83632"/>
<path transform="matrix(1.00005,0,0,-1.00002,228.87848,143.53256)" stroke-width=".3985" stroke-linecap="butt" stroke-miterlimit="10" stroke-linejoin="miter" fill="none" stroke="#993300" d="M-10.85338 20.83632-9.78474 20.96724"/>
<path transform="matrix(1.00005,0,0,-1.00002,228.87848,143.53256)" stroke-width=".3985" stroke-linecap="butt" stroke-miterlimit="10" stroke-linejoin="miter" fill="none" stroke="#993300" d="M-9.78474 20.96724 7.40585 38.15785"/>
<path transform="matrix(1.00005,0,0,-1.00002,228.87848,143.53256)" stroke-width=".3985" stroke-linecap="butt" stroke-miterlimit="10" stroke-linejoin="miter" fill="none" stroke="#993300" d="M7.40585 38.15785 7.6539 39.06776"/>
<path transform="matrix(1.00005,0,0,-1.00002,228.87848,143.53256)" stroke-width=".3985" stroke-linecap="butt" stroke-miterlimit="10" stroke-linejoin="miter" fill="none" stroke="#993300" d="M7.6539 39.06776 7.5689 40.82335"/>
<path transform="matrix(1.00005,0,0,-1.00002,228.87848,143.53256)" stroke-width=".3985" stroke-linecap="butt" stroke-miterlimit="10" stroke-linejoin="miter" fill="none" stroke="#993300" d="M-3.20712 27.54486-13.23505 37.57278"/>
<path transform="matrix(1.00005,0,0,-1.00002,228.87848,143.53256)" stroke-width=".3985" stroke-linecap="butt" stroke-miterlimit="10" stroke-linejoin="miter" fill="none" stroke="#993300" d="M-13.23505 37.57278-14.66736 29.54085"/>
<path transform="matrix(1.00005,0,0,-1.00002,228.87848,143.53256)" stroke-width=".3985" stroke-linecap="butt" stroke-miterlimit="10" stroke-linejoin="miter" fill="none" stroke="#993300" d="M-14.66736 29.54085-3.20712 27.54486"/>
<path transform="matrix(1.00005,0,0,-1.00002,228.87848,143.53256)" stroke-width=".3985" stroke-linecap="butt" stroke-miterlimit="10" stroke-linejoin="miter" fill="none" stroke="#993300" d="M4.61037 35.36238-7.61722 47.58998"/>
<path transform="matrix(1.00005,0,0,-1.00002,228.87848,143.53256)" stroke-width=".3985" stroke-linecap="butt" stroke-miterlimit="10" stroke-linejoin="miter" fill="none" stroke="#993300" d="M-7.61722 47.58998-9.37645 37.72327"/>
<path transform="matrix(1.00005,0,0,-1.00002,228.87848,143.53256)" stroke-width=".3985" stroke-linecap="butt" stroke-miterlimit="10" stroke-linejoin="miter" fill="none" stroke="#993300" d="M-9.37645 37.72327 4.61037 35.36238"/>
<path transform="matrix(1.00005,0,0,-1.00002,228.87848,143.53256)" stroke-width=".3985" stroke-linecap="butt" stroke-miterlimit="10" stroke-linejoin="miter" fill="none" stroke="#000000" d=""/>
<path transform="matrix(1.00005,0,0,-1.00002,228.87848,143.53256)" d="M120.95613 12.47655 122.52025 10.37962 122.16116 8.77393 104.80049-8.58675 103.5407-8.79872 100.35771-7.01591 102.53384-7.51047 103.60248-7.37955 120.79309 9.81105 121.04114 10.72096Z" fill="#993300" fill-opacity=".1"/>
<path transform="matrix(1.00005,0,0,-1.00002,228.87848,143.53256)" d="M110.1801-.80193 100.15218 9.22598 98.71986 1.19403Z" fill="#993300" fill-opacity=".1"/>
<path transform="matrix(1.00005,0,0,-1.00002,228.87848,143.53256)" d="M117.9976 7.01556 105.77 19.24318 104.01077 9.37645Z" fill="#993300" fill-opacity=".1"/>
<path transform="matrix(1.00005,0,0,-1.00002,228.87848,143.53256)" stroke-width=".3985" stroke-linecap="butt" stroke-miterlimit="10" stroke-linejoin="miter" fill="none" stroke="#993300" d="M120.95613 12.47655 122.52025 10.37962"/>
<path transform="matrix(1.00005,0,0,-1.00002,228.87848,143.53256)" stroke-width=".3985" stroke-linecap="butt" stroke-miterlimit="10" stroke-linejoin="miter" fill="none" stroke="#993300" d="M122.52025 10.37962 122.16116 8.77393"/>
<path transform="matrix(1.00005,0,0,-1.00002,228.87848,143.53256)" stroke-width=".3985" stroke-linecap="butt" stroke-miterlimit="10" stroke-linejoin="miter" fill="none" stroke="#993300" d="M122.16116 8.77393 104.80049-8.58675"/>
<path transform="matrix(1.00005,0,0,-1.00002,228.87848,143.53256)" stroke-width=".3985" stroke-linecap="butt" stroke-miterlimit="10" stroke-linejoin="miter" fill="none" stroke="#993300" d="M104.80049-8.58675 103.5407-8.79872"/>
<path transform="matrix(1.00005,0,0,-1.00002,228.87848,143.53256)" stroke-width=".3985" stroke-linecap="butt" stroke-miterlimit="10" stroke-linejoin="miter" fill="none" stroke="#993300" d="M103.5407-8.79872 100.35771-7.01591"/>
<path transform="matrix(1.00005,0,0,-1.00002,228.87848,143.53256)" stroke-width=".3985" stroke-linecap="butt" stroke-miterlimit="10" stroke-linejoin="miter" fill="none" stroke="#993300" d="M100.35771-7.01591 102.53384-7.51047"/>
<path transform="matrix(1.00005,0,0,-1.00002,228.87848,143.53256)" stroke-width=".3985" stroke-linecap="butt" stroke-miterlimit="10" stroke-linejoin="miter" fill="none" stroke="#993300" d="M102.53384-7.51047 103.60248-7.37955"/>
<path transform="matrix(1.00005,0,0,-1.00002,228.87848,143.53256)" stroke-width=".3985" stroke-linecap="butt" stroke-miterlimit="10" stroke-linejoin="miter" fill="none" stroke="#993300" d="M103.60248-7.37955 120.79309 9.81105"/>
<path transform="matrix(1.00005,0,0,-1.00002,228.87848,143.53256)" stroke-width=".3985" stroke-linecap="butt" stroke-miterlimit="10" stroke-linejoin="miter" fill="none" stroke="#993300" d="M120.79309 9.81105 121.04114 10.72096"/>
<path transform="matrix(1.00005,0,0,-1.00002,228.87848,143.53256)" stroke-width=".3985" stroke-linecap="butt" stroke-miterlimit="10" stroke-linejoin="miter" fill="none" stroke="#993300" d="M121.04114 10.72096 120.95613 12.47655"/>
<path transform="matrix(1.00005,0,0,-1.00002,228.87848,143.53256)" stroke-width=".3985" stroke-linecap="butt" stroke-miterlimit="10" stroke-linejoin="miter" fill="none" stroke="#993300" d="M110.1801-.80193 100.15218 9.22598"/>
<path transform="matrix(1.00005,0,0,-1.00002,228.87848,143.53256)" stroke-width=".3985" stroke-linecap="butt" stroke-miterlimit="10" stroke-linejoin="miter" fill="none" stroke="#993300" d="M100.15218 9.22598 98.71986 1.19403"/>
<path transform="matrix(1.00005,0,0,-1.00002,228.87848,143.53256)" stroke-width=".3985" stroke-linecap="butt" stroke-miterlimit="10" stroke-linejoin="miter" fill="none" stroke="#993300" d="M98.71986 1.19403 110.1801-.80193"/>
<path transform="matrix(1.00005,0,0,-1.00002,228.87848,143.53256)" stroke-width=".3985" stroke-linecap="butt" stroke-miterlimit="10" stroke-linejoin="miter" fill="none" stroke="#993300" d="M117.9976 7.01556 105.77 19.24318"/>
<path transform="matrix(1.00005,0,0,-1.00002,228.87848,143.53256)" stroke-width=".3985" stroke-linecap="butt" stroke-miterlimit="10" stroke-linejoin="miter" fill="none" stroke="#993300" d="M105.77 19.24318 104.01077 9.37645"/>
<path transform="matrix(1.00005,0,0,-1.00002,228.87848,143.53256)" stroke-width=".3985" stroke-linecap="butt" stroke-miterlimit="10" stroke-linejoin="miter" fill="none" stroke="#993300" d="M104.01077 9.37645 117.9976 7.01556"/>
</svg>
