<svg xmlns="http://www.w3.org/2000/svg" xmlns:xlink="http://www.w3.org/1999/xlink" version="1.1" width="197" height="171" viewBox="0 0 197 171">
<defs>
<path id="font_1_1" d="M.6589966 .23046875C.6759949 .23046875 .69400027 .23046875 .69400027 .25045777 .69400027 .27046205 .6759949 .27046205 .6589966 .27046205H.117996219C.100997928 .27046205 .08299255 .27046205 .08299255 .25045777 .08299255 .23046875 .100997928 .23046875 .117996219 .23046875H.6589966Z"/>
<path id="font_2_1" d="M.31098939 .36265565H.42999269C.4149933 .30274964 .3929901 .2118988 .3929901 .13302613 .3929901 .09309387 .397995 .06613159 .4039917 .044174196 .41999818-.0057678224 .43299867-.009765625 .44898988-.009765625 .47200013-.009765625 .49598695 .011230469 .49598695 .035186769 .49598695 .043182374 .49398805 .047164918 .48799134 .057159425 .46899415 .09408569 .45098878 .15100098 .45098878 .23286438 .45098878 .25183106 .45098878 .29177857 .46499635 .36265565H.58999636C.60798647 .36265565 .6159973 .36265565 .6269989 .37065126 .6409912 .380661 .6439972 .39665223 .6439972 .4016571 .6439972 .43066407 .6179962 .43066407 .6009979 .43066407H.22399903C.18299866 .43066407 .15499878 .42166139 .10998535 .37965394 .083999637 .35665895 .04499817 .30274964 .04499817 .2937622 .04499817 .28178407 .057998659 .28178407 .06199646 .28178407 .07299805 .28178407 .07398987 .28378297 .07998657 .2927704 .1309967 .36265565 .19299317 .36265565 .21499634 .36265565H.27598573C.24499512 .25283814 .19099427 .13502503 .16099549 .07511902 .15499878 .062149049 .14498902 .04118347 .14199829 .03718567 .14099121 .033187868 .13899231 .029190064 .13899231 .022201539 .13899231 .006225586 .15098572-.009765625 .17399597-.009765625 .21398926-.009765625 .22499085 .035186769 .24899292 .12504578L.31098939 .36265565Z"/>
<path id="font_3_1" d="M.5049896 .18203736H.47099305C.46798707 .16001892 .45799256 .100997928 .44499208 .09098816 .43699647 .084991458 .3600006 .084991458 .34599305 .084991458H.1619873C.2669983 .17803955 .3019867 .20603943 .3619995 .25306703 .43598939 .312088 .5049896 .374115 .5049896 .46914674 .5049896 .5900879 .39898683 .6640625 .2709961 .6640625 .14698792 .6640625 .06298828 .57710269 .06298828 .4851532 .06298828 .43414308 .10598755 .42915345 .115997318 .42915345 .13999939 .42915345 .16899109 .44615174 .16899109 .48214723 .16899109 .5001526 .1619873 .53515627 .10998535 .53515627 .14099121 .6060791 .20899964 .62805178 .2559967 .62805178 .35598756 .62805178 .4079895 .5501404 .4079895 .46914674 .4079895 .38212586 .34599305 .3130951 .31399537 .27708436L.07299805 .038986207C.06298828 .02999878 .06298828 .027999878 .06298828 0H.47499085L.5049896 .18203736Z"/>
<path id="font_4_3" d="M.44898988 .20022583C.44898988 .3193512 .36698915 .41944886 .25898744 .41944886 .21099854 .41944886 .16799927 .40345765 .13198853 .36842347V.5637665C.1519928 .5577698 .18499756 .55078127 .21699524 .55078127 .33999635 .55078127 .4099884 .6417694 .4099884 .6547699 .4099884 .6607666 .40699769 .6657715 .3999939 .6657715 .39898683 .6657715 .39698792 .6657715 .3919983 .66278079 .37199403 .6537781 .32299806 .6337738 .2559967 .6337738 .21598816 .6337738 .16999817 .6407776 .12298584 .6617737 .114990238 .66477969 .11299133 .66477969 .11099243 .66477969 .100997928 .66477969 .100997928 .6567688 .100997928 .6407776V.34439088C.100997928 .32637025 .100997928 .31835938 .114990238 .31835938 .12199402 .31835938 .12399292 .32136537 .12799073 .32736207 .13899231 .3433838 .17599488 .39746095 .25698854 .39746095 .30899049 .39746095 .33399964 .35139466 .34199525 .33337403 .35798646 .29632569 .3600006 .25727845 .3600006 .20722962 .3600006 .17222595 .3600006 .11222839 .33599855 .07035828 .31199647 .031463624 .2749939 .0055389406 .22898865 .0055389406 .1559906 .0055389406 .09899902 .058380128 .08198547 .11723328 .084991458 .1162262 .08799744 .115234378 .09899902 .115234378 .13198853 .115234378 .14898682 .14022827 .14898682 .16423035 .14898682 .18823242 .13198853 .21322632 .09899902 .21322632 .084991458 .21322632 .049987794 .20622254 .049987794 .16023255 .049987794 .07434082 .11898804-.022460938 .23098755-.022460938 .34700013-.022460938 .44898988 .073349 .44898988 .20022583Z"/>
<path id="font_5_1" d="M.36698915 .3996582H.45298768C.47299195 .3996582 .48298646 .3996582 .48298646 .41966249 .48298646 .43066407 .47299195 .43066407 .45599366 .43066407H.37298585L.3939972 .5449524C.397995 .5660095 .4119873 .6370239 .41799928 .6490326 .4269867 .66804507 .44400025 .68307498 .46499635 .68307498 .46899415 .68307498 .49499513 .68307498 .5139923 .66503909 .46998597 .661026 .45999146 .6260376 .45999146 .6110382 .45999146 .58802798 .47799684 .57603457 .49699403 .57603457 .522995 .57603457 .5519867 .5980377 .5519867 .6360321 .5519867 .6820679 .5059967 .7050781 .46499635 .7050781 .43099977 .7050781 .36799623 .68707278 .33799745 .58802798 .33198548 .56700137 .32899476 .5569763 .30499269 .43066407H.23599243C.21699524 .43066407 .20599365 .43066407 .20599365 .4116516 .20599365 .3996582 .21499634 .3996582 .23399353 .3996582H.2999878L.22499085 .0048828127C.20698548-.09207153 .18998719-.18309021 .13798523-.18309021 .13398743-.18309021 .10899353-.18309021 .08999634-.16506958 .13598633-.1620636 .14498902-.12606812 .14498902-.111068729 .14498902-.08807373 .1269989-.07606506 .10798645-.07606506 .08198547-.07606506 .052993776-.09806824 .052993776-.13606262 .052993776-.18109131 .09700012-.20507813 .13798523-.20507813 .19299317-.20507813 .23298645-.14607239 .25099183-.108062747 .2829895-.04508972 .30599977 .07583618 .30699159 .082839969L.36698915 .3996582Z"/>
<path id="font_4_1" d="M.33099366-.2400055C.33099366-.23701477 .33099366-.23500061 .31399537-.21800232 .18899536-.0920105 .15699768 .09700012 .15699768 .25 .15699768 .42399598 .19499207 .59799197 .31799317 .72299197 .33099366 .73498538 .33099366 .7369995 .33099366 .73999026 .33099366 .746994 .32699586 .75 .32099916 .75 .31098939 .75 .22099304 .6819916 .1619873 .5549927 .11099243 .44499208 .09899902 .33399964 .09899902 .25 .09899902 .17199707 .10998535 .050994874 .16499329-.06201172 .22499085-.18501282 .31098939-.25 .32099916-.25 .32699586-.25 .33099366-.24700928 .33099366-.2400055Z"/>
<path id="font_5_2" d="M.33399964 .30233766C.33999635 .32835389 .36299134 .42037965 .43299867 .42037965 .43798829 .42037965 .46199037 .42037965 .48298646 .40734864 .45498658 .402359 .43499757 .37734986 .43499757 .35334779 .43499757 .33735658 .44599916 .31835938 .47299195 .31835938 .49499513 .31835938 .5269928 .3363495 .5269928 .37635804 .5269928 .42837525 .46798707 .4423828 .43399049 .4423828 .37599183 .4423828 .34098817 .38935853 .32899476 .36634828 .3039856 .43237306 .25 .4423828 .22099304 .4423828 .116989139 .4423828 .05999756 .3133545 .05999756 .28834535 .05999756 .27833558 .069992069 .27833558 .07199097 .27833558 .07998657 .27833558 .08299255 .28033448 .084991458 .28933717 .11898804 .39535523 .18499756 .42037965 .21899414 .42037965 .23799134 .42037965 .272995 .4113617 .272995 .35334779 .272995 .32235719 .2559967 .25532533 .21899414 .11528015 .20298767 .053268434 .16799927 .011245728 .12399292 .011245728 .117996219 .011245728 .09498596 .011245728 .07398987 .024276734 .09899902 .029266358 .12098694 .05027771 .12098694 .07827759 .12098694 .105270389 .09899902 .11328125 .083999637 .11328125 .053985597 .11328125 .0289917 .08728027 .0289917 .055267335 .0289917 .009246826 .07899475-.0107421879 .12298584-.0107421879 .18899536-.0107421879 .22499085 .059280397 .22799683 .0652771 .23999024 .028274537 .27598573-.0107421879 .33599855-.0107421879 .43899537-.0107421879 .49598695 .118270877 .49598695 .14328003 .49598695 .1532898 .4869995 .1532898 .48399354 .1532898 .47499085 .1532898 .47299195 .14929199 .47099305 .14228821 .43798829 .03527832 .36999513 .011245728 .33799745 .011245728 .29899598 .011245728 .2829895 .043273927 .2829895 .07727051 .2829895 .09927368 .2889862 .121276859 .2999878 .16529846L.33399964 .30233766Z"/>
<path id="font_4_2" d="M.2889862 .25C.2889862 .32798768 .27799989 .44898988 .22299195 .56199648 .16299439 .68499758 .07699585 .75 .066986087 .75 .06098938 .75 .056991579 .74598696 .056991579 .73999026 .056991579 .7369995 .056991579 .73498538 .07598877 .71699526 .17399597 .6179962 .23098755 .45899964 .23098755 .25 .23098755 .07899475 .19400025-.09700012 .069992069-.2230072 .056991579-.23500061 .056991579-.23701477 .056991579-.2400055 .056991579-.2460022 .06098938-.25 .066986087-.25 .07699585-.25 .16699219-.18200684 .22599793-.055007936 .2769928 .054992677 .2889862 .16600037 .2889862 .25Z"/>
<path id="font_4_4" d="M.68699648 .32714845C.70199587 .32714845 .72099307 .32714845 .72099307 .34713746 .72099307 .36714173 .70199587 .36714173 .6879883 .36714173H.08898926C.07499695 .36714173 .055999757 .36714173 .055999757 .34713746 .055999757 .32714845 .07499695 .32714845 .08999634 .32714845H.68699648M.6879883 .13284302C.70199587 .13284302 .72099307 .13284302 .72099307 .15284729 .72099307 .17285156 .70199587 .17285156 .68699648 .17285156H.08999634C.07499695 .17285156 .055999757 .17285156 .055999757 .15284729 .055999757 .13284302 .07499695 .13284302 .08898926 .13284302H.6879883Z"/>
<path id="font_4_7" d="M.17298889 .3996582H.31599427V.43066407H.17298889V.6147156H.147995C.14698792 .5326996 .116989139 .42565919 .018997193 .42166139V.3996582H.10398865V.12416077C.10398865 .0012512207 .19699097-.0107421879 .23298645-.0107421879 .3039856-.0107421879 .33198548 .06021118 .33198548 .12416077V.18112183H.30699159V.12615967C.30699159 .052215578 .2769928 .014251709 .23999024 .014251709 .17298889 .014251709 .17298889 .10517883 .17298889 .122161868V.3996582Z"/>
<path id="font_4_5" d="M.33299256 .076156619C.33699037 .036132814 .3639984-.005859375 .41099549-.005859375 .43199159-.005859375 .49299623 .008132935 .49299623 .089157108V.14518738H.46798707V.089157108C.46798707 .031143189 .44299317 .025131226 .43199159 .025131226 .39898683 .025131226 .394989 .07015991 .394989 .075149539V.27514649C.394989 .31707765 .394989 .3560791 .35899354 .39312745 .31999208 .43223573 .269989 .4482422 .22200012 .4482422 .13999939 .4482422 .070999149 .40115357 .070999149 .335083 .070999149 .30508424 .09098816 .28808595 .116989139 .28808595 .14498902 .28808595 .16299439 .30807496 .16299439 .33407594 .16299439 .3460846 .1579895 .3790741 .11199951 .38008119 .13899231 .41519166 .18798828 .426239 .21998596 .426239 .2689972 .426239 .32598878 .38710023 .32598878 .29808045V.26123048C.2749939 .2582245 .20498657 .25523377 .14199829 .22523499 .066986087 .1912384 .041992189 .13923645 .041992189 .09524536 .041992189 .014251709 .13899231-.0107421879 .20199585-.0107421879 .2679901-.010864258 .31399537 .029129029 .33299256 .076156619M.32598878 .24023438V.1401825C.32598878 .045135499 .2539978 .011138916 .20899964 .011138916 .1599884 .011138916 .11898804 .046142579 .11898804 .09616089 .11898804 .15118408 .16099549 .23422241 .32598878 .24023438Z"/>
<path id="font_4_6" d="M.10998535 .34429933V.076034549C.10998535 .0309906 .09899902 .0309906 .03199768 .0309906V0C.066986087 .0009918213 .117996219 .0029907227 .14498902 .0029907227 .17098999 .0029907227 .22299195 .0009918213 .25698854 0V.0309906C.18998719 .0309906 .1789856 .0309906 .1789856 .076034549V.2602234C.1789856 .36431886 .25 .42037965 .31399537 .42037965 .3769989 .42037965 .3880005 .36631776 .3880005 .30926515V.076034549C.3880005 .0309906 .3769989 .0309906 .30999757 .0309906V0C.34498597 .0009918213 .3959961 .0029907227 .4229889 .0029907227 .44898988 .0029907227 .5009918 .0009918213 .5349884 0V.0309906C.48298646 .0309906 .45799256 .0309906 .45700074 .061019899V.25221253C.45700074 .3383026 .45700074 .36932374 .42599488 .405365 .4119873 .42237855 .3789978 .4423828 .32099916 .4423828 .24798584 .4423828 .20098877 .39935304 .17298889 .33729554V.4423828L.03199768 .43138124V.40037538C.101989749 .4003601 .10998535 .39335633 .10998535 .34429933Z"/>
<path id="font_5_3" d="M.48599244 .38136292C.48999024 .39537049 .48999024 .39736939 .48999024 .40437318 .48999024 .42237855 .47599793 .43138124 .46099855 .43138124 .45098878 .43138124 .43499757 .42536927 .42599488 .41036988 .42399598 .405365 .41600038 .37435914 .4119873 .35635377 .40499879 .33035279 .397995 .30334474 .3919983 .27633668L.34700013 .09628296C.34298707 .08126831 .2999878 .011245728 .23399353 .011245728 .18299866 .011245728 .17199707 .055267335 .17199707 .0922699 .17199707 .1382904 .18899536 .20030213 .22299195 .28833009 .23899842 .3293457 .24299622 .3403473 .24299622 .36035157 .24299622 .405365 .21099854 .4423828 .16099549 .4423828 .06599426 .4423828 .0289917 .29733277 .0289917 .28833009 .0289917 .27833558 .038986207 .27833558 .040985109 .27833558 .050994874 .27833558 .051986696 .28033448 .056991579 .29634095 .083999637 .3903656 .12399292 .42037965 .1579895 .42037965 .1659851 .42037965 .18299866 .42037965 .18299866 .3883667 .18299866 .36335755 .17298889 .3373413 .1659851 .31834413 .12599182 .21231079 .10798645 .1552887 .10798645 .10827637 .10798645 .019256592 .17098999-.0107421879 .22999573-.0107421879 .2689972-.0107421879 .30299378 .0062561037 .33099366 .03425598 .31799317-.017745972 .30599977-.06674194 .2659912-.11973572 .23999024-.15385437 .20199585-.18309021 .1559906-.18309021 .14199829-.18309021 .09700012-.18005371 .07998657-.14074707 .09599304-.14074707 .10899353-.14074707 .12298584-.1287384 .1329956-.11973572 .14299011-.10673523 .14299011-.08773804 .14299011-.056747438 .115997318-.052734376 .10598755-.052734376 .08299255-.052734376 .049987794-.068740848 .049987794-.11773682 .049987794-.16796875 .09399414-.20507813 .1559906-.20507813 .25898744-.20507813 .3619995-.11373901 .3899994-.00074768069L.48599244 .38136292Z"/>
</defs>
<path transform="matrix(1.00008,0,0,-1.00008,1.0966492,166.54126)" stroke-width=".19925" stroke-linecap="butt" stroke-miterlimit="10" stroke-linejoin="miter" fill="none" stroke="#929292" d="M23.45436 78.57373V82.82565M170.82193 78.57373V82.82565"/>
<path transform="matrix(1.00008,0,0,-1.00008,1.0966492,166.54126)" stroke-width=".19925" stroke-linecap="butt" stroke-miterlimit="10" stroke-linejoin="miter" fill="none" stroke="#929292" d="M95.01227 0H99.26402M95.01227 161.3994H99.26402"/>
<path transform="matrix(1.00008,0,0,-1.00008,1.0966492,166.54126)" stroke-width=".3985" stroke-linecap="butt" stroke-miterlimit="10" stroke-linejoin="miter" fill="none" stroke="#000000" d="M0 80.69969H192.28379"/>
<path transform="matrix(1.00008,0,0,-1.00008,193.39582,85.83511)" d="M1.99252 0-1.19551 1.59401 0 0-1.19551-1.59401"/>
<path transform="matrix(1.00008,0,0,-1.00008,1.0966492,166.54126)" stroke-width=".3985" stroke-linecap="butt" stroke-miterlimit="10" stroke-linejoin="miter" fill="none" stroke="#000000" d="M97.13814 0V159.40688"/>
<path transform="matrix(0,-1.00008,-1.00008,-0,98.24255,7.121628)" d="M1.99252 0-1.19551 1.59401 0 0-1.19551-1.59401"/>
<use data-text="&#x2212;" xlink:href="#font_1_1" transform="matrix(9.963397,0,0,-9.963397,17.027924,98.406818)"/>
<use data-text="&#x03c0;" xlink:href="#font_2_1" transform="matrix(6.974358,0,0,-6.974358,25.972641,94.483509)"/>
<path transform="matrix(1.00008,0,0,-1.00008,-66.273738,-48.200899)" stroke-width=".3985" stroke-linecap="butt" stroke-miterlimit="10" stroke-linejoin="miter" fill="none" stroke="#000000" d="M92.239-144.105H97.148"/>
<use data-text="2" xlink:href="#font_3_1" transform="matrix(6.974358,0,0,-6.974358,26.44168,101.8421)"/>
<use data-text="&#x03c0;" xlink:href="#font_2_1" transform="matrix(6.974358,0,0,-6.974358,169.47812,94.48352)"/>
<path transform="matrix(1.00008,0,0,-1.00008,84.980358,-48.200899)" stroke-width=".3985" stroke-linecap="butt" stroke-miterlimit="10" stroke-linejoin="miter" fill="none" stroke="#000000" d="M84.491-144.105H89.4"/>
<use data-text="2" xlink:href="#font_3_1" transform="matrix(6.974358,0,0,-6.974358,169.94715,101.8421)"/>
<use data-text="&#x2212;" xlink:href="#font_1_1" transform="matrix(9.963397,0,0,-9.963397,79.86495,169.33649)"/>
<use data-text="5" xlink:href="#font_4_3" transform="matrix(9.963397,0,0,-9.963397,87.61458,169.33649)"/>
<use data-text="5" xlink:href="#font_4_3" transform="matrix(9.963397,0,0,-9.963397,87.61457,8.339615)"/>
<path transform="matrix(1.00008,0,0,-1.00008,1.0966492,166.54126)" stroke-width=".99628" stroke-linecap="butt" stroke-miterlimit="10" stroke-linejoin="miter" fill="none" stroke="#ec008c" d="M33.22708 4.26675 33.51903 6.63188 34.16492 11.24144 34.81079 15.33536 35.45667 19.00235 36.10255 22.29764 36.74841 25.28078 37.3943 27.99422 38.04018 30.47607 38.68605 32.75342 39.33194 34.85274 39.9778 36.79211 40.62367 38.58865 41.26956 40.26558 41.91544 41.82664 42.56133 43.29085 43.2072 44.66339 43.85306 45.95314 44.49895 47.17122 45.14482 48.31956 45.79071 49.40643 46.43658 50.43536 47.08244 51.41537 47.72833 52.34505 48.3742 53.23209 49.0201 54.07782 49.66597 54.8866 50.31184 55.66035 50.9577 56.40166 51.60359 57.1118 52.24948 57.7955 52.89536 58.4524 53.54123 59.0846 54.18709 59.69437 54.83298 60.2825 55.47885 60.85031 56.12474 61.40004 56.77061 61.9312 57.41649 62.44574 58.06236 62.94447 58.70824 63.42867 59.35413 63.89752 60 64.3546 60.64587 64.79863 61.29173 65.23053 61.93762 65.65146 62.58351 66.06157 63.22939 66.46152 63.87526 66.85211 64.52113 67.23332 65.167 67.60664 65.81288 67.97044 66.45877 68.32777 67.10464 68.67656 67.75052 69.0184 68.3964 69.35379 69.04227 69.68304 69.68816 70.00536 70.33403 70.32236 70.9799 70.63417 71.62578 70.93985 72.27165 71.24072 72.91754 71.53703 73.56342 71.82837 74.20929 72.1163 74.85518 72.39891 75.50104 72.67798 76.14691 72.95364 76.7928 73.2248 77.43867 73.49321 78.08456 73.75822 78.73042 74.01968 79.3763 74.27873 80.02219 74.5344 80.66806 74.78778 81.31395 75.03877 81.95982 75.28732 82.60568 75.53362 83.25157 75.77733 83.89745 76.01912 84.54333 76.25911 85.18921 76.49748 85.83507 76.73393 86.48096 76.96861 87.12683 77.20216 87.77272 77.4341 88.4186 77.66458 89.06447 77.89407 89.71034 78.12262 90.35622 78.3502 91.00209 78.57648 91.64798 78.80244 92.29385 79.02727 92.93973 79.25142 93.5856 79.47513 94.23148 79.69865 94.87737 79.92146 95.52324 80.14397 96.16913 80.36662 96.81499 80.58864 97.46086 80.81058 98.10678 81.03276 98.7526 81.25523 99.39853 81.4776 100.04433 81.70071 100.69025 81.92406 101.33617 82.14795 101.98198 82.3718 102.6279 82.59694 103.27373 82.82257 103.91963 83.04918 104.56555 83.27675 105.21136 83.5048 105.85728 83.73448 106.50311 83.96527 107.14902 84.19722 107.79494 84.43076 108.44075 84.66544 109.08667 84.90189 109.7325 85.13979 110.37842 85.38028 111.02432 85.62206 111.67014 85.86575 112.31606 86.11206 112.96188 86.36061 113.6078 86.6111 114.25371 86.86449 114.89952 87.12032 115.54544 87.37936 116.19127 87.64114 116.83719 87.906 117.48308 88.1741 118.1289 88.44604 118.77483 88.7214 119.42065 89.00046 120.06657 89.28307 120.71248 89.571 121.35829 89.86185 122.00421 90.15819 122.65002 90.45952 123.29596 90.7652 123.94186 91.07703 124.58768 91.39352 125.2336 91.71616 125.87941 92.0451 126.52534 92.38048 127.17125 92.72234 127.81708 93.07191 128.46298 93.42845 129.1088 93.79274 129.75472 94.16588 130.40064 94.54712 131.04647 94.93738 131.69237 95.33765 132.33818 95.7476 132.9841 96.16885 133.63002 96.60027 134.27584 97.04477 134.92177 97.50136 135.56757 97.97006 136.21349 98.45491 136.8594 98.95316 137.50522 99.4677 138.15116 99.99887 138.79695 100.54826 139.44287 101.11542 140.08879 101.70502 140.7346 102.31366 141.38053 102.94633 142.02635 103.6034 142.67226 104.28708 143.31818 104.99724 143.96399 105.73854 144.60991 106.51277 145.25574 107.32057 145.90164 108.1668 146.54756 109.05385 147.19338 109.984 147.8393 110.96288 148.48513 111.99294 149.13105 113.0798 149.77695 114.22992 150.42276 115.44463 151.06868 116.73502 151.71451 118.10756 152.36043 119.57112 153.00632 121.13507 153.65215 122.8075 154.29807 124.60727 154.9439 126.54567 155.58982 128.64499 156.23572 130.92153 156.88153 133.40177 157.52745 136.11602 158.17328 139.1006 158.8192 142.39476 159.4651 146.05983 160.11092 150.15793 160.75684 154.76749 161.04874 157.13268"/>
<path transform="matrix(-.1225098,.9925394,.9925394,.1225098,34.32641,162.27417)" d="M2.8892 0-1.73352 2.31136 0 0-1.73352-2.31136" fill="#ec008c"/>
<path transform="matrix(.1225098,-.9925294,-.9925294,-.1225098,162.15825,9.396027)" d="M2.8892 0-1.73352 2.31136 0 0-1.73352-2.31136" fill="#ec008c"/>
<use data-text="f" xlink:href="#font_5_1" transform="matrix(9.963397,0,0,-9.963397,97.66937,42.89337)" fill="#ec008c"/>
<use data-text="(" xlink:href="#font_4_1" transform="matrix(9.963397,0,0,-9.963397,103.61985,42.89337)" fill="#ec008c"/>
<use data-text="x" xlink:href="#font_5_2" transform="matrix(9.963397,0,0,-9.963397,107.494159,42.89337)" fill="#ec008c"/>
<use data-text=")" xlink:href="#font_4_2" transform="matrix(9.963397,0,0,-9.963397,113.188617,42.89337)" fill="#ec008c"/>
<use data-text="=" xlink:href="#font_4_4" transform="matrix(9.963397,0,0,-9.963397,119.81427,42.89337)" fill="#ec008c"/>
<use data-text="t" xlink:href="#font_4_7" transform="matrix(9.963397,0,0,-9.963397,130.32566,42.89337)" fill="#ec008c"/>
<use data-text="a" xlink:href="#font_4_5" transform="matrix(9.963397,0,0,-9.963397,134.19144,42.89337)" fill="#ec008c"/>
<use data-text="n" xlink:href="#font_4_6" transform="matrix(9.963397,0,0,-9.963397,139.17314,42.89337)" fill="#ec008c"/>
<use data-text="x" xlink:href="#font_5_2" transform="matrix(9.963397,0,0,-9.963397,146.40027,42.89337)" fill="#ec008c"/>
<use data-text="x" xlink:href="#font_5_2" transform="matrix(9.963397,0,0,-9.963397,186.17446,82.31452)"/>
<use data-text="y" xlink:href="#font_5_3" transform="matrix(9.963397,0,0,-9.963397,101.762699,12.93898)"/>
</svg>
