<svg xmlns="http://www.w3.org/2000/svg" xmlns:xlink="http://www.w3.org/1999/xlink" version="1.1" width="197" height="171" viewBox="0 0 197 171">
<defs>
<path id="font_1_1" d="M.6589966 .23046875C.6759949 .23046875 .69400027 .23046875 .69400027 .25045777 .69400027 .27046205 .6759949 .27046205 .6589966 .27046205H.117996219C.100997928 .27046205 .08299255 .27046205 .08299255 .25045777 .08299255 .23046875 .100997928 .23046875 .117996219 .23046875H.6589966Z"/>
<path id="font_2_6" d="M.13198853 .327713V.35173036C.13198853 .6047821 .2559967 .64100649 .30699159 .64100649 .33099366 .64100649 .37298585 .634964 .394989 .6007538 .37998963 .6007538 .33999635 .6007538 .33999635 .5557556 .33999635 .524765 .3639984 .5097656 .38598634 .5097656 .4019928 .5097656 .43199159 .51875308 .43199159 .5577545 .43199159 .6178589 .3880005 .6660156 .30499269 .6660156 .1769867 .6660156 .041992189 .5367584 .041992189 .31570436 .041992189 .048553468 .1579895-.022460938 .25099183-.022460938 .3619995-.022460938 .45700074 .07156372 .45700074 .2036438 .45700074 .33070375 .36799623 .4267578 .25698854 .4267578 .18899536 .4267578 .1519928 .37573243 .13198853 .327713M.25099183 .0055389406C.18798828 .0055389406 .1579895 .06556702 .1519928 .080566409 .13398743 .127594 .13398743 .2076416 .13398743 .22564698 .13398743 .30369569 .1659851 .40374757 .2559967 .40374757 .27198792 .40374757 .31799317 .40374757 .34899903 .34172059 .36698915 .30470277 .36698915 .2536621 .36698915 .20463562 .36698915 .15661621 .36698915 .10658264 .34999085 .0705719 .31999208 .010528564 .27398683 .0055389406 .25099183 .0055389406Z"/>
<path id="font_2_4" d="M.2939911 .16503906V.07800293C.2939911 .041992189 .2919922 .0309906 .21798706 .0309906H.19699097V0C.23799134 .0029907227 .2899933 .0029907227 .33198548 .0029907227 .37399293 .0029907227 .4269867 .0029907227 .46798707 0V.0309906H.44699098C.37298585 .0309906 .37098695 .041992189 .37098695 .07800293V.16503906H.47099305V.19602967H.37098695V.65075686C.37098695 .67074587 .37098695 .6767578 .35499574 .6767578 .34599305 .6767578 .34298707 .6767578 .33499146 .66474917L.027999878 .19602967V.16503906H.2939911M.2999878 .19602967H.055999757L.2999878 .5688019V.19602967Z"/>
<path id="font_2_3" d="M.1269989 .07699585 .23298645 .18003845C.3889923 .31811524 .44898988 .3721466 .44898988 .47216798 .44898988 .5860901 .35899354 .6660156 .23699951 .6660156 .12399292 .6660156 .049987794 .57411196 .049987794 .48516847 .049987794 .4291687 .099990848 .4291687 .102996829 .4291687 .11999512 .4291687 .15499878 .44117738 .15499878 .48217774 .15499878 .5081787 .13699341 .5341797 .101989749 .5341797 .09399414 .5341797 .09199524 .5341797 .08898926 .5331726 .11199951 .59806826 .1659851 .63500979 .22399903 .63500979 .31498719 .63500979 .35798646 .5541382 .35798646 .47216798 .35798646 .39215089 .30799867 .31311036 .25299073 .25108338L.06098938 .036987306C.049987794 .025985718 .049987794 .023986817 .049987794 0H.42099L.44898988 .17404175H.42399598C.4189911 .14402771 .4119873 .1000061 .4019928 .084991458 .394989 .07699585 .32899476 .07699585 .30699159 .07699585H.1269989Z"/>
<path id="font_2_2" d="M.2939911 .64004519C.2939911 .66400149 .2939911 .6660156 .2709961 .6660156 .20899964 .60227969 .12098694 .60227969 .08898926 .60227969V.57128909C.10899353 .57128909 .16799927 .57128909 .21998596 .5972748V.07902527C.21998596 .042999269 .21699524 .0309906 .1269989 .0309906H.09498596V0C.12998963 .0029907227 .21699524 .0029907227 .25698854 .0029907227 .29699708 .0029907227 .38398744 .0029907227 .4189911 0V.0309906H.3869934C.29699708 .0309906 .2939911 .041992189 .2939911 .07902527V.64004519Z"/>
<path id="font_2_1" d="M.45999146 .31976319C.45999146 .39982606 .45498658 .47988893 .41999818 .5539398 .37399293 .65000918 .2919922 .6660156 .25 .6660156 .18998719 .6660156 .116989139 .64001467 .07598877 .54693606 .04399109 .47789 .038986207 .39982606 .038986207 .31976319 .038986207 .24472046 .042999269 .15464783 .083999637 .07859802 .1269989-.0024719239 .19999695-.022460938 .24899292-.022460938 .30299378-.022460938 .3789978-.0014648438 .4229889 .09359741 .45498658 .16265869 .45999146 .2407074 .45999146 .31976319M.24899292-.00047302247C.20999146-.00047302247 .15098572 .024551392 .1329956 .12062073 .12199402 .18066406 .12199402 .2727356 .12199402 .3317871 .12199402 .39582826 .12199402 .46188355 .12998963 .5159149 .14898682 .63500979 .22399903 .64401248 .24899292 .64401248 .28199769 .64401248 .34799195 .6259918 .36698915 .52693179 .3769989 .47088624 .3769989 .39482118 .3769989 .3317871 .3769989 .25672914 .3769989 .18867493 .3659973 .12461853 .35099793 .029556275 .2939911-.00047302247 .24899292-.00047302247Z"/>
<path id="font_2_5" d="M.44898988 .20022583C.44898988 .3193512 .36698915 .41944886 .25898744 .41944886 .21099854 .41944886 .16799927 .40345765 .13198853 .36842347V.5637665C.1519928 .5577698 .18499756 .55078127 .21699524 .55078127 .33999635 .55078127 .4099884 .6417694 .4099884 .6547699 .4099884 .6607666 .40699769 .6657715 .3999939 .6657715 .39898683 .6657715 .39698792 .6657715 .3919983 .66278079 .37199403 .6537781 .32299806 .6337738 .2559967 .6337738 .21598816 .6337738 .16999817 .6407776 .12298584 .6617737 .114990238 .66477969 .11299133 .66477969 .11099243 .66477969 .100997928 .66477969 .100997928 .6567688 .100997928 .6407776V.34439088C.100997928 .32637025 .100997928 .31835938 .114990238 .31835938 .12199402 .31835938 .12399292 .32136537 .12799073 .32736207 .13899231 .3433838 .17599488 .39746095 .25698854 .39746095 .30899049 .39746095 .33399964 .35139466 .34199525 .33337403 .35798646 .29632569 .3600006 .25727845 .3600006 .20722962 .3600006 .17222595 .3600006 .11222839 .33599855 .07035828 .31199647 .031463624 .2749939 .0055389406 .22898865 .0055389406 .1559906 .0055389406 .09899902 .058380128 .08198547 .11723328 .084991458 .1162262 .08799744 .115234378 .09899902 .115234378 .13198853 .115234378 .14898682 .14022827 .14898682 .16423035 .14898682 .18823242 .13198853 .21322632 .09899902 .21322632 .084991458 .21322632 .049987794 .20622254 .049987794 .16023255 .049987794 .07434082 .11898804-.022460938 .23098755-.022460938 .34700013-.022460938 .44898988 .073349 .44898988 .20022583Z"/>
<path id="font_3_1" d="M.33399964 .30233766C.33999635 .32835389 .36299134 .42037965 .43299867 .42037965 .43798829 .42037965 .46199037 .42037965 .48298646 .40734864 .45498658 .402359 .43499757 .37734986 .43499757 .35334779 .43499757 .33735658 .44599916 .31835938 .47299195 .31835938 .49499513 .31835938 .5269928 .3363495 .5269928 .37635804 .5269928 .42837525 .46798707 .4423828 .43399049 .4423828 .37599183 .4423828 .34098817 .38935853 .32899476 .36634828 .3039856 .43237306 .25 .4423828 .22099304 .4423828 .116989139 .4423828 .05999756 .3133545 .05999756 .28834535 .05999756 .27833558 .069992069 .27833558 .07199097 .27833558 .07998657 .27833558 .08299255 .28033448 .084991458 .28933717 .11898804 .39535523 .18499756 .42037965 .21899414 .42037965 .23799134 .42037965 .272995 .4113617 .272995 .35334779 .272995 .32235719 .2559967 .25532533 .21899414 .11528015 .20298767 .053268434 .16799927 .011245728 .12399292 .011245728 .117996219 .011245728 .09498596 .011245728 .07398987 .024276734 .09899902 .029266358 .12098694 .05027771 .12098694 .07827759 .12098694 .105270389 .09899902 .11328125 .083999637 .11328125 .053985597 .11328125 .0289917 .08728027 .0289917 .055267335 .0289917 .009246826 .07899475-.0107421879 .12298584-.0107421879 .18899536-.0107421879 .22499085 .059280397 .22799683 .0652771 .23999024 .028274537 .27598573-.0107421879 .33599855-.0107421879 .43899537-.0107421879 .49598695 .118270877 .49598695 .14328003 .49598695 .1532898 .4869995 .1532898 .48399354 .1532898 .47499085 .1532898 .47299195 .14929199 .47099305 .14228821 .43798829 .03527832 .36999513 .011245728 .33799745 .011245728 .29899598 .011245728 .2829895 .043273927 .2829895 .07727051 .2829895 .09927368 .2889862 .121276859 .2999878 .16529846L.33399964 .30233766Z"/>
<path id="font_3_2" d="M.48599244 .38136292C.48999024 .39537049 .48999024 .39736939 .48999024 .40437318 .48999024 .42237855 .47599793 .43138124 .46099855 .43138124 .45098878 .43138124 .43499757 .42536927 .42599488 .41036988 .42399598 .405365 .41600038 .37435914 .4119873 .35635377 .40499879 .33035279 .397995 .30334474 .3919983 .27633668L.34700013 .09628296C.34298707 .08126831 .2999878 .011245728 .23399353 .011245728 .18299866 .011245728 .17199707 .055267335 .17199707 .0922699 .17199707 .1382904 .18899536 .20030213 .22299195 .28833009 .23899842 .3293457 .24299622 .3403473 .24299622 .36035157 .24299622 .405365 .21099854 .4423828 .16099549 .4423828 .06599426 .4423828 .0289917 .29733277 .0289917 .28833009 .0289917 .27833558 .038986207 .27833558 .040985109 .27833558 .050994874 .27833558 .051986696 .28033448 .056991579 .29634095 .083999637 .3903656 .12399292 .42037965 .1579895 .42037965 .1659851 .42037965 .18299866 .42037965 .18299866 .3883667 .18299866 .36335755 .17298889 .3373413 .1659851 .31834413 .12599182 .21231079 .10798645 .1552887 .10798645 .10827637 .10798645 .019256592 .17098999-.0107421879 .22999573-.0107421879 .2689972-.0107421879 .30299378 .0062561037 .33099366 .03425598 .31799317-.017745972 .30599977-.06674194 .2659912-.11973572 .23999024-.15385437 .20199585-.18309021 .1559906-.18309021 .14199829-.18309021 .09700012-.18005371 .07998657-.14074707 .09599304-.14074707 .10899353-.14074707 .12298584-.1287384 .1329956-.11973572 .14299011-.10673523 .14299011-.08773804 .14299011-.056747438 .115997318-.052734376 .10598755-.052734376 .08299255-.052734376 .049987794-.068740848 .049987794-.11773682 .049987794-.16796875 .09399414-.20507813 .1559906-.20507813 .25898744-.20507813 .3619995-.11373901 .3899994-.00074768069L.48599244 .38136292Z"/>
</defs>
<path transform="matrix(1.00002,0,0,-1.00006,1.75074,166.5352)" stroke-width=".19925" stroke-linecap="butt" stroke-miterlimit="10" stroke-linejoin="miter" fill="none" stroke="#929292" d="M5.83096 78.5723V82.82404M36.26534 78.5723V82.82404M66.69969 78.5723V82.82404M127.5684 78.5723V82.82404M158.00278 78.5723V82.82404M188.43714 78.5723V82.82404"/>
<path transform="matrix(1.00002,0,0,-1.00006,1.75074,166.5352)" stroke-width=".19925" stroke-linecap="butt" stroke-miterlimit="10" stroke-linejoin="miter" fill="none" stroke="#929292" d="M95.00812 0H99.26001M95.00812 40.34909H99.26001M95.00812 121.04727H99.26001M95.00812 161.39636H99.26001"/>
<path transform="matrix(1.00002,0,0,-1.00006,1.75074,166.5352)" stroke-width=".3985" stroke-linecap="butt" stroke-miterlimit="10" stroke-linejoin="miter" fill="none" stroke="#000000" d="M0 80.69818H192.2756"/>
<path transform="matrix(1.00002,0,0,-1.00006,194.03018,85.832187)" d="M1.99252 0-1.19551 1.59401 0 0-1.19551-1.59401"/>
<path transform="matrix(1.00002,0,0,-1.00006,1.75074,166.5352)" stroke-width=".3985" stroke-linecap="butt" stroke-miterlimit="10" stroke-linejoin="miter" fill="none" stroke="#000000" d="M97.13405 0V159.40384"/>
<path transform="matrix(0,-1.00006,-1.00002,-0,98.886737,7.121811)" d="M1.99252 0-1.19551 1.59401 0 0-1.19551-1.59401"/>
<use data-text="&#x2212;" xlink:href="#font_1_1" transform="matrix(9.962799,0,0,-9.963197,1.2167282,97.899089)"/>
<use data-text="6" xlink:href="#font_2_6" transform="matrix(9.962799,0,0,-9.963197,8.965881,97.899089)"/>
<use data-text="&#x2212;" xlink:href="#font_1_1" transform="matrix(9.962799,0,0,-9.963197,31.651337,97.899089)"/>
<use data-text="4" xlink:href="#font_2_4" transform="matrix(9.962799,0,0,-9.963197,39.40049,97.899089)"/>
<use data-text="&#x2212;" xlink:href="#font_1_1" transform="matrix(9.962799,0,0,-9.963197,62.08695,97.899089)"/>
<use data-text="2" xlink:href="#font_2_3" transform="matrix(9.962799,0,0,-9.963197,69.836109,97.899089)"/>
<use data-text="2" xlink:href="#font_2_3" transform="matrix(9.962799,0,0,-9.963197,126.831249,97.899089)"/>
<use data-text="4" xlink:href="#font_2_4" transform="matrix(9.962799,0,0,-9.963197,157.26584,97.899089)"/>
<use data-text="6" xlink:href="#font_2_6" transform="matrix(9.962799,0,0,-9.963197,187.70047,97.899089)"/>
<use data-text="&#x2212;" xlink:href="#font_1_1" transform="matrix(9.962799,0,0,-9.963197,75.52922,169.33037)"/>
<use data-text="1" xlink:href="#font_2_2" transform="matrix(9.962799,0,0,-9.963197,83.27837,169.33037)"/>
<use data-text="0" xlink:href="#font_2_1" transform="matrix(9.962799,0,0,-9.963197,88.25977,169.33037)"/>
<use data-text="&#x2212;" xlink:href="#font_1_1" transform="matrix(9.962799,0,0,-9.963197,80.51032,128.97895)"/>
<use data-text="5" xlink:href="#font_2_5" transform="matrix(9.962799,0,0,-9.963197,88.259479,128.97895)"/>
<use data-text="5" xlink:href="#font_2_5" transform="matrix(9.962799,0,0,-9.963197,88.259479,48.69114)"/>
<use data-text="1" xlink:href="#font_2_2" transform="matrix(9.962799,0,0,-9.963197,83.277378,8.339706)"/>
<use data-text="0" xlink:href="#font_2_1" transform="matrix(9.962799,0,0,-9.963197,88.25877,8.339706)"/>
<path transform="matrix(1.00002,0,0,-1.00006,1.75074,166.5352)" stroke-width=".99628" stroke-linecap="butt" stroke-miterlimit="10" stroke-linejoin="miter" fill="none" stroke="#0000ff" d="M8.72018 96.83781 5.9004 96.83699 5.96983 96.83537 6.03926 96.83296 6.10869 96.83055 6.17813 96.8273 6.24756 96.82167 6.31699 96.81682 6.38641 96.80956 6.45586 96.80391 6.52528 96.79584 6.59471 96.78615 6.66415 96.77808 6.73358 96.76678 6.80301 96.7555 6.87244 96.74338 6.94188 96.72966 7.0113 96.71756 7.08073 96.70142 7.15016 96.68529 7.2196 96.66914 7.28903 96.65219 7.35846 96.63364 7.42789 96.61507 7.49733 96.5957 7.56676 96.57472 7.63618 96.55214 7.70563 96.53035 7.77505 96.50694 7.84448 96.48273 7.91391 96.45609 7.98335 96.43028 8.05278 96.40366 8.12221 96.3754 8.19164 96.34636 8.26108 96.31569 8.3305 96.28502 8.39993 96.25194 8.46936 96.21884 8.5388 96.18576 8.60823 96.14944 8.67766 96.11394 8.74709 96.07683 8.81653 96.03888 8.88596 95.99934 8.95538 95.959 9.02483 95.91785 9.09425 95.8767 9.16368 95.8323 9.23311 95.78792 9.30255 95.74191 9.37198 95.69513 9.4414 95.64749 9.51083 95.59828 9.58028 95.54744 9.6497 95.49579 9.71913 95.44414 9.78856 95.39006 9.858 95.3344 9.92743 95.27791 9.99686 95.2198 10.06628 95.16089 10.13573 95.10037 10.20515 95.03903 10.27458 94.97609 10.34402 94.91074 10.41345 94.84537 10.48288 94.77838 10.5523 94.7106 10.62175 94.64038 10.69118 94.56857 10.7606 94.49515 10.83003 94.41928 10.89948 94.34422 10.9689 94.26596 11.03833 94.18686 11.10776 94.10536 11.1772 94.02304 11.24663 93.93913 11.31606 93.85197 11.38548 93.76482 11.45493 93.67363 11.52435 93.58244 11.59378 93.48964 11.66322 93.3936 11.73265 93.29677 11.80208 93.19672 11.8715 93.09583 11.94095 92.99254 12.01038 92.88681 12.0798 92.77869 12.14923 92.66895 12.21867 92.55515 12.2881 92.44057 12.35753 92.32355 12.42696 92.20572 12.4964 92.08224 12.56583 91.958 12.63525 91.8313 12.70468 91.70218 12.77412 91.57065 12.84355 91.43506 12.91298 91.29707 12.98242 91.15504 13.05183 91.0114 13.12128 90.86453 13.19072 90.71442 13.26013 90.56271 13.32957 90.40535 13.399 90.24637 13.46843 90.08337 13.53787 89.91551 13.6073 89.74524 13.67673 89.57094 13.74615 89.39339 13.8156 89.21101 13.88503 89.0238 13.95445 88.83415 14.02388 88.63887 14.0933 88.44034 14.16275 88.23538 14.2322 88.02797 14.3016 87.81575 14.37105 87.59705 14.44048 87.37271 14.5099 87.14514 14.57935 86.91112 14.64877 86.67064 14.7182 86.42532 14.78763 86.17433 14.85707 85.91612 14.9265 85.65224 14.99593 85.38028 15.06535 85.10187 15.13478 84.81862 15.20422 84.52568 15.27365 84.22467 15.34308 83.91803 15.41252 83.60089 15.48195 83.27809 15.55138 82.9448 15.62082 82.60265 15.69025 82.24919 15.75967 81.88686 15.8291 81.51645 15.89853 81.13394 15.96797 80.74013 16.0374 80.33421 16.10683 79.917 16.17625 79.4877 16.2457 79.04385 16.31512 78.58711 16.38455 78.11583 16.454 77.63002 16.52342 77.1305 16.59285 76.61081 16.6623 76.07579 16.73172 75.523 16.80115 74.95247 16.87057 74.36095 16.94 73.74602 17.00945 73.11496 17.07887 72.45564 17.1483 71.77779 17.21773 71.06845 17.28717 70.33652 17.3566 69.5723 17.42603 68.78065 17.49547 67.95995 17.56488 67.10052 17.63432 66.21042 17.70377 65.27835 17.7732 64.30594 17.84262 63.29237 17.91205 62.22958 17.98148 61.12482 18.05092 59.96115 18.12035 58.74344 18.18977 57.46516 18.2592 56.11992 18.32864 54.71175 18.39807 53.22365 18.4675 51.65732 18.53694 50.00381 18.60635 48.2454 18.6758 46.39177 18.74524 44.42273 18.81465 42.3294 18.8841 40.10295 18.95352 37.73528 19.02295 35.19408 19.09239 32.46889 19.16182 29.5436 19.23125 26.39072 19.30067 22.99898 19.37012 19.3054 19.43954 15.29228 19.50897 10.93137 19.57841 6.14917 19.6097 3.78537"/>
<path transform="matrix(-1.00002,-0,0,1.00006,10.471094,69.69159)" d="M2.8892 0-1.73352 2.31136 0 0-1.73352-2.31136" fill="#0000ff"/>
<path transform="matrix(.013200264,.99994,.99990007,-.013200792,21.360833,162.7496)" d="M2.8892 0-1.73352 2.31136 0 0-1.73352-2.31136" fill="#0000ff"/>
<path transform="matrix(1.00002,0,0,-1.00006,1.75074,166.5352)" stroke-width=".99628" stroke-linecap="butt" stroke-miterlimit="10" stroke-linejoin="miter" fill="none" stroke="#0000ff" d="M24.56259 158.37548 24.47003 159.6339 24.58978 158.12404 24.70953 156.71424 24.82928 155.39885 24.94902 154.16255 25.06877 153.00536 25.18854 151.91513 25.30827 150.88864 25.42802 149.92188 25.54778 149.00676 25.66751 148.14409 25.78726 147.32257 25.90703 146.54708 26.02676 145.80788 26.14651 145.10742 26.26627 144.44167 26.386 143.80576 26.50575 143.1989 26.62552 142.62111 26.74525 142.07076 26.865 141.5438 26.98476 141.0386 27.10449 140.55605 27.22424 140.09284 27.34401 139.64981 27.46375 139.22534 27.5835 138.81862 27.70325 138.42723 27.82298 138.05037 27.94273 137.68965 28.0625 137.34264 28.18224 137.00855 28.30199 136.68657 28.42174 136.37668 28.54147 136.0789 28.66122 135.79163 28.78099 135.51644 28.90073 135.24933 29.02048 134.9919 29.14023 134.74417 29.25996 134.5053 29.37973 134.27368 29.49948 134.05178 29.61922 133.8363 29.73897 133.62972 29.85872 133.42877 29.97845 133.2359 30.0982 133.04868 30.21797 132.86873 30.3377 132.69362 30.45746 132.52658 30.57721 132.36356 30.69695 132.20781 30.81671 132.05609 30.93646 131.91086 31.0562 131.76882 31.17595 131.63245 31.2957 131.50171 31.41544 131.37502 31.5352 131.25235 31.65495 131.13454 31.77469 131.02156 31.89444 130.9118 32.01419 130.80609 32.13394 130.70522 32.25368 130.60839 32.37344 130.51316 32.4932 130.42438 32.61293 130.33722 32.73268 130.25331 32.85243 130.17342 32.97218 130.09676 33.09193 130.02413 33.21169 129.95392 33.33142 129.88774 33.45117 129.82399 33.57092 129.76267 33.69067 129.70537 33.81042 129.64969 33.93018 129.59803 34.04991 129.54882 34.16966 129.50363 34.28941 129.45923 34.40916 129.41889 34.52892 129.38016 34.64867 129.34464 34.7684 129.31237 34.88815 129.2817 35.0079 129.25428 35.12766 129.22927 35.2474 129.20664 35.36716 129.1881 35.4869 129.16953 35.60664 129.155 35.7264 129.1429 35.84615 129.13321 35.9659 129.12514 36.08565 129.1203 36.20538 129.11789H36.32513L36.4449 129.1203 36.56462 129.12514 36.68439 129.13321 36.80412 129.1429 36.92387 129.155 37.04364 129.17115 37.16338 129.1881 37.28313 129.20664 37.40286 129.23006 37.52263 129.25428 37.64238 129.2817 37.76212 129.31237 37.88188 129.34626 38.0016 129.38016 38.12137 129.41889 38.24112 129.45923 38.36086 129.50363 38.4806 129.54882 38.60036 129.59803 38.72011 129.64969 38.83986 129.70537 38.95961 129.76348 39.07936 129.82399 39.1991 129.88774 39.31886 129.95392 39.43861 130.02413 39.55835 130.09676 39.6781 130.17342 39.79785 130.25331 39.91759 130.33722 40.03735 130.42359 40.15709 130.51316 40.27684 130.60839 40.39659 130.70522 40.51634 130.80771 40.6361 130.9118 40.75583 131.02156 40.8756 131.13454 40.99532 131.25316 41.11508 131.37664 41.23485 131.50171 41.35457 131.63407 41.47433 131.76882 41.59407 131.91086 41.71382 132.05692 41.83359 132.20781 41.95332 132.36518 42.07307 132.52738 42.19281 132.69362 42.31258 132.86873 42.43231 133.0495 42.55206 133.2359 42.67181 133.42877 42.79155 133.62972 42.91132 133.83792 43.03107 134.05178 43.1508 134.2753 43.27055 134.50609 43.3903 134.74497 43.51004 134.9927 43.6298 135.25014 43.74954 135.51644 43.8693 135.79323 43.98904 136.08052 44.1088 136.3783 44.22855 136.68737 44.34828 137.00855 44.46805 137.34345 44.58777 137.69045 44.70753 138.05117 44.8273 138.42803 44.94702 138.82024 45.06679 139.22612 45.18652 139.65142 45.30627 140.09526 45.42604 140.55765 45.54578 141.04022 45.66553 141.5446 45.78526 142.07155 45.90503 142.62273 46.02477 143.20134 46.14452 143.80658 46.26427 144.44248 46.38402 145.10984 46.50377 145.8119 46.62352 146.54788 46.74327 147.3234 46.863 148.1449 46.98276 149.00917 47.10252 149.92429 47.22226 150.89105 47.34201 151.91916 47.46176 153.00859 47.5815 154.165 47.70125 155.4029 47.82101 156.71747 47.94073 158.12807 48.0605 159.63713 47.96794 158.37871"/>
<path transform="matrix(-.07349148,-.9973098,-.99727,.073494408,26.313832,8.150253)" d="M2.8892 0-1.73352 2.31136 0 0-1.73352-2.31136" fill="#0000ff"/>
<path transform="matrix(.07349148,-.9973098,-.99727,-.073494408,49.71963,8.147018)" d="M2.8892 0-1.73352 2.31136 0 0-1.73352-2.31136" fill="#0000ff"/>
<path transform="matrix(1.00002,0,0,-1.00006,1.75074,166.5352)" stroke-width=".99628" stroke-linecap="butt" stroke-miterlimit="10" stroke-linejoin="miter" fill="none" stroke="#0000ff" d="M52.92238 3.79265 53.02136 10.93701 53.16023 19.3054 53.2991 26.40039 53.43797 32.47617 53.57683 37.73528 53.7157 42.33588 53.85457 46.40062 53.99344 50.00621 54.13231 53.22609 54.27118 56.12558 54.41005 58.74504 54.5489 61.12482 54.68777 63.29561 54.82664 65.28078 54.96552 67.10294 55.10439 68.78308 55.24324 70.33894 55.38211 71.7786 55.52098 73.11577 55.65985 74.36095 55.79872 75.523 55.93759 76.61322 56.07645 77.63164 56.21532 78.59033 56.35419 79.48932 56.49306 80.33502 56.63193 81.13475 56.7708 81.88927 56.90965 82.60344 57.04852 83.2797 57.1874 83.91884 57.32626 84.5273 57.46513 85.10428 57.60399 85.65224 57.74286 86.17433 57.88173 86.67224 58.0206 87.14514 58.15947 87.59787 58.29834 88.0288 58.4372 88.44116 58.57607 88.83578 58.71494 89.21101 58.8538 89.57094 58.99266 89.91551 59.13153 90.24637 59.27039 90.56271 59.40926 90.86613 59.54813 91.15665 59.687 91.43506 59.82587 91.70218 59.96472 91.95961 60.10359 92.20572 60.24246 92.44217 60.38133 92.66895 60.5202 92.88681 60.65907 93.09583 60.79793 93.29677 60.9368 93.48964 61.07567 93.67444 61.21454 93.85197 61.35341 94.02304 61.49228 94.18686 61.63115 94.34422 61.77 94.49594 61.90887 94.64038 62.04774 94.77919 62.18661 94.91234 62.32549 95.04065 62.46434 95.1625 62.60321 95.27951 62.74208 95.39006 62.88095 95.49579 63.01982 95.59908 63.15869 95.69513 63.29755 95.78792 63.43642 95.8767 63.57529 95.95981 63.71416 96.03888 63.85303 96.11394 63.9919 96.18576 64.13075 96.25356 64.26962 96.31569 64.4085 96.3754 64.54736 96.43028 64.68623 96.48273 64.82509 96.53035 64.96396 96.57472 65.10283 96.61507 65.2417 96.65219 65.38057 96.68529 65.51944 96.71756 65.6583 96.74338 65.79716 96.76678 65.93604 96.78615 66.0749 96.80391 66.21378 96.81682 66.35265 96.8273 66.4915 96.83296 66.63037 96.83699H66.76924L66.90811 96.83296 67.04697 96.8273 67.18585 96.81682 67.3247 96.80391 67.46358 96.78615 67.60245 96.76678 67.74132 96.74338 67.88019 96.71756 68.01904 96.6869 68.15791 96.65219 68.2968 96.61507 68.43565 96.57472 68.57452 96.53035 68.71338 96.48273 68.85225 96.43028 68.99113 96.37378 69.12999 96.31569 69.26886 96.25194 69.40771 96.18576 69.5466 96.11394 69.68547 96.03888 69.82433 95.959 69.9632 95.8767 70.10205 95.78792 70.24094 95.69513 70.3798 95.59828 70.51866 95.49579 70.65753 95.38846 70.79639 95.27791 70.93527 95.16089 71.07414 95.03903 71.213 94.91074 71.35188 94.77838 71.49074 94.64038 71.62961 94.49515 71.76848 94.34422 71.90733 94.18686 72.04622 94.02304 72.18507 93.85197 72.32394 93.67363 72.4628 93.48883 72.60165 93.29677 72.74054 93.09583 72.8794 92.88681 73.01826 92.66895 73.15715 92.44057 73.296 92.20572 73.43488 91.958 73.57373 91.70218 73.7126 91.43506 73.85149 91.15504 73.99034 90.86453 74.12921 90.56271 74.26807 90.24637 74.40694 89.91551 74.54582 89.57094 74.68468 89.21101 74.82355 88.83253 74.9624 88.44034 75.10129 88.02797 75.24016 87.59543 75.37901 87.14352 75.51788 86.67064 75.65674 86.17355 75.79562 85.65141 75.9345 85.10187 76.07335 84.52568 76.21223 83.91803 76.35107 83.27809 76.48996 82.60104 76.62883 81.88686 76.76768 81.1307 76.90657 80.33421 77.04543 79.48607 77.1843 78.5855 77.32317 77.62921 77.46202 76.60838 77.6009 75.51976 77.73976 74.3585 77.87863 73.11093 78.01752 71.77536 78.15637 70.3341 78.29524 68.77824 78.4341 67.0973 78.57297 65.27596 78.71185 63.29156 78.85071 61.11755 78.98958 58.73778 79.12843 56.11588 79.2673 53.2164 79.40619 49.99573 79.54504 46.38289 79.68391 42.31973 79.82277 37.72073 79.96165 32.44872 80.10052 26.37698 80.23938 19.29008 80.37825 10.91118 80.47722 3.76198"/>
<path transform="matrix(-.013810277,.99994,.99990007,.013810828,54.674203,162.74233)" d="M2.8892 0-1.73352 2.31136 0 0-1.73352-2.31136" fill="#0000ff"/>
<path transform="matrix(.013810277,.99994,.99990007,-.013810828,82.22955,162.773)" d="M2.8892 0-1.73352 2.31136 0 0-1.73352-2.31136" fill="#0000ff"/>
<path transform="matrix(1.00002,0,0,-1.00006,1.75074,166.5352)" stroke-width=".99628" stroke-linecap="butt" stroke-miterlimit="10" stroke-linejoin="miter" fill="none" stroke="#0000ff" d="M85.4313 158.37628 85.33876 159.6347 85.45851 158.12645 85.57825 156.71747 85.698 155.40048 85.81775 154.165 85.9375 153.00615 86.05725 151.91916 86.177 150.89105 86.29674 149.92429 86.41649 149.00917 86.53624 148.1449 86.65599 147.3234 86.77574 146.55596 86.8955 145.8095 87.01523 145.10823 87.13498 144.44167 87.25473 143.80658 87.37447 143.20134 87.49423 142.62273 87.61398 142.07076 87.73372 141.5446 87.85347 141.0386 87.97322 140.55765 88.09297 140.09445 88.21272 139.65142 88.33247 139.22612 88.45222 138.81862 88.57196 138.42803 88.69171 138.05117 88.81146 137.69045 88.93121 137.34264 89.05096 137.00855 89.17072 136.68657 89.29045 136.3783 89.4102 136.08052 89.52997 135.79163 89.6497 135.51644 89.76945 135.24933 89.8892 134.9919 90.00894 134.74497 90.1287 134.5053 90.24846 134.2753 90.3682 134.05178 90.48795 133.83792 90.6077 133.62972 90.72743 133.42877 90.84718 133.2359 90.96695 133.0495 91.08669 132.86873 91.20644 132.69524 91.32619 132.52658 91.44592 132.36356 91.56567 132.20781 91.68544 132.05609 91.80518 131.91086 91.92493 131.76882 92.04468 131.63245 92.16441 131.50171 92.28416 131.37502 92.40393 131.25316 92.52367 131.13454 92.64342 131.02156 92.76317 130.9118 92.8829 130.80609 93.00266 130.70522 93.12242 130.60839 93.24216 130.51316 93.36191 130.42359 93.48166 130.33722 93.6014 130.25331 93.72115 130.17342 93.84091 130.09676 93.96065 130.02413 94.0804 129.95392 94.20015 129.88774 94.31989 129.82399 94.43965 129.76267 94.5594 129.70537 94.67914 129.64969 94.79889 129.59803 94.91864 129.54882 95.03838 129.50363 95.15813 129.45923 95.2779 129.41889 95.39763 129.38016 95.51738 129.34464 95.63713 129.31237 95.75688 129.2817 95.87663 129.25428 95.99638 129.23006 96.11613 129.20664 96.23587 129.1881 96.35562 129.16953 96.47537 129.155 96.59512 129.1429 96.71487 129.13321 96.83463 129.12514 96.95436 129.1203 97.07411 129.11789H97.19386L97.31361 129.1203 97.43335 129.12514 97.55312 129.13321 97.67285 129.1429 97.7926 129.155 97.91237 129.16953 98.03209 129.1881 98.15186 129.20664 98.27159 129.23006 98.39134 129.25428 98.51111 129.2817 98.63084 129.31237 98.7506 129.34464 98.87033 129.38016 98.9901 129.41889 99.10985 129.45923 99.22958 129.50363 99.34935 129.54882 99.46907 129.59803 99.58884 129.64969 99.70859 129.70537 99.82832 129.76267 99.94807 129.82399 100.06783 129.88774 100.18758 129.95392 100.30733 130.02413 100.42708 130.09676 100.54681 130.17342 100.66656 130.25331 100.78633 130.33722 100.90607 130.42438 101.02582 130.51316 101.14557 130.60839 101.2653 130.70522 101.38506 130.80609 101.50482 130.9118 101.62454 131.02156 101.74431 131.13454 101.86406 131.25316 101.9838 131.37502 102.10356 131.50171 102.2233 131.63245 102.34305 131.76882 102.46278 131.91086 102.58255 132.05609 102.7023 132.20781 102.82204 132.36518 102.9418 132.52658 103.06154 132.69362 103.18129 132.86873 103.30106 133.04868 103.42079 133.2359 103.54054 133.42877 103.66028 133.62972 103.78004 133.8363 103.89978 134.05178 104.01953 134.27368 104.13928 134.5053 104.25902 134.74417 104.37878 134.9919 104.49854 135.24933 104.61827 135.51644 104.73802 135.79163 104.85777 136.08052 104.97752 136.3783 105.09727 136.68657 105.21701 137.00855 105.33676 137.34264 105.45651 137.68965 105.57626 138.05037 105.69601 138.42723 105.81575 138.81862 105.93552 139.22612 106.05525 139.64981 106.175 140.09445 106.29477 140.55605 106.41449 141.0386 106.53426 141.5438 106.65399 142.07076 106.77374 142.62111 106.89351 143.19972 107.01324 143.80576 107.133 144.44167 107.25273 145.10742 107.3725 145.8095 107.49223 146.55596 107.61198 147.3234 107.73175 148.14409 107.85147 149.00838 107.97124 149.92188 108.09099 150.88864 108.21072 151.91513 108.33047 153.00536 108.45023 154.16255 108.56998 155.39885 108.68973 156.71585 108.80948 158.12404 108.92921 159.6347 108.83665 158.37628"/>
<path transform="matrix(-.07349148,-.9973098,-.99727,.073494408,87.18377,8.149445)" d="M2.8892 0-1.73352 2.31136 0 0-1.73352-2.31136" fill="#0000ff"/>
<path transform="matrix(.07349148,-.9973098,-.99727,-.073494408,110.58956,8.149445)" d="M2.8892 0-1.73352 2.31136 0 0-1.73352-2.31136" fill="#0000ff"/>
<path transform="matrix(1.00002,0,0,-1.00006,1.75074,166.5352)" stroke-width=".99628" stroke-linecap="butt" stroke-miterlimit="10" stroke-linejoin="miter" fill="none" stroke="#0000ff" d="M113.7911 3.77005 113.89008 10.93137 114.02895 19.30058 114.16782 26.39072 114.30669 32.46002 114.44554 37.728 114.58441 42.32617 114.72328 46.39177 114.86215 49.99815 115.00102 53.22365 115.1399 56.12234 115.27876 58.74344 115.41762 61.1224 115.55649 63.29237 115.69536 65.27835 115.83423 67.10052 115.9731 68.78146 116.11195 70.3341 116.25082 71.77618 116.3897 73.11496 116.52856 74.3585 116.66743 75.523 116.8063 76.61081 116.94516 77.63164 117.08403 78.58711 117.2229 79.48688 117.36177 80.33421 117.50064 81.13394 117.63951 81.88927 117.77837 82.60265 117.91724 83.27809 118.0561 83.91803 118.19498 84.52568 118.33385 85.10187 118.4727 85.65224 118.61157 86.17433 118.75044 86.67064 118.88931 87.14514 119.02818 87.59705 119.16705 88.0288 119.30591 88.44116 119.44478 88.83415 119.58365 89.21101 119.72252 89.57094 119.86139 89.91551 120.00026 90.24637 120.13911 90.56271 120.27798 90.86453 120.41685 91.15504 120.55573 91.43506 120.6946 91.70218 120.83345 91.958 120.97232 92.20572 121.11119 92.44217 121.25006 92.66895 121.38893 92.88681 121.5278 93.09583 121.66666 93.29677 121.80553 93.48964 121.9444 93.67444 122.08327 93.85197 122.22214 94.02304 122.36101 94.18686 122.49988 94.34422 122.63873 94.49594 122.7776 94.64038 122.91647 94.77919 123.05534 94.91234 123.19421 95.03903 123.33307 95.16089 123.47194 95.27791 123.61081 95.39006 123.74968 95.49579 123.88855 95.59828 124.02742 95.69513 124.16628 95.78792 124.30515 95.8767 124.44402 95.95981 124.58289 96.03888 124.72176 96.11394 124.86063 96.18576 124.99948 96.25356 125.13835 96.31569 125.27722 96.3754 125.41609 96.43028 125.55496 96.48273 125.69382 96.53035 125.83269 96.57472 125.97156 96.61507 126.11043 96.65219 126.2493 96.6869 126.38817 96.71756 126.52702 96.74338 126.6659 96.76678 126.80476 96.78615 126.94363 96.80391 127.08249 96.81682 127.22136 96.8273 127.36021 96.83296 127.49908 96.83699H127.63795L127.77682 96.83296 127.91568 96.8273 128.05457 96.81682 128.19342 96.80391 128.33229 96.78615 128.47116 96.76678 128.61003 96.74338 128.7489 96.71756 128.88776 96.6869 129.02663 96.65219 129.16551 96.61507 129.30437 96.57472 129.44324 96.53035 129.58209 96.48273 129.72097 96.43028 129.85985 96.3754 129.9987 96.31569 130.13758 96.25356 130.27643 96.18576 130.41532 96.11394 130.55419 96.03888 130.69304 95.95981 130.83191 95.8767 130.97077 95.78792 131.10965 95.69513 131.24852 95.59828 131.38738 95.49579 131.52625 95.39006 131.6651 95.27791 131.80399 95.16089 131.94286 95.03903 132.08171 94.91234 132.2206 94.77919 132.35945 94.64038 132.49832 94.49594 132.63719 94.34422 132.77605 94.18686 132.91493 94.02304 133.05379 93.85197 133.19266 93.67444 133.33153 93.48964 133.47039 93.29677 133.60927 93.09583 133.74813 92.88681 133.887 92.66895 134.02588 92.44217 134.16474 92.20572 134.3036 91.958 134.44246 91.70218 134.58133 91.43506 134.72022 91.15665 134.85907 90.86613 134.99794 90.56271 135.1368 90.24637 135.27567 89.91551 135.41455 89.57094 135.5534 89.21101 135.69228 88.83415 135.83113 88.44116 135.97002 88.0288 136.10889 87.59705 136.24774 87.14514 136.38661 86.67064 136.52547 86.17433 136.66436 85.65224 136.80323 85.10349 136.94208 84.52568 137.08097 83.91803 137.2198 83.27809 137.35869 82.60265 137.49756 81.88927 137.63642 81.13394 137.7753 80.33421 137.91416 79.48688 138.05303 78.58711 138.1919 77.63164 138.33075 76.61081 138.46964 75.523 138.60849 74.36095 138.74736 73.11496 138.88625 71.77779 139.0251 70.33652 139.16397 68.78065 139.30283 67.10052 139.4417 65.27835 139.58058 63.29237 139.71944 61.1224 139.8583 58.741 139.99716 56.11992 140.13603 53.22365 140.27492 49.99815 140.41378 46.39177 140.55263 42.3294 140.69149 37.728 140.83037 32.46889 140.96924 26.38748 141.1081 19.3054 141.24697 10.93137 141.34593 3.77005"/>
<path transform="matrix(-.013810277,.99994,.99990007,.013810828,115.54414,162.76493)" d="M2.8892 0-1.73352 2.31136 0 0-1.73352-2.31136" fill="#0000ff"/>
<path transform="matrix(.013810277,.99994,.99990007,-.013810828,143.09949,162.76493)" d="M2.8892 0-1.73352 2.31136 0 0-1.73352-2.31136" fill="#0000ff"/>
<path transform="matrix(1.00002,0,0,-1.00006,1.75074,166.5352)" stroke-width=".99628" stroke-linecap="butt" stroke-miterlimit="10" stroke-linejoin="miter" fill="none" stroke="#0000ff" d="M146.30034 158.38034 146.20749 159.63956 146.32723 158.12969 146.44698 156.7199 146.56673 155.4037 146.68647 154.1674 146.80622 153.0102 146.92598 151.91916 147.04572 150.89348 147.16547 149.92429 147.28522 149.0116 147.40496 148.1457 147.5247 147.32582 147.64447 146.54788 147.7642 145.8119 147.88396 145.10984 148.00371 144.44248 148.12345 143.80818 148.2432 143.20214 148.36296 142.62273 148.4827 142.07155 148.60245 141.5446 148.7222 141.04022 148.84194 140.55765 148.96169 140.09526 149.08145 139.65222 149.20119 139.22612 149.32094 138.82024 149.44069 138.42803 149.56043 138.05117 149.68018 137.69045 149.79994 137.34345 149.91968 137.00936 150.03943 136.68737 150.15918 136.37992 150.27892 136.08052 150.39867 135.79163 150.51844 135.51726 150.63817 135.25014 150.75792 134.9927 150.87767 134.74497 150.9974 134.50609 151.11717 134.2753 151.23693 134.05178 151.35666 133.83792 151.47641 133.63134 151.59616 133.42877 151.7159 133.2359 151.83565 133.0495 151.95542 132.86954 152.07515 132.69524 152.1949 132.52738 152.31465 132.36518 152.4344 132.20862 152.55416 132.05692 152.6739 131.91086 152.79366 131.77042 152.91339 131.63407 153.03314 131.50171 153.1529 131.37664 153.27265 131.25316 153.3924 131.13616 153.51215 131.02317 153.63188 130.9118 153.75164 130.80771 153.87139 130.70684 153.99112 130.60839 154.11089 130.51316 154.23064 130.42359 154.35037 130.33722 154.47013 130.25331 154.58988 130.17421 154.70963 130.09838 154.82938 130.02413 154.94913 129.95392 155.06887 129.88774 155.18862 129.82399 155.30837 129.76348 155.42812 129.70537 155.54787 129.64969 155.66762 129.59803 155.78736 129.54882 155.9071 129.50363 156.02686 129.45923 156.1466 129.41889 156.26636 129.38016 156.38611 129.34626 156.50585 129.31237 156.6256 129.2817 156.74535 129.25428 156.8651 129.23006 156.98485 129.20664 157.1046 129.1881 157.22434 129.17115 157.34409 129.155 157.46384 129.1429 157.58359 129.13321 157.70334 129.12514 157.82309 129.1203 157.94283 129.11789H158.06258L158.18235 129.1203 158.30207 129.12514 158.42183 129.13321 158.54157 129.1429 158.66132 129.155 158.78108 129.16953 158.90082 129.1881 159.02057 129.20664 159.1403 129.23006 159.26007 129.25428 159.37982 129.2817 159.49956 129.31237 159.61933 129.34464 159.73906 129.38016 159.85881 129.41889 159.97856 129.45923 160.09832 129.50363 160.21805 129.54882 160.3378 129.59803 160.45757 129.64969 160.5773 129.70537 160.69705 129.76267 160.8168 129.82399 160.93654 129.88774 161.0563 129.9531 161.17606 130.02413 161.29579 130.09676 161.41555 130.17342 161.5353 130.25331 161.65503 130.33722 161.7748 130.42438 161.89453 130.51316 162.01428 130.60839 162.13404 130.70522 162.25379 130.80609 162.37354 130.9118 162.49327 131.02156 162.61304 131.13454 162.73276 131.25235 162.85253 131.37502 162.97229 131.50171 163.09201 131.63245 163.21178 131.76882 163.33152 131.91086 163.45127 132.05609 163.57103 132.20781 163.69077 132.36356 163.81052 132.52658 163.93025 132.69362 164.05002 132.86873 164.16976 133.04868 164.2895 133.2359 164.40926 133.42877 164.52899 133.62972 164.64876 133.8363 164.76851 134.05097 164.88825 134.27368 165.008 134.5053 165.12775 134.74417 165.24748 134.9919 165.36725 135.24933 165.48699 135.51482 165.60674 135.79163 165.72649 136.0789 165.84624 136.37668 165.96599 136.68497 166.08573 137.00775 166.20549 137.34264 166.32521 137.68804 166.44498 138.04875 166.56475 138.42562 166.68447 138.817 166.80423 139.22534 166.92397 139.64981 167.04373 140.09284 167.16349 140.55524 167.28322 141.03783 167.40299 141.5438 167.5227 142.07076 167.64247 142.61949 167.76222 143.1989 167.88196 143.80576 168.00171 144.43843 168.12146 145.10742 168.24121 145.80788 168.36096 146.54547 168.48072 147.32097 168.60045 148.14168 168.7202 149.00595 168.83997 149.91945 168.9597 150.88703 169.07946 151.91269 169.1992 153.00374 169.31894 154.16176 169.43869 155.39644 169.55846 156.71424 169.67818 158.12163 169.79795 159.63149 169.70539 158.37306"/>
<path transform="matrix(-.07360148,-.9972998,-.99726,.07360441,148.05402,8.1453709)" d="M2.8892 0-1.73352 2.31136 0 0-1.73352-2.31136" fill="#0000ff"/>
<path transform="matrix(.07349148,-.9973098,-.99727,-.073494408,171.4595,8.152664)" d="M2.8892 0-1.73352 2.31136 0 0-1.73352-2.31136" fill="#0000ff"/>
<path transform="matrix(1.00002,0,0,-1.00006,1.75074,166.5352)" stroke-width=".99628" stroke-linecap="butt" stroke-miterlimit="10" stroke-linejoin="miter" fill="none" stroke="#0000ff" d="M174.65798 3.74666 174.68938 6.1274 174.7588 10.91118 174.82823 15.27454 174.89766 19.29008 174.9671 22.96426 175.03653 26.37698 175.10596 29.52583 175.17539 32.44872 175.24483 35.18115 175.31426 37.7167 175.38368 40.09569 175.45313 42.31973 175.52256 44.41547 175.59198 46.38289 175.6614 48.23732 175.73085 49.99089 175.80028 51.65005 175.8697 53.2164 175.93914 54.70366 176.00858 56.11588 176.078 57.45952 176.14743 58.73778 176.21686 59.95308 176.2863 61.11755 176.35573 62.22714 176.42516 63.28592 176.4946 64.3003 176.56403 65.27351 176.63346 66.20154 176.70288 67.0973 176.77233 67.95673 176.84175 68.77824 176.91118 69.56989 176.9806 70.33168 177.05005 71.06279 177.11948 71.77374 177.1889 72.45325 177.25833 73.11093 177.32778 73.7436 177.3972 74.3569 177.46663 74.94923 177.53606 75.51976 177.6055 76.07497 177.67493 76.60838 177.74436 77.12567 177.8138 77.62761 177.88323 78.11261 177.95265 78.5855 178.02208 79.04143 178.09152 79.48447 178.16095 79.91539 178.23038 80.3318 178.2998 80.73932 178.36925 81.1307 178.43868 81.51321 178.5081 81.88686 178.57753 82.24757 178.64698 82.60022 178.7164 82.94157 178.78583 83.27728 178.85526 83.60089 178.9247 83.91641 178.99413 84.22388 179.06356 84.52487 179.133 84.81781 179.20243 85.10104 179.27185 85.37866 179.34128 85.64981 179.4107 85.91368 179.48015 86.17355 179.54958 86.4245 179.619 86.66983 179.68845 86.9095 179.75788 87.14352 179.8273 87.37271 179.89673 87.59543 179.96617 87.81494 180.0356 88.02637 180.10503 88.23538 180.17446 88.44034 180.2439 88.63887 180.31333 88.83253 180.38275 89.023 180.45218 89.2094 180.52162 89.39177 180.59105 89.56932 180.66048 89.74443 180.7299 89.91391 180.79935 90.08176 180.86878 90.24475 180.9382 90.40454 181.00765 90.56192 181.07707 90.71442 181.1465 90.86453 181.21593 91.0114 181.28537 91.15504 181.3548 91.29546 181.42423 91.43344 181.49365 91.56902 181.5631 91.70056 181.63253 91.8313 181.70195 91.958 181.7714 92.08224 181.8408 92.20412 181.91025 92.32274 181.97969 92.44057 182.0491 92.55515 182.11855 92.66731 182.18798 92.77869 182.2574 92.88521 182.32683 92.99092 182.39626 93.09502 182.46569 93.19589 182.53511 93.29515 182.60456 93.39279 182.67398 93.48883 182.74341 93.58244 182.81284 93.67363 182.88227 93.76321 182.9517 93.85197 183.02115 93.93832 183.09056 94.02144 183.16 94.10536 183.22943 94.18686 183.29886 94.26596 183.3683 94.34422 183.43773 94.41928 183.50716 94.49515 183.57659 94.56776 183.64603 94.64038 183.71546 94.7106 183.78488 94.77838 183.85431 94.84537 183.92374 94.91074 183.99318 94.9753 184.0626 95.03903 184.13204 95.10037 184.20148 95.16089 184.2709 95.2198 184.34033 95.27791 184.40978 95.33359 184.4792 95.38846 184.54863 95.44414 184.61806 95.49579 184.68749 95.54744 184.75693 95.59828 184.82636 95.64589 184.89579 95.69513 184.96521 95.74191 185.03466 95.78792 185.10408 95.8323 185.17351 95.87509 185.24295 95.91785 185.31238 95.959 185.3818 95.99934 185.45125 96.03888 185.52068 96.07683 185.5901 96.11394 185.65953 96.14944 185.72896 96.18576 185.7984 96.21884 185.86783 96.25194 185.93726 96.28421 186.00669 96.31569 186.07613 96.34554 186.14556 96.3754 186.21498 96.40366 186.28443 96.43028 186.35384 96.45609 186.42328 96.48273 186.49272 96.50533 186.56214 96.53035 186.63158 96.55214 186.701 96.57472 186.77043 96.5957 186.83988 96.61507 186.9093 96.63524 186.97873 96.65219 187.04816 96.66914 187.1176 96.68529 187.18703 96.70142 187.25646 96.71756 187.3259 96.72966 187.39531 96.74338 187.46475 96.7555 187.5342 96.76678 187.6036 96.77808 187.67305 96.78615 187.74248 96.79584 187.8119 96.80391 187.88135 96.80956 187.95078 96.81682 188.0202 96.82167 188.08963 96.8273 188.15908 96.83055 188.2285 96.83296 188.29793 96.83537 188.36736 96.83699 185.54758 96.83781"/>
<path transform="matrix(-.013170264,.99994,.99990007,.01317079,176.41223,162.78832)" d="M2.8892 0-1.73352 2.31136 0 0-1.73352-2.31136" fill="#0000ff"/>
<path transform="matrix(1.00002,0,0,-1.00006,187.30204,69.69159)" d="M2.8892 0-1.73352 2.31136 0 0-1.73352-2.31136" fill="#0000ff"/>
<path transform="matrix(1.00002,0,0,-1.00006,1.75074,166.5352)" stroke-width=".3985" stroke-linecap="butt" stroke-dasharray="2.98883,2.98883" stroke-miterlimit="10" stroke-linejoin="miter" fill="none" stroke="#ff0000" d="M21.04816 0V161.39636"/>
<path transform="matrix(1.00002,0,0,-1.00006,1.75074,166.5352)" stroke-width=".3985" stroke-linecap="butt" stroke-dasharray="2.98883,2.98883" stroke-miterlimit="10" stroke-linejoin="miter" fill="none" stroke="#ff0000" d="M51.48251 0V161.39636"/>
<path transform="matrix(1.00002,0,0,-1.00006,1.75074,166.5352)" stroke-width=".3985" stroke-linecap="butt" stroke-dasharray="2.98883,2.98883" stroke-miterlimit="10" stroke-linejoin="miter" fill="none" stroke="#ff0000" d="M81.91687 0V161.39636"/>
<path transform="matrix(1.00002,0,0,-1.00006,1.75074,166.5352)" stroke-width=".3985" stroke-linecap="butt" stroke-dasharray="2.98883,2.98883" stroke-miterlimit="10" stroke-linejoin="miter" fill="none" stroke="#ff0000" d="M112.35123 0V161.39636"/>
<path transform="matrix(1.00002,0,0,-1.00006,1.75074,166.5352)" stroke-width=".3985" stroke-linecap="butt" stroke-dasharray="2.98883,2.98883" stroke-miterlimit="10" stroke-linejoin="miter" fill="none" stroke="#ff0000" d="M142.7856 0V161.39636"/>
<path transform="matrix(1.00002,0,0,-1.00006,1.75074,166.5352)" stroke-width=".3985" stroke-linecap="butt" stroke-dasharray="2.98883,2.98883" stroke-miterlimit="10" stroke-linejoin="miter" fill="none" stroke="#ff0000" d="M173.21996 0V161.39636"/>
<use data-text="x" xlink:href="#font_3_1" transform="matrix(9.962799,0,0,-9.963197,186.80844,82.31215)"/>
<use data-text="y" xlink:href="#font_3_2" transform="matrix(9.962799,0,0,-9.963197,102.40675,12.93898)"/>
</svg>
