<svg xmlns="http://www.w3.org/2000/svg" xmlns:xlink="http://www.w3.org/1999/xlink" version="1.1" width="201" height="173" viewBox="0 0 201 173">
<defs>
<path id="font_1_1" d="M.6589966 .23046875C.6759949 .23046875 .69400027 .23046875 .69400027 .25045777 .69400027 .27046205 .6759949 .27046205 .6589966 .27046205H.117996219C.100997928 .27046205 .08299255 .27046205 .08299255 .25045777 .08299255 .23046875 .100997928 .23046875 .117996219 .23046875H.6589966Z"/>
<path id="font_2_1" d="M.2649994 .37265016H.37799073C.34498597 .22489929 .33599855 .18196106 .33599855 .11508179 .33599855 .100097659 .33599855 .073150638 .34399415 .03919983 .35398866-.0047454836 .36499024-.0107421879 .37998963-.0107421879 .3999939-.0107421879 .42099 .007247925 .42099 .02722168 .42099 .033218385 .42099 .035202028 .4149933 .049179079 .38598634 .12106323 .38598634 .18595886 .38598634 .21391297 .38598634 .26683045 .3929901 .32073976 .4039917 .37265016H.5179901C.5309906 .37265016 .5669861 .37265016 .5669861 .406662 .5669861 .43066407 .54599 .43066407 .5269928 .43066407H.19198609C.16999817 .43066407 .13198853 .43066407 .08799744 .38365174 .052993776 .34469605 .026992798 .29878236 .026992798 .29379273 .026992798 .29278565 .026992798 .28379823 .038986207 .28379823 .04699707 .28379823 .04899597 .28779603 .054992677 .29577638 .10398865 .37265016 .1619873 .37265016 .18199158 .37265016H.23899842C.20698548 .25186158 .15299988 .13105774 .11099243 .04020691 .102996829 .025222779 .102996829 .023223877 .102996829 .016235352 .102996829-.002746582 .11898804-.0107421879 .13198853-.0107421879 .1619873-.0107421879 .16999817 .017242432 .18199158 .05418396 .19599915 .100097659 .19599915 .10209656 .20899964 .15202332L.2649994 .37265016Z"/>
<path id="font_3_1" d="M.5049896 .18203736H.47099305C.46798707 .16001892 .45799256 .100997928 .44499208 .09098816 .43699647 .084991458 .3600006 .084991458 .34599305 .084991458H.1619873C.2669983 .17803955 .3019867 .20603943 .3619995 .25306703 .43598939 .312088 .5049896 .374115 .5049896 .46914674 .5049896 .5900879 .39898683 .6640625 .2709961 .6640625 .14698792 .6640625 .06298828 .57710269 .06298828 .4851532 .06298828 .43414308 .10598755 .42915345 .115997318 .42915345 .13999939 .42915345 .16899109 .44615174 .16899109 .48214723 .16899109 .5001526 .1619873 .53515627 .10998535 .53515627 .14099121 .6060791 .20899964 .62805178 .2559967 .62805178 .35598756 .62805178 .4079895 .5501404 .4079895 .46914674 .4079895 .38212586 .34599305 .3130951 .31399537 .27708436L.07299805 .038986207C.06298828 .02999878 .06298828 .027999878 .06298828 0H.47499085L.5049896 .18203736Z"/>
<path id="font_4_1" d="M.31098939 .36265565H.42999269C.4149933 .30274964 .3929901 .2118988 .3929901 .13302613 .3929901 .09309387 .397995 .06613159 .4039917 .044174196 .41999818-.0057678224 .43299867-.009765625 .44898988-.009765625 .47200013-.009765625 .49598695 .011230469 .49598695 .035186769 .49598695 .043182374 .49398805 .047164918 .48799134 .057159425 .46899415 .09408569 .45098878 .15100098 .45098878 .23286438 .45098878 .25183106 .45098878 .29177857 .46499635 .36265565H.58999636C.60798647 .36265565 .6159973 .36265565 .6269989 .37065126 .6409912 .380661 .6439972 .39665223 .6439972 .4016571 .6439972 .43066407 .6179962 .43066407 .6009979 .43066407H.22399903C.18299866 .43066407 .15499878 .42166139 .10998535 .37965394 .083999637 .35665895 .04499817 .30274964 .04499817 .2937622 .04499817 .28178407 .057998659 .28178407 .06199646 .28178407 .07299805 .28178407 .07398987 .28378297 .07998657 .2927704 .1309967 .36265565 .19299317 .36265565 .21499634 .36265565H.27598573C.24499512 .25283814 .19099427 .13502503 .16099549 .07511902 .15499878 .062149049 .14498902 .04118347 .14199829 .03718567 .14099121 .033187868 .13899231 .029190064 .13899231 .022201539 .13899231 .006225586 .15098572-.009765625 .17399597-.009765625 .21398926-.009765625 .22499085 .035186769 .24899292 .12504578L.31098939 .36265565Z"/>
<path id="font_3_2" d="M.272995 .33428956C.35099793 .33428956 .40699769 .2803192 .40699769 .1733551 .40699769 .04940796 .33499146 .012466431 .2769928 .012466431 .23699951 .012466431 .14898682 .0234375 .10699463 .082351688 .1539917 .084350589 .16499329 .11735535 .16499329 .13835144 .16499329 .17034912 .14099121 .19335938 .10998535 .19335938 .08198547 .19335938 .053985597 .17634583 .053985597 .13534546 .053985597 .041412355 .1579895-.01953125 .2789917-.01953125 .41799928-.01953125 .5139923 .07336426 .5139923 .1733551 .5139923 .2513275 .44999696 .32929994 .33999635 .35229493 .44499208 .39024354 .48298646 .4650879 .48298646 .5260773 .48298646 .60505679 .3919983 .6640625 .2809906 .6640625 .16999817 .6640625 .084991458 .61006167 .084991458 .5300751 .084991458 .49606324 .10699463 .47706605 .13699341 .47706605 .16799927 .47706605 .18798828 .5000763 .18798828 .5280762 .18798828 .5570679 .16799927 .57806399 .13699341 .5800781 .17199707 .62405398 .24099732 .63505557 .27799989 .63505557 .32299806 .63505557 .38598634 .6130676 .38598634 .5260773 .38598634 .48406983 .37199403 .43814088 .34599305 .4072113 .31298829 .36927796 .2849884 .3672943 .23498535 .36428834 .20999146 .3623047 .20799256 .3623047 .20298767 .3612976 .20098877 .3612976 .19299317 .3592987 .19299317 .34829713 .19299317 .33428956 .20199585 .33428956 .21899414 .33428956H.272995Z"/>
<path id="font_5_4" d="M.2899933 .35191346C.37199403 .37893678 .42999269 .4490509 .42999269 .52809146 .42999269 .6100464 .34199525 .6660156 .24598694 .6660156 .14498902 .6660156 .068984989 .60606387 .068984989 .53009036 .068984989 .49710084 .09098816 .47808839 .11999512 .47808839 .15098572 .47808839 .17098999 .50009158 .17098999 .5290985 .17098999 .57910159 .12399292 .57910159 .10899353 .57910159 .13999939 .62802127 .20599365 .64100649 .24198914 .64100649 .2829895 .64100649 .33799745 .6190338 .33799745 .5290985 .33799745 .51708987 .33599855 .45906068 .30999757 .4149933 .27999879 .36691285 .24598694 .36390687 .22099304 .36291505 .21299744 .36190797 .18899536 .35990907 .18199158 .35990907 .17399597 .35890199 .16699219 .35791017 .16699219 .3479004 .16699219 .33691407 .17399597 .33691407 .19099427 .33691407H.23498535C.31698609 .33691407 .35398866 .2686615 .35398866 .17037964 .35398866 .034469606 .2849884 .0055389406 .24099732 .0055389406 .19799805 .0055389406 .12298584 .022491456 .08799744 .08137512 .12298584 .07637024 .1539917 .09837341 .1539917 .1363678 .1539917 .17237854 .1269989 .19238281 .09799194 .19238281 .07398987 .19238281 .041992189 .17837525 .041992189 .1343689 .041992189 .043441774 .1349945-.022460938 .24398804-.022460938 .3659973-.022460938 .45700074 .06838989 .45700074 .17037964 .45700074 .252594 .3939972 .33088685 .2899933 .35191346Z"/>
<path id="font_5_3" d="M.1269989 .07699585 .23298645 .18003845C.3889923 .31811524 .44898988 .3721466 .44898988 .47216798 .44898988 .5860901 .35899354 .6660156 .23699951 .6660156 .12399292 .6660156 .049987794 .57411196 .049987794 .48516847 .049987794 .4291687 .099990848 .4291687 .102996829 .4291687 .11999512 .4291687 .15499878 .44117738 .15499878 .48217774 .15499878 .5081787 .13699341 .5341797 .101989749 .5341797 .09399414 .5341797 .09199524 .5341797 .08898926 .5331726 .11199951 .59806826 .1659851 .63500979 .22399903 .63500979 .31498719 .63500979 .35798646 .5541382 .35798646 .47216798 .35798646 .39215089 .30799867 .31311036 .25299073 .25108338L.06098938 .036987306C.049987794 .025985718 .049987794 .023986817 .049987794 0H.42099L.44898988 .17404175H.42399598C.4189911 .14402771 .4119873 .1000061 .4019928 .084991458 .394989 .07699585 .32899476 .07699585 .30699159 .07699585H.1269989Z"/>
<path id="font_5_2" d="M.2939911 .64004519C.2939911 .66400149 .2939911 .6660156 .2709961 .6660156 .20899964 .60227969 .12098694 .60227969 .08898926 .60227969V.57128909C.10899353 .57128909 .16799927 .57128909 .21998596 .5972748V.07902527C.21998596 .042999269 .21699524 .0309906 .1269989 .0309906H.09498596V0C.12998963 .0029907227 .21699524 .0029907227 .25698854 .0029907227 .29699708 .0029907227 .38398744 .0029907227 .4189911 0V.0309906H.3869934C.29699708 .0309906 .2939911 .041992189 .2939911 .07902527V.64004519Z"/>
<path id="font_2_3" d="M.48599244 .38136292C.48999024 .39537049 .48999024 .39736939 .48999024 .40437318 .48999024 .42237855 .47599793 .43138124 .46099855 .43138124 .45098878 .43138124 .43499757 .42536927 .42599488 .41036988 .42399598 .405365 .41600038 .37435914 .4119873 .35635377 .40499879 .33035279 .397995 .30334474 .3919983 .27633668L.34700013 .09628296C.34298707 .08126831 .2999878 .011245728 .23399353 .011245728 .18299866 .011245728 .17199707 .055267335 .17199707 .0922699 .17199707 .1382904 .18899536 .20030213 .22299195 .28833009 .23899842 .3293457 .24299622 .3403473 .24299622 .36035157 .24299622 .405365 .21099854 .4423828 .16099549 .4423828 .06599426 .4423828 .0289917 .29733277 .0289917 .28833009 .0289917 .27833558 .038986207 .27833558 .040985109 .27833558 .050994874 .27833558 .051986696 .28033448 .056991579 .29634095 .083999637 .3903656 .12399292 .42037965 .1579895 .42037965 .1659851 .42037965 .18299866 .42037965 .18299866 .3883667 .18299866 .36335755 .17298889 .3373413 .1659851 .31834413 .12599182 .21231079 .10798645 .1552887 .10798645 .10827637 .10798645 .019256592 .17098999-.0107421879 .22999573-.0107421879 .2689972-.0107421879 .30299378 .0062561037 .33099366 .03425598 .31799317-.017745972 .30599977-.06674194 .2659912-.11973572 .23999024-.15385437 .20199585-.18309021 .1559906-.18309021 .14199829-.18309021 .09700012-.18005371 .07998657-.14074707 .09599304-.14074707 .10899353-.14074707 .12298584-.1287384 .1329956-.11973572 .14299011-.10673523 .14299011-.08773804 .14299011-.056747438 .115997318-.052734376 .10598755-.052734376 .08299255-.052734376 .049987794-.068740848 .049987794-.11773682 .049987794-.16796875 .09399414-.20507813 .1559906-.20507813 .25898744-.20507813 .3619995-.11373901 .3899994-.00074768069L.48599244 .38136292Z"/>
<path id="font_5_5" d="M.68699648 .32714845C.70199587 .32714845 .72099307 .32714845 .72099307 .34713746 .72099307 .36714173 .70199587 .36714173 .6879883 .36714173H.08898926C.07499695 .36714173 .055999757 .36714173 .055999757 .34713746 .055999757 .32714845 .07499695 .32714845 .08999634 .32714845H.68699648M.6879883 .13284302C.70199587 .13284302 .72099307 .13284302 .72099307 .15284729 .72099307 .17285156 .70199587 .17285156 .68699648 .17285156H.08999634C.07499695 .17285156 .055999757 .17285156 .055999757 .15284729 .055999757 .13284302 .07499695 .13284302 .08898926 .13284302H.6879883Z"/>
<path id="font_5_6" d="M.116989139 .21801758C.116989139 .38093568 .19898987 .42323304 .2519989 .42323304 .26098634 .42323304 .32398988 .42222596 .35899354 .38594056 .31799317 .38293458 .31199647 .3529358 .31199647 .3399353 .31199647 .31393434 .32998658 .2939453 .35798646 .2939453 .38398744 .2939453 .4039917 .3109436 .4039917 .34094239 .4039917 .40911866 .32798768 .4482422 .25099183 .4482422 .12599182 .4482422 .033996583 .3399353 .033996583 .21601868 .033996583 .08816528 .1329956-.0107421879 .24899292-.0107421879 .3829956-.0107421879 .4149933 .10914612 .4149933 .119140628 .4149933 .12911988 .40499879 .12911988 .4019928 .12911988 .3929901 .12911988 .3909912 .12512207 .3889923 .119140628 .3600006 .026229859 .29499818 .014251709 .2579956 .014251709 .20498657 .014251709 .116989139 .0572052 .116989139 .21801758Z"/>
<path id="font_5_7" d="M.47099305 .21424866C.47099305 .34223939 .37098695 .4482422 .25 .4482422 .125 .4482422 .027999878 .3392334 .027999878 .21424866 .027999878 .085250858 .13198853-.0107421879 .24899292-.0107421879 .36999513-.0107421879 .47099305 .087249759 .47099305 .21424866M.25 .014251709C.20698548 .014251709 .16299439 .035247804 .13598633 .08125305 .11099243 .12524414 .11099243 .18624878 .11099243 .22224427 .11099243 .26124574 .11099243 .31523133 .1349945 .35923768 .1619873 .40522767 .20899964 .426239 .24899292 .426239 .29299928 .426239 .33599855 .40423585 .3619995 .36123658 .3880005 .3182373 .3880005 .26023866 .3880005 .22224427 .3880005 .18624878 .3880005 .13224793 .3659973 .08824158 .34399415 .04324341 .2999878 .014251709 .25 .014251709Z"/>
<path id="font_5_8" d="M.20799256 .19424439C.22999573 .19024658 .31199647 .17424011 .31199647 .102249149 .31199647 .051254274 .2769928 .011245728 .19898987 .011245728 .114990238 .011245728 .07899475 .06825256 .05999756 .15324402 .056991579 .1662445 .055999757 .17024231 .04598999 .17024231 .032989503 .17024231 .032989503 .16323853 .032989503 .14524842V.013244629C.032989503-.003753662 .032989503-.0107421879 .04399109-.0107421879 .04899597-.0107421879 .049987794-.009750366 .068984989 .009246826 .070999149 .011245728 .070999149 .013244629 .08898926 .03224182 .1329956-.009750366 .17799378-.0107421879 .19898987-.0107421879 .31399537-.0107421879 .3600006 .056243898 .3600006 .12825012 .3600006 .1812439 .32998658 .21124268 .31799317 .22323609 .2849884 .25523377 .24598694 .26324464 .20399475 .27124024 .147995 .28224183 .08099365 .2952423 .08099365 .35324098 .08099365 .38822938 .10699463 .42922975 .19299317 .42922975 .30299378 .42922975 .30799867 .3392334 .30999757 .3082428 .31098939 .2992401 .31999208 .2992401 .32199098 .2992401 .33499146 .2992401 .33499146 .304245 .33499146 .3232422V.4242401C.33499146 .4412384 .33499146 .4482422 .32398988 .4482422 .31900025 .4482422 .31698609 .4482422 .3039856 .43623353 .30099488 .43223573 .29100038 .42323304 .2869873 .42022706 .24899292 .4482422 .20799256 .4482422 .19299317 .4482422 .070999149 .4482422 .032989503 .38124085 .032989503 .3252411 .032989503 .29023744 .04899597 .26223756 .07598877 .24023438 .10798645 .21424866 .13598633 .2082367 .20799256 .19424439Z"/>
<path id="font_6_1" d="M.41299439-1.1491852C.41299439-1.1451874 .41099549-1.1431885 .40899659-1.1401825 .36299134-1.0911713 .29499818-1.0101624 .25299073-.84713748 .22999573-.7561188 .22099304-.65309146 .22099304-.56007388 .22099304-.2970276 .28399659-.11299133 .4039917 .017044068 .41299439 .026031495 .41299439 .028030396 .41299439 .030029297 .41299439 .040039064 .40499879 .040039064 .40098573 .040039064 .38598634 .040039064 .33198548-.019973755 .31900025-.034973146 .21699524-.1559906 .1519928-.33602906 .1519928-.5590668 .1519928-.7010956 .1769867-.9021454 .30799867-1.071167 .31799317-1.0831757 .3829956-1.1591797 .40098573-1.1591797 .40499879-1.1591797 .41299439-1.1591797 .41299439-1.1491852Z"/>
<path id="font_2_2" d="M.33399964 .30233766C.33999635 .32835389 .36299134 .42037965 .43299867 .42037965 .43798829 .42037965 .46199037 .42037965 .48298646 .40734864 .45498658 .402359 .43499757 .37734986 .43499757 .35334779 .43499757 .33735658 .44599916 .31835938 .47299195 .31835938 .49499513 .31835938 .5269928 .3363495 .5269928 .37635804 .5269928 .42837525 .46798707 .4423828 .43399049 .4423828 .37599183 .4423828 .34098817 .38935853 .32899476 .36634828 .3039856 .43237306 .25 .4423828 .22099304 .4423828 .116989139 .4423828 .05999756 .3133545 .05999756 .28834535 .05999756 .27833558 .069992069 .27833558 .07199097 .27833558 .07998657 .27833558 .08299255 .28033448 .084991458 .28933717 .11898804 .39535523 .18499756 .42037965 .21899414 .42037965 .23799134 .42037965 .272995 .4113617 .272995 .35334779 .272995 .32235719 .2559967 .25532533 .21899414 .11528015 .20298767 .053268434 .16799927 .011245728 .12399292 .011245728 .117996219 .011245728 .09498596 .011245728 .07398987 .024276734 .09899902 .029266358 .12098694 .05027771 .12098694 .07827759 .12098694 .105270389 .09899902 .11328125 .083999637 .11328125 .053985597 .11328125 .0289917 .08728027 .0289917 .055267335 .0289917 .009246826 .07899475-.0107421879 .12298584-.0107421879 .18899536-.0107421879 .22499085 .059280397 .22799683 .0652771 .23999024 .028274537 .27598573-.0107421879 .33599855-.0107421879 .43899537-.0107421879 .49598695 .118270877 .49598695 .14328003 .49598695 .1532898 .4869995 .1532898 .48399354 .1532898 .47499085 .1532898 .47299195 .14929199 .47099305 .14228821 .43798829 .03527832 .36999513 .011245728 .33799745 .011245728 .29899598 .011245728 .2829895 .043273927 .2829895 .07727051 .2829895 .09927368 .2889862 .121276859 .2999878 .16529846L.33399964 .30233766Z"/>
<path id="font_5_1" d="M.40899659 .23046875H.6879883C.70199587 .23046875 .72099307 .23046875 .72099307 .25045777 .72099307 .27046205 .70199587 .27046205 .6879883 .27046205H.40899659V.5500183C.40899659 .56399539 .40899659 .5830078 .3889923 .5830078 .36898805 .5830078 .36898805 .56399539 .36898805 .5500183V.27046205H.08898926C.07499695 .27046205 .055999757 .27046205 .055999757 .25045777 .055999757 .23046875 .07499695 .23046875 .08898926 .23046875H.36898805V-.05000305C.36898805-.06401062 .36898805-.08300781 .3889923-.08300781 .40899659-.08300781 .40899659-.06401062 .40899659-.05000305V.23046875Z"/>
<path id="font_6_2" d="M.30499269-.56007388C.30499269-.41804505 .27999879-.2170105 .14898682-.047973634 .13899231-.035964967 .07398987 .040039064 .055999757 .040039064 .050994874 .040039064 .04399109 .038024904 .04399109 .030029297 .04399109 .026031495 .04598999 .023025513 .049987794 .02003479 .09799194-.031967164 .16299439-.11299133 .20399475-.27201844 .22698975-.3630371 .23599243-.4660492 .23599243-.5590668 .23599243-.6600952 .22698975-.7621155 .20098877-.86013796 .16299439-1.0001679 .10398865-1.0801697 .052993776-1.1361847 .04399109-1.1451874 .04399109-1.1471863 .04399109-1.1491852 .04399109-1.1571808 .050994874-1.1591797 .055999757-1.1591797 .070999149-1.1591797 .12599182-1.098175 .13798523-1.0841827 .23999024-.96315 .30499269-.7831116 .30499269-.56007388Z"/>
</defs>
<path transform="matrix(1.00002,0,0,-1.00003,3.3946686,172.00577)" stroke-width=".19925" stroke-linecap="butt" stroke-miterlimit="10" stroke-linejoin="miter" fill="none" stroke="#929292" d="M27.30423 79.27704V82.11201M55.23848 79.27704V82.11201M83.17274 79.27704V82.11201M111.10698 79.27704V82.11201M139.04125 79.27704V82.11201M166.9755 79.27704V82.11201"/>
<path transform="matrix(1.00002,0,0,-1.00003,3.3946686,172.00577)" stroke-width=".19925" stroke-linecap="butt" stroke-miterlimit="10" stroke-linejoin="miter" fill="none" stroke="#929292" d="M13.33745 78.56848V82.82056M41.2715 78.56848V82.82056M69.20554 78.56848V82.82056M125.07362 78.56848V82.82056M153.00769 78.56848V82.82056M180.94174 78.56848V82.82056"/>
<path transform="matrix(1.00002,0,0,-1.00003,3.3946686,172.00577)" stroke-width=".19925" stroke-linecap="butt" stroke-miterlimit="10" stroke-linejoin="miter" fill="none" stroke="#929292" d="M95.7217 17.65192H98.55661M95.7217 42.86896H98.55661M95.7217 68.086H98.55661M95.7217 93.30304H98.55661M95.7217 118.5201H98.55661M95.7217 143.73714H98.55661"/>
<path transform="matrix(1.00002,0,0,-1.00003,3.3946686,172.00577)" stroke-width=".19925" stroke-linecap="butt" stroke-miterlimit="10" stroke-linejoin="miter" fill="none" stroke="#929292" d="M95.01318 5.0434H99.2651M95.01318 30.26044H99.2651M95.01318 55.47748H99.2651M95.01318 105.91158H99.2651M95.01318 131.12862H99.2651M95.01318 156.34566H99.2651"/>
<path transform="matrix(1.00002,0,0,-1.00003,3.3946686,172.00577)" stroke-width=".3985" stroke-linecap="butt" stroke-miterlimit="10" stroke-linejoin="miter" fill="none" stroke="#000000" d="M0 80.69452H192.28578"/>
<path transform="matrix(1.00002,0,0,-1.00003,195.6843,91.30882)" d="M1.99252 0-1.19551 1.59401 0 0-1.19551-1.59401"/>
<path transform="matrix(1.00002,0,0,-1.00003,3.3946686,172.00577)" stroke-width=".3985" stroke-linecap="butt" stroke-miterlimit="10" stroke-linejoin="miter" fill="none" stroke="#000000" d="M97.13914 0V159.39653"/>
<path transform="matrix(0,-1.00003,-1.00002,-0,100.53575,12.604446)" d="M1.99252 0-1.19551 1.59401 0 0-1.19551-1.59401"/>
<use data-text="&#x2212;" xlink:href="#font_1_1" transform="matrix(9.962799,0,0,-9.962899,9.839798,102.766689)"/>
<use data-text="&#x03c0;" xlink:href="#font_2_1" transform="matrix(9.962799,0,0,-9.962899,17.588959,102.766689)"/>
<use data-text="&#x2212;" xlink:href="#font_1_1" transform="matrix(9.962799,0,0,-9.962899,35.156305,105.371768)"/>
<use data-text="2" xlink:href="#font_3_1" transform="matrix(6.97394,0,0,-6.9740097,44.100488,101.448657)"/>
<use data-text="&#x03c0;" xlink:href="#font_4_1" transform="matrix(6.97394,0,0,-6.9740097,48.071565,101.448657)"/>
<path transform="matrix(1.00002,0,0,-1.00003,-48.738374,-51.735948)" stroke-width=".3985" stroke-linecap="butt" stroke-miterlimit="10" stroke-linejoin="miter" fill="none" stroke="#000000" d="M92.837-154.612H101.717"/>
<use data-text="3" xlink:href="#font_3_2" transform="matrix(6.97394,0,0,-6.9740097,46.555536,108.80687)"/>
<use data-text="&#x2212;" xlink:href="#font_1_1" transform="matrix(9.962799,0,0,-9.962899,65.076908,103.88072)"/>
<use data-text="&#x03c0;" xlink:href="#font_4_1" transform="matrix(6.97394,0,0,-6.9740097,74.02109,99.95761)"/>
<path transform="matrix(1.00002,0,0,-1.00003,-18.817772,-53.22699)" stroke-width=".3985" stroke-linecap="butt" stroke-miterlimit="10" stroke-linejoin="miter" fill="none" stroke="#000000" d="M92.837-154.612H97.746"/>
<use data-text="3" xlink:href="#font_3_2" transform="matrix(6.97394,0,0,-6.9740097,74.4901,107.31583)"/>
<use data-text="&#x03c0;" xlink:href="#font_4_1" transform="matrix(6.97394,0,0,-6.9740097,126.01613,99.95761)"/>
<path transform="matrix(1.00002,0,0,-1.00003,40.92643,-53.22699)" stroke-width=".3985" stroke-linecap="butt" stroke-miterlimit="10" stroke-linejoin="miter" fill="none" stroke="#000000" d="M85.088-154.612H89.997"/>
<use data-text="3" xlink:href="#font_3_2" transform="matrix(6.97394,0,0,-6.9740097,126.485149,107.31583)"/>
<use data-text="2" xlink:href="#font_3_1" transform="matrix(6.97394,0,0,-6.9740097,151.96463,101.448657)"/>
<use data-text="&#x03c0;" xlink:href="#font_4_1" transform="matrix(6.97394,0,0,-6.9740097,155.9367,101.448657)"/>
<path transform="matrix(1.00002,0,0,-1.00003,66.87493,-51.735948)" stroke-width=".3985" stroke-linecap="butt" stroke-miterlimit="10" stroke-linejoin="miter" fill="none" stroke="#000000" d="M85.088-154.612H93.969"/>
<use data-text="3" xlink:href="#font_3_2" transform="matrix(6.97394,0,0,-6.9740097,154.41968,108.80687)"/>
<use data-text="&#x03c0;" xlink:href="#font_2_1" transform="matrix(9.962799,0,0,-9.962899,181.32125,101.24464)"/>
<use data-text="&#x2212;" xlink:href="#font_1_1" transform="matrix(9.962799,0,0,-9.962899,82.15925,169.7577)"/>
<use data-text="3" xlink:href="#font_5_4" transform="matrix(9.962799,0,0,-9.962899,89.90841,169.7577)"/>
<use data-text="&#x2212;" xlink:href="#font_1_1" transform="matrix(9.962799,0,0,-9.962899,82.15925,144.53995)"/>
<use data-text="2" xlink:href="#font_5_3" transform="matrix(9.962799,0,0,-9.962899,89.90841,144.53995)"/>
<use data-text="&#x2212;" xlink:href="#font_1_1" transform="matrix(9.962799,0,0,-9.962899,82.15925,119.32219)"/>
<use data-text="1" xlink:href="#font_5_2" transform="matrix(9.962799,0,0,-9.962899,89.90841,119.32219)"/>
<use data-text="1" xlink:href="#font_5_2" transform="matrix(9.962799,0,0,-9.962899,89.9084,69.30169)"/>
<use data-text="2" xlink:href="#font_5_3" transform="matrix(9.962799,0,0,-9.962899,89.9084,44.083925)"/>
<use data-text="3" xlink:href="#font_5_4" transform="matrix(9.962799,0,0,-9.962899,89.9084,18.86618)"/>
<path transform="matrix(1.00002,0,0,-1.00003,3.3946686,172.00577)" stroke-width=".99628" stroke-linecap="butt" stroke-miterlimit="10" stroke-linejoin="miter" fill="none" stroke="#0000ff" d="M2.61203 6.36566 .97626 5.59262 1.95253 6.45807 2.9288 7.72371 3.90508 9.3767 4.88136 11.41321 5.85764 13.81892 6.83391 16.58473 7.81018 19.69324 8.78647 23.1293 9.76273 26.87177 10.739 30.90321 11.71529 35.20096 12.69156 39.74457 13.66783 44.50604 14.6441 49.4612 15.62039 54.58203 16.59666 59.84508 17.57294 65.21933 18.54921 70.67679 19.52548 76.18648 20.50175 81.71959 21.47803 87.24742 22.4543 92.74272 23.43059 98.17145 24.40686 103.50787 25.38313 108.72098 26.35942 113.78584 27.3357 118.67213 28.31197 123.35419 29.28822 127.80777 30.26451 132.01094 31.24078 135.94026 32.21706 139.57077 33.19334 142.88579 34.16962 145.86797 35.14589 148.50289 36.12216 150.77469 37.09845 152.67278 38.07472 154.17975 39.05098 155.29637 40.02725 156.01277 41.00352 156.32749 41.97981 156.23746 42.95609 155.73969 43.93236 154.84169 44.90865 153.54505 45.88492 151.8618 46.86119 149.79727 47.83746 147.35906 48.81374 144.5645 49.79001 141.42952 50.76628 137.96846 51.74257 134.20182 52.71884 130.14766 53.69511 125.82799 54.67139 121.26775 55.64766 116.48961 56.62395 111.52008 57.60022 106.38564 58.57648 101.11276 59.55276 95.73094 60.52904 90.26894 61.50531 84.75471 62.48158 79.2231 63.45787 73.69452 64.43414 68.20451 65.41042 62.7826 66.3867 57.45448 67.36298 52.25273 68.33923 47.20226 69.3155 42.33107 70.29178 37.66492 71.26807 33.22873 72.24434 29.04749 73.22061 25.14542 74.19688 21.53911 75.17317 18.24905 76.14944 15.2926 77.1257 12.68642 78.10199 10.44716 79.07826 8.58235 80.05453 7.10414 81.0308 6.01929 82.0071 5.33313 82.98337 5.054 83.95964 5.17957 84.93591 5.70836 85.9122 6.63661 86.88846 7.96275 87.86473 9.68082 88.841 11.77785 89.81729 14.24332 90.79356 17.06435 91.76984 20.22505 92.74612 23.71257 93.7224 27.50572 94.69867 31.58182 95.67494 35.92192 96.65121 40.50032 97.62749 45.29433 98.60382 50.27974 99.58 55.42628 100.55634 60.70824 101.53253 66.09763 102.50887 71.56494 103.4852 77.08293 104.4614 82.6153 105.43773 88.1401 106.4139 93.62556 107.39023 99.04143 108.36656 104.3612 109.34276 109.55164 110.31909 114.58925 111.29529 119.44302 112.27162 124.0918 113.24796 128.50603 114.22414 132.66533 115.20047 136.54547 116.17665 140.12831 117.15298 143.39418 118.12932 146.32036 119.10551 148.89551 120.08185 151.10605 121.05803 152.94058 122.03436 154.38932 123.0107 155.44086 123.9869 156.0907 124.96323 156.3396 125.9394 156.18149 126.91574 155.62319 127.89207 154.65863 128.86826 153.29918 129.84459 151.55164 130.82079 149.4251 131.79712 146.93085 132.77346 144.08184 133.74965 140.89238 134.72599 137.37839 135.70215 133.5633 136.67848 129.46529 137.65482 125.10703 138.63101 120.50894 139.60735 115.6968 140.58353 110.69926 141.55988 105.54062 142.53621 100.24883 143.51239 94.85263 144.48873 89.37852 145.4649 83.85976 146.44124 78.32663 147.41757 72.80334 148.39377 67.32167 149.3701 61.91336 150.34629 56.60342 151.32262 51.42358 152.29895 46.39883 153.27515 41.5602 154.25147 36.9311 155.22765 32.53653 156.204 28.39917 157.18033 24.54019 158.15651 20.98384 159.13285 17.74825 160.10904 14.84854 161.08538 12.30061 162.0617 10.11958 163.0379 8.31607 164.0142 6.90215 164.9904 5.88313 165.96674 5.26279 166.94307 5.04567 167.91927 5.23631 168.8956 5.83168 169.87178 6.82574 170.84813 8.21696 171.82447 9.994 172.80065 12.15082 173.77696 14.67606 174.75316 17.55533 175.72949 20.77051 176.70583 24.30795 177.682 28.14423 178.65834 32.26645 179.63454 36.6474 180.61087 41.26213 181.5872 46.08943 182.5634 51.09981 183.53972 56.27055 184.5159 61.5737 185.49225 66.97745 186.46858 72.4546 187.44477 77.97713 188.4211 83.51102 189.3973 89.03128 190.37363 94.50766 191.34996 99.91066 192.32614 105.21077 193.30246 110.37851 193.72602 112.55157"/>
<path transform="matrix(-.90408816,.42730285,.42729856,.9040972,6.006771,165.6399)" d="M2.8892 0-1.73352 2.31136 0 0-1.73352-2.31136" fill="#0000ff"/>
<path transform="matrix(.19128384,-.98152956,-.9815197,-.19128576,197.12454,59.45082)" d="M2.8892 0-1.73352 2.31136 0 0-1.73352-2.31136" fill="#0000ff"/>
<use data-text="y" xlink:href="#font_2_3" transform="matrix(9.962799,0,0,-9.962899,112.847858,10.387909)" fill="#0000ff"/>
<use data-text="=" xlink:href="#font_5_5" transform="matrix(9.962799,0,0,-9.962899,120.85702,10.387909)" fill="#0000ff"/>
<use data-text="&#x2212;" xlink:href="#font_1_1" transform="matrix(9.962799,0,0,-9.962899,131.37323,10.387909)" fill="#0000ff"/>
<use data-text="3" xlink:href="#font_5_4" transform="matrix(9.962799,0,0,-9.962899,139.12238,10.387909)" fill="#0000ff"/>
<use data-text="c" xlink:href="#font_5_6" transform="matrix(9.962799,0,0,-9.962899,145.75762,10.387909)" fill="#0000ff"/>
<use data-text="o" xlink:href="#font_5_7" transform="matrix(9.962799,0,0,-9.962899,150.18109,10.387909)" fill="#0000ff"/>
<use data-text="s" xlink:href="#font_5_8" transform="matrix(9.962799,0,0,-9.962899,155.16249,10.387909)" fill="#0000ff"/>
<use data-text="(" xlink:href="#font_6_1" transform="matrix(9.962799,0,0,-9.962899,160.76383,2.3176575)" fill="#0000ff"/>
<use data-text="2" xlink:href="#font_5_3" transform="matrix(9.962799,0,0,-9.962899,165.3299,10.387909)" fill="#0000ff"/>
<use data-text="x" xlink:href="#font_2_2" transform="matrix(9.962799,0,0,-9.962899,170.31201,10.387909)" fill="#0000ff"/>
<use data-text="+" xlink:href="#font_5_1" transform="matrix(9.962799,0,0,-9.962899,178.21915,10.387909)" fill="#0000ff"/>
<use data-text="&#x03c0;" xlink:href="#font_4_1" transform="matrix(6.97394,0,0,-6.9740097,189.37839,6.464798)" fill="#0000ff"/>
<path transform="matrix(1.00002,0,0,-1.00003,28.953179,-146.7198)" stroke-width=".3985" stroke-linecap="butt" stroke-miterlimit="10" stroke-linejoin="miter" fill="none" stroke="#0000ff" d="M160.422-154.612H165.331"/>
<use data-text="3" xlink:href="#font_3_2" transform="matrix(6.97394,0,0,-6.9740097,189.8464,13.823013)" fill="#0000ff"/>
<use data-text=")" xlink:href="#font_6_2" transform="matrix(9.962799,0,0,-9.962899,195.48252,2.3176575)" fill="#0000ff"/>
<use data-text="x" xlink:href="#font_2_2" transform="matrix(9.962799,0,0,-9.962899,188.46338,87.78924)"/>
<use data-text="y" xlink:href="#font_2_3" transform="matrix(9.962799,0,0,-9.962899,104.05568,18.421158)"/>
</svg>
