<svg xmlns="http://www.w3.org/2000/svg" xmlns:xlink="http://www.w3.org/1999/xlink" version="1.1" width="198" height="171" viewBox="0 0 198 171">
<defs>
<path id="font_1_1" d="M.6589966 .23046875C.6759949 .23046875 .69400027 .23046875 .69400027 .25045777 .69400027 .27046205 .6759949 .27046205 .6589966 .27046205H.117996219C.100997928 .27046205 .08299255 .27046205 .08299255 .25045777 .08299255 .23046875 .100997928 .23046875 .117996219 .23046875H.6589966Z"/>
<path id="font_2_3" d="M.1269989 .07699585 .23298645 .18003845C.3889923 .31811524 .44898988 .3721466 .44898988 .47216798 .44898988 .5860901 .35899354 .6660156 .23699951 .6660156 .12399292 .6660156 .049987794 .57411196 .049987794 .48516847 .049987794 .4291687 .099990848 .4291687 .102996829 .4291687 .11999512 .4291687 .15499878 .44117738 .15499878 .48217774 .15499878 .5081787 .13699341 .5341797 .101989749 .5341797 .09399414 .5341797 .09199524 .5341797 .08898926 .5331726 .11199951 .59806826 .1659851 .63500979 .22399903 .63500979 .31498719 .63500979 .35798646 .5541382 .35798646 .47216798 .35798646 .39215089 .30799867 .31311036 .25299073 .25108338L.06098938 .036987306C.049987794 .025985718 .049987794 .023986817 .049987794 0H.42099L.44898988 .17404175H.42399598C.4189911 .14402771 .4119873 .1000061 .4019928 .084991458 .394989 .07699585 .32899476 .07699585 .30699159 .07699585H.1269989Z"/>
<path id="font_3_1" d="M.2649994 .37265016H.37799073C.34498597 .22489929 .33599855 .18196106 .33599855 .11508179 .33599855 .100097659 .33599855 .073150638 .34399415 .03919983 .35398866-.0047454836 .36499024-.0107421879 .37998963-.0107421879 .3999939-.0107421879 .42099 .007247925 .42099 .02722168 .42099 .033218385 .42099 .035202028 .4149933 .049179079 .38598634 .12106323 .38598634 .18595886 .38598634 .21391297 .38598634 .26683045 .3929901 .32073976 .4039917 .37265016H.5179901C.5309906 .37265016 .5669861 .37265016 .5669861 .406662 .5669861 .43066407 .54599 .43066407 .5269928 .43066407H.19198609C.16999817 .43066407 .13198853 .43066407 .08799744 .38365174 .052993776 .34469605 .026992798 .29878236 .026992798 .29379273 .026992798 .29278565 .026992798 .28379823 .038986207 .28379823 .04699707 .28379823 .04899597 .28779603 .054992677 .29577638 .10398865 .37265016 .1619873 .37265016 .18199158 .37265016H.23899842C.20698548 .25186158 .15299988 .13105774 .11099243 .04020691 .102996829 .025222779 .102996829 .023223877 .102996829 .016235352 .102996829-.002746582 .11898804-.0107421879 .13198853-.0107421879 .1619873-.0107421879 .16999817 .017242432 .18199158 .05418396 .19599915 .100097659 .19599915 .10209656 .20899964 .15202332L.2649994 .37265016Z"/>
<path id="font_2_2" d="M.2939911 .64004519C.2939911 .66400149 .2939911 .6660156 .2709961 .6660156 .20899964 .60227969 .12098694 .60227969 .08898926 .60227969V.57128909C.10899353 .57128909 .16799927 .57128909 .21998596 .5972748V.07902527C.21998596 .042999269 .21699524 .0309906 .1269989 .0309906H.09498596V0C.12998963 .0029907227 .21699524 .0029907227 .25698854 .0029907227 .29699708 .0029907227 .38398744 .0029907227 .4189911 0V.0309906H.3869934C.29699708 .0309906 .2939911 .041992189 .2939911 .07902527V.64004519Z"/>
<path id="font_2_1" d="M.45999146 .31976319C.45999146 .39982606 .45498658 .47988893 .41999818 .5539398 .37399293 .65000918 .2919922 .6660156 .25 .6660156 .18998719 .6660156 .116989139 .64001467 .07598877 .54693606 .04399109 .47789 .038986207 .39982606 .038986207 .31976319 .038986207 .24472046 .042999269 .15464783 .083999637 .07859802 .1269989-.0024719239 .19999695-.022460938 .24899292-.022460938 .30299378-.022460938 .3789978-.0014648438 .4229889 .09359741 .45498658 .16265869 .45999146 .2407074 .45999146 .31976319M.24899292-.00047302247C.20999146-.00047302247 .15098572 .024551392 .1329956 .12062073 .12199402 .18066406 .12199402 .2727356 .12199402 .3317871 .12199402 .39582826 .12199402 .46188355 .12998963 .5159149 .14898682 .63500979 .22399903 .64401248 .24899292 .64401248 .28199769 .64401248 .34799195 .6259918 .36698915 .52693179 .3769989 .47088624 .3769989 .39482118 .3769989 .3317871 .3769989 .25672914 .3769989 .18867493 .3659973 .12461853 .35099793 .029556275 .2939911-.00047302247 .24899292-.00047302247Z"/>
<path id="font_2_4" d="M.44898988 .20022583C.44898988 .3193512 .36698915 .41944886 .25898744 .41944886 .21099854 .41944886 .16799927 .40345765 .13198853 .36842347V.5637665C.1519928 .5577698 .18499756 .55078127 .21699524 .55078127 .33999635 .55078127 .4099884 .6417694 .4099884 .6547699 .4099884 .6607666 .40699769 .6657715 .3999939 .6657715 .39898683 .6657715 .39698792 .6657715 .3919983 .66278079 .37199403 .6537781 .32299806 .6337738 .2559967 .6337738 .21598816 .6337738 .16999817 .6407776 .12298584 .6617737 .114990238 .66477969 .11299133 .66477969 .11099243 .66477969 .100997928 .66477969 .100997928 .6567688 .100997928 .6407776V.34439088C.100997928 .32637025 .100997928 .31835938 .114990238 .31835938 .12199402 .31835938 .12399292 .32136537 .12799073 .32736207 .13899231 .3433838 .17599488 .39746095 .25698854 .39746095 .30899049 .39746095 .33399964 .35139466 .34199525 .33337403 .35798646 .29632569 .3600006 .25727845 .3600006 .20722962 .3600006 .17222595 .3600006 .11222839 .33599855 .07035828 .31199647 .031463624 .2749939 .0055389406 .22898865 .0055389406 .1559906 .0055389406 .09899902 .058380128 .08198547 .11723328 .084991458 .1162262 .08799744 .115234378 .09899902 .115234378 .13198853 .115234378 .14898682 .14022827 .14898682 .16423035 .14898682 .18823242 .13198853 .21322632 .09899902 .21322632 .084991458 .21322632 .049987794 .20622254 .049987794 .16023255 .049987794 .07434082 .11898804-.022460938 .23098755-.022460938 .34700013-.022460938 .44898988 .073349 .44898988 .20022583Z"/>
<path id="font_3_2" d="M.33399964 .30233766C.33999635 .32835389 .36299134 .42037965 .43299867 .42037965 .43798829 .42037965 .46199037 .42037965 .48298646 .40734864 .45498658 .402359 .43499757 .37734986 .43499757 .35334779 .43499757 .33735658 .44599916 .31835938 .47299195 .31835938 .49499513 .31835938 .5269928 .3363495 .5269928 .37635804 .5269928 .42837525 .46798707 .4423828 .43399049 .4423828 .37599183 .4423828 .34098817 .38935853 .32899476 .36634828 .3039856 .43237306 .25 .4423828 .22099304 .4423828 .116989139 .4423828 .05999756 .3133545 .05999756 .28834535 .05999756 .27833558 .069992069 .27833558 .07199097 .27833558 .07998657 .27833558 .08299255 .28033448 .084991458 .28933717 .11898804 .39535523 .18499756 .42037965 .21899414 .42037965 .23799134 .42037965 .272995 .4113617 .272995 .35334779 .272995 .32235719 .2559967 .25532533 .21899414 .11528015 .20298767 .053268434 .16799927 .011245728 .12399292 .011245728 .117996219 .011245728 .09498596 .011245728 .07398987 .024276734 .09899902 .029266358 .12098694 .05027771 .12098694 .07827759 .12098694 .105270389 .09899902 .11328125 .083999637 .11328125 .053985597 .11328125 .0289917 .08728027 .0289917 .055267335 .0289917 .009246826 .07899475-.0107421879 .12298584-.0107421879 .18899536-.0107421879 .22499085 .059280397 .22799683 .0652771 .23999024 .028274537 .27598573-.0107421879 .33599855-.0107421879 .43899537-.0107421879 .49598695 .118270877 .49598695 .14328003 .49598695 .1532898 .4869995 .1532898 .48399354 .1532898 .47499085 .1532898 .47299195 .14929199 .47099305 .14228821 .43798829 .03527832 .36999513 .011245728 .33799745 .011245728 .29899598 .011245728 .2829895 .043273927 .2829895 .07727051 .2829895 .09927368 .2889862 .121276859 .2999878 .16529846L.33399964 .30233766Z"/>
<path id="font_3_3" d="M.48599244 .38136292C.48999024 .39537049 .48999024 .39736939 .48999024 .40437318 .48999024 .42237855 .47599793 .43138124 .46099855 .43138124 .45098878 .43138124 .43499757 .42536927 .42599488 .41036988 .42399598 .405365 .41600038 .37435914 .4119873 .35635377 .40499879 .33035279 .397995 .30334474 .3919983 .27633668L.34700013 .09628296C.34298707 .08126831 .2999878 .011245728 .23399353 .011245728 .18299866 .011245728 .17199707 .055267335 .17199707 .0922699 .17199707 .1382904 .18899536 .20030213 .22299195 .28833009 .23899842 .3293457 .24299622 .3403473 .24299622 .36035157 .24299622 .405365 .21099854 .4423828 .16099549 .4423828 .06599426 .4423828 .0289917 .29733277 .0289917 .28833009 .0289917 .27833558 .038986207 .27833558 .040985109 .27833558 .050994874 .27833558 .051986696 .28033448 .056991579 .29634095 .083999637 .3903656 .12399292 .42037965 .1579895 .42037965 .1659851 .42037965 .18299866 .42037965 .18299866 .3883667 .18299866 .36335755 .17298889 .3373413 .1659851 .31834413 .12599182 .21231079 .10798645 .1552887 .10798645 .10827637 .10798645 .019256592 .17098999-.0107421879 .22999573-.0107421879 .2689972-.0107421879 .30299378 .0062561037 .33099366 .03425598 .31799317-.017745972 .30599977-.06674194 .2659912-.11973572 .23999024-.15385437 .20199585-.18309021 .1559906-.18309021 .14199829-.18309021 .09700012-.18005371 .07998657-.14074707 .09599304-.14074707 .10899353-.14074707 .12298584-.1287384 .1329956-.11973572 .14299011-.10673523 .14299011-.08773804 .14299011-.056747438 .115997318-.052734376 .10598755-.052734376 .08299255-.052734376 .049987794-.068740848 .049987794-.11773682 .049987794-.16796875 .09399414-.20507813 .1559906-.20507813 .25898744-.20507813 .3619995-.11373901 .3899994-.00074768069L.48599244 .38136292Z"/>
</defs>
<path transform="matrix(1.00003,0,0,-1.00006,2.4406586,166.5352)" stroke-width=".19925" stroke-linecap="butt" stroke-miterlimit="10" stroke-linejoin="miter" fill="none" stroke="#929292" d="M7.16013 79.28079V82.11555M18.40723 79.28079V82.11555M29.65434 79.28079V82.11555M40.90144 79.28079V82.11555M52.14856 79.28079V82.11555M63.39566 79.28079V82.11555M74.64278 79.28079V82.11555M85.88988 79.28079V82.11555M97.137 79.28079V82.11555M108.3841 79.28079V82.11555M119.6312 79.28079V82.11555M130.87831 79.28079V82.11555M142.1254 79.28079V82.11555M153.37253 79.28079V82.11555M164.61963 79.28079V82.11555M175.86675 79.28079V82.11555M187.11385 79.28079V82.11555"/>
<path transform="matrix(1.00003,0,0,-1.00006,2.4406586,166.5352)" stroke-width=".19925" stroke-linecap="butt" stroke-miterlimit="10" stroke-linejoin="miter" fill="none" stroke="#929292" d="M7.16013 78.5723V82.82404M52.14856 78.5723V82.82404M142.12541 78.5723V82.82404M187.11385 78.5723V82.82404"/>
<path transform="matrix(1.00003,0,0,-1.00006,2.4406586,166.5352)" stroke-width=".19925" stroke-linecap="butt" stroke-miterlimit="10" stroke-linejoin="miter" fill="none" stroke="#929292" d="M95.01102 0H99.26294M95.01102 40.34909H99.26294M95.01102 121.04727H99.26294M95.01102 161.39636H99.26294"/>
<path transform="matrix(1.00003,0,0,-1.00006,2.4406586,166.5352)" stroke-width=".3985" stroke-linecap="butt" stroke-miterlimit="10" stroke-linejoin="miter" fill="none" stroke="#000000" d="M0 80.69818H192.28145"/>
<path transform="matrix(1.00003,0,0,-1.00006,194.72789,85.832187)" d="M1.99252 0-1.19551 1.59401 0 0-1.19551-1.59401"/>
<path transform="matrix(1.00003,0,0,-1.00006,2.4406586,166.5352)" stroke-width=".3985" stroke-linecap="butt" stroke-miterlimit="10" stroke-linejoin="miter" fill="none" stroke="#000000" d="M97.137 0V159.40384"/>
<path transform="matrix(0,-1.00006,-1.00003,-0,99.580577,7.121811)" d="M1.99252 0-1.19551 1.59401 0 0-1.19551-1.59401"/>
<use data-text="&#x2212;" xlink:href="#font_1_1" transform="matrix(9.962899,0,0,-9.963197,.21759033,97.899089)"/>
<use data-text="2" xlink:href="#font_2_3" transform="matrix(9.962899,0,0,-9.963197,7.9668276,97.899089)"/>
<use data-text="&#x03c0;" xlink:href="#font_3_1" transform="matrix(9.962899,0,0,-9.963197,12.947975,97.899089)"/>
<use data-text="&#x2212;" xlink:href="#font_1_1" transform="matrix(9.962899,0,0,-9.963197,47.698019,97.290058)"/>
<use data-text="&#x03c0;" xlink:href="#font_3_1" transform="matrix(9.962899,0,0,-9.963197,55.447256,97.290058)"/>
<use data-text="&#x03c0;" xlink:href="#font_3_1" transform="matrix(9.962899,0,0,-9.963197,141.55184,95.76796)"/>
<use data-text="2" xlink:href="#font_2_3" transform="matrix(9.962899,0,0,-9.963197,184.05112,97.899089)"/>
<use data-text="&#x03c0;" xlink:href="#font_3_1" transform="matrix(9.962899,0,0,-9.963197,189.03227,97.899089)"/>
<use data-text="&#x2212;" xlink:href="#font_1_1" transform="matrix(9.962899,0,0,-9.963197,76.22288,169.33037)"/>
<use data-text="1" xlink:href="#font_2_2" transform="matrix(9.962899,0,0,-9.963197,83.972118,169.33037)"/>
<use data-text="0" xlink:href="#font_2_1" transform="matrix(9.962899,0,0,-9.963197,88.95356,169.33037)"/>
<use data-text="&#x2212;" xlink:href="#font_1_1" transform="matrix(9.962899,0,0,-9.963197,81.204029,128.97895)"/>
<use data-text="5" xlink:href="#font_2_4" transform="matrix(9.962899,0,0,-9.963197,88.95326,128.97895)"/>
<use data-text="5" xlink:href="#font_2_4" transform="matrix(9.962899,0,0,-9.963197,88.95326,48.69114)"/>
<use data-text="1" xlink:href="#font_2_2" transform="matrix(9.962899,0,0,-9.963197,83.97111,8.339706)"/>
<use data-text="0" xlink:href="#font_2_1" transform="matrix(9.962899,0,0,-9.963197,88.95256,8.339706)"/>
<path transform="matrix(1.00003,0,0,-1.00006,2.4406586,166.5352)" stroke-width=".99628" stroke-linecap="butt" stroke-miterlimit="10" stroke-linejoin="miter" fill="none" stroke="#0000ff" d="M8.83006 158.50603 9.1872 145.67716 9.62473 135.53743 10.06227 128.45201 10.4998 123.2158 10.93735 119.18353 11.37488 115.99232 11.81241 113.38982 12.24994 111.23302 12.68748 109.41502 13.12502 107.86061 13.56256 106.51833 14.00009 105.34174 14.43764 104.30388 14.87515 103.3829 15.3127 102.55826 15.75023 101.81506 16.18777 101.14226 16.6253 100.52905 17.06285 99.96852 17.50037 99.45401 17.93791 98.97913 18.37544 98.53978 18.81299 98.13196 19.25052 97.75143 19.68806 97.39615 20.1256 97.06367 20.56313 96.75105 21.00066 96.45726 21.4382 96.17946 21.87573 95.91699 22.31328 95.66876 22.75081 95.43326 23.18834 95.20892 23.62587 94.99547 24.06342 94.79178 24.50095 94.59718 24.93849 94.41096 25.37602 94.23267 25.81355 94.06146 26.25108 93.89688 26.68863 93.73868 27.12616 93.58627 27.5637 93.43944 28.00124 93.29778 28.43878 93.1607 28.8763 93.02824 29.31384 92.89984 29.75137 92.77562 30.18892 92.65494 30.62645 92.53796 31.064 92.42403 31.50151 92.3133 31.93906 92.20557 32.37659 92.10045 32.81413 91.9981 33.25166 91.89824 33.68921 91.80058 34.12672 91.7052 34.56427 91.61186 35.0018 91.5206 35.43935 91.43115 35.87688 91.34346 36.31442 91.2575 36.75195 91.17339 37.18948 91.09055 37.62701 91.00925 38.06456 90.9292 38.50209 90.85051 38.93964 90.77301 39.37717 90.6968 39.8147 90.62154 40.25223 90.54741 40.68977 90.47435 41.1273 90.40201 41.56485 90.33075 42.00238 90.26025 42.43991 90.19058 42.87744 90.1217 43.31499 90.05334 43.75252 89.98584 44.19006 89.91885 44.6276 89.85257 45.06512 89.78668 45.50266 89.72136 45.94019 89.65648 46.37773 89.59207 46.81528 89.52812 47.2528 89.46442 47.69034 89.40106 48.12787 89.33812 48.5654 89.2753 49.00294 89.21278 49.44048 89.15053 49.87802 89.0885 50.31555 89.02657 50.75308 88.96457 51.19061 88.90283 51.62816 88.84128 52.06569 88.7796 52.50323 88.71806 52.9408 88.65637 53.3783 88.59468 53.81584 88.53282 54.25334 88.47089 54.6909 88.4089 55.12848 88.34666 55.56596 88.28426 56.00354 88.22166 56.44102 88.1587 56.87859 88.09554 57.31615 88.03201 57.75365 87.96814 58.19121 87.90375 58.62871 87.83916 59.06625 87.77403 59.50381 87.70842 59.94131 87.64229 60.37889 87.57545 60.81638 87.50813 61.25395 87.44014 61.69151 87.3715 62.129 87.30211 62.56656 87.23193 63.00406 87.16096 63.44162 87.08905 63.87918 87.01627 64.31668 86.94255 64.75424 86.86784 65.19173 86.79185 65.6293 86.7149 66.06686 86.6367 66.50436 86.55714 66.94193 86.47632 67.37941 86.39413 67.81697 86.31032 68.25453 86.22499 68.69203 86.13803 69.1296 86.04938 69.5671 85.95885 70.00467 85.86624 70.44221 85.77174 70.87971 85.67506 71.31728 85.57596 71.75478 85.47453 72.19234 85.37047 72.6299 85.26378 73.06738 85.15411 73.50494 85.04147 73.94244 84.92566 74.38002 84.80646 74.81758 84.68343 75.25508 84.55655 75.69263 84.42587 76.13013 84.2906 76.56769 84.15065 77.00525 84.00581 77.44275 83.85547 77.88031 83.69952 78.31781 83.53737 78.75537 83.36899 79.19293 83.19351 79.63043 83.01009 80.068 82.81866 80.5055 82.61867 80.94305 82.40898 81.3806 82.18901 81.8181 81.9577 82.25566 81.71404 82.69316 81.45718 83.13074 81.1853 83.5683 80.8979 84.00578 80.59305 84.44334 80.26778 84.88084 79.92174 85.3184 79.55153 85.75597 79.15417 86.19347 78.72687 86.63103 78.26576 87.06851 77.76685 87.50609 77.22394 87.94365 76.63202 88.38115 75.98314 88.81871 75.26826 89.25621 74.47562 89.69376 73.59196 90.13132 72.60092 90.56882 71.48178 91.00638 70.20555 91.44388 68.73627 91.88144 67.02507 92.319 65.00597 92.7565 62.5905 93.19406 59.64235 93.63156 55.96152 94.06912 51.23679 94.50668 44.9501 94.94418 36.16812 95.38173 22.99692 95.76147 4.01953"/>
<path transform="matrix(-.027830836,-.99961999,-.99959006,.027831668,11.271004,8.019684)" d="M2.8892 0-1.73352 2.31136 0 0-1.73352-2.31136" fill="#0000ff"/>
<path transform="matrix(.0199906,.99982997,.9998,-.0199912,98.205,162.51541)" d="M2.8892 0-1.73352 2.31136 0 0-1.73352-2.31136" fill="#0000ff"/>
<path transform="matrix(1.00003,0,0,-1.00006,2.4406586,166.5352)" stroke-width=".99628" stroke-linecap="butt" stroke-miterlimit="10" stroke-linejoin="miter" fill="none" stroke="#0000ff" d="M98.80678 158.53263 99.16406 145.68602 99.60161 135.55356 100.03914 128.45604 100.47668 123.21877 100.9142 119.18839 101.35175 115.99232 101.78929 113.38982 102.22682 111.23483 102.66437 109.41502 103.1019 107.86098 103.53943 106.5175 103.97697 105.3421 104.4145 104.30542 104.85205 103.38344 105.28958 102.55875 105.72713 101.81528 106.16467 101.14249 106.60219 100.53003 107.03973 99.96884 107.47726 99.4546 107.91481 98.97945 108.35234 98.53978 108.78989 98.1318 109.2274 97.75143 109.66495 97.39615 110.1025 97.06412 110.54002 96.75137 110.97757 96.45726 111.4151 96.17995 111.85263 95.91743 112.29018 95.66917 112.7277 95.43314 113.16525 95.20892 113.60278 94.99551 114.04033 94.7921 114.47786 94.59746 114.91539 94.41104 115.35294 94.23267 115.79047 94.06146 116.22801 93.8971 116.66554 93.73904 117.10309 93.5865 117.5406 93.43951 117.97815 93.29765 118.4157 93.16083 118.85323 93.02849 119.29077 92.90013 119.7283 92.77562 120.16583 92.65501 120.60338 92.53796 121.04091 92.42418 121.47845 92.3135 121.91599 92.20561 122.35353 92.10045 122.79106 91.99812 123.22859 91.89824 123.66614 91.8007 124.10367 91.70528 124.54121 91.61186 124.97874 91.5206 125.41629 91.43126 125.8538 91.34367 126.29135 91.25772 126.7289 91.17339 127.16643 91.09055 127.60397 91.00925 128.0415 90.92924 128.47904 90.85057 128.91658 90.77306 129.35411 90.69672 129.79166 90.62161 130.22919 90.54741 130.66674 90.47438 131.10428 90.40218 131.5418 90.33075 131.97934 90.26025 132.41687 90.1907 132.85442 90.12175 133.29195 90.0535 133.72949 89.98596 134.16703 89.91885 134.60456 89.85257 135.0421 89.78668 135.47963 89.72131 135.91718 89.6566 136.3547 89.59207 136.79224 89.52812 137.22978 89.46442 137.66732 89.40106 138.10486 89.33817 138.54239 89.2755 138.97994 89.21288 139.41748 89.15056 139.855 89.0885 140.29254 89.02657 140.73007 88.96468 141.16762 88.90291 141.60517 88.84128 142.0427 88.7796 142.48023 88.71806 142.91779 88.65645 143.35529 88.59473 143.79285 88.53287 144.23035 88.47096 144.66791 88.4089 145.10547 88.34673 145.54297 88.28433 145.98053 88.22159 146.41803 88.1587 146.85559 88.09554 147.29317 88.03201 147.73067 87.96814 148.16822 87.90387 148.60572 87.83916 149.04328 87.77411 149.48085 87.70847 149.91835 87.64224 150.35591 87.57555 150.7934 87.50816 151.23096 87.44014 151.66852 87.3715 152.10604 87.30211 152.5436 87.23204 152.9811 87.16113 153.41864 87.0891 153.8562 87.0163 154.2937 86.9426 154.73128 86.86784 155.16878 86.792 155.60634 86.7149 156.0439 86.6367 156.48139 86.55722 156.91896 86.47635 157.35646 86.39417 157.79402 86.31032 158.23159 86.22499 158.66909 86.13803 159.10665 86.04938 159.54415 85.95885 159.9817 85.86641 160.41927 85.77187 160.85677 85.67499 161.29433 85.57605 161.73181 85.47453 162.16939 85.37054 162.60695 85.26366 163.04445 85.15407 163.48201 85.04147 163.91951 84.92587 164.35709 84.80646 164.79463 84.68353 165.23213 84.55655 165.6697 84.42598 166.1072 84.29065 166.54477 84.15076 166.98233 84.0059 167.41982 83.85556 167.85738 83.69965 168.29488 83.5377 168.73246 83.36899 169.17002 83.19336 169.60752 83.01028 170.04506 82.81866 170.48256 82.61867 170.92012 82.40923 171.3577 82.1889 171.7952 81.9577 172.23276 81.71404 172.67026 81.4573 173.1078 81.18558 173.54538 80.89824 173.98288 80.59293 174.42044 80.26756 174.85794 79.9215 175.2955 79.55133 175.73307 79.15381 176.17055 78.72711 176.60813 78.26591 177.04563 77.76685 177.48319 77.22418 177.92075 76.63202 178.35823 75.98314 178.7958 75.26826 179.2333 74.47562 179.67087 73.5931 180.10843 72.60187 180.54593 71.48178 180.98349 70.20572 181.42099 68.73732 181.85855 67.02547 182.29611 65.00597 182.73361 62.5905 183.17119 59.64235 183.60868 55.96152 184.04624 51.23679 184.4838 44.94968 184.9213 36.16812 185.35886 23.01834 185.73879 3.9816"/>
<path transform="matrix(-.027770834,-.99961999,-.99959006,.027771665,101.250408,7.993088)" d="M2.8892 0-1.73352 2.31136 0 0-1.73352-2.31136" fill="#0000ff"/>
<path transform="matrix(.019930598,.99982997,.9998,-.019931196,188.18503,162.55336)" d="M2.8892 0-1.73352 2.31136 0 0-1.73352-2.31136" fill="#0000ff"/>
<path transform="matrix(1.00003,0,0,-1.00006,2.4406586,166.5352)" stroke-width=".3985" stroke-linecap="butt" stroke-dasharray="2.98883,2.98883" stroke-miterlimit="10" stroke-linejoin="miter" fill="none" stroke="#ff0000" d="M7.16013 0V161.39636"/>
<path transform="matrix(1.00003,0,0,-1.00006,2.4406586,166.5352)" stroke-width=".3985" stroke-linecap="butt" stroke-dasharray="2.98883,2.98883" stroke-miterlimit="10" stroke-linejoin="miter" fill="none" stroke="#ff0000" d="M97.137 0V161.39636"/>
<path transform="matrix(1.00003,0,0,-1.00006,2.4406586,166.5352)" stroke-width=".3985" stroke-linecap="butt" stroke-dasharray="2.98883,2.98883" stroke-miterlimit="10" stroke-linejoin="miter" fill="none" stroke="#ff0000" d="M187.11385 0V161.39636"/>
<use data-text="x" xlink:href="#font_3_2" transform="matrix(9.962899,0,0,-9.963197,187.50621,82.31215)"/>
<use data-text="y" xlink:href="#font_3_3" transform="matrix(9.962899,0,0,-9.963197,103.10068,12.93898)"/>
</svg>
