<svg xmlns="http://www.w3.org/2000/svg" xmlns:xlink="http://www.w3.org/1999/xlink" xmlns:inkscape="http://www.inkscape.org/namespaces/inkscape" version="1.1" width="219" height="185" viewBox="0 0 219 185">
<defs>
<path id="font_1_67" d="M.46499635 .6516113V.6826172L.33599855 .6796112C.2939911 .6796112 .20599365 .6796112 .16799927 .6826172V.6516113H.20399475C.3019867 .6516113 .3019867 .63861086 .3019867 .6035919V.14746094C.3019867 .055999757 .2519989 0 .19898987 0 .19299317-.00039672853 .125-.00039672853 .08898926 .057617189 .14099121 .057617189 .15299988 .08761597 .15299988 .11361694 .15299988 .14961243 .125 .1696167 .09700012 .1696167 .07499695 .16999817 .040985109 .1559906 .040985109 .11199951 .040985109 .03753662 .11199951-.022460938 .20098877-.022460938 .30299378-.022460938 .37599183 .047531129 .3869934 .122543338 .3880005 .1305542 .3880005 .1325531 .3880005 .16654969V.61061099C.3880005 .6516113 .4019928 .6516113 .46499635 .6516113Z"/>
<path id="font_1_28" d="M.48298646 .08912659V.14511109H.45799256V.08912659C.45799256 .03112793 .43299867 .025131226 .42199708 .025131226 .3889923 .025131226 .3849945 .070129398 .3849945 .07511902V.27508546C.3849945 .31707765 .3849945 .3560791 .34899903 .39312745 .30999757 .43223573 .2599945 .4482422 .21199036 .4482422 .12998963 .4482422 .06098938 .40115357 .06098938 .335083 .06098938 .30508424 .08099365 .28808595 .10699463 .28808595 .1349945 .28808595 .15299988 .30807496 .15299988 .33407594 .15299988 .3460846 .147995 .37908937 .101989749 .38008119 .1289978 .41519166 .17799378 .426239 .20999146 .426239 .25898744 .426239 .31599427 .38710023 .31599427 .29808045V.26107789C.2649994 .25808717 .19499207 .25508119 .13198853 .22509766 .056991579 .19110108 .03199768 .13911438 .03199768 .09512329 .03199768 .014251709 .1289978-.0107421879 .19198609-.0107421879 .2579956-.0107421879 .3039856 .029251099 .32299806 .07624817 .32699586 .036132814 .35398866-.005859375 .40098573-.005859375 .42199708-.005859375 .48298646 .008132935 .48298646 .08912659M.31599427 .14013672C.31599427 .04525757 .24398804 .011245728 .19898987 .011245728 .1499939 .011245728 .10899353 .04624939 .10899353 .09625244 .10899353 .15124512 .15098572 .23425293 .31599427 .24024964V.14013672Z"/>
<path id="font_1_77" d="M.5349884 0V.0309906C.48298646 .0309906 .45799256 .0309906 .45700074 .061019899V.25221253C.45700074 .3383026 .45700074 .36932374 .42599488 .405365 .4119873 .42237855 .3789978 .4423828 .32099916 .4423828 .24798584 .4423828 .20098877 .39935304 .17298889 .33729554V.4423828L.03199768 .43066407V.3996582C.101989749 .3996582 .10998535 .39266969 .10998535 .34370423V.07595825C.10998535 .0309906 .09899902 .0309906 .03199768 .0309906V0L.14498902 .0029907227 .25698854 0V.0309906C.18998719 .0309906 .1789856 .0309906 .1789856 .07595825V.25978089C.1789856 .36431886 .25 .42037965 .31399537 .42037965 .3769989 .42037965 .3880005 .36631776 .3880005 .30926515V.076034549C.3880005 .0309906 .3769989 .0309906 .30999757 .0309906V0L.4229889 .0029907227 .5349884 0Z"/>
<path id="font_1_74" d="M.8789978 0V.0309906H.8549957C.7779999 .0309906 .776001 .041992189 .776001 .07795715V.6046295C.776001 .64060977 .7779999 .6516113 .8549957 .6516113H.8789978V.6826172H.70999148C.6839905 .6826172 .6839905 .6816101 .6769867 .66360476L.45799256 .10095215 .24099732 .660614C.23199463 .6826172 .22898865 .6826172 .20599365 .6826172H.036987306V.6516113H.06098938C.13798523 .6516113 .13999939 .64060977 .13999939 .6046295V.10494995C.13999939 .07795715 .13999939 .0309906 .036987306 .0309906V0L.1539917 .0029907227 .2709961 0V.0309906C.16799927 .0309906 .16799927 .07795715 .16799927 .10494995V.6436157H.16899109L.4099884 .021987915C.4149933 .008987427 .41999818 0 .42999269 0 .44099427 0 .44400025 .0079956059 .44799806 .018997193L.69400027 .6516113H.69499209V.07795715C.69499209 .041992189 .69299319 .0309906 .6159973 .0309906H.59199526V0C.6289978 .0029907227 .69699099 .0029907227 .73599246 .0029907227 .7749939 .0029907227 .84199526 .0029907227 .8789978 0Z"/>
<path id="font_1_96" d="M.3639984 .38137818C.3639984 .41337586 .33299256 .4423828 .2899933 .4423828 .21699524 .4423828 .18099976 .37538148 .16699219 .3323822V.4423828L.027999878 .43066407V.3996582C.09799194 .3996582 .10598755 .39266969 .10598755 .34370423V.07595825C.10598755 .0309906 .09498596 .0309906 .027999878 .0309906V0L.14199829 .0029907227C.18199158 .0029907227 .22898865 .0029907227 .2689972 0V.0309906H.24798584C.17399597 .0309906 .17199707 .04197693 .17199707 .07795715V.23181153C.17199707 .33137513 .21398926 .42037965 .2899933 .42037965 .29699708 .42037965 .29899598 .42037965 .30099488 .41937257 .2979889 .41838075 .27799989 .40637208 .27799989 .3803711 .27799989 .35237123 .29899598 .33737184 .32099916 .33737184 .33898927 .33737184 .3639984 .3493805 .3639984 .38137818Z"/>
<path id="font_1_118" d="M.5079956 .3996582V.43066407C.4850006 .4286499 .45599366 .42765809 .43299867 .42765809L.34599305 .43066407V.3996582C.3769989 .39866639 .3929901 .3816681 .3929901 .35668946 .3929901 .34669496 .3919983 .34469605 .3869934 .33270265L.28599549 .08685303 .1749878 .35568238C.17098999 .36567689 .16899109 .36967469 .16899109 .3736725 .16899109 .3996582 .20599365 .3996582 .22499085 .3996582V.43066407L.115997318 .42765809C.08898926 .42765809 .04899597 .4286499 .018997193 .43066407V.3996582C.066986087 .3996582 .085998538 .3996582 .099990848 .36468507L.25-.000091552738 .22499085-.059066774C.20298767-.11407471 .1749878-.18309021 .11099243-.18309021 .10598755-.18309021 .08299255-.18309021 .06399536-.16503906 .09498596-.16104126 .102996829-.13905335 .102996829-.123046878 .102996829-.0970459 .083999637-.08103943 .06098938-.08103943 .040985109-.08103943 .018997193-.09403992 .018997193-.124053958 .018997193-.16905213 .06098938-.20507813 .11099243-.20507813 .17399597-.20507813 .21499634-.14804077 .23899842-.091049198L.4149933 .33569337C.44099427 .39865113 .49198915 .3996582 .5079956 .3996582Z"/>
<path id="font_1_109" d="M.5349884 0V.0309906C.46499635 .0309906 .45700074 .037994386 .45700074 .08705139V.4423828L.30999757 .43066407V.3996582C.37998963 .3996582 .3880005 .39266969 .3880005 .34373475V.16601563C.3880005 .07910156 .33999635 .011245728 .2669983 .011245728 .18299866 .011245728 .1789856 .058135988 .1789856 .11009216V.4423828L.03199768 .43066407V.3996582C.10998535 .3996582 .10998535 .39666749 .10998535 .3078003V.15802002C.10998535 .080093387 .10998535-.0107421879 .2619934-.0107421879 .31799317-.0107421879 .3619995 .017242432 .3909912 .07910156V-.0107421879L.5349884 0Z"/>
<path id="font_1_72" d="M.25498963 0V.0309906C.18798828 .0309906 .1769867 .0309906 .1769867 .07601929V.69433596L.032989503 .6826172V.6516113C.102996829 .6516113 .11099243 .64460757 .11099243 .5956421V.07595825C.11099243 .0309906 .099990848 .0309906 .032989503 .0309906V0L.14399719 .0029907227 .25498963 0Z"/>
<path id="font_1_97" d="M.49899293 .18579102C.49899293 .2858429 .43299867 .36791993 .34899903 .38793946L.22099304 .4189453C.15899658 .43388368 .11999512 .48773194 .11999512 .5458069 .11999512 .61595156 .17399597 .677063 .2519989 .677063 .4189911 .677063 .44099427 .5127411 .44699098 .46777345 .44799806 .461792 .44799806 .45581056 .45899964 .45581056 .47200013 .45581056 .47200013 .46080018 .47200013 .47973634V.68107607C.47200013 .69807437 .47200013 .7050781 .46099855 .7050781 .45399476 .7050781 .45298768 .70407107 .44599916 .69207766L.41099549 .63497927C.3809967 .66404727 .33999635 .7050781 .25099183 .7050781 .13999939 .7050781 .055999757 .61694338 .055999757 .5107422 .055999757 .42790223 .10899353 .35490418 .18699646 .32788087 .19799805 .32388307 .24899292 .3118744 .31900025 .29486085 .34599305 .28785707 .37599183 .280838 .4039917 .24382019 .4249878 .2177887 .43499757 .18478394 .43499757 .1517334 .43499757 .0806427 .3849945 .008529663 .30099488 .008529663 .27198792 .008529663 .19599915 .013534546 .14299011 .06260681 .084991458 .11668396 .08198547 .18078614 .08099365 .21679688 .07998657 .22679138 .07199097 .22679138 .068984989 .22679138 .055999757 .22679138 .055999757 .2197876 .055999757 .20178223V.0015258789C.055999757-.015472412 .055999757-.022460938 .066986087-.022460938 .07398987-.022460938 .07499695-.020462037 .08198547-.009475708 .08198547-.009475708 .084991458-.0054626467 .117996219 .047592164 .14898682 .013534546 .21299744-.022460938 .3019867-.022460938 .4189911-.022460938 .49899293 .07562256 .49899293 .18579102Z"/>
<path id="font_1_50" d="M.4149933 .11933899C.4149933 .12934876 .40699769 .13134766 .4019928 .13134766 .3929901 .13134766 .3909912 .12535095 .3889923 .11734009 .35398866 .014251709 .2639923 .014251709 .2539978 .014251709 .20399475 .014251709 .1639862 .044281007 .14099121 .08131409 .11099243 .12934876 .11099243 .19540406 .11099243 .23144531H.3899994C.4119873 .23144531 .4149933 .23144531 .4149933 .2524414 .4149933 .35131837 .36099244 .4482422 .23599243 .4482422 .11999512 .4482422 .027999878 .34532167 .027999878 .22042847 .027999878 .08631897 .1329956-.0107421879 .24798584-.0107421879 .36999513-.0107421879 .4149933 .10032654 .4149933 .11933899M.34899903 .2524414H.11199951C.117996219 .40126039 .20199585 .426239 .23599243 .426239 .33898927 .426239 .34899903 .2913971 .34899903 .2524414Z"/>
<path id="font_1_84" d="M.5209961 .21636963C.5209961 .34336854 .42399598 .4423828 .31199647 .4423828 .23399353 .4423828 .19198609 .39837647 .17199707 .3763733V.4423828L.027999878 .43066407V.3996582C.09899902 .3996582 .10598755 .3936615 .10598755 .34973146V-.117996219C.10598755-.16308594 .09498596-.16308594 .027999878-.16308594V-.1940918L.13999939-.19110108 .25299073-.1940918V-.16308594C.18598938-.16308594 .1749878-.16308594 .1749878-.117996219V.050186159 .059173585C.17999268 .04319763 .22200012-.0107421879 .2979889-.0107421879 .4169922-.0107421879 .5209961 .087127689 .5209961 .21594239V.21636963M.43798829 .21594239C.43798829 .09512329 .36799623 .011245728 .2939911 .011245728 .2539978 .011245728 .21598816 .031219483 .18899536 .07215881 .1749878 .09312439 .1749878 .09411621 .1749878 .114089969V.33674623C.20399475 .38838197 .25299073 .41737367 .3039856 .41737367 .3769989 .41737367 .43798829 .32937623 .43798829 .21636963V.21594239Z"/>
<path id="font_1_76" d="M.71598818 .6516113V.6826172L.598999 .6796112 .48199464 .6826172V.6516113C.58499148 .6516113 .58499148 .6046295 .58499148 .577652V.15092469L.23199463 .6696167C.22299195 .6816101 .22200012 .6826172 .20298767 .6826172H.032989503V.6516113H.06199646C.07699585 .6516113 .09700012 .65060427 .11199951 .6496124 .1349945 .64660647 .13598633 .6456146 .13598633 .62661746V.10494995C.13598633 .07795715 .13598633 .0309906 .032989503 .0309906V0L.1499939 .0029907227 .2669983 0V.0309906C.1639862 .0309906 .1639862 .07795715 .1639862 .10494995V.62461856C.16899109 .6196289 .16999817 .6186218 .17399597 .6126251L.58200076 .0129852299C.59098818 .0009918213 .59199526 0 .598999 0 .61299136 0 .61299136 .0069885256 .61299136 .025985718V.577652C.61299136 .6046295 .61299136 .6516113 .71598818 .6516113Z"/>
<path id="font_1_81" d="M.47099305 .21424866C.47099305 .34223939 .37098695 .4482422 .25 .4482422 .125 .4482422 .027999878 .3392334 .027999878 .21424866 .027999878 .085250858 .13198853-.0107421879 .24899292-.0107421879 .36999513-.0107421879 .47099305 .087249759 .47099305 .21424866M.3880005 .22224427C.3880005 .18624878 .3880005 .13224793 .3659973 .08824158 .34399415 .04324341 .2999878 .014251709 .25 .014251709 .20698548 .014251709 .16299439 .035247804 .13598633 .08125305 .11099243 .12524414 .11099243 .18624878 .11099243 .22224427 .11099243 .26124574 .11099243 .31523133 .1349945 .35923768 .1619873 .40522767 .20899964 .426239 .24899292 .426239 .29299928 .426239 .33599855 .40423585 .3619995 .36123658 .3880005 .3182373 .3880005 .26023866 .3880005 .22224427Z"/>
<path id="font_1_112" d="M.5079956 .3996582V.43066407C.4850006 .4286499 .45599366 .42765809 .43299867 .42765809L.34599305 .43066407V.3996582C.3829956 .39865113 .3939972 .37568666 .3939972 .35671998 .3939972 .34773255 .3919983 .34373475 .3880005 .3327484L.28599549 .078125 .17399597 .35671998C.16799927 .3697052 .16799927 .37368775 .16799927 .37368775 .16799927 .3996582 .20698548 .3996582 .22499085 .3996582V.43066407L.115997318 .42765809C.08898926 .42765809 .04899597 .4286499 .018997193 .43066407V.3996582C.08198547 .3996582 .085998538 .3936615 .09899902 .36271668L.24299622 .008224487C.24899292-.0057525637 .25099183-.0107421879 .2639923-.0107421879 .2769928-.0107421879 .2809906-.0017700195 .2849884 .008224487L.41600038 .3327484C.4249878 .3557129 .44198609 .39865113 .5079956 .3996582Z"/>
<path id="font_2_1" d="M.2939911 .64004519C.2939911 .66400149 .2939911 .6660156 .2709961 .6660156 .20899964 .60227969 .12098694 .60227969 .08898926 .60227969V.57128909C.10899353 .57128909 .16799927 .57128909 .21998596 .5972748V.07902527C.21998596 .042999269 .21699524 .0309906 .1269989 .0309906H.09498596V0C.12998963 .0029907227 .21699524 .0029907227 .25698854 .0029907227 .29699708 .0029907227 .38398744 .0029907227 .4189911 0V.0309906H.3869934C.29699708 .0309906 .2939911 .041992189 .2939911 .07902527V.64004519Z"/>
<path id="font_3_1" d="M.19198609 .052993776C.19198609 .08198547 .16799927 .10598755 .13899231 .10598755 .10998535 .10598755 .085998538 .08198547 .085998538 .052993776 .085998538 .023986817 .10998535 0 .13899231 0 .16799927 0 .19198609 .023986817 .19198609 .052993776Z"/>
<path id="font_2_4" d="M.44898988 .20022583C.44898988 .3193512 .36698915 .41944886 .25898744 .41944886 .21099854 .41944886 .16799927 .40345765 .13198853 .36842347V.5637665C.1519928 .5577698 .18499756 .55078127 .21699524 .55078127 .33999635 .55078127 .4099884 .6417694 .4099884 .6547699 .4099884 .6607666 .40699769 .6657715 .3999939 .6657715 .39898683 .6657715 .39698792 .6657715 .3919983 .66278079 .37199403 .6537781 .32299806 .6337738 .2559967 .6337738 .21598816 .6337738 .16999817 .6407776 .12298584 .6617737 .114990238 .66477969 .11299133 .66477969 .11099243 .66477969 .100997928 .66477969 .100997928 .6567688 .100997928 .6407776V.34439088C.100997928 .32637025 .100997928 .31835938 .114990238 .31835938 .12199402 .31835938 .12399292 .32136537 .12799073 .32736207 .13899231 .3433838 .17599488 .39746095 .25698854 .39746095 .30899049 .39746095 .33399964 .35139466 .34199525 .33337403 .35798646 .29632569 .3600006 .25727845 .3600006 .20722962 .3600006 .17222595 .3600006 .11222839 .33599855 .07035828 .31199647 .031463624 .2749939 .0055389406 .22898865 .0055389406 .1559906 .0055389406 .09899902 .058380128 .08198547 .11723328 .084991458 .1162262 .08799744 .115234378 .09899902 .115234378 .13198853 .115234378 .14898682 .14022827 .14898682 .16423035 .14898682 .18823242 .13198853 .21322632 .09899902 .21322632 .084991458 .21322632 .049987794 .20622254 .049987794 .16023255 .049987794 .07434082 .11898804-.022460938 .23098755-.022460938 .34700013-.022460938 .44898988 .073349 .44898988 .20022583Z"/>
<path id="font_2_2" d="M.1269989 .07699585 .23298645 .18003845C.3889923 .31811524 .44898988 .3721466 .44898988 .47216798 .44898988 .5860901 .35899354 .6660156 .23699951 .6660156 .12399292 .6660156 .049987794 .57411196 .049987794 .48516847 .049987794 .4291687 .099990848 .4291687 .102996829 .4291687 .11999512 .4291687 .15499878 .44117738 .15499878 .48217774 .15499878 .5081787 .13699341 .5341797 .101989749 .5341797 .09399414 .5341797 .09199524 .5341797 .08898926 .5331726 .11199951 .59806826 .1659851 .63500979 .22399903 .63500979 .31498719 .63500979 .35798646 .5541382 .35798646 .47216798 .35798646 .39215089 .30799867 .31311036 .25299073 .25108338L.06098938 .036987306C.049987794 .025985718 .049987794 .023986817 .049987794 0H.42099L.44898988 .17404175H.42399598C.4189911 .14402771 .4119873 .1000061 .4019928 .084991458 .394989 .07699585 .32899476 .07699585 .30699159 .07699585H.1269989Z"/>
<path id="font_2_3" d="M.2899933 .35191346C.37199403 .37893678 .42999269 .4490509 .42999269 .52809146 .42999269 .6100464 .34199525 .6660156 .24598694 .6660156 .14498902 .6660156 .068984989 .60606387 .068984989 .53009036 .068984989 .49710084 .09098816 .47808839 .11999512 .47808839 .15098572 .47808839 .17098999 .50009158 .17098999 .5290985 .17098999 .57910159 .12399292 .57910159 .10899353 .57910159 .13999939 .62802127 .20599365 .64100649 .24198914 .64100649 .2829895 .64100649 .33799745 .6190338 .33799745 .5290985 .33799745 .51708987 .33599855 .45906068 .30999757 .4149933 .27999879 .36691285 .24598694 .36390687 .22099304 .36291505 .21299744 .36190797 .18899536 .35990907 .18199158 .35990907 .17399597 .35890199 .16699219 .35791017 .16699219 .3479004 .16699219 .33691407 .17399597 .33691407 .19099427 .33691407H.23498535C.31698609 .33691407 .35398866 .2686615 .35398866 .17037964 .35398866 .034469606 .2849884 .0055389406 .24099732 .0055389406 .19799805 .0055389406 .12298584 .022491456 .08799744 .08137512 .12298584 .07637024 .1539917 .09837341 .1539917 .1363678 .1539917 .17237854 .1269989 .19238281 .09799194 .19238281 .07398987 .19238281 .041992189 .17837525 .041992189 .1343689 .041992189 .043441774 .1349945-.022460938 .24398804-.022460938 .3659973-.022460938 .45700074 .06838989 .45700074 .17037964 .45700074 .252594 .3939972 .33088685 .2899933 .35191346Z"/>
<path id="font_1_69" d="M.73599246 0V.0309906C.6819916 .0309906 .6609955 .034988405 .6309967 .07896423L.3999939 .41874696 .5799866 .5916443C.58799746 .5996399 .6409912 .65060427 .7220001 .6516113V.6826172C.69599917 .6796112 .6639862 .6796112 .6369934 .6796112 .6009979 .6796112 .5439911 .6796112 .5099945 .6826172V.6516113C.5499878 .65060427 .55599978 .6276245 .55599978 .6186218 .55599978 .6026306 .54599 .5926361 .5379944 .5856476L.22499085 .28683473V.6046295C.22499085 .64060977 .22698975 .6516113 .3039856 .6516113H.32798768V.6826172C.29299928 .6796112 .21899414 .6796112 .18099976 .6796112 .14299011 .6796112 .067993167 .6796112 .032989503 .6826172V.6516113H.056991579C.13398743 .6516113 .13598633 .64060977 .13598633 .6046295V.07795715C.13598633 .041992189 .13398743 .0309906 .056991579 .0309906H.032989503V0C.067993167 .0029907227 .14199829 .0029907227 .17999268 .0029907227 .21798706 .0029907227 .29299928 .0029907227 .32798768 0V.0309906H.3039856C.22698975 .0309906 .22499085 .041992189 .22499085 .07795715V.2528534L.34098817 .3627777 .5219879 .094955448C.5279999 .08595276 .5369873 .07296753 .5369873 .06097412 .5369873 .0309906 .49798585 .0309906 .47799684 .0309906V0C.5130005 .0029907227 .58299258 .0029907227 .62098696 .0029907227L.73599246 0Z"/>
<path id="font_1_501" d="M.19198609 .44699098C.19198609 .47299195 .1749878 .5 .13899231 .5 .11898804 .5 .10499573 .48999024 .09899902 .48399354 .09799194 .48199464 .09599304 .48098756 .09599304 .48098756 .09599304 .48098756 .09399414 .49499513 .09399414 .49899293 .09399414 .53105166 .100997928 .60317996 .1639862 .66529849 .17599488 .6773224 .17599488 .6793213 .17599488 .6823273 .17599488 .6893463 .17098999 .6933594 .1659851 .6933594 .15499878 .6933594 .07199097 .617218 .07199097 .49899293 .07199097 .43899537 .09599304 .3939972 .13899231 .3939972 .17399597 .3939972 .19198609 .42099 .19198609 .44699098Z"/>
<path id="font_1_66" d="M.24699402 0V.0309906C.18099976 .0309906 .1769867 .035995485 .1769867 .075042728V.4423828L.036987306 .43066407V.3996582C.101989749 .3996582 .11099243 .3936615 .11099243 .3447113V.07595825C.11099243 .0309906 .099990848 .0309906 .032989503 .0309906V0L.14299011 .0029907227C.17799378 .0029907227 .21299744 .0009918213 .24699402 0M.19198609 .603775C.19198609 .6307678 .16899109 .6567688 .13899231 .6567688 .10499573 .6567688 .084991458 .6287689 .084991458 .603775 .084991458 .57676699 .10798645 .55078127 .13798523 .55078127 .17199707 .55078127 .19198609 .5787811 .19198609 .603775Z"/>
<path id="font_1_59" d="M.4850006 .40411378C.4850006 .42111207 .47299195 .453125 .43399049 .453125 .4139862 .453125 .36999513 .44711305 .32798768 .40611268 .28599549 .43937684 .24398804 .4423828 .22200012 .4423828 .1289978 .4423828 .05999756 .37338258 .05999756 .29638673 .05999756 .25239564 .08198547 .21440125 .10699463 .19340515 .09399414 .17840576 .07598877 .14538574 .07598877 .11035156 .07598877 .07899475 .08898926 .04083252 .11999512 .020828248 .05999756 .003829956 .027999878-.039138795 .027999878-.07911682 .027999878-.15107727 .1269989-.20605469 .24899292-.20605469 .36698915-.20605469 .47099305-.15507508 .47099305-.07711792 .47099305-.042144777 .45700074 .008834839 .4059906 .036834718 .35299684 .064834598 .29499818 .064834598 .23399353 .064834598 .20899964 .064834598 .1659851 .064834598 .15899658 .065841678 .1269989 .069885257 .10598755 .101242069 .10598755 .13334656 .10598755 .13735962 .10598755 .16040039 .12298584 .18040467 .1619873 .15240479 .20298767 .14941406 .22200012 .14941406 .31498719 .14941406 .38398744 .21839905 .38398744 .2953949 .38398744 .3323822 .36799623 .36938478 .34298707 .39237977 .3789978 .42637635 .4149933 .43138124 .43299867 .43138124 .43299867 .43112184 .43998719 .43112184 .44299317 .43011476 .43199159 .42611695 .4269867 .41513063 .4269867 .40315248 .4269867 .38616944 .43998719 .37417604 .45599366 .37417604 .46598817 .37417604 .4850006 .3811798 .4850006 .4041443V.40411378M.30899049 .29626466C.30899049 .26930238 .30799867 .2373352 .29299928 .21235657 .2849884 .20037842 .2619934 .17240906 .22200012 .17240906 .1349945 .17240906 .1349945 .2722931 .1349945 .29527284 .1349945 .3222351 .13598633 .35420228 .15098572 .3791809 .15899658 .3913269 .18199158 .41937257 .22200012 .41937257 .30899049 .41937257 .30899049 .31922914 .30899049 .29618836V.29626466M.4189911-.07911682C.4189911-.13308716 .34799195-.18305969 .25-.18305969 .14898682-.18305969 .07998657-.13209534 .07998657-.07911682 .07998657-.03314209 .117996219 .003829956 .1619873 .0068359377H.22099304C.30699159 .0068359377 .4189911 .0068359377 .4189911-.07911682Z"/>
<path id="font_1_75" d="M.8129883 0V.0309906C.7609863 .0309906 .73599246 .0309906 .7350006 .061019899V.25221253C.7350006 .3383026 .7350006 .36932374 .70399478 .405365 .6899872 .42237855 .6569977 .4423828 .598999 .4423828 .5149994 .4423828 .47099305 .38233949 .45399476 .34429933 .43998719 .43138124 .3659973 .4423828 .32099916 .4423828 .24798584 .4423828 .20098877 .39935304 .17298889 .33729554V.4423828L.03199768 .43066407V.3996582C.101989749 .3996582 .10998535 .39266969 .10998535 .34370423V.07595825C.10998535 .0309906 .09899902 .0309906 .03199768 .0309906V0L.14498902 .0029907227 .25698854 0V.0309906C.18998719 .0309906 .1789856 .0309906 .1789856 .07595825V.25978089C.1789856 .36431886 .25 .42037965 .31399537 .42037965 .3769989 .42037965 .3880005 .36631776 .3880005 .30926515V.076034549C.3880005 .0309906 .3769989 .0309906 .30999757 .0309906V0L.4229889 .0029907227 .5349884 0V.0309906C.46798707 .0309906 .45700074 .0309906 .45700074 .076034549V.2602234C.45700074 .36431886 .5279999 .42037965 .59199526 .42037965 .6549988 .42037965 .66600039 .36631776 .66600039 .30926515V.076034549C.66600039 .0309906 .6549988 .0309906 .58799746 .0309906V0L.70098879 .0029907227 .8129883 0Z"/>
<path id="font_1_105" d="M.33198548 .12385559V.18066406H.30699159V.12585449C.30699159 .052108766 .2769928 .014251709 .23999024 .014251709 .17298889 .014251709 .17298889 .10491943 .17298889 .12187195V.3996582H.31599427V.43066407H.17298889V.6142578H.147995C.14698792 .5324249 .116989139 .42565919 .018997193 .42166139V.3996582H.10398865V.12408447C.10398865 .0012512207 .19699097-.0107421879 .23298645-.0107421879 .3039856-.0107421879 .33198548 .060180665 .33198548 .12408447V.12385559Z"/>
<path id="font_1_63" d="M.5349884 0V.0309906C.48298646 .0309906 .45799256 .0309906 .45700074 .061019899V.25221253C.45700074 .3383026 .45700074 .36932374 .42599488 .405365 .4119873 .42237855 .3789978 .4423828 .32099916 .4423828 .23699951 .4423828 .19299317 .38233949 .1769867 .34629823H.17599488V.69433596L.03199768 .6826172V.6516113C.101989749 .6516113 .10998535 .64463809 .10998535 .59580996V.076034549C.10998535 .0309906 .09899902 .0309906 .03199768 .0309906V0L.14498902 .0029907227 .25698854 0V.0309906C.18998719 .0309906 .1789856 .0309906 .1789856 .076034549V.2602234C.1789856 .36431886 .25 .42037965 .31399537 .42037965 .3769989 .42037965 .3880005 .36631776 .3880005 .30926515V.076034549C.3880005 .0309906 .3769989 .0309906 .30999757 .0309906V0L.4229889 .0029907227 .5349884 0Z"/>
<path id="font_1_98" d="M.3600006 .12823487C.3600006 .18122864 .32998658 .21122742 .31799317 .22323609 .2849884 .25523377 .24598694 .26322938 .20399475 .27124024 .147995 .28224183 .08099365 .29522706 .08099365 .35324098 .08099365 .38822938 .10699463 .42922975 .19299317 .42922975 .30299378 .42922975 .30799867 .3392334 .30999757 .30822755 .31098939 .2992401 .32199098 .2992401 .32199098 .2992401 .33499146 .2992401 .33499146 .30422975 .33499146 .32322694V.4242401C.33499146 .4412384 .33499146 .4482422 .32398988 .4482422 .31900025 .4482422 .31698609 .4482422 .3039856 .43623353 .30099488 .43223573 .29100038 .42323304 .2869873 .42022706 .24899292 .4482422 .20799256 .4482422 .19299317 .4482422 .070999149 .4482422 .032989503 .38124085 .032989503 .3252411 .032989503 .29023744 .04899597 .26223756 .07598877 .24023438 .10798645 .2142334 .13598633 .2082367 .20799256 .19422913 .22999573 .19021607 .31199647 .17422486 .31199647 .10221863 .31199647 .051223756 .2769928 .011245728 .19898987 .011245728 .114990238 .011245728 .07899475 .068222049 .05999756 .1532135 .056991579 .16621399 .055999757 .17021179 .04598999 .17021179 .032989503 .17021179 .032989503 .16322327 .032989503 .1452179V.013214111C.032989503-.003753662 .032989503-.0107421879 .04399109-.0107421879 .04899597-.0107421879 .049987794-.009750366 .068984989 .009246826 .070999149 .011245728 .070999149 .013214111 .08898926 .032226564 .1329956-.009750366 .17799378-.0107421879 .19898987-.0107421879 .31399537-.0107421879 .3600006 .05621338 .3600006 .1282196V.12823487Z"/>
</defs>
<path transform="matrix(1.00005,0,0,-1.00002,23.57547,169.44216)" stroke-width=".19925" stroke-linecap="butt" stroke-miterlimit="10" stroke-linejoin="miter" fill="none" stroke="#7f807f" d="M.53224-2.12582V2.12582M17.03204-2.12582V2.12582M31.93509-2.12582V2.12582M48.43489-2.12582V2.12582M64.40245-2.12582V2.12582M80.90225-2.12582V2.12582M96.8698-2.12582V2.12582M113.3696-2.12582V2.12582M129.8694-2.12582V2.12582M145.83695-2.12582V2.12582M162.33675-2.12582V2.12582M178.3043-2.12582V2.12582"/>
<path transform="matrix(1.00005,0,0,-1.00002,23.57547,169.44216)" stroke-width=".19925" stroke-linecap="butt" stroke-miterlimit="10" stroke-linejoin="miter" fill="none" stroke="#7f807f" d="M-2.12589 26.89914H2.12589M-2.12589 53.79828H2.12589M-2.12589 80.69742H2.12589M-2.12589 107.59656H2.12589M-2.12589 134.4957H2.12589M-2.12589 161.39484H2.12589"/>
<path transform="matrix(1.00005,0,0,-1.00002,23.57547,169.44216)" stroke-width=".3985" stroke-linecap="butt" stroke-miterlimit="10" stroke-linejoin="miter" fill="none" stroke="#000000" d="M0 0H192.27933"/>
<path transform="matrix(1.00005,0,0,-1.00002,215.8644,169.44216)" d="M1.99252 0-1.19551 1.59401 0 0-1.19551-1.59401"/>
<path transform="matrix(1.00005,0,0,-1.00002,23.57547,169.44216)" stroke-width=".3985" stroke-linecap="butt" stroke-miterlimit="10" stroke-linejoin="miter" fill="none" stroke="#000000" d="M0 0V159.40232"/>
<path transform="matrix(0,-1.00002,-1.00005,-0,23.57547,10.036652)" d="M1.99252 0-1.19551 1.59401 0 0-1.19551-1.59401"/>
<use data-text="J" xlink:href="#font_1_67" transform="matrix(9.963098,0,0,-9.962799,16.286103,181.8924)"/>
<use data-text="a" xlink:href="#font_1_28" transform="matrix(9.963098,0,0,-9.962799,21.407135,181.8924)"/>
<use data-text="n" xlink:href="#font_1_77" transform="matrix(9.963098,0,0,-9.962799,26.388672,181.8924)"/>
<use data-text="M" xlink:href="#font_1_74" transform="matrix(9.963098,0,0,-9.962799,46.50061,181.8924)"/>
<use data-text="a" xlink:href="#font_1_28" transform="matrix(9.963098,0,0,-9.962799,55.63678,181.8924)"/>
<use data-text="r" xlink:href="#font_1_96" transform="matrix(9.963098,0,0,-9.962799,60.618318,181.8924)"/>
<use data-text="M" xlink:href="#font_1_74" transform="matrix(9.963098,0,0,-9.962799,78.43121,181.8924)"/>
<use data-text="a" xlink:href="#font_1_28" transform="matrix(9.963098,0,0,-9.962799,87.56738,181.8924)"/>
<use data-text="y" xlink:href="#font_1_118" transform="matrix(9.963098,0,0,-9.962799,92.26996,181.8924)"/>
<use data-text="J" xlink:href="#font_1_67" transform="matrix(9.963098,0,0,-9.962799,113.73497,182.00241)"/>
<use data-text="u" xlink:href="#font_1_109" transform="matrix(9.963098,0,0,-9.962799,118.856,182.00241)"/>
<use data-text="l" xlink:href="#font_1_72" transform="matrix(9.963098,0,0,-9.962799,124.39548,182.00241)"/>
<use data-text="S" xlink:href="#font_1_97" transform="matrix(9.963098,0,0,-9.962799,145.69956,182.1114)"/>
<use data-text="e" xlink:href="#font_1_50" transform="matrix(9.963098,0,0,-9.962799,151.23905,182.1114)"/>
<use data-text="p" xlink:href="#font_1_84" transform="matrix(9.963098,0,0,-9.962799,155.66266,182.1114)"/>
<use data-text="N" xlink:href="#font_1_76" transform="matrix(9.963098,0,0,-9.962799,177.20215,181.8924)"/>
<use data-text="o" xlink:href="#font_1_81" transform="matrix(9.963098,0,0,-9.962799,184.67447,181.8924)"/>
<use data-text="v" xlink:href="#font_1_112" transform="matrix(9.963098,0,0,-9.962799,189.37706,181.8924)"/>
<use data-text="1" xlink:href="#font_2_1" transform="matrix(9.963098,0,0,-9.962799,7.96669,145.75269)"/>
<use data-text="1" xlink:href="#font_2_1" transform="matrix(9.963098,0,0,-9.962799,12.948227,145.75269)"/>
<use data-text="1" xlink:href="#font_2_1" transform="matrix(9.963098,0,0,-9.962799,.21730042,118.853137)"/>
<use data-text="1" xlink:href="#font_2_1" transform="matrix(9.963098,0,0,-9.962799,5.1988375,118.853137)"/>
<use data-text="." xlink:href="#font_3_1" transform="matrix(9.963098,0,0,-9.962799,10.17981,118.853137)"/>
<use data-text="5" xlink:href="#font_2_4" transform="matrix(9.963098,0,0,-9.962799,12.947952,118.853137)"/>
<use data-text="1" xlink:href="#font_2_1" transform="matrix(9.963098,0,0,-9.962799,7.96669,91.953609)"/>
<use data-text="2" xlink:href="#font_2_2" transform="matrix(9.963098,0,0,-9.962799,12.948227,91.953609)"/>
<use data-text="1" xlink:href="#font_2_1" transform="matrix(9.963098,0,0,-9.962799,.21730042,65.05406)"/>
<use data-text="2" xlink:href="#font_2_2" transform="matrix(9.963098,0,0,-9.962799,5.1988375,65.05406)"/>
<use data-text="." xlink:href="#font_3_1" transform="matrix(9.963098,0,0,-9.962799,10.17981,65.05406)"/>
<use data-text="5" xlink:href="#font_2_4" transform="matrix(9.963098,0,0,-9.962799,12.947952,65.05406)"/>
<use data-text="1" xlink:href="#font_2_1" transform="matrix(9.963098,0,0,-9.962799,7.96669,38.154527)"/>
<use data-text="3" xlink:href="#font_2_3" transform="matrix(9.963098,0,0,-9.962799,12.948227,38.154527)"/>
<use data-text="1" xlink:href="#font_2_1" transform="matrix(9.963098,0,0,-9.962799,.21730042,11.253983)"/>
<use data-text="3" xlink:href="#font_2_3" transform="matrix(9.963098,0,0,-9.962799,5.1988375,11.253983)"/>
<use data-text="." xlink:href="#font_3_1" transform="matrix(9.963098,0,0,-9.962799,10.17981,11.253983)"/>
<use data-text="5" xlink:href="#font_2_4" transform="matrix(9.963098,0,0,-9.962799,12.947952,11.253983)"/>
<path transform="matrix(1.00005,0,0,-1.00002,23.57547,169.44216)" stroke-width=".99628" stroke-linecap="butt" stroke-miterlimit="10" stroke-linejoin="miter" fill="none" stroke="#0000ff" d="M0 17.46834 .97621 18.05377 1.95245 18.70242 2.92871 19.41917 3.90495 20.2007 4.88118 21.04474 5.85742 21.94904 6.83366 22.91875 7.80992 23.94948 8.78615 25.0384 9.76239 26.1848 10.73862 27.393 11.71486 28.65639 12.6911 29.9752 13.66734 31.34781 14.64359 32.77223 15.61983 34.25189 16.59607 35.77966 17.57231 37.35564 18.54855 38.97894 19.5248 40.64964 20.50104 42.3635 21.47726 44.11897 22.4535 45.91542 23.42975 47.75284 24.40599 49.6268 25.38223 51.53465 26.35847 53.47903 27.33472 55.45363 28.31096 57.45908 29.2872 59.49173 30.26344 61.5519 31.23969 63.63422 32.21591 65.74019 33.19215 67.86705 34.1684 70.01189 35.14464 72.17102 36.12086 74.34528 37.09712 76.53316 38.07336 78.72974 39.0496 80.93483 40.02585 83.14362 41.00208 85.35805 41.97833 87.57315 42.95456 89.78696 43.9308 92 44.90703 94.20734 45.88327 96.40813 46.85953 98.60034 47.83577 100.78252 48.812 102.94891 49.78824 105.10301 50.76448 107.23921 51.74074 109.35521 52.71695 111.45119 53.69319 113.52136 54.66943 115.56842 55.64568 117.58899 56.62192 119.57936 57.59816 121.5388 58.5744 123.46457 59.55064 125.3573 60.52689 127.21259 61.50313 129.02919 62.47937 130.8069 63.4556 132.54161 64.43184 134.2353 65.40808 135.88373 66.38432 137.48267 67.36057 139.03417 68.3368 140.53832 69.31305 141.9914 70.28929 143.39209 71.26553 144.73807 72.24178 146.0296 73.21802 147.26648 74.19424 148.44306 75.17049 149.56147 76.14673 150.62302 77.12297 151.62361 78.09921 152.56174 79.07545 153.4359 80.0517 154.24826 81.02794 154.9989 82.00418 155.68199 82.98042 156.3004 83.95667 156.85274 84.93288 157.33904 85.90913 157.7614 86.88538 158.10976 87.86162 158.39493 88.83784 158.61045 89.81409 158.76195 90.79034 158.83953 91.76659 158.85179 92.74281 158.79357 93.71906 158.67005 94.6953 158.47682 95.67154 158.21465 96.64777 157.88637 97.62401 157.49057 98.60031 157.02802 99.57646 156.4972 100.55276 155.89885 101.52892 155.24025 102.50522 154.51473 103.48152 153.72249 104.45767 152.86769 105.43396 151.95114 106.41011 150.97356 107.38641 149.93347 108.36272 148.83306 109.33887 147.67519 110.31517 146.46059 111.29132 145.18918 112.26762 143.85826 113.24393 142.47618 114.22008 141.04251 115.19638 139.55783 116.17252 138.02072 117.14882 136.43474 118.12512 134.80416 119.10127 133.12776 120.07758 131.40525 121.05373 129.64255 122.03003 127.83896 123.00632 125.99728 123.98247 124.11746 124.95879 122.20187 125.93494 120.25313 126.91122 118.27351 127.88751 116.26372 128.86367 114.22594 129.83997 112.16231 130.81612 110.07574 131.79244 107.96678 132.76873 105.83638 133.74488 103.68864 134.72118 101.52664 135.69733 99.34949 136.67365 97.16017 137.64992 94.96223 138.62607 92.75703 139.60237 90.54546 140.57852 88.33165 141.55483 86.11658 142.53113 83.90288 143.50728 81.68977 144.48358 79.48317 145.45973 77.2838 146.43604 75.09372 147.41233 72.91376 148.38848 70.74957 149.36478 68.59892 150.34093 66.46707 151.31723 64.35316 152.29354 62.26079 153.26969 60.19353 154.24599 58.15147 155.22214 56.13742 156.19844 54.15134 157.17475 52.19615 158.15088 50.27544 159.12718 48.39067 160.10334 46.5418 161.07964 44.7296 162.05594 42.95824 163.03209 41.23222 164.00839 39.54636 164.98455 37.90578 165.96085 36.31194 166.93714 34.76906 167.91329 33.27502 168.88959 31.83049 169.86574 30.43776 170.84204 29.10173 171.81833 27.81885 172.79448 26.59425 173.7708 25.42345 174.74695 24.31439 175.72325 23.26495 176.69954 22.27586 177.67569 21.34714 178.652 20.48158 179.62813 19.68 180.60445 18.94301 181.58074 18.26929 182.55689 17.66019 183.53319 17.12068 184.50934 16.64664 185.48564 16.23723 186.46195 15.89458 187.4381 15.62236 188.4144 15.41905 189.39055 15.28188 190.36684 15.2108H191.34314L192.31929 15.28047 193.2956 15.41766 194.27175 15.62015"/>
<use data-text="K" xlink:href="#font_1_69" transform="matrix(9.963098,0,0,-9.962799,106.3196,7.8219149)" fill="#0000ff"/>
<use data-text="a" xlink:href="#font_1_28" transform="matrix(9.963098,0,0,-9.962799,114.070888,7.8219149)" fill="#0000ff"/>
<use data-text="u" xlink:href="#font_1_109" transform="matrix(9.963098,0,0,-9.962799,119.05244,7.8219149)" fill="#0000ff"/>
<use data-text="a" xlink:href="#font_1_28" transform="matrix(9.963098,0,0,-9.962799,124.59191,7.8219149)" fill="#0000ff"/>
<use data-text="&#x2018;" xlink:href="#font_1_501" transform="matrix(9.963098,0,0,-9.962799,129.57346,7.8219149)" fill="#0000ff"/>
<use data-text="i" xlink:href="#font_1_66" transform="matrix(9.963098,0,0,-9.962799,132.3432,7.8219149)" fill="#0000ff"/>
<path transform="matrix(1.00005,0,0,-1.00002,23.57547,169.44216)" stroke-width=".99628" stroke-linecap="butt" stroke-miterlimit="10" stroke-linejoin="miter" fill="none" stroke="#ff0000" d="M0 157.56946 .97621 156.9242 1.95245 156.21373 2.92871 155.43872 3.90495 154.60349 4.88118 153.70877 5.85742 152.7502 6.83366 151.73427 7.80992 150.65889 8.78615 149.52902 9.76239 148.3396 10.73862 147.09497 11.71486 145.79592 12.6911 144.44596 13.66734 143.0429 14.64359 141.5875 15.61983 140.0855 16.59607 138.53553 17.57231 136.93958 18.54855 135.29851 19.5248 133.61296 20.50104 131.88878 21.47726 130.1208 22.4535 128.3155 23.42975 126.47372 24.40599 124.5982 25.38223 122.68756 26.35847 120.74539 27.33472 118.7753 28.31096 116.77637 29.2872 114.75032 30.26344 112.702 31.23969 110.63083 32.21591 108.53877 33.19215 106.42816 34.1684 104.30098 35.14464 102.16023 36.12086 100.00728 37.09712 97.84421 38.07336 95.67194 39.0496 93.49387 40.02585 91.30939 41.00208 89.12491 41.97833 86.94043 42.95456 84.75665 43.9308 82.57643 44.90703 80.40125 45.88327 78.23463 46.85953 76.07953 47.83577 73.93307 48.812 71.803 49.78824 69.68593 50.76448 67.58885 51.74074 65.50977 52.71695 63.45355 53.69319 61.42105 54.66943 59.41287 55.64568 57.43272 56.62192 55.48193 57.59816 53.56204 58.5744 51.67432 59.55064 49.82101 60.52689 48.00569 61.50313 46.22772 62.47937 44.48703 63.4556 42.7878 64.43184 41.13388 65.40808 39.52359 66.38432 37.95784 67.36057 36.43933 68.3368 34.97032 69.31305 33.55225 70.28929 32.18294 71.26553 30.86734 72.24178 29.60695 73.21802 28.40031 74.19424 27.24893 75.17049 26.15564 76.14673 25.12254 77.12297 24.14676 78.09921 23.22981 79.07545 22.37518 80.0517 21.58224 81.02794 20.85178 82.00418 20.18428 82.98042 19.58057 83.95667 19.04216 84.93288 18.56749 85.90913 18.15599 86.88538 17.81549 87.86162 17.53731 88.83784 17.32722 89.81409 17.17955 90.79034 17.10289 91.76659 17.09062 92.74281 17.14656 93.71906 17.26709 94.6953 17.45485 95.67154 17.7101 96.64777 18.02908 97.62401 18.41406 98.60031 18.86865 99.57646 19.3849 100.55276 19.9656 101.52892 20.60796 102.50522 21.31917 103.48152 22.08983 104.45767 22.92294 105.43396 23.81552 106.41011 24.7712 107.38641 25.7864 108.36272 26.85963 109.33887 27.98741 110.31517 29.17603 111.29132 30.41846 112.26762 31.71477 113.24393 33.06398 114.22008 34.46494 115.19638 35.9189 116.17252 37.41867 117.14882 38.96655 118.12512 40.56172 119.10127 42.2014 120.07758 43.88544 121.05373 45.60898 122.03003 47.37486 123.00632 49.1786 123.98247 51.01755 124.95879 52.89381 125.93494 54.8037 126.91122 56.74371 127.88751 58.71248 128.86367 60.7099 129.83997 62.73593 130.81612 64.78415 131.79244 66.85474 132.76873 68.94528 133.74488 71.05524 134.72118 73.18243 135.69733 75.32101 136.67365 77.47543 137.64992 79.63768 138.62607 81.81146 139.60237 83.98878 140.57852 86.17192 141.55483 88.3571 142.53113 90.54153 143.50728 92.7246 144.48358 94.90623 145.45973 97.07994 146.43604 99.24727 147.41233 101.40453 148.38848 103.54962 149.36478 105.68182 150.34093 107.79749 151.31723 109.89668 152.29354 111.97653 153.26969 114.03195 154.24599 116.06665 155.22214 118.07553 156.19844 120.05644 157.17475 122.00787 158.15088 123.92928 159.12718 125.8184 160.10334 127.67175 161.07964 129.48987 162.05594 131.2693 163.03209 133.01006 164.00839 134.71132 164.98455 136.36605 165.96085 137.97843 166.93714 139.54633 167.91329 141.06484 168.88959 142.53595 169.86574 143.95629 170.84204 145.32776 171.81833 146.64479 172.79448 147.90657 173.7708 149.11602 174.74695 150.26816 175.72325 151.3636 176.69954 152.3989 177.67569 153.37755 178.652 154.29738 179.62813 155.15192 180.60445 155.94705 181.58074 156.6798 182.55689 157.35076 183.53319 157.95517 184.50934 158.49715 185.48564 158.9739 186.46195 159.38758 187.4381 159.72956 188.4144 160.0099 189.39055 160.22359 190.36684 160.37337 191.34314 160.45229 192.31929 160.4652 193.2956 160.41355 194.27175 160.29524"/>
<use data-text="M" xlink:href="#font_1_74" transform="matrix(9.963098,0,0,-9.962799,102.03039,161.844)" fill="#ff0000"/>
<use data-text="a" xlink:href="#font_1_28" transform="matrix(9.963098,0,0,-9.962799,111.16656,161.844)" fill="#ff0000"/>
<use data-text="n" xlink:href="#font_1_77" transform="matrix(9.963098,0,0,-9.962799,116.148097,161.844)" fill="#ff0000"/>
<use data-text="g" xlink:href="#font_1_59" transform="matrix(9.963098,0,0,-9.962799,121.68757,161.844)" fill="#ff0000"/>
<use data-text="a" xlink:href="#font_1_28" transform="matrix(9.963098,0,0,-9.962799,126.66912,161.844)" fill="#ff0000"/>
<use data-text="i" xlink:href="#font_1_66" transform="matrix(9.963098,0,0,-9.962799,131.65067,161.844)" fill="#ff0000"/>
<use data-text="a" xlink:href="#font_1_28" transform="matrix(9.963098,0,0,-9.962799,134.42041,161.844)" fill="#ff0000"/>
<use data-text="m" xlink:href="#font_1_75" transform="matrix(9.963098,0,0,-9.962799,186.3806,165.81308)"/>
<use data-text="o" xlink:href="#font_1_81" transform="matrix(9.963098,0,0,-9.962799,194.67986,165.81308)"/>
<use data-text="n" xlink:href="#font_1_77" transform="matrix(9.963098,0,0,-9.962799,199.66139,165.81308)"/>
<use data-text="t" xlink:href="#font_1_105" transform="matrix(9.963098,0,0,-9.962799,204.92192,165.81308)"/>
<use data-text="h" xlink:href="#font_1_63" transform="matrix(9.963098,0,0,-9.962799,208.79756,165.81308)"/>
<use data-text="h" xlink:href="#font_1_63" transform="matrix(9.963098,0,0,-9.962799,27.095643,18.478135)"/>
<use data-text="o" xlink:href="#font_1_81" transform="matrix(9.963098,0,0,-9.962799,32.635118,18.478135)"/>
<use data-text="u" xlink:href="#font_1_109" transform="matrix(9.963098,0,0,-9.962799,37.616655,18.478135)"/>
<use data-text="r" xlink:href="#font_1_96" transform="matrix(9.963098,0,0,-9.962799,43.156145,18.478135)"/>
<use data-text="s" xlink:href="#font_1_98" transform="matrix(9.963098,0,0,-9.962799,47.06166,18.478135)"/>
</svg>
