<svg xmlns="http://www.w3.org/2000/svg" xmlns:xlink="http://www.w3.org/1999/xlink" xmlns:inkscape="http://www.inkscape.org/namespaces/inkscape" version="1.1" width="230" height="231" viewBox="0 0 230 231">
<defs>
<path id="font_1_113" d="M1.0089874 .6516113V.6826172C.97898867 .680603 .94799807 .6796112 .91799929 .6796112L.798996 .6826172V.6516113C.8659973 .65060427 .8860016 .6174164 .8860016 .5983734 .8860016 .59236147 .8829956 .58436587 .8809967 .57836917L.73098757 .116363529 .57099917 .606369C.56999209 .6103668 .56799319 .6164093 .56799319 .62142947 .56799319 .6516113 .6259918 .6516113 .6519928 .6516113V.6826172C.6159973 .6796112 .5479889 .6796112 .5099945 .6796112L.3880005 .6826172V.6516113C.44499208 .6516113 .46598817 .6516113 .47799684 .61595156L.5 .5459595 .36099244 .11695862 .19999695 .60894778C.19898987 .61195376 .19799805 .618927 .19799805 .62190249 .19799805 .6516113 .2559967 .6516113 .28199769 .6516113V.6826172C.24598694 .6796112 .17799378 .6796112 .13999939 .6796112L.017990113 .6826172V.6516113C.09298706 .6513672 .09700012 .6463623 .10899353 .609375L.30899049-.003479004C.31199647-.012466431 .31498719-.022460938 .32798768-.022460938 .34199525-.022460938 .34399415-.015472412 .34799195-.0024719239L.5130005 .50538638 .67900088-.003479004C.6819916-.012466431 .68499758-.022460938 .69799807-.022460938 .71199038-.022460938 .71398928-.015472412 .71798709-.0024719239L.9089966 .58496096C.9269867 .6417084 .9700012 .6516113 1.0089874 .6516113Z"/>
<path id="font_1_28" d="M.48298646 .08912659V.14511109H.45799256V.08912659C.45799256 .03112793 .43299867 .025131226 .42199708 .025131226 .3889923 .025131226 .3849945 .070129398 .3849945 .07511902V.27508546C.3849945 .31707765 .3849945 .3560791 .34899903 .39312745 .30999757 .43223573 .2599945 .4482422 .21199036 .4482422 .12998963 .4482422 .06098938 .40115357 .06098938 .335083 .06098938 .30508424 .08099365 .28808595 .10699463 .28808595 .1349945 .28808595 .15299988 .30807496 .15299988 .33407594 .15299988 .3460846 .147995 .37908937 .101989749 .38008119 .1289978 .41519166 .17799378 .426239 .20999146 .426239 .25898744 .426239 .31599427 .38710023 .31599427 .29808045V.26107789C.2649994 .25808717 .19499207 .25508119 .13198853 .22509766 .056991579 .19110108 .03199768 .13911438 .03199768 .09512329 .03199768 .014251709 .1289978-.0107421879 .19198609-.0107421879 .2579956-.0107421879 .3039856 .029251099 .32299806 .07624817 .32699586 .036132814 .35398866-.005859375 .40098573-.005859375 .42199708-.005859375 .48298646 .008132935 .48298646 .08912659M.31599427 .14013672C.31599427 .04525757 .24398804 .011245728 .19898987 .011245728 .1499939 .011245728 .10899353 .04624939 .10899353 .09625244 .10899353 .15124512 .15098572 .23425293 .31599427 .24024964V.14013672Z"/>
<path id="font_1_112" d="M.5079956 .3996582V.43066407C.4850006 .4286499 .45599366 .42765809 .43299867 .42765809L.34599305 .43066407V.3996582C.3829956 .39865113 .3939972 .37568666 .3939972 .35671998 .3939972 .34773255 .3919983 .34373475 .3880005 .3327484L.28599549 .078125 .17399597 .35671998C.16799927 .3697052 .16799927 .37368775 .16799927 .37368775 .16799927 .3996582 .20698548 .3996582 .22499085 .3996582V.43066407L.115997318 .42765809C.08898926 .42765809 .04899597 .4286499 .018997193 .43066407V.3996582C.08198547 .3996582 .085998538 .3936615 .09899902 .36271668L.24299622 .008224487C.24899292-.0057525637 .25099183-.0107421879 .2639923-.0107421879 .2769928-.0107421879 .2809906-.0017700195 .2849884 .008224487L.41600038 .3327484C.4249878 .3557129 .44198609 .39865113 .5079956 .3996582Z"/>
<path id="font_1_50" d="M.4149933 .11933899C.4149933 .12934876 .40699769 .13134766 .4019928 .13134766 .3929901 .13134766 .3909912 .12535095 .3889923 .11734009 .35398866 .014251709 .2639923 .014251709 .2539978 .014251709 .20399475 .014251709 .1639862 .044281007 .14099121 .08131409 .11099243 .12934876 .11099243 .19540406 .11099243 .23144531H.3899994C.4119873 .23144531 .4149933 .23144531 .4149933 .2524414 .4149933 .35131837 .36099244 .4482422 .23599243 .4482422 .11999512 .4482422 .027999878 .34532167 .027999878 .22042847 .027999878 .08631897 .1329956-.0107421879 .24798584-.0107421879 .36999513-.0107421879 .4149933 .10032654 .4149933 .11933899M.34899903 .2524414H.11199951C.117996219 .40126039 .20199585 .426239 .23599243 .426239 .33898927 .426239 .34899903 .2913971 .34899903 .2524414Z"/>
<path id="font_1_98" d="M.3600006 .12823487C.3600006 .18122864 .32998658 .21122742 .31799317 .22323609 .2849884 .25523377 .24598694 .26322938 .20399475 .27124024 .147995 .28224183 .08099365 .29522706 .08099365 .35324098 .08099365 .38822938 .10699463 .42922975 .19299317 .42922975 .30299378 .42922975 .30799867 .3392334 .30999757 .30822755 .31098939 .2992401 .32199098 .2992401 .32199098 .2992401 .33499146 .2992401 .33499146 .30422975 .33499146 .32322694V.4242401C.33499146 .4412384 .33499146 .4482422 .32398988 .4482422 .31900025 .4482422 .31698609 .4482422 .3039856 .43623353 .30099488 .43223573 .29100038 .42323304 .2869873 .42022706 .24899292 .4482422 .20799256 .4482422 .19299317 .4482422 .070999149 .4482422 .032989503 .38124085 .032989503 .3252411 .032989503 .29023744 .04899597 .26223756 .07598877 .24023438 .10798645 .2142334 .13598633 .2082367 .20799256 .19422913 .22999573 .19021607 .31199647 .17422486 .31199647 .10221863 .31199647 .051223756 .2769928 .011245728 .19898987 .011245728 .114990238 .011245728 .07899475 .068222049 .05999756 .1532135 .056991579 .16621399 .055999757 .17021179 .04598999 .17021179 .032989503 .17021179 .032989503 .16322327 .032989503 .1452179V.013214111C.032989503-.003753662 .032989503-.0107421879 .04399109-.0107421879 .04899597-.0107421879 .049987794-.009750366 .068984989 .009246826 .070999149 .011245728 .070999149 .013214111 .08898926 .032226564 .1329956-.009750366 .17799378-.0107421879 .19898987-.0107421879 .31399537-.0107421879 .3600006 .05621338 .3600006 .1282196V.12823487Z"/>
<path id="font_2_1" d="M.45498658 .5001831C.45498658 .56614688 .43699647 .7050781 .33499146 .7050781 .19599915 .7050781 .041992189 .42323304 .041992189 .19425965 .041992189 .100250247 .070999149-.0107421879 .1619873-.0107421879 .30299378-.0107421879 .45498658 .27627564 .45498658 .5001831M.147995 .36328126C.16499329 .42723084 .18499756 .5071869 .22499085 .57814028 .2519989 .6271057 .2889862 .68307498 .33399964 .68307498 .3829956 .68307498 .3889923 .6191101 .3889923 .56214907 .3889923 .5131836 .3809967 .46220399 .35699464 .36328126H.147995M.34799195 .3312683C.33699037 .28527833 .31599427 .2002716 .27799989 .12826538 .24299622 .060256959 .20498657 .011245728 .1619873 .011245728 .1289978 .011245728 .10798645 .040252687 .10798645 .133255 .10798645 .17526245 .11399841 .23326111 .13999939 .3312683H.34799195Z"/>
<path id="font_1_76" d="M.71598818 .6516113V.6826172L.598999 .6796112 .48199464 .6826172V.6516113C.58499148 .6516113 .58499148 .6046295 .58499148 .577652V.15092469L.23199463 .6696167C.22299195 .6816101 .22200012 .6826172 .20298767 .6826172H.032989503V.6516113H.06199646C.07699585 .6516113 .09700012 .65060427 .11199951 .6496124 .1349945 .64660647 .13598633 .6456146 .13598633 .62661746V.10494995C.13598633 .07795715 .13598633 .0309906 .032989503 .0309906V0L.1499939 .0029907227 .2669983 0V.0309906C.1639862 .0309906 .1639862 .07795715 .1639862 .10494995V.62461856C.16899109 .6196289 .16999817 .6186218 .17399597 .6126251L.58200076 .0129852299C.59098818 .0009918213 .59199526 0 .598999 0 .61299136 0 .61299136 .0069885256 .61299136 .025985718V.577652C.61299136 .6046295 .61299136 .6516113 .71598818 .6516113Z"/>
<path id="font_1_81" d="M.47099305 .21424866C.47099305 .34223939 .37098695 .4482422 .25 .4482422 .125 .4482422 .027999878 .3392334 .027999878 .21424866 .027999878 .085250858 .13198853-.0107421879 .24899292-.0107421879 .36999513-.0107421879 .47099305 .087249759 .47099305 .21424866M.3880005 .22224427C.3880005 .18624878 .3880005 .13224793 .3659973 .08824158 .34399415 .04324341 .2999878 .014251709 .25 .014251709 .20698548 .014251709 .16299439 .035247804 .13598633 .08125305 .11099243 .12524414 .11099243 .18624878 .11099243 .22224427 .11099243 .26124574 .11099243 .31523133 .1349945 .35923768 .1619873 .40522767 .20899964 .426239 .24899292 .426239 .29299928 .426239 .33599855 .40423585 .3619995 .36123658 .3880005 .3182373 .3880005 .26023866 .3880005 .22224427Z"/>
<path id="font_1_96" d="M.3639984 .38137818C.3639984 .41337586 .33299256 .4423828 .2899933 .4423828 .21699524 .4423828 .18099976 .37538148 .16699219 .3323822V.4423828L.027999878 .43066407V.3996582C.09799194 .3996582 .10598755 .39266969 .10598755 .34370423V.07595825C.10598755 .0309906 .09498596 .0309906 .027999878 .0309906V0L.14199829 .0029907227C.18199158 .0029907227 .22898865 .0029907227 .2689972 0V.0309906H.24798584C.17399597 .0309906 .17199707 .04197693 .17199707 .07795715V.23181153C.17199707 .33137513 .21398926 .42037965 .2899933 .42037965 .29699708 .42037965 .29899598 .42037965 .30099488 .41937257 .2979889 .41838075 .27799989 .40637208 .27799989 .3803711 .27799989 .35237123 .29899598 .33737184 .32099916 .33737184 .33898927 .33737184 .3639984 .3493805 .3639984 .38137818Z"/>
<path id="font_1_105" d="M.33198548 .12385559V.18066406H.30699159V.12585449C.30699159 .052108766 .2769928 .014251709 .23999024 .014251709 .17298889 .014251709 .17298889 .10491943 .17298889 .12187195V.3996582H.31599427V.43066407H.17298889V.6142578H.147995C.14698792 .5324249 .116989139 .42565919 .018997193 .42166139V.3996582H.10398865V.12408447C.10398865 .0012512207 .19699097-.0107421879 .23298645-.0107421879 .3039856-.0107421879 .33198548 .060180665 .33198548 .12408447V.12385559Z"/>
<path id="font_1_63" d="M.5349884 0V.0309906C.48298646 .0309906 .45799256 .0309906 .45700074 .061019899V.25221253C.45700074 .3383026 .45700074 .36932374 .42599488 .405365 .4119873 .42237855 .3789978 .4423828 .32099916 .4423828 .23699951 .4423828 .19299317 .38233949 .1769867 .34629823H.17599488V.69433596L.03199768 .6826172V.6516113C.101989749 .6516113 .10998535 .64463809 .10998535 .59580996V.076034549C.10998535 .0309906 .09899902 .0309906 .03199768 .0309906V0L.14498902 .0029907227 .25698854 0V.0309906C.18998719 .0309906 .1789856 .0309906 .1789856 .076034549V.2602234C.1789856 .36431886 .25 .42037965 .31399537 .42037965 .3769989 .42037965 .3880005 .36631776 .3880005 .30926515V.076034549C.3880005 .0309906 .3769989 .0309906 .30999757 .0309906V0L.4229889 .0029907227 .5349884 0Z"/>
</defs>
<path transform="matrix(1,0,0,-1.00003,114.781009,115.37902)" stroke-width=".99628" stroke-linecap="butt" stroke-miterlimit="10" stroke-linejoin="miter" fill="none" stroke="#0000ff" d="M113.38728 32.73274C112.3088 33.35538 110.52426 31.50975 109.44577 32.1324 108.66495 32.58319 108.5997 34.02434 108.5341 35.53467 108.46852 37.04498 108.40326 38.48613 107.62244 38.93692 106.84163 39.38773 105.56094 38.72363 104.22018 38.02527 102.87943 37.32689 101.59874 36.6628 100.81792 37.1136 100.0371 37.5644 99.97185 39.00554 99.90625 40.51587 99.84067 42.02618 99.7754 43.46733 98.9946 43.91812 98.21378 44.36893 96.93309 43.70483 95.59233 43.00647 94.25157 42.30809 92.97089 41.644 92.19006 42.0948 91.40924 42.54561 91.344 43.98674 91.2784 45.49707 91.21281 47.00739 91.14755 48.44853 90.36674 48.89932 89.58592 49.35013 88.30524 48.68604 86.96448 47.98767 85.62372 47.28929 84.34303 46.6252 83.56221 47.076 82.78139 47.52681 82.71614 48.96794 82.65054 50.47827 82.58496 51.98859 82.5197 53.42973 81.73889 53.88054 80.95807 54.33133 79.6774 53.66724 78.33662 52.96887 76.99586 52.2705 75.71518 51.6064 74.93436 52.0572 74.15353 52.50801 74.08829 53.94914 74.02269 55.45947 73.95712 56.96979 73.89186 58.41093 73.11104 58.86174 72.33022 59.31253 71.04955 58.64844 69.70877 57.95007 68.36801 57.2517 67.08733 56.58762 66.3065 57.0384 65.52568 57.48921 65.46043 58.93034 65.39485 60.44067 65.32927 61.95099 65.264 63.39214 64.48318 63.84294 63.70236 64.29373 62.42169 63.62964 61.08092 62.93127 59.74016 62.2329 58.45947 61.56882 57.67865 62.0196 56.89784 62.47041 56.8326 63.91154 56.767 65.42188 56.70142 66.93219 56.63615 68.37334 55.85533 68.82414 55.07451 69.27493 53.79384 68.61084 52.45306 67.91248 51.1123 67.2141 49.83162 66.55002 49.0508 67.00081 48.26999 67.45161 48.20474 68.89275 48.13914 70.40308 48.07356 71.91339 48.0083 73.35454 47.22748 73.80534 46.44666 74.25613 45.16599 73.59204 43.82521 72.89368 42.48447 72.1953 41.20377 71.53122 40.42294 71.98201 39.64214 72.43282 39.57689 73.87395 39.51129 75.38428 39.44571 76.89459 39.38045 78.33574 38.59962 78.78654 37.8188 79.23734 36.53813 78.57324 35.19736 77.87488 33.85661 77.1765 32.57591 76.51242 31.7951 76.96321 31.01428 77.41402 30.94904 78.85515 30.88344 80.36548 30.81786 81.8758 30.7526 83.31694 29.97177 83.76775 29.19095 84.21854 27.91028 83.55444 26.5695 82.85608 25.22876 82.1577 23.94806 81.49362 23.16725 81.94441 22.38643 82.39522 22.32118 83.83635 22.25558 85.34668 22.19 86.857 22.12474 88.29814 21.34392 88.74895 20.5631 89.19974 19.28242 88.53564 17.94165 87.83728 16.6009 87.1389 15.3202 86.47482 14.5394 86.92561 13.75858 87.37642 13.69333 88.81755 13.62773 90.32788 13.56215 91.8382 13.49689 93.27934 12.71606 93.73015 11.93524 94.18094 10.65457 93.51685 9.3138 92.81848 7.97305 92.1201 6.69235 91.45602 5.91154 91.90681 5.13072 92.35762 5.06548 93.79875 4.99988 95.30908 4.9343 96.8194 4.86903 98.26054 4.08821 98.71135 3.30739 99.16216 2.02672 98.49805 .68596 97.79968-.65479 97.1013-1.93547 96.43723-2.7163 96.88802-3.49712 97.33882-3.56236 98.77995-3.62796 100.29028-3.69354 101.8006-3.7588 103.24174-4.53963 103.69255-5.32043 104.14336-6.60112 103.47925-7.94188 102.78088-9.28264 102.0825-10.56332 101.41843-11.34415 101.86923-12.12497 102.32002-12.19022 103.76115-12.25581 105.27148-12.3214 106.7818-12.38666 108.22295-13.16748 108.67375-13.94829 109.12456-15.22897 108.46045-16.56973 107.76208-17.91049 107.0637-19.19118 106.39963-19.972 106.85043-20.75282 107.30122-20.81807 108.74236-20.88367 110.25269-20.94925 111.763-21.01451 113.20415-21.79533 113.65495-22.87427 114.27806-24.65881 112.43243-25.7373 113.05508L-26.3121 113.38724"/>
<use data-text="W" xlink:href="#font_1_113" transform="matrix(8.627711,4.9812505,4.9811007,-8.62797,149.44834,30.232834)"/>
<use data-text="a" xlink:href="#font_1_28" transform="matrix(8.627711,4.9812505,4.9811007,-8.62797,157.6015,34.94011)"/>
<use data-text="v" xlink:href="#font_1_112" transform="matrix(8.627711,4.9812505,4.9811007,-8.62797,161.6738,37.291276)"/>
<use data-text="e" xlink:href="#font_1_50" transform="matrix(8.627711,4.9812505,4.9811007,-8.62797,165.98764,39.781908)"/>
<use data-text="s" xlink:href="#font_1_98" transform="matrix(8.627711,4.9812505,4.9811007,-8.62797,169.81836,41.993577)"/>
<path transform="matrix(1,0,0,-1.00003,114.781009,115.37902)" stroke-width=".99628" stroke-linecap="butt" stroke-miterlimit="10" stroke-linejoin="miter" fill="none" stroke="#0000ff" d="M113.38728-65.46378C112.3088-64.84113 110.52426-66.68675 109.44577-66.06412 108.66495-65.61331 108.5997-64.17218 108.5341-62.66185 108.46852-61.15154 108.40326-59.71039 107.62244-59.25958 106.84163-58.80879 105.56094-59.47289 104.22018-60.17125 102.87943-60.86963 101.59874-61.5337 100.81792-61.08292 100.0371-60.63211 99.97185-59.19098 99.90625-57.68065 99.84067-56.17033 99.7754-54.72919 98.9946-54.27838 98.21378-53.82758 96.93309-54.49168 95.59233-55.19005 94.25157-55.88843 92.97089-56.5525 92.19006-56.10172 91.40924-55.65091 91.344-54.20978 91.2784-52.69945 91.21281-51.18913 91.14755-49.74799 90.36674-49.29718 89.58592-48.84637 88.30524-49.51048 86.96448-50.20885 85.62372-50.90723 84.34303-51.5713 83.56221-51.1205 82.78139-50.66971 82.71614-49.22858 82.65054-47.71825 82.58496-46.20793 82.5197-44.76678 81.73889-44.31598 80.95807-43.86517 79.6774-44.52928 78.33662-45.22765 76.99586-45.92603 75.71518-46.5901 74.93436-46.1393 74.15353-45.6885 74.08829-44.24738 74.02269-42.73705 73.95712-41.22673 73.89186-39.78558 73.11104-39.33478 72.33022-38.88397 71.04955-39.54808 69.70877-40.24644 68.36801-40.94482 67.08733-41.6089 66.3065-41.1581 65.52568-40.7073 65.46043-39.26617 65.39485-37.75584 65.32927-36.24553 65.264-34.80437 64.48318-34.35358 63.70236-33.90277 62.42169-34.56688 61.08092-35.26524 59.74016-35.96362 58.45947-36.6277 57.67865-36.1769 56.89784-35.7261 56.8326-34.28497 56.767-32.77464 56.70142-31.26431 56.63615-29.82317 55.85533-29.37238 55.07451-28.92157 53.79384-29.58568 52.45306-30.28404 51.1123-30.98242 49.83162-31.6465 49.0508-31.1957 48.26999-30.7449 48.20474-29.30377 48.13914-27.79344 48.07356-26.28311 48.0083-24.84196 47.22748-24.39117 46.44666-23.94037 45.16599-24.60448 43.82521-25.30284 42.48447-26.0012 41.20377-26.6653 40.42294-26.2145 39.64214-25.7637 39.57689-24.32257 39.51129-22.81224 39.44571-21.30191 39.38045-19.86076 38.59962-19.40997 37.8188-18.95917 36.53813-19.62328 35.19736-20.32162 33.85661-21.02 32.57591-21.6841 31.7951-21.23329 31.01428-20.7825 30.94904-19.34137 30.88344-17.83102 30.81786-16.32071 30.7526-14.87956 29.97177-14.42877 29.19095-13.97797 27.91028-14.64206 26.5695-15.34042 25.22876-16.0388 23.94806-16.7029 23.16725-16.25209 22.38643-15.8013 22.32118-14.36017 22.25558-12.84982 22.19-11.33951 22.12474-9.89836 21.34392-9.44757 20.5631-8.99677 19.28242-9.66086 17.94165-10.35922 16.6009-11.0576 15.3202-11.7217 14.5394-11.27089 13.75858-10.8201 13.69333-9.37895 13.62773-7.86862 13.56215-6.3583 13.49689-4.91716 12.71606-4.46637 11.93524-4.01556 10.65457-4.67966 9.3138-5.37802 7.97305-6.0764 6.69235-6.7405 5.91154-6.28969 5.13072-5.83888 5.06548-4.39775 4.99988-2.88742 4.9343-1.3771 4.86903 .06403 4.08821 .51482 3.30739 .96562 2.02672 .30153 .68596-.39682-.65479-1.0952-1.93547-1.7593-2.7163-1.30849-3.49712-.85768-3.56236 .58344-3.62796 2.09377-3.69354 3.60408-3.7588 5.04523-4.53963 5.49602-5.32043 5.94682-6.60112 5.28273-7.94188 4.58437-9.28264 3.88599-10.56332 3.2219-11.34415 3.6727-12.12497 4.1235-12.19022 5.56464-12.25581 7.07497-12.3214 8.58528-12.38666 10.02643-13.16748 10.47723-13.94829 10.92802-15.22897 10.26393-16.56973 9.56557-17.91049 8.86719-19.19118 8.2031-19.972 8.6539-20.75282 9.1047-20.81807 10.54584-20.88367 12.05617-20.94925 13.56648-21.01451 15.00763-21.79533 15.45844-22.57614 15.90923-23.85683 15.24513-25.19759 14.54677-26.53835 13.84839-27.81903 13.18431-28.59985 13.6351-29.38068 14.0859-29.44592 15.52704-29.51152 17.03737-29.5771 18.54768-29.64236 19.98883-30.42319 20.43964-31.204 20.89043-32.48468 20.22633-33.82544 19.52797-35.1662 18.82959-36.44688 18.16551-37.2277 18.6163-38.00853 19.06711-38.07378 20.50824-38.13937 22.01857-38.20496 23.52888-38.27022 24.97003-39.05103 25.42084-39.83185 25.87163-41.11253 25.20753-42.4533 24.50917-43.79405 23.81079-45.07474 23.14671-45.85556 23.5975-46.63638 24.04831-46.70163 25.48944-46.76723 26.99977-46.83281 28.51009-46.89807 29.95123-47.67888 30.40204-48.4597 30.85283-49.74037 30.18874-51.08115 29.49037-52.4219 28.79199-53.70259 28.12791-54.48341 28.5787-55.26424 29.02951-55.32948 30.47064-55.39508 31.98097-55.46066 33.49129-55.52592 34.93243-56.30673 35.38324-57.08755 35.83403-58.36823 35.16994-59.709 34.47157-61.04976 33.7732-62.33044 33.10912-63.11127 33.5599-63.89209 34.01071-63.95734 35.45184-64.02293 36.96217-64.0885 38.47249-64.15376 39.91364-64.93459 40.36444-65.71541 40.81523-66.99608 40.15114-68.33685 39.45277-69.67761 38.7544-70.9583 38.09032-71.73912 38.5411-72.51994 38.99191-72.58519 40.43304-72.65077 41.94337-72.71635 43.45369-72.78162 44.89484-73.56244 45.34564-74.34326 45.79643-75.62393 45.13234-76.9647 44.43398-78.30547 43.7356-79.58615 43.07152-80.36697 43.52231-81.14778 43.97311-81.21303 45.41425-81.27863 46.92458-81.34421 48.43489-81.40947 49.87604-82.19029 50.32684-82.97112 50.77763-84.25179 50.11354-85.59256 49.41518-86.93332 48.7168-88.214 48.05272-88.99483 48.50351-89.77563 48.95432-89.84088 50.39545-89.90648 51.90578-89.97206 53.41609-90.03732 54.85724-90.81815 55.30804-91.59897 55.75883-92.87964 55.09474-94.22041 54.39638-95.56116 53.698-96.84186 53.03392-97.62268 53.48471-98.40349 53.93552-98.46873 55.37665-98.53433 56.88698-98.59991 58.3973-98.66518 59.83844-99.446 60.28925-100.22682 60.74005-101.50749 60.07594-102.84827 59.37758-104.18901 58.6792-105.46971 58.01512-106.25052 58.46593-107.03134 58.91672-107.09659 60.35785-107.16219 61.86818-107.22777 63.3785-107.29303 64.81964-108.07385 65.27045-109.1531 65.89386-110.93765 64.04823-112.01613 64.67088L-113.38724 65.46373"/>
<path transform="matrix(1,0,0,-1.00003,114.781009,115.37902)" stroke-width=".99628" stroke-linecap="butt" stroke-miterlimit="10" stroke-linejoin="miter" fill="none" stroke="#0000ff" d="M26.31213-113.38728C25.23366-112.76463 23.44913-114.61026 22.37064-113.98763 21.58981-113.53682 21.52457-112.09569 21.45897-110.58536 21.39339-109.07504 21.32813-107.6339 20.5473-107.18309 19.76648-106.73228 18.48581-107.3964 17.14503-108.09476 15.80429-108.79314 14.52359-109.45721 13.74278-109.00642 12.96196-108.55562 12.89671-107.11449 12.83112-105.60416 12.76553-104.09384 12.70027-102.6527 11.91945-102.20189 11.13864-101.75108 9.85796-102.41519 8.5172-103.11356 7.17644-103.81194 5.89575-104.47601 5.11493-104.0252 4.3341-103.57442 4.26886-102.13329 4.20326-100.62296 4.13768-99.11264 4.07242-97.6715 3.2916-97.22069 2.51079-96.76988 1.2301-97.43399-.11064-98.13235-1.4514-98.83073-2.73209-99.49481-3.51291-99.044-4.29373-98.59322-4.35898-97.15208-4.42458-95.64175-4.49016-94.13144-4.55542-92.69029-5.33624-92.23949-6.11705-91.78868-7.39774-92.45279-8.7385-93.15115-10.07925-93.84953-11.35994-94.51361-12.14076-94.0628-12.92159-93.61201-12.98683-92.17088-13.05243-90.66055-13.11801-89.15024-13.18327-87.70909-13.9641-87.25829-14.7449-86.80748-16.02559-87.47159-17.36635-88.16995-18.7071-88.86833-19.9878-89.53241-20.76862-89.0816-21.54944-88.63081-21.61469-87.18968-21.68028-85.67935-21.74586-84.16904-21.81113-82.72787-22.59193-82.27708-23.37276-81.82628-24.65344-82.49039-25.9942-83.18875-27.33496-83.88713-28.61565-84.55121-29.39647-84.1004-30.17729-83.64961-30.24254-82.20848-30.30814-80.69815-30.37372-79.18782-30.43898-77.74667-31.21979-77.29588-32.00061-76.84508-33.2813-77.50919-34.62206-78.20755-35.96281-78.90593-37.2435-79.57-38.02432-79.1192-38.80515-78.66841-38.87039-77.22728-38.93599-75.71695-39.00157-74.20662-39.06683-72.76547-39.84764-72.31468-40.62846-71.86388-41.90913-72.52798-43.24991-73.22635-44.59067-73.92471-45.87135-74.5888-46.65218-74.138-47.433-73.68721-47.49825-72.24608-47.56384-70.73573-47.62941-69.22542-47.69469-67.78427-48.4755-67.33348-49.25632-66.88268-50.53699-67.54677-51.87776-68.24513-53.21852-68.94351-54.4992-69.6076-55.28003-69.1568-56.06085-68.70601-56.1261-67.26488-56.19168-65.75453-56.25726-64.24422-56.32253-62.80307-57.10335-62.35228-57.88417-61.90147-59.16484-62.56557-60.50562-63.26393-61.84637-63.96231-63.12706-64.6264-63.90788-64.1756-64.68869-63.72481-64.75394-62.28366-64.81953-60.77333-64.88512-59.26302-64.95038-57.82187-65.7312-57.37108-66.51202-56.92027-67.7927-57.58437-69.13347-58.28273-70.47423-58.98111-71.75491-59.6452-72.53574-59.1944-73.31654-58.74359-73.38179-57.30246-73.44739-55.79213-73.51297-54.28181-73.57823-52.84067-74.35905-52.38988-75.13988-51.93907-76.42055-52.60316-77.76132-53.30153-79.10207-53.99991-80.38277-54.664-81.16359-54.2132-81.9444-53.76239-82.00964-52.32126-82.07524-50.81093-82.14082-49.30061-82.20609-47.85947-82.98691-47.40868-83.76773-46.95787-85.0484-47.62196-86.38918-48.32033-87.72992-49.0187-89.01062-49.6828-89.79144-49.232-90.57225-48.78119-90.6375-47.34006-90.7031-45.82973-90.76868-44.31941-90.83394-42.87827-91.61476-42.42747-92.39558-41.97667-93.67625-42.64076-95.01703-43.33913-96.35777-44.0375-97.63847-44.7016-98.41928-44.2508-99.2001-43.79999-99.26535-42.35886-99.33095-40.84853-99.39653-39.33821-99.46179-37.89706-100.24261-37.44626-101.02344-36.99547-102.30411-37.65956-103.64488-38.35793-104.98563-39.0563-106.26633-39.7204-107.04713-39.26959-107.82796-38.81879-107.8932-37.37766-107.9588-35.86732-108.02438-34.35701-108.08965-32.91586-108.87047-32.46506-109.94942-31.84195-111.73396-33.68758-112.81244-33.06494L-113.38727-32.73277"/>
<path transform="matrix(1,0,0,-1.00003,114.781009,115.37902)" stroke-width=".3985" stroke-linecap="butt" stroke-miterlimit="10" stroke-linejoin="miter" fill="none" stroke="#000000" d="M-63.82704-19.84311C-60.84239-19.84311-57.90808-20.62944-55.32335-22.12163"/>
<use data-text="&#x03b8;" xlink:href="#font_2_1" transform="matrix(9.9626,0,0,-9.962899,61.864015,144.24289)"/>
<path transform="matrix(1,0,0,-1.00003,114.781009,115.37902)" stroke-width="1.99255" stroke-linecap="butt" stroke-miterlimit="10" stroke-linejoin="miter" fill="none" stroke="#000000" d="M-63.82704-36.8505V1.13123"/>
<path transform="matrix(0,-1.00003,-1,-0,50.953966,114.24776)" d="M4.38364 0-2.63017 3.50691 0 0-2.63017-3.50691"/>
<use data-text="N" xlink:href="#font_1_76" transform="matrix(0,-9.962899,-9.9626,-0,44.535005,142.43984)"/>
<use data-text="o" xlink:href="#font_1_81" transform="matrix(0,-9.962899,-9.9626,-0,44.535005,134.96765)"/>
<use data-text="r" xlink:href="#font_1_96" transform="matrix(0,-9.962899,-9.9626,-0,44.535005,129.9862)"/>
<use data-text="t" xlink:href="#font_1_105" transform="matrix(0,-9.962899,-9.9626,-0,44.535005,126.08075)"/>
<use data-text="h" xlink:href="#font_1_63" transform="matrix(0,-9.962899,-9.9626,-0,44.535005,122.205188)"/>
<path transform="matrix(1,0,0,-1.00003,114.781009,115.37902)" stroke-width="1.99255" stroke-linecap="butt" stroke-miterlimit="10" stroke-linejoin="miter" fill="none" stroke="#000000" d="M-63.82704-36.8505-44.83606-3.95723"/>
<path transform="matrix(.49998,-.866036,-.86601,-.49999503,69.94495,119.33637)" d="M4.38364 0-2.63017 3.50691 0 0-2.63017-3.50691"/>
<path transform="matrix(1,0,0,-1.00003,114.781009,115.37902)" stroke-width="1.99255" stroke-linecap="butt" stroke-miterlimit="10" stroke-linejoin="miter" fill="none" stroke="#0000ff" d="M-85.04045 49.09827-74.55318 67.26274"/>
<path transform="matrix(.49998,-.866036,-.86601,-.49999503,40.22783,48.114259)" d="M4.38364 0-2.63017 3.50691 0 0-2.63017-3.50691" fill="#0000ff"/>
<path transform="matrix(1,0,0,-1.00003,114.781009,115.37902)" stroke-width="1.99255" stroke-linecap="butt" stroke-miterlimit="10" stroke-linejoin="miter" fill="none" stroke="#0000ff" d="M-42.52022 24.54912-32.03293 42.7136"/>
<path transform="matrix(.49998,-.866036,-.86601,-.49999503,82.74808,72.66414)" d="M4.38364 0-2.63017 3.50691 0 0-2.63017-3.50691" fill="#0000ff"/>
<path transform="matrix(1,0,0,-1.00003,114.781009,115.37902)" stroke-width="1.99255" stroke-linecap="butt" stroke-miterlimit="10" stroke-linejoin="miter" fill="none" stroke="#0000ff" d="M42.52022-24.54912 53.00749-6.38464"/>
<path transform="matrix(.49998,-.866036,-.86601,-.49999503,167.7885,121.763858)" d="M4.38364 0-2.63017 3.50691 0 0-2.63017-3.50691" fill="#0000ff"/>
<path transform="matrix(1,0,0,-1.00003,114.781009,115.37902)" stroke-width="1.99255" stroke-linecap="butt" stroke-miterlimit="10" stroke-linejoin="miter" fill="none" stroke="#0000ff" d="M85.04045-49.09827 95.52774-30.93378"/>
<path transform="matrix(.49998,-.866036,-.86601,-.49999503,210.30875,146.31374)" d="M4.38364 0-2.63017 3.50691 0 0-2.63017-3.50691" fill="#0000ff"/>
<path transform="matrix(1,0,0,-1.00003,114.781009,115.37902)" stroke-width=".3985" stroke-linecap="butt" stroke-miterlimit="10" stroke-linejoin="miter" fill="none" stroke="#000000" d="M0-10.20442"/>
<path transform="matrix(1,0,0,-1.00003,114.781009,115.37902)" d="M-21.08882 44.21924-15.64577 71.43108-10.20442 44.21924V30.61331H-21.08882Z" fill="#993300" fill-opacity=".1"/>
<path transform="matrix(1,0,0,-1.00003,114.781009,115.37902)" d="M21.08882 44.21924 15.64577 71.43108 10.20442 44.21924V30.61331H21.08882Z" fill="#993300" fill-opacity=".1"/>
<path transform="matrix(1,0,0,-1.00003,114.781009,115.37902)" d="M-21.08882-64.6281-15.64577-91.83995-10.20442-64.6281Z" fill="#993300" fill-opacity=".1"/>
<path transform="matrix(1,0,0,-1.00003,114.781009,115.37902)" d="M21.08882-64.6281 15.64577-91.83995 10.20442-64.6281Z" fill="#993300" fill-opacity=".1"/>
<path transform="matrix(1,0,0,-1.00003,114.781009,115.37902)" d="M-21.08882-64.6281H21.08882V30.61331H-21.08882Z" fill="#993300" fill-opacity=".04"/>
<path transform="matrix(1,0,0,-1.00003,114.781009,115.37902)" d="M9.52274-3.40147V-34.01479H-9.52274 9.52274Z" fill="#993300" fill-opacity=".1"/>
<path transform="matrix(1,0,0,-1.00003,114.781009,115.37902)" stroke-width=".3985" stroke-linecap="butt" stroke-miterlimit="10" stroke-linejoin="miter" fill="none" stroke="#993300" d="M-15.64577 71.43108-21.08882 44.21924"/>
<path transform="matrix(1,0,0,-1.00003,114.781009,115.37902)" stroke-width=".3985" stroke-linecap="butt" stroke-miterlimit="10" stroke-linejoin="miter" fill="none" stroke="#993300" d="M-21.08882 44.21924V-64.6281"/>
<path transform="matrix(1,0,0,-1.00003,114.781009,115.37902)" stroke-width=".3985" stroke-linecap="butt" stroke-miterlimit="10" stroke-linejoin="miter" fill="none" stroke="#993300" d="M-21.08882-64.6281-15.64577-91.83995"/>
<path transform="matrix(1,0,0,-1.00003,114.781009,115.37902)" stroke-width=".3985" stroke-linecap="butt" stroke-miterlimit="10" stroke-linejoin="miter" fill="none" stroke="#993300" d="M-15.64577-91.83995-10.20442-64.6281"/>
<path transform="matrix(1,0,0,-1.00003,114.781009,115.37902)" stroke-width=".3985" stroke-linecap="butt" stroke-miterlimit="10" stroke-linejoin="miter" fill="none" stroke="#993300" d="M-10.20442 30.61331V44.21924"/>
<path transform="matrix(1,0,0,-1.00003,114.781009,115.37902)" stroke-width=".3985" stroke-linecap="butt" stroke-miterlimit="10" stroke-linejoin="miter" fill="none" stroke="#993300" d="M-10.20442 44.21924-15.64577 71.43108"/>
<path transform="matrix(1,0,0,-1.00003,114.781009,115.37902)" stroke-width=".3985" stroke-linecap="butt" stroke-miterlimit="10" stroke-linejoin="miter" fill="none" stroke="#993300" d="M15.64577 71.43108 21.08882 44.21924"/>
<path transform="matrix(1,0,0,-1.00003,114.781009,115.37902)" stroke-width=".3985" stroke-linecap="butt" stroke-miterlimit="10" stroke-linejoin="miter" fill="none" stroke="#993300" d="M21.08882 44.21924V-64.6281"/>
<path transform="matrix(1,0,0,-1.00003,114.781009,115.37902)" stroke-width=".3985" stroke-linecap="butt" stroke-miterlimit="10" stroke-linejoin="miter" fill="none" stroke="#993300" d="M21.08882-64.6281 15.64577-91.83995"/>
<path transform="matrix(1,0,0,-1.00003,114.781009,115.37902)" stroke-width=".3985" stroke-linecap="butt" stroke-miterlimit="10" stroke-linejoin="miter" fill="none" stroke="#993300" d="M15.64577-91.83995 10.20442-64.6281"/>
<path transform="matrix(1,0,0,-1.00003,114.781009,115.37902)" stroke-width=".3985" stroke-linecap="butt" stroke-miterlimit="10" stroke-linejoin="miter" fill="none" stroke="#993300" d="M10.20442 30.61331V44.21924"/>
<path transform="matrix(1,0,0,-1.00003,114.781009,115.37902)" stroke-width=".3985" stroke-linecap="butt" stroke-miterlimit="10" stroke-linejoin="miter" fill="none" stroke="#993300" d="M10.20442 44.21924 15.64577 71.43108"/>
<path transform="matrix(1,0,0,-1.00003,114.781009,115.37902)" stroke-width=".3985" stroke-linecap="butt" stroke-miterlimit="10" stroke-linejoin="miter" fill="none" stroke="#993300" d="M-21.08882-64.6281H21.08882"/>
<path transform="matrix(1,0,0,-1.00003,114.781009,115.37902)" stroke-width=".3985" stroke-linecap="butt" stroke-miterlimit="10" stroke-linejoin="miter" fill="none" stroke="#993300" d="M21.08882 30.61331H-21.08882"/>
<path transform="matrix(1,0,0,-1.00003,114.781009,115.37902)" stroke-width=".3985" stroke-linecap="butt" stroke-miterlimit="10" stroke-linejoin="miter" fill="none" stroke="#993300" d="M-3.40146 30.61331H3.40146"/>
<path transform="matrix(1,0,0,-1.00003,114.781009,115.37902)" stroke-width=".3985" stroke-linecap="butt" stroke-miterlimit="10" stroke-linejoin="miter" fill="none" stroke="#993300" d="M9.52274-3.40147V-34.01479"/>
<path transform="matrix(1,0,0,-1.00003,114.781009,115.37902)" stroke-width=".3985" stroke-linecap="butt" stroke-miterlimit="10" stroke-linejoin="miter" fill="none" stroke="#993300" d="M-9.52274-34.01479H9.52274"/>
<path transform="matrix(1,0,0,-1.00003,114.781009,115.37902)" stroke-width=".3985" stroke-linecap="butt" stroke-miterlimit="10" stroke-linejoin="miter" fill="none" stroke="#993300" d="M-9.52274-3.40147V-34.01479"/>
<path transform="matrix(1,0,0,-1.00003,114.781009,115.37902)" stroke-width=".3985" stroke-linecap="butt" stroke-miterlimit="10" stroke-linejoin="miter" fill="none" stroke="#993300" d="M-9.52274-3.40147H9.52274"/>
<path transform="matrix(1,0,0,-1.00003,114.781009,115.37902)" stroke-width=".3985" stroke-linecap="butt" stroke-miterlimit="10" stroke-linejoin="miter" fill="none" stroke="#993300" d="M-10.20442 44.21924H10.20442"/>
<path transform="matrix(1,0,0,-1.00003,114.781009,115.37902)" stroke-width=".3985" stroke-linecap="butt" stroke-miterlimit="10" stroke-linejoin="miter" fill="none" stroke="#993300" d="M2.35645 3.40146C2.35645 4.70291 1.30144 5.75792 0 5.75792-1.30144 5.75792-2.35645 4.70291-2.35645 3.40146-2.35645 2.10002-1.30144 1.04501 0 1.04501 1.30144 1.04501 2.35645 2.10002 2.35645 3.40146ZM0 3.40146"/>
</svg>
