<svg xmlns="http://www.w3.org/2000/svg" xmlns:xlink="http://www.w3.org/1999/xlink" xmlns:inkscape="http://www.inkscape.org/namespaces/inkscape" version="1.1" width="246" height="205" viewBox="0 0 246 205">
<defs>
<path id="font_1_1" d="M.6589966 .23046875C.6759949 .23046875 .69400027 .23046875 .69400027 .25045777 .69400027 .27046205 .6759949 .27046205 .6589966 .27046205H.117996219C.100997928 .27046205 .08299255 .27046205 .08299255 .25045777 .08299255 .23046875 .100997928 .23046875 .117996219 .23046875H.6589966Z"/>
<path id="font_2_2" d="M.2939911 .64004519C.2939911 .66400149 .2939911 .6660156 .2709961 .6660156 .20899964 .60227969 .12098694 .60227969 .08898926 .60227969V.57128909C.10899353 .57128909 .16799927 .57128909 .21998596 .5972748V.07902527C.21998596 .042999269 .21699524 .0309906 .1269989 .0309906H.09498596V0C.12998963 .0029907227 .21699524 .0029907227 .25698854 .0029907227 .29699708 .0029907227 .38398744 .0029907227 .4189911 0V.0309906H.3869934C.29699708 .0309906 .2939911 .041992189 .2939911 .07902527V.64004519Z"/>
<path id="font_2_1" d="M.45999146 .31976319C.45999146 .39982606 .45498658 .47988893 .41999818 .5539398 .37399293 .65000918 .2919922 .6660156 .25 .6660156 .18998719 .6660156 .116989139 .64001467 .07598877 .54693606 .04399109 .47789 .038986207 .39982606 .038986207 .31976319 .038986207 .24472046 .042999269 .15464783 .083999637 .07859802 .1269989-.0024719239 .19999695-.022460938 .24899292-.022460938 .30299378-.022460938 .3789978-.0014648438 .4229889 .09359741 .45498658 .16265869 .45999146 .2407074 .45999146 .31976319M.24899292-.00047302247C.20999146-.00047302247 .15098572 .024551392 .1329956 .12062073 .12199402 .18066406 .12199402 .2727356 .12199402 .3317871 .12199402 .39582826 .12199402 .46188355 .12998963 .5159149 .14898682 .63500979 .22399903 .64401248 .24899292 .64401248 .28199769 .64401248 .34799195 .6259918 .36698915 .52693179 .3769989 .47088624 .3769989 .39482118 .3769989 .3317871 .3769989 .25672914 .3769989 .18867493 .3659973 .12461853 .35099793 .029556275 .2939911-.00047302247 .24899292-.00047302247Z"/>
<path id="font_3_2" d="M.19198609 .052993776C.19198609 .08198547 .16799927 .10598755 .13899231 .10598755 .10998535 .10598755 .085998538 .08198547 .085998538 .052993776 .085998538 .023986817 .10998535 0 .13899231 0 .16799927 0 .19198609 .023986817 .19198609 .052993776Z"/>
<path id="font_2_6" d="M.44898988 .20022583C.44898988 .3193512 .36698915 .41944886 .25898744 .41944886 .21099854 .41944886 .16799927 .40345765 .13198853 .36842347V.5637665C.1519928 .5577698 .18499756 .55078127 .21699524 .55078127 .33999635 .55078127 .4099884 .6417694 .4099884 .6547699 .4099884 .6607666 .40699769 .6657715 .3999939 .6657715 .39898683 .6657715 .39698792 .6657715 .3919983 .66278079 .37199403 .6537781 .32299806 .6337738 .2559967 .6337738 .21598816 .6337738 .16999817 .6407776 .12298584 .6617737 .114990238 .66477969 .11299133 .66477969 .11099243 .66477969 .100997928 .66477969 .100997928 .6567688 .100997928 .6407776V.34439088C.100997928 .32637025 .100997928 .31835938 .114990238 .31835938 .12199402 .31835938 .12399292 .32136537 .12799073 .32736207 .13899231 .3433838 .17599488 .39746095 .25698854 .39746095 .30899049 .39746095 .33399964 .35139466 .34199525 .33337403 .35798646 .29632569 .3600006 .25727845 .3600006 .20722962 .3600006 .17222595 .3600006 .11222839 .33599855 .07035828 .31199647 .031463624 .2749939 .0055389406 .22898865 .0055389406 .1559906 .0055389406 .09899902 .058380128 .08198547 .11723328 .084991458 .1162262 .08799744 .115234378 .09899902 .115234378 .13198853 .115234378 .14898682 .14022827 .14898682 .16423035 .14898682 .18823242 .13198853 .21322632 .09899902 .21322632 .084991458 .21322632 .049987794 .20622254 .049987794 .16023255 .049987794 .07434082 .11898804-.022460938 .23098755-.022460938 .34700013-.022460938 .44898988 .073349 .44898988 .20022583Z"/>
<path id="font_3_1" d="M.2649994 .37265016H.37799073C.34498597 .22489929 .33599855 .18196106 .33599855 .11508179 .33599855 .100097659 .33599855 .073150638 .34399415 .03919983 .35398866-.0047454836 .36499024-.0107421879 .37998963-.0107421879 .3999939-.0107421879 .42099 .007247925 .42099 .02722168 .42099 .033218385 .42099 .035202028 .4149933 .049179079 .38598634 .12106323 .38598634 .18595886 .38598634 .21391297 .38598634 .26683045 .3929901 .32073976 .4039917 .37265016H.5179901C.5309906 .37265016 .5669861 .37265016 .5669861 .406662 .5669861 .43066407 .54599 .43066407 .5269928 .43066407H.19198609C.16999817 .43066407 .13198853 .43066407 .08799744 .38365174 .052993776 .34469605 .026992798 .29878236 .026992798 .29379273 .026992798 .29278565 .026992798 .28379823 .038986207 .28379823 .04699707 .28379823 .04899597 .28779603 .054992677 .29577638 .10398865 .37265016 .1619873 .37265016 .18199158 .37265016H.23899842C.20698548 .25186158 .15299988 .13105774 .11099243 .04020691 .102996829 .025222779 .102996829 .023223877 .102996829 .016235352 .102996829-.002746582 .11898804-.0107421879 .13198853-.0107421879 .1619873-.0107421879 .16999817 .017242432 .18199158 .05418396 .19599915 .100097659 .19599915 .10209656 .20899964 .15202332L.2649994 .37265016Z"/>
<path id="font_2_3" d="M.1269989 .07699585 .23298645 .18003845C.3889923 .31811524 .44898988 .3721466 .44898988 .47216798 .44898988 .5860901 .35899354 .6660156 .23699951 .6660156 .12399292 .6660156 .049987794 .57411196 .049987794 .48516847 .049987794 .4291687 .099990848 .4291687 .102996829 .4291687 .11999512 .4291687 .15499878 .44117738 .15499878 .48217774 .15499878 .5081787 .13699341 .5341797 .101989749 .5341797 .09399414 .5341797 .09199524 .5341797 .08898926 .5331726 .11199951 .59806826 .1659851 .63500979 .22399903 .63500979 .31498719 .63500979 .35798646 .5541382 .35798646 .47216798 .35798646 .39215089 .30799867 .31311036 .25299073 .25108338L.06098938 .036987306C.049987794 .025985718 .049987794 .023986817 .049987794 0H.42099L.44898988 .17404175H.42399598C.4189911 .14402771 .4119873 .1000061 .4019928 .084991458 .394989 .07699585 .32899476 .07699585 .30699159 .07699585H.1269989Z"/>
<path id="font_2_4" d="M.2899933 .35191346C.37199403 .37893678 .42999269 .4490509 .42999269 .52809146 .42999269 .6100464 .34199525 .6660156 .24598694 .6660156 .14498902 .6660156 .068984989 .60606387 .068984989 .53009036 .068984989 .49710084 .09098816 .47808839 .11999512 .47808839 .15098572 .47808839 .17098999 .50009158 .17098999 .5290985 .17098999 .57910159 .12399292 .57910159 .10899353 .57910159 .13999939 .62802127 .20599365 .64100649 .24198914 .64100649 .2829895 .64100649 .33799745 .6190338 .33799745 .5290985 .33799745 .51708987 .33599855 .45906068 .30999757 .4149933 .27999879 .36691285 .24598694 .36390687 .22099304 .36291505 .21299744 .36190797 .18899536 .35990907 .18199158 .35990907 .17399597 .35890199 .16699219 .35791017 .16699219 .3479004 .16699219 .33691407 .17399597 .33691407 .19099427 .33691407H.23498535C.31698609 .33691407 .35398866 .2686615 .35398866 .17037964 .35398866 .034469606 .2849884 .0055389406 .24099732 .0055389406 .19799805 .0055389406 .12298584 .022491456 .08799744 .08137512 .12298584 .07637024 .1539917 .09837341 .1539917 .1363678 .1539917 .17237854 .1269989 .19238281 .09799194 .19238281 .07398987 .19238281 .041992189 .17837525 .041992189 .1343689 .041992189 .043441774 .1349945-.022460938 .24398804-.022460938 .3659973-.022460938 .45700074 .06838989 .45700074 .17037964 .45700074 .252594 .3939972 .33088685 .2899933 .35191346Z"/>
<path id="font_2_5" d="M.2939911 .16503906V.07800293C.2939911 .041992189 .2919922 .0309906 .21798706 .0309906H.19699097V0C.23799134 .0029907227 .2899933 .0029907227 .33198548 .0029907227 .37399293 .0029907227 .4269867 .0029907227 .46798707 0V.0309906H.44699098C.37298585 .0309906 .37098695 .041992189 .37098695 .07800293V.16503906H.47099305V.19602967H.37098695V.65075686C.37098695 .67074587 .37098695 .6767578 .35499574 .6767578 .34599305 .6767578 .34298707 .6767578 .33499146 .66474917L.027999878 .19602967V.16503906H.2939911M.2999878 .19602967H.055999757L.2999878 .5688019V.19602967Z"/>
<path id="font_3_3" d="M.33399964 .30233766C.33999635 .32835389 .36299134 .42037965 .43299867 .42037965 .43798829 .42037965 .46199037 .42037965 .48298646 .40734864 .45498658 .402359 .43499757 .37734986 .43499757 .35334779 .43499757 .33735658 .44599916 .31835938 .47299195 .31835938 .49499513 .31835938 .5269928 .3363495 .5269928 .37635804 .5269928 .42837525 .46798707 .4423828 .43399049 .4423828 .37599183 .4423828 .34098817 .38935853 .32899476 .36634828 .3039856 .43237306 .25 .4423828 .22099304 .4423828 .116989139 .4423828 .05999756 .3133545 .05999756 .28834535 .05999756 .27833558 .069992069 .27833558 .07199097 .27833558 .07998657 .27833558 .08299255 .28033448 .084991458 .28933717 .11898804 .39535523 .18499756 .42037965 .21899414 .42037965 .23799134 .42037965 .272995 .4113617 .272995 .35334779 .272995 .32235719 .2559967 .25532533 .21899414 .11528015 .20298767 .053268434 .16799927 .011245728 .12399292 .011245728 .117996219 .011245728 .09498596 .011245728 .07398987 .024276734 .09899902 .029266358 .12098694 .05027771 .12098694 .07827759 .12098694 .105270389 .09899902 .11328125 .083999637 .11328125 .053985597 .11328125 .0289917 .08728027 .0289917 .055267335 .0289917 .009246826 .07899475-.0107421879 .12298584-.0107421879 .18899536-.0107421879 .22499085 .059280397 .22799683 .0652771 .23999024 .028274537 .27598573-.0107421879 .33599855-.0107421879 .43899537-.0107421879 .49598695 .118270877 .49598695 .14328003 .49598695 .1532898 .4869995 .1532898 .48399354 .1532898 .47499085 .1532898 .47299195 .14929199 .47099305 .14228821 .43798829 .03527832 .36999513 .011245728 .33799745 .011245728 .29899598 .011245728 .2829895 .043273927 .2829895 .07727051 .2829895 .09927368 .2889862 .121276859 .2999878 .16529846L.33399964 .30233766Z"/>
<path id="font_3_4" d="M.48599244 .38136292C.48999024 .39537049 .48999024 .39736939 .48999024 .40437318 .48999024 .42237855 .47599793 .43138124 .46099855 .43138124 .45098878 .43138124 .43499757 .42536927 .42599488 .41036988 .42399598 .405365 .41600038 .37435914 .4119873 .35635377 .40499879 .33035279 .397995 .30334474 .3919983 .27633668L.34700013 .09628296C.34298707 .08126831 .2999878 .011245728 .23399353 .011245728 .18299866 .011245728 .17199707 .055267335 .17199707 .0922699 .17199707 .1382904 .18899536 .20030213 .22299195 .28833009 .23899842 .3293457 .24299622 .3403473 .24299622 .36035157 .24299622 .405365 .21099854 .4423828 .16099549 .4423828 .06599426 .4423828 .0289917 .29733277 .0289917 .28833009 .0289917 .27833558 .038986207 .27833558 .040985109 .27833558 .050994874 .27833558 .051986696 .28033448 .056991579 .29634095 .083999637 .3903656 .12399292 .42037965 .1579895 .42037965 .1659851 .42037965 .18299866 .42037965 .18299866 .3883667 .18299866 .36335755 .17298889 .3373413 .1659851 .31834413 .12599182 .21231079 .10798645 .1552887 .10798645 .10827637 .10798645 .019256592 .17098999-.0107421879 .22999573-.0107421879 .2689972-.0107421879 .30299378 .0062561037 .33099366 .03425598 .31799317-.017745972 .30599977-.06674194 .2659912-.11973572 .23999024-.15385437 .20199585-.18309021 .1559906-.18309021 .14199829-.18309021 .09700012-.18005371 .07998657-.14074707 .09599304-.14074707 .10899353-.14074707 .12298584-.1287384 .1329956-.11973572 .14299011-.10673523 .14299011-.08773804 .14299011-.056747438 .115997318-.052734376 .10598755-.052734376 .08299255-.052734376 .049987794-.068740848 .049987794-.11773682 .049987794-.16796875 .09399414-.20507813 .1559906-.20507813 .25898744-.20507813 .3619995-.11373901 .3899994-.00074768069L.48599244 .38136292Z"/>
</defs>
<path transform="matrix(1.2500376,0,0,-1.25,1.966774,203.59349)" stroke-width=".19925" stroke-linecap="butt" stroke-miterlimit="10" stroke-linejoin="miter" fill="none" stroke="#7f807f" d="M8.83052 14.01376V18.2655M52.98314 14.01376V18.2655M141.28839 14.01376V18.2655M185.44103 14.01376V18.2655"/>
<path transform="matrix(1.2500376,0,0,-1.25,1.966774,203.59349)" stroke-width=".19925" stroke-linecap="butt" stroke-miterlimit="10" stroke-linejoin="miter" fill="none" stroke="#7f807f" d="M95.00987 48.41908H99.26164M95.00987 80.69852H99.26164M95.00987 112.97795H99.26164M95.00987 145.25739H99.26164"/>
<path transform="matrix(1.2500376,0,0,-1.25,1.966774,203.59349)" stroke-width=".3985" stroke-linecap="butt" stroke-miterlimit="10" stroke-linejoin="miter" fill="none" stroke="#000000" d="M0 16.13965H192.27902"/>
<path transform="matrix(1.2500376,0,0,-1.25,242.32279,183.41893)" d="M1.99252 0-1.19551 1.59401 0 0-1.19551-1.59401"/>
<path transform="matrix(1.2500376,0,0,-1.25,1.966774,203.59349)" stroke-width=".3985" stroke-linecap="butt" stroke-miterlimit="10" stroke-linejoin="miter" fill="none" stroke="#000000" d="M97.13577 0V159.40459"/>
<path transform="matrix(0,-1.25,-1.2500376,-0,123.39014,4.3377535)" d="M1.99252 0-1.19551 1.59401 0 0-1.19551-1.59401"/>
<use data-text="&#x2212;" xlink:href="#font_1_1" transform="matrix(12.453624,0,0,-12.45325,5.0481188,198.50099)"/>
<use data-text="1" xlink:href="#font_2_2" transform="matrix(12.453624,0,0,-12.45325,14.733414,198.50099)"/>
<use data-text="&#x2212;" xlink:href="#font_1_1" transform="matrix(12.453624,0,0,-12.45325,55.39838,198.50099)"/>
<use data-text="0" xlink:href="#font_2_1" transform="matrix(12.453624,0,0,-12.45325,65.08368,198.50099)"/>
<use data-text="." xlink:href="#font_3_2" transform="matrix(12.453624,0,0,-12.45325,71.311359,198.50099)"/>
<use data-text="5" xlink:href="#font_2_6" transform="matrix(12.453624,0,0,-12.45325,74.77022,198.50099)"/>
<use data-text="0" xlink:href="#font_2_1" transform="matrix(12.453624,0,0,-12.45325,170.62561,198.50099)"/>
<use data-text="." xlink:href="#font_3_2" transform="matrix(12.453624,0,0,-12.45325,176.85205,198.50099)"/>
<use data-text="5" xlink:href="#font_2_6" transform="matrix(12.453624,0,0,-12.45325,180.3109,198.50099)"/>
<use data-text="1" xlink:href="#font_2_2" transform="matrix(12.453624,0,0,-12.45325,230.66114,198.50099)"/>
<use data-text="&#x03c0;" xlink:href="#font_3_1" transform="matrix(12.453624,0,0,-12.45325,108.78748,145.75099)"/>
<use data-text="2" xlink:href="#font_2_3" transform="matrix(12.453624,0,0,-12.45325,102.5598,106.73349)"/>
<use data-text="&#x03c0;" xlink:href="#font_3_1" transform="matrix(12.453624,0,0,-12.45325,108.78624,106.73349)"/>
<use data-text="3" xlink:href="#font_2_4" transform="matrix(12.453624,0,0,-12.45325,102.5598,66.3835)"/>
<use data-text="&#x03c0;" xlink:href="#font_3_1" transform="matrix(12.453624,0,0,-12.45325,108.78624,66.3835)"/>
<use data-text="4" xlink:href="#font_2_5" transform="matrix(12.453624,0,0,-12.45325,102.5598,26.034745)"/>
<use data-text="&#x03c0;" xlink:href="#font_3_1" transform="matrix(12.453624,0,0,-12.45325,108.78624,26.034745)"/>
<path transform="matrix(1.2500376,0,0,-1.25,1.966774,203.59349)" stroke-width=".99628" stroke-linecap="butt" stroke-miterlimit="10" stroke-linejoin="miter" fill="none" stroke="#00aeef" d="M8.83052 145.25566 9.71796 139.42159 10.60544 137.00289 11.49292 135.139 12.38037 133.56285 13.26784 132.17267 14.15532 130.91194 15.04277 129.74985 15.93025 128.6638 16.81772 127.64145 17.70518 126.67253 18.59265 125.74883 19.48013 124.86313 20.36758 124.01236 21.25505 123.19038 22.14253 122.3951 23.03 121.62552 23.91745 120.87646 24.80492 120.14697 25.6924 119.43594 26.57988 118.74135 27.46732 118.0622 28.3548 117.39536 29.24228 116.74393 30.12973 116.10379 31.01721 115.47498 31.90468 114.85747 32.79213 114.2492 33.67961 113.65016 34.5671 113.06244 35.45454 112.4809 36.34201 111.90652 37.22949 111.34038 38.11696 110.78246 39.00441 110.2307 39.89189 109.68509 40.77936 109.14566 41.66682 108.61137 42.55428 108.08324 43.44176 107.56128 44.32924 107.04343 45.21669 106.52864 46.10416 106.02109 46.99164 105.51761 47.87909 105.01723 48.76657 104.52095 49.65404 104.03082 50.54149 103.54279 51.42897 103.0578 52.31645 102.57693 53.2039 102.09917 54.09137 101.62549 54.97885 101.15388 55.86632 100.68433 56.75378 100.21887 57.64124 99.75444 58.52872 99.29515 59.41618 98.83585 60.30365 98.38173 61.19112 97.92654 62.0786 97.47649 62.96605 97.02852 63.85353 96.5795 64.741 96.13564 65.62845 95.69278 66.51593 95.252 67.40341 94.8112 68.29085 94.37349 69.17833 93.93784 70.06581 93.5032 70.95328 93.06961 71.84073 92.63806 72.72821 92.20757 73.61568 91.77908 74.50314 91.35164 75.3906 90.92319 76.27808 90.49883 77.16554 90.07344 78.05301 89.65015 78.94048 89.22682 79.82796 88.8045 80.71541 88.3853 81.60289 87.96507 82.49036 87.54584 83.3778 87.12767 84.26529 86.70845 85.15277 86.29128 86.04022 85.87617 86.92769 85.45901 87.81517 85.04391 88.70264 84.62779 89.5901 84.21472 90.47755 83.79964 91.36504 83.38452 92.2525 82.97148 93.13997 82.5574 94.02744 82.14539 94.9149 81.73131 95.80237 81.31825 96.68985 80.90521 97.57732 80.49214 98.46483 80.07806 99.35222 79.66605 100.23975 79.25197 101.12712 78.83995 102.01465 78.42587 102.90218 78.01178 103.78955 77.59772 104.67708 77.18468 105.56448 76.76854 106.452 76.35344 107.33951 75.93832 108.2269 75.5222 109.11443 75.10503 110.0018 74.68788 110.88933 74.26968 111.77686 73.8515 112.66423 73.43228 113.55176 73.01338 114.43915 72.59262 115.32668 72.17085 116.21419 71.74832 117.10158 71.3249 117.9891 70.90025 118.87648 70.47467 119.764 70.04744 120.65155 69.62001 121.53891 69.19093 122.42644 68.7603 123.31383 68.32855 124.20135 67.89537 125.08887 67.46114 125.97626 67.02448 126.86378 66.58656 127.75117 66.1471 128.63869 65.706 129.52622 65.26285 130.4136 64.81795 131.30112 64.37088 132.1885 63.92146 133.07605 63.47081 133.96355 63.01768 134.85094 62.56198 135.73848 62.10385 136.62584 61.64342 137.51337 61.18076 138.4009 60.71448 139.28827 60.24544 140.1758 59.77422 141.06319 59.29971 141.95072 58.82193 142.83824 58.34097 143.72562 57.85652 144.61315 57.36887 145.50054 56.87662 146.38805 56.38104 147.27558 55.88138 148.16297 55.3775 149.05048 54.86899 149.93787 54.35619 150.82541 53.83833 151.7129 53.31502 152.60031 52.78741 153.48784 52.25374 154.3752 51.7144 155.26274 51.16882 156.15026 50.61694 157.03763 50.05882 157.92517 49.49236 158.81255 48.91852 159.70008 48.338 160.5876 47.7483 161.47498 47.1499 162.3625 46.54214 163.2499 45.92432 164.1374 45.29642 165.02494 44.65578 165.91233 44.00354 166.79984 43.33833 167.68724 42.65907 168.57477 41.9643 169.46227 41.25316 170.34967 40.52396 171.23719 39.7742 172.12456 39.0043 173.0121 38.20964 173.89962 37.38765 174.787 36.53731 175.67453 35.65211 176.5619 34.72923 177.44944 33.7596 178.33696 32.73695 179.22434 31.65334 180.11188 30.49097 180.99925 29.23044 181.88677 27.83984 182.7743 26.26573 183.66168 24.40576 184.5492 21.98521 185.4366 16.23155"/>
<use data-text="x" xlink:href="#font_3_3" transform="matrix(12.453624,0,0,-12.45325,233.29624,179.01975)"/>
<use data-text="y" xlink:href="#font_3_4" transform="matrix(12.453624,0,0,-12.45325,127.79055,11.60849)"/>
</svg>
