<svg xmlns="http://www.w3.org/2000/svg" xmlns:xlink="http://www.w3.org/1999/xlink" xmlns:inkscape="http://www.inkscape.org/namespaces/inkscape" version="1.1" width="201" height="170" viewBox="0 0 201 170">
<defs>
<path id="font_1_1" d="M.6589966 .23046875C.6759949 .23046875 .69400027 .23046875 .69400027 .25045777 .69400027 .27046205 .6759949 .27046205 .6589966 .27046205H.117996219C.100997928 .27046205 .08299255 .27046205 .08299255 .25045777 .08299255 .23046875 .100997928 .23046875 .117996219 .23046875H.6589966Z"/>
<path id="font_2_4" d="M.1269989 .07699585 .23298645 .18003845C.3889923 .31811524 .44898988 .3721466 .44898988 .47216798 .44898988 .5860901 .35899354 .6660156 .23699951 .6660156 .12399292 .6660156 .049987794 .57411196 .049987794 .48516847 .049987794 .4291687 .099990848 .4291687 .102996829 .4291687 .11999512 .4291687 .15499878 .44117738 .15499878 .48217774 .15499878 .5081787 .13699341 .5341797 .101989749 .5341797 .09399414 .5341797 .09199524 .5341797 .08898926 .5331726 .11199951 .59806826 .1659851 .63500979 .22399903 .63500979 .31498719 .63500979 .35798646 .5541382 .35798646 .47216798 .35798646 .39215089 .30799867 .31311036 .25299073 .25108338L.06098938 .036987306C.049987794 .025985718 .049987794 .023986817 .049987794 0H.42099L.44898988 .17404175H.42399598C.4189911 .14402771 .4119873 .1000061 .4019928 .084991458 .394989 .07699585 .32899476 .07699585 .30699159 .07699585H.1269989Z"/>
<path id="font_3_1" d="M.2649994 .37265016H.37799073C.34498597 .22489929 .33599855 .18196106 .33599855 .11508179 .33599855 .100097659 .33599855 .073150638 .34399415 .03919983 .35398866-.0047454836 .36499024-.0107421879 .37998963-.0107421879 .3999939-.0107421879 .42099 .007247925 .42099 .02722168 .42099 .033218385 .42099 .035202028 .4149933 .049179079 .38598634 .12106323 .38598634 .18595886 .38598634 .21391297 .38598634 .26683045 .3929901 .32073976 .4039917 .37265016H.5179901C.5309906 .37265016 .5669861 .37265016 .5669861 .406662 .5669861 .43066407 .54599 .43066407 .5269928 .43066407H.19198609C.16999817 .43066407 .13198853 .43066407 .08799744 .38365174 .052993776 .34469605 .026992798 .29878236 .026992798 .29379273 .026992798 .29278565 .026992798 .28379823 .038986207 .28379823 .04699707 .28379823 .04899597 .28779603 .054992677 .29577638 .10398865 .37265016 .1619873 .37265016 .18199158 .37265016H.23899842C.20698548 .25186158 .15299988 .13105774 .11099243 .04020691 .102996829 .025222779 .102996829 .023223877 .102996829 .016235352 .102996829-.002746582 .11898804-.0107421879 .13198853-.0107421879 .1619873-.0107421879 .16999817 .017242432 .18199158 .05418396 .19599915 .100097659 .19599915 .10209656 .20899964 .15202332L.2649994 .37265016Z"/>
<path id="font_2_5" d="M.2899933 .35191346C.37199403 .37893678 .42999269 .4490509 .42999269 .52809146 .42999269 .6100464 .34199525 .6660156 .24598694 .6660156 .14498902 .6660156 .068984989 .60606387 .068984989 .53009036 .068984989 .49710084 .09098816 .47808839 .11999512 .47808839 .15098572 .47808839 .17098999 .50009158 .17098999 .5290985 .17098999 .57910159 .12399292 .57910159 .10899353 .57910159 .13999939 .62802127 .20599365 .64100649 .24198914 .64100649 .2829895 .64100649 .33799745 .6190338 .33799745 .5290985 .33799745 .51708987 .33599855 .45906068 .30999757 .4149933 .27999879 .36691285 .24598694 .36390687 .22099304 .36291505 .21299744 .36190797 .18899536 .35990907 .18199158 .35990907 .17399597 .35890199 .16699219 .35791017 .16699219 .3479004 .16699219 .33691407 .17399597 .33691407 .19099427 .33691407H.23498535C.31698609 .33691407 .35398866 .2686615 .35398866 .17037964 .35398866 .034469606 .2849884 .0055389406 .24099732 .0055389406 .19799805 .0055389406 .12298584 .022491456 .08799744 .08137512 .12298584 .07637024 .1539917 .09837341 .1539917 .1363678 .1539917 .17237854 .1269989 .19238281 .09799194 .19238281 .07398987 .19238281 .041992189 .17837525 .041992189 .1343689 .041992189 .043441774 .1349945-.022460938 .24398804-.022460938 .3659973-.022460938 .45700074 .06838989 .45700074 .17037964 .45700074 .252594 .3939972 .33088685 .2899933 .35191346Z"/>
<path id="font_2_3" d="M.2939911 .64004519C.2939911 .66400149 .2939911 .6660156 .2709961 .6660156 .20899964 .60227969 .12098694 .60227969 .08898926 .60227969V.57128909C.10899353 .57128909 .16799927 .57128909 .21998596 .5972748V.07902527C.21998596 .042999269 .21699524 .0309906 .1269989 .0309906H.09498596V0C.12998963 .0029907227 .21699524 .0029907227 .25698854 .0029907227 .29699708 .0029907227 .38398744 .0029907227 .4189911 0V.0309906H.3869934C.29699708 .0309906 .2939911 .041992189 .2939911 .07902527V.64004519Z"/>
<path id="font_3_3" d="M.48599244 .38136292C.48999024 .39537049 .48999024 .39736939 .48999024 .40437318 .48999024 .42237855 .47599793 .43138124 .46099855 .43138124 .45098878 .43138124 .43499757 .42536927 .42599488 .41036988 .42399598 .405365 .41600038 .37435914 .4119873 .35635377 .40499879 .33035279 .397995 .30334474 .3919983 .27633668L.34700013 .09628296C.34298707 .08126831 .2999878 .011245728 .23399353 .011245728 .18299866 .011245728 .17199707 .055267335 .17199707 .0922699 .17199707 .1382904 .18899536 .20030213 .22299195 .28833009 .23899842 .3293457 .24299622 .3403473 .24299622 .36035157 .24299622 .405365 .21099854 .4423828 .16099549 .4423828 .06599426 .4423828 .0289917 .29733277 .0289917 .28833009 .0289917 .27833558 .038986207 .27833558 .040985109 .27833558 .050994874 .27833558 .051986696 .28033448 .056991579 .29634095 .083999637 .3903656 .12399292 .42037965 .1579895 .42037965 .1659851 .42037965 .18299866 .42037965 .18299866 .3883667 .18299866 .36335755 .17298889 .3373413 .1659851 .31834413 .12599182 .21231079 .10798645 .1552887 .10798645 .10827637 .10798645 .019256592 .17098999-.0107421879 .22999573-.0107421879 .2689972-.0107421879 .30299378 .0062561037 .33099366 .03425598 .31799317-.017745972 .30599977-.06674194 .2659912-.11973572 .23999024-.15385437 .20199585-.18309021 .1559906-.18309021 .14199829-.18309021 .09700012-.18005371 .07998657-.14074707 .09599304-.14074707 .10899353-.14074707 .12298584-.1287384 .1329956-.11973572 .14299011-.10673523 .14299011-.08773804 .14299011-.056747438 .115997318-.052734376 .10598755-.052734376 .08299255-.052734376 .049987794-.068740848 .049987794-.11773682 .049987794-.16796875 .09399414-.20507813 .1559906-.20507813 .25898744-.20507813 .3619995-.11373901 .3899994-.00074768069L.48599244 .38136292Z"/>
<path id="font_2_6" d="M.68699648 .32714845C.70199587 .32714845 .72099307 .32714845 .72099307 .34713746 .72099307 .36714173 .70199587 .36714173 .6879883 .36714173H.08898926C.07499695 .36714173 .055999757 .36714173 .055999757 .34713746 .055999757 .32714845 .07499695 .32714845 .08999634 .32714845H.68699648M.6879883 .13284302C.70199587 .13284302 .72099307 .13284302 .72099307 .15284729 .72099307 .17285156 .70199587 .17285156 .68699648 .17285156H.08999634C.07499695 .17285156 .055999757 .17285156 .055999757 .15284729 .055999757 .13284302 .07499695 .13284302 .08898926 .13284302H.6879883Z"/>
<path id="font_2_9" d="M.20799256 .19424439C.22999573 .19024658 .31199647 .17424011 .31199647 .102249149 .31199647 .051254274 .2769928 .011245728 .19898987 .011245728 .114990238 .011245728 .07899475 .06825256 .05999756 .15324402 .056991579 .1662445 .055999757 .17024231 .04598999 .17024231 .032989503 .17024231 .032989503 .16323853 .032989503 .14524842V.013244629C.032989503-.003753662 .032989503-.0107421879 .04399109-.0107421879 .04899597-.0107421879 .049987794-.009750366 .068984989 .009246826 .070999149 .011245728 .070999149 .013244629 .08898926 .03224182 .1329956-.009750366 .17799378-.0107421879 .19898987-.0107421879 .31399537-.0107421879 .3600006 .056243898 .3600006 .12825012 .3600006 .1812439 .32998658 .21124268 .31799317 .22323609 .2849884 .25523377 .24598694 .26324464 .20399475 .27124024 .147995 .28224183 .08099365 .2952423 .08099365 .35324098 .08099365 .38822938 .10699463 .42922975 .19299317 .42922975 .30299378 .42922975 .30799867 .3392334 .30999757 .3082428 .31098939 .2992401 .31999208 .2992401 .32199098 .2992401 .33499146 .2992401 .33499146 .304245 .33499146 .3232422V.4242401C.33499146 .4412384 .33499146 .4482422 .32398988 .4482422 .31900025 .4482422 .31698609 .4482422 .3039856 .43623353 .30099488 .43223573 .29100038 .42323304 .2869873 .42022706 .24899292 .4482422 .20799256 .4482422 .19299317 .4482422 .070999149 .4482422 .032989503 .38124085 .032989503 .3252411 .032989503 .29023744 .04899597 .26223756 .07598877 .24023438 .10798645 .21424866 .13598633 .2082367 .20799256 .19424439Z"/>
<path id="font_2_7" d="M.1769867 .4423828 .036987306 .43138124V.40037538C.101989749 .40037538 .11099243 .3943634 .11099243 .34532167V.076034549C.11099243 .0309906 .099990848 .0309906 .032989503 .0309906V0C.06498718 .0009918213 .11898804 .0029907227 .14299011 .0029907227 .17799378 .0029907227 .21299744 .0009918213 .24699402 0V.0309906C.18099976 .0309906 .1769867 .035995485 .1769867 .075042728V.4423828M.18099976 .6159363C.18099976 .64793398 .1559906 .6689453 .12799073 .6689453 .09700012 .6689453 .07499695 .64193728 .07499695 .6159363 .07499695 .5889435 .09700012 .5629425 .12799073 .5629425 .1559906 .5629425 .18099976 .5839386 .18099976 .6159363Z"/>
<path id="font_2_8" d="M.10998535 .34429933V.076034549C.10998535 .0309906 .09899902 .0309906 .03199768 .0309906V0C.066986087 .0009918213 .117996219 .0029907227 .14498902 .0029907227 .17098999 .0029907227 .22299195 .0009918213 .25698854 0V.0309906C.18998719 .0309906 .1789856 .0309906 .1789856 .076034549V.2602234C.1789856 .36431886 .25 .42037965 .31399537 .42037965 .3769989 .42037965 .3880005 .36631776 .3880005 .30926515V.076034549C.3880005 .0309906 .3769989 .0309906 .30999757 .0309906V0C.34498597 .0009918213 .3959961 .0029907227 .4229889 .0029907227 .44898988 .0029907227 .5009918 .0009918213 .5349884 0V.0309906C.48298646 .0309906 .45799256 .0309906 .45700074 .061019899V.25221253C.45700074 .3383026 .45700074 .36932374 .42599488 .405365 .4119873 .42237855 .3789978 .4423828 .32099916 .4423828 .24798584 .4423828 .20098877 .39935304 .17298889 .33729554V.4423828L.03199768 .43138124V.40037538C.101989749 .4003601 .10998535 .39335633 .10998535 .34429933Z"/>
<path id="font_2_1" d="M.33099366-.2400055C.33099366-.23701477 .33099366-.23500061 .31399537-.21800232 .18899536-.0920105 .15699768 .09700012 .15699768 .25 .15699768 .42399598 .19499207 .59799197 .31799317 .72299197 .33099366 .73498538 .33099366 .7369995 .33099366 .73999026 .33099366 .746994 .32699586 .75 .32099916 .75 .31098939 .75 .22099304 .6819916 .1619873 .5549927 .11099243 .44499208 .09899902 .33399964 .09899902 .25 .09899902 .17199707 .10998535 .050994874 .16499329-.06201172 .22499085-.18501282 .31098939-.25 .32099916-.25 .32699586-.25 .33099366-.24700928 .33099366-.2400055Z"/>
<path id="font_3_2" d="M.33399964 .30233766C.33999635 .32835389 .36299134 .42037965 .43299867 .42037965 .43798829 .42037965 .46199037 .42037965 .48298646 .40734864 .45498658 .402359 .43499757 .37734986 .43499757 .35334779 .43499757 .33735658 .44599916 .31835938 .47299195 .31835938 .49499513 .31835938 .5269928 .3363495 .5269928 .37635804 .5269928 .42837525 .46798707 .4423828 .43399049 .4423828 .37599183 .4423828 .34098817 .38935853 .32899476 .36634828 .3039856 .43237306 .25 .4423828 .22099304 .4423828 .116989139 .4423828 .05999756 .3133545 .05999756 .28834535 .05999756 .27833558 .069992069 .27833558 .07199097 .27833558 .07998657 .27833558 .08299255 .28033448 .084991458 .28933717 .11898804 .39535523 .18499756 .42037965 .21899414 .42037965 .23799134 .42037965 .272995 .4113617 .272995 .35334779 .272995 .32235719 .2559967 .25532533 .21899414 .11528015 .20298767 .053268434 .16799927 .011245728 .12399292 .011245728 .117996219 .011245728 .09498596 .011245728 .07398987 .024276734 .09899902 .029266358 .12098694 .05027771 .12098694 .07827759 .12098694 .105270389 .09899902 .11328125 .083999637 .11328125 .053985597 .11328125 .0289917 .08728027 .0289917 .055267335 .0289917 .009246826 .07899475-.0107421879 .12298584-.0107421879 .18899536-.0107421879 .22499085 .059280397 .22799683 .0652771 .23999024 .028274537 .27598573-.0107421879 .33599855-.0107421879 .43899537-.0107421879 .49598695 .118270877 .49598695 .14328003 .49598695 .1532898 .4869995 .1532898 .48399354 .1532898 .47499085 .1532898 .47299195 .14929199 .47099305 .14228821 .43798829 .03527832 .36999513 .011245728 .33799745 .011245728 .29899598 .011245728 .2829895 .043273927 .2829895 .07727051 .2829895 .09927368 .2889862 .121276859 .2999878 .16529846L.33399964 .30233766Z"/>
<path id="font_2_2" d="M.2889862 .25C.2889862 .32798768 .27799989 .44898988 .22299195 .56199648 .16299439 .68499758 .07699585 .75 .066986087 .75 .06098938 .75 .056991579 .74598696 .056991579 .73999026 .056991579 .7369995 .056991579 .73498538 .07598877 .71699526 .17399597 .6179962 .23098755 .45899964 .23098755 .25 .23098755 .07899475 .19400025-.09700012 .069992069-.2230072 .056991579-.23500061 .056991579-.23701477 .056991579-.2400055 .056991579-.2460022 .06098938-.25 .066986087-.25 .07699585-.25 .16699219-.18200684 .22599793-.055007936 .2769928 .054992677 .2889862 .16600037 .2889862 .25Z"/>
</defs>
<path transform="matrix(1.00006,0,0,-1.00008,3.7863923,168.94448)" stroke-width=".19925" stroke-linecap="butt" stroke-miterlimit="10" stroke-linejoin="miter" fill="none" stroke="#7f807f" d="M24.0792 79.28049V82.11525M60.6096 79.28049V82.11525M97.14003 79.28049V82.11525M133.67044 79.28049V82.11525M170.20085 79.28049V82.11525"/>
<path transform="matrix(1.00006,0,0,-1.00008,3.7863923,168.94448)" stroke-width=".19925" stroke-linecap="butt" stroke-miterlimit="10" stroke-linejoin="miter" fill="none" stroke="#7f807f" d="M5.814 78.57199V82.82373M42.34439 78.57199V82.82373M115.40523 78.57199V82.82373M151.93566 78.57199V82.82373M188.46607 78.57199V82.82373"/>
<path transform="matrix(1.00006,0,0,-1.00008,3.7863923,168.94448)" stroke-width=".19925" stroke-linecap="butt" stroke-miterlimit="10" stroke-linejoin="miter" fill="none" stroke="#7f807f" d="M77.45734 25.67659H80.2923M77.45734 62.35744H80.2923M77.45734 99.0383H80.2923M77.45734 135.71915H80.2923"/>
<path transform="matrix(1.00006,0,0,-1.00008,3.7863923,168.94448)" stroke-width=".19925" stroke-linecap="butt" stroke-miterlimit="10" stroke-linejoin="miter" fill="none" stroke="#7f807f" d="M76.74883 7.33617H81.0008M76.74883 44.01701H81.0008M76.74883 117.37872H81.0008M76.74883 154.05957H81.0008"/>
<path transform="matrix(1.00006,0,0,-1.00008,3.7863923,168.94448)" stroke-width=".3985" stroke-linecap="butt" stroke-miterlimit="10" stroke-linejoin="miter" fill="none" stroke="#000000" d="M0 80.69788H192.28754"/>
<path transform="matrix(1.00006,0,0,-1.00008,196.08547,88.240139)" d="M1.99252 0-1.19551 1.59401 0 0-1.19551-1.59401"/>
<path transform="matrix(1.00006,0,0,-1.00008,3.7863923,168.94448)" stroke-width=".3985" stroke-linecap="butt" stroke-miterlimit="10" stroke-linejoin="miter" fill="none" stroke="#000000" d="M78.87482 0V159.40323"/>
<path transform="matrix(0,-1.00008,-1.00006,-0,82.66594,9.528488)" d="M1.99252 0-1.19551 1.59401 0 0-1.19551-1.59401"/>
<use data-text="&#x2212;" xlink:href="#font_1_1" transform="matrix(9.963197,0,0,-9.963397,.21717835,100.30698)"/>
<use data-text="2" xlink:href="#font_2_4" transform="matrix(9.963197,0,0,-9.963397,7.9666445,100.30698)"/>
<use data-text="&#x03c0;" xlink:href="#font_3_1" transform="matrix(9.963197,0,0,-9.963397,12.947945,100.30698)"/>
<use data-text="&#x2212;" xlink:href="#font_1_1" transform="matrix(9.963197,0,0,-9.963397,39.240518,99.69794)"/>
<use data-text="&#x03c0;" xlink:href="#font_3_1" transform="matrix(9.963197,0,0,-9.963397,46.989984,99.69794)"/>
<use data-text="&#x03c0;" xlink:href="#font_3_1" transform="matrix(9.963197,0,0,-9.963397,116.18013,98.17581)"/>
<use data-text="2" xlink:href="#font_2_4" transform="matrix(9.963197,0,0,-9.963397,150.22217,100.30698)"/>
<use data-text="&#x03c0;" xlink:href="#font_3_1" transform="matrix(9.963197,0,0,-9.963397,155.20447,100.30698)"/>
<use data-text="3" xlink:href="#font_2_5" transform="matrix(9.963197,0,0,-9.963397,186.75437,100.30698)"/>
<use data-text="&#x03c0;" xlink:href="#font_3_1" transform="matrix(9.963197,0,0,-9.963397,191.73667,100.30698)"/>
<use data-text="&#x2212;" xlink:href="#font_1_1" transform="matrix(9.963197,0,0,-9.963397,64.28902,164.4031)"/>
<use data-text="2" xlink:href="#font_2_4" transform="matrix(9.963197,0,0,-9.963397,72.03848,164.4031)"/>
<use data-text="&#x2212;" xlink:href="#font_1_1" transform="matrix(9.963197,0,0,-9.963397,64.28902,127.71918)"/>
<use data-text="1" xlink:href="#font_2_3" transform="matrix(9.963197,0,0,-9.963397,72.03848,127.71918)"/>
<use data-text="1" xlink:href="#font_2_3" transform="matrix(9.963197,0,0,-9.963397,72.03848,54.76734)"/>
<use data-text="2" xlink:href="#font_2_4" transform="matrix(9.963197,0,0,-9.963397,72.03848,18.083405)"/>
<path transform="matrix(1.00006,0,0,-1.00008,3.7863923,168.94448)" stroke-width=".99628" stroke-linecap="butt" stroke-miterlimit="10" stroke-linejoin="miter" fill="none" stroke="#0000ff" d="M.50287 113.02165 .97624 110.34406 1.9525 104.61525 2.92877 98.71257 3.90503 92.68663 4.8813 86.57486 5.85756 80.4235 6.83383 74.27357 7.81009 68.16768 8.78636 62.15056 9.76262 56.26254 10.73888 50.54913 11.71513 45.04553 12.6914 39.79578 13.66766 34.83359 14.64394 30.19347 15.6202 25.91061 16.59645 22.01071 17.57272 18.52602 18.54898 15.48077 19.52525 12.89404 20.5015 10.7849 21.47777 9.16727 22.45403 8.05363 23.4303 7.45354 24.40656 7.36844 25.38283 7.7998 26.35909 8.74544 27.33536 10.19653 28.31161 12.145 29.28789 14.57768 30.26413 17.47475 31.24039 20.81711 32.21666 24.58202 33.19292 28.74017 34.16919 33.26878 35.14545 38.129 36.12172 43.28706 37.09798 48.71214 38.07425 54.36028 39.0505 60.19473 40.02676 66.1737 41.00302 72.2554 41.9793 78.3965 42.95555 84.55081 43.93182 90.68092 44.90808 96.73987 45.88435 102.68657 46.86061 108.47847 47.83687 114.07451 48.81314 119.43503 49.78938 124.52267 50.76566 129.30146 51.74191 133.73764 52.71819 137.80261 53.69444 141.4641 54.67072 144.69422 55.64697 147.47609 56.62325 149.78772 57.5995 151.6137 58.57578 152.94008 59.55203 153.75293 60.52829 154.05371 61.50455 153.83802 62.4808 153.10808 63.45708 151.86972 64.43333 150.1274 65.4096 147.89353 66.38586 145.1894 67.36214 142.03046 68.3384 138.44087 69.31467 134.44191 70.29091 130.06516 71.26718 125.33994 72.24344 120.30292 73.21971 114.98419 74.19597 109.42557 75.17224 103.66226 76.1485 97.73831 77.12477 91.69626 78.10103 85.57642 79.07729 79.42062 80.05354 73.27513 81.0298 67.18243 82.00607 61.18217 82.98233 55.31984 83.9586 49.63725 84.93486 44.17401 85.91113 38.96826 86.88739 34.05522 87.86366 29.47159 88.83992 25.24667 89.81618 21.41428 90.79243 18.00223 91.76869 15.02887 92.74496 12.5177 93.72124 10.48705 94.6975 8.95012 95.67375 7.92159 96.65002 7.40585 97.62628 7.40439 98.60262 7.91791 99.57877 8.94572 100.5551 10.48044 101.53127 12.50888 102.5076 15.01859 103.48392 17.98828 104.4601 21.40033 105.43642 25.23128 106.4126 29.45471 107.38892 34.03761 108.36523 38.94917 109.3414 44.15273 110.31772 49.61598 111.2939 55.29712 112.27022 61.15944 113.24655 67.15823 114.22272 73.25165 115.19905 79.39789 116.17522 85.55147 117.15154 91.67279 118.12787 97.71631 119.10405 103.641 120.08035 109.4043 121.05653 114.96292 122.03287 120.28236 123.00919 125.32233 123.98534 130.04828 124.96167 134.42652 125.93784 138.4262 126.91417 142.01726 127.89049 145.1784 128.86669 147.88472 129.84297 150.11931 130.81916 151.86458 131.79549 153.10439 132.7718 153.83655 133.74799 154.05518 134.7243 153.75513 135.70047 152.94374 136.6768 151.61956 137.65312 149.79579 138.6293 147.48564 139.6056 144.70595 140.58179 141.4773 141.5581 137.81728 142.53444 133.75452 143.51062 129.31833 144.48694 124.54102 145.4631 119.45486 146.43944 114.09578 147.41577 108.49976 148.39192 102.70859 149.36824 96.7626 150.34442 90.7044 151.32074 84.5743 152.29706 78.41998 153.27324 72.27888 154.24958 66.19719 155.22573 60.2182 156.20207 54.38156 157.1784 48.73343 158.15456 43.3076 159.13086 38.14809 160.10704 33.28493 161.08338 28.75705 162.0597 24.5967 163.03588 20.8303 164.01219 17.48723 164.98838 14.5887 165.96469 12.15308 166.94101 10.20314 167.91719 8.7491 168.89351 7.80275 169.86968 7.36992 170.84601 7.45134 171.82233 8.0507 172.7985 9.16214 173.77483 10.77682 174.751 12.88597 175.72733 15.46977 176.70365 18.51353 177.67981 21.99602 178.65615 25.8952 179.6323 30.17586 180.60863 34.81451 181.58495 39.77524 182.56113 45.02428 183.53745 50.52786 184.51363 56.2398 185.48996 62.12782 186.46628 68.14494 187.44246 74.2501 188.41878 80.40002 189.39493 86.55139 190.37125 92.66241 191.34758 98.68982 192.32376 104.59178 193.30008 110.32278 193.77346 113.0011"/>
<path transform="matrix(-.17407044,-.9848088,-.9847891,.17407392,4.2892925,55.91378)" d="M2.8892 0-1.73352 2.31136 0 0-1.73352-2.31136" fill="#0000ff"/>
<path transform="matrix(.17404044,-.9848088,-.9847891,-.17404393,197.57144,55.934335)" d="M2.8892 0-1.73352 2.31136 0 0-1.73352-2.31136" fill="#0000ff"/>
<use data-text="y" xlink:href="#font_3_3" transform="matrix(9.963197,0,0,-9.963397,109.85175,9.390717)" fill="#0000ff"/>
<use data-text="=" xlink:href="#font_2_6" transform="matrix(9.963197,0,0,-9.963397,117.862239,9.390717)" fill="#0000ff"/>
<use data-text="&#x2212;" xlink:href="#font_1_1" transform="matrix(9.963197,0,0,-9.963397,128.37886,9.390717)" fill="#0000ff"/>
<use data-text="2" xlink:href="#font_2_4" transform="matrix(9.963197,0,0,-9.963397,136.12732,9.390717)" fill="#0000ff"/>
<use data-text="s" xlink:href="#font_2_9" transform="matrix(9.963197,0,0,-9.963397,142.76282,9.390717)" fill="#0000ff"/>
<use data-text="i" xlink:href="#font_2_7" transform="matrix(9.963197,0,0,-9.963397,146.68833,9.390717)" fill="#0000ff"/>
<use data-text="n" xlink:href="#font_2_8" transform="matrix(9.963197,0,0,-9.963397,149.44812,9.390717)" fill="#0000ff"/>
<use data-text="(" xlink:href="#font_2_1" transform="matrix(9.963197,0,0,-9.963397,154.97769,9.390717)" fill="#0000ff"/>
<use data-text="x" xlink:href="#font_3_2" transform="matrix(9.963197,0,0,-9.963397,158.8767,9.390717)" fill="#0000ff"/>
<use data-text=")" xlink:href="#font_2_2" transform="matrix(9.963197,0,0,-9.963397,164.57103,9.390717)" fill="#0000ff"/>
<use data-text="x" xlink:href="#font_3_2" transform="matrix(9.963197,0,0,-9.963397,188.86348,84.719738)"/>
<use data-text="y" xlink:href="#font_3_3" transform="matrix(9.963197,0,0,-9.963397,86.18633,15.346191)"/>
</svg>
