<svg xmlns="http://www.w3.org/2000/svg" xmlns:xlink="http://www.w3.org/1999/xlink" version="1.1" width="145" height="117" viewBox="0 0 145 117">
<defs>
<path id="font_1_1" d="M.1269989 .07699585 .23298645 .18003845C.3889923 .31811524 .44898988 .3721466 .44898988 .47216798 .44898988 .5860901 .35899354 .6660156 .23699951 .6660156 .12399292 .6660156 .049987794 .57411196 .049987794 .48516847 .049987794 .4291687 .099990848 .4291687 .102996829 .4291687 .11999512 .4291687 .15499878 .44117738 .15499878 .48217774 .15499878 .5081787 .13699341 .5341797 .101989749 .5341797 .09399414 .5341797 .09199524 .5341797 .08898926 .5331726 .11199951 .59806826 .1659851 .63500979 .22399903 .63500979 .31498719 .63500979 .35798646 .5541382 .35798646 .47216798 .35798646 .39215089 .30799867 .31311036 .25299073 .25108338L.06098938 .036987306C.049987794 .025985718 .049987794 .023986817 .049987794 0H.42099L.44898988 .17404175H.42399598C.4189911 .14402771 .4119873 .1000061 .4019928 .084991458 .394989 .07699585 .32899476 .07699585 .30699159 .07699585H.1269989Z"/>
<path id="font_2_1" d="M.5059967 .37631227C.5119934 .39031983 .5159912 .3973236 .5799866 .3973236V.44433595C.5549927 .44232179 .526001 .44132997 .5009918 .44132997 .47599793 .44132997 .43099977 .44332887 .4099884 .44433595V.3973236C.42900086 .3973236 .45799256 .3943329 .45799256 .38632203 .45799256 .3853302 .45700074 .38331605 .45298768 .37431336L.33699037 .12416077 .20999146 .3973236H.2639923V.44433595C.23098755 .44232179 .14099121 .44132997 .13999939 .44132997 .11199951 .44132997 .066986087 .44332887 .025985718 .44433595V.3973236H.08999634L.2649994 .021087647C.2769928-.00390625 .2899933-.00390625 .30299378-.00390625 .31999208-.00390625 .32998658-.00091552737 .33999635 .020080567L.5059967 .37631227Z"/>
</defs>
<path transform="matrix(1.00006,0,0,-1,72.96624,101.012)" stroke-width=".3985" stroke-linecap="butt" stroke-miterlimit="10" stroke-linejoin="miter" fill="none" stroke="#d5d6d5" d="M-70.867-14.17339H70.867M-70.867 0H70.867M-70.867 14.17339H70.867M-70.867 28.3468H70.867M-70.867 42.5202H70.867M-70.867 56.69362H70.867M-70.867 70.867H70.867M-70.867 85.04042H70.867M-70.867 99.20885H70.867M-70.867-14.17339V99.21382M-56.69362-14.17339V99.21382M-42.5202-14.17339V99.21382M-28.3468-14.17339V99.21382M-14.17339-14.17339V99.21382M0-14.17339V99.21382M14.17339-14.17339V99.21382M28.3468-14.17339V99.21382M42.5202-14.17339V99.21382M56.69362-14.17339V99.21382M70.86205-14.17339V99.21382M70.867 99.21382"/>
<path transform="matrix(1.00006,0,0,-1,72.96624,101.012)" stroke-width="1.99255" stroke-linecap="butt" stroke-miterlimit="10" stroke-linejoin="miter" fill="none" stroke="#0000ff" d="M42.5202 0-11.74191 81.39316"/>
<path transform="matrix(-.55470326,-.83202,-.8320699,.55467,61.223627,19.618844)" d="M4.38364 0-2.63017 3.50691 0 0-2.63017-3.50691" fill="#0000ff"/>
<use data-text="2" xlink:href="#font_1_1" transform="matrix(9.963197,0,0,-9.9626,91.45735,54.175)" fill="#0000ff"/>
<use data-text="v" xlink:href="#font_2_1" transform="matrix(9.963197,0,0,-9.9626,96.43866,54.175)" fill="#0000ff"/>
</svg>
