<svg xmlns="http://www.w3.org/2000/svg" xmlns:xlink="http://www.w3.org/1999/xlink" xmlns:inkscape="http://www.inkscape.org/namespaces/inkscape" version="1.1" width="267" height="195" viewBox="0 0 267 195">
<path transform="matrix(1.00006,0,0,-1.00006,144.98654,185.32515)" stroke-width=".3985" stroke-linecap="butt" stroke-miterlimit="10" stroke-linejoin="miter" fill="none" stroke="#000000" d=""/>
<path transform="matrix(1.00006,0,0,-1.00006,144.98654,185.32515)" d="M101.00928 0 110.8361 10.07898 119.90688 28.22093 109.3244 20.40973 99.21382 14.17339-82.17442 14.36241-98.8042 20.91364-110.89883 32.25218-101.5759 9.82681-95.5286 0Z" fill="#993300" fill-opacity=".1"/>
<path transform="matrix(1.00006,0,0,-1.00006,144.98654,185.32515)" d="M43.60587 14.23135 39.47859 183.51764-56.69362 113.38724Z" fill="#993300" fill-opacity=".1"/>
<path transform="matrix(1.00006,0,0,-1.00006,144.98654,185.32515)" stroke-width=".3985" stroke-linecap="butt" stroke-miterlimit="10" stroke-linejoin="miter" fill="none" stroke="#993300" d="M101.00928 0 110.8361 10.07898"/>
<path transform="matrix(1.00006,0,0,-1.00006,144.98654,185.32515)" stroke-width=".3985" stroke-linecap="butt" stroke-miterlimit="10" stroke-linejoin="miter" fill="none" stroke="#993300" d="M110.8361 10.07898 119.90688 28.22093"/>
<path transform="matrix(1.00006,0,0,-1.00006,144.98654,185.32515)" stroke-width=".3985" stroke-linecap="butt" stroke-miterlimit="10" stroke-linejoin="miter" fill="none" stroke="#993300" d="M119.90688 28.22093 109.3244 20.40973"/>
<path transform="matrix(1.00006,0,0,-1.00006,144.98654,185.32515)" stroke-width=".3985" stroke-linecap="butt" stroke-miterlimit="10" stroke-linejoin="miter" fill="none" stroke="#993300" d="M109.3244 20.40973 99.21382 14.17339"/>
<path transform="matrix(1.00006,0,0,-1.00006,144.98654,185.32515)" stroke-width=".3985" stroke-linecap="butt" stroke-miterlimit="10" stroke-linejoin="miter" fill="none" stroke="#993300" d="M99.21382 14.17339-82.17442 14.36241"/>
<path transform="matrix(1.00006,0,0,-1.00006,144.98654,185.32515)" stroke-width=".3985" stroke-linecap="butt" stroke-miterlimit="10" stroke-linejoin="miter" fill="none" stroke="#993300" d="M-82.17442 14.36241-98.8042 20.91364"/>
<path transform="matrix(1.00006,0,0,-1.00006,144.98654,185.32515)" stroke-width=".3985" stroke-linecap="butt" stroke-miterlimit="10" stroke-linejoin="miter" fill="none" stroke="#993300" d="M-98.8042 20.91364-110.89883 32.25218"/>
<path transform="matrix(1.00006,0,0,-1.00006,144.98654,185.32515)" stroke-width=".3985" stroke-linecap="butt" stroke-miterlimit="10" stroke-linejoin="miter" fill="none" stroke="#993300" d="M-110.89883 32.25218-101.5759 9.82681"/>
<path transform="matrix(1.00006,0,0,-1.00006,144.98654,185.32515)" stroke-width=".3985" stroke-linecap="butt" stroke-miterlimit="10" stroke-linejoin="miter" fill="none" stroke="#993300" d="M-101.5759 9.82681-95.5286 0"/>
<path transform="matrix(1.00006,0,0,-1.00006,144.98654,185.32515)" stroke-width=".3985" stroke-linecap="butt" stroke-miterlimit="10" stroke-linejoin="miter" fill="none" stroke="#993300" d="M-95.5286 0H101.00928"/>
<path transform="matrix(1.00006,0,0,-1.00006,144.98654,185.32515)" stroke-width=".3985" stroke-linecap="butt" stroke-miterlimit="10" stroke-linejoin="miter" fill="none" stroke="#993300" d="M43.60587 14.23135 39.47859 183.51764"/>
<path transform="matrix(1.00006,0,0,-1.00006,144.98654,185.32515)" stroke-width=".3985" stroke-linecap="butt" stroke-miterlimit="10" stroke-linejoin="miter" fill="none" stroke="#993300" d="M39.47859 183.51764-56.69362 113.38724"/>
<path transform="matrix(1.00006,0,0,-1.00006,144.98654,185.32515)" stroke-width=".3985" stroke-linecap="butt" stroke-miterlimit="10" stroke-linejoin="miter" fill="none" stroke="#993300" d="M-56.69362 113.38724 43.60587 14.23135"/>
<path transform="matrix(1.00006,0,0,-1.00006,144.98654,185.32515)" stroke-width=".3985" stroke-linecap="butt" stroke-miterlimit="10" stroke-linejoin="miter" fill="none" stroke="#993300" d="M-109.88928 5.64027-125.6129 6.52914-138.85378 4.32234-142.88373-2.68216-136.80699-8.14511-123.98138-5.08101-109.20544 2.59521-20.70557 22.56851-21.94394 25.6655Z"/>
<path transform="matrix(1.00006,0,0,-1.00006,144.98654,185.32515)" d="M-109.88928 5.64027-125.6129 6.52914-138.85378 4.32234-142.88373-2.68216-136.80699-8.14511-123.98138-5.08101-109.20544 2.59521-20.70557 22.56851-21.94394 25.6655Z" fill="#bf8040" fill-opacity=".4"/>
<path transform="matrix(1.00006,0,0,-1.00006,144.98654,185.32515)" stroke-width=".3985" stroke-linecap="butt" stroke-miterlimit="10" stroke-linejoin="miter" fill="none" stroke="#000000" d="M-16.92996 15.52162C-12.86244 17.87-11.46886 23.07095-13.81721 27.13847-16.16559 31.206-21.36656 32.59958-23.7085 31.24742"/>
<path transform="matrix(-.8660819,.49999998,.49999998,.8660819,121.27662,154.07585)" d="M1.99252 0-1.19551 1.59401 0 0-1.19551-1.59401"/>
</svg>
