<svg xmlns="http://www.w3.org/2000/svg" xmlns:xlink="http://www.w3.org/1999/xlink" version="1.1" width="314" height="147" viewBox="0 0 314 147">
<defs>
<path id="font_1_98" d="M.3600006 .12823487C.3600006 .18122864 .32998658 .21122742 .31799317 .22323609 .2849884 .25523377 .24598694 .26322938 .20399475 .27124024 .147995 .28224183 .08099365 .29522706 .08099365 .35324098 .08099365 .38822938 .10699463 .42922975 .19299317 .42922975 .30299378 .42922975 .30799867 .3392334 .30999757 .30822755 .31098939 .2992401 .32199098 .2992401 .32199098 .2992401 .33499146 .2992401 .33499146 .30422975 .33499146 .32322694V.4242401C.33499146 .4412384 .33499146 .4482422 .32398988 .4482422 .31900025 .4482422 .31698609 .4482422 .3039856 .43623353 .30099488 .43223573 .29100038 .42323304 .2869873 .42022706 .24899292 .4482422 .20799256 .4482422 .19299317 .4482422 .070999149 .4482422 .032989503 .38124085 .032989503 .3252411 .032989503 .29023744 .04899597 .26223756 .07598877 .24023438 .10798645 .2142334 .13598633 .2082367 .20799256 .19422913 .22999573 .19021607 .31199647 .17422486 .31199647 .10221863 .31199647 .051223756 .2769928 .011245728 .19898987 .011245728 .114990238 .011245728 .07899475 .068222049 .05999756 .1532135 .056991579 .16621399 .055999757 .17021179 .04598999 .17021179 .032989503 .17021179 .032989503 .16322327 .032989503 .1452179V.013214111C.032989503-.003753662 .032989503-.0107421879 .04399109-.0107421879 .04899597-.0107421879 .049987794-.009750366 .068984989 .009246826 .070999149 .011245728 .070999149 .013214111 .08898926 .032226564 .1329956-.009750366 .17799378-.0107421879 .19898987-.0107421879 .31399537-.0107421879 .3600006 .05621338 .3600006 .1282196V.12823487Z"/>
<path id="font_1_105" d="M.33198548 .12385559V.18066406H.30699159V.12585449C.30699159 .052108766 .2769928 .014251709 .23999024 .014251709 .17298889 .014251709 .17298889 .10491943 .17298889 .12187195V.3996582H.31599427V.43066407H.17298889V.6142578H.147995C.14698792 .5324249 .116989139 .42565919 .018997193 .42166139V.3996582H.10398865V.12408447C.10398865 .0012512207 .19699097-.0107421879 .23298645-.0107421879 .3039856-.0107421879 .33198548 .060180665 .33198548 .12408447V.12385559Z"/>
<path id="font_1_28" d="M.48298646 .08912659V.14511109H.45799256V.08912659C.45799256 .03112793 .43299867 .025131226 .42199708 .025131226 .3889923 .025131226 .3849945 .070129398 .3849945 .07511902V.27508546C.3849945 .31707765 .3849945 .3560791 .34899903 .39312745 .30999757 .43223573 .2599945 .4482422 .21199036 .4482422 .12998963 .4482422 .06098938 .40115357 .06098938 .335083 .06098938 .30508424 .08099365 .28808595 .10699463 .28808595 .1349945 .28808595 .15299988 .30807496 .15299988 .33407594 .15299988 .3460846 .147995 .37908937 .101989749 .38008119 .1289978 .41519166 .17799378 .426239 .20999146 .426239 .25898744 .426239 .31599427 .38710023 .31599427 .29808045V.26107789C.2649994 .25808717 .19499207 .25508119 .13198853 .22509766 .056991579 .19110108 .03199768 .13911438 .03199768 .09512329 .03199768 .014251709 .1289978-.0107421879 .19198609-.0107421879 .2579956-.0107421879 .3039856 .029251099 .32299806 .07624817 .32699586 .036132814 .35398866-.005859375 .40098573-.005859375 .42199708-.005859375 .48298646 .008132935 .48298646 .08912659M.31599427 .14013672C.31599427 .04525757 .24398804 .011245728 .19898987 .011245728 .1499939 .011245728 .10899353 .04624939 .10899353 .09625244 .10899353 .15124512 .15098572 .23425293 .31599427 .24024964V.14013672Z"/>
<path id="font_1_96" d="M.3639984 .38137818C.3639984 .41337586 .33299256 .4423828 .2899933 .4423828 .21699524 .4423828 .18099976 .37538148 .16699219 .3323822V.4423828L.027999878 .43066407V.3996582C.09799194 .3996582 .10598755 .39266969 .10598755 .34370423V.07595825C.10598755 .0309906 .09498596 .0309906 .027999878 .0309906V0L.14199829 .0029907227C.18199158 .0029907227 .22898865 .0029907227 .2689972 0V.0309906H.24798584C.17399597 .0309906 .17199707 .04197693 .17199707 .07795715V.23181153C.17199707 .33137513 .21398926 .42037965 .2899933 .42037965 .29699708 .42037965 .29899598 .42037965 .30099488 .41937257 .2979889 .41838075 .27799989 .40637208 .27799989 .3803711 .27799989 .35237123 .29899598 .33737184 .32099916 .33737184 .33898927 .33737184 .3639984 .3493805 .3639984 .38137818Z"/>
<path id="font_1_82" d="M.4189911 0V.0309906H.3869934C.29699708 .0309906 .2939911 .041992189 .2939911 .07902527V.64012148C.2939911 .6640167 .2939911 .6660156 .2709961 .6660156 .20899964 .60227969 .12098694 .60227969 .08898926 .60227969V.57128909C.10899353 .57128909 .16799927 .57128909 .21998596 .5972748V.07902527C.21998596 .042999269 .21699524 .0309906 .1269989 .0309906H.09498596V0C.12998963 .0029907227 .21699524 .0029907227 .25698854 .0029907227 .29699708 .0029907227 .38398744 .0029907227 .4189911 0Z"/>
<path id="font_1_63" d="M.5349884 0V.0309906C.48298646 .0309906 .45799256 .0309906 .45700074 .061019899V.25221253C.45700074 .3383026 .45700074 .36932374 .42599488 .405365 .4119873 .42237855 .3789978 .4423828 .32099916 .4423828 .23699951 .4423828 .19299317 .38233949 .1769867 .34629823H.17599488V.69433596L.03199768 .6826172V.6516113C.101989749 .6516113 .10998535 .64463809 .10998535 .59580996V.076034549C.10998535 .0309906 .09899902 .0309906 .03199768 .0309906V0L.14498902 .0029907227 .25698854 0V.0309906C.18998719 .0309906 .1789856 .0309906 .1789856 .076034549V.2602234C.1789856 .36431886 .25 .42037965 .31399537 .42037965 .3769989 .42037965 .3880005 .36631776 .3880005 .30926515V.076034549C.3880005 .0309906 .3769989 .0309906 .30999757 .0309906V0L.4229889 .0029907227 .5349884 0Z"/>
<path id="font_1_81" d="M.47099305 .21424866C.47099305 .34223939 .37098695 .4482422 .25 .4482422 .125 .4482422 .027999878 .3392334 .027999878 .21424866 .027999878 .085250858 .13198853-.0107421879 .24899292-.0107421879 .36999513-.0107421879 .47099305 .087249759 .47099305 .21424866M.3880005 .22224427C.3880005 .18624878 .3880005 .13224793 .3659973 .08824158 .34399415 .04324341 .2999878 .014251709 .25 .014251709 .20698548 .014251709 .16299439 .035247804 .13598633 .08125305 .11099243 .12524414 .11099243 .18624878 .11099243 .22224427 .11099243 .26124574 .11099243 .31523133 .1349945 .35923768 .1619873 .40522767 .20899964 .426239 .24899292 .426239 .29299928 .426239 .33599855 .40423585 .3619995 .36123658 .3880005 .3182373 .3880005 .26023866 .3880005 .22224427Z"/>
<path id="font_1_109" d="M.5349884 0V.0309906C.46499635 .0309906 .45700074 .037994386 .45700074 .08705139V.4423828L.30999757 .43066407V.3996582C.37998963 .3996582 .3880005 .39266969 .3880005 .34373475V.16601563C.3880005 .07910156 .33999635 .011245728 .2669983 .011245728 .18299866 .011245728 .1789856 .058135988 .1789856 .11009216V.4423828L.03199768 .43066407V.3996582C.10998535 .3996582 .10998535 .39666749 .10998535 .3078003V.15802002C.10998535 .080093387 .10998535-.0107421879 .2619934-.0107421879 .31799317-.0107421879 .3619995 .017242432 .3909912 .07910156V-.0107421879L.5349884 0Z"/>
<path id="font_1_50" d="M.4149933 .11933899C.4149933 .12934876 .40699769 .13134766 .4019928 .13134766 .3929901 .13134766 .3909912 .12535095 .3889923 .11734009 .35398866 .014251709 .2639923 .014251709 .2539978 .014251709 .20399475 .014251709 .1639862 .044281007 .14099121 .08131409 .11099243 .12934876 .11099243 .19540406 .11099243 .23144531H.3899994C.4119873 .23144531 .4149933 .23144531 .4149933 .2524414 .4149933 .35131837 .36099244 .4482422 .23599243 .4482422 .11999512 .4482422 .027999878 .34532167 .027999878 .22042847 .027999878 .08631897 .1329956-.0107421879 .24798584-.0107421879 .36999513-.0107421879 .4149933 .10032654 .4149933 .11933899M.34899903 .2524414H.11199951C.117996219 .40126039 .20199585 .426239 .23599243 .426239 .33898927 .426239 .34899903 .2913971 .34899903 .2524414Z"/>
<path id="font_1_45" d="M.20298767 .0009918213C.20298767 .06498718 .1789856 .10598755 .13899231 .10598755 .10398865 .10598755 .085998538 .07899475 .085998538 .052993776 .085998538 .026992798 .102996829 0 .13899231 0 .1539917 0 .16799927 .005996704 .1789856 .015991211 .18099976-.06312561 .15299988-.12423706 .10899353-.17132569 .102996829-.17733765 .101989749-.17834473 .101989749-.18234253 .101989749-.18936157 .10699463-.19335938 .11199951-.19335938 .12399292-.19335938 .20298767-.114227298 .20298767 .0009918213Z"/>
<path id="font_1_107" d="M.44898988 .17396546H.42399598C.4189911 .14398194 .4119873 .099990848 .4019928 .084991458 .394989 .07699585 .32899476 .07699585 .30699159 .07699585H.1269989L.23298645 .17996216C.3889923 .31803895 .44898988 .37210084 .44898988 .47216798 .44898988 .5860901 .35899354 .6660156 .23699951 .6660156 .12399292 .6660156 .049987794 .57411196 .049987794 .48516847 .049987794 .4291687 .099990848 .4291687 .102996829 .4291687 .11999512 .4291687 .15499878 .44117738 .15499878 .48217774 .15499878 .5081787 .13699341 .5341797 .101989749 .5341797 .09399414 .5341797 .09199524 .5341797 .08898926 .5331726 .11199951 .59806826 .1659851 .63500979 .22399903 .63500979 .31498719 .63500979 .35798646 .5541382 .35798646 .47216798 .35798646 .39196778 .30799867 .31297303 .25299073 .25097657L.06098938 .036987306C.049987794 .025985718 .049987794 .023986817 .049987794 0H.42099L.44898988 .17396546Z"/>
<path id="font_1_121" d="M.45999146 .31976319C.45999146 .39982606 .45498658 .47988893 .41999818 .5539398 .37399293 .65000918 .2919922 .6660156 .25 .6660156 .18998719 .6660156 .116989139 .64001467 .07598877 .54693606 .04399109 .47789 .038986207 .39982606 .038986207 .31976319 .038986207 .24472046 .042999269 .15464783 .083999637 .07859802 .1269989-.0024719239 .19999695-.022460938 .24899292-.022460938 .30299378-.022460938 .3789978-.0014648438 .4229889 .09359741 .45498658 .16265869 .45999146 .2407074 .45999146 .31976319M.3769989 .3317871C.3769989 .25672914 .3769989 .18867493 .3659973 .12461853 .35099793 .029556275 .2939911-.00047302247 .24899292-.00047302247 .20999146-.00047302247 .15098572 .024551392 .1329956 .12062073 .12199402 .18066406 .12199402 .2727356 .12199402 .3317871 .12199402 .39582826 .12199402 .46188355 .12998963 .5159149 .14898682 .63500979 .22399903 .64401248 .24899292 .64401248 .28199769 .64401248 .34799195 .6259918 .36698915 .52693179 .3769989 .47088624 .3769989 .39482118 .3769989 .3317871Z"/>
<path id="font_1_76" d="M.71598818 .6516113V.6826172L.598999 .6796112 .48199464 .6826172V.6516113C.58499148 .6516113 .58499148 .6046295 .58499148 .577652V.15092469L.23199463 .6696167C.22299195 .6816101 .22200012 .6826172 .20298767 .6826172H.032989503V.6516113H.06199646C.07699585 .6516113 .09700012 .65060427 .11199951 .6496124 .1349945 .64660647 .13598633 .6456146 .13598633 .62661746V.10494995C.13598633 .07795715 .13598633 .0309906 .032989503 .0309906V0L.1499939 .0029907227 .2669983 0V.0309906C.1639862 .0309906 .1639862 .07795715 .1639862 .10494995V.62461856C.16899109 .6196289 .16999817 .6186218 .17399597 .6126251L.58200076 .0129852299C.59098818 .0009918213 .59199526 0 .598999 0 .61299136 0 .61299136 .0069885256 .61299136 .025985718V.577652C.61299136 .6046295 .61299136 .6516113 .71598818 .6516113Z"/>
<path id="font_1_74" d="M.8789978 0V.0309906H.8549957C.7779999 .0309906 .776001 .041992189 .776001 .07795715V.6046295C.776001 .64060977 .7779999 .6516113 .8549957 .6516113H.8789978V.6826172H.70999148C.6839905 .6826172 .6839905 .6816101 .6769867 .66360476L.45799256 .10095215 .24099732 .660614C.23199463 .6826172 .22898865 .6826172 .20599365 .6826172H.036987306V.6516113H.06098938C.13798523 .6516113 .13999939 .64060977 .13999939 .6046295V.10494995C.13999939 .07795715 .13999939 .0309906 .036987306 .0309906V0L.1539917 .0029907227 .2709961 0V.0309906C.16799927 .0309906 .16799927 .07795715 .16799927 .10494995V.6436157H.16899109L.4099884 .021987915C.4149933 .008987427 .41999818 0 .42999269 0 .44099427 0 .44400025 .0079956059 .44799806 .018997193L.69400027 .6516113H.69499209V.07795715C.69499209 .041992189 .69299319 .0309906 .6159973 .0309906H.59199526V0C.6289978 .0029907227 .69699099 .0029907227 .73599246 .0029907227 .7749939 .0029907227 .84199526 .0029907227 .8789978 0Z"/>
<path id="font_1_106" d="M.45700074 .17037964C.45700074 .252594 .3939972 .33088685 .2899933 .35191346 .37199403 .37893678 .42999269 .4490509 .42999269 .52809146 .42999269 .6100464 .34199525 .6660156 .24598694 .6660156 .14498902 .6660156 .068984989 .60606387 .068984989 .53009036 .068984989 .49710084 .09098816 .47808839 .11999512 .47808839 .15098572 .47808839 .17098999 .50009158 .17098999 .5290985 .17098999 .57910159 .12399292 .57910159 .10899353 .57910159 .13999939 .62802127 .20599365 .64100649 .24198914 .64100649 .2829895 .64100649 .33799745 .6190338 .33799745 .5290985 .33799745 .51708987 .33599855 .45906068 .30999757 .4149933 .27999879 .36691285 .24598694 .36390687 .22099304 .36291505 .21299744 .36190797 .18899536 .35990907 .18199158 .35990907 .17399597 .35890199 .16699219 .35791017 .16699219 .3479004 .16699219 .33691407 .17399597 .33691407 .19099427 .33691407H.23498535C.31698609 .33691407 .35398866 .2686615 .35398866 .17037964 .35398866 .034469606 .2849884 .0055389406 .24099732 .0055389406 .19799805 .0055389406 .12298584 .022491456 .08799744 .08137512 .12298584 .07637024 .1539917 .09837341 .1539917 .1363678 .1539917 .17237854 .1269989 .19238281 .09799194 .19238281 .07398987 .19238281 .041992189 .17837525 .041992189 .1343689 .041992189 .043441774 .1349945-.022460938 .24398804-.022460938 .3659973-.022460938 .45700074 .06838989 .45700074 .17037964Z"/>
<path id="font_1_55" d="M.35699464 .63479617C.35699464 .6717987 .31999208 .7050781 .2669983 .7050781 .19699097 .7050781 .11199951 .65179446 .11199951 .5457611V.43066407H.032989503V.3996582H.11199951V.07595825C.11199951 .0309906 .100997928 .0309906 .033996583 .0309906V0L.147995 .0029907227C.18798828 .0029907227 .23498535 .0029907227 .2749939 0V.0309906H.2539978C.17999268 .0309906 .17799378 .04197693 .17799378 .07795715V.3996582H.2919922V.43066407H.1749878V.5467529C.1749878 .63479617 .22299195 .68307498 .2669983 .68307498 .269989 .68307498 .2849884 .68307498 .2999878 .675827 .28799439 .6717987 .269989 .6587982 .269989 .6338043 .269989 .61079409 .28599549 .5907898 .31298829 .5907898 .34199525 .5907898 .35699464 .61079409 .35699464 .63479617Z"/>
<path id="font_1_77" d="M.5349884 0V.0309906C.48298646 .0309906 .45799256 .0309906 .45700074 .061019899V.25221253C.45700074 .3383026 .45700074 .36932374 .42599488 .405365 .4119873 .42237855 .3789978 .4423828 .32099916 .4423828 .24798584 .4423828 .20098877 .39935304 .17298889 .33729554V.4423828L.03199768 .43066407V.3996582C.101989749 .3996582 .10998535 .39266969 .10998535 .34370423V.07595825C.10998535 .0309906 .09899902 .0309906 .03199768 .0309906V0L.14498902 .0029907227 .25698854 0V.0309906C.18998719 .0309906 .1789856 .0309906 .1789856 .07595825V.25978089C.1789856 .36431886 .25 .42037965 .31399537 .42037965 .3769989 .42037965 .3880005 .36631776 .3880005 .30926515V.076034549C.3880005 .0309906 .3769989 .0309906 .30999757 .0309906V0L.4229889 .0029907227 .5349884 0Z"/>
<path id="font_1_43" d="M.4149933 .119140628C.4149933 .12911988 .40499879 .12911988 .4019928 .12911988 .3929901 .12911988 .3909912 .12512207 .3889923 .119140628 .3600006 .026229859 .29499818 .014251709 .2579956 .014251709 .20498657 .014251709 .116989139 .0572052 .116989139 .21801758 .116989139 .38093568 .19898987 .42323304 .2519989 .42323304 .26098634 .42323304 .32398988 .42222596 .35899354 .38594056 .31799317 .38293458 .31199647 .3529358 .31199647 .3399353 .31199647 .31393434 .32998658 .2939453 .35798646 .2939453 .38398744 .2939453 .4039917 .3109436 .4039917 .34094239 .4039917 .40911866 .32798768 .4482422 .25099183 .4482422 .12599182 .4482422 .033996583 .3399353 .033996583 .21601868 .033996583 .08816528 .1329956-.0107421879 .24899292-.0107421879 .3829956-.0107421879 .4149933 .10914612 .4149933 .119140628Z"/>
<path id="font_1_88" d="M.19198609 .052993776C.19198609 .08198547 .16799927 .10598755 .13899231 .10598755 .10998535 .10598755 .085998538 .08198547 .085998538 .052993776 .085998538 .023986817 .10998535 0 .13899231 0 .16799927 0 .19198609 .023986817 .19198609 .052993776Z"/>
<path id="font_1_57" d="M.47099305 .16503906V.19602967H.37098695V.6507721C.37098695 .6707611 .37098695 .6767578 .35499574 .6767578 .34599305 .6767578 .34298707 .6767578 .33499146 .6647644L.027999878 .19602967V.16503906H.2939911V.07800293C.2939911 .041992189 .2919922 .0309906 .21798706 .0309906H.19699097V0C.23799134 .0029907227 .2899933 .0029907227 .33198548 .0029907227 .37399293 .0029907227 .4269867 .0029907227 .46798707 0V.0309906H.44699098C.37298585 .0309906 .37098695 .041992189 .37098695 .07800293V.16503906H.47099305M.2999878 .19602967H.055999757L.2999878 .56881716V.19602967Z"/>
<path id="font_1_56" d="M.44898988 .20091248C.44898988 .31991578 .36698915 .41992188 .25898744 .41992188 .21099854 .41992188 .16799927 .4039154 .13198853 .36891175V.5641022C.1519928 .55778506 .18499756 .55078127 .21699524 .55078127 .33999635 .55078127 .4099884 .6418457 .4099884 .65493777 .4099884 .6609802 .40699769 .6660156 .3999939 .6660156 .3999939 .66607668 .39698792 .66607668 .3919983 .66308596 .37199403 .65408328 .32299806 .63378909 .2559967 .63378909 .21598816 .63409426 .16999817 .641098 .12298584 .6621094 .114990238 .6651001 .11099243 .6651001 .11099243 .6651001 .100997928 .66508486 .100997928 .657074 .100997928 .64108279V.3447113C.100997928 .3266449 .100997928 .31861878 .114990238 .31861878 .12199402 .31861878 .12399292 .32164 .12799073 .32765199 .13899231 .34371949 .17599488 .3979187 .25698854 .3979187 .30899049 .3979187 .33399964 .3517456 .34199525 .3336792 .35798646 .2965393 .3600006 .2574005 .3600006 .20721436 .3600006 .17218018 .3600006 .112197879 .33599855 .07032776 .31199647 .031448366 .2749939 .0055389406 .22898865 .0055389406 .1559906 .0055389406 .09899902 .05836487 .08198547 .1171875 .084991458 .11685181 .08799744 .115859989 .09899902 .115859989 .13198853 .115859989 .14898682 .14085388 .14898682 .16485596 .14898682 .18885803 .13198853 .21386719 .09899902 .21386719 .084991458 .21386719 .049987794 .2068634 .049987794 .16085816 .049987794 .07432556 .11898804-.022460938 .23098755-.022460938 .34700013-.022460938 .44898988 .07331848 .44898988 .20019531V.20091248Z"/>
<path id="font_1_78" d="M.45700074 .32888795C.45700074 .598114 .34199525 .6660156 .25299073 .6660156 .19799805 .6660156 .14898682 .64801028 .10598755 .6031189 .06498718 .5580902 .041992189 .5160217 .041992189 .44091798 .041992189 .3158722 .12998963 .21777344 .24198914 .21777344 .30299378 .21777344 .34399415 .25979615 .36698915 .3178711V.28582765C.36698915 .05178833 .2630005 .0055389406 .20498657 .0055389406 .18798828 .0055389406 .13398743 .007537842 .10699463 .041778566 .15098572 .041778566 .15899658 .07078552 .15899658 .08778381 .15899658 .118774417 .1349945 .13378906 .11299133 .13378906 .09700012 .13378906 .066986087 .12478638 .066986087 .08578491 .066986087 .018615723 .12098694-.022460938 .20599365-.022460938 .33499146-.022460938 .45700074 .11378479 .45700074 .32888795M.36499024 .42089845C.36499024 .33789063 .33099366 .24076844 .24299622 .24076844 .22698975 .2407074 .18099976 .2407074 .1499939 .30371095 .13198853 .34072877 .13198853 .3908081 .13198853 .43988038 .13198853 .49397279 .13198853 .5410614 .15299988 .578125 .17999268 .62805178 .21798706 .64100649 .25299073 .64100649 .29899598 .64100649 .33198548 .60710147 .34899903 .562088 .36099244 .52989199 .36499024 .46688844 .36499024 .42089845Z"/>
<path id="font_1_101" d="M.45700074 .2036438C.45700074 .33070375 .36799623 .4267578 .25698854 .4267578 .18899536 .4267578 .1519928 .37573243 .13198853 .327713V.35173036C.13198853 .6047821 .2559967 .64100649 .30699159 .64100649 .33099366 .64100649 .37298585 .634964 .394989 .6007538 .37998963 .6007538 .33999635 .6007538 .33999635 .5557556 .33999635 .524765 .3639984 .5097656 .38598634 .5097656 .4019928 .5097656 .43199159 .51875308 .43199159 .5577545 .43199159 .6178589 .3880005 .6660156 .30499269 .6660156 .1769867 .6660156 .041992189 .5367584 .041992189 .31570436 .041992189 .048553468 .1579895-.022460938 .25099183-.022460938 .3619995-.022460938 .45700074 .07156372 .45700074 .2036438M.36698915 .20463562C.36698915 .15661621 .36698915 .10658264 .34999085 .0705719 .31999208 .010528564 .27398683 .0055389406 .25099183 .0055389406 .18798828 .0055389406 .1579895 .06556702 .1519928 .080566409 .13398743 .127594 .13398743 .2076416 .13398743 .22564698 .13398743 .30369569 .1659851 .40374757 .2559967 .40374757 .27198792 .40374757 .31799317 .40374757 .34899903 .34172059 .36698915 .30470277 .36698915 .2536621 .36698915 .20463562Z"/>
<path id="font_1_100" d="M.4850006 .6435547H.24198914C.11999512 .6435547 .117996219 .6566467 .11399841 .67578127H.08898926L.055999757 .46954347H.08099365C.083999637 .48554994 .09298706 .54855349 .10598755 .5605469 .11299133 .5665436 .19099427 .5665436 .20399475 .5665436H.41099549L.29899598 .40853883C.20899964 .2735443 .17599488 .13453675 .17599488 .03253174 .17599488 .022537232 .17599488-.022460938 .22200012-.022460938 .2679901-.022460938 .2679901 .022537232 .2679901 .03253174V.08354187C.2679901 .13853455 .2709961 .19354248 .2789917 .24754334 .2829895 .27053834 .29699708 .35653688 .34098817 .41854859L.47599793 .608551C.4850006 .62054446 .4850006 .62254336 .4850006 .6435547Z"/>
</defs>
<use data-text="s" xlink:href="#font_1_98" transform="matrix(9.963397,0,0,-9.963197,23.608452,143.53072)"/>
<use data-text="t" xlink:href="#font_1_105" transform="matrix(9.963397,0,0,-9.963197,27.534028,143.53072)"/>
<use data-text="a" xlink:href="#font_1_28" transform="matrix(9.963397,0,0,-9.963197,31.40979,143.53072)"/>
<use data-text="r" xlink:href="#font_1_96" transform="matrix(9.963397,0,0,-9.963197,36.39148,143.53072)"/>
<use data-text="t" xlink:href="#font_1_105" transform="matrix(9.963397,0,0,-9.963197,40.297136,143.53072)"/>
<path transform="matrix(1.00008,0,0,-1.00006,37.876596,133.88314)" stroke-width="1.99255" stroke-linecap="butt" stroke-miterlimit="10" stroke-linejoin="miter" fill="none" stroke="#000000" d="M0 0 229.22927 45.59088"/>
<path transform="matrix(.98081848,-.1950617,-.1950656,-.98079887,267.1242,88.28952)" d="M4.38364 0-2.63017 3.50691 0 0-2.63017-3.50691"/>
<use data-text="1" xlink:href="#font_1_82" transform="matrix(9.771502,-1.9435209,-1.9435598,-9.771306,120.715167,128.8595)"/>
<use data-text="h" xlink:href="#font_1_63" transform="matrix(9.771502,-1.9435209,-1.9435598,-9.771306,128.84505,127.2425)"/>
<use data-text="o" xlink:href="#font_1_81" transform="matrix(9.771502,-1.9435209,-1.9435598,-9.771306,134.278,126.1619)"/>
<use data-text="u" xlink:href="#font_1_109" transform="matrix(9.771502,-1.9435209,-1.9435598,-9.771306,139.16374,125.19015)"/>
<use data-text="s" xlink:href="#font_1_98" transform="matrix(9.771502,-1.9435209,-1.9435598,-9.771306,144.5967,124.10955)"/>
<use data-text="e" xlink:href="#font_1_50" transform="matrix(9.771502,-1.9435209,-1.9435598,-9.771306,148.44666,123.3438)"/>
<use data-text="," xlink:href="#font_1_45" transform="matrix(9.771502,-1.9435209,-1.9435598,-9.771306,152.78522,122.48087)"/>
<use data-text="1" xlink:href="#font_1_82" transform="matrix(9.771502,-1.9435209,-1.9435598,-9.771306,158.75562,121.29339)"/>
<use data-text="2" xlink:href="#font_1_107" transform="matrix(9.771502,-1.9435209,-1.9435598,-9.771306,163.64136,120.321628)"/>
<use data-text="0" xlink:href="#font_1_121" transform="matrix(9.771502,-1.9435209,-1.9435598,-9.771306,168.5271,119.34986)"/>
<use data-text="N" xlink:href="#font_1_76" transform="matrix(9.771502,-1.9435209,-1.9435598,-9.771306,176.66677,117.73092)"/>
<use data-text="M" xlink:href="#font_1_74" transform="matrix(9.771502,-1.9435209,-1.9435598,-9.771306,183.99539,116.27328)"/>
<path transform="matrix(1.00008,0,0,-1.00006,37.876596,133.88314)" stroke-width="1.99255" stroke-linecap="butt" stroke-miterlimit="10" stroke-linejoin="miter" fill="none" stroke="#000000" d="M0 0 215.92653 89.4372"/>
<path transform="matrix(.9239039,-.38265295,-.3826606,-.92388537,253.8204,44.440568)" d="M4.38364 0-2.63017 3.50691 0 0-2.63017-3.50691"/>
<use data-text="2" xlink:href="#font_1_107" transform="matrix(9.204485,-3.812218,-3.8122946,-9.2043,116.32872,113.54451)"/>
<use data-text="h" xlink:href="#font_1_63" transform="matrix(9.204485,-3.812218,-3.8122946,-9.2043,123.98685,110.37275)"/>
<use data-text="o" xlink:href="#font_1_81" transform="matrix(9.204485,-3.812218,-3.8122946,-9.2043,129.10454,108.25316)"/>
<use data-text="u" xlink:href="#font_1_109" transform="matrix(9.204485,-3.812218,-3.8122946,-9.2043,133.70677,106.347049)"/>
<use data-text="s" xlink:href="#font_1_98" transform="matrix(9.204485,-3.812218,-3.8122946,-9.2043,138.82447,104.22746)"/>
<use data-text="e" xlink:href="#font_1_50" transform="matrix(9.204485,-3.812218,-3.8122946,-9.2043,142.45104,102.72545)"/>
<use data-text="s" xlink:href="#font_1_98" transform="matrix(9.204485,-3.812218,-3.8122946,-9.2043,146.53783,101.03282)"/>
<use data-text="," xlink:href="#font_1_45" transform="matrix(9.204485,-3.812218,-3.8122946,-9.2043,150.16439,99.53081)"/>
<use data-text="1" xlink:href="#font_1_82" transform="matrix(9.204485,-3.812218,-3.8122946,-9.2043,155.78835,97.20154)"/>
<use data-text="2" xlink:href="#font_1_107" transform="matrix(9.204485,-3.812218,-3.8122946,-9.2043,160.39058,95.29543)"/>
<use data-text="0" xlink:href="#font_1_121" transform="matrix(9.204485,-3.812218,-3.8122946,-9.2043,164.99282,93.38933)"/>
<use data-text="N" xlink:href="#font_1_76" transform="matrix(9.204485,-3.812218,-3.8122946,-9.2043,172.66014,90.213748)"/>
<use data-text="M" xlink:href="#font_1_74" transform="matrix(9.204485,-3.812218,-3.8122946,-9.2043,179.5635,87.35458)"/>
<path transform="matrix(1.00008,0,0,-1.00006,37.876596,133.88314)" stroke-width="1.99255" stroke-linecap="butt" stroke-miterlimit="10" stroke-linejoin="miter" fill="none" stroke="#000000" d="M0 0 194.32878 129.84467"/>
<path transform="matrix(.8315065,-.55557337,-.5555845,-.8314898,232.22092,4.0306856)" d="M4.38364 0-2.63017 3.50691 0 0-2.63017-3.50691"/>
<use data-text="3" xlink:href="#font_1_106" transform="matrix(8.283966,-5.534955,-5.535066,-8.2838,110.853458,98.63068)"/>
<use data-text="h" xlink:href="#font_1_63" transform="matrix(8.283966,-5.534955,-5.535066,-8.2838,117.74573,94.0256)"/>
<use data-text="o" xlink:href="#font_1_81" transform="matrix(8.283966,-5.534955,-5.535066,-8.2838,122.35159,90.948169)"/>
<use data-text="u" xlink:href="#font_1_109" transform="matrix(8.283966,-5.534955,-5.535066,-8.2838,126.493579,88.18069)"/>
<use data-text="s" xlink:href="#font_1_98" transform="matrix(8.283966,-5.534955,-5.535066,-8.2838,131.09946,85.10326)"/>
<use data-text="e" xlink:href="#font_1_50" transform="matrix(8.283966,-5.534955,-5.535066,-8.2838,134.36334,82.922489)"/>
<use data-text="s" xlink:href="#font_1_98" transform="matrix(8.283966,-5.534955,-5.535066,-8.2838,138.04143,80.464969)"/>
<use data-text="," xlink:href="#font_1_45" transform="matrix(8.283966,-5.534955,-5.535066,-8.2838,141.30532,78.284198)"/>
<use data-text="1" xlink:href="#font_1_82" transform="matrix(8.283966,-5.534955,-5.535066,-8.2838,146.36682,74.90233)"/>
<use data-text="2" xlink:href="#font_1_107" transform="matrix(8.283966,-5.534955,-5.535066,-8.2838,150.50879,72.13486)"/>
<use data-text="0" xlink:href="#font_1_121" transform="matrix(8.283966,-5.534955,-5.535066,-8.2838,154.65077,69.367389)"/>
<use data-text="N" xlink:href="#font_1_76" transform="matrix(8.283966,-5.534955,-5.535066,-8.2838,161.55132,64.75677)"/>
<use data-text="M" xlink:href="#font_1_74" transform="matrix(8.283966,-5.534955,-5.535066,-8.2838,167.7643,60.605546)"/>
<path transform="matrix(1.00008,0,0,-1.00006,37.876596,133.88314)" stroke-width=".3985" stroke-linecap="butt" stroke-dasharray="2.98883,2.98883" stroke-miterlimit="10" stroke-linejoin="miter" fill="none" stroke="#000000" d="M0 0H233.53763"/>
<use data-text="r" xlink:href="#font_1_96" transform="matrix(9.963397,0,0,-9.963197,120.13617,144.52677)"/>
<use data-text="e" xlink:href="#font_1_50" transform="matrix(9.963397,0,0,-9.963197,124.041828,144.52677)"/>
<use data-text="f" xlink:href="#font_1_55" transform="matrix(9.963397,0,0,-9.963197,128.46558,144.52677)"/>
<use data-text="e" xlink:href="#font_1_50" transform="matrix(9.963397,0,0,-9.963197,131.51438,144.52677)"/>
<use data-text="r" xlink:href="#font_1_96" transform="matrix(9.963397,0,0,-9.963197,135.93811,144.52677)"/>
<use data-text="e" xlink:href="#font_1_50" transform="matrix(9.963397,0,0,-9.963197,139.84378,144.52677)"/>
<use data-text="n" xlink:href="#font_1_77" transform="matrix(9.963397,0,0,-9.963197,144.26752,144.52677)"/>
<use data-text="c" xlink:href="#font_1_43" transform="matrix(9.963397,0,0,-9.963197,149.80716,144.52677)"/>
<use data-text="e" xlink:href="#font_1_50" transform="matrix(9.963397,0,0,-9.963197,154.23093,144.52677)"/>
<use data-text="c" xlink:href="#font_1_43" transform="matrix(9.963397,0,0,-9.963197,161.96253,144.52677)"/>
<use data-text="o" xlink:href="#font_1_81" transform="matrix(9.963397,0,0,-9.963197,166.38629,144.52677)"/>
<use data-text="u" xlink:href="#font_1_109" transform="matrix(9.963397,0,0,-9.963197,171.36798,144.52677)"/>
<use data-text="r" xlink:href="#font_1_96" transform="matrix(9.963397,0,0,-9.963197,176.90763,144.52677)"/>
<use data-text="s" xlink:href="#font_1_98" transform="matrix(9.963397,0,0,-9.963197,180.81327,144.52677)"/>
<use data-text="e" xlink:href="#font_1_50" transform="matrix(9.963397,0,0,-9.963197,184.73883,144.52677)"/>
<path transform="matrix(1.00008,0,0,-1.00006,37.876596,133.88314)" stroke-width=".3985" stroke-linecap="butt" stroke-dasharray="2.98883,2.98883" stroke-miterlimit="10" stroke-linejoin="miter" fill="none" stroke="#000000" d="M233.53763 0V46.45496"/>
<use data-text="2" xlink:href="#font_1_107" transform="matrix(9.963397,0,0,-9.963197,275.05256,113.94694)"/>
<use data-text="3" xlink:href="#font_1_106" transform="matrix(9.963397,0,0,-9.963197,280.03425,113.94694)"/>
<use data-text="." xlink:href="#font_1_88" transform="matrix(9.963397,0,0,-9.963197,285.01597,113.94694)"/>
<use data-text="4" xlink:href="#font_1_57" transform="matrix(9.963397,0,0,-9.963197,287.78578,113.94694)"/>
<use data-text="N" xlink:href="#font_1_76" transform="matrix(9.963397,0,0,-9.963197,296.07533,113.94694)"/>
<use data-text="M" xlink:href="#font_1_74" transform="matrix(9.963397,0,0,-9.963197,303.54789,113.94694)"/>
<path transform="matrix(1.00008,0,0,-1.00006,37.876596,133.88314)" stroke-width=".3985" stroke-linecap="butt" stroke-dasharray="2.98883,2.98883" stroke-miterlimit="10" stroke-linejoin="miter" fill="none" stroke="#000000" d="M219.97626 0V91.1145"/>
<use data-text="4" xlink:href="#font_1_57" transform="matrix(9.963397,0,0,-9.963197,261.49049,70.65934)"/>
<use data-text="5" xlink:href="#font_1_56" transform="matrix(9.963397,0,0,-9.963197,266.47218,70.65934)"/>
<use data-text="." xlink:href="#font_1_88" transform="matrix(9.963397,0,0,-9.963197,271.45387,70.65934)"/>
<use data-text="9" xlink:href="#font_1_78" transform="matrix(9.963397,0,0,-9.963197,274.2237,70.65934)"/>
<use data-text="N" xlink:href="#font_1_76" transform="matrix(9.963397,0,0,-9.963197,282.51325,70.65934)"/>
<use data-text="M" xlink:href="#font_1_74" transform="matrix(9.963397,0,0,-9.963197,289.98579,70.65934)"/>
<path transform="matrix(1.00008,0,0,-1.00006,37.876596,133.88314)" stroke-width=".3985" stroke-linecap="butt" stroke-dasharray="2.98883,2.98883" stroke-miterlimit="10" stroke-linejoin="miter" fill="none" stroke="#000000" d="M197.97348 0V132.27997"/>
<use data-text="6" xlink:href="#font_1_101" transform="matrix(9.963397,0,0,-9.963197,239.48572,24.730584)"/>
<use data-text="6" xlink:href="#font_1_101" transform="matrix(9.963397,0,0,-9.963197,244.46743,24.730584)"/>
<use data-text="." xlink:href="#font_1_88" transform="matrix(9.963397,0,0,-9.963197,249.44913,24.730584)"/>
<use data-text="7" xlink:href="#font_1_100" transform="matrix(9.963397,0,0,-9.963197,252.21895,24.730584)"/>
<use data-text="N" xlink:href="#font_1_76" transform="matrix(9.963397,0,0,-9.963197,260.50849,24.730584)"/>
<use data-text="M" xlink:href="#font_1_74" transform="matrix(9.963397,0,0,-9.963197,267.98106,24.730584)"/>
<path transform="matrix(1.00008,0,0,-1.00006,37.876596,133.88314)" stroke-width=".3985" stroke-linecap="butt" stroke-miterlimit="10" stroke-linejoin="miter" fill="none" stroke="#000000" d="M-19.45937-3.86942"/>
<path transform="matrix(1.00008,0,0,-1.00006,37.876596,133.88314)" d="M-36.77711-3.99005-31.43765-1.7722-9.1952 2.65167-3.41347 2.64581-8.75284 .42754-30.99527-3.99635Z" fill="#993300" fill-opacity=".1"/>
<path transform="matrix(1.00008,0,0,-1.00006,37.876596,133.88314)" d="M-35.50526-10.38464-29.72351-10.39052-7.48106-5.96661-2.1416-3.74876-7.92345-3.74248-30.1659-8.16637Z" fill="#993300" fill-opacity=".1"/>
<path transform="matrix(1.00008,0,0,-1.00006,37.876596,133.88314)" d="M-30.99527-3.99635-30.1659-8.16637-10.70377-4.29546-11.53316-.12544Z" fill="#993300" fill-opacity=".04"/>
<path transform="matrix(1.00008,0,0,-1.00006,37.876596,133.88314)" d="M-11.25667-1.5156-10.98026-2.9053-6.8098-2.07582-7.0862-.68611Z" fill="#993300" fill-opacity=".1"/>
<path transform="matrix(1.00008,0,0,-1.00006,37.876596,133.88314)" stroke-width=".3985" stroke-linecap="butt" stroke-miterlimit="10" stroke-linejoin="miter" fill="none" stroke="#993300" d="M-3.41347 2.64581-9.1952 2.65167"/>
<path transform="matrix(1.00008,0,0,-1.00006,37.876596,133.88314)" stroke-width=".3985" stroke-linecap="butt" stroke-miterlimit="10" stroke-linejoin="miter" fill="none" stroke="#993300" d="M-9.1952 2.65167-31.43765-1.7722"/>
<path transform="matrix(1.00008,0,0,-1.00006,37.876596,133.88314)" stroke-width=".3985" stroke-linecap="butt" stroke-miterlimit="10" stroke-linejoin="miter" fill="none" stroke="#993300" d="M-31.43765-1.7722-36.77711-3.99005"/>
<path transform="matrix(1.00008,0,0,-1.00006,37.876596,133.88314)" stroke-width=".3985" stroke-linecap="butt" stroke-miterlimit="10" stroke-linejoin="miter" fill="none" stroke="#993300" d="M-36.77711-3.99005-30.99527-3.99635"/>
<path transform="matrix(1.00008,0,0,-1.00006,37.876596,133.88314)" stroke-width=".3985" stroke-linecap="butt" stroke-miterlimit="10" stroke-linejoin="miter" fill="none" stroke="#993300" d="M-30.99527-3.99635-8.75284 .42754"/>
<path transform="matrix(1.00008,0,0,-1.00006,37.876596,133.88314)" stroke-width=".3985" stroke-linecap="butt" stroke-miterlimit="10" stroke-linejoin="miter" fill="none" stroke="#993300" d="M-8.75284 .42754-3.41347 2.64581"/>
<path transform="matrix(1.00008,0,0,-1.00006,37.876596,133.88314)" stroke-width=".3985" stroke-linecap="butt" stroke-miterlimit="10" stroke-linejoin="miter" fill="none" stroke="#993300" d="M-2.1416-3.74876-7.48106-5.96661"/>
<path transform="matrix(1.00008,0,0,-1.00006,37.876596,133.88314)" stroke-width=".3985" stroke-linecap="butt" stroke-miterlimit="10" stroke-linejoin="miter" fill="none" stroke="#993300" d="M-7.48106-5.96661-29.72351-10.39052"/>
<path transform="matrix(1.00008,0,0,-1.00006,37.876596,133.88314)" stroke-width=".3985" stroke-linecap="butt" stroke-miterlimit="10" stroke-linejoin="miter" fill="none" stroke="#993300" d="M-29.72351-10.39052-35.50526-10.38464"/>
<path transform="matrix(1.00008,0,0,-1.00006,37.876596,133.88314)" stroke-width=".3985" stroke-linecap="butt" stroke-miterlimit="10" stroke-linejoin="miter" fill="none" stroke="#993300" d="M-35.50526-10.38464-30.1659-8.16637"/>
<path transform="matrix(1.00008,0,0,-1.00006,37.876596,133.88314)" stroke-width=".3985" stroke-linecap="butt" stroke-miterlimit="10" stroke-linejoin="miter" fill="none" stroke="#993300" d="M-30.1659-8.16637-7.92345-3.74248"/>
<path transform="matrix(1.00008,0,0,-1.00006,37.876596,133.88314)" stroke-width=".3985" stroke-linecap="butt" stroke-miterlimit="10" stroke-linejoin="miter" fill="none" stroke="#993300" d="M-7.92345-3.74248-2.1416-3.74876"/>
<path transform="matrix(1.00008,0,0,-1.00006,37.876596,133.88314)" stroke-width=".3985" stroke-linecap="butt" stroke-miterlimit="10" stroke-linejoin="miter" fill="none" stroke="#993300" d="M-30.99527-3.99635-30.1659-8.16637"/>
<path transform="matrix(1.00008,0,0,-1.00006,37.876596,133.88314)" stroke-width=".3985" stroke-linecap="butt" stroke-miterlimit="10" stroke-linejoin="miter" fill="none" stroke="#993300" d="M-30.1659-8.16637-10.70377-4.29546"/>
<path transform="matrix(1.00008,0,0,-1.00006,37.876596,133.88314)" stroke-width=".3985" stroke-linecap="butt" stroke-miterlimit="10" stroke-linejoin="miter" fill="none" stroke="#993300" d="M-10.70377-4.29546-11.53316-.12544"/>
<path transform="matrix(1.00008,0,0,-1.00006,37.876596,133.88314)" stroke-width=".3985" stroke-linecap="butt" stroke-miterlimit="10" stroke-linejoin="miter" fill="none" stroke="#993300" d="M-11.53316-.12544-30.99527-3.99635"/>
<path transform="matrix(1.00008,0,0,-1.00006,37.876596,133.88314)" stroke-width=".3985" stroke-linecap="butt" stroke-miterlimit="10" stroke-linejoin="miter" fill="none" stroke="#993300" d="M-11.25667-1.5156-10.98026-2.9053"/>
<path transform="matrix(1.00008,0,0,-1.00006,37.876596,133.88314)" stroke-width=".3985" stroke-linecap="butt" stroke-miterlimit="10" stroke-linejoin="miter" fill="none" stroke="#993300" d="M-10.98026-2.9053-6.8098-2.07582"/>
<path transform="matrix(1.00008,0,0,-1.00006,37.876596,133.88314)" stroke-width=".3985" stroke-linecap="butt" stroke-miterlimit="10" stroke-linejoin="miter" fill="none" stroke="#993300" d="M-6.8098-2.07582-7.0862-.68611"/>
<path transform="matrix(1.00008,0,0,-1.00006,37.876596,133.88314)" stroke-width=".3985" stroke-linecap="butt" stroke-miterlimit="10" stroke-linejoin="miter" fill="none" stroke="#993300" d="M-7.0862-.68611-11.25667-1.5156"/>
<path transform="matrix(1.00008,0,0,-1.00006,37.876596,133.88314)" stroke-width=".3985" stroke-linecap="butt" stroke-miterlimit="10" stroke-linejoin="miter" fill="none" stroke="#993300" d="M-8.75284 .42754-7.92345-3.74248"/>
<path transform="matrix(1.00008,0,0,-1.00006,37.876596,133.88314)" stroke-width=".3985" stroke-linecap="butt" stroke-miterlimit="10" stroke-linejoin="miter" fill="none" stroke="#993300" d="M-22.14389-4.90385C-21.87799-4.85098-21.70532-4.59254-21.7582-4.32664-21.81107-4.06075-22.0695-3.88806-22.3354-3.94093-22.6013-3.9938-22.77399-4.25226-22.72112-4.51816-22.66824-4.78406-22.40979-4.95674-22.14389-4.90385ZM-22.23965-4.4224"/>
<path transform="matrix(1.00008,0,0,-1.00006,37.876596,133.88314)" stroke-width=".3985" stroke-linecap="butt" stroke-miterlimit="10" stroke-linejoin="miter" fill="none" stroke="#993300" d="M-12.41284-2.96841C-12.14696-2.91553-11.97427-2.65709-12.02715-2.39119-12.08002-2.12529-12.33847-1.9526-12.60437-2.00548-12.87025-2.05835-13.04294-2.3168-12.99007-2.5827-12.9372-2.8486-12.67874-3.02129-12.41284-2.96841ZM-12.5086-2.48694"/>
<path transform="matrix(1.00008,0,0,-1.00006,37.876596,133.88314)" stroke-width=".3985" stroke-linecap="butt" stroke-miterlimit="10" stroke-linejoin="miter" fill="none" stroke="#000000" d="M225.60182 0V7.9357H233.53763"/>
</svg>
