<svg xmlns="http://www.w3.org/2000/svg" xmlns:xlink="http://www.w3.org/1999/xlink" version="1.1" width="207" height="171" viewBox="0 0 207 171">
<defs>
<path id="font_1_1" d="M.6589966 .23046875C.6759949 .23046875 .69400027 .23046875 .69400027 .25045777 .69400027 .27046205 .6759949 .27046205 .6589966 .27046205H.117996219C.100997928 .27046205 .08299255 .27046205 .08299255 .25045777 .08299255 .23046875 .100997928 .23046875 .117996219 .23046875H.6589966Z"/>
<path id="font_2_3" d="M.1269989 .07699585 .23298645 .18003845C.3889923 .31811524 .44898988 .3721466 .44898988 .47216798 .44898988 .5860901 .35899354 .6660156 .23699951 .6660156 .12399292 .6660156 .049987794 .57411196 .049987794 .48516847 .049987794 .4291687 .099990848 .4291687 .102996829 .4291687 .11999512 .4291687 .15499878 .44117738 .15499878 .48217774 .15499878 .5081787 .13699341 .5341797 .101989749 .5341797 .09399414 .5341797 .09199524 .5341797 .08898926 .5331726 .11199951 .59806826 .1659851 .63500979 .22399903 .63500979 .31498719 .63500979 .35798646 .5541382 .35798646 .47216798 .35798646 .39215089 .30799867 .31311036 .25299073 .25108338L.06098938 .036987306C.049987794 .025985718 .049987794 .023986817 .049987794 0H.42099L.44898988 .17404175H.42399598C.4189911 .14402771 .4119873 .1000061 .4019928 .084991458 .394989 .07699585 .32899476 .07699585 .30699159 .07699585H.1269989Z"/>
<path id="font_3_1" d="M.2649994 .37265016H.37799073C.34498597 .22489929 .33599855 .18196106 .33599855 .11508179 .33599855 .100097659 .33599855 .073150638 .34399415 .03919983 .35398866-.0047454836 .36499024-.0107421879 .37998963-.0107421879 .3999939-.0107421879 .42099 .007247925 .42099 .02722168 .42099 .033218385 .42099 .035202028 .4149933 .049179079 .38598634 .12106323 .38598634 .18595886 .38598634 .21391297 .38598634 .26683045 .3929901 .32073976 .4039917 .37265016H.5179901C.5309906 .37265016 .5669861 .37265016 .5669861 .406662 .5669861 .43066407 .54599 .43066407 .5269928 .43066407H.19198609C.16999817 .43066407 .13198853 .43066407 .08799744 .38365174 .052993776 .34469605 .026992798 .29878236 .026992798 .29379273 .026992798 .29278565 .026992798 .28379823 .038986207 .28379823 .04699707 .28379823 .04899597 .28779603 .054992677 .29577638 .10398865 .37265016 .1619873 .37265016 .18199158 .37265016H.23899842C.20698548 .25186158 .15299988 .13105774 .11099243 .04020691 .102996829 .025222779 .102996829 .023223877 .102996829 .016235352 .102996829-.002746582 .11898804-.0107421879 .13198853-.0107421879 .1619873-.0107421879 .16999817 .017242432 .18199158 .05418396 .19599915 .100097659 .19599915 .10209656 .20899964 .15202332L.2649994 .37265016Z"/>
<path id="font_4_2" d="M.272995 .33428956C.35099793 .33428956 .40699769 .2803192 .40699769 .1733551 .40699769 .04940796 .33499146 .012466431 .2769928 .012466431 .23699951 .012466431 .14898682 .0234375 .10699463 .082351688 .1539917 .084350589 .16499329 .11735535 .16499329 .13835144 .16499329 .17034912 .14099121 .19335938 .10998535 .19335938 .08198547 .19335938 .053985597 .17634583 .053985597 .13534546 .053985597 .041412355 .1579895-.01953125 .2789917-.01953125 .41799928-.01953125 .5139923 .07336426 .5139923 .1733551 .5139923 .2513275 .44999696 .32929994 .33999635 .35229493 .44499208 .39024354 .48298646 .4650879 .48298646 .5260773 .48298646 .60505679 .3919983 .6640625 .2809906 .6640625 .16999817 .6640625 .084991458 .61006167 .084991458 .5300751 .084991458 .49606324 .10699463 .47706605 .13699341 .47706605 .16799927 .47706605 .18798828 .5000763 .18798828 .5280762 .18798828 .5570679 .16799927 .57806399 .13699341 .5800781 .17199707 .62405398 .24099732 .63505557 .27799989 .63505557 .32299806 .63505557 .38598634 .6130676 .38598634 .5260773 .38598634 .48406983 .37199403 .43814088 .34599305 .4072113 .31298829 .36927796 .2849884 .3672943 .23498535 .36428834 .20999146 .3623047 .20799256 .3623047 .20298767 .3612976 .20098877 .3612976 .19299317 .3592987 .19299317 .34829713 .19299317 .33428956 .20199585 .33428956 .21899414 .33428956H.272995Z"/>
<path id="font_5_1" d="M.31098939 .36265565H.42999269C.4149933 .30274964 .3929901 .2118988 .3929901 .13302613 .3929901 .09309387 .397995 .06613159 .4039917 .044174196 .41999818-.0057678224 .43299867-.009765625 .44898988-.009765625 .47200013-.009765625 .49598695 .011230469 .49598695 .035186769 .49598695 .043182374 .49398805 .047164918 .48799134 .057159425 .46899415 .09408569 .45098878 .15100098 .45098878 .23286438 .45098878 .25183106 .45098878 .29177857 .46499635 .36265565H.58999636C.60798647 .36265565 .6159973 .36265565 .6269989 .37065126 .6409912 .380661 .6439972 .39665223 .6439972 .4016571 .6439972 .43066407 .6179962 .43066407 .6009979 .43066407H.22399903C.18299866 .43066407 .15499878 .42166139 .10998535 .37965394 .083999637 .35665895 .04499817 .30274964 .04499817 .2937622 .04499817 .28178407 .057998659 .28178407 .06199646 .28178407 .07299805 .28178407 .07398987 .28378297 .07998657 .2927704 .1309967 .36265565 .19299317 .36265565 .21499634 .36265565H.27598573C.24499512 .25283814 .19099427 .13502503 .16099549 .07511902 .15499878 .062149049 .14498902 .04118347 .14199829 .03718567 .14099121 .033187868 .13899231 .029190064 .13899231 .022201539 .13899231 .006225586 .15098572-.009765625 .17399597-.009765625 .21398926-.009765625 .22499085 .035186769 .24899292 .12504578L.31098939 .36265565Z"/>
<path id="font_4_1" d="M.5049896 .18203736H.47099305C.46798707 .16001892 .45799256 .100997928 .44499208 .09098816 .43699647 .084991458 .3600006 .084991458 .34599305 .084991458H.1619873C.2669983 .17803955 .3019867 .20603943 .3619995 .25306703 .43598939 .312088 .5049896 .374115 .5049896 .46914674 .5049896 .5900879 .39898683 .6640625 .2709961 .6640625 .14698792 .6640625 .06298828 .57710269 .06298828 .4851532 .06298828 .43414308 .10598755 .42915345 .115997318 .42915345 .13999939 .42915345 .16899109 .44615174 .16899109 .48214723 .16899109 .5001526 .1619873 .53515627 .10998535 .53515627 .14099121 .6060791 .20899964 .62805178 .2559967 .62805178 .35598756 .62805178 .4079895 .5501404 .4079895 .46914674 .4079895 .38212586 .34599305 .3130951 .31399537 .27708436L.07299805 .038986207C.06298828 .02999878 .06298828 .027999878 .06298828 0H.47499085L.5049896 .18203736Z"/>
<path id="font_2_2" d="M.2939911 .64004519C.2939911 .66400149 .2939911 .6660156 .2709961 .6660156 .20899964 .60227969 .12098694 .60227969 .08898926 .60227969V.57128909C.10899353 .57128909 .16799927 .57128909 .21998596 .5972748V.07902527C.21998596 .042999269 .21699524 .0309906 .1269989 .0309906H.09498596V0C.12998963 .0029907227 .21699524 .0029907227 .25698854 .0029907227 .29699708 .0029907227 .38398744 .0029907227 .4189911 0V.0309906H.3869934C.29699708 .0309906 .2939911 .041992189 .2939911 .07902527V.64004519Z"/>
<path id="font_2_1" d="M.45999146 .31976319C.45999146 .39982606 .45498658 .47988893 .41999818 .5539398 .37399293 .65000918 .2919922 .6660156 .25 .6660156 .18998719 .6660156 .116989139 .64001467 .07598877 .54693606 .04399109 .47789 .038986207 .39982606 .038986207 .31976319 .038986207 .24472046 .042999269 .15464783 .083999637 .07859802 .1269989-.0024719239 .19999695-.022460938 .24899292-.022460938 .30299378-.022460938 .3789978-.0014648438 .4229889 .09359741 .45498658 .16265869 .45999146 .2407074 .45999146 .31976319M.24899292-.00047302247C.20999146-.00047302247 .15098572 .024551392 .1329956 .12062073 .12199402 .18066406 .12199402 .2727356 .12199402 .3317871 .12199402 .39582826 .12199402 .46188355 .12998963 .5159149 .14898682 .63500979 .22399903 .64401248 .24899292 .64401248 .28199769 .64401248 .34799195 .6259918 .36698915 .52693179 .3769989 .47088624 .3769989 .39482118 .3769989 .3317871 .3769989 .25672914 .3769989 .18867493 .3659973 .12461853 .35099793 .029556275 .2939911-.00047302247 .24899292-.00047302247Z"/>
<path id="font_2_4" d="M.44898988 .20022583C.44898988 .3193512 .36698915 .41944886 .25898744 .41944886 .21099854 .41944886 .16799927 .40345765 .13198853 .36842347V.5637665C.1519928 .5577698 .18499756 .55078127 .21699524 .55078127 .33999635 .55078127 .4099884 .6417694 .4099884 .6547699 .4099884 .6607666 .40699769 .6657715 .3999939 .6657715 .39898683 .6657715 .39698792 .6657715 .3919983 .66278079 .37199403 .6537781 .32299806 .6337738 .2559967 .6337738 .21598816 .6337738 .16999817 .6407776 .12298584 .6617737 .114990238 .66477969 .11299133 .66477969 .11099243 .66477969 .100997928 .66477969 .100997928 .6567688 .100997928 .6407776V.34439088C.100997928 .32637025 .100997928 .31835938 .114990238 .31835938 .12199402 .31835938 .12399292 .32136537 .12799073 .32736207 .13899231 .3433838 .17599488 .39746095 .25698854 .39746095 .30899049 .39746095 .33399964 .35139466 .34199525 .33337403 .35798646 .29632569 .3600006 .25727845 .3600006 .20722962 .3600006 .17222595 .3600006 .11222839 .33599855 .07035828 .31199647 .031463624 .2749939 .0055389406 .22898865 .0055389406 .1559906 .0055389406 .09899902 .058380128 .08198547 .11723328 .084991458 .1162262 .08799744 .115234378 .09899902 .115234378 .13198853 .115234378 .14898682 .14022827 .14898682 .16423035 .14898682 .18823242 .13198853 .21322632 .09899902 .21322632 .084991458 .21322632 .049987794 .20622254 .049987794 .16023255 .049987794 .07434082 .11898804-.022460938 .23098755-.022460938 .34700013-.022460938 .44898988 .073349 .44898988 .20022583Z"/>
<path id="font_3_2" d="M.33399964 .30233766C.33999635 .32835389 .36299134 .42037965 .43299867 .42037965 .43798829 .42037965 .46199037 .42037965 .48298646 .40734864 .45498658 .402359 .43499757 .37734986 .43499757 .35334779 .43499757 .33735658 .44599916 .31835938 .47299195 .31835938 .49499513 .31835938 .5269928 .3363495 .5269928 .37635804 .5269928 .42837525 .46798707 .4423828 .43399049 .4423828 .37599183 .4423828 .34098817 .38935853 .32899476 .36634828 .3039856 .43237306 .25 .4423828 .22099304 .4423828 .116989139 .4423828 .05999756 .3133545 .05999756 .28834535 .05999756 .27833558 .069992069 .27833558 .07199097 .27833558 .07998657 .27833558 .08299255 .28033448 .084991458 .28933717 .11898804 .39535523 .18499756 .42037965 .21899414 .42037965 .23799134 .42037965 .272995 .4113617 .272995 .35334779 .272995 .32235719 .2559967 .25532533 .21899414 .11528015 .20298767 .053268434 .16799927 .011245728 .12399292 .011245728 .117996219 .011245728 .09498596 .011245728 .07398987 .024276734 .09899902 .029266358 .12098694 .05027771 .12098694 .07827759 .12098694 .105270389 .09899902 .11328125 .083999637 .11328125 .053985597 .11328125 .0289917 .08728027 .0289917 .055267335 .0289917 .009246826 .07899475-.0107421879 .12298584-.0107421879 .18899536-.0107421879 .22499085 .059280397 .22799683 .0652771 .23999024 .028274537 .27598573-.0107421879 .33599855-.0107421879 .43899537-.0107421879 .49598695 .118270877 .49598695 .14328003 .49598695 .1532898 .4869995 .1532898 .48399354 .1532898 .47499085 .1532898 .47299195 .14929199 .47099305 .14228821 .43798829 .03527832 .36999513 .011245728 .33799745 .011245728 .29899598 .011245728 .2829895 .043273927 .2829895 .07727051 .2829895 .09927368 .2889862 .121276859 .2999878 .16529846L.33399964 .30233766Z"/>
<path id="font_3_3" d="M.48599244 .38136292C.48999024 .39537049 .48999024 .39736939 .48999024 .40437318 .48999024 .42237855 .47599793 .43138124 .46099855 .43138124 .45098878 .43138124 .43499757 .42536927 .42599488 .41036988 .42399598 .405365 .41600038 .37435914 .4119873 .35635377 .40499879 .33035279 .397995 .30334474 .3919983 .27633668L.34700013 .09628296C.34298707 .08126831 .2999878 .011245728 .23399353 .011245728 .18299866 .011245728 .17199707 .055267335 .17199707 .0922699 .17199707 .1382904 .18899536 .20030213 .22299195 .28833009 .23899842 .3293457 .24299622 .3403473 .24299622 .36035157 .24299622 .405365 .21099854 .4423828 .16099549 .4423828 .06599426 .4423828 .0289917 .29733277 .0289917 .28833009 .0289917 .27833558 .038986207 .27833558 .040985109 .27833558 .050994874 .27833558 .051986696 .28033448 .056991579 .29634095 .083999637 .3903656 .12399292 .42037965 .1579895 .42037965 .1659851 .42037965 .18299866 .42037965 .18299866 .3883667 .18299866 .36335755 .17298889 .3373413 .1659851 .31834413 .12599182 .21231079 .10798645 .1552887 .10798645 .10827637 .10798645 .019256592 .17098999-.0107421879 .22999573-.0107421879 .2689972-.0107421879 .30299378 .0062561037 .33099366 .03425598 .31799317-.017745972 .30599977-.06674194 .2659912-.11973572 .23999024-.15385437 .20199585-.18309021 .1559906-.18309021 .14199829-.18309021 .09700012-.18005371 .07998657-.14074707 .09599304-.14074707 .10899353-.14074707 .12298584-.1287384 .1329956-.11973572 .14299011-.10673523 .14299011-.08773804 .14299011-.056747438 .115997318-.052734376 .10598755-.052734376 .08299255-.052734376 .049987794-.068740848 .049987794-.11773682 .049987794-.16796875 .09399414-.20507813 .1559906-.20507813 .25898744-.20507813 .3619995-.11373901 .3899994-.00074768069L.48599244 .38136292Z"/>
</defs>
<path transform="matrix(1.00005,0,0,-1.00006,8.079704,166.5352)" stroke-width=".19925" stroke-linecap="butt" stroke-miterlimit="10" stroke-linejoin="miter" fill="none" stroke="#929292" d="M1.52171 79.28079V82.11555M13.47325 79.28079V82.11555M25.42479 79.28079V82.11555M37.37634 79.28079V82.11555M49.32788 79.28079V82.11555M61.27942 79.28079V82.11555M73.23096 79.28079V82.11555M85.18251 79.28079V82.11555M97.13405 79.28079V82.11555M109.0856 79.28079V82.11555M121.03714 79.28079V82.11555M132.9887 79.28079V82.11555M144.94023 79.28079V82.11555M156.89179 79.28079V82.11555M168.84334 79.28079V82.11555M180.79488 79.28079V82.11555M192.74643 79.28079V82.11555"/>
<path transform="matrix(1.00005,0,0,-1.00006,8.079704,166.5352)" stroke-width=".19925" stroke-linecap="butt" stroke-miterlimit="10" stroke-linejoin="miter" fill="none" stroke="#929292" d="M1.52171 78.5723V82.82404M25.42479 78.5723V82.82404M49.32788 78.5723V82.82404M73.23096 78.5723V82.82404M121.03714 78.5723V82.82404M144.94023 78.5723V82.82404M168.84334 78.5723V82.82404M192.74643 78.5723V82.82404"/>
<path transform="matrix(1.00005,0,0,-1.00006,8.079704,166.5352)" stroke-width=".19925" stroke-linecap="butt" stroke-miterlimit="10" stroke-linejoin="miter" fill="none" stroke="#929292" d="M95.00812 0H99.26001M95.00812 40.34909H99.26001M95.00812 121.04727H99.26001M95.00812 161.39636H99.26001"/>
<path transform="matrix(1.00005,0,0,-1.00006,8.079704,166.5352)" stroke-width=".3985" stroke-linecap="butt" stroke-miterlimit="10" stroke-linejoin="miter" fill="none" stroke="#000000" d="M0 80.69818H192.2756"/>
<path transform="matrix(1.00005,0,0,-1.00006,200.3649,85.832187)" d="M1.99252 0-1.19551 1.59401 0 0-1.19551-1.59401"/>
<path transform="matrix(1.00005,0,0,-1.00006,8.079704,166.5352)" stroke-width=".3985" stroke-linecap="butt" stroke-miterlimit="10" stroke-linejoin="miter" fill="none" stroke="#000000" d="M97.13405 0V159.40384"/>
<path transform="matrix(0,-1.00006,-1.00005,-0,105.218608,7.121811)" d="M1.99252 0-1.19551 1.59401 0 0-1.19551-1.59401"/>
<use data-text="&#x2212;" xlink:href="#font_1_1" transform="matrix(9.963098,0,0,-9.963197,.21730805,97.899089)"/>
<use data-text="2" xlink:href="#font_2_3" transform="matrix(9.963098,0,0,-9.963197,7.9666979,97.899089)"/>
<use data-text="&#x03c0;" xlink:href="#font_3_1" transform="matrix(9.963098,0,0,-9.963197,12.947945,97.899089)"/>
<use data-text="&#x2212;" xlink:href="#font_1_1" transform="matrix(9.963098,0,0,-9.963197,23.995499,99.8952)"/>
<use data-text="3" xlink:href="#font_4_2" transform="matrix(6.9741489,0,0,-6.9742186,32.93995,95.97197)"/>
<use data-text="&#x03c0;" xlink:href="#font_5_1" transform="matrix(6.9741489,0,0,-6.9742186,36.911149,95.97197)"/>
<path transform="matrix(1.00005,0,0,-1.00006,-81.27076,-46.703584)" stroke-width=".3985" stroke-linecap="butt" stroke-miterlimit="10" stroke-linejoin="miter" fill="none" stroke="#000000" d="M114.205-144.099H123.085"/>
<use data-text="2" xlink:href="#font_4_1" transform="matrix(6.9741489,0,0,-6.9742186,35.395074,103.330417)"/>
<use data-text="&#x2212;" xlink:href="#font_1_1" transform="matrix(9.963098,0,0,-9.963197,50.516828,97.290058)"/>
<use data-text="&#x03c0;" xlink:href="#font_3_1" transform="matrix(9.963098,0,0,-9.963197,58.266218,97.290058)"/>
<use data-text="&#x2212;" xlink:href="#font_1_1" transform="matrix(9.963098,0,0,-9.963197,73.78899,98.40412)"/>
<use data-text="&#x03c0;" xlink:href="#font_5_1" transform="matrix(6.9741489,0,0,-6.9742186,82.73344,94.48089)"/>
<path transform="matrix(1.00005,0,0,-1.00006,-31.477272,-48.194665)" stroke-width=".3985" stroke-linecap="butt" stroke-miterlimit="10" stroke-linejoin="miter" fill="none" stroke="#000000" d="M114.205-144.099H119.114"/>
<use data-text="2" xlink:href="#font_4_1" transform="matrix(6.9741489,0,0,-6.9742186,83.20246,101.83933)"/>
<use data-text="&#x03c0;" xlink:href="#font_5_1" transform="matrix(6.9741489,0,0,-6.9742186,126.66763,94.4809)"/>
<path transform="matrix(1.00005,0,0,-1.00006,20.206315,-48.194665)" stroke-width=".3985" stroke-linecap="butt" stroke-miterlimit="10" stroke-linejoin="miter" fill="none" stroke="#000000" d="M106.456-144.099H111.365"/>
<use data-text="2" xlink:href="#font_4_1" transform="matrix(6.9741489,0,0,-6.9742186,127.13666,101.83933)"/>
<use data-text="&#x03c0;" xlink:href="#font_3_1" transform="matrix(9.963098,0,0,-9.963197,150.00879,95.76796)"/>
<use data-text="3" xlink:href="#font_4_2" transform="matrix(6.9741489,0,0,-6.9742186,172.4909,95.971988)"/>
<use data-text="&#x03c0;" xlink:href="#font_5_1" transform="matrix(6.9741489,0,0,-6.9742186,176.4631,95.971988)"/>
<path transform="matrix(1.00005,0,0,-1.00006,66.02959,-46.703584)" stroke-width=".3985" stroke-linecap="butt" stroke-miterlimit="10" stroke-linejoin="miter" fill="none" stroke="#000000" d="M106.456-144.099H115.337"/>
<use data-text="2" xlink:href="#font_4_1" transform="matrix(6.9741489,0,0,-6.9742186,174.94603,103.330417)"/>
<use data-text="2" xlink:href="#font_2_3" transform="matrix(9.963098,0,0,-9.963197,195.32605,97.899089)"/>
<use data-text="&#x03c0;" xlink:href="#font_3_1" transform="matrix(9.963098,0,0,-9.963197,200.30731,97.899089)"/>
<use data-text="&#x2212;" xlink:href="#font_1_1" transform="matrix(9.963098,0,0,-9.963197,81.86039,169.33037)"/>
<use data-text="1" xlink:href="#font_2_2" transform="matrix(9.963098,0,0,-9.963197,89.60978,169.33037)"/>
<use data-text="0" xlink:href="#font_2_1" transform="matrix(9.963098,0,0,-9.963197,94.591327,169.33037)"/>
<use data-text="&#x2212;" xlink:href="#font_1_1" transform="matrix(9.963098,0,0,-9.963197,86.841648,128.97895)"/>
<use data-text="5" xlink:href="#font_2_4" transform="matrix(9.963098,0,0,-9.963197,94.591037,128.97895)"/>
<use data-text="5" xlink:href="#font_2_4" transform="matrix(9.963098,0,0,-9.963197,94.59103,48.69114)"/>
<use data-text="1" xlink:href="#font_2_2" transform="matrix(9.963098,0,0,-9.963197,89.60878,8.339706)"/>
<use data-text="0" xlink:href="#font_2_1" transform="matrix(9.963098,0,0,-9.963197,94.59033,8.339706)"/>
<path transform="matrix(1.00005,0,0,-1.00006,8.079704,166.5352)" stroke-width=".99628" stroke-linecap="butt" stroke-miterlimit="10" stroke-linejoin="miter" fill="none" stroke="#0000ff" d="M3.09598 157.72005 3.07808 158.34597 3.14316 156.27121 3.20825 154.35543 3.27335 152.58734 3.33842 150.9532 3.40352 149.42882 3.4686 148.01013 3.53369 146.68508 3.59879 145.44797 3.66386 144.28511 3.72896 143.19568 3.79404 142.1708 3.85913 141.20568 3.92421 140.29378 3.9893 139.43274 4.05441 138.61688 4.11949 137.84378 4.18459 137.11104 4.24966 136.41544 4.31476 135.7553 4.37984 135.12667 4.44493 134.52628 4.51003 133.95655 4.5751 133.41103 4.6402 132.89052 4.70528 132.39342 4.77037 131.91892 4.83545 131.46298 4.90054 131.0272 4.96564 130.61 5.03072 130.20973 5.09581 129.82563 5.1609 129.45601 5.226 129.10256 5.29108 128.76363 5.35617 128.43599 5.42126 128.12207 5.48634 127.82106 5.55144 127.52975 5.61652 127.25052 5.68161 126.97939 5.74669 126.72115 5.81178 126.47261 5.87688 126.23131 5.94196 125.99971 6.00705 125.77536 6.07213 125.55989 6.13722 125.3517 6.20232 125.15077 6.26741 124.95871 6.3325 124.7731 6.39758 124.59233 6.46268 124.41965 6.52776 124.2534 6.59285 124.092 6.65794 123.93625 6.72302 123.78697 6.78812 123.64252 6.8532 123.50372 6.91829 123.36977 6.98338 123.23982 7.04846 123.11555 7.11356 122.99611 7.17863 122.88074 7.24373 122.76936 7.3088 122.66365 7.37392 122.56035 7.43901 122.4627 7.50409 122.36829 7.56918 122.27872 7.63426 122.19077 7.69936 122.10683 7.76443 122.02855 7.82953 121.95189 7.89462 121.87926 7.9597 121.81067 8.0248 121.7453 8.08987 121.68236 8.15497 121.62344 8.22005 121.56694 8.28514 121.51369 8.35023 121.46446 8.41531 121.41605 8.48042 121.37247 8.5455 121.33131 8.6106 121.29178 8.67567 121.25868 8.74077 121.2256 8.80586 121.19574 8.87094 121.1675 8.93604 121.14409 9.00111 121.12311 9.06621 121.10455 9.13129 121.08762 9.19638 121.07552 9.26147 121.0642 9.32655 121.05533 9.39165 121.05049 9.45673 121.04807H9.52182L9.58693 121.05049 9.65201 121.05533 9.7171 121.0642 9.78218 121.07552 9.84727 121.08762 9.91237 121.10455 9.97745 121.12311 10.04254 121.14409 10.10762 121.1675 10.17271 121.19574 10.23781 121.2256 10.30289 121.25868 10.36798 121.29338 10.43306 121.33131 10.49815 121.37247 10.56325 121.41605 10.62833 121.46286 10.69342 121.51369 10.75851 121.56694 10.82361 121.62184 10.88869 121.68236 10.95377 121.7453 11.01886 121.81067 11.08395 121.87926 11.14903 121.95189 11.21413 122.02855 11.2792 122.10683 11.3443 122.19077 11.40938 122.2771 11.47447 122.36829 11.53957 122.4619 11.60464 122.56035 11.66974 122.66365 11.73483 122.76936 11.79993 122.88074 11.86502 122.99611 11.9301 123.11555 11.9952 123.23982 12.06027 123.36977 12.12537 123.50209 12.19046 123.6417 12.25554 123.78535 12.32063 123.93463 12.38571 124.0912 12.4508 124.2526 12.5159 124.41965 12.58098 124.59233 12.64607 124.7731 12.71115 124.95789 12.77625 125.15077 12.84135 125.3517 12.90643 125.55989 12.97153 125.77536 13.0366 125.9981 13.1017 126.22969 13.1668 126.47098 13.23187 126.72115 13.29697 126.97858 13.36205 127.24973 13.42714 127.52893 13.49223 127.81944 13.55731 128.12126 13.62239 128.43517 13.68748 128.762 13.75258 129.10256 13.81766 129.4544 13.88274 129.82399 13.94785 130.20812 14.01294 130.60839 14.07802 131.02559 14.14311 131.46218 14.20819 131.9165 14.27328 132.3918 14.33836 132.8889 14.40346 133.41024 14.46855 133.95413 14.53363 134.52385 14.59872 135.12506 14.6638 135.7529 14.7289 136.413 14.79399 137.10861 14.85907 137.84137 14.92416 138.61363 14.98924 139.4287 15.05435 140.29055 15.11945 141.20165 15.18452 142.1684 15.24962 143.19164 15.3147 144.2843 15.37979 145.44394 15.44489 146.68265 15.50996 148.0037 15.57506 149.42478 15.64014 150.94675 15.70523 152.5833 15.77032 154.35059 15.8354 156.26638 15.9005 158.33951 15.88258 157.71038"/>
<path transform="matrix(-.028731434,-.99959996,-.9995899,.028731723,11.175859,8.80571)" d="M2.8892 0-1.73352 2.31136 0 0-1.73352-2.31136" fill="#0000ff"/>
<path transform="matrix(.028731434,-.99959996,-.9995899,-.028731723,23.963068,8.815384)" d="M2.8892 0-1.73352 2.31136 0 0-1.73352-2.31136" fill="#0000ff"/>
<path transform="matrix(1.00005,0,0,-1.00006,8.079704,166.5352)" stroke-width=".99628" stroke-linecap="butt" stroke-miterlimit="10" stroke-linejoin="miter" fill="none" stroke="#0000ff" d="M18.27298 3.95903 18.32086 9.66116 18.39297 16.92482 18.46509 23.14665 18.53722 28.53244 18.60934 33.23634 18.68146 37.381 18.75359 41.06406 18.8257 44.34846 18.89783 47.3093 18.96996 49.98041 19.04207 52.40295 19.11418 54.61166 19.18633 56.63074 19.25844 58.48923 19.33055 60.19681 19.40268 61.77687 19.47481 63.24236 19.54692 64.6005 19.61905 65.86583 19.69116 67.04968 19.76328 68.15443 19.83542 69.18979 19.90753 70.16139 19.97964 71.0749 20.05177 71.93596 20.1239 72.7486 20.19601 73.51279 20.26814 74.23666 20.34026 74.92259 20.41238 75.57303 20.48451 76.18956 20.55663 76.77623 20.62874 77.33144 20.70088 77.86243 20.773 78.36679 20.84511 78.84857 20.91724 79.30772 20.98936 79.74512 21.06148 80.16315 21.1336 80.56259 21.20572 80.9451 21.27785 81.31146 21.34998 81.66089 21.42209 81.9974 21.4942 82.31697 21.56635 82.62524 21.63846 82.9214 21.71057 83.20384 21.7827 83.4758 21.85481 83.73726 21.92694 83.98662 21.99907 84.2271 22.07118 84.45871 22.1433 84.67981 22.21544 84.89285 22.28755 85.09782 22.35966 85.29474 22.4318 85.48357 22.50392 85.66513 22.57603 85.83864 22.64816 86.00488 22.72028 86.16547 22.7924 86.3204 22.86453 86.46808 22.93665 86.60931 23.00876 86.74649 23.08089 86.87561 23.15302 87.00069 23.22513 87.12094 23.29726 87.23473 23.36938 87.34447 23.4415 87.44937 23.51363 87.54945 23.58574 87.64546 23.65785 87.73666 23.73 87.8222 23.80211 87.90372 23.87422 87.98277 23.94635 88.05544 24.01848 88.12643 24.09059 88.1934 24.16272 88.25475 24.23483 88.31285 24.30696 88.36691 24.37909 88.41856 24.4512 88.46536 24.52332 88.50974 24.59546 88.5493 24.66757 88.58562 24.73969 88.61789 24.81181 88.64854 24.88394 88.676 24.95605 88.69777 25.02818 88.71794 25.1003 88.73409 25.17241 88.747 25.24455 88.75749 25.31667 88.76314 25.38878 88.76717H25.46092L25.53304 88.76314 25.60515 88.75749 25.67728 88.747 25.74939 88.73409 25.82153 88.71794 25.89365 88.69777 25.96576 88.676 26.0379 88.64854 26.11 88.61789 26.18213 88.58562 26.25426 88.5493 26.32637 88.50813 26.3985 88.46536 26.47063 88.41856 26.54274 88.36691 26.61487 88.31285 26.68698 88.25475 26.75911 88.1934 26.83122 88.12643 26.90335 88.05544 26.97548 87.98277 27.04759 87.90372 27.11972 87.8222 27.19183 87.73666 27.26395 87.64546 27.33609 87.54945 27.4082 87.44937 27.48032 87.34447 27.55244 87.23473 27.62457 87.12094 27.69669 86.9999 27.76881 86.87561 27.84094 86.74489 27.91304 86.60931 27.98518 86.46808 28.0573 86.3204 28.12941 86.16547 28.20155 86.00488 28.27365 85.83864 28.34578 85.66434 28.41792 85.48357 28.49002 85.29312 28.56215 85.09782 28.63428 84.89204 28.70639 84.67981 28.77852 84.45871 28.85065 84.2271 28.92276 83.98662 28.99487 83.73566 29.067 83.4758 29.13913 83.20384 29.21124 82.9206 29.28337 82.62524 29.35548 82.31697 29.42761 81.9958 29.49974 81.66089 29.57185 81.31146 29.64397 80.94429 29.7161 80.56259 29.78822 80.16234 29.86034 79.7435 29.93246 79.3061 30.0046 78.84694 30.07669 78.366 30.14883 77.86081 30.22096 77.33144 30.29306 76.77461 30.3652 76.18875 30.43732 75.57141 30.50943 74.92178 30.58157 74.23586 30.65369 73.51201 30.7258 72.74617 30.79793 71.93434 30.87004 71.0733 30.94217 70.159 31.0143 69.18817 31.08641 68.15282 31.15852 67.04564 31.23067 65.86504 31.30278 64.59807 31.3749 63.23831 31.44704 61.77606 31.51913 60.19276 31.59126 58.48439 31.66339 56.62833 31.7355 54.60684 31.80763 52.39893 31.87976 49.97557 31.95187 47.30122 32.024 44.34846 32.09612 41.05923 32.16824 37.37292 32.24036 33.22827 32.31248 28.52194 32.38461 23.13455 32.45673 16.91997 32.52885 9.64261 32.57677 3.92433"/>
<path transform="matrix(-.008390419,.99998,.99996998,.008390503,26.353598,162.57593)" d="M2.8892 0-1.73352 2.31136 0 0-1.73352-2.31136" fill="#0000ff"/>
<path transform="matrix(.008380418,.99998,.99996998,-.008380502,40.658105,162.61064)" d="M2.8892 0-1.73352 2.31136 0 0-1.73352-2.31136" fill="#0000ff"/>
<path transform="matrix(1.00005,0,0,-1.00006,8.079704,166.5352)" stroke-width=".99628" stroke-linecap="butt" stroke-miterlimit="10" stroke-linejoin="miter" fill="none" stroke="#0000ff" d="M34.96695 157.7128 34.94902 158.34113 35.01411 156.26395 35.0792 154.3514 35.14429 152.5841 35.20937 150.94675 35.27446 149.42478 35.33954 148.0061 35.40463 146.68265 35.46973 145.44394 35.53482 144.2843 35.5999 143.19408 35.665 142.1684 35.73007 141.20325 35.79515 140.29055 35.86024 139.4303 35.92532 138.61525 35.99042 137.84297 36.0555 137.10861 36.12059 136.41461 36.18567 135.7529 36.25076 135.12425 36.31584 134.52385 36.38094 133.95493 36.44601 133.41024 36.51111 132.89052 36.5762 132.39263 36.6413 131.9173 36.70638 131.46218 36.77147 131.02559 36.83655 130.60839 36.90164 130.20812 36.96672 129.82399 37.03181 129.45601 37.0969 129.10256 37.16199 128.76282 37.22707 128.43517 37.29216 128.12126 37.35724 127.81944 37.42232 127.52975 37.48741 127.24973 37.55249 126.97939 37.6176 126.72115 37.68268 126.47261 37.74777 126.23131 37.81285 125.9981 37.87794 125.77536 37.94302 125.55989 38.00812 125.3517 38.0732 125.15077 38.13829 124.95871 38.20337 124.7731 38.26846 124.59233 38.33354 124.41965 38.39864 124.2526 38.46371 124.092 38.52881 123.93625 38.59389 123.78697 38.65898 123.64252 38.72408 123.50209 38.78915 123.36977 38.85425 123.23982 38.91933 123.11555 38.98442 122.99611 39.0495 122.88074 39.1146 122.76936 39.17967 122.66365 39.24477 122.56035 39.30984 122.4627 39.37494 122.36829 39.44002 122.2771 39.50511 122.19077 39.57019 122.10683 39.63528 122.02855 39.70036 121.95189 39.76546 121.87926 39.83055 121.81067 39.89565 121.7453 39.96072 121.68236 40.02582 121.62184 40.0909 121.56694 40.15598 121.51369 40.22107 121.46446 40.28616 121.41605 40.35124 121.37329 40.41632 121.33131 40.48141 121.29178 40.5465 121.25868 40.61159 121.2256 40.67667 121.19574 40.74176 121.1675 40.80684 121.14409 40.87193 121.12311 40.93703 121.10455 41.00212 121.08762 41.0672 121.07552 41.1323 121.0642 41.19737 121.05533 41.26247 121.05049 41.32755 121.04807H41.39264L41.45772 121.05049 41.5228 121.05533 41.58789 121.0642 41.65297 121.07552 41.71806 121.08762 41.78316 121.10455 41.84824 121.12311 41.91333 121.14409 41.97841 121.1675 42.0435 121.19574 42.1086 121.2256 42.17368 121.25868 42.23877 121.29178 42.30385 121.33131 42.36894 121.37247 42.43402 121.41605 42.49911 121.46286 42.5642 121.51369 42.62927 121.56694 42.69437 121.62184 42.75946 121.68236 42.82454 121.7453 42.88963 121.81067 42.95471 121.87926 43.0198 121.95189 43.08488 122.02855 43.14998 122.10683 43.21507 122.19077 43.28015 122.2771 43.34525 122.36829 43.41034 122.4619 43.47542 122.56035 43.5405 122.66365 43.60559 122.76936 43.67067 122.88074 43.73576 122.9953 43.80084 123.11555 43.86594 123.23982 43.93102 123.36813 43.99611 123.50209 44.06119 123.6417 44.12627 123.78535 44.19138 123.93463 44.25645 124.0912 44.32155 124.2526 44.38664 124.41882 44.45172 124.59233 44.51682 124.7731 44.5819 124.95789 44.64699 125.15077 44.71207 125.3517 44.77715 125.55989 44.84224 125.77536 44.90732 125.9981 44.97241 126.22969 45.0375 126.47098 45.10258 126.72115 45.16766 126.97858 45.23274 127.24811 45.29785 127.52893 45.36295 127.81783 45.42802 128.11965 45.49312 128.43517 45.5582 128.762 45.62329 129.10094 45.68837 129.4544 45.75346 129.82318 45.81854 130.20812 45.88362 130.60758 45.94872 131.02478 46.01381 131.46056 46.07889 131.9165 46.14398 132.3918 46.20906 132.8889 46.27414 133.4086 46.33923 133.95252 46.40433 134.52304 46.46942 135.12264 46.5345 135.7529 46.5996 136.413 46.66469 137.10861 46.72977 137.84055 46.79485 138.61203 46.85992 139.42708 46.92502 140.28731 46.99011 141.20082 47.05519 142.16597 47.12029 143.19084 47.18536 144.28188 47.25046 145.44152 47.31554 146.68024 47.38062 148.00287 47.44571 149.42075 47.5108 150.94351 47.5759 152.58089 47.64099 154.34656 47.70607 156.25992 47.77115 158.33628 47.75314 157.70633"/>
<path transform="matrix(-.028731434,-.99959996,-.9995899,.028731723,43.048414,8.812958)" d="M2.8892 0-1.73352 2.31136 0 0-1.73352-2.31136" fill="#0000ff"/>
<path transform="matrix(.028761436,-.99959996,-.9995899,-.028761724,55.83522,8.8194279)" d="M2.8892 0-1.73352 2.31136 0 0-1.73352-2.31136" fill="#0000ff"/>
<path transform="matrix(1.00005,0,0,-1.00006,8.079704,166.5352)" stroke-width=".99628" stroke-linecap="butt" stroke-miterlimit="10" stroke-linejoin="miter" fill="none" stroke="#0000ff" d="M50.14337 3.90495 50.1913 9.61517 50.26341 16.89496 50.33556 23.1176 50.40767 28.5026 50.4798 33.21696 50.55193 37.36406 50.62404 41.05196 50.69617 44.34203 50.7683 47.2972 50.84042 49.9691 50.91254 52.39409 50.98468 54.60199 51.0568 56.62349 51.12892 58.48035 51.20105 60.19115 51.27316 61.77202 51.34529 63.23508 51.41742 64.59406 51.48955 65.861 51.56166 67.04404 51.6338 68.15042 51.70592 69.18576 51.77805 70.15656 51.85017 71.07088 51.92229 71.93193 51.99442 72.74454 52.06654 73.51038 52.13867 74.23343 52.21078 74.92018 52.28293 75.5706 52.35504 76.18713 52.42717 76.77461 52.4993 77.32983 52.57141 77.86002 52.64354 78.36438 52.71567 78.84615 52.7878 79.30533 52.85991 79.7435 52.93204 80.16072 53.00417 80.56259 53.07628 80.94429 53.14842 81.30986 53.22054 81.66089 53.29266 81.9958 53.36479 82.31616 53.43692 82.62524 53.50905 82.9206 53.58116 83.20384 53.65329 83.4742 53.72542 83.73566 53.79755 83.98662 53.86966 84.2271 53.9418 84.45871 54.01392 84.67981 54.08604 84.89204 54.15817 85.09782 54.23029 85.29312 54.30241 85.48195 54.37454 85.66434 54.44667 85.83784 54.51878 86.00488 54.59093 86.16547 54.66304 86.31879 54.73517 86.46648 54.8073 86.60931 54.87941 86.74489 54.95154 86.87561 55.02367 87.00069 55.0958 87.12094 55.16791 87.23473 55.24005 87.34447 55.31216 87.44937 55.3843 87.54945 55.45642 87.64546 55.52853 87.73666 55.60066 87.8222 55.67279 87.90372 55.74492 87.98277 55.81703 88.05544 55.88918 88.12643 55.96129 88.1934 56.03342 88.25475 56.10555 88.31285 56.17766 88.36691 56.24979 88.41856 56.32191 88.46536 56.39404 88.50974 56.46616 88.5493 56.53828 88.58562 56.61041 88.61789 56.68253 88.64854 56.75467 88.676 56.82678 88.69777 56.89891 88.71794 56.97104 88.73409 57.04317 88.747 57.11528 88.75749 57.18741 88.76314 57.25954 88.76717H57.33165L57.4038 88.76314 57.4759 88.75749 57.54803 88.747 57.62016 88.73409 57.69229 88.71794 57.7644 88.69777 57.83653 88.676 57.90866 88.64854 57.98077 88.61789 58.05292 88.58562 58.12503 88.5493 58.19716 88.50974 58.26929 88.46536 58.3414 88.41856 58.41353 88.36691 58.48567 88.31285 58.55779 88.25475 58.6299 88.1934 58.70204 88.12643 58.77415 88.05544 58.84628 87.98277 58.91841 87.90372 58.99054 87.8222 59.06265 87.73666 59.13478 87.64546 59.20691 87.54945 59.27902 87.44937 59.35117 87.34447 59.42328 87.23473 59.4954 87.12094 59.56754 86.9999 59.63965 86.87561 59.71178 86.74489 59.7839 86.60931 59.85603 86.46808 59.92816 86.31879 60.00027 86.16547 60.0724 86.00488 60.14452 85.83784 60.21666 85.66434 60.28879 85.48195 60.3609 85.29312 60.43303 85.09782 60.50514 84.89204 60.57727 84.67981 60.64941 84.45709 60.72153 84.2271 60.79366 83.98662 60.86578 83.73566 60.9379 83.4742 61.01003 83.20384 61.08215 82.9206 61.15428 82.62363 61.2264 82.31697 61.29854 81.9958 61.37065 81.66089 61.44276 81.30986 61.51491 80.94429 61.58702 80.56097 61.65915 80.16072 61.73128 79.7435 61.8034 79.30533 61.87552 78.84615 61.94765 78.36438 62.01978 77.86002 62.0919 77.32983 62.16403 76.77461 62.23615 76.18713 62.30827 75.5706 62.3804 74.92018 62.45253 74.23343 62.52464 73.51038 62.59679 72.74376 62.6689 71.93193 62.74101 71.07088 62.81316 70.15656 62.88527 69.18495 62.9574 68.1496 63.02953 67.04323 63.10165 65.861 63.17377 64.59406 63.2459 63.23347 63.31802 61.7704 63.39015 60.18953 63.46228 58.48035 63.53441 56.62349 63.60652 54.60199 63.67865 52.39166 63.75076 49.9691 63.8229 47.29475 63.89503 44.33719 63.96715 41.0447 64.03928 37.36163 64.11139 33.21696 64.18352 28.5026 64.25566 23.1176 64.32777 16.88689 64.3999 9.61034 64.44781 3.89204"/>
<path transform="matrix(-.008380418,.99998,.99996998,.008380502,58.225584,162.63002)" d="M2.8892 0-1.73352 2.31136 0 0-1.73352-2.31136" fill="#0000ff"/>
<path transform="matrix(.008380418,.99998,.99996998,-.008380502,72.53073,162.64293)" d="M2.8892 0-1.73352 2.31136 0 0-1.73352-2.31136" fill="#0000ff"/>
<path transform="matrix(1.00005,0,0,-1.00006,8.079704,166.5352)" stroke-width=".99628" stroke-linecap="butt" stroke-miterlimit="10" stroke-linejoin="miter" fill="none" stroke="#0000ff" d="M66.83815 157.70636 66.81996 158.33951 66.88506 156.25992 66.95013 154.34818 67.01523 152.58089 67.0803 150.94351 67.1454 149.42397 67.21048 148.00287 67.27557 146.68024 67.34065 145.44152 67.40575 144.28188 67.47083 143.19084 67.53592 142.16759 67.601 141.20082 67.66609 140.28975 67.73117 139.42708 67.79626 138.61363 67.86134 137.84137 67.92645 137.10861 67.99153 136.413 68.05663 135.7529 68.1217 135.12425 68.1868 134.52304 68.25188 133.95413 68.31696 133.41024 68.38205 132.8889 68.44713 132.3918 68.51222 131.9165 68.5773 131.46056 68.6424 131.02559 68.70747 130.60758 68.77257 130.20812 68.83765 129.82318 68.90274 129.4544 68.96782 129.10094 69.03293 128.762 69.098 128.43517 69.1631 128.12126 69.22818 127.81783 69.29327 127.52893 69.35835 127.24973 69.42345 126.97858 69.48853 126.72115 69.55362 126.47098 69.6187 126.22969 69.68378 125.9981 69.74887 125.77536 69.81395 125.55989 69.87904 125.3517 69.94412 125.15077 70.00922 124.95789 70.0743 124.7731 70.1394 124.59233 70.20448 124.41882 70.26958 124.2526 70.33466 124.0912 70.39975 123.93463 70.46483 123.78535 70.52992 123.64252 70.595 123.50209 70.6601 123.36813 70.72517 123.23982 70.79027 123.11555 70.85535 122.9953 70.92044 122.88074 70.98552 122.76936 71.05061 122.66365 71.11569 122.56035 71.18079 122.4619 71.24588 122.36829 71.31096 122.2771 71.37605 122.19077 71.44113 122.10683 71.50623 122.02855 71.5713 121.95189 71.6364 121.87926 71.70148 121.81067 71.76657 121.7453 71.83165 121.68236 71.89674 121.62184 71.96182 121.56694 72.02692 121.51369 72.092 121.46286 72.15709 121.41605 72.22217 121.37247 72.28726 121.33131 72.35236 121.29338 72.41745 121.25868 72.48253 121.2256 72.54762 121.19574 72.6127 121.1675 72.67778 121.14409 72.74287 121.12311 72.80795 121.10455 72.87305 121.08762 72.93813 121.07552 73.00322 121.0642 73.0683 121.05533 73.13339 121.05049 73.19847 121.04807H73.26357L73.32864 121.05049 73.39375 121.05533 73.45883 121.0642 73.52391 121.07552 73.589 121.08762 73.6541 121.10455 73.71918 121.12311 73.78427 121.14409 73.84935 121.1675 73.91444 121.19574 73.97952 121.2256 74.0446 121.25868 74.1097 121.29178 74.17477 121.33131 74.23987 121.37329 74.30496 121.41605 74.37004 121.46446 74.43512 121.51369 74.50023 121.56694 74.5653 121.62184 74.6304 121.68236 74.69548 121.7453 74.76057 121.81067 74.82565 121.87926 74.89075 121.95189 74.95583 122.02855 75.0209 122.10683 75.086 122.19077 75.15108 122.27872 75.21617 122.36829 75.28127 122.4627 75.34634 122.56035 75.41144 122.66365 75.47652 122.76936 75.54161 122.88074 75.6067 122.99611 75.67178 123.11555 75.73688 123.23982 75.80196 123.36977 75.86705 123.50209 75.93214 123.64252 75.99722 123.78697 76.0623 123.93625 76.12738 124.0912 76.19247 124.2526 76.25757 124.41965 76.32265 124.59233 76.38774 124.7731 76.45282 124.95871 76.51791 125.15077 76.583 125.3517 76.64807 125.55989 76.71318 125.77536 76.77826 125.9981 76.84335 126.23131 76.90845 126.47098 76.97353 126.72115 77.03862 126.97939 77.1037 127.24973 77.16878 127.52893 77.23387 127.81944 77.29895 128.12126 77.36404 128.43517 77.42912 128.76282 77.49422 129.10256 77.5593 129.45601 77.62439 129.82399 77.68947 130.20812 77.75455 130.60839 77.81966 131.02559 77.88475 131.46218 77.94983 131.9173 78.01492 132.3918 78.08 132.89052 78.1451 133.41024 78.21017 133.95493 78.27525 134.52547 78.34035 135.12425 78.40543 135.7529 78.47052 136.41461 78.53561 137.10861 78.6007 137.84297 78.66577 138.61525 78.73087 139.4303 78.79594 140.29055 78.86104 141.20165 78.92613 142.1684 78.99123 143.19164 79.0563 144.28269 79.1214 145.44635 79.1865 146.68346 79.25157 148.0061 79.31665 149.42478 79.38173 150.94675 79.44682 152.5841 79.51192 154.35059 79.577 156.26395 79.64209 158.33951 79.62418 157.7128"/>
<path transform="matrix(-.02882144,-.99959,-.99957999,.02882173,74.921199,8.819382)" d="M2.8892 0-1.73352 2.31136 0 0-1.73352-2.31136" fill="#0000ff"/>
<path transform="matrix(.028731434,-.99959996,-.9995899,-.028731723,87.70784,8.812958)" d="M2.8892 0-1.73352 2.31136 0 0-1.73352-2.31136" fill="#0000ff"/>
<path transform="matrix(1.00005,0,0,-1.00006,8.079704,166.5352)" stroke-width=".99628" stroke-linecap="butt" stroke-miterlimit="10" stroke-linejoin="miter" fill="none" stroke="#0000ff" d="M82.01433 3.92433 82.06224 9.63292 82.13437 16.90463 82.2065 23.13455 82.27861 28.52194 82.35074 33.22827 82.42287 37.37292 82.49498 41.05438 82.56711 44.34607 82.63924 47.30122 82.71136 49.97557 82.78348 52.39893 82.8556 54.60684 82.92773 56.62752 82.99985 58.48439 83.07198 60.19276 83.1441 61.77444 83.21622 63.23831 83.28835 64.59807 83.36047 65.86504 83.4326 67.04564 83.50471 68.15202 83.57684 69.18738 83.64896 70.159 83.72108 71.0725 83.79321 71.93272 83.86534 72.74617 83.93745 73.51201 84.00958 74.23586 84.08171 74.92178 84.15382 75.57141 84.22595 76.18875 84.29808 76.77461 84.3702 77.33144 84.44232 77.86081 84.51445 78.36679 84.58656 78.84694 84.6587 79.3061 84.73082 79.74512 84.80293 80.16234 84.87506 80.56259 84.94719 80.94429 85.0193 81.31146 85.09145 81.66089 85.16356 81.9974 85.23567 82.31697 85.30782 82.62524 85.37993 82.9206 85.45204 83.20384 85.52419 83.4758 85.5963 83.73566 85.66841 83.98662 85.74055 84.2271 85.81267 84.45871 85.88478 84.67981 85.95692 84.89285 86.02904 85.09782 86.10115 85.29312 86.1733 85.48195 86.2454 85.66434 86.31752 85.83864 86.38966 86.00488 86.46178 86.16547 86.5339 86.3204 86.60603 86.46808 86.67815 86.60931 86.75027 86.74649 86.8224 86.87561 86.89452 87.00069 86.96664 87.12094 87.03877 87.23473 87.11089 87.34447 87.18301 87.44937 87.25514 87.54945 87.32726 87.64546 87.39938 87.73666 87.47151 87.8222 87.54362 87.90372 87.61575 87.98277 87.68788 88.05621 87.76001 88.12643 87.83212 88.1934 87.90425 88.25475 87.97638 88.31285 88.0485 88.36691 88.12062 88.41856 88.19275 88.46536 88.26486 88.50974 88.33699 88.5493 88.40912 88.58562 88.48123 88.61789 88.55336 88.64854 88.62549 88.676 88.6976 88.69777 88.76973 88.71794 88.84186 88.73409 88.91397 88.747 88.9861 88.75749 89.05823 88.76314 89.13034 88.76717H89.20248L89.2746 88.76314 89.34671 88.75749 89.41885 88.747 89.49097 88.73409 89.56308 88.71794 89.63522 88.69777 89.70734 88.676 89.77945 88.64854 89.85158 88.61789 89.9237 88.58562 89.99583 88.5493 90.06796 88.50974 90.14008 88.46536 90.21219 88.41856 90.28433 88.36691 90.35645 88.31285 90.42856 88.25475 90.5007 88.1934 90.57281 88.12643 90.64494 88.05544 90.71707 87.98277 90.78918 87.90372 90.86131 87.8222 90.93344 87.73666 91.00555 87.64546 91.07768 87.54945 91.14981 87.44937 91.22192 87.34447 91.29405 87.23473 91.36618 87.12094 91.43831 86.9999 91.51044 86.87561 91.58255 86.74489 91.65466 86.60931 91.7268 86.46648 91.79892 86.31879 91.87103 86.16547 91.94318 86.00488 92.01529 85.83864 92.0874 85.66434 92.15955 85.48357 92.23166 85.29312 92.30379 85.09782 92.37592 84.89285 92.44803 84.67981 92.52016 84.45709 92.59229 84.2271 92.6644 83.98662 92.73651 83.73566 92.80865 83.4742 92.88078 83.20384 92.95288 82.91899 93.02502 82.62524 93.09714 82.31697 93.16927 81.9958 93.2414 81.66089 93.3135 81.30986 93.38564 80.94429 93.45776 80.56259 93.52988 80.16234 93.602 79.7435 93.67413 79.3061 93.74626 78.84615 93.81837 78.36438 93.8905 77.86081 93.96263 77.32983 94.03474 76.77461 94.10687 76.18713 94.17899 75.57141 94.25111 74.92018 94.32326 74.23343 94.39537 73.51201 94.46748 72.74454 94.53961 71.93272 94.61174 71.07088 94.68385 70.15736 94.75598 69.18576 94.82811 68.15042 94.90022 67.04404 94.97237 65.86261 95.04448 64.59645 95.1166 63.23508 95.18874 61.77202 95.26085 60.19115 95.33296 58.48035 95.4051 56.62509 95.47722 54.6044 95.54933 52.39409 95.62146 49.97313 95.69359 47.2972 95.76572 44.34203 95.83784 41.05196 95.90996 37.3689 95.98207 33.22018 96.05421 28.51389 96.12633 23.13051 96.19844 16.90463 96.27058 9.62727 96.3185 3.90495"/>
<path transform="matrix(-.008380418,.99998,.99996998,.008380502,90.09813,162.61064)" d="M2.8892 0-1.73352 2.31136 0 0-1.73352-2.31136" fill="#0000ff"/>
<path transform="matrix(.008380418,.99998,.99996998,-.008380502,104.403018,162.63002)" d="M2.8892 0-1.73352 2.31136 0 0-1.73352-2.31136" fill="#0000ff"/>
<path transform="matrix(1.00005,0,0,-1.00006,8.079704,166.5352)" stroke-width=".99628" stroke-linecap="butt" stroke-miterlimit="10" stroke-linejoin="miter" fill="none" stroke="#0000ff" d="M98.70836 157.72005 98.69043 158.34597 98.75552 156.27121 98.8206 154.35543 98.8857 152.58975 98.95078 150.9532 99.01587 149.43123 99.08096 148.01013 99.14604 146.68749 99.21115 145.44797 99.27623 144.28673 99.34132 143.19568 99.40642 142.1708 99.4715 141.20404 99.53659 140.29216 99.60167 139.43274 99.66676 138.61688 99.73184 137.84378 99.79694 137.11104 99.86203 136.41544 99.92711 135.7553 99.9922 135.12667 100.05728 134.52628 100.12238 133.95493 100.18747 133.41103 100.25255 132.89052 100.31766 132.39342 100.38274 131.91892 100.44783 131.46298 100.51291 131.0272 100.578 130.61 100.6431 130.20973 100.70818 129.82563 100.77327 129.45682 100.83835 129.10256 100.90344 128.76363 100.96854 128.43599 101.03362 128.12207 101.09871 127.82106 101.16379 127.52975 101.22888 127.25052 101.29398 126.98099 101.35905 126.72195 101.42416 126.47261 101.48924 126.23131 101.55434 125.9981 101.61943 125.77536 101.68451 125.55989 101.7496 125.3517 101.81468 125.15077 101.87978 124.95871 101.94487 124.7731 102.00995 124.59312 102.07504 124.41965 102.14012 124.2526 102.20522 124.092 102.2703 123.93625 102.33539 123.78697 102.40048 123.64252 102.46556 123.50372 102.53067 123.36977 102.59575 123.23982 102.66084 123.11555 102.72594 122.99611 102.79102 122.88074 102.85611 122.77097 102.92119 122.66365 102.98628 122.56197 103.05136 122.4627 103.11646 122.36829 103.18155 122.27872 103.24663 122.19077 103.31172 122.10683 103.3768 122.02855 103.4419 121.95189 103.50699 121.87926 103.57207 121.81067 103.63718 121.7453 103.70226 121.68236 103.76735 121.62184 103.83243 121.56694 103.89752 121.51369 103.96262 121.46446 104.0277 121.41605 104.09279 121.37329 104.15787 121.33131 104.22296 121.29178 104.28806 121.25868 104.35313 121.2256 104.41823 121.19574 104.4833 121.1675 104.5484 121.14409 104.6135 121.12311 104.67857 121.10455 104.74368 121.08762 104.80876 121.07552 104.87386 121.0642 104.93895 121.05533 105.00403 121.05049 105.06912 121.04807H105.1342L105.1993 121.05049 105.26437 121.05533 105.32947 121.0642 105.39455 121.07552 105.45964 121.08762 105.52473 121.10455 105.58981 121.12311 105.6549 121.14409 105.71999 121.1675 105.78508 121.19574 105.85019 121.2256 105.91527 121.25868 105.98036 121.29178 106.04544 121.33131 106.11053 121.37247 106.17563 121.41605 106.2407 121.46446 106.3058 121.51369 106.37088 121.56694 106.43597 121.62184 106.50107 121.68236 106.56615 121.7453 106.63124 121.81067 106.69632 121.87926 106.76141 121.95189 106.8265 122.02855 106.89159 122.10683 106.9567 122.19077 107.02177 122.2771 107.08687 122.36829 107.15196 122.4619 107.21704 122.56035 107.28214 122.66365 107.34721 122.76936 107.41231 122.88074 107.4774 122.99611 107.54248 123.11555 107.60757 123.23982 107.67265 123.36813 107.73775 123.50209 107.80284 123.64252 107.86792 123.78697 107.93301 123.93625 107.9981 124.0912 108.0632 124.2526 108.12828 124.41965 108.19337 124.59233 108.25847 124.7731 108.32355 124.95871 108.38864 125.15077 108.45372 125.3517 108.51881 125.55989 108.58391 125.77536 108.64899 125.9981 108.71408 126.22969 108.77916 126.47098 108.84425 126.72115 108.90933 126.97939 108.97443 127.24973 109.03952 127.52893 109.1046 127.81944 109.1697 128.12126 109.23479 128.43517 109.29988 128.762 109.36497 129.10256 109.43005 129.4544 109.49513 129.82399 109.56023 130.20812 109.62532 130.60839 109.6904 131.02559 109.7555 131.46218 109.82057 131.9173 109.88567 132.3918 109.95074 132.8889 110.01584 133.41024 110.08093 133.95493 110.14601 134.52385 110.2111 135.12506 110.2762 135.7529 110.3413 136.41461 110.40639 137.10861 110.47147 137.84297 110.53656 138.61525 110.60164 139.4303 110.66673 140.28975 110.73183 141.20165 110.7969 142.1684 110.862 143.19164 110.92708 144.28269 110.99217 145.44394 111.05727 146.68346 111.12234 148.0061 111.18744 149.42478 111.25252 150.94675 111.31761 152.5841 111.38272 154.35059 111.4478 156.26638 111.5129 158.34113 111.49496 157.7128"/>
<path transform="matrix(-.028731434,-.99959996,-.9995899,.028731723,106.793,8.80571)" d="M2.8892 0-1.73352 2.31136 0 0-1.73352-2.31136" fill="#0000ff"/>
<path transform="matrix(.028731434,-.99959996,-.9995899,-.028731723,119.58022,8.812958)" d="M2.8892 0-1.73352 2.31136 0 0-1.73352-2.31136" fill="#0000ff"/>
<path transform="matrix(1.00005,0,0,-1.00006,8.079704,166.5352)" stroke-width=".99628" stroke-linecap="butt" stroke-miterlimit="10" stroke-linejoin="miter" fill="none" stroke="#0000ff" d="M113.88478 3.88478 113.93271 9.59904 114.00482 16.88205 114.07695 23.10468 114.14906 28.50096 114.22118 33.20082 114.29332 37.35518 114.36543 41.03824 114.43755 44.33072 114.50969 47.28589 114.5818 49.96426 114.65392 52.38683 114.72604 54.59715 114.79816 56.61864 114.87029 58.47308 114.94241 60.1863 115.01453 61.76637 115.08664 63.23024 115.15878 64.58919 115.2309 65.85777 115.30301 67.0408 115.37514 68.14638 115.44727 69.18254 115.51938 70.15414 115.5915 71.06764 115.66362 71.9295 115.73575 72.74132 115.80788 73.50797 115.87999 74.23181 115.9521 74.91776 116.02423 75.56819 116.09636 76.18472 116.16847 76.7722 116.2406 77.32741 116.31271 77.8584 116.38484 78.36356 116.45697 78.84454 116.52908 79.30289 116.60121 79.7427 116.67334 80.1599 116.74545 80.56017 116.81757 80.94269 116.8897 81.30905 116.96182 81.65848 117.03394 81.99419 117.10606 82.31456 117.17818 82.62363 117.25032 82.91899 117.32243 83.20222 117.39455 83.4742 117.46667 83.73485 117.5388 83.9842 117.61092 84.2255 117.68304 84.45709 117.75516 84.67902 117.82729 84.89204 117.89941 85.0962 117.97153 85.2923 118.04364 85.48195 118.11577 85.66272 118.1879 85.83623 118.26001 86.00407 118.33214 86.16385 118.40425 86.31879 118.47638 86.46648 118.54851 86.6085 118.62062 86.74489 118.69273 86.87561 118.76488 86.9999 118.83699 87.12094 118.9091 87.23473 118.98123 87.34366 119.05336 87.44856 119.12547 87.54945 119.1976 87.64384 119.26971 87.73666 119.34184 87.8222 119.41397 87.90372 119.48608 87.98277 119.5582 88.05544 119.63034 88.12561 119.70245 88.19179 119.77457 88.25475 119.8467 88.31285 119.91881 88.36691 119.99094 88.41856 120.06306 88.46536 120.13518 88.50813 120.20729 88.5493 120.27943 88.5848 120.35155 88.61789 120.42366 88.64854 120.49579 88.67438 120.56792 88.69777 120.64003 88.71794 120.71216 88.73409 120.78427 88.747 120.8564 88.75749 120.92853 88.76314 121.00064 88.76717H121.07275L121.1449 88.76314 121.21701 88.75749 121.28912 88.747 121.36125 88.73409 121.43336 88.71794 121.5055 88.69777 121.57762 88.676 121.64973 88.64854 121.72185 88.6195 121.79399 88.58562 121.8661 88.5493 121.93822 88.50974 122.01036 88.46536 122.08246 88.41856 122.15459 88.36691 122.22672 88.31285 122.29883 88.25475 122.37096 88.1934 122.44308 88.12643 122.5152 88.05621 122.58733 87.98277 122.65944 87.90451 122.73157 87.8238 122.80368 87.73749 122.87581 87.64546 122.94794 87.55025 123.02005 87.44937 123.09218 87.34608 123.16429 87.23633 123.2364 87.12173 123.30855 87.00069 123.38066 86.87723 123.45277 86.74649 123.5249 86.61092 123.59703 86.46808 123.66914 86.3204 123.74127 86.16628 123.81339 86.00648 123.8855 85.83864 123.95764 85.66513 124.02975 85.48438 124.10187 85.29474 124.17401 85.09782 124.24612 84.89447 124.31824 84.68143 124.39038 84.4595 124.46248 84.2279 124.5346 83.98824 124.60674 83.73807 124.67885 83.47823 124.75099 83.20627 124.8231 82.92302 124.89522 82.62685 124.96735 82.32019 125.03947 81.9982 125.11159 81.66331 125.18372 81.3139 125.25583 80.94672 125.32794 80.56502 125.40009 80.16475 125.4722 79.74754 125.54431 79.30936 125.61646 78.85098 125.68855 78.36922 125.76068 77.86484 125.83282 77.33546 125.90492 76.77866 125.97705 76.1936 126.04918 75.57707 126.12129 74.92664 126.19342 74.24069 126.26553 73.51926 126.33766 72.751 126.40977 71.9408 126.4819 71.07893 126.55403 70.16463 126.62614 69.19464 126.69827 68.16008 126.77039 67.05533 126.84251 65.87392 126.91464 64.60938 126.98676 63.24799 127.05887 61.78413 127.131 60.20567 127.20313 58.49567 127.27524 56.64366 127.34737 54.62376 127.4195 52.41345 127.4916 49.99251 127.56374 47.3214 127.63585 44.36703 127.70796 41.08182 127.7801 37.4036 127.85222 33.26216 127.92433 28.5534 127.99648 23.17973 128.06858 16.96274 128.1407 9.69426 128.18859 3.99857"/>
<path transform="matrix(-.008380418,.99998,.99996998,.008380502,121.97018,162.65019)" d="M2.8892 0-1.73352 2.31136 0 0-1.73352-2.31136" fill="#0000ff"/>
<path transform="matrix(.008390419,.99998,.99996998,-.008390503,136.27469,162.53639)" d="M2.8892 0-1.73352 2.31136 0 0-1.73352-2.31136" fill="#0000ff"/>
<path transform="matrix(1.00005,0,0,-1.00006,8.079704,166.5352)" stroke-width=".99628" stroke-linecap="butt" stroke-miterlimit="10" stroke-linejoin="miter" fill="none" stroke="#0000ff" d="M130.57881 157.73136 130.5609 158.35726 130.62599 156.28089 130.69107 154.36351 130.75617 152.59783 130.82125 150.96045 130.88634 149.43608 130.95143 148.0174 131.01651 146.69315 131.0816 145.45362 131.14669 144.29238 131.21178 143.20052 131.27687 142.17566 131.34195 141.2105 131.40705 140.2978 131.47212 139.43758 131.53722 138.6209 131.60231 137.84781 131.6674 137.11428 131.7325 136.41945 131.79758 135.75934 131.86267 135.12909 131.92775 134.52951 131.99285 133.95897 132.05794 133.41507 132.12302 132.89374 132.18811 132.39665 132.25319 131.91974 132.31829 131.46459 132.38336 131.028 132.44846 130.61241 132.51355 130.21215 132.57863 129.82723 132.64373 129.45844 132.70882 129.10497 132.77391 128.76523 132.83899 128.4376 132.90409 128.12368 132.96918 127.82187 133.03426 127.53137 133.09935 127.25052 133.16443 126.98099 133.22953 126.72356 133.2946 126.4734 133.3597 126.23212 133.42478 126.0005 133.48987 125.77617 133.55496 125.56151 133.62004 125.35332 133.68514 125.15237 133.75022 124.96031 133.81533 124.77472 133.88042 124.59476 133.9455 124.42043 134.01059 124.2534 134.07567 124.092 134.14076 123.93706 134.20584 123.78777 134.27094 123.64413 134.33603 123.50372 134.40111 123.36977 134.4662 123.24144 134.53128 123.11555 134.59638 122.99611 134.66147 122.88152 134.72655 122.77097 134.79164 122.66365 134.85672 122.56197 134.92183 122.4627 134.98691 122.3691 135.052 122.27872 135.1171 122.19077 135.18218 122.10844 135.24727 122.02855 135.31235 121.9535 135.37744 121.87926 135.44254 121.81146 135.50762 121.7453 135.57271 121.68236 135.63779 121.62344 135.70288 121.56694 135.76796 121.51369 135.83306 121.46286 135.89813 121.41605 135.96323 121.37329 136.02834 121.33131 136.09342 121.29338 136.15851 121.25706 136.22359 121.2256 136.28868 121.19574 136.35376 121.1675 136.41886 121.14409 136.48395 121.12311 136.54903 121.10455 136.61412 121.08762 136.6792 121.07552 136.7443 121.0642 136.80937 121.05533 136.87447 121.05049 136.93956 121.04807H137.00464L137.06974 121.05049 137.13483 121.05533 137.19992 121.0642 137.265 121.07552 137.3301 121.08762 137.39519 121.10455 137.46027 121.12311 137.52536 121.14409 137.59044 121.1675 137.65554 121.19574 137.72063 121.2256 137.7857 121.25706 137.8508 121.29338 137.91588 121.33131 137.98097 121.37247 138.04607 121.41605 138.11115 121.46286 138.17624 121.51369 138.24134 121.56694 138.30643 121.62184 138.37152 121.68153 138.4366 121.74368 138.5017 121.81067 138.56678 121.87926 138.63187 121.95107 138.69696 122.02855 138.76204 122.10683 138.82714 122.18994 138.89221 122.2771 138.9573 122.36667 139.02239 122.4619 139.08748 122.56035 139.15256 122.66284 139.21765 122.76936 139.28275 122.8791 139.34784 122.9953 139.41294 123.11475 139.47801 123.23903 139.54309 123.36813 139.60819 123.50209 139.67328 123.6417 139.73836 123.78535 139.80345 123.93463 139.86853 124.0912 139.93363 124.25098 139.99872 124.41882 140.0638 124.59073 140.12889 124.77147 140.19397 124.95789 140.25907 125.14996 140.32416 125.35089 140.38925 125.55829 140.45435 125.77457 140.51943 125.99728 140.58452 126.22809 140.64962 126.47017 140.71469 126.72034 140.77979 126.97858 140.84487 127.24649 140.90996 127.52733 140.97505 127.81783 141.04013 128.11965 141.10523 128.43357 141.1703 128.76039 141.2354 129.10013 141.30049 129.4536 141.36557 129.82318 141.43067 130.2057 141.49576 130.60597 141.56085 131.02317 141.62595 131.45973 141.69103 131.91408 141.7561 132.38939 141.8212 132.88649 141.88629 133.407 141.95137 133.9509 142.01647 134.52063 142.08155 135.12021 142.14664 135.74967 142.21172 136.40978 142.27681 137.1054 142.34189 137.83652 142.40699 138.61122 142.47206 139.42386 142.53716 140.2857 142.60227 141.1976 142.66735 142.16356 142.73244 143.1868 142.79752 144.27625 142.86261 145.43747 142.9277 146.677 142.99279 147.99803 143.05788 149.41509 143.12296 150.93787 143.18805 152.57361 143.25315 154.3417 143.31822 156.25428 143.38332 158.32901 143.3654 157.70069"/>
<path transform="matrix(-.028731434,-.99959996,-.9995899,.028731723,138.66504,8.794403)" d="M2.8892 0-1.73352 2.31136 0 0-1.73352-2.31136" fill="#0000ff"/>
<path transform="matrix(.028731434,-.99959996,-.9995899,-.028731723,151.45224,8.825073)" d="M2.8892 0-1.73352 2.31136 0 0-1.73352-2.31136" fill="#0000ff"/>
<path transform="matrix(1.00005,0,0,-1.00006,8.079704,166.5352)" stroke-width=".99628" stroke-linecap="butt" stroke-miterlimit="10" stroke-linejoin="miter" fill="none" stroke="#0000ff" d="M145.75572 3.90495 145.80365 9.61517 145.87578 16.88689 145.94789 23.12244 146.02 28.5026 146.09215 33.21053 146.16426 37.36163 146.23638 41.04712 146.3085 44.33475 146.38063 47.29475 146.45275 49.96588 146.52487 52.39166 146.59699 54.60199 146.66912 56.62349 146.74124 58.47713 146.81336 60.18953 146.88549 61.76799 146.9576 63.23347 147.02973 64.59323 147.10186 65.861 147.17397 67.04242 147.24608 68.1496 147.31822 69.18495 147.39034 70.15656 147.46245 71.07007 147.53458 71.93193 147.6067 72.74376 147.67882 73.51038 147.75095 74.23181 147.82306 74.91937 147.89519 75.56898 147.96732 76.18634 148.03943 76.7722 148.11154 77.32983 148.18367 77.86002 148.2558 78.36438 148.32791 78.84615 148.40004 79.30533 148.47217 79.7435 148.54428 80.1599 148.61641 80.56017 148.68852 80.94429 148.76065 81.30986 148.83278 81.65927 148.90489 81.99419 148.977 82.31616 149.04914 82.62363 149.12126 82.91899 149.19338 83.20222 149.2655 83.4742 149.33762 83.73566 149.40975 83.98581 149.48188 84.2255 149.55399 84.45709 149.6261 84.67902 149.69824 84.89204 149.77036 85.0962 149.84247 85.29312 149.9146 85.48195 149.98673 85.66272 150.05884 85.83784 150.13097 86.00407 150.20308 86.16547 150.27519 86.31879 150.34734 86.46648 150.41945 86.60931 150.49156 86.74489 150.56369 86.87561 150.63582 86.9999 150.70793 87.12094 150.78006 87.23473 150.85218 87.34447 150.9243 87.44937 150.99643 87.54945 151.06855 87.64546 151.14066 87.73666 151.2128 87.8222 151.28491 87.90372 151.35703 87.98277 151.42916 88.05621 151.50128 88.12643 151.5734 88.19179 151.64553 88.25475 151.71764 88.31285 151.78977 88.36691 151.8619 88.41856 151.934 88.46536 152.00612 88.50813 152.07826 88.5493 152.15038 88.58562 152.22249 88.61789 152.29462 88.64854 152.36673 88.67438 152.43886 88.69777 152.51099 88.71794 152.5831 88.73409 152.65522 88.747 152.72736 88.75749 152.79947 88.76314 152.87158 88.76717H152.94371L153.01584 88.76314 153.08795 88.75749 153.16008 88.747 153.2322 88.73409 153.30432 88.71794 153.37645 88.69777 153.44857 88.676 153.52068 88.64854 153.5928 88.61789 153.66493 88.58562 153.73705 88.5493 153.80918 88.50974 153.8813 88.46536 153.95342 88.41856 154.02555 88.36772 154.09767 88.31285 154.16977 88.25475 154.24192 88.1934 154.31403 88.12643 154.38616 88.05621 154.45829 87.98277 154.5304 87.90451 154.60253 87.8222 154.67464 87.73666 154.74675 87.64546 154.8189 87.54945 154.891 87.44937 154.96312 87.34447 155.03525 87.23633 155.10738 87.12173 155.17949 87.00069 155.25162 86.87723 155.32375 86.74649 155.39585 86.61092 155.46799 86.46808 155.5401 86.3204 155.61222 86.16628 155.68436 86.00488 155.75646 85.83864 155.82859 85.66513 155.90073 85.48357 155.97283 85.29474 156.04496 85.09782 156.11708 84.89447 156.1892 84.68143 156.26132 84.4595 156.33345 84.2279 156.40557 83.98662 156.47768 83.73726 156.5498 83.47742 156.62194 83.20467 156.69405 82.9214 156.76618 82.62605 156.83829 82.31859 156.91042 81.9974 156.98255 81.66171 157.05466 81.31229 157.12677 80.94672 157.1989 80.56502 157.27103 80.16475 157.34314 79.74594 157.41527 79.30936 157.4874 78.85017 157.5595 78.36841 157.63164 77.86484 157.70377 77.33386 157.77587 76.77866 157.848 76.19116 157.92012 75.57544 157.99224 74.925 158.06438 74.23907 158.13648 73.51683 158.2086 72.74939 158.28073 71.93839 158.35285 71.07733 158.42498 70.16222 158.4971 69.19223 158.56922 68.15767 158.64133 67.05211 158.71347 65.87149 158.78559 64.60693 158.8577 63.24475 158.92983 61.78171 159.00194 60.20406 159.07407 58.49326 159.1462 56.63881 159.2183 54.61894 159.29044 52.40862 159.36255 49.98929 159.43468 47.31573 159.50679 44.36221 159.57892 41.07375 159.65105 37.39471 159.72316 33.25006 159.79529 28.54778 159.86742 23.16762 159.93952 16.94902 160.01166 9.6773 160.05953 3.9784"/>
<path transform="matrix(-.008380418,.99998,.99996998,.008380502,153.84272,162.63002)" d="M2.8892 0-1.73352 2.31136 0 0-1.73352-2.31136" fill="#0000ff"/>
<path transform="matrix(.008390419,.99998,.99996998,-.008390503,168.14722,162.55657)" d="M2.8892 0-1.73352 2.31136 0 0-1.73352-2.31136" fill="#0000ff"/>
<path transform="matrix(1.00005,0,0,-1.00006,8.079704,166.5352)" stroke-width=".99628" stroke-linecap="butt" stroke-miterlimit="10" stroke-linejoin="miter" fill="none" stroke="#0000ff" d="M162.44976 157.7249 162.43183 158.3524 162.49692 156.27526 162.562 154.35947 162.62709 152.59299 162.69217 150.95563 162.75727 149.43204 162.82234 148.01335 162.88744 146.69234 162.95252 145.4528 163.01763 144.28995 163.0827 143.1989 163.14778 142.17566 163.21288 141.20809 163.27796 140.29538 163.34305 139.43514 163.40813 138.6209 163.47322 137.84619 163.5383 137.11428 163.6034 136.41783 163.66847 135.75855 163.73357 135.12992 163.79865 134.5279 163.86374 133.95816 163.92882 133.41265 163.99391 132.89295 164.059 132.39504 164.1241 131.91974 164.18918 131.46459 164.25428 131.028 164.31935 130.6108 164.38445 130.21053 164.44953 129.82723 164.51462 129.45844 164.5797 129.10416 164.64479 128.76523 164.70987 128.4376 164.77495 128.12368 164.84004 127.82187 164.90512 127.53137 164.97022 127.25052 165.0353 126.98099 165.10039 126.72195 165.16548 126.47261 165.23058 126.23212 165.29566 125.99971 165.36075 125.77617 165.42583 125.56151 165.49092 125.35332 165.556 125.15237 165.6211 124.95871 165.68618 124.7731 165.75127 124.59312 165.81635 124.42043 165.88144 124.2534 165.94652 124.092 166.01161 123.93706 166.07669 123.78697 166.14177 123.64413 166.20687 123.50372 166.27196 123.36977 166.33705 123.23982 166.40213 123.11717 166.46723 122.99611 166.5323 122.88152 166.5974 122.77097 166.66248 122.66365 166.72757 122.56197 166.79265 122.4627 166.85774 122.36829 166.92282 122.27872 166.98792 122.19077 167.053 122.10844 167.11809 122.02855 167.18317 121.9535 167.24826 121.87926 167.31334 121.81146 167.37845 121.7453 167.44353 121.68236 167.5086 121.62344 167.5737 121.56694 167.63878 121.51369 167.70388 121.46286 167.76895 121.41605 167.83405 121.37329 167.89913 121.33131 167.96422 121.29338 168.0293 121.25706 168.09439 121.2256 168.15947 121.19574 168.22457 121.1675 168.28964 121.14409 168.35474 121.12311 168.41982 121.10455 168.48493 121.08762 168.55 121.07552 168.6151 121.0642 168.68018 121.05533 168.74527 121.05049 168.81035 121.04807H168.87545L168.94052 121.05049 169.0056 121.05533 169.0707 121.0642 169.13578 121.07552 169.20087 121.08762 169.26596 121.10455 169.33104 121.12311 169.39612 121.14409 169.46121 121.1675 169.5263 121.19574 169.5914 121.2256 169.65648 121.25706 169.72158 121.29338 169.78665 121.33131 169.85175 121.37247 169.91683 121.41605 169.98192 121.46286 170.047 121.51369 170.11208 121.56694 170.17717 121.62184 170.24227 121.68236 170.30735 121.7453 170.37244 121.81067 170.43752 121.87926 170.5026 121.95189 170.56769 122.02695 170.63278 122.10683 170.69788 122.18994 170.76296 122.2771 170.82805 122.36667 170.89315 122.4619 170.95822 122.56035 171.0233 122.66284 171.0884 122.76936 171.15348 122.8791 171.21857 122.9953 171.28365 123.11475 171.34874 123.23903 171.41382 123.36813 171.47891 123.50209 171.54399 123.6417 171.60907 123.78535 171.67417 123.93463 171.73926 124.08957 171.80435 124.25098 171.86945 124.41882 171.93453 124.59073 171.99962 124.77068 172.0647 124.95627 172.12978 125.14996 172.19487 125.35089 172.25995 125.55829 172.32505 125.77295 172.39012 125.99728 172.45522 126.22809 172.52031 126.47017 172.58539 126.71873 172.65047 126.97696 172.71555 127.24649 172.78064 127.52652 172.84575 127.81705 172.91083 128.11885 172.97592 128.43276 173.041 128.76039 173.10608 129.10013 173.17118 129.4536 173.23625 129.82318 173.30135 130.2049 173.36643 130.60515 173.43152 131.02236 173.49662 131.45813 173.56169 131.91408 173.62679 132.38777 173.69187 132.88568 173.75695 133.40619 173.82204 133.9509 173.88712 134.52063 173.95223 135.12021 174.0173 135.74803 174.0824 136.40978 174.14748 137.10378 174.21257 137.83652 174.27765 138.6088 174.34273 139.42144 174.40782 140.28328 174.47292 141.19437 174.538 142.15952 174.60309 143.18439 174.66817 144.27542 174.73326 145.43506 174.79834 146.67298 174.86342 147.99642 174.92852 149.41347 174.99359 150.93546 175.0587 152.572 175.1238 154.3401 175.18888 156.2494 175.25395 158.32416 175.23595 157.69344"/>
<path transform="matrix(-.028731434,-.99959996,-.9995899,.028731723,170.5376,8.800858)" d="M2.8892 0-1.73352 2.31136 0 0-1.73352-2.31136" fill="#0000ff"/>
<path transform="matrix(.028761436,-.99959996,-.9995899,-.028761724,183.3244,8.832321)" d="M2.8892 0-1.73352 2.31136 0 0-1.73352-2.31136" fill="#0000ff"/>
<path transform="matrix(1.00005,0,0,-1.00006,8.079704,166.5352)" stroke-width=".99628" stroke-linecap="butt" stroke-miterlimit="10" stroke-linejoin="miter" fill="none" stroke="#0000ff" d="M177.62618 3.86542 177.6741 9.58209 177.74622 16.85783 177.81836 23.09258 177.89048 28.4824 177.9626 33.19843 178.03473 37.34467 178.10684 41.0326 178.17897 44.32104 178.2511 47.2851 178.32323 49.95862 178.39534 52.38118 178.46749 54.5907 178.5396 56.61378 178.61171 58.47064 178.68386 60.18227 178.75597 61.76476 178.8281 63.22862 178.90023 64.58919 178.97235 65.85777 179.04447 67.04001 179.11661 68.14557 179.18872 69.18091 179.26084 70.15253 179.33298 71.06764 179.40509 71.9279 179.47722 72.73972 179.54935 73.50716 179.62148 74.231 179.69359 74.91695 179.76573 75.56819 179.83785 76.18391 179.90996 76.7714 179.9821 77.32741 180.05422 77.8584 180.12635 78.36356 180.19847 78.84372 180.2706 79.30289 180.34272 79.74109 180.41484 80.1599 180.48697 80.55856 180.55908 80.94188 180.63123 81.30905 180.70334 81.65848 180.77547 81.99336 180.8476 82.31616 180.91973 82.62363 180.99184 82.91899 181.06397 83.20222 181.1361 83.47337 181.2082 83.73485 181.28035 83.9842 181.35247 84.2255 181.42459 84.45709 181.49672 84.67902 181.56885 84.89204 181.64096 85.0962 181.71309 85.2923 181.78522 85.48195 181.85733 85.66272 181.92948 85.83623 182.00159 86.00407 182.07372 86.16385 182.14585 86.31879 182.21796 86.46648 182.29009 86.60931 182.36222 86.74489 182.43434 86.87561 182.50647 86.9999 182.5786 87.12094 182.65071 87.23473 182.72286 87.34447 182.79497 87.44856 182.86708 87.54945 182.93923 87.64384 183.01134 87.73666 183.08347 87.8222 183.1556 87.90372 183.22772 87.98117 183.29984 88.05544 183.37198 88.12643 183.44409 88.19179 183.5162 88.25475 183.58835 88.31285 183.66046 88.36691 183.73259 88.41695 183.80472 88.46536 183.87685 88.50813 183.94896 88.5493 184.02109 88.58562 184.09322 88.61789 184.16533 88.64854 184.23748 88.67438 184.30959 88.69777 184.38172 88.71794 184.45384 88.73409 184.52597 88.747 184.59809 88.75749 184.67021 88.76314 184.74234 88.76717H184.81446L184.8866 88.76314 184.95871 88.75749 185.03084 88.747 185.10297 88.73409 185.1751 88.71794 185.24721 88.69777 185.31934 88.676 185.39147 88.64854 185.46358 88.61789 185.53572 88.58562 185.60784 88.5493 185.67995 88.50974 185.75209 88.46536 185.8242 88.41856 185.89633 88.36691 185.96848 88.31285 186.04059 88.25475 186.1127 88.1934 186.18483 88.12643 186.25696 88.05621 186.32909 87.98277 186.40122 87.90451 186.47335 87.8222 186.54546 87.73666 186.61759 87.64546 186.68972 87.55025 186.76183 87.44937 186.83397 87.34447 186.90608 87.23633 186.97821 87.12173 187.05034 87.00069 187.12245 86.87723 187.19458 86.74649 187.26671 86.61092 187.33884 86.46808 187.41095 86.3204 187.48308 86.16628 187.5552 86.00488 187.62732 85.83864 187.69947 85.66513 187.77159 85.48357 187.8437 85.29474 187.91584 85.09782 187.98795 84.89447 188.06008 84.68143 188.13222 84.4595 188.20433 84.2279 188.27646 83.98662 188.34859 83.73726 188.4207 83.4758 188.49283 83.20467 188.56496 82.9214 188.63709 82.62605 188.7092 82.31859 188.78134 81.9974 188.85346 81.66171 188.92557 81.31229 188.99771 80.9451 189.06983 80.56259 189.14196 80.16315 189.21408 79.74594 189.2862 79.30772 189.35832 78.84857 189.43045 78.36679 189.50258 77.86243 189.5747 77.33305 189.64684 76.77705 189.71895 76.18956 189.79106 75.57303 189.8632 74.92259 189.93534 74.23828 190.00745 73.51279 190.07959 72.7486 190.1517 71.93596 190.22382 71.0749 190.29596 70.16139 190.36808 69.19061 190.4402 68.15443 190.51233 67.04968 190.58446 65.86583 190.65657 64.6005 190.7287 63.24236 190.80083 61.77928 190.87294 60.19922 190.94509 58.48761 191.0172 56.63478 191.08931 54.61166 191.16146 52.40376 191.23357 49.98041 191.3057 47.30685 191.37784 44.35333 191.44995 41.06406 191.52207 37.381 191.5942 33.2307 191.66632 28.5268 191.73845 23.14342 191.81058 16.92482 191.8827 9.64987 191.93058 3.94371"/>
<path transform="matrix(-.008380418,.99998,.99996998,.008380502,185.71475,162.66956)" d="M2.8892 0-1.73352 2.31136 0 0-1.73352-2.31136" fill="#0000ff"/>
<path transform="matrix(.008390419,.99998,.99996998,-.008390503,200.01987,162.59127)" d="M2.8892 0-1.73352 2.31136 0 0-1.73352-2.31136" fill="#0000ff"/>
<path transform="matrix(1.00005,0,0,-1.00006,8.079704,166.5352)" stroke-width=".3985" stroke-linecap="butt" stroke-dasharray="2.98883,2.98883" stroke-miterlimit="10" stroke-linejoin="miter" fill="none" stroke="#ff0000" d="M1.52171 0V161.39636"/>
<path transform="matrix(1.00005,0,0,-1.00006,8.079704,166.5352)" stroke-width=".3985" stroke-linecap="butt" stroke-dasharray="2.98883,2.98883" stroke-miterlimit="10" stroke-linejoin="miter" fill="none" stroke="#ff0000" d="M17.45844 0V161.39636"/>
<path transform="matrix(1.00005,0,0,-1.00006,8.079704,166.5352)" stroke-width=".3985" stroke-linecap="butt" stroke-dasharray="2.98883,2.98883" stroke-miterlimit="10" stroke-linejoin="miter" fill="none" stroke="#ff0000" d="M33.39386 0V161.39636"/>
<path transform="matrix(1.00005,0,0,-1.00006,8.079704,166.5352)" stroke-width=".3985" stroke-linecap="butt" stroke-dasharray="2.98883,2.98883" stroke-miterlimit="10" stroke-linejoin="miter" fill="none" stroke="#ff0000" d="M49.32788 0V161.39636"/>
<path transform="matrix(1.00005,0,0,-1.00006,8.079704,166.5352)" stroke-width=".3985" stroke-linecap="butt" stroke-dasharray="2.98883,2.98883" stroke-miterlimit="10" stroke-linejoin="miter" fill="none" stroke="#ff0000" d="M65.26335 0V161.39636"/>
<path transform="matrix(1.00005,0,0,-1.00006,8.079704,166.5352)" stroke-width=".3985" stroke-linecap="butt" stroke-dasharray="2.98883,2.98883" stroke-miterlimit="10" stroke-linejoin="miter" fill="none" stroke="#ff0000" d="M81.19862 0V161.39636"/>
<path transform="matrix(1.00005,0,0,-1.00006,8.079704,166.5352)" stroke-width=".3985" stroke-linecap="butt" stroke-dasharray="2.98883,2.98883" stroke-miterlimit="10" stroke-linejoin="miter" fill="none" stroke="#ff0000" d="M97.13405 0V161.39636"/>
<path transform="matrix(1.00005,0,0,-1.00006,8.079704,166.5352)" stroke-width=".3985" stroke-linecap="butt" stroke-dasharray="2.98883,2.98883" stroke-miterlimit="10" stroke-linejoin="miter" fill="none" stroke="#ff0000" d="M192.74642 0V161.39636"/>
<path transform="matrix(1.00005,0,0,-1.00006,8.079704,166.5352)" stroke-width=".3985" stroke-linecap="butt" stroke-dasharray="2.98883,2.98883" stroke-miterlimit="10" stroke-linejoin="miter" fill="none" stroke="#ff0000" d="M176.8097 0V161.39636"/>
<path transform="matrix(1.00005,0,0,-1.00006,8.079704,166.5352)" stroke-width=".3985" stroke-linecap="butt" stroke-dasharray="2.98883,2.98883" stroke-miterlimit="10" stroke-linejoin="miter" fill="none" stroke="#ff0000" d="M160.87425 0V161.39636"/>
<path transform="matrix(1.00005,0,0,-1.00006,8.079704,166.5352)" stroke-width=".3985" stroke-linecap="butt" stroke-dasharray="2.98883,2.98883" stroke-miterlimit="10" stroke-linejoin="miter" fill="none" stroke="#ff0000" d="M144.94025 0V161.39636"/>
<path transform="matrix(1.00005,0,0,-1.00006,8.079704,166.5352)" stroke-width=".3985" stroke-linecap="butt" stroke-dasharray="2.98883,2.98883" stroke-miterlimit="10" stroke-linejoin="miter" fill="none" stroke="#ff0000" d="M129.00478 0V161.39636"/>
<path transform="matrix(1.00005,0,0,-1.00006,8.079704,166.5352)" stroke-width=".3985" stroke-linecap="butt" stroke-dasharray="2.98883,2.98883" stroke-miterlimit="10" stroke-linejoin="miter" fill="none" stroke="#ff0000" d="M113.06949 0V161.39636"/>
<use data-text="x" xlink:href="#font_3_2" transform="matrix(9.963098,0,0,-9.963197,193.14295,82.31215)"/>
<use data-text="y" xlink:href="#font_3_3" transform="matrix(9.963098,0,0,-9.963197,108.73873,12.93898)"/>
</svg>
