<svg xmlns="http://www.w3.org/2000/svg" xmlns:xlink="http://www.w3.org/1999/xlink" version="1.1" width="224" height="232" viewBox="0 0 224 232">
<defs>
<path id="font_1_1" d="M.13198853 .327713V.35173036C.13198853 .6047821 .2559967 .64100649 .30699159 .64100649 .33099366 .64100649 .37298585 .634964 .394989 .6007538 .37998963 .6007538 .33999635 .6007538 .33999635 .5557556 .33999635 .524765 .3639984 .5097656 .38598634 .5097656 .4019928 .5097656 .43199159 .51875308 .43199159 .5577545 .43199159 .6178589 .3880005 .6660156 .30499269 .6660156 .1769867 .6660156 .041992189 .5367584 .041992189 .31570436 .041992189 .048553468 .1579895-.022460938 .25099183-.022460938 .3619995-.022460938 .45700074 .07156372 .45700074 .2036438 .45700074 .33070375 .36799623 .4267578 .25698854 .4267578 .18899536 .4267578 .1519928 .37573243 .13198853 .327713M.25099183 .0055389406C.18798828 .0055389406 .1579895 .06556702 .1519928 .080566409 .13398743 .127594 .13398743 .2076416 .13398743 .22564698 .13398743 .30369569 .1659851 .40374757 .2559967 .40374757 .27198792 .40374757 .31799317 .40374757 .34899903 .34172059 .36698915 .30470277 .36698915 .2536621 .36698915 .20463562 .36698915 .15661621 .36698915 .10658264 .34999085 .0705719 .31999208 .010528564 .27398683 .0055389406 .25099183 .0055389406Z"/>
<path id="font_1_2" d="M.47599793 .609375C.4850006 .6213684 .4850006 .62338259 .4850006 .64437869H.24198914C.11999512 .64437869 .117996219 .65737918 .11399841 .67637637H.08898926L.055999757 .4702301H.08099365C.083999637 .48625184 .09298706 .5493469 .10598755 .56137087 .11299133 .5673828 .19099427 .5673828 .20399475 .5673828H.41099549C.3999939 .5513611 .32099916 .4421997 .29899598 .40914918 .20899964 .27394105 .17599488 .1347351 .17599488 .032577516 .17599488 .022567749 .17599488-.022460938 .22200012-.022460938 .2679901-.022460938 .2679901 .022567749 .2679901 .032577516V.08366394C.2679901 .13873291 .2709961 .19381714 .2789917 .24790955 .2829895 .27093507 .29699708 .35707093 .34098817 .41915895L.47599793 .609375Z"/>
<path id="font_2_1" d="M.5069885 .24998474C.5069885 .3710022 .4099884 .4650116 .2919922 .4650116 .17199707 .4650116 .07699585 .36799623 .07699585 .25097657 .07699585 .1299591 .17399597 .035949708 .2919922 .035949708 .4119873 .035949708 .5069885 .13296509 .5069885 .24998474M.2919922 .08496094C.19799805 .08496094 .12599182 .16096497 .12599182 .24998474 .12599182 .34300233 .19999695 .41601563 .2919922 .41601563 .38598634 .41601563 .45799256 .33999635 .45799256 .25097657 .45799256 .15795899 .38398744 .08496094 .2919922 .08496094Z"/>
<path id="font_3_46" d="M.70700076 .33580018C.70700076 .52568057 .57199099 .6826172 .40098573 .6826172H.034988405V.6516113H.05899048C.13598633 .6516113 .13798523 .64060977 .13798523 .6046295V.07795715C.13798523 .041992189 .13598633 .0309906 .05899048 .0309906H.034988405V0H.40098573C.56900027 0 .70700076 .1479187 .70700076 .33580018M.6069946 .33580018C.6069946 .22486878 .58799746 .16490174 .5519867 .11593628 .5319977 .08895874 .47499085 .0309906 .37399293 .0309906H.272995C.22599793 .0309906 .22399903 .037994386 .22399903 .07096863V.6116333C.22399903 .64460757 .22599793 .6516113 .272995 .6516113H.37298585C.43499757 .6516113 .5039978 .6296234 .5549927 .55867007 .59799197 .49969483 .6069946 .41375733 .6069946 .33580018Z"/>
<path id="font_3_81" d="M.47099305 .21424866C.47099305 .34223939 .37098695 .4482422 .25 .4482422 .125 .4482422 .027999878 .3392334 .027999878 .21424866 .027999878 .085250858 .13198853-.0107421879 .24899292-.0107421879 .36999513-.0107421879 .47099305 .087249759 .47099305 .21424866M.3880005 .22224427C.3880005 .18624878 .3880005 .13224793 .3659973 .08824158 .34399415 .04324341 .2999878 .014251709 .25 .014251709 .20698548 .014251709 .16299439 .035247804 .13598633 .08125305 .11099243 .12524414 .11099243 .18624878 .11099243 .22224427 .11099243 .26124574 .11099243 .31523133 .1349945 .35923768 .1619873 .40522767 .20899964 .426239 .24899292 .426239 .29299928 .426239 .33599855 .40423585 .3619995 .36123658 .3880005 .3182373 .3880005 .26023866 .3880005 .22224427Z"/>
<path id="font_3_114" d="M.7029877 .3996582V.43066407C.68099978 .4286499 .6519928 .42765809 .6299896 .42765809L.5369873 .43066407V.3996582C.57299807 .39866639 .59498599 .38075257 .59498599 .35176087 .59498599 .34576417 .59498599 .34376527 .58999636 .33078004L.49899293 .07513428 .3999939 .35375978C.3959961 .36575318 .394989 .36775209 .394989 .37275697 .394989 .3996582 .43399049 .3996582 .45399476 .3996582V.43066407L.34999085 .42765809C.31999208 .42765809 .29100038 .4286499 .26098634 .43066407V.3996582C.2979889 .3996582 .31399537 .39767457 .32398988 .38476563 .32899476 .37875367 .33999635 .34877015 .34700013 .3297882L.26098634 .08811951 .1659851 .3547516C.16099549 .36676026 .16099549 .36875917 .16099549 .37275697 .16099549 .3996582 .19999695 .3996582 .21998596 .3996582V.43066407L.11099243 .42765809 .017990113 .43066407V.3996582C.067993167 .3996582 .07998657 .39668275 .09199524 .36476136L.21798706 .01121521C.22299195-.0027618409 .22599793-.0107421879 .23899842-.0107421879 .2519989-.0107421879 .2539978-.004760742 .25898744 .009216309L.3600006 .2918396 .46199037 .008224487C.46598817-.0027618409 .46899415-.0107421879 .48199464-.0107421879 .49499513-.0107421879 .49798585-.0017547608 .5019989 .008224487L.61898806 .3357849C.6369934 .38575746 .66799929 .39866639 .7029877 .3996582Z"/>
<path id="font_3_77" d="M.5349884 0V.0309906C.48298646 .0309906 .45799256 .0309906 .45700074 .061019899V.25221253C.45700074 .3383026 .45700074 .36932374 .42599488 .405365 .4119873 .42237855 .3789978 .4423828 .32099916 .4423828 .24798584 .4423828 .20098877 .39935304 .17298889 .33729554V.4423828L.03199768 .43066407V.3996582C.101989749 .3996582 .10998535 .39266969 .10998535 .34370423V.07595825C.10998535 .0309906 .09899902 .0309906 .03199768 .0309906V0L.14498902 .0029907227 .25698854 0V.0309906C.18998719 .0309906 .1789856 .0309906 .1789856 .07595825V.25978089C.1789856 .36431886 .25 .42037965 .31399537 .42037965 .3769989 .42037965 .3880005 .36631776 .3880005 .30926515V.076034549C.3880005 .0309906 .3769989 .0309906 .30999757 .0309906V0L.4229889 .0029907227 .5349884 0Z"/>
<path id="font_3_66" d="M.24699402 0V.0309906C.18099976 .0309906 .1769867 .035995485 .1769867 .075042728V.4423828L.036987306 .43066407V.3996582C.101989749 .3996582 .11099243 .3936615 .11099243 .3447113V.07595825C.11099243 .0309906 .099990848 .0309906 .032989503 .0309906V0L.14299011 .0029907227C.17799378 .0029907227 .21299744 .0009918213 .24699402 0M.19198609 .603775C.19198609 .6307678 .16899109 .6567688 .13899231 .6567688 .10499573 .6567688 .084991458 .6287689 .084991458 .603775 .084991458 .57676699 .10798645 .55078127 .13798523 .55078127 .17199707 .55078127 .19198609 .5787811 .19198609 .603775Z"/>
<path id="font_3_47" d="M.5269928 0V.0309906C.45700074 .0309906 .44898988 .038009645 .44898988 .0871582V.69433596L.30499269 .6826172V.6516113C.375 .6516113 .3829956 .64463809 .3829956 .59580996V.38035584C.35398866 .41636659 .31098939 .4423828 .25698854 .4423828 .13899231 .4423828 .033996583 .3443451 .033996583 .21531677 .033996583 .088272098 .13198853-.0107421879 .24598694-.0107421879 .30999757-.0107421879 .35499574 .023254395 .37998963 .055267335V-.0107421879L.5269928 0M.37998963 .117996219C.37998963 .099990848 .37998963 .09799194 .36898805 .08099365 .33898927 .033218385 .2939911 .011245728 .25099183 .011245728 .20599365 .011245728 .16999817 .037216188 .1459961 .075164798 .11999512 .1161499 .116989139 .17320252 .116989139 .21421814 .116989139 .25125123 .11898804 .31129457 .147995 .35632325 .16899109 .38734437 .20698548 .42037965 .26098634 .42037965 .29599 .42037965 .33799745 .405365 .36898805 .3603363 .37998963 .34332276 .37998963 .34132386 .37998963 .32330323V.117996219Z"/>
<path id="font_3_108" d="M.71598818 .6516113V.6826172L.59799197 .6796112 .47898866 .6826172V.6516113C.58200076 .6516113 .58200076 .6044922 .58200076 .57748416V.23051453C.58200076 .088531497 .4850006 .008529663 .3899994 .008529663 .34298707 .008529663 .22499085 .03352356 .22499085 .22351074V.6044922C.22499085 .6405792 .22698975 .6516113 .3039856 .6516113H.32798768V.6826172C.29299928 .6796112 .21899414 .6796112 .18099976 .6796112 .14299011 .6796112 .067993167 .6796112 .032989503 .6826172V.6516113H.056991579C.13398743 .6516113 .13598633 .6405792 .13598633 .6044922V.22750855C.13598633 .086517337 .2519989-.022460938 .3880005-.022460938 .5029907-.022460938 .59298709 .07052612 .6100006 .18450928 .61299136 .20451355 .61299136 .21351624 .61299136 .25350953V.5734863C.61299136 .6064911 .61299136 .6516113 .71598818 .6516113Z"/>
<path id="font_3_84" d="M.5209961 .21636963C.5209961 .34336854 .42399598 .4423828 .31199647 .4423828 .23399353 .4423828 .19198609 .39837647 .17199707 .3763733V.4423828L.027999878 .43066407V.3996582C.09899902 .3996582 .10598755 .3936615 .10598755 .34973146V-.117996219C.10598755-.16308594 .09498596-.16308594 .027999878-.16308594V-.1940918L.13999939-.19110108 .25299073-.1940918V-.16308594C.18598938-.16308594 .1749878-.16308594 .1749878-.117996219V.050186159 .059173585C.17999268 .04319763 .22200012-.0107421879 .2979889-.0107421879 .4169922-.0107421879 .5209961 .087127689 .5209961 .21594239V.21636963M.43798829 .21594239C.43798829 .09512329 .36799623 .011245728 .2939911 .011245728 .2539978 .011245728 .21598816 .031219483 .18899536 .07215881 .1749878 .09312439 .1749878 .09411621 .1749878 .114089969V.33674623C.20399475 .38838197 .25299073 .41737367 .3039856 .41737367 .3769989 .41737367 .43798829 .32937623 .43798829 .21636963V.21594239Z"/>
</defs>
<path transform="matrix(1.00002,0,0,-1.00006,111.64888,115.90223)" stroke-width=".3985" stroke-linecap="butt" stroke-miterlimit="10" stroke-linejoin="miter" fill="none" stroke="#000000" d="M92.12715 0C92.12715 50.88107 50.88107 92.12715 0 92.12715-50.88107 92.12715-92.12715 50.88107-92.12715 0-92.12715-50.88107-50.88107-92.12715 0-92.12715 50.88107-92.12715 92.12715-50.88107 92.12715 0ZM0 0"/>
<path transform="matrix(1.00002,0,0,-1.00006,111.64888,115.90223)" stroke-width=".3985" stroke-linecap="butt" stroke-miterlimit="10" stroke-linejoin="miter" fill="none" stroke="#000000" d="M0 0-99.92947 42.41736"/>
<path transform="matrix(-.92050847,-.39072345,-.39070786,.9205452,11.7174229,73.48233)" d="M1.99252 0-1.19551 1.59401 0 0-1.19551-1.59401"/>
<path transform="matrix(1.00002,0,0,-1.00006,111.64888,115.90223)" stroke-width=".3985" stroke-linecap="butt" stroke-miterlimit="10" stroke-linejoin="miter" fill="none" stroke="#000000" d="M0 0 99.92947 42.41736"/>
<path transform="matrix(.92050847,-.39072345,-.39070786,-.9205452,211.58034,73.48233)" d="M1.99252 0-1.19551 1.59401 0 0-1.19551-1.59401"/>
<path transform="matrix(1.00002,0,0,-1.00006,111.64888,115.90223)" d="M-84.80319 35.997 0 0 84.80319 35.997C64.9231 82.83234 10.83832 104.68329-35.997 84.80319-57.97166 75.47606-75.47606 57.97166-84.80319 35.997" fill="#0000ff" fill-opacity=".1"/>
<path transform="matrix(1.00002,0,0,-1.00006,111.64888,115.90223)" d="M.99628 0C.99628 .55023 .55023 .99628 0 .99628-.55023 .99628-.99628 .55023-.99628 0-.99628-.55023-.55023-.99628 0-.99628 .55023-.99628 .99628-.55023 .99628 0ZM0 0" fill="#0000ff"/>
<path transform="matrix(1.00002,0,0,-1.00006,111.64888,115.90223)" stroke-width=".3985" stroke-linecap="butt" stroke-miterlimit="10" stroke-linejoin="miter" fill="none" stroke="#0000ff" d="M.99628 0C.99628 .55023 .55023 .99628 0 .99628-.55023 .99628-.99628 .55023-.99628 0-.99628-.55023-.55023-.99628 0-.99628 .55023-.99628 .99628-.55023 .99628 0ZM0 0"/>
<path transform="matrix(1.00002,0,0,-1.00006,111.64888,115.90223)" stroke-width=".3985" stroke-linecap="butt" stroke-miterlimit="10" stroke-linejoin="miter" fill="none" stroke="#000000" d="M24.66135 12.63304C21.10698 21.00647 11.08797 27.63817 1.99113 27.63817"/>
<path transform="matrix(.39070786,.9205452,.92050847,-.39072345,136.31073,103.26841)" d="M1.99252 0-1.19551 1.59401 0 0-1.19551-1.59401"/>
<path transform="matrix(-1.00002,-0,0,1.00006,113.64005,88.262409)" d="M1.99252 0-1.19551 1.59401 0 0-1.19551-1.59401"/>
<use data-text="6" xlink:href="#font_1_1" transform="matrix(9.962799,0,0,-9.963197,119.92905,89.33464)"/>
<use data-text="7" xlink:href="#font_1_2" transform="matrix(9.962799,0,0,-9.963197,124.910449,89.33464)"/>
<use data-text="&#x25e6;" xlink:href="#font_2_1" transform="matrix(6.97394,0,0,-6.9742186,129.89125,85.71942)"/>
<path transform="matrix(1.00002,0,0,-1.00006,111.64888,115.90223)" stroke-width=".3985" stroke-linecap="butt" stroke-miterlimit="10" stroke-linejoin="miter" fill="none" stroke="#000000" d="M-1.99252 27.63843C-11.08936 27.63843-21.10837 21.00673-24.66272 12.63329"/>
<path transform="matrix(1.00002,0,0,-1.00006,109.65632,88.262149)" d="M1.99252 0-1.19551 1.59401 0 0-1.19551-1.59401"/>
<path transform="matrix(-.39070786,.9205452,.92050847,.39072345,86.985668,103.26817)" d="M1.99252 0-1.19551 1.59401 0 0-1.19551-1.59401"/>
<use data-text="6" xlink:href="#font_1_1" transform="matrix(9.962799,0,0,-9.963197,88.824428,89.33464)"/>
<use data-text="7" xlink:href="#font_1_2" transform="matrix(9.962799,0,0,-9.963197,93.805828,89.33464)"/>
<use data-text="&#x25e6;" xlink:href="#font_2_1" transform="matrix(6.97394,0,0,-6.9742186,98.78663,85.71942)"/>
<path transform="matrix(1.00002,0,0,-1.00006,111.64888,115.90223)" stroke-width=".3985" stroke-linecap="butt" stroke-miterlimit="10" stroke-linejoin="miter" fill="none" stroke="#000000" d="M-108.55978 0H108.55978"/>
<path transform="matrix(-1.00002,-0,0,1.00006,3.0869294,115.90223)" d="M1.99252 0-1.19551 1.59401 0 0-1.19551-1.59401"/>
<path transform="matrix(1.00002,0,0,-1.00006,220.21083,115.90223)" d="M1.99252 0-1.19551 1.59401 0 0-1.19551-1.59401"/>
<path transform="matrix(1.00002,0,0,-1.00006,111.64888,115.90223)" stroke-width=".3985" stroke-linecap="butt" stroke-miterlimit="10" stroke-linejoin="miter" fill="none" stroke="#000000" d="M0-103.95314V92.12715"/>
<path transform="matrix(0,1.00006,1.00002,0,111.64888,219.8616)" d="M1.99252 0-1.19551 1.59401 0 0-1.19551-1.59401"/>
<path transform="matrix(1.00002,0,0,-1.00006,111.64888,115.90223)" stroke-width=".3985" stroke-linecap="butt" stroke-miterlimit="10" stroke-linejoin="miter" fill="none" stroke="#000000" d="M0 0 76.76335-76.76335"/>
<path transform="matrix(.70711418,.70714238,.70711418,-.70714238,188.41378,192.67018)" d="M1.99252 0-1.19551 1.59401 0 0-1.19551-1.59401"/>
<path transform="matrix(1.00002,0,0,-1.00006,111.64888,115.90223)" stroke-width=".3985" stroke-linecap="butt" stroke-miterlimit="10" stroke-linejoin="miter" fill="none" stroke="#000000" d="M0 0-76.76335-76.76335"/>
<path transform="matrix(-.70711418,.70714238,.70711418,.70714238,34.883989,192.67018)" d="M1.99252 0-1.19551 1.59401 0 0-1.19551-1.59401"/>
<path transform="matrix(1.00002,0,0,-1.00006,111.64888,115.90223)" stroke-width="1.99255" stroke-linecap="butt" stroke-miterlimit="10" stroke-linejoin="miter" fill="none" stroke="#000000" d="M0 82.91388V50.4472"/>
<path transform="matrix(0,1.00006,1.00002,0,111.64888,65.452)" d="M4.38364 0-2.63017 3.50691 0 0-2.63017-3.50691"/>
<path transform="matrix(1.00002,0,0,-1.00006,111.64888,115.90223)" stroke-width="1.99255" stroke-linecap="butt" stroke-miterlimit="10" stroke-linejoin="miter" fill="none" stroke="#000000" d="M18.42514 82.91388V50.4472"/>
<path transform="matrix(0,1.00006,1.00002,0,130.07439,65.452)" d="M4.38364 0-2.63017 3.50691 0 0-2.63017-3.50691"/>
<path transform="matrix(1.00002,0,0,-1.00006,111.64888,115.90223)" stroke-width="1.99255" stroke-linecap="butt" stroke-miterlimit="10" stroke-linejoin="miter" fill="none" stroke="#000000" d="M-18.42514 82.91388V50.4472"/>
<path transform="matrix(0,1.00006,1.00002,0,93.22337,65.452)" d="M4.38364 0-2.63017 3.50691 0 0-2.63017-3.50691"/>
<use data-text="D" xlink:href="#font_3_46" transform="matrix(9.962799,0,0,-9.963197,88.74442,229.86408)"/>
<use data-text="o" xlink:href="#font_3_81" transform="matrix(9.962799,0,0,-9.963197,96.355998,229.86408)"/>
<use data-text="w" xlink:href="#font_3_114" transform="matrix(9.962799,0,0,-9.963197,101.05843,229.86408)"/>
<use data-text="n" xlink:href="#font_3_77" transform="matrix(9.962799,0,0,-9.963197,108.25158,229.86408)"/>
<use data-text="w" xlink:href="#font_3_114" transform="matrix(9.962799,0,0,-9.963197,113.51194,229.86408)"/>
<use data-text="i" xlink:href="#font_3_66" transform="matrix(9.962799,0,0,-9.963197,120.70507,229.86408)"/>
<use data-text="n" xlink:href="#font_3_77" transform="matrix(9.962799,0,0,-9.963197,123.47474,229.86408)"/>
<use data-text="d" xlink:href="#font_3_47" transform="matrix(9.962799,0,0,-9.963197,129.01404,229.86408)"/>
<use data-text="U" xlink:href="#font_3_108" transform="matrix(9.962799,0,0,-9.963197,94.76154,7.8337557)"/>
<use data-text="p" xlink:href="#font_3_84" transform="matrix(9.962799,0,0,-9.963197,102.23365,7.8337557)"/>
<use data-text="w" xlink:href="#font_3_114" transform="matrix(9.962799,0,0,-9.963197,107.49401,7.8337557)"/>
<use data-text="i" xlink:href="#font_3_66" transform="matrix(9.962799,0,0,-9.963197,114.68714,7.8337557)"/>
<use data-text="n" xlink:href="#font_3_77" transform="matrix(9.962799,0,0,-9.963197,117.45681,7.8337557)"/>
<use data-text="d" xlink:href="#font_3_47" transform="matrix(9.962799,0,0,-9.963197,122.99612,7.8337557)"/>
<path transform="matrix(1.00002,0,0,-1.00006,111.64888,115.90223)" stroke-width=".3985" stroke-linecap="butt" stroke-miterlimit="10" stroke-linejoin="miter" fill="none" stroke="#000000" d="M50.88107 21.59792"/>
<path transform="matrix(1.00002,0,0,-1.00006,111.64888,115.90223)" d="M34.37578 18.04315 39.0315 21.22124 59.38342 29.86015 64.90367 31.00153 60.24742 27.8247 39.89551 19.18579Z" fill="#993300" fill-opacity=".1"/>
<path transform="matrix(1.00002,0,0,-1.00006,111.64888,115.90223)" d="M36.85847 12.1943 42.37872 13.33566 62.73065 21.9746 67.38637 25.15268 61.86665 24.01004 41.51472 15.37112Z" fill="#993300" fill-opacity=".1"/>
<path transform="matrix(1.00002,0,0,-1.00006,111.64888,115.90223)" d="M39.89551 19.18579 41.51472 15.37112 59.32265 22.93018 57.70341 26.74483Z" fill="#993300" fill-opacity=".04"/>
<path transform="matrix(1.00002,0,0,-1.00006,111.64888,115.90223)" d="M58.24335 25.47284 58.78271 24.20216 62.5987 25.82196 62.05933 27.09264Z" fill="#993300" fill-opacity=".1"/>
<path transform="matrix(1.00002,0,0,-1.00006,111.64888,115.90223)" stroke-width=".3985" stroke-linecap="butt" stroke-miterlimit="10" stroke-linejoin="miter" fill="none" stroke="#993300" d="M64.90367 31.00153 59.38342 29.86015"/>
<path transform="matrix(1.00002,0,0,-1.00006,111.64888,115.90223)" stroke-width=".3985" stroke-linecap="butt" stroke-miterlimit="10" stroke-linejoin="miter" fill="none" stroke="#993300" d="M59.38342 29.86015 39.0315 21.22124"/>
<path transform="matrix(1.00002,0,0,-1.00006,111.64888,115.90223)" stroke-width=".3985" stroke-linecap="butt" stroke-miterlimit="10" stroke-linejoin="miter" fill="none" stroke="#993300" d="M39.0315 21.22124 34.37578 18.04315"/>
<path transform="matrix(1.00002,0,0,-1.00006,111.64888,115.90223)" stroke-width=".3985" stroke-linecap="butt" stroke-miterlimit="10" stroke-linejoin="miter" fill="none" stroke="#993300" d="M34.37578 18.04315 39.89551 19.18579"/>
<path transform="matrix(1.00002,0,0,-1.00006,111.64888,115.90223)" stroke-width=".3985" stroke-linecap="butt" stroke-miterlimit="10" stroke-linejoin="miter" fill="none" stroke="#993300" d="M39.89551 19.18579 60.24742 27.8247"/>
<path transform="matrix(1.00002,0,0,-1.00006,111.64888,115.90223)" stroke-width=".3985" stroke-linecap="butt" stroke-miterlimit="10" stroke-linejoin="miter" fill="none" stroke="#993300" d="M60.24742 27.8247 64.90367 31.00153"/>
<path transform="matrix(1.00002,0,0,-1.00006,111.64888,115.90223)" stroke-width=".3985" stroke-linecap="butt" stroke-miterlimit="10" stroke-linejoin="miter" fill="none" stroke="#993300" d="M67.38637 25.15268 62.73065 21.9746"/>
<path transform="matrix(1.00002,0,0,-1.00006,111.64888,115.90223)" stroke-width=".3985" stroke-linecap="butt" stroke-miterlimit="10" stroke-linejoin="miter" fill="none" stroke="#993300" d="M62.73065 21.9746 42.37872 13.33566"/>
<path transform="matrix(1.00002,0,0,-1.00006,111.64888,115.90223)" stroke-width=".3985" stroke-linecap="butt" stroke-miterlimit="10" stroke-linejoin="miter" fill="none" stroke="#993300" d="M42.37872 13.33566 36.85847 12.1943"/>
<path transform="matrix(1.00002,0,0,-1.00006,111.64888,115.90223)" stroke-width=".3985" stroke-linecap="butt" stroke-miterlimit="10" stroke-linejoin="miter" fill="none" stroke="#993300" d="M36.85847 12.1943 41.51472 15.37112"/>
<path transform="matrix(1.00002,0,0,-1.00006,111.64888,115.90223)" stroke-width=".3985" stroke-linecap="butt" stroke-miterlimit="10" stroke-linejoin="miter" fill="none" stroke="#993300" d="M41.51472 15.37112 61.86665 24.01004"/>
<path transform="matrix(1.00002,0,0,-1.00006,111.64888,115.90223)" stroke-width=".3985" stroke-linecap="butt" stroke-miterlimit="10" stroke-linejoin="miter" fill="none" stroke="#993300" d="M61.86665 24.01004 67.38637 25.15268"/>
<path transform="matrix(1.00002,0,0,-1.00006,111.64888,115.90223)" stroke-width=".3985" stroke-linecap="butt" stroke-miterlimit="10" stroke-linejoin="miter" fill="none" stroke="#993300" d="M39.89551 19.18579 41.51472 15.37112"/>
<path transform="matrix(1.00002,0,0,-1.00006,111.64888,115.90223)" stroke-width=".3985" stroke-linecap="butt" stroke-miterlimit="10" stroke-linejoin="miter" fill="none" stroke="#993300" d="M41.51472 15.37112 59.32265 22.93018"/>
<path transform="matrix(1.00002,0,0,-1.00006,111.64888,115.90223)" stroke-width=".3985" stroke-linecap="butt" stroke-miterlimit="10" stroke-linejoin="miter" fill="none" stroke="#993300" d="M59.32265 22.93018 57.70341 26.74483"/>
<path transform="matrix(1.00002,0,0,-1.00006,111.64888,115.90223)" stroke-width=".3985" stroke-linecap="butt" stroke-miterlimit="10" stroke-linejoin="miter" fill="none" stroke="#993300" d="M57.70341 26.74483 39.89551 19.18579"/>
<path transform="matrix(1.00002,0,0,-1.00006,111.64888,115.90223)" stroke-width=".3985" stroke-linecap="butt" stroke-miterlimit="10" stroke-linejoin="miter" fill="none" stroke="#993300" d="M58.24335 25.47284 58.78271 24.20216"/>
<path transform="matrix(1.00002,0,0,-1.00006,111.64888,115.90223)" stroke-width=".3985" stroke-linecap="butt" stroke-miterlimit="10" stroke-linejoin="miter" fill="none" stroke="#993300" d="M58.78271 24.20216 62.5987 25.82196"/>
<path transform="matrix(1.00002,0,0,-1.00006,111.64888,115.90223)" stroke-width=".3985" stroke-linecap="butt" stroke-miterlimit="10" stroke-linejoin="miter" fill="none" stroke="#993300" d="M62.5987 25.82196 62.05933 27.09264"/>
<path transform="matrix(1.00002,0,0,-1.00006,111.64888,115.90223)" stroke-width=".3985" stroke-linecap="butt" stroke-miterlimit="10" stroke-linejoin="miter" fill="none" stroke="#993300" d="M62.05933 27.09264 58.24335 25.47284"/>
<path transform="matrix(1.00002,0,0,-1.00006,111.64888,115.90223)" stroke-width=".3985" stroke-linecap="butt" stroke-miterlimit="10" stroke-linejoin="miter" fill="none" stroke="#993300" d="M60.24742 27.8247 61.86665 24.01004"/>
<path transform="matrix(1.00002,0,0,-1.00006,111.64888,115.90223)" stroke-width=".3985" stroke-linecap="butt" stroke-miterlimit="10" stroke-linejoin="miter" fill="none" stroke="#993300" d="M53.61179 22.23782C53.85477 22.34096 53.96812 22.62154 53.86499 22.86452 53.76187 23.10748 53.48128 23.22084 53.23831 23.11772 52.99533 23.01459 52.88197 22.73401 52.9851 22.49103 53.08824 22.24806 53.36882 22.13469 53.61179 22.23782ZM53.42505 22.67776"/>
<path transform="matrix(1.00002,0,0,-1.00006,111.64888,115.90223)" stroke-width=".3985" stroke-linecap="butt" stroke-miterlimit="10" stroke-linejoin="miter" fill="none" stroke="#000000" d="M-50.88107 21.59792"/>
<path transform="matrix(1.00002,0,0,-1.00006,111.64888,115.90223)" d="M-36.85847 12.1943-42.37872 13.33566-62.73065 21.9746-67.38637 25.15268-61.86665 24.01004-41.51472 15.37112Z" fill="#993300" fill-opacity=".1"/>
<path transform="matrix(1.00002,0,0,-1.00006,111.64888,115.90223)" d="M-34.37578 18.04315-39.0315 21.22124-59.38342 29.86015-64.90367 31.00153-60.24742 27.8247-39.89551 19.18579Z" fill="#993300" fill-opacity=".1"/>
<path transform="matrix(1.00002,0,0,-1.00006,111.64888,115.90223)" d="M-41.51472 15.37112-39.89551 19.18579-57.70341 26.74483-59.32265 22.93018Z" fill="#993300" fill-opacity=".04"/>
<path transform="matrix(1.00002,0,0,-1.00006,111.64888,115.90223)" d="M-58.78271 24.20216-58.24335 25.47284-62.05933 27.09264-62.5987 25.82196Z" fill="#993300" fill-opacity=".1"/>
<path transform="matrix(1.00002,0,0,-1.00006,111.64888,115.90223)" stroke-width=".3985" stroke-linecap="butt" stroke-miterlimit="10" stroke-linejoin="miter" fill="none" stroke="#993300" d="M-67.38637 25.15268-62.73065 21.9746"/>
<path transform="matrix(1.00002,0,0,-1.00006,111.64888,115.90223)" stroke-width=".3985" stroke-linecap="butt" stroke-miterlimit="10" stroke-linejoin="miter" fill="none" stroke="#993300" d="M-62.73065 21.9746-42.37872 13.33566"/>
<path transform="matrix(1.00002,0,0,-1.00006,111.64888,115.90223)" stroke-width=".3985" stroke-linecap="butt" stroke-miterlimit="10" stroke-linejoin="miter" fill="none" stroke="#993300" d="M-42.37872 13.33566-36.85847 12.1943"/>
<path transform="matrix(1.00002,0,0,-1.00006,111.64888,115.90223)" stroke-width=".3985" stroke-linecap="butt" stroke-miterlimit="10" stroke-linejoin="miter" fill="none" stroke="#993300" d="M-36.85847 12.1943-41.51472 15.37112"/>
<path transform="matrix(1.00002,0,0,-1.00006,111.64888,115.90223)" stroke-width=".3985" stroke-linecap="butt" stroke-miterlimit="10" stroke-linejoin="miter" fill="none" stroke="#993300" d="M-41.51472 15.37112-61.86665 24.01004"/>
<path transform="matrix(1.00002,0,0,-1.00006,111.64888,115.90223)" stroke-width=".3985" stroke-linecap="butt" stroke-miterlimit="10" stroke-linejoin="miter" fill="none" stroke="#993300" d="M-61.86665 24.01004-67.38637 25.15268"/>
<path transform="matrix(1.00002,0,0,-1.00006,111.64888,115.90223)" stroke-width=".3985" stroke-linecap="butt" stroke-miterlimit="10" stroke-linejoin="miter" fill="none" stroke="#993300" d="M-64.90367 31.00153-59.38342 29.86015"/>
<path transform="matrix(1.00002,0,0,-1.00006,111.64888,115.90223)" stroke-width=".3985" stroke-linecap="butt" stroke-miterlimit="10" stroke-linejoin="miter" fill="none" stroke="#993300" d="M-59.38342 29.86015-39.0315 21.22124"/>
<path transform="matrix(1.00002,0,0,-1.00006,111.64888,115.90223)" stroke-width=".3985" stroke-linecap="butt" stroke-miterlimit="10" stroke-linejoin="miter" fill="none" stroke="#993300" d="M-39.0315 21.22124-34.37578 18.04315"/>
<path transform="matrix(1.00002,0,0,-1.00006,111.64888,115.90223)" stroke-width=".3985" stroke-linecap="butt" stroke-miterlimit="10" stroke-linejoin="miter" fill="none" stroke="#993300" d="M-34.37578 18.04315-39.89551 19.18579"/>
<path transform="matrix(1.00002,0,0,-1.00006,111.64888,115.90223)" stroke-width=".3985" stroke-linecap="butt" stroke-miterlimit="10" stroke-linejoin="miter" fill="none" stroke="#993300" d="M-39.89551 19.18579-60.24742 27.8247"/>
<path transform="matrix(1.00002,0,0,-1.00006,111.64888,115.90223)" stroke-width=".3985" stroke-linecap="butt" stroke-miterlimit="10" stroke-linejoin="miter" fill="none" stroke="#993300" d="M-60.24742 27.8247-64.90367 31.00153"/>
<path transform="matrix(1.00002,0,0,-1.00006,111.64888,115.90223)" stroke-width=".3985" stroke-linecap="butt" stroke-miterlimit="10" stroke-linejoin="miter" fill="none" stroke="#993300" d="M-41.51472 15.37112-39.89551 19.18579"/>
<path transform="matrix(1.00002,0,0,-1.00006,111.64888,115.90223)" stroke-width=".3985" stroke-linecap="butt" stroke-miterlimit="10" stroke-linejoin="miter" fill="none" stroke="#993300" d="M-39.89551 19.18579-57.70341 26.74483"/>
<path transform="matrix(1.00002,0,0,-1.00006,111.64888,115.90223)" stroke-width=".3985" stroke-linecap="butt" stroke-miterlimit="10" stroke-linejoin="miter" fill="none" stroke="#993300" d="M-57.70341 26.74483-59.32265 22.93018"/>
<path transform="matrix(1.00002,0,0,-1.00006,111.64888,115.90223)" stroke-width=".3985" stroke-linecap="butt" stroke-miterlimit="10" stroke-linejoin="miter" fill="none" stroke="#993300" d="M-59.32265 22.93018-41.51472 15.37112"/>
<path transform="matrix(1.00002,0,0,-1.00006,111.64888,115.90223)" stroke-width=".3985" stroke-linecap="butt" stroke-miterlimit="10" stroke-linejoin="miter" fill="none" stroke="#993300" d="M-58.78271 24.20216-58.24335 25.47284"/>
<path transform="matrix(1.00002,0,0,-1.00006,111.64888,115.90223)" stroke-width=".3985" stroke-linecap="butt" stroke-miterlimit="10" stroke-linejoin="miter" fill="none" stroke="#993300" d="M-58.24335 25.47284-62.05933 27.09264"/>
<path transform="matrix(1.00002,0,0,-1.00006,111.64888,115.90223)" stroke-width=".3985" stroke-linecap="butt" stroke-miterlimit="10" stroke-linejoin="miter" fill="none" stroke="#993300" d="M-62.05933 27.09264-62.5987 25.82196"/>
<path transform="matrix(1.00002,0,0,-1.00006,111.64888,115.90223)" stroke-width=".3985" stroke-linecap="butt" stroke-miterlimit="10" stroke-linejoin="miter" fill="none" stroke="#993300" d="M-62.5987 25.82196-58.78271 24.20216"/>
<path transform="matrix(1.00002,0,0,-1.00006,111.64888,115.90223)" stroke-width=".3985" stroke-linecap="butt" stroke-miterlimit="10" stroke-linejoin="miter" fill="none" stroke="#993300" d="M-61.86665 24.01004-60.24742 27.8247"/>
<path transform="matrix(1.00002,0,0,-1.00006,111.64888,115.90223)" stroke-width=".3985" stroke-linecap="butt" stroke-miterlimit="10" stroke-linejoin="miter" fill="none" stroke="#993300" d="M-53.23831 23.11772C-53.48128 23.22084-53.76187 23.10748-53.86499 22.86452-53.96812 22.62154-53.85477 22.34096-53.61179 22.23782-53.36882 22.13469-53.08824 22.24806-52.9851 22.49103-52.88197 22.73401-52.99533 23.01459-53.23831 23.11772ZM-53.42505 22.67776"/>
<path transform="matrix(1.00002,0,0,-1.00006,111.64888,115.90223)" stroke-width=".3985" stroke-linecap="butt" stroke-miterlimit="10" stroke-linejoin="miter" fill="none" stroke="#000000" d="M55.27686 0"/>
<path transform="matrix(1.00002,0,0,-1.00006,111.64888,115.90223)" d="M38.69464 3.17697 44.22205 4.2833H66.33165L71.85905 3.17697 66.33165 2.07205H44.22205Z" fill="#993300" fill-opacity=".1"/>
<path transform="matrix(1.00002,0,0,-1.00006,111.64888,115.90223)" d="M38.69464-3.17697 44.22205-4.2833H66.33165L71.85905-3.17697 66.33165-2.07205H44.22205Z" fill="#993300" fill-opacity=".1"/>
<path transform="matrix(1.00002,0,0,-1.00006,111.64888,115.90223)" d="M44.22205 2.07205V-2.07205H63.56795V2.07205Z" fill="#993300" fill-opacity=".04"/>
<path transform="matrix(1.00002,0,0,-1.00006,111.64888,115.90223)" d="M63.56795 .6902V-.6902H67.7135V.6902Z" fill="#993300" fill-opacity=".1"/>
<path transform="matrix(1.00002,0,0,-1.00006,111.64888,115.90223)" stroke-width=".3985" stroke-linecap="butt" stroke-miterlimit="10" stroke-linejoin="miter" fill="none" stroke="#993300" d="M71.85905 3.17697 66.33165 4.2833"/>
<path transform="matrix(1.00002,0,0,-1.00006,111.64888,115.90223)" stroke-width=".3985" stroke-linecap="butt" stroke-miterlimit="10" stroke-linejoin="miter" fill="none" stroke="#993300" d="M66.33165 4.2833H44.22205"/>
<path transform="matrix(1.00002,0,0,-1.00006,111.64888,115.90223)" stroke-width=".3985" stroke-linecap="butt" stroke-miterlimit="10" stroke-linejoin="miter" fill="none" stroke="#993300" d="M44.22205 4.2833 38.69464 3.17697"/>
<path transform="matrix(1.00002,0,0,-1.00006,111.64888,115.90223)" stroke-width=".3985" stroke-linecap="butt" stroke-miterlimit="10" stroke-linejoin="miter" fill="none" stroke="#993300" d="M38.69464 3.17697 44.22205 2.07205"/>
<path transform="matrix(1.00002,0,0,-1.00006,111.64888,115.90223)" stroke-width=".3985" stroke-linecap="butt" stroke-miterlimit="10" stroke-linejoin="miter" fill="none" stroke="#993300" d="M44.22205 2.07205H66.33165"/>
<path transform="matrix(1.00002,0,0,-1.00006,111.64888,115.90223)" stroke-width=".3985" stroke-linecap="butt" stroke-miterlimit="10" stroke-linejoin="miter" fill="none" stroke="#993300" d="M66.33165 2.07205 71.85905 3.17697"/>
<path transform="matrix(1.00002,0,0,-1.00006,111.64888,115.90223)" stroke-width=".3985" stroke-linecap="butt" stroke-miterlimit="10" stroke-linejoin="miter" fill="none" stroke="#993300" d="M71.85905-3.17697 66.33165-4.2833"/>
<path transform="matrix(1.00002,0,0,-1.00006,111.64888,115.90223)" stroke-width=".3985" stroke-linecap="butt" stroke-miterlimit="10" stroke-linejoin="miter" fill="none" stroke="#993300" d="M66.33165-4.2833H44.22205"/>
<path transform="matrix(1.00002,0,0,-1.00006,111.64888,115.90223)" stroke-width=".3985" stroke-linecap="butt" stroke-miterlimit="10" stroke-linejoin="miter" fill="none" stroke="#993300" d="M44.22205-4.2833 38.69464-3.17697"/>
<path transform="matrix(1.00002,0,0,-1.00006,111.64888,115.90223)" stroke-width=".3985" stroke-linecap="butt" stroke-miterlimit="10" stroke-linejoin="miter" fill="none" stroke="#993300" d="M38.69464-3.17697 44.22205-2.07205"/>
<path transform="matrix(1.00002,0,0,-1.00006,111.64888,115.90223)" stroke-width=".3985" stroke-linecap="butt" stroke-miterlimit="10" stroke-linejoin="miter" fill="none" stroke="#993300" d="M44.22205-2.07205H66.33165"/>
<path transform="matrix(1.00002,0,0,-1.00006,111.64888,115.90223)" stroke-width=".3985" stroke-linecap="butt" stroke-miterlimit="10" stroke-linejoin="miter" fill="none" stroke="#993300" d="M66.33165-2.07205 71.85905-3.17697"/>
<path transform="matrix(1.00002,0,0,-1.00006,111.64888,115.90223)" stroke-width=".3985" stroke-linecap="butt" stroke-miterlimit="10" stroke-linejoin="miter" fill="none" stroke="#993300" d="M44.22205 2.07205V-2.07205"/>
<path transform="matrix(1.00002,0,0,-1.00006,111.64888,115.90223)" stroke-width=".3985" stroke-linecap="butt" stroke-miterlimit="10" stroke-linejoin="miter" fill="none" stroke="#993300" d="M44.22205-2.07205H63.56795"/>
<path transform="matrix(1.00002,0,0,-1.00006,111.64888,115.90223)" stroke-width=".3985" stroke-linecap="butt" stroke-miterlimit="10" stroke-linejoin="miter" fill="none" stroke="#993300" d="M63.56795-2.07205V2.07205"/>
<path transform="matrix(1.00002,0,0,-1.00006,111.64888,115.90223)" stroke-width=".3985" stroke-linecap="butt" stroke-miterlimit="10" stroke-linejoin="miter" fill="none" stroke="#993300" d="M63.56795 2.07205H44.22205"/>
<path transform="matrix(1.00002,0,0,-1.00006,111.64888,115.90223)" stroke-width=".3985" stroke-linecap="butt" stroke-miterlimit="10" stroke-linejoin="miter" fill="none" stroke="#993300" d="M63.56795 .6902V-.6902"/>
<path transform="matrix(1.00002,0,0,-1.00006,111.64888,115.90223)" stroke-width=".3985" stroke-linecap="butt" stroke-miterlimit="10" stroke-linejoin="miter" fill="none" stroke="#993300" d="M63.56795-.6902H67.7135"/>
<path transform="matrix(1.00002,0,0,-1.00006,111.64888,115.90223)" stroke-width=".3985" stroke-linecap="butt" stroke-miterlimit="10" stroke-linejoin="miter" fill="none" stroke="#993300" d="M67.7135-.6902V.6902"/>
<path transform="matrix(1.00002,0,0,-1.00006,111.64888,115.90223)" stroke-width=".3985" stroke-linecap="butt" stroke-miterlimit="10" stroke-linejoin="miter" fill="none" stroke="#993300" d="M67.7135 .6902H63.56795"/>
<path transform="matrix(1.00002,0,0,-1.00006,111.64888,115.90223)" stroke-width=".3985" stroke-linecap="butt" stroke-miterlimit="10" stroke-linejoin="miter" fill="none" stroke="#993300" d="M66.33165 2.07205V-2.07205"/>
<path transform="matrix(1.00002,0,0,-1.00006,111.64888,115.90223)" stroke-width=".3985" stroke-linecap="butt" stroke-miterlimit="10" stroke-linejoin="miter" fill="none" stroke="#993300" d="M58.04054-.47794C58.3045-.47794 58.5185-.26396 58.5185 0 58.5185 .26396 58.3045 .47794 58.04054 .47794 57.77657 .47794 57.56259 .26396 57.56259 0 57.56259-.26396 57.77657-.47794 58.04054-.47794ZM58.04054 0"/>
<path transform="matrix(1.00002,0,0,-1.00006,111.64888,115.90223)" stroke-width=".3985" stroke-linecap="butt" stroke-miterlimit="10" stroke-linejoin="miter" fill="none" stroke="#000000" d="M-55.27686 0"/>
<path transform="matrix(1.00002,0,0,-1.00006,111.64888,115.90223)" d="M-38.69464-3.17697-44.22205-4.2833H-66.33165L-71.85905-3.17697-66.33165-2.07205H-44.22205Z" fill="#993300" fill-opacity=".1"/>
<path transform="matrix(1.00002,0,0,-1.00006,111.64888,115.90223)" d="M-38.69464 3.17697-44.22205 4.2833H-66.33165L-71.85905 3.17697-66.33165 2.07205H-44.22205Z" fill="#993300" fill-opacity=".1"/>
<path transform="matrix(1.00002,0,0,-1.00006,111.64888,115.90223)" d="M-44.22205-2.07205V2.07205H-63.56795V-2.07205Z" fill="#993300" fill-opacity=".04"/>
<path transform="matrix(1.00002,0,0,-1.00006,111.64888,115.90223)" d="M-63.56795-.6902V.6902H-67.7135V-.6902Z" fill="#993300" fill-opacity=".1"/>
<path transform="matrix(1.00002,0,0,-1.00006,111.64888,115.90223)" stroke-width=".3985" stroke-linecap="butt" stroke-miterlimit="10" stroke-linejoin="miter" fill="none" stroke="#993300" d="M-71.85905-3.17697-66.33165-4.2833"/>
<path transform="matrix(1.00002,0,0,-1.00006,111.64888,115.90223)" stroke-width=".3985" stroke-linecap="butt" stroke-miterlimit="10" stroke-linejoin="miter" fill="none" stroke="#993300" d="M-66.33165-4.2833H-44.22205"/>
<path transform="matrix(1.00002,0,0,-1.00006,111.64888,115.90223)" stroke-width=".3985" stroke-linecap="butt" stroke-miterlimit="10" stroke-linejoin="miter" fill="none" stroke="#993300" d="M-44.22205-4.2833-38.69464-3.17697"/>
<path transform="matrix(1.00002,0,0,-1.00006,111.64888,115.90223)" stroke-width=".3985" stroke-linecap="butt" stroke-miterlimit="10" stroke-linejoin="miter" fill="none" stroke="#993300" d="M-38.69464-3.17697-44.22205-2.07205"/>
<path transform="matrix(1.00002,0,0,-1.00006,111.64888,115.90223)" stroke-width=".3985" stroke-linecap="butt" stroke-miterlimit="10" stroke-linejoin="miter" fill="none" stroke="#993300" d="M-44.22205-2.07205H-66.33165"/>
<path transform="matrix(1.00002,0,0,-1.00006,111.64888,115.90223)" stroke-width=".3985" stroke-linecap="butt" stroke-miterlimit="10" stroke-linejoin="miter" fill="none" stroke="#993300" d="M-66.33165-2.07205-71.85905-3.17697"/>
<path transform="matrix(1.00002,0,0,-1.00006,111.64888,115.90223)" stroke-width=".3985" stroke-linecap="butt" stroke-miterlimit="10" stroke-linejoin="miter" fill="none" stroke="#993300" d="M-71.85905 3.17697-66.33165 4.2833"/>
<path transform="matrix(1.00002,0,0,-1.00006,111.64888,115.90223)" stroke-width=".3985" stroke-linecap="butt" stroke-miterlimit="10" stroke-linejoin="miter" fill="none" stroke="#993300" d="M-66.33165 4.2833H-44.22205"/>
<path transform="matrix(1.00002,0,0,-1.00006,111.64888,115.90223)" stroke-width=".3985" stroke-linecap="butt" stroke-miterlimit="10" stroke-linejoin="miter" fill="none" stroke="#993300" d="M-44.22205 4.2833-38.69464 3.17697"/>
<path transform="matrix(1.00002,0,0,-1.00006,111.64888,115.90223)" stroke-width=".3985" stroke-linecap="butt" stroke-miterlimit="10" stroke-linejoin="miter" fill="none" stroke="#993300" d="M-38.69464 3.17697-44.22205 2.07205"/>
<path transform="matrix(1.00002,0,0,-1.00006,111.64888,115.90223)" stroke-width=".3985" stroke-linecap="butt" stroke-miterlimit="10" stroke-linejoin="miter" fill="none" stroke="#993300" d="M-44.22205 2.07205H-66.33165"/>
<path transform="matrix(1.00002,0,0,-1.00006,111.64888,115.90223)" stroke-width=".3985" stroke-linecap="butt" stroke-miterlimit="10" stroke-linejoin="miter" fill="none" stroke="#993300" d="M-66.33165 2.07205-71.85905 3.17697"/>
<path transform="matrix(1.00002,0,0,-1.00006,111.64888,115.90223)" stroke-width=".3985" stroke-linecap="butt" stroke-miterlimit="10" stroke-linejoin="miter" fill="none" stroke="#993300" d="M-44.22205-2.07205V2.07205"/>
<path transform="matrix(1.00002,0,0,-1.00006,111.64888,115.90223)" stroke-width=".3985" stroke-linecap="butt" stroke-miterlimit="10" stroke-linejoin="miter" fill="none" stroke="#993300" d="M-44.22205 2.07205H-63.56795"/>
<path transform="matrix(1.00002,0,0,-1.00006,111.64888,115.90223)" stroke-width=".3985" stroke-linecap="butt" stroke-miterlimit="10" stroke-linejoin="miter" fill="none" stroke="#993300" d="M-63.56795 2.07205V-2.07205"/>
<path transform="matrix(1.00002,0,0,-1.00006,111.64888,115.90223)" stroke-width=".3985" stroke-linecap="butt" stroke-miterlimit="10" stroke-linejoin="miter" fill="none" stroke="#993300" d="M-63.56795-2.07205H-44.22205"/>
<path transform="matrix(1.00002,0,0,-1.00006,111.64888,115.90223)" stroke-width=".3985" stroke-linecap="butt" stroke-miterlimit="10" stroke-linejoin="miter" fill="none" stroke="#993300" d="M-63.56795-.6902V.6902"/>
<path transform="matrix(1.00002,0,0,-1.00006,111.64888,115.90223)" stroke-width=".3985" stroke-linecap="butt" stroke-miterlimit="10" stroke-linejoin="miter" fill="none" stroke="#993300" d="M-63.56795 .6902H-67.7135"/>
<path transform="matrix(1.00002,0,0,-1.00006,111.64888,115.90223)" stroke-width=".3985" stroke-linecap="butt" stroke-miterlimit="10" stroke-linejoin="miter" fill="none" stroke="#993300" d="M-67.7135 .6902V-.6902"/>
<path transform="matrix(1.00002,0,0,-1.00006,111.64888,115.90223)" stroke-width=".3985" stroke-linecap="butt" stroke-miterlimit="10" stroke-linejoin="miter" fill="none" stroke="#993300" d="M-67.7135-.6902H-63.56795"/>
<path transform="matrix(1.00002,0,0,-1.00006,111.64888,115.90223)" stroke-width=".3985" stroke-linecap="butt" stroke-miterlimit="10" stroke-linejoin="miter" fill="none" stroke="#993300" d="M-66.33165-2.07205V2.07205"/>
<path transform="matrix(1.00002,0,0,-1.00006,111.64888,115.90223)" stroke-width=".3985" stroke-linecap="butt" stroke-miterlimit="10" stroke-linejoin="miter" fill="none" stroke="#993300" d="M-58.04054 .47794C-58.3045 .47794-58.5185 .26396-58.5185 0-58.5185-.26396-58.3045-.47794-58.04054-.47794-57.77657-.47794-57.56259-.26396-57.56259 0-57.56259 .26396-57.77657 .47794-58.04054 .47794ZM-58.04054 0"/>
<path transform="matrix(1.00002,0,0,-1.00006,111.64888,115.90223)" stroke-width=".3985" stroke-linecap="butt" stroke-miterlimit="10" stroke-linejoin="miter" fill="none" stroke="#000000" d="M39.08543-39.08543"/>
<path transform="matrix(1.00002,0,0,-1.00006,111.64888,115.90223)" d="M29.6065-25.11359 34.29726-28.23975 49.93112-43.87361 53.05728-48.56438 48.36754-45.4372 32.73367-29.80333Z" fill="#993300" fill-opacity=".1"/>
<path transform="matrix(1.00002,0,0,-1.00006,111.64888,115.90223)" d="M25.11359-29.6065 28.23975-34.29726 43.87361-49.93112 48.56438-53.05728 45.4372-48.36754 29.80333-32.73367Z" fill="#993300" fill-opacity=".1"/>
<path transform="matrix(1.00002,0,0,-1.00006,111.64888,115.90223)" d="M32.73367-29.80333 29.80333-32.73367 43.48296-46.41328 46.41328-43.48296Z" fill="#993300" fill-opacity=".04"/>
<path transform="matrix(1.00002,0,0,-1.00006,111.64888,115.90223)" d="M45.43617-44.46008 44.46008-45.43617 47.39143-48.36752 48.36752-47.39143Z" fill="#993300" fill-opacity=".1"/>
<path transform="matrix(1.00002,0,0,-1.00006,111.64888,115.90223)" stroke-width=".3985" stroke-linecap="butt" stroke-miterlimit="10" stroke-linejoin="miter" fill="none" stroke="#993300" d="M53.05728-48.56438 49.93112-43.87361"/>
<path transform="matrix(1.00002,0,0,-1.00006,111.64888,115.90223)" stroke-width=".3985" stroke-linecap="butt" stroke-miterlimit="10" stroke-linejoin="miter" fill="none" stroke="#993300" d="M49.93112-43.87361 34.29726-28.23975"/>
<path transform="matrix(1.00002,0,0,-1.00006,111.64888,115.90223)" stroke-width=".3985" stroke-linecap="butt" stroke-miterlimit="10" stroke-linejoin="miter" fill="none" stroke="#993300" d="M34.29726-28.23975 29.6065-25.11359"/>
<path transform="matrix(1.00002,0,0,-1.00006,111.64888,115.90223)" stroke-width=".3985" stroke-linecap="butt" stroke-miterlimit="10" stroke-linejoin="miter" fill="none" stroke="#993300" d="M29.6065-25.11359 32.73367-29.80333"/>
<path transform="matrix(1.00002,0,0,-1.00006,111.64888,115.90223)" stroke-width=".3985" stroke-linecap="butt" stroke-miterlimit="10" stroke-linejoin="miter" fill="none" stroke="#993300" d="M32.73367-29.80333 48.36754-45.4372"/>
<path transform="matrix(1.00002,0,0,-1.00006,111.64888,115.90223)" stroke-width=".3985" stroke-linecap="butt" stroke-miterlimit="10" stroke-linejoin="miter" fill="none" stroke="#993300" d="M48.36754-45.4372 53.05728-48.56438"/>
<path transform="matrix(1.00002,0,0,-1.00006,111.64888,115.90223)" stroke-width=".3985" stroke-linecap="butt" stroke-miterlimit="10" stroke-linejoin="miter" fill="none" stroke="#993300" d="M48.56438-53.05728 43.87361-49.93112"/>
<path transform="matrix(1.00002,0,0,-1.00006,111.64888,115.90223)" stroke-width=".3985" stroke-linecap="butt" stroke-miterlimit="10" stroke-linejoin="miter" fill="none" stroke="#993300" d="M43.87361-49.93112 28.23975-34.29726"/>
<path transform="matrix(1.00002,0,0,-1.00006,111.64888,115.90223)" stroke-width=".3985" stroke-linecap="butt" stroke-miterlimit="10" stroke-linejoin="miter" fill="none" stroke="#993300" d="M28.23975-34.29726 25.11359-29.6065"/>
<path transform="matrix(1.00002,0,0,-1.00006,111.64888,115.90223)" stroke-width=".3985" stroke-linecap="butt" stroke-miterlimit="10" stroke-linejoin="miter" fill="none" stroke="#993300" d="M25.11359-29.6065 29.80333-32.73367"/>
<path transform="matrix(1.00002,0,0,-1.00006,111.64888,115.90223)" stroke-width=".3985" stroke-linecap="butt" stroke-miterlimit="10" stroke-linejoin="miter" fill="none" stroke="#993300" d="M29.80333-32.73367 45.4372-48.36754"/>
<path transform="matrix(1.00002,0,0,-1.00006,111.64888,115.90223)" stroke-width=".3985" stroke-linecap="butt" stroke-miterlimit="10" stroke-linejoin="miter" fill="none" stroke="#993300" d="M45.4372-48.36754 48.56438-53.05728"/>
<path transform="matrix(1.00002,0,0,-1.00006,111.64888,115.90223)" stroke-width=".3985" stroke-linecap="butt" stroke-miterlimit="10" stroke-linejoin="miter" fill="none" stroke="#993300" d="M32.73367-29.80333 29.80333-32.73367"/>
<path transform="matrix(1.00002,0,0,-1.00006,111.64888,115.90223)" stroke-width=".3985" stroke-linecap="butt" stroke-miterlimit="10" stroke-linejoin="miter" fill="none" stroke="#993300" d="M29.80333-32.73367 43.48296-46.41328"/>
<path transform="matrix(1.00002,0,0,-1.00006,111.64888,115.90223)" stroke-width=".3985" stroke-linecap="butt" stroke-miterlimit="10" stroke-linejoin="miter" fill="none" stroke="#993300" d="M43.48296-46.41328 46.41328-43.48296"/>
<path transform="matrix(1.00002,0,0,-1.00006,111.64888,115.90223)" stroke-width=".3985" stroke-linecap="butt" stroke-miterlimit="10" stroke-linejoin="miter" fill="none" stroke="#993300" d="M46.41328-43.48296 32.73367-29.80333"/>
<path transform="matrix(1.00002,0,0,-1.00006,111.64888,115.90223)" stroke-width=".3985" stroke-linecap="butt" stroke-miterlimit="10" stroke-linejoin="miter" fill="none" stroke="#993300" d="M45.43617-44.46008 44.46008-45.43617"/>
<path transform="matrix(1.00002,0,0,-1.00006,111.64888,115.90223)" stroke-width=".3985" stroke-linecap="butt" stroke-miterlimit="10" stroke-linejoin="miter" fill="none" stroke="#993300" d="M44.46008-45.43617 47.39143-48.36752"/>
<path transform="matrix(1.00002,0,0,-1.00006,111.64888,115.90223)" stroke-width=".3985" stroke-linecap="butt" stroke-miterlimit="10" stroke-linejoin="miter" fill="none" stroke="#993300" d="M47.39143-48.36752 48.36752-47.39143"/>
<path transform="matrix(1.00002,0,0,-1.00006,111.64888,115.90223)" stroke-width=".3985" stroke-linecap="butt" stroke-miterlimit="10" stroke-linejoin="miter" fill="none" stroke="#993300" d="M48.36752-47.39143 45.43617-44.46008"/>
<path transform="matrix(1.00002,0,0,-1.00006,111.64888,115.90223)" stroke-width=".3985" stroke-linecap="butt" stroke-miterlimit="10" stroke-linejoin="miter" fill="none" stroke="#993300" d="M48.36754-45.4372 45.4372-48.36754"/>
<path transform="matrix(1.00002,0,0,-1.00006,111.64888,115.90223)" stroke-width=".3985" stroke-linecap="butt" stroke-miterlimit="10" stroke-linejoin="miter" fill="none" stroke="#993300" d="M40.70169-41.37761C40.88834-41.56425 41.19095-41.56425 41.37761-41.37761 41.56425-41.19095 41.56425-40.88834 41.37761-40.70169 41.19095-40.51505 40.88834-40.51505 40.70169-40.70169 40.51505-40.88834 40.51505-41.19095 40.70169-41.37761ZM41.03964-41.03964"/>
<path transform="matrix(1.00002,0,0,-1.00006,111.64888,115.90223)" stroke-width=".3985" stroke-linecap="butt" stroke-miterlimit="10" stroke-linejoin="miter" fill="none" stroke="#000000" d="M-39.08543-39.08543"/>
<path transform="matrix(1.00002,0,0,-1.00006,111.64888,115.90223)" d="M-25.11359-29.6065-28.23975-34.29726-43.87361-49.93112-48.56438-53.05728-45.4372-48.36754-29.80333-32.73367Z" fill="#993300" fill-opacity=".1"/>
<path transform="matrix(1.00002,0,0,-1.00006,111.64888,115.90223)" d="M-29.6065-25.11359-34.29726-28.23975-49.93112-43.87361-53.05728-48.56438-48.36754-45.4372-32.73367-29.80333Z" fill="#993300" fill-opacity=".1"/>
<path transform="matrix(1.00002,0,0,-1.00006,111.64888,115.90223)" d="M-29.80333-32.73367-32.73367-29.80333-46.41328-43.48296-43.48296-46.41328Z" fill="#993300" fill-opacity=".04"/>
<path transform="matrix(1.00002,0,0,-1.00006,111.64888,115.90223)" d="M-44.46008-45.43617-45.43617-44.46008-48.36752-47.39143-47.39143-48.36752Z" fill="#993300" fill-opacity=".1"/>
<path transform="matrix(1.00002,0,0,-1.00006,111.64888,115.90223)" stroke-width=".3985" stroke-linecap="butt" stroke-miterlimit="10" stroke-linejoin="miter" fill="none" stroke="#993300" d="M-48.56438-53.05728-43.87361-49.93112"/>
<path transform="matrix(1.00002,0,0,-1.00006,111.64888,115.90223)" stroke-width=".3985" stroke-linecap="butt" stroke-miterlimit="10" stroke-linejoin="miter" fill="none" stroke="#993300" d="M-43.87361-49.93112-28.23975-34.29726"/>
<path transform="matrix(1.00002,0,0,-1.00006,111.64888,115.90223)" stroke-width=".3985" stroke-linecap="butt" stroke-miterlimit="10" stroke-linejoin="miter" fill="none" stroke="#993300" d="M-28.23975-34.29726-25.11359-29.6065"/>
<path transform="matrix(1.00002,0,0,-1.00006,111.64888,115.90223)" stroke-width=".3985" stroke-linecap="butt" stroke-miterlimit="10" stroke-linejoin="miter" fill="none" stroke="#993300" d="M-25.11359-29.6065-29.80333-32.73367"/>
<path transform="matrix(1.00002,0,0,-1.00006,111.64888,115.90223)" stroke-width=".3985" stroke-linecap="butt" stroke-miterlimit="10" stroke-linejoin="miter" fill="none" stroke="#993300" d="M-29.80333-32.73367-45.4372-48.36754"/>
<path transform="matrix(1.00002,0,0,-1.00006,111.64888,115.90223)" stroke-width=".3985" stroke-linecap="butt" stroke-miterlimit="10" stroke-linejoin="miter" fill="none" stroke="#993300" d="M-45.4372-48.36754-48.56438-53.05728"/>
<path transform="matrix(1.00002,0,0,-1.00006,111.64888,115.90223)" stroke-width=".3985" stroke-linecap="butt" stroke-miterlimit="10" stroke-linejoin="miter" fill="none" stroke="#993300" d="M-53.05728-48.56438-49.93112-43.87361"/>
<path transform="matrix(1.00002,0,0,-1.00006,111.64888,115.90223)" stroke-width=".3985" stroke-linecap="butt" stroke-miterlimit="10" stroke-linejoin="miter" fill="none" stroke="#993300" d="M-49.93112-43.87361-34.29726-28.23975"/>
<path transform="matrix(1.00002,0,0,-1.00006,111.64888,115.90223)" stroke-width=".3985" stroke-linecap="butt" stroke-miterlimit="10" stroke-linejoin="miter" fill="none" stroke="#993300" d="M-34.29726-28.23975-29.6065-25.11359"/>
<path transform="matrix(1.00002,0,0,-1.00006,111.64888,115.90223)" stroke-width=".3985" stroke-linecap="butt" stroke-miterlimit="10" stroke-linejoin="miter" fill="none" stroke="#993300" d="M-29.6065-25.11359-32.73367-29.80333"/>
<path transform="matrix(1.00002,0,0,-1.00006,111.64888,115.90223)" stroke-width=".3985" stroke-linecap="butt" stroke-miterlimit="10" stroke-linejoin="miter" fill="none" stroke="#993300" d="M-32.73367-29.80333-48.36754-45.4372"/>
<path transform="matrix(1.00002,0,0,-1.00006,111.64888,115.90223)" stroke-width=".3985" stroke-linecap="butt" stroke-miterlimit="10" stroke-linejoin="miter" fill="none" stroke="#993300" d="M-48.36754-45.4372-53.05728-48.56438"/>
<path transform="matrix(1.00002,0,0,-1.00006,111.64888,115.90223)" stroke-width=".3985" stroke-linecap="butt" stroke-miterlimit="10" stroke-linejoin="miter" fill="none" stroke="#993300" d="M-29.80333-32.73367-32.73367-29.80333"/>
<path transform="matrix(1.00002,0,0,-1.00006,111.64888,115.90223)" stroke-width=".3985" stroke-linecap="butt" stroke-miterlimit="10" stroke-linejoin="miter" fill="none" stroke="#993300" d="M-32.73367-29.80333-46.41328-43.48296"/>
<path transform="matrix(1.00002,0,0,-1.00006,111.64888,115.90223)" stroke-width=".3985" stroke-linecap="butt" stroke-miterlimit="10" stroke-linejoin="miter" fill="none" stroke="#993300" d="M-46.41328-43.48296-43.48296-46.41328"/>
<path transform="matrix(1.00002,0,0,-1.00006,111.64888,115.90223)" stroke-width=".3985" stroke-linecap="butt" stroke-miterlimit="10" stroke-linejoin="miter" fill="none" stroke="#993300" d="M-43.48296-46.41328-29.80333-32.73367"/>
<path transform="matrix(1.00002,0,0,-1.00006,111.64888,115.90223)" stroke-width=".3985" stroke-linecap="butt" stroke-miterlimit="10" stroke-linejoin="miter" fill="none" stroke="#993300" d="M-44.46008-45.43617-45.43617-44.46008"/>
<path transform="matrix(1.00002,0,0,-1.00006,111.64888,115.90223)" stroke-width=".3985" stroke-linecap="butt" stroke-miterlimit="10" stroke-linejoin="miter" fill="none" stroke="#993300" d="M-45.43617-44.46008-48.36752-47.39143"/>
<path transform="matrix(1.00002,0,0,-1.00006,111.64888,115.90223)" stroke-width=".3985" stroke-linecap="butt" stroke-miterlimit="10" stroke-linejoin="miter" fill="none" stroke="#993300" d="M-48.36752-47.39143-47.39143-48.36752"/>
<path transform="matrix(1.00002,0,0,-1.00006,111.64888,115.90223)" stroke-width=".3985" stroke-linecap="butt" stroke-miterlimit="10" stroke-linejoin="miter" fill="none" stroke="#993300" d="M-47.39143-48.36752-44.46008-45.43617"/>
<path transform="matrix(1.00002,0,0,-1.00006,111.64888,115.90223)" stroke-width=".3985" stroke-linecap="butt" stroke-miterlimit="10" stroke-linejoin="miter" fill="none" stroke="#993300" d="M-45.4372-48.36754-48.36754-45.4372"/>
<path transform="matrix(1.00002,0,0,-1.00006,111.64888,115.90223)" stroke-width=".3985" stroke-linecap="butt" stroke-miterlimit="10" stroke-linejoin="miter" fill="none" stroke="#993300" d="M-41.37761-40.70169C-41.56425-40.88834-41.56425-41.19095-41.37761-41.37761-41.19095-41.56425-40.88834-41.56425-40.70169-41.37761-40.51505-41.19095-40.51505-40.88834-40.70169-40.70169-40.88834-40.51505-41.19095-40.51505-41.37761-40.70169ZM-41.03964-41.03964"/>
<path transform="matrix(1.00002,0,0,-1.00006,111.64888,115.90223)" stroke-width=".3985" stroke-linecap="butt" stroke-miterlimit="10" stroke-linejoin="miter" fill="none" stroke="#000000" d="M0-55.27686"/>
<path transform="matrix(1.00002,0,0,-1.00006,111.64888,115.90223)" d="M3.17697-38.69464 4.2833-44.22205V-66.33165L3.17697-71.85905 2.07205-66.33165V-44.22205Z" fill="#993300" fill-opacity=".1"/>
<path transform="matrix(1.00002,0,0,-1.00006,111.64888,115.90223)" d="M-3.17697-38.69464-4.2833-44.22205V-66.33165L-3.17697-71.85905-2.07205-66.33165V-44.22205Z" fill="#993300" fill-opacity=".1"/>
<path transform="matrix(1.00002,0,0,-1.00006,111.64888,115.90223)" d="M2.07205-44.22205H-2.07205V-63.56795H2.07205Z" fill="#993300" fill-opacity=".04"/>
<path transform="matrix(1.00002,0,0,-1.00006,111.64888,115.90223)" d="M.6902-63.56795H-.6902V-67.7135H.6902Z" fill="#993300" fill-opacity=".1"/>
<path transform="matrix(1.00002,0,0,-1.00006,111.64888,115.90223)" stroke-width=".3985" stroke-linecap="butt" stroke-miterlimit="10" stroke-linejoin="miter" fill="none" stroke="#993300" d="M3.17697-71.85905 4.2833-66.33165"/>
<path transform="matrix(1.00002,0,0,-1.00006,111.64888,115.90223)" stroke-width=".3985" stroke-linecap="butt" stroke-miterlimit="10" stroke-linejoin="miter" fill="none" stroke="#993300" d="M4.2833-66.33165V-44.22205"/>
<path transform="matrix(1.00002,0,0,-1.00006,111.64888,115.90223)" stroke-width=".3985" stroke-linecap="butt" stroke-miterlimit="10" stroke-linejoin="miter" fill="none" stroke="#993300" d="M4.2833-44.22205 3.17697-38.69464"/>
<path transform="matrix(1.00002,0,0,-1.00006,111.64888,115.90223)" stroke-width=".3985" stroke-linecap="butt" stroke-miterlimit="10" stroke-linejoin="miter" fill="none" stroke="#993300" d="M3.17697-38.69464 2.07205-44.22205"/>
<path transform="matrix(1.00002,0,0,-1.00006,111.64888,115.90223)" stroke-width=".3985" stroke-linecap="butt" stroke-miterlimit="10" stroke-linejoin="miter" fill="none" stroke="#993300" d="M2.07205-44.22205V-66.33165"/>
<path transform="matrix(1.00002,0,0,-1.00006,111.64888,115.90223)" stroke-width=".3985" stroke-linecap="butt" stroke-miterlimit="10" stroke-linejoin="miter" fill="none" stroke="#993300" d="M2.07205-66.33165 3.17697-71.85905"/>
<path transform="matrix(1.00002,0,0,-1.00006,111.64888,115.90223)" stroke-width=".3985" stroke-linecap="butt" stroke-miterlimit="10" stroke-linejoin="miter" fill="none" stroke="#993300" d="M-3.17697-71.85905-4.2833-66.33165"/>
<path transform="matrix(1.00002,0,0,-1.00006,111.64888,115.90223)" stroke-width=".3985" stroke-linecap="butt" stroke-miterlimit="10" stroke-linejoin="miter" fill="none" stroke="#993300" d="M-4.2833-66.33165V-44.22205"/>
<path transform="matrix(1.00002,0,0,-1.00006,111.64888,115.90223)" stroke-width=".3985" stroke-linecap="butt" stroke-miterlimit="10" stroke-linejoin="miter" fill="none" stroke="#993300" d="M-4.2833-44.22205-3.17697-38.69464"/>
<path transform="matrix(1.00002,0,0,-1.00006,111.64888,115.90223)" stroke-width=".3985" stroke-linecap="butt" stroke-miterlimit="10" stroke-linejoin="miter" fill="none" stroke="#993300" d="M-3.17697-38.69464-2.07205-44.22205"/>
<path transform="matrix(1.00002,0,0,-1.00006,111.64888,115.90223)" stroke-width=".3985" stroke-linecap="butt" stroke-miterlimit="10" stroke-linejoin="miter" fill="none" stroke="#993300" d="M-2.07205-44.22205V-66.33165"/>
<path transform="matrix(1.00002,0,0,-1.00006,111.64888,115.90223)" stroke-width=".3985" stroke-linecap="butt" stroke-miterlimit="10" stroke-linejoin="miter" fill="none" stroke="#993300" d="M-2.07205-66.33165-3.17697-71.85905"/>
<path transform="matrix(1.00002,0,0,-1.00006,111.64888,115.90223)" stroke-width=".3985" stroke-linecap="butt" stroke-miterlimit="10" stroke-linejoin="miter" fill="none" stroke="#993300" d="M2.07205-44.22205H-2.07205"/>
<path transform="matrix(1.00002,0,0,-1.00006,111.64888,115.90223)" stroke-width=".3985" stroke-linecap="butt" stroke-miterlimit="10" stroke-linejoin="miter" fill="none" stroke="#993300" d="M-2.07205-44.22205V-63.56795"/>
<path transform="matrix(1.00002,0,0,-1.00006,111.64888,115.90223)" stroke-width=".3985" stroke-linecap="butt" stroke-miterlimit="10" stroke-linejoin="miter" fill="none" stroke="#993300" d="M-2.07205-63.56795H2.07205"/>
<path transform="matrix(1.00002,0,0,-1.00006,111.64888,115.90223)" stroke-width=".3985" stroke-linecap="butt" stroke-miterlimit="10" stroke-linejoin="miter" fill="none" stroke="#993300" d="M2.07205-63.56795V-44.22205"/>
<path transform="matrix(1.00002,0,0,-1.00006,111.64888,115.90223)" stroke-width=".3985" stroke-linecap="butt" stroke-miterlimit="10" stroke-linejoin="miter" fill="none" stroke="#993300" d="M.6902-63.56795H-.6902"/>
<path transform="matrix(1.00002,0,0,-1.00006,111.64888,115.90223)" stroke-width=".3985" stroke-linecap="butt" stroke-miterlimit="10" stroke-linejoin="miter" fill="none" stroke="#993300" d="M-.6902-63.56795V-67.7135"/>
<path transform="matrix(1.00002,0,0,-1.00006,111.64888,115.90223)" stroke-width=".3985" stroke-linecap="butt" stroke-miterlimit="10" stroke-linejoin="miter" fill="none" stroke="#993300" d="M-.6902-67.7135H.6902"/>
<path transform="matrix(1.00002,0,0,-1.00006,111.64888,115.90223)" stroke-width=".3985" stroke-linecap="butt" stroke-miterlimit="10" stroke-linejoin="miter" fill="none" stroke="#993300" d="M.6902-67.7135V-63.56795"/>
<path transform="matrix(1.00002,0,0,-1.00006,111.64888,115.90223)" stroke-width=".3985" stroke-linecap="butt" stroke-miterlimit="10" stroke-linejoin="miter" fill="none" stroke="#993300" d="M2.07205-66.33165H-2.07205"/>
<path transform="matrix(1.00002,0,0,-1.00006,111.64888,115.90223)" stroke-width=".3985" stroke-linecap="butt" stroke-miterlimit="10" stroke-linejoin="miter" fill="none" stroke="#993300" d="M-.47794-58.04054C-.47794-58.3045-.26396-58.5185 0-58.5185 .26396-58.5185 .47794-58.3045 .47794-58.04054 .47794-57.77657 .26396-57.56259 0-57.56259-.26396-57.56259-.47794-57.77657-.47794-58.04054ZM0-58.04054"/>
</svg>
