<svg xmlns="http://www.w3.org/2000/svg" xmlns:xlink="http://www.w3.org/1999/xlink" version="1.1" width="197" height="171" viewBox="0 0 197 171">
<defs>
<path id="font_1_1" d="M.6589966 .23046875C.6759949 .23046875 .69400027 .23046875 .69400027 .25045777 .69400027 .27046205 .6759949 .27046205 .6589966 .27046205H.117996219C.100997928 .27046205 .08299255 .27046205 .08299255 .25045777 .08299255 .23046875 .100997928 .23046875 .117996219 .23046875H.6589966Z"/>
<path id="font_2_3" d="M.5289917 .1640625V.20005799H.41799928V.64582827C.41799928 .66682437 .41799928 .6738281 .3959961 .6738281 .38398744 .6738281 .37998963 .6738281 .36999513 .65982058L.038986207 .20005799V.1640625H.33299256V.08201599C.33299256 .04800415 .33299256 .035995485 .2519989 .035995485H.22499085V0C.2749939 .0019989014 .33898927 .0039978029 .375 .0039978029 .4119873 .0039978029 .47599793 .0019989014 .526001 0V.035995485H.49899293C.41799928 .035995485 .41799928 .04800415 .41799928 .08201599V.1640625H.5289917M.33999635 .5658722V.20005799H.07598877L.33999635 .5658722Z"/>
<path id="font_3_1" d="M.31098939 .36265565H.42999269C.4149933 .30274964 .3929901 .2118988 .3929901 .13302613 .3929901 .09309387 .397995 .06613159 .4039917 .044174196 .41999818-.0057678224 .43299867-.009765625 .44898988-.009765625 .47200013-.009765625 .49598695 .011230469 .49598695 .035186769 .49598695 .043182374 .49398805 .047164918 .48799134 .057159425 .46899415 .09408569 .45098878 .15100098 .45098878 .23286438 .45098878 .25183106 .45098878 .29177857 .46499635 .36265565H.58999636C.60798647 .36265565 .6159973 .36265565 .6269989 .37065126 .6409912 .380661 .6439972 .39665223 .6439972 .4016571 .6439972 .43066407 .6179962 .43066407 .6009979 .43066407H.22399903C.18299866 .43066407 .15499878 .42166139 .10998535 .37965394 .083999637 .35665895 .04499817 .30274964 .04499817 .2937622 .04499817 .28178407 .057998659 .28178407 .06199646 .28178407 .07299805 .28178407 .07398987 .28378297 .07998657 .2927704 .1309967 .36265565 .19299317 .36265565 .21499634 .36265565H.27598573C.24499512 .25283814 .19099427 .13502503 .16099549 .07511902 .15499878 .062149049 .14498902 .04118347 .14199829 .03718567 .14099121 .033187868 .13899231 .029190064 .13899231 .022201539 .13899231 .006225586 .15098572-.009765625 .17399597-.009765625 .21398926-.009765625 .22499085 .035186769 .24899292 .12504578L.31098939 .36265565Z"/>
<path id="font_2_2" d="M.272995 .33428956C.35099793 .33428956 .40699769 .2803192 .40699769 .1733551 .40699769 .04940796 .33499146 .012466431 .2769928 .012466431 .23699951 .012466431 .14898682 .0234375 .10699463 .082351688 .1539917 .084350589 .16499329 .11735535 .16499329 .13835144 .16499329 .17034912 .14099121 .19335938 .10998535 .19335938 .08198547 .19335938 .053985597 .17634583 .053985597 .13534546 .053985597 .041412355 .1579895-.01953125 .2789917-.01953125 .41799928-.01953125 .5139923 .07336426 .5139923 .1733551 .5139923 .2513275 .44999696 .32929994 .33999635 .35229493 .44499208 .39024354 .48298646 .4650879 .48298646 .5260773 .48298646 .60505679 .3919983 .6640625 .2809906 .6640625 .16999817 .6640625 .084991458 .61006167 .084991458 .5300751 .084991458 .49606324 .10699463 .47706605 .13699341 .47706605 .16799927 .47706605 .18798828 .5000763 .18798828 .5280762 .18798828 .5570679 .16799927 .57806399 .13699341 .5800781 .17199707 .62405398 .24099732 .63505557 .27799989 .63505557 .32299806 .63505557 .38598634 .6130676 .38598634 .5260773 .38598634 .48406983 .37199403 .43814088 .34599305 .4072113 .31298829 .36927796 .2849884 .3672943 .23498535 .36428834 .20999146 .3623047 .20799256 .3623047 .20298767 .3612976 .20098877 .3612976 .19299317 .3592987 .19299317 .34829713 .19299317 .33428956 .20199585 .33428956 .21899414 .33428956H.272995Z"/>
<path id="font_2_1" d="M.5049896 .18203736H.47099305C.46798707 .16001892 .45799256 .100997928 .44499208 .09098816 .43699647 .084991458 .3600006 .084991458 .34599305 .084991458H.1619873C.2669983 .17803955 .3019867 .20603943 .3619995 .25306703 .43598939 .312088 .5049896 .374115 .5049896 .46914674 .5049896 .5900879 .39898683 .6640625 .2709961 .6640625 .14698792 .6640625 .06298828 .57710269 .06298828 .4851532 .06298828 .43414308 .10598755 .42915345 .115997318 .42915345 .13999939 .42915345 .16899109 .44615174 .16899109 .48214723 .16899109 .5001526 .1619873 .53515627 .10998535 .53515627 .14099121 .6060791 .20899964 .62805178 .2559967 .62805178 .35598756 .62805178 .4079895 .5501404 .4079895 .46914674 .4079895 .38212586 .34599305 .3130951 .31399537 .27708436L.07299805 .038986207C.06298828 .02999878 .06298828 .027999878 .06298828 0H.47499085L.5049896 .18203736Z"/>
<path id="font_2_4" d="M.15499878 .5588074C.20599365 .5458069 .23599243 .5458069 .2519989 .5458069 .38398744 .5458069 .46199037 .6358032 .46199037 .6508026 .46199037 .6618042 .45498658 .6648102 .44999696 .6648102 .44799806 .6648102 .44599916 .6648102 .44198609 .6618042 .41799928 .6528015 .36499024 .6328125 .29100038 .6328125 .2630005 .6328125 .20999146 .6348114 .14498902 .6598053 .1349945 .6648102 .1329956 .6648102 .13198853 .6648102 .11898804 .6648102 .11898804 .6538086 .11898804 .6378021V.34251405C.11898804 .32548524 .11898804 .3134613 .1349945 .3134613 .14399719 .3134613 .14498902 .3154602 .15499878 .32748414 .19799805 .38259889 .25898744 .390625 .2939911 .390625 .35398866 .390625 .3809967 .34251405 .38598634 .33450318 .4039917 .30143739 .4099884 .26335145 .4099884 .20524597 .4099884 .17524719 .4099884 .116256717 .37998963 .07234192 .35499574 .03640747 .31199647 .012466431 .2630005 .012466431 .19799805 .012466431 .1309967 .04838562 .10598755 .11425781 .14399719 .11125183 .16299439 .13624573 .16299439 .16325379 .16299439 .20625305 .12599182 .21424866 .11299133 .21424866 .11099243 .21424866 .06298828 .21424866 .06298828 .1602478 .06298828 .07034302 .14498902-.01953125 .2649994-.01953125 .3929901-.01953125 .5049896 .07533264 .5049896 .20124817 .5049896 .31445313 .4189911 .41862489 .29499818 .41862489 .25099183 .41862489 .19898987 .4076233 .15499878 .36956788V.5588074Z"/>
<path id="font_4_2" d="M.2939911 .64004519C.2939911 .66400149 .2939911 .6660156 .2709961 .6660156 .20899964 .60227969 .12098694 .60227969 .08898926 .60227969V.57128909C.10899353 .57128909 .16799927 .57128909 .21998596 .5972748V.07902527C.21998596 .042999269 .21699524 .0309906 .1269989 .0309906H.09498596V0C.12998963 .0029907227 .21699524 .0029907227 .25698854 .0029907227 .29699708 .0029907227 .38398744 .0029907227 .4189911 0V.0309906H.3869934C.29699708 .0309906 .2939911 .041992189 .2939911 .07902527V.64004519Z"/>
<path id="font_4_1" d="M.45999146 .31976319C.45999146 .39982606 .45498658 .47988893 .41999818 .5539398 .37399293 .65000918 .2919922 .6660156 .25 .6660156 .18998719 .6660156 .116989139 .64001467 .07598877 .54693606 .04399109 .47789 .038986207 .39982606 .038986207 .31976319 .038986207 .24472046 .042999269 .15464783 .083999637 .07859802 .1269989-.0024719239 .19999695-.022460938 .24899292-.022460938 .30299378-.022460938 .3789978-.0014648438 .4229889 .09359741 .45498658 .16265869 .45999146 .2407074 .45999146 .31976319M.24899292-.00047302247C.20999146-.00047302247 .15098572 .024551392 .1329956 .12062073 .12199402 .18066406 .12199402 .2727356 .12199402 .3317871 .12199402 .39582826 .12199402 .46188355 .12998963 .5159149 .14898682 .63500979 .22399903 .64401248 .24899292 .64401248 .28199769 .64401248 .34799195 .6259918 .36698915 .52693179 .3769989 .47088624 .3769989 .39482118 .3769989 .3317871 .3769989 .25672914 .3769989 .18867493 .3659973 .12461853 .35099793 .029556275 .2939911-.00047302247 .24899292-.00047302247Z"/>
<path id="font_4_3" d="M.44898988 .20022583C.44898988 .3193512 .36698915 .41944886 .25898744 .41944886 .21099854 .41944886 .16799927 .40345765 .13198853 .36842347V.5637665C.1519928 .5577698 .18499756 .55078127 .21699524 .55078127 .33999635 .55078127 .4099884 .6417694 .4099884 .6547699 .4099884 .6607666 .40699769 .6657715 .3999939 .6657715 .39898683 .6657715 .39698792 .6657715 .3919983 .66278079 .37199403 .6537781 .32299806 .6337738 .2559967 .6337738 .21598816 .6337738 .16999817 .6407776 .12298584 .6617737 .114990238 .66477969 .11299133 .66477969 .11099243 .66477969 .100997928 .66477969 .100997928 .6567688 .100997928 .6407776V.34439088C.100997928 .32637025 .100997928 .31835938 .114990238 .31835938 .12199402 .31835938 .12399292 .32136537 .12799073 .32736207 .13899231 .3433838 .17599488 .39746095 .25698854 .39746095 .30899049 .39746095 .33399964 .35139466 .34199525 .33337403 .35798646 .29632569 .3600006 .25727845 .3600006 .20722962 .3600006 .17222595 .3600006 .11222839 .33599855 .07035828 .31199647 .031463624 .2749939 .0055389406 .22898865 .0055389406 .1559906 .0055389406 .09899902 .058380128 .08198547 .11723328 .084991458 .1162262 .08799744 .115234378 .09899902 .115234378 .13198853 .115234378 .14898682 .14022827 .14898682 .16423035 .14898682 .18823242 .13198853 .21322632 .09899902 .21322632 .084991458 .21322632 .049987794 .20622254 .049987794 .16023255 .049987794 .07434082 .11898804-.022460938 .23098755-.022460938 .34700013-.022460938 .44898988 .073349 .44898988 .20022583Z"/>
<path id="font_5_1" d="M.33399964 .30233766C.33999635 .32835389 .36299134 .42037965 .43299867 .42037965 .43798829 .42037965 .46199037 .42037965 .48298646 .40734864 .45498658 .402359 .43499757 .37734986 .43499757 .35334779 .43499757 .33735658 .44599916 .31835938 .47299195 .31835938 .49499513 .31835938 .5269928 .3363495 .5269928 .37635804 .5269928 .42837525 .46798707 .4423828 .43399049 .4423828 .37599183 .4423828 .34098817 .38935853 .32899476 .36634828 .3039856 .43237306 .25 .4423828 .22099304 .4423828 .116989139 .4423828 .05999756 .3133545 .05999756 .28834535 .05999756 .27833558 .069992069 .27833558 .07199097 .27833558 .07998657 .27833558 .08299255 .28033448 .084991458 .28933717 .11898804 .39535523 .18499756 .42037965 .21899414 .42037965 .23799134 .42037965 .272995 .4113617 .272995 .35334779 .272995 .32235719 .2559967 .25532533 .21899414 .11528015 .20298767 .053268434 .16799927 .011245728 .12399292 .011245728 .117996219 .011245728 .09498596 .011245728 .07398987 .024276734 .09899902 .029266358 .12098694 .05027771 .12098694 .07827759 .12098694 .105270389 .09899902 .11328125 .083999637 .11328125 .053985597 .11328125 .0289917 .08728027 .0289917 .055267335 .0289917 .009246826 .07899475-.0107421879 .12298584-.0107421879 .18899536-.0107421879 .22499085 .059280397 .22799683 .0652771 .23999024 .028274537 .27598573-.0107421879 .33599855-.0107421879 .43899537-.0107421879 .49598695 .118270877 .49598695 .14328003 .49598695 .1532898 .4869995 .1532898 .48399354 .1532898 .47499085 .1532898 .47299195 .14929199 .47099305 .14228821 .43798829 .03527832 .36999513 .011245728 .33799745 .011245728 .29899598 .011245728 .2829895 .043273927 .2829895 .07727051 .2829895 .09927368 .2889862 .121276859 .2999878 .16529846L.33399964 .30233766Z"/>
<path id="font_5_2" d="M.48599244 .38136292C.48999024 .39537049 .48999024 .39736939 .48999024 .40437318 .48999024 .42237855 .47599793 .43138124 .46099855 .43138124 .45098878 .43138124 .43499757 .42536927 .42599488 .41036988 .42399598 .405365 .41600038 .37435914 .4119873 .35635377 .40499879 .33035279 .397995 .30334474 .3919983 .27633668L.34700013 .09628296C.34298707 .08126831 .2999878 .011245728 .23399353 .011245728 .18299866 .011245728 .17199707 .055267335 .17199707 .0922699 .17199707 .1382904 .18899536 .20030213 .22299195 .28833009 .23899842 .3293457 .24299622 .3403473 .24299622 .36035157 .24299622 .405365 .21099854 .4423828 .16099549 .4423828 .06599426 .4423828 .0289917 .29733277 .0289917 .28833009 .0289917 .27833558 .038986207 .27833558 .040985109 .27833558 .050994874 .27833558 .051986696 .28033448 .056991579 .29634095 .083999637 .3903656 .12399292 .42037965 .1579895 .42037965 .1659851 .42037965 .18299866 .42037965 .18299866 .3883667 .18299866 .36335755 .17298889 .3373413 .1659851 .31834413 .12599182 .21231079 .10798645 .1552887 .10798645 .10827637 .10798645 .019256592 .17098999-.0107421879 .22999573-.0107421879 .2689972-.0107421879 .30299378 .0062561037 .33099366 .03425598 .31799317-.017745972 .30599977-.06674194 .2659912-.11973572 .23999024-.15385437 .20199585-.18309021 .1559906-.18309021 .14199829-.18309021 .09700012-.18005371 .07998657-.14074707 .09599304-.14074707 .10899353-.14074707 .12298584-.1287384 .1329956-.11973572 .14299011-.10673523 .14299011-.08773804 .14299011-.056747438 .115997318-.052734376 .10598755-.052734376 .08299255-.052734376 .049987794-.068740848 .049987794-.11773682 .049987794-.16796875 .09399414-.20507813 .1559906-.20507813 .25898744-.20507813 .3619995-.11373901 .3899994-.00074768069L.48599244 .38136292Z"/>
</defs>
<path transform="matrix(1.00006,0,0,-1.00006,1.0959854,166.5352)" stroke-width=".19925" stroke-linecap="butt" stroke-miterlimit="10" stroke-linejoin="miter" fill="none" stroke="#929292" d="M7.16013 79.28079V82.11555M22.15659 79.28079V82.11555M37.15305 79.28079V82.11555M52.1495 79.28079V82.11555M67.14598 79.28079V82.11555M82.14244 79.28079V82.11555M97.1389 79.28079V82.11555M112.13536 79.28079V82.11555M127.13182 79.28079V82.11555M142.1283 79.28079V82.11555M157.12477 79.28079V82.11555M172.12123 79.28079V82.11555M187.11768 79.28079V82.11555"/>
<path transform="matrix(1.00006,0,0,-1.00006,1.0959854,166.5352)" stroke-width=".19925" stroke-linecap="butt" stroke-miterlimit="10" stroke-linejoin="miter" fill="none" stroke="#929292" d="M37.15256 78.5723V82.82404M82.14099 78.5723V82.82404M127.1292 78.5723V82.82404M172.11644 78.5723V82.82404"/>
<path transform="matrix(1.00006,0,0,-1.00006,1.0959854,166.5352)" stroke-width=".19925" stroke-linecap="butt" stroke-miterlimit="10" stroke-linejoin="miter" fill="none" stroke="#929292" d="M95.01102 0H99.26294M95.01102 40.34909H99.26294M95.01102 121.04727H99.26294M95.01102 161.39636H99.26294"/>
<path transform="matrix(1.00006,0,0,-1.00006,1.0959854,166.5352)" stroke-width=".3985" stroke-linecap="butt" stroke-miterlimit="10" stroke-linejoin="miter" fill="none" stroke="#000000" d="M0 80.69818H192.28145"/>
<path transform="matrix(1.00006,0,0,-1.00006,193.38898,85.832187)" d="M1.99252 0-1.19551 1.59401 0 0-1.19551-1.59401"/>
<path transform="matrix(1.00006,0,0,-1.00006,1.0959854,166.5352)" stroke-width=".3985" stroke-linecap="butt" stroke-miterlimit="10" stroke-linejoin="miter" fill="none" stroke="#000000" d="M97.137 0V159.40384"/>
<path transform="matrix(0,-1.00006,-1.00006,-0,98.23881,7.121811)" d="M1.99252 0-1.19551 1.59401 0 0-1.19551-1.59401"/>
<use data-text="&#x2212;" xlink:href="#font_1_1" transform="matrix(9.963197,0,0,-9.963197,28.739644,99.8952)"/>
<use data-text="4" xlink:href="#font_2_3" transform="matrix(6.9742186,0,0,-6.9742186,37.684179,95.97197)"/>
<use data-text="&#x03c0;" xlink:href="#font_3_1" transform="matrix(6.9742186,0,0,-6.9742186,41.656415,95.97197)"/>
<path transform="matrix(1.00006,0,0,-1.00006,-54.560354,-46.703584)" stroke-width=".3985" stroke-linecap="butt" stroke-miterlimit="10" stroke-linejoin="miter" fill="none" stroke="#000000" d="M92.239-144.099H101.12"/>
<use data-text="3" xlink:href="#font_2_2" transform="matrix(6.9742186,0,0,-6.9742186,40.139326,103.330417)"/>
<use data-text="&#x2212;" xlink:href="#font_1_1" transform="matrix(9.963197,0,0,-9.963197,75.71645,98.40412)"/>
<use data-text="&#x03c0;" xlink:href="#font_3_1" transform="matrix(6.9742186,0,0,-6.9742186,84.66099,94.48089)"/>
<path transform="matrix(1.00006,0,0,-1.00006,-7.583542,-48.194665)" stroke-width=".3985" stroke-linecap="butt" stroke-miterlimit="10" stroke-linejoin="miter" fill="none" stroke="#000000" d="M92.239-144.099H97.148"/>
<use data-text="3" xlink:href="#font_2_2" transform="matrix(6.9742186,0,0,-6.9742186,85.13002,101.83933)"/>
<use data-text="2" xlink:href="#font_2_1" transform="matrix(6.9742186,0,0,-6.9742186,123.792339,95.971988)"/>
<use data-text="&#x03c0;" xlink:href="#font_3_1" transform="matrix(6.9742186,0,0,-6.9742186,127.76357,95.971988)"/>
<path transform="matrix(1.00006,0,0,-1.00006,39.296274,-46.703584)" stroke-width=".3985" stroke-linecap="butt" stroke-miterlimit="10" stroke-linejoin="miter" fill="none" stroke="#000000" d="M84.491-144.099H93.371"/>
<use data-text="3" xlink:href="#font_2_2" transform="matrix(6.9742186,0,0,-6.9742186,126.24648,103.330417)"/>
<use data-text="5" xlink:href="#font_2_4" transform="matrix(6.9742186,0,0,-6.9742186,168.78304,95.971988)"/>
<use data-text="&#x03c0;" xlink:href="#font_3_1" transform="matrix(6.9742186,0,0,-6.9742186,172.75428,95.971988)"/>
<path transform="matrix(1.00006,0,0,-1.00006,84.28697,-46.703584)" stroke-width=".3985" stroke-linecap="butt" stroke-miterlimit="10" stroke-linejoin="miter" fill="none" stroke="#000000" d="M84.491-144.099H93.371"/>
<use data-text="3" xlink:href="#font_2_2" transform="matrix(6.9742186,0,0,-6.9742186,171.23719,103.330417)"/>
<use data-text="&#x2212;" xlink:href="#font_1_1" transform="matrix(9.963197,0,0,-9.963197,74.88041,169.33037)"/>
<use data-text="1" xlink:href="#font_4_2" transform="matrix(9.963197,0,0,-9.963197,82.629878,169.33037)"/>
<use data-text="0" xlink:href="#font_4_1" transform="matrix(9.963197,0,0,-9.963197,87.61147,169.33037)"/>
<use data-text="&#x2212;" xlink:href="#font_1_1" transform="matrix(9.963197,0,0,-9.963197,79.86171,128.97895)"/>
<use data-text="5" xlink:href="#font_4_3" transform="matrix(9.963197,0,0,-9.963197,87.611179,128.97895)"/>
<use data-text="5" xlink:href="#font_4_3" transform="matrix(9.963197,0,0,-9.963197,87.611179,48.69114)"/>
<use data-text="1" xlink:href="#font_4_2" transform="matrix(9.963197,0,0,-9.963197,82.628879,8.339706)"/>
<use data-text="0" xlink:href="#font_4_1" transform="matrix(9.963197,0,0,-9.963197,87.61047,8.339706)"/>
<path transform="matrix(1.00006,0,0,-1.00006,1.0959854,166.5352)" stroke-width=".99628" stroke-linecap="butt" stroke-miterlimit="10" stroke-linejoin="miter" fill="none" stroke="#0000ff" d="M9.4736 85.8395 7.30284 84.21579 7.44557 84.32103 7.58829 84.42537 7.73102 84.52867 7.87373 84.63058 8.01646 84.73172 8.15918 84.83168 8.30191 84.93079 8.44463 85.02908 8.58736 85.12639 8.73007 85.22275 8.8728 85.31815 9.01552 85.41289 9.15826 85.50697 9.30098 85.60017 9.44371 85.69257 9.58644 85.78418 9.72916 85.87529 9.87189 85.96582 10.0146 86.05554 10.15733 86.14482 10.30005 86.2335 10.44278 86.32137 10.5855 86.4091 10.72823 86.49626 10.87094 86.58284 11.01367 86.66887 11.1564 86.75456 11.29912 86.8397 11.44185 86.92453 11.58456 87.0091 11.7273 87.09293 11.87001 87.17686 12.01274 87.26022 12.15546 87.34334 12.2982 87.42606 12.44092 87.50879 12.58365 87.59091 12.72636 87.67291 12.8691 87.75482 13.01181 87.83624 13.15454 87.91774 13.29726 87.99904 13.43999 88.07994 13.58272 88.16093 13.72543 88.2418 13.86816 88.32256 14.01088 88.40308 14.15361 88.48375 14.29633 88.56422 14.43906 88.64458 14.58177 88.72498 14.7245 88.80544 14.86722 88.88582 15.00995 88.96634 15.15268 89.04672 15.2954 89.12715 15.43814 89.20789 15.58086 89.28864 15.72359 89.3695 15.8663 89.45041 16.00903 89.5316 16.15175 89.61273 16.29448 89.69408 16.4372 89.77557 16.57993 89.85748 16.72264 89.93939 16.86537 90.02162 17.00809 90.10426 17.15082 90.187 17.29355 90.27002 17.43626 90.35347 17.579 90.43706 17.72171 90.52116 17.86444 90.60565 18.00716 90.69037 18.14989 90.77544 18.2926 90.86128 18.43533 90.94724 18.57806 91.03383 18.7208 91.12082 18.86353 91.20831 19.00624 91.29642 19.14897 91.38503 19.29169 91.47435 19.43442 91.56401 19.57713 91.65456 19.71986 91.74544 19.86258 91.83717 20.00531 91.92949 20.14803 92.0227 20.29076 92.11679 20.43347 92.21121 20.5762 92.30675 20.71892 92.40303 20.86165 92.5001 21.00438 92.5984 21.1471 92.69727 21.28983 92.79732 21.43254 92.89836 21.57527 93.00053 21.718 93.10349 21.86073 93.20775 22.00345 93.31291 22.14618 93.4196 22.28891 93.5274 22.43163 93.63652 22.57436 93.74675 22.71706 93.85867 22.8598 93.97182 23.00253 94.08632 23.14523 94.20236 23.28796 94.32018 23.43068 94.43945 23.57341 94.56027 23.71614 94.68315 23.85886 94.80777 24.00159 94.93414 24.1443 95.06253 24.28703 95.19293 24.42976 95.32552 24.57248 95.46004 24.71521 95.59708 24.85793 95.73611 25.00067 95.87775 25.1434 96.02203 25.2861 96.16867 25.42885 96.31812 25.57155 96.47021 25.71428 96.62541 25.85701 96.78366 25.99973 96.94507 26.14246 97.10966 26.28517 97.27802 26.4279 97.44942 26.57063 97.62509 26.71335 97.80415 26.85608 97.98767 26.9988 98.17497 27.14153 98.36687 27.28426 98.56354 27.42697 98.76505 27.5697 98.97145 27.7124 99.18304 27.85513 99.40054 27.99788 99.62335 28.1406 99.85245 28.28333 100.0876 28.42604 100.32977 28.56877 100.57898 28.7115 100.83543 28.85422 101.0994 28.99695 101.37224 29.13966 101.6529 29.2824 101.94263 29.42513 102.2428 29.56784 102.55276 29.71057 102.87323 29.85327 103.20537 29.99602 103.54932 30.13875 103.90688 30.28145 104.27681 30.42418 104.66158 30.5669 105.062 30.70963 105.47865 30.85236 105.91312 30.99507 106.36592 31.1378 106.83864 31.28053 107.33397 31.42326 107.85117 31.566 108.39595 31.70871 108.96481 31.85144 109.56471 31.99414 110.19504 32.13687 110.85928 32.27962 111.56271 32.42232 112.30586 32.56505 113.09358 32.70776 113.92952 32.8505 114.81929 32.99323 115.76799 33.13594 116.78406 33.27867 117.86952 33.42139 119.04054 33.56412 120.3016 33.70685 121.66307 33.84956 123.13887 33.9923 124.74734 34.135 126.503 34.27774 128.4317 34.42049 130.55963 34.56319 132.91684 34.70592 135.54993 34.84863 138.50196 34.99136 141.84317 35.1341 145.64899 35.27681 150.03969 35.41954 155.14676 35.49371 158.25972"/>
<path transform="matrix(-.80078807,.59897598,.59897598,.80078807,10.570174,80.69055)" d="M2.8892 0-1.73352 2.31136 0 0-1.73352-2.31136" fill="#0000ff"/>
<path transform="matrix(.023731424,-.99972,-.99972,-.023731424,36.591814,8.265991)" d="M2.8892 0-1.73352 2.31136 0 0-1.73352-2.31136" fill="#0000ff"/>
<path transform="matrix(1.00006,0,0,-1.00006,1.0959854,166.5352)" stroke-width=".99628" stroke-linecap="butt" stroke-miterlimit="10" stroke-linejoin="miter" fill="none" stroke="#0000ff" d="M38.52014 4.19202 38.68149 13.47797 38.89294 22.70474 39.10442 29.93233 39.31589 35.75436 39.52734 40.55444 39.7388 44.57082 39.95027 47.98958 40.16173 50.93427 40.3732 53.49318 40.58466 55.74452 40.79613 57.74034 41.00758 59.5191 41.21904 61.11836 41.43051 62.56409 41.64197 63.87688 41.85344 65.07524 42.0649 66.17436 42.27637 67.18526 42.48782 68.12039 42.6993 68.98726 42.91075 69.79326 43.12221 70.54472 43.33368 71.24866 43.54514 71.90852 43.7566 72.52827 43.96806 73.11285 44.17952 73.6645 44.39099 74.1871 44.60246 74.6818 44.81392 75.15251 45.02538 75.59966 45.23683 76.02574 45.4483 76.43237 45.65977 76.82101 45.87123 77.1937 46.08269 77.55014 46.29416 77.89279 46.50563 78.22202 46.71709 78.53859 46.92854 78.84349 47.14 79.1373 47.35147 79.42136 47.56294 79.69589 47.7744 79.96124 47.98586 80.218 48.19731 80.46704 48.4088 80.70891 48.62025 80.94348 48.83171 81.17122 49.04317 81.3929 49.25464 81.60884 49.46611 81.81898 49.67757 82.02388 49.88902 82.22392 50.10048 82.41898 50.31197 82.60991 50.52342 82.7964 50.73488 82.97887 50.94633 83.15727 51.1578 83.33238 51.36928 83.50371 51.58073 83.6723 51.79219 83.83725 52.00365 83.99945 52.21512 84.15875 52.42659 84.31563 52.63805 84.46992 52.8495 84.62163 53.06097 84.77109 53.27243 84.91837 53.4839 85.06384 53.69536 85.207 53.90681 85.3485 54.11829 85.48825 54.32974 85.62617 54.54121 85.76279 54.75267 85.89772 54.96414 86.03102 55.1756 86.16345 55.38707 86.29434 55.59853 86.4241 55.80998 86.5529 56.02145 86.68047 56.23291 86.80717 56.44438 86.9329 56.65584 87.05775 56.86731 87.18202 57.07877 87.3054 57.29022 87.42822 57.5017 87.55025 57.71317 87.67195 57.92462 87.79315 58.13608 87.91379 58.34753 88.03398 58.559 88.15408 58.77048 88.2739 58.98193 88.39337 59.19339 88.5127 59.40486 88.6319 59.61633 88.75104 59.82779 88.87007 60.03925 88.9892 60.2507 89.10869 60.46217 89.22809 60.67365 89.34778 60.88512 89.46771 61.09656 89.5877 61.30803 89.70853 61.51949 89.8294 61.73096 89.95093 61.94243 90.07295 62.15387 90.19554 62.36534 90.31876 62.5768 90.44263 62.78827 90.56738 62.99974 90.69289 63.21118 90.81917 63.42267 90.94661 63.63411 91.0749 63.84558 91.2045 64.05705 91.33499 64.2685 91.46701 64.47998 91.60033 64.69142 91.7347 64.9029 91.87067 65.11436 92.00818 65.3258 92.14746 65.5373 92.28845 65.74873 92.43129 65.9602 92.57574 66.17168 92.72261 66.38312 92.87148 66.5946 93.0224 66.80605 93.17621 67.01752 93.33228 67.22899 93.49083 67.44044 93.65216 67.65192 93.81647 67.86336 93.984 68.07484 94.15419 68.2863 94.32832 68.49777 94.50587 68.70923 94.68718 68.92068 94.87239 69.13216 95.0618 69.34363 95.25563 69.55508 95.45464 69.76656 95.65793 69.978 95.86661 70.18947 96.08078 70.40094 96.30083 70.6124 96.52663 70.82387 96.75937 71.03531 96.99911 71.24678 97.24597 71.45827 97.50064 71.66971 97.76358 71.88118 98.03535 72.09262 98.31628 72.3041 98.60735 72.51558 98.90916 72.72702 99.22244 72.93849 99.54805 73.14993 99.88658 73.3614 100.23907 73.57289 100.60689 73.78433 100.99078 73.9958 101.39224 74.20724 101.81308 74.41872 102.25345 74.6302 102.71764 74.84164 103.20505 75.05312 103.71925 75.26456 104.26234 75.47604 104.83719 75.68752 105.4466 75.89896 106.09453 76.11043 106.78531 76.32187 107.52306 76.53337 108.31364 76.74483 109.16187 76.95628 110.07562 77.16774 111.06448 77.3792 112.13754 77.59068 113.30548 77.80215 114.58534 78.0136 115.99007 78.22507 117.54431 78.43651 119.26682 78.648 121.19833 78.85947 123.37073 79.0709 125.83781 79.28238 128.66114 79.49384 131.93328 79.7053 135.76613 79.91678 140.31604 80.12822 145.81499 80.33969 152.595 80.48009 158.29319"/>
<path transform="matrix(-.01735104,.99990996,.99990996,.01735104,39.618436,162.34293)" d="M2.8892 0-1.73352 2.31136 0 0-1.73352-2.31136" fill="#0000ff"/>
<path transform="matrix(.024601475,-.99970999,-.99970999,-.024601475,81.58089,8.232544)" d="M2.8892 0-1.73352 2.31136 0 0-1.73352-2.31136" fill="#0000ff"/>
<path transform="matrix(1.00006,0,0,-1.00006,1.0959854,166.5352)" stroke-width=".99628" stroke-linecap="butt" stroke-miterlimit="10" stroke-linejoin="miter" fill="none" stroke="#0000ff" d="M83.50858 4.19202 83.66992 13.47797 83.88138 22.70474 84.09283 29.93233 84.30429 35.75436 84.51576 40.55444 84.72722 44.57605 84.93867 47.99336 85.15013 50.9325 85.36159 53.49158 85.57306 55.74452 85.78452 57.73793 85.99597 59.52022 86.20743 61.11772 86.41888 62.56409 86.63036 63.87688 86.84181 65.07524 87.05327 66.17307 87.26472 67.18526 87.4762 68.119 87.68765 68.98676 87.89911 69.79326 88.11057 70.5444 88.32204 71.24776 88.53351 71.9077 88.74496 72.52827 88.95642 73.11237 89.16788 73.66394 89.37933 74.18622 89.5908 74.68228 89.80226 75.1521 90.01372 75.59966 90.22517 76.02542 90.43663 76.43222 90.6481 76.82079 90.85956 77.19337 91.07101 77.55014 91.28247 77.89253 91.49394 78.2217 91.7054 78.53836 91.91685 78.84299 92.12831 79.1373 92.33977 79.42111 92.55124 79.69533 92.7627 79.96124 92.97415 80.21794 93.18561 80.4668 93.39706 80.70866 93.60854 80.94334 93.81999 81.17114 94.03146 81.39273 94.24292 81.60846 94.45439 81.81866 94.66585 82.02364 94.8773 82.22392 95.08876 82.41898 95.30022 82.60959 95.51169 82.79616 95.72314 82.97855 95.9346 83.1572 96.14606 83.33232 96.35751 83.50354 96.56898 83.67213 96.78044 83.83725 96.9919 83.99928 97.20335 84.15875 97.41481 84.3154 97.62628 84.46968 97.83774 84.62155 98.0492 84.771 98.26065 84.91829 98.47212 85.06346 98.68358 85.20694 98.89503 85.34824 99.1065 85.488 99.31795 85.62608 99.52943 85.76247 99.74089 85.89746 99.95235 86.03102 100.1638 86.16328 100.37526 86.29417 100.58673 86.42395 100.79819 86.55267 101.00964 86.68047 101.2211 86.80717 101.43256 86.93275 101.64403 87.05766 101.85548 87.18187 102.06694 87.30525 102.2784 87.42798 102.48987 87.55008 102.70132 87.6717 102.91278 87.79291 103.12424 87.91362 103.3357 88.03397 103.54716 88.15393 103.75862 88.27364 103.97008 88.39313 104.18153 88.5126 104.39299 88.63167 104.60446 88.75087 104.81593 88.86992 105.02737 88.9891 105.23885 89.10829 105.45029 89.22794 105.66177 89.34763 105.87325 89.46745 106.08467 89.58754 106.29614 89.70811 106.5076 89.82916 106.71907 89.9507 106.93054 90.07272 107.14197 90.19522 107.35344 90.31836 107.5649 90.4424 107.77637 90.56717 107.98784 90.69247 108.19928 90.81894 108.41074 90.94652 108.6222 91.07466 108.83366 91.2041 109.04514 91.33484 109.25658 91.46677 109.46805 91.6 109.67949 91.73454 109.89096 91.87042 110.10243 92.00793 110.31387 92.14723 110.52536 92.2882 110.7368 92.43088 110.94827 92.57558 111.15973 92.7222 111.37117 92.87108 111.58266 93.02223 111.7941 93.17574 112.00557 93.33186 112.21704 93.49037 112.42847 93.65192 112.63995 93.8159 112.8514 93.98343 113.06287 94.15393 113.27434 94.32777 113.48578 94.50546 113.69727 94.68687 113.90869 94.87215 114.12016 95.06157 114.33163 95.25546 114.54309 95.454 114.75456 95.65784 114.96599 95.86629 115.17746 96.08037 115.38893 96.30043 115.60039 96.5264 115.81186 96.75912 116.0233 96.99846 116.23476 97.24533 116.44623 97.49994 116.65768 97.763 116.86916 98.03456 117.0806 98.3158 117.29207 98.6071 117.50354 98.90845 117.71498 99.22147 117.92645 99.547 118.1379 99.88594 118.34937 100.23834 118.56085 100.606 118.77228 100.9902 118.98375 101.39137 119.19519 101.81165 119.40666 102.25241 119.61815 102.71642 119.82959 103.20352 120.04106 103.7179 120.25249 104.26091 120.46396 104.83548 120.67545 105.4454 120.88689 106.09259 121.09836 106.78345 121.3098 107.52142 121.52127 108.31155 121.73274 109.15976 121.94418 110.07367 122.15565 111.06117 122.3671 112.1347 122.57858 113.30386 122.79005 114.58075 123.00148 115.98627 123.21295 117.53899 123.4244 119.26328 123.63588 121.19357 123.84735 123.3658 124.05878 125.82848 124.27025 128.65258 124.48169 131.92296 124.69318 135.7524 124.90465 140.30265 125.11609 145.7986 125.32756 152.57976 125.46794 158.27349"/>
<path transform="matrix(-.01735104,.99990996,.99990996,.01735104,84.60957,162.34293)" d="M2.8892 0-1.73352 2.31136 0 0-1.73352-2.31136" fill="#0000ff"/>
<path transform="matrix(.024601475,-.99970999,-.99970999,-.024601475,126.57144,8.252243)" d="M2.8892 0-1.73352 2.31136 0 0-1.73352-2.31136" fill="#0000ff"/>
<path transform="matrix(1.00006,0,0,-1.00006,1.0959854,166.5352)" stroke-width=".99628" stroke-linecap="butt" stroke-miterlimit="10" stroke-linejoin="miter" fill="none" stroke="#0000ff" d="M128.49646 4.15651 128.6579 13.4569 128.86936 22.67723 129.08081 29.9186 129.29228 35.74379 129.50374 40.54477 129.71521 44.5683 129.92667 47.98273 130.13814 50.927 130.3496 53.48996 130.56107 55.73967 130.77252 57.7342 130.984 59.51442 131.19545 61.11618 131.4069 62.56142 131.61838 63.87364 131.82984 65.07297 132.0413 66.17113 132.25276 67.1834 132.46422 68.11838 132.67569 68.98514 132.88716 69.7919 133.09862 70.5431 133.31008 71.24687 133.52153 71.90715 133.733 72.52716 133.94448 73.11125 134.15593 73.6629 134.36739 74.18567 134.57886 74.68114 134.79033 75.15137 135.00179 75.59828 135.21324 76.02493 135.4247 76.43173 135.63617 76.82054 135.84764 77.19272 136.0591 77.54933 136.27056 77.89229 136.48201 78.22128 136.6935 78.53772 136.90496 78.84267 137.11641 79.1369 137.32787 79.42072 137.53932 79.69508 137.75081 79.96059 137.96227 80.21753 138.17372 80.46655 138.38518 80.70825 138.59667 80.94286 138.80812 81.17065 139.01958 81.3925 139.23104 81.60846 139.4425 81.81842 139.65398 82.02339 139.86544 82.22368 140.07689 82.41873 140.28835 82.60933 140.49982 82.79599 140.71129 82.97838 140.92275 83.1568 141.1342 83.33206 141.34568 83.5035 141.55713 83.67165 141.7686 83.83676 141.98006 83.99904 142.19152 84.1585 142.40299 84.3153 142.61446 84.46959 142.82592 84.62115 143.03737 84.77084 143.24884 84.91803 143.4603 85.06346 143.67177 85.20677 143.88323 85.34816 144.09468 85.48792 144.30615 85.62593 144.51761 85.76247 144.72908 85.89746 144.94054 86.03079 145.15201 86.16321 145.36347 86.2941 145.57492 86.42395 145.78639 86.55249 145.99785 86.6801 146.20932 86.80702 146.42078 86.93266 146.63225 87.05766 146.8437 87.1818 147.05518 87.30516 147.26663 87.42798 147.47809 87.55008 147.68956 87.6717 147.90103 87.79291 148.11249 87.91354 148.32395 88.0338 148.5354 88.15385 148.74687 88.27347 148.95835 88.39313 149.1698 88.51245 149.38126 88.63159 149.59272 88.75072 149.8042 88.86984 150.01564 88.98895 150.22711 89.10829 150.43856 89.22777 150.65004 89.34744 150.86151 89.46729 151.07295 89.58754 151.28443 89.70828 151.49587 89.82916 151.70737 89.9507 151.91883 90.07263 152.13028 90.19513 152.34175 90.31836 152.55319 90.44223 152.76468 90.56699 152.97615 90.69264 153.18759 90.81885 153.39907 90.94627 153.6105 91.07458 153.82199 91.2041 154.03347 91.33484 154.2449 91.46652 154.45638 91.59969 154.66783 91.73428 154.8793 91.87042 155.09078 92.00778 155.30222 92.14723 155.51369 92.28804 155.72515 92.43079 155.93662 92.57558 156.14809 92.7222 156.35953 92.87125 156.571 93.02223 156.78246 93.17564 156.99393 93.33186 157.2054 93.49045 157.41684 93.65184 157.62831 93.8159 157.83977 93.98343 158.05124 94.15393 158.26271 94.32777 158.47415 94.50546 158.68564 94.68687 158.89708 94.87215 159.10855 95.06157 159.32003 95.25546 159.53147 95.454 159.74295 95.65784 159.95439 95.86629 160.16588 96.08037 160.37734 96.3006 160.58879 96.5264 160.80028 96.75912 161.01172 96.99872 161.22319 97.2455 161.43466 97.49994 161.6461 97.76276 161.85759 98.03473 162.06903 98.31555 162.2805 98.6071 162.49198 98.90886 162.70343 99.22171 162.9149 99.547 163.12635 99.88594 163.33782 100.23834 163.54929 100.606 163.76074 100.98973 163.97222 101.39175 164.18366 101.81172 164.39513 102.25299 164.6066 102.71642 164.81806 103.20352 165.02953 103.71854 165.24097 104.26123 165.45244 104.83548 165.66391 105.4461 165.87537 106.09291 166.08684 106.78418 166.29828 107.52142 166.50975 108.31123 166.72122 109.15976 166.93268 110.07367 167.14415 111.0619 167.35559 112.1347 167.56707 113.30386 167.77855 114.58075 167.98999 115.98724 168.20146 117.53842 168.4129 119.26328 168.62439 121.19357 168.83586 123.3658 169.04732 125.83096 169.25879 128.65467 169.47023 131.92385 169.6817 135.7524 169.89319 140.30265 170.10463 145.8028 170.3161 152.57976 170.4565 158.27277"/>
<path transform="matrix(-.017321039,.99990996,.99990996,.017321039,129.60016,162.37844)" d="M2.8892 0-1.73352 2.31136 0 0-1.73352-2.31136" fill="#0000ff"/>
<path transform="matrix(.024601475,-.99970999,-.99970999,-.024601475,171.56269,8.25296)" d="M2.8892 0-1.73352 2.31136 0 0-1.73352-2.31136" fill="#0000ff"/>
<path transform="matrix(1.00006,0,0,-1.00006,1.0959854,166.5352)" stroke-width=".99628" stroke-linecap="butt" stroke-miterlimit="10" stroke-linejoin="miter" fill="none" stroke="#0000ff" d="M173.48033 4.16537 173.50357 5.6416 173.57233 9.59718 173.64105 13.1914 173.7098 16.47429 173.77854 19.49263 173.84726 22.2772 173.916 24.8422 173.98474 27.21786 174.05348 29.42989 174.12221 31.49083 174.19095 33.41653 174.25969 35.22305 174.32842 36.9077 174.39717 38.49995 174.46591 39.99207 174.53464 41.40381 174.60338 42.73854 174.6721 44.00938 174.74085 45.20549 174.80959 46.34706 174.87833 47.4243 174.94707 48.45804 175.0158 49.43915 175.08454 50.3755 175.15328 51.27197 175.22202 52.1251 175.29076 52.94662 175.35948 53.73093 175.42823 54.48384 175.49697 55.20456 175.56569 55.90259 175.63445 56.56876 175.70317 57.21371 175.77191 57.83226 175.84064 58.42815 175.90938 59.00699 175.97812 59.5613 176.04686 60.09915 176.1156 60.61732 176.18434 61.11772 176.25307 61.60417 176.32181 62.07489 176.39054 62.52986 176.45929 62.97104 176.52802 63.39946 176.59676 63.8148 176.6655 64.21767 176.73423 64.60857 176.80297 64.99034 176.87172 65.35928 176.94045 65.7193 177.00919 66.06927 177.07791 66.40967 177.14665 66.74126 177.2154 67.06502 177.28414 67.38046 177.35288 67.68631 177.4216 67.98457 177.49034 68.27695 177.55907 68.56253 177.6278 68.8411 177.69657 69.11256 177.76529 69.37807 177.83403 69.63704 177.90277 69.89131 177.9715 70.1396 178.04024 70.38147 178.10898 70.61888 178.17772 70.85065 178.24645 71.07782 178.31519 71.30022 178.38393 71.51843 178.45265 71.73195 178.5214 71.94063 178.59015 72.14601 178.65888 72.34752 178.72762 72.54457 178.79634 72.73785 178.86508 72.92807 178.93383 73.11375 179.00257 73.29596 179.0713 73.47615 179.14003 73.65184 179.20877 73.82535 179.2775 73.99579 179.34624 74.1629 179.415 74.32753 179.48372 74.48843 179.55246 74.64653 179.6212 74.80309 179.68993 74.95674 179.75867 75.10756 179.82741 75.25629 179.89615 75.40236 179.96488 75.54607 180.03362 75.68713 180.10236 75.82683 180.17108 75.96457 180.23984 76.09958 180.30858 76.2329 180.3773 76.36403 180.44605 76.49306 180.51477 76.6204 180.58351 76.7459 180.65227 76.87009 180.721 76.99202 180.78974 77.11218 180.85846 77.2313 180.9272 77.34798 180.99593 77.46379 181.06468 77.57806 181.13343 77.69022 181.20215 77.80101 181.27089 77.91086 181.33963 78.01883 181.40836 78.1256 181.47711 78.23114 181.54586 78.33556 181.61458 78.4383 181.6833 78.53981 181.75205 78.64005 181.82079 78.73904 181.88953 78.83734 181.95827 78.93411 182.02701 79.03014 182.09574 79.12456 182.16448 79.21791 182.2332 79.31056 182.30196 79.40182 182.3707 79.49205 182.43943 79.58154 182.50817 79.67006 182.57689 79.7578 182.64563 79.84422 182.71437 79.92993 182.78311 80.0145 182.85186 80.0985 182.92058 80.18161 182.98932 80.26361 183.05806 80.34471 183.1268 80.4254 183.19554 80.50522 183.26428 80.58429 183.33301 80.66232 183.40174 80.7398 183.47048 80.81664 183.53923 80.89265 183.60796 80.96771 183.6767 81.04234 183.74544 81.11618 183.81417 81.18938 183.8829 81.262 183.95165 81.33391 184.02039 81.40508 184.08913 81.47601 184.15785 81.54597 184.2266 81.61554 184.29532 81.6843 184.36408 81.75249 184.4328 81.82043 184.50154 81.8875 184.57028 81.95415 184.639 82.02017 184.70775 82.08577 184.7765 82.15074 184.84523 82.21545 184.91397 82.27945 184.98271 82.34312 185.05144 82.4059 185.12017 82.46852 185.18892 82.53082 185.25766 82.59224 185.32639 82.65356 185.39513 82.71442 185.46387 82.77461 185.5326 82.83456 185.60135 82.89397 185.67008 82.95288 185.73882 83.01163 185.80756 83.06998 185.87628 83.12775 185.94503 83.18527 186.01377 83.24242 186.0825 83.29909 186.15123 83.35541 186.21997 83.41133 186.28871 83.467 186.35744 83.5222 186.4262 83.57707 186.49494 83.63187 186.56366 83.68602 186.6324 83.73984 186.70114 83.79367 186.76987 83.84683 186.83861 83.89978 186.90735 83.95248 186.97609 84.0047 187.04482 84.0569 184.80748 82.36829"/>
<path transform="matrix(-.015750945,.99990996,.99990996,.015750945,174.58673,162.36957)" d="M2.8892 0-1.73352 2.31136 0 0-1.73352-2.31136" fill="#0000ff"/>
<path transform="matrix(.79821786,-.6024561,-.6024561,-.79821786,185.91452,84.16197)" d="M2.8892 0-1.73352 2.31136 0 0-1.73352-2.31136" fill="#0000ff"/>
<path transform="matrix(1.00006,0,0,-1.00006,1.0959854,166.5352)" stroke-width=".3985" stroke-linecap="butt" stroke-dasharray="2.98883,2.98883" stroke-miterlimit="10" stroke-linejoin="miter" fill="none" stroke="#ff0000" d="M37.15256 0V161.39636"/>
<path transform="matrix(1.00006,0,0,-1.00006,1.0959854,166.5352)" stroke-width=".3985" stroke-linecap="butt" stroke-dasharray="2.98883,2.98883" stroke-miterlimit="10" stroke-linejoin="miter" fill="none" stroke="#ff0000" d="M82.14099 0V161.39636"/>
<path transform="matrix(1.00006,0,0,-1.00006,1.0959854,166.5352)" stroke-width=".3985" stroke-linecap="butt" stroke-dasharray="2.98883,2.98883" stroke-miterlimit="10" stroke-linejoin="miter" fill="none" stroke="#ff0000" d="M127.12897 0V161.39636"/>
<path transform="matrix(1.00006,0,0,-1.00006,1.0959854,166.5352)" stroke-width=".3985" stroke-linecap="butt" stroke-dasharray="2.98883,2.98883" stroke-miterlimit="10" stroke-linejoin="miter" fill="none" stroke="#ff0000" d="M172.11739 0V161.39636"/>
<use data-text="x" xlink:href="#font_5_1" transform="matrix(9.963197,0,0,-9.963197,186.16709,82.31215)"/>
<use data-text="y" xlink:href="#font_5_2" transform="matrix(9.963197,0,0,-9.963197,101.75902,12.93898)"/>
</svg>
