<svg xmlns="http://www.w3.org/2000/svg" xmlns:xlink="http://www.w3.org/1999/xlink" version="1.1" width="202" height="164" viewBox="0 0 202 164">
<defs>
<path id="font_1_1" d="M.6589966 .23046875C.6759949 .23046875 .69400027 .23046875 .69400027 .25045777 .69400027 .27046205 .6759949 .27046205 .6589966 .27046205H.117996219C.100997928 .27046205 .08299255 .27046205 .08299255 .25045777 .08299255 .23046875 .100997928 .23046875 .117996219 .23046875H.6589966Z"/>
<path id="font_2_1" d="M.2649994 .37265016H.37799073C.34498597 .22489929 .33599855 .18196106 .33599855 .11508179 .33599855 .100097659 .33599855 .073150638 .34399415 .03919983 .35398866-.0047454836 .36499024-.0107421879 .37998963-.0107421879 .3999939-.0107421879 .42099 .007247925 .42099 .02722168 .42099 .033218385 .42099 .035202028 .4149933 .049179079 .38598634 .12106323 .38598634 .18595886 .38598634 .21391297 .38598634 .26683045 .3929901 .32073976 .4039917 .37265016H.5179901C.5309906 .37265016 .5669861 .37265016 .5669861 .406662 .5669861 .43066407 .54599 .43066407 .5269928 .43066407H.19198609C.16999817 .43066407 .13198853 .43066407 .08799744 .38365174 .052993776 .34469605 .026992798 .29878236 .026992798 .29379273 .026992798 .29278565 .026992798 .28379823 .038986207 .28379823 .04699707 .28379823 .04899597 .28779603 .054992677 .29577638 .10398865 .37265016 .1619873 .37265016 .18199158 .37265016H.23899842C.20698548 .25186158 .15299988 .13105774 .11099243 .04020691 .102996829 .025222779 .102996829 .023223877 .102996829 .016235352 .102996829-.002746582 .11898804-.0107421879 .13198853-.0107421879 .1619873-.0107421879 .16999817 .017242432 .18199158 .05418396 .19599915 .100097659 .19599915 .10209656 .20899964 .15202332L.2649994 .37265016Z"/>
<path id="font_3_1" d="M.31098939 .36265565H.42999269C.4149933 .30274964 .3929901 .2118988 .3929901 .13302613 .3929901 .09309387 .397995 .06613159 .4039917 .044174196 .41999818-.0057678224 .43299867-.009765625 .44898988-.009765625 .47200013-.009765625 .49598695 .011230469 .49598695 .035186769 .49598695 .043182374 .49398805 .047164918 .48799134 .057159425 .46899415 .09408569 .45098878 .15100098 .45098878 .23286438 .45098878 .25183106 .45098878 .29177857 .46499635 .36265565H.58999636C.60798647 .36265565 .6159973 .36265565 .6269989 .37065126 .6409912 .380661 .6439972 .39665223 .6439972 .4016571 .6439972 .43066407 .6179962 .43066407 .6009979 .43066407H.22399903C.18299866 .43066407 .15499878 .42166139 .10998535 .37965394 .083999637 .35665895 .04499817 .30274964 .04499817 .2937622 .04499817 .28178407 .057998659 .28178407 .06199646 .28178407 .07299805 .28178407 .07398987 .28378297 .07998657 .2927704 .1309967 .36265565 .19299317 .36265565 .21499634 .36265565H.27598573C.24499512 .25283814 .19099427 .13502503 .16099549 .07511902 .15499878 .062149049 .14498902 .04118347 .14199829 .03718567 .14099121 .033187868 .13899231 .029190064 .13899231 .022201539 .13899231 .006225586 .15098572-.009765625 .17399597-.009765625 .21398926-.009765625 .22499085 .035186769 .24899292 .12504578L.31098939 .36265565Z"/>
<path id="font_4_1" d="M.5049896 .18203736H.47099305C.46798707 .16001892 .45799256 .100997928 .44499208 .09098816 .43699647 .084991458 .3600006 .084991458 .34599305 .084991458H.1619873C.2669983 .17803955 .3019867 .20603943 .3619995 .25306703 .43598939 .312088 .5049896 .374115 .5049896 .46914674 .5049896 .5900879 .39898683 .6640625 .2709961 .6640625 .14698792 .6640625 .06298828 .57710269 .06298828 .4851532 .06298828 .43414308 .10598755 .42915345 .115997318 .42915345 .13999939 .42915345 .16899109 .44615174 .16899109 .48214723 .16899109 .5001526 .1619873 .53515627 .10998535 .53515627 .14099121 .6060791 .20899964 .62805178 .2559967 .62805178 .35598756 .62805178 .4079895 .5501404 .4079895 .46914674 .4079895 .38212586 .34599305 .3130951 .31399537 .27708436L.07299805 .038986207C.06298828 .02999878 .06298828 .027999878 .06298828 0H.47499085L.5049896 .18203736Z"/>
<path id="font_4_2" d="M.272995 .33428956C.35099793 .33428956 .40699769 .2803192 .40699769 .1733551 .40699769 .04940796 .33499146 .012466431 .2769928 .012466431 .23699951 .012466431 .14898682 .0234375 .10699463 .082351688 .1539917 .084350589 .16499329 .11735535 .16499329 .13835144 .16499329 .17034912 .14099121 .19335938 .10998535 .19335938 .08198547 .19335938 .053985597 .17634583 .053985597 .13534546 .053985597 .041412355 .1579895-.01953125 .2789917-.01953125 .41799928-.01953125 .5139923 .07336426 .5139923 .1733551 .5139923 .2513275 .44999696 .32929994 .33999635 .35229493 .44499208 .39024354 .48298646 .4650879 .48298646 .5260773 .48298646 .60505679 .3919983 .6640625 .2809906 .6640625 .16999817 .6640625 .084991458 .61006167 .084991458 .5300751 .084991458 .49606324 .10699463 .47706605 .13699341 .47706605 .16799927 .47706605 .18798828 .5000763 .18798828 .5280762 .18798828 .5570679 .16799927 .57806399 .13699341 .5800781 .17199707 .62405398 .24099732 .63505557 .27799989 .63505557 .32299806 .63505557 .38598634 .6130676 .38598634 .5260773 .38598634 .48406983 .37199403 .43814088 .34599305 .4072113 .31298829 .36927796 .2849884 .3672943 .23498535 .36428834 .20999146 .3623047 .20799256 .3623047 .20298767 .3612976 .20098877 .3612976 .19299317 .3592987 .19299317 .34829713 .19299317 .33428956 .20199585 .33428956 .21899414 .33428956H.272995Z"/>
<path id="font_5_2" d="M.1269989 .07699585 .23298645 .18003845C.3889923 .31811524 .44898988 .3721466 .44898988 .47216798 .44898988 .5860901 .35899354 .6660156 .23699951 .6660156 .12399292 .6660156 .049987794 .57411196 .049987794 .48516847 .049987794 .4291687 .099990848 .4291687 .102996829 .4291687 .11999512 .4291687 .15499878 .44117738 .15499878 .48217774 .15499878 .5081787 .13699341 .5341797 .101989749 .5341797 .09399414 .5341797 .09199524 .5341797 .08898926 .5331726 .11199951 .59806826 .1659851 .63500979 .22399903 .63500979 .31498719 .63500979 .35798646 .5541382 .35798646 .47216798 .35798646 .39215089 .30799867 .31311036 .25299073 .25108338L.06098938 .036987306C.049987794 .025985718 .049987794 .023986817 .049987794 0H.42099L.44898988 .17404175H.42399598C.4189911 .14402771 .4119873 .1000061 .4019928 .084991458 .394989 .07699585 .32899476 .07699585 .30699159 .07699585H.1269989Z"/>
<path id="font_4_3" d="M.15499878 .5588074C.20599365 .5458069 .23599243 .5458069 .2519989 .5458069 .38398744 .5458069 .46199037 .6358032 .46199037 .6508026 .46199037 .6618042 .45498658 .6648102 .44999696 .6648102 .44799806 .6648102 .44599916 .6648102 .44198609 .6618042 .41799928 .6528015 .36499024 .6328125 .29100038 .6328125 .2630005 .6328125 .20999146 .6348114 .14498902 .6598053 .1349945 .6648102 .1329956 .6648102 .13198853 .6648102 .11898804 .6648102 .11898804 .6538086 .11898804 .6378021V.34251405C.11898804 .32548524 .11898804 .3134613 .1349945 .3134613 .14399719 .3134613 .14498902 .3154602 .15499878 .32748414 .19799805 .38259889 .25898744 .390625 .2939911 .390625 .35398866 .390625 .3809967 .34251405 .38598634 .33450318 .4039917 .30143739 .4099884 .26335145 .4099884 .20524597 .4099884 .17524719 .4099884 .116256717 .37998963 .07234192 .35499574 .03640747 .31199647 .012466431 .2630005 .012466431 .19799805 .012466431 .1309967 .04838562 .10598755 .11425781 .14399719 .11125183 .16299439 .13624573 .16299439 .16325379 .16299439 .20625305 .12599182 .21424866 .11299133 .21424866 .11099243 .21424866 .06298828 .21424866 .06298828 .1602478 .06298828 .07034302 .14498902-.01953125 .2649994-.01953125 .3929901-.01953125 .5049896 .07533264 .5049896 .20124817 .5049896 .31445313 .4189911 .41862489 .29499818 .41862489 .25099183 .41862489 .19898987 .4076233 .15499878 .36956788V.5588074Z"/>
<path id="font_5_3" d="M.2899933 .35191346C.37199403 .37893678 .42999269 .4490509 .42999269 .52809146 .42999269 .6100464 .34199525 .6660156 .24598694 .6660156 .14498902 .6660156 .068984989 .60606387 .068984989 .53009036 .068984989 .49710084 .09098816 .47808839 .11999512 .47808839 .15098572 .47808839 .17098999 .50009158 .17098999 .5290985 .17098999 .57910159 .12399292 .57910159 .10899353 .57910159 .13999939 .62802127 .20599365 .64100649 .24198914 .64100649 .2829895 .64100649 .33799745 .6190338 .33799745 .5290985 .33799745 .51708987 .33599855 .45906068 .30999757 .4149933 .27999879 .36691285 .24598694 .36390687 .22099304 .36291505 .21299744 .36190797 .18899536 .35990907 .18199158 .35990907 .17399597 .35890199 .16699219 .35791017 .16699219 .3479004 .16699219 .33691407 .17399597 .33691407 .19099427 .33691407H.23498535C.31698609 .33691407 .35398866 .2686615 .35398866 .17037964 .35398866 .034469606 .2849884 .0055389406 .24099732 .0055389406 .19799805 .0055389406 .12298584 .022491456 .08799744 .08137512 .12298584 .07637024 .1539917 .09837341 .1539917 .1363678 .1539917 .17237854 .1269989 .19238281 .09799194 .19238281 .07398987 .19238281 .041992189 .17837525 .041992189 .1343689 .041992189 .043441774 .1349945-.022460938 .24398804-.022460938 .3659973-.022460938 .45700074 .06838989 .45700074 .17037964 .45700074 .252594 .3939972 .33088685 .2899933 .35191346Z"/>
<path id="font_5_1" d="M.2939911 .64004519C.2939911 .66400149 .2939911 .6660156 .2709961 .6660156 .20899964 .60227969 .12098694 .60227969 .08898926 .60227969V.57128909C.10899353 .57128909 .16799927 .57128909 .21998596 .5972748V.07902527C.21998596 .042999269 .21699524 .0309906 .1269989 .0309906H.09498596V0C.12998963 .0029907227 .21699524 .0029907227 .25698854 .0029907227 .29699708 .0029907227 .38398744 .0029907227 .4189911 0V.0309906H.3869934C.29699708 .0309906 .2939911 .041992189 .2939911 .07902527V.64004519Z"/>
<path id="font_6_85" d="M.33099366-.2400055C.33099366-.23701477 .33099366-.23500061 .31399537-.21800232 .18899536-.0920105 .15699768 .09700012 .15699768 .25 .15699768 .42399598 .19499207 .59799197 .31799317 .72299197 .33099366 .7350006 .33099366 .7369995 .33099366 .73999026 .33099366 .746994 .32699586 .75 .32099916 .75 .31098939 .75 .22099304 .6819916 .1619873 .5549927 .11099243 .44499208 .09899902 .33399964 .09899902 .25 .09899902 .17199707 .10998535 .050994874 .16499329-.06201172 .22499085-.18501282 .31098939-.25 .32099916-.25 .32699586-.25 .33099366-.24700928 .33099366-.2400055Z"/>
<path id="font_6_46" d="M.70700076 .33580018C.70700076 .52568057 .57199099 .6826172 .40098573 .6826172H.034988405V.6516113H.05899048C.13598633 .6516113 .13798523 .64060977 .13798523 .6046295V.07795715C.13798523 .041992189 .13598633 .0309906 .05899048 .0309906H.034988405V0H.40098573C.56900027 0 .70700076 .1479187 .70700076 .33580018M.6069946 .33580018C.6069946 .22486878 .58799746 .16490174 .5519867 .11593628 .5319977 .08895874 .47499085 .0309906 .37399293 .0309906H.272995C.22599793 .0309906 .22399903 .037994386 .22399903 .07096863V.6116333C.22399903 .64460757 .22599793 .6516113 .272995 .6516113H.37298585C.43499757 .6516113 .5039978 .6296234 .5549927 .55867007 .59799197 .49969483 .6069946 .41375733 .6069946 .33580018Z"/>
<path id="font_6_86" d="M.2889862 .25C.2889862 .32798768 .27799989 .44898988 .22299195 .56199648 .16299439 .68499758 .07699585 .75 .066986087 .75 .06098938 .75 .056991579 .74598696 .056991579 .73999026 .056991579 .7369995 .056991579 .7350006 .07598877 .71699526 .17399597 .6179962 .23098755 .45899964 .23098755 .25 .23098755 .07899475 .19400025-.09700012 .069992069-.2230072 .056991579-.23500061 .056991579-.23701477 .056991579-.2400055 .056991579-.2460022 .06098938-.25 .066986087-.25 .07699585-.25 .16699219-.18200684 .22599793-.055007936 .2769928 .054992677 .2889862 .16600037 .2889862 .25Z"/>
<path id="font_2_2" d="M.33399964 .30233766C.33999635 .32835389 .36299134 .42037965 .43299867 .42037965 .43798829 .42037965 .46199037 .42037965 .48298646 .40734864 .45498658 .402359 .43499757 .37734986 .43499757 .35334779 .43499757 .33735658 .44599916 .31835938 .47299195 .31835938 .49499513 .31835938 .5269928 .3363495 .5269928 .37635804 .5269928 .42837525 .46798707 .4423828 .43399049 .4423828 .37599183 .4423828 .34098817 .38935853 .32899476 .36634828 .3039856 .43237306 .25 .4423828 .22099304 .4423828 .116989139 .4423828 .05999756 .3133545 .05999756 .28834535 .05999756 .27833558 .069992069 .27833558 .07199097 .27833558 .07998657 .27833558 .08299255 .28033448 .084991458 .28933717 .11898804 .39535523 .18499756 .42037965 .21899414 .42037965 .23799134 .42037965 .272995 .4113617 .272995 .35334779 .272995 .32235719 .2559967 .25532533 .21899414 .11528015 .20298767 .053268434 .16799927 .011245728 .12399292 .011245728 .117996219 .011245728 .09498596 .011245728 .07398987 .024276734 .09899902 .029266358 .12098694 .05027771 .12098694 .07827759 .12098694 .105270389 .09899902 .11328125 .083999637 .11328125 .053985597 .11328125 .0289917 .08728027 .0289917 .055267335 .0289917 .009246826 .07899475-.0107421879 .12298584-.0107421879 .18899536-.0107421879 .22499085 .059280397 .22799683 .0652771 .23999024 .028274537 .27598573-.0107421879 .33599855-.0107421879 .43899537-.0107421879 .49598695 .118270877 .49598695 .14328003 .49598695 .1532898 .4869995 .1532898 .48399354 .1532898 .47499085 .1532898 .47299195 .14929199 .47099305 .14228821 .43798829 .03527832 .36999513 .011245728 .33799745 .011245728 .29899598 .011245728 .2829895 .043273927 .2829895 .07727051 .2829895 .09927368 .2889862 .121276859 .2999878 .16529846L.33399964 .30233766Z"/>
<path id="font_2_3" d="M.48599244 .38136292C.48999024 .39537049 .48999024 .39736939 .48999024 .40437318 .48999024 .42237855 .47599793 .43138124 .46099855 .43138124 .45098878 .43138124 .43499757 .42536927 .42599488 .41036988 .42399598 .405365 .41600038 .37435914 .4119873 .35635377 .40499879 .33035279 .397995 .30334474 .3919983 .27633668L.34700013 .09628296C.34298707 .08126831 .2999878 .011245728 .23399353 .011245728 .18299866 .011245728 .17199707 .055267335 .17199707 .0922699 .17199707 .1382904 .18899536 .20030213 .22299195 .28833009 .23899842 .3293457 .24299622 .3403473 .24299622 .36035157 .24299622 .405365 .21099854 .4423828 .16099549 .4423828 .06599426 .4423828 .0289917 .29733277 .0289917 .28833009 .0289917 .27833558 .038986207 .27833558 .040985109 .27833558 .050994874 .27833558 .051986696 .28033448 .056991579 .29634095 .083999637 .3903656 .12399292 .42037965 .1579895 .42037965 .1659851 .42037965 .18299866 .42037965 .18299866 .3883667 .18299866 .36335755 .17298889 .3373413 .1659851 .31834413 .12599182 .21231079 .10798645 .1552887 .10798645 .10827637 .10798645 .019256592 .17098999-.0107421879 .22999573-.0107421879 .2689972-.0107421879 .30299378 .0062561037 .33099366 .03425598 .31799317-.017745972 .30599977-.06674194 .2659912-.11973572 .23999024-.15385437 .20199585-.18309021 .1559906-.18309021 .14199829-.18309021 .09700012-.18005371 .07998657-.14074707 .09599304-.14074707 .10899353-.14074707 .12298584-.1287384 .1329956-.11973572 .14299011-.10673523 .14299011-.08773804 .14299011-.056747438 .115997318-.052734376 .10598755-.052734376 .08299255-.052734376 .049987794-.068740848 .049987794-.11773682 .049987794-.16796875 .09399414-.20507813 .1559906-.20507813 .25898744-.20507813 .3619995-.11373901 .3899994-.00074768069L.48599244 .38136292Z"/>
</defs>
<path transform="matrix(1.00005,0,0,-1.00008,4.1135027,162.32479)" stroke-width=".19925" stroke-linecap="butt" stroke-miterlimit="10" stroke-linejoin="miter" fill="none" stroke="#929292" d="M2.99661 79.27808V82.11295M14.76434 79.27808V82.11295M26.53207 79.27808V82.11295M38.29982 79.27808V82.11295M50.06757 79.27808V82.11295M61.83531 79.27808V82.11295M73.60306 79.27808V82.11295M85.3708 79.27808V82.11295M97.13855 79.27808V82.11295M108.90628 79.27808V82.11295M120.67403 79.27808V82.11295M132.44178 79.27808V82.11295M144.20952 79.27808V82.11295M155.97727 79.27808V82.11295M167.74501 79.27808V82.11295M179.51277 79.27808V82.11295M191.28049 79.27808V82.11295"/>
<path transform="matrix(1.00005,0,0,-1.00008,4.1135027,162.32479)" stroke-width=".19925" stroke-linecap="butt" stroke-miterlimit="10" stroke-linejoin="miter" fill="none" stroke="#929292" d="M2.99661 78.56958V82.82144M26.53203 78.56958V82.82144M73.60292 78.56958V82.82144M97.13837 78.56958V82.82144M120.6738 78.56958V82.82144M144.20925 78.56958V82.82144M167.74469 78.56958V82.82144M191.28014 78.56958V82.82144"/>
<path transform="matrix(1.00005,0,0,-1.00008,4.1135027,162.32479)" stroke-width=".19925" stroke-linecap="butt" stroke-miterlimit="10" stroke-linejoin="miter" fill="none" stroke="#929292" d="M47.94135 6.20734H52.19325M47.94135 31.03673H52.19325M47.94135 55.86612H52.19325M47.94135 105.5249H52.19325M47.94135 130.3543H52.19325M47.94135 155.18369H52.19325"/>
<path transform="matrix(1.00005,0,0,-1.00008,4.1135027,162.32479)" stroke-width=".3985" stroke-linecap="butt" stroke-miterlimit="10" stroke-linejoin="miter" fill="none" stroke="#000000" d="M0 80.69551H192.2835"/>
<path transform="matrix(1.00005,0,0,-1.00008,196.40659,81.62282)" d="M1.99252 0-1.19551 1.59401 0 0-1.19551-1.59401"/>
<path transform="matrix(1.00005,0,0,-1.00008,4.1135027,162.32479)" stroke-width=".3985" stroke-linecap="butt" stroke-miterlimit="10" stroke-linejoin="miter" fill="none" stroke="#000000" d="M50.06729 0V159.39852"/>
<path transform="matrix(0,-1.00008,-1.00005,-0,54.183298,2.9135133)" d="M1.99252 0-1.19551 1.59401 0 0-1.19551-1.59401"/>
<use data-text="&#x2212;" xlink:href="#font_1_1" transform="matrix(9.963098,0,0,-9.963397,.21730805,93.081249)"/>
<use data-text="&#x03c0;" xlink:href="#font_2_1" transform="matrix(9.963098,0,0,-9.963397,7.9656984,93.081249)"/>
<use data-text="&#x2212;" xlink:href="#font_1_1" transform="matrix(9.963098,0,0,-9.963397,23.122452,94.195339)"/>
<use data-text="&#x03c0;" xlink:href="#font_3_1" transform="matrix(6.9741489,0,0,-6.974358,32.066904,90.27303)"/>
<path transform="matrix(1.00005,0,0,-1.00008,-74.21241,-52.40238)" stroke-width=".3985" stroke-linecap="butt" stroke-miterlimit="10" stroke-linejoin="miter" fill="none" stroke="#000000" d="M106.274-144.096H111.183"/>
<use data-text="2" xlink:href="#font_4_1" transform="matrix(6.9741489,0,0,-6.974358,32.53592,97.631618)"/>
<use data-text="&#x03c0;" xlink:href="#font_3_1" transform="matrix(6.9741489,0,0,-6.974358,75.26506,90.27303)"/>
<path transform="matrix(1.00005,0,0,-1.00008,-23.264863,-52.40238)" stroke-width=".3985" stroke-linecap="butt" stroke-miterlimit="10" stroke-linejoin="miter" fill="none" stroke="#000000" d="M98.525-144.096H103.434"/>
<use data-text="2" xlink:href="#font_4_1" transform="matrix(6.9741489,0,0,-6.974358,75.734088,97.631618)"/>
<use data-text="&#x03c0;" xlink:href="#font_2_1" transform="matrix(9.963098,0,0,-9.963397,98.238208,91.55912)"/>
<use data-text="3" xlink:href="#font_4_2" transform="matrix(6.9741489,0,0,-6.974358,120.35231,91.764148)"/>
<use data-text="&#x03c0;" xlink:href="#font_3_1" transform="matrix(6.9741489,0,0,-6.974358,124.32351,91.764148)"/>
<path transform="matrix(1.00005,0,0,-1.00008,21.822388,-50.91127)" stroke-width=".3985" stroke-linecap="butt" stroke-miterlimit="10" stroke-linejoin="miter" fill="none" stroke="#000000" d="M98.525-144.096H107.406"/>
<use data-text="2" xlink:href="#font_4_1" transform="matrix(6.9741489,0,0,-6.974358,122.807437,99.12273)"/>
<use data-text="2" xlink:href="#font_5_2" transform="matrix(9.963098,0,0,-9.963397,142.82044,93.69029)"/>
<use data-text="&#x03c0;" xlink:href="#font_2_1" transform="matrix(9.963098,0,0,-9.963397,147.80168,93.69029)"/>
<use data-text="5" xlink:href="#font_4_3" transform="matrix(6.9741489,0,0,-6.974358,167.42566,91.764148)"/>
<use data-text="&#x03c0;" xlink:href="#font_3_1" transform="matrix(6.9741489,0,0,-6.974358,171.39685,91.764148)"/>
<path transform="matrix(1.00005,0,0,-1.00008,68.89574,-50.91127)" stroke-width=".3985" stroke-linecap="butt" stroke-miterlimit="10" stroke-linejoin="miter" fill="none" stroke="#000000" d="M98.525-144.096H107.406"/>
<use data-text="2" xlink:href="#font_4_1" transform="matrix(6.9741489,0,0,-6.974358,169.88079,99.12273)"/>
<use data-text="3" xlink:href="#font_5_3" transform="matrix(9.963098,0,0,-9.963397,189.89377,93.69029)"/>
<use data-text="&#x03c0;" xlink:href="#font_2_1" transform="matrix(9.963098,0,0,-9.963397,194.87503,93.69029)"/>
<use data-text="&#x2212;" xlink:href="#font_1_1" transform="matrix(9.963098,0,0,-9.963397,35.806085,158.9125)"/>
<use data-text="3" xlink:href="#font_5_3" transform="matrix(9.963098,0,0,-9.963397,43.554475,158.9125)"/>
<use data-text="&#x2212;" xlink:href="#font_1_1" transform="matrix(9.963098,0,0,-9.963397,35.806085,134.08052)"/>
<use data-text="2" xlink:href="#font_5_2" transform="matrix(9.963098,0,0,-9.963397,43.554475,134.08052)"/>
<use data-text="&#x2212;" xlink:href="#font_1_1" transform="matrix(9.963098,0,0,-9.963397,35.806085,109.24954)"/>
<use data-text="1" xlink:href="#font_5_1" transform="matrix(9.963098,0,0,-9.963397,43.554475,109.24954)"/>
<use data-text="1" xlink:href="#font_5_1" transform="matrix(9.963098,0,0,-9.963397,43.55547,60.001596)"/>
<use data-text="2" xlink:href="#font_5_2" transform="matrix(9.963098,0,0,-9.963397,43.55547,35.170618)"/>
<use data-text="3" xlink:href="#font_5_3" transform="matrix(9.963098,0,0,-9.963397,43.55547,10.339615)"/>
<path transform="matrix(1.00005,0,0,-1.00008,4.1135027,162.32479)" stroke-width=".99628" stroke-linecap="butt" stroke-miterlimit="10" stroke-linejoin="miter" fill="none" stroke="#0000ff" d="M.84537 112.62695 .97623 112.19954 1.95248 108.98164 2.92873 105.74934 3.90498 102.51657 4.88124 99.2957 5.85748 96.10115 6.83374 92.94733 7.81 89.84613 8.78624 86.81198 9.7625 83.85579 10.73874 80.99246 11.71498 78.23442 12.69124 75.59009 13.6675 73.07437 14.64374 70.69672 15.62 68.46553 16.59624 66.39178 17.5725 64.4844 18.54875 62.7523 19.525 61.19948 20.50125 59.83585 21.4775 58.66687 22.45374 57.69704 23.43 56.92882 24.40625 56.36618 25.38249 56.0146 26.35875 55.87108 27.335 55.93861 28.31125 56.2177 29.2875 56.70535 30.26376 57.40056 31.23999 58.2984 32.21625 59.39934 33.19249 60.69444 34.16875 62.17973 35.145 63.84875 36.12125 65.69608 37.0975 67.71172 38.07376 69.88629 39.05 72.21428 40.02626 74.68283 41.0025 77.28246 41.97874 80.00078 42.955 82.82935 43.93126 85.75327 44.9075 88.76059 45.88376 91.83943 46.86 94.97736 47.83626 98.15901 48.81252 101.37193 49.78876 104.60175 50.76501 107.83601 51.74126 111.06036 52.7175 114.26138 53.69376 117.42563 54.67001 120.53923 55.64626 123.58977 56.62251 126.56334 57.59877 129.44751 58.57501 132.2299 59.55127 134.89806 60.52753 137.44509 61.50375 139.85253 62.48001 142.11498 63.45627 144.22399 64.43251 146.16913 65.40877 147.93848 66.38501 149.53003 67.36127 150.93589 68.33752 152.14756 69.31377 153.15959 70.29002 153.973 71.26628 154.57984 72.24251 154.97661 73.21877 155.16481 74.19502 155.14296 75.17126 154.91056 76.14752 154.46712 77.12378 153.81607 78.10002 152.96144 79.07628 151.9057 80.05254 150.65082 81.02878 149.20575 82.00502 147.57595 82.98126 145.76738 83.95752 143.78699 84.93378 141.6452 85.91002 139.35099 86.88628 136.91173 87.86253 134.3394 88.83878 131.64492 89.81503 128.8402 90.79129 125.93515 91.76753 122.94421 92.74377 119.87927 93.72003 116.75374 94.69627 113.58054 95.67253 110.3731 96.64879 107.14476 97.62503 103.91148 98.60135 100.68367 99.5775 97.4772 100.55382 94.30301 101.52998 91.17699 102.50627 88.11205 103.48259 85.12059 104.45876 82.21606 105.43506 79.41133 106.41122 76.71735 107.38754 74.14403 108.36385 71.70428 109.34001 69.41005 110.31631 67.26778 111.29248 65.28639 112.2688 63.47682 113.24509 61.8475 114.22125 60.40195 115.19757 59.14708 116.17372 58.09082 117.15004 57.23521 118.12636 56.58368 119.10251 56.13972 120.07883 55.90782 121.055 55.885 122.0313 56.0722 123.0076 56.46947 123.98376 57.0763 124.96007 57.88773 125.93623 58.90027 126.91255 60.11194 127.88885 61.51628 128.86502 63.10686 129.84133 64.8772 130.81749 66.82083 131.79381 68.92935 132.77011 71.19182 133.74626 73.60027 134.72258 76.14528 135.69873 78.81393 136.67505 81.59583 137.65137 84.47949 138.62752 87.45306 139.60384 90.50362 140.58 93.61673 141.5563 96.78049 142.53263 99.982 143.50878 103.20683 144.48508 106.44011 145.46125 109.67041 146.43756 112.88434 147.41387 116.06598 148.39003 119.20291 149.36634 122.28275 150.3425 125.2896 151.31884 128.2145 152.29512 131.04306 153.2713 133.76088 154.24759 136.36101 155.22376 138.83005 156.20008 141.15805 157.17638 143.3336 158.15253 145.34926 159.12886 147.19705 160.10501 148.8666 161.08132 150.35189 162.05764 151.64798 163.0338 152.7499 164.0101 153.64772 164.98624 154.34246 165.96256 154.8311 166.93889 155.11118 167.91504 155.17871 168.89134 155.0352 169.86751 154.68413 170.84383 154.12297 171.82015 153.35475 172.79628 152.38442 173.77262 151.21595 174.74875 149.85282 175.72505 148.30098 176.70137 146.56887 177.67754 144.66347 178.65386 142.58873 179.63002 140.35855 180.60634 137.98088 181.58264 135.46517 182.5588 132.82234 183.53513 130.06279 184.51128 127.20094 185.48758 124.24525 186.4639 121.21063 187.44005 118.10942 188.41637 114.9556 189.39252 111.76105 190.36885 108.54068 191.34516 105.30739 192.3213 102.0751 193.29763 98.85771 193.4285 98.43034"/>
<path transform="matrix(-.2926146,-.9562765,-.95624777,.2926234,4.9589149,49.688837)" d="M2.8892 0-1.73352 2.31136 0 0-1.73352-2.31136" fill="#0000ff"/>
<path transform="matrix(.2925846,.95629647,.9562677,-.2925934,197.55164,63.88655)" d="M2.8892 0-1.73352 2.31136 0 0-1.73352-2.31136" fill="#0000ff"/>
<use data-text="(" xlink:href="#font_6_85" transform="matrix(9.963098,0,0,-9.963397,11.196854,22.035569)"/>
<use data-text="D" xlink:href="#font_6_46" transform="matrix(9.963098,0,0,-9.963397,15.072502,22.035569)"/>
<use data-text=")" xlink:href="#font_6_86" transform="matrix(9.963098,0,0,-9.963397,22.684304,22.035569)"/>
<use data-text="x" xlink:href="#font_2_2" transform="matrix(9.963098,0,0,-9.963397,189.18476,78.10305)"/>
<use data-text="y" xlink:href="#font_2_3" transform="matrix(9.963098,0,0,-9.963397,57.703184,8.730499)"/>
</svg>
