<svg xmlns="http://www.w3.org/2000/svg" xmlns:xlink="http://www.w3.org/1999/xlink" version="1.1" width="222" height="165" viewBox="0 0 222 165">
<defs>
<path id="font_1_1" d="M.6589966 .23046875C.6759949 .23046875 .69400027 .23046875 .69400027 .25045777 .69400027 .27046205 .6759949 .27046205 .6589966 .27046205H.117996219C.100997928 .27046205 .08299255 .27046205 .08299255 .25045777 .08299255 .23046875 .100997928 .23046875 .117996219 .23046875H.6589966Z"/>
<path id="font_2_1" d="M.2649994 .37265016H.37799073C.34498597 .22489929 .33599855 .18196106 .33599855 .11508179 .33599855 .100097659 .33599855 .073150638 .34399415 .03919983 .35398866-.0047454836 .36499024-.0107421879 .37998963-.0107421879 .3999939-.0107421879 .42099 .007247925 .42099 .02722168 .42099 .033218385 .42099 .035202028 .4149933 .049179079 .38598634 .12106323 .38598634 .18595886 .38598634 .21391297 .38598634 .26683045 .3929901 .32073976 .4039917 .37265016H.5179901C.5309906 .37265016 .5669861 .37265016 .5669861 .406662 .5669861 .43066407 .54599 .43066407 .5269928 .43066407H.19198609C.16999817 .43066407 .13198853 .43066407 .08799744 .38365174 .052993776 .34469605 .026992798 .29878236 .026992798 .29379273 .026992798 .29278565 .026992798 .28379823 .038986207 .28379823 .04699707 .28379823 .04899597 .28779603 .054992677 .29577638 .10398865 .37265016 .1619873 .37265016 .18199158 .37265016H.23899842C.20698548 .25186158 .15299988 .13105774 .11099243 .04020691 .102996829 .025222779 .102996829 .023223877 .102996829 .016235352 .102996829-.002746582 .11898804-.0107421879 .13198853-.0107421879 .1619873-.0107421879 .16999817 .017242432 .18199158 .05418396 .19599915 .100097659 .19599915 .10209656 .20899964 .15202332L.2649994 .37265016Z"/>
<path id="font_3_1" d="M.31098939 .36265565H.42999269C.4149933 .30274964 .3929901 .2118988 .3929901 .13302613 .3929901 .09309387 .397995 .06613159 .4039917 .044174196 .41999818-.0057678224 .43299867-.009765625 .44898988-.009765625 .47200013-.009765625 .49598695 .011230469 .49598695 .035186769 .49598695 .043182374 .49398805 .047164918 .48799134 .057159425 .46899415 .09408569 .45098878 .15100098 .45098878 .23286438 .45098878 .25183106 .45098878 .29177857 .46499635 .36265565H.58999636C.60798647 .36265565 .6159973 .36265565 .6269989 .37065126 .6409912 .380661 .6439972 .39665223 .6439972 .4016571 .6439972 .43066407 .6179962 .43066407 .6009979 .43066407H.22399903C.18299866 .43066407 .15499878 .42166139 .10998535 .37965394 .083999637 .35665895 .04499817 .30274964 .04499817 .2937622 .04499817 .28178407 .057998659 .28178407 .06199646 .28178407 .07299805 .28178407 .07398987 .28378297 .07998657 .2927704 .1309967 .36265565 .19299317 .36265565 .21499634 .36265565H.27598573C.24499512 .25283814 .19099427 .13502503 .16099549 .07511902 .15499878 .062149049 .14498902 .04118347 .14199829 .03718567 .14099121 .033187868 .13899231 .029190064 .13899231 .022201539 .13899231 .006225586 .15098572-.009765625 .17399597-.009765625 .21398926-.009765625 .22499085 .035186769 .24899292 .12504578L.31098939 .36265565Z"/>
<path id="font_4_1" d="M.5049896 .18203736H.47099305C.46798707 .16001892 .45799256 .100997928 .44499208 .09098816 .43699647 .084991458 .3600006 .084991458 .34599305 .084991458H.1619873C.2669983 .17803955 .3019867 .20603943 .3619995 .25306703 .43598939 .312088 .5049896 .374115 .5049896 .46914674 .5049896 .5900879 .39898683 .6640625 .2709961 .6640625 .14698792 .6640625 .06298828 .57710269 .06298828 .4851532 .06298828 .43414308 .10598755 .42915345 .115997318 .42915345 .13999939 .42915345 .16899109 .44615174 .16899109 .48214723 .16899109 .5001526 .1619873 .53515627 .10998535 .53515627 .14099121 .6060791 .20899964 .62805178 .2559967 .62805178 .35598756 .62805178 .4079895 .5501404 .4079895 .46914674 .4079895 .38212586 .34599305 .3130951 .31399537 .27708436L.07299805 .038986207C.06298828 .02999878 .06298828 .027999878 .06298828 0H.47499085L.5049896 .18203736Z"/>
<path id="font_4_2" d="M.272995 .33428956C.35099793 .33428956 .40699769 .2803192 .40699769 .1733551 .40699769 .04940796 .33499146 .012466431 .2769928 .012466431 .23699951 .012466431 .14898682 .0234375 .10699463 .082351688 .1539917 .084350589 .16499329 .11735535 .16499329 .13835144 .16499329 .17034912 .14099121 .19335938 .10998535 .19335938 .08198547 .19335938 .053985597 .17634583 .053985597 .13534546 .053985597 .041412355 .1579895-.01953125 .2789917-.01953125 .41799928-.01953125 .5139923 .07336426 .5139923 .1733551 .5139923 .2513275 .44999696 .32929994 .33999635 .35229493 .44499208 .39024354 .48298646 .4650879 .48298646 .5260773 .48298646 .60505679 .3919983 .6640625 .2809906 .6640625 .16999817 .6640625 .084991458 .61006167 .084991458 .5300751 .084991458 .49606324 .10699463 .47706605 .13699341 .47706605 .16799927 .47706605 .18798828 .5000763 .18798828 .5280762 .18798828 .5570679 .16799927 .57806399 .13699341 .5800781 .17199707 .62405398 .24099732 .63505557 .27799989 .63505557 .32299806 .63505557 .38598634 .6130676 .38598634 .5260773 .38598634 .48406983 .37199403 .43814088 .34599305 .4072113 .31298829 .36927796 .2849884 .3672943 .23498535 .36428834 .20999146 .3623047 .20799256 .3623047 .20298767 .3612976 .20098877 .3612976 .19299317 .3592987 .19299317 .34829713 .19299317 .33428956 .20199585 .33428956 .21899414 .33428956H.272995Z"/>
<path id="font_5_4" d="M.1269989 .07699585 .23298645 .18003845C.3889923 .31811524 .44898988 .3721466 .44898988 .47216798 .44898988 .5860901 .35899354 .6660156 .23699951 .6660156 .12399292 .6660156 .049987794 .57411196 .049987794 .48516847 .049987794 .4291687 .099990848 .4291687 .102996829 .4291687 .11999512 .4291687 .15499878 .44117738 .15499878 .48217774 .15499878 .5081787 .13699341 .5341797 .101989749 .5341797 .09399414 .5341797 .09199524 .5341797 .08898926 .5331726 .11199951 .59806826 .1659851 .63500979 .22399903 .63500979 .31498719 .63500979 .35798646 .5541382 .35798646 .47216798 .35798646 .39215089 .30799867 .31311036 .25299073 .25108338L.06098938 .036987306C.049987794 .025985718 .049987794 .023986817 .049987794 0H.42099L.44898988 .17404175H.42399598C.4189911 .14402771 .4119873 .1000061 .4019928 .084991458 .394989 .07699585 .32899476 .07699585 .30699159 .07699585H.1269989Z"/>
<path id="font_5_3" d="M.2939911 .64004519C.2939911 .66400149 .2939911 .6660156 .2709961 .6660156 .20899964 .60227969 .12098694 .60227969 .08898926 .60227969V.57128909C.10899353 .57128909 .16799927 .57128909 .21998596 .5972748V.07902527C.21998596 .042999269 .21699524 .0309906 .1269989 .0309906H.09498596V0C.12998963 .0029907227 .21699524 .0029907227 .25698854 .0029907227 .29699708 .0029907227 .38398744 .0029907227 .4189911 0V.0309906H.3869934C.29699708 .0309906 .2939911 .041992189 .2939911 .07902527V.64004519Z"/>
<path id="font_2_2" d="M.36698915 .3996582H.45298768C.47299195 .3996582 .48298646 .3996582 .48298646 .41966249 .48298646 .43066407 .47299195 .43066407 .45599366 .43066407H.37298585L.3939972 .5449524C.397995 .5660095 .4119873 .6370239 .41799928 .6490326 .4269867 .66804507 .44400025 .68307498 .46499635 .68307498 .46899415 .68307498 .49499513 .68307498 .5139923 .66503909 .46998597 .661026 .45999146 .6260376 .45999146 .6110382 .45999146 .58802798 .47799684 .57603457 .49699403 .57603457 .522995 .57603457 .5519867 .5980377 .5519867 .6360321 .5519867 .6820679 .5059967 .7050781 .46499635 .7050781 .43099977 .7050781 .36799623 .68707278 .33799745 .58802798 .33198548 .56700137 .32899476 .5569763 .30499269 .43066407H.23599243C.21699524 .43066407 .20599365 .43066407 .20599365 .4116516 .20599365 .3996582 .21499634 .3996582 .23399353 .3996582H.2999878L.22499085 .0048828127C.20698548-.09207153 .18998719-.18309021 .13798523-.18309021 .13398743-.18309021 .10899353-.18309021 .08999634-.16506958 .13598633-.1620636 .14498902-.12606812 .14498902-.111068729 .14498902-.08807373 .1269989-.07606506 .10798645-.07606506 .08198547-.07606506 .052993776-.09806824 .052993776-.13606262 .052993776-.18109131 .09700012-.20507813 .13798523-.20507813 .19299317-.20507813 .23298645-.14607239 .25099183-.108062747 .2829895-.04508972 .30599977 .07583618 .30699159 .082839969L.36698915 .3996582Z"/>
<path id="font_5_1" d="M.33099366-.2400055C.33099366-.23701477 .33099366-.23500061 .31399537-.21800232 .18899536-.0920105 .15699768 .09700012 .15699768 .25 .15699768 .42399598 .19499207 .59799197 .31799317 .72299197 .33099366 .73498538 .33099366 .7369995 .33099366 .73999026 .33099366 .746994 .32699586 .75 .32099916 .75 .31098939 .75 .22099304 .6819916 .1619873 .5549927 .11099243 .44499208 .09899902 .33399964 .09899902 .25 .09899902 .17199707 .10998535 .050994874 .16499329-.06201172 .22499085-.18501282 .31098939-.25 .32099916-.25 .32699586-.25 .33099366-.24700928 .33099366-.2400055Z"/>
<path id="font_2_3" d="M.33399964 .30233766C.33999635 .32835389 .36299134 .42037965 .43299867 .42037965 .43798829 .42037965 .46199037 .42037965 .48298646 .40734864 .45498658 .402359 .43499757 .37734986 .43499757 .35334779 .43499757 .33735658 .44599916 .31835938 .47299195 .31835938 .49499513 .31835938 .5269928 .3363495 .5269928 .37635804 .5269928 .42837525 .46798707 .4423828 .43399049 .4423828 .37599183 .4423828 .34098817 .38935853 .32899476 .36634828 .3039856 .43237306 .25 .4423828 .22099304 .4423828 .116989139 .4423828 .05999756 .3133545 .05999756 .28834535 .05999756 .27833558 .069992069 .27833558 .07199097 .27833558 .07998657 .27833558 .08299255 .28033448 .084991458 .28933717 .11898804 .39535523 .18499756 .42037965 .21899414 .42037965 .23799134 .42037965 .272995 .4113617 .272995 .35334779 .272995 .32235719 .2559967 .25532533 .21899414 .11528015 .20298767 .053268434 .16799927 .011245728 .12399292 .011245728 .117996219 .011245728 .09498596 .011245728 .07398987 .024276734 .09899902 .029266358 .12098694 .05027771 .12098694 .07827759 .12098694 .105270389 .09899902 .11328125 .083999637 .11328125 .053985597 .11328125 .0289917 .08728027 .0289917 .055267335 .0289917 .009246826 .07899475-.0107421879 .12298584-.0107421879 .18899536-.0107421879 .22499085 .059280397 .22799683 .0652771 .23999024 .028274537 .27598573-.0107421879 .33599855-.0107421879 .43899537-.0107421879 .49598695 .118270877 .49598695 .14328003 .49598695 .1532898 .4869995 .1532898 .48399354 .1532898 .47499085 .1532898 .47299195 .14929199 .47099305 .14228821 .43798829 .03527832 .36999513 .011245728 .33799745 .011245728 .29899598 .011245728 .2829895 .043273927 .2829895 .07727051 .2829895 .09927368 .2889862 .121276859 .2999878 .16529846L.33399964 .30233766Z"/>
<path id="font_5_2" d="M.2889862 .25C.2889862 .32798768 .27799989 .44898988 .22299195 .56199648 .16299439 .68499758 .07699585 .75 .066986087 .75 .06098938 .75 .056991579 .74598696 .056991579 .73999026 .056991579 .7369995 .056991579 .73498538 .07598877 .71699526 .17399597 .6179962 .23098755 .45899964 .23098755 .25 .23098755 .07899475 .19400025-.09700012 .069992069-.2230072 .056991579-.23500061 .056991579-.23701477 .056991579-.2400055 .056991579-.2460022 .06098938-.25 .066986087-.25 .07699585-.25 .16699219-.18200684 .22599793-.055007936 .2769928 .054992677 .2889862 .16600037 .2889862 .25Z"/>
<path id="font_5_5" d="M.68699648 .32714845C.70199587 .32714845 .72099307 .32714845 .72099307 .34713746 .72099307 .36714173 .70199587 .36714173 .6879883 .36714173H.08898926C.07499695 .36714173 .055999757 .36714173 .055999757 .34713746 .055999757 .32714845 .07499695 .32714845 .08999634 .32714845H.68699648M.6879883 .13284302C.70199587 .13284302 .72099307 .13284302 .72099307 .15284729 .72099307 .17285156 .70199587 .17285156 .68699648 .17285156H.08999634C.07499695 .17285156 .055999757 .17285156 .055999757 .15284729 .055999757 .13284302 .07499695 .13284302 .08898926 .13284302H.6879883Z"/>
<path id="font_5_8" d="M.20799256 .19424439C.22999573 .19024658 .31199647 .17424011 .31199647 .102249149 .31199647 .051254274 .2769928 .011245728 .19898987 .011245728 .114990238 .011245728 .07899475 .06825256 .05999756 .15324402 .056991579 .1662445 .055999757 .17024231 .04598999 .17024231 .032989503 .17024231 .032989503 .16323853 .032989503 .14524842V.013244629C.032989503-.003753662 .032989503-.0107421879 .04399109-.0107421879 .04899597-.0107421879 .049987794-.009750366 .068984989 .009246826 .070999149 .011245728 .070999149 .013244629 .08898926 .03224182 .1329956-.009750366 .17799378-.0107421879 .19898987-.0107421879 .31399537-.0107421879 .3600006 .056243898 .3600006 .12825012 .3600006 .1812439 .32998658 .21124268 .31799317 .22323609 .2849884 .25523377 .24598694 .26324464 .20399475 .27124024 .147995 .28224183 .08099365 .2952423 .08099365 .35324098 .08099365 .38822938 .10699463 .42922975 .19299317 .42922975 .30299378 .42922975 .30799867 .3392334 .30999757 .3082428 .31098939 .2992401 .31999208 .2992401 .32199098 .2992401 .33499146 .2992401 .33499146 .304245 .33499146 .3232422V.4242401C.33499146 .4412384 .33499146 .4482422 .32398988 .4482422 .31900025 .4482422 .31698609 .4482422 .3039856 .43623353 .30099488 .43223573 .29100038 .42323304 .2869873 .42022706 .24899292 .4482422 .20799256 .4482422 .19299317 .4482422 .070999149 .4482422 .032989503 .38124085 .032989503 .3252411 .032989503 .29023744 .04899597 .26223756 .07598877 .24023438 .10798645 .21424866 .13598633 .2082367 .20799256 .19424439Z"/>
<path id="font_5_6" d="M.1769867 .4423828 .036987306 .43138124V.40037538C.101989749 .40037538 .11099243 .3943634 .11099243 .34532167V.076034549C.11099243 .0309906 .099990848 .0309906 .032989503 .0309906V0C.06498718 .0009918213 .11898804 .0029907227 .14299011 .0029907227 .17799378 .0029907227 .21299744 .0009918213 .24699402 0V.0309906C.18099976 .0309906 .1769867 .035995485 .1769867 .075042728V.4423828M.18099976 .6159363C.18099976 .64793398 .1559906 .6689453 .12799073 .6689453 .09700012 .6689453 .07499695 .64193728 .07499695 .6159363 .07499695 .5889435 .09700012 .5629425 .12799073 .5629425 .1559906 .5629425 .18099976 .5839386 .18099976 .6159363Z"/>
<path id="font_5_7" d="M.10998535 .34429933V.076034549C.10998535 .0309906 .09899902 .0309906 .03199768 .0309906V0C.066986087 .0009918213 .117996219 .0029907227 .14498902 .0029907227 .17098999 .0029907227 .22299195 .0009918213 .25698854 0V.0309906C.18998719 .0309906 .1789856 .0309906 .1789856 .076034549V.2602234C.1789856 .36431886 .25 .42037965 .31399537 .42037965 .3769989 .42037965 .3880005 .36631776 .3880005 .30926515V.076034549C.3880005 .0309906 .3769989 .0309906 .30999757 .0309906V0C.34498597 .0009918213 .3959961 .0029907227 .4229889 .0029907227 .44898988 .0029907227 .5009918 .0009918213 .5349884 0V.0309906C.48298646 .0309906 .45799256 .0309906 .45700074 .061019899V.25221253C.45700074 .3383026 .45700074 .36932374 .42599488 .405365 .4119873 .42237855 .3789978 .4423828 .32099916 .4423828 .24798584 .4423828 .20098877 .39935304 .17298889 .33729554V.4423828L.03199768 .43138124V.40037538C.101989749 .4003601 .10998535 .39335633 .10998535 .34429933Z"/>
<path id="font_2_4" d="M.48599244 .38136292C.48999024 .39537049 .48999024 .39736939 .48999024 .40437318 .48999024 .42237855 .47599793 .43138124 .46099855 .43138124 .45098878 .43138124 .43499757 .42536927 .42599488 .41036988 .42399598 .405365 .41600038 .37435914 .4119873 .35635377 .40499879 .33035279 .397995 .30334474 .3919983 .27633668L.34700013 .09628296C.34298707 .08126831 .2999878 .011245728 .23399353 .011245728 .18299866 .011245728 .17199707 .055267335 .17199707 .0922699 .17199707 .1382904 .18899536 .20030213 .22299195 .28833009 .23899842 .3293457 .24299622 .3403473 .24299622 .36035157 .24299622 .405365 .21099854 .4423828 .16099549 .4423828 .06599426 .4423828 .0289917 .29733277 .0289917 .28833009 .0289917 .27833558 .038986207 .27833558 .040985109 .27833558 .050994874 .27833558 .051986696 .28033448 .056991579 .29634095 .083999637 .3903656 .12399292 .42037965 .1579895 .42037965 .1659851 .42037965 .18299866 .42037965 .18299866 .3883667 .18299866 .36335755 .17298889 .3373413 .1659851 .31834413 .12599182 .21231079 .10798645 .1552887 .10798645 .10827637 .10798645 .019256592 .17098999-.0107421879 .22999573-.0107421879 .2689972-.0107421879 .30299378 .0062561037 .33099366 .03425598 .31799317-.017745972 .30599977-.06674194 .2659912-.11973572 .23999024-.15385437 .20199585-.18309021 .1559906-.18309021 .14199829-.18309021 .09700012-.18005371 .07998657-.14074707 .09599304-.14074707 .10899353-.14074707 .12298584-.1287384 .1329956-.11973572 .14299011-.10673523 .14299011-.08773804 .14299011-.056747438 .115997318-.052734376 .10598755-.052734376 .08299255-.052734376 .049987794-.068740848 .049987794-.11773682 .049987794-.16796875 .09399414-.20507813 .1559906-.20507813 .25898744-.20507813 .3619995-.11373901 .3899994-.00074768069L.48599244 .38136292Z"/>
</defs>
<path transform="matrix(1.00005,0,0,-1.00005,1.755188,163.20035)" stroke-width=".19925" stroke-linecap="butt" stroke-miterlimit="10" stroke-linejoin="miter" fill="none" stroke="#929292" d="M33.539 78.57173V82.82384M58.98003 78.57173V82.82384M109.86163 78.57173V82.82384M135.30266 78.57173V82.82384M8.09808 78.57173V82.82384M186.18448 78.57173V82.82384"/>
<path transform="matrix(1.00005,0,0,-1.00005,1.755188,163.20035)" stroke-width=".19925" stroke-linecap="butt" stroke-miterlimit="10" stroke-linejoin="miter" fill="none" stroke="#929292" d="M82.29497 16.13956H86.54669M82.29497 145.25605H86.54669"/>
<path transform="matrix(1.00005,0,0,-1.00005,1.755188,163.20035)" stroke-width=".3985" stroke-linecap="butt" stroke-miterlimit="10" stroke-linejoin="miter" fill="none" stroke="#000000" d="M0 80.6978H192.29004"/>
<path transform="matrix(1.00005,0,0,-1.00005,194.05483,82.49852)" d="M1.99252 0-1.19551 1.59401 0 0-1.19551-1.59401"/>
<path transform="matrix(1.00005,0,0,-1.00005,1.755188,163.20035)" stroke-width=".3985" stroke-linecap="butt" stroke-miterlimit="10" stroke-linejoin="miter" fill="none" stroke="#000000" d="M84.42084 0V159.40308"/>
<path transform="matrix(0,-1.00005,-1.00005,-0,86.180248,3.7893067)" d="M1.99252 0-1.19551 1.59401 0 0-1.19551-1.59401"/>
<use data-text="&#x2212;" xlink:href="#font_1_1" transform="matrix(9.963098,0,0,-9.963098,28.40252,93.956897)"/>
<use data-text="&#x03c0;" xlink:href="#font_2_1" transform="matrix(9.963098,0,0,-9.963098,36.15191,93.956897)"/>
<use data-text="&#x2212;" xlink:href="#font_1_1" transform="matrix(9.963098,0,0,-9.963098,53.21376,95.06995)"/>
<use data-text="&#x03c0;" xlink:href="#font_3_1" transform="matrix(6.9741489,0,0,-6.9741489,62.15821,91.14674)"/>
<path transform="matrix(1.00005,0,0,-1.00005,-31.403466,-51.9384)" stroke-width=".3985" stroke-linecap="butt" stroke-miterlimit="10" stroke-linejoin="miter" fill="none" stroke="#000000" d="M93.557-144.51H98.466"/>
<use data-text="2" xlink:href="#font_4_1" transform="matrix(6.9741489,0,0,-6.9741489,62.627237,98.50511)"/>
<use data-text="&#x03c0;" xlink:href="#font_3_1" transform="matrix(6.9741489,0,0,-6.9741489,109.16855,91.14674)"/>
<path transform="matrix(1.00005,0,0,-1.00005,23.355263,-51.9384)" stroke-width=".3985" stroke-linecap="butt" stroke-miterlimit="10" stroke-linejoin="miter" fill="none" stroke="#000000" d="M85.809-144.51H90.718"/>
<use data-text="2" xlink:href="#font_4_1" transform="matrix(6.9741489,0,0,-6.9741489,109.63657,98.50511)"/>
<use data-text="&#x03c0;" xlink:href="#font_2_1" transform="matrix(9.963098,0,0,-9.963098,134.04579,92.434818)"/>
<use data-text="3" xlink:href="#font_4_2" transform="matrix(6.9741489,0,0,-6.9741489,5.413368,92.63882)"/>
<use data-text="&#x03c0;" xlink:href="#font_3_1" transform="matrix(6.9741489,0,0,-6.9741489,9.384567,92.63882)"/>
<path transform="matrix(1.00005,0,0,-1.00005,-80.39992,-50.446329)" stroke-width=".3985" stroke-linecap="butt" stroke-miterlimit="10" stroke-linejoin="miter" fill="none" stroke="#000000" d="M85.809-144.51H94.689"/>
<use data-text="2" xlink:href="#font_4_1" transform="matrix(6.9741489,0,0,-6.9741489,7.8674929,99.997188)"/>
<use data-text="2" xlink:href="#font_5_4" transform="matrix(9.963098,0,0,-9.963098,182.4402,94.565929)"/>
<use data-text="&#x03c0;" xlink:href="#font_2_1" transform="matrix(9.963098,0,0,-9.963098,187.42145,94.565929)"/>
<use data-text="&#x2212;" xlink:href="#font_1_1" transform="matrix(9.963098,0,0,-9.963098,67.80348,149.85569)"/>
<use data-text="1" xlink:href="#font_5_3" transform="matrix(9.963098,0,0,-9.963098,75.55287,149.85569)"/>
<use data-text="1" xlink:href="#font_5_3" transform="matrix(9.963098,0,0,-9.963098,75.55287,21.147248)"/>
<g>
<path transform="matrix(1.00005,0,0,-1.00005,1.755188,163.20035)" d="M58.98003 16.13956V145.25605H109.86163V16.13956ZM109.86163 145.25605" fill="#ff8000" fill-opacity=".2"/>
<path transform="matrix(1.00005,0,0,-1.00005,1.755188,163.20035)" stroke-width=".3985" stroke-linecap="butt" stroke-miterlimit="10" stroke-linejoin="miter" fill="none" stroke="#000000" stroke-opacity=".2" d="M58.98003 16.13956V145.25605H109.86163V16.13956ZM109.86163 145.25605"/>
</g>
<path transform="matrix(1.00005,0,0,-1.00005,1.755188,163.20035)" stroke-width=".3985" stroke-linecap="butt" stroke-miterlimit="10" stroke-linejoin="miter" fill="none" stroke="#ff8000" d="M8.09808 145.25475 8.35378 145.24636 8.60945 145.22182 8.86514 145.1805 9.12083 145.12433 9.37651 145.05138 9.6322 144.9623 9.8879 144.86028 10.14357 144.73957 10.39928 144.6027 10.65495 144.45227 10.91063 144.28443 11.16634 144.0985 11.42201 143.89838 11.6777 143.6821 11.9334 143.45162 12.18907 143.20502 12.44478 142.94226 12.70045 142.66402 12.95613 142.37027 13.21184 142.06362 13.46751 141.74019 13.7232 141.39933 13.9789 141.04489 14.23457 140.67433 14.49026 140.28957 14.74596 139.8906 15.00163 139.47678 15.25734 139.04811 15.51302 138.6046 15.7687 138.14817 16.0244 137.6769 16.28008 137.19013 16.53577 136.6898 16.79146 136.17462 17.04713 135.64653 17.30283 135.10489 17.55852 134.54904 17.81421 133.98094 18.06989 133.3999 18.32558 132.80467 18.58127 132.19783 18.83696 131.57614 19.09264 130.94153 19.34833 130.29467 19.60402 129.63681 19.85971 128.96477 20.11539 128.28238 20.37108 127.58838 20.62677 126.88274 20.88245 126.16486 21.13815 125.43666 21.39383 124.69617 21.64952 123.9447 21.90521 123.18228 22.16089 122.41016 22.41658 121.62578 22.67227 120.83301 22.92795 120.0299 23.18365 119.21712 23.43933 118.39462 23.695 117.56247 23.95071 116.72192 24.20639 115.87234 24.46207 115.01308 24.71777 114.14542 24.97345 113.2687 25.22916 112.3849 25.48483 111.49335 25.74051 110.59277 25.99622 109.68703 26.25189 108.77289 26.50757 107.85162 26.76328 106.92328 27.01895 105.98976 27.27464 105.04787 27.53033 104.10144 27.78601 103.14856 28.0417 102.19052 28.2974 101.22731 28.55309 100.25894 28.80878 99.2841 29.06445 98.30605 29.32014 97.32283 29.57584 96.33702 29.83151 95.34476 30.0872 94.35121 30.3429 93.35379 30.59859 92.35248 30.85426 91.3499 31.10995 90.3415 31.36565 89.33376 31.62134 88.32211 31.87701 87.30984 32.1327 86.29628 32.3884 85.2795 32.64409 84.2627 32.89977 83.24396 33.15546 82.22588 33.41115 81.20715 33.66682 80.18842 33.92253 79.17099 34.17819 78.15225 34.4339 77.13289 34.68958 76.11609 34.94527 75.10059 35.20097 74.08572 35.45663 73.07216 35.71234 72.06248 35.968 71.05408 36.22371 70.04697 36.4794 69.04309 36.73508 68.04243 36.99078 67.04373 37.24643 66.05081 37.50215 65.05984 37.75784 64.07274 38.01352 63.08952 38.26921 62.11148 38.52487 61.13792 38.7806 60.16827 39.03629 59.20442 39.29195 58.24701 39.54765 57.29413 39.80331 56.3477 40.05902 55.4058 40.31473 54.4723 40.57037 53.54395 40.8261 52.6227 41.08176 51.70854 41.33745 50.8028 41.59315 49.90222 41.84882 49.01067 42.10454 48.12688 42.36018 47.25015 42.61589 46.3838 42.8716 45.52322 43.12726 44.67429 43.38295 43.8331 43.63863 43.00159 43.89433 42.17911 44.15004 41.36632 44.4057 40.56256 44.66139 39.76851 44.91707 38.98543 45.17278 38.2133 45.42848 37.45087 45.68414 36.6994 45.93983 35.95892 46.19551 35.23135 46.4512 34.51283 46.70691 33.8072 46.96257 33.1132 47.21828 32.42952 47.47395 31.75876 47.72964 31.10092 47.98534 30.45404 48.24101 29.81943 48.49672 29.19904 48.75237 28.5909 49.00809 27.99696 49.26378 27.41463 49.51945 26.84653 49.77515 26.2907 50.0308 25.74904 50.28653 25.22096 50.54222 24.70578 50.79788 24.20544 51.05359 23.71869 51.30925 23.24677 51.56496 22.79099 51.82066 22.34746 52.07632 21.9188 52.33203 21.50499 52.58769 21.10538 52.8434 20.72125 53.0991 20.35196 53.35475 19.99625 53.61047 19.6554 53.86613 19.33195 54.12183 19.0253 54.37753 18.73155 54.6332 18.4546 54.88892 18.19055 55.14456 17.94395 55.40027 17.71347 55.65598 17.4972 55.91164 17.29579 56.16733 17.1118 56.423 16.9446 56.67871 16.79288 56.93442 16.656 57.19008 16.5353 57.44577 16.43329 57.70145 16.34421 57.95714 16.27124 58.21284 16.21507 58.46852 16.17375 58.72421 16.14922 58.97989 16.14082"/>
<path transform="matrix(1.00005,0,0,-1.00005,1.755188,163.20035)" stroke-width=".99628" stroke-linecap="butt" stroke-miterlimit="10" stroke-linejoin="miter" fill="none" stroke="#ec008c" d="M58.98003 16.14082 59.2357 16.14922 59.49138 16.17375 59.74707 16.21507 60.00275 16.27124 60.25842 16.34421 60.51411 16.43329 60.76979 16.5353 61.02548 16.656 61.28116 16.79288 61.53685 16.9446 61.79254 17.1118 62.04822 17.29579 62.30391 17.4972 62.55959 17.71281 62.81526 17.94395 63.07095 18.1912 63.32663 18.4546 63.5823 18.73221 63.838 19.0253 64.09367 19.3313 64.34937 19.65605 64.60504 19.99495 64.86072 20.35068 65.11641 20.72125 65.37209 21.10538 65.62776 21.50499 65.88345 21.9188 66.13913 22.34746 66.39482 22.79099 66.65051 23.2474 66.90619 23.71805 67.16188 24.20544 67.41756 24.70578 67.67325 25.22096 67.92892 25.74904 68.1846 26.2907 68.44029 26.84653 68.69597 27.41399 68.95164 27.99567 69.20734 28.5909 69.46301 29.19775 69.7187 29.81943 69.97438 30.45404 70.23006 31.10092 70.48575 31.75812 70.74142 32.42952 70.9971 33.11255 71.25279 33.8072 71.50847 34.51283 71.76418 35.23071 72.01985 35.95892 72.27553 36.69812 72.53122 37.45087 72.7869 38.212 73.04259 38.98477 73.29826 39.76851 73.55394 40.56256 73.80963 41.36568 74.0653 42.17845 74.32098 43.00095 74.57668 43.83244 74.83235 44.67365 75.08804 45.52258 75.34372 46.3812 75.59941 47.25015 75.8551 48.12492 76.11078 49.01001 76.36646 49.90222 76.62215 50.80151 76.87782 51.70792 77.13351 52.62206 77.38919 53.5433 77.64487 54.46971 77.90056 55.4058 78.15623 56.34642 78.41191 57.29413 78.6676 58.24701 78.92328 59.20442 79.17897 60.16763 79.43465 61.136 79.69032 62.11017 79.94601 63.08952 80.20169 64.07146 80.45738 65.05855 80.71306 66.04951 80.96875 67.04243 81.22444 68.0405 81.48012 69.04243 81.7358 70.04503 81.99149 71.05214 82.24716 72.06055 82.50285 73.07152 82.75853 74.08379 83.0142 75.09865 83.2699 76.11543 83.52557 77.13289 83.78125 78.15033 84.03694 79.16905 84.29262 80.18779 84.54831 81.2052 84.804 82.2246 85.05966 83.24203 85.31537 84.26076 85.57101 85.27754 85.82672 86.29434 86.08241 87.3079 86.33807 88.32149 86.59378 89.3318 86.84943 90.34085 87.10513 91.34666 87.36084 92.3512 87.61649 93.35185 87.8722 94.34991 88.12785 95.34412 88.38354 96.33508 88.63925 97.32153 88.8949 98.30412 89.15059 99.28217 89.40627 100.2557 89.66196 101.22472 89.91766 102.18858 90.17332 103.14662 90.42902 104.09949 90.68468 105.04593 90.94037 105.98784 91.19608 106.92264 91.45174 107.8497 91.70743 108.77028 91.96309 109.68443 92.2188 110.59084 92.47449 111.49013 92.73015 112.3836 92.98584 113.26677 93.24152 114.14348 93.49721 115.01114 93.7529 115.87105 94.00856 116.71999 94.26425 117.56119 94.51991 118.39336 94.77562 119.21452 95.03131 120.02795 95.28699 120.83107 95.54268 121.62383 95.79832 122.40694 96.05403 123.18033 96.30972 123.94276 96.56538 124.69551 96.82109 125.43407 97.07674 126.16293 97.33246 126.88017 97.58815 127.58644 97.8438 128.28044 98.0995 128.96347 98.35516 129.63486 98.61087 130.29273 98.86656 130.94089 99.12221 131.5742 99.37791 132.19589 99.63358 132.80275 99.88927 133.39733 100.14497 133.97899 100.40063 134.5484 100.65634 135.10295 100.91199 135.6446 101.16768 136.17333 101.42339 136.68915 101.67905 137.18949 101.93474 137.6756 102.1904 138.14688 102.4461 138.60395 102.70181 139.04682 102.95746 139.47548 103.21315 139.8893 103.46883 140.28827 103.72452 140.67368 103.98022 141.04361 104.23587 141.39867 104.49156 141.73954 104.74724 142.06233 105.00293 142.37027 105.25862 142.66338 105.5143 142.94098 105.76999 143.20438 106.02565 143.45034 106.28134 143.6808 106.53703 143.89772 106.79271 144.0985 107.0484 144.28379 107.30405 144.45099 107.55977 144.6027 107.81546 144.73892 108.07112 144.859 108.32681 144.9623 108.58247 145.05138 108.83818 145.12305 109.09387 145.1805 109.34953 145.22182 109.60522 145.24636 109.86089 145.25475"/>
<path transform="matrix(1.00005,0,0,-1.00005,1.755188,163.20035)" stroke-width=".3985" stroke-linecap="butt" stroke-miterlimit="10" stroke-linejoin="miter" fill="none" stroke="#ff8000" d="M109.86163 145.25475 110.24516 145.23409 110.6287 145.1805 111.01222 145.0914 111.39575 144.9623 111.77928 144.80219 112.16281 144.6027 112.54636 144.36835 112.92989 144.0985 113.31342 143.79314 113.69695 143.45162 114.08047 143.07718 114.464 142.66402 114.84753 142.21793 115.23106 141.74019 115.6146 141.22307 115.99812 140.67433 116.38165 140.09395 116.76518 139.47678 117.14871 138.82862 117.53224 138.14817 117.91579 137.4348 118.29932 136.6898 118.68285 135.9125 119.06638 135.10489 119.4499 134.26822 119.83344 133.3999 120.21696 132.50125 120.6005 131.57744 120.98402 130.61939 121.36755 129.63681 121.75108 128.62584 122.13461 127.58838 122.51814 126.52574 122.90167 125.43666 123.2852 124.32109 123.66875 123.18356 124.05228 122.02022 124.4358 120.83301 124.81934 119.62642 125.20287 118.39462 125.5864 117.14285 125.96992 115.87299 126.35345 114.5799 126.73698 113.26935 127.12051 111.94139 127.50404 110.59277 127.88757 109.2306 128.2711 107.85226 128.65464 106.45653 129.03818 105.04787 129.4217 103.6263 129.80524 102.19052 130.18877 100.74312 130.5723 99.2854 130.95583 97.8154 131.33936 96.33702 131.72289 94.84961 132.10642 93.35379 132.48995 91.85216 132.87348 90.34279 133.257 88.82954 133.64054 87.30984 134.02407 85.78885 134.4076 84.2627 134.79114 82.73526 135.17467 81.2078 135.5582 79.67905 135.94173 78.15225 136.32526 76.62546 136.70879 75.10059 137.09232 73.57959 137.47585 72.06248 137.85938 70.55052 138.2429 69.04309 138.62644 67.54274 139.00997 66.05081 139.3935 64.56726 139.77703 63.09016 140.16057 61.6247 140.5441 60.16827 140.92763 58.72539 141.31114 57.29543 141.69469 55.87772 142.07822 54.4723 142.46173 53.0843 142.84526 51.70985 143.22879 50.35155 143.61234 49.01196 143.99585 47.68787 144.37938 46.3838 144.76291 45.10037 145.14644 43.83438 145.52997 42.5897 145.91352 41.36632 146.29705 40.1649 146.68058 38.98671 147.0641 37.83176 147.44763 36.6994 147.83116 35.59482 148.21469 34.51283 148.59825 33.45729 148.98174 32.43082 149.3653 31.42886 149.7488 30.4547 150.13234 29.50955 150.5159 28.5909 150.89939 27.7045 151.28296 26.84653 151.66646 26.01825 152.05 25.22096 152.43357 24.45529 152.81705 23.71997 153.2006 23.01822 153.5841 22.34746 153.96765 21.70834 154.35121 21.106 154.7347 20.53403 155.11826 19.99625 155.50176 19.49399 155.8853 19.0253 156.26886 18.59018 156.65235 18.1912 157.03592 17.8258 157.4194 17.4972 157.80297 17.20346 158.18651 16.9433 158.57 16.7225 158.95357 16.53658 159.33705 16.38358 159.72061 16.27252 160.10416 16.19249 160.48766 16.14922 160.87122 16.1447 161.2547 16.17375 161.63826 16.2409 162.0218 16.34421 162.40532 16.4817 162.78888 16.65665 163.17237 16.86777 163.55593 17.1118 163.93947 17.39455 164.32297 17.71281 164.70653 18.06339 165.09001 18.45331 165.47357 18.87617 165.85712 19.33195 166.24062 19.82582 166.62418 20.35068 167.00766 20.9104 167.39122 21.50499 167.77477 22.12991 168.15828 22.79099 168.54183 23.48239 168.92533 24.20544 169.30889 24.96208 169.69243 25.74904 170.07593 26.56377 170.45948 27.41399 170.84297 28.29135 171.22653 29.19775 171.61008 30.13577 171.99358 31.10028 172.37712 32.09125 172.76062 33.11255 173.14418 34.15646 173.52774 35.23071 173.91124 36.32755 174.29479 37.45021 174.67829 38.59871 175.06185 39.76851 175.44539 40.9609 175.82889 42.17845 176.21244 43.4154 176.59593 44.67365 176.97949 45.95189 177.36304 47.24953 177.74654 48.56651 178.13008 49.90092 178.51358 51.25278 178.89713 52.62206 179.2807 54.00618 179.6642 55.4058 180.04775 56.81964 180.43125 58.24571 180.81479 59.68408 181.19835 61.13663 181.58185 62.59888 181.9654 64.07082 182.34889 65.55435 182.73244 67.04243 183.116 68.54083 183.49948 70.04567 183.88304 71.55505 184.26654 73.07152 184.6501 74.59251 185.03366 76.11543 185.41715 77.64224 185.8007 79.16905 186.1842 80.6965"/>
<use data-text="f" xlink:href="#font_2_2" transform="matrix(9.963098,0,0,-9.963098,169.10155,148.38462)" fill="#ff8000"/>
<use data-text="(" xlink:href="#font_5_1" transform="matrix(9.963098,0,0,-9.963098,175.05185,148.38462)" fill="#ff8000"/>
<use data-text="x" xlink:href="#font_2_3" transform="matrix(9.963098,0,0,-9.963098,178.92603,148.38462)" fill="#ff8000"/>
<use data-text=")" xlink:href="#font_5_2" transform="matrix(9.963098,0,0,-9.963098,184.62033,148.38462)" fill="#ff8000"/>
<use data-text="=" xlink:href="#font_5_5" transform="matrix(9.963098,0,0,-9.963098,191.24579,148.38462)" fill="#ff8000"/>
<use data-text="s" xlink:href="#font_5_8" transform="matrix(9.963098,0,0,-9.963098,201.75685,148.38462)" fill="#ff8000"/>
<use data-text="i" xlink:href="#font_5_6" transform="matrix(9.963098,0,0,-9.963098,205.68231,148.38462)" fill="#ff8000"/>
<use data-text="n" xlink:href="#font_5_7" transform="matrix(9.963098,0,0,-9.963098,208.44208,148.38462)" fill="#ff8000"/>
<use data-text="x" xlink:href="#font_2_3" transform="matrix(9.963098,0,0,-9.963098,215.67188,148.38462)" fill="#ff8000"/>
<path transform="matrix(1.00005,0,0,-1.00005,1.755188,163.20035)" d="M111.85419 145.25605C111.85419 146.3565 110.96211 147.2486 109.86163 147.2486 108.76117 147.2486 107.86908 146.3565 107.86908 145.25605 107.86908 144.15557 108.76117 143.26349 109.86163 143.26349 110.96211 143.26349 111.85419 144.15557 111.85419 145.25605ZM109.86163 145.25605" fill="#ec008c"/>
<path transform="matrix(1.00005,0,0,-1.00005,1.755188,163.20035)" stroke-width=".3985" stroke-linecap="butt" stroke-miterlimit="10" stroke-linejoin="miter" fill="none" stroke="#ec008c" d="M111.85419 145.25605C111.85419 146.3565 110.96211 147.2486 109.86163 147.2486 108.76117 147.2486 107.86908 146.3565 107.86908 145.25605 107.86908 144.15557 108.76117 143.26349 109.86163 143.26349 110.96211 143.26349 111.85419 144.15557 111.85419 145.25605ZM109.86163 145.25605"/>
<path transform="matrix(1.00005,0,0,-1.00005,1.755188,163.20035)" d="M60.97258 16.13956C60.97258 17.24002 60.08049 18.13211 58.98003 18.13211 57.87955 18.13211 56.98747 17.24002 56.98747 16.13956 56.98747 15.03908 57.87955 14.147 58.98003 14.147 60.08049 14.147 60.97258 15.03908 60.97258 16.13956ZM58.98003 16.13956" fill="#ec008c"/>
<path transform="matrix(1.00005,0,0,-1.00005,1.755188,163.20035)" stroke-width=".3985" stroke-linecap="butt" stroke-miterlimit="10" stroke-linejoin="miter" fill="none" stroke="#ec008c" d="M60.97258 16.13956C60.97258 17.24002 60.08049 18.13211 58.98003 18.13211 57.87955 18.13211 56.98747 17.24002 56.98747 16.13956 56.98747 15.03908 57.87955 14.147 58.98003 14.147 60.08049 14.147 60.97258 15.03908 60.97258 16.13956ZM58.98003 16.13956"/>
<path transform="matrix(1.00005,0,0,-1.00005,1.755188,163.20035)" stroke-width=".3985" stroke-linecap="butt" stroke-miterlimit="10" stroke-linejoin="miter" fill="none" stroke="#ff0000" d="M8.09808 125.88857H186.18448"/>
<use data-text="x" xlink:href="#font_2_3" transform="matrix(9.963098,0,0,-9.963098,186.83344,78.97814)"/>
<use data-text="y" xlink:href="#font_2_4" transform="matrix(9.963098,0,0,-9.963098,89.700588,9.606674)"/>
</svg>
