<svg xmlns="http://www.w3.org/2000/svg" xmlns:xlink="http://www.w3.org/1999/xlink" xmlns:inkscape="http://www.inkscape.org/namespaces/inkscape" version="1.1" width="204" height="159" viewBox="0 0 204 159">
<defs>
<path id="font_1_62" d="M.71598818 0V.0309906H.69200137C.61499026 .0309906 .61299136 .041992189 .61299136 .07797241V.6046448C.61299136 .640625 .61499026 .6516113 .69200137 .6516113H.71598818V.6826172C.68099978 .6796112 .6069946 .6796112 .56900027 .6796112 .5309906 .6796112 .45599366 .6796112 .42099 .6826172V.6516113H.44499208C.5219879 .6516113 .5239868 .640625 .5239868 .6046448V.37083436H.22499085V.6046448C.22499085 .640625 .22698975 .6516113 .3039856 .6516113H.32798768V.6826172C.29299928 .6796112 .21899414 .6796112 .18099976 .6796112 .14299011 .6796112 .067993167 .6796112 .032989503 .6826172V.6516113H.056991579C.13398743 .6516113 .13598633 .640625 .13598633 .6046448V.07797241C.13598633 .041992189 .13398743 .0309906 .056991579 .0309906H.032989503V0C.067993167 .0029907227 .14199829 .0029907227 .17999268 .0029907227 .21798706 .0029907227 .29299928 .0029907227 .32798768 0V.0309906H.3039856C.22698975 .0309906 .22499085 .041992189 .22499085 .07797241V.33984376H.5239868V.07797241C.5239868 .041992189 .5219879 .0309906 .44499208 .0309906H.42099V0C.45599366 .0029907227 .5299988 .0029907227 .56799319 .0029907227 .60598757 .0029907227 .68099978 .0029907227 .71598818 0Z"/>
<path id="font_1_50" d="M.4149933 .11933899C.4149933 .12934876 .40699769 .13134766 .4019928 .13134766 .3929901 .13134766 .3909912 .12535095 .3889923 .11734009 .35398866 .014251709 .2639923 .014251709 .2539978 .014251709 .20399475 .014251709 .1639862 .044281007 .14099121 .08131409 .11099243 .12934876 .11099243 .19540406 .11099243 .23144531H.3899994C.4119873 .23144531 .4149933 .23144531 .4149933 .2524414 .4149933 .35131837 .36099244 .4482422 .23599243 .4482422 .11999512 .4482422 .027999878 .34532167 .027999878 .22042847 .027999878 .08631897 .1329956-.0107421879 .24798584-.0107421879 .36999513-.0107421879 .4149933 .10032654 .4149933 .11933899M.34899903 .2524414H.11199951C.117996219 .40126039 .20199585 .426239 .23599243 .426239 .33898927 .426239 .34899903 .2913971 .34899903 .2524414Z"/>
<path id="font_1_28" d="M.48298646 .08912659V.14511109H.45799256V.08912659C.45799256 .03112793 .43299867 .025131226 .42199708 .025131226 .3889923 .025131226 .3849945 .070129398 .3849945 .07511902V.27508546C.3849945 .31707765 .3849945 .3560791 .34899903 .39312745 .30999757 .43223573 .2599945 .4482422 .21199036 .4482422 .12998963 .4482422 .06098938 .40115357 .06098938 .335083 .06098938 .30508424 .08099365 .28808595 .10699463 .28808595 .1349945 .28808595 .15299988 .30807496 .15299988 .33407594 .15299988 .3460846 .147995 .37908937 .101989749 .38008119 .1289978 .41519166 .17799378 .426239 .20999146 .426239 .25898744 .426239 .31599427 .38710023 .31599427 .29808045V.26107789C.2649994 .25808717 .19499207 .25508119 .13198853 .22509766 .056991579 .19110108 .03199768 .13911438 .03199768 .09512329 .03199768 .014251709 .1289978-.0107421879 .19198609-.0107421879 .2579956-.0107421879 .3039856 .029251099 .32299806 .07624817 .32699586 .036132814 .35398866-.005859375 .40098573-.005859375 .42199708-.005859375 .48298646 .008132935 .48298646 .08912659M.31599427 .14013672C.31599427 .04525757 .24398804 .011245728 .19898987 .011245728 .1499939 .011245728 .10899353 .04624939 .10899353 .09625244 .10899353 .15124512 .15098572 .23425293 .31599427 .24024964V.14013672Z"/>
<path id="font_1_47" d="M.5269928 0V.0309906C.45700074 .0309906 .44898988 .038009645 .44898988 .0871582V.69433596L.30499269 .6826172V.6516113C.375 .6516113 .3829956 .64463809 .3829956 .59580996V.38035584C.35398866 .41636659 .31098939 .4423828 .25698854 .4423828 .13899231 .4423828 .033996583 .3443451 .033996583 .21531677 .033996583 .088272098 .13198853-.0107421879 .24598694-.0107421879 .30999757-.0107421879 .35499574 .023254395 .37998963 .055267335V-.0107421879L.5269928 0M.37998963 .117996219C.37998963 .099990848 .37998963 .09799194 .36898805 .08099365 .33898927 .033218385 .2939911 .011245728 .25099183 .011245728 .20599365 .011245728 .16999817 .037216188 .1459961 .075164798 .11999512 .1161499 .116989139 .17320252 .116989139 .21421814 .116989139 .25125123 .11898804 .31129457 .147995 .35632325 .16899109 .38734437 .20698548 .42037965 .26098634 .42037965 .29599 .42037965 .33799745 .405365 .36898805 .3603363 .37998963 .34332276 .37998963 .34132386 .37998963 .32330323V.117996219Z"/>
<path id="font_1_114" d="M.7029877 .3996582V.43066407C.68099978 .4286499 .6519928 .42765809 .6299896 .42765809L.5369873 .43066407V.3996582C.57299807 .39866639 .59498599 .38075257 .59498599 .35176087 .59498599 .34576417 .59498599 .34376527 .58999636 .33078004L.49899293 .07513428 .3999939 .35375978C.3959961 .36575318 .394989 .36775209 .394989 .37275697 .394989 .3996582 .43399049 .3996582 .45399476 .3996582V.43066407L.34999085 .42765809C.31999208 .42765809 .29100038 .4286499 .26098634 .43066407V.3996582C.2979889 .3996582 .31399537 .39767457 .32398988 .38476563 .32899476 .37875367 .33999635 .34877015 .34700013 .3297882L.26098634 .08811951 .1659851 .3547516C.16099549 .36676026 .16099549 .36875917 .16099549 .37275697 .16099549 .3996582 .19999695 .3996582 .21998596 .3996582V.43066407L.11099243 .42765809 .017990113 .43066407V.3996582C.067993167 .3996582 .07998657 .39668275 .09199524 .36476136L.21798706 .01121521C.22299195-.0027618409 .22599793-.0107421879 .23899842-.0107421879 .2519989-.0107421879 .2539978-.004760742 .25898744 .009216309L.3600006 .2918396 .46199037 .008224487C.46598817-.0027618409 .46899415-.0107421879 .48199464-.0107421879 .49499513-.0107421879 .49798585-.0017547608 .5019989 .008224487L.61898806 .3357849C.6369934 .38575746 .66799929 .39866639 .7029877 .3996582Z"/>
<path id="font_1_66" d="M.24699402 0V.0309906C.18099976 .0309906 .1769867 .035995485 .1769867 .075042728V.4423828L.036987306 .43066407V.3996582C.101989749 .3996582 .11099243 .3936615 .11099243 .3447113V.07595825C.11099243 .0309906 .099990848 .0309906 .032989503 .0309906V0L.14299011 .0029907227C.17799378 .0029907227 .21299744 .0009918213 .24699402 0M.19198609 .603775C.19198609 .6307678 .16899109 .6567688 .13899231 .6567688 .10499573 .6567688 .084991458 .6287689 .084991458 .603775 .084991458 .57676699 .10798645 .55078127 .13798523 .55078127 .17199707 .55078127 .19198609 .5787811 .19198609 .603775Z"/>
<path id="font_1_77" d="M.5349884 0V.0309906C.48298646 .0309906 .45799256 .0309906 .45700074 .061019899V.25221253C.45700074 .3383026 .45700074 .36932374 .42599488 .405365 .4119873 .42237855 .3789978 .4423828 .32099916 .4423828 .24798584 .4423828 .20098877 .39935304 .17298889 .33729554V.4423828L.03199768 .43066407V.3996582C.101989749 .3996582 .10998535 .39266969 .10998535 .34370423V.07595825C.10998535 .0309906 .09899902 .0309906 .03199768 .0309906V0L.14498902 .0029907227 .25698854 0V.0309906C.18998719 .0309906 .1789856 .0309906 .1789856 .07595825V.25978089C.1789856 .36431886 .25 .42037965 .31399537 .42037965 .3769989 .42037965 .3880005 .36631776 .3880005 .30926515V.076034549C.3880005 .0309906 .3769989 .0309906 .30999757 .0309906V0L.4229889 .0029907227 .5349884 0Z"/>
<path id="font_1_27" d="M.71699526 0V.0309906H.69898989C.6389923 .0309906 .625 .037979127 .6139984 .07095337L.397995 .6958008C.3929901 .7088165 .3909912 .7158203 .375 .7158203 .35899354 .7158203 .35598756 .70980837 .35099793 .6958008L.14399719 .09791565C.12599182 .04698181 .085998538 .03199768 .03199768 .0309906V0L.13398743 .0029907227 .24899292 0V.0309906C.19898987 .0309906 .17399597 .05596924 .17399597 .0819397 .17399597 .08493042 .1749878 .09492493 .17599488 .09692383L.22200012 .2277832H.46899415L.5219879 .07495117C.522995 .07095337 .5249939 .064956668 .5249939 .060958864 .5249939 .0309906 .46899415 .0309906 .44198609 .0309906V0C.47799684 .0029907227 .5479889 .0029907227 .58599856 .0029907227L.71699526 0M.45799256 .25878907H.23298645L.34498597 .58380129 .45799256 .25878907Z"/>
<path id="font_1_84" d="M.5209961 .21636963C.5209961 .34336854 .42399598 .4423828 .31199647 .4423828 .23399353 .4423828 .19198609 .39837647 .17199707 .3763733V.4423828L.027999878 .43066407V.3996582C.09899902 .3996582 .10598755 .3936615 .10598755 .34973146V-.117996219C.10598755-.16308594 .09498596-.16308594 .027999878-.16308594V-.1940918L.13999939-.19110108 .25299073-.1940918V-.16308594C.18598938-.16308594 .1749878-.16308594 .1749878-.117996219V.050186159 .059173585C.17999268 .04319763 .22200012-.0107421879 .2979889-.0107421879 .4169922-.0107421879 .5209961 .087127689 .5209961 .21594239V.21636963M.43798829 .21594239C.43798829 .09512329 .36799623 .011245728 .2939911 .011245728 .2539978 .011245728 .21598816 .031219483 .18899536 .07215881 .1749878 .09312439 .1749878 .09411621 .1749878 .114089969V.33674623C.20399475 .38838197 .25299073 .41737367 .3039856 .41737367 .3769989 .41737367 .43798829 .32937623 .43798829 .21636963V.21594239Z"/>
<path id="font_1_96" d="M.3639984 .38137818C.3639984 .41337586 .33299256 .4423828 .2899933 .4423828 .21699524 .4423828 .18099976 .37538148 .16699219 .3323822V.4423828L.027999878 .43066407V.3996582C.09799194 .3996582 .10598755 .39266969 .10598755 .34370423V.07595825C.10598755 .0309906 .09498596 .0309906 .027999878 .0309906V0L.14199829 .0029907227C.18199158 .0029907227 .22898865 .0029907227 .2689972 0V.0309906H.24798584C.17399597 .0309906 .17199707 .04197693 .17199707 .07795715V.23181153C.17199707 .33137513 .21398926 .42037965 .2899933 .42037965 .29699708 .42037965 .29899598 .42037965 .30099488 .41937257 .2979889 .41838075 .27799989 .40637208 .27799989 .3803711 .27799989 .35237123 .29899598 .33737184 .32099916 .33737184 .33898927 .33737184 .3639984 .3493805 .3639984 .38137818Z"/>
<path id="font_1_105" d="M.33198548 .12385559V.18066406H.30699159V.12585449C.30699159 .052108766 .2769928 .014251709 .23999024 .014251709 .17298889 .014251709 .17298889 .10491943 .17298889 .12187195V.3996582H.31599427V.43066407H.17298889V.6142578H.147995C.14698792 .5324249 .116989139 .42565919 .018997193 .42166139V.3996582H.10398865V.12408447C.10398865 .0012512207 .19699097-.0107421879 .23298645-.0107421879 .3039856-.0107421879 .33198548 .060180665 .33198548 .12408447V.12385559Z"/>
<path id="font_1_113" d="M1.0089874 .6516113V.6826172C.97898867 .680603 .94799807 .6796112 .91799929 .6796112L.798996 .6826172V.6516113C.8659973 .65060427 .8860016 .6174164 .8860016 .5983734 .8860016 .59236147 .8829956 .58436587 .8809967 .57836917L.73098757 .116363529 .57099917 .606369C.56999209 .6103668 .56799319 .6164093 .56799319 .62142947 .56799319 .6516113 .6259918 .6516113 .6519928 .6516113V.6826172C.6159973 .6796112 .5479889 .6796112 .5099945 .6796112L.3880005 .6826172V.6516113C.44499208 .6516113 .46598817 .6516113 .47799684 .61595156L.5 .5459595 .36099244 .11695862 .19999695 .60894778C.19898987 .61195376 .19799805 .618927 .19799805 .62190249 .19799805 .6516113 .2559967 .6516113 .28199769 .6516113V.6826172C.24598694 .6796112 .17799378 .6796112 .13999939 .6796112L.017990113 .6826172V.6516113C.09298706 .6513672 .09700012 .6463623 .10899353 .609375L.30899049-.003479004C.31199647-.012466431 .31498719-.022460938 .32798768-.022460938 .34199525-.022460938 .34399415-.015472412 .34799195-.0024719239L.5130005 .50538638 .67900088-.003479004C.6819916-.012466431 .68499758-.022460938 .69799807-.022460938 .71199038-.022460938 .71398928-.015472412 .71798709-.0024719239L.9089966 .58496096C.9269867 .6417084 .9700012 .6516113 1.0089874 .6516113Z"/>
<path id="font_1_104" d="M.68499758 .45214845 .66600039 .6767578H.054992677L.035995485 .45214845H.06098938C.07499695 .6128235 .08999634 .64575198 .24099732 .64575198 .25898744 .64575198 .2849884 .64575198 .29499818 .64375308 .31599427 .6397705 .31599427 .6287842 .31599427 .60583499V.07901001C.31599427 .04499817 .31599427 .0309906 .21099854 .0309906H.17098999V0C.21199036 .0029907227 .31399537 .0029907227 .3600006 .0029907227 .4059906 .0029907227 .5089874 .0029907227 .5499878 0V.0309906H.5099945C.40499879 .0309906 .40499879 .04499817 .40499879 .07901001V.60583499C.40499879 .62579348 .40499879 .6397705 .4229889 .64375308 .43399049 .64575198 .46099855 .64575198 .47999574 .64575198 .6309967 .64575198 .6459961 .6128235 .6599884 .45214845H.68499758Z"/>
<path id="font_1_109" d="M.5349884 0V.0309906C.46499635 .0309906 .45700074 .037994386 .45700074 .08705139V.4423828L.30999757 .43066407V.3996582C.37998963 .3996582 .3880005 .39266969 .3880005 .34373475V.16601563C.3880005 .07910156 .33999635 .011245728 .2669983 .011245728 .18299866 .011245728 .1789856 .058135988 .1789856 .11009216V.4423828L.03199768 .43066407V.3996582C.10998535 .3996582 .10998535 .39666749 .10998535 .3078003V.15802002C.10998535 .080093387 .10998535-.0107421879 .2619934-.0107421879 .31799317-.0107421879 .3619995 .017242432 .3909912 .07910156V-.0107421879L.5349884 0Z"/>
</defs>
<path transform="matrix(1.00003,0,0,-1.00006,155.63315,131.60594)" stroke-width="1.99255" stroke-linecap="butt" stroke-miterlimit="10" stroke-linejoin="miter" fill="none" stroke="#0000ff" d="M0 56.69275V4.38364"/>
<path transform="matrix(0,1.00006,1.00003,0,155.63315,127.22204)" d="M4.38364 0-2.63017 3.50691 0 0-2.63017-3.50691" fill="#0000ff"/>
<use data-text="H" xlink:href="#font_1_62" transform="matrix(9.962899,0,0,-9.963197,159.95029,106.660449)" fill="#0000ff"/>
<use data-text="e" xlink:href="#font_1_50" transform="matrix(9.962899,0,0,-9.963197,167.42246,106.660449)" fill="#0000ff"/>
<use data-text="a" xlink:href="#font_1_28" transform="matrix(9.962899,0,0,-9.963197,171.84598,106.660449)" fill="#0000ff"/>
<use data-text="d" xlink:href="#font_1_47" transform="matrix(9.962899,0,0,-9.963197,176.82743,106.660449)" fill="#0000ff"/>
<use data-text="w" xlink:href="#font_1_114" transform="matrix(9.962899,0,0,-9.963197,182.36679,106.660449)" fill="#0000ff"/>
<use data-text="i" xlink:href="#font_1_66" transform="matrix(9.962899,0,0,-9.963197,189.56,106.660449)" fill="#0000ff"/>
<use data-text="n" xlink:href="#font_1_77" transform="matrix(9.962899,0,0,-9.963197,192.32968,106.660449)" fill="#0000ff"/>
<use data-text="d" xlink:href="#font_1_47" transform="matrix(9.962899,0,0,-9.963197,197.86905,106.660449)" fill="#0000ff"/>
<path transform="matrix(1.00003,0,0,-1.00006,155.63315,131.60594)" stroke-width="1.99255" stroke-linecap="butt" stroke-miterlimit="10" stroke-linejoin="miter" fill="none" stroke="#0000ff" d="M-153.73755 129.00334-3.35796 2.81769"/>
<path transform="matrix(.766043,.64281859,.6427993,-.76606598,152.27509,128.78809)" d="M4.38364 0-2.63017 3.50691 0 0-2.63017-3.50691" fill="#0000ff"/>
<use data-text="A" xlink:href="#font_1_27" transform="matrix(9.962899,0,0,-9.963197,6.0386507,78.55176)" fill="#0000ff"/>
<use data-text="p" xlink:href="#font_1_84" transform="matrix(9.962899,0,0,-9.963197,13.510834,78.55176)" fill="#0000ff"/>
<use data-text="p" xlink:href="#font_1_84" transform="matrix(9.962899,0,0,-9.963197,19.050187,78.55176)" fill="#0000ff"/>
<use data-text="a" xlink:href="#font_1_28" transform="matrix(9.962899,0,0,-9.963197,24.58957,78.55176)" fill="#0000ff"/>
<use data-text="r" xlink:href="#font_1_96" transform="matrix(9.962899,0,0,-9.963197,29.571015,78.55176)" fill="#0000ff"/>
<use data-text="e" xlink:href="#font_1_50" transform="matrix(9.962899,0,0,-9.963197,33.47647,78.55176)" fill="#0000ff"/>
<use data-text="n" xlink:href="#font_1_77" transform="matrix(9.962899,0,0,-9.963197,37.899995,78.55176)" fill="#0000ff"/>
<use data-text="t" xlink:href="#font_1_105" transform="matrix(9.962899,0,0,-9.963197,43.17038,78.55176)" fill="#0000ff"/>
<use data-text="W" xlink:href="#font_1_113" transform="matrix(9.962899,0,0,-9.963197,50.35367,78.55176)" fill="#0000ff"/>
<use data-text="i" xlink:href="#font_1_66" transform="matrix(9.962899,0,0,-9.963197,60.59552,78.55176)" fill="#0000ff"/>
<use data-text="n" xlink:href="#font_1_77" transform="matrix(9.962899,0,0,-9.963197,63.365175,78.55176)" fill="#0000ff"/>
<use data-text="d" xlink:href="#font_1_47" transform="matrix(9.962899,0,0,-9.963197,68.90457,78.55176)" fill="#0000ff"/>
<path transform="matrix(1.00003,0,0,-1.00006,155.63315,131.60594)" stroke-width="1.99255" stroke-linecap="butt" stroke-miterlimit="10" stroke-linejoin="miter" fill="none" stroke="#0000ff" d="M-153.73755 129.00334-3.96664 58.55841"/>
<path transform="matrix(.90490719,.4256255,.42561279,-.9049342,151.66638,73.04402)" d="M4.38364 0-2.63017 3.50691 0 0-2.63017-3.50691" fill="#0000ff"/>
<use data-text="T" xlink:href="#font_1_104" transform="matrix(9.962899,0,0,-9.963197,83.078968,34.216104)" fill="#0000ff"/>
<use data-text="r" xlink:href="#font_1_96" transform="matrix(9.962899,0,0,-9.963197,89.4552,34.216104)" fill="#0000ff"/>
<use data-text="u" xlink:href="#font_1_109" transform="matrix(9.962899,0,0,-9.963197,93.36066,34.216104)" fill="#0000ff"/>
<use data-text="e" xlink:href="#font_1_50" transform="matrix(9.962899,0,0,-9.963197,98.900028,34.216104)" fill="#0000ff"/>
<use data-text="W" xlink:href="#font_1_113" transform="matrix(9.962899,0,0,-9.963197,106.631229,34.216104)" fill="#0000ff"/>
<use data-text="i" xlink:href="#font_1_66" transform="matrix(9.962899,0,0,-9.963197,116.87308,34.216104)" fill="#0000ff"/>
<use data-text="n" xlink:href="#font_1_77" transform="matrix(9.962899,0,0,-9.963197,119.64276,34.216104)" fill="#0000ff"/>
<use data-text="d" xlink:href="#font_1_47" transform="matrix(9.962899,0,0,-9.963197,125.18213,34.216104)" fill="#0000ff"/>
<path transform="matrix(1.00003,0,0,-1.00006,155.63315,131.60594)" stroke-width=".3985" stroke-linecap="butt" stroke-miterlimit="10" stroke-linejoin="miter" fill="none" stroke="#000000" d=""/>
<path transform="matrix(1.00003,0,0,-1.00006,155.63315,131.60594)" d="M-4.88939-25.51108-6.59013-17.00737V17.00737L-4.88939 25.51108-3.18866 17.00737V-17.00737Z" fill="#993300" fill-opacity=".1"/>
<path transform="matrix(1.00003,0,0,-1.00006,155.63315,131.60594)" d="M4.88939-25.51108 6.59013-17.00737V17.00737L4.88939 25.51108 3.18866 17.00737V-17.00737Z" fill="#993300" fill-opacity=".1"/>
<path transform="matrix(1.00003,0,0,-1.00006,155.63315,131.60594)" d="M-3.18866-17.00737H3.18866V12.75554H-3.18866Z" fill="#993300" fill-opacity=".04"/>
<path transform="matrix(1.00003,0,0,-1.00006,155.63315,131.60594)" d="M-1.06273 12.75554H1.06273V19.13332H-1.06273Z" fill="#993300" fill-opacity=".1"/>
<path transform="matrix(1.00003,0,0,-1.00006,155.63315,131.60594)" stroke-width=".3985" stroke-linecap="butt" stroke-miterlimit="10" stroke-linejoin="miter" fill="none" stroke="#993300" d="M-4.88939 25.51108-6.59013 17.00737"/>
<path transform="matrix(1.00003,0,0,-1.00006,155.63315,131.60594)" stroke-width=".3985" stroke-linecap="butt" stroke-miterlimit="10" stroke-linejoin="miter" fill="none" stroke="#993300" d="M-6.59013 17.00737V-17.00737"/>
<path transform="matrix(1.00003,0,0,-1.00006,155.63315,131.60594)" stroke-width=".3985" stroke-linecap="butt" stroke-miterlimit="10" stroke-linejoin="miter" fill="none" stroke="#993300" d="M-6.59013-17.00737-4.88939-25.51108"/>
<path transform="matrix(1.00003,0,0,-1.00006,155.63315,131.60594)" stroke-width=".3985" stroke-linecap="butt" stroke-miterlimit="10" stroke-linejoin="miter" fill="none" stroke="#993300" d="M-4.88939-25.51108-3.18866-17.00737"/>
<path transform="matrix(1.00003,0,0,-1.00006,155.63315,131.60594)" stroke-width=".3985" stroke-linecap="butt" stroke-miterlimit="10" stroke-linejoin="miter" fill="none" stroke="#993300" d="M-3.18866-17.00737V17.00737"/>
<path transform="matrix(1.00003,0,0,-1.00006,155.63315,131.60594)" stroke-width=".3985" stroke-linecap="butt" stroke-miterlimit="10" stroke-linejoin="miter" fill="none" stroke="#993300" d="M-3.18866 17.00737-4.88939 25.51108"/>
<path transform="matrix(1.00003,0,0,-1.00006,155.63315,131.60594)" stroke-width=".3985" stroke-linecap="butt" stroke-miterlimit="10" stroke-linejoin="miter" fill="none" stroke="#993300" d="M4.88939 25.51108 6.59013 17.00737"/>
<path transform="matrix(1.00003,0,0,-1.00006,155.63315,131.60594)" stroke-width=".3985" stroke-linecap="butt" stroke-miterlimit="10" stroke-linejoin="miter" fill="none" stroke="#993300" d="M6.59013 17.00737V-17.00737"/>
<path transform="matrix(1.00003,0,0,-1.00006,155.63315,131.60594)" stroke-width=".3985" stroke-linecap="butt" stroke-miterlimit="10" stroke-linejoin="miter" fill="none" stroke="#993300" d="M6.59013-17.00737 4.88939-25.51108"/>
<path transform="matrix(1.00003,0,0,-1.00006,155.63315,131.60594)" stroke-width=".3985" stroke-linecap="butt" stroke-miterlimit="10" stroke-linejoin="miter" fill="none" stroke="#993300" d="M4.88939-25.51108 3.18866-17.00737"/>
<path transform="matrix(1.00003,0,0,-1.00006,155.63315,131.60594)" stroke-width=".3985" stroke-linecap="butt" stroke-miterlimit="10" stroke-linejoin="miter" fill="none" stroke="#993300" d="M3.18866-17.00737V17.00737"/>
<path transform="matrix(1.00003,0,0,-1.00006,155.63315,131.60594)" stroke-width=".3985" stroke-linecap="butt" stroke-miterlimit="10" stroke-linejoin="miter" fill="none" stroke="#993300" d="M3.18866 17.00737 4.88939 25.51108"/>
<path transform="matrix(1.00003,0,0,-1.00006,155.63315,131.60594)" stroke-width=".3985" stroke-linecap="butt" stroke-miterlimit="10" stroke-linejoin="miter" fill="none" stroke="#993300" d="M-3.18866-17.00737H3.18866"/>
<path transform="matrix(1.00003,0,0,-1.00006,155.63315,131.60594)" stroke-width=".3985" stroke-linecap="butt" stroke-miterlimit="10" stroke-linejoin="miter" fill="none" stroke="#993300" d="M3.18866-17.00737V12.75554"/>
<path transform="matrix(1.00003,0,0,-1.00006,155.63315,131.60594)" stroke-width=".3985" stroke-linecap="butt" stroke-miterlimit="10" stroke-linejoin="miter" fill="none" stroke="#993300" d="M3.18866 12.75554H-3.18866"/>
<path transform="matrix(1.00003,0,0,-1.00006,155.63315,131.60594)" stroke-width=".3985" stroke-linecap="butt" stroke-miterlimit="10" stroke-linejoin="miter" fill="none" stroke="#993300" d="M-3.18866 12.75554V-17.00737"/>
<path transform="matrix(1.00003,0,0,-1.00006,155.63315,131.60594)" stroke-width=".3985" stroke-linecap="butt" stroke-miterlimit="10" stroke-linejoin="miter" fill="none" stroke="#993300" d="M-1.06273 12.75554H1.06273"/>
<path transform="matrix(1.00003,0,0,-1.00006,155.63315,131.60594)" stroke-width=".3985" stroke-linecap="butt" stroke-miterlimit="10" stroke-linejoin="miter" fill="none" stroke="#993300" d="M1.06273 12.75554V19.13332"/>
<path transform="matrix(1.00003,0,0,-1.00006,155.63315,131.60594)" stroke-width=".3985" stroke-linecap="butt" stroke-miterlimit="10" stroke-linejoin="miter" fill="none" stroke="#993300" d="M1.06273 19.13332H-1.06273"/>
<path transform="matrix(1.00003,0,0,-1.00006,155.63315,131.60594)" stroke-width=".3985" stroke-linecap="butt" stroke-miterlimit="10" stroke-linejoin="miter" fill="none" stroke="#993300" d="M-1.06273 19.13332V12.75554"/>
<path transform="matrix(1.00003,0,0,-1.00006,155.63315,131.60594)" stroke-width=".3985" stroke-linecap="butt" stroke-miterlimit="10" stroke-linejoin="miter" fill="none" stroke="#993300" d="M-3.18866 17.00737H3.18866"/>
<path transform="matrix(1.00003,0,0,-1.00006,155.63315,131.60594)" stroke-width=".3985" stroke-linecap="butt" stroke-miterlimit="10" stroke-linejoin="miter" fill="none" stroke="#993300" d="M.73616 4.25183C.73616 4.65842 .40657 4.988 0 4.988-.40657 4.988-.73616 4.65842-.73616 4.25183-.73616 3.84526-.40657 3.51566 0 3.51566 .40657 3.51566 .73616 3.84526 .73616 4.25183ZM0 4.25183"/>
</svg>
