<svg xmlns="http://www.w3.org/2000/svg" xmlns:xlink="http://www.w3.org/1999/xlink" xmlns:inkscape="http://www.inkscape.org/namespaces/inkscape" version="1.1" width="202" height="164" viewBox="0 0 202 164">
<defs>
<path id="font_1_1" d="M.6589966 .23046875C.6759949 .23046875 .69400027 .23046875 .69400027 .25045777 .69400027 .27046205 .6759949 .27046205 .6589966 .27046205H.117996219C.100997928 .27046205 .08299255 .27046205 .08299255 .25045777 .08299255 .23046875 .100997928 .23046875 .117996219 .23046875H.6589966Z"/>
<path id="font_2_1" d="M.2649994 .37265016H.37799073C.34498597 .22489929 .33599855 .18196106 .33599855 .11508179 .33599855 .100097659 .33599855 .073150638 .34399415 .03919983 .35398866-.0047454836 .36499024-.0107421879 .37998963-.0107421879 .3999939-.0107421879 .42099 .007247925 .42099 .02722168 .42099 .033218385 .42099 .035202028 .4149933 .049179079 .38598634 .12106323 .38598634 .18595886 .38598634 .21391297 .38598634 .26683045 .3929901 .32073976 .4039917 .37265016H.5179901C.5309906 .37265016 .5669861 .37265016 .5669861 .406662 .5669861 .43066407 .54599 .43066407 .5269928 .43066407H.19198609C.16999817 .43066407 .13198853 .43066407 .08799744 .38365174 .052993776 .34469605 .026992798 .29878236 .026992798 .29379273 .026992798 .29278565 .026992798 .28379823 .038986207 .28379823 .04699707 .28379823 .04899597 .28779603 .054992677 .29577638 .10398865 .37265016 .1619873 .37265016 .18199158 .37265016H.23899842C.20698548 .25186158 .15299988 .13105774 .11099243 .04020691 .102996829 .025222779 .102996829 .023223877 .102996829 .016235352 .102996829-.002746582 .11898804-.0107421879 .13198853-.0107421879 .1619873-.0107421879 .16999817 .017242432 .18199158 .05418396 .19599915 .100097659 .19599915 .10209656 .20899964 .15202332L.2649994 .37265016Z"/>
<path id="font_3_1" d="M.31098939 .36265565H.42999269C.4149933 .30274964 .3929901 .2118988 .3929901 .13302613 .3929901 .09309387 .397995 .06613159 .4039917 .044174196 .41999818-.0057678224 .43299867-.009765625 .44898988-.009765625 .47200013-.009765625 .49598695 .011230469 .49598695 .035186769 .49598695 .043182374 .49398805 .047164918 .48799134 .057159425 .46899415 .09408569 .45098878 .15100098 .45098878 .23286438 .45098878 .25183106 .45098878 .29177857 .46499635 .36265565H.58999636C.60798647 .36265565 .6159973 .36265565 .6269989 .37065126 .6409912 .380661 .6439972 .39665223 .6439972 .4016571 .6439972 .43066407 .6179962 .43066407 .6009979 .43066407H.22399903C.18299866 .43066407 .15499878 .42166139 .10998535 .37965394 .083999637 .35665895 .04499817 .30274964 .04499817 .2937622 .04499817 .28178407 .057998659 .28178407 .06199646 .28178407 .07299805 .28178407 .07398987 .28378297 .07998657 .2927704 .1309967 .36265565 .19299317 .36265565 .21499634 .36265565H.27598573C.24499512 .25283814 .19099427 .13502503 .16099549 .07511902 .15499878 .062149049 .14498902 .04118347 .14199829 .03718567 .14099121 .033187868 .13899231 .029190064 .13899231 .022201539 .13899231 .006225586 .15098572-.009765625 .17399597-.009765625 .21398926-.009765625 .22499085 .035186769 .24899292 .12504578L.31098939 .36265565Z"/>
<path id="font_4_1" d="M.5049896 .18203736H.47099305C.46798707 .16001892 .45799256 .100997928 .44499208 .09098816 .43699647 .084991458 .3600006 .084991458 .34599305 .084991458H.1619873C.2669983 .17803955 .3019867 .20603943 .3619995 .25306703 .43598939 .312088 .5049896 .374115 .5049896 .46914674 .5049896 .5900879 .39898683 .6640625 .2709961 .6640625 .14698792 .6640625 .06298828 .57710269 .06298828 .4851532 .06298828 .43414308 .10598755 .42915345 .115997318 .42915345 .13999939 .42915345 .16899109 .44615174 .16899109 .48214723 .16899109 .5001526 .1619873 .53515627 .10998535 .53515627 .14099121 .6060791 .20899964 .62805178 .2559967 .62805178 .35598756 .62805178 .4079895 .5501404 .4079895 .46914674 .4079895 .38212586 .34599305 .3130951 .31399537 .27708436L.07299805 .038986207C.06298828 .02999878 .06298828 .027999878 .06298828 0H.47499085L.5049896 .18203736Z"/>
<path id="font_4_2" d="M.272995 .33428956C.35099793 .33428956 .40699769 .2803192 .40699769 .1733551 .40699769 .04940796 .33499146 .012466431 .2769928 .012466431 .23699951 .012466431 .14898682 .0234375 .10699463 .082351688 .1539917 .084350589 .16499329 .11735535 .16499329 .13835144 .16499329 .17034912 .14099121 .19335938 .10998535 .19335938 .08198547 .19335938 .053985597 .17634583 .053985597 .13534546 .053985597 .041412355 .1579895-.01953125 .2789917-.01953125 .41799928-.01953125 .5139923 .07336426 .5139923 .1733551 .5139923 .2513275 .44999696 .32929994 .33999635 .35229493 .44499208 .39024354 .48298646 .4650879 .48298646 .5260773 .48298646 .60505679 .3919983 .6640625 .2809906 .6640625 .16999817 .6640625 .084991458 .61006167 .084991458 .5300751 .084991458 .49606324 .10699463 .47706605 .13699341 .47706605 .16799927 .47706605 .18798828 .5000763 .18798828 .5280762 .18798828 .5570679 .16799927 .57806399 .13699341 .5800781 .17199707 .62405398 .24099732 .63505557 .27799989 .63505557 .32299806 .63505557 .38598634 .6130676 .38598634 .5260773 .38598634 .48406983 .37199403 .43814088 .34599305 .4072113 .31298829 .36927796 .2849884 .3672943 .23498535 .36428834 .20999146 .3623047 .20799256 .3623047 .20298767 .3612976 .20098877 .3612976 .19299317 .3592987 .19299317 .34829713 .19299317 .33428956 .20199585 .33428956 .21899414 .33428956H.272995Z"/>
<path id="font_5_2" d="M.1269989 .07699585 .23298645 .18003845C.3889923 .31811524 .44898988 .3721466 .44898988 .47216798 .44898988 .5860901 .35899354 .6660156 .23699951 .6660156 .12399292 .6660156 .049987794 .57411196 .049987794 .48516847 .049987794 .4291687 .099990848 .4291687 .102996829 .4291687 .11999512 .4291687 .15499878 .44117738 .15499878 .48217774 .15499878 .5081787 .13699341 .5341797 .101989749 .5341797 .09399414 .5341797 .09199524 .5341797 .08898926 .5331726 .11199951 .59806826 .1659851 .63500979 .22399903 .63500979 .31498719 .63500979 .35798646 .5541382 .35798646 .47216798 .35798646 .39215089 .30799867 .31311036 .25299073 .25108338L.06098938 .036987306C.049987794 .025985718 .049987794 .023986817 .049987794 0H.42099L.44898988 .17404175H.42399598C.4189911 .14402771 .4119873 .1000061 .4019928 .084991458 .394989 .07699585 .32899476 .07699585 .30699159 .07699585H.1269989Z"/>
<path id="font_4_3" d="M.15499878 .5588074C.20599365 .5458069 .23599243 .5458069 .2519989 .5458069 .38398744 .5458069 .46199037 .6358032 .46199037 .6508026 .46199037 .6618042 .45498658 .6648102 .44999696 .6648102 .44799806 .6648102 .44599916 .6648102 .44198609 .6618042 .41799928 .6528015 .36499024 .6328125 .29100038 .6328125 .2630005 .6328125 .20999146 .6348114 .14498902 .6598053 .1349945 .6648102 .1329956 .6648102 .13198853 .6648102 .11898804 .6648102 .11898804 .6538086 .11898804 .6378021V.34251405C.11898804 .32548524 .11898804 .3134613 .1349945 .3134613 .14399719 .3134613 .14498902 .3154602 .15499878 .32748414 .19799805 .38259889 .25898744 .390625 .2939911 .390625 .35398866 .390625 .3809967 .34251405 .38598634 .33450318 .4039917 .30143739 .4099884 .26335145 .4099884 .20524597 .4099884 .17524719 .4099884 .116256717 .37998963 .07234192 .35499574 .03640747 .31199647 .012466431 .2630005 .012466431 .19799805 .012466431 .1309967 .04838562 .10598755 .11425781 .14399719 .11125183 .16299439 .13624573 .16299439 .16325379 .16299439 .20625305 .12599182 .21424866 .11299133 .21424866 .11099243 .21424866 .06298828 .21424866 .06298828 .1602478 .06298828 .07034302 .14498902-.01953125 .2649994-.01953125 .3929901-.01953125 .5049896 .07533264 .5049896 .20124817 .5049896 .31445313 .4189911 .41862489 .29499818 .41862489 .25099183 .41862489 .19898987 .4076233 .15499878 .36956788V.5588074Z"/>
<path id="font_5_3" d="M.2899933 .35191346C.37199403 .37893678 .42999269 .4490509 .42999269 .52809146 .42999269 .6100464 .34199525 .6660156 .24598694 .6660156 .14498902 .6660156 .068984989 .60606387 .068984989 .53009036 .068984989 .49710084 .09098816 .47808839 .11999512 .47808839 .15098572 .47808839 .17098999 .50009158 .17098999 .5290985 .17098999 .57910159 .12399292 .57910159 .10899353 .57910159 .13999939 .62802127 .20599365 .64100649 .24198914 .64100649 .2829895 .64100649 .33799745 .6190338 .33799745 .5290985 .33799745 .51708987 .33599855 .45906068 .30999757 .4149933 .27999879 .36691285 .24598694 .36390687 .22099304 .36291505 .21299744 .36190797 .18899536 .35990907 .18199158 .35990907 .17399597 .35890199 .16699219 .35791017 .16699219 .3479004 .16699219 .33691407 .17399597 .33691407 .19099427 .33691407H.23498535C.31698609 .33691407 .35398866 .2686615 .35398866 .17037964 .35398866 .034469606 .2849884 .0055389406 .24099732 .0055389406 .19799805 .0055389406 .12298584 .022491456 .08799744 .08137512 .12298584 .07637024 .1539917 .09837341 .1539917 .1363678 .1539917 .17237854 .1269989 .19238281 .09799194 .19238281 .07398987 .19238281 .041992189 .17837525 .041992189 .1343689 .041992189 .043441774 .1349945-.022460938 .24398804-.022460938 .3659973-.022460938 .45700074 .06838989 .45700074 .17037964 .45700074 .252594 .3939972 .33088685 .2899933 .35191346Z"/>
<path id="font_5_1" d="M.2939911 .64004519C.2939911 .66400149 .2939911 .6660156 .2709961 .6660156 .20899964 .60227969 .12098694 .60227969 .08898926 .60227969V.57128909C.10899353 .57128909 .16799927 .57128909 .21998596 .5972748V.07902527C.21998596 .042999269 .21699524 .0309906 .1269989 .0309906H.09498596V0C.12998963 .0029907227 .21699524 .0029907227 .25698854 .0029907227 .29699708 .0029907227 .38398744 .0029907227 .4189911 0V.0309906H.3869934C.29699708 .0309906 .2939911 .041992189 .2939911 .07902527V.64004519Z"/>
<path id="font_6_85" d="M.33099366-.2400055C.33099366-.23701477 .33099366-.23500061 .31399537-.21800232 .18899536-.0920105 .15699768 .09700012 .15699768 .25 .15699768 .42399598 .19499207 .59799197 .31799317 .72299197 .33099366 .7350006 .33099366 .7369995 .33099366 .73999026 .33099366 .746994 .32699586 .75 .32099916 .75 .31098939 .75 .22099304 .6819916 .1619873 .5549927 .11099243 .44499208 .09899902 .33399964 .09899902 .25 .09899902 .17199707 .10998535 .050994874 .16499329-.06201172 .22499085-.18501282 .31098939-.25 .32099916-.25 .32699586-.25 .33099366-.24700928 .33099366-.2400055Z"/>
<path id="font_6_34" d="M.651001 .18289185C.651001 .26983644 .56900027 .34480287 .45799256 .35679627 .5549927 .3757782 .6239929 .43974305 .6239929 .51368716 .6239929 .6006317 .5319977 .6826172 .4019928 .6826172H.035995485V.6516113H.05999756C.13699341 .6516113 .13899231 .64060977 .13899231 .6046295V.07795715C.13899231 .041992189 .13699341 .0309906 .05999756 .0309906H.035995485V0H.42799378C.5609894-.0002593994 .651001 .08874512 .651001 .18273926V.18289185M.5269928 .5136719C.5269928 .44970704 .47799684 .36573792 .36698915 .36573792H.22200012V.6116333C.22200012 .64460757 .22399903 .6516113 .2709961 .6516113H.394989C.49198915 .65174868 .5269928 .56674197 .5269928 .51374819V.5136719M.5509949 .18386841C.5509949 .1129303 .49899293 .0309906 .3959961 .0309906H.2709961C.22399903 .0309906 .22200012 .037994386 .22200012 .07095337V.34375H.4099884C.5089874 .34399415 .5509949 .25099183 .5509949 .18399048V.18386841Z"/>
<path id="font_6_86" d="M.2889862 .25C.2889862 .32798768 .27799989 .44898988 .22299195 .56199648 .16299439 .68499758 .07699585 .75 .066986087 .75 .06098938 .75 .056991579 .74598696 .056991579 .73999026 .056991579 .7369995 .056991579 .7350006 .07598877 .71699526 .17399597 .6179962 .23098755 .45899964 .23098755 .25 .23098755 .07899475 .19400025-.09700012 .069992069-.2230072 .056991579-.23500061 .056991579-.23701477 .056991579-.2400055 .056991579-.2460022 .06098938-.25 .066986087-.25 .07699585-.25 .16699219-.18200684 .22599793-.055007936 .2769928 .054992677 .2889862 .16600037 .2889862 .25Z"/>
<path id="font_2_2" d="M.33399964 .30233766C.33999635 .32835389 .36299134 .42037965 .43299867 .42037965 .43798829 .42037965 .46199037 .42037965 .48298646 .40734864 .45498658 .402359 .43499757 .37734986 .43499757 .35334779 .43499757 .33735658 .44599916 .31835938 .47299195 .31835938 .49499513 .31835938 .5269928 .3363495 .5269928 .37635804 .5269928 .42837525 .46798707 .4423828 .43399049 .4423828 .37599183 .4423828 .34098817 .38935853 .32899476 .36634828 .3039856 .43237306 .25 .4423828 .22099304 .4423828 .116989139 .4423828 .05999756 .3133545 .05999756 .28834535 .05999756 .27833558 .069992069 .27833558 .07199097 .27833558 .07998657 .27833558 .08299255 .28033448 .084991458 .28933717 .11898804 .39535523 .18499756 .42037965 .21899414 .42037965 .23799134 .42037965 .272995 .4113617 .272995 .35334779 .272995 .32235719 .2559967 .25532533 .21899414 .11528015 .20298767 .053268434 .16799927 .011245728 .12399292 .011245728 .117996219 .011245728 .09498596 .011245728 .07398987 .024276734 .09899902 .029266358 .12098694 .05027771 .12098694 .07827759 .12098694 .105270389 .09899902 .11328125 .083999637 .11328125 .053985597 .11328125 .0289917 .08728027 .0289917 .055267335 .0289917 .009246826 .07899475-.0107421879 .12298584-.0107421879 .18899536-.0107421879 .22499085 .059280397 .22799683 .0652771 .23999024 .028274537 .27598573-.0107421879 .33599855-.0107421879 .43899537-.0107421879 .49598695 .118270877 .49598695 .14328003 .49598695 .1532898 .4869995 .1532898 .48399354 .1532898 .47499085 .1532898 .47299195 .14929199 .47099305 .14228821 .43798829 .03527832 .36999513 .011245728 .33799745 .011245728 .29899598 .011245728 .2829895 .043273927 .2829895 .07727051 .2829895 .09927368 .2889862 .121276859 .2999878 .16529846L.33399964 .30233766Z"/>
<path id="font_2_3" d="M.48599244 .38136292C.48999024 .39537049 .48999024 .39736939 .48999024 .40437318 .48999024 .42237855 .47599793 .43138124 .46099855 .43138124 .45098878 .43138124 .43499757 .42536927 .42599488 .41036988 .42399598 .405365 .41600038 .37435914 .4119873 .35635377 .40499879 .33035279 .397995 .30334474 .3919983 .27633668L.34700013 .09628296C.34298707 .08126831 .2999878 .011245728 .23399353 .011245728 .18299866 .011245728 .17199707 .055267335 .17199707 .0922699 .17199707 .1382904 .18899536 .20030213 .22299195 .28833009 .23899842 .3293457 .24299622 .3403473 .24299622 .36035157 .24299622 .405365 .21099854 .4423828 .16099549 .4423828 .06599426 .4423828 .0289917 .29733277 .0289917 .28833009 .0289917 .27833558 .038986207 .27833558 .040985109 .27833558 .050994874 .27833558 .051986696 .28033448 .056991579 .29634095 .083999637 .3903656 .12399292 .42037965 .1579895 .42037965 .1659851 .42037965 .18299866 .42037965 .18299866 .3883667 .18299866 .36335755 .17298889 .3373413 .1659851 .31834413 .12599182 .21231079 .10798645 .1552887 .10798645 .10827637 .10798645 .019256592 .17098999-.0107421879 .22999573-.0107421879 .2689972-.0107421879 .30299378 .0062561037 .33099366 .03425598 .31799317-.017745972 .30599977-.06674194 .2659912-.11973572 .23999024-.15385437 .20199585-.18309021 .1559906-.18309021 .14199829-.18309021 .09700012-.18005371 .07998657-.14074707 .09599304-.14074707 .10899353-.14074707 .12298584-.1287384 .1329956-.11973572 .14299011-.10673523 .14299011-.08773804 .14299011-.056747438 .115997318-.052734376 .10598755-.052734376 .08299255-.052734376 .049987794-.068740848 .049987794-.11773682 .049987794-.16796875 .09399414-.20507813 .1559906-.20507813 .25898744-.20507813 .3619995-.11373901 .3899994-.00074768069L.48599244 .38136292Z"/>
</defs>
<path transform="matrix(1.00005,0,0,-1.00008,4.1135027,162.32479)" stroke-width=".19925" stroke-linecap="butt" stroke-miterlimit="10" stroke-linejoin="miter" fill="none" stroke="#7f807f" d="M2.99661 79.27808V82.11295M14.76434 79.27808V82.11295M26.53207 79.27808V82.11295M38.29982 79.27808V82.11295M50.06757 79.27808V82.11295M61.83531 79.27808V82.11295M73.60306 79.27808V82.11295M85.3708 79.27808V82.11295M97.13855 79.27808V82.11295M108.90628 79.27808V82.11295M120.67403 79.27808V82.11295M132.44178 79.27808V82.11295M144.20952 79.27808V82.11295M155.97727 79.27808V82.11295M167.74501 79.27808V82.11295M179.51277 79.27808V82.11295M191.28049 79.27808V82.11295"/>
<path transform="matrix(1.00005,0,0,-1.00008,4.1135027,162.32479)" stroke-width=".19925" stroke-linecap="butt" stroke-miterlimit="10" stroke-linejoin="miter" fill="none" stroke="#7f807f" d="M2.99661 78.56958V82.82144M26.53203 78.56958V82.82144M73.60292 78.56958V82.82144M97.13837 78.56958V82.82144M120.6738 78.56958V82.82144M144.20925 78.56958V82.82144M167.74469 78.56958V82.82144M191.28014 78.56958V82.82144"/>
<path transform="matrix(1.00005,0,0,-1.00008,4.1135027,162.32479)" stroke-width=".19925" stroke-linecap="butt" stroke-miterlimit="10" stroke-linejoin="miter" fill="none" stroke="#7f807f" d="M47.94139 6.20734H52.1932M47.94139 31.03673H52.1932M47.94139 55.86612H52.1932M47.94139 105.5249H52.1932M47.94139 130.3543H52.1932M47.94139 155.18369H52.1932"/>
<path transform="matrix(1.00005,0,0,-1.00008,4.1135027,162.32479)" stroke-width=".3985" stroke-linecap="butt" stroke-miterlimit="10" stroke-linejoin="miter" fill="none" stroke="#000000" d="M0 80.69551H192.2835"/>
<path transform="matrix(1.00005,0,0,-1.00008,196.40659,81.62282)" d="M1.99252 0-1.19551 1.59401 0 0-1.19551-1.59401"/>
<path transform="matrix(1.00005,0,0,-1.00008,4.1135027,162.32479)" stroke-width=".3985" stroke-linecap="butt" stroke-miterlimit="10" stroke-linejoin="miter" fill="none" stroke="#000000" d="M50.06729 0V159.39852"/>
<path transform="matrix(0,-1.00008,-1.00005,-0,54.183298,2.9135133)" d="M1.99252 0-1.19551 1.59401 0 0-1.19551-1.59401"/>
<use data-text="&#x2212;" xlink:href="#font_1_1" transform="matrix(9.963098,0,0,-9.963397,.21730805,93.081249)"/>
<use data-text="&#x03c0;" xlink:href="#font_2_1" transform="matrix(9.963098,0,0,-9.963397,7.9656984,93.081249)"/>
<use data-text="&#x2212;" xlink:href="#font_1_1" transform="matrix(9.963098,0,0,-9.963397,23.122452,94.195339)"/>
<use data-text="&#x03c0;" xlink:href="#font_3_1" transform="matrix(6.9741489,0,0,-6.974358,32.066904,90.27303)"/>
<path transform="matrix(1.00005,0,0,-1.00008,-74.21241,-52.40238)" stroke-width=".3985" stroke-linecap="butt" stroke-miterlimit="10" stroke-linejoin="miter" fill="none" stroke="#000000" d="M106.274-144.096H111.183"/>
<use data-text="2" xlink:href="#font_4_1" transform="matrix(6.9741489,0,0,-6.974358,32.53592,97.631618)"/>
<use data-text="&#x03c0;" xlink:href="#font_3_1" transform="matrix(6.9741489,0,0,-6.974358,75.26506,90.27303)"/>
<path transform="matrix(1.00005,0,0,-1.00008,-23.264863,-52.40238)" stroke-width=".3985" stroke-linecap="butt" stroke-miterlimit="10" stroke-linejoin="miter" fill="none" stroke="#000000" d="M98.525-144.096H103.434"/>
<use data-text="2" xlink:href="#font_4_1" transform="matrix(6.9741489,0,0,-6.974358,75.734088,97.631618)"/>
<use data-text="&#x03c0;" xlink:href="#font_2_1" transform="matrix(9.963098,0,0,-9.963397,98.238208,91.55912)"/>
<use data-text="3" xlink:href="#font_4_2" transform="matrix(6.9741489,0,0,-6.974358,120.35231,91.764148)"/>
<use data-text="&#x03c0;" xlink:href="#font_3_1" transform="matrix(6.9741489,0,0,-6.974358,124.32351,91.764148)"/>
<path transform="matrix(1.00005,0,0,-1.00008,21.822388,-50.91127)" stroke-width=".3985" stroke-linecap="butt" stroke-miterlimit="10" stroke-linejoin="miter" fill="none" stroke="#000000" d="M98.525-144.096H107.406"/>
<use data-text="2" xlink:href="#font_4_1" transform="matrix(6.9741489,0,0,-6.974358,122.807437,99.12273)"/>
<use data-text="2" xlink:href="#font_5_2" transform="matrix(9.963098,0,0,-9.963397,142.82044,93.69029)"/>
<use data-text="&#x03c0;" xlink:href="#font_2_1" transform="matrix(9.963098,0,0,-9.963397,147.80168,93.69029)"/>
<use data-text="5" xlink:href="#font_4_3" transform="matrix(6.9741489,0,0,-6.974358,167.42566,91.764148)"/>
<use data-text="&#x03c0;" xlink:href="#font_3_1" transform="matrix(6.9741489,0,0,-6.974358,171.39685,91.764148)"/>
<path transform="matrix(1.00005,0,0,-1.00008,68.89574,-50.91127)" stroke-width=".3985" stroke-linecap="butt" stroke-miterlimit="10" stroke-linejoin="miter" fill="none" stroke="#000000" d="M98.525-144.096H107.406"/>
<use data-text="2" xlink:href="#font_4_1" transform="matrix(6.9741489,0,0,-6.974358,169.88079,99.12273)"/>
<use data-text="3" xlink:href="#font_5_3" transform="matrix(9.963098,0,0,-9.963397,189.89377,93.69029)"/>
<use data-text="&#x03c0;" xlink:href="#font_2_1" transform="matrix(9.963098,0,0,-9.963397,194.87503,93.69029)"/>
<use data-text="&#x2212;" xlink:href="#font_1_1" transform="matrix(9.963098,0,0,-9.963397,35.806085,158.9125)"/>
<use data-text="3" xlink:href="#font_5_3" transform="matrix(9.963098,0,0,-9.963397,43.554475,158.9125)"/>
<use data-text="&#x2212;" xlink:href="#font_1_1" transform="matrix(9.963098,0,0,-9.963397,35.806085,134.08052)"/>
<use data-text="2" xlink:href="#font_5_2" transform="matrix(9.963098,0,0,-9.963397,43.554475,134.08052)"/>
<use data-text="&#x2212;" xlink:href="#font_1_1" transform="matrix(9.963098,0,0,-9.963397,35.806085,109.24954)"/>
<use data-text="1" xlink:href="#font_5_1" transform="matrix(9.963098,0,0,-9.963397,43.554475,109.24954)"/>
<use data-text="1" xlink:href="#font_5_1" transform="matrix(9.963098,0,0,-9.963397,43.55547,60.001596)"/>
<use data-text="2" xlink:href="#font_5_2" transform="matrix(9.963098,0,0,-9.963397,43.55547,35.170618)"/>
<use data-text="3" xlink:href="#font_5_3" transform="matrix(9.963098,0,0,-9.963397,43.55547,10.339615)"/>
<path transform="matrix(1.00005,0,0,-1.00008,4.1135027,162.32479)" stroke-width=".99628" stroke-linecap="butt" stroke-miterlimit="10" stroke-linejoin="miter" fill="none" stroke="#0000ff" d="M.45596 97.17921 .97623 93.9246 1.95248 87.59412 2.92873 81.14491 3.90498 74.68977 4.88124 68.33592 5.85748 62.19016 6.83374 56.35922 7.81 50.93997 8.78624 46.02673 9.7625 41.70193 10.73874 38.03662 11.71498 35.09683 12.69124 32.92723 13.6675 31.57104 14.64374 31.04416 15.62 31.36249 16.59624 32.51407 17.5725 34.48752 18.54875 37.2401 19.525 40.7326 20.50125 44.90097 21.4775 49.67764 22.45374 54.97871 23.43 60.71729 24.40625 66.79503 25.38249 73.10765 26.35875 79.54839 27.335 86.007 28.31125 92.37823 29.2875 98.55081 30.26376 104.41998 31.23999 109.8889 32.21625 114.86026 33.19249 119.25407 34.16875 122.99237 35.145 126.0146 36.12125 128.26663 37.0975 129.71469 38.07376 130.32946 39.05 130.10253 40.02626 129.03882 41.0025 127.15527 41.97874 124.48413 42.955 121.06909 43.93126 116.97026 44.9075 112.25516 45.88376 107.00722 46.86 101.31035 47.83626 95.2659 48.81252 88.97313 49.78876 82.53984 50.76501 76.07773 51.74126 69.69261 52.7175 63.4937 53.69376 57.5863 54.67001 52.0707 55.64626 47.04076 56.62251 42.5814 57.59877 38.76959 58.57501 35.66591 59.55127 33.32898 60.52753 31.79153 61.50375 31.08739 62.48001 31.22244 63.45627 32.19775 64.43251 33.99341 65.40877 36.58261 66.38501 39.9187 67.36127 43.9485 68.33752 48.59955 69.31377 53.79436 70.29002 59.447 71.26628 65.4592 72.24251 71.7306 73.21877 78.15248 74.19502 84.61656 75.17126 91.01758 76.14752 97.24132 77.12378 103.18497 78.10002 108.74677 79.07628 113.8333 80.05254 118.35771 81.02878 122.2445 82.00502 125.42615 82.98126 127.84851 83.95752 129.47235 84.93378 130.26738 85.91002 130.22418 86.88628 129.33878 87.86253 127.631 88.83878 125.12372 89.81503 121.86711 90.79129 117.9083 91.76753 113.32182 92.74377 108.18016 93.72003 102.57368 94.69627 96.59526 95.67253 90.3467 96.64879 83.93575 97.62503 77.47066 98.60135 71.05774 99.5775 64.80966 100.55382 58.83075 101.52998 53.22426 102.50627 48.07962 103.48259 43.49214 104.45876 39.53235 105.43506 36.27324 106.41122 33.76547 107.38754 32.05522 108.36385 31.16783 109.34001 31.12312 110.31631 31.91669 111.29248 33.53705 112.2688 35.95891 113.24509 39.13855 114.22125 43.02336 115.19757 47.54628 116.17372 52.63234 117.15004 58.19313 118.12636 64.1368 119.10251 70.35904 120.07883 76.75905 121.055 83.22313 122.0313 89.6465 123.0076 95.91841 123.98376 101.9301 124.96007 107.58426 125.93623 112.78004 126.91255 117.43259 127.88885 121.46289 128.86502 124.80144 129.84133 127.39313 130.81749 129.19029 131.79381 130.16808 132.77011 130.30364 133.74626 129.60196 134.72258 128.0665 135.69873 125.73204 136.67505 122.62987 137.65137 118.81757 138.62752 114.36168 139.60384 109.33273 140.58 103.81664 141.5563 97.91222 142.53263 91.71281 143.50878 85.32768 144.48508 78.86557 145.46125 72.43228 146.43756 66.13853 147.41387 60.09357 148.39003 54.39621 149.36634 49.14679 150.3425 44.4312 151.31884 40.33086 152.29512 36.91385 153.2713 34.2417 154.24759 32.35516 155.22376 31.28899 156.20008 31.06105 157.17638 31.67384 158.15253 33.11992 159.12886 35.37045 160.10501 38.39119 161.08132 42.12752 162.05764 46.52083 163.0338 51.49118 164.0101 56.95811 164.98624 62.82579 165.96256 68.99937 166.93889 75.3696 167.91504 81.82773 168.89134 88.26996 169.86751 94.58159 170.84383 100.66032 171.82015 106.39989 172.79628 111.70195 173.77262 116.48012 174.74875 120.64948 175.72505 124.14296 176.70137 126.89804 177.67754 128.87297 178.65386 130.02704 179.63002 130.34685 180.60634 129.82244 181.58264 128.46675 182.5588 126.30064 183.53513 123.36134 184.51128 119.69852 185.48758 115.37372 186.4639 110.46246 187.44005 105.04471 188.41637 99.21376 189.39252 93.06949 190.36885 86.71564 191.34516 80.26 192.3213 73.8123 193.29763 67.47981 193.81781 64.22571"/>
<path transform="matrix(-.15782789,-.98751899,-.9874893,.15783262,4.569505,65.13781)" d="M2.8892 0-1.73352 2.31136 0 0-1.73352-2.31136" fill="#0000ff"/>
<path transform="matrix(.15782789,.98751899,.9874893,-.15783262,197.94098,98.093929)" d="M2.8892 0-1.73352 2.31136 0 0-1.73352-2.31136" fill="#0000ff"/>
<use data-text="(" xlink:href="#font_6_85" transform="matrix(9.963098,0,0,-9.963397,11.475868,22.035569)"/>
<use data-text="B" xlink:href="#font_6_34" transform="matrix(9.963098,0,0,-9.963397,15.351517,22.035569)"/>
<use data-text=")" xlink:href="#font_6_86" transform="matrix(9.963098,0,0,-9.963397,22.405388,22.035569)"/>
<use data-text="x" xlink:href="#font_2_2" transform="matrix(9.963098,0,0,-9.963397,189.18476,78.10305)"/>
<use data-text="y" xlink:href="#font_2_3" transform="matrix(9.963098,0,0,-9.963397,57.703184,8.730499)"/>
</svg>
