<svg xmlns="http://www.w3.org/2000/svg" xmlns:xlink="http://www.w3.org/1999/xlink" version="1.1" width="125" height="96" viewBox="0 0 125 96">
<defs>
<path id="font_1_116" d="M.5159912 0V.0309906C.46199037 .03125 .44400025 .0332489 .42099 .0622406L.2869873 .23493958C.31698609 .27287293 .35499574 .3217926 .3789978 .3477478 .4099884 .38368226 .45098878 .39866639 .49798585 .3996582V.43066407C.47200013 .4286499 .44198609 .42765809 .41600038 .42765809 .38598634 .42765809 .33299256 .42965699 .31999208 .43066407V.3996582C.34098817 .3973999 .34899903 .3843994 .34899903 .3684082 .34899903 .35240174 .33898927 .33940126 .33399964 .33340455L.27198792 .2554016 .19400025 .35639955C.18499756 .3664093 .18499756 .3684082 .18499756 .3744049 .18499756 .3894043 .19999695 .39840699 .21998596 .39941407V.43066407L.11199951 .42765809C.09098816 .42765809 .04399109 .4286499 .016998291 .43066407V.3996582C.08699036 .3996582 .08799744 .39865113 .1349945 .3387146L.23399353 .20982361C.18699646 .14988709 .18699646 .14788819 .13999939 .09094238 .09199524 .032989503 .032989503 .0309906 .011993408 .0309906V0C.037994386 .0019989014 .068984989 .0029907227 .09498596 .0029907227L.18998719 0V.0309906C.16799927 .034240724 .16099549 .04724121 .16099549 .0622406 .16099549 .084243778 .18998719 .117248538 .25099183 .1892395L.32699586 .08924866C.33499146 .07824707 .34799195 .0622406 .34799195 .056243898 .34799195 .04724121 .33898927 .03224182 .31199647 .03125V0L.41999818 .0029907227C.44699098 .0029907227 .48599244 .0019989014 .5159912 0Z"/>
<path id="font_1_118" d="M.5079956 .3996582V.43066407C.4850006 .4286499 .45599366 .42765809 .43299867 .42765809L.34599305 .43066407V.3996582C.3769989 .39866639 .3929901 .3816681 .3929901 .35668946 .3929901 .34669496 .3919983 .34469605 .3869934 .33270265L.28599549 .08685303 .1749878 .35568238C.17098999 .36567689 .16899109 .36967469 .16899109 .3736725 .16899109 .3996582 .20599365 .3996582 .22499085 .3996582V.43066407L.115997318 .42765809C.08898926 .42765809 .04899597 .4286499 .018997193 .43066407V.3996582C.066986087 .3996582 .085998538 .3996582 .099990848 .36468507L.25-.000091552738 .22499085-.059066774C.20298767-.11407471 .1749878-.18309021 .11099243-.18309021 .10598755-.18309021 .08299255-.18309021 .06399536-.16503906 .09498596-.16104126 .102996829-.13905335 .102996829-.123046878 .102996829-.0970459 .083999637-.08103943 .06098938-.08103943 .040985109-.08103943 .018997193-.09403992 .018997193-.124053958 .018997193-.16905213 .06098938-.20507813 .11099243-.20507813 .17399597-.20507813 .21499634-.14804077 .23899842-.091049198L.4149933 .33569337C.44099427 .39865113 .49198915 .3996582 .5079956 .3996582Z"/>
<path id="font_1_96" d="M.3639984 .38137818C.3639984 .41337586 .33299256 .4423828 .2899933 .4423828 .21699524 .4423828 .18099976 .37538148 .16699219 .3323822V.4423828L.027999878 .43066407V.3996582C.09799194 .3996582 .10598755 .39266969 .10598755 .34370423V.07595825C.10598755 .0309906 .09498596 .0309906 .027999878 .0309906V0L.14199829 .0029907227C.18199158 .0029907227 .22898865 .0029907227 .2689972 0V.0309906H.24798584C.17399597 .0309906 .17199707 .04197693 .17199707 .07795715V.23181153C.17199707 .33137513 .21398926 .42037965 .2899933 .42037965 .29699708 .42037965 .29899598 .42037965 .30099488 .41937257 .2979889 .41838075 .27799989 .40637208 .27799989 .3803711 .27799989 .35237123 .29899598 .33737184 .32099916 .33737184 .33898927 .33737184 .3639984 .3493805 .3639984 .38137818Z"/>
<path id="font_2_1" d="M.45498658 .5001831C.45498658 .56614688 .43699647 .7050781 .33499146 .7050781 .19599915 .7050781 .041992189 .42323304 .041992189 .19425965 .041992189 .100250247 .070999149-.0107421879 .1619873-.0107421879 .30299378-.0107421879 .45498658 .27627564 .45498658 .5001831M.147995 .36328126C.16499329 .42723084 .18499756 .5071869 .22499085 .57814028 .2519989 .6271057 .2889862 .68307498 .33399964 .68307498 .3829956 .68307498 .3889923 .6191101 .3889923 .56214907 .3889923 .5131836 .3809967 .46220399 .35699464 .36328126H.147995M.34799195 .3312683C.33699037 .28527833 .31599427 .2002716 .27799989 .12826538 .24299622 .060256959 .20498657 .011245728 .1619873 .011245728 .1289978 .011245728 .10798645 .040252687 .10798645 .133255 .10798645 .17526245 .11399841 .23326111 .13999939 .3312683H.34799195Z"/>
<path id="font_3_1" d="M.31098939 .36265565H.42999269C.4149933 .30274964 .3929901 .2118988 .3929901 .13302613 .3929901 .09309387 .397995 .06613159 .4039917 .044174196 .41999818-.0057678224 .43299867-.009765625 .44898988-.009765625 .47200013-.009765625 .49598695 .011230469 .49598695 .035186769 .49598695 .043182374 .49398805 .047164918 .48799134 .057159425 .46899415 .09408569 .45098878 .15100098 .45098878 .23286438 .45098878 .25183106 .45098878 .29177857 .46499635 .36265565H.58999636C.60798647 .36265565 .6159973 .36265565 .6269989 .37065126 .6409912 .380661 .6439972 .39665223 .6439972 .4016571 .6439972 .43066407 .6179962 .43066407 .6009979 .43066407H.22399903C.18299866 .43066407 .15499878 .42166139 .10998535 .37965394 .083999637 .35665895 .04499817 .30274964 .04499817 .2937622 .04499817 .28178407 .057998659 .28178407 .06199646 .28178407 .07299805 .28178407 .07398987 .28378297 .07998657 .2927704 .1309967 .36265565 .19299317 .36265565 .21499634 .36265565H.27598573C.24499512 .25283814 .19099427 .13502503 .16099549 .07511902 .15499878 .062149049 .14498902 .04118347 .14199829 .03718567 .14099121 .033187868 .13899231 .029190064 .13899231 .022201539 .13899231 .006225586 .15098572-.009765625 .17399597-.009765625 .21398926-.009765625 .22499085 .035186769 .24899292 .12504578L.31098939 .36265565Z"/>
<path id="font_4_1" d="M.5049896 .18203736H.47099305C.46798707 .16001892 .45799256 .100997928 .44499208 .09098816 .43699647 .084991458 .3600006 .084991458 .34599305 .084991458H.1619873C.2669983 .17803955 .3019867 .20603943 .3619995 .25306703 .43598939 .312088 .5049896 .374115 .5049896 .46914674 .5049896 .5900879 .39898683 .6640625 .2709961 .6640625 .14698792 .6640625 .06298828 .57710269 .06298828 .4851532 .06298828 .43414308 .10598755 .42915345 .115997318 .42915345 .13999939 .42915345 .16899109 .44615174 .16899109 .48214723 .16899109 .5001526 .1619873 .53515627 .10998535 .53515627 .14099121 .6060791 .20899964 .62805178 .2559967 .62805178 .35598756 .62805178 .4079895 .5501404 .4079895 .46914674 .4079895 .38212586 .34599305 .3130951 .31399537 .27708436L.07299805 .038986207C.06298828 .02999878 .06298828 .027999878 .06298828 0H.47499085L.5049896 .18203736Z"/>
<path id="font_5_1" d="M.6589966 .23046875C.6759949 .23046875 .69400027 .23046875 .69400027 .25045777 .69400027 .27046205 .6759949 .27046205 .6589966 .27046205H.117996219C.100997928 .27046205 .08299255 .27046205 .08299255 .25045777 .08299255 .23046875 .100997928 .23046875 .117996219 .23046875H.6589966Z"/>
</defs>
<path transform="matrix(1.00008,0,0,-1.00006,1.395668,87.142269)" stroke-width=".99628" stroke-linecap="butt" stroke-miterlimit="10" stroke-linejoin="miter" fill="none" stroke="#000000" d="M0 0H113.38724"/>
<use data-text="x" xlink:href="#font_1_116" transform="matrix(9.963397,0,0,-9.963197,55.462995,95.25575)"/>
<path transform="matrix(1.00008,0,0,-1.00006,1.395668,87.142269)" stroke-width=".99628" stroke-linecap="butt" stroke-miterlimit="10" stroke-linejoin="miter" fill="none" stroke="#000000" d="M113.38724 0V85.04042"/>
<use data-text="y" xlink:href="#font_1_118" transform="matrix(9.963397,0,0,-9.963197,118.611049,45.74578)"/>
<path transform="matrix(1.00008,0,0,-1.00006,1.395668,87.142269)" stroke-width=".99628" stroke-linecap="butt" stroke-miterlimit="10" stroke-linejoin="miter" fill="none" stroke="#000000" d="M113.38724 85.04042 0 0"/>
<use data-text="r" xlink:href="#font_1_96" transform="matrix(9.963397,0,0,-9.963197,56.14105,40.800489)"/>
<path transform="matrix(1.00008,0,0,-1.00006,1.395668,87.142269)" stroke-width=".3985" stroke-linecap="butt" stroke-miterlimit="10" stroke-linejoin="miter" fill="none" stroke="#000000" d="M28.3468 0C28.3468 6.13208 26.35538 12.10197 22.67665 17.00737"/>
<use data-text="&#x03b8;" xlink:href="#font_2_1" transform="matrix(9.963397,0,0,-9.963197,31.771096,77.652698)"/>
<path transform="matrix(1.00008,0,0,-1.00006,1.395668,87.142269)" stroke-width=".3985" stroke-linecap="butt" stroke-miterlimit="10" stroke-linejoin="miter" fill="none" stroke="#000000" d="M90.70665 68.02956C96.05888 60.89313 104.46222 56.69012 113.38332 56.69012"/>
<use data-text="&#x03c0;" xlink:href="#font_3_1" transform="matrix(6.974358,0,0,-6.9742186,83.32422,33.248037)"/>
<path transform="matrix(1.00008,0,0,-1.00006,-1.2725449,-33.976995)" stroke-width=".3985" stroke-linecap="butt" stroke-miterlimit="10" stroke-linejoin="miter" fill="none" stroke="#000000" d="M84.59-68.653H89.499"/>
<use data-text="2" xlink:href="#font_4_1" transform="matrix(6.974358,0,0,-6.9742186,83.79326,40.60648)"/>
<use data-text="&#x2212;" xlink:href="#font_5_1" transform="matrix(9.963397,0,0,-9.963197,91.64388,37.170278)"/>
<use data-text="&#x03b8;" xlink:href="#font_2_1" transform="matrix(9.963397,0,0,-9.963197,101.60668,37.170278)"/>
<path transform="matrix(1.00008,0,0,-1.00006,1.395668,87.142269)" stroke-width=".3985" stroke-linecap="butt" stroke-miterlimit="10" stroke-linejoin="miter" fill="none" stroke="#000000" d="M96.37897 0V17.00824H113.38724"/>
</svg>
