<svg xmlns="http://www.w3.org/2000/svg" xmlns:xlink="http://www.w3.org/1999/xlink" xmlns:inkscape="http://www.inkscape.org/namespaces/inkscape" version="1.1" width="197" height="173" viewBox="0 0 197 173">
<defs>
<path id="font_1_1" d="M.6589966 .23046875C.6759949 .23046875 .69400027 .23046875 .69400027 .25045777 .69400027 .27046205 .6759949 .27046205 .6589966 .27046205H.117996219C.100997928 .27046205 .08299255 .27046205 .08299255 .25045777 .08299255 .23046875 .100997928 .23046875 .117996219 .23046875H.6589966Z"/>
<path id="font_2_1" d="M.2649994 .37265016H.37799073C.34498597 .22489929 .33599855 .18196106 .33599855 .11508179 .33599855 .100097659 .33599855 .073150638 .34399415 .03919983 .35398866-.0047454836 .36499024-.0107421879 .37998963-.0107421879 .3999939-.0107421879 .42099 .007247925 .42099 .02722168 .42099 .033218385 .42099 .035202028 .4149933 .049179079 .38598634 .12106323 .38598634 .18595886 .38598634 .21391297 .38598634 .26683045 .3929901 .32073976 .4039917 .37265016H.5179901C.5309906 .37265016 .5669861 .37265016 .5669861 .406662 .5669861 .43066407 .54599 .43066407 .5269928 .43066407H.19198609C.16999817 .43066407 .13198853 .43066407 .08799744 .38365174 .052993776 .34469605 .026992798 .29878236 .026992798 .29379273 .026992798 .29278565 .026992798 .28379823 .038986207 .28379823 .04699707 .28379823 .04899597 .28779603 .054992677 .29577638 .10398865 .37265016 .1619873 .37265016 .18199158 .37265016H.23899842C.20698548 .25186158 .15299988 .13105774 .11099243 .04020691 .102996829 .025222779 .102996829 .023223877 .102996829 .016235352 .102996829-.002746582 .11898804-.0107421879 .13198853-.0107421879 .1619873-.0107421879 .16999817 .017242432 .18199158 .05418396 .19599915 .100097659 .19599915 .10209656 .20899964 .15202332L.2649994 .37265016Z"/>
<path id="font_3_3" d="M.1269989 .07699585 .23298645 .18003845C.3889923 .31811524 .44898988 .3721466 .44898988 .47216798 .44898988 .5860901 .35899354 .6660156 .23699951 .6660156 .12399292 .6660156 .049987794 .57411196 .049987794 .48516847 .049987794 .4291687 .099990848 .4291687 .102996829 .4291687 .11999512 .4291687 .15499878 .44117738 .15499878 .48217774 .15499878 .5081787 .13699341 .5341797 .101989749 .5341797 .09399414 .5341797 .09199524 .5341797 .08898926 .5331726 .11199951 .59806826 .1659851 .63500979 .22399903 .63500979 .31498719 .63500979 .35798646 .5541382 .35798646 .47216798 .35798646 .39215089 .30799867 .31311036 .25299073 .25108338L.06098938 .036987306C.049987794 .025985718 .049987794 .023986817 .049987794 0H.42099L.44898988 .17404175H.42399598C.4189911 .14402771 .4119873 .1000061 .4019928 .084991458 .394989 .07699585 .32899476 .07699585 .30699159 .07699585H.1269989Z"/>
<path id="font_3_2" d="M.2939911 .64004519C.2939911 .66400149 .2939911 .6660156 .2709961 .6660156 .20899964 .60227969 .12098694 .60227969 .08898926 .60227969V.57128909C.10899353 .57128909 .16799927 .57128909 .21998596 .5972748V.07902527C.21998596 .042999269 .21699524 .0309906 .1269989 .0309906H.09498596V0C.12998963 .0029907227 .21699524 .0029907227 .25698854 .0029907227 .29699708 .0029907227 .38398744 .0029907227 .4189911 0V.0309906H.3869934C.29699708 .0309906 .2939911 .041992189 .2939911 .07902527V.64004519Z"/>
<path id="font_3_1" d="M.45999146 .31976319C.45999146 .39982606 .45498658 .47988893 .41999818 .5539398 .37399293 .65000918 .2919922 .6660156 .25 .6660156 .18998719 .6660156 .116989139 .64001467 .07598877 .54693606 .04399109 .47789 .038986207 .39982606 .038986207 .31976319 .038986207 .24472046 .042999269 .15464783 .083999637 .07859802 .1269989-.0024719239 .19999695-.022460938 .24899292-.022460938 .30299378-.022460938 .3789978-.0014648438 .4229889 .09359741 .45498658 .16265869 .45999146 .2407074 .45999146 .31976319M.24899292-.00047302247C.20999146-.00047302247 .15098572 .024551392 .1329956 .12062073 .12199402 .18066406 .12199402 .2727356 .12199402 .3317871 .12199402 .39582826 .12199402 .46188355 .12998963 .5159149 .14898682 .63500979 .22399903 .64401248 .24899292 .64401248 .28199769 .64401248 .34799195 .6259918 .36698915 .52693179 .3769989 .47088624 .3769989 .39482118 .3769989 .3317871 .3769989 .25672914 .3769989 .18867493 .3659973 .12461853 .35099793 .029556275 .2939911-.00047302247 .24899292-.00047302247Z"/>
<path id="font_3_4" d="M.44898988 .20022583C.44898988 .3193512 .36698915 .41944886 .25898744 .41944886 .21099854 .41944886 .16799927 .40345765 .13198853 .36842347V.5637665C.1519928 .5577698 .18499756 .55078127 .21699524 .55078127 .33999635 .55078127 .4099884 .6417694 .4099884 .6547699 .4099884 .6607666 .40699769 .6657715 .3999939 .6657715 .39898683 .6657715 .39698792 .6657715 .3919983 .66278079 .37199403 .6537781 .32299806 .6337738 .2559967 .6337738 .21598816 .6337738 .16999817 .6407776 .12298584 .6617737 .114990238 .66477969 .11299133 .66477969 .11099243 .66477969 .100997928 .66477969 .100997928 .6567688 .100997928 .6407776V.34439088C.100997928 .32637025 .100997928 .31835938 .114990238 .31835938 .12199402 .31835938 .12399292 .32136537 .12799073 .32736207 .13899231 .3433838 .17599488 .39746095 .25698854 .39746095 .30899049 .39746095 .33399964 .35139466 .34199525 .33337403 .35798646 .29632569 .3600006 .25727845 .3600006 .20722962 .3600006 .17222595 .3600006 .11222839 .33599855 .07035828 .31199647 .031463624 .2749939 .0055389406 .22898865 .0055389406 .1559906 .0055389406 .09899902 .058380128 .08198547 .11723328 .084991458 .1162262 .08799744 .115234378 .09899902 .115234378 .13198853 .115234378 .14898682 .14022827 .14898682 .16423035 .14898682 .18823242 .13198853 .21322632 .09899902 .21322632 .084991458 .21322632 .049987794 .20622254 .049987794 .16023255 .049987794 .07434082 .11898804-.022460938 .23098755-.022460938 .34700013-.022460938 .44898988 .073349 .44898988 .20022583Z"/>
<path id="font_4_85" d="M.33099366-.2400055C.33099366-.23701477 .33099366-.23500061 .31399537-.21800232 .18899536-.0920105 .15699768 .09700012 .15699768 .25 .15699768 .42399598 .19499207 .59799197 .31799317 .72299197 .33099366 .7350006 .33099366 .7369995 .33099366 .73999026 .33099366 .746994 .32699586 .75 .32099916 .75 .31098939 .75 .22099304 .6819916 .1619873 .5549927 .11099243 .44499208 .09899902 .33399964 .09899902 .25 .09899902 .17199707 .10998535 .050994874 .16499329-.06201172 .22499085-.18501282 .31098939-.25 .32099916-.25 .32699586-.25 .33099366-.24700928 .33099366-.2400055Z"/>
<path id="font_4_49" d="M.6519928 .2579193H.6269989C.60198977 .10397339 .57899478 .0309906 .40699769 .0309906H.27398683C.22698975 .0309906 .22499085 .037994386 .22499085 .07098389V.33789063H.31498719C.4119873 .33789063 .4229889 .30589295 .4229889 .220932H.44799806V.48606874H.4229889C.4229889 .39994813 .4119873 .36888124 .31498719 .36888124H.22499085V.6087799C.22499085 .6416931 .22698975 .64868167 .27398683 .64868167H.40299989C.55599978 .64868167 .58299258 .59381106 .598999 .45507813H.6239929L.59599307 .6796875H.032989503V.64868167H.056991579C.13398743 .64868167 .13598633 .6377106 .13598633 .6017914V.07797241C.13598633 .041992189 .13398743 .0309906 .056991579 .0309906H.032989503V0H.6100006L.6519928 .2579193Z"/>
<path id="font_4_86" d="M.2889862 .25C.2889862 .32798768 .27799989 .44898988 .22299195 .56199648 .16299439 .68499758 .07699585 .75 .066986087 .75 .06098938 .75 .056991579 .74598696 .056991579 .73999026 .056991579 .7369995 .056991579 .7350006 .07598877 .71699526 .17399597 .6179962 .23098755 .45899964 .23098755 .25 .23098755 .07899475 .19400025-.09700012 .069992069-.2230072 .056991579-.23500061 .056991579-.23701477 .056991579-.2400055 .056991579-.2460022 .06098938-.25 .066986087-.25 .07699585-.25 .16699219-.18200684 .22599793-.055007936 .2769928 .054992677 .2889862 .16600037 .2889862 .25Z"/>
<path id="font_2_2" d="M.33399964 .30233766C.33999635 .32835389 .36299134 .42037965 .43299867 .42037965 .43798829 .42037965 .46199037 .42037965 .48298646 .40734864 .45498658 .402359 .43499757 .37734986 .43499757 .35334779 .43499757 .33735658 .44599916 .31835938 .47299195 .31835938 .49499513 .31835938 .5269928 .3363495 .5269928 .37635804 .5269928 .42837525 .46798707 .4423828 .43399049 .4423828 .37599183 .4423828 .34098817 .38935853 .32899476 .36634828 .3039856 .43237306 .25 .4423828 .22099304 .4423828 .116989139 .4423828 .05999756 .3133545 .05999756 .28834535 .05999756 .27833558 .069992069 .27833558 .07199097 .27833558 .07998657 .27833558 .08299255 .28033448 .084991458 .28933717 .11898804 .39535523 .18499756 .42037965 .21899414 .42037965 .23799134 .42037965 .272995 .4113617 .272995 .35334779 .272995 .32235719 .2559967 .25532533 .21899414 .11528015 .20298767 .053268434 .16799927 .011245728 .12399292 .011245728 .117996219 .011245728 .09498596 .011245728 .07398987 .024276734 .09899902 .029266358 .12098694 .05027771 .12098694 .07827759 .12098694 .105270389 .09899902 .11328125 .083999637 .11328125 .053985597 .11328125 .0289917 .08728027 .0289917 .055267335 .0289917 .009246826 .07899475-.0107421879 .12298584-.0107421879 .18899536-.0107421879 .22499085 .059280397 .22799683 .0652771 .23999024 .028274537 .27598573-.0107421879 .33599855-.0107421879 .43899537-.0107421879 .49598695 .118270877 .49598695 .14328003 .49598695 .1532898 .4869995 .1532898 .48399354 .1532898 .47499085 .1532898 .47299195 .14929199 .47099305 .14228821 .43798829 .03527832 .36999513 .011245728 .33799745 .011245728 .29899598 .011245728 .2829895 .043273927 .2829895 .07727051 .2829895 .09927368 .2889862 .121276859 .2999878 .16529846L.33399964 .30233766Z"/>
<path id="font_2_3" d="M.48599244 .38136292C.48999024 .39537049 .48999024 .39736939 .48999024 .40437318 .48999024 .42237855 .47599793 .43138124 .46099855 .43138124 .45098878 .43138124 .43499757 .42536927 .42599488 .41036988 .42399598 .405365 .41600038 .37435914 .4119873 .35635377 .40499879 .33035279 .397995 .30334474 .3919983 .27633668L.34700013 .09628296C.34298707 .08126831 .2999878 .011245728 .23399353 .011245728 .18299866 .011245728 .17199707 .055267335 .17199707 .0922699 .17199707 .1382904 .18899536 .20030213 .22299195 .28833009 .23899842 .3293457 .24299622 .3403473 .24299622 .36035157 .24299622 .405365 .21099854 .4423828 .16099549 .4423828 .06599426 .4423828 .0289917 .29733277 .0289917 .28833009 .0289917 .27833558 .038986207 .27833558 .040985109 .27833558 .050994874 .27833558 .051986696 .28033448 .056991579 .29634095 .083999637 .3903656 .12399292 .42037965 .1579895 .42037965 .1659851 .42037965 .18299866 .42037965 .18299866 .3883667 .18299866 .36335755 .17298889 .3373413 .1659851 .31834413 .12599182 .21231079 .10798645 .1552887 .10798645 .10827637 .10798645 .019256592 .17098999-.0107421879 .22999573-.0107421879 .2689972-.0107421879 .30299378 .0062561037 .33099366 .03425598 .31799317-.017745972 .30599977-.06674194 .2659912-.11973572 .23999024-.15385437 .20199585-.18309021 .1559906-.18309021 .14199829-.18309021 .09700012-.18005371 .07998657-.14074707 .09599304-.14074707 .10899353-.14074707 .12298584-.1287384 .1329956-.11973572 .14299011-.10673523 .14299011-.08773804 .14299011-.056747438 .115997318-.052734376 .10598755-.052734376 .08299255-.052734376 .049987794-.068740848 .049987794-.11773682 .049987794-.16796875 .09399414-.20507813 .1559906-.20507813 .25898744-.20507813 .3619995-.11373901 .3899994-.00074768069L.48599244 .38136292Z"/>
</defs>
<path transform="matrix(1.00006,0,0,-1.00003,1.0959854,168.30167)" stroke-width=".19925" stroke-linecap="butt" stroke-miterlimit="10" stroke-linejoin="miter" fill="none" stroke="#7f807f" d="M7.16013 79.28084V82.1155M18.40723 79.28084V82.1155M29.65434 79.28084V82.1155M40.90144 79.28084V82.1155M52.14856 79.28084V82.1155M63.39566 79.28084V82.1155M74.64278 79.28084V82.1155M85.88988 79.28084V82.1155M97.137 79.28084V82.1155M108.3841 79.28084V82.1155M119.63118 79.28084V82.1155M130.87831 79.28084V82.1155M142.12541 79.28084V82.1155M153.37253 79.28084V82.1155M164.61963 79.28084V82.1155M175.86676 79.28084V82.1155M187.11388 79.28084V82.1155"/>
<path transform="matrix(1.00006,0,0,-1.00003,1.0959854,168.30167)" stroke-width=".19925" stroke-linecap="butt" stroke-miterlimit="10" stroke-linejoin="miter" fill="none" stroke="#7f807f" d="M29.65434 78.57237V82.82396M119.6312 78.57237V82.82396M164.61963 78.57237V82.82396"/>
<path transform="matrix(1.00006,0,0,-1.00003,1.0959854,168.30167)" stroke-width=".19925" stroke-linecap="butt" stroke-miterlimit="10" stroke-linejoin="miter" fill="none" stroke="#7f807f" d="M72.51688 0H76.76865M72.51688 40.34909H76.76865M72.51688 121.04727H76.76865M72.51688 161.39636H76.76865"/>
<path transform="matrix(1.00006,0,0,-1.00003,1.0959854,168.30167)" stroke-width=".3985" stroke-linecap="butt" stroke-miterlimit="10" stroke-linejoin="miter" fill="none" stroke="#000000" d="M0 80.69818H192.28145"/>
<path transform="matrix(1.00006,0,0,-1.00003,193.38898,87.60106)" d="M1.99252 0-1.19551 1.59401 0 0-1.19551-1.59401"/>
<path transform="matrix(1.00006,0,0,-1.00003,1.0959854,168.30167)" stroke-width=".3985" stroke-linecap="butt" stroke-miterlimit="10" stroke-linejoin="miter" fill="none" stroke="#000000" d="M74.64278 0V159.40384"/>
<path transform="matrix(0,-1.00003,-1.00006,-0,75.74324,8.893036)" d="M1.99252 0-1.19551 1.59401 0 0-1.19551-1.59401"/>
<use data-text="&#x2212;" xlink:href="#font_1_1" transform="matrix(9.963197,0,0,-9.962899,23.859353,99.058589)"/>
<use data-text="&#x03c0;" xlink:href="#font_2_1" transform="matrix(9.963197,0,0,-9.962899,31.608819,99.058589)"/>
<use data-text="&#x03c0;" xlink:href="#font_2_1" transform="matrix(9.963197,0,0,-9.962899,117.71598,97.53654)"/>
<use data-text="2" xlink:href="#font_3_3" transform="matrix(9.963197,0,0,-9.962899,160.21652,99.6676)"/>
<use data-text="&#x03c0;" xlink:href="#font_2_1" transform="matrix(9.963197,0,0,-9.962899,165.19782,99.6676)"/>
<use data-text="&#x2212;" xlink:href="#font_1_1" transform="matrix(9.963197,0,0,-9.962899,52.38406,171.09676)"/>
<use data-text="1" xlink:href="#font_3_2" transform="matrix(9.963197,0,0,-9.962899,60.133527,171.09676)"/>
<use data-text="0" xlink:href="#font_3_1" transform="matrix(9.963197,0,0,-9.962899,65.11513,171.09676)"/>
<use data-text="&#x2212;" xlink:href="#font_1_1" transform="matrix(9.963197,0,0,-9.962899,57.366357,130.74654)"/>
<use data-text="5" xlink:href="#font_3_4" transform="matrix(9.963197,0,0,-9.962899,65.11582,130.74654)"/>
<use data-text="5" xlink:href="#font_3_4" transform="matrix(9.963197,0,0,-9.962899,65.11582,50.46113)"/>
<use data-text="1" xlink:href="#font_3_2" transform="matrix(9.963197,0,0,-9.962899,60.133527,10.110916)"/>
<use data-text="0" xlink:href="#font_3_1" transform="matrix(9.963197,0,0,-9.962899,65.11513,10.110916)"/>
<path transform="matrix(1.00006,0,0,-1.00003,1.0959854,168.30167)" stroke-width=".99628" stroke-linecap="butt" stroke-miterlimit="10" stroke-linejoin="miter" fill="none" stroke="#0000ff" d="M11.6113 156.07727 11.639 155.56252 11.8219 152.41819 12.00479 149.50676 12.1877 146.79967 12.37059 144.27123 12.55348 141.91179 12.73637 139.69469 12.91927 137.61458 13.10217 135.65485 13.28506 133.80719 13.46796 132.05707 13.65085 130.40189 13.83374 128.82898 14.01665 127.33842 14.19954 125.91656 14.38243 124.55797 14.56532 123.26492 14.74821 122.02708 14.93112 120.84303 15.11401 119.70688 15.2969 118.61694 15.4798 117.57011 15.6627 116.56401 15.84561 115.59416 16.0285 114.65967 16.2114 113.75862 16.39429 112.88756 16.5772 112.047 16.76009 111.23186 16.94298 110.44385 17.12587 109.67955 17.30876 108.93848 17.49167 108.21898 17.67456 107.52054 17.85745 106.84099 18.04034 106.18031 18.22324 105.53827 18.40614 104.91054 18.58904 104.29996 18.77193 103.7044 18.95482 103.12338 19.13771 102.55519 19.32062 102.00104 19.50351 101.45801 19.6864 100.92807 19.8693 100.40756 20.05219 99.89844 20.23509 99.39996 20.41798 98.91093 20.60089 98.4316 20.78378 97.96048 20.96669 97.49832 21.14958 97.04414 21.33247 96.59773 21.51537 96.15929 21.69826 95.72667 21.88116 95.30276 22.06406 94.88345 22.24695 94.4714 22.42984 94.06519 22.61273 93.66403 22.79564 93.26941 22.97853 92.8789 23.16142 92.49448 23.34431 92.1139 23.5272 91.73817 23.71011 91.36655 23.893 90.9993 24.0759 90.63664 24.25879 90.27689 24.44168 89.92123 24.62459 89.569 24.80748 89.21967 24.99039 88.87369 25.17328 88.53065 25.35617 88.19003 25.53908 87.85277 25.72197 87.51797 25.90486 87.18533 26.08775 86.85513 26.27066 86.5266 26.45355 86.20097 26.63644 85.8768 26.81934 85.55434 27.00223 85.23308 27.18513 84.91376 27.36803 84.59615 27.55092 84.27946 27.73381 83.96452 27.9167 83.64978 28.09961 83.33603 28.2825 83.0241 28.4654 82.71217 28.64828 82.40143 28.83118 82.09065 29.01408 81.7805 29.19698 81.47086 29.37987 81.16187 29.56277 80.85263 29.74567 80.5437 29.92857 80.23447 30.11145 79.92548 30.29436 79.61583 30.47723 79.3057 30.66014 78.9949 30.84305 78.68416 31.02592 78.37224 31.20883 78.05934 31.39171 77.74655 31.57462 77.43231 31.75754 77.11687 31.94041 76.80019 32.1233 76.48257 32.30618 76.16325 32.4891 75.842 32.67201 75.51953 32.85489 75.19583 33.0378 74.86974 33.22067 74.54193 33.40358 74.211 33.58649 73.87836 33.76936 73.5438 33.95227 73.2063 34.13515 72.86568 34.31807 72.52287 34.50096 72.17715 34.68384 71.82782 34.86674 71.4751 35.04962 71.11946 35.23254 70.76042 35.41545 70.39703 35.59833 70.02979 35.78122 69.65816 35.9641 69.28267 36.14702 68.90187 36.32993 68.51694 36.5128 68.12692 36.6957 67.7323 36.87857 67.33115 37.0615 66.92493 37.2444 66.51288 37.42728 66.09406 37.61018 65.66917 37.79308 65.23705 37.97597 64.79884 38.15887 64.35219 38.34175 63.89801 38.52466 63.43536 38.70755 62.96474 38.89046 62.4854 39.07335 61.99661 39.25623 61.4979 39.43913 60.98877 39.62202 60.46947 39.80493 59.93855 39.98782 59.3953 40.1707 58.84116 40.3536 58.27344 40.5365 57.69193 40.7194 57.09637 40.90231 56.4858 41.08519 55.85806 41.26808 55.2165 41.45097 54.55534 41.63388 53.87653 41.81679 53.17735 41.99966 52.45856 42.18257 51.71704 42.36546 50.95248 42.54836 50.16447 42.73126 49.34981 42.91414 48.50877 43.09706 47.63771 43.27994 46.73471 43.46284 45.80144 43.64574 44.83234 43.82861 43.825 44.01154 42.77939 44.19441 41.68945 44.37732 40.55478 44.56023 39.36926 44.7431 38.13167 44.92601 36.83742 45.10889 35.48242 45.2918 34.06058 45.4747 32.56566 45.65758 30.99493 45.84048 29.33829 46.02336 27.58916 46.20627 25.73883 46.38918 23.78075 46.57205 21.70023 46.75497 19.48747 46.93785 17.1251 47.12074 14.59837 47.30365 11.89006 47.48653 8.97815 47.66945 5.83382 47.69714 5.31906"/>
<path transform="matrix(-.05371322,-.99856999,-.9985999,.05371161,12.707982,12.219727)" d="M2.8892 0-1.73352 2.31136 0 0-1.73352-2.31136" fill="#0000ff"/>
<path transform="matrix(.05371322,.99856999,.9985999,-.05371161,48.795988,162.98242)" d="M2.8892 0-1.73352 2.31136 0 0-1.73352-2.31136" fill="#0000ff"/>
<path transform="matrix(1.00006,0,0,-1.00003,1.0959854,168.30167)" stroke-width=".99628" stroke-linecap="butt" stroke-miterlimit="10" stroke-linejoin="miter" fill="none" stroke="#0000ff" d="M56.59972 156.07727 56.62743 155.56252 56.81032 152.42038 56.99321 149.50627 57.1761 146.79796 57.35901 144.27123 57.5419 141.90935 57.72481 139.69469 57.9077 137.61458 58.09059 135.6575 58.2735 133.80719 58.45639 132.059 58.63928 130.40189 58.82217 128.82898 59.00507 127.33575 59.18797 125.91656 59.37086 124.55893 59.55376 123.26492 59.73665 122.02708 59.91954 120.84303 60.10245 119.70833 60.28534 118.61769 60.46823 117.57011 60.65112 116.56496 60.83403 115.5949 61.01692 114.66112 61.19981 113.75862 61.3827 112.88756 61.5656 112.04652 61.7485 111.23186 61.93141 110.44385 62.1143 109.67929 62.2972 108.93825 62.48009 108.21898 62.663 107.52054 62.84589 106.84195 63.02878 106.18105 63.21167 105.53754 63.39456 104.91103 63.57747 104.3002 63.76036 103.7049 63.94325 103.1229 64.12614 102.55566 64.30904 102.00104 64.49194 101.45778 64.67484 100.92686 64.85773 100.40756 65.04062 99.89844 65.22351 99.39972 65.40642 98.91093 65.58931 98.43086 65.7722 97.96097 65.9551 97.49832 66.138 97.04439 66.3209 96.5982 66.5038 96.15906 66.68668 95.72716 66.86958 95.30276 67.05249 94.88345 67.23538 94.4719 67.41827 94.06519 67.60117 93.66475 67.78406 93.26941 67.96696 92.8794 68.14986 92.49399 68.33275 92.1139 68.51564 91.73865 68.69853 91.36655 68.88144 91.00026 69.06433 90.63615 69.24722 90.27689 69.43011 89.92123 69.613 89.569 69.79591 89.21967 69.9788 88.87346 70.1617 88.53065 70.34459 88.19003 70.52748 87.85277 70.71039 87.51797 70.8933 87.18533 71.07619 86.85513 71.25908 86.5266 71.44199 86.20097 71.62488 85.8768 71.80777 85.55434 71.99066 85.23308 72.17355 84.91376 72.35646 84.59615 72.53935 84.27946 72.72224 83.96452 72.90514 83.64978 73.08803 83.33699 73.27094 83.0241 73.45383 82.71217 73.63672 82.40143 73.81961 82.09065 74.0025 81.78098 74.18541 81.47086 74.3683 81.16187 74.5512 80.85263 74.73409 80.5437 74.91699 80.23447 75.09988 79.92548 75.28279 79.61583 75.46567 79.3057 75.64857 78.9949 75.83147 78.68416 76.01436 78.3727 76.19727 78.06032 76.38014 77.74655 76.56305 77.43231 76.74596 77.11711 76.92883 76.80045 77.11174 76.48257 77.29462 76.16325 77.47752 75.842 77.66045 75.52025 77.84332 75.19536 78.02621 74.86974 78.20909 74.54193 78.392 74.211 78.57492 73.87836 78.7578 73.54356 78.9407 73.20534 79.12358 72.86594 79.30647 72.52287 79.4894 72.17645 79.67227 71.82733 79.85518 71.47484 80.03806 71.11969 80.22096 70.76018 80.40387 70.39703 80.58675 70.02979 80.76965 69.65816 80.95253 69.28242 81.13544 68.90234 81.31834 68.51743 81.50122 68.12766 81.68413 67.7323 81.867 67.33115 82.04993 66.92517 82.23283 66.51288 82.41571 66.09357 82.5986 65.66966 82.78148 65.23705 82.9644 64.79861 83.14731 64.35219 83.33018 63.89801 83.51309 63.43536 83.69597 62.96474 83.87888 62.4854 84.06178 61.99661 84.24466 61.4979 84.42757 60.98877 84.61044 60.46947 84.79337 59.93832 84.97626 59.39676 85.15913 58.84116 85.34204 58.27344 85.52492 57.69193 85.70784 57.09637 85.89075 56.4858 86.07361 55.8588 86.25652 55.2153 86.43939 54.55534 86.62231 53.87653 86.80522 53.17735 86.9881 52.45856 87.17099 51.71823 87.35387 50.95322 87.53679 50.16447 87.7197 49.34933 87.90257 48.50877 88.08548 47.63654 88.26837 46.73666 88.45126 45.80144 88.63417 44.83186 88.81705 43.82622 88.99995 42.77866 89.18285 41.68945 89.36575 40.55478 89.54865 39.36972 89.73152 38.13167 89.91443 36.83836 90.09732 35.48024 90.28023 34.06058 90.46312 32.56735 90.646 30.99446 90.8289 29.33926 91.0118 27.59303 91.1947 25.73883 91.37761 23.78075 91.56049 21.70166 91.74338 19.48456 91.92627 17.1251 92.10918 14.60199 92.29208 11.89006 92.47496 8.97815 92.65787 5.83867 92.6858 5.31902"/>
<path transform="matrix(-.05371322,-.99856999,-.9985999,.05371161,57.6991,12.219727)" d="M2.8892 0-1.73352 2.31136 0 0-1.73352-2.31136" fill="#0000ff"/>
<path transform="matrix(.053633218,.99855,.9985799,-.05363161,93.78734,162.98249)" d="M2.8892 0-1.73352 2.31136 0 0-1.73352-2.31136" fill="#0000ff"/>
<path transform="matrix(1.00006,0,0,-1.00003,1.0959854,168.30167)" stroke-width=".99628" stroke-linecap="butt" stroke-miterlimit="10" stroke-linejoin="miter" fill="none" stroke="#0000ff" d="M101.58792 156.07732 101.61588 155.55768 101.79877 152.41819 101.98166 149.50627 102.16455 146.79434 102.34744 144.27123 102.53035 141.91179 102.71324 139.6961 102.89613 137.61458 103.07903 135.6534 103.26192 133.80719 103.44482 132.05707 103.62772 130.40189 103.81061 128.83068 103.9935 127.33575 104.17639 125.91609 104.3593 124.55893 104.54219 123.26492 104.72508 122.02708 104.90797 120.84303 105.09088 119.70833 105.27379 118.61769 105.45667 117.57086 105.63956 116.56447 105.82246 115.59416 106.00537 114.65967 106.18826 113.75862 106.37115 112.88756 106.55405 112.04578 106.73694 111.23235 106.91985 110.44385 107.10274 109.67955 107.28563 108.939 107.46852 108.21898 107.65141 107.52054 107.83432 106.84099 108.01721 106.18031 108.2001 105.53827 108.383 104.91124 108.56589 104.29996 108.7488 103.7044 108.93169 103.1229 109.11458 102.55566 109.29747 102.00104 109.48036 101.45801 109.66327 100.92734 109.84616 100.40756 110.02907 99.89868 110.21196 99.39972 110.39485 98.91093 110.57776 98.4316 110.76065 97.96097 110.94354 97.49832 111.12643 97.04439 111.30934 96.59773 111.49223 96.15929 111.67513 95.72716 111.85802 95.30276 112.04091 94.88419 112.22382 94.4714 112.40671 94.06519 112.5896 93.66426 112.77249 93.26941 112.95538 92.8794 113.13829 92.49399 113.32118 92.1139 113.50407 91.73817 113.68697 91.36655 113.86986 90.99977 114.05276 90.63615 114.23567 90.27689 114.41856 89.92123 114.60146 89.569 114.78435 89.21988 114.96725 88.87369 115.15015 88.53065 115.33304 88.1905 115.51593 87.85277 115.69882 87.51797 115.88173 87.18533 116.06462 86.85513 116.24751 86.5266 116.4304 86.2005 116.61331 85.8768 116.7962 85.55434 116.9791 85.23308 117.16199 84.91376 117.34488 84.59615 117.52779 84.27946 117.71068 83.96402 117.89357 83.64978 118.07646 83.33699 118.25935 83.0241 118.44226 82.71217 118.62515 82.40143 118.80806 82.09087 118.99095 81.78098 119.17384 81.47134 119.35675 81.16187 119.53964 80.85263 119.72253 80.5437 119.90543 80.23447 120.0883 79.92548 120.27122 79.61583 120.4541 79.3057 120.63701 78.9949 120.81992 78.68416 121.00279 78.3727 121.1857 78.06032 121.36858 77.74655 121.55148 77.43231 121.73439 77.11687 121.91728 76.80019 122.10019 76.48257 122.28307 76.16325 122.46596 75.84273 122.64886 75.51953 122.83176 75.19536 123.01466 74.86974 123.19754 74.5412 123.38045 74.21075 123.56334 73.87836 123.74623 73.54356 123.92914 73.2063 124.11201 72.86568 124.29492 72.52287 124.47781 72.17668 124.6607 71.82782 124.84361 71.4751 125.02649 71.11946 125.2094 70.76018 125.3923 70.39658 125.5752 70.02979 125.75809 69.65816 125.94096 69.28242 126.12387 68.90234 126.30678 68.51694 126.48967 68.12692 126.67256 67.7323 126.85544 67.33115 127.03835 66.92517 127.22127 66.51288 127.40414 66.09406 127.58705 65.66917 127.76993 65.23705 127.95282 64.79861 128.13574 64.35194 128.31862 63.89801 128.50153 63.43536 128.6844 62.96548 128.86731 62.4854 129.05022 61.99588 129.2331 61.4979 129.416 60.98877 129.59888 60.469 129.78179 59.93855 129.9647 59.39604 130.14759 58.84116 130.33048 58.27344 130.51335 57.69193 130.69626 57.09637 130.87918 56.4858 131.06206 55.85806 131.24497 55.21602 131.42784 54.55609 131.61074 53.87653 131.79366 53.17735 131.97653 52.45856 132.15944 51.71823 132.34232 50.95322 132.52523 50.16447 132.70813 49.35056 132.891 48.50877 133.07392 47.63771 133.25679 46.73666 133.43972 45.80144 133.6226 44.83138 133.80548 43.82645 133.98839 42.77866 134.17127 41.6902 134.35419 40.55331 134.5371 39.36972 134.71997 38.13141 134.90287 36.83836 135.08574 35.47977 135.26866 34.06058 135.45157 32.56735 135.63445 30.99446 135.81734 29.33926 136.00022 27.59303 136.18314 25.74149 136.36605 23.78175 136.54892 21.70166 136.73183 19.48747 136.9147 17.1251 137.09761 14.59837 137.28052 11.89006 137.4634 8.97815 137.6463 5.83382 137.6737 5.32434"/>
<path transform="matrix(-.053633218,-.99855,-.9985799,.05363161,102.689998,12.219666)" d="M2.8892 0-1.73352 2.31136 0 0-1.73352-2.31136" fill="#0000ff"/>
<path transform="matrix(.053823227,.99855,.9985799,-.053821617,138.77793,162.97718)" d="M2.8892 0-1.73352 2.31136 0 0-1.73352-2.31136" fill="#0000ff"/>
<path transform="matrix(1.00006,0,0,-1.00003,1.0959854,168.30167)" stroke-width=".99628" stroke-linecap="butt" stroke-miterlimit="10" stroke-linejoin="miter" fill="none" stroke="#0000ff" d="M146.5767 156.07732 146.6043 155.56444 146.7872 152.41819 146.9701 149.50676 147.15299 146.79796 147.33588 144.27123 147.51877 141.91179 147.70168 139.6961 147.88457 137.61559 148.06746 135.6534 148.25035 133.80719 148.43325 132.05707 148.61615 130.40189 148.79904 128.82898 148.98195 127.33575 149.16484 125.91391 149.34774 124.5594 149.53064 123.26492 149.71353 122.02661 149.89643 120.84277 150.07932 119.70688 150.26222 118.61769 150.44512 117.57086 150.628 116.56401 150.8109 115.59416 150.99379 114.65967 151.1767 113.75862 151.35959 112.88826 151.54248 112.047 151.72537 111.23235 151.90827 110.44385 152.09117 109.67929 152.27407 108.93825 152.45696 108.21973 152.63985 107.52008 152.82274 106.84195 153.00565 106.18105 153.18856 105.53827 153.37145 104.91103 153.55434 104.29996 153.73723 103.7049 153.92014 103.1229 154.10303 102.55519 154.28592 102.00104 154.46881 101.45801 154.6517 100.92734 154.83461 100.40756 155.0175 99.89844 155.2004 99.39996 155.38329 98.91093 155.56618 98.4316 155.74909 97.96097 155.93198 97.49832 156.11487 97.04439 156.29776 96.59749 156.48067 96.15979 156.66356 95.72716 156.84645 95.30276 157.02935 94.88443 157.21224 94.4719 157.39514 94.06519 157.57804 93.66403 157.76093 93.26941 157.94382 92.8794 158.12673 92.49399 158.30963 92.1139 158.49253 91.73865 158.67542 91.36655 158.8583 90.9993 159.0412 90.63615 159.2241 90.27664 159.407 89.92123 159.58989 89.56851 159.77278 89.21967 159.95568 88.87346 160.13858 88.53065 160.32147 88.1905 160.50437 87.85277 160.68726 87.51797 160.87015 87.18533 161.05306 86.85513 161.23595 86.5266 161.41884 86.20097 161.60173 85.8768 161.78464 85.55434 161.96755 85.23308 162.15044 84.91376 162.33333 84.59615 162.51622 84.27946 162.69913 83.96402 162.88202 83.64978 163.06491 83.33603 163.2478 83.0241 163.4307 82.71217 163.6136 82.40169 163.7965 82.09065 163.97939 81.78098 164.16228 81.47134 164.34517 81.16187 164.52808 80.85263 164.71097 80.5437 164.89388 80.23447 165.07675 79.92548 165.25965 79.61583 165.44254 79.3057 165.62545 78.9949 165.80835 78.68416 165.99123 78.3727 166.17414 78.06032 166.35703 77.74632 166.53992 77.43231 166.72283 77.11687 166.9057 76.80019 167.08863 76.48257 167.2715 76.16325 167.4544 75.842 167.6373 75.51953 167.82018 75.19583 168.0031 74.86974 168.18598 74.54193 168.36888 74.211 168.55179 73.87836 168.73467 73.54356 168.91757 73.2063 169.10045 72.86568 169.28336 72.52287 169.46627 72.17645 169.64914 71.82782 169.83205 71.47484 170.01493 71.11969 170.19783 70.76018 170.38074 70.39703 170.56362 70.02979 170.74654 69.65816 170.92942 69.28242 171.1123 68.90234 171.29521 68.51694 171.47809 68.12766 171.66101 67.7323 171.84389 67.33092 172.0268 66.92517 172.20969 66.51215 172.39258 66.09406 172.57549 65.66917 172.75836 65.23727 172.94127 64.79813 173.12416 64.35194 173.30706 63.89801 173.48996 63.43536 173.67284 62.96474 173.85575 62.4854 174.03865 61.99661 174.22154 61.4979 174.40444 60.98877 174.58731 60.46947 174.77022 59.93855 174.95313 59.39604 175.13602 58.84042 175.31893 58.27295 175.5018 57.69264 175.6847 57.09613 175.8676 56.4858 176.05049 55.8588 176.2334 55.21602 176.41628 54.55534 176.59918 53.8758 176.78208 53.17735 176.96497 52.45734 177.14788 51.71704 177.33075 50.95396 177.51366 50.16447 177.69658 49.34933 177.87946 48.50952 178.06235 47.63654 178.24523 46.73666 178.42813 45.80144 178.61106 44.83234 178.79393 43.82622 178.97682 42.77866 179.1597 41.68945 179.3426 40.55331 179.52553 39.36972 179.7084 38.13167 179.89131 36.83788 180.07419 35.48024 180.25708 34.06058 180.44 32.56735 180.62288 30.99664 180.80579 29.33926 180.98867 27.58916 181.17157 25.73883 181.35448 23.78175 181.53736 21.70166 181.72026 19.48747 181.90314 17.1251 182.08605 14.59668 182.26897 11.89006 182.45183 8.97595 182.63474 5.83867 182.66266 5.31828"/>
<path transform="matrix(-.053763223,-.99855,-.9985799,.053761618,147.68149,12.219666)" d="M2.8892 0-1.73352 2.31136 0 0-1.73352-2.31136" fill="#0000ff"/>
<path transform="matrix(.053633218,.99855,.9985799,-.05363161,183.76959,162.98323)" d="M2.8892 0-1.73352 2.31136 0 0-1.73352-2.31136" fill="#0000ff"/>
<path transform="matrix(1.00006,0,0,-1.00003,1.0959854,168.30167)" stroke-width=".3985" stroke-linecap="butt" stroke-dasharray="2.98883,2.98883" stroke-miterlimit="10" stroke-linejoin="miter" fill="none" stroke="#ff0000" d="M7.16003 0V161.39636"/>
<path transform="matrix(1.00006,0,0,-1.00003,1.0959854,168.30167)" stroke-width=".3985" stroke-linecap="butt" stroke-dasharray="2.98883,2.98883" stroke-miterlimit="10" stroke-linejoin="miter" fill="none" stroke="#ff0000" d="M52.14845 0V161.39636"/>
<path transform="matrix(1.00006,0,0,-1.00003,1.0959854,168.30167)" stroke-width=".3985" stroke-linecap="butt" stroke-dasharray="2.98883,2.98883" stroke-miterlimit="10" stroke-linejoin="miter" fill="none" stroke="#ff0000" d="M97.1369 0V161.39636"/>
<path transform="matrix(1.00006,0,0,-1.00003,1.0959854,168.30167)" stroke-width=".3985" stroke-linecap="butt" stroke-dasharray="2.98883,2.98883" stroke-miterlimit="10" stroke-linejoin="miter" fill="none" stroke="#ff0000" d="M142.12532 0V161.39636"/>
<path transform="matrix(1.00006,0,0,-1.00003,1.0959854,168.30167)" stroke-width=".3985" stroke-linecap="butt" stroke-dasharray="2.98883,2.98883" stroke-miterlimit="10" stroke-linejoin="miter" fill="none" stroke="#ff0000" d="M187.11376 0V161.39636"/>
<use data-text="(" xlink:href="#font_4_85" transform="matrix(9.963197,0,0,-9.962899,15.309837,9.390884)"/>
<use data-text="E" xlink:href="#font_4_49" transform="matrix(9.963197,0,0,-9.962899,19.185517,9.390884)"/>
<use data-text=")" xlink:href="#font_4_86" transform="matrix(9.963197,0,0,-9.962899,25.970452,9.390884)"/>
<use data-text="x" xlink:href="#font_2_2" transform="matrix(9.963197,0,0,-9.962899,186.16709,84.08113)"/>
<use data-text="y" xlink:href="#font_2_3" transform="matrix(9.963197,0,0,-9.962899,79.26367,14.7100529)"/>
</svg>
