<svg xmlns="http://www.w3.org/2000/svg" xmlns:xlink="http://www.w3.org/1999/xlink" xmlns:inkscape="http://www.inkscape.org/namespaces/inkscape" version="1.1" width="118" height="119" viewBox="0 0 118 119">
<defs>
<path id="font_1_1" d="M.33399964 .30233766C.33999635 .32835389 .36299134 .42037965 .43299867 .42037965 .43798829 .42037965 .46199037 .42037965 .48298646 .40734864 .45498658 .402359 .43499757 .37734986 .43499757 .35334779 .43499757 .33735658 .44599916 .31835938 .47299195 .31835938 .49499513 .31835938 .5269928 .3363495 .5269928 .37635804 .5269928 .42837525 .46798707 .4423828 .43399049 .4423828 .37599183 .4423828 .34098817 .38935853 .32899476 .36634828 .3039856 .43237306 .25 .4423828 .22099304 .4423828 .116989139 .4423828 .05999756 .3133545 .05999756 .28834535 .05999756 .27833558 .069992069 .27833558 .07199097 .27833558 .07998657 .27833558 .08299255 .28033448 .084991458 .28933717 .11898804 .39535523 .18499756 .42037965 .21899414 .42037965 .23799134 .42037965 .272995 .4113617 .272995 .35334779 .272995 .32235719 .2559967 .25532533 .21899414 .11528015 .20298767 .053268434 .16799927 .011245728 .12399292 .011245728 .117996219 .011245728 .09498596 .011245728 .07398987 .024276734 .09899902 .029266358 .12098694 .05027771 .12098694 .07827759 .12098694 .105270389 .09899902 .11328125 .083999637 .11328125 .053985597 .11328125 .0289917 .08728027 .0289917 .055267335 .0289917 .009246826 .07899475-.0107421879 .12298584-.0107421879 .18899536-.0107421879 .22499085 .059280397 .22799683 .0652771 .23999024 .028274537 .27598573-.0107421879 .33599855-.0107421879 .43899537-.0107421879 .49598695 .118270877 .49598695 .14328003 .49598695 .1532898 .4869995 .1532898 .48399354 .1532898 .47499085 .1532898 .47299195 .14929199 .47099305 .14228821 .43798829 .03527832 .36999513 .011245728 .33799745 .011245728 .29899598 .011245728 .2829895 .043273927 .2829895 .07727051 .2829895 .09927368 .2889862 .121276859 .2999878 .16529846L.33399964 .30233766Z"/>
<path id="font_1_2" d="M.48599244 .38136292C.48999024 .39537049 .48999024 .39736939 .48999024 .40437318 .48999024 .42237855 .47599793 .43138124 .46099855 .43138124 .45098878 .43138124 .43499757 .42536927 .42599488 .41036988 .42399598 .405365 .41600038 .37435914 .4119873 .35635377 .40499879 .33035279 .397995 .30334474 .3919983 .27633668L.34700013 .09628296C.34298707 .08126831 .2999878 .011245728 .23399353 .011245728 .18299866 .011245728 .17199707 .055267335 .17199707 .0922699 .17199707 .1382904 .18899536 .20030213 .22299195 .28833009 .23899842 .3293457 .24299622 .3403473 .24299622 .36035157 .24299622 .405365 .21099854 .4423828 .16099549 .4423828 .06599426 .4423828 .0289917 .29733277 .0289917 .28833009 .0289917 .27833558 .038986207 .27833558 .040985109 .27833558 .050994874 .27833558 .051986696 .28033448 .056991579 .29634095 .083999637 .3903656 .12399292 .42037965 .1579895 .42037965 .1659851 .42037965 .18299866 .42037965 .18299866 .3883667 .18299866 .36335755 .17298889 .3373413 .1659851 .31834413 .12599182 .21231079 .10798645 .1552887 .10798645 .10827637 .10798645 .019256592 .17098999-.0107421879 .22999573-.0107421879 .2689972-.0107421879 .30299378 .0062561037 .33099366 .03425598 .31799317-.017745972 .30599977-.06674194 .2659912-.11973572 .23999024-.15385437 .20199585-.18309021 .1559906-.18309021 .14199829-.18309021 .09700012-.18005371 .07998657-.14074707 .09599304-.14074707 .10899353-.14074707 .12298584-.1287384 .1329956-.11973572 .14299011-.10673523 .14299011-.08773804 .14299011-.056747438 .115997318-.052734376 .10598755-.052734376 .08299255-.052734376 .049987794-.068740848 .049987794-.11773682 .049987794-.16796875 .09399414-.20507813 .1559906-.20507813 .25898744-.20507813 .3619995-.11373901 .3899994-.00074768069L.48599244 .38136292Z"/>
</defs>
<path transform="matrix(1.00005,0,0,-1.00005,54.247804,64.81959)" stroke-width=".3985" stroke-linecap="butt" stroke-miterlimit="10" stroke-linejoin="miter" fill="none" stroke="#000000" d="M-51.15773 0H51.15773"/>
<path transform="matrix(-1.00005,-0,0,1.00005,3.0875169,64.81959)" d="M1.99252 0-1.19551 1.59401 0 0-1.19551-1.59401"/>
<path transform="matrix(1.00005,0,0,-1.00005,105.40809,64.81959)" d="M1.99252 0-1.19551 1.59401 0 0-1.19551-1.59401"/>
<use data-text="x" xlink:href="#font_1_1" transform="matrix(9.963098,0,0,-9.963098,110.92063,66.96469)"/>
<path transform="matrix(1.00005,0,0,-1.00005,54.247804,64.81959)" stroke-width=".3985" stroke-linecap="butt" stroke-miterlimit="10" stroke-linejoin="miter" fill="none" stroke="#000000" d="M0-51.15773V51.15773"/>
<path transform="matrix(0,1.00005,1.00005,0,54.247804,115.97987)" d="M1.99252 0-1.19551 1.59401 0 0-1.19551-1.59401"/>
<path transform="matrix(0,-1.00005,-1.00005,-0,54.247804,13.659302)" d="M1.99252 0-1.19551 1.59401 0 0-1.19551-1.59401"/>
<use data-text="y" xlink:href="#font_1_2" transform="matrix(9.963098,0,0,-9.963098,51.62667,6.2096636)"/>
<path transform="matrix(1.00005,0,0,-1.00005,54.247804,64.81959)" d="M43.5165 0C43.5165 .55023 43.07045 .99628 42.52022 .99628 41.96999 .99628 41.52394 .55023 41.52394 0 41.52394-.55023 41.96999-.99628 42.52022-.99628 43.07045-.99628 43.5165-.55023 43.5165 0ZM42.52022 0" fill="#0000ff"/>
<path transform="matrix(1.00005,0,0,-1.00005,54.247804,64.81959)" stroke-width=".3985" stroke-linecap="butt" stroke-miterlimit="10" stroke-linejoin="miter" fill="none" stroke="#0000ff" d="M43.5165 0C43.5165 .55023 43.07045 .99628 42.52022 .99628 41.96999 .99628 41.52394 .55023 41.52394 0 41.52394-.55023 41.96999-.99628 42.52022-.99628 43.07045-.99628 43.5165-.55023 43.5165 0ZM42.52022 0"/>
<path transform="matrix(1.00005,0,0,-1.00005,54.247804,64.81959)" d="M-24.51544-44.1883C-24.51544-43.63806-24.96149-43.19202-25.51172-43.19202-26.06197-43.19202-26.508-43.63806-26.508-44.1883-26.508-44.73854-26.06197-45.18457-25.51172-45.18457-24.96149-45.18457-24.51544-44.73854-24.51544-44.1883ZM-25.51172-44.1883" fill="#0000ff"/>
<path transform="matrix(1.00005,0,0,-1.00005,54.247804,64.81959)" stroke-width=".3985" stroke-linecap="butt" stroke-miterlimit="10" stroke-linejoin="miter" fill="none" stroke="#0000ff" d="M-24.51544-44.1883C-24.51544-43.63806-24.96149-43.19202-25.51172-43.19202-26.06197-43.19202-26.508-43.63806-26.508-44.1883-26.508-44.73854-26.06197-45.18457-25.51172-45.18457-24.96149-45.18457-24.51544-44.73854-24.51544-44.1883ZM-25.51172-44.1883"/>
<path transform="matrix(1.00005,0,0,-1.00005,54.247804,64.81959)" stroke-width=".3985" stroke-linecap="butt" stroke-miterlimit="10" stroke-linejoin="miter" fill="none" stroke="#0000ff" d="M0 0H42.52022"/>
<path transform="matrix(1.00005,0,0,-1.00005,54.247804,64.81959)" stroke-width=".3985" stroke-linecap="butt" stroke-miterlimit="10" stroke-linejoin="miter" fill="none" stroke="#0000ff" d="M0 0-25.51172-44.1883"/>
<path transform="matrix(1.00005,0,0,-1.00005,54.247804,64.81959)" stroke-width=".3985" stroke-linecap="butt" stroke-miterlimit="10" stroke-linejoin="miter" fill="none" stroke="#000000" d="M4.25226 0C4.25226 0 4.49374 .45744 4.56628 .65009 4.63882 .84273 4.73434 1.17383 4.7752 1.38843 4.81607 1.60304 4.85643 1.96577 4.86084 2.19684 4.86525 2.42792 4.8428 2.81259 4.80699 3.05392 4.77118 3.29524 4.68129 3.69162 4.60262 3.9363 4.52396 4.18098 4.36299 4.57704 4.23994 4.81738 4.1169 5.05772 3.88322 5.44023 3.7157 5.66861 3.54819 5.89699 3.24333 6.25484 3.03252 6.46341 2.82169 6.67197 2.44788 6.99115 2.1962 7.1719 1.9445 7.35266 1.50703 7.62056 1.21844 7.7662 .92986 7.91187 .43633 8.11787 .11612 8.22166-.20407 8.32544-.74365 8.45866-1.08934 8.51428-1.43501 8.56992-2.01141 8.62012-2.37527 8.62263-2.73914 8.62514-3.33824 8.58673-3.7118 8.53246-4.08539 8.47818-4.6937 8.34528-5.06781 8.23141-5.44194 8.11754-6.04303 7.88626-6.40825 7.71172-6.77347 7.53717-7.35355 7.20813-7.70003 6.97337-8.04651 6.7386-8.58774 6.31271-8.9055 6.0196-9.22328 5.7265-9.71082 5.2084-9.99033 4.86084-10.26982 4.51328-10.68817 3.91156-10.92006 3.51457-11.15195 3.11758-11.48567 2.43936-11.66164 1.99962-11.83762 1.55986-12.07579 .8192-12.18848 .34515-12.30118-.12888-12.43083-.91774-12.47394-1.41698-12.51706-1.91623-12.53058-2.73892-12.49925-3.25311-12.46794-3.7673-12.35727-4.60536-12.24817-5.12297-12.13905-5.64058-11.90105-6.47452-11.7129-6.98375-11.52477-7.49298-11.15907-8.30466-10.89217-8.79327-10.62526-9.28189-10.1328-10.04979-9.78918-10.50548-9.44557-10.96115-8.83173-11.66685-8.41565-12.07753-7.99959-12.48819-7.27281-13.1111-6.79039-13.46533-6.30798-13.81955-5.47954-14.34326-4.9387-14.63058-4.39786-14.91792-3.48227-15.32559-2.89236-15.53632-2.30247-15.74706-1.31477-16.02342-.68707-16.14944-.05937-16.27547 .97855-16.40984 1.63173-16.44466 2.28491-16.47948 3.35513-16.46155 4.02065-16.40053 4.68616-16.33951 5.76492-16.16428 6.42836-16.00476 7.09181-15.84525 8.15582-15.50955 8.80235-15.25084 9.44887-14.99214 10.47343-14.49611 11.0881-14.14008 11.70276-13.78406 12.66447-13.1341 13.2324-12.68481 13.80034-12.23553 14.67426-11.43823 15.18141-10.90189 15.68858-10.36555 16.4547-9.43423 16.88777-8.81923 17.32086-8.20421 17.95618-7.15259 18.30284-6.46924 18.6495-5.78589 19.13664-4.63338 19.38635-3.89413 19.63605-3.15489 19.95886-1.92226 20.10262-1.14124 20.24637-.36021 20.39151 .9274 20.42249 1.7349 20.45345 2.54237 20.41231 3.8608 20.3258 4.67854 20.23932 5.49628 20.00504 6.81804 19.79898 7.62866 19.59294 8.4393 19.16586 9.73534 18.8407 10.52104 18.51555 11.30673 17.89694 12.54823 17.45549 13.29144 17.01405 14.03465 16.21075 15.19406 15.65894 15.8776 15.10713 16.56111 14.1323 17.61066 13.47832 18.21785 12.82433 18.82503 11.6909 19.73807 10.94536 20.2538 10.1998 20.76953 8.92892 21.52446 8.10489 21.93484 7.28084 22.34525 5.89378 22.91887 5.00618 23.21172 4.11859 23.50455 2.6416 23.87961 1.70764 24.04541 .7737 24.21123-.76312 24.37541-1.72516 24.40681-2.6872 24.43822-4.25525 24.37952-5.22614 24.27185-6.197 24.16418-7.76338 23.87929-8.72255 23.63084-9.68172 23.3824-11.21222 22.86905-12.13916 22.48116-13.0661 22.09326-14.52896 21.35814-15.40332 20.83513-16.27768 20.31212-17.63913 19.36269-18.44102 18.71158-19.24292 18.06046-20.47218 16.91125-21.18289 16.1423-21.89359 15.37335-22.96132 14.04329-23.56337 13.16946-24.1654 12.29564-25.0442 10.80756-25.52211 9.84435-26.00002 8.88112-26.66751 7.26202-27.00787 6.22723-27.34824 5.19246-27.78316 3.47266-27.97525 2.38629-28.16734 1.29993-28.35617-.48592-28.39244-1.60254-28.42871-2.71916-28.36113-4.53694-28.23672-5.66148-28.11232-6.78603-27.78212-8.59831-27.49577-9.70744-27.20944-10.81657-26.61935-12.58517-26.17285-13.65543-25.72636-14.72568-24.87894-16.41298-24.27771-17.42111-23.67647-18.42924-22.58664-19.99808-21.83948-20.92142-21.09232-21.84474-19.77373-23.25844-18.8926-24.07591-18.01147-24.89339-15.48895-26.81325-17.0744-25.60654"/>
<path transform="matrix(.79573979,.6056503,.6056503,-.79573979,37.17255,90.42738)" d="M1.99252 0-1.19551 1.59401 0 0-1.19551-1.59401"/>
</svg>
