<svg xmlns="http://www.w3.org/2000/svg" xmlns:xlink="http://www.w3.org/1999/xlink" xmlns:inkscape="http://www.inkscape.org/namespaces/inkscape" version="1.1" width="209" height="181" viewBox="0 0 209 181">
<defs>
<path id="font_1_1" d="M.6589966 .23046875C.6759949 .23046875 .69400027 .23046875 .69400027 .25045777 .69400027 .27046205 .6759949 .27046205 .6589966 .27046205H.117996219C.100997928 .27046205 .08299255 .27046205 .08299255 .25045777 .08299255 .23046875 .100997928 .23046875 .117996219 .23046875H.6589966Z"/>
<path id="font_2_4" d="M.2939911 .16503906V.07800293C.2939911 .041992189 .2919922 .0309906 .21798706 .0309906H.19699097V0C.23799134 .0029907227 .2899933 .0029907227 .33198548 .0029907227 .37399293 .0029907227 .4269867 .0029907227 .46798707 0V.0309906H.44699098C.37298585 .0309906 .37098695 .041992189 .37098695 .07800293V.16503906H.47099305V.19602967H.37098695V.65075686C.37098695 .67074587 .37098695 .6767578 .35499574 .6767578 .34599305 .6767578 .34298707 .6767578 .33499146 .66474917L.027999878 .19602967V.16503906H.2939911M.2999878 .19602967H.055999757L.2999878 .5688019V.19602967Z"/>
<path id="font_2_1" d="M.45999146 .31976319C.45999146 .39982606 .45498658 .47988893 .41999818 .5539398 .37399293 .65000918 .2919922 .6660156 .25 .6660156 .18998719 .6660156 .116989139 .64001467 .07598877 .54693606 .04399109 .47789 .038986207 .39982606 .038986207 .31976319 .038986207 .24472046 .042999269 .15464783 .083999637 .07859802 .1269989-.0024719239 .19999695-.022460938 .24899292-.022460938 .30299378-.022460938 .3789978-.0014648438 .4229889 .09359741 .45498658 .16265869 .45999146 .2407074 .45999146 .31976319M.24899292-.00047302247C.20999146-.00047302247 .15098572 .024551392 .1329956 .12062073 .12199402 .18066406 .12199402 .2727356 .12199402 .3317871 .12199402 .39582826 .12199402 .46188355 .12998963 .5159149 .14898682 .63500979 .22399903 .64401248 .24899292 .64401248 .28199769 .64401248 .34799195 .6259918 .36698915 .52693179 .3769989 .47088624 .3769989 .39482118 .3769989 .3317871 .3769989 .25672914 .3769989 .18867493 .3659973 .12461853 .35099793 .029556275 .2939911-.00047302247 .24899292-.00047302247Z"/>
<path id="font_2_3" d="M.1269989 .07699585 .23298645 .18003845C.3889923 .31811524 .44898988 .3721466 .44898988 .47216798 .44898988 .5860901 .35899354 .6660156 .23699951 .6660156 .12399292 .6660156 .049987794 .57411196 .049987794 .48516847 .049987794 .4291687 .099990848 .4291687 .102996829 .4291687 .11999512 .4291687 .15499878 .44117738 .15499878 .48217774 .15499878 .5081787 .13699341 .5341797 .101989749 .5341797 .09399414 .5341797 .09199524 .5341797 .08898926 .5331726 .11199951 .59806826 .1659851 .63500979 .22399903 .63500979 .31498719 .63500979 .35798646 .5541382 .35798646 .47216798 .35798646 .39215089 .30799867 .31311036 .25299073 .25108338L.06098938 .036987306C.049987794 .025985718 .049987794 .023986817 .049987794 0H.42099L.44898988 .17404175H.42399598C.4189911 .14402771 .4119873 .1000061 .4019928 .084991458 .394989 .07699585 .32899476 .07699585 .30699159 .07699585H.1269989Z"/>
<path id="font_2_5" d="M.13198853 .327713V.35173036C.13198853 .6047821 .2559967 .64100649 .30699159 .64100649 .33099366 .64100649 .37298585 .634964 .394989 .6007538 .37998963 .6007538 .33999635 .6007538 .33999635 .5557556 .33999635 .524765 .3639984 .5097656 .38598634 .5097656 .4019928 .5097656 .43199159 .51875308 .43199159 .5577545 .43199159 .6178589 .3880005 .6660156 .30499269 .6660156 .1769867 .6660156 .041992189 .5367584 .041992189 .31570436 .041992189 .048553468 .1579895-.022460938 .25099183-.022460938 .3619995-.022460938 .45700074 .07156372 .45700074 .2036438 .45700074 .33070375 .36799623 .4267578 .25698854 .4267578 .18899536 .4267578 .1519928 .37573243 .13198853 .327713M.25099183 .0055389406C.18798828 .0055389406 .1579895 .06556702 .1519928 .080566409 .13398743 .127594 .13398743 .2076416 .13398743 .22564698 .13398743 .30369569 .1659851 .40374757 .2559967 .40374757 .27198792 .40374757 .31799317 .40374757 .34899903 .34172059 .36698915 .30470277 .36698915 .2536621 .36698915 .20463562 .36698915 .15661621 .36698915 .10658264 .34999085 .0705719 .31999208 .010528564 .27398683 .0055389406 .25099183 .0055389406Z"/>
<path id="font_2_6" d="M.16299439 .4569702C.116989139 .486969 .11299133 .52098086 .11299133 .5379791 .11299133 .598999 .17799378 .64100649 .24899292 .64100649 .32199098 .64100649 .38598634 .58898928 .38598634 .51698306 .38598634 .45996095 .34700013 .4119568 .2869873 .37695313L.16299439 .4569702M.30899049 .36193849C.3809967 .3989563 .42999269 .45095826 .42999269 .51698306 .42999269 .6090088 .34098817 .6660156 .25 .6660156 .1499939 .6660156 .068984989 .59199526 .068984989 .49897767 .068984989 .4809723 .070999149 .43595887 .11299133 .38894654 .12399292 .37695313 .16099549 .35194398 .18598938 .33494569 .12799073 .30592347 .041992189 .24984741 .041992189 .15072632 .041992189 .04458618 .14399719-.022460938 .24899292-.022460938 .3619995-.022460938 .45700074 .06060791 .45700074 .16773987 .45700074 .20379639 .44599916 .24885559 .4079895 .2909088 .3889923 .31193543 .37298585 .3219452 .30899049 .36193849M.20899964 .3199463 .33198548 .24183655C.3600006 .2228241 .40699769 .19277954 .40699769 .13169861 .40699769 .05760193 .33198548 .0055389406 .25 .0055389406 .1639862 .0055389406 .09199524 .067611698 .09199524 .15072632 .09199524 .20880127 .12399292 .27288819 .20899964 .3199463Z"/>
<path id="font_2_2" d="M.2939911 .64004519C.2939911 .66400149 .2939911 .6660156 .2709961 .6660156 .20899964 .60227969 .12098694 .60227969 .08898926 .60227969V.57128909C.10899353 .57128909 .16799927 .57128909 .21998596 .5972748V.07902527C.21998596 .042999269 .21699524 .0309906 .1269989 .0309906H.09498596V0C.12998963 .0029907227 .21699524 .0029907227 .25698854 .0029907227 .29699708 .0029907227 .38398744 .0029907227 .4189911 0V.0309906H.3869934C.29699708 .0309906 .2939911 .041992189 .2939911 .07902527V.64004519Z"/>
<path id="font_3_1" d="M.33399964 .30233766C.33999635 .32835389 .36299134 .42037965 .43299867 .42037965 .43798829 .42037965 .46199037 .42037965 .48298646 .40734864 .45498658 .402359 .43499757 .37734986 .43499757 .35334779 .43499757 .33735658 .44599916 .31835938 .47299195 .31835938 .49499513 .31835938 .5269928 .3363495 .5269928 .37635804 .5269928 .42837525 .46798707 .4423828 .43399049 .4423828 .37599183 .4423828 .34098817 .38935853 .32899476 .36634828 .3039856 .43237306 .25 .4423828 .22099304 .4423828 .116989139 .4423828 .05999756 .3133545 .05999756 .28834535 .05999756 .27833558 .069992069 .27833558 .07199097 .27833558 .07998657 .27833558 .08299255 .28033448 .084991458 .28933717 .11898804 .39535523 .18499756 .42037965 .21899414 .42037965 .23799134 .42037965 .272995 .4113617 .272995 .35334779 .272995 .32235719 .2559967 .25532533 .21899414 .11528015 .20298767 .053268434 .16799927 .011245728 .12399292 .011245728 .117996219 .011245728 .09498596 .011245728 .07398987 .024276734 .09899902 .029266358 .12098694 .05027771 .12098694 .07827759 .12098694 .105270389 .09899902 .11328125 .083999637 .11328125 .053985597 .11328125 .0289917 .08728027 .0289917 .055267335 .0289917 .009246826 .07899475-.0107421879 .12298584-.0107421879 .18899536-.0107421879 .22499085 .059280397 .22799683 .0652771 .23999024 .028274537 .27598573-.0107421879 .33599855-.0107421879 .43899537-.0107421879 .49598695 .118270877 .49598695 .14328003 .49598695 .1532898 .4869995 .1532898 .48399354 .1532898 .47499085 .1532898 .47299195 .14929199 .47099305 .14228821 .43798829 .03527832 .36999513 .011245728 .33799745 .011245728 .29899598 .011245728 .2829895 .043273927 .2829895 .07727051 .2829895 .09927368 .2889862 .121276859 .2999878 .16529846L.33399964 .30233766Z"/>
<path id="font_3_2" d="M.48599244 .38136292C.48999024 .39537049 .48999024 .39736939 .48999024 .40437318 .48999024 .42237855 .47599793 .43138124 .46099855 .43138124 .45098878 .43138124 .43499757 .42536927 .42599488 .41036988 .42399598 .405365 .41600038 .37435914 .4119873 .35635377 .40499879 .33035279 .397995 .30334474 .3919983 .27633668L.34700013 .09628296C.34298707 .08126831 .2999878 .011245728 .23399353 .011245728 .18299866 .011245728 .17199707 .055267335 .17199707 .0922699 .17199707 .1382904 .18899536 .20030213 .22299195 .28833009 .23899842 .3293457 .24299622 .3403473 .24299622 .36035157 .24299622 .405365 .21099854 .4423828 .16099549 .4423828 .06599426 .4423828 .0289917 .29733277 .0289917 .28833009 .0289917 .27833558 .038986207 .27833558 .040985109 .27833558 .050994874 .27833558 .051986696 .28033448 .056991579 .29634095 .083999637 .3903656 .12399292 .42037965 .1579895 .42037965 .1659851 .42037965 .18299866 .42037965 .18299866 .3883667 .18299866 .36335755 .17298889 .3373413 .1659851 .31834413 .12599182 .21231079 .10798645 .1552887 .10798645 .10827637 .10798645 .019256592 .17098999-.0107421879 .22999573-.0107421879 .2689972-.0107421879 .30299378 .0062561037 .33099366 .03425598 .31799317-.017745972 .30599977-.06674194 .2659912-.11973572 .23999024-.15385437 .20199585-.18309021 .1559906-.18309021 .14199829-.18309021 .09700012-.18005371 .07998657-.14074707 .09599304-.14074707 .10899353-.14074707 .12298584-.1287384 .1329956-.11973572 .14299011-.10673523 .14299011-.08773804 .14299011-.056747438 .115997318-.052734376 .10598755-.052734376 .08299255-.052734376 .049987794-.068740848 .049987794-.11773682 .049987794-.16796875 .09399414-.20507813 .1559906-.20507813 .25898744-.20507813 .3619995-.11373901 .3899994-.00074768069L.48599244 .38136292Z"/>
</defs>
<path transform="matrix(1.00002,0,0,-1.00002,9.0729069,166.52808)" stroke-width=".19925" stroke-linecap="butt" stroke-miterlimit="10" stroke-linejoin="miter" fill="none" stroke="#7f807f" d="M16.1901-1.4173V1.41731M48.57031-1.4173V1.41731M80.95053-1.4173V1.41731M113.33073-1.4173V1.41731M145.71096-1.4173V1.41731M178.09117-1.4173V1.41731"/>
<path transform="matrix(1.00002,0,0,-1.00002,9.0729069,166.52808)" stroke-width=".19925" stroke-linecap="butt" stroke-miterlimit="10" stroke-linejoin="miter" fill="none" stroke="#7f807f" d="M0-2.12576V2.12576M32.3802-2.12576V2.12576M97.14064-2.12576V2.12576M129.52085-2.12576V2.12576M161.90106-2.12576V2.12576M194.28128-2.12576V2.12576"/>
<path transform="matrix(1.00002,0,0,-1.00002,9.0729069,166.52808)" stroke-width=".19925" stroke-linecap="butt" stroke-miterlimit="10" stroke-linejoin="miter" fill="none" stroke="#7f807f" d="M62.63443 40.34909H66.8864M62.63443 80.69818H66.8864M62.63443 121.04727H66.8864M62.63443 161.39636H66.8864"/>
<path transform="matrix(1.00002,0,0,-1.00002,9.0729069,166.52808)" stroke-width=".3985" stroke-linecap="butt" stroke-miterlimit="10" stroke-linejoin="miter" fill="none" stroke="#000000" d="M0 0H192.28876"/>
<path transform="matrix(1.00002,0,0,-1.00002,201.36551,166.52808)" d="M1.99252 0-1.19551 1.59401 0 0-1.19551-1.59401"/>
<path transform="matrix(1.00002,0,0,-1.00002,9.0729069,166.52808)" stroke-width=".3985" stroke-linecap="butt" stroke-miterlimit="10" stroke-linejoin="miter" fill="none" stroke="#000000" d="M64.76042 0V159.40384"/>
<path transform="matrix(0,-1.00002,-1.00002,-0,73.834629,7.121048)" d="M1.99252 0-1.19551 1.59401 0 0-1.19551-1.59401"/>
<use data-text="&#x2212;" xlink:href="#font_1_1" transform="matrix(9.962799,0,0,-9.962799,.21672821,178.59432)"/>
<use data-text="4" xlink:href="#font_2_4" transform="matrix(9.962799,0,0,-9.962799,7.9658815,178.59432)"/>
<use data-text="0" xlink:href="#font_2_1" transform="matrix(9.962799,0,0,-9.962799,12.947281,178.59432)"/>
<use data-text="&#x2212;" xlink:href="#font_1_1" transform="matrix(9.962799,0,0,-9.962799,32.597375,178.59432)"/>
<use data-text="2" xlink:href="#font_2_3" transform="matrix(9.962799,0,0,-9.962799,40.346529,178.59432)"/>
<use data-text="0" xlink:href="#font_2_1" transform="matrix(9.962799,0,0,-9.962799,45.327928,178.59432)"/>
<use data-text="2" xlink:href="#font_2_3" transform="matrix(9.962799,0,0,-9.962799,101.23375,178.59432)"/>
<use data-text="0" xlink:href="#font_2_1" transform="matrix(9.962799,0,0,-9.962799,106.21515,178.59432)"/>
<use data-text="4" xlink:href="#font_2_4" transform="matrix(9.962799,0,0,-9.962799,133.61441,178.59432)"/>
<use data-text="0" xlink:href="#font_2_1" transform="matrix(9.962799,0,0,-9.962799,138.5958,178.59432)"/>
<use data-text="6" xlink:href="#font_2_5" transform="matrix(9.962799,0,0,-9.962799,165.99605,178.59432)"/>
<use data-text="0" xlink:href="#font_2_1" transform="matrix(9.962799,0,0,-9.962799,170.97745,178.59432)"/>
<use data-text="8" xlink:href="#font_2_6" transform="matrix(9.962799,0,0,-9.962799,198.3767,178.59432)"/>
<use data-text="0" xlink:href="#font_2_1" transform="matrix(9.962799,0,0,-9.962799,203.3581,178.59432)"/>
<use data-text="4" xlink:href="#font_2_4" transform="matrix(9.962799,0,0,-9.962799,63.20699,129.38834)"/>
<use data-text="8" xlink:href="#font_2_6" transform="matrix(9.962799,0,0,-9.962799,63.20699,89.03853)"/>
<use data-text="1" xlink:href="#font_2_2" transform="matrix(9.962799,0,0,-9.962799,58.22589,48.68872)"/>
<use data-text="2" xlink:href="#font_2_3" transform="matrix(9.962799,0,0,-9.962799,63.20729,48.68872)"/>
<use data-text="1" xlink:href="#font_2_2" transform="matrix(9.962799,0,0,-9.962799,58.22589,8.338898)"/>
<use data-text="6" xlink:href="#font_2_5" transform="matrix(9.962799,0,0,-9.962799,63.20729,8.338898)"/>
<path transform="matrix(1.00002,0,0,-1.00002,9.0729069,166.52808)" stroke-width=".99628" stroke-linecap="butt" stroke-miterlimit="10" stroke-linejoin="miter" fill="none" stroke="#0000ff" d="M0 80.69978 .97626 88.3314 1.95253 95.89525 2.92882 103.32191 3.90509 110.54599 4.88138 117.5038 5.85765 124.13072 6.83394 130.3695 7.81021 136.15959 8.7865 141.45583 9.76276 146.20655 10.73904 150.36815 11.71532 153.90837 12.6916 156.79012 13.66788 158.99155 14.64415 160.48607 15.62044 161.26967 16.59671 161.33019 17.573 160.66603 18.54927 159.28934 19.52554 157.20328 20.50182 154.43532 21.4781 151.00162 22.45438 146.9425 23.43066 142.2854 24.40694 137.07715 25.38322 131.36614 26.3595 125.19838 27.33577 118.63277 28.31206 111.72581 29.28831 104.54207 30.2646 97.14284 31.24088 89.59756 32.21716 81.974 33.19344 74.33835 34.16972 66.75838 35.146 59.30347 36.12228 52.03981 37.09856 45.03442 38.07484 38.34778 39.0511 32.0396 40.02737 26.1712 41.00366 20.78783 41.97993 15.94514 42.95622 11.68184 43.9325 8.0359 44.90878 5.042 45.88506 2.72516 46.86134 1.1104 47.83762 .20657 48.81389 .02742 49.79016 .5673 50.76645 1.82861 51.74272 3.79604 52.719 6.4526 53.69528 9.77657 54.67155 13.73239 55.64784 18.29427 56.62411 23.41214 57.60039 29.04326 58.57666 35.1392 59.55295 41.63945 60.52922 48.49475 61.50551 55.63654 62.48178 63.00508 63.45807 70.5302 64.43434 78.14648 65.41061 85.78458 66.3869 93.37907 67.36316 100.85818 68.33945 108.15976 69.31572 115.21198 70.292 121.95755 71.26828 128.32947 72.24457 134.27692 73.22084 139.74501 74.19713 144.68054 75.1734 149.0455 76.14969 152.79553 77.12595 155.90082 78.10222 158.32982 79.0785 160.06484 80.05478 161.0897 81.03107 161.3899 82.00734 160.97028 82.98363 159.82918 83.9599 157.97716 84.93619 155.43437 85.91246 152.22098 86.88873 148.36844 87.865 143.90502 88.8413 138.87833 89.81757 133.32872 90.79384 127.30782 91.77013 120.86893 92.7464 114.06929 93.72269 106.9719 94.69896 99.6348 95.67523 92.1331 96.6515 84.52649 97.62779 76.8868 98.60413 69.27937 99.58032 61.77846 100.55666 54.4406 101.53284 47.3432 102.50919 40.54276 103.48552 34.10223 104.46172 28.08134 105.43803 22.53012 106.41423 17.50261 107.39056 13.03758 108.36691 9.18344 109.3431 5.9668 110.31944 3.42401 111.29562 1.57118 112.27197 .4285 113.2483 .00644 114.22449 .30502 115.20082 1.32828 116.177 3.06087 117.15335 5.48907 118.12968 8.59354 119.10588 12.34036 120.08221 16.7045 121.05841 21.64 122.03474 27.1057 123.0111 33.05234 123.98727 39.42429 124.96361 46.16983 125.93979 53.22043 126.91614 60.522 127.89247 68.00192 128.86865 75.59401 129.845 83.23209 130.82118 90.8484 131.79753 98.3743 132.77387 105.74365 133.75006 112.88463 134.72638 119.74077 135.70258 126.24261 136.67891 132.34017 137.65526 137.9745 138.63144 143.09078 139.60779 147.65425 140.58397 151.6117 141.5603 154.93807 142.53665 157.59548 143.51284 159.56449 144.48917 160.82663 145.46535 161.36891 146.4417 161.19055 147.41803 160.28836 148.39423 158.67682 149.37056 156.35997 150.34676 153.3693 151.32309 149.72417 152.29943 145.46251 153.2756 140.61817 154.25194 135.23723 155.22814 129.37128 156.20447 123.06471 157.18082 116.37807 158.157 109.37267 159.13335 102.10901 160.10953 94.65573 161.08588 87.07576 162.0622 79.43927 163.03838 71.81653 164.01474 64.26962 164.99094 56.87122 165.96727 49.68587 166.94359 42.77809 167.91977 36.21329 168.89614 30.04391 169.87232 24.33128 170.84865 19.12141 171.82498 14.46432 172.80115 10.4036 173.77751 6.96826 174.7537 4.19789 175.73004 2.11266 176.70638 .73111 177.68256 .06778 178.65892 .12589 179.6351 .90784 180.61144 2.39995 181.58777 4.6014 182.56394 7.4815 183.5403 11.01932 184.51648 15.18011 185.49283 19.92921 186.46915 25.22299 187.44535 31.01309 188.42169 37.25107 189.39789 43.8756 190.3742 50.8342 191.35053 58.05829 192.32672 65.48332 193.30307 73.04797 194.27925 80.6796"/>
<use data-text="x" xlink:href="#font_3_1" transform="matrix(9.962799,0,0,-9.962799,194.14362,163.00801)"/>
<use data-text="y" xlink:href="#font_3_2" transform="matrix(9.962799,0,0,-9.962799,77.35427,12.937988)"/>
</svg>
