<svg xmlns="http://www.w3.org/2000/svg" xmlns:xlink="http://www.w3.org/1999/xlink" version="1.1" width="272" height="165" viewBox="0 0 272 165">
<defs>
<path id="font_1_1" d="M.6589966 .23046875C.6759949 .23046875 .69400027 .23046875 .69400027 .25045777 .69400027 .27046205 .6759949 .27046205 .6589966 .27046205H.117996219C.100997928 .27046205 .08299255 .27046205 .08299255 .25045777 .08299255 .23046875 .100997928 .23046875 .117996219 .23046875H.6589966Z"/>
<path id="font_2_5" d="M.1269989 .07699585 .23298645 .18003845C.3889923 .31811524 .44898988 .3721466 .44898988 .47216798 .44898988 .5860901 .35899354 .6660156 .23699951 .6660156 .12399292 .6660156 .049987794 .57411196 .049987794 .48516847 .049987794 .4291687 .099990848 .4291687 .102996829 .4291687 .11999512 .4291687 .15499878 .44117738 .15499878 .48217774 .15499878 .5081787 .13699341 .5341797 .101989749 .5341797 .09399414 .5341797 .09199524 .5341797 .08898926 .5331726 .11199951 .59806826 .1659851 .63500979 .22399903 .63500979 .31498719 .63500979 .35798646 .5541382 .35798646 .47216798 .35798646 .39215089 .30799867 .31311036 .25299073 .25108338L.06098938 .036987306C.049987794 .025985718 .049987794 .023986817 .049987794 0H.42099L.44898988 .17404175H.42399598C.4189911 .14402771 .4119873 .1000061 .4019928 .084991458 .394989 .07699585 .32899476 .07699585 .30699159 .07699585H.1269989Z"/>
<path id="font_3_1" d="M.2649994 .37265016H.37799073C.34498597 .22489929 .33599855 .18196106 .33599855 .11508179 .33599855 .100097659 .33599855 .073150638 .34399415 .03919983 .35398866-.0047454836 .36499024-.0107421879 .37998963-.0107421879 .3999939-.0107421879 .42099 .007247925 .42099 .02722168 .42099 .033218385 .42099 .035202028 .4149933 .049179079 .38598634 .12106323 .38598634 .18595886 .38598634 .21391297 .38598634 .26683045 .3929901 .32073976 .4039917 .37265016H.5179901C.5309906 .37265016 .5669861 .37265016 .5669861 .406662 .5669861 .43066407 .54599 .43066407 .5269928 .43066407H.19198609C.16999817 .43066407 .13198853 .43066407 .08799744 .38365174 .052993776 .34469605 .026992798 .29878236 .026992798 .29379273 .026992798 .29278565 .026992798 .28379823 .038986207 .28379823 .04699707 .28379823 .04899597 .28779603 .054992677 .29577638 .10398865 .37265016 .1619873 .37265016 .18199158 .37265016H.23899842C.20698548 .25186158 .15299988 .13105774 .11099243 .04020691 .102996829 .025222779 .102996829 .023223877 .102996829 .016235352 .102996829-.002746582 .11898804-.0107421879 .13198853-.0107421879 .1619873-.0107421879 .16999817 .017242432 .18199158 .05418396 .19599915 .100097659 .19599915 .10209656 .20899964 .15202332L.2649994 .37265016Z"/>
<path id="font_2_6" d="M.2899933 .35191346C.37199403 .37893678 .42999269 .4490509 .42999269 .52809146 .42999269 .6100464 .34199525 .6660156 .24598694 .6660156 .14498902 .6660156 .068984989 .60606387 .068984989 .53009036 .068984989 .49710084 .09098816 .47808839 .11999512 .47808839 .15098572 .47808839 .17098999 .50009158 .17098999 .5290985 .17098999 .57910159 .12399292 .57910159 .10899353 .57910159 .13999939 .62802127 .20599365 .64100649 .24198914 .64100649 .2829895 .64100649 .33799745 .6190338 .33799745 .5290985 .33799745 .51708987 .33599855 .45906068 .30999757 .4149933 .27999879 .36691285 .24598694 .36390687 .22099304 .36291505 .21299744 .36190797 .18899536 .35990907 .18199158 .35990907 .17399597 .35890199 .16699219 .35791017 .16699219 .3479004 .16699219 .33691407 .17399597 .33691407 .19099427 .33691407H.23498535C.31698609 .33691407 .35398866 .2686615 .35398866 .17037964 .35398866 .034469606 .2849884 .0055389406 .24099732 .0055389406 .19799805 .0055389406 .12298584 .022491456 .08799744 .08137512 .12298584 .07637024 .1539917 .09837341 .1539917 .1363678 .1539917 .17237854 .1269989 .19238281 .09799194 .19238281 .07398987 .19238281 .041992189 .17837525 .041992189 .1343689 .041992189 .043441774 .1349945-.022460938 .24398804-.022460938 .3659973-.022460938 .45700074 .06838989 .45700074 .17037964 .45700074 .252594 .3939972 .33088685 .2899933 .35191346Z"/>
<path id="font_2_4" d="M.2939911 .64004519C.2939911 .66400149 .2939911 .6660156 .2709961 .6660156 .20899964 .60227969 .12098694 .60227969 .08898926 .60227969V.57128909C.10899353 .57128909 .16799927 .57128909 .21998596 .5972748V.07902527C.21998596 .042999269 .21699524 .0309906 .1269989 .0309906H.09498596V0C.12998963 .0029907227 .21699524 .0029907227 .25698854 .0029907227 .29699708 .0029907227 .38398744 .0029907227 .4189911 0V.0309906H.3869934C.29699708 .0309906 .2939911 .041992189 .2939911 .07902527V.64004519Z"/>
<path id="font_3_3" d="M.48599244 .38136292C.48999024 .39537049 .48999024 .39736939 .48999024 .40437318 .48999024 .42237855 .47599793 .43138124 .46099855 .43138124 .45098878 .43138124 .43499757 .42536927 .42599488 .41036988 .42399598 .405365 .41600038 .37435914 .4119873 .35635377 .40499879 .33035279 .397995 .30334474 .3919983 .27633668L.34700013 .09628296C.34298707 .08126831 .2999878 .011245728 .23399353 .011245728 .18299866 .011245728 .17199707 .055267335 .17199707 .0922699 .17199707 .1382904 .18899536 .20030213 .22299195 .28833009 .23899842 .3293457 .24299622 .3403473 .24299622 .36035157 .24299622 .405365 .21099854 .4423828 .16099549 .4423828 .06599426 .4423828 .0289917 .29733277 .0289917 .28833009 .0289917 .27833558 .038986207 .27833558 .040985109 .27833558 .050994874 .27833558 .051986696 .28033448 .056991579 .29634095 .083999637 .3903656 .12399292 .42037965 .1579895 .42037965 .1659851 .42037965 .18299866 .42037965 .18299866 .3883667 .18299866 .36335755 .17298889 .3373413 .1659851 .31834413 .12599182 .21231079 .10798645 .1552887 .10798645 .10827637 .10798645 .019256592 .17098999-.0107421879 .22999573-.0107421879 .2689972-.0107421879 .30299378 .0062561037 .33099366 .03425598 .31799317-.017745972 .30599977-.06674194 .2659912-.11973572 .23999024-.15385437 .20199585-.18309021 .1559906-.18309021 .14199829-.18309021 .09700012-.18005371 .07998657-.14074707 .09599304-.14074707 .10899353-.14074707 .12298584-.1287384 .1329956-.11973572 .14299011-.10673523 .14299011-.08773804 .14299011-.056747438 .115997318-.052734376 .10598755-.052734376 .08299255-.052734376 .049987794-.068740848 .049987794-.11773682 .049987794-.16796875 .09399414-.20507813 .1559906-.20507813 .25898744-.20507813 .3619995-.11373901 .3899994-.00074768069L.48599244 .38136292Z"/>
<path id="font_2_7" d="M.68699648 .32714845C.70199587 .32714845 .72099307 .32714845 .72099307 .34713746 .72099307 .36714173 .70199587 .36714173 .6879883 .36714173H.08898926C.07499695 .36714173 .055999757 .36714173 .055999757 .34713746 .055999757 .32714845 .07499695 .32714845 .08999634 .32714845H.68699648M.6879883 .13284302C.70199587 .13284302 .72099307 .13284302 .72099307 .15284729 .72099307 .17285156 .70199587 .17285156 .68699648 .17285156H.08999634C.07499695 .17285156 .055999757 .17285156 .055999757 .15284729 .055999757 .13284302 .07499695 .13284302 .08898926 .13284302H.6879883Z"/>
<path id="font_2_10" d="M.20799256 .19424439C.22999573 .19024658 .31199647 .17424011 .31199647 .102249149 .31199647 .051254274 .2769928 .011245728 .19898987 .011245728 .114990238 .011245728 .07899475 .06825256 .05999756 .15324402 .056991579 .1662445 .055999757 .17024231 .04598999 .17024231 .032989503 .17024231 .032989503 .16323853 .032989503 .14524842V.013244629C.032989503-.003753662 .032989503-.0107421879 .04399109-.0107421879 .04899597-.0107421879 .049987794-.009750366 .068984989 .009246826 .070999149 .011245728 .070999149 .013244629 .08898926 .03224182 .1329956-.009750366 .17799378-.0107421879 .19898987-.0107421879 .31399537-.0107421879 .3600006 .056243898 .3600006 .12825012 .3600006 .1812439 .32998658 .21124268 .31799317 .22323609 .2849884 .25523377 .24598694 .26324464 .20399475 .27124024 .147995 .28224183 .08099365 .2952423 .08099365 .35324098 .08099365 .38822938 .10699463 .42922975 .19299317 .42922975 .30299378 .42922975 .30799867 .3392334 .30999757 .3082428 .31098939 .2992401 .31999208 .2992401 .32199098 .2992401 .33499146 .2992401 .33499146 .304245 .33499146 .3232422V.4242401C.33499146 .4412384 .33499146 .4482422 .32398988 .4482422 .31900025 .4482422 .31698609 .4482422 .3039856 .43623353 .30099488 .43223573 .29100038 .42323304 .2869873 .42022706 .24899292 .4482422 .20799256 .4482422 .19299317 .4482422 .070999149 .4482422 .032989503 .38124085 .032989503 .3252411 .032989503 .29023744 .04899597 .26223756 .07598877 .24023438 .10798645 .21424866 .13598633 .2082367 .20799256 .19424439Z"/>
<path id="font_2_8" d="M.1769867 .4423828 .036987306 .43138124V.40037538C.101989749 .40037538 .11099243 .3943634 .11099243 .34532167V.076034549C.11099243 .0309906 .099990848 .0309906 .032989503 .0309906V0C.06498718 .0009918213 .11898804 .0029907227 .14299011 .0029907227 .17799378 .0029907227 .21299744 .0009918213 .24699402 0V.0309906C.18099976 .0309906 .1769867 .035995485 .1769867 .075042728V.4423828M.18099976 .6159363C.18099976 .64793398 .1559906 .6689453 .12799073 .6689453 .09700012 .6689453 .07499695 .64193728 .07499695 .6159363 .07499695 .5889435 .09700012 .5629425 .12799073 .5629425 .1559906 .5629425 .18099976 .5839386 .18099976 .6159363Z"/>
<path id="font_2_9" d="M.10998535 .34429933V.076034549C.10998535 .0309906 .09899902 .0309906 .03199768 .0309906V0C.066986087 .0009918213 .117996219 .0029907227 .14498902 .0029907227 .17098999 .0029907227 .22299195 .0009918213 .25698854 0V.0309906C.18998719 .0309906 .1789856 .0309906 .1789856 .076034549V.2602234C.1789856 .36431886 .25 .42037965 .31399537 .42037965 .3769989 .42037965 .3880005 .36631776 .3880005 .30926515V.076034549C.3880005 .0309906 .3769989 .0309906 .30999757 .0309906V0C.34498597 .0009918213 .3959961 .0029907227 .4229889 .0029907227 .44898988 .0029907227 .5009918 .0009918213 .5349884 0V.0309906C.48298646 .0309906 .45799256 .0309906 .45700074 .061019899V.25221253C.45700074 .3383026 .45700074 .36932374 .42599488 .405365 .4119873 .42237855 .3789978 .4423828 .32099916 .4423828 .24798584 .4423828 .20098877 .39935304 .17298889 .33729554V.4423828L.03199768 .43138124V.40037538C.101989749 .4003601 .10998535 .39335633 .10998535 .34429933Z"/>
<path id="font_2_1" d="M.33099366-.2400055C.33099366-.23701477 .33099366-.23500061 .31399537-.21800232 .18899536-.0920105 .15699768 .09700012 .15699768 .25 .15699768 .42399598 .19499207 .59799197 .31799317 .72299197 .33099366 .73498538 .33099366 .7369995 .33099366 .73999026 .33099366 .746994 .32699586 .75 .32099916 .75 .31098939 .75 .22099304 .6819916 .1619873 .5549927 .11099243 .44499208 .09899902 .33399964 .09899902 .25 .09899902 .17199707 .10998535 .050994874 .16499329-.06201172 .22499085-.18501282 .31098939-.25 .32099916-.25 .32699586-.25 .33099366-.24700928 .33099366-.2400055Z"/>
<path id="font_3_2" d="M.33399964 .30233766C.33999635 .32835389 .36299134 .42037965 .43299867 .42037965 .43798829 .42037965 .46199037 .42037965 .48298646 .40734864 .45498658 .402359 .43499757 .37734986 .43499757 .35334779 .43499757 .33735658 .44599916 .31835938 .47299195 .31835938 .49499513 .31835938 .5269928 .3363495 .5269928 .37635804 .5269928 .42837525 .46798707 .4423828 .43399049 .4423828 .37599183 .4423828 .34098817 .38935853 .32899476 .36634828 .3039856 .43237306 .25 .4423828 .22099304 .4423828 .116989139 .4423828 .05999756 .3133545 .05999756 .28834535 .05999756 .27833558 .069992069 .27833558 .07199097 .27833558 .07998657 .27833558 .08299255 .28033448 .084991458 .28933717 .11898804 .39535523 .18499756 .42037965 .21899414 .42037965 .23799134 .42037965 .272995 .4113617 .272995 .35334779 .272995 .32235719 .2559967 .25532533 .21899414 .11528015 .20298767 .053268434 .16799927 .011245728 .12399292 .011245728 .117996219 .011245728 .09498596 .011245728 .07398987 .024276734 .09899902 .029266358 .12098694 .05027771 .12098694 .07827759 .12098694 .105270389 .09899902 .11328125 .083999637 .11328125 .053985597 .11328125 .0289917 .08728027 .0289917 .055267335 .0289917 .009246826 .07899475-.0107421879 .12298584-.0107421879 .18899536-.0107421879 .22499085 .059280397 .22799683 .0652771 .23999024 .028274537 .27598573-.0107421879 .33599855-.0107421879 .43899537-.0107421879 .49598695 .118270877 .49598695 .14328003 .49598695 .1532898 .4869995 .1532898 .48399354 .1532898 .47499085 .1532898 .47299195 .14929199 .47099305 .14228821 .43798829 .03527832 .36999513 .011245728 .33799745 .011245728 .29899598 .011245728 .2829895 .043273927 .2829895 .07727051 .2829895 .09927368 .2889862 .121276859 .2999878 .16529846L.33399964 .30233766Z"/>
<path id="font_2_2" d="M.2889862 .25C.2889862 .32798768 .27799989 .44898988 .22299195 .56199648 .16299439 .68499758 .07699585 .75 .066986087 .75 .06098938 .75 .056991579 .74598696 .056991579 .73999026 .056991579 .7369995 .056991579 .73498538 .07598877 .71699526 .17399597 .6179962 .23098755 .45899964 .23098755 .25 .23098755 .07899475 .19400025-.09700012 .069992069-.2230072 .056991579-.23500061 .056991579-.23701477 .056991579-.2400055 .056991579-.2460022 .06098938-.25 .066986087-.25 .07699585-.25 .16699219-.18200684 .22599793-.055007936 .2769928 .054992677 .2889862 .16600037 .2889862 .25Z"/>
<path id="font_2_3" d="M.40899659 .23046875H.6879883C.70199587 .23046875 .72099307 .23046875 .72099307 .25045777 .72099307 .27046205 .70199587 .27046205 .6879883 .27046205H.40899659V.5500183C.40899659 .56399539 .40899659 .5830078 .3889923 .5830078 .36898805 .5830078 .36898805 .56399539 .36898805 .5500183V.27046205H.08898926C.07499695 .27046205 .055999757 .27046205 .055999757 .25045777 .055999757 .23046875 .07499695 .23046875 .08898926 .23046875H.36898805V-.05000305C.36898805-.06401062 .36898805-.08300781 .3889923-.08300781 .40899659-.08300781 .40899659-.06401062 .40899659-.05000305V.23046875Z"/>
</defs>
<path transform="matrix(1.00005,0,0,-1.00003,3.7864915,163.19641)" stroke-width=".19925" stroke-linecap="butt" stroke-miterlimit="10" stroke-linejoin="miter" fill="none" stroke="#929292" d="M5.814 12.03197V14.867M24.0792 12.03197V14.867M42.3444 12.03197V14.867M60.6096 12.03197V14.867M78.87482 12.03197V14.867M97.14003 12.03197V14.867M115.40523 12.03197V14.867M133.67044 12.03197V14.867M151.93566 12.03197V14.867M170.20085 12.03197V14.867M188.46607 12.03197V14.867"/>
<path transform="matrix(1.00005,0,0,-1.00003,3.7864915,163.19641)" stroke-width=".19925" stroke-linecap="butt" stroke-miterlimit="10" stroke-linejoin="miter" fill="none" stroke="#929292" d="M5.814 11.32341V15.57555M42.34439 11.32341V15.57555M115.40523 11.32341V15.57555M151.93566 11.32341V15.57555M188.46607 11.32341V15.57555"/>
<path transform="matrix(1.00005,0,0,-1.00003,3.7864915,163.19641)" stroke-width=".19925" stroke-linecap="butt" stroke-miterlimit="10" stroke-linejoin="miter" fill="none" stroke="#929292" d="M77.45732 47.07323H80.29231M77.45732 114.3207H80.29231"/>
<path transform="matrix(1.00005,0,0,-1.00003,3.7864915,163.19641)" stroke-width=".19925" stroke-linecap="butt" stroke-miterlimit="10" stroke-linejoin="miter" fill="none" stroke="#929292" d="M76.7488 80.69696H81.00082M76.7488 147.94443H81.00082"/>
<path transform="matrix(1.00005,0,0,-1.00003,3.7864915,163.19641)" stroke-width=".3985" stroke-linecap="butt" stroke-miterlimit="10" stroke-linejoin="miter" fill="none" stroke="#000000" d="M0 13.4495H192.28754"/>
<path transform="matrix(1.00005,0,0,-1.00003,196.08362,149.7465)" d="M1.99252 0-1.19551 1.59401 0 0-1.19551-1.59401"/>
<path transform="matrix(1.00005,0,0,-1.00003,3.7864915,163.19641)" stroke-width=".3985" stroke-linecap="butt" stroke-miterlimit="10" stroke-linejoin="miter" fill="none" stroke="#000000" d="M78.87482 0V159.4014"/>
<path transform="matrix(0,-1.00003,-1.00005,-0,82.665248,3.7902222)" d="M1.99252 0-1.19551 1.59401 0 0-1.19551-1.59401"/>
<use data-text="&#x2212;" xlink:href="#font_1_1" transform="matrix(9.963098,0,0,-9.962899,.21731568,161.81337)"/>
<use data-text="2" xlink:href="#font_2_5" transform="matrix(9.963098,0,0,-9.962899,7.9667055,161.81337)"/>
<use data-text="&#x03c0;" xlink:href="#font_3_1" transform="matrix(9.963098,0,0,-9.962899,12.947952,161.81337)"/>
<use data-text="&#x2212;" xlink:href="#font_1_1" transform="matrix(9.963098,0,0,-9.962899,39.24026,161.20435)"/>
<use data-text="&#x03c0;" xlink:href="#font_3_1" transform="matrix(9.963098,0,0,-9.962899,46.98965,161.20435)"/>
<use data-text="&#x03c0;" xlink:href="#font_3_1" transform="matrix(9.963098,0,0,-9.962899,116.17911,159.68231)"/>
<use data-text="2" xlink:href="#font_2_5" transform="matrix(9.963098,0,0,-9.962899,150.2208,161.81337)"/>
<use data-text="&#x03c0;" xlink:href="#font_3_1" transform="matrix(9.963098,0,0,-9.962899,155.20307,161.81337)"/>
<use data-text="3" xlink:href="#font_2_6" transform="matrix(9.963098,0,0,-9.962899,186.75263,161.81337)"/>
<use data-text="&#x03c0;" xlink:href="#font_3_1" transform="matrix(9.963098,0,0,-9.962899,191.7349,161.81337)"/>
<use data-text="1" xlink:href="#font_2_4" transform="matrix(9.963098,0,0,-9.962899,72.0379,85.707088)"/>
<use data-text="2" xlink:href="#font_2_5" transform="matrix(9.963098,0,0,-9.962899,72.0379,18.458069)"/>
<path transform="matrix(1.00005,0,0,-1.00003,3.7864915,163.19641)" stroke-width=".99628" stroke-linecap="butt" stroke-miterlimit="10" stroke-linejoin="miter" fill="none" stroke="#0000ff" stroke-opacity=".5" d="M.54706 51.29605 .97624 53.52158 1.9525 58.77293 2.92877 64.18365 3.90503 69.70737 4.8813 75.30977 5.85756 80.94844 6.83383 86.58582 7.81009 92.18282 8.78636 97.69846 9.76262 103.09573 10.73888 108.33296 11.71513 113.37787 12.6914 118.1901 13.66766 122.73871 14.64394 126.99213 15.6202 130.91803 16.59645 134.49292 17.57272 137.68717 18.54898 140.4786 19.52525 142.84975 20.5015 144.78311 21.47777 146.26592 22.45403 147.28673 23.4303 147.83684 24.40656 147.91483 25.38283 147.51941 26.35909 146.6526 27.33536 145.32244 28.31161 143.53635 29.28789 141.30643 30.26413 138.65082 31.24039 135.58702 32.21666 132.13588 33.19292 128.3243 34.16919 124.17311 35.14545 119.71796 36.12172 114.98979 37.09798 110.01685 38.07425 104.83946 39.0505 99.49127 40.02676 94.01059 41.00302 88.43579 41.9793 82.8065 42.95555 77.16512 43.93182 71.54593 44.90808 65.99194 45.88435 60.54086 46.86061 55.23169 47.83687 50.10205 48.81314 45.18826 49.78938 40.52467 50.76566 36.14415 51.74191 32.0777 52.71819 28.35152 53.69444 24.99521 54.67072 22.0343 55.64697 19.48428 56.62325 17.36531 57.5995 15.6915 58.57578 14.47568 59.55203 13.73058 60.52829 13.45486 61.50455 13.65257 62.4808 14.32169 63.45708 15.45682 64.43333 17.05394 65.4096 19.10164 66.38586 21.58037 67.36214 24.47604 68.3384 27.76646 69.31467 31.43213 70.29091 35.4441 71.26718 39.77553 72.24344 44.39273 73.21971 49.26817 74.19597 54.36351 75.17224 59.64647 76.1485 65.0767 77.12477 70.61522 78.10103 76.22499 79.07729 81.86772 80.05354 87.50104 81.0298 93.08595 82.00607 98.58612 82.98233 103.95985 83.9586 109.16885 84.93486 114.17677 85.91113 118.94865 86.88739 123.45222 87.86366 127.65384 88.83992 131.52663 89.81618 135.03964 90.79243 138.16732 91.76869 140.89284 92.74496 143.19472 93.72124 145.05614 94.6975 146.46497 95.67375 147.40779 96.65002 147.88054 97.62628 147.88187 98.60262 147.41115 99.57877 146.46903 100.5551 145.0622 101.53127 143.20279 102.5076 140.90227 103.48392 138.1801 104.4601 135.05242 105.43642 131.54076 106.4126 127.66931 107.38892 123.46837 108.36523 118.96613 109.3414 114.19626 110.31772 109.18835 111.2939 103.9807 112.27022 98.60696 113.24655 93.10814 114.22272 87.52257 115.19905 81.88857 116.17522 76.24785 117.15154 70.63673 118.12787 65.09688 119.10405 59.66599 120.08035 54.38301 121.05653 49.28767 122.03287 44.41158 123.00919 39.79167 123.98534 35.45958 124.96167 31.44626 125.93784 27.77992 126.91417 24.48816 127.89049 21.59047 128.86669 19.1097 129.84297 17.06134 130.81916 15.46153 131.79549 14.32504 132.7718 13.6539 133.74799 13.45352 134.7243 13.72856 135.70047 14.47232 136.6768 15.68614 137.65312 17.35791 138.6293 19.47554 139.6056 22.02354 140.58179 24.9831 141.5581 28.33807 142.53444 32.06224 143.51062 36.1287 144.48694 40.50784 145.4631 45.17012 146.43944 50.08255 147.41577 55.21217 148.39192 60.52069 149.36824 65.9711 150.34442 71.52438 151.32074 77.1436 152.29706 82.78497 153.27324 88.41428 154.24958 93.98907 155.22573 99.46976 156.20207 104.81996 157.1784 109.99734 158.15456 114.97098 159.13086 119.70049 160.10704 124.15833 161.08338 128.30883 162.0597 132.12244 163.03588 135.57492 164.01219 138.63939 164.98838 141.29633 165.96469 143.52896 166.94101 145.31639 167.91719 146.64923 168.89351 147.51673 169.86968 147.91349 170.84601 147.83884 171.82233 147.28943 172.7985 146.27062 173.77483 144.79053 174.751 142.85715 175.72733 140.4887 176.70365 137.69858 177.67981 134.50635 178.65615 130.93216 179.6323 127.00827 180.60863 122.7562 181.58495 118.20894 182.56113 113.39737 183.53745 108.35248 184.51363 103.11658 185.48996 97.7193 186.46628 92.20366 187.44246 86.60732 188.41878 80.96997 189.39493 75.33128 190.37125 69.72957 191.34758 64.20451 192.32376 58.79445 193.30008 53.54109 193.72933 51.3149"/>
<path transform="matrix(-.18935946,.9819195,.9819391,.18935569,4.3335788,111.8988)" d="M2.8892 0-1.73352 2.31136 0 0-1.73352-2.31136" fill="#0000ff" fill-opacity=".5"/>
<path transform="matrix(.18930947,.9819195,.9819391,-.1893057,197.52548,111.87996)" d="M2.8892 0-1.73352 2.31136 0 0-1.73352-2.31136" fill="#0000ff" fill-opacity=".5"/>
<use data-text="y" xlink:href="#font_3_3" transform="matrix(9.963098,0,0,-9.962899,201.89139,117.20803)" fill="#0000ff" fill-opacity=".5"/>
<use data-text="=" xlink:href="#font_2_7" transform="matrix(9.963098,0,0,-9.962899,209.90178,117.20803)" fill="#0000ff" fill-opacity=".5"/>
<use data-text="s" xlink:href="#font_2_10" transform="matrix(9.963098,0,0,-9.962899,220.4029,117.20803)" fill="#0000ff" fill-opacity=".5"/>
<use data-text="i" xlink:href="#font_2_8" transform="matrix(9.963098,0,0,-9.962899,224.32834,117.20803)" fill="#0000ff" fill-opacity=".5"/>
<use data-text="n" xlink:href="#font_2_9" transform="matrix(9.963098,0,0,-9.962899,227.08814,117.20803)" fill="#0000ff" fill-opacity=".5"/>
<use data-text="(" xlink:href="#font_2_1" transform="matrix(9.963098,0,0,-9.962899,232.61765,117.20803)" fill="#0000ff" fill-opacity=".5"/>
<use data-text="x" xlink:href="#font_3_2" transform="matrix(9.963098,0,0,-9.962899,236.52512,117.20803)" fill="#0000ff" fill-opacity=".5"/>
<use data-text=")" xlink:href="#font_2_2" transform="matrix(9.963098,0,0,-9.962899,242.21939,117.20803)" fill="#0000ff" fill-opacity=".5"/>
<use data-text="+" xlink:href="#font_2_3" transform="matrix(9.963098,0,0,-9.962899,248.29688,117.20803)" fill="#0000ff" fill-opacity=".5"/>
<use data-text="1" xlink:href="#font_2_4" transform="matrix(9.963098,0,0,-9.962899,258.25004,117.20803)" fill="#0000ff" fill-opacity=".5"/>
<path transform="matrix(1.00005,0,0,-1.00003,3.7864915,163.19641)" stroke-width=".99628" stroke-linecap="butt" stroke-miterlimit="10" stroke-linejoin="miter" fill="none" stroke="#ff0000" d="M.54706 110.09784 .97624 107.87231 1.9525 102.62096 2.92877 97.21025 3.90503 91.68652 4.8813 86.08412 5.85756 80.44545 6.83383 74.80809 7.81009 69.21109 8.78636 63.69545 9.76262 58.29817 10.73888 53.06093 11.71513 48.01604 12.6914 43.2038 13.66766 38.65518 14.64394 34.40178 15.6202 30.47588 16.59645 26.90099 17.57272 23.70673 18.54898 20.9153 19.52525 18.54416 20.5015 16.61078 21.47777 15.12798 22.45403 14.10716 23.4303 13.55707 24.40656 13.47906 25.38283 13.87448 26.35909 14.7413 27.33536 16.07146 28.31161 17.85756 29.28789 20.08748 30.26413 22.74307 31.24039 25.80688 32.21666 29.25803 33.19292 33.0696 34.16919 37.2208 35.14545 41.67595 36.12172 46.40411 37.09798 51.37706 38.07425 56.55444 39.0505 61.90263 40.02676 67.38332 41.00302 72.95811 41.9793 78.5874 42.95555 84.22879 43.93182 89.84798 44.90808 95.40195 45.88435 100.85303 46.86061 106.16222 47.83687 111.29185 48.81314 116.20563 49.78938 120.86923 50.76566 125.24974 51.74191 129.3162 52.71819 133.04239 53.69444 136.3987 54.67072 139.3596 55.64697 141.90962 56.62325 144.0286 57.5995 145.7024 58.57578 146.91822 59.55203 147.66333 60.52829 147.93903 61.50455 147.74134 62.4808 147.07222 63.45708 145.93709 64.43333 144.33997 65.4096 142.29225 66.38586 139.81354 67.36214 136.91786 68.3384 133.62744 69.31467 129.96176 70.29091 125.9498 71.26718 121.61838 72.24344 117.00117 73.21971 112.12573 74.19597 107.03038 75.17224 101.74742 76.1485 96.31718 77.12477 90.77869 78.10103 85.16891 79.07729 79.52618 80.05354 73.89285 81.0298 68.30795 82.00607 62.80779 82.98233 57.43404 83.9586 52.22505 84.93486 47.21712 85.91113 42.44525 86.88739 37.94168 87.86366 33.74007 88.83992 29.86728 89.81618 26.35426 90.79243 23.2266 91.76869 20.50107 92.74496 18.19917 93.72124 16.33777 94.6975 14.92892 95.67375 13.98611 96.65002 13.51337 97.62628 13.51202 98.60262 13.98276 99.57877 14.92488 100.5551 16.33171 101.53127 18.1911 102.5076 20.49164 103.48392 23.2138 104.4601 26.34149 105.43642 29.85315 106.4126 33.7246 107.38892 37.92554 108.36523 42.42776 109.3414 47.19763 110.31772 52.20555 111.2939 57.4132 112.27022 62.78693 113.24655 68.28577 114.22272 73.87134 115.19905 79.50534 116.17522 85.14604 117.15154 90.75717 118.12787 96.29701 119.10405 101.72792 120.08035 107.01088 121.05653 112.10622 122.03287 116.98233 123.00919 121.60223 123.98534 125.93433 124.96167 129.94765 125.93784 133.61399 126.91417 136.90575 127.89049 139.80344 128.86669 142.2842 129.84297 144.33257 130.81916 145.93238 131.79549 147.06887 132.7718 147.73999 133.74799 147.94039 134.7243 147.66535 135.70047 146.92159 136.6768 145.70777 137.65312 144.03598 138.6293 141.91837 139.6056 139.37038 140.58179 136.41082 141.5581 133.05583 142.53444 129.33167 143.51062 125.26521 144.48694 120.88606 145.4631 116.22379 146.43944 111.31136 147.41577 106.18172 148.39192 100.8732 149.36824 95.42279 150.34442 89.8695 151.32074 84.2503 152.29706 78.60892 153.27324 72.97963 154.24958 67.40482 155.22573 61.92415 156.20207 56.57394 157.1784 51.39656 158.15456 46.42293 159.13086 41.69342 160.10704 37.23558 161.08338 33.08508 162.0597 29.27147 163.03588 25.81898 164.01219 22.75452 164.98838 20.09756 165.96469 17.86494 166.94101 16.07751 167.91719 14.74466 168.89351 13.87718 169.86968 13.48042 170.84601 13.55507 171.82233 14.10448 172.7985 15.12329 173.77483 16.60338 174.751 18.53676 175.72733 20.90521 176.70365 23.69531 177.67981 26.88754 178.65615 30.46175 179.6323 34.38564 180.60863 38.63771 181.58495 43.18497 182.56113 47.99654 183.53745 53.04143 184.51363 58.27733 185.48996 63.6746 186.46628 69.19025 187.44246 74.78658 188.41878 80.42393 189.39493 86.06262 190.37125 91.66434 191.34758 97.18939 192.32376 102.59946 193.30008 107.85281 193.72933 110.07901"/>
<path transform="matrix(-.18935946,-.9819195,-.9819391,.18935569,4.3335788,53.095285)" d="M2.8892 0-1.73352 2.31136 0 0-1.73352-2.31136" fill="#ff0000"/>
<path transform="matrix(.18930947,-.9819195,-.9819391,-.1893057,197.52548,53.114107)" d="M2.8892 0-1.73352 2.31136 0 0-1.73352-2.31136" fill="#ff0000"/>
<use data-text="y" xlink:href="#font_3_3" transform="matrix(9.963098,0,0,-9.962899,201.89139,52.76809)" fill="#ff0000"/>
<use data-text="=" xlink:href="#font_2_7" transform="matrix(9.963098,0,0,-9.962899,209.90178,52.76809)" fill="#ff0000"/>
<use data-text="s" xlink:href="#font_2_10" transform="matrix(9.963098,0,0,-9.962899,220.4029,52.76809)" fill="#ff0000"/>
<use data-text="i" xlink:href="#font_2_8" transform="matrix(9.963098,0,0,-9.962899,224.32834,52.76809)" fill="#ff0000"/>
<use data-text="n" xlink:href="#font_2_9" transform="matrix(9.963098,0,0,-9.962899,227.08814,52.76809)" fill="#ff0000"/>
<use data-text="(" xlink:href="#font_2_1" transform="matrix(9.963098,0,0,-9.962899,232.61765,52.76809)" fill="#ff0000"/>
<use data-text="&#x2212;" xlink:href="#font_1_1" transform="matrix(9.963098,0,0,-9.962899,236.52512,52.76809)" fill="#ff0000"/>
<use data-text="x" xlink:href="#font_3_2" transform="matrix(9.963098,0,0,-9.962899,244.27448,52.76809)" fill="#ff0000"/>
<use data-text=")" xlink:href="#font_2_2" transform="matrix(9.963098,0,0,-9.962899,249.96878,52.76809)" fill="#ff0000"/>
<use data-text="+" xlink:href="#font_2_3" transform="matrix(9.963098,0,0,-9.962899,256.04627,52.76809)" fill="#ff0000"/>
<use data-text="1" xlink:href="#font_2_4" transform="matrix(9.963098,0,0,-9.962899,265.9994,52.76809)" fill="#ff0000"/>
<use data-text="x" xlink:href="#font_3_2" transform="matrix(9.963098,0,0,-9.962899,188.86173,146.2269)"/>
<use data-text="y" xlink:href="#font_3_3" transform="matrix(9.963098,0,0,-9.962899,86.1856,9.606796)"/>
</svg>
