<svg xmlns="http://www.w3.org/2000/svg" xmlns:xlink="http://www.w3.org/1999/xlink" version="1.1" width="197" height="171" viewBox="0 0 197 171">
<defs>
<path id="font_1_1" d="M.6589966 .23046875C.6759949 .23046875 .69400027 .23046875 .69400027 .25045777 .69400027 .27046205 .6759949 .27046205 .6589966 .27046205H.117996219C.100997928 .27046205 .08299255 .27046205 .08299255 .25045777 .08299255 .23046875 .100997928 .23046875 .117996219 .23046875H.6589966Z"/>
<path id="font_2_1" d="M.2649994 .37265016H.37799073C.34498597 .22489929 .33599855 .18196106 .33599855 .11508179 .33599855 .100097659 .33599855 .073150638 .34399415 .03919983 .35398866-.0047454836 .36499024-.0107421879 .37998963-.0107421879 .3999939-.0107421879 .42099 .007247925 .42099 .02722168 .42099 .033218385 .42099 .035202028 .4149933 .049179079 .38598634 .12106323 .38598634 .18595886 .38598634 .21391297 .38598634 .26683045 .3929901 .32073976 .4039917 .37265016H.5179901C.5309906 .37265016 .5669861 .37265016 .5669861 .406662 .5669861 .43066407 .54599 .43066407 .5269928 .43066407H.19198609C.16999817 .43066407 .13198853 .43066407 .08799744 .38365174 .052993776 .34469605 .026992798 .29878236 .026992798 .29379273 .026992798 .29278565 .026992798 .28379823 .038986207 .28379823 .04699707 .28379823 .04899597 .28779603 .054992677 .29577638 .10398865 .37265016 .1619873 .37265016 .18199158 .37265016H.23899842C.20698548 .25186158 .15299988 .13105774 .11099243 .04020691 .102996829 .025222779 .102996829 .023223877 .102996829 .016235352 .102996829-.002746582 .11898804-.0107421879 .13198853-.0107421879 .1619873-.0107421879 .16999817 .017242432 .18199158 .05418396 .19599915 .100097659 .19599915 .10209656 .20899964 .15202332L.2649994 .37265016Z"/>
<path id="font_3_1" d="M.31098939 .36265565H.42999269C.4149933 .30274964 .3929901 .2118988 .3929901 .13302613 .3929901 .09309387 .397995 .06613159 .4039917 .044174196 .41999818-.0057678224 .43299867-.009765625 .44898988-.009765625 .47200013-.009765625 .49598695 .011230469 .49598695 .035186769 .49598695 .043182374 .49398805 .047164918 .48799134 .057159425 .46899415 .09408569 .45098878 .15100098 .45098878 .23286438 .45098878 .25183106 .45098878 .29177857 .46499635 .36265565H.58999636C.60798647 .36265565 .6159973 .36265565 .6269989 .37065126 .6409912 .380661 .6439972 .39665223 .6439972 .4016571 .6439972 .43066407 .6179962 .43066407 .6009979 .43066407H.22399903C.18299866 .43066407 .15499878 .42166139 .10998535 .37965394 .083999637 .35665895 .04499817 .30274964 .04499817 .2937622 .04499817 .28178407 .057998659 .28178407 .06199646 .28178407 .07299805 .28178407 .07398987 .28378297 .07998657 .2927704 .1309967 .36265565 .19299317 .36265565 .21499634 .36265565H.27598573C.24499512 .25283814 .19099427 .13502503 .16099549 .07511902 .15499878 .062149049 .14498902 .04118347 .14199829 .03718567 .14099121 .033187868 .13899231 .029190064 .13899231 .022201539 .13899231 .006225586 .15098572-.009765625 .17399597-.009765625 .21398926-.009765625 .22499085 .035186769 .24899292 .12504578L.31098939 .36265565Z"/>
<path id="font_4_1" d="M.5049896 .18203736H.47099305C.46798707 .16001892 .45799256 .100997928 .44499208 .09098816 .43699647 .084991458 .3600006 .084991458 .34599305 .084991458H.1619873C.2669983 .17803955 .3019867 .20603943 .3619995 .25306703 .43598939 .312088 .5049896 .374115 .5049896 .46914674 .5049896 .5900879 .39898683 .6640625 .2709961 .6640625 .14698792 .6640625 .06298828 .57710269 .06298828 .4851532 .06298828 .43414308 .10598755 .42915345 .115997318 .42915345 .13999939 .42915345 .16899109 .44615174 .16899109 .48214723 .16899109 .5001526 .1619873 .53515627 .10998535 .53515627 .14099121 .6060791 .20899964 .62805178 .2559967 .62805178 .35598756 .62805178 .4079895 .5501404 .4079895 .46914674 .4079895 .38212586 .34599305 .3130951 .31399537 .27708436L.07299805 .038986207C.06298828 .02999878 .06298828 .027999878 .06298828 0H.47499085L.5049896 .18203736Z"/>
<path id="font_5_2" d="M.2939911 .64004519C.2939911 .66400149 .2939911 .6660156 .2709961 .6660156 .20899964 .60227969 .12098694 .60227969 .08898926 .60227969V.57128909C.10899353 .57128909 .16799927 .57128909 .21998596 .5972748V.07902527C.21998596 .042999269 .21699524 .0309906 .1269989 .0309906H.09498596V0C.12998963 .0029907227 .21699524 .0029907227 .25698854 .0029907227 .29699708 .0029907227 .38398744 .0029907227 .4189911 0V.0309906H.3869934C.29699708 .0309906 .2939911 .041992189 .2939911 .07902527V.64004519Z"/>
<path id="font_5_1" d="M.45999146 .31976319C.45999146 .39982606 .45498658 .47988893 .41999818 .5539398 .37399293 .65000918 .2919922 .6660156 .25 .6660156 .18998719 .6660156 .116989139 .64001467 .07598877 .54693606 .04399109 .47789 .038986207 .39982606 .038986207 .31976319 .038986207 .24472046 .042999269 .15464783 .083999637 .07859802 .1269989-.0024719239 .19999695-.022460938 .24899292-.022460938 .30299378-.022460938 .3789978-.0014648438 .4229889 .09359741 .45498658 .16265869 .45999146 .2407074 .45999146 .31976319M.24899292-.00047302247C.20999146-.00047302247 .15098572 .024551392 .1329956 .12062073 .12199402 .18066406 .12199402 .2727356 .12199402 .3317871 .12199402 .39582826 .12199402 .46188355 .12998963 .5159149 .14898682 .63500979 .22399903 .64401248 .24899292 .64401248 .28199769 .64401248 .34799195 .6259918 .36698915 .52693179 .3769989 .47088624 .3769989 .39482118 .3769989 .3317871 .3769989 .25672914 .3769989 .18867493 .3659973 .12461853 .35099793 .029556275 .2939911-.00047302247 .24899292-.00047302247Z"/>
<path id="font_5_3" d="M.44898988 .20022583C.44898988 .3193512 .36698915 .41944886 .25898744 .41944886 .21099854 .41944886 .16799927 .40345765 .13198853 .36842347V.5637665C.1519928 .5577698 .18499756 .55078127 .21699524 .55078127 .33999635 .55078127 .4099884 .6417694 .4099884 .6547699 .4099884 .6607666 .40699769 .6657715 .3999939 .6657715 .39898683 .6657715 .39698792 .6657715 .3919983 .66278079 .37199403 .6537781 .32299806 .6337738 .2559967 .6337738 .21598816 .6337738 .16999817 .6407776 .12298584 .6617737 .114990238 .66477969 .11299133 .66477969 .11099243 .66477969 .100997928 .66477969 .100997928 .6567688 .100997928 .6407776V.34439088C.100997928 .32637025 .100997928 .31835938 .114990238 .31835938 .12199402 .31835938 .12399292 .32136537 .12799073 .32736207 .13899231 .3433838 .17599488 .39746095 .25698854 .39746095 .30899049 .39746095 .33399964 .35139466 .34199525 .33337403 .35798646 .29632569 .3600006 .25727845 .3600006 .20722962 .3600006 .17222595 .3600006 .11222839 .33599855 .07035828 .31199647 .031463624 .2749939 .0055389406 .22898865 .0055389406 .1559906 .0055389406 .09899902 .058380128 .08198547 .11723328 .084991458 .1162262 .08799744 .115234378 .09899902 .115234378 .13198853 .115234378 .14898682 .14022827 .14898682 .16423035 .14898682 .18823242 .13198853 .21322632 .09899902 .21322632 .084991458 .21322632 .049987794 .20622254 .049987794 .16023255 .049987794 .07434082 .11898804-.022460938 .23098755-.022460938 .34700013-.022460938 .44898988 .073349 .44898988 .20022583Z"/>
<path id="font_2_2" d="M.33399964 .30233766C.33999635 .32835389 .36299134 .42037965 .43299867 .42037965 .43798829 .42037965 .46199037 .42037965 .48298646 .40734864 .45498658 .402359 .43499757 .37734986 .43499757 .35334779 .43499757 .33735658 .44599916 .31835938 .47299195 .31835938 .49499513 .31835938 .5269928 .3363495 .5269928 .37635804 .5269928 .42837525 .46798707 .4423828 .43399049 .4423828 .37599183 .4423828 .34098817 .38935853 .32899476 .36634828 .3039856 .43237306 .25 .4423828 .22099304 .4423828 .116989139 .4423828 .05999756 .3133545 .05999756 .28834535 .05999756 .27833558 .069992069 .27833558 .07199097 .27833558 .07998657 .27833558 .08299255 .28033448 .084991458 .28933717 .11898804 .39535523 .18499756 .42037965 .21899414 .42037965 .23799134 .42037965 .272995 .4113617 .272995 .35334779 .272995 .32235719 .2559967 .25532533 .21899414 .11528015 .20298767 .053268434 .16799927 .011245728 .12399292 .011245728 .117996219 .011245728 .09498596 .011245728 .07398987 .024276734 .09899902 .029266358 .12098694 .05027771 .12098694 .07827759 .12098694 .105270389 .09899902 .11328125 .083999637 .11328125 .053985597 .11328125 .0289917 .08728027 .0289917 .055267335 .0289917 .009246826 .07899475-.0107421879 .12298584-.0107421879 .18899536-.0107421879 .22499085 .059280397 .22799683 .0652771 .23999024 .028274537 .27598573-.0107421879 .33599855-.0107421879 .43899537-.0107421879 .49598695 .118270877 .49598695 .14328003 .49598695 .1532898 .4869995 .1532898 .48399354 .1532898 .47499085 .1532898 .47299195 .14929199 .47099305 .14228821 .43798829 .03527832 .36999513 .011245728 .33799745 .011245728 .29899598 .011245728 .2829895 .043273927 .2829895 .07727051 .2829895 .09927368 .2889862 .121276859 .2999878 .16529846L.33399964 .30233766Z"/>
<path id="font_2_3" d="M.48599244 .38136292C.48999024 .39537049 .48999024 .39736939 .48999024 .40437318 .48999024 .42237855 .47599793 .43138124 .46099855 .43138124 .45098878 .43138124 .43499757 .42536927 .42599488 .41036988 .42399598 .405365 .41600038 .37435914 .4119873 .35635377 .40499879 .33035279 .397995 .30334474 .3919983 .27633668L.34700013 .09628296C.34298707 .08126831 .2999878 .011245728 .23399353 .011245728 .18299866 .011245728 .17199707 .055267335 .17199707 .0922699 .17199707 .1382904 .18899536 .20030213 .22299195 .28833009 .23899842 .3293457 .24299622 .3403473 .24299622 .36035157 .24299622 .405365 .21099854 .4423828 .16099549 .4423828 .06599426 .4423828 .0289917 .29733277 .0289917 .28833009 .0289917 .27833558 .038986207 .27833558 .040985109 .27833558 .050994874 .27833558 .051986696 .28033448 .056991579 .29634095 .083999637 .3903656 .12399292 .42037965 .1579895 .42037965 .1659851 .42037965 .18299866 .42037965 .18299866 .3883667 .18299866 .36335755 .17298889 .3373413 .1659851 .31834413 .12599182 .21231079 .10798645 .1552887 .10798645 .10827637 .10798645 .019256592 .17098999-.0107421879 .22999573-.0107421879 .2689972-.0107421879 .30299378 .0062561037 .33099366 .03425598 .31799317-.017745972 .30599977-.06674194 .2659912-.11973572 .23999024-.15385437 .20199585-.18309021 .1559906-.18309021 .14199829-.18309021 .09700012-.18005371 .07998657-.14074707 .09599304-.14074707 .10899353-.14074707 .12298584-.1287384 .1329956-.11973572 .14299011-.10673523 .14299011-.08773804 .14299011-.056747438 .115997318-.052734376 .10598755-.052734376 .08299255-.052734376 .049987794-.068740848 .049987794-.11773682 .049987794-.16796875 .09399414-.20507813 .1559906-.20507813 .25898744-.20507813 .3619995-.11373901 .3899994-.00074768069L.48599244 .38136292Z"/>
</defs>
<path transform="matrix(1,0,0,-1.00006,1.2950007,166.58878)" stroke-width=".19925" stroke-linecap="butt" stroke-miterlimit="10" stroke-linejoin="miter" fill="none" stroke="#929292" d="M10.97127 79.28079V82.11555M28.20488 79.28079V82.11555M45.4385 79.28079V82.11555M62.67212 79.28079V82.11555M79.90576 79.28079V82.11555M97.13939 79.28079V82.11555M114.373 79.28079V82.11555M131.60663 79.28079V82.11555M148.84026 79.28079V82.11555M166.07389 79.28079V82.11555"/>
<path transform="matrix(1,0,0,-1.00006,1.2950007,166.58878)" stroke-width=".19925" stroke-linecap="butt" stroke-miterlimit="10" stroke-linejoin="miter" fill="none" stroke="#929292" d="M28.20488 78.5723V82.82404M62.67212 78.5723V82.82404M131.60662 78.5723V82.82404M166.07389 78.5723V82.82404"/>
<path transform="matrix(1,0,0,-1.00006,1.2950007,166.58878)" stroke-width=".19925" stroke-linecap="butt" stroke-miterlimit="10" stroke-linejoin="miter" fill="none" stroke="#929292" d="M95.0135 0H99.26527M95.0135 40.34909H99.26527M95.0135 121.04727H99.26527M95.0135 161.39636H99.26527"/>
<path transform="matrix(1,0,0,-1.00006,1.2950007,166.58878)" stroke-width=".3985" stroke-linecap="butt" stroke-miterlimit="10" stroke-linejoin="miter" fill="none" stroke="#000000" d="M0 80.69818H192.28626"/>
<path transform="matrix(1,0,0,-1.00006,193.58126,85.88576)" d="M1.99252 0-1.19551 1.59401 0 0-1.19551-1.59401"/>
<path transform="matrix(1,0,0,-1.00006,1.2950007,166.58878)" stroke-width=".3985" stroke-linecap="butt" stroke-miterlimit="10" stroke-linejoin="miter" fill="none" stroke="#000000" d="M97.13939 0V159.40384"/>
<path transform="matrix(0,-1.00006,-1,-0,98.43439,7.1753847)" d="M1.99252 0-1.19551 1.59401 0 0-1.19551-1.59401"/>
<use data-text="&#x2212;" xlink:href="#font_1_1" transform="matrix(9.9626,0,0,-9.963197,22.607003,97.343639)"/>
<use data-text="&#x03c0;" xlink:href="#font_2_1" transform="matrix(9.9626,0,0,-9.963197,30.356003,97.343639)"/>
<use data-text="&#x2212;" xlink:href="#font_1_1" transform="matrix(9.9626,0,0,-9.963197,56.442998,98.4577)"/>
<use data-text="&#x03c0;" xlink:href="#font_3_1" transform="matrix(6.9738,0,0,-6.9742186,65.388,94.53546)"/>
<path transform="matrix(1,0,0,-1.00006,56.045,112.35053)" stroke-width=".3985" stroke-linecap="butt" stroke-miterlimit="10" stroke-linejoin="miter" fill="none" stroke="#000000" d="M9.343 16.382H14.252"/>
<use data-text="2" xlink:href="#font_4_1" transform="matrix(6.9738,0,0,-6.9742186,65.856998,101.893909)"/>
<use data-text="&#x03c0;" xlink:href="#font_3_1" transform="matrix(6.9738,0,0,-6.9742186,130.448,94.53546)"/>
<path transform="matrix(1,0,0,-1.00006,128.854,112.35053)" stroke-width=".3985" stroke-linecap="butt" stroke-miterlimit="10" stroke-linejoin="miter" fill="none" stroke="#000000" d="M1.594 16.382H6.503"/>
<use data-text="2" xlink:href="#font_4_1" transform="matrix(6.9738,0,0,-6.9742186,130.917,101.893909)"/>
<use data-text="&#x03c0;" xlink:href="#font_2_1" transform="matrix(9.9626,0,0,-9.963197,164.351,95.82154)"/>
<use data-text="&#x2212;" xlink:href="#font_1_1" transform="matrix(9.9626,0,0,-9.963197,75.077,169.38394)"/>
<use data-text="1" xlink:href="#font_5_2" transform="matrix(9.9626,0,0,-9.963197,82.826007,169.38394)"/>
<use data-text="0" xlink:href="#font_5_1" transform="matrix(9.9626,0,0,-9.963197,87.8073,169.38394)"/>
<use data-text="&#x2212;" xlink:href="#font_1_1" transform="matrix(9.9626,0,0,-9.963197,80.05801,129.03252)"/>
<use data-text="5" xlink:href="#font_5_3" transform="matrix(9.9626,0,0,-9.963197,87.80701,129.03252)"/>
<use data-text="5" xlink:href="#font_5_3" transform="matrix(9.9626,0,0,-9.963197,87.80701,48.744718)"/>
<use data-text="1" xlink:href="#font_5_2" transform="matrix(9.9626,0,0,-9.963197,82.826007,8.393285)"/>
<use data-text="0" xlink:href="#font_5_1" transform="matrix(9.9626,0,0,-9.963197,87.807308,8.393285)"/>
<path transform="matrix(1,0,0,-1.00006,1.2950007,166.58878)" stroke-width=".99628" stroke-linecap="butt" stroke-miterlimit="10" stroke-linejoin="miter" fill="none" stroke="#0000ff" d="M12.11322 3.14218 12.23056 10.68741 12.39273 18.75586 12.55492 25.17781 12.71709 30.41312 12.87926 34.75572 13.04143 38.43791 13.20361 41.58635 13.36578 44.31023 13.52795 46.6951 13.69014 48.80244 13.85231 50.67537 14.01448 52.35422 14.17665 53.86757 14.33884 55.23708 14.501 56.48611 14.66318 57.62897 14.82536 58.67918 14.98753 59.64676 15.1497 60.54347 15.31187 61.37694 15.47406 62.15196 15.63623 62.87677 15.7984 63.55586 15.96059 64.19305 16.12276 64.7932 16.28493 65.35954 16.4471 65.8948 16.60928 66.4024 16.77145 66.88321 16.93362 67.34027 17.09581 67.77596 17.25798 68.19182 17.42015 68.58803 17.58232 68.96756 17.7445 69.33118 17.90668 69.67987 18.06885 70.0147 18.23103 70.33733 18.3932 70.64713 18.55537 70.94579 18.71756 71.23436 18.87975 71.51262 19.04192 71.78215 19.20409 72.04295 19.36626 72.29515 19.52844 72.54015 19.69061 72.77779 19.85278 73.00868 20.01497 73.23294 20.17714 73.45163 20.33931 73.66403 20.50148 73.87128 20.66367 74.07375 20.82584 74.27089 20.988 74.46358 21.15019 74.65225 21.31236 74.83617 21.47453 75.01653 21.6367 75.19327 21.79889 75.36627 21.96106 75.53583 22.12323 75.70255 22.28542 75.8658 22.44759 76.02655 22.60976 76.1844 22.77193 76.3399 22.93411 76.49275 23.09628 76.64333 23.25845 76.79164 23.42064 76.93788 23.58281 77.08208 23.74498 77.2241 23.90715 77.36476 24.06934 77.50357 24.2315 77.64091 24.39368 77.77649 24.55585 77.9106 24.71803 78.0436 24.8802 78.17514 25.04237 78.30548 25.20456 78.43466 25.36674 78.56296 25.52892 78.69006 25.69109 78.81628 25.85327 78.94153 26.01544 79.06612 26.17761 79.19 26.3398 79.31297 26.50197 79.43565 26.66414 79.55757 26.82631 79.67894 26.9885 79.79993 27.15067 79.92047 27.31284 80.0407 27.47502 80.16055 27.63719 80.2804 27.79936 80.39993 27.96153 80.51921 28.12372 80.63852 28.28589 80.75781 28.44806 80.87704 28.61024 80.99641 28.77242 81.11594 28.93457 81.23555 29.09676 81.35558 29.25896 81.4757 29.42111 81.59634 29.58328 81.71739 29.74545 81.83867 29.90764 81.96068 30.06982 82.08318 30.23198 82.20633 30.39417 82.33022 30.55634 82.45456 30.7185 82.5799 30.88069 82.70618 31.04286 82.83337 31.20505 82.96143 31.3672 83.09071 31.52939 83.22119 31.69157 83.35257 31.85373 83.48557 32.01591 83.61984 32.17809 83.75542 32.34027 83.89252 32.50244 84.03133 32.66461 84.17198 32.8268 84.31416 32.98895 84.45847 33.15114 84.60469 33.31332 84.75293 33.47548 84.90335 33.63766 85.05627 33.79984 85.21169 33.96202 85.36969 34.1242 85.53038 34.28635 85.69386 34.44855 85.86026 34.6107 86.0303 34.77289 86.20306 34.93507 86.37964 35.09724 86.55992 35.25941 86.74408 35.42157 86.93243 35.58377 87.12537 35.74596 87.32253 35.90811 87.52467 36.07028 87.73183 36.23245 87.94455 36.39464 88.16322 36.55682 88.3874 36.719 88.61829 36.88116 88.85603 37.04333 89.10071 37.2055 89.35287 37.3677 89.61371 37.52986 89.88332 37.69205 90.16148 37.85422 90.44989 38.01639 90.7492 38.17857 91.059 38.34073 91.38132 38.50293 91.71637 38.66508 92.06468 38.82727 92.42854 38.98946 92.80798 39.15161 93.20453 39.3138 93.61964 39.47595 94.05516 39.63815 94.51297 39.80032 94.99368 39.96248 95.50104 40.12466 96.03654 40.28683 96.602 40.44902 97.20255 40.61119 97.84047 40.77336 98.51874 40.93555 99.24397 41.0977 100.01941 41.25989 100.85231 41.42209 101.7478 41.58424 102.71707 41.74641 103.76712 41.90858 104.90883 42.07077 106.15926 42.23296 107.52782 42.39511 109.04211 42.5573 110.71991 42.71945 112.59315 42.88164 114.6968 43.04384 117.08264 43.206 119.80806 43.36816 122.95811 43.53033 126.6348 43.69252 130.98 43.8547 136.21465 44.01686 142.62723 44.17906 150.6919 44.29639 158.24527"/>
<path transform="matrix(-.01552,.99991998,.99986,.01552093,13.408221,163.44638)" d="M2.8892 0-1.73352 2.31136 0 0-1.73352-2.31136" fill="#0000ff"/>
<path transform="matrix(.01552,-.99991998,-.99986,-.01552093,45.591394,8.33403)" d="M2.8892 0-1.73352 2.31136 0 0-1.73352-2.31136" fill="#0000ff"/>
<path transform="matrix(1,0,0,-1.00006,1.2950007,166.58878)" stroke-width=".99628" stroke-linecap="butt" stroke-miterlimit="10" stroke-linejoin="miter" fill="none" stroke="#0000ff" d="M46.58046 3.14218 46.69781 10.68741 46.85999 18.75586 47.02216 25.17781 47.18433 30.40683 47.34651 34.76105 47.50868 38.43791 47.67085 41.58635 47.83304 44.30853 47.99521 46.6951 48.15738 48.80244 48.31955 50.67642 48.48174 52.35422 48.6439 53.86757 48.80608 55.23708 48.96826 56.48611 49.13043 57.62953 49.2926 58.67918 49.45477 59.64723 49.61696 60.54347 49.77913 61.37596 49.9413 62.15196 50.10349 62.87677 50.26566 63.55586 50.42783 64.19379 50.59 64.79393 50.75218 65.35979 50.91435 65.89465 51.07652 66.4024 51.23871 66.88321 51.40088 67.34027 51.56306 67.77596 51.72523 68.19157 51.88742 68.58803 52.04959 68.96756 52.21176 69.3315 52.37395 69.67987 52.53612 70.0147 52.69829 70.33669 52.86046 70.64688 53.02264 70.94579 53.18481 71.23436 53.34698 71.51302 53.50916 71.78215 53.67134 72.0428 53.83351 72.29515 53.99568 72.54015 54.15787 72.77779 54.32004 73.00868 54.48221 73.23311 54.64438 73.45139 54.80656 73.66418 54.96873 73.87143 55.1309 74.07365 55.29309 74.27097 55.45526 74.46367 55.61743 74.65193 55.7796 74.83617 55.94179 75.01653 56.10396 75.19327 56.26613 75.36627 56.42831 75.53583 56.59048 75.70247 56.75266 75.8658 56.91483 76.02655 57.07701 76.1844 57.23918 76.3399 57.40135 76.49283 57.56354 76.64317 57.72571 76.79164 57.88788 76.93764 58.05005 77.08217 58.21225 77.22435 58.37442 77.365 58.53659 77.50357 58.69876 77.64067 58.86095 77.77649 59.02312 77.9106 59.18529 78.04353 59.34747 78.17514 59.50964 78.30548 59.67181 78.43466 59.83398 78.56274 59.99617 78.69006 60.15834 78.81612 60.32051 78.94153 60.4827 79.06612 60.64487 79.18991 60.80704 79.31316 60.96921 79.43565 61.1314 79.55757 61.29356 79.67894 61.45573 79.79993 61.61792 79.92047 61.78009 80.04077 61.94226 80.16055 62.10443 80.2804 62.26662 80.39986 62.42879 80.51921 62.59096 80.63852 62.75314 80.75781 62.91533 80.87704 63.07748 80.99641 63.23965 81.11594 63.40184 81.23561 63.56401 81.35558 63.7262 81.4757 63.88835 81.59618 64.05055 81.71739 64.2127 81.83867 64.37488 81.96068 64.53708 82.08318 64.69923 82.20616 64.86142 82.33022 65.02357 82.4548 65.18578 82.58005 65.34795 82.70618 65.5101 82.83337 65.6723 82.96143 65.83446 83.09071 65.99664 83.22119 66.15881 83.35257 66.32098 83.48557 66.48317 83.61984 66.64532 83.75542 66.80753 83.89252 66.9697 84.03133 67.13185 84.17183 67.29404 84.31416 67.4562 84.45847 67.6184 84.60469 67.78056 84.753 67.94275 84.90335 68.10492 85.05627 68.26707 85.21187 68.42926 85.36954 68.59146 85.53038 68.75362 85.69386 68.91579 85.86026 69.07794 86.02989 69.24014 86.2029 69.40233 86.37964 69.56448 86.55992 69.72667 86.74408 69.88884 86.93266 70.05101 87.12537 70.2132 87.32268 70.37537 87.52467 70.53755 87.73206 70.6997 87.9447 70.8619 88.163 71.02408 88.3875 71.18623 88.61838 71.34842 88.85603 71.51059 89.10095 71.67278 89.35313 71.83495 89.61394 71.99712 89.88332 72.1593 90.16173 72.32146 90.45055 72.48364 90.74896 72.64583 91.059 72.80798 91.381 72.97017 91.71646 73.13234 92.06468 73.29453 92.42854 73.4567 92.80782 73.61885 93.20453 73.78105 93.61989 73.9432 94.05516 74.1054 94.51312 74.26758 94.99393 74.42975 95.50104 74.59192 96.03622 74.75407 96.602 74.91628 97.20255 75.07846 97.83974 75.24062 98.51874 75.40279 99.24397 75.56496 100.01941 75.72714 100.85205 75.88933 101.7491 76.0515 102.71707 76.21367 103.76712 76.37584 104.90787 76.53801 106.15706 76.70021 107.52876 76.86237 109.04059 77.02455 110.71756 77.18672 112.59315 77.34889 114.6968 77.51108 117.0861 77.67323 119.80806 77.83543 122.9535 77.99759 126.63205 78.15977 130.98322 78.32196 136.21852 78.48412 142.63208 78.6463 150.6919 78.76363 158.24527"/>
<path transform="matrix(-.01552,.99991998,.99986,.01552093,47.87546,163.44638)" d="M2.8892 0-1.73352 2.31136 0 0-1.73352-2.31136" fill="#0000ff"/>
<path transform="matrix(.01552,-.99991998,-.99986,-.01552093,80.05863,8.33403)" d="M2.8892 0-1.73352 2.31136 0 0-1.73352-2.31136" fill="#0000ff"/>
<path transform="matrix(1,0,0,-1.00006,1.2950007,166.58878)" stroke-width=".99628" stroke-linecap="butt" stroke-miterlimit="10" stroke-linejoin="miter" fill="none" stroke="#0000ff" d="M81.04771 3.14218 81.16505 10.6996 81.32722 18.75586 81.48941 25.17 81.65158 30.40683 81.81375 34.76105 81.97594 38.43791 82.1381 41.58635 82.30028 44.31023 82.46245 46.69672 82.62463 48.80244 82.7868 50.67642 82.94897 52.35213 83.11116 53.8665 83.27333 55.23708 83.4355 56.48589 83.59767 57.6285 83.75986 58.67926 83.92203 59.64676 84.0842 60.54347 84.24638 61.37572 84.40855 62.15196 84.57074 62.87677 84.73291 63.55586 84.8951 64.19305 85.05727 64.79369 85.21944 65.35979 85.38162 65.89465 85.5438 66.4024 85.70596 66.88321 85.86813 67.34027 86.03032 67.77571 86.19249 68.19116 86.35466 68.58788 86.51683 68.96732 86.67902 69.33118 86.84119 69.67987 87.00336 70.0147 87.16554 70.33669 87.32771 70.64688 87.48988 70.94579 87.65205 71.23436 87.81424 71.51262 87.97641 71.78215 88.13858 72.04295 88.30077 72.29524 88.46294 72.54015 88.6251 72.77795 88.78728 73.00868 88.94946 73.23294 89.11163 73.45139 89.2738 73.66403 89.43599 73.87128 89.59816 74.07365 89.76033 74.27089 89.9225 74.46358 90.08469 74.65193 90.24686 74.83624 90.40903 75.01653 90.57121 75.19327 90.73338 75.36603 90.89555 75.53583 91.05774 75.7023 91.21992 75.8658 91.3821 76.02655 91.54427 76.1844 91.70645 76.3399 91.86862 76.49275 92.03079 76.64317 92.19296 76.79156 92.35515 76.93764 92.51732 77.08208 92.67949 77.22435 92.84166 77.36476 93.00385 77.50357 93.16602 77.64091 93.32819 77.77649 93.49037 77.9106 93.65254 78.04353 93.81471 78.17514 93.97688 78.30539 94.13907 78.43466 94.30124 78.56296 94.46341 78.69006 94.6256 78.81628 94.78777 78.94162 94.94994 79.06596 95.1121 79.19 95.27429 79.31316 95.43646 79.43565 95.59863 79.55757 95.76082 79.67894 95.92299 79.8 96.08516 79.92047 96.24733 80.0407 96.40952 80.16055 96.57169 80.2804 96.73386 80.39993 96.89604 80.51921 97.05821 80.63852 97.22038 80.75764 97.38257 80.87704 97.54474 80.99625 97.70692 81.11594 97.86908 81.23561 98.03127 81.35548 98.19345 81.47586 98.3556 81.59634 98.51779 81.71739 98.67996 81.83876 98.84215 81.96068 99.00432 82.08318 99.16647 82.20616 99.32867 82.33022 99.49083 82.4548 99.65302 82.5799 99.8152 82.70618 99.97737 82.83337 100.13954 82.96143 100.3017 83.09087 100.4639 83.22119 100.62608 83.35257 100.78824 83.48557 100.95042 83.61984 101.11258 83.75542 101.27477 83.89252 101.43695 84.03148 101.59912 84.17198 101.76129 84.31416 101.92345 84.45847 102.08565 84.60469 102.24783 84.753 102.40999 84.90335 102.57216 85.05643 102.73434 85.21169 102.89651 85.36954 103.0587 85.53038 103.22086 85.69386 103.38306 85.86026 103.54521 86.02989 103.70738 86.20284 103.86958 86.3798 104.03174 86.55992 104.19392 86.74408 104.35608 86.93266 104.51828 87.12537 104.68045 87.32253 104.8426 87.52467 105.0048 87.73206 105.16696 87.94455 105.32915 88.16315 105.49132 88.3875 105.65349 88.61829 105.81567 88.85594 105.97783 89.10071 106.14003 89.35313 106.3022 89.61371 106.46437 89.88332 106.62654 90.16197 106.78871 90.44989 106.9509 90.74896 107.11308 91.059 107.27525 91.3814 107.43742 91.71646 107.59958 92.06468 107.76176 92.42854 107.92397 92.8083 108.08612 93.20453 108.24829 93.61989 108.41045 94.05516 108.57265 94.51312 108.73483 94.99368 108.89699 95.50038 109.05917 96.03654 109.22134 96.602 109.38351 97.20209 109.5457 97.84047 109.70787 98.51874 109.87006 99.24397 110.03221 100.01901 110.1944 100.85205 110.35658 101.7478 110.51874 102.71707 110.68092 103.76526 110.8431 104.90858 111.00528 106.15706 111.16745 107.52876 111.32962 109.04059 111.4918 110.71991 111.65396 112.59058 111.81615 114.69962 111.97833 117.0861 112.14049 119.81 112.30267 122.95811 112.46484 126.63205 112.62703 130.98322 112.7892 136.21909 112.95135 142.63208 113.11356 150.6919 113.23088 158.24527"/>
<path transform="matrix(-.01552,.99991998,.99986,.01552093,82.342708,163.44638)" d="M2.8892 0-1.73352 2.31136 0 0-1.73352-2.31136" fill="#0000ff"/>
<path transform="matrix(.01552,-.99991998,-.99986,-.01552093,114.52588,8.33403)" d="M2.8892 0-1.73352 2.31136 0 0-1.73352-2.31136" fill="#0000ff"/>
<path transform="matrix(1,0,0,-1.00006,1.2950007,166.58878)" stroke-width=".99628" stroke-linecap="butt" stroke-miterlimit="10" stroke-linejoin="miter" fill="none" stroke="#0000ff" d="M115.51497 3.14218 115.63231 10.6996 115.79448 18.75586 115.95665 25.17781 116.11884 30.41312 116.281 34.75572 116.44318 38.43791 116.60535 41.58635 116.76753 44.31023 116.9297 46.6951 117.09187 48.79988 117.25406 50.67642 117.41624 52.35422 117.57841 53.86757 117.74059 55.23708 117.90277 56.4875 118.06494 57.62921 118.22711 58.67853 118.3893 59.64676 118.55147 60.54347 118.71364 61.37694 118.87581 62.15196 119.038 62.87726 119.20016 63.55586 119.36234 64.19273 119.52452 64.79312 119.68669 65.35954 119.84886 65.89465 120.01103 66.40208 120.17322 66.88321 120.33539 67.34027 120.49756 67.77571 120.65973 68.19116 120.82191 68.58803 120.98409 68.96732 121.14626 69.33078 121.30844 69.67987 121.47061 70.0147 121.63278 70.33693 121.79495 70.64688 121.95714 70.94579 122.11931 71.23436 122.28148 71.51262 122.44366 71.78215 122.60583 72.0428 122.768 72.2954 122.93018 72.54015 123.09236 72.77779 123.25453 73.00868 123.4167 73.23311 123.57889 73.45139 123.74106 73.66403 123.90323 73.87128 124.06541 74.07349 124.2276 74.27089 124.38977 74.46358 124.55194 74.65193 124.71413 74.83617 124.8763 75.01645 125.03847 75.19327 125.20064 75.36603 125.36282 75.53583 125.525 75.7023 125.68716 75.8658 125.84935 76.02655 126.01152 76.18446 126.17369 76.3399 126.33586 76.49275 126.49805 76.64317 126.66022 76.79156 126.82239 76.93788 126.98456 77.08208 127.14674 77.2241 127.30891 77.36476 127.47108 77.50357 127.63327 77.64067 127.79544 77.7764 127.95761 77.9106 128.11978 78.04353 128.28197 78.17514 128.44414 78.30539 128.60631 78.43466 128.7685 78.56296 128.93067 78.69006 129.09284 78.81628 129.255 78.94153 129.41719 79.06612 129.57936 79.19 129.74153 79.31297 129.90372 79.43565 130.06589 79.55757 130.22806 79.67894 130.39023 79.8 130.55243 79.92047 130.7146 80.0407 130.87677 80.16055 131.03896 80.2804 131.20113 80.39986 131.3633 80.51921 131.52547 80.63852 131.68766 80.75781 131.84983 80.87704 132.012 80.99641 132.17417 81.11594 132.33634 81.23561 132.49852 81.35548 132.66069 81.47586 132.82288 81.59634 132.98505 81.71739 133.1472 81.83876 133.30939 81.96068 133.47159 82.0831 133.63375 82.20633 133.79592 82.33022 133.95809 82.45456 134.12027 82.58005 134.28246 82.70618 134.44461 82.83337 134.6068 82.96143 134.76895 83.09071 134.93114 83.22096 135.09334 83.35274 135.2555 83.48557 135.41767 83.61984 135.57984 83.75542 135.74202 83.89252 135.9042 84.03133 136.06636 84.17198 136.22856 84.31416 136.39072 84.45839 136.55289 84.60469 136.71508 84.75278 136.87725 84.90335 137.03943 85.05627 137.20159 85.21169 137.36377 85.36954 137.52596 85.53038 137.68811 85.69363 137.8503 85.86026 138.01247 86.02989 138.17465 86.20306 138.33683 86.37964 138.49898 86.55975 138.66118 86.74408 138.82334 86.93243 138.98552 87.12514 139.1477 87.32253 139.30986 87.52467 139.47205 87.73206 139.6342 87.94455 139.7964 88.16315 139.95859 88.3874 140.12075 88.61838 140.28293 88.85603 140.44509 89.10095 140.60727 89.35338 140.76946 89.61418 140.93163 89.88332 141.0938 90.16173 141.25595 90.4503 141.41815 90.7492 141.58034 91.05893 141.7425 91.38132 141.90467 91.71637 142.06685 92.06491 142.22902 92.42854 142.3912 92.80798 142.55336 93.20421 142.71556 93.62038 142.87772 94.05565 143.03989 94.51263 143.20209 94.99368 143.36425 95.50104 143.52643 96.03654 143.68859 96.602 143.85079 97.20209 144.01296 97.8404 144.17511 98.51874 144.33731 99.24374 144.49947 100.01901 144.66165 100.85286 144.82382 101.7491 144.986 102.71715 145.14818 103.76712 145.31034 104.90787 145.47254 106.15706 145.6347 107.52876 145.79686 109.04059 145.95905 110.71756 146.12122 112.59058 146.2834 114.6968 146.44559 117.08264 146.60774 119.80806 146.76993 122.95811 146.93209 126.63205 147.09427 130.98322 147.25647 136.21514 147.41863 142.63208 147.5808 150.6982 147.69812 158.24527"/>
<path transform="matrix(-.01552,.99991998,.99986,.01552093,116.80997,163.44638)" d="M2.8892 0-1.73352 2.31136 0 0-1.73352-2.31136" fill="#0000ff"/>
<path transform="matrix(.01552,-.99991998,-.99986,-.01552093,148.99312,8.33403)" d="M2.8892 0-1.73352 2.31136 0 0-1.73352-2.31136" fill="#0000ff"/>
<path transform="matrix(1,0,0,-1.00006,1.2950007,166.58878)" stroke-width=".99628" stroke-linecap="butt" stroke-miterlimit="10" stroke-linejoin="miter" fill="none" stroke="#0000ff" d="M149.98221 3.14218 150.09955 10.6996 150.26175 18.76555 150.42392 25.17781 150.58609 30.41312 150.74826 34.75572 150.91045 38.43791 151.07262 41.58635 151.23479 44.30853 151.39698 46.69485 151.55915 48.80244 151.72132 50.67642 151.88349 52.35422 152.04567 53.8665 152.20784 55.23766 152.37001 56.48589 152.5322 57.6285 152.69437 58.67918 152.85654 59.64676 153.0187 60.54347 153.1809 61.37572 153.34307 62.15196 153.50524 62.87726 153.66742 63.55594 153.82959 64.19305 153.99176 64.79393 154.15393 65.35954 154.31612 65.8953 154.47829 66.4024 154.64046 66.88321 154.80263 67.34027 154.96482 67.77596 155.12699 68.19125 155.28916 68.58803 155.45134 68.96732 155.61351 69.33102 155.77568 69.67987 155.93785 70.0147 156.10004 70.33669 156.2622 70.64688 156.42438 70.94579 156.58657 71.23436 156.74874 71.51286 156.91092 71.78189 157.07309 72.04295 157.23528 72.29507 157.39745 72.54015 157.55962 72.77773 157.7218 73.00868 157.88397 73.23294 158.04615 73.45163 158.20832 73.66403 158.3705 73.87143 158.53267 74.07365 158.69484 74.27097 158.85703 74.46358 159.0192 74.65193 159.18137 74.83617 159.34354 75.01653 159.50572 75.19327 159.6679 75.36627 159.83007 75.53583 159.99225 75.7023 160.15442 75.8658 160.31659 76.02655 160.47876 76.1844 160.64095 76.3399 160.80312 76.49275 160.96529 76.64317 161.12746 76.79156 161.28964 76.93788 161.45182 77.08191 161.61399 77.22435 161.77617 77.36476 161.93834 77.50381 162.10051 77.64067 162.26268 77.77649 162.42487 77.9106 162.58704 78.0436 162.7492 78.17514 162.91139 78.30539 163.07357 78.43459 163.23574 78.56274 163.39792 78.69006 163.5601 78.81628 163.72228 78.94153 163.88445 79.06612 164.04663 79.18991 164.2088 79.31297 164.37097 79.43565 164.53314 79.55742 164.69533 79.6787 164.8575 79.8 165.01967 79.92047 165.18186 80.0407 165.34403 80.16055 165.5062 80.2804 165.66837 80.39986 165.83055 80.51921 165.99272 80.63852 166.15489 80.75781 166.31707 80.87704 166.47925 80.99625 166.64142 81.11594 166.80358 81.23561 166.96578 81.35558 167.12796 81.4757 167.29012 81.59634 167.45229 81.71739 167.61446 81.83876 167.77664 81.96068 167.93883 82.08318 168.101 82.20616 168.26317 82.33022 168.42534 82.4548 168.58751 82.5799 168.74971 82.70627 168.91187 82.83337 169.07405 82.96143 169.23622 83.09071 169.39839 83.22096 169.56058 83.35257 169.72274 83.48547 169.88494 83.61984 170.04709 83.75542 170.20928 83.89244 170.37146 84.03133 170.53362 84.17198 170.6958 84.31401 170.85796 84.45847 171.02016 84.60469 171.18233 84.75293 171.34449 84.90335 171.50667 85.05643 171.66884 85.21169 171.83103 85.36954 171.9932 85.53029 172.15537 85.69386 172.31755 85.86026 172.4797 86.03006 172.64189 86.2029 172.8041 86.37964 172.96625 86.55992 173.12842 86.74408 173.29059 86.93266 173.45278 87.12537 173.61496 87.32259 173.77712 87.52467 173.9393 87.73183 174.10146 87.9447 174.26364 88.16315 174.42584 88.3874 174.588 88.61829 174.75017 88.85594 174.91234 89.10071 175.07453 89.35313 175.23671 89.61371 175.39887 89.883 175.56107 90.16197 175.72322 90.45055 175.88539 90.7492 176.04758 91.059 176.20975 91.381 176.37194 91.71597 176.53409 92.06468 176.69628 92.42854 176.85846 92.80757 177.02062 93.20421 177.1828 93.62012 177.34497 94.05557 177.50716 94.51239 177.66933 94.99336 177.83148 95.5008 177.99369 96.03654 178.15584 96.602 178.31803 97.20255 178.48021 97.83951 178.64237 98.51874 178.80455 99.24374 178.9667 100.01941 179.1289 100.85205 179.29109 101.7478 179.45325 102.71715 179.61544 103.76575 179.77759 104.90787 179.93978 106.15706 180.10196 107.52876 180.26413 109.04059 180.4263 110.71991 180.58846 112.59315 180.75066 114.69962 180.91284 117.0861 181.075 119.80806 181.23717 122.9535 181.39936 126.6348 181.56153 130.98 181.72371 136.21514 181.88587 142.63208 182.04807 150.6982 182.16539 158.24527"/>
<path transform="matrix(-.01552,.99991998,.99986,.01552093,151.2772,163.44638)" d="M2.8892 0-1.73352 2.31136 0 0-1.73352-2.31136" fill="#0000ff"/>
<path transform="matrix(.01552,-.99991998,-.99986,-.01552093,183.46039,8.33403)" d="M2.8892 0-1.73352 2.31136 0 0-1.73352-2.31136" fill="#0000ff"/>
<path transform="matrix(1,0,0,-1.00006,1.2950007,166.58878)" stroke-width=".3985" stroke-linecap="butt" stroke-dasharray="2.98883,2.98883" stroke-miterlimit="10" stroke-linejoin="miter" fill="none" stroke="#ff0000" d="M10.97127 0V161.39636"/>
<path transform="matrix(1,0,0,-1.00006,1.2950007,166.58878)" stroke-width=".3985" stroke-linecap="butt" stroke-dasharray="2.98883,2.98883" stroke-miterlimit="10" stroke-linejoin="miter" fill="none" stroke="#ff0000" d="M45.4385 0V161.39636"/>
<path transform="matrix(1,0,0,-1.00006,1.2950007,166.58878)" stroke-width=".3985" stroke-linecap="butt" stroke-dasharray="2.98883,2.98883" stroke-miterlimit="10" stroke-linejoin="miter" fill="none" stroke="#ff0000" d="M79.90576 0V161.39636"/>
<path transform="matrix(1,0,0,-1.00006,1.2950007,166.58878)" stroke-width=".3985" stroke-linecap="butt" stroke-dasharray="2.98883,2.98883" stroke-miterlimit="10" stroke-linejoin="miter" fill="none" stroke="#ff0000" d="M114.373 0V161.39636"/>
<path transform="matrix(1,0,0,-1.00006,1.2950007,166.58878)" stroke-width=".3985" stroke-linecap="butt" stroke-dasharray="2.98883,2.98883" stroke-miterlimit="10" stroke-linejoin="miter" fill="none" stroke="#ff0000" d="M148.84026 0V161.39636"/>
<path transform="matrix(1,0,0,-1.00006,1.2950007,166.58878)" stroke-width=".3985" stroke-linecap="butt" stroke-dasharray="2.98883,2.98883" stroke-miterlimit="10" stroke-linejoin="miter" fill="none" stroke="#ff0000" d="M183.30751 0V161.39636"/>
<use data-text="x" xlink:href="#font_2_2" transform="matrix(9.9626,0,0,-9.963197,186.36,82.36573)"/>
<use data-text="y" xlink:href="#font_2_3" transform="matrix(9.9626,0,0,-9.963197,101.954,12.9925589)"/>
</svg>
