<svg xmlns="http://www.w3.org/2000/svg" xmlns:xlink="http://www.w3.org/1999/xlink" xmlns:inkscape="http://www.inkscape.org/namespaces/inkscape" version="1.1" width="201" height="171" viewBox="0 0 201 171">
<defs>
<path id="font_1_1" d="M.6589966 .23046875C.6759949 .23046875 .69400027 .23046875 .69400027 .25045777 .69400027 .27046205 .6759949 .27046205 .6589966 .27046205H.117996219C.100997928 .27046205 .08299255 .27046205 .08299255 .25045777 .08299255 .23046875 .100997928 .23046875 .117996219 .23046875H.6589966Z"/>
<path id="font_2_6" d="M.13198853 .327713V.35173036C.13198853 .6047821 .2559967 .64100649 .30699159 .64100649 .33099366 .64100649 .37298585 .634964 .394989 .6007538 .37998963 .6007538 .33999635 .6007538 .33999635 .5557556 .33999635 .524765 .3639984 .5097656 .38598634 .5097656 .4019928 .5097656 .43199159 .51875308 .43199159 .5577545 .43199159 .6178589 .3880005 .6660156 .30499269 .6660156 .1769867 .6660156 .041992189 .5367584 .041992189 .31570436 .041992189 .048553468 .1579895-.022460938 .25099183-.022460938 .3619995-.022460938 .45700074 .07156372 .45700074 .2036438 .45700074 .33070375 .36799623 .4267578 .25698854 .4267578 .18899536 .4267578 .1519928 .37573243 .13198853 .327713M.25099183 .0055389406C.18798828 .0055389406 .1579895 .06556702 .1519928 .080566409 .13398743 .127594 .13398743 .2076416 .13398743 .22564698 .13398743 .30369569 .1659851 .40374757 .2559967 .40374757 .27198792 .40374757 .31799317 .40374757 .34899903 .34172059 .36698915 .30470277 .36698915 .2536621 .36698915 .20463562 .36698915 .15661621 .36698915 .10658264 .34999085 .0705719 .31999208 .010528564 .27398683 .0055389406 .25099183 .0055389406Z"/>
<path id="font_2_4" d="M.2939911 .16503906V.07800293C.2939911 .041992189 .2919922 .0309906 .21798706 .0309906H.19699097V0C.23799134 .0029907227 .2899933 .0029907227 .33198548 .0029907227 .37399293 .0029907227 .4269867 .0029907227 .46798707 0V.0309906H.44699098C.37298585 .0309906 .37098695 .041992189 .37098695 .07800293V.16503906H.47099305V.19602967H.37098695V.65075686C.37098695 .67074587 .37098695 .6767578 .35499574 .6767578 .34599305 .6767578 .34298707 .6767578 .33499146 .66474917L.027999878 .19602967V.16503906H.2939911M.2999878 .19602967H.055999757L.2999878 .5688019V.19602967Z"/>
<path id="font_2_3" d="M.1269989 .07699585 .23298645 .18003845C.3889923 .31811524 .44898988 .3721466 .44898988 .47216798 .44898988 .5860901 .35899354 .6660156 .23699951 .6660156 .12399292 .6660156 .049987794 .57411196 .049987794 .48516847 .049987794 .4291687 .099990848 .4291687 .102996829 .4291687 .11999512 .4291687 .15499878 .44117738 .15499878 .48217774 .15499878 .5081787 .13699341 .5341797 .101989749 .5341797 .09399414 .5341797 .09199524 .5341797 .08898926 .5331726 .11199951 .59806826 .1659851 .63500979 .22399903 .63500979 .31498719 .63500979 .35798646 .5541382 .35798646 .47216798 .35798646 .39215089 .30799867 .31311036 .25299073 .25108338L.06098938 .036987306C.049987794 .025985718 .049987794 .023986817 .049987794 0H.42099L.44898988 .17404175H.42399598C.4189911 .14402771 .4119873 .1000061 .4019928 .084991458 .394989 .07699585 .32899476 .07699585 .30699159 .07699585H.1269989Z"/>
<path id="font_2_2" d="M.2939911 .64004519C.2939911 .66400149 .2939911 .6660156 .2709961 .6660156 .20899964 .60227969 .12098694 .60227969 .08898926 .60227969V.57128909C.10899353 .57128909 .16799927 .57128909 .21998596 .5972748V.07902527C.21998596 .042999269 .21699524 .0309906 .1269989 .0309906H.09498596V0C.12998963 .0029907227 .21699524 .0029907227 .25698854 .0029907227 .29699708 .0029907227 .38398744 .0029907227 .4189911 0V.0309906H.3869934C.29699708 .0309906 .2939911 .041992189 .2939911 .07902527V.64004519Z"/>
<path id="font_2_1" d="M.45999146 .31976319C.45999146 .39982606 .45498658 .47988893 .41999818 .5539398 .37399293 .65000918 .2919922 .6660156 .25 .6660156 .18998719 .6660156 .116989139 .64001467 .07598877 .54693606 .04399109 .47789 .038986207 .39982606 .038986207 .31976319 .038986207 .24472046 .042999269 .15464783 .083999637 .07859802 .1269989-.0024719239 .19999695-.022460938 .24899292-.022460938 .30299378-.022460938 .3789978-.0014648438 .4229889 .09359741 .45498658 .16265869 .45999146 .2407074 .45999146 .31976319M.24899292-.00047302247C.20999146-.00047302247 .15098572 .024551392 .1329956 .12062073 .12199402 .18066406 .12199402 .2727356 .12199402 .3317871 .12199402 .39582826 .12199402 .46188355 .12998963 .5159149 .14898682 .63500979 .22399903 .64401248 .24899292 .64401248 .28199769 .64401248 .34799195 .6259918 .36698915 .52693179 .3769989 .47088624 .3769989 .39482118 .3769989 .3317871 .3769989 .25672914 .3769989 .18867493 .3659973 .12461853 .35099793 .029556275 .2939911-.00047302247 .24899292-.00047302247Z"/>
<path id="font_2_5" d="M.44898988 .20022583C.44898988 .3193512 .36698915 .41944886 .25898744 .41944886 .21099854 .41944886 .16799927 .40345765 .13198853 .36842347V.5637665C.1519928 .5577698 .18499756 .55078127 .21699524 .55078127 .33999635 .55078127 .4099884 .6417694 .4099884 .6547699 .4099884 .6607666 .40699769 .6657715 .3999939 .6657715 .39898683 .6657715 .39698792 .6657715 .3919983 .66278079 .37199403 .6537781 .32299806 .6337738 .2559967 .6337738 .21598816 .6337738 .16999817 .6407776 .12298584 .6617737 .114990238 .66477969 .11299133 .66477969 .11099243 .66477969 .100997928 .66477969 .100997928 .6567688 .100997928 .6407776V.34439088C.100997928 .32637025 .100997928 .31835938 .114990238 .31835938 .12199402 .31835938 .12399292 .32136537 .12799073 .32736207 .13899231 .3433838 .17599488 .39746095 .25698854 .39746095 .30899049 .39746095 .33399964 .35139466 .34199525 .33337403 .35798646 .29632569 .3600006 .25727845 .3600006 .20722962 .3600006 .17222595 .3600006 .11222839 .33599855 .07035828 .31199647 .031463624 .2749939 .0055389406 .22898865 .0055389406 .1559906 .0055389406 .09899902 .058380128 .08198547 .11723328 .084991458 .1162262 .08799744 .115234378 .09899902 .115234378 .13198853 .115234378 .14898682 .14022827 .14898682 .16423035 .14898682 .18823242 .13198853 .21322632 .09899902 .21322632 .084991458 .21322632 .049987794 .20622254 .049987794 .16023255 .049987794 .07434082 .11898804-.022460938 .23098755-.022460938 .34700013-.022460938 .44898988 .073349 .44898988 .20022583Z"/>
<path id="font_3_1" d="M.33399964 .30233766C.33999635 .32835389 .36299134 .42037965 .43299867 .42037965 .43798829 .42037965 .46199037 .42037965 .48298646 .40734864 .45498658 .402359 .43499757 .37734986 .43499757 .35334779 .43499757 .33735658 .44599916 .31835938 .47299195 .31835938 .49499513 .31835938 .5269928 .3363495 .5269928 .37635804 .5269928 .42837525 .46798707 .4423828 .43399049 .4423828 .37599183 .4423828 .34098817 .38935853 .32899476 .36634828 .3039856 .43237306 .25 .4423828 .22099304 .4423828 .116989139 .4423828 .05999756 .3133545 .05999756 .28834535 .05999756 .27833558 .069992069 .27833558 .07199097 .27833558 .07998657 .27833558 .08299255 .28033448 .084991458 .28933717 .11898804 .39535523 .18499756 .42037965 .21899414 .42037965 .23799134 .42037965 .272995 .4113617 .272995 .35334779 .272995 .32235719 .2559967 .25532533 .21899414 .11528015 .20298767 .053268434 .16799927 .011245728 .12399292 .011245728 .117996219 .011245728 .09498596 .011245728 .07398987 .024276734 .09899902 .029266358 .12098694 .05027771 .12098694 .07827759 .12098694 .105270389 .09899902 .11328125 .083999637 .11328125 .053985597 .11328125 .0289917 .08728027 .0289917 .055267335 .0289917 .009246826 .07899475-.0107421879 .12298584-.0107421879 .18899536-.0107421879 .22499085 .059280397 .22799683 .0652771 .23999024 .028274537 .27598573-.0107421879 .33599855-.0107421879 .43899537-.0107421879 .49598695 .118270877 .49598695 .14328003 .49598695 .1532898 .4869995 .1532898 .48399354 .1532898 .47499085 .1532898 .47299195 .14929199 .47099305 .14228821 .43798829 .03527832 .36999513 .011245728 .33799745 .011245728 .29899598 .011245728 .2829895 .043273927 .2829895 .07727051 .2829895 .09927368 .2889862 .121276859 .2999878 .16529846L.33399964 .30233766Z"/>
<path id="font_3_2" d="M.48599244 .38136292C.48999024 .39537049 .48999024 .39736939 .48999024 .40437318 .48999024 .42237855 .47599793 .43138124 .46099855 .43138124 .45098878 .43138124 .43499757 .42536927 .42599488 .41036988 .42399598 .405365 .41600038 .37435914 .4119873 .35635377 .40499879 .33035279 .397995 .30334474 .3919983 .27633668L.34700013 .09628296C.34298707 .08126831 .2999878 .011245728 .23399353 .011245728 .18299866 .011245728 .17199707 .055267335 .17199707 .0922699 .17199707 .1382904 .18899536 .20030213 .22299195 .28833009 .23899842 .3293457 .24299622 .3403473 .24299622 .36035157 .24299622 .405365 .21099854 .4423828 .16099549 .4423828 .06599426 .4423828 .0289917 .29733277 .0289917 .28833009 .0289917 .27833558 .038986207 .27833558 .040985109 .27833558 .050994874 .27833558 .051986696 .28033448 .056991579 .29634095 .083999637 .3903656 .12399292 .42037965 .1579895 .42037965 .1659851 .42037965 .18299866 .42037965 .18299866 .3883667 .18299866 .36335755 .17298889 .3373413 .1659851 .31834413 .12599182 .21231079 .10798645 .1552887 .10798645 .10827637 .10798645 .019256592 .17098999-.0107421879 .22999573-.0107421879 .2689972-.0107421879 .30299378 .0062561037 .33099366 .03425598 .31799317-.017745972 .30599977-.06674194 .2659912-.11973572 .23999024-.15385437 .20199585-.18309021 .1559906-.18309021 .14199829-.18309021 .09700012-.18005371 .07998657-.14074707 .09599304-.14074707 .10899353-.14074707 .12298584-.1287384 .1329956-.11973572 .14299011-.10673523 .14299011-.08773804 .14299011-.056747438 .115997318-.052734376 .10598755-.052734376 .08299255-.052734376 .049987794-.068740848 .049987794-.11773682 .049987794-.16796875 .09399414-.20507813 .1559906-.20507813 .25898744-.20507813 .3619995-.11373901 .3899994-.00074768069L.48599244 .38136292Z"/>
</defs>
<path transform="matrix(1,0,0,-1.00006,4.989998,166.5352)" stroke-width=".19925" stroke-linecap="butt" stroke-miterlimit="10" stroke-linejoin="miter" fill="none" stroke="#7f807f" d="M1.5924 78.57237V82.82396M33.44055 78.57237V82.82396M65.2887 78.57237V82.82396M128.98499 78.57237V82.82396M160.83313 78.57237V82.82396M192.68128 78.57237V82.82396"/>
<path transform="matrix(1,0,0,-1.00006,4.989998,166.5352)" stroke-width=".19925" stroke-linecap="butt" stroke-miterlimit="10" stroke-linejoin="miter" fill="none" stroke="#7f807f" d="M95.01099 0H99.26266M95.01099 40.34909H99.26266M95.01099 121.04727H99.26266M95.01099 161.39636H99.26266"/>
<path transform="matrix(1,0,0,-1.00006,4.989998,166.5352)" stroke-width=".3985" stroke-linecap="butt" stroke-miterlimit="10" stroke-linejoin="miter" fill="none" stroke="#000000" d="M0 80.69818H192.28116"/>
<path transform="matrix(1,0,0,-1.00006,197.27115,85.832187)" d="M1.99252 0-1.19551 1.59401 0 0-1.19551-1.59401"/>
<path transform="matrix(1,0,0,-1.00006,4.989998,166.5352)" stroke-width=".3985" stroke-linecap="butt" stroke-miterlimit="10" stroke-linejoin="miter" fill="none" stroke="#000000" d="M97.13684 0V159.40384"/>
<path transform="matrix(0,-1.00006,-1,-0,102.12684,7.121811)" d="M1.99252 0-1.19551 1.59401 0 0-1.19551-1.59401"/>
<use data-text="&#x2212;" xlink:href="#font_1_1" transform="matrix(9.9626,0,0,-9.963197,.21699524,97.899089)"/>
<use data-text="6" xlink:href="#font_2_6" transform="matrix(9.9626,0,0,-9.963197,7.965996,97.899089)"/>
<use data-text="&#x2212;" xlink:href="#font_1_1" transform="matrix(9.9626,0,0,-9.963197,32.064996,97.899089)"/>
<use data-text="4" xlink:href="#font_2_4" transform="matrix(9.9626,0,0,-9.963197,39.813997,97.899089)"/>
<use data-text="&#x2212;" xlink:href="#font_1_1" transform="matrix(9.9626,0,0,-9.963197,63.913999,97.899089)"/>
<use data-text="2" xlink:href="#font_2_3" transform="matrix(9.9626,0,0,-9.963197,71.662998,97.899089)"/>
<use data-text="2" xlink:href="#font_2_3" transform="matrix(9.9626,0,0,-9.963197,131.48401,97.899089)"/>
<use data-text="4" xlink:href="#font_2_4" transform="matrix(9.9626,0,0,-9.963197,163.332,97.899089)"/>
<use data-text="6" xlink:href="#font_2_6" transform="matrix(9.9626,0,0,-9.963197,195.181,97.899089)"/>
<use data-text="&#x2212;" xlink:href="#font_1_1" transform="matrix(9.9626,0,0,-9.963197,78.77,169.33037)"/>
<use data-text="1" xlink:href="#font_2_2" transform="matrix(9.9626,0,0,-9.963197,86.519,169.33037)"/>
<use data-text="0" xlink:href="#font_2_1" transform="matrix(9.9626,0,0,-9.963197,91.5003,169.33037)"/>
<use data-text="&#x2212;" xlink:href="#font_1_1" transform="matrix(9.9626,0,0,-9.963197,83.751,128.97895)"/>
<use data-text="5" xlink:href="#font_2_5" transform="matrix(9.9626,0,0,-9.963197,91.5,128.97895)"/>
<use data-text="5" xlink:href="#font_2_5" transform="matrix(9.9626,0,0,-9.963197,91.5,48.69114)"/>
<use data-text="1" xlink:href="#font_2_2" transform="matrix(9.9626,0,0,-9.963197,86.518,8.339706)"/>
<use data-text="0" xlink:href="#font_2_1" transform="matrix(9.9626,0,0,-9.963197,91.4993,8.339706)"/>
<path transform="matrix(1,0,0,-1.00006,4.989998,166.5352)" stroke-width=".99628" stroke-linecap="butt" stroke-miterlimit="10" stroke-linejoin="miter" fill="none" stroke="#0000ff" d="M4.48161 72.62836H1.66728 1.74219L1.81708 72.62672 1.89198 72.62431 1.96689 72.6227 2.04176 72.62029 2.11667 72.61786 2.19157 72.61302 2.26646 72.61058 2.34137 72.60574 2.41626 72.60092 2.49115 72.59607 2.56606 72.5896 2.64096 72.58478 2.71585 72.57831 2.79074 72.57106 2.86565 72.5638 2.94054 72.55653 3.01544 72.54765 3.09035 72.53958 3.16524 72.52908 3.24013 72.52103 3.31503 72.50972 3.38992 72.49924 3.46483 72.48874 3.53973 72.47664 3.61461 72.46373 3.68951 72.45161 3.76442 72.43951 3.83931 72.4258 3.91422 72.41127 3.9891 72.39674 4.064 72.38141 4.1389 72.36688 4.21379 72.35075 4.2887 72.3338 4.36359 72.31604 4.43848 72.2991 4.51338 72.28053 4.58829 72.262 4.66318 72.24261 4.73808 72.22243 4.81297 72.20308 4.88786 72.18208 4.96277 72.16031 5.03767 72.1377 5.11256 72.1159 5.18745 72.09251 5.26236 72.06912 5.33725 72.0441 5.41216 72.01988 5.48706 71.99406 5.56194 71.96661 5.63684 71.9408 5.71175 71.91255 5.78664 71.88431 5.86154 71.85606 5.93643 71.8262 6.01132 71.79555 6.08623 71.76486 6.16113 71.73259 6.23602 71.70032 6.31093 71.66724 6.38582 71.63254 6.46071 71.59863 6.53561 71.56313 6.61052 71.52682 6.68541 71.49051 6.7603 71.45177 6.83519 71.41383 6.9101 71.3743 6.985 71.33395 7.05989 71.2928 7.13478 71.25082 7.20969 71.20807 7.28458 71.16368 7.35948 71.11931 7.43439 71.07411 7.50926 71.0273 7.58417 70.97887 7.65907 70.92966 7.73396 70.88043 7.80887 70.8304 7.88377 70.77875 7.95865 70.72548 8.03355 70.67142 8.10846 70.61574 8.18335 70.55925 8.25826 70.50114 8.33316 70.44304 8.40804 70.38333 8.48294 70.3212 8.55785 70.25905 8.63274 70.19449 8.70764 70.12912 8.78253 70.06294 8.85742 69.99516 8.93233 69.92496 9.00723 69.85394 9.08212 69.78131 9.15703 69.70708 9.2319 69.63042 9.30681 69.55376 9.3817 69.47466 9.4566 69.39316 9.53151 69.31085 9.6064 69.22531 9.68129 69.13976 9.75618 69.051 9.8311 68.9598 9.90599 68.86781 9.98088 68.77258 10.05579 68.67494 10.13068 68.5773 10.20558 68.47481 10.28049 68.37071 10.35536 68.26419 10.43027 68.15524 10.50517 68.04388 10.58006 67.92929 10.65497 67.81227 10.72986 67.69286 10.80475 67.571 10.87965 67.4435 10.95456 67.31436 11.02945 67.18123 11.10434 67.04645 11.17924 66.90685 11.25414 66.764 11.32904 66.61795 11.40395 66.46623 11.47882 66.3121 11.55373 66.15233 11.62863 65.9893 11.70352 65.82227 11.77843 65.64796 11.8533 65.47122 11.92822 65.28806 12.00311 65.10162 12.078 64.90715 12.15291 64.70782 12.2278 64.50366 12.3027 64.29143 12.3776 64.07434 12.4525 63.8492 12.52739 63.61678 12.6023 63.37791 12.6772 63.13179 12.75208 62.87677 12.82698 62.61209 12.90189 62.34094 12.97678 62.0593 13.05168 61.76718 13.12657 61.46455 13.20146 61.15146 13.27637 60.82785 13.35127 60.49054 13.42616 60.1419 13.50105 59.77878 13.57596 59.40192 13.65085 59.01053 13.72575 58.60138 13.80066 58.17935 13.87553 57.73471 13.95044 57.27391 14.02534 56.79134 14.10023 56.2894 14.17514 55.76244 14.25002 55.20883 14.32492 54.63264 14.39983 54.0258 14.47472 53.39151 14.54962 52.72171 14.62451 52.01642 14.6994 51.27481 14.77432 50.49042 14.84921 49.66568 14.9241 48.78525 14.999 47.85803 15.07391 46.8719 15.1488 45.82042 15.2237 44.70436 15.2986 43.50598 15.37347 42.23096 15.4484 40.85748 15.5233 39.37909 15.59818 37.7853 15.67308 36.05756 15.74797 34.19019 15.82288 32.15337 15.89778 29.92772 15.97267 27.48175 16.04756 24.78725 16.12245 21.80382 16.19737 18.48471 16.27226 14.75806 16.34715 10.55048 16.42206 5.7699 16.45758 3.16321"/>
<path transform="matrix(-1,-0,0,1.00006,9.471607,93.90249)" d="M2.8892 0-1.73352 2.31136 0 0-1.73352-2.31136" fill="#0000ff"/>
<path transform="matrix(.01363,.99994,.99988,-.013630818,21.447567,163.3718)" d="M2.8892 0-1.73352 2.31136 0 0-1.73352-2.31136" fill="#0000ff"/>
<path transform="matrix(1,0,0,-1.00006,4.989998,166.5352)" stroke-width=".99628" stroke-linecap="butt" stroke-miterlimit="10" stroke-linejoin="miter" fill="none" stroke="#0000ff" d="M18.57765 158.20897 18.6854 150.8273 18.8352 142.90113 18.985 136.5978 19.13478 131.46056 19.28458 127.19646 19.43439 123.6054 19.58417 120.53725 19.73396 117.8863 19.88377 115.5727 20.03357 113.53749 20.18335 111.72984 20.33316 110.11911 20.48296 108.67218 20.63274 107.36649 20.78255 106.18346 20.93234 105.10452 21.08214 104.1208 21.23195 103.21698 21.38173 102.385 21.53152 101.61674 21.68132 100.905 21.83112 100.24327 21.98091 99.62915 22.1307 99.05377 22.28052 98.51874 22.4303 98.0168 22.5801 97.54713 22.7299 97.10411 22.87968 96.68771 23.02948 96.29471 23.17929 95.92351 23.32909 95.57407 23.47887 95.24321 23.62868 94.92929 23.77847 94.63232 23.92827 94.34906 24.07805 94.08034 24.22786 93.82535 24.37766 93.58324 24.52744 93.35164 24.67725 93.13135 24.82704 92.92072 24.97684 92.71977 25.12663 92.52771 25.27643 92.34534 25.42622 92.17102 25.57603 92.00317 25.72581 91.84178 25.87561 91.68925 26.02542 91.54158 26.17522 91.40117 26.325 91.26721 26.47481 91.13728 26.6246 91.013 26.77438 90.89359 26.92418 90.7806 27.07399 90.67085 27.22379 90.56593 27.37357 90.46507 27.52338 90.36903 27.67317 90.27704 27.82295 90.18826 27.97276 90.10353 28.12256 90.02203 28.27235 89.94456 28.42215 89.8695 28.57195 89.7977 28.72174 89.7291 28.87155 89.66374 29.02133 89.60078 29.17113 89.54027 29.32092 89.48378 29.47073 89.42972 29.62051 89.37645 29.77031 89.32721 29.92012 89.28043 30.0699 89.23523 30.2197 89.19325 30.3695 89.15372 30.5193 89.1158 30.66908 89.08029 30.8189 89.04558 30.96869 89.0133 31.11848 88.98506 31.26828 88.95682 31.41808 88.9326 31.56787 88.9076 31.71765 88.88661 31.86746 88.86563 32.01726 88.84868 32.16705 88.83253 32.31685 88.81802 32.46664 88.80673 32.61644 88.79541 32.76624 88.78575 32.91603 88.77849 33.06583 88.77364 33.21564 88.7696 33.36542 88.76799H33.51521L33.66502 88.7696 33.8148 88.77364 33.96461 88.77849 34.11438 88.78575 34.2642 88.79541 34.414 88.80673 34.56378 88.81802 34.7136 88.83253 34.86337 88.84868 35.01318 88.86725 35.163 88.88661 35.31277 88.9076 35.46257 88.9326 35.61237 88.95682 35.76216 88.98425 35.91197 89.0133 36.06175 89.04558 36.21156 89.08029 36.36133 89.1158 36.51114 89.15372 36.66095 89.19325 36.81073 89.23523 36.96053 89.28043 37.11032 89.32721 37.26012 89.37645 37.40993 89.42972 37.55972 89.48378 37.70952 89.54027 37.8593 89.60078 38.00911 89.66374 38.1589 89.7291 38.30869 89.7977 38.45851 89.8695 38.60828 89.94456 38.75809 90.02203 38.90788 90.10353 39.05768 90.18826 39.20747 90.27704 39.35725 90.36903 39.50706 90.46507 39.65688 90.56593 39.80666 90.67085 39.95647 90.7806 40.10625 90.89359 40.25604 91.013 40.40585 91.13728 40.55563 91.26721 40.70543 91.40117 40.85522 91.54239 41.00504 91.68925 41.15483 91.84178 41.30463 92.00317 41.45442 92.17102 41.6042 92.34534 41.754 92.52771 41.90382 92.71977 42.05359 92.92072 42.2034 93.13135 42.3532 93.35164 42.50299 93.58324 42.65279 93.82535 42.80258 94.08034 42.95238 94.34988 43.10216 94.63232 43.25198 94.9301 43.40178 95.244 43.55156 95.57407 43.70137 95.92351 43.85115 96.29471 44.00095 96.68771 44.15074 97.1049 44.30054 97.54713 44.45035 98.0168 44.60013 98.51874 44.74994 99.05539 44.89973 99.62915 45.04951 100.24327 45.19933 100.905 45.3491 101.61674 45.4989 102.385 45.64873 103.21698 45.79851 104.1208 45.9483 105.10695 46.0981 106.18507 46.2479 107.3681 46.39769 108.67218 46.54747 110.11911 46.6973 111.73065 46.84706 113.53749 46.99687 115.5727 47.14668 117.8863 47.29646 120.53885 47.44626 123.60861 47.59605 127.20454 47.74585 131.46056 47.89566 136.60182 48.04546 142.91162 48.19525 150.84023 48.3029 158.20897"/>
<path transform="matrix(-.01456,-.99991998,-.99986,.014560873,23.567667,8.316757)" d="M2.8892 0-1.73352 2.31136 0 0-1.73352-2.31136" fill="#0000ff"/>
<path transform="matrix(.01459,-.99991998,-.99986,-.014590874,53.292898,8.316757)" d="M2.8892 0-1.73352 2.31136 0 0-1.73352-2.31136" fill="#0000ff"/>
<path transform="matrix(1,0,0,-1.00006,4.989998,166.5352)" stroke-width=".99628" stroke-linecap="butt" stroke-miterlimit="10" stroke-linejoin="miter" fill="none" stroke="#0000ff" d="M50.42589 3.17848 50.53354 10.5561 50.68335 18.49521 50.83315 24.79451 50.98293 29.93578 51.13272 34.1918 51.28253 37.78772 51.43231 40.8591 51.5821 43.51003 51.73192 45.82121 51.88171 47.85803 52.0315 49.66568 52.1813 51.2756 52.3311 52.72171 52.48088 54.02742 52.63069 55.21045 52.78049 56.2894 52.93028 57.27391 53.0801 58.17935 53.22987 59.01134 53.37967 59.77959 53.52946 60.49133 53.67926 61.15146 53.82906 61.76718 53.97885 62.34094 54.12866 62.87677 54.27844 63.37791 54.42824 63.8492 54.57805 64.29143 54.72783 64.70863 54.87762 65.10162 55.02744 65.47282 55.17723 65.82227 55.32701 66.15312 55.47682 66.46623 55.62662 66.764 55.77641 67.04645 55.92621 67.31436 56.076 67.571 56.2258 67.8131 56.37558 68.04388 56.52539 68.265 56.67519 68.47562 56.82498 68.67656 56.97478 68.86862 57.12457 69.051 57.27437 69.22531 57.42418 69.39316 57.57396 69.55455 57.72375 69.70708 57.87357 69.85475 58.02336 69.99516 58.17314 70.12912 58.32295 70.25905 58.47275 70.38333 58.62253 70.50276 58.77232 70.61574 58.92213 70.72548 59.07193 70.8304 59.22171 70.93127 59.37152 71.0273 59.52132 71.11931 59.6711 71.20807 59.8209 71.2928 59.9707 71.3743 60.1205 71.45177 60.2703 71.52682 60.42009 71.59863 60.56989 71.66724 60.7197 71.73259 60.86948 71.79555 61.01927 71.85606 61.16907 71.91255 61.31888 71.96661 61.46866 72.01988 61.61845 72.06912 61.76826 72.1159 61.91805 72.1611 62.06784 72.20308 62.21765 72.24261 62.36745 72.28053 62.51723 72.31604 62.66704 72.35075 62.81683 72.38303 62.96663 72.41127 63.11642 72.43951 63.26622 72.46373 63.41602 72.48874 63.5658 72.50972 63.7156 72.52908 63.8654 72.54765 64.0152 72.5638 64.165 72.57831 64.31479 72.5896 64.46458 72.60092 64.61438 72.61058 64.76418 72.61786 64.91397 72.6227 65.06378 72.62672 65.21356 72.62836H65.36336L65.51317 72.62672 65.66295 72.6227 65.81276 72.61786 65.96252 72.61058 66.11235 72.60092 66.26215 72.5896 66.41193 72.57831 66.56174 72.5638 66.71152 72.54765 66.86133 72.5307 67.01114 72.50972 67.16092 72.48874 67.31071 72.46373 67.46051 72.43951 67.6103 72.41208 67.76012 72.38303 67.9099 72.35075 68.05971 72.31604 68.20947 72.28053 68.35928 72.24261 68.5091 72.20308 68.65887 72.1611 68.80867 72.1159 68.95847 72.06912 69.10826 72.01988 69.25807 71.96661 69.40787 71.91255 69.55766 71.85606 69.70744 71.79555 69.85725 71.73259 70.00705 71.66724 70.15683 71.59863 70.30666 71.52682 70.45642 71.45177 70.60623 71.3743 70.75604 71.2928 70.90582 71.20807 71.05562 71.11931 71.2054 71.0273 71.35521 70.93127 71.50502 70.8304 71.6548 70.72548 71.80461 70.61574 71.95439 70.50276 72.10419 70.38333 72.254 70.25986 72.40378 70.12912 72.55357 69.99516 72.70337 69.85475 72.85318 69.70708 73.00298 69.55455 73.15277 69.39397 73.30257 69.22531 73.45235 69.051 73.60214 68.86862 73.75197 68.67656 73.90173 68.47562 74.05154 68.265 74.20134 68.04471 74.35114 67.8131 74.50093 67.571 74.65073 67.316 74.80052 67.04727 74.9503 66.764 75.10013 66.46704 75.24992 66.15312 75.3997 65.82227 75.54951 65.47282 75.6993 65.10162 75.84909 64.70863 75.99889 64.29224 76.14868 63.8492 76.2985 63.37953 76.44827 62.8776 76.59808 62.34256 76.74788 61.7688 76.89766 61.15387 77.04747 60.49133 77.19725 59.77959 77.34705 59.01297 77.49687 58.17935 77.64665 57.27632 77.79645 56.29181 77.94624 55.21288 78.09604 54.02823 78.24583 52.72415 78.39561 51.27722 78.54544 49.6665 78.6952 47.86208 78.84502 45.82364 78.99483 43.51648 79.1446 40.8591 79.2944 37.79094 79.4442 34.19989 79.594 29.93578 79.7438 24.80579 79.8936 18.49521 80.0434 10.56903 80.15114 3.18736"/>
<path transform="matrix(-.01459,.99991998,.99986,.014590874,55.41589,163.3565)" d="M2.8892 0-1.73352 2.31136 0 0-1.73352-2.31136" fill="#0000ff"/>
<path transform="matrix(.01456,.99991998,.99986,-.014560873,85.14112,163.34763)" d="M2.8892 0-1.73352 2.31136 0 0-1.73352-2.31136" fill="#0000ff"/>
<path transform="matrix(1,0,0,-1.00006,4.989998,166.5352)" stroke-width=".99628" stroke-linecap="butt" stroke-miterlimit="10" stroke-linejoin="miter" fill="none" stroke="#0000ff" d="M82.27394 158.23317 82.38168 150.84023 82.5315 142.91727 82.68129 136.60182 82.83109 131.47106 82.98088 127.20615 83.13069 123.61104 83.28047 120.53885 83.43027 117.89035 83.58008 115.57593 83.72987 113.5383 83.87967 111.73065 84.02946 110.12073 84.17926 108.67462 84.32906 107.36893 84.47887 106.18588 84.62866 105.10695 84.77846 104.12242 84.92825 103.21861 85.07805 102.3858 85.22784 101.61755 85.37766 100.90579 85.52745 100.24487 85.67725 99.62915 85.82704 99.05539 85.97684 98.51956 86.12663 98.01842 86.27643 97.54713 86.42624 97.1049 86.57603 96.68771 86.72581 96.29471 86.87563 95.92511 87.02542 95.57407 87.17522 95.24321 87.32503 94.9301 87.47482 94.63232 87.6246 94.34988 87.77441 94.08197 87.92421 93.82535 88.074 93.58324 88.2238 93.35164 88.37361 93.13135 88.5234 92.92072 88.67319 92.71977 88.823 92.52771 88.9728 92.34534 89.12259 92.17102 89.2724 92.00317 89.4222 91.84178 89.57198 91.68925 89.72179 91.54239 89.87158 91.40117 90.02138 91.26721 90.17119 91.13728 90.32097 91.013 90.47076 90.89519 90.62056 90.7806 90.77037 90.67085 90.92017 90.56593 91.06996 90.46507 91.21977 90.36903 91.36955 90.27704 91.51935 90.18826 91.66916 90.10353 91.81895 90.02203 91.96875 89.94456 92.11856 89.8695 92.26834 89.7977 92.41814 89.7291 92.56795 89.66374 92.71774 89.60078 92.86754 89.54027 93.01732 89.48378 93.16713 89.42972 93.31693 89.37645 93.46672 89.32721 93.61653 89.28043 93.76633 89.23523 93.91612 89.19325 94.06592 89.15372 94.21571 89.1158 94.36551 89.08029 94.51532 89.04558 94.66512 89.0133 94.81491 88.98506 94.9647 88.95682 95.1145 88.9326 95.2643 88.9076 95.4141 88.88661 95.5639 88.86725 95.71368 88.84868 95.86348 88.83253 96.01329 88.81802 96.16309 88.80673 96.31288 88.79541 96.46269 88.78575 96.61249 88.77849 96.76227 88.77364 96.91208 88.7696 97.06187 88.76799H97.21167L97.36148 88.7696 97.51126 88.77364 97.66107 88.77849 97.81085 88.78575 97.96066 88.79541 98.11046 88.80673 98.26024 88.81802 98.41006 88.83253 98.55984 88.84868 98.70964 88.86563 98.85947 88.88661 99.00925 88.9076 99.15904 88.9326 99.30884 88.95682 99.45863 88.98506 99.60844 89.0133 99.75824 89.04558 99.90804 89.08029 100.05782 89.1158 100.20763 89.15372 100.35744 89.19325 100.50722 89.23523 100.65701 89.28043 100.80681 89.32721 100.95662 89.37645 101.10641 89.42972 101.25621 89.48378 101.40602 89.54027 101.55579 89.60078 101.70561 89.66374 101.85541 89.7291 102.00519 89.7977 102.15501 89.8695 102.3048 89.94456 102.45459 90.02203 102.6044 90.10353 102.75418 90.18826 102.90399 90.27704 103.05377 90.36903 103.20358 90.46507 103.3534 90.56593 103.50317 90.67085 103.65298 90.7806 103.80276 90.89359 103.95256 91.013 104.10239 91.13647 104.25217 91.26721 104.40196 91.40117 104.55176 91.54158 104.70157 91.68925 104.85136 91.84178 105.00114 92.00317 105.15096 92.17102 105.30074 92.34534 105.45055 92.52771 105.60036 92.71977 105.75014 92.92072 105.89995 93.13135 106.04974 93.35164 106.19954 93.58324 106.34933 93.82535 106.49913 94.08034 106.64894 94.34988 106.79872 94.63232 106.94853 94.9301 107.09833 95.24321 107.24811 95.57407 107.39792 95.92351 107.54771 96.29471 107.69751 96.68771 107.84732 97.1049 107.99712 97.54713 108.14691 98.0168 108.29669 98.51874 108.4465 99.05539 108.59631 99.62915 108.7461 100.24327 108.8959 100.90579 109.04568 101.61674 109.1955 102.385 109.3453 103.21698 109.49509 104.1208 109.64488 105.10695 109.79466 106.18588 109.94449 107.3681 110.09428 108.67462 110.24406 110.11911 110.39389 111.72984 110.54366 113.5383 110.69347 115.57512 110.84328 117.8863 110.99306 120.53885 111.14287 123.60861 111.29266 127.20454 111.44246 131.46862 111.59227 136.60182 111.74205 142.91162 111.89186 150.84023 111.9995 158.21785"/>
<path transform="matrix(-.01456,-.99991998,-.99986,.014560873,87.263957,8.292557)" d="M2.8892 0-1.73352 2.31136 0 0-1.73352-2.31136" fill="#0000ff"/>
<path transform="matrix(.01459,-.99991998,-.99986,-.014590874,116.989498,8.307877)" d="M2.8892 0-1.73352 2.31136 0 0-1.73352-2.31136" fill="#0000ff"/>
<path transform="matrix(1,0,0,-1.00006,4.989998,166.5352)" stroke-width=".99628" stroke-linecap="butt" stroke-miterlimit="10" stroke-linejoin="miter" fill="none" stroke="#0000ff" d="M114.12209 3.15509 114.22983 10.53915 114.37964 18.47906 114.52943 24.78725 114.67921 29.92528 114.82903 34.19019 114.97882 37.78046 115.1286 40.85425 115.2784 43.50438 115.4282 45.82042 115.578 47.85562 115.72778 49.66406 115.8776 51.27481 116.02739 52.72011 116.17717 54.0258 116.32698 55.20883 116.47678 56.28778 116.62657 57.27391 116.77638 58.17691 116.92616 59.01053 117.07596 59.77716 117.22577 60.49054 117.37555 61.15146 117.52534 61.76718 117.67514 62.33934 117.82495 62.87677 117.97473 63.37791 118.12453 63.84837 118.27434 64.29143 118.42412 64.70782 118.57391 65.10083 118.72372 65.47122 118.87352 65.82227 119.0233 66.15233 119.17311 66.46623 119.3229 66.764 119.4727 67.04645 119.6225 67.31436 119.7723 67.571 119.92209 67.81227 120.07187 68.04388 120.22168 68.26419 120.37148 68.47481 120.52127 68.67494 120.67107 68.86781 120.82086 69.051 120.97066 69.22531 121.12047 69.39316 121.27025 69.55376 121.42004 69.70708 121.56985 69.85394 121.71965 69.99516 121.86943 70.12912 122.01924 70.25905 122.16904 70.38333 122.31882 70.50114 122.46861 70.61574 122.61842 70.72548 122.76822 70.8304 122.918 70.92966 123.06781 71.0273 123.2176 71.11931 123.36739 71.20807 123.5172 71.2928 123.66699 71.3743 123.81679 71.45177 123.96658 71.52682 124.11638 71.59863 124.26617 71.66724 124.41599 71.73259 124.56577 71.79555 124.71556 71.85606 124.86536 71.91255 125.01517 71.96661 125.16495 72.01988 125.31474 72.06912 125.46455 72.1159 125.61433 72.1611 125.76413 72.20308 125.91394 72.24261 126.06374 72.28053 126.21352 72.31604 126.36333 72.35075 126.51312 72.38303 126.66292 72.41127 126.81271 72.43951 126.96251 72.46373 127.1123 72.48874 127.2621 72.50972 127.4119 72.52908 127.56169 72.54765 127.71149 72.5638 127.86128 72.57831 128.01108 72.5896 128.16088 72.60092 128.31067 72.61058 128.46047 72.61786 128.61026 72.6227 128.76007 72.62672 128.90985 72.62836H129.05965L129.20946 72.62672 129.35924 72.6227 129.50905 72.61786 129.65883 72.61058 129.80864 72.60092 129.95844 72.59122 130.10822 72.57831 130.25803 72.5638 130.4078 72.54765 130.55762 72.5307 130.70743 72.50972 130.85721 72.48874 131.007 72.46373 131.1568 72.43951 131.3066 72.41208 131.4564 72.38303 131.60619 72.35075 131.756 72.31604 131.90576 72.28053 132.05559 72.24341 132.20539 72.20308 132.35517 72.1611 132.50496 72.1159 132.65476 72.06912 132.80455 72.01988 132.95436 71.96661 133.10416 71.91255 133.25395 71.85606 133.40373 71.79555 133.55355 71.73259 133.70334 71.66724 133.85312 71.59863 134.00295 71.52682 134.15271 71.4534 134.30252 71.3743 134.45233 71.2928 134.60211 71.20807 134.7519 71.11931 134.90169 71.0273 135.0515 70.93127 135.20131 70.8304 135.35109 70.72548 135.5009 70.61734 135.65068 70.50276 135.80048 70.38333 135.95029 70.25986 136.10007 70.13074 136.24987 69.99516 136.39966 69.85475 136.54947 69.70708 136.69927 69.55455 136.84906 69.39397 136.99886 69.22693 137.14864 69.0518 137.29843 68.86862 137.44826 68.67656 137.59803 68.47562 137.74784 68.265 137.89763 68.04471 138.04743 67.81471 138.19722 67.571 138.34702 67.316 138.49681 67.04727 138.64659 66.76563 138.79642 66.46704 138.94622 66.15312 139.096 65.82307 139.2458 65.47282 139.39559 65.10162 139.54538 64.71024 139.69518 64.29224 139.84497 63.85081 139.99478 63.38034 140.14456 62.87921 140.29438 62.34256 140.44417 61.7688 140.59395 61.15387 140.74376 60.49297 140.89354 59.78119 141.04334 59.01297 141.19316 58.18176 141.34294 57.27792 141.49274 56.29181 141.64253 55.2153 141.79233 54.03064 141.94213 52.72656 142.09192 51.28207 142.24173 49.67133 142.3915 47.8637 142.5413 45.82849 142.69112 43.51729 142.8409 40.86554 142.99069 37.79901 143.14049 34.20552 143.29029 29.94788 143.4401 24.81305 143.58989 18.50812 143.73969 10.58597 143.84734 3.20996"/>
<path transform="matrix(-.01456,.99991998,.99986,.014560873,119.1121,163.37992)" d="M2.8892 0-1.73352 2.31136 0 0-1.73352-2.31136" fill="#0000ff"/>
<path transform="matrix(.01459,.99991998,.99986,-.014590874,148.83734,163.32503)" d="M2.8892 0-1.73352 2.31136 0 0-1.73352-2.31136" fill="#0000ff"/>
<path transform="matrix(1,0,0,-1.00006,4.989998,166.5352)" stroke-width=".99628" stroke-linecap="butt" stroke-miterlimit="10" stroke-linejoin="miter" fill="none" stroke="#0000ff" d="M145.97032 158.24124 146.07798 150.87088 146.22779 142.92615 146.37758 136.61313 146.52736 131.4783 146.67717 127.21017 146.82697 123.61589 146.97675 120.54694 147.12654 117.89195 147.27635 115.58157 147.42615 113.54233 147.57593 111.73468 147.72574 110.12396 147.87554 108.67703 148.02532 107.37215 148.17513 106.18831 148.32492 105.10855 148.47472 104.12323 148.62453 103.22102 148.7743 102.38823 148.9241 101.61917 149.07392 100.90741 149.2237 100.2457 149.37349 99.62996 149.52329 99.057 149.6731 98.52116 149.82288 98.01842 149.97267 97.54796 150.12248 97.1049 150.27227 96.6885 150.42206 96.29552 150.57187 95.92511 150.72167 95.57568 150.87145 95.244 151.02126 94.9301 151.17105 94.63313 151.32085 94.34988 151.47064 94.08197 151.62044 93.82695 151.77024 93.58406 151.92002 93.35245 152.06983 93.13214 152.21962 92.92152 152.36942 92.72139 152.51921 92.52852 152.669 92.34534 152.8188 92.17102 152.96862 92.00317 153.1184 91.84258 153.26819 91.68925 153.418 91.54239 153.5678 91.40117 153.71758 91.26721 153.86739 91.13728 154.01718 91.013 154.16696 90.89519 154.31676 90.7806 154.46657 90.67085 154.61637 90.56593 154.76615 90.46667 154.91596 90.36903 155.06575 90.27704 155.21553 90.18826 155.36534 90.10353 155.51514 90.02203 155.66493 89.94456 155.81473 89.8695 155.96453 89.7977 156.11432 89.7291 156.26413 89.66374 156.41391 89.60078 156.5637 89.54027 156.71352 89.48378 156.86331 89.42972 157.01309 89.37807 157.16289 89.32721 157.3127 89.28043 157.46248 89.23604 157.61228 89.19325 157.76209 89.15372 157.91188 89.1158 158.06166 89.08029 158.21147 89.04558 158.36127 89.01492 158.51107 88.98506 158.66086 88.95682 158.81066 88.9326 158.96045 88.9076 159.11025 88.88661 159.26004 88.86563 159.40984 88.84868 159.55963 88.83253 159.70943 88.81802 159.85923 88.80673 160.00902 88.79541 160.15882 88.78575 160.30861 88.77849 160.4584 88.77364 160.60822 88.7696 160.758 88.76799H160.90779L161.0576 88.7696 161.20738 88.77364 161.3572 88.77849 161.50698 88.78575 161.65679 88.79541 161.80658 88.80511 161.95636 88.81802 162.10617 88.83253 162.25595 88.84868 162.40576 88.86563 162.55558 88.88661 162.70536 88.9076 162.85515 88.9326 163.00495 88.95682 163.15474 88.98425 163.30455 89.0133 163.45433 89.04558 163.60414 89.08029 163.7539 89.1158 163.90373 89.15292 164.05353 89.19325 164.20331 89.23523 164.3531 89.28043 164.5029 89.32721 164.6527 89.37645 164.8025 89.42809 164.9523 89.48378 165.1021 89.54027 165.25188 89.60078 165.40169 89.66374 165.55149 89.7291 165.70127 89.7977 165.85109 89.8695 166.00086 89.94293 166.15067 90.02203 166.30048 90.10353 166.45026 90.18826 166.60005 90.27704 166.74983 90.36903 166.89965 90.46507 167.04946 90.56593 167.19924 90.67085 167.34905 90.77899 167.49883 90.89359 167.64862 91.013 167.79843 91.13647 167.94821 91.2656 168.098 91.40117 168.2478 91.54158 168.39762 91.68764 168.54741 91.84178 168.6972 92.00237 168.847 92.1694 168.99678 92.34453 169.14658 92.52771 169.2964 92.71977 169.44617 92.92072 169.59598 93.12971 169.74578 93.35164 169.89557 93.58162 170.04537 93.82454 170.19516 94.08034 170.34496 94.34906 170.49474 94.6307 170.64456 94.92929 170.79436 95.24321 170.94414 95.57326 171.09395 95.92268 171.24373 96.29309 171.39353 96.6861 171.54334 97.1025 171.69312 97.54472 171.84293 98.01599 171.9927 98.51712 172.14252 99.05296 172.29232 99.62672 172.4421 100.24083 172.5919 100.90337 172.74169 101.61433 172.89148 102.38338 173.0413 103.21457 173.19109 104.11841 173.34088 105.10371 173.49068 106.18105 173.64048 107.36327 173.79027 108.66815 173.94007 110.11426 174.08988 111.72339 174.23964 113.53023 174.38945 115.56383 174.53926 117.87582 174.68904 120.52917 174.83884 123.5941 174.98863 127.18274 175.13843 131.44846 175.28824 136.57843 175.43804 142.87773 175.58783 150.81037 175.69548 158.17023"/>
<path transform="matrix(-.01459,-.99991998,-.99986,.014590874,150.96033,8.284485)" d="M2.8892 0-1.73352 2.31136 0 0-1.73352-2.31136" fill="#0000ff"/>
<path transform="matrix(.01459,-.99991998,-.99986,-.014590874,180.68549,8.355499)" d="M2.8892 0-1.73352 2.31136 0 0-1.73352-2.31136" fill="#0000ff"/>
<path transform="matrix(1,0,0,-1.00006,4.989998,166.5352)" stroke-width=".99628" stroke-linecap="butt" stroke-miterlimit="10" stroke-linejoin="miter" fill="none" stroke="#0000ff" d="M177.81568 3.13899 177.85123 5.74893 177.92612 10.51979 178.00102 14.73064 178.07593 18.46535 178.1508 21.79495 178.22571 24.77432 178.30062 27.47125 178.3755 29.91318 178.45041 32.14368 178.52532 34.1813 178.60019 36.04948 178.6751 37.77803 178.75 39.371 178.82489 40.84778 178.8998 42.22128 178.97467 43.50116 179.04958 44.6971 179.12448 45.81476 179.19937 46.86385 179.27428 47.854 179.34917 48.78122 179.42406 49.66084 179.49897 50.48558 179.57387 51.27158 179.64876 52.014 179.72365 52.71689 179.79856 53.38667 179.87345 54.02339 179.94835 54.63023 180.02326 55.20642 180.09815 55.76082 180.17304 56.28697 180.24794 56.7873 180.32283 57.27148 180.39774 57.73227 180.47264 58.17531 180.54752 58.6006 180.62242 59.0081 180.69733 59.39949 180.77222 59.77637 180.84712 60.13951 180.92201 60.4881 180.9969 60.82544 181.07181 61.15063 181.14672 61.46294 181.2216 61.76476 181.2965 62.05688 181.37139 62.33934 181.44629 62.61047 181.5212 62.87517 181.59609 63.13017 181.67099 63.37631 181.74588 63.61516 181.82077 63.84837 181.89568 64.07353 181.97058 64.29062 182.04547 64.50203 182.12036 64.70782 182.19527 64.90552 182.27016 65.10083 182.34506 65.28806 182.41997 65.47122 182.49485 65.64716 182.56975 65.82065 182.64466 65.98851 182.71955 66.15071 182.79445 66.3113 182.86934 66.46463 182.94423 66.61633 183.01914 66.7632 183.09404 66.90604 183.16893 67.04645 183.24384 67.18123 183.31873 67.31436 183.39362 67.44269 183.46852 67.56938 183.54343 67.69124 183.61832 67.81227 183.6932 67.92929 183.76811 68.04388 183.843 68.15524 183.91791 68.26419 183.9928 68.37071 184.06769 68.47481 184.1426 68.57568 184.21749 68.67494 184.29239 68.77098 184.3673 68.86781 184.44217 68.9598 184.51708 69.051 184.59198 69.13815 184.66687 69.22531 184.74178 69.31085 184.81668 69.39316 184.89156 69.47466 184.96646 69.55376 185.04137 69.63042 185.11626 69.70708 185.19116 69.78131 185.26607 69.85394 185.34096 69.92496 185.41585 69.99516 185.49076 70.06294 185.56563 70.12912 185.64055 70.19449 185.71546 70.25905 185.79033 70.3212 185.86524 70.38333 185.94013 70.44223 186.01503 70.50114 186.08994 70.55925 186.16483 70.61574 186.23972 70.67142 186.3146 70.72548 186.38951 70.77711 186.46442 70.8304 186.5393 70.88043 186.6142 70.92966 186.6891 70.97887 186.764 71.0273 186.8389 71.07411 186.91379 71.11931 186.9887 71.16368 187.06359 71.20807 187.13849 71.25082 187.2134 71.2928 187.28827 71.33395 187.36318 71.3743 187.43808 71.41383 187.51297 71.45177 187.58788 71.49051 187.66277 71.52682 187.73766 71.56313 187.81256 71.59863 187.88747 71.63254 187.96236 71.66724 188.03725 71.70032 188.11215 71.73259 188.18704 71.76486 188.26195 71.79555 188.33686 71.8262 188.41173 71.85606 188.48664 71.88431 188.56154 71.91255 188.63643 71.9392 188.71134 71.96661 188.78623 71.99406 188.86113 72.01826 188.93602 72.0441 189.01091 72.06912 189.08582 72.09251 189.16072 72.1159 189.23561 72.1377 189.3105 72.16031 189.3854 72.18208 189.4603 72.20308 189.5352 72.22243 189.6101 72.24261 189.68498 72.262 189.75989 72.28053 189.8348 72.2991 189.90969 72.31604 189.98459 72.3338 190.05948 72.35075 190.13437 72.36688 190.20928 72.38303 190.28418 72.39674 190.35907 72.41127 190.43396 72.4258 190.50887 72.43951 190.58376 72.45161 190.65866 72.46373 190.73357 72.47664 190.80844 72.48874 190.88335 72.49924 190.95825 72.50972 191.03314 72.52103 191.10805 72.52908 191.18294 72.53958 191.25783 72.54765 191.33275 72.55653 191.40764 72.5638 191.48253 72.57106 191.55742 72.57831 191.63231 72.58478 191.70723 72.59122 191.78212 72.59607 191.85701 72.60092 191.9319 72.60574 192.00682 72.61058 192.08171 72.61462 192.1566 72.61705 192.2315 72.62029 192.30638 72.6227 192.3813 72.62431 192.4562 72.62672 192.53108 72.62836H192.60599 189.79166"/>
<path transform="matrix(-.01363,.99994,.99988,.013630818,182.8057,163.39603)" d="M2.8892 0-1.73352 2.31136 0 0-1.73352-2.31136" fill="#0000ff"/>
<path transform="matrix(1,0,0,-1.00006,194.78165,93.90249)" d="M2.8892 0-1.73352 2.31136 0 0-1.73352-2.31136" fill="#0000ff"/>
<path transform="matrix(1,0,0,-1.00006,4.989998,166.5352)" stroke-width=".3985" stroke-linecap="butt" stroke-dasharray="2.98883,2.98883" stroke-miterlimit="10" stroke-linejoin="miter" fill="none" stroke="#ff0000" d="M17.51648 0V161.39636"/>
<path transform="matrix(1,0,0,-1.00006,4.989998,166.5352)" stroke-width=".3985" stroke-linecap="butt" stroke-dasharray="2.98883,2.98883" stroke-miterlimit="10" stroke-linejoin="miter" fill="none" stroke="#ff0000" d="M49.36462 0V161.39636"/>
<path transform="matrix(1,0,0,-1.00006,4.989998,166.5352)" stroke-width=".3985" stroke-linecap="butt" stroke-dasharray="2.98883,2.98883" stroke-miterlimit="10" stroke-linejoin="miter" fill="none" stroke="#ff0000" d="M81.21277 0V161.39636"/>
<path transform="matrix(1,0,0,-1.00006,4.989998,166.5352)" stroke-width=".3985" stroke-linecap="butt" stroke-dasharray="2.98883,2.98883" stroke-miterlimit="10" stroke-linejoin="miter" fill="none" stroke="#ff0000" d="M113.06091 0V161.39636"/>
<path transform="matrix(1,0,0,-1.00006,4.989998,166.5352)" stroke-width=".3985" stroke-linecap="butt" stroke-dasharray="2.98883,2.98883" stroke-miterlimit="10" stroke-linejoin="miter" fill="none" stroke="#ff0000" d="M144.90906 0V161.39636"/>
<path transform="matrix(1,0,0,-1.00006,4.989998,166.5352)" stroke-width=".3985" stroke-linecap="butt" stroke-dasharray="2.98883,2.98883" stroke-miterlimit="10" stroke-linejoin="miter" fill="none" stroke="#ff0000" d="M176.7572 0V161.39636"/>
<use data-text="x" xlink:href="#font_3_1" transform="matrix(9.9626,0,0,-9.963197,190.04999,82.31215)"/>
<use data-text="y" xlink:href="#font_3_2" transform="matrix(9.9626,0,0,-9.963197,105.646999,12.93898)"/>
</svg>
