<svg xmlns="http://www.w3.org/2000/svg" xmlns:xlink="http://www.w3.org/1999/xlink" version="1.1" width="197" height="165" viewBox="0 0 197 165">
<defs>
<path id="font_1_1" d="M.31098939 .36265565H.42999269C.4149933 .30274964 .3929901 .2118988 .3929901 .13302613 .3929901 .09309387 .397995 .06613159 .4039917 .044174196 .41999818-.0057678224 .43299867-.009765625 .44898988-.009765625 .47200013-.009765625 .49598695 .011230469 .49598695 .035186769 .49598695 .043182374 .49398805 .047164918 .48799134 .057159425 .46899415 .09408569 .45098878 .15100098 .45098878 .23286438 .45098878 .25183106 .45098878 .29177857 .46499635 .36265565H.58999636C.60798647 .36265565 .6159973 .36265565 .6269989 .37065126 .6409912 .380661 .6439972 .39665223 .6439972 .4016571 .6439972 .43066407 .6179962 .43066407 .6009979 .43066407H.22399903C.18299866 .43066407 .15499878 .42166139 .10998535 .37965394 .083999637 .35665895 .04499817 .30274964 .04499817 .2937622 .04499817 .28178407 .057998659 .28178407 .06199646 .28178407 .07299805 .28178407 .07398987 .28378297 .07998657 .2927704 .1309967 .36265565 .19299317 .36265565 .21499634 .36265565H.27598573C.24499512 .25283814 .19099427 .13502503 .16099549 .07511902 .15499878 .062149049 .14498902 .04118347 .14199829 .03718567 .14099121 .033187868 .13899231 .029190064 .13899231 .022201539 .13899231 .006225586 .15098572-.009765625 .17399597-.009765625 .21398926-.009765625 .22499085 .035186769 .24899292 .12504578L.31098939 .36265565Z"/>
<path id="font_2_1" d="M.5049896 .18203736H.47099305C.46798707 .16001892 .45799256 .100997928 .44499208 .09098816 .43699647 .084991458 .3600006 .084991458 .34599305 .084991458H.1619873C.2669983 .17803955 .3019867 .20603943 .3619995 .25306703 .43598939 .312088 .5049896 .374115 .5049896 .46914674 .5049896 .5900879 .39898683 .6640625 .2709961 .6640625 .14698792 .6640625 .06298828 .57710269 .06298828 .4851532 .06298828 .43414308 .10598755 .42915345 .115997318 .42915345 .13999939 .42915345 .16899109 .44615174 .16899109 .48214723 .16899109 .5001526 .1619873 .53515627 .10998535 .53515627 .14099121 .6060791 .20899964 .62805178 .2559967 .62805178 .35598756 .62805178 .4079895 .5501404 .4079895 .46914674 .4079895 .38212586 .34599305 .3130951 .31399537 .27708436L.07299805 .038986207C.06298828 .02999878 .06298828 .027999878 .06298828 0H.47499085L.5049896 .18203736Z"/>
<path id="font_3_1" d="M.2649994 .37265016H.37799073C.34498597 .22489929 .33599855 .18196106 .33599855 .11508179 .33599855 .100097659 .33599855 .073150638 .34399415 .03919983 .35398866-.0047454836 .36499024-.0107421879 .37998963-.0107421879 .3999939-.0107421879 .42099 .007247925 .42099 .02722168 .42099 .033218385 .42099 .035202028 .4149933 .049179079 .38598634 .12106323 .38598634 .18595886 .38598634 .21391297 .38598634 .26683045 .3929901 .32073976 .4039917 .37265016H.5179901C.5309906 .37265016 .5669861 .37265016 .5669861 .406662 .5669861 .43066407 .54599 .43066407 .5269928 .43066407H.19198609C.16999817 .43066407 .13198853 .43066407 .08799744 .38365174 .052993776 .34469605 .026992798 .29878236 .026992798 .29379273 .026992798 .29278565 .026992798 .28379823 .038986207 .28379823 .04699707 .28379823 .04899597 .28779603 .054992677 .29577638 .10398865 .37265016 .1619873 .37265016 .18199158 .37265016H.23899842C.20698548 .25186158 .15299988 .13105774 .11099243 .04020691 .102996829 .025222779 .102996829 .023223877 .102996829 .016235352 .102996829-.002746582 .11898804-.0107421879 .13198853-.0107421879 .1619873-.0107421879 .16999817 .017242432 .18199158 .05418396 .19599915 .100097659 .19599915 .10209656 .20899964 .15202332L.2649994 .37265016Z"/>
<path id="font_4_1" d="M.6589966 .23046875C.6759949 .23046875 .69400027 .23046875 .69400027 .25045777 .69400027 .27046205 .6759949 .27046205 .6589966 .27046205H.117996219C.100997928 .27046205 .08299255 .27046205 .08299255 .25045777 .08299255 .23046875 .100997928 .23046875 .117996219 .23046875H.6589966Z"/>
<path id="font_5_3" d="M.2939911 .64004519C.2939911 .66400149 .2939911 .6660156 .2709961 .6660156 .20899964 .60227969 .12098694 .60227969 .08898926 .60227969V.57128909C.10899353 .57128909 .16799927 .57128909 .21998596 .5972748V.07902527C.21998596 .042999269 .21699524 .0309906 .1269989 .0309906H.09498596V0C.12998963 .0029907227 .21699524 .0029907227 .25698854 .0029907227 .29699708 .0029907227 .38398744 .0029907227 .4189911 0V.0309906H.3869934C.29699708 .0309906 .2939911 .041992189 .2939911 .07902527V.64004519Z"/>
<path id="font_3_2" d="M.36698915 .3996582H.45298768C.47299195 .3996582 .48298646 .3996582 .48298646 .41966249 .48298646 .43066407 .47299195 .43066407 .45599366 .43066407H.37298585L.3939972 .5449524C.397995 .5660095 .4119873 .6370239 .41799928 .6490326 .4269867 .66804507 .44400025 .68307498 .46499635 .68307498 .46899415 .68307498 .49499513 .68307498 .5139923 .66503909 .46998597 .661026 .45999146 .6260376 .45999146 .6110382 .45999146 .58802798 .47799684 .57603457 .49699403 .57603457 .522995 .57603457 .5519867 .5980377 .5519867 .6360321 .5519867 .6820679 .5059967 .7050781 .46499635 .7050781 .43099977 .7050781 .36799623 .68707278 .33799745 .58802798 .33198548 .56700137 .32899476 .5569763 .30499269 .43066407H.23599243C.21699524 .43066407 .20599365 .43066407 .20599365 .4116516 .20599365 .3996582 .21499634 .3996582 .23399353 .3996582H.2999878L.22499085 .0048828127C.20698548-.09207153 .18998719-.18309021 .13798523-.18309021 .13398743-.18309021 .10899353-.18309021 .08999634-.16506958 .13598633-.1620636 .14498902-.12606812 .14498902-.111068729 .14498902-.08807373 .1269989-.07606506 .10798645-.07606506 .08198547-.07606506 .052993776-.09806824 .052993776-.13606262 .052993776-.18109131 .09700012-.20507813 .13798523-.20507813 .19299317-.20507813 .23298645-.14607239 .25099183-.108062747 .2829895-.04508972 .30599977 .07583618 .30699159 .082839969L.36698915 .3996582Z"/>
<path id="font_5_1" d="M.33099366-.2400055C.33099366-.23701477 .33099366-.23500061 .31399537-.21800232 .18899536-.0920105 .15699768 .09700012 .15699768 .25 .15699768 .42399598 .19499207 .59799197 .31799317 .72299197 .33099366 .73498538 .33099366 .7369995 .33099366 .73999026 .33099366 .746994 .32699586 .75 .32099916 .75 .31098939 .75 .22099304 .6819916 .1619873 .5549927 .11099243 .44499208 .09899902 .33399964 .09899902 .25 .09899902 .17199707 .10998535 .050994874 .16499329-.06201172 .22499085-.18501282 .31098939-.25 .32099916-.25 .32699586-.25 .33099366-.24700928 .33099366-.2400055Z"/>
<path id="font_3_3" d="M.33399964 .30233766C.33999635 .32835389 .36299134 .42037965 .43299867 .42037965 .43798829 .42037965 .46199037 .42037965 .48298646 .40734864 .45498658 .402359 .43499757 .37734986 .43499757 .35334779 .43499757 .33735658 .44599916 .31835938 .47299195 .31835938 .49499513 .31835938 .5269928 .3363495 .5269928 .37635804 .5269928 .42837525 .46798707 .4423828 .43399049 .4423828 .37599183 .4423828 .34098817 .38935853 .32899476 .36634828 .3039856 .43237306 .25 .4423828 .22099304 .4423828 .116989139 .4423828 .05999756 .3133545 .05999756 .28834535 .05999756 .27833558 .069992069 .27833558 .07199097 .27833558 .07998657 .27833558 .08299255 .28033448 .084991458 .28933717 .11898804 .39535523 .18499756 .42037965 .21899414 .42037965 .23799134 .42037965 .272995 .4113617 .272995 .35334779 .272995 .32235719 .2559967 .25532533 .21899414 .11528015 .20298767 .053268434 .16799927 .011245728 .12399292 .011245728 .117996219 .011245728 .09498596 .011245728 .07398987 .024276734 .09899902 .029266358 .12098694 .05027771 .12098694 .07827759 .12098694 .105270389 .09899902 .11328125 .083999637 .11328125 .053985597 .11328125 .0289917 .08728027 .0289917 .055267335 .0289917 .009246826 .07899475-.0107421879 .12298584-.0107421879 .18899536-.0107421879 .22499085 .059280397 .22799683 .0652771 .23999024 .028274537 .27598573-.0107421879 .33599855-.0107421879 .43899537-.0107421879 .49598695 .118270877 .49598695 .14328003 .49598695 .1532898 .4869995 .1532898 .48399354 .1532898 .47499085 .1532898 .47299195 .14929199 .47099305 .14228821 .43798829 .03527832 .36999513 .011245728 .33799745 .011245728 .29899598 .011245728 .2829895 .043273927 .2829895 .07727051 .2829895 .09927368 .2889862 .121276859 .2999878 .16529846L.33399964 .30233766Z"/>
<path id="font_5_2" d="M.2889862 .25C.2889862 .32798768 .27799989 .44898988 .22299195 .56199648 .16299439 .68499758 .07699585 .75 .066986087 .75 .06098938 .75 .056991579 .74598696 .056991579 .73999026 .056991579 .7369995 .056991579 .73498538 .07598877 .71699526 .17399597 .6179962 .23098755 .45899964 .23098755 .25 .23098755 .07899475 .19400025-.09700012 .069992069-.2230072 .056991579-.23500061 .056991579-.23701477 .056991579-.2400055 .056991579-.2460022 .06098938-.25 .066986087-.25 .07699585-.25 .16699219-.18200684 .22599793-.055007936 .2769928 .054992677 .2889862 .16600037 .2889862 .25Z"/>
<path id="font_5_4" d="M.68699648 .32714845C.70199587 .32714845 .72099307 .32714845 .72099307 .34713746 .72099307 .36714173 .70199587 .36714173 .6879883 .36714173H.08898926C.07499695 .36714173 .055999757 .36714173 .055999757 .34713746 .055999757 .32714845 .07499695 .32714845 .08999634 .32714845H.68699648M.6879883 .13284302C.70199587 .13284302 .72099307 .13284302 .72099307 .15284729 .72099307 .17285156 .70199587 .17285156 .68699648 .17285156H.08999634C.07499695 .17285156 .055999757 .17285156 .055999757 .15284729 .055999757 .13284302 .07499695 .13284302 .08898926 .13284302H.6879883Z"/>
<path id="font_5_5" d="M.116989139 .21801758C.116989139 .38093568 .19898987 .42323304 .2519989 .42323304 .26098634 .42323304 .32398988 .42222596 .35899354 .38594056 .31799317 .38293458 .31199647 .3529358 .31199647 .3399353 .31199647 .31393434 .32998658 .2939453 .35798646 .2939453 .38398744 .2939453 .4039917 .3109436 .4039917 .34094239 .4039917 .40911866 .32798768 .4482422 .25099183 .4482422 .12599182 .4482422 .033996583 .3399353 .033996583 .21601868 .033996583 .08816528 .1329956-.0107421879 .24899292-.0107421879 .3829956-.0107421879 .4149933 .10914612 .4149933 .119140628 .4149933 .12911988 .40499879 .12911988 .4019928 .12911988 .3929901 .12911988 .3909912 .12512207 .3889923 .119140628 .3600006 .026229859 .29499818 .014251709 .2579956 .014251709 .20498657 .014251709 .116989139 .0572052 .116989139 .21801758Z"/>
<path id="font_5_6" d="M.47099305 .21424866C.47099305 .34223939 .37098695 .4482422 .25 .4482422 .125 .4482422 .027999878 .3392334 .027999878 .21424866 .027999878 .085250858 .13198853-.0107421879 .24899292-.0107421879 .36999513-.0107421879 .47099305 .087249759 .47099305 .21424866M.25 .014251709C.20698548 .014251709 .16299439 .035247804 .13598633 .08125305 .11099243 .12524414 .11099243 .18624878 .11099243 .22224427 .11099243 .26124574 .11099243 .31523133 .1349945 .35923768 .1619873 .40522767 .20899964 .426239 .24899292 .426239 .29299928 .426239 .33599855 .40423585 .3619995 .36123658 .3880005 .3182373 .3880005 .26023866 .3880005 .22224427 .3880005 .18624878 .3880005 .13224793 .3659973 .08824158 .34399415 .04324341 .2999878 .014251709 .25 .014251709Z"/>
<path id="font_5_7" d="M.20799256 .19424439C.22999573 .19024658 .31199647 .17424011 .31199647 .102249149 .31199647 .051254274 .2769928 .011245728 .19898987 .011245728 .114990238 .011245728 .07899475 .06825256 .05999756 .15324402 .056991579 .1662445 .055999757 .17024231 .04598999 .17024231 .032989503 .17024231 .032989503 .16323853 .032989503 .14524842V.013244629C.032989503-.003753662 .032989503-.0107421879 .04399109-.0107421879 .04899597-.0107421879 .049987794-.009750366 .068984989 .009246826 .070999149 .011245728 .070999149 .013244629 .08898926 .03224182 .1329956-.009750366 .17799378-.0107421879 .19898987-.0107421879 .31399537-.0107421879 .3600006 .056243898 .3600006 .12825012 .3600006 .1812439 .32998658 .21124268 .31799317 .22323609 .2849884 .25523377 .24598694 .26324464 .20399475 .27124024 .147995 .28224183 .08099365 .2952423 .08099365 .35324098 .08099365 .38822938 .10699463 .42922975 .19299317 .42922975 .30299378 .42922975 .30799867 .3392334 .30999757 .3082428 .31098939 .2992401 .31999208 .2992401 .32199098 .2992401 .33499146 .2992401 .33499146 .304245 .33499146 .3232422V.4242401C.33499146 .4412384 .33499146 .4482422 .32398988 .4482422 .31900025 .4482422 .31698609 .4482422 .3039856 .43623353 .30099488 .43223573 .29100038 .42323304 .2869873 .42022706 .24899292 .4482422 .20799256 .4482422 .19299317 .4482422 .070999149 .4482422 .032989503 .38124085 .032989503 .3252411 .032989503 .29023744 .04899597 .26223756 .07598877 .24023438 .10798645 .21424866 .13598633 .2082367 .20799256 .19424439Z"/>
<path id="font_3_4" d="M.48599244 .38136292C.48999024 .39537049 .48999024 .39736939 .48999024 .40437318 .48999024 .42237855 .47599793 .43138124 .46099855 .43138124 .45098878 .43138124 .43499757 .42536927 .42599488 .41036988 .42399598 .405365 .41600038 .37435914 .4119873 .35635377 .40499879 .33035279 .397995 .30334474 .3919983 .27633668L.34700013 .09628296C.34298707 .08126831 .2999878 .011245728 .23399353 .011245728 .18299866 .011245728 .17199707 .055267335 .17199707 .0922699 .17199707 .1382904 .18899536 .20030213 .22299195 .28833009 .23899842 .3293457 .24299622 .3403473 .24299622 .36035157 .24299622 .405365 .21099854 .4423828 .16099549 .4423828 .06599426 .4423828 .0289917 .29733277 .0289917 .28833009 .0289917 .27833558 .038986207 .27833558 .040985109 .27833558 .050994874 .27833558 .051986696 .28033448 .056991579 .29634095 .083999637 .3903656 .12399292 .42037965 .1579895 .42037965 .1659851 .42037965 .18299866 .42037965 .18299866 .3883667 .18299866 .36335755 .17298889 .3373413 .1659851 .31834413 .12599182 .21231079 .10798645 .1552887 .10798645 .10827637 .10798645 .019256592 .17098999-.0107421879 .22999573-.0107421879 .2689972-.0107421879 .30299378 .0062561037 .33099366 .03425598 .31799317-.017745972 .30599977-.06674194 .2659912-.11973572 .23999024-.15385437 .20199585-.18309021 .1559906-.18309021 .14199829-.18309021 .09700012-.18005371 .07998657-.14074707 .09599304-.14074707 .10899353-.14074707 .12298584-.1287384 .1329956-.11973572 .14299011-.10673523 .14299011-.08773804 .14299011-.056747438 .115997318-.052734376 .10598755-.052734376 .08299255-.052734376 .049987794-.068740848 .049987794-.11773682 .049987794-.16796875 .09399414-.20507813 .1559906-.20507813 .25898744-.20507813 .3619995-.11373901 .3899994-.00074768069L.48599244 .38136292Z"/>
</defs>
<path transform="matrix(1,0,0,-1.00005,1.0960007,163.20035)" stroke-width=".19925" stroke-linecap="butt" stroke-miterlimit="10" stroke-linejoin="miter" fill="none" stroke="#929292" d="M97.13814 78.57173V82.82384M170.82253 78.57173V82.82384"/>
<path transform="matrix(1,0,0,-1.00005,1.0960007,163.20035)" stroke-width=".19925" stroke-linecap="butt" stroke-miterlimit="10" stroke-linejoin="miter" fill="none" stroke="#929292" d="M21.32848 16.13956H25.58025M21.32848 145.25605H25.58025"/>
<path transform="matrix(1,0,0,-1.00005,1.0960007,163.20035)" stroke-width=".3985" stroke-linecap="butt" stroke-miterlimit="10" stroke-linejoin="miter" fill="none" stroke="#000000" d="M0 80.6978H192.28438"/>
<path transform="matrix(1,0,0,-1.00005,193.38037,82.49852)" d="M1.99252 0-1.19551 1.59401 0 0-1.19551-1.59401"/>
<path transform="matrix(1,0,0,-1.00005,1.0960007,163.20035)" stroke-width=".3985" stroke-linecap="butt" stroke-miterlimit="10" stroke-linejoin="miter" fill="none" stroke="#000000" d="M23.45436 0V159.40308"/>
<path transform="matrix(0,-1.00005,-1,-0,24.55036,3.7893067)" d="M1.99252 0-1.19551 1.59401 0 0-1.19551-1.59401"/>
<use data-text="&#x03c0;" xlink:href="#font_1_1" transform="matrix(6.9738,0,0,-6.9741489,95.78,91.14674)"/>
<path transform="matrix(1,0,0,-1.00005,11.289001,-51.9384)" stroke-width=".3985" stroke-linecap="butt" stroke-miterlimit="10" stroke-linejoin="miter" fill="none" stroke="#000000" d="M84.491-144.51H89.4"/>
<use data-text="2" xlink:href="#font_2_1" transform="matrix(6.9738,0,0,-6.9741489,96.249,98.50511)"/>
<use data-text="&#x03c0;" xlink:href="#font_3_1" transform="matrix(9.9626,0,0,-9.963098,168.9,92.434818)"/>
<use data-text="&#x2212;" xlink:href="#font_4_1" transform="matrix(9.9626,0,0,-9.963098,6.1740038,149.85569)"/>
<use data-text="1" xlink:href="#font_5_3" transform="matrix(9.9626,0,0,-9.963098,13.923004,149.85569)"/>
<use data-text="1" xlink:href="#font_5_3" transform="matrix(9.9626,0,0,-9.963098,13.923004,21.147248)"/>
<path transform="matrix(1,0,0,-1.00005,1.0960007,163.20035)" stroke-width=".99628" stroke-linecap="butt" stroke-miterlimit="10" stroke-linejoin="miter" fill="none" stroke="#ec008c" d="M23.45436 145.25605 24.1949 145.24636 24.93546 145.22182 25.67598 145.1805 26.41653 145.12433 27.15707 145.05138 27.89761 144.9623 28.63817 144.86028 29.3787 144.73957 30.11925 144.6027 30.8598 144.45099 31.60033 144.28379 32.34088 144.0985 33.08142 143.89838 33.82196 143.6821 34.56252 143.45034 35.30304 143.20502 36.0436 142.94226 36.78415 142.66402 37.52467 142.37027 38.26523 142.06427 39.00578 141.73954 39.7463 141.40062 40.48686 141.04489 41.22739 140.67433 41.96794 140.28957 42.7085 139.8906 43.44902 139.47678 44.18958 139.04811 44.93013 138.6046 45.67065 138.1488 46.41121 137.6769 47.15173 137.19013 47.89229 136.6898 48.63284 136.17462 49.37337 135.64653 50.11392 135.10489 50.85448 134.55036 51.595 133.98094 52.33556 133.39862 53.0761 132.80467 53.81664 132.19783 54.55719 131.57614 55.29771 130.94153 56.03827 130.2953 56.77882 129.63681 57.51935 128.96605 58.2599 128.28238 59.00044 127.58838 59.74098 126.88274 60.48154 126.16486 61.22206 125.43666 61.96262 124.69617 62.70317 123.94406 63.4437 123.18228 64.18425 122.41016 64.92479 121.62578 65.66533 120.83301 66.40588 120.0299 67.14642 119.21712 67.88696 118.39398 68.62752 117.56247 69.36804 116.72128 70.1086 115.87299 70.84914 115.01308 71.58968 114.14542 72.33023 113.26935 73.07077 112.3849 73.81131 111.49335 74.55186 110.59407 75.29239 109.68571 76.03294 108.77289 76.77348 107.85162 77.51402 106.92328 78.25458 105.98976 78.99512 105.04787 79.73566 104.10144 80.47621 103.14856 81.21675 102.19052 81.95729 101.22731 82.69783 100.25764 83.43837 99.2841 84.17892 98.30605 84.91946 97.32413 85.66 96.33574 86.40056 95.34605 87.1411 94.35121 87.88164 93.35313 88.62218 92.35313 89.36273 91.3486 90.10327 90.34279 90.84381 89.33376 91.58435 88.32211 92.3249 87.30984 93.06544 86.29498 93.80598 85.2795 94.54652 84.2627 95.28708 83.24396 96.02762 82.2246 96.76816 81.20715 97.5087 80.18842 98.24928 79.1697 98.98976 78.15161 99.73035 77.13289 100.47083 76.11609 101.21143 75.0993 101.952 74.08702 102.69247 73.07346 103.43307 72.06183 104.17354 71.05278 104.91414 70.04697 105.65472 69.04309 106.3952 68.04178 107.13579 67.04373 107.87625 66.05081 108.61685 65.05984 109.35745 64.07274 110.09792 63.08952 110.83852 62.11148 111.57896 61.13792 112.31956 60.16827 113.06017 59.20442 113.80063 58.24701 114.54123 57.29413 115.28171 56.3477 116.0223 55.4058 116.76288 54.4723 117.50336 53.5433 118.24394 52.6227 118.98442 51.70985 119.725 50.8028 120.46559 49.90352 121.20607 49.01067 121.94666 48.12622 122.68713 47.25015 123.42773 46.38249 124.1683 45.52258 124.90878 44.67365 125.64937 43.8331 126.38985 43.00159 127.13045 42.17911 127.87102 41.36568 128.6115 40.56256 129.3521 39.76851 130.09256 38.98543 130.83316 38.2133 131.57375 37.4515 132.31421 36.6994 133.05481 35.95892 133.79528 35.23135 134.53588 34.51283 135.27648 33.8072 136.01692 33.11255 136.75753 32.43082 137.498 31.75876 138.23859 31.10092 138.97919 30.45404 139.71965 29.81943 140.46025 29.19775 141.20072 28.5909 141.9413 27.99567 142.6819 27.41463 143.42238 26.84653 144.16297 26.2907 144.90345 25.74904 145.64403 25.22096 146.38462 24.70578 147.12509 24.20544 147.86568 23.71869 148.60616 23.2474 149.34676 22.79099 150.08733 22.34746 150.8278 21.9188 151.5684 21.50499 152.30887 21.106 153.04947 20.72125 153.79004 20.35068 154.53052 19.99625 155.27112 19.65605 156.01158 19.33195 156.75218 19.0253 157.49277 18.73155 158.23323 18.4546 158.97383 18.19055 159.71431 17.94395 160.4549 17.71347 161.19548 17.4972 161.93595 17.29579 162.67655 17.1118 163.41703 16.9446 164.15761 16.79288 164.89821 16.656 165.63867 16.5353 166.37926 16.43329 167.11974 16.34421 167.86034 16.27124 168.60092 16.21507 169.3414 16.17375 170.08199 16.14922 170.82245 16.14082"/>
<use data-text="f" xlink:href="#font_3_2" transform="matrix(9.9626,0,0,-9.963098,128.035,118.94614)" fill="#ec008c"/>
<use data-text="(" xlink:href="#font_5_1" transform="matrix(9.9626,0,0,-9.963098,133.985,118.94614)" fill="#ec008c"/>
<use data-text="x" xlink:href="#font_3_3" transform="matrix(9.9626,0,0,-9.963098,137.85901,118.94614)" fill="#ec008c"/>
<use data-text=")" xlink:href="#font_5_2" transform="matrix(9.9626,0,0,-9.963098,143.55301,118.94614)" fill="#ec008c"/>
<use data-text="=" xlink:href="#font_5_4" transform="matrix(9.9626,0,0,-9.963098,150.17813,118.94614)" fill="#ec008c"/>
<use data-text="c" xlink:href="#font_5_5" transform="matrix(9.9626,0,0,-9.963098,160.68866,118.94614)" fill="#ec008c"/>
<use data-text="o" xlink:href="#font_5_6" transform="matrix(9.9626,0,0,-9.963098,165.11206,118.94614)" fill="#ec008c"/>
<use data-text="s" xlink:href="#font_5_7" transform="matrix(9.9626,0,0,-9.963098,170.09336,118.94614)" fill="#ec008c"/>
<use data-text="x" xlink:href="#font_3_3" transform="matrix(9.9626,0,0,-9.963098,175.71,118.94614)" fill="#ec008c"/>
<path transform="matrix(1,0,0,-1.00005,1.0960007,163.20035)" d="M25.44691 145.25605C25.44691 146.3565 24.55484 147.2486 23.45436 147.2486 22.3539 147.2486 21.4618 146.3565 21.4618 145.25605 21.4618 144.15557 22.3539 143.26349 23.45436 143.26349 24.55484 143.26349 25.44691 144.15557 25.44691 145.25605ZM23.45436 145.25605" fill="#ec008c"/>
<path transform="matrix(1,0,0,-1.00005,1.0960007,163.20035)" stroke-width=".3985" stroke-linecap="butt" stroke-miterlimit="10" stroke-linejoin="miter" fill="none" stroke="#ec008c" d="M25.44691 145.25605C25.44691 146.3565 24.55484 147.2486 23.45436 147.2486 22.3539 147.2486 21.4618 146.3565 21.4618 145.25605 21.4618 144.15557 22.3539 143.26349 23.45436 143.26349 24.55484 143.26349 25.44691 144.15557 25.44691 145.25605ZM23.45436 145.25605"/>
<path transform="matrix(1,0,0,-1.00005,1.0960007,163.20035)" d="M172.81508 16.13956C172.81508 17.24002 171.923 18.13211 170.82253 18.13211 169.72206 18.13211 168.82997 17.24002 168.82997 16.13956 168.82997 15.03908 169.72206 14.147 170.82253 14.147 171.923 14.147 172.81508 15.03908 172.81508 16.13956ZM170.82253 16.13956" fill="#ec008c"/>
<path transform="matrix(1,0,0,-1.00005,1.0960007,163.20035)" stroke-width=".3985" stroke-linecap="butt" stroke-miterlimit="10" stroke-linejoin="miter" fill="none" stroke="#ec008c" d="M172.81508 16.13956C172.81508 17.24002 171.923 18.13211 170.82253 18.13211 169.72206 18.13211 168.82997 17.24002 168.82997 16.13956 168.82997 15.03908 169.72206 14.147 170.82253 14.147 171.923 14.147 172.81508 15.03908 172.81508 16.13956ZM170.82253 16.13956"/>
<use data-text="x" xlink:href="#font_3_3" transform="matrix(9.9626,0,0,-9.963098,186.159,78.97814)"/>
<use data-text="y" xlink:href="#font_3_4" transform="matrix(9.9626,0,0,-9.963098,28.07,9.606674)"/>
</svg>
