<svg xmlns="http://www.w3.org/2000/svg" xmlns:xlink="http://www.w3.org/1999/xlink" version="1.1" width="199" height="171" viewBox="0 0 199 171">
<defs>
<path id="font_1_1" d="M.6589966 .23046875C.6759949 .23046875 .69400027 .23046875 .69400027 .25045777 .69400027 .27046205 .6759949 .27046205 .6589966 .27046205H.117996219C.100997928 .27046205 .08299255 .27046205 .08299255 .25045777 .08299255 .23046875 .100997928 .23046875 .117996219 .23046875H.6589966Z"/>
<path id="font_2_1" d="M.5049896 .18203736H.47099305C.46798707 .16001892 .45799256 .100997928 .44499208 .09098816 .43699647 .084991458 .3600006 .084991458 .34599305 .084991458H.1619873C.2669983 .17803955 .3019867 .20603943 .3619995 .25306703 .43598939 .312088 .5049896 .374115 .5049896 .46914674 .5049896 .5900879 .39898683 .6640625 .2709961 .6640625 .14698792 .6640625 .06298828 .57710269 .06298828 .4851532 .06298828 .43414308 .10598755 .42915345 .115997318 .42915345 .13999939 .42915345 .16899109 .44615174 .16899109 .48214723 .16899109 .5001526 .1619873 .53515627 .10998535 .53515627 .14099121 .6060791 .20899964 .62805178 .2559967 .62805178 .35598756 .62805178 .4079895 .5501404 .4079895 .46914674 .4079895 .38212586 .34599305 .3130951 .31399537 .27708436L.07299805 .038986207C.06298828 .02999878 .06298828 .027999878 .06298828 0H.47499085L.5049896 .18203736Z"/>
<path id="font_3_1" d="M.31098939 .36265565H.42999269C.4149933 .30274964 .3929901 .2118988 .3929901 .13302613 .3929901 .09309387 .397995 .06613159 .4039917 .044174196 .41999818-.0057678224 .43299867-.009765625 .44898988-.009765625 .47200013-.009765625 .49598695 .011230469 .49598695 .035186769 .49598695 .043182374 .49398805 .047164918 .48799134 .057159425 .46899415 .09408569 .45098878 .15100098 .45098878 .23286438 .45098878 .25183106 .45098878 .29177857 .46499635 .36265565H.58999636C.60798647 .36265565 .6159973 .36265565 .6269989 .37065126 .6409912 .380661 .6439972 .39665223 .6439972 .4016571 .6439972 .43066407 .6179962 .43066407 .6009979 .43066407H.22399903C.18299866 .43066407 .15499878 .42166139 .10998535 .37965394 .083999637 .35665895 .04499817 .30274964 .04499817 .2937622 .04499817 .28178407 .057998659 .28178407 .06199646 .28178407 .07299805 .28178407 .07398987 .28378297 .07998657 .2927704 .1309967 .36265565 .19299317 .36265565 .21499634 .36265565H.27598573C.24499512 .25283814 .19099427 .13502503 .16099549 .07511902 .15499878 .062149049 .14498902 .04118347 .14199829 .03718567 .14099121 .033187868 .13899231 .029190064 .13899231 .022201539 .13899231 .006225586 .15098572-.009765625 .17399597-.009765625 .21398926-.009765625 .22499085 .035186769 .24899292 .12504578L.31098939 .36265565Z"/>
<path id="font_2_2" d="M.272995 .33428956C.35099793 .33428956 .40699769 .2803192 .40699769 .1733551 .40699769 .04940796 .33499146 .012466431 .2769928 .012466431 .23699951 .012466431 .14898682 .0234375 .10699463 .082351688 .1539917 .084350589 .16499329 .11735535 .16499329 .13835144 .16499329 .17034912 .14099121 .19335938 .10998535 .19335938 .08198547 .19335938 .053985597 .17634583 .053985597 .13534546 .053985597 .041412355 .1579895-.01953125 .2789917-.01953125 .41799928-.01953125 .5139923 .07336426 .5139923 .1733551 .5139923 .2513275 .44999696 .32929994 .33999635 .35229493 .44499208 .39024354 .48298646 .4650879 .48298646 .5260773 .48298646 .60505679 .3919983 .6640625 .2809906 .6640625 .16999817 .6640625 .084991458 .61006167 .084991458 .5300751 .084991458 .49606324 .10699463 .47706605 .13699341 .47706605 .16799927 .47706605 .18798828 .5000763 .18798828 .5280762 .18798828 .5570679 .16799927 .57806399 .13699341 .5800781 .17199707 .62405398 .24099732 .63505557 .27799989 .63505557 .32299806 .63505557 .38598634 .6130676 .38598634 .5260773 .38598634 .48406983 .37199403 .43814088 .34599305 .4072113 .31298829 .36927796 .2849884 .3672943 .23498535 .36428834 .20999146 .3623047 .20799256 .3623047 .20298767 .3612976 .20098877 .3612976 .19299317 .3592987 .19299317 .34829713 .19299317 .33428956 .20199585 .33428956 .21899414 .33428956H.272995Z"/>
<path id="font_4_1" d="M.2649994 .37265016H.37799073C.34498597 .22489929 .33599855 .18196106 .33599855 .11508179 .33599855 .100097659 .33599855 .073150638 .34399415 .03919983 .35398866-.0047454836 .36499024-.0107421879 .37998963-.0107421879 .3999939-.0107421879 .42099 .007247925 .42099 .02722168 .42099 .033218385 .42099 .035202028 .4149933 .049179079 .38598634 .12106323 .38598634 .18595886 .38598634 .21391297 .38598634 .26683045 .3929901 .32073976 .4039917 .37265016H.5179901C.5309906 .37265016 .5669861 .37265016 .5669861 .406662 .5669861 .43066407 .54599 .43066407 .5269928 .43066407H.19198609C.16999817 .43066407 .13198853 .43066407 .08799744 .38365174 .052993776 .34469605 .026992798 .29878236 .026992798 .29379273 .026992798 .29278565 .026992798 .28379823 .038986207 .28379823 .04699707 .28379823 .04899597 .28779603 .054992677 .29577638 .10398865 .37265016 .1619873 .37265016 .18199158 .37265016H.23899842C.20698548 .25186158 .15299988 .13105774 .11099243 .04020691 .102996829 .025222779 .102996829 .023223877 .102996829 .016235352 .102996829-.002746582 .11898804-.0107421879 .13198853-.0107421879 .1619873-.0107421879 .16999817 .017242432 .18199158 .05418396 .19599915 .100097659 .19599915 .10209656 .20899964 .15202332L.2649994 .37265016Z"/>
<path id="font_5_4" d="M.1269989 .07699585 .23298645 .18003845C.3889923 .31811524 .44898988 .3721466 .44898988 .47216798 .44898988 .5860901 .35899354 .6660156 .23699951 .6660156 .12399292 .6660156 .049987794 .57411196 .049987794 .48516847 .049987794 .4291687 .099990848 .4291687 .102996829 .4291687 .11999512 .4291687 .15499878 .44117738 .15499878 .48217774 .15499878 .5081787 .13699341 .5341797 .101989749 .5341797 .09399414 .5341797 .09199524 .5341797 .08898926 .5331726 .11199951 .59806826 .1659851 .63500979 .22399903 .63500979 .31498719 .63500979 .35798646 .5541382 .35798646 .47216798 .35798646 .39215089 .30799867 .31311036 .25299073 .25108338L.06098938 .036987306C.049987794 .025985718 .049987794 .023986817 .049987794 0H.42099L.44898988 .17404175H.42399598C.4189911 .14402771 .4119873 .1000061 .4019928 .084991458 .394989 .07699585 .32899476 .07699585 .30699159 .07699585H.1269989Z"/>
<path id="font_5_3" d="M.2939911 .64004519C.2939911 .66400149 .2939911 .6660156 .2709961 .6660156 .20899964 .60227969 .12098694 .60227969 .08898926 .60227969V.57128909C.10899353 .57128909 .16799927 .57128909 .21998596 .5972748V.07902527C.21998596 .042999269 .21699524 .0309906 .1269989 .0309906H.09498596V0C.12998963 .0029907227 .21699524 .0029907227 .25698854 .0029907227 .29699708 .0029907227 .38398744 .0029907227 .4189911 0V.0309906H.3869934C.29699708 .0309906 .2939911 .041992189 .2939911 .07902527V.64004519Z"/>
<path id="font_4_3" d="M.48599244 .38136292C.48999024 .39537049 .48999024 .39736939 .48999024 .40437318 .48999024 .42237855 .47599793 .43138124 .46099855 .43138124 .45098878 .43138124 .43499757 .42536927 .42599488 .41036988 .42399598 .405365 .41600038 .37435914 .4119873 .35635377 .40499879 .33035279 .397995 .30334474 .3919983 .27633668L.34700013 .09628296C.34298707 .08126831 .2999878 .011245728 .23399353 .011245728 .18299866 .011245728 .17199707 .055267335 .17199707 .0922699 .17199707 .1382904 .18899536 .20030213 .22299195 .28833009 .23899842 .3293457 .24299622 .3403473 .24299622 .36035157 .24299622 .405365 .21099854 .4423828 .16099549 .4423828 .06599426 .4423828 .0289917 .29733277 .0289917 .28833009 .0289917 .27833558 .038986207 .27833558 .040985109 .27833558 .050994874 .27833558 .051986696 .28033448 .056991579 .29634095 .083999637 .3903656 .12399292 .42037965 .1579895 .42037965 .1659851 .42037965 .18299866 .42037965 .18299866 .3883667 .18299866 .36335755 .17298889 .3373413 .1659851 .31834413 .12599182 .21231079 .10798645 .1552887 .10798645 .10827637 .10798645 .019256592 .17098999-.0107421879 .22999573-.0107421879 .2689972-.0107421879 .30299378 .0062561037 .33099366 .03425598 .31799317-.017745972 .30599977-.06674194 .2659912-.11973572 .23999024-.15385437 .20199585-.18309021 .1559906-.18309021 .14199829-.18309021 .09700012-.18005371 .07998657-.14074707 .09599304-.14074707 .10899353-.14074707 .12298584-.1287384 .1329956-.11973572 .14299011-.10673523 .14299011-.08773804 .14299011-.056747438 .115997318-.052734376 .10598755-.052734376 .08299255-.052734376 .049987794-.068740848 .049987794-.11773682 .049987794-.16796875 .09399414-.20507813 .1559906-.20507813 .25898744-.20507813 .3619995-.11373901 .3899994-.00074768069L.48599244 .38136292Z"/>
<path id="font_5_6" d="M.68699648 .32714845C.70199587 .32714845 .72099307 .32714845 .72099307 .34713746 .72099307 .36714173 .70199587 .36714173 .6879883 .36714173H.08898926C.07499695 .36714173 .055999757 .36714173 .055999757 .34713746 .055999757 .32714845 .07499695 .32714845 .08999634 .32714845H.68699648M.6879883 .13284302C.70199587 .13284302 .72099307 .13284302 .72099307 .15284729 .72099307 .17285156 .70199587 .17285156 .68699648 .17285156H.08999634C.07499695 .17285156 .055999757 .17285156 .055999757 .15284729 .055999757 .13284302 .07499695 .13284302 .08898926 .13284302H.6879883Z"/>
<path id="font_5_9" d="M.20799256 .19424439C.22999573 .19024658 .31199647 .17424011 .31199647 .102249149 .31199647 .051254274 .2769928 .011245728 .19898987 .011245728 .114990238 .011245728 .07899475 .06825256 .05999756 .15324402 .056991579 .1662445 .055999757 .17024231 .04598999 .17024231 .032989503 .17024231 .032989503 .16323853 .032989503 .14524842V.013244629C.032989503-.003753662 .032989503-.0107421879 .04399109-.0107421879 .04899597-.0107421879 .049987794-.009750366 .068984989 .009246826 .070999149 .011245728 .070999149 .013244629 .08898926 .03224182 .1329956-.009750366 .17799378-.0107421879 .19898987-.0107421879 .31399537-.0107421879 .3600006 .056243898 .3600006 .12825012 .3600006 .1812439 .32998658 .21124268 .31799317 .22323609 .2849884 .25523377 .24598694 .26324464 .20399475 .27124024 .147995 .28224183 .08099365 .2952423 .08099365 .35324098 .08099365 .38822938 .10699463 .42922975 .19299317 .42922975 .30299378 .42922975 .30799867 .3392334 .30999757 .3082428 .31098939 .2992401 .31999208 .2992401 .32199098 .2992401 .33499146 .2992401 .33499146 .304245 .33499146 .3232422V.4242401C.33499146 .4412384 .33499146 .4482422 .32398988 .4482422 .31900025 .4482422 .31698609 .4482422 .3039856 .43623353 .30099488 .43223573 .29100038 .42323304 .2869873 .42022706 .24899292 .4482422 .20799256 .4482422 .19299317 .4482422 .070999149 .4482422 .032989503 .38124085 .032989503 .3252411 .032989503 .29023744 .04899597 .26223756 .07598877 .24023438 .10798645 .21424866 .13598633 .2082367 .20799256 .19424439Z"/>
<path id="font_5_7" d="M.1769867 .4423828 .036987306 .43138124V.40037538C.101989749 .40037538 .11099243 .3943634 .11099243 .34532167V.076034549C.11099243 .0309906 .099990848 .0309906 .032989503 .0309906V0C.06498718 .0009918213 .11898804 .0029907227 .14299011 .0029907227 .17799378 .0029907227 .21299744 .0009918213 .24699402 0V.0309906C.18099976 .0309906 .1769867 .035995485 .1769867 .075042728V.4423828M.18099976 .6159363C.18099976 .64793398 .1559906 .6689453 .12799073 .6689453 .09700012 .6689453 .07499695 .64193728 .07499695 .6159363 .07499695 .5889435 .09700012 .5629425 .12799073 .5629425 .1559906 .5629425 .18099976 .5839386 .18099976 .6159363Z"/>
<path id="font_5_8" d="M.10998535 .34429933V.076034549C.10998535 .0309906 .09899902 .0309906 .03199768 .0309906V0C.066986087 .0009918213 .117996219 .0029907227 .14498902 .0029907227 .17098999 .0029907227 .22299195 .0009918213 .25698854 0V.0309906C.18998719 .0309906 .1789856 .0309906 .1789856 .076034549V.2602234C.1789856 .36431886 .25 .42037965 .31399537 .42037965 .3769989 .42037965 .3880005 .36631776 .3880005 .30926515V.076034549C.3880005 .0309906 .3769989 .0309906 .30999757 .0309906V0C.34498597 .0009918213 .3959961 .0029907227 .4229889 .0029907227 .44898988 .0029907227 .5009918 .0009918213 .5349884 0V.0309906C.48298646 .0309906 .45799256 .0309906 .45700074 .061019899V.25221253C.45700074 .3383026 .45700074 .36932374 .42599488 .405365 .4119873 .42237855 .3789978 .4423828 .32099916 .4423828 .24798584 .4423828 .20098877 .39935304 .17298889 .33729554V.4423828L.03199768 .43138124V.40037538C.101989749 .4003601 .10998535 .39335633 .10998535 .34429933Z"/>
<path id="font_5_1" d="M.33099366-.2400055C.33099366-.23701477 .33099366-.23500061 .31399537-.21800232 .18899536-.0920105 .15699768 .09700012 .15699768 .25 .15699768 .42399598 .19499207 .59799197 .31799317 .72299197 .33099366 .73498538 .33099366 .7369995 .33099366 .73999026 .33099366 .746994 .32699586 .75 .32099916 .75 .31098939 .75 .22099304 .6819916 .1619873 .5549927 .11099243 .44499208 .09899902 .33399964 .09899902 .25 .09899902 .17199707 .10998535 .050994874 .16499329-.06201172 .22499085-.18501282 .31098939-.25 .32099916-.25 .32699586-.25 .33099366-.24700928 .33099366-.2400055Z"/>
<path id="font_5_5" d="M.2899933 .35191346C.37199403 .37893678 .42999269 .4490509 .42999269 .52809146 .42999269 .6100464 .34199525 .6660156 .24598694 .6660156 .14498902 .6660156 .068984989 .60606387 .068984989 .53009036 .068984989 .49710084 .09098816 .47808839 .11999512 .47808839 .15098572 .47808839 .17098999 .50009158 .17098999 .5290985 .17098999 .57910159 .12399292 .57910159 .10899353 .57910159 .13999939 .62802127 .20599365 .64100649 .24198914 .64100649 .2829895 .64100649 .33799745 .6190338 .33799745 .5290985 .33799745 .51708987 .33599855 .45906068 .30999757 .4149933 .27999879 .36691285 .24598694 .36390687 .22099304 .36291505 .21299744 .36190797 .18899536 .35990907 .18199158 .35990907 .17399597 .35890199 .16699219 .35791017 .16699219 .3479004 .16699219 .33691407 .17399597 .33691407 .19099427 .33691407H.23498535C.31698609 .33691407 .35398866 .2686615 .35398866 .17037964 .35398866 .034469606 .2849884 .0055389406 .24099732 .0055389406 .19799805 .0055389406 .12298584 .022491456 .08799744 .08137512 .12298584 .07637024 .1539917 .09837341 .1539917 .1363678 .1539917 .17237854 .1269989 .19238281 .09799194 .19238281 .07398987 .19238281 .041992189 .17837525 .041992189 .1343689 .041992189 .043441774 .1349945-.022460938 .24398804-.022460938 .3659973-.022460938 .45700074 .06838989 .45700074 .17037964 .45700074 .252594 .3939972 .33088685 .2899933 .35191346Z"/>
<path id="font_4_2" d="M.33399964 .30233766C.33999635 .32835389 .36299134 .42037965 .43299867 .42037965 .43798829 .42037965 .46199037 .42037965 .48298646 .40734864 .45498658 .402359 .43499757 .37734986 .43499757 .35334779 .43499757 .33735658 .44599916 .31835938 .47299195 .31835938 .49499513 .31835938 .5269928 .3363495 .5269928 .37635804 .5269928 .42837525 .46798707 .4423828 .43399049 .4423828 .37599183 .4423828 .34098817 .38935853 .32899476 .36634828 .3039856 .43237306 .25 .4423828 .22099304 .4423828 .116989139 .4423828 .05999756 .3133545 .05999756 .28834535 .05999756 .27833558 .069992069 .27833558 .07199097 .27833558 .07998657 .27833558 .08299255 .28033448 .084991458 .28933717 .11898804 .39535523 .18499756 .42037965 .21899414 .42037965 .23799134 .42037965 .272995 .4113617 .272995 .35334779 .272995 .32235719 .2559967 .25532533 .21899414 .11528015 .20298767 .053268434 .16799927 .011245728 .12399292 .011245728 .117996219 .011245728 .09498596 .011245728 .07398987 .024276734 .09899902 .029266358 .12098694 .05027771 .12098694 .07827759 .12098694 .105270389 .09899902 .11328125 .083999637 .11328125 .053985597 .11328125 .0289917 .08728027 .0289917 .055267335 .0289917 .009246826 .07899475-.0107421879 .12298584-.0107421879 .18899536-.0107421879 .22499085 .059280397 .22799683 .0652771 .23999024 .028274537 .27598573-.0107421879 .33599855-.0107421879 .43899537-.0107421879 .49598695 .118270877 .49598695 .14328003 .49598695 .1532898 .4869995 .1532898 .48399354 .1532898 .47499085 .1532898 .47299195 .14929199 .47099305 .14228821 .43798829 .03527832 .36999513 .011245728 .33799745 .011245728 .29899598 .011245728 .2829895 .043273927 .2829895 .07727051 .2829895 .09927368 .2889862 .121276859 .2999878 .16529846L.33399964 .30233766Z"/>
<path id="font_5_2" d="M.2889862 .25C.2889862 .32798768 .27799989 .44898988 .22299195 .56199648 .16299439 .68499758 .07699585 .75 .066986087 .75 .06098938 .75 .056991579 .74598696 .056991579 .73999026 .056991579 .7369995 .056991579 .73498538 .07598877 .71699526 .17399597 .6179962 .23098755 .45899964 .23098755 .25 .23098755 .07899475 .19400025-.09700012 .069992069-.2230072 .056991579-.23500061 .056991579-.23701477 .056991579-.2400055 .056991579-.2460022 .06098938-.25 .066986087-.25 .07699585-.25 .16699219-.18200684 .22599793-.055007936 .2769928 .054992677 .2889862 .16600037 .2889862 .25Z"/>
</defs>
<path transform="matrix(1,0,0,-1.00005,2.3949967,163.20037)" stroke-width=".19925" stroke-linecap="butt" stroke-miterlimit="10" stroke-linejoin="miter" fill="none" stroke="#929292" d="M31.88863 79.2804V82.11534M64.51248 79.2804V82.11534M97.13634 79.2804V82.11534M129.7602 79.2804V82.11534M162.38405 79.2804V82.11534"/>
<path transform="matrix(1,0,0,-1.00005,2.3949967,163.20037)" stroke-width=".19925" stroke-linecap="butt" stroke-miterlimit="10" stroke-linejoin="miter" fill="none" stroke="#929292" d="M15.5767 78.57187V82.82385M48.20023 78.57187V82.82385M113.44727 78.57187V82.82385M146.07079 78.57187V82.82385M178.6943 78.57187V82.82385"/>
<path transform="matrix(1,0,0,-1.00005,2.3949967,163.20037)" stroke-width=".19925" stroke-linecap="butt" stroke-miterlimit="10" stroke-linejoin="miter" fill="none" stroke="#929292" d="M79.4067 25.67659H82.24152M79.4067 62.35744H82.24152M79.4067 99.0383H82.24152M79.4067 135.71915H82.24152"/>
<path transform="matrix(1,0,0,-1.00005,2.3949967,163.20037)" stroke-width=".19925" stroke-linecap="butt" stroke-miterlimit="10" stroke-linejoin="miter" fill="none" stroke="#929292" d="M78.69818 7.33617H82.94998M78.69818 44.01701H82.94998M78.69818 117.37872H82.94998M78.69818 154.05957H82.94998"/>
<path transform="matrix(1,0,0,-1.00005,2.3949967,163.20037)" stroke-width=".3985" stroke-linecap="butt" stroke-miterlimit="10" stroke-linejoin="miter" fill="none" stroke="#000000" d="M0 80.69788H192.27962"/>
<path transform="matrix(1,0,0,-1.00005,194.67462,82.49845)" d="M1.99252 0-1.19551 1.59401 0 0-1.19551-1.59401"/>
<path transform="matrix(1,0,0,-1.00005,2.3949967,163.20037)" stroke-width=".3985" stroke-linecap="butt" stroke-miterlimit="10" stroke-linejoin="miter" fill="none" stroke="#000000" d="M80.8241 0V159.40323"/>
<path transform="matrix(0,-1.00005,-1,-0,83.21909,3.7891694)" d="M1.99252 0-1.19551 1.59401 0 0-1.19551-1.59401"/>
<use data-text="&#x2212;" xlink:href="#font_1_1" transform="matrix(9.9626,0,0,-9.963098,8.461998,96.562038)"/>
<use data-text="2" xlink:href="#font_2_1" transform="matrix(6.9738,0,0,-6.9741489,17.405999,92.63883)"/>
<use data-text="&#x03c0;" xlink:href="#font_3_1" transform="matrix(6.9738,0,0,-6.9741489,21.376999,92.63883)"/>
<path transform="matrix(1,0,0,-1.00005,-75.431,-40.964838)" stroke-width=".3985" stroke-linecap="butt" stroke-miterlimit="10" stroke-linejoin="miter" fill="none" stroke="#000000" d="M92.837-135.029H101.717"/>
<use data-text="3" xlink:href="#font_2_2" transform="matrix(6.9738,0,0,-6.9741489,19.861,99.99819)"/>
<use data-text="&#x2212;" xlink:href="#font_1_1" transform="matrix(9.9626,0,0,-9.963098,43.070997,95.06996)"/>
<use data-text="&#x03c0;" xlink:href="#font_3_1" transform="matrix(6.9738,0,0,-6.9741489,52.014997,91.14676)"/>
<path transform="matrix(1,0,0,-1.00005,-40.822004,-42.45691)" stroke-width=".3985" stroke-linecap="butt" stroke-miterlimit="10" stroke-linejoin="miter" fill="none" stroke="#000000" d="M92.837-135.029H97.746"/>
<use data-text="3" xlink:href="#font_2_2" transform="matrix(6.9738,0,0,-6.9741489,52.483999,98.50612)"/>
<use data-text="&#x03c0;" xlink:href="#font_3_1" transform="matrix(6.9738,0,0,-6.9741489,113.38699,91.14676)"/>
<path transform="matrix(1,0,0,-1.00005,28.298996,-42.45691)" stroke-width=".3985" stroke-linecap="butt" stroke-miterlimit="10" stroke-linejoin="miter" fill="none" stroke="#000000" d="M85.088-135.029H89.997"/>
<use data-text="3" xlink:href="#font_2_2" transform="matrix(6.9738,0,0,-6.9741489,113.855998,98.50612)"/>
<use data-text="2" xlink:href="#font_2_1" transform="matrix(6.9738,0,0,-6.9741489,144.025,92.63883)"/>
<use data-text="&#x03c0;" xlink:href="#font_3_1" transform="matrix(6.9738,0,0,-6.9741489,147.997,92.63883)"/>
<path transform="matrix(1,0,0,-1.00005,58.936998,-40.964838)" stroke-width=".3985" stroke-linecap="butt" stroke-miterlimit="10" stroke-linejoin="miter" fill="none" stroke="#000000" d="M85.088-135.029H93.969"/>
<use data-text="3" xlink:href="#font_2_2" transform="matrix(6.9738,0,0,-6.9741489,146.48,99.99819)"/>
<use data-text="&#x03c0;" xlink:href="#font_4_1" transform="matrix(9.9626,0,0,-9.963098,178.07099,92.43383)"/>
<use data-text="&#x2212;" xlink:href="#font_1_1" transform="matrix(9.9626,0,0,-9.963098,64.843,158.65914)"/>
<use data-text="2" xlink:href="#font_5_4" transform="matrix(9.9626,0,0,-9.963098,72.591999,158.65914)"/>
<use data-text="&#x2212;" xlink:href="#font_1_1" transform="matrix(9.9626,0,0,-9.963098,64.843,121.9763)"/>
<use data-text="1" xlink:href="#font_5_3" transform="matrix(9.9626,0,0,-9.963098,72.591999,121.9763)"/>
<use data-text="1" xlink:href="#font_5_3" transform="matrix(9.9626,0,0,-9.963098,72.591999,49.026666)"/>
<use data-text="2" xlink:href="#font_5_4" transform="matrix(9.9626,0,0,-9.963098,72.591999,12.343826)"/>
<path transform="matrix(1,0,0,-1.00005,2.3949967,163.20037)" stroke-width=".99628" stroke-linecap="butt" stroke-miterlimit="10" stroke-linejoin="miter" fill="none" stroke="#0000ff" d="M2.22108 152.02642 .97623 153.06186 1.95247 151.6137 2.92871 149.53682 3.90495 146.85253 4.88121 143.58644 5.85745 139.76137 6.8337 135.41544 7.80995 130.58969 8.7862 125.32011 9.76245 119.65807 10.73868 113.64973 11.71492 107.35237 12.69116 100.81952 13.6674 94.10765 14.64366 87.27768 15.6199 80.39195 16.59615 73.50694 17.5724 66.68506 18.54865 59.98785 19.5249 53.47333 20.50114 47.19872 21.47737 41.22046 22.45361 35.58995 23.42986 30.35925 24.40611 25.57242 25.38235 21.27196 26.3586 17.49823 27.33485 14.27983 28.3111 11.64908 29.28735 9.62871 30.2636 8.2341 31.23982 7.48288 32.21608 7.37503 33.19232 7.91718 34.16856 9.10124 35.1448 10.91473 36.12105 13.34962 37.0973 16.37653 38.07355 19.97124 39.0498 24.1037 40.02605 28.73357 41.00229 33.82486 41.97853 39.32993 42.95477 45.19666 43.93102 51.38179 44.90726 57.82295 45.8835 64.46733 46.85976 71.25475 47.836 78.12581 48.81226 85.01741 49.7885 91.87306 50.76474 98.62894 51.741 105.22781 52.71722 111.61029 53.69347 117.71765 54.66971 123.50002 55.64595 128.9053 56.62221 133.88143 57.59845 138.38951 58.5747 142.38773 59.55095 145.84232 60.52719 148.72252 61.50345 150.99819 62.47968 152.65689 63.45592 153.67662 64.43216 154.05371 65.4084 153.78447 66.38466 152.86743 67.3609 151.31365 68.33716 149.13626 69.3134 146.35367 70.28964 142.99442 71.2659 139.08058 72.24214 134.65319 73.21837 129.75043 74.19461 124.41191 75.17085 118.6897 76.14711 112.63 77.12335 106.29083 78.09961 99.72423 79.07585 92.98888 80.0521 86.1457 81.02835 79.25632 82.0046 72.37865 82.98083 65.57141 83.95706 58.90063 84.9333 52.42133 85.90956 46.19217 86.8858 40.26822 87.86206 34.70007 88.8383 29.53835 89.81454 24.82927 90.7908 20.61243 91.76704 16.9282 92.74329 13.80518 93.71951 11.27202 94.69576 9.3558 95.67201 8.0661 96.64825 7.42125H97.62451L98.60081 8.06685 99.57697 9.35654 100.55327 11.2742 101.52943 13.80739 102.50574 16.9304 103.48204 20.61464 104.45819 24.83365 105.4345 29.54274 106.41064 34.70447 107.38696 40.27261 108.36327 46.19658 109.33942 52.42719 110.31572 58.90651 111.29189 65.57655 112.26819 72.38379 113.24449 79.26143 114.22066 86.15157 115.19695 92.99475 116.1731 99.72862 117.14941 106.29524 118.12572 112.63661 119.10187 118.69484 120.07817 124.4163 121.05434 129.75484 122.03064 134.65686 123.00694 139.08498 123.98311 142.99736 124.9594 146.3566 125.93555 149.13848 126.91187 151.31511 127.88817 152.86743 128.86432 153.78447 129.84062 154.05371 130.81679 153.67809 131.79309 152.65471 132.7694 150.99672 133.74556 148.72104 134.72187 145.8394 135.698 142.38625 136.67432 138.38658 137.65062 133.87631 138.62677 128.9009 139.60308 123.49414 140.57924 117.71324 141.55554 111.60515 142.53185 105.22194 143.50801 98.6238 144.48432 91.86719 145.46047 85.01152 146.43677 78.11993 147.41307 71.24887 148.38922 64.46219 149.36553 57.81854 150.34169 51.3774 151.318 45.19226 152.2943 39.3248 153.27046 33.82045 154.24677 28.73062 155.22292 24.10078 156.19922 19.96758 157.17552 16.37285 158.15167 13.34743 159.12798 10.91254 160.10414 9.10051 161.08045 7.91571 162.05675 7.37503 163.03292 7.48363 164.00922 8.23485 164.98537 9.63017 165.96169 11.65129 166.93798 14.28131 167.91413 17.50041 168.89043 21.27489 169.8666 25.57608 170.8429 30.36366 171.8192 35.5951 172.79537 41.22487 173.77167 47.20384 174.74782 53.47847 175.72414 59.99446 176.70043 66.69165 177.67658 73.51208 178.65288 80.39781 179.62905 87.28354 180.60535 94.11278 181.58165 100.82465 182.55782 107.35678 183.53412 113.65561 184.51027 119.66248 185.48659 125.32379 186.46289 130.59337 187.43903 135.42057 188.41533 139.76578 189.3915 143.58939 190.3678 146.85546 191.3441 149.53975 192.32027 151.61443 193.29657 153.06331 192.05014 152.02823"/>
<path transform="matrix(-.76875,-.6395019,-.63947,.7687884,4.6160767,11.166351)" d="M2.8892 0-1.73352 2.31136 0 0-1.73352-2.31136" fill="#0000ff"/>
<path transform="matrix(.76927,-.6388719,-.63884,-.76930847,194.44513,11.164551)" d="M2.8892 0-1.73352 2.31136 0 0-1.73352-2.31136" fill="#0000ff"/>
<use data-text="y" xlink:href="#font_4_3" transform="matrix(9.9626,0,0,-9.963098,96.551998,167.07056)" fill="#0000ff"/>
<use data-text="=" xlink:href="#font_5_6" transform="matrix(9.9626,0,0,-9.963098,104.561,167.07056)" fill="#0000ff"/>
<use data-text="2" xlink:href="#font_5_4" transform="matrix(9.9626,0,0,-9.963098,115.061588,167.07056)" fill="#0000ff"/>
<use data-text="s" xlink:href="#font_5_9" transform="matrix(9.9626,0,0,-9.963098,121.70664,167.07056)" fill="#0000ff"/>
<use data-text="i" xlink:href="#font_5_7" transform="matrix(9.9626,0,0,-9.963098,125.631908,167.07056)" fill="#0000ff"/>
<use data-text="n" xlink:href="#font_5_8" transform="matrix(9.9626,0,0,-9.963098,128.39154,167.07056)" fill="#0000ff"/>
<use data-text="(" xlink:href="#font_5_1" transform="matrix(9.9626,0,0,-9.963098,135.58455,167.07056)" fill="#0000ff"/>
<use data-text="3" xlink:href="#font_5_5" transform="matrix(9.9626,0,0,-9.963098,139.45005,167.07056)" fill="#0000ff"/>
<use data-text="x" xlink:href="#font_4_2" transform="matrix(9.9626,0,0,-9.963098,144.467,167.07056)" fill="#0000ff"/>
<use data-text="&#x2212;" xlink:href="#font_1_1" transform="matrix(9.9626,0,0,-9.963098,152.375,167.07056)" fill="#0000ff"/>
<use data-text="&#x03c0;" xlink:href="#font_4_1" transform="matrix(9.9626,0,0,-9.963098,162.337,167.07056)" fill="#0000ff"/>
<use data-text=")" xlink:href="#font_5_2" transform="matrix(9.9626,0,0,-9.963098,168.37401,167.07056)" fill="#0000ff"/>
<use data-text="x" xlink:href="#font_4_2" transform="matrix(9.9626,0,0,-9.963098,187.453,78.97816)"/>
<use data-text="y" xlink:href="#font_4_3" transform="matrix(9.9626,0,0,-9.963098,86.739,9.606689)"/>
</svg>
