<svg xmlns="http://www.w3.org/2000/svg" xmlns:xlink="http://www.w3.org/1999/xlink" xmlns:inkscape="http://www.inkscape.org/namespaces/inkscape" version="1.1" width="201" height="171" viewBox="0 0 201 171">
<defs>
<path id="font_1_1" d="M.6589966 .23046875C.6759949 .23046875 .69400027 .23046875 .69400027 .25045777 .69400027 .27046205 .6759949 .27046205 .6589966 .27046205H.117996219C.100997928 .27046205 .08299255 .27046205 .08299255 .25045777 .08299255 .23046875 .100997928 .23046875 .117996219 .23046875H.6589966Z"/>
<path id="font_2_6" d="M.13198853 .327713V.35173036C.13198853 .6047821 .2559967 .64100649 .30699159 .64100649 .33099366 .64100649 .37298585 .634964 .394989 .6007538 .37998963 .6007538 .33999635 .6007538 .33999635 .5557556 .33999635 .524765 .3639984 .5097656 .38598634 .5097656 .4019928 .5097656 .43199159 .51875308 .43199159 .5577545 .43199159 .6178589 .3880005 .6660156 .30499269 .6660156 .1769867 .6660156 .041992189 .5367584 .041992189 .31570436 .041992189 .048553468 .1579895-.022460938 .25099183-.022460938 .3619995-.022460938 .45700074 .07156372 .45700074 .2036438 .45700074 .33070375 .36799623 .4267578 .25698854 .4267578 .18899536 .4267578 .1519928 .37573243 .13198853 .327713M.25099183 .0055389406C.18798828 .0055389406 .1579895 .06556702 .1519928 .080566409 .13398743 .127594 .13398743 .2076416 .13398743 .22564698 .13398743 .30369569 .1659851 .40374757 .2559967 .40374757 .27198792 .40374757 .31799317 .40374757 .34899903 .34172059 .36698915 .30470277 .36698915 .2536621 .36698915 .20463562 .36698915 .15661621 .36698915 .10658264 .34999085 .0705719 .31999208 .010528564 .27398683 .0055389406 .25099183 .0055389406Z"/>
<path id="font_2_4" d="M.2939911 .16503906V.07800293C.2939911 .041992189 .2919922 .0309906 .21798706 .0309906H.19699097V0C.23799134 .0029907227 .2899933 .0029907227 .33198548 .0029907227 .37399293 .0029907227 .4269867 .0029907227 .46798707 0V.0309906H.44699098C.37298585 .0309906 .37098695 .041992189 .37098695 .07800293V.16503906H.47099305V.19602967H.37098695V.65075686C.37098695 .67074587 .37098695 .6767578 .35499574 .6767578 .34599305 .6767578 .34298707 .6767578 .33499146 .66474917L.027999878 .19602967V.16503906H.2939911M.2999878 .19602967H.055999757L.2999878 .5688019V.19602967Z"/>
<path id="font_2_3" d="M.1269989 .07699585 .23298645 .18003845C.3889923 .31811524 .44898988 .3721466 .44898988 .47216798 .44898988 .5860901 .35899354 .6660156 .23699951 .6660156 .12399292 .6660156 .049987794 .57411196 .049987794 .48516847 .049987794 .4291687 .099990848 .4291687 .102996829 .4291687 .11999512 .4291687 .15499878 .44117738 .15499878 .48217774 .15499878 .5081787 .13699341 .5341797 .101989749 .5341797 .09399414 .5341797 .09199524 .5341797 .08898926 .5331726 .11199951 .59806826 .1659851 .63500979 .22399903 .63500979 .31498719 .63500979 .35798646 .5541382 .35798646 .47216798 .35798646 .39215089 .30799867 .31311036 .25299073 .25108338L.06098938 .036987306C.049987794 .025985718 .049987794 .023986817 .049987794 0H.42099L.44898988 .17404175H.42399598C.4189911 .14402771 .4119873 .1000061 .4019928 .084991458 .394989 .07699585 .32899476 .07699585 .30699159 .07699585H.1269989Z"/>
<path id="font_2_2" d="M.2939911 .64004519C.2939911 .66400149 .2939911 .6660156 .2709961 .6660156 .20899964 .60227969 .12098694 .60227969 .08898926 .60227969V.57128909C.10899353 .57128909 .16799927 .57128909 .21998596 .5972748V.07902527C.21998596 .042999269 .21699524 .0309906 .1269989 .0309906H.09498596V0C.12998963 .0029907227 .21699524 .0029907227 .25698854 .0029907227 .29699708 .0029907227 .38398744 .0029907227 .4189911 0V.0309906H.3869934C.29699708 .0309906 .2939911 .041992189 .2939911 .07902527V.64004519Z"/>
<path id="font_2_1" d="M.45999146 .31976319C.45999146 .39982606 .45498658 .47988893 .41999818 .5539398 .37399293 .65000918 .2919922 .6660156 .25 .6660156 .18998719 .6660156 .116989139 .64001467 .07598877 .54693606 .04399109 .47789 .038986207 .39982606 .038986207 .31976319 .038986207 .24472046 .042999269 .15464783 .083999637 .07859802 .1269989-.0024719239 .19999695-.022460938 .24899292-.022460938 .30299378-.022460938 .3789978-.0014648438 .4229889 .09359741 .45498658 .16265869 .45999146 .2407074 .45999146 .31976319M.24899292-.00047302247C.20999146-.00047302247 .15098572 .024551392 .1329956 .12062073 .12199402 .18066406 .12199402 .2727356 .12199402 .3317871 .12199402 .39582826 .12199402 .46188355 .12998963 .5159149 .14898682 .63500979 .22399903 .64401248 .24899292 .64401248 .28199769 .64401248 .34799195 .6259918 .36698915 .52693179 .3769989 .47088624 .3769989 .39482118 .3769989 .3317871 .3769989 .25672914 .3769989 .18867493 .3659973 .12461853 .35099793 .029556275 .2939911-.00047302247 .24899292-.00047302247Z"/>
<path id="font_2_5" d="M.44898988 .20022583C.44898988 .3193512 .36698915 .41944886 .25898744 .41944886 .21099854 .41944886 .16799927 .40345765 .13198853 .36842347V.5637665C.1519928 .5577698 .18499756 .55078127 .21699524 .55078127 .33999635 .55078127 .4099884 .6417694 .4099884 .6547699 .4099884 .6607666 .40699769 .6657715 .3999939 .6657715 .39898683 .6657715 .39698792 .6657715 .3919983 .66278079 .37199403 .6537781 .32299806 .6337738 .2559967 .6337738 .21598816 .6337738 .16999817 .6407776 .12298584 .6617737 .114990238 .66477969 .11299133 .66477969 .11099243 .66477969 .100997928 .66477969 .100997928 .6567688 .100997928 .6407776V.34439088C.100997928 .32637025 .100997928 .31835938 .114990238 .31835938 .12199402 .31835938 .12399292 .32136537 .12799073 .32736207 .13899231 .3433838 .17599488 .39746095 .25698854 .39746095 .30899049 .39746095 .33399964 .35139466 .34199525 .33337403 .35798646 .29632569 .3600006 .25727845 .3600006 .20722962 .3600006 .17222595 .3600006 .11222839 .33599855 .07035828 .31199647 .031463624 .2749939 .0055389406 .22898865 .0055389406 .1559906 .0055389406 .09899902 .058380128 .08198547 .11723328 .084991458 .1162262 .08799744 .115234378 .09899902 .115234378 .13198853 .115234378 .14898682 .14022827 .14898682 .16423035 .14898682 .18823242 .13198853 .21322632 .09899902 .21322632 .084991458 .21322632 .049987794 .20622254 .049987794 .16023255 .049987794 .07434082 .11898804-.022460938 .23098755-.022460938 .34700013-.022460938 .44898988 .073349 .44898988 .20022583Z"/>
<path id="font_3_1" d="M.33399964 .30233766C.33999635 .32835389 .36299134 .42037965 .43299867 .42037965 .43798829 .42037965 .46199037 .42037965 .48298646 .40734864 .45498658 .402359 .43499757 .37734986 .43499757 .35334779 .43499757 .33735658 .44599916 .31835938 .47299195 .31835938 .49499513 .31835938 .5269928 .3363495 .5269928 .37635804 .5269928 .42837525 .46798707 .4423828 .43399049 .4423828 .37599183 .4423828 .34098817 .38935853 .32899476 .36634828 .3039856 .43237306 .25 .4423828 .22099304 .4423828 .116989139 .4423828 .05999756 .3133545 .05999756 .28834535 .05999756 .27833558 .069992069 .27833558 .07199097 .27833558 .07998657 .27833558 .08299255 .28033448 .084991458 .28933717 .11898804 .39535523 .18499756 .42037965 .21899414 .42037965 .23799134 .42037965 .272995 .4113617 .272995 .35334779 .272995 .32235719 .2559967 .25532533 .21899414 .11528015 .20298767 .053268434 .16799927 .011245728 .12399292 .011245728 .117996219 .011245728 .09498596 .011245728 .07398987 .024276734 .09899902 .029266358 .12098694 .05027771 .12098694 .07827759 .12098694 .105270389 .09899902 .11328125 .083999637 .11328125 .053985597 .11328125 .0289917 .08728027 .0289917 .055267335 .0289917 .009246826 .07899475-.0107421879 .12298584-.0107421879 .18899536-.0107421879 .22499085 .059280397 .22799683 .0652771 .23999024 .028274537 .27598573-.0107421879 .33599855-.0107421879 .43899537-.0107421879 .49598695 .118270877 .49598695 .14328003 .49598695 .1532898 .4869995 .1532898 .48399354 .1532898 .47499085 .1532898 .47299195 .14929199 .47099305 .14228821 .43798829 .03527832 .36999513 .011245728 .33799745 .011245728 .29899598 .011245728 .2829895 .043273927 .2829895 .07727051 .2829895 .09927368 .2889862 .121276859 .2999878 .16529846L.33399964 .30233766Z"/>
<path id="font_3_2" d="M.48599244 .38136292C.48999024 .39537049 .48999024 .39736939 .48999024 .40437318 .48999024 .42237855 .47599793 .43138124 .46099855 .43138124 .45098878 .43138124 .43499757 .42536927 .42599488 .41036988 .42399598 .405365 .41600038 .37435914 .4119873 .35635377 .40499879 .33035279 .397995 .30334474 .3919983 .27633668L.34700013 .09628296C.34298707 .08126831 .2999878 .011245728 .23399353 .011245728 .18299866 .011245728 .17199707 .055267335 .17199707 .0922699 .17199707 .1382904 .18899536 .20030213 .22299195 .28833009 .23899842 .3293457 .24299622 .3403473 .24299622 .36035157 .24299622 .405365 .21099854 .4423828 .16099549 .4423828 .06599426 .4423828 .0289917 .29733277 .0289917 .28833009 .0289917 .27833558 .038986207 .27833558 .040985109 .27833558 .050994874 .27833558 .051986696 .28033448 .056991579 .29634095 .083999637 .3903656 .12399292 .42037965 .1579895 .42037965 .1659851 .42037965 .18299866 .42037965 .18299866 .3883667 .18299866 .36335755 .17298889 .3373413 .1659851 .31834413 .12599182 .21231079 .10798645 .1552887 .10798645 .10827637 .10798645 .019256592 .17098999-.0107421879 .22999573-.0107421879 .2689972-.0107421879 .30299378 .0062561037 .33099366 .03425598 .31799317-.017745972 .30599977-.06674194 .2659912-.11973572 .23999024-.15385437 .20199585-.18309021 .1559906-.18309021 .14199829-.18309021 .09700012-.18005371 .07998657-.14074707 .09599304-.14074707 .10899353-.14074707 .12298584-.1287384 .1329956-.11973572 .14299011-.10673523 .14299011-.08773804 .14299011-.056747438 .115997318-.052734376 .10598755-.052734376 .08299255-.052734376 .049987794-.068740848 .049987794-.11773682 .049987794-.16796875 .09399414-.20507813 .1559906-.20507813 .25898744-.20507813 .3619995-.11373901 .3899994-.00074768069L.48599244 .38136292Z"/>
</defs>
<path transform="matrix(1,0,0,-1.00006,4.989998,166.5352)" stroke-width=".19925" stroke-linecap="butt" stroke-miterlimit="10" stroke-linejoin="miter" fill="none" stroke="#7f807f" d="M1.5924 78.57237V82.82396M33.44055 78.57237V82.82396M65.2887 78.57237V82.82396M128.98499 78.57237V82.82396M160.83313 78.57237V82.82396M192.68128 78.57237V82.82396"/>
<path transform="matrix(1,0,0,-1.00006,4.989998,166.5352)" stroke-width=".19925" stroke-linecap="butt" stroke-miterlimit="10" stroke-linejoin="miter" fill="none" stroke="#7f807f" d="M95.01099 0H99.26266M95.01099 40.34909H99.26266M95.01099 121.04727H99.26266M95.01099 161.39636H99.26266"/>
<path transform="matrix(1,0,0,-1.00006,4.989998,166.5352)" stroke-width=".3985" stroke-linecap="butt" stroke-miterlimit="10" stroke-linejoin="miter" fill="none" stroke="#000000" d="M0 80.69818H192.28116"/>
<path transform="matrix(1,0,0,-1.00006,197.27115,85.832187)" d="M1.99252 0-1.19551 1.59401 0 0-1.19551-1.59401"/>
<path transform="matrix(1,0,0,-1.00006,4.989998,166.5352)" stroke-width=".3985" stroke-linecap="butt" stroke-miterlimit="10" stroke-linejoin="miter" fill="none" stroke="#000000" d="M97.13684 0V159.40384"/>
<path transform="matrix(0,-1.00006,-1,-0,102.12684,7.121811)" d="M1.99252 0-1.19551 1.59401 0 0-1.19551-1.59401"/>
<use data-text="&#x2212;" xlink:href="#font_1_1" transform="matrix(9.9626,0,0,-9.963197,.21699524,97.899089)"/>
<use data-text="6" xlink:href="#font_2_6" transform="matrix(9.9626,0,0,-9.963197,7.965996,97.899089)"/>
<use data-text="&#x2212;" xlink:href="#font_1_1" transform="matrix(9.9626,0,0,-9.963197,32.064996,97.899089)"/>
<use data-text="4" xlink:href="#font_2_4" transform="matrix(9.9626,0,0,-9.963197,39.813997,97.899089)"/>
<use data-text="&#x2212;" xlink:href="#font_1_1" transform="matrix(9.9626,0,0,-9.963197,63.913999,97.899089)"/>
<use data-text="2" xlink:href="#font_2_3" transform="matrix(9.9626,0,0,-9.963197,71.662998,97.899089)"/>
<use data-text="2" xlink:href="#font_2_3" transform="matrix(9.9626,0,0,-9.963197,131.48401,97.899089)"/>
<use data-text="4" xlink:href="#font_2_4" transform="matrix(9.9626,0,0,-9.963197,163.332,97.899089)"/>
<use data-text="6" xlink:href="#font_2_6" transform="matrix(9.9626,0,0,-9.963197,195.181,97.899089)"/>
<use data-text="&#x2212;" xlink:href="#font_1_1" transform="matrix(9.9626,0,0,-9.963197,78.77,169.33037)"/>
<use data-text="1" xlink:href="#font_2_2" transform="matrix(9.9626,0,0,-9.963197,86.519,169.33037)"/>
<use data-text="0" xlink:href="#font_2_1" transform="matrix(9.9626,0,0,-9.963197,91.5003,169.33037)"/>
<use data-text="&#x2212;" xlink:href="#font_1_1" transform="matrix(9.9626,0,0,-9.963197,83.751,128.97895)"/>
<use data-text="5" xlink:href="#font_2_5" transform="matrix(9.9626,0,0,-9.963197,91.5,128.97895)"/>
<use data-text="5" xlink:href="#font_2_5" transform="matrix(9.9626,0,0,-9.963197,91.5,48.69114)"/>
<use data-text="1" xlink:href="#font_2_2" transform="matrix(9.9626,0,0,-9.963197,86.518,8.339706)"/>
<use data-text="0" xlink:href="#font_2_1" transform="matrix(9.9626,0,0,-9.963197,91.4993,8.339706)"/>
<path transform="matrix(1,0,0,-1.00006,4.989998,166.5352)" stroke-width=".99628" stroke-linecap="butt" stroke-miterlimit="10" stroke-linejoin="miter" fill="none" stroke="#0000ff" d="M3.7149 3.20175 3.93027 10.57387 4.22987 18.50407 4.52945 24.80579 4.82906 29.94386 5.12865 34.19989 5.42824 37.7966 5.72784 40.86232 6.02744 43.51245 6.32703 45.82849 6.62663 47.8637 6.92622 49.6681 7.22581 51.28125 7.5254 52.72415 7.82501 54.02985 8.1246 55.21288 8.4242 56.29181 8.72379 57.27632 9.02339 58.18013 9.32298 59.01297 9.62259 59.78119 9.92216 60.49297 10.22177 61.15387 10.52138 61.7688 10.82095 62.34256 11.12056 62.87921 11.42015 63.37953 11.71974 63.85081 12.01935 64.29224 12.31892 64.70863 12.61853 65.10162 12.91814 65.47282 13.21771 65.82307 13.51732 66.15312 13.81693 66.46704 14.1165 66.764 14.4161 67.04727 14.7157 67.316 15.01529 67.571 15.3149 67.8131 15.61449 68.04471 15.91408 68.265 16.21368 68.47562 16.51328 68.67656 16.81287 68.86862 17.11246 69.051 17.41206 69.22693 17.71165 69.39397 18.01125 69.55455 18.31085 69.70708 18.61044 69.85475 18.91003 69.99516 19.20964 70.13074 19.50922 70.25986 19.80882 70.38333 20.10843 70.50276 20.408 70.61574 20.70761 70.72548 21.00722 70.8304 21.3068 70.93127 21.6064 71.0273 21.90599 71.11931 22.20558 71.20807 22.50519 71.2928 22.80478 71.3743 23.10437 71.45177 23.40398 71.52682 23.70357 71.59863 24.00316 71.66724 24.30275 71.73259 24.60236 71.79555 24.90195 71.85606 25.20154 71.91255 25.50114 71.96661 25.80074 72.01988 26.10033 72.06912 26.39992 72.1159 26.69951 72.1611 26.99911 72.20308 27.29872 72.24341 27.5983 72.28053 27.8979 72.31604 28.19751 72.35075 28.49709 72.38303 28.79669 72.41208 29.09627 72.43951 29.39587 72.46373 29.69548 72.48874 29.99506 72.50972 30.29466 72.5307 30.59427 72.54765 30.89384 72.5638 31.19345 72.57831 31.49304 72.5896 31.79263 72.60092 32.09224 72.61058 32.39183 72.61786 32.69142 72.6227 32.99103 72.62672 33.29062 72.62836H33.59021L33.88982 72.62672 34.18939 72.6227 34.48901 72.61786 34.78857 72.61058 35.0882 72.60092 35.3878 72.5896 35.68736 72.57831 35.98698 72.5638 36.28654 72.54765 36.58617 72.52908 36.88579 72.50972 37.18535 72.48874 37.48495 72.46373 37.78453 72.43951 38.08414 72.41127 38.38376 72.38303 38.68332 72.35075 38.98294 72.31604 39.28252 72.28053 39.58212 72.24261 39.88173 72.20308 40.1813 72.1611 40.48091 72.1159 40.78049 72.06912 41.0801 72.01988 41.37971 71.96661 41.67929 71.91255 41.97888 71.85606 42.27846 71.79555 42.57808 71.73259 42.87769 71.66724 43.17726 71.59863 43.47687 71.52682 43.77644 71.45177 44.07605 71.3743 44.37566 71.2928 44.67523 71.20807 44.97485 71.11931 45.27441 71.0273 45.57404 70.93127 45.87364 70.8304 46.17322 70.72548 46.47282 70.61574 46.77238 70.50114 47.072 70.38333 47.37163 70.25905 47.67119 70.12912 47.97081 69.99516 48.27039 69.85394 48.56998 69.70708 48.8696 69.55376 49.16916 69.39316 49.46878 69.22531 49.76836 69.051 50.06796 68.86781 50.36757 68.67494 50.66714 68.47481 50.96675 68.26419 51.26633 68.04388 51.56593 67.81227 51.86555 67.56938 52.16513 67.31436 52.46472 67.04645 52.7643 66.764 53.06392 66.46623 53.36353 66.15233 53.6631 65.82227 53.9627 65.47122 54.26228 65.10083 54.5619 64.70782 54.8615 64.29143 55.16107 63.84837 55.4607 63.37791 55.76025 62.87677 56.05988 62.34094 56.35948 61.76637 56.65906 61.15146 56.95866 60.49054 57.25822 59.77878 57.55785 59.00893 57.85747 58.17691 58.15703 57.27391 58.45665 56.28778 58.75621 55.20883 59.05582 54.0258 59.35544 52.72011 59.655 51.27481 59.95462 49.66406 60.2542 47.85803 60.5538 45.81718 60.85342 43.50598 61.15298 40.85425 61.45259 37.78046 61.75217 34.19019 62.05177 29.92528 62.3514 24.78725 62.65097 18.47906 62.95058 10.53915 63.16594 3.1622"/>
<path transform="matrix(-.02916,.99959,.99953,.02916175,8.704918,163.33327)" d="M2.8892 0-1.73352 2.31136 0 0-1.73352-2.31136" fill="#0000ff"/>
<path transform="matrix(.02914,.99959,.99953,-.029141747,68.15594,163.37282)" d="M2.8892 0-1.73352 2.31136 0 0-1.73352-2.31136" fill="#0000ff"/>
<path transform="matrix(1,0,0,-1.00006,4.989998,166.5352)" stroke-width=".99628" stroke-linecap="butt" stroke-miterlimit="10" stroke-linejoin="miter" fill="none" stroke="#0000ff" d="M67.41116 158.21881 67.62656 150.84023 67.92616 142.91162 68.22574 136.60182 68.52534 131.46862 68.82494 127.20454 69.12453 123.61104 69.42413 120.53885 69.72372 117.8863 70.02332 115.57512 70.32292 113.53749 70.62251 111.73065 70.9221 110.12073 71.2217 108.67462 71.5213 107.36893 71.82089 106.18507 72.12048 105.10695 72.42007 104.1208 72.71968 103.21698 73.01927 102.385 73.31888 101.61755 73.61845 100.90579 73.91806 100.24487 74.21767 99.62915 74.51724 99.05539 74.81685 98.51874 75.11644 98.0168 75.41603 97.54713 75.71564 97.1049 76.01521 96.6885 76.31482 96.29471 76.61443 95.92351 76.914 95.57407 77.21361 95.24321 77.51321 94.9301 77.81279 94.63232 78.1124 94.34988 78.41199 94.08034 78.71158 93.82535 79.01118 93.58324 79.31078 93.35245 79.61037 93.13135 79.90997 92.92072 80.20956 92.71977 80.50916 92.52771 80.80875 92.34534 81.10835 92.17102 81.40794 92.00317 81.70753 91.84258 82.00714 91.68925 82.30673 91.54158 82.60632 91.40117 82.90593 91.26721 83.2055 91.13728 83.50511 91.013 83.80472 90.89519 84.1043 90.7806 84.4039 90.67085 84.7035 90.56593 85.00308 90.46507 85.30269 90.36903 85.60228 90.27704 85.90187 90.18826 86.20148 90.10353 86.50107 90.02203 86.80066 89.94456 87.10027 89.8695 87.39986 89.7977 87.69945 89.7291 87.99904 89.66374 88.29865 89.60078 88.59824 89.54027 88.89783 89.48378 89.19743 89.42972 89.49702 89.37645 89.79662 89.32721 90.0962 89.28043 90.3958 89.23523 90.6954 89.19325 90.99501 89.15372 91.29459 89.1158 91.5942 89.08029 91.8938 89.04558 92.19337 89.0133 92.49298 88.98506 92.79257 88.95682 93.09216 88.9326 93.39177 88.9076 93.69135 88.88661 93.99095 88.86725 94.29056 88.84868 94.59013 88.83253 94.88974 88.81802 95.18935 88.80673 95.48892 88.79541 95.78853 88.78575 96.08812 88.77849 96.38771 88.77364 96.68732 88.7696 96.98691 88.76799H97.2865L97.58612 88.7696 97.88568 88.77364 98.1853 88.77849 98.48486 88.78575 98.78448 88.79541 99.08409 88.80673 99.38365 88.81802 99.68327 88.83253 99.98285 88.84868 100.28246 88.86563 100.58208 88.88661 100.88164 88.9076 101.18124 88.9326 101.48082 88.95682 101.78043 88.98425 102.08005 89.0133 102.37962 89.04558 102.67923 89.08029 102.9788 89.1158 103.27841 89.15372 103.57802 89.19325 103.8776 89.23523 104.1772 89.28043 104.47678 89.32721 104.7764 89.37645 105.076 89.42972 105.37558 89.48378 105.67517 89.54027 105.97475 89.60078 106.27437 89.66374 106.57397 89.7291 106.87355 89.7977 107.17317 89.8695 107.47273 89.94456 107.77234 90.02203 108.07195 90.10353 108.37152 90.18826 108.67114 90.27704 108.9707 90.36903 109.27032 90.46507 109.56995 90.56593 109.8695 90.67085 110.16911 90.7806 110.46867 90.89359 110.7683 91.013 111.06792 91.13728 111.36748 91.26721 111.6671 91.40117 111.96667 91.54158 112.26627 91.68925 112.56589 91.84178 112.86545 92.00317 113.16507 92.17102 113.46465 92.34534 113.76425 92.52771 114.06386 92.71977 114.36343 92.92072 114.66304 93.13135 114.96262 93.35164 115.26222 93.58324 115.56184 93.82535 115.86142 94.08034 116.16101 94.34906 116.46059 94.63232 116.76021 94.9301 117.05981 95.24321 117.35939 95.57407 117.659 95.92351 117.95857 96.29471 118.2582 96.68771 118.55779 97.10411 118.85736 97.54713 119.15698 98.0168 119.45654 98.51874 119.75616 99.05377 120.05577 99.62755 120.35535 100.24327 120.65495 100.905 120.95451 101.61674 121.25414 102.38338 121.55376 103.21698 121.85332 104.1208 122.15294 105.10452 122.4525 106.18346 122.7521 107.3681 123.05173 108.67218 123.35129 110.11911 123.65091 111.72984 123.95049 113.53749 124.25009 115.5727 124.54971 117.8863 124.84927 120.53401 125.14888 123.60861 125.44846 127.19888 125.74806 131.46056 126.04768 136.5978 126.34726 142.91162 126.64687 150.84023 126.86223 158.21881"/>
<path transform="matrix(-.02914,-.99959,-.99953,.029141747,72.40116,8.3069)" d="M2.8892 0-1.73352 2.31136 0 0-1.73352-2.31136" fill="#0000ff"/>
<path transform="matrix(.02914,-.99959,-.99953,-.029141747,131.85224,8.3069)" d="M2.8892 0-1.73352 2.31136 0 0-1.73352-2.31136" fill="#0000ff"/>
<path transform="matrix(1,0,0,-1.00006,4.989998,166.5352)" stroke-width=".99628" stroke-linecap="butt" stroke-miterlimit="10" stroke-linejoin="miter" fill="none" stroke="#0000ff" d="M131.10749 3.15413 131.32285 10.52545 131.62245 18.47018 131.92203 24.7832 132.22164 29.91803 132.52123 34.18616 132.82082 37.77803 133.12042 40.85425 133.42002 43.50438 133.7196 45.81718 134.01921 47.854 134.3188 49.66165 134.6184 51.27237 134.91799 52.72011 135.21759 54.0258 135.51718 55.20802 135.81678 56.28778 136.11637 57.2731 136.41597 58.17691 136.71556 59.00893 137.01517 59.77716 137.31475 60.49054 137.61435 61.15146 137.91396 61.76637 138.21353 62.33934 138.51314 62.87677 138.81273 63.37791 139.11232 63.84837 139.41193 64.29143 139.7115 64.70782 140.01111 65.10083 140.31072 65.47122 140.61029 65.82065 140.9099 66.15233 141.2095 66.46623 141.50908 66.764 141.80869 67.04645 142.10828 67.31436 142.40787 67.56938 142.70748 67.81227 143.00707 68.04388 143.30666 68.26419 143.60626 68.47481 143.90586 68.67494 144.20545 68.86781 144.50505 69.051 144.80464 69.22531 145.10424 69.39316 145.40383 69.55376 145.70343 69.70708 146.00302 69.85394 146.30261 69.99516 146.60222 70.12912 146.90181 70.25905 147.2014 70.38333 147.501 70.50114 147.80059 70.61574 148.10019 70.72548 148.3998 70.8304 148.69937 70.92966 148.99898 71.0273 149.29859 71.11931 149.59816 71.20807 149.89777 71.2928 150.19736 71.3743 150.49695 71.45177 150.79656 71.52682 151.09615 71.59863 151.39574 71.66724 151.69535 71.73259 151.99494 71.79555 152.29453 71.85606 152.59412 71.91255 152.89373 71.96661 153.19332 72.01826 153.4929 72.06912 153.7925 72.1159 154.0921 72.16031 154.3917 72.20308 154.6913 72.24261 154.99088 72.28053 155.29048 72.31604 155.59009 72.35075 155.88967 72.38303 156.18927 72.41127 156.48886 72.43951 156.78845 72.46373 157.08806 72.48874 157.38764 72.50972 157.68724 72.52908 157.98685 72.54765 158.28643 72.5638 158.58603 72.57831 158.88564 72.5896 159.18521 72.60092 159.48482 72.61058 159.78441 72.61786 160.084 72.6227 160.3836 72.62672 160.6832 72.62836H160.98279L161.28241 72.62672 161.58197 72.6227 161.88159 72.61786 162.18115 72.61058 162.48078 72.60092 162.78038 72.59122 163.07994 72.57831 163.37957 72.5638 163.67914 72.54765 163.97875 72.5307 164.27837 72.50972 164.57793 72.48874 164.87754 72.46373 165.17711 72.43951 165.47672 72.41208 165.77634 72.38303 166.07592 72.35075 166.37552 72.31604 166.6751 72.28053 166.9747 72.24341 167.2743 72.20308 167.57389 72.1611 167.87349 72.1159 168.17307 72.06912 168.47269 72.01988 168.7723 71.96661 169.07187 71.91255 169.37146 71.85606 169.67104 71.79555 169.97066 71.73259 170.27027 71.66724 170.56984 71.59863 170.86946 71.52682 171.16902 71.4534 171.46863 71.3743 171.76824 71.2928 172.06781 71.20807 172.36743 71.11931 172.66699 71.0273 172.96662 70.93127 173.26624 70.8304 173.5658 70.72548 173.8654 70.61574 174.16497 70.50276 174.46459 70.38333 174.7642 70.25986 175.06377 70.13074 175.36339 69.99677 175.66297 69.85475 175.96256 69.70708 176.26218 69.55455 176.56174 69.39397 176.86136 69.22693 177.16094 69.0518 177.46054 68.86862 177.76015 68.67656 178.05973 68.47562 178.35933 68.26662 178.6589 68.04471 178.95851 67.81471 179.25814 67.571 179.55771 67.316 179.8573 67.04727 180.15688 66.76563 180.4565 66.46704 180.7561 66.15312 181.05568 65.82307 181.35529 65.47282 181.65486 65.10162 181.95449 64.71024 182.25408 64.29224 182.55365 63.85081 182.85327 63.38034 183.15283 62.87921 183.45246 62.34256 183.75206 61.7688 184.05164 61.15387 184.35124 60.49297 184.6508 59.78119 184.95043 59.01297 185.25005 58.18176 185.5496 57.27792 185.84923 56.29181 186.14879 55.2153 186.4484 54.03064 186.74802 52.72656 187.04758 51.28125 187.3472 49.67133 187.64678 47.86612 187.94638 45.82849 188.246 43.51729 188.54557 40.86554 188.84517 37.7966 189.14475 34.20552 189.44435 29.94788 189.74398 24.81305 190.04355 18.50812 190.34316 10.57387 190.5584 3.20901"/>
<path transform="matrix(-.02916,.99959,.99953,.02916175,136.0975,163.38089)" d="M2.8892 0-1.73352 2.31136 0 0-1.73352-2.31136" fill="#0000ff"/>
<path transform="matrix(.02919,.99959,.99953,-.029191751,195.54837,163.326)" d="M2.8892 0-1.73352 2.31136 0 0-1.73352-2.31136" fill="#0000ff"/>
<path transform="matrix(1,0,0,-1.00006,4.989998,166.5352)" stroke-width=".3985" stroke-linecap="butt" stroke-dasharray="2.98883,2.98883" stroke-miterlimit="10" stroke-linejoin="miter" fill="none" stroke="#ff0000" d="M1.5924 0V161.39636"/>
<path transform="matrix(1,0,0,-1.00006,4.989998,166.5352)" stroke-width=".3985" stroke-linecap="butt" stroke-dasharray="2.98883,2.98883" stroke-miterlimit="10" stroke-linejoin="miter" fill="none" stroke="#ff0000" d="M65.2887 0V161.39636"/>
<path transform="matrix(1,0,0,-1.00006,4.989998,166.5352)" stroke-width=".3985" stroke-linecap="butt" stroke-dasharray="2.98883,2.98883" stroke-miterlimit="10" stroke-linejoin="miter" fill="none" stroke="#ff0000" d="M128.98499 0V161.39636"/>
<path transform="matrix(1,0,0,-1.00006,4.989998,166.5352)" stroke-width=".3985" stroke-linecap="butt" stroke-dasharray="2.98883,2.98883" stroke-miterlimit="10" stroke-linejoin="miter" fill="none" stroke="#ff0000" d="M192.68128 0V161.39636"/>
<use data-text="x" xlink:href="#font_3_1" transform="matrix(9.9626,0,0,-9.963197,190.04999,82.31215)"/>
<use data-text="y" xlink:href="#font_3_2" transform="matrix(9.9626,0,0,-9.963197,105.646999,12.93898)"/>
</svg>
