<svg xmlns="http://www.w3.org/2000/svg" xmlns:xlink="http://www.w3.org/1999/xlink" xmlns:inkscape="http://www.inkscape.org/namespaces/inkscape" version="1.1" width="252" height="169" viewBox="0 0 252 169">
<defs>
<path id="font_1_1" d="M.6589966 .23046875C.6759949 .23046875 .69400027 .23046875 .69400027 .25045777 .69400027 .27046205 .6759949 .27046205 .6589966 .27046205H.117996219C.100997928 .27046205 .08299255 .27046205 .08299255 .25045777 .08299255 .23046875 .100997928 .23046875 .117996219 .23046875H.6589966Z"/>
<path id="font_2_2" d="M.272995 .33428956C.35099793 .33428956 .40699769 .2803192 .40699769 .1733551 .40699769 .04940796 .33499146 .012466431 .2769928 .012466431 .23699951 .012466431 .14898682 .0234375 .10699463 .082351688 .1539917 .084350589 .16499329 .11735535 .16499329 .13835144 .16499329 .17034912 .14099121 .19335938 .10998535 .19335938 .08198547 .19335938 .053985597 .17634583 .053985597 .13534546 .053985597 .041412355 .1579895-.01953125 .2789917-.01953125 .41799928-.01953125 .5139923 .07336426 .5139923 .1733551 .5139923 .2513275 .44999696 .32929994 .33999635 .35229493 .44499208 .39024354 .48298646 .4650879 .48298646 .5260773 .48298646 .60505679 .3919983 .6640625 .2809906 .6640625 .16999817 .6640625 .084991458 .61006167 .084991458 .5300751 .084991458 .49606324 .10699463 .47706605 .13699341 .47706605 .16799927 .47706605 .18798828 .5000763 .18798828 .5280762 .18798828 .5570679 .16799927 .57806399 .13699341 .5800781 .17199707 .62405398 .24099732 .63505557 .27799989 .63505557 .32299806 .63505557 .38598634 .6130676 .38598634 .5260773 .38598634 .48406983 .37199403 .43814088 .34599305 .4072113 .31298829 .36927796 .2849884 .3672943 .23498535 .36428834 .20999146 .3623047 .20799256 .3623047 .20298767 .3612976 .20098877 .3612976 .19299317 .3592987 .19299317 .34829713 .19299317 .33428956 .20199585 .33428956 .21899414 .33428956H.272995Z"/>
<path id="font_3_1" d="M.31098939 .36265565H.42999269C.4149933 .30274964 .3929901 .2118988 .3929901 .13302613 .3929901 .09309387 .397995 .06613159 .4039917 .044174196 .41999818-.0057678224 .43299867-.009765625 .44898988-.009765625 .47200013-.009765625 .49598695 .011230469 .49598695 .035186769 .49598695 .043182374 .49398805 .047164918 .48799134 .057159425 .46899415 .09408569 .45098878 .15100098 .45098878 .23286438 .45098878 .25183106 .45098878 .29177857 .46499635 .36265565H.58999636C.60798647 .36265565 .6159973 .36265565 .6269989 .37065126 .6409912 .380661 .6439972 .39665223 .6439972 .4016571 .6439972 .43066407 .6179962 .43066407 .6009979 .43066407H.22399903C.18299866 .43066407 .15499878 .42166139 .10998535 .37965394 .083999637 .35665895 .04499817 .30274964 .04499817 .2937622 .04499817 .28178407 .057998659 .28178407 .06199646 .28178407 .07299805 .28178407 .07398987 .28378297 .07998657 .2927704 .1309967 .36265565 .19299317 .36265565 .21499634 .36265565H.27598573C.24499512 .25283814 .19099427 .13502503 .16099549 .07511902 .15499878 .062149049 .14498902 .04118347 .14199829 .03718567 .14099121 .033187868 .13899231 .029190064 .13899231 .022201539 .13899231 .006225586 .15098572-.009765625 .17399597-.009765625 .21398926-.009765625 .22499085 .035186769 .24899292 .12504578L.31098939 .36265565Z"/>
<path id="font_2_1" d="M.5049896 .18203736H.47099305C.46798707 .16001892 .45799256 .100997928 .44499208 .09098816 .43699647 .084991458 .3600006 .084991458 .34599305 .084991458H.1619873C.2669983 .17803955 .3019867 .20603943 .3619995 .25306703 .43598939 .312088 .5049896 .374115 .5049896 .46914674 .5049896 .5900879 .39898683 .6640625 .2709961 .6640625 .14698792 .6640625 .06298828 .57710269 .06298828 .4851532 .06298828 .43414308 .10598755 .42915345 .115997318 .42915345 .13999939 .42915345 .16899109 .44615174 .16899109 .48214723 .16899109 .5001526 .1619873 .53515627 .10998535 .53515627 .14099121 .6060791 .20899964 .62805178 .2559967 .62805178 .35598756 .62805178 .4079895 .5501404 .4079895 .46914674 .4079895 .38212586 .34599305 .3130951 .31399537 .27708436L.07299805 .038986207C.06298828 .02999878 .06298828 .027999878 .06298828 0H.47499085L.5049896 .18203736Z"/>
<path id="font_4_5" d="M.2939911 .16503906V.07800293C.2939911 .041992189 .2919922 .0309906 .21798706 .0309906H.19699097V0C.23799134 .0029907227 .2899933 .0029907227 .33198548 .0029907227 .37399293 .0029907227 .4269867 .0029907227 .46798707 0V.0309906H.44699098C.37298585 .0309906 .37098695 .041992189 .37098695 .07800293V.16503906H.47099305V.19602967H.37098695V.65075686C.37098695 .67074587 .37098695 .6767578 .35499574 .6767578 .34599305 .6767578 .34298707 .6767578 .33499146 .66474917L.027999878 .19602967V.16503906H.2939911M.2999878 .19602967H.055999757L.2999878 .5688019V.19602967Z"/>
<path id="font_4_4" d="M.1269989 .07699585 .23298645 .18003845C.3889923 .31811524 .44898988 .3721466 .44898988 .47216798 .44898988 .5860901 .35899354 .6660156 .23699951 .6660156 .12399292 .6660156 .049987794 .57411196 .049987794 .48516847 .049987794 .4291687 .099990848 .4291687 .102996829 .4291687 .11999512 .4291687 .15499878 .44117738 .15499878 .48217774 .15499878 .5081787 .13699341 .5341797 .101989749 .5341797 .09399414 .5341797 .09199524 .5341797 .08898926 .5331726 .11199951 .59806826 .1659851 .63500979 .22399903 .63500979 .31498719 .63500979 .35798646 .5541382 .35798646 .47216798 .35798646 .39215089 .30799867 .31311036 .25299073 .25108338L.06098938 .036987306C.049987794 .025985718 .049987794 .023986817 .049987794 0H.42099L.44898988 .17404175H.42399598C.4189911 .14402771 .4119873 .1000061 .4019928 .084991458 .394989 .07699585 .32899476 .07699585 .30699159 .07699585H.1269989Z"/>
<path id="font_4_6" d="M.13198853 .327713V.35173036C.13198853 .6047821 .2559967 .64100649 .30699159 .64100649 .33099366 .64100649 .37298585 .634964 .394989 .6007538 .37998963 .6007538 .33999635 .6007538 .33999635 .5557556 .33999635 .524765 .3639984 .5097656 .38598634 .5097656 .4019928 .5097656 .43199159 .51875308 .43199159 .5577545 .43199159 .6178589 .3880005 .6660156 .30499269 .6660156 .1769867 .6660156 .041992189 .5367584 .041992189 .31570436 .041992189 .048553468 .1579895-.022460938 .25099183-.022460938 .3619995-.022460938 .45700074 .07156372 .45700074 .2036438 .45700074 .33070375 .36799623 .4267578 .25698854 .4267578 .18899536 .4267578 .1519928 .37573243 .13198853 .327713M.25099183 .0055389406C.18798828 .0055389406 .1579895 .06556702 .1519928 .080566409 .13398743 .127594 .13398743 .2076416 .13398743 .22564698 .13398743 .30369569 .1659851 .40374757 .2559967 .40374757 .27198792 .40374757 .31799317 .40374757 .34899903 .34172059 .36698915 .30470277 .36698915 .2536621 .36698915 .20463562 .36698915 .15661621 .36698915 .10658264 .34999085 .0705719 .31999208 .010528564 .27398683 .0055389406 .25099183 .0055389406Z"/>
<path id="font_5_2" d="M.48599244 .38136292C.48999024 .39537049 .48999024 .39736939 .48999024 .40437318 .48999024 .42237855 .47599793 .43138124 .46099855 .43138124 .45098878 .43138124 .43499757 .42536927 .42599488 .41036988 .42399598 .405365 .41600038 .37435914 .4119873 .35635377 .40499879 .33035279 .397995 .30334474 .3919983 .27633668L.34700013 .09628296C.34298707 .08126831 .2999878 .011245728 .23399353 .011245728 .18299866 .011245728 .17199707 .055267335 .17199707 .0922699 .17199707 .1382904 .18899536 .20030213 .22299195 .28833009 .23899842 .3293457 .24299622 .3403473 .24299622 .36035157 .24299622 .405365 .21099854 .4423828 .16099549 .4423828 .06599426 .4423828 .0289917 .29733277 .0289917 .28833009 .0289917 .27833558 .038986207 .27833558 .040985109 .27833558 .050994874 .27833558 .051986696 .28033448 .056991579 .29634095 .083999637 .3903656 .12399292 .42037965 .1579895 .42037965 .1659851 .42037965 .18299866 .42037965 .18299866 .3883667 .18299866 .36335755 .17298889 .3373413 .1659851 .31834413 .12599182 .21231079 .10798645 .1552887 .10798645 .10827637 .10798645 .019256592 .17098999-.0107421879 .22999573-.0107421879 .2689972-.0107421879 .30299378 .0062561037 .33099366 .03425598 .31799317-.017745972 .30599977-.06674194 .2659912-.11973572 .23999024-.15385437 .20199585-.18309021 .1559906-.18309021 .14199829-.18309021 .09700012-.18005371 .07998657-.14074707 .09599304-.14074707 .10899353-.14074707 .12298584-.1287384 .1329956-.11973572 .14299011-.10673523 .14299011-.08773804 .14299011-.056747438 .115997318-.052734376 .10598755-.052734376 .08299255-.052734376 .049987794-.068740848 .049987794-.11773682 .049987794-.16796875 .09399414-.20507813 .1559906-.20507813 .25898744-.20507813 .3619995-.11373901 .3899994-.00074768069L.48599244 .38136292Z"/>
<path id="font_4_7" d="M.68699648 .32714845C.70199587 .32714845 .72099307 .32714845 .72099307 .34713746 .72099307 .36714173 .70199587 .36714173 .6879883 .36714173H.08898926C.07499695 .36714173 .055999757 .36714173 .055999757 .34713746 .055999757 .32714845 .07499695 .32714845 .08999634 .32714845H.68699648M.6879883 .13284302C.70199587 .13284302 .72099307 .13284302 .72099307 .15284729 .72099307 .17285156 .70199587 .17285156 .68699648 .17285156H.08999634C.07499695 .17285156 .055999757 .17285156 .055999757 .15284729 .055999757 .13284302 .07499695 .13284302 .08898926 .13284302H.6879883Z"/>
<path id="font_4_11" d="M.20799256 .19424439C.22999573 .19024658 .31199647 .17424011 .31199647 .102249149 .31199647 .051254274 .2769928 .011245728 .19898987 .011245728 .114990238 .011245728 .07899475 .06825256 .05999756 .15324402 .056991579 .1662445 .055999757 .17024231 .04598999 .17024231 .032989503 .17024231 .032989503 .16323853 .032989503 .14524842V.013244629C.032989503-.003753662 .032989503-.0107421879 .04399109-.0107421879 .04899597-.0107421879 .049987794-.009750366 .068984989 .009246826 .070999149 .011245728 .070999149 .013244629 .08898926 .03224182 .1329956-.009750366 .17799378-.0107421879 .19898987-.0107421879 .31399537-.0107421879 .3600006 .056243898 .3600006 .12825012 .3600006 .1812439 .32998658 .21124268 .31799317 .22323609 .2849884 .25523377 .24598694 .26324464 .20399475 .27124024 .147995 .28224183 .08099365 .2952423 .08099365 .35324098 .08099365 .38822938 .10699463 .42922975 .19299317 .42922975 .30299378 .42922975 .30799867 .3392334 .30999757 .3082428 .31098939 .2992401 .31999208 .2992401 .32199098 .2992401 .33499146 .2992401 .33499146 .304245 .33499146 .3232422V.4242401C.33499146 .4412384 .33499146 .4482422 .32398988 .4482422 .31900025 .4482422 .31698609 .4482422 .3039856 .43623353 .30099488 .43223573 .29100038 .42323304 .2869873 .42022706 .24899292 .4482422 .20799256 .4482422 .19299317 .4482422 .070999149 .4482422 .032989503 .38124085 .032989503 .3252411 .032989503 .29023744 .04899597 .26223756 .07598877 .24023438 .10798645 .21424866 .13598633 .2082367 .20799256 .19424439Z"/>
<path id="font_4_9" d="M.1769867 .4423828 .036987306 .43138124V.40037538C.101989749 .40037538 .11099243 .3943634 .11099243 .34532167V.076034549C.11099243 .0309906 .099990848 .0309906 .032989503 .0309906V0C.06498718 .0009918213 .11898804 .0029907227 .14299011 .0029907227 .17799378 .0029907227 .21299744 .0009918213 .24699402 0V.0309906C.18099976 .0309906 .1769867 .035995485 .1769867 .075042728V.4423828M.18099976 .6159363C.18099976 .64793398 .1559906 .6689453 .12799073 .6689453 .09700012 .6689453 .07499695 .64193728 .07499695 .6159363 .07499695 .5889435 .09700012 .5629425 .12799073 .5629425 .1559906 .5629425 .18099976 .5839386 .18099976 .6159363Z"/>
<path id="font_4_10" d="M.10998535 .34429933V.076034549C.10998535 .0309906 .09899902 .0309906 .03199768 .0309906V0C.066986087 .0009918213 .117996219 .0029907227 .14498902 .0029907227 .17098999 .0029907227 .22299195 .0009918213 .25698854 0V.0309906C.18998719 .0309906 .1789856 .0309906 .1789856 .076034549V.2602234C.1789856 .36431886 .25 .42037965 .31399537 .42037965 .3769989 .42037965 .3880005 .36631776 .3880005 .30926515V.076034549C.3880005 .0309906 .3769989 .0309906 .30999757 .0309906V0C.34498597 .0009918213 .3959961 .0029907227 .4229889 .0029907227 .44898988 .0029907227 .5009918 .0009918213 .5349884 0V.0309906C.48298646 .0309906 .45799256 .0309906 .45700074 .061019899V.25221253C.45700074 .3383026 .45700074 .36932374 .42599488 .405365 .4119873 .42237855 .3789978 .4423828 .32099916 .4423828 .24798584 .4423828 .20098877 .39935304 .17298889 .33729554V.4423828L.03199768 .43138124V.40037538C.101989749 .4003601 .10998535 .39335633 .10998535 .34429933Z"/>
<path id="font_4_1" d="M.33099366-.2400055C.33099366-.23701477 .33099366-.23500061 .31399537-.21800232 .18899536-.0920105 .15699768 .09700012 .15699768 .25 .15699768 .42399598 .19499207 .59799197 .31799317 .72299197 .33099366 .73498538 .33099366 .7369995 .33099366 .73999026 .33099366 .746994 .32699586 .75 .32099916 .75 .31098939 .75 .22099304 .6819916 .1619873 .5549927 .11099243 .44499208 .09899902 .33399964 .09899902 .25 .09899902 .17199707 .10998535 .050994874 .16499329-.06201172 .22499085-.18501282 .31098939-.25 .32099916-.25 .32699586-.25 .33099366-.24700928 .33099366-.2400055Z"/>
<path id="font_5_1" d="M.33399964 .30233766C.33999635 .32835389 .36299134 .42037965 .43299867 .42037965 .43798829 .42037965 .46199037 .42037965 .48298646 .40734864 .45498658 .402359 .43499757 .37734986 .43499757 .35334779 .43499757 .33735658 .44599916 .31835938 .47299195 .31835938 .49499513 .31835938 .5269928 .3363495 .5269928 .37635804 .5269928 .42837525 .46798707 .4423828 .43399049 .4423828 .37599183 .4423828 .34098817 .38935853 .32899476 .36634828 .3039856 .43237306 .25 .4423828 .22099304 .4423828 .116989139 .4423828 .05999756 .3133545 .05999756 .28834535 .05999756 .27833558 .069992069 .27833558 .07199097 .27833558 .07998657 .27833558 .08299255 .28033448 .084991458 .28933717 .11898804 .39535523 .18499756 .42037965 .21899414 .42037965 .23799134 .42037965 .272995 .4113617 .272995 .35334779 .272995 .32235719 .2559967 .25532533 .21899414 .11528015 .20298767 .053268434 .16799927 .011245728 .12399292 .011245728 .117996219 .011245728 .09498596 .011245728 .07398987 .024276734 .09899902 .029266358 .12098694 .05027771 .12098694 .07827759 .12098694 .105270389 .09899902 .11328125 .083999637 .11328125 .053985597 .11328125 .0289917 .08728027 .0289917 .055267335 .0289917 .009246826 .07899475-.0107421879 .12298584-.0107421879 .18899536-.0107421879 .22499085 .059280397 .22799683 .0652771 .23999024 .028274537 .27598573-.0107421879 .33599855-.0107421879 .43899537-.0107421879 .49598695 .118270877 .49598695 .14328003 .49598695 .1532898 .4869995 .1532898 .48399354 .1532898 .47499085 .1532898 .47299195 .14929199 .47099305 .14228821 .43798829 .03527832 .36999513 .011245728 .33799745 .011245728 .29899598 .011245728 .2829895 .043273927 .2829895 .07727051 .2829895 .09927368 .2889862 .121276859 .2999878 .16529846L.33399964 .30233766Z"/>
<path id="font_4_2" d="M.2889862 .25C.2889862 .32798768 .27799989 .44898988 .22299195 .56199648 .16299439 .68499758 .07699585 .75 .066986087 .75 .06098938 .75 .056991579 .74598696 .056991579 .73999026 .056991579 .7369995 .056991579 .73498538 .07598877 .71699526 .17399597 .6179962 .23098755 .45899964 .23098755 .25 .23098755 .07899475 .19400025-.09700012 .069992069-.2230072 .056991579-.23500061 .056991579-.23701477 .056991579-.2400055 .056991579-.2460022 .06098938-.25 .066986087-.25 .07699585-.25 .16699219-.18200684 .22599793-.055007936 .2769928 .054992677 .2889862 .16600037 .2889862 .25Z"/>
<path id="font_4_8" d="M.116989139 .21801758C.116989139 .38093568 .19898987 .42323304 .2519989 .42323304 .26098634 .42323304 .32398988 .42222596 .35899354 .38594056 .31799317 .38293458 .31199647 .3529358 .31199647 .3399353 .31199647 .31393434 .32998658 .2939453 .35798646 .2939453 .38398744 .2939453 .4039917 .3109436 .4039917 .34094239 .4039917 .40911866 .32798768 .4482422 .25099183 .4482422 .12599182 .4482422 .033996583 .3399353 .033996583 .21601868 .033996583 .08816528 .1329956-.0107421879 .24899292-.0107421879 .3829956-.0107421879 .4149933 .10914612 .4149933 .119140628 .4149933 .12911988 .40499879 .12911988 .4019928 .12911988 .3929901 .12911988 .3909912 .12512207 .3889923 .119140628 .3600006 .026229859 .29499818 .014251709 .2579956 .014251709 .20498657 .014251709 .116989139 .0572052 .116989139 .21801758Z"/>
<path id="font_6_1" d="M.41299439-1.1491852C.41299439-1.1451874 .41099549-1.1431885 .40899659-1.1401825 .36299134-1.0911713 .29499818-1.0101624 .25299073-.84713748 .22999573-.7561188 .22099304-.65309146 .22099304-.56007388 .22099304-.2970276 .28399659-.11299133 .4039917 .017044068 .41299439 .026031495 .41299439 .028030396 .41299439 .030029297 .41299439 .040039064 .40499879 .040039064 .40098573 .040039064 .38598634 .040039064 .33198548-.019973755 .31900025-.034973146 .21699524-.1559906 .1519928-.33602906 .1519928-.5590668 .1519928-.7010956 .1769867-.9021454 .30799867-1.071167 .31799317-1.0831757 .3829956-1.1591797 .40098573-1.1591797 .40499879-1.1591797 .41299439-1.1591797 .41299439-1.1491852Z"/>
<path id="font_6_2" d="M.30499269-.56007388C.30499269-.41804505 .27999879-.2170105 .14898682-.047973634 .13899231-.035964967 .07398987 .040039064 .055999757 .040039064 .050994874 .040039064 .04399109 .038024904 .04399109 .030029297 .04399109 .026031495 .04598999 .023025513 .049987794 .02003479 .09799194-.031967164 .16299439-.11299133 .20399475-.27201844 .22698975-.3630371 .23599243-.4660492 .23599243-.5590668 .23599243-.6600952 .22698975-.7621155 .20098877-.86013796 .16299439-1.0001679 .10398865-1.0801697 .052993776-1.1361847 .04399109-1.1451874 .04399109-1.1471863 .04399109-1.1491852 .04399109-1.1571808 .050994874-1.1591797 .055999757-1.1591797 .070999149-1.1591797 .12599182-1.098175 .13798523-1.0841827 .23999024-.96315 .30499269-.7831116 .30499269-.56007388Z"/>
<path id="font_4_3" d="M.40899659 .23046875H.6879883C.70199587 .23046875 .72099307 .23046875 .72099307 .25045777 .72099307 .27046205 .70199587 .27046205 .6879883 .27046205H.40899659V.5500183C.40899659 .56399539 .40899659 .5830078 .3889923 .5830078 .36898805 .5830078 .36898805 .56399539 .36898805 .5500183V.27046205H.08898926C.07499695 .27046205 .055999757 .27046205 .055999757 .25045777 .055999757 .23046875 .07499695 .23046875 .08898926 .23046875H.36898805V-.05000305C.36898805-.06401062 .36898805-.08300781 .3889923-.08300781 .40899659-.08300781 .40899659-.06401062 .40899659-.05000305V.23046875Z"/>
</defs>
<path transform="matrix(1.00003,0,0,-1,1.0964966,165.88701)" stroke-width=".19925" stroke-linecap="butt" stroke-miterlimit="10" stroke-linejoin="miter" fill="none" stroke="#7f807f" d="M29.65431 65.76276V70.01459M74.64285 65.76276V70.01459M119.6314 65.76276V70.01459M164.61994 65.76276V70.01459"/>
<path transform="matrix(1.00003,0,0,-1,1.0964966,165.88701)" stroke-width=".19925" stroke-linecap="butt" stroke-miterlimit="10" stroke-linejoin="miter" fill="none" stroke="#7f807f" d="M95.0111 16.65193H99.26286M95.0111 42.27031H99.26286M95.0111 93.50706H99.26286M95.0111 119.12543H99.26286M95.0111 144.7438H99.26286"/>
<path transform="matrix(1.00003,0,0,-1,1.0964966,165.88701)" stroke-width=".3985" stroke-linecap="butt" stroke-miterlimit="10" stroke-linejoin="miter" fill="none" stroke="#000000" d="M0 67.88869H192.28145"/>
<path transform="matrix(1.00003,0,0,-1,193.38373,97.99832)" d="M1.99252 0-1.19551 1.59401 0 0-1.19551-1.59401"/>
<path transform="matrix(1.00003,0,0,-1,1.0964966,165.88701)" stroke-width=".3985" stroke-linecap="butt" stroke-miterlimit="10" stroke-linejoin="miter" fill="none" stroke="#000000" d="M97.137 0V159.40323"/>
<path transform="matrix(0,-1,-1.00003,-0,98.23641,6.48378)" d="M1.99252 0-1.19551 1.59401 0 0-1.19551-1.59401"/>
<use data-text="&#x2212;" xlink:href="#font_1_1" transform="matrix(9.962899,0,0,-9.9626,21.2411,112.061008)"/>
<use data-text="3" xlink:href="#font_2_2" transform="matrix(6.9740097,0,0,-6.9738,30.185368,108.138)"/>
<use data-text="&#x03c0;" xlink:href="#font_3_1" transform="matrix(6.9740097,0,0,-6.9738,34.15749,108.138)"/>
<path transform="matrix(1.00003,0,0,-1,-62.0564,-35.928998)" stroke-width=".3985" stroke-linecap="butt" stroke-miterlimit="10" stroke-linejoin="miter" fill="none" stroke="#000000" d="M92.239-145.499H101.12"/>
<use data-text="2" xlink:href="#font_2_1" transform="matrix(6.9740097,0,0,-6.9738,32.640447,115.496)"/>
<use data-text="&#x2212;" xlink:href="#font_1_1" transform="matrix(9.962899,0,0,-9.9626,68.21651,110.56901)"/>
<use data-text="&#x03c0;" xlink:href="#font_3_1" transform="matrix(6.9740097,0,0,-6.9738,77.160778,106.646)"/>
<path transform="matrix(1.00003,0,0,-1,-15.080994,-37.420999)" stroke-width=".3985" stroke-linecap="butt" stroke-miterlimit="10" stroke-linejoin="miter" fill="none" stroke="#000000" d="M92.239-145.499H97.148"/>
<use data-text="2" xlink:href="#font_2_1" transform="matrix(6.9740097,0,0,-6.9738,77.62979,114.004009)"/>
<use data-text="&#x03c0;" xlink:href="#font_3_1" transform="matrix(6.9740097,0,0,-6.9738,118.27702,106.646)"/>
<path transform="matrix(1.00003,0,0,-1,33.783487,-37.420999)" stroke-width=".3985" stroke-linecap="butt" stroke-miterlimit="10" stroke-linejoin="miter" fill="none" stroke="#000000" d="M84.491-145.499H89.4"/>
<use data-text="2" xlink:href="#font_2_1" transform="matrix(6.9740097,0,0,-6.9738,118.74604,114.004009)"/>
<use data-text="3" xlink:href="#font_2_2" transform="matrix(6.9740097,0,0,-6.9738,161.28131,108.138)"/>
<use data-text="&#x03c0;" xlink:href="#font_3_1" transform="matrix(6.9740097,0,0,-6.9738,165.25241,108.138)"/>
<path transform="matrix(1.00003,0,0,-1,76.787769,-35.928998)" stroke-width=".3985" stroke-linecap="butt" stroke-miterlimit="10" stroke-linejoin="miter" fill="none" stroke="#000000" d="M84.491-145.499H93.371"/>
<use data-text="2" xlink:href="#font_2_1" transform="matrix(6.9740097,0,0,-6.9738,163.73538,115.496)"/>
<use data-text="&#x2212;" xlink:href="#font_1_1" transform="matrix(9.962899,0,0,-9.9626,79.85986,152.03002)"/>
<use data-text="4" xlink:href="#font_4_5" transform="matrix(9.962899,0,0,-9.9626,87.60909,152.03002)"/>
<use data-text="&#x2212;" xlink:href="#font_1_1" transform="matrix(9.962899,0,0,-9.9626,79.85986,126.41201)"/>
<use data-text="2" xlink:href="#font_4_4" transform="matrix(9.962899,0,0,-9.9626,87.60909,126.41201)"/>
<use data-text="2" xlink:href="#font_4_4" transform="matrix(9.962899,0,0,-9.9626,87.6091,75.59001)"/>
<use data-text="4" xlink:href="#font_4_5" transform="matrix(9.962899,0,0,-9.9626,87.6091,49.972009)"/>
<use data-text="6" xlink:href="#font_4_6" transform="matrix(9.962899,0,0,-9.9626,87.6091,24.353013)"/>
<path transform="matrix(1.00003,0,0,-1,1.0964966,165.88701)" stroke-width=".49814" stroke-linecap="butt" stroke-miterlimit="10" stroke-linejoin="miter" fill="none" stroke="#0000ff" stroke-opacity=".25" d="M5.9026 66.76076 5.22913 66.16699 6.16219 66.99702 7.09526 67.83078 8.02832 68.66466 8.96138 69.49545 9.89444 70.31947 10.82751 71.13298 11.76057 71.93292 12.69365 72.71582 13.62671 73.47809 14.55977 74.21642 15.49283 74.92836 16.4259 75.61018 17.35896 76.2591 18.29204 76.8724 19.22508 77.44792 20.15816 77.9831 21.09122 78.47456 22.02428 78.92162 22.95735 79.3219 23.8904 79.67389 24.82347 79.97543 25.75653 80.22559 26.6896 80.42375 27.62267 80.56886 28.55573 80.65956 29.48878 80.69658 30.42186 80.67915 31.35492 80.60718 32.288 80.4814 33.22104 80.30206 34.15411 80.07059 35.08717 79.78648 36.02025 79.4523 36.95331 79.06918 37.88638 78.6388 38.81943 78.1623 39.7525 77.64236 40.68556 77.08144 41.61864 76.48094 42.55168 75.84421 43.48476 75.17365 44.41782 74.47246 45.35089 73.74286 46.28395 72.98866 47.21701 72.21294 48.15007 71.41876 49.08313 70.6096 50.0162 69.78865 50.94926 68.9599 51.88234 68.12654 52.81538 67.29254 53.74846 66.4607 54.68152 65.63516 55.6146 64.81895 56.54765 64.01581 57.48071 63.22908 58.41377 62.46169 59.34685 61.71797 60.2799 61.00015 61.21298 60.31178 62.14604 59.65518 63.0791 59.03406 64.01216 58.45049 64.94524 57.90648 65.8783 57.405 66.81136 56.94821 67.74442 56.53781 68.67749 56.1752 69.61055 55.86264 70.54362 55.60133 71.47668 55.39203 72.40973 55.23526 73.3428 55.1329 74.27586 55.08437 75.20894 55.08998 76.142 55.14995 77.07506 55.26433 78.00812 55.43213 78.9412 55.6527 79.87425 55.92516 80.80733 56.24872 81.74037 56.62146 82.67345 57.0416 83.6065 57.50836 84.53958 58.0192 85.47264 58.57167 86.4057 59.16345 87.33876 59.7929 88.27184 60.4564 89.2049 61.15117 90.13797 61.87463 91.07101 62.62396 92.00409 63.39546 92.93715 64.1858 93.87022 64.99226 94.80328 65.81078 95.73634 66.63799 96.6694 67.47084 97.60246 68.30486 98.5356 69.13745 99.46857 69.96478 100.40169 70.78355 101.33467 71.58963 102.26779 72.38022 103.20091 73.15184 104.1339 73.90105 105.067 74.62451 105.99998 75.31955 106.9331 75.98318 107.86624 76.6125 108.79921 77.20428 109.73233 77.75687 110.66531 78.26796 111.59843 78.73459 112.53156 79.155 113.46454 79.52786 114.39764 79.85156 115.33064 80.12401 116.26375 80.34471 117.19688 80.51277 118.12985 80.62729 119.06297 80.6871 119.99596 80.693 120.92908 80.64471 121.8622 80.54224 122.79518 80.3857 123.72829 80.17639 124.66127 79.91522 125.59439 79.60268 126.52751 79.24043 127.4605 78.83015 128.3936 78.3735 129.3266 77.87202 130.2597 77.32828 131.19284 76.74469 132.12581 76.12344 133.05893 75.46698 133.99192 74.77861 134.92504 74.06104 135.85816 73.3172 136.79114 72.55019 137.72425 71.76346 138.65724 70.96031 139.59035 70.14398 140.52349 69.31845 141.45645 68.4866 142.38959 67.6526 143.32256 66.81937 144.25568 65.99036 145.1888 65.16954 146.12178 64.36038 147.05489 63.56621 147.98789 62.79048 148.921 62.03603 149.8541 61.30643 150.78711 60.60538 151.72022 59.9347 152.6532 59.29794 153.5863 58.69731 154.51946 58.13614 155.45241 57.6161 156.38555 57.13959 157.31851 56.70895 158.25165 56.32582 159.18476 55.99152 160.11774 55.70726 161.05084 55.47568 161.98384 55.29648 162.91695 55.17044 163.85009 55.09819 164.78304 55.08078 165.71619 55.11778 166.64914 55.20834 167.58228 55.35309 168.5154 55.55124 169.44838 55.80154 170.38149 56.10294 171.31449 56.45456 172.24759 56.85484 173.18071 57.30164 174.1137 57.7931 175.0468 58.32828 175.9798 58.90353 176.91294 59.51659 177.84603 60.1655 178.77902 60.84746 179.71215 61.55914 180.64511 62.29747 181.57825 63.05986 182.51137 63.84264 183.44435 64.64244 184.37746 65.45609 185.31044 66.2801 186.24356 67.11076 187.17668 67.94478 188.10967 68.77853 189.04279 69.6087 188.36917 69.01486"/>
<path transform="matrix(-.7500525,.66132,.6613398,.75003,6.999274,99.126239)" d="M2.14195 0-1.28517 1.71356 0 0-1.28517-1.71356" fill="#0000ff"/>
<path transform="matrix(.75008258,-.66129,-.66130986,-.75006,189.47133,96.87215)" d="M2.14195 0-1.28517 1.71356 0 0-1.28517-1.71356" fill="#0000ff"/>
<use data-text="y" xlink:href="#font_5_2" transform="matrix(9.962899,0,0,-9.9626,186.55806,105.059009)" fill="#0000ff"/>
<use data-text="=" xlink:href="#font_4_7" transform="matrix(9.962899,0,0,-9.9626,194.5673,105.059009)" fill="#0000ff"/>
<use data-text="s" xlink:href="#font_4_11" transform="matrix(9.962899,0,0,-9.9626,205.0682,105.059009)" fill="#0000ff"/>
<use data-text="i" xlink:href="#font_4_9" transform="matrix(9.962899,0,0,-9.9626,208.99358,105.059009)" fill="#0000ff"/>
<use data-text="n" xlink:href="#font_4_10" transform="matrix(9.962899,0,0,-9.9626,211.7533,105.059009)" fill="#0000ff"/>
<use data-text="(" xlink:href="#font_4_1" transform="matrix(9.962899,0,0,-9.9626,217.28272,105.059009)" fill="#0000ff"/>
<use data-text="x" xlink:href="#font_5_1" transform="matrix(9.962899,0,0,-9.9626,221.1911,105.059009)" fill="#0000ff"/>
<use data-text=")" xlink:href="#font_4_2" transform="matrix(9.962899,0,0,-9.9626,226.88529,105.059009)" fill="#0000ff"/>
<path transform="matrix(1.00003,0,0,-1,1.0964966,165.88701)" stroke-width=".99628" stroke-linecap="butt" stroke-miterlimit="10" stroke-linejoin="miter" fill="none" stroke="#0000ff" stroke-opacity=".25" d="M9.31133 153.66197 9.44176 148.62627 9.64696 142.03337 9.85216 136.43448 10.05736 131.64383 10.26256 127.48215 10.46776 123.84818 10.67297 120.6369 10.87816 117.78815 11.08336 115.23912 11.28857 112.94627 11.49377 110.87247 11.69896 108.99078 11.90416 107.2718 12.10938 105.70268 12.31458 104.25908 12.51976 102.92949 12.72498 101.69852 12.93018 100.55722 13.13536 99.49791 13.34058 98.5116 13.54578 97.58934 13.75098 96.72984 13.95616 95.92029 14.16138 95.16199 14.36658 94.45108 14.57178 93.77861 14.77698 93.14711 14.98218 92.54892 15.18738 91.98276 15.3926 91.44604 15.59778 90.9401 15.80298 90.45847 16.00818 89.9999 16.2134 89.56694 16.41858 89.15193 16.62378 88.75868 16.829 88.3821 17.0342 88.02472 17.23938 87.68271 17.4446 87.35608 17.6498 87.04353 17.855 86.74635 18.06018 86.46071 18.2654 86.1866 18.4706 85.9253 18.6758 85.67294 18.881 85.43214 19.0862 85.20413 19.2914 84.98253 19.49661 84.7699 19.7018 84.56624 19.907 84.37154 20.1122 84.18324 20.31741 84.00392 20.5226 83.83228 20.7278 83.66576 20.93301 83.50563 21.13821 83.35449 21.3434 83.2059 21.54861 83.065 21.75381 82.93051 21.959 82.79985 22.1642 82.67433 22.36942 82.5552 22.57462 82.43991 22.7798 82.33104 22.98502 82.22472 23.19022 82.12352 23.39542 82.02745 23.60062 81.93394 23.80582 81.84558 24.01102 81.76102 24.21623 81.68161 24.42142 81.60347 24.62662 81.53047 24.83182 81.4613 25.03703 81.39468 25.24222 81.33191 25.44742 81.273 25.65263 81.21407 25.85783 81.16156 26.06302 81.11288 26.26823 81.06549 26.47343 81.02066 26.67863 80.97968 26.88382 80.94124 27.08904 80.90538 27.29424 80.87462 27.49944 80.84517 27.70464 80.81827 27.90984 80.79393 28.11504 80.77344 28.32025 80.75551 28.52544 80.73758 28.73064 80.72604 28.93584 80.71452 29.14105 80.70682 29.34624 80.70042 29.55144 80.69788H29.75665L29.96185 80.70042 30.16704 80.70682 30.37225 80.71452 30.57744 80.72348 30.78264 80.73758 30.98785 80.75551 31.19304 80.77344 31.39825 80.79393 31.60342 80.81827 31.80865 80.84517 32.01387 80.87462 32.21906 80.90538 32.42426 80.94124 32.62944 80.97968 32.83466 81.02066 33.03987 81.06421 33.24504 81.11159 33.45026 81.16156 33.65546 81.21407 33.86067 81.273 34.06587 81.33191 34.27106 81.39468 34.47627 81.4613 34.68146 81.52917 34.88666 81.60347 35.09187 81.68033 35.29706 81.76102 35.50227 81.84558 35.70746 81.93394 35.91267 82.02745 36.11789 82.12352 36.32307 82.22472 36.52827 82.33104 36.73346 82.43991 36.93867 82.5552 37.14389 82.67433 37.34906 82.79985 37.55428 82.92921 37.75948 83.065 37.96468 83.2059 38.16989 83.3532 38.37508 83.50563 38.58029 83.66576 38.78546 83.83228 38.99068 84.00392 39.19589 84.18324 39.40108 84.37154 39.60628 84.56624 39.81148 84.7699 40.0167 84.98126 40.22191 85.20413 40.42708 85.43214 40.6323 85.67294 40.83748 85.92401 41.0427 86.18532 41.2479 86.45816 41.45308 86.7438 41.6583 87.04353 41.8635 87.35608 42.0687 87.68271 42.27391 88.02472 42.4791 88.3821 42.68431 88.7574 42.88948 89.15063 43.0947 89.56438 43.29991 89.9999 43.5051 90.45847 43.7103 90.93881 43.9155 91.44478 44.12071 91.98276 44.32593 92.54637 44.5311 93.14455 44.73631 93.77861 44.9415 94.44853 45.14671 95.15944 45.35191 95.91902 45.5571 96.72728 45.76231 97.58806 45.96751 98.50775 46.17271 99.49535 46.37793 100.55211 46.58311 101.69467 46.78831 102.92564 46.9935 104.25395 47.19872 105.69884 47.40393 107.26668 47.6091 108.98439 47.81432 110.86478 48.01952 112.93858 48.22473 115.22888 48.42993 117.78047 48.63512 120.62923 48.84033 123.8392 49.04552 127.47444 49.25072 131.62718 49.45593 136.42166 49.66112 142.01544 49.86633 148.61219 49.99663 153.6325"/>
<path transform="matrix(-.025880777,-.9996,-.99963006,.02588,10.408106,12.225052)" d="M2.8892 0-1.73352 2.31136 0 0-1.73352-2.31136" fill="#0000ff"/>
<path transform="matrix(.025920779,-.9996,-.99963006,-.02592,51.09463,12.254517)" d="M2.8892 0-1.73352 2.31136 0 0-1.73352-2.31136" fill="#0000ff"/>
<path transform="matrix(1.00003,0,0,-1,1.0964966,165.88701)" stroke-width=".99628" stroke-linecap="butt" stroke-miterlimit="10" stroke-linejoin="miter" fill="none" stroke="#0000ff" stroke-opacity=".25" d="M55.15128 6.29044 55.20988 7.51001 55.40718 11.10426 55.60446 14.28734 55.80176 17.1233 55.99904 19.66849 56.19632 21.95749 56.39362 24.03899 56.59091 25.92578 56.7882 27.65117 56.98549 29.23183 57.18277 30.68825 57.38005 32.03064 57.57735 33.27441 57.77464 34.42725 57.97192 35.50194 58.16922 36.50488 58.36652 37.43867 58.5638 38.31483 58.76108 39.1359 58.95837 39.90956 59.15567 40.63713 59.35295 41.32114 59.55023 41.96545 59.74753 42.57773 59.94481 43.1567 60.1421 43.70364 60.3394 44.22371 60.53668 44.71558 60.73398 45.18697 60.93126 45.63272 61.12854 46.05797 61.32584 46.46274 61.52313 46.84958 61.72041 47.21977 61.91771 47.57074 62.11499 47.9089 62.31227 48.23041 62.50957 48.53912 62.70686 48.83374 62.90416 49.1168 63.10144 49.38965 63.29872 49.64839 63.49602 49.89946 63.6933 50.1377 63.8906 50.36827 64.08789 50.5886 64.28517 50.80122 64.48247 51.00616 64.67975 51.20087 64.87703 51.38916 65.07433 51.56976 65.27162 51.74399 65.4689 51.91049 65.6662 52.07317 65.86348 52.22688 66.06076 52.37547 66.25806 52.51765 66.45535 52.65727 66.65263 52.79048 66.84993 52.9173 67.04723 53.0377 67.2445 53.15555 67.44179 53.26826 67.63908 53.37842 67.83638 53.48218 68.03366 53.58081 68.23096 53.67688 68.42824 53.77167 68.62552 53.85878 68.82281 53.94331 69.02011 54.02274 69.21739 54.10088 69.41469 54.17516 69.61197 54.2469 69.80925 54.31223 70.00655 54.37755 70.20384 54.43774 70.40112 54.49667 70.59842 54.55046 70.79572 54.60172 70.99298 54.65038 71.19028 54.69777 71.38757 54.74005 71.58487 54.78104 71.78215 54.81819 71.97945 54.85405 72.17673 54.88736 72.37401 54.91681 72.5713 54.94371 72.7686 54.96933 72.96588 54.98982 73.16318 55.01033 73.36046 55.02824 73.55774 55.04106 73.75504 55.05386 73.95233 55.0654 74.14961 55.07053 74.34691 55.07693 74.5442 55.0795H74.74147L74.93878 55.07693 75.13606 55.07053 75.33334 55.0654 75.53062 55.05386 75.72792 55.04106 75.92523 55.02824 76.1225 55.01033 76.3198 54.98982 76.51707 54.96933 76.71437 54.94371 76.91167 54.91681 77.10895 54.88736 77.30624 54.85405 77.50351 54.81819 77.70082 54.78104 77.89812 54.74005 78.09538 54.69777 78.2927 54.65038 78.48996 54.60172 78.68726 54.5492 78.88457 54.49667 79.08182 54.43774 79.27913 54.37755 79.47641 54.31223 79.67369 54.2469 79.871 54.17516 80.06828 54.10088 80.26558 54.02274 80.46284 53.94331 80.66016 53.85878 80.85745 53.77167 81.05472 53.67688 81.25201 53.58081 81.4493 53.48218 81.64659 53.37842 81.84389 53.26826 82.04117 53.15555 82.23846 53.0377 82.43573 52.9173 82.63304 52.79048 82.83034 52.65727 83.0276 52.51765 83.22491 52.37547 83.42216 52.22688 83.61948 52.07317 83.81679 51.91049 84.01404 51.74399 84.21135 51.56976 84.40863 51.38916 84.60593 51.20087 84.80322 51.0036 85.0005 50.80122 85.1978 50.5886 85.39507 50.36827 85.59238 50.1377 85.78967 49.89946 85.98694 49.64839 86.18425 49.38965 86.38152 49.11938 86.57881 48.83374 86.77611 48.53912 86.97339 48.23041 87.17068 47.9089 87.36795 47.57074 87.56526 47.21977 87.76256 46.84958 87.95982 46.46274 88.15714 46.05797 88.3544 45.63272 88.5517 45.18697 88.74901 44.71558 88.94627 44.22371 89.14357 43.70364 89.34085 43.1567 89.53815 42.57773 89.73544 41.96545 89.93272 41.32114 90.13002 40.63457 90.32729 39.90828 90.5246 39.1359 90.7219 38.31226 90.91916 37.43741 91.11646 36.50488 91.31374 35.50194 91.51103 34.42725 91.70833 33.27185 91.90561 32.03064 92.1029 30.68825 92.30017 29.23056 92.49748 27.64732 92.69478 25.92578 92.89204 24.03642 93.08936 21.95749 93.28662 19.6672 93.48392 17.1233 93.68123 14.28351 93.8785 11.10426 94.07579 7.50616 94.13438 6.29044"/>
<path transform="matrix(-.048001443,.99881,.99884,.048,56.24943,159.59656)" d="M2.8892 0-1.73352 2.31136 0 0-1.73352-2.31136" fill="#0000ff"/>
<path transform="matrix(.048001443,.99881,.99884,-.048,95.2337,159.59656)" d="M2.8892 0-1.73352 2.31136 0 0-1.73352-2.31136" fill="#0000ff"/>
<path transform="matrix(1.00003,0,0,-1,1.0964966,165.88701)" stroke-width=".99628" stroke-linecap="butt" stroke-miterlimit="10" stroke-linejoin="miter" fill="none" stroke="#0000ff" stroke-opacity=".25" d="M99.28833 153.66197 99.41862 148.63779 99.62381 142.02442 99.82903 136.43833 100.03423 131.63744 100.23944 127.48215 100.44463 123.84818 100.64983 120.6369 100.85504 117.78557 101.06024 115.23912 101.26543 112.94627 101.47064 110.87247 101.67584 108.98824 101.88106 107.2718 102.08624 105.7014 102.29144 104.25908 102.49666 102.92691 102.70186 101.69852 102.90706 100.55722 103.11226 99.49791 103.31746 98.5116 103.52267 97.58934 103.72786 96.72984 103.93306 95.92029 104.13828 95.16199 104.34348 94.45108 104.54868 93.77989 104.75388 93.14711 104.95908 92.54892 105.16429 91.98276 105.36948 91.44604 105.57469 90.9401 105.77989 90.45975 105.98508 89.9999 106.19029 89.56694 106.3955 89.15193 106.60071 88.75868 106.8059 88.3821 107.0111 88.02472 107.21631 87.68271 107.42151 87.35608 107.62671 87.04353 107.83191 86.74635 108.03711 86.46071 108.24232 86.1866 108.44751 85.9253 108.65271 85.67294 108.85793 85.43214 109.06313 85.20413 109.26833 84.98253 109.47353 84.7699 109.67873 84.56624 109.88394 84.37154 110.08913 84.18324 110.29433 84.00392 110.49954 83.83228 110.70474 83.66576 110.90994 83.50563 111.11514 83.3532 111.32034 83.2059 111.52556 83.065 111.73074 82.93051 111.93596 82.79985 112.14116 82.67433 112.34636 82.5552 112.55156 82.43991 112.75676 82.33104 112.96198 82.22472 113.16718 82.12352 113.37236 82.02745 113.57758 81.93394 113.78278 81.84558 113.98798 81.76102 114.19318 81.68033 114.39838 81.60347 114.60359 81.53047 114.80878 81.4613 115.01398 81.39468 115.2192 81.33191 115.4244 81.273 115.6296 81.21407 115.8348 81.16156 116.04 81.11159 116.24521 81.06549 116.4504 81.02066 116.65561 80.97968 116.86081 80.94124 117.06601 80.90538 117.27121 80.87462 117.47641 80.84517 117.68161 80.81827 117.88683 80.79393 118.09201 80.77344 118.29723 80.75551 118.50243 80.73758 118.70763 80.72604 118.91283 80.71452 119.11803 80.70682 119.32324 80.70042 119.52844 80.69788H119.73363L119.93884 80.70042 120.14404 80.70682 120.34926 80.71452 120.55443 80.72604 120.75964 80.73758 120.96486 80.75294 121.17006 80.77344 121.37526 80.79393 121.58044 80.81827 121.78566 80.84517 121.99086 80.87462 122.19604 80.90538 122.40128 80.94124 122.60646 80.97968 122.81166 81.02066 123.01688 81.06421 123.22206 81.11159 123.42729 81.16156 123.63246 81.21407 123.83768 81.27171 124.0429 81.33191 124.24808 81.39468 124.4533 81.4613 124.65848 81.53047 124.8637 81.60347 125.06891 81.68033 125.27408 81.76102 125.47931 81.84558 125.6845 81.93394 125.88971 82.02745 126.09491 82.12352 126.3001 82.22472 126.50531 82.33104 126.71051 82.43991 126.91571 82.5552 127.12093 82.67433 127.32611 82.79985 127.53133 82.93051 127.73651 83.065 127.94173 83.2059 128.14694 83.3532 128.35213 83.50563 128.55733 83.66576 128.76251 83.83228 128.96775 84.00392 129.17296 84.18324 129.37813 84.37154 129.58335 84.56624 129.78853 84.7699 129.99375 84.98253 130.19896 85.20413 130.40415 85.43214 130.60936 85.67294 130.81453 85.9253 131.01976 86.18532 131.22498 86.45816 131.43016 86.7438 131.63536 87.04353 131.84055 87.35608 132.04578 87.68271 132.25099 88.02472 132.45616 88.3821 132.66138 88.7574 132.86656 89.15063 133.0718 89.56694 133.277 89.9999 133.48218 90.45847 133.6874 90.93881 133.89258 91.44604 134.09778 91.98276 134.30301 92.54637 134.5082 93.14455 134.71341 93.77861 134.91858 94.44853 135.1238 95.16199 135.32903 95.91902 135.53421 96.72728 135.73941 97.58934 135.9446 98.51031 136.14981 99.49535 136.35503 100.55466 136.56021 101.69597 136.76543 102.92564 136.97061 104.25652 137.17583 105.69884 137.38103 107.26796 137.58623 108.98695 137.79145 110.8686 137.99662 112.94115 138.20183 115.23528 138.40705 117.78174 138.61223 120.63562 138.81745 123.84048 139.02263 127.48085 139.22785 131.63359 139.43306 136.4255 139.63823 142.02057 139.84346 148.62242 139.97383 153.65045"/>
<path transform="matrix(-.025920779,-.9996,-.99963006,.02592,100.38781,12.225052)" d="M2.8892 0-1.73352 2.31136 0 0-1.73352-2.31136" fill="#0000ff"/>
<path transform="matrix(.02590078,-.9996,-.99963006,-.0259,141.07453,12.236572)" d="M2.8892 0-1.73352 2.31136 0 0-1.73352-2.31136" fill="#0000ff"/>
<path transform="matrix(1.00003,0,0,-1,1.0964966,165.88701)" stroke-width=".99628" stroke-linecap="butt" stroke-miterlimit="10" stroke-linejoin="miter" fill="none" stroke="#0000ff" stroke-opacity=".25" d="M145.12842 6.29422 145.18677 7.50616 145.38405 11.10426 145.58133 14.28734 145.77863 17.12587 145.9759 19.6672 146.1732 21.95749 146.3705 24.03642 146.56778 25.92578 146.76506 27.65117 146.96236 29.23183 147.15964 30.68825 147.35694 32.0332 147.55423 33.27441 147.75151 34.42853 147.94879 35.50194 148.14609 36.50488 148.34337 37.43867 148.54067 38.31483 148.73796 39.1359 148.93524 39.90956 149.13254 40.63713 149.32982 41.32114 149.52712 41.96545 149.7244 42.57773 149.92169 43.1567 150.11899 43.70364 150.31627 44.22371 150.51355 44.71686 150.71085 45.18697 150.90813 45.63272 151.10543 46.05797 151.30272 46.46274 151.5 46.84958 151.69728 47.21977 151.89458 47.57074 152.09186 47.9089 152.28916 48.23041 152.48645 48.53912 152.68373 48.83374 152.88103 49.11938 153.07831 49.38965 153.27559 49.64839 153.47289 49.89946 153.67018 50.1377 153.86748 50.36827 154.06476 50.5886 154.26204 50.80122 154.45934 51.0036 154.65662 51.20087 154.85391 51.38916 155.05121 51.56976 155.24849 51.74399 155.44577 51.91049 155.64307 52.07317 155.84035 52.22688 156.03765 52.37547 156.23494 52.51765 156.43222 52.65727 156.6295 52.79048 156.8268 52.9173 157.02408 53.0377 157.22138 53.15555 157.41867 53.26826 157.61595 53.37842 157.81325 53.48218 158.01053 53.58081 158.20783 53.67688 158.4051 53.77167 158.6024 53.85878 158.7997 53.94331 158.99698 54.02274 159.19426 54.10088 159.39156 54.17516 159.58884 54.2469 159.78614 54.31223 159.98343 54.37755 160.18071 54.43774 160.37799 54.49667 160.57529 54.5492 160.77257 54.60172 160.96987 54.65038 161.16716 54.69777 161.36444 54.74005 161.56174 54.78104 161.75902 54.81819 161.9563 54.85405 162.1536 54.88736 162.35089 54.91681 162.54819 54.94371 162.74547 54.96933 162.94275 54.98982 163.14005 55.01033 163.33733 55.02824 163.53462 55.04106 163.73192 55.05386 163.9292 55.0654 164.12648 55.07053 164.32378 55.07693 164.52106 55.0795H164.71836L164.91567 55.07693 165.11292 55.07053 165.31023 55.0654 165.5075 55.05386 165.70479 55.04106 165.9021 55.02824 166.09937 55.01033 166.29666 54.98982 166.49394 54.96933 166.69124 54.94371 166.88855 54.91681 167.08582 54.88736 167.28311 54.85405 167.4804 54.81819 167.67769 54.78104 167.87499 54.74005 168.07227 54.69777 168.26956 54.65038 168.46683 54.60172 168.66414 54.5492 168.86142 54.49667 169.0587 54.43774 169.25601 54.37755 169.45326 54.31223 169.65058 54.2469 169.84789 54.17516 170.04514 54.10088 170.24245 54.02274 170.43973 53.94331 170.63701 53.85878 170.83432 53.77167 171.03159 53.67688 171.2289 53.58081 171.42617 53.48218 171.62346 53.37842 171.82077 53.26826 172.01804 53.15555 172.21533 53.0377 172.41262 52.9173 172.60991 52.79048 172.8072 52.65727 173.00449 52.51765 173.20177 52.37547 173.39905 52.22688 173.59636 52.07317 173.79364 51.91049 173.99092 51.74399 174.18824 51.5685 174.38549 51.38916 174.5828 51.1983 174.7801 51.0036 174.97736 50.80122 175.17467 50.5886 175.37195 50.36827 175.56925 50.1377 175.76654 49.89946 175.96382 49.64839 176.16112 49.38965 176.35839 49.1168 176.55568 48.83374 176.75299 48.53912 176.95026 48.23041 177.14756 47.9089 177.34484 47.57074 177.54213 47.21721 177.73943 46.84958 177.9367 46.46274 178.134 46.05797 178.33127 45.63272 178.52858 45.18697 178.72586 44.71558 178.92314 44.22371 179.12046 43.70364 179.3177 43.1567 179.51502 42.57773 179.71233 41.96545 179.90959 41.32114 180.10689 40.63457 180.30417 39.90956 180.50147 39.1359 180.69876 38.31483 180.89603 37.43741 181.09334 36.50488 181.2906 35.50194 181.4879 34.42725 181.68521 33.27185 181.88248 32.03064 182.07978 30.68567 182.27706 29.23183 182.47435 27.64732 182.67165 25.92578 182.86893 24.0326 183.06623 21.95749 183.26349 19.6672 183.4608 17.11946 183.6581 14.28351 183.85536 11.10043 184.05268 7.50616 184.11124 6.29044"/>
<path transform="matrix(-.048101445,.9988,.99882999,.0481,146.2293,159.59278)" d="M2.8892 0-1.73352 2.31136 0 0-1.73352-2.31136" fill="#0000ff"/>
<path transform="matrix(.048001443,.99881,.99884,-.048,185.21326,159.59656)" d="M2.8892 0-1.73352 2.31136 0 0-1.73352-2.31136" fill="#0000ff"/>
<use data-text="y" xlink:href="#font_5_2" transform="matrix(9.962899,0,0,-9.9626,189.17115,164.973)" fill="#0000ff"/>
<use data-text="=" xlink:href="#font_4_7" transform="matrix(9.962899,0,0,-9.9626,197.18039,164.973)" fill="#0000ff"/>
<use data-text="c" xlink:href="#font_4_8" transform="matrix(9.962899,0,0,-9.9626,207.68128,164.973)" fill="#0000ff"/>
<use data-text="s" xlink:href="#font_4_11" transform="matrix(9.962899,0,0,-9.9626,212.1048,164.973)" fill="#0000ff"/>
<use data-text="c" xlink:href="#font_4_8" transform="matrix(9.962899,0,0,-9.9626,216.03018,164.973)" fill="#0000ff"/>
<use data-text="(" xlink:href="#font_4_1" transform="matrix(9.962899,0,0,-9.9626,220.4537,164.973)" fill="#0000ff"/>
<use data-text="x" xlink:href="#font_5_1" transform="matrix(9.962899,0,0,-9.9626,224.35721,164.973)" fill="#0000ff"/>
<use data-text=")" xlink:href="#font_4_2" transform="matrix(9.962899,0,0,-9.9626,230.05138,164.973)" fill="#0000ff"/>
<path transform="matrix(1.00003,0,0,-1,1.0964966,165.88701)" stroke-width=".3985" stroke-linecap="butt" stroke-dasharray="2.98883,2.98883" stroke-miterlimit="10" stroke-linejoin="miter" fill="none" stroke="#0000ff" stroke-opacity=".25" d="M7.16013 1.28091V160.11483"/>
<path transform="matrix(1.00003,0,0,-1,1.0964966,165.88701)" stroke-width=".3985" stroke-linecap="butt" stroke-dasharray="2.98883,2.98883" stroke-miterlimit="10" stroke-linejoin="miter" fill="none" stroke="#0000ff" stroke-opacity=".25" d="M52.14854 1.28091V160.11483"/>
<path transform="matrix(1.00003,0,0,-1,1.0964966,165.88701)" stroke-width=".3985" stroke-linecap="butt" stroke-dasharray="2.98883,2.98883" stroke-miterlimit="10" stroke-linejoin="miter" fill="none" stroke="#0000ff" stroke-opacity=".25" d="M97.137 1.28091V160.11483"/>
<path transform="matrix(1.00003,0,0,-1,1.0964966,165.88701)" stroke-width=".3985" stroke-linecap="butt" stroke-dasharray="2.98883,2.98883" stroke-miterlimit="10" stroke-linejoin="miter" fill="none" stroke="#0000ff" stroke-opacity=".25" d="M142.12541 1.28091V160.11483"/>
<path transform="matrix(1.00003,0,0,-1,1.0964966,165.88701)" stroke-width=".3985" stroke-linecap="butt" stroke-dasharray="2.98883,2.98883" stroke-miterlimit="10" stroke-linejoin="miter" fill="none" stroke="#0000ff" stroke-opacity=".25" d="M187.11385 1.28091V160.11483"/>
<path transform="matrix(1.00003,0,0,-1,1.0964966,165.88701)" stroke-width=".49814" stroke-linecap="butt" stroke-miterlimit="10" stroke-linejoin="miter" fill="none" stroke="#ff0000" stroke-opacity=".25" d="M6.41454 80.63791 5.22913 80.81456 6.16219 80.72911 7.09526 80.6985 8.02832 80.72208 8.96138 80.79944 9.89444 80.931 10.82751 81.11607 11.76057 81.3537 12.69365 81.64293 13.62671 81.98236 14.55977 82.37074 15.49283 82.80638 16.4259 83.28723 17.35896 83.81178 18.29204 84.37769 19.22508 84.98203 20.15816 85.6221 21.09122 86.29637 22.02428 87.00089 22.95735 87.73318 23.8904 88.48969 24.82347 89.26773 25.75653 90.06395 26.6896 90.87425 27.62267 91.69621 28.55573 92.52548 29.48878 93.3591 30.42186 94.1931 31.35492 95.02429 32.288 95.84933 33.22104 96.66426 34.15411 97.46599 35.08717 98.25067 36.02025 99.01514 36.95331 99.75665 37.88638 100.47166 38.81943 101.15643 39.7525 101.80907 40.68556 102.42647 41.61864 103.00609 42.55168 103.54535 43.48476 104.04208 44.41782 104.49426 45.35089 104.89954 46.28395 105.25653 47.21701 105.56357 48.15007 105.82 49.08313 106.02328 50.0162 106.1738 50.94926 106.27065 51.88234 106.31367 52.81538 106.30164 53.74846 106.23566 54.68152 106.11615 55.6146 105.9426 56.54765 105.71599 57.48071 105.43791 58.41377 105.10936 59.34685 104.73137 60.2799 104.30545 61.21298 103.8342 62.14604 103.31914 63.0791 102.76195 64.01216 102.1658 64.94524 101.5329 65.8783 100.86606 66.81136 100.1677 67.74442 99.44102 68.67749 98.68964 69.61055 97.91597 70.54362 97.12334 71.47668 96.31546 72.40973 95.49619 73.3428 94.66808 74.27586 93.83496 75.20894 93.00082 76.142 92.16861 77.07506 91.3423 78.00812 90.52481 78.9412 89.71976 79.87425 88.93109 80.80733 88.16179 81.74037 87.41551 82.67345 86.69475 83.6065 86.00278 84.53958 85.34299 85.47264 84.71751 86.4057 84.12944 87.33876 83.58159 88.27184 83.07538 89.2049 82.61372 90.13797 82.19781 91.07101 81.83044 92.00409 81.51253 92.93715 81.24533 93.87022 81.03014 94.80328 80.86823 95.73634 80.75986 96.6694 80.70503H97.60246L98.5356 80.75961 99.46857 80.86797 100.40169 81.02962 101.33467 81.24495 102.26779 81.51189 103.20091 81.82968 104.1339 82.19691 105.067 82.61272 105.99998 83.07462 106.9331 83.58044 107.86624 84.12842 108.79921 84.71661 109.73233 85.34157 110.66531 86.00151 111.59843 86.69319 112.53156 87.41399 113.46454 88.16023 114.39764 88.92969 115.33064 89.71822 116.26375 90.52327 117.19688 91.3405 118.12985 92.16682 119.06297 92.9993 119.99596 93.8333 120.92908 94.66629 121.8622 95.4944 122.79518 96.31392 123.72829 97.1218 124.66127 97.9143 125.59439 98.68811 126.52751 99.43964 127.4605 100.16617 128.3936 100.86465 129.3266 101.53136 130.2597 102.16438 131.19284 102.76079 132.12581 103.318 133.05893 103.83318 133.99192 104.30443 134.92504 104.73033 135.85816 105.10872 136.79114 105.43715 137.72425 105.7155 138.65724 105.9422 139.59035 106.11565 140.52349 106.23553 141.45645 106.30176 142.38959 106.31367 143.32256 106.27089 144.25568 106.17406 145.1888 106.0238 146.12178 105.82039 147.05489 105.56435 147.98789 105.25691 148.921 104.90044 149.8541 104.49515 150.78711 104.04312 151.72022 103.54651 152.6532 103.00725 153.5863 102.42789 154.51946 101.81023 155.45241 101.1576 156.38555 100.47282 157.31851 99.7582 158.25165 99.01666 159.18476 98.25208 160.11774 97.46765 161.05084 96.6658 161.98384 95.85112 162.91695 95.02608 163.85009 94.1949 164.78304 93.3609 165.71619 92.52727 166.64914 91.69775 167.58228 90.87605 168.5154 90.06548 169.44838 89.26938 170.38149 88.49136 171.31449 87.73471 172.24759 87.00243 173.18071 86.29778 174.1137 85.6235 175.0468 84.98317 175.9798 84.37883 176.91294 83.81306 177.84603 83.28813 178.77902 82.8074 179.71215 82.37178 180.64511 81.98314 181.57825 81.64317 182.51137 81.35434 183.44435 81.11647 184.37746 80.93124 185.31044 80.7997 186.24356 80.7222 187.17668 80.6985 188.10967 80.72911 189.04279 80.81456 187.8573 80.63805"/>
<path transform="matrix(-.9890597,-.14742,-.14742443,.98903,7.511229,85.24911)" d="M2.14195 0-1.28517 1.71356 0 0-1.28517-1.71356" fill="#ff0000"/>
<path transform="matrix(.9890597,-.1473,-.14730443,-.98903,188.95944,85.24896)" d="M2.14195 0-1.28517 1.71356 0 0-1.28517-1.71356" fill="#ff0000"/>
<use data-text="y" xlink:href="#font_5_2" transform="matrix(9.962899,0,0,-9.9626,166.84148,72.69101)" fill="#ff0000"/>
<use data-text="=" xlink:href="#font_4_7" transform="matrix(9.962899,0,0,-9.9626,174.85073,72.69101)" fill="#ff0000"/>
<use data-text="s" xlink:href="#font_4_11" transform="matrix(9.962899,0,0,-9.9626,185.35163,72.69101)" fill="#ff0000"/>
<use data-text="i" xlink:href="#font_4_9" transform="matrix(9.962899,0,0,-9.9626,189.277,72.69101)" fill="#ff0000"/>
<use data-text="n" xlink:href="#font_4_10" transform="matrix(9.962899,0,0,-9.9626,192.03672,72.69101)" fill="#ff0000"/>
<use data-text="(" xlink:href="#font_6_1" transform="matrix(9.962899,0,0,-9.9626,199.26045,64.62102)" fill="#ff0000"/>
<use data-text="x" xlink:href="#font_5_1" transform="matrix(9.962899,0,0,-9.9626,203.8266,72.691028)" fill="#ff0000"/>
<use data-text="&#x2212;" xlink:href="#font_1_1" transform="matrix(9.962899,0,0,-9.9626,211.73482,72.691028)" fill="#ff0000"/>
<use data-text="&#x03c0;" xlink:href="#font_3_1" transform="matrix(6.9740097,0,0,-6.9738,222.89316,68.76802)" fill="#ff0000"/>
<path transform="matrix(1.00003,0,0,-1,83.543979,-75.298999)" stroke-width=".3985" stroke-linecap="butt" stroke-miterlimit="10" stroke-linejoin="miter" fill="none" stroke="#ff0000" stroke-opacity=".25" d="M139.345-145.499H144.254"/>
<use data-text="2" xlink:href="#font_2_1" transform="matrix(6.9740097,0,0,-6.9738,223.36217,76.12601)" fill="#ff0000"/>
<use data-text=")" xlink:href="#font_6_2" transform="matrix(9.962899,0,0,-9.9626,228.99834,64.621)" fill="#ff0000"/>
<use data-text="+" xlink:href="#font_4_3" transform="matrix(9.962899,0,0,-9.9626,235.77855,72.690998)" fill="#ff0000"/>
<use data-text="2" xlink:href="#font_4_4" transform="matrix(9.962899,0,0,-9.9626,245.73148,72.690998)" fill="#ff0000"/>
<path transform="matrix(1.00003,0,0,-1,1.0964966,165.88701)" stroke-width=".99628" stroke-linecap="butt" stroke-miterlimit="10" stroke-linejoin="miter" fill="none" stroke="#ff0000" d="M7.13638 80.96501 4.41307 80.45833 4.53006 80.47755 4.64705 80.49805 4.76405 80.51468 4.88104 80.53262 4.99803 80.55057 5.11504 80.56593 5.23203 80.58002 5.34901 80.5941 5.46602 80.60692 5.58301 80.61844 5.7 80.63126 5.817 80.64023 5.93399 80.65047 6.051 80.65814 6.16798 80.66583 6.28497 80.67354 6.40198 80.67993 6.51897 80.68506 6.63596 80.6889 6.75296 80.69145 6.86995 80.6953 6.98695 80.69788H7.10396 7.22095 7.33794L7.45494 80.6953 7.57193 80.69145 7.68892 80.6889 7.80592 80.68378 7.92291 80.67993 8.0399 80.67354 8.1569 80.66583 8.2739 80.65814 8.39088 80.65047 8.50789 80.64023 8.62488 80.63126 8.74188 80.61844 8.85887 80.60692 8.97586 80.5941 9.09286 80.58002 9.20985 80.56465 9.32684 80.54799 9.44385 80.53262 9.56084 80.51468 9.67784 80.49805 9.79485 80.47755 9.91183 80.45706 10.02882 80.43527 10.14583 80.4135 10.26282 80.39044 10.3798 80.36739 10.49681 80.34177 10.6138 80.31615 10.73079 80.28796 10.8478 80.26108 10.96478 80.23161 11.08177 80.20087 11.19878 80.17142 11.31577 80.1381 11.43275 80.1048 11.54976 80.07149 11.66675 80.03691 11.78375 79.99977 11.90074 79.96262 12.01775 79.9229 12.13475 79.88448 12.25174 79.84349 12.36873 79.79994 12.48573 79.75638 12.60272 79.71155 12.71971 79.66672 12.83672 79.6206 12.9537 79.57066 13.0707 79.52199 13.1877 79.47203 13.30469 79.42078 13.42168 79.36827 13.53868 79.3119 13.65567 79.25684 13.77266 79.1979 13.88966 79.13898 14.00665 79.07878 14.12364 79.01859 14.24065 78.95325 14.35764 78.8892 14.47462 78.8226 14.59163 78.75471 14.70863 78.68681 14.82564 78.6138 14.94263 78.5408 15.05962 78.4665 15.17662 78.39093 15.29361 78.31023 15.4106 78.2321 15.5276 78.15012 15.64459 78.06686 15.76158 77.97849 15.87859 77.89265 15.99557 77.803 16.11258 77.71075 16.22957 77.6147 16.34656 77.51735 16.46355 77.41872 16.58055 77.31752 16.69756 77.21632 16.81453 77.1113 16.93155 77.00113 17.04852 76.8897 17.16553 76.77826 17.28253 76.6604 17.3995 76.54384 17.51651 76.42087 17.6335 76.29535 17.7505 76.16599 17.86751 76.03789 17.9845 75.9021 18.10149 75.76633 18.21848 75.62543 18.33548 75.48068 18.45247 75.33337 18.56947 75.18095 18.68646 75.02722 18.80345 74.8684 18.92046 74.707 19.03746 74.53792 19.15443 74.36885 19.27145 74.1908 19.38843 74.01146 19.50543 73.82445 19.62244 73.63487 19.73941 73.44017 19.85641 73.24036 19.9734 73.03285 20.09041 72.82277 20.2074 72.60503 20.3244 72.38214 20.44139 72.15413 20.55838 71.91716 20.67538 71.67506 20.79239 71.42401 20.90938 71.16783 21.02637 70.90268 21.14336 70.63112 21.26036 70.34804 21.37737 70.06113 21.49434 69.76138 21.61136 69.45523 21.72833 69.13757 21.84532 68.80965 21.96234 68.4715 22.07932 68.12308 22.19632 67.76442 22.31331 67.38911 22.43031 67.00357 22.5473 66.60265 22.6643 66.19019 22.7813 65.76491 22.89827 65.323 23.01529 64.85931 23.13228 64.38408 23.24927 63.88837 23.36627 63.376 23.48326 62.84058 23.60027 62.28339 23.71727 61.70697 23.83424 61.10237 23.95125 60.47343 24.06824 59.8189 24.18523 59.13489 24.30225 58.41756 24.41922 57.67078 24.53622 56.8907 24.65321 56.06963 24.77022 55.2076 24.8872 54.30453 25.0042 53.35536 25.1212 52.35497 25.23817 51.30334 25.3552 50.18895 25.47218 49.01433 25.58917 47.76672 25.70618 46.44994 25.82315 45.04861 25.94016 43.55763 26.05717 41.96416 26.17415 40.2695 26.29114 38.45317 26.40814 36.50618 26.52513 34.41058 26.64215 32.15872 26.75912 29.70961 26.87613 27.05554 26.99312 24.17093 27.11012 21.016 27.22711 17.5601 27.3441 13.74808 27.4611 9.53001 27.50627 7.71976"/>
<path transform="matrix(-.98310956,.1829,.1829055,.98308,8.233111,84.922)" d="M2.8892 0-1.73352 2.31136 0 0-1.73352-2.31136" fill="#ff0000"/>
<path transform="matrix(.024860748,.99963,.99966,-.02486,28.603592,158.16725)" d="M2.8892 0-1.73352 2.31136 0 0-1.73352-2.31136" fill="#ff0000"/>
<path transform="matrix(1.00003,0,0,-1,1.0964966,165.88701)" stroke-width=".99628" stroke-linecap="butt" stroke-miterlimit="10" stroke-linejoin="miter" fill="none" stroke="#ff0000" d="M32.65704 155.10146 32.71565 153.88571 32.91295 150.29146 33.11023 147.10839 33.30753 144.26985 33.5048 141.72724 33.70209 139.43439 33.89938 137.35674 34.09668 135.46994 34.29396 133.74456 34.49126 132.1639 34.68854 130.70493 34.88583 129.36252 35.08311 128.12003 35.28041 126.96848 35.4777 125.8938 35.67499 124.89084 35.87228 123.9545 36.06956 123.0809 36.26685 122.25984 36.46414 121.48616 36.66144 120.75859 36.85872 120.07458 37.056 119.43028 37.2533 118.81801 37.45058 118.23903 37.64787 117.69208 37.84517 117.17203 38.04245 116.67886 38.23975 116.20877 38.43703 115.76302 38.63431 115.33775 38.8316 114.93298 39.0289 114.54614 39.2262 114.17595 39.42348 113.82498 39.62076 113.48682 39.81805 113.16531 40.01534 112.85661 40.21263 112.562 40.40993 112.27635 40.60721 112.00607 40.80449 111.74733 41.00179 111.49628 41.19907 111.25803 41.39636 111.02747 41.59366 110.80714 41.79094 110.59451 41.98824 110.38956 42.18552 110.19485 42.3828 110.00658 42.5801 109.82596 42.77739 109.65173 42.97467 109.48523 43.17197 109.32256 43.36925 109.16885 43.56654 109.02025 43.76382 108.87808 43.96112 108.73845 44.15842 108.60524 44.3557 108.47842 44.55298 108.35802 44.75027 108.24017 44.94756 108.12746 45.14485 108.0173 45.34215 107.91354 45.53943 107.81491 45.73672 107.71884 45.934 107.62405 46.13129 107.53694 46.32858 107.45241 46.52588 107.373 46.72316 107.29486 46.92046 107.22057 47.11774 107.14883 47.31502 107.0835 47.51231 107.01817 47.70961 106.95798 47.9069 106.89906 48.10419 106.84526 48.30148 106.794 48.49876 106.74535 48.69604 106.69795 48.89334 106.65567 49.09064 106.61469 49.28792 106.57753 49.48521 106.54167 49.6825 106.50838 49.87978 106.47893 50.07707 106.45201 50.27437 106.42639 50.47165 106.4059 50.66895 106.38539 50.86623 106.36748 51.0635 106.35466 51.2608 106.34186 51.4581 106.33032 51.65538 106.3252 51.85268 106.3188 52.04997 106.31624H52.24725L52.44455 106.3188 52.64182 106.3252 52.83913 106.33032 53.03639 106.34186 53.23369 106.35466 53.431 106.36748 53.62827 106.38539 53.82556 106.4059 54.02284 106.42639 54.22014 106.45201 54.41743 106.47893 54.61472 106.50838 54.81201 106.54167 55.00928 106.57753 55.20659 106.61469 55.40388 106.65567 55.60115 106.69795 55.79846 106.74535 55.99571 106.794 56.19302 106.84654 56.39034 106.89906 56.5876 106.95798 56.7849 107.01817 56.98218 107.0835 57.17947 107.14883 57.37677 107.22057 57.57405 107.29486 57.77135 107.373 57.96861 107.45241 58.16592 107.53694 58.36322 107.62405 58.56049 107.71884 58.75778 107.81491 58.95506 107.91354 59.15236 108.0173 59.34966 108.12746 59.54694 108.24017 59.74423 108.35802 59.9415 108.47842 60.13881 108.60524 60.33609 108.73845 60.53337 108.87808 60.73068 109.02025 60.92795 109.16885 61.12524 109.32256 61.32256 109.48523 61.51982 109.65173 61.71712 109.82724 61.9144 110.00658 62.1117 110.19742 62.30899 110.39212 62.50627 110.59451 62.70357 110.80714 62.90083 111.02747 63.09814 111.25803 63.29544 111.49884 63.4927 111.74733 63.69 112.00607 63.88728 112.27892 64.08458 112.562 64.28188 112.85661 64.47916 113.16531 64.67645 113.48682 64.87372 113.82498 65.07103 114.17595 65.26834 114.54614 65.46559 114.93298 65.6629 115.33775 65.86018 115.76302 66.05746 116.21133 66.25478 116.68015 66.45204 117.17203 66.64934 117.69208 66.84662 118.2416 67.04391 118.81801 67.24121 119.43028 67.43849 120.07715 67.63579 120.76117 67.83305 121.48744 68.03036 122.25984 68.22766 123.08347 68.42493 123.95833 68.62222 124.89084 68.8195 125.8938 69.0168 126.96848 69.2141 128.12387 69.41138 129.36508 69.60869 130.71006 69.80594 132.16518 70.00325 133.7484 70.20056 135.46994 70.39781 137.36315 70.59512 139.43824 70.79239 141.73365 70.98969 144.27628 71.187 147.11222 71.38426 150.29529 71.58156 153.89597 71.6399 155.10533"/>
<path transform="matrix(-.048001443,-.99881,-.99884,.048,33.754518,10.785568)" d="M2.8892 0-1.73352 2.31136 0 0-1.73352-2.31136" fill="#ff0000"/>
<path transform="matrix(.048101445,-.9988,-.99882999,-.0481,72.738529,10.7816929)" d="M2.8892 0-1.73352 2.31136 0 0-1.73352-2.31136" fill="#ff0000"/>
<path transform="matrix(1.00003,0,0,-1,1.0964966,165.88701)" stroke-width=".99628" stroke-linecap="butt" stroke-miterlimit="10" stroke-linejoin="miter" fill="none" stroke="#ff0000" d="M76.7941 7.74529 76.9245 12.7733 77.1297 19.37515 77.33488 24.96124 77.5401 29.75829 77.7453 33.91359 77.95049 37.54883 78.1557 40.7601 78.3609 43.61015 78.5661 46.16045 78.77129 48.45073 78.9765 50.52711 79.1817 52.40877 79.3869 54.12521 79.5921 55.6969 79.7973 57.13664 80.0025 58.47008 80.20772 59.6972 80.4129 60.8385 80.6181 61.90038 80.8233 62.8854 81.02852 63.8064 81.2337 64.66588 81.4389 65.47543 81.64412 66.23373 81.84932 66.94464 82.0545 67.61711 82.25972 68.24863 82.46492 68.84937 82.67012 69.41296 82.8753 69.94968 83.08052 70.45563 83.28572 70.93726 83.49092 71.39583 83.69612 71.82878 83.90132 72.2438 84.10652 72.63834 84.31174 73.01364 84.51692 73.371 84.72212 73.71301 84.92734 74.03964 85.13254 74.3522 85.33772 74.64937 85.54292 74.93501 85.74814 75.20912 85.95334 75.47043 86.15852 75.72278 86.36374 75.96358 86.56894 76.19159 86.77412 76.4132 86.97934 76.62582 87.18454 76.82948 87.38974 77.02419 87.59492 77.21248 87.80014 77.3918 88.00534 77.56345 88.21054 77.72998 88.41574 77.89009 88.62094 78.04253 88.82614 78.18982 89.03136 78.33072 89.23654 78.4665 89.44174 78.59587 89.64694 78.7214 89.85216 78.84055 90.05734 78.95581 90.26254 79.0647 90.46776 79.17102 90.67296 79.2722 90.87814 79.36827 91.08336 79.46178 91.28856 79.55016 91.49376 79.6347 91.69896 79.7154 91.90416 79.79225 92.10936 79.86528 92.31456 79.93443 92.51976 80.00104 92.72496 80.06381 92.93016 80.12273 93.13538 80.18166 93.34056 80.23416 93.54576 80.28284 93.75098 80.33151 93.95618 80.37508 94.16136 80.41606 94.36656 80.45448 94.57178 80.49034 94.77696 80.5211 94.98216 80.55057 95.18738 80.57745 95.39258 80.60179 95.59776 80.62228 95.80298 80.64278 96.00818 80.65814 96.21338 80.6697 96.41856 80.68121 96.62378 80.6889 96.82898 80.6953 97.03418 80.69788H97.23938L97.4446 80.6953 97.64978 80.6889 97.855 80.68121 98.06017 80.6697 98.26538 80.65814 98.4706 80.64278 98.67578 80.62228 98.88098 80.60179 99.08617 80.57745 99.2914 80.55057 99.49661 80.5211 99.70178 80.49034 99.907 80.45448 100.11218 80.41606 100.3174 80.37508 100.5226 80.33025 100.72778 80.28284 100.933 80.23416 101.13818 80.18166 101.3434 80.12273 101.54861 80.06381 101.7538 80.00104 101.95901 79.93443 102.16418 79.86655 102.3694 79.79225 102.57462 79.7154 102.7798 79.6347 102.985 79.55016 103.19019 79.46178 103.39542 79.36827 103.60062 79.2722 103.8058 79.17102 104.01102 79.0647 104.2162 78.95581 104.4214 78.84055 104.62662 78.7214 104.8318 78.59587 105.03702 78.4665 105.24219 78.33072 105.44742 78.18982 105.65263 78.04253 105.85782 77.89009 106.06302 77.72998 106.2682 77.56345 106.47342 77.3918 106.67863 77.21248 106.8838 77.02419 107.08902 76.82948 107.29422 76.62582 107.49944 76.41447 107.70464 76.19159 107.90982 75.96358 108.11504 75.72278 108.32022 75.47043 108.52542 75.20912 108.73064 74.93501 108.93582 74.65192 109.14104 74.3522 109.34622 74.03964 109.55144 73.71301 109.75665 73.371 109.96184 73.01364 110.16704 72.63834 110.37222 72.24509 110.57744 71.82878 110.78265 71.39583 110.98782 70.93726 111.19304 70.45692 111.39824 69.94968 111.60344 69.41296 111.80865 68.84937 112.01384 68.25117 112.21906 67.61711 112.42422 66.94719 112.62944 66.23373 112.83466 65.4767 113.03984 64.66844 113.24504 63.8064 113.45024 62.88797 113.65546 61.90038 113.86067 60.84106 114.06584 59.69975 114.27106 58.47008 114.47624 57.14177 114.68146 55.6969 114.88666 54.12776 115.09184 52.41133 115.29706 50.52711 115.50226 48.45457 115.70746 46.16045 115.91267 43.61528 116.11786 40.76395 116.32307 37.55524 116.52824 33.92128 116.73346 29.76213 116.93867 24.97406 117.14386 19.37515 117.34906 12.7733 117.47935 7.7517"/>
<path transform="matrix(-.02590078,.9996,.99963006,.0259,77.892917,158.14171)" d="M2.8892 0-1.73352 2.31136 0 0-1.73352-2.31136" fill="#ff0000"/>
<path transform="matrix(.025920779,.9996,.99963006,-.02592,118.57938,158.1353)" d="M2.8892 0-1.73352 2.31136 0 0-1.73352-2.31136" fill="#ff0000"/>
<path transform="matrix(1.00003,0,0,-1,1.0964966,165.88701)" stroke-width=".99628" stroke-linecap="butt" stroke-miterlimit="10" stroke-linejoin="miter" fill="none" stroke="#ff0000" d="M122.63411 155.1015 122.69246 153.88956 122.88972 150.29146 123.08702 147.10839 123.28432 144.27242 123.4816 141.72853 123.6789 139.43439 123.87619 137.35674 124.07346 135.46994 124.27075 133.74456 124.46805 132.1639 124.66533 130.70493 124.86263 129.36508 125.05992 128.1213 125.2572 126.96848 125.45448 125.8938 125.65178 124.89084 125.84908 123.95705 126.04636 123.0809 126.24365 122.25984 126.44095 121.48616 126.63821 120.75859 126.83551 120.07458 127.0328 119.43028 127.23009 118.81801 127.42738 118.23903 127.62466 117.69208 127.82195 117.17203 128.01924 116.68015 128.21654 116.20877 128.41382 115.76302 128.61112 115.33775 128.80841 114.93298 129.00568 114.54614 129.20298 114.17595 129.40027 113.82498 129.59757 113.48682 129.79485 113.16531 129.99214 112.85661 130.18943 112.562 130.3867 112.27635 130.584 112.00607 130.7813 111.74733 130.97858 111.49628 131.17588 111.25803 131.37316 111.02747 131.57044 110.80714 131.76773 110.59451 131.96503 110.39212 132.16231 110.19485 132.3596 110.00658 132.5569 109.82596 132.75417 109.65173 132.95146 109.48523 133.14876 109.32256 133.34604 109.16885 133.54334 109.02025 133.74063 108.87808 133.93791 108.73845 134.1352 108.60524 134.33249 108.47842 134.52979 108.35802 134.72707 108.24017 134.92436 108.12746 135.12166 108.0173 135.31893 107.91354 135.51622 107.81491 135.71352 107.71884 135.9108 107.62405 136.1081 107.53694 136.30539 107.45241 136.50266 107.373 136.69995 107.29486 136.89725 107.22057 137.09453 107.14883 137.29183 107.0835 137.48912 107.01817 137.68639 106.95798 137.88368 106.89906 138.08098 106.84654 138.27828 106.794 138.47556 106.74535 138.67285 106.69795 138.87015 106.65567 139.06742 106.61469 139.26471 106.57753 139.462 106.54167 139.65929 106.50838 139.85659 106.47893 140.05388 106.45201 140.25115 106.42639 140.44844 106.4059 140.64574 106.38539 140.84302 106.36748 141.04032 106.35466 141.23761 106.34186 141.43488 106.33032 141.63217 106.3252 141.82947 106.3188 142.02675 106.31624H142.22405L142.42134 106.3188 142.61862 106.3252 142.81592 106.33032 143.01319 106.34186 143.2105 106.35466 143.40779 106.36748 143.60506 106.38539 143.80237 106.4059 143.99964 106.42639 144.19693 106.45201 144.39424 106.47893 144.59149 106.50838 144.7888 106.54167 144.98609 106.57753 145.18337 106.61469 145.38068 106.65567 145.57796 106.69795 145.77524 106.74535 145.97252 106.794 146.16983 106.84654 146.36711 106.89906 146.56439 106.95798 146.76169 107.01817 146.95897 107.0835 147.15627 107.14883 147.35356 107.22057 147.55084 107.29486 147.74814 107.373 147.9454 107.45241 148.14272 107.53694 148.34001 107.62405 148.53728 107.71884 148.73459 107.81491 148.93186 107.91354 149.12915 108.0173 149.32646 108.12746 149.52371 108.24017 149.72103 108.35802 149.9183 108.47842 150.11559 108.60524 150.3129 108.73845 150.51018 108.87808 150.70746 109.02025 150.90474 109.16885 151.10205 109.32256 151.29933 109.48523 151.49662 109.65173 151.69393 109.82596 151.89119 110.00658 152.08849 110.19485 152.28578 110.39212 152.48307 110.59451 152.68036 110.80714 152.87763 111.02747 153.07494 111.25803 153.27223 111.49628 153.4695 111.74733 153.66681 112.00607 153.86408 112.27635 154.06137 112.562 154.25868 112.85661 154.45594 113.16531 154.65325 113.48682 154.85053 113.82498 155.0478 114.17851 155.24512 114.54614 155.4424 114.93298 155.63968 115.33775 155.83696 115.76302 156.03427 116.20877 156.23157 116.68015 156.42884 117.17203 156.62615 117.69208 156.82341 118.23903 157.0207 118.81801 157.218 119.43028 157.41529 120.07715 157.61258 120.76117 157.80985 121.48744 158.00716 122.25984 158.20446 123.0809 158.40172 123.95705 158.59903 124.89084 158.7963 125.8938 158.99359 126.96848 159.1909 128.12387 159.38817 129.36508 159.58547 130.70749 159.78275 132.16518 159.98004 133.7484 160.17734 135.46994 160.37462 137.35932 160.57192 139.43824 160.76918 141.73365 160.96649 144.27242 161.16379 147.11222 161.36106 150.29146 161.55837 153.89597 161.61669 155.10533"/>
<path transform="matrix(-.048101445,-.9988,-.99882999,.0481,123.7343,10.785522)" d="M2.8892 0-1.73352 2.31136 0 0-1.73352-2.31136" fill="#ff0000"/>
<path transform="matrix(.048101445,-.9988,-.99882999,-.0481,162.71802,10.7816929)" d="M2.8892 0-1.73352 2.31136 0 0-1.73352-2.31136" fill="#ff0000"/>
<use data-text="y" xlink:href="#font_5_2" transform="matrix(9.962899,0,0,-9.9626,166.67548,10.387009)" fill="#ff0000"/>
<use data-text="=" xlink:href="#font_4_7" transform="matrix(9.962899,0,0,-9.9626,174.68473,10.387009)" fill="#ff0000"/>
<use data-text="c" xlink:href="#font_4_8" transform="matrix(9.962899,0,0,-9.9626,185.18561,10.387009)" fill="#ff0000"/>
<use data-text="s" xlink:href="#font_4_11" transform="matrix(9.962899,0,0,-9.9626,189.60913,10.387009)" fill="#ff0000"/>
<use data-text="c" xlink:href="#font_4_8" transform="matrix(9.962899,0,0,-9.9626,193.53452,10.387009)" fill="#ff0000"/>
<use data-text="(" xlink:href="#font_6_1" transform="matrix(9.962899,0,0,-9.9626,199.64746,2.3170167)" fill="#ff0000"/>
<use data-text="x" xlink:href="#font_5_1" transform="matrix(9.962899,0,0,-9.9626,204.2146,10.387024)" fill="#ff0000"/>
<use data-text="&#x2212;" xlink:href="#font_1_1" transform="matrix(9.962899,0,0,-9.9626,212.12184,10.387024)" fill="#ff0000"/>
<use data-text="&#x03c0;" xlink:href="#font_3_1" transform="matrix(6.9740097,0,0,-6.9738,223.28018,6.46402)" fill="#ff0000"/>
<path transform="matrix(1.00003,0,0,-1,83.377979,-137.603)" stroke-width=".3985" stroke-linecap="butt" stroke-miterlimit="10" stroke-linejoin="miter" fill="none" stroke="#ff0000" d="M139.898-145.499H144.807"/>
<use data-text="2" xlink:href="#font_2_1" transform="matrix(6.9740097,0,0,-6.9738,223.74919,13.822006)" fill="#ff0000"/>
<use data-text=")" xlink:href="#font_6_2" transform="matrix(9.962899,0,0,-9.9626,229.38536,2.3170014)" fill="#ff0000"/>
<use data-text="+" xlink:href="#font_4_3" transform="matrix(9.962899,0,0,-9.9626,236.16558,10.386993)" fill="#ff0000"/>
<use data-text="2" xlink:href="#font_4_4" transform="matrix(9.962899,0,0,-9.9626,246.1185,10.386993)" fill="#ff0000"/>
<path transform="matrix(1.00003,0,0,-1,1.0964966,165.88701)" stroke-width=".99628" stroke-linecap="butt" stroke-miterlimit="10" stroke-linejoin="miter" fill="none" stroke="#ff0000" d="M166.76807 7.74538 166.81308 9.54666 166.93007 13.76474 167.04708 17.57419 167.16407 21.02882 167.28105 24.17348 167.39806 27.06836 167.51505 29.7173 167.63204 32.16 167.74904 34.41956 167.86603 36.51257 167.98302 38.46214 168.10002 40.27591 168.21703 41.97185 168.33403 43.5589 168.45102 45.0499 168.56801 46.45122 168.68502 47.76929 168.802 49.01563 168.91899 50.1928 169.036 51.30334 169.15299 52.3601 169.26998 53.3605 169.38698 54.30838 169.50397 55.21143 169.62096 56.07347 169.73796 56.89328 169.85495 57.6772 169.97194 58.4214 170.08895 59.13872 170.20594 59.82018 170.32292 60.476 170.43993 61.10492 170.55692 61.70697 170.6739 62.28593 170.79093 62.84058 170.90792 63.376 171.0249 63.88965 171.1419 64.38408 171.2589 64.86186 171.3759 65.323 171.49289 65.76491 171.60988 66.19273 171.72689 66.6052 171.84387 67.00484 171.96086 67.3904 172.07787 67.76442 172.19486 68.12308 172.31185 68.47404 172.42885 68.81094 172.54584 69.13757 172.66283 69.45653 172.77983 69.76393 172.89682 70.0624 173.01381 70.34932 173.13082 70.63112 173.2478 70.90268 173.36479 71.16783 173.48181 71.42401 173.5988 71.67506 173.71579 71.91716 173.8328 72.15413 173.94979 72.38214 174.06678 72.60503 174.18378 72.82405 174.30077 73.03285 174.41777 73.24036 174.53476 73.44017 174.65175 73.63487 174.76876 73.82701 174.88574 74.01276 175.00273 74.19208 175.11974 74.36885 175.23673 74.53792 175.35372 74.707 175.47072 74.8684 175.5877 75.02852 175.70471 75.1835 175.82172 75.33337 175.9387 75.48196 176.0557 75.62543 176.1727 75.76633 176.28969 75.90468 176.40668 76.03789 176.52368 76.16853 176.64067 76.29535 176.75766 76.42087 176.87467 76.54384 176.99166 76.6604 177.10865 76.77826 177.22565 76.8897 177.34264 77.00241 177.45964 77.1113 177.57663 77.21632 177.69362 77.32008 177.81063 77.42126 177.92761 77.51862 178.0446 77.6147 178.1616 77.71075 178.2786 77.803 178.3956 77.89265 178.5126 77.97975 178.62958 78.06686 178.74658 78.15012 178.86357 78.2321 178.98058 78.31023 179.09757 78.39093 179.21457 78.4665 179.33156 78.5408 179.44855 78.6138 179.56555 78.68681 179.68256 78.75598 179.79953 78.8226 179.91654 78.8892 180.03353 78.95325 180.15053 79.01859 180.26753 79.07878 180.3845 79.14156 180.50153 79.1979 180.6185 79.25684 180.73549 79.3119 180.85251 79.36827 180.96949 79.42078 181.08649 79.47331 181.20348 79.52199 181.32048 79.57321 181.43747 79.6206 181.55448 79.66672 181.67147 79.71413 181.78844 79.75638 181.90546 79.79994 182.02245 79.84349 182.13944 79.88448 182.25644 79.9229 182.37343 79.96262 182.49042 79.99977 182.60744 80.03691 182.72441 80.07149 182.84142 80.1048 182.9584 80.1381 183.0754 80.17142 183.19242 80.20087 183.30939 80.23161 183.42639 80.26108 183.54338 80.28796 183.66039 80.31615 183.77738 80.34177 183.89437 80.36739 184.01137 80.39044 184.12834 80.4135 184.24536 80.43527 184.36235 80.45706 184.47934 80.47755 184.59635 80.49805 184.71334 80.51468 184.83032 80.53262 184.94734 80.54799 185.06432 80.56465 185.18132 80.58002 185.29831 80.5941 185.4153 80.60692 185.5323 80.61844 185.64929 80.63126 185.7663 80.64023 185.88327 80.65047 186.00029 80.65814 186.11728 80.66583 186.23427 80.67354 186.35128 80.67993 186.46825 80.68378 186.58527 80.6889 186.70226 80.69145 186.81925 80.6953 186.93625 80.69788H187.05324 187.17023 187.28725L187.40422 80.6953 187.52121 80.69145 187.63822 80.6889 187.7552 80.68506 187.87221 80.67993 187.9892 80.67354 188.1062 80.66583 188.22318 80.65814 188.3402 80.65047 188.45719 80.64023 188.57416 80.63126 188.69118 80.61844 188.80815 80.60692 188.92516 80.5941 189.04216 80.58002 189.15915 80.56593 189.27616 80.55057 189.39313 80.53262 189.51013 80.51468 189.62714 80.49805 189.74413 80.47755 189.86112 80.45833 187.14354 80.99396"/>
<path transform="matrix(-.024920749,.99963,.99966,.02492,167.86959,158.14163)" d="M2.8892 0-1.73352 2.31136 0 0-1.73352-2.31136" fill="#ff0000"/>
<path transform="matrix(.98112949,.19337,.19337581,-.9811,188.24564,84.89305)" d="M2.8892 0-1.73352 2.31136 0 0-1.73352-2.31136" fill="#ff0000"/>
<path transform="matrix(1.00003,0,0,-1,1.0964966,165.88701)" stroke-width=".3985" stroke-linecap="butt" stroke-dasharray="2.98883,2.98883" stroke-miterlimit="10" stroke-linejoin="miter" fill="none" stroke="#ff0000" d="M29.65431 1.28091V160.11483"/>
<path transform="matrix(1.00003,0,0,-1,1.0964966,165.88701)" stroke-width=".3985" stroke-linecap="butt" stroke-dasharray="2.98883,2.98883" stroke-miterlimit="10" stroke-linejoin="miter" fill="none" stroke="#ff0000" d="M74.64285 1.28091V160.11483"/>
<path transform="matrix(1.00003,0,0,-1,1.0964966,165.88701)" stroke-width=".3985" stroke-linecap="butt" stroke-dasharray="2.98883,2.98883" stroke-miterlimit="10" stroke-linejoin="miter" fill="none" stroke="#ff0000" d="M119.6311 1.28091V160.11483"/>
<path transform="matrix(1.00003,0,0,-1,1.0964966,165.88701)" stroke-width=".3985" stroke-linecap="butt" stroke-dasharray="2.98883,2.98883" stroke-miterlimit="10" stroke-linejoin="miter" fill="none" stroke="#ff0000" d="M164.61965 1.28091V160.11483"/>
<use data-text="x" xlink:href="#font_5_1" transform="matrix(9.962899,0,0,-9.9626,186.16205,94.47801)"/>
<use data-text="y" xlink:href="#font_5_2" transform="matrix(9.962899,0,0,-9.9626,101.756519,12.30101)"/>
</svg>
