<svg xmlns="http://www.w3.org/2000/svg" xmlns:xlink="http://www.w3.org/1999/xlink" version="1.1" width="198" height="171" viewBox="0 0 198 171">
<defs>
<path id="font_1_1" d="M.6589966 .23046875C.6759949 .23046875 .69400027 .23046875 .69400027 .25045777 .69400027 .27046205 .6759949 .27046205 .6589966 .27046205H.117996219C.100997928 .27046205 .08299255 .27046205 .08299255 .25045777 .08299255 .23046875 .100997928 .23046875 .117996219 .23046875H.6589966Z"/>
<path id="font_2_3" d="M.1269989 .07699585 .23298645 .18003845C.3889923 .31811524 .44898988 .3721466 .44898988 .47216798 .44898988 .5860901 .35899354 .6660156 .23699951 .6660156 .12399292 .6660156 .049987794 .57411196 .049987794 .48516847 .049987794 .4291687 .099990848 .4291687 .102996829 .4291687 .11999512 .4291687 .15499878 .44117738 .15499878 .48217774 .15499878 .5081787 .13699341 .5341797 .101989749 .5341797 .09399414 .5341797 .09199524 .5341797 .08898926 .5331726 .11199951 .59806826 .1659851 .63500979 .22399903 .63500979 .31498719 .63500979 .35798646 .5541382 .35798646 .47216798 .35798646 .39215089 .30799867 .31311036 .25299073 .25108338L.06098938 .036987306C.049987794 .025985718 .049987794 .023986817 .049987794 0H.42099L.44898988 .17404175H.42399598C.4189911 .14402771 .4119873 .1000061 .4019928 .084991458 .394989 .07699585 .32899476 .07699585 .30699159 .07699585H.1269989Z"/>
<path id="font_3_1" d="M.2649994 .37265016H.37799073C.34498597 .22489929 .33599855 .18196106 .33599855 .11508179 .33599855 .100097659 .33599855 .073150638 .34399415 .03919983 .35398866-.0047454836 .36499024-.0107421879 .37998963-.0107421879 .3999939-.0107421879 .42099 .007247925 .42099 .02722168 .42099 .033218385 .42099 .035202028 .4149933 .049179079 .38598634 .12106323 .38598634 .18595886 .38598634 .21391297 .38598634 .26683045 .3929901 .32073976 .4039917 .37265016H.5179901C.5309906 .37265016 .5669861 .37265016 .5669861 .406662 .5669861 .43066407 .54599 .43066407 .5269928 .43066407H.19198609C.16999817 .43066407 .13198853 .43066407 .08799744 .38365174 .052993776 .34469605 .026992798 .29878236 .026992798 .29379273 .026992798 .29278565 .026992798 .28379823 .038986207 .28379823 .04699707 .28379823 .04899597 .28779603 .054992677 .29577638 .10398865 .37265016 .1619873 .37265016 .18199158 .37265016H.23899842C.20698548 .25186158 .15299988 .13105774 .11099243 .04020691 .102996829 .025222779 .102996829 .023223877 .102996829 .016235352 .102996829-.002746582 .11898804-.0107421879 .13198853-.0107421879 .1619873-.0107421879 .16999817 .017242432 .18199158 .05418396 .19599915 .100097659 .19599915 .10209656 .20899964 .15202332L.2649994 .37265016Z"/>
<path id="font_2_2" d="M.2939911 .64004519C.2939911 .66400149 .2939911 .6660156 .2709961 .6660156 .20899964 .60227969 .12098694 .60227969 .08898926 .60227969V.57128909C.10899353 .57128909 .16799927 .57128909 .21998596 .5972748V.07902527C.21998596 .042999269 .21699524 .0309906 .1269989 .0309906H.09498596V0C.12998963 .0029907227 .21699524 .0029907227 .25698854 .0029907227 .29699708 .0029907227 .38398744 .0029907227 .4189911 0V.0309906H.3869934C.29699708 .0309906 .2939911 .041992189 .2939911 .07902527V.64004519Z"/>
<path id="font_2_1" d="M.45999146 .31976319C.45999146 .39982606 .45498658 .47988893 .41999818 .5539398 .37399293 .65000918 .2919922 .6660156 .25 .6660156 .18998719 .6660156 .116989139 .64001467 .07598877 .54693606 .04399109 .47789 .038986207 .39982606 .038986207 .31976319 .038986207 .24472046 .042999269 .15464783 .083999637 .07859802 .1269989-.0024719239 .19999695-.022460938 .24899292-.022460938 .30299378-.022460938 .3789978-.0014648438 .4229889 .09359741 .45498658 .16265869 .45999146 .2407074 .45999146 .31976319M.24899292-.00047302247C.20999146-.00047302247 .15098572 .024551392 .1329956 .12062073 .12199402 .18066406 .12199402 .2727356 .12199402 .3317871 .12199402 .39582826 .12199402 .46188355 .12998963 .5159149 .14898682 .63500979 .22399903 .64401248 .24899292 .64401248 .28199769 .64401248 .34799195 .6259918 .36698915 .52693179 .3769989 .47088624 .3769989 .39482118 .3769989 .3317871 .3769989 .25672914 .3769989 .18867493 .3659973 .12461853 .35099793 .029556275 .2939911-.00047302247 .24899292-.00047302247Z"/>
<path id="font_2_4" d="M.44898988 .20022583C.44898988 .3193512 .36698915 .41944886 .25898744 .41944886 .21099854 .41944886 .16799927 .40345765 .13198853 .36842347V.5637665C.1519928 .5577698 .18499756 .55078127 .21699524 .55078127 .33999635 .55078127 .4099884 .6417694 .4099884 .6547699 .4099884 .6607666 .40699769 .6657715 .3999939 .6657715 .39898683 .6657715 .39698792 .6657715 .3919983 .66278079 .37199403 .6537781 .32299806 .6337738 .2559967 .6337738 .21598816 .6337738 .16999817 .6407776 .12298584 .6617737 .114990238 .66477969 .11299133 .66477969 .11099243 .66477969 .100997928 .66477969 .100997928 .6567688 .100997928 .6407776V.34439088C.100997928 .32637025 .100997928 .31835938 .114990238 .31835938 .12199402 .31835938 .12399292 .32136537 .12799073 .32736207 .13899231 .3433838 .17599488 .39746095 .25698854 .39746095 .30899049 .39746095 .33399964 .35139466 .34199525 .33337403 .35798646 .29632569 .3600006 .25727845 .3600006 .20722962 .3600006 .17222595 .3600006 .11222839 .33599855 .07035828 .31199647 .031463624 .2749939 .0055389406 .22898865 .0055389406 .1559906 .0055389406 .09899902 .058380128 .08198547 .11723328 .084991458 .1162262 .08799744 .115234378 .09899902 .115234378 .13198853 .115234378 .14898682 .14022827 .14898682 .16423035 .14898682 .18823242 .13198853 .21322632 .09899902 .21322632 .084991458 .21322632 .049987794 .20622254 .049987794 .16023255 .049987794 .07434082 .11898804-.022460938 .23098755-.022460938 .34700013-.022460938 .44898988 .073349 .44898988 .20022583Z"/>
<path id="font_3_2" d="M.33399964 .30233766C.33999635 .32835389 .36299134 .42037965 .43299867 .42037965 .43798829 .42037965 .46199037 .42037965 .48298646 .40734864 .45498658 .402359 .43499757 .37734986 .43499757 .35334779 .43499757 .33735658 .44599916 .31835938 .47299195 .31835938 .49499513 .31835938 .5269928 .3363495 .5269928 .37635804 .5269928 .42837525 .46798707 .4423828 .43399049 .4423828 .37599183 .4423828 .34098817 .38935853 .32899476 .36634828 .3039856 .43237306 .25 .4423828 .22099304 .4423828 .116989139 .4423828 .05999756 .3133545 .05999756 .28834535 .05999756 .27833558 .069992069 .27833558 .07199097 .27833558 .07998657 .27833558 .08299255 .28033448 .084991458 .28933717 .11898804 .39535523 .18499756 .42037965 .21899414 .42037965 .23799134 .42037965 .272995 .4113617 .272995 .35334779 .272995 .32235719 .2559967 .25532533 .21899414 .11528015 .20298767 .053268434 .16799927 .011245728 .12399292 .011245728 .117996219 .011245728 .09498596 .011245728 .07398987 .024276734 .09899902 .029266358 .12098694 .05027771 .12098694 .07827759 .12098694 .105270389 .09899902 .11328125 .083999637 .11328125 .053985597 .11328125 .0289917 .08728027 .0289917 .055267335 .0289917 .009246826 .07899475-.0107421879 .12298584-.0107421879 .18899536-.0107421879 .22499085 .059280397 .22799683 .0652771 .23999024 .028274537 .27598573-.0107421879 .33599855-.0107421879 .43899537-.0107421879 .49598695 .118270877 .49598695 .14328003 .49598695 .1532898 .4869995 .1532898 .48399354 .1532898 .47499085 .1532898 .47299195 .14929199 .47099305 .14228821 .43798829 .03527832 .36999513 .011245728 .33799745 .011245728 .29899598 .011245728 .2829895 .043273927 .2829895 .07727051 .2829895 .09927368 .2889862 .121276859 .2999878 .16529846L.33399964 .30233766Z"/>
<path id="font_3_3" d="M.48599244 .38136292C.48999024 .39537049 .48999024 .39736939 .48999024 .40437318 .48999024 .42237855 .47599793 .43138124 .46099855 .43138124 .45098878 .43138124 .43499757 .42536927 .42599488 .41036988 .42399598 .405365 .41600038 .37435914 .4119873 .35635377 .40499879 .33035279 .397995 .30334474 .3919983 .27633668L.34700013 .09628296C.34298707 .08126831 .2999878 .011245728 .23399353 .011245728 .18299866 .011245728 .17199707 .055267335 .17199707 .0922699 .17199707 .1382904 .18899536 .20030213 .22299195 .28833009 .23899842 .3293457 .24299622 .3403473 .24299622 .36035157 .24299622 .405365 .21099854 .4423828 .16099549 .4423828 .06599426 .4423828 .0289917 .29733277 .0289917 .28833009 .0289917 .27833558 .038986207 .27833558 .040985109 .27833558 .050994874 .27833558 .051986696 .28033448 .056991579 .29634095 .083999637 .3903656 .12399292 .42037965 .1579895 .42037965 .1659851 .42037965 .18299866 .42037965 .18299866 .3883667 .18299866 .36335755 .17298889 .3373413 .1659851 .31834413 .12599182 .21231079 .10798645 .1552887 .10798645 .10827637 .10798645 .019256592 .17098999-.0107421879 .22999573-.0107421879 .2689972-.0107421879 .30299378 .0062561037 .33099366 .03425598 .31799317-.017745972 .30599977-.06674194 .2659912-.11973572 .23999024-.15385437 .20199585-.18309021 .1559906-.18309021 .14199829-.18309021 .09700012-.18005371 .07998657-.14074707 .09599304-.14074707 .10899353-.14074707 .12298584-.1287384 .1329956-.11973572 .14299011-.10673523 .14299011-.08773804 .14299011-.056747438 .115997318-.052734376 .10598755-.052734376 .08299255-.052734376 .049987794-.068740848 .049987794-.11773682 .049987794-.16796875 .09399414-.20507813 .1559906-.20507813 .25898744-.20507813 .3619995-.11373901 .3899994-.00074768069L.48599244 .38136292Z"/>
</defs>
<path transform="matrix(1.00003,0,0,-1.00006,2.4406586,166.5352)" stroke-width=".19925" stroke-linecap="butt" stroke-miterlimit="10" stroke-linejoin="miter" fill="none" stroke="#929292" d="M7.16013 79.28079V82.11555M18.40723 79.28079V82.11555M29.65434 79.28079V82.11555M40.90144 79.28079V82.11555M52.14856 79.28079V82.11555M63.39566 79.28079V82.11555M74.64278 79.28079V82.11555M85.88988 79.28079V82.11555M97.137 79.28079V82.11555M108.3841 79.28079V82.11555M119.6312 79.28079V82.11555M130.87831 79.28079V82.11555M142.1254 79.28079V82.11555M153.37253 79.28079V82.11555M164.61963 79.28079V82.11555M175.86675 79.28079V82.11555M187.11385 79.28079V82.11555"/>
<path transform="matrix(1.00003,0,0,-1.00006,2.4406586,166.5352)" stroke-width=".19925" stroke-linecap="butt" stroke-miterlimit="10" stroke-linejoin="miter" fill="none" stroke="#929292" d="M7.16013 78.5723V82.82404M52.14856 78.5723V82.82404M142.12541 78.5723V82.82404M187.11385 78.5723V82.82404"/>
<path transform="matrix(1.00003,0,0,-1.00006,2.4406586,166.5352)" stroke-width=".19925" stroke-linecap="butt" stroke-miterlimit="10" stroke-linejoin="miter" fill="none" stroke="#929292" d="M95.01102 0H99.26294M95.01102 40.34909H99.26294M95.01102 121.04727H99.26294M95.01102 161.39636H99.26294"/>
<path transform="matrix(1.00003,0,0,-1.00006,2.4406586,166.5352)" stroke-width=".3985" stroke-linecap="butt" stroke-miterlimit="10" stroke-linejoin="miter" fill="none" stroke="#000000" d="M0 80.69818H192.28145"/>
<path transform="matrix(1.00003,0,0,-1.00006,194.72789,85.832187)" d="M1.99252 0-1.19551 1.59401 0 0-1.19551-1.59401"/>
<path transform="matrix(1.00003,0,0,-1.00006,2.4406586,166.5352)" stroke-width=".3985" stroke-linecap="butt" stroke-miterlimit="10" stroke-linejoin="miter" fill="none" stroke="#000000" d="M97.137 0V159.40384"/>
<path transform="matrix(0,-1.00006,-1.00003,-0,99.580577,7.121811)" d="M1.99252 0-1.19551 1.59401 0 0-1.19551-1.59401"/>
<use data-text="&#x2212;" xlink:href="#font_1_1" transform="matrix(9.962899,0,0,-9.963197,.21759033,97.899089)"/>
<use data-text="2" xlink:href="#font_2_3" transform="matrix(9.962899,0,0,-9.963197,7.9668276,97.899089)"/>
<use data-text="&#x03c0;" xlink:href="#font_3_1" transform="matrix(9.962899,0,0,-9.963197,12.947975,97.899089)"/>
<use data-text="&#x2212;" xlink:href="#font_1_1" transform="matrix(9.962899,0,0,-9.963197,47.698019,97.290058)"/>
<use data-text="&#x03c0;" xlink:href="#font_3_1" transform="matrix(9.962899,0,0,-9.963197,55.447256,97.290058)"/>
<use data-text="&#x03c0;" xlink:href="#font_3_1" transform="matrix(9.962899,0,0,-9.963197,141.55184,95.76796)"/>
<use data-text="2" xlink:href="#font_2_3" transform="matrix(9.962899,0,0,-9.963197,184.05112,97.899089)"/>
<use data-text="&#x03c0;" xlink:href="#font_3_1" transform="matrix(9.962899,0,0,-9.963197,189.03227,97.899089)"/>
<use data-text="&#x2212;" xlink:href="#font_1_1" transform="matrix(9.962899,0,0,-9.963197,76.22288,169.33037)"/>
<use data-text="1" xlink:href="#font_2_2" transform="matrix(9.962899,0,0,-9.963197,83.972118,169.33037)"/>
<use data-text="0" xlink:href="#font_2_1" transform="matrix(9.962899,0,0,-9.963197,88.95356,169.33037)"/>
<use data-text="&#x2212;" xlink:href="#font_1_1" transform="matrix(9.962899,0,0,-9.963197,81.204029,128.97895)"/>
<use data-text="5" xlink:href="#font_2_4" transform="matrix(9.962899,0,0,-9.963197,88.95326,128.97895)"/>
<use data-text="5" xlink:href="#font_2_4" transform="matrix(9.962899,0,0,-9.963197,88.95326,48.69114)"/>
<use data-text="1" xlink:href="#font_2_2" transform="matrix(9.962899,0,0,-9.963197,83.97111,8.339706)"/>
<use data-text="0" xlink:href="#font_2_1" transform="matrix(9.962899,0,0,-9.963197,88.95256,8.339706)"/>
<path transform="matrix(1.00003,0,0,-1.00006,2.4406586,166.5352)" stroke-width=".99628" stroke-linecap="butt" stroke-miterlimit="10" stroke-linejoin="miter" fill="none" stroke="#0000ff" d="M9.0785 107.06773 7.253 105.01222 7.34589 105.11696 7.43878 105.22157 7.53166 105.32614 7.62454 105.431 7.71744 105.53595 7.81033 105.64081 7.90321 105.7456 7.9961 105.8507 8.08897 105.95573 8.18187 106.06119 8.27477 106.16618 8.36765 106.27147 8.46053 106.37712 8.55342 106.48267 8.6463 106.58841 8.7392 106.69429 8.83208 106.80048 8.92497 106.90668 9.01785 107.01303 9.11073 107.11989 9.20363 107.22655 9.29652 107.3334 9.3894 107.44057 9.48228 107.54758 9.57516 107.65555 9.66808 107.76321 9.76096 107.87102 9.85384 107.97981 9.94672 108.08842 10.03961 108.19705 10.13249 108.30664 10.22539 108.41573 10.31827 108.52563 10.41116 108.63586 10.50404 108.74628 10.59692 108.85683 10.68982 108.96786 10.78271 109.07973 10.8756 109.19173 10.96848 109.30357 11.06136 109.4164 11.15427 109.52936 11.24715 109.64299 11.34003 109.75726 11.4329 109.87122 11.5258 109.98628 11.6187 110.10152 11.71158 110.21724 11.80446 110.33345 11.89735 110.45047 11.99023 110.5678 12.08311 110.68561 12.17601 110.80391 12.2689 110.92253 12.36179 111.04247 12.45467 111.16222 12.54755 111.28311 12.64044 111.4043 12.73334 111.52647 12.82622 111.64882 12.9191 111.77213 13.012 111.89626 13.10489 112.02068 13.19777 112.14673 13.29065 112.27231 13.38354 112.39917 13.47643 112.52715 13.5693 112.65529 13.6622 112.78458 13.7551 112.91464 13.84798 113.0457 13.94086 113.17741 14.03374 113.30992 14.12665 113.44339 14.21953 113.57784 14.31241 113.71341 14.40529 113.84978 14.49818 113.98698 14.59108 114.12529 14.68396 114.26442 14.77684 114.4053 14.86974 114.54686 14.96262 114.68921 15.05551 114.83253 15.14839 114.97763 15.24129 115.12401 15.33417 115.2707 15.42705 115.4197 15.51993 115.56914 15.61284 115.72021 15.70572 115.8724 15.7986 116.02621 15.89148 116.18115 15.98438 116.33755 16.07726 116.49539 16.17015 116.65501 16.26303 116.8161 16.35593 116.97845 16.4488 117.14243 16.5417 117.30818 16.63458 117.47539 16.72748 117.64455 16.82036 117.81512 16.91324 117.98784 17.00613 118.16214 17.09901 118.3387 17.19191 118.51656 17.28479 118.69652 17.37767 118.8789 17.47058 119.06305 17.56345 119.24931 17.65634 119.43733 17.74924 119.62859 17.84212 119.8213 17.93501 120.0169 18.02788 120.2138 18.12079 120.41428 18.21365 120.61649 18.30655 120.82211 18.39944 121.02983 18.49232 121.24028 18.58522 121.45334 18.67809 121.6696 18.77098 121.88893 18.86389 122.11086 18.95676 122.33617 19.04965 122.56407 19.14252 122.79597 19.23543 123.03098 19.32831 123.26936 19.42119 123.51176 19.51408 123.75711 19.60696 124.00613 19.69986 124.2597 19.79274 124.5168 19.88562 124.77809 19.97853 125.04375 20.0714 125.31297 20.16429 125.58781 20.25717 125.86671 20.35007 126.1503 20.44296 126.43951 20.53583 126.73325 20.62872 127.03217 20.72162 127.33559 20.8145 127.64514 20.9074 127.96002 21.00026 128.28217 21.09317 128.60854 21.18605 128.94327 21.27893 129.28285 21.37181 129.62952 21.4647 129.98346 21.5576 130.34369 21.65048 130.71361 21.74336 131.08934 21.83626 131.47298 21.92914 131.8655 22.02203 132.26657 22.11491 132.67746 22.20781 133.09613 22.30069 133.52515 22.39357 133.9635 22.48647 134.41396 22.57936 134.87392 22.67224 135.34471 22.76512 135.82796 22.858 136.32247 22.95091 136.82909 23.0438 137.35152 23.13667 137.88607 23.22955 138.43448 23.32245 139.00067 23.41533 139.57878 23.50822 140.17597 23.6011 140.78684 23.694 141.42032 23.78688 142.07027 23.87978 142.73926 23.97266 143.42906 24.06555 144.14148 24.15843 144.87871 24.25131 145.63616 24.3442 146.42104 24.4371 147.23125 24.52998 148.0689 24.62286 148.93672 24.71574 149.83715 24.80864 150.77051 24.90154 151.73952 24.99442 152.74437 25.0873 153.78879 25.18019 154.87514 25.27307 156.00377 25.36597 157.18503 25.45883 158.41504 25.55174 159.69733 25.44492 158.15424"/>
<path transform="matrix(-.66401,.74769487,.7476725,.66402986,11.519451,59.461038)" d="M2.8892 0-1.73352 2.31136 0 0-1.73352-2.31136" fill="#0000ff"/>
<path transform="matrix(.069122079,-.9976298,-.99759998,-.06912414,27.886343,8.371506)" d="M2.8892 0-1.73352 2.31136 0 0-1.73352-2.31136" fill="#0000ff"/>
<path transform="matrix(1.00003,0,0,-1.00006,2.4406586,166.5352)" stroke-width=".99628" stroke-linecap="butt" stroke-miterlimit="10" stroke-linejoin="miter" fill="none" stroke="#0000ff" d="M31.92516 3.8184 32.05449 9.50882 32.24933 16.8083 32.44418 23.10905 32.63902 28.59329 32.83386 33.40887 33.02869 37.68024 33.22354 41.49419 33.41838 44.92578 33.61322 48.01994 33.80807 50.8316 34.00291 53.40039 34.19775 55.75662 34.39258 57.92046 34.58743 59.92325 34.78227 61.77815 34.97711 63.50334 35.17195 65.11148 35.3668 66.61731 35.56165 68.02759 35.75648 69.3512 35.95132 70.60023 36.14616 71.77925 36.341 72.8911 36.53584 73.94614 36.7307 74.94891 36.92554 75.90097 37.12038 76.80836 37.31522 77.6728 37.51006 78.499 37.7049 79.28854 37.89973 80.04501 38.09459 80.77016 38.28943 81.46722 38.48425 82.13686 38.67911 82.78162 38.87395 83.40202 39.06879 84.00099 39.26363 84.57893 39.45848 85.13689 39.65332 85.67708 39.84814 86.20016 40.04298 86.7071 40.23784 87.19872 40.43268 87.67534 40.62752 88.1387 40.82237 88.58867 41.01721 89.02687 41.21204 89.45343 41.40688 89.86871 41.60173 90.2738 41.79657 90.66891 41.99141 91.05513 42.18626 91.43216 42.3811 91.8011 42.57593 92.16118 42.77077 92.51384 42.96562 92.85971 43.16046 93.19798 43.3553 93.53015 43.55016 93.85568 43.745 94.17508 43.93982 94.48932 44.13466 94.79774 44.32951 95.10052 44.52435 95.39879 44.7192 95.69237 44.91405 95.98158 45.10889 96.26614 45.30371 96.54665 45.49855 96.82327 45.6934 97.09605 45.88824 97.36525 46.08308 97.63123 46.27792 97.89381 46.47276 98.15335 46.6676 98.41046 46.86244 98.6637 47.0573 98.91498 47.25214 99.16353 47.44698 99.40982 47.64182 99.65384 47.83667 99.89578 48.0315 100.13513 48.22633 100.37335 48.42119 100.60947 48.61603 100.84383 48.81087 101.07655 49.0057 101.30783 49.20056 101.53734 49.39539 101.76588 49.59023 101.99344 49.78508 102.21957 49.97992 102.44489 50.17476 102.66873 50.3696 102.89244 50.56445 103.11531 50.75928 103.33702 50.95412 103.55878 51.14897 103.77943 51.34381 103.9999 51.53865 104.22006 51.73347 104.44002 51.92834 104.65953 52.12315 104.87904 52.31801 105.09859 52.51286 105.31804 52.70769 105.5379 52.90254 105.75792 53.09737 105.97845 53.29222 106.1991 53.48708 106.42047 53.6819 106.64232 53.87674 106.86472 54.07158 107.08792 54.26643 107.31195 54.46127 107.53676 54.65611 107.76288 54.85097 107.98996 55.04578 108.21819 55.24063 108.44753 55.4355 108.6785 55.63031 108.91058 55.82516 109.14444 56.02 109.38008 56.21484 109.6175 56.4097 109.85716 56.60452 110.09813 56.79938 110.34183 56.9942 110.58731 57.18906 110.83507 57.38391 111.08554 57.57874 111.33894 57.77357 111.5946 57.9684 111.85347 58.16327 112.11525 58.35811 112.38075 58.55293 112.64868 58.74779 112.92079 58.94261 113.19612 59.13747 113.47568 59.33232 113.7594 59.52715 114.04718 59.722 114.3393 59.91682 114.6366 60.11166 114.93825 60.30653 115.24538 60.50136 115.55785 60.6962 115.87563 60.89104 116.19987 61.08589 116.5301 61.28073 116.86725 61.47556 117.21054 61.67043 117.56158 61.86523 117.91957 62.06009 118.28625 62.25496 118.66118 62.44977 119.04465 62.64462 119.43782 62.83945 119.84001 63.0343 120.25221 63.22916 120.67589 63.42397 121.11102 63.61882 121.55856 63.81366 122.01839 64.0085 122.49095 64.20335 122.979 64.3982 123.48111 64.59303 124 64.78786 124.5355 64.98271 125.08911 65.17757 125.66191 65.37239 126.25471 65.56725 126.87044 65.76207 127.50764 65.95692 128.17162 66.15178 128.86093 66.34659 129.57787 66.54146 130.32627 66.73628 131.1071 66.93112 131.92279 67.12599 132.77883 67.3208 133.6733 67.51566 134.61425 67.71048 135.60199 67.90535 136.64234 68.10019 137.7408 68.29501 138.90222 68.48988 140.13175 68.6847 141.43532 68.87955 142.82205 69.07439 144.30239 69.26923 145.88294 69.46408 147.57389 69.65889 149.39524 69.85374 151.35459 70.04861 153.48163 70.24342 155.78363 70.43828 158.29206 70.42888 158.1589"/>
<path transform="matrix(-.022670683,.99976,.99973008,.02267136,34.36679,162.71656)" d="M2.8892 0-1.73352 2.31136 0 0-1.73352-2.31136" fill="#0000ff"/>
<path transform="matrix(.07070212,-.9975298,-.9975,-.07070424,72.871639,8.366806)" d="M2.8892 0-1.73352 2.31136 0 0-1.73352-2.31136" fill="#0000ff"/>
<path transform="matrix(1.00003,0,0,-1.00006,2.4406586,166.5352)" stroke-width=".99628" stroke-linecap="butt" stroke-miterlimit="10" stroke-linejoin="miter" fill="none" stroke="#0000ff" d="M76.91359 3.81181 77.04292 9.50882 77.23776 16.8083 77.4326 23.10484 77.62746 28.59474 77.8223 33.40887 78.01714 37.68024 78.21196 41.49161 78.40681 44.92111 78.60165 48.01863 78.7965 50.8316 78.99135 53.40121 79.18619 55.75662 79.38101 57.9216 79.57585 59.92325 79.7707 61.77815 79.96555 63.50203 80.16039 65.11263 80.35524 66.61537 80.55008 68.02644 80.74492 69.35214 80.93974 70.5996 81.1346 71.77745 81.32944 72.8919 81.52428 73.94614 81.71913 74.94762 81.91397 75.90097 82.10881 76.80836 82.30363 77.6736 82.49849 78.499 82.69333 79.28804 82.88817 80.04611 83.08301 80.77065 83.27786 81.46626 83.4727 82.13669 83.66753 82.78082 83.86238 83.40202 84.05722 84.00067 84.25206 84.5791 84.4469 85.13689 84.64175 85.67725 84.8366 86.20033 85.03142 86.7071 85.22627 87.19872 85.42111 87.67583 85.61595 88.1387 85.81079 88.58867 86.00565 89.02687 86.20047 89.45343 86.39531 89.86871 86.59016 90.27348 86.785 90.66925 86.97984 91.05513 87.17468 91.43216 87.36954 91.8011 87.56436 92.16135 87.7592 92.51384 87.95406 92.85954 88.1489 93.19815 88.34373 93.53015 88.53857 93.85568 88.73343 94.17508 88.92825 94.48885 89.1231 94.79742 89.31793 95.10052 89.51279 95.39879 89.70763 95.6922 89.90247 95.98128 90.09732 96.26614 90.29214 96.54665 90.48698 96.82327 90.68182 97.09605 90.87668 97.36508 91.07152 97.63123 91.26636 97.89381 91.46121 98.15335 91.65604 98.40997 91.85088 98.6637 92.04572 98.91515 92.24057 99.16353 92.43541 99.40965 92.63025 99.65384 92.8251 99.89578 93.01993 100.13513 93.21477 100.3735 93.4096 100.60947 93.60446 100.84383 93.7993 101.07655 93.99414 101.30783 94.18898 101.53734 94.38382 101.76588 94.57866 101.99344 94.7735 102.2199 94.96835 102.44472 95.1632 102.66873 95.35803 102.89244 95.55287 103.11497 95.74771 103.33734 95.94255 103.55846 96.13739 103.77911 96.33224 103.9999 96.5271 104.22006 96.72191 104.44002 96.91676 104.65953 97.1116 104.87904 97.30644 105.09859 97.5013 105.31804 97.69614 105.5379 97.89098 105.75792 98.0858 105.97845 98.28065 106.19928 98.47551 106.42047 98.67033 106.64232 98.86517 106.86472 99.06001 107.08792 99.25487 107.31195 99.4497 107.53676 99.64453 107.76288 99.8394 107.98996 100.03421 108.21819 100.22906 108.44753 100.42392 108.6785 100.61874 108.91058 100.8136 109.14444 101.00842 109.38008 101.20328 109.61783 101.39813 109.857 101.59296 110.0983 101.7878 110.34135 101.98264 110.58731 102.17749 110.83507 102.37233 111.08588 102.56717 111.33878 102.76201 111.5946 102.95683 111.85364 103.15169 112.11525 103.34654 112.38075 103.54137 112.64883 103.73622 112.92079 103.93105 113.19612 104.1259 113.47583 104.32076 113.7594 104.51556 114.04718 104.71043 114.3393 104.90526 114.6366 105.1001 114.93808 105.29497 115.24538 105.48979 115.55785 105.68463 115.87563 105.87946 116.19987 106.07433 116.52994 106.26917 116.86725 106.46399 117.21039 106.65884 117.56126 106.85367 117.91989 107.04852 118.28609 107.24338 118.66133 107.4382 119.04465 107.63306 119.43733 107.82788 119.84001 108.02272 120.25221 108.21759 120.67606 108.4124 121.11148 108.60725 121.55856 108.8021 122.01807 108.99693 122.49095 109.19179 122.979 109.38661 123.4816 109.58147 124 109.77629 124.5355 109.97115 125.08911 110.166 125.66191 110.36082 126.2552 110.55568 126.87044 110.75049 127.50764 110.94536 128.17066 111.14021 128.86093 111.33502 129.57787 111.52989 130.32593 111.72472 131.10791 111.91956 131.92311 112.11441 132.77883 112.30925 133.67362 112.50409 134.61489 112.69891 135.60346 112.89377 136.64316 113.08862 137.74146 113.28345 138.90222 113.4783 140.13175 113.67313 141.43532 113.86798 142.823 114.06282 144.30239 114.25764 145.88179 114.45251 147.57534 114.64732 149.39524 114.84218 151.35749 115.03705 153.47841 115.23186 155.78105 115.42671 158.29206 115.41696 158.15459"/>
<path transform="matrix(-.022670683,.99976,.99973008,.02267136,79.35657,162.72315)" d="M2.8892 0-1.73352 2.31136 0 0-1.73352-2.31136" fill="#0000ff"/>
<path transform="matrix(.07082213,-.9975098,-.99748,-.07082424,117.86107,8.371155)" d="M2.8892 0-1.73352 2.31136 0 0-1.73352-2.31136" fill="#0000ff"/>
<path transform="matrix(1.00003,0,0,-1.00006,2.4406586,166.5352)" stroke-width=".99628" stroke-linecap="butt" stroke-miterlimit="10" stroke-linejoin="miter" fill="none" stroke="#0000ff" d="M121.90202 3.81181 122.03136 9.50882 122.2262 16.81313 122.42104 23.10905 122.61588 28.59474 122.81073 33.40742 123.00557 37.68024 123.20041 41.49419 123.39525 44.92111 123.59009 48.01863 123.78493 50.8353 123.97977 53.40121 124.17462 55.75662 124.36946 57.9216 124.56429 59.92325 124.75914 61.77815 124.95398 63.50334 125.14882 65.11263 125.34366 66.61537 125.53851 68.02855 125.73335 69.35214 125.92818 70.60023 126.12302 71.77745 126.31787 72.8911 126.51271 73.94646 126.70755 74.94762 126.9024 75.90097 127.09724 76.80737 127.29207 77.6736 127.48691 78.499 127.68176 79.28804 127.8766 80.04501 128.07144 80.7708 128.2663 81.46626 128.46114 82.13669 128.65596 82.78162 128.8508 83.4017 129.04566 84.00067 129.2405 84.57861 129.43534 85.13689 129.63019 85.67725 129.82503 86.20016 130.01985 86.7071 130.21469 87.19826 130.40955 87.67534 130.60439 88.1387 130.79923 88.58867 130.99407 89.02687 131.18892 89.45343 131.38375 89.86871 131.57859 90.2738 131.77344 90.66925 131.96828 91.05513 132.16312 91.43216 132.35796 91.80077 132.5528 92.16118 132.74764 92.51399 132.94248 92.85954 133.13733 93.19815 133.33217 93.52983 133.52701 93.85568 133.72185 94.17558 133.91669 94.48885 134.11153 94.79774 134.30637 95.10085 134.50122 95.39879 134.69606 95.69237 134.8909 95.98158 135.08574 96.26614 135.28058 96.54665 135.47542 96.82327 135.67026 97.09587 135.86511 97.36525 136.05995 97.63123 136.25479 97.89381 136.44963 98.15335 136.64449 98.41046 136.83931 98.6637 137.03415 98.91515 137.22899 99.16353 137.42385 99.40965 137.61869 99.65384 137.81352 99.89578 138.00838 100.13513 138.2032 100.37335 138.39804 100.60947 138.59288 100.84383 138.78774 101.07655 138.98258 101.30783 139.17742 101.53767 139.37226 101.76588 139.5671 101.99329 139.76194 102.21957 139.95677 102.44489 140.15163 102.66922 140.34647 102.89244 140.5413 103.11497 140.73615 103.33734 140.93099 103.55846 141.12583 103.77911 141.32067 103.9999 141.51554 104.22006 141.71035 104.44002 141.9052 104.65953 142.10004 104.87904 142.29488 105.09859 142.48973 105.31804 142.68456 105.5379 142.87941 105.75792 143.07424 105.97862 143.26909 106.19928 143.46393 106.42015 143.65877 106.64183 143.8536 106.86472 144.04843 107.08792 144.2433 107.31195 144.43814 107.53676 144.63297 107.76288 144.82782 107.98996 145.02265 108.21803 145.2175 108.44753 145.41236 108.6785 145.60718 108.91058 145.80204 109.14444 145.99686 109.38008 146.1917 109.6175 146.38657 109.85716 146.58139 110.0983 146.77623 110.34167 146.97107 110.58731 147.16593 110.83507 147.36077 111.08588 147.55559 111.33878 147.75046 111.5946 147.94527 111.85364 148.14012 112.11525 148.33499 112.38043 148.5298 112.64836 148.72466 112.92062 148.91948 113.19582 149.11434 113.47568 149.30919 113.7594 149.504 114.04701 149.69886 114.3393 149.89369 114.6366 150.08853 114.93808 150.28339 115.24506 150.47823 115.55785 150.67307 115.87563 150.86789 116.19987 151.06275 116.5301 151.2576 116.86676 151.45243 117.21039 151.64728 117.56126 151.8421 117.91957 152.03696 118.28625 152.23181 118.66118 152.42662 119.04465 152.62149 119.43765 152.81632 119.84001 153.01116 120.25221 153.20603 120.67606 153.40084 121.11102 153.59569 121.55824 153.79051 122.01775 153.98538 122.49095 154.18022 122.979 154.37505 123.4816 154.5699 124 154.76473 124.5355 154.95958 125.08911 155.15442 125.66206 155.34926 126.25568 155.54412 126.86963 155.73892 127.50797 155.93378 128.17066 156.12865 128.86029 156.32346 129.57738 156.51831 130.32627 156.71315 131.10791 156.90799 131.92311 157.10285 132.77835 157.29767 133.67362 157.49253 134.61425 157.68735 135.60199 157.8822 136.64316 158.07706 137.74146 158.27188 138.90077 158.46674 140.13175 158.66155 141.43532 158.85642 142.82205 159.05126 144.30139 159.24608 145.88179 159.44095 147.57389 159.63576 149.39524 159.83061 151.35459 160.02547 153.48163 160.22029 155.7828 160.41515 158.29091 160.4055 158.15454"/>
<path transform="matrix(-.022670683,.99976,.99973008,.02267136,124.34636,162.72315)" d="M2.8892 0-1.73352 2.31136 0 0-1.73352-2.31136" fill="#0000ff"/>
<path transform="matrix(.07077213,-.9975298,-.9975,-.07077425,162.85099,8.371185)" d="M2.8892 0-1.73352 2.31136 0 0-1.73352-2.31136" fill="#0000ff"/>
<path transform="matrix(1.00003,0,0,-1.00006,2.4406586,166.5352)" stroke-width=".99628" stroke-linecap="butt" stroke-miterlimit="10" stroke-linejoin="miter" fill="none" stroke="#0000ff" d="M166.88803 3.81845 166.9269 5.59445 167.02884 9.87262 167.1308 13.80551 167.23274 17.43562 167.33469 20.80171 167.43665 23.91893 167.53859 26.82487 167.64055 29.53166 167.7425 32.06895 167.84444 34.45068 167.9464 36.68376 168.04834 38.78625 168.1503 40.7716 168.25226 42.64897 168.3542 44.42741 168.45616 46.1124 168.5581 47.70892 168.66005 49.22539 168.76201 50.67747 168.86396 52.05486 168.9659 53.37134 169.06786 54.62944 169.1698 55.83409 169.27176 56.98744 169.3737 58.09024 169.47565 59.15175 169.5776 60.16695 169.67955 61.14565 169.78151 62.0882 169.88346 62.99266 169.9854 63.86903 170.08736 64.70863 170.1893 65.52335 170.29125 66.30952 170.3932 67.06903 170.49515 67.80292 170.5971 68.51323 170.69905 69.20126 170.801 69.86896 170.90296 70.51439 171.0049 71.14188 171.10684 71.75197 171.2088 72.34186 171.31075 72.91643 171.4127 73.47566 171.51467 74.01831 171.61661 74.54639 171.71857 75.06075 171.82051 75.56319 171.92247 76.05157 172.02442 76.52768 172.12636 76.9925 172.22832 77.44522 172.33026 77.88695 172.4322 78.31918 172.53417 78.74124 172.63611 79.15279 172.73807 79.55548 172.84001 79.94995 172.94196 80.33583 173.04392 80.71269 173.14586 81.08086 173.2478 81.44284 173.34976 81.79677 173.4517 82.14381 173.55367 82.48434 173.65561 82.8173 173.75756 83.14444 173.85951 83.46498 173.96146 83.78003 174.0634 84.0891 174.16536 84.39268 174.2673 84.6908 174.36927 84.9831 174.4712 85.27101 174.57315 85.55315 174.67511 85.83073 174.77707 86.1043 174.87903 86.37288 174.98097 86.63722 175.08292 86.89708 175.18488 87.1529 175.28682 87.40468 175.38877 87.6529 175.49073 87.8971 175.59267 88.13805 175.69463 88.37515 175.79657 88.60884 175.89852 88.83916 176.00048 89.06656 176.10242 89.29106 176.20436 89.5117 176.30632 89.72975 176.40827 89.9444 176.51023 90.15697 176.61217 90.36647 176.71411 90.57288 176.81607 90.77753 176.91802 90.97913 177.01998 91.17844 177.12192 91.37552 177.22386 91.56999 177.32582 91.76237 177.42777 91.95233 177.52971 92.13988 177.63167 92.32613 177.73361 92.50932 177.83557 92.69153 177.93752 92.87083 178.03948 93.0487 178.14144 93.22528 178.24338 93.3991 178.34534 93.57146 178.44727 93.74222 178.54923 93.91168 178.65119 94.07906 178.75313 94.24449 178.85509 94.4088 178.95702 94.57132 179.05898 94.73318 179.16094 94.89297 179.26288 95.0513 179.36483 95.20851 179.46677 95.36394 179.56873 95.51872 179.67069 95.6717 179.77263 95.82358 179.87458 95.97432 179.97652 96.1238 180.07848 96.2721 180.18044 96.41962 180.28237 96.56535 180.38433 96.71046 180.48627 96.85475 180.58823 96.99791 180.69019 97.13994 180.79212 97.28082 180.89408 97.42076 180.99602 97.56038 181.09798 97.69853 181.19994 97.83588 181.30188 97.97209 181.40384 98.108 181.50579 98.24277 181.60774 98.37753 181.7097 98.51051 181.81163 98.64302 181.91359 98.77455 182.01554 98.90593 182.1175 99.03633 182.21944 99.16628 182.32138 99.29506 182.42334 99.42386 182.52529 99.552 182.62723 99.67886 182.72919 99.80556 182.83113 99.93193 182.93309 100.057 183.03504 100.1821 183.13698 100.307 183.23894 100.43098 183.34088 100.55412 183.44284 100.67741 183.54479 100.79976 183.64673 100.92226 183.74869 101.04381 183.85063 101.165 183.95259 101.28572 184.05452 101.40646 184.15648 101.52652 184.25844 101.64629 184.36038 101.76572 184.46233 101.88483 184.56429 102.00362 184.66625 102.12225 184.7682 102.24055 184.87015 102.35822 184.9721 102.47586 185.07404 102.5932 185.176 102.7102 185.27796 102.82722 185.3799 102.94408 185.48184 103.06029 185.58379 103.1768 185.68575 103.29282 185.7877 103.40901 185.88964 103.52466 185.9916 103.64058 186.09354 103.75586 186.1955 103.8714 186.29746 103.98677 186.39939 104.10172 186.50135 104.21715 186.60329 104.33218 186.70525 104.44743 186.8072 104.56215 186.90914 104.67679 187.0111 104.79189 185.19594 102.74551"/>
<path transform="matrix(-.021840657,.99977,.99974009,.02184131,169.33373,162.7165)" d="M2.8892 0-1.73352 2.31136 0 0-1.73352-2.31136" fill="#0000ff"/>
<path transform="matrix(.6635599,-.7481049,-.74808248,-.6635798,187.64215,63.78354)" d="M2.8892 0-1.73352 2.31136 0 0-1.73352-2.31136" fill="#0000ff"/>
<path transform="matrix(1.00003,0,0,-1.00006,2.4406586,166.5352)" stroke-width=".3985" stroke-linecap="butt" stroke-dasharray="2.98883,2.98883" stroke-miterlimit="10" stroke-linejoin="miter" fill="none" stroke="#ff0000" d="M29.65434 0V161.39636"/>
<path transform="matrix(1.00003,0,0,-1.00006,2.4406586,166.5352)" stroke-width=".3985" stroke-linecap="butt" stroke-dasharray="2.98883,2.98883" stroke-miterlimit="10" stroke-linejoin="miter" fill="none" stroke="#ff0000" d="M74.64278 0V161.39636"/>
<path transform="matrix(1.00003,0,0,-1.00006,2.4406586,166.5352)" stroke-width=".3985" stroke-linecap="butt" stroke-dasharray="2.98883,2.98883" stroke-miterlimit="10" stroke-linejoin="miter" fill="none" stroke="#ff0000" d="M119.6312 0V161.39636"/>
<path transform="matrix(1.00003,0,0,-1.00006,2.4406586,166.5352)" stroke-width=".3985" stroke-linecap="butt" stroke-dasharray="2.98883,2.98883" stroke-miterlimit="10" stroke-linejoin="miter" fill="none" stroke="#ff0000" d="M164.61963 0V161.39636"/>
<use data-text="x" xlink:href="#font_3_2" transform="matrix(9.962899,0,0,-9.963197,187.50621,82.31215)"/>
<use data-text="y" xlink:href="#font_3_3" transform="matrix(9.962899,0,0,-9.963197,103.10068,12.93898)"/>
</svg>
