<svg xmlns="http://www.w3.org/2000/svg" xmlns:xlink="http://www.w3.org/1999/xlink" xmlns:inkscape="http://www.inkscape.org/namespaces/inkscape" version="1.1" width="207" height="171" viewBox="0 0 207 171">
<defs>
<path id="font_1_1" d="M.6589966 .23046875C.6759949 .23046875 .69400027 .23046875 .69400027 .25045777 .69400027 .27046205 .6759949 .27046205 .6589966 .27046205H.117996219C.100997928 .27046205 .08299255 .27046205 .08299255 .25045777 .08299255 .23046875 .100997928 .23046875 .117996219 .23046875H.6589966Z"/>
<path id="font_2_3" d="M.1269989 .07699585 .23298645 .18003845C.3889923 .31811524 .44898988 .3721466 .44898988 .47216798 .44898988 .5860901 .35899354 .6660156 .23699951 .6660156 .12399292 .6660156 .049987794 .57411196 .049987794 .48516847 .049987794 .4291687 .099990848 .4291687 .102996829 .4291687 .11999512 .4291687 .15499878 .44117738 .15499878 .48217774 .15499878 .5081787 .13699341 .5341797 .101989749 .5341797 .09399414 .5341797 .09199524 .5341797 .08898926 .5331726 .11199951 .59806826 .1659851 .63500979 .22399903 .63500979 .31498719 .63500979 .35798646 .5541382 .35798646 .47216798 .35798646 .39215089 .30799867 .31311036 .25299073 .25108338L.06098938 .036987306C.049987794 .025985718 .049987794 .023986817 .049987794 0H.42099L.44898988 .17404175H.42399598C.4189911 .14402771 .4119873 .1000061 .4019928 .084991458 .394989 .07699585 .32899476 .07699585 .30699159 .07699585H.1269989Z"/>
<path id="font_3_1" d="M.2649994 .37265016H.37799073C.34498597 .22489929 .33599855 .18196106 .33599855 .11508179 .33599855 .100097659 .33599855 .073150638 .34399415 .03919983 .35398866-.0047454836 .36499024-.0107421879 .37998963-.0107421879 .3999939-.0107421879 .42099 .007247925 .42099 .02722168 .42099 .033218385 .42099 .035202028 .4149933 .049179079 .38598634 .12106323 .38598634 .18595886 .38598634 .21391297 .38598634 .26683045 .3929901 .32073976 .4039917 .37265016H.5179901C.5309906 .37265016 .5669861 .37265016 .5669861 .406662 .5669861 .43066407 .54599 .43066407 .5269928 .43066407H.19198609C.16999817 .43066407 .13198853 .43066407 .08799744 .38365174 .052993776 .34469605 .026992798 .29878236 .026992798 .29379273 .026992798 .29278565 .026992798 .28379823 .038986207 .28379823 .04699707 .28379823 .04899597 .28779603 .054992677 .29577638 .10398865 .37265016 .1619873 .37265016 .18199158 .37265016H.23899842C.20698548 .25186158 .15299988 .13105774 .11099243 .04020691 .102996829 .025222779 .102996829 .023223877 .102996829 .016235352 .102996829-.002746582 .11898804-.0107421879 .13198853-.0107421879 .1619873-.0107421879 .16999817 .017242432 .18199158 .05418396 .19599915 .100097659 .19599915 .10209656 .20899964 .15202332L.2649994 .37265016Z"/>
<path id="font_4_2" d="M.272995 .33428956C.35099793 .33428956 .40699769 .2803192 .40699769 .1733551 .40699769 .04940796 .33499146 .012466431 .2769928 .012466431 .23699951 .012466431 .14898682 .0234375 .10699463 .082351688 .1539917 .084350589 .16499329 .11735535 .16499329 .13835144 .16499329 .17034912 .14099121 .19335938 .10998535 .19335938 .08198547 .19335938 .053985597 .17634583 .053985597 .13534546 .053985597 .041412355 .1579895-.01953125 .2789917-.01953125 .41799928-.01953125 .5139923 .07336426 .5139923 .1733551 .5139923 .2513275 .44999696 .32929994 .33999635 .35229493 .44499208 .39024354 .48298646 .4650879 .48298646 .5260773 .48298646 .60505679 .3919983 .6640625 .2809906 .6640625 .16999817 .6640625 .084991458 .61006167 .084991458 .5300751 .084991458 .49606324 .10699463 .47706605 .13699341 .47706605 .16799927 .47706605 .18798828 .5000763 .18798828 .5280762 .18798828 .5570679 .16799927 .57806399 .13699341 .5800781 .17199707 .62405398 .24099732 .63505557 .27799989 .63505557 .32299806 .63505557 .38598634 .6130676 .38598634 .5260773 .38598634 .48406983 .37199403 .43814088 .34599305 .4072113 .31298829 .36927796 .2849884 .3672943 .23498535 .36428834 .20999146 .3623047 .20799256 .3623047 .20298767 .3612976 .20098877 .3612976 .19299317 .3592987 .19299317 .34829713 .19299317 .33428956 .20199585 .33428956 .21899414 .33428956H.272995Z"/>
<path id="font_5_1" d="M.31098939 .36265565H.42999269C.4149933 .30274964 .3929901 .2118988 .3929901 .13302613 .3929901 .09309387 .397995 .06613159 .4039917 .044174196 .41999818-.0057678224 .43299867-.009765625 .44898988-.009765625 .47200013-.009765625 .49598695 .011230469 .49598695 .035186769 .49598695 .043182374 .49398805 .047164918 .48799134 .057159425 .46899415 .09408569 .45098878 .15100098 .45098878 .23286438 .45098878 .25183106 .45098878 .29177857 .46499635 .36265565H.58999636C.60798647 .36265565 .6159973 .36265565 .6269989 .37065126 .6409912 .380661 .6439972 .39665223 .6439972 .4016571 .6439972 .43066407 .6179962 .43066407 .6009979 .43066407H.22399903C.18299866 .43066407 .15499878 .42166139 .10998535 .37965394 .083999637 .35665895 .04499817 .30274964 .04499817 .2937622 .04499817 .28178407 .057998659 .28178407 .06199646 .28178407 .07299805 .28178407 .07398987 .28378297 .07998657 .2927704 .1309967 .36265565 .19299317 .36265565 .21499634 .36265565H.27598573C.24499512 .25283814 .19099427 .13502503 .16099549 .07511902 .15499878 .062149049 .14498902 .04118347 .14199829 .03718567 .14099121 .033187868 .13899231 .029190064 .13899231 .022201539 .13899231 .006225586 .15098572-.009765625 .17399597-.009765625 .21398926-.009765625 .22499085 .035186769 .24899292 .12504578L.31098939 .36265565Z"/>
<path id="font_4_1" d="M.5049896 .18203736H.47099305C.46798707 .16001892 .45799256 .100997928 .44499208 .09098816 .43699647 .084991458 .3600006 .084991458 .34599305 .084991458H.1619873C.2669983 .17803955 .3019867 .20603943 .3619995 .25306703 .43598939 .312088 .5049896 .374115 .5049896 .46914674 .5049896 .5900879 .39898683 .6640625 .2709961 .6640625 .14698792 .6640625 .06298828 .57710269 .06298828 .4851532 .06298828 .43414308 .10598755 .42915345 .115997318 .42915345 .13999939 .42915345 .16899109 .44615174 .16899109 .48214723 .16899109 .5001526 .1619873 .53515627 .10998535 .53515627 .14099121 .6060791 .20899964 .62805178 .2559967 .62805178 .35598756 .62805178 .4079895 .5501404 .4079895 .46914674 .4079895 .38212586 .34599305 .3130951 .31399537 .27708436L.07299805 .038986207C.06298828 .02999878 .06298828 .027999878 .06298828 0H.47499085L.5049896 .18203736Z"/>
<path id="font_2_2" d="M.2939911 .64004519C.2939911 .66400149 .2939911 .6660156 .2709961 .6660156 .20899964 .60227969 .12098694 .60227969 .08898926 .60227969V.57128909C.10899353 .57128909 .16799927 .57128909 .21998596 .5972748V.07902527C.21998596 .042999269 .21699524 .0309906 .1269989 .0309906H.09498596V0C.12998963 .0029907227 .21699524 .0029907227 .25698854 .0029907227 .29699708 .0029907227 .38398744 .0029907227 .4189911 0V.0309906H.3869934C.29699708 .0309906 .2939911 .041992189 .2939911 .07902527V.64004519Z"/>
<path id="font_2_1" d="M.45999146 .31976319C.45999146 .39982606 .45498658 .47988893 .41999818 .5539398 .37399293 .65000918 .2919922 .6660156 .25 .6660156 .18998719 .6660156 .116989139 .64001467 .07598877 .54693606 .04399109 .47789 .038986207 .39982606 .038986207 .31976319 .038986207 .24472046 .042999269 .15464783 .083999637 .07859802 .1269989-.0024719239 .19999695-.022460938 .24899292-.022460938 .30299378-.022460938 .3789978-.0014648438 .4229889 .09359741 .45498658 .16265869 .45999146 .2407074 .45999146 .31976319M.24899292-.00047302247C.20999146-.00047302247 .15098572 .024551392 .1329956 .12062073 .12199402 .18066406 .12199402 .2727356 .12199402 .3317871 .12199402 .39582826 .12199402 .46188355 .12998963 .5159149 .14898682 .63500979 .22399903 .64401248 .24899292 .64401248 .28199769 .64401248 .34799195 .6259918 .36698915 .52693179 .3769989 .47088624 .3769989 .39482118 .3769989 .3317871 .3769989 .25672914 .3769989 .18867493 .3659973 .12461853 .35099793 .029556275 .2939911-.00047302247 .24899292-.00047302247Z"/>
<path id="font_2_4" d="M.44898988 .20022583C.44898988 .3193512 .36698915 .41944886 .25898744 .41944886 .21099854 .41944886 .16799927 .40345765 .13198853 .36842347V.5637665C.1519928 .5577698 .18499756 .55078127 .21699524 .55078127 .33999635 .55078127 .4099884 .6417694 .4099884 .6547699 .4099884 .6607666 .40699769 .6657715 .3999939 .6657715 .39898683 .6657715 .39698792 .6657715 .3919983 .66278079 .37199403 .6537781 .32299806 .6337738 .2559967 .6337738 .21598816 .6337738 .16999817 .6407776 .12298584 .6617737 .114990238 .66477969 .11299133 .66477969 .11099243 .66477969 .100997928 .66477969 .100997928 .6567688 .100997928 .6407776V.34439088C.100997928 .32637025 .100997928 .31835938 .114990238 .31835938 .12199402 .31835938 .12399292 .32136537 .12799073 .32736207 .13899231 .3433838 .17599488 .39746095 .25698854 .39746095 .30899049 .39746095 .33399964 .35139466 .34199525 .33337403 .35798646 .29632569 .3600006 .25727845 .3600006 .20722962 .3600006 .17222595 .3600006 .11222839 .33599855 .07035828 .31199647 .031463624 .2749939 .0055389406 .22898865 .0055389406 .1559906 .0055389406 .09899902 .058380128 .08198547 .11723328 .084991458 .1162262 .08799744 .115234378 .09899902 .115234378 .13198853 .115234378 .14898682 .14022827 .14898682 .16423035 .14898682 .18823242 .13198853 .21322632 .09899902 .21322632 .084991458 .21322632 .049987794 .20622254 .049987794 .16023255 .049987794 .07434082 .11898804-.022460938 .23098755-.022460938 .34700013-.022460938 .44898988 .073349 .44898988 .20022583Z"/>
<path id="font_3_2" d="M.33399964 .30233766C.33999635 .32835389 .36299134 .42037965 .43299867 .42037965 .43798829 .42037965 .46199037 .42037965 .48298646 .40734864 .45498658 .402359 .43499757 .37734986 .43499757 .35334779 .43499757 .33735658 .44599916 .31835938 .47299195 .31835938 .49499513 .31835938 .5269928 .3363495 .5269928 .37635804 .5269928 .42837525 .46798707 .4423828 .43399049 .4423828 .37599183 .4423828 .34098817 .38935853 .32899476 .36634828 .3039856 .43237306 .25 .4423828 .22099304 .4423828 .116989139 .4423828 .05999756 .3133545 .05999756 .28834535 .05999756 .27833558 .069992069 .27833558 .07199097 .27833558 .07998657 .27833558 .08299255 .28033448 .084991458 .28933717 .11898804 .39535523 .18499756 .42037965 .21899414 .42037965 .23799134 .42037965 .272995 .4113617 .272995 .35334779 .272995 .32235719 .2559967 .25532533 .21899414 .11528015 .20298767 .053268434 .16799927 .011245728 .12399292 .011245728 .117996219 .011245728 .09498596 .011245728 .07398987 .024276734 .09899902 .029266358 .12098694 .05027771 .12098694 .07827759 .12098694 .105270389 .09899902 .11328125 .083999637 .11328125 .053985597 .11328125 .0289917 .08728027 .0289917 .055267335 .0289917 .009246826 .07899475-.0107421879 .12298584-.0107421879 .18899536-.0107421879 .22499085 .059280397 .22799683 .0652771 .23999024 .028274537 .27598573-.0107421879 .33599855-.0107421879 .43899537-.0107421879 .49598695 .118270877 .49598695 .14328003 .49598695 .1532898 .4869995 .1532898 .48399354 .1532898 .47499085 .1532898 .47299195 .14929199 .47099305 .14228821 .43798829 .03527832 .36999513 .011245728 .33799745 .011245728 .29899598 .011245728 .2829895 .043273927 .2829895 .07727051 .2829895 .09927368 .2889862 .121276859 .2999878 .16529846L.33399964 .30233766Z"/>
<path id="font_3_3" d="M.48599244 .38136292C.48999024 .39537049 .48999024 .39736939 .48999024 .40437318 .48999024 .42237855 .47599793 .43138124 .46099855 .43138124 .45098878 .43138124 .43499757 .42536927 .42599488 .41036988 .42399598 .405365 .41600038 .37435914 .4119873 .35635377 .40499879 .33035279 .397995 .30334474 .3919983 .27633668L.34700013 .09628296C.34298707 .08126831 .2999878 .011245728 .23399353 .011245728 .18299866 .011245728 .17199707 .055267335 .17199707 .0922699 .17199707 .1382904 .18899536 .20030213 .22299195 .28833009 .23899842 .3293457 .24299622 .3403473 .24299622 .36035157 .24299622 .405365 .21099854 .4423828 .16099549 .4423828 .06599426 .4423828 .0289917 .29733277 .0289917 .28833009 .0289917 .27833558 .038986207 .27833558 .040985109 .27833558 .050994874 .27833558 .051986696 .28033448 .056991579 .29634095 .083999637 .3903656 .12399292 .42037965 .1579895 .42037965 .1659851 .42037965 .18299866 .42037965 .18299866 .3883667 .18299866 .36335755 .17298889 .3373413 .1659851 .31834413 .12599182 .21231079 .10798645 .1552887 .10798645 .10827637 .10798645 .019256592 .17098999-.0107421879 .22999573-.0107421879 .2689972-.0107421879 .30299378 .0062561037 .33099366 .03425598 .31799317-.017745972 .30599977-.06674194 .2659912-.11973572 .23999024-.15385437 .20199585-.18309021 .1559906-.18309021 .14199829-.18309021 .09700012-.18005371 .07998657-.14074707 .09599304-.14074707 .10899353-.14074707 .12298584-.1287384 .1329956-.11973572 .14299011-.10673523 .14299011-.08773804 .14299011-.056747438 .115997318-.052734376 .10598755-.052734376 .08299255-.052734376 .049987794-.068740848 .049987794-.11773682 .049987794-.16796875 .09399414-.20507813 .1559906-.20507813 .25898744-.20507813 .3619995-.11373901 .3899994-.00074768069L.48599244 .38136292Z"/>
</defs>
<path transform="matrix(1.00005,0,0,-1.00006,8.079704,166.5352)" stroke-width=".19925" stroke-linecap="butt" stroke-miterlimit="10" stroke-linejoin="miter" fill="none" stroke="#7f807f" d="M1.52171 79.28084V82.1155M13.47325 79.28084V82.1155M25.42479 79.28084V82.1155M37.37634 79.28084V82.1155M49.32788 79.28084V82.1155M61.27942 79.28084V82.1155M73.23096 79.28084V82.1155M85.18251 79.28084V82.1155M97.13405 79.28084V82.1155M109.0856 79.28084V82.1155M121.03714 79.28084V82.1155M132.9887 79.28084V82.1155M144.94023 79.28084V82.1155M156.89179 79.28084V82.1155M168.84334 79.28084V82.1155M180.79488 79.28084V82.1155M192.74643 79.28084V82.1155"/>
<path transform="matrix(1.00005,0,0,-1.00006,8.079704,166.5352)" stroke-width=".19925" stroke-linecap="butt" stroke-miterlimit="10" stroke-linejoin="miter" fill="none" stroke="#7f807f" d="M1.52171 78.57237V82.82396M25.42479 78.57237V82.82396M49.32788 78.57237V82.82396M73.23096 78.57237V82.82396M121.03714 78.57237V82.82396M144.94023 78.57237V82.82396M168.84334 78.57237V82.82396M192.74643 78.57237V82.82396"/>
<path transform="matrix(1.00005,0,0,-1.00006,8.079704,166.5352)" stroke-width=".19925" stroke-linecap="butt" stroke-miterlimit="10" stroke-linejoin="miter" fill="none" stroke="#7f807f" d="M95.00816 0H99.25996M95.00816 40.34909H99.25996M95.00816 121.04727H99.25996M95.00816 161.39636H99.25996"/>
<path transform="matrix(1.00005,0,0,-1.00006,8.079704,166.5352)" stroke-width=".3985" stroke-linecap="butt" stroke-miterlimit="10" stroke-linejoin="miter" fill="none" stroke="#000000" d="M0 80.69818H192.2756"/>
<path transform="matrix(1.00005,0,0,-1.00006,200.3649,85.832187)" d="M1.99252 0-1.19551 1.59401 0 0-1.19551-1.59401"/>
<path transform="matrix(1.00005,0,0,-1.00006,8.079704,166.5352)" stroke-width=".3985" stroke-linecap="butt" stroke-miterlimit="10" stroke-linejoin="miter" fill="none" stroke="#000000" d="M97.13405 0V159.40384"/>
<path transform="matrix(0,-1.00006,-1.00005,-0,105.218608,7.121811)" d="M1.99252 0-1.19551 1.59401 0 0-1.19551-1.59401"/>
<use data-text="&#x2212;" xlink:href="#font_1_1" transform="matrix(9.963098,0,0,-9.963197,.21730805,97.899089)"/>
<use data-text="2" xlink:href="#font_2_3" transform="matrix(9.963098,0,0,-9.963197,7.9666979,97.899089)"/>
<use data-text="&#x03c0;" xlink:href="#font_3_1" transform="matrix(9.963098,0,0,-9.963197,12.947945,97.899089)"/>
<use data-text="&#x2212;" xlink:href="#font_1_1" transform="matrix(9.963098,0,0,-9.963197,23.995499,99.8952)"/>
<use data-text="3" xlink:href="#font_4_2" transform="matrix(6.9741489,0,0,-6.9742186,32.93995,95.97197)"/>
<use data-text="&#x03c0;" xlink:href="#font_5_1" transform="matrix(6.9741489,0,0,-6.9742186,36.911149,95.97197)"/>
<path transform="matrix(1.00005,0,0,-1.00006,-81.27076,-46.703584)" stroke-width=".3985" stroke-linecap="butt" stroke-miterlimit="10" stroke-linejoin="miter" fill="none" stroke="#000000" d="M114.205-144.099H123.085"/>
<use data-text="2" xlink:href="#font_4_1" transform="matrix(6.9741489,0,0,-6.9742186,35.395074,103.330417)"/>
<use data-text="&#x2212;" xlink:href="#font_1_1" transform="matrix(9.963098,0,0,-9.963197,50.516828,97.290058)"/>
<use data-text="&#x03c0;" xlink:href="#font_3_1" transform="matrix(9.963098,0,0,-9.963197,58.266218,97.290058)"/>
<use data-text="&#x2212;" xlink:href="#font_1_1" transform="matrix(9.963098,0,0,-9.963197,73.78899,98.40412)"/>
<use data-text="&#x03c0;" xlink:href="#font_5_1" transform="matrix(6.9741489,0,0,-6.9742186,82.73344,94.48089)"/>
<path transform="matrix(1.00005,0,0,-1.00006,-31.477272,-48.194665)" stroke-width=".3985" stroke-linecap="butt" stroke-miterlimit="10" stroke-linejoin="miter" fill="none" stroke="#000000" d="M114.205-144.099H119.114"/>
<use data-text="2" xlink:href="#font_4_1" transform="matrix(6.9741489,0,0,-6.9742186,83.20246,101.83933)"/>
<use data-text="&#x03c0;" xlink:href="#font_5_1" transform="matrix(6.9741489,0,0,-6.9742186,126.66763,94.4809)"/>
<path transform="matrix(1.00005,0,0,-1.00006,20.206315,-48.194665)" stroke-width=".3985" stroke-linecap="butt" stroke-miterlimit="10" stroke-linejoin="miter" fill="none" stroke="#000000" d="M106.456-144.099H111.365"/>
<use data-text="2" xlink:href="#font_4_1" transform="matrix(6.9741489,0,0,-6.9742186,127.13666,101.83933)"/>
<use data-text="&#x03c0;" xlink:href="#font_3_1" transform="matrix(9.963098,0,0,-9.963197,150.00879,95.76796)"/>
<use data-text="3" xlink:href="#font_4_2" transform="matrix(6.9741489,0,0,-6.9742186,172.4909,95.971988)"/>
<use data-text="&#x03c0;" xlink:href="#font_5_1" transform="matrix(6.9741489,0,0,-6.9742186,176.4631,95.971988)"/>
<path transform="matrix(1.00005,0,0,-1.00006,66.02959,-46.703584)" stroke-width=".3985" stroke-linecap="butt" stroke-miterlimit="10" stroke-linejoin="miter" fill="none" stroke="#000000" d="M106.456-144.099H115.337"/>
<use data-text="2" xlink:href="#font_4_1" transform="matrix(6.9741489,0,0,-6.9742186,174.94603,103.330417)"/>
<use data-text="2" xlink:href="#font_2_3" transform="matrix(9.963098,0,0,-9.963197,195.32605,97.899089)"/>
<use data-text="&#x03c0;" xlink:href="#font_3_1" transform="matrix(9.963098,0,0,-9.963197,200.30731,97.899089)"/>
<use data-text="&#x2212;" xlink:href="#font_1_1" transform="matrix(9.963098,0,0,-9.963197,81.86039,169.33037)"/>
<use data-text="1" xlink:href="#font_2_2" transform="matrix(9.963098,0,0,-9.963197,89.60978,169.33037)"/>
<use data-text="0" xlink:href="#font_2_1" transform="matrix(9.963098,0,0,-9.963197,94.591327,169.33037)"/>
<use data-text="&#x2212;" xlink:href="#font_1_1" transform="matrix(9.963098,0,0,-9.963197,86.841648,128.97895)"/>
<use data-text="5" xlink:href="#font_2_4" transform="matrix(9.963098,0,0,-9.963197,94.591037,128.97895)"/>
<use data-text="5" xlink:href="#font_2_4" transform="matrix(9.963098,0,0,-9.963197,94.59103,48.69114)"/>
<use data-text="1" xlink:href="#font_2_2" transform="matrix(9.963098,0,0,-9.963197,89.60978,8.339706)"/>
<use data-text="0" xlink:href="#font_2_1" transform="matrix(9.963098,0,0,-9.963197,94.59133,8.339706)"/>
<path transform="matrix(1.00005,0,0,-1.00006,8.079704,166.5352)" stroke-width=".99628" stroke-linecap="butt" stroke-miterlimit="10" stroke-linejoin="miter" fill="none" stroke="#0000ff" d="M3.85425 157.87818 3.94624 155.77249 4.1643 151.61896 4.38235 148.09165 4.6004 145.07352 4.81845 142.45165 5.03651 140.16223 5.25458 138.13913 5.47261 136.34439 5.69067 134.73851 5.90872 133.294 6.12679 131.98752 6.34483 130.80207 6.56288 129.71909 6.78094 128.73053 6.999 127.82106 7.21704 126.98343 7.4351 126.20792 7.65315 125.48889 7.8712 124.8215 8.08925 124.20013 8.30731 123.61911 8.52538 123.07762 8.74341 122.56761 8.96147 122.08987 9.17952 121.642 9.39758 121.21835 9.61563 120.8205 9.83368 120.44363 10.05174 120.08694 10.26979 119.74884 10.48784 119.43007 10.70589 119.12663 10.92395 118.83774 11.142 118.56499 11.36005 118.30353 11.57811 118.05577 11.79616 117.81851 12.0142 117.59337 12.23227 117.37791 12.45032 117.17213 12.66838 116.97522 12.88641 116.78801 13.10448 116.60805 13.32254 116.43536 13.54059 116.27072 13.75864 116.11176 13.97668 115.96005 14.19475 115.8164 14.4128 115.6768 14.63084 115.54285 14.8489 115.41452 15.06696 115.29185 15.285 115.17323 15.50307 115.06026 15.72112 114.95212 15.93918 114.84721 16.15721 114.74635 16.37527 114.65112 16.59334 114.55751 16.81139 114.46875 17.02943 114.384 17.24748 114.30171 17.46555 114.22261 17.6836 114.14755 17.90164 114.07494 18.1197 114.00633 18.33775 113.93936 18.5558 113.87561 18.77386 113.81508 18.99191 113.75616 19.20998 113.7005 19.42801 113.64723 19.64607 113.5972 19.86414 113.54797 20.08218 113.50198 20.30023 113.45839 20.51828 113.41644 20.73634 113.37689 20.9544 113.33977 21.17244 113.30264 21.3905 113.26956 21.60855 113.2389 21.82661 113.20905 22.04466 113.1808 22.26271 113.15498 22.48077 113.13077 22.6988 113.10817 22.91687 113.0888 23.13492 113.07024 23.35298 113.05328 23.57103 113.03796 23.78908 113.02505 24.00714 113.01375 24.22519 113.00246 24.44324 112.99521 24.6613 112.98793 24.87935 112.9831 25.09741 112.97906 25.31544 112.97745H25.53351L25.75159 112.97906 25.9696 112.9831 26.18768 112.98793 26.4057 112.99358 26.62378 113.00246 26.84184 113.01375 27.05988 113.02505 27.27794 113.03796 27.49597 113.05328 27.71404 113.07024 27.93211 113.0888 28.15013 113.10817 28.36821 113.13077 28.58624 113.15498 28.8043 113.1808 29.02238 113.20822 29.2404 113.2381 29.45848 113.26956 29.6765 113.30264 29.89458 113.33977 30.11264 113.37689 30.33067 113.41644 30.54874 113.45839 30.76677 113.50117 30.98485 113.54797 31.20291 113.59639 31.42093 113.64723 31.639 113.7005 31.85704 113.75616 32.0751 113.81508 32.29318 113.87561 32.5112 113.93936 32.72928 114.00633 32.9473 114.07494 33.16537 114.14755 33.38344 114.22261 33.60147 114.30171 33.81953 114.38321 34.03757 114.46875 34.25565 114.55751 34.4737 114.65031 34.69174 114.74635 34.9098 114.84721 35.12784 114.95212 35.3459 115.06026 35.56396 115.17323 35.782 115.29185 36.00008 115.41452 36.2181 115.54285 36.43617 115.67598 36.65422 115.8164 36.87227 115.96005 37.09033 116.11176 37.30836 116.26993 37.52644 116.43454 37.74449 116.60643 37.96254 116.78639 38.1806 116.97522 38.39864 117.17213 38.6167 117.37791 38.83476 117.59337 39.0528 117.81851 39.27087 118.05496 39.48889 118.30272 39.70697 118.56337 39.92502 118.83774 40.14307 119.12663 40.36115 119.42926 40.57916 119.74802 40.79724 120.08694 41.01529 120.44203 41.23334 120.81888 41.4514 121.21835 41.66943 121.64038 41.8875 122.08827 42.10556 122.56679 42.3236 123.07602 42.54167 123.6183 42.75969 124.19772 42.97777 124.8199 43.19582 125.48567 43.41386 126.20547 43.63194 126.98099 43.84996 127.81783 44.06804 128.7281 44.28609 129.71587 44.50414 130.79802 44.7222 131.98267 44.94023 133.28917 45.1583 134.73206 45.37636 136.33956 45.59439 138.1343 45.81245 140.15657 46.03049 142.44681 46.24857 145.06304 46.46663 148.08358 46.68466 151.60765 46.90273 155.76361 46.9945 157.85964"/>
<path transform="matrix(-.04362218,-.9990599,-.9990499,.043622618,11.934147,8.647568)" d="M2.8892 0-1.73352 2.31136 0 0-1.73352-2.31136" fill="#0000ff"/>
<path transform="matrix(.04370218,-.9990599,-.9990499,-.043702619,55.07654,8.666107)" d="M2.8892 0-1.73352 2.31136 0 0-1.73352-2.31136" fill="#0000ff"/>
<path transform="matrix(1.00005,0,0,-1.00006,8.079704,166.5352)" stroke-width=".99628" stroke-linecap="butt" stroke-miterlimit="10" stroke-linejoin="miter" fill="none" stroke="#0000ff" d="M50.55435 4.21228 50.74312 17.99568 50.97142 30.02777 51.19972 39.13942 51.42802 46.24489 51.65633 51.95348 51.88461 56.64366 52.11292 60.56316 52.34123 63.88228 52.56953 66.73738 52.79784 69.20674 53.02614 71.37187 53.25444 73.282 53.48274 74.97989 53.71104 76.49622 53.93935 77.86484 54.16765 79.09953 54.39594 80.22205 54.62424 81.24611 54.85254 82.1814 55.08086 83.04326 55.30916 83.83733 55.53746 84.57086 55.76576 85.25114 55.99406 85.88303 56.22237 86.4721 56.45067 87.02007 56.67896 87.53331 56.90726 88.01427 57.13556 88.46617 57.36386 88.89145 57.59216 89.29172 57.82048 89.66858 58.04878 90.02446 58.27708 90.36017 58.50539 90.67891 58.73369 90.98073 58.96198 91.26639 59.19028 91.53996 59.41858 91.7974 59.64688 92.04353 59.87518 92.27756 60.10349 92.49947 60.3318 92.71251 60.5601 92.91426 60.7884 93.10794 61.01671 93.29193 61.245 93.46866 61.4733 93.63731 61.7016 93.7987 61.9299 93.95204 62.1582 94.0997 62.3865 94.24176 62.6148 94.37651 62.84311 94.50642 63.07143 94.6307 63.29973 94.75014 63.52802 94.86473 63.75632 94.97287 63.98462 95.07777 64.21292 95.17865 64.44122 95.27469 64.66953 95.36667 64.89783 95.45544 65.12613 95.53938 65.35443 95.62088 65.58275 95.69835 65.81105 95.77339 66.03934 95.8436 66.26764 95.91219 66.49594 95.97676 66.72424 96.03888 66.95255 96.09862 67.18085 96.1551 67.40915 96.20917 67.63745 96.26 67.86575 96.30923 68.09406 96.35442 68.32236 96.39879 68.55066 96.44077 68.77896 96.4787 69.00726 96.51582 69.23557 96.55133 69.46387 96.5836 69.69217 96.61429 69.92047 96.64252 70.14877 96.66833 70.37708 96.69334 70.60536 96.71515 70.83366 96.73613 71.06198 96.75468 71.29028 96.77083 71.51859 96.78535 71.74689 96.79906 71.97519 96.81036 72.20349 96.81924 72.4318 96.8265 72.6601 96.83215 72.88838 96.83458 73.11668 96.83781H73.34499L73.57332 96.83458 73.80159 96.83215 74.0299 96.8265 74.2582 96.81924 74.48651 96.81036 74.71483 96.79906 74.9431 96.78535 75.17142 96.77083 75.39969 96.75468 75.628 96.73613 75.85632 96.71675 76.0846 96.69334 76.31293 96.66833 76.54121 96.64252 76.76953 96.61429 76.99785 96.5836 77.22612 96.55133 77.45444 96.51582 77.68271 96.4787 77.91103 96.44077 78.13934 96.39879 78.36763 96.35442 78.59593 96.30923 78.82423 96.26 79.05255 96.20917 79.28087 96.1551 79.50914 96.09862 79.73746 96.03888 79.96573 95.97676 80.19405 95.91219 80.42236 95.84521 80.65065 95.77339 80.87897 95.69835 81.10724 95.62088 81.33556 95.53938 81.56389 95.45544 81.79216 95.36667 82.02048 95.27469 82.24875 95.17865 82.47707 95.07777 82.70538 94.97287 82.93367 94.86473 83.16199 94.75014 83.39026 94.6307 83.61858 94.50642 83.8469 94.37651 84.07516 94.24176 84.3035 94.0997 84.53177 93.95204 84.76009 93.7987 84.9884 93.63731 85.21669 93.46947 85.445 93.29193 85.67328 93.10873 85.9016 92.91426 86.12991 92.71251 86.35818 92.50027 86.5865 92.27756 86.81479 92.04353 87.0431 91.7982 87.27142 91.53996 87.49971 91.26802 87.72803 90.98073 87.9563 90.67891 88.18462 90.36179 88.41293 90.02446 88.6412 89.66939 88.86952 89.29172 89.0978 88.89227 89.32611 88.4678 89.55444 88.01587 89.78273 87.5341 90.01105 87.02087 90.23932 86.4721 90.46764 85.88303 90.69595 85.25114 90.92422 84.57169 91.15254 83.83733 91.38081 83.04488 91.60913 82.18301 91.83745 81.2469 92.06575 80.22366 92.29407 79.10196 92.52234 77.86566 92.75066 76.50026 92.97897 74.97989 93.20724 73.28282 93.43556 71.3743 93.66383 69.20674 93.89215 66.73738 94.12047 63.88632 94.34875 60.56639 94.57707 56.6501 94.80536 51.96315 95.03368 46.24811 95.262 39.13942 95.49026 30.0415 95.71858 18.01183 95.90742 4.21228"/>
<path transform="matrix(-.013690684,.99994,.99992999,.013690821,58.6366,162.32266)" d="M2.8892 0-1.73352 2.31136 0 0-1.73352-2.31136" fill="#0000ff"/>
<path transform="matrix(.013660682,.99994,.99992999,-.013660818,103.99191,162.32266)" d="M2.8892 0-1.73352 2.31136 0 0-1.73352-2.31136" fill="#0000ff"/>
<path transform="matrix(1.00005,0,0,-1.00006,8.079704,166.5352)" stroke-width=".99628" stroke-linecap="butt" stroke-miterlimit="10" stroke-linejoin="miter" fill="none" stroke="#0000ff" d="M99.46675 157.87818 99.5586 155.77976 99.77666 151.61331 99.99472 148.09407 100.21277 145.06949 100.43083 142.45165 100.64886 140.16223 100.86693 138.13913 101.08499 136.34279 101.30304 134.73851 101.5211 133.294 101.73915 131.98752 101.9572 130.80045 102.17526 129.71909 102.39331 128.72972 102.61137 127.82106 102.82942 126.9818 103.04749 126.20792 103.26553 125.48889 103.48358 124.8215 103.70164 124.20013 103.9197 123.61911 104.13776 123.07762 104.3558 122.56761 104.57385 122.08987 104.79192 121.642 105.00996 121.21913 105.22803 120.8205 105.44609 120.44363 105.66412 120.08694 105.88219 119.74884 106.10023 119.43007 106.3183 119.12746 106.53635 118.83774 106.75441 118.56499 106.97246 118.30353 107.1905 118.05577 107.40857 117.81851 107.62662 117.59337 107.84468 117.37791 108.06274 117.17213 108.28078 116.97522 108.49884 116.78801 108.71689 116.60805 108.93495 116.43536 109.15302 116.27072 109.37106 116.11176 109.58911 115.96005 109.80716 115.8164 110.02522 115.6768 110.24329 115.54285 110.46133 115.41452 110.6794 115.29185 110.89743 115.17323 111.1155 115.06026 111.33356 114.95212 111.5516 114.84721 111.76967 114.74635 111.9877 114.65031 112.20576 114.55751 112.42383 114.46875 112.64188 114.384 112.85994 114.30171 113.07799 114.22261 113.29604 114.14755 113.5141 114.07494 113.73215 114.00633 113.95021 113.93936 114.16826 113.87561 114.38632 113.81508 114.60437 113.75616 114.82242 113.7005 115.04048 113.64723 115.25853 113.59639 115.4766 113.54797 115.69466 113.50198 115.91269 113.45839 116.13075 113.41644 116.3488 113.37689 116.56686 113.33977 116.78491 113.30264 117.00298 113.26956 117.22102 113.2381 117.43907 113.20905 117.65714 113.1808 117.87518 113.15498 118.09325 113.13077 118.31131 113.10817 118.52934 113.0888 118.7474 113.07024 118.96545 113.05328 119.18352 113.03796 119.40158 113.02505 119.61961 113.01375 119.83768 113.00246 120.05573 112.99521 120.27379 112.98793 120.49185 112.9831 120.7099 112.97906 120.92795 112.97745H121.146L121.36407 112.97906 121.5821 112.9831 121.80017 112.98793 122.01822 112.99521 122.23627 113.00246 122.45435 113.01213 122.6724 113.02505 122.89044 113.03796 123.10849 113.05328 123.32655 113.07024 123.54462 113.0888 123.76266 113.10817 123.98071 113.13077 124.19876 113.15498 124.41682 113.1808 124.63489 113.20822 124.85294 113.2381 125.071 113.26956 125.28903 113.30264 125.5071 113.33896 125.72516 113.37689 125.9432 113.41644 126.16127 113.45839 126.3793 113.50198 126.59737 113.54797 126.81544 113.59639 127.03346 113.64723 127.25154 113.7005 127.46957 113.75616 127.68764 113.81508 127.90572 113.87561 128.12374 113.93936 128.34181 114.00633 128.55985 114.07494 128.77791 114.14755 128.99599 114.22261 129.214 114.30171 129.43209 114.384 129.65013 114.46875 129.86818 114.55751 130.08626 114.65031 130.30428 114.74635 130.52236 114.84721 130.7404 114.95212 130.95847 115.06026 131.17653 115.17323 131.39456 115.29185 131.61263 115.41452 131.83068 115.54285 132.04874 115.6768 132.2668 115.8164 132.48484 115.96005 132.70291 116.11176 132.92095 116.27072 133.139 116.43454 133.35707 116.60643 133.5751 116.78639 133.79319 116.97522 134.01122 117.17213 134.22928 117.37791 134.44736 117.59337 134.66538 117.81851 134.88346 118.05496 135.10149 118.30272 135.31955 118.56499 135.53763 118.83774 135.75565 119.12663 135.97373 119.42926 136.19176 119.74884 136.40982 120.08694 136.6279 120.44203 136.84592 120.81888 137.064 121.21835 137.28205 121.64038 137.50009 122.08987 137.71817 122.56679 137.93619 123.07602 138.15427 123.61911 138.3723 124.19934 138.59038 124.8199 138.80844 125.48727 139.02648 126.2063 139.24454 126.98099 139.46257 127.81944 139.68065 128.7281 139.89871 129.71666 140.11675 130.79964 140.33483 131.98509 140.55284 133.29079 140.77092 134.73609 140.98899 136.34038 141.20702 138.13834 141.4251 140.1574 141.64311 142.45084 141.86119 145.06708 142.07927 148.08599 142.29729 151.61089 142.51537 155.77008 142.60727 157.87093"/>
<path transform="matrix(-.043692184,-.9990599,-.9990499,.04369262,107.55144,8.647568)" d="M2.8892 0-1.73352 2.31136 0 0-1.73352-2.31136" fill="#0000ff"/>
<path transform="matrix(.04366218,-.9990599,-.9990499,-.04366262,150.69409,8.654816)" d="M2.8892 0-1.73352 2.31136 0 0-1.73352-2.31136" fill="#0000ff"/>
<path transform="matrix(1.00005,0,0,-1.00006,8.079704,166.5352)" stroke-width=".99628" stroke-linecap="butt" stroke-miterlimit="10" stroke-linejoin="miter" fill="none" stroke="#0000ff" d="M146.16674 4.21228 146.35549 17.99568 146.58377 30.02777 146.81208 39.12892 147.04039 46.24489 147.26869 51.95671 147.497 56.64366 147.7253 60.56316 147.9536 63.88632 148.1819 66.73576 148.4102 69.20593 148.6385 71.37025 148.8668 73.282 149.0951 74.97989 149.3234 76.49622 149.55171 77.86566 149.78002 79.09953 150.00832 80.22205 150.23662 81.24611 150.46492 82.18301 150.69322 83.04326 150.92153 83.83653 151.14983 84.57086 151.37812 85.25037 151.60642 85.88303 151.83472 86.4721 152.06302 87.02007 152.29134 87.53331 152.51964 88.01427 152.74794 88.46617 152.97624 88.89145 153.20455 89.29172 153.43285 89.66858 153.66114 90.02446 153.88944 90.36017 154.11774 90.67891 154.34604 90.98073 154.57434 91.26802 154.80265 91.53996 155.03096 91.7974 155.25926 92.04353 155.48757 92.27756 155.71587 92.49947 155.94416 92.71251 156.17246 92.91426 156.40076 93.10873 156.62906 93.29193 156.85736 93.46866 157.08567 93.63731 157.31397 93.7987 157.54228 93.95204 157.77059 94.0997 157.99889 94.24176 158.22718 94.37651 158.45548 94.50642 158.68378 94.6307 158.91208 94.75014 159.14038 94.86311 159.36869 94.97287 159.59699 95.07777 159.82529 95.17865 160.05359 95.27469 160.2819 95.36667 160.51021 95.45544 160.7385 95.53938 160.9668 95.62088 161.1951 95.69835 161.4234 95.77339 161.6517 95.84521 161.88 95.91219 162.1083 95.97676 162.33661 96.03888 162.56491 96.09862 162.79323 96.1551 163.02152 96.20836 163.24982 96.26 163.47812 96.30923 163.70642 96.35442 163.93473 96.39879 164.16303 96.44077 164.39133 96.4787 164.61963 96.51582 164.84793 96.55133 165.07624 96.5836 165.30452 96.61429 165.53284 96.64252 165.76114 96.66833 165.98944 96.69334 166.21775 96.71515 166.44605 96.73613 166.67435 96.75468 166.90265 96.77083 167.13095 96.78535 167.35926 96.79906 167.58754 96.81036 167.81584 96.81924 168.04415 96.8265 168.27246 96.83215 168.50077 96.83458 168.72907 96.83781H168.95737L169.18569 96.83458 169.41396 96.83215 169.64228 96.8265 169.87055 96.81924 170.09886 96.81036 170.32718 96.79906 170.55547 96.78535 170.7838 96.77083 171.01207 96.75468 171.24039 96.73613 171.4687 96.71675 171.69698 96.69334 171.9253 96.66833 172.15357 96.64252 172.38188 96.61429 172.6102 96.5836 172.83849 96.55133 173.0668 96.51582 173.29508 96.4787 173.5234 96.44077 173.75173 96.39879 173.98 96.35442 174.20832 96.30923 174.43659 96.26 174.6649 96.20917 174.89322 96.1551 175.1215 96.09862 175.34983 96.03888 175.5781 95.97676 175.80641 95.91219 176.03475 95.84521 176.26302 95.77339 176.49134 95.69835 176.7196 95.62088 176.94792 95.53938 177.17624 95.45544 177.40453 95.36667 177.63285 95.27469 177.86112 95.17865 178.08943 95.07777 178.31775 94.97287 178.54602 94.86473 178.77436 94.75014 179.00264 94.6307 179.23094 94.50725 179.45926 94.37651 179.68755 94.24176 179.91587 94.0997 180.14414 93.95364 180.37245 93.7987 180.60077 93.63731 180.82904 93.46947 181.05736 93.29193 181.28565 93.10873 181.51398 92.91426 181.74228 92.71251 181.97057 92.50027 182.19889 92.27756 182.42716 92.04353 182.65547 91.7982 182.88379 91.53996 183.11206 91.26802 183.34038 90.98073 183.56867 90.67891 183.79698 90.36179 184.0253 90.02525 184.25359 89.66939 184.4819 89.29172 184.71018 88.89227 184.93849 88.4678 185.16681 88.01587 185.39508 87.5341 185.6234 87.02087 185.85169 86.4721 186.08 85.88463 186.3083 85.25114 186.53659 84.57169 186.76493 83.83733 186.9932 83.04488 187.22151 82.18301 187.44983 81.2469 187.6781 80.22366 187.90642 79.10034 188.1347 77.86566 188.36302 76.49864 188.59133 74.97989 188.81961 73.28282 189.04793 71.3743 189.27622 69.20674 189.50453 66.7406 189.73285 63.88713 189.96112 60.56639 190.18944 56.6501 190.41773 51.96315 190.64604 46.24811 190.87435 39.13942 191.10263 30.0415 191.33095 18.01183 191.51969 4.2365"/>
<path transform="matrix(-.013690684,.99994,.99992999,.013690821,154.25376,162.32266)" d="M2.8892 0-1.73352 2.31136 0 0-1.73352-2.31136" fill="#0000ff"/>
<path transform="matrix(.013690684,.99994,.99992999,-.013690821,199.60895,162.29845)" d="M2.8892 0-1.73352 2.31136 0 0-1.73352-2.31136" fill="#0000ff"/>
<path transform="matrix(1.00005,0,0,-1.00006,8.079704,166.5352)" stroke-width=".3985" stroke-linecap="butt" stroke-dasharray="2.98883,2.98883" stroke-miterlimit="10" stroke-linejoin="miter" fill="none" stroke="#ff0000" d="M1.52171 0V161.39636"/>
<path transform="matrix(1.00005,0,0,-1.00006,8.079704,166.5352)" stroke-width=".3985" stroke-linecap="butt" stroke-dasharray="2.98883,2.98883" stroke-miterlimit="10" stroke-linejoin="miter" fill="none" stroke="#ff0000" d="M49.32788 0V161.39636"/>
<path transform="matrix(1.00005,0,0,-1.00006,8.079704,166.5352)" stroke-width=".3985" stroke-linecap="butt" stroke-dasharray="2.98883,2.98883" stroke-miterlimit="10" stroke-linejoin="miter" fill="none" stroke="#ff0000" d="M97.13405 0V161.39636"/>
<path transform="matrix(1.00005,0,0,-1.00006,8.079704,166.5352)" stroke-width=".3985" stroke-linecap="butt" stroke-dasharray="2.98883,2.98883" stroke-miterlimit="10" stroke-linejoin="miter" fill="none" stroke="#ff0000" d="M144.94025 0V161.39636"/>
<path transform="matrix(1.00005,0,0,-1.00006,8.079704,166.5352)" stroke-width=".3985" stroke-linecap="butt" stroke-dasharray="2.98883,2.98883" stroke-miterlimit="10" stroke-linejoin="miter" fill="none" stroke="#ff0000" d="M192.74642 0V161.39636"/>
<use data-text="x" xlink:href="#font_3_2" transform="matrix(9.963098,0,0,-9.963197,193.14295,82.31215)"/>
<use data-text="y" xlink:href="#font_3_3" transform="matrix(9.963098,0,0,-9.963197,108.73873,12.93898)"/>
</svg>
