<svg xmlns="http://www.w3.org/2000/svg" xmlns:xlink="http://www.w3.org/1999/xlink" version="1.1" width="118" height="119" viewBox="0 0 118 119">
<defs>
<path id="font_1_1" d="M.33399964 .30233766C.33999635 .32835389 .36299134 .42037965 .43299867 .42037965 .43798829 .42037965 .46199037 .42037965 .48298646 .40734864 .45498658 .402359 .43499757 .37734986 .43499757 .35334779 .43499757 .33735658 .44599916 .31835938 .47299195 .31835938 .49499513 .31835938 .5269928 .3363495 .5269928 .37635804 .5269928 .42837525 .46798707 .4423828 .43399049 .4423828 .37599183 .4423828 .34098817 .38935853 .32899476 .36634828 .3039856 .43237306 .25 .4423828 .22099304 .4423828 .116989139 .4423828 .05999756 .3133545 .05999756 .28834535 .05999756 .27833558 .069992069 .27833558 .07199097 .27833558 .07998657 .27833558 .08299255 .28033448 .084991458 .28933717 .11898804 .39535523 .18499756 .42037965 .21899414 .42037965 .23799134 .42037965 .272995 .4113617 .272995 .35334779 .272995 .32235719 .2559967 .25532533 .21899414 .11528015 .20298767 .053268434 .16799927 .011245728 .12399292 .011245728 .117996219 .011245728 .09498596 .011245728 .07398987 .024276734 .09899902 .029266358 .12098694 .05027771 .12098694 .07827759 .12098694 .105270389 .09899902 .11328125 .083999637 .11328125 .053985597 .11328125 .0289917 .08728027 .0289917 .055267335 .0289917 .009246826 .07899475-.0107421879 .12298584-.0107421879 .18899536-.0107421879 .22499085 .059280397 .22799683 .0652771 .23999024 .028274537 .27598573-.0107421879 .33599855-.0107421879 .43899537-.0107421879 .49598695 .118270877 .49598695 .14328003 .49598695 .1532898 .4869995 .1532898 .48399354 .1532898 .47499085 .1532898 .47299195 .14929199 .47099305 .14228821 .43798829 .03527832 .36999513 .011245728 .33799745 .011245728 .29899598 .011245728 .2829895 .043273927 .2829895 .07727051 .2829895 .09927368 .2889862 .121276859 .2999878 .16529846L.33399964 .30233766Z"/>
<path id="font_1_2" d="M.48599244 .38136292C.48999024 .39537049 .48999024 .39736939 .48999024 .40437318 .48999024 .42237855 .47599793 .43138124 .46099855 .43138124 .45098878 .43138124 .43499757 .42536927 .42599488 .41036988 .42399598 .405365 .41600038 .37435914 .4119873 .35635377 .40499879 .33035279 .397995 .30334474 .3919983 .27633668L.34700013 .09628296C.34298707 .08126831 .2999878 .011245728 .23399353 .011245728 .18299866 .011245728 .17199707 .055267335 .17199707 .0922699 .17199707 .1382904 .18899536 .20030213 .22299195 .28833009 .23899842 .3293457 .24299622 .3403473 .24299622 .36035157 .24299622 .405365 .21099854 .4423828 .16099549 .4423828 .06599426 .4423828 .0289917 .29733277 .0289917 .28833009 .0289917 .27833558 .038986207 .27833558 .040985109 .27833558 .050994874 .27833558 .051986696 .28033448 .056991579 .29634095 .083999637 .3903656 .12399292 .42037965 .1579895 .42037965 .1659851 .42037965 .18299866 .42037965 .18299866 .3883667 .18299866 .36335755 .17298889 .3373413 .1659851 .31834413 .12599182 .21231079 .10798645 .1552887 .10798645 .10827637 .10798645 .019256592 .17098999-.0107421879 .22999573-.0107421879 .2689972-.0107421879 .30299378 .0062561037 .33099366 .03425598 .31799317-.017745972 .30599977-.06674194 .2659912-.11973572 .23999024-.15385437 .20199585-.18309021 .1559906-.18309021 .14199829-.18309021 .09700012-.18005371 .07998657-.14074707 .09599304-.14074707 .10899353-.14074707 .12298584-.1287384 .1329956-.11973572 .14299011-.10673523 .14299011-.08773804 .14299011-.056747438 .115997318-.052734376 .10598755-.052734376 .08299255-.052734376 .049987794-.068740848 .049987794-.11773682 .049987794-.16796875 .09399414-.20507813 .1559906-.20507813 .25898744-.20507813 .3619995-.11373901 .3899994-.00074768069L.48599244 .38136292Z"/>
</defs>
<path transform="matrix(1.00005,0,0,-1.00005,54.247804,64.81959)" stroke-width=".3985" stroke-linecap="butt" stroke-miterlimit="10" stroke-linejoin="miter" fill="none" stroke="#000000" d="M-51.15773 0H51.15773"/>
<path transform="matrix(-1.00005,-0,0,1.00005,3.0875169,64.81959)" d="M1.99252 0-1.19551 1.59401 0 0-1.19551-1.59401"/>
<path transform="matrix(1.00005,0,0,-1.00005,105.40809,64.81959)" d="M1.99252 0-1.19551 1.59401 0 0-1.19551-1.59401"/>
<use data-text="x" xlink:href="#font_1_1" transform="matrix(9.963098,0,0,-9.963098,110.92063,66.96469)"/>
<path transform="matrix(1.00005,0,0,-1.00005,54.247804,64.81959)" stroke-width=".3985" stroke-linecap="butt" stroke-miterlimit="10" stroke-linejoin="miter" fill="none" stroke="#000000" d="M0-51.15773V51.15773"/>
<path transform="matrix(0,1.00005,1.00005,0,54.247804,115.97987)" d="M1.99252 0-1.19551 1.59401 0 0-1.19551-1.59401"/>
<path transform="matrix(0,-1.00005,-1.00005,-0,54.247804,13.659302)" d="M1.99252 0-1.19551 1.59401 0 0-1.19551-1.59401"/>
<use data-text="y" xlink:href="#font_1_2" transform="matrix(9.963098,0,0,-9.963098,51.62667,6.2096636)"/>
<path transform="matrix(1.00005,0,0,-1.00005,54.247804,64.81959)" d="M43.5165 0C43.5165 .55023 43.07045 .99628 42.52022 .99628 41.96999 .99628 41.52394 .55023 41.52394 0 41.52394-.55023 41.96999-.99628 42.52022-.99628 43.07045-.99628 43.5165-.55023 43.5165 0ZM42.52022 0" fill="#0000ff"/>
<path transform="matrix(1.00005,0,0,-1.00005,54.247804,64.81959)" stroke-width=".3985" stroke-linecap="butt" stroke-miterlimit="10" stroke-linejoin="miter" fill="none" stroke="#0000ff" d="M43.5165 0C43.5165 .55023 43.07045 .99628 42.52022 .99628 41.96999 .99628 41.52394 .55023 41.52394 0 41.52394-.55023 41.96999-.99628 42.52022-.99628 43.07045-.99628 43.5165-.55023 43.5165 0ZM42.52022 0"/>
<path transform="matrix(1.00005,0,0,-1.00005,54.247804,64.81959)" d="M9.85573 50.24945C9.85573 50.79968 9.40968 51.24573 8.85945 51.24573 8.3092 51.24573 7.86317 50.79968 7.86317 50.24945 7.86317 49.69922 8.3092 49.25317 8.85945 49.25317 9.40968 49.25317 9.85573 49.69922 9.85573 50.24945ZM8.85945 50.24945" fill="#0000ff"/>
<path transform="matrix(1.00005,0,0,-1.00005,54.247804,64.81959)" stroke-width=".3985" stroke-linecap="butt" stroke-miterlimit="10" stroke-linejoin="miter" fill="none" stroke="#0000ff" d="M9.85573 50.24945C9.85573 50.79968 9.40968 51.24573 8.85945 51.24573 8.3092 51.24573 7.86317 50.79968 7.86317 50.24945 7.86317 49.69922 8.3092 49.25317 8.85945 49.25317 9.40968 49.25317 9.85573 49.69922 9.85573 50.24945ZM8.85945 50.24945"/>
<path transform="matrix(1.00005,0,0,-1.00005,54.247804,64.81959)" stroke-width=".3985" stroke-linecap="butt" stroke-miterlimit="10" stroke-linejoin="miter" fill="none" stroke="#0000ff" d="M0 0H42.52022"/>
<path transform="matrix(1.00005,0,0,-1.00005,54.247804,64.81959)" stroke-width=".3985" stroke-linecap="butt" stroke-miterlimit="10" stroke-linejoin="miter" fill="none" stroke="#0000ff" d="M0 0 8.85945 50.24945"/>
<path transform="matrix(1.00005,0,0,-1.00005,54.247804,64.81959)" stroke-width=".3985" stroke-linecap="butt" stroke-miterlimit="10" stroke-linejoin="miter" fill="none" stroke="#000000" d="M4.25226 0C4.25226 0 4.50833 .61427 4.57018 .87263 4.63202 1.131 4.69331 1.57733 4.698 1.86206 4.70268 2.1468 4.66386 2.62657 4.60393 2.9248 4.54399 3.22304 4.39507 3.71451 4.2659 4.01157 4.13672 4.30862 3.87236 4.78618 3.67288 5.06587 3.4734 5.34555 3.0954 5.78122 2.82814 6.0274 2.56087 6.2736 2.0755 6.64348 1.74658 6.84035 1.41765 7.03722 .83807 7.31348 .45738 7.44635 .0767 7.57921-.57753 7.74149-.9972 7.798-1.41685 7.85452-2.12451 7.8835-2.56732 7.85379-3.01012 7.82408-3.7411 7.70622-4.18869 7.5839-4.63626 7.46156-5.36046 7.18954-5.79318 6.97206-6.2259 6.75458-6.90988 6.32721-7.3075 6.01637-7.7051 5.70554-8.31662 5.12988-8.65897 4.73174-9.00131 4.33357-9.50702 3.6219-9.77492 3.1467-10.0428 2.67148-10.41338 1.84436-10.58981 1.30667-10.76625 .769-10.97545-.14653-11.04657-.72859-11.11769-1.31067-11.14693-2.28308-11.10237-2.88847-11.05782-3.49387-10.89168-4.48671-10.72542-5.09181-10.55914-5.69693-10.19307-6.66966-9.90402-7.24976-9.61497-7.82985-9.05014-8.74289-8.64209-9.27274-8.23404-9.8026-7.48087-10.61375-6.96298-11.06863-6.4451-11.5235-5.523-12.19386-4.9095-12.55116-4.296-12.90845-3.23137-13.40395-2.54137-13.64375-1.85136-13.88356-.67998-14.17354 .06357-14.27957 .80713-14.3856 2.0469-14.44737 2.81775-14.40805 3.58861-14.36871 4.85008-14.18707 5.6193-13.99606 6.38852-13.80504 7.62445-13.37453 8.36182-13.03128 9.09917-12.68803 10.25871-12.01195 10.93369-11.52216 11.60864-11.03236 12.64333-10.12569 13.22656-9.50113 13.8098-8.87657 14.67262-7.76257 15.1373-7.02072 15.60197-6.27887 16.25336-4.9904 16.57571-4.1543 16.89807-3.31819 17.29991-1.89706 17.46068-.99461 17.62146-.09216 17.74843 1.41258 17.73448 2.34996 17.72055 3.28734 17.55618 4.82338 17.36012 5.76138 17.16406 6.6994 16.70009 8.20781 16.32138 9.11053 15.94267 10.01326 15.18529 11.43593 14.63058 12.26762 14.07588 13.09932 13.04053 14.37875 12.32343 15.10486 11.60634 15.83096 10.32117 16.91226 9.46219 17.5009 8.60321 18.08954 7.10645 18.92387 6.13252 19.34741 5.15858 19.77095 3.49939 20.3176 2.44273 20.55354 1.38608 20.78947-.38023 21.01607-1.48315 21.04794-2.58607 21.0798-4.39673 20.96434-5.50641 20.78322-6.61609 20.60211-8.40608 20.13756-9.481 19.74254-10.55594 19.34753-12.25533 18.53813-13.25381 17.93626-14.25232 17.33438-15.79536 16.19841-16.67757 15.40462-17.55977 14.61081-18.88351 13.17801-19.61212 12.21507-20.34074 11.25214-21.38647 9.56625-21.92902 8.46431-22.47156 7.36238-23.19257 5.47758-23.52249 4.27303-23.8524 3.06847-24.20905 1.04869-24.30688-.21733-24.40472-1.48337-24.37302-3.56934-24.22774-4.85176-24.08244-6.13419-23.65076-8.20842-23.25972-9.46025-22.86868-10.71207-22.03964-12.7003-21.40932-13.87408-20.77899-15.04785-19.5706-16.87032-18.71678-17.92004-17.86295-18.96977-16.3079-20.55663-15.25539-21.43982-14.20288-22.323-12.34935-23.60674-11.13092-24.28549-9.9125-24.96423-7.81815-25.88857-6.47379-26.33183-5.12943-26.77509-2.86595-27.29604-1.44164-27.48021-.01733-27.66438 2.33723-27.7484 3.79161-27.65927 5.24599-27.57016 7.60878-27.2048 9.04045-26.83789 10.47214-26.47096 12.75462-25.65398 14.11024-25.01474 15.46587-24.37552 17.58305-23.12624 18.81084-22.23071 20.03864-21.33519 21.90825-19.68665 22.95932-18.56041 24.0104-17.43417 25.55545-15.43533 26.38632-14.11348 27.21721-12.79163 28.37332-10.5074 28.94781-9.03333 29.52231-7.55925 30.2367-5.06544 30.52701-3.48927 30.81732-1.9131 31.05217 .7031 31.0402 2.32661 31.02824 3.95012 30.76262 6.59903 30.44072 8.21193 30.11882 9.82483 29.34789 12.4086 28.7201 13.9513 28.09229 15.49397 26.8344 17.91641 25.91592 19.33054 24.99745 20.74467 23.28325 22.91255 22.1003 24.14339 20.91734 25.37424 18.8004 27.20335 17.38995 28.20169 15.97952 29.20001 13.5269 30.61508 11.9348 31.33865 10.34268 32.06224 5.91516 33.4168 7.82045 32.83391"/>
<path transform="matrix(-.9562677,-.29255463,-.29255463,.9562677,62.06864,31.984036)" d="M1.99252 0-1.19551 1.59401 0 0-1.19551-1.59401"/>
</svg>
