<svg xmlns="http://www.w3.org/2000/svg" xmlns:xlink="http://www.w3.org/1999/xlink" xmlns:inkscape="http://www.inkscape.org/namespaces/inkscape" version="1.1" width="234" height="230" viewBox="0 0 234 230">
<defs>
<clipPath id="clip_1">
<path transform="matrix(1,0,0,-1.00002,115.27901,115.02101)" d="M-113.38728 0H113.38728V-113.38728H-113.38728"/>
</clipPath>
<g id="pattern_tile_2">
<path transform="matrix(1,0,0,-1,-154,735)" d="M.49814 0C.49814 .2751 .2751 .49814 0 .49814-.2751 .49814-.49814 .2751-.49814 0-.49814-.2751-.2751-.49814 0-.49814 .2751-.49814 .49814-.2751 .49814 0ZM0 0" fill-opacity=".1"/>
</g>
<pattern id="pattern_2" patternUnits="userSpaceOnUse" patternContentUnits="userSpaceOnUse" x="0" y="0" width="2.98883" height="2.98883">
<g transform="matrix(1,0,0,-1,154,735)">
<use x="0" y="0" xlink:href="#pattern_tile_2"/>
</g>
</pattern>
<path id="font_3_113" d="M1.0089874 .6516113V.6826172C.97898867 .680603 .94799807 .6796112 .91799929 .6796112L.798996 .6826172V.6516113C.8659973 .65060427 .8860016 .6174164 .8860016 .5983734 .8860016 .59236147 .8829956 .58436587 .8809967 .57836917L.73098757 .116363529 .57099917 .606369C.56999209 .6103668 .56799319 .6164093 .56799319 .62142947 .56799319 .6516113 .6259918 .6516113 .6519928 .6516113V.6826172C.6159973 .6796112 .5479889 .6796112 .5099945 .6796112L.3880005 .6826172V.6516113C.44499208 .6516113 .46598817 .6516113 .47799684 .61595156L.5 .5459595 .36099244 .11695862 .19999695 .60894778C.19898987 .61195376 .19799805 .618927 .19799805 .62190249 .19799805 .6516113 .2559967 .6516113 .28199769 .6516113V.6826172C.24598694 .6796112 .17799378 .6796112 .13999939 .6796112L.017990113 .6826172V.6516113C.09298706 .6513672 .09700012 .6463623 .10899353 .609375L.30899049-.003479004C.31199647-.012466431 .31498719-.022460938 .32798768-.022460938 .34199525-.022460938 .34399415-.015472412 .34799195-.0024719239L.5130005 .50538638 .67900088-.003479004C.6819916-.012466431 .68499758-.022460938 .69799807-.022460938 .71199038-.022460938 .71398928-.015472412 .71798709-.0024719239L.9089966 .58496096C.9269867 .6417084 .9700012 .6516113 1.0089874 .6516113Z"/>
<path id="font_3_28" d="M.48298646 .08912659V.14511109H.45799256V.08912659C.45799256 .03112793 .43299867 .025131226 .42199708 .025131226 .3889923 .025131226 .3849945 .070129398 .3849945 .07511902V.27508546C.3849945 .31707765 .3849945 .3560791 .34899903 .39312745 .30999757 .43223573 .2599945 .4482422 .21199036 .4482422 .12998963 .4482422 .06098938 .40115357 .06098938 .335083 .06098938 .30508424 .08099365 .28808595 .10699463 .28808595 .1349945 .28808595 .15299988 .30807496 .15299988 .33407594 .15299988 .3460846 .147995 .37908937 .101989749 .38008119 .1289978 .41519166 .17799378 .426239 .20999146 .426239 .25898744 .426239 .31599427 .38710023 .31599427 .29808045V.26107789C.2649994 .25808717 .19499207 .25508119 .13198853 .22509766 .056991579 .19110108 .03199768 .13911438 .03199768 .09512329 .03199768 .014251709 .1289978-.0107421879 .19198609-.0107421879 .2579956-.0107421879 .3039856 .029251099 .32299806 .07624817 .32699586 .036132814 .35398866-.005859375 .40098573-.005859375 .42199708-.005859375 .48298646 .008132935 .48298646 .08912659M.31599427 .14013672C.31599427 .04525757 .24398804 .011245728 .19898987 .011245728 .1499939 .011245728 .10899353 .04624939 .10899353 .09625244 .10899353 .15124512 .15098572 .23425293 .31599427 .24024964V.14013672Z"/>
<path id="font_3_112" d="M.5079956 .3996582V.43066407C.4850006 .4286499 .45599366 .42765809 .43299867 .42765809L.34599305 .43066407V.3996582C.3829956 .39865113 .3939972 .37568666 .3939972 .35671998 .3939972 .34773255 .3919983 .34373475 .3880005 .3327484L.28599549 .078125 .17399597 .35671998C.16799927 .3697052 .16799927 .37368775 .16799927 .37368775 .16799927 .3996582 .20698548 .3996582 .22499085 .3996582V.43066407L.115997318 .42765809C.08898926 .42765809 .04899597 .4286499 .018997193 .43066407V.3996582C.08198547 .3996582 .085998538 .3936615 .09899902 .36271668L.24299622 .008224487C.24899292-.0057525637 .25099183-.0107421879 .2639923-.0107421879 .2769928-.0107421879 .2809906-.0017700195 .2849884 .008224487L.41600038 .3327484C.4249878 .3557129 .44198609 .39865113 .5079956 .3996582Z"/>
<path id="font_3_50" d="M.4149933 .11933899C.4149933 .12934876 .40699769 .13134766 .4019928 .13134766 .3929901 .13134766 .3909912 .12535095 .3889923 .11734009 .35398866 .014251709 .2639923 .014251709 .2539978 .014251709 .20399475 .014251709 .1639862 .044281007 .14099121 .08131409 .11099243 .12934876 .11099243 .19540406 .11099243 .23144531H.3899994C.4119873 .23144531 .4149933 .23144531 .4149933 .2524414 .4149933 .35131837 .36099244 .4482422 .23599243 .4482422 .11999512 .4482422 .027999878 .34532167 .027999878 .22042847 .027999878 .08631897 .1329956-.0107421879 .24798584-.0107421879 .36999513-.0107421879 .4149933 .10032654 .4149933 .11933899M.34899903 .2524414H.11199951C.117996219 .40126039 .20199585 .426239 .23599243 .426239 .33898927 .426239 .34899903 .2913971 .34899903 .2524414Z"/>
<path id="font_3_98" d="M.3600006 .12823487C.3600006 .18122864 .32998658 .21122742 .31799317 .22323609 .2849884 .25523377 .24598694 .26322938 .20399475 .27124024 .147995 .28224183 .08099365 .29522706 .08099365 .35324098 .08099365 .38822938 .10699463 .42922975 .19299317 .42922975 .30299378 .42922975 .30799867 .3392334 .30999757 .30822755 .31098939 .2992401 .32199098 .2992401 .32199098 .2992401 .33499146 .2992401 .33499146 .30422975 .33499146 .32322694V.4242401C.33499146 .4412384 .33499146 .4482422 .32398988 .4482422 .31900025 .4482422 .31698609 .4482422 .3039856 .43623353 .30099488 .43223573 .29100038 .42323304 .2869873 .42022706 .24899292 .4482422 .20799256 .4482422 .19299317 .4482422 .070999149 .4482422 .032989503 .38124085 .032989503 .3252411 .032989503 .29023744 .04899597 .26223756 .07598877 .24023438 .10798645 .2142334 .13598633 .2082367 .20799256 .19422913 .22999573 .19021607 .31199647 .17422486 .31199647 .10221863 .31199647 .051223756 .2769928 .011245728 .19898987 .011245728 .114990238 .011245728 .07899475 .068222049 .05999756 .1532135 .056991579 .16621399 .055999757 .17021179 .04598999 .17021179 .032989503 .17021179 .032989503 .16322327 .032989503 .1452179V.013214111C.032989503-.003753662 .032989503-.0107421879 .04399109-.0107421879 .04899597-.0107421879 .049987794-.009750366 .068984989 .009246826 .070999149 .011245728 .070999149 .013214111 .08898926 .032226564 .1329956-.009750366 .17799378-.0107421879 .19898987-.0107421879 .31399537-.0107421879 .3600006 .05621338 .3600006 .1282196V.12823487Z"/>
<path id="font_3_82" d="M.4189911 0V.0309906H.3869934C.29699708 .0309906 .2939911 .041992189 .2939911 .07902527V.64012148C.2939911 .6640167 .2939911 .6660156 .2709961 .6660156 .20899964 .60227969 .12098694 .60227969 .08898926 .60227969V.57128909C.10899353 .57128909 .16799927 .57128909 .21998596 .5972748V.07902527C.21998596 .042999269 .21699524 .0309906 .1269989 .0309906H.09498596V0C.12998963 .0029907227 .21699524 .0029907227 .25698854 .0029907227 .29699708 .0029907227 .38398744 .0029907227 .4189911 0Z"/>
<path id="font_3_121" d="M.45999146 .31976319C.45999146 .39982606 .45498658 .47988893 .41999818 .5539398 .37399293 .65000918 .2919922 .6660156 .25 .6660156 .18998719 .6660156 .116989139 .64001467 .07598877 .54693606 .04399109 .47789 .038986207 .39982606 .038986207 .31976319 .038986207 .24472046 .042999269 .15464783 .083999637 .07859802 .1269989-.0024719239 .19999695-.022460938 .24899292-.022460938 .30299378-.022460938 .3789978-.0014648438 .4229889 .09359741 .45498658 .16265869 .45999146 .2407074 .45999146 .31976319M.3769989 .3317871C.3769989 .25672914 .3769989 .18867493 .3659973 .12461853 .35099793 .029556275 .2939911-.00047302247 .24899292-.00047302247 .20999146-.00047302247 .15098572 .024551392 .1329956 .12062073 .12199402 .18066406 .12199402 .2727356 .12199402 .3317871 .12199402 .39582826 .12199402 .46188355 .12998963 .5159149 .14898682 .63500979 .22399903 .64401248 .24899292 .64401248 .28199769 .64401248 .34799195 .6259918 .36698915 .52693179 .3769989 .47088624 .3769989 .39482118 .3769989 .3317871Z"/>
<path id="font_3_55" d="M.35699464 .63479617C.35699464 .6717987 .31999208 .7050781 .2669983 .7050781 .19699097 .7050781 .11199951 .65179446 .11199951 .5457611V.43066407H.032989503V.3996582H.11199951V.07595825C.11199951 .0309906 .100997928 .0309906 .033996583 .0309906V0L.147995 .0029907227C.18798828 .0029907227 .23498535 .0029907227 .2749939 0V.0309906H.2539978C.17999268 .0309906 .17799378 .04197693 .17799378 .07795715V.3996582H.2919922V.43066407H.1749878V.5467529C.1749878 .63479617 .22299195 .68307498 .2669983 .68307498 .269989 .68307498 .2849884 .68307498 .2999878 .675827 .28799439 .6717987 .269989 .6587982 .269989 .6338043 .269989 .61079409 .28599549 .5907898 .31298829 .5907898 .34199525 .5907898 .35699464 .61079409 .35699464 .63479617Z"/>
<path id="font_3_105" d="M.33198548 .12385559V.18066406H.30699159V.12585449C.30699159 .052108766 .2769928 .014251709 .23999024 .014251709 .17298889 .014251709 .17298889 .10491943 .17298889 .12187195V.3996582H.31599427V.43066407H.17298889V.6142578H.147995C.14698792 .5324249 .116989139 .42565919 .018997193 .42166139V.3996582H.10398865V.12408447C.10398865 .0012512207 .19699097-.0107421879 .23298645-.0107421879 .3039856-.0107421879 .33198548 .060180665 .33198548 .12408447V.12385559Z"/>
<path id="font_3_114" d="M.7029877 .3996582V.43066407C.68099978 .4286499 .6519928 .42765809 .6299896 .42765809L.5369873 .43066407V.3996582C.57299807 .39866639 .59498599 .38075257 .59498599 .35176087 .59498599 .34576417 .59498599 .34376527 .58999636 .33078004L.49899293 .07513428 .3999939 .35375978C.3959961 .36575318 .394989 .36775209 .394989 .37275697 .394989 .3996582 .43399049 .3996582 .45399476 .3996582V.43066407L.34999085 .42765809C.31999208 .42765809 .29100038 .4286499 .26098634 .43066407V.3996582C.2979889 .3996582 .31399537 .39767457 .32398988 .38476563 .32899476 .37875367 .33999635 .34877015 .34700013 .3297882L.26098634 .08811951 .1659851 .3547516C.16099549 .36676026 .16099549 .36875917 .16099549 .37275697 .16099549 .3996582 .19999695 .3996582 .21998596 .3996582V.43066407L.11099243 .42765809 .017990113 .43066407V.3996582C.067993167 .3996582 .07998657 .39668275 .09199524 .36476136L.21798706 .01121521C.22299195-.0027618409 .22599793-.0107421879 .23899842-.0107421879 .2519989-.0107421879 .2539978-.004760742 .25898744 .009216309L.3600006 .2918396 .46199037 .008224487C.46598817-.0027618409 .46899415-.0107421879 .48199464-.0107421879 .49499513-.0107421879 .49798585-.0017547608 .5019989 .008224487L.61898806 .3357849C.6369934 .38575746 .66799929 .39866639 .7029877 .3996582Z"/>
<path id="font_3_63" d="M.5349884 0V.0309906C.48298646 .0309906 .45799256 .0309906 .45700074 .061019899V.25221253C.45700074 .3383026 .45700074 .36932374 .42599488 .405365 .4119873 .42237855 .3789978 .4423828 .32099916 .4423828 .23699951 .4423828 .19299317 .38233949 .1769867 .34629823H.17599488V.69433596L.03199768 .6826172V.6516113C.101989749 .6516113 .10998535 .64463809 .10998535 .59580996V.076034549C.10998535 .0309906 .09899902 .0309906 .03199768 .0309906V0L.14498902 .0029907227 .25698854 0V.0309906C.18998719 .0309906 .1789856 .0309906 .1789856 .076034549V.2602234C.1789856 .36431886 .25 .42037965 .31399537 .42037965 .3769989 .42037965 .3880005 .36631776 .3880005 .30926515V.076034549C.3880005 .0309906 .3769989 .0309906 .30999757 .0309906V0L.4229889 .0029907227 .5349884 0Z"/>
<path id="font_4_1" d="M.33399964 .30233766C.33999635 .32835389 .36299134 .42037965 .43299867 .42037965 .43798829 .42037965 .46199037 .42037965 .48298646 .40734864 .45498658 .402359 .43499757 .37734986 .43499757 .35334779 .43499757 .33735658 .44599916 .31835938 .47299195 .31835938 .49499513 .31835938 .5269928 .3363495 .5269928 .37635804 .5269928 .42837525 .46798707 .4423828 .43399049 .4423828 .37599183 .4423828 .34098817 .38935853 .32899476 .36634828 .3039856 .43237306 .25 .4423828 .22099304 .4423828 .116989139 .4423828 .05999756 .3133545 .05999756 .28834535 .05999756 .27833558 .069992069 .27833558 .07199097 .27833558 .07998657 .27833558 .08299255 .28033448 .084991458 .28933717 .11898804 .39535523 .18499756 .42037965 .21899414 .42037965 .23799134 .42037965 .272995 .4113617 .272995 .35334779 .272995 .32235719 .2559967 .25532533 .21899414 .11528015 .20298767 .053268434 .16799927 .011245728 .12399292 .011245728 .117996219 .011245728 .09498596 .011245728 .07398987 .024276734 .09899902 .029266358 .12098694 .05027771 .12098694 .07827759 .12098694 .105270389 .09899902 .11328125 .083999637 .11328125 .053985597 .11328125 .0289917 .08728027 .0289917 .055267335 .0289917 .009246826 .07899475-.0107421879 .12298584-.0107421879 .18899536-.0107421879 .22499085 .059280397 .22799683 .0652771 .23999024 .028274537 .27598573-.0107421879 .33599855-.0107421879 .43899537-.0107421879 .49598695 .118270877 .49598695 .14328003 .49598695 .1532898 .4869995 .1532898 .48399354 .1532898 .47499085 .1532898 .47299195 .14929199 .47099305 .14228821 .43798829 .03527832 .36999513 .011245728 .33799745 .011245728 .29899598 .011245728 .2829895 .043273927 .2829895 .07727051 .2829895 .09927368 .2889862 .121276859 .2999878 .16529846L.33399964 .30233766Z"/>
<path id="font_3_75" d="M.8129883 0V.0309906C.7609863 .0309906 .73599246 .0309906 .7350006 .061019899V.25221253C.7350006 .3383026 .7350006 .36932374 .70399478 .405365 .6899872 .42237855 .6569977 .4423828 .598999 .4423828 .5149994 .4423828 .47099305 .38233949 .45399476 .34429933 .43998719 .43138124 .3659973 .4423828 .32099916 .4423828 .24798584 .4423828 .20098877 .39935304 .17298889 .33729554V.4423828L.03199768 .43066407V.3996582C.101989749 .3996582 .10998535 .39266969 .10998535 .34370423V.07595825C.10998535 .0309906 .09899902 .0309906 .03199768 .0309906V0L.14498902 .0029907227 .25698854 0V.0309906C.18998719 .0309906 .1789856 .0309906 .1789856 .07595825V.25978089C.1789856 .36431886 .25 .42037965 .31399537 .42037965 .3769989 .42037965 .3880005 .36631776 .3880005 .30926515V.076034549C.3880005 .0309906 .3769989 .0309906 .30999757 .0309906V0L.4229889 .0029907227 .5349884 0V.0309906C.46798707 .0309906 .45700074 .0309906 .45700074 .076034549V.2602234C.45700074 .36431886 .5279999 .42037965 .59199526 .42037965 .6549988 .42037965 .66600039 .36631776 .66600039 .30926515V.076034549C.66600039 .0309906 .6549988 .0309906 .58799746 .0309906V0L.70098879 .0029907227 .8129883 0Z"/>
<path id="font_3_81" d="M.47099305 .21424866C.47099305 .34223939 .37098695 .4482422 .25 .4482422 .125 .4482422 .027999878 .3392334 .027999878 .21424866 .027999878 .085250858 .13198853-.0107421879 .24899292-.0107421879 .36999513-.0107421879 .47099305 .087249759 .47099305 .21424866M.3880005 .22224427C.3880005 .18624878 .3880005 .13224793 .3659973 .08824158 .34399415 .04324341 .2999878 .014251709 .25 .014251709 .20698548 .014251709 .16299439 .035247804 .13598633 .08125305 .11099243 .12524414 .11099243 .18624878 .11099243 .22224427 .11099243 .26124574 .11099243 .31523133 .1349945 .35923768 .1619873 .40522767 .20899964 .426239 .24899292 .426239 .29299928 .426239 .33599855 .40423585 .3619995 .36123658 .3880005 .3182373 .3880005 .26023866 .3880005 .22224427Z"/>
<path id="font_3_77" d="M.5349884 0V.0309906C.48298646 .0309906 .45799256 .0309906 .45700074 .061019899V.25221253C.45700074 .3383026 .45700074 .36932374 .42599488 .405365 .4119873 .42237855 .3789978 .4423828 .32099916 .4423828 .24798584 .4423828 .20098877 .39935304 .17298889 .33729554V.4423828L.03199768 .43066407V.3996582C.101989749 .3996582 .10998535 .39266969 .10998535 .34370423V.07595825C.10998535 .0309906 .09899902 .0309906 .03199768 .0309906V0L.14498902 .0029907227 .25698854 0V.0309906C.18998719 .0309906 .1789856 .0309906 .1789856 .07595825V.25978089C.1789856 .36431886 .25 .42037965 .31399537 .42037965 .3769989 .42037965 .3880005 .36631776 .3880005 .30926515V.076034549C.3880005 .0309906 .3769989 .0309906 .30999757 .0309906V0L.4229889 .0029907227 .5349884 0Z"/>
<path id="font_3_35" d="M.5209961 .2163086C.5209961 .34335328 .4229889 .4423828 .30899049 .4423828 .23098755 .4423828 .18798828 .39537049 .17199707 .3773651V.69433596L.027999878 .68333438V.6523285C.09799194 .6523285 .10598755 .6453247 .10598755 .596344V.00024414063H.1309967L.16699219 .06227112C.18199158 .039260866 .22399903-.0107421879 .2979889-.0107421879 .4169922-.0107421879 .5209961 .08728027 .5209961 .2163086M.43798829 .21731568C.43798829 .18029785 .43598939 .120285037 .40699769 .07527161 .38598634 .044265748 .34799195 .011245728 .2939911 .011245728 .24899292 .011260986 .21299744 .03526306 .18899536 .072265628 .1749878 .09326172 .1749878 .09625244 .1749878 .11425781V.32034303C.1749878 .3393402 .1749878 .3403473 .18598938 .35635377 .22499085 .41236878 .27999879 .42037965 .3039856 .42037965 .34899903 .42037965 .3849945 .3943634 .40899659 .35635377 .43499757 .31533814 .43798829 .25831605 .43798829 .21730042V.21731568Z"/>
<path id="font_3_43" d="M.4149933 .119140628C.4149933 .12911988 .40499879 .12911988 .4019928 .12911988 .3929901 .12911988 .3909912 .12512207 .3889923 .119140628 .3600006 .026229859 .29499818 .014251709 .2579956 .014251709 .20498657 .014251709 .116989139 .0572052 .116989139 .21801758 .116989139 .38093568 .19898987 .42323304 .2519989 .42323304 .26098634 .42323304 .32398988 .42222596 .35899354 .38594056 .31799317 .38293458 .31199647 .3529358 .31199647 .3399353 .31199647 .31393434 .32998658 .2939453 .35798646 .2939453 .38398744 .2939453 .4039917 .3109436 .4039917 .34094239 .4039917 .40911866 .32798768 .4482422 .25099183 .4482422 .12599182 .4482422 .033996583 .3399353 .033996583 .21601868 .033996583 .08816528 .1329956-.0107421879 .24899292-.0107421879 .3829956-.0107421879 .4149933 .10914612 .4149933 .119140628Z"/>
<path id="font_3_70" d="M.5109863 0V.0309906C.47399903 .0309906 .45199586 .0309906 .4139862 .0839386L.2869873 .26278688C.28599549 .26478578 .2809906 .2707672 .2809906 .2737732 .2809906 .277771 .35198976 .33770753 .3619995 .34570313 .4249878 .39666749 .46699525 .39865113 .48799134 .3996582V.43066407C.45899964 .42765809 .44599916 .42765809 .41799928 .42765809 .38198854 .42765809 .31999208 .42965699 .30599977 .43066407V.3996582C.32499696 .39865113 .33499146 .3876648 .33499146 .37467958 .33499146 .3547058 .32099916 .3427124 .31298829 .33570863L.17199707 .21382141V.69433596L.027999878 .6826172V.6516113C.09799194 .6516113 .10598755 .64460757 .10598755 .5956421V.07595825C.10598755 .0309906 .09498596 .0309906 .027999878 .0309906V0L.13699341 .0029907227 .24699402 0V.0309906C.17999268 .0309906 .16899109 .0309906 .16899109 .07595825V.17889405L.23298645 .23387146C.30999757 .12792969 .35198976 .07196045 .35198976 .053985597 .35198976 .034988405 .33499146 .0309906 .31599427 .0309906V0L.42399598 .0029907227C.45298768 .0029907227 .48199464 .0019989014 .5109863 0Z"/>
<path id="font_5_2" d="M.13198853 .327713V.35173036C.13198853 .6047821 .2559967 .64100649 .30699159 .64100649 .33099366 .64100649 .37298585 .634964 .394989 .6007538 .37998963 .6007538 .33999635 .6007538 .33999635 .5557556 .33999635 .524765 .3639984 .5097656 .38598634 .5097656 .4019928 .5097656 .43199159 .51875308 .43199159 .5577545 .43199159 .6178589 .3880005 .6660156 .30499269 .6660156 .1769867 .6660156 .041992189 .5367584 .041992189 .31570436 .041992189 .048553468 .1579895-.022460938 .25099183-.022460938 .3619995-.022460938 .45700074 .07156372 .45700074 .2036438 .45700074 .33070375 .36799623 .4267578 .25698854 .4267578 .18899536 .4267578 .1519928 .37573243 .13198853 .327713M.25099183 .0055389406C.18798828 .0055389406 .1579895 .06556702 .1519928 .080566409 .13398743 .127594 .13398743 .2076416 .13398743 .22564698 .13398743 .30369569 .1659851 .40374757 .2559967 .40374757 .27198792 .40374757 .31799317 .40374757 .34899903 .34172059 .36698915 .30470277 .36698915 .2536621 .36698915 .20463562 .36698915 .15661621 .36698915 .10658264 .34999085 .0705719 .31999208 .010528564 .27398683 .0055389406 .25099183 .0055389406Z"/>
<path id="font_5_1" d="M.45999146 .31976319C.45999146 .39982606 .45498658 .47988893 .41999818 .5539398 .37399293 .65000918 .2919922 .6660156 .25 .6660156 .18998719 .6660156 .116989139 .64001467 .07598877 .54693606 .04399109 .47789 .038986207 .39982606 .038986207 .31976319 .038986207 .24472046 .042999269 .15464783 .083999637 .07859802 .1269989-.0024719239 .19999695-.022460938 .24899292-.022460938 .30299378-.022460938 .3789978-.0014648438 .4229889 .09359741 .45498658 .16265869 .45999146 .2407074 .45999146 .31976319M.24899292-.00047302247C.20999146-.00047302247 .15098572 .024551392 .1329956 .12062073 .12199402 .18066406 .12199402 .2727356 .12199402 .3317871 .12199402 .39582826 .12199402 .46188355 .12998963 .5159149 .14898682 .63500979 .22399903 .64401248 .24899292 .64401248 .28199769 .64401248 .34799195 .6259918 .36698915 .52693179 .3769989 .47088624 .3769989 .39482118 .3769989 .3317871 .3769989 .25672914 .3769989 .18867493 .3659973 .12461853 .35099793 .029556275 .2939911-.00047302247 .24899292-.00047302247Z"/>
<path id="font_6_1" d="M.5069885 .24998474C.5069885 .3710022 .4099884 .4650116 .2919922 .4650116 .17199707 .4650116 .07699585 .36799623 .07699585 .25097657 .07699585 .1299591 .17399597 .035949708 .2919922 .035949708 .4119873 .035949708 .5069885 .13296509 .5069885 .24998474M.2919922 .08496094C.19799805 .08496094 .12599182 .16096497 .12599182 .24998474 .12599182 .34300233 .19999695 .41601563 .2919922 .41601563 .38598634 .41601563 .45799256 .33999635 .45799256 .25097657 .45799256 .15795899 .38398744 .08496094 .2919922 .08496094Z"/>
</defs>
<path transform="matrix(1,0,0,-1.00002,115.27901,115.02101)" d="M-113.38728 0H113.38728V113.38728H-113.38728" fill="#008080"/>
<path transform="matrix(1,0,0,-1.00002,115.27901,115.02101)" d="M-113.38728 0H113.38728V-113.38728H-113.38728" fill="#fff200" fill-opacity=".75"/>
<g clip-path="url(#clip_1)">
<rect transform="matrix(1,0,0,-1,-154,735)" fill="url(#pattern_2)" x="155.89173" y="506.58943" width="226.77457" height="113.38959"/>
</g>
<path transform="matrix(1,0,0,-1.00002,115.27901,115.02101)" stroke-width=".99628" stroke-linecap="butt" stroke-miterlimit="10" stroke-linejoin="miter" fill="none" stroke="#0000ff" d="M0 0C1.07846 .62263 .3724 3.09093 1.4509 3.71358 2.23172 4.16438 3.51239 3.50027 4.85316 2.80191 6.19392 2.10353 7.47461 1.43945 8.25543 1.89026 9.03624 2.34105 9.10149 3.78218 9.16708 5.29251 9.23267 6.80283 9.29793 8.24397 10.07875 8.69478 10.85957 9.14558 12.14024 8.48148 13.48102 7.78311 14.82176 7.08473 16.10246 6.42065 16.88329 6.87146 17.6641 7.32225 17.72934 8.76338 17.79494 10.27371 17.86052 11.78403 17.92578 13.22517 18.7066 13.67598 19.48743 14.12679 20.7681 13.46268 22.10887 12.76431 23.44962 12.06593 24.73032 11.40186 25.51114 11.85266 26.29195 12.30345 26.3572 13.74458 26.42279 15.25491 26.48837 16.76523 26.55363 18.20639 27.33446 18.65718 28.11528 19.10799 29.39595 18.44388 30.73672 17.74551 32.07747 17.04713 33.35817 16.38306 34.13898 16.83386 34.9198 17.28465 34.98505 18.72578 35.05064 20.23611 35.11623 21.74644 35.18149 23.18759 35.96231 23.63838 36.74313 24.08919 38.0238 23.42508 39.36458 22.72672 40.70532 22.02834 41.98602 21.36426 42.76683 21.81506 43.54765 22.26585 43.6129 23.70699 43.6785 25.21732 43.74408 26.72765 43.80934 28.1688 44.59016 28.61958 45.37099 29.07039 46.65166 28.40628 47.99243 27.70792 49.33318 27.00955 50.61388 26.34546 51.39468 26.79626 52.1755 27.24706 52.24075 28.68819 52.30635 30.19853 52.37193 31.70885 52.4372 33.15 53.21802 33.60078 53.99884 34.05159 55.27951 33.3875 56.62029 32.68913 57.96103 31.99075 59.24171 31.32666 60.02254 31.77747 60.80336 32.22826 60.8686 33.66939 60.9342 35.17973 60.99979 36.69005 61.06505 38.1312 61.84587 38.58199 62.62668 39.03279 63.90736 38.3687 65.24812 37.67033 66.58888 36.97195 67.86957 36.30786 68.65039 36.75867 69.43121 37.20946 69.49646 38.6506 69.56206 40.16093 69.62764 41.67125 69.6929 43.1124 70.47372 43.56319 71.25453 44.01399 72.53522 43.3499 73.87598 42.65154 75.21674 41.95316 76.49742 41.28906 77.27824 41.73987 78.05907 42.19067 78.12431 43.6318 78.18991 45.14214 78.2555 46.65245 78.32076 48.0936 79.10158 48.54439 79.88239 48.9952 81.16307 48.3311 82.50383 47.63274 83.84459 46.93436 85.12527 46.27026 85.9061 46.72107 86.68692 47.17188 86.75217 48.613 86.81776 50.12334 86.88335 51.63365 86.94861 53.0748 87.72943 53.52559 88.51024 53.9764 89.79092 53.3123 91.13168 52.61394 92.47244 51.91556 93.75313 51.25146 94.53395 51.70227 95.31477 52.15308 95.38002 53.59421 95.44562 55.10454 95.5112 56.61485 95.57646 58.056 96.35727 58.50679 97.13809 58.9576 98.41878 58.2935 99.75954 57.59514 101.1003 56.89676 102.38098 56.23267 103.1618 56.68347 103.94263 57.13428 104.00787 58.57541 104.07347 60.08574 104.13905 61.59605 104.20432 63.0372 104.98512 63.488 105.76595 63.9388 107.04663 63.2747 108.38739 62.57634 109.72815 61.87796 111.00883 61.21387 111.78966 61.66467 112.86852 62.2877 112.16246 64.756 113.24094 65.37863L113.38728 65.46376"/>
<path transform="matrix(1,0,0,-1.00002,115.27901,115.02101)" stroke-width=".99628" stroke-linecap="butt" stroke-miterlimit="10" stroke-linejoin="miter" fill="none" stroke="#0000ff" d="M-113.38728 0C-112.3088 .62263-113.01486 3.09093-111.93637 3.71358-111.15555 4.16438-109.87488 3.50027-108.5341 2.80191-107.19336 2.10353-105.91266 1.43945-105.13184 1.89026-104.35103 2.34105-104.28578 3.78218-104.22018 5.29251-104.1546 6.80283-104.08934 8.24397-103.30852 8.69478-102.5277 9.14558-101.24702 8.48148-99.90625 7.78311-98.5655 7.08473-97.2848 6.42065-96.504 6.87146-95.72318 7.32225-95.65793 8.76338-95.59233 10.27371-95.52675 11.78403-95.46149 13.22517-94.68066 13.67598-93.89984 14.12679-92.61917 13.46268-91.2784 12.76431-89.93765 12.06593-88.65695 11.40186-87.87614 11.85266-87.09532 12.30345-87.03008 13.74458-86.96448 15.25491-86.8989 16.76523-86.83363 18.20639-86.05281 18.65718-85.27199 19.10799-83.99132 18.44388-82.65054 17.74551-81.3098 17.04713-80.0291 16.38306-79.24829 16.83386-78.46747 17.28465-78.40222 18.72578-78.33662 20.23611-78.27104 21.74644-78.20578 23.18759-77.42496 23.63838-76.64413 24.08919-75.36346 23.42508-74.02269 22.72672-72.68195 22.02834-71.40125 21.36426-70.62044 21.81506-69.83961 22.26585-69.77437 23.70699-69.70877 25.21732-69.64319 26.72765-69.57793 28.1688-68.7971 28.61958-68.0163 29.07039-66.73561 28.40628-65.39485 27.70792-64.0541 27.00955-62.7734 26.34546-61.99258 26.79626-61.21176 27.24706-61.14651 28.68819-61.08092 30.19853-61.01534 31.70885-60.95007 33.15-60.16925 33.60078-59.38844 34.05159-58.10776 33.3875-56.767 32.68913-55.42624 31.99075-54.14555 31.32666-53.36473 31.77747-52.58391 32.22826-52.51866 33.66939-52.45306 35.17973-52.38748 36.69005-52.32222 38.1312-51.5414 38.58199-50.76059 39.03279-49.4799 38.3687-48.13914 37.67033-46.79839 36.97195-45.5177 36.30786-44.73688 36.75867-43.95605 37.20946-43.89081 38.6506-43.82521 40.16093-43.75963 41.67125-43.69437 43.1124-42.91354 43.56319-42.13274 44.01399-40.85205 43.3499-39.51129 42.65154-38.17053 41.95316-36.88985 41.28906-36.10902 41.73987-35.3282 42.19067-35.26295 43.6318-35.19736 45.14214-35.13177 46.65245-35.06651 48.0936-34.2857 48.54439-33.50488 48.9952-32.2242 48.3311-30.88344 47.63274-29.54268 46.93436-28.262 46.27026-27.48117 46.72107-26.70035 47.17188-26.6351 48.613-26.5695 50.12334-26.50392 51.63365-26.43866 53.0748-25.65785 53.52559-24.87703 53.9764-23.59634 53.3123-22.25558 52.61394-20.91483 51.91556-19.63414 51.25146-18.85332 51.70227-18.0725 52.15308-18.00725 53.59421-17.94165 55.10454-17.87607 56.61485-17.8108 58.056-17.03 58.50679-16.24918 58.9576-14.9685 58.2935-13.62773 57.59514-12.28697 56.89676-11.00629 56.23267-10.22546 56.68347-9.44464 57.13428-9.3794 58.57541-9.3138 60.08574-9.24821 61.59605-9.18295 63.0372-8.40215 63.488-7.62132 63.9388-6.34065 63.2747-4.99988 62.57634-3.65912 61.87796-2.37843 61.21387-1.59761 61.66467-.81679 62.11548-.75154 63.55661-.68596 65.06694-.62038 66.57726-.55511 68.0184 .2257 68.46921 1.00652 68.92 2.28719 68.2559 3.62796 67.55754 4.96872 66.85916 6.2494 66.19508 7.03023 66.64587 7.81104 67.09668 7.8763 68.53781 7.94188 70.04814 8.00746 71.55846 8.07272 72.9996 8.85355 73.45041 9.63437 73.9012 10.91504 73.2371 12.25581 72.53874 13.59657 71.84036 14.87726 71.17628 15.65808 71.62708 16.43889 72.07788 16.50414 73.51901 16.56973 75.02934 16.63531 76.53966 16.70058 77.9808 17.4814 78.43161 18.26222 78.8824 19.5429 78.2183 20.88367 77.51994 22.22441 76.82156 23.50511 76.15749 24.28593 76.60828 25.06674 77.05908 25.13199 78.50021 25.19759 80.01054 25.26317 81.52086 25.32843 82.962 26.10925 83.41281 26.89008 83.8636 28.17075 83.19951 29.51152 82.50114 30.85226 81.80276 32.13297 81.13869 32.91379 81.58948 33.6946 82.04028 33.75984 83.48141 33.82544 84.99174 33.89102 86.50206 33.95628 87.9432 34.7371 88.39401 35.51793 88.8448 36.7986 88.18071 38.13937 87.48235 39.48012 86.78397 40.76082 86.11989 41.54163 86.57068 42.32245 87.02148 42.3877 88.46262 42.4533 89.97295 42.51888 91.48326 42.58414 92.92441 43.36496 93.37521 44.14578 93.826 45.42645 93.16191 46.76723 92.46355 48.10797 91.76517 49.38867 91.10109 50.16948 91.55188 50.9503 92.00269 51.01555 93.44382 51.08115 94.95415 51.14673 96.46446 51.21199 97.90561 51.99281 98.35641 52.77364 98.8072 54.0543 98.14311 55.39508 97.44475 56.73582 96.74637 58.01653 96.08229 58.79733 96.53308 59.57816 96.98389 59.6434 98.42502 59.709 99.93535 59.77458 101.44566 59.83984 102.88681 60.62067 103.33762 61.40149 103.7884 62.68216 103.12431 64.02293 102.42595 65.36368 101.72757 66.64438 101.06349 67.42519 101.51428 68.20601 101.96509 68.27126 103.40622 68.33685 104.91655 68.40244 106.42686 68.4677 107.86801 69.24852 108.31882 70.02933 108.76962 71.31001 108.10551 72.65077 107.40715 73.99153 106.70877 75.27222 106.0447 76.05304 106.49548 76.83386 106.94629 76.89911 108.38742 76.9647 109.89775 77.03029 111.40807 77.09555 112.84921 77.87637 113.30002 78.9555 113.92332 80.74005 112.0777 81.81854 112.70035L83.00574 113.38724"/>
<use data-text="W" xlink:href="#font_3_113" transform="matrix(8.627711,-4.9812,-4.9811007,-8.627884,85.18811,59.96527)"/>
<use data-text="a" xlink:href="#font_3_28" transform="matrix(8.627711,-4.9812,-4.9811007,-8.627884,93.34129,55.258035)"/>
<use data-text="v" xlink:href="#font_3_112" transform="matrix(8.627711,-4.9812,-4.9811007,-8.627884,97.413578,52.906915)"/>
<use data-text="e" xlink:href="#font_3_50" transform="matrix(8.627711,-4.9812,-4.9811007,-8.627884,101.72743,50.416307)"/>
<use data-text="s" xlink:href="#font_3_98" transform="matrix(8.627711,-4.9812,-4.9811007,-8.627884,105.55815,48.20465)"/>
<path transform="matrix(1,0,0,-1.00002,115.27901,115.02101)" stroke-width=".99628" stroke-linecap="butt" stroke-miterlimit="10" stroke-linejoin="miter" fill="none" stroke="#0000ff" d="M-113.38728 65.46378C-112.3088 66.08641-113.01486 68.55472-111.93637 69.17735-111.15555 69.62816-109.87488 68.96405-108.5341 68.26569-107.19336 67.5673-105.91266 66.90323-105.13184 67.35403-104.35103 67.80482-104.28578 69.24596-104.22018 70.75629-104.1546 72.26662-104.08934 73.70776-103.30852 74.15855-102.5277 74.60936-101.24702 73.94525-99.90625 73.24689-98.5655 72.54852-97.2848 71.88443-96.504 72.33524-95.72318 72.78603-95.65793 74.22716-95.59233 75.73749-95.52675 77.24782-95.46149 78.68896-94.68066 79.13976-93.89984 79.59056-92.61917 78.92645-91.2784 78.2281-89.93765 77.52972-88.65695 76.86563-87.87614 77.31644-87.09532 77.76723-87.03008 79.20836-86.96448 80.7187-86.8989 82.22902-86.83363 83.67017-86.05281 84.12096-85.27199 84.57176-83.99132 83.90767-82.65054 83.2093-81.3098 82.51093-80.0291 81.84683-79.24829 82.29764-78.46747 82.74843-78.40222 84.18956-78.33662 85.6999-78.27104 87.21022-78.20578 88.65137-77.42496 89.10216-76.64413 89.55296-75.36346 88.88887-74.02269 88.1905-72.68195 87.49213-71.40125 86.82803-70.62044 87.27884-69.83961 87.72963-69.77437 89.17078-69.70877 90.6811-69.64319 92.19142-69.57793 93.63257-68.7971 94.08336-68.0163 94.53416-66.73561 93.87007-65.39485 93.1717-64.0541 92.47333-62.7734 91.80923-61.99258 92.26004-61.21176 92.71085-61.14651 94.15198-61.08092 95.66231-61.01534 97.17262-60.95007 98.61377-60.16925 99.06456-59.38844 99.51537-58.10776 98.85127-56.767 98.15291-55.42624 97.45453-54.14555 96.79044-53.36473 97.24124-52.58391 97.69205-52.51866 99.13318-52.45306 100.64351-52.38748 102.15382-52.32222 103.59497-51.5414 104.04576-50.76059 104.49657-49.4799 103.83247-48.13914 103.13411-46.79839 102.43573-45.5177 101.77164-44.73688 102.22244-43.95605 102.67325-43.89081 104.11438-43.82521 105.62471-43.75963 107.13503-43.69437 108.57617-42.91354 109.02698-42.13274 109.47777-40.85205 108.81367-39.51129 108.11531-38.17053 107.41693-36.88985 106.75284-36.10902 107.20364-35.03029 107.82655-35.73634 110.29485-34.65785 110.91748L-34.69519 110.89595"/>
<path transform="matrix(1,0,0,-1.00002,115.27901,115.02101)" stroke-width="1.99255" stroke-linecap="butt" stroke-miterlimit="10" stroke-linejoin="miter" fill="none" stroke="#000000" d="M0 0 53.0075-91.81189"/>
<path transform="matrix(.49998,.86602738,.86601,-.49999003,168.2865,206.83475)" d="M4.38364 0-2.63017 3.50691 0 0-2.63017-3.50691"/>
<use data-text="1" xlink:href="#font_3_82" transform="matrix(4.9811007,8.627884,8.627711,-4.9812,128.65464,160.87001)"/>
<use data-text="0" xlink:href="#font_3_121" transform="matrix(4.9811007,8.627884,8.627711,-4.9812,131.14519,165.18395)"/>
<use data-text="f" xlink:href="#font_3_55" transform="matrix(4.9811007,8.627884,8.627711,-4.9812,135.28946,172.36235)"/>
<use data-text="t" xlink:href="#font_3_105" transform="matrix(4.9811007,8.627884,8.627711,-4.9812,136.81368,175.00247)"/>
<path transform="matrix(1,0,0,-1.00002,115.27901,115.02101)" stroke-width="1.99255" stroke-linecap="butt" stroke-miterlimit="10" stroke-linejoin="miter" fill="none" stroke="#000000" d="M56.69363 0 109.70114-91.81189"/>
<path transform="matrix(.49998,.86602738,.86601,-.49999003,224.98015,206.83475)" d="M4.38364 0-2.63017 3.50691 0 0-2.63017-3.50691"/>
<path transform="matrix(1,0,0,-1.00002,115.27901,115.02101)" stroke-width="1.99255" stroke-linecap="butt" stroke-miterlimit="10" stroke-linejoin="miter" fill="none" stroke="#000000" d="M-56.69363 0-3.68611-91.81189"/>
<path transform="matrix(.49998,.86602738,.86601,-.49999003,111.592899,206.83475)" d="M4.38364 0-2.63017 3.50691 0 0-2.63017-3.50691"/>
<path transform="matrix(1,0,0,-1.00002,115.27901,115.02101)" stroke-width="1.99255" stroke-linecap="butt" stroke-miterlimit="10" stroke-linejoin="miter" fill="none" stroke="#000000" d="M-113.38728 0-60.37976-91.81189"/>
<path transform="matrix(.49998,.86602738,.86601,-.49999003,54.899248,206.83475)" d="M4.38364 0-2.63017 3.50691 0 0-2.63017-3.50691"/>
<use data-text="s" xlink:href="#font_3_98" transform="matrix(4.9811007,8.627884,8.627711,-4.9812,14.191643,158.78697)"/>
<use data-text="w" xlink:href="#font_3_114" transform="matrix(4.9811007,8.627884,8.627711,-4.9812,16.154198,162.18636)"/>
<use data-text="a" xlink:href="#font_3_28" transform="matrix(4.9811007,8.627884,8.627711,-4.9812,19.611084,168.17412)"/>
<use data-text="s" xlink:href="#font_3_98" transform="matrix(4.9811007,8.627884,8.627711,-4.9812,22.101624,172.48805)"/>
<use data-text="h" xlink:href="#font_3_63" transform="matrix(4.9811007,8.627884,8.627711,-4.9812,24.064179,175.88744)"/>
<path transform="matrix(1,0,0,-1.00002,115.27901,115.02101)" stroke-width="1.99255" stroke-linecap="butt" stroke-dasharray="2.98883,2.98883" stroke-miterlimit="10" stroke-linejoin="miter" fill="none" stroke="#000000" d="M0 0H50.31743"/>
<path transform="matrix(1,0,0,-1.00002,165.59644,115.02101)" d="M4.38364 0-2.63017 3.50691 0 0-2.63017-3.50691"/>
<use data-text="x" xlink:href="#font_4_1" transform="matrix(9.9626,0,0,-9.962799,150.742,123.62718)"/>
<path transform="matrix(1,0,0,-1.00002,115.27901,115.02101)" stroke-width="1.99255" stroke-linecap="butt" stroke-dasharray="2.98883,2.98883" stroke-miterlimit="10" stroke-linejoin="miter" fill="none" stroke="#000000" d="M56.69363 0H107.01108"/>
<path transform="matrix(1,0,0,-1.00002,222.29009,115.02101)" d="M4.38364 0-2.63017 3.50691 0 0-2.63017-3.50691"/>
<path transform="matrix(1,0,0,-1.00002,115.27901,115.02101)" stroke-width="1.99255" stroke-linecap="butt" stroke-dasharray="2.98883,2.98883" stroke-miterlimit="10" stroke-linejoin="miter" fill="none" stroke="#000000" d="M-56.69363 0H-6.37619"/>
<path transform="matrix(1,0,0,-1.00002,108.90282,115.02101)" d="M4.38364 0-2.63017 3.50691 0 0-2.63017-3.50691"/>
<path transform="matrix(1,0,0,-1.00002,115.27901,115.02101)" stroke-width="1.99255" stroke-linecap="butt" stroke-dasharray="2.98883,2.98883" stroke-miterlimit="10" stroke-linejoin="miter" fill="none" stroke="#000000" d="M-113.38728 0H-63.06982"/>
<path transform="matrix(1,0,0,-1.00002,52.209188,115.02101)" d="M4.38364 0-2.63017 3.50691 0 0-2.63017-3.50691"/>
<use data-text="m" xlink:href="#font_3_75" transform="matrix(9.9626,0,0,-9.962799,8.106003,125.465229)"/>
<use data-text="o" xlink:href="#font_3_81" transform="matrix(9.9626,0,0,-9.962799,16.404847,125.465229)"/>
<use data-text="v" xlink:href="#font_3_112" transform="matrix(9.9626,0,0,-9.962799,21.107193,125.465229)"/>
<use data-text="e" xlink:href="#font_3_50" transform="matrix(9.9626,0,0,-9.962799,26.088501,125.465229)"/>
<use data-text="m" xlink:href="#font_3_75" transform="matrix(9.9626,0,0,-9.962799,30.511902,125.465229)"/>
<use data-text="e" xlink:href="#font_3_50" transform="matrix(9.9626,0,0,-9.962799,38.810747,125.465229)"/>
<use data-text="n" xlink:href="#font_3_77" transform="matrix(9.9626,0,0,-9.962799,43.234148,125.465229)"/>
<use data-text="t" xlink:href="#font_3_105" transform="matrix(9.9626,0,0,-9.962799,48.4944,125.465229)"/>
<path transform="matrix(1,0,0,-1.00002,115.27901,115.02101)" stroke-width="1.99255" stroke-linecap="butt" stroke-miterlimit="10" stroke-linejoin="miter" fill="none" stroke="#000000" d="M56.69363-98.19653V-7.37247"/>
<path transform="matrix(0,-1.00002,-1,-0,171.97264,122.39363)" d="M4.38364 0-2.63017 3.50691 0 0-2.63017-3.50691"/>
<path transform="matrix(1,0,0,-1.00002,115.27901,115.02101)" stroke-width="1.99255" stroke-linecap="butt" stroke-miterlimit="10" stroke-linejoin="miter" fill="none" stroke="#000000" d="M113.38727-98.19653 113.38728-7.37247"/>
<path transform="matrix(0,-1.00002,-1,-0,228.66629,122.39363)" d="M4.38364 0-2.63017 3.50691 0 0-2.63017-3.50691"/>
<path transform="matrix(1,0,0,-1.00002,115.27901,115.02101)" stroke-width="1.99255" stroke-linecap="butt" stroke-miterlimit="10" stroke-linejoin="miter" fill="none" stroke="#000000" d="M0-98.19653V-7.37247"/>
<path transform="matrix(0,-1.00002,-1,-0,115.27901,122.39363)" d="M4.38364 0-2.63017 3.50691 0 0-2.63017-3.50691"/>
<path transform="matrix(1,0,0,-1.00002,115.27901,115.02101)" stroke-width="1.99255" stroke-linecap="butt" stroke-miterlimit="10" stroke-linejoin="miter" fill="none" stroke="#000000" d="M-56.69365-98.19653-56.69363-7.37247"/>
<path transform="matrix(0,-1.00002,-1,-0,58.585378,122.39363)" d="M4.38364 0-2.63017 3.50691 0 0-2.63017-3.50691"/>
<use data-text="b" xlink:href="#font_3_35" transform="matrix(0,9.962799,9.9626,0,47.355005,143.47757)"/>
<use data-text="a" xlink:href="#font_3_28" transform="matrix(0,9.962799,9.9626,0,47.355005,149.01688)"/>
<use data-text="c" xlink:href="#font_3_43" transform="matrix(0,9.962799,9.9626,0,47.355005,153.99829)"/>
<use data-text="k" xlink:href="#font_3_70" transform="matrix(0,9.962799,9.9626,0,47.355005,158.14282)"/>
<use data-text="w" xlink:href="#font_3_114" transform="matrix(0,9.962799,9.9626,0,47.355005,163.40317)"/>
<use data-text="a" xlink:href="#font_3_28" transform="matrix(0,9.962799,9.9626,0,47.355005,170.31735)"/>
<use data-text="s" xlink:href="#font_3_98" transform="matrix(0,9.962799,9.9626,0,47.355005,175.29877)"/>
<use data-text="h" xlink:href="#font_3_63" transform="matrix(0,9.962799,9.9626,0,47.355005,179.22409)"/>
<path transform="matrix(1,0,0,-1.00002,115.27901,115.02101)" stroke-width=".3985" stroke-linecap="butt" stroke-miterlimit="10" stroke-linejoin="miter" fill="none" stroke="#000000" d="M17.00739 0C17.00739-6.07544 13.76503-11.69128 8.5037-14.72887"/>
<use data-text="6" xlink:href="#font_5_2" transform="matrix(9.9626,0,0,-9.962799,129.543,132.93238)"/>
<use data-text="0" xlink:href="#font_5_1" transform="matrix(9.9626,0,0,-9.962799,134.52429,132.93238)"/>
<use data-text="&#x25e6;" xlink:href="#font_6_1" transform="matrix(6.9738,0,0,-6.97394,139.505,129.31729)"/>
<path transform="matrix(1,0,0,-1.00002,115.27901,115.02101)" stroke-width=".3985" stroke-linecap="butt" stroke-miterlimit="10" stroke-linejoin="miter" fill="none" stroke="#000000" d="M45.35422 0V-11.3394H56.69363"/>
<path transform="matrix(1,0,0,-1.00002,115.27901,115.02101)" stroke-width="1.99255" stroke-linecap="butt" stroke-miterlimit="10" stroke-linejoin="miter" fill="none" stroke="#0000ff" d="M-56.69363 98.19653-46.20633 80.03204"/>
<path transform="matrix(.49998,.86602738,.86601,-.49999003,69.07268,34.987367)" d="M4.38364 0-2.63017 3.50691 0 0-2.63017-3.50691" fill="#0000ff"/>
<path transform="matrix(1,0,0,-1.00002,115.27901,115.02101)" stroke-width="1.99255" stroke-linecap="butt" stroke-miterlimit="10" stroke-linejoin="miter" fill="none" stroke="#0000ff" d="M-99.21385 73.6474-88.72655 55.48291"/>
<path transform="matrix(.49998,.86602738,.86601,-.49999003,26.55246,59.53699)" d="M4.38364 0-2.63017 3.50691 0 0-2.63017-3.50691" fill="#0000ff"/>
<path transform="matrix(1,0,0,-1.00002,115.27901,115.02101)" stroke-width="1.99255" stroke-linecap="butt" stroke-miterlimit="10" stroke-linejoin="miter" fill="none" stroke="#0000ff" d="M-8.77185 113.38728-3.68657 104.58093"/>
<path transform="matrix(.50005,.8659974,.86598,-.50006,111.59243,10.437965)" d="M4.38364 0-2.63017 3.50691 0 0-2.63017-3.50691" fill="#0000ff"/>
<path transform="matrix(1,0,0,-1.00002,115.27901,115.02101)" stroke-width="1.99255" stroke-linecap="butt" stroke-miterlimit="10" stroke-linejoin="miter" fill="none" stroke="#0000ff" d="M-70.86702 24.54913-60.37973 6.38464"/>
<path transform="matrix(.49998,.86602738,.86601,-.49999003,54.899278,108.636249)" d="M4.38364 0-2.63017 3.50691 0 0-2.63017-3.50691" fill="#0000ff"/>
<path transform="matrix(1,0,0,-1.00002,115.27901,115.02101)" stroke-width="1.99255" stroke-linecap="butt" stroke-miterlimit="10" stroke-linejoin="miter" fill="none" stroke="#0000ff" d="M-28.3468 49.09827-17.8595 30.93376"/>
<path transform="matrix(.49998,.86602738,.86601,-.49999003,97.41951,84.08663)" d="M4.38364 0-2.63017 3.50691 0 0-2.63017-3.50691" fill="#0000ff"/>
<path transform="matrix(1,0,0,-1.00002,115.27901,115.02101)" stroke-width="1.99255" stroke-linecap="butt" stroke-miterlimit="10" stroke-linejoin="miter" fill="none" stroke="#0000ff" d="M14.1734 73.64738 24.6607 55.4829"/>
<path transform="matrix(.49998,.86602738,.86601,-.49999003,139.93972,59.537004)" d="M4.38364 0-2.63017 3.50691 0 0-2.63017-3.50691" fill="#0000ff"/>
<path transform="matrix(1,0,0,-1.00002,115.27901,115.02101)" stroke-width="1.99255" stroke-linecap="butt" stroke-miterlimit="10" stroke-linejoin="miter" fill="none" stroke="#0000ff" d="M56.69365 98.19653 67.18094 80.03204"/>
<path transform="matrix(.49998,.86602738,.86601,-.49999003,182.45995,34.987367)" d="M4.38364 0-2.63017 3.50691 0 0-2.63017-3.50691" fill="#0000ff"/>
<path transform="matrix(1,0,0,-1.00002,115.27901,115.02101)" stroke-width="1.99255" stroke-linecap="butt" stroke-miterlimit="10" stroke-linejoin="miter" fill="none" stroke="#0000ff" d="M104.61713 113.38728 109.70116 104.58118"/>
<path transform="matrix(.49998,.86602738,.86601,-.49999003,224.98017,10.4377369)" d="M4.38364 0-2.63017 3.50691 0 0-2.63017-3.50691" fill="#0000ff"/>
<path transform="matrix(1,0,0,-1.00002,115.27901,115.02101)" stroke-width="1.99255" stroke-linecap="butt" stroke-miterlimit="10" stroke-linejoin="miter" fill="none" stroke="#0000ff" d="M42.52022 24.54912 53.00749 6.38464"/>
<path transform="matrix(.49998,.86602738,.86601,-.49999003,168.2865,108.636249)" d="M4.38364 0-2.63017 3.50691 0 0-2.63017-3.50691" fill="#0000ff"/>
<path transform="matrix(1,0,0,-1.00002,115.27901,115.02101)" stroke-width="1.99255" stroke-linecap="butt" stroke-miterlimit="10" stroke-linejoin="miter" fill="none" stroke="#0000ff" d="M85.04045 49.09827 95.52774 30.93378"/>
<path transform="matrix(.49998,.86602738,.86601,-.49999003,210.80675,84.08661)" d="M4.38364 0-2.63017 3.50691 0 0-2.63017-3.50691" fill="#0000ff"/>
</svg>
