<svg xmlns="http://www.w3.org/2000/svg" xmlns:xlink="http://www.w3.org/1999/xlink" version="1.1" width="197" height="172" viewBox="0 0 197 172">
<defs>
<path id="font_1_1" d="M.6589966 .23046875C.6759949 .23046875 .69400027 .23046875 .69400027 .25045777 .69400027 .27046205 .6759949 .27046205 .6589966 .27046205H.117996219C.100997928 .27046205 .08299255 .27046205 .08299255 .25045777 .08299255 .23046875 .100997928 .23046875 .117996219 .23046875H.6589966Z"/>
<path id="font_2_1" d="M.2649994 .37265016H.37799073C.34498597 .22489929 .33599855 .18196106 .33599855 .11508179 .33599855 .100097659 .33599855 .073150638 .34399415 .03919983 .35398866-.0047454836 .36499024-.0107421879 .37998963-.0107421879 .3999939-.0107421879 .42099 .007247925 .42099 .02722168 .42099 .033218385 .42099 .035202028 .4149933 .049179079 .38598634 .12106323 .38598634 .18595886 .38598634 .21391297 .38598634 .26683045 .3929901 .32073976 .4039917 .37265016H.5179901C.5309906 .37265016 .5669861 .37265016 .5669861 .406662 .5669861 .43066407 .54599 .43066407 .5269928 .43066407H.19198609C.16999817 .43066407 .13198853 .43066407 .08799744 .38365174 .052993776 .34469605 .026992798 .29878236 .026992798 .29379273 .026992798 .29278565 .026992798 .28379823 .038986207 .28379823 .04699707 .28379823 .04899597 .28779603 .054992677 .29577638 .10398865 .37265016 .1619873 .37265016 .18199158 .37265016H.23899842C.20698548 .25186158 .15299988 .13105774 .11099243 .04020691 .102996829 .025222779 .102996829 .023223877 .102996829 .016235352 .102996829-.002746582 .11898804-.0107421879 .13198853-.0107421879 .1619873-.0107421879 .16999817 .017242432 .18199158 .05418396 .19599915 .100097659 .19599915 .10209656 .20899964 .15202332L.2649994 .37265016Z"/>
<path id="font_3_1" d="M.31098939 .36265565H.42999269C.4149933 .30274964 .3929901 .2118988 .3929901 .13302613 .3929901 .09309387 .397995 .06613159 .4039917 .044174196 .41999818-.0057678224 .43299867-.009765625 .44898988-.009765625 .47200013-.009765625 .49598695 .011230469 .49598695 .035186769 .49598695 .043182374 .49398805 .047164918 .48799134 .057159425 .46899415 .09408569 .45098878 .15100098 .45098878 .23286438 .45098878 .25183106 .45098878 .29177857 .46499635 .36265565H.58999636C.60798647 .36265565 .6159973 .36265565 .6269989 .37065126 .6409912 .380661 .6439972 .39665223 .6439972 .4016571 .6439972 .43066407 .6179962 .43066407 .6009979 .43066407H.22399903C.18299866 .43066407 .15499878 .42166139 .10998535 .37965394 .083999637 .35665895 .04499817 .30274964 .04499817 .2937622 .04499817 .28178407 .057998659 .28178407 .06199646 .28178407 .07299805 .28178407 .07398987 .28378297 .07998657 .2927704 .1309967 .36265565 .19299317 .36265565 .21499634 .36265565H.27598573C.24499512 .25283814 .19099427 .13502503 .16099549 .07511902 .15499878 .062149049 .14498902 .04118347 .14199829 .03718567 .14099121 .033187868 .13899231 .029190064 .13899231 .022201539 .13899231 .006225586 .15098572-.009765625 .17399597-.009765625 .21398926-.009765625 .22499085 .035186769 .24899292 .12504578L.31098939 .36265565Z"/>
<path id="font_4_1" d="M.5049896 .18203736H.47099305C.46798707 .16001892 .45799256 .100997928 .44499208 .09098816 .43699647 .084991458 .3600006 .084991458 .34599305 .084991458H.1619873C.2669983 .17803955 .3019867 .20603943 .3619995 .25306703 .43598939 .312088 .5049896 .374115 .5049896 .46914674 .5049896 .5900879 .39898683 .6640625 .2709961 .6640625 .14698792 .6640625 .06298828 .57710269 .06298828 .4851532 .06298828 .43414308 .10598755 .42915345 .115997318 .42915345 .13999939 .42915345 .16899109 .44615174 .16899109 .48214723 .16899109 .5001526 .1619873 .53515627 .10998535 .53515627 .14099121 .6060791 .20899964 .62805178 .2559967 .62805178 .35598756 .62805178 .4079895 .5501404 .4079895 .46914674 .4079895 .38212586 .34599305 .3130951 .31399537 .27708436L.07299805 .038986207C.06298828 .02999878 .06298828 .027999878 .06298828 0H.47499085L.5049896 .18203736Z"/>
<path id="font_5_2" d="M.2939911 .64004519C.2939911 .66400149 .2939911 .6660156 .2709961 .6660156 .20899964 .60227969 .12098694 .60227969 .08898926 .60227969V.57128909C.10899353 .57128909 .16799927 .57128909 .21998596 .5972748V.07902527C.21998596 .042999269 .21699524 .0309906 .1269989 .0309906H.09498596V0C.12998963 .0029907227 .21699524 .0029907227 .25698854 .0029907227 .29699708 .0029907227 .38398744 .0029907227 .4189911 0V.0309906H.3869934C.29699708 .0309906 .2939911 .041992189 .2939911 .07902527V.64004519Z"/>
<path id="font_5_1" d="M.45999146 .31976319C.45999146 .39982606 .45498658 .47988893 .41999818 .5539398 .37399293 .65000918 .2919922 .6660156 .25 .6660156 .18998719 .6660156 .116989139 .64001467 .07598877 .54693606 .04399109 .47789 .038986207 .39982606 .038986207 .31976319 .038986207 .24472046 .042999269 .15464783 .083999637 .07859802 .1269989-.0024719239 .19999695-.022460938 .24899292-.022460938 .30299378-.022460938 .3789978-.0014648438 .4229889 .09359741 .45498658 .16265869 .45999146 .2407074 .45999146 .31976319M.24899292-.00047302247C.20999146-.00047302247 .15098572 .024551392 .1329956 .12062073 .12199402 .18066406 .12199402 .2727356 .12199402 .3317871 .12199402 .39582826 .12199402 .46188355 .12998963 .5159149 .14898682 .63500979 .22399903 .64401248 .24899292 .64401248 .28199769 .64401248 .34799195 .6259918 .36698915 .52693179 .3769989 .47088624 .3769989 .39482118 .3769989 .3317871 .3769989 .25672914 .3769989 .18867493 .3659973 .12461853 .35099793 .029556275 .2939911-.00047302247 .24899292-.00047302247Z"/>
<path id="font_5_3" d="M.44898988 .20022583C.44898988 .3193512 .36698915 .41944886 .25898744 .41944886 .21099854 .41944886 .16799927 .40345765 .13198853 .36842347V.5637665C.1519928 .5577698 .18499756 .55078127 .21699524 .55078127 .33999635 .55078127 .4099884 .6417694 .4099884 .6547699 .4099884 .6607666 .40699769 .6657715 .3999939 .6657715 .39898683 .6657715 .39698792 .6657715 .3919983 .66278079 .37199403 .6537781 .32299806 .6337738 .2559967 .6337738 .21598816 .6337738 .16999817 .6407776 .12298584 .6617737 .114990238 .66477969 .11299133 .66477969 .11099243 .66477969 .100997928 .66477969 .100997928 .6567688 .100997928 .6407776V.34439088C.100997928 .32637025 .100997928 .31835938 .114990238 .31835938 .12199402 .31835938 .12399292 .32136537 .12799073 .32736207 .13899231 .3433838 .17599488 .39746095 .25698854 .39746095 .30899049 .39746095 .33399964 .35139466 .34199525 .33337403 .35798646 .29632569 .3600006 .25727845 .3600006 .20722962 .3600006 .17222595 .3600006 .11222839 .33599855 .07035828 .31199647 .031463624 .2749939 .0055389406 .22898865 .0055389406 .1559906 .0055389406 .09899902 .058380128 .08198547 .11723328 .084991458 .1162262 .08799744 .115234378 .09899902 .115234378 .13198853 .115234378 .14898682 .14022827 .14898682 .16423035 .14898682 .18823242 .13198853 .21322632 .09899902 .21322632 .084991458 .21322632 .049987794 .20622254 .049987794 .16023255 .049987794 .07434082 .11898804-.022460938 .23098755-.022460938 .34700013-.022460938 .44898988 .073349 .44898988 .20022583Z"/>
<path id="font_2_2" d="M.33399964 .30233766C.33999635 .32835389 .36299134 .42037965 .43299867 .42037965 .43798829 .42037965 .46199037 .42037965 .48298646 .40734864 .45498658 .402359 .43499757 .37734986 .43499757 .35334779 .43499757 .33735658 .44599916 .31835938 .47299195 .31835938 .49499513 .31835938 .5269928 .3363495 .5269928 .37635804 .5269928 .42837525 .46798707 .4423828 .43399049 .4423828 .37599183 .4423828 .34098817 .38935853 .32899476 .36634828 .3039856 .43237306 .25 .4423828 .22099304 .4423828 .116989139 .4423828 .05999756 .3133545 .05999756 .28834535 .05999756 .27833558 .069992069 .27833558 .07199097 .27833558 .07998657 .27833558 .08299255 .28033448 .084991458 .28933717 .11898804 .39535523 .18499756 .42037965 .21899414 .42037965 .23799134 .42037965 .272995 .4113617 .272995 .35334779 .272995 .32235719 .2559967 .25532533 .21899414 .11528015 .20298767 .053268434 .16799927 .011245728 .12399292 .011245728 .117996219 .011245728 .09498596 .011245728 .07398987 .024276734 .09899902 .029266358 .12098694 .05027771 .12098694 .07827759 .12098694 .105270389 .09899902 .11328125 .083999637 .11328125 .053985597 .11328125 .0289917 .08728027 .0289917 .055267335 .0289917 .009246826 .07899475-.0107421879 .12298584-.0107421879 .18899536-.0107421879 .22499085 .059280397 .22799683 .0652771 .23999024 .028274537 .27598573-.0107421879 .33599855-.0107421879 .43899537-.0107421879 .49598695 .118270877 .49598695 .14328003 .49598695 .1532898 .4869995 .1532898 .48399354 .1532898 .47499085 .1532898 .47299195 .14929199 .47099305 .14228821 .43798829 .03527832 .36999513 .011245728 .33799745 .011245728 .29899598 .011245728 .2829895 .043273927 .2829895 .07727051 .2829895 .09927368 .2889862 .121276859 .2999878 .16529846L.33399964 .30233766Z"/>
<path id="font_2_3" d="M.48599244 .38136292C.48999024 .39537049 .48999024 .39736939 .48999024 .40437318 .48999024 .42237855 .47599793 .43138124 .46099855 .43138124 .45098878 .43138124 .43499757 .42536927 .42599488 .41036988 .42399598 .405365 .41600038 .37435914 .4119873 .35635377 .40499879 .33035279 .397995 .30334474 .3919983 .27633668L.34700013 .09628296C.34298707 .08126831 .2999878 .011245728 .23399353 .011245728 .18299866 .011245728 .17199707 .055267335 .17199707 .0922699 .17199707 .1382904 .18899536 .20030213 .22299195 .28833009 .23899842 .3293457 .24299622 .3403473 .24299622 .36035157 .24299622 .405365 .21099854 .4423828 .16099549 .4423828 .06599426 .4423828 .0289917 .29733277 .0289917 .28833009 .0289917 .27833558 .038986207 .27833558 .040985109 .27833558 .050994874 .27833558 .051986696 .28033448 .056991579 .29634095 .083999637 .3903656 .12399292 .42037965 .1579895 .42037965 .1659851 .42037965 .18299866 .42037965 .18299866 .3883667 .18299866 .36335755 .17298889 .3373413 .1659851 .31834413 .12599182 .21231079 .10798645 .1552887 .10798645 .10827637 .10798645 .019256592 .17098999-.0107421879 .22999573-.0107421879 .2689972-.0107421879 .30299378 .0062561037 .33099366 .03425598 .31799317-.017745972 .30599977-.06674194 .2659912-.11973572 .23999024-.15385437 .20199585-.18309021 .1559906-.18309021 .14199829-.18309021 .09700012-.18005371 .07998657-.14074707 .09599304-.14074707 .10899353-.14074707 .12298584-.1287384 .1329956-.11973572 .14299011-.10673523 .14299011-.08773804 .14299011-.056747438 .115997318-.052734376 .10598755-.052734376 .08299255-.052734376 .049987794-.068740848 .049987794-.11773682 .049987794-.16796875 .09399414-.20507813 .1559906-.20507813 .25898744-.20507813 .3619995-.11373901 .3899994-.00074768069L.48599244 .38136292Z"/>
</defs>
<path transform="matrix(1,0,0,-1.00006,1.0960007,170.53545)" stroke-width=".19925" stroke-linecap="butt" stroke-miterlimit="10" stroke-linejoin="miter" fill="none" stroke="#929292" d="M10.97127 83.28061V86.11537M28.20488 83.28061V86.11537M45.4385 83.28061V86.11537M62.67212 83.28061V86.11537M79.90576 83.28061V86.11537M97.13939 83.28061V86.11537M114.373 83.28061V86.11537M131.60663 83.28061V86.11537M148.84026 83.28061V86.11537M166.07389 83.28061V86.11537M183.30751 83.28061V86.11537"/>
<path transform="matrix(1,0,0,-1.00006,1.0960007,170.53545)" stroke-width=".19925" stroke-linecap="butt" stroke-miterlimit="10" stroke-linejoin="miter" fill="none" stroke="#929292" d="M28.20488 82.57213V86.82384M62.67212 82.57213V86.82384M131.60663 82.57213V86.82384M166.07389 82.57213V86.82384"/>
<path transform="matrix(1,0,0,-1.00006,1.0960007,170.53545)" stroke-width=".19925" stroke-linecap="butt" stroke-miterlimit="10" stroke-linejoin="miter" fill="none" stroke="#929292" d="M95.0135 3.9998H99.26527M95.0135 44.34889H99.26527M95.0135 125.04707H99.26527M95.0135 165.39617H99.26527"/>
<path transform="matrix(1,0,0,-1.00006,1.0960007,170.53545)" stroke-width=".3985" stroke-linecap="butt" stroke-miterlimit="10" stroke-linejoin="miter" fill="none" stroke="#000000" d="M0 84.69798H192.28626"/>
<path transform="matrix(1,0,0,-1.00006,193.38227,85.83238)" d="M1.99252 0-1.19551 1.59401 0 0-1.19551-1.59401"/>
<path transform="matrix(1,0,0,-1.00006,1.0960007,170.53545)" stroke-width=".3985" stroke-linecap="butt" stroke-miterlimit="10" stroke-linejoin="miter" fill="none" stroke="#000000" d="M97.13939 3.9998V163.40364"/>
<path transform="matrix(0,-1.00006,-1,-0,98.23539,7.1220095)" d="M1.99252 0-1.19551 1.59401 0 0-1.19551-1.59401"/>
<use data-text="&#x2212;" xlink:href="#font_1_1" transform="matrix(9.9626,0,0,-9.963197,22.408,97.290058)"/>
<use data-text="&#x03c0;" xlink:href="#font_2_1" transform="matrix(9.9626,0,0,-9.963197,30.157002,97.290058)"/>
<use data-text="&#x2212;" xlink:href="#font_1_1" transform="matrix(9.9626,0,0,-9.963197,56.244,98.40412)"/>
<use data-text="&#x03c0;" xlink:href="#font_3_1" transform="matrix(6.9738,0,0,-6.9742186,65.188,94.48087)"/>
<path transform="matrix(1,0,0,-1.00006,-27.050999,-52.19491)" stroke-width=".3985" stroke-linecap="butt" stroke-miterlimit="10" stroke-linejoin="miter" fill="none" stroke="#000000" d="M92.239-148.099H97.148"/>
<use data-text="2" xlink:href="#font_4_1" transform="matrix(6.9738,0,0,-6.9742186,65.657,101.83932)"/>
<use data-text="&#x03c0;" xlink:href="#font_3_1" transform="matrix(6.9738,0,0,-6.9742186,130.249,94.48089)"/>
<path transform="matrix(1,0,0,-1.00006,45.758005,-52.19491)" stroke-width=".3985" stroke-linecap="butt" stroke-miterlimit="10" stroke-linejoin="miter" fill="none" stroke="#000000" d="M84.491-148.099H89.4"/>
<use data-text="2" xlink:href="#font_4_1" transform="matrix(6.9738,0,0,-6.9742186,130.718,101.83932)"/>
<use data-text="&#x03c0;" xlink:href="#font_2_1" transform="matrix(9.9626,0,0,-9.963197,164.15201,95.76796)"/>
<use data-text="&#x2212;" xlink:href="#font_1_1" transform="matrix(9.9626,0,0,-9.963197,74.878,169.33037)"/>
<use data-text="1" xlink:href="#font_5_2" transform="matrix(9.9626,0,0,-9.963197,82.627,169.33037)"/>
<use data-text="0" xlink:href="#font_5_1" transform="matrix(9.9626,0,0,-9.963197,87.6083,169.33037)"/>
<use data-text="&#x2212;" xlink:href="#font_1_1" transform="matrix(9.9626,0,0,-9.963197,79.859,128.97896)"/>
<use data-text="5" xlink:href="#font_5_3" transform="matrix(9.9626,0,0,-9.963197,87.608,128.97896)"/>
<use data-text="5" xlink:href="#font_5_3" transform="matrix(9.9626,0,0,-9.963197,87.608,48.69114)"/>
<use data-text="1" xlink:href="#font_5_2" transform="matrix(9.9626,0,0,-9.963197,82.627,8.339722)"/>
<use data-text="0" xlink:href="#font_5_1" transform="matrix(9.9626,0,0,-9.963197,87.6083,8.339722)"/>
<path transform="matrix(1,0,0,-1.00006,1.0960007,170.53545)" stroke-width=".99628" stroke-linecap="butt" stroke-miterlimit="10" stroke-linejoin="miter" fill="none" stroke="#0000ff" d="M11.73741 158.99375 11.8627 150.39234 12.03006 142.52223 12.19742 136.7943 12.36478 132.43579 12.53212 129.00972 12.69948 126.2416 12.86684 123.9614 13.0342 122.04471 13.20155 120.41249 13.36891 119.00658 13.53625 117.78181 13.70361 116.70482 13.87097 115.74713 14.03833 114.8938 14.20569 114.12555 14.37305 113.43158 14.54039 112.79982 14.70775 112.2234 14.8751 111.69487 15.04247 111.2073 15.20981 110.75725 15.37717 110.3389 15.54453 109.95006 15.71188 109.58704 15.87924 109.24765 16.0466 108.92886 16.21396 108.62878 16.38132 108.34615 16.54868 108.07878 16.71603 107.8258 16.88339 107.58588 17.05074 107.3583 17.2181 107.14111 17.38545 106.9345 17.55281 106.73698 17.72017 106.54799 17.88751 106.36697 18.05487 106.19339 18.22223 106.02675 18.38959 105.86653 18.55695 105.71231 18.7243 105.56354 18.89165 105.42023 19.059 105.2818 19.22636 105.14772 19.39372 105.01805 19.56108 104.89241 19.72842 104.77057 19.89578 104.65234 20.06314 104.53746 20.2305 104.42564 20.39786 104.3168 20.5652 104.21097 20.73256 104.10767 20.89992 104.00696 21.06728 103.90858 21.23463 103.81252 21.402 103.71855 21.56934 103.62659 21.7367 103.53648 21.90405 103.44841 22.07141 103.36191 22.23877 103.27705 22.40611 103.19376 22.57347 103.11209 22.74083 103.03151 22.90819 102.9524 23.07555 102.8746 23.24289 102.79794 23.41025 102.72253 23.5776 102.648 23.74496 102.57465 23.91232 102.5021 24.07967 102.43053 24.24702 102.35974 24.41438 102.28986 24.58174 102.22066 24.7491 102.15219 24.91646 102.08456 25.0838 102.01743 25.25116 101.9509 25.41852 101.88487 25.58588 101.81943 25.75323 101.75449 25.9206 101.69006 26.08794 101.62592 26.2553 101.56221 26.42265 101.49878 26.59001 101.43579 26.75735 101.37302 26.92471 101.3105 27.09207 101.24821 27.25943 101.18619 27.42679 101.12422 27.59415 101.06244 27.76149 101.00064 27.92885 100.93904 28.0962 100.87756 28.26357 100.81607 28.43092 100.75456 28.59828 100.69292 28.76563 100.63129 28.93298 100.56946 29.10033 100.50752 29.2677 100.44554 29.43507 100.38329 29.60242 100.32095 29.76979 100.25821 29.93712 100.19522 30.10449 100.13199 30.27185 100.0684 30.4392 100.00441 30.60657 99.94 30.7739 99.87517 30.94127 99.80994 31.10863 99.74413 31.27597 99.67778 31.44334 99.61078 31.61067 99.54321 31.77805 99.47508 31.9454 99.40604 32.11275 99.33635 32.28012 99.26598 32.44746 99.19469 32.61482 99.12245 32.7822 99.04918 32.94952 98.9751 33.1169 98.8999 33.28423 98.82367 33.4516 98.74615 33.61896 98.6674 33.7863 98.58731 33.95367 98.50597 34.12102 98.42313 34.28838 98.3388 34.45575 98.2528 34.6231 98.16522 34.79045 98.0757 34.9578 97.98438 35.12515 97.89098 35.29253 97.79553 35.45985 97.69786 35.62723 97.59792 35.79457 97.49535 35.96193 97.39018 36.1293 97.28226 36.29665 97.1715 36.464 97.0576 36.63135 96.9403 36.7987 96.81958 36.96608 96.6951 37.13342 96.56657 37.30078 96.43417 37.46812 96.29684 37.63548 96.1549 37.80286 96.00783 37.9702 95.8553 38.13756 95.69693 38.3049 95.53233 38.47227 95.36069 38.63963 95.18216 38.80698 94.99568 38.97433 94.80058 39.14168 94.59683 39.30905 94.38284 39.47641 94.15854 39.64375 93.9224 39.81111 93.67348 39.97845 93.4104 40.14583 93.13255 40.31319 92.83784 40.48053 92.52518 40.64789 92.1919 40.81523 91.83586 40.9826 91.45523 41.14996 91.04605 41.3173 90.60602 41.48468 90.12999 41.65201 89.61398 41.81938 89.05246 41.98674 88.43883 42.15408 87.76387 42.32144 87.01913 42.48878 86.1928 42.65616 85.26909 42.82353 84.22829 42.99088 83.05116 43.15825 81.70343 43.32559 80.14458 43.49295 78.32104 43.66031 76.15903 43.82765 73.55025 43.99503 70.34201 44.16235 66.29936 44.32973 61.03828 44.49709 53.931 44.66443 43.73279 44.8318 27.92154 44.98183 2.98991"/>
<path transform="matrix(-.01456,-.99991998,-.99986,.014560873,12.83343,11.532181)" d="M2.8892 0-1.73352 2.31136 0 0-1.73352-2.31136" fill="#0000ff"/>
<path transform="matrix(.006,.99999997,.99994,-.00600036,46.077814,167.54537)" d="M2.8892 0-1.73352 2.31136 0 0-1.73352-2.31136" fill="#0000ff"/>
<path transform="matrix(1,0,0,-1.00006,1.0960007,170.53545)" stroke-width=".99628" stroke-linecap="butt" stroke-miterlimit="10" stroke-linejoin="miter" fill="none" stroke="#0000ff" d="M46.20456 159.01233 46.32997 150.39234 46.49731 142.52223 46.66467 136.7943 46.83203 132.43579 46.99939 129.00972 47.16673 126.2416 47.33409 123.96007 47.50145 122.04471 47.66881 120.41249 47.83617 119.00658 48.00352 117.78181 48.17087 116.70482 48.33823 115.74713 48.50558 114.8938 48.67294 114.12555 48.8403 113.43126 49.00766 112.79982 49.175 112.22377 49.34236 111.69487 49.50972 111.2073 49.67708 110.75725 49.84442 110.33913 50.01178 109.95006 50.17914 109.58728 50.3465 109.24765 50.51385 108.9285 50.68121 108.62878 50.84856 108.34615 51.01591 108.07864 51.18327 107.8261 51.35063 107.5861 51.51799 107.35818 51.68535 107.14119 51.85269 106.93436 52.02005 106.73698 52.18741 106.54799 52.35477 106.36697 52.52211 106.19339 52.68947 106.0269 52.85683 105.86671 53.02419 105.7124 53.19154 105.56372 53.3589 105.42035 53.52625 105.2818 53.6936 105.14767 53.86096 105.01805 54.02832 104.89241 54.19568 104.77057 54.36304 104.65234 54.53038 104.53746 54.69774 104.42564 54.8651 104.31691 55.03246 104.21097 55.1998 104.10776 55.36716 104.00696 55.53452 103.90851 55.70187 103.81245 55.86923 103.71855 56.03659 103.62654 56.20393 103.53648 56.37129 103.44846 56.53867 103.36191 56.70602 103.27713 56.87338 103.19388 57.04074 103.11194 57.20808 103.03165 57.37544 102.95247 57.5428 102.87463 57.71016 102.79807 57.8775 102.72253 58.04486 102.648 58.21222 102.57465 58.37958 102.5021 58.54694 102.43053 58.7143 102.35971 58.88164 102.28983 59.049 102.22073 59.21635 102.15219 59.38371 102.08456 59.55107 102.01738 59.71843 101.9509 59.88577 101.88484 60.05313 101.81952 60.22049 101.75449 60.38785 101.69006 60.55519 101.62592 60.72255 101.56221 60.88991 101.49886 61.05727 101.43579 61.22462 101.37314 61.39198 101.3105 61.55933 101.24821 61.72668 101.1861 61.89404 101.12425 62.0614 101.06244 62.22876 101.00064 62.39612 100.93904 62.56346 100.87756 62.73082 100.81607 62.89818 100.75456 63.06554 100.69292 63.23288 100.63129 63.40025 100.56946 63.5676 100.50761 63.73495 100.44554 63.90231 100.38329 64.06966 100.32095 64.23703 100.25821 64.40436 100.19525 64.57173 100.13199 64.7391 100.0684 64.90643 100.00441 65.0738 99.94 65.24115 99.87517 65.40851 99.81 65.57588 99.74413 65.74321 99.67773 65.91058 99.61078 66.07793 99.54321 66.24529 99.47495 66.41266 99.40613 66.57999 99.3364 66.74736 99.2659 66.9147 99.19469 67.08206 99.12238 67.24944 99.04935 67.41676 98.97507 67.58414 98.89998 67.75148 98.8236 67.91884 98.7462 68.08621 98.6674 68.25356 98.58734 68.42091 98.50597 68.58826 98.42317 68.75562 98.33875 68.92299 98.2528 69.09033 98.16513 69.25769 98.0757 69.42503 97.98433 69.59239 97.89105 69.75978 97.7957 69.92712 97.69789 70.09448 97.59787 70.26183 97.49547 70.4292 97.39021 70.59656 97.28246 70.7639 97.17142 70.93126 97.05748 71.0986 96.94043 71.26598 96.81958 71.43333 96.6951 71.60068 96.56657 71.76804 96.43393 71.93538 96.29694 72.10275 96.15482 72.27011 96.00783 72.43745 95.8553 72.60483 95.69693 72.77216 95.53214 72.93953 95.3609 73.10689 95.18204 73.27423 94.99554 73.4416 94.8008 73.60893 94.59676 73.7763 94.38284 73.94366 94.15851 74.11101 93.92218 74.27838 93.67326 74.44571 93.41052 74.61308 93.13255 74.78044 92.83804 74.94778 92.52518 75.11516 92.1919 75.28249 91.83586 75.44986 91.4548 75.61723 91.04622 75.78456 90.60548 75.95193 90.13057 76.11926 89.61427 76.28664 89.05246 76.454 88.43875 76.62134 87.76387 76.78871 87.01888 76.95605 86.19308 77.12341 85.26787 77.29079 84.22969 77.45811 83.05116 77.62549 81.70436 77.79283 80.14572 77.96019 78.32104 78.12756 76.15903 78.29489 73.55396 78.46227 70.34201 78.62961 66.30238 78.79697 61.04608 78.96434 53.931 79.13167 43.73279 79.29904 27.92154 79.44907 2.98991"/>
<path transform="matrix(-.01453,-.99991998,-.99986,.014530871,47.30057,11.513596)" d="M2.8892 0-1.73352 2.31136 0 0-1.73352-2.31136" fill="#0000ff"/>
<path transform="matrix(.006,.99999997,.99994,-.00600036,80.54505,167.54537)" d="M2.8892 0-1.73352 2.31136 0 0-1.73352-2.31136" fill="#0000ff"/>
<path transform="matrix(1,0,0,-1.00006,1.0960007,170.53545)" stroke-width=".99628" stroke-linecap="butt" stroke-miterlimit="10" stroke-linejoin="miter" fill="none" stroke="#0000ff" d="M80.6719 158.99375 80.79721 150.39234 80.96457 142.52223 81.13193 136.7943 81.29929 132.43579 81.46664 129.00972 81.634 126.24326 81.80136 123.95985 81.96872 122.04471 82.13608 120.41249 82.30344 119.00491 82.4708 117.78181 82.63815 116.70352 82.8055 115.74654 82.97285 114.89294 83.14021 114.12555 83.30757 113.43158 83.47493 112.80043 83.6423 112.2234 83.80966 111.69487 83.97702 111.20753 84.14438 110.75652 84.31174 110.33913 84.4791 109.95045 84.64645 109.58728 84.81381 109.24765 84.98117 108.9285 85.14853 108.62863 85.31589 108.34593 85.48325 108.07864 85.65059 107.8258 85.81795 107.58588 85.9853 107.35818 86.15266 107.14111 86.32002 106.93436 86.48738 106.73665 86.65474 106.54778 86.8221 106.36697 86.98946 106.19339 87.15681 106.02675 87.32417 105.86653 87.49153 105.71211 87.65889 105.56354 87.82625 105.42023 87.9936 105.28168 88.16096 105.14767 88.32831 105.01805 88.49567 104.89233 88.66302 104.77052 88.83038 104.65222 88.99774 104.53746 89.1651 104.42561 89.33246 104.31688 89.49982 104.21085 89.66718 104.10757 89.83453 104.00696 90.00189 103.90858 90.16925 103.81232 90.33661 103.7185 90.50397 103.62646 90.67133 103.53648 90.83868 103.44841 91.00604 103.36191 91.1734 103.27705 91.34074 103.19376 91.5081 103.11194 91.67546 103.03151 91.84282 102.9524 92.01018 102.8746 92.17754 102.79794 92.3449 102.72232 92.51225 102.648 92.67961 102.57452 92.84697 102.50194 93.01433 102.43036 93.18169 102.35971 93.34904 102.2898 93.5164 102.22063 93.68376 102.15219 93.85112 102.08449 94.01848 102.0173 94.18584 101.95085 94.3532 101.88484 94.52054 101.8194 94.6879 101.75443 94.85526 101.68994 95.02261 101.62587 95.18997 101.56216 95.35733 101.49878 95.52469 101.43568 95.69205 101.37302 95.8594 101.31047 96.02676 101.2481 96.19412 101.18605 96.36148 101.12415 96.52884 101.06232 96.6962 101.00061 96.86356 100.93904 97.03091 100.87752 97.19826 100.816 97.36563 100.75444 97.533 100.69292 97.70035 100.63118 97.86772 100.56946 98.03505 100.50752 98.20242 100.44545 98.3698 100.38324 98.53714 100.32088 98.7045 100.25813 98.87184 100.19516 99.03922 100.13187 99.20659 100.06828 99.37392 100.00436 99.54129 99.93988 99.70863 99.87517 99.87599 99.80981 100.04337 99.74391 100.21071 99.67766 100.37808 99.61069 100.54543 99.54314 100.71278 99.47495 100.88016 99.40599 101.0475 99.33635 101.21486 99.26587 101.3822 99.19456 101.54958 99.12233 101.71695 99.04915 101.88428 98.97495 102.05165 98.89978 102.219 98.82347 102.38637 98.74605 102.55373 98.66737 102.72107 98.58719 102.88844 98.50584 103.05579 98.423 103.22314 98.3386 103.39052 98.25269 103.55786 98.16502 103.72523 98.07556 103.89258 97.9842 104.05994 97.8908 104.22731 97.79538 104.39465 97.69772 104.56201 97.59767 104.72935 97.4952 104.89673 97.39 105.06409 97.28214 105.23143 97.17137 105.3988 97.05724 105.56615 96.94019 105.73352 96.81941 105.90088 96.6949 106.06822 96.56647 106.2356 96.43372 106.40294 96.29657 106.5703 96.15482 106.73767 96.00763 106.90501 95.8551 107.07239 95.69658 107.23972 95.53188 107.40709 95.36047 107.57446 95.18176 107.74179 94.99527 107.90916 94.80026 108.0765 94.59644 108.24388 94.3824 108.41124 94.15794 108.57858 93.92159 108.74596 93.67259 108.9133 93.41026 109.08066 93.13187 109.24803 92.83733 109.41537 92.52441 109.58275 92.19122 109.75009 91.83554 109.91745 91.45456 110.08482 91.04524 110.25217 90.60469 110.41953 90.12889 110.58687 89.61319 110.75424 89.05133 110.9216 88.43643 111.08894 87.7625 111.25633 87.01736 111.42368 86.19142 111.59103 85.26723 111.7584 84.22723 111.92575 83.04875 112.09312 81.70068 112.26047 80.14229 112.42783 78.31802 112.5952 76.15141 112.76254 73.54517 112.9299 70.335 113.09724 66.29048 113.26462 61.02632 113.43199 53.90878 113.59933 43.70895 113.7667 27.88283 113.91672 2.94023"/>
<path transform="matrix(-.01456,-.99991998,-.99986,.014560873,81.76792,11.532181)" d="M2.8892 0-1.73352 2.31136 0 0-1.73352-2.31136" fill="#0000ff"/>
<path transform="matrix(.006,.99999997,.99994,-.00600036,115.0127,167.59505)" d="M2.8892 0-1.73352 2.31136 0 0-1.73352-2.31136" fill="#0000ff"/>
<path transform="matrix(1,0,0,-1.00006,1.0960007,170.53545)" stroke-width=".99628" stroke-linecap="butt" stroke-miterlimit="10" stroke-linejoin="miter" fill="none" stroke="#0000ff" d="M115.13916 158.99375 115.26447 150.39234 115.43182 142.52223 115.59918 136.7943 115.76654 132.43579 115.9339 129.00972 116.10126 126.2416 116.26862 123.96115 116.43597 122.04251 116.60333 120.41249 116.77069 119.00658 116.93805 117.78181 117.10541 116.70352 117.27277 115.74654 117.44012 114.89351 117.60747 114.12555 117.77483 113.43158 117.94218 112.79982 118.10954 112.2234 118.2769 111.69487 118.44426 111.2073 118.61162 110.75725 118.77898 110.33913 118.94633 109.95006 119.1137 109.58691 119.28105 109.2472 119.44841 108.92883 119.61577 108.62878 119.78313 108.34615 119.95049 108.07864 120.11784 107.8259 120.2852 107.58578 120.45256 107.35818 120.61992 107.14095 120.78726 106.93436 120.95462 106.73665 121.12198 106.54778 121.28934 106.36685 121.4567 106.19334 121.62405 106.02667 121.79141 105.86653 121.95877 105.7124 122.12613 105.56354 122.29349 105.42023 122.46085 105.28159 122.6282 105.14763 122.79556 105.01805 122.96292 104.8923 123.13028 104.77052 123.29764 104.65222 123.465 104.53746 123.63235 104.42561 123.79971 104.3168 123.96706 104.21085 124.13443 104.10757 124.30179 104.00696 124.46915 103.90851 124.6365 103.81232 124.80386 103.71843 124.97122 103.62654 125.13858 103.53648 125.30594 103.44841 125.4733 103.36186 125.64066 103.27701 125.80801 103.19376 125.97537 103.11194 126.14273 103.03148 126.31009 102.9524 126.47745 102.8746 126.64479 102.79785 126.81215 102.72232 126.9795 102.64789 127.14687 102.57452 127.31422 102.50194 127.48158 102.43036 127.64894 102.35971 127.8163 102.2898 127.98366 102.22063 128.15102 102.15219 128.31838 102.08449 128.48574 102.0173 128.65309 101.95085 128.82045 101.88477 128.98781 101.8194 129.15515 101.75443 129.32251 101.68994 129.48987 101.62587 129.65723 101.56216 129.82459 101.49878 129.99195 101.43576 130.1593 101.37302 130.32666 101.31047 130.49402 101.24821 130.66138 101.1861 130.82874 101.12413 130.9961 101.06232 131.16345 101.00061 131.33081 100.93904 131.49817 100.87752 131.66553 100.816 131.83289 100.75449 132.00025 100.69292 132.16759 100.63118 132.33496 100.56946 132.5023 100.50752 132.66967 100.44545 132.83704 100.38324 133.00438 100.32083 133.17176 100.25813 133.33908 100.19516 133.50646 100.13187 133.67383 100.06828 133.84117 100.00429 134.00853 99.93988 134.17588 99.87517 134.34325 99.80981 134.5106 99.74403 134.67795 99.67761 134.84532 99.61069 135.01267 99.54314 135.18004 99.47495 135.3474 99.40599 135.51474 99.33627 135.68212 99.26587 135.84946 99.19449 136.01682 99.12233 136.18419 99.04915 136.35153 98.97507 136.51889 98.89981 136.68624 98.82347 136.8536 98.74596 137.02098 98.66737 137.18831 98.58719 137.35569 98.50592 137.52303 98.423 137.69039 98.33871 137.85776 98.25269 138.02512 98.16502 138.19249 98.07556 138.35984 97.9842 138.52719 97.89093 138.69457 97.79538 138.86191 97.69772 139.02927 97.59775 139.19661 97.4952 139.36399 97.39008 139.53134 97.28214 139.69869 97.17125 139.86606 97.05736 140.0334 96.94019 140.20078 96.81941 140.36814 96.69478 140.53548 96.56635 140.70285 96.43379 140.8702 96.29669 141.03755 96.15479 141.20493 96.00743 141.37227 95.85487 141.53964 95.69658 141.70697 95.53188 141.87435 95.36044 142.04172 95.18176 142.20906 94.99515 142.37642 94.80026 142.54376 94.59663 142.71114 94.38249 142.8785 94.15794 143.04584 93.92159 143.21321 93.67291 143.38056 93.41026 143.54792 93.13216 143.71529 92.83748 143.88263 92.52441 144.05 92.19122 144.21735 91.83517 144.3847 91.45406 144.55208 91.04504 144.71942 90.60469 144.88678 90.12917 145.05413 89.61319 145.2215 89.05096 145.38886 88.43753 145.5562 87.76329 145.72357 87.01736 145.89092 86.19032 146.05828 85.26602 146.22565 84.22723 146.39299 83.04875 146.56037 81.70029 146.7277 80.14229 146.89507 78.31674 147.06244 76.15471 147.22978 73.54517 147.39714 70.335 147.56449 66.29048 147.73186 61.02632 147.89923 53.90317 148.06658 43.72472 148.23394 27.88283 148.38397 2.88902"/>
<path transform="matrix(-.01456,-.99991998,-.99986,.014560873,116.23518,11.532181)" d="M2.8892 0-1.73352 2.31136 0 0-1.73352-2.31136" fill="#0000ff"/>
<path transform="matrix(.006,.99999997,.99994,-.00600036,149.47995,167.64626)" d="M2.8892 0-1.73352 2.31136 0 0-1.73352-2.31136" fill="#0000ff"/>
<path transform="matrix(1,0,0,-1.00006,1.0960007,170.53545)" stroke-width=".99628" stroke-linecap="butt" stroke-miterlimit="10" stroke-linejoin="miter" fill="none" stroke="#0000ff" d="M149.60631 159.01233 149.7317 150.38629 149.89907 142.5263 150.06642 136.7943 150.23378 132.43611 150.40113 129.00972 150.56848 126.2416 150.73586 123.9614 150.90322 122.04471 151.07057 120.41347 151.23793 119.00658 151.40528 117.78255 151.57263 116.70482 151.73999 115.74742 151.90735 114.894 152.0747 114.12567 152.24205 113.43126 152.40941 112.80057 152.57677 112.2234 152.74413 111.69487 152.91149 111.20753 153.07883 110.75725 153.24619 110.33913 153.41355 109.95006 153.5809 109.58728 153.74826 109.24722 153.91562 108.92842 154.08296 108.62878 154.25032 108.34615 154.41768 108.07878 154.58504 107.8258 154.7524 107.5861 154.91974 107.3583 155.0871 107.14095 155.25446 106.9345 155.42182 106.73698 155.58917 106.54799 155.75652 106.36705 155.92388 106.19339 156.09123 106.0269 156.25859 105.86671 156.42595 105.71243 156.5933 105.56372 156.76065 105.42023 156.92801 105.2818 157.09537 105.14772 157.26273 105.01805 157.43009 104.89241 157.59743 104.77057 157.76479 104.65242 157.93215 104.53743 158.0995 104.42564 158.26686 104.317 158.4342 104.21104 158.60157 104.10757 158.76892 104.00699 158.93628 103.90858 159.10364 103.81245 159.271 103.71855 159.43834 103.62659 159.6057 103.53656 159.77306 103.44846 159.94042 103.36191 160.10778 103.27705 160.27512 103.19376 160.44248 103.11209 160.60984 103.03151 160.77719 102.95247 160.94455 102.8746 161.1119 102.79807 161.27925 102.72246 161.44661 102.648 161.61397 102.57465 161.78133 102.50203 161.94867 102.43044 162.11603 102.35982 162.28339 102.28993 162.45075 102.22066 162.6181 102.15234 162.78546 102.08456 162.9528 102.01738 163.12017 101.9509 163.28752 101.88496 163.45488 101.81952 163.62224 101.75449 163.78958 101.69006 163.95696 101.62592 164.12432 101.56221 164.29167 101.49878 164.45903 101.43579 164.62638 101.37302 164.79373 101.3106 164.96109 101.24821 165.12845 101.18617 165.2958 101.12422 165.46317 101.0624 165.63051 101.00064 165.79787 100.93904 165.96523 100.87756 166.13259 100.81607 166.29994 100.75456 166.4673 100.69295 166.63465 100.63129 166.802 100.5695 166.96935 100.50761 167.13672 100.44557 167.30408 100.38336 167.47142 100.32095 167.6388 100.25821 167.80612 100.19522 167.9735 100.13199 168.14086 100.0684 168.3082 100.00441 168.47557 99.94 168.6429 99.87529 168.81027 99.80994 168.97763 99.74413 169.14498 99.67773 169.31235 99.61078 169.47968 99.54321 169.64705 99.47508 169.8144 99.40613 169.98175 99.33635 170.14913 99.2659 170.31645 99.19469 170.48383 99.12245 170.65119 99.04935 170.81853 98.9751 170.9859 98.8999 171.15323 98.82355 171.3206 98.74608 171.48796 98.6675 171.6553 98.58734 171.82268 98.50597 171.99002 98.42313 172.15738 98.33875 172.32476 98.2528 172.49208 98.16525 172.65946 98.0757 172.8268 97.98433 172.99416 97.89108 173.16153 97.7957 173.32886 97.69789 173.49623 97.59787 173.66358 97.49547 173.83094 97.39021 173.9983 97.28226 174.16565 97.1715 174.33301 97.0576 174.50035 96.9403 174.66771 96.81966 174.83509 96.6951 175.00243 96.56657 175.16979 96.43405 175.33713 96.2968 175.50449 96.15503 175.67186 96.00783 175.8392 95.8553 176.00656 95.69681 176.1739 95.53226 176.34128 95.3609 176.50864 95.18204 176.67598 94.99554 176.84334 94.80072 177.01068 94.59683 177.17806 94.38284 177.34543 94.15854 177.51277 93.9224 177.68013 93.67348 177.84748 93.41069 178.01485 93.13255 178.1822 92.83804 178.34955 92.52498 178.5169 92.1919 178.68425 91.83643 178.85163 91.45523 179.01898 91.04597 179.18633 90.60602 179.35369 90.13057 179.52103 89.61427 179.6884 89.05266 179.85576 88.43794 180.0231 87.76387 180.19046 87.01913 180.3578 86.19308 180.52518 85.26787 180.69254 84.22969 180.85988 83.05116 181.02725 81.70436 181.19458 80.14458 181.36196 78.32104 181.52931 76.15903 181.69666 73.55025 181.86403 70.34201 182.03136 66.30238 182.19873 61.04608 182.36609 53.91968 182.53343 43.74892 182.7008 27.94821 182.85083 2.98991"/>
<path transform="matrix(-.01453,-.99991998,-.99986,.014530871,150.70233,11.513596)" d="M2.8892 0-1.73352 2.31136 0 0-1.73352-2.31136" fill="#0000ff"/>
<path transform="matrix(.006,.99999997,.99994,-.00600036,183.94681,167.54537)" d="M2.8892 0-1.73352 2.31136 0 0-1.73352-2.31136" fill="#0000ff"/>
<path transform="matrix(1,0,0,-1.00006,1.0960007,170.53545)" stroke-width=".3985" stroke-linecap="butt" stroke-dasharray="2.98883,2.98883" stroke-miterlimit="10" stroke-linejoin="miter" fill="none" stroke="#ff0000" d="M10.97127 3.9998V165.39617"/>
<path transform="matrix(1,0,0,-1.00006,1.0960007,170.53545)" stroke-width=".3985" stroke-linecap="butt" stroke-dasharray="2.98883,2.98883" stroke-miterlimit="10" stroke-linejoin="miter" fill="none" stroke="#ff0000" d="M45.4385 3.9998V165.39617"/>
<path transform="matrix(1,0,0,-1.00006,1.0960007,170.53545)" stroke-width=".3985" stroke-linecap="butt" stroke-dasharray="2.98883,2.98883" stroke-miterlimit="10" stroke-linejoin="miter" fill="none" stroke="#ff0000" d="M79.90576 3.9998V165.39617"/>
<path transform="matrix(1,0,0,-1.00006,1.0960007,170.53545)" stroke-width=".3985" stroke-linecap="butt" stroke-dasharray="2.98883,2.98883" stroke-miterlimit="10" stroke-linejoin="miter" fill="none" stroke="#ff0000" d="M114.373 3.9998V165.39617"/>
<path transform="matrix(1,0,0,-1.00006,1.0960007,170.53545)" stroke-width=".3985" stroke-linecap="butt" stroke-dasharray="2.98883,2.98883" stroke-miterlimit="10" stroke-linejoin="miter" fill="none" stroke="#ff0000" d="M148.84026 3.9998V165.39617"/>
<path transform="matrix(1,0,0,-1.00006,1.0960007,170.53545)" stroke-width=".3985" stroke-linecap="butt" stroke-dasharray="2.98883,2.98883" stroke-miterlimit="10" stroke-linejoin="miter" fill="none" stroke="#ff0000" d="M183.30751 3.9998V165.39617"/>
<use data-text="x" xlink:href="#font_2_2" transform="matrix(9.9626,0,0,-9.963197,186.16101,82.31216)"/>
<use data-text="y" xlink:href="#font_2_3" transform="matrix(9.9626,0,0,-9.963197,101.755,12.938995)"/>
</svg>
