<svg xmlns="http://www.w3.org/2000/svg" xmlns:xlink="http://www.w3.org/1999/xlink" xmlns:inkscape="http://www.inkscape.org/namespaces/inkscape" version="1.1" width="214" height="197" viewBox="0 0 214 197">
<defs>
<path id="font_1_1" d="M.6589966 .23046875C.6759949 .23046875 .69400027 .23046875 .69400027 .25045777 .69400027 .27046205 .6759949 .27046205 .6589966 .27046205H.117996219C.100997928 .27046205 .08299255 .27046205 .08299255 .25045777 .08299255 .23046875 .100997928 .23046875 .117996219 .23046875H.6589966Z"/>
<path id="font_2_1" d="M.31098939 .36265565H.42999269C.4149933 .30274964 .3929901 .2118988 .3929901 .13302613 .3929901 .09309387 .397995 .06613159 .4039917 .044174196 .41999818-.0057678224 .43299867-.009765625 .44898988-.009765625 .47200013-.009765625 .49598695 .011230469 .49598695 .035186769 .49598695 .043182374 .49398805 .047164918 .48799134 .057159425 .46899415 .09408569 .45098878 .15100098 .45098878 .23286438 .45098878 .25183106 .45098878 .29177857 .46499635 .36265565H.58999636C.60798647 .36265565 .6159973 .36265565 .6269989 .37065126 .6409912 .380661 .6439972 .39665223 .6439972 .4016571 .6439972 .43066407 .6179962 .43066407 .6009979 .43066407H.22399903C.18299866 .43066407 .15499878 .42166139 .10998535 .37965394 .083999637 .35665895 .04499817 .30274964 .04499817 .2937622 .04499817 .28178407 .057998659 .28178407 .06199646 .28178407 .07299805 .28178407 .07398987 .28378297 .07998657 .2927704 .1309967 .36265565 .19299317 .36265565 .21499634 .36265565H.27598573C.24499512 .25283814 .19099427 .13502503 .16099549 .07511902 .15499878 .062149049 .14498902 .04118347 .14199829 .03718567 .14099121 .033187868 .13899231 .029190064 .13899231 .022201539 .13899231 .006225586 .15098572-.009765625 .17399597-.009765625 .21398926-.009765625 .22499085 .035186769 .24899292 .12504578L.31098939 .36265565Z"/>
<path id="font_3_3" d="M.5289917 .1640625V.20005799H.41799928V.64582827C.41799928 .66682437 .41799928 .6738281 .3959961 .6738281 .38398744 .6738281 .37998963 .6738281 .36999513 .65982058L.038986207 .20005799V.1640625H.33299256V.08201599C.33299256 .04800415 .33299256 .035995485 .2519989 .035995485H.22499085V0C.2749939 .0019989014 .33898927 .0039978029 .375 .0039978029 .4119873 .0039978029 .47599793 .0019989014 .526001 0V.035995485H.49899293C.41799928 .035995485 .41799928 .04800415 .41799928 .08201599V.1640625H.5289917M.33999635 .5658722V.20005799H.07598877L.33999635 .5658722Z"/>
<path id="font_4_4" d="M.1269989 .07699585 .23298645 .18003845C.3889923 .31811524 .44898988 .3721466 .44898988 .47216798 .44898988 .5860901 .35899354 .6660156 .23699951 .6660156 .12399292 .6660156 .049987794 .57411196 .049987794 .48516847 .049987794 .4291687 .099990848 .4291687 .102996829 .4291687 .11999512 .4291687 .15499878 .44117738 .15499878 .48217774 .15499878 .5081787 .13699341 .5341797 .101989749 .5341797 .09399414 .5341797 .09199524 .5341797 .08898926 .5331726 .11199951 .59806826 .1659851 .63500979 .22399903 .63500979 .31498719 .63500979 .35798646 .5541382 .35798646 .47216798 .35798646 .39215089 .30799867 .31311036 .25299073 .25108338L.06098938 .036987306C.049987794 .025985718 .049987794 .023986817 .049987794 0H.42099L.44898988 .17404175H.42399598C.4189911 .14402771 .4119873 .1000061 .4019928 .084991458 .394989 .07699585 .32899476 .07699585 .30699159 .07699585H.1269989Z"/>
<path id="font_4_3" d="M.2939911 .64004519C.2939911 .66400149 .2939911 .6660156 .2709961 .6660156 .20899964 .60227969 .12098694 .60227969 .08898926 .60227969V.57128909C.10899353 .57128909 .16799927 .57128909 .21998596 .5972748V.07902527C.21998596 .042999269 .21699524 .0309906 .1269989 .0309906H.09498596V0C.12998963 .0029907227 .21699524 .0029907227 .25698854 .0029907227 .29699708 .0029907227 .38398744 .0029907227 .4189911 0V.0309906H.3869934C.29699708 .0309906 .2939911 .041992189 .2939911 .07902527V.64004519Z"/>
<path id="font_5_2" d="M.48599244 .38136292C.48999024 .39537049 .48999024 .39736939 .48999024 .40437318 .48999024 .42237855 .47599793 .43138124 .46099855 .43138124 .45098878 .43138124 .43499757 .42536927 .42599488 .41036988 .42399598 .405365 .41600038 .37435914 .4119873 .35635377 .40499879 .33035279 .397995 .30334474 .3919983 .27633668L.34700013 .09628296C.34298707 .08126831 .2999878 .011245728 .23399353 .011245728 .18299866 .011245728 .17199707 .055267335 .17199707 .0922699 .17199707 .1382904 .18899536 .20030213 .22299195 .28833009 .23899842 .3293457 .24299622 .3403473 .24299622 .36035157 .24299622 .405365 .21099854 .4423828 .16099549 .4423828 .06599426 .4423828 .0289917 .29733277 .0289917 .28833009 .0289917 .27833558 .038986207 .27833558 .040985109 .27833558 .050994874 .27833558 .051986696 .28033448 .056991579 .29634095 .083999637 .3903656 .12399292 .42037965 .1579895 .42037965 .1659851 .42037965 .18299866 .42037965 .18299866 .3883667 .18299866 .36335755 .17298889 .3373413 .1659851 .31834413 .12599182 .21231079 .10798645 .1552887 .10798645 .10827637 .10798645 .019256592 .17098999-.0107421879 .22999573-.0107421879 .2689972-.0107421879 .30299378 .0062561037 .33099366 .03425598 .31799317-.017745972 .30599977-.06674194 .2659912-.11973572 .23999024-.15385437 .20199585-.18309021 .1559906-.18309021 .14199829-.18309021 .09700012-.18005371 .07998657-.14074707 .09599304-.14074707 .10899353-.14074707 .12298584-.1287384 .1329956-.11973572 .14299011-.10673523 .14299011-.08773804 .14299011-.056747438 .115997318-.052734376 .10598755-.052734376 .08299255-.052734376 .049987794-.068740848 .049987794-.11773682 .049987794-.16796875 .09399414-.20507813 .1559906-.20507813 .25898744-.20507813 .3619995-.11373901 .3899994-.00074768069L.48599244 .38136292Z"/>
<path id="font_4_5" d="M.68699648 .32714845C.70199587 .32714845 .72099307 .32714845 .72099307 .34713746 .72099307 .36714173 .70199587 .36714173 .6879883 .36714173H.08898926C.07499695 .36714173 .055999757 .36714173 .055999757 .34713746 .055999757 .32714845 .07499695 .32714845 .08999634 .32714845H.68699648M.6879883 .13284302C.70199587 .13284302 .72099307 .13284302 .72099307 .15284729 .72099307 .17285156 .70199587 .17285156 .68699648 .17285156H.08999634C.07499695 .17285156 .055999757 .17285156 .055999757 .15284729 .055999757 .13284302 .07499695 .13284302 .08898926 .13284302H.6879883Z"/>
<path id="font_4_8" d="M.17298889 .3996582H.31599427V.43066407H.17298889V.6147156H.147995C.14698792 .5326996 .116989139 .42565919 .018997193 .42166139V.3996582H.10398865V.12416077C.10398865 .0012512207 .19699097-.0107421879 .23298645-.0107421879 .3039856-.0107421879 .33198548 .06021118 .33198548 .12416077V.18112183H.30699159V.12615967C.30699159 .052215578 .2769928 .014251709 .23999024 .014251709 .17298889 .014251709 .17298889 .10517883 .17298889 .122161868V.3996582Z"/>
<path id="font_4_6" d="M.33299256 .076156619C.33699037 .036132814 .3639984-.005859375 .41099549-.005859375 .43199159-.005859375 .49299623 .008132935 .49299623 .089157108V.14518738H.46798707V.089157108C.46798707 .031143189 .44299317 .025131226 .43199159 .025131226 .39898683 .025131226 .394989 .07015991 .394989 .075149539V.27514649C.394989 .31707765 .394989 .3560791 .35899354 .39312745 .31999208 .43223573 .269989 .4482422 .22200012 .4482422 .13999939 .4482422 .070999149 .40115357 .070999149 .335083 .070999149 .30508424 .09098816 .28808595 .116989139 .28808595 .14498902 .28808595 .16299439 .30807496 .16299439 .33407594 .16299439 .3460846 .1579895 .3790741 .11199951 .38008119 .13899231 .41519166 .18798828 .426239 .21998596 .426239 .2689972 .426239 .32598878 .38710023 .32598878 .29808045V.26123048C.2749939 .2582245 .20498657 .25523377 .14199829 .22523499 .066986087 .1912384 .041992189 .13923645 .041992189 .09524536 .041992189 .014251709 .13899231-.0107421879 .20199585-.0107421879 .2679901-.010864258 .31399537 .029129029 .33299256 .076156619M.32598878 .24023438V.1401825C.32598878 .045135499 .2539978 .011138916 .20899964 .011138916 .1599884 .011138916 .11898804 .046142579 .11898804 .09616089 .11898804 .15118408 .16099549 .23422241 .32598878 .24023438Z"/>
<path id="font_4_7" d="M.10998535 .34429933V.076034549C.10998535 .0309906 .09899902 .0309906 .03199768 .0309906V0C.066986087 .0009918213 .117996219 .0029907227 .14498902 .0029907227 .17098999 .0029907227 .22299195 .0009918213 .25698854 0V.0309906C.18998719 .0309906 .1789856 .0309906 .1789856 .076034549V.2602234C.1789856 .36431886 .25 .42037965 .31399537 .42037965 .3769989 .42037965 .3880005 .36631776 .3880005 .30926515V.076034549C.3880005 .0309906 .3769989 .0309906 .30999757 .0309906V0C.34498597 .0009918213 .3959961 .0029907227 .4229889 .0029907227 .44898988 .0029907227 .5009918 .0009918213 .5349884 0V.0309906C.48298646 .0309906 .45799256 .0309906 .45700074 .061019899V.25221253C.45700074 .3383026 .45700074 .36932374 .42599488 .405365 .4119873 .42237855 .3789978 .4423828 .32099916 .4423828 .24798584 .4423828 .20098877 .39935304 .17298889 .33729554V.4423828L.03199768 .43138124V.40037538C.101989749 .4003601 .10998535 .39335633 .10998535 .34429933Z"/>
<path id="font_4_1" d="M.33099366-.2400055C.33099366-.23701477 .33099366-.23500061 .31399537-.21800232 .18899536-.0920105 .15699768 .09700012 .15699768 .25 .15699768 .42399598 .19499207 .59799197 .31799317 .72299197 .33099366 .73498538 .33099366 .7369995 .33099366 .73999026 .33099366 .746994 .32699586 .75 .32099916 .75 .31098939 .75 .22099304 .6819916 .1619873 .5549927 .11099243 .44499208 .09899902 .33399964 .09899902 .25 .09899902 .17199707 .10998535 .050994874 .16499329-.06201172 .22499085-.18501282 .31098939-.25 .32099916-.25 .32699586-.25 .33099366-.24700928 .33099366-.2400055Z"/>
<path id="font_5_1" d="M.33399964 .30233766C.33999635 .32835389 .36299134 .42037965 .43299867 .42037965 .43798829 .42037965 .46199037 .42037965 .48298646 .40734864 .45498658 .402359 .43499757 .37734986 .43499757 .35334779 .43499757 .33735658 .44599916 .31835938 .47299195 .31835938 .49499513 .31835938 .5269928 .3363495 .5269928 .37635804 .5269928 .42837525 .46798707 .4423828 .43399049 .4423828 .37599183 .4423828 .34098817 .38935853 .32899476 .36634828 .3039856 .43237306 .25 .4423828 .22099304 .4423828 .116989139 .4423828 .05999756 .3133545 .05999756 .28834535 .05999756 .27833558 .069992069 .27833558 .07199097 .27833558 .07998657 .27833558 .08299255 .28033448 .084991458 .28933717 .11898804 .39535523 .18499756 .42037965 .21899414 .42037965 .23799134 .42037965 .272995 .4113617 .272995 .35334779 .272995 .32235719 .2559967 .25532533 .21899414 .11528015 .20298767 .053268434 .16799927 .011245728 .12399292 .011245728 .117996219 .011245728 .09498596 .011245728 .07398987 .024276734 .09899902 .029266358 .12098694 .05027771 .12098694 .07827759 .12098694 .105270389 .09899902 .11328125 .083999637 .11328125 .053985597 .11328125 .0289917 .08728027 .0289917 .055267335 .0289917 .009246826 .07899475-.0107421879 .12298584-.0107421879 .18899536-.0107421879 .22499085 .059280397 .22799683 .0652771 .23999024 .028274537 .27598573-.0107421879 .33599855-.0107421879 .43899537-.0107421879 .49598695 .118270877 .49598695 .14328003 .49598695 .1532898 .4869995 .1532898 .48399354 .1532898 .47499085 .1532898 .47299195 .14929199 .47099305 .14228821 .43798829 .03527832 .36999513 .011245728 .33799745 .011245728 .29899598 .011245728 .2829895 .043273927 .2829895 .07727051 .2829895 .09927368 .2889862 .121276859 .2999878 .16529846L.33399964 .30233766Z"/>
<path id="font_4_2" d="M.2889862 .25C.2889862 .32798768 .27799989 .44898988 .22299195 .56199648 .16299439 .68499758 .07699585 .75 .066986087 .75 .06098938 .75 .056991579 .74598696 .056991579 .73999026 .056991579 .7369995 .056991579 .73498538 .07598877 .71699526 .17399597 .6179962 .23098755 .45899964 .23098755 .25 .23098755 .07899475 .19400025-.09700012 .069992069-.2230072 .056991579-.23500061 .056991579-.23701477 .056991579-.2400055 .056991579-.2460022 .06098938-.25 .066986087-.25 .07699585-.25 .16699219-.18200684 .22599793-.055007936 .2769928 .054992677 .2889862 .16600037 .2889862 .25Z"/>
<path id="font_3_1" d="M.33499146 .63612368C.33499146 .6630554 .33299256 .6640625 .30499269 .6640625 .24099732 .6014404 .1499939 .6004486 .10899353 .6004486V.5644531C.1329956 .5644531 .19898987 .5644531 .2539978 .592453V.08203125C.2539978 .04899597 .2539978 .035995485 .1539917 .035995485H.115997318V0C.13398743 .0009918213 .25698854 .0039978029 .2939911 .0039978029 .32499696 .0039978029 .45098878 .0009918213 .47299195 0V.035995485H.43499757C.33499146 .035995485 .33499146 .04899597 .33499146 .08203125V.63612368Z"/>
<path id="font_3_2" d="M.5049896 .18203736H.47099305C.46798707 .16001892 .45799256 .100997928 .44499208 .09098816 .43699647 .084991458 .3600006 .084991458 .34599305 .084991458H.1619873C.2669983 .17803955 .3019867 .20603943 .3619995 .25306703 .43598939 .312088 .5049896 .374115 .5049896 .46914674 .5049896 .5900879 .39898683 .6640625 .2709961 .6640625 .14698792 .6640625 .06298828 .57710269 .06298828 .4851532 .06298828 .43414308 .10598755 .42915345 .115997318 .42915345 .13999939 .42915345 .16899109 .44615174 .16899109 .48214723 .16899109 .5001526 .1619873 .53515627 .10998535 .53515627 .14099121 .6060791 .20899964 .62805178 .2559967 .62805178 .35598756 .62805178 .4079895 .5501404 .4079895 .46914674 .4079895 .38212586 .34599305 .3130951 .31399537 .27708436L.07299805 .038986207C.06298828 .02999878 .06298828 .027999878 .06298828 0H.47499085L.5049896 .18203736Z"/>
</defs>
<path transform="matrix(1.00005,0,0,-1.00003,1.0961456,181.64608)" stroke-width=".19925" stroke-linecap="butt" stroke-miterlimit="10" stroke-linejoin="miter" fill="none" stroke="#7f807f" d="M60.29648 78.77505V83.02687M133.9798 78.77505V83.02687"/>
<path transform="matrix(1.00005,0,0,-1.00003,1.0961456,181.64608)" stroke-width=".19925" stroke-linecap="butt" stroke-miterlimit="10" stroke-linejoin="miter" fill="none" stroke="#7f807f" d="M95.01228 31.99316H99.264M95.01228 56.44707H99.264M95.01228 105.35487H99.264M95.01228 129.80878H99.264"/>
<path transform="matrix(1.00005,0,0,-1.00003,1.0961456,181.64608)" stroke-width=".3985" stroke-linecap="butt" stroke-miterlimit="10" stroke-linejoin="miter" fill="none" stroke="#000000" d="M0 80.90097H192.28379"/>
<path transform="matrix(1.00005,0,0,-1.00003,193.38953,100.74267)" d="M1.99252 0-1.19551 1.59401 0 0-1.19551-1.59401"/>
<path transform="matrix(1.00005,0,0,-1.00003,1.0961456,181.64608)" stroke-width=".3985" stroke-linecap="butt" stroke-miterlimit="10" stroke-linejoin="miter" fill="none" stroke="#000000" d="M97.13814 .2031V159.60633"/>
<path transform="matrix(0,-1.00003,-1.00005,-0,98.239139,22.034958)" d="M1.99252 0-1.19551 1.59401 0 0-1.19551-1.59401"/>
<use data-text="&#x2212;" xlink:href="#font_1_1" transform="matrix(9.963098,0,0,-9.962899,53.87078,113.31402)"/>
<use data-text="&#x03c0;" xlink:href="#font_2_1" transform="matrix(6.9741489,0,0,-6.9740097,62.81523,109.39089)"/>
<path transform="matrix(1.00005,0,0,-1.00003,-29.428376,-38.136529)" stroke-width=".3985" stroke-linecap="butt" stroke-miterlimit="10" stroke-linejoin="miter" fill="none" stroke="#000000" d="M92.239-148.955H97.148"/>
<use data-text="4" xlink:href="#font_3_3" transform="matrix(6.9741489,0,0,-6.9740097,63.284257,116.75013)"/>
<use data-text="&#x03c0;" xlink:href="#font_2_1" transform="matrix(6.9741489,0,0,-6.9740097,132.62873,109.39089)"/>
<path transform="matrix(1.00005,0,0,-1.00003,48.133508,-38.136529)" stroke-width=".3985" stroke-linecap="butt" stroke-miterlimit="10" stroke-linejoin="miter" fill="none" stroke="#000000" d="M84.491-148.955H89.4"/>
<use data-text="4" xlink:href="#font_3_3" transform="matrix(6.9741489,0,0,-6.9740097,133.09775,116.75013)"/>
<use data-text="&#x2212;" xlink:href="#font_1_1" transform="matrix(9.963098,0,0,-9.962899,79.86208,152.44719)"/>
<use data-text="2" xlink:href="#font_4_4" transform="matrix(9.963098,0,0,-9.962899,87.61147,152.44719)"/>
<use data-text="&#x2212;" xlink:href="#font_1_1" transform="matrix(9.963098,0,0,-9.962899,79.86208,127.99246)"/>
<use data-text="1" xlink:href="#font_4_3" transform="matrix(9.963098,0,0,-9.962899,87.61147,127.99246)"/>
<use data-text="1" xlink:href="#font_4_3" transform="matrix(9.963098,0,0,-9.962899,87.611469,79.49801)"/>
<use data-text="2" xlink:href="#font_4_4" transform="matrix(9.963098,0,0,-9.962899,87.611469,55.043275)"/>
<path transform="matrix(1.00005,0,0,-1.00003,1.0961456,181.64608)" stroke-width=".99628" stroke-linecap="butt" stroke-miterlimit="10" stroke-linejoin="miter" fill="none" stroke="#000000" d="M38.02316 4.69284 38.1308 5.30978 38.73462 8.50517 39.33842 11.46533 39.94225 14.21616 40.54607 16.78381 41.14989 19.18152 41.75371 21.42737 42.35753 23.53969 42.96135 25.52583 43.56517 27.40169 44.16898 29.17339 44.7728 30.84846 45.37662 32.4409 45.98042 33.95387 46.58424 35.39421 47.18808 36.76434 47.7919 38.0746 48.3957 39.32858 48.99953 40.52684 49.60335 41.67348 50.20717 42.77684 50.81097 43.83496 51.4148 44.85225 52.01863 45.83308 52.62245 46.7775 53.22626 47.68889 53.83008 48.56874 54.43388 49.42047 55.0377 50.24359 55.64153 51.03957 56.24535 51.8128 56.84915 52.56085 57.45299 53.28761 58.05681 53.99336 58.66063 54.67978 59.26443 55.34639 59.86826 55.99637 60.47208 56.63022 61.07588 57.24695 61.6797 57.84901 62.28354 58.4359 62.88736 59.00934 63.49117 59.57031 64.09499 60.11882 64.6988 60.65532 65.30263 61.17987 65.90643 61.69414 66.51025 62.19812 67.11407 62.69234 67.71791 63.17726 68.32172 63.65314 68.92554 64.12021 69.52936 64.57921 70.13316 65.02965 70.73698 65.47372 71.3408 65.91022 71.94463 66.33963 72.54845 66.76245 73.15227 67.17963 73.75609 67.59071 74.35991 67.99638 74.96371 68.39574 75.56754 68.79016 76.17134 69.17996 76.77518 69.56413 77.37898 69.94463 77.98282 70.32024 78.58662 70.69218 79.19044 71.05972 79.79427 71.4241 80.39809 71.78381 81.00189 72.14084 81.60571 72.49445 82.20953 72.84486 82.81337 73.19237 83.41718 73.53716 84.021 73.87878 84.62482 74.2182 85.22864 74.55615 85.83244 74.89093 86.43626 75.22325 87.04008 75.55435 87.6439 75.88303 88.24773 76.20998 88.85155 76.53569 89.45537 76.8602 90.05917 77.18298 90.663 77.50383 91.26682 77.82442 91.87064 78.14378 92.47444 78.46198 93.07828 78.7794 93.6821 79.09592 94.28592 79.41255 94.88972 79.72823 95.49355 80.04381 96.09737 80.35867 96.70119 80.67328 97.305 80.98802 97.90881 81.30258 98.51268 81.61731 99.11644 81.93242 99.72029 82.24828 100.32405 82.5643 100.92792 82.88075 101.53177 83.19762 102.13551 83.51558 102.73938 83.83444 103.34315 84.15431 103.947 84.47514 104.55086 84.79721 105.15462 85.12071 105.75847 85.44572 106.36223 85.77219 106.9661 86.10059 107.56995 86.43048 108.1737 86.76183 108.77757 87.09612 109.38133 87.43185 109.98518 87.7708 110.58904 88.11119 111.1928 88.45502 111.79666 88.80128 112.40042 89.15025 113.00427 89.50262 113.60814 89.85768 114.2119 90.21642 114.81575 90.57909 115.41951 90.94467 116.02338 91.31418 116.62723 91.6888 117.23097 92.06636 117.83484 92.44957 118.4386 92.83643 119.04247 93.22867 119.64632 93.62677 120.25008 94.02904 120.85394 94.43767 121.45769 94.85191 122.06155 95.27228 122.6654 95.69925 123.26917 96.13208 123.87303 96.57298 124.47679 97.02048 125.08064 97.47583 125.6845 97.93947 126.28825 98.41116 126.89212 98.8922 127.49588 99.382 128.09973 99.88159 128.70359 100.39098 129.30736 100.91086 129.91121 101.44174 130.51497 101.98462 131.11884 102.53998 131.72269 103.10754 132.32645 103.68883 132.9303 104.28378 133.53406 104.89366 134.13793 105.52017 134.74178 106.16234 135.34554 106.82137 135.9494 107.49849 136.55316 108.19641 137.15702 108.91339 137.76087 109.65143 138.36463 110.41315 138.96848 111.20007 139.57225 112.01024 140.17612 112.84853 140.77997 113.71468 141.38372 114.61285 141.98758 115.54187 142.59134 116.50536 143.19519 117.50723 143.79904 118.54628 144.40282 119.63008 145.00669 120.75594 145.61043 121.93192 146.2143 123.16023 146.81815 124.44308 147.4219 125.78683 148.02576 127.19464 148.62952 128.6741 149.23337 130.22815 149.83724 131.86803 150.441 133.59644 151.04486 135.42363 151.64862 137.35916 152.25247 139.41182 152.85633 141.60044 153.46009 143.92649 154.06394 146.41591 154.66771 149.07942 155.27158 151.94322 155.87543 155.03395 156.47919 158.37093 157.08304 161.99376 157.25009 163.08554"/>
<path transform="matrix(-.17174858,.9851496,.98516926,.17174515,39.121225,176.9531)" d="M2.8892 0-1.73352 2.31136 0 0-1.73352-2.31136"/>
<path transform="matrix(.15115756,-.9884797,-.98849937,-.15115455,158.3541,18.555649)" d="M2.8892 0-1.73352 2.31136 0 0-1.73352-2.31136"/>
<use data-text="y" xlink:href="#font_5_2" transform="matrix(9.963098,0,0,-9.962899,135.60987,9.389893)"/>
<use data-text="=" xlink:href="#font_4_5" transform="matrix(9.963098,0,0,-9.962899,143.61927,9.389893)"/>
<use data-text="t" xlink:href="#font_4_8" transform="matrix(9.963098,0,0,-9.962899,154.12038,9.389893)"/>
<use data-text="a" xlink:href="#font_4_6" transform="matrix(9.963098,0,0,-9.962899,157.98606,9.389893)"/>
<use data-text="n" xlink:href="#font_4_7" transform="matrix(9.963098,0,0,-9.962899,162.96759,9.389893)"/>
<use data-text="(" xlink:href="#font_4_1" transform="matrix(9.963098,0,0,-9.962899,168.49713,9.389893)"/>
<use data-text="x" xlink:href="#font_5_1" transform="matrix(9.963098,0,0,-9.962899,172.4017,9.389893)"/>
<use data-text=")" xlink:href="#font_4_2" transform="matrix(9.963098,0,0,-9.962899,178.09598,9.389893)"/>
<path transform="matrix(1.00005,0,0,-1.00003,1.0961456,181.64608)" stroke-width=".99628" stroke-linecap="butt" stroke-miterlimit="10" stroke-linejoin="miter" fill="none" stroke="#ff0000" d="M49.99757 3.92221 49.73541 2.93706 50.21664 4.68692 50.69789 6.38164 51.17912 8.02052 51.66037 9.61002 52.1416 11.15645 52.62286 12.65405 53.1041 14.1149 53.58534 15.5308 54.06657 16.91245 54.54782 18.25299 55.02905 19.56181 55.5103 20.83585 55.99155 22.08101 56.4728 23.29295 56.95403 24.47504 57.43527 25.63268 57.9165 26.762 58.39775 27.86635 58.87898 28.9462 59.36023 30.0021 59.84148 31.03502 60.32272 32.04744 60.80396 33.04173 61.2852 34.01305 61.76643 34.96626 62.24768 35.90236 62.72891 36.81938 63.21017 37.72075 63.6914 38.60646 64.17265 39.47508 64.65388 40.329 65.13513 41.17021 65.61636 41.99628 66.09761 42.80911 66.57886 43.60876 67.0601 44.39616 67.54134 45.17235 68.02257 45.93481 68.50381 46.6875 68.98505 47.42992 69.4663 48.16257 69.94754 48.88297 70.42879 49.59508 70.91002 50.29788 71.39127 50.99089 71.8725 51.67563 72.35374 52.353 72.83498 53.02254 73.31622 53.6828 73.79747 54.33571 74.27872 54.98373 74.75995 55.62149 75.2412 56.25436 75.72243 56.8799 76.20367 57.50005 76.6849 58.11433 77.16617 58.72127 77.6474 59.32285 78.12865 59.92097 78.60988 60.51178 79.09113 61.10014 79.57236 61.68068 80.0536 62.25682 80.53485 62.83002 81.0161 63.39784 81.49733 63.96077 81.97858 64.52173 82.45981 65.07782 82.94106 65.62999 83.42229 66.17921 83.90355 66.72455 84.38478 67.26743 84.86603 67.80688 85.34726 68.34291 85.8285 68.8765 86.30974 69.40616 86.79097 69.93437 87.27222 70.46062 87.75346 70.98393 88.23471 71.50577 88.71594 72.02469 89.19719 72.54213 89.67842 73.05762 90.15967 73.57115 90.6409 74.08371 91.12216 74.59428 91.6034 75.10393 92.08464 75.61208 92.56587 76.11934 93.04712 76.62465 93.52835 77.13046 94.0096 77.63535 94.49084 78.13802 94.97209 78.64186 95.45332 79.14444 95.93457 79.64603 96.4158 80.14767 96.89705 80.65004 97.37828 81.1509 97.85957 81.65326 98.34076 82.15446 98.82204 82.65642 99.30322 83.15962 99.7845 83.66292 100.26576 84.1656 100.74695 84.67136 101.22824 85.1756 101.70943 85.68117 102.1907 86.18839 102.67197 86.69751 103.15317 87.20712 103.63443 87.71725 104.11563 88.22931 104.59691 88.74283 105.07819 89.25833 105.55937 89.77576 106.04065 90.29616 106.52184 90.81604 107.00311 91.33983 107.48438 91.86609 107.96558 92.3938 108.44685 92.92397 108.92805 93.45755 109.40932 93.99504 109.8906 94.5345 110.37178 95.0764 110.85306 95.62221 111.33424 96.16997 111.81554 96.72264 112.2968 97.27922 112.77798 97.8392 113.25926 98.40263 113.74045 98.9714 114.22173 99.54364 114.703 100.12025 115.1842 100.7013 115.66548 101.28917 116.14667 101.88095 116.62794 102.47713 117.1092 103.07869 117.5904 103.6871 118.07167 104.3004 118.55286 104.92056 119.03415 105.54659 119.51541 106.17896 119.99661 106.81721 120.47789 107.46474 120.95908 108.11913 121.44035 108.77841 121.92162 109.44649 122.40282 110.12485 122.8841 110.80956 123.36528 111.50404 123.84656 112.20488 124.32782 112.91895 124.80902 113.63936 125.29028 114.37053 125.7715 115.11246 126.25276 115.86516 126.73404 116.6286 127.21523 117.40575 127.6965 118.19218 128.17769 118.99084 128.65897 119.80418 129.14025 120.63121 129.62143 121.47047 130.1027 122.32489 130.5839 123.19398 131.06517 124.07823 131.54645 124.97961 132.02764 125.8981 132.50891 126.83322 132.99011 127.78545 133.47139 128.75872 133.95265 129.75205 134.43384 130.76393 134.91512 131.79834 135.3963 132.85424 135.87758 133.93416 136.35887 135.03798 136.84006 136.16873 137.32134 137.32396 137.80252 138.50748 138.2838 139.7175 138.76506 140.96167 139.24625 142.23722 139.72754 143.54552 140.20873 144.88806 140.69 146.26769 141.17127 147.68555 141.65247 149.14397 142.13373 150.64249 142.61493 152.18654 143.0962 153.7814 143.57749 155.41791 144.05867 157.115 144.53995 158.86048 144.27822 157.87667"/>
<path transform="matrix(-.25732286,.96632906,.9663483,.25731773,51.096235,177.72373)" d="M2.8892 0-1.73352 2.31136 0 0-1.73352-2.31136" fill="#ff0000"/>
<path transform="matrix(.25715287,-.96636906,-.9663883,-.25714774,145.38155,23.764679)" d="M2.8892 0-1.73352 2.31136 0 0-1.73352-2.31136" fill="#ff0000"/>
<use data-text="y" xlink:href="#font_5_2" transform="matrix(9.963098,0,0,-9.962899,56.528917,174.68886)" fill="#ff0000"/>
<use data-text="=" xlink:href="#font_4_5" transform="matrix(9.963098,0,0,-9.962899,64.53832,174.68886)" fill="#ff0000"/>
<use data-text="2" xlink:href="#font_4_4" transform="matrix(9.963098,0,0,-9.962899,75.03943,174.68886)" fill="#ff0000"/>
<use data-text="t" xlink:href="#font_4_8" transform="matrix(9.963098,0,0,-9.962899,81.684818,174.68886)" fill="#ff0000"/>
<use data-text="a" xlink:href="#font_4_6" transform="matrix(9.963098,0,0,-9.962899,85.55049,174.68886)" fill="#ff0000"/>
<use data-text="n" xlink:href="#font_4_7" transform="matrix(9.963098,0,0,-9.962899,90.53204,174.68886)" fill="#ff0000"/>
<use data-text="(" xlink:href="#font_4_1" transform="matrix(9.963098,0,0,-9.962899,96.06156,174.68886)" fill="#ff0000"/>
<use data-text="x" xlink:href="#font_5_1" transform="matrix(9.963098,0,0,-9.962899,99.9631,174.68886)" fill="#ff0000"/>
<use data-text=")" xlink:href="#font_4_2" transform="matrix(9.963098,0,0,-9.962899,105.65737,174.68886)" fill="#ff0000"/>
<path transform="matrix(1.00005,0,0,-1.00003,1.0961456,181.64608)" stroke-width=".99628" stroke-linecap="butt" stroke-miterlimit="10" stroke-linejoin="miter" fill="none" stroke="#0000ff" d="M30.76035 2.8764 31.16049 7.1415 31.8303 13.15363 32.50012 18.28284 33.16994 22.71266 33.83977 26.57721 34.50958 29.98096 35.17941 33.00311 35.84923 35.70734 36.51904 38.14134 37.18887 40.33928 37.85867 42.34364 38.52849 44.17084 39.19832 45.84898 39.86813 47.39496 40.53796 48.82686 41.20778 50.15227 41.8776 51.38596 42.54741 52.53859 43.21724 53.61737 43.88705 54.62953 44.55688 55.57954 45.2267 56.4775 45.89651 57.32507 46.56633 58.12593 47.23616 58.88647 47.90598 59.60895 48.5758 60.29573 49.24562 60.95013 49.91544 61.5749 50.58527 62.17284 51.25508 62.74406 51.92488 63.29268 52.59471 63.81833 53.26453 64.32343 53.93436 64.80957 54.60417 65.27774 55.27399 65.72903 55.9438 66.16542 56.61363 66.5859 57.28345 66.99318 57.95328 67.3875 58.6231 67.76921 59.29291 68.1397 59.96272 68.49904 60.63255 68.84825 61.30237 69.18779 61.97218 69.51791 62.64201 69.83948 63.31183 70.1531 63.98166 70.45853 64.65147 70.75699 65.32129 71.04861 65.99109 71.33337 66.66092 71.61154 67.33073 71.88406 68.00056 72.15086 68.67038 72.41228 69.3402 72.6683 70.01001 72.91959 70.67984 73.16655 71.34966 73.40852 72.01949 73.64671 72.6893 73.88072 73.35912 74.11086 74.02895 74.33789 74.69876 74.56105 75.36858 74.781 76.0384 74.99779 76.70822 75.21138 77.37805 75.42256 78.04787 75.63078 78.71768 75.8368 79.38751 76.03989 80.05733 76.24103 80.72713 76.43996 81.39696 76.63693 82.06677 76.83171 82.7366 77.02464 83.40642 77.21587 84.07623 77.40576 84.74605 77.59357 85.41588 77.78064 86.0857 77.96588 86.75551 78.1499 87.42534 78.33244 88.09515 78.51437 88.76497 78.69534 89.4348 78.8752 90.10461 79.05408 90.77443 79.23236 91.44426 79.40952 92.11407 79.5868 92.7839 79.7628 93.45372 79.93875 94.12354 80.11421 94.79333 80.28932 95.46317 80.46431 96.13298 80.63911 96.80281 80.81364 97.47263 80.98816 98.14247 81.16269 98.81224 81.33727 99.4821 81.51236 100.15187 81.68732 100.82173 81.86293 101.49158 82.03873 102.16135 82.21512 102.8312 82.39204 103.50096 82.56956 104.17082 82.74785 104.84068 82.92673 105.51044 83.10658 106.1803 83.28741 106.85007 83.46924 107.51993 83.65178 108.18979 83.83604 108.85954 84.02116 109.52939 84.20786 110.19916 84.39616 110.86902 84.58566 111.53886 84.77692 112.20863 84.97021 112.8785 85.165 113.54825 85.36159 114.21811 85.56065 114.88797 85.76166 115.55774 85.965 116.2276 86.17078 116.89735 86.379 117.56721 86.59004 118.23708 86.80402 118.90683 87.0208 119.57669 87.24063 120.24646 87.46391 120.91632 87.69058 121.58618 87.92094 122.25594 88.15497 122.9258 88.39278 123.59555 88.63513 124.26541 88.88222 124.93526 89.13338 125.60503 89.38928 126.27489 89.65057 126.94464 89.9176 127.6145 90.19026 128.28437 90.46855 128.95412 90.75307 129.624 91.04433 130.29375 91.34279 130.96361 91.64845 131.63347 91.96207 132.30323 92.28351 132.97309 92.61389 133.64286 92.95306 134.31272 93.3024 134.98256 93.66223 135.65233 94.03221 136.32219 94.4137 136.99195 94.80815 137.6618 95.2153 138.33165 95.63628 139.00142 96.07191 139.67128 96.52309 140.34104 96.9914 141.0109 97.47815 141.68076 97.98322 142.35051 98.5091 143.02037 99.05737 143.69014 99.6285 144.36 100.22615 145.02986 100.85106 145.69962 101.50546 146.36948 102.19235 147.03925 102.91412 147.7091 103.67488 148.37895 104.47635 149.04872 105.32297 149.71858 106.22003 150.38834 107.17168 151.0582 108.18382 151.72806 109.26198 152.3978 110.414 153.06768 111.64856 153.73743 112.97507 154.40729 114.40475 155.07715 115.94878 155.7469 117.62755 156.41677 119.45792 157.08654 121.45898 157.7564 123.6591 158.42624 126.09055 159.09601 128.79297 159.76587 131.81642 160.43563 135.21724 161.1055 139.08585 161.77535 143.5158 162.44512 148.64452 163.11498 154.65576 163.51497 158.92014"/>
<path transform="matrix(-.093344669,.9955999,.9956197,.0933428,31.858033,178.76956)" d="M2.8892 0-1.73352 2.31136 0 0-1.73352-2.31136" fill="#0000ff"/>
<path transform="matrix(.09337466,-.9955999,-.9956197,-.0933728,164.61928,22.721177)" d="M2.8892 0-1.73352 2.31136 0 0-1.73352-2.31136" fill="#0000ff"/>
<use data-text="y" xlink:href="#font_5_2" transform="matrix(9.963098,0,0,-9.962899,159.48006,69.3827)" fill="#0000ff"/>
<use data-text="=" xlink:href="#font_4_5" transform="matrix(9.963098,0,0,-9.962899,167.48947,69.3827)" fill="#0000ff"/>
<use data-text="1" xlink:href="#font_3_1" transform="matrix(6.9741489,0,0,-6.9740097,179.20204,65.45957)" fill="#0000ff"/>
<path transform="matrix(1.00005,0,0,-1.00003,76.1809,-82.06785)" stroke-width=".3985" stroke-linecap="butt" stroke-miterlimit="10" stroke-linejoin="miter" fill="none" stroke="#0000ff" d="M103.016-148.955H106.987"/>
<use data-text="2" xlink:href="#font_3_2" transform="matrix(6.9741489,0,0,-6.9740097,179.20204,72.81881)" fill="#0000ff"/>
<use data-text="t" xlink:href="#font_4_8" transform="matrix(9.963098,0,0,-9.962899,186.02939,69.3827)" fill="#0000ff"/>
<use data-text="a" xlink:href="#font_4_6" transform="matrix(9.963098,0,0,-9.962899,189.89507,69.3827)" fill="#0000ff"/>
<use data-text="n" xlink:href="#font_4_7" transform="matrix(9.963098,0,0,-9.962899,194.87662,69.3827)" fill="#0000ff"/>
<use data-text="(" xlink:href="#font_4_1" transform="matrix(9.963098,0,0,-9.962899,200.40613,69.3827)" fill="#0000ff"/>
<use data-text="x" xlink:href="#font_5_1" transform="matrix(9.963098,0,0,-9.962899,204.29529,69.3827)" fill="#0000ff"/>
<use data-text=")" xlink:href="#font_4_2" transform="matrix(9.963098,0,0,-9.962899,209.9896,69.3827)" fill="#0000ff"/>
<path transform="matrix(1.00005,0,0,-1.00003,1.0961456,181.64608)" stroke-width=".99628" stroke-linecap="butt" stroke-miterlimit="10" stroke-linejoin="miter" fill="none" stroke="#ec008c" d="M38.02277 157.109 38.12608 156.51634 38.72519 153.34516 39.32431 150.40384 39.92342 147.66989 40.52252 145.11594 41.12163 142.72972 41.72075 140.49463 42.31985 138.38915 42.91896 136.41107 43.51807 134.54354 44.11719 132.77674 44.7163 131.10433 45.3154 129.51776 45.9145 128.00945 46.51363 126.57327 47.11272 125.20361 47.71184 123.89532 48.31096 122.64671 48.91005 121.44894 49.50917 120.30354 50.10826 119.20262 50.70738 118.14497 51.30649 117.12917 51.9056 116.1493 52.5047 115.20538 53.10382 114.29521 53.70293 113.41536 54.30203 112.5651 54.90115 111.7427 55.50026 110.94698 56.09937 110.17497 56.69847 109.4262 57.29759 108.69968 57.8967 107.9937 58.4958 107.30775 59.09491 106.64041 59.69403 105.99115 60.29314 105.35779 60.89224 104.74107 61.49136 104.13951 62.09047 103.55212 62.68956 102.97844 63.28867 102.41747 63.8878 101.87042 64.4869 101.33392 65.086 100.80937 65.6851 100.2951 66.28423 99.79135 66.88333 99.29738 67.48244 98.81345 68.08156 98.33806 68.68066 97.8705 69.27977 97.4115 69.87888 96.96082 70.478 96.5182 71.0771 96.0812 71.67621 95.65303 72.27531 95.22948 72.87444 94.81328 73.47354 94.40294 74.07265 93.99774 74.67175 93.59889 75.27086 93.2047 75.86998 92.81589 76.46909 92.43196 77.06819 92.05243 77.66731 91.67706 78.2664 91.3061 78.86551 90.93881 79.46465 90.57565 80.06374 90.21716 80.66284 89.86089 81.26195 89.50874 81.86107 89.1588 82.46017 88.81253 83.05928 88.46848 83.6584 88.12782 84.2575 87.78963 84.85661 87.45363 85.45572 87.12009 86.05484 86.78824 86.65395 86.45885 87.25305 86.1319 87.85216 85.80618 88.45128 85.48166 89.05038 85.15912 89.64949 84.83829 90.24861 84.51819 90.84772 84.1998 91.44682 83.88239 92.04593 83.56544 92.64505 83.24991 93.24416 82.93533 93.84325 82.62143 94.44237 82.30771 95.04149 81.99422 95.64058 81.68146 96.23969 81.36888 96.8388 81.05699 97.43791 80.74493 98.03705 80.43257 98.63611 80.12047 99.23526 79.80771 99.83432 79.4942 100.43346 79.1805 101.0326 78.86661 101.63167 78.55154 102.2308 78.23647 102.82985 77.91954 103.42902 77.60164 104.02815 77.2835 104.62721 76.96315 105.22635 76.6428 105.82541 76.31952 106.42455 75.99574 107.0237 75.67003 107.62274 75.34259 108.2219 75.0132 108.82095 74.68184 109.42009 74.3483 110.01924 74.0123 110.6183 73.6741 111.21744 73.33249 111.8165 72.9894 112.41565 72.64311 113.01479 72.29318 113.61385 71.94055 114.21298 71.58476 114.81204 71.22554 115.4112 70.86215 116.01033 70.49533 116.60939 70.12486 117.20854 69.749 117.80759 69.36948 118.40674 68.98555 119.00589 68.59648 119.60493 68.20279 120.20407 67.80417 120.80313 67.39874 121.4023 66.98816 122.00143 66.57146 122.60048 66.1489 123.19962 65.71948 123.79869 65.28372 124.39783 64.84085 124.99696 64.3897 125.59604 63.93117 126.19518 63.46385 126.79424 62.98848 127.39337 62.50429 127.99252 62.00984 128.59159 61.50682 129.19072 60.99182 129.78978 60.46678 130.38893 59.9315 130.98807 59.38373 131.58712 58.82251 132.18628 58.24931 132.78533 57.66241 133.38448 57.06061 133.98361 56.44414 134.58267 55.81004 135.18183 55.16078 135.78087 54.49318 136.38 53.80774 136.97917 53.10225 137.57822 52.37573 138.17736 51.62694 138.77643 50.85495 139.37557 50.05896 139.97472 49.23608 140.57376 48.38461 141.17292 47.5055 141.77198 46.5963 142.37111 45.65189 142.97025 44.67252 143.56932 43.65547 144.16846 42.59857 144.7675 41.49838 145.36666 40.35077 145.9658 39.15472 146.56487 37.90439 147.164 36.59782 147.76306 35.22595 148.36222 33.79247 148.96135 32.28122 149.5604 30.69588 150.15955 29.02153 150.7586 27.25569 151.35776 25.38669 151.9569 23.40837 152.55596 21.30876 153.15509 19.06805 153.75415 16.68526 154.3533 14.13202 154.95244 11.39319 155.5515 8.45676 156.15064 5.28069 156.25333 4.6928"/>
<path transform="matrix(-.17160857,-.9851796,-.9851992,.17160516,39.120817,24.53238)" d="M2.8892 0-1.73352 2.31136 0 0-1.73352-2.31136" fill="#ec008c"/>
<path transform="matrix(.17180859,.98512956,.9851492,-.17180516,157.35727,176.95313)" d="M2.8892 0-1.73352 2.31136 0 0-1.73352-2.31136" fill="#ec008c"/>
<use data-text="y" xlink:href="#font_5_2" transform="matrix(9.963098,0,0,-9.962899,141.92618,131.06356)" fill="#ec008c"/>
<use data-text="=" xlink:href="#font_4_5" transform="matrix(9.963098,0,0,-9.962899,149.93558,131.06356)" fill="#ec008c"/>
<use data-text="&#x2212;" xlink:href="#font_1_1" transform="matrix(9.963098,0,0,-9.962899,160.45212,131.06356)" fill="#ec008c"/>
<use data-text="t" xlink:href="#font_4_8" transform="matrix(9.963098,0,0,-9.962899,169.86258,131.06356)" fill="#ec008c"/>
<use data-text="a" xlink:href="#font_4_6" transform="matrix(9.963098,0,0,-9.962899,173.72826,131.06356)" fill="#ec008c"/>
<use data-text="n" xlink:href="#font_4_7" transform="matrix(9.963098,0,0,-9.962899,178.70981,131.06356)" fill="#ec008c"/>
<use data-text="(" xlink:href="#font_4_1" transform="matrix(9.963098,0,0,-9.962899,184.23932,131.06356)" fill="#ec008c"/>
<use data-text="x" xlink:href="#font_5_1" transform="matrix(9.963098,0,0,-9.962899,188.12848,131.06356)" fill="#ec008c"/>
<use data-text=")" xlink:href="#font_4_2" transform="matrix(9.963098,0,0,-9.962899,193.82178,131.06356)" fill="#ec008c"/>
<path transform="matrix(1.00005,0,0,-1.00003,1.0961456,181.64608)" stroke-width=".3985" stroke-linecap="butt" stroke-dasharray="2.98883,2.98883" stroke-miterlimit="10" stroke-linejoin="miter" fill="none" stroke="#000000" d="M23.45436 .2031V161.59885"/>
<use data-text="x" xlink:href="#font_5_1" transform="matrix(9.963098,0,0,-9.962899,7.537468,191.88838)"/>
<use data-text="=" xlink:href="#font_4_5" transform="matrix(9.963098,0,0,-9.962899,15.998894,191.88838)"/>
<use data-text="&#x2212;" xlink:href="#font_1_1" transform="matrix(9.963098,0,0,-9.962899,26.515419,191.88838)"/>
<use data-text="&#x03c0;" xlink:href="#font_2_1" transform="matrix(6.9741489,0,0,-6.9740097,35.46086,187.96526)"/>
<path transform="matrix(1.00005,0,0,-1.00003,-75.76169,40.437837)" stroke-width=".3985" stroke-linecap="butt" stroke-miterlimit="10" stroke-linejoin="miter" fill="none" stroke="#000000" d="M111.217-148.955H116.126"/>
<use data-text="2" xlink:href="#font_3_2" transform="matrix(6.9741489,0,0,-6.9740097,35.929887,195.3245)"/>
<path transform="matrix(1.00005,0,0,-1.00003,1.0961456,181.64608)" stroke-width=".3985" stroke-linecap="butt" stroke-dasharray="2.98883,2.98883" stroke-miterlimit="10" stroke-linejoin="miter" fill="none" stroke="#000000" d="M170.82193 .2031V161.59885"/>
<use data-text="x" xlink:href="#font_5_1" transform="matrix(9.963098,0,0,-9.962899,158.78702,191.88838)"/>
<use data-text="=" xlink:href="#font_4_5" transform="matrix(9.963098,0,0,-9.962899,167.24845,191.88838)"/>
<use data-text="&#x03c0;" xlink:href="#font_2_1" transform="matrix(6.9741489,0,0,-6.9740097,178.96103,187.96526)"/>
<path transform="matrix(1.00005,0,0,-1.00003,75.48786,40.437837)" stroke-width=".3985" stroke-linecap="butt" stroke-miterlimit="10" stroke-linejoin="miter" fill="none" stroke="#000000" d="M103.468-148.955H108.377"/>
<use data-text="2" xlink:href="#font_3_2" transform="matrix(6.9741489,0,0,-6.9740097,179.43006,195.3245)"/>
<use data-text="x" xlink:href="#font_5_1" transform="matrix(9.963098,0,0,-9.962899,186.1684,97.22254)"/>
<use data-text="y" xlink:href="#font_5_2" transform="matrix(9.963098,0,0,-9.962899,101.75917,27.851456)"/>
</svg>
