<svg xmlns="http://www.w3.org/2000/svg" xmlns:xlink="http://www.w3.org/1999/xlink" xmlns:inkscape="http://www.inkscape.org/namespaces/inkscape" version="1.1" width="197" height="171" viewBox="0 0 197 171">
<defs>
<path id="font_1_1" d="M.6589966 .23046875C.6759949 .23046875 .69400027 .23046875 .69400027 .25045777 .69400027 .27046205 .6759949 .27046205 .6589966 .27046205H.117996219C.100997928 .27046205 .08299255 .27046205 .08299255 .25045777 .08299255 .23046875 .100997928 .23046875 .117996219 .23046875H.6589966Z"/>
<path id="font_2_5" d="M.13198853 .327713V.35173036C.13198853 .6047821 .2559967 .64100649 .30699159 .64100649 .33099366 .64100649 .37298585 .634964 .394989 .6007538 .37998963 .6007538 .33999635 .6007538 .33999635 .5557556 .33999635 .524765 .3639984 .5097656 .38598634 .5097656 .4019928 .5097656 .43199159 .51875308 .43199159 .5577545 .43199159 .6178589 .3880005 .6660156 .30499269 .6660156 .1769867 .6660156 .041992189 .5367584 .041992189 .31570436 .041992189 .048553468 .1579895-.022460938 .25099183-.022460938 .3619995-.022460938 .45700074 .07156372 .45700074 .2036438 .45700074 .33070375 .36799623 .4267578 .25698854 .4267578 .18899536 .4267578 .1519928 .37573243 .13198853 .327713M.25099183 .0055389406C.18798828 .0055389406 .1579895 .06556702 .1519928 .080566409 .13398743 .127594 .13398743 .2076416 .13398743 .22564698 .13398743 .30369569 .1659851 .40374757 .2559967 .40374757 .27198792 .40374757 .31799317 .40374757 .34899903 .34172059 .36698915 .30470277 .36698915 .2536621 .36698915 .20463562 .36698915 .15661621 .36698915 .10658264 .34999085 .0705719 .31999208 .010528564 .27398683 .0055389406 .25099183 .0055389406Z"/>
<path id="font_2_3" d="M.2899933 .35191346C.37199403 .37893678 .42999269 .4490509 .42999269 .52809146 .42999269 .6100464 .34199525 .6660156 .24598694 .6660156 .14498902 .6660156 .068984989 .60606387 .068984989 .53009036 .068984989 .49710084 .09098816 .47808839 .11999512 .47808839 .15098572 .47808839 .17098999 .50009158 .17098999 .5290985 .17098999 .57910159 .12399292 .57910159 .10899353 .57910159 .13999939 .62802127 .20599365 .64100649 .24198914 .64100649 .2829895 .64100649 .33799745 .6190338 .33799745 .5290985 .33799745 .51708987 .33599855 .45906068 .30999757 .4149933 .27999879 .36691285 .24598694 .36390687 .22099304 .36291505 .21299744 .36190797 .18899536 .35990907 .18199158 .35990907 .17399597 .35890199 .16699219 .35791017 .16699219 .3479004 .16699219 .33691407 .17399597 .33691407 .19099427 .33691407H.23498535C.31698609 .33691407 .35398866 .2686615 .35398866 .17037964 .35398866 .034469606 .2849884 .0055389406 .24099732 .0055389406 .19799805 .0055389406 .12298584 .022491456 .08799744 .08137512 .12298584 .07637024 .1539917 .09837341 .1539917 .1363678 .1539917 .17237854 .1269989 .19238281 .09799194 .19238281 .07398987 .19238281 .041992189 .17837525 .041992189 .1343689 .041992189 .043441774 .1349945-.022460938 .24398804-.022460938 .3659973-.022460938 .45700074 .06838989 .45700074 .17037964 .45700074 .252594 .3939972 .33088685 .2899933 .35191346Z"/>
<path id="font_2_2" d="M.2939911 .64004519C.2939911 .66400149 .2939911 .6660156 .2709961 .6660156 .20899964 .60227969 .12098694 .60227969 .08898926 .60227969V.57128909C.10899353 .57128909 .16799927 .57128909 .21998596 .5972748V.07902527C.21998596 .042999269 .21699524 .0309906 .1269989 .0309906H.09498596V0C.12998963 .0029907227 .21699524 .0029907227 .25698854 .0029907227 .29699708 .0029907227 .38398744 .0029907227 .4189911 0V.0309906H.3869934C.29699708 .0309906 .2939911 .041992189 .2939911 .07902527V.64004519Z"/>
<path id="font_2_1" d="M.45999146 .31976319C.45999146 .39982606 .45498658 .47988893 .41999818 .5539398 .37399293 .65000918 .2919922 .6660156 .25 .6660156 .18998719 .6660156 .116989139 .64001467 .07598877 .54693606 .04399109 .47789 .038986207 .39982606 .038986207 .31976319 .038986207 .24472046 .042999269 .15464783 .083999637 .07859802 .1269989-.0024719239 .19999695-.022460938 .24899292-.022460938 .30299378-.022460938 .3789978-.0014648438 .4229889 .09359741 .45498658 .16265869 .45999146 .2407074 .45999146 .31976319M.24899292-.00047302247C.20999146-.00047302247 .15098572 .024551392 .1329956 .12062073 .12199402 .18066406 .12199402 .2727356 .12199402 .3317871 .12199402 .39582826 .12199402 .46188355 .12998963 .5159149 .14898682 .63500979 .22399903 .64401248 .24899292 .64401248 .28199769 .64401248 .34799195 .6259918 .36698915 .52693179 .3769989 .47088624 .3769989 .39482118 .3769989 .3317871 .3769989 .25672914 .3769989 .18867493 .3659973 .12461853 .35099793 .029556275 .2939911-.00047302247 .24899292-.00047302247Z"/>
<path id="font_2_4" d="M.44898988 .20022583C.44898988 .3193512 .36698915 .41944886 .25898744 .41944886 .21099854 .41944886 .16799927 .40345765 .13198853 .36842347V.5637665C.1519928 .5577698 .18499756 .55078127 .21699524 .55078127 .33999635 .55078127 .4099884 .6417694 .4099884 .6547699 .4099884 .6607666 .40699769 .6657715 .3999939 .6657715 .39898683 .6657715 .39698792 .6657715 .3919983 .66278079 .37199403 .6537781 .32299806 .6337738 .2559967 .6337738 .21598816 .6337738 .16999817 .6407776 .12298584 .6617737 .114990238 .66477969 .11299133 .66477969 .11099243 .66477969 .100997928 .66477969 .100997928 .6567688 .100997928 .6407776V.34439088C.100997928 .32637025 .100997928 .31835938 .114990238 .31835938 .12199402 .31835938 .12399292 .32136537 .12799073 .32736207 .13899231 .3433838 .17599488 .39746095 .25698854 .39746095 .30899049 .39746095 .33399964 .35139466 .34199525 .33337403 .35798646 .29632569 .3600006 .25727845 .3600006 .20722962 .3600006 .17222595 .3600006 .11222839 .33599855 .07035828 .31199647 .031463624 .2749939 .0055389406 .22898865 .0055389406 .1559906 .0055389406 .09899902 .058380128 .08198547 .11723328 .084991458 .1162262 .08799744 .115234378 .09899902 .115234378 .13198853 .115234378 .14898682 .14022827 .14898682 .16423035 .14898682 .18823242 .13198853 .21322632 .09899902 .21322632 .084991458 .21322632 .049987794 .20622254 .049987794 .16023255 .049987794 .07434082 .11898804-.022460938 .23098755-.022460938 .34700013-.022460938 .44898988 .073349 .44898988 .20022583Z"/>
<path id="font_3_1" d="M.33399964 .30233766C.33999635 .32835389 .36299134 .42037965 .43299867 .42037965 .43798829 .42037965 .46199037 .42037965 .48298646 .40734864 .45498658 .402359 .43499757 .37734986 .43499757 .35334779 .43499757 .33735658 .44599916 .31835938 .47299195 .31835938 .49499513 .31835938 .5269928 .3363495 .5269928 .37635804 .5269928 .42837525 .46798707 .4423828 .43399049 .4423828 .37599183 .4423828 .34098817 .38935853 .32899476 .36634828 .3039856 .43237306 .25 .4423828 .22099304 .4423828 .116989139 .4423828 .05999756 .3133545 .05999756 .28834535 .05999756 .27833558 .069992069 .27833558 .07199097 .27833558 .07998657 .27833558 .08299255 .28033448 .084991458 .28933717 .11898804 .39535523 .18499756 .42037965 .21899414 .42037965 .23799134 .42037965 .272995 .4113617 .272995 .35334779 .272995 .32235719 .2559967 .25532533 .21899414 .11528015 .20298767 .053268434 .16799927 .011245728 .12399292 .011245728 .117996219 .011245728 .09498596 .011245728 .07398987 .024276734 .09899902 .029266358 .12098694 .05027771 .12098694 .07827759 .12098694 .105270389 .09899902 .11328125 .083999637 .11328125 .053985597 .11328125 .0289917 .08728027 .0289917 .055267335 .0289917 .009246826 .07899475-.0107421879 .12298584-.0107421879 .18899536-.0107421879 .22499085 .059280397 .22799683 .0652771 .23999024 .028274537 .27598573-.0107421879 .33599855-.0107421879 .43899537-.0107421879 .49598695 .118270877 .49598695 .14328003 .49598695 .1532898 .4869995 .1532898 .48399354 .1532898 .47499085 .1532898 .47299195 .14929199 .47099305 .14228821 .43798829 .03527832 .36999513 .011245728 .33799745 .011245728 .29899598 .011245728 .2829895 .043273927 .2829895 .07727051 .2829895 .09927368 .2889862 .121276859 .2999878 .16529846L.33399964 .30233766Z"/>
<path id="font_3_2" d="M.48599244 .38136292C.48999024 .39537049 .48999024 .39736939 .48999024 .40437318 .48999024 .42237855 .47599793 .43138124 .46099855 .43138124 .45098878 .43138124 .43499757 .42536927 .42599488 .41036988 .42399598 .405365 .41600038 .37435914 .4119873 .35635377 .40499879 .33035279 .397995 .30334474 .3919983 .27633668L.34700013 .09628296C.34298707 .08126831 .2999878 .011245728 .23399353 .011245728 .18299866 .011245728 .17199707 .055267335 .17199707 .0922699 .17199707 .1382904 .18899536 .20030213 .22299195 .28833009 .23899842 .3293457 .24299622 .3403473 .24299622 .36035157 .24299622 .405365 .21099854 .4423828 .16099549 .4423828 .06599426 .4423828 .0289917 .29733277 .0289917 .28833009 .0289917 .27833558 .038986207 .27833558 .040985109 .27833558 .050994874 .27833558 .051986696 .28033448 .056991579 .29634095 .083999637 .3903656 .12399292 .42037965 .1579895 .42037965 .1659851 .42037965 .18299866 .42037965 .18299866 .3883667 .18299866 .36335755 .17298889 .3373413 .1659851 .31834413 .12599182 .21231079 .10798645 .1552887 .10798645 .10827637 .10798645 .019256592 .17098999-.0107421879 .22999573-.0107421879 .2689972-.0107421879 .30299378 .0062561037 .33099366 .03425598 .31799317-.017745972 .30599977-.06674194 .2659912-.11973572 .23999024-.15385437 .20199585-.18309021 .1559906-.18309021 .14199829-.18309021 .09700012-.18005371 .07998657-.14074707 .09599304-.14074707 .10899353-.14074707 .12298584-.1287384 .1329956-.11973572 .14299011-.10673523 .14299011-.08773804 .14299011-.056747438 .115997318-.052734376 .10598755-.052734376 .08299255-.052734376 .049987794-.068740848 .049987794-.11773682 .049987794-.16796875 .09399414-.20507813 .1559906-.20507813 .25898744-.20507813 .3619995-.11373901 .3899994-.00074768069L.48599244 .38136292Z"/>
</defs>
<path transform="matrix(1.00005,0,0,-1.00006,1.1102524,166.5352)" stroke-width=".19925" stroke-linecap="butt" stroke-miterlimit="10" stroke-linejoin="miter" fill="none" stroke="#7f807f" d="M7.47177 79.28084V82.1155M22.41531 79.28084V82.1155M37.35886 79.28084V82.1155M52.3024 79.28084V82.1155M67.24594 79.28084V82.1155M82.18948 79.28084V82.1155M97.13303 79.28084V82.1155M112.07658 79.28084V82.1155M127.02013 79.28084V82.1155M141.96367 79.28084V82.1155M156.90721 79.28084V82.1155M171.85076 79.28084V82.1155M186.7943 79.28084V82.1155"/>
<path transform="matrix(1.00005,0,0,-1.00006,1.1102524,166.5352)" stroke-width=".19925" stroke-linecap="butt" stroke-miterlimit="10" stroke-linejoin="miter" fill="none" stroke="#7f807f" d="M7.47177 78.57237V82.82396M52.3024 78.57237V82.82396M141.96367 78.57237V82.82396M186.7943 78.57237V82.82396"/>
<path transform="matrix(1.00005,0,0,-1.00006,1.1102524,166.5352)" stroke-width=".19925" stroke-linecap="butt" stroke-miterlimit="10" stroke-linejoin="miter" fill="none" stroke="#7f807f" d="M95.00722 0H99.25883M95.00722 40.34909H99.25883M95.00722 121.04727H99.25883M95.00722 161.39636H99.25883"/>
<path transform="matrix(1.00005,0,0,-1.00006,1.1102524,166.5352)" stroke-width=".3985" stroke-linecap="butt" stroke-miterlimit="10" stroke-linejoin="miter" fill="none" stroke="#000000" d="M0 80.69818H192.27355"/>
<path transform="matrix(1.00005,0,0,-1.00006,193.3934,85.832187)" d="M1.99252 0-1.19551 1.59401 0 0-1.19551-1.59401"/>
<path transform="matrix(1.00005,0,0,-1.00006,1.1102524,166.5352)" stroke-width=".3985" stroke-linecap="butt" stroke-miterlimit="10" stroke-linejoin="miter" fill="none" stroke="#000000" d="M97.13303 0V159.40384"/>
<path transform="matrix(0,-1.00006,-1.00005,-0,98.24814,7.121811)" d="M1.99252 0-1.19551 1.59401 0 0-1.19551-1.59401"/>
<use data-text="&#x2212;" xlink:href="#font_1_1" transform="matrix(9.963098,0,0,-9.963197,2.217308,97.899089)"/>
<use data-text="6" xlink:href="#font_2_5" transform="matrix(9.963098,0,0,-9.963197,9.96669,97.899089)"/>
<use data-text="&#x2212;" xlink:href="#font_1_1" transform="matrix(9.963098,0,0,-9.963197,47.049547,97.899089)"/>
<use data-text="3" xlink:href="#font_2_3" transform="matrix(9.963098,0,0,-9.963197,54.798929,97.899089)"/>
<use data-text="3" xlink:href="#font_2_3" transform="matrix(9.963098,0,0,-9.963197,140.59024,97.899089)"/>
<use data-text="6" xlink:href="#font_2_5" transform="matrix(9.963098,0,0,-9.963197,185.42346,97.899089)"/>
<use data-text="&#x2212;" xlink:href="#font_1_1" transform="matrix(9.963098,0,0,-9.963197,74.88994,169.33037)"/>
<use data-text="1" xlink:href="#font_2_2" transform="matrix(9.963098,0,0,-9.963197,82.63932,169.33037)"/>
<use data-text="0" xlink:href="#font_2_1" transform="matrix(9.963098,0,0,-9.963197,87.62087,169.33037)"/>
<use data-text="&#x2212;" xlink:href="#font_1_1" transform="matrix(9.963098,0,0,-9.963197,79.87119,128.97895)"/>
<use data-text="5" xlink:href="#font_2_4" transform="matrix(9.963098,0,0,-9.963197,87.620578,128.97895)"/>
<use data-text="5" xlink:href="#font_2_4" transform="matrix(9.963098,0,0,-9.963197,87.62057,48.69114)"/>
<use data-text="1" xlink:href="#font_2_2" transform="matrix(9.963098,0,0,-9.963197,82.63933,8.339706)"/>
<use data-text="0" xlink:href="#font_2_1" transform="matrix(9.963098,0,0,-9.963197,87.62087,8.339706)"/>
<path transform="matrix(1.00005,0,0,-1.00006,1.1102524,166.5352)" stroke-width=".99628" stroke-linecap="butt" stroke-miterlimit="10" stroke-linejoin="miter" fill="none" stroke="#0000ff" d="M10.45937 157.77745 10.76265 150.38959 11.18436 142.3836 11.60608 136.01007 12.0278 130.80416 12.44952 126.45259 12.87125 122.82303 13.29297 119.70557 13.71469 116.99242 14.1364 114.61537 14.55814 112.51779 14.97986 110.64946 15.40157 108.97723 15.82329 107.46898 16.24503 106.11769 16.66675 104.87138 17.08846 103.73097 17.51018 102.68358 17.93192 101.71715 18.35362 100.82219 18.77534 99.99513 19.19707 99.22 19.6188 98.49615 20.04051 97.81781 20.46223 97.18062 20.88396 96.58159 21.30568 96.02298 21.7274 95.4845 22.14912 94.9807 22.57085 94.49974 22.99257 94.0424 23.41429 93.6077 23.83601 93.19444 24.25772 92.79822 24.67944 92.41861 25.10118 92.05457 25.5229 91.70638 25.94461 91.37125 26.36633 91.05327 26.78807 90.74323 27.20978 90.44409 27.6315 90.15584 28.05322 89.87515 28.47496 89.60579 28.89667 89.34491 29.31839 89.09602 29.74011 88.85094 30.16185 88.6128 30.58356 88.38185 31.00528 88.1576 31.427 87.93922 31.84871 87.72746 32.27045 87.52023 32.69217 87.31792 33.11389 87.12045 33.53561 86.92775 33.95734 86.73923 34.37906 86.55719 34.80077 86.3769 35.22249 86.20016 35.64423 86.02684 36.06595 85.85704 36.48766 85.69048 36.90938 85.52795 37.33112 85.36696 37.75282 85.20903 38.17455 85.05336 38.59627 84.90141 39.018 84.74986 39.43971 84.60332 39.86143 84.45709 40.28316 84.31255 40.70486 84.17021 41.1266 84.0294 41.54832 83.89043 41.97005 83.75316 42.39175 83.61832 42.81349 83.48395 43.23521 83.35112 43.65692 83.21918 44.07864 83.08868 44.50038 82.95934 44.9221 82.83272 45.34381 82.70529 45.76553 82.57907 46.18727 82.4536 46.60898 82.32884 47.0307 82.20497 47.45242 82.08255 47.87416 81.95981 48.29587 81.83778 48.71759 81.7161 49.13931 81.59512 49.56102 81.47446 49.98276 81.35532 50.40448 81.23538 50.8262 81.11569 51.24791 80.99641 51.66965 80.87704 52.09137 80.75781 52.51308 80.63852 52.93483 80.51929 53.35652 80.4001 53.77826 80.2804 54.19994 80.16078 54.62169 80.04086 55.04344 79.92072 55.46512 79.80038 55.88687 79.6792 56.30855 79.5579 56.7303 79.4359 57.15204 79.31363 57.57373 79.19064 57.99548 79.0666 58.41716 78.94235 58.83891 78.8171 59.26065 78.6908 59.68234 78.56369 60.10408 78.43555 60.52577 78.30635 60.94753 78.17593 61.36926 78.04456 61.79094 77.91174 62.21269 77.77762 62.63438 77.64197 63.05612 77.50511 63.47787 77.36598 63.89957 77.22589 64.32129 77.08337 64.74298 76.93948 65.16473 76.79343 65.58649 76.64502 66.00816 76.49469 66.42992 76.34175 66.8516 76.18634 67.27333 76.02864 67.69508 75.8679 68.11678 75.70488 68.53853 75.53833 68.9602 75.36862 69.38196 75.19583 69.8037 75.01903 70.22537 74.83916 70.64713 74.65494 71.06882 74.46649 71.49057 74.27426 71.91231 74.07704 72.33398 73.87482 72.75574 73.66798 73.17741 73.45549 73.59917 73.23714 74.02092 73.01279 74.4426 72.7824 74.86433 72.54482 75.28603 72.2999 75.70778 72.04788 76.12952 71.78772 76.55121 71.51866 76.97296 71.24034 77.39464 70.95224 77.81638 70.65367 78.23813 70.34346 78.65982 70.02228 79.08156 69.68787 79.50323 69.33902 79.92499 68.97635 80.34674 68.59787 80.76842 68.20164 81.19017 67.78679 81.61186 67.3519 82.0336 66.89474 82.45534 66.41516 82.87703 65.90869 83.29878 65.3744 83.72046 64.81007 84.14221 64.21008 84.56396 63.5737 84.98564 62.89655 85.40738 62.17348 85.82907 61.39952 86.25082 60.56857 86.67256 59.67499 87.09425 58.70888 87.51599 57.66205 87.93768 56.52332 88.35942 55.27913 88.78117 53.91235 89.20287 52.40555 89.6246 50.73396 90.04628 48.86629 90.46803 46.76959 90.88979 44.39891 91.31146 41.68076 91.73322 38.55177 92.1549 34.8976 92.57663 30.57652 92.99838 25.38246 93.42007 19.01273 93.84183 11.02626 94.14589 3.5703"/>
<path transform="matrix(-.04100205,-.9991699,-.9991599,.04100246,11.570145,8.748291)" d="M2.8892 0-1.73352 2.31136 0 0-1.73352-2.31136" fill="#0000ff"/>
<path transform="matrix(.040712034,.9991699,.9991599,-.04071244,95.26084,162.96469)" d="M2.8892 0-1.73352 2.31136 0 0-1.73352-2.31136" fill="#0000ff"/>
<path transform="matrix(1.00005,0,0,-1.00006,1.1102524,166.5352)" stroke-width=".99628" stroke-linecap="butt" stroke-miterlimit="10" stroke-linejoin="miter" fill="none" stroke="#0000ff" d="M100.11989 157.82604 100.4239 150.37758 100.84563 142.38838 101.26735 136.02275 101.68909 130.824 102.1108 126.50182 102.53252 122.849 102.95424 119.71558 103.37596 117.00485 103.79768 114.6312 104.2194 112.53271 104.64113 110.66423 105.06284 108.99078 105.48457 107.48398 105.9063 106.1194 106.32802 104.87453 106.74973 103.73564 107.17146 102.68745 107.59319 101.72198 108.0149 100.82889 108.43661 99.99681 108.85834 99.2238 109.28008 98.49979 109.70178 97.82304 110.1235 97.18666 110.54523 96.5877 110.96695 96.02242 111.38867 95.48837 111.8104 94.9815 112.23212 94.50159 112.65384 94.04443 113.07556 93.61003 113.49728 93.19582 113.91899 92.79886 114.34073 92.42055 114.76245 92.05733 115.18417 91.70847 115.60588 91.37437 116.0276 91.05289 116.44934 90.74298 116.87105 90.44409 117.29277 90.15623 117.7145 89.87807 118.13623 89.60861 118.55794 89.34845 118.97966 89.09644 119.40138 88.85176 119.8231 88.61418 120.24483 88.38354 120.66655 88.1592 121.08827 87.94139 121.50998 87.72852 121.93172 87.5216 122.35344 87.31929 122.77515 87.12239 123.19688 86.92992 123.6186 86.74141 124.04033 86.55742 124.46204 86.3773 124.88376 86.2005 125.3055 86.02788 125.7272 85.85826 126.14893 85.69177 126.57065 85.52844 126.99239 85.36769 127.4141 85.21008 127.83582 85.0546 128.25754 84.90173 128.67926 84.75131 129.10099 84.60307 129.5227 84.45709 129.94443 84.31296 130.36614 84.17068 130.78787 84.03012 131.2096 83.89154 131.6313 83.75436 132.05303 83.61871 132.47476 83.48468 132.89649 83.35185 133.31819 83.2204 133.73992 83.08998 134.16165 82.96078 134.58336 82.83272 135.00508 82.70561 135.4268 82.57933 135.84854 82.45415 136.27025 82.32973 136.69197 82.20584 137.1137 82.08286 137.53542 81.96043 137.95714 81.83852 138.37886 81.71713 138.80059 81.59634 139.22229 81.47562 139.64403 81.35548 140.06575 81.23555 140.48746 81.11594 140.90918 80.99641 141.33092 80.87712 141.75264 80.75781 142.17435 80.63869 142.5961 80.51953 143.01779 80.4001 143.43952 80.28064 143.8612 80.16095 144.28296 80.04108 144.70471 79.92188 145.12639 79.80121 145.54814 79.68024 145.96982 79.55855 146.39156 79.43654 146.81331 79.31476 147.235 79.19138 147.65676 79.06749 148.07843 78.94273 148.50019 78.81726 148.92192 78.69104 149.3436 78.56361 149.76535 78.437 150.18704 78.30765 150.6088 78.17715 151.03054 78.04521 151.45221 77.91238 151.87397 77.77802 152.29564 77.64317 152.71739 77.5059 153.13915 77.36693 153.56084 77.22612 153.98256 77.08379 154.40425 76.93924 154.826 76.79503 155.24774 76.64647 155.66944 76.49492 156.09119 76.34297 156.51287 76.1873 156.9346 76.02937 157.35636 75.86967 157.77805 75.70586 158.19979 75.53929 158.62148 75.3695 159.04323 75.19617 159.46497 75.01942 159.88665 74.83916 160.3084 74.6571 160.73009 74.46858 161.15184 74.27588 161.57358 74.07841 161.99526 73.8761 162.417 73.66887 162.83869 73.4571 163.26044 73.23874 163.68219 73.01448 164.10387 72.78354 164.5256 72.5454 164.9473 72.30031 165.36905 72.05142 165.79079 71.79054 166.21248 71.52118 166.63423 71.2405 167.05591 70.95224 167.47765 70.6531 167.8994 70.34718 168.32109 70.0251 168.74283 69.68997 169.1645 69.34177 169.58626 68.97772 170.00801 68.59811 170.42969 68.20714 170.85144 67.78864 171.27313 67.35393 171.69487 66.89659 172.11661 66.41565 172.5383 65.91183 172.96006 65.37335 173.38173 64.81476 173.80348 64.21571 174.22524 63.57852 174.6469 62.90018 175.06865 62.17633 175.49034 61.40121 175.9121 60.57414 176.33383 59.67918 176.75553 58.71275 177.17726 57.66537 177.59894 56.52495 178.02069 55.27864 178.44245 53.92735 178.86414 52.4191 179.28588 50.74687 179.70755 48.87856 180.1293 46.78096 180.55104 44.40392 180.97274 41.70503 181.39449 38.5733 181.81618 34.94374 182.2379 30.59218 182.65966 25.38626 183.08135 19.01273 183.50308 11.1177 183.80765 3.61888"/>
<path transform="matrix(-.040742034,-.9991699,-.9991599,.040742443,101.23514,8.699707)" d="M2.8892 0-1.73352 2.31136 0 0-1.73352-2.31136" fill="#0000ff"/>
<path transform="matrix(.040542026,.9991699,.9991599,-.04054243,184.9271,162.9161)" d="M2.8892 0-1.73352 2.31136 0 0-1.73352-2.31136" fill="#0000ff"/>
<path transform="matrix(1.00005,0,0,-1.00006,1.1102524,166.5352)" stroke-width=".3985" stroke-linecap="butt" stroke-dasharray="2.98883,2.98883" stroke-miterlimit="10" stroke-linejoin="miter" fill="none" stroke="#ff0000" d="M7.47177 0V161.39636"/>
<path transform="matrix(1.00005,0,0,-1.00006,1.1102524,166.5352)" stroke-width=".3985" stroke-linecap="butt" stroke-dasharray="2.98883,2.98883" stroke-miterlimit="10" stroke-linejoin="miter" fill="none" stroke="#ff0000" d="M97.13303 0V161.39636"/>
<path transform="matrix(1.00005,0,0,-1.00006,1.1102524,166.5352)" stroke-width=".3985" stroke-linecap="butt" stroke-dasharray="2.98883,2.98883" stroke-miterlimit="10" stroke-linejoin="miter" fill="none" stroke="#ff0000" d="M186.7943 0V161.39636"/>
<use data-text="x" xlink:href="#font_3_1" transform="matrix(9.963098,0,0,-9.963197,186.17151,82.31215)"/>
<use data-text="y" xlink:href="#font_3_2" transform="matrix(9.963098,0,0,-9.963197,101.76828,12.93898)"/>
</svg>
