<svg xmlns="http://www.w3.org/2000/svg" xmlns:xlink="http://www.w3.org/1999/xlink" xmlns:inkscape="http://www.inkscape.org/namespaces/inkscape" version="1.1" width="197" height="171" viewBox="0 0 197 171">
<defs>
<path id="font_1_1" d="M.6589966 .23046875C.6759949 .23046875 .69400027 .23046875 .69400027 .25045777 .69400027 .27046205 .6759949 .27046205 .6589966 .27046205H.117996219C.100997928 .27046205 .08299255 .27046205 .08299255 .25045777 .08299255 .23046875 .100997928 .23046875 .117996219 .23046875H.6589966Z"/>
<path id="font_2_2" d="M.272995 .33428956C.35099793 .33428956 .40699769 .2803192 .40699769 .1733551 .40699769 .04940796 .33499146 .012466431 .2769928 .012466431 .23699951 .012466431 .14898682 .0234375 .10699463 .082351688 .1539917 .084350589 .16499329 .11735535 .16499329 .13835144 .16499329 .17034912 .14099121 .19335938 .10998535 .19335938 .08198547 .19335938 .053985597 .17634583 .053985597 .13534546 .053985597 .041412355 .1579895-.01953125 .2789917-.01953125 .41799928-.01953125 .5139923 .07336426 .5139923 .1733551 .5139923 .2513275 .44999696 .32929994 .33999635 .35229493 .44499208 .39024354 .48298646 .4650879 .48298646 .5260773 .48298646 .60505679 .3919983 .6640625 .2809906 .6640625 .16999817 .6640625 .084991458 .61006167 .084991458 .5300751 .084991458 .49606324 .10699463 .47706605 .13699341 .47706605 .16799927 .47706605 .18798828 .5000763 .18798828 .5280762 .18798828 .5570679 .16799927 .57806399 .13699341 .5800781 .17199707 .62405398 .24099732 .63505557 .27799989 .63505557 .32299806 .63505557 .38598634 .6130676 .38598634 .5260773 .38598634 .48406983 .37199403 .43814088 .34599305 .4072113 .31298829 .36927796 .2849884 .3672943 .23498535 .36428834 .20999146 .3623047 .20799256 .3623047 .20298767 .3612976 .20098877 .3612976 .19299317 .3592987 .19299317 .34829713 .19299317 .33428956 .20199585 .33428956 .21899414 .33428956H.272995Z"/>
<path id="font_3_1" d="M.31098939 .36265565H.42999269C.4149933 .30274964 .3929901 .2118988 .3929901 .13302613 .3929901 .09309387 .397995 .06613159 .4039917 .044174196 .41999818-.0057678224 .43299867-.009765625 .44898988-.009765625 .47200013-.009765625 .49598695 .011230469 .49598695 .035186769 .49598695 .043182374 .49398805 .047164918 .48799134 .057159425 .46899415 .09408569 .45098878 .15100098 .45098878 .23286438 .45098878 .25183106 .45098878 .29177857 .46499635 .36265565H.58999636C.60798647 .36265565 .6159973 .36265565 .6269989 .37065126 .6409912 .380661 .6439972 .39665223 .6439972 .4016571 .6439972 .43066407 .6179962 .43066407 .6009979 .43066407H.22399903C.18299866 .43066407 .15499878 .42166139 .10998535 .37965394 .083999637 .35665895 .04499817 .30274964 .04499817 .2937622 .04499817 .28178407 .057998659 .28178407 .06199646 .28178407 .07299805 .28178407 .07398987 .28378297 .07998657 .2927704 .1309967 .36265565 .19299317 .36265565 .21499634 .36265565H.27598573C.24499512 .25283814 .19099427 .13502503 .16099549 .07511902 .15499878 .062149049 .14498902 .04118347 .14199829 .03718567 .14099121 .033187868 .13899231 .029190064 .13899231 .022201539 .13899231 .006225586 .15098572-.009765625 .17399597-.009765625 .21398926-.009765625 .22499085 .035186769 .24899292 .12504578L.31098939 .36265565Z"/>
<path id="font_2_1" d="M.5049896 .18203736H.47099305C.46798707 .16001892 .45799256 .100997928 .44499208 .09098816 .43699647 .084991458 .3600006 .084991458 .34599305 .084991458H.1619873C.2669983 .17803955 .3019867 .20603943 .3619995 .25306703 .43598939 .312088 .5049896 .374115 .5049896 .46914674 .5049896 .5900879 .39898683 .6640625 .2709961 .6640625 .14698792 .6640625 .06298828 .57710269 .06298828 .4851532 .06298828 .43414308 .10598755 .42915345 .115997318 .42915345 .13999939 .42915345 .16899109 .44615174 .16899109 .48214723 .16899109 .5001526 .1619873 .53515627 .10998535 .53515627 .14099121 .6060791 .20899964 .62805178 .2559967 .62805178 .35598756 .62805178 .4079895 .5501404 .4079895 .46914674 .4079895 .38212586 .34599305 .3130951 .31399537 .27708436L.07299805 .038986207C.06298828 .02999878 .06298828 .027999878 .06298828 0H.47499085L.5049896 .18203736Z"/>
<path id="font_4_1" d="M.2649994 .37265016H.37799073C.34498597 .22489929 .33599855 .18196106 .33599855 .11508179 .33599855 .100097659 .33599855 .073150638 .34399415 .03919983 .35398866-.0047454836 .36499024-.0107421879 .37998963-.0107421879 .3999939-.0107421879 .42099 .007247925 .42099 .02722168 .42099 .033218385 .42099 .035202028 .4149933 .049179079 .38598634 .12106323 .38598634 .18595886 .38598634 .21391297 .38598634 .26683045 .3929901 .32073976 .4039917 .37265016H.5179901C.5309906 .37265016 .5669861 .37265016 .5669861 .406662 .5669861 .43066407 .54599 .43066407 .5269928 .43066407H.19198609C.16999817 .43066407 .13198853 .43066407 .08799744 .38365174 .052993776 .34469605 .026992798 .29878236 .026992798 .29379273 .026992798 .29278565 .026992798 .28379823 .038986207 .28379823 .04699707 .28379823 .04899597 .28779603 .054992677 .29577638 .10398865 .37265016 .1619873 .37265016 .18199158 .37265016H.23899842C.20698548 .25186158 .15299988 .13105774 .11099243 .04020691 .102996829 .025222779 .102996829 .023223877 .102996829 .016235352 .102996829-.002746582 .11898804-.0107421879 .13198853-.0107421879 .1619873-.0107421879 .16999817 .017242432 .18199158 .05418396 .19599915 .100097659 .19599915 .10209656 .20899964 .15202332L.2649994 .37265016Z"/>
<path id="font_5_2" d="M.2939911 .64004519C.2939911 .66400149 .2939911 .6660156 .2709961 .6660156 .20899964 .60227969 .12098694 .60227969 .08898926 .60227969V.57128909C.10899353 .57128909 .16799927 .57128909 .21998596 .5972748V.07902527C.21998596 .042999269 .21699524 .0309906 .1269989 .0309906H.09498596V0C.12998963 .0029907227 .21699524 .0029907227 .25698854 .0029907227 .29699708 .0029907227 .38398744 .0029907227 .4189911 0V.0309906H.3869934C.29699708 .0309906 .2939911 .041992189 .2939911 .07902527V.64004519Z"/>
<path id="font_5_1" d="M.45999146 .31976319C.45999146 .39982606 .45498658 .47988893 .41999818 .5539398 .37399293 .65000918 .2919922 .6660156 .25 .6660156 .18998719 .6660156 .116989139 .64001467 .07598877 .54693606 .04399109 .47789 .038986207 .39982606 .038986207 .31976319 .038986207 .24472046 .042999269 .15464783 .083999637 .07859802 .1269989-.0024719239 .19999695-.022460938 .24899292-.022460938 .30299378-.022460938 .3789978-.0014648438 .4229889 .09359741 .45498658 .16265869 .45999146 .2407074 .45999146 .31976319M.24899292-.00047302247C.20999146-.00047302247 .15098572 .024551392 .1329956 .12062073 .12199402 .18066406 .12199402 .2727356 .12199402 .3317871 .12199402 .39582826 .12199402 .46188355 .12998963 .5159149 .14898682 .63500979 .22399903 .64401248 .24899292 .64401248 .28199769 .64401248 .34799195 .6259918 .36698915 .52693179 .3769989 .47088624 .3769989 .39482118 .3769989 .3317871 .3769989 .25672914 .3769989 .18867493 .3659973 .12461853 .35099793 .029556275 .2939911-.00047302247 .24899292-.00047302247Z"/>
<path id="font_5_3" d="M.44898988 .20022583C.44898988 .3193512 .36698915 .41944886 .25898744 .41944886 .21099854 .41944886 .16799927 .40345765 .13198853 .36842347V.5637665C.1519928 .5577698 .18499756 .55078127 .21699524 .55078127 .33999635 .55078127 .4099884 .6417694 .4099884 .6547699 .4099884 .6607666 .40699769 .6657715 .3999939 .6657715 .39898683 .6657715 .39698792 .6657715 .3919983 .66278079 .37199403 .6537781 .32299806 .6337738 .2559967 .6337738 .21598816 .6337738 .16999817 .6407776 .12298584 .6617737 .114990238 .66477969 .11299133 .66477969 .11099243 .66477969 .100997928 .66477969 .100997928 .6567688 .100997928 .6407776V.34439088C.100997928 .32637025 .100997928 .31835938 .114990238 .31835938 .12199402 .31835938 .12399292 .32136537 .12799073 .32736207 .13899231 .3433838 .17599488 .39746095 .25698854 .39746095 .30899049 .39746095 .33399964 .35139466 .34199525 .33337403 .35798646 .29632569 .3600006 .25727845 .3600006 .20722962 .3600006 .17222595 .3600006 .11222839 .33599855 .07035828 .31199647 .031463624 .2749939 .0055389406 .22898865 .0055389406 .1559906 .0055389406 .09899902 .058380128 .08198547 .11723328 .084991458 .1162262 .08799744 .115234378 .09899902 .115234378 .13198853 .115234378 .14898682 .14022827 .14898682 .16423035 .14898682 .18823242 .13198853 .21322632 .09899902 .21322632 .084991458 .21322632 .049987794 .20622254 .049987794 .16023255 .049987794 .07434082 .11898804-.022460938 .23098755-.022460938 .34700013-.022460938 .44898988 .073349 .44898988 .20022583Z"/>
<path id="font_4_2" d="M.33399964 .30233766C.33999635 .32835389 .36299134 .42037965 .43299867 .42037965 .43798829 .42037965 .46199037 .42037965 .48298646 .40734864 .45498658 .402359 .43499757 .37734986 .43499757 .35334779 .43499757 .33735658 .44599916 .31835938 .47299195 .31835938 .49499513 .31835938 .5269928 .3363495 .5269928 .37635804 .5269928 .42837525 .46798707 .4423828 .43399049 .4423828 .37599183 .4423828 .34098817 .38935853 .32899476 .36634828 .3039856 .43237306 .25 .4423828 .22099304 .4423828 .116989139 .4423828 .05999756 .3133545 .05999756 .28834535 .05999756 .27833558 .069992069 .27833558 .07199097 .27833558 .07998657 .27833558 .08299255 .28033448 .084991458 .28933717 .11898804 .39535523 .18499756 .42037965 .21899414 .42037965 .23799134 .42037965 .272995 .4113617 .272995 .35334779 .272995 .32235719 .2559967 .25532533 .21899414 .11528015 .20298767 .053268434 .16799927 .011245728 .12399292 .011245728 .117996219 .011245728 .09498596 .011245728 .07398987 .024276734 .09899902 .029266358 .12098694 .05027771 .12098694 .07827759 .12098694 .105270389 .09899902 .11328125 .083999637 .11328125 .053985597 .11328125 .0289917 .08728027 .0289917 .055267335 .0289917 .009246826 .07899475-.0107421879 .12298584-.0107421879 .18899536-.0107421879 .22499085 .059280397 .22799683 .0652771 .23999024 .028274537 .27598573-.0107421879 .33599855-.0107421879 .43899537-.0107421879 .49598695 .118270877 .49598695 .14328003 .49598695 .1532898 .4869995 .1532898 .48399354 .1532898 .47499085 .1532898 .47299195 .14929199 .47099305 .14228821 .43798829 .03527832 .36999513 .011245728 .33799745 .011245728 .29899598 .011245728 .2829895 .043273927 .2829895 .07727051 .2829895 .09927368 .2889862 .121276859 .2999878 .16529846L.33399964 .30233766Z"/>
<path id="font_4_3" d="M.48599244 .38136292C.48999024 .39537049 .48999024 .39736939 .48999024 .40437318 .48999024 .42237855 .47599793 .43138124 .46099855 .43138124 .45098878 .43138124 .43499757 .42536927 .42599488 .41036988 .42399598 .405365 .41600038 .37435914 .4119873 .35635377 .40499879 .33035279 .397995 .30334474 .3919983 .27633668L.34700013 .09628296C.34298707 .08126831 .2999878 .011245728 .23399353 .011245728 .18299866 .011245728 .17199707 .055267335 .17199707 .0922699 .17199707 .1382904 .18899536 .20030213 .22299195 .28833009 .23899842 .3293457 .24299622 .3403473 .24299622 .36035157 .24299622 .405365 .21099854 .4423828 .16099549 .4423828 .06599426 .4423828 .0289917 .29733277 .0289917 .28833009 .0289917 .27833558 .038986207 .27833558 .040985109 .27833558 .050994874 .27833558 .051986696 .28033448 .056991579 .29634095 .083999637 .3903656 .12399292 .42037965 .1579895 .42037965 .1659851 .42037965 .18299866 .42037965 .18299866 .3883667 .18299866 .36335755 .17298889 .3373413 .1659851 .31834413 .12599182 .21231079 .10798645 .1552887 .10798645 .10827637 .10798645 .019256592 .17098999-.0107421879 .22999573-.0107421879 .2689972-.0107421879 .30299378 .0062561037 .33099366 .03425598 .31799317-.017745972 .30599977-.06674194 .2659912-.11973572 .23999024-.15385437 .20199585-.18309021 .1559906-.18309021 .14199829-.18309021 .09700012-.18005371 .07998657-.14074707 .09599304-.14074707 .10899353-.14074707 .12298584-.1287384 .1329956-.11973572 .14299011-.10673523 .14299011-.08773804 .14299011-.056747438 .115997318-.052734376 .10598755-.052734376 .08299255-.052734376 .049987794-.068740848 .049987794-.11773682 .049987794-.16796875 .09399414-.20507813 .1559906-.20507813 .25898744-.20507813 .3619995-.11373901 .3899994-.00074768069L.48599244 .38136292Z"/>
</defs>
<path transform="matrix(1.00006,0,0,-1.00006,1.4091797,166.5352)" stroke-width=".19925" stroke-linecap="butt" stroke-miterlimit="10" stroke-linejoin="miter" fill="none" stroke="#7f807f" d="M9.31804 79.28084V82.1155M23.9548 79.28084V82.1155M38.59157 79.28084V82.1155M53.22832 79.28084V82.1155M67.8651 79.28084V82.1155M82.50185 79.28084V82.1155M97.13861 79.28084V82.1155M111.77536 79.28084V82.1155M126.41214 79.28084V82.1155M141.04889 79.28084V82.1155M155.68566 79.28084V82.1155M170.32242 79.28084V82.1155M184.95919 79.28084V82.1155"/>
<path transform="matrix(1.00006,0,0,-1.00006,1.4091797,166.5352)" stroke-width=".19925" stroke-linecap="butt" stroke-miterlimit="10" stroke-linejoin="miter" fill="none" stroke="#7f807f" d="M9.31804 78.57237V82.82396M38.59157 78.57237V82.82396M67.8651 78.57237V82.82396M126.41214 78.57237V82.82396M155.68566 78.57237V82.82396M184.95919 78.57237V82.82396"/>
<path transform="matrix(1.00006,0,0,-1.00006,1.4091797,166.5352)" stroke-width=".19925" stroke-linecap="butt" stroke-miterlimit="10" stroke-linejoin="miter" fill="none" stroke="#7f807f" d="M95.01276 0H99.26447M95.01276 40.34909H99.26447M95.01276 121.04727H99.26447M95.01276 161.39636H99.26447"/>
<path transform="matrix(1.00006,0,0,-1.00006,1.4091797,166.5352)" stroke-width=".3985" stroke-linecap="butt" stroke-miterlimit="10" stroke-linejoin="miter" fill="none" stroke="#000000" d="M0 80.69818H192.28472"/>
<path transform="matrix(1.00006,0,0,-1.00006,193.70543,85.832187)" d="M1.99252 0-1.19551 1.59401 0 0-1.19551-1.59401"/>
<path transform="matrix(1.00006,0,0,-1.00006,1.4091797,166.5352)" stroke-width=".3985" stroke-linecap="butt" stroke-miterlimit="10" stroke-linejoin="miter" fill="none" stroke="#000000" d="M97.13861 0V159.40384"/>
<path transform="matrix(0,-1.00006,-1.00006,-0,98.55361,7.121811)" d="M1.99252 0-1.19551 1.59401 0 0-1.19551-1.59401"/>
<use data-text="&#x2212;" xlink:href="#font_1_1" transform="matrix(9.963197,0,0,-9.963197,1.2171707,99.8952)"/>
<use data-text="3" xlink:href="#font_2_2" transform="matrix(6.9742186,0,0,-6.9742186,10.161705,95.97197)"/>
<use data-text="&#x03c0;" xlink:href="#font_3_1" transform="matrix(6.9742186,0,0,-6.9742186,14.132942,95.97197)"/>
<path transform="matrix(1.00006,0,0,-1.00006,-88.71022,-46.703584)" stroke-width=".3985" stroke-linecap="butt" stroke-miterlimit="10" stroke-linejoin="miter" fill="none" stroke="#000000" d="M98.866-144.099H107.746"/>
<use data-text="2" xlink:href="#font_2_1" transform="matrix(6.9742186,0,0,-6.9742186,12.616852,103.330417)"/>
<use data-text="&#x2212;" xlink:href="#font_1_1" transform="matrix(9.963197,0,0,-9.963197,33.11008,97.290058)"/>
<use data-text="&#x03c0;" xlink:href="#font_4_1" transform="matrix(9.963197,0,0,-9.963197,40.859548,97.290058)"/>
<use data-text="&#x2212;" xlink:href="#font_1_1" transform="matrix(9.963197,0,0,-9.963197,61.753797,98.40412)"/>
<use data-text="&#x03c0;" xlink:href="#font_3_1" transform="matrix(6.9742186,0,0,-6.9742186,70.69833,94.48089)"/>
<path transform="matrix(1.00006,0,0,-1.00006,-28.173596,-48.194665)" stroke-width=".3985" stroke-linecap="butt" stroke-miterlimit="10" stroke-linejoin="miter" fill="none" stroke="#000000" d="M98.866-144.099H103.775"/>
<use data-text="2" xlink:href="#font_2_1" transform="matrix(6.9742186,0,0,-6.9742186,71.16736,101.83933)"/>
<use data-text="&#x03c0;" xlink:href="#font_3_1" transform="matrix(6.9742186,0,0,-6.9742186,125.37361,94.4809)"/>
<path transform="matrix(1.00006,0,0,-1.00006,34.251153,-48.194665)" stroke-width=".3985" stroke-linecap="butt" stroke-miterlimit="10" stroke-linejoin="miter" fill="none" stroke="#000000" d="M91.117-144.099H96.026"/>
<use data-text="2" xlink:href="#font_2_1" transform="matrix(6.9742186,0,0,-6.9742186,125.84264,101.83933)"/>
<use data-text="&#x03c0;" xlink:href="#font_4_1" transform="matrix(9.963197,0,0,-9.963197,154.08535,95.76796)"/>
<use data-text="3" xlink:href="#font_2_2" transform="matrix(6.9742186,0,0,-6.9742186,181.938,95.971988)"/>
<use data-text="&#x03c0;" xlink:href="#font_3_1" transform="matrix(6.9742186,0,0,-6.9742186,185.91025,95.971988)"/>
<path transform="matrix(1.00006,0,0,-1.00006,90.815547,-46.703584)" stroke-width=".3985" stroke-linecap="butt" stroke-miterlimit="10" stroke-linejoin="miter" fill="none" stroke="#000000" d="M91.117-144.099H99.998"/>
<use data-text="2" xlink:href="#font_2_1" transform="matrix(6.9742186,0,0,-6.9742186,184.39316,103.330417)"/>
<use data-text="&#x2212;" xlink:href="#font_1_1" transform="matrix(9.963197,0,0,-9.963197,75.1946,169.33037)"/>
<use data-text="1" xlink:href="#font_5_2" transform="matrix(9.963197,0,0,-9.963197,82.94407,169.33037)"/>
<use data-text="0" xlink:href="#font_5_1" transform="matrix(9.963197,0,0,-9.963197,87.92567,169.33037)"/>
<use data-text="&#x2212;" xlink:href="#font_1_1" transform="matrix(9.963197,0,0,-9.963197,80.1769,128.97895)"/>
<use data-text="5" xlink:href="#font_5_3" transform="matrix(9.963197,0,0,-9.963197,87.92637,128.97895)"/>
<use data-text="5" xlink:href="#font_5_3" transform="matrix(9.963197,0,0,-9.963197,87.92637,48.69114)"/>
<use data-text="1" xlink:href="#font_5_2" transform="matrix(9.963197,0,0,-9.963197,82.94407,8.339706)"/>
<use data-text="0" xlink:href="#font_5_1" transform="matrix(9.963197,0,0,-9.963197,87.92567,8.339706)"/>
<path transform="matrix(1.00006,0,0,-1.00006,1.4091797,166.5352)" stroke-width=".99628" stroke-linecap="butt" stroke-miterlimit="10" stroke-linejoin="miter" fill="none" stroke="#0000ff" d="M10.29337 2.94365 10.53467 18.9673 10.81952 30.71611 11.10435 38.72787 11.38919 44.54079 11.67404 48.94986 11.9589 52.41377 12.24373 55.20569 12.52856 57.50906 12.8134 59.43564 13.09825 61.08044 13.38309 62.49306 13.66792 63.7246 13.95276 64.80824 14.23761 65.76958 14.52245 66.62683 14.80728 67.3981 15.09212 68.0948 15.37695 68.72772 15.6618 69.30618 15.94664 69.83612 16.23148 70.32483 16.51631 70.77641 16.80116 71.19536 17.086 71.58531 17.37083 71.94875 17.65567 72.28922 17.94052 72.60846 18.22536 72.90923 18.5102 73.19206 18.79503 73.45982 19.07988 73.71309 19.36472 73.9532 19.64955 74.1814 19.93439 74.39877 20.21924 74.60545 20.50407 74.80324 20.78891 74.99237 21.07375 75.17337 21.3586 75.3472 21.64345 75.51395 21.92828 75.6743 22.2131 75.82872 22.49794 75.9774 22.78279 76.12105 23.06764 76.25961 23.35248 76.39378 23.63731 76.52336 23.92216 76.64906 24.207 76.7711 24.49184 76.88945 24.77667 77.00433 25.06152 77.11621 25.34636 77.22487 25.6312 77.3309 25.91603 77.43434 26.20088 77.53505 26.48572 77.63348 26.77055 77.7296 27.05539 77.82358 27.34024 77.91553 27.62508 78.00568 27.90991 78.09392 28.19475 78.18033 28.4796 78.26523 28.76443 78.34856 29.04927 78.43039 29.3341 78.51085 29.61894 78.59013 29.9038 78.66797 30.18863 78.74461 30.47346 78.82024 30.7583 78.89471 31.04315 78.96823 31.32799 79.04074 31.61282 79.11246 31.89766 79.18318 32.18251 79.2531 32.46736 79.32239 32.7522 79.39078 33.03703 79.45868 33.32188 79.52586 33.60672 79.59248 33.89156 79.65845 34.17639 79.7241 34.46124 79.78899 34.74608 79.85365 35.03091 79.91774 35.31575 79.98157 35.60059 80.04512 35.88544 80.10823 36.17027 80.17096 36.45511 80.23363 36.73994 80.29602 37.0248 80.35812 37.30963 80.42018 37.59447 80.48209 37.8793 80.54391 38.16415 80.60567 38.44899 80.66733 38.73383 80.72894 39.01868 80.79059 39.3035 80.85234 39.58836 80.91415 39.87317 80.97603 40.15802 81.03807 40.44289 81.10031 40.7277 81.16263 41.01256 81.22523 41.29736 81.2881 41.58223 81.35123 41.86708 81.41467 42.1519 81.47847 42.43675 81.54263 42.72156 81.60722 43.00642 81.67223 43.29129 81.73781 43.5761 81.80385 43.86095 81.87042 44.14577 81.93756 44.43063 82.00536 44.71548 82.07396 45.00029 82.14311 45.28516 82.21312 45.56996 82.28384 45.85483 82.35547 46.13968 82.42798 46.4245 82.5015 46.70935 82.57607 46.99417 82.65154 47.27902 82.72829 47.56389 82.8062 47.8487 82.88538 48.13354 82.96577 48.41837 83.04765 48.70323 83.13098 48.98808 83.21587 49.27289 83.3025 49.55774 83.39053 49.84256 83.48064 50.12743 83.57277 50.41228 83.66661 50.69708 83.76277 50.98195 83.86128 51.26677 83.96193 51.55162 84.06538 51.83647 84.17126 52.12129 84.28012 52.40616 84.392 52.69096 84.5068 52.97581 84.62523 53.26067 84.74704 53.5455 84.87285 53.83035 85.00255 54.11516 85.13654 54.40001 85.27518 54.68489 85.4188 54.9697 85.56737 55.25455 85.72191 55.53935 85.8821 55.82422 86.04903 56.10909 86.22278 56.39389 86.40353 56.67874 86.59277 56.96355 86.79047 57.24843 86.99756 57.53328 87.21483 57.81808 87.44287 58.10294 87.68304 58.38777 87.93619 58.67262 88.20377 58.95747 88.4871 59.24228 88.78743 59.52715 89.10692 59.81197 89.44704 60.09682 89.81102 60.38167 90.20097 60.66649 90.6192 60.95134 91.0713 61.23616 91.55946 61.52101 92.08977 61.80588 92.66751 62.0907 93.30128 62.37555 93.99774 62.66035 94.76863 62.9452 95.6256 63.23007 96.58727 63.5149 97.66882 63.79974 98.90279 64.08455 100.31589 64.36942 101.9573 64.65427 103.88727 64.93909 106.18575 65.22394 108.98256 65.50876 112.44458 65.79361 116.85555 66.07848 122.66447 66.36328 130.66164 66.64815 142.40084 66.88943 158.42079"/>
<path transform="matrix(-.0150609039,.99991998,.99991998,.0150609039,11.703167,163.59137)" d="M2.8892 0-1.73352 2.31136 0 0-1.73352-2.31136" fill="#0000ff"/>
<path transform="matrix(.0150609039,-.99991998,-.99991998,-.0150609039,68.30262,8.104919)" d="M2.8892 0-1.73352 2.31136 0 0-1.73352-2.31136" fill="#0000ff"/>
<path transform="matrix(1.00006,0,0,-1.00006,1.4091797,166.5352)" stroke-width=".99628" stroke-linecap="butt" stroke-miterlimit="10" stroke-linejoin="miter" fill="none" stroke="#0000ff" d="M68.84041 2.94365 69.08174 18.9673 69.36658 30.71611 69.65141 38.71895 69.93625 44.5376 70.2211 48.94986 70.50594 52.41377 70.79077 55.20569 71.0756 57.50636 71.36044 59.43794 71.6453 61.07855 71.93013 62.4939 72.21497 63.72601 72.4998 64.80907 72.78465 65.76958 73.06949 66.62683 73.35432 67.39716 73.63916 68.0939 73.92401 68.72772 74.20885 69.30629 74.49368 69.83624 74.77852 70.32503 75.06337 70.77641 75.3482 71.19536 75.63304 71.58493 75.91788 71.94875 76.20273 72.28941 76.48756 72.60883 76.7724 72.90889 77.05724 73.19194 77.34209 73.45982 77.62692 73.71284 77.91176 73.9532 78.1966 74.1814 78.48143 74.39842 78.7663 74.60545 79.05113 74.80336 79.33597 74.9924 79.62079 75.17337 79.90564 75.34698 80.19049 75.51392 80.47533 75.6743 80.76016 75.82872 81.04501 75.97745 81.32985 76.12105 81.61469 76.25961 81.89952 76.39366 82.18437 76.52336 82.46921 76.64906 82.75404 76.77098 83.03888 76.8892 83.32373 77.00421 83.60857 77.11621 83.8934 77.22491 84.17824 77.3309 84.46307 77.43434 84.74792 77.53505 85.03276 77.63336 85.3176 77.7296 85.60243 77.82358 85.88728 77.91553 86.17212 78.00563 86.45695 78.09383 86.74179 78.18033 87.02664 78.2652 87.31148 78.34856 87.59631 78.43039 87.88115 78.51085 88.166 78.59013 88.45084 78.66792 88.73567 78.74461 89.02051 78.82024 89.30536 78.89471 89.59021 78.96823 89.87505 79.04074 90.15988 79.11246 90.44473 79.18318 90.72957 79.25317 91.0144 79.32239 91.29924 79.39078 91.58408 79.45868 91.86893 79.52586 92.15376 79.59248 92.4386 79.65852 92.72343 79.7241 93.00829 79.78899 93.29312 79.85349 93.57796 79.91783 93.8628 79.98157 94.14764 80.04512 94.43248 80.10818 94.71732 80.1711 95.00215 80.23363 95.287 80.29602 95.57184 80.35822 95.85667 80.42018 96.14151 80.48209 96.42636 80.54399 96.7112 80.60567 96.99603 80.66733 97.28087 80.72894 97.56572 80.79059 97.85056 80.85234 98.1354 80.91415 98.42021 80.97607 98.70506 81.03812 98.98993 81.10023 99.27475 81.1627 99.5596 81.22523 99.8444 81.28807 100.12927 81.35123 100.41414 81.41467 100.69894 81.47847 100.9838 81.54263 101.26862 81.60722 101.55348 81.67223 101.83833 81.73781 102.12314 81.80385 102.408 81.87042 102.69281 81.93756 102.97768 82.00543 103.26253 82.07391 103.54735 82.14311 103.8322 82.21317 104.11702 82.28384 104.40187 82.35551 104.68672 82.42798 104.97154 82.50162 105.2564 82.57607 105.54121 82.65154 105.82607 82.72829 106.11093 82.8062 106.39574 82.88528 106.68059 82.96582 106.96541 83.0476 107.25027 83.1311 107.53513 83.21587 107.81993 83.3025 108.1048 83.39053 108.38962 83.48064 108.67447 83.5726 108.95932 83.66661 109.24414 83.76277 109.529 83.86128 109.81381 83.96193 110.09866 84.06538 110.38351 84.17126 110.66835 84.28006 110.9532 84.39194 111.238 84.50688 111.52286 84.62515 111.80772 84.74704 112.09254 84.87276 112.3774 85.00247 112.6622 85.13666 112.94707 85.27525 113.23193 85.4188 113.51674 85.56737 113.80159 85.72203 114.0864 85.88239 114.37128 86.04903 114.65613 86.22278 114.94093 86.40353 115.22578 86.59277 115.51062 86.79047 115.79547 86.99756 116.08032 87.21472 116.36513 87.44287 116.65 87.68304 116.93481 87.93619 117.21967 88.20407 117.50452 88.48724 117.78932 88.7875 118.07419 89.10692 118.35901 89.44704 118.64386 89.8109 118.92871 90.20041 119.21355 90.61945 119.4984 91.0713 119.7832 91.55957 120.06805 92.08981 120.35292 92.66826 120.63774 93.30084 120.92259 93.99823 121.2074 94.76962 121.49226 95.6256 121.77711 96.58727 122.06194 97.67032 122.34679 98.90105 122.6316 100.31491 122.91646 101.9573 123.20132 103.88727 123.48613 106.189 123.771 108.97847 124.0558 112.44458 124.34067 116.85555 124.62552 122.66888 124.91032 130.67414 125.19519 142.42015 125.43654 158.4527"/>
<path transform="matrix(-.0150609039,.99991998,.99991998,.0150609039,70.253719,163.59137)" d="M2.8892 0-1.73352 2.31136 0 0-1.73352-2.31136" fill="#0000ff"/>
<path transform="matrix(.015050902,-.99991998,-.99991998,-.015050902,126.853229,8.073013)" d="M2.8892 0-1.73352 2.31136 0 0-1.73352-2.31136" fill="#0000ff"/>
<path transform="matrix(1.00006,0,0,-1.00006,1.4091797,166.5352)" stroke-width=".99628" stroke-linecap="butt" stroke-miterlimit="10" stroke-linejoin="miter" fill="none" stroke="#0000ff" d="M127.3874 2.94365 127.62878 18.97618 127.91362 30.71611 128.19846 38.72787 128.48329 44.5376 128.76815 48.94986 129.05298 52.41402 129.33782 55.20569 129.62265 57.50636 129.9075 59.43794 130.19234 61.07855 130.47718 62.4939 130.76201 63.7246 131.04686 64.80836 131.3317 65.76913 131.61653 66.62671 131.90137 67.39703 132.18622 68.0948 132.47106 68.72772 132.75589 69.30629 133.04073 69.83612 133.32556 70.32452 133.61042 70.77689 133.89525 71.19536 134.18009 71.58531 134.46492 71.94875 134.74977 72.28941 135.0346 72.60883 135.31945 72.90874 135.60428 73.19211 135.88915 73.45982 136.17398 73.71284 136.45882 73.9532 136.74364 74.1814 137.02849 74.39842 137.31334 74.60545 137.59818 74.80336 137.88301 74.9924 138.16786 75.17345 138.4527 75.3471 138.73754 75.51395 139.02237 75.6743 139.30722 75.82872 139.59206 75.97745 139.87689 76.12105 140.16173 76.25969 140.44657 76.39378 140.73142 76.52336 141.01625 76.64912 141.30109 76.7711 141.58592 76.88945 141.87078 77.00421 142.15561 77.11613 142.44045 77.22487 142.72528 77.3309 143.01013 77.43428 143.29497 77.53505 143.5798 77.63345 143.86464 77.7296 144.14949 77.8235 144.43433 77.91553 144.71916 78.00563 145.004 78.0938 145.28885 78.18039 145.57369 78.2652 145.85852 78.34856 146.14336 78.43039 146.42819 78.51096 146.71306 78.59009 146.9979 78.66792 147.28273 78.74461 147.56757 78.82024 147.85242 78.89471 148.13726 78.96823 148.42209 79.04082 148.70693 79.11246 148.99178 79.18318 149.27661 79.2531 149.56145 79.32239 149.84629 79.39087 150.13114 79.45868 150.41597 79.52586 150.7008 79.59248 150.98564 79.65845 151.2705 79.72398 151.55533 79.78905 151.84017 79.85349 152.125 79.91783 152.40985 79.98166 152.69469 80.045 152.97953 80.10818 153.26436 80.17096 153.5492 80.23358 153.83405 80.29597 154.11888 80.35822 154.40372 80.42018 154.68856 80.48209 154.9734 80.54399 155.25824 80.60567 155.54308 80.66733 155.82791 80.72894 156.11278 80.79059 156.3976 80.85234 156.68245 80.91415 156.96726 80.97607 157.25212 81.03812 157.53699 81.10023 157.8218 81.1627 158.10665 81.22523 158.39147 81.28807 158.67633 81.35123 158.96118 81.41467 159.24599 81.4785 159.53086 81.54263 159.81566 81.60722 160.10053 81.67223 160.38538 81.73781 160.67018 81.80385 160.95505 81.87042 161.23987 81.93756 161.52472 82.00543 161.80957 82.07391 162.09439 82.14311 162.37924 82.21304 162.66407 82.28384 162.94892 82.35547 163.23378 82.4281 163.51859 82.50162 163.80344 82.57607 164.08826 82.6516 164.37313 82.72826 164.65798 82.8062 164.94278 82.88528 165.22765 82.96582 165.51247 83.0477 165.79732 83.13098 166.08217 83.21587 166.36699 83.30241 166.65184 83.39066 166.93666 83.48064 167.22151 83.5726 167.50637 83.66661 167.79119 83.76285 168.07605 83.86113 168.36086 83.96193 168.6457 84.0653 168.93058 84.17126 169.2154 84.28012 169.50025 84.39194 169.78505 84.5068 170.06992 84.62523 170.35478 84.74704 170.63959 84.87285 170.92444 85.00255 171.20925 85.13654 171.49413 85.27525 171.77898 85.4188 172.06378 85.56737 172.34864 85.72186 172.63347 85.88239 172.91832 86.04886 173.20317 86.22273 173.48798 86.40376 173.77283 86.59277 174.05767 86.79047 174.34252 86.99756 174.62737 87.21483 174.91217 87.44287 175.19705 87.68324 175.48186 87.93607 175.76671 88.20407 176.05156 88.4871 176.3364 88.78731 176.62125 89.10672 176.90605 89.44714 177.1909 89.81061 177.47577 90.20041 177.76059 90.61945 178.04544 91.0713 178.33025 91.55899 178.61511 92.08981 178.89997 92.66751 179.18479 93.30084 179.46964 93.99823 179.75446 94.76863 180.0393 95.6256 180.32418 96.58727 180.60898 97.67032 180.89383 98.90279 181.17865 100.31589 181.46352 101.95839 181.74837 103.88591 182.03318 106.189 182.31804 108.97847 182.60285 112.44458 182.88771 116.85555 183.17256 122.66447 183.45738 130.67414 183.74224 142.42015 183.9836 158.4527"/>
<path transform="matrix(-.015050902,.99991998,.99991998,.015050902,128.80423,163.59137)" d="M2.8892 0-1.73352 2.31136 0 0-1.73352-2.31136" fill="#0000ff"/>
<path transform="matrix(.015050902,-.99991998,-.99991998,-.015050902,185.4038,8.073013)" d="M2.8892 0-1.73352 2.31136 0 0-1.73352-2.31136" fill="#0000ff"/>
<path transform="matrix(1.00006,0,0,-1.00006,1.4091797,166.5352)" stroke-width=".3985" stroke-linecap="butt" stroke-dasharray="2.98883,2.98883" stroke-miterlimit="10" stroke-linejoin="miter" fill="none" stroke="#ff0000" d="M9.31804 0V161.39636"/>
<path transform="matrix(1.00006,0,0,-1.00006,1.4091797,166.5352)" stroke-width=".3985" stroke-linecap="butt" stroke-dasharray="2.98883,2.98883" stroke-miterlimit="10" stroke-linejoin="miter" fill="none" stroke="#ff0000" d="M67.8651 0V161.39636"/>
<path transform="matrix(1.00006,0,0,-1.00006,1.4091797,166.5352)" stroke-width=".3985" stroke-linecap="butt" stroke-dasharray="2.98883,2.98883" stroke-miterlimit="10" stroke-linejoin="miter" fill="none" stroke="#ff0000" d="M126.41214 0V161.39636"/>
<path transform="matrix(1.00006,0,0,-1.00006,1.4091797,166.5352)" stroke-width=".3985" stroke-linecap="butt" stroke-dasharray="2.98883,2.98883" stroke-miterlimit="10" stroke-linejoin="miter" fill="none" stroke="#ff0000" d="M184.95919 0V161.39636"/>
<use data-text="x" xlink:href="#font_4_2" transform="matrix(9.963197,0,0,-9.963197,186.48328,82.31215)"/>
<use data-text="y" xlink:href="#font_4_3" transform="matrix(9.963197,0,0,-9.963197,102.07321,12.93898)"/>
</svg>
