<svg xmlns="http://www.w3.org/2000/svg" xmlns:xlink="http://www.w3.org/1999/xlink" xmlns:inkscape="http://www.inkscape.org/namespaces/inkscape" version="1.1" width="221" height="181" viewBox="0 0 221 181">
<defs>
<path id="font_1_1" d="M.6589966 .23046875C.6759949 .23046875 .69400027 .23046875 .69400027 .25045777 .69400027 .27046205 .6759949 .27046205 .6589966 .27046205H.117996219C.100997928 .27046205 .08299255 .27046205 .08299255 .25045777 .08299255 .23046875 .100997928 .23046875 .117996219 .23046875H.6589966Z"/>
<path id="font_2_2" d="M.272995 .33428956C.35099793 .33428956 .40699769 .2803192 .40699769 .1733551 .40699769 .04940796 .33499146 .012466431 .2769928 .012466431 .23699951 .012466431 .14898682 .0234375 .10699463 .082351688 .1539917 .084350589 .16499329 .11735535 .16499329 .13835144 .16499329 .17034912 .14099121 .19335938 .10998535 .19335938 .08198547 .19335938 .053985597 .17634583 .053985597 .13534546 .053985597 .041412355 .1579895-.01953125 .2789917-.01953125 .41799928-.01953125 .5139923 .07336426 .5139923 .1733551 .5139923 .2513275 .44999696 .32929994 .33999635 .35229493 .44499208 .39024354 .48298646 .4650879 .48298646 .5260773 .48298646 .60505679 .3919983 .6640625 .2809906 .6640625 .16999817 .6640625 .084991458 .61006167 .084991458 .5300751 .084991458 .49606324 .10699463 .47706605 .13699341 .47706605 .16799927 .47706605 .18798828 .5000763 .18798828 .5280762 .18798828 .5570679 .16799927 .57806399 .13699341 .5800781 .17199707 .62405398 .24099732 .63505557 .27799989 .63505557 .32299806 .63505557 .38598634 .6130676 .38598634 .5260773 .38598634 .48406983 .37199403 .43814088 .34599305 .4072113 .31298829 .36927796 .2849884 .3672943 .23498535 .36428834 .20999146 .3623047 .20799256 .3623047 .20298767 .3612976 .20098877 .3612976 .19299317 .3592987 .19299317 .34829713 .19299317 .33428956 .20199585 .33428956 .21899414 .33428956H.272995Z"/>
<path id="font_3_1" d="M.31098939 .36265565H.42999269C.4149933 .30274964 .3929901 .2118988 .3929901 .13302613 .3929901 .09309387 .397995 .06613159 .4039917 .044174196 .41999818-.0057678224 .43299867-.009765625 .44898988-.009765625 .47200013-.009765625 .49598695 .011230469 .49598695 .035186769 .49598695 .043182374 .49398805 .047164918 .48799134 .057159425 .46899415 .09408569 .45098878 .15100098 .45098878 .23286438 .45098878 .25183106 .45098878 .29177857 .46499635 .36265565H.58999636C.60798647 .36265565 .6159973 .36265565 .6269989 .37065126 .6409912 .380661 .6439972 .39665223 .6439972 .4016571 .6439972 .43066407 .6179962 .43066407 .6009979 .43066407H.22399903C.18299866 .43066407 .15499878 .42166139 .10998535 .37965394 .083999637 .35665895 .04499817 .30274964 .04499817 .2937622 .04499817 .28178407 .057998659 .28178407 .06199646 .28178407 .07299805 .28178407 .07398987 .28378297 .07998657 .2927704 .1309967 .36265565 .19299317 .36265565 .21499634 .36265565H.27598573C.24499512 .25283814 .19099427 .13502503 .16099549 .07511902 .15499878 .062149049 .14498902 .04118347 .14199829 .03718567 .14099121 .033187868 .13899231 .029190064 .13899231 .022201539 .13899231 .006225586 .15098572-.009765625 .17399597-.009765625 .21398926-.009765625 .22499085 .035186769 .24899292 .12504578L.31098939 .36265565Z"/>
<path id="font_2_1" d="M.5049896 .18203736H.47099305C.46798707 .16001892 .45799256 .100997928 .44499208 .09098816 .43699647 .084991458 .3600006 .084991458 .34599305 .084991458H.1619873C.2669983 .17803955 .3019867 .20603943 .3619995 .25306703 .43598939 .312088 .5049896 .374115 .5049896 .46914674 .5049896 .5900879 .39898683 .6640625 .2709961 .6640625 .14698792 .6640625 .06298828 .57710269 .06298828 .4851532 .06298828 .43414308 .10598755 .42915345 .115997318 .42915345 .13999939 .42915345 .16899109 .44615174 .16899109 .48214723 .16899109 .5001526 .1619873 .53515627 .10998535 .53515627 .14099121 .6060791 .20899964 .62805178 .2559967 .62805178 .35598756 .62805178 .4079895 .5501404 .4079895 .46914674 .4079895 .38212586 .34599305 .3130951 .31399537 .27708436L.07299805 .038986207C.06298828 .02999878 .06298828 .027999878 .06298828 0H.47499085L.5049896 .18203736Z"/>
<path id="font_2_3" d="M.15499878 .5588074C.20599365 .5458069 .23599243 .5458069 .2519989 .5458069 .38398744 .5458069 .46199037 .6358032 .46199037 .6508026 .46199037 .6618042 .45498658 .6648102 .44999696 .6648102 .44799806 .6648102 .44599916 .6648102 .44198609 .6618042 .41799928 .6528015 .36499024 .6328125 .29100038 .6328125 .2630005 .6328125 .20999146 .6348114 .14498902 .6598053 .1349945 .6648102 .1329956 .6648102 .13198853 .6648102 .11898804 .6648102 .11898804 .6538086 .11898804 .6378021V.34251405C.11898804 .32548524 .11898804 .3134613 .1349945 .3134613 .14399719 .3134613 .14498902 .3154602 .15499878 .32748414 .19799805 .38259889 .25898744 .390625 .2939911 .390625 .35398866 .390625 .3809967 .34251405 .38598634 .33450318 .4039917 .30143739 .4099884 .26335145 .4099884 .20524597 .4099884 .17524719 .4099884 .116256717 .37998963 .07234192 .35499574 .03640747 .31199647 .012466431 .2630005 .012466431 .19799805 .012466431 .1309967 .04838562 .10598755 .11425781 .14399719 .11125183 .16299439 .13624573 .16299439 .16325379 .16299439 .20625305 .12599182 .21424866 .11299133 .21424866 .11099243 .21424866 .06298828 .21424866 .06298828 .1602478 .06298828 .07034302 .14498902-.01953125 .2649994-.01953125 .3929901-.01953125 .5049896 .07533264 .5049896 .20124817 .5049896 .31445313 .4189911 .41862489 .29499818 .41862489 .25099183 .41862489 .19898987 .4076233 .15499878 .36956788V.5588074Z"/>
<path id="font_2_4" d="M.5349884 .6045227C.54499819 .6165161 .54499819 .6185303 .54499819 .64453127H.2829895C.24299622 .64453127 .23199463 .6455078 .19599915 .6484375 .14399719 .65234377 .14199829 .6592407 .13899231 .676239H.10499573L.069992069 .46250917H.10398865C.10598755 .47750855 .115997318 .54351809 .13198853 .5535126 .13999939 .55952456 .22099304 .55952456 .23599243 .55952456H.45399476C.42199708 .5175171 .37098695 .45550538 .34999085 .4275055 .21899414 .25549317 .20698548 .096466068 .20698548 .037460329 .20698548 .02645874 .20698548-.01953125 .2539978-.01953125 .3019867-.01953125 .3019867 .025466919 .3019867 .038467409V.07847595C.3019867 .27249146 .34199525 .36149598 .3849945 .41551209L.5349884 .6045227Z"/>
<path id="font_4_6" d="M.2939911 .16503906V.07800293C.2939911 .041992189 .2919922 .0309906 .21798706 .0309906H.19699097V0C.23799134 .0029907227 .2899933 .0029907227 .33198548 .0029907227 .37399293 .0029907227 .4269867 .0029907227 .46798707 0V.0309906H.44699098C.37298585 .0309906 .37098695 .041992189 .37098695 .07800293V.16503906H.47099305V.19602967H.37098695V.65075686C.37098695 .67074587 .37098695 .6767578 .35499574 .6767578 .34599305 .6767578 .34298707 .6767578 .33499146 .66474917L.027999878 .19602967V.16503906H.2939911M.2999878 .19602967H.055999757L.2999878 .5688019V.19602967Z"/>
<path id="font_4_4" d="M.1269989 .07699585 .23298645 .18003845C.3889923 .31811524 .44898988 .3721466 .44898988 .47216798 .44898988 .5860901 .35899354 .6660156 .23699951 .6660156 .12399292 .6660156 .049987794 .57411196 .049987794 .48516847 .049987794 .4291687 .099990848 .4291687 .102996829 .4291687 .11999512 .4291687 .15499878 .44117738 .15499878 .48217774 .15499878 .5081787 .13699341 .5341797 .101989749 .5341797 .09399414 .5341797 .09199524 .5341797 .08898926 .5331726 .11199951 .59806826 .1659851 .63500979 .22399903 .63500979 .31498719 .63500979 .35798646 .5541382 .35798646 .47216798 .35798646 .39215089 .30799867 .31311036 .25299073 .25108338L.06098938 .036987306C.049987794 .025985718 .049987794 .023986817 .049987794 0H.42099L.44898988 .17404175H.42399598C.4189911 .14402771 .4119873 .1000061 .4019928 .084991458 .394989 .07699585 .32899476 .07699585 .30699159 .07699585H.1269989Z"/>
<path id="font_5_3" d="M.48599244 .38136292C.48999024 .39537049 .48999024 .39736939 .48999024 .40437318 .48999024 .42237855 .47599793 .43138124 .46099855 .43138124 .45098878 .43138124 .43499757 .42536927 .42599488 .41036988 .42399598 .405365 .41600038 .37435914 .4119873 .35635377 .40499879 .33035279 .397995 .30334474 .3919983 .27633668L.34700013 .09628296C.34298707 .08126831 .2999878 .011245728 .23399353 .011245728 .18299866 .011245728 .17199707 .055267335 .17199707 .0922699 .17199707 .1382904 .18899536 .20030213 .22299195 .28833009 .23899842 .3293457 .24299622 .3403473 .24299622 .36035157 .24299622 .405365 .21099854 .4423828 .16099549 .4423828 .06599426 .4423828 .0289917 .29733277 .0289917 .28833009 .0289917 .27833558 .038986207 .27833558 .040985109 .27833558 .050994874 .27833558 .051986696 .28033448 .056991579 .29634095 .083999637 .3903656 .12399292 .42037965 .1579895 .42037965 .1659851 .42037965 .18299866 .42037965 .18299866 .3883667 .18299866 .36335755 .17298889 .3373413 .1659851 .31834413 .12599182 .21231079 .10798645 .1552887 .10798645 .10827637 .10798645 .019256592 .17098999-.0107421879 .22999573-.0107421879 .2689972-.0107421879 .30299378 .0062561037 .33099366 .03425598 .31799317-.017745972 .30599977-.06674194 .2659912-.11973572 .23999024-.15385437 .20199585-.18309021 .1559906-.18309021 .14199829-.18309021 .09700012-.18005371 .07998657-.14074707 .09599304-.14074707 .10899353-.14074707 .12298584-.1287384 .1329956-.11973572 .14299011-.10673523 .14299011-.08773804 .14299011-.056747438 .115997318-.052734376 .10598755-.052734376 .08299255-.052734376 .049987794-.068740848 .049987794-.11773682 .049987794-.16796875 .09399414-.20507813 .1559906-.20507813 .25898744-.20507813 .3619995-.11373901 .3899994-.00074768069L.48599244 .38136292Z"/>
<path id="font_4_7" d="M.68699648 .32714845C.70199587 .32714845 .72099307 .32714845 .72099307 .34713746 .72099307 .36714173 .70199587 .36714173 .6879883 .36714173H.08898926C.07499695 .36714173 .055999757 .36714173 .055999757 .34713746 .055999757 .32714845 .07499695 .32714845 .08999634 .32714845H.68699648M.6879883 .13284302C.70199587 .13284302 .72099307 .13284302 .72099307 .15284729 .72099307 .17285156 .70199587 .17285156 .68699648 .17285156H.08999634C.07499695 .17285156 .055999757 .17285156 .055999757 .15284729 .055999757 .13284302 .07499695 .13284302 .08898926 .13284302H.6879883Z"/>
<path id="font_4_11" d="M.20799256 .19424439C.22999573 .19024658 .31199647 .17424011 .31199647 .102249149 .31199647 .051254274 .2769928 .011245728 .19898987 .011245728 .114990238 .011245728 .07899475 .06825256 .05999756 .15324402 .056991579 .1662445 .055999757 .17024231 .04598999 .17024231 .032989503 .17024231 .032989503 .16323853 .032989503 .14524842V.013244629C.032989503-.003753662 .032989503-.0107421879 .04399109-.0107421879 .04899597-.0107421879 .049987794-.009750366 .068984989 .009246826 .070999149 .011245728 .070999149 .013244629 .08898926 .03224182 .1329956-.009750366 .17799378-.0107421879 .19898987-.0107421879 .31399537-.0107421879 .3600006 .056243898 .3600006 .12825012 .3600006 .1812439 .32998658 .21124268 .31799317 .22323609 .2849884 .25523377 .24598694 .26324464 .20399475 .27124024 .147995 .28224183 .08099365 .2952423 .08099365 .35324098 .08099365 .38822938 .10699463 .42922975 .19299317 .42922975 .30299378 .42922975 .30799867 .3392334 .30999757 .3082428 .31098939 .2992401 .31999208 .2992401 .32199098 .2992401 .33499146 .2992401 .33499146 .304245 .33499146 .3232422V.4242401C.33499146 .4412384 .33499146 .4482422 .32398988 .4482422 .31900025 .4482422 .31698609 .4482422 .3039856 .43623353 .30099488 .43223573 .29100038 .42323304 .2869873 .42022706 .24899292 .4482422 .20799256 .4482422 .19299317 .4482422 .070999149 .4482422 .032989503 .38124085 .032989503 .3252411 .032989503 .29023744 .04899597 .26223756 .07598877 .24023438 .10798645 .21424866 .13598633 .2082367 .20799256 .19424439Z"/>
<path id="font_4_9" d="M.1769867 .4423828 .036987306 .43138124V.40037538C.101989749 .40037538 .11099243 .3943634 .11099243 .34532167V.076034549C.11099243 .0309906 .099990848 .0309906 .032989503 .0309906V0C.06498718 .0009918213 .11898804 .0029907227 .14299011 .0029907227 .17799378 .0029907227 .21299744 .0009918213 .24699402 0V.0309906C.18099976 .0309906 .1769867 .035995485 .1769867 .075042728V.4423828M.18099976 .6159363C.18099976 .64793398 .1559906 .6689453 .12799073 .6689453 .09700012 .6689453 .07499695 .64193728 .07499695 .6159363 .07499695 .5889435 .09700012 .5629425 .12799073 .5629425 .1559906 .5629425 .18099976 .5839386 .18099976 .6159363Z"/>
<path id="font_4_10" d="M.10998535 .34429933V.076034549C.10998535 .0309906 .09899902 .0309906 .03199768 .0309906V0C.066986087 .0009918213 .117996219 .0029907227 .14498902 .0029907227 .17098999 .0029907227 .22299195 .0009918213 .25698854 0V.0309906C.18998719 .0309906 .1789856 .0309906 .1789856 .076034549V.2602234C.1789856 .36431886 .25 .42037965 .31399537 .42037965 .3769989 .42037965 .3880005 .36631776 .3880005 .30926515V.076034549C.3880005 .0309906 .3769989 .0309906 .30999757 .0309906V0C.34498597 .0009918213 .3959961 .0029907227 .4229889 .0029907227 .44898988 .0029907227 .5009918 .0009918213 .5349884 0V.0309906C.48298646 .0309906 .45799256 .0309906 .45700074 .061019899V.25221253C.45700074 .3383026 .45700074 .36932374 .42599488 .405365 .4119873 .42237855 .3789978 .4423828 .32099916 .4423828 .24798584 .4423828 .20098877 .39935304 .17298889 .33729554V.4423828L.03199768 .43138124V.40037538C.101989749 .4003601 .10998535 .39335633 .10998535 .34429933Z"/>
<path id="font_4_1" d="M.33099366-.2400055C.33099366-.23701477 .33099366-.23500061 .31399537-.21800232 .18899536-.0920105 .15699768 .09700012 .15699768 .25 .15699768 .42399598 .19499207 .59799197 .31799317 .72299197 .33099366 .73498538 .33099366 .7369995 .33099366 .73999026 .33099366 .746994 .32699586 .75 .32099916 .75 .31098939 .75 .22099304 .6819916 .1619873 .5549927 .11099243 .44499208 .09899902 .33399964 .09899902 .25 .09899902 .17199707 .10998535 .050994874 .16499329-.06201172 .22499085-.18501282 .31098939-.25 .32099916-.25 .32699586-.25 .33099366-.24700928 .33099366-.2400055Z"/>
<path id="font_5_2" d="M.33399964 .30233766C.33999635 .32835389 .36299134 .42037965 .43299867 .42037965 .43798829 .42037965 .46199037 .42037965 .48298646 .40734864 .45498658 .402359 .43499757 .37734986 .43499757 .35334779 .43499757 .33735658 .44599916 .31835938 .47299195 .31835938 .49499513 .31835938 .5269928 .3363495 .5269928 .37635804 .5269928 .42837525 .46798707 .4423828 .43399049 .4423828 .37599183 .4423828 .34098817 .38935853 .32899476 .36634828 .3039856 .43237306 .25 .4423828 .22099304 .4423828 .116989139 .4423828 .05999756 .3133545 .05999756 .28834535 .05999756 .27833558 .069992069 .27833558 .07199097 .27833558 .07998657 .27833558 .08299255 .28033448 .084991458 .28933717 .11898804 .39535523 .18499756 .42037965 .21899414 .42037965 .23799134 .42037965 .272995 .4113617 .272995 .35334779 .272995 .32235719 .2559967 .25532533 .21899414 .11528015 .20298767 .053268434 .16799927 .011245728 .12399292 .011245728 .117996219 .011245728 .09498596 .011245728 .07398987 .024276734 .09899902 .029266358 .12098694 .05027771 .12098694 .07827759 .12098694 .105270389 .09899902 .11328125 .083999637 .11328125 .053985597 .11328125 .0289917 .08728027 .0289917 .055267335 .0289917 .009246826 .07899475-.0107421879 .12298584-.0107421879 .18899536-.0107421879 .22499085 .059280397 .22799683 .0652771 .23999024 .028274537 .27598573-.0107421879 .33599855-.0107421879 .43899537-.0107421879 .49598695 .118270877 .49598695 .14328003 .49598695 .1532898 .4869995 .1532898 .48399354 .1532898 .47499085 .1532898 .47299195 .14929199 .47099305 .14228821 .43798829 .03527832 .36999513 .011245728 .33799745 .011245728 .29899598 .011245728 .2829895 .043273927 .2829895 .07727051 .2829895 .09927368 .2889862 .121276859 .2999878 .16529846L.33399964 .30233766Z"/>
<path id="font_4_2" d="M.2889862 .25C.2889862 .32798768 .27799989 .44898988 .22299195 .56199648 .16299439 .68499758 .07699585 .75 .066986087 .75 .06098938 .75 .056991579 .74598696 .056991579 .73999026 .056991579 .7369995 .056991579 .73498538 .07598877 .71699526 .17399597 .6179962 .23098755 .45899964 .23098755 .25 .23098755 .07899475 .19400025-.09700012 .069992069-.2230072 .056991579-.23500061 .056991579-.23701477 .056991579-.2400055 .056991579-.2460022 .06098938-.25 .066986087-.25 .07699585-.25 .16699219-.18200684 .22599793-.055007936 .2769928 .054992677 .2889862 .16600037 .2889862 .25Z"/>
<path id="font_4_8" d="M.116989139 .21801758C.116989139 .38093568 .19898987 .42323304 .2519989 .42323304 .26098634 .42323304 .32398988 .42222596 .35899354 .38594056 .31799317 .38293458 .31199647 .3529358 .31199647 .3399353 .31199647 .31393434 .32998658 .2939453 .35798646 .2939453 .38398744 .2939453 .4039917 .3109436 .4039917 .34094239 .4039917 .40911866 .32798768 .4482422 .25099183 .4482422 .12599182 .4482422 .033996583 .3399353 .033996583 .21601868 .033996583 .08816528 .1329956-.0107421879 .24899292-.0107421879 .3829956-.0107421879 .4149933 .10914612 .4149933 .119140628 .4149933 .12911988 .40499879 .12911988 .4019928 .12911988 .3929901 .12911988 .3909912 .12512207 .3889923 .119140628 .3600006 .026229859 .29499818 .014251709 .2579956 .014251709 .20498657 .014251709 .116989139 .0572052 .116989139 .21801758Z"/>
<path id="font_5_1" d="M.2649994 .37265016H.37799073C.34498597 .22489929 .33599855 .18196106 .33599855 .11508179 .33599855 .100097659 .33599855 .073150638 .34399415 .03919983 .35398866-.0047454836 .36499024-.0107421879 .37998963-.0107421879 .3999939-.0107421879 .42099 .007247925 .42099 .02722168 .42099 .033218385 .42099 .035202028 .4149933 .049179079 .38598634 .12106323 .38598634 .18595886 .38598634 .21391297 .38598634 .26683045 .3929901 .32073976 .4039917 .37265016H.5179901C.5309906 .37265016 .5669861 .37265016 .5669861 .406662 .5669861 .43066407 .54599 .43066407 .5269928 .43066407H.19198609C.16999817 .43066407 .13198853 .43066407 .08799744 .38365174 .052993776 .34469605 .026992798 .29878236 .026992798 .29379273 .026992798 .29278565 .026992798 .28379823 .038986207 .28379823 .04699707 .28379823 .04899597 .28779603 .054992677 .29577638 .10398865 .37265016 .1619873 .37265016 .18199158 .37265016H.23899842C.20698548 .25186158 .15299988 .13105774 .11099243 .04020691 .102996829 .025222779 .102996829 .023223877 .102996829 .016235352 .102996829-.002746582 .11898804-.0107421879 .13198853-.0107421879 .1619873-.0107421879 .16999817 .017242432 .18199158 .05418396 .19599915 .100097659 .19599915 .10209656 .20899964 .15202332L.2649994 .37265016Z"/>
<path id="font_4_3" d="M.45999146 .31976319C.45999146 .39982606 .45498658 .47988893 .41999818 .5539398 .37399293 .65000918 .2919922 .6660156 .25 .6660156 .18998719 .6660156 .116989139 .64001467 .07598877 .54693606 .04399109 .47789 .038986207 .39982606 .038986207 .31976319 .038986207 .24472046 .042999269 .15464783 .083999637 .07859802 .1269989-.0024719239 .19999695-.022460938 .24899292-.022460938 .30299378-.022460938 .3789978-.0014648438 .4229889 .09359741 .45498658 .16265869 .45999146 .2407074 .45999146 .31976319M.24899292-.00047302247C.20999146-.00047302247 .15098572 .024551392 .1329956 .12062073 .12199402 .18066406 .12199402 .2727356 .12199402 .3317871 .12199402 .39582826 .12199402 .46188355 .12998963 .5159149 .14898682 .63500979 .22399903 .64401248 .24899292 .64401248 .28199769 .64401248 .34799195 .6259918 .36698915 .52693179 .3769989 .47088624 .3769989 .39482118 .3769989 .3317871 .3769989 .25672914 .3769989 .18867493 .3659973 .12461853 .35099793 .029556275 .2939911-.00047302247 .24899292-.00047302247Z"/>
<path id="font_4_5" d="M.2899933 .35191346C.37199403 .37893678 .42999269 .4490509 .42999269 .52809146 .42999269 .6100464 .34199525 .6660156 .24598694 .6660156 .14498902 .6660156 .068984989 .60606387 .068984989 .53009036 .068984989 .49710084 .09098816 .47808839 .11999512 .47808839 .15098572 .47808839 .17098999 .50009158 .17098999 .5290985 .17098999 .57910159 .12399292 .57910159 .10899353 .57910159 .13999939 .62802127 .20599365 .64100649 .24198914 .64100649 .2829895 .64100649 .33799745 .6190338 .33799745 .5290985 .33799745 .51708987 .33599855 .45906068 .30999757 .4149933 .27999879 .36691285 .24598694 .36390687 .22099304 .36291505 .21299744 .36190797 .18899536 .35990907 .18199158 .35990907 .17399597 .35890199 .16699219 .35791017 .16699219 .3479004 .16699219 .33691407 .17399597 .33691407 .19099427 .33691407H.23498535C.31698609 .33691407 .35398866 .2686615 .35398866 .17037964 .35398866 .034469606 .2849884 .0055389406 .24099732 .0055389406 .19799805 .0055389406 .12298584 .022491456 .08799744 .08137512 .12298584 .07637024 .1539917 .09837341 .1539917 .1363678 .1539917 .17237854 .1269989 .19238281 .09799194 .19238281 .07398987 .19238281 .041992189 .17837525 .041992189 .1343689 .041992189 .043441774 .1349945-.022460938 .24398804-.022460938 .3659973-.022460938 .45700074 .06838989 .45700074 .17037964 .45700074 .252594 .3939972 .33088685 .2899933 .35191346Z"/>
</defs>
<path transform="matrix(1,0,0,-1,15.195007,170.598)" stroke-width=".19925" stroke-linecap="butt" stroke-miterlimit="10" stroke-linejoin="miter" fill="none" stroke="#7f807f" d="M20.26724 78.57149V82.82332M51.01465 78.57149V82.82332M81.76208 78.57149V82.82332M112.5095 78.57149V82.82332M143.25695 78.57149V82.82332M174.00437 78.57149V82.82332"/>
<path transform="matrix(1,0,0,-1,15.195007,170.598)" stroke-width=".19925" stroke-linecap="butt" stroke-miterlimit="10" stroke-linejoin="miter" fill="none" stroke="#7f807f" d="M64.26244 5.63005H68.51411M64.26244 43.16373H68.51411M64.26244 118.2311H68.51411M64.26244 155.76479H68.51411"/>
<path transform="matrix(1,0,0,-1,15.195007,170.598)" stroke-width=".3985" stroke-linecap="butt" stroke-miterlimit="10" stroke-linejoin="miter" fill="none" stroke="#000000" d="M0 80.69742H192.27873"/>
<path transform="matrix(1,0,0,-1,207.47374,89.90059)" d="M1.99252 0-1.19551 1.59401 0 0-1.19551-1.59401"/>
<path transform="matrix(1,0,0,-1,15.195007,170.598)" stroke-width=".3985" stroke-linecap="butt" stroke-miterlimit="10" stroke-linejoin="miter" fill="none" stroke="#000000" d="M66.38828 0V159.40232"/>
<path transform="matrix(0,-1,-1,-0,81.58329,11.195694)" d="M1.99252 0-1.19551 1.59401 0 0-1.19551-1.59401"/>
<use data-text="&#x2212;" xlink:href="#font_1_1" transform="matrix(9.9626,0,0,-9.9626,25.952012,103.963008)"/>
<use data-text="3" xlink:href="#font_2_2" transform="matrix(6.9738,0,0,-6.9738,34.89701,100.04)"/>
<use data-text="&#x03c0;" xlink:href="#font_3_1" transform="matrix(6.9738,0,0,-6.9738,38.86801,100.04)"/>
<path transform="matrix(1,0,0,-1,-91.54199,-42.420999)" stroke-width=".3985" stroke-linecap="butt" stroke-miterlimit="10" stroke-linejoin="miter" fill="none" stroke="#000000" d="M126.439-143.893H135.319"/>
<use data-text="2" xlink:href="#font_2_1" transform="matrix(6.9738,0,0,-6.9738,37.351015,107.398)"/>
<use data-text="&#x2212;" xlink:href="#font_1_1" transform="matrix(9.9626,0,0,-9.9626,58.68501,102.47201)"/>
<use data-text="&#x03c0;" xlink:href="#font_3_1" transform="matrix(6.9738,0,0,-6.9738,67.630008,98.549)"/>
<path transform="matrix(1,0,0,-1,-58.808996,-43.911996)" stroke-width=".3985" stroke-linecap="butt" stroke-miterlimit="10" stroke-linejoin="miter" fill="none" stroke="#000000" d="M126.439-143.893H131.348"/>
<use data-text="2" xlink:href="#font_2_1" transform="matrix(6.9738,0,0,-6.9738,68.099,105.907009)"/>
<use data-text="&#x03c0;" xlink:href="#font_3_1" transform="matrix(6.9738,0,0,-6.9738,94.503009,98.549)"/>
<path transform="matrix(1,0,0,-1,-24.186997,-43.911996)" stroke-width=".3985" stroke-linecap="butt" stroke-miterlimit="10" stroke-linejoin="miter" fill="none" stroke="#000000" d="M118.69-143.893H123.599"/>
<use data-text="2" xlink:href="#font_2_1" transform="matrix(6.9738,0,0,-6.9738,94.972,105.907009)"/>
<use data-text="3" xlink:href="#font_2_2" transform="matrix(6.9738,0,0,-6.9738,123.26501,100.04)"/>
<use data-text="&#x03c0;" xlink:href="#font_3_1" transform="matrix(6.9738,0,0,-6.9738,127.23601,100.04)"/>
<path transform="matrix(1,0,0,-1,4.5750048,-42.420999)" stroke-width=".3985" stroke-linecap="butt" stroke-miterlimit="10" stroke-linejoin="miter" fill="none" stroke="#000000" d="M118.69-143.893H127.57"/>
<use data-text="2" xlink:href="#font_2_1" transform="matrix(6.9738,0,0,-6.9738,125.719,107.398)"/>
<use data-text="5" xlink:href="#font_2_3" transform="matrix(6.9738,0,0,-6.9738,154.01201,100.04)"/>
<use data-text="&#x03c0;" xlink:href="#font_3_1" transform="matrix(6.9738,0,0,-6.9738,157.983,100.04)"/>
<path transform="matrix(1,0,0,-1,35.322008,-42.420999)" stroke-width=".3985" stroke-linecap="butt" stroke-miterlimit="10" stroke-linejoin="miter" fill="none" stroke="#000000" d="M118.69-143.893H127.57"/>
<use data-text="2" xlink:href="#font_2_1" transform="matrix(6.9738,0,0,-6.9738,156.466,107.398)"/>
<use data-text="7" xlink:href="#font_2_4" transform="matrix(6.9738,0,0,-6.9738,184.76001,100.04)"/>
<use data-text="&#x03c0;" xlink:href="#font_3_1" transform="matrix(6.9738,0,0,-6.9738,188.73102,100.04)"/>
<path transform="matrix(1,0,0,-1,66.07001,-42.420999)" stroke-width=".3985" stroke-linecap="butt" stroke-miterlimit="10" stroke-linejoin="miter" fill="none" stroke="#000000" d="M118.69-143.893H127.57"/>
<use data-text="2" xlink:href="#font_2_1" transform="matrix(6.9738,0,0,-6.9738,187.214,107.398)"/>
<use data-text="&#x2212;" xlink:href="#font_1_1" transform="matrix(9.9626,0,0,-9.9626,63.20701,167.763)"/>
<use data-text="4" xlink:href="#font_4_6" transform="matrix(9.9626,0,0,-9.9626,70.95601,167.763)"/>
<use data-text="&#x2212;" xlink:href="#font_1_1" transform="matrix(9.9626,0,0,-9.9626,63.20701,130.229)"/>
<use data-text="2" xlink:href="#font_4_4" transform="matrix(9.9626,0,0,-9.9626,70.95601,130.229)"/>
<use data-text="2" xlink:href="#font_4_4" transform="matrix(9.9626,0,0,-9.9626,70.95601,55.577005)"/>
<use data-text="4" xlink:href="#font_4_6" transform="matrix(9.9626,0,0,-9.9626,70.95601,18.043015)"/>
<path transform="matrix(1,0,0,-1,15.195007,170.598)" stroke-width=".99628" stroke-linecap="butt" stroke-miterlimit="10" stroke-linejoin="miter" fill="none" stroke="#ff0000" d="M4.28468 79.52458 3.88287 78.7631 4.8296 80.57486 5.77635 82.38756 6.72307 84.18466 7.6698 85.9493 8.61653 87.66478 9.56326 89.31514 10.51 90.88518 11.45674 92.35913 12.40347 93.72498 13.3502 94.96848 14.29694 96.07928 15.24367 97.0452 16.1904 97.85893 17.13713 98.51184 18.08386 98.99828 19.03061 99.31392 19.97734 99.45506 20.92407 99.42126 21.87079 99.21202 22.81754 98.8303 23.76427 98.2778 24.711 97.56223 25.65773 96.68806 26.60448 95.66547 27.55121 94.50174 28.49794 93.20963 29.44466 91.80006 30.39139 90.28708 31.33813 88.6842 32.28488 87.0068 33.2316 85.27032 34.17833 83.49104 35.12506 81.68587 36.07181 79.87186 37.01852 78.06497 37.96526 76.28288 38.91199 74.5415 39.85875 72.85812 40.80547 71.24811 41.7522 69.72632 42.69893 68.30716 43.64568 67.00363 44.59239 65.82881 45.53912 64.79195 46.48587 63.90501 47.4326 63.17369 48.37933 62.60748 49.32607 62.20944 50.2728 61.98557 51.21953 61.93544 52.16624 62.06119 53.11299 62.3609 54.05974 62.8323 55.00647 63.47095 55.95319 64.27003 56.89993 65.2234 57.84666 66.3207 58.7934 67.55312 59.74011 68.90808 60.68686 70.37358 61.6336 71.93536 62.58034 73.57915 63.52705 75.28917 64.47379 77.05026 65.42053 78.84511 66.36726 80.65726 67.314 82.46938 68.26073 84.26573 69.20746 86.02832 70.15419 87.74136 71.10092 89.38814 72.04765 90.95386 72.99438 92.42387 73.9411 93.78409 74.88786 95.02177 75.8346 96.12563 76.78133 97.08556 77.72804 97.89159 78.67479 98.5381 79.62152 99.0161 80.56825 99.32445 81.51498 99.4573 82.46172 99.41545 83.40846 99.19852 84.3552 98.80853 85.30191 98.24928 86.24864 97.52582 87.19539 96.64548 88.14212 95.61497 89.08885 94.446 90.03558 93.14807 90.98232 91.73401 91.92906 90.21632 92.87578 88.60988 93.82251 86.92912 94.76924 85.19037 95.716 83.40977 96.66272 81.60347 97.60945 79.78928 98.55624 77.98334 99.50288 76.20276 100.44966 74.46362 101.39632 72.78343 102.34311 71.17699 103.28992 69.65932 104.23656 68.24597 105.18335 66.9475 106.12999 65.77872 107.07678 64.74898 108.02356 63.86804 108.97021 63.14497 109.91702 62.58572 110.86366 62.19592 111.81044 61.97897 112.75723 61.9377 113.70389 62.07037 114.65068 62.37909 115.5973 62.85727 116.5441 63.5038 117.4909 64.3102 118.43756 65.27013 119.38434 66.374 120.33098 67.61221 121.27779 68.97244 122.22456 70.44226 123.1712 72.00818 124.11801 73.65497 125.06467 75.36818 126.01146 77.13077 126.95824 78.9275 127.90488 80.73926 128.85167 82.55157 129.79833 84.34624 130.7451 86.10733 131.69191 87.81755 132.63855 89.46114 133.58533 91.02274 134.53199 92.48824 135.47878 93.84264 136.42557 95.07524 137.37221 96.17255 138.319 97.12552 139.26566 97.92444 140.21245 98.56343 141.15923 99.03412 142.10587 99.334 143.05266 99.45938 143.99932 99.40926 144.94609 99.185 145.8929 98.78639 146.83954 98.22038 147.78635 97.48885 148.73299 96.60211 149.67977 95.56488 150.62656 94.3897 151.57321 93.08615 152.52 91.66699 153.46665 90.1452 154.41344 88.535 155.36023 86.85162 156.30687 85.11043 157.25366 83.32814 158.2003 81.52127 159.1471 79.70726 160.09389 77.90189 161.04055 76.12318 161.98734 74.3863 162.93398 72.7091 163.88076 71.10605 164.82755 69.59325 165.7742 68.18405 166.72101 66.89195 167.66764 65.7286 168.61443 64.70561 169.56122 63.83145 170.50788 63.11607 171.45465 62.56395 172.40129 62.1826 173.3481 61.97354 174.2949 61.93976 175.24153 62.08125 176.18833 62.39711 177.13498 62.88354 178.08177 63.53682 179.02855 64.35092 179.97519 65.31686 180.922 66.42729 181.86865 67.6706 182.81543 69.03682 183.76222 70.51132 184.70886 72.08156 185.65566 73.73172 186.6023 75.44739 187.5491 77.21184 188.4959 79.00896 189.44254 80.82164 190.38932 82.63339 189.98743 81.87192"/>
<path transform="matrix(-.46675,.88434,.88434,.46675,19.479687,91.07341)" d="M2.8892 0-1.73352 2.31136 0 0-1.73352-2.31136" fill="#ff0000"/>
<path transform="matrix(.46675,-.88434,-.88434,-.46675,205.18244,88.726108)" d="M2.8892 0-1.73352 2.31136 0 0-1.73352-2.31136" fill="#ff0000"/>
<use data-text="y" xlink:href="#font_5_3" transform="matrix(9.9626,0,0,-9.9626,173.466,77.64801)" fill="#ff0000"/>
<use data-text="=" xlink:href="#font_4_7" transform="matrix(9.9626,0,0,-9.9626,181.47602,77.64801)" fill="#ff0000"/>
<use data-text="s" xlink:href="#font_4_11" transform="matrix(9.9626,0,0,-9.9626,191.9766,77.64801)" fill="#ff0000"/>
<use data-text="i" xlink:href="#font_4_9" transform="matrix(9.9626,0,0,-9.9626,195.90186,77.64801)" fill="#ff0000"/>
<use data-text="n" xlink:href="#font_4_10" transform="matrix(9.9626,0,0,-9.9626,198.6615,77.64801)" fill="#ff0000"/>
<use data-text="(" xlink:href="#font_4_1" transform="matrix(9.9626,0,0,-9.9626,204.19074,77.64801)" fill="#ff0000"/>
<use data-text="x" xlink:href="#font_5_2" transform="matrix(9.9626,0,0,-9.9626,208.098,77.64801)" fill="#ff0000"/>
<use data-text=")" xlink:href="#font_4_2" transform="matrix(9.9626,0,0,-9.9626,213.792,77.64801)" fill="#ff0000"/>
<path transform="matrix(1,0,0,-1,15.195007,170.598)" stroke-width=".99628" stroke-linecap="butt" stroke-miterlimit="10" stroke-linejoin="miter" fill="none" stroke="#0000ff" d="M7.44052 153.67308 7.47029 152.81838 7.6002 149.43285 7.73012 146.37386 7.86003 143.57947 7.98996 141.01967 8.11987 138.67382 8.24979 136.51187 8.37968 134.51883 8.50961 132.67218 8.63954 130.95314 8.76945 129.35233 8.89937 127.85847 9.02928 126.46411 9.1592 125.1523 9.28911 123.92682 9.41904 122.77266 9.54895 121.68045 9.67885 120.65576 9.80878 119.68552 9.93869 118.7697 10.0686 117.90079 10.19853 117.07693 10.32845 116.29436 10.45834 115.55305 10.58827 114.84555 10.71819 114.17558 10.8481 113.53375 10.97803 112.92383 11.10794 112.34018 11.23785 111.78093 11.36777 111.24983 11.4977 110.73936 11.62761 110.25331 11.7575 109.78227 11.88744 109.33562 12.01735 108.90584 12.14725 108.49672 12.27719 108.10263 12.4071 107.72166 12.537 107.35757 12.66693 107.00851 12.79684 106.67072 12.92676 106.34605 13.05669 106.03827 13.1866 105.73611 13.3165 105.44711 13.44643 105.17311 13.57634 104.90665 13.70627 104.64764 13.83618 104.4018 13.9661 104.16159 14.09601 103.93263 14.2259 103.71118 14.35585 103.49911 14.48576 103.29643 14.61566 103.09563 14.74559 102.90796 14.8755 102.72404 15.0054 102.54576 15.13535 102.37686 15.26526 102.2136 15.39516 102.05782 15.52507 101.90395 15.655 101.75943 15.78491 101.62244 15.91483 101.48732 16.04475 101.35783 16.17467 101.23584 16.30457 101.11574 16.4345 101.00313 16.56442 100.89427 16.69432 100.78918 16.82425 100.68785 16.95416 100.59401 17.08406 100.50204 17.214 100.41573 17.34392 100.33316 17.47382 100.25621 17.60374 100.18114 17.73366 100.11171 17.86356 100.04416 17.99348 99.98409 18.12341 99.92404 18.25331 99.86961 18.38322 99.81706 18.51315 99.76826 18.64308 99.72697 18.77298 99.6857 18.90291 99.64816 19.03282 99.6144 19.16272 99.58624 19.29265 99.55809 19.42258 99.53369 19.55247 99.51492 19.6824 99.49991 19.81232 99.48488 19.94221 99.47363 20.07214 99.468 20.20207 99.46426H20.33197L20.4619 99.468 20.5918 99.47363 20.72173 99.48488 20.85164 99.49991 20.98157 99.51492 21.11148 99.53369 21.24138 99.55809 21.3713 99.58624 21.50122 99.6144 21.63113 99.64816 21.76106 99.6857 21.89096 99.72697 22.02087 99.76826 22.1508 99.81706 22.28073 99.86961 22.41063 99.92404 22.54054 99.98409 22.67047 100.04416 22.80035 100.11171 22.9303 100.18114 23.06023 100.25621 23.19011 100.33316 23.32004 100.41573 23.44995 100.50204 23.5799 100.59401 23.70981 100.68785 23.8397 100.78918 23.96964 100.89427 24.09952 101.00313 24.22945 101.11574 24.35939 101.23584 24.48929 101.35783 24.6192 101.48732 24.74911 101.62244 24.87903 101.75943 25.00897 101.90395 25.13887 102.05782 25.26878 102.2136 25.3987 102.37686 25.52861 102.54576 25.65852 102.72404 25.78845 102.90796 25.91837 103.09563 26.04828 103.29268 26.17819 103.49725 26.30812 103.71118 26.43803 103.93263 26.56795 104.16159 26.69786 104.39993 26.82777 104.64764 26.95769 104.9029 27.0876 105.16936 27.21754 105.44711 27.34743 105.73611 27.47736 106.03452 27.60728 106.34605 27.73717 106.67072 27.86711 107.00478 27.99702 107.35757 28.12694 107.71791 28.25685 108.09888 28.38676 108.49672 28.5167 108.90584 28.64659 109.33372 28.77652 109.78227 28.90645 110.24956 29.03633 110.73936 29.16626 111.24608 29.29619 111.77904 29.4261 112.33832 29.55603 112.92007 29.68593 113.53188 29.81584 114.16995 29.94574 114.84555 30.07568 115.54932 30.2056 116.29248 30.33551 117.07318 30.46542 117.89893 30.59532 118.76595 30.72527 119.68176 30.8552 120.65015 30.98509 121.67856 31.115 122.76703 31.24492 123.9212 31.37483 125.14668 31.50476 126.45847 31.63467 127.85472 31.76459 129.3467 31.89449 130.94562 32.02441 132.6628 32.15436 134.51322 32.28424 136.51 32.41417 138.66819 32.54408 141.01029 32.67398 143.56633 32.80391 146.3626 32.93384 149.42346 33.06375 152.80336 33.0935 153.65995"/>
<path transform="matrix(-.03467,-.99937,-.99937,.03467,22.635548,16.924927)" d="M2.8892 0-1.73352 2.31136 0 0-1.73352-2.31136" fill="#0000ff"/>
<path transform="matrix(.03467,-.99937,-.99937,-.03467,48.288499,16.938065)" d="M2.8892 0-1.73352 2.31136 0 0-1.73352-2.31136" fill="#0000ff"/>
<path transform="matrix(1,0,0,-1,15.195007,170.598)" stroke-width=".99628" stroke-linecap="butt" stroke-miterlimit="10" stroke-linejoin="miter" fill="none" stroke="#0000ff" d="M38.18788 7.72173 38.21764 8.57643 38.34755 11.95634 38.47748 15.0266 38.60738 17.81909 38.73729 20.37328 38.86722 22.71912 38.99713 24.87732 39.12704 26.87598 39.25697 28.7264 39.38687 30.44168 39.51678 32.0425 39.64673 33.53447 39.77664 34.93071 39.90654 36.24251 40.03645 37.46799 40.16638 38.6259 40.29628 39.71437 40.42621 40.73904 40.55614 41.70929 40.68604 42.6251 40.81595 43.49402 40.94588 44.31789 41.07579 45.10046 41.2057 45.84175 41.33563 46.54926 41.46553 47.2211 41.59544 47.86107 41.72536 48.47098 41.85529 49.05463 41.9852 49.61388 42.11511 50.14497 42.24504 50.65544 42.37494 51.1415 42.50487 51.61255 42.6348 52.0592 42.7647 52.48521 42.8946 52.89809 43.02452 53.29219 43.15443 53.67316 43.28436 54.03723 43.41428 54.3863 43.54419 54.7241 43.6741 55.04875 43.80402 55.35654 43.93394 55.65869 44.06386 55.94394 44.19377 56.2217 44.32368 56.48819 44.4536 56.74716 44.58351 56.99301 44.71344 57.23322 44.84335 57.46217 44.97327 57.68362 45.1032 57.89569 45.2331 58.09839 45.36302 58.29918 45.49294 58.48685 45.62285 58.67076 45.75276 58.84906 45.88268 59.01794 46.01259 59.18121 46.14252 59.33699 46.27243 59.49088 46.40234 59.63538 46.53226 59.77238 46.66217 59.90749 46.7921 60.03699 46.92201 60.15898 47.05193 60.27907 47.18184 60.3917 47.31175 60.50053 47.44167 60.60562 47.5716 60.70697 47.7015 60.80081 47.83142 60.89276 47.96133 60.97908 48.09125 61.06166 48.22118 61.13861 48.35109 61.21368 48.481 61.28311 48.61092 61.35066 48.74083 61.41072 48.87073 61.47078 49.00067 61.52519 49.13058 61.57774 49.26048 61.62654 49.39041 61.66783 49.52032 61.7091 49.65025 61.74664 49.78017 61.78043 49.91008 61.80858 50.04 61.83673 50.1699 61.86113 50.29982 61.87988 50.42975 61.89491 50.55966 61.90993 50.68958 61.92117 50.81949 61.92682 50.9494 61.93057H51.07933L51.20926 61.92682 51.33914 61.92117 51.46907 61.90993 51.59897 61.89491 51.72888 61.87988 51.85883 61.86113 51.98874 61.83673 52.11865 61.80858 52.24855 61.78043 52.37848 61.74664 52.50842 61.7091 52.6383 61.66783 52.76823 61.62654 52.89815 61.57774 53.02805 61.52519 53.15797 61.47078 53.2879 61.41072 53.41782 61.35066 53.54771 61.28311 53.67764 61.21368 53.80756 61.13861 53.93747 61.06166 54.0674 60.97908 54.1973 60.89276 54.32721 60.80081 54.45714 60.70697 54.58705 60.60562 54.71698 60.50427 54.84688 60.3917 54.9768 60.27907 55.10672 60.15898 55.23662 60.03699 55.36656 59.90749 55.49646 59.77238 55.62639 59.63538 55.7563 59.49088 55.8862 59.33699 56.01613 59.18121 56.14604 59.01794 56.27596 58.84906 56.40588 58.67076 56.5358 58.48685 56.6657 58.29918 56.79562 58.10214 56.92555 57.89569 57.05547 57.68362 57.18536 57.46217 57.31529 57.23322 57.44519 56.99489 57.57512 56.74716 57.70505 56.49193 57.83496 56.22545 57.96486 55.9477 58.09477 55.65869 58.22472 55.36029 58.35463 55.04875 58.48453 54.7241 58.61446 54.39005 58.74435 54.03723 58.87427 53.67316 59.00421 53.29594 59.13411 52.89809 59.26402 52.48897 59.39394 52.06108 59.52386 51.61255 59.6538 51.14525 59.78369 50.65544 59.91362 50.14873 60.04352 49.61577 60.17343 49.0565 60.30336 48.47473 60.43327 47.86293 60.5632 47.2211 60.6931 46.54926 60.82301 45.84549 60.95294 45.10233 61.08286 44.32164 61.21277 43.4959 61.34268 42.62886 61.47261 41.71304 61.60251 40.74467 61.73242 39.71626 61.86237 38.62778 61.99226 37.47362 62.12218 36.24814 62.2521 34.93634 62.38202 33.54008 62.51193 32.04813 62.64185 30.44919 62.77177 28.73203 62.90167 26.88536 63.03159 24.88483 63.16151 22.7304 63.29141 20.37889 63.42134 17.82849 63.55127 15.03223 63.68117 11.97136 63.81108 8.59145 63.84085 7.73486"/>
<path transform="matrix(-.03467,.99937,.99937,.03467,53.382909,162.87628)" d="M2.8892 0-1.73352 2.31136 0 0-1.73352-2.31136" fill="#0000ff"/>
<path transform="matrix(.03467,.99937,.99937,-.03467,79.03584,162.86315)" d="M2.8892 0-1.73352 2.31136 0 0-1.73352-2.31136" fill="#0000ff"/>
<path transform="matrix(1,0,0,-1,15.195007,170.598)" stroke-width=".99628" stroke-linecap="butt" stroke-miterlimit="10" stroke-linejoin="miter" fill="none" stroke="#0000ff" d="M68.93521 153.67308 68.96498 152.81838 69.09491 149.43285 69.22482 146.36821 69.35475 143.57947 69.48466 141.02155 69.61456 138.67569 69.74449 136.5175 69.8744 134.51883 70.00432 132.66841 70.13425 130.95314 70.26416 129.35233 70.39407 127.86035 70.52399 126.46036 70.65392 125.1523 70.78383 123.92682 70.91374 122.76892 71.04366 121.68419 71.17358 120.65576 71.30348 119.68552 71.43343 118.77158 71.56334 117.90079 71.69324 117.07693 71.82317 116.29436 71.95308 115.55305 72.083 114.84555 72.21292 114.1737 72.34283 113.53375 72.47275 112.92007 72.60266 112.34018 72.73257 111.78093 72.8625 111.24983 72.99242 110.73936 73.12234 110.25331 73.25224 109.78227 73.38216 109.33562 73.5121 108.90959 73.642 108.49672 73.77191 108.09888 73.90184 107.72166 74.03175 107.35757 74.16167 107.00851 74.2916 106.67259 74.42151 106.34605 74.55142 106.03827 74.68134 105.73611 74.81125 105.44711 74.94118 105.17311 75.07109 104.90665 75.20102 104.64764 75.33092 104.4018 75.46083 104.16159 75.59076 103.93263 75.72067 103.71118 75.8506 103.49911 75.98051 103.29268 76.11041 103.09563 76.24034 102.90796 76.37027 102.72404 76.50018 102.54576 76.6301 102.37686 76.76001 102.2136 76.88994 102.05782 77.01984 101.90395 77.14977 101.75943 77.2797 101.62244 77.40959 101.48732 77.5395 101.35783 77.66943 101.23584 77.79935 101.11574 77.92928 101.00313 78.05919 100.89427 78.18909 100.78918 78.31902 100.68785 78.44893 100.59401 78.57884 100.50204 78.70877 100.41573 78.83868 100.33316 78.9686 100.25621 79.09851 100.18114 79.22844 100.11171 79.35837 100.04416 79.48827 99.98409 79.6182 99.92404 79.74811 99.86961 79.878 99.81706 80.00795 99.76826 80.13786 99.72697 80.26776 99.6857 80.39769 99.64816 80.5276 99.6144 80.65753 99.58624 80.78745 99.55809 80.91736 99.53369 81.04727 99.51492 81.17719 99.49991 81.30711 99.48488 81.43703 99.47363 81.56694 99.468 81.69687 99.46426H81.82678L81.9567 99.468 82.08661 99.47363 82.21654 99.48488 82.34644 99.49991 82.47636 99.51492 82.6063 99.53369 82.73618 99.55809 82.86612 99.58624 82.99603 99.6144 83.12595 99.64816 83.25587 99.6857 83.38577 99.72697 83.5157 99.76826 83.64561 99.81706 83.77554 99.86961 83.90546 99.92404 84.03535 99.98409 84.16528 100.04416 84.2952 100.11171 84.42513 100.18114 84.55504 100.25621 84.68495 100.33316 84.81487 100.41573 84.94478 100.50204 85.0747 100.59401 85.20462 100.68785 85.33453 100.78918 85.46446 100.89427 85.59435 101.00313 85.72429 101.11574 85.85422 101.23584 85.98412 101.35783 86.11404 101.48732 86.24394 101.62244 86.37387 101.75943 86.5038 101.90395 86.63371 102.05782 86.76363 102.2136 86.89352 102.37686 87.02345 102.54576 87.1534 102.72404 87.2833 102.90796 87.41322 103.09563 87.54312 103.29268 87.67303 103.49911 87.80298 103.71118 87.93288 103.93263 88.06279 104.16159 88.1927 104.39993 88.32263 104.64764 88.45255 104.9029 88.58246 105.16936 88.71239 105.44711 88.84229 105.73611 88.97221 106.03452 89.10214 106.34605 89.23204 106.67259 89.36197 107.00478 89.49188 107.35757 89.6218 107.72166 89.75172 108.09888 89.88162 108.49672 90.01157 108.90584 90.14146 109.33562 90.2714 109.78227 90.40132 110.24956 90.5312 110.73936 90.66115 111.24983 90.79106 111.77904 90.92097 112.33832 91.05089 112.92007 91.1808 113.53188 91.31071 114.1737 91.44064 114.84555 91.57057 115.54932 91.70047 116.29436 91.83038 117.07318 91.96031 117.89893 92.09021 118.7697 92.22014 119.68552 92.35007 120.65201 92.47998 121.68045 92.6099 122.76703 92.73979 123.92307 92.86974 125.14854 92.99965 126.45847 93.12956 127.85472 93.25949 129.35045 93.38937 130.94751 93.51932 132.66655 93.64925 134.51508 93.77914 136.51187 93.90907 138.67006 94.03897 141.01592 94.16888 143.56633 94.29883 146.36446 94.42874 149.4291 94.55865 152.809 94.58849 153.66933"/>
<path transform="matrix(-.03467,-.99937,-.99937,.03467,84.13023,16.924927)" d="M2.8892 0-1.73352 2.31136 0 0-1.73352-2.31136" fill="#0000ff"/>
<path transform="matrix(.03464,-.99937,-.99937,-.03464,109.7835,16.92868)" d="M2.8892 0-1.73352 2.31136 0 0-1.73352-2.31136" fill="#0000ff"/>
<path transform="matrix(1,0,0,-1,15.195007,170.598)" stroke-width=".99628" stroke-linecap="butt" stroke-miterlimit="10" stroke-linejoin="miter" fill="none" stroke="#0000ff" d="M99.6824 7.72173 99.71234 8.58394 99.84225 11.95634 99.97217 15.02097 100.10208 17.81909 100.232 20.37328 100.36192 22.71912 100.49184 24.87732 100.62175 26.87598 100.75166 28.7264 100.88158 30.44168 101.0115 32.0425 101.14142 33.53633 101.27133 34.93071 101.40125 36.24251 101.53116 37.46799 101.66107 38.62215 101.79099 39.71437 101.92091 40.73904 102.05083 41.70929 102.18074 42.62325 102.31065 43.49402 102.44058 44.31789 102.5705 45.10046 102.70041 45.84175 102.83032 46.5455 102.96024 47.2211 103.09015 47.86107 103.22008 48.47473 103.34999 49.05463 103.47989 49.61388 103.60982 50.14497 103.73973 50.65544 103.86964 51.1415 103.99957 51.61255 104.12949 52.0592 104.25938 52.48521 104.38931 52.89809 104.51924 53.29594 104.64915 53.67316 104.77907 54.03723 104.90898 54.3863 105.0389 54.7241 105.16881 55.04875 105.29874 55.35654 105.42865 55.65869 105.55855 55.94394 105.68848 56.2217 105.81839 56.48819 105.9483 56.74716 106.07823 56.99301 106.20815 57.23322 106.33804 57.46217 106.46797 57.68362 106.59789 57.89569 106.7278 58.10214 106.85773 58.29918 106.98764 58.48685 107.11755 58.67076 107.24745 58.84906 107.3774 59.01794 107.50731 59.18121 107.6372 59.33699 107.76714 59.49088 107.89705 59.63538 108.02695 59.77238 108.15689 59.90749 108.2868 60.03699 108.4167 60.15898 108.54662 60.27907 108.67654 60.3917 108.80646 60.50053 108.93637 60.60562 109.0663 60.70697 109.1962 60.80081 109.32611 60.89276 109.45604 60.97908 109.58597 61.06166 109.71587 61.13861 109.8458 61.21368 109.97571 61.28311 110.1056 61.35066 110.23555 61.41072 110.36546 61.47078 110.49536 61.52519 110.62529 61.57774 110.7552 61.62654 110.8851 61.66783 111.01505 61.7091 111.14496 61.74664 111.27486 61.78043 111.40477 61.80858 111.5347 61.83673 111.66461 61.86113 111.79453 61.87988 111.92445 61.89491 112.05437 61.90993 112.18427 61.92117 112.3142 61.92682 112.44412 61.93057H112.57402L112.70395 61.92682 112.83386 61.92117 112.96376 61.90993 113.09369 61.89491 113.22362 61.87988 113.35352 61.86113 113.48343 61.83673 113.61336 61.80858 113.74324 61.78043 113.87318 61.74664 114.00311 61.7091 114.13301 61.66783 114.26292 61.62654 114.39284 61.57774 114.52278 61.52519 114.6527 61.47078 114.7826 61.41072 114.91252 61.35066 115.04242 61.28311 115.17233 61.21368 115.30228 61.13861 115.43217 61.06166 115.5621 60.97908 115.692 60.89276 115.82191 60.80081 115.95186 60.70697 116.08176 60.60562 116.21167 60.50427 116.34158 60.3917 116.47151 60.27907 116.60141 60.15898 116.73134 60.03699 116.86127 59.90749 116.99117 59.77238 117.12108 59.63538 117.251 59.49088 117.38092 59.33699 117.51083 59.18121 117.64075 59.01794 117.77068 58.84906 117.90057 58.67076 118.03049 58.48685 118.16043 58.29918 118.29031 58.10214 118.42024 57.89757 118.55017 57.68362 118.68005 57.46217 118.81 57.23322 118.93991 56.99489 119.06982 56.74716 119.19975 56.49193 119.32965 56.22545 119.45956 55.9477 119.58948 55.65869 119.7194 55.36029 119.84933 55.04875 119.97923 54.7241 120.10915 54.39005 120.23907 54.03723 120.36899 53.67316 120.49892 53.29594 120.62881 52.89809 120.75873 52.48897 120.88863 52.06108 121.01857 51.61255 121.14848 51.14525 121.2784 50.6592 121.40833 50.14873 121.53821 49.61577 121.66815 49.0565 121.79808 48.47473 121.92798 47.86293 122.05789 47.2211 122.1878 46.55115 122.31772 45.84549 122.44765 45.10233 122.57756 44.32164 122.70749 43.4959 122.83737 42.62886 122.9673 41.71304 123.09724 40.74467 123.22713 39.71626 123.35706 38.62778 123.48697 37.47174 123.61688 36.24814 123.7468 34.93634 123.87672 33.54008 124.00664 32.04813 124.13654 30.44919 124.26646 28.73389 124.39638 26.88536 124.52629 24.88483 124.65622 22.7304 124.78613 20.37889 124.91605 17.82849 125.04596 15.03223 125.17587 11.97136 125.3058 8.59145 125.33554 7.73486"/>
<path transform="matrix(-.0346,.99937,.99937,.0346,114.87741,162.87628)" d="M2.8892 0-1.73352 2.31136 0 0-1.73352-2.31136" fill="#0000ff"/>
<path transform="matrix(.03467,.99937,.99937,-.03467,140.53055,162.86315)" d="M2.8892 0-1.73352 2.31136 0 0-1.73352-2.31136" fill="#0000ff"/>
<path transform="matrix(1,0,0,-1,15.195007,170.598)" stroke-width=".99628" stroke-linecap="butt" stroke-miterlimit="10" stroke-linejoin="miter" fill="none" stroke="#0000ff" d="M130.42984 153.67873 130.45967 152.81838 130.58962 149.43846 130.71952 146.37386 130.84943 143.57947 130.97934 141.01967 131.10927 138.67382 131.23917 136.5175 131.3691 134.51883 131.49903 132.66841 131.62892 130.95314 131.75884 129.35233 131.88877 127.86035 132.01868 126.46036 132.14859 125.1523 132.27852 123.92682 132.40842 122.76892 132.53833 121.68419 132.66826 120.65576 132.79817 119.68552 132.92809 118.77158 133.05802 117.90079 133.18791 117.07693 133.31783 116.29436 133.44776 115.55681 133.57769 114.84555 133.70758 114.1737 133.8375 113.53375 133.96743 112.92007 134.09732 112.34018 134.22725 111.78093 134.35718 111.24983 134.48708 110.73936 134.61699 110.25331 134.74692 109.78227 134.87683 109.33562 135.00675 108.90584 135.13666 108.49672 135.26657 108.10263 135.39649 107.72166 135.5264 107.35757 135.65633 107.00851 135.78624 106.67072 135.91616 106.34605 136.04608 106.03827 136.17598 105.73611 136.30591 105.45087 136.43582 105.17311 136.56574 104.90665 136.69565 104.64764 136.82558 104.4018 136.95548 104.16159 137.0854 103.93263 137.21532 103.71118 137.34523 103.49911 137.47515 103.29643 137.60506 103.09563 137.73499 102.90796 137.8649 102.72404 137.99481 102.54576 138.12473 102.37686 138.25464 102.2136 138.38455 102.05782 138.5145 101.90395 138.6444 101.75943 138.7743 101.62244 138.90422 101.48732 139.03414 101.35783 139.16407 101.23584 139.29398 101.11761 139.42389 101.00313 139.5538 100.89427 139.68372 100.78918 139.81363 100.68785 139.94356 100.59401 140.07347 100.50204 140.20339 100.41573 140.3333 100.33316 140.46321 100.25621 140.59313 100.18114 140.72306 100.11171 140.85297 100.04416 140.98288 99.98409 141.1128 99.92404 141.2427 99.86961 141.37264 99.81706 141.50255 99.76826 141.63246 99.72697 141.76238 99.6857 141.89229 99.64816 142.02222 99.6144 142.15213 99.58624 142.28205 99.55809 142.41196 99.53369 142.54187 99.51492 142.67179 99.49991 142.80171 99.48488 142.93163 99.47363 143.06153 99.468 143.19145 99.46426H143.32137L143.45131 99.468 143.58119 99.47363 143.71112 99.48488 143.84104 99.49991 143.97095 99.51492 144.10086 99.53369 144.23079 99.55809 144.3607 99.58624 144.4906 99.6144 144.62053 99.64816 144.75045 99.6857 144.88036 99.72697 145.01029 99.76826 145.14019 99.81706 145.27011 99.86961 145.40003 99.92404 145.52993 99.98409 145.65987 100.04416 145.78977 100.11171 145.9197 100.18114 146.0496 100.25621 146.1795 100.33316 146.30945 100.41573 146.43935 100.50204 146.56928 100.59401 146.6992 100.68785 146.82909 100.78918 146.95902 100.89053 147.08893 101.00313 147.21884 101.11574 147.34877 101.23584 147.47869 101.35783 147.60858 101.48732 147.73851 101.62244 147.86844 101.75943 147.99835 101.90395 148.12825 102.05782 148.25818 102.2136 148.38809 102.37686 148.518 102.54576 148.64794 102.72404 148.77785 102.90796 148.90776 103.09563 149.03766 103.29268 149.1676 103.49725 149.29752 103.71118 149.42742 103.93263 149.55735 104.16159 149.68724 104.39993 149.81717 104.64764 149.9471 104.9029 150.077 105.16936 150.20693 105.44711 150.33683 105.73611 150.46674 106.03452 150.59668 106.34605 150.72658 106.67072 150.8565 107.00478 150.9864 107.35757 151.11634 107.72166 151.24625 108.09888 151.37616 108.49672 151.50609 108.90584 151.63599 109.33372 151.7659 109.78227 151.89583 110.24956 152.02574 110.73561 152.15566 111.24608 152.28557 111.77904 152.4155 112.33832 152.54541 112.92007 152.67533 113.53188 152.80525 114.16995 152.93515 114.84367 153.06507 115.54932 153.19499 116.29248 153.3249 117.07318 153.45482 117.89893 153.58473 118.76595 153.71466 119.68176 153.84458 120.65015 153.97447 121.67856 154.10442 122.76703 154.2343 123.9212 154.36423 125.14668 154.49416 126.45471 154.62406 127.85286 154.75399 129.3467 154.8839 130.94562 155.01381 132.66092 155.14374 134.51322 155.27364 136.50626 155.40355 138.66443 155.53348 141.01029 155.66339 143.56633 155.79332 146.35883 155.92322 149.42346 156.05315 152.7996 156.08298 153.65995"/>
<path transform="matrix(-.03464,-.99937,-.99937,.03464,145.62485,16.919281)" d="M2.8892 0-1.73352 2.31136 0 0-1.73352-2.31136" fill="#0000ff"/>
<path transform="matrix(.03464,-.99937,-.99937,-.03464,171.27799,16.938065)" d="M2.8892 0-1.73352 2.31136 0 0-1.73352-2.31136" fill="#0000ff"/>
<use data-text="y" xlink:href="#font_5_3" transform="matrix(9.9626,0,0,-9.9626,175.197,16.541)" fill="#0000ff"/>
<use data-text="=" xlink:href="#font_4_7" transform="matrix(9.9626,0,0,-9.9626,183.207,16.541)" fill="#0000ff"/>
<use data-text="c" xlink:href="#font_4_8" transform="matrix(9.9626,0,0,-9.9626,193.7076,16.541)" fill="#0000ff"/>
<use data-text="s" xlink:href="#font_4_11" transform="matrix(9.9626,0,0,-9.9626,198.131,16.541)" fill="#0000ff"/>
<use data-text="c" xlink:href="#font_4_8" transform="matrix(9.9626,0,0,-9.9626,202.05626,16.541)" fill="#0000ff"/>
<use data-text="(" xlink:href="#font_4_1" transform="matrix(9.9626,0,0,-9.9626,206.47966,16.541)" fill="#0000ff"/>
<use data-text="x" xlink:href="#font_5_2" transform="matrix(9.9626,0,0,-9.9626,210.38301,16.541)" fill="#0000ff"/>
<use data-text=")" xlink:href="#font_4_2" transform="matrix(9.9626,0,0,-9.9626,216.076,16.541)" fill="#0000ff"/>
<path transform="matrix(1,0,0,-1,15.195007,170.598)" stroke-width=".99628" stroke-linecap="butt" stroke-miterlimit="10" stroke-linejoin="miter" fill="none" stroke="#0000ff" d="M161.17726 7.72173 161.20703 8.57643 161.33695 11.96198 161.46686 15.02097 161.59679 17.81909 161.72669 20.37328 161.85662 22.71912 161.98653 24.87732 162.11644 26.87598 162.24636 28.72264 162.37628 30.44168 162.5062 32.0425 162.63611 33.53633 162.76602 34.93446 162.89594 36.24251 163.02587 37.46799 163.15578 38.6259 163.28569 39.71063 163.4156 40.73904 163.54552 41.70929 163.67543 42.62325 163.80536 43.49402 163.93527 44.31789 164.06519 45.10046 164.19509 45.84175 164.32501 46.5455 164.45494 47.2211 164.58486 47.86107 164.71477 48.47473 164.84468 49.05463 164.9746 49.61388 165.1045 50.14497 165.23444 50.65544 165.36435 51.1415 165.49425 51.61255 165.62418 52.0592 165.75409 52.48897 165.884 52.89809 166.01393 53.29594 166.14385 53.67316 166.27375 54.03723 166.40367 54.3863 166.53359 54.7241 166.6635 55.04875 166.79343 55.35654 166.92334 55.65869 167.05326 55.94394 167.18315 56.2217 167.3131 56.48819 167.44301 56.74716 167.5729 56.99301 167.70284 57.23322 167.83275 57.46217 167.96265 57.68362 168.09259 57.89569 168.2225 58.09839 168.3524 58.29918 168.48233 58.48685 168.61225 58.67076 168.74216 58.84906 168.87209 59.01794 169.002 59.18121 169.1319 59.33699 169.26181 59.49088 169.39174 59.63538 169.52167 59.77238 169.65157 59.90749 169.7815 60.03699 169.9114 60.15898 170.0413 60.2772 170.17125 60.3917 170.30117 60.50053 170.43106 60.60562 170.56099 60.70697 170.6909 60.80081 170.8208 60.89276 170.95075 60.97908 171.08066 61.06166 171.21056 61.13861 171.34047 61.21368 171.4704 61.28311 171.60031 61.35066 171.73023 61.41072 171.86016 61.47078 171.99007 61.52519 172.11997 61.57774 172.2499 61.62279 172.37982 61.66783 172.50972 61.7091 172.63965 61.74664 172.76956 61.78043 172.89946 61.80858 173.02939 61.83673 173.15932 61.86113 173.28922 61.87988 173.41915 61.89491 173.54906 61.90993 173.67896 61.92117 173.80889 61.92682 173.93881 61.93057H174.06871L174.19864 61.92682 174.32854 61.92117 174.45848 61.90993 174.58838 61.89491 174.7183 61.87988 174.84822 61.86113 174.97812 61.83673 175.10805 61.80858 175.23796 61.78043 175.36788 61.74664 175.4978 61.7091 175.6277 61.66783 175.75762 61.62654 175.88755 61.57774 176.01747 61.52519 176.14737 61.47078 176.27729 61.41072 176.40721 61.35066 176.5371 61.28311 176.66704 61.21368 176.79697 61.13861 176.92688 61.06166 177.05678 60.97908 177.18669 60.89276 177.31664 60.80081 177.44655 60.70697 177.57645 60.60562 177.70638 60.50427 177.83626 60.3917 177.96619 60.27907 178.09613 60.15898 178.22603 60.03699 178.35594 59.90749 178.48586 59.77238 178.61577 59.63538 178.74571 59.49088 178.87561 59.33699 179.00553 59.18121 179.13542 59.01794 179.26535 58.84906 179.39528 58.67076 179.52519 58.48685 179.65512 58.29918 179.78502 58.10214 179.91493 57.89757 180.04486 57.68362 180.17478 57.46217 180.30469 57.23322 180.4346 56.99489 180.56453 56.74716 180.69443 56.49193 180.82434 56.22545 180.95429 55.9477 181.08417 55.65869 181.2141 55.36029 181.34403 55.04875 181.4739 54.7241 181.60385 54.39005 181.73377 54.03723 181.8637 53.67316 181.99359 53.29594 182.1235 52.89809 182.25344 52.48897 182.38333 52.06108 182.51326 51.61255 182.64319 51.14525 182.77307 50.6592 182.903 50.14873 183.03293 49.61577 183.16284 49.0565 183.29277 48.47473 183.42267 47.86293 183.55258 47.2211 183.68248 46.55115 183.81243 45.84549 183.94234 45.10233 184.07225 44.32164 184.20217 43.4959 184.33208 42.62886 184.462 41.70929 184.59194 40.7428 184.72183 39.71626 184.85175 38.62778 184.98165 37.47362 185.11157 36.24814 185.2415 34.9401 185.37142 33.54196 185.50135 32.05 185.63123 30.44919 185.76116 28.73389 185.8911 26.88536 186.02098 24.88483 186.15091 22.7304 186.28083 20.38452 186.41072 17.83037 186.54065 15.03223 186.67058 11.97136 186.8005 8.59145 186.83025 7.73486"/>
<path transform="matrix(-.03467,.99937,.99937,.03467,176.37229,162.87628)" d="M2.8892 0-1.73352 2.31136 0 0-1.73352-2.31136" fill="#0000ff"/>
<path transform="matrix(.03467,.99937,.99937,-.03467,202.02524,162.86315)" d="M2.8892 0-1.73352 2.31136 0 0-1.73352-2.31136" fill="#0000ff"/>
<path transform="matrix(1,0,0,-1,15.195007,170.598)" stroke-width=".3985" stroke-linecap="butt" stroke-dasharray="2.98883,2.98883" stroke-miterlimit="10" stroke-linejoin="miter" fill="none" stroke="#ff0000" d="M4.89359 1.87668V159.51816"/>
<use data-text="x" xlink:href="#font_5_2" transform="matrix(9.9626,0,0,-9.9626,1.2160034,178.662)" fill="#ff0000"/>
<use data-text="=" xlink:href="#font_4_7" transform="matrix(9.9626,0,0,-9.9626,9.678001,178.662)" fill="#ff0000"/>
<use data-text="&#x2212;" xlink:href="#font_1_1" transform="matrix(9.9626,0,0,-9.9626,20.194,178.662)" fill="#ff0000"/>
<use data-text="2" xlink:href="#font_4_4" transform="matrix(9.9626,0,0,-9.9626,27.942994,178.662)" fill="#ff0000"/>
<use data-text="&#x03c0;" xlink:href="#font_5_1" transform="matrix(9.9626,0,0,-9.9626,32.923997,178.662)" fill="#ff0000"/>
<path transform="matrix(1,0,0,-1,15.195007,170.598)" stroke-width=".3985" stroke-linecap="butt" stroke-dasharray="2.98883,2.98883" stroke-miterlimit="10" stroke-linejoin="miter" fill="none" stroke="#ff0000" d="M35.64093 1.87668V159.51816"/>
<use data-text="x" xlink:href="#font_5_2" transform="matrix(9.9626,0,0,-9.9626,34.45401,6.730011)" fill="#ff0000"/>
<use data-text="=" xlink:href="#font_4_7" transform="matrix(9.9626,0,0,-9.9626,42.916009,6.730011)" fill="#ff0000"/>
<use data-text="&#x2212;" xlink:href="#font_1_1" transform="matrix(9.9626,0,0,-9.9626,53.432008,6.730011)" fill="#ff0000"/>
<use data-text="&#x03c0;" xlink:href="#font_5_1" transform="matrix(9.9626,0,0,-9.9626,61.181,6.730011)" fill="#ff0000"/>
<path transform="matrix(1,0,0,-1,15.195007,170.598)" stroke-width=".3985" stroke-linecap="butt" stroke-dasharray="2.98883,2.98883" stroke-miterlimit="10" stroke-linejoin="miter" fill="none" stroke="#ff0000" d="M66.38828 1.87668V159.51816"/>
<use data-text="x" xlink:href="#font_5_2" transform="matrix(9.9626,0,0,-9.9626,69.604007,178.662)" fill="#ff0000"/>
<use data-text="=" xlink:href="#font_4_7" transform="matrix(9.9626,0,0,-9.9626,78.06601,178.662)" fill="#ff0000"/>
<use data-text="0" xlink:href="#font_4_3" transform="matrix(9.9626,0,0,-9.9626,88.56659,178.662)" fill="#ff0000"/>
<path transform="matrix(1,0,0,-1,15.195007,170.598)" stroke-width=".3985" stroke-linecap="butt" stroke-dasharray="2.98883,2.98883" stroke-miterlimit="10" stroke-linejoin="miter" fill="none" stroke="#ff0000" d="M97.13562 1.87668V159.51816"/>
<use data-text="x" xlink:href="#font_5_2" transform="matrix(9.9626,0,0,-9.9626,99.824008,7.560013)" fill="#ff0000"/>
<use data-text="=" xlink:href="#font_4_7" transform="matrix(9.9626,0,0,-9.9626,108.286,7.560013)" fill="#ff0000"/>
<use data-text="&#x03c0;" xlink:href="#font_5_1" transform="matrix(9.9626,0,0,-9.9626,118.802,7.560013)" fill="#ff0000"/>
<path transform="matrix(1,0,0,-1,15.195007,170.598)" stroke-width=".3985" stroke-linecap="butt" stroke-dasharray="2.98883,2.98883" stroke-miterlimit="10" stroke-linejoin="miter" fill="none" stroke="#ff0000" d="M127.88297 1.87668V159.51816"/>
<use data-text="x" xlink:href="#font_5_2" transform="matrix(9.9626,0,0,-9.9626,128.08002,178.662)" fill="#ff0000"/>
<use data-text="=" xlink:href="#font_4_7" transform="matrix(9.9626,0,0,-9.9626,136.542,178.662)" fill="#ff0000"/>
<use data-text="2" xlink:href="#font_4_4" transform="matrix(9.9626,0,0,-9.9626,147.0426,178.662)" fill="#ff0000"/>
<use data-text="&#x03c0;" xlink:href="#font_5_1" transform="matrix(9.9626,0,0,-9.9626,152.039,178.662)" fill="#ff0000"/>
<path transform="matrix(1,0,0,-1,15.195007,170.598)" stroke-width=".3985" stroke-linecap="butt" stroke-dasharray="2.98883,2.98883" stroke-miterlimit="10" stroke-linejoin="miter" fill="none" stroke="#ff0000" d="M158.63033 1.87668V159.51816"/>
<use data-text="x" xlink:href="#font_5_2" transform="matrix(9.9626,0,0,-9.9626,158.828,7.560013)" fill="#ff0000"/>
<use data-text="=" xlink:href="#font_4_7" transform="matrix(9.9626,0,0,-9.9626,167.29001,7.560013)" fill="#ff0000"/>
<use data-text="3" xlink:href="#font_4_5" transform="matrix(9.9626,0,0,-9.9626,177.79059,7.560013)" fill="#ff0000"/>
<use data-text="&#x03c0;" xlink:href="#font_5_1" transform="matrix(9.9626,0,0,-9.9626,182.787,7.560013)" fill="#ff0000"/>
<path transform="matrix(1,0,0,-1,15.195007,170.598)" stroke-width=".3985" stroke-linecap="butt" stroke-dasharray="2.98883,2.98883" stroke-miterlimit="10" stroke-linejoin="miter" fill="none" stroke="#ff0000" d="M189.37767 1.87668V159.51816"/>
<use data-text="x" xlink:href="#font_5_2" transform="matrix(9.9626,0,0,-9.9626,189.57501,178.662)" fill="#ff0000"/>
<use data-text="=" xlink:href="#font_4_7" transform="matrix(9.9626,0,0,-9.9626,198.03702,178.662)" fill="#ff0000"/>
<use data-text="4" xlink:href="#font_4_6" transform="matrix(9.9626,0,0,-9.9626,208.5376,178.662)" fill="#ff0000"/>
<use data-text="&#x03c0;" xlink:href="#font_5_1" transform="matrix(9.9626,0,0,-9.9626,213.53401,178.662)" fill="#ff0000"/>
<use data-text="x" xlink:href="#font_5_2" transform="matrix(9.9626,0,0,-9.9626,200.25202,86.381008)"/>
<use data-text="y" xlink:href="#font_5_3" transform="matrix(9.9626,0,0,-9.9626,85.103008,17.012009)"/>
</svg>
