<svg xmlns="http://www.w3.org/2000/svg" xmlns:xlink="http://www.w3.org/1999/xlink" version="1.1" width="197" height="171" viewBox="0 0 197 171">
<defs>
<path id="font_1_1" d="M.6589966 .23046875C.6759949 .23046875 .69400027 .23046875 .69400027 .25045777 .69400027 .27046205 .6759949 .27046205 .6589966 .27046205H.117996219C.100997928 .27046205 .08299255 .27046205 .08299255 .25045777 .08299255 .23046875 .100997928 .23046875 .117996219 .23046875H.6589966Z"/>
<path id="font_2_5" d="M.13198853 .327713V.35173036C.13198853 .6047821 .2559967 .64100649 .30699159 .64100649 .33099366 .64100649 .37298585 .634964 .394989 .6007538 .37998963 .6007538 .33999635 .6007538 .33999635 .5557556 .33999635 .524765 .3639984 .5097656 .38598634 .5097656 .4019928 .5097656 .43199159 .51875308 .43199159 .5577545 .43199159 .6178589 .3880005 .6660156 .30499269 .6660156 .1769867 .6660156 .041992189 .5367584 .041992189 .31570436 .041992189 .048553468 .1579895-.022460938 .25099183-.022460938 .3619995-.022460938 .45700074 .07156372 .45700074 .2036438 .45700074 .33070375 .36799623 .4267578 .25698854 .4267578 .18899536 .4267578 .1519928 .37573243 .13198853 .327713M.25099183 .0055389406C.18798828 .0055389406 .1579895 .06556702 .1519928 .080566409 .13398743 .127594 .13398743 .2076416 .13398743 .22564698 .13398743 .30369569 .1659851 .40374757 .2559967 .40374757 .27198792 .40374757 .31799317 .40374757 .34899903 .34172059 .36698915 .30470277 .36698915 .2536621 .36698915 .20463562 .36698915 .15661621 .36698915 .10658264 .34999085 .0705719 .31999208 .010528564 .27398683 .0055389406 .25099183 .0055389406Z"/>
<path id="font_2_3" d="M.2899933 .35191346C.37199403 .37893678 .42999269 .4490509 .42999269 .52809146 .42999269 .6100464 .34199525 .6660156 .24598694 .6660156 .14498902 .6660156 .068984989 .60606387 .068984989 .53009036 .068984989 .49710084 .09098816 .47808839 .11999512 .47808839 .15098572 .47808839 .17098999 .50009158 .17098999 .5290985 .17098999 .57910159 .12399292 .57910159 .10899353 .57910159 .13999939 .62802127 .20599365 .64100649 .24198914 .64100649 .2829895 .64100649 .33799745 .6190338 .33799745 .5290985 .33799745 .51708987 .33599855 .45906068 .30999757 .4149933 .27999879 .36691285 .24598694 .36390687 .22099304 .36291505 .21299744 .36190797 .18899536 .35990907 .18199158 .35990907 .17399597 .35890199 .16699219 .35791017 .16699219 .3479004 .16699219 .33691407 .17399597 .33691407 .19099427 .33691407H.23498535C.31698609 .33691407 .35398866 .2686615 .35398866 .17037964 .35398866 .034469606 .2849884 .0055389406 .24099732 .0055389406 .19799805 .0055389406 .12298584 .022491456 .08799744 .08137512 .12298584 .07637024 .1539917 .09837341 .1539917 .1363678 .1539917 .17237854 .1269989 .19238281 .09799194 .19238281 .07398987 .19238281 .041992189 .17837525 .041992189 .1343689 .041992189 .043441774 .1349945-.022460938 .24398804-.022460938 .3659973-.022460938 .45700074 .06838989 .45700074 .17037964 .45700074 .252594 .3939972 .33088685 .2899933 .35191346Z"/>
<path id="font_2_2" d="M.2939911 .64004519C.2939911 .66400149 .2939911 .6660156 .2709961 .6660156 .20899964 .60227969 .12098694 .60227969 .08898926 .60227969V.57128909C.10899353 .57128909 .16799927 .57128909 .21998596 .5972748V.07902527C.21998596 .042999269 .21699524 .0309906 .1269989 .0309906H.09498596V0C.12998963 .0029907227 .21699524 .0029907227 .25698854 .0029907227 .29699708 .0029907227 .38398744 .0029907227 .4189911 0V.0309906H.3869934C.29699708 .0309906 .2939911 .041992189 .2939911 .07902527V.64004519Z"/>
<path id="font_2_1" d="M.45999146 .31976319C.45999146 .39982606 .45498658 .47988893 .41999818 .5539398 .37399293 .65000918 .2919922 .6660156 .25 .6660156 .18998719 .6660156 .116989139 .64001467 .07598877 .54693606 .04399109 .47789 .038986207 .39982606 .038986207 .31976319 .038986207 .24472046 .042999269 .15464783 .083999637 .07859802 .1269989-.0024719239 .19999695-.022460938 .24899292-.022460938 .30299378-.022460938 .3789978-.0014648438 .4229889 .09359741 .45498658 .16265869 .45999146 .2407074 .45999146 .31976319M.24899292-.00047302247C.20999146-.00047302247 .15098572 .024551392 .1329956 .12062073 .12199402 .18066406 .12199402 .2727356 .12199402 .3317871 .12199402 .39582826 .12199402 .46188355 .12998963 .5159149 .14898682 .63500979 .22399903 .64401248 .24899292 .64401248 .28199769 .64401248 .34799195 .6259918 .36698915 .52693179 .3769989 .47088624 .3769989 .39482118 .3769989 .3317871 .3769989 .25672914 .3769989 .18867493 .3659973 .12461853 .35099793 .029556275 .2939911-.00047302247 .24899292-.00047302247Z"/>
<path id="font_2_4" d="M.44898988 .20022583C.44898988 .3193512 .36698915 .41944886 .25898744 .41944886 .21099854 .41944886 .16799927 .40345765 .13198853 .36842347V.5637665C.1519928 .5577698 .18499756 .55078127 .21699524 .55078127 .33999635 .55078127 .4099884 .6417694 .4099884 .6547699 .4099884 .6607666 .40699769 .6657715 .3999939 .6657715 .39898683 .6657715 .39698792 .6657715 .3919983 .66278079 .37199403 .6537781 .32299806 .6337738 .2559967 .6337738 .21598816 .6337738 .16999817 .6407776 .12298584 .6617737 .114990238 .66477969 .11299133 .66477969 .11099243 .66477969 .100997928 .66477969 .100997928 .6567688 .100997928 .6407776V.34439088C.100997928 .32637025 .100997928 .31835938 .114990238 .31835938 .12199402 .31835938 .12399292 .32136537 .12799073 .32736207 .13899231 .3433838 .17599488 .39746095 .25698854 .39746095 .30899049 .39746095 .33399964 .35139466 .34199525 .33337403 .35798646 .29632569 .3600006 .25727845 .3600006 .20722962 .3600006 .17222595 .3600006 .11222839 .33599855 .07035828 .31199647 .031463624 .2749939 .0055389406 .22898865 .0055389406 .1559906 .0055389406 .09899902 .058380128 .08198547 .11723328 .084991458 .1162262 .08799744 .115234378 .09899902 .115234378 .13198853 .115234378 .14898682 .14022827 .14898682 .16423035 .14898682 .18823242 .13198853 .21322632 .09899902 .21322632 .084991458 .21322632 .049987794 .20622254 .049987794 .16023255 .049987794 .07434082 .11898804-.022460938 .23098755-.022460938 .34700013-.022460938 .44898988 .073349 .44898988 .20022583Z"/>
<path id="font_3_1" d="M.33399964 .30233766C.33999635 .32835389 .36299134 .42037965 .43299867 .42037965 .43798829 .42037965 .46199037 .42037965 .48298646 .40734864 .45498658 .402359 .43499757 .37734986 .43499757 .35334779 .43499757 .33735658 .44599916 .31835938 .47299195 .31835938 .49499513 .31835938 .5269928 .3363495 .5269928 .37635804 .5269928 .42837525 .46798707 .4423828 .43399049 .4423828 .37599183 .4423828 .34098817 .38935853 .32899476 .36634828 .3039856 .43237306 .25 .4423828 .22099304 .4423828 .116989139 .4423828 .05999756 .3133545 .05999756 .28834535 .05999756 .27833558 .069992069 .27833558 .07199097 .27833558 .07998657 .27833558 .08299255 .28033448 .084991458 .28933717 .11898804 .39535523 .18499756 .42037965 .21899414 .42037965 .23799134 .42037965 .272995 .4113617 .272995 .35334779 .272995 .32235719 .2559967 .25532533 .21899414 .11528015 .20298767 .053268434 .16799927 .011245728 .12399292 .011245728 .117996219 .011245728 .09498596 .011245728 .07398987 .024276734 .09899902 .029266358 .12098694 .05027771 .12098694 .07827759 .12098694 .105270389 .09899902 .11328125 .083999637 .11328125 .053985597 .11328125 .0289917 .08728027 .0289917 .055267335 .0289917 .009246826 .07899475-.0107421879 .12298584-.0107421879 .18899536-.0107421879 .22499085 .059280397 .22799683 .0652771 .23999024 .028274537 .27598573-.0107421879 .33599855-.0107421879 .43899537-.0107421879 .49598695 .118270877 .49598695 .14328003 .49598695 .1532898 .4869995 .1532898 .48399354 .1532898 .47499085 .1532898 .47299195 .14929199 .47099305 .14228821 .43798829 .03527832 .36999513 .011245728 .33799745 .011245728 .29899598 .011245728 .2829895 .043273927 .2829895 .07727051 .2829895 .09927368 .2889862 .121276859 .2999878 .16529846L.33399964 .30233766Z"/>
<path id="font_3_2" d="M.48599244 .38136292C.48999024 .39537049 .48999024 .39736939 .48999024 .40437318 .48999024 .42237855 .47599793 .43138124 .46099855 .43138124 .45098878 .43138124 .43499757 .42536927 .42599488 .41036988 .42399598 .405365 .41600038 .37435914 .4119873 .35635377 .40499879 .33035279 .397995 .30334474 .3919983 .27633668L.34700013 .09628296C.34298707 .08126831 .2999878 .011245728 .23399353 .011245728 .18299866 .011245728 .17199707 .055267335 .17199707 .0922699 .17199707 .1382904 .18899536 .20030213 .22299195 .28833009 .23899842 .3293457 .24299622 .3403473 .24299622 .36035157 .24299622 .405365 .21099854 .4423828 .16099549 .4423828 .06599426 .4423828 .0289917 .29733277 .0289917 .28833009 .0289917 .27833558 .038986207 .27833558 .040985109 .27833558 .050994874 .27833558 .051986696 .28033448 .056991579 .29634095 .083999637 .3903656 .12399292 .42037965 .1579895 .42037965 .1659851 .42037965 .18299866 .42037965 .18299866 .3883667 .18299866 .36335755 .17298889 .3373413 .1659851 .31834413 .12599182 .21231079 .10798645 .1552887 .10798645 .10827637 .10798645 .019256592 .17098999-.0107421879 .22999573-.0107421879 .2689972-.0107421879 .30299378 .0062561037 .33099366 .03425598 .31799317-.017745972 .30599977-.06674194 .2659912-.11973572 .23999024-.15385437 .20199585-.18309021 .1559906-.18309021 .14199829-.18309021 .09700012-.18005371 .07998657-.14074707 .09599304-.14074707 .10899353-.14074707 .12298584-.1287384 .1329956-.11973572 .14299011-.10673523 .14299011-.08773804 .14299011-.056747438 .115997318-.052734376 .10598755-.052734376 .08299255-.052734376 .049987794-.068740848 .049987794-.11773682 .049987794-.16796875 .09399414-.20507813 .1559906-.20507813 .25898744-.20507813 .3619995-.11373901 .3899994-.00074768069L.48599244 .38136292Z"/>
</defs>
<path transform="matrix(1.00002,0,0,-1.00006,1.75074,166.5352)" stroke-width=".19925" stroke-linecap="butt" stroke-miterlimit="10" stroke-linejoin="miter" fill="none" stroke="#929292" d="M5.83096 79.28079V82.11555M21.04816 79.28079V82.11555M36.26534 79.28079V82.11555M51.48251 79.28079V82.11555M66.69969 79.28079V82.11555M81.91687 79.28079V82.11555M97.13405 79.28079V82.11555M112.35123 79.28079V82.11555M127.5684 79.28079V82.11555M142.7856 79.28079V82.11555M158.00278 79.28079V82.11555M173.21996 79.28079V82.11555M188.43714 79.28079V82.11555"/>
<path transform="matrix(1.00002,0,0,-1.00006,1.75074,166.5352)" stroke-width=".19925" stroke-linecap="butt" stroke-miterlimit="10" stroke-linejoin="miter" fill="none" stroke="#929292" d="M5.83096 78.5723V82.82404M51.48251 78.5723V82.82404M142.7856 78.5723V82.82404M188.43714 78.5723V82.82404"/>
<path transform="matrix(1.00002,0,0,-1.00006,1.75074,166.5352)" stroke-width=".19925" stroke-linecap="butt" stroke-miterlimit="10" stroke-linejoin="miter" fill="none" stroke="#929292" d="M95.00812 0H99.26001M95.00812 40.34909H99.26001M95.00812 121.04727H99.26001M95.00812 161.39636H99.26001"/>
<path transform="matrix(1.00002,0,0,-1.00006,1.75074,166.5352)" stroke-width=".3985" stroke-linecap="butt" stroke-miterlimit="10" stroke-linejoin="miter" fill="none" stroke="#000000" d="M0 80.69818H192.2756"/>
<path transform="matrix(1.00002,0,0,-1.00006,194.03018,85.832187)" d="M1.99252 0-1.19551 1.59401 0 0-1.19551-1.59401"/>
<path transform="matrix(1.00002,0,0,-1.00006,1.75074,166.5352)" stroke-width=".3985" stroke-linecap="butt" stroke-miterlimit="10" stroke-linejoin="miter" fill="none" stroke="#000000" d="M97.13405 0V159.40384"/>
<path transform="matrix(0,-1.00006,-1.00002,-0,98.886737,7.121811)" d="M1.99252 0-1.19551 1.59401 0 0-1.19551-1.59401"/>
<use data-text="&#x2212;" xlink:href="#font_1_1" transform="matrix(9.962799,0,0,-9.963197,1.2167282,97.899089)"/>
<use data-text="6" xlink:href="#font_2_5" transform="matrix(9.962799,0,0,-9.963197,8.965881,97.899089)"/>
<use data-text="&#x2212;" xlink:href="#font_1_1" transform="matrix(9.962799,0,0,-9.963197,46.868646,97.899089)"/>
<use data-text="3" xlink:href="#font_2_3" transform="matrix(9.962799,0,0,-9.963197,54.617799,97.899089)"/>
<use data-text="3" xlink:href="#font_2_3" transform="matrix(9.962799,0,0,-9.963197,142.04856,97.899089)"/>
<use data-text="6" xlink:href="#font_2_5" transform="matrix(9.962799,0,0,-9.963197,187.70047,97.899089)"/>
<use data-text="&#x2212;" xlink:href="#font_1_1" transform="matrix(9.962799,0,0,-9.963197,75.52922,169.33037)"/>
<use data-text="1" xlink:href="#font_2_2" transform="matrix(9.962799,0,0,-9.963197,83.27837,169.33037)"/>
<use data-text="0" xlink:href="#font_2_1" transform="matrix(9.962799,0,0,-9.963197,88.25977,169.33037)"/>
<use data-text="&#x2212;" xlink:href="#font_1_1" transform="matrix(9.962799,0,0,-9.963197,80.51032,128.97895)"/>
<use data-text="5" xlink:href="#font_2_4" transform="matrix(9.962799,0,0,-9.963197,88.259479,128.97895)"/>
<use data-text="5" xlink:href="#font_2_4" transform="matrix(9.962799,0,0,-9.963197,88.259479,48.69114)"/>
<use data-text="1" xlink:href="#font_2_2" transform="matrix(9.962799,0,0,-9.963197,83.277378,8.339706)"/>
<use data-text="0" xlink:href="#font_2_1" transform="matrix(9.962799,0,0,-9.963197,88.25877,8.339706)"/>
<path transform="matrix(1.00002,0,0,-1.00006,1.75074,166.5352)" stroke-width=".99628" stroke-linecap="butt" stroke-miterlimit="10" stroke-linejoin="miter" fill="none" stroke="#0000ff" d="M8.87341 3.20044 9.18213 10.57387 9.61157 18.50407 10.041 24.80579 10.47044 29.9382 10.89989 34.19989 11.32935 37.7966 11.75879 40.86232 12.18822 43.51648 12.61766 45.82607 13.04712 47.8637 13.47656 49.67133 13.906 51.27885 14.33545 52.72415 14.76488 54.03064 15.19434 55.2153 15.62378 56.29181 16.05322 57.27632 16.48267 58.18013 16.91211 59.01297 17.34155 59.78119 17.771 60.49297 18.20044 61.15387 18.62988 61.7688 19.05934 62.34256 19.48877 62.87921 19.91821 63.38034 20.34766 63.85081 20.7771 64.29224 21.20656 64.71024 21.636 65.10162 22.06543 65.47282 22.49487 65.82307 22.92432 66.15312 23.35378 66.46704 23.78322 66.76563 24.21266 67.04727 24.64209 67.316 25.07155 67.571 25.50099 67.8131 25.93044 68.04471 26.35988 68.265 26.7893 68.47562 27.21877 68.67656 27.64821 68.86862 28.07765 69.051 28.5071 69.22693 28.93655 69.39397 29.36598 69.55455 29.79543 69.70708 30.22487 69.85475 30.65431 69.99516 31.08377 70.13074 31.51321 70.25986 31.94264 70.38333 32.37209 70.50276 32.80154 70.61574 33.23099 70.72548 33.66043 70.8304 34.08986 70.93127 34.5193 71.0273 34.94876 71.11931 35.3782 71.20807 35.80765 71.2928 36.23709 71.3743 36.66652 71.4534 37.09598 71.52682 37.52542 71.59863 37.95486 71.66724 38.38431 71.73259 38.81375 71.79555 39.2432 71.85606 39.67264 71.91255 40.10208 71.96661 40.53152 72.01988 40.96098 72.06912 41.39041 72.1159 41.81985 72.1611 42.2493 72.20308 42.67874 72.24261 43.1082 72.28053 43.53764 72.31604 43.96707 72.35075 44.39651 72.38303 44.82596 72.41127 45.25542 72.43951 45.68486 72.46373 46.1143 72.48874 46.54373 72.50972 46.97319 72.5307 47.40263 72.54765 47.83208 72.5638 48.26152 72.57831 48.69096 72.5896 49.1204 72.60092 49.54985 72.61058 49.9793 72.61786 50.40874 72.6227 50.83818 72.62672 51.26762 72.62836H51.69707L52.12654 72.62672 52.55594 72.6227 52.98541 72.61786 53.41483 72.61058 53.84428 72.60092 54.27376 72.5896 54.70316 72.57831 55.13263 72.5638 55.56204 72.54765 55.99152 72.5307 56.42097 72.50972 56.85037 72.48874 57.27985 72.46373 57.70926 72.43951 58.13873 72.41127 58.56819 72.38303 58.9976 72.35075 59.42708 72.31604 59.85648 72.28053 60.28595 72.24261 60.71542 72.20308 61.14482 72.1611 61.5743 72.1159 62.0037 72.06912 62.43317 72.01988 62.86264 71.96661 63.29205 71.91255 63.72151 71.85606 64.15091 71.79555 64.58038 71.73259 65.00986 71.66724 65.43927 71.59863 65.86873 71.52682 66.29813 71.45177 66.7276 71.3743 67.15707 71.2928 67.58649 71.20807 68.01596 71.11931 68.44534 71.0273 68.87482 70.93127 69.30429 70.8304 69.7337 70.72548 70.16318 70.61574 70.59259 70.50114 71.02203 70.38333 71.4515 70.25905 71.88092 70.12912 72.3104 69.99516 72.7398 69.85475 73.16927 69.70708 73.59872 69.55455 74.02814 69.39316 74.45761 69.22531 74.88702 69.051 75.3165 68.86781 75.74594 68.67494 76.17535 68.47562 76.60483 68.26419 77.03424 68.04388 77.46371 67.8131 77.89319 67.571 78.32257 67.31436 78.75204 67.04645 79.18146 66.764 79.61093 66.46623 80.0404 66.15233 80.46979 65.82227 80.89926 65.47122 81.32867 65.10162 81.75815 64.70782 82.18762 64.29143 82.61702 63.8492 83.04648 63.37953 83.47589 62.87677 83.90536 62.34094 84.33484 61.76718 84.76424 61.15146 85.19371 60.49054 85.62311 59.77878 86.05258 59.01053 86.48206 58.17772 86.91145 57.27391 87.34093 56.2894 87.77034 55.21045 88.1998 54.02742 88.62927 52.72171 89.05869 51.2756 89.48816 49.66568 89.91756 47.85803 90.34702 45.82121 90.77649 43.51003 91.2059 40.85748 91.63536 37.78772 92.06477 34.1918 92.49425 29.92772 92.9237 24.79451 93.35312 18.48471 93.7826 10.55048 94.09132 3.17621"/>
<path transform="matrix(-.041800839,.9991299,.99909,.041802508,10.624348,163.33457)" d="M2.8892 0-1.73352 2.31136 0 0-1.73352-2.31136" fill="#0000ff"/>
<path transform="matrix(.04176084,.9991299,.99909,-.041762506,95.84394,163.3588)" d="M2.8892 0-1.73352 2.31136 0 0-1.73352-2.31136" fill="#0000ff"/>
<path transform="matrix(1.00002,0,0,-1.00006,1.75074,166.5352)" stroke-width=".99628" stroke-linecap="butt" stroke-miterlimit="10" stroke-linejoin="miter" fill="none" stroke="#0000ff" d="M100.17627 158.23546 100.4852 150.84587 100.91464 142.92615 101.34409 136.60909 101.77353 131.47106 102.20299 127.20615 102.63243 123.61104 103.06186 120.53885 103.4913 117.89035 103.92075 115.57593 104.3502 113.5383 104.77965 111.73227 105.20909 110.12152 105.63852 108.67622 106.06798 107.37053 106.49742 106.1875 106.92686 105.10695 107.35631 104.12242 107.78574 103.21942 108.2152 102.3858 108.64464 101.61755 109.07408 100.90579 109.50352 100.24487 109.93297 99.62996 110.36241 99.057 110.79185 98.51956 111.2213 98.01842 111.65074 97.54713 112.08018 97.1049 112.50964 96.6885 112.93907 96.29471 113.36852 95.92511 113.79796 95.57407 114.2274 95.244 114.65686 94.9301 115.0863 94.63232 115.51573 94.34988 115.94518 94.08197 116.37463 93.82535 116.80408 93.58406 117.23352 93.35245 117.66295 93.13214 118.09239 92.92152 118.52185 92.72139 118.9513 92.52852 119.38074 92.34534 119.81018 92.17102 120.23962 92.00317 120.66907 91.84258 121.09851 91.68925 121.52795 91.54239 121.9574 91.40117 122.38686 91.26721 122.81628 91.13728 123.24573 91.013 123.67517 90.89519 124.10463 90.7806 124.53407 90.67085 124.9635 90.56593 125.39294 90.46667 125.82239 90.36903 126.25185 90.27704 126.68129 90.18826 127.11073 90.10353 127.54016 90.02203 127.9696 89.94456 128.39907 89.8695 128.8285 89.7977 129.25795 89.7291 129.6874 89.66374 130.11682 89.60078 130.54628 89.54027 130.97573 89.48378 131.40517 89.42972 131.83461 89.37807 132.26406 89.32721 132.6935 89.28043 133.12294 89.23523 133.55239 89.19325 133.98183 89.15372 134.41129 89.1158 134.84072 89.08029 135.27016 89.04558 135.6996 89.0133 136.12905 88.98506 136.5585 88.95682 136.98795 88.9326 137.41738 88.9076 137.84682 88.88661 138.27628 88.86725 138.70572 88.84868 139.13516 88.83253 139.56459 88.81802 139.99404 88.80673 140.4235 88.79541 140.85294 88.78575 141.28238 88.77849 141.71183 88.77364 142.14125 88.7696 142.57071 88.76799H143.00016L143.42963 88.7696 143.85903 88.77364 144.2885 88.77849 144.7179 88.78575 145.14737 88.79541 145.57685 88.80511 146.00624 88.81802 146.43572 88.83253 146.86511 88.84868 147.29459 88.86563 147.72406 88.88661 148.15346 88.9076 148.58293 88.9326 149.01235 88.95682 149.4418 88.98425 149.87128 89.0133 150.30069 89.04558 150.73017 89.08029 151.15956 89.1158 151.58904 89.15292 152.0185 89.19325 152.4479 89.23523 152.87738 89.28043 153.30678 89.32721 153.73625 89.37645 154.16571 89.42972 154.59513 89.48378 155.0246 89.54027 155.454 89.60078 155.88347 89.66374 156.31295 89.7291 156.74234 89.7977 157.17182 89.8695 157.60121 89.94293 158.03069 90.02203 158.46016 90.10353 158.88957 90.18826 159.31903 90.27704 159.74843 90.36903 160.1779 90.46507 160.60738 90.56593 161.03679 90.67085 161.46627 90.77899 161.89566 90.89359 162.32512 91.013 162.7546 91.13647 163.184 91.2656 163.61348 91.40117 164.04288 91.54158 164.47235 91.68925 164.90181 91.84178 165.33123 92.00237 165.7607 92.1694 166.19011 92.34453 166.61957 92.52771 167.04903 92.71977 167.47844 92.92072 167.90792 93.13135 168.33733 93.35164 168.7668 93.58324 169.19626 93.82535 169.62566 94.08034 170.05513 94.34906 170.48455 94.6307 170.91402 94.92929 171.34348 95.24321 171.77288 95.57326 172.20235 95.92268 172.63176 96.29471 173.06124 96.6861 173.4907 97.10411 173.92009 97.54552 174.34957 98.01599 174.77898 98.51712 175.20845 99.05296 175.63793 99.62755 176.06732 100.24246 176.49678 100.90337 176.9262 101.61514 177.35567 102.38338 177.78514 103.21457 178.21454 104.11841 178.644 105.10452 179.07341 106.18105 179.50289 107.36569 179.93236 108.66815 180.36177 110.11426 180.79125 111.725 181.22063 113.53023 181.6501 115.56786 182.07958 117.87906 182.50899 120.53079 182.93845 123.59732 183.36786 127.19081 183.79732 131.45247 184.22679 136.58329 184.6562 142.88822 185.08568 150.81037 185.39441 158.18865"/>
<path transform="matrix(-.041720835,-.9991299,-.99909,.041722504,101.929019,8.290253)" d="M2.8892 0-1.73352 2.31136 0 0-1.73352-2.31136" fill="#0000ff"/>
<path transform="matrix(.04176084,-.9991299,-.99909,-.041762506,187.14887,8.337067)" d="M2.8892 0-1.73352 2.31136 0 0-1.73352-2.31136" fill="#0000ff"/>
<path transform="matrix(1.00002,0,0,-1.00006,1.75074,166.5352)" stroke-width=".3985" stroke-linecap="butt" stroke-dasharray="2.98883,2.98883" stroke-miterlimit="10" stroke-linejoin="miter" fill="none" stroke="#ff0000" d="M5.83096 0V161.39636"/>
<path transform="matrix(1.00002,0,0,-1.00006,1.75074,166.5352)" stroke-width=".3985" stroke-linecap="butt" stroke-dasharray="2.98883,2.98883" stroke-miterlimit="10" stroke-linejoin="miter" fill="none" stroke="#ff0000" d="M97.13405 0V161.39636"/>
<path transform="matrix(1.00002,0,0,-1.00006,1.75074,166.5352)" stroke-width=".3985" stroke-linecap="butt" stroke-dasharray="2.98883,2.98883" stroke-miterlimit="10" stroke-linejoin="miter" fill="none" stroke="#ff0000" d="M188.43714 0V161.39636"/>
<use data-text="x" xlink:href="#font_3_1" transform="matrix(9.962799,0,0,-9.963197,186.80844,82.31215)"/>
<use data-text="y" xlink:href="#font_3_2" transform="matrix(9.962799,0,0,-9.963197,102.40675,12.93898)"/>
</svg>
