<svg xmlns="http://www.w3.org/2000/svg" xmlns:xlink="http://www.w3.org/1999/xlink" version="1.1" width="217" height="181" viewBox="0 0 217 181">
<defs>
<path id="font_1_3" d="M.1269989 .07699585 .23298645 .18003845C.3889923 .31811524 .44898988 .3721466 .44898988 .47216798 .44898988 .5860901 .35899354 .6660156 .23699951 .6660156 .12399292 .6660156 .049987794 .57411196 .049987794 .48516847 .049987794 .4291687 .099990848 .4291687 .102996829 .4291687 .11999512 .4291687 .15499878 .44117738 .15499878 .48217774 .15499878 .5081787 .13699341 .5341797 .101989749 .5341797 .09399414 .5341797 .09199524 .5341797 .08898926 .5331726 .11199951 .59806826 .1659851 .63500979 .22399903 .63500979 .31498719 .63500979 .35798646 .5541382 .35798646 .47216798 .35798646 .39215089 .30799867 .31311036 .25299073 .25108338L.06098938 .036987306C.049987794 .025985718 .049987794 .023986817 .049987794 0H.42099L.44898988 .17404175H.42399598C.4189911 .14402771 .4119873 .1000061 .4019928 .084991458 .394989 .07699585 .32899476 .07699585 .30699159 .07699585H.1269989Z"/>
<path id="font_1_4" d="M.2939911 .16503906V.07800293C.2939911 .041992189 .2919922 .0309906 .21798706 .0309906H.19699097V0C.23799134 .0029907227 .2899933 .0029907227 .33198548 .0029907227 .37399293 .0029907227 .4269867 .0029907227 .46798707 0V.0309906H.44699098C.37298585 .0309906 .37098695 .041992189 .37098695 .07800293V.16503906H.47099305V.19602967H.37098695V.65075686C.37098695 .67074587 .37098695 .6767578 .35499574 .6767578 .34599305 .6767578 .34298707 .6767578 .33499146 .66474917L.027999878 .19602967V.16503906H.2939911M.2999878 .19602967H.055999757L.2999878 .5688019V.19602967Z"/>
<path id="font_1_6" d="M.13198853 .327713V.35173036C.13198853 .6047821 .2559967 .64100649 .30699159 .64100649 .33099366 .64100649 .37298585 .634964 .394989 .6007538 .37998963 .6007538 .33999635 .6007538 .33999635 .5557556 .33999635 .524765 .3639984 .5097656 .38598634 .5097656 .4019928 .5097656 .43199159 .51875308 .43199159 .5577545 .43199159 .6178589 .3880005 .6660156 .30499269 .6660156 .1769867 .6660156 .041992189 .5367584 .041992189 .31570436 .041992189 .048553468 .1579895-.022460938 .25099183-.022460938 .3619995-.022460938 .45700074 .07156372 .45700074 .2036438 .45700074 .33070375 .36799623 .4267578 .25698854 .4267578 .18899536 .4267578 .1519928 .37573243 .13198853 .327713M.25099183 .0055389406C.18798828 .0055389406 .1579895 .06556702 .1519928 .080566409 .13398743 .127594 .13398743 .2076416 .13398743 .22564698 .13398743 .30369569 .1659851 .40374757 .2559967 .40374757 .27198792 .40374757 .31799317 .40374757 .34899903 .34172059 .36698915 .30470277 .36698915 .2536621 .36698915 .20463562 .36698915 .15661621 .36698915 .10658264 .34999085 .0705719 .31999208 .010528564 .27398683 .0055389406 .25099183 .0055389406Z"/>
<path id="font_1_7" d="M.16299439 .4569702C.116989139 .486969 .11299133 .52098086 .11299133 .5379791 .11299133 .598999 .17799378 .64100649 .24899292 .64100649 .32199098 .64100649 .38598634 .58898928 .38598634 .51698306 .38598634 .45996095 .34700013 .4119568 .2869873 .37695313L.16299439 .4569702M.30899049 .36193849C.3809967 .3989563 .42999269 .45095826 .42999269 .51698306 .42999269 .6090088 .34098817 .6660156 .25 .6660156 .1499939 .6660156 .068984989 .59199526 .068984989 .49897767 .068984989 .4809723 .070999149 .43595887 .11299133 .38894654 .12399292 .37695313 .16099549 .35194398 .18598938 .33494569 .12799073 .30592347 .041992189 .24984741 .041992189 .15072632 .041992189 .04458618 .14399719-.022460938 .24899292-.022460938 .3619995-.022460938 .45700074 .06060791 .45700074 .16773987 .45700074 .20379639 .44599916 .24885559 .4079895 .2909088 .3889923 .31193543 .37298585 .3219452 .30899049 .36193849M.20899964 .3199463 .33198548 .24183655C.3600006 .2228241 .40699769 .19277954 .40699769 .13169861 .40699769 .05760193 .33198548 .0055389406 .25 .0055389406 .1639862 .0055389406 .09199524 .067611698 .09199524 .15072632 .09199524 .20880127 .12399292 .27288819 .20899964 .3199463Z"/>
<path id="font_1_2" d="M.2939911 .64004519C.2939911 .66400149 .2939911 .6660156 .2709961 .6660156 .20899964 .60227969 .12098694 .60227969 .08898926 .60227969V.57128909C.10899353 .57128909 .16799927 .57128909 .21998596 .5972748V.07902527C.21998596 .042999269 .21699524 .0309906 .1269989 .0309906H.09498596V0C.12998963 .0029907227 .21699524 .0029907227 .25698854 .0029907227 .29699708 .0029907227 .38398744 .0029907227 .4189911 0V.0309906H.3869934C.29699708 .0309906 .2939911 .041992189 .2939911 .07902527V.64004519Z"/>
<path id="font_1_1" d="M.45999146 .31976319C.45999146 .39982606 .45498658 .47988893 .41999818 .5539398 .37399293 .65000918 .2919922 .6660156 .25 .6660156 .18998719 .6660156 .116989139 .64001467 .07598877 .54693606 .04399109 .47789 .038986207 .39982606 .038986207 .31976319 .038986207 .24472046 .042999269 .15464783 .083999637 .07859802 .1269989-.0024719239 .19999695-.022460938 .24899292-.022460938 .30299378-.022460938 .3789978-.0014648438 .4229889 .09359741 .45498658 .16265869 .45999146 .2407074 .45999146 .31976319M.24899292-.00047302247C.20999146-.00047302247 .15098572 .024551392 .1329956 .12062073 .12199402 .18066406 .12199402 .2727356 .12199402 .3317871 .12199402 .39582826 .12199402 .46188355 .12998963 .5159149 .14898682 .63500979 .22399903 .64401248 .24899292 .64401248 .28199769 .64401248 .34799195 .6259918 .36698915 .52693179 .3769989 .47088624 .3769989 .39482118 .3769989 .3317871 .3769989 .25672914 .3769989 .18867493 .3659973 .12461853 .35099793 .029556275 .2939911-.00047302247 .24899292-.00047302247Z"/>
<path id="font_1_5" d="M.44898988 .20022583C.44898988 .3193512 .36698915 .41944886 .25898744 .41944886 .21099854 .41944886 .16799927 .40345765 .13198853 .36842347V.5637665C.1519928 .5577698 .18499756 .55078127 .21699524 .55078127 .33999635 .55078127 .4099884 .6417694 .4099884 .6547699 .4099884 .6607666 .40699769 .6657715 .3999939 .6657715 .39898683 .6657715 .39698792 .6657715 .3919983 .66278079 .37199403 .6537781 .32299806 .6337738 .2559967 .6337738 .21598816 .6337738 .16999817 .6407776 .12298584 .6617737 .114990238 .66477969 .11299133 .66477969 .11099243 .66477969 .100997928 .66477969 .100997928 .6567688 .100997928 .6407776V.34439088C.100997928 .32637025 .100997928 .31835938 .114990238 .31835938 .12199402 .31835938 .12399292 .32136537 .12799073 .32736207 .13899231 .3433838 .17599488 .39746095 .25698854 .39746095 .30899049 .39746095 .33399964 .35139466 .34199525 .33337403 .35798646 .29632569 .3600006 .25727845 .3600006 .20722962 .3600006 .17222595 .3600006 .11222839 .33599855 .07035828 .31199647 .031463624 .2749939 .0055389406 .22898865 .0055389406 .1559906 .0055389406 .09899902 .058380128 .08198547 .11723328 .084991458 .1162262 .08799744 .115234378 .09899902 .115234378 .13198853 .115234378 .14898682 .14022827 .14898682 .16423035 .14898682 .18823242 .13198853 .21322632 .09899902 .21322632 .084991458 .21322632 .049987794 .20622254 .049987794 .16023255 .049987794 .07434082 .11898804-.022460938 .23098755-.022460938 .34700013-.022460938 .44898988 .073349 .44898988 .20022583Z"/>
<path id="font_2_116" d="M.5159912 0V.0309906C.46199037 .03125 .44400025 .0332489 .42099 .0622406L.2869873 .23493958C.31698609 .27287293 .35499574 .3217926 .3789978 .3477478 .4099884 .38368226 .45098878 .39866639 .49798585 .3996582V.43066407C.47200013 .4286499 .44198609 .42765809 .41600038 .42765809 .38598634 .42765809 .33299256 .42965699 .31999208 .43066407V.3996582C.34098817 .3973999 .34899903 .3843994 .34899903 .3684082 .34899903 .35240174 .33898927 .33940126 .33399964 .33340455L.27198792 .2554016 .19400025 .35639955C.18499756 .3664093 .18499756 .3684082 .18499756 .3744049 .18499756 .3894043 .19999695 .39840699 .21998596 .39941407V.43066407L.11199951 .42765809C.09098816 .42765809 .04399109 .4286499 .016998291 .43066407V.3996582C.08699036 .3996582 .08799744 .39865113 .1349945 .3387146L.23399353 .20982361C.18699646 .14988709 .18699646 .14788819 .13999939 .09094238 .09199524 .032989503 .032989503 .0309906 .011993408 .0309906V0C.037994386 .0019989014 .068984989 .0029907227 .09498596 .0029907227L.18998719 0V.0309906C.16799927 .034240724 .16099549 .04724121 .16099549 .0622406 .16099549 .084243778 .18998719 .117248538 .25099183 .1892395L.32699586 .08924866C.33499146 .07824707 .34799195 .0622406 .34799195 .056243898 .34799195 .04724121 .33898927 .03224182 .31199647 .03125V0L.41999818 .0029907227C.44699098 .0029907227 .48599244 .0019989014 .5159912 0Z"/>
<path id="font_2_118" d="M.5079956 .3996582V.43066407C.4850006 .4286499 .45599366 .42765809 .43299867 .42765809L.34599305 .43066407V.3996582C.3769989 .39866639 .3929901 .3816681 .3929901 .35668946 .3929901 .34669496 .3919983 .34469605 .3869934 .33270265L.28599549 .08685303 .1749878 .35568238C.17098999 .36567689 .16899109 .36967469 .16899109 .3736725 .16899109 .3996582 .20599365 .3996582 .22499085 .3996582V.43066407L.115997318 .42765809C.08898926 .42765809 .04899597 .4286499 .018997193 .43066407V.3996582C.066986087 .3996582 .085998538 .3996582 .099990848 .36468507L.25-.000091552738 .22499085-.059066774C.20298767-.11407471 .1749878-.18309021 .11099243-.18309021 .10598755-.18309021 .08299255-.18309021 .06399536-.16503906 .09498596-.16104126 .102996829-.13905335 .102996829-.123046878 .102996829-.0970459 .083999637-.08103943 .06098938-.08103943 .040985109-.08103943 .018997193-.09403992 .018997193-.124053958 .018997193-.16905213 .06098938-.20507813 .11099243-.20507813 .17399597-.20507813 .21499634-.14804077 .23899842-.091049198L.4149933 .33569337C.44099427 .39865113 .49198915 .3996582 .5079956 .3996582Z"/>
</defs>
<path transform="matrix(1.00003,0,0,-1.00008,16.827057,166.53728)" stroke-width=".19925" stroke-linecap="butt" stroke-miterlimit="10" stroke-linejoin="miter" fill="none" stroke="#929292" d="M32.379-2.12585V2.12585M64.758-2.12585V2.12585M97.137-2.12585V2.12585M129.51599-2.12585V2.12585M161.89499-2.12585V2.12585M194.27399-2.12585V2.12585"/>
<path transform="matrix(1.00003,0,0,-1.00008,16.827057,166.53728)" stroke-width=".19925" stroke-linecap="butt" stroke-miterlimit="10" stroke-linejoin="miter" fill="none" stroke="#929292" d="M-2.12611 40.34909H2.12611M-2.12611 80.69818H2.12611M-2.12611 121.04727H2.12611M-2.12611 161.39636H2.12611"/>
<path transform="matrix(1.00003,0,0,-1.00008,16.827057,166.53728)" stroke-width=".3985" stroke-linecap="butt" stroke-miterlimit="10" stroke-linejoin="miter" fill="none" stroke="#000000" d="M0 0H192.28145"/>
<path transform="matrix(1.00003,0,0,-1.00008,209.11429,166.53728)" d="M1.99252 0-1.19551 1.59401 0 0-1.19551-1.59401"/>
<path transform="matrix(1.00003,0,0,-1.00008,16.827057,166.53728)" stroke-width=".3985" stroke-linecap="butt" stroke-miterlimit="10" stroke-linejoin="miter" fill="none" stroke="#000000" d="M0 0V159.40384"/>
<path transform="matrix(0,-1.00008,-1.00003,-0,16.827057,7.120682)" d="M1.99252 0-1.19551 1.59401 0 0-1.19551-1.59401"/>
<use data-text="2" xlink:href="#font_1_3" transform="matrix(9.962899,0,0,-9.963397,46.715959,178.60425)"/>
<use data-text="4" xlink:href="#font_1_4" transform="matrix(9.962899,0,0,-9.963397,79.095928,178.60425)"/>
<use data-text="6" xlink:href="#font_1_6" transform="matrix(9.962899,0,0,-9.963397,111.47591,178.60425)"/>
<use data-text="8" xlink:href="#font_1_7" transform="matrix(9.962899,0,0,-9.963397,143.85587,178.60425)"/>
<use data-text="1" xlink:href="#font_1_2" transform="matrix(9.962899,0,0,-9.963397,173.74578,178.60425)"/>
<use data-text="0" xlink:href="#font_1_1" transform="matrix(9.962899,0,0,-9.963397,178.72724,178.60425)"/>
<use data-text="1" xlink:href="#font_1_2" transform="matrix(9.962899,0,0,-9.963397,206.12575,178.60425)"/>
<use data-text="2" xlink:href="#font_1_3" transform="matrix(9.962899,0,0,-9.963397,211.10721,178.60425)"/>
<use data-text="5" xlink:href="#font_1_5" transform="matrix(9.962899,0,0,-9.963397,6.1997377,129.39531)"/>
<use data-text="1" xlink:href="#font_1_2" transform="matrix(9.962899,0,0,-9.963397,1.2175903,89.04308)"/>
<use data-text="0" xlink:href="#font_1_1" transform="matrix(9.962899,0,0,-9.963397,6.1990435,89.04308)"/>
<use data-text="1" xlink:href="#font_1_2" transform="matrix(9.962899,0,0,-9.963397,1.2175903,48.690858)"/>
<use data-text="5" xlink:href="#font_1_5" transform="matrix(9.962899,0,0,-9.963397,6.1990435,48.690858)"/>
<use data-text="2" xlink:href="#font_1_3" transform="matrix(9.962899,0,0,-9.963397,1.2175903,8.338623)"/>
<use data-text="0" xlink:href="#font_1_1" transform="matrix(9.962899,0,0,-9.963397,6.1990435,8.338623)"/>
<path transform="matrix(1.00003,0,0,-1.00008,16.827057,166.53728)" stroke-width=".99628" stroke-linecap="butt" stroke-miterlimit="10" stroke-linejoin="miter" fill="none" stroke="#0000ff" d="M0 135.32886 .97623 136.00351 1.95247 136.63903 2.92873 137.23628 3.90494 137.7944 4.8812 138.31249 5.85744 138.78792 6.8337 139.22115 7.80994 139.61386 8.78618 139.9657 9.76244 140.27402 10.73863 140.53923 11.71489 140.75957 12.69113 140.93857 13.66739 141.0727 14.64363 141.1655 15.61987 141.213 16.59613 141.21652 17.57234 141.17562 18.5486 141.0916 19.52484 140.96407 20.5011 140.79343 21.47733 140.5788 22.45357 140.32019 23.42982 140.01937 24.40604 139.67632 25.3823 139.29105 26.35854 138.86356 27.3348 138.39296 28.31104 137.88324 29.28728 137.33304 30.26353 136.74283 31.23978 136.11258 32.21599 135.44365 33.19223 134.73644 34.16849 133.99228 35.14473 133.21163 36.12097 132.3958 37.09723 131.54256 38.07347 130.6568 39.0497 129.73673 40.02594 128.7863 41.0022 127.80334 41.97842 126.78915 42.95467 125.74638 43.93092 124.67458 44.90717 123.57681 45.88339 122.45222 46.85963 121.30125 47.83589 120.12743 48.81213 118.93027 49.78838 117.71158 50.76463 116.47264 51.74088 115.21436 52.71709 113.93849 53.69333 112.64633 54.66959 111.3375 55.64583 110.01541 56.62207 108.68149 57.59833 107.33438 58.57457 105.97801 59.5508 104.6133 60.52704 103.24068 61.5033 101.86232 62.47954 100.48001 63.45576 99.09286 64.43202 97.70572 65.40826 96.31772 66.38449 94.93057 67.36073 93.54474 68.33699 92.16376 69.31323 90.78761 70.28947 89.41762 71.26573 88.05466 72.24197 86.7018 73.2182 85.35953 74.19443 84.02867 75.17068 82.71014 76.14693 81.40744 77.12317 80.11969 78.09943 78.84998 79.07567 77.59872 80.05191 76.36638 81.02814 75.15428 82.0044 73.96373 82.98064 72.79825 83.95686 71.65651 84.93312 70.54073 85.90936 69.45001 86.8856 68.38702 87.86183 67.35435 88.83809 66.35115 89.81433 65.37872 90.79057 64.43799 91.76683 63.52849 92.74307 62.65416 93.71931 61.81369 94.69553 61.0093 95.67178 60.2405 96.64803 59.50777 97.62427 58.81332 98.60057 58.15758 99.57672 57.54097 100.55304 56.96394 101.52919 56.42563 102.5055 55.9282 103.48178 55.47343 104.45796 55.06049 105.43423 54.6884 106.41039 54.35854 107.3867 54.0709 108.363 53.82857 109.33916 53.62802 110.31546 53.47191 111.29163 53.35799 112.26793 53.28761 113.24422 53.26212 114.22037 53.28145 115.19667 53.34348 116.17282 53.44946 117.14912 53.59682 118.12543 53.79033 119.1016 54.02737 120.0779 54.30708 121.05405 54.62859 122.03036 54.99275 123.00665 55.39868 123.9828 55.84773 124.9591 56.33856 125.93524 56.86852 126.91156 57.43849 127.88786 58.04764 128.86402 58.6981 129.8403 59.38638 130.81649 60.11208 131.79277 60.87427 132.76908 61.67162 133.74524 62.50725 134.72154 63.37675 135.6977 64.27922 136.67398 65.21425 137.6503 66.18138 138.62645 67.17929 139.60274 68.20801 140.57889 69.2653 141.5552 70.35074 142.53151 71.46255 143.50766 72.59946 144.48397 73.76274 145.46013 74.94846 146.43642 76.15573 147.4127 77.38454 148.38889 78.63269 149.36518 79.90022 150.34133 81.18532 151.31763 82.48541 152.29395 83.80086 153.2701 85.1295 154.2464 86.47047 155.22255 87.8211 156.19887 89.18231 157.17514 90.5514 158.15129 91.92625 159.1276 93.30724 160.10376 94.69174 161.08007 96.07977 162.05637 97.4669 163.03252 98.85449 164.00884 100.24164 164.98499 101.62482 165.96128 103.00449 166.93758 104.37756 167.91373 105.74403 168.89003 107.10216 169.86618 108.44972 170.84249 109.78671 171.8188 111.11142 172.79496 112.42204 173.77124 113.71771 174.74742 114.99623 175.72371 116.25716 176.70001 117.49957 177.67617 118.72224 178.65247 119.92337 179.62862 121.10115 180.60492 122.25476 181.5812 123.38506 182.55739 124.48721 183.53368 125.56517 184.50983 126.6128 185.48613 127.63094 186.46245 128.61875 187.4386 129.5762 188.41489 130.502 189.39104 131.39392 190.36736 132.25154 191.34365 133.07353 192.3198 133.85991 193.2961 134.61109 194.27227 135.32578"/>
<path transform="matrix(1.00003,0,0,-1.00008,16.827057,166.53728)" d="M17.18578 141.22182C17.18578 141.77205 16.73973 142.2181 16.1895 142.2181 15.63925 142.2181 15.19322 141.77205 15.19322 141.22182 15.19322 140.67157 15.63925 140.22554 16.1895 140.22554 16.73973 140.22554 17.18578 140.67157 17.18578 141.22182ZM16.1895 141.22182"/>
<path transform="matrix(1.00003,0,0,-1.00008,16.827057,166.53728)" stroke-width=".3985" stroke-linecap="butt" stroke-miterlimit="10" stroke-linejoin="miter" fill="none" stroke="#000000" d="M17.18578 141.22182C17.18578 141.77205 16.73973 142.2181 16.1895 142.2181 15.63925 142.2181 15.19322 141.77205 15.19322 141.22182 15.19322 140.67157 15.63925 140.22554 16.1895 140.22554 16.73973 140.22554 17.18578 140.67157 17.18578 141.22182ZM16.1895 141.22182"/>
<path transform="matrix(1.00003,0,0,-1.00008,16.827057,166.53728)" d="M33.37527 138.80088C33.37527 139.3511 32.92923 139.79715 32.379 139.79715 31.82875 139.79715 31.38272 139.3511 31.38272 138.80088 31.38272 138.25063 31.82875 137.8046 32.379 137.8046 32.92923 137.8046 33.37527 138.25063 33.37527 138.80088ZM32.379 138.80088"/>
<path transform="matrix(1.00003,0,0,-1.00008,16.827057,166.53728)" stroke-width=".3985" stroke-linecap="butt" stroke-miterlimit="10" stroke-linejoin="miter" fill="none" stroke="#000000" d="M33.37527 138.80088C33.37527 139.3511 32.92923 139.79715 32.379 139.79715 31.82875 139.79715 31.38272 139.3511 31.38272 138.80088 31.38272 138.25063 31.82875 137.8046 32.379 137.8046 32.92923 137.8046 33.37527 138.25063 33.37527 138.80088ZM32.379 138.80088"/>
<path transform="matrix(1.00003,0,0,-1.00008,16.827057,166.53728)" d="M49.56477 125.08217C49.56477 125.63242 49.11873 126.07845 48.5685 126.07845 48.01825 126.07845 47.57222 125.63242 47.57222 125.08217 47.57222 124.53194 48.01825 124.08589 48.5685 124.08589 49.11873 124.08589 49.56477 124.53194 49.56477 125.08217ZM48.5685 125.08217"/>
<path transform="matrix(1.00003,0,0,-1.00008,16.827057,166.53728)" stroke-width=".3985" stroke-linecap="butt" stroke-miterlimit="10" stroke-linejoin="miter" fill="none" stroke="#000000" d="M49.56477 125.08217C49.56477 125.63242 49.11873 126.07845 48.5685 126.07845 48.01825 126.07845 47.57222 125.63242 47.57222 125.08217 47.57222 124.53194 48.01825 124.08589 48.5685 124.08589 49.11873 124.08589 49.56477 124.53194 49.56477 125.08217ZM48.5685 125.08217"/>
<path transform="matrix(1.00003,0,0,-1.00008,16.827057,166.53728)" d="M65.75427 102.48668C65.75427 103.03693 65.30823 103.48296 64.758 103.48296 64.20775 103.48296 63.76172 103.03693 63.76172 102.48668 63.76172 101.93645 64.20775 101.4904 64.758 101.4904 65.30823 101.4904 65.75427 101.93645 65.75427 102.48668ZM64.758 102.48668"/>
<path transform="matrix(1.00003,0,0,-1.00008,16.827057,166.53728)" stroke-width=".3985" stroke-linecap="butt" stroke-miterlimit="10" stroke-linejoin="miter" fill="none" stroke="#000000" d="M65.75427 102.48668C65.75427 103.03693 65.30823 103.48296 64.758 103.48296 64.20775 103.48296 63.76172 103.03693 63.76172 102.48668 63.76172 101.93645 64.20775 101.4904 64.758 101.4904 65.30823 101.4904 65.75427 101.93645 65.75427 102.48668ZM64.758 102.48668"/>
<path transform="matrix(1.00003,0,0,-1.00008,16.827057,166.53728)" d="M81.94377 79.08421C81.94377 79.63445 81.49773 80.08049 80.9475 80.08049 80.39725 80.08049 79.95122 79.63445 79.95122 79.08421 79.95122 78.53398 80.39725 78.08794 80.9475 78.08794 81.49773 78.08794 81.94377 78.53398 81.94377 79.08421ZM80.9475 79.08421"/>
<path transform="matrix(1.00003,0,0,-1.00008,16.827057,166.53728)" stroke-width=".3985" stroke-linecap="butt" stroke-miterlimit="10" stroke-linejoin="miter" fill="none" stroke="#000000" d="M81.94377 79.08421C81.94377 79.63445 81.49773 80.08049 80.9475 80.08049 80.39725 80.08049 79.95122 79.63445 79.95122 79.08421 79.95122 78.53398 80.39725 78.08794 80.9475 78.08794 81.49773 78.08794 81.94377 78.53398 81.94377 79.08421ZM80.9475 79.08421"/>
<path transform="matrix(1.00003,0,0,-1.00008,16.827057,166.53728)" d="M98.13327 57.2957C98.13327 57.84593 97.68723 58.29198 97.137 58.29198 96.58675 58.29198 96.14072 57.84593 96.14072 57.2957 96.14072 56.74547 96.58675 56.29942 97.137 56.29942 97.68723 56.29942 98.13327 56.74547 98.13327 57.2957ZM97.137 57.2957"/>
<path transform="matrix(1.00003,0,0,-1.00008,16.827057,166.53728)" stroke-width=".3985" stroke-linecap="butt" stroke-miterlimit="10" stroke-linejoin="miter" fill="none" stroke="#000000" d="M98.13327 57.2957C98.13327 57.84593 97.68723 58.29198 97.137 58.29198 96.58675 58.29198 96.14072 57.84593 96.14072 57.2957 96.14072 56.74547 96.58675 56.29942 97.137 56.29942 97.68723 56.29942 98.13327 56.74547 98.13327 57.2957ZM97.137 57.2957"/>
<path transform="matrix(1.00003,0,0,-1.00008,16.827057,166.53728)" d="M114.32277 53.26079C114.32277 53.81104 113.87672 54.25706 113.32649 54.25706 112.77625 54.25706 112.33022 53.81104 112.33022 53.26079 112.33022 52.71056 112.77625 52.26451 113.32649 52.26451 113.87672 52.26451 114.32277 52.71056 114.32277 53.26079ZM113.32649 53.26079"/>
<path transform="matrix(1.00003,0,0,-1.00008,16.827057,166.53728)" stroke-width=".3985" stroke-linecap="butt" stroke-miterlimit="10" stroke-linejoin="miter" fill="none" stroke="#000000" d="M114.32277 53.26079C114.32277 53.81104 113.87672 54.25706 113.32649 54.25706 112.77625 54.25706 112.33022 53.81104 112.33022 53.26079 112.33022 52.71056 112.77625 52.26451 113.32649 52.26451 113.87672 52.26451 114.32277 52.71056 114.32277 53.26079ZM113.32649 53.26079"/>
<path transform="matrix(1.00003,0,0,-1.00008,16.827057,166.53728)" d="M130.51227 63.75156C130.51227 64.30179 130.06623 64.74783 129.51599 64.74783 128.96575 64.74783 128.51972 64.30179 128.51972 63.75156 128.51972 63.20132 128.96575 62.75528 129.51599 62.75528 130.06623 62.75528 130.51227 63.20132 130.51227 63.75156ZM129.51599 63.75156"/>
<path transform="matrix(1.00003,0,0,-1.00008,16.827057,166.53728)" stroke-width=".3985" stroke-linecap="butt" stroke-miterlimit="10" stroke-linejoin="miter" fill="none" stroke="#000000" d="M130.51227 63.75156C130.51227 64.30179 130.06623 64.74783 129.51599 64.74783 128.96575 64.74783 128.51972 64.30179 128.51972 63.75156 128.51972 63.20132 128.96575 62.75528 129.51599 62.75528 130.06623 62.75528 130.51227 63.20132 130.51227 63.75156ZM129.51599 63.75156"/>
<path transform="matrix(1.00003,0,0,-1.00008,16.827057,166.53728)" d="M146.70177 83.11913C146.70177 83.66936 146.25572 84.1154 145.70549 84.1154 145.15525 84.1154 144.70922 83.66936 144.70922 83.11913 144.70922 82.56888 145.15525 82.12285 145.70549 82.12285 146.25572 82.12285 146.70177 82.56888 146.70177 83.11913ZM145.70549 83.11913"/>
<path transform="matrix(1.00003,0,0,-1.00008,16.827057,166.53728)" stroke-width=".3985" stroke-linecap="butt" stroke-miterlimit="10" stroke-linejoin="miter" fill="none" stroke="#000000" d="M146.70177 83.11913C146.70177 83.66936 146.25572 84.1154 145.70549 84.1154 145.15525 84.1154 144.70922 83.66936 144.70922 83.11913 144.70922 82.56888 145.15525 82.12285 145.70549 82.12285 146.25572 82.12285 146.70177 82.56888 146.70177 83.11913ZM145.70549 83.11913"/>
<path transform="matrix(1.00003,0,0,-1.00008,16.827057,166.53728)" d="M162.89127 98.45177C162.89127 99.00201 162.44522 99.44804 161.89499 99.44804 161.34474 99.44804 160.89871 99.00201 160.89871 98.45177 160.89871 97.90154 161.34474 97.45549 161.89499 97.45549 162.44522 97.45549 162.89127 97.90154 162.89127 98.45177ZM161.89499 98.45177"/>
<path transform="matrix(1.00003,0,0,-1.00008,16.827057,166.53728)" stroke-width=".3985" stroke-linecap="butt" stroke-miterlimit="10" stroke-linejoin="miter" fill="none" stroke="#000000" d="M162.89127 98.45177C162.89127 99.00201 162.44522 99.44804 161.89499 99.44804 161.34474 99.44804 160.89871 99.00201 160.89871 98.45177 160.89871 97.90154 161.34474 97.45549 161.89499 97.45549 162.44522 97.45549 162.89127 97.90154 162.89127 98.45177ZM161.89499 98.45177"/>
<path transform="matrix(1.00003,0,0,-1.00008,16.827057,166.53728)" d="M179.08077 113.78442C179.08077 114.33467 178.63472 114.7807 178.08449 114.7807 177.53424 114.7807 177.08821 114.33467 177.08821 113.78442 177.08821 113.23419 177.53424 112.78815 178.08449 112.78815 178.63472 112.78815 179.08077 113.23419 179.08077 113.78442ZM178.08449 113.78442"/>
<path transform="matrix(1.00003,0,0,-1.00008,16.827057,166.53728)" stroke-width=".3985" stroke-linecap="butt" stroke-miterlimit="10" stroke-linejoin="miter" fill="none" stroke="#000000" d="M179.08077 113.78442C179.08077 114.33467 178.63472 114.7807 178.08449 114.7807 177.53424 114.7807 177.08821 114.33467 177.08821 113.78442 177.08821 113.23419 177.53424 112.78815 178.08449 112.78815 178.63472 112.78815 179.08077 113.23419 179.08077 113.78442ZM178.08449 113.78442"/>
<path transform="matrix(1.00003,0,0,-1.00008,16.827057,166.53728)" d="M195.27027 129.92407C195.27027 130.4743 194.82422 130.92035 194.27399 130.92035 193.72374 130.92035 193.27771 130.4743 193.27771 129.92407 193.27771 129.37383 193.72374 128.9278 194.27399 128.9278 194.82422 128.9278 195.27027 129.37383 195.27027 129.92407ZM194.27399 129.92407"/>
<path transform="matrix(1.00003,0,0,-1.00008,16.827057,166.53728)" stroke-width=".3985" stroke-linecap="butt" stroke-miterlimit="10" stroke-linejoin="miter" fill="none" stroke="#000000" d="M195.27027 129.92407C195.27027 130.4743 194.82422 130.92035 194.27399 130.92035 193.72374 130.92035 193.27771 130.4743 193.27771 129.92407 193.27771 129.37383 193.72374 128.9278 194.27399 128.9278 194.82422 128.9278 195.27027 129.37383 195.27027 129.92407ZM194.27399 129.92407"/>
<use data-text="x" xlink:href="#font_2_116" transform="matrix(9.962899,0,0,-9.963397,202.32663,163.017)"/>
<use data-text="y" xlink:href="#font_2_118" transform="matrix(9.962899,0,0,-9.963397,20.34716,12.942001)"/>
</svg>
