<svg xmlns="http://www.w3.org/2000/svg" xmlns:xlink="http://www.w3.org/1999/xlink" xmlns:inkscape="http://www.inkscape.org/namespaces/inkscape" version="1.1" width="197" height="173" viewBox="0 0 197 173">
<defs>
<path id="font_1_1" d="M.6589966 .23046875C.6759949 .23046875 .69400027 .23046875 .69400027 .25045777 .69400027 .27046205 .6759949 .27046205 .6589966 .27046205H.117996219C.100997928 .27046205 .08299255 .27046205 .08299255 .25045777 .08299255 .23046875 .100997928 .23046875 .117996219 .23046875H.6589966Z"/>
<path id="font_2_3" d="M.1269989 .07699585 .23298645 .18003845C.3889923 .31811524 .44898988 .3721466 .44898988 .47216798 .44898988 .5860901 .35899354 .6660156 .23699951 .6660156 .12399292 .6660156 .049987794 .57411196 .049987794 .48516847 .049987794 .4291687 .099990848 .4291687 .102996829 .4291687 .11999512 .4291687 .15499878 .44117738 .15499878 .48217774 .15499878 .5081787 .13699341 .5341797 .101989749 .5341797 .09399414 .5341797 .09199524 .5341797 .08898926 .5331726 .11199951 .59806826 .1659851 .63500979 .22399903 .63500979 .31498719 .63500979 .35798646 .5541382 .35798646 .47216798 .35798646 .39215089 .30799867 .31311036 .25299073 .25108338L.06098938 .036987306C.049987794 .025985718 .049987794 .023986817 .049987794 0H.42099L.44898988 .17404175H.42399598C.4189911 .14402771 .4119873 .1000061 .4019928 .084991458 .394989 .07699585 .32899476 .07699585 .30699159 .07699585H.1269989Z"/>
<path id="font_3_1" d="M.2649994 .37265016H.37799073C.34498597 .22489929 .33599855 .18196106 .33599855 .11508179 .33599855 .100097659 .33599855 .073150638 .34399415 .03919983 .35398866-.0047454836 .36499024-.0107421879 .37998963-.0107421879 .3999939-.0107421879 .42099 .007247925 .42099 .02722168 .42099 .033218385 .42099 .035202028 .4149933 .049179079 .38598634 .12106323 .38598634 .18595886 .38598634 .21391297 .38598634 .26683045 .3929901 .32073976 .4039917 .37265016H.5179901C.5309906 .37265016 .5669861 .37265016 .5669861 .406662 .5669861 .43066407 .54599 .43066407 .5269928 .43066407H.19198609C.16999817 .43066407 .13198853 .43066407 .08799744 .38365174 .052993776 .34469605 .026992798 .29878236 .026992798 .29379273 .026992798 .29278565 .026992798 .28379823 .038986207 .28379823 .04699707 .28379823 .04899597 .28779603 .054992677 .29577638 .10398865 .37265016 .1619873 .37265016 .18199158 .37265016H.23899842C.20698548 .25186158 .15299988 .13105774 .11099243 .04020691 .102996829 .025222779 .102996829 .023223877 .102996829 .016235352 .102996829-.002746582 .11898804-.0107421879 .13198853-.0107421879 .1619873-.0107421879 .16999817 .017242432 .18199158 .05418396 .19599915 .100097659 .19599915 .10209656 .20899964 .15202332L.2649994 .37265016Z"/>
<path id="font_2_4" d="M.2899933 .35191346C.37199403 .37893678 .42999269 .4490509 .42999269 .52809146 .42999269 .6100464 .34199525 .6660156 .24598694 .6660156 .14498902 .6660156 .068984989 .60606387 .068984989 .53009036 .068984989 .49710084 .09098816 .47808839 .11999512 .47808839 .15098572 .47808839 .17098999 .50009158 .17098999 .5290985 .17098999 .57910159 .12399292 .57910159 .10899353 .57910159 .13999939 .62802127 .20599365 .64100649 .24198914 .64100649 .2829895 .64100649 .33799745 .6190338 .33799745 .5290985 .33799745 .51708987 .33599855 .45906068 .30999757 .4149933 .27999879 .36691285 .24598694 .36390687 .22099304 .36291505 .21299744 .36190797 .18899536 .35990907 .18199158 .35990907 .17399597 .35890199 .16699219 .35791017 .16699219 .3479004 .16699219 .33691407 .17399597 .33691407 .19099427 .33691407H.23498535C.31698609 .33691407 .35398866 .2686615 .35398866 .17037964 .35398866 .034469606 .2849884 .0055389406 .24099732 .0055389406 .19799805 .0055389406 .12298584 .022491456 .08799744 .08137512 .12298584 .07637024 .1539917 .09837341 .1539917 .1363678 .1539917 .17237854 .1269989 .19238281 .09799194 .19238281 .07398987 .19238281 .041992189 .17837525 .041992189 .1343689 .041992189 .043441774 .1349945-.022460938 .24398804-.022460938 .3659973-.022460938 .45700074 .06838989 .45700074 .17037964 .45700074 .252594 .3939972 .33088685 .2899933 .35191346Z"/>
<path id="font_2_2" d="M.2939911 .64004519C.2939911 .66400149 .2939911 .6660156 .2709961 .6660156 .20899964 .60227969 .12098694 .60227969 .08898926 .60227969V.57128909C.10899353 .57128909 .16799927 .57128909 .21998596 .5972748V.07902527C.21998596 .042999269 .21699524 .0309906 .1269989 .0309906H.09498596V0C.12998963 .0029907227 .21699524 .0029907227 .25698854 .0029907227 .29699708 .0029907227 .38398744 .0029907227 .4189911 0V.0309906H.3869934C.29699708 .0309906 .2939911 .041992189 .2939911 .07902527V.64004519Z"/>
<path id="font_2_1" d="M.45999146 .31976319C.45999146 .39982606 .45498658 .47988893 .41999818 .5539398 .37399293 .65000918 .2919922 .6660156 .25 .6660156 .18998719 .6660156 .116989139 .64001467 .07598877 .54693606 .04399109 .47789 .038986207 .39982606 .038986207 .31976319 .038986207 .24472046 .042999269 .15464783 .083999637 .07859802 .1269989-.0024719239 .19999695-.022460938 .24899292-.022460938 .30299378-.022460938 .3789978-.0014648438 .4229889 .09359741 .45498658 .16265869 .45999146 .2407074 .45999146 .31976319M.24899292-.00047302247C.20999146-.00047302247 .15098572 .024551392 .1329956 .12062073 .12199402 .18066406 .12199402 .2727356 .12199402 .3317871 .12199402 .39582826 .12199402 .46188355 .12998963 .5159149 .14898682 .63500979 .22399903 .64401248 .24899292 .64401248 .28199769 .64401248 .34799195 .6259918 .36698915 .52693179 .3769989 .47088624 .3769989 .39482118 .3769989 .3317871 .3769989 .25672914 .3769989 .18867493 .3659973 .12461853 .35099793 .029556275 .2939911-.00047302247 .24899292-.00047302247Z"/>
<path id="font_2_5" d="M.44898988 .20022583C.44898988 .3193512 .36698915 .41944886 .25898744 .41944886 .21099854 .41944886 .16799927 .40345765 .13198853 .36842347V.5637665C.1519928 .5577698 .18499756 .55078127 .21699524 .55078127 .33999635 .55078127 .4099884 .6417694 .4099884 .6547699 .4099884 .6607666 .40699769 .6657715 .3999939 .6657715 .39898683 .6657715 .39698792 .6657715 .3919983 .66278079 .37199403 .6537781 .32299806 .6337738 .2559967 .6337738 .21598816 .6337738 .16999817 .6407776 .12298584 .6617737 .114990238 .66477969 .11299133 .66477969 .11099243 .66477969 .100997928 .66477969 .100997928 .6567688 .100997928 .6407776V.34439088C.100997928 .32637025 .100997928 .31835938 .114990238 .31835938 .12199402 .31835938 .12399292 .32136537 .12799073 .32736207 .13899231 .3433838 .17599488 .39746095 .25698854 .39746095 .30899049 .39746095 .33399964 .35139466 .34199525 .33337403 .35798646 .29632569 .3600006 .25727845 .3600006 .20722962 .3600006 .17222595 .3600006 .11222839 .33599855 .07035828 .31199647 .031463624 .2749939 .0055389406 .22898865 .0055389406 .1559906 .0055389406 .09899902 .058380128 .08198547 .11723328 .084991458 .1162262 .08799744 .115234378 .09899902 .115234378 .13198853 .115234378 .14898682 .14022827 .14898682 .16423035 .14898682 .18823242 .13198853 .21322632 .09899902 .21322632 .084991458 .21322632 .049987794 .20622254 .049987794 .16023255 .049987794 .07434082 .11898804-.022460938 .23098755-.022460938 .34700013-.022460938 .44898988 .073349 .44898988 .20022583Z"/>
<path id="font_4_85" d="M.33099366-.2400055C.33099366-.23701477 .33099366-.23500061 .31399537-.21800232 .18899536-.0920105 .15699768 .09700012 .15699768 .25 .15699768 .42399598 .19499207 .59799197 .31799317 .72299197 .33099366 .7350006 .33099366 .7369995 .33099366 .73999026 .33099366 .746994 .32699586 .75 .32099916 .75 .31098939 .75 .22099304 .6819916 .1619873 .5549927 .11099243 .44499208 .09899902 .33399964 .09899902 .25 .09899902 .17199707 .10998535 .050994874 .16499329-.06201172 .22499085-.18501282 .31098939-.25 .32099916-.25 .32699586-.25 .33099366-.24700928 .33099366-.2400055Z"/>
<path id="font_4_27" d="M.71699526 0V.0309906H.69898989C.6389923 .0309906 .625 .037979127 .6139984 .07095337L.397995 .6958008C.3929901 .7088165 .3909912 .7158203 .375 .7158203 .35899354 .7158203 .35598756 .70980837 .35099793 .6958008L.14399719 .09791565C.12599182 .04698181 .085998538 .03199768 .03199768 .0309906V0L.13398743 .0029907227 .24899292 0V.0309906C.19898987 .0309906 .17399597 .05596924 .17399597 .0819397 .17399597 .08493042 .1749878 .09492493 .17599488 .09692383L.22200012 .2277832H.46899415L.5219879 .07495117C.522995 .07095337 .5249939 .064956668 .5249939 .060958864 .5249939 .0309906 .46899415 .0309906 .44198609 .0309906V0C.47799684 .0029907227 .5479889 .0029907227 .58599856 .0029907227L.71699526 0M.45799256 .25878907H.23298645L.34498597 .58380129 .45799256 .25878907Z"/>
<path id="font_4_86" d="M.2889862 .25C.2889862 .32798768 .27799989 .44898988 .22299195 .56199648 .16299439 .68499758 .07699585 .75 .066986087 .75 .06098938 .75 .056991579 .74598696 .056991579 .73999026 .056991579 .7369995 .056991579 .7350006 .07598877 .71699526 .17399597 .6179962 .23098755 .45899964 .23098755 .25 .23098755 .07899475 .19400025-.09700012 .069992069-.2230072 .056991579-.23500061 .056991579-.23701477 .056991579-.2400055 .056991579-.2460022 .06098938-.25 .066986087-.25 .07699585-.25 .16699219-.18200684 .22599793-.055007936 .2769928 .054992677 .2889862 .16600037 .2889862 .25Z"/>
<path id="font_3_2" d="M.33399964 .30233766C.33999635 .32835389 .36299134 .42037965 .43299867 .42037965 .43798829 .42037965 .46199037 .42037965 .48298646 .40734864 .45498658 .402359 .43499757 .37734986 .43499757 .35334779 .43499757 .33735658 .44599916 .31835938 .47299195 .31835938 .49499513 .31835938 .5269928 .3363495 .5269928 .37635804 .5269928 .42837525 .46798707 .4423828 .43399049 .4423828 .37599183 .4423828 .34098817 .38935853 .32899476 .36634828 .3039856 .43237306 .25 .4423828 .22099304 .4423828 .116989139 .4423828 .05999756 .3133545 .05999756 .28834535 .05999756 .27833558 .069992069 .27833558 .07199097 .27833558 .07998657 .27833558 .08299255 .28033448 .084991458 .28933717 .11898804 .39535523 .18499756 .42037965 .21899414 .42037965 .23799134 .42037965 .272995 .4113617 .272995 .35334779 .272995 .32235719 .2559967 .25532533 .21899414 .11528015 .20298767 .053268434 .16799927 .011245728 .12399292 .011245728 .117996219 .011245728 .09498596 .011245728 .07398987 .024276734 .09899902 .029266358 .12098694 .05027771 .12098694 .07827759 .12098694 .105270389 .09899902 .11328125 .083999637 .11328125 .053985597 .11328125 .0289917 .08728027 .0289917 .055267335 .0289917 .009246826 .07899475-.0107421879 .12298584-.0107421879 .18899536-.0107421879 .22499085 .059280397 .22799683 .0652771 .23999024 .028274537 .27598573-.0107421879 .33599855-.0107421879 .43899537-.0107421879 .49598695 .118270877 .49598695 .14328003 .49598695 .1532898 .4869995 .1532898 .48399354 .1532898 .47499085 .1532898 .47299195 .14929199 .47099305 .14228821 .43798829 .03527832 .36999513 .011245728 .33799745 .011245728 .29899598 .011245728 .2829895 .043273927 .2829895 .07727051 .2829895 .09927368 .2889862 .121276859 .2999878 .16529846L.33399964 .30233766Z"/>
<path id="font_3_3" d="M.48599244 .38136292C.48999024 .39537049 .48999024 .39736939 .48999024 .40437318 .48999024 .42237855 .47599793 .43138124 .46099855 .43138124 .45098878 .43138124 .43499757 .42536927 .42599488 .41036988 .42399598 .405365 .41600038 .37435914 .4119873 .35635377 .40499879 .33035279 .397995 .30334474 .3919983 .27633668L.34700013 .09628296C.34298707 .08126831 .2999878 .011245728 .23399353 .011245728 .18299866 .011245728 .17199707 .055267335 .17199707 .0922699 .17199707 .1382904 .18899536 .20030213 .22299195 .28833009 .23899842 .3293457 .24299622 .3403473 .24299622 .36035157 .24299622 .405365 .21099854 .4423828 .16099549 .4423828 .06599426 .4423828 .0289917 .29733277 .0289917 .28833009 .0289917 .27833558 .038986207 .27833558 .040985109 .27833558 .050994874 .27833558 .051986696 .28033448 .056991579 .29634095 .083999637 .3903656 .12399292 .42037965 .1579895 .42037965 .1659851 .42037965 .18299866 .42037965 .18299866 .3883667 .18299866 .36335755 .17298889 .3373413 .1659851 .31834413 .12599182 .21231079 .10798645 .1552887 .10798645 .10827637 .10798645 .019256592 .17098999-.0107421879 .22999573-.0107421879 .2689972-.0107421879 .30299378 .0062561037 .33099366 .03425598 .31799317-.017745972 .30599977-.06674194 .2659912-.11973572 .23999024-.15385437 .20199585-.18309021 .1559906-.18309021 .14199829-.18309021 .09700012-.18005371 .07998657-.14074707 .09599304-.14074707 .10899353-.14074707 .12298584-.1287384 .1329956-.11973572 .14299011-.10673523 .14299011-.08773804 .14299011-.056747438 .115997318-.052734376 .10598755-.052734376 .08299255-.052734376 .049987794-.068740848 .049987794-.11773682 .049987794-.16796875 .09399414-.20507813 .1559906-.20507813 .25898744-.20507813 .3619995-.11373901 .3899994-.00074768069L.48599244 .38136292Z"/>
</defs>
<path transform="matrix(1.00006,0,0,-1.00003,1.0959854,168.30167)" stroke-width=".19925" stroke-linecap="butt" stroke-miterlimit="10" stroke-linejoin="miter" fill="none" stroke="#7f807f" d="M5.55252 79.28084V82.1155M14.2744 79.28084V82.1155M22.99626 79.28084V82.1155M31.71814 79.28084V82.1155M40.44003 79.28084V82.1155M49.16191 79.28084V82.1155M57.88379 79.28084V82.1155M66.60568 79.28084V82.1155M75.32756 79.28084V82.1155M84.04944 79.28084V82.1155M92.77133 79.28084V82.1155M101.49321 79.28084V82.1155M110.21509 79.28084V82.1155M118.93695 79.28084V82.1155M127.65884 79.28084V82.1155M136.38074 79.28084V82.1155M145.10262 79.28084V82.1155M153.8245 79.28084V82.1155M162.54639 79.28084V82.1155M171.26828 79.28084V82.1155M179.99015 79.28084V82.1155M188.71202 79.28084V82.1155"/>
<path transform="matrix(1.00006,0,0,-1.00003,1.0959854,168.30167)" stroke-width=".19925" stroke-linecap="butt" stroke-miterlimit="10" stroke-linejoin="miter" fill="none" stroke="#7f807f" d="M14.2744 78.57237V82.82396M49.16191 78.57237V82.82396M118.93697 78.57237V82.82396M153.8245 78.57237V82.82396M188.71202 78.57237V82.82396"/>
<path transform="matrix(1.00006,0,0,-1.00003,1.0959854,168.30167)" stroke-width=".19925" stroke-linecap="butt" stroke-miterlimit="10" stroke-linejoin="miter" fill="none" stroke="#7f807f" d="M81.92361 0H86.17526M81.92361 40.34909H86.17526M81.92361 121.04727H86.17526M81.92361 161.39636H86.17526"/>
<path transform="matrix(1.00006,0,0,-1.00003,1.0959854,168.30167)" stroke-width=".3985" stroke-linecap="butt" stroke-miterlimit="10" stroke-linejoin="miter" fill="none" stroke="#000000" d="M0 80.69818H192.27117"/>
<path transform="matrix(1.00006,0,0,-1.00003,193.3787,87.60106)" d="M1.99252 0-1.19551 1.59401 0 0-1.19551-1.59401"/>
<path transform="matrix(1.00006,0,0,-1.00003,1.0959854,168.30167)" stroke-width=".3985" stroke-linecap="butt" stroke-miterlimit="10" stroke-linejoin="miter" fill="none" stroke="#000000" d="M84.04944 0V159.40384"/>
<path transform="matrix(0,-1.00003,-1.00006,-0,85.15047,8.893036)" d="M1.99252 0-1.19551 1.59401 0 0-1.19551-1.59401"/>
<use data-text="&#x2212;" xlink:href="#font_1_1" transform="matrix(9.963197,0,0,-9.962899,5.987282,99.6676)"/>
<use data-text="2" xlink:href="#font_2_3" transform="matrix(9.963197,0,0,-9.962899,13.736748,99.6676)"/>
<use data-text="&#x03c0;" xlink:href="#font_3_1" transform="matrix(9.963197,0,0,-9.962899,18.718049,99.6676)"/>
<use data-text="&#x2212;" xlink:href="#font_1_1" transform="matrix(9.963197,0,0,-9.962899,43.36752,99.058589)"/>
<use data-text="&#x03c0;" xlink:href="#font_3_1" transform="matrix(9.963197,0,0,-9.962899,51.116987,99.058589)"/>
<use data-text="&#x03c0;" xlink:href="#font_3_1" transform="matrix(9.963197,0,0,-9.962899,117.021938,97.53654)"/>
<use data-text="2" xlink:href="#font_2_3" transform="matrix(9.963197,0,0,-9.962899,149.42087,99.6676)"/>
<use data-text="&#x03c0;" xlink:href="#font_3_1" transform="matrix(9.963197,0,0,-9.962899,154.40218,99.6676)"/>
<use data-text="3" xlink:href="#font_2_4" transform="matrix(9.963197,0,0,-9.962899,184.30997,99.6676)"/>
<use data-text="&#x03c0;" xlink:href="#font_3_1" transform="matrix(9.963197,0,0,-9.962899,189.29128,99.6676)"/>
<use data-text="&#x2212;" xlink:href="#font_1_1" transform="matrix(9.963197,0,0,-9.962899,61.791627,171.09676)"/>
<use data-text="1" xlink:href="#font_2_2" transform="matrix(9.963197,0,0,-9.962899,69.54109,171.09676)"/>
<use data-text="0" xlink:href="#font_2_1" transform="matrix(9.963197,0,0,-9.962899,74.52269,171.09676)"/>
<use data-text="&#x2212;" xlink:href="#font_1_1" transform="matrix(9.963197,0,0,-9.962899,66.773929,130.74654)"/>
<use data-text="5" xlink:href="#font_2_5" transform="matrix(9.963197,0,0,-9.962899,74.52339,130.74654)"/>
<use data-text="5" xlink:href="#font_2_5" transform="matrix(9.963197,0,0,-9.962899,74.522388,50.46113)"/>
<use data-text="1" xlink:href="#font_2_2" transform="matrix(9.963197,0,0,-9.962899,69.54109,10.110916)"/>
<use data-text="0" xlink:href="#font_2_1" transform="matrix(9.963197,0,0,-9.962899,74.52269,10.110916)"/>
<path transform="matrix(1.00006,0,0,-1.00003,1.0959854,168.30167)" stroke-width=".99628" stroke-linecap="butt" stroke-miterlimit="10" stroke-linejoin="miter" fill="none" stroke="#0000ff" d="M7.85817 3.99663 7.9273 6.37627 8.0803 11.01997 8.23329 15.13898 8.38628 18.82784 8.53926 22.1418 8.69226 25.1415 8.84523 27.87169 8.99823 30.36122 9.15121 32.64932 9.3042 34.75702 9.45718 36.7033 9.61018 38.50998 9.76315 40.19252 9.91615 41.75856 10.06914 43.22775 10.22212 44.60509 10.37512 45.90048 10.5281 47.11887 10.68109 48.27202 10.83408 49.36209 10.98706 50.39406 11.14005 51.37631 11.29305 52.30919 11.44601 53.19702 11.59901 54.04597 11.752 54.85571 11.90498 55.63072 12.05797 56.37445 12.21097 57.08586 12.36394 57.77054 12.51694 58.4287 12.66992 59.06299 12.8229 59.67308 12.9759 60.26216 13.12889 60.8314 13.28188 61.38112 13.43486 61.91357 13.58786 62.42876 13.74083 62.9289 13.89383 63.41295 14.04681 63.88309 14.1998 64.34033 14.35278 64.78514 14.50578 65.21783 14.65875 65.63893 14.81175 66.04967 14.96474 66.45009 15.11772 66.84116 15.27072 67.22319 15.4237 67.59633 15.57669 67.96109 15.72968 68.31795 15.88268 68.66768 16.03564 69.00967 16.18864 69.34555 16.34163 69.6743 16.49461 69.99791 16.6476 70.31458 16.8006 70.62671 16.95357 70.93304 17.10657 71.23389 17.25954 71.53053 17.41254 71.822 17.56552 72.10962 17.7185 72.3932 17.8715 72.67241 18.02449 72.94775 18.17747 73.21906 18.33046 73.4881 18.48346 73.7528 18.63643 74.01506 18.78943 74.27443 18.94241 74.53024 19.0954 74.78365 19.24838 75.03477 19.40138 75.28333 19.55435 75.52945 19.70735 75.7738 19.86034 76.01556 20.01332 76.25574 20.16632 76.49428 20.3193 76.73071 20.47229 76.96571 20.62527 77.1991 20.77827 77.4315 20.93124 77.66214 21.08424 77.89197 21.23723 78.12051 21.39021 78.34807 21.5432 78.57451 21.6962 78.80048 21.84917 79.02528 22.00217 79.24959 22.15515 79.47362 22.30814 79.69716 22.46114 79.92027 22.61412 80.14296 22.7671 80.36562 22.92009 80.58762 23.07309 80.8097 23.22607 81.03218 23.37906 81.25452 23.53204 81.47736 23.68501 81.70049 23.83801 81.92368 23.99101 82.1479 24.14398 82.37202 24.29698 82.59715 24.44995 82.82294 24.60295 83.04971 24.75594 83.27711 24.90892 83.50566 25.06192 83.73517 25.21489 83.96645 25.36789 84.19821 25.52089 84.4316 25.67386 84.66692 25.82686 84.90352 25.97983 85.14189 26.13283 85.38188 26.28583 85.62398 26.4388 85.86784 26.5918 86.11447 26.74477 86.36285 26.89777 86.61383 27.05075 86.86723 27.20374 87.12369 27.35674 87.38242 27.5097 87.64467 27.6627 87.90967 27.81569 88.17792 27.96867 88.45036 28.12166 88.72571 28.27464 89.0046 28.42764 89.28818 28.58064 89.57544 28.73361 89.8671 28.88661 90.16406 29.03958 90.46523 29.19258 90.77141 29.34557 91.08322 29.49855 91.40034 29.65154 91.72346 29.80452 92.05305 29.95752 92.3881 30.1105 92.73091 30.26349 93.08049 30.41647 93.43718 30.56946 93.80194 30.72244 94.17558 30.87546 94.55759 31.02841 94.94835 31.18143 95.3489 31.33438 95.75935 31.4874 96.18092 31.64038 96.61346 31.79337 97.05795 31.94635 97.51535 32.09933 97.98534 32.25233 98.47081 32.40532 98.97081 32.5583 99.48566 32.71129 100.01764 32.86427 100.56831 33.01726 101.13692 33.17027 101.72603 33.32323 102.33707 33.47624 102.97119 33.6292 103.62872 33.78221 104.31384 33.9352 105.02739 34.08818 105.76932 34.24117 106.54579 34.39415 107.35551 34.54713 108.20366 34.70013 109.09262 34.85312 110.02519 35.0061 111.00743 35.15909 112.04118 35.31207 113.13046 35.46507 114.28314 35.61804 115.50298 35.77104 116.79784 35.92401 118.17554 36.07701 119.64522 36.23001 121.21349 36.38298 122.89427 36.53598 124.70271 36.68895 126.64821 36.84195 128.75974 36.99495 131.048 37.14793 133.54064 37.30092 136.26856 37.4539 139.26956 37.60689 142.58769 37.75989 146.27512 37.91286 150.39638 38.06586 155.04283 38.13507 157.42473"/>
<path transform="matrix(-.02902174,.99956008,.99959,.029020872,8.954637,164.30492)" d="M2.8892 0-1.73352 2.31136 0 0-1.73352-2.31136" fill="#0000ff"/>
<path transform="matrix(.028991739,-.99956008,-.99959,-.028990873,39.23334,10.872208)" d="M2.8892 0-1.73352 2.31136 0 0-1.73352-2.31136" fill="#0000ff"/>
<path transform="matrix(1.00006,0,0,-1.00003,1.0959854,168.30167)" stroke-width=".99628" stroke-linecap="butt" stroke-miterlimit="10" stroke-linejoin="miter" fill="none" stroke="#0000ff" d="M42.74461 3.9595 42.81393 6.3535 42.96692 10.99384 43.11992 15.11864 43.2729 18.80623 43.4259 22.12453 43.5789 25.12439 43.73189 27.8557 43.88489 30.3509 44.03787 32.6366 44.19087 34.74443 44.34386 36.69362 44.49686 38.50206 44.64984 40.18285 44.80284 41.75111 44.95583 43.2208 45.10883 44.59767 45.26181 45.89336 45.41481 47.11319 45.5678 48.26588 45.7208 49.35658 45.87378 50.38907 46.02678 51.3705 46.17978 52.30371 46.33276 53.19333 46.48576 54.04082 46.63875 54.85168 46.79175 55.6275 46.94473 56.37057 47.09773 57.08313 47.25073 57.76762 47.40373 58.42563 47.55672 59.05911 47.70972 59.67049 47.8627 60.25957 48.0157 60.8285 48.16869 61.3787 48.32169 61.91132 48.47467 62.4268 48.62767 62.92616 48.78067 63.411 48.93365 63.8813 49.08665 64.33853 49.23964 64.78319 49.39264 65.2159 49.54562 65.63713 49.69862 66.04807 49.85161 66.44847 50.00461 66.83955 50.1576 67.22157 50.3106 67.5949 50.46358 67.9593 50.61658 68.31616 50.76956 68.66606 50.92256 69.00824 51.07555 69.34425 51.22855 69.67334 51.38155 69.99614 51.53453 70.31393 51.68753 70.62573 51.84052 70.9316 51.99352 71.23293 52.1465 71.52924 52.2995 71.82089 52.45248 72.10898 52.60548 72.3919 52.75847 72.67128 52.91147 72.9468 53.06445 73.21841 53.21745 73.4873 53.37045 73.75215 53.52345 74.01457 53.67645 74.27313 53.82944 74.5296 53.98244 74.78314 54.13542 75.03397 54.28842 75.28235 54.4414 75.52898 54.5944 75.77267 54.74739 76.01509 54.90039 76.25493 55.05338 76.49362 55.20638 76.73007 55.35936 76.96507 55.51236 77.19844 55.66534 77.43039 55.81834 77.66165 55.97133 77.89116 56.12433 78.11969 56.27733 78.34727 56.43031 78.57419 56.58331 78.79997 56.7363 79.02481 56.8893 79.2491 57.04228 79.47314 57.19528 79.6963 57.34827 79.91945 57.50127 80.14247 57.65425 80.36479 57.80725 80.58713 57.96024 80.8092 58.11325 81.0317 58.26622 81.25401 58.41924 81.47688 58.5722 81.70003 58.7252 81.9232 58.87822 82.14726 59.03119 82.37152 59.1842 82.59668 59.33717 82.82278 59.49019 83.04906 59.64317 83.27664 59.79616 83.50534 59.94916 83.73468 60.10214 83.96594 60.25514 84.19789 60.40814 84.43126 60.56111 84.66626 60.71413 84.90303 60.8671 85.1414 61.02011 85.38158 61.1731 85.62366 61.3261 85.86769 61.4791 86.11414 61.63206 86.36285 61.78508 86.61366 61.93808 86.86673 62.09106 87.1232 62.24405 87.38242 62.39703 87.6445 62.55003 87.90952 62.70305 88.17792 62.85602 88.44954 63.00902 88.72571 63.162 89.00443 63.315 89.28735 63.468 89.57544 63.62099 89.8671 63.77399 90.16357 63.92697 90.46507 64.07997 90.77092 64.23297 91.0829 64.38596 91.40034 64.53896 91.72314 64.69194 92.05223 64.84492 92.38762 64.99794 92.73076 65.15091 93.08 65.30392 93.43703 65.4569 93.80194 65.60991 94.17542 65.7629 94.5571 65.91588 94.94786 66.06888 95.3489 66.22186 95.75935 66.37488 96.18092 66.52786 96.61363 66.68086 97.05795 66.83385 97.51567 66.98683 97.98534 67.13983 98.47017 67.29283 98.96985 67.44582 99.48502 67.59882 100.01732 67.75179 100.56831 67.9048 101.13692 68.0578 101.72603 68.21078 102.33722 68.36377 102.9707 68.51677 103.62935 68.66975 104.31384 68.82277 105.02576 68.97575 105.76883 69.12875 106.54579 69.28174 107.35551 69.43472 108.20366 69.58774 109.09326 69.7407 110.02583 69.89372 111.00826 70.04669 112.03975 70.19969 113.1319 70.35269 114.28314 70.50568 115.50343 70.65868 116.79866 70.81166 118.17601 70.96466 119.64635 71.11766 121.21625 71.27063 122.89703 71.42365 124.70271 71.57663 126.65094 71.72963 128.75846 71.88263 131.048 72.0356 133.54064 72.18861 136.27242 72.34158 139.2718 72.4946 142.5901 72.64758 146.28334 72.80058 150.4025 72.95357 155.05413 73.02287 157.43828"/>
<path transform="matrix(-.028961737,.99956008,.99959,.02896087,43.84316,164.34204)" d="M2.8892 0-1.73352 2.31136 0 0-1.73352-2.31136" fill="#0000ff"/>
<path transform="matrix(.028961737,-.99956008,-.99959,-.02896087,74.12324,10.858658)" d="M2.8892 0-1.73352 2.31136 0 0-1.73352-2.31136" fill="#0000ff"/>
<path transform="matrix(1.00006,0,0,-1.00003,1.0959854,168.30167)" stroke-width=".99628" stroke-linecap="butt" stroke-miterlimit="10" stroke-linejoin="miter" fill="none" stroke="#0000ff" d="M77.63222 3.96355 77.70152 6.3535 77.85452 10.99995 78.00752 15.11864 78.1605 18.80864 78.3135 22.12453 78.46649 25.12439 78.61949 27.8557 78.77246 30.3509 78.92546 32.63788 79.07845 34.74718 79.23145 36.69362 79.38443 38.50206 79.53743 40.1838 79.69041 41.75177 79.84341 43.22192 79.99638 44.5985 80.14938 45.8929 80.30237 47.11319 80.45537 48.26588 80.60837 49.35658 80.76135 50.3889 80.91435 51.37114 81.06734 52.30371 81.22032 53.19284 81.3733 54.04082 81.5263 54.8515 81.67929 55.6275 81.83229 56.37057 81.98528 57.08296 82.13828 57.7673 82.29126 58.42563 82.44424 59.05975 82.59723 59.67049 82.75023 60.26006 82.90323 60.8285 83.05621 61.3792 83.20921 61.91068 83.3622 62.4268 83.51518 62.92552 83.66817 63.411 83.82117 63.8813 83.97415 64.33838 84.12715 64.78319 84.28014 65.2159 84.43314 65.63713 84.58612 66.04807 84.7391 66.44847 84.89209 66.83955 85.04509 67.22092 85.19807 67.59439 85.35107 67.9593 85.50407 68.31665 85.65706 68.66557 85.81004 69.00824 85.96303 69.34425 86.11603 69.67334 86.26901 69.99614 86.42201 70.31343 86.575 70.62541 86.728 70.9316 86.88098 71.23276 87.03398 71.52924 87.18695 71.82089 87.33995 72.10898 87.49294 72.3919 87.64594 72.67128 87.79893 72.9468 87.95192 73.21841 88.10492 73.48682 88.25789 73.75215 88.41089 74.0141 88.56387 74.27313 88.71687 74.52927 88.86986 74.78267 89.02286 75.03365 89.17584 75.2822 89.32884 75.52864 89.48181 75.77267 89.63481 76.01477 89.7878 76.25493 89.9408 76.49362 90.09378 76.73007 90.24678 76.96507 90.39978 77.19844 90.55276 77.43039 90.70575 77.66133 90.85873 77.89116 91.01173 78.11922 91.16472 78.34727 91.31772 78.57355 91.4707 78.79967 91.6237 79.02481 91.77669 79.24892 91.92967 79.4728 92.08266 79.6963 92.23566 79.91945 92.38864 80.14232 92.54164 80.36464 92.69463 80.5868 92.84763 80.80905 93.00063 81.03154 93.1536 81.25386 93.3066 81.47655 93.45956 81.69986 93.61258 81.92305 93.76556 82.14723 93.91855 82.37105 94.07155 82.59636 94.22453 82.82214 94.37752 83.04906 94.53053 83.27614 94.6835 83.50484 94.8365 83.73453 94.98947 83.96562 95.14249 84.19771 95.29549 84.43126 95.44846 84.6661 95.60146 84.90271 95.75443 85.14091 95.90744 85.38126 96.06042 85.62317 96.21341 85.86737 96.36641 86.11398 96.5194 86.36237 96.67238 86.61319 96.8254 86.86673 96.97836 87.12286 97.13136 87.38176 97.28433 87.64401 97.43735 87.9087 97.59033 88.17792 97.74332 88.44939 97.89633 88.7249 98.0493 89.0041 98.2023 89.2872 98.35529 89.57481 98.50827 89.86661 98.66127 90.16309 98.81425 90.46458 98.96724 90.7706 99.12025 91.0824 99.27322 91.39972 99.42622 91.72269 99.5792 92.05176 99.73221 92.38747 99.8852 92.72978 100.03818 93.07968 100.19118 93.43639 100.34416 93.80128 100.49716 94.1746 100.65016 94.55632 100.80315 94.94737 100.95613 95.3478 101.10912 95.75887 101.2621 96.1798 101.41512 96.61266 101.56808 97.05731 101.72108 97.51485 101.87405 97.98502 102.02707 98.46935 102.18005 98.96904 102.33304 99.48407 102.48604 100.0165 102.63902 100.56735 102.79202 101.13596 102.94502 101.72456 103.098 102.33575 103.25099 102.96974 103.40398 103.62775 103.55698 104.3132 103.70998 105.0256 103.86295 105.76788 104.01595 106.54385 104.16891 107.3544 104.32193 108.20172 104.47491 109.09055 104.6279 110.02437 104.7809 111.0055 104.93388 112.0386 105.08687 113.12883 105.23988 114.2817 105.39287 115.50053 105.54585 116.79512 105.69884 118.17441 105.85184 119.6415 106.00484 121.21252 106.1578 122.89299 106.3108 124.69948 106.46378 126.64674 106.61679 128.757 106.76978 131.04189 106.92276 133.53417 107.07576 136.26387 107.22874 139.26844 107.38173 142.58769 107.53474 146.27512 107.68771 150.39347 107.84071 155.03588 107.91002 157.42473"/>
<path transform="matrix(-.028961737,.99956008,.99959,.02896087,78.73286,164.338)" d="M2.8892 0-1.73352 2.31136 0 0-1.73352-2.31136" fill="#0000ff"/>
<path transform="matrix(.028961737,-.99956008,-.99959,-.02896087,109.012477,10.872208)" d="M2.8892 0-1.73352 2.31136 0 0-1.73352-2.31136" fill="#0000ff"/>
<path transform="matrix(1.00006,0,0,-1.00003,1.0959854,168.30167)" stroke-width=".99628" stroke-linecap="butt" stroke-miterlimit="10" stroke-linejoin="miter" fill="none" stroke="#0000ff" d="M112.5196 3.95805 112.58893 6.34932 112.74193 10.99384 112.89491 15.11299 113.04791 18.80087 113.2009 22.12453 113.3539 25.12439 113.50688 27.8557 113.65988 30.34929 113.81287 32.6366 113.96587 34.74539 114.11885 36.69264 114.27185 38.49979 114.42484 40.18057 114.57784 41.75111 114.73083 43.22032 114.88382 44.59767 115.03682 45.8929 115.1898 47.11319 115.3428 48.26443 115.49579 49.35596 115.64879 50.38808 115.80177 51.37114 115.95477 52.30371 116.10776 53.19284 116.26076 54.04082 116.41374 54.85054 116.56674 55.628 116.71973 56.36945 116.87273 57.08296 117.02573 57.7673 117.17871 58.42563 117.33171 59.05975 117.4847 59.67 117.63771 60.25941 117.7907 60.8285 117.9437 61.37901 118.09668 61.91083 118.24968 62.4265 118.40266 62.9268 118.55566 63.41115 118.70865 63.88098 118.86165 64.33838 119.01463 64.78319 119.16763 65.21541 119.32062 65.63713 119.47362 66.04742 119.62662 66.44847 119.7796 66.83923 119.9326 67.22092 120.08559 67.59439 120.23859 67.9593 120.39157 68.31616 120.54457 68.66557 120.69756 69.00824 120.85056 69.3441 121.00354 69.67319 121.15654 69.99614 121.30952 70.31343 121.46252 70.62541 121.61551 70.9316 121.76851 71.23293 121.9215 71.52924 122.0745 71.82138 122.2275 72.10866 122.38048 72.3919 122.53348 72.67128 122.68646 72.9468 122.83946 73.21841 122.99245 73.48682 123.14546 73.75215 123.29845 74.0141 123.45145 74.27313 123.60443 74.52927 123.75743 74.78267 123.91042 75.03348 124.06342 75.2822 124.2164 75.52864 124.3694 75.77267 124.52238 76.01509 124.67538 76.25493 124.82838 76.49362 124.98137 76.73007 125.13437 76.96507 125.28735 77.19862 125.44035 77.43039 125.59334 77.66165 125.74634 77.89116 125.89932 78.11969 126.05232 78.34727 126.2053 78.57355 126.3583 78.79967 126.51129 79.02481 126.66429 79.2491 126.81728 79.47314 126.97028 79.6963 127.12328 79.91945 127.27626 80.14232 127.42926 80.36464 127.58224 80.58713 127.73524 80.8092 127.88824 81.03154 128.04123 81.25386 128.19423 81.47688 128.34722 81.69986 128.5002 81.92354 128.65322 82.14723 128.80619 82.37152 128.9592 82.59636 129.11217 82.82278 129.26519 83.04906 129.41817 83.27664 129.57115 83.50517 129.72417 83.73468 129.87714 83.96562 130.03015 84.19771 130.18314 84.43143 130.33612 84.66626 130.48912 84.90271 130.6421 85.14108 130.7951 85.38126 130.9481 85.62366 131.10108 85.86769 131.25409 86.11414 131.40706 86.36237 131.56008 86.61366 131.71308 86.86673 131.86606 87.1232 132.01905 87.38225 132.17203 87.64418 132.32505 87.90904 132.47805 88.17792 132.63103 88.44954 132.78401 88.72505 132.93701 89.00443 133.09 89.28767 133.24301 89.57498 133.39598 89.8671 133.549 90.16357 133.70197 90.46507 133.85497 90.77092 134.00797 91.0824 134.16095 91.4002 134.31395 91.72299 134.46694 92.05223 134.61992 92.3881 134.77294 92.73076 134.92592 93.08 135.07892 93.43703 135.2319 93.80226 135.3849 94.17542 135.5379 94.5571 135.69087 94.94786 135.84389 95.3489 135.99686 95.75887 136.14987 96.17995 136.30286 96.61346 136.45584 97.05795 136.60884 97.51503 136.76183 97.98534 136.91483 98.47081 137.06783 98.96985 137.22081 99.48502 137.37381 100.01732 137.5268 100.56783 137.6798 101.13692 137.83281 101.72603 137.98578 102.33658 138.13878 102.97119 138.29175 103.62872 138.44477 104.31337 138.59777 105.02689 138.75075 105.76883 138.90373 106.54483 139.05673 107.35551 139.20972 108.20366 139.36273 109.092 139.5157 110.0263 139.66872 111.00728 139.8217 112.03975 139.97469 113.1319 140.1277 114.28474 140.28067 115.50343 140.43369 116.79784 140.58666 118.17554 140.73966 119.64326 140.89266 121.21576 141.04564 122.89703 141.19864 124.70271 141.35163 126.65094 141.50463 128.75846 141.65763 131.04706 141.8106 133.54064 141.96361 136.27242 142.11658 139.2718 142.26959 142.5901 142.42259 146.28334 142.57558 150.4025 142.72858 155.04654 142.79788 157.43279"/>
<path transform="matrix(-.028961737,.99956008,.99959,.02896087,113.62233,164.34349)" d="M2.8892 0-1.73352 2.31136 0 0-1.73352-2.31136" fill="#0000ff"/>
<path transform="matrix(.028961737,-.99956008,-.99959,-.02896087,143.90244,10.864151)" d="M2.8892 0-1.73352 2.31136 0 0-1.73352-2.31136" fill="#0000ff"/>
<path transform="matrix(1.00006,0,0,-1.00003,1.0959854,168.30167)" stroke-width=".99628" stroke-linecap="butt" stroke-miterlimit="10" stroke-linejoin="miter" fill="none" stroke="#0000ff" d="M147.40721 3.96355 147.47653 6.3535 147.62952 10.99384 147.7825 15.11864 147.93549 18.80623 148.08849 22.12453 148.24146 25.12828 148.39446 27.8557 148.54744 30.34833 148.70043 32.63788 148.85343 34.74539 149.00641 36.69118 149.1594 38.50206 149.31238 40.18008 149.46538 41.75177 149.61835 43.21965 149.77135 44.59767 149.92433 45.8929 150.07732 47.11159 150.2303 48.26443 150.3833 49.35658 150.53627 50.38808 150.68927 51.3705 150.84226 52.30307 150.99524 53.19267 151.14824 54.03952 151.30123 54.85054 151.45421 55.62686 151.6072 56.36894 151.7602 57.08151 151.91316 57.76633 152.06616 58.42484 152.21915 59.05879 152.37213 59.67032 152.52512 60.2591 152.67812 60.8277 152.83109 61.3782 152.98409 61.91068 153.13707 62.42552 153.29006 62.92552 153.44304 63.4102 153.59603 63.88034 153.74903 64.33806 153.90201 64.7824 154.055 65.21541 154.20798 65.63649 154.36098 66.04742 154.51395 66.44768 154.66695 66.83923 154.81993 67.22075 154.97292 67.59375 155.1259 67.95883 155.2789 68.31567 155.43187 68.66512 155.58487 69.00775 155.73786 69.34329 155.89084 69.67255 156.04384 69.99599 156.19683 70.31296 156.34981 70.62462 156.50279 70.93079 156.65579 71.23227 156.80876 71.52892 156.96176 71.82089 157.11475 72.10815 157.26773 72.39108 157.42072 72.67064 157.57372 72.94597 157.72669 73.21794 157.87969 73.48634 158.03267 73.75183 158.18566 74.01361 158.33864 74.27264 158.49164 74.52832 158.64463 74.7825 158.7976 75.03299 158.9506 75.28186 159.10358 75.52815 159.25658 75.77235 159.40956 76.01445 159.56255 76.25444 159.71553 76.49283 159.86852 76.72943 160.0215 76.96426 160.1745 77.19797 160.32747 77.42989 160.48047 77.66068 160.63346 77.89035 160.78644 78.11922 160.93944 78.34662 161.09243 78.5734 161.2454 78.79918 161.39839 79.02432 161.55139 79.24844 161.70436 79.47234 161.85736 79.69585 162.01035 79.91881 162.16333 80.14182 162.31632 80.36415 162.46932 80.5863 162.62229 80.80858 162.7753 81.03088 162.92826 81.25339 163.08127 81.47606 163.23424 81.699 163.38724 81.92252 163.54024 82.14642 163.6932 82.37056 163.8462 82.59586 163.99918 82.8215 164.15218 83.04826 164.30516 83.27582 164.45815 83.50436 164.61113 83.73402 164.76412 83.96484 164.9171 84.19693 165.0701 84.43045 165.22307 84.66513 165.37607 84.90205 165.52904 85.14046 165.68206 85.3806 165.83506 85.62254 165.98802 85.86641 166.14102 86.11269 166.29398 86.36142 166.44699 86.61237 166.59998 86.86609 166.75296 87.1219 166.90595 87.38095 167.05893 87.64322 167.21192 87.90823 167.36492 88.17662 167.51789 88.44858 167.67089 88.72409 167.82386 89.00298 167.97686 89.28606 168.12987 89.574 168.28282 89.8658 168.43584 90.16245 168.58879 90.46329 168.7418 90.76945 168.89479 91.08145 169.04778 91.39874 169.20076 91.72122 169.35375 92.05095 169.50673 92.38617 169.65973 92.72865 169.8127 93.07838 169.9657 93.43524 170.11867 93.79984 170.27167 94.17314 170.42465 94.55518 170.57764 94.94624 170.73064 95.3465 170.8836 95.7574 171.03662 96.17833 171.1896 96.61104 171.34259 97.05553 171.49558 97.51276 171.64856 97.98291 171.80155 98.46791 171.95455 98.96712 172.10752 99.48244 172.26052 100.01424 172.41349 100.56493 172.56649 101.13304 172.71947 101.72261 172.87245 102.33302 173.02545 102.96733 173.17842 103.62534 173.33142 104.31015 173.48442 105.02238 173.63739 105.76416 173.79039 106.54062 173.94336 107.35036 174.09636 108.19849 174.24936 109.08714 174.40233 110.02048 174.55533 111.00114 174.7083 112.03424 174.8613 113.12431 175.01428 114.27667 175.16727 115.49585 175.32025 116.79124 175.47324 118.16763 175.62624 119.63585 175.77924 121.20381 175.9322 122.883 176.0852 124.68967 176.23818 126.63705 176.39118 128.74701 176.54418 131.03156 176.69715 133.52465 176.85015 136.25484 177.00312 139.25453 177.15612 142.5685 177.3091 146.25188 177.46208 150.37638 177.61507 155.01491 177.68437 157.40085"/>
<path transform="matrix(-.028961737,.99956008,.99959,.02896087,148.51203,164.338)" d="M2.8892 0-1.73352 2.31136 0 0-1.73352-2.31136" fill="#0000ff"/>
<path transform="matrix(.028961737,-.99956008,-.99959,-.02896087,178.79102,10.896088)" d="M2.8892 0-1.73352 2.31136 0 0-1.73352-2.31136" fill="#0000ff"/>
<path transform="matrix(1.00006,0,0,-1.00003,1.0959854,168.30167)" stroke-width=".3985" stroke-linecap="butt" stroke-dasharray="2.98883,2.98883" stroke-miterlimit="10" stroke-linejoin="miter" fill="none" stroke="#ff0000" d="M5.55331 0V161.39636"/>
<path transform="matrix(1.00006,0,0,-1.00003,1.0959854,168.30167)" stroke-width=".3985" stroke-linecap="butt" stroke-dasharray="2.98883,2.98883" stroke-miterlimit="10" stroke-linejoin="miter" fill="none" stroke="#ff0000" d="M40.43993 0V161.39636"/>
<path transform="matrix(1.00006,0,0,-1.00003,1.0959854,168.30167)" stroke-width=".3985" stroke-linecap="butt" stroke-dasharray="2.98883,2.98883" stroke-miterlimit="10" stroke-linejoin="miter" fill="none" stroke="#ff0000" d="M75.32755 0V161.39636"/>
<path transform="matrix(1.00006,0,0,-1.00003,1.0959854,168.30167)" stroke-width=".3985" stroke-linecap="butt" stroke-dasharray="2.98883,2.98883" stroke-miterlimit="10" stroke-linejoin="miter" fill="none" stroke="#ff0000" d="M110.21494 0V161.39636"/>
<path transform="matrix(1.00006,0,0,-1.00003,1.0959854,168.30167)" stroke-width=".3985" stroke-linecap="butt" stroke-dasharray="2.98883,2.98883" stroke-miterlimit="10" stroke-linejoin="miter" fill="none" stroke="#ff0000" d="M145.10253 0V161.39636"/>
<path transform="matrix(1.00006,0,0,-1.00003,1.0959854,168.30167)" stroke-width=".3985" stroke-linecap="butt" stroke-dasharray="2.98883,2.98883" stroke-miterlimit="10" stroke-linejoin="miter" fill="none" stroke="#ff0000" d="M179.98915 0V161.39636"/>
<use data-text="(" xlink:href="#font_4_85" transform="matrix(9.963197,0,0,-9.962899,7.759384,9.390884)"/>
<use data-text="A" xlink:href="#font_4_27" transform="matrix(9.963197,0,0,-9.962899,11.635063,9.390884)"/>
<use data-text=")" xlink:href="#font_4_86" transform="matrix(9.963197,0,0,-9.962899,19.10746,9.390884)"/>
<use data-text="x" xlink:href="#font_3_2" transform="matrix(9.963197,0,0,-9.962899,186.15708,84.08113)"/>
<use data-text="y" xlink:href="#font_3_3" transform="matrix(9.963197,0,0,-9.962899,88.670238,14.7100529)"/>
</svg>
