<svg xmlns="http://www.w3.org/2000/svg" xmlns:xlink="http://www.w3.org/1999/xlink" version="1.1" width="251" height="205" viewBox="0 0 251 205">
<defs>
<path id="font_1_1" d="M.6589966 .23046875C.6759949 .23046875 .69400027 .23046875 .69400027 .25045777 .69400027 .27046205 .6759949 .27046205 .6589966 .27046205H.117996219C.100997928 .27046205 .08299255 .27046205 .08299255 .25045777 .08299255 .23046875 .100997928 .23046875 .117996219 .23046875H.6589966Z"/>
<path id="font_2_1" d="M.31098939 .36265565H.42999269C.4149933 .30274964 .3929901 .2118988 .3929901 .13302613 .3929901 .09309387 .397995 .06613159 .4039917 .044174196 .41999818-.0057678224 .43299867-.009765625 .44898988-.009765625 .47200013-.009765625 .49598695 .011230469 .49598695 .035186769 .49598695 .043182374 .49398805 .047164918 .48799134 .057159425 .46899415 .09408569 .45098878 .15100098 .45098878 .23286438 .45098878 .25183106 .45098878 .29177857 .46499635 .36265565H.58999636C.60798647 .36265565 .6159973 .36265565 .6269989 .37065126 .6409912 .380661 .6439972 .39665223 .6439972 .4016571 .6439972 .43066407 .6179962 .43066407 .6009979 .43066407H.22399903C.18299866 .43066407 .15499878 .42166139 .10998535 .37965394 .083999637 .35665895 .04499817 .30274964 .04499817 .2937622 .04499817 .28178407 .057998659 .28178407 .06199646 .28178407 .07299805 .28178407 .07398987 .28378297 .07998657 .2927704 .1309967 .36265565 .19299317 .36265565 .21499634 .36265565H.27598573C.24499512 .25283814 .19099427 .13502503 .16099549 .07511902 .15499878 .062149049 .14498902 .04118347 .14199829 .03718567 .14099121 .033187868 .13899231 .029190064 .13899231 .022201539 .13899231 .006225586 .15098572-.009765625 .17399597-.009765625 .21398926-.009765625 .22499085 .035186769 .24899292 .12504578L.31098939 .36265565Z"/>
<path id="font_3_1" d="M.5049896 .18203736H.47099305C.46798707 .16001892 .45799256 .100997928 .44499208 .09098816 .43699647 .084991458 .3600006 .084991458 .34599305 .084991458H.1619873C.2669983 .17803955 .3019867 .20603943 .3619995 .25306703 .43598939 .312088 .5049896 .374115 .5049896 .46914674 .5049896 .5900879 .39898683 .6640625 .2709961 .6640625 .14698792 .6640625 .06298828 .57710269 .06298828 .4851532 .06298828 .43414308 .10598755 .42915345 .115997318 .42915345 .13999939 .42915345 .16899109 .44615174 .16899109 .48214723 .16899109 .5001526 .1619873 .53515627 .10998535 .53515627 .14099121 .6060791 .20899964 .62805178 .2559967 .62805178 .35598756 .62805178 .4079895 .5501404 .4079895 .46914674 .4079895 .38212586 .34599305 .3130951 .31399537 .27708436L.07299805 .038986207C.06298828 .02999878 .06298828 .027999878 .06298828 0H.47499085L.5049896 .18203736Z"/>
<path id="font_4_1" d="M.2939911 .64004519C.2939911 .66400149 .2939911 .6660156 .2709961 .6660156 .20899964 .60227969 .12098694 .60227969 .08898926 .60227969V.57128909C.10899353 .57128909 .16799927 .57128909 .21998596 .5972748V.07902527C.21998596 .042999269 .21699524 .0309906 .1269989 .0309906H.09498596V0C.12998963 .0029907227 .21699524 .0029907227 .25698854 .0029907227 .29699708 .0029907227 .38398744 .0029907227 .4189911 0V.0309906H.3869934C.29699708 .0309906 .2939911 .041992189 .2939911 .07902527V.64004519Z"/>
<path id="font_5_2" d="M.5179901 .37738038C.5219879 .39138795 .5219879 .39338685 .5219879 .40039063 .5219879 .42539979 .5019989 .43139649 .48999024 .43139649 .4850006 .43139649 .46199037 .43040467 .44898988 .40438844 .44699098 .3993988 .43798829 .3633728 .43299867 .34236146L.37298585 .102264408C.37199403 .09925842 .32899476 .018234253 .2559967 .018234253 .20698548 .018234253 .18998719 .054244996 .18998719 .09925842 .18998719 .1572876 .22399903 .24632263 .24699402 .3043518 .25698854 .32936097 .2599945 .33836366 .2599945 .35636903 .2599945 .4113922 .21598816 .44140626 .16999817 .44140626 .070999149 .44140626 .02999878 .300354 .02999878 .28834535 .02999878 .27934266 .036987306 .27534486 .04499817 .27534486 .057998659 .27534486 .05899048 .28134156 .06199646 .29135133 .08799744 .37838746 .1309967 .4133911 .16699219 .4133911 .18199158 .4133911 .19099427 .4033966 .19099427 .38038636 .19099427 .359375 .18299866 .33636476 .17599488 .31835938 .1349945 .21231079 .117996219 .1612854 .117996219 .11427307 .117996219 .016220093 .19198609-.009765625 .25099183-.009765625 .2979889-.009765625 .33198548 .011230469 .35598756 .034240724 .34199525-.021774292 .33198548-.060791017 .2939911-.108795169 .26098634-.14985657 .22099304-.17610169 .17599488-.17610169 .15899658-.17610169 .12098694-.17308045 .100997928-.14279175 .1539917-.13879395 .1579895-.09379578 .1579895-.08778381 .1579895-.06378174 .13999939-.05078125 .11898804-.05078125 .09700012-.05078125 .06199646-.0677948 .06199646-.11679077 .06199646-.1639862 .10499573-.20410156 .17599488-.20410156 .27799989-.20410156 .3929901-.121795658 .4229889-.00077819827L.5179901 .37738038Z"/>
<path id="font_6_1" d="M.73098757 .3330078C.74598696 .3330078 .7659912 .3330078 .7659912 .3560028 .7659912 .3789978 .74198916 .3789978 .72698977 .3789978H.09799194C.08299255 .3789978 .05899048 .3789978 .05899048 .3560028 .05899048 .3330078 .07899475 .3330078 .09399414 .3330078H.73098757M.72698977 .12098694C.74198916 .12098694 .7659912 .12098694 .7659912 .14398194 .7659912 .16699219 .74598696 .16699219 .73098757 .16699219H.09399414C.07899475 .16699219 .05899048 .16699219 .05899048 .14398194 .05899048 .12098694 .08299255 .12098694 .09799194 .12098694H.72698977Z"/>
<path id="font_6_4" d="M.35598756 .4202881C.35598756 .4362793 .35598756 .44628907 .34298707 .44628907 .33799745 .44628907 .33499146 .44628907 .31900025 .4302826 .31698609 .4292755 .30799867 .4202881 .30499269 .4202881 .3039856 .4202881 .3019867 .4202881 .29599 .4242859 .27999879 .43528749 .25099183 .44628907 .20599365 .44628907 .06599426 .44628907 .034988405 .37026979 .034988405 .32226563 .034988405 .27226258 .07199097 .24325562 .07499695 .24024964 .114990238 .21025086 .13798523 .20625305 .20498657 .19424439 .2519989 .18525696 .32899476 .17124939 .32899476 .10324097 .32899476 .0642395 .30299378 .018234253 .21099854 .018234253 .10998535 .018234253 .08099365 .09623718 .067993167 .14924622 .06399536 .1622467 .06298828 .16725159 .050994874 .16725159 .034988405 .16725159 .034988405 .15924073 .034988405 .14024353V.016220093C.034988405 .00022888184 .034988405-.009765625 .04798889-.009765625 .053985597-.009765625 .054992677-.008773804 .07299805 .010223389 .07798767 .0152282719 .08898926 .02822876 .09399414 .033233644 .13899231-.0077667238 .18598938-.009765625 .21199036-.009765625 .33898927-.009765625 .3829956 .06323242 .3829956 .12924195 .3829956 .1772461 .35398866 .24725342 .23498535 .2692566 .22698975 .2712555 .17098999 .28126527 .16699219 .28126527 .13598633 .28826905 .08898926 .30926515 .08898926 .34927369 .08898926 .37927247 .11099243 .4212799 .20599365 .4212799 .31799317 .4212799 .32299806 .33926393 .32499696 .31126405 .32598878 .30326844 .33299256 .30026246 .33999635 .30026246 .35598756 .30026246 .35598756 .30726625 .35598756 .32626344V.4202881Z"/>
<path id="font_6_2" d="M.19499207 .61586C.19499207 .64486697 .17199707 .671875 .13899231 .671875 .10998535 .671875 .083999637 .64886477 .083999637 .61686709 .083999637 .5818634 .11299133 .5608673 .13899231 .5608673 .17399597 .5608673 .19499207 .58987429 .19499207 .61586M.04499817 .43040467V.3973999C.10899353 .3973999 .117996219 .39138795 .117996219 .34233094V.078048709C.117996219 .032989503 .10598755 .032989503 .041992189 .032989503V0C.08099365 .0029907227 .13699341 .0029907227 .1519928 .0029907227 .16499329 .0029907227 .22499085 .0029907227 .2599945 0V.032989503C.19499207 .032989503 .19099427 .037994386 .19099427 .077041629V.44140626L.04499817 .43040467Z"/>
<path id="font_6_3" d="M.48599244 .3032837C.48599244 .38737489 .44799806 .44140626 .34298707 .44140626 .24398804 .44140626 .19898987 .36935426 .18699646 .34532167H.18598938V.44140626L.040985109 .43040467V.39738465C.10899353 .39738465 .116989139 .39038087 .116989139 .34132386V.07803345C.116989139 .032989503 .10499573 .032989503 .040985109 .032989503V0C.083999637 .0029907227 .12799073 .0029907227 .15499878 .0029907227 .18399048 .0029907227 .22599793 .0029907227 .2689972 0V.032989503C.20498657 .032989503 .19299317 .032989503 .19299317 .07803345V.25923158C.19299317 .36434938 .272995 .4133911 .33399964 .4133911 .394989 .4133911 .4099884 .37036134 .4099884 .3072815V.07803345C.4099884 .032989503 .397995 .032989503 .33399964 .032989503V0C.3769989 .0029907227 .42099 .0029907227 .44799806 .0029907227 .47698976 .0029907227 .5189972 .0029907227 .56199648 0V.032989503C.49798585 .032989503 .48599244 .032989503 .48599244 .07803345V.3032837Z"/>
<path id="font_5_1" d="M.5009918 .39942933C.45700074 .38842774 .45498658 .34942628 .45498658 .34542848 .45498658 .3234253 .47200013 .3084259 .49398805 .3084259 .5159912 .3084259 .5499878 .3254242 .5499878 .36842347 .5499878 .42539979 .4869995 .44140626 .44999696 .44140626 .40299989 .44140626 .36499024 .4084015 .34199525 .36943055 .31999208 .4223938 .2679901 .44140626 .22698975 .44140626 .117996219 .44140626 .056991579 .31643678 .056991579 .28840638 .056991579 .27938844 .06399536 .27539063 .07199097 .27539063 .083999637 .27539063 .085998538 .2803955 .08898926 .29240418 .11199951 .36543275 .17199707 .4133911 .22399903 .4133911 .2630005 .4133911 .28199769 .385437 .28199769 .34942628 .28199769 .32943727 .269989 .2834015 .2619934 .25135804 .25498963 .22232056 .23298645 .13320923 .22799683 .11419678 .21398926 .060195924 .17799378 .018234253 .1329956 .018234253 .1289978 .018234253 .102996829 .018234253 .08198547 .032196046 .12799073 .04319763 .12799073 .08518982 .12799073 .0861969 .12799073 .109191898 .10998535 .12319946 .08799744 .12319946 .06098938 .12319946 .03199768 .10018921 .03199768 .062194826 .03199768 .016220093 .08099365-.009765625 .13198853-.009765625 .18499756-.009765625 .22200012 .030197144 .23999024 .062194826 .2619934 .01322937 .30799867-.009765625 .35598756-.009765625 .46499635-.009765625 .5249939 .1151886 .5249939 .143219 .5249939 .15322876 .5169983 .15623474 .5099945 .15623474 .49798585 .15623474 .49598695 .14923096 .49299623 .13922119 .47299195 .07218933 .41600038 .018234253 .35798646 .018234253 .32499696 .018234253 .30099488 .04019165 .30099488 .0821991 .30099488 .10218811 .30699159 .12519837 .32099916 .18127442 .32798768 .21130371 .34999085 .29942323 .35499574 .31843568 .36898805 .37042237 .4039917 .4133911 .44898988 .4133911 .45399476 .4133911 .47999574 .4133911 .5009918 .39942933Z"/>
<path id="font_7_1" d="M.41299439-1.1491852C.41299439-1.1451874 .41099549-1.1431885 .40899659-1.1401825 .36299134-1.0911713 .29499818-1.0101624 .25299073-.84713748 .22999573-.7561188 .22099304-.65309146 .22099304-.56007388 .22099304-.2970276 .28399659-.11299133 .4039917 .017044068 .41299439 .026031495 .41299439 .028030396 .41299439 .030029297 .41299439 .040039064 .40499879 .040039064 .40098573 .040039064 .38598634 .040039064 .33198548-.019973755 .31900025-.034973146 .21699524-.1559906 .1519928-.33602906 .1519928-.5590668 .1519928-.7010956 .1769867-.9021454 .30799867-1.071167 .31799317-1.0831757 .3829956-1.1591797 .40098573-1.1591797 .40499879-1.1591797 .41299439-1.1591797 .41299439-1.1491852Z"/>
<path id="font_8_1" d="M.20298767 .0009918213C.20298767 .066986087 .17799378 .10598755 .13899231 .10598755 .10598755 .10598755 .085998538 .08099365 .085998538 .052993776 .085998538 .025985718 .10598755 0 .13899231 0 .15098572 0 .1639862 .0039978029 .17399597 .0129852299 .1769867 .01499939 .17799378 .015991211 .1789856 .015991211 .17999268 .015991211 .18099976 .01499939 .18099976 .0009918213 .18099976-.07316589 .1459961-.13328552 .11299133-.16635132 .101989749-.17736817 .101989749-.17936707 .101989749-.18237305 .101989749-.18936157 .10699463-.19335938 .11199951-.19335938 .12298584-.19335938 .20298767-.116256717 .20298767 .0009918213Z"/>
<path id="font_7_2" d="M.30499269-.56007388C.30499269-.41804505 .27999879-.2170105 .14898682-.047973634 .13899231-.035964967 .07398987 .040039064 .055999757 .040039064 .050994874 .040039064 .04399109 .038024904 .04399109 .030029297 .04399109 .026031495 .04598999 .023025513 .049987794 .02003479 .09799194-.031967164 .16299439-.11299133 .20399475-.27201844 .22698975-.3630371 .23599243-.4660492 .23599243-.5590668 .23599243-.6600952 .22698975-.7621155 .20098877-.86013796 .16299439-1.0001679 .10398865-1.0801697 .052993776-1.1361847 .04399109-1.1451874 .04399109-1.1471863 .04399109-1.1491852 .04399109-1.1571808 .050994874-1.1591797 .055999757-1.1591797 .070999149-1.1591797 .12599182-1.098175 .13798523-1.0841827 .23999024-.96315 .30499269-.7831116 .30499269-.56007388Z"/>
<path id="font_9_1" d="M.79599 .22436524C.81199648 .22436524 .83699038 .22436524 .83699038 .2503662 .83699038 .2763672 .81199648 .2763672 .79599 .2763672H.1659851C.1499939 .2763672 .125 .2763672 .125 .2503662 .125 .22436524 .1499939 .22436524 .1659851 .22436524H.79599Z"/>
<path id="font_10_1" d="M.35899354 .6349335C.35899354 .66503909 .35499574 .66503909 .32499696 .66503909 .25898744 .60058596 .15699768 .60058596 .12098694 .60058596V.5615845C.14698792 .5615845 .21299744 .5615845 .272995 .58958438V.08496094C.272995 .051986696 .272995 .038986207 .16999817 .038986207H.1269989V0C.18199158 .0039978029 .2599945 .0039978029 .31599427 .0039978029 .37199403 .0039978029 .44999696 .0039978029 .5049896 0V.038986207H.46199037C.35899354 .038986207 .35899354 .051986696 .35899354 .08496094V.6349335Z"/>
<path id="font_8_2" d="M.33399964 .30233766C.33999635 .32835389 .36299134 .42037965 .43299867 .42037965 .43798829 .42037965 .46199037 .42037965 .48298646 .40734864 .45498658 .402359 .43499757 .37734986 .43499757 .35334779 .43499757 .33735658 .44599916 .31835938 .47299195 .31835938 .49499513 .31835938 .5269928 .3363495 .5269928 .37635804 .5269928 .42837525 .46798707 .4423828 .43399049 .4423828 .37599183 .4423828 .34098817 .38935853 .32899476 .36634828 .3039856 .43237306 .25 .4423828 .22099304 .4423828 .116989139 .4423828 .05999756 .3133545 .05999756 .28834535 .05999756 .27833558 .069992069 .27833558 .07199097 .27833558 .07998657 .27833558 .08299255 .28033448 .084991458 .28933717 .11898804 .39535523 .18499756 .42037965 .21899414 .42037965 .23799134 .42037965 .272995 .4113617 .272995 .35334779 .272995 .32235719 .2559967 .25532533 .21899414 .11528015 .20298767 .053268434 .16799927 .011245728 .12399292 .011245728 .117996219 .011245728 .09498596 .011245728 .07398987 .024276734 .09899902 .029266358 .12098694 .05027771 .12098694 .07827759 .12098694 .105270389 .09899902 .11328125 .083999637 .11328125 .053985597 .11328125 .0289917 .08728027 .0289917 .055267335 .0289917 .009246826 .07899475-.0107421879 .12298584-.0107421879 .18899536-.0107421879 .22499085 .059280397 .22799683 .0652771 .23999024 .028274537 .27598573-.0107421879 .33599855-.0107421879 .43899537-.0107421879 .49598695 .118270877 .49598695 .14328003 .49598695 .1532898 .4869995 .1532898 .48399354 .1532898 .47499085 .1532898 .47299195 .14929199 .47099305 .14228821 .43798829 .03527832 .36999513 .011245728 .33799745 .011245728 .29899598 .011245728 .2829895 .043273927 .2829895 .07727051 .2829895 .09927368 .2889862 .121276859 .2999878 .16529846L.33399964 .30233766Z"/>
<path id="font_8_3" d="M.48599244 .38136292C.48999024 .39537049 .48999024 .39736939 .48999024 .40437318 .48999024 .42237855 .47599793 .43138124 .46099855 .43138124 .45098878 .43138124 .43499757 .42536927 .42599488 .41036988 .42399598 .405365 .41600038 .37435914 .4119873 .35635377 .40499879 .33035279 .397995 .30334474 .3919983 .27633668L.34700013 .09628296C.34298707 .08126831 .2999878 .011245728 .23399353 .011245728 .18299866 .011245728 .17199707 .055267335 .17199707 .0922699 .17199707 .1382904 .18899536 .20030213 .22299195 .28833009 .23899842 .3293457 .24299622 .3403473 .24299622 .36035157 .24299622 .405365 .21099854 .4423828 .16099549 .4423828 .06599426 .4423828 .0289917 .29733277 .0289917 .28833009 .0289917 .27833558 .038986207 .27833558 .040985109 .27833558 .050994874 .27833558 .051986696 .28033448 .056991579 .29634095 .083999637 .3903656 .12399292 .42037965 .1579895 .42037965 .1659851 .42037965 .18299866 .42037965 .18299866 .3883667 .18299866 .36335755 .17298889 .3373413 .1659851 .31834413 .12599182 .21231079 .10798645 .1552887 .10798645 .10827637 .10798645 .019256592 .17098999-.0107421879 .22999573-.0107421879 .2689972-.0107421879 .30299378 .0062561037 .33099366 .03425598 .31799317-.017745972 .30599977-.06674194 .2659912-.11973572 .23999024-.15385437 .20199585-.18309021 .1559906-.18309021 .14199829-.18309021 .09700012-.18005371 .07998657-.14074707 .09599304-.14074707 .10899353-.14074707 .12298584-.1287384 .1329956-.11973572 .14299011-.10673523 .14299011-.08773804 .14299011-.056747438 .115997318-.052734376 .10598755-.052734376 .08299255-.052734376 .049987794-.068740848 .049987794-.11773682 .049987794-.16796875 .09399414-.20507813 .1559906-.20507813 .25898744-.20507813 .3619995-.11373901 .3899994-.00074768069L.48599244 .38136292Z"/>
</defs>
<path transform="matrix(1.250025,0,0,-1.25,1.5664215,203.59375)" stroke-width=".19925" stroke-linecap="butt" stroke-miterlimit="10" stroke-linejoin="miter" fill="none" stroke="#929292" d="M23.45436 78.57329V82.82518M50.2294 78.57329V82.82518M144.04689 78.57329V82.82518M170.82193 78.57329V82.82518"/>
<path transform="matrix(1.250025,0,0,-1.25,1.5664215,203.59375)" stroke-width=".19925" stroke-linecap="butt" stroke-miterlimit="10" stroke-linejoin="miter" fill="none" stroke="#929292" d="M95.01227 19.48512H99.26402M95.01227 41.72897H99.26402M95.01227 119.66951H99.26402M95.01227 141.91335H99.26402"/>
<path transform="matrix(1.250025,0,0,-1.25,1.5664215,203.59375)" stroke-width=".3985" stroke-linecap="butt" stroke-miterlimit="10" stroke-linejoin="miter" fill="none" stroke="#000000" d="M0 80.69923H192.28379"/>
<path transform="matrix(1.250025,0,0,-1.25,241.92597,102.71972)" d="M1.99252 0-1.19551 1.59401 0 0-1.19551-1.59401"/>
<path transform="matrix(1.250025,0,0,-1.25,1.5664215,203.59375)" stroke-width=".3985" stroke-linecap="butt" stroke-miterlimit="10" stroke-linejoin="miter" fill="none" stroke="#000000" d="M97.13814 0V159.40596"/>
<path transform="matrix(0,-1.25,-1.250025,-0,122.99152,4.3363039)" d="M1.99252 0-1.19551 1.59401 0 0-1.19551-1.59401"/>
<use data-text="&#x2212;" xlink:href="#font_1_1" transform="matrix(12.453499,0,0,-12.45325,21.479317,118.433757)"/>
<use data-text="&#x03c0;" xlink:href="#font_2_1" transform="matrix(8.717424,0,0,-8.71725,32.65954,113.53126)"/>
<path transform="matrix(1.250025,0,0,-1.25,-83.651538,-115.810009)" stroke-width=".3985" stroke-linecap="butt" stroke-miterlimit="10" stroke-linejoin="miter" fill="none" stroke="#000000" d="M93.047-184.905H97.956"/>
<use data-text="2" xlink:href="#font_3_1" transform="matrix(8.717424,0,0,-8.71725,33.245805,122.72874)"/>
<use data-text="&#x2212;" xlink:href="#font_1_1" transform="matrix(12.453499,0,0,-12.45325,56.39752,117.8025)"/>
<use data-text="1" xlink:href="#font_4_1" transform="matrix(12.453499,0,0,-12.45325,66.08272,117.8025)"/>
<use data-text="1" xlink:href="#font_4_1" transform="matrix(12.453499,0,0,-12.45325,178.51497,117.8025)"/>
<use data-text="&#x03c0;" xlink:href="#font_2_1" transform="matrix(8.717424,0,0,-8.71725,212.02939,113.53126)"/>
<path transform="matrix(1.250025,0,0,-1.25,105.40475,-115.810009)" stroke-width=".3985" stroke-linecap="butt" stroke-miterlimit="10" stroke-linejoin="miter" fill="none" stroke="#000000" d="M85.298-184.905H90.207"/>
<use data-text="2" xlink:href="#font_3_1" transform="matrix(8.717424,0,0,-8.71725,212.61563,122.72874)"/>
<use data-text="&#x2212;" xlink:href="#font_1_1" transform="matrix(12.453499,0,0,-12.45325,97.122089,181.41875)"/>
<use data-text="&#x03c0;" xlink:href="#font_2_1" transform="matrix(8.717424,0,0,-8.71725,108.30231,176.51625)"/>
<path transform="matrix(1.250025,0,0,-1.25,-8.008766,-52.82501)" stroke-width=".3985" stroke-linecap="butt" stroke-miterlimit="10" stroke-linejoin="miter" fill="none" stroke="#000000" d="M93.047-184.905H97.956"/>
<use data-text="2" xlink:href="#font_3_1" transform="matrix(8.717424,0,0,-8.71725,108.88857,185.71373)"/>
<use data-text="&#x2212;" xlink:href="#font_1_1" transform="matrix(12.453499,0,0,-12.45325,100.0209,154.92626)"/>
<use data-text="1" xlink:href="#font_4_1" transform="matrix(12.453499,0,0,-12.45325,109.70609,154.92626)"/>
<use data-text="1" xlink:href="#font_4_1" transform="matrix(12.453499,0,0,-12.45325,109.70734,58.020006)"/>
<use data-text="&#x03c0;" xlink:href="#font_2_1" transform="matrix(8.717424,0,0,-8.71725,108.302318,23.481263)"/>
<path transform="matrix(1.250025,0,0,-1.25,1.677681,-205.86)" stroke-width=".3985" stroke-linecap="butt" stroke-miterlimit="10" stroke-linejoin="miter" fill="none" stroke="#000000" d="M85.298-184.905H90.207"/>
<use data-text="2" xlink:href="#font_3_1" transform="matrix(8.717424,0,0,-8.71725,108.88857,32.67874)"/>
<path transform="matrix(1.250025,0,0,-1.25,1.5664215,203.59375)" stroke-width=".99628" stroke-linecap="butt" stroke-miterlimit="10" stroke-linejoin="miter" fill="none" stroke="#00aeef" d="M23.45436 41.72974 24.19489 41.7348 24.93542 41.74962 25.67595 41.77455 26.41647 41.80846 27.157 41.8525 27.89754 41.90628 28.63806 41.96785 29.37859 42.04073 30.11913 42.12334 30.85966 42.21492 31.60017 42.31586 32.34071 42.42693 33.08125 42.54851 33.82178 42.67867 34.5623 42.81818 35.30283 42.96742 36.04337 43.12643 36.78389 43.294 37.52441 43.47093 38.26495 43.65565 39.0055 43.85168 39.746 44.05627 40.48654 44.271 41.22707 44.49467 41.9676 44.72655 42.70813 44.96777 43.44865 45.21758 44.1892 45.47635 44.92972 45.74406 45.67024 46.01959 46.41078 46.30368 47.15132 46.5979 47.89183 46.89992 48.63237 47.2109 49.3729 47.52968 50.11342 47.85664 50.85396 48.19218 51.59448 48.53473 52.33502 48.88585 53.07556 49.24516 53.81607 49.61148 54.55661 49.98676 55.29715 50.36983 56.03766 50.76033 56.7782 51.15704 57.51872 51.56233 58.25925 51.97462 58.99979 52.39397 59.74031 52.8199 60.48085 53.25325 61.22139 53.69283 61.9619 54.13904 62.70244 54.59344 63.44298 55.05289 64.18349 55.51936 64.92403 55.99246 65.66455 56.4718 66.40508 56.95659 67.14561 57.44724 67.88614 57.94371 68.62668 58.44563 69.36722 58.95343 70.10773 59.4659 70.84827 59.98419 71.5888 60.50873 72.32933 61.03679 73.06987 61.57106 73.81038 62.10963 74.55092 62.65248 75.29146 63.19963 76.03197 63.75145 76.7725 64.30756 77.51305 64.86678 78.25356 65.43184 78.9941 65.99963 79.73463 66.57173 80.47516 67.14693 81.2157 67.72485 81.9562 68.30629 82.69675 68.89085 83.43729 69.4789 84.1778 70.0701 84.91833 70.66283 85.65887 71.25867 86.3994 71.85687 87.13992 72.45624 87.88046 73.05873 88.62099 73.66353 89.36151 74.26874 90.10204 74.87668 90.84258 75.4854 91.58311 76.09567 92.32362 76.70673 93.06416 77.31934 93.8047 77.93312 94.54523 78.54729 95.28575 79.16147 96.02629 79.77641 96.76682 80.39137 97.50734 81.00554 98.24791 81.62088 98.98837 82.23505 99.72896 82.85 100.4694 83.46378 101.20999 84.07758 101.95056 84.68939 102.69102 85.30122 103.4316 85.91112 104.17207 86.52022 104.91264 87.12738 105.65321 87.73375 106.39368 88.3378 107.13425 88.94028 107.87473 89.54042 108.61528 90.13861 109.35587 90.73409 110.09633 91.3272 110.8369 91.9176 111.57736 92.50528 112.31795 93.09023 113.05852 93.67204 113.79898 94.25035 114.53955 94.82556 115.28001 95.39687 116.02058 95.96544 116.76115 96.52972 117.50162 97.08934 118.2422 97.64507 118.98265 98.19688 119.72324 98.74403 120.4638 99.28688 121.20427 99.82623 121.94485 100.35934 122.6853 100.88857 123.42589 101.41231 124.16646 101.9314 124.90692 102.44386 125.64749 102.95164 126.38797 103.45396 127.12854 103.94968 127.86911 104.4407 128.60958 104.92549 129.35015 105.40405 130.09062 105.87675 130.83118 106.34363 131.57176 106.80385 132.31223 107.25826 133.0528 107.70407 133.79326 108.14404 134.53385 108.57701 135.2744 109.00334 136.01488 109.42227 136.75543 109.83458 137.49591 110.23985 138.23648 110.63698 138.97705 111.02823 139.71752 111.41054 140.4581 111.78583 141.19855 112.15215 141.93914 112.51105 142.67972 112.86217 143.42017 113.20589 144.16075 113.54065 144.9012 113.86761 145.64179 114.18678 146.38236 114.49815 147.12282 114.80017 147.86339 115.09361 148.60387 115.3781 149.34444 115.65399 150.085 115.92134 150.82547 116.18011 151.56604 116.4299 152.3065 116.67073 153.04708 116.90338 153.78765 117.1267 154.52812 117.34102 155.26868 117.5468 156.00916 117.74164 156.74974 117.92754 157.4903 118.10445 158.23078 118.27202 158.97135 118.43103 159.7118 118.57951 160.45238 118.71863 161.19295 118.84956 161.93341 118.97076 162.674 119.08261 163.41445 119.18355 164.15503 119.27513 164.89562 119.35735 165.63607 119.42984 166.37665 119.49219 167.11711 119.54596 167.85768 119.58923 168.59825 119.6239 169.3387 119.64885 170.07929 119.66365 170.81975 119.66872"/>
<use data-text="y" xlink:href="#font_5_2" transform="matrix(9.962825,0,0,-9.962625,178.0812,73.22)" fill="#00aeef"/>
<use data-text="=" xlink:href="#font_6_1" transform="matrix(9.962825,0,0,-9.962625,186.61138,73.22)" fill="#00aeef"/>
<use data-text="s" xlink:href="#font_6_4" transform="matrix(9.962825,0,0,-9.962625,197.77971,73.22)" fill="#00aeef"/>
<use data-text="i" xlink:href="#font_6_2" transform="matrix(9.962825,0,0,-9.962625,201.95413,73.22)" fill="#00aeef"/>
<use data-text="n" xlink:href="#font_6_3" transform="matrix(9.962825,0,0,-9.962625,204.89316,73.22)" fill="#00aeef"/>
<use data-text="x" xlink:href="#font_5_1" transform="matrix(9.962825,0,0,-9.962625,212.54566,73.22)" fill="#00aeef"/>
<path transform="matrix(1.250025,0,0,-1.25,1.5664215,203.59375)" d="M172.81449 119.66951C172.81449 120.76997 171.92241 121.66206 170.82193 121.66206 169.72147 121.66206 168.82938 120.76997 168.82938 119.66951 168.82938 118.56905 169.72147 117.67696 170.82193 117.67696 171.92241 117.67696 172.81449 118.56905 172.81449 119.66951ZM170.82193 119.66951" fill="#00aeef"/>
<path transform="matrix(1.250025,0,0,-1.25,1.5664215,203.59375)" stroke-width=".3985" stroke-linecap="butt" stroke-miterlimit="10" stroke-linejoin="miter" fill="none" stroke="#00aeef" d="M172.81449 119.66951C172.81449 120.76997 171.92241 121.66206 170.82193 121.66206 169.72147 121.66206 168.82938 120.76997 168.82938 119.66951 168.82938 118.56905 169.72147 117.67696 170.82193 117.67696 171.92241 117.67696 172.81449 118.56905 172.81449 119.66951ZM170.82193 119.66951"/>
<use data-text="(" xlink:href="#font_7_1" transform="matrix(12.453499,0,0,-12.45325,219.49828,47.033739)" fill="#00aeef"/>
<use data-text="&#x03c0;" xlink:href="#font_2_1" transform="matrix(8.717424,0,0,-8.71725,226.69968,52.2175)" fill="#00aeef"/>
<path transform="matrix(1.250025,0,0,-1.25,114.367427,-177.12377)" stroke-width=".3985" stroke-linecap="butt" stroke-miterlimit="10" stroke-linejoin="miter" fill="none" stroke="#00aeef" d="M89.864-184.905H94.774"/>
<use data-text="2" xlink:href="#font_3_1" transform="matrix(8.717424,0,0,-8.71725,227.28594,61.414979)" fill="#00aeef"/>
<use data-text="," xlink:href="#font_8_1" transform="matrix(12.453499,0,0,-12.45325,234.33109,57.11998)" fill="#00aeef"/>
<use data-text="1" xlink:href="#font_4_1" transform="matrix(12.453499,0,0,-12.45325,239.86618,57.11998)" fill="#00aeef"/>
<use data-text=")" xlink:href="#font_7_2" transform="matrix(12.453499,0,0,-12.45325,246.09256,47.033723)" fill="#00aeef"/>
<path transform="matrix(1.250025,0,0,-1.25,1.5664215,203.59375)" d="M25.44691 41.72897C25.44691 42.82944 24.55484 43.72153 23.45436 43.72153 22.3539 43.72153 21.4618 42.82944 21.4618 41.72897 21.4618 40.6285 22.3539 39.73642 23.45436 39.73642 24.55484 39.73642 25.44691 40.6285 25.44691 41.72897ZM23.45436 41.72897" fill="#00aeef"/>
<path transform="matrix(1.250025,0,0,-1.25,1.5664215,203.59375)" stroke-width=".3985" stroke-linecap="butt" stroke-miterlimit="10" stroke-linejoin="miter" fill="none" stroke="#00aeef" d="M25.44691 41.72897C25.44691 42.82944 24.55484 43.72153 23.45436 43.72153 22.3539 43.72153 21.4618 42.82944 21.4618 41.72897 21.4618 40.6285 22.3539 39.73642 23.45436 39.73642 24.55484 39.73642 25.44691 40.6285 25.44691 41.72897ZM23.45436 41.72897"/>
<use data-text="(" xlink:href="#font_7_1" transform="matrix(12.453499,0,0,-12.45325,5.0477449,131.59125)" fill="#00aeef"/>
<use data-text="&#x2212;" xlink:href="#font_1_1" transform="matrix(12.453499,0,0,-12.45325,10.755363,141.67749)" fill="#00aeef"/>
<use data-text="&#x03c0;" xlink:href="#font_2_1" transform="matrix(8.717424,0,0,-8.71725,21.935585,136.775)" fill="#00aeef"/>
<path transform="matrix(1.250025,0,0,-1.25,-100.08311,-92.56626)" stroke-width=".3985" stroke-linecap="butt" stroke-miterlimit="10" stroke-linejoin="miter" fill="none" stroke="#00aeef" d="M97.613-184.905H102.522"/>
<use data-text="2" xlink:href="#font_3_1" transform="matrix(8.717424,0,0,-8.71725,22.52185,145.97248)" fill="#00aeef"/>
<use data-text="," xlink:href="#font_8_1" transform="matrix(12.453499,0,0,-12.45325,29.566994,141.67749)" fill="#00aeef"/>
<use data-text="&#x2212;" xlink:href="#font_1_1" transform="matrix(12.453499,0,0,-12.45325,35.102106,141.67749)" fill="#00aeef"/>
<use data-text="1" xlink:href="#font_4_1" transform="matrix(12.453499,0,0,-12.45325,44.7873,141.67749)" fill="#00aeef"/>
<use data-text=")" xlink:href="#font_7_2" transform="matrix(12.453499,0,0,-12.45325,51.01493,131.59122)" fill="#00aeef"/>
<path transform="matrix(1.250025,0,0,-1.25,1.5664215,203.59375)" stroke-width=".3985" stroke-linecap="butt" stroke-dasharray="2.98883,2.98883" stroke-miterlimit="10" stroke-linejoin="miter" fill="none" stroke="#000000" d="M23.45436 19.48512 170.82193 141.91335"/>
<path transform="matrix(1.250025,0,0,-1.25,1.5664215,203.59375)" stroke-width=".99628" stroke-linecap="butt" stroke-miterlimit="10" stroke-linejoin="miter" fill="none" stroke="#ff8000" d="M50.2294 19.48486 50.70082 25.01695 51.17226 27.31139 51.64369 29.07863 52.11513 30.57214 52.58655 31.89143 53.058 33.08719 53.52943 34.18855 54.00085 35.21855 54.4723 36.18745 54.94373 37.1063 55.41516 37.98238 55.88658 38.82188 56.35803 39.62918 56.82945 40.40794 57.30089 41.16222 57.77232 41.89241 58.24376 42.6026 58.71518 43.29395 59.18661 43.96854 59.65807 44.62721 60.12949 45.27081 60.60092 45.9024 61.07236 46.5213 61.5438 47.12769 62.01521 47.72368 62.48666 48.3095 62.95808 48.886 63.42952 49.4536 63.90094 50.01186 64.37239 50.56354 64.84381 51.10724 65.31525 51.6437 65.7867 52.17348 66.25812 52.69696 66.72955 53.21423 67.20099 53.72574 67.67242 54.23222 68.14384 54.73247 68.61528 55.2283 69.08672 55.71924 69.55815 56.20566 70.02957 56.68765 70.50102 57.16513 70.97246 57.63942 71.44388 58.1098 71.91531 58.57576 72.38673 59.0384 72.85818 59.49777 73.3296 59.95406 73.80106 60.40678 74.27248 60.85648 74.74391 61.30408 75.21535 61.74849 75.68678 62.19008 76.1582 62.62936 76.62964 63.06596 77.10107 63.5002 77.57251 63.93237 78.04395 64.3626 78.51538 64.78987 78.98682 65.21555 79.45824 65.6394 79.92969 66.06128 80.40111 66.48134 80.87254 66.8993 81.34396 67.31656 81.8154 67.73207 82.28683 68.1454 82.75827 68.55748 83.22972 68.96823 83.70114 69.37776 84.17258 69.78593 84.644 70.1924 85.11543 70.5985 85.58687 71.00313 86.0583 71.40665 86.52972 71.8092 87.00117 72.21088 87.4726 72.61159 87.94405 73.01144 88.41548 73.4108 88.8869 73.8087 89.35834 74.20602 89.82976 74.60284 90.30121 74.99902 90.77263 75.3946 91.24406 75.78926 91.7155 76.18419 92.18694 76.57825 92.65837 76.9719 93.1298 77.36517 93.60123 77.7581 94.07266 78.15071 94.5441 78.54308 95.01553 78.93562 95.48697 79.3272 95.95839 79.71902 96.42984 80.11076 96.90126 80.50243 97.3727 80.89409 97.84415 81.28575 98.31555 81.67749 98.787 82.0697 99.25839 82.46127 99.72986 82.85342 100.20132 83.24579 100.67271 83.63841 101.14417 84.03134 101.61557 84.42421 102.08702 84.81827 102.55849 85.21233 103.02988 85.60686 103.50134 86.00189 103.97272 86.39749 104.4442 86.79364 104.91565 87.19048 105.38704 87.58755 105.85849 87.98619 106.3299 88.38506 106.80136 88.78503 107.27281 89.1855 107.74422 89.5872 108.21567 89.98973 108.68706 90.39325 109.15852 90.79826 109.62999 91.20361 110.10136 91.61057 110.57283 92.01875 111.04422 92.42815 111.51569 92.83902 111.98715 93.25061 112.45854 93.66467 112.93001 94.07983 113.40138 94.49658 113.87286 94.91504 114.34431 95.33522 114.8157 95.75697 115.28716 96.18071 115.75856 96.607 116.23001 97.03418 116.70148 97.46399 117.17287 97.89618 117.64433 98.33029 118.11572 98.76701 118.58717 99.20569 119.05865 99.64789 119.53003 100.09268 120.0015 100.53929 120.47289 100.98923 120.94435 101.4422 121.4158 101.89838 121.8872 102.35773 122.35866 102.82016 122.83005 103.28683 123.3015 103.75684 123.77298 104.23051 124.24437 104.70836 124.71582 105.19035 125.18723 105.67688 125.65868 106.16783 126.13014 106.6639 126.60153 107.16428 127.073 107.67017 127.54437 108.18166 128.01584 108.69891 128.4873 109.2223 128.9587 109.75156 129.43016 110.28842 129.90155 110.83261 130.37302 111.38316 130.84447 111.9422 131.31587 112.50964 131.78733 113.08601 132.25872 113.67174 132.73017 114.26721 133.20165 114.87471 133.67302 115.49298 134.14449 116.12372 134.61588 116.76796 135.08734 117.42674 135.5588 118.10097 136.03018 118.79256 136.50167 119.50337 136.97304 120.23317 137.4445 120.98659 137.91597 121.76611 138.38736 122.57266 138.85881 123.41177 139.33022 124.28703 139.80167 125.20636 140.27313 126.17587 140.7445 127.20354 141.21599 128.30553 141.68738 129.5009 142.15883 130.81946 142.63031 132.31188 143.10169 134.07535 143.57315 136.37075 144.04454 141.8263"/>
<use data-text="y" xlink:href="#font_5_2" transform="matrix(9.962825,0,0,-9.962625,123.89012,38.797487)" fill="#ff8000"/>
<use data-text="=" xlink:href="#font_6_1" transform="matrix(9.962825,0,0,-9.962625,132.42029,38.797487)" fill="#ff8000"/>
<use data-text="s" xlink:href="#font_6_4" transform="matrix(9.962825,0,0,-9.962625,143.58863,38.797487)" fill="#ff8000"/>
<use data-text="i" xlink:href="#font_6_2" transform="matrix(9.962825,0,0,-9.962625,147.76303,38.797487)" fill="#ff8000"/>
<use data-text="n" xlink:href="#font_6_3" transform="matrix(9.962825,0,0,-9.962625,150.70209,38.797487)" fill="#ff8000"/>
<use data-text="&#x2212;" xlink:href="#font_9_1" transform="matrix(7.47215,0,0,-7.472,156.59076,35.194978)" fill="#ff8000"/>
<use data-text="1" xlink:href="#font_10_1" transform="matrix(7.47215,0,0,-7.472,163.78592,35.194978)" fill="#ff8000"/>
<use data-text="x" xlink:href="#font_5_1" transform="matrix(9.962825,0,0,-9.962625,170.73856,38.797487)" fill="#ff8000"/>
<path transform="matrix(1.250025,0,0,-1.25,1.5664215,203.59375)" d="M146.03945 141.91335C146.03945 143.01383 145.14736 143.9059 144.04689 143.9059 142.94641 143.9059 142.05434 143.01383 142.05434 141.91335 142.05434 140.81288 142.94641 139.92079 144.04689 139.92079 145.14736 139.92079 146.03945 140.81288 146.03945 141.91335ZM144.04689 141.91335" fill="#ff8000"/>
<path transform="matrix(1.250025,0,0,-1.25,1.5664215,203.59375)" stroke-width=".3985" stroke-linecap="butt" stroke-miterlimit="10" stroke-linejoin="miter" fill="none" stroke="#ff8000" d="M146.03945 141.91335C146.03945 143.01383 145.14736 143.9059 144.04689 143.9059 142.94641 143.9059 142.05434 143.01383 142.05434 141.91335 142.05434 140.81288 142.94641 139.92079 144.04689 139.92079 145.14736 139.92079 146.03945 140.81288 146.03945 141.91335ZM144.04689 141.91335"/>
<use data-text="(" xlink:href="#font_7_1" transform="matrix(12.453499,0,0,-12.45325,165.47722,7.357498)" fill="#ff8000"/>
<use data-text="1" xlink:href="#font_4_1" transform="matrix(12.453499,0,0,-12.45325,171.18485,17.443757)" fill="#ff8000"/>
<use data-text="," xlink:href="#font_8_1" transform="matrix(12.453499,0,0,-12.45325,177.41123,17.443757)" fill="#ff8000"/>
<use data-text="&#x03c0;" xlink:href="#font_2_1" transform="matrix(8.717424,0,0,-8.71725,184.44135,12.54126)" fill="#ff8000"/>
<path transform="matrix(1.250025,0,0,-1.25,60.346368,-216.8)" stroke-width=".3985" stroke-linecap="butt" stroke-miterlimit="10" stroke-linejoin="miter" fill="none" stroke="#ff8000" d="M99.274-184.905H104.183"/>
<use data-text="2" xlink:href="#font_3_1" transform="matrix(8.717424,0,0,-8.71725,185.02762,21.738739)" fill="#ff8000"/>
<use data-text=")" xlink:href="#font_7_2" transform="matrix(12.453499,0,0,-12.45325,192.0715,7.357483)" fill="#ff8000"/>
<path transform="matrix(1.250025,0,0,-1.25,1.5664215,203.59375)" d="M52.22195 19.48512C52.22195 20.5856 51.32986 21.47768 50.2294 21.47768 49.12892 21.47768 48.23685 20.5856 48.23685 19.48512 48.23685 18.38466 49.12892 17.49257 50.2294 17.49257 51.32986 17.49257 52.22195 18.38466 52.22195 19.48512ZM50.2294 19.48512" fill="#ff8000"/>
<path transform="matrix(1.250025,0,0,-1.25,1.5664215,203.59375)" stroke-width=".3985" stroke-linecap="butt" stroke-miterlimit="10" stroke-linejoin="miter" fill="none" stroke="#ff8000" d="M52.22195 19.48512C52.22195 20.5856 51.32986 21.47768 50.2294 21.47768 49.12892 21.47768 48.23685 20.5856 48.23685 19.48512 48.23685 18.38466 49.12892 17.49257 50.2294 17.49257 51.32986 17.49257 52.22195 18.38466 52.22195 19.48512ZM50.2294 19.48512"/>
<use data-text="(" xlink:href="#font_7_1" transform="matrix(12.453499,0,0,-12.45325,38.51716,184.13625)" fill="#ff8000"/>
<use data-text="&#x2212;" xlink:href="#font_1_1" transform="matrix(12.453499,0,0,-12.45325,44.224779,194.2225)" fill="#ff8000"/>
<use data-text="1" xlink:href="#font_4_1" transform="matrix(12.453499,0,0,-12.45325,53.911218,194.2225)" fill="#ff8000"/>
<use data-text="," xlink:href="#font_8_1" transform="matrix(12.453499,0,0,-12.45325,60.137598,194.2225)" fill="#ff8000"/>
<use data-text="&#x2212;" xlink:href="#font_1_1" transform="matrix(12.453499,0,0,-12.45325,65.672718,194.2225)" fill="#ff8000"/>
<use data-text="&#x03c0;" xlink:href="#font_2_1" transform="matrix(8.717424,0,0,-8.71725,76.852939,189.32)" fill="#ff8000"/>
<path transform="matrix(1.250025,0,0,-1.25,-66.61369,-40.02126)" stroke-width=".3985" stroke-linecap="butt" stroke-miterlimit="10" stroke-linejoin="miter" fill="none" stroke="#ff8000" d="M114.771-184.905H119.68"/>
<use data-text="2" xlink:href="#font_3_1" transform="matrix(8.717424,0,0,-8.71725,77.43919,198.51749)" fill="#ff8000"/>
<use data-text=")" xlink:href="#font_7_2" transform="matrix(12.453499,0,0,-12.45325,84.48433,184.13623)" fill="#ff8000"/>
<use data-text="x" xlink:href="#font_8_2" transform="matrix(12.453499,0,0,-12.45325,232.89981,98.31999)"/>
<use data-text="y" xlink:href="#font_8_3" transform="matrix(12.453499,0,0,-12.45325,127.39144,11.607498)"/>
</svg>
