<svg xmlns="http://www.w3.org/2000/svg" xmlns:xlink="http://www.w3.org/1999/xlink" version="1.1" width="198" height="171" viewBox="0 0 198 171">
<defs>
<path id="font_1_1" d="M.6589966 .23046875C.6759949 .23046875 .69400027 .23046875 .69400027 .25045777 .69400027 .27046205 .6759949 .27046205 .6589966 .27046205H.117996219C.100997928 .27046205 .08299255 .27046205 .08299255 .25045777 .08299255 .23046875 .100997928 .23046875 .117996219 .23046875H.6589966Z"/>
<path id="font_2_3" d="M.1269989 .07699585 .23298645 .18003845C.3889923 .31811524 .44898988 .3721466 .44898988 .47216798 .44898988 .5860901 .35899354 .6660156 .23699951 .6660156 .12399292 .6660156 .049987794 .57411196 .049987794 .48516847 .049987794 .4291687 .099990848 .4291687 .102996829 .4291687 .11999512 .4291687 .15499878 .44117738 .15499878 .48217774 .15499878 .5081787 .13699341 .5341797 .101989749 .5341797 .09399414 .5341797 .09199524 .5341797 .08898926 .5331726 .11199951 .59806826 .1659851 .63500979 .22399903 .63500979 .31498719 .63500979 .35798646 .5541382 .35798646 .47216798 .35798646 .39215089 .30799867 .31311036 .25299073 .25108338L.06098938 .036987306C.049987794 .025985718 .049987794 .023986817 .049987794 0H.42099L.44898988 .17404175H.42399598C.4189911 .14402771 .4119873 .1000061 .4019928 .084991458 .394989 .07699585 .32899476 .07699585 .30699159 .07699585H.1269989Z"/>
<path id="font_3_1" d="M.2649994 .37265016H.37799073C.34498597 .22489929 .33599855 .18196106 .33599855 .11508179 .33599855 .100097659 .33599855 .073150638 .34399415 .03919983 .35398866-.0047454836 .36499024-.0107421879 .37998963-.0107421879 .3999939-.0107421879 .42099 .007247925 .42099 .02722168 .42099 .033218385 .42099 .035202028 .4149933 .049179079 .38598634 .12106323 .38598634 .18595886 .38598634 .21391297 .38598634 .26683045 .3929901 .32073976 .4039917 .37265016H.5179901C.5309906 .37265016 .5669861 .37265016 .5669861 .406662 .5669861 .43066407 .54599 .43066407 .5269928 .43066407H.19198609C.16999817 .43066407 .13198853 .43066407 .08799744 .38365174 .052993776 .34469605 .026992798 .29878236 .026992798 .29379273 .026992798 .29278565 .026992798 .28379823 .038986207 .28379823 .04699707 .28379823 .04899597 .28779603 .054992677 .29577638 .10398865 .37265016 .1619873 .37265016 .18199158 .37265016H.23899842C.20698548 .25186158 .15299988 .13105774 .11099243 .04020691 .102996829 .025222779 .102996829 .023223877 .102996829 .016235352 .102996829-.002746582 .11898804-.0107421879 .13198853-.0107421879 .1619873-.0107421879 .16999817 .017242432 .18199158 .05418396 .19599915 .100097659 .19599915 .10209656 .20899964 .15202332L.2649994 .37265016Z"/>
<path id="font_2_2" d="M.2939911 .64004519C.2939911 .66400149 .2939911 .6660156 .2709961 .6660156 .20899964 .60227969 .12098694 .60227969 .08898926 .60227969V.57128909C.10899353 .57128909 .16799927 .57128909 .21998596 .5972748V.07902527C.21998596 .042999269 .21699524 .0309906 .1269989 .0309906H.09498596V0C.12998963 .0029907227 .21699524 .0029907227 .25698854 .0029907227 .29699708 .0029907227 .38398744 .0029907227 .4189911 0V.0309906H.3869934C.29699708 .0309906 .2939911 .041992189 .2939911 .07902527V.64004519Z"/>
<path id="font_2_1" d="M.45999146 .31976319C.45999146 .39982606 .45498658 .47988893 .41999818 .5539398 .37399293 .65000918 .2919922 .6660156 .25 .6660156 .18998719 .6660156 .116989139 .64001467 .07598877 .54693606 .04399109 .47789 .038986207 .39982606 .038986207 .31976319 .038986207 .24472046 .042999269 .15464783 .083999637 .07859802 .1269989-.0024719239 .19999695-.022460938 .24899292-.022460938 .30299378-.022460938 .3789978-.0014648438 .4229889 .09359741 .45498658 .16265869 .45999146 .2407074 .45999146 .31976319M.24899292-.00047302247C.20999146-.00047302247 .15098572 .024551392 .1329956 .12062073 .12199402 .18066406 .12199402 .2727356 .12199402 .3317871 .12199402 .39582826 .12199402 .46188355 .12998963 .5159149 .14898682 .63500979 .22399903 .64401248 .24899292 .64401248 .28199769 .64401248 .34799195 .6259918 .36698915 .52693179 .3769989 .47088624 .3769989 .39482118 .3769989 .3317871 .3769989 .25672914 .3769989 .18867493 .3659973 .12461853 .35099793 .029556275 .2939911-.00047302247 .24899292-.00047302247Z"/>
<path id="font_2_4" d="M.44898988 .20022583C.44898988 .3193512 .36698915 .41944886 .25898744 .41944886 .21099854 .41944886 .16799927 .40345765 .13198853 .36842347V.5637665C.1519928 .5577698 .18499756 .55078127 .21699524 .55078127 .33999635 .55078127 .4099884 .6417694 .4099884 .6547699 .4099884 .6607666 .40699769 .6657715 .3999939 .6657715 .39898683 .6657715 .39698792 .6657715 .3919983 .66278079 .37199403 .6537781 .32299806 .6337738 .2559967 .6337738 .21598816 .6337738 .16999817 .6407776 .12298584 .6617737 .114990238 .66477969 .11299133 .66477969 .11099243 .66477969 .100997928 .66477969 .100997928 .6567688 .100997928 .6407776V.34439088C.100997928 .32637025 .100997928 .31835938 .114990238 .31835938 .12199402 .31835938 .12399292 .32136537 .12799073 .32736207 .13899231 .3433838 .17599488 .39746095 .25698854 .39746095 .30899049 .39746095 .33399964 .35139466 .34199525 .33337403 .35798646 .29632569 .3600006 .25727845 .3600006 .20722962 .3600006 .17222595 .3600006 .11222839 .33599855 .07035828 .31199647 .031463624 .2749939 .0055389406 .22898865 .0055389406 .1559906 .0055389406 .09899902 .058380128 .08198547 .11723328 .084991458 .1162262 .08799744 .115234378 .09899902 .115234378 .13198853 .115234378 .14898682 .14022827 .14898682 .16423035 .14898682 .18823242 .13198853 .21322632 .09899902 .21322632 .084991458 .21322632 .049987794 .20622254 .049987794 .16023255 .049987794 .07434082 .11898804-.022460938 .23098755-.022460938 .34700013-.022460938 .44898988 .073349 .44898988 .20022583Z"/>
<path id="font_3_2" d="M.33399964 .30233766C.33999635 .32835389 .36299134 .42037965 .43299867 .42037965 .43798829 .42037965 .46199037 .42037965 .48298646 .40734864 .45498658 .402359 .43499757 .37734986 .43499757 .35334779 .43499757 .33735658 .44599916 .31835938 .47299195 .31835938 .49499513 .31835938 .5269928 .3363495 .5269928 .37635804 .5269928 .42837525 .46798707 .4423828 .43399049 .4423828 .37599183 .4423828 .34098817 .38935853 .32899476 .36634828 .3039856 .43237306 .25 .4423828 .22099304 .4423828 .116989139 .4423828 .05999756 .3133545 .05999756 .28834535 .05999756 .27833558 .069992069 .27833558 .07199097 .27833558 .07998657 .27833558 .08299255 .28033448 .084991458 .28933717 .11898804 .39535523 .18499756 .42037965 .21899414 .42037965 .23799134 .42037965 .272995 .4113617 .272995 .35334779 .272995 .32235719 .2559967 .25532533 .21899414 .11528015 .20298767 .053268434 .16799927 .011245728 .12399292 .011245728 .117996219 .011245728 .09498596 .011245728 .07398987 .024276734 .09899902 .029266358 .12098694 .05027771 .12098694 .07827759 .12098694 .105270389 .09899902 .11328125 .083999637 .11328125 .053985597 .11328125 .0289917 .08728027 .0289917 .055267335 .0289917 .009246826 .07899475-.0107421879 .12298584-.0107421879 .18899536-.0107421879 .22499085 .059280397 .22799683 .0652771 .23999024 .028274537 .27598573-.0107421879 .33599855-.0107421879 .43899537-.0107421879 .49598695 .118270877 .49598695 .14328003 .49598695 .1532898 .4869995 .1532898 .48399354 .1532898 .47499085 .1532898 .47299195 .14929199 .47099305 .14228821 .43798829 .03527832 .36999513 .011245728 .33799745 .011245728 .29899598 .011245728 .2829895 .043273927 .2829895 .07727051 .2829895 .09927368 .2889862 .121276859 .2999878 .16529846L.33399964 .30233766Z"/>
<path id="font_3_3" d="M.48599244 .38136292C.48999024 .39537049 .48999024 .39736939 .48999024 .40437318 .48999024 .42237855 .47599793 .43138124 .46099855 .43138124 .45098878 .43138124 .43499757 .42536927 .42599488 .41036988 .42399598 .405365 .41600038 .37435914 .4119873 .35635377 .40499879 .33035279 .397995 .30334474 .3919983 .27633668L.34700013 .09628296C.34298707 .08126831 .2999878 .011245728 .23399353 .011245728 .18299866 .011245728 .17199707 .055267335 .17199707 .0922699 .17199707 .1382904 .18899536 .20030213 .22299195 .28833009 .23899842 .3293457 .24299622 .3403473 .24299622 .36035157 .24299622 .405365 .21099854 .4423828 .16099549 .4423828 .06599426 .4423828 .0289917 .29733277 .0289917 .28833009 .0289917 .27833558 .038986207 .27833558 .040985109 .27833558 .050994874 .27833558 .051986696 .28033448 .056991579 .29634095 .083999637 .3903656 .12399292 .42037965 .1579895 .42037965 .1659851 .42037965 .18299866 .42037965 .18299866 .3883667 .18299866 .36335755 .17298889 .3373413 .1659851 .31834413 .12599182 .21231079 .10798645 .1552887 .10798645 .10827637 .10798645 .019256592 .17098999-.0107421879 .22999573-.0107421879 .2689972-.0107421879 .30299378 .0062561037 .33099366 .03425598 .31799317-.017745972 .30599977-.06674194 .2659912-.11973572 .23999024-.15385437 .20199585-.18309021 .1559906-.18309021 .14199829-.18309021 .09700012-.18005371 .07998657-.14074707 .09599304-.14074707 .10899353-.14074707 .12298584-.1287384 .1329956-.11973572 .14299011-.10673523 .14299011-.08773804 .14299011-.056747438 .115997318-.052734376 .10598755-.052734376 .08299255-.052734376 .049987794-.068740848 .049987794-.11773682 .049987794-.16796875 .09399414-.20507813 .1559906-.20507813 .25898744-.20507813 .3619995-.11373901 .3899994-.00074768069L.48599244 .38136292Z"/>
</defs>
<path transform="matrix(1.00003,0,0,-1.00006,2.4406586,166.5352)" stroke-width=".19925" stroke-linecap="butt" stroke-miterlimit="10" stroke-linejoin="miter" fill="none" stroke="#929292" d="M7.16013 79.28079V82.11555M18.40723 79.28079V82.11555M29.65434 79.28079V82.11555M40.90144 79.28079V82.11555M52.14856 79.28079V82.11555M63.39566 79.28079V82.11555M74.64278 79.28079V82.11555M85.88988 79.28079V82.11555M97.137 79.28079V82.11555M108.3841 79.28079V82.11555M119.6312 79.28079V82.11555M130.87831 79.28079V82.11555M142.1254 79.28079V82.11555M153.37253 79.28079V82.11555M164.61963 79.28079V82.11555M175.86675 79.28079V82.11555M187.11385 79.28079V82.11555"/>
<path transform="matrix(1.00003,0,0,-1.00006,2.4406586,166.5352)" stroke-width=".19925" stroke-linecap="butt" stroke-miterlimit="10" stroke-linejoin="miter" fill="none" stroke="#929292" d="M7.16013 78.5723V82.82404M52.14856 78.5723V82.82404M142.12541 78.5723V82.82404M187.11385 78.5723V82.82404"/>
<path transform="matrix(1.00003,0,0,-1.00006,2.4406586,166.5352)" stroke-width=".19925" stroke-linecap="butt" stroke-miterlimit="10" stroke-linejoin="miter" fill="none" stroke="#929292" d="M95.01102 0H99.26294M95.01102 40.34909H99.26294M95.01102 121.04727H99.26294M95.01102 161.39636H99.26294"/>
<path transform="matrix(1.00003,0,0,-1.00006,2.4406586,166.5352)" stroke-width=".3985" stroke-linecap="butt" stroke-miterlimit="10" stroke-linejoin="miter" fill="none" stroke="#000000" d="M0 80.69818H192.28145"/>
<path transform="matrix(1.00003,0,0,-1.00006,194.72789,85.832187)" d="M1.99252 0-1.19551 1.59401 0 0-1.19551-1.59401"/>
<path transform="matrix(1.00003,0,0,-1.00006,2.4406586,166.5352)" stroke-width=".3985" stroke-linecap="butt" stroke-miterlimit="10" stroke-linejoin="miter" fill="none" stroke="#000000" d="M97.137 0V159.40384"/>
<path transform="matrix(0,-1.00006,-1.00003,-0,99.580577,7.121811)" d="M1.99252 0-1.19551 1.59401 0 0-1.19551-1.59401"/>
<use data-text="&#x2212;" xlink:href="#font_1_1" transform="matrix(9.962899,0,0,-9.963197,.21759033,97.899089)"/>
<use data-text="2" xlink:href="#font_2_3" transform="matrix(9.962899,0,0,-9.963197,7.9668276,97.899089)"/>
<use data-text="&#x03c0;" xlink:href="#font_3_1" transform="matrix(9.962899,0,0,-9.963197,12.947975,97.899089)"/>
<use data-text="&#x2212;" xlink:href="#font_1_1" transform="matrix(9.962899,0,0,-9.963197,47.698019,97.290058)"/>
<use data-text="&#x03c0;" xlink:href="#font_3_1" transform="matrix(9.962899,0,0,-9.963197,55.447256,97.290058)"/>
<use data-text="&#x03c0;" xlink:href="#font_3_1" transform="matrix(9.962899,0,0,-9.963197,141.55184,95.76796)"/>
<use data-text="2" xlink:href="#font_2_3" transform="matrix(9.962899,0,0,-9.963197,184.05112,97.899089)"/>
<use data-text="&#x03c0;" xlink:href="#font_3_1" transform="matrix(9.962899,0,0,-9.963197,189.03227,97.899089)"/>
<use data-text="&#x2212;" xlink:href="#font_1_1" transform="matrix(9.962899,0,0,-9.963197,76.22288,169.33037)"/>
<use data-text="1" xlink:href="#font_2_2" transform="matrix(9.962899,0,0,-9.963197,83.972118,169.33037)"/>
<use data-text="0" xlink:href="#font_2_1" transform="matrix(9.962899,0,0,-9.963197,88.95356,169.33037)"/>
<use data-text="&#x2212;" xlink:href="#font_1_1" transform="matrix(9.962899,0,0,-9.963197,81.204029,128.97895)"/>
<use data-text="5" xlink:href="#font_2_4" transform="matrix(9.962899,0,0,-9.963197,88.95326,128.97895)"/>
<use data-text="5" xlink:href="#font_2_4" transform="matrix(9.962899,0,0,-9.963197,88.95326,48.69114)"/>
<use data-text="1" xlink:href="#font_2_2" transform="matrix(9.962899,0,0,-9.963197,83.97111,8.339706)"/>
<use data-text="0" xlink:href="#font_2_1" transform="matrix(9.962899,0,0,-9.963197,88.95256,8.339706)"/>
<path transform="matrix(1.00003,0,0,-1.00006,2.4406586,166.5352)" stroke-width=".99628" stroke-linecap="butt" stroke-miterlimit="10" stroke-linejoin="miter" fill="none" stroke="#0000ff" d="M8.38652 3.40079 8.44684 7.99539 8.54498 14.4335 8.64311 20.04073 8.74126 24.94217 8.8394 29.28404 8.93755 33.16017 9.03568 36.64244 9.13382 39.78017 9.23195 42.6259 9.33008 45.2268 9.42822 47.60545 9.52637 49.7935 9.62451 51.81305 9.72264 53.68364 9.82079 55.42462 9.91893 57.04472 10.01706 58.55862 10.1152 59.97989 10.21335 61.31398 10.3115 62.56691 10.40962 63.7522 10.50777 64.87228 10.60591 65.93265 10.70406 66.938 10.80219 67.89346 10.90033 68.8055 10.99847 69.6732 11.0966 70.50116 11.19475 71.29408 11.2929 72.05331 11.39104 72.78055 11.48917 73.47876 11.58731 74.1503 11.68546 74.79605 11.78358 75.41809 11.88173 76.01848 11.97986 76.59726 12.07799 77.15714 12.17613 77.69781 12.27428 78.22171 12.37242 78.72978 12.47055 79.22205 12.5687 79.69962 12.66684 80.1633 12.76497 80.61473 12.86311 81.05325 12.96126 81.48029 13.0594 81.89555 13.15753 82.30212 13.25568 82.69786 13.35382 83.08409 13.45195 83.4616 13.5501 83.83087 13.64824 84.19174 13.74638 84.54472 13.84451 84.89076 13.94266 85.23003 14.0408 85.56201 14.13893 85.88803 14.23708 86.20824 14.33522 86.52248 14.43336 86.83186 14.5315 87.13496 14.62964 87.4342 14.72777 87.72778 14.8259 88.0175 14.92404 88.30284 15.02219 88.584 15.12033 88.86078 15.21846 89.13419 15.3166 89.40404 15.41475 89.6705 15.51288 89.93408 15.61102 90.1944 15.70917 90.4515 15.80731 90.70618 15.90544 90.95764 16.00359 91.20702 16.10173 91.4541 16.19986 91.69862 16.298 91.94121 16.39615 92.182 16.4943 92.42087 16.59242 92.6578 16.69057 92.89328 16.78871 93.1265 16.88684 93.3589 16.98499 93.58952 17.08313 93.81905 17.18127 94.04726 17.2794 94.27515 17.37755 94.50095 17.47568 94.72658 17.5738 94.95108 17.67195 95.17526 17.7701 95.39856 17.86824 95.62125 17.96637 95.84311 18.06451 96.06543 18.16266 96.2868 18.2608 96.50816 18.35893 96.72919 18.45708 96.9503 18.5552 97.17165 18.65335 97.3927 18.7515 97.61472 18.84964 97.8367 18.94778 98.05861 19.04591 98.28134 19.14406 98.50485 19.2422 98.72873 19.34033 98.95323 19.43848 99.17854 19.5366 99.40514 19.63475 99.63222 19.73291 99.8606 19.83104 100.09026 19.92918 100.3214 20.02731 100.55331 20.12546 100.7867 20.2236 101.02249 20.32172 101.2591 20.41986 101.49796 20.51799 101.73862 20.61615 101.9815 20.7143 102.22618 20.81242 102.47328 20.91057 102.72249 21.0087 102.97458 21.10684 103.22879 21.20499 103.4862 21.30312 103.74638 21.40126 104.00993 21.4994 104.2764 21.59755 104.5461 21.6957 104.81967 21.79382 105.09726 21.89197 105.37825 21.9901 105.66312 22.08824 105.95297 22.18639 106.24721 22.28453 106.54611 22.38268 106.84955 22.4808 107.15877 22.57895 107.4735 22.6771 107.79324 22.77522 108.11925 22.87337 108.45187 22.9715 108.7913 23.06964 109.13733 23.16779 109.49031 23.26591 109.85199 23.36406 110.22112 23.46219 110.59879 23.56033 110.98485 23.65848 111.3814 23.7566 111.78699 23.85475 112.20291 23.9529 112.63045 24.05104 113.06976 24.14919 113.52104 24.24731 113.9852 24.34546 114.46324 24.44359 114.9552 24.54173 115.46278 24.63988 115.98683 24.738 116.52914 24.83617 117.08919 24.9343 117.66794 25.03244 118.26865 25.13058 118.89165 25.22871 119.53835 25.32686 120.20863 25.42499 120.90862 25.52313 121.63635 25.62129 122.39685 25.71942 123.18979 25.81755 124.01904 25.91568 124.88834 26.01382 125.7986 26.11197 126.756 26.2101 127.76263 26.30824 128.82495 26.40637 129.94632 26.50453 131.12935 26.60268 132.38825 26.7008 133.72235 26.79895 135.14183 26.89708 136.65993 26.99522 138.28455 27.09337 140.02538 27.1915 141.89757 27.28964 143.92067 27.38777 146.11325 27.48593 148.49594 27.58408 151.09926 27.6822 153.95066 27.78035 157.09819 27.79715 157.69419"/>
<path transform="matrix(-.013090393,.99994,.99991008,.013090785,10.827451,163.1342)" d="M2.8892 0-1.73352 2.31136 0 0-1.73352-2.31136" fill="#0000ff"/>
<path transform="matrix(.028150846,-.99961999,-.99959006,-.028151688,30.238644,8.8315739)" d="M2.8892 0-1.73352 2.31136 0 0-1.73352-2.31136" fill="#0000ff"/>
<path transform="matrix(1.00003,0,0,-1.00006,2.4406586,166.5352)" stroke-width=".99628" stroke-linecap="butt" stroke-miterlimit="10" stroke-linejoin="miter" fill="none" stroke="#0000ff" d="M30.88072 3.40079 30.94106 7.99832 31.0392 14.4377 31.13733 20.03346 31.23547 24.94104 31.33362 29.28859 31.43175 33.16531 31.52988 36.64244 31.62802 39.77936 31.72617 42.63026 31.82431 45.22777 31.92244 47.60497 32.02058 49.7935 32.11873 51.81404 32.21686 53.6859 32.315 55.42189 32.41315 57.04181 32.51129 58.55959 32.60942 59.98053 32.70757 61.31187 32.80571 62.56691 32.90384 63.7522 33.00198 64.8731 33.10013 65.9304 33.19827 66.9367 33.2964 67.89474 33.39455 68.80423 33.49269 69.6732 33.59082 70.50116 33.68896 71.29408 33.78711 72.05249 33.88525 72.77959 33.98338 73.47925 34.08153 74.1503 34.17966 74.79605 34.27779 75.41809 34.37593 76.01848 34.47408 76.59805 34.5722 77.15599 34.67035 77.69781 34.7685 78.22235 34.86664 78.72978 34.96477 79.22205 35.06291 79.69911 35.16106 80.16347 35.25919 80.61441 35.35733 81.05309 35.45547 81.47932 35.55362 81.89606 35.65175 82.30212 35.7499 82.69786 35.84804 83.08424 35.94617 83.4616 36.04431 83.83055 36.14246 84.19159 36.2406 84.5452 36.33873 84.89093 36.43687 85.22986 36.53502 85.56201 36.63315 85.88834 36.7313 86.20856 36.82944 86.52248 36.92757 86.83186 37.0257 87.13496 37.12384 87.4342 37.22198 87.72778 37.32011 88.01782 37.41826 88.303 37.5164 88.58383 37.61455 88.86111 37.71268 89.13419 37.81082 89.40437 37.90897 89.6705 38.0071 89.93391 38.10524 90.1944 38.20338 90.4515 38.30153 90.70587 38.39966 90.95764 38.4978 91.20702 38.59595 91.4541 38.69408 91.69894 38.79222 91.94136 38.89037 92.182 38.98851 92.42072 39.08664 92.6578 39.18478 92.89279 39.28293 93.12682 39.38106 93.35875 39.4792 93.58952 39.57735 93.81905 39.67549 94.04758 39.7736 94.27483 39.87175 94.50143 39.9699 94.72658 40.06804 94.9514 40.16617 95.17494 40.26431 95.39822 40.36246 95.62093 40.46059 95.84311 40.55873 96.06543 40.65688 96.2868 40.75502 96.50816 40.85315 96.7295 40.9513 96.9503 41.04942 97.17165 41.14757 97.3927 41.24571 97.61458 41.34386 97.83636 41.442 98.05861 41.54013 98.28134 41.63828 98.50455 41.73642 98.72873 41.83455 98.95323 41.9327 99.17885 42.03082 99.40497 42.12897 99.63254 42.22713 99.8606 42.32526 100.09026 42.4234 100.3214 42.52151 100.55331 42.61966 100.7867 42.7178 101.02216 42.81593 101.25941 42.91408 101.49779 43.01222 101.73862 43.11037 101.9815 43.20851 102.22618 43.30664 102.47328 43.40479 102.72264 43.50291 102.97443 43.60106 103.22879 43.6992 103.48636 43.79733 103.7467 43.89548 104.00993 43.99362 104.2764 44.09177 104.5461 44.18991 104.81967 44.28804 105.09726 44.38618 105.37825 44.48431 105.66312 44.58246 105.95282 44.6806 106.24721 44.77875 106.54611 44.87689 106.84972 44.97502 107.15877 45.07317 107.47302 45.17131 107.7934 45.26942 108.11942 45.36757 108.4522 45.4657 108.79082 45.56386 109.13733 45.662 109.49048 45.76013 109.85153 45.85828 110.22144 45.9564 110.59895 46.05455 110.98517 46.1527 111.3814 46.25082 111.78746 46.34897 112.20291 46.44711 112.63045 46.54526 113.06976 46.6434 113.52054 46.74153 113.98488 46.83968 114.46228 46.9378 114.9552 47.03595 115.46327 47.1341 115.98749 47.23222 116.52896 47.33038 117.08919 47.42851 117.66794 47.52666 118.26865 47.6248 118.89165 47.72293 119.53835 47.82108 120.20944 47.9192 120.90878 48.01733 121.63586 48.1155 122.39685 48.21362 123.18898 48.31177 124.01904 48.4099 124.88719 48.50804 125.7986 48.60619 126.756 48.70432 127.76378 48.80246 128.82495 48.90059 129.94504 48.99875 131.12935 49.0969 132.38617 49.19502 133.72235 49.29317 135.14427 49.3913 136.65897 49.48944 138.28455 49.58759 140.02423 49.68571 141.89757 49.78386 143.92067 49.88199 146.11325 49.98015 148.49755 50.0783 151.09926 50.17642 153.9513 50.27457 157.09738 50.29137 157.69419"/>
<path transform="matrix(-.013090393,.99994,.99991008,.013090785,33.322328,163.1342)" d="M2.8892 0-1.73352 2.31136 0 0-1.73352-2.31136" fill="#0000ff"/>
<path transform="matrix(.028150846,-.99961999,-.99959006,-.028151688,52.73354,8.8315739)" d="M2.8892 0-1.73352 2.31136 0 0-1.73352-2.31136" fill="#0000ff"/>
<path transform="matrix(1.00003,0,0,-1.00006,2.4406586,166.5352)" stroke-width=".99628" stroke-linecap="butt" stroke-miterlimit="10" stroke-linejoin="miter" fill="none" stroke="#0000ff" d="M53.37494 3.40079 53.43527 8.0004 53.53342 14.4377 53.63155 20.03346 53.72968 24.94783 53.82782 29.29004 53.92596 33.16017 54.0241 36.64018 54.12224 39.77742 54.22038 42.63026 54.31853 45.2268 54.41666 47.60497 54.5148 49.79256 54.61295 51.81451 54.71107 53.6859 54.80922 55.42189 54.90736 57.0428 55.00551 58.55959 55.10364 59.97891 55.20178 61.31187 55.29993 62.56691 55.39806 63.7522 55.4962 64.87164 55.59435 65.9304 55.69249 66.93784 55.79062 67.89474 55.88876 68.80406 55.98691 69.6732 56.08504 70.50116 56.18318 71.29361 56.28133 72.05249 56.37946 72.77927 56.47758 73.47842 56.57573 74.14998 56.67387 74.79605 56.772 75.41858 56.87015 76.01897 56.96829 76.59726 57.06642 77.15714 57.16457 77.69829 57.26271 78.22171 57.36086 78.72899 57.45898 79.22154 57.55713 79.69962 57.65527 80.1633 57.7534 80.61424 57.85155 81.05309 57.94969 81.48029 58.04784 81.89606 58.14597 82.30196 58.24411 82.69786 58.34225 83.08409 58.44038 83.4616 58.53853 83.83087 58.63667 84.19174 58.73482 84.54472 58.83295 84.89093 58.93109 85.22986 59.02924 85.56201 59.12737 85.88834 59.2255 86.20856 59.32364 86.52248 59.42178 86.83124 59.51991 87.13547 59.61806 87.4342 59.7162 87.72778 59.81433 88.01732 59.91248 88.30284 60.01062 88.58383 60.10876 88.86111 60.2069 89.13419 60.30504 89.40437 60.40318 89.6705 60.50131 89.93408 60.59946 90.1944 60.6976 90.45168 60.79575 90.70587 60.89388 90.95764 60.99202 91.20702 61.09016 91.4541 61.18831 91.69894 61.28644 91.94136 61.38458 92.182 61.48273 92.42087 61.58086 92.6578 61.679 92.89296 61.77715 93.12682 61.87529 93.35875 61.9734 93.58952 62.07155 93.81905 62.1697 94.04758 62.26782 94.27483 62.36597 94.50095 62.46411 94.72658 62.56226 94.95108 62.66039 95.17526 62.75853 95.39822 62.85667 95.62093 62.9548 95.84311 63.05295 96.06543 63.1511 96.2868 63.24924 96.50816 63.34737 96.72919 63.44551 96.9503 63.54364 97.17165 63.64178 97.3927 63.73993 97.61458 63.83807 97.83636 63.93622 98.05861 64.03435 98.28134 64.13249 98.50455 64.23064 98.72873 64.32877 98.95323 64.42691 99.17854 64.52504 99.40497 64.62318 99.63222 64.72133 99.8606 64.81946 100.09026 64.9176 100.3214 65.01573 100.55331 65.11388 100.78702 65.21202 101.02249 65.31015 101.25941 65.4083 101.49796 65.50644 101.73862 65.60458 101.9815 65.70273 102.22601 65.80086 102.47328 65.899 102.72249 65.99713 102.97443 66.09528 103.22879 66.19342 103.48636 66.29155 103.7467 66.38971 104.00978 66.48784 104.2764 66.58598 104.5461 66.68413 104.81967 66.78226 105.09694 66.8804 105.37793 66.97853 105.66312 67.07668 105.95297 67.17484 106.24721 67.27296 106.54611 67.37111 106.84955 67.46922 107.15877 67.56737 107.47302 67.66551 107.79324 67.76364 108.11942 67.86179 108.45187 67.95993 108.79114 68.05807 109.13733 68.15622 109.49031 68.25435 109.85153 68.3525 110.22095 68.45062 110.59879 68.54877 110.98485 68.64691 111.3814 68.74504 111.78714 68.84319 112.20291 68.94133 112.63077 69.03947 113.06976 69.13762 113.52104 69.23575 113.9852 69.3339 114.46277 69.43202 114.9552 69.53017 115.46278 69.62831 115.98683 69.72644 116.52864 69.8246 117.08836 69.92273 117.66794 70.02087 118.26883 70.11902 118.89165 70.21713 119.53706 70.31528 120.21027 70.4134 120.90909 70.51155 121.63586 70.60971 122.39589 70.70784 123.18979 70.80598 124.01904 70.90411 124.88818 71.00226 125.7978 71.1004 126.7568 71.19853 127.76328 71.29668 128.82495 71.3948 129.94472 71.49297 131.13082 71.59111 132.38777 71.68924 133.72139 71.78738 135.14234 71.88551 136.6601 71.98366 138.28455 72.0818 140.0249 72.17993 141.9003 72.27808 143.92244 72.37622 146.11452 72.47437 148.49594 72.57251 151.09555 72.67064 153.95549 72.76878 157.09738 72.78557 157.69178"/>
<path transform="matrix(-.013090393,.99994,.99991008,.013090785,55.81721,163.1342)" d="M2.8892 0-1.73352 2.31136 0 0-1.73352-2.31136" fill="#0000ff"/>
<path transform="matrix(.028150846,-.99961999,-.99959006,-.028151688,75.22842,8.833984)" d="M2.8892 0-1.73352 2.31136 0 0-1.73352-2.31136" fill="#0000ff"/>
<path transform="matrix(1.00003,0,0,-1.00006,2.4406586,166.5352)" stroke-width=".99628" stroke-linecap="butt" stroke-miterlimit="10" stroke-linejoin="miter" fill="none" stroke="#0000ff" d="M75.86911 3.38914 75.92947 7.99539 76.02762 14.4377 76.12576 20.03346 76.22389 24.94104 76.32204 29.28404 76.42018 33.16096 76.51831 36.64018 76.61646 39.77936 76.7146 42.62654 76.81274 45.22325 76.91087 47.60641 77.00902 49.79399 77.10716 51.81305 77.20529 53.6859 77.30344 55.42412 77.40158 57.04472 77.49973 58.55862 77.59785 59.98053 77.696 61.31187 77.79414 62.56674 77.89227 63.7522 77.99042 64.87083 78.08856 65.932 78.1867 66.93784 78.28484 67.89427 78.38298 68.80406 78.48112 69.6732 78.57925 70.5018 78.67738 71.29361 78.77553 72.05249 78.87367 72.77959 78.9718 73.47794 79.06995 74.1503 79.16809 74.79605 79.26622 75.41809 79.36436 76.01768 79.46251 76.59726 79.56064 77.15714 79.65878 77.69781 79.75693 78.22171 79.85507 78.72978 79.9532 79.22218 80.05135 79.69911 80.14949 80.16283 80.24762 80.61441 80.34576 81.05276 80.44391 81.48029 80.54205 81.89606 80.64018 82.30212 80.73833 82.69739 80.83647 83.08409 80.9346 83.4611 81.03275 83.83022 81.13089 84.19174 81.22903 84.5452 81.32716 84.89093 81.4253 85.22954 81.52344 85.56233 81.62157 85.88834 81.71971 86.20856 81.81786 86.52248 81.916 86.83154 82.01413 87.13547 82.11227 87.43388 82.21042 87.72778 82.30856 88.01732 82.4067 88.30284 82.50484 88.584 82.60298 88.86078 82.70111 89.13419 82.79926 89.40437 82.8974 89.6705 82.99554 89.93391 83.09367 90.19408 83.19182 90.4515 83.28996 90.70587 83.38809 90.95764 83.48624 91.20702 83.58438 91.4541 83.68253 91.69862 83.78065 91.94136 83.8788 92.182 83.97694 92.42072 84.07507 92.6578 84.1732 92.89296 84.27135 93.1265 84.36949 93.35875 84.46762 93.5897 84.56577 93.81905 84.66391 94.04774 84.76204 94.27483 84.86018 94.50095 84.95833 94.72658 85.05647 94.95108 85.1546 95.17526 85.25275 95.39822 85.35089 95.62091 85.44902 95.84311 85.54716 96.06506 85.64531 96.2868 85.74345 96.50816 85.84158 96.72919 85.93973 96.9503 86.03786 97.17165 86.136 97.3927 86.23415 97.61458 86.33229 97.83636 86.43044 98.05861 86.52856 98.28165 86.62671 98.50455 86.72485 98.72873 86.82298 98.95306 86.92111 99.17854 87.01924 99.40497 87.11739 99.63222 87.21555 99.86107 87.31367 100.09026 87.41182 100.32108 87.50995 100.55331 87.6081 100.7867 87.70624 101.02216 87.80437 101.2591 87.90251 101.49779 88.00066 101.73862 88.0988 101.9815 88.19695 102.22618 88.29507 102.47328 88.39322 102.72249 88.49135 102.97443 88.5895 103.22879 88.68764 103.48636 88.78577 103.7467 88.88393 104.00993 88.98206 104.2764 89.0802 104.54642 89.17834 104.81967 89.27647 105.09726 89.37462 105.37793 89.47275 105.66344 89.57089 105.95297 89.66904 106.24721 89.76717 106.54611 89.86531 106.84955 89.96344 107.15862 90.06158 107.4735 90.15973 107.7934 90.25786 108.11942 90.356 108.45187 90.45415 108.7913 90.55229 109.13733 90.65044 109.49048 90.74857 109.85153 90.84671 110.22112 90.94484 110.59879 91.04298 110.98517 91.14113 111.38124 91.23926 111.78746 91.33742 112.20338 91.43555 112.63045 91.53369 113.06976 91.63184 113.52104 91.72997 113.98488 91.82811 114.46228 91.92624 114.95471 92.02438 115.46327 92.12253 115.98683 92.22066 116.52896 92.31882 117.08902 92.41693 117.66762 92.51508 118.26865 92.61322 118.89116 92.71135 119.53757 92.8095 120.20995 92.90762 120.90862 93.00577 121.63603 93.10393 122.39589 93.20206 123.18979 93.3002 124.01872 93.39833 124.88818 93.49648 125.7978 93.59462 126.7568 93.69275 127.76328 93.7909 128.82495 93.88902 129.94472 93.98718 131.12935 94.08533 132.38617 94.18346 133.72235 94.2816 135.14377 94.37973 136.66074 94.47787 138.28455 94.57602 140.0249 94.67415 141.89757 94.7723 143.92148 94.87044 146.11277 94.96858 148.49546 95.06673 151.09926 95.16484 153.9513 95.26299 157.09738 95.27979 157.69419"/>
<path transform="matrix(-.013080393,.99994,.99991008,.013080784,78.31205,163.14586)" d="M2.8892 0-1.73352 2.31136 0 0-1.73352-2.31136" fill="#0000ff"/>
<path transform="matrix(.028150846,-.99961999,-.99959006,-.028151688,97.72331,8.8315739)" d="M2.8892 0-1.73352 2.31136 0 0-1.73352-2.31136" fill="#0000ff"/>
<path transform="matrix(1.00003,0,0,-1.00006,2.4406586,166.5352)" stroke-width=".99628" stroke-linecap="butt" stroke-miterlimit="10" stroke-linejoin="miter" fill="none" stroke="#0000ff" d="M98.36334 3.38914 98.42369 8.0004 98.52184 14.4335 98.61998 20.0325 98.71811 24.94104 98.81625 29.29004 98.9144 33.16096 99.01254 36.64018 99.11067 39.77742 99.20882 42.6259 99.30696 45.2268 99.40509 47.60497 99.50323 49.7935 99.60138 51.81451 99.69952 53.6859 99.79765 55.42189 99.8958 57.04472 99.99394 58.55862 100.09207 59.97989 100.19022 61.3114 100.28836 62.56819 100.3865 63.7522 100.48463 64.87164 100.58278 65.93265 100.68092 66.938 100.77905 67.89427 100.87718 68.80423 100.97533 69.67238 101.07347 70.5018 101.1716 71.29408 101.26974 72.05249 101.36789 72.78006 101.46602 73.47794 101.56416 74.1503 101.66231 74.79605 101.76045 75.41809 101.85858 76.01848 101.95673 76.59726 102.05487 77.15714 102.153 77.6991 102.25114 78.22218 102.34929 78.72899 102.44743 79.22205 102.54556 79.69911 102.6437 80.1633 102.74185 80.61441 102.83998 81.05325 102.93813 81.48029 103.03627 81.89606 103.13441 82.30132 103.23254 82.69786 103.33069 83.08409 103.42883 83.46127 103.52696 83.83087 103.62509 84.19159 103.72324 84.54472 103.82138 84.89093 103.91951 85.22986 104.01765 85.56201 104.1158 85.88834 104.21394 86.20824 104.31207 86.52248 104.41022 86.83154 104.50836 87.13496 104.60649 87.43388 104.70464 87.72778 104.80278 88.01782 104.90091 88.30252 104.99905 88.5835 105.0972 88.86111 105.19534 89.13419 105.29347 89.40437 105.39162 89.6705 105.48976 89.93439 105.58789 90.19408 105.68604 90.4515 105.78418 90.70587 105.88232 90.95764 105.98045 91.20702 106.0786 91.4541 106.17674 91.69862 106.27487 91.94121 106.373 92.182 106.47115 92.42072 106.56929 92.65765 106.66742 92.89279 106.76556 93.12682 106.86371 93.35875 106.96184 93.58952 107.05998 93.81905 107.15813 94.04758 107.25627 94.27483 107.3544 94.50095 107.45255 94.72658 107.55069 94.95108 107.64882 95.17494 107.74696 95.39856 107.84511 95.62091 107.94325 95.84311 108.04138 96.06543 108.13953 96.2868 108.23767 96.50816 108.3358 96.7295 108.43394 96.9503 108.53209 97.17165 108.63023 97.3927 108.72838 97.61458 108.8265 97.83636 108.92465 98.05861 109.02278 98.28134 109.12091 98.50455 109.21906 98.72873 109.31718 98.95323 109.41534 99.17854 109.51347 99.40514 109.61162 99.63222 109.70976 99.8606 109.80789 100.09026 109.90604 100.32108 110.00417 100.55331 110.10231 100.78702 110.20045 101.02216 110.29858 101.2591 110.39674 101.49796 110.49487 101.73862 110.59302 101.9815 110.69116 102.22618 110.78929 102.47328 110.88744 102.72249 110.98557 102.97443 111.08371 103.22879 111.18187 103.4862 111.28 103.74638 111.37814 104.00978 111.47627 104.2764 111.57442 104.54642 111.67256 104.81967 111.77069 105.09694 111.86882 105.37793 111.96695 105.66359 112.06511 105.95282 112.16325 106.24721 112.26138 106.54611 112.35953 106.84972 112.45766 107.15862 112.5558 107.4735 112.65395 107.79324 112.75208 108.11925 112.85022 108.45187 112.94836 108.7913 113.04651 109.13733 113.14465 109.49048 113.24278 109.85153 113.34093 110.22112 113.43906 110.59879 113.5372 110.98517 113.63535 111.3814 113.73347 111.78699 113.83163 112.20291 113.92976 112.63045 114.02791 113.06944 114.12605 113.52054 114.22418 113.98471 114.32233 114.46277 114.42046 114.9552 114.5186 115.46278 114.61674 115.98683 114.71487 116.52896 114.81302 117.08919 114.91115 117.66794 115.0093 118.26865 115.10744 118.89165 115.20557 119.53835 115.30371 120.20944 115.40184 120.90878 115.49998 121.63635 115.59814 122.39685 115.69627 123.18898 115.79442 124.01872 115.89255 124.88834 115.99069 125.7986 116.08884 126.7568 116.18697 127.76263 116.28511 128.82382 116.38324 129.94472 116.4814 131.13082 116.57954 132.38665 116.67767 133.72235 116.77582 135.14377 116.87395 136.6601 116.97209 138.28455 117.07024 140.0249 117.16837 141.9003 117.26651 143.92293 117.36465 146.11452 117.46278 148.49546 117.56093 151.09926 117.65906 153.9513 117.7572 157.09738 117.77391 157.6903"/>
<path transform="matrix(-.013080393,.99994,.99991008,.013080784,100.80695,163.14586)" d="M2.8892 0-1.73352 2.31136 0 0-1.73352-2.31136" fill="#0000ff"/>
<path transform="matrix(.028180846,-.99961999,-.99959006,-.028181689,120.2181,8.835449)" d="M2.8892 0-1.73352 2.31136 0 0-1.73352-2.31136" fill="#0000ff"/>
<path transform="matrix(1.00003,0,0,-1.00006,2.4406586,166.5352)" stroke-width=".99628" stroke-linecap="butt" stroke-miterlimit="10" stroke-linejoin="miter" fill="none" stroke="#0000ff" d="M120.8576 3.40079 120.91791 7.99832 121.01605 14.4335 121.1142 20.0325 121.21233 24.94783 121.31047 29.29004 121.40862 33.16017 121.50674 36.64018 121.60489 39.77936 121.70303 42.62978 121.80118 45.22325 121.8993 47.60641 121.99745 49.79399 122.0956 51.81259 122.19373 53.68364 122.29187 55.42412 122.39001 57.0428 122.48816 58.55959 122.58629 59.98053 122.68443 61.31187 122.78258 62.5687 122.8807 63.75073 122.97885 64.87083 123.07698 65.9312 123.17513 66.938 123.27325 67.89346 123.3714 68.80423 123.46954 69.6732 123.56767 70.5018 123.66582 71.29425 123.76396 72.05249 123.8621 72.78006 123.96024 73.47876 124.05838 74.1503 124.15652 74.79605 124.25465 75.41858 124.3528 76.01897 124.45094 76.59726 124.54909 77.15681 124.64722 77.69781 124.74536 78.22186 124.8435 78.72978 124.94164 79.22173 125.03978 79.69879 125.13792 80.1633 125.23607 80.61441 125.3342 81.05276 125.43234 81.47981 125.53049 81.89606 125.62862 82.30212 125.72676 82.69786 125.82489 83.08409 125.92303 83.4616 126.02116 83.83087 126.11931 84.19174 126.21745 84.54472 126.31558 84.89093 126.41373 85.22954 126.51187 85.56201 126.61002 85.88834 126.70815 86.20856 126.80629 86.52248 126.90443 86.83186 127.00256 87.13496 127.10071 87.43388 127.19885 87.72778 127.297 88.01732 127.39513 88.30284 127.49327 88.5835 127.59142 88.86078 127.68954 89.13419 127.78769 89.40437 127.88583 89.6705 127.98398 89.93408 128.0821 90.19408 128.18025 90.4515 128.2784 90.70572 128.37653 90.95764 128.47467 91.20702 128.5728 91.4541 128.67095 91.69862 128.76908 91.94136 128.86722 92.182 128.96537 92.42072 129.06349 92.6578 129.16164 92.89296 129.25978 93.12682 129.35793 93.35875 129.45606 93.58952 129.5542 93.81905 129.65235 94.04758 129.75048 94.27483 129.84862 94.50095 129.94676 94.72658 130.0449 94.9514 130.14304 95.17526 130.24118 95.39822 130.33933 95.62091 130.43746 95.84311 130.5356 96.06543 130.63375 96.2868 130.73189 96.50816 130.83002 96.72919 130.92816 96.9503 131.02629 97.17165 131.12444 97.3927 131.2226 97.61458 131.32071 97.83636 131.41886 98.05891 131.51699 98.28134 131.61513 98.5044 131.71327 98.72873 131.8114 98.95323 131.90955 99.17885 132.00769 99.40497 132.10582 99.63254 132.20398 99.8606 132.30211 100.09026 132.40026 100.3214 132.49839 100.55331 132.59653 100.78702 132.69467 101.02216 132.7928 101.2591 132.89095 101.49779 132.98909 101.73862 133.08724 101.9815 133.18538 102.22618 133.28351 102.47296 133.38166 102.72249 133.47978 102.97443 133.57793 103.22879 133.67607 103.4862 133.7742 103.7467 133.87236 104.00978 133.97049 104.2764 134.06864 104.5461 134.16677 104.81967 134.2649 105.09694 134.36304 105.37793 134.46117 105.66359 134.55931 105.95331 134.65747 106.24721 134.7556 106.54579 134.85375 106.84955 134.95188 107.15877 135.05002 107.4735 135.14817 107.7934 135.24629 108.11974 135.34444 108.45187 135.44258 108.79114 135.54073 109.13733 135.63887 109.49048 135.737 109.85153 135.83515 110.22112 135.93328 110.59814 136.03142 110.98566 136.12957 111.38124 136.22769 111.78746 136.32585 112.20291 136.42398 112.63045 136.52213 113.06944 136.62027 113.52104 136.7184 113.9852 136.81655 114.46277 136.91466 114.95471 137.0128 115.46278 137.11095 115.98683 137.20909 116.52864 137.30724 117.0882 137.40537 117.66794 137.50351 118.26865 137.60166 118.89116 137.69979 119.53706 137.79793 120.20944 137.89606 120.90878 137.99422 121.63586 138.09236 122.39603 138.19049 123.18802 138.28864 124.01872 138.38677 124.88736 138.48491 125.7986 138.58306 126.75537 138.68119 127.76263 138.77933 128.82495 138.87746 129.94472 138.97562 131.13162 139.07376 132.38825 139.17189 133.72188 139.27004 135.14427 139.36817 136.66074 139.46631 138.28215 139.56446 140.0249 139.66257 141.89757 139.76071 143.92148 139.85886 146.11277 139.957 148.49755 140.05515 151.09926 140.15328 153.95066 140.25142 157.09738 140.26822 157.69178"/>
<path transform="matrix(-.013090393,.99994,.99991008,.013090785,123.30191,163.1342)" d="M2.8892 0-1.73352 2.31136 0 0-1.73352-2.31136" fill="#0000ff"/>
<path transform="matrix(.028150846,-.99961999,-.99959006,-.028151688,142.71309,8.833984)" d="M2.8892 0-1.73352 2.31136 0 0-1.73352-2.31136" fill="#0000ff"/>
<path transform="matrix(1.00003,0,0,-1.00006,2.4406586,166.5352)" stroke-width=".99628" stroke-linecap="butt" stroke-miterlimit="10" stroke-linejoin="miter" fill="none" stroke="#0000ff" d="M143.35182 3.40079 143.41213 7.99347 143.51027 14.4377 143.60842 20.0325 143.70655 24.94104 143.80469 29.29004 143.90283 33.16017 144.00096 36.64244 144.0991 39.77936 144.19725 42.6259 144.2954 45.22777 144.39353 47.60497 144.49167 49.7935 144.58982 51.81451 144.68795 53.6859 144.78609 55.42462 144.88423 57.04408 144.98238 58.55862 145.0805 59.97794 145.17865 61.3122 145.27678 62.56691 145.37491 63.75156 145.47306 64.87164 145.5712 65.9304 145.66934 66.93784 145.76747 67.89474 145.86562 68.80423 145.96376 69.6732 146.06189 70.50116 146.16004 71.29408 146.25818 72.05313 146.35633 72.77927 146.45446 73.47794 146.5526 74.1503 146.65074 74.79477 146.74887 75.41809 146.84702 76.01768 146.94516 76.59726 147.0433 77.1565 147.14144 77.6991 147.23958 78.22171 147.33773 78.72978 147.43585 79.22205 147.534 79.69962 147.63214 80.1633 147.73029 80.6139 147.82842 81.05309 147.92656 81.48029 148.02469 81.89606 148.12282 82.30196 148.22097 82.69739 148.3191 83.08424 148.41725 83.46127 148.51538 83.83055 148.61353 84.19127 148.71167 84.54472 148.8098 84.89093 148.90795 85.22954 149.00609 85.56201 149.10424 85.88803 149.20236 86.20824 149.3005 86.52248 149.39865 86.83154 149.49678 87.13496 149.59493 87.43388 149.69307 87.72778 149.79122 88.01732 149.88935 88.30252 149.98749 88.5835 150.08563 88.86078 150.18378 89.13419 150.2819 89.40437 150.38005 89.6705 150.4782 89.93408 150.57633 90.1944 150.67447 90.4515 150.77262 90.70572 150.87075 90.95781 150.96887 91.20702 151.06702 91.4541 151.16516 91.69862 151.26329 91.94136 151.36144 92.182 151.45958 92.42072 151.55771 92.65765 151.65586 92.89296 151.754 93.12682 151.85214 93.35875 151.95027 93.58952 152.04842 93.81905 152.14656 94.04758 152.24469 94.27483 152.34284 94.50095 152.44098 94.72658 152.53913 94.9514 152.63726 95.17494 152.7354 95.39856 152.83354 95.62091 152.93167 95.84326 153.02982 96.06543 153.12796 96.2868 153.2261 96.50816 153.32424 96.72919 153.42238 96.9503 153.52051 97.17165 153.61864 97.3927 153.7168 97.61458 153.81493 97.83636 153.91307 98.05891 154.0112 98.28134 154.10935 98.50455 154.20749 98.72873 154.30562 98.95323 154.40377 99.17854 154.5019 99.40497 154.60005 99.63222 154.6982 99.8606 154.79633 100.09026 154.89447 100.32108 154.9926 100.55331 155.09075 100.7867 155.18889 101.02216 155.28702 101.2591 155.38518 101.49796 155.4833 101.73862 155.58145 101.9815 155.6796 102.22601 155.77773 102.47328 155.87587 102.72249 155.974 102.97443 156.07215 103.22879 156.17029 103.4862 156.26842 103.7467 156.36656 104.00993 156.46469 104.2764 156.56284 104.5461 156.66098 104.81967 156.75911 105.09694 156.85726 105.37793 156.95539 105.66359 157.05353 105.95282 157.15169 106.24721 157.24982 106.54611 157.34796 106.84955 157.44609 107.15877 157.54424 107.47302 157.64238 107.79324 157.74051 108.11942 157.83866 108.45187 157.9368 108.7913 158.03495 109.13733 158.13309 109.49048 158.23122 109.85153 158.32936 110.22112 158.42749 110.59879 158.52564 110.98517 158.62378 111.38124 158.72191 111.78699 158.82007 112.20291 158.9182 112.63077 159.01634 113.06976 159.11447 113.52069 159.2126 113.98471 159.31075 114.46228 159.40888 114.9552 159.50702 115.46327 159.60517 115.98781 159.70331 116.52896 159.80146 117.08902 159.89958 117.66762 159.99773 118.26865 160.09587 118.89116 160.194 119.53757 160.29215 120.21027 160.39028 120.90862 160.48844 121.63635 160.58658 122.39685 160.68471 123.18883 160.78285 124.01904 160.88098 124.88818 160.97913 125.7986 161.07727 126.756 161.1754 127.76263 161.27355 128.82495 161.37169 129.94472 161.46984 131.13162 161.56798 132.38665 161.6661 133.72235 161.76425 135.14377 161.86237 136.65993 161.96051 138.28359 162.05866 140.0249 162.15679 141.9003 162.25493 143.92293 162.35308 146.11277 162.45122 148.49546 162.54936 151.09555 162.64749 153.95066 162.74564 157.09272 162.76265 157.69419"/>
<path transform="matrix(-.013090393,.99994,.99991008,.013090785,145.7968,163.1342)" d="M2.8892 0-1.73352 2.31136 0 0-1.73352-2.31136" fill="#0000ff"/>
<path transform="matrix(.028080844,-.99961999,-.99959006,-.028081684,165.20819,8.8315739)" d="M2.8892 0-1.73352 2.31136 0 0-1.73352-2.31136" fill="#0000ff"/>
<path transform="matrix(1.00003,0,0,-1.00006,2.4406586,166.5352)" stroke-width=".99628" stroke-linecap="butt" stroke-miterlimit="10" stroke-linejoin="miter" fill="none" stroke="#0000ff" d="M165.846 3.38914 165.90634 7.99347 166.00449 14.4335 166.10263 20.0325 166.20076 24.94104 166.2989 29.29004 166.39705 33.16017 166.49518 36.64018 166.59333 39.77936 166.69147 42.6259 166.78961 45.22421 166.88774 47.60641 166.98589 49.7935 167.08403 51.81259 167.18216 53.68364 167.2803 55.42189 167.37845 57.04181 167.47658 58.55862 167.5747 59.97794 167.67285 61.3122 167.771 62.5687 167.86913 63.7522 167.96727 64.87164 168.06542 65.932 168.16356 66.93784 168.26169 67.89474 168.35984 68.80406 168.45798 69.6732 168.5561 70.50116 168.65425 71.29361 168.7524 72.05249 168.85054 72.78055 168.94867 73.47876 169.04682 74.1503 169.14496 74.79605 169.24309 75.41809 169.34123 76.01848 169.43938 76.59726 169.53752 77.15714 169.63565 77.69829 169.7338 78.22171 169.83194 78.72899 169.93007 79.22154 170.02822 79.69911 170.12636 80.1633 170.2245 80.61441 170.32262 81.05276 170.42076 81.47981 170.5189 81.89606 170.61704 82.30196 170.71518 82.69786 170.81333 83.08409 170.91147 83.4616 171.0096 83.83055 171.10774 84.19159 171.20589 84.54472 171.30403 84.89093 171.40216 85.22986 171.5003 85.56201 171.59845 85.88803 171.69658 86.20824 171.79473 86.52248 171.89287 86.83154 171.99102 87.13496 172.08914 87.4342 172.18729 87.72778 172.28543 88.01732 172.38356 88.303 172.4817 88.58383 172.57985 88.86078 172.678 89.13419 172.77613 89.40404 172.87427 89.6705 172.97241 89.93408 173.07053 90.1944 173.16867 90.4515 173.26682 90.70572 173.36496 90.95764 173.46309 91.20702 173.56124 91.4541 173.65938 91.69862 173.7575 91.94121 173.85565 92.182 173.9538 92.42087 174.05193 92.65765 174.15007 92.89296 174.24822 93.12682 174.34636 93.35875 174.44449 93.58952 174.54264 93.81905 174.64078 94.04774 174.7389 94.27483 174.83705 94.50078 174.9352 94.72658 175.03334 94.95108 175.13147 95.17494 175.22962 95.39822 175.32776 95.62125 175.42589 95.84326 175.52404 96.06506 175.62218 96.2868 175.72032 96.50816 175.81844 96.72919 175.91658 96.9503 176.01471 97.17165 176.11286 97.3927 176.21102 97.61458 176.30915 97.83636 176.40729 98.05861 176.50542 98.28134 176.60356 98.50455 176.7017 98.72873 176.79984 98.95323 176.89798 99.17854 176.99613 99.40497 177.09427 99.63222 177.19242 99.8606 177.29055 100.09026 177.38869 100.32108 177.48682 100.55315 177.58496 100.7867 177.6831 101.02249 177.78124 101.2591 177.8794 101.49779 177.97753 101.73862 178.07567 101.98117 178.17382 102.22618 178.27194 102.47296 178.37009 102.72249 178.46822 102.97443 178.56635 103.22879 178.66449 103.4862 178.76264 103.7467 178.86078 104.00993 178.95891 104.2764 179.05706 104.5461 179.1552 104.81967 179.25333 105.09694 179.35147 105.37825 179.4496 105.66312 179.54776 105.95282 179.6459 106.24721 179.74404 106.54579 179.84218 106.84955 179.9403 107.15862 180.03845 107.4735 180.1366 107.79324 180.23473 108.11925 180.33289 108.45172 180.43102 108.7913 180.52916 109.13733 180.6273 109.49031 180.72544 109.8512 180.82358 110.22112 180.9217 110.59879 181.01985 110.98517 181.118 111.38124 181.21613 111.78699 181.31427 112.20291 181.4124 112.63045 181.51055 113.06976 181.60869 113.52104 181.70682 113.98471 181.80496 114.46245 181.90309 114.9552 182.00124 115.46278 182.09938 115.98683 182.19753 116.528 182.29567 117.08919 182.3938 117.66794 182.49195 118.26865 182.59009 118.89116 182.68822 119.53757 182.78636 120.20863 182.88449 120.90782 182.98265 121.63556 183.0808 122.39685 183.17893 123.18883 183.27707 124.01825 183.3752 124.88719 183.47335 125.7986 183.57149 126.75537 183.66962 127.76263 183.76776 128.82495 183.8659 129.94504 183.96405 131.12935 184.06218 132.38617 184.16031 133.72235 184.25846 135.14183 184.35659 136.65993 184.45473 138.28215 184.55287 140.02423 184.651 141.89757 184.74916 143.92067 184.84729 146.11325 184.94544 148.49594 185.04358 151.09926 185.14171 153.95066 185.23986 157.09819 185.25666 157.69419"/>
<path transform="matrix(-.013080393,.99994,.99991008,.013080784,168.29164,163.14586)" d="M2.8892 0-1.73352 2.31136 0 0-1.73352-2.31136" fill="#0000ff"/>
<path transform="matrix(.028150846,-.99961999,-.99959006,-.028151688,187.70288,8.8315739)" d="M2.8892 0-1.73352 2.31136 0 0-1.73352-2.31136" fill="#0000ff"/>
<path transform="matrix(1.00003,0,0,-1.00006,2.4406586,166.5352)" stroke-width=".3985" stroke-linecap="butt" stroke-dasharray="2.98883,2.98883" stroke-miterlimit="10" stroke-linejoin="miter" fill="none" stroke="#ff0000" d="M7.16013 0V161.39636"/>
<path transform="matrix(1.00003,0,0,-1.00006,2.4406586,166.5352)" stroke-width=".3985" stroke-linecap="butt" stroke-dasharray="2.98883,2.98883" stroke-miterlimit="10" stroke-linejoin="miter" fill="none" stroke="#ff0000" d="M29.65434 0V161.39636"/>
<path transform="matrix(1.00003,0,0,-1.00006,2.4406586,166.5352)" stroke-width=".3985" stroke-linecap="butt" stroke-dasharray="2.98883,2.98883" stroke-miterlimit="10" stroke-linejoin="miter" fill="none" stroke="#ff0000" d="M52.14856 0V161.39636"/>
<path transform="matrix(1.00003,0,0,-1.00006,2.4406586,166.5352)" stroke-width=".3985" stroke-linecap="butt" stroke-dasharray="2.98883,2.98883" stroke-miterlimit="10" stroke-linejoin="miter" fill="none" stroke="#ff0000" d="M74.64278 0V161.39636"/>
<path transform="matrix(1.00003,0,0,-1.00006,2.4406586,166.5352)" stroke-width=".3985" stroke-linecap="butt" stroke-dasharray="2.98883,2.98883" stroke-miterlimit="10" stroke-linejoin="miter" fill="none" stroke="#ff0000" d="M119.6312 0V161.39636"/>
<path transform="matrix(1.00003,0,0,-1.00006,2.4406586,166.5352)" stroke-width=".3985" stroke-linecap="butt" stroke-dasharray="2.98883,2.98883" stroke-miterlimit="10" stroke-linejoin="miter" fill="none" stroke="#ff0000" d="M142.12541 0V161.39636"/>
<path transform="matrix(1.00003,0,0,-1.00006,2.4406586,166.5352)" stroke-width=".3985" stroke-linecap="butt" stroke-dasharray="2.98883,2.98883" stroke-miterlimit="10" stroke-linejoin="miter" fill="none" stroke="#ff0000" d="M164.61963 0V161.39636"/>
<path transform="matrix(1.00003,0,0,-1.00006,2.4406586,166.5352)" stroke-width=".3985" stroke-linecap="butt" stroke-dasharray="2.98883,2.98883" stroke-miterlimit="10" stroke-linejoin="miter" fill="none" stroke="#ff0000" d="M187.11385 0V161.39636"/>
<use data-text="x" xlink:href="#font_3_2" transform="matrix(9.962899,0,0,-9.963197,187.50621,82.31215)"/>
<use data-text="y" xlink:href="#font_3_3" transform="matrix(9.962899,0,0,-9.963197,103.10068,12.93898)"/>
</svg>
