<svg xmlns="http://www.w3.org/2000/svg" xmlns:xlink="http://www.w3.org/1999/xlink" version="1.1" width="208" height="170" viewBox="0 0 208 170">
<defs>
<path id="font_1_1" d="M.6589966 .23046875C.6759949 .23046875 .69400027 .23046875 .69400027 .25045777 .69400027 .27046205 .6759949 .27046205 .6589966 .27046205H.117996219C.100997928 .27046205 .08299255 .27046205 .08299255 .25045777 .08299255 .23046875 .100997928 .23046875 .117996219 .23046875H.6589966Z"/>
<path id="font_2_1" d="M.2649994 .37265016H.37799073C.34498597 .22489929 .33599855 .18196106 .33599855 .11508179 .33599855 .100097659 .33599855 .073150638 .34399415 .03919983 .35398866-.0047454836 .36499024-.0107421879 .37998963-.0107421879 .3999939-.0107421879 .42099 .007247925 .42099 .02722168 .42099 .033218385 .42099 .035202028 .4149933 .049179079 .38598634 .12106323 .38598634 .18595886 .38598634 .21391297 .38598634 .26683045 .3929901 .32073976 .4039917 .37265016H.5179901C.5309906 .37265016 .5669861 .37265016 .5669861 .406662 .5669861 .43066407 .54599 .43066407 .5269928 .43066407H.19198609C.16999817 .43066407 .13198853 .43066407 .08799744 .38365174 .052993776 .34469605 .026992798 .29878236 .026992798 .29379273 .026992798 .29278565 .026992798 .28379823 .038986207 .28379823 .04699707 .28379823 .04899597 .28779603 .054992677 .29577638 .10398865 .37265016 .1619873 .37265016 .18199158 .37265016H.23899842C.20698548 .25186158 .15299988 .13105774 .11099243 .04020691 .102996829 .025222779 .102996829 .023223877 .102996829 .016235352 .102996829-.002746582 .11898804-.0107421879 .13198853-.0107421879 .1619873-.0107421879 .16999817 .017242432 .18199158 .05418396 .19599915 .100097659 .19599915 .10209656 .20899964 .15202332L.2649994 .37265016Z"/>
<path id="font_3_1" d="M.31098939 .36265565H.42999269C.4149933 .30274964 .3929901 .2118988 .3929901 .13302613 .3929901 .09309387 .397995 .06613159 .4039917 .044174196 .41999818-.0057678224 .43299867-.009765625 .44898988-.009765625 .47200013-.009765625 .49598695 .011230469 .49598695 .035186769 .49598695 .043182374 .49398805 .047164918 .48799134 .057159425 .46899415 .09408569 .45098878 .15100098 .45098878 .23286438 .45098878 .25183106 .45098878 .29177857 .46499635 .36265565H.58999636C.60798647 .36265565 .6159973 .36265565 .6269989 .37065126 .6409912 .380661 .6439972 .39665223 .6439972 .4016571 .6439972 .43066407 .6179962 .43066407 .6009979 .43066407H.22399903C.18299866 .43066407 .15499878 .42166139 .10998535 .37965394 .083999637 .35665895 .04499817 .30274964 .04499817 .2937622 .04499817 .28178407 .057998659 .28178407 .06199646 .28178407 .07299805 .28178407 .07398987 .28378297 .07998657 .2927704 .1309967 .36265565 .19299317 .36265565 .21499634 .36265565H.27598573C.24499512 .25283814 .19099427 .13502503 .16099549 .07511902 .15499878 .062149049 .14498902 .04118347 .14199829 .03718567 .14099121 .033187868 .13899231 .029190064 .13899231 .022201539 .13899231 .006225586 .15098572-.009765625 .17399597-.009765625 .21398926-.009765625 .22499085 .035186769 .24899292 .12504578L.31098939 .36265565Z"/>
<path id="font_4_1" d="M.5049896 .18203736H.47099305C.46798707 .16001892 .45799256 .100997928 .44499208 .09098816 .43699647 .084991458 .3600006 .084991458 .34599305 .084991458H.1619873C.2669983 .17803955 .3019867 .20603943 .3619995 .25306703 .43598939 .312088 .5049896 .374115 .5049896 .46914674 .5049896 .5900879 .39898683 .6640625 .2709961 .6640625 .14698792 .6640625 .06298828 .57710269 .06298828 .4851532 .06298828 .43414308 .10598755 .42915345 .115997318 .42915345 .13999939 .42915345 .16899109 .44615174 .16899109 .48214723 .16899109 .5001526 .1619873 .53515627 .10998535 .53515627 .14099121 .6060791 .20899964 .62805178 .2559967 .62805178 .35598756 .62805178 .4079895 .5501404 .4079895 .46914674 .4079895 .38212586 .34599305 .3130951 .31399537 .27708436L.07299805 .038986207C.06298828 .02999878 .06298828 .027999878 .06298828 0H.47499085L.5049896 .18203736Z"/>
<path id="font_4_2" d="M.272995 .33428956C.35099793 .33428956 .40699769 .2803192 .40699769 .1733551 .40699769 .04940796 .33499146 .012466431 .2769928 .012466431 .23699951 .012466431 .14898682 .0234375 .10699463 .082351688 .1539917 .084350589 .16499329 .11735535 .16499329 .13835144 .16499329 .17034912 .14099121 .19335938 .10998535 .19335938 .08198547 .19335938 .053985597 .17634583 .053985597 .13534546 .053985597 .041412355 .1579895-.01953125 .2789917-.01953125 .41799928-.01953125 .5139923 .07336426 .5139923 .1733551 .5139923 .2513275 .44999696 .32929994 .33999635 .35229493 .44499208 .39024354 .48298646 .4650879 .48298646 .5260773 .48298646 .60505679 .3919983 .6640625 .2809906 .6640625 .16999817 .6640625 .084991458 .61006167 .084991458 .5300751 .084991458 .49606324 .10699463 .47706605 .13699341 .47706605 .16799927 .47706605 .18798828 .5000763 .18798828 .5280762 .18798828 .5570679 .16799927 .57806399 .13699341 .5800781 .17199707 .62405398 .24099732 .63505557 .27799989 .63505557 .32299806 .63505557 .38598634 .6130676 .38598634 .5260773 .38598634 .48406983 .37199403 .43814088 .34599305 .4072113 .31298829 .36927796 .2849884 .3672943 .23498535 .36428834 .20999146 .3623047 .20799256 .3623047 .20298767 .3612976 .20098877 .3612976 .19299317 .3592987 .19299317 .34829713 .19299317 .33428956 .20199585 .33428956 .21899414 .33428956H.272995Z"/>
<path id="font_5_2" d="M.1269989 .07699585 .23298645 .18003845C.3889923 .31811524 .44898988 .3721466 .44898988 .47216798 .44898988 .5860901 .35899354 .6660156 .23699951 .6660156 .12399292 .6660156 .049987794 .57411196 .049987794 .48516847 .049987794 .4291687 .099990848 .4291687 .102996829 .4291687 .11999512 .4291687 .15499878 .44117738 .15499878 .48217774 .15499878 .5081787 .13699341 .5341797 .101989749 .5341797 .09399414 .5341797 .09199524 .5341797 .08898926 .5331726 .11199951 .59806826 .1659851 .63500979 .22399903 .63500979 .31498719 .63500979 .35798646 .5541382 .35798646 .47216798 .35798646 .39215089 .30799867 .31311036 .25299073 .25108338L.06098938 .036987306C.049987794 .025985718 .049987794 .023986817 .049987794 0H.42099L.44898988 .17404175H.42399598C.4189911 .14402771 .4119873 .1000061 .4019928 .084991458 .394989 .07699585 .32899476 .07699585 .30699159 .07699585H.1269989Z"/>
<path id="font_5_1" d="M.2939911 .64004519C.2939911 .66400149 .2939911 .6660156 .2709961 .6660156 .20899964 .60227969 .12098694 .60227969 .08898926 .60227969V.57128909C.10899353 .57128909 .16799927 .57128909 .21998596 .5972748V.07902527C.21998596 .042999269 .21699524 .0309906 .1269989 .0309906H.09498596V0C.12998963 .0029907227 .21699524 .0029907227 .25698854 .0029907227 .29699708 .0029907227 .38398744 .0029907227 .4189911 0V.0309906H.3869934C.29699708 .0309906 .2939911 .041992189 .2939911 .07902527V.64004519Z"/>
<path id="font_5_3" d="M.2899933 .35191346C.37199403 .37893678 .42999269 .4490509 .42999269 .52809146 .42999269 .6100464 .34199525 .6660156 .24598694 .6660156 .14498902 .6660156 .068984989 .60606387 .068984989 .53009036 .068984989 .49710084 .09098816 .47808839 .11999512 .47808839 .15098572 .47808839 .17098999 .50009158 .17098999 .5290985 .17098999 .57910159 .12399292 .57910159 .10899353 .57910159 .13999939 .62802127 .20599365 .64100649 .24198914 .64100649 .2829895 .64100649 .33799745 .6190338 .33799745 .5290985 .33799745 .51708987 .33599855 .45906068 .30999757 .4149933 .27999879 .36691285 .24598694 .36390687 .22099304 .36291505 .21299744 .36190797 .18899536 .35990907 .18199158 .35990907 .17399597 .35890199 .16699219 .35791017 .16699219 .3479004 .16699219 .33691407 .17399597 .33691407 .19099427 .33691407H.23498535C.31698609 .33691407 .35398866 .2686615 .35398866 .17037964 .35398866 .034469606 .2849884 .0055389406 .24099732 .0055389406 .19799805 .0055389406 .12298584 .022491456 .08799744 .08137512 .12298584 .07637024 .1539917 .09837341 .1539917 .1363678 .1539917 .17237854 .1269989 .19238281 .09799194 .19238281 .07398987 .19238281 .041992189 .17837525 .041992189 .1343689 .041992189 .043441774 .1349945-.022460938 .24398804-.022460938 .3659973-.022460938 .45700074 .06838989 .45700074 .17037964 .45700074 .252594 .3939972 .33088685 .2899933 .35191346Z"/>
<path id="font_5_4" d="M.2939911 .16503906V.07800293C.2939911 .041992189 .2919922 .0309906 .21798706 .0309906H.19699097V0C.23799134 .0029907227 .2899933 .0029907227 .33198548 .0029907227 .37399293 .0029907227 .4269867 .0029907227 .46798707 0V.0309906H.44699098C.37298585 .0309906 .37098695 .041992189 .37098695 .07800293V.16503906H.47099305V.19602967H.37098695V.65075686C.37098695 .67074587 .37098695 .6767578 .35499574 .6767578 .34599305 .6767578 .34298707 .6767578 .33499146 .66474917L.027999878 .19602967V.16503906H.2939911M.2999878 .19602967H.055999757L.2999878 .5688019V.19602967Z"/>
<path id="font_2_2" d="M.33399964 .30233766C.33999635 .32835389 .36299134 .42037965 .43299867 .42037965 .43798829 .42037965 .46199037 .42037965 .48298646 .40734864 .45498658 .402359 .43499757 .37734986 .43499757 .35334779 .43499757 .33735658 .44599916 .31835938 .47299195 .31835938 .49499513 .31835938 .5269928 .3363495 .5269928 .37635804 .5269928 .42837525 .46798707 .4423828 .43399049 .4423828 .37599183 .4423828 .34098817 .38935853 .32899476 .36634828 .3039856 .43237306 .25 .4423828 .22099304 .4423828 .116989139 .4423828 .05999756 .3133545 .05999756 .28834535 .05999756 .27833558 .069992069 .27833558 .07199097 .27833558 .07998657 .27833558 .08299255 .28033448 .084991458 .28933717 .11898804 .39535523 .18499756 .42037965 .21899414 .42037965 .23799134 .42037965 .272995 .4113617 .272995 .35334779 .272995 .32235719 .2559967 .25532533 .21899414 .11528015 .20298767 .053268434 .16799927 .011245728 .12399292 .011245728 .117996219 .011245728 .09498596 .011245728 .07398987 .024276734 .09899902 .029266358 .12098694 .05027771 .12098694 .07827759 .12098694 .105270389 .09899902 .11328125 .083999637 .11328125 .053985597 .11328125 .0289917 .08728027 .0289917 .055267335 .0289917 .009246826 .07899475-.0107421879 .12298584-.0107421879 .18899536-.0107421879 .22499085 .059280397 .22799683 .0652771 .23999024 .028274537 .27598573-.0107421879 .33599855-.0107421879 .43899537-.0107421879 .49598695 .118270877 .49598695 .14328003 .49598695 .1532898 .4869995 .1532898 .48399354 .1532898 .47499085 .1532898 .47299195 .14929199 .47099305 .14228821 .43798829 .03527832 .36999513 .011245728 .33799745 .011245728 .29899598 .011245728 .2829895 .043273927 .2829895 .07727051 .2829895 .09927368 .2889862 .121276859 .2999878 .16529846L.33399964 .30233766Z"/>
<path id="font_2_3" d="M.48599244 .38136292C.48999024 .39537049 .48999024 .39736939 .48999024 .40437318 .48999024 .42237855 .47599793 .43138124 .46099855 .43138124 .45098878 .43138124 .43499757 .42536927 .42599488 .41036988 .42399598 .405365 .41600038 .37435914 .4119873 .35635377 .40499879 .33035279 .397995 .30334474 .3919983 .27633668L.34700013 .09628296C.34298707 .08126831 .2999878 .011245728 .23399353 .011245728 .18299866 .011245728 .17199707 .055267335 .17199707 .0922699 .17199707 .1382904 .18899536 .20030213 .22299195 .28833009 .23899842 .3293457 .24299622 .3403473 .24299622 .36035157 .24299622 .405365 .21099854 .4423828 .16099549 .4423828 .06599426 .4423828 .0289917 .29733277 .0289917 .28833009 .0289917 .27833558 .038986207 .27833558 .040985109 .27833558 .050994874 .27833558 .051986696 .28033448 .056991579 .29634095 .083999637 .3903656 .12399292 .42037965 .1579895 .42037965 .1659851 .42037965 .18299866 .42037965 .18299866 .3883667 .18299866 .36335755 .17298889 .3373413 .1659851 .31834413 .12599182 .21231079 .10798645 .1552887 .10798645 .10827637 .10798645 .019256592 .17098999-.0107421879 .22999573-.0107421879 .2689972-.0107421879 .30299378 .0062561037 .33099366 .03425598 .31799317-.017745972 .30599977-.06674194 .2659912-.11973572 .23999024-.15385437 .20199585-.18309021 .1559906-.18309021 .14199829-.18309021 .09700012-.18005371 .07998657-.14074707 .09599304-.14074707 .10899353-.14074707 .12298584-.1287384 .1329956-.11973572 .14299011-.10673523 .14299011-.08773804 .14299011-.056747438 .115997318-.052734376 .10598755-.052734376 .08299255-.052734376 .049987794-.068740848 .049987794-.11773682 .049987794-.16796875 .09399414-.20507813 .1559906-.20507813 .25898744-.20507813 .3619995-.11373901 .3899994-.00074768069L.48599244 .38136292Z"/>
</defs>
<path transform="matrix(1,0,0,-1.00002,7.1100008,166.52207)" stroke-width=".19925" stroke-linecap="butt" stroke-miterlimit="10" stroke-linejoin="miter" fill="none" stroke="#929292" d="M0 52.37929V55.21422M16.1889 52.37929V55.21422M32.37782 52.37929V55.21422M48.56674 52.37929V55.21422M64.75565 52.37929V55.21422M80.94456 52.37929V55.21422M97.13348 52.37929V55.21422M113.3224 52.37929V55.21422M129.51132 52.37929V55.21422M145.70024 52.37929V55.21422M161.88916 52.37929V55.21422M178.07807 52.37929V55.21422M194.26699 52.37929V55.21422"/>
<path transform="matrix(1,0,0,-1.00002,7.1100008,166.52207)" stroke-width=".19925" stroke-linecap="butt" stroke-miterlimit="10" stroke-linejoin="miter" fill="none" stroke="#929292" d="M0 51.67078V55.92271M32.3778 51.67078V55.92271M97.13344 51.67078V55.92271M129.51128 51.67078V55.92271M161.88909 51.67078V55.92271M194.2669 51.67078V55.92271"/>
<path transform="matrix(1,0,0,-1.00002,7.1100008,166.52207)" stroke-width=".19925" stroke-linecap="butt" stroke-miterlimit="10" stroke-linejoin="miter" fill="none" stroke="#929292" d="M62.62971 0H66.88155M62.62971 26.89838H66.88155M62.62971 80.69513H66.88155M62.62971 107.59352H66.88155M62.62971 134.4919H66.88155M62.62971 161.39028H66.88155"/>
<path transform="matrix(1,0,0,-1.00002,7.1100008,166.52207)" stroke-width=".3985" stroke-linecap="butt" stroke-miterlimit="10" stroke-linejoin="miter" fill="none" stroke="#000000" d="M0 53.79675H192.27439"/>
<path transform="matrix(1,0,0,-1.00002,199.38439,112.72424)" d="M1.99252 0-1.19551 1.59401 0 0-1.19551-1.59401"/>
<path transform="matrix(1,0,0,-1.00002,7.1100008,166.52207)" stroke-width=".3985" stroke-linecap="butt" stroke-miterlimit="10" stroke-linejoin="miter" fill="none" stroke="#000000" d="M64.75563 0V159.39775"/>
<path transform="matrix(0,-1.00002,-1,-0,71.86563,7.1211245)" d="M1.99252 0-1.19551 1.59401 0 0-1.19551-1.59401"/>
<use data-text="&#x2212;" xlink:href="#font_1_1" transform="matrix(9.9626,0,0,-9.962799,.21700287,124.18222)"/>
<use data-text="&#x03c0;" xlink:href="#font_2_1" transform="matrix(9.9626,0,0,-9.962799,7.9660036,124.18222)"/>
<use data-text="&#x2212;" xlink:href="#font_1_1" transform="matrix(9.9626,0,0,-9.962799,31.962998,125.29524)"/>
<use data-text="&#x03c0;" xlink:href="#font_3_1" transform="matrix(6.9738,0,0,-6.97394,40.906999,121.37216)"/>
<path transform="matrix(1,0,0,-1.00002,-71.36,-21.283696)" stroke-width=".3985" stroke-linecap="butt" stroke-miterlimit="10" stroke-linejoin="miter" fill="none" stroke="#000000" d="M112.267-144.085H117.176"/>
<use data-text="2" xlink:href="#font_4_1" transform="matrix(6.9738,0,0,-6.97394,41.376,128.73032)"/>
<use data-text="&#x03c0;" xlink:href="#font_3_1" transform="matrix(6.9738,0,0,-6.97394,101.788,121.37216)"/>
<path transform="matrix(1,0,0,-1.00002,-2.7299958,-21.283696)" stroke-width=".3985" stroke-linecap="butt" stroke-miterlimit="10" stroke-linejoin="miter" fill="none" stroke="#000000" d="M104.518-144.085H109.427"/>
<use data-text="2" xlink:href="#font_4_1" transform="matrix(6.9738,0,0,-6.97394,102.257,128.73032)"/>
<use data-text="&#x03c0;" xlink:href="#font_2_1" transform="matrix(9.9626,0,0,-9.962799,133.603,122.66019)"/>
<use data-text="3" xlink:href="#font_4_2" transform="matrix(6.9738,0,0,-6.97394,164.55802,122.86418)"/>
<use data-text="&#x03c0;" xlink:href="#font_3_1" transform="matrix(6.9738,0,0,-6.97394,168.53,122.86418)"/>
<path transform="matrix(1,0,0,-1.00002,60.04001,-19.791668)" stroke-width=".3985" stroke-linecap="butt" stroke-miterlimit="10" stroke-linejoin="miter" fill="none" stroke="#000000" d="M104.518-144.085H113.399"/>
<use data-text="2" xlink:href="#font_4_1" transform="matrix(6.9738,0,0,-6.97394,167.013,130.22234)"/>
<use data-text="2" xlink:href="#font_5_2" transform="matrix(9.9626,0,0,-9.962799,195.868,124.79023)"/>
<use data-text="&#x03c0;" xlink:href="#font_2_1" transform="matrix(9.9626,0,0,-9.962799,200.849,124.79023)"/>
<use data-text="&#x2212;" xlink:href="#font_1_1" transform="matrix(9.9626,0,0,-9.962799,53.49,169.31713)"/>
<use data-text="2" xlink:href="#font_5_2" transform="matrix(9.9626,0,0,-9.962799,61.239004,169.31713)"/>
<use data-text="&#x2212;" xlink:href="#font_1_1" transform="matrix(9.9626,0,0,-9.962799,53.49,142.41858)"/>
<use data-text="1" xlink:href="#font_5_1" transform="matrix(9.9626,0,0,-9.962799,61.239004,142.41858)"/>
<use data-text="1" xlink:href="#font_5_1" transform="matrix(9.9626,0,0,-9.962799,61.239004,89.035518)"/>
<use data-text="2" xlink:href="#font_5_2" transform="matrix(9.9626,0,0,-9.962799,61.239004,62.13697)"/>
<use data-text="3" xlink:href="#font_5_3" transform="matrix(9.9626,0,0,-9.962799,61.239004,35.237443)"/>
<use data-text="4" xlink:href="#font_5_4" transform="matrix(9.9626,0,0,-9.962799,61.239004,8.338898)"/>
<path transform="matrix(1,0,0,-1.00002,7.1100008,166.52207)" stroke-width=".99628" stroke-linecap="butt" stroke-miterlimit="10" stroke-linejoin="miter" fill="none" stroke="#0000ff" d="M0 80.69513 .97618 88.32565 1.9524 95.89003 2.9286 103.31558 3.90482 110.54103 4.88103 117.49776 5.85724 124.12526 6.83345 130.36379 7.80966 136.15367 8.78587 141.4505 9.76208 146.19942 10.7383 150.36248 11.7145 153.90177 12.6907 156.78258 13.66692 158.98555 14.64313 160.48003 15.61934 161.26358 16.59555 161.3241 17.57176 160.66159 18.54797 159.28333 19.52419 157.19734 20.5004 154.4295 21.47661 150.99674 22.45282 146.93697 23.42902 142.28003 24.40521 137.0728 25.38144 131.36119 26.35765 125.19447 27.33385 118.6283 28.31006 111.72162 29.28627 104.53812 30.26248 97.14081 31.2387 89.595 32.2149 81.97092 33.19112 74.33392 34.16733 66.75584 35.14352 59.30124 36.11974 52.03786 37.09595 45.03271 38.07216 38.3455 39.04837 32.03757 40.02458 26.1694 41.0008 20.78786 41.977 15.94293 42.95322 11.679 43.92943 8.0356 44.90564 5.041 45.88184 2.72505 46.85805 1.11037 47.83426 .20656 48.81047 .02742 49.78668 .56728 50.7629 1.82855 51.73909 3.79588 52.7153 6.45236 53.69151 9.7762 54.66772 13.7343 55.64394 18.29356 56.62015 23.41125 57.59634 29.04298 58.57256 35.1395 59.54877 41.63869 60.52498 48.49373 61.50119 55.63686 62.4774 63.00514 63.45361 70.52914 64.42982 78.14598 65.40604 85.78294 66.38225 93.37637 67.35846 100.8568 68.33467 108.15729 69.31087 115.21005 70.28708 121.95375 71.26329 128.32866 72.2395 134.27428 73.21571 139.743 74.19193 144.6783 75.16814 149.04149 76.14435 152.79059 77.12056 155.89655 78.09677 158.32547 79.07297 160.0588 80.04918 161.08362 81.02538 161.38382 82.00159 160.96419 82.9778 159.82155 83.95401 157.9712 84.93022 155.42852 85.90643 152.21363 86.88264 148.36203 87.85886 143.89717 88.83507 138.87067 89.81128 133.32128 90.78749 127.299 91.76369 120.86194 92.7399 114.06015 93.71611 106.96382 94.69232 99.62782 95.66853 92.12398 96.64474 84.51846 97.62096 76.88147 98.59723 69.27354 99.57335 61.77213 100.5496 54.43611 101.52574 47.33899 102.502 40.53719 103.47826 34.09851 104.45439 28.07623 105.43065 22.52524 106.40677 17.49954 107.38304 13.03467 108.35931 9.18066 109.33543 5.96577 110.3117 3.42146 111.28783 1.57112 112.2641 .42848 113.24037 .00644 114.21649 .30502 115.19275 1.32822 116.16887 3.06236 117.14514 5.49129 118.12141 8.59563 119.09753 12.34232 120.0738 16.70792 121.04993 21.64162 122.0262 27.10951 123.00247 33.05595 123.97859 39.42763 124.95486 46.17293 125.93098 53.22488 126.90724 60.52538 127.88351 68.005 128.85962 75.59763 129.83589 83.2354 130.81201 90.85223 131.78829 98.37704 132.76456 105.74612 133.74068 112.88684 134.71695 119.7427 135.69307 126.24269 136.66934 132.34084 137.6456 137.97254 138.62172 143.09023 139.59799 147.65273 140.57411 151.60842 141.55039 154.93466 142.52666 157.59033 143.50278 159.55931 144.47905 160.82299 145.45517 161.36284 146.43144 161.1845 147.40772 160.28072 148.38384 158.66762 149.36009 156.35166 150.33621 153.3595 151.31249 149.71529 152.28874 145.45218 153.26488 140.60967 154.24115 135.2273 155.21726 129.35996 156.19355 123.05202 157.1698 116.36641 158.14592 109.36128 159.1222 102.0979 160.09832 94.6449 161.07457 87.06438 162.05084 79.42902 163.02696 71.80655 164.00324 64.25993 164.97936 56.8618 165.95563 49.67752 166.9319 42.76923 167.90802 36.20387 168.8843 30.0355 169.86042 24.32472 170.83669 19.11667 171.81295 14.45894 172.78907 10.39836 173.76534 6.96397 174.74146 4.19533 175.71773 2.11017 176.694 .73108 177.67012 .06776 178.64638 .12589 179.62252 .91023 180.59879 2.40228 181.57505 4.60364 182.55118 7.48366 183.52742 11.02295 184.50354 15.186 185.47982 19.9349 186.45609 25.22932 187.4322 31.01921 188.40848 37.25693 189.3846 43.88281 190.36087 50.83954 191.33715 58.06499 192.31327 65.49217 193.28954 73.05571 194.26566 80.68706"/>
<use data-text="x" xlink:href="#font_2_2" transform="matrix(9.9626,0,0,-9.962799,192.163,109.20392)"/>
<use data-text="y" xlink:href="#font_2_3" transform="matrix(9.9626,0,0,-9.962799,75.385,12.937988)"/>
</svg>
